<svg width="1920" height="520" viewBox="0 0 1920 520" fill="none" xmlns="http://www.w3.org/2000/svg">
<rect width="1920" height="520" fill="#0E2145"/>
<mask id="mask0_12203_70873" style="mask-type:alpha" maskUnits="userSpaceOnUse" x="0" y="0" width="1920" height="520">
<rect width="1920" height="520" fill="#0E2145"/>
</mask>
<g mask="url(#mask0_12203_70873)">
<g style="mix-blend-mode:overlay" opacity="0.2">
<line y1="29.6667" x2="1920" y2="29.6667" stroke="url(#paint0_linear_12203_70873)"/>
<line y1="111.5" x2="1920" y2="111.5" stroke="url(#paint1_linear_12203_70873)"/>
</g>
<g style="mix-blend-mode:overlay" opacity="0.2">
<line y1="273.333" x2="1920" y2="273.333" stroke="url(#paint2_linear_12203_70873)"/>
<line y1="191.5" x2="1920" y2="191.5" stroke="url(#paint3_linear_12203_70873)"/>
<line y1="355.167" x2="1920" y2="355.167" stroke="url(#paint4_linear_12203_70873)"/>
<line y1="437" x2="1920" y2="437" stroke="url(#paint5_linear_12203_70873)"/>
<line y1="518.833" x2="1920" y2="518.833" stroke="url(#paint6_linear_12203_70873)"/>
</g>
<g style="mix-blend-mode:overlay" opacity="0.2">
<line x1="0.5" y1="-423" x2="0.499958" y2="532" stroke="url(#paint7_linear_12203_70873)"/>
<line x1="240.5" y1="-423" x2="240.5" y2="532" stroke="url(#paint8_linear_12203_70873)"/>
<line x1="480.5" y1="-423" x2="480.5" y2="532" stroke="url(#paint9_linear_12203_70873)"/>
<line x1="720.5" y1="-423" x2="720.5" y2="532" stroke="url(#paint10_linear_12203_70873)"/>
<line x1="960.5" y1="-423" x2="960.5" y2="532" stroke="url(#paint11_linear_12203_70873)"/>
<line x1="1200.5" y1="-423" x2="1200.5" y2="532" stroke="url(#paint12_linear_12203_70873)"/>
<line x1="80.5" y1="-423" x2="80.5" y2="532" stroke="url(#paint13_linear_12203_70873)"/>
<line x1="320.5" y1="-423" x2="320.5" y2="532" stroke="url(#paint14_linear_12203_70873)"/>
<line x1="560.5" y1="-423" x2="560.5" y2="532" stroke="url(#paint15_linear_12203_70873)"/>
<line x1="800.5" y1="-423" x2="800.5" y2="532" stroke="url(#paint16_linear_12203_70873)"/>
<line x1="1040.5" y1="-423" x2="1040.5" y2="532" stroke="url(#paint17_linear_12203_70873)"/>
<line x1="1280.5" y1="-423" x2="1280.5" y2="532" stroke="url(#paint18_linear_12203_70873)"/>
<line x1="160.5" y1="-423" x2="160.5" y2="532" stroke="url(#paint19_linear_12203_70873)"/>
<line x1="400.5" y1="-423" x2="400.5" y2="532" stroke="url(#paint20_linear_12203_70873)"/>
<line x1="640.5" y1="-423" x2="640.5" y2="532" stroke="url(#paint21_linear_12203_70873)"/>
<line x1="880.5" y1="-423" x2="880.5" y2="532" stroke="url(#paint22_linear_12203_70873)"/>
<line x1="1120.5" y1="-423" x2="1120.5" y2="532" stroke="url(#paint23_linear_12203_70873)"/>
<line x1="1360.5" y1="-423" x2="1360.5" y2="532" stroke="url(#paint24_linear_12203_70873)"/>
</g>
<g style="mix-blend-mode:overlay" opacity="0.2">
<line x1="1440.5" y1="-423" x2="1440.5" y2="532" stroke="url(#paint25_linear_12203_70873)"/>
<line x1="1680.5" y1="-423" x2="1680.5" y2="532" stroke="url(#paint26_linear_12203_70873)"/>
<line x1="1520.5" y1="-423" x2="1520.5" y2="532" stroke="url(#paint27_linear_12203_70873)"/>
<line x1="1760.5" y1="-423" x2="1760.5" y2="532" stroke="url(#paint28_linear_12203_70873)"/>
<line x1="1600.5" y1="-423" x2="1600.5" y2="532" stroke="url(#paint29_linear_12203_70873)"/>
<line x1="1840.5" y1="-423" x2="1840.5" y2="532" stroke="url(#paint30_linear_12203_70873)"/>
</g>
<g style="mix-blend-mode:overlay" opacity="0.3">
<path d="M323.977 -560.368C532.031 -448.458 609.97 -189.076 498.06 18.9775C386.149 227.031 126.768 304.97 -81.2859 193.06C-289.339 81.1495 -367.279 -178.232 -255.368 -386.286C-143.458 -594.339 115.924 -672.279 323.977 -560.368ZM-9.91488 60.3734C124.858 132.867 292.88 82.3792 365.373 -52.3936C437.867 -187.166 387.379 -355.189 252.606 -427.682C117.834 -500.175 -50.1886 -449.688 -122.682 -314.915C-195.175 -180.142 -144.688 -12.1198 -9.91488 60.3734Z" fill="url(#paint31_linear_12203_70873)"/>
</g>
<g opacity="0.5" filter="url(#filter0_f_12203_70873)">
<path d="M1999 472.393C1999 752.953 1771.56 980.393 1491 980.393C1210.44 980.393 983 752.953 983 472.393C983 191.832 1210.44 -35.6072 1491 -35.6072C1771.56 -35.6072 1999 191.832 1999 472.393ZM1303.4 472.393C1303.4 576.004 1387.39 659.997 1491 659.997C1594.61 659.997 1678.6 576.004 1678.6 472.393C1678.6 368.782 1594.61 284.788 1491 284.788C1387.39 284.788 1303.4 368.782 1303.4 472.393Z" fill="url(#paint32_linear_12203_70873)"/>
</g>
<g opacity="0.7" filter="url(#filter1_f_12203_70873)">
<path d="M265.908 87.8774C-3.32246 166.803 -285.559 12.5313 -364.485 -256.699C-443.411 -525.929 -289.139 -808.166 -19.9085 -887.092C249.322 -966.018 531.558 -811.746 610.484 -542.515C689.41 -273.285 535.138 8.95142 265.908 87.8774ZM70.2237 -579.635C-29.2032 -550.488 -86.176 -446.258 -57.0286 -346.831C-27.8812 -247.404 76.3489 -190.432 175.776 -219.579C275.203 -248.726 332.175 -352.956 303.028 -452.383C273.881 -551.81 169.651 -608.783 70.2237 -579.635Z" fill="url(#paint33_linear_12203_70873)"/>
</g>
<g opacity="0.2" filter="url(#filter2_f_12203_70873)">
<path d="M467 633C467 913.561 239.561 1141 -41 1141C-321.561 1141 -549 913.561 -549 633C-549 352.439 -321.561 125 -41 125C239.561 125 467 352.439 467 633ZM-228.605 633C-228.605 736.611 -144.611 820.605 -41 820.605C62.6111 820.605 146.605 736.611 146.605 633C146.605 529.389 62.6111 445.395 -41 445.395C-144.611 445.395 -228.605 529.389 -228.605 633Z" fill="url(#paint34_linear_12203_70873)"/>
</g>
<g style="mix-blend-mode:overlay" opacity="0.45">
<path d="M1928.38 -334.838C1874.46 -339.073 1820.38 -328.907 1771.69 -305.38C1722.99 -281.853 1681.41 -245.809 1651.22 -200.938C1621.03 -156.067 1603.3 -103.979 1599.85 -50.0059C1596.4 3.96772 1607.35 57.8891 1631.58 106.24C1655.81 154.592 1692.46 195.636 1737.76 225.174C1783.07 254.712 1835.41 271.683 1889.42 274.349C1943.44 277.015 1997.2 265.281 2045.19 240.348C2093.19 215.415 2133.69 178.179 2162.57 132.449L2071.66 75.0452C2052.96 104.668 2026.72 128.789 1995.63 144.94C1964.54 161.091 1929.72 168.692 1894.72 166.965C1859.73 165.238 1825.83 154.245 1796.48 135.111C1767.13 115.977 1743.39 89.3888 1727.7 58.0679C1712 26.747 1704.91 -8.18227 1707.14 -43.1452C1709.38 -78.1082 1720.86 -111.849 1740.42 -140.916C1759.98 -169.983 1786.91 -193.331 1818.46 -208.571C1850 -223.812 1885.03 -230.397 1919.96 -227.653L1928.38 -334.838Z" fill="url(#paint35_linear_12203_70873)"/>
</g>
</g>
<defs>
<filter id="filter0_f_12203_70873" x="583" y="-435.607" width="1816" height="1816" filterUnits="userSpaceOnUse" color-interpolation-filters="sRGB">
<feFlood flood-opacity="0" result="BackgroundImageFix"/>
<feBlend mode="normal" in="SourceGraphic" in2="BackgroundImageFix" result="shape"/>
<feGaussianBlur stdDeviation="200" result="effect1_foregroundBlur_12203_70873"/>
</filter>
<filter id="filter1_f_12203_70873" x="-785.133" y="-1307.74" width="1816.26" height="1816.26" filterUnits="userSpaceOnUse" color-interpolation-filters="sRGB">
<feFlood flood-opacity="0" result="BackgroundImageFix"/>
<feBlend mode="normal" in="SourceGraphic" in2="BackgroundImageFix" result="shape"/>
<feGaussianBlur stdDeviation="200" result="effect1_foregroundBlur_12203_70873"/>
</filter>
<filter id="filter2_f_12203_70873" x="-949" y="-275" width="1816" height="1816" filterUnits="userSpaceOnUse" color-interpolation-filters="sRGB">
<feFlood flood-opacity="0" result="BackgroundImageFix"/>
<feBlend mode="normal" in="SourceGraphic" in2="BackgroundImageFix" result="shape"/>
<feGaussianBlur stdDeviation="200" result="effect1_foregroundBlur_12203_70873"/>
</filter>
<linearGradient id="paint0_linear_12203_70873" x1="0" y1="30.6667" x2="1920" y2="30.6667" gradientUnits="userSpaceOnUse">
<stop stop-color="white" stop-opacity="0"/>
<stop offset="0.5" stop-color="white"/>
<stop offset="1" stop-color="white" stop-opacity="0"/>
</linearGradient>
<linearGradient id="paint1_linear_12203_70873" x1="0" y1="112.5" x2="1920" y2="112.5" gradientUnits="userSpaceOnUse">
<stop stop-color="white" stop-opacity="0"/>
<stop offset="0.5" stop-color="white"/>
<stop offset="1" stop-color="white" stop-opacity="0"/>
</linearGradient>
<linearGradient id="paint2_linear_12203_70873" x1="0" y1="274.333" x2="1920" y2="274.333" gradientUnits="userSpaceOnUse">
<stop stop-color="white" stop-opacity="0"/>
<stop offset="0.5" stop-color="white"/>
<stop offset="1" stop-color="white" stop-opacity="0"/>
</linearGradient>
<linearGradient id="paint3_linear_12203_70873" x1="0" y1="192.5" x2="1920" y2="192.5" gradientUnits="userSpaceOnUse">
<stop stop-color="white" stop-opacity="0"/>
<stop offset="0.5" stop-color="white"/>
<stop offset="1" stop-color="white" stop-opacity="0"/>
</linearGradient>
<linearGradient id="paint4_linear_12203_70873" x1="0" y1="356.167" x2="1920" y2="356.167" gradientUnits="userSpaceOnUse">
<stop stop-color="white" stop-opacity="0"/>
<stop offset="0.5" stop-color="white"/>
<stop offset="1" stop-color="white" stop-opacity="0"/>
</linearGradient>
<linearGradient id="paint5_linear_12203_70873" x1="0" y1="438" x2="1920" y2="438" gradientUnits="userSpaceOnUse">
<stop stop-color="white" stop-opacity="0"/>
<stop offset="0.5" stop-color="white"/>
<stop offset="1" stop-color="white" stop-opacity="0"/>
</linearGradient>
<linearGradient id="paint6_linear_12203_70873" x1="0" y1="519.833" x2="1920" y2="519.833" gradientUnits="userSpaceOnUse">
<stop stop-color="white" stop-opacity="0"/>
<stop offset="0.5" stop-color="white"/>
<stop offset="1" stop-color="white" stop-opacity="0"/>
</linearGradient>
<linearGradient id="paint7_linear_12203_70873" x1="-0.5" y1="-423" x2="-0.500042" y2="532" gradientUnits="userSpaceOnUse">
<stop stop-color="white" stop-opacity="0"/>
<stop offset="0.5" stop-color="white"/>
<stop offset="1" stop-color="white" stop-opacity="0"/>
</linearGradient>
<linearGradient id="paint8_linear_12203_70873" x1="239.5" y1="-423" x2="239.5" y2="532" gradientUnits="userSpaceOnUse">
<stop stop-color="white" stop-opacity="0"/>
<stop offset="0.5" stop-color="white"/>
<stop offset="1" stop-color="white" stop-opacity="0"/>
</linearGradient>
<linearGradient id="paint9_linear_12203_70873" x1="479.5" y1="-423" x2="479.5" y2="532" gradientUnits="userSpaceOnUse">
<stop stop-color="white" stop-opacity="0"/>
<stop offset="0.5" stop-color="white"/>
<stop offset="1" stop-color="white" stop-opacity="0"/>
</linearGradient>
<linearGradient id="paint10_linear_12203_70873" x1="719.5" y1="-423" x2="719.5" y2="532" gradientUnits="userSpaceOnUse">
<stop stop-color="white" stop-opacity="0"/>
<stop offset="0.5" stop-color="white"/>
<stop offset="1" stop-color="white" stop-opacity="0"/>
</linearGradient>
<linearGradient id="paint11_linear_12203_70873" x1="959.5" y1="-423" x2="959.5" y2="532" gradientUnits="userSpaceOnUse">
<stop stop-color="white" stop-opacity="0"/>
<stop offset="0.5" stop-color="white"/>
<stop offset="1" stop-color="white" stop-opacity="0"/>
</linearGradient>
<linearGradient id="paint12_linear_12203_70873" x1="1199.5" y1="-423" x2="1199.5" y2="532" gradientUnits="userSpaceOnUse">
<stop stop-color="white" stop-opacity="0"/>
<stop offset="0.5" stop-color="white"/>
<stop offset="1" stop-color="white" stop-opacity="0"/>
</linearGradient>
<linearGradient id="paint13_linear_12203_70873" x1="79.5" y1="-423" x2="79.5" y2="532" gradientUnits="userSpaceOnUse">
<stop stop-color="white" stop-opacity="0"/>
<stop offset="0.5" stop-color="white"/>
<stop offset="1" stop-color="white" stop-opacity="0"/>
</linearGradient>
<linearGradient id="paint14_linear_12203_70873" x1="319.5" y1="-423" x2="319.5" y2="532" gradientUnits="userSpaceOnUse">
<stop stop-color="white" stop-opacity="0"/>
<stop offset="0.5" stop-color="white"/>
<stop offset="1" stop-color="white" stop-opacity="0"/>
</linearGradient>
<linearGradient id="paint15_linear_12203_70873" x1="559.5" y1="-423" x2="559.5" y2="532" gradientUnits="userSpaceOnUse">
<stop stop-color="white" stop-opacity="0"/>
<stop offset="0.5" stop-color="white"/>
<stop offset="1" stop-color="white" stop-opacity="0"/>
</linearGradient>
<linearGradient id="paint16_linear_12203_70873" x1="799.5" y1="-423" x2="799.5" y2="532" gradientUnits="userSpaceOnUse">
<stop stop-color="white" stop-opacity="0"/>
<stop offset="0.5" stop-color="white"/>
<stop offset="1" stop-color="white" stop-opacity="0"/>
</linearGradient>
<linearGradient id="paint17_linear_12203_70873" x1="1039.5" y1="-423" x2="1039.5" y2="532" gradientUnits="userSpaceOnUse">
<stop stop-color="white" stop-opacity="0"/>
<stop offset="0.5" stop-color="white"/>
<stop offset="1" stop-color="white" stop-opacity="0"/>
</linearGradient>
<linearGradient id="paint18_linear_12203_70873" x1="1279.5" y1="-423" x2="1279.5" y2="532" gradientUnits="userSpaceOnUse">
<stop stop-color="white" stop-opacity="0"/>
<stop offset="0.5" stop-color="white"/>
<stop offset="1" stop-color="white" stop-opacity="0"/>
</linearGradient>
<linearGradient id="paint19_linear_12203_70873" x1="159.5" y1="-423" x2="159.5" y2="532" gradientUnits="userSpaceOnUse">
<stop stop-color="white" stop-opacity="0"/>
<stop offset="0.5" stop-color="white"/>
<stop offset="1" stop-color="white" stop-opacity="0"/>
</linearGradient>
<linearGradient id="paint20_linear_12203_70873" x1="399.5" y1="-423" x2="399.5" y2="532" gradientUnits="userSpaceOnUse">
<stop stop-color="white" stop-opacity="0"/>
<stop offset="0.5" stop-color="white"/>
<stop offset="1" stop-color="white" stop-opacity="0"/>
</linearGradient>
<linearGradient id="paint21_linear_12203_70873" x1="639.5" y1="-423" x2="639.5" y2="532" gradientUnits="userSpaceOnUse">
<stop stop-color="white" stop-opacity="0"/>
<stop offset="0.5" stop-color="white"/>
<stop offset="1" stop-color="white" stop-opacity="0"/>
</linearGradient>
<linearGradient id="paint22_linear_12203_70873" x1="879.5" y1="-423" x2="879.5" y2="532" gradientUnits="userSpaceOnUse">
<stop stop-color="white" stop-opacity="0"/>
<stop offset="0.5" stop-color="white"/>
<stop offset="1" stop-color="white" stop-opacity="0"/>
</linearGradient>
<linearGradient id="paint23_linear_12203_70873" x1="1119.5" y1="-423" x2="1119.5" y2="532" gradientUnits="userSpaceOnUse">
<stop stop-color="white" stop-opacity="0"/>
<stop offset="0.5" stop-color="white"/>
<stop offset="1" stop-color="white" stop-opacity="0"/>
</linearGradient>
<linearGradient id="paint24_linear_12203_70873" x1="1359.5" y1="-423" x2="1359.5" y2="532" gradientUnits="userSpaceOnUse">
<stop stop-color="white" stop-opacity="0"/>
<stop offset="0.5" stop-color="white"/>
<stop offset="1" stop-color="white" stop-opacity="0"/>
</linearGradient>
<linearGradient id="paint25_linear_12203_70873" x1="1439.5" y1="-423" x2="1439.5" y2="532" gradientUnits="userSpaceOnUse">
<stop stop-color="white" stop-opacity="0"/>
<stop offset="0.5" stop-color="white"/>
<stop offset="1" stop-color="white" stop-opacity="0"/>
</linearGradient>
<linearGradient id="paint26_linear_12203_70873" x1="1679.5" y1="-423" x2="1679.5" y2="532" gradientUnits="userSpaceOnUse">
<stop stop-color="white" stop-opacity="0"/>
<stop offset="0.5" stop-color="white"/>
<stop offset="1" stop-color="white" stop-opacity="0"/>
</linearGradient>
<linearGradient id="paint27_linear_12203_70873" x1="1519.5" y1="-423" x2="1519.5" y2="532" gradientUnits="userSpaceOnUse">
<stop stop-color="white" stop-opacity="0"/>
<stop offset="0.5" stop-color="white"/>
<stop offset="1" stop-color="white" stop-opacity="0"/>
</linearGradient>
<linearGradient id="paint28_linear_12203_70873" x1="1759.5" y1="-423" x2="1759.5" y2="532" gradientUnits="userSpaceOnUse">
<stop stop-color="white" stop-opacity="0"/>
<stop offset="0.5" stop-color="white"/>
<stop offset="1" stop-color="white" stop-opacity="0"/>
</linearGradient>
<linearGradient id="paint29_linear_12203_70873" x1="1599.5" y1="-423" x2="1599.5" y2="532" gradientUnits="userSpaceOnUse">
<stop stop-color="white" stop-opacity="0"/>
<stop offset="0.5" stop-color="white"/>
<stop offset="1" stop-color="white" stop-opacity="0"/>
</linearGradient>
<linearGradient id="paint30_linear_12203_70873" x1="1839.5" y1="-423" x2="1839.5" y2="532" gradientUnits="userSpaceOnUse">
<stop stop-color="white" stop-opacity="0"/>
<stop offset="0.5" stop-color="white"/>
<stop offset="1" stop-color="white" stop-opacity="0"/>
</linearGradient>
<linearGradient id="paint31_linear_12203_70873" x1="-255.368" y1="-386.286" x2="498.06" y2="18.9775" gradientUnits="userSpaceOnUse">
<stop stop-color="white"/>
<stop offset="1" stop-color="white" stop-opacity="0"/>
</linearGradient>
<linearGradient id="paint32_linear_12203_70873" x1="1491" y1="-35.6072" x2="1491" y2="980.393" gradientUnits="userSpaceOnUse">
<stop stop-color="#0170FF"/>
<stop offset="1" stop-color="#7B16A0"/>
</linearGradient>
<linearGradient id="paint33_linear_12203_70873" x1="610.484" y1="-542.515" x2="-364.485" y2="-256.699" gradientUnits="userSpaceOnUse">
<stop stop-color="#0199FF"/>
<stop offset="1" stop-color="#5816A0"/>
</linearGradient>
<linearGradient id="paint34_linear_12203_70873" x1="-41" y1="125" x2="-41" y2="1141" gradientUnits="userSpaceOnUse">
<stop stop-color="#01CCFF"/>
<stop offset="1" stop-color="#7B16A0"/>
</linearGradient>
<linearGradient id="paint35_linear_12203_70873" x1="2148.29" y1="153.132" x2="1660.66" y2="-214.187" gradientUnits="userSpaceOnUse">
<stop stop-color="white"/>
<stop offset="1" stop-color="white" stop-opacity="0"/>
</linearGradient>
</defs>
</svg>
