<svg width="217" height="161" viewBox="0 0 217 161" fill="none" xmlns="http://www.w3.org/2000/svg">
<mask id="mask0_2720_46503" style="mask-type:alpha" maskUnits="userSpaceOnUse" x="0" y="0" width="217" height="161">
<rect width="216.439" height="161" fill="#D9D9D9"/>
</mask>
<g mask="url(#mask0_2720_46503)">
<g opacity="0.5">
<mask id="path-2-inside-1_2720_46503" fill="white">
<path d="M207.986 108.035C209.061 83.3647 201.262 59.1257 186.002 39.7116C170.742 20.2975 149.032 6.99329 124.806 2.21047C100.58 -2.57234 75.442 1.48283 53.9489 13.6409C32.4558 25.799 16.03 45.2554 7.64895 68.4831L8.09678 68.6447C16.4392 45.524 32.7893 26.1574 54.1833 14.0553C75.5773 1.95325 100.599 -2.08323 124.714 2.67754C148.828 7.43831 170.438 20.6812 185.628 40.0058C200.818 59.3304 208.581 83.4576 207.511 108.014L207.986 108.035Z"/>
</mask>
<path d="M207.986 108.035C209.061 83.3647 201.262 59.1257 186.002 39.7116C170.742 20.2975 149.032 6.99329 124.806 2.21047C100.58 -2.57234 75.442 1.48283 53.9489 13.6409C32.4558 25.799 16.03 45.2554 7.64895 68.4831L8.09678 68.6447C16.4392 45.524 32.7893 26.1574 54.1833 14.0553C75.5773 1.95325 100.599 -2.08323 124.714 2.67754C148.828 7.43831 170.438 20.6812 185.628 40.0058C200.818 59.3304 208.581 83.4576 207.511 108.014L207.986 108.035Z" stroke="url(#paint0_linear_2720_46503)" stroke-width="1.51887" stroke-dasharray="2.28 2.28" mask="url(#path-2-inside-1_2720_46503)"/>
</g>
<g opacity="0.5">
<mask id="path-3-inside-2_2720_46503" fill="white">
<path d="M7.78687 138.972C16.2588 162.167 32.7606 181.559 54.3011 193.632C75.8416 205.706 100.995 209.663 125.202 204.785C149.409 199.908 171.068 186.519 186.251 167.045C201.435 147.571 209.14 123.302 207.968 98.6364L207.492 98.659C208.659 123.211 200.99 147.368 185.876 166.752C170.762 186.136 149.204 199.464 125.108 204.319C101.013 209.174 75.9751 205.235 54.5339 193.217C33.0927 181.199 16.6669 161.896 8.23405 138.809L7.78687 138.972Z"/>
</mask>
<path d="M7.78687 138.972C16.2588 162.167 32.7606 181.559 54.3011 193.632C75.8416 205.706 100.995 209.663 125.202 204.785C149.409 199.908 171.068 186.519 186.251 167.045C201.435 147.571 209.14 123.302 207.968 98.6364L207.492 98.659C208.659 123.211 200.99 147.368 185.876 166.752C170.762 186.136 149.204 199.464 125.108 204.319C101.013 209.174 75.9751 205.235 54.5339 193.217C33.0927 181.199 16.6669 161.896 8.23405 138.809L7.78687 138.972Z" stroke="url(#paint1_linear_2720_46503)" stroke-width="1.51887" stroke-dasharray="2.28 2.28" mask="url(#path-3-inside-2_2720_46503)"/>
</g>
<circle opacity="0.08" cx="104.804" cy="103.538" r="91.1321" fill="url(#paint2_linear_2720_46503)"/>
<circle opacity="0.1" cx="104.804" cy="103.537" r="72.9057" fill="url(#paint3_linear_2720_46503)"/>
<circle cx="104.803" cy="103.537" r="48.6038" fill="white"/>
<g filter="url(#filter0_d_2720_46503)">
<circle cx="8.17038" cy="66.7155" r="3.79717" transform="rotate(-2.50406 8.17038 66.7155)" fill="#0170FF"/>
<circle cx="8.17038" cy="66.7155" r="4.34038" transform="rotate(-2.50406 8.17038 66.7155)" stroke="white" stroke-width="1.08642"/>
</g>
<g filter="url(#filter1_d_2720_46503)">
<circle cx="207.993" cy="97.3439" r="3.79717" transform="rotate(-15.7345 207.993 97.3439)" fill="#0170FF"/>
<circle cx="207.993" cy="97.3439" r="4.34038" transform="rotate(-15.7345 207.993 97.3439)" stroke="white" stroke-width="1.08642"/>
</g>
</g>
<path d="M156.671 153.95H38.3362C38.247 153.95 38.1615 153.914 38.0985 153.851C38.0354 153.788 38 153.703 38 153.614C38 153.524 38.0354 153.439 38.0985 153.376C38.1615 153.313 38.247 153.277 38.3362 153.277H156.671C156.76 153.277 156.845 153.313 156.908 153.376C156.971 153.439 157.007 153.524 157.007 153.614C157.007 153.703 156.971 153.788 156.908 153.851C156.845 153.914 156.76 153.95 156.671 153.95Z" fill="#1D1D1B"/>
<path d="M165.748 160.002H147.594C147.505 160.002 147.419 159.967 147.356 159.904C147.293 159.841 147.258 159.755 147.258 159.666C147.258 159.577 147.293 159.492 147.356 159.429C147.419 159.366 147.505 159.33 147.594 159.33H165.748C165.837 159.33 165.922 159.366 165.985 159.429C166.048 159.492 166.084 159.577 166.084 159.666C166.084 159.755 166.048 159.841 165.985 159.904C165.922 159.967 165.837 160.002 165.748 160.002Z" fill="#1D1D1B"/>
<path d="M142.523 88.7025C139.081 88.7025 136.924 88.284 136.89 88.2773C136.806 88.2569 136.733 88.2047 136.686 88.1316C136.639 88.0584 136.622 87.9699 136.639 87.8848C136.656 87.7996 136.705 87.7243 136.777 87.6746C136.848 87.6249 136.936 87.6048 137.021 87.6183C137.077 87.6301 142.736 88.7193 150.376 87.3091C157.424 86.0097 167.664 82.258 176.42 71.7659C176.478 71.7011 176.559 71.6614 176.646 71.6552C176.733 71.6489 176.818 71.6766 176.885 71.7323C176.952 71.7881 176.995 71.8675 177.004 71.954C177.014 72.0406 176.989 72.1273 176.936 72.1962C173.011 76.9027 168.463 80.6746 163.422 83.4128C159.372 85.608 155 87.1483 150.469 87.9764C147.847 88.457 145.188 88.7001 142.523 88.7025Z" fill="#1D1D1B"/>
<path d="M66.9145 68.5586C66.9145 68.5586 68.5954 69.9033 68.4273 72.0885C68.2592 74.2736 60.8633 73.097 60.8633 73.097L66.9145 68.5586Z" fill="#FFCDB2"/>
<path d="M66.9162 68.5589C66.9162 68.5589 68.597 69.9036 68.429 72.0888C68.3483 73.141 66.5918 73.4133 64.7916 73.4133C63.477 73.3977 62.1651 73.2921 60.865 73.0973L66.9162 68.5589ZM66.9262 67.9219L66.6136 68.1555L60.5624 72.6939L59.6094 73.4083L60.786 73.5949C62.1121 73.7952 63.4505 73.903 64.7916 73.9176C65.7816 73.9176 68.7937 73.9176 68.9316 72.1275C69.1182 69.7036 67.3078 68.2261 67.2305 68.1656L66.9262 67.9219Z" fill="#1D1D1B"/>
<path d="M57.0388 153.611C57.0388 153.611 54.2737 147.814 81.7042 140.332L129.694 152.518L129.579 153.611H57.0388Z" fill="#382256"/>
<path d="M129.804 153.864H56.8767L56.808 153.721C56.7945 153.692 56.4952 153.049 56.9961 151.946C58.0046 149.752 62.5431 145.298 81.6364 140.089L81.7002 140.072L81.7641 140.089L129.965 152.329L129.804 153.864ZM57.2264 153.36H129.35L129.417 152.709L81.7019 140.593C62.8608 145.74 58.4216 150.047 57.4534 152.156C57.1828 152.749 57.1928 153.158 57.2264 153.36Z" fill="#1D1F1C"/>
<path d="M58.0594 72.3548L57.8207 75.2728C57.8207 75.2728 52.4419 77.5958 54.2321 85.3431C56.0222 93.0903 59.8831 109.128 85.9772 109.02C85.9772 109.02 75.8096 128.091 81.7028 140.333C96.6929 147.366 112.745 151.484 129.86 152.688C129.86 152.688 134.029 138.578 134.062 131.845C134.096 125.111 141.396 130.492 141.976 125.53C142.556 120.568 138.433 100.916 114.9 92.1759C114.9 92.1759 109.569 96.0991 104.983 88.8141C104.983 88.8141 99.1 87.9736 79.6504 93.4718C74.0077 95.067 73.7673 91.4363 74.5221 86.4877C75.2768 81.5392 73.9236 76.9369 68.6002 74.429L68.4405 72.1699C68.4405 72.1699 65.8688 74.0324 58.0594 72.3548Z" fill="#07ACEE"/>
<path d="M68.4411 72.1698L68.6008 74.4289C73.9242 76.9368 75.274 81.5391 74.5227 86.4876C73.894 90.6327 73.9562 93.8533 77.3096 93.8533C78.1038 93.8335 78.8916 93.7051 79.651 93.4717C94.5487 89.2611 101.486 88.7652 103.918 88.7652C104.274 88.7587 104.63 88.7738 104.984 88.8106C107.191 92.3186 109.571 93.228 111.447 93.228C112.676 93.219 113.876 92.8522 114.901 92.1724C138.433 100.913 142.557 120.564 141.977 125.526C141.397 130.488 134.097 125.108 134.063 131.841C134.029 138.575 129.861 152.684 129.861 152.684C112.735 151.51 96.6823 147.393 81.7034 140.333C75.8102 128.091 85.9778 109.02 85.9778 109.02H85.7173C59.8602 109.02 56.0094 93.0633 54.2327 85.343C52.4493 77.5958 57.8213 75.2727 57.8213 75.2727L58.06 72.3547C60.4855 72.8758 62.4035 73.0557 63.8978 73.0557C67.2175 73.0557 68.4362 72.1698 68.4362 72.1698H68.4411ZM68.8748 71.2285L68.1437 71.758C68.1016 71.7866 66.9166 72.5514 63.8927 72.5514C61.9633 72.5215 60.0424 72.2905 58.1609 71.8622L57.5994 71.7412L57.5524 72.3144L57.3372 74.95C56.3929 75.4875 55.5763 76.2232 54.9436 77.1066C53.8611 78.6043 52.772 81.2702 53.7351 85.4556C54.5756 89.135 56.001 95.2955 60.5646 100.415C63.0456 103.201 66.2022 105.374 69.9472 106.878C74.1897 108.583 79.3048 109.472 85.1543 109.526C83.524 112.88 82.1812 116.366 81.1404 119.947C80.0814 123.645 79.488 127.113 79.3754 130.258C79.2359 134.222 79.8644 137.686 81.2444 140.552L81.3219 140.72L81.49 140.797C88.9998 144.319 96.8218 147.133 104.854 149.202C113.039 151.292 121.398 152.629 129.827 153.195L130.231 153.224L130.345 152.836C130.513 152.257 134.534 138.582 134.567 131.851C134.582 128.7 136.216 128.614 138.285 128.507C140.012 128.416 142.162 128.305 142.478 125.594C142.783 122.97 141.822 116.656 137.916 110.018C135.676 106.232 132.821 102.846 129.468 99.9986C125.42 96.541 120.577 93.7508 115.076 91.7085L114.822 91.6127L114.602 91.7807C113.663 92.395 112.568 92.7275 111.447 92.7389C109.188 92.7389 107.157 91.332 105.411 88.5568L105.286 88.3602L105.054 88.3265C104.677 88.2859 104.297 88.269 103.918 88.2761C101.603 88.2761 94.5941 88.735 79.5131 92.9994C78.798 93.2178 78.057 93.3394 77.3096 93.3608C76.4507 93.3608 75.8354 93.1288 75.427 92.6548C74.4319 91.4984 74.6638 88.9316 75.0219 86.575C75.901 80.781 73.8452 76.478 69.0833 74.1129L68.9437 72.1446L68.8799 71.2403L68.8748 71.2285Z" fill="#1D1D1B"/>
<path d="M68.975 74.61C68.8523 74.5478 68.7279 74.484 68.6001 74.4251L68.4404 72.166C68.4404 72.166 65.8687 74.0285 58.0593 72.3509L57.8206 75.2689C57.8206 75.2689 57.7366 75.3043 57.5938 75.3833C60.7521 76.3279 65.583 77.1078 68.975 74.61Z" fill="#0598C6"/>
<path d="M130.429 101.311C139.27 109.017 156.385 128.521 156.387 133.883C156.389 139.245 152.689 140.213 152.689 140.213L153.497 144.198L140.538 149.913L139.417 147.409C139.417 147.409 133.895 147.688 132.423 142.944C130.95 138.201 127.659 119.72 123.805 116.319" fill="#07ACEE"/>
<path d="M140.532 150.169C140.483 150.169 140.436 150.155 140.395 150.128C140.354 150.102 140.321 150.065 140.301 150.021L139.249 147.667C138.276 147.667 133.534 147.41 132.174 143.022C131.796 141.801 131.292 139.651 130.707 137.162C129.007 129.926 126.441 118.99 123.632 116.511C123.607 116.488 123.587 116.462 123.572 116.432C123.558 116.402 123.549 116.369 123.547 116.336C123.545 116.303 123.55 116.27 123.561 116.239C123.572 116.207 123.589 116.178 123.611 116.153C123.633 116.129 123.66 116.108 123.69 116.094C123.72 116.079 123.752 116.071 123.785 116.069C123.818 116.067 123.851 116.072 123.883 116.082C123.914 116.093 123.943 116.11 123.968 116.132C126.898 118.718 129.488 129.748 131.196 137.048C131.777 139.527 132.282 141.67 132.655 142.872C134.052 147.37 139.18 147.172 139.397 147.162C139.447 147.159 139.498 147.172 139.541 147.198C139.584 147.224 139.618 147.263 139.639 147.309L140.658 149.585L153.202 144.049L152.434 140.263C152.421 140.2 152.433 140.134 152.467 140.08C152.501 140.025 152.555 139.985 152.617 139.969C152.76 139.93 156.147 138.971 156.135 133.883C156.135 128.601 138.782 108.925 130.263 101.5C130.213 101.456 130.182 101.393 130.178 101.326C130.174 101.259 130.197 101.193 130.241 101.142C130.286 101.092 130.348 101.061 130.416 101.057C130.483 101.053 130.549 101.076 130.599 101.12C139.399 108.79 156.643 128.376 156.645 133.883C156.645 138.589 153.811 140.051 152.977 140.377L153.742 144.148C153.753 144.204 153.745 144.262 153.719 144.313C153.692 144.365 153.65 144.405 153.597 144.428L140.637 150.143C140.604 150.159 140.568 150.167 140.532 150.169Z" fill="#1D1D1B"/>
<path d="M152.467 140.199C152.674 140.136 152.873 140.053 153.064 139.952C149.832 139.533 142.427 139.498 139.434 147.159C139.565 147.159 139.64 147.159 139.64 147.159L140.723 149.58L153.249 144.051L152.467 140.199Z" fill="#0598C6"/>
<path d="M136.791 152.969C136.791 152.969 135.562 147.62 140.885 145.291C146.209 142.961 151.867 142.462 155.359 145.291C158.852 148.119 159.187 151.612 158.188 153.942C157.19 156.272 154.694 156.771 152.033 154.941C152.033 154.941 149.537 158.6 145.045 155.109C145.045 155.109 139.221 159.101 139.055 152.779L136.791 152.969Z" fill="#FFCDB2"/>
<path d="M149.169 143.358C151.542 143.358 153.696 143.95 155.358 145.296C158.853 148.125 159.185 151.618 158.187 153.948C157.599 155.32 156.491 156.057 155.136 156.057C154.192 156.057 153.119 155.698 152.032 154.946C152.032 154.946 150.887 156.627 148.756 156.627C147.737 156.627 146.495 156.244 145.044 155.115C145.044 155.115 143.229 156.358 141.598 156.358C140.306 156.358 139.127 155.578 139.054 152.785L136.789 152.976C136.789 152.976 135.561 147.628 140.884 145.298C143.674 144.078 146.555 143.36 149.169 143.36V143.358ZM149.169 142.91C146.587 142.91 143.659 143.594 140.704 144.886C137.781 146.165 136.751 148.327 136.401 149.914C136.171 150.954 136.154 152.03 136.351 153.077C136.373 153.176 136.429 153.265 136.509 153.328C136.589 153.391 136.687 153.426 136.789 153.425H136.826L138.628 153.274C138.85 156.18 140.346 156.804 141.598 156.804C142.975 156.804 144.427 156.019 145.022 155.657C146.303 156.595 147.559 157.071 148.756 157.071C149.391 157.063 150.019 156.924 150.597 156.66C151.176 156.397 151.694 156.016 152.117 155.541C153.138 156.173 154.173 156.505 155.129 156.505C156.683 156.505 157.945 155.637 158.594 154.123C159.177 152.72 159.279 151.163 158.886 149.695C158.429 147.939 157.305 146.298 155.635 144.945C153.966 143.592 151.786 142.906 149.162 142.906L149.169 142.91Z" fill="black"/>
<path d="M119.612 78.3997C119.612 78.3997 121.197 82.8591 124.16 81.0252C127.124 79.1914 133.427 75.206 136.614 79.4788C139.801 83.7516 139.562 84.8576 143.158 83.7735C146.753 82.6893 156.074 92.2485 147.204 97.9081C132.667 107.187 112.125 85.1518 112.125 85.1518L114.31 81.8657L119.612 78.3997Z" fill="#382256"/>
<path d="M147.258 85.2506C150.69 88.0325 153.44 93.9324 147.207 97.9094C137.591 104.048 125.346 96.4823 118.158 90.6564C116.035 88.9503 114.021 87.1123 112.129 85.1531L114.314 81.867L119.616 78.401C119.616 78.401 120.187 80.0062 121.283 80.8937C122.014 81.4871 122.979 81.7611 124.164 81.0265C126.879 79.3457 132.401 75.8578 135.762 78.5775C136.085 78.8411 136.374 79.1444 136.621 79.4801C138.253 81.6653 138.988 83.0268 139.798 83.6824C140.57 84.3076 141.412 84.2992 143.16 83.7731C144.229 83.4521 145.804 84.0723 147.256 85.249L147.258 85.2506ZM147.46 84.9985C145.851 83.6941 144.21 83.1209 143.067 83.4638C141.373 83.9681 140.655 83.9681 139.996 83.4302C139.517 83.0419 139.032 82.3393 138.358 81.3661C137.944 80.7677 137.473 80.0903 136.875 79.2868C136.611 78.9298 136.304 78.6068 135.961 78.3254C134.439 77.0933 132.335 76.9218 129.703 77.8211C127.556 78.5489 125.479 79.8382 124.105 80.6786L123.993 80.7492C123.087 81.3089 122.266 81.2737 121.485 80.64C120.476 79.818 119.925 78.3035 119.918 78.2867C119.898 78.231 119.863 78.1817 119.817 78.1438C119.788 78.1197 119.754 78.1015 119.718 78.09C119.672 78.0745 119.622 78.0696 119.574 78.0757C119.525 78.0818 119.479 78.0987 119.438 78.1253L114.136 81.593C114.099 81.6166 114.068 81.6475 114.044 81.6838L111.858 84.9699C111.819 85.0303 111.8 85.1024 111.806 85.1746C111.812 85.2468 111.841 85.315 111.89 85.3683C113.795 87.337 115.82 89.1856 117.953 90.9034C121.233 93.5609 126.274 97.1345 131.663 99.0675C137.746 101.253 143.034 100.952 147.379 98.1766C148.634 97.3765 149.601 96.4537 150.248 95.4351C150.834 94.5294 151.175 93.4867 151.237 92.4095C151.312 91.0648 150.949 89.6193 150.188 88.2359C149.491 86.9924 148.565 85.8918 147.46 84.9918V84.9985Z" fill="black"/>
<path d="M137.331 100.087C128.422 87.5379 114.99 84.2871 114.99 84.2871C114.254 84.8002 113.647 85.476 113.215 86.2622C116.546 89.5264 127.008 99.0083 137.331 100.087Z" fill="#050505"/>
<path d="M120.376 70.8372C123.284 70.8372 125.642 68.4794 125.642 65.5709C125.642 62.6625 123.284 60.3047 120.376 60.3047C117.467 60.3047 115.109 62.6625 115.109 65.5709C115.109 68.4794 117.467 70.8372 120.376 70.8372Z" fill="#382256"/>
<path d="M122.728 60.859C123.863 61.4253 124.754 62.3817 125.24 63.5527C125.726 64.7237 125.773 66.0307 125.373 67.2336C124.972 68.4365 124.151 69.4546 123.061 70.1009C121.97 70.7473 120.683 70.9785 119.436 70.7522C118.188 70.5259 117.064 69.8571 116.27 68.8688C115.476 67.8805 115.066 66.6389 115.113 65.372C115.161 64.1052 115.664 62.8981 116.531 61.9724C117.397 61.0467 118.568 60.4646 119.829 60.3329C120.826 60.2283 121.832 60.4109 122.728 60.859ZM122.908 60.5009C121.783 59.9382 120.503 59.7658 119.269 60.011C118.035 60.2562 116.918 60.9049 116.094 61.855C115.269 62.8051 114.784 64.0025 114.716 65.2586C114.647 66.5146 114.998 67.7578 115.713 68.7923C116.429 69.8268 117.469 70.5937 118.668 70.9723C119.868 71.3508 121.159 71.3194 122.339 70.883C123.519 70.4466 124.52 69.63 125.184 68.5619C125.849 67.4939 126.139 66.2351 126.009 64.9839C125.911 64.0362 125.575 63.1287 125.033 62.3451C124.491 61.5616 123.76 60.9273 122.908 60.5009Z" fill="black"/>
<path d="M100.81 75.6461C100.81 75.6461 98.5154 71.375 101.146 68.8553C103.777 66.3357 104.472 66.9038 105.768 65.4851C107.064 64.0665 110.7 63.5286 113.136 65.3607C113.136 65.3607 117.506 64.1034 120.27 66.0617C123.033 68.0199 123.556 69.8907 123.519 72.6171C123.482 75.3435 123.949 76.7437 123.988 78.6683C124.026 80.5929 123.256 85.6507 115.415 86.6223C107.574 87.5938 100.81 75.6461 100.81 75.6461Z" fill="#382256"/>
<path d="M119.605 65.6653C119.835 65.7804 120.055 65.9124 120.266 66.0603C123.036 68.0168 123.552 69.8893 123.515 72.6157C123.478 75.3421 123.945 76.7423 123.984 78.6669C124.022 80.5916 123.252 85.6494 115.411 86.6209C113.67 86.8377 111.979 86.4142 110.404 85.6258C104.899 82.8675 100.803 75.643 100.803 75.643C100.803 75.643 98.5081 71.3719 101.139 68.8522C103.769 66.3326 104.465 66.9007 105.761 65.4821C106.916 64.2197 109.925 63.6533 112.291 64.8383C112.587 64.9852 112.868 65.1591 113.132 65.3577C113.132 65.3577 116.853 64.2853 119.605 65.6636V65.6653ZM119.783 65.3072C117.262 64.0398 114.033 64.7173 113.214 64.9223C112.978 64.7578 112.73 64.6106 112.473 64.4819C109.911 63.1994 106.728 63.8382 105.47 65.2131C104.941 65.7914 104.539 65.9998 103.983 66.2889C103.262 66.662 102.364 67.1293 100.866 68.5631C99.6897 69.691 99.2544 71.3147 99.599 73.2612C99.7604 74.1549 100.05 75.0206 100.46 75.8313C101.286 77.2321 102.212 78.5718 103.23 79.8402C104.817 81.8338 107.319 84.5165 110.227 85.9738C112.017 86.8697 113.779 87.2193 115.463 87.0092C118.956 86.5755 121.483 85.3014 122.974 83.2238C123.92 81.8892 124.412 80.2859 124.379 78.6501C124.352 77.8674 124.282 77.0867 124.167 76.312C123.985 75.0879 123.899 73.8515 123.91 72.6141C123.947 69.8053 123.405 67.7765 120.491 65.7224C120.264 65.5628 120.026 65.4207 119.778 65.2972L119.783 65.3072Z" fill="black"/>
<path d="M114.206 76.9383H114.223C116.408 77.7989 119.357 76.4861 119.481 76.434C119.529 76.4117 119.567 76.3711 119.585 76.3211C119.604 76.2712 119.602 76.2159 119.58 76.1675C119.557 76.1192 119.517 76.0817 119.467 76.0632C119.417 76.0448 119.361 76.0469 119.313 76.0692C119.284 76.0827 116.397 77.3685 114.366 76.5735C114.318 76.5512 114.263 76.5489 114.213 76.5672C114.163 76.5855 114.123 76.6228 114.101 76.671C114.078 76.7191 114.076 76.7742 114.094 76.824C114.113 76.8738 114.15 76.9143 114.198 76.9366L114.206 76.9383Z" fill="black"/>
<path d="M104.618 88.8828C104.618 88.8828 101.119 89.9922 103.304 93.0178C105.489 96.0434 108.515 94.5306 108.515 94.5306C108.515 94.5306 113.557 99.4052 115.574 92.6816L104.618 88.8828Z" fill="white"/>
<path d="M112.136 96.4904C110.467 96.4904 108.908 95.2231 108.463 94.8264C107.779 95.097 105.086 95.9189 103.098 93.1656C102.398 92.1958 102.176 91.2982 102.439 90.5015C102.874 89.1836 104.473 88.6642 104.54 88.6424L104.62 88.6172L115.882 92.5219L115.813 92.7538C115.191 94.828 114.213 96.0518 112.907 96.393C112.655 96.4581 112.396 96.4908 112.136 96.4904ZM108.56 94.2263L108.688 94.349C108.71 94.3692 110.853 96.4114 112.783 95.9055C113.86 95.6231 114.692 94.5927 115.26 92.8396L104.617 89.1416C104.32 89.2542 103.222 89.7249 102.918 90.6544C102.709 91.2898 102.908 92.0328 103.508 92.8631C105.536 95.6736 108.285 94.3557 108.401 94.2986L108.56 94.2263Z" fill="#1D1D1B"/>
<path d="M114.931 75.6189C115.41 75.854 115.919 76.0236 116.443 76.1232C116.469 76.1286 116.495 76.1288 116.521 76.1238C116.547 76.1188 116.571 76.1087 116.593 76.0942C116.615 76.0796 116.633 76.0608 116.648 76.039C116.662 76.0171 116.672 75.9926 116.677 75.9669C116.687 75.915 116.677 75.861 116.648 75.8169C116.618 75.7728 116.573 75.7421 116.521 75.7315C112.002 74.8289 112.337 70.0165 112.352 69.8165C112.354 69.7905 112.351 69.7643 112.343 69.7394C112.335 69.7145 112.322 69.6915 112.305 69.6716C112.288 69.6517 112.268 69.6353 112.244 69.6234C112.221 69.6115 112.196 69.6043 112.17 69.6022C112.144 69.6001 112.117 69.6032 112.093 69.6112C112.068 69.6192 112.045 69.6321 112.025 69.649C112.005 69.6659 111.989 69.6866 111.977 69.7099C111.965 69.7331 111.958 69.7585 111.956 69.7846C111.947 69.8249 111.653 73.9683 114.931 75.6189Z" fill="white"/>
<path d="M127.257 63.4152C127.278 63.4254 127.3 63.4322 127.322 63.4353C127.374 63.4421 127.426 63.4282 127.468 63.3968C127.509 63.3653 127.537 63.3188 127.544 63.2673C127.702 61.9915 127.443 60.914 126.774 60.0635C125.598 58.5692 123.593 58.3221 123.507 58.312C123.456 58.3057 123.404 58.3198 123.362 58.3512C123.321 58.3826 123.294 58.4289 123.287 58.4801C123.28 58.5317 123.294 58.5837 123.326 58.6251C123.357 58.6665 123.403 58.6941 123.455 58.702C123.473 58.702 125.384 58.9423 126.457 60.3072C127.055 61.0686 127.285 62.0469 127.141 63.2101C127.136 63.2521 127.145 63.2947 127.165 63.3315C127.186 63.3684 127.218 63.3976 127.257 63.4152Z" fill="black"/>
<path d="M124.145 65.826C124.176 65.8419 124.21 65.8495 124.245 65.8479C124.28 65.8463 124.314 65.8356 124.343 65.8169C124.372 65.7981 124.396 65.772 124.412 65.7412C124.428 65.7103 124.436 65.6758 124.434 65.6411C124.394 64.2796 123.963 63.2442 123.157 62.5651C121.849 61.4658 120.044 61.7095 119.963 61.7247C119.911 61.733 119.864 61.7614 119.832 61.8038C119.801 61.8462 119.788 61.8993 119.795 61.9516C119.799 61.9774 119.807 62.0023 119.821 62.0247C119.834 62.0472 119.852 62.0668 119.873 62.0824C119.893 62.098 119.917 62.1093 119.943 62.1157C119.968 62.1221 119.994 62.1234 120.02 62.1196C120.037 62.1196 121.73 61.8927 122.898 62.8777C123.614 63.4812 123.994 64.4157 124.032 65.6596C124.034 65.6949 124.046 65.7291 124.066 65.7584C124.085 65.7877 124.113 65.8111 124.145 65.826Z" fill="white"/>
<path d="M106.994 86.7846L104.897 88.8975C104.897 88.8975 105.738 96.2934 114.983 92.5955C114.983 92.5955 114.241 88.3479 115.216 82.3084C115.216 82.3084 117.839 82.8379 118.41 80.5334C118.982 78.2289 117.412 77.1077 116.141 77.2405C116.141 77.2405 110.954 78.2626 110.547 68.1957C110.547 68.1957 105.562 68.0747 102.766 72.0618C99.9709 76.0488 98.6127 81.4747 101.324 84.4045C104.035 87.3343 106.994 86.7846 106.994 86.7846Z" fill="#FFCDB2"/>
<path d="M110.491 68.1963H110.539C110.876 76.5637 114.52 77.2731 115.739 77.2731C115.871 77.2749 116.003 77.2653 116.133 77.2445C116.201 77.2445 116.27 77.2344 116.337 77.2344C117.562 77.2344 118.936 78.3555 118.403 80.5373C118.018 82.1174 116.665 82.3661 115.851 82.3661C115.639 82.3677 115.426 82.3497 115.217 82.3124C114.242 88.3518 114.984 92.5994 114.984 92.5994C113.135 93.339 111.622 93.6348 110.385 93.6348C105.436 93.6348 104.898 88.9014 104.898 88.9014L106.994 86.7886C106.801 86.817 106.605 86.8299 106.41 86.8272C105.411 86.8272 103.297 86.5381 101.317 84.4034C98.6053 81.4753 99.9717 76.0393 102.759 72.059C105.391 68.3089 109.97 68.1929 110.491 68.1929V68.1963ZM110.491 67.6886C109.949 67.6886 105.125 67.8029 102.347 71.7631C100.848 73.8978 99.8256 76.3015 99.4759 78.5404C99.0692 81.1172 99.5785 83.2604 100.947 84.7379C102.697 86.6272 104.551 87.1668 105.778 87.2928L104.54 88.5401L104.372 88.7082L104.399 88.9485C104.538 89.8659 104.866 90.7444 105.362 91.5287C106.117 92.7154 107.601 94.129 110.387 94.129C111.785 94.129 113.395 93.7693 115.172 93.0583L115.552 92.9053L115.483 92.5019C115.483 92.4616 114.811 88.4795 115.651 82.8553C115.717 82.8553 115.786 82.8553 115.86 82.8553C117.45 82.8553 118.549 82.0484 118.9 80.6415C119.255 79.1876 118.84 78.2564 118.426 77.732C118.177 77.4184 117.861 77.1649 117.501 76.9903C117.141 76.8157 116.746 76.7245 116.345 76.7234C116.261 76.7234 116.177 76.7234 116.09 76.7352H116.068H116.044C115.946 76.7498 115.846 76.7566 115.747 76.7553C115.209 76.7553 114.16 76.5872 113.192 75.5232C111.911 74.1079 111.192 71.632 111.052 68.166L111.032 67.6954L110.56 67.6836L110.491 67.6886Z" fill="#1D1D1B"/>
<path d="M106.746 87.117C106.764 87.1272 106.785 87.1341 106.806 87.1372C109.03 87.4566 111.415 86.1438 111.513 86.0867C111.538 86.0751 111.56 86.0584 111.578 86.0378C111.597 86.0172 111.61 85.993 111.619 85.9668C111.627 85.9406 111.63 85.9128 111.628 85.8854C111.625 85.858 111.617 85.8314 111.603 85.8073C111.59 85.7833 111.571 85.7623 111.549 85.7456C111.527 85.729 111.502 85.7171 111.475 85.7106C111.449 85.7042 111.421 85.7033 111.393 85.7082C111.366 85.713 111.341 85.7234 111.318 85.7387C111.294 85.7521 108.949 87.0414 106.86 86.7472C106.813 86.7394 106.764 86.7488 106.723 86.7739C106.683 86.7989 106.652 86.8378 106.638 86.8835C106.624 86.9291 106.626 86.9784 106.645 87.0223C106.665 87.0661 106.699 87.1016 106.742 87.1221L106.746 87.117Z" fill="black"/>
<path d="M115.658 81.3103C115.69 81.3266 115.726 81.3337 115.762 81.3311C115.798 81.3284 115.833 81.316 115.863 81.2951C116.69 80.7102 117.091 80.1017 117.056 79.4865C117.006 78.6007 116.063 78.0729 116.022 78.051C115.999 78.038 115.974 78.0298 115.948 78.0267C115.922 78.0237 115.895 78.0259 115.869 78.0332C115.844 78.0406 115.821 78.0529 115.8 78.0696C115.779 78.0862 115.762 78.1067 115.75 78.13C115.725 78.1765 115.72 78.2309 115.734 78.2814C115.749 78.332 115.783 78.3748 115.829 78.4007C115.842 78.4007 116.621 78.8477 116.658 79.51C116.683 79.979 116.338 80.4698 115.632 80.9691C115.605 80.9889 115.583 81.0154 115.569 81.0461C115.555 81.0767 115.549 81.1105 115.551 81.1442C115.554 81.1778 115.565 81.2103 115.584 81.2385C115.602 81.2666 115.628 81.2896 115.658 81.3052V81.3103Z" fill="black"/>
<path d="M107.538 74.6373C109.866 76.0308 113.626 76.088 113.9 77.1822C114.174 78.2765 113.322 79.3287 111.86 79.1606C110.397 78.9926 109.063 78.4883 106.375 77.3251C103.687 76.1619 101.141 74.8222 101.961 73.459C102.781 72.0958 104.116 72.5917 107.538 74.6373Z" fill="#FFB49F"/>
<path d="M105.187 72.0127C105.213 72.0255 105.242 72.0322 105.271 72.0322C105.3 72.0322 105.329 72.0255 105.355 72.0127C105.367 72.0127 106.459 71.5555 107.295 72.0581C107.34 72.0848 107.395 72.0925 107.446 72.0796C107.497 72.0667 107.541 72.0343 107.569 71.9892C107.596 71.9437 107.604 71.8893 107.591 71.838C107.578 71.7866 107.545 71.7425 107.5 71.7152C106.491 71.1118 105.253 71.6228 105.2 71.6446C105.176 71.6547 105.154 71.6695 105.136 71.6882C105.117 71.7069 105.102 71.7291 105.093 71.7536C105.083 71.778 105.078 71.8041 105.078 71.8304C105.078 71.8567 105.084 71.8827 105.095 71.9068C105.111 71.9527 105.144 71.9907 105.187 72.0127Z" fill="black"/>
<path d="M105.11 78.8603C105.152 78.8803 105.198 78.8856 105.243 78.8756C105.287 78.8655 105.327 78.8405 105.356 78.8049L108.076 75.3641C108.093 75.3436 108.106 75.3198 108.114 75.2941C108.122 75.2685 108.124 75.2415 108.122 75.2148C108.119 75.1881 108.111 75.1622 108.098 75.1387C108.085 75.1152 108.067 75.0945 108.046 75.0779C108.025 75.0613 108.001 75.0492 107.975 75.0421C107.949 75.0351 107.922 75.0334 107.896 75.037C107.869 75.0407 107.843 75.0496 107.82 75.0634C107.797 75.0771 107.777 75.0953 107.761 75.117L105.043 78.5578C105.01 78.5993 104.995 78.6521 105.001 78.7047C105.007 78.7573 105.034 78.8054 105.075 78.8385L105.11 78.8603Z" fill="black"/>
<path d="M116.233 83.5234C116.71 83.5234 117.096 83.1373 117.096 82.6611C117.096 82.1849 116.71 81.7988 116.233 81.7988C115.757 81.7988 115.371 82.1849 115.371 82.6611C115.371 83.1373 115.757 83.5234 116.233 83.5234Z" fill="#07ACEE"/>
<path d="M116.618 81.8899C116.803 81.983 116.948 82.1397 117.026 82.3313C117.105 82.5228 117.112 82.7363 117.046 82.9326C116.98 83.1289 116.846 83.2948 116.667 83.3999C116.489 83.5051 116.279 83.5423 116.075 83.5049C115.871 83.4675 115.688 83.3579 115.558 83.1962C115.429 83.0345 115.362 82.8316 115.371 82.6247C115.379 82.4177 115.461 82.2207 115.603 82.0696C115.744 81.9186 115.936 81.8238 116.142 81.8024C116.306 81.7856 116.471 81.8159 116.618 81.8899ZM116.796 81.5318C116.545 81.4064 116.26 81.368 115.985 81.4226C115.71 81.4773 115.461 81.6218 115.278 81.8335C115.094 82.0452 114.986 82.312 114.971 82.5918C114.955 82.8716 115.033 83.1486 115.193 83.3791C115.352 83.6095 115.584 83.7804 115.851 83.8647C116.119 83.949 116.406 83.9419 116.669 83.8447C116.932 83.7474 117.155 83.5655 117.303 83.3275C117.451 83.0895 117.516 82.809 117.487 82.5303C117.465 82.319 117.391 82.1166 117.27 81.942C117.149 81.7674 116.986 81.6262 116.796 81.5318Z" fill="black"/>
<path d="M110.228 73.2176C110.252 73.2298 110.278 73.2368 110.305 73.2383C110.332 73.2397 110.359 73.2356 110.384 73.226C110.56 73.1638 111.11 73.031 111.32 73.2512C111.357 73.2893 111.408 73.3112 111.461 73.3119C111.514 73.3127 111.565 73.2924 111.603 73.2554C111.641 73.2184 111.663 73.1678 111.664 73.1146C111.665 73.0615 111.645 73.0103 111.608 72.9722C111.181 72.5318 110.342 72.8158 110.248 72.8511C110.211 72.8647 110.179 72.8886 110.156 72.92C110.133 72.9513 110.12 72.9888 110.117 73.0277C110.115 73.0667 110.125 73.1054 110.144 73.1391C110.164 73.1728 110.193 73.2001 110.228 73.2176Z" fill="black"/>
<path d="M107.925 83.4355C107.858 83.4397 107.792 83.4172 107.742 83.373C107.691 83.3287 107.661 83.2662 107.657 83.1993C107.652 83.1325 107.675 83.0667 107.719 83.0164C107.763 82.9661 107.826 82.9355 107.893 82.9312C108.249 82.8869 108.585 82.7397 108.859 82.5076C107.366 82.9733 105.708 82.1059 105.62 82.0589C105.564 82.0258 105.523 81.9722 105.505 81.9095C105.488 81.8467 105.495 81.7796 105.526 81.7222C105.557 81.6649 105.609 81.6217 105.671 81.6017C105.733 81.5817 105.8 81.5865 105.859 81.6151C105.882 81.6269 108.234 82.8522 109.595 81.4907C109.636 81.4504 109.69 81.4252 109.747 81.4193C109.804 81.4134 109.861 81.4272 109.909 81.4584C109.958 81.4895 109.994 81.5362 110.012 81.5907C110.03 81.6451 110.029 81.7042 110.009 81.758C109.987 81.8185 109.434 83.2472 107.957 83.4389L107.925 83.4355Z" fill="#1D1D1B"/>
<path d="M105.738 75.869C105.675 75.8693 105.615 75.8459 105.568 75.8036C105.522 75.7612 105.493 75.703 105.487 75.6404C105.484 75.4644 105.441 75.2915 105.362 75.1342C105.282 74.9769 105.169 74.8392 105.03 74.7311C104.435 74.2991 103.45 74.5159 103.44 74.5176C103.377 74.5287 103.311 74.515 103.257 74.4793C103.203 74.4436 103.165 74.3886 103.151 74.3256C103.136 74.2627 103.147 74.1966 103.18 74.141C103.212 74.0854 103.265 74.0445 103.328 74.0268C103.378 74.015 104.541 73.7545 105.324 74.3226C105.523 74.4717 105.685 74.6632 105.8 74.883C105.915 75.1028 105.979 75.3455 105.988 75.5934C105.992 75.6263 105.988 75.6595 105.979 75.6911C105.969 75.7228 105.953 75.7522 105.932 75.7776C105.911 75.8031 105.885 75.8242 105.856 75.8396C105.826 75.855 105.794 75.8644 105.761 75.8673L105.738 75.869Z" fill="#1D1D1B"/>
<path d="M111.789 78.5604C111.726 78.5607 111.665 78.5373 111.619 78.495C111.573 78.4526 111.544 78.3944 111.538 78.3318C111.534 78.1558 111.491 77.9829 111.412 77.8256C111.333 77.6683 111.22 77.5306 111.081 77.4225C110.486 76.9905 109.501 77.2073 109.491 77.209C109.427 77.2201 109.362 77.2064 109.308 77.1707C109.254 77.135 109.216 77.08 109.202 77.017C109.187 76.9541 109.198 76.888 109.23 76.8324C109.263 76.7768 109.316 76.7359 109.378 76.7182C109.429 76.7064 110.592 76.4459 111.375 77.014C111.573 77.1631 111.736 77.3546 111.851 77.5744C111.966 77.7942 112.03 78.0369 112.039 78.2848C112.042 78.3177 112.039 78.3509 112.029 78.3825C112.02 78.4142 112.004 78.4436 111.983 78.469C111.962 78.4945 111.936 78.5156 111.907 78.531C111.877 78.5464 111.845 78.5558 111.812 78.5588L111.789 78.5604Z" fill="#1D1D1B"/>
<path d="M152.05 155.123C152.022 155.123 151.995 155.119 151.968 155.11C151.905 155.088 151.853 155.042 151.824 154.982C151.795 154.921 151.79 154.852 151.812 154.789C153.42 150.126 150.233 147.188 150.201 147.159C150.152 147.115 150.121 147.052 150.118 146.985C150.114 146.919 150.137 146.853 150.181 146.803C150.226 146.753 150.288 146.723 150.355 146.719C150.422 146.715 150.488 146.738 150.538 146.783C150.573 146.815 154.004 149.977 152.289 154.954C152.272 155.003 152.239 155.046 152.197 155.076C152.154 155.107 152.103 155.123 152.05 155.123Z" fill="#1D1D1B"/>
<path d="M144.987 155.293C144.954 155.294 144.922 155.287 144.892 155.275C144.861 155.262 144.832 155.244 144.808 155.22C144.783 155.196 144.764 155.168 144.751 155.136C144.738 155.105 144.731 155.071 144.732 155.037C144.732 155.003 144.739 154.97 144.753 154.939C145.714 152.537 144.417 148.766 144.417 148.728C144.394 148.664 144.398 148.595 144.427 148.534C144.456 148.474 144.508 148.427 144.571 148.405C144.635 148.383 144.704 148.386 144.765 148.415C144.825 148.444 144.872 148.496 144.894 148.56C144.95 148.728 146.257 152.543 145.23 155.124C145.213 155.174 145.18 155.218 145.136 155.248C145.092 155.279 145.04 155.294 144.987 155.293Z" fill="#1D1D1B"/>
<path d="M139.065 153.301C139.012 153.301 138.961 153.286 138.918 153.255C138.876 153.225 138.843 153.182 138.826 153.133C138.799 153.052 138.165 151.136 138.887 149.877C138.922 149.824 138.976 149.787 139.038 149.772C139.1 149.758 139.165 149.767 139.22 149.799C139.276 149.83 139.317 149.881 139.336 149.942C139.355 150.003 139.351 150.068 139.324 150.126C138.715 151.193 139.298 152.955 139.303 152.972C139.325 153.035 139.32 153.105 139.291 153.165C139.261 153.225 139.209 153.271 139.145 153.293C139.119 153.3 139.092 153.302 139.065 153.301Z" fill="#1D1D1B"/>
<path d="M70.6314 83.2473C71.1355 83.2473 71.5441 82.8387 71.5441 82.3346C71.5441 81.8305 71.1355 81.4219 70.6314 81.4219C70.1273 81.4219 69.7188 81.8305 69.7188 82.3346C69.7188 82.8387 70.1273 83.2473 70.6314 83.2473Z" fill="#51CEF4"/>
<path d="M61.3853 90.6438C61.8894 90.6438 62.298 90.2352 62.298 89.7311C62.298 89.227 61.8894 88.8184 61.3853 88.8184C60.8812 88.8184 60.4727 89.227 60.4727 89.7311C60.4727 90.2352 60.8812 90.6438 61.3853 90.6438Z" fill="#51CEF4"/>
<path d="M68.9517 103.083C69.4558 103.083 69.8644 102.675 69.8644 102.171C69.8644 101.666 69.4558 101.258 68.9517 101.258C68.4476 101.258 68.0391 101.666 68.0391 102.171C68.0391 102.675 68.4476 103.083 68.9517 103.083Z" fill="#51CEF4"/>
<path d="M86.6002 96.0227C87.1043 96.0227 87.5128 95.6141 87.5128 95.11C87.5128 94.6059 87.1043 94.1973 86.6002 94.1973C86.0961 94.1973 85.6875 94.6059 85.6875 95.11C85.6875 95.6141 86.0961 96.0227 86.6002 96.0227Z" fill="#51CEF4"/>
<path d="M84.2447 105.939C84.7488 105.939 85.1574 105.53 85.1574 105.026C85.1574 104.522 84.7488 104.113 84.2447 104.113C83.7406 104.113 83.332 104.522 83.332 105.026C83.332 105.53 83.7406 105.939 84.2447 105.939Z" fill="#51CEF4"/>
<path d="M104.081 101.066C104.585 101.066 104.993 100.657 104.993 100.153C104.993 99.6489 104.585 99.2402 104.081 99.2402C103.577 99.2402 103.168 99.6489 103.168 100.153C103.168 100.657 103.577 101.066 104.081 101.066Z" fill="#51CEF4"/>
<path d="M94.6666 112.999C95.1707 112.999 95.5792 112.591 95.5792 112.087C95.5792 111.582 95.1707 111.174 94.6666 111.174C94.1625 111.174 93.7539 111.582 93.7539 112.087C93.7539 112.591 94.1625 112.999 94.6666 112.999Z" fill="#51CEF4"/>
<path d="M111.307 117.202C111.811 117.202 112.22 116.794 112.22 116.29C112.22 115.786 111.811 115.377 111.307 115.377C110.803 115.377 110.395 115.786 110.395 116.29C110.395 116.794 110.803 117.202 111.307 117.202Z" fill="#51CEF4"/>
<path d="M88.6158 131.658C89.1199 131.658 89.5285 131.249 89.5285 130.745C89.5285 130.241 89.1199 129.832 88.6158 129.832C88.1117 129.832 87.7031 130.241 87.7031 130.745C87.7031 131.249 88.1117 131.658 88.6158 131.658Z" fill="#51CEF4"/>
<path d="M103.073 128.462C103.577 128.462 103.985 128.054 103.985 127.549C103.985 127.045 103.577 126.637 103.073 126.637C102.569 126.637 102.16 127.045 102.16 127.549C102.16 128.054 102.569 128.462 103.073 128.462Z" fill="#51CEF4"/>
<path d="M117.022 143.761C117.526 143.761 117.935 143.352 117.935 142.848C117.935 142.344 117.526 141.936 117.022 141.936C116.518 141.936 116.109 142.344 116.109 142.848C116.109 143.352 116.518 143.761 117.022 143.761Z" fill="#51CEF4"/>
<path d="M102.229 142.079C102.733 142.079 103.142 141.671 103.142 141.167C103.142 140.663 102.733 140.254 102.229 140.254C101.725 140.254 101.316 140.663 101.316 141.167C101.316 141.671 101.725 142.079 102.229 142.079Z" fill="#51CEF4"/>
<path d="M120.889 128.462C121.393 128.462 121.802 128.054 121.802 127.549C121.802 127.045 121.393 126.637 120.889 126.637C120.385 126.637 119.977 127.045 119.977 127.549C119.977 128.054 120.385 128.462 120.889 128.462Z" fill="#51CEF4"/>
<path d="M122.405 105.267C122.909 105.267 123.318 104.858 123.318 104.354C123.318 103.85 122.909 103.441 122.405 103.441C121.901 103.441 121.492 103.85 121.492 104.354C121.492 104.858 121.901 105.267 122.405 105.267Z" fill="#51CEF4"/>
<path d="M144.588 120.396C145.093 120.396 145.501 119.987 145.501 119.483C145.501 118.979 145.093 118.57 144.588 118.57C144.084 118.57 143.676 118.979 143.676 119.483C143.676 119.987 144.084 120.396 144.588 120.396Z" fill="#51CEF4"/>
<path d="M133.163 115.017C133.667 115.017 134.075 114.608 134.075 114.104C134.075 113.6 133.667 113.191 133.163 113.191C132.659 113.191 132.25 113.6 132.25 114.104C132.25 114.608 132.659 115.017 133.163 115.017Z" fill="#51CEF4"/>
<path d="M135.346 134.683C135.85 134.683 136.259 134.274 136.259 133.77C136.259 133.266 135.85 132.857 135.346 132.857C134.842 132.857 134.434 133.266 134.434 133.77C134.434 134.274 134.842 134.683 135.346 134.683Z" fill="#51CEF4"/>
<path d="M150.307 134.347C150.811 134.347 151.22 133.938 151.22 133.434C151.22 132.93 150.811 132.521 150.307 132.521C149.803 132.521 149.395 132.93 149.395 133.434C149.395 133.938 149.803 134.347 150.307 134.347Z" fill="#51CEF4"/>
<path d="M156.924 154.705C156.867 154.705 156.81 154.697 156.755 154.679C156.693 154.659 156.634 154.625 156.584 154.582C156.534 154.539 156.493 154.486 156.463 154.426C156.434 154.367 156.416 154.302 156.411 154.236C156.407 154.17 156.415 154.104 156.436 154.041C157.108 152.024 157.065 150.25 156.31 148.753C155.09 146.335 152.415 145.445 152.388 145.435C152.266 145.389 152.166 145.299 152.109 145.181C152.052 145.064 152.043 144.929 152.083 144.805C152.124 144.681 152.211 144.577 152.326 144.516C152.441 144.455 152.576 144.441 152.701 144.476C152.827 144.517 155.802 145.51 157.209 148.299C158.09 150.044 158.152 152.082 157.394 154.36C157.361 154.459 157.298 154.546 157.214 154.607C157.129 154.669 157.028 154.703 156.924 154.705Z" fill="white"/>
<path d="M84.7429 111.478C84.7101 111.478 84.6776 111.471 84.647 111.46C84.6156 111.447 84.5871 111.428 84.5631 111.404C84.5391 111.38 84.5202 111.352 84.5073 111.32C84.4945 111.289 84.488 111.256 84.4883 111.222C84.4886 111.188 84.4959 111.154 84.5093 111.123C86.0221 107.417 90.194 101.252 90.236 101.189C90.275 101.138 90.3322 101.104 90.3959 101.093C90.4595 101.083 90.5247 101.097 90.5781 101.133C90.6314 101.169 90.6689 101.225 90.6828 101.288C90.6967 101.351 90.6861 101.416 90.6529 101.472C90.6109 101.534 86.4741 107.656 84.9765 111.315C84.9585 111.363 84.9266 111.404 84.8849 111.433C84.8432 111.462 84.7937 111.478 84.7429 111.478Z" fill="#1D1D1B"/>
<path d="M150.366 127.978C150.279 127.978 150.193 127.955 150.117 127.912C150.041 127.869 149.977 127.806 149.932 127.731C145.641 120.468 135.14 109.273 135.038 109.161C134.949 109.063 134.901 108.933 134.907 108.801C134.912 108.668 134.969 108.543 135.066 108.453C135.163 108.362 135.291 108.313 135.424 108.317C135.556 108.32 135.682 108.376 135.774 108.472C135.88 108.584 146.451 119.858 150.8 127.217C150.869 127.331 150.89 127.467 150.858 127.597C150.827 127.726 150.745 127.838 150.632 127.908C150.552 127.956 150.459 127.98 150.366 127.978Z" fill="white"/>
<path d="M152.469 95.8781H152.022C146.662 95.8092 143.145 94.6023 142.999 94.5502C142.957 94.5356 142.919 94.513 142.886 94.4836C142.853 94.4542 142.826 94.4185 142.807 94.3787C142.788 94.3389 142.776 94.2957 142.774 94.2516C142.771 94.2075 142.778 94.1633 142.792 94.1216C142.807 94.0799 142.829 94.0414 142.859 94.0085C142.888 93.9755 142.924 93.9486 142.964 93.9294C143.004 93.9102 143.047 93.8991 143.091 93.8966C143.135 93.894 143.179 93.9003 143.221 93.9149C143.256 93.9283 146.799 95.1436 152.057 95.2058C159.01 95.286 165.833 93.3132 171.67 89.5344C171.745 89.4871 171.835 89.4712 171.922 89.4903C172.008 89.5093 172.084 89.5618 172.132 89.6362C172.18 89.7106 172.197 89.801 172.179 89.8877C172.16 89.9744 172.109 90.0504 172.035 90.0992C166.207 93.8719 159.412 95.8789 152.469 95.8781Z" fill="#1D1D1B"/>
<path d="M60.8595 110.748C60.8169 110.749 60.7746 110.741 60.7351 110.725C55.1579 108.511 52.4719 104.526 51.2011 101.574C49.8245 98.3802 49.7673 95.7362 49.7656 95.6252C49.7656 95.5361 49.8011 95.4506 49.8641 95.3875C49.9272 95.3245 50.0126 95.2891 50.1018 95.2891C50.191 95.2891 50.2764 95.3245 50.3395 95.3875C50.4025 95.4506 50.438 95.5361 50.438 95.6252C50.5624 97.5972 51.0336 99.5319 51.8298 101.34C53.0518 104.168 55.632 107.985 60.9839 110.108C61.0568 110.137 61.1172 110.19 61.155 110.259C61.1927 110.327 61.2052 110.407 61.1904 110.484C61.1757 110.561 61.1346 110.63 61.0742 110.68C61.0138 110.73 60.9378 110.757 60.8595 110.757V110.748Z" fill="#1D1D1B"/>
<path d="M159.191 138.148C159.134 138.148 159.077 138.133 159.027 138.105C158.977 138.077 158.935 138.037 158.905 137.989C158.875 137.94 158.858 137.884 158.855 137.827C158.853 137.77 158.865 137.713 158.89 137.662C162.252 130.938 154.856 125.193 154.785 125.136C154.748 125.11 154.716 125.077 154.692 125.038C154.668 125 154.652 124.957 154.645 124.912C154.638 124.867 154.64 124.822 154.651 124.778C154.662 124.734 154.682 124.692 154.709 124.656C154.737 124.62 154.771 124.59 154.811 124.567C154.85 124.545 154.894 124.531 154.939 124.526C154.984 124.52 155.03 124.525 155.073 124.538C155.117 124.551 155.157 124.572 155.192 124.601C156.564 125.708 157.747 127.029 158.697 128.513C160.714 131.696 160.991 134.964 159.492 137.961C159.464 138.017 159.421 138.064 159.368 138.097C159.315 138.13 159.253 138.148 159.191 138.148Z" fill="#1D1D1B"/>
<path d="M50.9414 147.225C50.8664 147.224 50.7935 147.199 50.7346 147.152C50.6646 147.098 50.6191 147.017 50.6081 146.929C50.597 146.841 50.6214 146.752 50.6759 146.682C50.7397 146.601 52.2576 144.682 55.2143 142.762C59.1428 140.216 63.7423 138.902 68.4227 138.988C68.5119 138.988 68.5973 139.024 68.6604 139.087C68.7234 139.15 68.7589 139.235 68.7589 139.325C68.7589 139.414 68.7234 139.499 68.6604 139.562C68.5973 139.625 68.5119 139.661 68.4227 139.661C57.2969 139.503 51.2776 147.02 51.2103 147.095C51.1785 147.136 51.1376 147.169 51.091 147.191C51.0443 147.214 50.9932 147.225 50.9414 147.225Z" fill="#1D1D1B"/>
<path d="M111.166 47.9645L110.43 47.1576C110.301 47.0165 110.131 46.9195 109.944 46.8803L108.873 46.6567C108.732 46.6271 108.601 46.5647 108.489 46.4746C108.377 46.3845 108.288 46.2692 108.229 46.1381C108.17 46.0071 108.143 45.8639 108.149 45.7204C108.156 45.5768 108.197 45.4369 108.268 45.312L108.809 44.3623C108.903 44.1959 108.942 44.0043 108.922 43.8144L108.804 42.7285C108.789 42.5859 108.807 42.4416 108.858 42.3075C108.909 42.1734 108.991 42.0532 109.097 41.9567C109.203 41.8602 109.331 41.7901 109.469 41.7522C109.608 41.7143 109.753 41.7096 109.893 41.7384L110.964 41.957C111.151 41.9961 111.346 41.9749 111.52 41.8964L112.517 41.4493C112.648 41.3904 112.791 41.3633 112.935 41.3702C113.078 41.377 113.218 41.4177 113.342 41.4888C113.467 41.5599 113.573 41.6595 113.652 41.7794C113.731 41.8993 113.78 42.0362 113.796 42.1789L113.918 43.2647C113.941 43.4524 114.021 43.6283 114.148 43.769L114.882 44.5792C114.978 44.6855 115.048 44.813 115.086 44.9514C115.123 45.0897 115.128 45.235 115.098 45.3754C115.069 45.5158 115.007 45.6473 114.918 45.7592C114.828 45.8712 114.714 45.9604 114.583 46.0197L113.588 46.4719C113.414 46.5506 113.268 46.6824 113.173 46.8484L112.63 47.7964C112.559 47.9215 112.46 48.0281 112.34 48.1075C112.22 48.1869 112.083 48.2369 111.941 48.2532C111.798 48.2696 111.653 48.252 111.519 48.2018C111.384 48.1516 111.263 48.0703 111.166 47.9645Z" fill="white"/>
<path d="M111.832 48.5145C111.671 48.5147 111.512 48.4811 111.365 48.416C111.217 48.3508 111.086 48.2555 110.978 48.1363L110.24 47.3278C110.147 47.2257 110.024 47.1557 109.889 47.1277L108.819 46.9025C108.64 46.865 108.472 46.7856 108.329 46.671C108.187 46.5563 108.073 46.4095 107.998 46.2426C107.922 46.0756 107.887 45.8933 107.896 45.7103C107.904 45.5274 107.956 45.349 108.046 45.1897L108.586 44.24C108.655 44.1198 108.683 43.9809 108.668 43.8433L108.551 42.7574C108.531 42.5754 108.555 42.3913 108.62 42.2201C108.684 42.0489 108.789 41.8955 108.924 41.7723C109.06 41.6491 109.223 41.5596 109.399 41.5112C109.576 41.4627 109.761 41.4566 109.941 41.4934L111.011 41.7119C111.147 41.7406 111.288 41.7253 111.415 41.6682L112.412 41.2211C112.579 41.1461 112.761 41.1117 112.944 41.1205C113.127 41.1293 113.305 41.1813 113.464 41.272C113.623 41.3628 113.759 41.4898 113.859 41.6428C113.96 41.7958 114.023 41.9703 114.044 42.1523L114.165 43.2399C114.182 43.3769 114.24 43.5054 114.333 43.608L115.067 44.4181C115.19 44.554 115.279 44.717 115.327 44.8937C115.375 45.0704 115.381 45.2559 115.343 45.4352C115.306 45.6145 115.227 45.7825 115.113 45.9256C114.999 46.0686 114.852 46.1828 114.686 46.2587L113.691 46.7092C113.564 46.766 113.459 46.8613 113.39 46.9815L112.847 47.9295C112.756 48.0891 112.629 48.2247 112.476 48.3253C112.322 48.4259 112.147 48.4884 111.964 48.5077C111.92 48.5126 111.876 48.5148 111.832 48.5145ZM111.349 47.7951C111.419 47.8715 111.506 47.9304 111.604 47.967C111.701 48.0035 111.805 48.0166 111.908 48.0053C112.011 47.994 112.11 47.9586 112.197 47.9019C112.284 47.8452 112.356 47.7689 112.408 47.6791L112.951 46.731C113.072 46.5189 113.258 46.3506 113.481 46.2503L114.476 45.7982C114.57 45.7555 114.653 45.691 114.718 45.6099C114.783 45.5289 114.828 45.4336 114.849 45.332C114.87 45.2303 114.867 45.1251 114.839 45.025C114.812 44.9249 114.761 44.8327 114.691 44.756L113.958 43.9458C113.794 43.7652 113.691 43.5376 113.664 43.2953L113.543 42.2095C113.531 42.1064 113.495 42.0074 113.438 41.9208C113.381 41.8341 113.305 41.7621 113.215 41.7107C113.125 41.6592 113.024 41.6298 112.92 41.6247C112.816 41.6197 112.713 41.6392 112.618 41.6817L111.621 42.1288C111.398 42.2287 111.15 42.2558 110.911 42.2061L109.84 41.9876C109.738 41.9666 109.633 41.9698 109.533 41.9971C109.433 42.0244 109.341 42.075 109.265 42.1446C109.188 42.2143 109.129 42.301 109.092 42.3979C109.055 42.4948 109.042 42.599 109.053 42.702L109.169 43.7895C109.196 44.032 109.145 44.2768 109.024 44.4888L108.485 45.4401C108.434 45.5303 108.405 45.6312 108.4 45.7348C108.395 45.8383 108.415 45.9415 108.457 46.036C108.5 46.1305 108.564 46.2136 108.645 46.2786C108.726 46.3436 108.821 46.3886 108.922 46.41L109.993 46.6336C110.232 46.6835 110.449 46.8076 110.613 46.9882L111.349 47.7951Z" fill="#1D1E1B"/>
<path d="M162.935 112.005L162.199 111.199C162.07 111.058 161.9 110.96 161.713 110.921L160.643 110.698C160.502 110.668 160.37 110.606 160.258 110.516C160.146 110.425 160.057 110.31 159.998 110.179C159.939 110.048 159.912 109.905 159.919 109.761C159.926 109.618 159.966 109.478 160.038 109.353L160.579 108.403C160.672 108.237 160.712 108.045 160.691 107.855L160.574 106.77C160.558 106.627 160.577 106.483 160.628 106.349C160.679 106.214 160.761 106.094 160.867 105.998C160.973 105.901 161.1 105.831 161.239 105.793C161.377 105.755 161.522 105.751 161.663 105.779L162.734 105.998C162.921 106.037 163.116 106.016 163.29 105.937L164.287 105.49C164.418 105.431 164.561 105.404 164.704 105.411C164.847 105.418 164.987 105.459 165.112 105.53C165.237 105.601 165.343 105.701 165.422 105.82C165.501 105.94 165.55 106.077 165.566 106.22L165.687 107.306C165.711 107.493 165.791 107.669 165.917 107.81L166.652 108.62C166.748 108.727 166.818 108.854 166.855 108.992C166.893 109.131 166.897 109.276 166.868 109.416C166.839 109.557 166.777 109.688 166.687 109.8C166.598 109.912 166.483 110.001 166.353 110.061L165.358 110.513C165.183 110.592 165.038 110.723 164.942 110.889L164.399 111.837C164.329 111.963 164.229 112.069 164.11 112.149C163.99 112.228 163.853 112.278 163.71 112.294C163.567 112.311 163.423 112.293 163.288 112.243C163.153 112.193 163.033 112.111 162.935 112.005Z" fill="white"/>
<path d="M163.601 112.555C163.44 112.556 163.281 112.522 163.134 112.457C162.987 112.392 162.855 112.297 162.747 112.177L162.009 111.369C161.916 111.267 161.793 111.197 161.658 111.169L160.589 110.944C160.41 110.906 160.242 110.827 160.099 110.712C159.956 110.597 159.842 110.451 159.767 110.284C159.692 110.117 159.657 109.934 159.665 109.751C159.674 109.568 159.725 109.39 159.816 109.231L160.355 108.281C160.424 108.161 160.453 108.022 160.438 107.884L160.32 106.798C160.3 106.616 160.324 106.432 160.389 106.261C160.454 106.09 160.559 105.936 160.694 105.813C160.829 105.69 160.992 105.601 161.169 105.552C161.345 105.504 161.531 105.498 161.71 105.534L162.781 105.753C162.917 105.782 163.058 105.766 163.184 105.709L164.181 105.262C164.348 105.187 164.531 105.153 164.714 105.162C164.896 105.17 165.075 105.222 165.234 105.313C165.393 105.404 165.528 105.531 165.629 105.684C165.73 105.837 165.793 106.011 165.813 106.193L165.934 107.281C165.951 107.418 166.01 107.546 166.102 107.649L166.837 108.459C166.96 108.595 167.049 108.758 167.097 108.935C167.144 109.111 167.15 109.297 167.113 109.476C167.076 109.656 166.997 109.823 166.882 109.967C166.768 110.11 166.622 110.224 166.455 110.3L165.46 110.75C165.334 110.807 165.228 110.902 165.159 111.023L164.616 111.971C164.526 112.13 164.399 112.266 164.245 112.366C164.092 112.467 163.916 112.529 163.734 112.549C163.69 112.554 163.645 112.556 163.601 112.555ZM163.119 111.836C163.188 111.914 163.275 111.973 163.372 112.01C163.469 112.046 163.574 112.059 163.677 112.046C163.781 112.037 163.881 112.002 163.969 111.945C164.057 111.888 164.129 111.811 164.181 111.72L164.724 110.772C164.845 110.56 165.031 110.392 165.253 110.291L166.249 109.839C166.343 109.796 166.426 109.732 166.491 109.651C166.556 109.57 166.601 109.475 166.622 109.373C166.643 109.271 166.64 109.166 166.612 109.066C166.585 108.966 166.534 108.874 166.464 108.797L165.731 107.987C165.567 107.806 165.464 107.579 165.437 107.336L165.316 106.25C165.304 106.147 165.268 106.048 165.211 105.962C165.154 105.875 165.078 105.803 164.988 105.752C164.897 105.7 164.796 105.671 164.693 105.666C164.589 105.661 164.486 105.68 164.391 105.723L163.394 106.17C163.171 106.27 162.923 106.297 162.683 106.247L161.613 106.029C161.511 106.008 161.406 106.011 161.306 106.038C161.206 106.065 161.114 106.116 161.038 106.186C160.961 106.255 160.902 106.342 160.865 106.439C160.828 106.536 160.815 106.64 160.826 106.743L160.942 107.83C160.969 108.073 160.918 108.318 160.797 108.53L160.258 109.481C160.207 109.571 160.177 109.672 160.173 109.776C160.168 109.879 160.188 109.983 160.23 110.077C160.273 110.172 160.337 110.255 160.418 110.32C160.499 110.385 160.593 110.43 160.695 110.451L161.766 110.675C162.005 110.724 162.222 110.849 162.386 111.029L163.119 111.836Z" fill="#1D1E1B"/>
<path d="M164.873 40.3967L162.992 40.2723C162.664 40.2508 162.337 40.3325 162.058 40.506L160.459 41.5044C160.25 41.6353 160.012 41.7148 159.766 41.7365C159.52 41.7582 159.272 41.7214 159.042 41.6292C158.813 41.537 158.609 41.3919 158.446 41.2057C158.283 41.0196 158.167 40.7977 158.106 40.558L157.644 38.7309C157.563 38.4116 157.384 38.1258 157.131 37.914L155.689 36.7021C155.501 36.5433 155.353 36.3427 155.257 36.1164C155.161 35.89 155.12 35.6443 155.136 35.399C155.153 35.1537 155.226 34.9156 155.352 34.704C155.477 34.4924 155.65 34.3132 155.857 34.1808L157.452 33.1722C157.731 32.9969 157.947 32.7381 158.071 32.4327L158.777 30.6862C158.87 30.457 159.015 30.2529 159.202 30.0906C159.388 29.9283 159.61 29.8123 159.85 29.7522C160.09 29.6921 160.341 29.6894 160.582 29.7445C160.823 29.7996 161.048 29.9109 161.238 30.0693L162.685 31.2745C162.938 31.4846 163.251 31.6104 163.579 31.6342L165.46 31.767C165.706 31.7845 165.945 31.8599 166.157 31.9871C166.369 32.1144 166.547 32.2899 166.678 32.4993C166.81 32.7086 166.889 32.946 166.911 33.1921C166.933 33.4381 166.897 33.6859 166.805 33.9152L166.105 35.665C165.984 35.9709 165.961 36.307 166.04 36.6265L166.495 38.4552C166.554 38.6944 166.556 38.9441 166.5 39.184C166.445 39.4239 166.333 39.6474 166.175 39.8364C166.018 40.0253 165.818 40.1745 165.591 40.2719C165.365 40.3692 165.119 40.412 164.873 40.3967Z" fill="white"/>
<path d="M159.632 42.0023C159.226 42.0011 158.832 41.8653 158.511 41.6162C158.19 41.3671 157.961 41.0187 157.86 40.6257L157.398 38.7985C157.33 38.5302 157.18 38.2901 156.967 38.1127L155.525 36.9008C155.306 36.7163 155.133 36.4826 155.02 36.2186C154.908 35.9547 154.86 35.6679 154.879 35.3818C154.899 35.0956 154.985 34.818 155.132 34.5717C155.28 34.3254 155.483 34.1173 155.725 33.9643L157.32 32.9558C157.555 32.8089 157.736 32.5918 157.84 32.3355L158.546 30.5891C158.653 30.3229 158.822 30.0859 159.039 29.8974C159.256 29.7088 159.514 29.5741 159.792 29.5041C160.071 29.4342 160.362 29.431 160.642 29.4948C160.922 29.5586 161.183 29.6876 161.403 29.8713L162.85 31.0782C163.063 31.2551 163.326 31.3604 163.602 31.3791L165.481 31.5119C165.767 31.5322 166.045 31.6198 166.291 31.7675C166.537 31.9152 166.744 32.1188 166.897 32.3619C167.049 32.6049 167.142 32.8805 167.168 33.1662C167.194 33.452 167.152 33.7398 167.046 34.0063L166.347 35.7561C166.243 36.0123 166.224 36.2949 166.291 36.5629L166.747 38.3918C166.816 38.6702 166.818 38.961 166.754 39.2406C166.689 39.5201 166.56 39.7805 166.376 40.0005C166.192 40.2206 165.958 40.394 165.694 40.5067C165.431 40.6194 165.144 40.6682 164.858 40.6492L162.977 40.5248C162.701 40.5072 162.426 40.5766 162.192 40.7231L160.595 41.7199C160.307 41.9028 159.973 42.0007 159.632 42.0023ZM160.24 29.9571C160.13 29.9573 160.021 29.9709 159.914 29.9974C159.712 30.0464 159.525 30.1432 159.368 30.2795C159.211 30.4158 159.09 30.5876 159.013 30.7807L158.307 32.5271C158.164 32.8819 157.913 33.1826 157.589 33.3861L155.994 34.3946C155.819 34.5052 155.672 34.6558 155.565 34.834C155.459 35.0122 155.396 35.2131 155.382 35.4202C155.368 35.6273 155.403 35.8348 155.484 36.0258C155.565 36.2167 155.691 36.3858 155.85 36.5192L157.292 37.7295C157.585 37.9749 157.793 38.3067 157.887 38.6775L158.351 40.4895C158.402 40.6907 158.5 40.8771 158.636 41.0333C158.773 41.1896 158.945 41.3114 159.137 41.3889C159.33 41.4663 159.538 41.4973 159.745 41.4792C159.952 41.461 160.151 41.3944 160.327 41.2846L161.926 40.2861C162.25 40.0834 162.629 39.988 163.01 40.0138L164.891 40.1382C165.098 40.1521 165.306 40.1169 165.497 40.0353C165.688 39.9537 165.857 39.8282 165.99 39.6688C166.123 39.5095 166.216 39.3209 166.262 39.1186C166.309 38.9162 166.307 38.7057 166.256 38.5044L165.802 36.6773C165.708 36.3061 165.735 35.9146 165.878 35.5594L166.577 33.8097C166.654 33.617 166.684 33.4089 166.665 33.2024C166.646 32.9959 166.579 32.7967 166.469 32.6211C166.359 32.4454 166.209 32.2981 166.031 32.1913C165.853 32.0844 165.653 32.021 165.446 32.0061L163.567 31.875C163.185 31.8489 162.821 31.7023 162.528 31.4564L161.081 30.2512C160.844 30.0557 160.547 29.9497 160.24 29.952V29.9571Z" fill="#1D1E1B"/>
<path d="M155.832 29.5617C155.791 29.5618 155.751 29.5544 155.714 29.5398C155.631 29.5085 155.563 29.4454 155.526 29.3644C155.489 29.2835 155.486 29.1912 155.517 29.1078C155.556 29.0036 156.501 26.5428 158.543 26.01C159.753 25.6957 161.064 26.1243 162.436 27.2874C162.504 27.3449 162.547 27.4272 162.554 27.5161C162.562 27.605 162.534 27.6932 162.476 27.7614C162.419 27.8297 162.336 27.8722 162.248 27.8798C162.159 27.8874 162.07 27.8593 162.002 27.8018C160.805 26.7933 159.699 26.405 158.714 26.6605C157.01 27.1025 156.154 29.3213 156.146 29.3499C156.121 29.4127 156.078 29.4665 156.022 29.5043C155.965 29.5421 155.899 29.5621 155.832 29.5617Z" fill="#1D1D1B"/>
<path d="M166.924 43.5133C166.88 43.5165 166.835 43.511 166.793 43.497C166.751 43.4831 166.712 43.461 166.679 43.4321C166.645 43.4031 166.618 43.3678 166.598 43.3283C166.578 43.2887 166.567 43.2456 166.563 43.2015C166.56 43.1573 166.566 43.113 166.58 43.071C166.594 43.029 166.616 42.9901 166.644 42.9566C166.673 42.9231 166.709 42.8957 166.748 42.8758C166.788 42.856 166.831 42.8441 166.875 42.8409C168.052 42.6728 168.798 42.2375 169.117 41.5634C169.721 40.2893 168.664 38.4891 168.652 38.4723C168.606 38.3958 168.592 38.3043 168.614 38.2177C168.635 38.1312 168.69 38.0568 168.767 38.0109C168.843 37.9649 168.935 37.9513 169.022 37.9729C169.108 37.9945 169.182 38.0496 169.228 38.126C169.28 38.2117 170.482 40.249 169.733 41.8492C169.311 42.7401 168.388 43.2981 166.979 43.5065L166.924 43.5133Z" fill="#1D1D1B"/>
<path d="M66.3185 48.8586C66.1398 48.8582 65.9668 48.7945 65.8305 48.6789C65.6942 48.5632 65.6032 48.4029 65.5738 48.2265C64.6224 42.4913 65.6747 37.1562 68.1339 35.2551C69.0668 34.5324 70.1509 34.3844 71.1595 34.8382C74.6893 36.4082 73.7683 41.424 73.7279 41.6358C73.7092 41.7333 73.6713 41.8263 73.6166 41.9092C73.562 41.9922 73.4916 42.0636 73.4093 42.1193C73.327 42.175 73.2346 42.214 73.1373 42.234C73.04 42.254 72.9396 42.2546 72.842 42.2358C72.7444 42.2171 72.6515 42.1793 72.5685 42.1246C72.4856 42.0699 72.4143 41.9995 72.3586 41.9172C72.3029 41.835 72.2638 41.7425 72.2438 41.6452C72.2238 41.5479 72.2233 41.4476 72.242 41.35C72.242 41.3046 72.9782 37.3025 70.5442 36.22C70.04 35.993 69.5458 36.0687 69.0516 36.4502C67.3707 37.7496 66.1051 42.2308 67.0598 47.9778C67.0762 48.0758 67.0731 48.1761 67.0507 48.2729C67.0283 48.3697 66.9869 48.4611 66.9292 48.542C66.8714 48.6228 66.7983 48.6915 66.714 48.7441C66.6297 48.7967 66.5359 48.8322 66.4379 48.8485C66.3984 48.8548 66.3585 48.8582 66.3185 48.8586Z" fill="#4BD657"/>
<path d="M66.3151 49.1113C66.0769 49.1111 65.8466 49.0265 65.6647 48.8727C65.4829 48.7189 65.3614 48.5057 65.3217 48.2709C64.3551 42.4483 65.4461 37.0089 67.9758 35.0591C68.9843 34.2774 70.161 34.1178 71.2653 34.612C74.9835 36.2643 74.0219 41.4683 73.9782 41.6885C73.9273 41.95 73.775 42.1807 73.5546 42.3303C73.3341 42.4799 73.0634 42.5362 72.8016 42.4869C72.5401 42.436 72.3094 42.2837 72.1598 42.0633C72.0102 41.8428 71.9539 41.5721 72.0032 41.3103C72.0032 41.2733 72.6957 37.456 70.45 36.4576C70.0264 36.2693 69.6348 36.3332 69.2146 36.6576C67.5942 37.9115 66.379 42.2936 67.3169 47.9448C67.3385 48.0754 67.3343 48.2091 67.3043 48.3381C67.2742 48.4671 67.219 48.589 67.1419 48.6967C67.0648 48.8044 66.9673 48.8958 66.8548 48.9658C66.7424 49.0358 66.6171 49.0829 66.4865 49.1046C66.4296 49.1112 66.3723 49.1135 66.3151 49.1113ZM69.9861 34.8338C69.3651 34.8438 68.7654 35.0623 68.2834 35.4541C65.8949 37.3031 64.8813 42.5373 65.8192 48.1851C65.83 48.2505 65.8536 48.313 65.8886 48.3693C65.9236 48.4255 65.9692 48.4743 66.0231 48.5128C66.0769 48.5514 66.138 48.5789 66.2025 48.5939C66.267 48.6089 66.3338 48.6111 66.3991 48.6003C66.4645 48.5895 66.5271 48.5659 66.5833 48.5309C66.6395 48.4959 66.6882 48.4502 66.7268 48.3963C66.7653 48.3425 66.7929 48.2816 66.8079 48.2171C66.8229 48.1525 66.8251 48.0857 66.8143 48.0204C65.8444 42.176 67.1656 37.5989 68.9003 36.2542C69.4667 35.8155 70.0568 35.7281 70.6501 35.992C73.2673 37.1551 72.4991 41.3573 72.4991 41.401C72.4826 41.4981 72.4948 41.5979 72.5344 41.6881C72.5739 41.7782 72.6389 41.8548 72.7215 41.9085C72.8041 41.9621 72.9006 41.9904 72.9991 41.9898C73.0975 41.9892 73.1937 41.9599 73.2757 41.9053C73.3308 41.8682 73.3779 41.8206 73.4145 41.7652C73.4512 41.7099 73.4765 41.6478 73.4891 41.5826C73.5277 41.3775 74.4203 36.5534 71.0652 35.0624C70.7258 34.9107 70.358 34.8328 69.9861 34.8338Z" fill="#1D1E1B"/>
<path d="M83.0947 66.0843C83.0857 66.2632 83.1404 66.4395 83.249 66.582C83.3576 66.7244 83.513 66.8238 83.6879 66.8625C89.3643 68.1164 94.7466 67.3483 96.7754 64.9934C97.5469 64.0991 97.7519 63.0301 97.3519 61.9862C95.9702 58.374 90.9141 59.0312 90.6989 59.0615C90.5001 59.0889 90.3205 59.1942 90.1993 59.3542C90.078 59.5142 90.0252 59.7157 90.0527 59.9145C90.0801 60.1134 90.1854 60.2932 90.3453 60.4144C90.5053 60.5356 90.7069 60.5883 90.9057 60.5608C90.9528 60.5608 94.9886 60.0398 95.9484 62.5275C96.1484 63.0486 96.0459 63.536 95.6392 64.005C94.2541 65.6119 89.7123 66.6423 84.0225 65.385C83.8266 65.3419 83.6216 65.3782 83.4524 65.486C83.2832 65.5937 83.1636 65.7641 83.1198 65.9599C83.109 66.0008 83.1007 66.0423 83.0947 66.0843Z" fill="#4BD657"/>
<path d="M88.9395 67.708C87.1531 67.6999 85.3728 67.4987 83.6296 67.108C83.3968 67.0562 83.1897 66.9236 83.0454 66.7337C82.9011 66.5439 82.8288 66.309 82.8412 66.0708C82.8432 66.0142 82.8505 65.958 82.863 65.9027C82.8915 65.7734 82.9452 65.6509 83.021 65.5423C83.0968 65.4337 83.1933 65.3411 83.3049 65.2697C83.4165 65.1984 83.5411 65.1498 83.6715 65.1266C83.8019 65.1034 83.9356 65.1061 84.065 65.1346C89.6589 66.3701 94.0981 65.3867 95.4361 63.8352C95.7823 63.4335 95.8664 63.0453 95.7017 62.6116C94.8226 60.3172 90.9751 60.7996 90.9364 60.8046C90.6719 60.8405 90.4038 60.7701 90.1912 60.6088C89.9785 60.4474 89.8385 60.2084 89.8018 59.944C89.7826 59.813 89.7898 59.6795 89.823 59.5513C89.8562 59.4231 89.9146 59.3029 89.995 59.1977C90.0757 59.0915 90.1767 59.0023 90.2921 58.9353C90.4075 58.8684 90.5351 58.825 90.6674 58.8077C90.8892 58.7758 96.1371 58.0917 97.5894 61.8922C98.0247 63.0268 97.8028 64.1849 96.9691 65.1531C95.5403 66.8087 92.5349 67.708 88.9395 67.708ZM83.8463 65.6187C83.7502 65.6187 83.6562 65.6467 83.5758 65.6994C83.4635 65.7714 83.3842 65.8851 83.3555 66.0154C83.349 66.0424 83.3452 66.07 83.3438 66.0978C83.3379 66.2168 83.3743 66.3341 83.4466 66.4289C83.5189 66.5237 83.6224 66.5898 83.7388 66.6154C89.3294 67.8509 94.6108 67.1197 96.5825 64.8287C97.2901 64.0084 97.4784 63.0301 97.1137 62.077C95.8026 58.6463 90.9381 59.2834 90.7263 59.312C90.6589 59.3189 90.5937 59.3393 90.5344 59.372C90.4751 59.4047 90.4229 59.4489 90.3811 59.5022C90.3393 59.5554 90.3087 59.6165 90.291 59.6819C90.2733 59.7473 90.2689 59.8155 90.2782 59.8826C90.2874 59.9496 90.3101 60.0142 90.3448 60.0723C90.3795 60.1304 90.4257 60.181 90.4804 60.2209C90.5351 60.2608 90.5972 60.2893 90.6631 60.3047C90.729 60.3201 90.7973 60.322 90.864 60.3104C90.906 60.3104 95.1437 59.7608 96.1673 62.4368C96.3993 63.0453 96.2799 63.6285 95.8126 64.1697C94.3805 65.8321 89.7362 66.9096 83.9505 65.6321C83.9164 65.6238 83.8814 65.6193 83.8463 65.6187Z" fill="#1D1E1B"/>
<path d="M60.0891 82.9704L56.7273 79.5817C55.2843 77.7017 53.6098 76.0114 51.7434 74.5508L48.3817 71.1621L46.9647 72.5657C46.9344 72.5869 46.9057 72.6105 46.879 72.6363C45.9663 73.5406 47.8439 76.9175 51.0813 80.1784C54.3187 83.4393 57.6687 85.3488 58.5814 84.4445C58.6078 84.4179 58.6319 84.3892 58.6536 84.3588L60.0891 82.9704Z" fill="white"/>
<path d="M57.9397 84.9289C57.3497 84.9289 56.5563 84.6499 55.5864 84.1002C54.1493 83.2833 52.4901 81.9554 50.9118 80.3619C49.3334 78.7684 48.0223 77.0976 47.2138 75.6554C46.4053 74.2132 46.2054 73.1341 46.6206 72.5743C46.6466 72.5381 46.6757 72.5044 46.7079 72.4735L46.7516 72.4332L46.7869 72.3945L48.3837 70.8145L51.9136 74.3696C53.7857 75.8404 55.4677 77.5382 56.921 79.424L60.4424 82.9807L58.6691 84.7373H58.6608C58.447 84.8763 58.1943 84.9435 57.9397 84.9289ZM47.3332 72.566L47.3652 72.5979L47.1281 72.7778C47.11 72.7914 47.0927 72.806 47.0761 72.8215C46.7399 73.1576 46.9617 74.1493 47.661 75.4083C48.4443 76.8136 49.7252 78.4474 51.2716 80.0073C52.818 81.5671 54.4401 82.8648 55.8369 83.6615C57.0892 84.3742 58.0792 84.6078 58.417 84.2717C58.4334 84.2555 58.4485 84.238 58.4623 84.2195L58.6304 83.9792L58.6691 84.0178L59.7281 82.969L56.5344 79.7333C55.1023 77.8732 53.4439 76.1991 51.5976 74.7494L51.5725 74.7276L48.3939 71.5188L47.3332 72.566Z" fill="#382256"/>
<path d="M60.1544 82.8562C61.0672 81.952 59.1886 78.5757 55.9586 75.3151C52.7285 72.0544 49.3701 70.1442 48.4574 71.0484C47.5446 71.9526 49.4232 75.3288 52.6532 78.5894C55.8833 81.8501 59.2417 83.7604 60.1544 82.8562Z" fill="white"/>
<path d="M59.512 83.3664C58.922 83.3664 58.1286 83.0874 57.1587 82.5377C55.7232 81.7208 54.0625 80.3929 52.4859 78.8011C50.9092 77.2093 49.5964 75.5351 48.7879 74.0946C47.9239 72.5398 47.7491 71.4371 48.2837 70.9009C48.8182 70.3647 49.9207 70.553 51.4672 71.4321C52.9026 72.249 54.5634 73.5752 56.1418 75.1687C57.7202 76.7622 59.0313 78.4347 59.8398 79.8752C60.7037 81.4284 60.8769 82.531 60.344 83.0689C60.2322 83.1715 60.101 83.2506 59.9581 83.3017C59.8152 83.3528 59.6635 83.3748 59.512 83.3664ZM49.1206 71.1094C48.9489 71.0957 48.7788 71.1501 48.6467 71.2607C48.3106 71.5968 48.5323 72.5869 49.2333 73.8458C50.0149 75.2511 51.2975 76.8849 52.8439 78.4448C54.3903 80.0046 56.0107 81.3023 57.4092 82.099C58.6615 82.8117 59.6498 83.0454 59.9893 82.7109C60.3255 82.3747 60.1019 81.3847 59.401 80.124C58.6194 78.7204 57.3386 77.0866 55.7922 75.5251C54.2457 73.9635 52.6237 72.6675 51.2268 71.8725C50.3561 71.3749 49.6115 71.1094 49.1257 71.1094H49.1206Z" fill="#1D1E1B"/>
<path d="M57.8698 81.2466C54.9266 79.411 52.1884 77.241 50.2487 73.7818C50.181 73.6605 50.1478 73.5229 50.1528 73.3841C50.1578 73.2453 50.2009 73.1105 50.2771 72.9944C50.3533 72.8783 50.46 72.7854 50.5854 72.7256C50.7108 72.6659 50.8502 72.6417 50.9884 72.6556C54.9048 72.9817 61.1223 69.0618 63.8017 61.207L70.821 67.9777C62.3174 70.4855 58.6565 76.0829 58.9338 80.6112C58.9423 80.7391 58.9153 80.8669 58.8557 80.9804C58.7961 81.0939 58.7064 81.1887 58.5963 81.2545C58.4863 81.3202 58.3601 81.3542 58.2319 81.3528C58.1038 81.3514 57.9784 81.3147 57.8698 81.2466Z" fill="#4BD657"/>
<path d="M58.2382 81.6065C58.0599 81.6062 57.8852 81.5561 57.7339 81.4619C55.0932 79.8146 52.113 77.6295 50.0253 73.9063C49.9346 73.7473 49.8896 73.5664 49.895 73.3835C49.9003 73.2006 49.9559 73.0226 50.0557 72.8692C50.1572 72.7127 50.2993 72.5868 50.4669 72.5048C50.6344 72.4228 50.8212 72.3878 51.0071 72.4036C55.0748 72.7398 61.0352 68.5275 63.5599 61.1248L63.6876 60.75L71.3054 68.0972L70.8885 68.2199C62.4319 70.7143 58.9156 76.2327 59.1829 80.5963C59.1906 80.7255 59.1719 80.855 59.1279 80.9767C59.0839 81.0985 59.0155 81.21 58.9269 81.3044C58.8383 81.3988 58.7315 81.4741 58.6128 81.5258C58.494 81.5774 58.366 81.6043 58.2365 81.6048L58.2382 81.6065ZM58.0028 81.0333C58.0721 81.0765 58.1522 81.0994 58.2339 81.0994C58.3156 81.0994 58.3957 81.0765 58.465 81.0333C58.5362 80.9914 58.5943 80.9306 58.6326 80.8575C58.6709 80.7844 58.6879 80.7021 58.6819 80.6198C58.4062 76.1301 61.9092 70.484 70.3355 67.8551L63.9079 61.6543C61.3361 68.7678 55.6193 72.9163 51.4591 72.9163C51.291 72.9163 51.123 72.9163 50.9667 72.8961C50.8722 72.8872 50.777 72.9044 50.6916 72.9459C50.6062 72.9874 50.534 73.0516 50.4826 73.1314C50.4324 73.2079 50.4044 73.2967 50.4017 73.3881C50.399 73.4795 50.4219 73.5699 50.4675 73.6491C52.4997 77.2731 55.4159 79.4095 58.0028 81.0232V81.0333Z" fill="#1D1E1B"/>
<path d="M76.9492 37.5859L94.7291 55.5342L83.7082 66.4517C81.3282 68.8094 78.1089 70.125 74.7587 70.1092C71.4086 70.0935 68.2019 68.7475 65.8442 66.3675C63.4865 63.9874 62.1708 60.7682 62.1866 57.4181C62.2024 54.0679 63.5483 50.8612 65.9284 48.5034L76.9492 37.5859Z" fill="#4BD657"/>
<path d="M74.7864 70.3736C73.0844 70.3768 71.3987 70.0416 69.8274 69.3874C68.2562 68.7332 66.8308 67.7732 65.6339 66.563C64.443 65.3613 63.5005 63.9366 62.8603 62.3705C62.22 60.8045 61.8945 59.1276 61.9025 57.4357C61.9104 55.7438 62.2516 54.0701 62.9066 52.5101C63.5615 50.9501 64.5174 49.5344 65.7196 48.3439L76.9194 37.25L95.0529 55.5565L83.853 66.6504C81.4419 69.0413 78.182 70.38 74.7864 70.3736ZM65.9919 66.2084C67.1335 67.3679 68.4941 68.2891 69.9946 68.9187C71.495 69.5483 73.1054 69.8737 74.7326 69.8761H74.7931C76.4094 69.8802 78.0106 69.5656 79.5052 68.9504C80.9998 68.3352 82.3585 67.4314 83.5035 66.2907L94.3453 55.5515L76.9161 37.9677L66.0743 48.7086C63.7454 51.021 62.4288 54.1629 62.4133 57.4448C62.3979 60.7268 63.6848 63.8808 65.9919 66.2151V66.2084Z" fill="#1D1D1B"/>
<path d="M97.4518 57.1408C99.4732 55.1383 96.1191 48.475 89.9601 42.2578C83.8012 36.0405 77.1698 32.6237 75.1484 34.6262C73.127 36.6286 76.4811 43.292 82.64 49.5093C88.7989 55.7265 95.4304 59.1432 97.4518 57.1408Z" fill="#4BD657"/>
<path d="M95.8182 57.9961C94.687 57.9961 93.2229 57.549 91.5067 56.6649C88.6861 55.2109 85.4824 52.745 82.4854 49.7194C79.4883 46.6938 77.0528 43.4682 75.6274 40.6426C74.1583 37.7263 73.9347 35.5412 74.997 34.4889C76.0594 33.4367 78.2412 33.6821 81.1441 35.1764C83.9646 36.6304 87.1684 39.0962 90.1654 42.1218C93.1624 45.1474 95.598 48.3731 97.0234 51.207C98.4908 54.1234 98.7161 56.3086 97.6537 57.3608C97.2133 57.7827 96.5914 57.9961 95.8182 57.9961ZM76.8242 34.341C76.1821 34.341 75.6778 34.5091 75.3416 34.8453C74.4608 35.7176 74.7247 37.7482 76.0678 40.4141C77.4696 43.2027 79.8733 46.3829 82.8334 49.3715C85.7934 52.3601 88.9518 54.7941 91.727 56.2228C94.3811 57.5894 96.4065 57.8734 97.289 57.0011C98.1698 56.1287 97.9058 54.0982 96.5628 51.4323C95.1593 48.6437 92.7573 45.4635 89.7972 42.4748C86.8372 39.4862 83.6771 37.0523 80.9036 35.6235C79.2664 34.7747 77.8663 34.341 76.8242 34.341Z" fill="#1D1D1B"/>
<path d="M95.2369 54.2008C96.0197 53.4253 92.8114 48.9173 88.0708 44.1318C83.3303 39.3464 78.8527 36.0957 78.0698 36.8712C77.287 37.6467 80.4953 42.1548 85.2359 46.9402C89.9764 51.7256 94.454 54.9763 95.2369 54.2008Z" fill="white"/>
<path d="M94.9338 54.5846C93.1184 54.5846 88.2338 50.337 85.0737 47.1467C82.7709 44.8237 80.7538 42.4906 79.3923 40.5777C77.1702 37.4546 77.7249 36.9033 77.9081 36.7218C78.0913 36.5402 78.6477 35.9906 81.7506 38.243C83.6501 39.6213 85.9629 41.6619 88.2657 43.9849C91.7956 47.54 96.6013 53.25 95.4297 54.4064C95.3633 54.468 95.2851 54.5155 95.1999 54.5461C95.1147 54.5767 95.0242 54.5898 94.9338 54.5846ZM78.4293 37.0344C78.3695 37.0282 78.3096 37.0443 78.2612 37.0798C78.1116 37.2294 78.2393 38.0883 79.8025 40.2853C81.1472 42.1763 83.1457 44.4875 85.4301 46.792C87.7144 49.0965 90.0055 51.1186 91.8831 52.4818C94.0682 54.0652 94.9221 54.2013 95.0768 54.0517C95.2314 53.9021 95.0986 53.0432 93.5371 50.8463C92.1923 48.9553 90.192 46.644 87.9094 44.3395C85.6267 42.035 83.3341 40.0146 81.4549 38.6514C79.6782 37.3672 78.7856 37.0344 78.4293 37.0344Z" fill="#1D1D1B"/>
<path d="M76.6751 68.1955C76.0345 68.1982 75.399 68.0842 74.7993 67.8593C74.674 67.812 74.5726 67.7169 74.5175 67.5949C74.4623 67.4729 74.4579 67.334 74.5052 67.2088C74.5524 67.0835 74.6475 66.9821 74.7694 66.927C74.8914 66.8718 75.0303 66.8673 75.1555 66.9146C80.9193 69.0998 88.0985 57.6563 88.164 57.5403C88.1985 57.4832 88.244 57.4336 88.2978 57.3942C88.3516 57.3548 88.4127 57.3265 88.4776 57.3109C88.5424 57.2953 88.6097 57.2927 88.6755 57.3033C88.7414 57.3138 88.8045 57.3374 88.8612 57.3725C88.9179 57.4076 88.967 57.4536 89.0058 57.5079C89.0446 57.5621 89.0721 57.6235 89.087 57.6886C89.1019 57.7536 89.1038 57.8209 89.0925 57.8866C89.0812 57.9523 89.057 58.0152 89.0212 58.0715C88.7405 58.5219 82.6691 68.1955 76.6751 68.1955Z" fill="white"/>
<path d="M66.2401 50.4062C66.1629 50.4061 66.0881 50.3794 66.0283 50.3306C61.895 46.9688 59.5787 40.6907 59.3282 32.177C59.227 28.1835 59.5175 24.1896 60.1956 20.2528C60.2169 20.1697 60.2691 20.098 60.3415 20.0521C60.414 20.0063 60.5011 19.9898 60.5853 20.0061C60.6694 20.0225 60.7442 20.0703 60.7942 20.1399C60.8443 20.2095 60.8658 20.2956 60.8545 20.3805C60.186 24.2726 59.9 28.2208 60.0006 32.1686C60.1687 37.9609 61.431 45.7216 66.4518 49.8078C66.5056 49.8516 66.5444 49.911 66.5631 49.9778C66.5818 50.0446 66.5794 50.1155 66.5562 50.1808C66.533 50.2461 66.4902 50.3027 66.4336 50.3428C66.377 50.3828 66.3094 50.4044 66.2401 50.4045V50.4062Z" fill="#1D1D1B"/>
<path d="M65.228 53.7675H65.1692C61.5603 53.1304 58.333 50.3755 55.8352 45.8018C54.6813 43.6653 53.7755 41.4038 53.1356 39.0614C53.1245 39.0186 53.1222 38.974 53.1284 38.9302C53.1345 38.8864 53.1492 38.8443 53.1717 38.8062C53.1942 38.7681 53.224 38.7348 53.2593 38.7082C53.2947 38.6817 53.3349 38.6623 53.3777 38.6513C53.4205 38.6402 53.4651 38.6377 53.5088 38.6439C53.5526 38.6501 53.5949 38.6649 53.6329 38.6874C53.671 38.7098 53.7042 38.7396 53.7308 38.7749C53.7574 38.8103 53.7769 38.8505 53.7879 38.8933C53.8198 39.0211 57.0302 51.6412 65.2867 53.0985C65.3759 53.1063 65.4583 53.1492 65.5159 53.2178C65.5734 53.2863 65.6013 53.375 65.5935 53.4641C65.5857 53.5533 65.5429 53.6357 65.4743 53.6932C65.4058 53.7507 65.3171 53.7787 65.228 53.7709V53.7675Z" fill="#1D1D1B"/>
<path d="M52.9629 72.0859C52.9629 72.0859 50.0652 71.3514 51.0972 66.2499C52.1293 61.1484 54.6724 56.7427 58.5435 55.6367C62.4146 54.5307 65.1477 56.0822 66.3411 58.0135C67.5345 59.9448 66.6185 62.0291 63.9073 63.041C63.9073 63.041 65.3074 66.7524 60.4345 68.2518C60.4345 68.2518 60.3656 74.5753 55.6456 71.4455L52.9629 72.0859Z" fill="#FFCDB2"/>
<path d="M61.0313 55.2682C63.5879 55.2682 65.4167 56.5289 66.3344 58.0148C67.5296 59.9445 66.6119 62.0304 63.9006 63.0423C63.9006 63.0423 65.3008 66.7537 60.4279 68.2531C60.4279 68.2531 60.3841 72.3158 57.9351 72.3158C57.3283 72.3158 56.5752 72.067 55.639 71.4468L52.9495 72.0889C52.9495 72.0889 50.0518 71.3543 51.0838 66.2528C52.1159 61.1513 54.659 56.7457 58.5301 55.6397C59.3404 55.401 60.1799 55.2765 61.0245 55.2699L61.0313 55.2682ZM61.0245 54.7656C60.1328 54.7726 59.2464 54.9033 58.3906 55.1539C56.4256 55.7153 54.7195 57.0668 53.321 59.1679C52.0805 61.0336 51.1359 63.4491 50.5896 66.152C50.1324 68.4128 50.3458 70.171 51.2215 71.3795C51.6071 71.947 52.1717 72.3689 52.8251 72.578L52.9463 72.6083L53.0672 72.5797L55.5398 71.9863C56.4206 72.5393 57.2207 72.8268 57.9284 72.8268C58.7957 72.8268 59.9589 72.4133 60.5741 70.4416C60.7526 69.8524 60.8653 69.2453 60.9103 68.6313C62.5139 68.0749 63.6115 67.2126 64.1746 66.0629C64.5765 65.2183 64.6899 64.2652 64.4973 63.3499C65.8605 62.7465 66.8034 61.8371 67.1749 60.7513C67.5111 59.773 67.3665 58.7342 66.7614 57.7576C65.6049 55.8885 63.4619 54.7724 61.028 54.7724L61.0245 54.7656Z" fill="#1D1D1B"/>
<path d="M63.887 63.2648C63.8453 63.265 63.8043 63.2547 63.7676 63.2351C63.7309 63.2154 63.6997 63.1869 63.6768 63.1522C61.1152 59.3114 56.597 60.3888 56.5516 60.4006C56.4865 60.4166 56.4178 60.4061 56.3604 60.3715C56.303 60.3368 56.2617 60.2808 56.2456 60.2157C56.2296 60.1506 56.24 60.0818 56.2747 60.0244C56.3094 59.967 56.3654 59.9258 56.4305 59.9097C56.4792 59.898 61.3404 58.7331 64.0971 62.8731C64.1154 62.9007 64.1281 62.9317 64.1345 62.9642C64.1409 62.9967 64.1407 63.0301 64.1342 63.0626C64.1276 63.0951 64.1147 63.1259 64.0962 63.1534C64.0778 63.1809 64.0541 63.2045 64.0265 63.2228C63.9853 63.2505 63.9366 63.2651 63.887 63.2648Z" fill="black"/>
<path d="M60.4396 68.5585H60.3959C55.6138 67.7046 54.5396 65.4841 54.4959 65.39C54.4709 65.3299 54.4701 65.2624 54.4938 65.2016C54.5174 65.1409 54.5637 65.0918 54.6228 65.0644C54.6819 65.037 54.7493 65.0335 54.8109 65.0548C54.8725 65.076 54.9235 65.1202 54.9532 65.1782C54.9683 65.2101 56.0054 67.2609 60.4832 68.061C60.5501 68.0668 60.6119 68.0989 60.6551 68.1503C60.6983 68.2016 60.7193 68.2681 60.7135 68.3349C60.7077 68.4018 60.6756 68.4636 60.6242 68.5068C60.5729 68.55 60.5064 68.571 60.4396 68.5652V68.5585Z" fill="black"/>
<path d="M66.3232 59.9848C66.2485 59.9848 66.1752 59.9648 66.1108 59.927C66.0464 59.8892 65.9932 59.8349 65.9568 59.7697C63.0001 54.4782 57.9961 57.129 57.7843 57.2483C57.6872 57.2957 57.5755 57.3039 57.4726 57.2712C57.3696 57.2385 57.2833 57.1674 57.2314 57.0726C57.1795 56.9779 57.166 56.8668 57.1939 56.7625C57.2217 56.6581 57.2886 56.5685 57.3808 56.5121C57.4396 56.4785 63.3328 53.3554 66.6896 59.3696C66.7164 59.4181 66.7334 59.4714 66.7395 59.5265C66.7455 59.5816 66.7407 59.6374 66.725 59.6905C66.7094 59.7437 66.6833 59.7932 66.6484 59.8362C66.6134 59.8793 66.5703 59.9149 66.5215 59.9411C66.46 59.972 66.3919 59.9871 66.3232 59.9848Z" fill="white"/>
<defs>
<filter id="filter0_d_2720_46503" x="-2.14696" y="57.4863" width="20.6338" height="20.6318" filterUnits="userSpaceOnUse" color-interpolation-filters="sRGB">
<feFlood flood-opacity="0" result="BackgroundImageFix"/>
<feColorMatrix in="SourceAlpha" type="matrix" values="0 0 0 0 0 0 0 0 0 0 0 0 0 0 0 0 0 0 127 0" result="hardAlpha"/>
<feOffset dy="1.08642"/>
<feGaussianBlur stdDeviation="2.71606"/>
<feComposite in2="hardAlpha" operator="out"/>
<feColorMatrix type="matrix" values="0 0 0 0 0 0 0 0 0 0 0 0 0 0 0 0 0 0 0.05 0"/>
<feBlend mode="normal" in2="BackgroundImageFix" result="effect1_dropShadow_2720_46503"/>
<feBlend mode="normal" in="SourceGraphic" in2="effect1_dropShadow_2720_46503" result="shape"/>
</filter>
<filter id="filter1_d_2720_46503" x="197.677" y="88.1133" width="20.6338" height="20.6338" filterUnits="userSpaceOnUse" color-interpolation-filters="sRGB">
<feFlood flood-opacity="0" result="BackgroundImageFix"/>
<feColorMatrix in="SourceAlpha" type="matrix" values="0 0 0 0 0 0 0 0 0 0 0 0 0 0 0 0 0 0 127 0" result="hardAlpha"/>
<feOffset dy="1.08642"/>
<feGaussianBlur stdDeviation="2.71606"/>
<feComposite in2="hardAlpha" operator="out"/>
<feColorMatrix type="matrix" values="0 0 0 0 0 0 0 0 0 0 0 0 0 0 0 0 0 0 0.05 0"/>
<feBlend mode="normal" in2="BackgroundImageFix" result="effect1_dropShadow_2720_46503"/>
<feBlend mode="normal" in="SourceGraphic" in2="effect1_dropShadow_2720_46503" result="shape"/>
</filter>
<linearGradient id="paint0_linear_2720_46503" x1="10.9068" y1="59.7539" x2="209.092" y2="106.959" gradientUnits="userSpaceOnUse">
<stop stop-color="#CDD5E2"/>
<stop offset="1" stop-color="#CDD5E2" stop-opacity="0"/>
</linearGradient>
<linearGradient id="paint1_linear_2720_46503" x1="208.75" y1="104.233" x2="188.718" y2="156.823" gradientUnits="userSpaceOnUse">
<stop stop-color="#CDD5E2"/>
<stop offset="1" stop-color="#CDD5E2" stop-opacity="0"/>
</linearGradient>
<linearGradient id="paint2_linear_2720_46503" x1="104.804" y1="12.4062" x2="104.804" y2="194.67" gradientUnits="userSpaceOnUse">
<stop stop-color="#CDD5E2"/>
<stop offset="1" stop-color="#CDD5E2" stop-opacity="0"/>
</linearGradient>
<linearGradient id="paint3_linear_2720_46503" x1="104.804" y1="30.6309" x2="104.804" y2="176.442" gradientUnits="userSpaceOnUse">
<stop stop-color="#CDD5E2"/>
<stop offset="1" stop-color="#CDD5E2" stop-opacity="0"/>
</linearGradient>
</defs>
</svg>
