<svg width="232" height="200" viewBox="0 0 232 200" fill="none" xmlns="http://www.w3.org/2000/svg">
<g id="magnifying">
<g id="line">
<path id="Vector" d="M182.359 200L44.8592 199.166C44.7263 199.166 44.5988 199.113 44.5049 199.019C44.4109 198.925 44.358 198.797 44.358 198.665C44.358 198.532 44.4109 198.404 44.5049 198.31C44.5988 198.216 44.7263 198.163 44.8592 198.163L182.359 198.998C182.492 198.998 182.62 199.051 182.714 199.145C182.808 199.239 182.86 199.366 182.86 199.499C182.86 199.632 182.808 199.759 182.714 199.853C182.62 199.947 182.492 200 182.359 200Z" fill="black"/>
<path id="Vector_2" d="M49.9537 192.721H30.1925C30.0928 192.721 29.997 192.681 29.9265 192.61C29.856 192.54 29.8166 192.444 29.8166 192.345C29.8166 192.245 29.856 192.149 29.9265 192.079C29.997 192.008 30.0928 191.969 30.1925 191.969H49.9537C50.0534 191.969 50.1489 192.008 50.2194 192.079C50.2899 192.149 50.3296 192.245 50.3296 192.345C50.3296 192.444 50.2899 192.54 50.2194 192.61C50.1489 192.681 50.0534 192.721 49.9537 192.721Z" fill="black"/>
</g>
<g id="gear">
<g id="Group">
<path id="Vector_3" d="M223.93 119.697H214.535C214.248 119.697 213.961 119.716 213.675 119.752C211.829 111.658 208.336 104.031 203.416 97.3442L208.884 91.2273C210.121 89.8407 210.757 88.0202 210.653 86.1651C210.549 84.3099 209.714 82.5717 208.33 81.3317L197.305 71.471C195.918 70.2346 194.097 69.5988 192.242 69.7031C190.386 69.8074 188.648 70.6433 187.409 72.0274L181.357 78.7933C176.9 76.5816 172.187 74.9302 167.324 73.8767V65.3893C167.324 63.5284 166.585 61.7438 165.269 60.4279C163.953 59.1121 162.168 58.3728 160.308 58.3728H145.523C143.662 58.3728 141.877 59.1121 140.562 60.4279C139.246 61.7438 138.506 63.5284 138.506 65.3893V74.6084C132.614 76.1994 126.997 78.6731 121.845 81.9456L115.014 75.8388C113.627 74.6024 111.806 73.9665 109.951 74.0708C108.096 74.1751 106.358 75.011 105.118 76.3951L95.2575 87.4209C94.021 88.8079 93.3851 90.6287 93.4894 92.4838C93.5937 94.339 94.4296 96.0771 95.8137 97.3167L101.828 102.699C98.7362 107.991 96.4676 113.723 95.0996 119.697H86.1788C84.3179 119.697 82.5331 120.436 81.2172 121.752C79.9014 123.068 79.1624 124.852 79.1624 126.713V141.51C79.1624 143.371 79.9014 145.156 81.2172 146.472C82.5331 147.788 84.3179 148.527 86.1788 148.527H95.4804C97.0963 154.798 99.7081 160.77 103.216 166.213L97.1871 172.959C95.9503 174.346 95.314 176.166 95.4178 178.022C95.5216 179.877 96.3571 181.615 97.7409 182.855L108.767 192.715C110.154 193.952 111.974 194.588 113.83 194.484C115.685 194.379 117.423 193.543 118.663 192.159L124.095 186.082C129.351 189.106 135.032 191.322 140.947 192.655C140.932 192.838 140.922 193.026 140.922 193.214V199.093H169.74V193.189C169.74 192.854 169.715 192.519 169.667 192.187C176.348 190.455 182.684 187.594 188.401 183.727C188.559 183.903 188.727 184.07 188.902 184.228L195.906 190.493C197.294 191.727 199.113 192.361 200.967 192.256C202.821 192.151 204.558 191.315 205.797 189.931L215.657 178.906C216.894 177.519 217.53 175.698 217.425 173.843C217.321 171.988 216.485 170.249 215.101 169.01L208.085 162.745C207.974 162.645 207.859 162.55 207.741 162.46C210.17 158.022 212.033 153.298 213.284 148.397C213.69 148.469 214.101 148.506 214.512 148.507H223.907C225.768 148.507 227.552 147.767 228.868 146.452C230.184 145.136 230.923 143.351 230.923 141.49V126.693C230.918 124.84 230.179 123.063 228.869 121.753C227.559 120.442 225.783 119.703 223.93 119.697ZM154.517 176.638C145.921 176.638 137.519 174.089 130.372 169.313C123.225 164.538 117.654 157.75 114.365 149.809C111.076 141.868 110.215 133.129 111.892 124.699C113.569 116.268 117.709 108.525 123.787 102.447C129.865 96.3691 137.609 92.2303 146.039 90.5536C154.47 88.877 163.208 89.738 171.149 93.0277C179.091 96.3174 185.878 101.888 190.653 109.035C195.428 116.183 197.977 124.585 197.976 133.181C197.978 138.889 196.855 144.542 194.671 149.816C192.488 155.09 189.286 159.883 185.25 163.919C181.214 167.956 176.423 171.158 171.149 173.343C165.875 175.527 160.222 176.651 154.514 176.65L154.517 176.638Z" fill="#4BD657"/>
<path id="Vector_4" d="M170.118 199.454H140.549V193.189C140.549 193.104 140.549 193.016 140.549 192.923C134.808 191.6 129.291 189.448 124.17 186.536L118.94 192.385C117.634 193.843 115.803 194.724 113.848 194.834C111.894 194.944 109.975 194.274 108.514 192.971L97.4878 183.11C96.7644 182.464 96.1752 181.682 95.7542 180.809C95.3332 179.935 95.0885 178.987 95.034 178.019C94.9796 177.05 95.1164 176.081 95.4368 175.165C95.7572 174.25 96.255 173.407 96.9015 172.683L102.74 166.151C99.3395 160.821 96.7903 154.993 95.1848 148.878H86.1636C84.2059 148.876 82.3289 148.097 80.9448 146.712C79.5607 145.328 78.7826 143.451 78.7813 141.493V126.696C78.7826 124.738 79.5607 122.861 80.9448 121.476C82.3289 120.092 84.2059 119.313 86.1636 119.311H94.7864C96.145 113.506 98.3513 107.934 101.334 102.772L95.5382 97.5898C94.0797 96.2842 93.1987 94.4533 93.0888 92.4989C92.9789 90.5445 93.649 88.6263 94.9518 87.1653L104.812 76.1395C106.119 74.6818 107.951 73.8018 109.905 73.6923C111.86 73.5829 113.778 74.2529 115.239 75.5556L121.86 81.4695C126.896 78.3032 132.37 75.8928 138.106 74.3152V65.3893C138.108 63.4317 138.886 61.5549 140.27 60.1705C141.654 58.7861 143.53 58.007 145.488 58.0044H160.285C162.243 58.0064 164.12 58.7851 165.505 60.1696C166.889 61.5541 167.668 63.4313 167.67 65.3893V73.586C172.368 74.63 176.926 76.2282 181.247 78.3472L187.108 71.7893C188.414 70.3313 190.246 69.4507 192.2 69.3408C194.155 69.2309 196.073 69.9006 197.535 71.203L208.561 81.0635C210.02 82.3692 210.901 84.2009 211.011 86.1561C211.12 88.1113 210.449 90.0301 209.145 91.4906L203.882 97.3818C208.681 103.955 212.105 111.429 213.949 119.356C214.141 119.341 214.329 119.333 214.517 119.333H223.912C225.87 119.335 227.747 120.114 229.131 121.499C230.515 122.883 231.293 124.76 231.294 126.718V141.515C231.293 143.473 230.515 145.35 229.131 146.735C227.747 148.119 225.87 148.898 223.912 148.9H214.517C214.201 148.899 213.884 148.878 213.57 148.838C212.336 153.549 210.543 158.096 208.228 162.382L208.34 162.482L215.357 168.747C216.815 170.053 217.695 171.884 217.805 173.839C217.915 175.794 217.246 177.712 215.943 179.174L206.082 190.2C205.436 190.923 204.654 191.512 203.781 191.933C202.907 192.354 201.959 192.599 200.991 192.653C200.022 192.708 199.053 192.571 198.137 192.25C197.222 191.93 196.379 191.432 195.656 190.786L188.652 184.521C188.546 184.426 188.441 184.328 188.341 184.228C182.751 187.971 176.579 190.759 170.076 192.48C170.101 192.721 170.113 192.964 170.113 193.207L170.118 199.454ZM141.301 198.702H169.366V193.189C169.365 192.87 169.342 192.551 169.296 192.234L169.249 191.901L169.574 191.818C176.214 190.099 182.511 187.256 188.191 183.411L188.459 183.228L188.677 183.479C188.827 183.642 188.99 183.802 189.158 183.952L196.162 190.217C197.473 191.389 199.197 191.992 200.953 191.893C202.709 191.794 204.354 191.002 205.526 189.691L215.387 178.665C216.558 177.353 217.16 175.63 217.062 173.874C216.963 172.118 216.171 170.473 214.861 169.301L207.844 163.036C207.739 162.943 207.631 162.853 207.521 162.768L207.27 162.57L207.423 162.292C209.838 157.882 211.69 153.187 212.936 148.316L213.021 147.978L213.365 148.038C213.748 148.108 214.137 148.143 214.527 148.143H223.922C225.68 148.141 227.365 147.441 228.608 146.198C229.851 144.954 230.55 143.269 230.552 141.51V126.713C230.55 124.955 229.851 123.269 228.608 122.026C227.365 120.783 225.68 120.083 223.922 120.08H214.527C214.255 120.081 213.983 120.098 213.713 120.133L213.377 120.173L213.3 119.842C211.474 111.796 208.003 104.214 203.105 97.5748L202.925 97.3242L208.598 90.9793C209.77 89.6676 210.373 87.9442 210.274 86.1881C210.176 84.432 209.384 82.787 208.072 81.6148L197.046 71.7542C195.734 70.5843 194.011 69.9827 192.255 70.0813C190.5 70.18 188.855 70.9709 187.682 72.2804L181.44 79.2644L181.189 79.1365C176.755 76.9399 172.067 75.2995 167.231 74.2526L166.936 74.1874V65.3893C166.934 63.6305 166.235 61.9441 164.991 60.7004C163.748 59.4568 162.061 58.7575 160.303 58.7562H145.505C143.747 58.7581 142.061 59.4578 140.818 60.7014C139.575 61.945 138.876 63.6309 138.875 65.3893V74.8966L138.597 74.9718C132.741 76.5521 127.158 79.0098 122.038 82.2614L121.8 82.4142L114.756 76.1194C113.443 74.9495 111.72 74.348 109.965 74.4467C108.209 74.5453 106.565 75.3361 105.391 76.6457L95.5306 87.6715C94.36 88.9838 93.7581 90.707 93.8567 92.4627C93.9554 94.2184 94.7468 95.8632 96.0569 97.036L102.322 102.624L102.169 102.89C99.0953 108.149 96.84 113.845 95.4804 119.782L95.4153 120.073H86.1937C84.4354 120.075 82.7496 120.774 81.5065 122.018C80.2633 123.261 79.5645 124.947 79.5632 126.706V141.503C79.5652 143.261 80.2642 144.947 81.5072 146.19C82.7502 147.433 84.4356 148.133 86.1937 148.136H95.7887L95.8614 148.417C97.4654 154.649 100.06 160.584 103.547 165.993L103.702 166.243L97.4827 173.202C96.3109 174.514 95.7082 176.237 95.8069 177.993C95.9055 179.75 96.6977 181.395 98.009 182.567L109.035 192.427C110.347 193.598 112.07 194.2 113.826 194.101C115.582 194.003 117.227 193.211 118.399 191.901L124.035 185.596L124.301 185.749C129.523 188.754 135.169 190.956 141.048 192.28L141.366 192.352L141.338 192.675C141.323 192.873 141.315 193.049 141.315 193.207L141.301 198.702ZM154.511 177.014C130.342 177.014 110.679 157.35 110.679 133.181C110.679 109.012 130.342 89.3455 154.511 89.3455C178.681 89.3455 198.347 109.009 198.347 133.181C198.347 157.352 178.686 177.014 154.514 177.014H154.511ZM154.511 90.0973C130.756 90.0973 111.43 109.425 111.43 133.181C111.43 156.937 130.756 176.262 154.511 176.262C178.267 176.262 197.595 156.937 197.595 133.181C197.595 109.425 178.27 90.0973 154.514 90.0973H154.511Z" fill="#1D1E1B"/>
</g>
<path id="Vector_5" d="M174.386 109.317C175.512 109.317 176.425 108.404 176.425 107.278C176.425 106.151 175.512 105.238 174.386 105.238C173.259 105.238 172.346 106.151 172.346 107.278C172.346 108.404 173.259 109.317 174.386 109.317Z" fill="#51CEF4"/>
<path id="Vector_6" d="M171.083 131.086C172.209 131.086 173.123 130.173 173.123 129.046C173.123 127.92 172.209 127.006 171.083 127.006C169.956 127.006 169.043 127.92 169.043 129.046C169.043 130.173 169.956 131.086 171.083 131.086Z" fill="#51CEF4"/>
<path id="Vector_7" d="M210.809 122.273C210.622 122.274 210.442 122.205 210.303 122.081C210.164 121.956 210.076 121.784 210.057 121.599C208.355 105.326 197.68 97.1438 197.572 97.0636C197.493 97.0044 197.427 96.9301 197.377 96.8452C197.326 96.7602 197.293 96.6663 197.279 96.5685C197.265 96.4708 197.271 96.3712 197.295 96.2756C197.32 96.18 197.363 96.0902 197.422 96.0112C197.481 95.9322 197.555 95.8656 197.64 95.8153C197.725 95.765 197.819 95.732 197.917 95.718C198.015 95.7041 198.114 95.7094 198.21 95.7339C198.306 95.7584 198.396 95.8016 198.475 95.8608C198.936 96.2066 209.784 104.521 211.55 121.443C211.571 121.641 211.511 121.839 211.386 121.994C211.261 122.148 211.079 122.247 210.881 122.268C210.857 122.272 210.833 122.273 210.809 122.273Z" fill="white"/>
<path id="Vector_8" d="M204.544 187.927C204.358 187.925 204.18 187.854 204.043 187.729C203.97 187.662 203.911 187.582 203.869 187.492C203.828 187.402 203.804 187.306 203.8 187.207C203.796 187.108 203.811 187.01 203.845 186.917C203.879 186.824 203.931 186.739 203.998 186.666C204.055 186.604 209.801 180.359 213.019 176.893C213.334 176.585 213.58 176.213 213.741 175.803C213.902 175.393 213.974 174.953 213.953 174.513C213.826 172.385 211.603 170.481 211.58 170.461C211.436 170.33 211.349 170.148 211.336 169.954C211.323 169.759 211.386 169.568 211.512 169.419C211.637 169.27 211.816 169.176 212.01 169.156C212.203 169.137 212.397 169.193 212.55 169.313C212.663 169.406 215.282 171.644 215.452 174.415C215.49 175.061 215.391 175.707 215.161 176.311C214.932 176.916 214.577 177.465 214.121 177.923C210.901 181.391 205.16 187.631 205.1 187.696C205.028 187.771 204.942 187.83 204.846 187.87C204.75 187.909 204.647 187.929 204.544 187.927Z" fill="white"/>
<path id="Vector_9" d="M228.099 140.315C227.9 140.315 227.709 140.236 227.568 140.095C227.427 139.954 227.347 139.762 227.347 139.563V133.298C227.347 133.194 227.369 133.09 227.413 132.995C227.443 132.78 227.525 131.812 227.347 128.071C227.285 126.763 226.874 125.798 226.119 125.204C224.791 124.157 222.747 124.51 222.726 124.515C222.53 124.553 222.328 124.51 222.163 124.398C221.998 124.286 221.884 124.112 221.847 123.916C221.81 123.72 221.852 123.518 221.964 123.353C222.076 123.188 222.25 123.074 222.446 123.037C222.556 123.017 225.17 122.536 227.052 124.024C228.162 124.899 228.766 126.237 228.851 128.001C229.026 131.705 228.979 132.945 228.851 133.441V139.563C228.851 139.762 228.772 139.954 228.631 140.095C228.49 140.236 228.299 140.315 228.099 140.315ZM228.099 132.547C227.936 132.546 227.778 132.598 227.648 132.697C227.778 132.599 227.937 132.547 228.099 132.547Z" fill="white"/>
<path id="Vector_10" d="M128.866 82.1787C128.704 82.1788 128.546 82.1264 128.416 82.0293C128.286 81.9322 128.191 81.7955 128.145 81.6399C128.099 81.4842 128.104 81.3178 128.161 81.1656C128.217 81.0134 128.321 80.8835 128.458 80.7955C128.814 80.5649 137.306 75.1622 148.447 75.6634C148.546 75.6679 148.643 75.6919 148.732 75.7339C148.822 75.7759 148.902 75.8351 148.969 75.9081C149.035 75.9812 149.087 76.0668 149.12 76.1598C149.154 76.2528 149.169 76.3516 149.164 76.4503C149.151 76.6484 149.062 76.8337 148.915 76.9674C148.768 77.101 148.576 77.1726 148.377 77.167C137.732 76.6783 129.357 82.0033 129.275 82.0584C129.153 82.1371 129.011 82.1788 128.866 82.1787Z" fill="white"/>
<path id="Vector_11" d="M145.155 67.3939C145.108 67.3946 145.061 67.3878 145.017 67.3738C144.889 67.3371 144.782 67.2514 144.717 67.1354C144.653 67.0193 144.637 66.8825 144.674 66.7549C144.701 66.6547 147.635 56.6762 157.704 43.5329C163.603 35.8273 170.765 28.5453 179.004 21.8897C189.278 13.5777 201.269 6.22286 214.625 0.0333376C214.744 -0.0122291 214.875 -0.0110431 214.993 0.0366413C215.111 0.0843257 215.206 0.17492 215.26 0.290166C215.313 0.405412 215.321 0.536763 215.281 0.657483C215.241 0.778202 215.158 0.879338 215.046 0.940495C184.976 14.8782 167.703 32.1287 158.506 44.1444C148.563 57.1374 145.681 66.9328 145.653 67.0305C145.623 67.138 145.557 67.2322 145.466 67.2981C145.376 67.3639 145.266 67.3976 145.155 67.3939Z" fill="#1D1D1B"/>
<path id="Vector_12" d="M152.923 68.1456C152.86 68.1462 152.798 68.1342 152.74 68.1105C152.616 68.0619 152.517 67.9663 152.464 67.8446C152.411 67.723 152.408 67.5852 152.457 67.4615C152.482 67.3939 155.185 60.6004 161.207 53.0176C166.77 46.0137 176.39 36.8697 190.634 33.0808C190.758 33.059 190.886 33.0847 190.992 33.1529C191.098 33.2211 191.174 33.3267 191.206 33.4488C191.237 33.5708 191.222 33.7002 191.162 33.8113C191.103 33.9224 191.004 34.007 190.884 34.0482C176.922 37.7644 167.474 46.7404 162.007 53.614C156.07 61.084 153.411 67.7622 153.384 67.8274C153.347 67.9203 153.284 68.0002 153.202 68.0569C153.12 68.1136 153.023 68.1445 152.923 68.1456Z" fill="#1D1D1B"/>
<path id="Vector_13" d="M220.08 183.165C219.956 183.165 219.836 183.119 219.745 183.035C219.646 182.946 219.588 182.822 219.581 182.689C219.575 182.557 219.62 182.427 219.709 182.329C222.699 179.016 224.02 175.831 223.636 172.869C223.135 169.01 219.84 166.817 219.807 166.797C219.696 166.725 219.617 166.611 219.589 166.481C219.562 166.35 219.587 166.215 219.659 166.103C219.732 165.991 219.846 165.913 219.976 165.885C220.106 165.858 220.242 165.883 220.353 165.955C220.504 166.053 224.06 168.406 224.629 172.721C225.057 175.991 223.651 179.449 220.451 182.995C220.405 183.048 220.348 183.09 220.284 183.12C220.22 183.149 220.151 183.165 220.08 183.165Z" fill="#1D1D1B"/>
</g>
<g id="woman">
<g id="Group_2">
<path id="Vector_14" d="M191.15 109.417C180.738 94.1716 166.217 90.6408 159.704 89.8289C158.903 90.7104 158.303 91.7556 157.946 92.8918C157.589 94.028 157.484 95.2282 157.636 96.4094C158.448 103.313 157.93 112.838 160.23 116.138C160.23 116.138 147.701 106.924 120.121 104.235C119.264 104.092 118.393 103.965 117.507 103.854L99.7657 102.426C99.7657 102.426 79.854 100.782 62.6787 110.445C45.5034 120.107 19.986 141.443 26.2507 157.23C31.919 171.513 38.7801 173.267 48.8036 171.764C54.7375 170.874 68.4422 161.565 68.4422 161.565C68.4422 161.565 63.0396 175.184 68.4422 198.401L159.062 199.078C159.062 199.078 162.069 169.759 157.058 147.707C184.873 157.48 186.296 123.716 191.15 109.417Z" fill="#07ACEE"/>
<path id="Vector_15" d="M159.4 199.454H159.06L68.1439 198.774L68.0764 198.486C63.5507 179.038 66.6305 166.135 67.7406 162.484C64.5481 164.592 53.9857 171.368 48.8587 172.134C38.6397 173.668 31.6058 171.744 25.9025 157.367C23.0758 150.246 26.3584 141.227 35.3972 131.286C42.3059 123.688 52.437 115.775 62.4956 110.117C79.5732 100.509 99.5978 102.035 99.7958 102.05L117.537 103.481C118.397 103.586 119.276 103.714 120.169 103.862C142.822 106.072 155.484 112.763 159.26 115.056C158.22 112.407 158.007 108.074 157.777 103.529C157.654 101.123 157.526 98.6346 157.276 96.4495C157.114 95.2162 157.223 93.9624 157.596 92.7757C157.969 91.589 158.596 90.4977 159.433 89.5782L159.566 89.428L159.764 89.4529C164.774 90.1026 169.638 91.5973 174.148 93.8733C181.076 97.3565 186.908 102.516 191.473 109.204L191.579 109.357L191.518 109.535C190.651 112.091 189.882 115.321 189.068 118.742C186.504 129.517 183.304 142.916 174.238 147.87C169.75 150.321 164.149 150.456 157.584 148.276C162.345 170.062 159.478 198.822 159.448 199.113L159.4 199.454ZM68.743 198.023L158.721 198.697C159.032 195.356 161.343 168.255 156.692 147.787L156.541 147.123L157.183 147.349C163.906 149.712 169.364 149.667 173.865 147.211C182.648 142.417 185.795 129.194 188.326 118.569C189.125 115.208 189.88 112.031 190.734 109.472C180.39 94.4372 165.856 91.0091 159.859 90.2248C159.134 91.0586 158.595 92.0369 158.276 93.0948C157.957 94.1527 157.866 95.2662 158.01 96.3617C158.26 98.5719 158.396 101.073 158.511 103.491C158.762 108.54 159.027 113.765 160.533 115.923L161.829 117.782L160.002 116.439C159.879 116.349 147.222 107.252 120.078 104.606H120.053C119.169 104.458 118.299 104.33 117.455 104.228L99.7307 102.799C99.5328 102.784 79.7311 101.281 62.859 110.771C45.586 120.486 20.4697 141.653 26.594 157.092C32.1446 171.075 38.6597 172.904 48.7434 171.393C54.5245 170.523 68.0888 161.344 68.2266 161.251L69.229 160.567L68.7804 161.703C68.7378 161.838 63.5433 175.397 68.743 198.025V198.023Z" fill="#1D1D1B"/>
</g>
<g id="Group_3">
<path id="Vector_16" d="M84.7755 76.2772C84.7755 76.2772 79.7788 85.5364 73.8925 80.4996C68.0062 75.4627 55.5144 64.5647 47.0595 72.8692C38.6047 81.1737 38.7574 83.667 31.2248 80.0761C23.6921 76.4851 4.14884 83.2786 14.2851 104.358C24.4214 125.437 93.6439 92.0191 93.6439 92.0191L95.2426 85.6968L84.7755 76.2772Z" fill="#382256"/>
<path id="Vector_17" d="M54.3014 69.8446C61.5685 69.8446 69.5396 76.7734 73.8923 80.4996C75.1452 81.5771 76.3681 82.0031 77.5058 82.0031C81.6856 82.0031 84.7728 76.2797 84.7728 76.2797L95.2398 85.6993L93.641 92.0216C93.641 92.0216 53.6322 111.337 29.9917 111.337C22.5367 111.337 16.7107 109.415 14.28 104.361C5.84274 86.8195 17.9711 79.1665 26.6164 79.1665C28.199 79.1309 29.7702 79.4423 31.2197 80.0787C33.4574 81.1462 35.0161 81.675 36.3242 81.675C39.4215 81.675 41.1128 78.7079 47.0542 72.8717C49.2569 70.7091 51.7328 69.8472 54.2963 69.8472L54.3014 69.8446ZM54.2963 69.0954C51.3293 69.0954 48.7157 70.1855 46.5281 72.3355C44.9393 73.8967 43.6763 75.2273 42.5637 76.4C39.707 79.4071 38.2738 80.9106 36.3242 80.9106C35.2141 80.9106 33.7832 80.4545 31.5429 79.387C29.9945 78.7092 28.3162 78.3791 26.6264 78.4198C22.3664 78.4198 16.1869 80.3092 12.8441 85.6292C10.674 89.0798 9.04766 95.1891 13.6159 104.691C15.9764 109.603 21.4919 112.094 30.0069 112.094C39.9001 112.094 53.6774 108.836 70.9555 102.388C83.7981 97.6022 93.8792 92.7534 93.9795 92.7033C94.0796 92.6548 94.1676 92.5847 94.2374 92.4981C94.3072 92.4114 94.3568 92.3103 94.3828 92.2021L95.9815 85.8772C96.0168 85.7433 96.0144 85.6023 95.9746 85.4696C95.9348 85.337 95.8593 85.2178 95.7561 85.1254L85.2865 75.7059C85.1489 75.582 84.9704 75.5133 84.7853 75.5129C84.7428 75.5092 84.7001 75.5092 84.6576 75.5129C84.5454 75.5322 84.439 75.5768 84.3465 75.6432C84.2541 75.7096 84.178 75.7962 84.1238 75.8964C84.0938 75.949 81.1944 81.2264 77.5158 81.2264C76.4658 81.2264 75.4159 80.7803 74.391 79.9058L74.1654 79.7128C69.8227 75.9941 61.7389 69.0703 54.3115 69.0703L54.2963 69.0954Z" fill="black"/>
</g>
<g id="Group_4">
<path id="Vector_18" d="M65.0918 99.845C65.0918 99.845 67.505 104.987 63.1673 114.945C58.8297 124.904 46.8165 112.086 46.8165 112.086L65.0918 99.845Z" fill="#FFCDB2"/>
<path id="Vector_19" d="M58.1529 119.11C52.9482 119.11 46.8165 112.635 46.5434 112.344L46.2399 112.021L65.2472 99.2913L65.4327 99.6872C65.5329 99.9052 67.8684 105.097 63.5107 115.098C62.5083 117.379 61.0448 118.702 59.1303 119.033C58.8073 119.086 58.4803 119.112 58.1529 119.11ZM47.4028 112.146C48.8011 113.545 54.6297 119.048 59.005 118.288C60.6513 118.003 61.937 116.827 62.8216 114.795C66.3448 106.711 65.3274 101.827 64.9014 100.424L47.4028 112.146Z" fill="#1D1E1B"/>
</g>
<g id="Group_5">
<path id="Vector_20" d="M62.4329 153.253C64.0768 148.143 70.4819 143.66 73.5917 132.935C76.7015 122.21 62.914 118.449 62.914 118.449L63.3878 114.88C63.3878 114.88 54.2939 117.502 44.546 110.646L41.8296 114.938C41.8296 114.938 30.4931 118.283 30.4254 127.969C30.3578 137.654 21.452 146.397 26.4963 157.716" fill="#07ACEE"/>
<path id="Vector_21" d="M26.5212 158.079C26.4445 158.085 26.3679 158.067 26.3019 158.028C26.2359 157.988 26.1839 157.929 26.1529 157.859C22.9704 150.714 25.2232 144.6 27.4058 138.686C28.754 135.033 30.0269 131.58 30.0519 127.956C30.1146 118.704 40.2759 115.053 41.579 114.62L44.2226 110.445C44.2503 110.401 44.2869 110.363 44.3301 110.334C44.3732 110.305 44.422 110.286 44.4732 110.277C44.5229 110.267 44.574 110.268 44.6235 110.278C44.673 110.288 44.7199 110.309 44.7615 110.337C54.2513 117.013 63.1948 114.544 63.2825 114.517C63.3429 114.501 63.4062 114.499 63.4673 114.513C63.5283 114.526 63.5853 114.554 63.6332 114.595C63.6802 114.635 63.7163 114.687 63.7382 114.745C63.76 114.804 63.767 114.866 63.7585 114.928L63.33 118.186C64.7734 118.632 70.6398 120.691 73.2209 125.292C74.5264 127.618 74.772 130.224 73.9526 133.043C72.0656 139.558 68.9632 143.803 66.4724 147.219C64.8385 149.456 63.4304 151.388 62.7914 153.373C62.7566 153.462 62.689 153.535 62.6024 153.576C62.5159 153.617 62.4167 153.624 62.3254 153.595C62.2342 153.565 62.1577 153.502 62.1115 153.418C62.0654 153.334 62.053 153.235 62.077 153.143C62.7511 151.043 64.1946 149.065 65.8635 146.775C68.3218 143.407 71.3765 139.215 73.2309 132.835C73.9827 130.216 73.7671 127.806 72.5667 125.663C69.8303 120.782 62.8865 118.835 62.8163 118.817C62.7289 118.793 62.6531 118.738 62.6029 118.663C62.5527 118.587 62.5315 118.496 62.5432 118.406L62.9441 115.371C60.8366 115.797 52.9581 116.855 44.6511 111.182L42.1453 115.143C42.0957 115.22 42.0214 115.276 41.9348 115.304C41.822 115.336 30.864 118.687 30.7988 127.966C30.7713 131.725 29.418 135.396 28.1074 138.952C25.9774 144.715 23.7772 150.694 26.8369 157.558C26.8574 157.603 26.8686 157.652 26.8702 157.702C26.8717 157.752 26.8634 157.801 26.8457 157.848C26.828 157.895 26.8013 157.937 26.7671 157.973C26.7329 158.01 26.692 158.039 26.6465 158.059C26.6061 158.072 26.5638 158.079 26.5212 158.079Z" fill="black"/>
</g>
<g id="Group_6">
<path id="Vector_22" d="M118.755 104.02C118.755 104.02 122.068 110.696 114.3 112.45C106.531 114.204 105.028 110.194 105.028 110.194C105.028 110.194 99.7655 115.206 95.0044 110.946C90.2432 106.686 96.0067 102.176 96.0067 102.176L118.755 104.02Z" fill="white"/>
<path id="Vector_23" d="M110.671 113.272C106.96 113.272 105.444 111.613 104.907 110.783C103.587 111.843 98.9661 115.001 94.7462 111.224C93.3655 109.989 92.6914 108.606 92.7415 107.115C92.8367 104.205 95.6508 101.973 95.7711 101.877C95.8431 101.823 95.9316 101.796 96.0217 101.8L118.77 103.644C118.834 103.65 118.896 103.672 118.95 103.709C119.003 103.745 119.046 103.794 119.076 103.852C119.136 103.975 120.549 106.882 119.326 109.478C118.542 111.129 116.876 112.252 114.377 112.816C113.162 113.104 111.919 113.257 110.671 113.272ZM105.028 109.819C105.056 109.816 105.085 109.816 105.113 109.819C105.173 109.833 105.23 109.862 105.276 109.903C105.323 109.944 105.359 109.996 105.381 110.054C105.439 110.202 106.905 113.725 114.217 112.074C116.472 111.573 117.976 110.57 118.65 109.152C119.562 107.238 118.773 105.022 118.502 104.368L96.1296 102.554C95.6284 102.985 93.5711 104.879 93.4984 107.135C93.4583 108.388 94.0497 109.578 95.2525 110.658C99.6954 114.632 104.562 110.109 104.775 109.906C104.845 109.846 104.936 109.815 105.028 109.819Z" fill="black"/>
</g>
<g id="Group_7">
<path id="Vector_24" d="M99.9986 63.3342C105.223 63.3342 109.458 59.0989 109.458 53.8745C109.458 48.65 105.223 44.4148 99.9986 44.4148C94.7741 44.4148 90.5389 48.65 90.5389 53.8745C90.5389 59.0989 94.7741 63.3342 99.9986 63.3342Z" fill="#382256"/>
<path id="Vector_25" d="M99.9886 44.4127C102.266 44.4097 104.469 45.2285 106.192 46.7187C107.914 48.209 109.042 50.2707 109.367 52.5252C109.691 54.7798 109.192 57.0759 107.96 58.9919C106.729 60.908 104.847 62.3153 102.661 62.9556C100.475 63.5959 98.1313 63.4261 96.0604 62.4774C93.9895 61.5287 92.3304 59.8648 91.3876 57.7912C90.4448 55.7177 90.2816 53.3736 90.928 51.1894C91.5745 49.0053 92.9873 47.1275 94.9069 45.9012C96.4245 44.931 98.1874 44.4146 99.9886 44.4127ZM99.9886 43.6609C97.7217 43.663 95.5201 44.4193 93.7305 45.8107C91.9409 47.2021 90.6649 49.1494 90.1041 51.3458C89.5432 53.5422 89.7292 55.8629 90.6327 57.942C91.5361 60.0211 93.1055 61.7404 95.0938 62.8291C97.0821 63.9178 99.3764 64.314 101.615 63.9551C103.853 63.5963 105.908 62.5027 107.457 60.847C109.005 59.1913 109.958 57.0674 110.167 54.8101C110.375 52.5528 109.826 50.2905 108.606 48.3795C107.684 46.9303 106.411 45.7378 104.904 44.9129C103.397 44.0879 101.706 43.6572 99.9886 43.6609Z" fill="black"/>
</g>
<g id="Group_8">
<path id="Vector_26" d="M76.6838 85.8021C76.6838 85.8021 69.5622 80.7904 71.7523 74.6284C73.9424 68.4665 75.5261 68.8173 76.4658 65.4945C77.4055 62.1717 82.8107 58.3853 88.1984 59.3651C88.1984 59.3651 94.1924 53.8397 100.227 54.7543C106.261 55.6689 108.586 58.2625 110.726 62.6754C112.866 67.0882 114.736 68.9577 116.347 72.0123C117.958 75.067 120.79 83.8175 108.99 91.6809C97.1894 99.5444 76.6838 85.8021 76.6838 85.8021Z" fill="#382256"/>
<path id="Vector_27" d="M98.841 54.6514C99.3023 54.6508 99.763 54.6852 100.219 54.7542C106.233 55.6689 108.579 58.2624 110.719 62.6753C112.859 67.0881 114.728 68.9576 116.34 72.0122C117.951 75.0669 120.783 83.8174 108.982 91.6808C106.359 93.4349 103.302 94.1116 100.139 94.1116C89.0782 94.1116 76.684 85.802 76.684 85.802C76.684 85.802 69.5624 80.7903 71.7525 74.6284C73.9426 68.4664 75.5262 68.8172 76.4659 65.4944C77.3029 62.5375 81.6807 59.2072 86.4344 59.2072C87.0227 59.2071 87.6097 59.2599 88.1885 59.365C88.1885 59.365 93.3029 54.6514 98.8309 54.6514H98.841ZM98.8309 53.8997C93.759 53.8997 89.1333 57.5608 87.958 58.5657C87.4501 58.4924 86.9375 58.4555 86.4244 58.4554C81.2648 58.4554 76.6515 62.0588 75.7318 65.2914C75.3509 66.6396 74.8724 67.2962 74.2133 68.2058C73.3538 69.3861 72.2862 70.8545 71.0333 74.3752C70.051 77.1317 70.6549 80.1137 72.7874 82.9729C73.7678 84.2815 74.9326 85.4413 76.2455 86.416C78.7018 88.0018 81.2686 89.4095 83.9261 90.6284C88.0833 92.5555 94.2679 94.8533 100.119 94.8533C103.72 94.8533 106.835 93.9937 109.391 92.2973C114.653 88.789 117.698 84.697 118.412 80.1513C118.858 77.2382 118.358 74.2586 116.984 71.6514C116.311 70.4146 115.568 69.2164 114.761 68.0629C113.485 66.2453 112.353 64.3308 111.375 62.337C109.17 57.7863 106.654 54.9622 100.312 53.9999C99.8184 53.9262 99.3199 53.8894 98.8209 53.8896L98.8309 53.8997Z" fill="black"/>
</g>
<path id="Vector_28" d="M99.2469 77.1192C99.1473 77.1235 99.0501 77.088 98.9765 77.0206C98.903 76.9532 98.8592 76.8593 98.8549 76.7596C98.8506 76.6599 98.8858 76.5626 98.9533 76.4891C99.0207 76.4155 99.1147 76.3718 99.2144 76.3674C103.114 76.0191 106.71 71.6363 106.747 71.5912C106.778 71.5529 106.817 71.521 106.86 71.4975C106.903 71.474 106.951 71.4593 107 71.4542C107.049 71.4491 107.099 71.4536 107.146 71.4676C107.193 71.4817 107.237 71.5049 107.276 71.536C107.314 71.5671 107.346 71.6056 107.37 71.649C107.393 71.6924 107.408 71.74 107.413 71.7891C107.418 71.8382 107.413 71.8877 107.399 71.9351C107.385 71.9824 107.362 72.0265 107.331 72.0649C107.175 72.2553 103.5 76.7383 99.2822 77.1166L99.2469 77.1192Z" fill="black"/>
<path id="Vector_29" d="M99.3348 74.4103C92.7393 74.4103 89.8724 67.5092 89.8399 67.429C89.8076 67.3377 89.812 67.2374 89.8519 67.1492C89.8917 67.0609 89.9642 66.9914 90.054 66.9552C90.1438 66.919 90.244 66.9189 90.3339 66.9549C90.4239 66.9908 90.4965 67.0601 90.5366 67.1483C90.6769 67.4891 94.0046 75.4653 101.973 73.2851C102.067 73.2645 102.166 73.2809 102.248 73.3308C102.331 73.3807 102.391 73.4603 102.416 73.5532C102.442 73.6462 102.431 73.7454 102.385 73.8302C102.339 73.9151 102.263 73.9792 102.171 74.0094C101.248 74.2695 100.294 74.4044 99.3348 74.4103Z" fill="white"/>
<path id="Vector_30" d="M109.321 44.891C109.243 44.8913 109.167 44.8673 109.103 44.8224C109.039 44.7775 108.991 44.714 108.965 44.6404C108.261 42.6608 107.108 41.28 105.537 40.5383C102.725 39.2102 99.4699 40.3629 99.4373 40.3754C99.3457 40.4006 99.2481 40.3901 99.1639 40.3462C99.0798 40.3022 99.0153 40.228 98.9836 40.1385C98.9518 40.049 98.9552 39.9509 98.9929 39.8637C99.0306 39.7766 99.0997 39.7068 99.1867 39.6687C99.332 39.6161 102.76 38.3982 105.86 39.8566C107.614 40.6836 108.907 42.2097 109.682 44.3898C109.698 44.4364 109.705 44.4858 109.703 44.5352C109.701 44.5846 109.689 44.6331 109.667 44.6778C109.646 44.7224 109.616 44.7624 109.579 44.7956C109.543 44.8287 109.5 44.8544 109.453 44.871C109.41 44.8842 109.366 44.891 109.321 44.891Z" fill="black"/>
<path id="Vector_31" d="M106.261 51.2736C106.193 51.2733 106.126 51.2547 106.068 51.2199C106.01 51.1851 105.962 51.1352 105.93 51.0756C104.872 49.1135 103.512 47.9208 101.883 47.5274C99.2218 46.8884 96.6884 48.6074 96.6633 48.6249C96.5815 48.6757 96.4833 48.6931 96.389 48.6736C96.2947 48.6541 96.2115 48.5991 96.1565 48.5201C96.1015 48.441 96.0788 48.3439 96.0934 48.2487C96.1079 48.1535 96.1587 48.0675 96.2348 48.0085C96.3501 47.9283 99.0589 46.0789 102.051 46.7956C103.9 47.2391 105.426 48.5498 106.592 50.7174C106.623 50.7747 106.639 50.8391 106.638 50.9044C106.636 50.9698 106.618 51.0337 106.585 51.0898C106.551 51.146 106.504 51.1924 106.447 51.2247C106.39 51.2569 106.326 51.2738 106.261 51.2736Z" fill="white"/>
<g id="Group_9">
<path id="Vector_32" d="M95.5809 98.7172V102.476C95.5809 102.476 102.096 112.249 114.626 104.23C114.626 104.23 108.479 95.397 105.188 84.9124C105.188 84.9124 109.827 83.6594 108.875 79.4997C107.922 75.3399 104.514 74.7986 102.58 76.034C102.58 76.034 95.0622 81.8502 86.3167 66.0105C86.3167 66.0105 78.2101 69.827 76.9246 78.4698C75.639 87.1126 77.8318 96.9381 84.5401 99.4565C91.2483 101.975 95.5809 98.7172 95.5809 98.7172Z" fill="#FFCDB2"/>
<path id="Vector_33" d="M86.3165 66.0084C91.3634 75.1448 95.9967 77.0768 99.0162 77.0768C100.283 77.1026 101.527 76.7387 102.58 76.0343C103.19 75.6518 103.897 75.4502 104.617 75.453C106.341 75.453 108.208 76.5932 108.877 79.5C109.829 83.6522 105.191 84.9127 105.191 84.9127C108.481 95.3973 114.628 104.23 114.628 104.23C110.982 106.563 107.847 107.39 105.231 107.39C98.8583 107.39 95.5831 102.476 95.5831 102.476V98.7176C95.5831 98.7176 93.3278 100.411 89.569 100.411C87.8543 100.398 86.1563 100.074 84.5573 99.4543C77.849 96.9484 75.6565 87.1103 76.942 78.4675C78.2275 69.8247 86.3339 66.0084 86.3339 66.0084H86.3165ZM86.3339 65.2566C86.2236 65.2561 86.1149 65.2809 86.0158 65.3292C84.4062 66.1541 82.9221 67.2038 81.608 68.4466C78.621 71.2256 76.7491 74.6536 76.1978 78.3573C75.5137 82.9706 75.8094 87.6291 77.0347 91.4856C78.443 95.906 80.9514 98.9055 84.3018 100.158C85.9871 100.807 87.7758 101.147 89.5818 101.161C91.3995 101.172 93.197 100.78 94.8441 100.011V102.476C94.8435 102.625 94.8871 102.771 94.9694 102.895C95.1122 103.108 98.5453 108.142 105.243 108.142C108.348 108.142 111.646 107.04 115.044 104.864C115.129 104.81 115.203 104.739 115.26 104.655C115.317 104.572 115.357 104.478 115.376 104.379C115.396 104.279 115.396 104.177 115.375 104.078C115.355 103.979 115.315 103.885 115.257 103.802C115.197 103.717 109.406 95.3221 106.14 85.3713C106.761 85.1112 107.344 84.768 107.872 84.3513C109.476 83.0658 110.08 81.3292 109.626 79.3396C108.844 75.9266 106.536 74.7087 104.637 74.7087C103.774 74.7074 102.928 74.9497 102.196 75.4079L102.141 75.448C101.216 76.0437 100.136 76.3515 99.0363 76.3325C96.2347 76.3325 91.872 74.4806 87.0081 65.6524C86.943 65.5346 86.8475 65.4365 86.7316 65.3682C86.6156 65.2999 86.4836 65.2639 86.3491 65.2641L86.3339 65.2566Z" fill="black"/>
</g>
<path id="Vector_34" d="M95.4556 99.4691C95.3666 99.4689 95.2806 99.4372 95.2128 99.3795C95.145 99.3218 95.1 99.2419 95.0855 99.1541C95.0711 99.0663 95.0883 98.9763 95.134 98.9C95.1797 98.8237 95.2512 98.7661 95.3354 98.7374C98.9263 97.5396 101.653 93.5852 101.68 93.5451C101.708 93.5043 101.744 93.4694 101.785 93.4424C101.826 93.4153 101.872 93.3966 101.921 93.3874C101.969 93.3782 102.019 93.3787 102.068 93.3888C102.116 93.3988 102.162 93.4184 102.203 93.4462C102.243 93.474 102.278 93.5096 102.305 93.5509C102.332 93.5922 102.351 93.6384 102.36 93.687C102.37 93.7355 102.369 93.7853 102.359 93.8337C102.349 93.882 102.33 93.9278 102.302 93.9686C102.186 94.139 99.4073 98.171 95.5733 99.449C95.5355 99.4627 95.4957 99.4695 95.4556 99.4691Z" fill="black"/>
<path id="Vector_35" d="M105.075 82.9804C105.013 82.98 104.952 82.9645 104.898 82.9353C104.811 82.8885 104.747 82.8099 104.718 82.7162C104.689 82.6226 104.698 82.5214 104.742 82.4341C105.472 81.0684 105.632 80.0084 105.216 79.2842C104.627 78.2543 103.023 78.1765 103.008 78.1765C102.909 78.172 102.815 78.1285 102.747 78.0553C102.68 77.9821 102.644 77.8853 102.647 77.7857C102.651 77.6865 102.694 77.5927 102.767 77.5251C102.84 77.4575 102.936 77.4214 103.036 77.4248C103.118 77.4248 105.068 77.515 105.867 78.9058C106.421 79.8706 106.266 81.1786 105.406 82.7899C105.373 82.8481 105.325 82.8964 105.267 82.9299C105.209 82.9633 105.143 82.9808 105.075 82.9804Z" fill="black"/>
<path id="Vector_36" d="M86.6772 78.773C91.5361 79.1388 97.6229 76.2069 98.956 77.743C100.289 79.2791 99.753 81.6546 97.2697 82.5618C94.7864 83.4689 92.2379 83.732 86.9831 84.0277C81.7283 84.3234 76.561 84.2182 76.7765 81.359C76.992 78.4998 79.5304 78.2317 86.6772 78.773Z" fill="#FFB49F"/>
<path id="Vector_37" d="M80.7885 76.4653C80.7169 76.4651 80.6469 76.4444 80.5866 76.4057C80.5263 76.3671 80.4784 76.312 80.4483 76.2469C80.4183 76.1819 80.4076 76.1096 80.4173 76.0387C80.4269 75.9677 80.4566 75.901 80.5029 75.8463C80.5706 75.7686 82.1493 73.9494 84.2617 74.0922C84.3614 74.0995 84.4541 74.1461 84.5194 74.2218C84.5847 74.2975 84.6173 74.3959 84.61 74.4956C84.6027 74.5953 84.5562 74.6881 84.4805 74.7534C84.4049 74.8188 84.3064 74.8513 84.2067 74.844C82.4676 74.7137 81.0818 76.3124 81.0667 76.3274C81.0332 76.3693 80.991 76.4034 80.9429 76.4272C80.8949 76.451 80.8421 76.464 80.7885 76.4653Z" fill="black"/>
<path id="Vector_38" d="M86.1789 87.5211C86.1531 87.5237 86.1269 87.5237 86.1011 87.5211C86.0527 87.511 86.0068 87.4914 85.966 87.4635C85.9252 87.4355 85.8902 87.3999 85.8632 87.3585C85.8362 87.317 85.8177 87.2707 85.8087 87.222C85.7996 87.1734 85.8001 87.1235 85.8104 87.0751L87.4091 79.3619C87.4191 79.3136 87.4388 79.2677 87.4666 79.2268C87.4944 79.186 87.5298 79.1511 87.5711 79.1239C87.6124 79.0968 87.6586 79.0781 87.7072 79.0689C87.7557 79.0596 87.8056 79.0601 87.854 79.0701C87.9024 79.0801 87.9482 79.0996 87.9891 79.1274C88.0299 79.1552 88.065 79.1907 88.0921 79.232C88.1192 79.2733 88.1379 79.3195 88.1472 79.368C88.1564 79.4166 88.156 79.4665 88.1459 79.5149L86.5448 87.2279C86.5264 87.3112 86.4802 87.3858 86.4136 87.4391C86.347 87.4925 86.2642 87.5214 86.1789 87.5211Z" fill="black"/>
<g id="Group_10">
<path id="Vector_39" d="M107.098 86.2078C107.953 86.2078 108.646 85.5144 108.646 84.6592C108.646 83.8039 107.953 83.1106 107.098 83.1106C106.243 83.1106 105.549 83.8039 105.549 84.6592C105.549 85.5144 106.243 86.2078 107.098 86.2078Z" fill="#07ACEE"/>
<path id="Vector_40" d="M107.095 83.1109C107.43 83.1106 107.757 83.219 108.025 83.4199C108.293 83.6208 108.489 83.9033 108.583 84.225C108.677 84.5467 108.664 84.8902 108.546 85.204C108.429 85.5177 108.212 85.7848 107.93 85.965C107.584 86.1858 107.164 86.2601 106.763 86.1718C106.363 86.0835 106.013 85.8397 105.792 85.4939C105.571 85.1476 105.497 84.7277 105.585 84.3265C105.673 83.9253 105.917 83.5755 106.263 83.3539C106.511 83.1921 106.8 83.1051 107.095 83.1033V83.1109ZM107.095 82.3516C106.585 82.3526 106.09 82.5232 105.688 82.8366C105.285 83.15 104.999 83.5882 104.873 84.0824C104.747 84.5766 104.789 85.0988 104.993 85.5664C105.196 86.034 105.549 86.4206 105.997 86.6654C106.444 86.9102 106.96 86.9991 107.464 86.9183C107.967 86.8375 108.43 86.5915 108.778 86.219C109.126 85.8466 109.341 85.3687 109.388 84.8609C109.435 84.3531 109.311 83.8441 109.037 83.4141C108.829 83.0878 108.542 82.8193 108.203 82.6336C107.863 82.4479 107.482 82.3508 107.095 82.3516Z" fill="black"/>
</g>
<path id="Vector_41" d="M94.6812 81.2439C95.1656 81.2439 95.5583 80.8512 95.5583 80.3668C95.5583 79.8824 95.1656 79.4897 94.6812 79.4897C94.1968 79.4897 93.8041 79.8824 93.8041 80.3668C93.8041 80.8512 94.1968 81.2439 94.6812 81.2439Z" fill="black"/>
<path id="Vector_42" d="M81.8535 82.1259C82.3379 82.1259 82.7306 81.7333 82.7306 81.2489C82.7306 80.7645 82.3379 80.3718 81.8535 80.3718C81.3691 80.3718 80.9764 80.7645 80.9764 81.2489C80.9764 81.7333 81.3691 82.1259 81.8535 82.1259Z" fill="black"/>
<path id="Vector_43" d="M90.777 93.7909C90.48 93.7896 90.1844 93.75 89.8975 93.6732C89.8012 93.6469 89.719 93.5834 89.6694 93.4967C89.6199 93.41 89.6067 93.3072 89.633 93.2108C89.6592 93.1144 89.7227 93.0324 89.8094 92.9828C89.8961 92.9333 89.9991 92.9202 90.0955 92.9465C92.5237 93.603 94.1473 90.408 94.1649 90.3754C94.1844 90.3275 94.2137 90.2842 94.2508 90.2481C94.2878 90.2121 94.3319 90.184 94.3802 90.1657C94.4286 90.1474 94.4801 90.1393 94.5317 90.1418C94.5833 90.1444 94.6339 90.1576 94.6802 90.1806C94.7265 90.2036 94.7676 90.2359 94.8009 90.2754C94.8341 90.315 94.8589 90.361 94.8736 90.4105C94.8882 90.4601 94.8924 90.5122 94.886 90.5635C94.8797 90.6148 94.8629 90.6642 94.8366 90.7087C94.7865 90.849 93.2829 93.7909 90.777 93.7909Z" fill="black"/>
<path id="Vector_44" d="M89.8548 74.3403C89.761 74.3382 89.6714 74.3005 89.6042 74.235C89.5324 74.1662 89.4906 74.072 89.4878 73.9725C89.4849 73.8731 89.5213 73.7766 89.5891 73.7038C89.7144 73.5735 90.8422 72.4333 91.8896 72.8017C91.984 72.8349 92.0613 72.9043 92.1045 72.9945C92.1477 73.0848 92.1534 73.1884 92.1202 73.2828C92.0869 73.3772 92.0176 73.4544 91.9273 73.4977C91.8371 73.5409 91.7334 73.5466 91.639 73.5133C91.1379 73.3329 90.3636 73.9819 90.1355 74.2225C90.0994 74.2605 90.0558 74.2906 90.0075 74.3109C89.9592 74.3311 89.9072 74.3412 89.8548 74.3403Z" fill="black"/>
<path id="Vector_45" d="M42.1379 115.188C42.1129 115.163 44.7089 111.119 44.7089 111.119C54.4568 117.975 63.0018 115.279 63.0018 115.279L62.6284 118.854L62.7062 118.694C62.7062 118.694 53.8229 126.001 42.1379 115.188Z" fill="#0598C6"/>
<path id="Vector_46" d="M130.971 118.747C132.098 118.747 133.011 117.834 133.011 116.707C133.011 115.581 132.098 114.667 130.971 114.667C129.845 114.667 128.931 115.581 128.931 116.707C128.931 117.834 129.845 118.747 130.971 118.747Z" fill="#51CEF4"/>
<path id="Vector_47" d="M171.066 137.29C172.192 137.29 173.105 136.377 173.105 135.251C173.105 134.124 172.192 133.211 171.066 133.211C169.939 133.211 169.026 134.124 169.026 135.251C169.026 136.377 169.939 137.29 171.066 137.29Z" fill="#51CEF4"/>
<path id="Vector_48" d="M167.307 104.714C168.433 104.714 169.346 103.801 169.346 102.674C169.346 101.548 168.433 100.634 167.307 100.634C166.18 100.634 165.267 101.548 165.267 102.674C165.267 103.801 166.18 104.714 167.307 104.714Z" fill="#51CEF4"/>
<g id="Group_11">
<g id="Group_12">
<path id="Vector_49" d="M74.8439 91.394L73.1651 89.5438C72.5224 88.8356 71.4273 88.7825 70.7191 89.4251L44.7846 112.958C44.0764 113.6 44.0233 114.695 44.6659 115.403L46.3447 117.254C46.9873 117.962 48.0824 118.015 48.7906 117.372L74.7251 93.84C75.4333 93.1974 75.4865 92.1022 74.8439 91.394Z" fill="white"/>
<path id="Vector_50" d="M47.7609 118.165H47.6557C47.3792 118.153 47.1078 118.086 46.8575 117.969C46.6071 117.851 46.3827 117.684 46.1972 117.479L44.5185 115.627C44.1433 115.213 43.9475 114.667 43.9742 114.109C44.001 113.551 44.248 113.026 44.6611 112.65L70.597 89.1147C71.0112 88.7406 71.5567 88.5458 72.1142 88.5731C72.6717 88.6003 73.1957 88.8473 73.5715 89.26L75.2529 91.1119C75.4388 91.3167 75.5825 91.5562 75.6758 91.8165C75.7691 92.0769 75.8102 92.353 75.7967 92.6292C75.7832 92.9055 75.7155 93.1764 75.5972 93.4264C75.479 93.6764 75.3125 93.9007 75.1076 94.0864L49.1717 117.622C48.7866 117.974 48.2829 118.168 47.7609 118.165ZM72.0129 89.3202C71.6758 89.3194 71.3506 89.4445 71.1009 89.671L45.1699 113.204C44.9038 113.445 44.7446 113.783 44.7272 114.142C44.7098 114.501 44.8357 114.852 45.0772 115.118L46.7561 116.97C46.8756 117.102 47.02 117.209 47.181 117.285C47.3419 117.362 47.5163 117.405 47.6941 117.414C47.872 117.422 48.0498 117.396 48.2173 117.336C48.3849 117.275 48.5389 117.183 48.6705 117.063L74.6064 93.5276C74.8713 93.2852 75.0298 92.9481 75.0471 92.5895C75.0645 92.2308 74.9394 91.8798 74.6991 91.613L73.0177 89.7637C72.891 89.623 72.736 89.5108 72.5628 89.4343C72.3896 89.3579 72.2022 89.319 72.0129 89.3202Z" fill="#1D1E1B"/>
</g>
<g id="Group_13">
<path id="Vector_51" d="M90.91 83.3263L89.3913 82.9755C89.3444 82.9635 89.2968 82.9551 89.2486 82.9504C89.2541 81.5718 88.975 80.2069 88.4291 78.941L89.5443 78.1567C89.7968 77.9786 89.9683 77.7074 90.021 77.4029C90.0736 77.0984 90.0031 76.7855 89.8249 76.5329L88.4115 74.5282C88.2329 74.2762 87.9618 74.1051 87.6575 74.0525C87.3532 73.9999 87.0406 74.0701 86.7878 74.2475L85.5549 75.117C84.916 74.5921 84.2149 74.1478 83.4675 73.794L83.7856 72.4182C83.8202 72.2693 83.825 72.115 83.7998 71.9642C83.7747 71.8134 83.72 71.6692 83.639 71.5395C83.558 71.4099 83.4525 71.2975 83.328 71.2088C83.2035 71.1201 83.0627 71.0567 82.9137 71.0224L80.5206 70.4661C80.3716 70.4315 80.2172 70.4268 80.0662 70.4519C79.9153 70.477 79.7707 70.5316 79.6409 70.6125C79.5111 70.6935 79.3983 70.7993 79.3093 70.9238C79.2203 71.0483 79.1569 71.1892 79.1223 71.3382L78.7766 72.8292C77.7639 72.8659 76.7626 73.056 75.8069 73.393L74.9299 72.14C74.8419 72.0151 74.7304 71.9087 74.6012 71.8269C74.4721 71.7452 74.328 71.6897 74.1774 71.6636C74.0268 71.6375 73.8728 71.6415 73.7237 71.6751C73.5746 71.7087 73.4335 71.7712 73.3087 71.8594L71.304 73.2753C71.0517 73.453 70.8803 73.7233 70.8272 74.0273C70.7742 74.3312 70.8438 74.6438 71.0208 74.8965L71.7951 75.9941C71.0949 76.7362 70.5127 77.5813 70.0686 78.4999L68.6251 78.1642C68.476 78.1296 68.3216 78.1248 68.1706 78.1499C68.0197 78.175 67.8752 78.2297 67.7453 78.3107C67.6155 78.3916 67.5029 78.4973 67.414 78.6218C67.325 78.7463 67.2613 78.8872 67.2268 79.0362L66.673 81.4293C66.6031 81.73 66.6555 82.0463 66.8186 82.3084C66.9816 82.5706 67.2421 82.7573 67.5427 82.8276L69.0462 83.1759C69.0733 84.2514 69.272 85.3157 69.635 86.3284L68.4046 87.1954C68.2796 87.2834 68.1733 87.395 68.0916 87.5242C68.0098 87.6533 67.9542 87.7973 67.9281 87.9479C67.902 88.0985 67.906 88.2526 67.9396 88.4017C67.9732 88.5508 68.0358 88.6919 68.1239 88.8167L69.5398 90.8214C69.6278 90.9464 69.7396 91.0528 69.8687 91.1346C69.9978 91.2163 70.1417 91.2717 70.2923 91.2978C70.4429 91.3239 70.5972 91.32 70.7462 91.2864C70.8953 91.2528 71.0362 91.1901 71.161 91.102L72.2686 90.3227C73.0065 91.0086 73.8428 91.5804 74.7495 92.0192C74.7397 92.048 74.7314 92.0773 74.7246 92.1069L74.3712 93.628C74.3367 93.777 74.3316 93.9314 74.3568 94.0824C74.3819 94.2333 74.4366 94.3779 74.5175 94.5077C74.5985 94.6376 74.7043 94.7502 74.8288 94.8392C74.9533 94.9281 75.0941 94.9917 75.2431 95.0263L77.6389 95.58C77.7878 95.6146 77.942 95.6194 78.0928 95.5942C78.2436 95.5691 78.3878 95.5145 78.5174 95.4335C78.6471 95.3525 78.7595 95.2467 78.8483 95.1222C78.937 94.9977 79.0002 94.857 79.0345 94.708L79.3879 93.1894C79.3999 93.1349 79.4084 93.0796 79.4131 93.024C80.5589 92.9945 81.691 92.7692 82.7608 92.3575C82.7807 92.3921 82.8024 92.4255 82.8259 92.4577L83.723 93.7332C83.9011 93.9857 84.1724 94.1573 84.4769 94.2099C84.7815 94.2625 85.0944 94.192 85.3469 94.0139L87.3516 92.5981C87.6034 92.42 87.7745 92.1494 87.8271 91.8455C87.8797 91.5415 87.8096 91.2291 87.6323 90.9767L86.7327 89.7013L86.6875 89.6411C87.2477 89.0146 87.7268 88.32 88.1134 87.5737C88.1757 87.601 88.2401 87.6229 88.3062 87.6389L89.8274 87.9897C89.9765 88.0243 90.1309 88.0292 90.2818 88.004C90.4328 87.9789 90.5773 87.9242 90.7071 87.8433C90.837 87.7623 90.9495 87.6566 91.0385 87.5321C91.1275 87.4076 91.1911 87.2668 91.2257 87.1177L91.7795 84.7246C91.8493 84.4239 91.7969 84.1078 91.6339 83.8456C91.4708 83.5834 91.2106 83.3967 90.91 83.3263ZM77.541 89.9368C76.1499 89.6143 74.8859 88.8865 73.9085 87.8455C72.931 86.8044 72.2841 85.497 72.0498 84.0884C71.8156 82.6797 72.0043 81.2332 72.5921 79.9319C73.18 78.6305 74.1407 77.5328 75.3525 76.7774C76.5643 76.022 77.9728 75.6428 79.4001 75.688C80.8274 75.7332 82.209 76.2007 83.3706 77.0313C84.5322 77.8619 85.4213 79.0183 85.9257 80.3543C86.43 81.6902 86.5269 83.1457 86.2039 84.5367C85.9909 85.4611 85.5979 86.3344 85.0471 87.1067C84.4964 87.879 83.7986 88.5351 82.994 89.0376C82.1894 89.5401 81.2938 89.8791 80.3582 90.0351C79.4225 90.1911 78.4651 90.1611 77.541 89.9468V89.9368Z" fill="white"/>
<path id="Vector_52" d="M77.8994 95.9858C77.7822 95.9861 77.6651 95.9726 77.551 95.9457L75.1555 95.3919C74.7581 95.2983 74.4138 95.0513 74.1979 94.7049C73.9819 94.3584 73.9117 93.9406 74.0026 93.5426L74.3109 92.2194C73.5645 91.8334 72.8677 91.358 72.236 90.8036L71.3766 91.41C71.0421 91.6447 70.6282 91.7372 70.2257 91.6672C69.8231 91.5972 69.4646 91.3705 69.229 91.0367L67.8157 89.032C67.6999 88.8664 67.6179 88.6795 67.5749 88.482C67.5319 88.2846 67.5287 88.0805 67.5651 87.8817C67.5991 87.6813 67.6724 87.4896 67.7807 87.3176C67.8891 87.1455 68.0303 86.9965 68.1965 86.8794L69.1989 86.1753C68.9123 85.2995 68.7437 84.3893 68.6977 83.4689L67.4699 83.1858C67.0725 83.0934 66.7281 82.8469 66.5124 82.5006C66.2967 82.1542 66.2274 81.7364 66.3198 81.3389L66.8736 78.9433C66.966 78.5452 67.2127 78.2002 67.5595 77.984C67.9063 77.7678 68.3248 77.6984 68.7229 77.7907L69.8779 78.0588C70.272 77.3031 70.7586 76.5994 71.3264 75.9639L70.7276 75.1118C70.611 74.9466 70.5281 74.7601 70.4836 74.5629C70.4392 74.3657 70.434 74.1617 70.4684 73.9625C70.5029 73.7633 70.5762 73.5728 70.6843 73.402C70.7924 73.2311 70.9331 73.0833 71.0983 72.9669L73.103 71.5509C73.4375 71.3163 73.8514 71.2239 74.2539 71.2939C74.6565 71.3639 75.015 71.5906 75.2507 71.9244L75.9647 72.9392C76.7829 72.6762 77.6306 72.5156 78.4882 72.4607L78.7689 71.2453C78.8619 70.8476 79.1087 70.5029 79.4553 70.2869C79.802 70.0708 80.2202 70.0009 80.6182 70.0926L83.0113 70.6489C83.2085 70.6941 83.3947 70.7777 83.5595 70.8951C83.7242 71.0125 83.8642 71.1612 83.9713 71.3328C84.0784 71.5044 84.1507 71.6955 84.1837 71.895C84.2168 72.0946 84.2102 72.2987 84.1641 72.4957L83.9136 73.5807C84.5018 73.8801 85.0603 74.2342 85.5823 74.6383L86.5846 73.9315C86.9187 73.697 87.3324 73.6046 87.7345 73.6746C88.1367 73.7446 88.4946 73.9713 88.7298 74.305L90.1457 76.3097C90.3805 76.6435 90.4732 77.0567 90.4036 77.4589C90.3341 77.861 90.1079 78.2191 89.7747 78.4547L88.9052 79.0686C89.3578 80.2046 89.6047 81.412 89.6345 82.6344L91.0076 82.9527C91.4053 83.0457 91.7501 83.2926 91.9661 83.6392C92.1822 83.9859 92.2518 84.4041 92.1602 84.8021L91.6064 87.1952C91.514 87.5933 91.2673 87.9383 90.9205 88.1545C90.5737 88.3706 90.1552 88.4402 89.7571 88.3479L88.3138 88.0146C87.99 88.597 87.6108 89.1466 87.1812 89.6559L87.9531 90.751C88.1886 91.085 88.2818 91.4988 88.2122 91.9015C88.1427 92.3043 87.916 92.6629 87.5821 92.8985L85.5774 94.3144C85.4121 94.4309 85.2253 94.5135 85.028 94.5578C84.8307 94.6021 84.6267 94.607 84.4275 94.5724C84.2282 94.5377 84.0378 94.4641 83.8671 94.3558C83.6963 94.2475 83.5487 94.1065 83.4324 93.941L82.6305 92.8033C81.6995 93.1309 80.7266 93.325 79.7412 93.3797L79.4155 94.7855C79.3377 95.1286 79.1448 95.4347 78.869 95.653C78.5932 95.8714 78.2512 95.9888 77.8994 95.9858ZM72.2987 89.8388L72.5218 90.0469C73.232 90.7074 74.0367 91.2581 74.9098 91.6807L75.2029 91.821L75.1053 92.1318C75.0983 92.1515 75.0924 92.1715 75.0877 92.1919L74.7394 93.7055C74.6929 93.9095 74.729 94.1236 74.8398 94.3011C74.9506 94.4786 75.1272 94.6049 75.3309 94.6526L77.724 95.2065C77.9277 95.2539 78.1418 95.2183 78.3194 95.1079C78.497 94.9975 78.6236 94.8212 78.6713 94.6176L79.0244 93.0965C79.0244 93.0589 79.0245 93.0214 79.042 92.9838L79.0697 92.6479H79.4054C80.509 92.6183 81.5996 92.4015 82.6305 92.0065L82.9313 91.8887L83.0916 92.1718L83.1341 92.2421L84.0337 93.5151C84.0932 93.5997 84.1688 93.6718 84.2562 93.7272C84.3435 93.7826 84.441 93.8202 84.543 93.8379C84.6449 93.8555 84.7494 93.853 84.8503 93.8303C84.9513 93.8075 85.0467 93.7651 85.1313 93.7055L87.136 92.2921C87.2207 92.2324 87.2929 92.1565 87.3484 92.0689C87.4038 91.9813 87.4415 91.8837 87.4592 91.7815C87.4769 91.6794 87.4742 91.5748 87.4514 91.4737C87.4286 91.3725 87.3863 91.2769 87.3266 91.1921L86.4295 89.9165L86.3994 89.8765L86.1989 89.6259L86.4094 89.3878C86.9494 88.7853 87.4107 88.1168 87.7825 87.3982L87.9403 87.09L88.2612 87.2253C88.304 87.2436 88.3485 87.2578 88.394 87.2679L89.9149 87.6212C90.1182 87.6671 90.3315 87.631 90.5084 87.5208C90.6852 87.4106 90.8115 87.2351 90.8598 87.0323L91.416 84.6367C91.4627 84.4331 91.427 84.2192 91.3167 84.0418C91.2064 83.8644 91.0305 83.7377 90.8272 83.6894L89.3061 83.3386C89.2739 83.3312 89.2414 83.3261 89.2084 83.3236L88.8727 83.286V82.9477C88.8795 81.62 88.6114 80.3054 88.0857 79.0862L87.9655 78.8055L89.3286 77.8457C89.4985 77.7248 89.6138 77.5416 89.6494 77.3361C89.6851 77.1306 89.6384 76.9194 89.5192 76.7482L88.1033 74.7435C88.0438 74.6588 87.9683 74.5867 87.8809 74.5313C87.7935 74.4759 87.696 74.4383 87.5941 74.4206C87.4921 74.4029 87.3876 74.4055 87.2867 74.4282C87.1858 74.4509 87.0903 74.4933 87.0058 74.553L85.5372 75.5854L85.3167 75.4051C84.7032 74.9001 84.03 74.4726 83.312 74.1321L83.0365 74.0018L83.4249 72.3304C83.4487 72.2297 83.4521 72.1253 83.4349 72.0232C83.4177 71.9212 83.3801 71.8237 83.3245 71.7364C83.2702 71.6487 83.1991 71.5725 83.1153 71.5123C83.0314 71.4521 82.9364 71.4091 82.8358 71.3856L80.4403 70.8293C80.2363 70.7827 80.0222 70.8188 79.8447 70.9296C79.6672 71.0404 79.5407 71.2169 79.493 71.4206L79.0846 73.1924H78.7966C77.8208 73.2276 76.8558 73.41 75.9346 73.7336L75.6667 73.8289L74.6266 72.3503C74.5056 72.1804 74.3226 72.0651 74.1171 72.0295C73.9116 71.9938 73.7002 72.0407 73.5291 72.1599L71.5244 73.5757C71.3554 73.6943 71.2394 73.8741 71.2011 74.0769C71.183 74.1785 71.1854 74.2828 71.2082 74.3835C71.231 74.4842 71.2739 74.5793 71.334 74.6632L72.2837 76.0139L72.0733 76.237C71.4009 76.9492 70.8407 77.7595 70.4119 78.6401L70.279 78.9107L68.545 78.5073C68.341 78.4608 68.1268 78.4969 67.9493 78.6077C67.7719 78.7185 67.6454 78.895 67.5977 79.0987L67.0439 81.4917C66.9966 81.6954 67.0319 81.9097 67.1423 82.0873C67.2527 82.2649 67.4291 82.3914 67.6327 82.439L69.422 82.8525V83.1457C69.447 84.1802 69.6382 85.204 69.9883 86.1778L70.0859 86.4484L68.6226 87.4783C68.5379 87.5378 68.4658 87.6135 68.4104 87.7009C68.355 87.7883 68.3175 87.8856 68.2998 87.9876C68.2821 88.0895 68.2846 88.194 68.3074 88.2949C68.3301 88.3959 68.3725 88.4913 68.4322 88.5759L69.8481 90.5806C69.969 90.7506 70.1524 90.8659 70.3581 90.9012C70.5637 90.9364 70.775 90.8886 70.9456 90.7685L72.2987 89.8388ZM79.1724 90.5004C78.5946 90.5009 78.0184 90.4344 77.4558 90.3025C75.5695 89.8629 73.9229 88.7184 72.8534 87.1035C71.784 85.4887 71.3727 83.526 71.704 81.6177C72.0353 79.7094 73.084 78.0001 74.6352 76.8402C76.1864 75.6804 78.1225 75.1579 80.0466 75.3798C81.9707 75.6017 83.737 76.5512 84.9834 78.0337C86.2299 79.5162 86.8618 81.4193 86.75 83.3529C86.6383 85.2865 85.7912 87.1041 84.3822 88.4331C82.9732 89.7621 81.1093 90.5017 79.1724 90.5004ZM77.6261 89.5708C78.9447 89.8768 80.3244 89.785 81.5907 89.3068C82.8571 88.8287 83.9532 87.9858 84.7404 86.8847C85.5277 85.7835 85.9709 84.4736 86.0137 83.1207C86.0565 81.7678 85.6971 80.4325 84.981 79.2838C84.2649 78.1351 83.2242 77.2247 81.9906 76.6676C80.757 76.1104 79.3857 75.9315 78.0504 76.1537C76.7152 76.3758 75.4759 76.9888 74.4891 77.9154C73.5023 78.8419 72.8123 80.0403 72.5067 81.359C72.2972 82.2346 72.2639 83.1431 72.4085 84.0318C72.5532 84.9204 72.8729 85.7715 73.3492 86.5356C73.8255 87.2996 74.4489 87.9613 75.1831 88.4824C75.9173 89.0035 76.7477 89.3734 77.6261 89.5708Z" fill="#1D1D1B"/>
</g>
</g>
<g id="Group_14">
<g id="Group_15">
<path id="Vector_53" d="M46.1475 111.106C46.1475 111.106 40.5242 106.669 44.0349 99.9479C47.5456 93.2271 52.8932 88.095 58.7569 88.115C64.6207 88.1351 67.8182 91.4178 68.7078 94.6028C69.5974 97.7878 67.455 100.336 63.2626 100.649C63.2626 100.649 63.7161 106.413 56.2912 106.533C56.2912 106.533 53.6324 115.354 48.2949 109.059L46.1475 111.106Z" fill="#FFCDB2"/>
<path id="Vector_54" d="M58.7219 88.1148H58.7569C64.6232 88.1373 67.8182 91.4176 68.7077 94.6025C69.5973 97.7875 67.4549 100.336 63.2626 100.649C63.2626 100.649 63.7161 106.413 56.2912 106.533C56.2912 106.533 54.8452 111.324 51.9509 111.324C50.916 111.324 49.6956 110.715 48.2949 109.069L46.1475 111.116C46.1475 111.116 40.5241 106.678 44.0349 99.9576C47.5456 93.2369 52.8707 88.1248 58.7219 88.1248V88.1148ZM58.7219 87.373C55.7474 87.373 52.8156 88.5784 50.014 90.954C47.5231 93.0614 45.2278 96.0559 43.371 99.6093C41.4089 103.368 42.143 106.455 43.1027 108.38C43.7295 109.648 44.6067 110.776 45.6813 111.695L46.1825 112.099L46.6536 111.65L48.2422 110.146C49.4952 111.434 50.7281 112.086 51.9384 112.086C54.75 112.086 56.3188 108.62 56.82 107.275C59.2883 107.144 61.1727 106.38 62.4281 105.002C63.3313 103.982 63.8776 102.696 63.9843 101.338C66.1343 101.045 67.8234 100.15 68.7831 98.7823C69.6527 97.5444 69.8704 96.0258 69.4194 94.412C68.8546 92.4716 67.6645 90.7722 66.034 89.5782C64.107 88.1473 61.5887 87.3831 58.7496 87.373H58.7219Z" fill="#1D1E1B"/>
</g>
<path id="Vector_55" d="M63.6008 101.647C63.5233 101.646 63.4477 101.622 63.3845 101.577C63.3212 101.533 63.2733 101.469 63.2474 101.396C60.8619 94.7555 54.8452 94.327 54.5921 94.3119C54.4924 94.3063 54.3992 94.2613 54.3327 94.1868C54.2662 94.1123 54.2319 94.0145 54.2375 93.9148C54.2432 93.8151 54.2883 93.7217 54.3628 93.6552C54.4373 93.5887 54.535 93.5545 54.6347 93.5602C54.6999 93.5602 61.4007 94.0188 63.9542 101.138C63.988 101.232 63.9833 101.335 63.941 101.425C63.8987 101.515 63.8222 101.585 63.7286 101.619C63.6879 101.636 63.6447 101.645 63.6008 101.647Z" fill="#1D1D1B"/>
<path id="Vector_56" d="M56.7522 107.207C56.6716 107.207 56.5932 107.181 56.5286 107.133C56.464 107.084 56.4167 107.017 56.394 106.939C55.2538 103.21 50.1819 100 50.1293 99.9678C50.0849 99.9429 50.0462 99.9092 50.0152 99.8688C49.9843 99.8285 49.9618 99.7823 49.9492 99.733C49.9366 99.6837 49.9342 99.6324 49.9421 99.5821C49.9499 99.5319 49.9677 99.4837 49.9947 99.4406C50.0217 99.3974 50.0572 99.3603 50.0989 99.3313C50.1407 99.3023 50.1881 99.282 50.2379 99.2718C50.2878 99.2616 50.3391 99.2616 50.3889 99.2718C50.4388 99.282 50.4859 99.3023 50.5277 99.3313C50.7457 99.4666 55.8877 102.722 57.1081 106.721C57.1227 106.768 57.1279 106.818 57.1232 106.867C57.1185 106.916 57.1042 106.964 57.0809 107.008C57.0576 107.051 57.0257 107.09 56.9874 107.121C56.9491 107.152 56.9049 107.176 56.8575 107.19C56.8235 107.201 56.788 107.207 56.7522 107.207Z" fill="#1D1D1B"/>
<path id="Vector_57" d="M48.5528 110.087C48.4816 110.086 48.4121 110.065 48.3524 110.026C48.2196 109.944 45.1273 107.939 44.7113 105.331C44.7036 105.281 44.7057 105.231 44.7174 105.182C44.7292 105.134 44.7504 105.088 44.7798 105.048C44.8093 105.007 44.8463 104.973 44.889 104.947C44.9316 104.921 44.9788 104.903 45.0282 104.896C45.0776 104.888 45.1282 104.89 45.1767 104.902C45.2253 104.914 45.271 104.935 45.3113 104.964C45.3517 104.994 45.3859 105.031 45.4119 105.073C45.4379 105.116 45.4553 105.163 45.4631 105.213C45.8264 107.486 48.7382 109.375 48.7657 109.393C48.835 109.436 48.8882 109.501 48.9172 109.577C48.9462 109.654 48.9495 109.738 48.9265 109.816C48.9036 109.895 48.8556 109.964 48.79 110.012C48.7243 110.061 48.6447 110.087 48.5629 110.087H48.5528Z" fill="#1D1D1B"/>
<path id="Vector_58" d="M67.6302 96.65C67.4756 96.649 67.3251 96.6004 67.199 96.5107C67.073 96.421 66.9777 96.2946 66.9262 96.1488C65.974 93.5853 64.4979 91.8286 62.5358 90.934C59.3683 89.4881 55.9278 90.7486 55.8952 90.7611C55.8029 90.7962 55.7046 90.8127 55.6059 90.8097C55.5072 90.8068 55.4102 90.7845 55.3201 90.744C55.2301 90.7035 55.1487 90.6457 55.081 90.5738C55.0133 90.5019 54.9604 90.4174 54.9254 90.3251C54.8903 90.2328 54.874 90.1345 54.8769 90.0358C54.8799 89.9371 54.902 89.84 54.9425 89.75C54.983 89.6599 55.041 89.5787 55.1128 89.511C55.1847 89.4433 55.2692 89.3904 55.3615 89.3554C55.5243 89.2927 59.4011 87.8519 63.1449 89.5584C65.4929 90.6259 67.2369 92.6656 68.337 95.6275C68.377 95.7408 68.3894 95.8619 68.3729 95.9809C68.3565 96.0999 68.3117 96.2131 68.2425 96.3113C68.1733 96.4094 68.0816 96.4897 67.975 96.5451C67.8685 96.6005 67.7503 96.6296 67.6302 96.6299V96.65Z" fill="white"/>
</g>
<path id="Vector_59" d="M125.458 141.55C126.585 141.55 127.498 140.637 127.498 139.511C127.498 138.384 126.585 137.471 125.458 137.471C124.332 137.471 123.419 138.384 123.419 139.511C123.419 140.637 124.332 141.55 125.458 141.55Z" fill="#51CEF4"/>
<path id="Vector_60" d="M82.8585 120.752C83.9851 120.752 84.8982 119.838 84.8982 118.712C84.8982 117.585 83.9851 116.672 82.8585 116.672C81.732 116.672 80.8186 117.585 80.8186 118.712C80.8186 119.838 81.732 120.752 82.8585 120.752Z" fill="#51CEF4"/>
<path id="Vector_61" d="M100.149 132.028C101.276 132.028 102.189 131.115 102.189 129.988C102.189 128.862 101.276 127.948 100.149 127.948C99.0225 127.948 98.1091 128.862 98.1091 129.988C98.1091 131.115 99.0225 132.028 100.149 132.028Z" fill="#51CEF4"/>
<path id="Vector_62" d="M78.8491 175.38C79.9757 175.38 80.8888 174.466 80.8888 173.34C80.8888 172.213 79.9757 171.3 78.8491 171.3C77.7226 171.3 76.8092 172.213 76.8092 173.34C76.8092 174.466 77.7226 175.38 78.8491 175.38Z" fill="#51CEF4"/>
<path id="Vector_63" d="M125.458 171.872C126.585 171.872 127.498 170.958 127.498 169.832C127.498 168.705 126.585 167.792 125.458 167.792C124.332 167.792 123.419 168.705 123.419 169.832C123.419 170.958 124.332 171.872 125.458 171.872Z" fill="#51CEF4"/>
<path id="Vector_64" d="M82.8585 148.316C83.9851 148.316 84.8982 147.403 84.8982 146.276C84.8982 145.15 83.9851 144.237 82.8585 144.237C81.732 144.237 80.8186 145.15 80.8186 146.276C80.8186 147.403 81.732 148.316 82.8585 148.316Z" fill="#51CEF4"/>
<path id="Vector_65" d="M88.1209 194.174C89.2474 194.174 90.1606 193.261 90.1606 192.134C90.1606 191.008 89.2474 190.094 88.1209 190.094C86.9943 190.094 86.0809 191.008 86.0809 192.134C86.0809 193.261 86.9943 194.174 88.1209 194.174Z" fill="#51CEF4"/>
<path id="Vector_66" d="M145.255 168.363C146.381 168.363 147.295 167.45 147.295 166.324C147.295 165.197 146.381 164.284 145.255 164.284C144.128 164.284 143.215 165.197 143.215 166.324C143.215 167.45 144.128 168.363 145.255 168.363Z" fill="#51CEF4"/>
<path id="Vector_67" d="M65.8085 140.836C66.935 140.836 67.8482 139.923 67.8482 138.796C67.8482 137.67 66.935 136.757 65.8085 136.757C64.682 136.757 63.7686 137.67 63.7686 138.796C63.7686 139.923 64.682 140.836 65.8085 140.836Z" fill="#51CEF4"/>
<path id="Vector_68" d="M46.8414 131.865C47.9679 131.865 48.8811 130.952 48.8811 129.825C48.8811 128.699 47.9679 127.785 46.8414 127.785C45.7149 127.785 44.8017 128.699 44.8017 129.825C44.8017 130.952 45.7149 131.865 46.8414 131.865Z" fill="#51CEF4"/>
<path id="Vector_69" d="M34.1967 148.577C35.3233 148.577 36.2364 147.663 36.2364 146.537C36.2364 145.41 35.3233 144.497 34.1967 144.497C33.0702 144.497 32.157 145.41 32.157 146.537C32.157 147.663 33.0702 148.577 34.1967 148.577Z" fill="#51CEF4"/>
<path id="Vector_70" d="M47.2423 166.251C48.3688 166.251 49.2822 165.337 49.2822 164.211C49.2822 163.084 48.3688 162.171 47.2423 162.171C46.1157 162.171 45.2026 163.084 45.2026 164.211C45.2026 165.337 46.1157 166.251 47.2423 166.251Z" fill="#51CEF4"/>
<path id="Vector_71" d="M111.927 192.42C113.053 192.42 113.966 191.506 113.966 190.38C113.966 189.253 113.053 188.34 111.927 188.34C110.8 188.34 109.887 189.253 109.887 190.38C109.887 191.506 110.8 192.42 111.927 192.42Z" fill="#51CEF4"/>
<path id="Vector_72" d="M32.8085 92.4527C32.7641 92.4525 32.7202 92.4449 32.6783 92.4302C26.077 90.0741 20.2664 85.918 15.9039 80.4319C12.3631 76.0115 9.58155 70.629 7.63448 64.437C4.33424 53.9123 4.60749 44.5453 4.6125 44.4526C4.61705 44.3533 4.66009 44.2597 4.73266 44.1919C4.80522 44.124 4.90152 44.0871 5.00086 44.0892C5.10013 44.0931 5.19387 44.1362 5.26148 44.209C5.3291 44.2818 5.36496 44.3783 5.36157 44.4776C5.36157 44.5703 5.09094 53.8271 8.36863 64.234C11.3757 73.8039 18.0765 86.3433 32.9414 91.7234C33.0245 91.7536 33.0942 91.812 33.1384 91.8885C33.1827 91.965 33.1987 92.0546 33.1834 92.1416C33.1682 92.2287 33.1226 92.3076 33.055 92.3644C32.9873 92.4213 32.902 92.4526 32.8137 92.4527H32.8085Z" fill="black"/>
<path id="Vector_73" d="M21.7401 94.6905H21.7051C14.1875 94.0214 8.71207 89.3629 5.45192 85.574C3.3302 83.111 1.5431 80.3786 0.136963 77.4475C0.0967551 77.3561 0.0944152 77.2525 0.130601 77.1595C0.166787 77.0664 0.238416 76.9916 0.329799 76.9514C0.421181 76.9111 0.524779 76.9088 0.617828 76.945C0.710877 76.9812 0.785872 77.0529 0.82608 77.1443C0.893739 77.2997 7.8425 92.7058 21.7727 93.9337C21.8724 93.938 21.9664 93.9818 22.0338 94.0553C22.1012 94.1289 22.1367 94.2262 22.1324 94.3259C22.1281 94.4255 22.0843 94.5194 22.0108 94.5868C21.9372 94.6543 21.8398 94.6898 21.7401 94.6855V94.6905Z" fill="black"/>
<path id="Vector_74" d="M67.1441 166.812C67.1159 166.816 67.087 166.816 67.0587 166.812C66.9617 166.789 66.8779 166.729 66.8253 166.645C66.7727 166.56 66.7558 166.458 66.7783 166.361C66.8059 166.238 69.6775 154.12 74.4036 144.668C74.4241 144.621 74.4538 144.579 74.491 144.544C74.5282 144.509 74.572 144.483 74.6199 144.465C74.6678 144.448 74.7189 144.441 74.7697 144.444C74.8205 144.446 74.8703 144.46 74.9158 144.483C74.9614 144.505 75.0018 144.537 75.0347 144.576C75.0676 144.615 75.0923 144.66 75.1072 144.709C75.1221 144.757 75.1269 144.809 75.1214 144.859C75.1159 144.91 75.1001 144.959 75.0751 145.003C70.3891 154.375 67.5376 166.411 67.51 166.531C67.4888 166.612 67.4414 166.684 67.3752 166.734C67.3089 166.785 67.2276 166.813 67.1441 166.812Z" fill="black"/>
<g id="Group_16">
<path id="Vector_75" d="M148.538 131.168C148.538 131.168 155.554 139.688 157.058 148.208L148.538 131.168Z" fill="#07ACEE"/>
<path id="Vector_76" d="M156.682 148.274C155.213 139.947 148.312 131.484 148.242 131.407L148.823 130.93C148.893 131.016 155.92 139.623 157.423 148.143L156.682 148.274Z" fill="#1D1D1B"/>
</g>
<path id="Vector_77" d="M154.426 192.688C154.378 192.687 154.331 192.683 154.283 192.675C154.186 192.656 154.094 192.619 154.011 192.564C153.929 192.51 153.858 192.44 153.802 192.358C153.747 192.276 153.708 192.184 153.688 192.087C153.668 191.99 153.668 191.89 153.687 191.793C159.581 161.354 149.126 143.384 149.019 143.206C148.968 143.122 148.934 143.028 148.92 142.93C148.906 142.832 148.911 142.732 148.935 142.636C148.959 142.54 149.002 142.45 149.061 142.371C149.12 142.292 149.194 142.225 149.279 142.174C149.364 142.123 149.458 142.09 149.556 142.076C149.654 142.061 149.753 142.066 149.849 142.091C149.945 142.115 150.035 142.158 150.115 142.217C150.194 142.276 150.261 142.35 150.312 142.435C150.422 142.623 153.088 147.143 155.033 155.555C156.822 163.286 158.29 175.898 155.165 192.079C155.132 192.25 155.04 192.405 154.905 192.516C154.77 192.627 154.601 192.688 154.426 192.688Z" fill="white"/>
<path id="Vector_78" d="M29.1325 159.36C28.9816 159.36 28.8343 159.314 28.7096 159.229C28.5849 159.144 28.4887 159.024 28.4333 158.884C24.5868 149.138 29.521 140.312 29.734 139.942C29.8337 139.768 29.998 139.642 30.1909 139.59C30.3838 139.538 30.5894 139.565 30.7625 139.665C30.9357 139.764 31.062 139.929 31.1139 140.122C31.1659 140.315 31.1392 140.52 31.0396 140.693C30.9769 140.801 26.2608 149.291 29.8316 158.337C29.8766 158.451 29.8929 158.574 29.8794 158.696C29.8658 158.818 29.8227 158.934 29.7538 159.036C29.6849 159.137 29.5922 159.22 29.4839 159.277C29.3756 159.335 29.255 159.365 29.1325 159.365V159.36Z" fill="white"/>
<path id="Vector_79" d="M22.8678 167.378C22.8011 167.379 22.735 167.365 22.6735 167.339C22.612 167.314 22.5562 167.276 22.5095 167.228C17.5805 162.164 17.1418 156.408 17.6404 152.468C17.9591 149.89 18.733 147.389 19.9258 145.081C19.9587 145.024 20.0027 144.974 20.055 144.933C20.1074 144.893 20.167 144.863 20.2307 144.846C20.2945 144.829 20.361 144.825 20.4265 144.833C20.492 144.842 20.5552 144.863 20.6125 144.896C20.6698 144.929 20.72 144.972 20.7603 145.025C20.8006 145.077 20.8302 145.137 20.8474 145.201C20.8646 145.264 20.8691 145.331 20.8606 145.396C20.8522 145.462 20.8309 145.525 20.798 145.582C19.6743 147.792 18.9409 150.179 18.6303 152.639C17.9562 158.037 19.5023 162.713 23.2261 166.537C23.2952 166.607 23.3419 166.696 23.3604 166.793C23.3789 166.89 23.3686 166.991 23.3303 167.082C23.292 167.173 23.2276 167.25 23.1453 167.305C23.063 167.36 22.9665 167.389 22.8678 167.389V167.378Z" fill="#1D1D1B"/>
</g>
<g id="hand">
<g id="Group_17">
<path id="Vector_80" d="M167.457 74.0719C167.457 74.0719 166.425 67.2184 173.353 64.8002C180.282 62.382 187.451 62.2943 191.579 66.1935C195.706 70.0926 195.789 74.523 194.308 77.3597C192.827 80.1963 189.637 80.5847 186.459 78.0237C186.459 78.0237 182.966 82.3939 177.646 77.5601C177.646 77.5601 169.928 82.0281 170.326 74.0519L167.457 74.0719Z" fill="#FFCDB2"/>
<path id="Vector_81" d="M183.976 63.1539C186.965 63.3819 189.619 64.3367 191.584 66.191C195.711 70.0877 195.793 74.5205 194.312 77.3571C193.44 79.0286 191.975 79.8505 190.268 79.7202C189.078 79.6275 187.762 79.0738 186.464 78.0213C186.464 78.0213 184.863 80.026 182.179 79.818C180.896 79.7203 179.37 79.1189 177.651 77.5627C177.651 77.5627 175.245 78.9559 173.19 78.798C171.564 78.6727 170.156 77.5802 170.331 74.0545L167.462 74.077C167.462 74.077 166.43 67.2234 173.358 64.8052C176.987 63.5373 180.686 62.9108 183.976 63.1614V63.1539ZM184.018 62.5975C180.761 62.3469 177.002 62.9258 173.17 64.2689C169.366 65.5996 167.86 68.2207 167.269 70.1879C166.877 71.4746 166.752 72.8278 166.901 74.1647C166.92 74.2915 166.981 74.4081 167.075 74.4954C167.169 74.5828 167.289 74.6359 167.417 74.6458H167.467L169.75 74.6258C169.75 78.3094 171.572 79.2441 173.148 79.3644C174.882 79.4972 176.786 78.6477 177.571 78.2492C179.094 79.5548 180.628 80.274 182.134 80.3893C182.937 80.4434 183.743 80.3287 184.499 80.0524C185.255 79.7762 185.945 79.3447 186.524 78.7855C187.747 79.6801 189.03 80.1989 190.226 80.2891C192.18 80.4394 193.851 79.4672 194.814 77.6253C195.684 75.9145 195.963 73.9636 195.608 72.0773C195.202 69.822 193.944 67.6469 191.972 65.7825C190 63.9181 187.324 62.8457 184.018 62.5951V62.5975Z" fill="black"/>
</g>
<path id="Vector_82" d="M186.294 79.0612C186.243 79.0615 186.192 79.0504 186.146 79.0287C186.099 79.0093 186.057 78.9809 186.022 78.945C185.987 78.9091 185.959 78.8666 185.941 78.8198C185.923 78.7731 185.914 78.7232 185.915 78.673C185.916 78.6228 185.927 78.5733 185.948 78.5275C188.657 72.2628 184.695 67.9878 184.53 67.8099C184.494 67.7745 184.466 67.7322 184.447 67.6858C184.428 67.6394 184.418 67.5896 184.419 67.5395C184.419 67.4893 184.43 67.4396 184.45 67.3936C184.47 67.3476 184.499 67.306 184.535 67.2714C184.571 67.2367 184.614 67.2096 184.661 67.1918C184.708 67.174 184.758 67.1659 184.808 67.1677C184.859 67.1696 184.908 67.1814 184.953 67.2026C184.999 67.2238 185.04 67.2539 185.073 67.2911C185.118 67.3387 189.549 72.0973 186.639 78.8181C186.613 78.8884 186.565 78.9492 186.504 78.9925C186.442 79.0358 186.369 79.0597 186.294 79.0612Z" fill="#1D1D1B"/>
<path id="Vector_83" d="M177.779 78.4496C177.721 78.4509 177.665 78.438 177.613 78.4121C177.524 78.3683 177.456 78.291 177.423 78.1971C177.391 78.1032 177.397 78.0003 177.44 77.9109C179.104 74.5279 177.651 68.9097 177.636 68.852C177.61 68.7557 177.624 68.6532 177.674 68.5669C177.724 68.4807 177.806 68.4178 177.903 68.3922C177.999 68.3666 178.102 68.3805 178.188 68.4305C178.274 68.4806 178.337 68.5627 178.362 68.6591C178.425 68.9097 179.904 74.6055 178.112 78.2441C178.081 78.3058 178.033 78.3578 177.974 78.3941C177.915 78.4303 177.848 78.4496 177.779 78.4496Z" fill="#1D1D1B"/>
<path id="Vector_84" d="M170.086 75.0568C170.002 75.0567 169.921 75.0289 169.854 74.9776C169.788 74.9264 169.741 74.8547 169.72 74.7736C169.682 74.6283 168.825 71.1601 170.261 69.0401C170.287 68.9963 170.322 68.9584 170.364 68.9285C170.405 68.8987 170.452 68.8775 170.502 68.8665C170.552 68.8554 170.604 68.8548 170.654 68.8644C170.704 68.874 170.752 68.8936 170.794 68.9223C170.836 68.9509 170.873 68.988 170.9 69.031C170.928 69.0741 170.946 69.1223 170.954 69.1727C170.962 69.2232 170.96 69.2747 170.948 69.3243C170.936 69.3739 170.913 69.4205 170.883 69.4611C169.63 71.3004 170.442 74.5556 170.449 74.5882C170.461 74.636 170.464 74.6859 170.457 74.7349C170.45 74.7838 170.433 74.8309 170.408 74.8734C170.382 74.9158 170.349 74.9527 170.309 74.982C170.269 75.0114 170.224 75.0325 170.176 75.0442C170.147 75.0532 170.116 75.0575 170.086 75.0568Z" fill="#1D1D1B"/>
<path id="Vector_85" d="M192.696 78.312C192.572 78.3123 192.449 78.2819 192.34 78.2233C192.23 78.1647 192.137 78.0798 192.068 77.9762C191.999 77.8727 191.957 77.7537 191.946 77.63C191.934 77.5062 191.954 77.3815 192.002 77.2671C193.027 74.8338 193.145 72.6237 192.356 70.6992C191.083 67.5919 187.827 66.2061 187.795 66.1886C187.61 66.1125 187.464 65.9662 187.387 65.782C187.31 65.5978 187.31 65.3907 187.386 65.2063C187.462 65.0219 187.609 64.8752 187.793 64.7986C187.977 64.722 188.184 64.7218 188.369 64.7979C188.524 64.863 192.22 66.4192 193.741 70.1078C194.693 72.4182 194.576 75.0218 193.388 77.8459C193.332 77.9832 193.236 78.1007 193.113 78.1836C192.99 78.2666 192.845 78.3113 192.696 78.312Z" fill="white"/>
</g>
</g>
</svg>
