<svg width="217" height="161" viewBox="0 0 217 161" fill="none" xmlns="http://www.w3.org/2000/svg">
<mask id="mask0_14213_92926" style="mask-type:alpha" maskUnits="userSpaceOnUse" x="0" y="0" width="217" height="161">
<rect width="216.439" height="161" fill="#D9D9D9"/>
</mask>
<g mask="url(#mask0_14213_92926)">
<g opacity="0.5">
<mask id="path-2-inside-1_14213_92926" fill="white">
<path d="M207.988 108.034C209.063 83.3642 201.264 59.1252 186.004 39.7111C170.744 20.2971 149.034 6.9928 124.808 2.20999C100.582 -2.57283 75.4439 1.48234 53.9508 13.6404C32.4578 25.7985 16.032 45.2549 7.65091 68.4826L8.09873 68.6442C16.4412 45.5235 32.7912 26.1569 54.1853 14.0548C75.5793 1.95276 100.601 -2.08372 124.716 2.67705C148.83 7.43782 170.44 20.6807 185.63 40.0053C200.82 59.3299 208.583 83.4571 207.513 108.014L207.988 108.034Z"/>
</mask>
<path d="M207.988 108.034C209.063 83.3642 201.264 59.1252 186.004 39.7111C170.744 20.2971 149.034 6.9928 124.808 2.20999C100.582 -2.57283 75.4439 1.48234 53.9508 13.6404C32.4578 25.7985 16.032 45.2549 7.65091 68.4826L8.09873 68.6442C16.4412 45.5235 32.7912 26.1569 54.1853 14.0548C75.5793 1.95276 100.601 -2.08372 124.716 2.67705C148.83 7.43782 170.44 20.6807 185.63 40.0053C200.82 59.3299 208.583 83.4571 207.513 108.014L207.988 108.034Z" stroke="url(#paint0_linear_14213_92926)" stroke-width="1.51887" stroke-dasharray="2.28 2.28" mask="url(#path-2-inside-1_14213_92926)"/>
</g>
<g opacity="0.5">
<mask id="path-3-inside-2_14213_92926" fill="white">
<path d="M7.78882 138.971C16.2607 162.166 32.7625 181.558 54.303 193.632C75.8436 205.706 100.997 209.663 125.204 204.785C149.411 199.907 171.07 186.518 186.253 167.045C201.437 147.571 209.142 123.302 207.97 98.6359L207.494 98.6585C208.661 123.211 200.992 147.368 185.878 166.752C170.764 186.136 149.206 199.463 125.11 204.318C101.015 209.173 75.9771 205.235 54.5358 193.217C33.0946 181.198 16.6689 161.896 8.236 138.808L7.78882 138.971Z"/>
</mask>
<path d="M7.78882 138.971C16.2607 162.166 32.7625 181.558 54.303 193.632C75.8436 205.706 100.997 209.663 125.204 204.785C149.411 199.907 171.07 186.518 186.253 167.045C201.437 147.571 209.142 123.302 207.97 98.6359L207.494 98.6585C208.661 123.211 200.992 147.368 185.878 166.752C170.764 186.136 149.206 199.463 125.11 204.318C101.015 209.173 75.9771 205.235 54.5358 193.217C33.0946 181.198 16.6689 161.896 8.236 138.808L7.78882 138.971Z" stroke="url(#paint1_linear_14213_92926)" stroke-width="1.51887" stroke-dasharray="2.28 2.28" mask="url(#path-3-inside-2_14213_92926)"/>
</g>
<circle opacity="0.08" cx="104.802" cy="103.537" r="91.1321" fill="url(#paint2_linear_14213_92926)"/>
<circle opacity="0.1" cx="104.802" cy="103.537" r="72.9057" fill="url(#paint3_linear_14213_92926)"/>
<circle cx="104.803" cy="103.537" r="48.6038" fill="white"/>
<g filter="url(#filter0_d_14213_92926)">
<circle cx="8.17233" cy="66.7148" r="3.79717" transform="rotate(-2.50406 8.17233 66.7148)" fill="#0170FF"/>
<circle cx="8.17233" cy="66.7148" r="4.34038" transform="rotate(-2.50406 8.17233 66.7148)" stroke="white" stroke-width="1.08642"/>
</g>
<g filter="url(#filter1_d_14213_92926)">
<circle cx="207.995" cy="97.3454" r="3.79717" transform="rotate(-15.7345 207.995 97.3454)" fill="#0170FF"/>
<circle cx="207.995" cy="97.3454" r="4.34038" transform="rotate(-15.7345 207.995 97.3454)" stroke="white" stroke-width="1.08642"/>
</g>
</g>
<path d="M167.309 13.5093H77.475C76.5391 13.5092 75.6124 13.6952 74.749 14.0564C73.8855 14.4176 73.1025 14.9467 72.4454 15.6132C71.7883 16.2797 71.2702 17.0701 70.9213 17.9385C70.5723 18.807 70.3995 19.7362 70.4128 20.672L71.7248 113.493" fill="white"/>
<path d="M71.4359 113.499L70.1336 20.6759C70.1197 19.7023 70.2993 18.7358 70.662 17.8323C71.0246 16.9287 71.5631 16.1061 72.2462 15.4123C72.9292 14.7185 73.7432 14.1673 74.6409 13.7905C75.5387 13.4137 76.5023 13.219 77.4759 13.2175H167.31V13.7972H77.4759C76.5784 13.7971 75.6897 13.9754 74.8617 14.3218C74.0337 14.6681 73.2828 15.1756 72.6527 15.8148C72.0225 16.4539 71.5257 17.212 71.1911 18.0448C70.8565 18.8777 70.6908 19.7687 70.7036 20.6661L72.0156 113.487L71.4359 113.499Z" fill="#1D1E1B"/>
<path d="M98.5011 55.2824L70.8301 55.8572L70.8421 56.4367L98.5131 55.8619L98.5011 55.2824Z" fill="#1D1E1B"/>
<path d="M134.269 13.5094C134.269 13.5094 128.472 43.845 156.296 77.4653C152.857 87.4799 152.581 95.9256 155.91 102.584C155.91 102.584 170.595 117.075 176.005 111.859C177.417 110.496 176.057 94.3586 176.198 85.0009C176.422 70.1056 179.359 58.4814 181.222 41.7195C182.767 27.8077 182.599 16.6009 181.415 14.4755C177.744 7.90597 134.076 8.09919 134.269 13.5094Z" fill="white"/>
<path d="M172.967 113.282C166.426 113.282 156.217 103.295 155.707 102.791L155.672 102.758L155.65 102.713C152.389 96.1922 152.497 87.7175 155.969 77.5251C149.653 69.8736 144.569 61.7583 140.852 53.4074C137.916 46.8667 135.804 39.987 134.562 32.926C132.615 21.6052 133.88 14.0348 133.983 13.4841C133.969 12.4253 135.185 11.5693 137.696 10.8679C142.784 9.44583 152.704 8.8546 162.38 9.39755C167.512 9.68545 179.666 10.7501 181.672 14.3304C182.856 16.4559 183.121 27.2763 181.513 41.7485C180.831 47.891 180.012 53.2934 179.22 58.5181C177.89 67.2922 176.632 75.5794 176.491 85.0028C176.441 88.3513 176.584 92.5848 176.721 96.6791C177.025 105.621 177.16 111.147 176.209 112.063C175.32 112.919 174.209 113.282 172.967 113.282ZM156.147 102.412C156.934 103.185 170.78 116.496 175.803 111.65C176.617 110.865 176.362 103.341 176.138 96.7042C176.001 92.6021 175.858 88.361 175.908 84.997C176.051 75.5292 177.309 67.2207 178.642 58.435C179.434 53.218 180.251 47.8194 180.933 41.6886C182.506 27.5294 182.286 16.6125 181.161 14.6165C179.867 12.2978 172.834 10.5685 162.344 9.9792C152.876 9.44784 142.801 10.043 137.849 11.4283C135.7 12.0293 134.531 12.7635 134.564 13.4977V13.5306V13.5614C134.551 13.6387 133.148 21.2516 135.144 32.8584C136.993 43.5705 142.202 59.973 156.524 77.2797L156.628 77.4034L156.576 77.558C153.106 87.6441 152.965 96.0048 156.147 102.412Z" fill="black"/>
<path d="M112.048 45.7771L111.275 16.9872V13.5093" fill="white"/>
<path d="M111.759 45.7848L110.986 16.995V13.5093H111.566V16.9872L112.339 45.7694L111.759 45.7848Z" fill="#1D1E1B"/>
<path d="M157.238 65.2906C149.005 55.8518 146.114 44.4228 145.141 36.4911C144.086 27.9044 144.988 21.4546 144.996 21.3909L145.575 21.474C145.575 21.5378 144.675 27.9237 145.724 36.437C146.69 44.2798 149.548 55.587 157.681 64.9099L157.238 65.2906Z" fill="#1D1E1B"/>
<path d="M173.968 44.8786L173.404 44.7434C175.876 34.4796 174.564 21.5917 174.564 21.4623L175.143 21.4023C175.147 21.526 176.463 34.5162 173.968 44.8786Z" fill="#1D1E1B"/>
<path d="M185.279 26.0686C185.279 26.0686 186.438 40.5601 182.381 57.7567L185.279 26.0686Z" fill="white"/>
<path d="M182.664 57.8243L182.1 57.691C186.099 40.7398 184.998 26.2366 184.998 26.0917L185.578 26.0454C185.58 26.1923 186.685 40.7803 182.664 57.8243Z" fill="#1D1E1B"/>
<path d="M175.521 59.9769C175.48 59.9768 175.439 59.973 175.399 59.9653C175.325 59.9492 175.254 59.9186 175.191 59.8753C175.129 59.8319 175.075 59.7766 175.034 59.7125C174.993 59.6484 174.964 59.5769 174.951 59.5019C174.937 59.4269 174.938 59.35 174.955 59.2755C179.517 37.9807 177.476 17.3467 177.455 17.1419C177.439 16.9881 177.485 16.8344 177.583 16.7147C177.681 16.5949 177.822 16.5189 177.976 16.5032C178.129 16.4876 178.283 16.5337 178.403 16.6314C178.523 16.729 178.599 16.8703 178.614 17.024C178.635 17.2308 180.697 38.0367 176.093 59.5189C176.065 59.6494 175.992 59.7663 175.888 59.8497C175.784 59.9331 175.654 59.9781 175.521 59.9769Z" fill="white"/>
<path d="M146.925 55.1465C146.814 55.1464 146.705 55.1143 146.612 55.054C146.518 54.9937 146.444 54.9078 146.398 54.8064C139.635 39.9459 142.267 21.4333 142.294 21.2498C142.316 21.0976 142.398 20.9605 142.521 20.8686C142.645 20.7768 142.8 20.7377 142.952 20.76C143.104 20.7823 143.241 20.8641 143.333 20.9875C143.425 21.1109 143.464 21.2657 143.442 21.4179C143.415 21.5995 140.841 39.7738 147.453 54.3272C147.485 54.3967 147.503 54.4721 147.506 54.5488C147.509 54.6255 147.497 54.7019 147.47 54.7738C147.444 54.8457 147.403 54.9116 147.35 54.9676C147.298 55.0236 147.235 55.0686 147.165 55.1001C147.09 55.1332 147.008 55.1491 146.925 55.1465Z" fill="white"/>
<path d="M130.073 84.1659C123.765 84.1659 118.635 79.4359 118.635 73.62C118.635 67.804 123.765 63.074 130.073 63.074C136.382 63.074 141.512 67.804 141.512 73.62C141.512 79.4359 136.38 84.1659 130.073 84.1659ZM130.073 63.6536C124.084 63.6536 119.214 68.1248 119.214 73.62C119.214 79.1151 124.086 83.5863 130.073 83.5863C136.061 83.5863 140.932 79.1151 140.932 73.62C140.932 68.1248 136.061 63.6479 130.073 63.6479V63.6536Z" fill="#1D1E1B"/>
<path d="M128.021 83.5207C133.44 83.5207 137.832 79.1278 137.832 73.7089C137.832 68.29 133.44 63.8972 128.021 63.8972C122.602 63.8972 118.209 68.29 118.209 73.7089C118.209 79.1278 122.602 83.5207 128.021 83.5207Z" fill="#382256"/>
<path d="M128.021 83.8106C126.024 83.8106 124.071 83.2181 122.409 82.1081C120.748 80.9981 119.453 79.4205 118.689 77.5747C117.924 75.7289 117.724 73.6978 118.114 71.7383C118.504 69.7788 119.466 67.9789 120.879 66.5661C122.291 65.1534 124.091 64.1913 126.051 63.8015C128.01 63.4118 130.041 63.6118 131.887 64.3764C133.733 65.1409 135.311 66.4357 136.421 68.0969C137.531 69.7581 138.123 71.7111 138.123 73.709C138.12 76.3871 137.055 78.9548 135.161 80.8485C133.267 82.7422 130.7 83.8075 128.021 83.8106ZM128.021 64.189C126.138 64.189 124.297 64.7476 122.731 65.7939C121.165 66.8403 119.945 68.3275 119.224 70.0675C118.504 71.8075 118.315 73.7222 118.683 75.5693C119.05 77.4164 119.957 79.113 121.289 80.4446C122.621 81.7762 124.318 82.683 126.165 83.0502C128.012 83.4173 129.927 83.2285 131.667 82.5075C133.407 81.7865 134.894 80.5657 135.94 78.9996C136.986 77.4335 137.544 75.5923 137.543 73.709C137.54 71.1847 136.536 68.7648 134.751 66.98C132.966 65.1953 130.546 64.1916 128.021 64.189Z" fill="#1D1E1B"/>
<path d="M111.184 76.5375C78.8971 82.7766 89.8411 130.917 89.8411 130.917L145.647 130.742C145.647 130.742 153.453 80.4619 116.954 74.845" fill="#07ACEE"/>
<path d="M89.8417 131.207C89.7759 131.207 89.712 131.185 89.6605 131.144C89.609 131.103 89.5728 131.045 89.5576 130.981C88.5093 125.836 87.9177 120.609 87.7897 115.359C87.5848 107.296 88.495 95.9177 93.9863 87.501C97.9164 81.4764 103.682 77.6932 111.123 76.2537C111.199 76.2391 111.277 76.2551 111.341 76.2982C111.404 76.3413 111.448 76.408 111.463 76.4836C111.478 76.5592 111.462 76.6375 111.419 76.7012C111.375 76.765 111.309 76.809 111.233 76.8236C103.953 78.2303 98.3145 81.9305 94.4732 87.8159C89.063 96.1051 88.1684 107.354 88.3674 115.332C88.4974 120.47 89.0688 125.586 90.0755 130.626L145.397 130.452C146.033 125.371 146.213 120.243 145.936 115.13C145.507 107.101 143.683 95.7399 137.434 87.2092C132.549 80.5392 125.647 76.4758 116.91 75.1329C116.872 75.1272 116.835 75.1141 116.802 75.0943C116.769 75.0744 116.741 75.0483 116.718 75.0174C116.695 74.9864 116.678 74.9512 116.669 74.9139C116.66 74.8765 116.658 74.8377 116.664 74.7996C116.669 74.7616 116.682 74.725 116.702 74.6921C116.722 74.6591 116.748 74.6303 116.779 74.6074C116.81 74.5846 116.845 74.568 116.883 74.5587C116.92 74.5495 116.959 74.5476 116.997 74.5533C125.885 75.9213 132.924 80.064 137.901 86.8615C144.235 95.5119 146.08 106.997 146.513 115.106C146.803 120.338 146.609 125.585 145.934 130.78C145.923 130.849 145.888 130.911 145.836 130.956C145.784 131.001 145.717 131.026 145.648 131.026L89.8417 131.202V131.207Z" fill="#1D1D1B"/>
<path d="M146.579 131.553C160.193 137.578 165.924 130.844 169.495 127.204C174.53 122.066 184.373 107.608 182.974 102.452C181.575 97.2973 177.757 97.3379 177.757 97.3379L177.492 93.2957L163.557 91.1915L163.136 93.8966C163.136 93.8966 158.787 92.2446 156.646 99.3803C155.224 104.12 153.614 110.618 153.792 113.472C153.792 113.472 152.884 83.4956 123.01 76.3445" fill="#07ACEE"/>
<path d="M156.483 134.243C153.7 134.243 150.404 133.563 146.462 131.818C146.425 131.804 146.392 131.783 146.363 131.755C146.335 131.728 146.312 131.695 146.297 131.659C146.282 131.623 146.274 131.583 146.274 131.544C146.275 131.505 146.283 131.466 146.299 131.43C146.315 131.394 146.338 131.361 146.367 131.334C146.396 131.307 146.43 131.287 146.467 131.274C146.504 131.26 146.544 131.255 146.583 131.257C146.622 131.26 146.661 131.271 146.696 131.289C159.582 136.99 165.158 131.25 168.849 127.449L169.287 127.001C174.661 121.517 184.018 107.414 182.695 102.53C181.371 97.645 177.911 97.6237 177.764 97.6276C177.69 97.6278 177.619 97.5999 177.565 97.5497C177.512 97.4994 177.479 97.4306 177.474 97.3571L177.225 93.5469L163.806 91.5218L163.429 93.9371C163.422 93.9794 163.406 94.0197 163.382 94.055C163.358 94.0904 163.326 94.12 163.289 94.1417C163.252 94.1635 163.211 94.1769 163.168 94.181C163.126 94.185 163.083 94.1796 163.042 94.1651C162.149 93.903 161.189 93.9937 160.361 94.4182C158.867 95.1621 157.715 96.8567 156.935 99.4593C155.478 104.313 153.984 110.432 154.083 113.273C154.083 113.389 154.092 113.452 154.092 113.466C154.096 113.543 154.069 113.618 154.017 113.675C153.965 113.732 153.893 113.766 153.816 113.769C153.739 113.773 153.664 113.746 153.607 113.694C153.55 113.642 153.516 113.57 153.513 113.493C153.513 113.433 153.513 113.371 153.503 113.3C153.437 112.119 152.906 105.225 149.343 97.6895C145.755 90.1017 138.264 80.2861 122.955 76.6285C122.885 76.6061 122.827 76.5584 122.791 76.4949C122.755 76.4314 122.745 76.3567 122.762 76.2857C122.779 76.2148 122.822 76.1527 122.882 76.112C122.943 76.0713 123.016 76.055 123.088 76.0662C129.949 77.7086 135.85 80.7035 140.627 84.9543C144.447 88.3569 147.56 92.5691 149.876 97.475C151.768 101.532 153.069 105.839 153.741 110.264C154.218 107.093 155.304 102.858 156.369 99.3067C157.199 96.5359 158.457 94.7197 160.107 93.9062C160.97 93.4729 161.954 93.3442 162.899 93.541L163.272 91.1606C163.284 91.0852 163.325 91.0175 163.387 90.9723C163.448 90.927 163.525 90.9079 163.601 90.9191L177.536 93.0213C177.601 93.0313 177.661 93.0634 177.706 93.1122C177.751 93.1611 177.777 93.2238 177.781 93.2899L178.03 97.0828C178.966 97.1929 182.03 97.8962 183.247 102.39C184.729 107.851 174.562 122.454 169.695 127.42L169.258 127.867C166.756 130.436 163.058 134.243 156.483 134.243Z" fill="#1D1D1B"/>
<path d="M163.48 94.1496C163.48 94.1496 166.23 100.541 177.674 97.5852L177.317 93.6048L163.985 91.5566L163.48 94.1496Z" fill="#0598C6"/>
<path d="M132.835 116.228C132.9 115.552 132.405 114.95 131.73 114.885C131.054 114.819 130.454 115.315 130.388 115.991C130.323 116.668 130.817 117.27 131.493 117.335C132.168 117.4 132.769 116.905 132.835 116.228Z" fill="#51CEF4"/>
<path d="M115.574 103.983C115.726 103.321 115.312 102.661 114.65 102.51C113.989 102.359 113.33 102.774 113.178 103.436C113.027 104.099 113.441 104.759 114.102 104.91C114.764 105.061 115.423 104.646 115.574 103.983Z" fill="#51CEF4"/>
<path d="M163.905 102.795C163.97 102.119 163.476 101.517 162.8 101.452C162.125 101.387 161.524 101.882 161.458 102.559C161.393 103.235 161.887 103.837 162.563 103.902C163.239 103.968 163.839 103.472 163.905 102.795Z" fill="#51CEF4"/>
<path d="M178.96 105.447C179.025 104.771 178.53 104.169 177.855 104.104C177.179 104.038 176.579 104.534 176.513 105.211C176.448 105.887 176.942 106.489 177.618 106.554C178.293 106.619 178.894 106.124 178.96 105.447Z" fill="#51CEF4"/>
<path d="M172.845 124.324C172.913 123.644 172.417 123.038 171.739 122.97C171.06 122.902 170.455 123.398 170.387 124.078C170.319 124.758 170.814 125.364 171.493 125.431C172.171 125.499 172.777 125.003 172.845 124.324Z" fill="#51CEF4"/>
<path d="M148.127 110.042C148.193 109.365 147.698 108.764 147.023 108.698C146.347 108.633 145.747 109.129 145.681 109.805C145.616 110.482 146.11 111.083 146.786 111.149C147.461 111.214 148.062 110.719 148.127 110.042Z" fill="#51CEF4"/>
<path d="M168.616 114.112C168.681 113.435 168.187 112.834 167.511 112.768C166.836 112.703 166.235 113.198 166.169 113.875C166.104 114.552 166.598 115.153 167.274 115.219C167.949 115.284 168.55 114.788 168.616 114.112Z" fill="#51CEF4"/>
<path d="M109.76 76.8952C109.219 77.2553 108.766 77.7309 108.432 78.2876C108.098 78.8442 107.891 79.4682 107.827 80.1143C107.514 82.7343 112.932 84.9544 117.778 81.3547C117.778 81.3547 120.7 83.9014 123.308 82.9604C126.9 81.662 125.38 76.8875 121.569 76.1068C116.716 75.1118 109.76 76.8952 109.76 76.8952Z" fill="white"/>
<path d="M112.435 83.5324C111.297 83.5514 110.173 83.273 109.175 82.7247C108.037 82.0639 107.436 81.0765 107.548 80.0795C107.834 77.6855 109.542 76.6846 109.614 76.644L109.649 76.6247L109.685 76.615C109.973 76.5416 116.763 74.8258 121.638 75.8228C124.098 76.3271 125.503 78.3116 125.634 80.01C125.74 81.4881 124.911 82.6918 123.414 83.2328C121.026 84.0946 118.469 82.2667 117.774 81.7219C115.963 83.0106 114.085 83.5324 112.435 83.5324ZM109.871 77.1735C109.38 77.5132 108.969 77.9563 108.667 78.4717C108.364 78.987 108.179 79.5621 108.122 80.1568C108.031 80.9296 108.52 81.6832 109.475 82.232C111.278 83.2773 114.595 83.3778 117.619 81.1306L117.812 80.9914L117.988 81.1441C118.017 81.1673 120.817 83.5671 123.23 82.6899C124.486 82.2358 125.162 81.2756 125.07 80.0544C124.963 78.6091 123.69 76.8353 121.536 76.3928C116.97 75.4596 110.449 77.0227 109.871 77.1735Z" fill="#1D1E1B"/>
<path d="M129.805 124.597C130.484 124.597 131.034 124.046 131.034 123.366C131.034 122.687 130.484 122.136 129.805 122.136C129.126 122.136 128.576 122.687 128.576 123.366C128.576 124.046 129.126 124.597 129.805 124.597Z" fill="#51CEF4"/>
<path d="M93.7934 105.664C94.4721 105.664 95.0223 105.113 95.0223 104.433C95.0223 103.753 94.4721 103.202 93.7934 103.202C93.1147 103.202 92.5645 103.753 92.5645 104.433C92.5645 105.113 93.1147 105.664 93.7934 105.664Z" fill="#51CEF4"/>
<path d="M112.949 114.865C113.097 114.726 113.208 114.554 113.274 114.362C113.339 114.17 113.356 113.966 113.324 113.766C113.291 113.566 113.21 113.377 113.087 113.216C112.965 113.055 112.804 112.926 112.62 112.842C112.399 112.739 112.151 112.705 111.91 112.744C111.669 112.784 111.445 112.894 111.268 113.062C111.145 113.171 111.045 113.303 110.974 113.451C110.903 113.599 110.863 113.76 110.855 113.924C110.847 114.088 110.872 114.251 110.928 114.405C110.984 114.56 111.071 114.701 111.183 114.821C111.294 114.941 111.429 115.038 111.578 115.105C111.728 115.173 111.89 115.21 112.054 115.214C112.218 115.218 112.381 115.189 112.534 115.129C112.686 115.069 112.826 114.979 112.943 114.865H112.949Z" fill="#51CEF4"/>
<path d="M94.5759 127.708C94.7242 127.57 94.836 127.397 94.9016 127.206C94.9672 127.014 94.9846 126.809 94.9521 126.609C94.9196 126.409 94.8384 126.22 94.7155 126.059C94.5925 125.898 94.4317 125.769 94.2474 125.685C94.0258 125.582 93.7785 125.548 93.5374 125.588C93.2962 125.627 93.0724 125.738 92.8949 125.905C92.7721 126.014 92.6724 126.147 92.6014 126.294C92.5305 126.442 92.4898 126.603 92.4819 126.767C92.474 126.931 92.4989 127.095 92.5552 127.249C92.6115 127.403 92.698 127.544 92.8097 127.664C92.9214 127.784 93.056 127.881 93.2055 127.949C93.3551 128.016 93.5167 128.053 93.6807 128.057C93.8447 128.061 94.0079 128.032 94.1606 127.972C94.3134 127.912 94.4526 127.823 94.5702 127.708H94.5759Z" fill="#51CEF4"/>
<path d="M135.467 90.0553C136.146 90.0553 136.696 89.5043 136.696 88.8245C136.696 88.1447 136.146 87.5938 135.467 87.5938C134.788 87.5938 134.238 88.1447 134.238 88.8245C134.238 89.5043 134.788 90.0553 135.467 90.0553Z" fill="#51CEF4"/>
<path d="M143.025 103.206C143.025 103.206 147.307 111.232 148.109 121.668L145.433 120.775C145.433 120.775 145.166 111.953 143.025 103.206Z" fill="#0598C6"/>
<path d="M142.809 101.925C142.809 101.925 144.72 109.538 145.255 121.668L142.809 101.925Z" fill="#07ACEE"/>
<path d="M145.255 121.958C145.18 121.958 145.108 121.929 145.054 121.878C145 121.826 144.968 121.756 144.965 121.682C144.437 109.725 142.548 102.072 142.528 101.994C142.51 101.92 142.521 101.841 142.561 101.775C142.6 101.709 142.664 101.661 142.739 101.643C142.813 101.624 142.892 101.636 142.958 101.675C143.024 101.715 143.072 101.779 143.09 101.853C143.11 101.931 145.013 109.636 145.544 121.655C145.548 121.731 145.52 121.806 145.469 121.863C145.417 121.92 145.345 121.954 145.268 121.958H145.255Z" fill="#1D1D1B"/>
<path d="M179.839 110.919C179.776 110.919 179.714 110.907 179.657 110.882C179.598 110.859 179.545 110.823 179.5 110.779C179.455 110.734 179.419 110.681 179.394 110.622C179.37 110.564 179.357 110.501 179.356 110.438C179.356 110.374 179.368 110.311 179.392 110.253C181.527 105.036 181.048 102.46 180.269 101.212C180.007 100.791 179.653 100.434 179.234 100.169C178.815 99.9034 178.341 99.7362 177.848 99.6796C177.72 99.6721 177.6 99.6141 177.515 99.5182C177.43 99.4224 177.386 99.2966 177.393 99.1685C177.401 99.0404 177.459 98.9205 177.555 98.8352C177.651 98.7498 177.776 98.706 177.904 98.7135C178.548 98.7796 179.167 98.9909 179.717 99.3312C180.266 99.6716 180.731 100.132 181.077 100.678C182.397 102.771 182.132 106.114 180.287 110.616C180.251 110.705 180.189 110.782 180.109 110.836C180.029 110.89 179.935 110.919 179.839 110.919Z" fill="white"/>
<path d="M120.552 50.3753C124.062 50.3753 126.907 47.5258 126.907 44.0107C126.907 40.4955 124.062 37.646 120.552 37.646C117.043 37.646 114.197 40.4955 114.197 44.0107C114.197 47.5258 117.043 50.3753 120.552 50.3753Z" fill="#382256"/>
<path d="M120.552 50.6671C119.341 50.6691 118.153 50.3408 117.115 49.7174C116.076 49.0941 115.228 48.1994 114.661 47.1297C114.093 46.06 113.829 44.8559 113.895 43.6469C113.961 42.4378 114.356 41.2697 115.036 40.2683C115.717 39.267 116.658 38.4703 117.758 37.964C118.858 37.4578 120.075 37.2611 121.279 37.3952C122.482 37.5293 123.626 37.9892 124.587 38.7252C125.549 39.4612 126.291 40.4456 126.735 41.5723C127.132 42.5808 127.277 43.6709 127.157 44.7481C127.037 45.8252 126.655 46.8568 126.046 47.7531C125.437 48.6494 124.618 49.3834 123.66 49.8912C122.703 50.3991 121.636 50.6654 120.552 50.6671ZM120.552 37.932C119.252 37.9289 117.985 38.3427 116.937 39.1127C115.89 39.8826 115.117 40.9681 114.732 42.2099C114.346 43.4516 114.37 44.7841 114.798 46.0117C115.225 47.2394 116.036 48.2974 117.109 49.0306C118.183 49.7638 119.463 50.1334 120.763 50.0852C122.062 50.037 123.311 49.5736 124.328 48.763C125.344 47.9523 126.074 46.8371 126.41 45.5811C126.746 44.3252 126.67 42.9946 126.194 41.7848C125.748 40.6511 124.972 39.6774 123.966 38.9904C122.96 38.3034 121.77 37.9347 120.552 37.932Z" fill="#1D1E1B"/>
<path d="M101.071 62.0808C101.071 62.0808 97.0227 57.8492 99.2602 54.066C101.498 50.2827 102.497 50.7175 103.544 48.6442C104.591 46.5709 108.643 44.7682 112.069 46.113C112.069 46.113 116.731 43.2379 120.586 44.6194C124.441 46.0009 125.646 48.0124 126.487 51.2044C127.327 54.3964 128.321 55.8706 128.987 58.0945C129.654 60.3185 130.396 66.461 121.604 70.1303C112.813 73.7995 101.071 62.0808 101.071 62.0808Z" fill="#382256"/>
<path d="M117.932 71.1216C114.968 71.1216 111.566 69.9796 107.885 67.7286C105.362 66.162 103.008 64.3379 100.861 62.2856C100.689 62.1079 96.6875 57.8512 99.01 53.923C100.272 51.7879 101.153 50.9687 101.862 50.3078C102.453 49.8154 102.937 49.2072 103.284 48.5206C104.443 46.2232 108.582 44.5267 112.039 45.7981C112.829 45.3383 117.051 43.0485 120.684 44.3508C124.65 45.7749 125.918 47.9158 126.766 51.1368C127.156 52.5907 127.659 54.0119 128.269 55.3876C128.651 56.246 128.983 57.1253 129.265 58.0212C129.844 59.9534 131.004 66.523 121.715 70.4086C120.514 70.895 119.228 71.1374 117.932 71.1216ZM101.28 61.8779C101.51 62.1059 113.026 73.3977 121.493 69.8637C130.337 66.1712 129.253 59.9863 128.712 58.1777C128.437 57.3022 128.115 56.4423 127.746 55.6021C127.125 54.2025 126.613 52.7567 126.216 51.2778C125.396 48.1728 124.243 46.2348 120.498 44.9015C116.827 43.5819 112.275 46.3411 112.228 46.37L112.107 46.4454L111.971 46.3932C108.607 45.0736 104.762 46.9053 103.812 48.7853C103.433 49.5333 102.907 50.1971 102.266 50.7368C101.586 51.3706 100.737 52.1589 99.5182 54.2148C97.4333 57.7276 101.17 61.7619 101.28 61.8779Z" fill="#1D1E1B"/>
<path d="M117.247 59.4103H117.266C120.085 59.704 123.078 57.2251 123.204 57.1207C123.25 57.082 123.278 57.0269 123.284 56.9672C123.289 56.9076 123.271 56.8481 123.233 56.8018C123.214 56.7787 123.191 56.7597 123.164 56.7457C123.138 56.7317 123.109 56.7231 123.079 56.7204C123.05 56.7177 123.02 56.7209 122.991 56.7299C122.963 56.7389 122.937 56.7536 122.914 56.7729C122.885 56.798 119.94 59.2346 117.311 58.9602C117.253 58.9556 117.197 58.9728 117.152 59.0086C117.107 59.0443 117.077 59.0958 117.069 59.1525C117.06 59.2093 117.074 59.2671 117.107 59.3143C117.139 59.3614 117.189 59.3943 117.245 59.4064L117.247 59.4103Z" fill="black"/>
<path d="M111.74 73.5523L111.228 76.7173C111.228 76.7173 115.507 84.0307 123.001 76.8951C123.001 76.8951 120.794 72.5187 119.977 65.1724C119.977 65.1724 123.196 64.9386 123.103 62.0809C123.01 59.2232 120.835 58.4097 119.401 58.9894C119.401 58.9894 113.701 61.8587 109.974 50.2712C109.974 50.2712 104.136 51.7435 102.175 57.2851C100.214 62.8267 100.394 69.5952 104.494 72.1245C108.594 74.6537 111.74 73.5523 111.74 73.5523Z" fill="#FFCDB2"/>
<path d="M116.702 80.3112C116.425 80.3113 116.149 80.2918 115.875 80.2532C112.727 79.8088 111.044 76.9839 110.969 76.8641L110.917 76.7733L111.375 73.9426C110.341 74.1532 107.643 74.3986 104.332 72.3544C99.9281 69.6377 99.9823 62.5793 101.895 57.1711C103.885 51.5503 109.835 49.9891 109.894 49.9756L110.157 49.908L110.242 50.1668C112.097 55.9345 114.425 57.9575 116.054 58.6376C117.869 59.3989 119.25 58.7227 119.264 58.715L119.287 58.7034C119.714 58.5418 120.173 58.4836 120.627 58.5332C121.081 58.5829 121.517 58.7392 121.899 58.9893C122.813 59.5902 123.341 60.6819 123.385 62.0654C123.468 64.6255 121.132 65.2709 120.294 65.4196C121.121 72.4548 123.234 76.7212 123.258 76.7656L123.354 76.9588L123.198 77.1076C120.962 79.235 118.783 80.3112 116.702 80.3112ZM111.523 76.6554C111.825 77.1172 113.384 79.32 115.967 79.6794C118.054 79.9731 120.301 79.0128 122.645 76.8294C122.214 75.8903 120.406 71.6568 119.687 65.2052L119.652 64.9057L119.954 64.8825C120.073 64.8825 122.894 64.6313 122.811 62.0827C122.763 60.5602 122.118 59.824 121.586 59.4743C121.284 59.2754 120.939 59.1506 120.58 59.1096C120.22 59.0687 119.856 59.1129 119.517 59.2386C119.345 59.3217 117.817 60.0017 115.836 59.1728C113.353 58.1333 111.317 55.2543 109.782 50.6132C108.648 50.9784 104.1 52.6981 102.44 57.3663C100.543 62.7262 100.687 69.4252 104.635 71.8578C108.553 74.2769 111.604 73.2856 111.635 73.274L112.091 73.1195L111.523 76.6554Z" fill="#1D1E1B"/>
<path d="M120.154 63.8563C120.195 63.8637 120.236 63.8603 120.274 63.8463C120.313 63.8324 120.347 63.8085 120.373 63.7771C121.146 62.8303 121.41 61.9975 121.171 61.2981C120.829 60.2895 119.569 59.9842 119.517 59.9707C119.458 59.9569 119.397 59.9667 119.346 59.9983C119.295 60.0298 119.258 60.0803 119.244 60.1387C119.231 60.1972 119.24 60.2587 119.272 60.3098C119.304 60.3609 119.354 60.3974 119.412 60.4112C119.426 60.4112 120.485 60.6759 120.744 61.445C120.927 61.9879 120.684 62.6757 120.021 63.4911C119.984 63.5376 119.966 63.597 119.972 63.6563C119.978 63.7157 120.008 63.7703 120.054 63.808C120.083 63.8321 120.118 63.8487 120.154 63.8563Z" fill="black"/>
<path d="M108.742 59.2637C111.899 60.1331 116.289 58.9816 116.962 60.168C117.634 61.3543 116.983 62.8536 115.223 63.13C113.462 63.4063 111.754 63.2556 108.253 62.7706C104.752 62.2856 101.359 61.5513 101.877 59.6926C102.395 57.8338 104.101 57.9845 108.742 59.2637Z" fill="#FFB49F"/>
<path d="M121.266 66.2931C121.84 66.2931 122.306 65.8268 122.306 65.2516C122.306 64.6764 121.84 64.2102 121.266 64.2102C120.692 64.2102 120.227 64.6764 120.227 65.2516C120.227 65.8268 120.692 66.2931 121.266 66.2931Z" fill="#07ACEE"/>
<path d="M121.267 64.2103C121.51 64.2086 121.746 64.2921 121.934 64.4464C122.123 64.6008 122.251 64.8162 122.297 65.0552C122.343 65.2942 122.303 65.5417 122.186 65.7548C122.068 65.9679 121.88 66.1331 121.653 66.2217C121.53 66.2695 121.399 66.2938 121.267 66.2932C120.99 66.2932 120.726 66.1835 120.53 65.9881C120.335 65.7928 120.225 65.5279 120.225 65.2517C120.225 64.9755 120.335 64.7106 120.53 64.5153C120.726 64.32 120.99 64.2103 121.267 64.2103ZM121.267 63.6306C121.064 63.6299 120.862 63.6679 120.673 63.7427C120.322 63.8807 120.029 64.1371 119.847 64.4678C119.664 64.7984 119.603 65.1825 119.673 65.5536C119.743 65.9247 119.941 66.2596 120.232 66.5004C120.523 66.7413 120.889 66.873 121.267 66.8728C121.47 66.8734 121.671 66.8354 121.86 66.7607C122.259 66.6023 122.579 66.2922 122.751 65.8982C122.922 65.5043 122.93 65.0586 122.774 64.6585C122.656 64.3547 122.449 64.0937 122.18 63.9101C121.911 63.7265 121.592 63.6291 121.267 63.6306Z" fill="#1D1D1B"/>
<path d="M110.067 69.9991C109.242 69.9991 108.487 69.5972 107.824 68.803C107.796 68.7743 107.774 68.74 107.759 68.7024C107.745 68.6647 107.739 68.6244 107.741 68.5842C107.743 68.5439 107.753 68.5046 107.771 68.4685C107.789 68.4324 107.814 68.4005 107.845 68.3746C107.876 68.3488 107.912 68.3295 107.95 68.3183C107.989 68.307 108.03 68.3039 108.07 68.3091C108.11 68.3144 108.148 68.3279 108.183 68.3487C108.217 68.3695 108.247 68.3972 108.27 68.4301C108.817 69.087 109.43 69.4194 110.067 69.4194H110.083C111.395 69.4097 112.492 68.0668 112.504 68.0533C112.552 67.9933 112.622 67.9551 112.699 67.9469C112.776 67.9388 112.852 67.9614 112.912 68.0099C112.972 68.0583 113.011 68.1285 113.019 68.2052C113.027 68.2818 113.004 68.3585 112.956 68.4185C112.904 68.4822 111.671 69.9875 110.087 69.9991H110.067Z" fill="#1D1D1B"/>
<path d="M106.159 64.8186C106.121 64.8193 106.085 64.8121 106.05 64.7974C105.979 64.7686 105.922 64.7128 105.892 64.6421C105.862 64.5715 105.861 64.4918 105.89 64.4206L107.853 59.5785C107.868 59.5424 107.889 59.5096 107.917 59.4821C107.944 59.4545 107.977 59.4326 108.013 59.4178C108.049 59.403 108.088 59.3956 108.127 59.396C108.166 59.3964 108.204 59.4046 108.24 59.4201C108.275 59.4341 108.307 59.455 108.335 59.4816C108.362 59.5082 108.383 59.54 108.398 59.5751C108.413 59.6102 108.42 59.6479 108.42 59.6859C108.42 59.724 108.413 59.7617 108.398 59.7968L106.435 64.6389C106.413 64.6934 106.374 64.7397 106.325 64.7718C106.276 64.8039 106.217 64.8203 106.159 64.8186Z" fill="#1D1D1B"/>
<path d="M103.485 56.3731C103.427 56.3724 103.371 56.3543 103.323 56.3212C103.276 56.288 103.239 56.2414 103.219 56.1874C103.198 56.1333 103.194 56.0742 103.207 56.0177C103.22 55.9613 103.25 55.9101 103.292 55.8707C103.391 55.778 105.732 53.6487 107.276 55.1945C107.327 55.2494 107.355 55.322 107.354 55.3971C107.353 55.4722 107.322 55.5439 107.269 55.597C107.216 55.6501 107.144 55.6805 107.069 55.6819C106.994 55.6832 106.922 55.6553 106.867 55.6041C105.707 54.4448 103.706 56.2765 103.686 56.2959C103.632 56.3465 103.56 56.3741 103.485 56.3731Z" fill="black"/>
<path d="M115.349 57.996C115.304 57.9962 115.26 57.986 115.22 57.9662C115.18 57.9465 115.145 57.9176 115.119 57.882C114.554 57.1497 113.959 56.7401 113.358 56.6628C112.982 56.6124 112.6 56.7002 112.284 56.91C112.223 56.9572 112.146 56.9783 112.07 56.9687C111.994 56.9591 111.925 56.9196 111.877 56.8589C111.83 56.7982 111.809 56.7212 111.819 56.6449C111.828 56.5687 111.868 56.4992 111.928 56.4521C112.367 56.1474 112.903 56.0173 113.432 56.087C114.195 56.1855 114.918 56.6666 115.577 57.5284C115.61 57.5712 115.63 57.6224 115.636 57.6762C115.642 57.7301 115.632 57.7844 115.608 57.8331C115.584 57.8818 115.547 57.9229 115.502 57.9517C115.456 57.9805 115.403 57.9958 115.349 57.996Z" fill="black"/>
<path d="M111.27 73.6662C111.27 73.6662 113.88 73.017 115.306 71.9465L111.27 73.6662Z" fill="#4BD657"/>
<path d="M111.27 73.956C111.193 73.9652 111.116 73.9435 111.055 73.8957C110.994 73.8479 110.955 73.7777 110.945 73.7009C110.936 73.624 110.958 73.5466 111.006 73.4858C111.054 73.4249 111.124 73.3856 111.2 73.3763C111.226 73.3763 113.77 72.7271 115.133 71.705C115.163 71.6822 115.198 71.6655 115.235 71.656C115.271 71.6466 115.31 71.6445 115.347 71.6499C115.385 71.6553 115.421 71.6681 115.454 71.6874C115.487 71.7068 115.515 71.7325 115.538 71.7629C115.561 71.7934 115.578 71.828 115.587 71.8649C115.597 71.9018 115.599 71.9402 115.593 71.9778C115.588 72.0155 115.575 72.0517 115.556 72.0844C115.536 72.1172 115.511 72.1459 115.48 72.1687C114.023 73.2623 111.448 73.9076 111.34 73.9385C111.317 73.9472 111.294 73.9532 111.27 73.956Z" fill="black"/>
<path d="M118.875 57.4474H118.855C113.745 57.2542 111.886 50.7716 111.809 50.4915C111.774 50.368 111.79 50.2359 111.854 50.1243C111.917 50.0127 112.021 49.9307 112.145 49.8963C112.268 49.862 112.4 49.8781 112.512 49.9411C112.624 50.0042 112.706 50.109 112.74 50.2325C112.755 50.2924 114.489 56.3151 118.892 56.4793C119.02 56.4816 119.142 56.5347 119.231 56.627C119.32 56.7192 119.369 56.8429 119.366 56.971C119.364 57.0992 119.311 57.2212 119.219 57.3101C119.127 57.3991 119.003 57.4477 118.875 57.4454V57.4474Z" fill="white"/>
<path d="M102.997 64.21C102.199 64.2088 101.42 63.9711 100.757 63.5271C100.094 63.083 99.5775 62.4525 99.2728 61.7151C98.9681 60.9777 98.8887 60.1665 99.0448 59.384C99.2009 58.6015 99.5854 57.8828 100.15 57.3188C100.714 56.7547 101.433 56.3705 102.215 56.2148C102.998 56.0591 103.809 56.1388 104.546 56.4439C105.284 56.749 105.914 57.2658 106.358 57.9289C106.802 58.592 107.039 59.3718 107.04 60.1697C107.04 60.7004 106.935 61.226 106.732 61.7163C106.529 62.2066 106.231 62.6521 105.856 63.0273C105.48 63.4024 105.035 63.7 104.544 63.903C104.054 64.1059 103.528 64.2102 102.997 64.21ZM102.997 56.7188C102.314 56.72 101.646 56.9238 101.078 57.3046C100.51 57.6854 100.068 58.2259 99.8074 58.858C99.5468 59.4901 99.4795 60.1853 99.6141 60.8556C99.7486 61.5259 100.079 62.1412 100.563 62.6238C101.047 63.1064 101.664 63.4347 102.335 63.5669C103.005 63.6992 103.7 63.6296 104.331 63.3669C104.963 63.1042 105.502 62.6602 105.881 62.0912C106.259 61.5221 106.461 60.8534 106.46 60.1697C106.457 59.2532 106.091 58.3752 105.442 57.7282C104.793 57.0813 103.914 56.7183 102.997 56.7188Z" fill="#1D1E1B"/>
<path d="M112.093 65.6379C111.295 65.6379 110.514 65.4012 109.851 64.9577C109.187 64.5141 108.669 63.8838 108.364 63.1462C108.058 62.4087 107.978 61.5971 108.134 60.8141C108.29 60.0311 108.674 59.3119 109.239 58.7474C109.803 58.1829 110.523 57.7985 111.306 57.6427C112.089 57.487 112.9 57.567 113.638 57.8725C114.375 58.178 115.006 58.6953 115.449 59.3591C115.893 60.0229 116.129 60.8033 116.129 61.6016C116.128 62.6718 115.703 63.6979 114.946 64.4546C114.189 65.2113 113.163 65.6369 112.093 65.6379ZM112.093 58.1448C111.409 58.1448 110.741 58.3476 110.173 58.7274C109.604 59.1073 109.161 59.6471 108.899 60.2788C108.638 60.9104 108.569 61.6054 108.703 62.276C108.836 62.9465 109.165 63.5624 109.649 64.0458C110.132 64.5292 110.748 64.8584 111.419 64.9918C112.089 65.1252 112.784 65.0567 113.416 64.7951C114.048 64.5335 114.587 64.0904 114.967 63.522C115.347 62.9535 115.55 62.2853 115.55 61.6016C115.549 60.6851 115.184 59.8064 114.536 59.1584C113.888 58.5104 113.01 58.1459 112.093 58.1448Z" fill="#1D1E1B"/>
<path d="M115.84 61.8915C115.797 61.8912 115.754 61.8812 115.714 61.8621C115.675 61.8431 115.64 61.8154 115.613 61.7813C115.565 61.7207 115.544 61.6439 115.553 61.5676C115.562 61.4912 115.601 61.4216 115.661 61.3737L119.05 58.6976C119.08 58.674 119.114 58.6565 119.151 58.6461C119.187 58.6358 119.226 58.6328 119.264 58.6373C119.302 58.6418 119.338 58.6536 119.371 58.6723C119.405 58.6909 119.434 58.7159 119.458 58.7459C119.481 58.7758 119.499 58.8101 119.509 58.8468C119.519 58.8835 119.522 58.9219 119.518 58.9597C119.513 58.9976 119.502 59.0342 119.483 59.0675C119.464 59.1007 119.439 59.13 119.409 59.1536L116.02 61.8297C115.969 61.8696 115.906 61.8914 115.84 61.8915Z" fill="#1D1E1B"/>
<path d="M108.358 61.6306C108.302 61.6302 108.247 61.6135 108.2 61.5827C108.153 61.5519 108.116 61.5081 108.094 61.4567C107.846 60.8887 106.758 61.0703 106.741 61.0703C106.666 61.082 106.59 61.064 106.528 61.0203C106.467 60.9766 106.425 60.9105 106.411 60.8361C106.397 60.7618 106.413 60.6851 106.456 60.6224C106.498 60.5596 106.563 60.5158 106.637 60.5003C106.7 60.4887 108.182 60.2298 108.619 61.2268C108.635 61.262 108.644 61.3 108.645 61.3386C108.646 61.3773 108.639 61.4157 108.625 61.4517C108.611 61.4878 108.59 61.5206 108.563 61.5484C108.536 61.5761 108.504 61.5982 108.468 61.6133C108.433 61.6266 108.396 61.6325 108.358 61.6306Z" fill="#1D1E1B"/>
<path d="M125.496 45.2706H125.482C125.419 45.2688 125.356 45.2546 125.298 45.2287C125.24 45.2028 125.188 45.1657 125.145 45.1195C125.101 45.0734 125.067 45.0192 125.044 44.9599C125.022 44.9006 125.011 44.8374 125.013 44.774C125.065 42.9442 124.607 41.5317 123.66 40.5753C122.25 39.1648 120.182 39.2034 120.165 39.2054C120.037 39.2095 119.912 39.1625 119.819 39.0748C119.725 38.9871 119.67 38.8659 119.666 38.7378C119.662 38.6097 119.709 38.4851 119.797 38.3916C119.885 38.2982 120.006 38.2434 120.134 38.2393C120.234 38.2393 122.622 38.1794 124.334 39.8855C125.494 41.0352 126.044 42.6891 125.985 44.801C125.98 44.9276 125.927 45.0476 125.836 45.1354C125.744 45.2231 125.622 45.2717 125.496 45.2706Z" fill="white"/>
<path d="M128.528 46.1479C128.493 46.147 128.458 46.1405 128.425 46.1285C128.353 46.1008 128.295 46.0459 128.264 45.9757C128.232 45.9055 128.23 45.8257 128.257 45.7537C129.938 41.3869 126.881 39.0528 126.75 38.9543C126.688 38.9084 126.647 38.8399 126.636 38.7638C126.625 38.6877 126.644 38.6102 126.69 38.5485C126.736 38.4867 126.804 38.4457 126.881 38.4345C126.957 38.4233 127.034 38.4427 127.096 38.4886C127.131 38.5156 130.641 41.1724 128.798 45.9604C128.778 46.0155 128.741 46.063 128.692 46.0965C128.644 46.13 128.586 46.148 128.528 46.1479Z" fill="#1D1D1B"/>
<path d="M105.516 60.9523C105.461 60.9521 105.406 60.9361 105.36 60.9059C105.313 60.8758 105.276 60.8329 105.253 60.7823C105.171 60.5787 105.047 60.3939 104.891 60.2392C104.735 60.0844 104.549 59.9629 104.345 59.8819C103.483 59.5592 102.438 60.0288 102.426 60.0345C102.392 60.0504 102.354 60.0593 102.316 60.0607C102.278 60.0621 102.24 60.056 102.205 60.0428C102.169 60.0295 102.136 60.0092 102.108 59.9833C102.08 59.9574 102.058 59.9263 102.042 59.8916C102.026 59.857 102.017 59.8196 102.016 59.7815C102.014 59.7434 102.02 59.7054 102.034 59.6697C102.047 59.634 102.067 59.6013 102.093 59.5734C102.119 59.5455 102.15 59.5229 102.185 59.5071C102.235 59.4839 103.452 58.9274 104.544 59.337C104.822 59.4432 105.074 59.6048 105.287 59.8122C105.5 60.0195 105.668 60.2682 105.781 60.5428C105.801 60.587 105.809 60.6355 105.806 60.6839C105.802 60.7323 105.787 60.7791 105.76 60.8199C105.734 60.8607 105.698 60.8942 105.655 60.9173C105.612 60.9405 105.565 60.9525 105.516 60.9523Z" fill="#1D1D1B"/>
<path d="M113.722 61.845C113.656 61.8448 113.592 61.8223 113.54 61.7813C111.944 60.5041 110.337 61.6016 110.321 61.6132C110.258 61.6573 110.18 61.6745 110.105 61.6611C110.029 61.6477 109.962 61.6047 109.918 61.5417C109.873 61.4787 109.856 61.4007 109.87 61.325C109.883 61.2493 109.926 61.1819 109.989 61.1378C110.008 61.1243 111.971 59.7853 113.904 61.331C113.95 61.369 113.984 61.4203 114 61.478C114.016 61.5358 114.014 61.5971 113.995 61.6537C113.975 61.7103 113.938 61.7594 113.889 61.7944C113.84 61.8293 113.782 61.8483 113.722 61.8489V61.845Z" fill="#1D1D1B"/>
<path d="M108.626 77.2178C108.626 77.2178 85.4607 76.5144 77.0382 112.49C65.8063 114.596 58.0387 115.371 54.3984 128.46L67.0409 134.946C67.0409 134.946 77.0439 138.811 89.8544 130.91" fill="#07ACEE"/>
<path d="M73.4982 136.187C69.4715 136.187 67.0331 135.263 66.9287 135.221L66.8997 135.207L54.265 128.715C54.2055 128.684 54.1584 128.634 54.1316 128.573C54.1048 128.512 54.1002 128.443 54.1182 128.379C57.6232 115.773 65.0429 114.405 75.3126 112.511L76.7966 112.237C78.7288 104.077 81.5806 97.1465 85.2847 91.6358C88.2757 87.1918 91.8252 83.6442 95.8326 81.1149C102.675 76.7945 108.392 76.9182 108.632 76.924C108.67 76.925 108.707 76.9335 108.742 76.949C108.777 76.9645 108.808 76.9866 108.834 77.0143C108.861 77.0419 108.881 77.0745 108.895 77.11C108.908 77.1456 108.915 77.1835 108.914 77.2216C108.91 77.2983 108.877 77.3706 108.821 77.4233C108.765 77.4759 108.691 77.5047 108.614 77.5037C108.558 77.5037 102.804 77.3858 96.1089 81.6251C89.9258 85.5436 81.6405 94.0877 77.3182 112.554C77.3048 112.608 77.276 112.658 77.2353 112.697C77.1945 112.735 77.1435 112.762 77.0883 112.772L75.4169 113.081C65.0448 114.994 58.1701 116.262 54.7423 128.307L67.1509 134.683C67.5683 134.836 77.3762 138.262 89.6959 130.666C89.7615 130.626 89.8405 130.614 89.9153 130.632C89.9901 130.649 90.0547 130.696 90.0949 130.762C90.1351 130.828 90.1477 130.906 90.1297 130.981C90.1118 131.056 90.0648 131.121 89.9992 131.161C83.3254 135.275 77.4187 136.163 73.6393 136.185L73.4982 136.187Z" fill="#1D1D1B"/>
<path d="M91.2508 103.19C91.2508 103.19 87.0406 113.367 89.848 130.918L91.2508 103.19Z" fill="#07ACEE"/>
<path d="M89.8406 131.207C89.7717 131.208 89.7049 131.183 89.6524 131.139C89.6 131.094 89.5652 131.032 89.5546 130.964C86.7645 113.535 90.9342 103.181 90.9767 103.078C90.9907 103.042 91.0117 103.01 91.0386 102.982C91.0654 102.954 91.0976 102.932 91.1331 102.917C91.1686 102.902 91.2068 102.894 91.2454 102.894C91.284 102.893 91.3223 102.901 91.3579 102.916C91.3936 102.931 91.426 102.952 91.4531 102.98C91.4803 103.007 91.5016 103.04 91.516 103.076C91.5303 103.112 91.5373 103.15 91.5366 103.188C91.5359 103.227 91.5275 103.265 91.5119 103.301C91.4694 103.401 87.3654 113.619 90.1265 130.871C90.1326 130.909 90.1312 130.947 90.1223 130.984C90.1134 131.022 90.0973 131.057 90.0748 131.088C90.0524 131.118 90.0241 131.144 89.9915 131.164C89.9589 131.184 89.9227 131.198 89.885 131.203L89.8406 131.207Z" fill="#1D1D1B"/>
<path d="M85.5158 105.968C85.6671 105.305 85.2533 104.646 84.5916 104.495C83.93 104.344 83.2709 104.758 83.1197 105.421C82.9684 106.084 83.3821 106.744 84.0437 106.895C84.7054 107.046 85.3645 106.631 85.5158 105.968Z" fill="#51CEF4"/>
<path d="M157.361 74.6112L160.946 94.5631C160.946 94.5631 166.903 97.6547 171.959 94.0743L173.746 74.3098L157.361 74.6112Z" fill="#4BD657"/>
<path d="M166.377 96.0819C164.451 96.0643 162.55 95.6361 160.803 94.826L160.677 94.7603L157.018 74.3291L174.062 74.0181L172.234 94.2386L172.124 94.3159C170.441 95.4923 168.43 96.11 166.377 96.0819ZM161.195 94.3719C162.065 94.7738 167.247 96.9534 171.681 93.9179L173.42 74.6093L157.702 74.8953L161.195 94.3719Z" fill="#1D1E1B"/>
<path d="M82.5815 101.326C82.4849 101.326 82.3899 101.302 82.305 101.256C82.2201 101.21 82.148 101.143 82.0954 101.062C82.0428 100.981 82.0113 100.888 82.0037 100.792C81.9962 100.696 82.0128 100.599 82.052 100.511C88.6428 85.7795 95.964 82.746 96.2808 82.6243C96.4238 82.5676 96.5834 82.5701 96.7246 82.6311C96.8657 82.6922 96.9768 82.8069 97.0334 82.9498C97.0901 83.0928 97.0875 83.2524 97.0265 83.3935C96.9654 83.5347 96.8508 83.6458 96.7079 83.7024C96.6306 83.7334 89.4794 86.7476 83.1109 100.984C83.065 101.086 82.9907 101.173 82.8967 101.233C82.8028 101.294 82.6933 101.326 82.5815 101.326Z" fill="white"/>
<path d="M158.297 79.8303L160.19 90.4053C163.921 90.5714 168.764 90.0691 172.363 89.5822L173.268 79.5811C167.89 80.3018 162.206 80.1221 158.297 79.8303Z" fill="white"/>
<path d="M161.731 90.7279C161.197 90.7279 160.678 90.7163 160.185 90.6951L159.953 90.6835L157.951 79.5134L158.324 79.5405C162.158 79.8264 167.856 80.0158 173.235 79.2932L173.596 79.2449L172.63 89.8391L172.4 89.87C169.38 90.2777 165.253 90.7279 161.731 90.7279ZM160.436 90.125C164.074 90.2584 168.725 89.7754 172.097 89.3252L172.947 79.9153C167.798 80.5664 162.413 80.4119 158.649 80.1472L160.436 90.125Z" fill="#1D1E1B"/>
<path d="M158.629 71.4251L159.96 69.8271C160.157 69.5897 160.43 69.429 160.733 69.3731C162.173 69.1103 166.634 68.4476 171.039 69.3267C171.238 69.3666 171.424 69.451 171.585 69.5735C171.745 69.6961 171.876 69.8534 171.967 70.0339L172.663 71.4251H158.629Z" fill="white"/>
<path d="M173.145 71.715H158.014L159.753 69.6417C159.995 69.3514 160.331 69.1552 160.703 69.0872C162.01 68.8495 166.62 68.1442 171.12 69.0427C171.361 69.0919 171.587 69.1949 171.783 69.3442C171.978 69.4934 172.137 69.685 172.248 69.9045L173.145 71.715ZM159.252 71.1353H172.198L171.711 70.1692C171.64 70.0285 171.538 69.9057 171.413 69.81C171.288 69.7143 171.143 69.6482 170.989 69.6166C166.589 68.7394 162.069 69.4234 160.79 69.6629C160.552 69.7071 160.337 69.8329 160.182 70.0185L159.252 71.1353Z" fill="#1D1E1B"/>
<path d="M157.406 71.57L156.107 73.9814C156.032 74.1203 155.996 74.2765 156 74.4342C156.005 74.5919 156.052 74.7456 156.135 74.8797C156.218 75.0139 156.334 75.1239 156.473 75.1985C156.612 75.2732 156.769 75.3099 156.926 75.305L174.328 74.7524C174.488 74.7474 174.644 74.6996 174.779 74.6141C174.914 74.5285 175.024 74.4084 175.097 74.266C175.17 74.1237 175.204 73.9643 175.195 73.8045C175.186 73.6447 175.134 73.4903 175.045 73.3573L173.601 71.1932C173.518 71.0658 173.403 70.9622 173.267 70.8922C173.132 70.8222 172.981 70.7881 172.829 70.7932L158.171 71.0985C158.013 71.103 157.859 71.149 157.725 71.2318C157.591 71.3145 157.481 71.4311 157.406 71.57Z" fill="white"/>
<path d="M156.89 75.5851C156.685 75.5845 156.483 75.5307 156.305 75.4291C156.127 75.3275 155.978 75.1815 155.873 75.0052C155.768 74.8289 155.71 74.6284 155.705 74.4233C155.701 74.2181 155.749 74.0154 155.847 73.8346L157.145 71.4232C157.245 71.2383 157.392 71.083 157.571 70.9733C157.75 70.8637 157.955 70.8035 158.165 70.799L172.825 70.4938C173.024 70.4887 173.222 70.5345 173.399 70.6267C173.576 70.719 173.727 70.8548 173.837 71.0213L175.281 73.1873C175.398 73.3635 175.466 73.5678 175.477 73.7791C175.489 73.9904 175.444 74.2009 175.347 74.389C175.25 74.5772 175.105 74.736 174.926 74.8491C174.747 74.9622 174.541 75.0255 174.33 75.0325L156.93 75.5851H156.89ZM172.85 71.0734H172.836L158.185 71.3768C158.077 71.3792 157.972 71.41 157.88 71.4659C157.788 71.5219 157.712 71.6011 157.661 71.6956L156.362 74.1069C156.312 74.2011 156.287 74.3069 156.29 74.4137C156.293 74.5205 156.325 74.6244 156.381 74.7153C156.437 74.8062 156.516 74.8807 156.61 74.9312C156.704 74.9818 156.81 75.0068 156.917 75.0035L174.318 74.4509C174.427 74.4473 174.532 74.4149 174.624 74.357C174.715 74.299 174.79 74.2177 174.839 74.1214C174.889 74.0251 174.912 73.9173 174.906 73.8091C174.9 73.7009 174.865 73.5963 174.805 73.5061L173.362 71.342C173.306 71.2591 173.231 71.1912 173.142 71.1444C173.054 71.0976 172.956 71.0732 172.856 71.0734H172.85Z" fill="#1D1E1B"/>
<path d="M172.62 92.9382C172.62 92.9382 177.522 94.0281 179.675 88.7087C181.827 83.3894 182.165 77.7898 179.271 74.42C176.376 71.0503 172.914 70.8203 170.638 71.8715C168.362 72.9226 167.933 75.3977 169.824 77.9753C169.824 77.9753 166.275 80.5413 169.855 84.8771C168.364 85.3988 167.073 89.9105 171.467 90.61C171.629 91.4777 172.028 92.2835 172.62 92.9382Z" fill="#FFCDB2"/>
<path d="M173.639 93.3112C173.276 93.3157 172.914 93.2852 172.557 93.2204L172.464 93.1991L172.402 93.1276C171.823 92.4841 171.417 91.7043 171.222 90.8612C169.423 90.5134 168.323 89.441 168.176 87.8933C168.066 86.6567 168.619 85.3235 169.409 84.7844C168.302 83.3488 167.829 81.9479 167.999 80.6127C168.147 79.5759 168.654 78.624 169.432 77.9231C168.493 76.5474 168.147 75.1408 168.466 73.937C168.731 72.913 169.432 72.1072 170.524 71.6068C172.742 70.5827 176.425 70.6542 179.497 74.2307C182.202 77.3821 182.372 82.8348 179.949 88.8169C178.353 92.747 175.275 93.3112 173.639 93.3112ZM172.775 92.6717C173.455 92.7915 177.509 93.2899 179.406 88.5986C181.746 82.8213 181.613 77.585 179.051 74.6094C176.193 71.2802 172.895 71.1488 170.76 72.1343C169.842 72.5574 169.241 73.2318 169.021 74.0819C168.737 75.1794 169.106 76.501 170.058 77.8033L170.23 78.0391L169.995 78.2091C169.227 78.831 168.72 79.7184 168.574 80.6959C168.416 81.9479 168.922 83.2927 170.078 84.6936L170.342 85.0144L169.956 85.1515C169.326 85.3718 168.652 86.6219 168.76 87.8412C168.829 88.614 169.282 89.9666 171.519 90.3241L171.722 90.355L171.759 90.5578C171.903 91.3405 172.254 92.0704 172.775 92.6717Z" fill="black"/>
<path d="M177.95 79.9558C177.91 79.956 177.872 79.9483 177.835 79.933C177.799 79.9178 177.766 79.8952 177.739 79.8669C177.602 79.7239 174.402 76.4739 169.404 78.354C169.368 78.3703 169.329 78.3791 169.289 78.3798C169.249 78.3805 169.21 78.373 169.173 78.3579C169.137 78.3428 169.104 78.3203 169.076 78.2919C169.048 78.2635 169.027 78.2297 169.013 78.1926C168.999 78.1556 168.993 78.1161 168.994 78.0765C168.996 78.0369 169.006 77.9981 169.024 77.9625C169.041 77.9269 169.066 77.8953 169.096 77.8696C169.126 77.8439 169.161 77.8246 169.199 77.813C174.568 75.7919 178.124 79.4283 178.158 79.467C178.198 79.5077 178.225 79.5592 178.235 79.6151C178.246 79.671 178.239 79.7287 178.217 79.7809C178.195 79.8332 178.157 79.8777 178.11 79.9088C178.062 79.9399 178.007 79.9563 177.95 79.9558Z" fill="#1D1D1B"/>
<path d="M176.755 85.2249C176.726 85.225 176.698 85.2205 176.67 85.2115C176.632 85.1999 172.632 84.0019 169.921 85.1748C169.851 85.2009 169.774 85.1993 169.706 85.1702C169.637 85.1411 169.583 85.0868 169.553 85.0185C169.524 84.9502 169.521 84.8732 169.547 84.8033C169.573 84.7335 169.624 84.6762 169.691 84.6434C172.599 83.3855 176.668 84.6047 176.84 84.6569C176.908 84.6765 176.966 84.7198 177.003 84.7789C177.041 84.8379 177.056 84.9087 177.046 84.978C177.035 85.0474 177 85.1107 176.947 85.1561C176.893 85.2015 176.825 85.2259 176.755 85.2249Z" fill="#1D1D1B"/>
<path d="M173.471 91.1838C172.706 91.1773 171.945 91.0682 171.208 90.8593C171.137 90.8355 171.077 90.7846 171.042 90.7175C171.008 90.6504 171 90.5724 171.022 90.5001C171.044 90.4278 171.093 90.367 171.16 90.3305C171.226 90.294 171.304 90.2847 171.376 90.3047C171.401 90.3047 173.921 91.0622 175.409 90.1559C175.475 90.116 175.554 90.1038 175.629 90.1221C175.703 90.1404 175.768 90.1877 175.808 90.2535C175.848 90.3194 175.86 90.3984 175.842 90.4732C175.823 90.5481 175.776 90.6125 175.71 90.6525C175.051 91.0583 174.224 91.1838 173.471 91.1838Z" fill="#1D1D1B"/>
<path d="M179.688 77.6642C179.588 77.6642 179.491 77.6333 179.409 77.5759C179.328 77.5185 179.266 77.4373 179.232 77.3435C179.232 77.3145 178.248 74.6867 175.829 73.5563C174.326 72.853 172.564 72.8608 170.591 73.5795C170.531 73.6014 170.468 73.6113 170.405 73.6086C170.341 73.6059 170.279 73.5908 170.221 73.5641C170.164 73.5373 170.112 73.4995 170.069 73.4527C170.026 73.406 169.993 73.3513 169.971 73.2917C169.949 73.2321 169.939 73.1687 169.942 73.1053C169.944 73.0418 169.96 72.9795 169.986 72.9219C170.013 72.8644 170.051 72.8126 170.098 72.7696C170.144 72.7266 170.199 72.6933 170.259 72.6715C172.487 71.8599 174.51 71.8638 176.249 72.6849C179.035 73.993 180.098 76.8953 180.142 77.0189C180.168 77.0917 180.175 77.1696 180.165 77.246C180.154 77.3224 180.125 77.3953 180.081 77.4584C180.037 77.5215 179.978 77.573 179.909 77.6089C179.841 77.6447 179.765 77.6637 179.688 77.6642Z" fill="white"/>
<path d="M177.904 82.2861C177.829 82.2858 177.755 82.2682 177.688 82.2347C177.621 82.2012 177.562 82.1527 177.517 82.0929C177.407 81.9441 174.886 78.6285 170.602 80.1105C170.481 80.1523 170.348 80.1441 170.233 80.0879C170.117 80.0318 170.029 79.9321 169.987 79.8109C169.946 79.6897 169.954 79.5569 170.01 79.4417C170.066 79.3264 170.166 79.2383 170.287 79.1966C175.258 77.4769 178.267 81.4804 178.296 81.5152C178.333 81.5663 178.361 81.6242 178.376 81.6858C178.391 81.7474 178.394 81.8113 178.384 81.874C178.374 81.9367 178.352 81.9969 178.319 82.051C178.286 82.1051 178.243 82.1522 178.191 82.1895C178.109 82.2524 178.007 82.2864 177.904 82.2861Z" fill="white"/>
<path d="M74.0921 62.5893C85.2383 62.5893 94.2739 53.5535 94.2739 42.4074C94.2739 31.2613 85.2383 22.2256 74.0921 22.2256C62.9459 22.2256 53.9102 31.2613 53.9102 42.4074C53.9102 53.5535 62.9459 62.5893 74.0921 62.5893Z" fill="white"/>
<path d="M74.0676 62.8753C68.6867 62.866 63.526 60.7375 59.7033 56.9505C55.8806 53.1636 53.7036 48.0231 53.6438 42.6425C53.5841 37.2619 55.6462 32.0744 59.3839 28.2034C63.1215 24.3325 68.2336 22.0897 73.6129 21.9609C78.9923 21.8322 84.2059 23.8277 88.1245 27.5154C92.0431 31.203 94.3512 36.2859 94.549 41.6632C94.7468 47.0405 92.8183 52.2792 89.1812 56.2447C85.5441 60.2103 80.4911 62.5835 75.1168 62.8502C74.771 62.8753 74.4154 62.8753 74.0676 62.8753ZM74.1043 22.5115C73.77 22.5115 73.4339 22.5212 73.0957 22.5366C69.1667 22.7345 65.3845 24.093 62.2274 26.4403C59.0704 28.7876 56.6803 32.0183 55.3593 35.7239C54.0383 39.4295 53.8457 43.4437 54.8059 47.2588C55.7661 51.0738 57.836 54.5184 60.7539 57.1572C63.6717 59.7959 67.3065 61.5102 71.1985 62.0833C75.0906 62.6564 79.0652 62.0626 82.6198 60.377C86.1744 58.6913 89.1493 55.9895 91.1685 52.6132C93.1876 49.2368 94.1604 45.3376 93.9636 41.4085C93.7009 36.3158 91.495 31.5177 87.8004 28.0029C84.1058 24.488 79.2038 22.524 74.1043 22.5154V22.5115Z" fill="#1D1E1B"/>
<path d="M89.9931 71.2125C91.6407 71.2125 92.9765 69.8768 92.9765 68.2292C92.9765 66.5815 91.6407 65.2458 89.9931 65.2458C88.3454 65.2458 87.0098 66.5815 87.0098 68.2292C87.0098 69.8768 88.3454 71.2125 89.9931 71.2125Z" fill="white"/>
<path d="M89.9938 71.5023C89.3465 71.5023 88.7137 71.3103 88.1754 70.9507C87.6371 70.591 87.2176 70.0799 86.9698 69.4818C86.7221 68.8837 86.6573 68.2256 86.7836 67.5906C86.9099 66.9557 87.2217 66.3724 87.6794 65.9147C88.1372 65.4569 88.7204 65.1453 89.3553 65.019C89.9902 64.8927 90.6484 64.9575 91.2465 65.2052C91.8445 65.4529 92.3558 65.8725 92.7154 66.4107C93.0751 66.949 93.2671 67.5818 93.2671 68.2292C93.264 69.0963 92.9181 69.9271 92.3049 70.5403C91.6917 71.1534 90.861 71.4993 89.9938 71.5023ZM89.9938 65.5357C89.4611 65.5357 88.9403 65.6936 88.4974 65.9896C88.0545 66.2855 87.7092 66.7063 87.5054 67.1984C87.3015 67.6906 87.2482 68.2322 87.3521 68.7547C87.4561 69.2772 87.7126 69.757 88.0893 70.1337C88.466 70.5104 88.9459 70.767 89.4684 70.8709C89.9909 70.9749 90.5325 70.9215 91.0246 70.7176C91.5168 70.5138 91.9374 70.1685 92.2334 69.7256C92.5294 69.2826 92.6874 68.7619 92.6874 68.2292C92.6844 67.5157 92.3996 66.8325 91.8951 66.328C91.3906 65.8235 90.7072 65.5387 89.9938 65.5357Z" fill="#1D1E1B"/>
<path d="M64.6836 47.8406L68.0051 53.6855C68.1588 53.9555 68.3851 54.1771 68.6583 54.325C68.9315 54.4728 69.2408 54.5411 69.5509 54.5221C72.3526 54.3289 80.0234 53.1541 84.0154 45.804C84.1474 45.5572 84.2145 45.281 84.2104 45.0011C84.2063 44.7213 84.1312 44.4471 83.9922 44.2042L79.8031 36.8115" fill="#382256"/>
<path d="M69.4514 54.8159C69.1066 54.8149 68.7681 54.723 68.47 54.5497C68.1718 54.3764 67.9246 54.1277 67.753 53.8286L64.4297 47.9837L64.934 47.6977L68.2573 53.5427C68.3829 53.7678 68.5703 53.9523 68.7972 54.0745C69.0242 54.1967 69.2814 54.2515 69.5384 54.2324C72.5237 54.0392 79.8853 52.8103 83.7671 45.6669C83.8753 45.4631 83.9303 45.2353 83.927 45.0046C83.9236 44.7739 83.862 44.5478 83.7479 44.3472L79.5588 36.9547L80.0631 36.6687L84.2522 44.0613C84.4138 44.3477 84.5008 44.6702 84.5052 44.9991C84.5096 45.3279 84.4312 45.6526 84.2773 45.9433C80.2583 53.3417 72.657 54.6092 69.577 54.8121L69.4514 54.8159Z" fill="#1D1E1B"/>
<path d="M65.5241 49.3189C65.5241 49.3189 79.4689 47.1626 80.9432 38.8097L79.8109 36.8118L64.6836 47.8408L65.5241 49.3189Z" fill="#050505"/>
<path d="M58.9338 48.4957L66.2762 35.5364C66.3738 35.3618 66.5278 35.2256 66.713 35.1499L81.6566 28.9978C81.8217 28.9299 82.0034 28.9132 82.1782 28.9499C82.3529 28.9865 82.5125 29.0749 82.6364 29.2034C82.7603 29.3319 82.8428 29.4947 82.8731 29.6706C82.9034 29.8465 82.8801 30.0274 82.8063 30.19L77.3749 42.1426C77.2826 42.3451 77.1178 42.5056 76.9131 42.5928L60.0507 49.7516C59.88 49.8216 59.6918 49.8368 59.5121 49.7951C59.3324 49.7535 59.17 49.6571 59.0474 49.5193C58.9248 49.3814 58.848 49.2089 58.8277 49.0256C58.8074 48.8422 58.8444 48.6571 58.9338 48.4957Z" fill="#382256"/>
<path d="M59.6979 50.1227C59.492 50.1213 59.2901 50.0661 59.1121 49.9625C58.9342 49.8589 58.7864 49.7107 58.6834 49.5324C58.5805 49.3541 58.5261 49.1519 58.5254 48.946C58.5247 48.7401 58.5779 48.5376 58.6797 48.3586L66.022 35.3993C66.1526 35.1691 66.3568 34.9895 66.6017 34.8892L81.5454 28.737C81.7642 28.6474 82.0049 28.6256 82.2364 28.6743C82.4678 28.723 82.6792 28.8401 82.8433 29.0104C83.0074 29.1808 83.1164 29.3964 83.1565 29.6294C83.1966 29.8625 83.1658 30.1023 83.068 30.3176L77.6385 42.2702C77.515 42.5387 77.2959 42.7516 77.024 42.8673L60.1636 50.0261C60.0164 50.0892 59.8581 50.122 59.6979 50.1227ZM59.1839 48.6446C59.1216 48.7536 59.0951 48.8793 59.1081 49.0042C59.1211 49.1291 59.173 49.2467 59.2565 49.3405C59.34 49.4342 59.4508 49.4994 59.5734 49.5267C59.6959 49.554 59.824 49.5422 59.9395 49.4928L76.8018 42.334C76.9404 42.2762 77.0516 42.1677 77.1129 42.0307L82.5444 30.078C82.5947 29.9686 82.6108 29.8467 82.5907 29.728C82.5707 29.6094 82.5153 29.4994 82.4318 29.4126C82.3484 29.3259 82.2408 29.2663 82.123 29.2416C82.0052 29.2169 81.8828 29.2283 81.7715 29.2742L66.8278 35.4263C66.7036 35.4773 66.6002 35.5685 66.5341 35.6852L59.1839 48.6446Z" fill="#1D1E1B"/>
<path d="M75.7767 41.8141C75.6801 41.8141 75.5851 41.7899 75.5002 41.7438C75.4153 41.6977 75.3434 41.6312 75.2908 41.5501C75.2382 41.4691 75.2066 41.3762 75.1991 41.2799C75.1915 41.1836 75.2081 41.0869 75.2474 40.9987L79.7532 30.9165C79.7843 30.847 79.8288 30.7842 79.8841 30.7319C79.9394 30.6795 80.0045 30.6387 80.0756 30.6115C80.1468 30.5843 80.2226 30.5714 80.2987 30.5735C80.3749 30.5756 80.4498 30.5927 80.5193 30.6238C80.5888 30.6548 80.6516 30.6993 80.704 30.7546C80.7563 30.8099 80.7972 30.8751 80.8243 30.9462C80.8515 31.0174 80.8645 31.0931 80.8624 31.1693C80.8603 31.2454 80.8432 31.3203 80.8121 31.3898L76.3158 41.4779C76.2685 41.5803 76.1922 41.6667 76.0965 41.7265C76.0007 41.7862 75.8896 41.8166 75.7767 41.8141Z" fill="white"/>
<path d="M87.5605 44.8922C87.5491 44.9013 87.5361 44.908 87.5222 44.912C87.5082 44.916 87.4935 44.9171 87.479 44.9153C87.4646 44.9135 87.4508 44.9088 87.4382 44.9015C87.4256 44.8942 87.4146 44.8845 87.4059 44.8729C87.0195 44.357 85.209 41.7156 86.7837 39.7872C88.3894 37.8222 90.8413 41.5534 91.2278 42.1949C91.243 42.219 91.2482 42.2481 91.242 42.276C91.2359 42.3039 91.2189 42.3282 91.195 42.3436L89.1062 43.6787C89.0825 43.6936 89.054 43.6986 89.0266 43.6929C88.9992 43.6871 88.9752 43.671 88.9594 43.6479L88.03 42.2701C88.0156 42.2484 87.9938 42.2326 87.9686 42.2257C87.9434 42.2188 87.9166 42.2212 87.893 42.2325C87.8695 42.2438 87.8508 42.2632 87.8405 42.2872C87.8301 42.3112 87.8289 42.338 87.8368 42.3629L88.4029 44.1155C88.4097 44.1363 88.4101 44.1587 88.4039 44.1798C88.3977 44.2008 88.3852 44.2195 88.3682 44.2333L87.5605 44.8922Z" fill="white"/>
<path d="M87.4918 45.2051H87.4435C87.3903 45.1981 87.3391 45.1805 87.293 45.1533C87.2468 45.1261 87.2067 45.0898 87.1749 45.0467C86.771 44.5057 84.8562 41.702 86.5604 39.6056C86.7184 39.3863 86.929 39.2103 87.1727 39.0935C87.4164 38.9767 87.6856 38.9229 87.9555 38.937C89.4897 39.0356 91.0471 41.3388 91.476 42.044C91.5316 42.1328 91.5498 42.2399 91.5266 42.342C91.5034 42.4441 91.4408 42.5328 91.3523 42.5889L89.2655 43.9241C89.1782 43.9807 89.0721 44.0008 88.9701 43.9798C88.8681 43.9589 88.7785 43.8985 88.7206 43.812L88.5101 43.499L88.682 44.0284C88.7065 44.105 88.7074 44.1872 88.6847 44.2644C88.662 44.3415 88.6166 44.4102 88.5545 44.4613L87.7449 45.1182C87.6729 45.1751 87.5836 45.2057 87.4918 45.2051ZM87.8531 39.5109C87.6863 39.5167 87.5232 39.5613 87.3766 39.6411C87.23 39.721 87.1041 39.8338 87.0087 39.9708C85.6871 41.59 87.0261 43.8217 87.5285 44.5443L88.0927 44.0863L87.5633 42.4537C87.533 42.3622 87.5368 42.2628 87.5742 42.1739C87.6116 42.0851 87.68 42.0129 87.7666 41.9706C87.8532 41.9284 87.9522 41.919 88.0452 41.9442C88.1382 41.9694 88.219 42.0276 88.2724 42.1078L89.1032 43.3386L90.8886 42.1967C90.0945 40.9639 88.8791 39.5747 87.9188 39.5128L87.8531 39.5109Z" fill="black"/>
<path d="M83.2362 30.0814L82.6973 30.2949L86.5193 39.9433L87.0582 39.7299L83.2362 30.0814Z" fill="#1D1E1B"/>
<path d="M61.2298 20.0789C61.2298 20.0789 51.1823 24.1365 49.4434 37.6619L61.2298 20.0789Z" fill="white"/>
<path d="M49.732 37.6987L49.1523 37.6252C50.0624 30.5572 53.2583 26.0938 55.7818 23.5936C58.5197 20.8788 61.0142 19.8528 61.1185 19.8103L61.335 20.3474C61.3098 20.359 58.8231 21.3831 56.1702 24.0186C53.724 26.459 50.617 30.8007 49.732 37.6987Z" fill="#1D1E1B"/>
<path d="M128.542 147.637L127.994 146.265C127.894 146.014 127.846 145.745 127.852 145.475C127.859 145.205 127.92 144.938 128.032 144.692L138.323 122.408C138.466 122.078 138.709 121.8 139.018 121.616C139.327 121.431 139.686 121.349 140.045 121.38C144.605 121.867 160.859 123.939 164.609 129.07C167.981 133.687 166.775 130.464 166.045 128.744C165.921 128.453 165.869 128.138 165.891 127.823C165.914 127.508 166.011 127.203 166.174 126.933C167.527 124.731 171.611 119.226 179.342 117.591C179.722 117.519 180.115 117.578 180.457 117.76C180.798 117.941 181.067 118.233 181.22 118.588L181.812 119.852C181.97 120.192 182.028 120.57 181.98 120.941C181.933 121.313 181.78 121.664 181.541 121.952L168.114 137.775C167.894 138.036 167.601 138.226 167.274 138.322L130.575 148.706C130.164 148.813 129.728 148.763 129.352 148.565C128.976 148.367 128.687 148.036 128.542 147.637Z" fill="white"/>
<path d="M130.142 149.051C129.735 149.045 129.34 148.916 129.007 148.683C128.674 148.449 128.419 148.121 128.274 147.741L127.723 146.369C127.608 146.082 127.553 145.774 127.561 145.464C127.569 145.155 127.64 144.85 127.769 144.569L138.06 122.283C138.229 121.898 138.514 121.576 138.876 121.361C139.237 121.147 139.657 121.052 140.075 121.088C144.925 121.606 161.046 123.699 164.842 128.897C165.785 130.187 166.286 130.742 166.543 130.981C166.347 130.252 166.088 129.541 165.77 128.856C165.628 128.523 165.567 128.161 165.593 127.8C165.619 127.439 165.731 127.09 165.919 126.781C167.333 124.483 171.468 118.957 179.274 117.313C179.718 117.228 180.178 117.296 180.578 117.507C180.978 117.718 181.294 118.058 181.475 118.472L182.066 119.738C182.249 120.127 182.317 120.561 182.262 120.988C182.207 121.415 182.031 121.817 181.755 122.147L168.326 137.97C168.069 138.275 167.728 138.497 167.345 138.608L130.646 148.991C130.482 149.034 130.312 149.054 130.142 149.051ZM128.811 147.525C128.928 147.859 129.166 148.136 129.478 148.302C129.79 148.468 130.153 148.511 130.496 148.421L167.194 138.038C167.467 137.96 167.71 137.802 167.892 137.584L181.32 121.761C181.523 121.514 181.651 121.216 181.692 120.899C181.732 120.583 181.682 120.261 181.548 119.972L180.957 118.706C180.831 118.411 180.608 118.168 180.326 118.016C180.043 117.865 179.717 117.813 179.402 117.871C171.816 119.475 167.797 124.847 166.419 127.08C166.282 127.312 166.2 127.572 166.181 127.84C166.163 128.109 166.207 128.378 166.311 128.626C167.393 131.173 167.236 131.524 166.943 131.685C166.649 131.845 166.243 131.795 164.375 129.239C160.717 124.232 144.805 122.176 140.014 121.664C139.715 121.638 139.416 121.707 139.159 121.862C138.902 122.017 138.702 122.25 138.586 122.526L128.295 144.814C128.197 145.025 128.144 145.254 128.139 145.487C128.133 145.719 128.175 145.951 128.262 146.167L128.811 147.525Z" fill="black"/>
<path d="M139.341 125.672L128.714 146.31C128.604 146.523 128.55 146.76 128.555 147C128.561 147.239 128.626 147.474 128.746 147.681C128.865 147.889 129.035 148.064 129.239 148.189C129.444 148.314 129.676 148.386 129.916 148.398L157.91 149.786L174.14 140.797L183.944 122.277C184.049 122.08 184.09 121.855 184.061 121.634C184.033 121.413 183.936 121.206 183.785 121.042C183.633 120.879 183.435 120.766 183.216 120.72C182.998 120.675 182.771 120.698 182.566 120.787L168.655 126.812C168.655 126.812 166.002 128.245 164.456 127.154L142.778 123.915C142.094 123.811 141.394 123.925 140.777 124.24C140.16 124.555 139.658 125.056 139.341 125.672Z" fill="#382256"/>
<path d="M157.976 150.083H157.893L129.899 148.696C129.611 148.682 129.331 148.596 129.085 148.445C128.838 148.295 128.634 148.085 128.49 147.835C128.346 147.585 128.267 147.303 128.26 147.014C128.254 146.726 128.319 146.441 128.452 146.184L139.079 125.546C139.423 124.878 139.967 124.335 140.636 123.993C141.304 123.65 142.063 123.526 142.806 123.637L164.551 126.885L164.609 126.926C165.989 127.892 168.474 126.578 168.501 126.565L168.524 126.553L182.445 120.528C182.705 120.417 182.993 120.388 183.269 120.447C183.545 120.505 183.797 120.648 183.989 120.856C184.18 121.063 184.303 121.325 184.34 121.605C184.377 121.885 184.326 122.17 184.194 122.42L174.349 141.015L174.274 141.058L157.976 150.083ZM142.281 124.172C141.726 124.173 141.183 124.326 140.71 124.614C140.237 124.903 139.852 125.316 139.599 125.809L128.972 146.447C128.884 146.617 128.84 146.807 128.845 146.999C128.85 147.19 128.903 147.378 128.999 147.544C129.096 147.709 129.232 147.848 129.396 147.948C129.56 148.047 129.746 148.104 129.938 148.112L157.848 149.496L173.932 140.588L183.697 122.146C183.774 122.002 183.803 121.838 183.782 121.676C183.761 121.515 183.69 121.364 183.58 121.244C183.469 121.125 183.325 121.042 183.165 121.009C183.006 120.975 182.84 120.991 182.691 121.056L168.779 127.077C168.557 127.194 165.985 128.518 164.346 127.434L142.735 124.207C142.584 124.184 142.433 124.172 142.281 124.172Z" fill="#1D1E1B"/>
<path d="M157.302 141.769C157.255 141.769 157.209 141.758 157.168 141.736C157.101 141.701 157.051 141.64 157.027 141.568C157.004 141.496 157.01 141.417 157.045 141.35L163.788 128.365C163.804 128.33 163.828 128.298 163.857 128.271C163.886 128.245 163.92 128.225 163.957 128.212C163.994 128.2 164.034 128.194 164.073 128.197C164.112 128.2 164.15 128.211 164.185 128.229C164.22 128.247 164.25 128.272 164.275 128.302C164.3 128.333 164.319 128.368 164.33 128.405C164.341 128.443 164.344 128.482 164.339 128.521C164.334 128.56 164.322 128.598 164.302 128.632L157.561 141.616C157.535 141.663 157.498 141.702 157.452 141.729C157.407 141.756 157.355 141.77 157.302 141.769Z" fill="black"/>
<path d="M160.903 141.838C160.859 141.839 160.816 141.829 160.777 141.809C160.708 141.776 160.655 141.717 160.63 141.644C160.604 141.572 160.609 141.492 160.642 141.423L167.008 128.203C167.042 128.133 167.101 128.08 167.174 128.055C167.247 128.029 167.326 128.033 167.396 128.067C167.465 128.1 167.519 128.16 167.544 128.232C167.57 128.305 167.565 128.385 167.532 128.454L161.156 141.674C161.133 141.722 161.097 141.763 161.053 141.792C161.008 141.821 160.956 141.837 160.903 141.838Z" fill="black"/>
<path d="M134.683 147.044L156.409 151.038L185.127 147.044C185.127 147.044 183.877 149.54 185.376 151.538L155.908 158.03L133.688 152.537C133.688 152.537 132.187 149.051 134.683 147.044Z" fill="white"/>
<path d="M155.909 158.326C155.885 158.329 155.862 158.329 155.839 158.326L133.619 152.831C133.576 152.82 133.536 152.799 133.503 152.77C133.469 152.741 133.443 152.705 133.425 152.665C133.41 152.628 131.87 148.941 134.509 146.829C134.542 146.803 134.58 146.785 134.62 146.775C134.66 146.765 134.702 146.764 134.743 146.771L156.422 150.759L185.095 146.769C185.147 146.763 185.2 146.77 185.248 146.791C185.296 146.812 185.338 146.846 185.369 146.889C185.4 146.931 185.418 146.982 185.423 147.034C185.427 147.087 185.417 147.139 185.394 147.187C185.382 147.21 184.246 149.552 185.616 151.378C185.645 151.417 185.664 151.462 185.671 151.51C185.677 151.558 185.672 151.607 185.655 151.652C185.638 151.698 185.611 151.738 185.574 151.77C185.538 151.802 185.494 151.824 185.446 151.834L155.98 158.328C155.956 158.33 155.932 158.329 155.909 158.326ZM133.899 152.292L155.912 157.733L184.896 151.347C184.007 149.842 184.385 148.197 184.666 147.399L156.446 151.326C156.415 151.33 156.384 151.33 156.353 151.326L134.761 147.355C132.834 149.007 133.665 151.664 133.899 152.292Z" fill="black"/>
<path d="M155.908 158.906C155.837 158.906 155.766 158.898 155.697 158.881L133.477 153.387C133.251 153.331 133.056 153.187 132.936 152.987C132.078 151.558 131.819 150.195 132.163 148.939C132.652 147.156 134.203 146.304 134.269 146.269C134.443 146.175 134.644 146.143 134.839 146.178L157.593 148.11L185.981 145.174C186.207 145.142 186.437 145.2 186.621 145.335C186.805 145.469 186.929 145.671 186.967 145.896C187.005 146.122 186.954 146.353 186.824 146.541C186.695 146.729 186.497 146.859 186.272 146.903L156.928 151.845C156.828 151.863 156.726 151.863 156.627 151.845L134.876 147.964C134.385 148.323 134.024 148.833 133.85 149.417C133.656 150.108 133.805 150.899 134.263 151.77L155.925 157.13L186.193 150.68C186.307 150.654 186.424 150.651 186.539 150.671C186.653 150.691 186.763 150.733 186.861 150.796C186.959 150.858 187.044 150.94 187.11 151.036C187.176 151.131 187.223 151.239 187.247 151.353C187.271 151.467 187.273 151.584 187.251 151.698C187.229 151.813 187.185 151.922 187.121 152.019C187.057 152.116 186.974 152.199 186.878 152.264C186.781 152.329 186.673 152.374 186.558 152.396L156.093 158.888C156.032 158.901 155.97 158.907 155.908 158.906Z" fill="#07ACEE"/>
<path d="M155.907 159.198C155.813 159.197 155.719 159.186 155.627 159.165L133.406 153.669C133.257 153.633 133.117 153.567 132.993 153.476C132.869 153.384 132.765 153.27 132.686 153.138C131.785 151.639 131.517 150.201 131.884 148.864C132.405 146.965 134.061 146.053 134.131 146.016C134.359 145.894 134.621 145.85 134.877 145.892L157.59 147.825L185.953 144.892C186.251 144.841 186.557 144.911 186.805 145.085C186.997 145.216 187.144 145.403 187.229 145.62C187.313 145.836 187.331 146.073 187.279 146.3C187.227 146.527 187.107 146.733 186.937 146.891C186.766 147.049 186.552 147.152 186.322 147.187L156.971 152.143C156.84 152.167 156.705 152.167 156.573 152.143L134.95 148.279C134.558 148.592 134.271 149.018 134.127 149.5C133.97 150.079 134.081 150.769 134.457 151.529L155.924 156.833L186.13 150.404C186.28 150.372 186.435 150.37 186.586 150.398C186.737 150.426 186.881 150.483 187.009 150.566C187.138 150.65 187.249 150.758 187.336 150.884C187.423 151.01 187.484 151.153 187.516 151.303C187.548 151.453 187.55 151.607 187.522 151.758C187.494 151.909 187.437 152.053 187.354 152.181C187.27 152.31 187.162 152.421 187.036 152.508C186.909 152.595 186.767 152.656 186.617 152.688L156.15 159.18C156.07 159.195 155.988 159.2 155.907 159.198ZM134.682 146.457C134.584 146.456 134.489 146.48 134.403 146.526C133.458 147.079 132.756 147.968 132.438 149.017C132.116 150.195 132.363 151.48 133.178 152.839C133.259 152.973 133.39 153.069 133.542 153.107L155.762 158.6C155.849 158.62 155.939 158.62 156.027 158.6L186.492 152.106C186.568 152.091 186.64 152.061 186.704 152.018C186.768 151.974 186.822 151.919 186.864 151.854C186.906 151.789 186.935 151.716 186.949 151.64C186.963 151.564 186.961 151.486 186.944 151.411C186.929 151.335 186.899 151.263 186.855 151.198C186.812 151.134 186.756 151.079 186.691 151.037C186.626 150.995 186.553 150.967 186.476 150.953C186.4 150.939 186.322 150.941 186.246 150.959L155.978 157.408C155.936 157.418 155.891 157.418 155.849 157.408L134.187 152.054C134.146 152.045 134.108 152.027 134.075 152.001C134.041 151.976 134.014 151.944 133.994 151.907C133.501 150.97 133.354 150.108 133.557 149.345C133.749 148.699 134.146 148.133 134.689 147.734C134.721 147.71 134.758 147.693 134.797 147.683C134.836 147.674 134.876 147.673 134.915 147.68L156.676 151.563C156.74 151.573 156.805 151.573 156.869 151.563L186.213 146.621C186.367 146.594 186.504 146.508 186.594 146.381C186.684 146.254 186.72 146.096 186.695 145.943C186.683 145.866 186.656 145.793 186.615 145.727C186.574 145.661 186.521 145.604 186.458 145.56C186.395 145.515 186.323 145.483 186.248 145.466C186.173 145.449 186.094 145.448 186.018 145.461L157.615 148.4C157.597 148.402 157.579 148.402 157.561 148.4L134.807 146.468H134.782C134.749 146.462 134.715 146.458 134.682 146.457Z" fill="#1D1D1B"/>
<path d="M133.841 142.333L167.268 139.435L185.612 140.158C185.841 140.166 186.065 140.23 186.264 140.344C186.462 140.459 186.63 140.62 186.752 140.814C187.249 141.612 187.738 143.104 186.246 144.928L158.036 149.674L134.237 146.609C134.155 146.6 134.077 146.566 134.015 146.512C133.953 146.459 133.908 146.387 133.887 146.307C133.866 146.228 133.87 146.143 133.898 146.066C133.926 145.988 133.976 145.921 134.043 145.873C134.751 145.365 135.203 144.474 133.607 143.056C133.543 143.004 133.497 142.934 133.474 142.855C133.45 142.777 133.452 142.693 133.477 142.615C133.502 142.537 133.55 142.468 133.615 142.418C133.68 142.367 133.759 142.338 133.841 142.333Z" fill="#4BD657"/>
<path d="M158.036 149.958L134.194 146.889C134.055 146.871 133.925 146.812 133.82 146.719C133.715 146.626 133.64 146.503 133.606 146.367C133.572 146.231 133.58 146.088 133.628 145.957C133.676 145.825 133.763 145.711 133.878 145.629C134.212 145.388 134.39 145.121 134.405 144.831C134.426 144.397 134.084 143.856 133.416 143.266C133.313 143.175 133.24 143.056 133.206 142.923C133.171 142.79 133.177 142.65 133.223 142.521C133.264 142.39 133.343 142.275 133.45 142.191C133.557 142.106 133.687 142.055 133.823 142.045L167.27 139.137H167.289L185.632 139.862C185.908 139.871 186.178 139.947 186.418 140.085C186.658 140.223 186.861 140.418 187.007 140.652C187.512 141.46 188.111 143.112 186.48 145.096L186.412 145.181L158.036 149.958ZM167.276 139.717L133.866 142.615C133.843 142.616 133.821 142.625 133.802 142.639C133.784 142.653 133.771 142.672 133.764 142.694C133.757 142.717 133.756 142.742 133.763 142.765C133.769 142.787 133.782 142.808 133.8 142.824C134.618 143.545 135.016 144.227 134.983 144.853C134.96 145.328 134.701 145.743 134.21 146.093C134.19 146.106 134.174 146.126 134.166 146.148C134.157 146.171 134.156 146.195 134.162 146.219C134.167 146.242 134.18 146.263 134.198 146.279C134.216 146.294 134.238 146.304 134.262 146.306L158.019 149.364L186.086 144.646C187.338 143.056 187.007 141.763 186.503 140.952C186.406 140.798 186.273 140.67 186.115 140.579C185.957 140.489 185.779 140.438 185.597 140.432L167.276 139.717Z" fill="black"/>
<path d="M132.809 142.424L158.121 145.483C158.121 145.483 161.104 147.765 157.771 149.695L132.814 146.41C132.814 146.41 134.555 145.17 132.809 142.424Z" fill="white"/>
<path d="M157.766 149.985H157.727L132.771 146.7C132.713 146.693 132.659 146.668 132.615 146.629C132.571 146.59 132.54 146.54 132.526 146.483C132.512 146.426 132.515 146.367 132.536 146.312C132.556 146.257 132.592 146.21 132.639 146.176C132.701 146.134 134.133 145.038 132.564 142.573C132.535 142.526 132.519 142.473 132.519 142.418C132.519 142.363 132.535 142.309 132.564 142.263C132.594 142.217 132.635 142.18 132.685 142.156C132.735 142.133 132.79 142.124 132.844 142.13L158.156 145.189C158.207 145.196 158.256 145.216 158.297 145.247C158.357 145.291 159.723 146.354 159.636 147.726C159.582 148.566 159.002 149.31 157.916 149.94C157.871 149.968 157.819 149.984 157.766 149.985ZM133.395 146.203L157.704 149.395C158.558 148.881 159.012 148.309 159.056 147.695C159.116 146.768 158.241 145.956 158.003 145.763L133.356 142.783C134.243 144.493 133.803 145.628 133.395 146.203Z" fill="black"/>
<path d="M159.871 145.423C159.805 145.42 159.742 145.396 159.692 145.353C159.642 145.31 159.608 145.252 159.596 145.187C159.59 145.15 159.59 145.111 159.599 145.074C159.607 145.037 159.623 145.002 159.645 144.971C159.667 144.94 159.695 144.914 159.728 144.894C159.76 144.874 159.796 144.861 159.834 144.855L184.404 140.818C184.481 140.806 184.559 140.825 184.622 140.87C184.685 140.916 184.728 140.985 184.74 141.062C184.752 141.139 184.734 141.217 184.688 141.28C184.642 141.343 184.573 141.386 184.497 141.398L159.929 145.434L159.871 145.423Z" fill="#1D1E1B"/>
<path d="M164.082 153.144C164.005 153.151 163.928 153.128 163.869 153.078C163.809 153.029 163.772 152.958 163.765 152.881C163.758 152.804 163.781 152.728 163.831 152.668C163.88 152.609 163.951 152.572 164.028 152.564L184.385 148.7C184.461 148.686 184.539 148.702 184.603 148.745C184.666 148.788 184.71 148.855 184.725 148.931C184.739 149.006 184.723 149.085 184.679 149.148C184.636 149.212 184.569 149.256 184.494 149.27L164.136 153.134C164.118 153.139 164.1 153.143 164.082 153.144Z" fill="#1D1E1B"/>
<path d="M156.31 157.339C156.248 157.338 156.187 157.318 156.137 157.28C156.087 157.243 156.05 157.19 156.032 157.13C155.076 153.857 156.419 151.892 156.477 151.809C156.521 151.746 156.588 151.703 156.664 151.69C156.74 151.676 156.818 151.694 156.881 151.738C156.944 151.782 156.987 151.85 157 151.926C157.014 152.002 156.996 152.08 156.952 152.143C156.938 152.16 155.715 153.979 156.589 156.973C156.602 157.017 156.604 157.063 156.596 157.107C156.588 157.152 156.57 157.194 156.543 157.23C156.516 157.266 156.481 157.296 156.441 157.316C156.4 157.336 156.356 157.347 156.31 157.346V157.339Z" fill="#1D1E1B"/>
<path d="M160.644 146.926C160.491 146.938 160.338 146.889 160.221 146.788C160.104 146.688 160.031 146.545 160.019 146.392C160.007 146.238 160.057 146.086 160.157 145.969C160.257 145.851 160.4 145.779 160.554 145.767L177.75 143.062C177.902 143.038 178.058 143.075 178.182 143.165C178.306 143.256 178.39 143.392 178.414 143.544C178.438 143.696 178.401 143.851 178.31 143.975C178.22 144.1 178.084 144.183 177.932 144.207L160.735 146.913L160.644 146.926Z" fill="white"/>
<path d="M133.981 139.97C133.88 139.97 133.781 139.944 133.693 139.894C133.605 139.844 133.532 139.772 133.481 139.685C133.43 139.599 133.402 139.5 133.4 139.399C133.399 139.298 133.424 139.199 133.473 139.11L140.428 126.551C140.503 126.416 140.628 126.317 140.776 126.275C140.924 126.232 141.082 126.25 141.217 126.325C141.351 126.399 141.451 126.524 141.493 126.672C141.536 126.82 141.517 126.979 141.443 127.113L134.487 139.673C134.437 139.763 134.363 139.838 134.274 139.89C134.185 139.943 134.084 139.97 133.981 139.97Z" fill="white"/>
<path d="M79.5585 148.366L116.939 143.201C117.055 143.186 117.161 143.13 117.238 143.042C117.315 142.955 117.357 142.842 117.357 142.725C117.357 142.609 117.315 142.496 117.238 142.409C117.161 142.321 117.055 142.265 116.939 142.25L79.4735 137.321C79.4407 137.317 79.4076 137.317 79.3749 137.321L60.246 138.793C60.1396 138.801 60.0388 138.845 59.9598 138.916C59.8807 138.988 59.828 139.084 59.8098 139.19C59.7916 139.295 59.809 139.403 59.8593 139.497C59.9096 139.591 59.99 139.666 60.0876 139.709L79.3034 148.333C79.3837 148.367 79.472 148.379 79.5585 148.366Z" fill="#4BD657"/>
<path d="M79.4931 148.665C79.3845 148.665 79.2771 148.642 79.178 148.597L59.9623 139.97C59.8082 139.898 59.682 139.778 59.6033 139.627C59.5247 139.476 59.4979 139.304 59.5272 139.136C59.5564 138.969 59.6401 138.816 59.7652 138.701C59.8903 138.586 60.05 138.515 60.2193 138.5L79.3481 137.029C79.4014 137.023 79.4551 137.023 79.5084 137.029L116.972 141.958C117.154 141.987 117.319 142.08 117.438 142.22C117.558 142.36 117.623 142.538 117.623 142.722C117.623 142.905 117.558 143.083 117.438 143.223C117.319 143.363 117.154 143.456 116.972 143.485L79.6032 148.653C79.5667 148.659 79.53 148.663 79.4931 148.665ZM79.4099 137.611H79.3945L60.2656 139.083C60.2227 139.084 60.1817 139.101 60.1498 139.129C60.1179 139.158 60.0973 139.197 60.0917 139.24C60.0849 139.282 60.092 139.324 60.1119 139.362C60.1318 139.399 60.1634 139.429 60.2018 139.446L79.4177 148.068C79.4503 148.083 79.4865 148.088 79.522 148.083L116.895 142.915C116.937 142.905 116.976 142.881 117.003 142.847C117.03 142.813 117.045 142.77 117.045 142.726C117.045 142.683 117.03 142.64 117.003 142.606C116.976 142.572 116.937 142.548 116.895 142.538L79.4312 137.607L79.4099 137.611Z" fill="black"/>
<path d="M68.0898 137.236L68.5169 137.317L94.9978 142.36C95.0952 142.378 95.1829 142.43 95.2451 142.507C95.3073 142.584 95.3398 142.681 95.3368 142.78C95.3338 142.879 95.2953 142.973 95.2285 143.046C95.1617 143.119 95.0709 143.166 94.9726 143.178L72.476 146.01" fill="#382256"/>
<path d="M72.512 146.298L72.4386 145.718L94.9352 142.886C94.9638 142.881 94.9897 142.866 95.0084 142.843C95.027 142.821 95.0371 142.793 95.0371 142.764C95.0371 142.735 95.027 142.707 95.0084 142.685C94.9897 142.663 94.9638 142.648 94.9352 142.642L68.0254 137.516L68.1356 136.946L95.0589 142.076C95.2239 142.107 95.3722 142.196 95.4773 142.327C95.5823 142.458 95.6371 142.622 95.6317 142.79C95.6263 142.958 95.5612 143.118 95.448 143.242C95.3348 143.366 95.1811 143.445 95.0145 143.465L72.512 146.298Z" fill="#1D1E1B"/>
<path d="M30.1578 104.876L63.2179 108.319C63.686 108.367 64.132 108.542 64.5084 108.825C64.8848 109.107 65.1774 109.487 65.3549 109.923L79.6977 145.089C79.8746 145.522 79.9312 145.995 79.8614 146.458C79.7915 146.921 79.5979 147.357 79.301 147.719C79.0041 148.081 78.615 148.356 78.1746 148.515C77.7343 148.674 77.2591 148.711 76.7994 148.623L42.1297 141.964C41.6997 141.884 41.297 141.696 40.9592 141.418C40.6213 141.14 40.3593 140.781 40.1975 140.374L27.4643 108.427C27.2971 108.01 27.2407 107.558 27.3005 107.113C27.3603 106.668 27.5343 106.246 27.8055 105.889C28.0768 105.531 28.4359 105.25 28.8482 105.072C29.2604 104.895 29.7116 104.827 30.1578 104.876Z" fill="#4BD657"/>
<path d="M77.3101 148.959C77.1208 148.959 76.9318 148.941 76.7459 148.905L42.0782 142.246C41.6015 142.156 41.1555 141.946 40.7815 141.637C40.4075 141.328 40.1178 140.93 39.9393 140.478L27.206 108.529C27.0216 108.068 26.9594 107.566 27.0258 107.073C27.0922 106.58 27.2849 106.113 27.585 105.716C27.8851 105.32 28.2826 105.008 28.7389 104.81C29.1952 104.612 29.6948 104.536 30.1894 104.588L63.2475 108.031C63.7678 108.085 64.2639 108.279 64.6825 108.593C65.1011 108.906 65.4266 109.328 65.6241 109.812L79.9669 144.978C80.1433 145.416 80.2104 145.89 80.1621 146.359C80.1138 146.828 79.9518 147.279 79.69 147.671C79.4282 148.064 79.0746 148.386 78.6598 148.611C78.2451 148.836 77.7818 148.956 77.3101 148.961V148.959ZM29.884 105.15C29.5082 105.153 29.1387 105.248 28.8075 105.425C28.4762 105.603 28.1932 105.859 27.9827 106.17C27.7722 106.482 27.6406 106.84 27.5992 107.213C27.5578 107.587 27.6079 107.965 27.7451 108.315L40.4784 140.264C40.6204 140.625 40.8516 140.943 41.1503 141.19C41.449 141.437 41.8055 141.605 42.1864 141.676L76.856 148.335C77.2644 148.413 77.6864 148.38 78.0774 148.239C78.4685 148.097 78.814 147.853 79.0776 147.531C79.3412 147.209 79.5131 146.823 79.5751 146.411C79.6371 146 79.5868 145.58 79.4297 145.195L65.0869 110.029C64.9294 109.641 64.6695 109.304 64.3349 109.053C64.0003 108.801 63.6037 108.646 63.1875 108.603L30.1372 105.163C30.0464 105.156 29.9652 105.15 29.884 105.15Z" fill="black"/>
<path d="M82.68 113.052C82.68 113.052 80.6357 111.621 74.2266 112.981L82.68 113.052Z" fill="#07ACEE"/>
<path d="M82.6773 113.342C82.6187 113.343 82.5614 113.325 82.513 113.292C82.4821 113.271 80.4244 111.963 74.2858 113.265C74.2104 113.281 74.1319 113.266 74.0674 113.224C74.0029 113.182 73.9577 113.116 73.9418 113.041C73.9259 112.965 73.9406 112.887 73.9826 112.822C74.0247 112.758 74.0906 112.713 74.166 112.697C80.6234 111.327 82.7565 112.755 82.8454 112.815C82.9082 112.859 82.9508 112.927 82.9638 113.002C82.9769 113.078 82.9593 113.156 82.915 113.219C82.8884 113.257 82.853 113.288 82.8115 113.31C82.7701 113.332 82.724 113.343 82.6773 113.342Z" fill="#1D1D1B"/>
<path d="M47.3139 113.176C43.0823 106.73 40.6458 99.6509 40.0681 92.1153C39.6082 86.0984 40.329 79.7878 42.211 73.3613C45.4126 62.427 50.9522 54.8315 51.0083 54.7561L51.4739 55.1C51.4198 55.1754 45.9323 62.7014 42.7616 73.541C39.8401 83.5267 38.3446 98.451 47.7989 112.858L47.3139 113.176Z" fill="#1D1E1B"/>
<path d="M38.1976 112.488C33.2589 105.811 31.9333 98.1902 31.6918 92.9597C31.429 87.3042 32.3469 83.1614 32.3566 83.1208L32.9208 83.2484C32.9208 83.289 32.0106 87.3679 32.2715 92.95C32.5111 98.0877 33.8173 105.589 38.6632 112.143L38.1976 112.488Z" fill="#1D1E1B"/>
<path d="M50.0064 129.654C49.6651 129.635 49.3429 129.491 49.1021 129.248C48.7204 128.868 48.428 128.408 48.2463 127.9C48.0645 127.393 47.9978 126.852 48.051 126.315C48.1302 125.778 48.3814 125.409 48.7582 125.274C49.4808 125.015 50.387 125.763 50.8237 126.976C51.2584 128.19 51.0343 129.343 50.3117 129.602C50.2136 129.637 50.1104 129.654 50.0064 129.654ZM49.0615 125.801C49.0247 125.801 48.9881 125.807 48.9533 125.819C48.791 125.879 48.6693 126.089 48.6229 126.398C48.5849 126.84 48.6428 127.285 48.7925 127.702C48.9423 128.119 49.1804 128.499 49.4905 128.816C49.7243 129.026 49.9522 129.113 50.1165 129.055C50.4662 128.93 50.6092 128.089 50.2769 127.169C49.9754 126.333 49.4228 125.801 49.0615 125.801Z" fill="#1D1E1B"/>
<path d="M71.376 130.696C71.2619 130.696 71.1501 130.662 71.0549 130.599C70.9597 130.537 70.8852 130.447 70.8407 130.342L63.1119 111.986C63.0522 111.844 63.0512 111.685 63.1092 111.542C63.1672 111.4 63.2793 111.286 63.421 111.227C63.5627 111.167 63.7223 111.166 63.8647 111.224C64.0071 111.282 64.1207 111.394 64.1804 111.536L71.9092 129.892C71.9388 129.962 71.9542 130.037 71.9547 130.113C71.9552 130.189 71.9407 130.265 71.9119 130.335C71.8832 130.406 71.8409 130.47 71.7874 130.524C71.7339 130.578 71.6702 130.622 71.6 130.651C71.529 130.681 71.4529 130.696 71.376 130.696Z" fill="white"/>
<path d="M73.5012 137.845C73.376 137.845 73.2541 137.804 73.1538 137.73C73.0535 137.655 72.9801 137.549 72.9446 137.429L71.9785 134.145C71.9571 134.071 71.9503 133.995 71.9584 133.919C71.9666 133.843 71.9896 133.77 72.0261 133.703C72.0626 133.636 72.112 133.577 72.1713 133.53C72.2306 133.482 72.2987 133.446 72.3717 133.425C72.4448 133.403 72.5214 133.397 72.5971 133.405C72.6729 133.413 72.7463 133.436 72.8131 133.472C72.8799 133.509 72.9389 133.558 72.9867 133.617C73.0345 133.677 73.0701 133.745 73.0915 133.818L74.0576 137.103C74.101 137.249 74.0847 137.407 74.0123 137.542C73.94 137.676 73.8173 137.777 73.6712 137.822C73.6159 137.837 73.5587 137.845 73.5012 137.845Z" fill="white"/>
<defs>
<filter id="filter0_d_14213_92926" x="-2.14305" y="57.4854" width="20.6318" height="20.6316" filterUnits="userSpaceOnUse" color-interpolation-filters="sRGB">
<feFlood flood-opacity="0" result="BackgroundImageFix"/>
<feColorMatrix in="SourceAlpha" type="matrix" values="0 0 0 0 0 0 0 0 0 0 0 0 0 0 0 0 0 0 127 0" result="hardAlpha"/>
<feOffset dy="1.08642"/>
<feGaussianBlur stdDeviation="2.71606"/>
<feComposite in2="hardAlpha" operator="out"/>
<feColorMatrix type="matrix" values="0 0 0 0 0 0 0 0 0 0 0 0 0 0 0 0 0 0 0.05 0"/>
<feBlend mode="normal" in2="BackgroundImageFix" result="effect1_dropShadow_14213_92926"/>
<feBlend mode="normal" in="SourceGraphic" in2="effect1_dropShadow_14213_92926" result="shape"/>
</filter>
<filter id="filter1_d_14213_92926" x="197.677" y="88.1148" width="20.6357" height="20.634" filterUnits="userSpaceOnUse" color-interpolation-filters="sRGB">
<feFlood flood-opacity="0" result="BackgroundImageFix"/>
<feColorMatrix in="SourceAlpha" type="matrix" values="0 0 0 0 0 0 0 0 0 0 0 0 0 0 0 0 0 0 127 0" result="hardAlpha"/>
<feOffset dy="1.08642"/>
<feGaussianBlur stdDeviation="2.71606"/>
<feComposite in2="hardAlpha" operator="out"/>
<feColorMatrix type="matrix" values="0 0 0 0 0 0 0 0 0 0 0 0 0 0 0 0 0 0 0.05 0"/>
<feBlend mode="normal" in2="BackgroundImageFix" result="effect1_dropShadow_14213_92926"/>
<feBlend mode="normal" in="SourceGraphic" in2="effect1_dropShadow_14213_92926" result="shape"/>
</filter>
<linearGradient id="paint0_linear_14213_92926" x1="10.9088" y1="59.7534" x2="209.094" y2="106.958" gradientUnits="userSpaceOnUse">
<stop stop-color="#CDD5E2"/>
<stop offset="1" stop-color="#CDD5E2" stop-opacity="0"/>
</linearGradient>
<linearGradient id="paint1_linear_14213_92926" x1="208.752" y1="104.233" x2="188.72" y2="156.823" gradientUnits="userSpaceOnUse">
<stop stop-color="#CDD5E2"/>
<stop offset="1" stop-color="#CDD5E2" stop-opacity="0"/>
</linearGradient>
<linearGradient id="paint2_linear_14213_92926" x1="104.802" y1="12.4053" x2="104.802" y2="194.669" gradientUnits="userSpaceOnUse">
<stop stop-color="#CDD5E2"/>
<stop offset="1" stop-color="#CDD5E2" stop-opacity="0"/>
</linearGradient>
<linearGradient id="paint3_linear_14213_92926" x1="104.802" y1="30.6316" x2="104.802" y2="176.443" gradientUnits="userSpaceOnUse">
<stop stop-color="#CDD5E2"/>
<stop offset="1" stop-color="#CDD5E2" stop-opacity="0"/>
</linearGradient>
</defs>
</svg>
