<svg width="232" height="200" viewBox="0 0 232 200" fill="none" xmlns="http://www.w3.org/2000/svg">
<g id="magnifying">
<g id="line">
<path id="Vector" d="M182.36 200L44.8596 199.166C44.7267 199.166 44.5992 199.113 44.5052 199.019C44.4112 198.925 44.3584 198.797 44.3584 198.665C44.3584 198.532 44.4112 198.404 44.5052 198.31C44.5992 198.216 44.7267 198.163 44.8596 198.163L182.36 198.998C182.493 198.998 182.62 199.051 182.714 199.145C182.808 199.239 182.861 199.366 182.861 199.499C182.861 199.632 182.808 199.759 182.714 199.853C182.62 199.947 182.493 200 182.36 200Z" fill="black"/>
<path id="Vector_2" d="M49.9545 192.721H30.1933C30.0936 192.721 29.9978 192.681 29.9273 192.61C29.8568 192.54 29.8174 192.444 29.8174 192.345C29.8174 192.245 29.8568 192.149 29.9273 192.079C29.9978 192.008 30.0936 191.969 30.1933 191.969H49.9545C50.0542 191.969 50.1497 192.008 50.2202 192.079C50.2907 192.149 50.3304 192.245 50.3304 192.345C50.3304 192.444 50.2907 192.54 50.2202 192.61C50.1497 192.681 50.0542 192.721 49.9545 192.721Z" fill="black"/>
</g>
<g id="gear">
<g id="Group">
<path id="Vector_3" d="M223.93 119.697H214.536C214.248 119.697 213.961 119.716 213.676 119.752C211.829 111.658 208.337 104.031 203.417 97.3442L208.885 91.2273C210.122 89.8407 210.758 88.0202 210.654 86.1651C210.55 84.3099 209.715 82.5717 208.331 81.3317L197.305 71.471C195.918 70.2346 194.098 69.5988 192.242 69.7031C190.387 69.8074 188.649 70.6433 187.409 72.0274L181.358 78.7933C176.901 76.5816 172.187 74.9302 167.325 73.8767V65.3893C167.325 63.5284 166.585 61.7438 165.27 60.4279C163.954 59.1121 162.169 58.3728 160.308 58.3728H145.524C143.663 58.3728 141.878 59.1121 140.562 60.4279C139.246 61.7438 138.507 63.5284 138.507 65.3893V74.6084C132.615 76.1994 126.998 78.6731 121.846 81.9456L115.015 75.8388C113.628 74.6024 111.807 73.9665 109.952 74.0708C108.096 74.1751 106.359 75.011 105.119 76.3951L95.2582 87.4209C94.0218 88.8079 93.3859 90.6287 93.4902 92.4838C93.5944 94.339 94.4304 96.0771 95.8145 97.3167L101.829 102.699C98.7369 107.991 96.4683 113.723 95.1004 119.697H86.1795C84.3187 119.697 82.5338 120.436 81.218 121.752C79.9021 123.068 79.1631 124.852 79.1631 126.713V141.51C79.1631 143.371 79.9021 145.156 81.218 146.472C82.5338 147.788 84.3187 148.527 86.1795 148.527H95.4812C97.0971 154.798 99.7088 160.77 103.217 166.213L97.1878 172.959C95.951 174.346 95.3147 176.166 95.4185 178.022C95.5223 179.877 96.3578 181.615 97.7416 182.855L108.767 192.715C110.154 193.952 111.975 194.588 113.83 194.484C115.686 194.379 117.424 193.543 118.663 192.159L124.096 186.082C129.352 189.106 135.033 191.322 140.948 192.655C140.933 192.838 140.923 193.026 140.923 193.214V199.093H169.741V193.189C169.74 192.854 169.716 192.519 169.668 192.187C176.349 190.455 182.685 187.594 188.402 183.727C188.56 183.903 188.727 184.07 188.903 184.228L195.907 190.493C197.294 191.727 199.114 192.361 200.968 192.256C202.822 192.151 204.559 191.315 205.798 189.931L215.658 178.906C216.895 177.519 217.531 175.698 217.426 173.843C217.322 171.988 216.486 170.249 215.102 169.01L208.085 162.745C207.975 162.645 207.86 162.55 207.742 162.46C210.171 158.022 212.033 153.298 213.285 148.397C213.69 148.469 214.101 148.506 214.513 148.507H223.907C225.768 148.507 227.553 147.767 228.869 146.452C230.185 145.136 230.924 143.351 230.924 141.49V126.693C230.919 124.84 230.18 123.063 228.87 121.753C227.559 120.442 225.784 119.703 223.93 119.697ZM154.517 176.638C145.922 176.638 137.519 174.089 130.372 169.313C123.225 164.538 117.655 157.75 114.366 149.809C111.077 141.868 110.216 133.129 111.893 124.699C113.57 116.268 117.71 108.525 123.788 102.447C129.866 96.3691 137.61 92.2303 146.04 90.5536C154.471 88.877 163.209 89.738 171.15 93.0277C179.091 96.3174 185.879 101.888 190.654 109.035C195.429 116.183 197.977 124.585 197.977 133.181C197.978 138.889 196.855 144.542 194.672 149.816C192.488 155.09 189.287 159.883 185.251 163.919C181.215 167.956 176.423 171.158 171.149 173.343C165.876 175.527 160.223 176.651 154.515 176.65L154.517 176.638Z" fill="#4BD657"/>
<path id="Vector_4" d="M170.119 199.454H140.55V193.189C140.55 193.104 140.55 193.016 140.55 192.923C134.809 191.6 129.292 189.448 124.171 186.536L118.941 192.385C117.635 193.843 115.804 194.724 113.849 194.834C111.895 194.944 109.976 194.274 108.515 192.971L97.4887 183.11C96.7653 182.464 96.1762 181.682 95.7552 180.809C95.3341 179.935 95.0894 178.987 95.035 178.019C94.9805 177.05 95.1174 176.081 95.4378 175.165C95.7582 174.25 96.256 173.407 96.9024 172.683L102.741 166.151C99.3404 160.821 96.7913 154.993 95.1857 148.878H86.1645C84.2068 148.876 82.3298 148.097 80.9457 146.712C79.5617 145.328 78.7836 143.451 78.7822 141.493V126.696C78.7836 124.738 79.5617 122.861 80.9457 121.476C82.3298 120.092 84.2068 119.313 86.1645 119.311H94.7873C96.1459 113.506 98.3522 107.934 101.335 102.772L95.5391 97.5898C94.0806 96.2842 93.1997 94.4533 93.0897 92.4989C92.9798 90.5445 93.6499 88.6263 94.9527 87.1653L104.813 76.1395C106.12 74.6818 107.951 73.8018 109.906 73.6923C111.861 73.5829 113.779 74.2529 115.24 75.5556L121.861 81.4695C126.897 78.3032 132.371 75.8928 138.106 74.3152V65.3893C138.108 63.4317 138.887 61.5549 140.271 60.1705C141.655 58.7861 143.531 58.007 145.489 58.0044H160.286C162.244 58.0064 164.121 58.7851 165.506 60.1696C166.89 61.5541 167.669 63.4313 167.671 65.3893V73.586C172.369 74.63 176.927 76.2282 181.248 78.3472L187.109 71.7893C188.415 70.3313 190.247 69.4507 192.201 69.3408C194.156 69.2309 196.074 69.9006 197.536 71.203L208.562 81.0635C210.021 82.3692 210.902 84.2009 211.012 86.1561C211.121 88.1113 210.45 90.0301 209.146 91.4906L203.883 97.3818C208.682 103.955 212.106 111.429 213.949 119.356C214.142 119.341 214.33 119.333 214.518 119.333H223.913C225.87 119.335 227.747 120.114 229.132 121.499C230.516 122.883 231.294 124.76 231.295 126.718V141.515C231.294 143.473 230.516 145.35 229.132 146.735C227.747 148.119 225.87 148.898 223.913 148.9H214.518C214.201 148.899 213.885 148.878 213.571 148.838C212.337 153.549 210.543 158.096 208.229 162.382L208.341 162.482L215.358 168.747C216.816 170.053 217.696 171.884 217.806 173.839C217.916 175.794 217.246 177.712 215.944 179.174L206.083 190.2C205.437 190.923 204.655 191.512 203.782 191.933C202.908 192.354 201.96 192.599 200.992 192.653C200.023 192.708 199.054 192.571 198.138 192.25C197.223 191.93 196.38 191.432 195.657 190.786L188.653 184.521C188.547 184.426 188.442 184.328 188.342 184.228C182.752 187.971 176.58 190.759 170.076 192.48C170.101 192.721 170.114 192.964 170.114 193.207L170.119 199.454ZM141.301 198.702H169.367V193.189C169.366 192.87 169.343 192.551 169.297 192.234L169.25 191.901L169.575 191.818C176.215 190.099 182.512 187.256 188.192 183.411L188.459 183.228L188.678 183.479C188.828 183.642 188.991 183.802 189.159 183.952L196.163 190.217C197.474 191.389 199.198 191.992 200.954 191.893C202.71 191.794 204.355 191.002 205.527 189.691L215.388 178.665C216.559 177.353 217.161 175.63 217.063 173.874C216.964 172.118 216.172 170.473 214.861 169.301L207.845 163.036C207.74 162.943 207.632 162.853 207.522 162.768L207.271 162.57L207.424 162.292C209.839 157.882 211.691 153.187 212.937 148.316L213.022 147.978L213.366 148.038C213.749 148.108 214.138 148.143 214.528 148.143H223.923C225.681 148.141 227.366 147.441 228.609 146.198C229.852 144.954 230.551 143.269 230.553 141.51V126.713C230.551 124.955 229.852 123.269 228.609 122.026C227.366 120.783 225.681 120.083 223.923 120.08H214.528C214.256 120.081 213.984 120.098 213.714 120.133L213.378 120.173L213.3 119.842C211.475 111.796 208.004 104.214 203.106 97.5748L202.926 97.3242L208.599 90.9793C209.771 89.6676 210.374 87.9442 210.275 86.1881C210.177 84.432 209.384 82.787 208.073 81.6148L197.047 71.7542C195.735 70.5843 194.012 69.9827 192.256 70.0813C190.501 70.18 188.856 70.9709 187.683 72.2804L181.441 79.2644L181.19 79.1365C176.756 76.9399 172.068 75.2995 167.232 74.2526L166.937 74.1874V65.3893C166.935 63.6305 166.236 61.9441 164.992 60.7004C163.749 59.4568 162.062 58.7575 160.304 58.7562H145.506C143.748 58.7581 142.062 59.4578 140.819 60.7014C139.576 61.945 138.877 63.6309 138.876 65.3893V74.8966L138.598 74.9718C132.742 76.5521 127.159 79.0098 122.039 82.2614L121.801 82.4142L114.757 76.1194C113.444 74.9495 111.721 74.348 109.966 74.4467C108.21 74.5453 106.565 75.3361 105.392 76.6457L95.5315 87.6715C94.361 88.9838 93.759 90.707 93.8576 92.4627C93.9563 94.2184 94.7477 95.8632 96.0579 97.036L102.323 102.624L102.17 102.89C99.0962 108.149 96.8409 113.845 95.4813 119.782L95.4162 120.073H86.1946C84.4363 120.075 82.7505 120.774 81.5074 122.018C80.2643 123.261 79.5654 124.947 79.5641 126.706V141.503C79.5661 143.261 80.2651 144.947 81.5081 146.19C82.7511 147.433 84.4365 148.133 86.1946 148.136H95.7897L95.8623 148.417C97.4663 154.649 100.061 160.584 103.548 165.993L103.703 166.243L97.4836 173.202C96.3118 174.514 95.7091 176.237 95.8078 177.993C95.9065 179.75 96.6986 181.395 98.01 182.567L109.036 192.427C110.348 193.598 112.071 194.2 113.827 194.101C115.583 194.003 117.227 193.211 118.4 191.901L124.036 185.596L124.302 185.749C129.524 188.754 135.17 190.956 141.048 192.28L141.367 192.352L141.339 192.675C141.324 192.873 141.316 193.049 141.316 193.207L141.301 198.702ZM154.512 177.014C130.343 177.014 110.68 157.35 110.68 133.181C110.68 109.012 130.343 89.3455 154.512 89.3455C178.682 89.3455 198.348 109.009 198.348 133.181C198.348 157.352 178.687 177.014 154.515 177.014H154.512ZM154.512 90.0973C130.757 90.0973 111.431 109.425 111.431 133.181C111.431 156.937 130.757 176.262 154.512 176.262C178.268 176.262 197.596 156.937 197.596 133.181C197.596 109.425 178.271 90.0973 154.515 90.0973H154.512Z" fill="#1D1E1B"/>
</g>
<path id="Vector_5" d="M174.387 109.317C175.513 109.317 176.426 108.404 176.426 107.278C176.426 106.151 175.513 105.238 174.387 105.238C173.26 105.238 172.347 106.151 172.347 107.278C172.347 108.404 173.26 109.317 174.387 109.317Z" fill="#51CEF4"/>
<path id="Vector_6" d="M171.084 131.086C172.21 131.086 173.124 130.173 173.124 129.046C173.124 127.92 172.21 127.006 171.084 127.006C169.957 127.006 169.044 127.92 169.044 129.046C169.044 130.173 169.957 131.086 171.084 131.086Z" fill="#51CEF4"/>
<path id="Vector_7" d="M210.809 122.273C210.623 122.274 210.442 122.205 210.303 122.081C210.164 121.956 210.077 121.784 210.057 121.599C208.356 105.326 197.681 97.1438 197.573 97.0636C197.494 97.0044 197.428 96.9301 197.377 96.8452C197.327 96.7602 197.294 96.6663 197.28 96.5685C197.266 96.4708 197.272 96.3712 197.296 96.2756C197.321 96.18 197.364 96.0902 197.423 96.0112C197.482 95.9322 197.556 95.8656 197.641 95.8153C197.726 95.765 197.82 95.732 197.918 95.718C198.016 95.7041 198.115 95.7094 198.211 95.7339C198.306 95.7584 198.396 95.8016 198.475 95.8608C198.936 96.2066 209.784 104.521 211.551 121.443C211.571 121.641 211.512 121.839 211.387 121.994C211.261 122.148 211.08 122.247 210.882 122.268C210.858 122.272 210.834 122.273 210.809 122.273Z" fill="white"/>
<path id="Vector_8" d="M204.544 187.927C204.359 187.925 204.18 187.854 204.043 187.729C203.97 187.662 203.912 187.582 203.87 187.492C203.828 187.402 203.805 187.306 203.8 187.207C203.796 187.108 203.812 187.01 203.846 186.917C203.879 186.824 203.931 186.739 203.998 186.666C204.056 186.604 209.802 180.359 213.019 176.893C213.334 176.585 213.58 176.213 213.742 175.803C213.903 175.393 213.975 174.953 213.954 174.513C213.826 172.385 211.603 170.481 211.581 170.461C211.437 170.33 211.349 170.148 211.336 169.954C211.324 169.759 211.387 169.568 211.512 169.419C211.638 169.27 211.816 169.176 212.01 169.156C212.204 169.137 212.398 169.193 212.551 169.313C212.664 169.406 215.282 171.644 215.453 174.415C215.49 175.061 215.391 175.707 215.162 176.311C214.933 176.916 214.578 177.465 214.122 177.923C210.902 181.391 205.161 187.631 205.101 187.696C205.029 187.771 204.942 187.83 204.847 187.87C204.751 187.909 204.648 187.929 204.544 187.927Z" fill="white"/>
<path id="Vector_9" d="M228.1 140.315C227.901 140.315 227.71 140.236 227.569 140.095C227.428 139.954 227.349 139.762 227.349 139.563V133.298C227.348 133.194 227.37 133.09 227.414 132.995C227.444 132.78 227.527 131.812 227.349 128.071C227.286 126.763 226.875 125.798 226.121 125.204C224.793 124.157 222.748 124.51 222.728 124.515C222.532 124.553 222.329 124.51 222.164 124.398C221.999 124.286 221.885 124.112 221.848 123.916C221.811 123.72 221.853 123.518 221.965 123.353C222.078 123.188 222.251 123.074 222.447 123.037C222.557 123.017 225.171 122.536 227.053 124.024C228.163 124.899 228.767 126.237 228.852 128.001C229.028 131.705 228.98 132.945 228.852 133.441V139.563C228.852 139.762 228.773 139.954 228.632 140.095C228.491 140.236 228.3 140.315 228.1 140.315ZM228.1 132.547C227.938 132.546 227.779 132.598 227.649 132.697C227.78 132.599 227.938 132.547 228.1 132.547Z" fill="white"/>
<path id="Vector_10" d="M128.868 82.1787C128.705 82.1788 128.547 82.1264 128.417 82.0293C128.287 81.9322 128.192 81.7955 128.146 81.6399C128.1 81.4842 128.106 81.3178 128.162 81.1656C128.219 81.0134 128.323 80.8835 128.459 80.7955C128.815 80.5649 137.307 75.1622 148.449 75.6634C148.547 75.6679 148.644 75.6919 148.734 75.7339C148.823 75.7759 148.904 75.8351 148.97 75.9081C149.037 75.9812 149.088 76.0668 149.122 76.1598C149.155 76.2528 149.17 76.3516 149.165 76.4503C149.152 76.6484 149.063 76.8337 148.916 76.9674C148.77 77.101 148.577 77.1726 148.379 77.167C137.734 76.6783 129.359 82.0033 129.276 82.0584C129.154 82.1371 129.013 82.1788 128.868 82.1787Z" fill="white"/>
<path id="Vector_11" d="M145.156 67.3939C145.109 67.3946 145.062 67.3878 145.018 67.3738C144.89 67.3371 144.783 67.2514 144.718 67.1354C144.654 67.0193 144.638 66.8825 144.674 66.7549C144.702 66.6547 147.636 56.6762 157.705 43.5329C163.604 35.8273 170.766 28.5453 179.005 21.8897C189.279 13.5777 201.27 6.22286 214.626 0.0333376C214.745 -0.0122291 214.876 -0.0110431 214.994 0.0366413C215.112 0.0843257 215.207 0.17492 215.26 0.290166C215.314 0.405412 215.322 0.536763 215.282 0.657483C215.242 0.778202 215.158 0.879338 215.047 0.940495C184.977 14.8782 167.704 32.1287 158.507 44.1444C148.564 57.1374 145.682 66.9328 145.654 67.0305C145.624 67.138 145.558 67.2322 145.467 67.2981C145.377 67.3639 145.267 67.3976 145.156 67.3939Z" fill="#1D1D1B"/>
<path id="Vector_12" d="M152.924 68.1456C152.861 68.1462 152.799 68.1342 152.74 68.1105C152.617 68.0619 152.518 67.9663 152.465 67.8446C152.412 67.723 152.409 67.5852 152.457 67.4615C152.482 67.3939 155.186 60.6004 161.208 53.0176C166.771 46.0137 176.391 36.8697 190.635 33.0808C190.759 33.059 190.887 33.0847 190.993 33.1529C191.099 33.2211 191.175 33.3267 191.206 33.4488C191.238 33.5708 191.223 33.7002 191.163 33.8113C191.104 33.9224 191.004 34.007 190.885 34.0482C176.922 37.7644 167.475 46.7404 162.007 53.614C156.071 61.084 153.412 67.7622 153.385 67.8274C153.348 67.9203 153.285 68.0002 153.203 68.0569C153.121 68.1136 153.023 68.1445 152.924 68.1456Z" fill="#1D1D1B"/>
<path id="Vector_13" d="M220.081 183.165C219.957 183.165 219.837 183.119 219.745 183.035C219.647 182.946 219.588 182.822 219.582 182.689C219.575 182.557 219.621 182.427 219.71 182.329C222.7 179.016 224.02 175.831 223.637 172.869C223.136 169.01 219.84 166.817 219.808 166.797C219.696 166.725 219.618 166.611 219.59 166.481C219.562 166.35 219.588 166.215 219.66 166.103C219.733 165.991 219.846 165.913 219.976 165.885C220.107 165.858 220.242 165.883 220.354 165.955C220.504 166.053 224.06 168.406 224.629 172.721C225.058 175.991 223.652 179.449 220.452 182.995C220.406 183.048 220.348 183.09 220.285 183.12C220.221 183.149 220.151 183.165 220.081 183.165Z" fill="#1D1D1B"/>
</g>
<g id="woman">
<g id="Group_2">
<path id="Vector_14" d="M191.151 109.417C180.739 94.1716 166.218 90.6408 159.705 89.8289C158.904 90.7104 158.305 91.7556 157.948 92.8918C157.591 94.028 157.485 95.2282 157.638 96.4094C158.449 103.313 157.931 112.838 160.231 116.138C160.231 116.138 147.702 106.924 120.122 104.235C119.265 104.092 118.394 103.965 117.508 103.854L99.7669 102.426C99.7669 102.426 79.8552 100.782 62.6799 110.445C45.5046 120.107 19.9872 141.443 26.2519 157.23C31.9202 171.513 38.7813 173.267 48.8048 171.764C54.7387 170.874 68.4434 161.565 68.4434 161.565C68.4434 161.565 63.0407 175.184 68.4434 198.401L159.063 199.078C159.063 199.078 162.071 169.759 157.059 147.707C184.874 157.48 186.297 123.716 191.151 109.417Z" fill="#07ACEE"/>
<path id="Vector_15" d="M159.401 199.454H159.061L68.1447 198.774L68.0772 198.486C63.5515 179.038 66.6313 166.135 67.7414 162.484C64.5489 164.592 53.9865 171.368 48.8595 172.134C38.6405 173.668 31.6066 171.744 25.9033 157.367C23.0766 150.246 26.3592 141.227 35.3979 131.286C42.3067 123.688 52.4378 115.775 62.4964 110.117C79.574 100.509 99.5986 102.035 99.7966 102.05L117.538 103.481C118.398 103.586 119.277 103.714 120.169 103.862C142.823 106.072 155.485 112.763 159.261 115.056C158.221 112.407 158.008 108.074 157.778 103.529C157.655 101.123 157.527 98.6346 157.276 96.4495C157.115 95.2162 157.224 93.9624 157.597 92.7757C157.969 91.589 158.596 90.4977 159.434 89.5782L159.567 89.428L159.765 89.4529C164.775 90.1026 169.638 91.5973 174.149 93.8733C181.077 97.3565 186.908 102.516 191.474 109.204L191.579 109.357L191.519 109.535C190.652 112.091 189.883 115.321 189.069 118.742C186.505 129.517 183.305 142.916 174.239 147.87C169.751 150.321 164.15 150.456 157.585 148.276C162.346 170.062 159.479 198.822 159.449 199.113L159.401 199.454ZM68.7438 198.023L158.722 198.697C159.033 195.356 161.343 168.255 156.693 147.787L156.542 147.123L157.184 147.349C163.907 149.712 169.365 149.667 173.865 147.211C182.648 142.417 185.796 129.194 188.327 118.569C189.126 115.208 189.88 112.031 190.735 109.472C180.391 94.4372 165.856 91.0091 159.86 90.2248C159.135 91.0586 158.595 92.0369 158.277 93.0948C157.958 94.1527 157.867 95.2662 158.011 96.3617C158.261 98.5719 158.396 101.073 158.512 103.491C158.762 108.54 159.028 113.765 160.534 115.923L161.83 117.782L160.003 116.439C159.88 116.349 147.223 107.252 120.079 104.606H120.054C119.17 104.458 118.3 104.33 117.455 104.228L99.7315 102.799C99.5335 102.784 79.7319 101.281 62.8598 110.771C45.5868 120.486 20.4705 141.653 26.5948 157.092C32.1453 171.075 38.6605 172.904 48.7442 171.393C54.5253 170.523 68.0896 161.344 68.2274 161.251L69.2298 160.567L68.7812 161.703C68.7386 161.838 63.5441 175.397 68.7438 198.025V198.023Z" fill="#1D1D1B"/>
</g>
<g id="Group_3">
<path id="Vector_16" d="M84.7759 76.2772C84.7759 76.2772 79.7792 85.5364 73.8929 80.4996C68.0066 75.4627 55.5148 64.5647 47.0599 72.8692C38.6051 81.1737 38.7579 83.667 31.2252 80.0761C23.6925 76.4851 4.14927 83.2786 14.2855 104.358C24.4218 125.437 93.6443 92.0191 93.6443 92.0191L95.2431 85.6968L84.7759 76.2772Z" fill="#382256"/>
<path id="Vector_17" d="M54.3017 69.8446C61.5687 69.8446 69.5398 76.7734 73.8926 80.4996C75.1455 81.5771 76.3683 82.0031 77.506 82.0031C81.6858 82.0031 84.7731 76.2797 84.7731 76.2797L95.24 85.6993L93.6413 92.0216C93.6413 92.0216 53.6324 111.337 29.9919 111.337C22.537 111.337 16.711 109.415 14.2803 104.361C5.84299 86.8195 17.9713 79.1665 26.6166 79.1665C28.1992 79.1309 29.7705 79.4423 31.2199 80.0787C33.4577 81.1462 35.0164 81.675 36.3244 81.675C39.4217 81.675 41.113 78.7079 47.0544 72.8717C49.2571 70.7091 51.733 69.8472 54.2965 69.8472L54.3017 69.8446ZM54.2965 69.0954C51.3296 69.0954 48.7159 70.1855 46.5283 72.3355C44.9396 73.8967 43.6765 75.2273 42.5639 76.4C39.7072 79.4071 38.274 80.9106 36.3244 80.9106C35.2143 80.9106 33.7834 80.4545 31.5432 79.387C29.9947 78.7092 28.3165 78.3791 26.6266 78.4198C22.3666 78.4198 16.1871 80.3092 12.8443 85.6292C10.6742 89.0798 9.04791 95.1891 13.6161 104.691C15.9767 109.603 21.4921 112.094 30.0071 112.094C39.9003 112.094 53.6777 108.836 70.9557 102.388C83.7984 97.6022 93.8795 92.7534 93.9797 92.7033C94.0799 92.6548 94.1679 92.5847 94.2376 92.4981C94.3074 92.4114 94.357 92.3103 94.383 92.2021L95.9817 85.8772C96.017 85.7433 96.0147 85.6023 95.9749 85.4696C95.9351 85.337 95.8595 85.2178 95.7563 85.1254L85.2867 75.7059C85.1491 75.582 84.9707 75.5133 84.7855 75.5129C84.743 75.5092 84.7003 75.5092 84.6578 75.5129C84.5456 75.5322 84.4392 75.5768 84.3468 75.6432C84.2543 75.7096 84.1782 75.7962 84.1241 75.8964C84.094 75.949 81.1947 81.2264 77.516 81.2264C76.4661 81.2264 75.4162 80.7803 74.3913 79.9058L74.1657 79.7128C69.823 75.9941 61.7391 69.0703 54.3117 69.0703L54.2965 69.0954Z" fill="black"/>
</g>
<g id="Group_4">
<path id="Vector_18" d="M65.0917 99.845C65.0917 99.845 67.5049 104.987 63.1673 114.945C58.8296 124.904 46.8164 112.086 46.8164 112.086L65.0917 99.845Z" fill="#FFCDB2"/>
<path id="Vector_19" d="M58.1532 119.11C52.9485 119.11 46.8168 112.635 46.5437 112.344L46.2402 112.021L65.2475 99.2913L65.433 99.6872C65.5332 99.9052 67.8687 105.097 63.511 115.098C62.5086 117.379 61.0451 118.702 59.1306 119.033C58.8076 119.086 58.4806 119.112 58.1532 119.11ZM47.4031 112.146C48.8014 113.545 54.63 119.048 59.0053 118.288C60.6517 118.003 61.9373 116.827 62.8219 114.795C66.3451 106.711 65.3277 101.827 64.9017 100.424L47.4031 112.146Z" fill="#1D1E1B"/>
</g>
<g id="Group_5">
<path id="Vector_20" d="M62.4332 153.253C64.077 148.143 70.4821 143.66 73.5919 132.935C76.7017 122.21 62.9143 118.449 62.9143 118.449L63.388 114.88C63.388 114.88 54.2941 117.502 44.5462 110.646L41.8299 114.938C41.8299 114.938 30.4934 118.283 30.4257 127.969C30.358 137.654 21.4522 146.397 26.4966 157.716" fill="#07ACEE"/>
<path id="Vector_21" d="M26.5213 158.079C26.4446 158.085 26.3681 158.067 26.3021 158.028C26.2361 157.988 26.184 157.929 26.153 157.859C22.9706 150.714 25.2233 144.6 27.406 138.686C28.7541 135.033 30.027 131.58 30.0521 127.956C30.1147 118.704 40.2761 115.053 41.5791 114.62L44.2228 110.445C44.2504 110.401 44.287 110.363 44.3302 110.334C44.3734 110.305 44.4222 110.286 44.4734 110.277C44.523 110.267 44.5741 110.268 44.6236 110.278C44.6731 110.288 44.72 110.309 44.7616 110.337C54.2514 117.013 63.1949 114.544 63.2826 114.517C63.343 114.501 63.4063 114.499 63.4674 114.513C63.5285 114.526 63.5854 114.554 63.6333 114.595C63.6803 114.635 63.7164 114.687 63.7383 114.745C63.7602 114.804 63.7671 114.866 63.7586 114.928L63.3301 118.186C64.7735 118.632 70.6399 120.691 73.221 125.292C74.5265 127.618 74.7721 130.224 73.9527 133.043C72.0658 139.558 68.9633 143.803 66.4725 147.219C64.8386 149.456 63.4305 151.388 62.7915 153.373C62.7567 153.462 62.6891 153.535 62.6026 153.576C62.516 153.617 62.4168 153.624 62.3255 153.595C62.2343 153.565 62.1578 153.502 62.1117 153.418C62.0655 153.334 62.0531 153.235 62.0772 153.143C62.7512 151.043 64.1947 149.065 65.8636 146.775C68.3219 143.407 71.3767 139.215 73.231 132.835C73.9828 130.216 73.7672 127.806 72.5669 125.663C69.8304 120.782 62.8866 118.835 62.8164 118.817C62.729 118.793 62.6533 118.738 62.6031 118.663C62.5529 118.587 62.5316 118.496 62.5433 118.406L62.9442 115.371C60.8367 115.797 52.9583 116.855 44.6513 111.182L42.1454 115.143C42.0958 115.22 42.0215 115.276 41.9349 115.304C41.8222 115.336 30.8641 118.687 30.7989 127.966C30.7714 131.725 29.4181 135.396 28.1076 138.952C25.9776 144.715 23.7773 150.694 26.837 157.558C26.8575 157.603 26.8688 157.652 26.8703 157.702C26.8718 157.752 26.8635 157.801 26.8458 157.848C26.8281 157.895 26.8015 157.937 26.7673 157.973C26.7331 158.01 26.6921 158.039 26.6466 158.059C26.6062 158.072 26.5639 158.079 26.5213 158.079Z" fill="black"/>
</g>
<g id="Group_6">
<path id="Vector_22" d="M118.755 104.02C118.755 104.02 122.068 110.696 114.3 112.45C106.531 114.204 105.028 110.194 105.028 110.194C105.028 110.194 99.7655 115.206 95.0043 110.946C90.2431 106.686 96.0067 102.176 96.0067 102.176L118.755 104.02Z" fill="white"/>
<path id="Vector_23" d="M110.671 113.272C106.96 113.272 105.444 111.613 104.908 110.783C103.587 111.843 98.9665 115.001 94.7466 111.224C93.3658 109.989 92.6917 108.606 92.7419 107.115C92.8371 104.205 95.6511 101.973 95.7714 101.877C95.8434 101.823 95.932 101.796 96.022 101.8L118.77 103.644C118.835 103.65 118.897 103.672 118.95 103.709C119.004 103.745 119.047 103.794 119.076 103.852C119.136 103.975 120.55 106.882 119.327 109.478C118.542 111.129 116.876 112.252 114.378 112.816C113.163 113.104 111.92 113.257 110.671 113.272ZM105.028 109.819C105.057 109.816 105.085 109.816 105.113 109.819C105.174 109.833 105.23 109.862 105.277 109.903C105.323 109.944 105.359 109.996 105.382 110.054C105.439 110.202 106.905 113.725 114.217 112.074C116.473 111.573 117.976 110.57 118.65 109.152C119.562 107.238 118.773 105.022 118.502 104.368L96.1299 102.554C95.6288 102.985 93.5714 104.879 93.4988 107.135C93.4587 108.388 94.0501 109.578 95.2529 110.658C99.6958 114.632 104.562 110.109 104.775 109.906C104.846 109.846 104.936 109.815 105.028 109.819Z" fill="black"/>
</g>
<g id="Group_7">
<path id="Vector_24" d="M99.9988 63.3342C105.223 63.3342 109.458 59.0989 109.458 53.8745C109.458 48.65 105.223 44.4148 99.9988 44.4148C94.7743 44.4148 90.5391 48.65 90.5391 53.8745C90.5391 59.0989 94.7743 63.3342 99.9988 63.3342Z" fill="#382256"/>
<path id="Vector_25" d="M99.9891 44.4127C102.267 44.4097 104.469 45.2285 106.192 46.7187C107.915 48.209 109.042 50.2707 109.367 52.5252C109.692 54.7798 109.193 57.0759 107.961 58.9919C106.729 60.908 104.847 62.3153 102.661 62.9556C100.475 63.5959 98.1318 63.4261 96.0609 62.4774C93.99 61.5287 92.3309 59.8648 91.3881 57.7912C90.4453 55.7177 90.282 53.3736 90.9285 51.1894C91.575 49.0053 92.9878 47.1275 94.9073 45.9012C96.4249 44.931 98.1879 44.4146 99.9891 44.4127ZM99.9891 43.6609C97.7222 43.663 95.5206 44.4193 93.731 45.8107C91.9414 47.2021 90.6654 49.1494 90.1046 51.3458C89.5437 53.5422 89.7297 55.8629 90.6332 57.942C91.5366 60.0211 93.106 61.7404 95.0943 62.8291C97.0826 63.9178 99.3769 64.314 101.615 63.9551C103.854 63.5963 105.909 62.5027 107.457 60.847C109.005 59.1913 109.959 57.0674 110.167 54.8101C110.375 52.5528 109.826 50.2905 108.607 48.3795C107.685 46.9303 106.411 45.7378 104.904 44.9129C103.398 44.0879 101.707 43.6572 99.9891 43.6609Z" fill="black"/>
</g>
<g id="Group_8">
<path id="Vector_26" d="M76.6848 85.8021C76.6848 85.8021 69.5632 80.7904 71.7533 74.6284C73.9435 68.4665 75.5271 68.8173 76.4668 65.4945C77.4065 62.1717 82.8118 58.3853 88.1994 59.3651C88.1994 59.3651 94.1935 53.8397 100.228 54.7543C106.262 55.6689 108.587 58.2625 110.727 62.6754C112.867 67.0882 114.737 68.9577 116.348 72.0123C117.959 75.067 120.791 83.8175 108.991 91.6809C97.1904 99.5444 76.6848 85.8021 76.6848 85.8021Z" fill="#382256"/>
<path id="Vector_27" d="M98.8418 54.6514C99.3032 54.6508 99.7639 54.6852 100.22 54.7542C106.234 55.6689 108.58 58.2624 110.72 62.6753C112.86 67.0881 114.729 68.9576 116.34 72.0122C117.952 75.0669 120.783 83.8174 108.983 91.6808C106.36 93.4349 103.302 94.1116 100.14 94.1116C89.0791 94.1116 76.6848 85.802 76.6848 85.802C76.6848 85.802 69.5632 80.7903 71.7534 74.6284C73.9435 68.4664 75.5271 68.8172 76.4668 65.4944C77.3038 62.5375 81.6816 59.2072 86.4353 59.2072C87.0235 59.2071 87.6106 59.2599 88.1894 59.365C88.1894 59.365 93.3038 54.6514 98.8318 54.6514H98.8418ZM98.8318 53.8997C93.7599 53.8997 89.1341 57.5608 87.9589 58.5657C87.4509 58.4924 86.9384 58.4555 86.4252 58.4554C81.2656 58.4554 76.6523 62.0588 75.7327 65.2914C75.3518 66.6396 74.8732 67.2962 74.2142 68.2058C73.3547 69.3861 72.2871 70.8545 71.0341 74.3752C70.0518 77.1317 70.6557 80.1137 72.7882 82.9729C73.7687 84.2815 74.9334 85.4413 76.2463 86.416C78.7026 88.0018 81.2694 89.4095 83.9269 90.6284C88.0842 92.5555 94.2687 94.8533 100.12 94.8533C103.721 94.8533 106.836 93.9937 109.392 92.2973C114.654 88.789 117.699 84.697 118.413 80.1513C118.859 77.2382 118.359 74.2586 116.984 71.6514C116.311 70.4146 115.569 69.2164 114.762 68.0629C113.486 66.2453 112.354 64.3308 111.376 62.337C109.171 57.7863 106.655 54.9622 100.313 53.9999C99.8192 53.9262 99.3208 53.8894 98.8217 53.8896L98.8318 53.8997Z" fill="black"/>
</g>
<path id="Vector_28" d="M99.2479 77.1192C99.1482 77.1235 99.051 77.088 98.9774 77.0206C98.9039 76.9532 98.8601 76.8593 98.8558 76.7596C98.8515 76.6599 98.8868 76.5626 98.9542 76.4891C99.0216 76.4155 99.1156 76.3718 99.2153 76.3674C103.114 76.0191 106.711 71.6363 106.748 71.5912C106.779 71.5529 106.818 71.521 106.861 71.4975C106.904 71.474 106.952 71.4593 107.001 71.4542C107.05 71.4491 107.1 71.4536 107.147 71.4676C107.194 71.4817 107.238 71.5049 107.277 71.536C107.315 71.5671 107.347 71.6056 107.37 71.649C107.394 71.6924 107.409 71.74 107.414 71.7891C107.419 71.8382 107.414 71.8877 107.4 71.9351C107.386 71.9824 107.363 72.0265 107.332 72.0649C107.176 72.2553 103.5 76.7383 99.2831 77.1166L99.2479 77.1192Z" fill="black"/>
<path id="Vector_29" d="M99.3357 74.4103C92.7402 74.4103 89.8733 67.5092 89.8407 67.429C89.8085 67.3377 89.8128 67.2374 89.8527 67.1492C89.8926 67.0609 89.965 66.9914 90.0548 66.9552C90.1447 66.919 90.2449 66.9189 90.3348 66.9549C90.4247 66.9908 90.4973 67.0601 90.5374 67.1483C90.6778 67.4891 94.0055 75.4653 101.974 73.2851C102.068 73.2645 102.167 73.2809 102.249 73.3308C102.332 73.3807 102.392 73.4603 102.417 73.5532C102.443 73.6462 102.431 73.7454 102.386 73.8302C102.34 73.9151 102.264 73.9792 102.172 74.0094C101.249 74.2695 100.295 74.4044 99.3357 74.4103Z" fill="white"/>
<path id="Vector_30" d="M109.321 44.891C109.244 44.8913 109.167 44.8673 109.104 44.8224C109.04 44.7775 108.992 44.714 108.966 44.6404C108.262 42.6608 107.109 41.28 105.538 40.5383C102.726 39.2102 99.4708 40.3629 99.4382 40.3754C99.3466 40.4006 99.249 40.3901 99.1648 40.3462C99.0807 40.3022 99.0162 40.228 98.9845 40.1385C98.9528 40.049 98.9561 39.9509 98.9938 39.8637C99.0315 39.7766 99.1007 39.7068 99.1876 39.6687C99.3329 39.6161 102.761 38.3982 105.861 39.8566C107.615 40.6836 108.908 42.2097 109.682 44.3898C109.699 44.4364 109.706 44.4858 109.704 44.5352C109.702 44.5846 109.689 44.6331 109.668 44.6778C109.647 44.7224 109.617 44.7624 109.58 44.7956C109.544 44.8287 109.501 44.8544 109.454 44.871C109.411 44.8842 109.367 44.891 109.321 44.891Z" fill="black"/>
<path id="Vector_31" d="M106.262 51.2736C106.194 51.2733 106.127 51.2547 106.069 51.2199C106.011 51.1851 105.963 51.1352 105.931 51.0756C104.873 49.1135 103.513 47.9208 101.884 47.5274C99.2226 46.8884 96.6892 48.6074 96.6641 48.6249C96.5823 48.6757 96.4841 48.6931 96.3898 48.6736C96.2955 48.6541 96.2123 48.5991 96.1573 48.5201C96.1023 48.441 96.0796 48.3439 96.0942 48.2487C96.1087 48.1535 96.1595 48.0675 96.2356 48.0085C96.3509 47.9283 99.0597 46.0789 102.052 46.7956C103.901 47.2391 105.427 48.5498 106.592 50.7174C106.624 50.7747 106.64 50.8391 106.638 50.9044C106.637 50.9698 106.619 51.0337 106.586 51.0898C106.552 51.146 106.505 51.1924 106.448 51.2247C106.391 51.2569 106.327 51.2738 106.262 51.2736Z" fill="white"/>
<g id="Group_9">
<path id="Vector_32" d="M95.5816 98.7172V102.476C95.5816 102.476 102.097 112.249 114.626 104.23C114.626 104.23 108.479 95.397 105.189 84.9124C105.189 84.9124 109.827 83.6594 108.875 79.4997C107.923 75.3399 104.515 74.7986 102.58 76.034C102.58 76.034 95.0629 81.8502 86.3174 66.0105C86.3174 66.0105 78.2107 69.827 76.9252 78.4698C75.6397 87.1126 77.8325 96.9381 84.5408 99.4565C91.249 101.975 95.5816 98.7172 95.5816 98.7172Z" fill="#FFCDB2"/>
<path id="Vector_33" d="M86.317 66.0084C91.3639 75.1448 95.9971 77.0768 99.0167 77.0768C100.283 77.1026 101.527 76.7387 102.58 76.0343C103.19 75.6518 103.897 75.4502 104.618 75.453C106.342 75.453 108.208 76.5932 108.878 79.5C109.83 83.6522 105.191 84.9127 105.191 84.9127C108.481 95.3973 114.628 104.23 114.628 104.23C110.982 106.563 107.847 107.39 105.231 107.39C98.8588 107.39 95.5836 102.476 95.5836 102.476V98.7176C95.5836 98.7176 93.3283 100.411 89.5695 100.411C87.8548 100.398 86.1568 100.074 84.5578 99.4543C77.8495 96.9484 75.657 87.1103 76.9425 78.4675C78.228 69.8247 86.3344 66.0084 86.3344 66.0084H86.317ZM86.3344 65.2566C86.2241 65.2561 86.1154 65.2809 86.0163 65.3292C84.4067 66.1541 82.9226 67.2038 81.6085 68.4466C78.6214 71.2256 76.7496 74.6536 76.1983 78.3573C75.5142 82.9706 75.8098 87.6291 77.0352 91.4856C78.4435 95.906 80.9519 98.9055 84.3023 100.158C85.9876 100.807 87.7763 101.147 89.5822 101.161C91.4 101.172 93.1975 100.78 94.8446 100.011V102.476C94.844 102.625 94.8876 102.771 94.9699 102.895C95.1127 103.108 98.5458 108.142 105.244 108.142C108.349 108.142 111.646 107.04 115.044 104.864C115.13 104.81 115.203 104.739 115.26 104.655C115.317 104.572 115.357 104.478 115.377 104.379C115.397 104.279 115.396 104.177 115.376 104.078C115.355 103.979 115.315 103.885 115.257 103.802C115.197 103.717 109.406 95.3221 106.141 85.3713C106.762 85.1112 107.344 84.768 107.872 84.3513C109.476 83.0658 110.08 81.3292 109.627 79.3396C108.845 75.9266 106.537 74.7087 104.637 74.7087C103.774 74.7074 102.928 74.9497 102.197 75.4079L102.141 75.448C101.217 76.0437 100.136 76.3515 99.0368 76.3325C96.2352 76.3325 91.8725 74.4806 87.0086 65.6524C86.9435 65.5346 86.848 65.4365 86.732 65.3682C86.6161 65.2999 86.4841 65.2639 86.3496 65.2641L86.3344 65.2566Z" fill="black"/>
</g>
<path id="Vector_34" d="M95.456 99.4691C95.3671 99.4689 95.2811 99.4372 95.2133 99.3795C95.1455 99.3218 95.1005 99.2419 95.086 99.1541C95.0716 99.0663 95.0888 98.9763 95.1345 98.9C95.1802 98.8237 95.2517 98.7661 95.3359 98.7374C98.9268 97.5396 101.653 93.5852 101.681 93.5451C101.708 93.5043 101.744 93.4694 101.785 93.4424C101.827 93.4153 101.873 93.3966 101.921 93.3874C101.97 93.3782 102.02 93.3787 102.068 93.3888C102.116 93.3988 102.162 93.4184 102.203 93.4462C102.244 93.474 102.279 93.5096 102.306 93.5509C102.333 93.5922 102.352 93.6384 102.361 93.687C102.37 93.7355 102.37 93.7853 102.359 93.8337C102.349 93.882 102.33 93.9278 102.302 93.9686C102.187 94.139 99.4077 98.171 95.5738 99.449C95.536 99.4627 95.4962 99.4695 95.456 99.4691Z" fill="black"/>
<path id="Vector_35" d="M105.076 82.9804C105.014 82.98 104.953 82.9645 104.898 82.9353C104.812 82.8885 104.747 82.8099 104.718 82.7162C104.689 82.6226 104.698 82.5214 104.743 82.4341C105.472 81.0684 105.632 80.0084 105.216 79.2842C104.627 78.2543 103.023 78.1765 103.008 78.1765C102.909 78.172 102.815 78.1285 102.748 78.0553C102.68 77.9821 102.644 77.8853 102.648 77.7857C102.652 77.6865 102.695 77.5927 102.767 77.5251C102.84 77.4575 102.937 77.4214 103.036 77.4248C103.119 77.4248 105.068 77.515 105.868 78.9058C106.421 79.8706 106.266 81.1786 105.407 82.7899C105.373 82.8481 105.325 82.8964 105.267 82.9299C105.209 82.9633 105.143 82.9808 105.076 82.9804Z" fill="black"/>
<path id="Vector_36" d="M86.6777 78.773C91.5366 79.1388 97.6234 76.2069 98.9565 77.743C100.29 79.2791 99.7535 81.6546 97.2702 82.5618C94.7868 83.4689 92.2384 83.732 86.9836 84.0277C81.7288 84.3234 76.5615 84.2182 76.777 81.359C76.9925 78.4998 79.5309 78.2317 86.6777 78.773Z" fill="#FFB49F"/>
<path id="Vector_37" d="M80.7887 76.4653C80.7171 76.4651 80.6471 76.4444 80.5869 76.4057C80.5266 76.3671 80.4786 76.312 80.4486 76.2469C80.4186 76.1819 80.4078 76.1096 80.4175 76.0387C80.4272 75.9677 80.4568 75.901 80.5032 75.8463C80.5708 75.7686 82.1495 73.9494 84.262 74.0922C84.3617 74.0995 84.4543 74.1461 84.5197 74.2218C84.585 74.2975 84.6175 74.3959 84.6102 74.4956C84.6029 74.5953 84.5564 74.6881 84.4808 74.7534C84.4051 74.8188 84.3066 74.8513 84.2069 74.844C82.4678 74.7137 81.082 76.3124 81.067 76.3274C81.0334 76.3693 80.9912 76.4034 80.9432 76.4272C80.8951 76.451 80.8423 76.464 80.7887 76.4653Z" fill="black"/>
<path id="Vector_38" d="M86.1794 87.5211C86.1536 87.5237 86.1274 87.5237 86.1016 87.5211C86.0532 87.511 86.0073 87.4914 85.9665 87.4635C85.9257 87.4355 85.8907 87.3999 85.8637 87.3585C85.8367 87.317 85.8182 87.2707 85.8092 87.222C85.8001 87.1734 85.8006 87.1235 85.8109 87.0751L87.4096 79.3619C87.4196 79.3136 87.4393 79.2677 87.4671 79.2268C87.4949 79.186 87.5303 79.1511 87.5716 79.1239C87.6129 79.0968 87.6591 79.0781 87.7076 79.0689C87.7562 79.0596 87.8061 79.0601 87.8545 79.0701C87.9029 79.0801 87.9487 79.0996 87.9896 79.1274C88.0304 79.1552 88.0655 79.1907 88.0926 79.232C88.1197 79.2733 88.1384 79.3195 88.1476 79.368C88.1569 79.4166 88.1565 79.4665 88.1464 79.5149L86.5453 87.2279C86.5269 87.3112 86.4807 87.3858 86.4141 87.4391C86.3475 87.4925 86.2647 87.5214 86.1794 87.5211Z" fill="black"/>
<g id="Group_10">
<path id="Vector_39" d="M107.098 86.2078C107.954 86.2078 108.647 85.5144 108.647 84.6592C108.647 83.8039 107.954 83.1106 107.098 83.1106C106.243 83.1106 105.55 83.8039 105.55 84.6592C105.55 85.5144 106.243 86.2078 107.098 86.2078Z" fill="#07ACEE"/>
<path id="Vector_40" d="M107.096 83.1109C107.431 83.1106 107.757 83.219 108.026 83.4199C108.294 83.6208 108.49 83.9033 108.584 84.225C108.678 84.5467 108.665 84.8902 108.547 85.204C108.429 85.5177 108.213 85.7848 107.931 85.965C107.585 86.1858 107.165 86.2601 106.764 86.1718C106.363 86.0835 106.014 85.8397 105.793 85.4939C105.572 85.1476 105.498 84.7277 105.586 84.3265C105.674 83.9253 105.918 83.5755 106.264 83.3539C106.511 83.1921 106.8 83.1051 107.096 83.1033V83.1109ZM107.096 82.3516C106.586 82.3526 106.091 82.5232 105.688 82.8366C105.286 83.15 105 83.5882 104.874 84.0824C104.748 84.5766 104.79 85.0988 104.993 85.5664C105.197 86.034 105.55 86.4206 105.998 86.6654C106.445 86.9102 106.961 86.9991 107.465 86.9183C107.968 86.8375 108.431 86.5915 108.779 86.219C109.127 85.8466 109.342 85.3687 109.389 84.8609C109.436 84.3531 109.312 83.8441 109.038 83.4141C108.83 83.0878 108.543 82.8193 108.203 82.6336C107.864 82.4479 107.483 82.3508 107.096 82.3516Z" fill="black"/>
</g>
<path id="Vector_41" d="M94.6817 81.2439C95.1661 81.2439 95.5588 80.8512 95.5588 80.3668C95.5588 79.8824 95.1661 79.4897 94.6817 79.4897C94.1974 79.4897 93.8047 79.8824 93.8047 80.3668C93.8047 80.8512 94.1974 81.2439 94.6817 81.2439Z" fill="black"/>
<path id="Vector_42" d="M81.8536 82.1259C82.338 82.1259 82.7307 81.7333 82.7307 81.2489C82.7307 80.7645 82.338 80.3718 81.8536 80.3718C81.3692 80.3718 80.9766 80.7645 80.9766 81.2489C80.9766 81.7333 81.3692 82.1259 81.8536 82.1259Z" fill="black"/>
<path id="Vector_43" d="M90.7774 93.7909C90.4804 93.7896 90.1848 93.75 89.8979 93.6732C89.8015 93.6469 89.7194 93.5834 89.6698 93.4967C89.6202 93.41 89.6071 93.3072 89.6334 93.2108C89.6596 93.1144 89.7231 93.0324 89.8098 92.9828C89.8965 92.9333 89.9995 92.9202 90.0959 92.9465C92.5241 93.603 94.1477 90.408 94.1652 90.3754C94.1847 90.3275 94.2141 90.2842 94.2511 90.2481C94.2881 90.2121 94.3322 90.184 94.3806 90.1657C94.4289 90.1474 94.4804 90.1393 94.5321 90.1418C94.5837 90.1444 94.6343 90.1576 94.6806 90.1806C94.7269 90.2036 94.768 90.2359 94.8012 90.2754C94.8345 90.315 94.8592 90.361 94.8739 90.4105C94.8886 90.4601 94.8927 90.5122 94.8864 90.5635C94.88 90.6148 94.8633 90.6642 94.837 90.7087C94.7868 90.849 93.2833 93.7909 90.7774 93.7909Z" fill="black"/>
<path id="Vector_44" d="M89.8555 74.3403C89.7617 74.3382 89.6721 74.3005 89.6049 74.235C89.5331 74.1662 89.4912 74.072 89.4884 73.9725C89.4856 73.8731 89.5219 73.7766 89.5897 73.7038C89.715 73.5735 90.8429 72.4333 91.8903 72.8017C91.9847 72.8349 92.0619 72.9043 92.1052 72.9945C92.1484 73.0848 92.1541 73.1884 92.1208 73.2828C92.0876 73.3772 92.0182 73.4544 91.928 73.4977C91.8378 73.5409 91.7341 73.5466 91.6397 73.5133C91.1385 73.3329 90.3642 73.9819 90.1362 74.2225C90.1001 74.2605 90.0565 74.2906 90.0082 74.3109C89.9599 74.3311 89.9079 74.3412 89.8555 74.3403Z" fill="black"/>
<path id="Vector_45" d="M42.1389 115.188C42.1138 115.163 44.7098 111.119 44.7098 111.119C54.4577 117.975 63.0027 115.279 63.0027 115.279L62.6293 118.854L62.7071 118.694C62.7071 118.694 53.8238 126.001 42.1389 115.188Z" fill="#0598C6"/>
<path id="Vector_46" d="M130.972 118.747C132.098 118.747 133.011 117.834 133.011 116.707C133.011 115.581 132.098 114.667 130.972 114.667C129.845 114.667 128.932 115.581 128.932 116.707C128.932 117.834 129.845 118.747 130.972 118.747Z" fill="#51CEF4"/>
<path id="Vector_47" d="M171.066 137.29C172.193 137.29 173.106 136.377 173.106 135.251C173.106 134.124 172.193 133.211 171.066 133.211C169.94 133.211 169.026 134.124 169.026 135.251C169.026 136.377 169.94 137.29 171.066 137.29Z" fill="#51CEF4"/>
<path id="Vector_48" d="M167.308 104.714C168.434 104.714 169.347 103.801 169.347 102.674C169.347 101.548 168.434 100.634 167.308 100.634C166.181 100.634 165.268 101.548 165.268 102.674C165.268 103.801 166.181 104.714 167.308 104.714Z" fill="#51CEF4"/>
<g id="Group_11">
<g id="Group_12">
<path id="Vector_49" d="M74.8444 91.394L73.1656 89.5438C72.5229 88.8356 71.4278 88.7825 70.7196 89.4251L44.7851 112.958C44.0769 113.6 44.0238 114.695 44.6664 115.403L46.3452 117.254C46.9878 117.962 48.0829 118.015 48.7911 117.372L74.7256 93.84C75.4338 93.1974 75.487 92.1022 74.8444 91.394Z" fill="white"/>
<path id="Vector_50" d="M47.7618 118.165H47.6566C47.3801 118.153 47.1087 118.086 46.8583 117.969C46.6079 117.851 46.3835 117.684 46.1981 117.479L44.5193 115.627C44.1441 115.213 43.9483 114.667 43.9751 114.109C44.0019 113.551 44.2489 113.026 44.662 112.65L70.5978 89.1147C71.012 88.7406 71.5576 88.5458 72.1151 88.5731C72.6726 88.6003 73.1966 88.8473 73.5724 89.26L75.2538 91.1119C75.4397 91.3167 75.5834 91.5562 75.6767 91.8165C75.7699 92.0769 75.811 92.353 75.7975 92.6292C75.784 92.9055 75.7163 93.1764 75.5981 93.4264C75.4799 93.6764 75.3134 93.9007 75.1084 94.0864L49.1726 117.622C48.7874 117.974 48.2837 118.168 47.7618 118.165ZM72.0138 89.3202C71.6766 89.3194 71.3514 89.4445 71.1017 89.671L45.1708 113.204C44.9047 113.445 44.7455 113.783 44.7281 114.142C44.7107 114.501 44.8365 114.852 45.078 115.118L46.757 116.97C46.8765 117.102 47.0209 117.209 47.1818 117.285C47.3428 117.362 47.5171 117.405 47.695 117.414C47.8728 117.422 48.0506 117.396 48.2182 117.336C48.3858 117.275 48.5397 117.183 48.6714 117.063L74.6073 93.5276C74.8722 93.2852 75.0306 92.9481 75.048 92.5895C75.0653 92.2308 74.9402 91.8798 74.7 91.613L73.0186 89.7637C72.8919 89.623 72.7368 89.5108 72.5636 89.4343C72.3904 89.3579 72.2031 89.319 72.0138 89.3202Z" fill="#1D1E1B"/>
</g>
<g id="Group_13">
<path id="Vector_51" d="M90.9108 83.3263L89.3921 82.9755C89.3452 82.9635 89.2976 82.9551 89.2494 82.9504C89.2549 81.5718 88.9758 80.2069 88.4299 78.941L89.5451 78.1567C89.7976 77.9786 89.9691 77.7074 90.0218 77.4029C90.0744 77.0984 90.0039 76.7855 89.8257 76.5329L88.4123 74.5282C88.2337 74.2762 87.9626 74.1051 87.6583 74.0525C87.354 73.9999 87.0413 74.0701 86.7886 74.2475L85.5557 75.117C84.9168 74.5921 84.2157 74.1478 83.4683 73.794L83.7864 72.4182C83.821 72.2693 83.8258 72.115 83.8006 71.9642C83.7755 71.8134 83.7208 71.6692 83.6398 71.5395C83.5588 71.4099 83.4533 71.2975 83.3288 71.2088C83.2043 71.1201 83.0635 71.0567 82.9145 71.0224L80.5214 70.4661C80.3724 70.4315 80.218 70.4268 80.067 70.4519C79.9161 70.477 79.7715 70.5316 79.6417 70.6125C79.5118 70.6935 79.3991 70.7993 79.3101 70.9238C79.2211 71.0483 79.1577 71.1892 79.1231 71.3382L78.7774 72.8292C77.7647 72.8659 76.7634 73.056 75.8077 73.393L74.9307 72.14C74.8427 72.0151 74.7311 71.9087 74.602 71.8269C74.4729 71.7452 74.3288 71.6897 74.1782 71.6636C74.0276 71.6375 73.8736 71.6415 73.7245 71.6751C73.5754 71.7087 73.4343 71.7712 73.3095 71.8594L71.3047 73.2753C71.0525 73.453 70.8811 73.7233 70.828 74.0273C70.775 74.3312 70.8445 74.6438 71.0216 74.8965L71.7959 75.9941C71.0957 76.7362 70.5135 77.5813 70.0694 78.4999L68.6259 78.1642C68.4768 78.1296 68.3224 78.1248 68.1714 78.1499C68.0205 78.175 67.8759 78.2297 67.7461 78.3107C67.6163 78.3916 67.5037 78.4973 67.4148 78.6218C67.3258 78.7463 67.2621 78.8872 67.2276 79.0362L66.6738 81.4293C66.6039 81.73 66.6563 82.0463 66.8194 82.3084C66.9824 82.5706 67.2429 82.7573 67.5435 82.8276L69.047 83.1759C69.0741 84.2514 69.2728 85.3157 69.6358 86.3284L68.4054 87.1954C68.2804 87.2834 68.1741 87.395 68.0924 87.5242C68.0106 87.6533 67.955 87.7973 67.9289 87.9479C67.9028 88.0985 67.9068 88.2526 67.9404 88.4017C67.974 88.5508 68.0366 88.6919 68.1247 88.8167L69.5406 90.8214C69.6286 90.9464 69.7404 91.0528 69.8695 91.1346C69.9986 91.2163 70.1425 91.2717 70.2931 91.2978C70.4437 91.3239 70.598 91.32 70.747 91.2864C70.8961 91.2528 71.037 91.1901 71.1618 91.102L72.2694 90.3227C73.0073 91.0086 73.8436 91.5804 74.7503 92.0192C74.7405 92.048 74.7322 92.0773 74.7254 92.1069L74.372 93.628C74.3374 93.777 74.3324 93.9314 74.3576 94.0824C74.3827 94.2333 74.4374 94.3779 74.5183 94.5077C74.5993 94.6376 74.7051 94.7502 74.8296 94.8392C74.9541 94.9281 75.0948 94.9917 75.2439 95.0263L77.6397 95.58C77.7886 95.6146 77.9428 95.6194 78.0936 95.5942C78.2444 95.5691 78.3886 95.5145 78.5182 95.4335C78.6478 95.3525 78.7603 95.2467 78.8491 95.1222C78.9378 94.9977 79.001 94.857 79.0353 94.708L79.3887 93.1894C79.4007 93.1349 79.4092 93.0796 79.4139 93.024C80.5597 92.9945 81.6918 92.7692 82.7616 92.3575C82.7815 92.3921 82.8032 92.4255 82.8267 92.4577L83.7238 93.7332C83.9019 93.9857 84.1732 94.1573 84.4777 94.2099C84.7823 94.2625 85.0952 94.192 85.3477 94.0139L87.3524 92.5981C87.6042 92.42 87.7753 92.1494 87.8279 91.8455C87.8805 91.5415 87.8104 91.2291 87.6331 90.9767L86.7335 89.7013L86.6883 89.6411C87.2485 89.0146 87.7276 88.32 88.1142 87.5737C88.1765 87.601 88.2409 87.6229 88.307 87.6389L89.8282 87.9897C89.9773 88.0243 90.1317 88.0292 90.2826 88.004C90.4336 87.9789 90.5781 87.9242 90.7079 87.8433C90.8378 87.7623 90.9503 87.6566 91.0393 87.5321C91.1282 87.4076 91.1919 87.2668 91.2265 87.1177L91.7803 84.7246C91.8501 84.4239 91.7977 84.1078 91.6347 83.8456C91.4716 83.5834 91.2114 83.3967 90.9108 83.3263ZM77.5418 89.9368C76.1507 89.6143 74.8867 88.8865 73.9092 87.8455C72.9318 86.8044 72.2849 85.497 72.0506 84.0884C71.8164 82.6797 72.0051 81.2332 72.5929 79.9319C73.1808 78.6305 74.1415 77.5328 75.3533 76.7774C76.5651 76.022 77.9736 75.6428 79.4009 75.688C80.8281 75.7332 82.2098 76.2007 83.3714 77.0313C84.533 77.8619 85.4221 79.0183 85.9265 80.3543C86.4308 81.6902 86.5276 83.1457 86.2047 84.5367C85.9917 85.4611 85.5987 86.3344 85.0479 87.1067C84.4972 87.879 83.7993 88.5351 82.9948 89.0376C82.1902 89.5401 81.2946 89.8791 80.3589 90.0351C79.4233 90.1911 78.4659 90.1611 77.5418 89.9468V89.9368Z" fill="white"/>
<path id="Vector_52" d="M77.8999 95.9858C77.7826 95.9861 77.6655 95.9726 77.5514 95.9457L75.1559 95.3919C74.7585 95.2983 74.4143 95.0513 74.1983 94.7049C73.9824 94.3584 73.9121 93.9406 74.003 93.5426L74.3114 92.2194C73.5649 91.8334 72.8681 91.358 72.2364 90.8036L71.377 91.41C71.0425 91.6447 70.6287 91.7372 70.2261 91.6672C69.8235 91.5972 69.465 91.3705 69.2294 91.0367L67.8162 89.032C67.7003 88.8664 67.6184 88.6795 67.5754 88.482C67.5323 88.2846 67.5291 88.0805 67.5656 87.8817C67.5995 87.6813 67.6728 87.4896 67.7812 87.3176C67.8895 87.1455 68.0308 86.9965 68.1969 86.8794L69.1993 86.1753C68.9127 85.2995 68.7441 84.3893 68.6981 83.4689L67.4704 83.1858C67.073 83.0934 66.7285 82.8469 66.5128 82.5006C66.2971 82.1542 66.2279 81.7364 66.3202 81.3389L66.874 78.9433C66.9664 78.5452 67.2131 78.2002 67.5599 77.984C67.9067 77.7678 68.3252 77.6984 68.7233 77.7907L69.8784 78.0588C70.2724 77.3031 70.759 76.5994 71.3268 75.9639L70.728 75.1118C70.6114 74.9466 70.5285 74.7601 70.484 74.5629C70.4396 74.3657 70.4344 74.1617 70.4689 73.9625C70.5033 73.7633 70.5766 73.5728 70.6847 73.402C70.7928 73.2311 70.9335 73.0833 71.0988 72.9669L73.1035 71.5509C73.438 71.3163 73.8518 71.2239 74.2544 71.2939C74.6569 71.3639 75.0154 71.5906 75.2511 71.9244L75.9652 72.9392C76.7833 72.6762 77.631 72.5156 78.4887 72.4607L78.7693 71.2453C78.8624 70.8476 79.1091 70.5029 79.4558 70.2869C79.8024 70.0708 80.2206 70.0009 80.6187 70.0926L83.0117 70.6489C83.2089 70.6941 83.3951 70.7777 83.5599 70.8951C83.7246 71.0125 83.8646 71.1612 83.9717 71.3328C84.0788 71.5044 84.1511 71.6955 84.1841 71.895C84.2172 72.0946 84.2106 72.2987 84.1646 72.4957L83.914 73.5807C84.5022 73.8801 85.0608 74.2342 85.5827 74.6383L86.585 73.9315C86.9191 73.697 87.3328 73.6046 87.735 73.6746C88.1371 73.7446 88.495 73.9713 88.7302 74.305L90.1461 76.3097C90.3809 76.6435 90.4736 77.0567 90.4041 77.4589C90.3345 77.861 90.1084 78.2191 89.7751 78.4547L88.9057 79.0686C89.3582 80.2046 89.6052 81.412 89.6349 82.6344L91.008 82.9527C91.4057 83.0457 91.7505 83.2926 91.9666 83.6392C92.1826 83.9859 92.2523 84.4041 92.1606 84.8021L91.6068 87.1952C91.5144 87.5933 91.2677 87.9383 90.9209 88.1545C90.5741 88.3706 90.1556 88.4402 89.7575 88.3479L88.3142 88.0146C87.9904 88.597 87.6112 89.1466 87.1817 89.6559L87.9535 90.751C88.1891 91.085 88.2822 91.4988 88.2126 91.9015C88.1431 92.3043 87.9164 92.6629 87.5825 92.8985L85.5778 94.3144C85.4125 94.4309 85.2257 94.5135 85.0284 94.5578C84.8311 94.6021 84.6271 94.607 84.4279 94.5724C84.2287 94.5377 84.0382 94.4641 83.8675 94.3558C83.6967 94.2475 83.5491 94.1065 83.4329 93.941L82.6309 92.8033C81.6999 93.1309 80.7271 93.325 79.7416 93.3797L79.4159 94.7855C79.3381 95.1286 79.1452 95.4347 78.8694 95.653C78.5936 95.8714 78.2516 95.9888 77.8999 95.9858ZM72.2991 89.8388L72.5223 90.0469C73.2324 90.7074 74.0372 91.2581 74.9102 91.6807L75.2034 91.821L75.1057 92.1318C75.0987 92.1515 75.0928 92.1715 75.0881 92.1919L74.7399 93.7055C74.6933 93.9095 74.7294 94.1236 74.8402 94.3011C74.951 94.4786 75.1276 94.6049 75.3313 94.6526L77.7244 95.2065C77.9281 95.2539 78.1422 95.2183 78.3198 95.1079C78.4974 94.9975 78.624 94.8212 78.6717 94.6176L79.0248 93.0965C79.0248 93.0589 79.0249 93.0214 79.0424 92.9838L79.0701 92.6479H79.4058C80.5094 92.6183 81.6 92.4015 82.6309 92.0065L82.9317 91.8887L83.092 92.1718L83.1346 92.2421L84.0341 93.5151C84.0936 93.5997 84.1692 93.6718 84.2566 93.7272C84.344 93.7826 84.4414 93.8202 84.5434 93.8379C84.6453 93.8555 84.7498 93.853 84.8507 93.8303C84.9517 93.8075 85.0471 93.7651 85.1317 93.7055L87.1364 92.2921C87.2211 92.2324 87.2934 92.1565 87.3488 92.0689C87.4042 91.9813 87.442 91.8837 87.4597 91.7815C87.4773 91.6794 87.4746 91.5748 87.4518 91.4737C87.4291 91.3725 87.3868 91.2769 87.327 91.1921L86.4299 89.9165L86.3998 89.8765L86.1994 89.6259L86.4098 89.3878C86.9498 88.7853 87.4111 88.1168 87.7829 87.3982L87.9408 87.09L88.2616 87.2253C88.3044 87.2436 88.349 87.2578 88.3945 87.2679L89.9154 87.6212C90.1186 87.6671 90.3319 87.631 90.5088 87.5208C90.6856 87.4106 90.8119 87.2351 90.8602 87.0323L91.4164 84.6367C91.4631 84.4331 91.4274 84.2192 91.3171 84.0418C91.2068 83.8644 91.0309 83.7377 90.8277 83.6894L89.3065 83.3386C89.2744 83.3312 89.2418 83.3261 89.2089 83.3236L88.8731 83.286V82.9477C88.8799 81.62 88.6119 80.3054 88.0861 79.0862L87.966 78.8055L89.329 77.8457C89.4989 77.7248 89.6142 77.5416 89.6499 77.3361C89.6855 77.1306 89.6389 76.9194 89.5197 76.7482L88.1037 74.7435C88.0443 74.6588 87.9687 74.5867 87.8813 74.5313C87.7939 74.4759 87.6964 74.4383 87.5945 74.4206C87.4925 74.4029 87.3881 74.4055 87.2871 74.4282C87.1862 74.4509 87.0907 74.4933 87.0062 74.553L85.5377 75.5854L85.3172 75.4051C84.7037 74.9001 84.0304 74.4726 83.3125 74.1321L83.0369 74.0018L83.4253 72.3304C83.4491 72.2297 83.4525 72.1253 83.4353 72.0232C83.4181 71.9212 83.3805 71.8237 83.325 71.7364C83.2706 71.6487 83.1996 71.5725 83.1157 71.5123C83.0319 71.4521 82.9368 71.4091 82.8363 71.3856L80.4407 70.8293C80.2368 70.7827 80.0226 70.8188 79.8451 70.9296C79.6676 71.0404 79.5412 71.2169 79.4935 71.4206L79.085 73.1924H78.797C77.8213 73.2276 76.8563 73.41 75.9351 73.7336L75.6671 73.8289L74.6271 72.3503C74.5061 72.1804 74.3231 72.0651 74.1176 72.0295C73.9121 71.9938 73.7007 72.0407 73.5295 72.1599L71.5248 73.5757C71.3559 73.6943 71.2399 73.8741 71.2015 74.0769C71.1835 74.1785 71.1858 74.2828 71.2086 74.3835C71.2314 74.4842 71.2743 74.5793 71.3344 74.6632L72.2842 76.0139L72.0737 76.237C71.4013 76.9492 70.8412 77.7595 70.4123 78.6401L70.2795 78.9107L68.5454 78.5073C68.3414 78.4608 68.1273 78.4969 67.9498 78.6077C67.7723 78.7185 67.6458 78.895 67.5981 79.0987L67.0443 81.4917C66.997 81.6954 67.0323 81.9097 67.1427 82.0873C67.2531 82.2649 67.4295 82.3914 67.6331 82.439L69.4225 82.8525V83.1457C69.4474 84.1802 69.6386 85.204 69.9887 86.1778L70.0864 86.4484L68.623 87.4783C68.5383 87.5378 68.4662 87.6135 68.4108 87.7009C68.3554 87.7883 68.3179 87.8856 68.3002 87.9876C68.2825 88.0895 68.2851 88.194 68.3078 88.2949C68.3305 88.3959 68.3729 88.4913 68.4326 88.5759L69.8485 90.5806C69.9695 90.7506 70.1528 90.8659 70.3585 90.9012C70.5642 90.9364 70.7754 90.8886 70.9461 90.7685L72.2991 89.8388ZM79.1729 90.5004C78.595 90.5009 78.0188 90.4344 77.4562 90.3025C75.5699 89.8629 73.9233 88.7184 72.8539 87.1035C71.7844 85.4887 71.3731 83.526 71.7044 81.6177C72.0357 79.7094 73.0844 78.0001 74.6356 76.8402C76.1868 75.6804 78.1229 75.1579 80.047 75.3798C81.9711 75.6017 83.7374 76.5512 84.9839 78.0337C86.2303 79.5162 86.8623 81.4193 86.7505 83.3529C86.6387 85.2865 85.7916 87.1041 84.3826 88.4331C82.9736 89.7621 81.1097 90.5017 79.1729 90.5004ZM77.6265 89.5708C78.9451 89.8768 80.3248 89.785 81.5911 89.3068C82.8575 88.8287 83.9536 87.9858 84.7409 86.8847C85.5281 85.7835 85.9713 84.4736 86.0141 83.1207C86.0569 81.7678 85.6975 80.4325 84.9814 79.2838C84.2653 78.1351 83.2246 77.2247 81.991 76.6676C80.7574 76.1104 79.3861 75.9315 78.0509 76.1537C76.7156 76.3758 75.4763 76.9888 74.4895 77.9154C73.5027 78.8419 72.8128 80.0403 72.5071 81.359C72.2976 82.2346 72.2643 83.1431 72.409 84.0318C72.5536 84.9204 72.8733 85.7715 73.3496 86.5356C73.826 87.2996 74.4493 87.9613 75.1835 88.4824C75.9178 89.0035 76.7481 89.3734 77.6265 89.5708Z" fill="#1D1D1B"/>
</g>
</g>
<g id="Group_14">
<g id="Group_15">
<path id="Vector_53" d="M46.1479 111.106C46.1479 111.106 40.5245 106.669 44.0353 99.9479C47.546 93.2271 52.8936 88.095 58.7573 88.115C64.6211 88.1351 67.8186 91.4178 68.7082 94.6028C69.5977 97.7878 67.4553 100.336 63.263 100.649C63.263 100.649 63.7165 106.413 56.2916 106.533C56.2916 106.533 53.6328 115.354 48.2953 109.059L46.1479 111.106Z" fill="#FFCDB2"/>
<path id="Vector_54" d="M58.7223 88.1148H58.7573C64.6236 88.1373 67.8186 91.4176 68.7082 94.6025C69.5978 97.7875 67.4554 100.336 63.263 100.649C63.263 100.649 63.7165 106.413 56.2916 106.533C56.2916 106.533 54.8456 111.324 51.9513 111.324C50.9164 111.324 49.6961 110.715 48.2953 109.069L46.1479 111.116C46.1479 111.116 40.5246 106.678 44.0353 99.9576C47.546 93.2369 52.8711 88.1248 58.7223 88.1248V88.1148ZM58.7223 87.373C55.7479 87.373 52.816 88.5784 50.0144 90.954C47.5236 93.0614 45.2282 96.0559 43.3714 99.6093C41.4093 103.368 42.1434 106.455 43.1032 108.38C43.7299 109.648 44.6071 110.776 45.6817 111.695L46.1829 112.099L46.654 111.65L48.2427 110.146C49.4956 111.434 50.7285 112.086 51.9388 112.086C54.7504 112.086 56.3192 108.62 56.8204 107.275C59.2887 107.144 61.1731 106.38 62.4285 105.002C63.3317 103.982 63.878 102.696 63.9847 101.338C66.1347 101.045 67.8238 100.15 68.7835 98.7823C69.6531 97.5444 69.8709 96.0258 69.4198 94.412C68.855 92.4716 67.6649 90.7722 66.0344 89.5782C64.1074 88.1473 61.5892 87.3831 58.75 87.373H58.7223Z" fill="#1D1E1B"/>
</g>
<path id="Vector_55" d="M63.6012 101.647C63.5236 101.646 63.4481 101.622 63.3849 101.577C63.3216 101.533 63.2737 101.469 63.2478 101.396C60.8622 94.7555 54.8456 94.327 54.5925 94.3119C54.4928 94.3063 54.3996 94.2613 54.3331 94.1868C54.2666 94.1123 54.2323 94.0145 54.2379 93.9148C54.2436 93.8151 54.2887 93.7217 54.3632 93.6552C54.4377 93.5887 54.5354 93.5545 54.6351 93.5602C54.7002 93.5602 61.4011 94.0188 63.9545 101.138C63.9884 101.232 63.9836 101.335 63.9413 101.425C63.899 101.515 63.8226 101.585 63.7289 101.619C63.6882 101.636 63.6451 101.645 63.6012 101.647Z" fill="#1D1D1B"/>
<path id="Vector_56" d="M56.7522 107.207C56.6715 107.207 56.5931 107.181 56.5285 107.133C56.4639 107.084 56.4167 107.017 56.3939 106.939C55.2537 103.21 50.1818 100 50.1292 99.9678C50.0849 99.9429 50.0461 99.9092 50.0152 99.8688C49.9842 99.8285 49.9617 99.7823 49.9491 99.733C49.9365 99.6837 49.9342 99.6324 49.942 99.5821C49.9499 99.5319 49.9676 99.4837 49.9946 99.4406C50.0216 99.3974 50.0571 99.3603 50.0989 99.3313C50.1407 99.3023 50.1881 99.282 50.2379 99.2718C50.2877 99.2616 50.339 99.2616 50.3889 99.2718C50.4387 99.282 50.4858 99.3023 50.5276 99.3313C50.7456 99.4666 55.8876 102.722 57.108 106.721C57.1226 106.768 57.1279 106.818 57.1232 106.867C57.1185 106.916 57.1041 106.964 57.0808 107.008C57.0575 107.051 57.0257 107.09 56.9874 107.121C56.949 107.152 56.9048 107.176 56.8574 107.19C56.8234 107.201 56.788 107.207 56.7522 107.207Z" fill="#1D1D1B"/>
<path id="Vector_57" d="M48.5531 110.087C48.4819 110.086 48.4124 110.065 48.3527 110.026C48.2199 109.944 45.1276 107.939 44.7116 105.331C44.7039 105.281 44.706 105.231 44.7177 105.182C44.7295 105.134 44.7507 105.088 44.7801 105.048C44.8096 105.007 44.8466 104.973 44.8893 104.947C44.9319 104.921 44.9791 104.903 45.0285 104.896C45.0779 104.888 45.1285 104.89 45.177 104.902C45.2256 104.914 45.2713 104.935 45.3116 104.964C45.352 104.994 45.3862 105.031 45.4122 105.073C45.4383 105.116 45.4556 105.163 45.4634 105.213C45.8267 107.486 48.7385 109.375 48.766 109.393C48.8353 109.436 48.8885 109.501 48.9175 109.577C48.9465 109.654 48.9498 109.738 48.9268 109.816C48.9039 109.895 48.8559 109.964 48.7903 110.012C48.7246 110.061 48.645 110.087 48.5632 110.087H48.5531Z" fill="#1D1D1B"/>
<path id="Vector_58" d="M67.6306 96.65C67.4759 96.649 67.3254 96.6004 67.1994 96.5107C67.0734 96.421 66.9781 96.2946 66.9266 96.1488C65.9743 93.5853 64.4982 91.8286 62.5361 90.934C59.3687 89.4881 55.9281 90.7486 55.8955 90.7611C55.8032 90.7962 55.705 90.8127 55.6063 90.8097C55.5076 90.8068 55.4105 90.7845 55.3205 90.744C55.2304 90.7035 55.1491 90.6457 55.0814 90.5738C55.0137 90.5019 54.9608 90.4174 54.9257 90.3251C54.8907 90.2328 54.8743 90.1345 54.8773 90.0358C54.8802 89.9371 54.9024 89.84 54.9429 89.75C54.9834 89.6599 55.0413 89.5787 55.1132 89.511C55.1851 89.4433 55.2695 89.3904 55.3618 89.3554C55.5247 89.2927 59.4014 87.8519 63.1452 89.5584C65.4932 90.6259 67.2373 92.6656 68.3373 95.6275C68.3774 95.7408 68.3897 95.8619 68.3733 95.9809C68.3569 96.0999 68.3121 96.2131 68.2429 96.3113C68.1737 96.4094 68.0819 96.4897 67.9754 96.5451C67.8689 96.6005 67.7507 96.6296 67.6306 96.6299V96.65Z" fill="white"/>
</g>
<path id="Vector_59" d="M125.459 141.55C126.585 141.55 127.499 140.637 127.499 139.511C127.499 138.384 126.585 137.471 125.459 137.471C124.332 137.471 123.419 138.384 123.419 139.511C123.419 140.637 124.332 141.55 125.459 141.55Z" fill="#51CEF4"/>
<path id="Vector_60" d="M82.8593 120.752C83.9858 120.752 84.899 119.838 84.899 118.712C84.899 117.585 83.9858 116.672 82.8593 116.672C81.7327 116.672 80.8193 117.585 80.8193 118.712C80.8193 119.838 81.7327 120.752 82.8593 120.752Z" fill="#51CEF4"/>
<path id="Vector_61" d="M100.149 132.028C101.276 132.028 102.189 131.115 102.189 129.988C102.189 128.862 101.276 127.948 100.149 127.948C99.0228 127.948 98.1094 128.862 98.1094 129.988C98.1094 131.115 99.0228 132.028 100.149 132.028Z" fill="#51CEF4"/>
<path id="Vector_62" d="M78.8495 175.38C79.9761 175.38 80.8892 174.466 80.8892 173.34C80.8892 172.213 79.9761 171.3 78.8495 171.3C77.723 171.3 76.8096 172.213 76.8096 173.34C76.8096 174.466 77.723 175.38 78.8495 175.38Z" fill="#51CEF4"/>
<path id="Vector_63" d="M125.459 171.872C126.585 171.872 127.499 170.958 127.499 169.832C127.499 168.705 126.585 167.792 125.459 167.792C124.332 167.792 123.419 168.705 123.419 169.832C123.419 170.958 124.332 171.872 125.459 171.872Z" fill="#51CEF4"/>
<path id="Vector_64" d="M82.8593 148.316C83.9858 148.316 84.899 147.403 84.899 146.276C84.899 145.15 83.9858 144.237 82.8593 144.237C81.7327 144.237 80.8193 145.15 80.8193 146.276C80.8193 147.403 81.7327 148.316 82.8593 148.316Z" fill="#51CEF4"/>
<path id="Vector_65" d="M88.121 194.174C89.2475 194.174 90.1607 193.261 90.1607 192.134C90.1607 191.008 89.2475 190.094 88.121 190.094C86.9945 190.094 86.0811 191.008 86.0811 192.134C86.0811 193.261 86.9945 194.174 88.121 194.174Z" fill="#51CEF4"/>
<path id="Vector_66" d="M145.256 168.363C146.382 168.363 147.295 167.45 147.295 166.324C147.295 165.197 146.382 164.284 145.256 164.284C144.129 164.284 143.216 165.197 143.216 166.324C143.216 167.45 144.129 168.363 145.256 168.363Z" fill="#51CEF4"/>
<path id="Vector_67" d="M65.8085 140.836C66.935 140.836 67.8482 139.923 67.8482 138.796C67.8482 137.67 66.935 136.757 65.8085 136.757C64.682 136.757 63.7686 137.67 63.7686 138.796C63.7686 139.923 64.682 140.836 65.8085 140.836Z" fill="#51CEF4"/>
<path id="Vector_68" d="M46.8415 131.865C47.968 131.865 48.8812 130.952 48.8812 129.825C48.8812 128.699 47.968 127.785 46.8415 127.785C45.7149 127.785 44.8018 128.699 44.8018 129.825C44.8018 130.952 45.7149 131.865 46.8415 131.865Z" fill="#51CEF4"/>
<path id="Vector_69" d="M34.1969 148.577C35.3235 148.577 36.2366 147.663 36.2366 146.537C36.2366 145.41 35.3235 144.497 34.1969 144.497C33.0704 144.497 32.1572 145.41 32.1572 146.537C32.1572 147.663 33.0704 148.577 34.1969 148.577Z" fill="#51CEF4"/>
<path id="Vector_70" d="M47.2428 166.251C48.3694 166.251 49.2828 165.337 49.2828 164.211C49.2828 163.084 48.3694 162.171 47.2428 162.171C46.1163 162.171 45.2031 163.084 45.2031 164.211C45.2031 165.337 46.1163 166.251 47.2428 166.251Z" fill="#51CEF4"/>
<path id="Vector_71" d="M111.927 192.42C113.053 192.42 113.966 191.506 113.966 190.38C113.966 189.253 113.053 188.34 111.927 188.34C110.8 188.34 109.887 189.253 109.887 190.38C109.887 191.506 110.8 192.42 111.927 192.42Z" fill="#51CEF4"/>
<path id="Vector_72" d="M32.8089 92.4527C32.7645 92.4525 32.7206 92.4449 32.6787 92.4302C26.0774 90.0741 20.2668 85.918 15.9043 80.4319C12.3634 76.0115 9.58192 70.629 7.63485 64.437C4.33461 53.9123 4.60785 44.5453 4.61287 44.4526C4.61742 44.3533 4.66046 44.2597 4.73302 44.1919C4.80559 44.124 4.90188 44.0871 5.00123 44.0892C5.1005 44.0931 5.19423 44.1362 5.26185 44.209C5.32947 44.2818 5.36533 44.3783 5.36194 44.4776C5.36194 44.5703 5.0913 53.8271 8.36899 64.234C11.376 73.8039 18.0769 86.3433 32.9418 91.7234C33.0248 91.7536 33.0945 91.812 33.1388 91.8885C33.183 91.965 33.1991 92.0546 33.1838 92.1416C33.1685 92.2287 33.123 92.3076 33.0553 92.3644C32.9877 92.4213 32.9024 92.4526 32.814 92.4527H32.8089Z" fill="black"/>
<path id="Vector_73" d="M21.7406 94.6905H21.7056C14.1879 94.0214 8.7125 89.3629 5.45235 85.574C3.33063 83.111 1.54353 80.3786 0.137391 77.4475C0.0971824 77.3561 0.0948425 77.2525 0.131028 77.1595C0.167214 77.0664 0.238843 76.9916 0.330226 76.9514C0.421609 76.9111 0.525206 76.9088 0.618255 76.945C0.711304 76.9812 0.786299 77.0529 0.826508 77.1443C0.894166 77.2997 7.84293 92.7058 21.7731 93.9337C21.8728 93.938 21.9668 93.9818 22.0342 94.0553C22.1017 94.1289 22.1372 94.2262 22.1328 94.3259C22.1285 94.4255 22.0848 94.5194 22.0112 94.5868C21.9377 94.6543 21.8403 94.6898 21.7406 94.6855V94.6905Z" fill="black"/>
<path id="Vector_74" d="M67.1441 166.812C67.1159 166.816 67.087 166.816 67.0587 166.812C66.9617 166.789 66.8779 166.729 66.8253 166.645C66.7727 166.56 66.7558 166.458 66.7783 166.361C66.8059 166.238 69.6775 154.12 74.4036 144.668C74.4241 144.621 74.4538 144.579 74.491 144.544C74.5282 144.509 74.572 144.483 74.6199 144.465C74.6678 144.448 74.7189 144.441 74.7697 144.444C74.8205 144.446 74.8703 144.46 74.9158 144.483C74.9614 144.505 75.0018 144.537 75.0347 144.576C75.0676 144.615 75.0923 144.66 75.1072 144.709C75.1221 144.757 75.1269 144.809 75.1214 144.859C75.1159 144.91 75.1001 144.959 75.0751 145.003C70.3891 154.375 67.5376 166.411 67.51 166.531C67.4888 166.612 67.4414 166.684 67.3752 166.734C67.3089 166.785 67.2276 166.813 67.1441 166.812Z" fill="black"/>
<g id="Group_16">
<path id="Vector_75" d="M148.538 131.168C148.538 131.168 155.555 139.688 157.058 148.208L148.538 131.168Z" fill="#07ACEE"/>
<path id="Vector_76" d="M156.682 148.274C155.213 139.947 148.312 131.484 148.242 131.407L148.823 130.93C148.894 131.016 155.92 139.623 157.424 148.143L156.682 148.274Z" fill="#1D1D1B"/>
</g>
<path id="Vector_77" d="M154.427 192.688C154.379 192.687 154.331 192.683 154.284 192.675C154.187 192.656 154.095 192.619 154.012 192.564C153.93 192.51 153.859 192.44 153.803 192.358C153.748 192.276 153.709 192.184 153.689 192.087C153.669 191.99 153.669 191.89 153.688 191.793C159.582 161.354 149.127 143.384 149.019 143.206C148.969 143.122 148.935 143.028 148.921 142.93C148.907 142.832 148.912 142.732 148.936 142.636C148.96 142.54 149.003 142.45 149.062 142.371C149.121 142.292 149.195 142.225 149.28 142.174C149.365 142.123 149.459 142.09 149.557 142.076C149.655 142.061 149.754 142.066 149.85 142.091C149.946 142.115 150.036 142.158 150.115 142.217C150.195 142.276 150.262 142.35 150.312 142.435C150.423 142.623 153.089 147.143 155.034 155.555C156.823 163.286 158.291 175.898 155.166 192.079C155.133 192.25 155.041 192.405 154.906 192.516C154.771 192.627 154.602 192.688 154.427 192.688Z" fill="white"/>
<path id="Vector_78" d="M29.1331 159.36C28.9823 159.36 28.8349 159.314 28.7102 159.229C28.5856 159.144 28.4893 159.024 28.434 158.884C24.5874 149.138 29.5216 140.312 29.7346 139.942C29.8343 139.768 29.9986 139.642 30.1915 139.59C30.3844 139.538 30.59 139.565 30.7631 139.665C30.9363 139.764 31.0626 139.929 31.1146 140.122C31.1665 140.315 31.1399 140.52 31.0402 140.693C30.9775 140.801 26.2614 149.291 29.8323 158.337C29.8772 158.451 29.8935 158.574 29.88 158.696C29.8664 158.818 29.8234 158.934 29.7544 159.036C29.6855 159.137 29.5928 159.22 29.4845 159.277C29.3762 159.335 29.2556 159.365 29.1331 159.365V159.36Z" fill="white"/>
<path id="Vector_79" d="M22.8682 167.378C22.8015 167.379 22.7355 167.365 22.6739 167.339C22.6124 167.314 22.5567 167.276 22.51 167.228C17.5809 162.164 17.1422 156.408 17.6409 152.468C17.9596 149.89 18.7334 147.389 19.9263 145.081C19.9592 145.024 20.0032 144.974 20.0555 144.933C20.1078 144.893 20.1674 144.863 20.2312 144.846C20.2949 144.829 20.3615 144.825 20.4269 144.833C20.4924 144.842 20.5557 144.863 20.6129 144.896C20.6702 144.929 20.7204 144.972 20.7607 145.025C20.801 145.077 20.8306 145.137 20.8479 145.201C20.8651 145.264 20.8696 145.331 20.8611 145.396C20.8526 145.462 20.8313 145.525 20.7984 145.582C19.6747 147.792 18.9413 150.179 18.6307 152.639C17.9567 158.037 19.5027 162.713 23.2265 166.537C23.2956 166.607 23.3423 166.696 23.3608 166.793C23.3793 166.89 23.369 166.991 23.3307 167.082C23.2925 167.173 23.228 167.25 23.1457 167.305C23.0635 167.36 22.967 167.389 22.8682 167.389V167.378Z" fill="#1D1D1B"/>
</g>
<g id="hand">
<g id="Group_17">
<path id="Vector_80" d="M167.457 74.0719C167.457 74.0719 166.424 67.2184 173.353 64.8002C180.282 62.382 187.451 62.2943 191.578 66.1935C195.705 70.0926 195.788 74.523 194.307 77.3597C192.826 80.1963 189.636 80.5847 186.459 78.0237C186.459 78.0237 182.966 82.3939 177.646 77.5601C177.646 77.5601 169.928 82.0281 170.326 74.0519L167.457 74.0719Z" fill="#FFCDB2"/>
<path id="Vector_81" d="M183.976 63.1539C186.965 63.3819 189.619 64.3367 191.584 66.191C195.711 70.0877 195.794 74.5205 194.313 77.3571C193.441 79.0286 191.975 79.8505 190.268 79.7202C189.078 79.6275 187.762 79.0738 186.464 78.0213C186.464 78.0213 184.863 80.026 182.179 79.818C180.896 79.7203 179.37 79.1189 177.651 77.5627C177.651 77.5627 175.245 78.9559 173.19 78.798C171.564 78.6727 170.156 77.5802 170.331 74.0545L167.462 74.077C167.462 74.077 166.43 67.2234 173.358 64.8052C176.987 63.5373 180.686 62.9108 183.976 63.1614V63.1539ZM184.018 62.5975C180.761 62.3469 177.002 62.9258 173.17 64.2689C169.366 65.5996 167.861 68.2207 167.269 70.1879C166.877 71.4746 166.752 72.8278 166.901 74.1647C166.92 74.2915 166.981 74.4081 167.075 74.4954C167.169 74.5828 167.289 74.6359 167.417 74.6458H167.467L169.75 74.6258C169.75 78.3094 171.572 79.2441 173.148 79.3644C174.882 79.4972 176.787 78.6477 177.571 78.2492C179.094 79.5548 180.628 80.274 182.134 80.3893C182.937 80.4434 183.743 80.3287 184.499 80.0524C185.255 79.7762 185.945 79.3447 186.524 78.7855C187.747 79.6801 189.03 80.1989 190.226 80.2891C192.18 80.4394 193.851 79.4672 194.814 77.6253C195.684 75.9145 195.963 73.9636 195.608 72.0773C195.202 69.822 193.944 67.6469 191.972 65.7825C190 63.9181 187.324 62.8457 184.018 62.5951V62.5975Z" fill="black"/>
</g>
<path id="Vector_82" d="M186.294 79.0612C186.243 79.0615 186.192 79.0504 186.146 79.0287C186.1 79.0093 186.058 78.9809 186.023 78.945C185.987 78.9091 185.96 78.8666 185.941 78.8198C185.923 78.7731 185.914 78.7232 185.915 78.673C185.916 78.6228 185.928 78.5733 185.948 78.5275C188.657 72.2628 184.695 67.9878 184.53 67.8099C184.494 67.7745 184.466 67.7322 184.447 67.6858C184.428 67.6394 184.418 67.5896 184.419 67.5395C184.419 67.4893 184.43 67.4396 184.45 67.3936C184.47 67.3476 184.499 67.306 184.535 67.2714C184.572 67.2367 184.615 67.2096 184.662 67.1918C184.709 67.174 184.759 67.1659 184.809 67.1677C184.859 67.1696 184.908 67.1814 184.954 67.2026C184.999 67.2238 185.04 67.2539 185.074 67.2911C185.119 67.3387 189.549 72.0973 186.64 78.8181C186.613 78.8884 186.566 78.9492 186.504 78.9925C186.442 79.0358 186.369 79.0597 186.294 79.0612Z" fill="#1D1D1B"/>
<path id="Vector_83" d="M177.779 78.4496C177.722 78.4509 177.665 78.438 177.614 78.4121C177.525 78.3683 177.456 78.291 177.424 78.1971C177.391 78.1032 177.398 78.0003 177.441 77.9109C179.105 74.5279 177.651 68.9097 177.636 68.852C177.611 68.7557 177.624 68.6532 177.674 68.5669C177.725 68.4807 177.807 68.4178 177.903 68.3922C177.999 68.3666 178.102 68.3805 178.188 68.4305C178.275 68.4806 178.337 68.5627 178.363 68.6591C178.426 68.9097 179.904 74.6055 178.112 78.2441C178.081 78.3058 178.034 78.3578 177.975 78.3941C177.916 78.4303 177.848 78.4496 177.779 78.4496Z" fill="#1D1D1B"/>
<path id="Vector_84" d="M170.085 75.0568C170.002 75.0567 169.92 75.0289 169.854 74.9776C169.788 74.9264 169.741 74.8547 169.719 74.7736C169.682 74.6283 168.825 71.1601 170.261 69.0401C170.287 68.9963 170.322 68.9584 170.363 68.9285C170.405 68.8987 170.452 68.8775 170.502 68.8665C170.552 68.8554 170.603 68.8548 170.654 68.8644C170.704 68.874 170.751 68.8936 170.794 68.9223C170.836 68.9509 170.872 68.988 170.9 69.031C170.927 69.0741 170.946 69.1223 170.954 69.1727C170.962 69.2232 170.96 69.2747 170.948 69.3243C170.935 69.3739 170.913 69.4205 170.882 69.4611C169.629 71.3004 170.441 74.5556 170.449 74.5882C170.461 74.636 170.464 74.6859 170.457 74.7349C170.449 74.7838 170.433 74.8309 170.407 74.8734C170.382 74.9158 170.348 74.9527 170.308 74.982C170.269 75.0114 170.223 75.0325 170.175 75.0442C170.146 75.0532 170.116 75.0575 170.085 75.0568Z" fill="#1D1D1B"/>
<path id="Vector_85" d="M192.696 78.312C192.572 78.3123 192.449 78.2819 192.34 78.2233C192.23 78.1647 192.137 78.0798 192.068 77.9762C191.999 77.8727 191.957 77.7537 191.946 77.63C191.934 77.5062 191.953 77.3815 192.002 77.2671C193.027 74.8338 193.145 72.6237 192.355 70.6992C191.082 67.5919 187.827 66.2061 187.794 66.1886C187.61 66.1125 187.463 65.9662 187.387 65.782C187.31 65.5978 187.31 65.3907 187.386 65.2063C187.462 65.0219 187.608 64.8752 187.792 64.7986C187.977 64.722 188.184 64.7218 188.368 64.7979C188.524 64.863 192.22 66.4192 193.741 70.1078C194.693 72.4182 194.575 75.0218 193.388 77.8459C193.331 77.9832 193.235 78.1007 193.112 78.1836C192.989 78.2666 192.844 78.3113 192.696 78.312Z" fill="white"/>
</g>
</g>
</svg>
