<svg width="217" height="161" viewBox="0 0 217 161" fill="none" xmlns="http://www.w3.org/2000/svg">
<mask id="mask0_1240_19424" style="mask-type:alpha" maskUnits="userSpaceOnUse" x="0" y="0" width="217" height="161">
<rect width="216.439" height="161" fill="#D9D9D9"/>
</mask>
<g mask="url(#mask0_1240_19424)">
<g opacity="0.5">
<mask id="path-2-inside-1_1240_19424" fill="white">
<path d="M207.988 108.035C209.063 83.3647 201.264 59.1257 186.004 39.7116C170.744 20.2975 149.033 6.99329 124.807 2.21047C100.581 -2.57234 75.4433 1.48283 53.9502 13.6409C32.4572 25.799 16.0314 45.2554 7.6503 68.4831L8.09812 68.6447C16.4405 45.524 32.7906 26.1574 54.1846 14.0553C75.5787 1.95325 100.601 -2.08323 124.715 2.67754C148.829 7.43831 170.44 20.6812 185.629 40.0058C200.819 59.3304 208.582 83.4576 207.512 108.014L207.988 108.035Z"/>
</mask>
<path d="M207.988 108.035C209.063 83.3647 201.264 59.1257 186.004 39.7116C170.744 20.2975 149.033 6.99329 124.807 2.21047C100.581 -2.57234 75.4433 1.48283 53.9502 13.6409C32.4572 25.799 16.0314 45.2554 7.6503 68.4831L8.09812 68.6447C16.4405 45.524 32.7906 26.1574 54.1846 14.0553C75.5787 1.95325 100.601 -2.08323 124.715 2.67754C148.829 7.43831 170.44 20.6812 185.629 40.0058C200.819 59.3304 208.582 83.4576 207.512 108.014L207.988 108.035Z" stroke="url(#paint0_linear_1240_19424)" stroke-width="1.51887" stroke-dasharray="2.28 2.28" mask="url(#path-2-inside-1_1240_19424)"/>
</g>
<g opacity="0.5">
<mask id="path-3-inside-2_1240_19424" fill="white">
<path d="M7.78827 138.972C16.2602 162.167 32.762 181.559 54.3025 193.632C75.843 205.706 100.997 209.663 125.204 204.785C149.411 199.908 171.069 186.519 186.253 167.045C201.437 147.571 209.141 123.302 207.969 98.6364L207.494 98.659C208.66 123.211 200.991 147.368 185.877 166.752C170.764 186.136 149.205 199.464 125.11 204.319C101.014 209.174 75.9765 205.235 54.5353 193.217C33.0941 181.199 16.6683 161.896 8.23545 138.809L7.78827 138.972Z"/>
</mask>
<path d="M7.78827 138.972C16.2602 162.167 32.762 181.559 54.3025 193.632C75.843 205.706 100.997 209.663 125.204 204.785C149.411 199.908 171.069 186.519 186.253 167.045C201.437 147.571 209.141 123.302 207.969 98.6364L207.494 98.659C208.66 123.211 200.991 147.368 185.877 166.752C170.764 186.136 149.205 199.464 125.11 204.319C101.014 209.174 75.9765 205.235 54.5353 193.217C33.0941 181.199 16.6683 161.896 8.23545 138.809L7.78827 138.972Z" stroke="url(#paint1_linear_1240_19424)" stroke-width="1.51887" stroke-dasharray="2.28 2.28" mask="url(#path-3-inside-2_1240_19424)"/>
</g>
<circle opacity="0.08" cx="104.802" cy="103.538" r="91.1321" fill="url(#paint2_linear_1240_19424)"/>
<circle opacity="0.1" cx="104.802" cy="103.537" r="72.9057" fill="url(#paint3_linear_1240_19424)"/>
<circle cx="104.802" cy="103.537" r="48.6038" fill="white"/>
<g filter="url(#filter0_d_1240_19424)">
<circle cx="8.17185" cy="66.7155" r="3.79717" transform="rotate(-2.50406 8.17185 66.7155)" fill="#0170FF"/>
<circle cx="8.17185" cy="66.7155" r="4.34038" transform="rotate(-2.50406 8.17185 66.7155)" stroke="white" stroke-width="1.08642"/>
</g>
<g filter="url(#filter1_d_1240_19424)">
<circle cx="207.994" cy="97.3439" r="3.79717" transform="rotate(-15.7345 207.994 97.3439)" fill="#0170FF"/>
<circle cx="207.994" cy="97.3439" r="4.34038" transform="rotate(-15.7345 207.994 97.3439)" stroke="white" stroke-width="1.08642"/>
</g>
</g>
<path d="M102.676 62.482C102.676 62.482 95.384 65.8957 94.0686 60.1262C92.7532 54.3566 90.1312 45.4588 81.1564 46.7129C72.1815 47.967 66.2911 49.5995 63.3065 43.9683C60.3219 38.3371 39.6608 40.9171 43.3951 58.3904C49.5097 87.0262 103.436 79.5839 103.436 79.5839L106.764 73.5849L102.676 62.482Z" fill="#382256"/>
<path d="M56.8379 41.2976C59.8435 41.2976 62.399 42.2522 63.3186 43.9687C64.937 47.0233 67.4101 47.9394 70.766 47.9394C73.5982 47.9394 77.0594 47.286 81.1685 46.7133C81.7174 46.6353 82.271 46.5956 82.8254 46.5942C90.4761 46.5942 92.8511 54.7283 94.0807 60.1265C94.6832 62.7696 96.5329 63.4842 98.3755 63.4842C100.546 63.4842 102.688 62.4823 102.688 62.4823L106.769 73.5923L103.441 79.5913C103.441 79.5913 97.1353 80.4671 88.6019 80.4671C72.162 80.4671 47.4252 77.2443 43.4002 58.3978C40.8062 46.2544 49.9929 41.3046 56.8396 41.3046L56.8379 41.2976ZM56.8396 40.7791C53.2682 40.7791 48.3395 42.1541 45.2183 46.0127C42.6295 49.211 41.8237 53.532 42.8869 58.5064C44.7102 67.0468 50.8599 73.2665 61.1659 76.9938C68.5031 79.6474 77.7336 80.9925 88.6019 80.9925C93.5853 81.0052 98.5651 80.7127 103.513 80.1168L103.774 80.08L103.9 79.8505L107.228 73.8515L107.345 73.6413L107.263 73.4154L103.18 62.3072L102.984 61.7695L102.458 62.0129C102.439 62.0129 100.393 62.964 98.3702 62.964C96.2789 62.964 95.0424 61.9989 94.5887 60.0144C93.9301 57.1244 93.0228 53.8 91.301 51.0606C89.2184 47.752 86.3652 46.074 82.8201 46.074C82.2411 46.0748 81.6628 46.1164 81.0896 46.1983C80.1 46.335 79.1524 46.4786 78.2363 46.6152C75.3586 47.0461 72.8732 47.4192 70.7609 47.4192C67.1912 47.4192 65.1682 46.3507 63.7775 43.7287C62.7984 41.8808 60.206 40.7773 56.8413 40.7773L56.8396 40.7791Z" fill="#1D1E1B"/>
<path d="M69.4618 119.405C68.304 140.084 71.8368 151.518 71.8368 151.518L137.694 152.325C140.132 139.656 137.148 124.357 137.148 124.357C137.148 124.357 143.082 116.592 147.718 116.594C154.91 116.594 161.105 118.125 166.08 107.33C171.054 96.5355 156.201 94.5843 142.935 87.1105C129.669 79.6367 111.583 80.4547 111.583 80.4547C111.583 80.4547 93.5418 75.3752 75.4257 88.9671" fill="#07ACEE"/>
<path d="M137.902 152.592L71.6415 151.779L71.5838 151.595C71.5488 151.481 68.0527 139.879 69.1999 119.391L69.7254 119.421C68.6622 138.42 71.5994 149.71 72.0356 151.259L137.469 152.061C139.795 139.625 136.912 124.562 136.883 124.408L136.86 124.29L136.932 124.197C137.177 123.875 142.999 116.331 147.709 116.331C148.518 116.331 149.318 116.351 150.094 116.37C156.205 116.519 161.479 116.648 165.832 107.22C166.872 104.96 167.058 103.03 166.417 101.321C164.988 97.5479 159.509 95.1325 153.167 92.3371C149.937 90.9131 146.276 89.2999 142.796 87.34C129.75 79.9835 111.766 80.7086 111.585 80.7174H111.543L111.501 80.7051C111.457 80.6929 106.947 79.451 100.291 79.8767C94.1505 80.2672 84.8778 82.1992 75.5824 89.1756L75.2672 88.7552C84.6782 81.6948 94.063 79.7435 100.281 79.3494C106.679 78.9448 111.14 80.0641 111.611 80.1884C112.592 80.1534 130.19 79.628 143.064 86.8793C146.52 88.827 150.01 90.3666 153.387 91.8536C159.838 94.6981 165.41 97.1538 166.918 101.137C167.619 102.985 167.421 105.048 166.317 107.442C161.828 117.184 156.389 117.051 150.091 116.901C149.319 116.881 148.514 116.862 147.716 116.862C143.53 116.862 138.111 123.563 137.427 124.43C137.697 125.888 140.258 140.392 137.953 152.381L137.902 152.592Z" fill="#1D1D1B"/>
<path d="M113.148 102.334C114.018 102.334 114.723 101.627 114.723 100.756C114.723 99.8843 114.018 99.1777 113.148 99.1777C112.279 99.1777 111.574 99.8843 111.574 100.756C111.574 101.627 112.279 102.334 113.148 102.334Z" fill="#51CEF4"/>
<path d="M111.671 44.9258C111.779 40.9301 108.633 37.6035 104.643 37.4955C100.653 37.3876 97.331 40.5392 97.2229 44.5348C97.1147 48.5304 100.261 51.8571 104.251 51.965C108.241 52.073 111.563 48.9214 111.671 44.9258Z" fill="#382256"/>
<path d="M104.456 52.2377C103.217 52.2352 101.998 51.9262 100.908 51.3382C99.8182 50.7502 98.8905 49.9014 98.2082 48.8677C97.5258 47.834 97.11 46.6475 96.9978 45.414C96.8856 44.1805 97.0804 42.9384 97.565 41.7986L97.8069 41.9019L97.565 41.7986C98.098 40.5571 98.957 39.4829 100.051 38.6901C101.145 37.8972 102.433 37.4153 103.779 37.2952C105.125 37.1752 106.478 37.4216 107.695 38.0083C108.912 38.595 109.947 39.5001 110.692 40.6277C111.436 41.7553 111.861 43.0633 111.922 44.413C111.984 45.7627 111.678 47.1038 111.039 48.294C110.4 49.4843 109.45 50.4793 108.291 51.1736C107.132 51.8679 105.807 52.2356 104.456 52.2377ZM104.456 37.7543C102.726 37.7506 101.057 38.3895 99.7712 39.5469C98.4859 40.7044 97.6763 42.298 97.4993 44.0186C97.3224 45.7392 97.7908 47.4642 98.8137 48.859C99.8365 50.2538 101.341 51.219 103.035 51.5674C104.729 51.9159 106.493 51.6226 107.983 50.7447C109.473 49.8667 110.584 48.4665 111.101 46.8158C111.617 45.165 111.502 43.3812 110.778 41.8105C110.054 40.2398 108.772 38.994 107.181 38.3148C106.32 37.9459 105.394 37.7552 104.457 37.7543H104.456Z" fill="#1D1E1B"/>
<path d="M126.423 66.0218C126.423 66.0218 131.152 61.3382 128.73 56.9682C126.308 52.5981 125.153 53.0605 124.025 50.6731C122.897 48.2858 118.349 46.1192 114.415 47.5327C114.415 47.5327 109.2 44.1207 104.781 45.5727C100.362 47.0247 98.924 49.2754 97.8714 52.8783C96.8187 56.4812 95.6418 58.1329 94.8151 60.6323C93.9884 63.1318 92.9584 70.1011 102.839 74.543C112.719 78.9849 126.423 66.0218 126.423 66.0218Z" fill="#382256"/>
<path d="M107.342 75.722C105.755 75.7409 104.183 75.4215 102.729 74.7849C92.337 70.1136 93.8503 62.7099 94.5631 60.552C94.9108 59.5448 95.3143 58.5577 95.7718 57.5954C96.5101 56.0495 97.1267 54.4485 97.616 52.8067C98.6669 49.1933 100.17 46.8112 104.696 45.3259C108.884 43.9509 113.644 46.7446 114.448 47.2526C116.279 46.6255 118.375 46.6903 120.365 47.4383C122.206 48.1284 123.663 49.3001 124.264 50.57C124.746 51.5911 125.229 52.0658 125.84 52.6718C126.621 53.4408 127.592 54.3971 128.96 56.8545C131.454 61.3472 126.658 66.1761 126.609 66.2234C124.11 68.4851 121.383 70.4809 118.472 72.1786C114.38 74.531 110.611 75.722 107.342 75.722ZM107.134 45.48C106.361 45.4744 105.592 45.5927 104.857 45.8303C100.531 47.2508 99.1504 49.4315 98.1187 52.9591C97.6206 54.6248 96.9953 56.2497 96.2481 57.8196C95.7991 58.7644 95.4026 59.7333 95.0605 60.7219C94.3827 62.7747 92.9587 69.8193 102.942 74.3103C112.506 78.6103 125.989 66.078 126.238 65.8416C126.352 65.726 130.78 61.2141 128.496 57.1015C127.168 54.7106 126.219 53.784 125.469 53.0396C124.845 52.4266 124.308 51.8977 123.786 50.7942C122.752 48.6048 118.398 46.3786 114.503 47.7868L114.378 47.8323L114.27 47.7605C114.229 47.7272 110.74 45.48 107.134 45.48Z" fill="#1D1E1B"/>
<path d="M113.937 80.4566C113.937 80.4566 116.675 80.9068 117.09 83.4815C117.57 86.4434 114.619 90.1794 108.945 86.3172C108.945 86.3172 106.409 90.4001 101.028 86.4451C96.4745 83.0979 97.2329 80.1396 101.591 79.4075C105.369 78.7646 113.937 80.4566 113.937 80.4566Z" fill="white"/>
<path d="M105.39 88.4256C103.989 88.4256 102.479 87.8318 100.871 86.6495C98.5103 84.9138 97.3998 83.1465 97.7484 81.6787C98.0497 80.4071 99.3983 79.5068 101.546 79.1407C105.324 78.4979 113.61 80.1181 113.982 80.1916C114.139 80.2197 116.914 80.7661 117.345 83.432C117.612 85.0819 116.893 86.7599 115.556 87.6146C114.579 88.2364 112.442 88.923 109.005 86.6688C108.325 87.5337 107.358 88.1269 106.278 88.3415C105.986 88.3976 105.688 88.4257 105.39 88.4256ZM103.702 79.5173C103.009 79.5081 102.318 79.5556 101.633 79.6592C99.7065 79.9867 98.5085 80.7469 98.2598 81.7995C97.9638 83.0501 99.0006 84.623 101.183 86.2256C103.017 87.5743 104.698 88.1121 106.182 87.8266C107.209 87.6199 108.117 87.0276 108.72 86.1714L108.865 85.9384L109.091 86.0926C111.543 87.7635 113.743 88.1471 115.278 87.1715C116.441 86.4323 117.064 84.9628 116.829 83.5143C116.449 81.1637 113.996 80.7258 113.892 80.7118C113.812 80.6978 107.807 79.5226 103.702 79.5226V79.5173Z" fill="#1D1E1B"/>
<path d="M113.571 78.5871L113.41 80.6767C113.41 80.6767 111.613 88.9211 102.743 83.2514C102.119 82.8505 101.658 82.239 101.446 81.5279C101.233 80.8168 101.283 80.0531 101.585 79.3753C102.503 77.319 103.776 73.7704 104.467 68.8083C104.467 68.8083 100.813 68.444 101.006 65.1879C101.198 61.9318 103.698 61.0928 105.309 61.7794C105.309 61.7794 111.702 65.2159 116.296 52.1582C116.296 52.1582 122.886 54.0113 124.944 60.3711C127.002 66.731 126.592 74.4184 121.854 77.1683C117.116 79.9182 113.571 78.5871 113.571 78.5871Z" fill="#FFCDB2"/>
<path d="M108.249 85.5048C106.61 85.5048 104.718 84.8252 102.601 83.4713C101.926 83.0342 101.429 82.3711 101.199 81.6007C100.969 80.8304 101.02 80.0032 101.345 79.2676C102.257 77.2201 103.482 73.7923 104.168 69.0247C103.293 68.8495 100.571 68.0946 100.744 65.1713C100.835 63.623 101.457 62.4179 102.496 61.7733C102.928 61.5064 103.418 61.3456 103.924 61.3042C104.431 61.2628 104.94 61.3419 105.41 61.5351H105.431C105.447 61.5351 107.044 62.3689 109.153 61.5456C111.851 60.4947 114.233 57.2123 116.045 52.0593L116.128 51.8281L116.364 51.8947C116.433 51.914 123.113 53.8599 125.192 60.2775C126.276 63.6282 126.635 67.1348 126.206 70.1492C125.717 73.5629 124.258 76.0641 121.985 77.3847C117.967 79.716 114.804 79.1871 113.805 78.9226L113.663 80.7214C113.635 80.8545 112.923 83.995 110.23 85.1125C109.603 85.3733 108.929 85.5067 108.249 85.5048ZM104.202 61.8189C103.698 61.8186 103.204 61.9581 102.774 62.2217C102.144 62.6123 101.373 63.4478 101.268 65.1993C101.093 68.1769 104.352 68.5272 104.491 68.5413L104.764 68.5693L104.725 68.839C104.037 73.7993 102.767 77.362 101.825 79.4778C101.55 80.0976 101.505 80.7947 101.698 81.4445C101.891 82.0943 102.308 82.6544 102.876 83.0247C105.753 84.8655 108.158 85.4068 110.018 84.6361C112.364 83.664 113.082 80.8703 113.14 80.6321L113.327 78.215L113.655 78.3376C113.709 78.3568 117.158 79.5759 121.712 76.9364C126.304 74.2723 126.683 66.6233 124.689 60.4474C122.917 54.9721 117.631 52.8843 116.457 52.4815C114.574 57.7361 112.178 60.9449 109.33 62.0483C107.067 62.9241 105.368 62.1009 105.196 62.0115C104.881 61.8821 104.543 61.8166 104.202 61.8189Z" fill="#1D1E1B"/>
<path d="M104.305 67.3061C104.259 67.3134 104.212 67.3083 104.169 67.2914C104.126 67.2744 104.088 67.2462 104.06 67.2097C103.216 66.1115 102.935 65.1552 103.228 64.367C103.648 63.232 105.088 62.922 105.154 62.9097C105.221 62.8958 105.291 62.909 105.348 62.9464C105.405 62.9839 105.445 63.0425 105.459 63.1094C105.473 63.1763 105.46 63.246 105.423 63.3031C105.385 63.3603 105.327 63.4002 105.26 63.4142C105.242 63.4142 104.034 63.6822 103.713 64.5474C103.489 65.1587 103.743 65.9486 104.471 66.8944C104.492 66.9212 104.508 66.9518 104.516 66.9844C104.525 67.0171 104.528 67.0512 104.523 67.0847C104.519 67.1183 104.508 67.1507 104.491 67.1799C104.474 67.2092 104.451 67.2348 104.424 67.2553C104.39 67.2829 104.349 67.3005 104.305 67.3061Z" fill="black"/>
<path d="M117.415 62.438C113.8 63.3296 108.845 61.8863 108.043 63.2122C107.241 64.5381 107.936 66.2651 109.922 66.6347C111.909 67.0043 113.862 66.8834 117.857 66.4403C121.852 65.9971 125.739 65.2668 125.213 63.1369C124.688 61.007 122.729 61.1279 117.415 62.438Z" fill="#FFB49F"/>
<path d="M122.831 65.4458C122.841 65.0755 122.55 64.7671 122.18 64.7571C121.811 64.7471 121.503 65.0393 121.493 65.4096C121.483 65.78 121.775 66.0882 122.144 66.0982C122.513 66.1082 122.821 65.8162 122.831 65.4458Z" fill="black"/>
<path d="M116.036 66.3011C116.046 65.9308 115.755 65.6224 115.385 65.6124C115.016 65.6024 114.708 65.8946 114.698 66.2649C114.688 66.6353 114.98 66.9436 115.349 66.9536C115.718 66.9636 116.026 66.6715 116.036 66.3011Z" fill="black"/>
<path d="M120.191 68.7649C120.136 68.7647 120.083 68.7478 120.039 68.7164C119.995 68.6851 119.962 68.6408 119.944 68.5897L117.861 63.0268C117.846 62.9638 117.855 62.8975 117.886 62.8405C117.916 62.7836 117.967 62.7401 118.028 62.7183C118.089 62.6966 118.156 62.6982 118.216 62.7228C118.276 62.7474 118.325 62.7933 118.353 62.8517L120.436 68.4146C120.46 68.4798 120.458 68.5521 120.429 68.6155C120.4 68.6789 120.347 68.7282 120.282 68.7526C120.252 68.7625 120.221 68.7667 120.191 68.7649Z" fill="#1D1D1B"/>
<path d="M119.718 61.1987C119.672 61.1982 119.627 61.1862 119.587 61.1636C119.527 61.1281 119.483 61.0704 119.465 61.0029C119.447 60.9354 119.456 60.8636 119.491 60.8028C120.706 58.701 123.845 60.3421 123.978 60.4122C124.036 60.4464 124.079 60.5019 124.098 60.567C124.116 60.632 124.109 60.7018 124.077 60.7616C124.046 60.8214 123.992 60.8668 123.928 60.8881C123.864 60.9095 123.794 60.9053 123.733 60.8764C123.705 60.8624 120.909 59.4086 119.946 61.0673C119.923 61.1073 119.89 61.1404 119.85 61.1635C119.81 61.1866 119.764 61.1987 119.718 61.1987Z" fill="black"/>
<path d="M112.144 63.1625C112.094 63.1625 112.045 63.1483 112.003 63.1217C111.961 63.0951 111.928 63.0571 111.907 63.0122C111.885 62.9673 111.877 62.9172 111.883 62.8679C111.889 62.8185 111.909 62.7719 111.941 62.7334C112.704 61.7911 113.517 61.2708 114.377 61.185C114.963 61.1229 115.552 61.2823 116.027 61.6317C116.079 61.6765 116.111 61.7397 116.116 61.8078C116.122 61.8759 116.101 61.9436 116.058 61.9965C116.015 62.0494 115.952 62.0833 115.884 62.091C115.817 62.0988 115.748 62.0798 115.694 62.038C115.629 61.9855 114.153 60.8435 112.347 63.0662C112.323 63.0964 112.292 63.1208 112.256 63.1375C112.221 63.1542 112.183 63.1627 112.144 63.1625Z" fill="black"/>
<path d="M114.099 78.7316C114.099 78.7316 111.151 77.9136 109.563 76.6543L114.099 78.7316Z" fill="#4BD657"/>
<path d="M114.099 78.9948C114.075 78.9954 114.051 78.9924 114.028 78.9861C113.906 78.9528 111.011 78.1383 109.399 76.8597C109.348 76.8154 109.316 76.7531 109.31 76.6857C109.303 76.6184 109.323 76.5512 109.365 76.4981C109.407 76.4451 109.468 76.4103 109.535 76.4009C109.602 76.3916 109.67 76.4085 109.725 76.4481C111.254 77.6601 114.139 78.4711 114.169 78.4799C114.229 78.4975 114.281 78.5362 114.315 78.589C114.35 78.6418 114.364 78.7051 114.355 78.7675C114.347 78.8299 114.316 78.8872 114.269 78.9289C114.222 78.9706 114.161 78.994 114.099 78.9948Z" fill="black"/>
<path d="M99.2728 44.8645H99.2081C99.1169 44.8475 99.0361 44.795 98.9835 44.7184C98.931 44.6419 98.9109 44.5477 98.9278 44.4564C99.3044 42.4106 100.192 40.9533 101.567 40.1441C103.806 38.8165 106.493 39.6782 106.605 39.715C106.693 39.744 106.766 39.8069 106.808 39.8899C106.85 39.9728 106.857 40.069 106.828 40.1573C106.799 40.2455 106.736 40.3186 106.653 40.3605C106.57 40.4024 106.474 40.4096 106.386 40.3806C106.347 40.3683 103.876 39.5872 101.919 40.7484C100.73 41.449 99.9543 42.7469 99.6162 44.5843C99.6001 44.6634 99.557 44.7345 99.4945 44.7856C99.4319 44.8367 99.3535 44.8645 99.2728 44.8645Z" fill="white"/>
<path d="M116.892 75.5037C116.54 75.506 116.192 75.4326 115.871 75.2883C114.161 74.5159 113.793 71.9604 113.769 71.8553C113.762 71.8014 113.772 71.7467 113.797 71.6985C113.822 71.6503 113.861 71.6109 113.909 71.5856C113.957 71.5605 114.012 71.551 114.066 71.5586C114.12 71.5661 114.171 71.5902 114.21 71.6276C117.655 74.8697 120.845 71.6276 120.98 71.4822C121.003 71.4543 121.031 71.4315 121.064 71.4152C121.096 71.3988 121.131 71.3893 121.167 71.3872C121.203 71.3851 121.239 71.3904 121.273 71.4029C121.307 71.4154 121.338 71.4347 121.364 71.4598C121.39 71.4848 121.411 71.5149 121.425 71.5482C121.439 71.5816 121.446 71.6175 121.445 71.6536C121.445 71.6897 121.437 71.7254 121.422 71.7583C121.407 71.7912 121.385 71.8206 121.358 71.8448C121.325 71.8798 118.058 75.2252 114.461 72.5261C114.682 73.281 115.161 74.3933 116.079 74.8031C116.881 75.1639 117.903 74.9398 119.113 74.134C119.142 74.115 119.174 74.1017 119.208 74.0951C119.241 74.0884 119.276 74.0885 119.31 74.0954C119.344 74.1022 119.376 74.1156 119.405 74.1349C119.433 74.1541 119.458 74.1788 119.477 74.2076C119.496 74.2364 119.51 74.2686 119.516 74.3025C119.523 74.3363 119.523 74.3712 119.516 74.405C119.509 74.4388 119.496 74.471 119.476 74.4996C119.457 74.5283 119.432 74.5528 119.404 74.5719C118.493 75.1937 117.643 75.5037 116.892 75.5037Z" fill="#1D1D1B"/>
<path d="M111.018 61.3608H110.96C109.809 61.3533 108.709 60.8891 107.9 60.0702C107.092 59.2513 106.642 58.1449 106.649 56.9942C106.657 55.8435 107.121 54.743 107.94 53.9346C108.759 53.1262 109.865 52.6763 111.016 52.6837H111.074C112.224 52.7003 113.321 53.1725 114.123 53.9967C114.926 54.8209 115.369 55.9297 115.354 57.08C115.338 58.22 114.874 59.308 114.063 60.1089C113.252 60.9099 112.158 61.3595 111.018 61.3608ZM111.018 53.2091C110.015 53.2159 109.056 53.6197 108.351 54.3322C107.645 55.0447 107.251 56.0077 107.254 57.0103C107.258 58.0129 107.659 58.9733 108.369 59.681C109.079 60.3888 110.04 60.7862 111.043 60.7862C112.046 60.7862 113.007 60.3888 113.718 59.681C114.428 58.9733 114.828 58.0129 114.832 57.0103C114.835 56.0077 114.441 55.0447 113.736 54.3322C113.03 53.6197 112.071 53.2159 111.069 53.2091H111.018Z" fill="#1D1D1B"/>
<path d="M121.775 59.6271H121.714C120.501 59.6192 119.341 59.1298 118.489 58.2665C117.637 57.4033 117.163 56.237 117.171 55.0241C117.178 53.8112 117.668 52.651 118.531 51.799C119.394 50.9469 120.561 50.4727 121.774 50.4806H121.833C123.046 50.4976 124.202 50.995 125.048 51.8636C125.894 52.7321 126.361 53.9009 126.347 55.1134C126.33 56.3152 125.841 57.4621 124.986 58.3066C124.13 59.1511 122.977 59.6253 121.775 59.6271ZM121.775 51.006C120.709 51.0132 119.689 51.4427 118.939 52.2003C118.189 52.9579 117.77 53.982 117.774 55.048C117.778 56.1141 118.204 57.1353 118.959 57.8878C119.714 58.6404 120.736 59.063 121.802 59.063C122.868 59.063 123.891 58.6404 124.646 57.8878C125.401 57.1353 125.827 56.1141 125.831 55.048C125.834 53.982 125.415 52.9579 124.665 52.2003C123.915 51.4427 122.896 51.0132 121.83 51.006H121.775Z" fill="#1D1D1B"/>
<path d="M116.888 55.5862C116.824 55.5866 116.762 55.5636 116.713 55.5214C115.72 54.6456 114.985 55.3848 114.904 55.4723C114.856 55.517 114.793 55.542 114.727 55.5425C114.662 55.543 114.598 55.5189 114.549 55.475C114.501 55.4311 114.47 55.3705 114.464 55.3052C114.457 55.2399 114.476 55.1745 114.515 55.122C114.906 54.6929 115.937 54.1412 117.06 55.1308C117.1 55.1663 117.128 55.2129 117.141 55.2647C117.153 55.3165 117.15 55.3709 117.131 55.4206C117.112 55.4704 117.078 55.5133 117.034 55.5435C116.99 55.5737 116.938 55.5898 116.885 55.5897L116.888 55.5862Z" fill="black"/>
<path d="M113.286 59.5246C113.224 59.5245 113.164 59.5082 113.111 59.4773C113.071 59.4541 113.036 59.4233 113.008 59.3866C112.98 59.3499 112.96 59.3081 112.948 59.2635C112.936 59.2189 112.933 59.1725 112.94 59.1268C112.946 59.0811 112.961 59.0371 112.984 58.9974C113.564 58.0095 113.724 57.1005 113.459 56.2948C113.021 54.9566 111.545 54.305 111.532 54.298C111.49 54.2798 111.452 54.2535 111.42 54.2205C111.388 54.1875 111.362 54.1486 111.345 54.1058C111.328 54.063 111.32 54.0173 111.32 53.9712C111.321 53.9252 111.33 53.8797 111.349 53.8374C111.367 53.795 111.393 53.7567 111.426 53.7246C111.459 53.6924 111.498 53.6671 111.541 53.65C111.584 53.6329 111.629 53.6244 111.675 53.625C111.721 53.6256 111.767 53.6353 111.809 53.6534C111.881 53.685 113.585 54.4294 114.125 56.0706C114.457 57.0759 114.277 58.1724 113.599 59.3512C113.567 59.4056 113.521 59.4505 113.466 59.481C113.411 59.5115 113.349 59.5266 113.286 59.5246Z" fill="white"/>
<path d="M124.558 57.4321C124.497 57.4317 124.437 57.4153 124.384 57.3844C124.331 57.3535 124.287 57.3092 124.256 57.256C124.226 57.2028 124.21 57.1426 124.21 57.0812C124.21 57.0199 124.226 56.9597 124.257 56.9066C124.835 55.917 124.994 55.008 124.73 54.2022C124.292 52.8641 122.815 52.2125 122.803 52.2055C122.759 52.1888 122.718 52.1633 122.684 52.1305C122.65 52.0977 122.623 52.0584 122.604 52.0148C122.586 51.9712 122.576 51.9242 122.576 51.8769C122.576 51.8295 122.586 51.7826 122.605 51.7391C122.624 51.6956 122.651 51.6564 122.685 51.6237C122.72 51.5911 122.76 51.5657 122.805 51.5492C122.849 51.5328 122.896 51.5255 122.944 51.5278C122.991 51.5301 123.037 51.542 123.08 51.5627C123.152 51.5925 124.856 52.3386 125.395 53.978C125.728 54.9834 125.548 56.0799 124.87 57.2604C124.838 57.3143 124.792 57.3586 124.737 57.3888C124.683 57.419 124.621 57.4339 124.558 57.4321Z" fill="white"/>
<path d="M75.8676 99.8647C65.2691 98.5265 74.5767 86.9209 82.2835 84.0904C84.6673 84.791 93.1729 79.4979 96.0139 80.7818C93.3673 96.4983 85.0982 101.038 75.8676 99.8647Z" fill="#0598C6"/>
<path d="M83.9329 67.0552C83.9329 67.0552 86.4972 66.1251 86.8948 64.8202C87.2924 63.5154 87.5236 57.5619 88.9966 54.1937C90.4206 50.9201 93.2388 51.4928 93.6084 57.3079C93.6084 57.3079 95.8486 52.288 98.5127 54.8067C98.5127 54.8067 100.402 52.8152 104.044 51.8572C107.172 51.0339 107.768 54.5703 105.23 55.9242C103.102 57.0592 102.252 57.5129 101.622 58.1767C101.622 58.1767 104.061 60.7024 100.844 61.4328C100.844 61.4328 98.9436 62.9934 100.271 64.2527C101.599 65.5121 103.175 59.8617 105.098 59.1733C107.022 58.485 108.815 61.0177 106.353 65.8291C103.89 70.6406 103.089 73.0349 99.6861 74.8495C97.1481 76.2035 93.3316 79.3317 93.3316 79.3317L83.9329 67.0552Z" fill="#FFCDB2"/>
<path d="M93.3165 79.5854H93.2867C93.2174 79.5756 93.1546 79.5391 93.1116 79.4838L83.7287 67.2231C83.7037 67.1903 83.6867 67.1521 83.6791 67.1116C83.6716 67.0711 83.6739 67.0293 83.6855 66.9898C83.6971 66.9502 83.7178 66.9139 83.746 66.8839C83.7742 66.8538 83.809 66.8308 83.8478 66.8167C84.5274 66.5698 86.3542 65.7168 86.6502 64.7517C86.7711 64.3541 86.8796 63.4608 87.018 62.3328C87.3088 59.977 87.7449 56.4161 88.7538 54.1006C89.4089 52.596 90.3863 51.8008 91.3724 51.9743C92.5984 52.1897 93.4829 53.8256 93.7894 56.4109C94.3149 55.5088 95.3115 54.1339 96.5691 53.8887C97.233 53.7573 97.881 53.95 98.4958 54.4597C99.0563 53.9342 100.892 52.4244 103.968 51.6152C105.646 51.1738 106.595 51.9059 106.919 52.7397C107.325 53.7766 106.919 55.3319 105.343 56.1692C103.449 57.178 102.566 57.6492 101.971 58.2027C102.298 58.602 102.957 59.5444 102.7 60.4096C102.524 61.0227 101.931 61.4605 100.948 61.6865C100.773 61.8511 100.072 62.5185 100.044 63.2226C100.042 63.3844 100.075 63.5448 100.143 63.692C100.21 63.8392 100.309 63.9697 100.433 64.0738C100.464 64.1121 100.504 64.1421 100.549 64.1611C100.594 64.18 100.643 64.1874 100.692 64.1824C101.153 64.1176 101.82 62.9914 102.409 61.9983C103.199 60.6636 104.017 59.2834 104.991 58.9296C105.351 58.786 105.747 58.7583 106.124 58.8503C106.5 58.9423 106.839 59.1494 107.092 59.4428C107.951 60.4166 108.262 62.6358 106.567 65.9515C106.231 66.6065 105.926 67.2161 105.642 67.7853C103.812 71.4636 102.803 73.476 99.7903 75.0822C97.3032 76.4081 93.5163 79.5048 93.4848 79.5364C93.4361 79.5716 93.3765 79.5889 93.3165 79.5854ZM84.3539 67.1723L93.3622 78.9478C94.2029 78.2683 97.3276 75.7951 99.5468 74.6093C102.414 73.0802 103.4 71.1062 105.178 67.5401C105.462 66.9691 105.768 66.3578 106.105 65.701C107.681 62.6218 107.448 60.6216 106.704 59.7808C106.52 59.566 106.273 59.4147 105.999 59.3486C105.724 59.2825 105.435 59.3051 105.174 59.413C104.377 59.702 103.574 61.0594 102.864 62.2557C102.122 63.5098 101.481 64.5923 100.762 64.6921C100.636 64.7079 100.507 64.6938 100.387 64.6509C100.267 64.608 100.159 64.5375 100.071 64.4452C99.8916 64.2899 99.7492 64.0969 99.6538 63.88C99.5584 63.6632 99.5123 63.4279 99.5187 63.191C99.5555 62.1401 100.612 61.2644 100.657 61.2311C100.689 61.2057 100.726 61.1877 100.766 61.1785C101.58 60.9929 102.059 60.6811 102.186 60.2502C102.39 59.5724 101.696 58.6563 101.412 58.3603C101.365 58.3117 101.339 58.2467 101.339 58.179C101.339 58.1114 101.365 58.0464 101.412 57.9978C102.071 57.2972 102.954 56.833 105.09 55.6963C106.394 54.9956 106.751 53.7468 106.427 52.9201C106.103 52.0934 105.239 51.8131 104.097 52.1126C100.568 53.0409 98.7078 54.9694 98.6903 54.9886C98.6666 55.0139 98.6382 55.0341 98.6067 55.0483C98.5751 55.0624 98.541 55.0701 98.5064 55.0709C98.437 55.0726 98.3696 55.0468 98.319 54.9991C97.7707 54.4737 97.2313 54.2828 96.6673 54.3949C95.0682 54.7119 93.8649 57.39 93.8438 57.418C93.8192 57.4712 93.7778 57.5149 93.7258 57.5421C93.6739 57.5694 93.6143 57.5787 93.5565 57.5686C93.4986 57.5585 93.4459 57.5291 93.4068 57.4852C93.3677 57.4414 93.3446 57.3856 93.3411 57.3269C93.1292 53.9832 92.136 52.6311 91.2778 52.4804C90.5579 52.3543 89.775 53.0514 89.232 54.3003C88.2547 56.5493 87.8219 60.0628 87.5364 62.3889C87.3946 63.5431 87.2825 64.4557 87.1477 64.8971C86.8026 66.0268 85.0861 66.8605 84.3539 67.1723Z" fill="#1D1D1B"/>
<path d="M100.614 61.4461C100.614 61.4461 98.6877 61.7123 96.0026 58.3301L100.614 61.4461Z" fill="#FFCDB2"/>
<path d="M100.511 61.7061C99.9999 61.7061 98.1626 61.4749 95.7963 58.4867C95.7567 58.4319 95.7397 58.3639 95.7491 58.2969C95.7584 58.2299 95.7933 58.169 95.8464 58.127C95.8994 58.085 95.9665 58.0651 96.0338 58.0715C96.1012 58.0778 96.1635 58.1098 96.2078 58.161C98.7353 61.3523 100.562 61.1806 100.587 61.1788C100.621 61.1742 100.656 61.1765 100.69 61.1855C100.724 61.1944 100.755 61.2099 100.783 61.231C100.81 61.2522 100.834 61.2786 100.851 61.3087C100.869 61.3388 100.88 61.3721 100.884 61.4066C100.889 61.4411 100.887 61.4761 100.878 61.5098C100.869 61.5434 100.853 61.575 100.832 61.6026C100.811 61.6302 100.785 61.6535 100.755 61.6709C100.724 61.6884 100.691 61.6997 100.657 61.7043C100.608 61.7081 100.56 61.7087 100.511 61.7061Z" fill="#1D1D1B"/>
<path d="M101.608 58.1785C100.644 56.9908 99.6052 55.8653 98.4989 54.8086L101.608 58.1785Z" fill="#FFCDB2"/>
<path d="M101.607 58.4402C101.567 58.4403 101.528 58.4314 101.492 58.4141C101.457 58.3968 101.425 58.3716 101.401 58.3404C100.443 57.1636 99.4138 56.0474 98.3179 54.9985C98.292 54.975 98.271 54.9466 98.2562 54.9149C98.2414 54.8832 98.2331 54.8489 98.2317 54.814C98.2303 54.779 98.236 54.7442 98.2483 54.7114C98.2606 54.6787 98.2792 54.6487 98.3032 54.6233C98.3272 54.5979 98.3562 54.5775 98.3882 54.5634C98.4202 54.5493 98.4547 54.5417 98.4896 54.5411C98.5246 54.5404 98.5593 54.5468 98.5918 54.5598C98.6242 54.5728 98.6537 54.5921 98.6787 54.6166C99.7936 55.6828 100.841 56.8177 101.814 58.0146C101.857 58.0696 101.876 58.1392 101.868 58.2084C101.86 58.2776 101.825 58.3408 101.77 58.3842C101.724 58.4209 101.666 58.4407 101.607 58.4402Z" fill="#1D1D1B"/>
<path d="M93.6058 57.3125C93.6286 58.176 93.8491 58.3862 93.4866 60.9907L93.6058 57.3125Z" fill="#FFCDB2"/>
<path d="M93.4858 61.2476H93.449C93.3801 61.2372 93.318 61.2002 93.2761 61.1445C93.2341 61.0889 93.2159 61.019 93.2249 60.9499C93.4964 59.0232 93.4385 58.4469 93.3842 57.8987C93.3666 57.7236 93.3475 57.5484 93.3423 57.3225C93.3408 57.2529 93.3667 57.1856 93.4146 57.1351C93.4625 57.0846 93.5284 57.055 93.598 57.0527C93.6668 57.0527 93.7327 57.0797 93.7818 57.1278C93.831 57.176 93.8593 57.2414 93.8607 57.3102C93.8607 57.5081 93.8817 57.6728 93.8992 57.8462C93.9552 58.3979 94.0183 59.025 93.7381 61.0235C93.7294 61.0846 93.6992 61.1408 93.653 61.1818C93.6069 61.2229 93.5475 61.2462 93.4858 61.2476Z" fill="#1D1D1B"/>
<path d="M100.694 64.4565C100.694 64.4565 97.0244 64.3374 95.9962 66.3061L100.694 64.4565Z" fill="#FFCDB2"/>
<path d="M95.9964 66.5711C95.9543 66.5706 95.9131 66.5604 95.8756 66.5413C95.8151 66.5089 95.7696 66.4542 95.7487 66.3888C95.7278 66.3235 95.7332 66.2525 95.7636 66.191C96.8548 64.0997 100.547 64.196 100.703 64.2013C100.772 64.2036 100.838 64.2335 100.886 64.2844C100.934 64.3353 100.959 64.4031 100.957 64.4727C100.954 64.5424 100.925 64.6083 100.874 64.656C100.823 64.7036 100.755 64.729 100.685 64.7267C100.65 64.7267 97.1682 64.6356 96.2293 66.4345C96.2065 66.4762 96.1729 66.5109 96.1319 66.535C96.0908 66.559 96.0439 66.5715 95.9964 66.5711Z" fill="#1D1D1B"/>
<path d="M97.1343 59.5723C97.1287 60.2492 96.9933 60.9187 96.735 61.5445L97.1343 59.5723Z" fill="#FFCDB2"/>
<path d="M96.7343 61.8006C96.6963 61.8 96.6587 61.7917 96.624 61.7761C96.5611 61.7461 96.5125 61.6925 96.4889 61.6269C96.4653 61.5613 96.4686 61.489 96.498 61.4258C96.7388 60.8355 96.8659 60.2049 96.8727 59.5674C96.8727 59.4977 96.9004 59.4309 96.9497 59.3816C96.999 59.3324 97.0658 59.3047 97.1354 59.3047C97.2051 59.3047 97.2721 59.3324 97.3214 59.3816C97.3706 59.4309 97.3982 59.4977 97.3982 59.5674C97.3931 60.2833 97.2486 60.9912 96.9726 61.6517C96.9512 61.6967 96.9175 61.7346 96.8753 61.761C96.8331 61.7873 96.7841 61.8011 96.7343 61.8006Z" fill="#1D1D1B"/>
<path d="M74.5828 100.01C96.3263 94.9113 90.217 82.4947 90.217 82.4947L93.5291 79.102L84.3669 67.0462L80.4067 68.0411C80.4067 68.0411 72.7542 60.2327 54.237 77.9775C35.7198 95.7223 67.6748 113.196 70.5158 121.458" fill="#07ACEE"/>
<path d="M70.267 121.546C69.4893 119.288 66.4136 116.246 62.83 112.725C56.3003 106.289 48.1715 98.277 48.2328 89.5877C48.2625 85.433 50.2206 81.4641 54.0547 77.7911C61.7807 70.3874 68.5751 66.4534 74.25 66.0961C78.0263 65.8579 80.0019 67.3362 80.4801 67.7548L84.4719 66.7529L93.8759 79.1275L90.5304 82.5535C91.057 83.848 91.3094 85.2377 91.2717 86.6348C91.234 88.0318 90.9071 89.4059 90.3114 90.6701C88.2236 95.0892 82.955 98.3173 74.6422 100.265L74.5215 99.7536C82.6626 97.8444 87.8138 94.7161 89.8334 90.4547C91.7723 86.3631 89.9997 82.6499 89.9805 82.6131L89.8999 82.4379L93.1823 79.075L84.2635 67.3397L80.3243 68.3276L80.2193 68.2207C80.2018 68.2015 78.3048 66.3413 74.2237 66.6163C70.4159 66.8738 63.8896 69.086 54.4191 78.1624C50.6918 81.7356 48.7863 85.5767 48.7582 89.5842C48.6987 98.0511 56.7398 105.977 63.1995 112.344C66.8199 115.911 69.9465 118.999 70.7627 121.367L70.267 121.546Z" fill="#1D1D1B"/>
<path d="M80.5267 68.4038L84.331 67.4492L93.129 79.0268L89.9482 82.2847L89.971 82.3337C86.8918 80.7153 81.1449 76.6115 80.4198 68.3075C80.4846 68.367 80.5267 68.4038 80.5267 68.4038Z" fill="#0598C6"/>
<path d="M151.186 98.0649C132.989 64.1518 149.846 59.2019 149.846 59.2019L149.779 53.6951L164.708 50.8594L166.895 54.8651C166.895 54.8651 175.979 54.5341 179.028 84.17C182.451 117.419 164.751 120.397 136.96 124.201" fill="#07ACEE"/>
<path d="M136.957 124.465C136.888 124.469 136.819 124.446 136.767 124.4C136.714 124.354 136.682 124.289 136.677 124.22C136.672 124.15 136.696 124.081 136.742 124.029C136.788 123.976 136.853 123.944 136.922 123.939C149.761 122.188 161.889 120.52 169.545 115.006C177.525 109.263 180.369 99.7594 178.767 84.1795C177.208 69.027 174.037 61.9228 171.668 58.6299C169.117 55.097 166.924 55.1093 166.902 55.1111C166.853 55.1117 166.806 55.0994 166.764 55.0753C166.722 55.0513 166.687 55.0165 166.663 54.9744L164.562 51.1368L150.036 53.8937L150.101 59.1834C150.102 59.2404 150.084 59.296 150.05 59.3419C150.016 59.3878 149.968 59.4213 149.913 59.4373C149.877 59.4496 146.155 60.6004 144.198 65.298C142.144 70.2233 141.729 79.883 151.409 97.9238C151.427 97.9542 151.439 97.988 151.444 98.0231C151.448 98.0582 151.446 98.0938 151.436 98.1279C151.427 98.162 151.41 98.1938 151.388 98.2214C151.366 98.249 151.339 98.2719 151.308 98.2886C151.276 98.3054 151.242 98.3157 151.207 98.3189C151.172 98.3221 151.136 98.3182 151.102 98.3073C151.069 98.2965 151.038 98.2789 151.011 98.2558C150.984 98.2326 150.962 98.2043 150.947 98.1725C146.612 90.0927 143.907 82.9727 142.907 77.007C142.116 72.2778 142.382 68.2598 143.72 65.0773C145.545 60.716 148.752 59.2972 149.574 58.9977L149.509 53.6801C149.508 53.6184 149.529 53.5585 149.568 53.5107C149.607 53.463 149.662 53.4306 149.723 53.4191L164.651 50.5851C164.705 50.5742 164.762 50.5811 164.813 50.6048C164.863 50.6284 164.905 50.6675 164.931 50.7165L167.047 54.5926C167.643 54.6434 169.699 55.0585 172.021 58.2323C175.57 63.077 178.012 71.7891 179.281 84.1252C180.122 92.2926 179.719 98.7873 178.055 103.981C176.496 108.831 173.811 112.574 169.849 115.423C162.088 121.009 149.898 122.678 136.993 124.445L136.957 124.465Z" fill="#1D1D1B"/>
<path d="M166.558 55.078L164.456 51.2246L150.118 53.9482L150.183 59.2379L150.132 59.2606C153.477 60.3588 160.466 61.4956 166.702 55.0762C166.609 55.0762 166.558 55.078 166.558 55.078Z" fill="#0598C6"/>
<path d="M93.5971 109.703C94.4668 109.703 95.1718 108.997 95.1718 108.125C95.1718 107.253 94.4668 106.547 93.5971 106.547C92.7275 106.547 92.0225 107.253 92.0225 108.125C92.0225 108.997 92.7275 109.703 93.5971 109.703Z" fill="#51CEF4"/>
<path d="M126.501 93.6133C127.37 93.6133 128.075 92.9067 128.075 92.0352C128.075 91.1636 127.37 90.457 126.501 90.457C125.631 90.457 124.926 91.1636 124.926 92.0352C124.926 92.9067 125.631 93.6133 126.501 93.6133Z" fill="#51CEF4"/>
<path d="M137.813 114.099C137.869 114.429 137.819 114.769 137.67 115.068C137.521 115.368 137.281 115.612 136.983 115.766C136.686 115.919 136.347 115.975 136.017 115.923C135.686 115.872 135.38 115.716 135.144 115.479C134.907 115.243 134.752 114.937 134.701 114.606C134.65 114.275 134.706 113.937 134.86 113.64C135.014 113.343 135.259 113.102 135.559 112.953C135.858 112.805 136.198 112.755 136.527 112.812C136.848 112.867 137.145 113.021 137.375 113.252C137.605 113.482 137.758 113.778 137.813 114.099Z" fill="#51CEF4"/>
<path d="M106.217 124.523C106.273 124.853 106.223 125.192 106.074 125.492C105.925 125.792 105.684 126.036 105.387 126.19C105.09 126.343 104.751 126.398 104.421 126.347C104.09 126.295 103.784 126.14 103.548 125.903C103.311 125.666 103.156 125.36 103.105 125.03C103.054 124.699 103.11 124.361 103.264 124.063C103.418 123.766 103.663 123.526 103.962 123.377C104.262 123.228 104.602 123.179 104.931 123.236C105.252 123.291 105.548 123.445 105.779 123.675C106.009 123.906 106.162 124.202 106.217 124.523Z" fill="#51CEF4"/>
<path d="M132.023 137.756C132.079 138.086 132.03 138.425 131.88 138.724C131.731 139.024 131.491 139.268 131.193 139.422C130.896 139.576 130.557 139.631 130.227 139.579C129.896 139.528 129.59 139.372 129.354 139.136C129.117 138.899 128.962 138.593 128.911 138.262C128.86 137.931 128.916 137.593 129.07 137.296C129.224 136.999 129.469 136.758 129.768 136.61C130.068 136.461 130.408 136.411 130.737 136.468C131.058 136.524 131.354 136.677 131.585 136.908C131.815 137.138 131.968 137.435 132.023 137.756Z" fill="#51CEF4"/>
<path d="M63.9716 98.1332C65.5813 97.7741 66.3099 99.7428 64.8474 100.515C63.2447 100.873 62.5161 98.9056 63.9716 98.1332Z" fill="#51CEF4"/>
<path d="M58.9728 80.1567C60.5825 79.8064 61.3111 81.7664 59.8486 82.5388C58.239 82.8979 57.5173 80.9292 58.9728 80.1567Z" fill="#51CEF4"/>
<path d="M81.8851 85.9712C83.4947 85.6209 84.2234 87.5809 82.7608 88.3533C81.1582 88.7053 80.4295 86.7384 81.8851 85.9712Z" fill="#51CEF4"/>
<path d="M68.2973 71.3618C69.907 71.0115 70.6356 72.9732 69.1731 73.7456C67.5704 74.103 66.8418 72.1377 68.2973 71.3618Z" fill="#51CEF4"/>
<path d="M158.11 93.3718C157.191 91.7831 155.308 92.8586 155.833 94.6732C156.753 96.2618 158.634 95.1864 158.11 93.3718Z" fill="#51CEF4"/>
<path d="M174.092 82.2194C173.172 80.6307 171.289 81.7062 171.815 83.5225C172.736 85.1112 174.617 84.0339 174.092 82.2194Z" fill="#51CEF4"/>
<path d="M153.492 68.7955C152.571 67.2069 150.69 68.2823 151.215 70.0987C152.135 71.6873 154.016 70.6119 153.492 68.7955Z" fill="#51CEF4"/>
<path d="M173.382 67.3479C172.461 65.7592 170.579 66.8364 171.105 68.651C172.024 70.2396 173.906 69.159 173.382 67.3479Z" fill="#51CEF4"/>
<path d="M165.377 55.7964C160.315 56.3779 155.528 56.1257 151.079 54.8576C147.652 53.8702 144.679 51.7158 142.673 48.7673C140.667 45.8188 139.755 42.2618 140.095 38.712C140.82 31.1121 143.829 24.0376 148.804 17.4238C155.787 22.4823 160.432 25.952 169.955 25.3057C163.084 35.7343 156.293 48.0336 165.377 55.7964Z" fill="white"/>
<path d="M160.397 56.3536C157.225 56.3768 154.064 55.9583 151.007 55.11C147.52 54.1094 144.492 51.919 142.451 48.919C140.41 45.9191 139.484 42.2991 139.834 38.6876C140.535 31.2594 143.49 24.0518 148.592 17.2664C148.612 17.2389 148.637 17.2156 148.666 17.1979C148.696 17.1802 148.728 17.1684 148.762 17.1632C148.795 17.158 148.83 17.1595 148.863 17.1676C148.896 17.1757 148.927 17.1902 148.954 17.2103L149.237 17.4153C156.101 22.3896 160.637 25.6737 169.934 25.0397C169.983 25.0362 170.032 25.0465 170.076 25.0693C170.119 25.0921 170.155 25.1266 170.18 25.1689C170.204 25.2112 170.217 25.2595 170.216 25.3085C170.214 25.3575 170.199 25.4051 170.172 25.4461C166.904 30.4064 163.371 36.2057 161.94 41.6179C160.353 47.5907 161.534 52.1639 165.552 55.5969C165.591 55.6305 165.619 55.6744 165.633 55.7234C165.647 55.7725 165.647 55.8247 165.633 55.8737C165.616 55.9212 165.587 55.9629 165.547 55.994C165.508 56.0251 165.46 56.0441 165.41 56.0488C163.746 56.2465 162.073 56.3482 160.397 56.3536ZM148.86 17.7883C143.908 24.4442 141.048 31.4818 140.358 38.7367C140.019 42.2261 140.913 45.7239 142.885 48.6227C144.857 51.5216 147.781 53.6384 151.151 54.6056C155.241 55.7703 159.816 56.1049 164.76 55.6004C160.935 52.0711 159.846 47.4453 161.432 41.4831C162.848 36.1584 166.244 30.4922 169.451 25.5949C168.848 25.6288 168.265 25.6451 167.699 25.644C159.704 25.644 155.312 22.4614 148.935 17.8409L148.86 17.7883Z" fill="#1D1D1B"/>
<path d="M140.144 42.0449C140.144 42.0449 143.296 47.4186 147.963 46.8651C147.963 46.8651 145.756 52.9955 150.085 54.5369C150.085 54.5369 141.356 51.9674 140.144 42.0449Z" fill="#4BD657"/>
<path d="M150.01 54.7851C149.919 54.7588 147.751 54.1072 145.404 52.2138C143.237 50.4623 140.52 47.2885 139.883 42.0742L139.729 40.8184L140.37 41.9096C140.401 41.9621 143.496 47.1274 147.931 46.6019L148.353 46.5529L148.21 46.9522C148.199 46.9855 147.055 50.2276 148.113 52.4696C148.315 52.8964 148.602 53.2775 148.956 53.5898C149.31 53.9021 149.724 54.139 150.173 54.2859L150.01 54.7851ZM140.583 43.1514C141.697 48.9315 145.531 51.9406 147.998 53.3103C147.86 53.115 147.74 52.9081 147.639 52.692C146.7 50.7058 147.307 48.1258 147.593 47.1589C144.221 47.3341 141.718 44.656 140.583 43.1514Z" fill="black"/>
<path d="M142.43 35.506C142.372 35.506 142.316 35.4947 142.263 35.4727C142.21 35.4506 142.161 35.4184 142.121 35.3777C142.08 35.337 142.048 35.2887 142.026 35.2356C142.005 35.1825 141.993 35.1256 141.994 35.0681C141.994 30.4616 147.719 21.3922 147.965 21.0086C148.028 20.913 148.126 20.846 148.238 20.8221C148.351 20.7982 148.468 20.8193 148.564 20.8807C148.661 20.9422 148.73 21.0392 148.756 21.1509C148.782 21.2626 148.763 21.38 148.704 21.478C148.644 21.5691 142.871 30.7156 142.869 35.0681C142.869 35.1844 142.823 35.2958 142.74 35.3779C142.658 35.46 142.546 35.506 142.43 35.506Z" fill="white"/>
<path d="M184.701 79.4831C184.673 79.4831 184.645 79.479 184.618 79.4708C178.441 77.4443 173.116 74.7014 168.791 71.3157C165.325 68.6043 162.486 65.4761 160.365 62.0185C156.739 56.1229 156.441 51.385 156.431 51.1853C156.429 51.1508 156.434 51.1163 156.446 51.0837C156.457 51.0511 156.475 51.0211 156.498 50.9954C156.521 50.9697 156.549 50.9488 156.58 50.9339C156.611 50.919 156.645 50.9104 156.68 50.9086C156.714 50.9067 156.749 50.9117 156.781 50.9232C156.814 50.9347 156.844 50.9525 156.87 50.9756C156.895 50.9987 156.916 51.0266 156.931 51.0578C156.946 51.089 156.954 51.1228 156.956 51.1573C156.956 51.2046 157.265 55.9845 160.831 61.7716C164.124 67.1155 170.953 74.4369 184.785 78.9716C184.844 78.9916 184.893 79.0317 184.925 79.0849C184.957 79.1381 184.969 79.2008 184.959 79.2621C184.95 79.3234 184.918 79.3792 184.871 79.4196C184.824 79.46 184.764 79.4825 184.702 79.4831H184.701Z" fill="#1D1E1B"/>
<path d="M167.583 79.6429C167.539 79.6435 167.495 79.6327 167.457 79.6114C158.874 74.9068 155.154 67.7851 153.539 62.6391C151.787 57.0657 152.073 52.5345 152.075 52.4802C152.079 52.4105 152.111 52.3455 152.164 52.2995C152.217 52.2535 152.285 52.2303 152.355 52.235C152.425 52.2396 152.49 52.2717 152.536 52.3243C152.582 52.3768 152.605 52.4455 152.6 52.5152C152.6 52.5607 152.322 57.0096 154.047 62.4989C155.634 67.5468 159.302 74.5337 167.709 79.149C167.761 79.1763 167.802 79.2203 167.826 79.2741C167.85 79.3278 167.855 79.388 167.841 79.445C167.826 79.502 167.793 79.5524 167.746 79.588C167.699 79.6236 167.641 79.6423 167.583 79.6412V79.6429Z" fill="#1D1E1B"/>
<path d="M163.315 53.0425C163.315 53.0425 168.9 54.2843 171.356 48.2223C173.812 42.1602 174.192 35.7864 170.893 31.933C167.595 28.0797 163.649 27.8309 161.057 29.0272C158.465 30.2235 157.981 33.0558 160.129 35.9843C160.129 35.9843 156.084 38.9076 160.164 43.8487C158.465 44.4442 156.995 49.585 162.001 50.3819C162.183 51.3735 162.638 52.2948 163.315 53.0425Z" fill="#FFCDB2"/>
<path d="M164.479 53.4036C164.068 53.4085 163.657 53.3738 163.253 53.3002L163.169 53.281L163.112 53.2161C162.45 52.4801 161.989 51.5853 161.774 50.6186C159.729 50.2385 158.471 49.0317 158.315 47.2907C158.187 45.872 158.84 44.3411 159.75 43.7701C158.469 42.129 157.917 40.5298 158.112 39.0095C158.281 37.8237 158.868 36.7372 159.767 35.946C158.683 34.3802 158.282 32.7758 158.636 31.4096C158.932 30.2623 159.73 29.3603 160.942 28.7998C163.451 27.642 167.614 27.7243 171.089 31.7774C174.156 35.3488 174.345 41.5369 171.595 48.3294C169.802 52.766 166.323 53.4036 164.479 53.4036ZM163.456 52.8045C164.167 52.9342 168.905 53.577 171.113 48.1262C173.788 41.5177 173.632 35.5327 170.697 32.1137C167.414 28.2918 163.622 28.1412 161.168 29.2745C160.103 29.7666 159.405 30.5496 159.149 31.5392C158.819 32.809 159.243 34.3416 160.342 35.8374L160.497 36.0511L160.284 36.2053C159.394 36.9245 158.806 37.9514 158.637 39.083C158.462 40.5298 159.037 42.0799 160.368 43.6913L160.608 43.9821L160.258 44.1064C159.499 44.3709 158.72 45.8002 158.856 47.2434C158.937 48.1437 159.46 49.7183 162.056 50.1317L162.24 50.1615L162.273 50.3366C162.439 51.2504 162.847 52.1029 163.456 52.8045Z" fill="black"/>
<path d="M169.388 38.1855C169.352 38.1853 169.317 38.1781 169.285 38.1643C169.252 38.1505 169.222 38.1303 169.197 38.1049C169.16 38.0646 165.37 34.2043 159.625 36.3657C159.592 36.3817 159.555 36.3905 159.519 36.3916C159.482 36.3928 159.445 36.3861 159.411 36.3721C159.377 36.3581 159.346 36.337 159.321 36.3103C159.295 36.2836 159.276 36.2519 159.263 36.2171C159.251 36.1824 159.246 36.1454 159.249 36.1086C159.252 36.0719 159.262 36.0361 159.28 36.0037C159.298 35.9713 159.322 35.9429 159.351 35.9205C159.38 35.8981 159.414 35.882 159.45 35.8735C165.526 33.586 169.546 37.7003 169.586 37.7406C169.635 37.7899 169.663 37.8567 169.663 37.9263C169.663 37.9959 169.635 38.0627 169.586 38.1119C169.56 38.1374 169.529 38.1571 169.495 38.1698C169.461 38.1825 169.424 38.1878 169.388 38.1855Z" fill="#1D1D1B"/>
<path d="M168.031 44.1886C168.005 44.1888 167.979 44.1846 167.954 44.1763C167.908 44.1623 163.328 42.7909 160.215 44.1378C160.152 44.1657 160.079 44.167 160.014 44.1415C159.949 44.1161 159.897 44.0659 159.869 44.002C159.842 43.9382 159.84 43.8658 159.866 43.801C159.891 43.7361 159.941 43.684 160.005 43.6561C163.298 42.2304 167.912 43.6141 168.108 43.6736C168.169 43.6914 168.221 43.7307 168.256 43.7842C168.29 43.8378 168.304 43.9019 168.294 43.9647C168.285 44.0276 168.253 44.0849 168.204 44.1261C168.156 44.1672 168.094 44.1894 168.031 44.1886Z" fill="#1D1D1B"/>
<path d="M164.287 50.9798C163.421 50.9718 162.56 50.8475 161.727 50.6102C161.66 50.5898 161.604 50.5437 161.572 50.4821C161.539 50.4205 161.532 50.3484 161.552 50.2818C161.573 50.2151 161.619 50.1593 161.681 50.1266C161.742 50.0939 161.814 50.0871 161.881 50.1075C161.911 50.1075 164.809 50.9833 166.529 49.9324C166.559 49.9128 166.592 49.8995 166.627 49.8931C166.661 49.8866 166.697 49.8873 166.732 49.895C166.766 49.9026 166.799 49.9172 166.827 49.9378C166.856 49.9584 166.88 49.9845 166.899 50.0147C166.917 50.0448 166.929 50.0784 166.934 50.1134C166.94 50.1484 166.938 50.184 166.929 50.2182C166.92 50.2524 166.904 50.2844 166.882 50.3123C166.86 50.3402 166.833 50.3635 166.803 50.3808C166.053 50.8379 165.135 50.9798 164.287 50.9798Z" fill="#1D1D1B"/>
<path d="M171.365 35.5262C171.274 35.5261 171.186 35.4982 171.112 35.4461C171.038 35.3941 170.982 35.3205 170.951 35.2354C170.941 35.2057 169.82 32.1685 167.017 30.8566C165.266 30.0404 163.238 30.0474 160.959 30.8794C160.85 30.9191 160.729 30.9138 160.624 30.8647C160.519 30.8156 160.437 30.7267 160.398 30.6175C160.358 30.5084 160.363 30.3879 160.412 30.2826C160.461 30.1773 160.55 30.0959 160.659 30.0562C163.168 29.1419 165.434 29.1454 167.398 30.0667C170.531 31.5379 171.727 34.7958 171.776 34.9412C171.8 35.0072 171.807 35.0778 171.797 35.1471C171.787 35.2163 171.761 35.2823 171.721 35.3396C171.681 35.3968 171.627 35.4435 171.565 35.476C171.504 35.5085 171.435 35.5257 171.365 35.5262Z" fill="white"/>
<path d="M169.337 40.7937C169.269 40.7938 169.202 40.778 169.141 40.7476C169.08 40.7172 169.027 40.673 168.987 40.6185C168.864 40.4434 165.946 36.6005 160.978 38.3187C160.923 38.341 160.864 38.3517 160.805 38.3504C160.746 38.3491 160.687 38.3357 160.633 38.3111C160.579 38.2865 160.531 38.2512 160.491 38.2072C160.451 38.1633 160.42 38.1117 160.401 38.0556C160.381 37.9995 160.374 37.94 160.378 37.8808C160.382 37.8215 160.399 37.7638 160.426 37.7111C160.453 37.6584 160.491 37.6118 160.537 37.5741C160.583 37.5364 160.636 37.5085 160.693 37.492C166.282 35.5653 169.659 40.0545 169.692 40.1C169.741 40.1651 169.771 40.2425 169.778 40.3234C169.785 40.4044 169.77 40.4859 169.734 40.5586C169.697 40.6313 169.641 40.6925 169.572 40.7353C169.503 40.778 169.423 40.8006 169.342 40.8006L169.337 40.7937Z" fill="white"/>
<path d="M150.197 29.75C150.197 29.75 152.617 33.6629 159.016 33.8573L150.197 29.75Z" fill="white"/>
<path d="M159.011 34.1167C152.544 33.9205 150.078 30.0496 149.977 29.885C149.941 29.8258 149.93 29.7548 149.946 29.6876C149.962 29.6203 150.004 29.5622 150.063 29.5257C150.122 29.4893 150.193 29.4775 150.26 29.493C150.328 29.5084 150.386 29.5498 150.423 29.6082C150.446 29.6467 152.856 33.4038 159.027 33.5912C159.096 33.5912 159.163 33.6189 159.213 33.6682C159.262 33.7174 159.29 33.7843 159.29 33.8539C159.29 33.9236 159.262 33.9904 159.213 34.0397C159.163 34.089 159.096 34.1167 159.027 34.1167H159.011Z" fill="#1D1D1B"/>
<path d="M149.033 37.5215C149.033 37.5215 151.679 40.9965 158.132 39.837L149.033 37.5215Z" fill="white"/>
<path d="M155.571 40.3376C150.912 40.3376 148.915 37.8049 148.824 37.6788C148.801 37.6517 148.783 37.6201 148.773 37.586C148.762 37.552 148.759 37.5161 148.763 37.4807C148.767 37.4453 148.778 37.411 148.795 37.38C148.813 37.3489 148.836 37.3218 148.864 37.3001C148.893 37.2785 148.925 37.2628 148.96 37.2541C148.994 37.2454 149.03 37.2438 149.065 37.2494C149.101 37.255 149.134 37.2677 149.164 37.2867C149.195 37.3057 149.22 37.3307 149.241 37.36C149.267 37.3933 151.884 40.6879 158.084 39.5775C158.154 39.5652 158.226 39.581 158.284 39.6216C158.342 39.6622 158.381 39.7241 158.393 39.7938C158.405 39.8635 158.39 39.9352 158.349 39.9932C158.308 40.0511 158.247 40.0906 158.177 40.1029C157.317 40.2581 156.445 40.3366 155.571 40.3376Z" fill="#1D1D1B"/>
<path d="M37.9607 6.32909C37.5549 10.1048 37.5714 13.914 38.0098 17.686C38.443 21.4323 39.2648 25.1234 40.4619 28.6997C41.6647 32.2935 43.2293 35.7559 45.1316 39.0337C47.0258 42.3015 49.2566 45.3623 51.7874 48.1662C54.3061 50.9682 57.1255 53.4845 60.1947 55.6697C60.5801 55.9447 60.9723 56.2127 61.3664 56.4754C61.4436 56.5361 61.5411 56.5648 61.6389 56.5556C61.7366 56.5465 61.8272 56.5003 61.8919 56.4264C61.9548 56.3503 61.9852 56.2523 61.9764 56.1539C61.9675 56.0555 61.9202 55.9646 61.8447 55.901C58.7371 53.8246 55.8688 51.4109 53.2919 48.7039C50.7228 46.0004 48.4438 43.0352 46.4924 39.8569C44.5336 36.6765 42.905 33.3042 41.6319 29.7926C40.3536 26.2849 39.4437 22.6537 38.917 18.9576C38.3934 15.2748 38.276 11.5456 38.5667 7.83716C38.6053 7.37651 38.6473 6.9176 38.6981 6.45695C38.7489 5.9963 38.0132 5.85616 37.9624 6.33608L37.9607 6.32909Z" fill="black"/>
<path d="M30.2408 40.2878C31.4113 42.0275 32.6841 43.6961 34.0523 45.2849C35.4378 46.8878 36.9156 48.4084 38.4783 49.8389C41.5918 52.6886 45.0277 55.1646 48.7161 57.2164C50.5483 58.2359 52.4398 59.1448 54.3805 59.9383L55.1075 60.229C55.1981 60.267 55.2998 60.2688 55.3917 60.2339C55.4837 60.199 55.5586 60.1302 55.6013 60.0416C55.6412 59.9514 55.6442 59.8491 55.6095 59.7567C55.5748 59.6643 55.5052 59.5893 55.4157 59.5477C51.5377 58.0316 47.8546 56.0583 44.4442 53.6695C42.7358 52.4716 41.0983 51.1756 39.5399 49.7881C36.4352 47.0333 33.6715 43.9168 31.3077 40.505C31.1582 40.2913 31.011 40.0759 30.8662 39.8587C30.5982 39.4594 29.9904 39.8885 30.2532 40.2861L30.2408 40.2878Z" fill="black"/>
<path d="M140.1 71.1994C140.041 71.1995 139.982 71.179 139.936 71.1414C139.889 71.1038 139.857 71.0513 139.845 70.9927C138.836 66.4527 143.348 60.9109 143.537 60.6779C143.581 60.624 143.645 60.59 143.715 60.5833C143.784 60.5765 143.853 60.5977 143.907 60.642C143.961 60.6864 143.995 60.7503 144.002 60.8198C144.009 60.8893 143.988 60.9586 143.943 61.0125C143.898 61.0668 139.403 66.5894 140.356 70.8789C140.371 70.9467 140.359 71.0177 140.322 71.0765C140.285 71.1353 140.226 71.1769 140.158 71.1924C140.139 71.1964 140.12 71.1988 140.1 71.1994Z" fill="#1D1E1B"/>
<path d="M178.48 109.91C178.436 109.91 178.392 109.899 178.353 109.878C178.294 109.845 178.249 109.79 178.23 109.725C178.21 109.659 178.217 109.589 178.248 109.528C183.105 100.625 181.051 90.6116 181.035 90.5188C181.025 90.4525 181.041 90.385 181.079 90.3299C181.117 90.2748 181.175 90.2364 181.24 90.2225C181.306 90.2086 181.374 90.2203 181.431 90.2552C181.489 90.2901 181.53 90.3456 181.548 90.4102C181.569 90.5118 183.662 100.7 178.709 109.78C178.686 109.821 178.652 109.854 178.612 109.877C178.572 109.899 178.526 109.911 178.48 109.91Z" fill="#1D1E1B"/>
<path d="M49.1146 100.313C49.0732 100.314 49.0323 100.304 48.9954 100.285C48.9586 100.266 48.9268 100.238 48.9027 100.205C45.263 95.1796 44.9564 90.5591 45.34 87.5692C45.7551 84.3236 47.0197 82.2954 47.074 82.2095C47.1133 82.1556 47.1715 82.1187 47.2371 82.1062C47.3026 82.0937 47.3704 82.1066 47.4267 82.1422C47.4831 82.1779 47.5239 82.2336 47.5407 82.2982C47.5574 82.3627 47.5491 82.4312 47.5172 82.4898C47.505 82.5108 46.2543 84.5233 45.8567 87.6603C45.4924 90.5521 45.7972 95.0167 49.3283 99.8965C49.3689 99.9533 49.3855 100.024 49.3743 100.093C49.3631 100.162 49.3252 100.223 49.2688 100.264C49.2239 100.297 49.1699 100.314 49.1146 100.313Z" fill="#1D1E1B"/>
<path d="M118.117 41.008C118.095 41.0105 118.073 41.0105 118.05 41.008C117.983 40.9903 117.926 40.9466 117.891 40.8865C117.855 40.8264 117.846 40.7548 117.863 40.6875L119.454 34.6797C119.471 34.6124 119.515 34.5549 119.576 34.5199C119.636 34.4849 119.708 34.4753 119.775 34.4932C119.842 34.5111 119.9 34.555 119.935 34.6153C119.97 34.6755 119.979 34.7472 119.961 34.8146L118.371 40.8206C118.355 40.8754 118.322 40.9235 118.276 40.9574C118.23 40.9913 118.174 41.0091 118.117 41.008Z" fill="#1D1E1B"/>
<path d="M121.121 42.2434C121.085 42.2436 121.049 42.2361 121.016 42.2213C120.982 42.2065 120.953 42.1848 120.928 42.1576C120.905 42.1322 120.887 42.1024 120.875 42.07C120.863 42.0376 120.858 42.0032 120.859 41.9687C120.861 41.9342 120.869 41.9003 120.884 41.869C120.898 41.8377 120.919 41.8096 120.944 41.7863L125.008 38.0765C125.06 38.039 125.125 38.022 125.189 38.0288C125.253 38.0357 125.312 38.0659 125.356 38.1138C125.399 38.1616 125.423 38.2237 125.423 38.2882C125.424 38.3527 125.401 38.4152 125.358 38.4636L121.296 42.1839C121.247 42.2244 121.185 42.2456 121.121 42.2434Z" fill="#1D1E1B"/>
<path d="M63.1621 151.654L63.1595 152.18L158.296 152.645L158.299 152.119L63.1621 151.654Z" fill="#1D1E1B"/>
<path d="M74.1706 156.455H50.1833V156.981H74.1706V156.455Z" fill="#1D1E1B"/>
<path d="M54.9118 79.6695C54.8428 79.6696 54.7754 79.6493 54.7178 79.6111C54.6603 79.5729 54.6153 79.5187 54.5885 79.455C54.5618 79.3914 54.5546 79.3213 54.5675 79.2535C54.5804 79.1858 54.6131 79.1233 54.6614 79.074C57.1611 76.608 59.8847 74.3798 62.7971 72.4182C69.0781 68.2303 74.4168 66.787 78.6625 68.1269C78.7065 68.1407 78.7473 68.1631 78.7826 68.1926C78.8179 68.2222 78.847 68.2584 78.8683 68.2992C78.8896 68.3401 78.9027 68.3847 78.9068 68.4305C78.9108 68.4764 78.9059 68.5226 78.8921 68.5666C78.8783 68.6105 78.856 68.6513 78.8264 68.6866C78.7968 68.7219 78.7607 68.751 78.7198 68.7723C78.679 68.7936 78.6343 68.8067 78.5885 68.8108C78.5426 68.8148 78.4964 68.8098 78.4525 68.796C68.7893 65.7449 55.2972 79.4278 55.1571 79.5662C55.0921 79.6316 55.004 79.6687 54.9118 79.6695Z" fill="white"/>
<path d="M138.986 87.0235C138.936 87.0236 138.886 87.0128 138.84 86.992C129.032 82.5203 118.938 82.2962 118.838 82.2944C118.745 82.293 118.656 82.2548 118.592 82.1881C118.527 82.1214 118.491 82.0317 118.493 81.9388C118.494 81.8459 118.533 81.7574 118.599 81.6927C118.666 81.628 118.756 81.5924 118.848 81.5938C118.952 81.5938 129.196 81.8232 139.131 86.3545C139.204 86.3876 139.263 86.4447 139.299 86.5163C139.335 86.5878 139.345 86.6694 139.328 86.7476C139.311 86.8258 139.268 86.8958 139.206 86.946C139.143 86.9962 139.066 87.0236 138.986 87.0235Z" fill="white"/>
<path d="M81.104 132.678L63.3206 131.711L63.4135 131.394L74.9175 91.9844L81.104 132.678ZM64.0142 131.222L80.4873 132.119L74.7598 94.4085L64.0142 131.222Z" fill="#1D1E1B"/>
<path d="M165.638 145.252L147.858 144.285L147.951 143.966L159.455 104.557L165.638 145.252ZM148.548 143.796L165.012 144.693L159.285 106.983L148.548 143.796Z" fill="#1D1E1B"/>
<path d="M161.593 106.013L161.631 105.758C161.726 105.105 161.274 104.499 160.621 104.404L73.3049 91.6657C72.6521 91.5704 72.0456 92.0225 71.9504 92.6753L71.9132 92.9301C71.818 93.5829 72.27 94.1893 72.9228 94.2846L160.239 107.023C160.892 107.118 161.498 106.666 161.593 106.013Z" fill="#4BD657"/>
<path d="M73.0335 91.6173C73.0921 91.6171 73.1507 91.6211 73.2087 91.6295L160.523 104.372C160.678 104.395 160.827 104.448 160.962 104.528C161.097 104.609 161.214 104.715 161.308 104.841C161.402 104.967 161.469 105.11 161.508 105.262C161.546 105.414 161.554 105.572 161.531 105.728L161.495 105.982C161.473 106.137 161.421 106.287 161.341 106.423C161.26 106.558 161.154 106.676 161.028 106.77C160.902 106.864 160.758 106.932 160.606 106.969C160.453 107.007 160.294 107.014 160.139 106.99L72.825 94.2481C72.6698 94.2253 72.5205 94.1722 72.3858 94.0918C72.251 94.0114 72.1334 93.9052 72.0398 93.7793C71.9461 93.6534 71.878 93.5102 71.8396 93.3581C71.8013 93.2059 71.7934 93.0476 71.8162 92.8924L71.853 92.6402C71.8942 92.3563 72.0361 92.0968 72.2529 91.909C72.4696 91.7212 72.7467 91.6177 73.0335 91.6173ZM73.0335 91.0918C72.6212 91.0939 72.223 91.2433 71.9111 91.5131C71.5992 91.7829 71.3942 92.1553 71.3328 92.5631L71.2959 92.8171C71.2302 93.2685 71.3466 93.7276 71.6191 94.0934C71.8917 94.4593 72.2984 94.702 72.7498 94.7683L160.064 107.511C160.147 107.523 160.23 107.53 160.314 107.53C160.727 107.527 161.125 107.378 161.436 107.108C161.748 106.837 161.953 106.465 162.015 106.057L162.052 105.803C162.084 105.579 162.073 105.352 162.017 105.132C161.962 104.913 161.864 104.707 161.729 104.526C161.594 104.345 161.425 104.192 161.231 104.076C161.036 103.961 160.821 103.884 160.598 103.852L73.284 91.1093C73.201 91.0973 73.1173 91.0915 73.0335 91.0918Z" fill="black"/>
<path d="M83.4424 132.73H60.6147C59.8834 132.73 59.2906 133.323 59.2906 134.054C59.2906 134.785 59.8834 135.377 60.6147 135.377H83.4424C84.1737 135.377 84.7667 134.785 84.7667 134.054C84.7667 133.323 84.1737 132.73 83.4424 132.73Z" fill="#382256"/>
<path d="M83.4434 132.729C83.6212 132.723 83.7985 132.752 83.9647 132.816C84.1309 132.88 84.2825 132.976 84.4106 133.1C84.5387 133.223 84.6407 133.371 84.7103 133.535C84.7799 133.699 84.8157 133.875 84.8157 134.053C84.8157 134.231 84.7799 134.407 84.7103 134.571C84.6407 134.734 84.5387 134.882 84.4106 135.006C84.2825 135.129 84.1309 135.226 83.9647 135.289C83.7985 135.353 83.6212 135.383 83.4434 135.376H60.6139C60.2713 135.364 59.9469 135.219 59.7089 134.972C59.4709 134.725 59.3379 134.396 59.3379 134.053C59.3379 133.71 59.4709 133.38 59.7089 133.134C59.9469 132.887 60.2713 132.742 60.6139 132.729H83.4434ZM83.4434 132.204H60.6139C60.1335 132.219 59.6777 132.42 59.343 132.765C59.0084 133.11 58.8212 133.572 58.8212 134.053C58.8212 134.533 59.0084 134.995 59.343 135.34C59.6777 135.685 60.1335 135.887 60.6139 135.902H83.4434C83.6909 135.909 83.9375 135.867 84.1684 135.777C84.3994 135.688 84.6102 135.553 84.788 135.381C84.9658 135.208 85.1071 135.002 85.2036 134.774C85.3002 134.546 85.3499 134.3 85.3499 134.053C85.3499 133.805 85.3002 133.56 85.2036 133.332C85.1071 133.104 84.9658 132.897 84.788 132.725C84.6102 132.553 84.3994 132.418 84.1684 132.328C83.9375 132.239 83.6909 132.196 83.4434 132.204Z" fill="#1D1E1B"/>
<path d="M114.874 142.636V100.473C114.862 100.131 114.717 99.8062 114.47 99.5682C114.223 99.3302 113.894 99.1973 113.551 99.1973C113.208 99.1973 112.878 99.3302 112.632 99.5682C112.385 99.8062 112.24 100.131 112.227 100.473V142.61C107.402 143.123 103.596 146.593 103.149 151.459L123.807 151.956C123.59 149.622 122.589 147.43 120.967 145.737C119.345 144.045 117.197 142.952 114.874 142.636Z" fill="#382256"/>
<path d="M113.55 99.1524C113.724 99.1522 113.896 99.1862 114.057 99.2526C114.217 99.3189 114.363 99.4163 114.486 99.5391C114.609 99.662 114.707 99.8078 114.773 99.9684C114.84 100.129 114.874 100.301 114.874 100.475V142.638C117.197 142.953 119.345 144.047 120.967 145.739C122.589 147.431 123.59 149.623 123.807 151.958L103.15 151.46C103.596 146.594 107.402 143.125 112.228 142.611V100.475C112.228 100.124 112.367 99.7878 112.615 99.5398C112.863 99.2918 113.199 99.1524 113.55 99.1524ZM113.55 98.627C113.06 98.6274 112.59 98.8223 112.244 99.1687C111.898 99.5151 111.703 99.9849 111.702 100.475V142.149C109.447 142.464 107.345 143.468 105.682 145.023C103.917 146.708 102.83 148.981 102.626 151.413L102.575 151.972L103.137 151.986L123.795 152.481L124.385 152.497L124.331 151.909C124.109 149.534 123.116 147.298 121.503 145.543C119.889 143.787 117.745 142.608 115.398 142.188V100.475C115.397 99.9847 115.202 99.515 114.855 99.1686C114.508 98.8222 114.038 98.6274 113.548 98.627H113.55Z" fill="#1D1E1B"/>
<path d="M166.984 150.594H144.157C143.425 150.594 142.833 151.186 142.833 151.917C142.833 152.648 143.425 153.24 144.157 153.24H166.984C167.716 153.24 168.308 152.648 168.308 151.917C168.308 151.186 167.716 150.594 166.984 150.594Z" fill="#382256"/>
<path d="M166.985 150.593C167.327 150.605 167.652 150.75 167.89 150.997C168.128 151.244 168.261 151.573 168.261 151.916C168.261 152.259 168.128 152.588 167.89 152.835C167.652 153.082 167.327 153.227 166.985 153.239H144.155C143.977 153.246 143.8 153.216 143.634 153.153C143.468 153.089 143.316 152.993 143.188 152.869C143.06 152.746 142.958 152.598 142.888 152.434C142.819 152.27 142.783 152.094 142.783 151.916C142.783 151.738 142.819 151.562 142.888 151.398C142.958 151.234 143.06 151.086 143.188 150.963C143.316 150.839 143.468 150.743 143.634 150.679C143.8 150.616 143.977 150.586 144.155 150.593H166.985ZM166.985 150.067H144.155C143.908 150.06 143.661 150.102 143.43 150.191C143.199 150.281 142.989 150.416 142.811 150.588C142.633 150.761 142.492 150.967 142.395 151.195C142.298 151.423 142.249 151.668 142.249 151.916C142.249 152.164 142.298 152.409 142.395 152.637C142.492 152.865 142.633 153.071 142.811 153.244C142.989 153.416 143.199 153.551 143.43 153.641C143.661 153.73 143.908 153.772 144.155 153.765H166.985C167.465 153.75 167.921 153.549 168.256 153.204C168.59 152.859 168.777 152.397 168.777 151.916C168.777 151.435 168.59 150.974 168.256 150.628C167.921 150.283 167.465 150.082 166.985 150.067Z" fill="#1D1E1B"/>
<path d="M122.237 150.864C122.165 150.864 122.096 150.843 122.037 150.802C121.979 150.762 121.934 150.705 121.909 150.638C119.541 144.324 113.698 143.93 113.449 143.916C113.357 143.911 113.27 143.869 113.209 143.8C113.147 143.731 113.115 143.641 113.12 143.548C113.125 143.456 113.166 143.369 113.235 143.307C113.304 143.245 113.395 143.212 113.488 143.217C113.552 143.217 120.031 143.638 122.564 150.399C122.58 150.442 122.588 150.488 122.586 150.534C122.585 150.58 122.574 150.625 122.555 150.667C122.536 150.709 122.509 150.747 122.475 150.778C122.442 150.81 122.402 150.834 122.359 150.85C122.319 150.862 122.278 150.867 122.237 150.864Z" fill="white"/>
<path d="M77.7467 125.246C78.6164 125.246 79.3212 124.54 79.3212 123.668C79.3212 122.796 78.6164 122.09 77.7467 122.09C76.8771 122.09 76.1721 122.796 76.1721 123.668C76.1721 124.54 76.8771 125.246 77.7467 125.246Z" fill="#51CEF4"/>
<path d="M65.2705 132.246C67.4596 132.246 69.2342 130.468 69.2342 128.275C69.2342 126.082 67.4596 124.305 65.2705 124.305C63.0814 124.305 61.3068 126.082 61.3068 128.275C61.3068 130.468 63.0814 132.246 65.2705 132.246Z" fill="white"/>
<path d="M65.2714 132.496C64.4365 132.497 63.6199 132.251 62.9251 131.788C62.2303 131.325 61.6884 130.666 61.368 129.895C61.0477 129.124 60.9632 128.276 61.1253 127.457C61.2875 126.638 61.6889 125.885 62.2789 125.294C62.8689 124.704 63.6209 124.301 64.4397 124.138C65.2585 123.975 66.1073 124.058 66.8787 124.378C67.6501 124.697 68.3093 125.238 68.7731 125.932C69.2368 126.627 69.4841 127.443 69.4838 128.278C69.4838 129.396 69.0402 130.468 68.2503 131.258C67.4605 132.049 66.389 132.494 65.2714 132.496ZM65.2714 124.556C64.535 124.555 63.815 124.772 63.2022 125.181C62.5894 125.589 62.1115 126.17 61.829 126.85C61.5465 127.53 61.472 128.278 61.615 129.001C61.7581 129.723 62.1121 130.387 62.6324 130.908C63.1528 131.429 63.8159 131.784 64.5381 131.928C65.2602 132.072 66.0088 131.999 66.6892 131.717C67.3696 131.435 67.9513 130.958 68.3605 130.346C68.7697 129.734 68.9881 129.014 68.9881 128.278C68.9881 127.292 68.5967 126.346 67.8999 125.648C67.203 124.95 66.2576 124.557 65.2714 124.556Z" fill="black"/>
<path d="M62.4326 127.018C62.1648 127.559 62.1061 128.18 62.2677 128.762C62.4293 129.344 62.7999 129.845 63.3084 130.171C63.3648 130.198 63.4296 130.203 63.4895 130.185C63.5494 130.166 63.6002 130.126 63.6317 130.072C63.6631 130.017 63.6728 129.953 63.659 129.892C63.6452 129.831 63.6088 129.777 63.5571 129.742C63.1617 129.483 62.8738 129.09 62.7468 128.635C62.6199 128.18 62.6626 127.694 62.8671 127.269C62.8988 127.211 62.9073 127.144 62.8907 127.081C62.874 127.017 62.8336 126.963 62.7778 126.929C62.7209 126.897 62.6536 126.888 62.5905 126.905C62.5273 126.921 62.4732 126.962 62.4396 127.018H62.4326Z" fill="black"/>
<path d="M66.6951 126.403C67.0305 126.617 67.304 126.915 67.4884 127.267C67.6728 127.62 67.7616 128.014 67.746 128.412C67.7359 128.673 67.6765 128.93 67.5709 129.168C67.5395 129.226 67.5313 129.293 67.548 129.356C67.5646 129.419 67.6047 129.474 67.6602 129.508C67.7172 129.541 67.7849 129.55 67.8485 129.533C67.9121 129.516 67.9664 129.475 68 129.419C68.2091 128.947 68.2821 128.426 68.2109 127.915C68.1398 127.403 67.9272 126.922 67.5972 126.525C67.4161 126.307 67.1987 126.12 66.9544 125.975C66.9264 125.959 66.8953 125.948 66.8631 125.944C66.8309 125.939 66.7981 125.941 66.7666 125.949C66.703 125.966 66.6486 126.007 66.6154 126.064C66.5822 126.121 66.573 126.188 66.5896 126.252C66.6062 126.315 66.6472 126.37 66.7038 126.403H66.6951Z" fill="black"/>
<path d="M64.5829 126.567L63.7562 128.707C63.739 128.771 63.7477 128.839 63.7805 128.897C63.8133 128.954 63.8676 128.996 63.9314 129.014L66.1908 129.589C66.238 129.6 66.2874 129.597 66.3331 129.581C66.3788 129.564 66.4189 129.535 66.4485 129.497C66.4781 129.458 66.4958 129.412 66.4998 129.364C66.5038 129.315 66.4939 129.267 66.4711 129.224L65.1521 126.648C65.1189 126.591 65.0647 126.55 65.0015 126.534C64.9382 126.517 64.8708 126.526 64.814 126.558C64.7582 126.593 64.7177 126.647 64.7011 126.71C64.6845 126.774 64.6929 126.841 64.7247 126.898L66.0419 129.475L66.3221 129.11L64.0627 128.536L64.2379 128.841L65.0646 126.7C65.0758 126.668 65.0804 126.634 65.0779 126.6C65.0755 126.566 65.0661 126.533 65.0504 126.503C65.0346 126.473 65.0129 126.446 64.9864 126.425C64.9599 126.403 64.9294 126.387 64.8966 126.378C64.8638 126.369 64.8294 126.367 64.7957 126.371C64.762 126.376 64.7297 126.388 64.7006 126.405C64.6715 126.423 64.6463 126.447 64.6267 126.474C64.6071 126.502 64.5933 126.534 64.5863 126.567H64.5829Z" fill="black"/>
<path d="M72.9086 133.012C74.9658 132.252 76.0188 129.972 75.2604 127.918C74.502 125.865 72.2194 124.816 70.1622 125.576C68.1051 126.335 67.0522 128.616 67.8106 130.669C68.569 132.723 70.8515 133.772 72.9086 133.012Z" fill="white"/>
<path d="M67.5997 130.898C67.3089 130.115 67.2568 129.264 67.45 128.452C67.6433 127.64 68.0732 126.903 68.6853 126.335C69.2974 125.767 70.0643 125.394 70.8888 125.262C71.7132 125.13 72.5583 125.246 73.317 125.595C74.0756 125.943 74.7137 126.509 75.1506 127.221C75.5875 127.932 75.8034 128.757 75.7712 129.592C75.7389 130.426 75.4598 131.232 74.9693 131.908C74.4787 132.583 73.7987 133.098 73.0154 133.387C71.9671 133.773 70.8084 133.728 69.7932 133.262C68.778 132.795 67.9893 131.945 67.5997 130.898ZM75.049 128.148C74.7952 127.457 74.342 126.856 73.7468 126.423C73.1516 125.989 72.4412 125.742 71.7054 125.712C70.9695 125.682 70.2415 125.872 69.6133 126.256C68.985 126.64 68.4849 127.202 68.1761 127.871C67.8673 128.539 67.7638 129.284 67.8787 130.012C67.9935 130.739 68.3216 131.416 68.8213 131.957C69.321 132.498 69.9699 132.878 70.6859 133.05C71.402 133.222 72.153 133.178 72.8438 132.923C73.7699 132.582 74.523 131.888 74.9378 130.993C75.3526 130.098 75.395 129.075 75.056 128.148H75.049Z" fill="black"/>
<path d="M71.755 126.336C71.1555 126.272 70.5533 126.431 70.0635 126.782C69.5736 127.134 69.2305 127.653 69.0996 128.242C69.0932 128.305 69.1106 128.367 69.1485 128.417C69.1864 128.467 69.2421 128.501 69.304 128.512C69.3659 128.523 69.4297 128.51 69.4824 128.476C69.5351 128.442 69.573 128.389 69.5883 128.328C69.6937 127.868 69.9626 127.461 70.345 127.185C70.7274 126.908 71.1973 126.779 71.6674 126.823C71.7319 126.833 71.7979 126.818 71.8516 126.781C71.9053 126.744 71.9427 126.687 71.9563 126.624C71.967 126.559 71.952 126.492 71.9144 126.439C71.8767 126.385 71.8195 126.348 71.755 126.336Z" fill="black"/>
<path d="M73.8073 130.111C73.7016 130.634 73.4074 131.099 72.9806 131.418C72.771 131.582 72.5337 131.707 72.28 131.788C72.0316 131.868 71.7699 131.901 71.5093 131.884C71.4447 131.875 71.3791 131.89 71.3257 131.928C71.2723 131.965 71.2352 132.022 71.2221 132.085C71.2109 132.15 71.2257 132.217 71.2635 132.271C71.3012 132.325 71.3587 132.361 71.4234 132.373C71.9385 132.405 72.4524 132.293 72.9072 132.049C73.3621 131.805 73.7398 131.439 73.9982 130.993C74.141 130.747 74.2405 130.478 74.2924 130.199C74.2996 130.136 74.2827 130.073 74.245 130.022C74.2072 129.971 74.1514 129.937 74.0892 129.926C74.0269 129.915 73.9628 129.928 73.9097 129.962C73.8567 129.997 73.8187 130.05 73.8037 130.111H73.8073Z" fill="black"/>
<path d="M72.919 128.199L70.6246 128.166C70.5593 128.172 70.4992 128.204 70.4569 128.254C70.4147 128.304 70.3937 128.369 70.3986 128.434L70.642 130.753C70.6477 130.801 70.6672 130.847 70.6983 130.884C70.7294 130.921 70.7706 130.949 70.817 130.963C70.8634 130.977 70.913 130.978 70.9597 130.964C71.0063 130.951 71.0481 130.925 71.0799 130.888L73.0399 128.76C73.0605 128.735 73.076 128.706 73.0854 128.675C73.0949 128.644 73.098 128.611 73.0948 128.579C73.0917 128.547 73.0821 128.515 73.0668 128.487C73.0515 128.458 73.0308 128.433 73.0057 128.412C72.9807 128.391 72.9518 128.376 72.9207 128.367C72.8897 128.357 72.857 128.354 72.8248 128.357C72.7925 128.36 72.7612 128.37 72.7326 128.385C72.704 128.4 72.6786 128.421 72.658 128.446L70.6981 130.574L71.136 130.711L70.8926 128.392L70.6666 128.66L72.9611 128.693C73.0263 128.687 73.0865 128.655 73.1287 128.605C73.171 128.555 73.1919 128.491 73.187 128.425C73.18 128.36 73.1482 128.301 73.0983 128.259C73.0484 128.217 72.9842 128.195 72.919 128.199Z" fill="black"/>
<path d="M81.9681 132.223C83.0467 130.319 82.3741 127.898 80.4658 126.818C78.5576 125.737 76.1362 126.406 75.0575 128.31C73.9789 130.215 74.6514 132.636 76.5597 133.716C78.468 134.797 80.8894 134.128 81.9681 132.223Z" fill="white"/>
<path d="M82.1752 132.34C81.7652 133.068 81.1485 133.657 80.4035 134.034C79.6584 134.41 78.8182 134.558 77.9895 134.457C77.1607 134.356 76.3804 134.011 75.7475 133.467C75.1146 132.922 74.6575 132.202 74.434 131.398C74.2106 130.593 74.2307 129.741 74.492 128.948C74.7533 128.155 75.244 127.457 75.902 126.943C76.5599 126.429 77.3556 126.122 78.1882 126.06C79.0208 125.999 79.853 126.186 80.5795 126.597C81.5518 127.148 82.2658 128.062 82.565 129.139C82.8641 130.215 82.724 131.367 82.1752 132.34ZM75.2653 128.427C74.9016 129.068 74.736 129.802 74.7895 130.536C74.843 131.271 75.1131 131.973 75.5657 132.554C76.0184 133.134 76.6331 133.568 77.3323 133.799C78.0314 134.031 78.7835 134.049 79.4933 133.853C80.2031 133.657 80.8387 133.255 81.3198 132.697C81.8008 132.139 82.1057 131.452 82.1957 130.721C82.2857 129.99 82.1569 129.249 81.8255 128.591C81.4942 127.933 80.9752 127.389 80.3342 127.026C79.476 126.541 78.4604 126.416 77.51 126.678C76.5597 126.941 75.7523 127.57 75.2653 128.427Z" fill="black"/>
<path d="M76.0126 132.11C76.3506 132.609 76.8608 132.967 77.4457 133.114C78.0305 133.261 78.6489 133.187 79.1828 132.907C79.4613 132.751 79.2109 132.324 78.9324 132.48C78.5126 132.696 78.0284 132.753 77.5699 132.639C77.1113 132.526 76.7099 132.249 76.4401 131.861C76.4062 131.806 76.3521 131.765 76.289 131.749C76.226 131.732 76.1589 131.74 76.1019 131.772C76.0455 131.805 76.0045 131.859 75.9878 131.923C75.9711 131.986 75.98 132.053 76.0126 132.11Z" fill="black"/>
<path d="M77.577 128.098C78.0435 127.842 78.5877 127.767 79.1062 127.886C79.3665 127.939 79.615 128.039 79.84 128.18C80.0617 128.318 80.2556 128.496 80.4111 128.706C80.4456 128.761 80.5 128.801 80.5632 128.818C80.6263 128.835 80.6935 128.827 80.7508 128.795C80.8072 128.762 80.8482 128.708 80.8649 128.644C80.8816 128.581 80.8727 128.514 80.8401 128.457C80.5323 128.043 80.115 127.723 79.635 127.533C79.1551 127.343 78.6315 127.29 78.1235 127.382C77.8432 127.43 77.5736 127.528 77.3266 127.669C77.273 127.704 77.2348 127.758 77.22 127.82C77.2052 127.882 77.215 127.948 77.2472 128.003C77.2794 128.058 77.3317 128.099 77.3931 128.117C77.4545 128.134 77.5203 128.128 77.577 128.098Z" fill="black"/>
<path d="M76.68 130.018L78.1356 131.792C78.1824 131.838 78.2453 131.864 78.3108 131.864C78.3762 131.864 78.4391 131.838 78.4859 131.792L80.0991 130.109C80.1322 130.074 80.1543 130.03 80.163 129.983C80.1717 129.935 80.1667 129.886 80.1482 129.841C80.1297 129.797 80.0987 129.759 80.0589 129.731C80.0191 129.704 79.9722 129.688 79.9239 129.687L77.0322 129.564C76.9998 129.565 76.9677 129.572 76.9379 129.585C76.9082 129.597 76.8812 129.616 76.8586 129.639C76.836 129.663 76.818 129.69 76.8061 129.72C76.7941 129.75 76.7882 129.783 76.7886 129.815C76.7904 129.88 76.8177 129.942 76.8644 129.988C76.9111 130.034 76.9738 130.06 77.0392 130.06L79.9309 130.183L79.7558 129.759L78.1426 131.442H78.4929L77.0373 129.668C76.9905 129.622 76.9276 129.596 76.8622 129.596C76.7967 129.596 76.7338 129.622 76.687 129.668C76.6424 129.715 76.6177 129.778 76.6177 129.843C76.6177 129.908 76.6424 129.971 76.687 130.018H76.68Z" fill="black"/>
<path d="M73.1981 124.606C74.2767 122.701 73.6041 120.281 71.6959 119.201C69.7876 118.12 67.3662 118.789 66.2876 120.693C65.209 122.598 65.8815 125.019 67.7898 126.099C69.6981 127.18 72.1195 126.511 73.1981 124.606Z" fill="white"/>
<path d="M73.4067 124.722C72.9966 125.449 72.3802 126.038 71.6355 126.414C70.8907 126.79 70.0511 126.937 69.2229 126.836C68.3946 126.735 67.6148 126.391 66.9823 125.846C66.3498 125.302 65.893 124.582 65.6697 123.778C65.4463 122.974 65.4664 122.122 65.7275 121.33C65.9886 120.537 66.479 119.84 67.1364 119.326C67.7939 118.812 68.589 118.505 69.4211 118.443C70.2532 118.381 71.085 118.568 71.8112 118.979C72.7835 119.53 73.4974 120.444 73.7965 121.521C74.0957 122.597 73.9555 123.749 73.4067 124.722ZM66.4969 120.809C66.1343 121.449 65.9698 122.183 66.0239 122.917C66.078 123.651 66.3485 124.352 66.801 124.932C67.2535 125.512 67.8678 125.945 68.5664 126.177C69.2649 126.408 70.0162 126.427 70.7255 126.231C71.4348 126.035 72.0702 125.634 72.5515 125.077C73.0327 124.521 73.3382 123.834 73.4293 123.104C73.5203 122.373 73.3928 121.633 73.0631 120.975C72.7333 120.317 72.2159 119.772 71.5763 119.408C71.1508 119.166 70.6819 119.011 70.1963 118.951C69.7107 118.89 69.2182 118.926 68.7465 119.056C68.2748 119.187 67.8333 119.408 67.4474 119.709C67.0614 120.01 66.7383 120.384 66.4969 120.809Z" fill="black"/>
<path d="M67.2429 124.504C67.5809 125.003 68.0909 125.36 68.6758 125.507C69.2606 125.654 69.8791 125.581 70.4131 125.3C70.6916 125.145 70.4412 124.715 70.1627 124.871C69.7434 125.088 69.2595 125.145 68.8013 125.032C68.3431 124.918 67.9416 124.642 67.6719 124.255C67.6377 124.199 67.5834 124.158 67.5202 124.142C67.457 124.125 67.3897 124.133 67.3322 124.164C67.2757 124.197 67.2346 124.252 67.2179 124.315C67.2012 124.379 67.2102 124.446 67.2429 124.504Z" fill="black"/>
<path d="M68.8079 120.483C69.1594 120.298 69.5532 120.208 69.9502 120.222C70.3471 120.236 70.7335 120.354 71.0709 120.563C71.2922 120.702 71.4858 120.88 71.6418 121.089C71.6761 121.145 71.7303 121.185 71.7935 121.202C71.8568 121.219 71.9242 121.211 71.9817 121.18C72.0382 121.146 72.0792 121.092 72.096 121.028C72.1127 120.965 72.1037 120.897 72.071 120.84C71.7633 120.426 71.3459 120.105 70.866 119.915C70.386 119.725 69.8624 119.673 69.3544 119.765C69.0747 119.815 68.8057 119.912 68.5592 120.054C68.5075 120.089 68.4711 120.143 68.4573 120.204C68.4434 120.265 68.4534 120.329 68.4848 120.383C68.5162 120.438 68.5668 120.478 68.6268 120.497C68.6867 120.515 68.7514 120.51 68.8079 120.483Z" fill="black"/>
<path d="M67.9128 122.399L69.3684 124.173C69.4152 124.219 69.4781 124.245 69.5436 124.245C69.6091 124.245 69.6719 124.219 69.7187 124.173L71.3319 122.49C71.365 122.455 71.3872 122.411 71.3959 122.363C71.4046 122.316 71.3993 122.267 71.3808 122.222C71.3623 122.178 71.3313 122.139 71.2915 122.112C71.2518 122.085 71.205 122.069 71.1567 122.068L68.265 121.945C68.1998 121.947 68.1377 121.974 68.0922 122.021C68.0468 122.068 68.0214 122.131 68.0214 122.196C68.0237 122.261 68.0512 122.323 68.0982 122.369C68.1452 122.415 68.2082 122.441 68.2737 122.441L71.1638 122.564L70.9886 122.14L69.3736 123.823H69.7239L68.2684 122.049C68.2216 122.003 68.1588 121.977 68.0933 121.977C68.0278 121.977 67.9649 122.003 67.9181 122.049C67.8731 122.096 67.848 122.159 67.848 122.224C67.848 122.289 67.8731 122.352 67.9181 122.399H67.9128Z" fill="black"/>
<path d="M77.5199 126.888C79.5511 126.071 80.5347 123.76 79.7167 121.725C78.8988 119.691 76.589 118.703 74.5579 119.52C72.5268 120.336 71.5433 122.647 72.3612 124.682C73.1792 126.717 75.4888 127.704 77.5199 126.888Z" fill="white"/>
<path d="M74.4542 119.228C75.228 118.916 76.0769 118.84 76.8937 119.011C77.7105 119.181 78.4582 119.59 79.0426 120.186C79.6269 120.781 80.0217 121.537 80.1766 122.356C80.3316 123.176 80.2398 124.024 79.913 124.791C79.5863 125.559 79.0392 126.213 78.3409 126.669C77.6427 127.126 76.8247 127.365 75.9904 127.357C75.1561 127.349 74.3429 127.093 73.6539 126.623C72.9648 126.152 72.4309 125.488 72.1194 124.714C71.7026 123.677 71.7143 122.517 72.1521 121.488C72.5898 120.46 73.4178 119.647 74.4542 119.228ZM77.4161 126.595C78.0998 126.322 78.687 125.851 79.1033 125.244C79.5197 124.636 79.7464 123.919 79.755 123.183C79.7636 122.446 79.5535 121.724 79.1514 121.107C78.7492 120.49 78.1731 120.006 77.496 119.717C76.8188 119.428 76.0711 119.346 75.3473 119.481C74.6235 119.617 73.9561 119.964 73.4298 120.48C72.9035 120.995 72.542 121.654 72.3907 122.375C72.2394 123.096 72.3053 123.845 72.58 124.528C72.9463 125.445 73.6614 126.178 74.5683 126.567C75.4752 126.957 76.4995 126.97 77.4161 126.604V126.595Z" fill="black"/>
<path d="M79.1299 123.252C79.1774 122.651 79.0016 122.053 78.6361 121.573C78.2707 121.093 77.7412 120.765 77.1489 120.651C77.0864 120.647 77.0246 120.666 76.9758 120.705C76.9269 120.744 76.8947 120.8 76.8855 120.862C76.8762 120.924 76.8904 120.987 76.9257 121.039C76.9609 121.091 77.0143 121.127 77.0753 121.141C77.5388 121.234 77.9529 121.491 78.2407 121.866C78.5284 122.24 78.6703 122.707 78.6396 123.178C78.6351 123.241 78.6543 123.303 78.6934 123.352C78.7326 123.4 78.7887 123.433 78.8506 123.442C78.9125 123.451 78.9757 123.437 79.0275 123.402C79.0792 123.366 79.1159 123.313 79.1299 123.252Z" fill="black"/>
<path d="M75.4084 125.411C75.0182 125.337 74.6544 125.161 74.353 124.903C74.0516 124.644 73.8231 124.311 73.6902 123.937C73.6021 123.691 73.5615 123.43 73.571 123.169C73.5787 123.104 73.5611 123.039 73.522 122.987C73.483 122.934 73.4252 122.899 73.3608 122.887C73.2959 122.878 73.2301 122.894 73.1776 122.934C73.125 122.973 73.0901 123.031 73.0806 123.096C73.0626 123.612 73.189 124.122 73.4456 124.57C73.7021 125.018 74.0786 125.385 74.5326 125.63C74.7824 125.766 75.0538 125.858 75.3348 125.902C75.3973 125.906 75.4591 125.887 75.5079 125.848C75.5568 125.809 75.5891 125.752 75.5984 125.691C75.6077 125.629 75.5932 125.566 75.558 125.514C75.5228 125.462 75.4694 125.425 75.4084 125.411Z" fill="black"/>
<path d="M77.3015 124.47L77.27 122.175C77.2621 122.11 77.2289 122.051 77.1775 122.01C77.126 121.969 77.0603 121.95 76.9949 121.956L74.6848 122.266C74.6367 122.274 74.5916 122.295 74.5551 122.327C74.5186 122.359 74.4923 122.401 74.4792 122.448C74.466 122.495 74.4666 122.544 74.4811 122.591C74.4955 122.637 74.5231 122.678 74.5604 122.71L76.7445 124.608C76.7705 124.628 76.8001 124.643 76.8318 124.652C76.8635 124.661 76.8967 124.663 76.9293 124.659C76.9618 124.654 76.9932 124.644 77.0216 124.627C77.0501 124.611 77.0749 124.589 77.0948 124.563C77.1353 124.51 77.1533 124.444 77.1451 124.379C77.1369 124.313 77.1031 124.253 77.0511 124.212L74.8686 122.314L74.7443 122.755L77.0546 122.447L76.7813 122.228L76.8128 124.522C76.8207 124.587 76.8537 124.647 76.9048 124.688C76.9559 124.729 77.021 124.748 77.0861 124.741C77.151 124.733 77.21 124.699 77.2508 124.648C77.2916 124.597 77.3111 124.532 77.3051 124.466L77.3015 124.47Z" fill="black"/>
<path d="M151.423 128.189C151.423 128.189 137.295 142.037 143.592 149.908L167.171 150.527C167.171 150.527 173.262 143.125 161.215 129.347C161.215 129.347 164.298 127.159 164.699 123.392C164.699 123.392 161.58 121.194 159.126 122.49C156.672 123.786 150.738 119.397 149.799 120.582C149.81 120.581 155.276 125.411 151.423 128.189Z" fill="#4BD657"/>
<path d="M150.356 120.372C151.869 120.372 155.61 122.728 158.012 122.728C158.401 122.741 158.787 122.658 159.136 122.487C159.672 122.21 160.269 122.069 160.872 122.077C162.85 122.077 164.71 123.389 164.71 123.389C164.309 127.16 161.226 129.344 161.226 129.344C173.266 143.121 167.181 150.523 167.181 150.523L143.602 149.905C137.305 142.023 151.433 128.186 151.433 128.186C155.286 125.413 149.816 120.583 149.816 120.583C149.885 120.509 149.971 120.451 150.065 120.415C150.16 120.38 150.262 120.366 150.363 120.376L150.356 120.372ZM150.363 119.851C150.183 119.838 150.002 119.868 149.836 119.939C149.669 120.009 149.522 120.117 149.405 120.255L149.096 120.646L149.47 120.975C149.498 121.001 152.393 123.594 152.272 125.85C152.233 126.604 151.857 127.23 151.118 127.76L151.086 127.783L151.058 127.811C148.656 130.242 146.524 132.928 144.702 135.819C143.073 138.447 142.045 140.899 141.645 143.099C141.132 145.917 141.645 148.318 143.185 150.24L143.337 150.431H143.581L167.16 151.049H167.416L167.579 150.851C167.647 150.769 169.222 148.812 169.241 145.095C169.251 142.95 168.738 140.646 167.717 138.252C166.51 135.42 164.58 132.446 161.979 129.405C162.893 128.612 164.901 126.541 165.232 123.434L165.265 123.128L165.013 122.953C164.93 122.895 162.991 121.551 160.872 121.551C160.183 121.544 159.503 121.705 158.891 122.022C158.617 122.15 158.317 122.211 158.015 122.198C156.779 122.198 155.071 121.486 153.566 120.858C152.262 120.313 151.133 119.842 150.359 119.842L150.363 119.851Z" fill="black"/>
<path d="M161.504 136.745C161.44 136.745 161.379 136.722 161.331 136.68C161.283 136.638 161.253 136.58 161.244 136.517C161.129 135.625 160.81 134.811 160.502 134.021C159.934 132.566 159.391 131.18 160.656 130.04C156.186 131.07 151.995 127.852 151.799 127.7C151.743 127.657 151.708 127.594 151.699 127.524C151.691 127.455 151.71 127.385 151.753 127.33C151.796 127.275 151.859 127.239 151.928 127.231C151.998 127.222 152.067 127.242 152.122 127.285C152.172 127.323 156.801 130.872 161.306 129.304C161.169 129.134 161.062 128.942 160.987 128.737C160.425 127.187 161.302 125.74 162.309 124.904C163.317 124.069 164.534 123.766 165.276 124.204C165.466 124.31 165.623 124.467 165.729 124.657C165.835 124.848 165.886 125.063 165.875 125.281C165.865 126.092 165.175 127.173 164.112 128.187C165.709 127.677 166.951 127.612 167.878 127.984C168.625 128.285 169.156 128.859 169.503 129.735C169.556 129.858 169.574 129.992 169.554 130.124C169.535 130.256 169.48 130.381 169.394 130.483C168.811 131.201 166.73 131.276 164.975 130.979C164.261 130.858 162.849 130.543 161.884 129.84L161.684 129.954C159.873 130.958 160.318 132.098 160.983 133.823C161.288 134.603 161.633 135.487 161.756 136.45C161.761 136.485 161.758 136.519 161.75 136.553C161.741 136.586 161.725 136.617 161.704 136.645C161.683 136.672 161.657 136.695 161.627 136.712C161.597 136.729 161.564 136.74 161.53 136.745H161.504ZM162.379 129.546C163.017 129.956 163.944 130.278 165.07 130.467C166.996 130.795 168.655 130.572 168.991 130.159C169.018 130.128 169.035 130.09 169.04 130.05C169.045 130.01 169.037 129.969 169.018 129.933C168.729 129.192 168.293 128.707 167.687 128.472C166.636 128.054 165.026 128.297 162.868 129.213C162.705 129.327 162.541 129.439 162.374 129.546H162.379ZM164.464 124.523C163.938 124.523 163.259 124.803 162.649 125.307C161.773 126.031 161.017 127.264 161.486 128.558C161.564 128.761 161.684 128.945 161.836 129.099L161.959 129.045C162.183 128.942 162.404 128.844 162.618 128.752C164.194 127.614 165.348 126.195 165.361 125.274C165.368 125.148 165.339 125.023 165.277 124.913C165.214 124.804 165.122 124.714 165.01 124.656C164.842 124.562 164.651 124.516 164.458 124.523H164.464Z" fill="#1D1D1B"/>
<path d="M157.185 130.076C157.154 130.077 157.123 130.071 157.093 130.061C157.061 130.049 157.031 130.031 157.006 130.007C156.98 129.984 156.96 129.955 156.945 129.924C156.931 129.893 156.923 129.859 156.921 129.824C156.92 129.79 156.926 129.755 156.938 129.723C157.719 127.621 155.389 125.135 155.361 125.111C155.315 125.06 155.291 124.993 155.294 124.925C155.296 124.857 155.325 124.792 155.375 124.744C155.424 124.697 155.49 124.671 155.559 124.672C155.627 124.673 155.693 124.7 155.741 124.748C155.848 124.859 158.323 127.489 157.426 129.905C157.408 129.955 157.376 129.998 157.332 130.029C157.289 130.059 157.238 130.076 157.185 130.076Z" fill="#1D1D1B"/>
<path d="M158.674 130.233C158.621 130.232 158.569 130.216 158.526 130.186C158.482 130.156 158.449 130.113 158.43 130.064C158.411 130.015 158.407 129.961 158.42 129.909C158.432 129.858 158.459 129.811 158.499 129.776C159.8 128.602 159.702 125.733 159.7 125.705C159.697 125.635 159.722 125.567 159.77 125.516C159.817 125.465 159.883 125.435 159.952 125.432C160.022 125.429 160.09 125.454 160.141 125.501C160.192 125.549 160.223 125.614 160.226 125.684C160.226 125.812 160.334 128.828 158.851 130.164C158.802 130.208 158.739 130.233 158.674 130.233Z" fill="#1D1D1B"/>
<path d="M154.751 146.439C153.828 146.439 152.751 146.104 151.598 145.435C151.541 145.399 151.5 145.342 151.484 145.276C151.467 145.209 151.478 145.14 151.512 145.081C151.546 145.022 151.602 144.979 151.667 144.96C151.733 144.942 151.803 144.949 151.863 144.982C153.98 146.208 155.716 146.239 156.615 145.057C157.417 144.006 157.251 142.284 156.249 141.3C155.341 140.408 154.453 140.202 153.669 140.02C152.642 139.781 151.758 139.575 151.777 137.82C151.798 135.847 152.865 134.616 154.627 134.527C156.275 134.443 158 135.392 158.119 136.441C158.123 136.476 158.12 136.511 158.111 136.544C158.101 136.577 158.085 136.608 158.063 136.636C158.042 136.663 158.015 136.685 157.985 136.702C157.954 136.719 157.921 136.73 157.886 136.734C157.852 136.738 157.817 136.735 157.784 136.725C157.75 136.715 157.719 136.699 157.692 136.678C157.665 136.656 157.642 136.629 157.625 136.599C157.608 136.569 157.598 136.535 157.594 136.501C157.515 135.8 156.072 134.979 154.65 135.05C153.783 135.096 152.325 135.515 152.299 137.825C152.283 139.158 152.786 139.275 153.784 139.508C154.594 139.695 155.602 139.93 156.615 140.925C157.815 142.106 158 144.102 157.028 145.376C156.485 146.083 155.695 146.439 154.751 146.439Z" fill="#1D1D1B"/>
<path d="M152.864 149.15H152.821C152.753 149.139 152.692 149.101 152.651 149.045C152.61 148.989 152.594 148.919 152.604 148.851L155.128 132.784C155.134 132.75 155.146 132.717 155.164 132.687C155.182 132.657 155.205 132.631 155.234 132.61C155.262 132.59 155.294 132.575 155.328 132.566C155.362 132.558 155.397 132.556 155.431 132.562C155.466 132.567 155.499 132.579 155.529 132.597C155.559 132.615 155.584 132.639 155.605 132.667C155.626 132.695 155.641 132.727 155.649 132.761C155.657 132.795 155.659 132.83 155.654 132.865L153.13 148.931C153.119 148.994 153.086 149.05 153.037 149.09C152.988 149.13 152.927 149.152 152.864 149.15Z" fill="#1D1D1B"/>
<path d="M154.946 149.177H154.91C154.842 149.168 154.779 149.132 154.737 149.076C154.694 149.021 154.676 148.952 154.684 148.883L156.879 132.56C156.889 132.49 156.925 132.427 156.981 132.385C157.037 132.342 157.107 132.323 157.177 132.332C157.247 132.342 157.31 132.378 157.353 132.434C157.395 132.49 157.414 132.561 157.405 132.63L155.21 148.953C155.201 149.016 155.169 149.073 155.12 149.115C155.071 149.156 155.009 149.178 154.946 149.177Z" fill="#1D1D1B"/>
<path d="M167.065 149.291C167.028 149.291 166.992 149.286 166.957 149.277C166.846 149.249 166.75 149.178 166.691 149.079C166.632 148.981 166.614 148.863 166.641 148.752C168.708 140.641 162.506 133.841 162.438 133.773C162.364 133.687 162.327 133.576 162.334 133.463C162.34 133.351 162.39 133.245 162.473 133.168C162.555 133.091 162.665 133.049 162.778 133.051C162.89 133.053 162.998 133.098 163.079 133.177C163.35 133.468 169.668 140.399 167.484 148.969C167.459 149.061 167.404 149.142 167.328 149.201C167.253 149.259 167.16 149.291 167.065 149.291Z" fill="white"/>
<path d="M141.921 138.367C141.897 138.367 141.873 138.363 141.851 138.356C141.817 138.347 141.786 138.332 141.759 138.311C141.731 138.29 141.709 138.263 141.691 138.234C141.674 138.204 141.663 138.17 141.659 138.136C141.655 138.102 141.657 138.067 141.667 138.034C143.329 132.051 148.018 128.98 148.065 128.951C148.123 128.917 148.192 128.908 148.258 128.924C148.323 128.94 148.38 128.98 148.416 129.037C148.453 129.093 148.466 129.162 148.453 129.228C148.441 129.294 148.403 129.353 148.349 129.392C148.303 129.422 143.781 132.391 142.175 138.174C142.159 138.229 142.125 138.278 142.08 138.313C142.034 138.347 141.978 138.366 141.921 138.367Z" fill="#1D1E1B"/>
<defs>
<filter id="filter0_d_1240_19424" x="-2.14397" y="57.4863" width="20.6316" height="20.6318" filterUnits="userSpaceOnUse" color-interpolation-filters="sRGB">
<feFlood flood-opacity="0" result="BackgroundImageFix"/>
<feColorMatrix in="SourceAlpha" type="matrix" values="0 0 0 0 0 0 0 0 0 0 0 0 0 0 0 0 0 0 127 0" result="hardAlpha"/>
<feOffset dy="1.08642"/>
<feGaussianBlur stdDeviation="2.71606"/>
<feComposite in2="hardAlpha" operator="out"/>
<feColorMatrix type="matrix" values="0 0 0 0 0 0 0 0 0 0 0 0 0 0 0 0 0 0 0.05 0"/>
<feBlend mode="normal" in2="BackgroundImageFix" result="effect1_dropShadow_1240_19424"/>
<feBlend mode="normal" in="SourceGraphic" in2="effect1_dropShadow_1240_19424" result="shape"/>
</filter>
<filter id="filter1_d_1240_19424" x="197.677" y="88.1133" width="20.6339" height="20.6338" filterUnits="userSpaceOnUse" color-interpolation-filters="sRGB">
<feFlood flood-opacity="0" result="BackgroundImageFix"/>
<feColorMatrix in="SourceAlpha" type="matrix" values="0 0 0 0 0 0 0 0 0 0 0 0 0 0 0 0 0 0 127 0" result="hardAlpha"/>
<feOffset dy="1.08642"/>
<feGaussianBlur stdDeviation="2.71606"/>
<feComposite in2="hardAlpha" operator="out"/>
<feColorMatrix type="matrix" values="0 0 0 0 0 0 0 0 0 0 0 0 0 0 0 0 0 0 0.05 0"/>
<feBlend mode="normal" in2="BackgroundImageFix" result="effect1_dropShadow_1240_19424"/>
<feBlend mode="normal" in="SourceGraphic" in2="effect1_dropShadow_1240_19424" result="shape"/>
</filter>
<linearGradient id="paint0_linear_1240_19424" x1="10.9082" y1="59.7539" x2="209.094" y2="106.959" gradientUnits="userSpaceOnUse">
<stop stop-color="#CDD5E2"/>
<stop offset="1" stop-color="#CDD5E2" stop-opacity="0"/>
</linearGradient>
<linearGradient id="paint1_linear_1240_19424" x1="208.752" y1="104.233" x2="188.719" y2="156.823" gradientUnits="userSpaceOnUse">
<stop stop-color="#CDD5E2"/>
<stop offset="1" stop-color="#CDD5E2" stop-opacity="0"/>
</linearGradient>
<linearGradient id="paint2_linear_1240_19424" x1="104.802" y1="12.4062" x2="104.802" y2="194.67" gradientUnits="userSpaceOnUse">
<stop stop-color="#CDD5E2"/>
<stop offset="1" stop-color="#CDD5E2" stop-opacity="0"/>
</linearGradient>
<linearGradient id="paint3_linear_1240_19424" x1="104.802" y1="30.6309" x2="104.802" y2="176.442" gradientUnits="userSpaceOnUse">
<stop stop-color="#CDD5E2"/>
<stop offset="1" stop-color="#CDD5E2" stop-opacity="0"/>
</linearGradient>
</defs>
</svg>
