<svg width="28" height="28" viewBox="0 0 28 28" fill="none" xmlns="http://www.w3.org/2000/svg">
<g id="Frame" clip-path="url(#clip0_1619_29660)">
<path id="Vector" d="M24.6392 3.67518C24.5755 3.60751 24.5156 3.53829 24.4495 3.47218C22.1721 1.19407 19.0937 0.57807 17.5755 2.09629L1.07568 18.5961L5.39702 22.9174L24.6392 3.67518Z" fill="#99AAB5"/>
<path id="Vector_2" d="M7.95041 19.97C5.67308 17.6919 2.59464 17.0759 1.07564 18.5949C-0.443364 20.1139 0.172636 23.1916 2.45075 25.4689C4.72886 27.7478 7.80653 28.363 9.32553 26.8448C10.8437 25.3258 10.2285 22.2481 7.95041 19.97Z" fill="#66757F"/>
<path id="Vector_3" d="M24.6401 3.67387C26.7572 5.92787 27.2993 8.87098 25.8247 10.3449L9.32567 26.8446C10.8447 25.3256 10.2287 22.2488 7.95056 19.9699L4.92578 16.9451L21.4248 0.445312L24.6463 3.66687L24.6401 3.67387Z" fill="#CCD6DD"/>
<path id="Vector_4" d="M25.7398 2.57409C27.8569 4.82809 28.3998 7.7712 26.9244 9.24509L10.4254 25.7441C11.9444 24.2259 11.3291 21.1482 9.05024 18.8701L7.12524 16.9451L23.6242 0.445312L25.746 2.56709L25.7398 2.57409Z" fill="#E1E8ED"/>
<path id="Vector_5" d="M1.71894 19.4462C0.6285 20.5359 1.06717 22.8459 2.71528 24.7032C4.2055 26.3817 6.56294 27.8205 8.30439 26.3544C8.89706 25.8621 9.20894 25.1045 9.1965 24.2272C9.17472 22.6919 8.18694 20.9668 6.61972 19.7239C6.36772 19.5232 6.00683 19.5691 5.79994 19.818C5.60006 20.0708 5.64206 20.4379 5.89483 20.6378C7.17583 21.6528 8.0135 23.0691 8.03061 24.2451C8.03606 24.6138 7.95672 25.124 7.55461 25.4631C6.37706 26.4532 4.50806 24.9645 3.58872 23.9301C2.28517 22.4617 1.99194 20.8237 2.54417 20.2714C2.68728 20.1283 2.86461 20.0918 3.08472 20.1571C3.76683 20.3609 4.64028 21.4498 5.05561 23.4277C5.12172 23.7434 5.43128 23.9457 5.74706 23.8795C6.06206 23.8127 6.26428 23.5039 6.19739 23.1881C5.73928 21.0025 4.6745 19.4135 3.41839 19.0387C2.78606 18.8497 2.16694 18.999 1.71894 19.4462ZM22.1138 3.33299C22.0983 3.34777 22.0843 3.36255 22.0711 3.37966C21.8681 3.6301 21.9085 3.99721 22.1582 4.19943C22.1823 4.2181 24.5693 6.17421 24.6914 8.72299C24.7077 9.04421 24.9815 9.29232 25.3019 9.27677C25.6247 9.26043 25.8721 8.98743 25.8573 8.66621C25.7095 5.58621 23.0044 3.38199 22.8893 3.29021C22.6552 3.10199 22.3207 3.12532 22.1138 3.33299ZM20.4634 4.98266C20.4486 4.99743 20.4346 5.01221 20.4206 5.02932C20.2184 5.27977 20.2588 5.64688 20.5085 5.84988C20.5326 5.86855 22.9196 7.82466 23.0417 10.3734C23.0581 10.6954 23.3311 10.9428 23.6523 10.9272C23.9743 10.9109 24.2216 10.6379 24.2076 10.3167C24.0591 7.23666 21.3547 5.03243 21.2396 4.94066C21.0055 4.75166 20.6711 4.77499 20.4634 4.98266ZM13.8632 11.5829C13.8492 11.5977 13.8344 11.6124 13.8212 11.6288C13.6182 11.8792 13.6586 12.2463 13.9083 12.4493C13.9324 12.468 16.3194 14.4241 16.4415 16.9729C16.4578 17.2941 16.7308 17.543 17.0521 17.5267C17.3741 17.5103 17.6214 17.2373 17.6074 16.9161C17.4588 13.8369 14.7545 11.6319 14.6394 11.5401C14.4053 11.3519 14.0716 11.3744 13.8632 11.5829ZM10.0139 15.4321C9.99917 15.4469 9.98439 15.4624 9.97117 15.4788C9.76894 15.7292 9.80939 16.0963 10.0583 16.2993C10.0832 16.318 12.4694 18.2741 12.5915 20.8229C12.6071 21.1441 12.8816 21.3922 13.2028 21.3759C13.5248 21.3603 13.7722 21.0873 13.7574 20.7653C13.6088 17.6861 10.9053 15.4819 10.7894 15.3893C10.5561 15.2019 10.2216 15.2237 10.0139 15.4321Z" fill="#99AAB5"/>
<path id="Vector_6" d="M19.2693 15.197C20.2773 14.1485 21.9838 12.5658 22.1907 12.3495C22.6674 11.8502 20.9921 8.09355 19.6224 7.01866C19.3222 6.78299 18.9543 6.97355 18.7964 7.13533C17.6337 8.3261 16.7097 9.2501 15.9365 10.0193C15.7569 10.199 15.6527 10.5257 15.9062 10.7598C16.7361 11.5251 18.2287 13.4229 18.6502 15.1643C18.7 15.3673 19.0609 15.4155 19.2693 15.197Z" fill="#5DADEC"/>
</g>
<defs>
<clipPath id="clip0_1619_29660">
<rect width="28" height="28" fill="white"/>
</clipPath>
</defs>
</svg>
