<svg width="406" height="302" viewBox="0 0 406 302" fill="none" xmlns="http://www.w3.org/2000/svg">
<mask id="mask0_2762_20363" style="mask-type:alpha" maskUnits="userSpaceOnUse" x="0" y="0" width="406" height="302">
<rect width="405.823" height="301.875" fill="#D9D9D9"/>
</mask>
<g mask="url(#mask0_2762_20363)">
<g opacity="0.5">
<mask id="path-2-inside-1_2762_20363" fill="white">
<path d="M389.978 202.565C391.994 156.308 377.371 110.86 348.758 74.4588C320.146 38.0574 279.438 13.1119 234.015 4.14415C188.591 -4.82363 141.458 2.77982 101.158 25.5762C60.8585 48.3727 30.0602 84.8533 14.3457 128.405L15.1854 128.708C30.8274 85.357 61.4838 49.0446 101.598 26.3532C141.711 3.66186 188.628 -3.90654 233.842 5.0199C279.056 13.9463 319.576 38.7768 348.056 75.0104C376.537 111.244 391.093 156.483 389.086 202.526L389.978 202.565Z"/>
</mask>
<path d="M389.978 202.565C391.994 156.308 377.371 110.86 348.758 74.4588C320.146 38.0574 279.438 13.1119 234.015 4.14415C188.591 -4.82363 141.458 2.77982 101.158 25.5762C60.8585 48.3727 30.0602 84.8533 14.3457 128.405L15.1854 128.708C30.8274 85.357 61.4838 49.0446 101.598 26.3532C141.711 3.66186 188.628 -3.90654 233.842 5.0199C279.056 13.9463 319.576 38.7768 348.056 75.0104C376.537 111.244 391.093 156.483 389.086 202.526L389.978 202.565Z" stroke="url(#paint0_linear_2762_20363)" stroke-width="2.84788" stroke-dasharray="4.27 4.27" mask="url(#path-2-inside-1_2762_20363)"/>
</g>
<g opacity="0.5">
<mask id="path-3-inside-2_2762_20363" fill="white">
<path d="M14.6038 260.572C30.4887 304.063 61.4296 340.422 101.818 363.061C142.206 385.699 189.369 393.118 234.758 383.973C280.146 374.827 320.755 349.723 349.225 313.21C377.695 276.697 392.14 231.192 389.943 184.943L389.051 184.986C391.238 231.021 376.859 276.316 348.521 312.661C320.182 349.006 279.76 373.994 234.581 383.098C189.402 392.201 142.457 384.816 102.254 362.282C62.0522 339.748 31.2539 303.556 15.4423 260.266L14.6038 260.572Z"/>
</mask>
<path d="M14.6038 260.572C30.4887 304.063 61.4296 340.422 101.818 363.061C142.206 385.699 189.369 393.118 234.758 383.973C280.146 374.827 320.755 349.723 349.225 313.21C377.695 276.697 392.14 231.192 389.943 184.943L389.051 184.986C391.238 231.021 376.859 276.316 348.521 312.661C320.182 349.006 279.76 373.994 234.581 383.098C189.402 392.201 142.457 384.816 102.254 362.282C62.0522 339.748 31.2539 303.556 15.4423 260.266L14.6038 260.572Z" stroke="url(#paint1_linear_2762_20363)" stroke-width="2.84788" stroke-dasharray="4.27 4.27" mask="url(#path-3-inside-2_2762_20363)"/>
</g>
<circle opacity="0.08" cx="196.502" cy="194.133" r="170.873" fill="url(#paint2_linear_2762_20363)"/>
<circle opacity="0.1" cx="196.505" cy="194.132" r="136.698" fill="url(#paint3_linear_2762_20363)"/>
<circle cx="196.504" cy="194.133" r="91.1321" fill="white"/>
<g filter="url(#filter0_d_2762_20363)">
<circle cx="15.3224" cy="125.091" r="7.11969" transform="rotate(-2.50406 15.3224 125.091)" fill="#0170FF"/>
<circle cx="15.3224" cy="125.091" r="8.13822" transform="rotate(-2.50406 15.3224 125.091)" stroke="white" stroke-width="2.03704"/>
</g>
<g filter="url(#filter1_d_2762_20363)">
<circle cx="389.993" cy="182.517" r="7.11969" transform="rotate(-15.7345 389.993 182.517)" fill="#0170FF"/>
<circle cx="389.993" cy="182.517" r="8.13822" transform="rotate(-15.7345 389.993 182.517)" stroke="white" stroke-width="2.03704"/>
</g>
</g>
<path d="M291.15 274.271L94.1409 273.076C93.9505 273.076 93.7679 273 93.6332 272.865C93.4986 272.731 93.4229 272.548 93.4229 272.358C93.4229 272.167 93.4986 271.985 93.6332 271.85C93.7679 271.715 93.9505 271.64 94.1409 271.64L291.15 272.835C291.341 272.835 291.524 272.911 291.659 273.046C291.793 273.18 291.869 273.363 291.869 273.553C291.869 273.744 291.793 273.926 291.659 274.061C291.524 274.196 291.341 274.271 291.15 274.271Z" fill="black"/>
<path d="M101.441 263.841H73.123C72.9802 263.841 72.8433 263.784 72.7423 263.683C72.6413 263.582 72.5845 263.445 72.5845 263.302C72.5845 263.159 72.6413 263.022 72.7423 262.921C72.8433 262.82 72.9802 262.764 73.123 262.764H101.441C101.584 262.764 101.72 262.82 101.821 262.921C101.922 263.022 101.979 263.159 101.979 263.302C101.979 263.445 101.922 263.582 101.821 263.683C101.72 263.784 101.584 263.841 101.441 263.841Z" fill="black"/>
<path d="M292.878 65.0968C290.478 65.0959 288.08 64.952 285.697 64.666C273.49 63.2083 261.081 58.0129 248.82 49.2272C248.711 49.1417 248.639 49.0174 248.619 48.8803C248.6 48.7431 248.633 48.6036 248.714 48.4908C248.794 48.3779 248.915 48.3005 249.051 48.2745C249.187 48.2485 249.328 48.2759 249.445 48.3511C276.857 67.9907 299.71 65.5528 314.043 60.0523C329.586 54.0886 338.76 43.3641 338.849 43.2563C338.942 43.1468 339.074 43.0785 339.217 43.0664C339.359 43.0543 339.501 43.0993 339.611 43.1917C339.72 43.2841 339.788 43.4161 339.8 43.5589C339.812 43.7016 339.768 43.8434 339.675 43.9529C339.582 44.0606 330.229 54.997 314.431 61.0576C307.556 63.7187 300.25 65.0881 292.878 65.0968Z" fill="black"/>
<path d="M279.123 54.1645C272.897 54.1645 265.602 52.8576 257.293 49.2851C257.162 49.2284 257.058 49.1219 257.005 48.9889C256.953 48.8559 256.955 48.7074 257.011 48.576C257.068 48.4446 257.175 48.341 257.308 48.2882C257.441 48.2353 257.589 48.2375 257.721 48.2941C275.224 55.834 288.096 53.0909 295.811 49.4718C304.181 45.5439 308.475 39.7561 308.518 39.6987C308.558 39.6389 308.611 39.5879 308.672 39.5487C308.732 39.5096 308.8 39.4831 308.871 39.4708C308.943 39.4585 309.016 39.4606 309.086 39.4771C309.156 39.4936 309.223 39.5241 309.281 39.5668C309.339 39.6094 309.389 39.6634 309.426 39.7255C309.463 39.7876 309.487 39.8565 309.497 39.9281C309.506 39.9997 309.502 40.0725 309.483 40.1423C309.464 40.2121 309.431 40.2773 309.387 40.3342C309.211 40.5783 304.92 46.3733 296.321 50.4232C290.936 52.9287 285.062 54.2066 279.123 54.1645Z" fill="black"/>
<path d="M258.306 42.8079L220.818 20.8741L232.782 20.4756L259.103 29.2469L258.306 42.8079Z" fill="white"/>
<path d="M232.781 20.4756L259.103 29.2469L258.306 42.8079L220.818 20.8741L232.781 20.4756ZM232.781 19.3984H232.745L220.782 19.797C220.548 19.8041 220.323 19.8871 220.141 20.0335C219.958 20.1799 219.829 20.3817 219.771 20.6084C219.713 20.8351 219.731 21.0744 219.821 21.2901C219.912 21.5058 220.07 21.6862 220.272 21.804L257.76 43.7378C257.925 43.8346 258.114 43.8854 258.306 43.885C258.58 43.8855 258.845 43.781 259.045 43.5927C259.245 43.4045 259.366 43.1468 259.383 42.8725L260.18 29.3116C260.193 29.0785 260.13 28.8474 260 28.6531C259.871 28.4588 259.682 28.3119 259.462 28.2344L233.14 19.4594C233.024 19.4219 232.903 19.4037 232.781 19.4056V19.3984Z" fill="black"/>
<path d="M268.675 22.4685L215.235 18.0811L237.966 44.8009L253.52 33.2362L228.793 22.07L259.103 29.2472L268.675 22.4685Z" fill="#4BD657"/>
<path d="M215.235 18.0807L268.675 22.4682L259.103 29.2469L228.793 22.0661L253.52 33.2322L237.966 44.797L215.235 18.0771V18.0807ZM215.235 17C215.03 17 214.828 17.059 214.654 17.17C214.481 17.281 214.343 17.4395 214.257 17.6265C214.171 17.8135 214.14 18.0213 214.168 18.2253C214.197 18.4292 214.283 18.6208 214.417 18.7772L237.148 45.4971C237.325 45.7057 237.575 45.8389 237.847 45.8696C238.119 45.9002 238.393 45.8261 238.613 45.6623L254.166 34.0975C254.317 33.9855 254.435 33.8361 254.51 33.6642C254.585 33.4923 254.614 33.3038 254.594 33.1174C254.573 32.9309 254.505 32.753 254.394 32.6012C254.284 32.4495 254.136 32.3291 253.965 32.2521L239.453 25.696L258.859 30.2917C258.94 30.3119 259.023 30.3215 259.106 30.3204C259.329 30.3203 259.546 30.2514 259.728 30.123L269.3 23.3443C269.481 23.2166 269.618 23.0363 269.692 22.828C269.767 22.6197 269.775 22.3935 269.717 22.1802C269.658 21.9668 269.536 21.7765 269.365 21.6354C269.195 21.4942 268.985 21.4089 268.765 21.3911L215.325 17.0036L215.235 17Z" fill="black"/>
<path d="M239.56 41.3105C239.442 41.3109 239.325 41.2879 239.216 41.243C239.107 41.198 239.008 41.1318 238.924 41.0484L226.563 28.6866C226.394 28.5181 226.299 28.2894 226.299 28.0511C226.299 27.8127 226.394 27.5841 226.563 27.4156C226.731 27.247 226.96 27.1523 227.198 27.1523C227.437 27.1523 227.665 27.247 227.834 27.4156L240.195 39.7809C240.32 39.9067 240.405 40.0665 240.439 40.2402C240.473 40.4139 240.455 40.5938 240.387 40.7573C240.319 40.9207 240.204 41.0605 240.057 41.1589C239.91 41.2574 239.737 41.3101 239.56 41.3105Z" fill="white"/>
<path d="M151.329 96.9981C151.329 96.9981 144.17 110.283 135.74 103.052C127.31 95.8205 109.404 80.2201 97.2936 92.1188C85.1832 104.017 85.3952 107.59 74.606 102.445C63.8168 97.2997 35.8115 107.033 50.3311 137.236C64.8507 167.438 164.036 119.557 164.036 119.557L166.33 110.498L151.329 96.9981Z" fill="#382256"/>
<path d="M107.67 87.785C118.082 87.785 129.503 97.7125 135.74 103.051C137.535 104.595 139.287 105.206 140.917 105.206C146.906 105.206 151.329 97.0051 151.329 97.0051L166.33 110.505L164.036 119.564C164.036 119.564 106.711 147.235 72.839 147.235C62.1575 147.235 53.8101 144.485 50.3274 137.243C38.2421 112.11 55.6158 101.145 68.0063 101.145C70.2739 101.094 72.5251 101.54 74.602 102.452C77.8082 103.981 80.0415 104.739 81.9157 104.739C86.3498 104.739 88.7771 100.488 97.2899 92.1258C100.446 89.0237 103.993 87.7922 107.666 87.7922L107.67 87.785ZM107.666 86.715C103.415 86.715 99.6702 88.2768 96.5357 91.3574C94.2558 93.5942 92.4501 95.5007 90.8559 97.1811C86.7629 101.49 84.709 103.644 81.9157 103.644C80.3215 103.644 78.2714 102.99 75.0651 101.461C72.8439 100.479 70.4342 99.9978 68.0063 100.05C61.9026 100.05 53.0451 102.753 48.2591 110.379C45.1498 115.323 42.816 124.077 49.3649 137.692C52.7471 144.729 60.6497 148.294 72.8464 148.294C87.0213 148.294 106.761 143.627 131.521 134.392C149.918 127.534 164.366 120.583 164.51 120.515C164.652 120.445 164.778 120.345 164.877 120.221C164.977 120.096 165.047 119.952 165.084 119.797L167.378 110.735C167.429 110.543 167.424 110.34 167.367 110.15C167.309 109.96 167.2 109.79 167.052 109.658L152.055 96.1578C151.857 95.9804 151.602 95.8819 151.337 95.8813C151.276 95.876 151.214 95.876 151.153 95.8813C150.992 95.909 150.84 95.9729 150.708 96.068C150.575 96.1632 150.466 96.2872 150.388 96.4307C150.349 96.5061 146.191 104.064 140.924 104.064C139.42 104.064 137.912 103.428 136.447 102.175L136.124 101.899C129.902 96.5707 118.319 86.6504 107.677 86.6504L107.666 86.715Z" fill="black"/>
<path d="M172.811 134.465C172.811 134.465 144.282 132.113 119.673 145.954C95.0642 159.795 57.8424 181.431 67.0733 201.426C76.3043 221.421 93.1039 226.738 106.446 226.735C115.045 226.735 127.931 219.195 127.931 219.195C127.931 219.195 120.19 238.712 127.931 271.974L271.831 272.947C271.831 272.947 299.836 148.001 198.228 136.511" fill="#07ACEE"/>
<path d="M271.831 273.489L127.931 272.516C127.809 272.516 127.692 272.475 127.597 272.399C127.502 272.324 127.436 272.218 127.41 272.099C120.854 243.933 125.432 225.349 126.976 220.354C123.529 222.236 113.634 227.269 106.449 227.273C95.976 227.273 76.8893 223.941 66.5956 201.652C64.3624 196.808 64.657 191.552 67.4718 186.026C69.8738 181.312 74.2036 176.246 80.3468 170.975C91.2868 161.583 106.252 152.894 119.421 145.483C143.894 131.718 172.581 133.901 172.868 133.926C172.939 133.931 173.008 133.951 173.071 133.983C173.134 134.015 173.19 134.06 173.236 134.114C173.282 134.168 173.316 134.231 173.338 134.298C173.359 134.366 173.367 134.437 173.36 134.508C173.347 134.649 173.278 134.78 173.17 134.872C173.061 134.964 172.921 135.009 172.779 134.999C172.495 134.978 144.124 132.824 119.949 146.421C106.826 153.802 91.9152 162.463 81.047 171.79C68.0138 182.978 63.605 192.615 67.576 201.2C77.6291 222.943 96.2274 226.192 106.446 226.192C114.797 226.192 127.529 218.807 127.658 218.731C127.755 218.675 127.867 218.65 127.978 218.66C128.09 218.67 128.196 218.715 128.281 218.788C128.366 218.861 128.426 218.959 128.452 219.068C128.479 219.177 128.471 219.292 128.43 219.396C128.354 219.586 120.89 238.999 128.358 271.457L271.396 272.423C271.949 269.755 274.868 254.829 274.829 235.958C274.789 216.854 271.626 189.707 256.769 168.85C243.844 150.693 224.122 139.997 198.166 137.064C198.096 137.056 198.027 137.034 197.965 137C197.903 136.965 197.848 136.919 197.803 136.863C197.759 136.807 197.726 136.744 197.706 136.675C197.687 136.607 197.681 136.535 197.689 136.464C197.697 136.394 197.719 136.325 197.753 136.263C197.788 136.201 197.834 136.146 197.89 136.101C197.945 136.057 198.009 136.024 198.078 136.004C198.146 135.985 198.218 135.979 198.288 135.987C224.559 138.956 244.533 149.803 257.649 168.222C272.671 189.315 275.87 216.692 275.906 235.973C275.945 256.822 272.391 272.914 272.355 273.076C272.327 273.194 272.26 273.299 272.165 273.373C272.07 273.448 271.952 273.489 271.831 273.489Z" fill="black"/>
<path d="M119.339 200.026C122.211 192.888 131.798 187.125 137.32 172.103C142.842 157.081 123.511 150.331 123.511 150.331L124.541 145.275C124.541 145.275 111.282 148.115 98.0372 137.337L93.7287 143.2C93.7287 143.2 77.1876 146.848 76.1356 160.671C75.0836 174.494 61.4686 186.109 67.5435 202.794" fill="#07ACEE"/>
<path d="M67.5255 203.332C67.4143 203.332 67.306 203.298 67.2152 203.233C67.1245 203.169 67.0558 203.078 67.0192 202.973C63.1847 192.446 67.0193 183.944 70.7282 175.686C73.0188 170.598 75.184 165.791 75.5826 160.606C76.6023 147.39 91.488 143.189 93.4053 142.701L97.6026 136.995C97.6456 136.937 97.7001 136.887 97.7628 136.85C97.8256 136.813 97.8953 136.79 97.9676 136.781C98.0399 136.771 98.1133 136.777 98.1832 136.798C98.2532 136.818 98.3181 136.852 98.3743 136.898C111.271 147.39 124.297 144.754 124.43 144.729C124.518 144.71 124.609 144.713 124.694 144.738C124.78 144.763 124.859 144.81 124.922 144.873C124.984 144.936 125.031 145.014 125.056 145.099C125.082 145.184 125.086 145.274 125.069 145.361L124.129 149.968C126.15 150.75 134.325 154.276 137.556 161.098C139.187 164.552 139.276 168.304 137.826 172.25C134.476 181.362 129.618 187.128 125.712 191.76C123.156 194.797 120.947 197.415 119.838 200.187C119.812 200.252 119.773 200.312 119.724 200.363C119.674 200.414 119.615 200.454 119.55 200.482C119.485 200.51 119.415 200.525 119.345 200.526C119.274 200.527 119.203 200.514 119.138 200.488C119.072 200.462 119.012 200.423 118.961 200.374C118.911 200.325 118.87 200.266 118.842 200.201C118.814 200.136 118.799 200.066 118.798 199.995C118.797 199.924 118.81 199.854 118.836 199.788C120.014 196.855 122.272 194.173 124.89 191.067C128.739 186.496 133.532 180.813 136.813 171.88C138.163 168.214 138.084 164.742 136.583 161.561C133.162 154.312 123.429 150.833 123.332 150.79C123.207 150.749 123.101 150.663 123.035 150.549C122.969 150.435 122.947 150.301 122.973 150.172L123.848 145.864C120.793 146.262 109.429 146.984 98.1268 138.044L94.1486 143.455C94.0701 143.56 93.957 143.634 93.8292 143.663C93.6676 143.699 77.6722 147.39 76.6453 160.645C76.2324 166.01 73.9273 171.129 71.6976 176.084C68.0785 184.123 64.3372 192.435 68.021 202.553C68.0695 202.687 68.063 202.835 68.0024 202.964C67.9418 203.094 67.8323 203.194 67.698 203.242C67.6464 203.282 67.5879 203.313 67.5255 203.332Z" fill="black"/>
<path d="M200.015 136.751C200.015 136.751 204.765 146.312 193.635 148.825C182.505 151.338 180.35 145.594 180.35 145.594C180.35 145.594 172.81 152.775 165.989 146.671C159.167 140.567 167.425 134.104 167.425 134.104L200.015 136.751Z" fill="white"/>
<path d="M188.433 150.007C183.115 150.007 180.943 147.63 180.175 146.438C178.279 147.96 171.662 152.484 165.616 147.074C163.637 145.304 162.668 143.322 162.743 141.182C162.88 137.017 166.908 133.818 167.081 133.681C167.183 133.603 167.311 133.563 167.44 133.57L200.03 136.213C200.122 136.22 200.211 136.252 200.288 136.304C200.365 136.356 200.427 136.427 200.468 136.511C200.558 136.687 202.583 140.851 200.827 144.567C199.703 146.934 197.319 148.546 193.739 149.353C192 149.766 190.22 149.985 188.433 150.007ZM180.351 145.056C180.39 145.052 180.43 145.052 180.469 145.056C180.556 145.077 180.636 145.118 180.703 145.177C180.77 145.236 180.822 145.31 180.854 145.393C180.936 145.605 183.036 150.653 193.517 148.287C196.748 147.569 198.903 146.133 199.868 144.097C201.175 141.358 200.044 138.184 199.653 137.247L167.598 134.647C166.88 135.261 163.932 137.979 163.831 141.21C163.77 143.006 164.618 144.711 166.345 146.259C172.707 151.953 179.679 145.469 179.988 145.181C180.09 145.097 180.219 145.052 180.351 145.056Z" fill="black"/>
<path d="M173.141 78.4563C180.627 78.4563 186.695 72.388 186.695 64.9024C186.695 57.4169 180.627 51.3486 173.141 51.3486C165.656 51.3486 159.587 57.4169 159.587 64.9024C159.587 72.388 165.656 78.4563 173.141 78.4563Z" fill="#382256"/>
<path d="M173.13 51.3457C176.393 51.343 179.547 52.5173 182.014 54.6532C184.481 56.789 186.094 59.7429 186.558 62.9726C187.022 66.2022 186.305 69.4908 184.539 72.2345C182.773 74.9782 180.077 76.9929 176.945 77.9086C173.814 78.8243 170.457 78.5796 167.491 77.2194C164.526 75.8592 162.15 73.4748 160.801 70.5041C159.452 67.5333 159.219 64.1755 160.147 61.0473C161.074 57.919 163.099 55.2303 165.849 53.4748C168.024 52.0863 170.55 51.3476 173.13 51.3457ZM173.13 50.2686C169.88 50.2699 166.723 51.3528 164.156 53.3466C161.59 55.3404 159.759 58.1317 158.954 61.2804C158.149 64.4292 158.415 67.7563 159.71 70.7374C161.004 73.7185 163.254 76.184 166.105 77.7453C168.955 79.3065 172.244 79.8747 175.453 79.3603C178.662 78.8458 181.609 77.2781 183.829 74.9041C186.048 72.5301 187.415 69.4849 187.713 66.2485C188.011 63.0121 187.223 59.7686 185.474 57.0293C184.153 54.9535 182.329 53.2452 180.171 52.0632C178.013 50.8812 175.591 50.2639 173.13 50.2686Z" fill="black"/>
<path d="M139.739 110.649C139.739 110.649 129.532 103.468 132.67 94.6356C135.808 85.8032 138.077 86.313 139.427 81.5521C140.777 76.7913 148.514 71.3625 156.237 72.77C156.237 72.77 164.826 64.8495 173.471 66.16C182.117 67.4705 185.449 71.1866 188.515 77.5129C191.582 83.8392 194.26 86.5141 196.565 90.8908C198.87 95.2675 202.931 107.802 186.027 119.072C169.123 130.342 139.739 110.649 139.739 110.649Z" fill="#382256"/>
<path d="M171.479 66.0164C172.14 66.0144 172.8 66.0624 173.454 66.16C182.071 67.4705 185.431 71.1866 188.498 77.5129C191.564 83.8392 194.242 86.514 196.547 90.8908C198.852 95.2675 202.913 107.802 186.009 119.072C182.25 121.585 177.87 122.555 173.335 122.555C157.487 122.555 139.733 110.649 139.733 110.649C139.733 110.649 129.525 103.468 132.663 94.6355C135.801 85.8031 138.07 86.313 139.42 81.5521C140.619 77.3154 146.892 72.5437 153.703 72.5437C154.546 72.5437 155.387 72.6194 156.216 72.7699C156.216 72.7699 163.541 66.0164 171.465 66.0164H171.479ZM171.465 64.9392C164.194 64.9392 157.57 70.1848 155.886 71.6246C155.158 71.5196 154.424 71.4667 153.689 71.4666C146.292 71.4666 139.686 76.6296 138.368 81.2576C137.819 83.1929 137.137 84.13 136.189 85.4369C134.961 87.128 133.428 89.232 131.636 94.2765C130.225 98.2259 131.094 102.499 134.15 106.595C135.554 108.47 137.223 110.132 139.104 111.528H139.126C142.645 113.8 146.323 115.817 150.13 117.564C156.087 120.325 164.945 123.617 173.328 123.617C178.488 123.617 182.954 122.386 186.613 119.955C194.153 114.929 198.519 109.065 199.538 102.552C200.177 98.3788 199.461 94.1105 197.495 90.3737C196.53 88.601 195.466 86.8844 194.307 85.2323C192.48 82.6281 190.859 79.885 189.46 77.0281C186.3 70.5079 182.692 66.4616 173.608 65.0829C172.901 64.9757 172.187 64.9229 171.472 64.9249L171.465 64.9392Z" fill="black"/>
<path d="M172.064 98.2047C171.921 98.2109 171.782 98.1601 171.677 98.0635C171.571 97.9669 171.509 97.8323 171.502 97.6895C171.496 97.5467 171.547 97.4072 171.643 97.3018C171.74 97.1965 171.875 97.1338 172.018 97.1276C177.604 96.6285 182.76 90.3453 182.81 90.2843C182.9 90.1733 183.031 90.1027 183.173 90.0879C183.315 90.0731 183.457 90.1153 183.568 90.2053C183.679 90.2953 183.749 90.4256 183.764 90.5677C183.779 90.7098 183.737 90.8519 183.647 90.9629C183.428 91.2357 178.157 97.659 172.114 98.2011L172.064 98.2047Z" fill="black"/>
<path d="M186.512 52.032C186.401 52.0322 186.292 51.9978 186.202 51.9334C186.111 51.8691 186.042 51.778 186.006 51.673C184.997 48.8365 183.342 46.8582 181.094 45.7955C177.062 43.8925 172.398 45.5442 172.351 45.5621C172.22 45.5981 172.08 45.5832 171.96 45.5202C171.839 45.4573 171.747 45.351 171.701 45.2228C171.656 45.0945 171.661 44.9538 171.715 44.829C171.769 44.7041 171.868 44.6043 171.992 44.5496C172.197 44.4742 177.112 42.7257 181.55 44.8153C184.063 46.0037 185.916 48.1903 187.025 51.3139C187.049 51.3804 187.06 51.4509 187.056 51.5215C187.053 51.592 187.036 51.6612 187.005 51.7249C186.975 51.7887 186.932 51.8457 186.879 51.8929C186.827 51.9401 186.765 51.9764 186.699 51.9997C186.639 52.022 186.576 52.0329 186.512 52.032Z" fill="black"/>
<path d="M166.811 129.155V134.541C166.811 134.541 176.146 148.543 194.098 137.054C194.098 137.054 185.295 124.398 180.577 109.375C180.577 109.375 187.223 107.58 185.858 101.617C184.494 95.6529 179.611 94.8845 176.843 96.6546C176.843 96.6546 166.072 104.984 153.541 82.293C153.541 82.293 141.922 87.7612 140.084 100.144C138.246 112.528 141.38 126.606 150.996 130.214C160.611 133.823 166.811 129.155 166.811 129.155Z" fill="#FFCDB2"/>
<path d="M153.527 82.289C160.758 95.3761 167.397 98.1479 171.723 98.1479C173.538 98.184 175.32 97.6627 176.829 96.6543C177.702 96.1066 178.713 95.8178 179.744 95.8213C182.214 95.8213 184.893 97.455 185.848 101.616C187.212 107.569 180.566 109.375 180.566 109.375C185.284 124.397 194.088 137.054 194.088 137.054C188.864 140.396 184.372 141.581 180.627 141.581C171.497 141.581 166.801 134.54 166.801 134.54V129.155C166.801 129.155 163.569 131.582 158.184 131.582C155.727 131.561 153.294 131.096 151.003 130.21C141.388 126.62 138.25 112.524 140.092 100.141C141.933 87.7572 153.548 82.289 153.548 82.289H153.527ZM153.548 81.2119C153.389 81.2113 153.232 81.2469 153.089 81.3161C150.784 82.4986 148.659 84.0024 146.777 85.7825C142.494 89.7643 139.815 94.6724 139.025 99.9826C138.042 106.593 138.469 113.267 140.224 118.793C142.239 125.126 145.836 129.42 150.637 131.219C153.053 132.149 155.617 132.635 158.205 132.655C160.81 132.672 163.385 132.109 165.745 131.007V134.54C165.746 134.752 165.808 134.959 165.925 135.136C166.129 135.445 171.052 142.658 180.645 142.658C185.09 142.658 189.815 141.078 194.687 137.962C194.809 137.884 194.914 137.782 194.995 137.662C195.077 137.542 195.133 137.407 195.161 137.265C195.19 137.123 195.189 136.977 195.159 136.835C195.13 136.693 195.072 136.559 194.989 136.44C194.907 136.318 186.605 124.29 181.927 110.032C182.818 109.659 183.653 109.166 184.411 108.567C186.706 106.729 187.575 104.241 186.925 101.386C185.805 96.4963 182.494 94.755 179.773 94.755C178.537 94.7526 177.326 95.0999 176.279 95.7567L176.197 95.8106C174.875 96.668 173.327 97.1107 171.752 97.0816C167.738 97.0816 161.487 94.4247 154.496 81.7792C154.403 81.611 154.267 81.4706 154.102 81.3728C153.936 81.2749 153.748 81.2231 153.556 81.2227L153.548 81.2119Z" fill="black"/>
<path d="M166.632 130.231C166.504 130.23 166.382 130.184 166.285 130.101C166.189 130.018 166.125 129.904 166.105 129.778C166.084 129.653 166.109 129.524 166.175 129.415C166.24 129.306 166.342 129.224 166.463 129.183C171.608 127.467 175.514 121.801 175.55 121.744C175.631 121.625 175.755 121.543 175.895 121.516C176.036 121.49 176.182 121.52 176.3 121.6C176.419 121.681 176.501 121.805 176.528 121.946C176.555 122.086 176.525 122.232 176.444 122.35C176.275 122.595 172.297 128.372 166.8 130.203C166.746 130.223 166.689 130.233 166.632 130.231Z" fill="black"/>
<path d="M124.994 122.842C124.994 122.842 129.844 135.365 122.84 148.003C115.835 160.642 102.424 141.968 102.424 141.968L124.994 122.842Z" fill="#FFCDB2"/>
<path d="M116.603 152.933C109.698 152.933 102.295 142.725 101.975 142.28C101.897 142.171 101.862 142.037 101.879 141.903C101.896 141.77 101.962 141.648 102.065 141.562L124.645 122.436C124.71 122.38 124.788 122.341 124.872 122.322C124.956 122.302 125.043 122.303 125.126 122.324C125.209 122.345 125.286 122.386 125.351 122.443C125.415 122.5 125.465 122.571 125.496 122.651C125.546 122.781 130.354 135.555 123.299 148.269C121.665 151.209 119.547 152.775 117.001 152.936C116.868 152.929 116.735 152.933 116.603 152.933ZM103.149 142.05C104.618 143.971 111.242 152.179 116.936 151.845C119.091 151.719 120.915 150.341 122.358 147.741C128.211 137.192 125.589 126.597 124.735 123.768L103.149 142.05Z" fill="black"/>
<path d="M180.415 106.606C180.327 106.606 180.241 106.584 180.164 106.542C180.041 106.475 179.948 106.362 179.907 106.228C179.865 106.094 179.877 105.949 179.941 105.824C180.986 103.867 181.212 102.348 180.62 101.307C179.776 99.8349 177.478 99.7237 177.457 99.7201C177.386 99.7175 177.316 99.701 177.252 99.6715C177.188 99.642 177.13 99.6002 177.082 99.5483C177.033 99.4965 176.996 99.4357 176.971 99.3694C176.947 99.303 176.935 99.2325 176.938 99.1617C176.94 99.091 176.957 99.0215 176.986 98.9571C177.016 98.8928 177.058 98.8349 177.11 98.7867C177.162 98.7385 177.222 98.7011 177.288 98.6764C177.355 98.6517 177.425 98.6403 177.496 98.6429C177.615 98.6429 180.404 98.7722 181.55 100.765C182.347 102.147 182.124 104.018 180.893 106.326C180.846 106.412 180.777 106.483 180.693 106.533C180.609 106.582 180.513 106.607 180.415 106.606Z" fill="black"/>
<path d="M154.054 100.574C161.02 101.102 169.737 96.8976 171.647 99.1021C173.558 101.307 172.789 104.707 169.231 106.003C165.673 107.299 162.018 107.683 154.489 108.103C146.96 108.523 139.557 108.38 139.865 104.283C140.174 100.186 143.833 99.8023 154.054 100.574Z" fill="#FFB49F"/>
<path d="M145.628 97.2709C145.497 97.2725 145.369 97.2266 145.269 97.1417C145.215 97.0959 145.171 97.0399 145.139 96.9769C145.107 96.914 145.088 96.8453 145.083 96.7749C145.077 96.7044 145.086 96.6336 145.108 96.5666C145.13 96.4995 145.165 96.4375 145.212 96.3841C145.305 96.2728 147.571 93.6662 150.597 93.8708C150.74 93.8813 150.873 93.9481 150.966 94.0565C151.06 94.1649 151.107 94.306 151.097 94.4489C151.086 94.5917 151.019 94.7245 150.911 94.8181C150.802 94.9117 150.661 94.9584 150.518 94.9479C148.03 94.7612 146.041 97.0484 146.023 97.0735C145.975 97.1321 145.915 97.1799 145.847 97.214C145.779 97.248 145.704 97.2673 145.628 97.2709Z" fill="black"/>
<path d="M153.34 113.108H153.229C153.16 113.094 153.094 113.066 153.035 113.027C152.977 112.987 152.927 112.936 152.888 112.877C152.849 112.818 152.823 112.752 152.81 112.682C152.797 112.613 152.798 112.542 152.812 112.473L155.103 101.421C155.132 101.281 155.215 101.158 155.334 101.08C155.453 101.001 155.599 100.973 155.739 101.001C155.879 101.03 156.001 101.113 156.08 101.232C156.159 101.351 156.187 101.497 156.159 101.637L153.868 112.692C153.84 112.811 153.773 112.917 153.677 112.992C153.581 113.068 153.463 113.109 153.34 113.108Z" fill="black"/>
<path d="M183.313 111.231C184.538 111.231 185.532 110.237 185.532 109.012C185.532 107.786 184.538 106.793 183.313 106.793C182.088 106.793 181.094 107.786 181.094 109.012C181.094 110.237 182.088 111.231 183.313 111.231Z" fill="#07ACEE"/>
<path d="M183.327 106.793C183.861 106.789 184.379 106.977 184.785 107.323C185.191 107.67 185.459 108.151 185.539 108.679C185.619 109.207 185.506 109.746 185.22 110.198C184.935 110.649 184.497 110.982 183.985 111.136C183.474 111.29 182.924 111.255 182.437 111.036C181.95 110.818 181.558 110.431 181.333 109.946C181.108 109.462 181.065 108.913 181.212 108.399C181.36 107.886 181.687 107.443 182.135 107.152C182.49 106.921 182.904 106.796 183.327 106.793ZM183.327 105.716C182.706 105.718 182.099 105.896 181.574 106.229C181.05 106.561 180.63 107.035 180.364 107.596C180.097 108.156 179.994 108.781 180.067 109.397C180.139 110.014 180.385 110.598 180.775 111.081C181.164 111.564 181.682 111.928 182.27 112.129C182.857 112.331 183.489 112.362 184.094 112.221C184.698 112.079 185.25 111.769 185.686 111.327C186.122 110.885 186.425 110.329 186.558 109.723C186.664 109.24 186.66 108.74 186.547 108.259C186.434 107.778 186.214 107.329 185.904 106.944C185.594 106.559 185.201 106.249 184.755 106.037C184.309 105.824 183.821 105.715 183.327 105.716Z" fill="black"/>
<path d="M165.526 104.118C166.22 104.118 166.782 103.555 166.782 102.861C166.782 102.167 166.22 101.604 165.526 101.604C164.832 101.604 164.269 102.167 164.269 102.861C164.269 103.555 164.832 104.118 165.526 104.118Z" fill="black"/>
<path d="M147.147 105.381C147.841 105.381 148.403 104.819 148.403 104.125C148.403 103.431 147.841 102.868 147.147 102.868C146.453 102.868 145.89 103.431 145.89 104.125C145.89 104.819 146.453 105.381 147.147 105.381Z" fill="black"/>
<path d="M159.939 122.096C159.513 122.094 159.089 122.036 158.679 121.923C158.607 121.909 158.538 121.88 158.478 121.838C158.417 121.796 158.366 121.742 158.327 121.679C158.288 121.616 158.262 121.546 158.252 121.473C158.241 121.4 158.246 121.326 158.265 121.255C158.284 121.184 158.317 121.117 158.363 121.06C158.409 121.002 158.466 120.954 158.532 120.92C158.597 120.885 158.668 120.864 158.742 120.858C158.815 120.853 158.889 120.862 158.959 120.886C162.442 121.823 164.768 117.245 164.79 117.198C164.854 117.07 164.966 116.973 165.101 116.927C165.237 116.882 165.385 116.892 165.513 116.956C165.641 117.02 165.739 117.132 165.784 117.268C165.83 117.403 165.819 117.551 165.756 117.679C165.655 117.877 163.515 122.096 159.939 122.096Z" fill="black"/>
<path d="M158.611 94.2234C158.505 94.225 158.401 94.1952 158.312 94.1377C158.223 94.0801 158.153 93.9975 158.112 93.9002C158.07 93.8029 158.058 93.6953 158.077 93.5912C158.096 93.487 158.146 93.3909 158.22 93.3151C158.399 93.1284 160.015 91.4947 161.516 92.0225C161.582 92.046 161.644 92.0825 161.697 92.1298C161.749 92.1772 161.792 92.2344 161.823 92.2982C161.853 92.3621 161.871 92.4313 161.874 92.502C161.878 92.5726 161.868 92.6433 161.844 92.71C161.821 92.7768 161.784 92.8382 161.737 92.8908C161.69 92.9434 161.633 92.9862 161.569 93.0167C161.505 93.0472 161.435 93.0649 161.365 93.0686C161.294 93.0724 161.223 93.0622 161.157 93.0386C160.439 92.7837 159.329 93.7136 159.002 94.0582C158.952 94.1112 158.891 94.1532 158.824 94.1816C158.757 94.21 158.684 94.2243 158.611 94.2234Z" fill="black"/>
<path d="M94.1374 143.588C94.1051 143.552 98.2232 138.033 98.2232 138.033C111.468 148.804 123.941 145.81 123.941 145.81L123.051 150.88L123.177 150.661C123.177 150.661 109.756 160.215 94.1374 143.588Z" fill="#0598C6"/>
<path d="M217.522 157.849C219.137 157.849 220.445 156.541 220.445 154.927C220.445 153.312 219.137 152.004 217.522 152.004C215.908 152.004 214.6 153.312 214.6 154.927C214.6 156.541 215.908 157.849 217.522 157.849Z" fill="#51CEF4"/>
<path d="M254.863 189.445C256.477 189.445 257.785 188.136 257.785 186.522C257.785 184.908 256.477 183.6 254.863 183.6C253.249 183.6 251.94 184.908 251.94 186.522C251.94 188.136 253.249 189.445 254.863 189.445Z" fill="#51CEF4"/>
<path d="M209.624 190.522C211.238 190.522 212.546 189.213 212.546 187.599C212.546 185.985 211.238 184.677 209.624 184.677C208.009 184.677 206.701 185.985 206.701 187.599C206.701 189.213 208.009 190.522 209.624 190.522Z" fill="#51CEF4"/>
<path d="M148.586 160.721C150.201 160.721 151.509 159.413 151.509 157.799C151.509 156.184 150.201 154.876 148.586 154.876C146.972 154.876 145.664 156.184 145.664 157.799C145.664 159.413 146.972 160.721 148.586 160.721Z" fill="#51CEF4"/>
<path d="M173.36 176.878C174.974 176.878 176.283 175.57 176.283 173.956C176.283 172.342 174.974 171.033 173.36 171.033C171.746 171.033 170.438 172.342 170.438 173.956C170.438 175.57 171.746 176.878 173.36 176.878Z" fill="#51CEF4"/>
<path d="M142.842 238.992C144.456 238.992 145.764 237.683 145.764 236.069C145.764 234.455 144.456 233.146 142.842 233.146C141.228 233.146 139.919 234.455 139.919 236.069C139.919 237.683 141.228 238.992 142.842 238.992Z" fill="#51CEF4"/>
<path d="M183.054 229.657C184.668 229.657 185.977 228.348 185.977 226.734C185.977 225.12 184.668 223.812 183.054 223.812C181.44 223.812 180.131 225.12 180.131 226.734C180.131 228.348 181.44 229.657 183.054 229.657Z" fill="#51CEF4"/>
<path d="M148.586 200.215C150.201 200.215 151.509 198.907 151.509 197.293C151.509 195.679 150.201 194.37 148.586 194.37C146.972 194.37 145.664 195.679 145.664 197.293C145.664 198.907 146.972 200.215 148.586 200.215Z" fill="#51CEF4"/>
<path d="M228.293 223.913C229.908 223.913 231.216 222.604 231.216 220.99C231.216 219.376 229.908 218.067 228.293 218.067C226.679 218.067 225.371 219.376 225.371 220.99C225.371 222.604 226.679 223.913 228.293 223.913Z" fill="#51CEF4"/>
<path d="M125.608 182.623C127.222 182.623 128.53 181.314 128.53 179.7C128.53 178.086 127.222 176.777 125.608 176.777C123.994 176.777 122.685 178.086 122.685 179.7C122.685 181.314 123.994 182.623 125.608 182.623Z" fill="#51CEF4"/>
<path d="M99.3979 167.902C101.012 167.902 102.32 166.593 102.32 164.979C102.32 163.365 101.012 162.057 99.3979 162.057C97.7838 162.057 96.4751 163.365 96.4751 164.979C96.4751 166.593 97.7838 167.902 99.3979 167.902Z" fill="#51CEF4"/>
<path d="M79.6504 190.522C81.2645 190.522 82.5728 189.213 82.5728 187.599C82.5728 185.985 81.2645 184.677 79.6504 184.677C78.0363 184.677 76.7275 185.985 76.7275 187.599C76.7275 189.213 78.0363 190.522 79.6504 190.522Z" fill="#51CEF4"/>
<path d="M96.5254 217.09C98.1395 217.09 99.4478 215.782 99.4478 214.168C99.4478 212.554 98.1395 211.245 96.5254 211.245C94.9113 211.245 93.6025 212.554 93.6025 214.168C93.6025 215.782 94.9113 217.09 96.5254 217.09Z" fill="#51CEF4"/>
<path d="M66.9976 172.911C65.0288 175.034 63.3396 177.4 61.9711 179.952C60.6014 182.492 59.5557 185.194 58.8582 187.994C58.1517 190.84 57.8197 193.766 57.8708 196.698C57.9872 202.744 59.6908 208.654 62.8112 213.835C63.005 214.154 63.2061 214.47 63.4107 214.786C63.4831 214.909 63.6016 214.999 63.74 215.035C63.8783 215.071 64.0255 215.05 64.1488 214.978C64.2721 214.906 64.3614 214.787 64.3974 214.649C64.4334 214.511 64.413 214.364 64.3406 214.24C62.7272 211.79 61.4475 209.136 60.5349 206.349C59.6364 203.581 59.1029 200.709 58.948 197.803C58.7949 194.945 59.0219 192.079 59.6229 189.28C60.2111 186.551 61.1372 183.906 62.3802 181.406C63.6289 178.893 65.1913 176.549 67.0299 174.43C67.2597 174.171 67.4896 173.913 67.7266 173.658C68.1969 173.152 67.4393 172.387 66.9654 172.897L66.9976 172.911Z" fill="black"/>
<path d="M121.956 132.271C126.121 125.952 125.813 118.814 122.229 113.005C116.485 103.713 119.321 100 117.648 93.6163C115.975 87.2326 108.176 91.5124 106.403 102.553C106.403 102.553 91.8507 99.3215 94.6189 113.575C94.6189 113.575 85.4849 116.57 92.3892 126.354C92.3892 126.354 86.7703 130.82 90.1417 137.085C93.5131 143.351 104.74 144.424 109.376 142.295" fill="#FFCDB2"/>
<path d="M103.656 143.839C98.4605 143.839 92.1665 141.997 89.6533 137.347C86.6481 131.764 90.4146 127.481 91.6641 126.278C89.4739 123.047 88.77 120.153 89.5779 117.712C90.4791 114.994 92.9711 113.679 93.9944 113.241C93.2763 109.13 93.9438 106.061 95.9652 104.082C99.0386 101.095 104.223 101.652 105.95 101.928C107.264 94.7113 111.228 90.2664 114.395 90.1084C116.19 90.0258 117.565 91.2502 118.154 93.4834C118.743 95.7166 118.79 97.6986 118.833 99.5871C118.912 103.109 118.991 106.768 122.675 112.717C126.549 118.993 126.444 126.411 122.394 132.561C122.316 132.681 122.193 132.764 122.053 132.793C121.913 132.822 121.767 132.794 121.648 132.716C121.528 132.637 121.445 132.514 121.416 132.374C121.387 132.234 121.415 132.089 121.493 131.969C125.364 126.092 125.461 119.281 121.755 113.299C117.921 107.087 117.838 103.296 117.756 99.6302C117.713 97.7165 117.673 95.9105 117.113 93.7706C116.661 92.0508 115.72 91.1353 114.449 91.1999C111.691 91.3364 108.029 95.7525 106.909 102.657C106.897 102.729 106.87 102.798 106.831 102.86C106.791 102.922 106.74 102.975 106.679 103.016C106.618 103.058 106.55 103.087 106.478 103.101C106.405 103.116 106.331 103.115 106.259 103.099C106.194 103.099 99.9186 101.734 96.7015 104.869C94.8848 106.635 94.3498 109.536 95.1181 113.486C95.1433 113.615 95.1207 113.748 95.0547 113.862C94.9886 113.975 94.8836 114.061 94.7591 114.103C94.7303 114.103 91.5277 115.202 90.587 118.053C89.8689 120.25 90.612 122.939 92.8057 126.045C92.881 126.156 92.9119 126.291 92.8927 126.424C92.8734 126.557 92.8053 126.678 92.7016 126.763C92.4862 126.935 87.4776 131.036 90.5905 136.816C93.8972 142.952 104.887 143.738 109.128 141.792C109.192 141.763 109.262 141.746 109.333 141.744C109.403 141.741 109.474 141.753 109.54 141.777C109.606 141.802 109.667 141.839 109.719 141.888C109.771 141.936 109.813 141.994 109.842 142.058C109.872 142.122 109.888 142.192 109.891 142.263C109.893 142.333 109.882 142.404 109.857 142.47C109.833 142.537 109.795 142.598 109.747 142.649C109.699 142.701 109.641 142.743 109.577 142.773C108.144 143.462 106.011 143.839 103.656 143.839Z" fill="black"/>
<path d="M91.2441 138.26C91.2441 138.26 102.439 143.427 107.76 137.233C114.223 129.693 99.861 126.056 92.9531 126.103" fill="#FFCDB2"/>
<path d="M100.195 140.838C95.6277 140.838 91.3086 138.881 91.0177 138.748C90.8939 138.685 90.7994 138.576 90.7541 138.444C90.7087 138.313 90.7159 138.169 90.7744 138.042C90.8329 137.916 90.9378 137.817 91.0675 137.767C91.1972 137.716 91.3416 137.718 91.47 137.771C91.5778 137.818 102.36 142.694 107.34 136.881C108.776 135.208 109.181 133.671 108.546 132.307C106.891 128.742 98.3311 126.612 92.9455 126.648C92.8026 126.648 92.6657 126.592 92.5647 126.491C92.4637 126.39 92.4069 126.253 92.4069 126.11C92.4069 125.967 92.4637 125.83 92.5647 125.729C92.6657 125.628 92.8026 125.571 92.9455 125.571C97.7064 125.525 107.436 127.341 109.533 131.854C110.363 133.65 109.892 135.56 108.169 137.599C106.033 140.066 103.063 140.838 100.195 140.838Z" fill="black"/>
<path d="M94.2852 113.759C94.2852 113.759 108.722 112.922 111.702 119.64C114.682 126.358 104.88 128.257 104.88 128.257" fill="#FFCDB2"/>
<path d="M104.877 128.795C104.734 128.809 104.591 128.765 104.48 128.674C104.37 128.583 104.3 128.451 104.286 128.309C104.272 128.166 104.316 128.023 104.407 127.913C104.498 127.802 104.63 127.732 104.773 127.718C104.823 127.718 109.799 126.709 111.293 123.808C111.892 122.659 111.864 121.327 111.206 119.859C108.413 113.561 94.45 114.29 94.3316 114.297C94.1887 114.306 94.0484 114.257 93.9413 114.162C93.8342 114.067 93.7693 113.934 93.7607 113.791C93.7522 113.648 93.8008 113.508 93.8957 113.401C93.9907 113.293 94.1242 113.229 94.267 113.22C94.8738 113.184 109.113 112.441 112.219 119.417C113.016 121.212 113.034 122.86 112.273 124.318C110.521 127.679 105.232 128.738 105.01 128.781L104.877 128.795Z" fill="black"/>
<path d="M106.367 102.833C106.367 102.833 115.497 104 115.289 109.946C115.124 114.613 108.108 116.049 108.108 116.049" fill="#FFCDB2"/>
<path d="M108.108 116.587C107.965 116.602 107.822 116.559 107.711 116.468C107.6 116.377 107.53 116.246 107.515 116.103C107.501 115.96 107.544 115.817 107.635 115.706C107.726 115.595 107.857 115.525 108 115.51C108.068 115.51 114.603 114.117 114.75 109.917C114.94 104.531 106.384 103.368 106.298 103.357C106.155 103.339 106.026 103.265 105.937 103.151C105.849 103.037 105.81 102.893 105.828 102.75C105.846 102.607 105.92 102.477 106.034 102.389C106.148 102.301 106.292 102.262 106.435 102.28C106.826 102.33 116.05 103.583 115.827 109.945C115.648 114.997 108.517 116.498 108.215 116.559C108.181 116.572 108.145 116.582 108.108 116.587Z" fill="black"/>
<path d="M111.304 124.992C111.304 124.992 121.544 128.414 118.427 134.65L111.304 124.992Z" fill="#FFCDB2"/>
<path d="M118.427 135.189C118.335 135.189 118.245 135.166 118.165 135.121C118.085 135.076 118.018 135.012 117.969 134.934C117.921 134.856 117.894 134.767 117.89 134.675C117.885 134.583 117.905 134.492 117.946 134.41C118.253 133.865 118.433 133.257 118.471 132.632C118.51 132.007 118.406 131.381 118.168 130.802C116.772 127.427 111.189 125.524 111.131 125.506C110.996 125.458 110.884 125.359 110.822 125.229C110.76 125.1 110.752 124.951 110.799 124.815C110.847 124.679 110.946 124.568 111.076 124.506C111.205 124.443 111.355 124.435 111.49 124.483C111.742 124.565 117.594 126.558 119.181 130.389C119.477 131.111 119.607 131.89 119.563 132.669C119.519 133.448 119.301 134.207 118.926 134.891C118.88 134.984 118.809 135.061 118.72 135.113C118.632 135.166 118.53 135.193 118.427 135.189Z" fill="black"/>
<path d="M135.754 190.371C135.754 190.371 126.778 215.087 125.701 227.862L135.754 190.371Z" fill="#382256"/>
<path d="M125.694 228.401H125.647C125.505 228.388 125.374 228.32 125.282 228.211C125.19 228.102 125.144 227.961 125.155 227.819C126.233 215.12 135.158 190.436 135.248 190.188C135.267 190.117 135.302 190.05 135.348 189.992C135.395 189.935 135.453 189.887 135.518 189.853C135.584 189.819 135.656 189.799 135.73 189.793C135.803 189.788 135.878 189.798 135.947 189.823C136.017 189.848 136.081 189.887 136.135 189.937C136.189 189.988 136.232 190.049 136.262 190.117C136.291 190.185 136.306 190.258 136.306 190.332C136.305 190.406 136.29 190.479 136.26 190.547C136.171 190.795 127.284 215.346 126.229 227.887C126.223 228.025 126.164 228.156 126.065 228.252C125.965 228.347 125.832 228.401 125.694 228.401Z" fill="black"/>
<path d="M76.8715 120.178C76.8091 120.178 76.7472 120.167 76.6885 120.146C67.2301 116.77 58.9047 110.815 52.6541 102.955C47.5772 96.6176 43.5955 88.909 40.8057 80.0371C36.0736 64.9573 36.4687 51.5364 36.4723 51.4035C36.4789 51.2613 36.5405 51.1273 36.6445 51.03C36.7485 50.9328 36.8864 50.88 37.0288 50.8829C37.0995 50.8852 37.1691 50.9015 37.2335 50.9307C37.298 50.9599 37.3559 51.0016 37.4043 51.0533C37.4526 51.105 37.4902 51.1657 37.5151 51.2319C37.54 51.2982 37.5519 51.3687 37.5495 51.4395C37.5495 51.5723 37.1617 64.8317 41.8579 79.7463C46.1664 93.4581 55.7671 111.421 77.0619 119.133C77.1809 119.176 77.2807 119.26 77.3441 119.37C77.4075 119.479 77.4305 119.608 77.4087 119.732C77.3868 119.857 77.3215 119.97 77.2246 120.052C77.1277 120.133 77.0051 120.178 76.8785 120.178H76.8715Z" fill="black"/>
<path d="M61.0124 123.381H60.9658C50.1945 122.422 42.3494 115.748 37.6782 110.319C34.6362 106.79 32.0755 102.873 30.063 98.6715C30.0281 98.606 30.0074 98.534 30.0016 98.4601C29.9959 98.3861 30.0053 98.3118 30.0297 98.2417C30.054 98.1716 30.0926 98.1073 30.1429 98.0528C30.1933 97.9984 30.2545 97.9549 30.3225 97.9251C30.3904 97.8954 30.4635 97.88 30.5377 97.8799C30.6119 97.8798 30.6854 97.895 30.7534 97.9247C30.8214 97.9543 30.8828 97.9977 30.9332 98.052C30.9837 98.1064 31.0224 98.1706 31.0468 98.2407C31.1474 98.4633 41.0999 120.534 61.0591 122.296C61.2019 122.303 61.3365 122.365 61.4332 122.471C61.5298 122.576 61.5803 122.715 61.5741 122.858C61.5679 123.001 61.5056 123.136 61.4002 123.232C61.2948 123.329 61.1553 123.38 61.0124 123.374V123.381Z" fill="black"/>
<path d="M156.126 265.92C157.741 265.92 159.049 264.612 159.049 262.998C159.049 261.384 157.741 260.075 156.126 260.075C154.512 260.075 153.204 261.384 153.204 262.998C153.204 264.612 154.512 265.92 156.126 265.92Z" fill="#51CEF4"/>
<path d="M262.402 227.862C264.016 227.862 265.325 226.553 265.325 224.939C265.325 223.325 264.016 222.017 262.402 222.017C260.788 222.017 259.479 223.325 259.479 224.939C259.479 226.553 260.788 227.862 262.402 227.862Z" fill="#51CEF4"/>
<path d="M249.118 247.609C250.732 247.609 252.041 246.3 252.041 244.686C252.041 243.072 250.732 241.764 249.118 241.764C247.504 241.764 246.195 243.072 246.195 244.686C246.195 246.3 247.504 247.609 249.118 247.609Z" fill="#51CEF4"/>
<path d="M190.235 263.407C191.849 263.407 193.158 262.098 193.158 260.484C193.158 258.87 191.849 257.562 190.235 257.562C188.621 257.562 187.312 258.87 187.312 260.484C187.312 262.098 188.621 263.407 190.235 263.407Z" fill="#51CEF4"/>
<path d="M172.865 96.122C172.562 96.1224 172.26 96.1068 171.96 96.0754C165.418 95.4147 159.393 87.76 159.138 87.4333C158.963 87.2076 158.885 86.9215 158.921 86.638C158.956 86.3546 159.103 86.0969 159.329 85.9217C159.554 85.7465 159.84 85.6681 160.124 85.7038C160.407 85.7394 160.665 85.8863 160.84 86.112C160.894 86.1838 166.556 93.3682 172.182 93.9319C173.028 94.0294 173.886 93.9446 174.696 93.6833C175.507 93.4219 176.252 92.9901 176.882 92.4168C176.99 92.3248 177.114 92.2549 177.249 92.2111C177.383 92.1673 177.525 92.1505 177.666 92.1615C177.807 92.1725 177.945 92.2111 178.071 92.2752C178.197 92.3394 178.309 92.4277 178.401 92.5352C178.493 92.6427 178.563 92.7673 178.606 92.9018C178.65 93.0363 178.667 93.1781 178.656 93.3191C178.645 93.4602 178.606 93.5976 178.542 93.7237C178.478 93.8498 178.39 93.962 178.282 94.054C176.792 95.3854 174.863 96.1216 172.865 96.122Z" fill="white"/>
<path d="M184.354 61.3961C184.144 61.3965 183.937 61.3352 183.761 61.2197C183.585 61.1042 183.446 60.9396 183.363 60.7462C179.166 51.0521 169.001 54.7071 168.574 54.8651C168.307 54.9656 168.01 54.9556 167.75 54.8375C167.49 54.7193 167.287 54.5026 167.186 54.235C167.086 53.9674 167.096 53.6709 167.214 53.4107C167.332 53.1504 167.549 52.9478 167.816 52.8473C167.942 52.8006 180.326 48.3126 185.342 59.8917C185.454 60.1536 185.459 60.4496 185.354 60.7148C185.249 60.98 185.043 61.1928 184.781 61.3064C184.646 61.3651 184.501 61.3957 184.354 61.3961Z" fill="white"/>
<path d="M127.317 248.715H127.295C127.154 248.712 127.014 248.681 126.885 248.625C126.755 248.568 126.638 248.486 126.54 248.384C126.442 248.282 126.365 248.162 126.313 248.03C126.262 247.898 126.237 247.758 126.239 247.616C126.958 212.226 138.806 189.2 138.928 188.974C139.06 188.721 139.288 188.53 139.56 188.445C139.833 188.359 140.129 188.386 140.382 188.518C140.635 188.65 140.826 188.878 140.911 189.151C140.997 189.423 140.971 189.719 140.838 189.972C140.72 190.198 129.097 212.811 128.394 247.659C128.388 247.941 128.272 248.21 128.071 248.407C127.869 248.604 127.599 248.715 127.317 248.715Z" fill="white"/>
<path d="M129.471 263.795C129.205 263.797 128.948 263.7 128.749 263.524C128.55 263.348 128.424 263.104 128.394 262.84L127.316 253.505C127.284 253.219 127.367 252.932 127.546 252.708C127.725 252.483 127.986 252.338 128.272 252.306C128.557 252.273 128.844 252.356 129.069 252.535C129.294 252.714 129.438 252.975 129.471 253.261L130.548 262.596C130.58 262.88 130.498 263.165 130.321 263.388C130.143 263.612 129.884 263.755 129.6 263.788L129.471 263.795Z" fill="white"/>
<path d="M78.8458 164.699C78.7476 164.698 78.65 164.685 78.5551 164.659C78.4188 164.621 78.2913 164.557 78.1799 164.469C78.0686 164.382 77.9755 164.273 77.9061 164.15C77.8368 164.027 77.7925 163.891 77.7757 163.75C77.7588 163.61 77.77 163.467 77.8083 163.331C82.2389 147.454 92.9167 144.891 93.3691 144.79C93.6439 144.737 93.9283 144.793 94.1625 144.946C94.3968 145.099 94.5624 145.338 94.624 145.611C94.6856 145.884 94.6382 146.17 94.4925 146.409C94.3467 146.648 94.1137 146.82 93.8428 146.89C93.4299 146.987 83.9476 149.353 79.8833 163.913C79.8198 164.139 79.6842 164.338 79.4969 164.48C79.3096 164.622 79.0808 164.699 78.8458 164.699Z" fill="white"/>
<path d="M112.955 109.407C112.69 109.407 112.435 109.31 112.237 109.134C106.32 103.877 99.0315 106.445 98.9525 106.47C98.6839 106.568 98.3874 106.555 98.1281 106.435C97.8689 106.314 97.6684 106.096 97.5703 105.827C97.4722 105.558 97.4848 105.262 97.6054 105.003C97.7259 104.743 97.9445 104.543 98.213 104.445C98.572 104.319 106.798 101.422 113.652 107.525C113.815 107.671 113.93 107.862 113.982 108.074C114.033 108.287 114.019 108.51 113.941 108.714C113.863 108.918 113.726 109.093 113.546 109.217C113.366 109.341 113.152 109.407 112.934 109.407H112.955Z" fill="white"/>
<path d="M110.083 121.255C109.808 121.255 109.543 121.15 109.343 120.961C103.721 115.668 93.1577 117.625 93.0536 117.647C92.7727 117.701 92.4817 117.641 92.2447 117.481C92.0077 117.321 91.8439 117.073 91.7896 116.792C91.7353 116.511 91.7949 116.22 91.9551 115.983C92.1154 115.746 92.3632 115.583 92.6441 115.528C93.1216 115.439 104.388 113.342 110.822 119.395C110.979 119.543 111.088 119.735 111.134 119.945C111.181 120.156 111.163 120.376 111.084 120.576C111.004 120.776 110.866 120.948 110.687 121.069C110.509 121.19 110.298 121.255 110.083 121.255Z" fill="white"/>
<path d="M246.856 172.182C236.885 157.5 227.583 147.591 219.63 153.256C206.844 162.365 228.387 186.78 216.312 208.369C209.386 220.749 211.645 241.24 223.615 249.537C235.585 257.834 258.808 189.778 246.856 172.182Z" fill="#FFCDB2"/>
<path d="M225.755 250.772C224.876 250.768 224.021 250.492 223.306 249.982C210.779 241.279 209.005 220.326 215.841 208.107C221.981 197.128 219.306 185.488 216.947 175.248C214.75 165.687 212.847 157.429 219.317 152.819C220.267 152.108 221.353 151.601 222.508 151.33C223.663 151.06 224.861 151.031 226.027 151.246C231.743 152.273 238.307 158.635 247.301 171.88C251.774 178.469 251.828 193.114 247.437 211.059C243.448 227.37 236.831 242.227 230.968 248.04C228.889 250.09 227.148 250.772 225.755 250.772ZM224.423 152.176C222.805 152.191 221.235 152.723 219.942 153.695C214.061 157.888 215.799 165.442 217.999 175.007C220.401 185.452 223.123 197.289 216.782 208.632C213.475 214.545 212.215 222.681 213.418 230.4C214.678 238.522 218.506 245.336 223.924 249.096C225.654 250.298 227.769 249.684 230.21 247.268C235.955 241.592 242.447 226.939 246.392 210.804C250.701 193.15 250.701 178.824 246.41 172.483C240.472 163.744 232.767 153.551 225.837 152.305C225.371 152.22 224.897 152.177 224.423 152.176Z" fill="black"/>
<path d="M277.558 298.913L231.184 297.836C217.54 297.581 202.891 286.418 207.343 274.232L256.697 134.946C261.153 122.76 275.83 113.091 289.485 113.346L347.707 114.423C363.745 116.049 366.259 132.206 358.36 149.44L310.341 279.826C305.889 292.012 303.426 298.801 277.558 298.913Z" fill="#382256"/>
<path d="M288.953 113.356H289.485L347.707 114.433C363.745 116.06 366.259 132.217 358.36 149.451L310.341 279.836C305.889 292.022 303.426 298.812 277.557 298.923L231.184 297.846C217.54 297.591 202.891 286.428 207.343 274.243L256.697 134.956C261.095 122.928 275.45 113.353 288.953 113.353V113.356ZM288.953 112.275C282.203 112.275 275.051 114.573 268.811 118.738C262.571 122.903 257.889 128.551 255.685 134.575L206.331 273.884C204.672 278.418 205.358 283.111 208.323 287.434C212.844 294.029 222.236 298.754 231.162 298.923L277.532 300H277.561C290.034 299.946 297.757 298.338 302.608 294.783C307.275 291.362 309.07 286.45 311.343 280.235V280.206L359.347 149.874C364.492 138.625 365.189 128.242 361.261 121.381C358.618 116.767 353.965 113.995 347.804 113.37H347.714L289.492 112.293L288.953 112.275Z" fill="black"/>
<path d="M275.812 289.907L225.482 288.959C212.998 288.726 206.18 279.506 210.251 268.365L258.818 135.498C262.89 124.367 276.311 115.521 288.791 115.75L339.125 116.698C351.606 116.932 358.424 126.152 354.352 137.293L305.788 270.16C301.717 281.301 288.296 290.14 275.812 289.907Z" fill="white"/>
<path d="M276.297 290.449H275.801L225.471 289.501C219.037 289.383 213.874 286.959 210.944 282.679C208.212 278.694 207.788 273.545 209.745 268.185L258.312 135.318C262.452 123.997 276.121 114.971 288.802 115.212L339.136 116.16C345.57 116.278 350.73 118.702 353.663 122.981C356.396 126.967 356.819 132.115 354.859 137.476L306.295 270.343C302.209 281.52 288.831 290.449 276.297 290.449ZM275.823 289.372C288.07 289.616 301.29 280.902 305.265 269.984L353.828 137.117C355.667 132.09 355.286 127.29 352.751 123.599C350.023 119.617 345.172 117.359 339.108 117.247L288.777 116.3H288.3C276.186 116.3 263.257 124.917 259.318 135.688L210.75 268.555C208.916 273.581 209.314 278.382 211.827 282.073C214.56 286.054 219.41 288.313 225.489 288.424L275.823 289.372Z" fill="black"/>
<path d="M320.1 186.565L257.839 185.394L274.462 139.922L336.724 141.092L320.1 186.565Z" fill="white"/>
<path d="M274.462 139.925L336.724 141.095L320.1 186.568L257.839 185.397L274.462 139.925ZM274.462 138.848C274.24 138.848 274.023 138.918 273.842 139.046C273.661 139.175 273.524 139.356 273.45 139.566L256.83 185.038C256.773 185.199 256.755 185.371 256.777 185.539C256.8 185.708 256.862 185.869 256.959 186.009C257.055 186.149 257.184 186.265 257.334 186.346C257.484 186.426 257.651 186.471 257.821 186.474L320.082 187.645H320.1C320.322 187.644 320.539 187.575 320.72 187.446C320.901 187.318 321.038 187.136 321.112 186.927L337.736 141.454C337.793 141.293 337.811 141.121 337.788 140.952C337.766 140.783 337.703 140.622 337.606 140.482C337.509 140.342 337.38 140.226 337.23 140.146C337.079 140.065 336.912 140.021 336.742 140.018L274.48 138.848H274.462Z" fill="black"/>
<path d="M290.012 159.015C289.944 159.014 289.876 159.001 289.811 158.976C289.744 158.949 289.683 158.909 289.631 158.858C289.58 158.807 289.538 158.746 289.511 158.679C289.483 158.612 289.469 158.541 289.469 158.468C289.47 158.396 289.485 158.324 289.513 158.257C289.722 157.748 294.659 145.759 300.357 143.749C302.604 142.955 303.979 143.652 304.733 144.373C306.916 146.467 307.088 151.863 305.178 158.121C305.136 158.258 305.042 158.372 304.915 158.44C304.789 158.507 304.641 158.522 304.503 158.48C304.435 158.46 304.372 158.427 304.317 158.382C304.262 158.337 304.217 158.282 304.184 158.219C304.15 158.157 304.129 158.088 304.123 158.018C304.116 157.947 304.123 157.876 304.144 157.809C305.911 152.021 305.846 146.937 303.983 145.152C303.204 144.402 302.102 144.273 300.712 144.761C295.466 146.614 290.558 158.545 290.508 158.663C290.471 158.765 290.404 158.854 290.316 158.917C290.227 158.98 290.121 159.014 290.012 159.015Z" fill="black"/>
<path d="M285.647 153.763L268.671 176.594L309.76 177.37L312.869 154.276L285.647 153.763Z" fill="#4BD657"/>
<path d="M309.756 177.905L268.668 177.133C268.569 177.131 268.472 177.102 268.389 177.049C268.306 176.997 268.238 176.922 268.194 176.833C268.151 176.745 268.132 176.646 268.141 176.547C268.149 176.449 268.185 176.355 268.244 176.275L285.219 153.444C285.271 153.375 285.338 153.32 285.414 153.282C285.491 153.244 285.575 153.224 285.661 153.225L312.887 153.738C312.963 153.739 313.038 153.757 313.107 153.789C313.176 153.821 313.236 153.868 313.286 153.926C313.336 153.983 313.372 154.051 313.394 154.124C313.416 154.196 313.421 154.273 313.411 154.348L310.298 177.438C310.281 177.569 310.216 177.689 310.116 177.775C310.016 177.861 309.888 177.907 309.756 177.905ZM269.727 176.078L309.29 176.821L312.255 154.804L285.912 154.309L269.727 176.078Z" fill="black"/>
<path d="M303.017 167.855C302.948 167.856 302.879 167.843 302.816 167.815C302.748 167.789 302.687 167.749 302.635 167.698C302.583 167.648 302.542 167.587 302.514 167.52C302.486 167.453 302.472 167.381 302.473 167.308C302.473 167.236 302.489 167.164 302.518 167.097C302.658 166.738 305.951 158.76 309.792 157.403C311.365 156.847 312.334 157.342 312.873 157.859C314.384 159.295 314.517 162.861 313.232 167.13C313.19 167.266 313.095 167.381 312.969 167.448C312.843 167.515 312.695 167.529 312.558 167.487C312.422 167.445 312.307 167.35 312.24 167.224C312.173 167.098 312.16 166.95 312.202 166.814C313.35 163.054 313.325 159.769 312.144 158.635C311.674 158.186 311.027 158.114 310.169 158.419C306.78 159.615 303.566 167.424 303.534 167.503C303.496 167.609 303.426 167.7 303.333 167.763C303.24 167.826 303.13 167.858 303.017 167.855Z" fill="black"/>
<path d="M300.131 164.203L288.914 179.29L316.065 179.8L318.122 164.541L300.131 164.203Z" fill="#07ACEE"/>
<path d="M316.065 180.339L288.911 179.829C288.812 179.827 288.715 179.798 288.632 179.745C288.548 179.692 288.481 179.618 288.437 179.529C288.394 179.44 288.375 179.341 288.384 179.243C288.393 179.145 288.428 179.05 288.487 178.971L299.707 163.891C299.76 163.825 299.827 163.771 299.904 163.734C299.98 163.697 300.064 163.677 300.149 163.676L318.14 164.013C318.216 164.015 318.29 164.033 318.359 164.065C318.428 164.097 318.489 164.143 318.539 164.2C318.587 164.258 318.624 164.326 318.645 164.399C318.667 164.472 318.674 164.548 318.664 164.624L316.607 179.883C316.587 180.012 316.521 180.129 316.421 180.213C316.322 180.296 316.195 180.341 316.065 180.339ZM289.969 178.773L315.598 179.255L317.508 165.069L300.396 164.746L289.969 178.773Z" fill="black"/>
<path d="M274.933 218.641L250.877 218.189C247.567 218.124 245.761 215.675 246.842 212.728L250.87 201.705C251.947 198.754 255.506 196.409 258.816 196.474L282.872 196.926C286.182 196.987 287.988 199.44 286.907 202.384L282.879 213.406C281.802 216.358 278.244 218.702 274.933 218.641Z" fill="#07ACEE"/>
<path d="M258.679 196.47H258.808L282.864 196.923C286.175 196.984 287.98 199.436 286.9 202.38L282.871 213.403C281.794 216.318 278.33 218.638 275.055 218.638H274.926L250.87 218.185C247.56 218.121 245.754 215.672 246.834 212.724L250.863 201.702C251.94 198.79 255.408 196.467 258.679 196.467V196.47ZM258.679 195.39C254.945 195.39 251.067 198 249.85 201.332L245.822 212.354C245.197 214.067 245.348 215.733 246.246 217.047C247.186 218.415 248.863 219.223 250.848 219.262L274.904 219.715H275.051C278.785 219.715 282.663 217.104 283.88 213.773L287.909 202.75C288.533 201.037 288.386 199.371 287.485 198.057C286.548 196.689 284.868 195.882 282.882 195.846L258.826 195.393L258.679 195.39Z" fill="black"/>
<path d="M264.945 245.975L240.889 245.523C237.582 245.462 235.773 243.009 236.853 240.065L240.882 229.043C241.959 226.088 245.517 223.747 248.827 223.808L272.883 224.26C276.193 224.321 277.999 226.774 276.919 229.718L272.89 240.74C271.81 243.688 268.252 246.036 264.945 245.975Z" fill="#4BD657"/>
<path d="M265.07 246.514H264.934L240.878 246.061C239.083 246.025 237.55 245.304 236.709 244.079C235.912 242.916 235.783 241.422 236.35 239.878L240.379 228.856C241.528 225.711 245.326 223.223 248.841 223.269L272.897 223.722C274.692 223.758 276.229 224.479 277.066 225.704C277.867 226.867 277.996 228.36 277.425 229.904L273.397 240.927C272.258 244.047 268.546 246.514 265.07 246.514ZM264.952 245.436C268.047 245.498 271.379 243.304 272.38 240.557L276.412 229.535C276.854 228.325 276.771 227.183 276.172 226.303C275.522 225.355 274.348 224.82 272.869 224.792L248.813 224.339C245.721 224.296 242.39 226.472 241.384 229.219L237.356 240.241C236.914 241.451 236.997 242.593 237.593 243.472C238.243 244.42 239.417 244.955 240.896 244.984L264.952 245.436Z" fill="black"/>
<path d="M253.926 276.12L229.87 275.667C226.563 275.606 224.754 273.154 225.834 270.21L229.863 259.187C230.94 256.232 234.498 253.891 237.809 253.952L261.864 254.405C265.175 254.466 266.981 256.918 265.904 259.862L261.871 270.885C260.791 273.847 257.233 276.181 253.926 276.12Z" fill="white"/>
<path d="M254.059 276.658H253.922L229.866 276.206C228.071 276.17 226.538 275.448 225.698 274.224C224.901 273.061 224.771 271.567 225.339 270.023L229.367 259.001C230.52 255.855 234.304 253.36 237.83 253.414L261.886 253.866C263.681 253.902 265.218 254.624 266.054 255.848C266.855 257.012 266.984 258.505 266.413 260.049L262.385 271.072C261.239 274.177 257.527 276.658 254.059 276.658ZM253.94 275.581H254.062C257.117 275.581 260.378 273.427 261.369 270.702L265.401 259.679C265.842 258.469 265.76 257.327 265.16 256.448C264.51 255.5 263.34 254.965 261.857 254.936L237.801 254.484C234.695 254.426 231.378 256.617 230.373 259.363L226.344 270.386C225.902 271.596 225.985 272.738 226.581 273.617C227.231 274.565 228.405 275.1 229.884 275.129L253.94 275.581Z" fill="black"/>
<path d="M307.958 212.022C312.655 207.992 314.152 202.033 311.302 198.711C308.453 195.39 302.335 195.964 297.638 199.994C292.941 204.024 291.444 209.983 294.294 213.305C297.143 216.626 303.261 216.052 307.958 212.022Z" fill="#07ACEE"/>
<path d="M299.707 216.3H299.524C296.985 216.253 294.907 215.223 293.672 213.428C292.325 211.464 292.135 208.738 293.154 205.949C295.133 200.538 301.082 196.215 306.439 196.319C308.977 196.366 311.053 197.396 312.292 199.192C313.638 201.156 313.825 203.881 312.805 206.67C310.866 212.017 305.014 216.3 299.707 216.3ZM306.263 197.389C301.377 197.389 295.977 201.36 294.167 206.315C293.269 208.774 293.413 211.14 294.558 212.817C295.592 214.325 297.362 215.18 299.542 215.219C304.468 215.316 309.976 211.309 311.807 206.297C312.708 203.838 312.564 201.471 311.415 199.795C310.381 198.287 308.611 197.432 306.432 197.393L306.263 197.389Z" fill="black"/>
<path d="M297.221 241.403C301.917 237.373 303.415 231.413 300.565 228.092C297.715 224.771 291.598 225.345 286.901 229.375C282.204 233.405 280.707 239.364 283.556 242.686C286.406 246.007 292.524 245.433 297.221 241.403Z" fill="#07ACEE"/>
<path d="M288.968 245.677H288.785C286.246 245.626 284.168 244.6 282.933 242.804C281.586 240.84 281.396 238.112 282.416 235.325C284.373 229.976 290.225 225.692 295.531 225.692H295.714C298.253 225.743 300.328 226.77 301.567 228.565C302.913 230.529 303.1 233.257 302.08 236.044C300.127 241.393 294.271 245.677 288.968 245.677ZM295.524 226.77C290.638 226.77 285.238 230.719 283.428 235.695C282.53 238.151 282.674 240.521 283.819 242.194C284.853 243.706 286.623 244.556 288.803 244.6C293.725 244.7 299.237 240.69 301.068 235.674C301.969 233.218 301.825 230.848 300.676 229.175C299.642 227.667 297.872 226.813 295.693 226.77H295.524Z" fill="black"/>
<path d="M286.205 271.549C290.902 267.519 292.4 261.56 289.55 258.238C286.7 254.917 280.582 255.492 275.886 259.522C271.189 263.551 269.691 269.511 272.541 272.832C275.391 276.153 281.509 275.579 286.205 271.549Z" fill="#07ACEE"/>
<path d="M277.949 275.822H277.766C275.227 275.772 273.148 274.745 271.913 272.95C270.567 270.986 270.376 268.257 271.396 265.471C273.353 260.121 279.205 255.838 284.512 255.838H284.695C287.233 255.888 289.312 256.915 290.547 258.71C291.894 260.678 292.08 263.403 291.061 266.189C289.107 271.539 283.255 275.822 277.949 275.822ZM284.505 256.915C279.618 256.915 274.222 260.864 272.409 265.841C271.511 268.297 271.655 270.666 272.8 272.339C273.834 273.851 275.604 274.702 277.783 274.745C282.72 274.853 288.217 270.835 290.048 265.819C290.95 263.363 290.806 260.994 289.657 259.321C288.623 257.813 286.853 256.958 284.673 256.915H284.505Z" fill="black"/>
<path d="M275.511 206.348L258.119 206.022C257.976 206.019 257.84 205.959 257.741 205.856C257.643 205.753 257.589 205.615 257.591 205.472C257.594 205.329 257.654 205.194 257.757 205.095C257.86 204.996 257.998 204.942 258.141 204.944L275.533 205.271C275.675 205.271 275.813 205.328 275.914 205.429C276.015 205.53 276.071 205.667 276.071 205.81C276.071 205.953 276.015 206.09 275.914 206.191C275.813 206.292 275.675 206.348 275.533 206.348H275.511Z" fill="black"/>
<path d="M268.323 212.11L257.232 211.901C257.09 211.901 256.953 211.845 256.852 211.744C256.751 211.643 256.694 211.506 256.694 211.363C256.694 211.22 256.751 211.083 256.852 210.982C256.953 210.881 257.09 210.824 257.232 210.824L268.323 211.032C268.466 211.032 268.603 211.089 268.704 211.19C268.805 211.291 268.862 211.428 268.862 211.571C268.862 211.714 268.805 211.851 268.704 211.952C268.603 212.053 268.466 212.11 268.323 212.11Z" fill="black"/>
<path d="M264.772 235.707L247.38 235.38C247.309 235.379 247.239 235.364 247.174 235.336C247.109 235.307 247.05 235.267 247.001 235.216C246.952 235.164 246.914 235.104 246.888 235.038C246.863 234.972 246.85 234.901 246.852 234.831C246.857 234.688 246.917 234.554 247.02 234.455C247.122 234.356 247.259 234.302 247.402 234.303L264.794 234.629C264.937 234.629 265.074 234.686 265.175 234.787C265.276 234.888 265.332 235.025 265.332 235.168C265.332 235.311 265.276 235.448 265.175 235.549C265.074 235.65 264.937 235.707 264.794 235.707H264.772Z" fill="black"/>
<path d="M246.49 269.061L235.148 268.846C235.077 268.844 235.007 268.829 234.942 268.801C234.878 268.772 234.819 268.731 234.77 268.68C234.721 268.629 234.683 268.569 234.657 268.503C234.631 268.437 234.619 268.367 234.62 268.296C234.622 268.226 234.637 268.156 234.665 268.091C234.693 268.026 234.734 267.968 234.785 267.919C234.836 267.87 234.897 267.831 234.962 267.805C235.028 267.78 235.099 267.767 235.169 267.769L246.512 267.984C246.655 267.984 246.791 268.041 246.892 268.142C246.993 268.243 247.05 268.38 247.05 268.523C247.05 268.665 246.993 268.802 246.892 268.903C246.791 269.004 246.655 269.061 246.512 269.061H246.49Z" fill="black"/>
<path d="M254.594 263.554L237.202 263.228C237.131 263.226 237.061 263.211 236.997 263.182C236.932 263.154 236.873 263.113 236.824 263.062C236.775 263.011 236.737 262.951 236.711 262.885C236.685 262.819 236.673 262.749 236.674 262.678C236.679 262.536 236.739 262.401 236.841 262.303C236.944 262.204 237.081 262.149 237.223 262.15L254.615 262.477C254.758 262.477 254.895 262.534 254.996 262.635C255.097 262.736 255.154 262.873 255.154 263.016C255.154 263.159 255.097 263.296 254.996 263.397C254.895 263.498 254.758 263.554 254.615 263.554H254.594Z" fill="black"/>
<path d="M278.29 263.46L277.999 269.115L286.282 261.036" fill="#07ACEE"/>
<path d="M277.999 269.65C277.926 269.65 277.854 269.636 277.786 269.607C277.719 269.579 277.658 269.537 277.608 269.484C277.557 269.431 277.518 269.369 277.493 269.3C277.467 269.232 277.456 269.159 277.46 269.086L277.751 263.431C277.759 263.288 277.823 263.154 277.929 263.059C278.036 262.963 278.176 262.914 278.319 262.921C278.461 262.929 278.595 262.993 278.691 263.099C278.787 263.206 278.836 263.346 278.828 263.488L278.606 267.768L285.905 260.652C285.955 260.6 286.015 260.559 286.081 260.53C286.148 260.502 286.219 260.487 286.291 260.487C286.364 260.487 286.435 260.502 286.502 260.53C286.568 260.558 286.629 260.599 286.679 260.65C286.729 260.702 286.768 260.764 286.795 260.831C286.821 260.898 286.833 260.97 286.831 261.042C286.829 261.114 286.812 261.185 286.782 261.251C286.752 261.316 286.709 261.375 286.655 261.424L278.376 269.499C278.275 269.596 278.139 269.65 277.999 269.65Z" fill="black"/>
<path d="M289.123 233.826L290.408 240.023L298.756 232.465" fill="#07ACEE"/>
<path d="M290.408 240.561C290.352 240.561 290.296 240.553 290.243 240.536C290.153 240.506 290.072 240.453 290.009 240.382C289.946 240.312 289.903 240.226 289.884 240.133L288.598 233.936C288.569 233.796 288.597 233.651 288.675 233.531C288.754 233.412 288.876 233.328 289.016 233.299C289.156 233.27 289.302 233.298 289.422 233.376C289.541 233.455 289.625 233.577 289.654 233.717L290.749 238.992L298.396 232.066C298.447 232.011 298.509 231.967 298.578 231.938C298.646 231.908 298.72 231.893 298.795 231.894C298.87 231.894 298.944 231.91 299.012 231.941C299.08 231.972 299.141 232.016 299.191 232.072C299.241 232.127 299.279 232.193 299.302 232.264C299.326 232.335 299.334 232.41 299.327 232.484C299.32 232.559 299.297 232.631 299.261 232.696C299.224 232.761 299.174 232.818 299.114 232.863L290.767 240.421C290.669 240.511 290.541 240.561 290.408 240.561Z" fill="black"/>
<path d="M299.01 204.69L300.773 211.666L307.383 203.304" fill="#07ACEE"/>
<path d="M300.773 212.204C300.736 212.208 300.699 212.208 300.662 212.204C300.563 212.183 300.473 212.135 300.401 212.065C300.328 211.995 300.277 211.907 300.252 211.809L298.49 204.833C298.466 204.763 298.458 204.689 298.465 204.615C298.471 204.542 298.493 204.47 298.529 204.406C298.564 204.341 298.612 204.284 298.671 204.239C298.729 204.194 298.796 204.161 298.868 204.142C298.939 204.124 299.014 204.121 299.087 204.133C299.16 204.144 299.229 204.171 299.291 204.211C299.354 204.251 299.407 204.303 299.448 204.364C299.489 204.426 299.518 204.495 299.531 204.567L301.028 210.488L306.963 202.98C307.005 202.921 307.06 202.872 307.122 202.834C307.184 202.796 307.254 202.772 307.326 202.762C307.398 202.752 307.471 202.757 307.541 202.776C307.611 202.795 307.677 202.828 307.734 202.873C307.791 202.918 307.838 202.975 307.873 203.038C307.908 203.102 307.929 203.173 307.936 203.245C307.943 203.318 307.935 203.391 307.913 203.46C307.89 203.529 307.854 203.593 307.807 203.648L301.197 212.01C301.145 212.073 301.081 212.122 301.007 212.156C300.934 212.19 300.854 212.206 300.773 212.204Z" fill="black"/>
<path d="M340.149 192.1C340.149 192.1 320.56 169.194 338.157 157.905C355.753 146.617 371.023 165.542 365.049 183.469C359.074 201.396 342.788 203.723 333.841 208.369" fill="#FFCDB2"/>
<path d="M333.841 208.907C333.72 208.907 333.603 208.866 333.509 208.792C333.414 208.717 333.347 208.613 333.319 208.496C333.29 208.379 333.302 208.256 333.351 208.146C333.401 208.037 333.486 207.947 333.593 207.891C335.496 206.904 337.722 206.021 340.077 205.087C348.906 201.586 359.893 197.231 364.539 183.297C367.648 173.962 364.995 163.69 358.076 158.311C352.457 153.942 345.297 153.96 338.44 158.358C334.454 160.914 332.124 164.3 331.518 168.411C329.927 179.182 340.444 191.616 340.551 191.749C340.598 191.802 340.634 191.865 340.657 191.933C340.68 192 340.69 192.072 340.685 192.143C340.681 192.215 340.662 192.284 340.63 192.348C340.599 192.413 340.554 192.47 340.501 192.517C340.447 192.564 340.385 192.6 340.317 192.623C340.249 192.646 340.178 192.656 340.106 192.651C340.035 192.646 339.965 192.628 339.901 192.596C339.837 192.565 339.78 192.521 339.733 192.467C339.284 191.943 328.792 179.52 330.451 168.282C331.105 163.837 333.597 160.2 337.858 157.467C345.125 152.8 352.733 152.8 358.736 157.467C366.003 163.119 368.79 173.883 365.558 183.642C360.754 198.05 349.509 202.509 340.476 206.092C338.146 207.015 335.941 207.888 334.088 208.85C334.012 208.889 333.927 208.909 333.841 208.907Z" fill="black"/>
<path d="M333.507 221.65C333.507 221.65 313.921 198.743 331.518 187.455C349.114 176.166 364.384 195.088 358.41 213.018C352.435 230.949 336.149 233.268 327.198 237.918" fill="#FFCDB2"/>
<path d="M327.198 238.456C327.078 238.456 326.961 238.415 326.866 238.341C326.771 238.266 326.705 238.162 326.676 238.045C326.647 237.928 326.659 237.805 326.709 237.695C326.759 237.586 326.843 237.496 326.95 237.44C328.853 236.453 331.079 235.569 333.438 234.636C342.267 231.135 353.254 226.78 357.896 212.846C361.009 203.511 358.356 193.238 351.433 187.86C345.811 183.49 338.655 183.505 331.794 187.907C327.812 190.463 325.482 193.849 324.872 197.96C323.285 208.71 333.801 221.165 333.905 221.297C334 221.406 334.049 221.548 334.039 221.692C334.03 221.836 333.963 221.971 333.855 222.066C333.746 222.161 333.604 222.209 333.46 222.2C333.316 222.19 333.182 222.124 333.086 222.016C332.641 221.495 322.146 209.072 323.805 197.834C324.462 193.389 326.954 189.749 331.216 187.016C338.479 182.349 346.091 182.349 352.094 187.016C359.357 192.668 362.147 203.435 358.916 213.194C354.112 227.602 342.867 232.062 333.829 235.645C331.499 236.568 329.298 237.44 327.442 238.402C327.366 238.44 327.283 238.459 327.198 238.456Z" fill="black"/>
<path d="M323.791 245.221C323.791 245.221 304.202 222.314 321.798 211.026C339.395 199.737 354.669 218.662 348.691 236.589C342.713 254.516 326.448 256.843 317.483 261.489" fill="#FFCDB2"/>
<path d="M317.483 262.028C317.363 262.028 317.246 261.987 317.151 261.912C317.057 261.838 316.99 261.734 316.961 261.617C316.933 261.5 316.944 261.377 316.994 261.267C317.043 261.157 317.129 261.067 317.235 261.012C319.138 260.024 321.364 259.141 323.723 258.208C332.549 254.707 343.535 250.352 348.181 236.421C351.294 227.086 348.637 216.81 341.718 211.432C336.099 207.062 328.944 207.08 322.082 211.478C318.097 214.035 315.767 217.421 315.16 221.532C313.573 232.285 324.086 244.736 324.193 244.869C324.239 244.923 324.274 244.985 324.296 245.053C324.318 245.12 324.327 245.191 324.321 245.261C324.316 245.332 324.296 245.4 324.264 245.463C324.232 245.526 324.188 245.583 324.134 245.629C324.08 245.675 324.018 245.71 323.951 245.731C323.884 245.753 323.813 245.762 323.742 245.756C323.672 245.751 323.603 245.731 323.54 245.699C323.477 245.667 323.421 245.623 323.375 245.569C322.926 245.045 312.435 232.622 314.094 221.384C314.751 216.939 317.242 213.302 321.501 210.57C328.768 205.902 336.379 205.902 342.379 210.57C349.646 216.221 352.432 226.985 349.201 236.748C344.397 251.152 333.152 255.612 324.115 259.195C321.784 260.118 319.583 260.99 317.727 261.952C317.653 261.998 317.57 262.024 317.483 262.028Z" fill="black"/>
<path d="M318.147 125.563H318.122C317.989 125.563 304.935 124.845 290.648 118.741C282.247 115.151 275.062 110.405 269.296 104.656C262.079 97.4754 257.089 88.6538 254.435 78.4857C254.405 78.3497 254.429 78.2072 254.501 78.0882C254.574 77.9692 254.69 77.883 254.824 77.8477C254.959 77.8123 255.103 77.8306 255.224 77.8987C255.346 77.9668 255.436 78.0794 255.477 78.2129C261.354 100.804 278.06 112.175 291.022 117.74C305.136 123.786 318.025 124.479 318.154 124.486C318.297 124.489 318.433 124.549 318.531 124.653C318.63 124.756 318.684 124.894 318.681 125.037C318.677 125.18 318.617 125.316 318.514 125.414C318.41 125.513 318.272 125.567 318.129 125.563H318.147Z" fill="black"/>
<path d="M274.843 126.835C271.881 126.806 268.953 126.196 266.226 125.039C260.481 122.67 252.223 116.735 245.473 101.921C245.444 101.856 245.428 101.786 245.426 101.716C245.423 101.645 245.435 101.574 245.46 101.508C245.485 101.441 245.523 101.381 245.571 101.329C245.62 101.277 245.678 101.235 245.743 101.206C245.807 101.177 245.877 101.161 245.948 101.158C246.019 101.156 246.089 101.168 246.156 101.193C246.222 101.218 246.283 101.256 246.334 101.304C246.386 101.353 246.428 101.411 246.457 101.476C253.038 115.923 261.023 121.707 266.563 124.016C272.545 126.508 277.044 125.596 277.091 125.585C277.231 125.555 277.376 125.582 277.497 125.66C277.617 125.738 277.701 125.86 277.731 126C277.761 126.14 277.735 126.286 277.657 126.406C277.579 126.526 277.457 126.611 277.317 126.641C276.5 126.785 275.672 126.85 274.843 126.835Z" fill="black"/>
<path d="M209.717 236.507C209.612 236.508 209.51 236.477 209.422 236.42C209.335 236.362 209.266 236.28 209.225 236.184C203.1 222.139 210.341 203.512 210.661 202.74C210.713 202.607 210.816 202.501 210.947 202.445C211.077 202.388 211.225 202.386 211.358 202.438C211.49 202.49 211.596 202.593 211.653 202.724C211.709 202.854 211.712 203.002 211.659 203.135C211.587 203.325 204.277 222.121 210.223 235.753C210.252 235.819 210.268 235.89 210.27 235.961C210.271 236.033 210.259 236.104 210.233 236.171C210.207 236.238 210.168 236.299 210.118 236.35C210.068 236.402 210.009 236.443 209.943 236.472C209.871 236.498 209.794 236.511 209.717 236.507Z" fill="black"/>
<path d="M369.849 138.489C369.763 138.49 369.677 138.47 369.6 138.431C369.522 138.392 369.456 138.334 369.405 138.264C369.355 138.193 369.322 138.112 369.31 138.026C369.298 137.94 369.307 137.853 369.336 137.771C372.898 126.616 372.567 118.024 368.363 112.279C362.927 104.833 352.716 104.739 352.615 104.739C352.472 104.739 352.335 104.682 352.234 104.581C352.133 104.48 352.077 104.344 352.077 104.201C352.077 104.058 352.133 103.921 352.234 103.82C352.335 103.719 352.472 103.662 352.615 103.662C353.057 103.662 363.462 103.752 369.224 111.64C373.651 117.701 374.036 126.608 370.363 138.116C370.328 138.224 370.259 138.319 370.167 138.386C370.075 138.453 369.963 138.489 369.849 138.489Z" fill="black"/>
<path d="M362.848 180.496C362.788 180.502 362.728 180.502 362.668 180.496C362.529 180.473 362.395 180.422 362.275 180.347C362.155 180.272 362.051 180.174 361.969 180.058C361.887 179.943 361.829 179.813 361.797 179.675C361.765 179.537 361.761 179.394 361.785 179.254C364.794 161.532 348.184 158.376 347.474 158.25C347.202 158.192 346.964 158.031 346.809 157.801C346.653 157.572 346.592 157.291 346.639 157.018C346.685 156.744 346.835 156.499 347.057 156.333C347.28 156.168 347.557 156.094 347.833 156.128C351.19 156.837 354.353 158.267 357.103 160.318C361.171 163.402 365.655 169.251 363.896 179.613C363.851 179.859 363.722 180.082 363.531 180.243C363.339 180.404 363.098 180.494 362.848 180.496Z" fill="white"/>
<path d="M357.463 207.066C357.181 207.066 356.91 206.956 356.708 206.758C356.507 206.561 356.391 206.292 356.385 206.01C356.051 189.34 342.569 188.776 341.995 188.755C341.709 188.751 341.437 188.634 341.238 188.429C341.038 188.225 340.928 187.949 340.932 187.663C340.936 187.378 341.053 187.105 341.258 186.906C341.463 186.707 341.738 186.597 342.024 186.601H342.049C342.211 186.601 358.163 187.2 358.54 205.967C358.542 206.109 358.518 206.249 358.466 206.381C358.414 206.513 358.338 206.633 358.239 206.735C358.141 206.837 358.024 206.919 357.894 206.976C357.765 207.033 357.625 207.063 357.484 207.066H357.463Z" fill="white"/>
<path d="M274.165 174.752C273.967 174.752 273.774 174.698 273.605 174.595C273.437 174.493 273.299 174.346 273.209 174.17C273.118 173.995 273.077 173.798 273.09 173.601C273.104 173.405 273.171 173.215 273.285 173.054L285.492 155.82C285.66 155.594 285.909 155.442 286.187 155.397C286.465 155.353 286.75 155.419 286.979 155.581C287.209 155.743 287.366 155.989 287.417 156.266C287.468 156.543 287.409 156.829 287.252 157.062L275.044 174.296C274.945 174.437 274.813 174.552 274.66 174.631C274.507 174.711 274.337 174.752 274.165 174.752Z" fill="white"/>
<path d="M293.581 178.141C293.382 178.141 293.186 178.085 293.017 177.98C292.847 177.875 292.71 177.725 292.621 177.547C292.532 177.368 292.494 177.169 292.511 176.97C292.528 176.771 292.601 176.581 292.72 176.421L300.586 165.851C300.757 165.622 301.011 165.469 301.294 165.428C301.577 165.386 301.865 165.458 302.094 165.629C302.324 165.799 302.476 166.054 302.518 166.336C302.56 166.619 302.487 166.907 302.317 167.137L294.447 177.707C294.346 177.842 294.216 177.951 294.066 178.027C293.915 178.102 293.75 178.141 293.581 178.141Z" fill="white"/>
<path d="M226.053 236.148C225.931 236.147 225.809 236.125 225.694 236.084C225.426 235.986 225.207 235.786 225.086 235.528C224.964 235.269 224.951 234.973 225.048 234.705L250.899 163.256C251.008 163.006 251.208 162.808 251.458 162.7C251.707 162.592 251.989 162.582 252.245 162.673C252.502 162.764 252.714 162.949 252.84 163.19C252.966 163.431 252.996 163.711 252.924 163.974L227.073 235.423C227 235.635 226.862 235.819 226.679 235.949C226.496 236.079 226.278 236.148 226.053 236.148Z" fill="white"/>
<path d="M217.436 261.281C217.305 261.282 217.174 261.258 217.052 261.209C216.785 261.107 216.571 260.904 216.454 260.643C216.338 260.383 216.329 260.087 216.431 259.82L223.971 240.073C224.081 239.817 224.285 239.614 224.541 239.506C224.797 239.398 225.085 239.393 225.345 239.492C225.605 239.591 225.816 239.787 225.934 240.038C226.053 240.29 226.07 240.577 225.981 240.841L218.441 260.588C218.364 260.792 218.226 260.967 218.047 261.091C217.867 261.215 217.654 261.281 217.436 261.281Z" fill="white"/>
<defs>
<filter id="filter0_d_2762_20363" x="-4.01969" y="107.785" width="38.6844" height="38.6849" filterUnits="userSpaceOnUse" color-interpolation-filters="sRGB">
<feFlood flood-opacity="0" result="BackgroundImageFix"/>
<feColorMatrix in="SourceAlpha" type="matrix" values="0 0 0 0 0 0 0 0 0 0 0 0 0 0 0 0 0 0 127 0" result="hardAlpha"/>
<feOffset dy="2.03704"/>
<feGaussianBlur stdDeviation="5.09261"/>
<feComposite in2="hardAlpha" operator="out"/>
<feColorMatrix type="matrix" values="0 0 0 0 0 0 0 0 0 0 0 0 0 0 0 0 0 0 0.05 0"/>
<feBlend mode="normal" in2="BackgroundImageFix" result="effect1_dropShadow_2762_20363"/>
<feBlend mode="normal" in="SourceGraphic" in2="effect1_dropShadow_2762_20363" result="shape"/>
</filter>
<filter id="filter1_d_2762_20363" x="370.649" y="165.209" width="38.6888" height="38.6888" filterUnits="userSpaceOnUse" color-interpolation-filters="sRGB">
<feFlood flood-opacity="0" result="BackgroundImageFix"/>
<feColorMatrix in="SourceAlpha" type="matrix" values="0 0 0 0 0 0 0 0 0 0 0 0 0 0 0 0 0 0 127 0" result="hardAlpha"/>
<feOffset dy="2.03704"/>
<feGaussianBlur stdDeviation="5.09261"/>
<feComposite in2="hardAlpha" operator="out"/>
<feColorMatrix type="matrix" values="0 0 0 0 0 0 0 0 0 0 0 0 0 0 0 0 0 0 0.05 0"/>
<feBlend mode="normal" in2="BackgroundImageFix" result="effect1_dropShadow_2762_20363"/>
<feBlend mode="normal" in="SourceGraphic" in2="effect1_dropShadow_2762_20363" result="shape"/>
</filter>
<linearGradient id="paint0_linear_2762_20363" x1="20.4542" y1="112.038" x2="392.052" y2="200.547" gradientUnits="userSpaceOnUse">
<stop stop-color="#CDD5E2"/>
<stop offset="1" stop-color="#CDD5E2" stop-opacity="0"/>
</linearGradient>
<linearGradient id="paint1_linear_2762_20363" x1="391.41" y1="195.437" x2="353.85" y2="294.044" gradientUnits="userSpaceOnUse">
<stop stop-color="#CDD5E2"/>
<stop offset="1" stop-color="#CDD5E2" stop-opacity="0"/>
</linearGradient>
<linearGradient id="paint2_linear_2762_20363" x1="196.502" y1="23.2607" x2="196.502" y2="365.006" gradientUnits="userSpaceOnUse">
<stop stop-color="#CDD5E2"/>
<stop offset="1" stop-color="#CDD5E2" stop-opacity="0"/>
</linearGradient>
<linearGradient id="paint3_linear_2762_20363" x1="196.505" y1="57.4336" x2="196.505" y2="330.83" gradientUnits="userSpaceOnUse">
<stop stop-color="#CDD5E2"/>
<stop offset="1" stop-color="#CDD5E2" stop-opacity="0"/>
</linearGradient>
</defs>
</svg>
