<svg width="638" height="352" viewBox="0 0 638 352" fill="none" xmlns="http://www.w3.org/2000/svg">
<g opacity="0.4" filter="url(#filter0_f_3017_48315)">
<path d="M549.938 173.662C567.766 170.999 582.352 158.506 587.961 141.121C588.771 138.588 576.104 122.739 576.808 120.596C571.199 137.981 556.592 150.452 538.785 153.137C541.28 152.769 547.102 174.095 549.938 173.662Z" fill="#FFC400"/>
<path d="M546.485 242.181C541.661 236.553 535.319 232.921 527.979 231.567C527.062 231.402 519.23 242.308 518.52 242.181C522.741 242.483 531.185 245.978 537.025 252.795C536.65 252.347 546.998 242.785 546.485 242.181Z" fill="#0170FF"/>
<path d="M429.843 110.791C424.931 107.838 421.785 103.11 420.975 97.436C421.11 98.3527 408.363 101.199 408.517 102.309C409.328 107.983 412.473 112.721 417.385 115.664C418.379 116.262 429.051 110.318 429.843 110.791Z" fill="#FFC400"/>
<path d="M63.5512 170.195C64.1494 171.677 49.4078 179.439 50.1118 181.154C57.1844 198.729 74.4863 209.814 93.4734 208.92C96.1016 208.795 104.624 198.071 106.913 197.961C87.9256 198.855 70.6059 187.77 63.5512 170.195Z" fill="#F79B23"/>
<path d="M299.366 50.1541C289.25 50.0635 274.733 57.6928 274.387 68.8247C274.346 69.9721 283.211 71.3308 283.181 72.3474C283.527 61.2155 298.055 53.5963 308.16 53.6769C305.243 53.6467 302.335 50.1742 299.366 50.1541Z" fill="#FFE3C1"/>
<path d="M91.2918 276.634C91.1693 274.71 72.6284 265.59 72.5242 264.047C73.1247 273.618 69.5177 282.418 62.3705 288.884C63.5274 287.835 79.7397 302.739 81.1382 301.471C88.2693 295.004 91.8764 286.204 91.2918 276.634Z" fill="#FFC400"/>
</g>
<path d="M559.558 168.993C578.033 166.233 593.149 153.287 598.961 135.27C599.801 132.645 586.674 116.221 587.403 114C581.591 132.017 566.453 144.941 548 147.723C550.586 147.341 556.619 169.442 559.558 168.993Z" fill="#FFC400"/>
<path d="M555.981 240.001C550.982 234.168 544.409 230.405 536.803 229.002C535.853 228.83 527.736 240.132 527 240.001C531.375 240.314 540.126 243.936 546.177 251C545.789 250.536 556.512 240.627 555.981 240.001Z" fill="#0170FF"/>
<path d="M435.101 103.84C430.011 100.78 426.751 95.88 425.911 90C426.051 90.95 412.841 93.9 413.001 95.05C413.841 100.93 417.101 105.84 422.191 108.89C423.221 109.51 434.281 103.35 435.101 103.84Z" fill="#FFC400"/>
<path d="M55.5074 165.4C56.1273 166.937 40.8505 174.981 41.58 176.758C48.9094 194.971 66.8396 206.459 86.5162 205.532C89.2398 205.402 98.072 194.289 100.444 194.175C80.767 195.101 62.8183 183.614 55.5074 165.4Z" fill="#F79B23"/>
<path d="M299.887 41.0008C289.403 40.907 274.358 48.8132 274 60.3493C273.958 61.5384 283.145 62.9465 283.114 64C283.472 52.4639 298.527 44.568 309 44.6515C305.976 44.6202 302.963 41.0217 299.887 41.0008Z" fill="#FFE3C1"/>
<path d="M84.2581 275.705C84.1311 273.711 64.9169 264.259 64.809 262.661C65.4313 272.579 61.6933 281.698 54.2866 288.4C55.4855 287.313 72.2864 302.757 73.7357 301.444C81.1258 294.741 84.8638 285.622 84.2581 275.705Z" fill="#FFC400"/>
<defs>
<filter id="filter0_f_3017_48315" x="0.0859375" y="0.15332" width="637.914" height="351.395" filterUnits="userSpaceOnUse" color-interpolation-filters="sRGB">
<feFlood flood-opacity="0" result="BackgroundImageFix"/>
<feBlend mode="normal" in="SourceGraphic" in2="BackgroundImageFix" result="shape"/>
<feGaussianBlur stdDeviation="25" result="effect1_foregroundBlur_3017_48315"/>
</filter>
</defs>
</svg>
