<svg width="294" height="219" viewBox="0 0 294 219" fill="none" xmlns="http://www.w3.org/2000/svg">
<mask id="mask0_2836_20232" style="mask-type:alpha" maskUnits="userSpaceOnUse" x="0" y="0" width="294" height="219">
<rect width="293.825" height="218.565" fill="#D9D9D9"/>
</mask>
<g mask="url(#mask0_2836_20232)">
<g opacity="0.5">
<mask id="path-2-inside-1_2836_20232" fill="white">
<path d="M282.356 146.663C283.816 113.173 273.228 80.2671 252.512 53.9116C231.796 27.5562 202.323 9.49508 169.435 3.0022C136.547 -3.49068 102.421 2.01439 73.2436 18.5195C44.0658 35.0247 21.7671 61.4375 10.3894 92.9703L10.9974 93.1896C22.3226 61.8022 44.5185 35.5112 73.5618 19.0821C102.605 2.65301 136.574 -2.82669 169.31 3.63626C202.046 10.0992 231.383 28.0771 252.004 54.311C272.624 80.545 283.163 113.299 281.71 146.635L282.356 146.663Z"/>
</mask>
<path d="M282.356 146.663C283.816 113.173 273.228 80.2671 252.512 53.9116C231.796 27.5562 202.323 9.49508 169.435 3.0022C136.547 -3.49068 102.421 2.01439 73.2436 18.5195C44.0658 35.0247 21.7671 61.4375 10.3894 92.9703L10.9974 93.1896C22.3226 61.8022 44.5185 35.5112 73.5618 19.0821C102.605 2.65301 136.574 -2.82669 169.31 3.63626C202.046 10.0992 231.383 28.0771 252.004 54.311C272.624 80.545 283.163 113.299 281.71 146.635L282.356 146.663Z" stroke="url(#paint0_linear_2836_20232)" stroke-width="2.06193" stroke-dasharray="3.09 3.09" mask="url(#path-2-inside-1_2836_20232)"/>
</g>
<g opacity="0.5">
<mask id="path-3-inside-2_2836_20232" fill="white">
<path d="M10.5738 188.661C22.0748 220.149 44.4767 246.474 73.7189 262.865C102.961 279.256 137.108 284.627 169.97 278.006C202.832 271.384 232.235 253.208 252.847 226.772C273.46 200.335 283.919 167.389 282.328 133.904L281.683 133.934C283.266 167.265 272.855 200.06 252.338 226.374C231.82 252.689 202.553 270.781 169.843 277.372C137.132 283.963 103.142 278.617 74.0349 262.301C44.9275 245.986 22.6288 219.782 11.1809 188.439L10.5738 188.661Z"/>
</mask>
<path d="M10.5738 188.661C22.0748 220.149 44.4767 246.474 73.7189 262.865C102.961 279.256 137.108 284.627 169.97 278.006C202.832 271.384 232.235 253.208 252.847 226.772C273.46 200.335 283.919 167.389 282.328 133.904L281.683 133.934C283.266 167.265 272.855 200.06 252.338 226.374C231.82 252.689 202.553 270.781 169.843 277.372C137.132 283.963 103.142 278.617 74.0349 262.301C44.9275 245.986 22.6288 219.782 11.1809 188.439L10.5738 188.661Z" stroke="url(#paint1_linear_2836_20232)" stroke-width="2.06193" stroke-dasharray="3.09 3.09" mask="url(#path-3-inside-2_2836_20232)"/>
</g>
<circle opacity="0.08" cx="142.272" cy="140.558" r="123.716" fill="url(#paint2_linear_2836_20232)"/>
<circle opacity="0.1" cx="142.275" cy="140.555" r="98.9726" fill="url(#paint3_linear_2836_20232)"/>
<circle cx="142.275" cy="140.558" r="65.9818" fill="white"/>
<g filter="url(#filter0_d_2836_20232)">
<circle cx="11.0958" cy="90.5692" r="5.15483" transform="rotate(-2.50406 11.0958 90.5692)" fill="#0170FF"/>
<circle cx="11.0958" cy="90.5692" r="5.89226" transform="rotate(-2.50406 11.0958 90.5692)" stroke="white" stroke-width="1.47487"/>
</g>
<g filter="url(#filter1_d_2836_20232)">
<circle cx="282.365" cy="132.144" r="5.15483" transform="rotate(-15.7345 282.365 132.144)" fill="#0170FF"/>
<circle cx="282.365" cy="132.144" r="5.89226" transform="rotate(-15.7345 282.365 132.144)" stroke="white" stroke-width="1.47487"/>
</g>
</g>
<path d="M236.382 204.057H56.7201C56.5913 204.057 56.4675 204.006 56.3764 203.915C56.2853 203.824 56.2344 203.7 56.2344 203.572C56.2344 203.443 56.2853 203.319 56.3764 203.228C56.4675 203.137 56.5913 203.086 56.7201 203.086H236.382C236.51 203.086 236.634 203.137 236.725 203.228C236.816 203.319 236.867 203.443 236.867 203.572C236.867 203.7 236.816 203.824 236.725 203.915C236.634 204.006 236.51 204.057 236.382 204.057Z" fill="#1D1D1B"/>
<path d="M245.539 196.973H217.976C217.847 196.973 217.724 196.922 217.633 196.831C217.541 196.74 217.49 196.616 217.49 196.488C217.49 196.359 217.541 196.235 217.633 196.144C217.724 196.053 217.847 196.002 217.976 196.002H245.539C245.668 196.002 245.792 196.053 245.883 196.144C245.974 196.235 246.025 196.359 246.025 196.488C246.025 196.616 245.974 196.74 245.883 196.831C245.792 196.922 245.668 196.973 245.539 196.973Z" fill="#1D1D1B"/>
<path d="M73.6577 212.135H46.097C45.9682 212.135 45.8445 212.084 45.7534 211.993C45.6623 211.902 45.6113 211.779 45.6113 211.65C45.6113 211.521 45.6623 211.397 45.7534 211.306C45.8445 211.215 45.9682 211.164 46.097 211.164H73.6577C73.7865 211.164 73.91 211.215 74.0011 211.306C74.0922 211.397 74.1434 211.521 74.1434 211.65C74.1434 211.779 74.0922 211.902 74.0011 211.993C73.91 212.084 73.7865 212.135 73.6577 212.135Z" fill="#1D1D1B"/>
<path d="M126.167 117.391C126.167 117.391 124.54 123.479 120.414 121.361C116.288 119.244 107.494 114.627 103.72 120.633C99.9462 126.638 100.378 128.076 95.4924 127.029C90.6063 125.983 79.2581 139.657 91.6312 146.214C111.912 156.977 136.825 125.545 136.825 125.545L133.574 121.417L126.167 117.391Z" fill="#382256"/>
<path d="M100.735 148.824C97.5023 148.842 94.3158 148.058 91.4607 146.541C86.4216 143.87 84.5564 139.518 86.3462 134.613C88.0073 130.057 92.6603 126.052 95.5744 126.671C99.2876 127.468 99.6058 126.914 101.672 123.354C102.158 122.516 102.707 121.567 103.416 120.44C107.319 114.223 116.17 118.769 120.415 120.952L120.573 121.035C121.477 121.499 122.315 121.564 123.065 121.232C124.964 120.389 125.802 117.324 125.809 117.293L125.931 116.846L133.809 121.139L137.284 125.552L137.104 125.778C137.041 125.855 130.746 133.748 122.048 140.215C116.923 144.023 111.976 146.602 107.343 147.882C105.193 148.493 102.97 148.81 100.735 148.824ZM94.9408 127.337C92.5414 127.337 88.5829 130.606 87.0311 134.865C86.0597 137.536 85.3918 142.498 91.8006 145.9C102.109 151.369 113.703 145.509 121.615 139.63C129.423 133.828 135.273 126.873 136.359 125.545L133.333 121.705L126.382 117.917C126.054 118.876 125.124 121.115 123.366 121.895C122.395 122.322 121.355 122.249 120.245 121.681L120.088 121.598C116.027 119.512 107.576 115.173 104.028 120.826C103.326 121.943 102.78 122.888 102.297 123.721C100.208 127.325 99.6472 128.291 95.4167 127.385C95.2601 127.354 95.1005 127.34 94.9408 127.344V127.337Z" fill="black"/>
<path d="M137.629 104.797C142.066 104.797 145.663 101.201 145.663 96.7639C145.663 92.3272 142.066 88.7305 137.629 88.7305C133.192 88.7305 129.596 92.3272 129.596 96.7639C129.596 101.201 133.192 104.797 137.629 104.797Z" fill="#382256"/>
<path d="M137.628 105.163C135.478 105.164 133.409 104.343 131.846 102.866C130.283 101.39 129.346 99.3708 129.226 97.2243C129.106 95.0778 129.813 92.967 131.201 91.3256C132.59 89.6842 134.554 88.637 136.691 88.3992C138.827 88.1615 140.974 88.7514 142.689 90.0475C144.404 91.3436 145.558 93.2475 145.912 95.3678C146.267 97.4882 145.796 99.6639 144.596 101.448C143.396 103.232 141.559 104.488 139.461 104.959C138.859 105.094 138.244 105.162 137.628 105.163ZM137.642 89.0908C137.07 89.0909 136.5 89.1536 135.942 89.2778C134.041 89.7068 132.375 90.8474 131.288 92.4656C130.2 94.0839 129.774 96.0569 130.095 97.9798C130.417 99.9026 131.462 101.629 133.017 102.806C134.572 103.982 136.518 104.519 138.455 104.306C140.393 104.093 142.176 103.146 143.438 101.659C144.7 100.173 145.345 98.2605 145.241 96.3137C145.137 94.367 144.291 92.5339 142.878 91.1907C141.465 89.8475 139.592 89.0961 137.642 89.0908Z" fill="#1D1E1B"/>
<path d="M146.186 98.2129C141.703 93.2297 133.154 96.4352 131.493 99.4441C127.365 106.914 121.257 105.195 121.779 112.092C122.047 115.555 125.31 116.167 125.332 122.614C125.332 125.941 131.804 129.586 136.649 128.501C141.494 127.415 158.073 123.887 158.612 120.033C159.151 116.179 163.183 109 157.213 103.228C151.191 97.3921 148.128 100.374 146.186 98.2129Z" fill="#382256"/>
<path d="M134.814 129.061C131.946 129.061 129.042 127.804 127.286 126.39C125.802 125.207 124.984 123.864 124.979 122.607C124.967 118.896 123.859 117.191 122.885 115.685C122.196 114.622 121.543 113.616 121.428 112.111C121.118 108.075 122.988 106.817 125.358 105.221C127.242 103.951 129.382 102.511 131.186 99.2567C132.221 97.3819 135.431 95.6917 138.651 95.3226C141.871 94.9535 144.608 95.8957 146.466 97.9599C147.11 98.6739 147.923 98.7443 149.028 98.8414C150.971 99.0138 153.642 99.247 157.487 102.955C162.344 107.662 160.799 113.223 159.672 117.283C159.392 118.2 159.168 119.132 159.002 120.076C158.516 123.578 147.214 126.526 137.422 128.702L136.759 128.85C136.121 128.992 135.468 129.063 134.814 129.061ZM139.958 95.9831C139.546 95.9836 139.134 96.008 138.724 96.056C135.419 96.4349 132.614 98.1639 131.81 99.6186C129.928 103.018 127.616 104.582 125.758 105.836C123.42 107.412 121.873 108.451 122.15 112.062C122.252 113.383 122.827 114.272 123.493 115.299C124.464 116.81 125.678 118.699 125.705 122.614C125.705 123.646 126.434 124.787 127.738 125.832C129.761 127.447 133.391 128.86 136.577 128.146L137.243 127.998C150.869 124.969 157.941 122.271 158.259 119.984C158.43 119.008 158.66 118.044 158.948 117.096C160.036 113.211 161.523 107.897 156.967 103.497C153.324 99.9658 150.794 99.7448 148.953 99.5845C147.77 99.4801 146.75 99.3903 145.915 98.4651C144.46 96.8525 142.377 95.9831 139.958 95.9831Z" fill="#1D1E1B"/>
<path d="M185.472 130.298C199.873 123.098 192.92 86.3913 191.39 81.2138C189.86 76.0363 186.239 76.5268 186.239 76.5268L185.829 72.3668L172.509 71.8398L172.215 74.6909C172.215 74.6909 167.154 76.5511 167.18 81.6995C167.207 86.8479 167.069 88.5186 167.312 92.1201C167.312 92.1201 166.127 112.762 162.418 118.651C158.71 124.54 151.99 127.425 151.99 127.425" fill="#07ACEE"/>
<path d="M185.47 130.663C185.389 130.662 185.309 130.635 185.245 130.584C185.181 130.533 185.136 130.462 185.117 130.382C185.098 130.302 185.107 130.218 185.141 130.144C185.176 130.07 185.235 130.01 185.308 129.973C192.729 126.262 194.152 114.345 194.05 105.001C193.919 94.2376 191.806 83.8729 191.051 81.3157C189.626 76.4952 186.33 76.8837 186.296 76.8886C186.248 76.8947 186.199 76.8912 186.152 76.8783C186.104 76.8654 186.06 76.8433 186.022 76.8133C185.984 76.7839 185.953 76.7473 185.929 76.7056C185.906 76.6639 185.891 76.6179 185.886 76.5705L185.507 72.7261L172.845 72.2235L172.585 74.7345C172.577 74.8031 172.55 74.8682 172.507 74.9223C172.464 74.9764 172.407 75.0174 172.342 75.0406C172.145 75.1134 167.524 76.8789 167.548 81.7043C167.548 83.3751 167.548 84.6647 167.548 85.8012C167.534 88.1374 167.522 89.6867 167.687 92.103C167.689 92.1183 167.689 92.1339 167.687 92.1492C167.638 92.9943 166.453 112.947 162.737 118.862C159.022 124.778 152.424 127.658 152.144 127.777C152.1 127.796 152.053 127.806 152.005 127.807C151.957 127.807 151.91 127.798 151.865 127.781C151.821 127.763 151.781 127.736 151.746 127.703C151.712 127.67 151.685 127.63 151.666 127.586C151.647 127.542 151.637 127.494 151.637 127.446C151.636 127.399 151.645 127.351 151.663 127.307C151.681 127.262 151.707 127.222 151.74 127.188C151.774 127.153 151.814 127.126 151.858 127.107C151.923 127.078 158.519 124.193 162.121 118.474C165.683 112.811 166.912 92.9263 166.958 92.1394C166.793 89.711 166.805 88.1519 166.82 85.8084C166.82 84.6719 166.837 83.38 166.82 81.7189C166.795 77.0003 170.885 74.8948 171.876 74.4553L172.15 71.8203C172.16 71.728 172.203 71.6428 172.273 71.5819C172.343 71.5209 172.434 71.4889 172.527 71.4925L185.847 72.0195C185.935 72.0232 186.019 72.0586 186.084 72.1193C186.148 72.1799 186.188 72.2618 186.197 72.3498L186.573 76.1721C187.598 76.2061 190.439 76.7089 191.743 81.1264C193.312 86.435 200.335 123.292 185.638 130.641C185.585 130.662 185.527 130.669 185.47 130.663Z" fill="#1D1D1B"/>
<path d="M186.044 76.6195C186.246 76.5986 186.45 76.5986 186.653 76.6195C183.855 78.2709 177.182 81.1583 172.301 74.9195C172.417 74.8685 172.488 74.8419 172.488 74.8419L172.772 72.0879L185.643 72.5979L186.044 76.6195Z" fill="#0598C6"/>
<path d="M144.127 112.439C140.285 114.012 134.581 113.233 133.928 114.826C133.274 116.419 134.309 118.206 136.558 118.286C138.806 118.366 140.946 117.915 145.281 116.773C149.616 115.632 153.78 114.189 152.85 111.931C151.92 109.672 149.776 110.124 144.127 112.439Z" fill="#FFB49F"/>
<path d="M139.238 101.453C139.072 108.01 133.458 112.25 130.116 113.326C129.793 115.385 130.745 117.855 131.243 120.08C133.072 128.247 138.847 133.157 146.567 130.869C154.095 128.635 157.14 123.358 155.037 114.38C154.552 112.262 154.153 110.135 153.061 108.464C146.555 109.89 139.238 101.453 139.238 101.453Z" fill="#FFCDB2"/>
<path d="M142.886 131.792C140.982 131.803 139.11 131.299 137.468 130.335C134.275 128.458 131.936 124.842 130.887 120.147C130.763 119.598 130.615 119.042 130.457 118.447C129.989 116.692 129.501 114.873 129.756 113.253L129.79 113.032L130.003 112.964C133.595 111.805 138.721 107.463 138.872 101.426L138.894 100.486L139.511 101.195C139.581 101.278 146.762 109.452 152.982 108.09L153.224 108.036L153.363 108.248C154.361 109.775 154.796 111.679 155.216 113.522C155.272 113.765 155.33 114.028 155.388 114.28C156.445 118.782 156.224 122.491 154.735 125.305C153.278 128.062 150.563 130.046 146.668 131.199C145.442 131.578 144.169 131.778 142.886 131.792ZM130.445 113.6C130.29 115.021 130.732 116.675 131.174 118.277C131.327 118.846 131.485 119.433 131.611 119.999C132.616 124.492 134.831 127.943 137.85 129.713C140.336 131.17 143.319 131.452 146.473 130.517C154.002 128.28 156.702 123.03 154.694 114.46L154.519 113.7C154.116 111.927 153.732 110.249 152.896 108.867C152.444 108.949 151.986 108.989 151.527 108.989C146.391 108.989 141.269 104.117 139.559 102.327C138.955 108.449 133.828 112.413 130.445 113.61V113.6Z" fill="#1D1D1B"/>
<path d="M143.422 113.105C138.859 115.028 132.047 114.166 131.279 116.073C130.512 117.979 131.765 120.101 134.458 120.172C137.151 120.242 139.687 119.686 144.845 118.263C150.003 116.84 154.95 115.084 153.83 112.401C152.711 109.717 150.134 110.281 143.422 113.105Z" fill="#FFB49F"/>
<path d="M134.494 113.636C134.406 113.637 134.321 113.606 134.254 113.548C134.187 113.491 134.143 113.412 134.131 113.325C134.118 113.238 134.137 113.149 134.185 113.075C134.232 113.001 134.305 112.947 134.389 112.922C134.414 112.922 136.791 112.194 136.939 110.737C136.949 110.64 136.997 110.551 137.072 110.49C137.148 110.429 137.245 110.4 137.341 110.41C137.438 110.42 137.527 110.468 137.588 110.543C137.649 110.619 137.678 110.715 137.668 110.812C137.471 112.755 134.717 113.588 134.601 113.622C134.566 113.633 134.53 113.638 134.494 113.636Z" fill="black"/>
<path d="M147.361 110.625C145.843 110.625 144.636 109.289 144.583 109.231C144.518 109.158 144.485 109.064 144.491 108.967C144.496 108.871 144.54 108.78 144.612 108.716C144.684 108.651 144.779 108.618 144.875 108.624C144.972 108.629 145.062 108.673 145.127 108.745C145.127 108.76 146.273 110.013 147.534 109.889C147.581 109.884 147.63 109.889 147.676 109.903C147.722 109.917 147.764 109.94 147.802 109.97C147.839 110.001 147.869 110.039 147.892 110.081C147.914 110.124 147.929 110.17 147.933 110.218C147.938 110.266 147.933 110.314 147.919 110.36C147.905 110.406 147.882 110.449 147.851 110.486C147.821 110.523 147.783 110.553 147.741 110.576C147.698 110.599 147.652 110.613 147.604 110.617C147.521 110.622 147.432 110.625 147.361 110.625Z" fill="black"/>
<path d="M136.439 116.18C136.943 116.18 137.352 115.771 137.352 115.267C137.352 114.762 136.943 114.354 136.439 114.354C135.934 114.354 135.525 114.762 135.525 115.267C135.525 115.771 135.934 116.18 136.439 116.18Z" fill="black"/>
<path d="M148.017 113.59C148.521 113.59 148.93 113.181 148.93 112.677C148.93 112.173 148.521 111.764 148.017 111.764C147.512 111.764 147.104 112.173 147.104 112.677C147.104 113.181 147.512 113.59 148.017 113.59Z" fill="black"/>
<path d="M143.576 120.771C143.493 120.77 143.413 120.742 143.349 120.69C143.284 120.639 143.238 120.567 143.219 120.486L141.784 114.07C141.763 113.976 141.781 113.877 141.832 113.796C141.884 113.714 141.966 113.657 142.061 113.636C142.155 113.615 142.254 113.632 142.335 113.684C142.417 113.736 142.475 113.818 142.496 113.912L143.931 120.326C143.941 120.373 143.942 120.421 143.934 120.468C143.926 120.515 143.908 120.56 143.882 120.601C143.857 120.641 143.823 120.676 143.784 120.704C143.745 120.731 143.701 120.751 143.654 120.761C143.629 120.768 143.602 120.771 143.576 120.771Z" fill="black"/>
<path d="M141.671 126.064C141.588 126.064 141.507 126.035 141.443 125.981C141.405 125.951 141.375 125.914 141.352 125.872C141.328 125.83 141.314 125.784 141.309 125.737C141.304 125.689 141.308 125.641 141.321 125.595C141.335 125.549 141.357 125.506 141.387 125.469C141.426 125.423 142.317 124.34 143.49 124.34H143.517C144.182 124.34 144.787 124.702 145.307 125.382C145.336 125.42 145.357 125.463 145.37 125.509C145.382 125.555 145.385 125.604 145.379 125.651C145.373 125.699 145.357 125.744 145.333 125.786C145.309 125.827 145.278 125.864 145.24 125.893C145.202 125.922 145.159 125.943 145.112 125.956C145.066 125.968 145.018 125.972 144.97 125.965C144.923 125.959 144.877 125.944 144.836 125.92C144.794 125.896 144.758 125.864 144.729 125.826C144.35 125.34 143.939 125.076 143.514 125.068C142.694 125.068 141.97 125.921 141.965 125.928C141.93 125.972 141.885 126.007 141.834 126.03C141.783 126.054 141.727 126.065 141.671 126.064Z" fill="black"/>
<path d="M173.483 71.353C173.483 71.353 158.261 60.2232 168.726 56.5854L169.325 47.1993C169.325 47.1993 173.823 44.256 175.773 51.6507C175.773 51.6507 179.277 51.6045 181.269 54.1569C181.269 54.1569 185.052 53.1345 186.369 58.5282C187.801 64.3565 184.958 72.0839 184.958 72.0839L173.483 71.353Z" fill="#FFCDB2"/>
<path d="M185.209 72.4577L173.351 71.7098L173.266 71.6466C172.887 71.3697 164.004 64.8128 164.73 59.951C164.973 58.353 166.187 57.1315 168.372 56.3228L168.967 46.9951L169.12 46.8955C169.191 46.8494 170.832 45.7954 172.651 46.4948C174.174 47.0777 175.323 48.6804 176.051 51.2934C176.935 51.3396 179.641 51.6553 181.411 53.756C182.335 53.6245 183.277 53.8102 184.082 54.2829C185.338 55.0236 186.224 56.42 186.72 58.4357C188.16 64.3102 185.413 71.8846 185.294 72.2027L185.209 72.4577ZM173.611 71.0006L184.707 71.7024C185.173 70.3255 187.264 63.6885 186.018 58.6129C185.576 56.8037 184.804 55.5628 183.733 54.9241C183.019 54.5 182.174 54.3539 181.36 54.5137L181.117 54.5744L180.967 54.3849C179.106 52.0026 175.799 52.0196 175.765 52.0196H175.481L175.408 51.7451C174.745 49.2292 173.727 47.6921 172.384 47.1772C171.192 46.7183 170.063 47.2088 169.664 47.4201L169.06 56.8523L168.832 56.9324C166.784 57.644 165.643 58.6955 165.432 60.0603C164.825 64.2543 172.705 70.3133 173.611 70.9957V71.0006Z" fill="#1D1D1B"/>
<path d="M186.741 59.5918C186.998 62.2874 184.312 65.3352 182.369 63.5357C180.759 62.0422 180.859 60.6725 180.859 60.6725C180.859 60.6725 179.108 64.8811 176.002 62.1782C172.896 59.4753 175.577 51.8984 175.577 51.8984" fill="#FFCDB2"/>
<path d="M183.647 64.4403C183.074 64.432 182.526 64.2033 182.118 63.8016C181.478 63.237 180.987 62.5252 180.685 61.7277C180.253 62.3712 179.548 63.1556 178.574 63.3815C177.661 63.5952 176.714 63.2843 175.76 62.4537C172.503 59.6197 175.116 52.0938 175.23 51.7684C175.246 51.7233 175.271 51.6817 175.303 51.6461C175.335 51.6106 175.374 51.5816 175.417 51.561C175.46 51.5404 175.507 51.5284 175.555 51.5259C175.602 51.5234 175.65 51.5302 175.695 51.5462C175.74 51.5621 175.782 51.5869 175.818 51.6189C175.853 51.6509 175.882 51.6895 175.903 51.7327C175.923 51.7759 175.935 51.8227 175.938 51.8705C175.94 51.9183 175.933 51.9661 175.918 52.0112C175.891 52.0841 173.353 59.389 176.238 61.8952C177.006 62.5631 177.734 62.8254 178.407 62.6675C179.738 62.3567 180.51 60.5425 180.517 60.5255C180.551 60.446 180.611 60.3809 180.688 60.3417C180.765 60.3026 180.853 60.292 180.937 60.3118C181.021 60.3317 181.095 60.3806 181.146 60.45C181.197 60.5194 181.222 60.6047 181.217 60.6907C181.217 60.7368 181.168 61.9195 182.613 63.2601C182.843 63.49 183.142 63.6382 183.465 63.6821C183.787 63.7259 184.115 63.663 184.398 63.5029C185.481 62.9662 186.535 61.2736 186.375 59.6173C186.365 59.5207 186.395 59.4243 186.457 59.3493C186.518 59.2744 186.607 59.2272 186.704 59.2178C186.8 59.2085 186.897 59.2378 186.972 59.2995C187.047 59.3613 187.094 59.4503 187.103 59.5469C187.278 61.3586 186.21 63.4325 184.723 64.161C184.392 64.3368 184.023 64.4324 183.647 64.4403Z" fill="#1D1D1B"/>
<path d="M180.655 61.4413H180.619C180.571 61.4368 180.525 61.4228 180.482 61.4003C180.44 61.3778 180.402 61.3472 180.372 61.3102C180.341 61.2732 180.319 61.2306 180.305 61.1847C180.291 61.1389 180.286 61.0907 180.291 61.043L180.961 54.1413C180.97 54.0447 181.018 53.9558 181.093 53.8941C181.168 53.8324 181.264 53.8029 181.36 53.8122C181.457 53.8216 181.546 53.8688 181.608 53.9437C181.669 54.0187 181.699 54.1151 181.69 54.2117L181.019 61.1135C181.01 61.2034 180.967 61.2867 180.9 61.3472C180.833 61.4077 180.746 61.4412 180.655 61.4413Z" fill="#1D1D1B"/>
<path d="M168.734 56.5793C168.734 56.5793 173.861 53.7695 175.799 56.4554C177.737 59.1413 169.776 63.583 169.776 63.583" fill="#FFCDB2"/>
<path d="M169.774 63.9512C169.694 63.9512 169.615 63.9245 169.552 63.8751C169.488 63.8258 169.442 63.7566 169.422 63.6785C169.402 63.6005 169.408 63.518 169.439 63.4438C169.471 63.3697 169.526 63.3081 169.597 63.2688C169.653 63.2373 175.161 60.1337 175.695 57.7173C175.743 57.5389 175.75 57.352 175.716 57.1705C175.682 56.9889 175.607 56.8172 175.498 56.6682C173.772 54.2737 168.941 56.8723 168.905 56.8965C168.863 56.9214 168.816 56.9374 168.768 56.9439C168.719 56.9503 168.67 56.9471 168.623 56.9341C168.576 56.9212 168.532 56.8988 168.494 56.8686C168.455 56.8383 168.424 56.8006 168.4 56.7578C168.377 56.715 168.362 56.6678 168.357 56.6192C168.352 56.5706 168.357 56.5215 168.372 56.4749C168.386 56.4282 168.41 56.3851 168.441 56.3478C168.473 56.3105 168.512 56.2798 168.555 56.2578C168.776 56.1363 173.988 53.3291 176.084 56.2408C176.253 56.4734 176.369 56.7404 176.423 57.0228C176.478 57.3053 176.47 57.5963 176.399 57.8752C175.795 60.6096 170.182 63.7716 169.944 63.9051C169.892 63.9334 169.834 63.9492 169.774 63.9512Z" fill="#1D1D1B"/>
<path d="M186.292 123.734C186.988 123.734 187.552 123.169 187.552 122.473C187.552 121.777 186.988 121.213 186.292 121.213C185.595 121.213 185.031 121.777 185.031 122.473C185.031 123.169 185.595 123.734 186.292 123.734Z" fill="#51CEF4"/>
<path d="M169.274 124.173C169.97 124.173 170.534 123.609 170.534 122.913C170.534 122.217 169.97 121.652 169.274 121.652C168.578 121.652 168.014 122.217 168.014 122.913C168.014 123.609 168.578 124.173 169.274 124.173Z" fill="#51CEF4"/>
<path d="M180.766 106.937C181.462 106.937 182.027 106.372 182.027 105.676C182.027 104.98 181.462 104.416 180.766 104.416C180.07 104.416 179.506 104.98 179.506 105.676C179.506 106.372 180.07 106.937 180.766 106.937Z" fill="#51CEF4"/>
<path d="M175.02 95.6653C175.716 95.6653 176.281 95.101 176.281 94.4049C176.281 93.7088 175.716 93.1445 175.02 93.1445C174.324 93.1445 173.76 93.7088 173.76 94.4049C173.76 95.101 174.324 95.6653 175.02 95.6653Z" fill="#51CEF4"/>
<path d="M187.622 84.8332C188.318 84.8332 188.882 84.269 188.882 83.5729C188.882 82.8768 188.318 82.3125 187.622 82.3125C186.926 82.3125 186.361 82.8768 186.361 83.5729C186.361 84.269 186.926 84.8332 187.622 84.8332Z" fill="#51CEF4"/>
<path d="M200.371 115.796C200.322 115.796 200.274 115.788 200.228 115.774C200.105 115.736 200.002 115.651 199.942 115.537C199.881 115.423 199.869 115.29 199.907 115.167C204.154 101.475 196.881 90.1899 196.808 90.0782C196.74 89.9706 196.716 89.8405 196.743 89.7159C196.77 89.5913 196.845 89.4822 196.951 89.4121C197.057 89.342 197.187 89.3166 197.312 89.3412C197.437 89.3659 197.547 89.4386 197.619 89.5439C197.695 89.6604 205.223 101.312 200.835 115.453C200.804 115.552 200.742 115.639 200.659 115.701C200.575 115.762 200.475 115.796 200.371 115.796Z" fill="black"/>
<path d="M190.17 117.009C190.075 117.009 189.98 116.99 189.891 116.953C189.713 116.879 189.571 116.737 189.497 116.559C189.424 116.38 189.424 116.179 189.498 116.001C192.298 109.235 189.481 92.5297 189.452 92.3621C189.436 92.2677 189.438 92.1712 189.46 92.0779C189.481 91.9846 189.521 91.8964 189.576 91.8183C189.632 91.7403 189.702 91.674 189.783 91.6231C189.864 91.5723 189.955 91.5378 190.049 91.5219C190.143 91.5059 190.24 91.5088 190.333 91.5302C190.427 91.5516 190.515 91.5912 190.593 91.6466C190.671 91.7021 190.737 91.7724 190.788 91.8535C190.839 91.9347 190.873 92.0249 190.889 92.1193C191.008 92.8235 193.803 109.41 190.843 116.564C190.787 116.697 190.693 116.809 190.574 116.888C190.454 116.967 190.314 117.009 190.17 117.009Z" fill="white"/>
<path d="M131.646 96.0016C131.605 96.001 131.564 95.997 131.524 95.9895C131.445 95.9749 131.37 95.9448 131.303 95.9009C131.236 95.857 131.178 95.8002 131.132 95.7338C131.087 95.6674 131.056 95.5928 131.04 95.5141C131.024 95.4354 131.023 95.3542 131.039 95.2754C131.07 95.1127 131.889 91.2588 136.318 89.9547C136.473 89.9089 136.639 89.9264 136.781 90.0034C136.922 90.0804 137.028 90.2105 137.073 90.3651C137.119 90.5197 137.102 90.686 137.025 90.8276C136.948 90.9693 136.818 91.0746 136.663 91.1203C132.955 92.2107 132.255 95.3823 132.229 95.5159C132.2 95.6506 132.127 95.7719 132.021 95.86C131.916 95.9481 131.783 95.998 131.646 96.0016Z" fill="white"/>
<path d="M209.562 159.061C209.09 159.061 208.607 159.047 208.104 159.022C208.041 159.019 207.978 159.003 207.92 158.975C207.863 158.948 207.811 158.909 207.769 158.861C207.726 158.814 207.693 158.758 207.672 158.698C207.651 158.638 207.642 158.574 207.645 158.51C207.649 158.446 207.665 158.383 207.692 158.326C207.72 158.268 207.759 158.217 207.806 158.174C207.854 158.131 207.909 158.099 207.97 158.077C208.03 158.056 208.094 158.047 208.158 158.051C213.423 158.328 217.187 157.08 219.343 154.335C223.037 149.631 220.8 141.996 220.779 141.921C220.741 141.797 220.755 141.664 220.816 141.55C220.877 141.436 220.98 141.351 221.104 141.314C221.228 141.276 221.361 141.29 221.475 141.351C221.589 141.412 221.674 141.515 221.711 141.639C221.811 141.972 224.113 149.828 220.108 154.933C217.964 157.674 214.418 159.061 209.562 159.061Z" fill="#1D1D1B"/>
<path d="M140.038 131.426C140.01 131.44 139.98 131.45 139.948 131.455C136.386 132.006 132.539 129.942 132.377 129.855C132.309 129.815 132.259 129.751 132.238 129.676C132.217 129.6 132.226 129.52 132.263 129.451C132.3 129.382 132.363 129.33 132.437 129.307C132.512 129.283 132.593 129.29 132.663 129.325C132.702 129.347 136.498 131.382 139.856 130.862C139.934 130.85 140.013 130.868 140.077 130.913C140.141 130.959 140.185 131.028 140.199 131.105C140.209 131.169 140.2 131.234 140.171 131.292C140.142 131.349 140.096 131.396 140.038 131.426Z" fill="black"/>
<path d="M128.183 141.712C128.118 141.746 128.044 141.754 127.974 141.736C127.935 141.727 127.899 141.71 127.867 141.687C127.835 141.663 127.808 141.634 127.788 141.6C127.767 141.566 127.754 141.528 127.748 141.489C127.742 141.45 127.743 141.41 127.753 141.372C128.877 136.85 128.204 128.717 128.2 128.635C128.193 128.555 128.218 128.477 128.27 128.416C128.321 128.356 128.395 128.318 128.474 128.312C128.553 128.305 128.632 128.33 128.692 128.382C128.753 128.433 128.791 128.507 128.797 128.586C128.826 128.921 129.484 136.899 128.338 141.518C128.327 141.559 128.308 141.598 128.281 141.632C128.255 141.665 128.221 141.693 128.183 141.712Z" fill="white"/>
<path d="M209.124 127.939H82.1019C79.9785 127.939 77.9421 128.782 76.4395 130.282C74.937 131.783 74.0911 133.818 74.0879 135.941V146.894C74.0911 149.017 74.937 151.052 76.4395 152.553C77.9421 154.053 79.9785 154.896 82.1019 154.896H89.7808L99.1134 203.465H193.339L200.046 154.896H209.136C211.259 154.896 213.296 154.053 214.798 152.553C216.301 151.052 217.147 149.017 217.15 146.894V135.953C217.15 134.9 216.942 133.857 216.539 132.884C216.135 131.911 215.544 131.027 214.798 130.282C214.053 129.538 213.168 128.948 212.194 128.546C211.221 128.144 210.177 127.938 209.124 127.939Z" fill="white"/>
<path d="M193.645 203.83H98.8007L89.4681 155.261H82.1025C79.8843 155.259 77.7575 154.377 76.189 152.808C74.6205 151.239 73.7383 149.113 73.7363 146.894V135.954C73.7383 133.736 74.6205 131.609 76.189 130.04C77.7575 128.472 79.8843 127.59 82.1025 127.588H209.136C211.355 127.59 213.482 128.472 215.05 130.04C216.619 131.609 217.501 133.736 217.503 135.954V146.907C217.501 149.125 216.619 151.252 215.05 152.82C213.482 154.389 211.355 155.271 209.136 155.273H200.362L193.645 203.83ZM99.4031 203.102H193.009L199.716 154.532H209.124C211.149 154.529 213.09 153.724 214.522 152.292C215.954 150.86 216.759 148.919 216.762 146.894V135.954C216.759 133.929 215.954 131.988 214.522 130.556C213.09 129.124 211.149 128.319 209.124 128.316H82.1025C80.0777 128.319 78.1366 129.124 76.7048 130.556C75.2731 131.988 74.4674 133.929 74.4649 135.954V146.907C74.4674 148.931 75.2731 150.872 76.7048 152.304C78.1366 153.736 80.0777 154.542 82.1025 154.544H90.0826L99.4031 203.102Z" fill="#1D1E1B"/>
<path d="M130.672 193.264H130.652C109.258 192.456 88.536 185.571 70.9114 173.416C57.6421 164.281 50.7112 155.278 50.6432 155.188C50.572 155.085 50.5431 154.959 50.5626 154.836C50.5822 154.712 50.6488 154.601 50.7483 154.525C50.8479 154.449 50.9729 154.415 51.0972 154.429C51.2215 154.443 51.3353 154.504 51.4154 154.601C51.4834 154.688 58.3416 163.586 71.4943 172.639C88.983 184.642 109.509 191.455 130.703 192.293C130.832 192.296 130.954 192.349 131.044 192.442C131.133 192.535 131.182 192.66 131.179 192.788C131.176 192.917 131.123 193.04 131.03 193.129C130.937 193.218 130.812 193.267 130.684 193.264H130.672Z" fill="black"/>
<path d="M100.938 196.246C90.585 196.246 83.4258 194.131 79.1128 192.252C73.9207 189.993 71.6427 187.637 71.548 187.528C71.504 187.482 71.4694 187.428 71.4465 187.368C71.4235 187.308 71.4126 187.245 71.4142 187.181C71.4158 187.117 71.4298 187.054 71.4557 186.996C71.4816 186.938 71.5188 186.885 71.565 186.841C71.6113 186.797 71.6658 186.763 71.7254 186.74C71.7849 186.717 71.8484 186.706 71.9122 186.707C71.9761 186.709 72.0389 186.723 72.0972 186.749C72.1556 186.775 72.2083 186.812 72.2523 186.858C72.2936 186.899 74.5495 189.218 79.5643 191.389C84.2197 193.405 92.2678 195.705 104.18 195.207C104.243 195.205 104.307 195.214 104.367 195.237C104.427 195.259 104.482 195.292 104.529 195.336C104.576 195.379 104.614 195.431 104.64 195.489C104.667 195.547 104.682 195.61 104.685 195.673C104.687 195.737 104.677 195.801 104.655 195.861C104.633 195.921 104.6 195.976 104.556 196.023C104.513 196.069 104.461 196.107 104.403 196.134C104.345 196.161 104.282 196.176 104.218 196.179C103.092 196.225 101.998 196.248 100.938 196.246Z" fill="black"/>
<path d="M199.398 155.38H90.8451C90.7163 155.38 90.5928 155.328 90.5017 155.237C90.4106 155.146 90.3594 155.023 90.3594 154.894C90.3594 154.765 90.4106 154.642 90.5017 154.55C90.5928 154.459 90.7163 154.408 90.8451 154.408H199.398C199.527 154.408 199.651 154.459 199.742 154.55C199.833 154.642 199.884 154.765 199.884 154.894C199.884 155.023 199.833 155.146 199.742 155.237C199.651 155.328 199.527 155.38 199.398 155.38Z" fill="black"/>
<path d="M120.036 203.95C119.915 203.95 119.798 203.905 119.708 203.824C119.618 203.743 119.562 203.631 119.55 203.51L114.873 154.94C114.861 154.811 114.9 154.683 114.983 154.583C115.065 154.484 115.184 154.421 115.313 154.408C115.442 154.396 115.57 154.436 115.67 154.518C115.769 154.601 115.832 154.719 115.845 154.848L120.522 203.418C120.534 203.545 120.495 203.673 120.414 203.772C120.332 203.871 120.215 203.934 120.087 203.947L120.036 203.95Z" fill="black"/>
<path d="M170.62 203.948H170.581C170.453 203.937 170.334 203.877 170.251 203.779C170.167 203.681 170.126 203.554 170.136 203.426L174.022 154.856C174.032 154.728 174.093 154.609 174.191 154.526C174.289 154.443 174.416 154.402 174.544 154.412C174.608 154.417 174.67 154.434 174.727 154.463C174.784 154.492 174.834 154.532 174.876 154.58C174.917 154.629 174.949 154.685 174.969 154.745C174.988 154.806 174.996 154.87 174.991 154.934L171.105 203.503C171.095 203.625 171.039 203.738 170.949 203.821C170.859 203.903 170.742 203.948 170.62 203.948Z" fill="black"/>
<path d="M146.212 203.949C146.083 203.949 145.96 203.898 145.869 203.807C145.778 203.716 145.727 203.592 145.727 203.464L145.178 154.894C145.178 154.765 145.229 154.642 145.32 154.55C145.411 154.459 145.535 154.408 145.663 154.408C145.792 154.408 145.916 154.459 146.007 154.55C146.098 154.642 146.149 154.765 146.149 154.894L146.698 203.464C146.698 203.592 146.647 203.716 146.556 203.807C146.465 203.898 146.341 203.949 146.212 203.949Z" fill="black"/>
<path d="M144.666 183.434C136.837 183.434 129.879 183.103 124.044 182.654C105.696 181.248 94.1901 178.412 94.076 178.382C94.0141 178.366 93.956 178.339 93.905 178.3C93.8539 178.262 93.8108 178.214 93.7783 178.159C93.7458 178.104 93.7247 178.043 93.7157 177.979C93.7068 177.916 93.7104 177.852 93.7264 177.79C93.7423 177.728 93.7703 177.67 93.8087 177.619C93.8471 177.568 93.8952 177.525 93.9503 177.492C94.0053 177.46 94.066 177.438 94.1293 177.43C94.1926 177.421 94.2569 177.424 94.3188 177.44C94.4305 177.469 105.878 180.289 124.15 181.688C141.011 182.98 167.295 183.29 196.762 177.435C196.826 177.42 196.892 177.418 196.956 177.429C197.021 177.439 197.082 177.463 197.137 177.498C197.192 177.534 197.24 177.58 197.277 177.634C197.314 177.688 197.339 177.749 197.352 177.813C197.365 177.877 197.364 177.943 197.351 178.007C197.338 178.071 197.311 178.132 197.274 178.185C197.237 178.239 197.189 178.285 197.133 178.319C197.078 178.354 197.016 178.377 196.951 178.387C179.729 181.766 162.217 183.456 144.666 183.434Z" fill="black"/>
<path d="M140.141 131.947H84.529C84.368 131.947 84.2136 131.883 84.0997 131.769C83.9859 131.655 83.9219 131.501 83.9219 131.34C83.9219 131.179 83.9859 131.024 84.0997 130.91C84.2136 130.796 84.368 130.732 84.529 130.732H140.141C140.302 130.732 140.457 130.796 140.571 130.91C140.684 131.024 140.748 131.179 140.748 131.34C140.748 131.501 140.684 131.655 140.571 131.769C140.457 131.883 140.302 131.947 140.141 131.947Z" fill="white"/>
<path d="M190.29 199.336H190.227C190.147 199.328 190.07 199.304 190 199.266C189.93 199.228 189.868 199.176 189.817 199.114C189.767 199.052 189.729 198.981 189.707 198.904C189.684 198.828 189.677 198.748 189.685 198.668L193.813 158.598C193.822 158.518 193.846 158.441 193.884 158.371C193.922 158.3 193.974 158.238 194.036 158.187C194.098 158.137 194.17 158.099 194.247 158.076C194.324 158.053 194.404 158.046 194.484 158.054C194.563 158.062 194.641 158.086 194.711 158.124C194.782 158.163 194.844 158.214 194.895 158.277C194.945 158.339 194.983 158.41 195.006 158.487C195.028 158.564 195.036 158.645 195.028 158.724L190.899 198.794C190.882 198.944 190.811 199.082 190.698 199.182C190.586 199.282 190.44 199.337 190.29 199.336Z" fill="white"/>
<path d="M87.3237 144.333C88.799 144.333 89.995 143.137 89.995 141.662C89.995 140.186 88.799 138.99 87.3237 138.99C85.8483 138.99 84.6523 140.186 84.6523 141.662C84.6523 143.137 85.8483 144.333 87.3237 144.333Z" fill="#382256"/>
<path d="M87.3227 144.696C86.7223 144.696 86.1355 144.518 85.6363 144.185C85.1371 143.851 84.7479 143.377 84.5181 142.822C84.2884 142.268 84.2283 141.657 84.3455 141.068C84.4626 140.48 84.7517 139.939 85.1762 139.514C85.6008 139.09 86.1417 138.8 86.7305 138.683C87.3194 138.566 87.9296 138.626 88.4843 138.856C89.039 139.086 89.5132 139.475 89.8468 139.974C90.1803 140.473 90.3583 141.06 90.3583 141.661C90.357 142.465 90.0368 143.237 89.4678 143.806C88.8988 144.375 88.1274 144.695 87.3227 144.696ZM87.3227 139.354C86.8664 139.354 86.4203 139.489 86.0409 139.742C85.6615 139.996 85.3658 140.356 85.1912 140.778C85.0165 141.199 84.971 141.663 85.06 142.111C85.149 142.558 85.3687 142.969 85.6913 143.292C86.014 143.615 86.4251 143.834 86.8726 143.923C87.3201 144.012 87.7841 143.967 88.2057 143.792C88.6272 143.617 88.9876 143.322 89.2411 142.942C89.4946 142.563 89.6298 142.117 89.6298 141.661C89.6291 141.049 89.3859 140.463 88.9534 140.03C88.5209 139.597 87.9344 139.354 87.3227 139.354Z" fill="black"/>
<path d="M205.589 144.333C207.065 144.333 208.261 143.137 208.261 141.662C208.261 140.186 207.065 138.99 205.589 138.99C204.114 138.99 202.918 140.186 202.918 141.662C202.918 143.137 204.114 144.333 205.589 144.333Z" fill="#382256"/>
<path d="M205.588 144.696C204.988 144.696 204.401 144.518 203.902 144.185C203.403 143.851 203.013 143.377 202.784 142.822C202.554 142.268 202.494 141.657 202.611 141.068C202.728 140.48 203.017 139.939 203.442 139.514C203.866 139.09 204.407 138.8 204.996 138.683C205.585 138.566 206.195 138.626 206.75 138.856C207.305 139.086 207.779 139.475 208.112 139.974C208.446 140.473 208.624 141.06 208.624 141.661C208.623 142.465 208.302 143.237 207.733 143.806C207.164 144.375 206.393 144.695 205.588 144.696ZM205.588 139.354C205.132 139.354 204.686 139.489 204.307 139.742C203.927 139.996 203.631 140.356 203.457 140.778C203.282 141.199 203.237 141.663 203.326 142.111C203.415 142.558 203.634 142.969 203.957 143.292C204.28 143.615 204.691 143.834 205.138 143.923C205.586 144.012 206.05 143.967 206.471 143.792C206.893 143.617 207.253 143.322 207.507 142.942C207.76 142.563 207.895 142.117 207.895 141.661C207.895 141.049 207.652 140.463 207.219 140.03C206.787 139.597 206.2 139.354 205.588 139.354Z" fill="black"/>
<path d="M167.348 172.137H121.673L87.084 141.934L87.5649 141.385L121.945 171.409H167.095L205.366 141.373L205.817 141.946L167.348 172.137Z" fill="black"/>
<path d="M165.58 168.861H123.45C122.544 168.861 121.809 169.596 121.809 170.503V173.048C121.809 173.955 122.544 174.69 123.45 174.69H165.58C166.486 174.69 167.221 173.955 167.221 173.048V170.503C167.221 169.596 166.486 168.861 165.58 168.861Z" fill="#382256"/>
<path d="M165.579 175.053H123.449C122.918 175.052 122.408 174.84 122.032 174.464C121.656 174.088 121.445 173.579 121.443 173.047V170.502C121.445 169.97 121.656 169.461 122.032 169.085C122.408 168.709 122.918 168.497 123.449 168.496H165.579C166.11 168.497 166.62 168.709 166.996 169.085C167.372 169.461 167.583 169.97 167.585 170.502V173.047C167.583 173.579 167.372 174.088 166.996 174.464C166.62 174.84 166.11 175.052 165.579 175.053ZM123.449 169.225C123.111 169.225 122.786 169.36 122.547 169.599C122.307 169.839 122.173 170.163 122.172 170.502V173.047C122.173 173.386 122.307 173.71 122.547 173.95C122.786 174.189 123.111 174.324 123.449 174.324H165.579C165.917 174.324 166.242 174.189 166.481 173.95C166.72 173.71 166.855 173.386 166.856 173.047V170.502C166.855 170.163 166.72 169.839 166.481 169.599C166.242 169.36 165.917 169.225 165.579 169.225H123.449Z" fill="black"/>
<path d="M165.035 170.925H145.607C145.446 170.925 145.292 170.861 145.178 170.747C145.064 170.633 145 170.479 145 170.318C145 170.157 145.064 170.003 145.178 169.889C145.292 169.775 145.446 169.711 145.607 169.711H165.035C165.196 169.711 165.35 169.775 165.464 169.889C165.578 170.003 165.642 170.157 165.642 170.318C165.642 170.479 165.578 170.633 165.464 170.747C165.35 170.861 165.196 170.925 165.035 170.925Z" fill="white"/>
<path d="M185.561 18.0488H165.84C163.25 18.0488 161.15 20.1484 161.15 22.7382V42.46C161.15 45.0498 163.25 47.1494 165.84 47.1494H185.561C188.151 47.1494 190.251 45.0498 190.251 42.46V22.7382C190.251 20.1484 188.151 18.0488 185.561 18.0488Z" fill="#4BD657"/>
<path d="M185.558 47.5117H165.836C164.496 47.5091 163.212 46.975 162.265 46.0266C161.319 45.0782 160.787 43.7931 160.787 42.4531V22.7314C160.788 21.3915 161.321 20.1068 162.269 19.1594C163.216 18.2119 164.501 17.679 165.841 17.6777H185.558C186.898 17.679 188.182 18.2119 189.13 19.1594C190.077 20.1068 190.61 21.3915 190.611 22.7314V42.4531C190.611 43.7939 190.079 45.0799 189.131 46.0284C188.184 46.9769 186.898 47.5104 185.558 47.5117ZM165.838 18.4111C164.692 18.4124 163.592 18.8685 162.781 19.6793C161.971 20.4902 161.515 21.5896 161.513 22.7363V42.4531C161.515 43.5998 161.971 44.6992 162.781 45.5101C163.592 46.3209 164.692 46.777 165.838 46.7783H185.558C186.704 46.777 187.804 46.3209 188.615 45.5101C189.425 44.6992 189.881 43.5998 189.883 42.4531V22.7314C189.88 21.5856 189.424 20.4875 188.613 19.6777C187.802 18.8679 186.704 18.4124 185.558 18.4111H165.838Z" fill="black"/>
<path d="M181.308 39.9042C181.206 39.9036 181.105 39.8817 181.013 39.8399C180.92 39.7981 180.837 39.7373 180.769 39.6613L168.626 26.3047C168.517 26.1591 168.466 25.978 168.484 25.7969C168.501 25.6158 168.586 25.4477 168.721 25.3259C168.856 25.2041 169.032 25.1373 169.214 25.1387C169.396 25.14 169.571 25.2095 169.705 25.3333L181.847 38.6899C181.94 38.7945 182.002 38.9239 182.024 39.0625C182.045 39.2011 182.027 39.343 181.97 39.4713C181.913 39.5995 181.82 39.7086 181.703 39.7854C181.585 39.8622 181.448 39.9034 181.308 39.9042Z" fill="white"/>
<path d="M170.62 39.9041C170.485 39.9042 170.352 39.8668 170.237 39.7959C170.122 39.7251 170.029 39.6236 169.968 39.5029C169.908 39.3822 169.882 39.2472 169.893 39.1126C169.905 38.978 169.954 38.8492 170.034 38.7408L179.991 25.3842C180.048 25.3073 180.12 25.2424 180.202 25.1932C180.284 25.1441 180.375 25.1117 180.47 25.0977C180.565 25.0837 180.661 25.0885 180.754 25.1118C180.847 25.1351 180.934 25.1765 181.011 25.2336C181.088 25.2907 181.153 25.3624 181.202 25.4445C181.251 25.5267 181.284 25.6177 181.298 25.7124C181.312 25.8071 181.307 25.9036 181.284 25.9965C181.26 26.0894 181.219 26.1767 181.162 26.2536L171.205 39.6102C171.137 39.7015 171.049 39.7756 170.947 39.8266C170.846 39.8777 170.733 39.9042 170.62 39.9041Z" fill="white"/>
<path d="M194.423 24.1171C194.294 24.1171 194.171 24.0659 194.08 23.9748C193.988 23.8837 193.937 23.7602 193.937 23.6314C194.017 19.894 193.175 17.2639 191.429 15.8116C189.398 14.1117 186.778 14.6412 186.751 14.646C186.625 14.6727 186.493 14.6482 186.385 14.5778C186.277 14.5075 186.201 14.3971 186.175 14.2708C186.148 14.1446 186.172 14.0129 186.243 13.9048C186.313 13.7966 186.424 13.7208 186.55 13.6941C186.676 13.6698 189.641 13.0675 192.041 15.0564C194.032 16.7054 194.996 19.5977 194.909 23.6509C194.904 23.7763 194.85 23.8949 194.76 23.9818C194.669 24.0687 194.548 24.1172 194.423 24.1171Z" fill="black"/>
<path d="M165.159 31.5252C151.105 31.3989 139.47 25.0169 132.182 19.684C124.297 13.9139 119.659 8.08552 119.612 8.02723C119.573 7.97716 119.543 7.91977 119.526 7.85838C119.509 7.79698 119.504 7.73273 119.511 7.66936C119.519 7.606 119.538 7.5447 119.569 7.489C119.601 7.43331 119.643 7.38436 119.693 7.34481C119.743 7.30527 119.8 7.27598 119.861 7.25861C119.923 7.24123 119.987 7.23611 120.05 7.24355C120.114 7.25099 120.175 7.27076 120.231 7.30189C120.286 7.33301 120.335 7.37478 120.375 7.42485C120.421 7.48314 124.989 13.2242 132.78 18.9165C139.946 24.1572 151.384 30.4299 165.168 30.5538C165.297 30.5538 165.421 30.605 165.512 30.6961C165.603 30.7872 165.654 30.9107 165.654 31.0395C165.654 31.1683 165.603 31.2918 165.512 31.3829C165.421 31.474 165.297 31.5252 165.168 31.5252H165.159Z" fill="black"/>
<path d="M158.969 37.866C150.312 37.866 140.513 34.5876 139.991 34.4127C139.877 34.3654 139.785 34.2767 139.735 34.1645C139.684 34.0524 139.678 33.9251 139.717 33.8084C139.757 33.6918 139.839 33.5946 139.947 33.5363C140.056 33.4781 140.182 33.4632 140.301 33.4947C140.459 33.5457 156.05 38.7548 165.024 36.166C165.085 36.1482 165.149 36.1426 165.212 36.1495C165.276 36.1565 165.337 36.1758 165.393 36.2065C165.449 36.2371 165.498 36.2785 165.538 36.3282C165.578 36.378 165.608 36.4351 165.626 36.4964C165.644 36.5576 165.649 36.6218 165.642 36.6852C165.635 36.7486 165.616 36.8099 165.585 36.8659C165.555 36.9218 165.513 36.9711 165.464 37.011C165.414 37.0509 165.357 37.0808 165.295 37.0986C163.232 37.6464 161.103 37.9046 158.969 37.866Z" fill="black"/>
<defs>
<filter id="filter0_d_2836_20232" x="-2.90754" y="78.04" width="28.0084" height="28.0084" filterUnits="userSpaceOnUse" color-interpolation-filters="sRGB">
<feFlood flood-opacity="0" result="BackgroundImageFix"/>
<feColorMatrix in="SourceAlpha" type="matrix" values="0 0 0 0 0 0 0 0 0 0 0 0 0 0 0 0 0 0 127 0" result="hardAlpha"/>
<feOffset dy="1.47487"/>
<feGaussianBlur stdDeviation="3.68717"/>
<feComposite in2="hardAlpha" operator="out"/>
<feColorMatrix type="matrix" values="0 0 0 0 0 0 0 0 0 0 0 0 0 0 0 0 0 0 0.05 0"/>
<feBlend mode="normal" in2="BackgroundImageFix" result="effect1_dropShadow_2836_20232"/>
<feBlend mode="normal" in="SourceGraphic" in2="effect1_dropShadow_2836_20232" result="shape"/>
</filter>
<filter id="filter1_d_2836_20232" x="268.36" y="119.612" width="28.0104" height="28.0123" filterUnits="userSpaceOnUse" color-interpolation-filters="sRGB">
<feFlood flood-opacity="0" result="BackgroundImageFix"/>
<feColorMatrix in="SourceAlpha" type="matrix" values="0 0 0 0 0 0 0 0 0 0 0 0 0 0 0 0 0 0 127 0" result="hardAlpha"/>
<feOffset dy="1.47487"/>
<feGaussianBlur stdDeviation="3.68717"/>
<feComposite in2="hardAlpha" operator="out"/>
<feColorMatrix type="matrix" values="0 0 0 0 0 0 0 0 0 0 0 0 0 0 0 0 0 0 0.05 0"/>
<feBlend mode="normal" in2="BackgroundImageFix" result="effect1_dropShadow_2836_20232"/>
<feBlend mode="normal" in="SourceGraphic" in2="effect1_dropShadow_2836_20232" result="shape"/>
</filter>
<linearGradient id="paint0_linear_2836_20232" x1="14.8121" y1="81.1199" x2="283.858" y2="145.202" gradientUnits="userSpaceOnUse">
<stop stop-color="#CDD5E2"/>
<stop offset="1" stop-color="#CDD5E2" stop-opacity="0"/>
</linearGradient>
<linearGradient id="paint1_linear_2836_20232" x1="283.39" y1="141.502" x2="256.196" y2="212.895" gradientUnits="userSpaceOnUse">
<stop stop-color="#CDD5E2"/>
<stop offset="1" stop-color="#CDD5E2" stop-opacity="0"/>
</linearGradient>
<linearGradient id="paint2_linear_2836_20232" x1="142.272" y1="16.8418" x2="142.272" y2="264.273" gradientUnits="userSpaceOnUse">
<stop stop-color="#CDD5E2"/>
<stop offset="1" stop-color="#CDD5E2" stop-opacity="0"/>
</linearGradient>
<linearGradient id="paint3_linear_2836_20232" x1="142.275" y1="41.582" x2="142.275" y2="239.527" gradientUnits="userSpaceOnUse">
<stop stop-color="#CDD5E2"/>
<stop offset="1" stop-color="#CDD5E2" stop-opacity="0"/>
</linearGradient>
</defs>
</svg>
