<svg width="406" height="302" viewBox="0 0 406 302" fill="none" xmlns="http://www.w3.org/2000/svg">
<mask id="mask0_2656_36066" style="mask-type:alpha" maskUnits="userSpaceOnUse" x="0" y="0" width="406" height="302">
<rect width="405.823" height="301.875" fill="#D9D9D9"/>
</mask>
<g mask="url(#mask0_2656_36066)">
<g opacity="0.5">
<mask id="path-2-inside-1_2656_36066" fill="white">
<path d="M389.979 202.565C391.995 156.308 377.371 110.86 348.759 74.4588C320.146 38.0574 279.439 13.1119 234.015 4.14415C188.592 -4.82363 141.458 2.77982 101.159 25.5762C60.859 48.3727 30.0607 84.8533 14.3462 128.405L15.1858 128.708C30.8279 85.357 61.4843 49.0446 101.598 26.3532C141.712 3.66186 188.628 -3.90654 233.842 5.0199C279.057 13.9463 319.576 38.7768 348.057 75.0104C376.537 111.244 391.094 156.483 389.087 202.526L389.979 202.565Z"/>
</mask>
<path d="M389.979 202.565C391.995 156.308 377.371 110.86 348.759 74.4588C320.146 38.0574 279.439 13.1119 234.015 4.14415C188.592 -4.82363 141.458 2.77982 101.159 25.5762C60.859 48.3727 30.0607 84.8533 14.3462 128.405L15.1858 128.708C30.8279 85.357 61.4843 49.0446 101.598 26.3532C141.712 3.66186 188.628 -3.90654 233.842 5.0199C279.057 13.9463 319.576 38.7768 348.057 75.0104C376.537 111.244 391.094 156.483 389.087 202.526L389.979 202.565Z" stroke="url(#paint0_linear_2656_36066)" stroke-width="2.84788" stroke-dasharray="4.27 4.27" mask="url(#path-2-inside-1_2656_36066)"/>
</g>
<g opacity="0.5">
<mask id="path-3-inside-2_2656_36066" fill="white">
<path d="M14.6043 260.573C30.4892 304.064 61.4301 340.423 101.819 363.062C142.207 385.7 189.37 393.119 234.758 383.974C280.146 374.828 320.756 349.724 349.225 313.211C377.695 276.697 392.141 231.193 389.944 184.944L389.052 184.987C391.239 231.022 376.86 276.317 348.521 312.662C320.183 349.006 279.761 373.995 234.582 383.099C189.403 392.202 142.457 384.817 102.255 362.283C62.0527 339.749 31.2544 303.557 15.4428 260.267L14.6043 260.573Z"/>
</mask>
<path d="M14.6043 260.573C30.4892 304.064 61.4301 340.423 101.819 363.062C142.207 385.7 189.37 393.119 234.758 383.974C280.146 374.828 320.756 349.724 349.225 313.211C377.695 276.697 392.141 231.193 389.944 184.944L389.052 184.987C391.239 231.022 376.86 276.317 348.521 312.662C320.183 349.006 279.761 373.995 234.582 383.099C189.403 392.202 142.457 384.817 102.255 362.283C62.0527 339.749 31.2544 303.557 15.4428 260.267L14.6043 260.573Z" stroke="url(#paint1_linear_2656_36066)" stroke-width="2.84788" stroke-dasharray="4.27 4.27" mask="url(#path-3-inside-2_2656_36066)"/>
</g>
<circle opacity="0.08" cx="196.502" cy="194.132" r="170.873" fill="url(#paint2_linear_2656_36066)"/>
<circle opacity="0.1" cx="196.505" cy="194.132" r="136.698" fill="url(#paint3_linear_2656_36066)"/>
<circle cx="196.505" cy="194.134" r="91.1321" fill="white"/>
<g filter="url(#filter0_d_2656_36066)">
<circle cx="15.3224" cy="125.091" r="7.11969" transform="rotate(-2.50406 15.3224 125.091)" fill="#0170FF"/>
<circle cx="15.3224" cy="125.091" r="8.13822" transform="rotate(-2.50406 15.3224 125.091)" stroke="white" stroke-width="2.03704"/>
</g>
<g filter="url(#filter1_d_2656_36066)">
<circle cx="389.993" cy="182.518" r="7.11969" transform="rotate(-15.7345 389.993 182.518)" fill="#0170FF"/>
<circle cx="389.993" cy="182.518" r="8.13822" transform="rotate(-15.7345 389.993 182.518)" stroke="white" stroke-width="2.03704"/>
</g>
</g>
<path d="M326.488 281.84H78.3447C78.1667 281.84 77.9958 281.769 77.87 281.643C77.7442 281.517 77.6738 281.347 77.6738 281.169C77.6738 280.991 77.7442 280.82 77.87 280.695C77.9958 280.569 78.1667 280.498 78.3447 280.498H326.488C326.666 280.498 326.837 280.569 326.962 280.695C327.088 280.82 327.159 280.991 327.159 281.169C327.159 281.347 327.088 281.517 326.962 281.643C326.837 281.769 326.666 281.84 326.488 281.84Z" fill="#1D1D1B"/>
<path d="M339.137 272.057H301.067C300.889 272.057 300.719 271.986 300.593 271.86C300.467 271.734 300.396 271.564 300.396 271.386C300.396 271.208 300.467 271.037 300.593 270.911C300.719 270.786 300.889 270.715 301.067 270.715H339.137C339.315 270.715 339.485 270.786 339.611 270.911C339.737 271.037 339.808 271.208 339.808 271.386C339.808 271.564 339.737 271.734 339.611 271.86C339.485 271.986 339.315 272.057 339.137 272.057Z" fill="#1D1D1B"/>
<path d="M101.737 293H63.6708C63.4929 293 63.322 292.929 63.1962 292.803C63.0704 292.678 63 292.507 63 292.329C63 292.151 63.0704 291.981 63.1962 291.855C63.322 291.729 63.4929 291.658 63.6708 291.658H101.737C101.915 291.658 102.085 291.729 102.211 291.855C102.337 291.981 102.408 292.151 102.408 292.329C102.408 292.507 102.337 292.678 102.211 292.803C102.085 292.929 101.915 293 101.737 293Z" fill="#1D1D1B"/>
<path d="M174.26 162.135C174.26 162.135 172.013 170.544 166.314 167.619C160.615 164.694 148.47 158.318 143.257 166.613C138.045 174.907 138.642 176.893 131.894 175.447C125.145 174.002 109.471 192.889 126.561 201.945C154.571 216.811 188.981 173.398 188.981 173.398L184.49 167.696L174.26 162.135Z" fill="#382256"/>
<path d="M139.135 205.548C134.67 205.573 130.269 204.49 126.326 202.396C119.366 198.706 116.79 192.695 119.262 185.92C121.556 179.627 127.982 174.096 132.007 174.952C137.136 176.052 137.575 175.287 140.43 170.37C141.101 169.213 141.859 167.901 142.838 166.345C148.228 157.758 160.454 164.037 166.317 167.053L166.535 167.167C167.783 167.807 168.94 167.898 169.976 167.438C172.599 166.275 173.757 162.042 173.767 161.998L173.934 161.381L184.815 167.311L189.615 173.406L189.367 173.718C189.28 173.825 180.586 184.726 168.571 193.658C161.494 198.917 154.661 202.479 148.262 204.247C145.292 205.091 142.222 205.529 139.135 205.548ZM131.132 175.871C127.818 175.871 122.351 180.386 120.208 186.269C118.866 189.958 117.943 196.811 126.795 201.51C141.033 209.064 157.046 200.97 167.974 192.85C178.758 184.837 186.838 175.23 188.337 173.396L184.158 168.093L174.558 162.86C174.105 164.185 172.821 167.277 170.392 168.354C169.051 168.944 167.615 168.844 166.082 168.059L165.864 167.945C160.256 165.064 148.584 159.07 143.683 166.878C142.714 168.421 141.959 169.726 141.292 170.876C138.407 175.854 137.633 177.189 131.79 175.938C131.573 175.895 131.353 175.875 131.132 175.881V175.871Z" fill="black"/>
<path d="M190.09 144.738C196.218 144.738 201.185 139.77 201.185 133.642C201.185 127.515 196.218 122.547 190.09 122.547C183.962 122.547 178.994 127.515 178.994 133.642C178.994 139.77 183.962 144.738 190.09 144.738Z" fill="#382256"/>
<path d="M190.089 145.244C187.12 145.246 184.262 144.111 182.104 142.072C179.945 140.033 178.651 137.244 178.485 134.28C178.319 131.315 179.296 128.4 181.213 126.133C183.131 123.866 185.844 122.419 188.795 122.091C191.746 121.762 194.711 122.577 197.079 124.367C199.448 126.157 201.042 128.787 201.532 131.716C202.022 134.644 201.371 137.649 199.714 140.113C198.057 142.577 195.518 144.312 192.621 144.962C191.79 145.149 190.941 145.243 190.089 145.244ZM190.109 123.046C189.319 123.046 188.532 123.133 187.761 123.304C185.135 123.897 182.834 125.472 181.332 127.707C179.831 129.942 179.242 132.667 179.686 135.323C180.13 137.979 181.574 140.364 183.721 141.989C185.868 143.613 188.556 144.355 191.232 144.06C193.909 143.766 196.371 142.458 198.114 140.405C199.857 138.353 200.748 135.711 200.604 133.022C200.46 130.333 199.292 127.801 197.341 125.946C195.389 124.091 192.802 123.053 190.109 123.046Z" fill="#1D1E1B"/>
<path d="M201.909 135.647C195.717 128.764 183.91 133.192 181.616 137.347C175.914 147.665 167.478 145.29 168.2 154.816C168.569 159.599 173.076 160.444 173.107 169.349C173.107 173.945 182.045 178.979 188.737 177.48C195.428 175.98 218.327 171.107 219.072 165.784C219.817 160.461 225.385 150.546 217.14 142.573C208.822 134.513 204.592 138.632 201.909 135.647Z" fill="#382256"/>
<path d="M186.205 178.254C182.244 178.254 178.232 176.517 175.807 174.565C173.758 172.931 172.627 171.076 172.621 169.339C172.604 164.214 171.074 161.859 169.729 159.78C168.777 158.311 167.874 156.922 167.717 154.842C167.287 149.268 169.87 147.53 173.144 145.327C175.747 143.572 178.702 141.583 181.194 137.089C182.623 134.499 187.057 132.165 191.504 131.655C195.952 131.145 199.732 132.447 202.298 135.298C203.187 136.284 204.311 136.381 205.837 136.515C208.52 136.753 212.21 137.075 217.519 142.197C224.228 148.698 222.094 156.379 220.538 161.987C220.151 163.252 219.842 164.541 219.612 165.844C218.942 170.681 203.331 174.753 189.807 177.758L188.891 177.963C188.009 178.159 187.108 178.257 186.205 178.254ZM193.309 132.567C192.74 132.568 192.171 132.602 191.605 132.668C187.04 133.191 183.166 135.58 182.056 137.589C179.456 142.285 176.263 144.445 173.697 146.175C170.467 148.352 168.331 149.788 168.713 154.775C168.854 156.6 169.649 157.828 170.568 159.246C171.909 161.333 173.587 163.942 173.623 169.349C173.623 170.775 174.63 172.351 176.431 173.793C179.225 176.024 184.239 177.976 188.64 176.99L189.559 176.785C208.379 172.603 218.146 168.876 218.586 165.717C218.822 164.369 219.14 163.037 219.538 161.728C221.041 156.362 223.094 149.023 216.801 142.945C211.77 138.068 208.275 137.763 205.733 137.542C204.099 137.397 202.69 137.273 201.537 135.996C199.527 133.768 196.65 132.567 193.309 132.567Z" fill="#1D1E1B"/>
<path d="M256.166 179.962C276.056 170.017 266.453 119.319 264.34 112.168C262.227 105.017 257.226 105.694 257.226 105.694L256.659 99.9485L238.261 99.2207L237.855 103.159C237.855 103.159 230.865 105.728 230.902 112.839C230.939 119.949 230.748 122.257 231.083 127.231C231.083 127.231 229.447 155.741 224.325 163.875C219.203 172.009 209.922 175.994 209.922 175.994" fill="#07ACEE"/>
<path d="M256.166 180.465C256.053 180.464 255.943 180.426 255.854 180.356C255.766 180.285 255.703 180.187 255.677 180.077C255.651 179.967 255.663 179.851 255.711 179.749C255.759 179.646 255.84 179.563 255.941 179.512C266.191 174.387 268.157 157.928 268.016 145.021C267.835 130.156 264.917 115.84 263.874 112.308C261.905 105.65 257.353 106.187 257.306 106.194C257.239 106.202 257.171 106.197 257.106 106.179C257.041 106.162 256.981 106.131 256.927 106.09C256.875 106.049 256.832 105.998 256.8 105.941C256.767 105.883 256.747 105.82 256.739 105.754L256.216 100.445L238.727 99.7503L238.369 103.218C238.358 103.313 238.321 103.403 238.261 103.478C238.202 103.553 238.123 103.609 238.033 103.641C237.762 103.742 231.379 106.18 231.412 112.845C231.412 115.153 231.412 116.934 231.412 118.503C231.392 121.73 231.375 123.87 231.603 127.207C231.607 127.228 231.607 127.25 231.603 127.271C231.536 128.438 229.899 155.996 224.767 164.167C219.636 172.337 210.523 176.315 210.137 176.48C210.076 176.506 210.011 176.52 209.945 176.52C209.878 176.521 209.813 176.509 209.751 176.484C209.69 176.46 209.634 176.423 209.587 176.377C209.54 176.331 209.502 176.276 209.476 176.215C209.45 176.154 209.436 176.089 209.436 176.023C209.435 175.957 209.447 175.891 209.472 175.83C209.496 175.768 209.533 175.712 209.579 175.665C209.625 175.618 209.68 175.58 209.741 175.554C209.831 175.514 218.942 171.529 223.916 163.63C228.836 155.808 230.533 128.344 230.597 127.258C230.369 123.903 230.386 121.75 230.406 118.513C230.406 116.944 230.429 115.159 230.406 112.865C230.372 106.348 236.021 103.44 237.389 102.833L237.768 99.1934C237.781 99.066 237.842 98.9482 237.938 98.8641C238.035 98.7799 238.16 98.7357 238.288 98.7406L256.686 99.4686C256.808 99.4737 256.924 99.5225 257.012 99.6063C257.101 99.6901 257.157 99.8032 257.169 99.9247L257.689 105.204C259.104 105.251 263.028 105.945 264.83 112.047C266.996 119.379 276.697 170.285 256.397 180.434C256.324 180.463 256.244 180.474 256.166 180.465Z" fill="#1D1D1B"/>
<path d="M256.96 105.825C257.239 105.796 257.522 105.796 257.801 105.825C253.937 108.106 244.72 112.094 237.979 103.477C238.14 103.407 238.237 103.37 238.237 103.37L238.629 99.5664L256.406 100.271L256.96 105.825Z" fill="#0598C6"/>
<path d="M199.067 155.296C193.761 157.469 185.882 156.392 184.98 158.593C184.077 160.793 185.506 163.262 188.612 163.372C191.718 163.483 194.673 162.859 200.66 161.283C206.648 159.706 212.4 157.714 211.115 154.595C209.831 151.475 206.869 152.099 199.067 155.296Z" fill="#FFB49F"/>
<path d="M192.315 140.121C192.087 149.177 184.333 155.034 179.717 156.52C179.271 159.364 180.586 162.775 181.274 165.848C183.799 177.128 191.776 183.91 202.438 180.75C212.836 177.664 217.042 170.376 214.138 157.975C213.467 155.05 212.917 152.112 211.408 149.805C202.422 151.773 192.315 140.121 192.315 140.121Z" fill="#FFCDB2"/>
<path d="M197.356 182.024C194.725 182.039 192.14 181.343 189.873 180.011C185.462 177.418 182.232 172.424 180.783 165.94C180.612 165.182 180.407 164.414 180.189 163.592C179.542 161.167 178.868 158.655 179.22 156.418L179.267 156.113L179.562 156.019C184.523 154.419 191.603 148.422 191.811 140.083L191.842 138.785L192.693 139.765C192.791 139.879 202.709 151.169 211.299 149.287L211.634 149.213L211.826 149.505C213.204 151.615 213.804 154.245 214.385 156.79C214.462 157.126 214.542 157.488 214.623 157.837C216.082 164.055 215.777 169.177 213.72 173.065C211.708 176.872 207.958 179.612 202.578 181.205C200.886 181.728 199.127 182.004 197.356 182.024ZM180.172 156.898C179.958 158.86 180.568 161.144 181.179 163.358C181.39 164.143 181.608 164.954 181.782 165.736C183.171 171.941 186.23 176.707 190.399 179.152C193.834 181.165 197.953 181.554 202.31 180.263C212.708 177.173 216.437 169.922 213.663 158.085L213.422 157.035C212.865 154.587 212.335 152.269 211.181 150.36C210.557 150.473 209.924 150.529 209.29 150.528C202.196 150.528 195.122 143.8 192.76 141.328C191.925 149.783 184.845 155.257 180.172 156.911V156.898Z" fill="#1D1D1B"/>
<path d="M198.096 156.214C191.794 158.871 182.385 157.68 181.325 160.313C180.265 162.946 181.996 165.878 185.716 165.975C189.436 166.072 192.937 165.304 200.062 163.339C207.186 161.373 214.018 158.948 212.472 155.242C210.926 151.535 207.367 152.314 198.096 156.214Z" fill="#FFB49F"/>
<path d="M185.763 156.949C185.641 156.95 185.524 156.907 185.431 156.827C185.339 156.748 185.279 156.639 185.261 156.519C185.244 156.398 185.27 156.276 185.336 156.174C185.401 156.072 185.502 155.997 185.618 155.963C185.652 155.963 188.935 154.956 189.14 152.944C189.154 152.811 189.22 152.688 189.324 152.603C189.428 152.519 189.562 152.479 189.695 152.493C189.829 152.507 189.951 152.573 190.036 152.677C190.12 152.781 190.16 152.915 190.146 153.048C189.875 155.731 186.071 156.882 185.91 156.929C185.862 156.944 185.813 156.951 185.763 156.949Z" fill="black"/>
<path d="M203.534 152.79C201.437 152.79 199.77 150.945 199.696 150.865C199.607 150.765 199.562 150.634 199.569 150.501C199.577 150.367 199.637 150.242 199.737 150.153C199.836 150.064 199.967 150.019 200.1 150.026C200.234 150.034 200.359 150.094 200.448 150.194C200.448 150.214 202.031 151.945 203.772 151.774C203.838 151.767 203.904 151.774 203.968 151.793C204.031 151.813 204.091 151.844 204.142 151.886C204.193 151.929 204.235 151.981 204.267 152.039C204.298 152.098 204.317 152.162 204.324 152.228C204.33 152.294 204.323 152.361 204.304 152.424C204.284 152.488 204.253 152.547 204.211 152.598C204.168 152.649 204.117 152.692 204.058 152.723C203.999 152.754 203.935 152.773 203.869 152.78C203.755 152.786 203.631 152.79 203.534 152.79Z" fill="black"/>
<path d="M188.445 160.464C189.142 160.464 189.706 159.899 189.706 159.203C189.706 158.506 189.142 157.941 188.445 157.941C187.748 157.941 187.184 158.506 187.184 159.203C187.184 159.899 187.748 160.464 188.445 160.464Z" fill="black"/>
<path d="M204.441 156.886C205.137 156.886 205.702 156.321 205.702 155.625C205.702 154.928 205.137 154.363 204.441 154.363C203.744 154.363 203.18 154.928 203.18 155.625C203.18 156.321 203.744 156.886 204.441 156.886Z" fill="black"/>
<path d="M198.304 166.804C198.189 166.803 198.079 166.764 197.989 166.693C197.9 166.622 197.837 166.523 197.811 166.412L195.828 157.55C195.799 157.42 195.823 157.283 195.895 157.171C195.967 157.058 196.08 156.978 196.211 156.949C196.341 156.921 196.477 156.945 196.59 157.016C196.703 157.088 196.782 157.202 196.811 157.332L198.793 166.19C198.808 166.255 198.809 166.322 198.798 166.387C198.786 166.452 198.762 166.514 198.727 166.57C198.691 166.625 198.645 166.674 198.591 166.712C198.536 166.749 198.476 166.776 198.411 166.791C198.376 166.8 198.34 166.804 198.304 166.804Z" fill="black"/>
<path d="M195.673 174.112C195.558 174.112 195.446 174.072 195.358 173.998C195.306 173.956 195.264 173.905 195.232 173.847C195.2 173.789 195.18 173.726 195.173 173.66C195.166 173.594 195.171 173.528 195.19 173.464C195.209 173.401 195.24 173.342 195.281 173.29C195.335 173.226 196.565 171.73 198.185 171.73H198.222C199.141 171.73 199.977 172.23 200.695 173.169C200.735 173.222 200.764 173.282 200.782 173.345C200.799 173.409 200.803 173.476 200.795 173.542C200.786 173.607 200.765 173.67 200.732 173.728C200.699 173.785 200.655 173.835 200.602 173.875C200.55 173.916 200.49 173.945 200.426 173.962C200.362 173.98 200.296 173.984 200.23 173.976C200.164 173.967 200.101 173.945 200.044 173.912C199.987 173.879 199.937 173.836 199.896 173.783C199.373 173.112 198.806 172.747 198.219 172.737C197.085 172.737 196.086 173.914 196.079 173.924C196.031 173.985 195.969 174.033 195.898 174.065C195.828 174.098 195.751 174.114 195.673 174.112Z" fill="black"/>
<path d="M239.608 98.5496C239.608 98.5496 218.585 83.1775 233.038 78.153L233.866 65.1892C233.866 65.1892 240.078 61.124 242.772 71.3374C242.772 71.3374 247.612 71.2736 250.362 74.7988C250.362 74.7988 255.588 73.3867 257.406 80.8363C259.385 88.8863 255.457 99.5591 255.457 99.5591L239.608 98.5496Z" fill="#FFCDB2"/>
<path d="M255.805 100.076L239.426 99.0429L239.309 98.9557C238.786 98.5733 226.516 89.517 227.519 82.802C227.855 80.595 229.532 78.9079 232.55 77.7909L233.372 64.9077L233.584 64.7702C233.681 64.7064 235.948 63.2508 238.46 64.2168C240.564 65.0218 242.15 67.2354 243.156 70.8445C244.377 70.9082 248.114 71.3443 250.559 74.2456C251.836 74.064 253.136 74.3206 254.249 74.9735C255.983 75.9965 257.207 77.9252 257.891 80.7091C259.88 88.8228 256.087 99.2844 255.922 99.7238L255.805 100.076ZM239.785 98.0634L255.111 99.0328C255.755 97.131 258.642 87.9641 256.922 80.9539C256.311 78.4551 255.245 76.7412 253.765 75.859C252.78 75.2733 251.613 75.0715 250.489 75.2922L250.153 75.376L249.945 75.1143C247.376 71.8239 242.808 71.8475 242.761 71.8475H242.368L242.268 71.4683C241.352 67.9934 239.947 65.8704 238.092 65.1593C236.445 64.5254 234.885 65.2029 234.335 65.4947L233.5 78.5222L233.185 78.6329C230.357 79.6157 228.781 81.068 228.489 82.953C227.65 88.7456 238.534 97.1142 239.785 98.0567V98.0634Z" fill="#1D1D1B"/>
<path d="M257.921 82.3055C258.277 86.0286 254.567 90.2382 251.884 87.7528C249.66 85.69 249.798 83.7982 249.798 83.7982C249.798 83.7982 247.379 89.611 243.089 85.8778C238.799 82.1447 242.502 71.6797 242.502 71.6797" fill="#FFCDB2"/>
<path d="M253.652 89.0037C252.86 88.9922 252.104 88.6763 251.539 88.1216C250.656 87.3418 249.977 86.3586 249.56 85.2571C248.963 86.146 247.99 87.2294 246.645 87.5413C245.384 87.8365 244.076 87.407 242.758 86.2599C238.26 82.3456 241.869 71.9511 242.027 71.5016C242.049 71.4393 242.083 71.382 242.127 71.3328C242.171 71.2836 242.224 71.2437 242.284 71.2152C242.344 71.1867 242.408 71.1702 242.474 71.1667C242.54 71.1632 242.606 71.1727 242.669 71.1947C242.731 71.2168 242.788 71.2509 242.838 71.2951C242.887 71.3393 242.927 71.3927 242.955 71.4524C242.984 71.512 243 71.5767 243.004 71.6427C243.007 71.7087 242.998 71.7747 242.976 71.8371C242.939 71.9377 239.434 82.027 243.418 85.4885C244.478 86.4109 245.484 86.7732 246.414 86.5552C248.252 86.1259 249.318 83.6202 249.328 83.5967C249.374 83.4869 249.458 83.3969 249.564 83.3429C249.67 83.2888 249.792 83.2742 249.908 83.3016C250.024 83.329 250.126 83.3966 250.197 83.4924C250.268 83.5882 250.302 83.706 250.294 83.8249C250.294 83.8886 250.227 85.5221 252.223 87.3736C252.541 87.6912 252.954 87.8959 253.399 87.9565C253.844 88.0171 254.297 87.9302 254.689 87.709C256.184 86.9677 257.64 84.6299 257.419 82.3424C257.406 82.2089 257.446 82.0757 257.532 81.9722C257.617 81.8688 257.74 81.8035 257.873 81.7906C258.006 81.7777 258.14 81.8182 258.243 81.9035C258.347 81.9887 258.412 82.1117 258.425 82.2451C258.666 84.7473 257.191 87.6117 255.138 88.618C254.68 88.8607 254.17 88.9928 253.652 89.0037Z" fill="#1D1D1B"/>
<path d="M249.521 84.8578H249.471C249.405 84.8515 249.341 84.8322 249.282 84.8011C249.224 84.77 249.172 84.7277 249.13 84.6766C249.088 84.6255 249.057 84.5667 249.037 84.5034C249.018 84.4401 249.012 84.3735 249.018 84.3077L249.944 74.7752C249.957 74.6417 250.022 74.5189 250.126 74.4337C250.229 74.3485 250.362 74.3078 250.495 74.3207C250.629 74.3336 250.752 74.3989 250.837 74.5023C250.922 74.6058 250.963 74.739 250.95 74.8725L250.024 84.4049C250.011 84.5292 249.952 84.6442 249.86 84.7277C249.767 84.8113 249.646 84.8577 249.521 84.8578Z" fill="#1D1D1B"/>
<path d="M233.051 78.1439C233.051 78.1439 240.131 74.263 242.808 77.9727C245.485 81.6824 234.49 87.8172 234.49 87.8172" fill="#FFCDB2"/>
<path d="M234.489 88.3278C234.378 88.3277 234.269 88.2908 234.181 88.2226C234.093 88.1545 234.03 88.0589 234.002 87.9511C233.974 87.8433 233.983 87.7294 234.026 87.627C234.07 87.5246 234.147 87.4395 234.244 87.3852C234.321 87.3416 241.928 83.0551 242.666 79.7177C242.732 79.4712 242.742 79.2131 242.695 78.9624C242.648 78.7116 242.545 78.4745 242.395 78.2686C240.01 74.9614 233.338 78.5505 233.288 78.584C233.23 78.6183 233.166 78.6405 233.099 78.6494C233.032 78.6583 232.964 78.6538 232.899 78.636C232.834 78.6181 232.773 78.5872 232.72 78.5454C232.667 78.5036 232.624 78.4516 232.591 78.3924C232.559 78.3333 232.539 78.2681 232.532 78.201C232.525 78.1339 232.532 78.0661 232.552 78.0016C232.572 77.9372 232.605 77.8776 232.648 77.8261C232.692 77.7746 232.745 77.7322 232.805 77.7018C233.111 77.5341 240.309 73.6567 243.203 77.6783C243.437 77.9996 243.597 78.3684 243.672 78.7585C243.748 79.1485 243.736 79.5505 243.639 79.9357C242.804 83.7125 235.053 88.0796 234.724 88.2641C234.652 88.3031 234.571 88.3249 234.489 88.3278Z" fill="#1D1D1B"/>
<path d="M257.303 170.896C258.265 170.896 259.044 170.116 259.044 169.155C259.044 168.193 258.265 167.414 257.303 167.414C256.342 167.414 255.562 168.193 255.562 169.155C255.562 170.116 256.342 170.896 257.303 170.896Z" fill="#51CEF4"/>
<path d="M233.8 171.505C234.761 171.505 235.54 170.726 235.54 169.764C235.54 168.803 234.761 168.023 233.8 168.023C232.838 168.023 232.059 168.803 232.059 169.764C232.059 170.726 232.838 171.505 233.8 171.505Z" fill="#51CEF4"/>
<path d="M249.672 147.694C250.634 147.694 251.413 146.915 251.413 145.954C251.413 144.992 250.634 144.213 249.672 144.213C248.711 144.213 247.932 144.992 247.932 145.954C247.932 146.915 248.711 147.694 249.672 147.694Z" fill="#51CEF4"/>
<path d="M241.737 132.128C242.698 132.128 243.478 131.349 243.478 130.387C243.478 129.426 242.698 128.646 241.737 128.646C240.776 128.646 239.996 129.426 239.996 130.387C239.996 131.349 240.776 132.128 241.737 132.128Z" fill="#51CEF4"/>
<path d="M259.137 117.169C260.099 117.169 260.878 116.39 260.878 115.428C260.878 114.467 260.099 113.688 259.137 113.688C258.176 113.688 257.396 114.467 257.396 115.428C257.396 116.39 258.176 117.169 259.137 117.169Z" fill="#51CEF4"/>
<path d="M276.75 159.93C276.683 159.93 276.616 159.92 276.552 159.9C276.382 159.847 276.24 159.729 276.157 159.572C276.074 159.415 276.057 159.231 276.109 159.061C281.975 140.151 271.93 124.564 271.829 124.409C271.735 124.261 271.703 124.081 271.74 123.909C271.776 123.737 271.879 123.586 272.026 123.49C272.173 123.393 272.353 123.358 272.525 123.392C272.698 123.426 272.85 123.526 272.949 123.671C273.053 123.832 283.451 139.926 277.39 159.457C277.348 159.594 277.263 159.714 277.148 159.799C277.032 159.884 276.893 159.93 276.75 159.93Z" fill="black"/>
<path d="M262.663 161.609C262.531 161.608 262.399 161.582 262.277 161.531C262.031 161.429 261.835 161.233 261.734 160.986C261.632 160.74 261.632 160.463 261.734 160.217C265.601 150.872 261.711 127.799 261.67 127.567C261.648 127.437 261.652 127.303 261.682 127.175C261.711 127.046 261.766 126.924 261.843 126.816C261.919 126.708 262.016 126.617 262.128 126.546C262.24 126.476 262.365 126.429 262.495 126.407C262.626 126.385 262.759 126.389 262.888 126.418C263.017 126.448 263.139 126.502 263.246 126.579C263.354 126.656 263.446 126.753 263.516 126.865C263.586 126.977 263.634 127.101 263.656 127.232C263.82 128.204 267.681 151.113 263.592 160.995C263.515 161.177 263.386 161.333 263.22 161.442C263.055 161.551 262.861 161.609 262.663 161.609Z" fill="white"/>
<path d="M181.827 132.593C181.771 132.593 181.715 132.587 181.659 132.577C181.55 132.557 181.446 132.515 181.353 132.454C181.26 132.394 181.18 132.315 181.118 132.224C181.055 132.132 181.012 132.029 180.99 131.92C180.967 131.811 180.967 131.699 180.988 131.59C181.032 131.366 182.162 126.043 188.28 124.242C188.494 124.178 188.723 124.203 188.919 124.309C189.115 124.415 189.26 124.595 189.323 124.808C189.386 125.022 189.362 125.252 189.256 125.447C189.15 125.643 188.97 125.788 188.757 125.851C183.635 127.357 182.669 131.738 182.632 131.923C182.593 132.109 182.492 132.276 182.346 132.398C182.2 132.52 182.017 132.588 181.827 132.593Z" fill="white"/>
<path d="M289.447 219.689C288.796 219.689 288.128 219.669 287.434 219.636C287.346 219.631 287.259 219.609 287.18 219.571C287.1 219.533 287.029 219.479 286.97 219.413C286.911 219.348 286.866 219.271 286.837 219.188C286.807 219.104 286.795 219.016 286.8 218.928C286.805 218.84 286.827 218.753 286.865 218.674C286.903 218.594 286.957 218.523 287.022 218.464C287.088 218.405 287.165 218.36 287.248 218.331C287.331 218.301 287.42 218.289 287.508 218.294C294.78 218.676 299.978 216.952 302.957 213.162C308.058 206.665 304.969 196.12 304.939 196.016C304.888 195.845 304.906 195.661 304.99 195.503C305.075 195.346 305.218 195.229 305.389 195.177C305.559 195.126 305.744 195.144 305.901 195.228C306.058 195.313 306.176 195.456 306.227 195.627C306.365 196.086 309.545 206.937 304.014 213.987C301.052 217.774 296.155 219.689 289.447 219.689Z" fill="#1D1D1B"/>
<path d="M193.424 181.52C193.385 181.54 193.343 181.554 193.3 181.56C188.379 182.322 183.067 179.471 182.842 179.35C182.748 179.296 182.68 179.207 182.65 179.103C182.621 178.999 182.634 178.887 182.685 178.792C182.736 178.697 182.823 178.626 182.926 178.593C183.029 178.561 183.141 178.57 183.238 178.619C183.291 178.649 188.534 181.46 193.173 180.742C193.28 180.724 193.389 180.75 193.478 180.812C193.566 180.875 193.627 180.97 193.646 181.077C193.66 181.165 193.647 181.255 193.607 181.335C193.567 181.414 193.503 181.479 193.424 181.52Z" fill="black"/>
<path d="M177.047 195.724C176.958 195.771 176.855 195.783 176.758 195.758C176.705 195.745 176.655 195.722 176.611 195.689C176.567 195.657 176.53 195.616 176.502 195.57C176.473 195.523 176.455 195.471 176.446 195.417C176.438 195.363 176.44 195.308 176.453 195.255C178.006 189.009 177.077 177.776 177.071 177.662C177.062 177.553 177.096 177.444 177.167 177.361C177.239 177.277 177.34 177.225 177.45 177.216C177.559 177.207 177.667 177.242 177.751 177.313C177.835 177.384 177.887 177.486 177.896 177.595C177.936 178.058 178.845 189.077 177.261 195.456C177.247 195.514 177.221 195.567 177.184 195.614C177.146 195.66 177.1 195.698 177.047 195.724Z" fill="white"/>
<path d="M288.842 176.703H113.403C110.47 176.703 107.657 177.867 105.582 179.939C103.507 182.011 102.338 184.822 102.334 187.755V202.882C102.338 205.815 103.507 208.626 105.582 210.698C107.657 212.77 110.47 213.934 113.403 213.934H124.009L136.898 281.017H267.04L276.304 213.934H288.858C291.791 213.934 294.604 212.77 296.679 210.698C298.755 208.626 299.922 205.815 299.927 202.882V187.772C299.927 186.317 299.64 184.876 299.083 183.532C298.526 182.188 297.709 180.967 296.679 179.939C295.65 178.911 294.428 178.096 293.083 177.541C291.738 176.986 290.296 176.701 288.842 176.703Z" fill="white"/>
<path d="M267.462 281.52H136.466L123.576 214.437H113.403C110.339 214.435 107.402 213.216 105.235 211.05C103.069 208.884 101.85 205.946 101.848 202.882V187.772C101.85 184.708 103.069 181.771 105.235 179.604C107.402 177.438 110.339 176.219 113.403 176.217H288.858C291.922 176.219 294.86 177.438 297.026 179.604C299.193 181.771 300.411 184.708 300.413 187.772V202.899C300.411 205.963 299.193 208.9 297.026 211.067C294.86 213.233 291.922 214.451 288.858 214.454H276.74L267.462 281.52ZM137.298 280.514H266.584L275.848 213.431H288.842C291.638 213.428 294.319 212.315 296.297 210.338C298.274 208.36 299.387 205.679 299.39 202.882V187.772C299.387 184.975 298.274 182.294 296.297 180.317C294.319 178.339 291.638 177.227 288.842 177.223H113.403C110.606 177.227 107.925 178.339 105.948 180.317C103.97 182.294 102.857 184.975 102.854 187.772V202.899C102.857 205.696 103.97 208.377 105.948 210.354C107.925 212.332 110.606 213.444 113.403 213.448H124.425L137.298 280.514Z" fill="#1D1E1B"/>
<path d="M180.484 266.93H180.458C150.908 265.813 122.288 256.305 97.9454 239.516C79.6183 226.898 70.0456 214.464 69.9516 214.34C69.8532 214.198 69.8133 214.024 69.8403 213.853C69.8673 213.682 69.9593 213.529 70.0968 213.424C70.2343 213.319 70.4069 213.272 70.5786 213.291C70.7503 213.311 70.9076 213.396 71.0182 213.529C71.1121 213.649 80.5844 225.939 98.7505 238.443C122.905 255.02 151.255 264.431 180.528 265.588C180.706 265.592 180.875 265.666 180.998 265.794C181.122 265.923 181.189 266.095 181.185 266.273C181.182 266.45 181.108 266.62 180.979 266.743C180.851 266.866 180.679 266.934 180.501 266.93H180.484Z" fill="black"/>
<path d="M139.42 271.049C125.121 271.049 115.233 268.127 109.276 265.531C102.105 262.412 98.9583 259.158 98.8275 259.007C98.7667 258.943 98.719 258.868 98.6873 258.786C98.6556 258.704 98.6406 258.616 98.6428 258.528C98.645 258.44 98.6644 258.353 98.7001 258.272C98.7359 258.192 98.7872 258.119 98.8511 258.058C98.915 257.997 98.9903 257.95 99.0725 257.918C99.1548 257.886 99.2425 257.871 99.3306 257.873C99.4188 257.875 99.5055 257.895 99.5861 257.931C99.6667 257.966 99.7396 258.018 99.8004 258.082C99.8574 258.139 102.973 261.342 109.9 264.34C116.329 267.124 127.445 270.301 143.897 269.613C143.985 269.61 144.073 269.623 144.156 269.654C144.239 269.684 144.315 269.731 144.38 269.79C144.445 269.85 144.497 269.922 144.534 270.002C144.571 270.082 144.592 270.169 144.595 270.257C144.599 270.345 144.585 270.433 144.554 270.516C144.524 270.599 144.478 270.675 144.418 270.739C144.358 270.804 144.286 270.857 144.206 270.894C144.126 270.93 144.039 270.951 143.951 270.955C142.395 271.02 140.884 271.051 139.42 271.049Z" fill="black"/>
<path d="M275.406 214.605H125.476C125.298 214.605 125.127 214.535 125.001 214.409C124.875 214.283 124.805 214.112 124.805 213.935C124.805 213.757 124.875 213.586 125.001 213.46C125.127 213.334 125.298 213.264 125.476 213.264H275.406C275.584 213.264 275.755 213.334 275.88 213.46C276.006 213.586 276.077 213.757 276.077 213.935C276.077 214.112 276.006 214.283 275.88 214.409C275.755 214.535 275.584 214.605 275.406 214.605Z" fill="black"/>
<path d="M165.794 281.687C165.627 281.688 165.465 281.626 165.341 281.514C165.217 281.402 165.139 281.247 165.123 281.08L158.663 213.997C158.646 213.819 158.701 213.642 158.815 213.504C158.928 213.367 159.092 213.28 159.27 213.263C159.448 213.246 159.625 213.3 159.763 213.414C159.901 213.528 159.988 213.692 160.005 213.87L166.465 280.953C166.482 281.129 166.428 281.305 166.315 281.442C166.203 281.579 166.041 281.666 165.864 281.684L165.794 281.687Z" fill="black"/>
<path d="M235.66 281.688H235.606C235.429 281.673 235.265 281.589 235.15 281.454C235.035 281.319 234.978 281.143 234.992 280.967L240.359 213.883C240.373 213.707 240.458 213.543 240.593 213.428C240.728 213.312 240.903 213.256 241.08 213.27C241.168 213.276 241.254 213.3 241.332 213.34C241.411 213.38 241.481 213.435 241.538 213.502C241.595 213.569 241.639 213.647 241.667 213.731C241.694 213.814 241.704 213.903 241.697 213.991L236.331 281.074C236.316 281.242 236.239 281.398 236.115 281.512C235.991 281.625 235.828 281.688 235.66 281.688Z" fill="black"/>
<path d="M201.95 281.688C201.772 281.688 201.602 281.618 201.476 281.492C201.35 281.366 201.279 281.195 201.279 281.018L200.521 213.935C200.521 213.757 200.592 213.586 200.718 213.46C200.844 213.334 201.014 213.264 201.192 213.264C201.37 213.264 201.541 213.334 201.667 213.46C201.792 213.586 201.863 213.757 201.863 213.935L202.621 281.018C202.621 281.195 202.55 281.366 202.425 281.492C202.299 281.618 202.128 281.688 201.95 281.688Z" fill="black"/>
<path d="M199.812 253.348C188.998 253.348 179.388 252.892 171.328 252.272C145.987 250.329 130.095 246.412 129.938 246.372C129.852 246.35 129.772 246.311 129.702 246.258C129.631 246.205 129.572 246.138 129.527 246.062C129.482 245.986 129.453 245.902 129.44 245.815C129.428 245.728 129.433 245.639 129.455 245.553C129.477 245.468 129.516 245.387 129.569 245.317C129.622 245.246 129.688 245.187 129.764 245.142C129.84 245.097 129.924 245.068 130.011 245.056C130.099 245.043 130.188 245.048 130.273 245.07C130.427 245.11 146.239 249.005 171.475 250.937C194.763 252.721 231.065 253.15 271.765 245.064C271.852 245.042 271.944 245.039 272.033 245.054C272.122 245.069 272.207 245.102 272.283 245.151C272.359 245.199 272.425 245.263 272.476 245.338C272.527 245.412 272.562 245.496 272.58 245.585C272.597 245.673 272.597 245.765 272.578 245.853C272.56 245.942 272.523 246.025 272.472 246.099C272.42 246.174 272.354 246.236 272.278 246.284C272.201 246.332 272.116 246.364 272.026 246.378C248.239 251.045 224.053 253.379 199.812 253.348Z" fill="black"/>
<path d="M193.565 182.238H116.755C116.532 182.238 116.319 182.149 116.162 181.992C116.004 181.835 115.916 181.621 115.916 181.399C115.916 181.177 116.004 180.963 116.162 180.806C116.319 180.649 116.532 180.561 116.755 180.561H193.565C193.787 180.561 194 180.649 194.158 180.806C194.315 180.963 194.403 181.177 194.403 181.399C194.403 181.621 194.315 181.835 194.158 181.992C194 182.149 193.787 182.238 193.565 182.238Z" fill="white"/>
<path d="M262.828 275.315H262.741C262.631 275.303 262.525 275.271 262.428 275.218C262.331 275.166 262.245 275.095 262.176 275.009C262.106 274.923 262.054 274.825 262.023 274.719C261.991 274.613 261.981 274.502 261.993 274.392L267.695 219.049C267.706 218.939 267.74 218.832 267.792 218.735C267.845 218.637 267.916 218.551 268.002 218.482C268.088 218.412 268.187 218.36 268.293 218.328C268.4 218.296 268.511 218.286 268.621 218.297C268.731 218.309 268.838 218.342 268.935 218.395C269.032 218.447 269.119 218.519 269.188 218.605C269.258 218.691 269.31 218.79 269.342 218.896C269.373 219.002 269.384 219.113 269.372 219.223L263.67 274.567C263.647 274.773 263.548 274.964 263.393 275.102C263.237 275.24 263.036 275.316 262.828 275.315Z" fill="white"/>
<path d="M120.613 199.344C122.651 199.344 124.303 197.692 124.303 195.654C124.303 193.617 122.651 191.965 120.613 191.965C118.576 191.965 116.924 193.617 116.924 195.654C116.924 197.692 118.576 199.344 120.613 199.344Z" fill="#382256"/>
<path d="M120.613 199.846C119.783 199.846 118.973 199.6 118.283 199.14C117.594 198.679 117.056 198.024 116.739 197.258C116.422 196.492 116.339 195.649 116.501 194.836C116.662 194.022 117.062 193.275 117.648 192.689C118.234 192.103 118.981 191.703 119.795 191.541C120.608 191.38 121.451 191.463 122.217 191.78C122.983 192.097 123.638 192.635 124.099 193.324C124.559 194.014 124.805 194.824 124.805 195.654C124.804 196.765 124.361 197.83 123.575 198.616C122.789 199.402 121.724 199.845 120.613 199.846ZM120.613 192.467C119.982 192.467 119.366 192.654 118.842 193.004C118.318 193.354 117.91 193.852 117.669 194.434C117.427 195.017 117.364 195.657 117.487 196.275C117.61 196.893 117.914 197.461 118.359 197.907C118.805 198.352 119.373 198.656 119.991 198.779C120.609 198.902 121.25 198.839 121.832 198.597C122.414 198.356 122.912 197.948 123.262 197.424C123.612 196.9 123.799 196.284 123.799 195.654C123.798 194.809 123.462 193.999 122.865 193.402C122.268 192.804 121.457 192.468 120.613 192.467Z" fill="black"/>
<path d="M283.959 199.344C285.997 199.344 287.649 197.692 287.649 195.654C287.649 193.617 285.997 191.965 283.959 191.965C281.921 191.965 280.27 193.617 280.27 195.654C280.27 197.692 281.921 199.344 283.959 199.344Z" fill="#382256"/>
<path d="M283.958 199.846C283.129 199.846 282.319 199.6 281.629 199.14C280.94 198.679 280.402 198.024 280.085 197.258C279.767 196.492 279.684 195.649 279.846 194.836C280.008 194.022 280.407 193.275 280.994 192.689C281.58 192.103 282.327 191.703 283.14 191.541C283.954 191.38 284.797 191.463 285.563 191.78C286.329 192.097 286.984 192.635 287.444 193.324C287.905 194.014 288.151 194.824 288.151 195.654C288.149 196.765 287.707 197.83 286.921 198.616C286.135 199.402 285.07 199.845 283.958 199.846ZM283.958 192.467C283.328 192.467 282.712 192.654 282.188 193.004C281.664 193.354 281.255 193.852 281.014 194.434C280.773 195.017 280.71 195.657 280.833 196.275C280.956 196.893 281.259 197.461 281.705 197.907C282.151 198.352 282.719 198.656 283.337 198.779C283.955 198.902 284.596 198.839 285.178 198.597C285.76 198.356 286.258 197.948 286.608 197.424C286.958 196.9 287.145 196.284 287.145 195.654C287.144 194.809 286.808 193.999 286.211 193.402C285.613 192.804 284.803 192.468 283.958 192.467Z" fill="black"/>
<path d="M231.139 237.748H168.055L120.281 196.033L120.946 195.275L168.43 236.742H230.791L283.649 195.258L284.272 196.05L231.139 237.748Z" fill="black"/>
<path d="M228.697 233.221H170.51C169.257 233.221 168.242 234.236 168.242 235.488V239.003C168.242 240.256 169.257 241.271 170.51 241.271H228.697C229.95 241.271 230.965 240.256 230.965 239.003V235.488C230.965 234.236 229.95 233.221 228.697 233.221Z" fill="#382256"/>
<path d="M228.697 241.773H170.509C169.774 241.771 169.071 241.479 168.552 240.96C168.032 240.44 167.74 239.737 167.738 239.003V235.487C167.74 234.753 168.032 234.049 168.552 233.53C169.071 233.011 169.774 232.719 170.509 232.717H228.697C229.431 232.719 230.135 233.011 230.654 233.53C231.173 234.049 231.465 234.753 231.467 235.487V239.003C231.465 239.737 231.173 240.44 230.654 240.96C230.135 241.479 229.431 241.771 228.697 241.773ZM170.509 233.723C170.041 233.724 169.593 233.91 169.262 234.241C168.932 234.571 168.745 235.02 168.745 235.487V239.003C168.745 239.47 168.932 239.918 169.262 240.249C169.593 240.58 170.041 240.766 170.509 240.767H228.697C229.164 240.766 229.612 240.58 229.943 240.249C230.274 239.918 230.46 239.47 230.461 239.003V235.487C230.46 235.02 230.274 234.571 229.943 234.241C229.612 233.91 229.164 233.724 228.697 233.723H170.509Z" fill="black"/>
<path d="M227.945 236.072H201.112C200.89 236.072 200.676 235.983 200.519 235.826C200.362 235.669 200.273 235.455 200.273 235.233C200.273 235.011 200.362 234.797 200.519 234.64C200.676 234.483 200.89 234.395 201.112 234.395H227.945C228.168 234.395 228.381 234.483 228.538 234.64C228.695 234.797 228.784 235.011 228.784 235.233C228.784 235.455 228.695 235.669 228.538 235.826C228.381 235.983 228.168 236.072 227.945 236.072Z" fill="white"/>
<path d="M256.294 24.9258H229.055C225.478 24.9258 222.578 27.8256 222.578 31.4027V58.6417C222.578 62.2188 225.478 65.1186 229.055 65.1186H256.294C259.871 65.1186 262.771 62.2188 262.771 58.6417V31.4027C262.771 27.8256 259.871 24.9258 256.294 24.9258Z" fill="#4BD657"/>
<path d="M256.29 65.6218H229.051C227.201 65.6183 225.427 64.8805 224.12 63.5707C222.812 62.2608 222.078 60.4857 222.078 58.6351V31.396C222.08 29.5454 222.816 27.771 224.124 26.4624C225.433 25.1538 227.207 24.4178 229.058 24.416H256.29C258.141 24.4178 259.915 25.1538 261.224 26.4624C262.533 27.771 263.269 29.5454 263.27 31.396V58.6351C263.27 60.4869 262.535 62.2631 261.226 63.5731C259.918 64.8832 258.142 65.62 256.29 65.6218ZM229.055 25.429C227.471 25.4308 225.952 26.0607 224.833 27.1806C223.713 28.3005 223.083 29.8189 223.081 31.4027V58.6351C223.083 60.2189 223.713 61.7373 224.833 62.8573C225.952 63.9772 227.471 64.6071 229.055 64.6088H256.29C257.874 64.6071 259.393 63.9772 260.513 62.8573C261.633 61.7373 262.262 60.2189 262.264 58.6351V31.396C262.261 29.8134 261.63 28.2967 260.51 27.1783C259.391 26.0598 257.873 25.4307 256.29 25.429H229.055Z" fill="black"/>
<path d="M250.422 55.1144C250.281 55.1136 250.142 55.0834 250.014 55.0256C249.886 54.9679 249.771 54.8838 249.677 54.779L232.907 36.3311C232.756 36.1302 232.686 35.88 232.71 35.6299C232.734 35.3797 232.851 35.1476 233.038 34.9793C233.224 34.8111 233.467 34.7189 233.719 34.7207C233.97 34.7226 234.211 34.8185 234.396 34.9895L251.166 53.4373C251.296 53.5818 251.38 53.7605 251.41 53.9519C251.441 54.1434 251.415 54.3393 251.336 54.5164C251.257 54.6936 251.13 54.8442 250.967 54.9503C250.805 55.0564 250.616 55.1134 250.422 55.1144Z" fill="white"/>
<path d="M235.661 55.1133C235.475 55.1135 235.292 55.0618 235.133 54.964C234.974 54.8661 234.845 54.726 234.762 54.5593C234.678 54.3926 234.642 54.206 234.658 54.0201C234.674 53.8342 234.742 53.6564 234.853 53.5067L248.605 35.0588C248.684 34.9527 248.783 34.8631 248.896 34.7952C249.01 34.7273 249.136 34.6825 249.266 34.6632C249.397 34.6438 249.53 34.6504 249.659 34.6826C249.787 34.7149 249.908 34.772 250.014 34.8508C250.12 34.9297 250.21 35.0287 250.277 35.1422C250.345 35.2557 250.39 35.3814 250.409 35.5122C250.429 35.643 250.422 35.7763 250.39 35.9046C250.358 36.0328 250.301 36.1535 250.222 36.2597L236.47 54.7075C236.376 54.8335 236.254 54.9359 236.114 55.0064C235.973 55.0769 235.818 55.1135 235.661 55.1133Z" fill="white"/>
<path d="M268.534 33.3114C268.356 33.3114 268.185 33.2407 268.06 33.1149C267.934 32.9891 267.863 32.8185 267.863 32.6406C267.974 27.4786 266.81 23.8459 264.398 21.8402C261.594 19.4923 257.975 20.2235 257.938 20.2302C257.764 20.2671 257.582 20.2332 257.432 20.1361C257.283 20.0389 257.178 19.8864 257.142 19.712C257.105 19.5377 257.138 19.3559 257.236 19.2065C257.333 19.0571 257.485 18.9523 257.66 18.9154C257.834 18.8819 261.93 18.05 265.244 20.7971C267.994 23.0745 269.325 27.0694 269.205 32.6675C269.198 32.8407 269.124 33.0045 268.999 33.1246C268.874 33.2446 268.707 33.3116 268.534 33.3114Z" fill="black"/>
<path d="M228.116 43.5417C208.706 43.3673 192.636 34.5526 182.57 27.1869C171.679 19.2174 165.273 11.1675 165.209 11.087C165.154 11.0178 165.114 10.9386 165.09 10.8538C165.066 10.769 165.059 10.6802 165.069 10.5927C165.079 10.5052 165.107 10.4205 165.15 10.3436C165.193 10.2667 165.25 10.1991 165.32 10.1444C165.389 10.0898 165.468 10.0494 165.553 10.0254C165.638 10.0014 165.726 9.9943 165.814 10.0046C165.901 10.0149 165.986 10.0422 166.063 10.0852C166.14 10.1281 166.207 10.1858 166.262 10.255C166.326 10.3355 172.635 18.2648 183.395 26.1269C193.293 33.3652 209.091 42.0289 228.129 42.2C228.307 42.2 228.478 42.2707 228.604 42.3965C228.73 42.5224 228.8 42.6929 228.8 42.8708C228.8 43.0488 228.73 43.2193 228.604 43.3451C228.478 43.4709 228.307 43.5417 228.129 43.5417H228.116Z" fill="black"/>
<path d="M219.567 52.2981C207.61 52.2981 194.076 47.7701 193.355 47.5286C193.198 47.4633 193.071 47.3407 193.001 47.1858C192.931 47.0309 192.922 46.855 192.977 46.694C193.031 46.5329 193.145 46.3985 193.295 46.3181C193.445 46.2377 193.62 46.2171 193.784 46.2606C194.002 46.3311 215.536 53.5257 227.929 49.9502C228.014 49.9255 228.103 49.9178 228.19 49.9274C228.278 49.937 228.363 49.9637 228.44 50.006C228.517 50.0484 228.585 50.1055 228.64 50.1742C228.695 50.2429 228.736 50.3219 228.761 50.4065C228.786 50.491 228.794 50.5796 228.784 50.6672C228.774 50.7548 228.748 50.8396 228.705 50.9168C228.663 50.994 228.606 51.0621 228.537 51.1173C228.468 51.1724 228.389 51.2136 228.305 51.2383C225.456 51.9949 222.515 52.3515 219.567 52.2981Z" fill="black"/>
<defs>
<filter id="filter0_d_2656_36066" x="-4.0192" y="107.785" width="38.6829" height="38.6849" filterUnits="userSpaceOnUse" color-interpolation-filters="sRGB">
<feFlood flood-opacity="0" result="BackgroundImageFix"/>
<feColorMatrix in="SourceAlpha" type="matrix" values="0 0 0 0 0 0 0 0 0 0 0 0 0 0 0 0 0 0 127 0" result="hardAlpha"/>
<feOffset dy="2.03704"/>
<feGaussianBlur stdDeviation="5.09261"/>
<feComposite in2="hardAlpha" operator="out"/>
<feColorMatrix type="matrix" values="0 0 0 0 0 0 0 0 0 0 0 0 0 0 0 0 0 0 0.05 0"/>
<feBlend mode="normal" in2="BackgroundImageFix" result="effect1_dropShadow_2656_36066"/>
<feBlend mode="normal" in="SourceGraphic" in2="effect1_dropShadow_2656_36066" result="shape"/>
</filter>
<filter id="filter1_d_2656_36066" x="370.649" y="165.211" width="38.6888" height="38.6888" filterUnits="userSpaceOnUse" color-interpolation-filters="sRGB">
<feFlood flood-opacity="0" result="BackgroundImageFix"/>
<feColorMatrix in="SourceAlpha" type="matrix" values="0 0 0 0 0 0 0 0 0 0 0 0 0 0 0 0 0 0 127 0" result="hardAlpha"/>
<feOffset dy="2.03704"/>
<feGaussianBlur stdDeviation="5.09261"/>
<feComposite in2="hardAlpha" operator="out"/>
<feColorMatrix type="matrix" values="0 0 0 0 0 0 0 0 0 0 0 0 0 0 0 0 0 0 0.05 0"/>
<feBlend mode="normal" in2="BackgroundImageFix" result="effect1_dropShadow_2656_36066"/>
<feBlend mode="normal" in="SourceGraphic" in2="effect1_dropShadow_2656_36066" result="shape"/>
</filter>
<linearGradient id="paint0_linear_2656_36066" x1="20.4547" y1="112.038" x2="392.053" y2="200.547" gradientUnits="userSpaceOnUse">
<stop stop-color="#CDD5E2"/>
<stop offset="1" stop-color="#CDD5E2" stop-opacity="0"/>
</linearGradient>
<linearGradient id="paint1_linear_2656_36066" x1="391.411" y1="195.438" x2="353.85" y2="294.045" gradientUnits="userSpaceOnUse">
<stop stop-color="#CDD5E2"/>
<stop offset="1" stop-color="#CDD5E2" stop-opacity="0"/>
</linearGradient>
<linearGradient id="paint2_linear_2656_36066" x1="196.502" y1="23.2598" x2="196.502" y2="365.005" gradientUnits="userSpaceOnUse">
<stop stop-color="#CDD5E2"/>
<stop offset="1" stop-color="#CDD5E2" stop-opacity="0"/>
</linearGradient>
<linearGradient id="paint3_linear_2656_36066" x1="196.505" y1="57.4336" x2="196.505" y2="330.83" gradientUnits="userSpaceOnUse">
<stop stop-color="#CDD5E2"/>
<stop offset="1" stop-color="#CDD5E2" stop-opacity="0"/>
</linearGradient>
</defs>
</svg>
