<svg width="190" height="44" viewBox="0 0 190 44" fill="none" xmlns="http://www.w3.org/2000/svg">
<path d="M19 6.7323C20.8564 5.6605 23.1436 5.6605 25 6.7323L33.7227 11.7684C35.5787 12.8402 36.7225 14.8204 36.7227 16.9637V27.036C36.7226 29.1795 35.579 31.1605 33.7227 32.2323L25 37.2684C23.1437 38.3401 20.8563 38.3401 19 37.2684L10.2773 32.2323C8.421 31.1605 7.27738 29.1795 7.27734 27.036V16.9637C7.27748 14.8204 8.42126 12.8402 10.2773 11.7684L19 6.7323ZM22.9033 14.3934C22.4325 13.8691 21.5659 13.8689 21.0967 14.3934C20.3481 15.2256 19.4813 16.4284 18.8896 18.0194C17.806 20.936 18.2721 23.4639 18.5312 24.5106C18.1397 24.7529 17.4376 25.2712 17.1338 26.1405C16.9279 26.7303 16.9914 27.246 17.1152 27.9091C17.2002 28.367 17.3175 28.9159 17.4873 29.5428C17.6314 30.0779 18.419 30.1678 18.6982 29.6805C18.8422 29.429 19.0242 29.1766 19.2559 28.9384C19.5409 28.6442 19.8401 28.431 20.1064 28.2753C20.1424 28.254 20.1883 28.2671 20.207 28.3016C20.2877 28.4534 20.4047 28.6317 20.5674 28.8114C20.5687 28.8126 20.5702 28.8141 20.5703 28.8153C20.7416 29.003 20.9948 29.1053 21.2568 29.1053H22.7441C23.0061 29.1053 23.2584 29.003 23.4297 28.8153C23.4302 28.8141 23.4326 28.8126 23.4326 28.8114C23.5966 28.6318 23.7119 28.4533 23.7939 28.3016C23.8127 28.2672 23.8581 28.2541 23.8926 28.2753C24.1604 28.431 24.4605 28.6441 24.7441 28.9384C24.9757 29.1765 25.1589 29.4291 25.3027 29.6805C25.582 30.1677 26.3685 30.0777 26.5127 29.5428C26.6811 28.9158 26.8008 28.367 26.8857 27.9091C27.0096 27.246 27.0721 26.7303 26.8662 26.1405C26.5639 25.2711 25.8608 24.7529 25.4678 24.5106C25.7269 23.4639 26.1946 20.9361 25.1094 18.0194C24.5177 16.4283 23.6505 15.2256 22.9033 14.3934ZM22 18.0214C23.1458 18.0215 24.0742 18.8806 24.0742 19.9403C24.0742 21 23.1458 21.8591 22 21.8593C20.854 21.8593 19.9249 21.0001 19.9248 19.9403C19.9248 18.8805 20.854 18.0214 22 18.0214Z" fill="#0E2145"/>
<path d="M44.8191 29V13.7273H50.8447C51.9981 13.7273 52.9825 13.9336 53.7978 14.3462C54.6181 14.7539 55.2421 15.3331 55.6696 16.0838C56.1021 16.8295 56.3184 17.707 56.3184 18.7163C56.3184 19.7305 56.0997 20.603 55.6622 21.3338C55.2247 22.0597 54.5908 22.6165 53.7605 23.0043C52.9352 23.392 51.9359 23.5859 50.7627 23.5859H46.7282V20.9908H50.2406C50.8571 20.9908 51.3692 20.9062 51.7769 20.7372C52.1845 20.5682 52.4878 20.3146 52.6867 19.9766C52.8905 19.6385 52.9924 19.2184 52.9924 18.7163C52.9924 18.2092 52.8905 17.7816 52.6867 17.4336C52.4878 17.0856 52.182 16.8221 51.7694 16.6431C51.3617 16.4592 50.8472 16.3672 50.2257 16.3672H48.0482V29H44.8191ZM53.067 22.0497L56.8628 29H53.2982L49.5844 22.0497H53.067ZM63.5316 29.2237C62.3732 29.2237 61.3714 28.9776 60.5262 28.4854C59.686 27.9883 59.0372 27.2972 58.5799 26.4123C58.1225 25.5224 57.8938 24.4908 57.8938 23.3175C57.8938 22.1342 58.1225 21.1001 58.5799 20.2152C59.0372 19.3253 59.686 18.6342 60.5262 18.142C61.3714 17.6449 62.3732 17.3963 63.5316 17.3963C64.6899 17.3963 65.6892 17.6449 66.5294 18.142C67.3746 18.6342 68.0259 19.3253 68.4833 20.2152C68.9407 21.1001 69.1693 22.1342 69.1693 23.3175C69.1693 24.4908 68.9407 25.5224 68.4833 26.4123C68.0259 27.2972 67.3746 27.9883 66.5294 28.4854C65.6892 28.9776 64.6899 29.2237 63.5316 29.2237ZM63.5465 26.7628C64.0735 26.7628 64.5135 26.6136 64.8664 26.3153C65.2194 26.0121 65.4854 25.5994 65.6644 25.0774C65.8483 24.5554 65.9403 23.9613 65.9403 23.2951C65.9403 22.6289 65.8483 22.0348 65.6644 21.5128C65.4854 20.9908 65.2194 20.5781 64.8664 20.2749C64.5135 19.9716 64.0735 19.82 63.5465 19.82C63.0145 19.82 62.5671 19.9716 62.2041 20.2749C61.8462 20.5781 61.5752 20.9908 61.3913 21.5128C61.2123 22.0348 61.1228 22.6289 61.1228 23.2951C61.1228 23.9613 61.2123 24.5554 61.3913 25.0774C61.5752 25.5994 61.8462 26.0121 62.2041 26.3153C62.5671 26.6136 63.0145 26.7628 63.5465 26.7628ZM76.4105 29.2237C75.2372 29.2237 74.2279 28.9751 73.3828 28.478C72.5426 27.9759 71.8963 27.2798 71.4438 26.3899C70.9964 25.5 70.7727 24.4759 70.7727 23.3175C70.7727 22.1442 70.9989 21.1151 71.4513 20.2301C71.9087 19.3402 72.5575 18.6467 73.3977 18.1495C74.2379 17.6474 75.2372 17.3963 76.3956 17.3963C77.3948 17.3963 78.2698 17.5778 79.0206 17.9407C79.7713 18.3036 80.3654 18.8132 80.8029 19.4695C81.2404 20.1257 81.4815 20.8963 81.5262 21.7812H78.5284C78.4438 21.2095 78.2201 20.7496 77.8572 20.4016C77.4992 20.0487 77.0294 19.8722 76.4478 19.8722C75.9556 19.8722 75.5255 20.0064 75.1576 20.2749C74.7947 20.5384 74.5113 20.9237 74.3075 21.4308C74.1036 21.9379 74.0017 22.5518 74.0017 23.2727C74.0017 24.0036 74.1012 24.625 74.3 25.1371C74.5039 25.6491 74.7897 26.0394 75.1576 26.3079C75.5255 26.5763 75.9556 26.7106 76.4478 26.7106C76.8107 26.7106 77.1363 26.636 77.4247 26.4869C77.718 26.3377 77.9591 26.1214 78.148 25.8381C78.3419 25.5497 78.4687 25.2042 78.5284 24.8015H81.5262C81.4765 25.6765 81.2379 26.4471 80.8103 27.1133C80.3877 27.7745 79.8036 28.2915 79.0578 28.6644C78.3121 29.0373 77.4296 29.2237 76.4105 29.2237ZM86.4388 25.7038L86.4462 21.8931H86.9086L90.5776 17.5455H94.2243L89.295 23.3026H88.5418L86.4388 25.7038ZM83.5602 29V13.7273H86.7371V29H83.5602ZM90.7193 29L87.3486 24.011L89.4665 21.7663L94.4406 29H90.7193ZM100.531 29.2237C99.3531 29.2237 98.3389 28.9851 97.4888 28.5078C96.6436 28.0256 95.9923 27.3445 95.5349 26.4645C95.0775 25.5795 94.8489 24.533 94.8489 23.3249C94.8489 22.1467 95.0775 21.1126 95.5349 20.2227C95.9923 19.3327 96.6361 18.6392 97.4664 18.142C98.3016 17.6449 99.281 17.3963 100.405 17.3963C101.16 17.3963 101.864 17.5181 102.515 17.7617C103.171 18.0004 103.743 18.3608 104.23 18.843C104.722 19.3253 105.105 19.9318 105.379 20.6626C105.652 21.3885 105.789 22.2386 105.789 23.2131V24.0856H96.1166V22.1168H102.798C102.798 21.6594 102.699 21.2543 102.5 20.9013C102.301 20.5483 102.025 20.2724 101.672 20.0735C101.324 19.8697 100.919 19.7678 100.457 19.7678C99.9746 19.7678 99.547 19.8796 99.1741 20.1033C98.8062 20.3221 98.5179 20.6179 98.3091 20.9908C98.1003 21.3587 97.9934 21.7688 97.9884 22.2212V24.093C97.9884 24.6598 98.0928 25.1495 98.3016 25.5621C98.5154 25.9748 98.8162 26.293 99.204 26.5167C99.5918 26.7404 100.052 26.8523 100.584 26.8523C100.937 26.8523 101.26 26.8026 101.553 26.7031C101.846 26.6037 102.097 26.4545 102.306 26.2557C102.515 26.0568 102.674 25.8132 102.784 25.5249L105.722 25.7188C105.573 26.4247 105.267 27.0412 104.804 27.5682C104.347 28.0902 103.755 28.4979 103.03 28.7912C102.309 29.0795 101.476 29.2237 100.531 29.2237ZM113.955 17.5455V19.9318H107.057V17.5455H113.955ZM108.623 14.8011H111.799V25.4801C111.799 25.7734 111.844 26.0021 111.934 26.1662C112.023 26.3253 112.148 26.4371 112.307 26.5018C112.471 26.5664 112.66 26.5987 112.873 26.5987C113.023 26.5987 113.172 26.5863 113.321 26.5614C113.47 26.5316 113.584 26.5092 113.664 26.4943L114.163 28.8583C114.004 28.908 113.781 28.9652 113.492 29.0298C113.204 29.0994 112.853 29.1417 112.441 29.1566C111.675 29.1864 111.004 29.0845 110.427 28.8509C109.856 28.6172 109.411 28.2543 109.092 27.7621C108.774 27.2699 108.618 26.6484 108.623 25.8977V14.8011ZM120.944 29V13.7273H124.173V26.3377H130.721V29H120.944ZM132.859 13.7273H136.841L141.047 23.9886H141.226L145.432 13.7273H149.415V29H146.282V19.0593H146.156L142.203 28.9254H140.07L136.118 19.022H135.991V29H132.859V13.7273ZM160.36 18.1197C160.3 17.5181 160.044 17.0508 159.592 16.7177C159.14 16.3846 158.526 16.218 157.75 16.218C157.223 16.218 156.778 16.2926 156.415 16.4418C156.052 16.5859 155.774 16.7873 155.58 17.0458C155.391 17.3043 155.297 17.5977 155.297 17.9258C155.287 18.1992 155.344 18.4379 155.468 18.6417C155.597 18.8455 155.774 19.022 155.998 19.1712C156.221 19.3153 156.48 19.4421 156.773 19.5515C157.066 19.6559 157.38 19.7454 157.713 19.82L159.085 20.1481C159.751 20.2972 160.363 20.4961 160.919 20.7447C161.476 20.9933 161.958 21.299 162.366 21.6619C162.774 22.0249 163.09 22.4524 163.313 22.9446C163.542 23.4368 163.659 24.0011 163.664 24.6374C163.659 25.5721 163.42 26.3825 162.948 27.0685C162.481 27.7496 161.804 28.2791 160.919 28.657C160.039 29.0298 158.978 29.2163 157.735 29.2163C156.502 29.2163 155.428 29.0273 154.514 28.6495C153.604 28.2717 152.893 27.7124 152.381 26.9716C151.874 26.2259 151.608 25.3036 151.583 24.2049H154.707C154.742 24.717 154.889 25.1445 155.147 25.4876C155.411 25.8256 155.761 26.0817 156.199 26.2557C156.641 26.4247 157.141 26.5092 157.698 26.5092C158.245 26.5092 158.72 26.4297 159.122 26.2706C159.53 26.1115 159.846 25.8903 160.069 25.6069C160.293 25.3235 160.405 24.9979 160.405 24.63C160.405 24.2869 160.303 23.9986 160.099 23.7649C159.9 23.5312 159.607 23.3324 159.219 23.1683C158.836 23.0043 158.367 22.8551 157.81 22.7209L156.147 22.3033C154.859 21.9901 153.842 21.5004 153.097 20.8342C152.351 20.168 151.981 19.2706 151.985 18.142C151.981 17.2173 152.227 16.4094 152.724 15.7184C153.226 15.0273 153.914 14.4879 154.789 14.1001C155.664 13.7124 156.659 13.5185 157.772 13.5185C158.906 13.5185 159.895 13.7124 160.74 14.1001C161.591 14.4879 162.252 15.0273 162.724 15.7184C163.196 16.4094 163.44 17.2099 163.455 18.1197H160.36Z" fill="#0E2145"/>
</svg>
