<svg width="339" height="280" viewBox="0 0 339 280" fill="none" xmlns="http://www.w3.org/2000/svg">
<path d="M316.911 270.48L34.9359 269.157C34.7478 269.157 34.5674 269.082 34.4344 268.949C34.3014 268.816 34.2266 268.636 34.2266 268.448C34.2266 268.26 34.3014 268.079 34.4344 267.946C34.5674 267.813 34.7478 267.738 34.9359 267.738L316.911 269.061C317.099 269.061 317.28 269.136 317.413 269.269C317.546 269.402 317.621 269.582 317.621 269.771C317.621 269.959 317.546 270.139 317.413 270.272C317.28 270.405 317.099 270.48 316.911 270.48Z" fill="black"/>
<path d="M42.0764 276.431H0.532029C0.390926 276.431 0.255643 276.375 0.155868 276.275C0.0560931 276.176 0 276.04 0 275.899C0 275.758 0.0560931 275.623 0.155868 275.523C0.255643 275.423 0.390926 275.367 0.532029 275.367H42.0836C42.2247 275.367 42.36 275.423 42.4598 275.523C42.5596 275.623 42.6157 275.758 42.6157 275.899C42.6157 276.04 42.5596 276.176 42.4598 276.275C42.36 276.375 42.2247 276.431 42.0836 276.431H42.0764Z" fill="black"/>
<path d="M337.537 280H295.985C295.844 280 295.709 279.944 295.609 279.844C295.509 279.744 295.453 279.609 295.453 279.468C295.453 279.326 295.509 279.191 295.609 279.091C295.709 278.992 295.844 278.936 295.985 278.936H337.537C337.678 278.936 337.813 278.992 337.913 279.091C338.013 279.191 338.069 279.326 338.069 279.468C338.069 279.609 338.013 279.744 337.913 279.844C337.813 279.944 337.678 280 337.537 280Z" fill="black"/>
<path d="M113.112 66.8008C113.112 66.8008 111.005 83.322 99.4461 79.2325C87.8869 75.1429 69.4079 69.8794 61.651 86.954C53.894 104.029 50.2265 116.127 37.0605 115.113C23.8946 114.098 5.49349 153.064 40.2527 165.875C97.1621 186.887 143.92 84.4109 143.92 84.4109L133.95 74.7528L113.112 66.8008Z" fill="#382256"/>
<path d="M113.113 66.8008L133.933 74.7528L143.903 84.4109C143.903 84.4109 105.441 168.716 55.817 168.716C50.4957 168.706 45.2191 167.745 40.2358 165.879C5.95537 153.224 23.434 115.095 36.5538 115.095C36.7241 115.095 36.9087 115.095 37.0613 115.116C37.5791 115.155 38.0792 115.176 38.5687 115.176C50.518 115.176 54.1997 103.362 61.6517 86.9575C65.7625 77.9059 72.8845 75.1323 80.3932 75.1323C87.0507 75.1323 94.0131 77.3136 99.4469 79.236C100.562 79.6495 101.74 79.869 102.93 79.8851C111.442 79.8851 113.113 66.8043 113.113 66.8043V66.8008ZM113.113 65.7403C112.853 65.7382 112.6 65.8316 112.404 66.0028C112.208 66.1741 112.082 66.4113 112.049 66.6695C112.028 66.8327 110.382 78.821 102.923 78.821C101.854 78.8042 100.796 78.6051 99.7946 78.2323C93.9742 76.1751 87.1143 74.0683 80.3859 74.0683C71.0577 74.0683 64.4253 78.2571 60.6763 86.5177C59.8215 88.3976 59.0198 90.21 58.243 91.9622C52.3481 105.298 48.4536 114.112 38.5614 114.112C38.1003 114.112 37.6215 114.091 37.1427 114.056C36.9476 114.038 36.7489 114.031 36.5538 114.031C33.0921 114.031 29.3928 116.272 26.1297 120.344C22.8263 124.576 20.6142 129.555 19.6886 134.844C18.5358 141.303 19.412 147.499 22.2282 152.762C25.5871 159.047 31.5247 163.797 39.8669 166.875C44.9723 168.785 50.377 169.77 55.8278 169.784C67.3834 169.784 79.2689 165.279 91.1651 156.398C100.61 149.347 110.088 139.522 119.331 127.207C135.036 106.281 144.787 85.0671 144.868 84.8578C144.959 84.658 144.986 84.4348 144.946 84.2188C144.905 84.0029 144.799 83.8049 144.641 83.6519L134.671 73.9938C134.57 73.8926 134.45 73.8139 134.316 73.7632L113.496 65.8112C113.375 65.7651 113.246 65.7411 113.116 65.7403H113.113Z" fill="black"/>
<path d="M133.932 74.7528L113.112 66.8008C113.112 66.8008 112.073 74.9585 107.437 78.3812L113.666 86.7554C113.666 86.7554 98.9921 93.1007 96.6122 103.809C94.3351 114.048 56.8875 115.23 40.4336 165.95C68.4857 176.161 94.0551 156.412 112.758 133.801C122.334 112.271 133.39 87.4151 137.447 78.1719L133.932 74.7528Z" fill="#050505"/>
<path d="M128.814 96.7187C147.85 91.448 252.599 119.44 260.143 129.985C267.688 140.529 222.267 267.174 210.115 267.174C196.233 267.174 96.6899 267.174 76.0649 267.617C57.9759 268.007 44.7356 218.851 50.6837 207.43C56.6318 196.009 100.655 103.749 115.329 101.993C130.002 100.237 128.814 96.7187 128.814 96.7187Z" fill="#07ACEE"/>
<path d="M75.8549 268.153C70.5843 268.153 65.2994 264.12 60.5466 256.477C51.3921 241.747 45.8875 215.489 50.2112 207.175C50.9205 205.796 52.1901 203.274 53.9316 199.766C74.6027 158.243 103.453 102.873 115.264 101.458C124.734 100.323 127.345 98.4961 128.057 97.5065C128.348 97.1057 128.302 96.8646 128.299 96.8539C128.266 96.7917 128.248 96.7223 128.248 96.6518C128.248 96.5812 128.266 96.5118 128.299 96.4496C128.336 96.3844 128.387 96.3283 128.448 96.2854C128.51 96.2424 128.58 96.2137 128.654 96.2013C139.014 93.3319 172.971 100.17 198.906 106.899C226.635 114.095 256.454 123.924 260.558 129.67C266.867 138.498 239.372 218.809 222.489 251.632C216.924 262.443 212.87 267.699 210.096 267.699C183.495 267.699 95.1782 267.731 76.0606 268.142L75.8549 268.153ZM129.352 97.1306C129.306 97.4361 129.193 97.7278 129.022 97.9854C128.121 99.4041 125.021 101.366 115.392 102.522C111.728 102.958 103.51 110.243 85.1723 142.449C73.113 163.617 61.256 187.448 54.8858 200.263C53.1408 203.767 51.8782 206.292 51.1547 207.69C47.3205 215.053 51.708 240.253 61.4406 255.927C64.6328 261.042 69.6833 267.1 75.8407 267.1H76.043C95.196 266.688 183.492 266.656 210.114 266.656C211.412 266.656 214.626 264.642 221.56 251.164C229.973 234.809 240.901 207.183 249.399 180.769C258.266 153.171 262.232 133.837 259.71 130.308C256.344 125.598 231.239 116.404 198.658 107.963C173.177 101.326 139.964 94.5911 129.352 97.1306Z" fill="black"/>
<path d="M250.367 136.894C250.367 136.894 125.837 134.514 121.872 138.479C120.066 140.285 119.889 180.914 118.303 209.47C116.374 244.176 88.9531 267.372 88.9531 267.372H138.925L250.367 136.894Z" fill="#0598C6"/>
<path d="M140.074 98.8305C164.125 86.9237 230.278 96.9578 261.732 123.641C293.185 150.324 274.422 171.626 266.889 170.041" fill="#07ACEE"/>
<path d="M267.714 170.654C267.399 170.654 267.086 170.624 266.778 170.562C266.709 170.547 266.644 170.519 266.586 170.48C266.529 170.44 266.479 170.39 266.441 170.331C266.403 170.272 266.377 170.207 266.364 170.138C266.351 170.069 266.352 169.999 266.366 169.93C266.381 169.862 266.408 169.797 266.448 169.739C266.487 169.681 266.538 169.632 266.596 169.594C266.655 169.556 266.721 169.529 266.789 169.516C266.858 169.504 266.929 169.504 266.997 169.519C269.682 170.083 274.205 167.362 276.844 161.975C278.457 158.687 279.908 153.242 277.663 145.989C275.403 138.672 269.927 131.287 261.386 124.044C247 111.84 223.907 102.086 198.029 97.287C173.963 92.8215 151.845 93.5947 140.307 99.3087C140.244 99.3397 140.176 99.358 140.107 99.3626C140.037 99.3673 139.967 99.3582 139.901 99.3358C139.835 99.3134 139.773 99.2782 139.721 99.2321C139.668 99.1861 139.625 99.1302 139.594 99.0675C139.563 99.0049 139.545 98.9367 139.54 98.867C139.536 98.7972 139.545 98.7272 139.567 98.661C139.59 98.5948 139.625 98.5338 139.671 98.4812C139.717 98.4286 139.773 98.3856 139.835 98.3546C151.568 92.5448 173.942 91.7362 198.224 96.2265C224.279 101.061 247.55 110.9 262.067 123.218C270.764 130.595 276.351 138.147 278.674 145.663C281.018 153.246 279.489 158.967 277.794 162.429C275.173 167.806 270.839 170.654 267.714 170.654Z" fill="black"/>
<path d="M168.298 115.188C169.846 115.188 171.1 113.934 171.1 112.386C171.1 110.839 169.846 109.584 168.298 109.584C166.751 109.584 165.496 110.839 165.496 112.386C165.496 113.934 166.751 115.188 168.298 115.188Z" fill="#51CEF4"/>
<path d="M197.345 106.278C198.893 106.278 200.147 105.023 200.147 103.476C200.147 101.928 198.893 100.674 197.345 100.674C195.798 100.674 194.543 101.928 194.543 103.476C194.543 105.023 195.798 106.278 197.345 106.278Z" fill="#51CEF4"/>
<path d="M222.153 119.249C223.701 119.249 224.956 117.994 224.956 116.447C224.956 114.899 223.701 113.645 222.153 113.645C220.606 113.645 219.352 114.899 219.352 116.447C219.352 117.994 220.606 119.249 222.153 119.249Z" fill="#51CEF4"/>
<path d="M187.88 130.807C189.428 130.807 190.682 129.553 190.682 128.005C190.682 126.458 189.428 125.203 187.88 125.203C186.333 125.203 185.078 126.458 185.078 128.005C185.078 129.553 186.333 130.807 187.88 130.807Z" fill="#51CEF4"/>
<path d="M247.728 131.137C249.275 131.137 250.53 129.883 250.53 128.335C250.53 126.788 249.275 125.533 247.728 125.533C246.18 125.533 244.926 126.788 244.926 128.335C244.926 129.883 246.18 131.137 247.728 131.137Z" fill="#51CEF4"/>
<path d="M225.076 139.868C226.623 139.868 227.878 138.613 227.878 137.066C227.878 135.518 226.623 134.264 225.076 134.264C223.528 134.264 222.273 135.518 222.273 137.066C222.273 138.613 223.528 139.868 225.076 139.868Z" fill="#51CEF4"/>
<path d="M257.764 102.756C257.643 102.755 257.525 102.714 257.43 102.639C257.359 102.579 250.095 96.7546 239.121 91.5868C229.016 86.8305 213.584 81.6556 197.563 84.11C197.493 84.1205 197.422 84.1171 197.353 84.1001C197.285 84.083 197.22 84.0527 197.164 84.0107C197.107 83.9687 197.059 83.9159 197.022 83.8554C196.986 83.7948 196.962 83.7277 196.951 83.6578C196.941 83.588 196.944 83.5168 196.961 83.4482C196.978 83.3796 197.009 83.3151 197.051 83.2583C197.093 83.2015 197.145 83.1535 197.206 83.1171C197.266 83.0806 197.333 83.0564 197.403 83.046C213.719 80.5632 229.357 85.8019 239.611 90.6256C250.695 95.8466 258.037 101.742 258.108 101.798C258.194 101.867 258.256 101.961 258.287 102.067C258.317 102.173 258.314 102.286 258.277 102.39C258.24 102.494 258.172 102.584 258.082 102.648C257.992 102.711 257.885 102.745 257.774 102.745L257.764 102.756Z" fill="black"/>
<path d="M12.6719 149.951C12.5663 149.951 12.4629 149.92 12.3751 149.861C12.2873 149.802 12.2188 149.719 12.1787 149.621C6.91158 136.853 6.53556 126.375 11.0578 118.487C17.2577 107.673 30.704 105.683 30.8388 105.661C30.9087 105.652 30.9797 105.656 31.048 105.673C31.1163 105.691 31.1805 105.722 31.2368 105.765C31.2931 105.807 31.3406 105.86 31.3764 105.921C31.4122 105.982 31.4355 106.049 31.4453 106.119C31.4551 106.189 31.4509 106.26 31.4332 106.328C31.4155 106.397 31.3846 106.461 31.3421 106.517C31.2996 106.573 31.2464 106.621 31.1855 106.657C31.1247 106.692 31.0576 106.716 30.9878 106.725C30.8565 106.747 17.9103 108.673 11.9764 119.033C7.63149 126.623 8.02902 136.767 13.1613 149.224C13.1903 149.289 13.2059 149.36 13.2071 149.431C13.2082 149.503 13.1951 149.573 13.1683 149.64C13.1414 149.706 13.1014 149.766 13.0508 149.816C13.0003 149.867 12.9401 149.907 12.8738 149.933C12.8083 149.953 12.7398 149.959 12.6719 149.951Z" fill="black"/>
<path d="M27.2219 254.253C27.1333 254.253 27.046 254.231 26.9681 254.189C26.8901 254.147 26.8238 254.086 26.7751 254.012C17.2412 239.505 18.7272 223.718 21.6498 213.028C23.5753 206.016 26.5047 199.318 30.3469 193.144C30.4277 193.032 30.5486 192.956 30.6843 192.932C30.82 192.908 30.9598 192.937 31.0743 193.014C31.1888 193.091 31.269 193.209 31.2981 193.344C31.3271 193.479 31.3026 193.619 31.2298 193.737C27.4446 199.824 24.5608 206.427 22.6678 213.34C19.8091 223.81 18.3548 239.264 27.6653 253.42C27.742 253.537 27.769 253.68 27.7405 253.818C27.7119 253.956 27.6301 254.076 27.5129 254.154C27.4282 254.216 27.3267 254.25 27.2219 254.253Z" fill="black"/>
<path d="M277.539 150.033C277.997 137.636 276.858 128.205 270.034 128.102C259.06 127.943 261.093 150.611 245.352 157.775C236.328 161.883 229.132 174.368 232.427 183.99C235.722 193.613 276.993 164.89 277.539 150.033Z" fill="#FFCDB2"/>
<path d="M235.786 186.452C233.285 186.452 232.303 185.26 231.927 184.164C228.444 174.002 236.183 161.376 245.135 157.293C253.084 153.675 256.375 146.05 259.28 139.321C262 133.019 264.356 127.57 269.921 127.57H270.048C270.898 127.564 271.741 127.733 272.523 128.067C273.304 128.401 274.009 128.892 274.592 129.511C277.43 132.49 278.493 138.825 278.075 150.051C277.777 158.134 266.65 168.299 261.88 172.296C252.864 179.848 242.954 185.494 237.222 186.338C236.747 186.412 236.267 186.45 235.786 186.452ZM269.921 128.638C265.054 128.638 262.937 133.547 260.259 139.747C257.28 146.649 253.9 154.477 245.575 158.265C237.016 162.167 229.614 174.173 232.934 183.824C233.385 185.136 234.775 185.625 237.063 185.292C242.617 184.469 252.314 178.908 261.181 171.484C270.885 163.351 276.787 155.328 276.997 150.015C277.266 142.666 277.149 133.774 273.804 130.248C273.321 129.731 272.735 129.32 272.083 129.042C271.431 128.765 270.728 128.627 270.02 128.638H269.921Z" fill="black"/>
<path d="M129.202 267.373H283.707V142.052H129.202L129.202 267.373Z" fill="white"/>
<path d="M283.709 142.056V267.381H129.205V142.056H283.709ZM283.709 140.992H129.205C128.922 140.992 128.652 141.104 128.452 141.304C128.252 141.503 128.141 141.774 128.141 142.056V267.381C128.141 267.663 128.252 267.934 128.452 268.133C128.652 268.333 128.922 268.445 129.205 268.445H283.709C283.991 268.445 284.262 268.333 284.462 268.133C284.661 267.934 284.773 267.663 284.773 267.381V142.056C284.773 141.774 284.661 141.503 284.462 141.304C284.262 141.104 283.991 140.992 283.709 140.992Z" fill="black"/>
<path d="M139.056 253.826L274.305 253.826V153.294H139.056V253.826Z" fill="#4BD657"/>
<path d="M274.309 153.295V253.827H139.06V153.295H274.309ZM274.309 152.23H139.06C138.778 152.23 138.507 152.343 138.308 152.542C138.108 152.742 137.996 153.012 137.996 153.295V253.827C137.996 254.109 138.108 254.38 138.308 254.579C138.507 254.779 138.778 254.891 139.06 254.891H274.309C274.591 254.891 274.862 254.779 275.061 254.579C275.261 254.38 275.373 254.109 275.373 253.827V153.295C275.373 153.012 275.261 152.742 275.061 152.542C274.862 152.343 274.591 152.23 274.309 152.23Z" fill="black"/>
<path d="M284.23 267.375H133.844C130.147 267.375 126.601 265.906 123.987 263.292C121.373 260.678 119.904 257.133 119.904 253.436L298.187 253.436C298.188 255.268 297.826 257.082 297.124 258.774C296.423 260.467 295.395 262.004 294.099 263.299C292.802 264.593 291.263 265.62 289.57 266.319C287.877 267.019 286.062 267.377 284.23 267.375Z" fill="white"/>
<path d="M298.171 253.425C298.171 257.123 296.703 260.668 294.089 263.283C291.475 265.898 287.929 267.367 284.232 267.368H133.828C130.13 267.367 126.585 265.898 123.971 263.283C121.357 260.668 119.888 257.123 119.888 253.425H298.171ZM299.235 252.361H118.824V253.425C118.829 257.403 120.411 261.217 123.224 264.03C126.036 266.844 129.85 268.427 133.828 268.432H284.232C288.21 268.427 292.024 266.844 294.836 264.03C297.649 261.217 299.231 257.403 299.235 253.425V252.361Z" fill="black"/>
<path d="M249.405 184.287H227.623C222.421 184.287 218.203 188.505 218.203 193.708V212.719C218.203 217.921 222.421 222.139 227.623 222.139H249.405C254.608 222.139 258.825 217.921 258.825 212.719V193.708C258.825 188.505 254.608 184.287 249.405 184.287Z" fill="#382256"/>
<path d="M249.403 184.287C251.902 184.287 254.298 185.279 256.065 187.046C257.833 188.812 258.826 191.208 258.827 193.707V212.715C258.826 215.214 257.833 217.61 256.066 219.378C254.299 221.145 251.902 222.138 249.403 222.139H227.625C225.126 222.138 222.73 221.145 220.964 219.377C219.197 217.61 218.205 215.214 218.205 212.715V193.707C218.205 191.209 219.197 188.813 220.964 187.046C222.731 185.279 225.127 184.287 227.625 184.287H249.403ZM249.403 183.223H227.625C224.845 183.225 222.18 184.331 220.215 186.297C218.249 188.262 217.143 190.927 217.141 193.707V212.715C217.143 215.495 218.249 218.16 220.214 220.127C222.18 222.093 224.845 223.199 227.625 223.203H249.403C252.183 223.199 254.849 222.093 256.815 220.127C258.781 218.161 259.887 215.495 259.891 212.715V193.707C259.887 190.927 258.781 188.262 256.815 186.296C254.848 184.331 252.183 183.225 249.403 183.223Z" fill="black"/>
<path d="M204.222 186.836H152.665C152.524 186.836 152.388 186.779 152.289 186.68C152.189 186.58 152.133 186.445 152.133 186.304C152.133 186.162 152.189 186.027 152.289 185.927C152.388 185.828 152.524 185.771 152.665 185.771H204.222C204.363 185.771 204.499 185.828 204.598 185.927C204.698 186.027 204.754 186.162 204.754 186.304C204.754 186.445 204.698 186.58 204.598 186.68C204.499 186.779 204.363 186.836 204.222 186.836Z" fill="black"/>
<path d="M203.034 200.713L152.669 199.525C152.528 199.525 152.392 199.469 152.292 199.369C152.192 199.269 152.137 199.134 152.137 198.993C152.137 198.852 152.192 198.716 152.292 198.617C152.392 198.517 152.528 198.461 152.669 198.461L203.034 199.649C203.175 199.649 203.311 199.705 203.41 199.805C203.51 199.905 203.566 200.04 203.566 200.181C203.566 200.322 203.51 200.458 203.41 200.557C203.311 200.657 203.175 200.713 203.034 200.713Z" fill="black"/>
<path d="M204.223 216.578H170.911C170.77 216.578 170.635 216.522 170.535 216.422C170.435 216.322 170.379 216.187 170.379 216.046C170.379 215.905 170.435 215.769 170.535 215.669C170.635 215.57 170.77 215.514 170.911 215.514H204.223C204.364 215.514 204.499 215.57 204.599 215.669C204.699 215.769 204.755 215.905 204.755 216.046C204.755 216.187 204.699 216.322 204.599 216.422C204.499 216.522 204.364 216.578 204.223 216.578Z" fill="black"/>
<path d="M117.372 149.149C117.244 149.149 117.12 149.102 117.023 149.018C116.926 148.934 116.862 148.818 116.844 148.692C115.989 142.587 117.085 138.122 120.096 135.412C125.083 130.925 133.408 132.929 133.762 133.032C133.899 133.066 134.017 133.154 134.089 133.275C134.162 133.396 134.183 133.541 134.149 133.678C134.115 133.814 134.028 133.932 133.906 134.005C133.785 134.077 133.641 134.099 133.504 134.064C133.422 134.043 125.367 132.099 120.802 136.192C118.075 138.65 117.096 142.8 117.897 148.528C117.907 148.598 117.904 148.668 117.886 148.736C117.869 148.804 117.839 148.867 117.797 148.923C117.755 148.979 117.703 149.026 117.643 149.062C117.582 149.098 117.516 149.121 117.447 149.131L117.372 149.149Z" fill="black"/>
<path d="M140.313 147.539C140.172 147.539 140.037 147.483 139.937 147.384C139.837 147.284 139.781 147.148 139.781 147.007C139.781 146.866 139.837 146.731 139.937 146.631C140.037 146.531 140.172 146.475 140.313 146.475L190.679 146.078C190.82 146.078 190.955 146.134 191.055 146.234C191.155 146.334 191.211 146.469 191.211 146.61C191.211 146.751 191.155 146.887 191.055 146.986C190.955 147.086 190.82 147.142 190.679 147.142L140.313 147.539Z" fill="white"/>
<path d="M286.258 260.964H229.153C229.012 260.964 228.877 260.908 228.777 260.809C228.677 260.709 228.621 260.574 228.621 260.432C228.621 260.291 228.677 260.156 228.777 260.056C228.877 259.956 229.012 259.9 229.153 259.9H286.258C286.399 259.9 286.534 259.956 286.634 260.056C286.734 260.156 286.79 260.291 286.79 260.432C286.79 260.574 286.734 260.709 286.634 260.809C286.534 260.908 286.399 260.964 286.258 260.964Z" fill="white"/>
<path d="M214.08 194.734C214.01 194.732 213.941 194.717 213.877 194.689C213.813 194.661 213.755 194.621 213.707 194.571C213.659 194.52 213.621 194.461 213.595 194.396C213.57 194.331 213.557 194.261 213.559 194.191C213.693 187.097 215.612 182.178 219.255 179.607C224.008 176.248 229.874 178.149 230.122 178.23C230.256 178.277 230.366 178.376 230.427 178.503C230.488 178.631 230.496 178.778 230.449 178.911C230.402 179.045 230.304 179.154 230.176 179.215C230.048 179.277 229.901 179.285 229.768 179.238C229.711 179.238 224.149 177.432 219.836 180.479C216.488 182.848 214.726 187.47 214.598 194.212C214.595 194.349 214.54 194.48 214.443 194.577C214.347 194.674 214.217 194.73 214.08 194.734Z" fill="black"/>
<path d="M228.02 217.288C227.699 217.286 227.392 217.159 227.165 216.934C227.046 216.821 226.951 216.687 226.885 216.538C226.818 216.389 226.782 216.228 226.778 216.065C226.773 215.902 226.801 215.74 226.86 215.588C226.918 215.435 227.006 215.296 227.119 215.178L249.726 191.386C249.837 191.261 249.971 191.159 250.122 191.088C250.272 191.016 250.436 190.975 250.602 190.968C250.769 190.961 250.936 190.987 251.092 191.046C251.248 191.104 251.391 191.194 251.512 191.308C251.632 191.423 251.729 191.561 251.795 191.714C251.861 191.867 251.896 192.032 251.897 192.199C251.899 192.366 251.866 192.531 251.802 192.685C251.738 192.839 251.644 192.978 251.525 193.095L228.92 216.891C228.805 217.015 228.666 217.114 228.511 217.182C228.356 217.251 228.189 217.287 228.02 217.288Z" fill="white"/>
<path d="M250.626 217.287C250.308 217.281 250.005 217.154 249.778 216.933L224.397 193.137C224.156 192.911 224.015 192.6 224.005 192.271C223.994 191.941 224.115 191.621 224.34 191.381C224.565 191.141 224.877 191 225.206 190.989C225.535 190.978 225.855 191.099 226.096 191.324L251.477 215.12C251.659 215.29 251.787 215.512 251.842 215.755C251.896 215.999 251.876 216.253 251.784 216.485C251.692 216.717 251.533 216.916 251.326 217.056C251.119 217.196 250.875 217.27 250.626 217.269V217.287Z" fill="white"/>
<path d="M257.762 229.269H239.52C239.379 229.269 239.244 229.213 239.144 229.113C239.044 229.014 238.988 228.878 238.988 228.737C238.988 228.596 239.044 228.461 239.144 228.361C239.244 228.261 239.379 228.205 239.52 228.205H257.762C257.903 228.205 258.038 228.261 258.138 228.361C258.238 228.461 258.294 228.596 258.294 228.737C258.294 228.878 258.238 229.014 258.138 229.113C258.038 229.213 257.903 229.269 257.762 229.269Z" fill="black"/>
<path d="M111.36 101.398C90.3417 121.229 61.7219 121.658 36.2058 203.523C25.6645 237.339 37.0075 253.867 46.5166 261.028C59.4662 270.775 126.488 273.552 128.215 248.338L139.32 247.94L142.491 216.607H133.766C133.766 216.607 129.995 203.016 113.797 201.356C86.4328 198.582 65.1554 211.043 61.5873 212.231" fill="#07ACEE"/>
<path d="M83.3377 268.616C67.2386 268.616 51.7707 265.644 46.1986 261.455C37.5443 254.939 24.6764 238.73 35.7 203.365C44.5104 175.1 54.4666 154.031 66.1393 138.957C76.3613 125.756 86.6293 118.793 95.688 112.65C101.122 108.968 106.251 105.489 110.996 101.013C111.099 100.919 111.235 100.87 111.374 100.875C111.513 100.881 111.644 100.941 111.74 101.042C111.836 101.143 111.888 101.277 111.885 101.417C111.883 101.556 111.826 101.688 111.727 101.786C106.921 106.322 101.753 109.823 96.2838 113.533C77.5812 126.213 56.3815 140.589 36.7142 203.68C25.8856 238.439 38.4096 254.258 46.837 260.604C51.5153 264.126 63.5356 266.796 77.457 267.407C92.9355 268.084 107.013 266.098 116.075 261.959C123.389 258.617 127.294 254.021 127.684 248.3C127.694 248.168 127.752 248.045 127.847 247.954C127.942 247.863 128.067 247.811 128.199 247.807L138.839 247.427L141.904 217.14H133.767C133.652 217.141 133.539 217.103 133.446 217.033C133.354 216.963 133.287 216.865 133.256 216.754C133.217 216.619 129.373 203.489 113.749 201.903C90.5486 199.548 71.6224 208.287 64.4968 211.561C63.227 212.146 62.3119 212.569 61.7622 212.753C61.6958 212.775 61.6259 212.784 61.5561 212.779C61.4863 212.774 61.4181 212.755 61.3555 212.724C61.293 212.693 61.2372 212.649 61.1913 212.597C61.1455 212.544 61.1106 212.482 61.0885 212.416C61.0664 212.35 61.0575 212.28 61.0625 212.21C61.0675 212.14 61.0859 212.072 61.1172 212.009C61.1485 211.947 61.1918 211.891 61.2447 211.845C61.2975 211.799 61.3591 211.764 61.4255 211.742C61.9221 211.575 62.8121 211.164 64.05 210.597C71.2465 207.277 90.3676 198.463 113.855 200.843C128.667 202.347 133.363 213.806 134.157 216.094H142.496C142.571 216.094 142.645 216.11 142.713 216.14C142.782 216.171 142.843 216.216 142.893 216.271C142.943 216.327 142.98 216.392 143.004 216.463C143.027 216.534 143.035 216.609 143.028 216.683L139.836 248.012C139.822 248.14 139.763 248.259 139.669 248.347C139.576 248.435 139.454 248.486 139.325 248.491L128.685 248.871C128.089 254.787 123.988 259.511 116.497 262.945C107.687 266.96 95.3368 268.616 83.3377 268.616Z" fill="black"/>
<path d="M126.234 250.528C126.394 241.306 131.512 224.7 133.903 217.436H141.305L138.301 247.105L127.784 247.481C127.339 248.531 126.821 249.549 126.234 250.528Z" fill="#0598C6"/>
<path d="M102.067 131.452C103.615 131.452 104.87 130.197 104.87 128.65C104.87 127.102 103.615 125.848 102.067 125.848C100.52 125.848 99.2656 127.102 99.2656 128.65C99.2656 130.197 100.52 131.452 102.067 131.452Z" fill="#51CEF4"/>
<path d="M73.1186 171.506C74.6661 171.506 75.9204 170.252 75.9204 168.704C75.9204 167.157 74.6661 165.902 73.1186 165.902C71.5711 165.902 70.3164 167.157 70.3164 168.704C70.3164 170.252 71.5711 171.506 73.1186 171.506Z" fill="#51CEF4"/>
<path d="M99.2943 188.958C100.842 188.958 102.096 187.703 102.096 186.156C102.096 184.608 100.842 183.354 99.2943 183.354C97.7468 183.354 96.4922 184.608 96.4922 186.156C96.4922 187.703 97.7468 188.958 99.2943 188.958Z" fill="#51CEF4"/>
<path d="M43.3725 204.028C44.92 204.028 46.1746 202.773 46.1746 201.226C46.1746 199.678 44.92 198.424 43.3725 198.424C41.825 198.424 40.5703 199.678 40.5703 201.226C40.5703 202.773 41.825 204.028 43.3725 204.028Z" fill="#51CEF4"/>
<path d="M70.3412 249.235C71.8887 249.235 73.143 247.98 73.143 246.433C73.143 244.885 71.8887 243.631 70.3412 243.631C68.7937 243.631 67.5391 244.885 67.5391 246.433C67.5391 247.98 68.7937 249.235 70.3412 249.235Z" fill="#51CEF4"/>
<path d="M96.517 227.426C98.0645 227.426 99.3188 226.172 99.3188 224.624C99.3188 223.077 98.0645 221.822 96.517 221.822C94.9695 221.822 93.7148 223.077 93.7148 224.624C93.7148 226.172 94.9695 227.426 96.517 227.426Z" fill="#51CEF4"/>
<path d="M102.067 253.598C103.615 253.598 104.87 252.344 104.87 250.796C104.87 249.249 103.615 247.994 102.067 247.994C100.52 247.994 99.2656 249.249 99.2656 250.796C99.2656 252.344 100.52 253.598 102.067 253.598Z" fill="#51CEF4"/>
<path d="M61.7881 218.133C61.6681 218.134 61.5516 218.093 61.4573 218.019C61.363 217.945 61.2964 217.842 61.2685 217.725C61.2406 217.608 61.253 217.486 61.3035 217.377C61.354 217.268 61.4399 217.18 61.547 217.126C81.1292 207.234 93.2523 206.13 99.9736 206.96C107.394 207.868 110.082 211.181 110.192 211.323C110.239 211.377 110.275 211.441 110.297 211.509C110.319 211.578 110.326 211.65 110.32 211.721C110.313 211.793 110.292 211.862 110.257 211.925C110.223 211.989 110.177 212.044 110.12 212.089C110.064 212.133 109.999 212.166 109.93 212.185C109.86 212.204 109.788 212.208 109.717 212.198C109.646 212.189 109.577 212.164 109.515 212.127C109.454 212.09 109.401 212.041 109.359 211.983C109.33 211.944 106.744 208.823 99.7003 208C93.1315 207.23 81.2567 208.354 62.0291 218.076C61.9543 218.114 61.8718 218.133 61.7881 218.133Z" fill="white"/>
<path d="M142.353 216.84C142.353 216.84 155.324 178.534 169.089 201.656L191.722 198.51C191.722 198.51 200.922 207.778 184.273 216.028C184.273 216.028 186.089 224.345 180.989 230.325C180.989 230.325 185.121 236.355 173.086 244.608C161.052 252.862 140.129 247.857 140.129 247.857L142.353 216.84Z" fill="#FFCDB2"/>
<path d="M154.107 249.926C149.369 249.915 144.646 249.394 140.019 248.372C139.897 248.343 139.789 248.271 139.715 248.17C139.641 248.068 139.605 247.944 139.615 247.819L141.839 216.801C141.843 216.757 141.853 216.713 141.867 216.67C142.169 215.776 149.39 194.761 159.08 193.74C162.715 193.357 166.174 195.825 169.366 201.082L191.655 197.985C191.736 197.974 191.82 197.981 191.898 198.008C191.976 198.034 192.047 198.079 192.105 198.138C192.24 198.273 195.428 201.546 194.68 206.04C194.041 209.885 190.743 213.343 184.869 216.326C185.167 218.1 185.986 225.005 181.631 230.39C182.365 231.861 184.213 237.618 173.384 245.052C167.812 248.872 160.47 249.926 154.107 249.926ZM140.707 247.443C143.768 248.092 162.049 251.557 172.799 244.176C184.192 236.352 180.716 230.861 180.56 230.634C180.496 230.537 180.464 230.422 180.471 230.306C180.477 230.189 180.521 230.078 180.595 229.989C185.461 224.285 183.787 216.227 183.766 216.156C183.742 216.04 183.756 215.919 183.807 215.812C183.859 215.705 183.944 215.617 184.05 215.564C189.817 212.726 193.045 209.452 193.626 205.891C194.194 202.508 192.137 199.816 191.498 199.092L169.153 202.199C169.05 202.213 168.945 202.196 168.851 202.15C168.757 202.105 168.678 202.033 168.625 201.944C165.603 196.868 162.417 194.467 159.169 194.811C150.397 195.737 143.318 215.681 142.853 216.965L140.707 247.443Z" fill="black"/>
<path d="M161.652 203.936C161.511 203.951 161.37 203.91 161.259 203.821C161.148 203.732 161.077 203.603 161.062 203.462C161.046 203.321 161.088 203.18 161.176 203.069C161.265 202.958 161.394 202.887 161.535 202.872L168.984 201.141C169.119 201.114 169.259 201.141 169.375 201.216C169.491 201.291 169.573 201.408 169.604 201.542C169.636 201.676 169.613 201.818 169.543 201.936C169.472 202.054 169.358 202.14 169.225 202.176L161.777 203.907C161.737 203.923 161.695 203.932 161.652 203.936Z" fill="black"/>
<path d="M166.938 221.735C166.131 221.742 165.324 221.7 164.522 221.611C164.381 221.592 164.253 221.519 164.166 221.406C164.079 221.293 164.041 221.15 164.059 221.009C164.078 220.868 164.151 220.74 164.264 220.653C164.377 220.567 164.519 220.528 164.66 220.547C164.76 220.547 174.592 221.76 183.814 215.478C183.871 215.433 183.937 215.4 184.007 215.381C184.078 215.362 184.151 215.358 184.224 215.369C184.296 215.38 184.365 215.406 184.427 215.445C184.488 215.484 184.542 215.535 184.583 215.595C184.624 215.655 184.652 215.723 184.666 215.795C184.68 215.866 184.679 215.94 184.663 216.011C184.647 216.083 184.616 216.15 184.573 216.209C184.53 216.268 184.476 216.317 184.413 216.354C179.251 219.842 173.168 221.715 166.938 221.735Z" fill="black"/>
<path d="M165.368 235.444C164.223 235.444 163.488 235.387 163.375 235.377C163.305 235.371 163.237 235.351 163.174 235.319C163.112 235.287 163.057 235.242 163.012 235.189C162.966 235.135 162.932 235.073 162.911 235.006C162.89 234.939 162.883 234.868 162.889 234.798C162.903 234.658 162.972 234.53 163.08 234.439C163.188 234.349 163.327 234.305 163.467 234.316C163.577 234.316 174.551 235.203 180.946 229.545C180.998 229.499 181.059 229.463 181.125 229.44C181.191 229.417 181.261 229.407 181.331 229.411C181.401 229.415 181.469 229.433 181.532 229.463C181.595 229.493 181.651 229.536 181.698 229.588C181.745 229.64 181.78 229.701 181.803 229.767C181.826 229.833 181.836 229.903 181.832 229.973C181.828 230.043 181.811 230.111 181.78 230.174C181.75 230.237 181.708 230.293 181.655 230.34C176.544 234.862 168.951 235.444 165.368 235.444Z" fill="black"/>
<path d="M158.142 247.257C153.592 247.257 150.761 245.856 150.64 245.796C150.514 245.732 150.419 245.621 150.374 245.487C150.33 245.353 150.341 245.207 150.405 245.081C150.468 244.955 150.579 244.859 150.713 244.815C150.847 244.771 150.993 244.782 151.119 244.845C151.247 244.909 162.718 250.431 176.302 238.376C176.354 238.329 176.415 238.293 176.481 238.27C176.547 238.247 176.617 238.237 176.687 238.241C176.757 238.245 176.825 238.263 176.888 238.293C176.951 238.324 177.008 238.366 177.054 238.418C177.101 238.47 177.136 238.531 177.159 238.597C177.183 238.663 177.193 238.733 177.189 238.803C177.185 238.873 177.167 238.941 177.137 239.004C177.106 239.067 177.064 239.123 177.012 239.17C169.627 245.721 162.874 247.182 158.508 247.253L158.142 247.257Z" fill="white"/>
<path d="M164.804 232.634C164.311 232.634 163.999 232.634 163.921 232.634C163.851 232.632 163.783 232.616 163.719 232.588C163.655 232.559 163.598 232.518 163.55 232.467C163.502 232.417 163.465 232.357 163.44 232.292C163.416 232.226 163.404 232.157 163.407 232.087C163.407 232.017 163.423 231.948 163.451 231.883C163.479 231.819 163.52 231.761 163.572 231.713C163.623 231.665 163.684 231.628 163.75 231.604C163.816 231.58 163.886 231.569 163.956 231.573C164.102 231.573 178.382 231.988 181.102 226.082C181.128 226.014 181.168 225.952 181.218 225.9C181.269 225.848 181.33 225.807 181.398 225.78C181.465 225.752 181.538 225.739 181.611 225.74C181.683 225.742 181.755 225.758 181.821 225.789C181.887 225.819 181.946 225.863 181.995 225.917C182.044 225.971 182.081 226.035 182.104 226.104C182.127 226.173 182.135 226.246 182.129 226.319C182.123 226.391 182.101 226.462 182.067 226.526C179.442 232.211 168.106 232.634 164.804 232.634Z" fill="white"/>
<path d="M167.196 218.396C167.126 218.401 167.056 218.391 166.99 218.369C166.923 218.346 166.862 218.31 166.81 218.264C166.757 218.218 166.714 218.162 166.683 218.099C166.652 218.036 166.634 217.968 166.63 217.898C166.626 217.828 166.635 217.758 166.658 217.692C166.68 217.625 166.716 217.564 166.762 217.512C166.808 217.459 166.865 217.416 166.927 217.386C166.99 217.355 167.059 217.337 167.128 217.332C167.309 217.311 185.058 214.984 189.828 207.106C189.863 207.044 189.91 206.989 189.967 206.945C190.023 206.902 190.088 206.87 190.158 206.851C190.227 206.833 190.299 206.829 190.37 206.84C190.44 206.85 190.508 206.874 190.57 206.912C190.631 206.949 190.684 206.998 190.725 207.056C190.767 207.115 190.796 207.18 190.812 207.25C190.828 207.32 190.829 207.392 190.816 207.463C190.803 207.533 190.776 207.6 190.736 207.66C185.689 215.977 168.001 218.3 167.252 218.389L167.196 218.396Z" fill="white"/>
<path d="M133.538 38.2219C141.806 38.2219 148.509 31.519 148.509 23.2506C148.509 14.9822 141.806 8.2793 133.538 8.2793C125.269 8.2793 118.566 14.9822 118.566 23.2506C118.566 31.519 125.269 38.2219 133.538 38.2219Z" fill="#382256"/>
<path d="M133.537 8.27501C136.862 8.27722 140.091 9.3856 142.716 11.4255C145.341 13.4655 147.213 16.3209 148.036 19.5418C148.859 22.7628 148.587 26.1661 147.263 29.2154C145.938 32.2647 143.637 34.7866 140.721 36.3836C137.805 37.9806 134.441 38.562 131.159 38.0361C127.876 37.5102 124.862 35.9069 122.591 33.4789C120.32 31.0509 118.921 27.9362 118.616 24.6258C118.311 21.3154 119.115 17.9975 120.903 15.1949C122.254 13.0689 124.121 11.3195 126.33 10.1095C128.539 8.8995 131.019 8.2684 133.537 8.27501ZM133.537 7.21095C129.676 7.2066 125.944 8.59517 123.024 11.1218C120.104 13.6483 118.194 17.1433 117.644 20.965C117.094 24.7866 117.941 28.6784 120.03 31.9258C122.118 35.1732 125.308 37.5582 129.014 38.6428C132.719 39.7275 136.692 39.439 140.202 37.8304C143.712 36.2218 146.524 33.401 148.121 29.886C149.719 26.371 149.994 22.3976 148.898 18.6955C147.802 14.9934 145.407 11.811 142.153 9.73272C139.581 8.08521 136.591 7.21003 133.537 7.21095Z" fill="black"/>
<path d="M170.426 73.783C170.426 73.783 181.698 65.845 178.229 56.0947C174.76 46.3444 172.256 46.9013 170.78 41.6448C169.305 36.3884 160.739 30.3907 152.213 31.9442C152.213 31.9442 142.725 23.1941 133.187 24.6447C123.65 26.0954 119.957 30.1921 116.57 37.1829C113.183 44.1738 110.225 47.1141 107.675 51.9591C105.124 56.8041 100.645 70.6404 119.319 83.0864C137.993 95.5323 170.426 73.783 170.426 73.783Z" fill="#382256"/>
<path d="M135.369 24.4806C144.119 24.4806 152.213 31.929 152.213 31.929C153.134 31.7611 154.068 31.6769 155.004 31.6772C162.527 31.6772 169.455 36.9479 170.781 41.6297C172.271 46.8862 174.778 46.3329 178.229 56.0796C181.681 65.8264 170.426 73.7678 170.426 73.7678C170.426 73.7678 150.812 86.9196 133.308 86.9196C128.3 86.9196 123.462 85.8555 119.309 83.0712C100.635 70.6253 105.122 56.7748 107.665 51.9439C110.208 47.1131 113.177 44.1409 116.56 37.1678C119.944 30.1946 123.654 26.0767 133.177 24.6296C133.899 24.5191 134.628 24.4646 135.359 24.4664L135.369 24.4806ZM135.359 23.4024C134.575 23.4008 133.793 23.4589 133.018 23.5762C123.037 25.0907 119.075 29.5349 115.602 36.6995C114.054 39.8611 112.26 42.8959 110.236 45.776C108.96 47.6 107.788 49.4947 106.725 51.451C104.566 55.5533 103.779 60.24 104.48 64.8226C105.618 71.9837 110.41 78.4213 118.72 83.9757C122.725 86.6464 127.633 88.0014 133.308 88.0014C142.53 88.0014 152.313 84.3694 158.878 81.3262C163.078 79.3985 167.135 77.1737 171.019 74.6687H171.04C173.104 73.1317 174.936 71.3065 176.481 69.2491C179.826 64.7588 180.776 60.0946 179.233 55.771C177.261 50.2166 175.577 47.9006 174.222 46.0385C173.158 44.5913 172.406 43.5556 171.796 41.3849C170.377 36.3129 163.106 30.6628 154.994 30.6592C154.163 30.659 153.333 30.7207 152.511 30.8437C150.738 29.315 143.396 23.4485 135.341 23.4485L135.359 23.4024Z" fill="black"/>
<path d="M134.726 59.9734H134.68C128.03 59.3775 122.227 52.3015 121.982 52.0001C121.893 51.8905 121.852 51.75 121.866 51.6097C121.881 51.4693 121.951 51.3405 122.06 51.2516C122.17 51.1627 122.31 51.1211 122.45 51.1357C122.591 51.1503 122.72 51.2201 122.809 51.3297C122.865 51.4006 128.576 58.356 134.772 58.9129C134.913 58.919 135.046 58.9808 135.142 59.0849C135.237 59.189 135.287 59.3268 135.281 59.4679C135.275 59.6091 135.213 59.7419 135.109 59.8374C135.005 59.9328 134.867 59.9831 134.726 59.9769V59.9734Z" fill="black"/>
<path d="M134.603 55.6721C133.09 55.6635 131.586 55.4523 130.13 55.0443C129.993 55.0067 129.878 54.9164 129.808 54.7934C129.738 54.6703 129.72 54.5246 129.758 54.3882C129.795 54.2518 129.886 54.1359 130.009 54.0661C130.132 53.9962 130.277 53.9781 130.414 54.0157C143.08 57.4846 148.364 44.7939 148.584 44.2654C148.611 44.2007 148.649 44.1417 148.699 44.092C148.748 44.0422 148.806 44.0027 148.87 43.9755C148.935 43.9483 149.004 43.9341 149.074 43.9336C149.144 43.9331 149.213 43.9465 149.278 43.9728C149.342 43.9991 149.402 44.038 149.451 44.087C149.501 44.1361 149.54 44.1945 149.568 44.2589C149.595 44.3233 149.609 44.3924 149.61 44.4623C149.61 44.5321 149.597 44.6014 149.57 44.6662C149.499 44.7903 144.988 55.6721 134.603 55.6721Z" fill="white"/>
<path d="M141.902 90.6875C141.902 90.6875 166.488 114.097 131.587 110.121C131.587 110.121 124.451 121.623 112.154 115.278C99.8572 108.933 105.415 97.4301 114.137 94.653C121.706 92.2446 141.902 90.6875 141.902 90.6875Z" fill="white"/>
<path d="M119.35 117.712C116.745 117.67 114.19 116.997 111.902 115.751C106.769 113.101 104.145 109.253 104.51 104.915C104.907 100.222 108.795 95.7923 113.966 94.1465C121.507 91.7489 141.021 90.2237 141.848 90.1599C141.922 90.1539 141.997 90.1638 142.067 90.1889C142.138 90.214 142.202 90.2537 142.256 90.3054C142.703 90.731 153.18 100.801 150.343 106.873C148.619 110.565 142.394 111.838 131.839 110.686C130.899 112.033 126.476 117.712 119.35 117.712ZM141.695 91.2381C139.397 91.4226 121.276 92.9407 114.296 95.161C109.6 96.6578 105.932 100.797 105.578 105.004C105.251 108.887 107.67 112.367 112.395 114.803C117.314 117.343 121.971 117.286 126.196 114.63C128.151 113.387 129.831 111.758 131.133 109.841C131.185 109.755 131.261 109.686 131.352 109.642C131.442 109.598 131.544 109.581 131.644 109.593C141.745 110.742 147.881 109.646 149.378 106.422C151.726 101.421 143.033 92.554 141.695 91.2381Z" fill="black"/>
<path d="M118.771 8.97381C118.687 8.97279 118.603 8.95169 118.528 8.91224C118.453 8.87279 118.389 8.81609 118.34 8.74685C118.291 8.67761 118.26 8.59778 118.248 8.51391C118.236 8.43005 118.244 8.34457 118.271 8.26444C119.491 4.83108 121.517 2.42981 124.301 1.12456C129.181 -1.1738 134.587 0.748659 134.814 0.833783C134.937 0.887798 135.035 0.986396 135.088 1.10976C135.142 1.23312 135.146 1.37206 135.101 1.49873C135.056 1.62541 134.965 1.73036 134.846 1.79254C134.727 1.85473 134.588 1.86952 134.459 1.83394C134.409 1.81265 129.234 -0.0210792 124.758 2.09285C122.254 3.27395 120.417 5.46952 119.3 8.62267C119.26 8.72956 119.187 8.8211 119.092 8.88419C118.997 8.94728 118.885 8.97868 118.771 8.97381Z" fill="black"/>
<path d="M123.627 19.072C123.535 19.0722 123.444 19.0484 123.364 19.0028C123.283 18.9572 123.216 18.8913 123.169 18.8118C123.121 18.7323 123.095 18.6419 123.094 18.5495C123.092 18.457 123.115 18.3657 123.159 18.2846C124.993 14.8831 127.394 12.8046 130.303 12.1094C135.013 10.9815 139.276 13.8829 139.457 14.0177C139.573 14.0981 139.653 14.2214 139.678 14.3604C139.703 14.4994 139.672 14.6428 139.592 14.759C139.511 14.8752 139.388 14.9546 139.249 14.9799C139.11 15.0052 138.967 14.9742 138.851 14.8937C138.812 14.8654 134.779 12.1272 130.54 13.1487C127.944 13.773 125.777 15.6705 124.096 18.7917C124.05 18.8761 123.982 18.9466 123.9 18.9959C123.817 19.0452 123.723 19.0715 123.627 19.072Z" fill="white"/>
<path d="M140.531 94.2234V100.172C140.531 100.172 130.22 115.639 110.383 102.949C110.383 102.949 120.109 88.967 125.315 72.3748C125.315 72.3748 117.977 70.3814 119.481 63.8056C120.985 57.2297 126.383 56.3572 129.444 58.3221C129.444 58.3221 141.329 67.5262 155.183 42.457C155.183 42.457 168.012 48.4867 170.048 62.1741C172.084 75.8614 168.63 91.4037 157.989 95.3904C147.348 99.377 140.531 94.2234 140.531 94.2234Z" fill="#FFCDB2"/>
<path d="M155.191 42.4566C155.191 42.4566 168.02 48.4863 170.056 62.1737C172.092 75.861 168.637 91.4033 157.997 95.39C155.463 96.3682 152.774 96.8801 150.059 96.9009C144.089 96.9009 140.528 94.223 140.528 94.223V100.171C140.528 100.171 135.343 107.949 125.256 107.949C121.117 107.949 116.155 106.641 110.387 102.948C110.387 102.948 120.113 88.9667 125.319 72.3744C125.319 72.3744 117.981 70.3811 119.485 63.8052C120.549 59.1943 123.496 57.4032 126.224 57.4032C127.363 57.3991 128.479 57.7176 129.444 58.3217C129.444 58.3217 131.573 59.9711 135.084 59.9711C139.862 59.9711 147.197 56.9136 155.184 42.4566H155.191ZM155.184 41.3926C154.994 41.3924 154.806 41.4433 154.642 41.54C154.478 41.6367 154.343 41.7756 154.251 41.9424C146.505 55.9631 139.55 58.907 135.098 58.907C133.33 58.9416 131.591 58.4476 130.104 57.4883L130.03 57.435C128.893 56.7243 127.579 56.3482 126.238 56.3498C123.276 56.3498 119.68 58.2473 118.46 63.5782C117.751 66.6924 118.687 69.3951 121.184 71.3813C122.048 72.0599 123.003 72.6139 124.021 73.027C118.857 88.8425 109.635 102.2 109.539 102.338C109.458 102.456 109.402 102.589 109.373 102.729C109.345 102.869 109.344 103.014 109.373 103.154C109.401 103.294 109.456 103.428 109.537 103.546C109.617 103.664 109.721 103.765 109.841 103.842C115.2 107.272 120.397 109.01 125.284 109.01C135.818 109.01 141.217 101.097 141.44 100.76C141.558 100.585 141.621 100.379 141.621 100.168V96.071C144.262 97.339 147.158 97.9856 150.087 97.9614C152.931 97.938 155.747 97.4034 158.401 96.3831C163.65 94.4111 167.598 89.6902 169.811 82.7348C171.744 76.659 172.216 69.2993 171.131 62.0141C170.265 56.1795 167.318 50.7812 162.618 46.4079C160.55 44.4492 158.212 42.7951 155.677 41.4955C155.537 41.4271 155.383 41.3919 155.227 41.3926H155.184Z" fill="black"/>
<path d="M140.734 95.3509C140.676 95.3502 140.619 95.3406 140.564 95.3225C134.534 93.3044 130.132 86.9414 129.948 86.6718C129.868 86.5551 129.838 86.4116 129.865 86.2729C129.891 86.1343 129.971 86.0117 130.088 85.9322C130.204 85.8527 130.348 85.8229 130.487 85.8492C130.626 85.8754 130.748 85.9557 130.827 86.0723C130.87 86.1362 135.197 92.4105 140.901 94.3117C141.022 94.3501 141.126 94.4311 141.193 94.5397C141.26 94.6482 141.285 94.7772 141.265 94.9032C141.245 95.0291 141.18 95.1436 141.083 95.2258C140.985 95.308 140.862 95.3524 140.734 95.3509Z" fill="black"/>
<path d="M125.506 69.252C125.409 69.2522 125.315 69.2263 125.232 69.1769C125.149 69.1276 125.08 69.0567 125.034 68.9718C123.686 66.4393 123.442 64.3928 124.307 62.8854C125.556 60.7147 128.603 60.5764 128.734 60.5729C128.804 60.5695 128.873 60.5802 128.939 60.6042C129.005 60.6282 129.065 60.665 129.116 60.7126C129.167 60.7602 129.208 60.8175 129.237 60.8812C129.266 60.9449 129.282 61.0137 129.284 61.0836C129.288 61.2245 129.238 61.3616 129.142 61.4652C129.046 61.5688 128.913 61.6305 128.773 61.6369C128.741 61.6369 126.176 61.7646 125.226 63.4103C124.559 64.5773 124.811 66.2762 125.974 68.4611C126.006 68.5221 126.026 68.5889 126.033 68.6576C126.039 68.7262 126.032 68.7954 126.011 68.8613C125.991 68.9272 125.958 68.9884 125.914 69.0414C125.87 69.0945 125.815 69.1383 125.754 69.1704C125.68 69.2184 125.594 69.2465 125.506 69.252Z" fill="black"/>
<path d="M154.624 62.655C146.934 63.2367 137.301 58.5939 135.208 61.0271C133.116 63.4602 133.949 67.2199 137.879 68.6528C141.809 70.0857 145.845 70.5078 154.159 70.9725C162.473 71.4371 170.656 71.2739 170.312 66.7481C169.968 62.2223 165.935 61.8002 154.624 62.655Z" fill="#FFB49F"/>
<path d="M163.471 64.3047H163.418C160.105 63.9819 158.148 60.7365 158.066 60.5982C157.997 60.477 157.978 60.3334 158.014 60.1986C158.049 60.0637 158.137 59.9483 158.257 59.8771C158.377 59.806 158.52 59.7848 158.655 59.8182C158.791 59.8515 158.908 59.9368 158.981 60.0555C159.006 60.0945 160.754 62.9746 163.525 63.2477C163.666 63.2548 163.798 63.3176 163.893 63.4224C163.988 63.5271 164.037 63.6652 164.03 63.8063C164.023 63.9474 163.96 64.0799 163.855 64.1747C163.751 64.2695 163.612 64.3188 163.471 64.3118V64.3047Z" fill="black"/>
<path d="M155.413 76.4387C155.29 76.438 155.172 76.3954 155.077 76.3179C154.982 76.2405 154.917 76.1329 154.891 76.0131L152.359 63.8047C152.33 63.6664 152.357 63.5225 152.435 63.4044C152.512 63.2863 152.634 63.2039 152.772 63.1752C152.91 63.1465 153.054 63.1739 153.172 63.2514C153.29 63.3289 153.373 63.4501 153.402 63.5884L155.934 75.7967C155.949 75.8651 155.95 75.9358 155.937 76.0047C155.924 76.0735 155.898 76.1391 155.86 76.1978C155.821 76.2564 155.772 76.3069 155.714 76.3464C155.656 76.386 155.591 76.4137 155.523 76.428L155.413 76.4387Z" fill="black"/>
<path d="M122.302 74.4252C123.656 74.4252 124.753 73.3279 124.753 71.9743C124.753 70.6207 123.656 69.5234 122.302 69.5234C120.949 69.5234 119.852 70.6207 119.852 71.9743C119.852 73.3279 120.949 74.4252 122.302 74.4252Z" fill="#07ACEE"/>
<path d="M122.307 69.523C122.773 69.5227 123.23 69.6569 123.622 69.9097C124.069 70.1953 124.41 70.6178 124.596 71.1138C124.782 71.6099 124.802 72.1528 124.654 72.6614C124.505 73.1699 124.196 73.6165 123.772 73.9345C123.348 74.2524 122.833 74.4244 122.303 74.4248C121.836 74.4258 121.379 74.2915 120.987 74.0382C120.541 73.7526 120.199 73.3301 120.013 72.834C119.827 72.3379 119.807 71.7949 119.956 71.2864C120.104 70.7779 120.414 70.3312 120.838 70.0133C121.261 69.6954 121.777 69.5234 122.307 69.523ZM122.307 68.459C121.461 68.4584 120.643 68.763 120.003 69.3168C119.364 69.8706 118.945 70.6365 118.825 71.4739C118.704 72.3113 118.89 73.1641 119.348 73.8757C119.806 74.5872 120.505 75.1097 121.317 75.3473C122.129 75.585 122.999 75.5218 123.768 75.1694C124.537 74.8169 125.153 74.1989 125.504 73.4287C125.854 72.6586 125.914 71.788 125.674 70.9767C125.434 70.1654 124.91 69.468 124.197 69.0123C123.633 68.6507 122.977 68.4587 122.307 68.459Z" fill="black"/>
<path d="M142.356 68.7092C143.122 68.7092 143.742 68.0883 143.742 67.3224C143.742 66.5565 143.122 65.9355 142.356 65.9355C141.59 65.9355 140.969 66.5565 140.969 67.3224C140.969 68.0883 141.59 68.7092 142.356 68.7092Z" fill="black"/>
<path d="M161.395 69.9026C162.161 69.9026 162.782 69.2816 162.782 68.5157C162.782 67.7498 162.161 67.1289 161.395 67.1289C160.629 67.1289 160.008 67.7498 160.008 68.5157C160.008 69.2816 160.629 69.9026 161.395 69.9026Z" fill="black"/>
<path d="M149.894 86.1005C149.808 86.1005 149.724 86.0799 149.648 86.0404C149.572 86.0009 149.506 85.9437 149.457 85.8735C146.882 82.1919 139.193 82.4827 139.118 82.4898C139.048 82.4928 138.979 82.4821 138.913 82.4581C138.847 82.4342 138.787 82.3975 138.735 82.3502C138.684 82.303 138.642 82.246 138.612 82.1827C138.583 82.1193 138.566 82.0507 138.563 81.9808C138.56 81.9109 138.571 81.8412 138.595 81.7755C138.618 81.7098 138.655 81.6494 138.703 81.5979C138.75 81.5464 138.807 81.5046 138.87 81.475C138.934 81.4455 139.002 81.4288 139.072 81.4257C139.409 81.4257 147.418 81.1029 150.326 85.2634C150.367 85.3202 150.395 85.3846 150.411 85.4527C150.426 85.5207 150.427 85.5911 150.415 85.6598C150.403 85.7285 150.377 85.7941 150.339 85.8527C150.301 85.9113 150.252 85.9618 150.195 86.0012C150.108 86.0654 150.002 86.1002 149.894 86.1005Z" fill="black"/>
<path d="M144.242 62.436C144.172 62.4418 144.102 62.4338 144.035 62.4124C143.969 62.3911 143.907 62.3568 143.853 62.3115C143.8 62.2662 143.756 62.2108 143.723 62.1485C143.691 62.0862 143.672 62.0182 143.666 61.9483C143.66 61.8784 143.668 61.8081 143.689 61.7413C143.711 61.6746 143.745 61.6126 143.791 61.5591C143.836 61.5055 143.891 61.4615 143.953 61.4294C144.016 61.3973 144.084 61.3778 144.154 61.3719C144.196 61.3719 148.488 60.6058 148.946 57.9634C148.97 57.8223 149.05 57.6967 149.167 57.6142C149.284 57.5317 149.429 57.4991 149.57 57.5236C149.711 57.548 149.836 57.6276 149.919 57.7446C150.001 57.8617 150.034 58.0067 150.01 58.1478C149.421 61.528 144.551 62.4041 144.335 62.4218C144.305 62.4303 144.273 62.4351 144.242 62.436Z" fill="black"/>
<path d="M113.744 101.929C113.614 101.932 113.487 101.885 113.389 101.798C113.337 101.752 113.293 101.696 113.262 101.633C113.231 101.571 113.213 101.502 113.208 101.432C113.204 101.363 113.213 101.293 113.236 101.226C113.258 101.16 113.293 101.099 113.339 101.046C118.77 94.8426 124.296 81.4994 124.352 81.3646C124.378 81.2985 124.417 81.2383 124.466 81.1874C124.515 81.1365 124.574 81.0959 124.64 81.0681C124.705 81.0403 124.775 81.0257 124.846 81.0254C124.917 81.0251 124.987 81.0389 125.052 81.0661C125.118 81.0933 125.177 81.1332 125.227 81.1837C125.277 81.2341 125.316 81.294 125.342 81.3598C125.369 81.4256 125.382 81.4961 125.38 81.567C125.379 81.6378 125.364 81.7077 125.335 81.7725C125.108 82.3258 119.685 95.4102 114.141 101.748C114.091 101.805 114.03 101.85 113.962 101.881C113.893 101.912 113.819 101.929 113.744 101.929Z" fill="white"/>
<path d="M282.886 178.463C282.886 178.463 266.986 187.915 274.984 197.946C282.982 207.976 295.591 199.989 295.655 188.391C295.719 176.792 286.72 172.235 282.429 167.766" fill="#FFCDB2"/>
<path d="M283.479 203.063C280.195 203.063 277.066 201.418 274.569 198.289C272.594 195.806 271.852 193.153 272.356 190.38C273.626 183.435 282.248 178.235 282.614 178.019C282.674 177.982 282.74 177.957 282.81 177.946C282.88 177.935 282.952 177.938 283.02 177.955C283.089 177.972 283.153 178.002 283.21 178.045C283.267 178.087 283.315 178.14 283.351 178.2C283.387 178.261 283.41 178.329 283.42 178.398C283.43 178.468 283.425 178.54 283.407 178.608C283.389 178.676 283.358 178.74 283.315 178.796C283.271 178.852 283.218 178.899 283.156 178.934C283.071 178.984 274.584 184.105 273.402 190.575C272.956 193.029 273.629 195.402 275.403 197.626C278.464 201.464 282.539 202.861 286.583 201.46C291.58 199.726 295.095 194.366 295.123 188.401C295.17 179.48 289.682 174.816 285.274 171.071C284.085 170.06 282.961 169.102 282.043 168.148C281.945 168.046 281.891 167.909 281.894 167.768C281.897 167.627 281.957 167.492 282.059 167.394C282.161 167.297 282.297 167.243 282.439 167.246C282.58 167.249 282.715 167.308 282.812 167.41C283.692 168.329 284.795 169.265 285.965 170.248C290.541 174.149 296.251 178.98 296.188 188.393C296.152 194.778 292.346 200.573 286.93 202.453C285.822 202.848 284.656 203.055 283.479 203.063Z" fill="black"/>
<path d="M284.849 159.981C284.849 159.981 268.949 169.433 276.95 179.463C284.952 189.494 297.558 181.506 297.622 169.908C297.685 158.31 288.687 153.752 284.392 149.283" fill="#FFCDB2"/>
<path d="M285.445 184.567C282.157 184.567 279.033 182.924 276.536 179.792C274.56 177.31 273.815 174.657 274.322 171.886C275.588 164.938 284.211 159.742 284.58 159.522C284.701 159.453 284.845 159.434 284.979 159.47C285.114 159.506 285.23 159.593 285.301 159.713C285.372 159.833 285.393 159.976 285.36 160.112C285.326 160.247 285.241 160.364 285.122 160.437C285.037 160.49 276.546 165.608 275.369 172.078C274.922 174.532 275.592 176.905 277.365 179.129C280.43 182.97 284.502 184.364 288.545 182.963C293.543 181.229 297.058 175.87 297.09 169.904C297.136 160.987 291.649 156.323 287.24 152.574C286.052 151.563 284.928 150.609 284.009 149.651C283.91 149.551 283.855 149.416 283.855 149.275C283.855 149.135 283.91 148.999 284.009 148.899C284.058 148.85 284.117 148.81 284.181 148.783C284.246 148.756 284.315 148.742 284.385 148.742C284.455 148.742 284.524 148.756 284.588 148.783C284.653 148.81 284.712 148.85 284.761 148.899C285.644 149.818 286.747 150.754 287.914 151.737C292.493 155.638 298.2 160.469 298.14 169.886C298.104 176.27 294.298 182.066 288.879 183.946C287.777 184.343 286.616 184.553 285.445 184.567Z" fill="black"/>
<path d="M283.855 144.366C283.855 144.366 267.954 153.815 275.953 163.846C283.951 173.876 296.56 165.889 296.624 154.291C296.688 142.692 289.058 142.841 283.543 141.486" fill="#FFCDB2"/>
<path d="M284.445 168.953C281.161 168.953 278.032 167.308 275.535 164.179C273.56 161.696 272.815 159.043 273.322 156.27C274.592 149.321 283.214 144.125 283.58 143.909C283.64 143.872 283.707 143.847 283.777 143.836C283.846 143.825 283.917 143.828 283.986 143.845C284.055 143.862 284.119 143.892 284.176 143.934C284.233 143.977 284.28 144.03 284.317 144.09C284.353 144.151 284.376 144.218 284.386 144.288C284.396 144.358 284.391 144.43 284.373 144.498C284.355 144.566 284.324 144.63 284.28 144.686C284.237 144.742 284.184 144.789 284.122 144.824C284.037 144.874 275.549 149.992 274.368 156.465C273.921 158.919 274.596 161.292 276.369 163.516C279.43 167.354 283.505 168.751 287.545 167.347C292.546 165.616 296.057 160.253 296.089 154.291C296.139 144.601 290.79 143.522 285.612 142.479C284.846 142.323 284.122 142.178 283.413 142.004C283.343 141.99 283.276 141.961 283.217 141.92C283.159 141.88 283.109 141.827 283.071 141.767C283.032 141.706 283.007 141.639 282.995 141.568C282.984 141.497 282.987 141.425 283.004 141.355C283.021 141.286 283.052 141.221 283.096 141.163C283.139 141.106 283.193 141.058 283.255 141.022C283.317 140.987 283.385 140.964 283.456 140.955C283.528 140.946 283.6 140.952 283.668 140.972C284.357 141.139 285.069 141.284 285.825 141.437C290.897 142.458 297.21 143.728 297.153 154.294C297.118 160.678 293.312 166.474 287.896 168.354C286.788 168.745 285.621 168.948 284.445 168.953Z" fill="black"/>
<path d="M283.509 196.848C283.367 196.848 283.232 196.792 283.132 196.693C283.033 196.593 282.977 196.458 282.977 196.316C282.977 196.175 283.033 196.04 283.132 195.94C283.232 195.841 283.367 195.784 283.509 195.784C283.895 195.784 293.046 195.543 293.568 184.293C293.577 184.152 293.64 184.021 293.744 183.927C293.847 183.832 293.984 183.781 294.124 183.785C294.265 183.793 294.397 183.855 294.492 183.96C294.587 184.064 294.637 184.201 294.632 184.342C294.061 196.618 283.636 196.848 283.516 196.848H283.509Z" fill="white"/>
<path d="M284.414 182.43C284.273 182.44 284.134 182.393 284.027 182.3C283.92 182.208 283.855 182.076 283.845 181.935C283.835 181.794 283.881 181.655 283.974 181.548C284.067 181.441 284.199 181.376 284.34 181.366C284.694 181.313 293.537 179.947 295.108 170.094C295.119 170.024 295.144 169.957 295.18 169.897C295.217 169.836 295.266 169.784 295.323 169.742C295.38 169.7 295.445 169.67 295.513 169.654C295.582 169.637 295.653 169.634 295.723 169.645C295.793 169.656 295.86 169.681 295.921 169.718C295.981 169.754 296.033 169.803 296.075 169.86C296.117 169.917 296.147 169.982 296.163 170.051C296.18 170.119 296.183 170.191 296.172 170.261C294.47 180.901 284.599 182.405 284.499 182.419L284.414 182.43Z" fill="white"/>
<path d="M281.831 164.371H281.717C281.648 164.368 281.579 164.352 281.515 164.323C281.451 164.294 281.394 164.253 281.346 164.202C281.299 164.151 281.262 164.091 281.237 164.026C281.212 163.96 281.201 163.891 281.203 163.821C281.205 163.751 281.221 163.682 281.249 163.618C281.278 163.555 281.32 163.497 281.371 163.45C281.422 163.402 281.482 163.365 281.548 163.341C281.613 163.317 281.683 163.307 281.753 163.31C282.207 163.31 292.787 163.555 294.227 152.829C294.237 152.759 294.26 152.692 294.295 152.631C294.33 152.57 294.378 152.516 294.433 152.474C294.489 152.431 294.553 152.399 294.621 152.381C294.689 152.363 294.761 152.359 294.83 152.368C294.9 152.377 294.968 152.4 295.029 152.436C295.09 152.471 295.143 152.518 295.186 152.574C295.229 152.63 295.26 152.694 295.278 152.762C295.296 152.83 295.301 152.901 295.291 152.971C293.795 164.048 283.062 164.371 281.831 164.371Z" fill="white"/>
<path d="M302.182 155.106C302.134 155.107 302.087 155.101 302.04 155.088C301.907 155.047 301.795 154.955 301.729 154.832C301.662 154.71 301.647 154.566 301.686 154.432C303.431 148.242 301.976 143.082 297.365 139.088C295.125 137.202 292.542 135.766 289.758 134.86C289.687 134.845 289.62 134.815 289.561 134.772C289.502 134.73 289.452 134.676 289.415 134.613C289.378 134.551 289.354 134.482 289.344 134.41C289.335 134.338 289.34 134.265 289.36 134.195C289.38 134.125 289.414 134.06 289.46 134.004C289.506 133.948 289.563 133.901 289.627 133.868C289.692 133.835 289.762 133.815 289.835 133.81C289.907 133.805 289.98 133.815 290.048 133.839C290.222 133.885 307.165 138.925 302.711 154.719C302.678 154.833 302.608 154.933 302.512 155.003C302.417 155.073 302.3 155.109 302.182 155.106Z" fill="black"/>
</svg>
