<svg width="295" height="280" viewBox="0 0 295 280" fill="none" xmlns="http://www.w3.org/2000/svg">
<path d="M125.484 91.8043C125.484 91.8043 137.597 99.2042 141.036 89.3366C144.474 79.4689 151.639 58.2852 167.129 62.24C182.619 66.1949 184.138 69.1851 190.477 59.8884C196.816 50.5918 236.564 55.2466 226.586 85.1786C210.241 134.23 120.781 121.681 120.781 121.681L119.668 109.904L125.484 91.8043Z" fill="#382256"/>
<path d="M202.805 55.5798C216.053 55.5798 233.595 64.1313 226.585 85.1666C215.772 117.615 172.963 123.108 145.224 123.108C131.031 123.108 120.789 121.67 120.789 121.67L119.677 109.892L125.483 91.8053C125.483 91.8053 129.844 94.4698 134.073 94.4698C136.896 94.4698 139.657 93.2859 141.034 89.3375C144.186 80.3054 150.466 61.7442 163.421 61.7442C164.672 61.7502 165.917 61.9128 167.128 62.2281C175.063 64.2442 179.331 66.0184 182.46 66.0184C185.44 66.0184 187.385 64.4055 190.476 59.8894C192.363 57.1249 197.201 55.5927 202.805 55.5927V55.5798ZM202.805 54.625C196.598 54.625 191.692 56.3895 189.679 59.3443C186.689 63.7281 185.002 65.0636 182.46 65.0636C180.611 65.0636 178.15 64.3443 174.744 63.3475C172.65 62.7346 170.279 62.0572 167.366 61.3023C166.078 60.9676 164.752 60.7953 163.421 60.7894C157.553 60.7894 152.324 64.3636 147.883 71.412C144.254 77.1635 141.844 84.0796 140.25 88.6569L140.121 89.0343C139.07 92.0472 137.092 93.515 134.073 93.515C130.16 93.515 126.028 91.0182 125.986 90.9924C125.834 90.8998 125.66 90.8507 125.483 90.8505C125.367 90.8505 125.252 90.8713 125.144 90.9118C125.007 90.9627 124.883 91.044 124.782 91.1496C124.681 91.2552 124.605 91.3823 124.56 91.5214L118.754 109.608C118.713 109.733 118.699 109.865 118.712 109.995L119.821 121.776C119.842 121.993 119.935 122.196 120.085 122.354C120.236 122.511 120.435 122.613 120.651 122.644C128.803 123.634 137.009 124.116 145.221 124.089C157.879 124.089 176.366 122.899 192.569 117.231C210.859 110.834 222.614 100.15 227.501 85.486C228.914 81.2473 229.437 77.2764 229.011 73.6796C228.666 70.4669 227.492 67.3991 225.605 64.7765C223.24 61.4927 219.669 58.8153 215.282 57.0346C211.311 55.4545 207.078 54.638 202.805 54.6282V54.625Z" fill="black"/>
<path d="M207.695 108.879C163.251 96.4595 125.816 114.227 125.816 114.227C125.071 116.811 124.933 119.532 125.412 122.179C139.344 123.514 181.615 125.853 207.695 108.879Z" fill="#050505"/>
<path d="M206.818 82.776C206.706 82.7764 206.596 82.7377 206.509 82.6665C206.422 82.5953 206.363 82.496 206.341 82.3857C206.319 82.2754 206.337 82.161 206.39 82.0621C206.444 81.9632 206.53 81.8859 206.634 81.8437C239.789 68.4793 252.643 47.1053 257.601 31.5215C262.966 14.6281 260.46 0.712163 260.434 0.573454C260.422 0.511159 260.422 0.447091 260.435 0.384917C260.447 0.322743 260.472 0.263668 260.508 0.211185C260.544 0.158701 260.589 0.11383 260.643 0.0791136C260.696 0.0443973 260.755 0.0205495 260.817 0.00894348C260.88 -0.00322987 260.944 -0.00298424 261.007 0.00973102C261.069 0.0224463 261.128 0.0473906 261.181 0.0830513C261.234 0.118712 261.279 0.164407 261.314 0.217564C261.349 0.27072 261.373 0.330264 261.385 0.392792C261.411 0.534726 263.966 14.654 258.54 31.7699C255.35 41.8287 250.001 51.0695 242.869 58.8471C233.866 68.7309 221.802 76.7663 207.008 82.7178C206.949 82.7491 206.885 82.7688 206.818 82.776Z" fill="black"/>
<path d="M204.789 72.9728C204.676 72.9729 204.567 72.9335 204.48 72.8613C204.393 72.7891 204.334 72.6887 204.313 72.5775C204.292 72.4664 204.311 72.3515 204.366 72.2528C204.421 72.1541 204.509 72.0779 204.615 72.0373C218.302 66.7858 226.115 55.6987 227.841 39.086C229.131 26.6409 226.324 15.5959 226.295 15.4862C226.275 15.4235 226.268 15.3574 226.275 15.2919C226.281 15.2265 226.301 15.163 226.333 15.1054C226.365 15.0478 226.408 14.9973 226.46 14.957C226.512 14.9167 226.572 14.8874 226.635 14.8709C226.699 14.8544 226.765 14.8511 226.83 14.8611C226.895 14.8712 226.958 14.8945 227.013 14.9294C227.069 14.9644 227.117 15.0103 227.154 15.0644C227.192 15.1185 227.218 15.1798 227.231 15.2443C227.26 15.354 230.112 26.5345 228.808 39.1602C228.041 46.5795 226.002 53.0633 222.757 58.3955C218.686 65.0793 212.699 69.9729 204.967 72.9406C204.91 72.9626 204.85 72.9735 204.789 72.9728Z" fill="black"/>
<path d="M270.145 274.94L29.8248 273.814C29.6537 273.814 29.4897 273.746 29.3687 273.625C29.2477 273.504 29.1797 273.34 29.1797 273.169C29.1797 272.997 29.2477 272.833 29.3687 272.712C29.4897 272.591 29.6537 272.523 29.8248 272.523L270.145 273.649C270.316 273.649 270.481 273.717 270.602 273.838C270.723 273.959 270.79 274.123 270.79 274.294C270.79 274.465 270.723 274.63 270.602 274.751C270.481 274.872 270.316 274.94 270.145 274.94Z" fill="black"/>
<path d="M35.8997 280.001H0.483867C0.355537 280.001 0.2325 279.95 0.141758 279.859C0.0510152 279.769 0 279.645 0 279.517C0 279.389 0.0510152 279.266 0.141758 279.175C0.2325 279.084 0.355537 279.033 0.483867 279.033H35.8997C36.028 279.033 36.1511 279.084 36.2418 279.175C36.3325 279.266 36.3836 279.389 36.3836 279.517C36.3836 279.645 36.3325 279.769 36.2418 279.859C36.1511 279.95 36.028 280.001 35.8997 280.001Z" fill="black"/>
<path d="M294.143 265.466H258.73C258.602 265.466 258.479 265.415 258.388 265.324C258.297 265.233 258.246 265.11 258.246 264.982C258.246 264.854 258.297 264.731 258.388 264.64C258.479 264.549 258.602 264.498 258.73 264.498H294.146C294.274 264.498 294.397 264.549 294.488 264.64C294.579 264.731 294.63 264.854 294.63 264.982C294.63 265.11 294.579 265.233 294.488 265.324C294.397 265.415 294.274 265.466 294.146 265.466H294.143Z" fill="black"/>
<path d="M97.9797 126.979C114.202 122.485 213.579 140.459 220.001 149.446C226.424 158.433 177.63 272.255 167.272 272.255C155.44 272.255 70.5992 272.255 53.022 272.632C37.5931 272.955 26.3191 231.071 31.3901 221.342C36.461 211.614 73.9703 132.976 86.4863 131.479C99.0023 129.982 97.9797 126.979 97.9797 126.979Z" fill="#07ACEE"/>
<path d="M52.8446 273.119C48.3285 273.119 43.8123 269.68 39.7704 263.154C31.964 250.593 27.2707 228.197 30.961 221.113C31.5739 219.935 32.6448 217.781 34.1319 214.8C51.7511 179.4 76.3442 132.198 86.4279 130.991C94.4698 130.023 96.6958 128.481 97.3055 127.646C97.4425 127.499 97.5165 127.305 97.5118 127.104C97.4824 127.047 97.4671 126.984 97.4671 126.92C97.4671 126.856 97.4824 126.793 97.5118 126.736C97.5454 126.677 97.5918 126.627 97.6476 126.588C97.7035 126.55 97.7674 126.524 97.8344 126.514C106.379 124.146 136.589 127.904 162.737 132.681C187.069 137.127 216.765 144.107 220.378 149.162C223.298 153.249 215.685 175.41 210.885 188.258C203.485 208.071 193.492 230.864 184.808 247.745C176.276 264.329 170.369 272.738 167.256 272.738C144.579 272.738 69.3219 272.767 53.0188 273.116L52.8446 273.119ZM98.4667 127.352C98.4238 127.609 98.3282 127.854 98.186 128.072C97.0763 129.833 93.0506 131.172 86.5442 131.943C83.4281 132.317 76.4345 138.52 60.8089 165.959C50.538 184 40.4284 204.31 35.0026 215.223C33.5155 218.206 32.4415 220.365 31.8254 221.548C28.5609 227.819 32.2996 249.29 40.5995 262.635C43.335 267.035 47.6963 272.251 53.0188 272.138C69.3315 271.79 144.599 271.761 167.279 271.761C168.511 271.761 172.608 269.377 183.969 247.29C192.637 230.442 202.611 207.69 210.001 187.91C217.933 166.671 221.527 152.394 219.614 149.717C216.824 145.81 193.905 139.343 162.586 133.623C136.899 128.943 107.331 125.223 98.4667 127.352Z" fill="black"/>
<path d="M201.578 161.218C201.578 161.218 95.4497 159.192 92.0626 162.569C90.5239 164.111 89.6948 198.737 88.3432 223.075C86.7013 252.656 64.0078 272.43 64.0078 272.43H106.588L201.578 161.218Z" fill="#0598C6"/>
<path d="M83.0991 130.967C65.1863 147.867 50.6028 148.883 19.045 218.005C6.50964 245.469 19.045 261.946 27.8353 267.017C36.6255 272.088 74.1411 279.524 83.9443 256.201L93.4086 255.879L96.1118 229.176H88.6925C88.6925 229.176 87.0025 218.36 73.1445 217.682C59.2866 217.005 43.7381 224.456 40.6962 225.456" fill="#07ACEE"/>
<path d="M53.3233 272.772C42.4459 272.772 31.9655 269.959 27.5945 267.437C25.4913 266.224 18.3718 261.459 14.9847 251.06C11.8364 241.382 13.0881 229.892 18.6074 217.805C44.0523 162.064 58.5361 150.486 72.5425 139.293C75.8586 136.641 79.2873 133.899 82.7679 130.615C82.8617 130.53 82.9852 130.486 83.1116 130.491C83.2381 130.496 83.3577 130.55 83.4446 130.642C83.5315 130.734 83.5788 130.856 83.5766 130.983C83.5743 131.109 83.5228 131.23 83.4326 131.319C79.923 134.632 76.478 137.386 73.1457 140.048C59.2297 151.173 44.8393 162.676 19.4879 218.208C14.0041 230.24 12.7881 241.192 15.9042 250.76C19.1849 260.83 26.0526 265.43 28.0784 266.598C34.388 270.24 53.7037 274.492 68.1294 269.634C75.5842 267.121 80.7584 262.537 83.5004 256.014C83.5357 255.929 83.595 255.855 83.6711 255.803C83.7472 255.75 83.8369 255.72 83.9294 255.718L92.9616 255.395L95.568 229.644H88.6679C88.5526 229.643 88.441 229.602 88.3535 229.527C88.266 229.452 88.2083 229.348 88.1906 229.234C88.1229 228.808 86.3777 218.799 73.0972 218.15C61.5102 217.592 48.6298 222.782 43.1331 225.002C42.075 225.431 41.3137 225.737 40.8234 225.902C40.763 225.923 40.6989 225.932 40.635 225.928C40.5711 225.925 40.5087 225.909 40.451 225.881C40.3934 225.853 40.3419 225.815 40.2992 225.767C40.2565 225.719 40.2237 225.664 40.2025 225.603C40.1813 225.543 40.1722 225.479 40.1757 225.415C40.1792 225.351 40.1952 225.289 40.223 225.231C40.2507 225.173 40.2893 225.122 40.337 225.079C40.3847 225.036 40.4404 225.004 40.5008 224.982C40.9621 224.831 41.7524 224.511 42.7588 224.105C48.3136 221.863 61.3262 216.608 73.1294 217.186C85.6679 217.795 88.5488 226.653 89.0456 228.676H96.0907C96.1583 228.676 96.225 228.69 96.2869 228.718C96.3488 228.745 96.4042 228.785 96.4498 228.835C96.4953 228.885 96.5301 228.944 96.5515 229.009C96.573 229.073 96.5808 229.141 96.5745 229.208L93.8679 255.911C93.8562 256.028 93.8027 256.136 93.7173 256.216C93.6319 256.296 93.5206 256.342 93.4035 256.347L84.2488 256.669C81.3456 263.311 76.0392 267.979 68.4167 270.54C63.7167 272.14 58.4748 272.772 53.3233 272.772Z" fill="black"/>
<path d="M82.6016 258.152C82.737 250.281 87.1176 236.139 89.1369 229.949H95.4467L92.8853 255.236L83.9209 255.559C83.5433 256.453 83.1025 257.32 82.6016 258.152Z" fill="#0598C6"/>
<path d="M98.062 242.334C98.062 242.334 111.368 250.788 104.297 259.13C97.2265 267.472 86.6879 260.35 86.9299 250.466C87.1718 240.582 94.9526 236.918 98.7235 233.23" fill="#FFCDB2"/>
<path d="M97.181 263.297C96.0916 263.293 95.0123 263.089 93.9971 262.694C89.4165 260.952 86.3132 255.92 86.4455 250.452C86.6422 242.417 91.6261 238.433 95.626 235.23C96.6486 234.414 97.613 233.643 98.384 232.885C98.4288 232.838 98.4826 232.8 98.5421 232.774C98.6017 232.748 98.6659 232.735 98.7308 232.734C98.7958 232.734 98.8602 232.747 98.9202 232.771C98.9801 232.796 99.0344 232.833 99.0799 232.879C99.1254 232.926 99.161 232.981 99.1848 233.041C99.2085 233.102 99.2199 233.166 99.2182 233.231C99.2165 233.296 99.2016 233.36 99.1747 233.419C99.1478 233.478 99.1095 233.531 99.0616 233.575C98.2552 234.368 97.2711 235.156 96.2324 235.988C92.3873 239.062 87.6003 242.891 87.4132 250.478C87.2906 255.539 90.1389 260.191 94.3389 261.791C97.7356 263.081 101.229 262 103.929 258.817C105.491 256.975 106.119 254.978 105.803 252.884C104.965 247.359 97.8745 242.788 97.8003 242.743C97.7448 242.709 97.6964 242.665 97.6582 242.613C97.62 242.561 97.5925 242.502 97.5776 242.439C97.5626 242.376 97.5605 242.311 97.5713 242.247C97.582 242.183 97.6055 242.122 97.6402 242.067C97.675 242.013 97.7203 241.966 97.7735 241.929C97.8267 241.892 97.8869 241.867 97.9502 241.854C98.0136 241.84 98.0789 241.84 98.1424 241.853C98.2058 241.865 98.2662 241.89 98.3197 241.926C98.6423 242.12 105.852 246.765 106.758 252.736C107.123 255.12 106.416 257.378 104.665 259.442C102.52 261.975 99.9003 263.297 97.181 263.297Z" fill="black"/>
<path d="M96.8552 226.541C96.8552 226.541 110.161 234.995 103.09 243.337C96.0195 251.679 85.4809 244.553 85.7228 234.673C85.9648 224.792 93.7455 221.125 97.5165 217.438" fill="#FFCDB2"/>
<path d="M95.9739 247.504C94.8847 247.499 93.8057 247.295 92.79 246.901C88.2094 245.156 85.1062 240.127 85.2384 234.659C85.4352 226.624 90.4193 222.637 94.4225 219.437C95.4418 218.621 96.4031 217.85 97.1773 217.092C97.2221 217.045 97.2758 217.007 97.3354 216.981C97.395 216.955 97.4589 216.942 97.5238 216.941C97.5887 216.941 97.6532 216.953 97.7131 216.978C97.7731 217.003 97.8274 217.04 97.8728 217.086C97.9183 217.133 97.954 217.188 97.9777 217.248C98.0015 217.309 98.0129 217.373 98.0111 217.438C98.0094 217.503 97.9949 217.567 97.968 217.626C97.9411 217.685 97.9024 217.738 97.8546 217.782C97.0481 218.576 96.0641 219.359 95.0254 220.192C91.1803 223.269 86.3933 227.098 86.2062 234.682C86.0836 239.743 88.9322 244.398 93.1321 245.995C96.5289 247.285 100.022 246.204 102.722 243.024C104.283 241.182 104.913 239.185 104.597 237.091C103.758 231.562 96.6674 226.992 96.5932 226.946C96.5377 226.913 96.4894 226.869 96.4512 226.817C96.4129 226.765 96.3858 226.706 96.3708 226.643C96.3559 226.58 96.3538 226.514 96.3645 226.451C96.3753 226.387 96.3985 226.326 96.4332 226.271C96.4679 226.217 96.5132 226.17 96.5665 226.133C96.6197 226.096 96.6799 226.07 96.7432 226.057C96.8065 226.044 96.8719 226.044 96.9354 226.056C96.9988 226.069 97.0591 226.094 97.1127 226.13C97.4353 226.327 104.645 230.969 105.551 236.943C105.916 239.327 105.209 241.582 103.458 243.649C101.309 246.182 98.6933 247.504 95.9739 247.504Z" fill="black"/>
<path d="M98.1049 213.263C98.1049 213.263 111.411 221.718 104.34 230.059C97.2695 238.401 86.7309 231.276 86.9728 221.395C87.2148 211.515 92.2276 211.753 96.9728 210.75" fill="#FFCDB2"/>
<path d="M97.2239 234.228C96.1347 234.222 95.0557 234.018 94.04 233.624C89.4594 231.879 86.3562 226.85 86.4884 221.383C86.7142 212.157 91.1109 211.344 95.3625 210.557C95.856 210.466 96.3627 210.373 96.8594 210.266C96.9823 210.246 97.1082 210.273 97.2113 210.343C97.3144 210.413 97.3867 210.52 97.4129 210.642C97.4391 210.764 97.417 210.891 97.3518 210.997C97.2866 211.103 97.1831 211.18 97.0626 211.212C96.553 211.321 96.0369 211.415 95.5402 211.508C91.3144 212.289 87.6626 212.966 87.4562 221.405C87.3336 226.466 90.1819 231.118 94.3818 232.718C97.7786 234.008 101.272 232.928 103.969 229.747C105.534 227.902 106.162 225.905 105.843 223.812C105.004 218.279 97.9142 213.715 97.8432 213.67C97.7877 213.637 97.7394 213.592 97.7012 213.54C97.6629 213.488 97.6358 213.429 97.6208 213.366C97.6059 213.303 97.6038 213.238 97.6145 213.174C97.6253 213.11 97.6485 213.049 97.6832 212.995C97.7179 212.94 97.7632 212.893 97.8165 212.856C97.8697 212.819 97.9299 212.794 97.9932 212.781C98.0565 212.767 98.1219 212.767 98.1854 212.78C98.2488 212.792 98.3091 212.817 98.3627 212.854C98.6692 213.047 105.895 217.692 106.801 223.666C107.162 226.05 106.459 228.305 104.708 230.373C102.563 232.905 99.9433 234.228 97.2239 234.228Z" fill="black"/>
<path d="M97.0756 258.014H97.0561C96.9658 258.014 88.05 257.549 87.879 247.046C87.8777 246.983 87.8889 246.92 87.9121 246.86C87.9352 246.801 87.9698 246.747 88.0138 246.701C88.0579 246.655 88.1103 246.619 88.1685 246.593C88.2267 246.568 88.2896 246.554 88.3531 246.553C88.4801 246.554 88.6017 246.604 88.6921 246.693C88.7824 246.782 88.8345 246.903 88.837 247.03C88.995 256.598 96.7564 257.03 97.0854 257.046C97.1489 257.047 97.2115 257.061 97.2697 257.087C97.3279 257.112 97.3806 257.149 97.4247 257.195C97.4687 257.241 97.5033 257.295 97.5264 257.354C97.5496 257.413 97.5608 257.476 97.5595 257.54C97.5582 257.603 97.5443 257.666 97.5189 257.724C97.4934 257.782 97.4566 257.835 97.4108 257.879C97.365 257.923 97.3109 257.958 97.2517 257.981C97.1925 258.004 97.1294 258.015 97.0659 258.014H97.0756Z" fill="white"/>
<path d="M96.672 245.708C96.6452 245.711 96.6182 245.711 96.5914 245.708C96.5043 245.708 88.1108 244.156 86.9141 235.028C86.906 234.964 86.9104 234.899 86.9273 234.838C86.9442 234.776 86.9731 234.718 87.0123 234.667C87.0916 234.565 87.2082 234.499 87.3365 234.482C87.4648 234.466 87.5943 234.502 87.6966 234.581C87.7988 234.66 87.8655 234.777 87.8818 234.905C88.9721 243.311 96.4302 244.702 96.7495 244.756C96.8779 244.768 96.9965 244.829 97.0794 244.928C97.1622 245.026 97.2026 245.154 97.1915 245.282C97.1804 245.411 97.1187 245.529 97.0201 245.612C96.9215 245.695 96.7937 245.735 96.6654 245.724L96.672 245.708Z" fill="white"/>
<path d="M99.4178 230.384C99.2372 230.384 89.1598 230.29 88.1276 220.3C88.1143 220.172 88.1527 220.043 88.234 219.943C88.3154 219.843 88.433 219.78 88.5614 219.766C88.6897 219.753 88.8181 219.791 88.9183 219.873C89.0184 219.954 89.082 220.072 89.0953 220.2C90.0405 229.284 98.9178 229.416 99.4178 229.416C99.5461 229.416 99.6692 229.467 99.7599 229.558C99.8506 229.649 99.9017 229.772 99.9017 229.9C99.9017 230.028 99.8506 230.151 99.7599 230.242C99.6692 230.333 99.5461 230.384 99.4178 230.384Z" fill="white"/>
<path d="M109.131 121.842C109.131 121.842 130.099 141.784 100.341 138.403C100.341 138.403 94.2574 148.206 83.78 142.8C73.3027 137.393 78.0315 127.587 85.4701 125.222C91.9184 123.168 109.131 121.842 109.131 121.842Z" fill="white"/>
<path d="M89.912 144.902C87.6896 144.865 85.5092 144.291 83.5572 143.228C79.1733 140.97 76.9281 137.673 77.2442 133.96C77.5829 129.951 80.9022 126.167 85.3087 124.76C91.7376 122.715 108.376 121.412 109.08 121.357C109.147 121.351 109.215 121.36 109.279 121.383C109.343 121.406 109.402 121.442 109.451 121.489C109.831 121.854 118.776 130.451 116.35 135.647C114.876 138.802 109.576 139.902 100.563 138.915C99.744 140.096 95.9732 144.902 89.912 144.902ZM108.944 122.341C106.925 122.502 91.5249 123.793 85.6089 125.683C81.6186 126.951 78.5122 130.467 78.1896 134.044C77.9089 137.341 79.967 140.296 83.996 142.367C88.1895 144.525 92.1282 144.476 95.7282 142.218C97.3886 141.161 98.8155 139.776 99.9217 138.147C99.969 138.069 100.038 138.006 100.12 137.966C100.203 137.926 100.295 137.91 100.386 137.921C108.983 138.889 114.199 137.97 115.476 135.238C117.463 131.005 110.115 123.493 108.95 122.341H108.944Z" fill="black"/>
<path d="M131.629 142.717C132.948 142.717 134.016 141.649 134.016 140.33C134.016 139.012 132.948 137.943 131.629 137.943C130.311 137.943 129.242 139.012 129.242 140.33C129.242 141.649 130.311 142.717 131.629 142.717Z" fill="#51CEF4"/>
<path d="M75.1841 156.575C76.5024 156.575 77.5713 155.506 77.5713 154.188C77.5713 152.869 76.5024 151.801 75.1841 151.801C73.8657 151.801 72.7969 152.869 72.7969 154.188C72.7969 155.506 73.8657 156.575 75.1841 156.575Z" fill="#51CEF4"/>
<path d="M50.5044 190.718C51.8227 190.718 52.8916 189.649 52.8916 188.33C52.8916 187.012 51.8227 185.943 50.5044 185.943C49.186 185.943 48.1172 187.012 48.1172 188.33C48.1172 189.649 49.186 190.718 50.5044 190.718Z" fill="#51CEF4"/>
<path d="M72.813 205.589C74.1313 205.589 75.1999 204.52 75.1999 203.201C75.1999 201.883 74.1313 200.814 72.813 200.814C71.4946 200.814 70.4258 201.883 70.4258 203.201C70.4258 204.52 71.4946 205.589 72.813 205.589Z" fill="#51CEF4"/>
<path d="M25.1528 218.432C26.4712 218.432 27.5397 217.364 27.5397 216.045C27.5397 214.727 26.4712 213.658 25.1528 213.658C23.8345 213.658 22.7656 214.727 22.7656 216.045C22.7656 217.364 23.8345 218.432 25.1528 218.432Z" fill="#51CEF4"/>
<path d="M48.1411 256.968C49.4595 256.968 50.5283 255.899 50.5283 254.58C50.5283 253.262 49.4595 252.193 48.1411 252.193C46.8228 252.193 45.7539 253.262 45.7539 254.58C45.7539 255.899 46.8228 256.968 48.1411 256.968Z" fill="#51CEF4"/>
<path d="M70.4497 238.376C71.768 238.376 72.8369 237.307 72.8369 235.989C72.8369 234.67 71.768 233.602 70.4497 233.602C69.1314 233.602 68.0625 234.67 68.0625 235.989C68.0625 237.307 69.1314 238.376 70.4497 238.376Z" fill="#51CEF4"/>
<path d="M75.1841 260.684C76.5024 260.684 77.5713 259.616 77.5713 258.297C77.5713 256.979 76.5024 255.91 75.1841 255.91C73.8657 255.91 72.7969 256.979 72.7969 258.297C72.7969 259.616 73.8657 260.684 75.1841 260.684Z" fill="#51CEF4"/>
<path d="M40.8491 230.49C40.74 230.491 40.634 230.454 40.5482 230.387C40.4625 230.319 40.402 230.225 40.3766 230.119C40.3512 230.013 40.3624 229.901 40.4084 229.803C40.4543 229.704 40.5321 229.623 40.6295 229.574C54.0359 222.8 65.0586 219.897 73.4005 220.906C79.7359 221.684 82.0357 224.516 82.1293 224.635C82.2093 224.736 82.2462 224.864 82.2317 224.992C82.2171 225.119 82.1523 225.236 82.0518 225.316C81.9513 225.396 81.8231 225.433 81.6955 225.418C81.5678 225.404 81.4513 225.339 81.3713 225.239C81.3488 225.21 79.1519 222.552 73.1519 221.852C67.5584 221.206 57.4521 222.174 41.0683 230.439C41.0003 230.473 40.9252 230.49 40.8491 230.49Z" fill="white"/>
<path d="M42.8777 198.714C42.7662 198.714 42.6579 198.675 42.5715 198.605C42.4851 198.534 42.4256 198.436 42.4033 198.327C39.242 182.869 43.6487 160.724 47.9035 144.869C50.7259 134.375 54.0882 124.033 57.9774 113.885C57.9979 113.822 58.031 113.764 58.0748 113.715C58.1186 113.665 58.1723 113.625 58.2323 113.597C58.2923 113.568 58.3573 113.553 58.4235 113.551C58.4897 113.549 58.5557 113.561 58.6172 113.585C58.6788 113.61 58.7344 113.647 58.7811 113.694C58.8277 113.741 58.8644 113.797 58.8885 113.859C58.9126 113.92 58.9237 113.986 58.9212 114.052C58.9188 114.119 58.9029 114.184 58.8743 114.243C58.6582 114.789 37.3648 168.872 43.3518 198.133C43.3645 198.195 43.3649 198.259 43.3528 198.322C43.3407 198.384 43.3163 198.444 43.2813 198.497C43.2462 198.55 43.2013 198.595 43.1486 198.631C43.096 198.666 43.0367 198.691 42.9744 198.704C42.9426 198.71 42.9102 198.714 42.8777 198.714Z" fill="black"/>
<path d="M34.7684 202.104C34.6935 202.104 34.6197 202.087 34.5526 202.054C34.4854 202.021 34.4268 201.973 34.3812 201.913C27.9296 193.436 27.2136 167.901 27.1878 166.817C27.1856 166.753 27.1961 166.69 27.2186 166.63C27.2412 166.571 27.2756 166.516 27.3195 166.47C27.3633 166.424 27.4159 166.387 27.4741 166.361C27.5324 166.335 27.595 166.322 27.6587 166.32C27.7845 166.32 27.9053 166.37 27.9952 166.458C28.085 166.546 28.1369 166.665 28.1394 166.791C28.1394 167.056 28.8847 193.097 35.1394 201.326C35.2173 201.429 35.2515 201.558 35.2346 201.685C35.2177 201.813 35.1509 201.929 35.049 202.007C34.9676 202.067 34.8696 202.101 34.7684 202.104Z" fill="black"/>
<path d="M98.3057 272.424H229.988V165.612H98.3057V272.424Z" fill="white"/>
<path d="M229.99 165.614V272.426H98.3076V165.614H229.99ZM229.99 164.646H98.3076C98.0509 164.646 97.8045 164.749 97.623 164.93C97.4416 165.111 97.3398 165.358 97.3398 165.614V272.426C97.3398 272.683 97.4416 272.929 97.623 273.11C97.8045 273.292 98.0509 273.394 98.3076 273.394H229.99C230.247 273.394 230.493 273.292 230.674 273.11C230.856 272.929 230.958 272.683 230.958 272.426V165.614C230.958 165.358 230.856 165.111 230.674 164.93C230.493 164.749 230.247 164.646 229.99 164.646Z" fill="black"/>
<path d="M106.707 260.881H221.98V175.198H106.707L106.707 260.881Z" fill="#4BD657"/>
<path d="M221.979 175.198V260.881H106.706V175.198H221.979ZM221.979 174.23H106.706C106.449 174.23 106.203 174.332 106.022 174.514C105.84 174.695 105.738 174.942 105.738 175.198V260.881C105.738 261.138 105.84 261.384 106.022 261.566C106.203 261.747 106.449 261.849 106.706 261.849H221.979C222.236 261.849 222.482 261.747 222.664 261.566C222.845 261.384 222.947 261.138 222.947 260.881V175.198C222.947 174.942 222.845 174.695 222.664 174.514C222.482 174.332 222.236 174.23 221.979 174.23Z" fill="black"/>
<path d="M204.562 206.011H157.714C157.586 206.011 157.463 205.96 157.372 205.869C157.281 205.778 157.23 205.655 157.23 205.527C157.23 205.399 157.281 205.275 157.372 205.185C157.463 205.094 157.586 205.043 157.714 205.043H204.562C204.691 205.043 204.814 205.094 204.905 205.185C204.995 205.275 205.046 205.399 205.046 205.527C205.046 205.655 204.995 205.778 204.905 205.869C204.814 205.96 204.691 206.011 204.562 206.011Z" fill="black"/>
<path d="M203.33 218.03H157.714C157.586 218.03 157.463 217.979 157.372 217.888C157.281 217.798 157.23 217.675 157.23 217.546C157.23 217.418 157.281 217.295 157.372 217.204C157.463 217.113 157.586 217.062 157.714 217.062H203.33C203.458 217.062 203.581 217.113 203.672 217.204C203.763 217.295 203.814 217.418 203.814 217.546C203.814 217.675 203.763 217.798 203.672 217.888C203.581 217.979 203.458 218.03 203.33 218.03Z" fill="black"/>
<path d="M230.441 272.426H102.255C99.1037 272.426 96.0817 271.174 93.8537 268.946C91.6257 266.718 90.374 263.696 90.374 260.545H242.324C242.324 262.106 242.017 263.651 241.42 265.092C240.823 266.534 239.947 267.844 238.844 268.947C237.74 270.05 236.43 270.925 234.988 271.522C233.546 272.119 232.001 272.426 230.441 272.426Z" fill="white"/>
<path d="M242.32 260.542C242.321 262.102 242.014 263.648 241.417 265.089C240.82 266.531 239.945 267.841 238.842 268.945C237.739 270.048 236.429 270.924 234.987 271.521C233.545 272.118 232 272.426 230.44 272.426H102.251C100.69 272.426 99.145 272.118 97.7034 271.521C96.2617 270.924 94.9518 270.048 93.8485 268.945C92.7452 267.841 91.8704 266.531 91.2735 265.089C90.6767 263.648 90.3697 262.102 90.3701 260.542H242.304H242.32ZM243.272 259.574H89.4023V260.542C89.4058 263.949 90.7603 267.215 93.169 269.624C95.5777 272.034 98.8438 273.389 102.251 273.393H230.44C233.847 273.389 237.113 272.034 239.521 269.624C241.93 267.215 243.285 263.949 243.288 260.542V259.574H243.272Z" fill="black"/>
<path d="M177.134 228.2H157.714C157.586 228.2 157.463 228.149 157.372 228.058C157.281 227.968 157.23 227.845 157.23 227.716C157.23 227.588 157.281 227.465 157.372 227.374C157.463 227.283 157.586 227.232 157.714 227.232H177.134C177.262 227.232 177.385 227.283 177.476 227.374C177.566 227.465 177.617 227.588 177.617 227.716C177.617 227.845 177.566 227.968 177.476 228.058C177.385 228.149 177.262 228.2 177.134 228.2Z" fill="black"/>
<path d="M143.636 200.6H125.072C120.638 200.6 117.043 204.194 117.043 208.629V224.832C117.043 229.266 120.638 232.861 125.072 232.861H143.636C148.071 232.861 151.665 229.266 151.665 224.832V208.629C151.665 204.194 148.071 200.6 143.636 200.6Z" fill="white"/>
<path d="M143.633 233.344H125.072C122.814 233.341 120.65 232.443 119.054 230.847C117.458 229.25 116.56 227.085 116.559 224.828V208.628C116.561 206.371 117.459 204.207 119.055 202.611C120.651 201.015 122.815 200.118 125.072 200.115H143.633C145.89 200.118 148.053 201.015 149.649 202.611C151.245 204.207 152.143 206.371 152.145 208.628V224.828C152.144 227.085 151.247 229.25 149.651 230.847C148.055 232.443 145.89 233.341 143.633 233.344ZM125.072 201.086C123.071 201.088 121.153 201.883 119.738 203.298C118.323 204.713 117.528 206.631 117.526 208.631V224.831C117.528 226.832 118.324 228.75 119.738 230.166C121.153 231.581 123.071 232.377 125.072 232.379H143.633C145.634 232.377 147.551 231.581 148.966 230.166C150.381 228.75 151.176 226.832 151.178 224.831V208.631C151.176 206.631 150.381 204.713 148.966 203.298C147.551 201.883 145.633 201.088 143.633 201.086H125.072Z" fill="black"/>
<path d="M134.484 226.401H134.413C134.224 226.39 134.04 226.331 133.88 226.23C133.719 226.129 133.586 225.989 133.494 225.824L124.707 209.937C124.629 209.807 124.578 209.663 124.558 209.513C124.537 209.363 124.546 209.21 124.586 209.064C124.625 208.918 124.693 208.781 124.787 208.662C124.88 208.542 124.996 208.443 125.129 208.37C125.261 208.296 125.407 208.251 125.557 208.235C125.708 208.219 125.86 208.233 126.005 208.278C126.15 208.322 126.284 208.395 126.4 208.492C126.517 208.589 126.612 208.709 126.681 208.843L134.613 223.179L141.026 214.372C141.113 214.252 141.223 214.151 141.35 214.074C141.476 213.996 141.617 213.945 141.763 213.921C141.91 213.898 142.059 213.904 142.203 213.939C142.347 213.974 142.484 214.037 142.603 214.124C142.723 214.211 142.825 214.321 142.902 214.448C142.979 214.574 143.031 214.715 143.054 214.861C143.077 215.008 143.071 215.157 143.037 215.301C143.002 215.446 142.939 215.581 142.852 215.701L135.397 225.94C135.292 226.083 135.154 226.199 134.995 226.279C134.837 226.359 134.662 226.401 134.484 226.401Z" fill="#382256"/>
<path d="M90.2002 167.266C90.0741 167.266 89.9532 167.217 89.8628 167.129C89.7724 167.041 89.7197 166.921 89.7163 166.795C89.6196 162.569 90.8261 159.463 93.3003 157.563C98.1067 153.869 105.881 156.082 106.223 156.179C106.346 156.215 106.45 156.298 106.511 156.411C106.573 156.523 106.588 156.656 106.552 156.779C106.516 156.902 106.432 157.006 106.32 157.068C106.207 157.129 106.075 157.144 105.952 157.108C105.874 157.085 98.3036 154.937 93.8875 158.331C91.6714 160.034 90.5937 162.872 90.6841 166.772C90.6853 166.836 90.6741 166.899 90.651 166.958C90.6278 167.018 90.5933 167.072 90.5492 167.117C90.5052 167.163 90.4528 167.2 90.3946 167.225C90.3363 167.251 90.2735 167.265 90.21 167.266H90.2002Z" fill="black"/>
<path d="M107.765 170.322C107.638 170.322 107.516 170.272 107.425 170.182C107.335 170.093 107.283 169.971 107.281 169.844C107.281 169.716 107.332 169.593 107.421 169.501C107.511 169.409 107.634 169.356 107.762 169.354L150.691 169.031C150.754 169.031 150.816 169.043 150.875 169.067C150.933 169.09 150.987 169.125 151.031 169.17C151.076 169.214 151.112 169.267 151.137 169.325C151.161 169.383 151.174 169.446 151.175 169.509C151.175 169.637 151.125 169.761 151.035 169.853C150.945 169.945 150.822 169.997 150.694 169.999L107.768 170.322H107.765Z" fill="white"/>
<path d="M232.166 266.993H183.492C183.363 266.993 183.24 266.942 183.15 266.851C183.059 266.761 183.008 266.638 183.008 266.509C183.008 266.381 183.059 266.258 183.15 266.167C183.24 266.076 183.363 266.025 183.492 266.025H232.166C232.294 266.025 232.417 266.076 232.508 266.167C232.598 266.258 232.65 266.381 232.65 266.509C232.65 266.638 232.598 266.761 232.508 266.851C232.417 266.942 232.294 266.993 232.166 266.993Z" fill="white"/>
<path d="M113.525 209.524C113.462 209.523 113.399 209.51 113.341 209.485C113.283 209.46 113.23 209.423 113.186 209.378C113.142 209.332 113.107 209.278 113.084 209.219C113.061 209.16 113.05 209.097 113.051 209.034C113.167 202.966 114.806 198.776 117.919 196.576C121.983 193.708 126.996 195.331 127.209 195.402C127.269 195.423 127.324 195.456 127.372 195.498C127.419 195.541 127.458 195.593 127.486 195.65C127.513 195.708 127.529 195.77 127.533 195.834C127.536 195.897 127.527 195.961 127.506 196.021C127.485 196.081 127.452 196.137 127.409 196.184C127.366 196.232 127.315 196.27 127.258 196.298C127.2 196.325 127.138 196.341 127.074 196.345C127.01 196.348 126.947 196.339 126.886 196.318C126.838 196.318 122.112 194.783 118.454 197.373C115.609 199.386 114.112 203.315 114.003 209.05C114 209.176 113.949 209.295 113.86 209.384C113.771 209.472 113.651 209.523 113.525 209.524Z" fill="black"/>
<path d="M148.002 236.911H135.828C135.699 236.911 135.576 236.86 135.486 236.769C135.395 236.679 135.344 236.556 135.344 236.427C135.344 236.299 135.395 236.176 135.486 236.085C135.576 235.994 135.699 235.943 135.828 235.943H147.995C148.123 235.943 148.247 235.994 148.337 236.085C148.428 236.176 148.479 236.299 148.479 236.427C148.479 236.556 148.428 236.679 148.337 236.769C148.247 236.86 148.123 236.911 147.995 236.911H148.002Z" fill="black"/>
<path d="M204.109 192.164C204.109 192.164 170.684 175.361 174.706 197.948L158.358 208.535C158.358 208.535 157.593 219.638 172.926 215.677C172.926 215.677 176.393 222.051 183.016 223.064C183.016 223.064 183.706 229.248 196.074 227.867C208.441 226.486 219.128 211.593 219.128 211.593L204.109 192.164Z" fill="#FFCDB2"/>
<path d="M192.662 228.554C189.133 228.554 186.433 227.819 184.597 226.361C183.645 225.638 182.947 224.632 182.604 223.487C176.82 222.441 173.494 217.564 172.684 216.235C167.239 217.58 163.181 217.203 160.62 215.061C157.623 212.571 157.855 208.667 157.868 208.503C157.873 208.428 157.895 208.355 157.933 208.291C157.971 208.226 158.024 208.172 158.088 208.132L174.165 197.716C173.358 192.826 174.259 189.371 176.846 187.439C184.384 181.822 203.507 191.326 204.316 191.732C204.381 191.765 204.438 191.811 204.484 191.868L219.503 211.296C219.566 211.38 219.6 211.481 219.6 211.585C219.6 211.689 219.566 211.791 219.503 211.874C219.061 212.49 208.536 226.961 196.107 228.348C194.963 228.48 193.813 228.549 192.662 228.554ZM172.926 215.193C173.013 215.193 173.099 215.217 173.173 215.261C173.248 215.305 173.31 215.369 173.352 215.445C173.388 215.506 176.791 221.622 183.091 222.587C183.195 222.602 183.292 222.652 183.366 222.729C183.439 222.805 183.486 222.904 183.497 223.009C183.526 223.238 184.345 228.69 196.019 227.387C207.09 226.151 216.961 213.664 218.523 211.58L203.797 192.548C202.303 191.816 184.236 183.145 177.436 188.216C175.11 189.951 174.352 193.197 175.178 197.864C175.195 197.958 175.184 198.054 175.146 198.142C175.108 198.229 175.045 198.303 174.965 198.355L158.836 208.803C158.836 209.632 159.03 212.477 161.255 214.322C163.62 216.28 167.507 216.58 172.807 215.206C172.845 215.197 172.884 215.193 172.923 215.193H172.926Z" fill="black"/>
<path d="M107.566 128.778C128.066 118.626 216.188 102.101 242.997 124.842C269.807 147.584 246.436 192.171 241.675 199.226C236.913 206.28 226.694 204.145 226.694 204.145L219.107 211.887L197.172 189.274L201.114 185.151C201.114 185.151 181.404 181.068 206.765 150.713" fill="#07ACEE"/>
<path d="M219.109 212.367C219.044 212.366 218.979 212.353 218.92 212.328C218.86 212.302 218.805 212.265 218.76 212.218L196.825 189.609C196.738 189.519 196.69 189.399 196.69 189.273C196.69 189.148 196.738 189.028 196.825 188.938L200.212 185.39C198.66 184.864 195.309 183.299 193.928 179.338C191.641 172.774 195.834 163.035 206.396 150.396C206.435 150.344 206.485 150.3 206.542 150.267C206.599 150.235 206.662 150.214 206.727 150.206C206.792 150.199 206.858 150.205 206.921 150.223C206.984 150.242 207.042 150.274 207.093 150.316C207.143 150.358 207.184 150.41 207.214 150.468C207.244 150.527 207.261 150.591 207.265 150.656C207.27 150.722 207.261 150.787 207.239 150.849C207.217 150.911 207.182 150.968 207.138 151.016C194.286 166.399 193.354 174.732 194.838 179.009C196.435 183.615 201.164 184.661 201.212 184.67C201.297 184.687 201.376 184.726 201.44 184.784C201.505 184.842 201.552 184.916 201.578 184.999C201.604 185.081 201.606 185.169 201.586 185.253C201.566 185.338 201.524 185.415 201.464 185.477L197.847 189.264L219.109 211.199L226.347 203.815C226.404 203.757 226.475 203.714 226.552 203.691C226.63 203.667 226.713 203.663 226.792 203.68C226.889 203.699 236.75 205.66 241.273 198.964C243.508 195.651 250.586 182.835 253.699 167.825C257.595 149.061 253.889 134.726 242.683 125.219C227.283 112.155 192.39 113.187 172.961 114.965C145.016 117.523 117.874 124.222 107.78 129.219C107.665 129.276 107.533 129.285 107.411 129.244C107.289 129.203 107.189 129.115 107.132 129C107.075 128.885 107.066 128.752 107.108 128.63C107.149 128.509 107.237 128.408 107.352 128.351C117.526 123.316 144.816 116.571 172.87 114.003C192.451 112.21 227.638 111.187 243.308 124.481C249.56 129.784 253.576 136.68 255.244 144.98C256.612 151.78 256.408 159.532 254.647 168.022C251.502 183.183 244.324 196.151 242.066 199.506C237.618 206.099 228.518 204.951 226.854 204.667L219.435 212.225C219.347 212.311 219.231 212.362 219.109 212.367Z" fill="black"/>
<path d="M226.171 203.668H226.09L218.858 211.129L197.891 189.271L201.645 185.297C200.892 185.107 200.167 184.821 199.487 184.445C210.532 186.619 221.545 198.252 226.171 203.668Z" fill="#0598C6"/>
<path d="M174.701 198.457C174.592 198.458 174.487 198.422 174.401 198.355C174.315 198.288 174.255 198.195 174.229 198.09C174.203 197.984 174.213 197.873 174.258 197.774C174.302 197.676 174.379 197.595 174.475 197.544L180.249 194.499C180.363 194.439 180.496 194.427 180.618 194.465C180.741 194.503 180.844 194.589 180.904 194.702C180.964 194.816 180.976 194.949 180.938 195.072C180.9 195.195 180.814 195.297 180.701 195.357L174.926 198.399C174.857 198.437 174.78 198.457 174.701 198.457Z" fill="black"/>
<path d="M172.969 216.005C172.906 216.008 172.842 215.999 172.782 215.978C172.722 215.957 172.667 215.925 172.619 215.882C172.572 215.84 172.533 215.789 172.505 215.731C172.478 215.674 172.461 215.612 172.458 215.548C172.454 215.485 172.463 215.421 172.484 215.361C172.505 215.301 172.538 215.246 172.58 215.198C172.623 215.151 172.674 215.112 172.731 215.084C172.789 215.057 172.851 215.041 172.914 215.037C178.653 214.337 183.991 211.732 188.075 207.64C188.161 207.544 188.281 207.487 188.409 207.479C188.538 207.472 188.663 207.516 188.759 207.602C188.855 207.687 188.913 207.807 188.92 207.936C188.928 208.064 188.884 208.19 188.798 208.285C188.559 208.553 182.837 214.876 173.027 216.002L172.969 216.005Z" fill="black"/>
<path d="M182.746 223.474H182.597C182.469 223.474 182.346 223.423 182.255 223.332C182.164 223.242 182.113 223.119 182.113 222.99C182.113 222.862 182.164 222.739 182.255 222.648C182.346 222.557 182.469 222.506 182.597 222.506H182.739C189.952 222.506 196.445 215.916 196.513 215.849C196.603 215.761 196.724 215.713 196.85 215.713C196.975 215.713 197.096 215.762 197.186 215.85C197.276 215.937 197.329 216.057 197.333 216.182C197.337 216.308 197.291 216.43 197.207 216.523C196.933 216.81 190.368 223.474 182.746 223.474Z" fill="black"/>
<path d="M160.778 127.684C162.096 127.684 163.165 126.616 163.165 125.297C163.165 123.979 162.096 122.91 160.778 122.91C159.459 122.91 158.391 123.979 158.391 125.297C158.391 126.616 159.459 127.684 160.778 127.684Z" fill="#51CEF4"/>
<path d="M177.528 146.178C178.846 146.178 179.915 145.11 179.915 143.791C179.915 142.473 178.846 141.404 177.528 141.404C176.209 141.404 175.141 142.473 175.141 143.791C175.141 145.11 176.209 146.178 177.528 146.178Z" fill="#51CEF4"/>
<path d="M217.95 133.719C219.268 133.719 220.337 132.651 220.337 131.332C220.337 130.014 219.268 128.945 217.95 128.945C216.631 128.945 215.562 130.014 215.562 131.332C215.562 132.651 216.631 133.719 217.95 133.719Z" fill="#51CEF4"/>
<path d="M243.602 158.676C244.92 158.676 245.989 157.608 245.989 156.289C245.989 154.971 244.92 153.902 243.602 153.902C242.284 153.902 241.215 154.971 241.215 156.289C241.215 157.608 242.284 158.676 243.602 158.676Z" fill="#51CEF4"/>
<path d="M233.086 182.68C234.404 182.68 235.473 181.612 235.473 180.293C235.473 178.975 234.404 177.906 233.086 177.906C231.768 177.906 230.699 178.975 230.699 180.293C230.699 181.612 231.768 182.68 233.086 182.68Z" fill="#51CEF4"/>
<path d="M247.078 176.89C247.028 176.891 246.978 176.883 246.93 176.868C246.868 176.85 246.81 176.82 246.76 176.779C246.711 176.738 246.669 176.688 246.639 176.631C246.609 176.574 246.591 176.512 246.585 176.448C246.58 176.384 246.587 176.319 246.607 176.258C252.007 159.639 250.072 148.371 247.501 141.849C244.72 134.791 240.61 131.604 240.568 131.571C240.467 131.494 240.4 131.378 240.383 131.251C240.366 131.124 240.4 130.996 240.478 130.894C240.556 130.793 240.671 130.727 240.798 130.71C240.924 130.692 241.052 130.725 241.155 130.8C241.329 130.936 245.488 134.146 248.375 141.426C251.023 148.107 253.026 159.626 247.526 176.555C247.496 176.651 247.436 176.735 247.356 176.795C247.276 176.855 247.178 176.888 247.078 176.89Z" fill="white"/>
<path d="M190.987 226.587H190.519C190.391 226.587 190.268 226.536 190.177 226.445C190.086 226.354 190.035 226.231 190.035 226.103C190.035 225.975 190.086 225.852 190.177 225.761C190.268 225.67 190.391 225.619 190.519 225.619H190.984C206.116 225.619 210.303 215.868 210.338 215.768C210.362 215.709 210.398 215.655 210.443 215.61C210.487 215.565 210.541 215.529 210.599 215.504C210.658 215.48 210.721 215.467 210.785 215.467C210.849 215.467 210.912 215.479 210.971 215.503C211.029 215.527 211.083 215.563 211.128 215.608C211.173 215.652 211.209 215.706 211.234 215.764C211.258 215.823 211.271 215.886 211.271 215.95C211.271 216.013 211.259 216.076 211.235 216.135C211.186 216.242 206.751 226.587 190.987 226.587Z" fill="white"/>
<path d="M182.554 221.718C181.737 221.73 180.928 221.566 180.18 221.238C180.067 221.182 179.98 221.085 179.938 220.967C179.896 220.848 179.902 220.718 179.954 220.604C180.006 220.489 180.1 220.4 180.217 220.354C180.334 220.308 180.464 220.309 180.58 220.357C185.612 222.644 194.573 214.428 194.663 214.344C194.708 214.291 194.763 214.249 194.825 214.219C194.888 214.189 194.955 214.173 195.024 214.172C195.093 214.171 195.162 214.184 195.225 214.211C195.289 214.239 195.345 214.279 195.392 214.33C195.438 214.381 195.473 214.442 195.494 214.507C195.516 214.573 195.522 214.642 195.515 214.711C195.507 214.78 195.484 214.846 195.449 214.905C195.413 214.964 195.365 215.015 195.309 215.054C194.986 215.364 188.047 221.718 182.554 221.718Z" fill="white"/>
<path d="M167.42 214.405C166.287 214.42 165.16 214.257 164.078 213.921C164.015 213.904 163.957 213.873 163.906 213.833C163.856 213.792 163.814 213.741 163.783 213.683C163.753 213.626 163.734 213.563 163.728 213.498C163.723 213.433 163.73 213.368 163.75 213.306C163.771 213.244 163.803 213.187 163.846 213.138C163.889 213.089 163.941 213.049 164 213.021C164.058 212.992 164.122 212.976 164.187 212.973C164.252 212.97 164.317 212.98 164.378 213.002C171.836 215.412 184.565 207.025 184.7 206.941C184.753 206.9 184.813 206.871 184.877 206.855C184.942 206.838 185.009 206.835 185.074 206.846C185.14 206.857 185.202 206.881 185.258 206.917C185.314 206.953 185.362 207 185.399 207.055C185.436 207.111 185.461 207.173 185.472 207.238C185.484 207.304 185.482 207.371 185.467 207.435C185.451 207.5 185.423 207.561 185.383 207.614C185.343 207.667 185.293 207.711 185.236 207.744C184.761 208.057 175.126 214.405 167.42 214.405Z" fill="white"/>
<path d="M266.164 147.484C266.133 147.487 266.102 147.487 266.071 147.484C266.008 147.472 265.948 147.448 265.895 147.413C265.842 147.379 265.796 147.333 265.76 147.28C265.724 147.228 265.699 147.168 265.687 147.106C265.674 147.043 265.674 146.979 265.687 146.916C268.145 134.413 265.523 124.639 257.894 117.865C254.36 114.77 250.147 112.55 245.597 111.384C245.471 111.358 245.361 111.283 245.29 111.176C245.22 111.068 245.195 110.937 245.221 110.812C245.247 110.686 245.322 110.576 245.43 110.505C245.537 110.435 245.668 110.41 245.794 110.436C250.504 111.615 254.863 113.904 258.506 117.113C263.955 121.952 269.796 131.058 266.638 147.113C266.613 147.219 266.552 147.314 266.466 147.381C266.38 147.449 266.274 147.485 266.164 147.484Z" fill="black"/>
<path d="M101.999 77.12C109.047 77.12 114.761 71.4067 114.761 64.3589C114.761 57.311 109.047 51.5977 101.999 51.5977C94.9515 51.5977 89.2383 57.311 89.2383 64.3589C89.2383 71.4067 94.9515 77.12 101.999 77.12Z" fill="#382256"/>
<path d="M102.014 51.5986C104.846 51.6008 107.598 52.5457 109.835 54.2843C112.072 56.0229 113.666 58.4563 114.368 61.2011C115.069 63.9459 114.837 66.8461 113.708 69.4445C112.579 72.0429 110.618 74.1918 108.133 75.5525C105.648 76.9133 102.781 77.4085 99.9842 76.9602C97.1869 76.5118 94.6184 75.1455 92.6833 73.0763C90.7483 71.0072 89.5565 68.353 89.2963 65.532C89.036 62.711 89.722 59.8835 91.2459 57.4953C92.3962 55.6826 93.9871 54.1911 95.87 53.1599C97.753 52.1287 99.8667 51.5915 102.014 51.5986ZM102.014 50.6309C98.7077 50.627 95.5117 51.8159 93.0119 53.9792C90.5121 56.1424 88.8766 59.1349 88.4057 62.407C87.9348 65.6791 88.6599 69.0113 90.4483 71.7916C92.2366 74.572 94.9679 76.6139 98.1407 77.5424C101.313 78.4709 104.715 78.2237 107.72 76.8461C110.725 75.4686 113.132 73.0532 114.5 70.0435C115.867 67.0338 116.103 63.6317 115.164 60.4621C114.225 57.2925 112.174 54.568 109.388 52.789C107.186 51.3798 104.627 50.6308 102.014 50.6309Z" fill="black"/>
<path d="M133.445 107.429C133.445 107.429 143.051 100.654 140.1 92.3545C137.148 84.0546 135.01 84.5191 133.739 80.0385C132.468 75.5579 125.184 70.445 117.913 71.7708C117.913 71.7708 109.829 64.3128 101.7 65.5483C93.5712 66.7838 90.4099 70.2773 87.5357 76.2353C84.6616 82.1934 82.1261 84.7095 79.9552 88.8159C77.7842 92.9223 73.9619 104.738 89.8779 115.348C105.794 125.957 133.445 107.429 133.445 107.429Z" fill="#382256"/>
<path d="M103.567 65.4099C111.025 65.4099 117.922 71.7711 117.922 71.7711C118.707 71.6287 119.504 71.5575 120.302 71.5582C126.715 71.5582 132.618 76.0485 133.747 80.0388C135.018 84.5194 137.154 84.0484 140.109 92.3548C143.063 100.661 133.454 107.429 133.454 107.429C133.454 107.429 116.738 118.638 101.819 118.638C97.5509 118.638 93.4315 117.719 89.8832 115.361C73.9672 104.752 77.7898 92.9484 79.9608 88.8291C82.1317 84.7098 84.6575 82.1904 87.5413 76.2485C90.4252 70.3067 93.5768 66.7937 101.706 65.5615C102.321 65.4691 102.942 65.4227 103.564 65.4228L103.567 65.4099ZM103.564 64.4551C102.893 64.4553 102.224 64.5049 101.561 64.6035C93.0252 65.8938 89.6251 69.7002 86.6703 75.8259C85.3521 78.5218 83.8249 81.1103 82.1026 83.5678C81.0133 85.1229 80.0127 86.7384 79.1058 88.4065C77.2544 91.9132 76.5761 95.9212 77.1703 99.8418C78.1381 105.971 82.238 111.455 89.3347 116.193C92.7605 118.477 96.9542 119.635 101.802 119.635C109.686 119.635 118.018 116.538 123.622 113.942C127.204 112.297 130.664 110.399 133.976 108.261H133.996C135.76 106.947 137.327 105.386 138.647 103.626C141.509 99.7805 142.325 95.787 141.002 92.0709C139.318 87.329 137.88 85.3485 136.722 83.7582C135.828 82.5291 135.183 81.642 134.664 79.813C133.435 75.4678 127.225 70.6292 120.286 70.6292C119.589 70.6293 118.892 70.68 118.202 70.7808C116.647 69.4453 110.402 64.4809 103.551 64.4809L103.564 64.4551Z" fill="black"/>
<path d="M103.019 95.6928H102.974C97.2929 95.1831 92.3283 89.1445 92.1316 88.8864C92.0507 88.7867 92.0127 88.659 92.026 88.5314C92.0394 88.4037 92.1028 88.2866 92.2025 88.2057C92.3021 88.1249 92.4298 88.087 92.5575 88.1003C92.6851 88.1136 92.8024 88.177 92.8832 88.2767C92.9316 88.338 97.7896 94.2573 103.06 94.7282C103.189 94.7338 103.31 94.7901 103.397 94.8848C103.483 94.9795 103.529 95.1048 103.524 95.2331C103.518 95.3615 103.462 95.4823 103.367 95.5691C103.272 95.6559 103.147 95.7015 103.019 95.696V95.6928Z" fill="black"/>
<path d="M102.898 92.0252C101.606 92.0177 100.322 91.8366 99.0786 91.4865C98.9608 91.4477 98.8623 91.3651 98.8036 91.2558C98.7449 91.1465 98.7306 91.0189 98.7633 90.8993C98.796 90.7797 98.8733 90.6772 98.9794 90.6129C99.0855 90.5487 99.2123 90.5277 99.3334 90.5542C110.101 93.5025 114.598 82.722 114.785 82.2607C114.833 82.1418 114.927 82.047 115.045 81.9971C115.163 81.9471 115.296 81.9463 115.415 81.9946C115.534 82.043 115.629 82.1366 115.679 82.2548C115.729 82.3731 115.73 82.5064 115.682 82.6253C115.64 82.7317 111.778 92.0252 102.898 92.0252Z" fill="white"/>
<path d="M89.4168 52.2218C89.3618 52.2213 89.3072 52.2115 89.2555 52.1927C89.1956 52.1718 89.1405 52.1392 89.0933 52.0968C89.0461 52.0544 89.0078 52.0031 88.9805 51.9458C88.9532 51.8886 88.9374 51.8264 88.9342 51.7631C88.931 51.6997 88.9405 51.6364 88.9619 51.5766C90.0038 48.6412 91.7361 46.5895 94.1232 45.4734C98.2909 43.5089 102.91 45.1508 103.104 45.2218C103.216 45.2709 103.305 45.3606 103.353 45.4728C103.402 45.585 103.406 45.7114 103.365 45.8266C103.325 45.9418 103.242 46.0373 103.133 46.0938C103.025 46.1504 102.899 46.1639 102.781 46.1315C102.739 46.1154 98.3393 44.5573 94.5361 46.3508C92.4104 47.354 90.8523 49.2218 89.9007 51.8992C89.8659 51.9982 89.7999 52.0831 89.7126 52.1413C89.6253 52.1995 89.5215 52.2277 89.4168 52.2218Z" fill="black"/>
<path d="M93.5693 60.8158C93.4857 60.8157 93.4036 60.794 93.3308 60.7526C93.2581 60.7113 93.1973 60.6519 93.1544 60.5801C93.1115 60.5083 93.088 60.4265 93.0861 60.3429C93.0842 60.2593 93.1038 60.1766 93.1434 60.1029C94.7079 57.1997 96.7662 55.419 99.25 54.8223C103.276 53.8545 106.924 56.3481 107.076 56.4545C107.177 56.529 107.245 56.64 107.266 56.7639C107.287 56.8878 107.259 57.015 107.187 57.1185C107.116 57.222 107.007 57.2938 106.884 57.3186C106.761 57.3433 106.633 57.3192 106.527 57.2513C106.492 57.2255 103.069 54.8998 99.4693 55.7675C97.2661 56.2965 95.4241 57.9094 93.9854 60.5609C93.9451 60.6367 93.8854 60.7003 93.8122 60.7451C93.739 60.7899 93.6551 60.8143 93.5693 60.8158Z" fill="white"/>
<path d="M107.963 124.847V129.918C107.963 129.918 99.1765 143.099 82.2734 132.283C82.2734 132.283 90.5637 120.367 95.0023 106.225C95.0023 106.225 88.7475 104.528 90.0314 98.9219C91.3152 93.3155 95.9118 92.5832 98.5183 94.2509C98.5183 94.2509 108.65 102.093 120.454 80.7285C120.454 80.7285 131.389 85.8898 133.124 97.5316C134.86 109.173 131.902 122.444 122.85 125.841C113.799 129.238 107.963 124.847 107.963 124.847Z" fill="#FFCDB2"/>
<path d="M120.457 80.7295C120.457 80.7295 131.393 85.8907 133.128 97.5326C134.864 109.174 131.906 122.445 122.854 125.842C120.693 126.678 118.397 127.116 116.08 127.132C110.993 127.132 107.957 124.848 107.957 124.848V129.919C107.957 129.919 103.538 136.548 94.9413 136.548C91.4156 136.548 87.1995 135.432 82.2673 132.284C82.2673 132.284 90.5575 120.368 94.9962 106.226C94.9962 106.226 88.7413 104.529 90.0252 98.9228C90.922 95.0035 93.4412 93.468 95.767 93.468C96.7381 93.4623 97.6908 93.7343 98.5124 94.2519C99.9337 95.1992 101.611 95.6889 103.319 95.6551C107.393 95.6551 113.641 93.0487 120.451 80.7295H120.457ZM120.451 79.7617C120.278 79.7615 120.107 79.8078 119.958 79.8958C119.809 79.9837 119.686 80.1101 119.602 80.2617C113.015 92.1971 107.112 94.6906 103.319 94.6906C101.824 94.7175 100.357 94.2974 99.1027 93.4842L99.035 93.439C98.0557 92.8253 96.9227 92.5011 95.767 92.5035C93.2219 92.5035 90.1285 94.1326 89.0801 98.7099C88.4672 101.391 89.2768 103.713 91.4251 105.436C92.146 106.004 92.9416 106.471 93.7896 106.823C89.3832 120.281 81.5544 131.619 81.4737 131.735C81.3994 131.842 81.3474 131.963 81.3209 132.091C81.2945 132.218 81.2941 132.35 81.3197 132.478C81.3453 132.605 81.3964 132.727 81.4699 132.834C81.5435 132.942 81.638 133.033 81.7478 133.103C86.3252 136.032 90.764 137.519 94.9413 137.519C103.951 137.519 108.57 130.745 108.764 130.458C108.869 130.299 108.925 130.113 108.925 129.923V126.523C111.161 127.58 113.607 128.119 116.08 128.1C118.508 128.08 120.912 127.622 123.177 126.748C127.673 125.061 131.047 121.026 132.941 115.078C134.593 109.89 134.993 103.61 134.067 97.3906C133.328 92.4035 130.809 87.7907 126.786 84.0488C125.016 82.3782 123.019 80.9664 120.854 79.8553C120.725 79.7946 120.584 79.7627 120.441 79.7617H120.451Z" fill="black"/>
<path d="M108.132 125.84C108.08 125.841 108.029 125.832 107.98 125.814C102.819 124.095 99.0742 118.659 98.9162 118.43C98.8804 118.378 98.8551 118.319 98.8421 118.257C98.8292 118.194 98.8287 118.13 98.8406 118.068C98.8524 118.005 98.8763 117.946 98.9111 117.893C98.946 117.839 98.9909 117.794 99.0434 117.758C99.096 117.722 99.1551 117.697 99.2173 117.684C99.2795 117.671 99.3436 117.67 99.406 117.682C99.4685 117.694 99.528 117.718 99.5812 117.753C99.6343 117.788 99.6802 117.833 99.716 117.885C99.7547 117.94 103.435 123.279 108.287 124.898C108.395 124.935 108.487 125.009 108.546 125.107C108.605 125.206 108.627 125.322 108.609 125.435C108.59 125.548 108.532 125.65 108.444 125.725C108.357 125.799 108.247 125.84 108.132 125.84Z" fill="black"/>
<path d="M95.157 103.597C95.0691 103.597 94.983 103.574 94.9075 103.529C94.832 103.484 94.7698 103.42 94.7279 103.343C93.5731 101.175 93.3634 99.42 94.1086 98.1264C95.1796 96.2619 97.7926 96.1426 97.9055 96.1394C97.9691 96.1359 98.0327 96.1453 98.0926 96.1669C98.1525 96.1886 98.2072 96.2221 98.2539 96.2655C98.3006 96.3088 98.3382 96.3611 98.3642 96.4193C98.3902 96.4774 98.4042 96.5402 98.4054 96.6039C98.4098 96.732 98.3636 96.8567 98.2766 96.9509C98.1896 97.0451 98.0689 97.1012 97.9408 97.1071C97.9053 97.1071 95.744 97.2168 94.944 98.6103C94.3795 99.5974 94.5956 101.036 95.5892 102.884C95.6278 102.958 95.647 103.041 95.6446 103.124C95.6423 103.207 95.6187 103.289 95.576 103.36C95.5332 103.432 95.4727 103.491 95.4005 103.533C95.3283 103.574 95.2469 103.596 95.1636 103.597H95.157Z" fill="black"/>
<path d="M119.971 97.9473C113.417 98.4408 105.207 94.4828 103.423 96.5569C101.639 98.6311 102.349 101.834 105.697 103.057C109.046 104.279 112.471 104.638 119.568 105.034C126.665 105.431 133.626 105.292 133.336 101.434C133.046 97.5762 129.61 97.2182 119.971 97.9473Z" fill="#FFB49F"/>
<path d="M127.916 94.8122C127.847 94.8126 127.778 94.7978 127.714 94.7688C127.651 94.7399 127.594 94.6975 127.549 94.6445C127.529 94.6219 125.652 92.4573 123.294 92.6348C123.23 92.6394 123.167 92.6315 123.106 92.6115C123.046 92.5915 122.99 92.5598 122.941 92.5181C122.893 92.4765 122.854 92.4258 122.825 92.3689C122.797 92.312 122.779 92.25 122.775 92.1864C122.77 92.1229 122.778 92.059 122.798 91.9985C122.818 91.938 122.85 91.8821 122.891 91.8339C122.933 91.7857 122.984 91.7461 123.041 91.7175C123.098 91.6889 123.159 91.6717 123.223 91.667C126.071 91.4574 128.194 93.9057 128.284 94.0122C128.344 94.0825 128.382 94.1684 128.395 94.2598C128.407 94.3511 128.393 94.4441 128.355 94.5279C128.316 94.6116 128.254 94.6825 128.177 94.7323C128.099 94.7821 128.009 94.8087 127.916 94.8089V94.8122Z" fill="black"/>
<path d="M120.643 109.721C120.532 109.721 120.425 109.682 120.339 109.612C120.253 109.543 120.194 109.445 120.172 109.337L118.014 98.9303C117.988 98.8045 118.013 98.6736 118.083 98.5662C118.154 98.4588 118.264 98.3839 118.39 98.3578C118.516 98.3317 118.647 98.3566 118.754 98.4271C118.861 98.4975 118.936 98.6078 118.962 98.7336L121.12 109.14C121.133 109.202 121.133 109.266 121.121 109.329C121.109 109.391 121.085 109.451 121.05 109.504C121.015 109.557 120.97 109.602 120.917 109.638C120.864 109.673 120.805 109.698 120.743 109.711C120.71 109.717 120.676 109.721 120.643 109.721Z" fill="black"/>
<path d="M92.43 107.976C93.5844 107.976 94.5204 107.04 94.5204 105.885C94.5204 104.731 93.5844 103.795 92.43 103.795C91.2755 103.795 90.3398 104.731 90.3398 105.885C90.3398 107.04 91.2755 107.976 92.43 107.976Z" fill="#07ACEE"/>
<path d="M92.4296 103.798C92.8929 103.798 93.3429 103.952 93.7089 104.236C94.0749 104.52 94.3362 104.917 94.4514 105.366C94.5666 105.815 94.5293 106.289 94.3452 106.714C94.1612 107.139 93.8408 107.491 93.4348 107.714C93.0288 107.937 92.5601 108.019 92.1026 107.946C91.6451 107.874 91.2247 107.651 90.9078 107.313C90.5908 106.975 90.3954 106.541 90.3521 106.08C90.3087 105.619 90.4199 105.157 90.6683 104.766C90.8559 104.468 91.116 104.223 91.4241 104.054C91.7322 103.885 92.0781 103.797 92.4296 103.798ZM92.4296 102.83C91.6944 102.83 90.984 103.095 90.4286 103.577C89.8732 104.059 89.5099 104.725 89.4058 105.452C89.3017 106.18 89.4638 106.921 89.8619 107.539C90.26 108.157 90.8677 108.611 91.5734 108.817C92.2791 109.023 93.0353 108.968 93.7035 108.662C94.3718 108.355 94.9071 107.818 95.2112 107.148C95.5153 106.479 95.5677 105.722 95.359 105.018C95.1502 104.313 94.6942 103.707 94.0746 103.311C93.5837 102.996 93.0128 102.829 92.4296 102.83Z" fill="black"/>
<path d="M109.172 101.282C109.826 101.282 110.356 100.752 110.356 100.098C110.356 99.4441 109.826 98.9141 109.172 98.9141C108.518 98.9141 107.988 99.4441 107.988 100.098C107.988 100.752 108.518 101.282 109.172 101.282Z" fill="black"/>
<path d="M126.477 102.473C127.131 102.473 127.661 101.943 127.661 101.289C127.661 100.635 127.131 100.105 126.477 100.105C125.823 100.105 125.293 100.635 125.293 101.289C125.293 101.943 125.823 102.473 126.477 102.473Z" fill="black"/>
<path d="M113.186 118.557C112.173 118.56 111.17 118.362 110.234 117.976C105.808 116.157 104.012 110.738 103.937 110.506C103.906 110.386 103.922 110.259 103.982 110.151C104.041 110.043 104.14 109.962 104.257 109.924C104.375 109.886 104.502 109.894 104.614 109.947C104.725 110 104.812 110.094 104.857 110.209C104.876 110.26 106.599 115.438 110.608 117.083C112.705 117.944 115.089 117.699 117.705 116.351C117.818 116.299 117.947 116.292 118.064 116.333C118.182 116.373 118.279 116.457 118.337 116.567C118.394 116.678 118.407 116.806 118.372 116.926C118.337 117.045 118.258 117.146 118.15 117.209C116.628 118.05 114.925 118.512 113.186 118.557Z" fill="black"/>
<path d="M115.688 91.9434C115.622 91.9435 115.557 91.9301 115.497 91.9041C115.436 91.878 115.382 91.8398 115.337 91.7918C115.014 91.4692 113.975 90.5821 113.282 90.824C113.222 90.8452 113.159 90.8543 113.095 90.851C113.032 90.8476 112.969 90.8317 112.912 90.8043C112.855 90.7769 112.803 90.7385 112.761 90.6912C112.718 90.644 112.685 90.5888 112.664 90.5289C112.643 90.4689 112.634 90.4054 112.637 90.3419C112.641 90.2784 112.657 90.2162 112.684 90.1589C112.711 90.1015 112.75 90.0501 112.797 90.0076C112.844 89.9651 112.899 89.9323 112.959 89.9111C114.366 89.4208 115.863 90.9466 116.037 91.124C116.103 91.192 116.148 91.278 116.165 91.3713C116.183 91.4646 116.172 91.5609 116.135 91.6482C116.097 91.7355 116.035 91.8098 115.956 91.8618C115.876 91.9137 115.783 91.941 115.688 91.9401V91.9434Z" fill="black"/>
<path d="M85.1293 131.46C85.0361 131.46 84.9449 131.434 84.8665 131.383C84.7882 131.333 84.7261 131.261 84.6876 131.176C84.6491 131.091 84.6361 130.997 84.6498 130.905C84.6635 130.813 84.7033 130.727 84.7648 130.657C89.3906 125.37 94.1002 114.005 94.1454 113.883C94.1695 113.824 94.2051 113.77 94.25 113.725C94.2948 113.68 94.3481 113.644 94.4068 113.62C94.4656 113.595 94.5284 113.582 94.5921 113.582C94.6557 113.582 94.7187 113.594 94.7776 113.618C94.8365 113.642 94.89 113.678 94.9351 113.723C94.9803 113.768 95.0164 113.821 95.041 113.88C95.0655 113.938 95.0782 114.001 95.0785 114.065C95.0787 114.129 95.0664 114.192 95.0422 114.251C94.8455 114.721 90.2227 125.863 85.4937 131.286C85.4493 131.34 85.3938 131.383 85.3309 131.413C85.2679 131.443 85.199 131.459 85.1293 131.46Z" fill="white"/>
</svg>
