<svg width="95" height="106" viewBox="0 0 95 106" fill="none" xmlns="http://www.w3.org/2000/svg">
<g id="Ellipse 91" style="mix-blend-mode:overlay" opacity="0.3">
<path d="M15.7345 104.549C10.0127 106.707 3.54333 103.824 2.19573 97.8588C-0.125981 87.5825 -0.403076 76.9116 1.4224 66.4619C3.88545 52.3624 10.0861 39.1819 19.3777 28.2948C28.6694 17.4078 40.7117 9.21289 54.249 4.56473C64.282 1.11982 74.8638 -0.283427 85.3773 0.394531C91.4797 0.788045 95.3439 6.72392 94.1122 12.7136C92.8805 18.7034 87.0045 22.4469 80.8899 22.3771C74.3023 22.3018 67.7226 23.352 61.4404 25.5091C51.6504 28.8706 42.9414 34.7971 36.2218 42.6705C29.5021 50.544 25.0179 60.076 23.2366 70.2727C22.0936 76.8158 22.0904 83.4787 23.1999 89.9726C24.2298 96.0004 21.4562 102.392 15.7345 104.549Z" fill="url(#paint0_linear_1143_5872)"/>
</g>
<defs>
<linearGradient id="paint0_linear_1143_5872" x1="93.5799" y1="159.107" x2="66.878" y2="1.35065" gradientUnits="userSpaceOnUse">
<stop stop-color="white"/>
<stop offset="1" stop-color="white" stop-opacity="0"/>
</linearGradient>
</defs>
</svg>
