<svg width="97" height="104" viewBox="0 0 97 104" fill="none" xmlns="http://www.w3.org/2000/svg">
<g id="Ellipse 90" style="mix-blend-mode:overlay" opacity="0.3">
<path d="M81.4584 0.849686C87.2405 -1.14059 93.6233 1.92978 94.7968 7.93118C96.8185 18.2707 96.7851 28.9451 94.6564 39.3373C91.7842 53.3592 85.2027 66.3537 75.5982 76.9659C65.9938 87.578 53.7182 95.4191 40.0514 99.6714C29.9224 102.823 19.3043 103.918 8.81494 102.934C2.7266 102.363 -0.963279 96.3176 0.442132 90.3662C1.84754 84.4149 7.82998 80.8439 13.94 81.0916C20.5226 81.3584 27.1301 80.5001 33.4723 78.5267C43.356 75.4515 52.2337 69.7809 59.1795 62.1062C66.1254 54.4316 70.8851 45.034 72.9622 34.8935C74.2951 28.3864 74.4921 21.7264 73.572 15.203C72.7179 9.14784 75.6763 2.83995 81.4584 0.849686Z" fill="url(#paint0_linear_1143_5871)"/>
</g>
<defs>
<linearGradient id="paint0_linear_1143_5871" x1="5.23311" y1="-55.9495" x2="27.3342" y2="102.517" gradientUnits="userSpaceOnUse">
<stop stop-color="white"/>
<stop offset="1" stop-color="white" stop-opacity="0"/>
</linearGradient>
</defs>
</svg>
