<svg width="40" height="40" viewBox="0 0 40 40" fill="none" xmlns="http://www.w3.org/2000/svg">
<g id="Group 2" opacity="0.05">
<circle id="Ellipse 11" cx="2.06897" cy="2.06897" r="2.06897" fill="white"/>
<circle id="Ellipse 15" cx="2.06897" cy="11.0343" r="2.06897" fill="white"/>
<circle id="Ellipse 19" cx="2.06897" cy="20.0001" r="2.06897" fill="white"/>
<circle id="Ellipse 23" cx="2.06897" cy="28.9655" r="2.06897" fill="white"/>
<circle id="Ellipse 27" cx="2.06897" cy="37.9313" r="2.06897" fill="white"/>
<circle id="Ellipse 12" cx="11.0345" cy="2.06897" r="2.06897" fill="white"/>
<circle id="Ellipse 16" cx="11.0345" cy="11.0343" r="2.06897" fill="white"/>
<circle id="Ellipse 20" cx="11.0345" cy="20.0001" r="2.06897" fill="white"/>
<circle id="Ellipse 24" cx="11.0345" cy="28.9655" r="2.06897" fill="white"/>
<circle id="Ellipse 28" cx="11.0345" cy="37.9313" r="2.06897" fill="white"/>
<circle id="Ellipse 13" cx="20" cy="2.06897" r="2.06897" fill="white"/>
<circle id="Ellipse 17" cx="20" cy="11.0343" r="2.06897" fill="white"/>
<circle id="Ellipse 21" cx="20" cy="20.0001" r="2.06897" fill="white"/>
<circle id="Ellipse 25" cx="20" cy="28.9655" r="2.06897" fill="white"/>
<circle id="Ellipse 29" cx="20" cy="37.9313" r="2.06897" fill="white"/>
<circle id="Ellipse 14" cx="28.9655" cy="2.06897" r="2.06897" fill="white"/>
<circle id="Ellipse 31" cx="37.931" cy="2.06897" r="2.06897" fill="white"/>
<circle id="Ellipse 18" cx="28.9655" cy="11.0343" r="2.06897" fill="white"/>
<circle id="Ellipse 32" cx="37.931" cy="11.0343" r="2.06897" fill="white"/>
<circle id="Ellipse 22" cx="28.9655" cy="20.0001" r="2.06897" fill="white"/>
<circle id="Ellipse 33" cx="37.931" cy="20.0001" r="2.06897" fill="white"/>
<circle id="Ellipse 26" cx="28.9655" cy="28.9655" r="2.06897" fill="white"/>
<circle id="Ellipse 34" cx="37.931" cy="28.9655" r="2.06897" fill="white"/>
<circle id="Ellipse 30" cx="28.9655" cy="37.9313" r="2.06897" fill="white"/>
<circle id="Ellipse 35" cx="37.931" cy="37.9313" r="2.06897" fill="white"/>
</g>
</svg>
