<svg width="155" height="151" viewBox="0 0 155 151" fill="none" xmlns="http://www.w3.org/2000/svg">
<g id="Profit &#38; Loss">
<g id="woman">
<g id="Group">
<path id="Vector" d="M72.6758 56.4829C72.6758 56.4829 65.3841 59.8967 64.0687 54.1271C62.7533 48.3576 60.1313 39.4598 51.1564 40.7139C42.1816 41.968 36.2911 43.6004 33.3065 37.9693C30.3219 32.3381 9.6609 34.9181 13.3952 52.3914C19.5098 81.0272 73.4359 73.5849 73.4359 73.5849L76.7639 67.5859L72.6758 56.4829Z" fill="#382256"/>
<path id="Vector_2" d="M26.8379 35.2985C29.8435 35.2985 32.399 36.2531 33.3186 37.9696C34.937 41.0243 37.4101 41.9403 40.766 41.9403C43.5982 41.9403 47.0594 41.287 51.1685 40.7143C51.7174 40.6363 52.271 40.5965 52.8254 40.5952C60.4761 40.5952 62.8511 48.7293 64.0807 54.1275C64.6832 56.7706 66.5329 57.4852 68.3755 57.4852C70.5457 57.4852 72.6877 56.4833 72.6877 56.4833L76.7689 67.5933L73.441 73.5923C73.441 73.5923 67.1353 74.4681 58.6019 74.4681C42.162 74.4681 17.4252 71.2452 13.4002 52.3988C10.8062 40.2554 19.9929 35.3055 26.8396 35.3055L26.8379 35.2985ZM26.8396 34.7801C23.2682 34.7801 18.3395 36.155 15.2183 40.0137C12.6295 43.212 11.8237 47.533 12.8869 52.5073C14.7102 61.0478 20.8599 67.2675 31.1659 70.9948C38.5031 73.6483 47.7336 74.9935 58.6019 74.9935C63.5853 75.0062 68.5651 74.7137 73.5128 74.1178L73.7737 74.081L73.8999 73.8515L77.2278 67.8525L77.3451 67.6423L77.2627 67.4164L73.1799 56.3082L72.9838 55.7705L72.4583 56.0139C72.439 56.0139 70.3933 56.965 68.3702 56.965C66.2789 56.965 65.0424 55.9999 64.5887 54.0154C63.9301 51.1254 63.0228 47.801 61.301 45.0616C59.2184 41.7529 56.3652 40.075 52.8201 40.075C52.2411 40.0758 51.6628 40.1173 51.0896 40.1993C50.1 40.3359 49.1524 40.4796 48.2363 40.6162C45.3586 41.0471 42.8732 41.4201 40.7609 41.4201C37.1912 41.4201 35.1682 40.3517 33.7775 37.7297C32.7984 35.8818 30.206 34.7783 26.8413 34.7783L26.8396 34.7801Z" fill="#1D1E1B"/>
</g>
<g id="Group_2">
<path id="Vector_3" d="M39.4618 113.406C38.304 134.084 41.8368 145.518 41.8368 145.518L107.694 146.326C110.133 133.657 107.148 118.357 107.148 118.357C107.148 118.357 113.082 110.593 117.718 110.595C124.91 110.595 131.105 112.125 136.08 101.331C141.054 90.536 126.201 88.5848 112.935 81.111C99.6689 73.6372 81.5825 74.4552 81.5825 74.4552C81.5825 74.4552 63.5418 69.3757 45.4257 82.9676" fill="#07ACEE"/>
<path id="Vector_4" d="M107.902 146.592L41.6415 145.779L41.5838 145.595C41.5488 145.481 38.0527 133.879 39.1999 113.391L39.7254 113.421C38.6622 132.42 41.5994 143.71 42.0356 145.259L107.469 146.061C109.795 133.625 106.912 118.562 106.883 118.408L106.86 118.29L106.932 118.197C107.177 117.875 112.999 110.331 117.709 110.331C118.518 110.331 119.318 110.351 120.094 110.37C126.205 110.519 131.479 110.648 135.832 101.22C136.872 98.9604 137.058 97.0302 136.417 95.3207C134.988 91.5479 129.509 89.1325 123.167 86.3371C119.937 84.9131 116.276 83.2999 112.796 81.34C99.7504 73.9835 81.7657 74.7086 81.5853 74.7174H81.5432L81.5011 74.7051C81.4574 74.6929 76.9472 73.451 70.2913 73.8767C64.1505 74.2672 54.8778 76.1992 45.5824 83.1756L45.2672 82.7552C54.6782 75.6948 64.063 73.7435 70.2809 73.3494C76.6793 72.9448 81.1403 74.0641 81.6115 74.1884C82.5923 74.1534 100.19 73.628 113.064 80.8793C116.52 82.827 120.01 84.3666 123.387 85.8536C129.838 88.6981 135.41 91.1538 136.918 95.1368C137.619 96.9846 137.421 99.0479 136.317 101.442C131.828 111.184 126.389 111.051 120.091 110.901C119.319 110.881 118.514 110.862 117.716 110.862C113.53 110.862 108.111 117.563 107.427 118.43C107.697 119.888 110.258 134.392 107.953 146.381L107.902 146.592Z" fill="#1D1D1B"/>
</g>
<path id="Vector_5" d="M83.1484 96.3355C84.018 96.3355 84.7229 95.6289 84.7229 94.7573C84.7229 93.8858 84.018 93.1792 83.1484 93.1792C82.2788 93.1792 81.5737 93.8858 81.5737 94.7573C81.5737 95.6289 82.2788 96.3355 83.1484 96.3355Z" fill="#51CEF4"/>
<g id="Group_3">
<g id="Group_4">
<g id="Group_5">
<path id="Vector_6" d="M81.6713 38.9267C81.7794 34.9311 78.6327 31.6045 74.6429 31.4965C70.6531 31.3886 67.3311 34.5402 67.223 38.5358C67.1149 42.5314 70.2616 45.858 74.2514 45.966C78.2412 46.0739 81.5632 42.9223 81.6713 38.9267Z" fill="#382256"/>
<path id="Vector_7" d="M74.4558 46.2377C73.2172 46.2352 71.9985 45.9262 70.9084 45.3382C69.8183 44.7502 68.8906 43.9014 68.2082 42.8677C67.5259 41.834 67.1101 40.6475 66.9979 39.414C66.8857 38.1805 67.0805 36.9384 67.5651 35.7986L67.807 35.9019L67.5651 35.7986C68.0981 34.5571 68.9571 33.4829 70.0511 32.6901C71.1451 31.8972 72.4334 31.4153 73.7791 31.2952C75.1248 31.1752 76.4779 31.4216 77.6949 32.0083C78.912 32.595 79.9476 33.5001 80.6918 34.6277C81.4361 35.7553 81.8614 37.0633 81.9225 38.413C81.9837 39.7627 81.6784 41.1038 81.0391 42.294C80.3997 43.4843 79.4502 44.4793 78.2912 45.1736C77.1322 45.8679 75.8069 46.2356 74.4558 46.2377ZM74.4558 31.7543C72.7261 31.7506 71.0566 32.3895 69.7713 33.5469C68.486 34.7044 67.6764 36.298 67.4994 38.0186C67.3225 39.7392 67.7909 41.4642 68.8138 42.859C69.8366 44.2538 71.341 45.219 73.0352 45.5674C74.7294 45.9159 76.4927 45.6226 77.983 44.7447C79.4732 43.8667 80.5844 42.4665 81.1008 40.8158C81.6172 39.165 81.5021 37.3812 80.7779 35.8105C80.0536 34.2398 78.7718 32.994 77.1811 32.3148C76.3204 31.9459 75.3939 31.7552 74.4575 31.7543H74.4558Z" fill="#1D1E1B"/>
</g>
<g id="Group_6">
<path id="Vector_8" d="M96.4232 60.0203C96.4232 60.0203 101.152 55.3368 98.7299 50.9667C96.3076 46.5966 95.1533 47.059 94.0253 44.6717C92.8973 42.2843 88.3485 40.1177 84.4146 41.5312C84.4146 41.5312 79.2003 38.1192 74.7812 39.5712C70.3621 41.0232 68.924 43.2739 67.8713 46.8768C66.8187 50.4797 65.6418 52.1314 64.8151 54.6309C63.9883 57.1303 62.9584 64.0997 72.8387 68.5416C82.7191 72.9834 96.4232 60.0203 96.4232 60.0203Z" fill="#382256"/>
<path id="Vector_9" d="M77.3423 69.721C75.7553 69.74 74.1826 69.4205 72.7288 68.7839C62.3369 64.1126 63.8502 56.7089 64.5631 54.551C64.9108 53.5438 65.3143 52.5567 65.7717 51.5944C66.5101 50.0486 67.1266 48.4475 67.616 46.8057C68.6669 43.1923 70.1699 40.8102 74.6958 39.3249C78.8837 37.95 83.6443 40.7437 84.4483 41.2516C86.2787 40.6246 88.3753 40.6894 90.365 41.4373C92.2059 42.1274 93.6631 43.2992 94.2639 44.569C94.7456 45.5902 95.229 46.0648 95.8403 46.6709C96.6215 47.4398 97.5917 48.3961 98.9597 50.8535C101.454 55.3462 96.6582 60.1752 96.6091 60.2225C94.1103 62.4841 91.3831 64.4799 88.4715 66.1777C84.3799 68.53 80.6106 69.721 77.3423 69.721ZM77.1339 39.4791C76.3611 39.4734 75.5924 39.5917 74.857 39.8294C70.5307 41.2499 69.1503 43.4305 68.1187 46.9581C67.6206 48.6238 66.9952 50.2487 66.2481 51.8186C65.7991 52.7634 65.4026 53.7323 65.0605 54.7209C64.3827 56.7737 62.9587 63.8184 72.9424 68.3093C82.5058 72.6093 95.9891 60.0771 96.2378 59.8406C96.3516 59.725 100.78 55.2131 98.4956 51.1005C97.168 48.7096 96.2186 47.7831 95.4689 47.0387C94.8454 46.4256 94.3076 45.8967 93.7856 44.7932C92.7522 42.6038 88.3979 40.3776 84.5025 41.7858L84.3782 41.8314L84.2696 41.7596C84.2293 41.7263 80.7403 39.4791 77.1339 39.4791Z" fill="#1D1E1B"/>
</g>
<g id="Group_7">
<path id="Vector_10" d="M83.9374 74.4556C83.9374 74.4556 86.675 74.9058 87.0901 77.4805C87.57 80.4424 84.6187 84.1784 78.9455 80.3163C78.9455 80.3163 76.4092 84.3991 71.0285 80.4441C66.4745 77.097 67.233 74.1386 71.5908 73.4065C75.3688 72.7637 83.9374 74.4556 83.9374 74.4556Z" fill="white"/>
<path id="Vector_11" d="M75.3903 82.4251C73.989 82.4251 72.4793 81.8313 70.8714 80.649C68.5103 78.9133 67.3998 77.146 67.7484 75.6782C68.0496 74.4066 69.3982 73.5063 71.5456 73.1402C75.3237 72.4974 83.6102 74.1176 83.9815 74.1911C84.1391 74.2192 86.9136 74.7656 87.3445 77.4315C87.6125 79.0814 86.8926 80.7594 85.5562 81.6141C84.5788 82.2359 82.4419 82.9225 79.0054 80.6683C78.3248 81.5332 77.3576 82.1264 76.2782 82.341C75.9855 82.3971 75.6883 82.4253 75.3903 82.4251ZM73.7017 73.5168C73.0095 73.5076 72.3177 73.5551 71.6332 73.6587C69.7065 73.9862 68.5085 74.7464 68.2598 75.7991C67.9638 77.0497 69.0006 78.6225 71.183 80.2252C73.0169 81.5738 74.6983 82.1116 76.1819 81.8261C77.2085 81.6195 78.1169 81.0271 78.7199 80.1709L78.8653 79.9379L79.0912 80.0921C81.5434 81.763 83.7434 82.1466 85.2777 81.171C86.4407 80.4318 87.0642 78.9623 86.8295 77.5138C86.4494 75.1632 83.9956 74.7254 83.8922 74.7113C83.8116 74.6973 77.8073 73.5221 73.7017 73.5221V73.5168Z" fill="#1D1E1B"/>
</g>
<g id="Group_8">
<path id="Vector_12" d="M83.5709 72.5871L83.4098 74.6767C83.4098 74.6767 81.6128 82.9211 72.743 77.2514C72.1185 76.8505 71.6582 76.239 71.4458 75.5279C71.2334 74.8168 71.2829 74.0531 71.5852 73.3753C72.503 71.319 73.7764 67.7704 74.4665 62.8083C74.4665 62.8083 70.8129 62.444 71.0055 59.1879C71.1982 55.9318 73.6975 55.0928 75.3089 55.7794C75.3089 55.7794 81.7021 59.2159 86.2964 46.1582C86.2964 46.1582 92.8857 48.0113 94.9437 54.3711C97.0018 60.731 96.5918 68.4184 91.8539 71.1683C87.116 73.9182 83.5709 72.5871 83.5709 72.5871Z" fill="#FFCDB2"/>
<path id="Vector_13" d="M78.2494 79.5048C76.6099 79.5048 74.7183 78.8252 72.6007 77.4713C71.9259 77.0342 71.4289 76.3711 71.1988 75.6007C70.9686 74.8304 71.0204 74.0032 71.3448 73.2676C72.2574 71.2201 73.4817 67.7923 74.1683 63.0247C73.2926 62.8495 70.5707 62.0946 70.7441 59.1713C70.8352 57.623 71.457 56.4179 72.4957 55.7733C72.9282 55.5064 73.4177 55.3456 73.9243 55.3042C74.4308 55.2628 74.94 55.3419 75.4101 55.5351H75.4312C75.4469 55.5351 77.0443 56.3689 79.1532 55.5456C81.8506 54.4947 84.2326 51.2123 86.0454 46.0593L86.1278 45.8281L86.3642 45.8947C86.4325 45.914 93.113 47.8599 95.192 54.2775C96.2762 57.6282 96.6353 61.1348 96.2062 64.1492C95.7175 67.5629 94.2584 70.0641 91.9849 71.3847C87.9669 73.716 84.8037 73.1871 83.8054 72.9226L83.6634 74.7214C83.6354 74.8545 82.9226 77.995 80.2305 79.1125C79.6027 79.3733 78.9292 79.5067 78.2494 79.5048ZM74.2017 55.8189C73.6978 55.8186 73.2036 55.9581 72.7741 56.2217C72.1436 56.6123 71.373 57.4478 71.2679 59.1993C71.0927 62.1769 74.3522 62.5272 74.4906 62.5413L74.7639 62.5693L74.7253 62.839C74.0369 67.7993 72.7671 71.362 71.8248 73.4778C71.5505 74.0976 71.5055 74.7947 71.6981 75.4445C71.8906 76.0943 72.3081 76.6544 72.8757 77.0247C75.7535 78.8655 78.1584 79.4068 80.0185 78.6361C82.3638 77.664 83.0818 74.8703 83.1396 74.6321L83.3271 72.215L83.6547 72.3376C83.709 72.3568 87.1577 73.5759 91.7117 70.9364C96.3042 68.2723 96.6826 60.6233 94.6893 54.4474C92.9168 48.9721 87.6306 46.8843 86.4571 46.4815C84.5742 51.7361 82.178 54.9449 79.3301 56.0483C77.0671 56.9241 75.3682 56.1009 75.1965 56.0115C74.8809 55.8821 74.5428 55.8166 74.2017 55.8189Z" fill="#1D1E1B"/>
</g>
<path id="Vector_14" d="M74.305 61.3071C74.2593 61.3144 74.2124 61.3093 74.1692 61.2923C74.1261 61.2754 74.0883 61.2472 74.0598 61.2107C73.2155 60.1125 72.9353 59.1562 73.2278 58.368C73.6482 57.233 75.0879 56.9229 75.1545 56.9107C75.2214 56.8968 75.2911 56.91 75.3483 56.9474C75.4054 56.9849 75.4453 57.0435 75.4593 57.1104C75.4732 57.1773 75.4599 57.2469 75.4225 57.3041C75.3851 57.3613 75.3266 57.4012 75.2597 57.4151C75.2421 57.4151 74.0336 57.6831 73.713 58.5484C73.4889 59.1597 73.7428 59.9496 74.4715 60.8954C74.4923 60.9221 74.5076 60.9527 74.5165 60.9854C74.5253 61.0181 74.5275 61.0521 74.5231 61.0857C74.5187 61.1193 74.5078 61.1517 74.4908 61.1809C74.4738 61.2102 74.4511 61.2358 74.4241 61.2562C74.3898 61.2839 74.3487 61.3014 74.305 61.3071Z" fill="black"/>
<path id="Vector_15" d="M87.4153 56.4385C83.8002 57.3301 78.8451 55.8868 78.0429 57.2127C77.2407 58.5386 77.9361 60.2656 79.9224 60.6352C81.9086 61.0048 83.8615 60.8839 87.8568 60.4408C91.852 59.9976 95.7387 59.2673 95.2132 57.1374C94.6878 55.0075 92.7295 55.1284 87.4153 56.4385Z" fill="#FFB49F"/>
<path id="Vector_16" d="M92.831 59.4449C92.8411 59.0745 92.5497 58.7662 92.1803 58.7562C91.8109 58.7462 91.5034 59.0383 91.4934 59.4087C91.4833 59.779 91.7747 60.0872 92.1441 60.0972C92.5134 60.1072 92.821 59.8152 92.831 59.4449Z" fill="black"/>
<path id="Vector_17" d="M86.0361 60.3016C86.0461 59.9313 85.7548 59.6229 85.3854 59.6129C85.016 59.6029 84.7085 59.8951 84.6984 60.2654C84.6884 60.6358 84.9797 60.9441 85.3491 60.9541C85.7185 60.9641 86.0261 60.672 86.0361 60.3016Z" fill="black"/>
<path id="Vector_18" d="M90.1906 62.7653C90.1364 62.7652 90.0835 62.7483 90.0392 62.7169C89.995 62.6856 89.9617 62.6413 89.9436 62.5902L87.8609 57.0273C87.8459 56.9643 87.8547 56.898 87.8856 56.841C87.9165 56.7841 87.9674 56.7405 88.0284 56.7188C88.0894 56.6971 88.1564 56.6987 88.2164 56.7233C88.2763 56.7479 88.3251 56.7938 88.3532 56.8522L90.4357 62.415C90.4601 62.4803 90.4576 62.5526 90.4287 62.616C90.3998 62.6794 90.3469 62.7287 90.2816 62.7531C90.2523 62.763 90.2215 62.7672 90.1906 62.7653Z" fill="#1D1D1B"/>
<path id="Vector_19" d="M89.7183 55.1982C89.6722 55.1978 89.6271 55.1857 89.5869 55.1631C89.5267 55.1277 89.483 55.07 89.465 55.0025C89.4469 54.935 89.4561 54.8631 89.4906 54.8023C90.7062 52.7005 93.8449 54.3417 93.9781 54.4117C94.0364 54.4459 94.0793 54.5014 94.0978 54.5665C94.1163 54.6316 94.1091 54.7013 94.0774 54.7611C94.0458 54.821 93.9923 54.8663 93.9281 54.8877C93.8639 54.909 93.7939 54.9048 93.7328 54.8759C93.7048 54.8619 90.9093 53.4081 89.9459 55.0668C89.9229 55.1068 89.8898 55.1399 89.8498 55.163C89.8098 55.1861 89.7644 55.1982 89.7183 55.1982Z" fill="black"/>
<path id="Vector_20" d="M82.1438 57.1615C82.0941 57.1615 82.0454 57.1474 82.0034 57.1208C81.9614 57.0941 81.9279 57.0562 81.9066 57.0112C81.8853 56.9663 81.8771 56.9162 81.8832 56.8669C81.8892 56.8175 81.9091 56.7709 81.9406 56.7324C82.7043 55.7901 83.517 55.2699 84.377 55.184C84.9635 55.122 85.5519 55.2813 86.027 55.6307C86.0786 55.6755 86.1106 55.7387 86.1164 55.8068C86.1222 55.8749 86.1012 55.9426 86.0579 55.9955C86.0146 56.0484 85.9524 56.0823 85.8845 56.0901C85.8166 56.0978 85.7482 56.0788 85.6941 56.037C85.6293 55.9845 84.1529 54.8425 82.347 57.0652C82.3226 57.0955 82.2916 57.1199 82.2564 57.1365C82.2212 57.1532 82.1828 57.1618 82.1438 57.1615Z" fill="black"/>
<g id="Group_9">
<path id="Vector_21" d="M84.0993 72.7326C84.0993 72.7326 81.1514 71.9146 79.5627 70.6553L84.0993 72.7326Z" fill="#4BD657"/>
<path id="Vector_22" d="M84.0986 72.9958C84.0749 72.9964 84.0512 72.9934 84.0284 72.987C83.9058 72.9538 81.0106 72.1393 79.3992 70.8607C79.3481 70.8164 79.3161 70.754 79.3097 70.6867C79.3034 70.6193 79.3233 70.5521 79.3653 70.4991C79.4073 70.446 79.4682 70.4112 79.5352 70.4019C79.6022 70.3926 79.6702 70.4095 79.725 70.4491C81.2541 71.6611 84.1389 72.4721 84.1687 72.4808C84.2291 72.4984 84.2812 72.5372 84.3155 72.59C84.3498 72.6428 84.364 72.7061 84.3555 72.7685C84.347 72.8309 84.3164 72.8881 84.2693 72.9299C84.2221 72.9716 84.1615 72.995 84.0986 72.9958Z" fill="black"/>
</g>
<path id="Vector_23" d="M69.2728 38.8655H69.2082C69.1169 38.8485 69.0361 38.7959 68.9836 38.7194C68.9311 38.6429 68.9109 38.5487 68.9278 38.4574C69.3044 36.4116 70.1925 34.9543 71.5674 34.1451C73.8059 32.8174 76.4927 33.6792 76.6048 33.716C76.6931 33.745 76.7661 33.8079 76.808 33.8909C76.8499 33.9738 76.8572 34.07 76.8282 34.1583C76.7992 34.2465 76.7362 34.3196 76.6532 34.3615C76.5703 34.4034 76.4741 34.4106 76.3859 34.3816C76.3473 34.3693 73.8759 33.5881 71.9195 34.7494C70.7302 35.45 69.9543 36.7479 69.6163 38.5852C69.6002 38.6644 69.5571 38.7355 69.4945 38.7866C69.432 38.8376 69.3536 38.8655 69.2728 38.8655Z" fill="white"/>
<path id="Vector_24" d="M86.8919 69.5032C86.54 69.5055 86.1917 69.4321 85.8708 69.2878C84.1613 68.5154 83.7934 65.9599 83.7689 65.8548C83.762 65.8009 83.7716 65.7462 83.7966 65.698C83.8217 65.6498 83.8609 65.6104 83.909 65.5851C83.9574 65.56 84.0124 65.5505 84.0664 65.5581C84.1204 65.5656 84.1706 65.5897 84.2102 65.6271C87.6555 68.8692 90.8451 65.6271 90.98 65.4817C91.003 65.4539 91.0314 65.431 91.0636 65.4147C91.0958 65.3983 91.1312 65.3888 91.1673 65.3867C91.2033 65.3846 91.2394 65.3899 91.2733 65.4024C91.3072 65.4149 91.3382 65.4343 91.3643 65.4593C91.3904 65.4843 91.4111 65.5144 91.425 65.5477C91.439 65.5811 91.4458 65.617 91.4452 65.6531C91.4446 65.6892 91.4368 65.7249 91.4218 65.7578C91.4068 65.7907 91.3852 65.8201 91.3583 65.8443C91.325 65.8793 88.0585 69.2248 84.4608 66.5256C84.6815 67.2806 85.1613 68.3928 86.0791 68.8026C86.8813 69.1635 87.9025 68.9393 89.1128 68.1336C89.1416 68.1145 89.1737 68.1012 89.2076 68.0946C89.2414 68.0879 89.2764 68.0881 89.3102 68.0949C89.344 68.1017 89.3761 68.1151 89.4048 68.1344C89.4334 68.1537 89.4581 68.1784 89.4771 68.2071C89.4962 68.2359 89.5095 68.2681 89.5161 68.302C89.5228 68.3358 89.5226 68.3707 89.5158 68.4045C89.509 68.4384 89.4955 68.4705 89.4763 68.4991C89.457 68.5278 89.4323 68.5524 89.4036 68.5714C88.4928 69.1932 87.6433 69.5032 86.8919 69.5032Z" fill="#1D1D1B"/>
</g>
<path id="Vector_25" d="M81.0178 55.3603H80.96C79.8093 55.3528 78.7088 54.8886 77.9004 54.0697C77.092 53.2508 76.642 52.1444 76.6494 50.9937C76.6568 49.8431 77.121 48.7425 77.9399 47.9341C78.7588 47.1257 79.8654 46.6758 81.0161 46.6832H81.0739C82.2241 46.6998 83.3208 47.172 84.1233 47.9962C84.9258 48.8204 85.3686 49.9293 85.3545 51.0795C85.3384 52.2196 84.8745 53.3075 84.0631 54.1084C83.2517 54.9094 82.1579 55.359 81.0178 55.3603ZM81.0178 47.2087C80.0152 47.2154 79.0562 47.6192 78.3508 48.3317C77.6454 49.0442 77.2512 50.0072 77.2546 51.0098C77.2579 52.0124 77.6586 52.9728 78.3688 53.6805C79.0789 54.3883 80.0405 54.7857 81.0431 54.7857C82.0457 54.7857 83.0075 54.3883 83.7176 53.6805C84.4277 52.9728 84.8283 52.0124 84.8316 51.0098C84.835 50.0072 84.4409 49.0442 83.7356 48.3317C83.0302 47.6192 82.0711 47.2154 81.0686 47.2087H81.0178Z" fill="#1D1D1B"/>
<path id="Vector_26" d="M91.7753 53.6261H91.7139C90.501 53.6182 89.341 53.1288 88.4889 52.2656C87.6369 51.4023 87.1626 50.236 87.1705 49.0231C87.1784 47.8102 87.6678 46.6501 88.531 45.798C89.3943 44.9459 90.5607 44.4717 91.7736 44.4796H91.8331C93.0456 44.4967 94.2017 44.994 95.048 45.8626C95.8942 46.7311 96.3612 47.8999 96.3467 49.1124C96.3297 50.3142 95.8408 51.4611 94.9855 52.3056C94.1302 53.1501 92.9772 53.6244 91.7753 53.6261ZM91.7753 45.005C90.7092 45.0122 89.6895 45.4417 88.9395 46.1993C88.1895 46.957 87.7704 47.981 87.774 49.0471C87.7776 50.1131 88.2035 51.1343 88.9586 51.8869C89.7137 52.6394 90.7362 53.062 91.8023 53.062C92.8684 53.062 93.8911 52.6394 94.6462 51.8869C95.4013 51.1343 95.8272 50.1131 95.8308 49.0471C95.8344 47.981 95.4153 46.957 94.6653 46.1993C93.9153 45.4417 92.8956 45.0122 91.8295 45.005H91.7753Z" fill="#1D1D1B"/>
<path id="Vector_27" d="M86.8885 49.5867C86.8242 49.5871 86.7619 49.5641 86.7134 49.5219C85.7203 48.6461 84.9846 49.3853 84.904 49.4728C84.8559 49.5175 84.793 49.5425 84.7273 49.543C84.6617 49.5435 84.5982 49.5194 84.5494 49.4755C84.5007 49.4315 84.4701 49.371 84.4637 49.3057C84.4574 49.2403 84.4758 49.175 84.5152 49.1225C84.9058 48.6934 85.9375 48.1417 87.0603 49.1313C87.1 49.1667 87.128 49.2134 87.1407 49.2652C87.1533 49.317 87.1499 49.3714 87.1309 49.4211C87.1119 49.4709 87.0782 49.5138 87.0343 49.5439C86.9904 49.5741 86.9384 49.5903 86.8851 49.5902L86.8885 49.5867Z" fill="black"/>
<path id="Vector_28" d="M83.2857 53.5256C83.2242 53.5255 83.1638 53.5091 83.1106 53.4783C83.0707 53.4551 83.0359 53.4243 83.008 53.3876C82.98 53.3509 82.9596 53.3091 82.9479 53.2645C82.9362 53.2199 82.9334 53.1734 82.9397 53.1278C82.946 53.0821 82.9612 53.0381 82.9845 52.9983C83.5643 52.0105 83.7237 51.1014 83.4592 50.2957C83.0213 48.9576 81.5448 48.306 81.5325 48.299C81.4902 48.2808 81.4519 48.2545 81.4198 48.2215C81.3876 48.1885 81.3623 48.1495 81.3452 48.1068C81.3281 48.064 81.3196 48.0183 81.3202 47.9722C81.3208 47.9262 81.3304 47.8807 81.3486 47.8383C81.3668 47.796 81.3931 47.7577 81.4261 47.7255C81.4591 47.6934 81.4981 47.6681 81.5409 47.651C81.5836 47.6339 81.6294 47.6254 81.6755 47.626C81.7215 47.6266 81.7669 47.6362 81.8092 47.6544C81.8811 47.6859 83.5853 48.4304 84.1247 50.0715C84.4575 51.0769 84.2771 52.1734 83.5993 53.3522C83.5675 53.4066 83.5215 53.4514 83.4664 53.482C83.4112 53.5125 83.3488 53.5276 83.2857 53.5256Z" fill="white"/>
<path id="Vector_29" d="M94.5582 51.4321C94.4969 51.4317 94.4367 51.4153 94.3838 51.3844C94.3308 51.3535 94.287 51.3092 94.2565 51.256C94.226 51.2028 94.2099 51.1426 94.21 51.0812C94.2101 51.0199 94.2264 50.9597 94.257 50.9066C94.835 49.917 94.9944 49.008 94.73 48.2022C94.2921 46.8641 92.8155 46.2125 92.8033 46.2055C92.7589 46.1888 92.7184 46.1633 92.6842 46.1305C92.65 46.0977 92.6227 46.0584 92.6042 46.0148C92.5856 45.9712 92.5762 45.9242 92.5763 45.8769C92.5764 45.8295 92.5861 45.7826 92.6049 45.7391C92.6236 45.6956 92.6509 45.6564 92.6853 45.6237C92.7196 45.5911 92.7602 45.5657 92.8046 45.5492C92.8491 45.5328 92.8964 45.5255 92.9437 45.5278C92.991 45.5301 93.0374 45.542 93.08 45.5627C93.1518 45.5925 94.856 46.3386 95.3955 47.978C95.7283 48.9834 95.5479 50.0799 94.87 51.2604C94.8382 51.3143 94.7923 51.3586 94.7375 51.3888C94.6827 51.419 94.6208 51.4339 94.5582 51.4321Z" fill="white"/>
</g>
<path id="Vector_30" d="M45.8676 93.8652C35.2691 92.527 44.5767 80.9214 52.2835 78.0909C54.6673 78.7915 63.1729 73.4984 66.0139 74.7822C63.3673 90.4987 55.0982 95.0387 45.8676 93.8652Z" fill="#0598C6"/>
<g id="Group_10">
<g id="Group_11">
<path id="Vector_31" d="M53.9329 61.0542C53.9329 61.0542 56.4971 60.1242 56.8947 58.8193C57.2923 57.5144 57.5235 51.5609 58.9966 48.1927C60.4206 44.9191 63.2388 45.4919 63.6084 51.3069C63.6084 51.3069 65.8486 46.287 68.5127 48.8058C68.5127 48.8058 70.4024 46.8143 74.0438 45.8562C77.1721 45.033 77.7677 48.5693 75.2297 49.9232C73.1016 51.0582 72.2522 51.5119 71.6216 52.1757C71.6216 52.1757 74.0614 54.7014 70.8439 55.4318C70.8439 55.4318 68.9435 56.9924 70.2712 58.2518C71.5989 59.5111 73.1752 53.8607 75.0983 53.1723C77.0215 52.484 78.8151 55.0167 76.3525 59.8282C73.8898 64.6396 73.0893 67.034 69.686 68.8485C67.1481 70.2025 63.3316 73.3307 63.3316 73.3307L53.9329 61.0542Z" fill="#FFCDB2"/>
<path id="Vector_32" d="M63.3165 73.5849H63.2868C63.2174 73.5751 63.1546 73.5386 63.1116 73.4833L53.7288 61.2226C53.7038 61.1898 53.6867 61.1516 53.6792 61.1111C53.6716 61.0706 53.6739 61.0288 53.6855 60.9893C53.6971 60.9497 53.7178 60.9134 53.746 60.8834C53.7743 60.8533 53.8091 60.8303 53.8478 60.8162C54.5274 60.5693 56.3543 59.7163 56.6503 58.7512C56.7711 58.3536 56.8797 57.4603 57.018 56.3323C57.3088 53.9765 57.7449 50.4157 58.7538 48.1001C59.4089 46.5956 60.3863 45.8004 61.3724 45.9738C62.5985 46.1892 63.483 47.8251 63.7895 50.4104C64.3149 49.5083 65.3116 48.1334 66.5692 47.8882C67.233 47.7568 67.8811 47.9495 68.4959 48.4592C69.0564 47.9337 70.892 46.4239 73.9677 45.6147C75.6457 45.1733 76.5949 45.9055 76.919 46.7392C77.3253 47.7761 76.919 49.3314 75.3426 50.1687C73.4492 51.1776 72.5664 51.6487 71.9709 52.2022C72.2984 52.6015 72.957 53.5439 72.6995 54.4091C72.5244 55.0222 71.9306 55.4601 70.948 55.686C70.7729 55.8506 70.0722 56.518 70.0442 57.2221C70.0418 57.3839 70.0755 57.5443 70.1427 57.6915C70.21 57.8387 70.3093 57.9692 70.4332 58.0733C70.4639 58.1116 70.5037 58.1416 70.549 58.1606C70.5942 58.1796 70.6435 58.1869 70.6923 58.1819C71.1529 58.1171 71.8202 56.9909 72.4088 55.9978C73.1987 54.6631 74.0167 53.2829 74.9906 52.9291C75.3508 52.7856 75.7469 52.7579 76.1236 52.8498C76.5003 52.9418 76.8389 53.1489 77.0924 53.4423C77.9506 54.4161 78.2624 56.6353 76.5669 59.951C76.2306 60.606 75.9258 61.2156 75.6421 61.7848C73.8117 65.4631 72.803 67.4756 69.7904 69.0817C67.3032 70.4076 63.5164 73.5043 63.4848 73.5359C63.4361 73.5711 63.3766 73.5884 63.3165 73.5849ZM54.354 61.1718L63.3622 72.9474C64.2029 72.2678 67.3276 69.7946 69.5468 68.6088C72.414 67.0797 73.4002 65.1057 75.178 61.5396C75.4618 60.9686 75.7683 60.3573 76.1046 59.7005C77.681 56.6213 77.448 54.6211 76.7036 53.7803C76.5202 53.5655 76.2734 53.4142 75.9987 53.3481C75.724 53.282 75.4355 53.3046 75.1744 53.4125C74.3775 53.7015 73.5736 55.059 72.8643 56.2552C72.1216 57.5093 71.4806 58.5918 70.7624 58.6916C70.6358 58.7074 70.5073 58.6933 70.3871 58.6504C70.267 58.6075 70.1585 58.537 70.0705 58.4447C69.8916 58.2894 69.7493 58.0964 69.6539 57.8795C69.5585 57.6627 69.5123 57.4274 69.5187 57.1906C69.5555 56.1396 70.6117 55.2639 70.6572 55.2306C70.6891 55.2052 70.7262 55.1873 70.7658 55.1781C71.5803 54.9924 72.0585 54.6806 72.1864 54.2498C72.3896 53.5719 71.696 52.6559 71.4122 52.3598C71.3653 52.3112 71.339 52.2462 71.339 52.1786C71.339 52.1109 71.3653 52.0459 71.4122 51.9973C72.0708 51.2967 72.9536 50.8325 75.0905 49.6958C76.3936 48.9952 76.7509 47.7463 76.4268 46.9196C76.1028 46.0929 75.2393 45.8126 74.0973 46.1121C70.568 47.0404 68.7079 48.9689 68.6903 48.9881C68.6667 49.0134 68.6383 49.0336 68.6067 49.0478C68.5751 49.0619 68.5411 49.0696 68.5065 49.0705C68.437 49.0721 68.3696 49.0463 68.319 48.9987C67.7708 48.4732 67.2314 48.2823 66.6674 48.3944C65.0682 48.7114 63.8649 51.3895 63.8439 51.4175C63.8193 51.4708 63.7778 51.5144 63.7258 51.5416C63.6739 51.5689 63.6143 51.5782 63.5565 51.5681C63.4986 51.558 63.4459 51.5286 63.4068 51.4847C63.3677 51.4409 63.3446 51.3851 63.3412 51.3264C63.1292 47.9828 62.1361 46.6306 61.2778 46.48C60.5579 46.3538 59.775 47.051 59.2321 48.2998C58.2547 50.5488 57.822 54.0623 57.5365 56.3884C57.3946 57.5426 57.2825 58.4552 57.1477 58.8966C56.8026 60.0263 55.0861 60.86 54.354 61.1718Z" fill="#1D1D1B"/>
</g>
<g id="Group_12">
<path id="Vector_33" d="M70.6145 55.4446C70.6145 55.4446 68.6878 55.7108 66.0027 52.3286L70.6145 55.4446Z" fill="#FFCDB2"/>
<path id="Vector_34" d="M70.5114 55.7046C70 55.7046 68.1626 55.4734 65.7963 52.4853C65.7567 52.4304 65.7398 52.3624 65.7491 52.2954C65.7584 52.2284 65.7934 52.1676 65.8464 52.1256C65.8995 52.0836 65.9665 52.0637 66.0339 52.07C66.1012 52.0763 66.1635 52.1084 66.2078 52.1595C68.7353 55.3508 70.5621 55.1791 70.5867 55.1774C70.6212 55.1728 70.6563 55.175 70.69 55.184C70.7236 55.1929 70.7552 55.2084 70.7829 55.2296C70.8105 55.2507 70.8337 55.2771 70.8511 55.3072C70.8686 55.3373 70.8799 55.3706 70.8845 55.4051C70.8891 55.4396 70.8869 55.4747 70.878 55.5083C70.869 55.5419 70.8534 55.5735 70.8323 55.6011C70.8111 55.6288 70.7847 55.652 70.7546 55.6694C70.7245 55.6869 70.6913 55.6982 70.6568 55.7028C70.6084 55.7066 70.5598 55.7072 70.5114 55.7046Z" fill="#1D1D1B"/>
</g>
<g id="Group_13">
<path id="Vector_35" d="M71.608 52.1781C70.6437 50.9904 69.6053 49.8648 68.499 48.8081L71.608 52.1781Z" fill="#FFCDB2"/>
<path id="Vector_36" d="M71.6072 52.4392C71.5675 52.4393 71.5283 52.4304 71.4925 52.4131C71.4567 52.3958 71.4253 52.3706 71.4006 52.3394C70.4434 51.1626 69.4139 50.0465 68.318 48.9975C68.2921 48.974 68.271 48.9456 68.2562 48.9139C68.2414 48.8822 68.2331 48.8479 68.2318 48.813C68.2304 48.778 68.2361 48.7432 68.2484 48.7104C68.2606 48.6777 68.2792 48.6477 68.3033 48.6223C68.3273 48.5969 68.3563 48.5765 68.3883 48.5624C68.4203 48.5483 68.4547 48.5407 68.4897 48.5401C68.5247 48.5395 68.5593 48.5458 68.5918 48.5588C68.6243 48.5718 68.6538 48.5911 68.6787 48.6157C69.7936 49.6818 70.8408 50.8167 71.814 52.0136C71.8569 52.0686 71.8763 52.1382 71.8681 52.2074C71.8599 52.2766 71.8248 52.3398 71.7702 52.3832C71.7239 52.4199 71.6663 52.4397 71.6072 52.4392Z" fill="#1D1D1B"/>
</g>
<g id="Group_14">
<path id="Vector_37" d="M63.6058 51.3115C63.6286 52.175 63.8491 52.3852 63.4866 54.9897L63.6058 51.3115Z" fill="#FFCDB2"/>
<path id="Vector_38" d="M63.4858 55.2467H63.449C63.3801 55.2363 63.318 55.1992 63.2761 55.1436C63.2341 55.0879 63.2159 55.018 63.2249 54.9489C63.4964 53.0222 63.4385 52.446 63.3842 51.8977C63.3666 51.7226 63.3475 51.5474 63.3423 51.3215C63.3408 51.2519 63.3667 51.1846 63.4146 51.1341C63.4625 51.0836 63.5284 51.054 63.598 51.0518C63.6668 51.0517 63.7327 51.0787 63.7818 51.1268C63.831 51.175 63.8593 51.2405 63.8607 51.3092C63.8607 51.5072 63.8817 51.6718 63.8992 51.8452C63.9552 52.3969 64.0183 53.024 63.7381 55.0225C63.7294 55.0837 63.6992 55.1398 63.653 55.1808C63.6069 55.2219 63.5475 55.2452 63.4858 55.2467Z" fill="#1D1D1B"/>
</g>
<g id="Group_15">
<path id="Vector_39" d="M70.6939 58.4565C70.6939 58.4565 67.0244 58.3374 65.9962 60.3061L70.6939 58.4565Z" fill="#FFCDB2"/>
<path id="Vector_40" d="M65.9964 60.5711C65.9544 60.5706 65.9131 60.5604 65.8757 60.5413C65.8152 60.5089 65.7697 60.4542 65.7488 60.3888C65.7278 60.3235 65.7332 60.2525 65.7636 60.191C66.8549 58.0997 70.5469 58.196 70.7028 58.2013C70.7725 58.2036 70.8384 58.2335 70.886 58.2844C70.9337 58.3353 70.9592 58.4031 70.9568 58.4727C70.9545 58.5424 70.9246 58.6083 70.8737 58.656C70.8228 58.7036 70.7551 58.729 70.6854 58.7267C70.6504 58.7267 67.1682 58.6356 66.2294 60.4345C66.2066 60.4762 66.1729 60.5109 66.1319 60.535C66.0909 60.559 66.044 60.5715 65.9964 60.5711Z" fill="#1D1D1B"/>
</g>
<g id="Group_16">
<path id="Vector_41" d="M67.1343 53.5718C67.1288 54.2487 66.9933 54.9182 66.7351 55.544L67.1343 53.5718Z" fill="#FFCDB2"/>
<path id="Vector_42" d="M66.7343 55.8001C66.6963 55.7995 66.6587 55.7912 66.624 55.7756C66.5611 55.7456 66.5125 55.692 66.4889 55.6264C66.4653 55.5608 66.4686 55.4885 66.498 55.4253C66.7388 54.835 66.8659 54.2045 66.8727 53.5669C66.8727 53.4972 66.9004 53.4304 66.9497 53.3811C66.999 53.3319 67.0658 53.3042 67.1354 53.3042C67.2051 53.3042 67.2721 53.3319 67.3214 53.3811C67.3706 53.4304 67.3982 53.4972 67.3982 53.5669C67.3931 54.2828 67.2486 54.9908 66.9726 55.6513C66.9512 55.6962 66.9175 55.7341 66.8753 55.7605C66.8331 55.7868 66.7841 55.8006 66.7343 55.8001Z" fill="#1D1D1B"/>
</g>
</g>
<g id="Group_17">
<path id="Vector_43" d="M44.5829 94.0105C66.3264 88.9118 60.217 76.4952 60.217 76.4952L63.5292 73.1025L54.367 61.0467L50.4067 62.0415C50.4067 62.0415 42.7542 54.2332 24.237 71.978C5.71983 89.7228 37.6749 107.196 40.5158 115.458" fill="#07ACEE"/>
<path id="Vector_44" d="M40.267 115.546C39.4893 113.288 36.4136 110.246 32.83 106.725C26.3003 100.289 18.1715 92.277 18.2328 83.5877C18.2625 79.433 20.2206 75.4641 24.0547 71.7911C31.7807 64.3874 38.5751 60.4534 44.25 60.0961C48.0263 59.8579 50.0019 61.3362 50.4801 61.7548L54.4719 60.7529L63.8759 73.1275L60.5304 76.5535C61.057 77.848 61.3094 79.2377 61.2717 80.6348C61.234 82.0318 60.9071 83.4059 60.3114 84.6701C58.2236 89.0892 52.955 92.3173 44.6422 94.265L44.5215 93.7536C52.6626 91.8444 57.8138 88.7161 59.8334 84.4547C61.7723 80.3631 59.9997 76.6499 59.9805 76.6131L59.8999 76.4379L63.1823 73.075L54.2635 61.3397L50.3243 62.3276L50.2193 62.2207C50.2018 62.2015 48.3048 60.3413 44.2237 60.6163C40.4159 60.8738 33.8896 63.086 24.4191 72.1624C20.6918 75.7356 18.7863 79.5767 18.7582 83.5842C18.6987 92.0511 26.7398 99.9768 33.1995 106.344C36.8199 109.911 39.9465 112.999 40.7627 115.367L40.267 115.546Z" fill="#1D1D1B"/>
</g>
<path id="Vector_45" d="M50.5267 62.4033L54.331 61.4487L63.129 73.0264L59.9482 76.2842L59.971 76.3332C56.8918 74.7148 51.1449 70.611 50.4198 62.307C50.4846 62.3665 50.5267 62.4033 50.5267 62.4033Z" fill="#0598C6"/>
<g id="Group_18">
<path id="Vector_46" d="M121.186 92.0664C102.989 58.1532 119.846 53.2034 119.846 53.2034L119.779 47.6966L134.708 44.8608L136.895 48.8666C136.895 48.8666 145.979 48.5355 149.028 78.1715C152.451 111.421 134.751 114.398 106.96 118.203" fill="#07ACEE"/>
<path id="Vector_47" d="M106.957 118.466C106.888 118.471 106.819 118.448 106.767 118.402C106.714 118.356 106.682 118.291 106.677 118.221C106.672 118.151 106.696 118.083 106.742 118.03C106.788 117.978 106.853 117.945 106.922 117.941C119.761 116.189 131.889 114.522 139.545 109.008C147.525 103.265 150.369 93.7608 148.767 78.181C147.208 63.0284 144.037 55.9242 141.668 52.6314C139.117 49.0985 136.924 49.1108 136.902 49.1125C136.853 49.1132 136.806 49.1008 136.764 49.0768C136.722 49.0528 136.687 49.0179 136.663 48.9759L134.562 45.1383L120.036 47.8952L120.101 53.1848C120.102 53.2418 120.084 53.2975 120.05 53.3434C120.016 53.3892 119.968 53.4227 119.913 53.4388C119.877 53.4511 116.155 54.6018 114.198 59.2994C112.144 64.2247 111.729 73.8844 121.409 91.9252C121.427 91.9557 121.439 91.9895 121.444 92.0246C121.448 92.0596 121.446 92.0953 121.436 92.1293C121.427 92.1634 121.41 92.1952 121.388 92.2228C121.366 92.2505 121.339 92.2733 121.308 92.2901C121.276 92.3068 121.242 92.3171 121.207 92.3203C121.172 92.3236 121.136 92.3196 121.102 92.3088C121.069 92.2979 121.038 92.2804 121.011 92.2572C120.984 92.2341 120.962 92.2057 120.947 92.1739C116.612 84.0941 113.907 76.9741 112.907 71.0084C112.116 66.2793 112.382 62.2613 113.72 59.0787C115.545 54.7174 118.752 53.2987 119.574 52.9992L119.509 47.6815C119.508 47.6199 119.529 47.5599 119.568 47.5122C119.607 47.4645 119.662 47.4321 119.723 47.4205L134.651 44.5866C134.705 44.5757 134.762 44.5826 134.813 44.6062C134.863 44.6299 134.905 44.669 134.931 44.7179L137.047 48.5941C137.643 48.6449 139.699 49.06 142.021 52.2338C145.57 57.0785 148.012 65.7906 149.281 78.1266C150.122 86.294 149.719 92.7887 148.055 97.982C146.496 102.832 143.811 106.575 139.849 109.425C132.088 115.01 119.898 116.68 106.993 118.447L106.957 118.466Z" fill="#1D1D1B"/>
</g>
<path id="Vector_48" d="M136.558 49.0785L134.456 45.2251L120.118 47.9487L120.183 53.2384L120.132 53.2611C123.477 54.3593 130.466 55.4961 136.702 49.0767C136.609 49.0767 136.558 49.0785 136.558 49.0785Z" fill="#0598C6"/>
<g id="Group_19">
<path id="Vector_49" d="M63.5971 103.703C64.4668 103.703 65.1718 102.997 65.1718 102.125C65.1718 101.253 64.4668 100.547 63.5971 100.547C62.7275 100.547 62.0225 101.253 62.0225 102.125C62.0225 102.997 62.7275 103.703 63.5971 103.703Z" fill="#51CEF4"/>
<path id="Vector_50" d="M96.5005 87.6148C97.3702 87.6148 98.0752 86.9082 98.0752 86.0366C98.0752 85.1651 97.3702 84.4585 96.5005 84.4585C95.6309 84.4585 94.926 85.1651 94.926 86.0366C94.926 86.9082 95.6309 87.6148 96.5005 87.6148Z" fill="#51CEF4"/>
<path id="Vector_51" d="M107.813 108.099C107.869 108.429 107.82 108.769 107.67 109.068C107.521 109.368 107.281 109.612 106.983 109.766C106.686 109.919 106.348 109.975 106.017 109.923C105.686 109.872 105.38 109.716 105.144 109.479C104.907 109.243 104.752 108.937 104.701 108.606C104.65 108.275 104.706 107.937 104.86 107.64C105.014 107.343 105.259 107.102 105.559 106.953C105.858 106.805 106.198 106.755 106.527 106.812C106.848 106.867 107.145 107.021 107.375 107.252C107.605 107.482 107.758 107.778 107.813 108.099Z" fill="#51CEF4"/>
<path id="Vector_52" d="M76.2169 118.523C76.2734 118.853 76.2235 119.192 76.0743 119.492C75.9251 119.792 75.6845 120.036 75.3872 120.19C75.0899 120.343 74.7513 120.398 74.4206 120.347C74.0899 120.295 73.7842 120.14 73.5477 119.903C73.3113 119.666 73.1563 119.36 73.1052 119.03C73.0542 118.699 73.1097 118.361 73.2638 118.063C73.4179 117.766 73.6626 117.526 73.9624 117.377C74.2621 117.228 74.6016 117.179 74.9314 117.236C75.2524 117.291 75.5483 117.445 75.7786 117.675C76.0088 117.906 76.162 118.202 76.2169 118.523Z" fill="#51CEF4"/>
<path id="Vector_53" d="M102.023 131.756C102.079 132.086 102.03 132.425 101.88 132.724C101.731 133.024 101.491 133.268 101.193 133.422C100.896 133.576 100.557 133.631 100.227 133.579C99.8959 133.528 99.5903 133.372 99.3538 133.136C99.1173 132.899 98.9623 132.593 98.9113 132.262C98.8602 131.931 98.9157 131.593 99.0698 131.296C99.2239 130.999 99.4686 130.758 99.7684 130.61C100.068 130.461 100.408 130.411 100.737 130.468C101.058 130.524 101.354 130.677 101.585 130.908C101.815 131.138 101.968 131.435 102.023 131.756Z" fill="#51CEF4"/>
<path id="Vector_54" d="M33.9716 92.1327C35.5813 91.7736 36.3099 93.7423 34.8474 94.5148C33.2447 94.8721 32.5161 92.9051 33.9716 92.1327Z" fill="#51CEF4"/>
<path id="Vector_55" d="M28.9729 74.1572C30.5825 73.8069 31.3112 75.7669 29.8486 76.5393C28.239 76.8984 27.5174 74.9297 28.9729 74.1572Z" fill="#51CEF4"/>
<path id="Vector_56" d="M51.8851 79.9727C53.4947 79.6224 54.2234 81.5823 52.7609 82.3547C51.1582 82.7068 50.4296 80.7398 51.8851 79.9727Z" fill="#51CEF4"/>
<path id="Vector_57" d="M38.2973 65.3628C39.907 65.0125 40.6356 66.9742 39.1731 67.7466C37.5704 68.1039 36.8418 66.1387 38.2973 65.3628Z" fill="#51CEF4"/>
<path id="Vector_58" d="M128.11 87.3718C127.191 85.7831 125.308 86.8586 125.833 88.6732C126.753 90.2618 128.634 89.1864 128.11 87.3718Z" fill="#51CEF4"/>
<path id="Vector_59" d="M144.092 76.2189C143.172 74.6302 141.289 75.7057 141.815 77.522C142.736 79.1107 144.617 78.0335 144.092 76.2189Z" fill="#51CEF4"/>
<path id="Vector_60" d="M123.492 62.7955C122.571 61.2069 120.69 62.2823 121.215 64.0987C122.135 65.6873 124.016 64.6119 123.492 62.7955Z" fill="#51CEF4"/>
<path id="Vector_61" d="M143.382 61.3484C142.461 59.7597 140.579 60.8369 141.105 62.6515C142.024 64.2401 143.906 63.1594 143.382 61.3484Z" fill="#51CEF4"/>
</g>
<g id="Group_20">
<g id="Group_21">
<g id="Group_22">
<path id="Vector_62" d="M135.377 49.7974C130.315 50.3789 125.528 50.1266 121.079 48.8585C117.652 47.8712 114.678 45.7168 112.673 42.7683C110.667 39.8198 109.755 36.2628 110.095 32.7129C110.82 25.113 113.829 18.0386 118.804 11.4248C125.787 16.4832 130.432 19.953 139.955 19.3067C133.084 29.7353 126.293 42.0346 135.377 49.7974Z" fill="white"/>
<path id="Vector_63" d="M130.397 50.3546C127.225 50.3778 124.064 49.9592 121.007 49.111C117.519 48.1104 114.492 45.9199 112.451 42.92C110.41 39.9201 109.484 36.3001 109.834 32.6886C110.535 25.2604 113.49 18.0528 118.592 11.2674C118.612 11.2399 118.637 11.2166 118.666 11.1989C118.695 11.1812 118.728 11.1694 118.761 11.1642C118.795 11.159 118.83 11.1605 118.863 11.1685C118.896 11.1766 118.927 11.1912 118.954 11.2113L119.236 11.4162C126.101 16.3906 130.637 19.6747 139.934 19.0407C139.983 19.0372 140.032 19.0474 140.075 19.0703C140.119 19.0931 140.155 19.1276 140.18 19.1699C140.204 19.2121 140.217 19.2605 140.215 19.3095C140.214 19.3584 140.199 19.4061 140.172 19.447C136.904 24.4074 133.371 30.2067 131.94 35.6189C130.353 41.5916 131.534 46.1649 135.552 49.5979C135.59 49.6314 135.619 49.6753 135.633 49.7244C135.647 49.7735 135.647 49.8256 135.632 49.8746C135.616 49.9221 135.587 49.9639 135.547 49.995C135.508 50.0261 135.46 50.0451 135.41 50.0498C133.746 50.2474 132.073 50.3492 130.397 50.3546ZM118.86 11.7893C113.908 18.4451 111.048 25.4828 110.358 32.7377C110.019 36.227 110.913 39.7248 112.885 42.6237C114.856 45.5225 117.781 47.6393 121.151 48.6065C125.241 49.7713 129.816 50.1058 134.76 49.6014C130.935 46.0721 129.845 41.4463 131.432 35.484C132.848 30.1594 136.244 24.4932 139.451 19.5959C138.848 19.6298 138.265 19.6461 137.699 19.645C129.704 19.645 125.312 16.4624 118.935 11.8419L118.86 11.7893Z" fill="#1D1D1B"/>
</g>
<g id="Group_23">
<path id="Vector_64" d="M110.144 36.0454C110.144 36.0454 113.296 41.4191 117.963 40.8656C117.963 40.8656 115.756 46.996 120.085 48.5374C120.085 48.5374 111.356 45.9678 110.144 36.0454Z" fill="#4BD657"/>
<path id="Vector_65" d="M120.01 48.7856C119.919 48.7593 117.751 48.1077 115.403 46.2143C113.237 44.4628 110.52 41.289 109.883 36.0747L109.729 34.8188L110.37 35.9101C110.401 35.9626 113.496 41.1279 117.931 40.6024L118.353 40.5534L118.21 40.9527C118.199 40.986 117.055 44.2281 118.113 46.47C118.315 46.8969 118.602 47.278 118.956 47.5903C119.31 47.9026 119.724 48.1394 120.173 48.2864L120.01 48.7856ZM110.583 37.1519C111.697 42.932 115.531 45.9411 117.998 47.3108C117.86 47.1155 117.74 46.9086 117.639 46.6925C116.7 44.7063 117.307 42.1263 117.593 41.1594C114.221 41.3346 111.718 38.6565 110.583 37.1519Z" fill="black"/>
</g>
<path id="Vector_66" d="M112.43 29.507C112.372 29.507 112.315 29.4957 112.262 29.4736C112.209 29.4516 112.161 29.4193 112.121 29.3786C112.08 29.338 112.048 29.2897 112.026 29.2365C112.004 29.1834 111.993 29.1265 111.994 29.0691C111.994 24.4626 117.719 15.3931 117.964 15.0096C118.028 14.914 118.126 14.847 118.238 14.8231C118.35 14.7992 118.468 14.8202 118.564 14.8817C118.661 14.9432 118.73 15.0402 118.756 15.1519C118.782 15.2636 118.763 15.381 118.704 15.479C118.644 15.5701 112.871 24.7166 112.869 29.0691C112.869 29.1854 112.822 29.2968 112.74 29.3789C112.658 29.4609 112.546 29.507 112.43 29.507Z" fill="white"/>
</g>
<path id="Vector_67" d="M154.701 73.484C154.673 73.4841 154.645 73.48 154.618 73.4718C148.441 71.4453 143.116 68.7024 138.791 65.3167C135.325 62.6053 132.486 59.477 130.365 56.0195C126.739 50.1239 126.441 45.386 126.431 45.1863C126.429 45.1518 126.434 45.1173 126.445 45.0847C126.457 45.0521 126.475 45.0221 126.498 44.9964C126.521 44.9707 126.549 44.9498 126.58 44.9349C126.611 44.92 126.645 44.9114 126.679 44.9096C126.714 44.9077 126.749 44.9127 126.781 44.9242C126.814 44.9357 126.844 44.9535 126.87 44.9766C126.895 44.9997 126.916 45.0276 126.931 45.0588C126.946 45.09 126.954 45.1238 126.956 45.1583C126.956 45.2055 127.265 49.9855 130.831 55.7725C134.124 61.1165 140.953 68.4379 154.785 72.9726C154.843 72.9926 154.893 73.0327 154.925 73.0859C154.957 73.139 154.969 73.2018 154.959 73.2631C154.95 73.3243 154.918 73.3801 154.871 73.4206C154.824 73.461 154.764 73.4835 154.702 73.484H154.701Z" fill="#1D1E1B"/>
<path id="Vector_68" d="M137.583 73.6444C137.539 73.645 137.495 73.6342 137.457 73.6129C128.874 68.9083 125.154 61.7865 123.539 56.6405C121.787 51.0672 122.073 46.5359 122.075 46.4816C122.079 46.412 122.111 46.347 122.164 46.301C122.217 46.255 122.285 46.2318 122.355 46.2364C122.425 46.2411 122.49 46.2732 122.535 46.3258C122.581 46.3783 122.605 46.447 122.6 46.5167C122.6 46.5622 122.322 51.0111 124.047 56.5004C125.634 61.5483 129.301 68.5352 137.709 73.1505C137.761 73.1777 137.802 73.2218 137.826 73.2755C137.85 73.3293 137.855 73.3895 137.841 73.4465C137.826 73.5035 137.793 73.5539 137.746 73.5895C137.699 73.6251 137.641 73.6438 137.583 73.6426V73.6444Z" fill="#1D1E1B"/>
<g id="Group_24">
<g id="Group_25">
<path id="Vector_69" d="M133.315 47.043C133.315 47.043 138.9 48.2848 141.356 42.2228C143.811 36.1607 144.191 29.7869 140.893 25.9335C137.595 22.0801 133.649 21.8314 131.057 23.0277C128.464 24.224 127.981 27.0562 130.128 29.9848C130.128 29.9848 126.084 32.9081 130.163 37.8492C128.464 38.4447 126.995 43.5855 132.001 44.3824C132.183 45.374 132.638 46.2953 133.315 47.043Z" fill="#FFCDB2"/>
<path id="Vector_70" d="M134.479 47.4045C134.067 47.4094 133.657 47.3748 133.252 47.3012L133.168 47.2819L133.112 47.2171C132.45 46.4811 131.989 45.5863 131.774 44.6196C129.728 44.2395 128.471 43.0327 128.315 41.2917C128.187 39.873 128.84 38.3421 129.749 37.7711C128.469 36.1299 127.917 34.5308 128.112 33.0104C128.281 31.8246 128.868 30.7382 129.767 29.947C128.683 28.3811 128.282 26.7767 128.636 25.4105C128.932 24.2633 129.73 23.3612 130.942 22.8008C133.45 21.643 137.614 21.7253 141.089 25.7784C144.156 29.3497 144.345 35.5379 141.595 42.3303C139.801 46.767 136.323 47.4045 134.479 47.4045ZM133.456 46.8055C134.167 46.9351 138.905 47.5779 141.113 42.1272C143.788 35.5187 143.632 29.5337 140.696 26.1147C137.414 22.2928 133.622 22.1422 131.168 23.2754C130.103 23.7676 129.404 24.5505 129.149 25.5402C128.819 26.81 129.243 28.3426 130.341 29.8384L130.497 30.0521L130.284 30.2062C129.394 30.9255 128.806 31.9524 128.637 33.084C128.462 34.5308 129.037 36.0809 130.368 37.6923L130.608 37.983L130.257 38.1074C129.499 38.3719 128.72 39.8011 128.856 41.2444C128.937 42.1447 129.46 43.7193 132.056 44.1327L132.24 44.1625L132.273 44.3376C132.439 45.2514 132.847 46.1038 133.456 46.8055Z" fill="black"/>
</g>
<path id="Vector_71" d="M139.388 32.1855C139.352 32.1853 139.317 32.1781 139.284 32.1643C139.252 32.1505 139.222 32.1303 139.197 32.1049C139.16 32.0646 135.37 28.2043 129.625 30.3657C129.592 30.3817 129.555 30.3905 129.518 30.3916C129.481 30.3928 129.445 30.3861 129.411 30.3721C129.377 30.3581 129.346 30.337 129.32 30.3103C129.295 30.2836 129.275 30.2519 129.263 30.2171C129.251 30.1824 129.246 30.1454 129.249 30.1086C129.251 30.0719 129.262 30.0361 129.28 30.0037C129.297 29.9713 129.321 29.9429 129.351 29.9205C129.38 29.8981 129.414 29.882 129.45 29.8735C135.526 27.586 139.545 31.7003 139.586 31.7406C139.635 31.7899 139.663 31.8567 139.663 31.9263C139.663 31.9959 139.635 32.0627 139.586 32.1119C139.56 32.1374 139.529 32.1571 139.495 32.1698C139.46 32.1825 139.424 32.1878 139.388 32.1855Z" fill="#1D1D1B"/>
<path id="Vector_72" d="M138.031 38.1895C138.005 38.1897 137.978 38.1856 137.954 38.1773C137.908 38.1633 133.328 36.7918 130.215 38.1388C130.151 38.1666 130.079 38.168 130.014 38.1425C129.949 38.1171 129.897 38.0669 129.869 38.003C129.841 37.9391 129.84 37.8668 129.866 37.8019C129.891 37.7371 129.941 37.685 130.005 37.6571C133.298 36.2313 137.912 37.615 138.108 37.6746C138.169 37.6924 138.221 37.7317 138.255 37.7852C138.29 37.8387 138.304 37.9029 138.294 37.9657C138.285 38.0286 138.253 38.0859 138.204 38.1271C138.156 38.1682 138.094 38.1904 138.031 38.1895Z" fill="#1D1D1B"/>
<path id="Vector_73" d="M134.287 44.9803C133.421 44.9723 132.56 44.848 131.727 44.6107C131.66 44.5902 131.604 44.5442 131.571 44.4826C131.539 44.421 131.532 44.3489 131.552 44.2823C131.573 44.2156 131.619 44.1598 131.68 44.1271C131.742 44.0944 131.814 44.0876 131.881 44.108C131.91 44.108 134.809 44.9838 136.529 43.9328C136.559 43.9133 136.592 43.9 136.627 43.8935C136.661 43.8871 136.697 43.8878 136.731 43.8954C136.766 43.9031 136.799 43.9177 136.827 43.9383C136.856 43.9588 136.88 43.985 136.899 44.0152C136.917 44.0453 136.929 44.0789 136.934 44.1139C136.939 44.1488 136.938 44.1845 136.929 44.2187C136.92 44.2528 136.904 44.2848 136.882 44.3128C136.86 44.3407 136.833 44.364 136.802 44.3812C136.053 44.8384 135.135 44.9803 134.287 44.9803Z" fill="#1D1D1B"/>
<path id="Vector_74" d="M141.365 29.5272C141.274 29.5271 141.186 29.4991 141.112 29.4471C141.038 29.3951 140.982 29.3215 140.951 29.2364C140.941 29.2066 139.82 26.1695 137.017 24.8576C135.266 24.0414 133.238 24.0484 130.959 24.8803C130.85 24.9201 130.729 24.9148 130.624 24.8657C130.519 24.8166 130.437 24.7277 130.397 24.6185C130.358 24.5093 130.363 24.3889 130.412 24.2836C130.461 24.1783 130.55 24.0969 130.659 24.0571C133.168 23.1428 135.434 23.1463 137.397 24.0676C140.531 25.5389 141.727 28.7968 141.776 28.9422C141.799 29.0082 141.806 29.0788 141.797 29.148C141.787 29.2173 141.761 29.2833 141.721 29.3405C141.681 29.3977 141.627 29.4445 141.565 29.477C141.503 29.5094 141.435 29.5266 141.365 29.5272Z" fill="white"/>
<path id="Vector_75" d="M139.337 34.7951C139.269 34.7953 139.202 34.7795 139.141 34.7491C139.08 34.7187 139.027 34.6745 138.987 34.62C138.864 34.4448 135.946 30.602 130.978 32.3202C130.923 32.3424 130.864 32.3532 130.805 32.3519C130.746 32.3506 130.687 32.3372 130.633 32.3126C130.579 32.288 130.531 32.2526 130.491 32.2087C130.451 32.1648 130.42 32.1132 130.401 32.057C130.381 32.0009 130.374 31.9414 130.378 31.8822C130.382 31.823 130.399 31.7653 130.426 31.7126C130.453 31.6598 130.491 31.6132 130.537 31.5756C130.583 31.5379 130.636 31.51 130.693 31.4935C136.282 29.5668 139.659 34.056 139.692 34.1015C139.741 34.1666 139.771 34.2439 139.778 34.3249C139.785 34.4059 139.77 34.4873 139.734 34.5601C139.697 34.6328 139.641 34.694 139.572 34.7367C139.503 34.7795 139.423 34.8021 139.342 34.8021L139.337 34.7951Z" fill="white"/>
</g>
<g id="Group_26">
<path id="Vector_76" d="M120.197 23.751C120.197 23.751 122.617 27.6639 129.016 27.8583L120.197 23.751Z" fill="white"/>
<path id="Vector_77" d="M129.011 28.1172C122.544 27.921 120.078 24.0501 119.977 23.8855C119.941 23.8262 119.93 23.7553 119.946 23.6881C119.962 23.6208 120.004 23.5626 120.063 23.5262C120.122 23.4898 120.193 23.478 120.26 23.4935C120.327 23.5089 120.386 23.5503 120.423 23.6087C120.446 23.6472 122.856 27.4043 129.027 27.5917C129.096 27.5917 129.163 27.6194 129.213 27.6686C129.262 27.7179 129.29 27.7847 129.29 27.8544C129.29 27.9241 129.262 27.9909 129.213 28.0402C129.163 28.0895 129.096 28.1172 129.027 28.1172H129.011Z" fill="#1D1D1B"/>
</g>
<g id="Group_27">
<path id="Vector_78" d="M119.033 31.5234C119.033 31.5234 121.679 34.9985 128.132 33.839L119.033 31.5234Z" fill="white"/>
<path id="Vector_79" d="M125.571 34.3396C120.912 34.3396 118.915 31.8069 118.824 31.6808C118.801 31.6536 118.783 31.622 118.773 31.588C118.762 31.5539 118.759 31.5181 118.763 31.4827C118.767 31.4473 118.778 31.413 118.795 31.3819C118.813 31.3509 118.836 31.3237 118.864 31.3021C118.893 31.2804 118.925 31.2648 118.96 31.2561C118.994 31.2473 119.03 31.2457 119.065 31.2513C119.101 31.2569 119.134 31.2696 119.164 31.2886C119.194 31.3077 119.22 31.3326 119.24 31.362C119.267 31.3953 121.884 34.6899 128.084 33.5794C128.154 33.5671 128.225 33.583 128.283 33.6236C128.341 33.6641 128.381 33.7261 128.393 33.7957C128.405 33.8654 128.39 33.9371 128.349 33.9951C128.308 34.0531 128.247 34.0926 128.177 34.1049C127.317 34.26 126.445 34.3386 125.571 34.3396Z" fill="#1D1D1B"/>
</g>
</g>
<g id="Group_28">
<path id="Vector_80" d="M7.96074 0.32958C7.55491 4.10528 7.57141 7.91445 8.00983 11.6865C8.44307 15.4328 9.26488 19.1239 10.462 22.7001C11.6648 26.294 13.2293 29.7564 15.1316 33.0342C17.0259 36.302 19.2566 39.3628 21.7874 42.1667C24.3061 44.9687 27.1255 47.485 30.1948 49.6702C30.5801 49.9452 30.9723 50.2132 31.3664 50.4759C31.4437 50.5366 31.5412 50.5653 31.6389 50.5561C31.7367 50.547 31.8272 50.5008 31.8919 50.4269C31.9549 50.3508 31.9853 50.2528 31.9764 50.1544C31.9675 50.056 31.9202 49.9651 31.8447 49.9014C28.7372 47.8251 25.8688 45.4114 23.2919 42.7044C20.7228 40.0009 18.4438 37.0357 16.4924 33.8574C14.5337 30.677 12.905 27.3047 11.6319 23.7931C10.3536 20.2854 9.44377 16.6542 8.91707 12.9581C8.39346 9.27531 8.27598 5.54612 8.56676 1.83765C8.6053 1.37699 8.64733 0.918092 8.69813 0.457439C8.74892 -0.00321405 8.01325 -0.143348 7.96245 0.336572L7.96074 0.32958Z" fill="black"/>
<path id="Vector_81" d="M0.240874 34.2878C1.41132 36.0275 2.68413 37.6961 4.05234 39.2849C5.4378 40.8878 6.91561 42.4084 8.47838 43.8389C11.5918 46.6886 15.0277 49.1646 18.7161 51.2164C20.5483 52.2359 22.4398 53.1448 24.3805 53.9383L25.1075 54.229C25.1982 54.267 25.2999 54.2688 25.3918 54.2339C25.4837 54.199 25.5587 54.1302 25.6013 54.0416C25.6413 53.9514 25.6442 53.8491 25.6095 53.7567C25.5748 53.6643 25.5052 53.5893 25.4157 53.5477C21.5378 52.0316 17.8546 50.0583 14.4442 47.6695C12.7358 46.4716 11.0983 45.1756 9.5399 43.7881C6.43525 41.0333 3.67152 37.9168 1.3077 34.505C1.15824 34.2913 1.01102 34.0759 0.866225 33.8587C0.598241 33.4594 -0.00954059 33.8885 0.253189 34.2861L0.240874 34.2878Z" fill="black"/>
<path id="Vector_82" d="M110.1 65.1999C110.041 65.2 109.982 65.1795 109.936 65.1419C109.889 65.1043 109.857 65.0518 109.845 64.9932C108.836 60.4532 113.348 54.9114 113.537 54.6784C113.581 54.6245 113.645 54.5905 113.715 54.5837C113.784 54.577 113.853 54.5982 113.907 54.6425C113.961 54.6869 113.995 54.7508 114.002 54.8203C114.009 54.8898 113.988 54.9591 113.943 55.013C113.898 55.0673 109.403 60.5898 110.356 64.8793C110.371 64.9472 110.359 65.0182 110.322 65.077C110.285 65.1358 110.226 65.1774 110.158 65.1929C110.139 65.1969 110.12 65.1993 110.1 65.1999Z" fill="#1D1E1B"/>
<path id="Vector_83" d="M148.48 103.911C148.436 103.91 148.392 103.9 148.353 103.879C148.294 103.846 148.249 103.791 148.23 103.725C148.21 103.66 148.217 103.589 148.248 103.529C153.105 94.6256 151.051 84.6121 151.035 84.5193C151.025 84.453 151.041 84.3854 151.079 84.3304C151.117 84.2753 151.175 84.2369 151.24 84.223C151.306 84.2091 151.374 84.2208 151.431 84.2557C151.489 84.2906 151.53 84.3461 151.548 84.4107C151.569 84.5123 153.662 94.701 148.709 103.781C148.686 103.821 148.652 103.854 148.612 103.877C148.572 103.9 148.526 103.911 148.48 103.911Z" fill="#1D1E1B"/>
<path id="Vector_84" d="M19.1146 94.3134C19.0732 94.3135 19.0323 94.3037 18.9954 94.2848C18.9585 94.2659 18.9268 94.2385 18.9027 94.2048C15.263 89.1796 14.9563 84.5591 15.3399 81.5692C15.755 78.3236 17.0197 76.2954 17.074 76.2095C17.1133 76.1556 17.1715 76.1187 17.237 76.1062C17.3025 76.0937 17.3704 76.1066 17.4267 76.1422C17.4831 76.1779 17.5238 76.2336 17.5406 76.2982C17.5574 76.3627 17.549 76.4312 17.5172 76.4898C17.5049 76.5108 16.2543 78.5233 15.8567 81.6603C15.4923 84.5521 15.7972 89.0167 19.3283 93.8965C19.3689 93.9533 19.3854 94.0238 19.3743 94.0927C19.3631 94.1616 19.3252 94.2233 19.2687 94.2643C19.2238 94.2966 19.1699 94.3138 19.1146 94.3134Z" fill="#1D1E1B"/>
<path id="Vector_85" d="M88.117 35.0095C88.0949 35.0119 88.0726 35.0119 88.0505 35.0095C87.9831 34.9918 87.9257 34.9481 87.8905 34.888C87.8554 34.8279 87.8456 34.7563 87.8632 34.6889L89.4536 28.6812C89.4714 28.6138 89.5152 28.5563 89.5755 28.5213C89.6358 28.4864 89.7076 28.4768 89.775 28.4946C89.8423 28.5125 89.8997 28.5565 89.9347 28.6167C89.9697 28.677 89.9793 28.7487 89.9614 28.8161L88.371 34.8221C88.3552 34.8769 88.3218 34.925 88.2759 34.9589C88.23 34.9928 88.1741 35.0105 88.117 35.0095Z" fill="#1D1E1B"/>
<path id="Vector_86" d="M91.1211 36.2429C91.0847 36.2431 91.0488 36.2356 91.0155 36.2208C90.9823 36.206 90.9526 36.1843 90.9285 36.1571C90.9051 36.1317 90.887 36.1019 90.8751 36.0695C90.8633 36.0371 90.8579 36.0027 90.8594 35.9682C90.8608 35.9337 90.8691 35.8998 90.8837 35.8685C90.8982 35.8373 90.9188 35.8091 90.9442 35.7858L95.0078 32.0761C95.0602 32.0385 95.1246 32.0215 95.1888 32.0283C95.2529 32.0352 95.3122 32.0655 95.3555 32.1133C95.3988 32.1611 95.423 32.2232 95.4234 32.2877C95.4239 32.3523 95.4007 32.4147 95.3581 32.4631L91.2962 36.1834C91.2471 36.224 91.1848 36.2451 91.1211 36.2429Z" fill="#1D1E1B"/>
<g id="Group_29">
<path id="Vector_87" d="M33.162 145.654L33.1594 146.179L128.296 146.644L128.299 146.119L33.162 145.654Z" fill="#1D1E1B"/>
</g>
<path id="Vector_88" d="M44.1705 150.455H20.1832V150.98H44.1705V150.455Z" fill="#1D1E1B"/>
</g>
<path id="Vector_89" d="M24.9118 73.6695C24.8428 73.6696 24.7754 73.6493 24.7179 73.6111C24.6604 73.5729 24.6153 73.5187 24.5886 73.455C24.5618 73.3914 24.5546 73.3213 24.5675 73.2535C24.5805 73.1858 24.6131 73.1233 24.6614 73.074C27.1612 70.608 29.8847 68.3798 32.7972 66.4182C39.0782 62.2303 44.4168 60.787 48.6626 62.1269C48.7065 62.1407 48.7473 62.1631 48.7826 62.1926C48.8179 62.2222 48.847 62.2584 48.8683 62.2992C48.8896 62.3401 48.9028 62.3847 48.9068 62.4305C48.9109 62.4764 48.9059 62.5226 48.8921 62.5666C48.8783 62.6105 48.856 62.6513 48.8264 62.6866C48.7969 62.7219 48.7607 62.751 48.7199 62.7723C48.679 62.7936 48.6344 62.8067 48.5885 62.8108C48.5426 62.8148 48.4964 62.8098 48.4525 62.796C38.7893 59.7449 25.2973 73.4278 25.1571 73.5662C25.0922 73.6316 25.004 73.6687 24.9118 73.6695Z" fill="white"/>
<path id="Vector_90" d="M108.986 81.0235C108.936 81.0236 108.886 81.0128 108.84 80.992C99.0318 76.5203 88.9377 76.2962 88.8378 76.2944C88.7449 76.293 88.6564 76.2548 88.5917 76.1881C88.527 76.1214 88.4914 76.0317 88.4928 75.9388C88.4942 75.8459 88.5325 75.7574 88.5992 75.6927C88.6659 75.628 88.7555 75.5924 88.8484 75.5938C88.9518 75.5938 99.1965 75.8232 109.131 80.3545C109.204 80.3876 109.263 80.4447 109.299 80.5163C109.335 80.5878 109.345 80.6694 109.328 80.7476C109.311 80.8258 109.268 80.8958 109.206 80.946C109.143 80.9962 109.066 81.0236 108.986 81.0235Z" fill="white"/>
</g>
<g id="scales">
<g id="Group_30">
<path id="Vector_91" d="M51.104 126.677L33.3207 125.71L33.4136 125.393L44.9176 85.9834L51.104 126.677ZM34.0143 125.221L50.4874 126.118L44.7599 88.4075L34.0143 125.221Z" fill="#1D1E1B"/>
<path id="Vector_92" d="M135.638 139.252L117.858 138.285L117.951 137.967L129.455 98.5571L135.638 139.252ZM118.548 137.797L135.012 138.693L129.285 100.983L118.548 137.797Z" fill="#1D1E1B"/>
<g id="Group_31">
<path id="Vector_93" d="M131.593 100.013L131.631 99.7583C131.726 99.1054 131.274 98.499 130.621 98.4037L43.3049 85.6657C42.6521 85.5704 42.0456 86.0225 41.9504 86.6753L41.9132 86.9301C41.818 87.5829 42.27 88.1893 42.9228 88.2846L130.239 101.023C130.892 101.118 131.498 100.666 131.593 100.013Z" fill="#4BD657"/>
<path id="Vector_94" d="M43.0335 85.6168C43.0921 85.6166 43.1507 85.6207 43.2087 85.629L130.523 98.3714C130.678 98.3942 130.827 98.4472 130.962 98.5277C131.097 98.6081 131.214 98.7143 131.308 98.8402C131.402 98.9661 131.469 99.1093 131.508 99.2614C131.546 99.4136 131.554 99.5718 131.531 99.7271L131.495 99.9811C131.473 100.137 131.421 100.287 131.341 100.422C131.26 100.557 131.154 100.675 131.028 100.769C130.902 100.863 130.758 100.931 130.606 100.969C130.453 101.007 130.294 101.014 130.139 100.99L42.825 88.2476C42.6698 88.2248 42.5205 88.1718 42.3858 88.0913C42.251 88.0109 42.1334 87.9047 42.0398 87.7788C41.9461 87.6529 41.878 87.5098 41.8396 87.3576C41.8013 87.2054 41.7934 87.0471 41.8162 86.8919L41.853 86.6397C41.8942 86.3559 42.0361 86.0963 42.2529 85.9085C42.4696 85.7207 42.7467 85.6172 43.0335 85.6168ZM43.0335 85.0913C42.6212 85.0934 42.223 85.2428 41.9111 85.5126C41.5992 85.7824 41.3942 86.1548 41.3328 86.5626L41.2959 86.8166C41.2302 87.2681 41.3466 87.7271 41.6191 88.093C41.8917 88.4588 42.2984 88.7015 42.7498 88.7678L130.064 101.51C130.147 101.523 130.23 101.529 130.314 101.529C130.727 101.527 131.125 101.377 131.436 101.107C131.748 100.837 131.953 100.464 132.015 100.056L132.052 99.8024C132.084 99.5789 132.073 99.351 132.017 99.1319C131.962 98.9128 131.864 98.7068 131.729 98.5256C131.594 98.3444 131.425 98.1916 131.231 98.0759C131.036 97.9601 130.821 97.8838 130.598 97.8512L43.284 85.1088C43.201 85.0968 43.1173 85.091 43.0335 85.0913Z" fill="black"/>
</g>
<g id="Group_32">
<path id="Vector_95" d="M53.4425 126.73H30.6147C29.8834 126.73 29.2906 127.322 29.2906 128.053C29.2906 128.784 29.8834 129.377 30.6147 129.377H53.4425C54.1738 129.377 54.7667 128.784 54.7667 128.053C54.7667 127.322 54.1738 126.73 53.4425 126.73Z" fill="#382256"/>
<path id="Vector_96" d="M53.4435 126.728C53.6213 126.722 53.7986 126.751 53.9648 126.815C54.131 126.879 54.2827 126.975 54.4108 127.099C54.5389 127.222 54.6408 127.37 54.7104 127.534C54.78 127.698 54.8158 127.874 54.8158 128.052C54.8158 128.23 54.78 128.406 54.7104 128.57C54.6408 128.733 54.5389 128.881 54.4108 129.005C54.2827 129.128 54.131 129.225 53.9648 129.289C53.7986 129.352 53.6213 129.382 53.4435 129.375H30.614C30.2714 129.363 29.947 129.218 29.709 128.971C29.471 128.724 29.338 128.395 29.338 128.052C29.338 127.709 29.471 127.379 29.709 127.133C29.947 126.886 30.2714 126.741 30.614 126.728H53.4435ZM53.4435 126.203H30.614C30.1336 126.218 29.6778 126.419 29.3432 126.764C29.0085 127.109 28.8213 127.571 28.8213 128.052C28.8213 128.532 29.0085 128.994 29.3432 129.339C29.6778 129.684 30.1336 129.886 30.614 129.901H53.4435C53.6911 129.908 53.9376 129.866 54.1686 129.776C54.3995 129.687 54.6103 129.552 54.7881 129.38C54.9659 129.207 55.1072 129.001 55.2037 128.773C55.3003 128.545 55.35 128.299 55.35 128.052C55.35 127.804 55.3003 127.559 55.2037 127.331C55.1072 127.103 54.9659 126.896 54.7881 126.724C54.6103 126.552 54.3995 126.417 54.1686 126.327C53.9376 126.238 53.6911 126.195 53.4435 126.203Z" fill="#1D1E1B"/>
</g>
<g id="Group_33">
<path id="Vector_97" d="M84.8741 136.635V94.4723C84.8617 94.1297 84.7167 93.8052 84.4699 93.5672C84.2231 93.3293 83.8937 93.1963 83.5509 93.1963C83.208 93.1963 82.8785 93.3293 82.6317 93.5672C82.3849 93.8052 82.24 94.1297 82.2275 94.4723V136.609C77.402 137.122 73.5959 140.592 73.1493 145.458L93.8069 145.955C93.59 143.621 92.5888 141.429 90.9667 139.736C89.3445 138.044 87.1971 136.951 84.8741 136.635Z" fill="#382256"/>
<path id="Vector_98" d="M83.5502 93.1509C83.724 93.1507 83.8962 93.1848 84.0568 93.2511C84.2174 93.3175 84.3635 93.4148 84.4865 93.5377C84.6095 93.6605 84.7069 93.8063 84.7735 93.9669C84.8401 94.1274 84.8744 94.2996 84.8744 94.4734V136.636C87.1974 136.952 89.3448 138.045 90.967 139.738C92.5891 141.43 93.5903 143.622 93.8072 145.956L73.1496 145.459C73.5962 140.593 77.4023 137.123 82.2278 136.61V94.4734C82.2278 94.1226 82.3672 93.7863 82.6152 93.5383C82.8632 93.2903 83.1994 93.1509 83.5502 93.1509ZM83.5502 92.6255C83.0602 92.626 82.5905 92.8208 82.244 93.1672C81.8976 93.5137 81.7028 93.9834 81.7023 94.4734V136.148C79.4475 136.463 77.3449 137.466 75.6823 139.022C73.9168 140.707 72.8297 142.98 72.626 145.411L72.5752 145.97L73.1374 145.984L93.7949 146.48L94.3852 146.496L94.331 145.907C94.1095 143.533 93.116 141.297 91.5027 139.541C89.8894 137.786 87.7451 136.607 85.3982 136.186V94.4734C85.3972 93.9833 85.202 93.5135 84.8552 93.1671C84.5085 92.8207 84.0385 92.626 83.5484 92.6255H83.5502Z" fill="#1D1E1B"/>
</g>
<g id="Group_34">
<path id="Vector_99" d="M136.984 144.594H114.157C113.425 144.594 112.833 145.187 112.833 145.918C112.833 146.648 113.425 147.241 114.157 147.241H136.984C137.716 147.241 138.309 146.648 138.309 145.918C138.309 145.187 137.716 144.594 136.984 144.594Z" fill="#382256"/>
<path id="Vector_100" d="M136.985 144.593C137.327 144.605 137.652 144.75 137.89 144.997C138.128 145.244 138.261 145.573 138.261 145.916C138.261 146.259 138.128 146.588 137.89 146.835C137.652 147.082 137.327 147.227 136.985 147.239H114.155C113.977 147.246 113.8 147.216 113.634 147.153C113.468 147.089 113.316 146.993 113.188 146.869C113.06 146.746 112.958 146.598 112.888 146.434C112.819 146.27 112.783 146.094 112.783 145.916C112.783 145.738 112.819 145.562 112.888 145.398C112.958 145.234 113.06 145.086 113.188 144.963C113.316 144.839 113.468 144.743 113.634 144.679C113.8 144.616 113.977 144.586 114.155 144.593H136.985ZM136.985 144.067H114.155C113.908 144.06 113.661 144.102 113.43 144.191C113.199 144.281 112.989 144.416 112.811 144.588C112.633 144.761 112.492 144.967 112.395 145.195C112.298 145.423 112.249 145.668 112.249 145.916C112.249 146.164 112.298 146.409 112.395 146.637C112.492 146.865 112.633 147.071 112.811 147.244C112.989 147.416 113.199 147.551 113.43 147.641C113.661 147.73 113.908 147.772 114.155 147.765H136.985C137.465 147.75 137.921 147.549 138.256 147.204C138.59 146.859 138.777 146.397 138.777 145.916C138.777 145.435 138.59 144.974 138.256 144.628C137.921 144.283 137.465 144.082 136.985 144.067Z" fill="#1D1E1B"/>
</g>
<path id="Vector_101" d="M92.2366 144.863C92.1655 144.863 92.096 144.841 92.0375 144.801C91.979 144.761 91.9343 144.703 91.909 144.637C89.541 138.323 83.6979 137.929 83.4492 137.915C83.3568 137.909 83.2704 137.868 83.2087 137.799C83.147 137.73 83.1149 137.639 83.1197 137.547C83.1247 137.454 83.1662 137.367 83.2352 137.305C83.3041 137.243 83.395 137.211 83.4877 137.216C83.5525 137.216 90.0314 137.636 92.5641 144.397C92.5804 144.44 92.588 144.486 92.5866 144.532C92.5851 144.578 92.5745 144.624 92.5554 144.666C92.5364 144.708 92.5092 144.745 92.4755 144.777C92.4419 144.808 92.4022 144.833 92.3591 144.849C92.3192 144.86 92.278 144.865 92.2366 144.863Z" fill="white"/>
</g>
<g id="Group_35">
<path id="Vector_102" d="M47.7468 119.246C48.6164 119.246 49.3213 118.539 49.3213 117.667C49.3213 116.796 48.6164 116.089 47.7468 116.089C46.8771 116.089 46.1721 116.796 46.1721 117.667C46.1721 118.539 46.8771 119.246 47.7468 119.246Z" fill="#51CEF4"/>
<g id="money 1">
<g id="Group_36">
<path id="Vector_103" d="M35.2706 126.246C37.4597 126.246 39.2343 124.468 39.2343 122.275C39.2343 120.082 37.4597 118.304 35.2706 118.304C33.0815 118.304 31.3069 120.082 31.3069 122.275C31.3069 124.468 33.0815 126.246 35.2706 126.246Z" fill="white"/>
<path id="Vector_104" d="M35.2714 126.495C34.4365 126.496 33.62 126.25 32.9252 125.787C32.2303 125.324 31.6885 124.665 31.3681 123.894C31.0477 123.123 30.9632 122.275 31.1254 121.456C31.2875 120.637 31.6889 119.884 32.2789 119.293C32.8689 118.703 33.621 118.3 34.4398 118.137C35.2586 117.974 36.1074 118.057 36.8788 118.377C37.6501 118.696 38.3094 119.237 38.7731 119.931C39.2369 120.626 39.4842 121.442 39.4838 122.277C39.4838 123.395 39.0402 124.467 38.2504 125.257C37.4606 126.048 36.3891 126.493 35.2714 126.495ZM35.2714 118.555C34.5351 118.554 33.815 118.771 33.2023 119.18C32.5895 119.588 32.1116 120.169 31.8291 120.849C31.5466 121.529 31.4721 122.277 31.6151 123C31.7581 123.722 32.1122 124.386 32.6325 124.907C33.1528 125.428 33.816 125.783 34.5381 125.927C35.2603 126.071 36.0088 125.998 36.6892 125.716C37.3697 125.434 37.9513 124.957 38.3605 124.345C38.7698 123.733 38.9881 123.013 38.9881 122.277C38.9881 121.291 38.5968 120.345 37.8999 119.647C37.203 118.949 36.2576 118.556 35.2714 118.555Z" fill="black"/>
</g>
<path id="Vector_105" d="M32.4327 121.017C32.1649 121.558 32.1062 122.179 32.2678 122.761C32.4294 123.343 32.7999 123.844 33.3085 124.17C33.3649 124.197 33.4297 124.202 33.4896 124.184C33.5495 124.165 33.6003 124.125 33.6317 124.071C33.6632 124.016 33.6729 123.952 33.6591 123.891C33.6453 123.83 33.6089 123.776 33.5572 123.741C33.1618 123.482 32.8739 123.089 32.7469 122.634C32.62 122.179 32.6627 121.694 32.8672 121.268C32.8989 121.21 32.9074 121.143 32.8908 121.08C32.8741 121.017 32.8337 120.962 32.7779 120.928C32.721 120.896 32.6537 120.887 32.5906 120.904C32.5274 120.921 32.4733 120.961 32.4397 121.017H32.4327Z" fill="black"/>
<path id="Vector_106" d="M36.6951 120.403C37.0305 120.617 37.3041 120.915 37.4885 121.267C37.6728 121.62 37.7616 122.014 37.7461 122.412C37.7359 122.673 37.6765 122.93 37.5709 123.168C37.5396 123.226 37.5314 123.293 37.548 123.356C37.5646 123.419 37.6047 123.474 37.6602 123.508C37.7172 123.541 37.785 123.55 37.8485 123.533C37.9121 123.516 37.9665 123.475 38.0001 123.419C38.2091 122.947 38.2821 122.426 38.211 121.915C38.1398 121.403 37.9272 120.922 37.5972 120.525C37.4161 120.307 37.1987 120.12 36.9545 119.975C36.9264 119.959 36.8953 119.948 36.8631 119.944C36.8309 119.939 36.7981 119.941 36.7666 119.949C36.7031 119.966 36.6486 120.007 36.6154 120.064C36.5822 120.121 36.573 120.188 36.5896 120.252C36.6062 120.315 36.6472 120.37 36.7039 120.403H36.6951Z" fill="black"/>
<path id="Vector_107" d="M34.583 120.566L33.7563 122.707C33.7391 122.77 33.7478 122.838 33.7806 122.896C33.8134 122.953 33.8677 122.995 33.9315 123.013L36.1908 123.588C36.2381 123.599 36.2875 123.596 36.3332 123.58C36.3789 123.563 36.419 123.534 36.4486 123.496C36.4782 123.457 36.4959 123.411 36.4999 123.363C36.5039 123.314 36.494 123.266 36.4712 123.223L35.1522 120.647C35.119 120.59 35.0648 120.549 35.0015 120.533C34.9383 120.516 34.8708 120.525 34.8141 120.557C34.7583 120.592 34.7178 120.646 34.7012 120.709C34.6845 120.773 34.693 120.84 34.7248 120.897L36.042 123.474L36.3222 123.109L34.0628 122.535L34.238 122.84L35.0647 120.699C35.0759 120.667 35.0804 120.633 35.078 120.599C35.0756 120.565 35.0662 120.532 35.0505 120.502C35.0347 120.472 35.0129 120.445 34.9865 120.424C34.96 120.402 34.9295 120.386 34.8967 120.377C34.8639 120.368 34.8295 120.366 34.7958 120.371C34.7621 120.375 34.7298 120.387 34.7007 120.404C34.6716 120.422 34.6464 120.446 34.6268 120.473C34.6071 120.501 34.5934 120.533 34.5864 120.566H34.583Z" fill="black"/>
</g>
<g id="money 1_2">
<g id="Group_37">
<path id="Vector_108" d="M42.9087 127.012C44.9659 126.252 46.0189 123.971 45.2605 121.918C44.5021 119.864 42.2195 118.815 40.1623 119.575C38.1051 120.335 37.0523 122.615 37.8107 124.669C38.5691 126.722 40.8516 127.771 42.9087 127.012Z" fill="white"/>
<path id="Vector_109" d="M37.5998 124.898C37.309 124.115 37.2569 123.264 37.4501 122.452C37.6434 121.64 38.0733 120.903 38.6854 120.335C39.2976 119.767 40.0644 119.394 40.8889 119.262C41.7134 119.13 42.5584 119.246 43.3171 119.595C44.0757 119.943 44.7138 120.509 45.1507 121.221C45.5876 121.932 45.8036 122.757 45.7713 123.592C45.739 124.426 45.46 125.232 44.9694 125.908C44.4789 126.583 43.7989 127.098 43.0155 127.387C41.9672 127.773 40.8085 127.728 39.7933 127.262C38.7782 126.795 37.9894 125.945 37.5998 124.898ZM45.0491 122.148C44.7953 121.457 44.3421 120.856 43.7469 120.423C43.1517 119.989 42.4413 119.742 41.7055 119.712C40.9697 119.682 40.2416 119.872 39.6134 120.256C38.9851 120.64 38.485 121.202 38.1762 121.871C37.8675 122.539 37.7639 123.284 37.8788 124.012C37.9936 124.739 38.3217 125.416 38.8214 125.957C39.3212 126.498 39.97 126.878 40.686 127.05C41.4021 127.222 42.1531 127.178 42.844 126.923C43.77 126.582 44.5232 125.888 44.9379 124.993C45.3527 124.098 45.3952 123.075 45.0561 122.148H45.0491Z" fill="black"/>
</g>
<path id="Vector_110" d="M41.755 120.336C41.1556 120.271 40.5534 120.43 40.0635 120.782C39.5737 121.133 39.2306 121.653 39.0997 122.241C39.0933 122.304 39.1107 122.367 39.1486 122.417C39.1865 122.467 39.2422 122.501 39.3041 122.512C39.366 122.523 39.4298 122.51 39.4825 122.475C39.5352 122.441 39.5731 122.388 39.5884 122.327C39.6937 121.867 39.9627 121.461 40.3451 121.184C40.7275 120.907 41.1974 120.779 41.6675 120.823C41.732 120.833 41.7979 120.817 41.8517 120.78C41.9054 120.743 41.9428 120.687 41.9564 120.623C41.9671 120.558 41.9521 120.492 41.9145 120.438C41.8768 120.385 41.8195 120.348 41.755 120.336Z" fill="black"/>
<path id="Vector_111" d="M43.8074 124.112C43.7017 124.634 43.4075 125.099 42.9807 125.419C42.7711 125.583 42.5338 125.708 42.2801 125.788C42.0316 125.869 41.77 125.902 41.5093 125.885C41.4448 125.875 41.3792 125.891 41.3258 125.928C41.2724 125.966 41.2353 126.022 41.2222 126.086C41.2109 126.151 41.2258 126.217 41.2635 126.271C41.3013 126.325 41.3588 126.362 41.4235 126.373C41.9385 126.405 42.4525 126.293 42.9073 126.049C43.3622 125.806 43.7399 125.44 43.9983 124.993C44.1411 124.747 44.2406 124.479 44.2925 124.2C44.2997 124.137 44.2828 124.073 44.2451 124.023C44.2073 123.972 44.1515 123.937 44.0893 123.926C44.027 123.915 43.9629 123.928 43.9098 123.963C43.8568 123.997 43.8188 124.051 43.8038 124.112H43.8074Z" fill="black"/>
<path id="Vector_112" d="M42.9192 122.199L40.6247 122.166C40.5595 122.172 40.4993 122.203 40.4571 122.253C40.4149 122.304 40.3939 122.368 40.3988 122.433L40.6422 124.753C40.6479 124.801 40.6674 124.846 40.6984 124.884C40.7295 124.921 40.7708 124.948 40.8171 124.963C40.8635 124.977 40.9131 124.977 40.9598 124.964C41.0065 124.951 41.0482 124.924 41.0801 124.887L43.0401 122.759C43.0607 122.734 43.0762 122.705 43.0856 122.674C43.095 122.643 43.0982 122.611 43.095 122.578C43.0918 122.546 43.0822 122.515 43.0669 122.486C43.0517 122.458 43.031 122.432 43.0059 122.412C42.9808 122.391 42.9519 122.376 42.9209 122.366C42.8898 122.357 42.8572 122.354 42.8249 122.357C42.7926 122.36 42.7613 122.369 42.7327 122.385C42.7041 122.4 42.6787 122.421 42.6581 122.446L40.6983 124.574L41.1362 124.71L40.8928 122.391L40.6668 122.659L42.9612 122.693C43.0265 122.686 43.0866 122.655 43.1289 122.605C43.1711 122.555 43.1921 122.49 43.1872 122.425C43.1801 122.36 43.1483 122.3 43.0984 122.258C43.0485 122.216 42.9843 122.195 42.9192 122.199Z" fill="black"/>
</g>
<g id="money 1_3">
<g id="Group_38">
<path id="Vector_113" d="M51.9681 126.224C53.0468 124.319 52.3742 121.899 50.4659 120.818C48.5576 119.738 46.1362 120.406 45.0576 122.311C43.979 124.216 44.6515 126.636 46.5598 127.717C48.4681 128.797 50.8895 128.129 51.9681 126.224Z" fill="white"/>
<path id="Vector_114" d="M52.1753 126.341C51.7652 127.069 51.1486 127.658 50.4035 128.035C49.6585 128.411 48.8183 128.559 47.9895 128.458C47.1608 128.357 46.3805 128.012 45.7476 127.468C45.1147 126.923 44.6576 126.203 44.4341 125.399C44.2106 124.594 44.2308 123.742 44.4921 122.949C44.7534 122.156 45.2441 121.458 45.9021 120.944C46.56 120.43 47.3557 120.123 48.1883 120.061C49.0209 120 49.8531 120.186 50.5796 120.598C51.5518 121.149 52.2659 122.063 52.5651 123.14C52.8642 124.216 52.7241 125.368 52.1753 126.341ZM45.2654 122.428C44.9017 123.069 44.7361 123.803 44.7896 124.537C44.8431 125.272 45.1131 125.974 45.5658 126.555C46.0184 127.135 46.6332 127.569 47.3324 127.8C48.0315 128.032 48.7836 128.05 49.4934 127.854C50.2032 127.658 50.8388 127.256 51.3199 126.698C51.8009 126.14 52.1058 125.453 52.1958 124.722C52.2858 123.991 52.157 123.25 51.8256 122.592C51.4943 121.934 50.9752 121.39 50.3343 121.027C49.4761 120.542 48.4604 120.417 47.5101 120.679C46.5597 120.942 45.7524 121.571 45.2654 122.428Z" fill="black"/>
</g>
<path id="Vector_115" d="M46.0127 126.111C46.3506 126.61 46.8609 126.968 47.4457 127.115C48.0305 127.262 48.6489 127.188 49.1829 126.908C49.4614 126.752 49.2109 126.325 48.9325 126.481C48.5127 126.697 48.0284 126.754 47.5699 126.64C47.1114 126.527 46.7099 126.25 46.4401 125.862C46.4062 125.807 46.3521 125.766 46.2891 125.75C46.2261 125.733 46.1589 125.741 46.1019 125.773C46.0456 125.806 46.0046 125.86 45.9879 125.924C45.9711 125.987 45.9801 126.054 46.0127 126.111Z" fill="black"/>
<path id="Vector_116" d="M47.5771 122.098C48.0436 121.842 48.5878 121.767 49.1063 121.886C49.3666 121.939 49.6151 122.039 49.8401 122.18C50.0618 122.318 50.2557 122.496 50.4112 122.706C50.4457 122.761 50.5001 122.801 50.5632 122.818C50.6264 122.835 50.6936 122.827 50.7509 122.795C50.8073 122.762 50.8483 122.708 50.865 122.644C50.8817 122.581 50.8728 122.514 50.8402 122.457C50.5324 122.043 50.1151 121.723 49.6351 121.533C49.1552 121.343 48.6316 121.29 48.1236 121.382C47.8433 121.43 47.5736 121.528 47.3267 121.669C47.2731 121.704 47.2349 121.758 47.2201 121.82C47.2053 121.882 47.2151 121.948 47.2473 122.003C47.2795 122.058 47.3318 122.099 47.3932 122.117C47.4546 122.134 47.5204 122.128 47.5771 122.098Z" fill="black"/>
<path id="Vector_117" d="M46.6801 124.019L48.1357 125.793C48.1825 125.839 48.2454 125.864 48.3108 125.864C48.3763 125.864 48.4392 125.839 48.486 125.793L50.0991 124.11C50.1323 124.075 50.1544 124.031 50.1631 123.983C50.1718 123.936 50.1667 123.887 50.1482 123.842C50.1297 123.797 50.0987 123.759 50.0589 123.732C50.0192 123.704 49.9723 123.689 49.924 123.688L47.0322 123.565C46.9998 123.565 46.9678 123.572 46.938 123.585C46.9082 123.598 46.8812 123.617 46.8586 123.64C46.836 123.663 46.8181 123.69 46.8061 123.721C46.7941 123.751 46.7882 123.783 46.7887 123.815C46.7905 123.881 46.8177 123.943 46.8644 123.989C46.9112 124.034 46.9739 124.06 47.0393 124.061L49.931 124.183L49.7558 123.759L48.1427 125.443H48.493L47.0374 123.668C46.9906 123.623 46.9277 123.597 46.8622 123.597C46.7967 123.597 46.7339 123.623 46.6871 123.668C46.6425 123.716 46.6178 123.778 46.6178 123.843C46.6178 123.909 46.6425 123.971 46.6871 124.019H46.6801Z" fill="black"/>
</g>
<g id="money 1_4">
<g id="Group_39">
<path id="Vector_118" d="M43.1981 118.606C44.2768 116.701 43.6042 114.281 41.6959 113.201C39.7876 112.12 37.3662 112.789 36.2876 114.693C35.209 116.598 35.8816 119.019 37.7898 120.099C39.6981 121.18 42.1195 120.511 43.1981 118.606Z" fill="white"/>
<path id="Vector_119" d="M43.4067 118.722C42.9966 119.449 42.3802 120.038 41.6355 120.414C40.8907 120.79 40.0511 120.937 39.2229 120.836C38.3946 120.735 37.6148 120.391 36.9823 119.846C36.3498 119.302 35.893 118.582 35.6697 117.778C35.4463 116.974 35.4664 116.122 35.7275 115.33C35.9886 114.537 36.479 113.84 37.1364 113.326C37.7939 112.812 38.589 112.505 39.4211 112.443C40.2532 112.381 41.085 112.568 41.8112 112.979C42.7835 113.53 43.4974 114.444 43.7965 115.521C44.0957 116.597 43.9555 117.749 43.4067 118.722ZM36.4969 114.809C36.1343 115.449 35.9698 116.183 36.0239 116.917C36.078 117.651 36.3485 118.352 36.801 118.932C37.2535 119.512 37.8678 119.945 38.5664 120.177C39.2649 120.408 40.0162 120.427 40.7255 120.231C41.4348 120.035 42.0702 119.634 42.5515 119.077C43.0327 118.521 43.3382 117.834 43.4293 117.104C43.5203 116.373 43.3928 115.633 43.0631 114.975C42.7333 114.317 42.2159 113.772 41.5763 113.408C41.1508 113.166 40.6819 113.011 40.1963 112.951C39.7107 112.89 39.2182 112.926 38.7465 113.056C38.2748 113.187 37.8333 113.408 37.4474 113.709C37.0614 114.01 36.7383 114.384 36.4969 114.809Z" fill="black"/>
</g>
<path id="Vector_120" d="M37.2429 118.503C37.5809 119.002 38.0909 119.36 38.6758 119.507C39.2606 119.654 39.8791 119.58 40.4131 119.3C40.6916 119.144 40.4412 118.715 40.1627 118.871C39.7434 119.088 39.2595 119.145 38.8013 119.031C38.3431 118.918 37.9416 118.642 37.6719 118.254C37.6377 118.199 37.5834 118.158 37.5202 118.141C37.457 118.124 37.3897 118.132 37.3322 118.163C37.2757 118.197 37.2346 118.251 37.2179 118.315C37.2012 118.378 37.2102 118.446 37.2429 118.503Z" fill="black"/>
<path id="Vector_121" d="M38.8079 114.484C39.1594 114.299 39.5532 114.209 39.9502 114.223C40.3471 114.237 40.7335 114.355 41.0709 114.564C41.2922 114.703 41.4858 114.881 41.6418 115.09C41.6761 115.146 41.7303 115.186 41.7935 115.203C41.8568 115.22 41.9242 115.212 41.9817 115.181C42.0382 115.147 42.0792 115.093 42.096 115.029C42.1127 114.966 42.1037 114.898 42.071 114.841C41.7633 114.427 41.3459 114.106 40.866 113.916C40.386 113.726 39.8624 113.674 39.3544 113.766C39.0747 113.816 38.8057 113.913 38.5592 114.055C38.5075 114.09 38.4711 114.144 38.4573 114.205C38.4434 114.266 38.4534 114.33 38.4848 114.384C38.5162 114.439 38.5668 114.479 38.6268 114.497C38.6867 114.516 38.7514 114.511 38.8079 114.484Z" fill="black"/>
<path id="Vector_122" d="M37.9128 116.398L39.3685 118.173C39.4153 118.219 39.4781 118.244 39.5436 118.244C39.6091 118.244 39.672 118.219 39.7188 118.173L41.3319 116.49C41.365 116.454 41.3872 116.41 41.3959 116.363C41.4046 116.315 41.3994 116.266 41.3808 116.222C41.3623 116.177 41.3313 116.139 41.2916 116.112C41.2518 116.084 41.205 116.069 41.1568 116.067L38.265 115.945C38.1998 115.947 38.1377 115.974 38.0923 116.021C38.0468 116.067 38.0214 116.13 38.0215 116.195C38.0237 116.261 38.0513 116.323 38.0983 116.369C38.1453 116.414 38.2082 116.44 38.2738 116.441L41.1638 116.563L40.9886 116.139L39.3736 117.822H39.7239L38.2685 116.048C38.2217 116.002 38.1588 115.977 38.0933 115.977C38.0278 115.977 37.965 116.002 37.9182 116.048C37.8732 116.095 37.848 116.158 37.848 116.223C37.848 116.289 37.8732 116.351 37.9182 116.398H37.9128Z" fill="black"/>
</g>
<g id="money 1_5">
<g id="Group_40">
<path id="Vector_123" d="M47.52 120.888C49.5511 120.072 50.5347 117.761 49.7168 115.726C48.8988 113.691 46.589 112.704 44.5579 113.52C42.5268 114.337 41.5433 116.648 42.3613 118.683C43.1792 120.717 45.4888 121.705 47.52 120.888Z" fill="white"/>
<path id="Vector_124" d="M44.4542 113.229C45.228 112.917 46.0769 112.841 46.8937 113.011C47.7105 113.182 48.4582 113.591 49.0426 114.186C49.6269 114.782 50.0217 115.537 50.1766 116.357C50.3316 117.177 50.2398 118.024 49.913 118.792C49.5863 119.559 49.0392 120.213 48.3409 120.67C47.6427 121.126 46.8247 121.366 45.9904 121.358C45.1561 121.349 44.3429 121.094 43.6539 120.623C42.9648 120.153 42.4309 119.489 42.1194 118.714C41.7026 117.677 41.7143 116.517 42.1521 115.489C42.5898 114.46 43.4178 113.647 44.4542 113.229ZM47.4161 120.596C48.0998 120.322 48.687 119.852 49.1033 119.244C49.5197 118.637 49.7464 117.92 49.755 117.183C49.7636 116.447 49.5535 115.725 49.1514 115.108C48.7492 114.491 48.1731 114.007 47.496 113.717C46.8188 113.428 46.0711 113.346 45.3473 113.482C44.6235 113.618 43.9561 113.965 43.4298 114.48C42.9035 114.995 42.542 115.655 42.3907 116.375C42.2394 117.096 42.3053 117.846 42.58 118.529C42.9463 119.445 43.6614 120.179 44.5683 120.568C45.4752 120.957 46.4995 120.97 47.4161 120.604V120.596Z" fill="black"/>
</g>
<path id="Vector_125" d="M49.1299 117.253C49.1774 116.652 49.0016 116.054 48.6361 115.574C48.2707 115.094 47.7412 114.766 47.1489 114.652C47.0864 114.648 47.0246 114.667 46.9758 114.706C46.9269 114.745 46.8947 114.801 46.8855 114.863C46.8762 114.925 46.8904 114.988 46.9257 115.04C46.9609 115.092 47.0143 115.128 47.0753 115.142C47.5388 115.234 47.9529 115.492 48.2407 115.867C48.5284 116.241 48.6703 116.708 48.6396 117.179C48.6351 117.242 48.6543 117.304 48.6934 117.353C48.7326 117.401 48.7887 117.434 48.8506 117.443C48.9125 117.452 48.9757 117.438 49.0275 117.403C49.0792 117.367 49.1159 117.314 49.1299 117.253Z" fill="black"/>
<path id="Vector_126" d="M45.4083 119.412C45.0182 119.338 44.6544 119.162 44.353 118.904C44.0515 118.645 43.823 118.312 43.6902 117.938C43.602 117.692 43.5615 117.431 43.5709 117.17C43.5786 117.105 43.5611 117.04 43.522 116.987C43.4829 116.935 43.4252 116.9 43.3607 116.888C43.2959 116.879 43.2301 116.895 43.1775 116.935C43.125 116.974 43.0901 117.032 43.0805 117.097C43.0625 117.613 43.189 118.123 43.4456 118.571C43.7021 119.019 44.0785 119.386 44.5326 119.631C44.7824 119.767 45.0538 119.859 45.3348 119.903C45.3972 119.907 45.459 119.888 45.5079 119.849C45.5567 119.81 45.5891 119.753 45.5984 119.692C45.6077 119.63 45.5932 119.567 45.558 119.515C45.5228 119.463 45.4693 119.426 45.4083 119.412Z" fill="black"/>
<path id="Vector_127" d="M47.3014 118.469L47.27 116.175C47.262 116.11 47.2289 116.05 47.1774 116.009C47.126 115.968 47.0603 115.949 46.9949 115.956L44.6847 116.266C44.6366 116.273 44.5916 116.294 44.5551 116.326C44.5186 116.358 44.4923 116.4 44.4791 116.447C44.466 116.494 44.4666 116.544 44.481 116.59C44.4954 116.637 44.523 116.678 44.5604 116.709L46.7445 118.608C46.7704 118.628 46.8 118.643 46.8317 118.651C46.8634 118.66 46.8967 118.662 46.9292 118.658C46.9618 118.654 46.9932 118.643 47.0216 118.627C47.05 118.61 47.0749 118.588 47.0948 118.562C47.1352 118.51 47.1533 118.444 47.1451 118.378C47.1369 118.312 47.1031 118.253 47.051 118.212L44.8686 116.313L44.7443 116.755L47.0546 116.446L46.7813 116.227L46.8128 118.522C46.8207 118.587 46.8537 118.646 46.9048 118.687C46.9558 118.728 47.021 118.747 47.0861 118.741C47.151 118.732 47.21 118.699 47.2508 118.647C47.2916 118.596 47.311 118.531 47.305 118.466L47.3014 118.469Z" fill="black"/>
</g>
</g>
<g id="Group_41">
<g id="Group_42">
<path id="Vector_128" d="M121.423 122.19C121.423 122.19 107.295 136.038 113.592 143.909L137.171 144.528C137.171 144.528 143.263 137.126 131.215 123.348C131.215 123.348 134.298 121.16 134.699 117.393C134.699 117.393 131.58 115.195 129.126 116.491C126.672 117.787 120.738 113.398 119.799 114.583C119.81 114.582 125.276 119.412 121.423 122.19Z" fill="#4BD657"/>
<path id="Vector_129" d="M120.356 114.372C121.869 114.372 125.61 116.728 128.012 116.728C128.401 116.741 128.787 116.658 129.136 116.487C129.673 116.21 130.269 116.069 130.872 116.077C132.85 116.077 134.71 117.389 134.71 117.389C134.309 121.16 131.226 123.344 131.226 123.344C143.266 137.121 137.181 144.523 137.181 144.523L113.602 143.905C107.305 136.023 121.433 122.186 121.433 122.186C125.286 119.413 119.816 114.583 119.816 114.583C119.885 114.509 119.971 114.451 120.065 114.415C120.16 114.38 120.262 114.366 120.363 114.376L120.356 114.372ZM120.363 113.851C120.183 113.838 120.002 113.868 119.836 113.939C119.669 114.009 119.522 114.117 119.405 114.255L119.096 114.646L119.47 114.975C119.498 115.001 122.393 117.594 122.272 119.85C122.233 120.604 121.857 121.23 121.118 121.76L121.086 121.783L121.058 121.811C118.656 124.242 116.524 126.928 114.702 129.819C113.073 132.447 112.045 134.899 111.645 137.099C111.132 139.917 111.645 142.318 113.185 144.24L113.337 144.431H113.581L137.16 145.049H137.416L137.579 144.851C137.647 144.769 139.222 142.812 139.241 139.095C139.251 136.95 138.738 134.646 137.717 132.252C136.51 129.42 134.58 126.446 131.979 123.405C132.893 122.612 134.901 120.541 135.232 117.434L135.265 117.128L135.013 116.953C134.93 116.895 132.991 115.551 130.872 115.551C130.183 115.544 129.503 115.705 128.891 116.022C128.617 116.15 128.317 116.211 128.015 116.198C126.779 116.198 125.071 115.486 123.566 114.858C122.262 114.313 121.134 113.842 120.359 113.842L120.363 113.851Z" fill="black"/>
</g>
<path id="Vector_130" d="M131.504 130.745C131.44 130.745 131.379 130.722 131.331 130.68C131.283 130.638 131.253 130.581 131.244 130.518C131.129 129.626 130.81 128.812 130.502 128.022C129.934 126.566 129.391 125.181 130.656 124.04C126.186 125.07 121.995 121.853 121.799 121.7C121.743 121.657 121.708 121.594 121.699 121.525C121.691 121.456 121.71 121.386 121.753 121.331C121.796 121.276 121.859 121.24 121.928 121.231C121.998 121.223 122.067 121.242 122.122 121.285C122.172 121.324 126.801 124.872 131.306 123.305C131.169 123.134 131.062 122.942 130.987 122.737C130.425 121.187 131.302 119.74 132.309 118.905C133.317 118.069 134.534 117.766 135.276 118.204C135.466 118.31 135.623 118.467 135.729 118.658C135.835 118.848 135.885 119.064 135.875 119.281C135.865 120.092 135.175 121.173 134.112 122.187C135.709 121.678 136.951 121.613 137.878 121.984C138.625 122.285 139.156 122.86 139.503 123.736C139.556 123.858 139.573 123.993 139.554 124.125C139.535 124.257 139.48 124.381 139.394 124.483C138.811 125.202 136.73 125.277 134.975 124.979C134.261 124.858 132.849 124.543 131.884 123.841L131.684 123.955C129.873 124.958 130.318 126.098 130.983 127.824C131.288 128.603 131.633 129.488 131.756 130.451C131.761 130.485 131.758 130.52 131.75 130.553C131.741 130.587 131.725 130.618 131.704 130.645C131.683 130.673 131.657 130.696 131.627 130.713C131.597 130.73 131.564 130.741 131.53 130.745H131.504ZM132.379 123.546C133.017 123.956 133.944 124.279 135.07 124.468C136.996 124.795 138.655 124.573 138.991 124.159C139.018 124.129 139.035 124.091 139.04 124.051C139.045 124.01 139.037 123.969 139.018 123.933C138.729 123.193 138.293 122.707 137.687 122.473C136.636 122.054 135.026 122.298 132.868 123.214C132.705 123.327 132.541 123.44 132.374 123.546H132.379ZM134.464 118.523C133.938 118.523 133.259 118.803 132.649 119.308C131.773 120.031 131.017 121.264 131.486 122.559C131.564 122.761 131.684 122.945 131.836 123.1L131.959 123.045C132.183 122.942 132.404 122.844 132.618 122.753C134.194 121.614 135.348 120.196 135.361 119.274C135.368 119.149 135.339 119.023 135.277 118.914C135.214 118.804 135.122 118.715 135.01 118.656C134.842 118.563 134.651 118.517 134.458 118.523H134.464Z" fill="#1D1D1B"/>
<path id="Vector_131" d="M127.185 124.076C127.154 124.076 127.123 124.071 127.093 124.06C127.061 124.048 127.031 124.03 127.006 124.007C126.98 123.983 126.96 123.955 126.945 123.924C126.931 123.892 126.923 123.858 126.921 123.824C126.92 123.789 126.926 123.755 126.938 123.722C127.719 121.62 125.389 119.135 125.361 119.11C125.315 119.06 125.291 118.993 125.294 118.924C125.296 118.856 125.325 118.791 125.375 118.744C125.424 118.697 125.49 118.671 125.559 118.671C125.627 118.672 125.693 118.7 125.741 118.748C125.848 118.858 128.323 121.489 127.426 123.904C127.408 123.954 127.376 123.997 127.332 124.028C127.289 124.059 127.238 124.076 127.185 124.076Z" fill="#1D1D1B"/>
<path id="Vector_132" d="M128.674 124.233C128.621 124.233 128.569 124.217 128.526 124.187C128.482 124.156 128.449 124.114 128.43 124.065C128.411 124.015 128.407 123.961 128.42 123.91C128.432 123.858 128.459 123.812 128.499 123.776C129.8 122.603 129.702 119.734 129.7 119.706C129.697 119.636 129.722 119.568 129.77 119.517C129.817 119.465 129.883 119.435 129.952 119.432C130.022 119.43 130.09 119.455 130.141 119.502C130.192 119.549 130.223 119.615 130.226 119.685C130.226 119.812 130.334 122.829 128.851 124.165C128.802 124.209 128.739 124.233 128.674 124.233Z" fill="#1D1D1B"/>
<path id="Vector_133" d="M124.751 140.439C123.828 140.439 122.751 140.104 121.598 139.435C121.541 139.399 121.5 139.342 121.484 139.276C121.468 139.209 121.478 139.14 121.512 139.081C121.546 139.022 121.602 138.979 121.667 138.96C121.733 138.942 121.803 138.949 121.863 138.982C123.981 140.208 125.716 140.239 126.615 139.057C127.417 138.006 127.251 136.284 126.249 135.3C125.341 134.408 124.454 134.202 123.669 134.02C122.642 133.781 121.758 133.575 121.777 131.82C121.798 129.847 122.865 128.616 124.627 128.527C126.275 128.443 128 129.392 128.12 130.441C128.123 130.476 128.12 130.511 128.111 130.544C128.101 130.577 128.085 130.608 128.064 130.636C128.042 130.663 128.015 130.685 127.985 130.702C127.954 130.719 127.921 130.73 127.887 130.734C127.852 130.738 127.817 130.735 127.784 130.725C127.75 130.715 127.719 130.699 127.692 130.678C127.665 130.656 127.642 130.629 127.625 130.599C127.609 130.569 127.598 130.535 127.594 130.501C127.515 129.8 126.072 128.979 124.65 129.05C123.783 129.096 122.325 129.515 122.299 131.825C122.283 133.158 122.786 133.275 123.784 133.508C124.594 133.695 125.602 133.93 126.615 134.925C127.815 136.106 128 138.102 127.028 139.376C126.485 140.083 125.695 140.439 124.751 140.439Z" fill="#1D1D1B"/>
<path id="Vector_134" d="M122.864 143.151H122.822C122.753 143.14 122.692 143.102 122.651 143.046C122.61 142.99 122.594 142.92 122.604 142.851L125.128 126.785C125.134 126.75 125.146 126.717 125.164 126.687C125.182 126.657 125.206 126.631 125.234 126.611C125.262 126.59 125.294 126.575 125.328 126.567C125.362 126.558 125.397 126.557 125.431 126.562C125.466 126.567 125.499 126.579 125.529 126.598C125.559 126.616 125.585 126.639 125.605 126.668C125.626 126.696 125.641 126.728 125.649 126.762C125.657 126.795 125.659 126.831 125.654 126.865L123.13 142.932C123.119 142.994 123.086 143.051 123.037 143.091C122.988 143.131 122.927 143.152 122.864 143.151Z" fill="#1D1D1B"/>
<path id="Vector_135" d="M124.946 143.176H124.911C124.842 143.167 124.779 143.131 124.737 143.076C124.694 143.021 124.676 142.951 124.685 142.882L126.879 126.56C126.889 126.49 126.925 126.427 126.981 126.384C127.037 126.341 127.107 126.323 127.177 126.332C127.247 126.341 127.31 126.378 127.353 126.434C127.395 126.489 127.414 126.56 127.405 126.63L125.21 142.952C125.201 143.015 125.169 143.073 125.12 143.114C125.071 143.155 125.009 143.178 124.946 143.176Z" fill="#1D1D1B"/>
<path id="Vector_136" d="M137.065 143.292C137.029 143.292 136.992 143.287 136.957 143.278C136.846 143.249 136.75 143.178 136.691 143.08C136.632 142.982 136.614 142.864 136.641 142.752C138.708 134.641 132.506 127.842 132.438 127.773C132.364 127.687 132.327 127.577 132.334 127.464C132.34 127.351 132.39 127.245 132.473 127.168C132.555 127.091 132.665 127.05 132.778 127.051C132.891 127.053 132.998 127.098 133.079 127.178C133.35 127.469 139.668 134.399 137.484 142.97C137.459 143.062 137.404 143.143 137.329 143.201C137.253 143.259 137.161 143.291 137.065 143.292Z" fill="white"/>
<path id="Vector_137" d="M111.921 132.367C111.897 132.367 111.873 132.363 111.851 132.356C111.817 132.347 111.786 132.332 111.759 132.311C111.731 132.29 111.709 132.263 111.691 132.234C111.674 132.204 111.663 132.17 111.659 132.136C111.655 132.102 111.657 132.067 111.667 132.034C113.329 126.051 118.018 122.98 118.065 122.951C118.123 122.917 118.192 122.908 118.258 122.924C118.323 122.94 118.38 122.98 118.416 123.037C118.453 123.093 118.466 123.162 118.453 123.228C118.441 123.294 118.403 123.353 118.349 123.392C118.303 123.422 113.781 126.391 112.175 132.174C112.159 132.229 112.125 132.278 112.08 132.313C112.034 132.347 111.978 132.366 111.921 132.367Z" fill="#1D1E1B"/>
</g>
</g>
</g>
</svg>
