<svg width="406" height="302" viewBox="0 0 406 302" fill="none" xmlns="http://www.w3.org/2000/svg">
<mask id="mask0_14034_99632" style="mask-type:alpha" maskUnits="userSpaceOnUse" x="0" y="0" width="406" height="302">
<rect width="405.823" height="301.875" fill="#D9D9D9"/>
</mask>
<g mask="url(#mask0_14034_99632)">
<g opacity="0.5">
<mask id="path-2-inside-1_14034_99632" fill="white">
<path d="M389.978 202.564C391.994 156.308 377.371 110.86 348.758 74.4585C320.146 38.0572 279.439 13.1117 234.015 4.14391C188.591 -4.82387 141.458 2.77957 101.158 25.576C60.8587 48.3724 30.0604 84.853 14.3459 128.405L15.1855 128.708C30.8276 85.3568 61.484 49.0443 101.598 26.353C141.712 3.66161 188.628 -3.90679 233.842 5.01966C279.056 13.9461 319.576 38.7766 348.057 75.0102C376.537 111.244 391.093 156.482 389.087 202.526L389.978 202.564Z"/>
</mask>
<path d="M389.978 202.564C391.994 156.308 377.371 110.86 348.758 74.4585C320.146 38.0572 279.439 13.1117 234.015 4.14391C188.591 -4.82387 141.458 2.77957 101.158 25.576C60.8587 48.3724 30.0604 84.853 14.3459 128.405L15.1855 128.708C30.8276 85.3568 61.484 49.0443 101.598 26.353C141.712 3.66161 188.628 -3.90679 233.842 5.01966C279.056 13.9461 319.576 38.7766 348.057 75.0102C376.537 111.244 391.093 156.482 389.087 202.526L389.978 202.564Z" stroke="url(#paint0_linear_14034_99632)" stroke-width="2.84788" stroke-dasharray="4.27 4.27" mask="url(#path-2-inside-1_14034_99632)"/>
</g>
<g opacity="0.5">
<mask id="path-3-inside-2_14034_99632" fill="white">
<path d="M14.6038 260.573C30.4887 304.063 61.4296 340.423 101.818 363.061C142.206 385.7 189.369 393.119 234.758 383.973C280.146 374.828 320.755 349.723 349.225 313.21C377.695 276.697 392.14 231.192 389.943 184.944L389.051 184.986C391.238 231.021 376.859 276.316 348.521 312.661C320.182 349.006 279.76 373.995 234.581 383.098C189.402 392.201 142.457 384.817 102.254 362.282C62.0522 339.748 31.2539 303.556 15.4423 260.266L14.6038 260.573Z"/>
</mask>
<path d="M14.6038 260.573C30.4887 304.063 61.4296 340.423 101.818 363.061C142.206 385.7 189.369 393.119 234.758 383.973C280.146 374.828 320.755 349.723 349.225 313.21C377.695 276.697 392.14 231.192 389.943 184.944L389.051 184.986C391.238 231.021 376.859 276.316 348.521 312.661C320.182 349.006 279.76 373.995 234.581 383.098C189.402 392.201 142.457 384.817 102.254 362.282C62.0522 339.748 31.2539 303.556 15.4423 260.266L14.6038 260.573Z" stroke="url(#paint1_linear_14034_99632)" stroke-width="2.84788" stroke-dasharray="4.27 4.27" mask="url(#path-3-inside-2_14034_99632)"/>
</g>
<circle opacity="0.08" cx="196.502" cy="194.133" r="170.873" fill="url(#paint2_linear_14034_99632)"/>
<circle opacity="0.1" cx="196.505" cy="194.132" r="136.698" fill="url(#paint3_linear_14034_99632)"/>
<circle cx="196.504" cy="194.134" r="91.1321" fill="white"/>
<g filter="url(#filter0_d_14034_99632)">
<circle cx="15.3224" cy="125.091" r="7.11969" transform="rotate(-2.50406 15.3224 125.091)" fill="#0170FF"/>
<circle cx="15.3224" cy="125.091" r="8.13822" transform="rotate(-2.50406 15.3224 125.091)" stroke="white" stroke-width="2.03704"/>
</g>
<g filter="url(#filter1_d_14034_99632)">
<circle cx="389.993" cy="182.517" r="7.11969" transform="rotate(-15.7345 389.993 182.517)" fill="#0170FF"/>
<circle cx="389.993" cy="182.517" r="8.13822" transform="rotate(-15.7345 389.993 182.517)" stroke="white" stroke-width="2.03704"/>
</g>
</g>
<path d="M263.462 98.4402C263.462 98.4402 267.874 113.686 278.137 108.142C288.399 102.599 305.002 94.9156 314.806 109.874C324.609 124.832 329.83 135.67 342.057 132.783C354.284 129.897 377.291 163.886 346.531 181.046C296.113 209.168 237.102 119.533 237.102 119.533L245.058 108.979L263.462 98.4402Z" fill="#382256"/>
<path d="M263.466 98.4403C263.466 98.4403 266.621 109.356 273.811 109.356C275.331 109.32 276.819 108.903 278.137 108.142C283.972 104.999 291.818 101.171 299.315 101.171C305.045 101.171 310.562 103.404 314.806 109.874C323.536 123.182 328.632 133.25 338.287 133.25C339.558 133.241 340.823 133.085 342.057 132.783C342.557 132.667 343.069 132.61 343.582 132.612C356.05 132.612 376.054 164.578 346.531 181.046C340.181 184.633 333.008 186.51 325.714 186.492C281.194 186.492 237.102 119.518 237.102 119.518L245.058 108.963L263.466 98.4247V98.4403ZM264.171 96.6741L262.883 97.4133L244.478 107.971L244.272 108.092L244.128 108.283L236.18 118.829L235.682 119.486L236.138 120.175C244.383 132.19 253.669 143.455 263.89 153.841C273.589 163.629 283.213 171.437 292.491 177.043C304.162 184.096 315.35 187.675 325.722 187.675C333.219 187.683 340.59 185.751 347.118 182.065C354.058 178.194 358.808 173.234 361.236 167.321C363.294 162.314 363.605 156.677 362.131 151.017C360.783 145.872 358.168 141.147 354.525 137.273C351.001 133.569 347.021 131.437 343.601 131.437C342.998 131.435 342.396 131.503 341.808 131.64C340.661 131.918 339.487 132.065 338.307 132.075C330.48 132.075 325.617 124.493 318.887 114.001C317.903 112.465 316.879 110.889 315.798 109.224C311.783 103.101 306.243 99.9964 299.334 99.9964C291.787 99.9964 284.112 103.591 277.604 107.108C276.454 107.773 275.157 108.142 273.83 108.181C267.606 108.181 264.633 98.2068 264.606 98.1057L264.19 96.6896L264.171 96.6741Z" fill="#1D1E1B"/>
<path d="M245.058 108.979L263.462 98.4402C263.462 98.4402 265.637 105.952 270.484 108.512C268.228 114.736 263.323 118.436 256.48 120.323C256.48 120.323 279.086 132.538 288.337 144.174C294.561 151.993 319.435 187.671 306.31 182.609C294.639 178.108 283.474 170.2 273.632 161.474C261.459 142.606 247.419 120.821 242.245 112.713L245.058 108.979Z" fill="#050505"/>
<path d="M223.148 129.951C118.501 136.175 125.764 298.865 125.764 298.865L307.578 299.643C307.578 299.643 305.92 122.797 232.496 125.913" fill="#07ACEE"/>
<path d="M307.578 300.238L125.76 299.46C125.61 299.459 125.466 299.4 125.359 299.295C125.251 299.191 125.187 299.05 125.18 298.9C125.161 298.511 123.488 257.664 134.649 216.602C141.212 192.448 150.867 172.934 163.343 158.599C178.97 140.641 199.083 130.811 223.113 129.379C223.19 129.375 223.266 129.385 223.339 129.41C223.411 129.435 223.478 129.474 223.536 129.525C223.593 129.576 223.64 129.638 223.674 129.707C223.707 129.776 223.727 129.851 223.731 129.928C223.736 130.004 223.726 130.081 223.7 130.154C223.675 130.226 223.636 130.293 223.585 130.351C223.534 130.408 223.473 130.455 223.404 130.488C223.335 130.522 223.259 130.542 223.183 130.546C169.478 133.74 146.012 179.26 135.781 216.882C125.371 255.174 126.168 293.275 126.328 298.293L306.986 299.071C306.431 277.321 304.489 255.628 301.174 234.124C296.117 202.01 285.582 159.431 263.972 138.902C254.791 130.184 244.21 126.014 232.519 126.512C232.365 126.519 232.214 126.464 232.099 126.359C231.985 126.254 231.917 126.109 231.911 125.954C231.904 125.799 231.959 125.648 232.064 125.534C232.168 125.42 232.314 125.352 232.469 125.345C244.486 124.835 255.355 129.111 264.777 138.058C274.441 147.231 282.731 161.454 289.422 180.322C294.763 195.381 299.105 213.428 302.33 233.957C305.693 255.706 307.643 277.65 308.165 299.651C308.166 299.729 308.152 299.806 308.124 299.878C308.095 299.95 308.052 300.016 307.998 300.071C307.885 300.18 307.734 300.24 307.578 300.238Z" fill="#1D1D1B"/>
<path d="M245.766 59.2927C255.391 59.2927 263.194 51.4776 263.194 41.8371C263.194 32.1967 255.391 24.3816 245.766 24.3816C236.141 24.3816 228.338 32.1967 228.338 41.8371C228.338 51.4776 236.141 59.2927 245.766 59.2927Z" fill="#382256"/>
<path d="M245.762 59.8877C242.478 59.8932 239.255 59.003 236.44 57.3126C233.625 55.6223 231.324 53.196 229.785 50.2951C228.247 47.3942 227.529 44.1286 227.708 40.8498C227.888 37.571 228.958 34.4034 230.805 31.6879C232.651 28.9724 235.203 26.812 238.186 25.4393C241.169 24.0666 244.47 23.5336 247.733 23.8977C250.997 24.2618 254.099 25.5092 256.706 27.5057C259.313 29.5021 261.326 32.1719 262.529 35.2276C263.605 37.9622 263.997 40.9181 263.671 43.8387C263.345 46.7593 262.311 49.5562 260.659 51.9864C259.007 54.4165 256.786 56.4065 254.19 57.7835C251.594 59.1605 248.701 59.8828 245.762 59.8877ZM245.762 24.9574C241.585 24.9493 237.554 26.4906 234.448 29.2832C231.343 32.0757 229.383 35.9209 228.949 40.0749C228.515 44.2288 229.636 48.3962 232.097 51.7708C234.558 55.1453 238.184 57.487 242.272 58.343C246.359 59.199 250.62 58.5084 254.228 56.4047C257.836 54.301 260.535 50.9338 261.804 46.9546C263.073 42.9754 262.821 38.6671 261.096 34.8631C259.372 31.0592 256.298 28.03 252.469 26.3617C250.356 25.4383 248.075 24.9603 245.77 24.9574H245.762Z" fill="#1D1E1B"/>
<path d="M192.329 91.4028C192.329 91.4028 181.227 79.7982 187.362 69.4191C193.497 59.0399 196.239 60.2342 199.114 54.5506C201.989 48.867 213.099 43.9186 222.494 47.6066C222.494 47.6066 235.286 39.7172 245.855 43.5101C256.425 47.3031 259.732 52.8156 262.039 61.5725C264.346 70.3294 267.069 74.3675 268.901 80.4674C270.733 86.5673 272.76 103.42 248.648 113.484C224.537 123.548 192.329 91.4028 192.329 91.4028Z" fill="#382256"/>
<path d="M238.573 115.989C230.485 115.989 221.187 112.877 211.143 106.715C204.236 102.427 197.793 97.4334 191.917 91.815C191.804 91.6983 180.581 79.7553 186.86 69.1349C190.307 63.2995 192.715 61.0627 194.64 59.2654C196.158 57.8533 197.363 56.7368 198.589 54.3015C200.114 51.2865 203.693 48.5673 208.163 47.0267C213.01 45.3539 218.063 45.3383 222.432 46.9722C224.335 45.8518 236.025 39.3785 246.05 42.9692C256.841 46.8399 260.292 52.6714 262.599 61.4361C263.671 65.4281 265.054 69.3303 266.734 73.1068C267.775 75.4545 268.685 77.8585 269.457 80.3077C271.013 85.5478 274.192 103.459 248.87 114.028C245.602 115.36 242.101 116.027 238.573 115.989ZM192.75 90.9942C198.562 96.552 204.936 101.491 211.769 105.73C221.744 111.838 236.2 118.047 248.423 112.943C272.842 102.751 269.842 85.6373 268.341 80.6539C267.579 78.2434 266.685 75.8771 265.66 73.5659C263.962 69.7365 262.562 65.7812 261.475 61.7357C259.21 53.146 256.028 47.7892 245.661 44.074C235.48 40.425 222.926 48.042 222.798 48.1198L222.553 48.2716L222.28 48.1627C212.944 44.5058 202.277 49.6059 199.635 54.8305C198.309 57.4525 196.978 58.6896 195.442 60.1213C193.563 61.8719 191.228 64.0465 187.863 69.7301C182.071 79.5141 192.485 90.7141 192.75 90.9942Z" fill="#1D1E1B"/>
<path d="M236.698 84.0813H236.752C244.482 84.8865 252.702 78.0902 253.037 77.7985C253.162 77.6927 253.24 77.5419 253.255 77.3788C253.269 77.2156 253.219 77.0533 253.114 76.9271C253.063 76.8643 252.999 76.8125 252.927 76.7745C252.855 76.7366 252.776 76.7133 252.695 76.706C252.614 76.6988 252.532 76.7078 252.455 76.7324C252.377 76.7569 252.305 76.7967 252.243 76.8493C252.161 76.9154 244.074 83.5988 236.88 82.848C236.8 82.836 236.718 82.84 236.639 82.8597C236.56 82.8794 236.486 82.9144 236.421 82.9628C236.355 83.0112 236.3 83.072 236.258 83.1418C236.216 83.2115 236.188 83.2889 236.176 83.3693C236.164 83.4498 236.168 83.5318 236.188 83.6107C236.208 83.6897 236.243 83.764 236.291 83.8294C236.34 83.8948 236.4 83.9499 236.47 83.9918C236.54 84.0337 236.617 84.0615 236.698 84.0735V84.0813Z" fill="black"/>
<path d="M218.713 120.533C215.273 122.082 212.509 124.823 210.933 128.251C207.937 134.837 211.913 145.368 227.567 139.992C227.567 139.992 228.225 151.087 243.261 145.306C255.982 140.412 259.856 133.694 250.189 129.2C241.802 125.302 218.713 120.533 218.713 120.533Z" fill="white"/>
<path d="M235.651 147.562C233.871 147.616 232.113 147.15 230.594 146.22C228.1 144.617 227.326 142.03 227.093 140.774C217.92 143.727 213.57 140.926 211.785 138.957C209.252 136.172 208.7 131.776 210.411 128.014C212.043 124.443 214.924 121.592 218.511 119.996L218.674 119.934L218.842 119.969C219.787 120.163 242.093 124.797 250.442 128.679C255.301 130.939 256.25 133.511 256.188 135.269C256.063 138.992 251.547 142.754 243.478 145.858C240.506 146.99 237.892 147.562 235.651 147.562ZM228.104 139.191L228.151 139.969C228.151 140.004 228.404 143.443 231.236 145.259C233.862 146.944 237.849 146.78 243.05 144.773C250.442 141.933 254.908 138.366 255.017 135.23C255.083 133.215 253.328 131.317 249.959 129.741C242.117 126.096 220.954 121.607 218.791 121.151C215.57 122.673 212.984 125.275 211.481 128.504C209.96 131.842 210.431 135.728 212.648 138.175C215.476 141.287 220.713 141.746 227.388 139.451L228.104 139.191Z" fill="#1D1E1B"/>
<path d="M221.588 122.867L220.6 128.286C220.6 128.286 233.329 148.309 252.889 130.694C252.889 130.694 246.412 120.031 244.167 99.8833C244.167 99.8833 252.998 99.2415 252.725 91.3832C252.453 83.5249 246.501 81.3308 242.572 82.8791C242.572 82.8791 226.937 90.753 216.714 58.9697C216.714 58.9697 200.705 63.0078 195.317 78.203C189.929 93.3983 190.427 111.966 201.67 118.903C212.913 125.839 221.588 122.867 221.588 122.867Z" fill="#FFCDB2"/>
<path d="M237.059 138.529C236.288 138.528 235.517 138.476 234.753 138.373C225.622 137.125 220.328 128.947 220.106 128.597L219.985 128.407L220.849 123.668C218.289 124.244 210.757 125.174 201.398 119.389C196.017 116.067 192.668 109.955 191.719 101.708C190.874 94.4176 191.972 85.9991 194.804 77.9969C200.223 62.6849 216.433 58.4329 216.589 58.3901L217.118 58.2578L217.285 58.7791C221.327 71.3368 226.871 79.3974 233.317 82.1206C238.374 84.2524 242.292 82.3579 242.331 82.3385H242.377C243.518 81.9089 244.743 81.7555 245.954 81.8907C247.165 82.026 248.327 82.446 249.345 83.1165C251.796 84.7271 253.208 87.6603 253.328 91.3794C253.554 98.4518 246.882 100.07 244.813 100.401C247.073 119.829 253.324 130.305 253.371 130.41L253.62 130.822L253.262 131.145C247.824 136.047 242.377 138.529 237.059 138.529ZM221.214 128.158C222.055 129.367 227.05 136.148 234.92 137.218C240.494 137.996 246.291 135.74 252.157 130.574C250.955 128.383 245.587 117.786 243.599 99.9457L243.533 99.3466L244.136 99.2998C244.474 99.2765 252.402 98.5996 252.173 91.4026C252.037 87.1234 250.228 85.0616 248.715 84.0735C247.856 83.5092 246.877 83.1555 245.856 83.0413C244.835 82.927 243.802 83.0554 242.84 83.416C242.432 83.6105 238.296 85.4895 232.908 83.2331C226.124 80.3894 220.557 72.4688 216.363 59.6855C213.59 60.5452 200.573 65.2175 195.908 78.3976C193.135 86.2364 192.061 94.4682 192.882 101.583C193.516 107.08 195.605 114.456 202.016 118.409C212.862 125.104 221.316 122.346 221.397 122.299L222.339 121.98L221.214 128.158Z" fill="#1D1E1B"/>
<path d="M244.673 96.2693C244.783 96.2913 244.897 96.2826 245.003 96.2442C245.108 96.2058 245.201 96.1392 245.272 96.0516C247.376 93.4607 248.115 91.1731 247.462 89.2552C246.52 86.4932 243.07 85.6529 242.922 85.6179C242.843 85.5984 242.76 85.5948 242.68 85.6077C242.599 85.6205 242.522 85.6493 242.453 85.6925C242.383 85.7356 242.324 85.7923 242.277 85.859C242.23 85.9257 242.196 86.0011 242.179 86.0808C242.142 86.2402 242.169 86.408 242.255 86.5473C242.341 86.6865 242.479 86.7859 242.638 86.8238C242.677 86.8238 245.579 87.5513 246.291 89.6598C246.793 91.1459 246.128 93.0327 244.311 95.2696C244.259 95.3324 244.22 95.4049 244.196 95.4829C244.173 95.561 244.165 95.6429 244.173 95.724C244.181 95.8051 244.206 95.8838 244.245 95.9553C244.284 96.0269 244.337 96.0901 244.4 96.141C244.478 96.2067 244.572 96.2509 244.673 96.2693Z" fill="black"/>
<path d="M213.372 83.6768C222.028 86.0615 234.068 82.8987 235.912 86.1548C237.756 89.411 235.97 93.523 231.162 94.2816C226.354 95.0402 221.646 94.6239 212.045 93.2935C202.444 91.963 193.135 89.9518 194.539 84.8517C195.943 79.7516 200.639 80.1678 213.372 83.6768Z" fill="#FFB49F"/>
<path d="M247.719 102.953C249.294 102.953 250.57 101.674 250.57 100.097C250.57 98.5204 249.294 97.2419 247.719 97.2419C246.144 97.2419 244.867 98.5204 244.867 100.097C244.867 101.674 246.144 102.953 247.719 102.953Z" fill="#07ACEE"/>
<path d="M247.719 97.2421C248.383 97.2444 249.026 97.4778 249.536 97.9023C250.047 98.3269 250.394 98.916 250.518 99.5685C250.642 100.221 250.535 100.896 250.215 101.478C249.895 102.06 249.382 102.513 248.765 102.758C248.433 102.89 248.079 102.957 247.722 102.957C247.058 102.955 246.416 102.721 245.905 102.297C245.394 101.872 245.047 101.283 244.923 100.63C244.799 99.9779 244.907 99.3027 245.227 98.7206C245.546 98.1385 246.059 97.6858 246.676 97.4405C247.008 97.3089 247.362 97.2415 247.719 97.2421ZM247.719 96.075C247.215 96.0742 246.716 96.1693 246.248 96.3551C245.371 96.6953 244.64 97.332 244.183 98.1548C243.726 98.9775 243.572 99.9343 243.748 100.859C243.923 101.783 244.416 102.618 245.143 103.216C245.869 103.815 246.781 104.14 247.722 104.136C248.226 104.136 248.725 104.041 249.193 103.855C250.071 103.515 250.801 102.879 251.258 102.056C251.715 101.233 251.869 100.276 251.693 99.3517C251.518 98.4271 251.025 97.5931 250.299 96.9946C249.573 96.396 248.66 96.0706 247.719 96.075Z" fill="#1D1D1B"/>
<path d="M199.301 87.1974C200.193 87.1974 200.915 86.4728 200.915 85.579C200.915 84.6852 200.193 83.9607 199.301 83.9607C198.409 83.9607 197.686 84.6852 197.686 85.579C197.686 86.4728 198.409 87.1974 199.301 87.1974Z" fill="black"/>
<path d="M219.802 90.9904C220.694 90.9904 221.417 90.2658 221.417 89.372C221.417 88.4782 220.694 87.7537 219.802 87.7537C218.911 87.7537 218.188 88.4782 218.188 89.372C218.188 90.2658 218.911 90.9904 219.802 90.9904Z" fill="black"/>
<path d="M217.002 112.912C214.807 112.912 212.792 111.83 211.014 109.702C210.961 109.644 210.919 109.576 210.893 109.501C210.866 109.427 210.855 109.348 210.86 109.269C210.865 109.19 210.886 109.113 210.922 109.042C210.958 108.971 211.008 108.909 211.069 108.858C211.129 108.807 211.2 108.77 211.276 108.747C211.352 108.724 211.431 108.717 211.51 108.726C211.588 108.736 211.664 108.761 211.733 108.8C211.802 108.839 211.862 108.892 211.909 108.956C213.465 110.819 215.192 111.753 217.048 111.745C220.748 111.714 223.821 107.956 223.852 107.917C223.9 107.857 223.96 107.808 224.027 107.771C224.095 107.735 224.169 107.712 224.245 107.704C224.321 107.696 224.398 107.703 224.472 107.725C224.545 107.747 224.613 107.783 224.673 107.831C224.732 107.88 224.782 107.939 224.818 108.006C224.855 108.074 224.878 108.148 224.886 108.224C224.894 108.3 224.887 108.377 224.865 108.451C224.843 108.524 224.807 108.593 224.759 108.652C224.622 108.823 221.3 112.877 217.056 112.912H217.002Z" fill="#1D1D1B"/>
<path d="M206.284 98.7006C206.209 98.7019 206.135 98.6874 206.066 98.6579C205.923 98.6 205.808 98.4875 205.748 98.3453C205.687 98.2031 205.685 98.0427 205.743 97.8993L211.127 84.6296C211.185 84.4857 211.298 84.3706 211.44 84.3097C211.583 84.2487 211.744 84.247 211.888 84.3048C212.032 84.3626 212.147 84.4751 212.208 84.6178C212.269 84.7604 212.27 84.9215 212.213 85.0654L206.825 98.3466C206.779 98.4523 206.704 98.5424 206.608 98.6053C206.511 98.6683 206.399 98.7014 206.284 98.7006Z" fill="#1D1D1B"/>
<path d="M198.947 75.5346C198.83 75.5331 198.716 75.4966 198.621 75.4299C198.525 75.3633 198.452 75.2695 198.41 75.1606C198.368 75.0517 198.36 74.9328 198.386 74.8191C198.412 74.7055 198.472 74.6024 198.558 74.5231C198.822 74.278 205.097 68.5671 209.19 72.6636C209.247 72.717 209.293 72.7814 209.325 72.8529C209.357 72.9245 209.374 73.0019 209.375 73.0802C209.377 73.1586 209.362 73.2364 209.333 73.309C209.304 73.3817 209.26 73.4477 209.205 73.5032C209.149 73.5586 209.083 73.6022 209.01 73.6316C208.938 73.6609 208.86 73.6753 208.782 73.6739C208.703 73.6725 208.626 73.6554 208.554 73.6235C208.483 73.5916 208.418 73.5457 208.365 73.4883C205.062 70.1816 199.417 75.3284 199.347 75.3789C199.239 75.4806 199.095 75.5364 198.947 75.5346Z" fill="black"/>
<path d="M231.465 79.9886C231.376 79.9882 231.288 79.9673 231.207 79.9275C231.127 79.8877 231.057 79.8301 231.002 79.7591C226.758 74.2349 223.086 76.9348 222.93 77.0554C222.869 77.1021 222.8 77.1364 222.726 77.1563C222.652 77.1763 222.575 77.1814 222.499 77.1714C222.423 77.1615 222.349 77.1367 222.283 77.0984C222.216 77.0601 222.158 77.0091 222.111 76.9483C222.065 76.8876 222.03 76.8182 222.01 76.7441C221.99 76.6701 221.985 76.5928 221.995 76.5168C222.005 76.4407 222.03 76.3674 222.068 76.301C222.106 76.2345 222.157 76.1762 222.218 76.1295C223.375 75.327 224.791 74.9857 226.186 75.1725C228.221 75.4331 230.15 76.7286 231.928 79.0627C231.994 79.1495 232.034 79.2529 232.044 79.3611C232.055 79.4694 232.035 79.5784 231.987 79.676C231.939 79.7736 231.865 79.8559 231.772 79.9139C231.68 79.9718 231.574 80.0031 231.465 80.0042V79.9886Z" fill="black"/>
<path d="M220.3 123.178C220.3 123.178 227.458 121.4 231.372 118.463L220.3 123.178Z" fill="#4BD657"/>
<path d="M220.3 123.766C220.146 123.784 219.99 123.74 219.867 123.644C219.745 123.548 219.665 123.407 219.647 123.252C219.628 123.097 219.672 122.941 219.768 122.819C219.864 122.696 220.005 122.617 220.16 122.598C220.23 122.598 227.248 120.813 231.022 117.981C231.146 117.888 231.301 117.848 231.454 117.87C231.608 117.892 231.746 117.974 231.839 118.097C231.932 118.221 231.972 118.377 231.95 118.53C231.928 118.683 231.846 118.821 231.722 118.914C227.758 121.886 220.74 123.657 220.44 123.731C220.395 123.748 220.348 123.76 220.3 123.766Z" fill="black"/>
<path d="M197.612 97.0317C195.465 97.0317 193.366 96.3949 191.58 95.2019C189.795 94.0088 188.403 92.3131 187.581 90.3291C186.76 88.3451 186.545 86.1621 186.964 84.0559C187.382 81.9497 188.416 80.015 189.935 78.4966C191.453 76.9781 193.388 75.944 195.494 75.525C197.6 75.1061 199.784 75.3212 201.767 76.1429C203.751 76.9647 205.447 78.3564 206.64 80.1419C207.833 81.9275 208.47 84.0266 208.47 86.1741C208.467 89.0528 207.322 91.8126 205.287 93.8482C203.251 95.8837 200.491 97.0286 197.612 97.0317ZM197.612 76.4835C195.696 76.4835 193.822 77.0518 192.229 78.1166C190.635 79.1815 189.393 80.6949 188.66 82.4656C187.926 84.2363 187.734 86.1848 188.108 88.0646C188.482 89.9444 189.405 91.6711 190.76 93.0264C192.116 94.3816 193.842 95.3046 195.722 95.6785C197.602 96.0524 199.55 95.8605 201.321 95.127C203.092 94.3936 204.605 93.1515 205.67 91.5579C206.735 89.9643 207.303 88.0907 207.303 86.1741C207.3 83.6049 206.278 81.1419 204.461 79.3252C202.645 77.5086 200.182 76.4866 197.612 76.4835Z" fill="#1D1E1B"/>
<path d="M222.564 100.945C220.417 100.945 218.318 100.309 216.532 99.1155C214.747 97.9224 213.355 96.2267 212.533 94.2427C211.711 92.2587 211.496 90.0756 211.915 87.9694C212.334 85.8632 213.368 83.9286 214.887 82.4101C216.405 80.8917 218.34 79.8575 220.446 79.4386C222.552 79.0197 224.735 79.2347 226.719 80.0565C228.703 80.8783 230.399 82.2699 231.592 84.0554C232.785 85.8409 233.422 87.9402 233.422 90.0877C233.419 92.9663 232.274 95.7262 230.238 97.7618C228.203 99.7973 225.443 100.942 222.564 100.945ZM222.564 80.3971C220.648 80.3971 218.774 80.9654 217.18 82.0302C215.587 83.095 214.345 84.6085 213.611 86.3792C212.878 88.1499 212.686 90.0984 213.06 91.9782C213.434 93.858 214.357 95.5847 215.712 96.9399C217.067 98.2952 218.794 99.2181 220.674 99.5921C222.553 99.966 224.502 99.7741 226.273 99.0406C228.043 98.3072 229.557 97.065 230.622 95.4714C231.687 93.8778 232.255 92.0043 232.255 90.0877C232.252 87.5185 231.23 85.0555 229.413 83.2388C227.597 81.4221 225.133 80.4002 222.564 80.3971Z" fill="#1D1E1B"/>
<path d="M232.838 90.6713C232.717 90.6716 232.598 90.634 232.499 90.5637C232.4 90.4934 232.325 90.3939 232.286 90.2791C232.246 90.1643 232.243 90.0399 232.277 89.9233C232.311 89.8067 232.381 89.7038 232.477 89.6288L241.774 82.2917C241.834 82.2401 241.903 82.2011 241.978 82.177C242.053 82.1529 242.132 82.1444 242.211 82.1517C242.289 82.1591 242.366 82.1822 242.435 82.2198C242.504 82.2574 242.565 82.3087 242.614 82.3706C242.663 82.4324 242.699 82.5034 242.72 82.5795C242.74 82.6556 242.745 82.735 242.734 82.8131C242.724 82.8911 242.697 82.9662 242.656 83.0337C242.616 83.1012 242.562 83.1599 242.498 83.206L233.2 90.5468C233.097 90.6272 232.97 90.6711 232.838 90.6713Z" fill="#1D1E1B"/>
<path d="M212.318 89.9555C212.204 89.9554 212.092 89.9223 211.997 89.8602C211.902 89.798 211.827 89.7095 211.781 89.6054C211.034 87.8898 207.89 88.4111 207.855 88.4189C207.705 88.4425 207.552 88.4064 207.427 88.3183C207.303 88.2303 207.219 88.0971 207.191 87.9474C207.164 87.7978 207.196 87.6433 207.281 87.517C207.366 87.3907 207.496 87.3025 207.645 87.2713C207.813 87.2402 211.726 86.5555 212.85 89.1386C212.883 89.2093 212.901 89.2856 212.903 89.3632C212.905 89.4408 212.892 89.5181 212.864 89.5905C212.836 89.663 212.794 89.7291 212.74 89.7851C212.687 89.8411 212.622 89.8859 212.551 89.9167C212.477 89.9461 212.397 89.9593 212.318 89.9555Z" fill="#1D1E1B"/>
<path d="M146.18 271.147H118.337V296.85H146.18V271.147Z" fill="#4BD657"/>
<path d="M146.763 297.426H117.754V270.583H146.763V297.426ZM118.921 296.259H145.596V271.75H118.921V296.259Z" fill="black"/>
<path d="M211.971 147.278H52.5454C46.8883 147.278 42.3024 151.864 42.3024 157.521V268.401C42.3024 274.058 46.8883 278.644 52.5454 278.644H211.971C217.628 278.644 222.214 274.058 222.214 268.401V157.521C222.214 151.864 217.628 147.278 211.971 147.278Z" fill="#4BD657"/>
<path d="M211.971 279.227H52.561C49.6909 279.224 46.9393 278.082 44.9102 276.053C42.8812 274.023 41.7405 271.271 41.7384 268.401V157.529C41.7405 154.659 42.8812 151.907 44.9102 149.877C46.9393 147.847 49.6909 146.705 52.561 146.702H211.991C214.861 146.705 217.613 147.847 219.643 149.877C221.673 151.906 222.814 154.658 222.817 157.529V268.401C222.814 271.274 221.67 274.029 219.636 276.06C217.602 278.09 214.845 279.229 211.971 279.227ZM52.561 147.862C50.0004 147.865 47.5458 148.884 45.7356 150.695C43.9254 152.505 42.9075 154.961 42.9055 157.521V268.393C42.9075 270.954 43.9254 273.409 45.7356 275.22C47.5458 277.03 50.0004 278.049 52.561 278.052H211.991C214.552 278.049 217.007 277.031 218.818 275.22C220.628 273.409 221.647 270.954 221.65 268.393V157.521C221.647 154.96 220.628 152.505 218.818 150.694C217.007 148.883 214.552 147.865 211.991 147.862H52.561Z" fill="black"/>
<path d="M203.615 156.56H59.1121C53.1779 156.56 48.3674 161.371 48.3674 167.305V245.767C48.3674 251.702 53.1779 256.512 59.1121 256.512H203.615C209.549 256.512 214.36 251.702 214.36 245.767V167.305C214.36 161.371 209.549 156.56 203.615 156.56Z" fill="white"/>
<path d="M203.615 156.56C206.464 156.561 209.197 157.694 211.212 159.709C213.227 161.723 214.359 164.456 214.36 167.305V245.764C214.36 248.614 213.228 251.347 211.213 253.363C209.198 255.378 206.465 256.511 203.615 256.512H59.1161C56.2653 256.512 53.5313 255.38 51.5155 253.364C49.4997 251.348 48.3674 248.614 48.3674 245.764V167.305C48.3684 164.455 49.5013 161.722 51.517 159.707C53.5327 157.692 56.266 156.56 59.1161 156.56H203.615ZM203.615 155.393H59.1161C55.9574 155.396 52.9289 156.652 50.6951 158.885C48.4612 161.119 47.2044 164.147 47.2003 167.305V245.764C47.2034 248.923 48.4598 251.952 50.6937 254.186C52.9277 256.42 55.9568 257.676 59.1161 257.679H203.615C206.774 257.675 209.802 256.418 212.035 254.185C214.268 251.951 215.524 248.922 215.527 245.764V167.305C215.523 164.147 214.266 161.12 212.033 158.887C209.8 156.654 206.773 155.397 203.615 155.393Z" fill="black"/>
<path d="M159.161 293.831H103.83C102.253 293.831 100.975 295.11 100.975 296.687C100.975 298.264 102.253 299.542 103.83 299.542H159.161C160.738 299.542 162.017 298.264 162.017 296.687C162.017 295.11 160.738 293.831 159.161 293.831Z" fill="#4BD657"/>
<path d="M159.154 300.126H103.83C102.918 300.126 102.044 299.763 101.399 299.118C100.754 298.474 100.392 297.599 100.392 296.687C100.392 295.775 100.754 294.9 101.399 294.255C102.044 293.61 102.918 293.248 103.83 293.248H159.154C160.066 293.248 160.94 293.61 161.585 294.255C162.23 294.9 162.592 295.775 162.592 296.687C162.592 297.599 162.23 298.474 161.585 299.118C160.94 299.763 160.066 300.126 159.154 300.126ZM103.823 294.415C103.22 294.415 102.642 294.654 102.216 295.08C101.79 295.506 101.551 296.084 101.551 296.687C101.551 297.289 101.79 297.867 102.216 298.293C102.642 298.719 103.22 298.959 103.823 298.959H159.154C159.756 298.959 160.334 298.719 160.76 298.293C161.186 297.867 161.425 297.289 161.425 296.687C161.425 296.084 161.186 295.506 160.76 295.08C160.334 294.654 159.756 294.415 159.154 294.415H103.823Z" fill="black"/>
<path d="M95.9371 275.252H59.7579C59.5 275.252 59.2527 275.149 59.0703 274.967C58.8879 274.784 58.7853 274.537 58.7853 274.279C58.7853 274.021 58.8879 273.774 59.0703 273.591C59.2527 273.409 59.5 273.306 59.7579 273.306H95.9371C96.1951 273.306 96.4424 273.409 96.6248 273.591C96.8071 273.774 96.9097 274.021 96.9097 274.279C96.9097 274.537 96.8071 274.784 96.6248 274.967C96.4424 275.149 96.1951 275.252 95.9371 275.252Z" fill="white"/>
<path d="M38.1671 157.961H37V222.539H38.1671V157.961Z" fill="#1D1E1B"/>
<path d="M99.4383 136.759C99.33 136.759 99.2239 136.729 99.1319 136.672C99.0398 136.615 98.9654 136.533 98.917 136.436C86.7873 111.978 87.538 87.0301 90.304 70.3837C93.2995 52.3719 99.2515 39.9544 99.3021 39.8338C99.3329 39.7611 99.3782 39.6954 99.4352 39.6408C99.4922 39.5861 99.5596 39.5435 99.6335 39.5157C99.7074 39.4879 99.7862 39.4754 99.8651 39.4788C99.9439 39.4823 100.021 39.5018 100.092 39.536C100.164 39.5703 100.227 39.6186 100.279 39.6781C100.331 39.7376 100.37 39.807 100.394 39.8821C100.419 39.9572 100.428 40.0365 100.42 40.1151C100.413 40.1937 100.39 40.27 100.352 40.3394C100.294 40.4639 94.412 52.7532 91.4477 70.6133C88.7245 87.0651 87.9775 111.753 99.9595 135.915C99.9935 135.983 100.014 136.057 100.019 136.133C100.024 136.209 100.015 136.286 99.9906 136.358C99.9664 136.43 99.9282 136.497 99.8782 136.554C99.8281 136.612 99.7671 136.659 99.6989 136.693C99.6185 136.735 99.5292 136.758 99.4383 136.759Z" fill="#1D1D1B"/>
<path d="M167.047 187.091L169.898 172.059C170.202 170.46 171.108 169.039 172.429 168.09C173.751 167.141 175.386 166.736 176.998 166.959L188.587 168.562C190.235 168.791 191.726 169.659 192.74 170.977C193.755 172.295 194.211 173.96 194.01 175.611L185.946 242.009C185.758 243.548 185.014 244.965 183.854 245.993C182.694 247.02 181.197 247.588 179.647 247.588H159.185C158.213 247.587 157.253 247.363 156.382 246.933C155.51 246.503 154.748 245.879 154.156 245.107C153.564 244.336 153.157 243.44 152.967 242.486C152.776 241.533 152.807 240.548 153.058 239.609L166.934 187.542C166.985 187.39 167.02 187.243 167.047 187.091Z" fill="#0598C6"/>
<path d="M176.123 166.901C176.415 166.901 176.708 166.92 176.998 166.959L188.587 168.562C190.235 168.791 191.726 169.659 192.74 170.977C193.754 172.295 194.211 173.96 194.01 175.611L185.946 242.009C185.758 243.548 185.014 244.965 183.854 245.993C182.694 247.021 181.197 247.588 179.647 247.588H159.185C158.212 247.587 157.253 247.363 156.381 246.933C155.51 246.503 154.748 245.879 154.156 245.108C153.564 244.336 153.157 243.44 152.966 242.486C152.776 241.533 152.807 240.549 153.057 239.609L166.934 187.542C166.977 187.391 167.012 187.243 167.039 187.091L169.891 172.059C170.166 170.609 170.938 169.301 172.074 168.359C173.21 167.418 174.639 166.902 176.115 166.901H176.123ZM176.115 165.344C174.276 165.345 172.496 165.987 171.08 167.161C169.665 168.334 168.703 169.965 168.362 171.771L165.51 186.799C165.487 186.912 165.463 187.029 165.432 187.142L151.548 239.209C151.236 240.378 151.198 241.604 151.435 242.791C151.672 243.978 152.179 245.095 152.916 246.055C153.653 247.015 154.601 247.793 155.687 248.329C156.772 248.864 157.966 249.143 159.177 249.144H179.64C181.569 249.142 183.432 248.435 184.876 247.155C186.321 245.875 187.248 244.112 187.482 242.196L195.547 175.798C195.788 173.743 195.217 171.675 193.955 170.036C192.693 168.396 190.841 167.315 188.793 167.021L177.204 165.418C176.843 165.369 176.479 165.344 176.115 165.344Z" fill="black"/>
<path d="M121.418 175.696L128.561 136.249C128.945 134.132 129.759 132.116 130.952 130.325C132.145 128.534 133.691 127.006 135.497 125.835C138.918 123.618 143.064 122.812 147.067 123.587L190.17 131.935C190.489 131.995 190.793 132.118 191.064 132.296C191.335 132.475 191.568 132.706 191.749 132.975C191.93 133.244 192.056 133.547 192.119 133.865C192.181 134.184 192.18 134.511 192.115 134.829L175.699 215.556C175.616 215.966 175.429 216.348 175.157 216.666C174.884 216.984 174.535 217.226 174.142 217.37C173.749 217.514 173.325 217.555 172.912 217.489C172.499 217.422 172.109 217.251 171.781 216.991L122.313 178.058C121.963 177.783 121.695 177.417 121.537 177.001C121.38 176.585 121.339 176.134 121.418 175.696Z" fill="white"/>
<path d="M144.071 123.299C145.076 123.3 146.079 123.396 147.067 123.587L190.17 131.935C190.489 131.995 190.793 132.118 191.064 132.296C191.335 132.475 191.568 132.706 191.749 132.975C191.93 133.244 192.056 133.547 192.119 133.865C192.181 134.184 192.18 134.511 192.115 134.829L175.699 215.556C175.615 215.966 175.429 216.348 175.156 216.665C174.884 216.983 174.535 217.225 174.142 217.369C173.749 217.514 173.326 217.555 172.913 217.49C172.5 217.424 172.11 217.254 171.781 216.995L122.313 178.058C121.963 177.783 121.695 177.417 121.537 177.001C121.38 176.585 121.339 176.134 121.418 175.696L128.561 136.249C128.945 134.132 129.759 132.116 130.952 130.325C132.145 128.534 133.691 127.006 135.497 125.835C138.046 124.183 141.018 123.303 144.055 123.299H144.071ZM144.055 122.132C140.089 122.132 136.249 123.525 133.204 126.067C130.16 128.61 128.105 132.14 127.398 136.043L120.255 175.486C120.134 176.135 120.194 176.804 120.427 177.422C120.66 178.039 121.058 178.581 121.578 178.987L171.034 217.921C171.669 218.426 172.456 218.7 173.267 218.699C174.102 218.698 174.912 218.41 175.559 217.882C176.206 217.354 176.651 216.619 176.819 215.801L193.236 135.074C193.331 134.606 193.333 134.122 193.241 133.653C193.149 133.183 192.964 132.737 192.698 132.339C192.433 131.941 192.091 131.599 191.692 131.335C191.294 131.07 190.846 130.886 190.376 130.795L147.273 122.451C146.213 122.244 145.135 122.14 144.055 122.139V122.132Z" fill="black"/>
<path d="M135.112 129.43L146.891 186.546L138.683 185.119L126.903 138.354L135.112 129.43Z" fill="#EBEBEB"/>
<path d="M134.645 125.088C132.838 126.258 131.291 127.786 130.098 129.577C128.905 131.368 128.092 133.385 127.709 135.503L126.725 140.949C129.926 137.448 137.111 140.19 137.111 140.19C135.45 128.73 141.826 124.061 144.522 122.626C141.048 122.331 137.574 123.197 134.645 125.088Z" fill="#4BD657"/>
<path d="M140.706 123.921C137.983 126.489 135.158 131.009 135.765 138.529C134.416 138.178 133.028 137.992 131.634 137.973C130.521 137.954 129.414 138.131 128.362 138.494L128.868 135.689C129.399 132.752 130.819 130.048 132.936 127.944C135.053 125.839 137.766 124.435 140.706 123.921ZM143.223 122.536C139.532 122.536 135.958 123.833 133.124 126.199C130.291 128.565 128.379 131.851 127.72 135.483L126.736 140.929C127.985 139.572 129.848 139.155 131.634 139.155C133.506 139.2 135.359 139.543 137.123 140.171C135.462 128.71 141.838 124.042 144.534 122.606C144.098 122.568 143.663 122.552 143.223 122.552V122.536Z" fill="black"/>
<path d="M76.1319 175.44L67.0521 136.397C66.5652 134.301 66.5125 132.127 66.8971 130.01C67.2818 127.892 68.0958 125.876 69.289 124.085C71.5492 120.694 75.035 118.311 79.0146 117.436L121.897 108.006C122.213 107.937 122.54 107.93 122.859 107.988C123.178 108.045 123.482 108.166 123.754 108.341C124.026 108.517 124.26 108.745 124.444 109.012C124.627 109.279 124.756 109.58 124.822 109.897L141.756 190.518C141.843 190.928 141.823 191.352 141.699 191.752C141.575 192.152 141.35 192.513 141.047 192.801C140.743 193.089 140.371 193.294 139.965 193.397C139.559 193.5 139.134 193.497 138.73 193.389L77.8865 177.256C77.4569 177.141 77.0666 176.911 76.7576 176.591C76.4486 176.271 76.2323 175.873 76.1319 175.44Z" fill="white"/>
<path d="M122.43 107.948C122.991 107.95 123.535 108.144 123.971 108.498C124.407 108.851 124.709 109.344 124.826 109.893L141.76 190.514C141.849 190.924 141.831 191.35 141.708 191.751C141.584 192.151 141.36 192.513 141.055 192.802C140.751 193.091 140.378 193.296 139.971 193.398C139.564 193.5 139.138 193.496 138.734 193.385L77.8903 177.252C77.4599 177.138 77.069 176.908 76.7593 176.588C76.4495 176.268 76.2326 175.87 76.1319 175.436L67.0521 136.393C66.5792 134.362 66.5144 132.257 66.8614 130.2C67.2084 128.144 67.9602 126.176 69.0734 124.412C70.1866 122.649 71.6388 121.123 73.346 119.925C75.0532 118.727 76.9812 117.88 79.0184 117.432L121.901 108.002C122.074 107.964 122.252 107.944 122.43 107.944V107.948ZM122.43 106.777C122.168 106.778 121.907 106.807 121.652 106.862L78.7734 116.292C76.5871 116.775 74.5185 117.687 72.6871 118.975C70.8557 120.263 69.2978 121.902 68.1039 123.796C66.9099 125.69 66.1036 127.802 65.7314 130.01C65.3592 132.217 65.4286 134.477 65.9356 136.658L75.0155 175.7C75.1638 176.341 75.4836 176.928 75.9408 177.401C76.3979 177.873 76.9751 178.212 77.6103 178.381L138.454 194.513C138.759 194.595 139.075 194.637 139.391 194.638C139.929 194.636 140.459 194.515 140.944 194.282C141.429 194.05 141.856 193.712 142.194 193.295C142.532 192.877 142.773 192.389 142.899 191.866C143.026 191.343 143.034 190.799 142.923 190.273L125.985 109.656C125.814 108.844 125.369 108.115 124.726 107.592C124.082 107.068 123.279 106.78 122.449 106.777H122.43Z" fill="black"/>
<path d="M68.2192 123.727C67.026 125.518 66.212 127.534 65.8273 129.652C65.4426 131.769 65.4953 133.943 65.9823 136.039L67.2311 141.416C68.7872 136.946 76.4666 136.603 76.4666 136.603C70.3978 126.738 74.4008 119.926 76.307 117.541C73.0016 118.653 70.1576 120.828 68.2192 123.727Z" fill="#4BD657"/>
<path d="M73.3155 120.284C71.8294 123.727 71.0358 128.99 74.572 135.646C72.6697 135.954 69.717 136.716 67.7641 138.556L67.1183 135.775C66.4394 132.869 66.6698 129.824 67.7782 127.054C68.8866 124.283 70.8196 121.92 73.3155 120.284ZM76.3071 117.537C72.5929 118.784 69.4771 121.371 67.5679 124.792C65.6587 128.214 65.0934 132.224 65.9824 136.039L67.2311 141.416C68.7872 136.946 76.4666 136.603 76.4666 136.603C70.3979 126.738 74.4009 119.926 76.3071 117.541V117.537Z" fill="black"/>
<path d="M86.2338 137.034L80.0727 138.204C78.5318 138.497 77.5198 139.983 77.8123 141.524L78.982 147.685C79.2746 149.226 80.761 150.238 82.3019 149.945L88.4629 148.776C90.0038 148.483 91.0157 146.997 90.7232 145.456L89.5535 139.295C89.2609 137.754 87.7747 136.742 86.2338 137.034Z" fill="#4BD657"/>
<path d="M81.7378 150.678C80.9412 150.677 80.1698 150.398 79.5564 149.89C78.943 149.382 78.5258 148.675 78.3766 147.893L77.2095 141.731C77.0409 140.839 77.233 139.916 77.7435 139.166C78.254 138.416 79.0412 137.898 79.9327 137.728L86.0988 136.561C86.5402 136.477 86.9938 136.48 87.4338 136.572C87.8737 136.663 88.2913 136.84 88.6628 137.093C89.0342 137.346 89.352 137.67 89.5983 138.046C89.8445 138.422 90.0145 138.842 90.098 139.284L91.2651 145.446C91.3492 145.888 91.3453 146.341 91.2539 146.782C91.1625 147.222 90.9854 147.64 90.7325 148.011C90.4796 148.383 90.1561 148.701 89.7803 148.948C89.4044 149.195 88.9836 149.365 88.5419 149.449L82.3759 150.616C82.1658 150.658 81.952 150.679 81.7378 150.678ZM86.7368 137.665C86.5946 137.665 86.4524 137.678 86.3127 137.704L80.1468 138.871C79.8557 138.926 79.5781 139.038 79.3304 139.201C79.0826 139.363 78.8693 139.573 78.7028 139.818C78.5362 140.063 78.4195 140.339 78.3595 140.629C78.2995 140.919 78.2974 141.218 78.3532 141.509L79.5203 147.671C79.6316 148.258 79.9715 148.778 80.4653 149.115C80.9591 149.452 81.5665 149.579 82.154 149.468L88.3201 148.301C88.6112 148.246 88.8885 148.134 89.1363 147.972C89.3841 147.809 89.5975 147.6 89.7641 147.355C89.9307 147.11 90.0472 146.834 90.1072 146.544C90.1671 146.254 90.1693 145.955 90.1134 145.664L88.9464 139.502C88.8487 138.986 88.5748 138.521 88.1715 138.186C87.7683 137.851 87.2611 137.667 86.7368 137.665Z" fill="black"/>
<path d="M115.725 117.657L83.2766 123.818C81.7547 124.107 80.7552 125.575 81.0441 127.097C81.333 128.619 82.801 129.618 84.3229 129.329L116.771 123.169C118.293 122.88 119.293 121.412 119.004 119.89C118.715 118.368 117.247 117.368 115.725 117.657Z" fill="#4BD657"/>
<path d="M83.7607 130.06C82.9161 130.061 82.1016 129.747 81.4767 129.178C80.8519 128.61 80.4619 127.829 80.383 126.988C80.3041 126.147 80.5421 125.307 81.0503 124.633C81.5585 123.958 82.3004 123.498 83.1305 123.342L115.583 117.183C116.466 117.016 117.38 117.206 118.123 117.712C118.866 118.218 119.377 118.998 119.545 119.881C119.713 120.764 119.523 121.678 119.017 122.421C118.511 123.164 117.73 123.676 116.847 123.843L84.3948 130.002C84.1856 130.04 83.9734 130.06 83.7607 130.06ZM116.217 118.292C116.077 118.292 115.938 118.305 115.801 118.331L83.3483 124.489C82.7695 124.599 82.2579 124.934 81.9264 125.421C81.5948 125.908 81.4704 126.507 81.5803 127.086C81.6901 127.665 82.0254 128.176 82.5124 128.508C82.9993 128.839 83.5981 128.964 84.1769 128.854L116.629 122.696C117.173 122.593 117.658 122.291 117.99 121.849C118.323 121.407 118.479 120.857 118.427 120.306C118.375 119.756 118.12 119.244 117.712 118.872C117.303 118.499 116.77 118.292 116.217 118.292Z" fill="black"/>
<path d="M89.7984 155.042L83.6374 156.212C82.0965 156.504 81.0846 157.991 81.3771 159.532L82.5468 165.692C82.8394 167.233 84.3256 168.245 85.8665 167.953L92.0275 166.783C93.5684 166.491 94.5805 165.004 94.288 163.463L93.1183 157.302C92.8257 155.761 91.3393 154.75 89.7984 155.042Z" fill="#4BD657"/>
<path d="M85.2935 168.682C84.4979 168.681 83.7274 168.403 83.1147 167.895C82.5021 167.388 82.0853 166.682 81.9361 165.901L80.769 159.735C80.685 159.293 80.689 158.84 80.7804 158.4C80.8718 157.96 81.0489 157.542 81.3018 157.171C81.5547 156.799 81.8784 156.482 82.2543 156.235C82.6301 155.989 83.0507 155.819 83.4922 155.736L89.6582 154.569C90.0997 154.485 90.5533 154.488 90.9932 154.58C91.4332 154.671 91.8508 154.848 92.2222 155.101C92.5936 155.354 92.9117 155.678 93.1579 156.054C93.4042 156.43 93.5739 156.85 93.6575 157.292L94.8246 163.458C94.9086 163.899 94.9048 164.353 94.8134 164.793C94.722 165.233 94.5447 165.65 94.2918 166.022C94.0389 166.393 93.7152 166.711 93.3393 166.957C92.9635 167.204 92.5429 167.373 92.1014 167.457L91.9924 166.885L92.1014 167.457L85.9392 168.624C85.7261 168.663 85.5101 168.683 85.2935 168.682ZM90.2963 155.67C90.1539 155.67 90.012 155.685 89.8723 155.712L83.7063 156.879C83.4155 156.934 83.1385 157.046 82.891 157.209C82.6435 157.371 82.4305 157.58 82.2639 157.825C82.0974 158.069 81.9806 158.344 81.9203 158.634C81.8601 158.924 81.8577 159.222 81.9129 159.513L83.08 165.679C83.1922 166.267 83.5329 166.785 84.0275 167.122C84.522 167.458 85.1299 167.584 85.7175 167.472L91.8835 166.305C92.1743 166.25 92.4513 166.139 92.6988 165.976C92.9463 165.814 93.1593 165.605 93.3259 165.36C93.4924 165.116 93.6091 164.841 93.6693 164.551C93.7295 164.261 93.7322 163.962 93.6769 163.672L92.5098 157.506C92.4122 156.991 92.1382 156.526 91.735 156.191C91.3318 155.855 90.8244 155.671 90.3001 155.67H90.2963Z" fill="black"/>
<path d="M96.085 141.778C95.9302 141.792 95.7761 141.744 95.6564 141.645C95.5368 141.546 95.4616 141.403 95.4471 141.248C95.4327 141.094 95.4803 140.94 95.5795 140.82C95.6787 140.7 95.8214 140.625 95.9761 140.61L122.43 135.584C122.582 135.557 122.74 135.59 122.868 135.678C122.996 135.765 123.084 135.899 123.114 136.051C123.128 136.126 123.128 136.204 123.112 136.279C123.096 136.354 123.065 136.425 123.022 136.488C122.979 136.551 122.923 136.606 122.859 136.647C122.795 136.689 122.723 136.718 122.648 136.732L96.194 141.754C96.1587 141.766 96.1221 141.774 96.085 141.778Z" fill="black"/>
<path d="M99.5357 159.949C99.3809 159.963 99.2268 159.916 99.1071 159.816C98.9875 159.717 98.9121 159.574 98.8976 159.42C98.8832 159.265 98.9308 159.111 99.03 158.991C99.1292 158.872 99.2721 158.796 99.4268 158.782L125.88 153.759C125.958 153.739 126.038 153.735 126.118 153.747C126.197 153.759 126.272 153.787 126.34 153.83C126.408 153.873 126.466 153.929 126.511 153.995C126.556 154.061 126.587 154.136 126.602 154.215C126.617 154.293 126.616 154.374 126.598 154.452C126.58 154.53 126.547 154.604 126.5 154.668C126.452 154.733 126.393 154.787 126.323 154.827C126.254 154.868 126.178 154.894 126.098 154.903L99.6445 159.925C99.6092 159.937 99.5727 159.945 99.5357 159.949Z" fill="black"/>
<path d="M180.1 138.835L147.736 132.245C146.218 131.936 144.737 132.916 144.428 134.434C144.119 135.951 145.099 137.433 146.617 137.742L178.981 144.332C180.499 144.641 181.98 143.661 182.289 142.143C182.598 140.625 181.618 139.144 180.1 138.835Z" fill="#4BD657"/>
<path d="M179.589 144.928C179.362 144.93 179.135 144.907 178.912 144.862L146.545 138.272C145.888 138.139 145.286 137.813 144.814 137.337C144.342 136.861 144.022 136.256 143.894 135.598C143.766 134.94 143.837 134.259 144.096 133.641C144.355 133.023 144.792 132.495 145.351 132.126C145.722 131.878 146.138 131.707 146.575 131.622C147.013 131.537 147.463 131.54 147.899 131.632L180.262 138.222C180.698 138.309 181.113 138.482 181.483 138.731C181.852 138.979 182.169 139.298 182.415 139.67C182.661 140.041 182.831 140.457 182.915 140.894C183 141.331 182.997 141.781 182.907 142.217C182.751 142.982 182.335 143.669 181.731 144.163C181.126 144.657 180.37 144.927 179.589 144.928ZM179.146 143.719C179.723 143.834 180.322 143.717 180.813 143.392C181.304 143.067 181.646 142.56 181.764 141.984C181.823 141.698 181.825 141.403 181.769 141.116C181.714 140.83 181.602 140.557 181.441 140.313C181.28 140.07 181.072 139.861 180.83 139.698C180.587 139.536 180.315 139.422 180.029 139.365L147.666 132.775C147.38 132.716 147.085 132.713 146.799 132.769C146.512 132.824 146.24 132.936 145.997 133.098C145.63 133.34 145.343 133.686 145.173 134.09C145.002 134.495 144.956 134.942 145.039 135.373C145.122 135.805 145.332 136.202 145.641 136.514C145.95 136.827 146.344 137.04 146.775 137.128L179.146 143.719Z" fill="black"/>
<path d="M179.519 159.011C179.48 159.015 179.441 159.015 179.402 159.011L140.554 151.102C140.479 151.087 140.408 151.057 140.344 151.014C140.281 150.971 140.226 150.916 140.184 150.852C140.142 150.788 140.113 150.717 140.098 150.641C140.083 150.566 140.084 150.489 140.099 150.414C140.115 150.339 140.144 150.267 140.187 150.204C140.23 150.14 140.285 150.086 140.349 150.044C140.413 150.001 140.485 149.972 140.56 149.957C140.635 149.943 140.713 149.943 140.788 149.959L179.636 157.867C179.79 157.883 179.933 157.959 180.031 158.08C180.13 158.2 180.176 158.355 180.161 158.509C180.145 158.664 180.069 158.806 179.949 158.905C179.828 159.003 179.674 159.05 179.519 159.035V159.011Z" fill="black"/>
<path d="M178.091 165.438C178.052 165.442 178.013 165.442 177.974 165.438L139.461 157.599C139.313 157.565 139.185 157.474 139.103 157.347C139.021 157.219 138.991 157.064 139.021 156.916C139.051 156.767 139.138 156.636 139.263 156.55C139.388 156.464 139.541 156.43 139.691 156.455L178.204 164.294C178.359 164.31 178.501 164.386 178.6 164.506C178.698 164.627 178.745 164.781 178.729 164.936C178.714 165.091 178.637 165.233 178.517 165.332C178.397 165.43 178.242 165.477 178.087 165.461L178.091 165.438Z" fill="black"/>
<path d="M178.091 174.004C178.053 174.008 178.013 174.008 177.974 174.004L158.134 169.962C158.059 169.947 157.988 169.917 157.924 169.874C157.861 169.831 157.806 169.776 157.764 169.712C157.722 169.648 157.693 169.577 157.678 169.501C157.663 169.426 157.664 169.349 157.679 169.274C157.694 169.199 157.724 169.127 157.767 169.064C157.81 169 157.865 168.946 157.929 168.903C157.993 168.861 158.065 168.832 158.14 168.817C158.215 168.803 158.293 168.803 158.368 168.818L178.208 172.86C178.363 172.876 178.505 172.952 178.603 173.073C178.702 173.193 178.749 173.348 178.733 173.502C178.718 173.657 178.641 173.799 178.521 173.898C178.401 173.996 178.246 174.043 178.091 174.028V174.004Z" fill="black"/>
<path d="M80.8547 142.637L84.0641 146.208L86.5656 140.14" fill="#4BD657"/>
<path d="M84.072 146.792C83.9897 146.792 83.9085 146.775 83.8334 146.741C83.7583 146.708 83.691 146.659 83.6362 146.597L80.423 143.026C80.3296 142.91 80.2843 142.762 80.2964 142.613C80.3086 142.465 80.3774 142.326 80.4885 142.227C80.5996 142.127 80.7445 142.074 80.8937 142.078C81.0428 142.082 81.1849 142.143 81.2905 142.248L83.8852 145.127L86.0287 139.918C86.0875 139.775 86.201 139.66 86.344 139.6C86.487 139.541 86.6479 139.54 86.7913 139.599C86.9347 139.658 87.0489 139.771 87.1087 139.914C87.1686 140.057 87.1691 140.218 87.1103 140.361L84.6088 146.43C84.5717 146.522 84.5119 146.602 84.435 146.664C84.358 146.726 84.2666 146.768 84.1692 146.784L84.072 146.792Z" fill="black"/>
<path d="M84.0641 160.843L87.6354 163.341L90.1367 157.988" fill="#4BD657"/>
<path d="M87.6355 163.925C87.5159 163.924 87.399 163.888 87.3008 163.819L83.7334 161.322C83.6706 161.278 83.617 161.222 83.5758 161.157C83.5345 161.093 83.5065 161.021 83.4932 160.945C83.4798 160.87 83.4814 160.792 83.4979 160.717C83.5145 160.643 83.5455 160.572 83.5895 160.509C83.6334 160.446 83.6893 160.392 83.754 160.351C83.8186 160.31 83.8908 160.282 83.9663 160.268C84.0418 160.255 84.1192 160.257 84.1941 160.273C84.269 160.29 84.3398 160.321 84.4027 160.365L87.402 162.466L89.6077 157.739C89.6796 157.61 89.7976 157.513 89.9383 157.467C90.0789 157.422 90.2317 157.431 90.3655 157.494C90.4993 157.557 90.6043 157.668 90.6593 157.805C90.7144 157.942 90.7153 158.095 90.662 158.233L88.1645 163.59C88.1275 163.668 88.0734 163.737 88.0061 163.792C87.9387 163.846 87.8598 163.885 87.7755 163.905C87.7299 163.918 87.6828 163.925 87.6355 163.925Z" fill="black"/>
<path d="M182.301 123.921C182.264 123.925 182.228 123.925 182.192 123.921L161.962 120.031C161.82 119.993 161.696 119.903 161.617 119.778C161.538 119.653 161.51 119.503 161.538 119.357C161.565 119.212 161.647 119.083 161.766 118.996C161.885 118.908 162.033 118.87 162.18 118.887L182.409 122.777C182.564 122.792 182.707 122.867 182.806 122.987C182.905 123.107 182.953 123.261 182.939 123.415C182.924 123.57 182.849 123.713 182.729 123.812C182.609 123.911 182.455 123.959 182.301 123.945V123.921Z" fill="#1D1D1B"/>
<path d="M107.219 132.48C107.093 132.479 106.97 132.438 106.869 132.362C106.768 132.287 106.695 132.181 106.659 132.06C97.7539 101.475 110.063 73.2003 110.187 72.928C110.252 72.7899 110.369 72.6828 110.512 72.6296C110.655 72.5764 110.813 72.5814 110.952 72.6435C111.092 72.7056 111.201 72.8198 111.258 72.9617C111.314 73.1036 111.312 73.2619 111.253 73.4026C111.129 73.6788 98.9987 101.584 107.779 131.756C107.823 131.904 107.806 132.063 107.733 132.198C107.661 132.334 107.537 132.435 107.39 132.48C107.333 132.488 107.276 132.488 107.219 132.48Z" fill="#1D1D1B"/>
<path d="M70.1721 176.883L77.793 241.679C77.9313 242.854 78.4891 243.94 79.3639 244.737C80.2387 245.534 81.3717 245.988 82.5547 246.016L179.717 248.351C181.012 248.381 182.266 247.899 183.208 247.01C184.149 246.12 184.701 244.895 184.743 243.601L186.615 185.924C186.634 185.27 186.523 184.619 186.288 184.009C186.052 183.398 185.697 182.841 185.244 182.37C184.79 181.899 184.247 181.523 183.646 181.265C183.045 181.007 182.398 180.871 181.744 180.867L139.422 180.551C138.166 180.544 136.961 180.054 136.057 179.182L129.397 172.779C128.483 171.898 127.263 171.406 125.993 171.406H75.0504C74.3578 171.406 73.673 171.553 73.0411 171.836C72.4092 172.12 71.8444 172.534 71.3838 173.051C70.9231 173.568 70.5771 174.177 70.3683 174.837C70.1595 175.498 70.0925 176.195 70.1721 176.883Z" fill="#07ACEE"/>
<path d="M125.993 171.382C127.263 171.382 128.483 171.874 129.397 172.755L136.057 179.159C136.961 180.03 138.166 180.521 139.422 180.528L181.744 180.843C182.398 180.848 183.045 180.984 183.646 181.242C184.247 181.5 184.79 181.876 185.244 182.347C185.697 182.818 186.053 183.375 186.288 183.985C186.523 184.596 186.634 185.247 186.615 185.901L184.743 243.577C184.702 244.851 184.167 246.058 183.252 246.945C182.336 247.831 181.112 248.327 179.838 248.327H179.717L82.5548 245.993C81.3718 245.965 80.2387 245.51 79.364 244.713C78.4892 243.916 77.9314 242.831 77.793 241.655L70.1721 176.86C70.0914 176.171 70.1574 175.473 70.3657 174.812C70.574 174.15 70.9198 173.541 71.3806 173.022C71.8414 172.504 72.4066 172.09 73.0391 171.806C73.6716 171.522 74.3571 171.375 75.0505 171.374H125.993V171.382ZM125.993 170.207H75.0505C74.1922 170.207 73.3435 170.388 72.5604 170.74C71.7773 171.091 71.0774 171.604 70.507 172.245C69.9366 172.887 69.5086 173.642 69.251 174.461C68.9935 175.279 68.9123 176.143 69.0128 176.996L76.6338 241.792C76.8118 243.243 77.5044 244.583 78.5857 245.568C79.667 246.553 81.0654 247.118 82.5274 247.16L179.69 249.494H179.838C181.417 249.5 182.937 248.888 184.071 247.789C185.206 246.69 185.866 245.191 185.911 243.612L187.782 185.939C187.808 185.129 187.671 184.321 187.381 183.564C187.09 182.808 186.651 182.116 186.089 181.532C185.527 180.947 184.854 180.481 184.109 180.16C183.364 179.839 182.563 179.671 181.752 179.664L139.43 179.349C138.473 179.344 137.555 178.97 136.866 178.307L130.202 171.9C129.073 170.809 127.563 170.201 125.993 170.203V170.207Z" fill="black"/>
<path d="M80.7651 236.349C80.5287 236.349 80.3005 236.263 80.1229 236.107C79.9453 235.951 79.8306 235.736 79.8004 235.501L73.187 184.15C73.1539 183.892 73.2247 183.631 73.3837 183.426C73.5428 183.22 73.7772 183.086 74.0351 183.053C74.293 183.02 74.5535 183.091 74.7592 183.25C74.9649 183.409 75.0991 183.643 75.1321 183.901L81.7455 235.252C81.7619 235.379 81.753 235.508 81.7197 235.631C81.6863 235.754 81.629 235.87 81.551 235.971C81.4729 236.072 81.3757 236.157 81.2649 236.22C81.1541 236.284 81.0318 236.325 80.9051 236.341L80.7651 236.349Z" fill="white"/>
<path d="M218.48 193.167C218.222 193.167 217.974 193.065 217.792 192.883C217.61 192.7 217.507 192.453 217.507 192.195V166.908C217.507 166.65 217.61 166.403 217.792 166.221C217.974 166.038 218.222 165.936 218.48 165.936C218.738 165.936 218.985 166.038 219.167 166.221C219.35 166.403 219.452 166.65 219.452 166.908V192.195C219.452 192.453 219.35 192.7 219.167 192.883C218.985 193.065 218.738 193.167 218.48 193.167Z" fill="white"/>
<path d="M346.15 176.829C345.945 176.829 345.745 176.764 345.579 176.645C345.413 176.525 345.289 176.356 345.225 176.161C345.161 175.967 345.159 175.757 345.221 175.562C345.283 175.366 345.405 175.196 345.57 175.074C351.814 170.449 355.21 165.212 355.685 159.513C356.408 150.437 349.359 143.112 349.289 143.038C349.113 142.853 349.017 142.606 349.021 142.35C349.025 142.095 349.13 141.852 349.312 141.673C349.495 141.494 349.74 141.394 349.996 141.395C350.251 141.395 350.496 141.496 350.678 141.676C350.993 141.999 358.408 149.686 357.622 159.653C357.128 165.944 353.467 171.662 346.749 176.642C346.575 176.768 346.365 176.834 346.15 176.829Z" fill="white"/>
<path d="M241.156 78.3393H241.121C227.357 77.8296 222.327 60.2729 222.117 59.526C222.048 59.2774 222.08 59.0114 222.207 58.7867C222.334 58.562 222.545 58.3969 222.794 58.3278C223.043 58.2587 223.309 58.2912 223.533 58.4181C223.758 58.5451 223.923 58.756 223.992 59.0047C224.039 59.172 228.855 75.939 241.195 76.3941C241.453 76.3993 241.698 76.5067 241.877 76.6927C242.056 76.8788 242.153 77.1281 242.148 77.3861C242.143 77.644 242.035 77.8894 241.849 78.0681C241.663 78.2468 241.414 78.3444 241.156 78.3393Z" fill="white"/>
<path d="M306.636 198.524C306.433 198.524 306.236 198.461 306.07 198.343C305.905 198.225 305.781 198.059 305.715 197.867C298.518 176.692 279.307 161.131 279.113 160.976C278.925 160.81 278.809 160.579 278.787 160.33C278.765 160.081 278.84 159.833 278.996 159.638C279.152 159.443 279.378 159.315 279.625 159.282C279.873 159.248 280.124 159.312 280.327 159.459C280.525 159.618 300.167 175.517 307.558 197.24C307.64 197.485 307.622 197.751 307.509 197.982C307.395 198.213 307.195 198.39 306.951 198.474C306.85 198.507 306.743 198.525 306.636 198.524Z" fill="white"/>
<path d="M80.7652 300.538C80.6104 300.538 80.462 300.477 80.3526 300.367C80.2432 300.258 80.1816 300.109 80.1816 299.954C80.1816 299.8 80.2432 299.651 80.3526 299.542C80.462 299.432 80.6104 299.371 80.7652 299.371L334.409 298.982C334.564 298.982 334.712 299.043 334.821 299.153C334.931 299.262 334.992 299.411 334.992 299.565C334.992 299.72 334.931 299.869 334.821 299.978C334.712 300.087 334.564 300.149 334.409 300.149L80.7652 300.538Z" fill="#1D1D1B"/>
<path d="M299.552 122.56C299.163 122.56 298.774 122.56 298.358 122.56C298.281 122.558 298.206 122.542 298.135 122.512C298.065 122.481 298.002 122.437 297.948 122.382C297.895 122.327 297.853 122.262 297.825 122.19C297.797 122.119 297.783 122.043 297.784 121.966C297.786 121.89 297.802 121.814 297.832 121.744C297.863 121.674 297.907 121.61 297.962 121.557C298.017 121.503 298.082 121.461 298.154 121.433C298.225 121.405 298.301 121.391 298.377 121.393C317.315 121.715 331.332 114.484 340.054 99.9029C344.038 93.125 346.58 85.5969 347.519 77.7908C347.525 77.7141 347.546 77.6394 347.581 77.5709C347.615 77.5023 347.663 77.4413 347.722 77.3913C347.78 77.3412 347.848 77.3032 347.921 77.2793C347.994 77.2554 348.071 77.2461 348.147 77.252C348.224 77.2578 348.299 77.2787 348.367 77.3135C348.436 77.3482 348.497 77.3962 348.547 77.4545C348.597 77.5129 348.635 77.5805 348.659 77.6535C348.683 77.7266 348.692 77.8036 348.686 77.8802C347.73 85.8654 345.134 93.567 341.061 100.502C337.144 107.049 332.052 112.231 325.928 115.911C318.568 120.323 309.706 122.56 299.552 122.56Z" fill="#1D1D1B"/>
<path d="M318.296 137.483C318.164 137.483 318.036 137.44 317.933 137.358C317.83 137.277 317.758 137.163 317.728 137.035C317.692 136.885 317.718 136.726 317.799 136.594C317.88 136.463 318.009 136.368 318.159 136.331C333.46 132.705 341.361 125.726 345.294 120.509C349.55 114.869 350.211 110.006 350.219 109.963C350.228 109.886 350.253 109.812 350.291 109.745C350.329 109.678 350.38 109.619 350.441 109.571C350.501 109.524 350.571 109.489 350.645 109.468C350.72 109.448 350.798 109.442 350.874 109.451C350.951 109.461 351.025 109.485 351.092 109.523C351.159 109.561 351.218 109.612 351.266 109.673C351.313 109.734 351.348 109.804 351.369 109.878C351.39 109.953 351.395 110.03 351.386 110.107C351.363 110.317 350.701 115.265 346.286 121.148C342.24 126.543 334.125 133.752 318.443 137.487C318.394 137.492 318.344 137.49 318.296 137.483Z" fill="#1D1D1B"/>
<path d="M169.225 236.688C164.417 229.463 166.502 225.137 174.384 226.993C182.265 228.849 203.144 242.371 203.144 242.371L197.43 274.151" fill="#FFCDB2"/>
<path d="M198.192 274.287L196.663 274.011L202.288 242.745C199.254 240.799 181.238 229.405 174.205 227.748C171.015 226.997 168.759 227.281 167.887 228.549C166.868 230.02 167.591 232.828 169.875 236.256L168.58 237.119C165.884 233.07 165.183 229.728 166.611 227.662C167.51 226.367 169.618 225.071 174.563 226.234C182.475 228.098 202.712 241.161 203.568 241.718L204.004 241.998L198.192 274.287Z" fill="#1D1E1B"/>
<path d="M197.212 274.653C197.212 274.653 180.562 276.893 167.218 275.065C148.366 272.478 151.14 260.356 151.14 260.356C145.417 254.692 151.194 247.759 151.194 247.759C151.194 247.759 140.146 240.438 153.719 233.996C161.48 230.312 171.976 235.065 179.85 239.928" fill="#FFCDB2"/>
<path d="M179.118 276.36C175.114 276.389 171.112 276.149 167.14 275.641C160.013 274.664 155.061 272.233 152.427 268.42C150.824 266.129 150.141 263.318 150.513 260.547C145.709 255.524 149.171 249.615 150.377 247.888C149.156 246.942 146.145 244.27 146.386 240.885C146.584 238.088 148.969 235.587 153.47 233.451C159.862 230.417 168.84 232.424 180.157 239.419L179.542 240.411C168.584 233.638 159.982 231.654 153.972 234.505C149.879 236.45 147.72 238.621 147.549 240.967C147.3 244.41 151.478 247.23 151.517 247.257L152.058 247.619L151.645 248.117C151.424 248.386 146.285 254.711 151.552 259.924L151.781 260.154L151.708 260.469C151.31 263.027 151.916 265.641 153.4 267.763C155.847 271.284 160.523 273.54 167.3 274.47C180.41 276.271 196.967 274.081 197.134 274.057L197.29 275.224C191.26 275.962 185.192 276.341 179.118 276.36Z" fill="#1D1E1B"/>
<path d="M232.049 266.918C232.449 265.297 231.458 263.658 229.835 263.258C228.212 262.857 226.572 263.846 226.172 265.467C225.772 267.088 226.763 268.726 228.386 269.127C230.008 269.528 231.648 268.539 232.049 266.918Z" fill="#51CEF4"/>
<path d="M255.826 131.896C255.826 131.896 316.105 172.666 325.461 228.374C333.195 274.423 327.585 280.033 305.621 288.673C289.169 295.146 226.564 299.624 215.757 292.174C204.95 284.724 206.28 279.235 206.28 279.235L197.122 275.322L203.623 241.298L210.236 242.527C210.236 242.527 217.356 231.031 228.964 234.665C240.573 238.298 257.114 240.5 262.031 245.511" fill="#07ACEE"/>
<path d="M243.961 296.648C229.474 296.648 219.188 295.255 215.43 292.668C206.14 286.265 205.568 281.188 205.654 279.612L196.465 275.683L203.16 240.632L209.96 241.893C211.291 239.987 218.383 230.755 229.135 234.112C232.811 235.279 237.048 236.287 241.148 237.271C250.317 239.481 258.981 241.57 262.459 245.11L261.626 245.927C258.382 242.624 249.481 240.481 240.876 238.407C236.756 237.415 232.5 236.388 228.789 235.229C217.752 231.774 211.01 242.387 210.726 242.842L210.516 243.18L204.09 241.986L197.788 274.975L206.969 278.901L206.852 279.379C206.852 279.426 205.833 284.631 216.091 291.699C219.981 294.384 230.703 295.473 243.537 295.473C266.151 295.473 295.343 292.1 305.411 288.136C317.082 283.542 323.182 280.005 326.138 272.349C329.208 264.402 328.861 252.101 324.889 228.479C320.081 199.855 301.486 175.265 286.734 159.672C270.722 142.754 255.655 132.488 255.503 132.386L256.157 131.422C256.308 131.523 271.465 141.847 287.563 158.852C302.435 174.564 321.182 199.365 326.041 228.285C330.044 252.136 330.379 264.608 327.228 272.77C323.827 281.569 316.218 285.141 305.831 289.225C297.872 292.337 278.891 295.173 258.6 296.228C253.363 296.5 248.458 296.648 243.961 296.648Z" fill="#1D1D1B"/>
<path d="M210.458 243.145C210.458 243.145 223.031 254.738 206.836 278.858L197.889 274.781L204.02 242.204L210.458 243.145Z" fill="#0598C6"/>
<path d="M277.751 264.071C278.116 263.533 278.297 262.893 278.269 262.244C278.241 261.595 278.005 260.972 277.596 260.468C277.187 259.963 276.627 259.604 275.998 259.442C275.369 259.281 274.705 259.326 274.103 259.571C273.502 259.816 272.995 260.248 272.658 260.803C272.321 261.359 272.172 262.007 272.232 262.654C272.292 263.301 272.558 263.911 272.992 264.394C273.425 264.878 274.003 265.209 274.639 265.339C275.225 265.459 275.834 265.402 276.387 265.176C276.941 264.95 277.416 264.566 277.751 264.071Z" fill="#51CEF4"/>
<path d="M315.284 225.908C315.649 225.37 315.83 224.729 315.802 224.081C315.774 223.432 315.538 222.809 315.129 222.305C314.72 221.8 314.16 221.441 313.531 221.279C312.902 221.118 312.238 221.163 311.636 221.408C311.035 221.653 310.528 222.085 310.191 222.64C309.854 223.195 309.705 223.844 309.765 224.491C309.825 225.137 310.091 225.748 310.525 226.231C310.959 226.715 311.536 227.046 312.172 227.176C312.758 227.295 313.367 227.238 313.92 227.013C314.474 226.787 314.949 226.403 315.284 225.908Z" fill="#51CEF4"/>
<path d="M246.427 222.407C246.791 221.869 246.973 221.228 246.945 220.579C246.917 219.931 246.681 219.308 246.272 218.803C245.863 218.299 245.303 217.939 244.674 217.778C244.045 217.616 243.381 217.662 242.779 217.907C242.178 218.152 241.671 218.584 241.334 219.139C240.997 219.694 240.847 220.343 240.908 220.99C240.968 221.636 241.234 222.246 241.668 222.73C242.101 223.213 242.679 223.545 243.315 223.675C243.901 223.794 244.509 223.737 245.063 223.512C245.617 223.286 246.091 222.901 246.427 222.407Z" fill="#51CEF4"/>
<path d="M244.871 168.721C245.235 168.183 245.417 167.543 245.389 166.894C245.361 166.245 245.125 165.623 244.716 165.118C244.307 164.614 243.747 164.254 243.118 164.093C242.489 163.931 241.825 163.976 241.223 164.221C240.622 164.466 240.115 164.898 239.778 165.454C239.441 166.009 239.291 166.658 239.351 167.304C239.412 167.951 239.678 168.561 240.112 169.045C240.545 169.528 241.123 169.859 241.759 169.989C242.345 170.109 242.953 170.052 243.507 169.826C244.061 169.601 244.535 169.216 244.871 168.721Z" fill="#51CEF4"/>
<path d="M275.258 190.087C275.622 189.549 275.803 188.908 275.775 188.259C275.748 187.611 275.512 186.988 275.103 186.483C274.694 185.979 274.133 185.619 273.504 185.458C272.875 185.296 272.211 185.342 271.61 185.587C271.008 185.832 270.501 186.264 270.164 186.819C269.827 187.374 269.678 188.023 269.738 188.669C269.798 189.316 270.065 189.926 270.498 190.41C270.932 190.893 271.509 191.225 272.146 191.355C272.732 191.474 273.34 191.417 273.894 191.191C274.447 190.966 274.922 190.581 275.258 190.087Z" fill="#51CEF4"/>
<path d="M316.56 267.926C316.925 267.389 317.106 266.748 317.078 266.099C317.05 265.45 316.814 264.828 316.405 264.323C315.996 263.819 315.436 263.459 314.807 263.298C314.178 263.136 313.514 263.181 312.912 263.426C312.311 263.671 311.804 264.104 311.467 264.659C311.13 265.214 310.981 265.863 311.041 266.509C311.101 267.156 311.367 267.766 311.801 268.25C312.234 268.733 312.812 269.064 313.448 269.195C314.034 269.313 314.642 269.256 315.196 269.031C315.75 268.805 316.224 268.421 316.56 267.926Z" fill="#51CEF4"/>
<path d="M228.517 282.573C228.881 282.035 229.062 281.395 229.034 280.746C229.006 280.097 228.771 279.474 228.362 278.97C227.953 278.465 227.392 278.106 226.763 277.944C226.134 277.783 225.47 277.828 224.868 278.073C224.267 278.318 223.76 278.75 223.423 279.305C223.086 279.86 222.937 280.509 222.997 281.156C223.057 281.802 223.324 282.413 223.757 282.896C224.191 283.38 224.768 283.711 225.404 283.841C225.99 283.96 226.599 283.903 227.152 283.678C227.706 283.452 228.181 283.068 228.517 282.573Z" fill="#51CEF4"/>
<path d="M168.825 248.677C168.747 248.677 168.67 248.661 168.599 248.631C163.164 246.357 157.058 246.286 151.571 248.432C151.431 248.498 151.271 248.505 151.125 248.452C150.979 248.399 150.861 248.291 150.795 248.15C150.73 248.01 150.723 247.849 150.776 247.704C150.829 247.558 150.937 247.44 151.078 247.374C151.416 247.215 159.469 243.542 169.05 247.553C169.176 247.604 169.281 247.698 169.345 247.817C169.409 247.937 169.43 248.075 169.403 248.209C169.377 248.342 169.304 248.462 169.198 248.547C169.093 248.633 168.961 248.679 168.825 248.677Z" fill="#1D1D1B"/>
<path d="M160.912 262.18C157.537 262.179 154.179 261.709 150.934 260.784C150.785 260.737 150.662 260.634 150.59 260.496C150.518 260.359 150.504 260.198 150.55 260.05C150.597 259.902 150.7 259.779 150.838 259.707C150.975 259.635 151.136 259.621 151.284 259.667C151.373 259.698 160.465 262.484 168.79 259.901C168.863 259.878 168.94 259.87 169.016 259.877C169.093 259.884 169.167 259.906 169.235 259.942C169.303 259.978 169.363 260.026 169.412 260.085C169.461 260.144 169.498 260.212 169.521 260.286C169.544 260.359 169.552 260.436 169.545 260.513C169.538 260.589 169.516 260.663 169.48 260.731C169.444 260.799 169.395 260.859 169.336 260.908C169.277 260.957 169.209 260.994 169.136 261.017C166.469 261.815 163.696 262.207 160.912 262.18Z" fill="#1D1D1B"/>
<path d="M149.549 241.103C149.332 241.104 149.122 241.032 148.953 240.897C148.852 240.819 148.768 240.722 148.705 240.611C148.642 240.5 148.601 240.378 148.585 240.252C148.569 240.125 148.578 239.997 148.612 239.874C148.646 239.751 148.704 239.636 148.782 239.535C149.093 239.146 156.664 229.716 174.003 238.111C174.117 238.167 174.22 238.245 174.305 238.34C174.39 238.436 174.455 238.547 174.497 238.668C174.539 238.788 174.557 238.916 174.549 239.044C174.542 239.171 174.51 239.296 174.454 239.411C174.398 239.526 174.32 239.628 174.225 239.713C174.13 239.798 174.018 239.864 173.898 239.906C173.777 239.947 173.649 239.965 173.522 239.958C173.394 239.95 173.27 239.918 173.155 239.862C157.306 232.19 150.591 240.379 150.315 240.733C150.223 240.849 150.107 240.942 149.974 241.006C149.841 241.07 149.696 241.103 149.549 241.103Z" fill="white"/>
<path d="M151.295 251.688C151.078 251.689 150.867 251.618 150.696 251.485C150.524 251.353 150.402 251.167 150.348 250.956C150.294 250.746 150.313 250.524 150.4 250.326C150.487 250.127 150.638 249.963 150.829 249.86C151.151 249.689 158.753 245.659 166.899 249.366C167.015 249.419 167.12 249.495 167.207 249.588C167.294 249.682 167.362 249.792 167.406 249.911C167.451 250.031 167.471 250.158 167.467 250.286C167.462 250.414 167.433 250.539 167.38 250.656C167.326 250.772 167.251 250.876 167.157 250.963C167.064 251.05 166.954 251.118 166.834 251.163C166.714 251.207 166.587 251.228 166.459 251.223C166.332 251.219 166.206 251.189 166.09 251.136C158.85 247.837 151.828 251.525 151.754 251.572C151.613 251.648 151.456 251.688 151.295 251.688Z" fill="white"/>
<path d="M330.519 286.113C330.364 286.125 330.211 286.075 330.093 285.974C329.975 285.873 329.902 285.729 329.89 285.574C329.878 285.419 329.929 285.266 330.03 285.149C330.131 285.031 330.274 284.958 330.429 284.946C336.832 283.946 341.481 281.056 344.236 276.345C351.273 264.335 343.94 244.254 343.866 244.056C343.83 243.982 343.811 243.901 343.808 243.82C343.806 243.738 343.821 243.656 343.852 243.58C343.883 243.505 343.93 243.436 343.989 243.38C344.048 243.323 344.119 243.28 344.196 243.252C344.273 243.225 344.355 243.214 344.437 243.22C344.519 243.227 344.598 243.25 344.67 243.289C344.742 243.328 344.805 243.382 344.855 243.447C344.905 243.512 344.94 243.587 344.959 243.667C345.27 244.511 352.561 264.468 345.247 276.955C342.302 281.982 337.377 285.067 330.608 286.125L330.519 286.113Z" fill="#1D1D1B"/>
<path d="M266.703 37.7913H266.649C266.499 37.7746 266.362 37.7003 266.266 37.5841C266.17 37.4679 266.123 37.319 266.135 37.1689C266.625 32.0221 265.489 27.8323 262.762 24.6696C257.985 19.161 249.839 18.7097 249.757 18.7058C249.602 18.6986 249.457 18.6302 249.353 18.5157C249.248 18.4011 249.194 18.2498 249.201 18.095C249.208 17.9402 249.277 17.7947 249.391 17.6904C249.506 17.5861 249.657 17.5315 249.812 17.5387C250.166 17.5387 258.526 18.0094 263.638 23.8992C266.587 27.2993 267.816 31.8003 267.294 37.2778C267.278 37.4218 267.208 37.5545 267.099 37.6495C266.989 37.7446 266.848 37.7952 266.703 37.7913Z" fill="#1D1D1B"/>
<defs>
<filter id="filter0_d_14034_99632" x="-4.01975" y="107.786" width="38.6843" height="38.6842" filterUnits="userSpaceOnUse" color-interpolation-filters="sRGB">
<feFlood flood-opacity="0" result="BackgroundImageFix"/>
<feColorMatrix in="SourceAlpha" type="matrix" values="0 0 0 0 0 0 0 0 0 0 0 0 0 0 0 0 0 0 127 0" result="hardAlpha"/>
<feOffset dy="2.03704"/>
<feGaussianBlur stdDeviation="5.09261"/>
<feComposite in2="hardAlpha" operator="out"/>
<feColorMatrix type="matrix" values="0 0 0 0 0 0 0 0 0 0 0 0 0 0 0 0 0 0 0.05 0"/>
<feBlend mode="normal" in2="BackgroundImageFix" result="effect1_dropShadow_14034_99632"/>
<feBlend mode="normal" in="SourceGraphic" in2="effect1_dropShadow_14034_99632" result="shape"/>
</filter>
<filter id="filter1_d_14034_99632" x="370.649" y="165.21" width="38.6887" height="38.6885" filterUnits="userSpaceOnUse" color-interpolation-filters="sRGB">
<feFlood flood-opacity="0" result="BackgroundImageFix"/>
<feColorMatrix in="SourceAlpha" type="matrix" values="0 0 0 0 0 0 0 0 0 0 0 0 0 0 0 0 0 0 127 0" result="hardAlpha"/>
<feOffset dy="2.03704"/>
<feGaussianBlur stdDeviation="5.09261"/>
<feComposite in2="hardAlpha" operator="out"/>
<feColorMatrix type="matrix" values="0 0 0 0 0 0 0 0 0 0 0 0 0 0 0 0 0 0 0.05 0"/>
<feBlend mode="normal" in2="BackgroundImageFix" result="effect1_dropShadow_14034_99632"/>
<feBlend mode="normal" in="SourceGraphic" in2="effect1_dropShadow_14034_99632" result="shape"/>
</filter>
<linearGradient id="paint0_linear_14034_99632" x1="20.4544" y1="112.038" x2="392.052" y2="200.547" gradientUnits="userSpaceOnUse">
<stop stop-color="#CDD5E2"/>
<stop offset="1" stop-color="#CDD5E2" stop-opacity="0"/>
</linearGradient>
<linearGradient id="paint1_linear_14034_99632" x1="391.41" y1="195.438" x2="353.85" y2="294.044" gradientUnits="userSpaceOnUse">
<stop stop-color="#CDD5E2"/>
<stop offset="1" stop-color="#CDD5E2" stop-opacity="0"/>
</linearGradient>
<linearGradient id="paint2_linear_14034_99632" x1="196.502" y1="23.2605" x2="196.502" y2="365.006" gradientUnits="userSpaceOnUse">
<stop stop-color="#CDD5E2"/>
<stop offset="1" stop-color="#CDD5E2" stop-opacity="0"/>
</linearGradient>
<linearGradient id="paint3_linear_14034_99632" x1="196.505" y1="57.4338" x2="196.505" y2="330.83" gradientUnits="userSpaceOnUse">
<stop stop-color="#CDD5E2"/>
<stop offset="1" stop-color="#CDD5E2" stop-opacity="0"/>
</linearGradient>
</defs>
</svg>
