<svg width="406" height="302" viewBox="0 0 406 302" fill="none" xmlns="http://www.w3.org/2000/svg">
<mask id="mask0_14040_103121" style="mask-type:alpha" maskUnits="userSpaceOnUse" x="0" y="0" width="406" height="302">
<rect width="405.823" height="301.875" fill="#D9D9D9"/>
</mask>
<g mask="url(#mask0_14040_103121)">
<g opacity="0.5">
<mask id="path-2-inside-1_14040_103121" fill="white">
<path d="M389.979 202.564C391.995 156.308 377.371 110.86 348.759 74.4585C320.146 38.0572 279.439 13.1117 234.015 4.14391C188.592 -4.82387 141.458 2.77957 101.159 25.576C60.859 48.3724 30.0607 84.853 14.3462 128.405L15.1858 128.708C30.8279 85.3568 61.4843 49.0443 101.598 26.353C141.712 3.66161 188.628 -3.90679 233.842 5.01966C279.057 13.9461 319.576 38.7766 348.057 75.0102C376.537 111.244 391.094 156.482 389.087 202.526L389.979 202.564Z"/>
</mask>
<path d="M389.979 202.564C391.995 156.308 377.371 110.86 348.759 74.4585C320.146 38.0572 279.439 13.1117 234.015 4.14391C188.592 -4.82387 141.458 2.77957 101.159 25.576C60.859 48.3724 30.0607 84.853 14.3462 128.405L15.1858 128.708C30.8279 85.3568 61.4843 49.0443 101.598 26.353C141.712 3.66161 188.628 -3.90679 233.842 5.01966C279.057 13.9461 319.576 38.7766 348.057 75.0102C376.537 111.244 391.094 156.482 389.087 202.526L389.979 202.564Z" stroke="url(#paint0_linear_14040_103121)" stroke-width="2.84788" stroke-dasharray="4.27 4.27" mask="url(#path-2-inside-1_14040_103121)"/>
</g>
<g opacity="0.5">
<mask id="path-3-inside-2_14040_103121" fill="white">
<path d="M14.6034 260.573C30.4882 304.063 61.4291 340.423 101.818 363.061C142.206 385.7 189.369 393.119 234.757 383.973C280.145 374.828 320.755 349.723 349.224 313.21C377.694 276.697 392.14 231.192 389.943 184.944L389.051 184.986C391.238 231.021 376.859 276.316 348.52 312.661C320.182 349.006 279.76 373.995 234.581 383.098C189.402 392.201 142.456 384.817 102.254 362.282C62.0517 339.748 31.2534 303.556 15.4418 260.266L14.6034 260.573Z"/>
</mask>
<path d="M14.6034 260.573C30.4882 304.063 61.4291 340.423 101.818 363.061C142.206 385.7 189.369 393.119 234.757 383.973C280.145 374.828 320.755 349.723 349.224 313.21C377.694 276.697 392.14 231.192 389.943 184.944L389.051 184.986C391.238 231.021 376.859 276.316 348.52 312.661C320.182 349.006 279.76 373.995 234.581 383.098C189.402 392.201 142.456 384.817 102.254 362.282C62.0517 339.748 31.2534 303.556 15.4418 260.266L14.6034 260.573Z" stroke="url(#paint1_linear_14040_103121)" stroke-width="2.84788" stroke-dasharray="4.27 4.27" mask="url(#path-3-inside-2_14040_103121)"/>
</g>
<circle opacity="0.08" cx="196.503" cy="194.133" r="170.873" fill="url(#paint2_linear_14040_103121)"/>
<circle opacity="0.1" cx="196.505" cy="194.132" r="136.698" fill="url(#paint3_linear_14040_103121)"/>
<circle cx="196.504" cy="194.134" r="91.1321" fill="white"/>
<g filter="url(#filter0_d_14040_103121)">
<circle cx="15.3224" cy="125.091" r="7.11969" transform="rotate(-2.50406 15.3224 125.091)" fill="#0170FF"/>
<circle cx="15.3224" cy="125.091" r="8.13822" transform="rotate(-2.50406 15.3224 125.091)" stroke="white" stroke-width="2.03704"/>
</g>
<g filter="url(#filter1_d_14040_103121)">
<circle cx="389.994" cy="182.517" r="7.11969" transform="rotate(-15.7345 389.994 182.517)" fill="#0170FF"/>
<circle cx="389.994" cy="182.517" r="8.13822" transform="rotate(-15.7345 389.994 182.517)" stroke="white" stroke-width="2.03704"/>
</g>
</g>
<path d="M314.898 290.76L140.83 291.82C140.662 291.82 140.5 291.887 140.381 292.006C140.262 292.125 140.195 292.286 140.195 292.454C140.195 292.623 140.262 292.784 140.381 292.903C140.5 293.022 140.662 293.089 140.83 293.089L314.898 292.029C315.066 292.029 315.227 291.962 315.346 291.843C315.465 291.724 315.532 291.563 315.532 291.395C315.532 291.226 315.465 291.065 315.346 290.946C315.227 290.827 315.066 290.76 314.898 290.76Z" fill="black"/>
<path d="M338.858 283.239H313.838C313.712 283.239 313.591 283.289 313.502 283.378C313.412 283.467 313.362 283.588 313.362 283.715C313.362 283.841 313.412 283.962 313.502 284.051C313.591 284.14 313.712 284.19 313.838 284.19H338.858C338.984 284.19 339.105 284.14 339.195 284.051C339.284 283.962 339.334 283.841 339.334 283.715C339.334 283.588 339.284 283.467 339.195 283.378C339.105 283.289 338.984 283.239 338.858 283.239Z" fill="black"/>
<path d="M146.115 298.041H120.038C119.912 298.041 119.791 298.091 119.702 298.18C119.613 298.269 119.562 298.39 119.562 298.517C119.562 298.643 119.613 298.764 119.702 298.853C119.791 298.942 119.912 298.992 120.038 298.992H146.115C146.241 298.992 146.362 298.942 146.451 298.853C146.541 298.764 146.591 298.643 146.591 298.517C146.591 298.39 146.541 298.269 146.451 298.18C146.362 298.091 146.241 298.041 146.115 298.041Z" fill="black"/>
<path d="M284.384 187.809C283.37 187.822 282.357 187.764 281.351 187.638C281.225 187.619 281.111 187.551 281.036 187.448C280.96 187.345 280.928 187.217 280.947 187.091C280.966 186.965 281.034 186.851 281.136 186.775C281.239 186.699 281.368 186.667 281.494 186.686C281.551 186.686 287.334 187.524 295.166 185.233C302.393 183.117 312.897 177.839 321.903 164.689C321.974 164.585 322.084 164.513 322.208 164.49C322.332 164.466 322.46 164.493 322.564 164.564C322.668 164.635 322.74 164.745 322.764 164.869C322.787 164.993 322.761 165.121 322.69 165.226C313.509 178.632 302.774 184.009 295.385 186.163C291.814 187.226 288.11 187.78 284.384 187.809Z" fill="black"/>
<path d="M303.278 194.998C297.933 194.998 294.434 193.659 294.288 193.599C294.226 193.579 294.17 193.546 294.121 193.503C294.073 193.461 294.033 193.408 294.005 193.35C293.978 193.291 293.962 193.228 293.96 193.163C293.958 193.098 293.969 193.034 293.993 192.974C294.016 192.913 294.052 192.858 294.097 192.812C294.143 192.766 294.197 192.73 294.257 192.706C294.317 192.681 294.382 192.67 294.446 192.671C294.511 192.672 294.575 192.687 294.633 192.714C294.776 192.768 309.013 198.107 323.413 186.791C323.512 186.718 323.637 186.686 323.759 186.703C323.882 186.719 323.993 186.783 324.07 186.881C324.146 186.978 324.181 187.101 324.168 187.224C324.155 187.347 324.095 187.461 324 187.54C316.25 193.631 308.595 194.957 303.538 194.998H303.278Z" fill="black"/>
<path d="M255.347 142.061C261.769 142.061 266.974 136.856 266.974 130.435C266.974 124.014 261.769 118.808 255.347 118.808C248.926 118.808 243.721 124.014 243.721 130.435C243.721 136.856 248.926 142.061 255.347 142.061Z" fill="#382256"/>
<path d="M255.347 118.805C257.648 118.805 259.896 119.487 261.809 120.765C263.721 122.043 265.212 123.86 266.092 125.985C266.972 128.11 267.202 130.449 266.753 132.705C266.304 134.961 265.196 137.033 263.57 138.659C261.943 140.286 259.87 141.393 257.614 141.842C255.358 142.29 253.02 142.059 250.895 141.178C248.77 140.298 246.954 138.807 245.676 136.894C244.399 134.981 243.717 132.732 243.717 130.432C243.717 128.905 244.018 127.393 244.603 125.982C245.187 124.571 246.044 123.289 247.124 122.209C248.204 121.13 249.486 120.273 250.897 119.689C252.308 119.105 253.82 118.805 255.347 118.805ZM255.347 117.854C252.859 117.853 250.426 118.59 248.356 119.973C246.287 121.355 244.674 123.32 243.721 125.619C242.768 127.918 242.519 130.448 243.004 132.889C243.49 135.33 244.688 137.572 246.448 139.331C248.207 141.091 250.449 142.289 252.89 142.775C255.331 143.26 257.861 143.011 260.16 142.058C262.459 141.105 264.424 139.492 265.807 137.423C267.189 135.353 267.926 132.92 267.926 130.432C267.921 127.097 266.595 123.9 264.237 121.542C261.879 119.184 258.682 117.858 255.347 117.854Z" fill="black"/>
<path d="M252.175 172.595C252.175 172.595 251.82 183.292 259.573 181.88C267.326 180.468 283.886 177.299 287.058 188.929C290.23 200.559 288.818 202.671 297.276 203.376C305.733 204.08 319.422 220.065 299.715 233.389C280.009 246.713 236.313 181.88 236.313 181.88L238.147 175.504L252.175 172.595Z" fill="#382256"/>
<path d="M252.175 172.595C252.175 172.595 251.858 182.01 258.225 182.01C258.678 182.008 259.129 181.965 259.573 181.88C262.803 181.293 267.568 180.399 272.263 180.399C278.817 180.399 285.218 182.147 287.068 188.929C290.24 200.556 288.828 202.671 297.286 203.376C305.743 204.08 319.432 220.065 299.725 233.389C297.931 234.597 295.81 235.227 293.647 235.194C272.256 235.194 236.326 181.88 236.326 181.88L238.16 175.504L252.185 172.595H252.175ZM252.185 171.643C252.12 171.643 252.055 171.649 251.991 171.662L237.967 174.574C237.797 174.609 237.641 174.69 237.514 174.807C237.387 174.925 237.295 175.075 237.247 175.24L235.413 181.617C235.374 181.751 235.365 181.891 235.386 182.029C235.408 182.166 235.459 182.297 235.537 182.413C241.943 191.705 248.858 200.636 256.249 209.165C271.907 227.07 284.482 236.146 293.647 236.146C296 236.177 298.306 235.491 300.258 234.179C311.504 226.565 311.393 218.597 310.327 214.511C308.566 207.779 302.203 202.827 297.365 202.424C291.179 201.907 290.973 201.041 289.387 194.284C289.009 192.682 288.581 190.864 287.984 188.675C286.316 182.549 281.025 179.444 272.263 179.444C267.634 179.444 262.863 180.313 259.71 180.887L259.411 180.941C259.023 181.015 258.629 181.053 258.234 181.055C257.682 181.074 257.132 180.976 256.621 180.768C256.109 180.56 255.647 180.246 255.265 179.847C253 177.509 253.133 172.671 253.137 172.623C253.141 172.496 253.119 172.369 253.073 172.249C253.028 172.13 252.958 172.022 252.869 171.93C252.781 171.838 252.674 171.765 252.556 171.715C252.439 171.665 252.313 171.64 252.185 171.64V171.643Z" fill="black"/>
<path d="M301.809 231.866C301.051 214.203 274.022 194.566 265.213 191.394C256.403 188.222 245.833 183.292 244.425 179.415C243.016 175.539 249.469 174.153 249.469 174.153L247.591 173.547L238.153 175.504L236.319 181.88C236.319 181.88 280.012 246.716 299.718 233.389C300.464 232.885 301.155 232.374 301.809 231.866Z" fill="#050505"/>
<path d="M210.078 148.095C210.078 148.095 206.015 138.188 212.359 133.255C218.704 128.322 220.109 129.731 223.282 126.91C226.454 124.09 234.556 123.738 239.492 128.322C239.492 128.322 249.358 126.558 254.995 131.494C260.632 136.431 261.34 140.656 260.633 146.649C259.925 152.641 260.632 155.81 260.28 160.039C259.928 164.268 257.076 175.206 239.66 175.548C222.244 175.891 210.078 148.095 210.078 148.095Z" fill="#382256"/>
<path d="M230.07 124.833C233.29 124.833 236.846 125.873 239.492 128.322C240.856 128.106 242.235 128 243.616 128.005C246.985 128.005 251.712 128.604 255.001 131.494C260.639 136.431 261.346 140.656 260.638 146.649C259.931 152.641 260.639 155.81 260.287 160.039C259.934 164.268 257.083 175.206 239.666 175.548H239.349C222.092 175.548 210.097 148.095 210.097 148.095C210.097 148.095 206.033 138.188 212.378 133.255C218.723 128.322 220.128 129.731 223.301 126.91C224.773 125.603 227.304 124.826 230.089 124.826L230.07 124.833ZM230.089 123.875C227.079 123.875 224.306 124.744 222.669 126.2C221.384 127.342 220.449 127.707 219.18 128.211C217.508 128.865 215.427 129.683 211.801 132.503C208.946 134.724 207.601 138.213 207.915 142.591C208.066 144.598 208.506 146.572 209.222 148.454V148.476C211.483 153.391 214.254 158.056 217.489 162.393C220.537 166.453 223.716 169.689 226.936 172.03C231.028 174.996 235.203 176.5 239.346 176.5H239.685C247.473 176.348 253.326 174.121 257.095 169.883C259.488 167.155 260.942 163.731 261.244 160.115C261.364 158.388 261.387 156.655 261.314 154.925C261.193 152.2 261.287 149.47 261.594 146.76C262.32 140.577 261.593 135.974 255.636 130.781C252.13 127.71 247.169 127.066 243.625 127.066C242.352 127.064 241.081 127.148 239.819 127.316C237.281 125.128 233.763 123.878 230.099 123.878L230.089 123.875Z" fill="black"/>
<path d="M123.21 154.748V160.74C123.21 160.74 112.637 166.377 117.57 181.88C122.503 197.383 133.076 229.449 186.282 224.868C186.282 224.868 171.484 264.335 176.417 291.82L286.708 290.408C286.708 290.408 307.145 285.475 306.088 271.733C305.032 257.991 302.916 259.402 303.268 249.184C303.62 238.966 293.05 201.26 245.481 186.813C245.481 186.813 229.975 201.26 219.405 187.165C219.405 187.165 182.758 194.919 170.779 194.214C158.801 193.51 158.445 191.042 159.149 180.824C159.854 170.606 156.333 161.444 145.055 157.216L144.351 152.635C144.351 152.635 139.418 156.873 123.21 154.748Z" fill="#07ACEE"/>
<path d="M144.351 152.635L145.055 157.216C156.333 161.444 159.854 170.606 159.15 180.824C158.445 191.042 158.797 193.513 170.779 194.214C171.3 194.246 171.867 194.259 172.476 194.259C185.876 194.259 219.405 187.165 219.405 187.165C222.872 191.788 226.866 193.342 230.673 193.342C238.476 193.342 245.481 186.813 245.481 186.813C293.066 201.26 303.62 238.963 303.268 249.184C302.916 259.405 305.029 257.991 306.088 271.733C307.148 285.476 286.709 290.408 286.709 290.408L176.417 291.82C171.484 264.335 186.282 224.868 186.282 224.868C182.793 225.17 179.484 225.313 176.347 225.313C131.718 225.313 122.18 196.368 117.57 181.88C112.637 166.377 123.21 160.74 123.21 160.74V154.748C126.002 155.128 128.815 155.326 131.633 155.341C141.194 155.341 144.351 152.635 144.351 152.635ZM144.351 151.683C144.127 151.683 143.91 151.761 143.738 151.905C143.71 151.931 140.607 154.389 131.633 154.389C128.856 154.372 126.083 154.177 123.331 153.805C123.291 153.802 123.25 153.802 123.21 153.805C122.958 153.805 122.716 153.906 122.537 154.084C122.359 154.263 122.259 154.505 122.259 154.757V160.217C120.415 161.464 118.867 163.102 117.725 165.013C115.774 168.236 114.007 173.829 116.666 182.179C118.826 188.977 122.449 200.356 131.259 209.692C136.131 214.82 142.056 218.833 148.627 221.455C156.504 224.653 165.83 226.274 176.347 226.274C179.091 226.274 181.959 226.163 184.89 225.957C182.4 233.136 180.292 240.443 178.574 247.846C175.741 260.068 172.902 277.665 175.481 292.01C175.521 292.233 175.638 292.434 175.813 292.577C175.987 292.721 176.207 292.798 176.432 292.794L286.721 291.382C286.793 291.382 286.864 291.373 286.934 291.357C290.561 290.398 294.041 288.955 297.282 287.065C304.128 283.007 307.5 277.688 307.04 271.682C306.535 265.147 305.79 261.969 305.19 259.418C304.524 256.563 304.039 254.523 304.223 249.238C304.381 244.651 302.265 232.441 293.136 219.069C288.226 211.923 282.165 205.64 275.199 200.476C266.786 194.198 256.879 189.304 245.76 185.925C245.671 185.899 245.578 185.885 245.484 185.884C245.248 185.888 245.022 185.979 244.85 186.141C244.783 186.201 238.02 192.412 230.692 192.412C226.603 192.412 223.078 190.461 220.185 186.617C220.096 186.498 219.981 186.403 219.849 186.336C219.717 186.27 219.571 186.236 219.424 186.236C219.357 186.236 219.291 186.243 219.227 186.258C218.91 186.328 185.645 193.329 172.496 193.329C171.899 193.329 171.347 193.313 170.852 193.285C165.193 192.952 162.474 192.241 161.161 190.747C159.673 189.056 159.775 185.903 160.12 180.913C160.942 168.969 156.041 160.556 145.931 156.549L145.296 152.511C145.27 152.344 145.199 152.186 145.091 152.055C144.984 151.924 144.843 151.824 144.684 151.766C144.583 151.727 144.475 151.706 144.367 151.705L144.351 151.683Z" fill="black"/>
<path d="M178.504 225.287C180.991 225.236 183.58 225.103 186.283 224.868C186.283 224.868 189.455 215.707 201.786 203.376C201.786 203.376 184.96 212.22 178.504 225.287Z" fill="#0598C6"/>
<path d="M266.974 277.738C262.745 275.27 259.224 276.326 260.28 271.394C261.336 266.461 268.737 258.003 269.442 250.253C270.146 242.503 266.621 231.578 253.938 219.596C253.938 219.596 266.974 235.102 264.156 247.433C261.339 259.764 252.175 270.337 259.224 276.326C259.224 276.326 252.816 286.3 254.963 290.827L270.009 290.637C270.146 289.2 270.873 279.997 266.974 277.738Z" fill="#0598C6"/>
<path d="M186.283 225.344C186.218 225.344 186.155 225.331 186.095 225.306C186.037 225.281 185.984 225.245 185.94 225.2C185.896 225.154 185.861 225.1 185.838 225.041C185.815 224.982 185.804 224.919 185.806 224.855C185.808 224.792 185.822 224.73 185.848 224.672C190.41 214.143 202.382 201.749 202.503 201.625C202.546 201.578 202.598 201.54 202.656 201.513C202.714 201.486 202.776 201.472 202.84 201.47C202.904 201.468 202.967 201.479 203.027 201.502C203.086 201.525 203.14 201.56 203.186 201.604C203.232 201.649 203.268 201.702 203.293 201.761C203.318 201.819 203.33 201.883 203.33 201.946C203.33 202.01 203.317 202.073 203.292 202.132C203.267 202.191 203.231 202.244 203.185 202.288C203.067 202.412 191.212 214.682 186.72 225.049C186.685 225.136 186.624 225.211 186.546 225.263C186.468 225.316 186.377 225.344 186.283 225.344Z" fill="black"/>
<path d="M263.595 276.717C263.509 276.716 263.425 276.693 263.351 276.65C257.774 273.29 259.392 270.55 262.615 265.084C263.484 263.605 264.474 261.93 265.511 259.945C270.39 250.605 269.692 246.481 266.463 237.078C263.291 227.879 253.745 220.03 253.65 219.948C253.601 219.909 253.561 219.86 253.531 219.805C253.502 219.75 253.483 219.69 253.476 219.628C253.47 219.566 253.476 219.503 253.494 219.443C253.511 219.383 253.541 219.327 253.58 219.279C253.619 219.23 253.668 219.19 253.723 219.16C253.778 219.13 253.838 219.112 253.9 219.105C253.962 219.099 254.025 219.104 254.085 219.122C254.145 219.14 254.201 219.169 254.249 219.209C254.652 219.526 264.106 227.305 267.361 236.761C270.615 246.218 271.386 250.751 266.358 260.379C265.308 262.387 264.315 264.072 263.436 265.56C260.175 271.092 259.075 272.957 263.846 275.828C263.934 275.882 264.003 275.964 264.041 276.06C264.078 276.157 264.084 276.263 264.056 276.363C264.028 276.463 263.968 276.551 263.885 276.613C263.803 276.676 263.702 276.71 263.598 276.71L263.595 276.717Z" fill="black"/>
<path d="M144.351 152.635C144.351 152.635 139.418 156.863 123.211 154.748V160.74C123.211 160.74 138.924 167.024 145.056 157.216L144.351 152.635Z" fill="#0598C6"/>
<path d="M134.254 211.304C141.328 217.835 151.403 223.082 166.078 224.754C165.606 199.975 134.254 211.304 134.254 211.304Z" fill="#0598C6"/>
<path d="M152.52 185.598C153.946 185.598 155.102 184.442 155.102 183.016C155.102 181.59 153.946 180.434 152.52 180.434C151.094 180.434 149.938 181.59 149.938 183.016C149.938 184.442 151.094 185.598 152.52 185.598Z" fill="#51CEF4"/>
<path d="M175.996 211.611C177.422 211.611 178.578 210.455 178.578 209.029C178.578 207.603 177.422 206.447 175.996 206.447C174.569 206.447 173.413 207.603 173.413 209.029C173.413 210.455 174.569 211.611 175.996 211.611Z" fill="#51CEF4"/>
<path d="M215.332 220.176C216.759 220.176 217.915 219.02 217.915 217.594C217.915 216.168 216.759 215.012 215.332 215.012C213.906 215.012 212.75 216.168 212.75 217.594C212.75 219.02 213.906 220.176 215.332 220.176Z" fill="#51CEF4"/>
<path d="M191.857 249.045C193.283 249.045 194.439 247.889 194.439 246.462C194.439 245.036 193.283 243.88 191.857 243.88C190.431 243.88 189.274 245.036 189.274 246.462C189.274 247.889 190.431 249.045 191.857 249.045Z" fill="#51CEF4"/>
<path d="M247.69 235.086C249.116 235.086 250.272 233.93 250.272 232.504C250.272 231.078 249.116 229.922 247.69 229.922C246.264 229.922 245.107 231.078 245.107 232.504C245.107 233.93 246.264 235.086 247.69 235.086Z" fill="#51CEF4"/>
<path d="M223.581 245.238C225.007 245.238 226.163 244.082 226.163 242.656C226.163 241.229 225.007 240.073 223.581 240.073C222.154 240.073 220.998 241.229 220.998 242.656C220.998 244.082 222.154 245.238 223.581 245.238Z" fill="#51CEF4"/>
<path d="M251.497 263.003C252.923 263.003 254.079 261.847 254.079 260.421C254.079 258.995 252.923 257.838 251.497 257.838C250.07 257.838 248.914 258.995 248.914 260.421C248.914 261.847 250.07 263.003 251.497 263.003Z" fill="#51CEF4"/>
<path d="M183.609 288.064C185.035 288.064 186.191 286.908 186.191 285.482C186.191 284.056 185.035 282.9 183.609 282.9C182.183 282.9 181.026 284.056 181.026 285.482C181.026 286.908 182.183 288.064 183.609 288.064Z" fill="#51CEF4"/>
<path d="M211.208 271.885C212.635 271.885 213.791 270.729 213.791 269.303C213.791 267.877 212.635 266.721 211.208 266.721C209.782 266.721 208.626 267.877 208.626 269.303C208.626 270.729 209.782 271.885 211.208 271.885Z" fill="#51CEF4"/>
<path d="M240.394 287.112C241.82 287.112 242.976 285.956 242.976 284.53C242.976 283.104 241.82 281.948 240.394 281.948C238.968 281.948 237.812 283.104 237.812 284.53C237.812 285.956 238.968 287.112 240.394 287.112Z" fill="#51CEF4"/>
<path d="M256.573 202.729C257.999 202.729 259.155 201.573 259.155 200.146C259.155 198.72 257.999 197.564 256.573 197.564C255.147 197.564 253.99 198.72 253.99 200.146C253.99 201.573 255.147 202.729 256.573 202.729Z" fill="#51CEF4"/>
<path d="M272.117 230.328C273.543 230.328 274.699 229.172 274.699 227.746C274.699 226.319 273.543 225.163 272.117 225.163C270.69 225.163 269.534 226.319 269.534 227.746C269.534 229.172 270.69 230.328 272.117 230.328Z" fill="#51CEF4"/>
<path d="M299.081 268.079C300.508 268.079 301.664 266.922 301.664 265.496C301.664 264.07 300.508 262.914 299.081 262.914C297.655 262.914 296.499 264.07 296.499 265.496C296.499 266.922 297.655 268.079 299.081 268.079Z" fill="#51CEF4"/>
<path d="M276.875 260.465C278.302 260.465 279.458 259.309 279.458 257.883C279.458 256.457 278.302 255.301 276.875 255.301C275.449 255.301 274.293 256.457 274.293 257.883C274.293 259.309 275.449 260.465 276.875 260.465Z" fill="#51CEF4"/>
<path d="M140.932 200.651C142.358 200.651 143.514 199.495 143.514 198.069C143.514 196.642 142.358 195.486 140.932 195.486C139.506 195.486 138.35 196.642 138.35 198.069C138.35 199.495 139.506 200.651 140.932 200.651Z" fill="#51CEF4"/>
<path d="M126.596 175.996C128.022 175.996 129.178 174.839 129.178 173.413C129.178 171.987 128.022 170.831 126.596 170.831C125.17 170.831 124.014 171.987 124.014 173.413C124.014 174.839 125.17 175.996 126.596 175.996Z" fill="#51CEF4"/>
<path d="M219.405 187.166C219.405 187.166 212.711 189.986 216.588 193.862C220.464 197.739 226.422 195.169 229.439 193.282C229.439 193.282 228.566 198.091 234.911 197.387C241.256 196.682 246.186 194.919 245.481 187.166H219.405Z" fill="white"/>
<path d="M245.481 187.166C246.186 194.919 241.253 196.683 234.911 197.387C234.512 197.432 234.111 197.455 233.709 197.457C228.681 197.457 229.439 193.282 229.439 193.282C227.577 194.452 224.582 195.88 221.648 195.88C220.709 195.907 219.775 195.742 218.902 195.395C218.029 195.048 217.236 194.526 216.572 193.862C212.695 189.986 219.389 187.166 219.389 187.166H245.465H245.481ZM245.465 186.214H219.389C219.263 186.214 219.137 186.24 219.021 186.29C218.612 186.461 215.008 188.051 214.475 190.766C214.221 192.07 214.7 193.336 215.896 194.535C216.646 195.287 217.542 195.878 218.528 196.273C219.514 196.668 220.57 196.858 221.632 196.832C224.271 196.832 226.847 195.769 228.535 194.887C228.667 195.576 228.97 196.221 229.417 196.762C230.327 197.853 231.768 198.408 233.693 198.408C234.13 198.407 234.566 198.381 235 198.332C237.855 198.015 241.107 197.447 243.403 195.671C245.786 193.831 246.769 191.02 246.414 187.08C246.393 186.843 246.283 186.622 246.107 186.462C245.93 186.301 245.701 186.213 245.462 186.214H245.465Z" fill="black"/>
<path d="M258.3 290.814C258.3 290.814 255.699 279.486 266.974 274.553C278.248 269.62 290.23 268.564 297.631 274.553C305.032 280.542 305.736 287.943 303.62 292.876C301.504 297.809 296.222 298.866 290.582 294.989C290.582 294.989 285.297 302.742 275.783 295.341C275.783 295.341 263.452 303.799 263.094 290.408L258.3 290.814Z" fill="#FFCDB2"/>
<path d="M284.533 270.442C289.561 270.442 294.123 271.711 297.644 274.547C305.042 280.536 305.749 287.937 303.633 292.87C302.39 295.776 300.042 297.337 297.171 297.337C295.169 297.337 292.914 296.579 290.595 294.983C290.595 294.983 288.175 298.536 283.657 298.536C281.503 298.536 278.87 297.727 275.796 295.335C275.796 295.335 271.954 297.971 268.5 297.971C265.762 297.971 263.269 296.322 263.107 290.402L258.307 290.808C258.307 290.808 255.706 279.48 266.98 274.547C272.89 271.961 278.994 270.442 284.526 270.442H284.533ZM284.526 269.49C279.057 269.49 272.858 270.937 266.599 273.674C260.407 276.384 258.228 280.971 257.486 284.324C256.999 286.526 256.963 288.804 257.381 291.021C257.429 291.231 257.547 291.418 257.715 291.552C257.883 291.686 258.092 291.76 258.307 291.76H258.39L262.196 291.443C262.663 297.6 265.832 298.933 268.484 298.933C271.402 298.933 274.476 297.267 275.736 296.503C278.448 298.492 281.107 299.497 283.641 299.497C284.99 299.483 286.322 299.188 287.55 298.63C288.779 298.073 289.877 297.265 290.776 296.258C292.939 297.594 295.128 298.298 297.155 298.298C300.445 298.298 303.119 296.458 304.493 293.254C305.728 290.281 305.946 286.983 305.112 283.874C304.16 280.159 301.765 276.679 298.228 273.817C294.69 270.956 290.075 269.5 284.517 269.5L284.526 269.49Z" fill="black"/>
<path d="M275.783 295.82C275.726 295.82 275.669 295.811 275.615 295.792C275.497 295.746 275.402 295.656 275.35 295.541C275.299 295.426 275.295 295.295 275.339 295.176C278.048 288.061 274.685 280.822 274.651 280.752C274.596 280.638 274.59 280.507 274.632 280.388C274.674 280.269 274.762 280.172 274.876 280.118C274.99 280.063 275.121 280.056 275.24 280.099C275.359 280.141 275.456 280.229 275.51 280.343C275.656 280.66 279.086 288.013 276.227 295.516C276.194 295.606 276.133 295.684 276.053 295.738C275.974 295.793 275.88 295.821 275.783 295.82Z" fill="black"/>
<path d="M290.585 295.82C290.542 295.827 290.498 295.827 290.455 295.82C290.336 295.784 290.236 295.702 290.177 295.592C290.117 295.482 290.103 295.353 290.138 295.233C293.19 284.384 287.882 279.918 287.829 279.873C287.778 279.834 287.736 279.786 287.705 279.73C287.674 279.675 287.654 279.614 287.647 279.55C287.639 279.487 287.645 279.423 287.663 279.362C287.681 279.301 287.711 279.244 287.751 279.195C287.791 279.146 287.841 279.105 287.898 279.075C287.954 279.046 288.016 279.028 288.079 279.022C288.143 279.017 288.206 279.024 288.267 279.044C288.327 279.064 288.383 279.095 288.431 279.137C288.669 279.331 294.275 284.045 291.055 295.49C291.023 295.589 290.96 295.675 290.875 295.734C290.791 295.794 290.689 295.824 290.585 295.82Z" fill="black"/>
<path d="M301.721 293.863C301.66 293.863 301.601 293.854 301.543 293.838C301.382 293.791 301.245 293.683 301.164 293.536C301.082 293.389 301.062 293.216 301.108 293.054C302.457 288.394 302.177 284.387 300.28 281.148C297.26 275.984 291.081 274.486 291.005 274.467C290.923 274.448 290.847 274.414 290.779 274.365C290.711 274.317 290.653 274.255 290.609 274.184C290.565 274.113 290.536 274.035 290.522 273.952C290.508 273.87 290.511 273.786 290.53 273.705C290.549 273.623 290.584 273.547 290.633 273.479C290.681 273.411 290.743 273.353 290.814 273.309C290.884 273.265 290.963 273.236 291.046 273.222C291.128 273.209 291.212 273.211 291.293 273.23C291.566 273.294 298.063 274.861 301.372 280.498C303.453 284.051 303.776 288.391 302.323 293.403C302.286 293.534 302.207 293.65 302.098 293.733C301.99 293.816 301.857 293.861 301.721 293.863Z" fill="white"/>
<path d="M105.591 129.731C105.591 129.731 98.847 146.109 123.889 154.833C123.889 154.833 137.657 158.976 144.351 152.635V150.874C144.351 150.874 154.217 144.882 152.456 138.185C152.456 138.185 145.407 135.717 137.305 143.822C137.305 143.822 133.076 131.488 120.038 131.488C120.038 131.488 114.753 128.316 112.637 131.136C112.637 131.139 110.172 127.97 105.591 129.731Z" fill="#FFCDB2"/>
<path d="M108.275 129.198C109.099 129.19 109.915 129.36 110.667 129.695C111.42 130.03 112.091 130.522 112.637 131.139C113.291 130.273 114.239 129.972 115.245 129.972C117.504 129.972 120.038 131.491 120.038 131.491C133.076 131.491 137.305 143.825 137.305 143.825C142.343 138.788 146.971 137.836 149.753 137.836C150.667 137.815 151.578 137.933 152.456 138.188C154.217 144.882 144.351 150.877 144.351 150.877V152.638C141.448 155.388 137.216 156.165 133.353 156.165C130.154 156.135 126.973 155.688 123.889 154.836C98.8472 146.112 105.591 129.734 105.591 129.734C106.445 129.391 107.355 129.211 108.275 129.201V129.198ZM108.275 128.249C107.238 128.26 106.212 128.462 105.249 128.845C105.128 128.892 105.019 128.963 104.927 129.054C104.834 129.144 104.762 129.253 104.713 129.372C104.614 129.607 102.384 135.184 105.312 141.7C108.028 147.727 114.173 152.46 123.575 155.737H123.613C126.786 156.616 130.06 157.076 133.353 157.104C138.428 157.104 142.352 155.836 145.007 153.317C145.101 153.228 145.175 153.12 145.226 153.001C145.277 152.882 145.303 152.754 145.303 152.625V151.385C147.327 150.049 155.086 144.434 153.376 137.937C153.336 137.787 153.261 137.648 153.155 137.533C153.049 137.419 152.917 137.332 152.77 137.281C151.792 136.989 150.774 136.852 149.753 136.875C146.831 136.875 142.438 137.826 137.644 142.176C136.762 140.313 135.63 138.58 134.279 137.024C132.555 134.996 130.412 133.365 127.997 132.245C125.583 131.124 122.954 130.54 120.292 130.533C119.572 130.137 117.345 129.01 115.245 129.01C114.313 128.983 113.397 129.26 112.637 129.8C111.412 128.783 109.868 128.23 108.275 128.236V128.249Z" fill="black"/>
<path d="M135.542 149.938H135.516C135.454 149.935 135.393 149.919 135.337 149.893C135.281 149.866 135.231 149.828 135.189 149.782C135.148 149.736 135.116 149.682 135.095 149.623C135.075 149.564 135.066 149.502 135.069 149.44C135.069 149.377 135.098 148.136 133.832 146.902C132.446 145.567 129.302 144.092 122.189 144.64C122.102 144.646 122.014 144.627 121.936 144.587C121.858 144.547 121.792 144.486 121.745 144.412C121.698 144.333 116.784 136.291 112.289 131.45C112.237 131.406 112.195 131.352 112.165 131.291C112.136 131.23 112.121 131.163 112.119 131.095C112.118 131.027 112.131 130.96 112.158 130.897C112.185 130.835 112.225 130.779 112.275 130.734C112.325 130.688 112.385 130.654 112.449 130.633C112.514 130.612 112.582 130.605 112.649 130.613C112.717 130.621 112.782 130.643 112.84 130.678C112.898 130.713 112.948 130.76 112.987 130.815C117.111 135.257 121.533 142.277 122.405 143.682C128.277 143.267 132.354 144.136 134.523 146.261C136.11 147.797 136.021 149.434 136.018 149.491C136.01 149.612 135.957 149.726 135.869 149.809C135.78 149.892 135.663 149.938 135.542 149.938Z" fill="black"/>
<path d="M128.848 142.188C128.751 142.187 128.657 142.155 128.578 142.099C128.499 142.042 128.439 141.963 128.407 141.871C128.385 141.82 126.247 136.63 119.743 131.498C119.691 131.46 119.647 131.412 119.614 131.357C119.581 131.302 119.559 131.241 119.55 131.177C119.542 131.113 119.546 131.049 119.563 130.987C119.579 130.925 119.609 130.867 119.649 130.816C119.689 130.766 119.738 130.724 119.795 130.693C119.851 130.663 119.913 130.644 119.977 130.638C120.041 130.632 120.106 130.639 120.167 130.658C120.228 130.678 120.285 130.71 120.334 130.752C127.049 136.053 129.216 141.297 129.289 141.519C129.315 141.578 129.328 141.641 129.329 141.705C129.33 141.769 129.317 141.833 129.293 141.892C129.268 141.952 129.232 142.005 129.186 142.05C129.14 142.095 129.085 142.13 129.026 142.153C128.969 142.176 128.909 142.187 128.848 142.188Z" fill="black"/>
<path d="M123.35 152.565H123.239C113.186 150.769 107.86 141.024 107.638 140.612C107.558 140.463 107.541 140.289 107.59 140.128C107.638 139.967 107.749 139.831 107.898 139.752C108.046 139.672 108.22 139.655 108.382 139.704C108.543 139.753 108.678 139.864 108.758 140.012C108.808 140.107 114.024 149.631 123.461 151.315C123.629 151.33 123.785 151.411 123.894 151.54C124.002 151.67 124.055 151.837 124.04 152.005C124.025 152.173 123.944 152.329 123.815 152.437C123.686 152.546 123.519 152.599 123.35 152.584V152.565Z" fill="white"/>
<path d="M225.042 174.13L219.405 187.165C219.405 187.165 227.51 200.908 245.482 186.813C245.482 186.813 236.672 179.063 240.196 166.025C240.196 166.025 245.833 167.786 247.594 162.853C249.355 157.92 246.186 155.1 243.366 155.1C243.366 155.1 231.739 156.159 233.147 133.959C233.147 133.959 222.225 132.551 215.176 140.653C208.127 148.755 203.902 160.388 209.187 167.433C214.472 174.479 225.042 174.13 225.042 174.13Z" fill="#FFCDB2"/>
<path d="M231.219 133.864C231.863 133.858 232.507 133.89 233.147 133.959C231.859 154.23 241.443 155.109 243.118 155.109C243.28 155.109 243.365 155.109 243.365 155.109C246.186 155.109 249.358 157.929 247.594 162.862C246.566 165.74 244.222 166.352 242.442 166.352C241.683 166.349 240.927 166.242 240.196 166.035C236.672 179.073 245.481 186.823 245.481 186.823C239.387 191.6 234.432 193.167 230.536 193.167C222.948 193.167 219.405 187.162 219.405 187.162L225.042 174.127H224.795C223.164 174.127 213.993 173.838 209.187 167.43C203.902 160.385 208.13 148.755 215.176 140.65C220.407 134.622 227.767 133.861 231.219 133.861V133.864ZM231.219 132.909C227.272 132.909 219.843 133.836 214.459 140.028C210.694 144.358 207.915 149.386 206.636 154.192C205.171 159.709 205.789 164.486 208.425 168.001C212.775 173.8 220.391 174.86 223.608 175.044L218.532 186.782C218.473 186.919 218.446 187.069 218.456 187.219C218.465 187.369 218.51 187.515 218.586 187.644C218.742 187.908 222.495 194.116 230.536 194.116C235.295 194.116 240.517 191.895 246.081 187.556C246.191 187.469 246.28 187.36 246.343 187.235C246.406 187.111 246.44 186.974 246.444 186.834C246.448 186.694 246.421 186.556 246.365 186.428C246.31 186.3 246.227 186.185 246.122 186.093C244.562 184.567 243.284 182.778 242.347 180.808C240.272 176.563 239.787 171.97 240.907 167.145C241.419 167.23 241.936 167.273 242.455 167.275C245.408 167.275 247.556 165.816 248.504 163.167C249.399 160.658 249.215 158.31 247.981 156.559C247.459 155.822 246.77 155.218 245.97 154.798C245.17 154.378 244.281 154.153 243.378 154.142H243.292H243.131C242.452 154.142 240.066 153.964 237.922 151.68C234.898 148.457 233.582 142.347 234.115 134.004C234.131 133.762 234.054 133.524 233.9 133.337C233.746 133.15 233.527 133.029 233.287 132.998C232.605 132.925 231.92 132.891 231.234 132.897L231.219 132.909Z" fill="black"/>
<path d="M224.686 174.955C224.369 174.955 224.052 174.939 223.735 174.911C223.608 174.899 223.492 174.837 223.412 174.739C223.331 174.641 223.293 174.515 223.305 174.389C223.317 174.263 223.379 174.147 223.477 174.066C223.575 173.985 223.7 173.947 223.827 173.959C226.999 174.276 230.806 172.665 230.844 172.646C230.96 172.596 231.091 172.595 231.208 172.642C231.325 172.689 231.419 172.78 231.469 172.896C231.519 173.012 231.52 173.144 231.473 173.261C231.426 173.378 231.334 173.472 231.218 173.521C231.069 173.572 227.827 174.955 224.686 174.955Z" fill="black"/>
<path d="M241.605 164.033C241.5 164.032 241.399 163.997 241.316 163.933C241.234 163.869 241.174 163.78 241.148 163.679C241.121 163.577 241.128 163.47 241.168 163.374C241.209 163.277 241.28 163.197 241.37 163.145C243.03 162.212 243.892 161.222 243.94 160.198C244.006 158.741 242.408 157.618 242.392 157.606C242.337 157.572 242.29 157.527 242.253 157.474C242.216 157.421 242.19 157.361 242.177 157.298C242.164 157.235 242.164 157.169 242.177 157.106C242.189 157.043 242.215 156.983 242.252 156.93C242.289 156.877 242.336 156.832 242.391 156.798C242.446 156.764 242.507 156.741 242.571 156.731C242.634 156.721 242.7 156.725 242.762 156.741C242.825 156.757 242.883 156.786 242.934 156.825C243.017 156.882 244.984 158.266 244.892 160.242C244.825 161.616 243.8 162.869 241.84 163.973C241.768 164.012 241.687 164.033 241.605 164.033Z" fill="black"/>
<path d="M225.077 147.419C229.871 151.014 238.115 152 238.468 154.465C238.82 156.93 236.707 159.046 233.535 158.342C230.362 157.637 227.545 156.229 221.908 153.057C216.271 149.884 210.983 146.363 213.099 143.54C215.215 140.716 218.031 142.134 225.077 147.419Z" fill="#FFB49F"/>
<path d="M222.226 148.669C222.11 148.67 221.997 148.628 221.91 148.552C221.823 148.475 221.767 148.369 221.753 148.254C221.575 146.845 221.004 145.77 220.053 145.059C218.149 143.628 215.294 144.079 215.256 144.082C215.194 144.092 215.13 144.09 215.068 144.076C215.007 144.061 214.948 144.035 214.897 143.998C214.845 143.961 214.802 143.914 214.769 143.86C214.735 143.806 214.713 143.746 214.703 143.684C214.692 143.621 214.695 143.558 214.709 143.496C214.724 143.434 214.75 143.376 214.787 143.325C214.824 143.273 214.871 143.23 214.924 143.196C214.978 143.163 215.038 143.141 215.101 143.13C215.231 143.108 218.378 142.61 220.617 144.279C221.788 145.151 222.489 146.445 222.698 148.124C222.706 148.186 222.701 148.249 222.684 148.309C222.668 148.369 222.639 148.425 222.601 148.475C222.562 148.524 222.514 148.565 222.459 148.596C222.405 148.626 222.345 148.646 222.283 148.653L222.226 148.669Z" fill="black"/>
<path d="M235.191 156.105C235.093 156.104 234.998 156.073 234.919 156.016C234.84 155.959 234.779 155.88 234.746 155.788C232.815 150.633 228.113 151.8 227.913 151.851C227.853 151.867 227.79 151.871 227.728 151.863C227.666 151.855 227.606 151.834 227.552 151.803C227.498 151.772 227.451 151.73 227.413 151.68C227.375 151.63 227.347 151.574 227.331 151.513C227.315 151.453 227.311 151.39 227.32 151.328C227.328 151.266 227.348 151.206 227.38 151.152C227.411 151.098 227.453 151.051 227.502 151.013C227.552 150.975 227.609 150.947 227.669 150.931C227.726 150.931 233.398 149.482 235.638 155.452C235.682 155.57 235.678 155.701 235.625 155.816C235.573 155.931 235.477 156.02 235.359 156.064C235.306 156.089 235.249 156.103 235.191 156.105Z" fill="black"/>
<path d="M224.176 141.934C223.211 141.94 222.252 141.775 221.343 141.449C221.285 141.426 221.232 141.392 221.187 141.348C221.142 141.304 221.106 141.252 221.082 141.195C221.057 141.138 221.044 141.076 221.043 141.013C221.042 140.951 221.053 140.889 221.076 140.83C221.1 140.772 221.134 140.719 221.178 140.675C221.221 140.63 221.273 140.594 221.331 140.569C221.388 140.544 221.45 140.531 221.512 140.53C221.575 140.529 221.637 140.541 221.695 140.564C222.859 140.961 224.102 141.07 225.318 140.881C225.444 140.861 225.573 140.891 225.677 140.966C225.781 141.04 225.851 141.153 225.872 141.279C225.892 141.406 225.862 141.535 225.787 141.639C225.713 141.742 225.6 141.812 225.473 141.833C225.044 141.901 224.61 141.935 224.176 141.934Z" fill="black"/>
<path d="M225.952 165.438C224.455 165.435 223.011 164.887 221.889 163.896C221.844 163.852 221.809 163.8 221.785 163.742C221.76 163.685 221.748 163.623 221.748 163.56C221.748 163.498 221.76 163.436 221.785 163.378C221.809 163.32 221.844 163.268 221.889 163.224C221.978 163.136 222.099 163.086 222.225 163.086C222.351 163.086 222.472 163.136 222.561 163.224C222.682 163.344 225.527 166.079 229.705 163.17C229.809 163.098 229.937 163.07 230.062 163.093C230.186 163.116 230.296 163.187 230.368 163.29C230.44 163.394 230.468 163.523 230.445 163.647C230.423 163.771 230.352 163.882 230.248 163.954C228.639 165.064 227.183 165.438 225.952 165.438Z" fill="black"/>
<path d="M244.486 155.166C242.716 155.166 240.841 154.89 239.226 154.053C239.167 154.026 239.115 153.987 239.072 153.939C239.029 153.892 238.996 153.836 238.975 153.775C238.954 153.714 238.946 153.649 238.951 153.585C238.955 153.521 238.973 153.458 239.003 153.401C239.032 153.344 239.073 153.294 239.123 153.253C239.173 153.212 239.23 153.181 239.292 153.163C239.354 153.146 239.419 153.14 239.482 153.148C239.546 153.156 239.608 153.176 239.664 153.209C243.93 155.429 250.551 153.263 250.615 153.241C250.674 153.22 250.736 153.211 250.799 153.214C250.862 153.218 250.923 153.233 250.98 153.26C251.036 153.287 251.087 153.325 251.129 153.372C251.171 153.419 251.203 153.473 251.224 153.532C251.245 153.592 251.253 153.654 251.25 153.717C251.247 153.779 251.231 153.841 251.204 153.897C251.177 153.954 251.139 154.005 251.092 154.046C251.045 154.088 250.991 154.121 250.932 154.141C248.845 154.795 246.673 155.14 244.486 155.166Z" fill="black"/>
<path d="M271.209 127.389C271.174 127.393 271.139 127.393 271.104 127.389C270.981 127.361 270.875 127.285 270.808 127.178C270.74 127.071 270.718 126.942 270.746 126.818C271.326 124.303 271.044 122.114 269.908 120.309C267.878 117.079 263.748 116.121 263.706 116.112C263.642 116.102 263.58 116.08 263.524 116.045C263.468 116.011 263.42 115.965 263.383 115.911C263.346 115.857 263.32 115.796 263.308 115.732C263.295 115.668 263.296 115.601 263.31 115.537C263.324 115.474 263.352 115.413 263.39 115.36C263.429 115.307 263.478 115.263 263.535 115.23C263.591 115.197 263.654 115.176 263.719 115.168C263.784 115.161 263.85 115.167 263.913 115.186C264.097 115.227 268.462 116.229 270.711 119.795C271.98 121.825 272.297 124.258 271.663 127.031C271.637 127.132 271.579 127.223 271.497 127.288C271.415 127.353 271.314 127.388 271.209 127.389Z" fill="black"/>
<path d="M219.025 156.238C218.905 156.235 218.792 156.186 218.707 156.102C218.618 156.013 218.568 155.892 218.568 155.766C218.568 155.64 218.618 155.519 218.707 155.429L225.464 148.498C225.507 148.451 225.56 148.413 225.617 148.386C225.675 148.359 225.738 148.345 225.802 148.343C225.866 148.341 225.929 148.352 225.989 148.375C226.048 148.398 226.102 148.433 226.148 148.477C226.194 148.522 226.23 148.575 226.255 148.634C226.279 148.692 226.292 148.756 226.292 148.819C226.292 148.883 226.279 148.946 226.254 149.005C226.229 149.064 226.193 149.117 226.147 149.161L219.386 156.096C219.34 156.144 219.283 156.182 219.221 156.206C219.159 156.231 219.092 156.242 219.025 156.238Z" fill="black"/>
<path d="M242.34 168.928C243.391 168.928 244.243 168.076 244.243 167.024C244.243 165.973 243.391 165.121 242.34 165.121C241.289 165.121 240.437 165.973 240.437 167.024C240.437 168.076 241.289 168.928 242.34 168.928Z" fill="#07ACEE"/>
<path d="M242.34 165.121C242.717 165.121 243.085 165.233 243.398 165.442C243.711 165.651 243.955 165.948 244.099 166.296C244.243 166.644 244.281 167.026 244.207 167.396C244.134 167.765 243.952 168.104 243.686 168.37C243.42 168.636 243.081 168.818 242.712 168.891C242.343 168.965 241.96 168.927 241.612 168.783C241.264 168.639 240.967 168.395 240.758 168.082C240.549 167.769 240.437 167.401 240.437 167.024C240.437 166.519 240.638 166.035 240.995 165.678C241.352 165.321 241.836 165.121 242.34 165.121ZM242.34 164.169C241.776 164.169 241.224 164.337 240.754 164.65C240.285 164.964 239.919 165.41 239.703 165.932C239.487 166.453 239.43 167.027 239.54 167.581C239.65 168.135 239.922 168.644 240.321 169.043C240.721 169.442 241.23 169.714 241.783 169.825C242.337 169.935 242.911 169.878 243.433 169.662C243.955 169.446 244.401 169.08 244.714 168.61C245.028 168.141 245.196 167.589 245.196 167.024C245.196 166.267 244.895 165.541 244.359 165.005C243.824 164.47 243.098 164.169 242.34 164.169Z" fill="black"/>
<path d="M263.805 131.967H263.77C263.707 131.963 263.646 131.946 263.59 131.918C263.534 131.89 263.484 131.851 263.443 131.803C263.402 131.756 263.371 131.701 263.352 131.641C263.332 131.582 263.324 131.519 263.329 131.456C263.532 128.728 262.91 126.593 261.479 125.112C259.141 122.691 255.404 122.805 255.366 122.805C255.304 122.808 255.242 122.798 255.183 122.777C255.124 122.755 255.07 122.722 255.024 122.68C254.978 122.637 254.941 122.586 254.915 122.529C254.889 122.473 254.874 122.411 254.871 122.349C254.869 122.286 254.879 122.224 254.9 122.165C254.922 122.106 254.955 122.053 254.997 122.007C255.04 121.961 255.091 121.924 255.148 121.897C255.204 121.871 255.266 121.856 255.328 121.854C255.5 121.854 259.535 121.724 262.165 124.449C263.792 126.133 264.503 128.512 264.278 131.526C264.269 131.646 264.216 131.758 264.128 131.84C264.04 131.922 263.925 131.967 263.805 131.967Z" fill="white"/>
<path d="M299.125 238.719C298.987 238.718 298.853 238.673 298.743 238.589C298.633 238.506 298.553 238.389 298.516 238.256C292.311 216.237 268.887 201.336 268.652 201.187C268.575 201.146 268.507 201.09 268.453 201.022C268.399 200.953 268.359 200.875 268.337 200.791C268.315 200.706 268.309 200.618 268.322 200.532C268.335 200.446 268.366 200.364 268.412 200.29C268.459 200.216 268.52 200.152 268.592 200.103C268.664 200.054 268.745 200.02 268.831 200.004C268.916 199.987 269.004 199.989 269.089 200.008C269.174 200.027 269.254 200.063 269.324 200.115C273.906 203.154 278.19 206.62 282.118 210.466C288.327 216.493 296.419 226.14 299.734 237.913C299.761 238.007 299.765 238.106 299.747 238.202C299.728 238.298 299.689 238.389 299.63 238.467C299.571 238.545 299.494 238.608 299.407 238.652C299.319 238.696 299.223 238.718 299.125 238.719Z" fill="white"/>
<path d="M245.713 153.558C242.858 153.558 240.501 152.727 238.734 151.071C234.648 147.283 235.044 140.602 235.06 140.336C235.071 140.167 235.148 140.01 235.275 139.899C235.402 139.788 235.568 139.731 235.736 139.742C235.904 139.753 236.061 139.831 236.172 139.957C236.284 140.084 236.34 140.25 236.329 140.418C236.329 140.481 235.958 146.763 239.6 150.144C241.57 151.968 244.39 152.635 247.978 152.121C248.061 152.109 248.146 152.114 248.227 152.135C248.309 152.156 248.386 152.193 248.453 152.244C248.52 152.294 248.576 152.358 248.619 152.43C248.662 152.503 248.689 152.583 248.701 152.666C248.713 152.75 248.708 152.834 248.687 152.916C248.666 152.997 248.629 153.074 248.578 153.141C248.528 153.208 248.464 153.265 248.392 153.307C248.319 153.35 248.239 153.378 248.156 153.39C247.346 153.504 246.53 153.56 245.713 153.558Z" fill="white"/>
<path d="M172.74 196.007C170.101 196.032 167.464 195.886 164.844 195.569C164.676 195.544 164.524 195.454 164.422 195.318C164.321 195.182 164.277 195.011 164.302 194.842C164.326 194.674 164.416 194.522 164.552 194.421C164.689 194.319 164.86 194.276 165.028 194.3C165.136 194.316 175.871 195.835 189.233 193.031C189.314 193.014 189.399 193.013 189.481 193.029C189.563 193.044 189.641 193.076 189.71 193.121C189.78 193.167 189.841 193.226 189.888 193.295C189.935 193.364 189.968 193.441 189.985 193.523C190.002 193.604 190.003 193.689 189.987 193.771C189.972 193.853 189.94 193.931 189.894 194.001C189.849 194.07 189.79 194.13 189.721 194.177C189.652 194.225 189.575 194.258 189.493 194.275C183.982 195.421 178.369 196.001 172.74 196.007Z" fill="white"/>
<path d="M192.218 194.306C192.05 194.32 191.883 194.267 191.754 194.157C191.625 194.048 191.545 193.892 191.531 193.724C191.518 193.556 191.571 193.389 191.68 193.26C191.789 193.131 191.945 193.051 192.114 193.037L199.727 191.768C199.889 191.75 200.052 191.794 200.182 191.892C200.312 191.989 200.399 192.133 200.426 192.294C200.453 192.454 200.417 192.619 200.326 192.754C200.235 192.889 200.095 192.983 199.937 193.018L192.323 194.287L192.218 194.306Z" fill="white"/>
<path d="M259.684 102.912C253.174 102.904 246.721 101.694 240.65 99.343C226.692 93.9882 218.444 84.3285 218.346 84.2301C218.306 84.1822 218.275 84.1269 218.256 84.0672C218.238 84.0076 218.231 83.9448 218.236 83.8825C218.242 83.8202 218.259 83.7596 218.288 83.7041C218.317 83.6486 218.357 83.5994 218.404 83.5592C218.452 83.519 218.508 83.4886 218.567 83.4698C218.627 83.451 218.69 83.4441 218.752 83.4496C218.814 83.455 218.875 83.4727 218.93 83.5016C218.986 83.5304 219.035 83.57 219.075 83.6179C219.155 83.713 227.285 93.2078 241.031 98.4707C253.692 103.315 273.868 105.45 298.069 88.1162C298.172 88.0497 298.297 88.0255 298.417 88.0485C298.537 88.0714 298.644 88.1399 298.715 88.2396C298.786 88.3393 298.816 88.4625 298.798 88.5837C298.781 88.7049 298.718 88.8147 298.621 88.8903C287.788 96.6529 276.824 101.243 266.038 102.531C263.93 102.784 261.808 102.911 259.684 102.912Z" fill="black"/>
<path d="M271.844 93.2521C266.597 93.2897 261.406 92.1606 256.649 89.9465C249.035 86.3681 245.26 81.248 245.105 81.0323C245.065 80.9821 245.036 80.9244 245.019 80.8628C245.003 80.8011 244.999 80.7368 245.007 80.6735C245.016 80.6102 245.038 80.5493 245.07 80.4945C245.103 80.4396 245.146 80.3919 245.198 80.3542C245.249 80.3165 245.308 80.2896 245.37 80.275C245.432 80.2604 245.497 80.2585 245.56 80.2694C245.623 80.2803 245.683 80.3037 245.737 80.3383C245.79 80.3729 245.836 80.418 245.872 80.4708C245.91 80.5215 249.704 85.6385 257.099 89.1058C263.916 92.3067 275.289 94.7208 290.754 88.0653C290.812 88.0405 290.874 88.0273 290.936 88.0264C290.999 88.0255 291.061 88.0369 291.119 88.0601C291.177 88.0832 291.23 88.1175 291.275 88.1612C291.32 88.2048 291.356 88.2569 291.381 88.3144C291.406 88.3718 291.419 88.4336 291.42 88.4962C291.421 88.5588 291.409 88.621 291.386 88.6792C291.363 88.7374 291.329 88.7904 291.285 88.8353C291.241 88.8802 291.189 88.9161 291.132 88.9409C283.785 92.0973 277.339 93.2521 271.844 93.2521Z" fill="black"/>
<path d="M290.231 83.2181L323.353 63.8385L312.782 63.4863L289.526 71.2395L290.231 83.2181Z" fill="white"/>
<path d="M312.782 63.4864L323.353 63.8385L290.243 83.2182L289.539 71.2395L312.795 63.4864H312.782ZM312.795 62.5347C312.693 62.5347 312.591 62.5508 312.494 62.5823L289.238 70.3354C289.043 70.4038 288.876 70.5337 288.761 70.7053C288.647 70.8769 288.591 71.0811 288.603 71.2871L289.291 83.2753C289.301 83.4379 289.352 83.5953 289.44 83.7325C289.528 83.8696 289.649 83.982 289.793 84.0588C289.936 84.1354 290.097 84.1739 290.26 84.1705C290.423 84.1672 290.582 84.1222 290.722 84.0398L323.844 64.6601C324.023 64.556 324.162 64.3966 324.242 64.206C324.322 64.0154 324.338 63.804 324.287 63.6037C324.236 63.4034 324.122 63.2251 323.96 63.0958C323.799 62.9665 323.6 62.8931 323.394 62.8868L312.824 62.5347H312.795Z" fill="black"/>
<path d="M281.069 65.2469L328.286 61.3704L308.202 84.9819L294.46 74.7607L316.307 64.8948L289.527 71.2394L281.069 65.2469Z" fill="#4BD657"/>
<path d="M328.285 61.3863L308.201 84.9978L294.459 74.7766L316.307 64.9107L289.526 71.2553L281.069 65.2628L328.285 61.3863ZM328.285 60.4346H328.206L280.989 64.3111C280.794 64.3269 280.609 64.4022 280.459 64.527C280.308 64.6517 280.2 64.8198 280.148 65.0083C280.097 65.1969 280.104 65.3967 280.17 65.5808C280.236 65.7648 280.357 65.924 280.517 66.0369L288.974 72.0135C289.134 72.1281 289.326 72.1901 289.523 72.1912C289.597 72.1905 289.67 72.182 289.742 72.1658L306.872 68.1052L294.05 73.8947C293.899 73.9628 293.768 74.0691 293.671 74.2032C293.573 74.3373 293.513 74.4945 293.495 74.6592C293.477 74.8239 293.502 74.9904 293.568 75.1423C293.634 75.2942 293.739 75.4262 293.872 75.5253L307.614 85.7433C307.808 85.8881 308.05 85.9535 308.29 85.9264C308.531 85.8993 308.752 85.7817 308.909 85.5974L328.993 61.989C329.111 61.8507 329.187 61.6815 329.212 61.5013C329.237 61.3211 329.21 61.1375 329.134 60.9722C329.058 60.807 328.936 60.667 328.783 60.5689C328.63 60.4708 328.451 60.4187 328.269 60.4187L328.285 60.4346Z" fill="black"/>
<path d="M306.793 81.8984C306.637 81.8972 306.484 81.85 306.354 81.7626C306.225 81.6752 306.124 81.5516 306.064 81.4071C306.004 81.2626 305.988 81.1037 306.018 80.9502C306.047 80.7967 306.122 80.6553 306.232 80.5438L317.154 69.6216C317.227 69.5457 317.314 69.4852 317.411 69.4435C317.508 69.4018 317.612 69.3798 317.717 69.3787C317.822 69.3776 317.927 69.3976 318.024 69.4373C318.122 69.4771 318.21 69.5358 318.285 69.6102C318.359 69.6845 318.419 69.773 318.459 69.8704C318.499 69.9678 318.519 70.0722 318.518 70.1775C318.517 70.2828 318.495 70.3869 318.454 70.4837C318.413 70.5805 318.352 70.6681 318.277 70.7414L307.355 81.6637C307.281 81.7378 307.194 81.7968 307.097 81.8371C307.001 81.8773 306.897 81.8982 306.793 81.8984Z" fill="white"/>
<path d="M109.469 40.7059C109.342 40.7059 109.221 40.6558 109.132 40.5665C109.043 40.4773 108.993 40.3563 108.993 40.2301C108.993 23.8197 94.6254 17.4719 94.4795 17.4116C94.3633 17.3615 94.2718 17.2674 94.2251 17.1499C94.1784 17.0324 94.1803 16.9012 94.2304 16.7851C94.2804 16.669 94.3743 16.5775 94.4918 16.5308C94.6093 16.4841 94.7407 16.486 94.8568 16.536C97.667 17.8809 100.221 19.7059 102.404 21.929C104.823 24.3195 106.738 27.172 108.033 30.317C109.328 33.462 109.979 36.8353 109.944 40.2364C109.943 40.3615 109.892 40.4809 109.803 40.5688C109.714 40.6567 109.594 40.7059 109.469 40.7059Z" fill="black"/>
<path d="M105.932 44.2303C105.856 44.2305 105.781 44.2124 105.714 44.1776C105.646 44.1429 105.588 44.0924 105.545 44.0305C97.6139 32.8639 85.8002 28.1499 77.2825 26.1577C71.7914 24.8559 66.1503 24.2968 60.5105 24.4954C60.3843 24.5042 60.2596 24.4625 60.1641 24.3795C60.0686 24.2966 60.01 24.179 60.0012 24.0528C59.9923 23.9266 60.034 23.8021 60.117 23.7066C60.2 23.6111 60.3177 23.5525 60.4439 23.5437C66.1785 23.3384 71.9145 23.905 77.4982 25.2282C86.1776 27.2553 98.2259 32.0677 106.319 43.4753C106.369 43.5465 106.399 43.6301 106.406 43.7172C106.412 43.8043 106.394 43.8915 106.354 43.9691C106.314 44.0467 106.254 44.1119 106.179 44.1574C106.105 44.2029 106.019 44.2271 105.932 44.2272V44.2303Z" fill="black"/>
<path d="M191.92 61.142C191.867 61.1426 191.815 61.134 191.765 61.1166C191.646 61.0749 191.548 60.9877 191.494 60.8741C191.439 60.7605 191.432 60.6298 191.473 60.5107C193.497 54.6515 193.376 49.8327 191.067 46.1941C187.533 40.5822 179.964 39.6559 179.888 39.6464C179.762 39.6321 179.648 39.5685 179.569 39.4698C179.491 39.371 179.455 39.2451 179.469 39.1198C179.475 39.0574 179.494 38.9969 179.524 38.9418C179.554 38.8868 179.595 38.8383 179.644 38.7993C179.693 38.7603 179.75 38.7315 179.81 38.7146C179.87 38.6977 179.933 38.6931 179.996 38.701C180.313 38.7359 188.085 39.6813 191.87 45.6801C194.328 49.5757 194.496 54.6705 192.371 60.8216C192.339 60.9155 192.278 60.997 192.197 61.0545C192.116 61.112 192.019 61.1426 191.92 61.142Z" fill="black"/>
<path d="M169.111 111.826L154.978 110.874C152.508 110.711 150.049 111.33 147.949 112.641L135.935 120.141C134.358 121.125 132.571 121.722 130.72 121.885C128.868 122.048 127.004 121.771 125.28 121.078C123.555 120.385 122.019 119.294 120.796 117.894C119.572 116.495 118.697 114.827 118.24 113.025L114.75 99.2954C114.144 96.8943 112.796 94.7453 110.899 93.1538L100.053 84.046C98.6281 82.8507 97.506 81.3356 96.7779 79.6243C96.0499 77.9129 95.7366 76.0538 95.8634 74.1984C95.9902 72.3429 96.5534 70.5437 97.5075 68.9473C98.4616 67.3509 99.7795 66.0026 101.354 65.0121L113.335 57.462C115.431 56.1427 117.058 54.197 117.986 51.901L123.297 38.7739C123.993 37.0507 125.087 35.5164 126.49 34.296C127.892 33.0755 129.562 32.2035 131.365 31.7508C133.168 31.2982 135.052 31.2777 136.865 31.6911C138.677 32.1045 140.366 32.94 141.794 34.1296L152.679 43.193C154.581 44.7774 156.934 45.7231 159.404 45.8958L173.53 46.8919C175.384 47.0217 177.182 47.5877 178.776 48.5439C180.37 49.5001 181.716 50.8193 182.704 52.3942C183.691 53.9691 184.293 55.755 184.46 57.6065C184.626 59.458 184.353 61.3226 183.663 63.0485L178.406 76.1977C177.488 78.4976 177.316 81.0277 177.914 83.4306L181.334 97.1763C181.786 98.9803 181.806 100.866 181.391 102.679C180.977 104.492 180.14 106.181 178.948 107.609C177.757 109.038 176.244 110.164 174.535 110.897C172.825 111.629 170.967 111.948 169.111 111.826Z" fill="white"/>
<path d="M125.027 77.3448C124.905 77.3743 124.775 77.3538 124.668 77.2879C124.56 77.222 124.483 77.116 124.453 76.9933C124.424 76.8705 124.444 76.7411 124.51 76.6335C124.576 76.5258 124.682 76.4488 124.805 76.4193L159.955 67.2667C160.077 67.2348 160.207 67.2526 160.316 67.3164C160.425 67.3802 160.504 67.4847 160.536 67.6069C160.568 67.7291 160.55 67.859 160.486 67.968C160.422 68.077 160.318 68.1562 160.196 68.1882L125.046 77.3407L125.027 77.3448Z" fill="black"/>
<path d="M134.983 87.3682C134.922 87.3832 134.859 87.3861 134.797 87.3768C134.736 87.3674 134.676 87.3459 134.623 87.3136C134.569 87.2813 134.523 87.2388 134.486 87.1885C134.449 87.1382 134.422 87.0811 134.407 87.0204C134.392 86.9597 134.389 86.8966 134.398 86.8348C134.408 86.773 134.429 86.7137 134.461 86.6602C134.493 86.6066 134.536 86.56 134.586 86.5229C134.637 86.4858 134.694 86.459 134.754 86.444L159.58 79.5584C159.702 79.5264 159.83 79.543 159.94 79.6045C160.049 79.6661 160.13 79.7677 160.166 79.888C160.182 79.9483 160.187 80.0114 160.179 80.0735C160.172 80.1356 160.152 80.1957 160.121 80.2501C160.09 80.3046 160.048 80.3524 159.999 80.3908C159.95 80.4293 159.893 80.4575 159.833 80.4741L135.011 87.362L134.983 87.3682Z" fill="black"/>
<path d="M134.279 31.4078C137.033 31.4048 139.699 32.3744 141.807 34.1455L152.692 43.2088C154.594 44.7933 156.947 45.7389 159.417 45.9116L173.543 46.9077C175.397 47.0375 177.195 47.6036 178.789 48.5598C180.383 49.516 181.729 50.8352 182.717 52.4101C183.704 53.985 184.306 55.7709 184.473 57.6224C184.639 59.4738 184.366 61.3385 183.676 63.0644L178.419 76.2136C177.501 78.5134 177.329 81.0436 177.927 83.4465L181.347 97.1921C181.779 98.9289 181.81 100.741 181.439 102.492C181.067 104.242 180.302 105.886 179.202 107.297C178.102 108.709 176.695 109.852 175.088 110.64C173.481 111.428 171.716 111.84 169.927 111.845C169.66 111.845 169.394 111.845 169.121 111.82L154.988 110.868C154.728 110.868 154.468 110.843 154.211 110.843C152 110.843 149.834 111.464 147.959 112.635L135.945 120.134C134.369 121.122 132.581 121.722 130.729 121.887C128.876 122.052 127.011 121.776 125.285 121.082C123.56 120.388 122.023 119.296 120.8 117.894C119.577 116.493 118.703 114.822 118.25 113.019L114.76 99.289C114.154 96.888 112.806 94.739 110.909 93.1474L100.063 84.0397C98.638 82.8443 97.516 81.3293 96.7879 79.6179C96.0598 77.9066 95.7463 76.0475 95.8731 74.192C95.9999 72.3366 96.5634 70.5374 97.5175 68.941C98.4716 67.3446 99.7892 65.9963 101.363 65.0058L113.345 57.4557C115.441 56.1364 117.068 54.1907 117.996 51.8946L123.306 38.7676C124.187 36.5815 125.703 34.7097 127.659 33.3938C129.614 32.0779 131.919 31.3784 134.276 31.3856L134.279 31.4078ZM134.276 30.4339C131.729 30.4249 129.239 31.1802 127.126 32.6019C125.013 34.0237 123.375 36.0466 122.424 38.4091L117.117 51.552C116.266 53.6647 114.77 55.4545 112.841 56.6658L100.856 64.2223C99.1565 65.2932 97.7338 66.7502 96.7039 68.4748C95.674 70.1993 95.0661 72.1427 94.9291 74.1467C94.7922 76.1507 95.1301 78.1587 95.9158 80.0074C96.7015 81.856 97.9127 83.493 99.4506 84.7852L110.297 93.8929C112.043 95.3542 113.283 97.3309 113.837 99.5396L117.326 113.269C117.817 115.218 118.761 117.023 120.083 118.537C121.404 120.051 123.065 121.231 124.929 121.981C126.794 122.73 128.809 123.028 130.811 122.85C132.812 122.672 134.743 122.023 136.446 120.956L148.459 113.457C150.183 112.379 152.175 111.809 154.208 111.81C154.446 111.81 154.687 111.81 154.925 111.832L169.054 112.784C169.343 112.803 169.635 112.813 169.923 112.813C171.859 112.809 173.767 112.365 175.506 111.514C177.244 110.663 178.766 109.428 179.956 107.902C181.146 106.376 181.974 104.6 182.376 102.707C182.778 100.814 182.744 98.8543 182.277 96.9764L178.857 83.2339C178.299 81.0212 178.458 78.6888 179.31 76.5721L184.567 63.4197C185.31 61.5551 185.603 59.5414 185.421 57.5423C185.24 55.5432 184.589 53.6152 183.522 51.9151C182.455 50.2149 181.001 48.7906 179.28 47.7579C177.559 46.7252 175.618 46.1133 173.616 45.9719L159.49 44.979C157.218 44.8234 155.054 43.9528 153.307 42.4919L142.413 33.4127C140.138 31.4951 137.255 30.4474 134.279 30.4561L134.276 30.4339Z" fill="black"/>
<path d="M124.267 48.7763C124.15 48.7746 124.035 48.7473 123.929 48.6964C123.824 48.6455 123.731 48.5722 123.656 48.4816C123.582 48.391 123.528 48.2853 123.499 48.1718C123.47 48.0583 123.466 47.9399 123.487 47.8246C123.557 47.4535 125.257 38.7042 131.576 36.4043C135.726 34.8975 140.776 36.5661 146.616 41.3658C146.702 41.43 146.774 41.5109 146.828 41.6037C146.882 41.6965 146.916 41.7991 146.929 41.9055C146.942 42.0119 146.933 42.1199 146.903 42.2228C146.873 42.3257 146.822 42.4214 146.754 42.5042C146.686 42.5871 146.602 42.6552 146.507 42.7047C146.412 42.7541 146.308 42.7837 146.201 42.7917C146.094 42.7998 145.987 42.7861 145.885 42.7515C145.784 42.7169 145.69 42.662 145.611 42.5903C140.243 38.1713 135.704 36.5915 132.116 37.8953C126.64 39.8875 125.06 48.0467 125.048 48.1133C125.016 48.298 124.921 48.4657 124.778 48.5869C124.636 48.7082 124.455 48.7752 124.267 48.7763Z" fill="white"/>
<path d="M129.775 119.408C128.632 119.418 127.501 119.174 126.463 118.694C121.175 116.223 120.34 108.299 120.306 107.962C120.285 107.752 120.349 107.542 120.483 107.379C120.617 107.215 120.811 107.112 121.021 107.091C121.232 107.071 121.441 107.135 121.605 107.269C121.768 107.403 121.871 107.596 121.892 107.807C121.892 107.88 122.675 115.173 127.145 117.26C129.87 118.529 133.49 117.647 137.931 114.627C138.105 114.509 138.32 114.464 138.527 114.503C138.734 114.543 138.916 114.662 139.035 114.837C139.154 115.011 139.198 115.225 139.159 115.432C139.12 115.639 139 115.822 138.826 115.941C135.435 118.25 132.395 119.408 129.775 119.408Z" fill="white"/>
<path d="M148.281 211.792L100.379 221.281C97.3733 221.874 94.698 223.57 92.8784 226.035C91.0589 228.501 90.2266 231.557 90.5451 234.604L92.7846 255.799C93.1028 258.816 94.5272 261.608 96.7825 263.637C99.0378 265.666 101.964 266.789 104.998 266.787H108.84L117.202 280.53L126.085 266.787H148.44C151.542 266.788 154.53 265.613 156.802 263.501C159.075 261.388 160.463 258.493 160.688 255.399L162.909 224.716C163.044 222.833 162.742 220.943 162.028 219.195C161.314 217.447 160.206 215.887 158.791 214.637C157.376 213.387 155.691 212.48 153.869 211.986C152.046 211.493 150.134 211.426 148.281 211.792Z" fill="white"/>
<path d="M150.702 211.551C152.387 211.557 154.053 211.91 155.596 212.587C157.139 213.264 158.526 214.251 159.671 215.487C160.817 216.722 161.696 218.181 162.254 219.771C162.812 221.361 163.037 223.048 162.915 224.729L160.695 255.411C160.469 258.506 159.081 261.401 156.809 263.513C154.537 265.626 151.549 266.8 148.446 266.8H126.119L117.237 280.543L108.875 266.8H105.033C101.999 266.801 99.0726 265.679 96.8174 263.65C94.5621 261.621 93.138 258.828 92.8198 255.811L90.5802 234.617C90.2618 231.57 91.0938 228.513 92.9133 226.048C94.7329 223.583 97.4085 221.887 100.414 221.293L148.316 211.805C149.113 211.646 149.924 211.565 150.737 211.564L150.702 211.551ZM150.737 210.612C149.862 210.614 148.99 210.7 148.132 210.869L100.23 220.361C96.9913 221.003 94.1093 222.833 92.1506 225.491C90.1919 228.149 89.2979 231.444 89.6443 234.728L91.8839 255.925C92.2217 259.178 93.7547 262.189 96.1857 264.377C98.6167 266.564 101.773 267.771 105.043 267.765H108.348L116.435 281.05C116.518 281.188 116.636 281.302 116.775 281.382C116.915 281.462 117.073 281.505 117.234 281.507C117.393 281.507 117.549 281.467 117.689 281.391C117.829 281.315 117.947 281.206 118.033 281.072L126.646 267.749H148.44C151.783 267.749 155.002 266.483 157.45 264.207C159.898 261.931 161.394 258.812 161.637 255.478L163.857 224.792C163.999 222.981 163.762 221.16 163.162 219.446C162.561 217.731 161.609 216.161 160.368 214.834C159.133 213.504 157.638 212.441 155.975 211.712C154.312 210.983 152.517 210.603 150.702 210.596L150.737 210.612Z" fill="black"/>
<path d="M111.23 240.499C111.103 240.501 110.981 240.453 110.89 240.366C110.799 240.278 110.747 240.158 110.744 240.032C110.742 239.906 110.789 239.784 110.877 239.693C110.964 239.602 111.084 239.549 111.21 239.547L147.505 238.135C147.631 238.13 147.754 238.175 147.847 238.261C147.94 238.347 147.995 238.466 148 238.592C148.005 238.718 147.96 238.841 147.874 238.934C147.788 239.027 147.669 239.082 147.543 239.087L111.249 240.499H111.23Z" fill="black"/>
<path d="M112.637 251.069C112.575 251.07 112.512 251.06 112.454 251.037C112.396 251.015 112.342 250.981 112.297 250.938C112.252 250.895 112.215 250.844 112.19 250.787C112.164 250.73 112.15 250.668 112.149 250.605C112.147 250.543 112.158 250.481 112.18 250.422C112.203 250.364 112.236 250.311 112.279 250.265C112.322 250.22 112.374 250.183 112.431 250.158C112.488 250.133 112.549 250.119 112.612 250.117L138.336 248.708C138.462 248.703 138.584 248.747 138.677 248.83C138.771 248.914 138.829 249.031 138.838 249.156C138.841 249.218 138.832 249.281 138.811 249.34C138.79 249.399 138.758 249.453 138.716 249.5C138.674 249.546 138.624 249.584 138.567 249.611C138.511 249.638 138.449 249.654 138.387 249.657L112.666 251.069H112.637Z" fill="black"/>
<path d="M156.597 217.502C153.703 215.098 149.985 216.021 149.83 216.062C149.726 216.085 149.627 216.128 149.54 216.189C149.453 216.251 149.379 216.329 149.323 216.42C149.266 216.511 149.229 216.612 149.213 216.718C149.197 216.823 149.202 216.931 149.229 217.034C149.255 217.138 149.303 217.234 149.367 217.319C149.432 217.404 149.513 217.475 149.606 217.527C149.699 217.58 149.802 217.613 149.908 217.625C150.014 217.637 150.121 217.628 150.223 217.597C150.255 217.597 153.307 216.83 155.584 218.724C157.58 220.383 158.44 223.568 158.122 228.196C157.171 241.993 156.219 255.028 156.219 255.161C156.204 255.37 156.273 255.577 156.41 255.736C156.548 255.895 156.742 255.992 156.952 256.008H157.009C157.209 256.008 157.402 255.933 157.549 255.796C157.696 255.659 157.785 255.472 157.799 255.272C157.799 255.142 158.751 242.104 159.702 228.307C160.051 223.139 159.008 219.504 156.597 217.502Z" fill="white"/>
<path d="M118.389 225.122C118.377 225.061 118.352 225.003 118.317 224.951C118.281 224.9 118.236 224.856 118.183 224.822C118.131 224.788 118.072 224.765 118.011 224.754C117.949 224.743 117.886 224.744 117.825 224.757C103.407 227.822 89.7371 223.194 80.8102 218.774C75.0376 215.938 69.6235 212.423 64.6822 208.306C64.588 208.222 64.4641 208.178 64.338 208.186C64.2119 208.193 64.0938 208.25 64.0096 208.344C63.9255 208.438 63.8823 208.562 63.8894 208.688C63.8966 208.814 63.9535 208.932 64.0477 209.016C69.0466 213.184 74.5237 216.742 80.3632 219.615C87.3867 223.105 97.3001 226.699 108.241 226.699C111.529 226.704 114.808 226.365 118.025 225.687C118.086 225.674 118.144 225.649 118.196 225.614C118.247 225.579 118.291 225.533 118.325 225.481C118.359 225.428 118.382 225.37 118.393 225.308C118.404 225.246 118.403 225.183 118.389 225.122Z" fill="black"/>
<path d="M104.714 245.568C88.9885 251.722 76.4482 239.801 76.3245 239.68C76.2332 239.597 76.1131 239.552 75.9896 239.556C75.8661 239.56 75.7489 239.611 75.6628 239.7C75.5767 239.789 75.5286 239.907 75.5283 240.031C75.5281 240.154 75.5758 240.273 75.6615 240.362C78.1809 242.636 81.0549 244.484 84.1698 245.831C87.7298 247.425 91.5817 248.262 95.482 248.29C98.7612 248.285 102.01 247.663 105.059 246.456C105.177 246.41 105.272 246.319 105.323 246.204C105.374 246.088 105.377 245.957 105.331 245.839C105.285 245.721 105.194 245.626 105.078 245.576C104.963 245.525 104.831 245.522 104.714 245.568Z" fill="black"/>
<defs>
<filter id="filter0_d_14040_103121" x="-4.02018" y="107.786" width="38.6849" height="38.6842" filterUnits="userSpaceOnUse" color-interpolation-filters="sRGB">
<feFlood flood-opacity="0" result="BackgroundImageFix"/>
<feColorMatrix in="SourceAlpha" type="matrix" values="0 0 0 0 0 0 0 0 0 0 0 0 0 0 0 0 0 0 127 0" result="hardAlpha"/>
<feOffset dy="2.03704"/>
<feGaussianBlur stdDeviation="5.09261"/>
<feComposite in2="hardAlpha" operator="out"/>
<feColorMatrix type="matrix" values="0 0 0 0 0 0 0 0 0 0 0 0 0 0 0 0 0 0 0.05 0"/>
<feBlend mode="normal" in2="BackgroundImageFix" result="effect1_dropShadow_14040_103121"/>
<feBlend mode="normal" in="SourceGraphic" in2="effect1_dropShadow_14040_103121" result="shape"/>
</filter>
<filter id="filter1_d_14040_103121" x="370.65" y="165.21" width="38.6878" height="38.6885" filterUnits="userSpaceOnUse" color-interpolation-filters="sRGB">
<feFlood flood-opacity="0" result="BackgroundImageFix"/>
<feColorMatrix in="SourceAlpha" type="matrix" values="0 0 0 0 0 0 0 0 0 0 0 0 0 0 0 0 0 0 127 0" result="hardAlpha"/>
<feOffset dy="2.03704"/>
<feGaussianBlur stdDeviation="5.09261"/>
<feComposite in2="hardAlpha" operator="out"/>
<feColorMatrix type="matrix" values="0 0 0 0 0 0 0 0 0 0 0 0 0 0 0 0 0 0 0.05 0"/>
<feBlend mode="normal" in2="BackgroundImageFix" result="effect1_dropShadow_14040_103121"/>
<feBlend mode="normal" in="SourceGraphic" in2="effect1_dropShadow_14040_103121" result="shape"/>
</filter>
<linearGradient id="paint0_linear_14040_103121" x1="20.4547" y1="112.038" x2="392.053" y2="200.547" gradientUnits="userSpaceOnUse">
<stop stop-color="#CDD5E2"/>
<stop offset="1" stop-color="#CDD5E2" stop-opacity="0"/>
</linearGradient>
<linearGradient id="paint1_linear_14040_103121" x1="391.41" y1="195.438" x2="353.849" y2="294.044" gradientUnits="userSpaceOnUse">
<stop stop-color="#CDD5E2"/>
<stop offset="1" stop-color="#CDD5E2" stop-opacity="0"/>
</linearGradient>
<linearGradient id="paint2_linear_14040_103121" x1="196.503" y1="23.2605" x2="196.503" y2="365.006" gradientUnits="userSpaceOnUse">
<stop stop-color="#CDD5E2"/>
<stop offset="1" stop-color="#CDD5E2" stop-opacity="0"/>
</linearGradient>
<linearGradient id="paint3_linear_14040_103121" x1="196.505" y1="57.4338" x2="196.505" y2="330.83" gradientUnits="userSpaceOnUse">
<stop stop-color="#CDD5E2"/>
<stop offset="1" stop-color="#CDD5E2" stop-opacity="0"/>
</linearGradient>
</defs>
</svg>
