<svg width="406" height="302" viewBox="0 0 406 302" fill="none" xmlns="http://www.w3.org/2000/svg">
<mask id="mask0_14042_104475" style="mask-type:alpha" maskUnits="userSpaceOnUse" x="0" y="0" width="406" height="302">
<rect width="405.823" height="301.875" fill="#D9D9D9"/>
</mask>
<g mask="url(#mask0_14042_104475)">
<g opacity="0.5">
<mask id="path-2-inside-1_14042_104475" fill="white">
<path d="M389.979 202.564C391.995 156.308 377.371 110.86 348.759 74.4585C320.146 38.0572 279.439 13.1117 234.015 4.14391C188.592 -4.82387 141.458 2.77957 101.159 25.576C60.859 48.3724 30.0607 84.853 14.3462 128.405L15.1858 128.708C30.8279 85.3568 61.4843 49.0443 101.598 26.353C141.712 3.66161 188.628 -3.90679 233.842 5.01966C279.057 13.9461 319.576 38.7766 348.057 75.0102C376.537 111.244 391.094 156.482 389.087 202.526L389.979 202.564Z"/>
</mask>
<path d="M389.979 202.564C391.995 156.308 377.371 110.86 348.759 74.4585C320.146 38.0572 279.439 13.1117 234.015 4.14391C188.592 -4.82387 141.458 2.77957 101.159 25.576C60.859 48.3724 30.0607 84.853 14.3462 128.405L15.1858 128.708C30.8279 85.3568 61.4843 49.0443 101.598 26.353C141.712 3.66161 188.628 -3.90679 233.842 5.01966C279.057 13.9461 319.576 38.7766 348.057 75.0102C376.537 111.244 391.094 156.482 389.087 202.526L389.979 202.564Z" stroke="url(#paint0_linear_14042_104475)" stroke-width="2.84788" stroke-dasharray="4.27 4.27" mask="url(#path-2-inside-1_14042_104475)"/>
</g>
<g opacity="0.5">
<mask id="path-3-inside-2_14042_104475" fill="white">
<path d="M14.6034 260.573C30.4882 304.063 61.4291 340.423 101.818 363.061C142.206 385.7 189.369 393.119 234.757 383.973C280.145 374.828 320.755 349.723 349.224 313.21C377.694 276.697 392.14 231.192 389.943 184.944L389.051 184.986C391.238 231.021 376.859 276.316 348.52 312.661C320.182 349.006 279.76 373.995 234.581 383.098C189.402 392.201 142.456 384.817 102.254 362.282C62.0517 339.748 31.2534 303.556 15.4418 260.266L14.6034 260.573Z"/>
</mask>
<path d="M14.6034 260.573C30.4882 304.063 61.4291 340.423 101.818 363.061C142.206 385.7 189.369 393.119 234.757 383.973C280.145 374.828 320.755 349.723 349.224 313.21C377.694 276.697 392.14 231.192 389.943 184.944L389.051 184.986C391.238 231.021 376.859 276.316 348.52 312.661C320.182 349.006 279.76 373.995 234.581 383.098C189.402 392.201 142.456 384.817 102.254 362.282C62.0517 339.748 31.2534 303.556 15.4418 260.266L14.6034 260.573Z" stroke="url(#paint1_linear_14042_104475)" stroke-width="2.84788" stroke-dasharray="4.27 4.27" mask="url(#path-3-inside-2_14042_104475)"/>
</g>
<circle opacity="0.08" cx="196.503" cy="194.133" r="170.873" fill="url(#paint2_linear_14042_104475)"/>
<circle opacity="0.1" cx="196.505" cy="194.132" r="136.698" fill="url(#paint3_linear_14042_104475)"/>
<circle cx="196.504" cy="194.134" r="91.1321" fill="white"/>
<g filter="url(#filter0_d_14042_104475)">
<circle cx="15.3224" cy="125.091" r="7.11969" transform="rotate(-2.50406 15.3224 125.091)" fill="#0170FF"/>
<circle cx="15.3224" cy="125.091" r="8.13822" transform="rotate(-2.50406 15.3224 125.091)" stroke="white" stroke-width="2.03704"/>
</g>
<g filter="url(#filter1_d_14042_104475)">
<circle cx="389.994" cy="182.517" r="7.11969" transform="rotate(-15.7345 389.994 182.517)" fill="#0170FF"/>
<circle cx="389.994" cy="182.517" r="8.13822" transform="rotate(-15.7345 389.994 182.517)" stroke="white" stroke-width="2.03704"/>
</g>
</g>
<path d="M198.723 134.064C198.723 134.064 216.139 150.916 225.176 145.271C234.212 139.627 248.9 131.679 258.687 144.73C268.473 157.782 273.854 167.37 284.831 164.033C295.809 160.695 318.719 190.342 291.677 207.758C247.353 236.302 188.44 158.022 188.44 158.022L195.081 147.938L198.723 134.064Z" fill="#382256"/>
<path d="M198.723 134.064C198.723 134.064 211.501 146.428 220.846 146.428C222.37 146.462 223.872 146.061 225.176 145.271C230.605 141.879 238.074 137.655 245.296 137.655C250.088 137.655 254.781 139.521 258.687 144.73C267.141 156.006 272.314 164.7 280.645 164.7C282.067 164.68 283.477 164.449 284.831 164.015C285.421 163.84 286.033 163.752 286.649 163.755C298.075 163.755 317.305 191.238 291.674 207.74C285.348 211.868 277.95 214.047 270.397 214.004C230.577 214.004 188.437 158.005 188.437 158.005L195.081 147.938L198.723 134.058V134.064ZM198.175 132.1L197.73 133.811L194.133 147.527L187.581 157.454L187.181 158.059L187.619 158.638C195.533 168.743 204.29 178.158 213.798 186.782C222.862 194.962 231.779 201.5 240.298 206.169C251.012 212.057 261.141 215.045 270.397 215.045C278.146 215.079 285.737 212.844 292.232 208.617C298.157 204.8 302.158 200.159 304.082 194.826C305.729 190.287 305.824 185.269 304.366 180.309C302.965 175.617 300.403 171.354 296.918 167.914C293.556 164.628 289.815 162.742 286.649 162.742C285.933 162.739 285.22 162.841 284.534 163.047C283.28 163.451 281.973 163.666 280.655 163.683C273.902 163.683 269.164 157.228 262.602 148.28C261.617 146.935 260.597 145.542 259.522 144.107C255.798 139.141 251.016 136.621 245.31 136.621C238.06 136.621 230.796 140.551 224.645 144.392C223.504 145.078 222.191 145.426 220.859 145.394C212.042 145.394 199.575 133.441 199.452 133.318L198.189 132.1H198.175Z" fill="#1D1E1B"/>
<path d="M279.799 212.909C237.525 223.243 195.423 156.495 195.423 156.495L189.021 144.881L195.183 133C195.183 133 214.335 145.908 220.15 146.596C216.45 153.965 215.93 162.865 230.792 167.069C252.973 173.343 272.717 201.678 279.799 212.909Z" fill="#050505"/>
<path d="M198.89 170.105C198.89 170.105 245.71 163.943 279.203 219.053C312.697 274.163 299.461 288.539 279.98 289.909C260.5 291.278 259.723 290.936 259.723 290.936L99.0968 290.593L88.626 260.553L99.7814 237.195C99.7814 237.195 109.349 237.195 118.919 246.437C118.919 246.437 126.45 181.4 178.041 172.158L198.89 170.105Z" fill="#07ACEE"/>
<path d="M203.213 169.899C215.556 169.899 251.819 174.007 279.203 219.053C312.693 274.163 299.46 288.539 279.98 289.909C266.993 290.823 262.321 290.973 260.644 290.973C260.336 290.992 260.028 290.98 259.723 290.936L99.0964 290.593L88.6256 260.553L99.781 237.195C99.781 237.195 109.348 237.195 118.919 246.437C118.919 246.437 126.45 181.4 178.041 172.158L198.89 170.105C200.326 169.952 201.769 169.883 203.213 169.899ZM203.213 168.872C201.727 168.857 200.241 168.928 198.763 169.085L177.931 171.138H177.89H177.852C166.032 173.202 155.074 178.675 146.323 186.884C139.186 193.518 133.083 202.065 128.182 212.293C121.544 226.166 118.939 239.464 118.162 244.339C108.92 236.24 100.147 236.141 99.7605 236.141H99.1101L98.8329 236.726L87.6774 260.084L87.4961 260.464L87.6363 260.865L98.1073 290.905L98.3468 291.589H99.0725L259.61 291.932C259.951 291.964 260.294 291.977 260.637 291.969C262.215 291.969 266.833 291.832 280.045 290.901C289.236 290.258 295.449 286.907 298.529 280.951C301.336 275.525 301.453 267.943 298.872 258.359C295.986 247.683 289.657 234.265 280.045 218.475C268.174 198.94 253.346 184.858 235.978 176.615C221.701 169.841 209.299 168.828 203.179 168.828L203.213 168.872Z" fill="black"/>
<path d="M272.693 255.042C272.693 255.042 249.81 233.943 207.434 239.077C165.057 244.212 160.953 230.52 144.55 258.931C128.147 287.341 175.651 258.931 175.651 258.931L272.693 255.042Z" fill="#0598C6"/>
<path d="M278.519 258.589C278.519 258.589 244.687 234.628 205.384 244.554L195.115 244.212L190.323 272.28L197.511 278.1C197.511 278.1 204.015 288.368 223.827 291.107" fill="#07ACEE"/>
<path d="M223.834 291.62H223.762C204.593 288.971 197.802 279.465 197.131 278.452L190.015 272.684C189.945 272.627 189.891 272.551 189.859 272.466C189.827 272.38 189.818 272.288 189.833 272.198L194.626 244.13C194.646 244.007 194.711 243.896 194.807 243.818C194.903 243.739 195.025 243.698 195.149 243.702L205.329 244.044C225.727 238.91 244.608 243.017 256.862 247.368C270.147 252.088 278.732 258.113 278.817 258.174C278.928 258.253 279.004 258.373 279.026 258.508C279.049 258.642 279.018 258.78 278.939 258.892C278.86 259.003 278.74 259.078 278.605 259.101C278.471 259.124 278.333 259.092 278.222 259.013C278.139 258.951 269.647 252.995 256.489 248.327C244.361 244.024 225.682 239.964 205.511 245.058C205.463 245.065 205.415 245.065 205.367 245.058L195.56 244.715L190.901 272.048L197.847 277.679C197.891 277.712 197.928 277.754 197.956 277.802C198.021 277.901 204.59 287.906 223.909 290.576C224.045 290.585 224.172 290.648 224.262 290.751C224.352 290.854 224.398 290.988 224.388 291.124C224.379 291.26 224.317 291.387 224.214 291.477C224.111 291.567 223.977 291.612 223.841 291.603L223.834 291.62Z" fill="black"/>
<path d="M195.132 244.212C195.132 244.212 171.815 242.733 156.172 245.581C129.856 250.373 119.262 285.972 119.262 285.972H154.121C154.121 285.972 164.715 280.153 168.816 267.488L190.347 272.28L195.132 244.212Z" fill="#FFCDB2"/>
<path d="M154.252 286.486H118.574L118.769 285.825C120.899 279.328 123.8 273.109 127.412 267.304C132.889 258.548 142.302 247.587 156.08 245.078C171.606 242.251 194.931 243.685 195.163 243.709L195.731 243.747L190.761 272.91L169.155 268.084C164.938 280.492 154.474 286.359 154.368 286.417L154.252 286.486ZM119.964 285.459H153.985C155.114 284.795 164.562 278.955 168.327 267.317L168.471 266.872L189.93 271.647L194.53 244.678C190.861 244.479 170.316 243.514 156.261 246.074C142.86 248.515 133.67 259.242 128.295 267.814C124.859 273.361 122.064 279.281 119.964 285.459Z" fill="#1D1D1B"/>
<path d="M205.383 245.239C205.383 245.239 211.202 263.381 197.853 277.757L191.007 271.938L195.799 244.897L205.383 245.239Z" fill="#0598C6"/>
<path d="M215.821 171.128C215.821 171.128 212.22 187.733 194.106 179.176C194.106 179.176 180.435 188.418 178.042 172.33C178.042 172.33 192.768 166.843 215.821 171.128Z" fill="white"/>
<path d="M186.209 182.335C185.104 182.348 184.009 182.13 182.994 181.695C180.099 180.422 178.264 177.296 177.535 172.405C177.519 172.287 177.544 172.168 177.607 172.066C177.669 171.965 177.765 171.889 177.877 171.85C178.028 171.792 193 166.374 215.927 170.622C215.996 170.634 216.062 170.66 216.12 170.698C216.179 170.737 216.23 170.786 216.269 170.844C216.345 170.959 216.372 171.099 216.345 171.234C216.283 171.515 214.797 178.08 209.074 180.904C205.076 182.876 200.061 182.492 194.167 179.761C193.198 180.357 189.775 182.335 186.209 182.335ZM178.616 172.679C179.328 176.951 180.937 179.669 183.409 180.757C187.858 182.715 193.76 178.792 193.818 178.751C193.892 178.701 193.977 178.671 194.066 178.664C194.155 178.658 194.244 178.675 194.325 178.714C200.031 181.407 204.833 181.839 208.592 179.987C212.983 177.827 214.715 173.096 215.181 171.532C194.903 167.88 181.084 171.874 178.616 172.679Z" fill="#1D1D1B"/>
<path d="M227.689 197.03C229.224 197.03 230.468 195.782 230.468 194.244C230.468 192.705 229.224 191.457 227.689 191.457C226.153 191.457 224.909 192.705 224.909 194.244C224.909 195.782 226.153 197.03 227.689 197.03Z" fill="#51CEF4"/>
<path d="M200.688 227.494C202.223 227.494 203.467 226.247 203.467 224.708C203.467 223.169 202.223 221.922 200.688 221.922C199.153 221.922 197.908 223.169 197.908 224.708C197.908 226.247 199.153 227.494 200.688 227.494Z" fill="#51CEF4"/>
<path d="M166.513 209.353C168.048 209.353 169.292 208.105 169.292 206.566C169.292 205.028 168.048 203.78 166.513 203.78C164.978 203.78 163.733 205.028 163.733 206.566C163.733 208.105 164.978 209.353 166.513 209.353Z" fill="#51CEF4"/>
<path d="M255.712 236.394C257.247 236.394 258.492 235.147 258.492 233.608C258.492 232.069 257.247 230.822 255.712 230.822C254.177 230.822 252.933 232.069 252.933 233.608C252.933 235.147 254.177 236.394 255.712 236.394Z" fill="#51CEF4"/>
<path d="M239.99 256.247C241.525 256.247 242.77 255 242.77 253.461C242.77 251.922 241.525 250.675 239.99 250.675C238.455 250.675 237.211 251.922 237.211 253.461C237.211 255 238.455 256.247 239.99 256.247Z" fill="#51CEF4"/>
<path d="M241.36 288.765C242.895 288.765 244.139 287.518 244.139 285.979C244.139 284.44 242.895 283.193 241.36 283.193C239.825 283.193 238.58 284.44 238.58 285.979C238.58 287.518 239.825 288.765 241.36 288.765Z" fill="#51CEF4"/>
<path d="M263.914 275.416C265.449 275.416 266.694 274.168 266.694 272.63C266.694 271.091 265.449 269.843 263.914 269.843C262.379 269.843 261.135 271.091 261.135 272.63C261.135 274.168 262.379 275.416 263.914 275.416Z" fill="#51CEF4"/>
<path d="M196.66 109.658C202.67 105.722 204.346 97.6523 200.404 91.6331C196.463 85.6139 188.395 83.9248 182.385 87.8605C176.376 91.7961 174.699 99.8661 178.641 105.885C182.583 111.905 190.65 113.594 196.66 109.658Z" fill="#382256"/>
<path d="M188.322 85.8961C191.44 85.6025 194.559 86.4433 197.106 88.2641C199.653 90.085 201.458 92.7637 202.19 95.8083C202.921 98.8529 202.529 102.059 201.087 104.838C199.644 107.618 197.248 109.783 194.337 110.937C191.426 112.092 188.197 112.157 185.242 111.122C182.287 110.087 179.804 108.02 178.25 105.302C176.696 102.584 176.174 99.3958 176.782 96.324C177.389 93.2522 179.084 90.5024 181.555 88.5797C183.509 87.0593 185.857 86.1283 188.322 85.8961ZM188.233 84.9754C185.146 85.264 182.242 86.5719 179.98 88.6929C177.718 90.814 176.227 93.6275 175.74 96.69C175.254 99.7525 175.801 102.89 177.294 105.607C178.788 108.325 181.143 110.468 183.989 111.699C186.835 112.93 190.01 113.178 193.013 112.406C196.016 111.633 198.677 109.883 200.575 107.431C202.474 104.979 203.502 101.966 203.499 98.8647C203.495 95.7638 202.46 92.7524 200.556 90.3049C199.122 88.4453 197.239 86.9807 195.083 86.0484C192.928 85.1162 190.571 84.747 188.233 84.9754Z" fill="black"/>
<path d="M161.747 145.589C161.747 145.589 151.348 139.62 153.549 130.902C155.75 122.183 157.968 122.457 158.827 117.785C159.686 113.112 166.598 107.232 174.104 107.892C174.104 107.892 181.6 99.5539 189.973 100.04C198.346 100.526 201.875 103.781 205.376 109.563C208.878 115.344 211.681 117.665 214.276 121.646C216.871 125.627 221.885 137.258 206.746 149.54C191.606 161.821 161.747 145.589 161.747 145.589Z" fill="#382256"/>
<path d="M191.798 154.626C187.769 154.626 183.295 153.976 178.431 152.665C172.575 151.048 166.903 148.828 161.504 146.041C161.395 145.98 150.791 139.774 153.063 130.782C154.306 125.87 155.555 123.758 156.565 122.056C157.349 120.735 157.968 119.688 158.335 117.699C159.276 112.565 166.605 106.869 173.906 107.368C175.114 106.085 182.1 99.0746 190.011 99.5332C198.592 100.033 202.306 103.494 205.825 109.302C207.433 111.934 209.244 114.434 211.244 116.782C212.486 118.246 213.646 119.779 214.718 121.372C216.957 124.795 223.029 137.008 207.075 149.943C203.217 153.072 198.048 154.626 191.798 154.626ZM162.001 145.141C162.548 145.435 191.781 161.01 206.417 149.139C221.704 136.744 215.967 125.178 213.849 121.926C212.792 120.363 211.649 118.861 210.426 117.425C208.4 115.038 206.561 112.499 204.925 109.83C201.502 104.178 198.103 101.029 189.932 100.553C181.909 100.084 174.549 108.152 174.478 108.234L174.306 108.426L174.05 108.402C166.639 107.752 160.108 113.609 159.331 117.877C158.93 120.047 158.236 121.218 157.435 122.573C156.459 124.216 155.251 126.26 154.046 131.025C151.982 139.202 161.737 144.987 162.001 145.141Z" fill="#1D1E1B"/>
<path d="M189.292 160.887L185.667 170.7C185.667 170.7 195.252 179.942 211.682 170.358C211.682 170.358 206.53 154.694 200.67 140.746C200.67 140.746 206.859 138.428 205.021 132.873C203.183 127.317 198.442 126.985 195.953 128.923C195.953 128.923 186.417 137.85 172.386 117.254C172.386 117.254 161.775 123.515 161.131 135.522C160.488 147.53 164.756 160.719 174.272 163.317C183.788 165.915 189.292 160.887 189.292 160.887Z" fill="#FFCDB2"/>
<path d="M197.315 175.212C195.656 175.216 194.002 175.019 192.39 174.623C187.858 173.49 185.414 171.169 185.311 171.07L185.068 170.837L188.231 162.28C185.986 163.649 181.125 165.703 174.135 163.799C169.555 162.55 165.852 158.86 163.418 153.137C161.272 148.085 160.279 141.814 160.618 135.481C161.268 123.337 172.016 116.86 172.126 116.795L172.54 116.552L172.81 116.949C179.81 127.218 185.582 129.861 189.193 130.258C193.232 130.706 195.58 128.546 195.604 128.546L195.638 128.516C196.373 127.959 197.229 127.584 198.136 127.421C199.043 127.259 199.976 127.314 200.858 127.581C202.977 128.225 204.624 130.046 205.507 132.716C207.157 137.71 202.833 140.301 201.337 141.03C207.061 154.722 212.12 170.064 212.168 170.218L212.298 170.611L211.956 170.823C206.147 174.181 201.197 175.212 197.315 175.212ZM186.273 170.546C188.163 172.03 190.355 173.081 192.694 173.627C196.597 174.589 202.929 174.743 211.062 170.108C210.22 167.585 205.469 153.476 200.198 140.931L199.992 140.438L200.489 140.249C200.725 140.16 206.191 138.035 204.531 133.003C203.545 130.008 201.827 128.919 200.56 128.536C199.839 128.316 199.076 128.269 198.333 128.399C197.59 128.529 196.889 128.833 196.285 129.286C196.015 129.529 193.427 131.743 189.08 131.264C183.603 130.658 177.945 126.171 172.246 117.915C170.325 119.202 162.192 125.25 161.634 135.512C161.008 147.15 165.191 160.27 174.395 162.786C183.504 165.275 188.885 160.534 188.94 160.486L190.487 159.086L186.273 170.546Z" fill="black"/>
<path d="M188.477 161.951C188.525 161.938 188.57 161.917 188.611 161.89C193.204 158.788 195.381 152.435 195.457 152.165C195.495 152.049 195.486 151.922 195.431 151.813C195.377 151.703 195.281 151.619 195.166 151.58C195.108 151.56 195.048 151.551 194.987 151.555C194.927 151.559 194.867 151.574 194.813 151.601C194.759 151.628 194.71 151.665 194.67 151.711C194.63 151.757 194.6 151.81 194.58 151.867C194.556 151.932 192.407 158.2 188.077 161.109C187.985 161.17 187.919 161.262 187.889 161.368C187.86 161.474 187.869 161.587 187.915 161.687C187.961 161.787 188.041 161.867 188.141 161.913C188.241 161.959 188.354 161.967 188.46 161.937L188.477 161.951Z" fill="black"/>
<path d="M200.26 138.055C200.343 138.048 200.422 138.018 200.49 137.968C200.558 137.919 200.61 137.852 200.643 137.775C201.605 135.475 201.653 133.667 200.78 132.445C199.524 130.665 196.871 130.792 196.761 130.799C196.7 130.801 196.641 130.816 196.586 130.842C196.53 130.868 196.481 130.905 196.44 130.95C196.399 130.995 196.368 131.048 196.348 131.106C196.328 131.163 196.319 131.224 196.323 131.285C196.33 131.408 196.386 131.523 196.477 131.605C196.569 131.687 196.69 131.73 196.813 131.723C196.84 131.723 199.072 131.624 200.027 132.983C200.711 133.941 200.622 135.434 199.791 137.433C199.767 137.489 199.755 137.549 199.755 137.61C199.754 137.671 199.766 137.731 199.79 137.787C199.813 137.844 199.847 137.895 199.89 137.938C199.933 137.981 199.984 138.015 200.041 138.038C200.111 138.062 200.186 138.068 200.26 138.055Z" fill="black"/>
<path d="M175.375 135.355C182.077 135.238 190.035 130.446 192.041 132.384C194.047 134.321 193.639 137.645 190.353 139.202C187.067 140.76 183.614 141.448 176.453 142.519C169.292 143.59 162.206 144.107 162.131 140.161C162.056 136.214 165.516 135.526 175.375 135.355Z" fill="#FFB49F"/>
<path d="M204.387 141.833C205.371 141.189 205.645 139.868 205 138.883C204.355 137.897 203.034 137.621 202.051 138.265C201.067 138.909 200.793 140.23 201.438 141.215C202.083 142.201 203.404 142.477 204.387 141.833Z" fill="#07ACEE"/>
<path d="M203.049 138.031C203.559 137.983 204.07 138.121 204.487 138.419C204.904 138.717 205.199 139.155 205.319 139.654C205.439 140.152 205.375 140.677 205.139 141.132C204.902 141.587 204.51 141.941 204.033 142.13C203.557 142.319 203.028 142.33 202.544 142.16C202.061 141.99 201.654 141.652 201.4 141.207C201.146 140.762 201.061 140.24 201.161 139.737C201.26 139.234 201.538 138.784 201.943 138.469C202.262 138.221 202.646 138.069 203.049 138.031ZM202.963 137.111C202.286 137.173 201.65 137.46 201.154 137.924C200.658 138.389 200.331 139.005 200.224 139.676C200.117 140.347 200.236 141.035 200.563 141.631C200.891 142.226 201.407 142.696 202.03 142.966C202.654 143.236 203.35 143.291 204.008 143.121C204.666 142.952 205.249 142.568 205.665 142.031C206.081 141.494 206.307 140.833 206.306 140.154C206.305 139.474 206.078 138.814 205.66 138.278C205.347 137.871 204.934 137.55 204.463 137.346C203.991 137.141 203.475 137.061 202.963 137.111Z" fill="black"/>
<path d="M173.173 147.972H173.122C172.987 147.957 172.864 147.89 172.778 147.785C172.692 147.68 172.651 147.545 172.663 147.41L173.718 136.772C173.724 136.704 173.744 136.639 173.776 136.579C173.808 136.519 173.851 136.466 173.903 136.423C173.955 136.38 174.016 136.348 174.08 136.328C174.145 136.308 174.213 136.302 174.281 136.308C174.348 136.315 174.414 136.334 174.473 136.366C174.533 136.398 174.586 136.441 174.629 136.494C174.672 136.546 174.705 136.606 174.724 136.671C174.744 136.736 174.751 136.804 174.745 136.871L173.69 147.51C173.678 147.638 173.618 147.756 173.522 147.842C173.427 147.928 173.302 147.974 173.173 147.972Z" fill="#1D1D1B"/>
<path d="M163.39 133.506C163.297 133.508 163.206 133.483 163.127 133.434C163.01 133.364 162.926 133.251 162.893 133.118C162.859 132.986 162.879 132.847 162.949 132.729C163.089 132.497 166.416 127.027 170.277 129.135C170.339 129.166 170.393 129.209 170.438 129.262C170.482 129.315 170.515 129.376 170.536 129.441C170.556 129.507 170.563 129.576 170.556 129.645C170.55 129.713 170.529 129.78 170.496 129.84C170.463 129.9 170.418 129.953 170.364 129.996C170.31 130.039 170.248 130.07 170.182 130.088C170.115 130.107 170.046 130.111 169.978 130.102C169.909 130.093 169.844 130.07 169.784 130.035C166.789 128.399 163.859 133.209 163.832 133.256C163.786 133.333 163.722 133.396 163.644 133.44C163.567 133.484 163.479 133.506 163.39 133.506Z" fill="black"/>
<path d="M182.963 130.85C182.855 130.851 182.749 130.817 182.662 130.754C178.523 127.739 176.5 130.385 176.418 130.498C176.335 130.599 176.217 130.665 176.088 130.682C175.958 130.699 175.826 130.666 175.72 130.59C175.614 130.513 175.541 130.399 175.516 130.271C175.491 130.142 175.516 130.009 175.586 129.899C176.257 129.064 177.215 128.509 178.273 128.345C179.81 128.098 181.488 128.629 183.264 129.923C183.351 129.986 183.416 130.076 183.449 130.179C183.482 130.282 183.482 130.393 183.449 130.495C183.416 130.598 183.351 130.688 183.263 130.751C183.176 130.815 183.071 130.85 182.963 130.85Z" fill="black"/>
<path d="M187.491 107.084C187.537 107.084 187.58 107.066 187.612 107.034C187.645 107.002 187.663 106.959 187.663 106.913C187.663 106.868 187.645 106.824 187.612 106.792C187.58 106.76 187.537 106.742 187.491 106.742C187.446 106.742 187.403 106.76 187.37 106.792C187.338 106.824 187.32 106.868 187.32 106.913C187.32 106.959 187.338 107.002 187.37 107.034C187.403 107.066 187.446 107.084 187.491 107.084Z" fill="black"/>
<path d="M193.564 104.61C193.609 104.61 193.653 104.592 193.685 104.559C193.717 104.527 193.735 104.484 193.735 104.438C193.735 104.393 193.717 104.35 193.685 104.317C193.653 104.285 193.609 104.267 193.564 104.267C193.518 104.267 193.475 104.285 193.443 104.317C193.411 104.35 193.393 104.393 193.393 104.438C193.393 104.484 193.411 104.527 193.443 104.559C193.475 104.592 193.518 104.61 193.564 104.61Z" fill="black"/>
<path d="M165.472 148.28C164.016 148.28 162.593 147.848 161.383 147.04C160.173 146.231 159.23 145.081 158.673 143.737C158.116 142.392 157.97 140.912 158.254 139.485C158.538 138.057 159.239 136.746 160.268 135.717C161.297 134.687 162.608 133.986 164.036 133.702C165.464 133.418 166.943 133.564 168.288 134.121C169.633 134.678 170.782 135.622 171.591 136.832C172.399 138.042 172.831 139.465 172.831 140.92C172.829 142.872 172.053 144.743 170.674 146.122C169.294 147.502 167.423 148.278 165.472 148.28ZM165.472 134.588C164.219 134.588 162.995 134.959 161.954 135.655C160.912 136.351 160.101 137.34 159.621 138.497C159.142 139.654 159.017 140.927 159.261 142.156C159.505 143.384 160.108 144.513 160.994 145.398C161.88 146.284 163.008 146.887 164.236 147.131C165.465 147.376 166.738 147.25 167.895 146.771C169.052 146.292 170.041 145.48 170.737 144.439C171.433 143.397 171.804 142.173 171.804 140.92C171.802 139.242 171.135 137.632 169.947 136.445C168.76 135.257 167.151 134.59 165.472 134.588Z" fill="black"/>
<path d="M182.244 147.595C180.789 147.595 179.366 147.164 178.155 146.355C176.945 145.546 176.002 144.397 175.445 143.052C174.888 141.707 174.742 140.228 175.026 138.8C175.31 137.373 176.011 136.061 177.04 135.032C178.07 134.003 179.381 133.302 180.808 133.018C182.236 132.734 183.716 132.88 185.06 133.437C186.405 133.994 187.555 134.937 188.363 136.147C189.172 137.357 189.604 138.78 189.604 140.236C189.602 142.187 188.826 144.058 187.446 145.438C186.066 146.817 184.195 147.593 182.244 147.595ZM182.244 133.903C180.992 133.903 179.767 134.275 178.726 134.971C177.685 135.666 176.873 136.655 176.394 137.813C175.914 138.97 175.789 140.243 176.033 141.471C176.278 142.7 176.881 143.828 177.766 144.714C178.652 145.599 179.78 146.202 181.009 146.447C182.237 146.691 183.51 146.566 184.667 146.086C185.825 145.607 186.814 144.795 187.509 143.754C188.205 142.713 188.577 141.488 188.577 140.236C188.575 138.557 187.907 136.947 186.72 135.76C185.533 134.573 183.923 133.905 182.244 133.903Z" fill="black"/>
<path d="M175.432 139.038H172.317C172.181 139.038 172.05 138.984 171.954 138.887C171.858 138.791 171.804 138.661 171.804 138.524C171.804 138.388 171.858 138.258 171.954 138.161C172.05 138.065 172.181 138.011 172.317 138.011H175.432C175.568 138.011 175.699 138.065 175.795 138.161C175.891 138.258 175.946 138.388 175.946 138.524C175.946 138.661 175.891 138.791 175.795 138.887C175.699 138.984 175.568 139.038 175.432 139.038Z" fill="black"/>
<path d="M179.677 141.776C180.433 141.776 181.046 141.163 181.046 140.407C181.046 139.651 180.433 139.038 179.677 139.038C178.921 139.038 178.308 139.651 178.308 140.407C178.308 141.163 178.921 141.776 179.677 141.776Z" fill="black"/>
<path d="M167.355 142.803C168.111 142.803 168.724 142.19 168.724 141.434C168.724 140.678 168.111 140.065 167.355 140.065C166.598 140.065 165.985 140.678 165.985 141.434C165.985 142.19 166.598 142.803 167.355 142.803Z" fill="black"/>
<path d="M178.897 155.708C178.553 155.71 178.21 155.684 177.87 155.632C177.802 155.62 177.738 155.595 177.68 155.558C177.623 155.521 177.573 155.473 177.534 155.417C177.495 155.36 177.467 155.297 177.452 155.23C177.438 155.163 177.437 155.094 177.449 155.026C177.461 154.959 177.486 154.895 177.523 154.837C177.56 154.779 177.608 154.73 177.664 154.69C177.721 154.651 177.784 154.624 177.851 154.609C177.918 154.595 177.987 154.593 178.054 154.605C178.195 154.633 181.519 155.184 183.353 152.432C183.429 152.318 183.546 152.24 183.679 152.213C183.813 152.186 183.952 152.213 184.065 152.288C184.179 152.363 184.258 152.481 184.285 152.614C184.312 152.748 184.284 152.887 184.209 153C182.662 155.341 180.256 155.708 178.897 155.708Z" fill="black"/>
<path d="M195.06 128.704L187.741 136.349L188.483 137.059L195.802 129.414L195.06 128.704Z" fill="black"/>
<path d="M198.939 95.1381C198.774 95.1382 198.612 95.0904 198.473 95.0005C198.333 94.9106 198.223 94.7825 198.155 94.6315C198.155 94.587 196.167 90.3049 191.922 89.0658C188.903 88.1861 185.418 89.0144 181.585 91.5269C181.395 91.6437 181.167 91.6819 180.95 91.6335C180.732 91.585 180.542 91.4537 180.42 91.2673C180.298 91.081 180.254 90.8544 180.296 90.6357C180.338 90.417 180.464 90.2234 180.647 90.0961C184.932 87.2893 188.896 86.3924 192.418 87.4296C197.426 88.9015 199.627 93.7278 199.72 93.9332C199.765 94.0359 199.79 94.1467 199.793 94.259C199.796 94.3714 199.777 94.4832 199.736 94.5881C199.696 94.693 199.635 94.7889 199.558 94.8703C199.48 94.9518 199.388 95.0172 199.285 95.0628C199.176 95.1121 199.058 95.1378 198.939 95.1381Z" fill="white"/>
<path d="M190.289 128.916C181.595 128.916 174.858 117.278 174.543 116.727C174.487 116.629 174.451 116.521 174.437 116.41C174.423 116.298 174.431 116.185 174.461 116.076C174.491 115.967 174.542 115.866 174.611 115.777C174.68 115.688 174.765 115.614 174.863 115.558C174.961 115.502 175.069 115.466 175.18 115.452C175.292 115.438 175.405 115.446 175.514 115.476C175.622 115.505 175.724 115.556 175.813 115.625C175.902 115.694 175.976 115.78 176.032 115.878C176.111 116.015 183.946 129.57 192.692 126.831C192.906 126.772 193.135 126.798 193.33 126.905C193.525 127.011 193.671 127.189 193.737 127.401C193.803 127.613 193.784 127.842 193.684 128.041C193.585 128.239 193.411 128.391 193.202 128.464C192.259 128.761 191.277 128.913 190.289 128.916Z" fill="white"/>
<path d="M291.951 255.761C291.731 255.761 291.517 255.691 291.34 255.56C291.163 255.429 291.033 255.245 290.968 255.035C282.575 227.843 263.314 206.347 263.123 206.131C262.969 205.926 262.897 205.671 262.922 205.416C262.947 205.16 263.066 204.923 263.256 204.752C263.447 204.58 263.695 204.486 263.951 204.488C264.208 204.49 264.454 204.588 264.642 204.762C264.841 204.978 284.407 226.813 292.933 254.44C292.979 254.593 292.989 254.755 292.961 254.912C292.933 255.07 292.869 255.218 292.774 255.347C292.678 255.475 292.554 255.579 292.411 255.651C292.268 255.723 292.111 255.761 291.951 255.761Z" fill="white"/>
<path d="M267.99 259.184C267.819 259.183 267.651 259.141 267.501 259.061C238.566 243.428 221.955 249.134 221.79 249.196C221.534 249.289 221.252 249.277 221.005 249.162C220.757 249.047 220.566 248.839 220.473 248.583C220.379 248.327 220.391 248.044 220.506 247.797C220.621 247.55 220.829 247.359 221.085 247.265C221.787 247.008 238.635 241.131 268.48 257.253C268.681 257.362 268.84 257.535 268.932 257.744C269.024 257.954 269.044 258.188 268.987 258.409C268.931 258.631 268.802 258.828 268.622 258.968C268.441 259.108 268.219 259.184 267.99 259.184Z" fill="white"/>
<path d="M201.169 85.2973C201.222 85.2937 201.273 85.2798 201.32 85.2562C201.431 85.2049 201.517 85.1115 201.56 84.9966C201.602 84.8817 201.597 84.7547 201.546 84.6435C200.211 81.7682 198.263 79.8514 195.758 78.9409C191.345 77.3458 186.827 79.444 186.639 79.533C186.584 79.5591 186.535 79.5957 186.494 79.6408C186.453 79.6858 186.422 79.7385 186.402 79.7957C186.381 79.8529 186.372 79.9136 186.376 79.9742C186.379 80.0349 186.394 80.0943 186.42 80.1491C186.473 80.2593 186.568 80.3442 186.683 80.3858C186.798 80.4274 186.925 80.4223 187.036 80.3716C187.077 80.3511 191.407 78.3452 195.45 79.8137C197.712 80.6352 199.482 82.3912 200.707 85.0303C200.747 85.1171 200.813 85.1894 200.896 85.2373C200.979 85.2851 201.074 85.3061 201.169 85.2973Z" fill="black"/>
<path d="M278.44 175.924C278.304 175.942 278.166 175.904 278.057 175.821C277.949 175.737 277.877 175.613 277.86 175.477C277.842 175.341 277.879 175.203 277.963 175.095C278.047 174.986 278.17 174.915 278.307 174.897C298.995 169.287 311.191 155.561 317.777 145.031C324.931 133.599 327.207 123.357 327.231 123.255C327.263 123.124 327.344 123.012 327.458 122.941C327.572 122.87 327.709 122.846 327.839 122.875C327.97 122.903 328.085 122.982 328.159 123.094C328.232 123.206 328.259 123.342 328.234 123.474C328.21 123.576 325.906 133.965 318.667 145.545C311.982 156.242 299.601 170.19 278.573 175.89C278.53 175.906 278.486 175.918 278.44 175.924Z" fill="black"/>
<path d="M307.696 175.9C307.56 175.916 307.423 175.878 307.315 175.793C307.207 175.708 307.137 175.584 307.121 175.448C307.105 175.312 307.143 175.175 307.228 175.067C307.312 174.959 307.437 174.889 307.573 174.873C323.753 170.844 332.304 153.103 332.389 152.925C332.451 152.808 332.555 152.719 332.681 152.677C332.806 152.635 332.943 152.644 333.063 152.7C333.182 152.757 333.275 152.857 333.323 152.98C333.37 153.104 333.368 153.241 333.317 153.363C333.231 153.548 324.469 171.727 307.819 175.869C307.78 175.884 307.738 175.895 307.696 175.9Z" fill="black"/>
<path d="M304.112 280.324C304.049 280.325 303.987 280.313 303.928 280.29C303.865 280.266 303.807 280.23 303.758 280.183C303.709 280.137 303.67 280.081 303.643 280.019C303.616 279.957 303.601 279.891 303.599 279.824C303.597 279.756 303.609 279.689 303.633 279.626C311.321 259.578 299.026 241.604 298.899 241.426C298.821 241.314 298.791 241.176 298.815 241.042C298.838 240.908 298.914 240.788 299.026 240.71C299.138 240.632 299.276 240.602 299.41 240.626C299.544 240.649 299.663 240.725 299.741 240.837C299.875 241.025 302.979 245.52 305.16 252.619C307.176 259.177 308.713 269.251 304.592 280.003C304.553 280.098 304.487 280.18 304.402 280.237C304.316 280.295 304.215 280.325 304.112 280.324Z" fill="black"/>
<path d="M130.359 199.282L129.387 198.94C135.206 181.825 159.752 169.386 160.793 168.866L161.251 169.783C161.001 169.917 136.041 182.561 130.359 199.282Z" fill="black"/>
<path d="M64.6885 130.087L64.709 144.121C64.7089 144.772 64.8925 145.411 65.2389 145.962C65.5852 146.514 66.0803 146.956 66.667 147.239C71.9487 149.793 87.1022 155.537 101.924 146.291C102.418 145.979 102.826 145.547 103.107 145.034C103.388 144.522 103.535 143.946 103.532 143.361V125.62" fill="white"/>
<path d="M84.1924 151.895C76.3674 151.895 69.816 149.341 66.4444 147.708C65.7723 147.38 65.2054 146.871 64.8079 146.238C64.4105 145.604 64.1983 144.872 64.1954 144.124L64.1748 130.09H65.2017L65.2223 144.124C65.2199 144.68 65.3754 145.224 65.6705 145.694C65.9656 146.165 66.3883 146.541 66.8893 146.781C72.5303 149.519 87.2047 154.869 101.653 145.86C102.073 145.593 102.419 145.224 102.658 144.788C102.897 144.352 103.023 143.862 103.022 143.365V125.62H104.049V143.365C104.049 144.036 103.88 144.697 103.557 145.286C103.234 145.874 102.767 146.372 102.201 146.733C96.81 150.129 90.5635 151.919 84.1924 151.895Z" fill="#1D1E1B"/>
<path d="M53.5707 125.346L80.2699 109.364C80.6272 109.152 81.045 109.064 81.4577 109.114L114.945 113.324C115.315 113.371 115.662 113.527 115.942 113.773C116.222 114.019 116.421 114.344 116.514 114.705C116.607 115.066 116.59 115.447 116.463 115.797C116.337 116.148 116.109 116.453 115.807 116.672L93.6332 132.798C93.2571 133.072 92.7913 133.194 92.329 133.14L54.334 128.789C53.9471 128.747 53.5831 128.585 53.2932 128.325C53.0033 128.065 52.8022 127.721 52.7179 127.341C52.6337 126.961 52.6708 126.564 52.8237 126.207C52.9767 125.849 53.2378 125.548 53.5707 125.346Z" fill="#07ACEE"/>
<path d="M92.5348 133.677C92.4447 133.683 92.3544 133.683 92.2644 133.677L54.2694 129.327C53.7768 129.27 53.3145 129.061 52.9471 128.728C52.5798 128.395 52.326 127.955 52.2214 127.471C52.1168 126.986 52.1665 126.481 52.3638 126.026C52.5611 125.571 52.8959 125.19 53.3212 124.935L80.0204 108.953C80.4762 108.681 81.0097 108.568 81.5368 108.632L115.024 112.842C115.496 112.901 115.938 113.101 116.295 113.415C116.652 113.73 116.906 114.144 117.025 114.604C117.143 115.065 117.12 115.55 116.959 115.998C116.799 116.445 116.507 116.834 116.123 117.114L93.9281 133.219C93.5243 133.516 93.0362 133.677 92.5348 133.677ZM53.8346 125.805C53.5928 125.949 53.4024 126.166 53.2903 126.424C53.1781 126.683 53.15 126.97 53.2097 127.245C53.2694 127.52 53.4142 127.77 53.6234 127.958C53.8325 128.147 54.0955 128.265 54.3755 128.297L92.3705 132.647C92.7053 132.688 93.043 132.599 93.3153 132.401L115.489 116.272C115.708 116.113 115.873 115.892 115.965 115.638C116.056 115.384 116.069 115.108 116.001 114.847C115.933 114.585 115.789 114.35 115.586 114.172C115.383 113.994 115.131 113.881 114.863 113.848L81.3759 109.641C81.0784 109.605 80.7771 109.668 80.5201 109.823L53.8346 125.805Z" fill="black"/>
<path d="M92.295 130.871C92.0783 130.871 91.867 130.803 91.6913 130.676C91.5156 130.549 91.3845 130.37 91.3169 130.164C91.2493 129.958 91.2485 129.736 91.3147 129.53C91.381 129.324 91.5108 129.144 91.6856 129.015L110.252 115.324C110.471 115.162 110.746 115.094 111.015 115.135C111.284 115.176 111.526 115.322 111.688 115.541C111.849 115.76 111.917 116.035 111.876 116.304C111.836 116.573 111.69 116.815 111.471 116.977L92.9042 130.669C92.7279 130.799 92.5145 130.87 92.295 130.871Z" fill="white"/>
<path d="M188.252 60.1282C187.383 60.1161 186.516 60.0567 185.654 59.9502C181.433 59.4812 160.101 56.6402 159.889 56.6094C159.398 56.57 158.921 56.4207 158.495 56.1725C158.069 55.9242 157.705 55.5834 157.428 55.1752C155.878 52.916 156.939 48.8153 156.987 48.6441L157.979 48.9077C157.979 48.9453 156.993 52.7243 158.277 54.5967C158.474 54.8827 158.733 55.1203 159.034 55.2916C159.336 55.463 159.673 55.5636 160.019 55.5859C160.245 55.6133 181.564 58.4543 185.774 58.9233C189.984 59.3922 192.5 59.3786 194.29 53.5595C195.755 48.7947 200.92 34.6339 203.074 28.7669C203.538 27.5651 203.636 26.2528 203.356 24.9952C203.077 23.7375 202.432 22.5906 201.502 21.6985C200.961 21.1953 200.499 20.9763 200.205 21.0824L199.863 20.1136C200.547 19.8672 201.348 20.1479 202.204 20.9454C203.282 21.9753 204.031 23.3005 204.358 24.7548C204.685 26.209 204.575 27.7275 204.042 29.1195C201.893 34.9796 196.734 49.1234 195.276 53.8607C193.691 58.9849 191.398 60.1282 188.252 60.1282Z" fill="black"/>
<path d="M170.114 19.357L157.61 48.394C157.439 48.7922 157.362 49.2249 157.386 49.6578C157.411 50.0908 157.535 50.5121 157.75 50.8886C157.965 51.2651 158.265 51.5864 158.626 51.8271C158.986 52.0678 159.398 52.2214 159.828 52.2757L187.791 55.8219C188.42 55.9008 189.057 55.764 189.599 55.4339C190.14 55.1038 190.554 54.5998 190.772 54.0043L201.654 24.1731C201.799 23.7735 201.851 23.346 201.807 22.9232C201.762 22.5003 201.622 22.0931 201.397 21.7325C201.171 21.3719 200.867 21.0674 200.506 20.8421C200.146 20.6167 199.739 20.4764 199.316 20.4318L172.959 17.6934C172.37 17.6338 171.777 17.7628 171.266 18.0617C170.754 18.3607 170.351 18.8142 170.114 19.357Z" fill="#4BD657"/>
<path d="M188.15 56.356C188.008 56.357 187.866 56.3479 187.725 56.3286L159.763 52.779C159.254 52.7141 158.768 52.5319 158.341 52.2469C157.915 51.9618 157.56 51.5817 157.306 51.1364C157.051 50.6911 156.904 50.1927 156.875 49.6807C156.845 49.1686 156.935 48.6567 157.138 48.1854L169.642 19.1483C169.919 18.4983 170.397 17.9544 171.007 17.5969C171.616 17.2395 172.325 17.0874 173.027 17.163L199.384 19.9014C199.885 19.9535 200.367 20.1193 200.795 20.386C201.222 20.6527 201.582 21.0133 201.849 21.4404C202.116 21.8676 202.281 22.3499 202.334 22.8508C202.386 23.3516 202.323 23.8578 202.15 24.3307L191.265 54.1585C191.039 54.8031 190.617 55.3612 190.059 55.7551C189.5 56.149 188.833 56.359 188.15 56.356ZM172.678 18.1796C172.233 18.1782 171.798 18.3071 171.426 18.5505C171.053 18.7938 170.761 19.1409 170.583 19.5488L158.083 48.5859C157.942 48.911 157.879 49.2642 157.899 49.6178C157.919 49.9713 158.021 50.3154 158.196 50.6229C158.372 50.9303 158.617 51.1927 158.911 51.3893C159.206 51.5858 159.542 51.7113 159.893 51.7555L187.856 55.3017C188.369 55.3679 188.89 55.2572 189.333 54.9878C189.775 54.7184 190.112 54.3064 190.289 53.8196L201.171 23.9884C201.29 23.6624 201.333 23.3136 201.297 22.9684C201.261 22.6233 201.146 22.2909 200.963 21.9965C200.779 21.7021 200.53 21.4535 200.236 21.2696C199.942 21.0857 199.61 20.9713 199.264 20.9351L172.907 18.1967C172.831 18.1865 172.755 18.1809 172.678 18.1796Z" fill="black"/>
<path d="M188.098 51.2354C188.001 51.2344 187.905 51.2183 187.814 51.1874C187.599 51.1121 187.424 50.955 187.325 50.7503C187.226 50.5457 187.212 50.3102 187.287 50.0955L194.92 28.1577C194.954 28.0478 195.009 27.9459 195.083 27.858C195.157 27.7701 195.248 27.698 195.351 27.6461C195.454 27.5941 195.566 27.5634 195.68 27.5556C195.795 27.5479 195.91 27.5634 196.019 27.6011C196.127 27.6388 196.227 27.6981 196.312 27.7753C196.397 27.8524 196.466 27.946 196.514 28.0503C196.563 28.1547 196.589 28.2677 196.593 28.3826C196.597 28.4975 196.577 28.6119 196.535 28.719L188.906 50.6603C188.847 50.8279 188.738 50.9731 188.593 51.0761C188.448 51.1791 188.275 51.2347 188.098 51.2354Z" fill="white"/>
<path d="M189.049 33.244H188.998L170.856 31.3374C170.72 31.3229 170.595 31.2549 170.509 31.1483C170.423 31.0417 170.383 30.9054 170.397 30.7692C170.412 30.633 170.48 30.5082 170.586 30.4222C170.693 30.3362 170.829 30.296 170.966 30.3105L189.09 32.2205C189.158 32.2241 189.224 32.241 189.285 32.2701C189.346 32.2993 189.4 32.3401 189.445 32.3903C189.49 32.4405 189.525 32.4992 189.548 32.5628C189.57 32.6265 189.58 32.694 189.576 32.7614C189.573 32.8288 189.556 32.8949 189.527 32.9558C189.498 33.0167 189.457 33.0713 189.407 33.1164C189.356 33.1616 189.298 33.1964 189.234 33.2188C189.17 33.2413 189.103 33.251 189.035 33.2474L189.049 33.244Z" fill="black"/>
<path d="M186.181 39.9224H186.126L168.953 38.0124C168.817 37.9974 168.692 37.929 168.607 37.8221C168.521 37.7152 168.481 37.5786 168.496 37.4425C168.511 37.3063 168.58 37.1817 168.687 37.096C168.794 37.0103 168.93 36.9705 169.066 36.9855L186.239 38.8955C186.375 38.9032 186.503 38.9648 186.594 39.0665C186.685 39.1683 186.731 39.3019 186.724 39.4381C186.716 39.5743 186.654 39.7018 186.553 39.7926C186.451 39.8835 186.317 39.9301 186.181 39.9224Z" fill="black"/>
<path d="M305.13 94.3679C318.363 94.3679 329.091 83.6403 329.091 70.4071C329.091 57.1739 318.363 46.4463 305.13 46.4463C291.897 46.4463 281.169 57.1739 281.169 70.4071C281.169 83.6403 291.897 94.3679 305.13 94.3679Z" fill="#07ACEE"/>
<path d="M305.13 94.8813C300.289 94.8813 295.557 93.446 291.532 90.7567C287.508 88.0674 284.371 84.2451 282.518 79.773C280.666 75.3009 280.181 70.3799 281.126 65.6324C282.07 60.8849 284.401 56.524 287.824 53.1012C291.246 49.6784 295.607 47.3475 300.355 46.4031C305.102 45.4588 310.023 45.9435 314.495 47.7959C318.967 49.6483 322.79 52.7852 325.479 56.8099C328.168 60.8347 329.604 65.5666 329.604 70.4071C329.597 76.8961 327.017 83.1176 322.428 87.706C317.84 92.2944 311.619 94.875 305.13 94.8813ZM305.13 46.9597C300.492 46.9597 295.959 48.3349 292.103 50.9113C288.247 53.4878 285.242 57.1497 283.467 61.4342C281.692 65.7186 281.228 70.4331 282.133 74.9814C283.037 79.5298 285.27 83.7077 288.55 86.9869C291.829 90.266 296.007 92.4992 300.555 93.4039C305.103 94.3087 309.818 93.8443 314.102 92.0696C318.387 90.295 322.049 87.2896 324.625 83.4337C327.202 79.5778 328.577 75.0445 328.577 70.4071C328.57 64.1907 326.097 58.231 321.701 53.8353C317.306 49.4397 311.346 46.967 305.13 46.9597Z" fill="#1D1E1B"/>
<path d="M309.664 60.7371L294.946 70.1811C294.612 70.3948 294.344 70.6959 294.169 71.0515C293.995 71.4072 293.922 71.8038 293.957 72.1983C293.992 72.5928 294.135 72.9701 294.37 73.2891C294.604 73.6082 294.922 73.8568 295.288 74.008L310.007 80.1145C310.336 80.2514 310.694 80.3049 311.048 80.2704C311.403 80.2358 311.744 80.1144 312.04 79.9167C312.337 79.719 312.58 79.4511 312.748 79.137C312.917 78.8228 313.005 78.472 313.005 78.1155V62.5615C313.005 62.1724 312.9 61.7905 312.701 61.4559C312.502 61.1213 312.217 60.8464 311.875 60.6598C311.534 60.4733 311.148 60.382 310.759 60.3956C310.37 60.4092 309.992 60.5272 309.664 60.7371Z" fill="white"/>
<path d="M310.835 80.7958C310.482 80.7952 310.134 80.7254 309.808 80.5904L295.089 74.4804C294.637 74.2928 294.245 73.9851 293.956 73.5907C293.666 73.1962 293.49 72.73 293.447 72.2426C293.404 71.7552 293.495 71.2652 293.71 70.8258C293.925 70.3864 294.256 70.0143 294.668 69.7498L309.387 60.3059C309.792 60.0459 310.259 59.8998 310.74 59.8828C311.221 59.8658 311.698 59.9786 312.12 60.2094C312.542 60.4401 312.895 60.7803 313.14 61.1942C313.386 61.6081 313.515 62.0804 313.515 62.5616V78.1088C313.515 78.8196 313.233 79.5013 312.73 80.0039C312.227 80.5066 311.546 80.7889 310.835 80.7889V80.7958ZM309.664 60.7372L309.942 61.1719L295.223 70.6124C294.968 70.7755 294.763 71.0051 294.63 71.2764C294.497 71.5477 294.441 71.8502 294.468 72.1512C294.495 72.4522 294.604 72.74 294.783 72.9835C294.961 73.227 295.204 73.4168 295.483 73.5322L310.202 79.6422C310.453 79.7466 310.727 79.7872 310.998 79.7603C311.269 79.7334 311.53 79.6399 311.756 79.4881C311.982 79.3364 312.167 79.131 312.295 78.8904C312.423 78.6497 312.489 78.3812 312.488 78.1088V62.5548C312.489 62.2576 312.41 61.9657 312.258 61.7099C312.107 61.4541 311.889 61.244 311.629 61.1016C311.368 60.9593 311.073 60.89 310.776 60.9012C310.479 60.9123 310.191 61.0035 309.942 61.1651L309.664 60.7372Z" fill="black"/>
<path d="M324.469 62.3631C324.299 62.363 324.131 62.3204 323.981 62.2391C323.831 62.1578 323.703 62.0404 323.61 61.8976C319.003 54.8531 312.728 51.324 304.962 51.4096C301.343 51.4691 297.772 52.2475 294.456 53.6995C294.335 53.7668 294.201 53.8087 294.062 53.8226C293.924 53.8365 293.784 53.8222 293.651 53.7805C293.519 53.7387 293.396 53.6705 293.29 53.5799C293.185 53.4892 293.099 53.3781 293.038 53.2533C292.976 53.1284 292.941 52.9924 292.934 52.8535C292.927 52.7146 292.948 52.5757 292.996 52.4453C293.044 52.3148 293.119 52.1954 293.214 52.0945C293.31 51.9935 293.425 51.9131 293.553 51.858C297.111 50.27 300.953 49.4188 304.849 49.3558C310.719 49.2771 319.051 51.1905 325.318 60.7748C325.419 60.929 325.476 61.1074 325.484 61.2913C325.492 61.4752 325.451 61.6579 325.364 61.8203C325.277 61.9827 325.148 62.1187 324.991 62.2142C324.833 62.3097 324.653 62.3611 324.469 62.3631Z" fill="white"/>
<path d="M183.252 290.894H86.539C85.0656 290.894 83.6524 290.309 82.6106 289.267C81.5687 288.225 80.9835 286.812 80.9835 285.339C80.9835 285.274 81.0091 285.212 81.0547 285.167C81.1003 285.121 81.1621 285.096 81.2265 285.096H188.811V285.339C188.811 286.069 188.667 286.791 188.387 287.466C188.108 288.14 187.699 288.752 187.182 289.268C186.666 289.784 186.053 290.193 185.379 290.472C184.704 290.751 183.982 290.895 183.252 290.894Z" fill="white"/>
<path d="M183.251 291.408H86.5387C84.9296 291.406 83.387 290.766 82.2492 289.628C81.1115 288.49 80.4715 286.948 80.4697 285.339C80.4697 285.139 80.5491 284.947 80.6902 284.805C80.8313 284.663 81.0228 284.583 81.2228 284.582H189.32V285.339C189.319 286.948 188.679 288.49 187.541 289.628C186.403 290.766 184.86 291.406 183.251 291.408ZM81.5035 285.609C81.5735 286.898 82.1345 288.11 83.0711 288.998C84.0076 289.885 85.2484 290.38 86.5387 290.381H183.251C184.542 290.38 185.783 289.885 186.719 288.998C187.656 288.11 188.217 286.898 188.287 285.609H81.5035Z" fill="black"/>
<path d="M85.0943 287.933H173.636C177.245 287.933 180.171 285.008 180.171 281.399V227.915C180.171 224.306 177.245 221.381 173.636 221.381H85.0943C81.4854 221.381 78.5599 224.306 78.5599 227.915L78.5599 281.399C78.5599 285.008 81.4854 287.933 85.0943 287.933Z" fill="white"/>
<path d="M173.637 288.447H85.0949C83.2262 288.445 81.4345 287.702 80.1132 286.381C78.7918 285.059 78.0487 283.268 78.0469 281.399V227.915C78.0496 226.047 78.793 224.256 80.1142 222.934C81.4353 221.613 83.2265 220.87 85.0949 220.867H173.637C175.506 220.869 177.297 221.612 178.618 222.933C179.94 224.255 180.683 226.046 180.685 227.915V281.399C180.684 283.268 179.941 285.06 178.619 286.382C177.298 287.703 175.506 288.446 173.637 288.447ZM85.0949 221.894C83.4986 221.896 81.9682 222.531 80.8394 223.66C79.7106 224.788 79.0756 226.319 79.0738 227.915V281.399C79.0756 282.995 79.7106 284.526 80.8394 285.655C81.9682 286.783 83.4986 287.418 85.0949 287.42H173.637C175.233 287.418 176.764 286.783 177.892 285.655C179.021 284.526 179.656 282.995 179.658 281.399V227.915C179.656 226.319 179.021 224.788 177.892 223.66C176.764 222.531 175.233 221.896 173.637 221.894H85.0949Z" fill="black"/>
<path d="M82.1236 279.092C81.8512 279.092 81.5901 278.984 81.3975 278.791C81.2049 278.599 81.0967 278.337 81.0967 278.065V234.494C81.0967 234.222 81.2049 233.961 81.3975 233.768C81.5901 233.575 81.8512 233.467 82.1236 233.467C82.3959 233.467 82.657 233.575 82.8496 233.768C83.0422 233.961 83.1505 234.222 83.1505 234.494V278.065C83.1505 278.337 83.0422 278.599 82.8496 278.791C82.657 278.984 82.3959 279.092 82.1236 279.092Z" fill="white"/>
<path d="M128.238 259.872C130.047 259.872 131.514 258.405 131.514 256.596C131.514 254.787 130.047 253.321 128.238 253.321C126.429 253.321 124.962 254.787 124.962 256.596C124.962 258.405 126.429 259.872 128.238 259.872Z" fill="#07ACEE"/>
<path d="M128.238 260.382C127.488 260.382 126.755 260.16 126.132 259.743C125.509 259.327 125.023 258.735 124.736 258.042C124.45 257.35 124.375 256.588 124.521 255.852C124.668 255.117 125.029 254.442 125.559 253.912C126.09 253.383 126.765 253.022 127.5 252.876C128.236 252.73 128.998 252.806 129.69 253.093C130.382 253.38 130.974 253.867 131.39 254.49C131.806 255.114 132.027 255.847 132.027 256.596C132.026 257.601 131.626 258.564 130.916 259.274C130.205 259.983 129.242 260.382 128.238 260.382ZM128.238 253.834C127.691 253.834 127.157 253.996 126.703 254.3C126.249 254.603 125.894 255.035 125.685 255.539C125.476 256.044 125.422 256.599 125.528 257.135C125.635 257.671 125.898 258.163 126.284 258.55C126.671 258.936 127.163 259.199 127.699 259.306C128.234 259.412 128.79 259.358 129.295 259.148C129.799 258.939 130.231 258.585 130.534 258.131C130.838 257.677 131 257.143 131 256.596C131 256.234 130.928 255.874 130.79 255.539C130.651 255.204 130.447 254.9 130.191 254.643C129.934 254.387 129.63 254.183 129.295 254.044C128.959 253.905 128.6 253.834 128.238 253.834Z" fill="black"/>
<path d="M73.8358 226.365C73.6999 226.36 73.5712 226.302 73.4776 226.203C73.3841 226.105 73.3333 225.973 73.336 225.837C73.336 225.656 73.4867 221.408 76.7864 218.399C79.1277 216.26 82.4343 215.319 86.6138 215.586C86.75 215.594 86.8771 215.657 86.9673 215.759C87.0575 215.861 87.1033 215.995 87.0946 216.132C87.086 216.268 87.0237 216.395 86.9213 216.485C86.8189 216.575 86.6849 216.621 86.5488 216.612C82.6637 216.359 79.6137 217.211 77.4881 219.149C74.5101 221.856 74.3664 225.824 74.3629 225.865C74.3612 225.932 74.3461 225.999 74.3186 226.06C74.2912 226.122 74.2518 226.177 74.2028 226.224C74.1539 226.27 74.0963 226.307 74.0333 226.331C73.9704 226.355 73.9032 226.366 73.8358 226.365Z" fill="black"/>
<path d="M100.264 97.0106L99.3672 96.5143C110.953 75.5112 128.188 58.171 149.12 46.4568L149.62 47.3536C128.857 58.9765 111.76 76.1773 100.264 97.0106Z" fill="black"/>
<path d="M91.8335 203.965C88.254 194.556 85.7986 184.758 84.5186 174.774L85.5454 174.644C86.8109 184.547 89.2432 194.266 92.7919 203.598L91.8335 203.965Z" fill="black"/>
<path d="M311.677 238.595L310.876 237.951C326.537 218.417 336.088 194.697 338.333 169.761C340.578 144.825 335.417 119.781 323.497 97.7637L324.4 97.2742C336.447 119.461 341.666 144.713 339.403 169.858C337.139 195.003 327.493 218.917 311.677 238.595Z" fill="black"/>
<path d="M274.664 47.8053C274.575 47.8056 274.488 47.782 274.411 47.7368C255.281 36.8997 233.668 31.2069 211.681 31.2142C211.545 31.2142 211.415 31.1601 211.318 31.0638C211.222 30.9675 211.168 30.8369 211.168 30.7007C211.168 30.5645 211.222 30.4339 211.318 30.3376C211.415 30.2414 211.545 30.1873 211.681 30.1873C233.847 30.1807 255.635 35.9207 274.921 46.8469C275.019 46.9033 275.096 46.9905 275.139 47.095C275.182 47.1995 275.19 47.3154 275.161 47.4247C275.131 47.534 275.067 47.6305 274.977 47.6994C274.887 47.7682 274.777 47.8054 274.664 47.8053Z" fill="black"/>
<path d="M77.3296 119.787L76.3027 119.609C76.3027 119.534 77.6446 112.25 81.8138 102.552C85.6612 93.6013 92.7844 80.6933 104.881 70.0342L105.566 70.8009C82.7004 90.9691 77.3741 119.503 77.3296 119.787Z" fill="black"/>
<path d="M176.281 25.9053C176.196 25.9052 176.112 25.8839 176.036 25.8433C175.961 25.8026 175.897 25.744 175.85 25.6725C175.813 25.6162 175.788 25.5531 175.775 25.4869C175.763 25.4207 175.764 25.3527 175.778 25.2869C175.792 25.221 175.819 25.1585 175.857 25.1031C175.895 25.0477 175.944 25.0004 176.001 24.964C176.185 24.8407 195.077 12.785 223.238 17.2075C223.374 17.2284 223.496 17.3025 223.578 17.4136C223.659 17.5246 223.693 17.6635 223.672 17.7997C223.651 17.9359 223.578 18.0582 223.466 18.1397C223.355 18.2212 223.216 18.2553 223.08 18.2344C195.337 13.8735 176.754 25.7136 176.569 25.8334C176.483 25.8867 176.382 25.9118 176.281 25.9053Z" fill="black"/>
<path d="M346.375 109.186C341.682 85.7183 320.111 70.979 319.892 70.8489L320.467 69.9966C320.686 70.1472 342.603 85.1124 347.382 109.018L346.375 109.186Z" fill="black"/>
<path d="M324.469 291.531H64.6648C64.5286 291.531 64.3981 291.477 64.3018 291.381C64.2055 291.285 64.1514 291.154 64.1514 291.018C64.1514 290.882 64.2055 290.751 64.3018 290.655C64.3981 290.559 64.5286 290.504 64.6648 290.504H324.469C324.605 290.504 324.735 290.559 324.832 290.655C324.928 290.751 324.982 290.882 324.982 291.018C324.982 291.154 324.928 291.285 324.832 291.381C324.735 291.477 324.605 291.531 324.469 291.531Z" fill="black"/>
<path d="M339.359 299.233H312.66C312.524 299.233 312.393 299.179 312.297 299.083C312.201 298.986 312.146 298.856 312.146 298.72C312.146 298.583 312.201 298.453 312.297 298.356C312.393 298.26 312.524 298.206 312.66 298.206H339.359C339.495 298.206 339.626 298.26 339.722 298.356C339.818 298.453 339.873 298.583 339.873 298.72C339.873 298.856 339.818 298.986 339.722 299.083C339.626 299.179 339.495 299.233 339.359 299.233Z" fill="black"/>
<path d="M80.9241 298.548H52.5134C52.3773 298.548 52.2467 298.494 52.1504 298.398C52.0541 298.302 52 298.171 52 298.035C52 297.899 52.0541 297.768 52.1504 297.672C52.2467 297.576 52.3773 297.521 52.5134 297.521H80.9241C81.0603 297.521 81.1909 297.576 81.2872 297.672C81.3834 297.768 81.4376 297.899 81.4376 298.035C81.4376 298.171 81.3834 298.302 81.2872 298.398C81.1909 298.494 81.0603 298.548 80.9241 298.548Z" fill="black"/>
<defs>
<filter id="filter0_d_14042_104475" x="-4.02018" y="107.786" width="38.6849" height="38.6842" filterUnits="userSpaceOnUse" color-interpolation-filters="sRGB">
<feFlood flood-opacity="0" result="BackgroundImageFix"/>
<feColorMatrix in="SourceAlpha" type="matrix" values="0 0 0 0 0 0 0 0 0 0 0 0 0 0 0 0 0 0 127 0" result="hardAlpha"/>
<feOffset dy="2.03704"/>
<feGaussianBlur stdDeviation="5.09261"/>
<feComposite in2="hardAlpha" operator="out"/>
<feColorMatrix type="matrix" values="0 0 0 0 0 0 0 0 0 0 0 0 0 0 0 0 0 0 0.05 0"/>
<feBlend mode="normal" in2="BackgroundImageFix" result="effect1_dropShadow_14042_104475"/>
<feBlend mode="normal" in="SourceGraphic" in2="effect1_dropShadow_14042_104475" result="shape"/>
</filter>
<filter id="filter1_d_14042_104475" x="370.65" y="165.21" width="38.6878" height="38.6885" filterUnits="userSpaceOnUse" color-interpolation-filters="sRGB">
<feFlood flood-opacity="0" result="BackgroundImageFix"/>
<feColorMatrix in="SourceAlpha" type="matrix" values="0 0 0 0 0 0 0 0 0 0 0 0 0 0 0 0 0 0 127 0" result="hardAlpha"/>
<feOffset dy="2.03704"/>
<feGaussianBlur stdDeviation="5.09261"/>
<feComposite in2="hardAlpha" operator="out"/>
<feColorMatrix type="matrix" values="0 0 0 0 0 0 0 0 0 0 0 0 0 0 0 0 0 0 0.05 0"/>
<feBlend mode="normal" in2="BackgroundImageFix" result="effect1_dropShadow_14042_104475"/>
<feBlend mode="normal" in="SourceGraphic" in2="effect1_dropShadow_14042_104475" result="shape"/>
</filter>
<linearGradient id="paint0_linear_14042_104475" x1="20.4547" y1="112.038" x2="392.053" y2="200.547" gradientUnits="userSpaceOnUse">
<stop stop-color="#CDD5E2"/>
<stop offset="1" stop-color="#CDD5E2" stop-opacity="0"/>
</linearGradient>
<linearGradient id="paint1_linear_14042_104475" x1="391.41" y1="195.438" x2="353.849" y2="294.044" gradientUnits="userSpaceOnUse">
<stop stop-color="#CDD5E2"/>
<stop offset="1" stop-color="#CDD5E2" stop-opacity="0"/>
</linearGradient>
<linearGradient id="paint2_linear_14042_104475" x1="196.503" y1="23.2605" x2="196.503" y2="365.006" gradientUnits="userSpaceOnUse">
<stop stop-color="#CDD5E2"/>
<stop offset="1" stop-color="#CDD5E2" stop-opacity="0"/>
</linearGradient>
<linearGradient id="paint3_linear_14042_104475" x1="196.505" y1="57.4338" x2="196.505" y2="330.83" gradientUnits="userSpaceOnUse">
<stop stop-color="#CDD5E2"/>
<stop offset="1" stop-color="#CDD5E2" stop-opacity="0"/>
</linearGradient>
</defs>
</svg>
