<svg width="406" height="302" viewBox="0 0 406 302" fill="none" xmlns="http://www.w3.org/2000/svg">
<mask id="mask0_14043_105117" style="mask-type:alpha" maskUnits="userSpaceOnUse" x="0" y="0" width="406" height="302">
<rect width="405.823" height="301.875" fill="#D9D9D9"/>
</mask>
<g mask="url(#mask0_14043_105117)">
<g opacity="0.5">
<mask id="path-2-inside-1_14043_105117" fill="white">
<path d="M389.979 202.564C391.995 156.308 377.371 110.86 348.759 74.4585C320.146 38.0572 279.439 13.1117 234.015 4.14391C188.592 -4.82387 141.458 2.77957 101.159 25.576C60.859 48.3724 30.0607 84.853 14.3462 128.405L15.1858 128.708C30.8279 85.3568 61.4843 49.0443 101.598 26.353C141.712 3.66161 188.628 -3.90679 233.842 5.01966C279.057 13.9461 319.576 38.7766 348.057 75.0102C376.537 111.244 391.094 156.482 389.087 202.526L389.979 202.564Z"/>
</mask>
<path d="M389.979 202.564C391.995 156.308 377.371 110.86 348.759 74.4585C320.146 38.0572 279.439 13.1117 234.015 4.14391C188.592 -4.82387 141.458 2.77957 101.159 25.576C60.859 48.3724 30.0607 84.853 14.3462 128.405L15.1858 128.708C30.8279 85.3568 61.4843 49.0443 101.598 26.353C141.712 3.66161 188.628 -3.90679 233.842 5.01966C279.057 13.9461 319.576 38.7766 348.057 75.0102C376.537 111.244 391.094 156.482 389.087 202.526L389.979 202.564Z" stroke="url(#paint0_linear_14043_105117)" stroke-width="2.84788" stroke-dasharray="4.27 4.27" mask="url(#path-2-inside-1_14043_105117)"/>
</g>
<g opacity="0.5">
<mask id="path-3-inside-2_14043_105117" fill="white">
<path d="M14.6043 260.573C30.4892 304.063 61.4301 340.423 101.819 363.061C142.207 385.7 189.37 393.119 234.758 383.973C280.146 374.828 320.756 349.723 349.225 313.21C377.695 276.697 392.141 231.192 389.944 184.944L389.052 184.986C391.239 231.021 376.86 276.316 348.521 312.661C320.183 349.006 279.761 373.995 234.582 383.098C189.403 392.201 142.457 384.817 102.255 362.282C62.0527 339.748 31.2544 303.556 15.4428 260.266L14.6043 260.573Z"/>
</mask>
<path d="M14.6043 260.573C30.4892 304.063 61.4301 340.423 101.819 363.061C142.207 385.7 189.37 393.119 234.758 383.973C280.146 374.828 320.756 349.723 349.225 313.21C377.695 276.697 392.141 231.192 389.944 184.944L389.052 184.986C391.239 231.021 376.86 276.316 348.521 312.661C320.183 349.006 279.761 373.995 234.582 383.098C189.403 392.201 142.457 384.817 102.255 362.282C62.0527 339.748 31.2544 303.556 15.4428 260.266L14.6043 260.573Z" stroke="url(#paint1_linear_14043_105117)" stroke-width="2.84788" stroke-dasharray="4.27 4.27" mask="url(#path-3-inside-2_14043_105117)"/>
</g>
<circle opacity="0.08" cx="196.502" cy="194.133" r="170.873" fill="url(#paint2_linear_14043_105117)"/>
<circle opacity="0.1" cx="196.505" cy="194.132" r="136.698" fill="url(#paint3_linear_14043_105117)"/>
<circle cx="196.505" cy="194.134" r="91.1321" fill="white"/>
<g filter="url(#filter0_d_14043_105117)">
<circle cx="15.3224" cy="125.091" r="7.11969" transform="rotate(-2.50406 15.3224 125.091)" fill="#0170FF"/>
<circle cx="15.3224" cy="125.091" r="8.13822" transform="rotate(-2.50406 15.3224 125.091)" stroke="white" stroke-width="2.03704"/>
</g>
<g filter="url(#filter1_d_14043_105117)">
<circle cx="389.993" cy="182.517" r="7.11969" transform="rotate(-15.7345 389.993 182.517)" fill="#0170FF"/>
<circle cx="389.993" cy="182.517" r="8.13822" transform="rotate(-15.7345 389.993 182.517)" stroke="white" stroke-width="2.03704"/>
</g>
</g>
<path d="M198.724 134.064C198.724 134.064 216.14 150.916 225.177 145.271C234.213 139.627 248.901 131.679 258.688 144.73C268.474 157.782 273.855 167.37 284.832 164.033C295.81 160.695 318.72 190.342 291.678 207.758C247.354 236.302 188.441 158.022 188.441 158.022L195.082 147.938L198.724 134.064Z" fill="#382256"/>
<path d="M198.724 134.064C198.724 134.064 211.502 146.428 220.847 146.428C222.371 146.462 223.873 146.061 225.177 145.271C230.605 141.879 238.075 137.655 245.297 137.655C250.089 137.655 254.782 139.521 258.688 144.73C267.142 156.006 272.315 164.7 280.646 164.7C282.068 164.68 283.478 164.449 284.832 164.015C285.422 163.84 286.034 163.752 286.65 163.755C298.076 163.755 317.306 191.238 291.675 207.74C285.349 211.868 277.951 214.047 270.398 214.004C230.578 214.004 188.438 158.005 188.438 158.005L195.082 147.938L198.724 134.058V134.064ZM198.176 132.1L197.731 133.811L194.134 147.527L187.582 157.454L187.182 158.059L187.62 158.638C195.534 168.743 204.291 178.158 213.799 186.782C222.863 194.962 231.78 201.5 240.299 206.169C251.013 212.057 261.142 215.045 270.398 215.045C278.147 215.079 285.738 212.844 292.233 208.617C298.158 204.8 302.159 200.159 304.083 194.826C305.73 190.287 305.825 185.269 304.367 180.309C302.966 175.617 300.404 171.354 296.919 167.914C293.557 164.628 289.816 162.742 286.65 162.742C285.934 162.739 285.221 162.841 284.535 163.047C283.281 163.451 281.974 163.666 280.656 163.683C273.903 163.683 269.165 157.228 262.603 148.28C261.618 146.935 260.598 145.542 259.523 144.107C255.799 139.141 251.017 136.621 245.311 136.621C238.061 136.621 230.797 140.551 224.646 144.392C223.505 145.078 222.192 145.426 220.86 145.394C212.043 145.394 199.576 133.441 199.453 133.318L198.19 132.1H198.176Z" fill="#1D1E1B"/>
<path d="M279.801 212.909C237.527 223.243 195.424 156.495 195.424 156.495L189.023 144.881L195.185 133C195.185 133 214.336 145.908 220.152 146.596C216.452 153.965 215.932 162.865 230.794 167.069C252.975 173.343 272.719 201.678 279.801 212.909Z" fill="#050505"/>
<path d="M198.889 170.105C198.889 170.105 245.709 163.943 279.202 219.053C312.696 274.163 299.46 288.539 279.979 289.909C260.499 291.278 259.722 290.936 259.722 290.936L99.0958 290.593L88.625 260.553L99.7804 237.195C99.7804 237.195 109.348 237.195 118.918 246.437C118.918 246.437 126.449 181.4 178.04 172.158L198.889 170.105Z" fill="#07ACEE"/>
<path d="M203.213 169.899C215.556 169.899 251.819 174.007 279.203 219.053C312.693 274.163 299.46 288.539 279.98 289.909C266.993 290.823 262.321 290.973 260.644 290.973C260.336 290.992 260.028 290.98 259.723 290.936L99.0964 290.593L88.6256 260.553L99.781 237.195C99.781 237.195 109.348 237.195 118.919 246.437C118.919 246.437 126.45 181.4 178.041 172.158L198.89 170.105C200.326 169.952 201.769 169.883 203.213 169.899ZM203.213 168.872C201.727 168.857 200.241 168.928 198.763 169.085L177.931 171.138H177.89H177.852C166.032 173.202 155.074 178.675 146.323 186.884C139.186 193.518 133.083 202.065 128.182 212.293C121.544 226.166 118.939 239.464 118.162 244.339C108.92 236.24 100.147 236.141 99.7605 236.141H99.1101L98.8329 236.726L87.6774 260.084L87.4961 260.464L87.6363 260.865L98.1073 290.905L98.3468 291.589H99.0725L259.61 291.932C259.951 291.964 260.294 291.977 260.637 291.969C262.215 291.969 266.833 291.832 280.045 290.901C289.236 290.258 295.449 286.907 298.529 280.951C301.336 275.525 301.453 267.943 298.872 258.359C295.986 247.683 289.657 234.265 280.045 218.475C268.174 198.94 253.346 184.858 235.978 176.615C221.701 169.841 209.299 168.828 203.179 168.828L203.213 168.872Z" fill="black"/>
<path d="M272.693 255.042C272.693 255.042 249.81 233.943 207.434 239.077C165.057 244.212 160.953 230.52 144.55 258.931C128.147 287.341 175.651 258.931 175.651 258.931L272.693 255.042Z" fill="#0598C6"/>
<path d="M278.519 258.589C278.519 258.589 244.686 234.628 205.383 244.554L195.114 244.212L190.322 272.28L197.511 278.1C197.511 278.1 204.014 288.368 223.826 291.107" fill="#07ACEE"/>
<path d="M223.834 291.62H223.762C204.593 288.971 197.802 279.465 197.131 278.452L190.015 272.684C189.945 272.627 189.891 272.551 189.859 272.466C189.827 272.38 189.818 272.288 189.833 272.198L194.626 244.13C194.646 244.007 194.711 243.896 194.807 243.818C194.903 243.739 195.025 243.698 195.149 243.702L205.329 244.044C225.727 238.91 244.608 243.017 256.862 247.368C270.147 252.088 278.732 258.113 278.817 258.174C278.928 258.253 279.004 258.373 279.026 258.508C279.049 258.642 279.018 258.78 278.939 258.892C278.86 259.003 278.74 259.078 278.605 259.101C278.471 259.124 278.333 259.092 278.222 259.013C278.139 258.951 269.647 252.995 256.489 248.327C244.361 244.024 225.682 239.964 205.511 245.058C205.463 245.065 205.415 245.065 205.367 245.058L195.56 244.715L190.901 272.048L197.847 277.679C197.891 277.712 197.928 277.754 197.956 277.802C198.021 277.901 204.59 287.906 223.909 290.576C224.045 290.585 224.172 290.648 224.262 290.751C224.352 290.854 224.398 290.988 224.388 291.124C224.379 291.26 224.317 291.387 224.214 291.477C224.111 291.567 223.977 291.612 223.841 291.603L223.834 291.62Z" fill="black"/>
<path d="M195.132 244.212C195.132 244.212 171.815 242.733 156.172 245.581C129.856 250.373 119.262 285.972 119.262 285.972H154.121C154.121 285.972 164.715 280.153 168.816 267.488L190.347 272.28L195.132 244.212Z" fill="#FFCDB2"/>
<path d="M154.252 286.486H118.574L118.769 285.825C120.899 279.328 123.8 273.109 127.412 267.304C132.889 258.548 142.302 247.587 156.08 245.078C171.606 242.251 194.931 243.685 195.163 243.709L195.731 243.747L190.761 272.91L169.155 268.084C164.938 280.492 154.474 286.359 154.368 286.417L154.252 286.486ZM119.964 285.459H153.985C155.114 284.795 164.562 278.955 168.327 267.317L168.471 266.872L189.93 271.647L194.53 244.678C190.861 244.479 170.316 243.514 156.261 246.074C142.86 248.515 133.67 259.242 128.295 267.814C124.859 273.361 122.064 279.281 119.964 285.459Z" fill="#1D1D1B"/>
<path d="M205.384 245.239C205.384 245.239 211.203 263.381 197.854 277.757L191.008 271.938L195.8 244.897L205.384 245.239Z" fill="#0598C6"/>
<path d="M215.82 171.128C215.82 171.128 212.219 187.733 194.105 179.176C194.105 179.176 180.434 188.418 178.041 172.33C178.041 172.33 192.767 166.843 215.82 171.128Z" fill="white"/>
<path d="M186.208 182.335C185.103 182.348 184.008 182.13 182.993 181.695C180.098 180.422 178.263 177.296 177.534 172.405C177.518 172.287 177.543 172.168 177.606 172.066C177.668 171.965 177.764 171.889 177.876 171.85C178.027 171.792 192.999 166.374 215.926 170.622C215.995 170.634 216.061 170.66 216.119 170.698C216.178 170.737 216.229 170.786 216.268 170.844C216.344 170.959 216.371 171.099 216.344 171.234C216.282 171.515 214.796 178.08 209.073 180.904C205.075 182.876 200.06 182.492 194.166 179.761C193.197 180.357 189.774 182.335 186.208 182.335ZM178.615 172.679C179.327 176.951 180.936 179.669 183.408 180.757C187.858 182.715 193.759 178.792 193.817 178.751C193.891 178.701 193.976 178.671 194.065 178.664C194.154 178.658 194.243 178.675 194.324 178.714C200.03 181.407 204.832 181.839 208.591 179.987C212.982 177.827 214.714 173.096 215.18 171.532C194.902 167.88 181.083 171.874 178.615 172.679Z" fill="#1D1D1B"/>
<path d="M227.688 197.03C229.223 197.03 230.467 195.782 230.467 194.244C230.467 192.705 229.223 191.457 227.688 191.457C226.152 191.457 224.908 192.705 224.908 194.244C224.908 195.782 226.152 197.03 227.688 197.03Z" fill="#51CEF4"/>
<path d="M200.688 227.494C202.223 227.494 203.467 226.247 203.467 224.708C203.467 223.169 202.223 221.922 200.688 221.922C199.153 221.922 197.908 223.169 197.908 224.708C197.908 226.247 199.153 227.494 200.688 227.494Z" fill="#51CEF4"/>
<path d="M166.512 209.353C168.047 209.353 169.291 208.105 169.291 206.566C169.291 205.028 168.047 203.78 166.512 203.78C164.977 203.78 163.732 205.028 163.732 206.566C163.732 208.105 164.977 209.353 166.512 209.353Z" fill="#51CEF4"/>
<path d="M255.711 236.394C257.246 236.394 258.491 235.147 258.491 233.608C258.491 232.069 257.246 230.822 255.711 230.822C254.176 230.822 252.932 232.069 252.932 233.608C252.932 235.147 254.176 236.394 255.711 236.394Z" fill="#51CEF4"/>
<path d="M239.99 256.247C241.525 256.247 242.77 255 242.77 253.461C242.77 251.922 241.525 250.675 239.99 250.675C238.455 250.675 237.211 251.922 237.211 253.461C237.211 255 238.455 256.247 239.99 256.247Z" fill="#51CEF4"/>
<path d="M241.36 288.765C242.895 288.765 244.139 287.518 244.139 285.979C244.139 284.44 242.895 283.193 241.36 283.193C239.825 283.193 238.58 284.44 238.58 285.979C238.58 287.518 239.825 288.765 241.36 288.765Z" fill="#51CEF4"/>
<path d="M263.912 275.416C265.447 275.416 266.692 274.168 266.692 272.63C266.692 271.091 265.447 269.843 263.912 269.843C262.377 269.843 261.133 271.091 261.133 272.63C261.133 274.168 262.377 275.416 263.912 275.416Z" fill="#51CEF4"/>
<path d="M196.66 109.658C202.67 105.722 204.346 97.6523 200.404 91.6331C196.463 85.6139 188.395 83.9248 182.385 87.8605C176.376 91.7961 174.699 99.8661 178.641 105.885C182.583 111.905 190.65 113.594 196.66 109.658Z" fill="#382256"/>
<path d="M188.323 85.8961C191.441 85.6025 194.56 86.4433 197.107 88.2641C199.654 90.085 201.459 92.7637 202.191 95.8083C202.922 98.8529 202.53 102.059 201.088 104.838C199.645 107.618 197.249 109.783 194.338 110.937C191.427 112.092 188.198 112.157 185.243 111.122C182.288 110.087 179.805 108.02 178.251 105.302C176.697 102.584 176.175 99.3958 176.783 96.324C177.39 93.2522 179.085 90.5024 181.556 88.5797C183.51 87.0593 185.858 86.1283 188.323 85.8961ZM188.234 84.9754C185.147 85.264 182.243 86.5719 179.981 88.6929C177.719 90.814 176.228 93.6275 175.741 96.69C175.255 99.7525 175.802 102.89 177.295 105.607C178.789 108.325 181.144 110.468 183.99 111.699C186.836 112.93 190.011 113.178 193.014 112.406C196.017 111.633 198.678 109.883 200.576 107.431C202.475 104.979 203.503 101.966 203.5 98.8647C203.496 95.7638 202.461 92.7524 200.557 90.3049C199.123 88.4453 197.24 86.9807 195.084 86.0484C192.929 85.1162 190.572 84.747 188.234 84.9754Z" fill="black"/>
<path d="M161.748 145.589C161.748 145.589 151.349 139.62 153.55 130.902C155.751 122.183 157.969 122.457 158.828 117.785C159.687 113.112 166.598 107.232 174.105 107.892C174.105 107.892 181.601 99.5539 189.974 100.04C198.347 100.526 201.876 103.781 205.377 109.563C208.879 115.344 211.682 117.665 214.277 121.646C216.872 125.627 221.886 137.258 206.747 149.54C191.607 161.821 161.748 145.589 161.748 145.589Z" fill="#382256"/>
<path d="M191.798 154.626C187.769 154.626 183.295 153.976 178.431 152.665C172.575 151.048 166.903 148.828 161.504 146.041C161.395 145.98 150.791 139.774 153.063 130.782C154.306 125.87 155.555 123.758 156.565 122.056C157.349 120.735 157.968 119.688 158.335 117.699C159.276 112.565 166.605 106.869 173.906 107.368C175.114 106.085 182.1 99.0746 190.011 99.5332C198.592 100.033 202.306 103.494 205.825 109.302C207.433 111.934 209.244 114.434 211.244 116.782C212.486 118.246 213.646 119.779 214.718 121.372C216.957 124.795 223.029 137.008 207.075 149.943C203.217 153.072 198.048 154.626 191.798 154.626ZM162.001 145.141C162.548 145.435 191.781 161.01 206.417 149.139C221.704 136.744 215.967 125.178 213.849 121.926C212.792 120.363 211.649 118.861 210.426 117.425C208.4 115.038 206.561 112.499 204.925 109.83C201.502 104.178 198.103 101.029 189.932 100.553C181.909 100.084 174.549 108.152 174.478 108.234L174.306 108.426L174.05 108.402C166.639 107.752 160.108 113.609 159.331 117.877C158.93 120.047 158.236 121.218 157.435 122.573C156.459 124.216 155.251 126.26 154.046 131.025C151.982 139.202 161.737 144.987 162.001 145.141Z" fill="#1D1E1B"/>
<path d="M189.292 160.887L185.667 170.7C185.667 170.7 195.252 179.942 211.682 170.358C211.682 170.358 206.53 154.694 200.67 140.746C200.67 140.746 206.859 138.428 205.021 132.873C203.183 127.317 198.442 126.985 195.953 128.923C195.953 128.923 186.417 137.85 172.386 117.254C172.386 117.254 161.775 123.515 161.131 135.522C160.488 147.53 164.756 160.719 174.272 163.317C183.788 165.915 189.292 160.887 189.292 160.887Z" fill="#FFCDB2"/>
<path d="M197.315 175.212C195.656 175.216 194.002 175.019 192.39 174.623C187.858 173.49 185.414 171.169 185.311 171.07L185.068 170.837L188.231 162.28C185.986 163.649 181.125 165.703 174.135 163.799C169.555 162.55 165.852 158.86 163.418 153.137C161.272 148.085 160.279 141.814 160.618 135.481C161.268 123.337 172.016 116.86 172.126 116.795L172.54 116.552L172.81 116.949C179.81 127.218 185.582 129.861 189.193 130.258C193.232 130.706 195.58 128.546 195.604 128.546L195.638 128.516C196.373 127.959 197.229 127.584 198.136 127.421C199.043 127.259 199.976 127.314 200.858 127.581C202.977 128.225 204.624 130.046 205.507 132.716C207.157 137.71 202.833 140.301 201.337 141.03C207.061 154.722 212.12 170.064 212.168 170.218L212.298 170.611L211.956 170.823C206.147 174.181 201.197 175.212 197.315 175.212ZM186.273 170.546C188.163 172.03 190.355 173.081 192.694 173.627C196.597 174.589 202.929 174.743 211.062 170.108C210.22 167.585 205.469 153.476 200.198 140.931L199.992 140.438L200.489 140.249C200.725 140.16 206.191 138.035 204.531 133.003C203.545 130.008 201.827 128.919 200.56 128.536C199.839 128.316 199.076 128.269 198.333 128.399C197.59 128.529 196.889 128.833 196.285 129.286C196.015 129.529 193.427 131.743 189.08 131.264C183.603 130.658 177.945 126.171 172.246 117.915C170.325 119.202 162.192 125.25 161.634 135.512C161.008 147.15 165.191 160.27 174.395 162.786C183.504 165.275 188.885 160.534 188.94 160.486L190.487 159.086L186.273 170.546Z" fill="black"/>
<path d="M188.476 161.951C188.524 161.938 188.569 161.917 188.61 161.89C193.203 158.788 195.38 152.435 195.456 152.165C195.494 152.049 195.485 151.922 195.43 151.813C195.376 151.703 195.28 151.619 195.165 151.58C195.107 151.56 195.047 151.551 194.986 151.555C194.926 151.559 194.867 151.574 194.812 151.601C194.758 151.628 194.709 151.665 194.669 151.711C194.629 151.757 194.599 151.81 194.579 151.867C194.555 151.932 192.406 158.2 188.076 161.109C187.984 161.17 187.918 161.262 187.888 161.368C187.859 161.474 187.868 161.587 187.914 161.687C187.96 161.787 188.04 161.867 188.14 161.913C188.24 161.959 188.353 161.967 188.459 161.937L188.476 161.951Z" fill="black"/>
<path d="M200.26 138.055C200.343 138.048 200.422 138.018 200.49 137.968C200.558 137.919 200.61 137.852 200.643 137.775C201.605 135.475 201.653 133.667 200.78 132.445C199.524 130.665 196.871 130.792 196.761 130.799C196.7 130.801 196.641 130.816 196.586 130.842C196.53 130.868 196.481 130.905 196.44 130.95C196.399 130.995 196.368 131.048 196.348 131.106C196.328 131.163 196.319 131.224 196.323 131.285C196.33 131.408 196.386 131.523 196.477 131.605C196.569 131.687 196.69 131.73 196.813 131.723C196.84 131.723 199.072 131.624 200.027 132.983C200.711 133.941 200.622 135.434 199.791 137.433C199.767 137.489 199.755 137.549 199.755 137.61C199.754 137.671 199.766 137.731 199.79 137.787C199.813 137.844 199.847 137.895 199.89 137.938C199.933 137.981 199.984 138.015 200.041 138.038C200.111 138.062 200.186 138.068 200.26 138.055Z" fill="black"/>
<path d="M175.374 135.355C182.076 135.238 190.034 130.446 192.04 132.384C194.046 134.321 193.638 137.645 190.352 139.202C187.066 140.76 183.613 141.448 176.452 142.519C169.291 143.59 162.205 144.107 162.13 140.161C162.055 136.214 165.515 135.526 175.374 135.355Z" fill="#FFB49F"/>
<path d="M204.387 141.833C205.371 141.189 205.645 139.868 205 138.883C204.355 137.897 203.034 137.621 202.051 138.265C201.067 138.909 200.793 140.23 201.438 141.215C202.083 142.201 203.404 142.477 204.387 141.833Z" fill="#07ACEE"/>
<path d="M203.049 138.031C203.559 137.983 204.07 138.121 204.487 138.419C204.904 138.717 205.199 139.155 205.319 139.654C205.439 140.152 205.375 140.677 205.139 141.132C204.902 141.587 204.51 141.941 204.033 142.13C203.557 142.319 203.028 142.33 202.544 142.16C202.061 141.99 201.654 141.652 201.4 141.207C201.146 140.762 201.061 140.24 201.161 139.737C201.26 139.234 201.538 138.784 201.943 138.469C202.262 138.221 202.646 138.069 203.049 138.031ZM202.963 137.111C202.286 137.173 201.65 137.46 201.154 137.924C200.658 138.389 200.331 139.005 200.224 139.676C200.117 140.347 200.236 141.035 200.563 141.631C200.891 142.226 201.407 142.696 202.03 142.966C202.654 143.236 203.35 143.291 204.008 143.121C204.666 142.952 205.249 142.568 205.665 142.031C206.081 141.494 206.307 140.833 206.306 140.154C206.305 139.474 206.078 138.814 205.66 138.278C205.347 137.871 204.934 137.55 204.463 137.346C203.991 137.141 203.475 137.061 202.963 137.111Z" fill="black"/>
<path d="M173.174 147.972H173.123C172.988 147.957 172.865 147.89 172.779 147.785C172.693 147.68 172.652 147.545 172.664 147.41L173.719 136.772C173.725 136.704 173.745 136.639 173.777 136.579C173.809 136.519 173.852 136.466 173.904 136.423C173.956 136.38 174.017 136.348 174.081 136.328C174.146 136.308 174.214 136.302 174.282 136.308C174.349 136.315 174.415 136.334 174.474 136.366C174.534 136.398 174.587 136.441 174.63 136.494C174.673 136.546 174.706 136.606 174.725 136.671C174.745 136.736 174.752 136.804 174.745 136.871L173.691 147.51C173.679 147.638 173.619 147.756 173.523 147.842C173.428 147.928 173.303 147.974 173.174 147.972Z" fill="#1D1D1B"/>
<path d="M163.39 133.506C163.297 133.508 163.206 133.483 163.127 133.434C163.01 133.364 162.926 133.251 162.893 133.118C162.859 132.986 162.879 132.847 162.949 132.729C163.089 132.497 166.416 127.027 170.277 129.135C170.339 129.166 170.393 129.209 170.438 129.262C170.482 129.315 170.515 129.376 170.536 129.441C170.556 129.507 170.563 129.576 170.556 129.645C170.55 129.713 170.529 129.78 170.496 129.84C170.463 129.9 170.418 129.953 170.364 129.996C170.31 130.039 170.248 130.07 170.182 130.088C170.115 130.107 170.046 130.111 169.978 130.102C169.909 130.093 169.844 130.07 169.784 130.035C166.789 128.399 163.859 133.209 163.832 133.256C163.786 133.333 163.722 133.396 163.644 133.44C163.567 133.484 163.479 133.506 163.39 133.506Z" fill="black"/>
<path d="M182.964 130.85C182.856 130.851 182.75 130.817 182.663 130.754C178.524 127.739 176.501 130.385 176.419 130.498C176.336 130.599 176.218 130.665 176.088 130.682C175.959 130.699 175.827 130.666 175.721 130.59C175.615 130.513 175.542 130.399 175.517 130.271C175.492 130.142 175.517 130.009 175.587 129.899C176.258 129.064 177.216 128.509 178.274 128.345C179.811 128.098 181.489 128.629 183.265 129.923C183.352 129.986 183.417 130.076 183.45 130.179C183.483 130.282 183.483 130.393 183.45 130.495C183.417 130.598 183.352 130.688 183.264 130.751C183.177 130.815 183.072 130.85 182.964 130.85Z" fill="black"/>
<path d="M187.491 107.084C187.537 107.084 187.58 107.066 187.612 107.034C187.645 107.002 187.663 106.959 187.663 106.913C187.663 106.868 187.645 106.824 187.612 106.792C187.58 106.76 187.537 106.742 187.491 106.742C187.446 106.742 187.403 106.76 187.37 106.792C187.338 106.824 187.32 106.868 187.32 106.913C187.32 106.959 187.338 107.002 187.37 107.034C187.403 107.066 187.446 107.084 187.491 107.084Z" fill="black"/>
<path d="M193.564 104.61C193.609 104.61 193.653 104.592 193.685 104.559C193.717 104.527 193.735 104.484 193.735 104.438C193.735 104.393 193.717 104.35 193.685 104.317C193.653 104.285 193.609 104.267 193.564 104.267C193.518 104.267 193.475 104.285 193.443 104.317C193.411 104.35 193.393 104.393 193.393 104.438C193.393 104.484 193.411 104.527 193.443 104.559C193.475 104.592 193.518 104.61 193.564 104.61Z" fill="black"/>
<path d="M165.471 148.28C164.015 148.28 162.592 147.848 161.382 147.04C160.172 146.231 159.229 145.081 158.672 143.737C158.115 142.392 157.969 140.912 158.253 139.485C158.537 138.057 159.238 136.746 160.267 135.717C161.296 134.687 162.607 133.986 164.035 133.702C165.463 133.418 166.942 133.564 168.287 134.121C169.632 134.678 170.781 135.622 171.59 136.832C172.398 138.042 172.83 139.465 172.83 140.92C172.828 142.872 172.052 144.743 170.673 146.122C169.293 147.502 167.422 148.278 165.471 148.28ZM165.471 134.588C164.218 134.588 162.994 134.959 161.953 135.655C160.911 136.351 160.1 137.34 159.62 138.497C159.141 139.654 159.016 140.927 159.26 142.156C159.504 143.384 160.107 144.513 160.993 145.398C161.879 146.284 163.007 146.887 164.235 147.131C165.464 147.376 166.737 147.25 167.894 146.771C169.051 146.292 170.04 145.48 170.736 144.439C171.432 143.397 171.803 142.173 171.803 140.92C171.801 139.242 171.134 137.632 169.946 136.445C168.759 135.257 167.15 134.59 165.471 134.588Z" fill="black"/>
<path d="M182.244 147.595C180.789 147.595 179.366 147.164 178.155 146.355C176.945 145.546 176.002 144.397 175.445 143.052C174.888 141.707 174.742 140.228 175.026 138.8C175.31 137.373 176.011 136.061 177.04 135.032C178.07 134.003 179.381 133.302 180.808 133.018C182.236 132.734 183.716 132.88 185.06 133.437C186.405 133.994 187.555 134.937 188.363 136.147C189.172 137.357 189.604 138.78 189.604 140.236C189.602 142.187 188.826 144.058 187.446 145.438C186.066 146.817 184.195 147.593 182.244 147.595ZM182.244 133.903C180.992 133.903 179.767 134.275 178.726 134.971C177.685 135.666 176.873 136.655 176.394 137.813C175.914 138.97 175.789 140.243 176.033 141.471C176.278 142.7 176.881 143.828 177.766 144.714C178.652 145.599 179.78 146.202 181.009 146.447C182.237 146.691 183.51 146.566 184.667 146.086C185.825 145.607 186.814 144.795 187.509 143.754C188.205 142.713 188.577 141.488 188.577 140.236C188.575 138.557 187.907 136.947 186.72 135.76C185.533 134.573 183.923 133.905 182.244 133.903Z" fill="black"/>
<path d="M175.433 139.038H172.318C172.182 139.038 172.051 138.984 171.955 138.887C171.859 138.791 171.805 138.661 171.805 138.524C171.805 138.388 171.859 138.258 171.955 138.161C172.051 138.065 172.182 138.011 172.318 138.011H175.433C175.569 138.011 175.7 138.065 175.796 138.161C175.892 138.258 175.947 138.388 175.947 138.524C175.947 138.661 175.892 138.791 175.796 138.887C175.7 138.984 175.569 139.038 175.433 139.038Z" fill="black"/>
<path d="M179.678 141.776C180.434 141.776 181.047 141.163 181.047 140.407C181.047 139.651 180.434 139.038 179.678 139.038C178.922 139.038 178.309 139.651 178.309 140.407C178.309 141.163 178.922 141.776 179.678 141.776Z" fill="black"/>
<path d="M167.354 142.803C168.11 142.803 168.723 142.19 168.723 141.434C168.723 140.678 168.11 140.065 167.354 140.065C166.597 140.065 165.984 140.678 165.984 141.434C165.984 142.19 166.597 142.803 167.354 142.803Z" fill="black"/>
<path d="M178.898 155.708C178.554 155.71 178.21 155.684 177.871 155.632C177.803 155.62 177.739 155.595 177.681 155.558C177.624 155.521 177.574 155.473 177.535 155.417C177.495 155.36 177.468 155.297 177.453 155.23C177.439 155.163 177.438 155.094 177.45 155.026C177.462 154.959 177.487 154.895 177.524 154.837C177.561 154.779 177.609 154.73 177.665 154.69C177.722 154.651 177.785 154.624 177.852 154.609C177.919 154.595 177.988 154.593 178.055 154.605C178.196 154.633 181.52 155.184 183.354 152.432C183.43 152.318 183.547 152.24 183.68 152.213C183.814 152.186 183.953 152.213 184.066 152.288C184.18 152.363 184.259 152.481 184.286 152.614C184.313 152.748 184.285 152.887 184.21 153C182.663 155.341 180.257 155.708 178.898 155.708Z" fill="black"/>
<path d="M195.061 128.704L187.742 136.349L188.484 137.059L195.803 129.414L195.061 128.704Z" fill="black"/>
<path d="M198.938 95.1381C198.773 95.1382 198.611 95.0904 198.472 95.0005C198.332 94.9106 198.222 94.7825 198.154 94.6315C198.154 94.587 196.166 90.3049 191.921 89.0658C188.902 88.1861 185.417 89.0144 181.584 91.5269C181.394 91.6437 181.166 91.6819 180.949 91.6335C180.731 91.585 180.542 91.4537 180.419 91.2673C180.297 91.081 180.253 90.8544 180.295 90.6357C180.337 90.417 180.463 90.2234 180.646 90.0961C184.931 87.2893 188.895 86.3924 192.418 87.4296C197.425 88.9015 199.626 93.7278 199.719 93.9332C199.764 94.0359 199.789 94.1467 199.792 94.259C199.795 94.3714 199.776 94.4832 199.735 94.5881C199.695 94.693 199.634 94.7889 199.557 94.8703C199.479 94.9518 199.387 95.0172 199.284 95.0628C199.175 95.1121 199.057 95.1378 198.938 95.1381Z" fill="white"/>
<path d="M190.288 128.916C181.594 128.916 174.857 117.278 174.542 116.727C174.486 116.629 174.45 116.521 174.436 116.41C174.422 116.298 174.43 116.185 174.46 116.076C174.49 115.967 174.541 115.866 174.61 115.777C174.679 115.688 174.765 115.614 174.862 115.558C174.96 115.502 175.068 115.466 175.18 115.452C175.291 115.438 175.404 115.446 175.513 115.476C175.621 115.505 175.723 115.556 175.812 115.625C175.901 115.694 175.975 115.78 176.031 115.878C176.11 116.015 183.945 129.57 192.691 126.831C192.905 126.772 193.134 126.798 193.329 126.905C193.524 127.011 193.67 127.189 193.736 127.401C193.802 127.613 193.783 127.842 193.683 128.041C193.584 128.239 193.41 128.391 193.201 128.464C192.258 128.761 191.276 128.913 190.288 128.916Z" fill="white"/>
<path d="M291.95 255.761C291.73 255.761 291.516 255.691 291.339 255.56C291.162 255.429 291.032 255.245 290.967 255.035C282.574 227.843 263.313 206.347 263.122 206.131C262.968 205.926 262.896 205.671 262.921 205.416C262.946 205.16 263.065 204.923 263.255 204.752C263.446 204.58 263.694 204.486 263.95 204.488C264.207 204.49 264.454 204.588 264.642 204.762C264.84 204.978 284.406 226.813 292.932 254.44C292.978 254.593 292.988 254.755 292.96 254.912C292.932 255.07 292.868 255.218 292.773 255.347C292.677 255.475 292.553 255.579 292.41 255.651C292.267 255.723 292.11 255.761 291.95 255.761Z" fill="white"/>
<path d="M267.99 259.184C267.819 259.183 267.651 259.141 267.501 259.061C238.566 243.428 221.955 249.134 221.79 249.196C221.534 249.289 221.252 249.277 221.005 249.162C220.757 249.047 220.566 248.839 220.473 248.583C220.379 248.327 220.391 248.044 220.506 247.797C220.621 247.55 220.829 247.359 221.085 247.265C221.787 247.008 238.635 241.131 268.48 257.253C268.681 257.362 268.84 257.535 268.932 257.744C269.024 257.954 269.044 258.188 268.987 258.409C268.931 258.631 268.802 258.828 268.622 258.968C268.441 259.108 268.219 259.184 267.99 259.184Z" fill="white"/>
<path d="M201.169 85.2973C201.222 85.2937 201.273 85.2798 201.32 85.2562C201.431 85.2049 201.517 85.1115 201.56 84.9966C201.602 84.8817 201.597 84.7547 201.546 84.6435C200.211 81.7682 198.263 79.8514 195.758 78.9409C191.345 77.3458 186.827 79.444 186.639 79.533C186.584 79.5591 186.535 79.5957 186.494 79.6408C186.453 79.6858 186.422 79.7385 186.402 79.7957C186.381 79.8529 186.372 79.9136 186.376 79.9742C186.379 80.0349 186.394 80.0943 186.42 80.1491C186.473 80.2593 186.568 80.3442 186.683 80.3858C186.798 80.4274 186.925 80.4223 187.036 80.3716C187.077 80.3511 191.407 78.3452 195.45 79.8137C197.712 80.6352 199.482 82.3912 200.707 85.0303C200.747 85.1171 200.813 85.1894 200.896 85.2373C200.979 85.2851 201.074 85.3061 201.169 85.2973Z" fill="black"/>
<path d="M278.44 175.924C278.304 175.942 278.166 175.904 278.057 175.821C277.949 175.737 277.877 175.613 277.86 175.477C277.842 175.341 277.879 175.203 277.963 175.095C278.047 174.986 278.17 174.915 278.307 174.897C298.995 169.287 311.191 155.561 317.777 145.031C324.931 133.599 327.207 123.357 327.231 123.255C327.263 123.124 327.344 123.012 327.458 122.941C327.572 122.87 327.709 122.846 327.839 122.875C327.97 122.903 328.085 122.982 328.159 123.094C328.232 123.206 328.259 123.342 328.234 123.474C328.21 123.576 325.906 133.965 318.667 145.545C311.982 156.242 299.601 170.19 278.573 175.89C278.53 175.906 278.486 175.918 278.44 175.924Z" fill="black"/>
<path d="M307.696 175.9C307.56 175.916 307.423 175.878 307.315 175.793C307.207 175.708 307.137 175.584 307.121 175.448C307.105 175.312 307.143 175.175 307.228 175.067C307.312 174.959 307.437 174.889 307.573 174.873C323.753 170.844 332.304 153.103 332.389 152.925C332.451 152.808 332.555 152.719 332.681 152.677C332.806 152.635 332.943 152.644 333.063 152.7C333.182 152.757 333.275 152.857 333.323 152.98C333.37 153.104 333.368 153.241 333.317 153.363C333.231 153.548 324.469 171.727 307.819 175.869C307.78 175.884 307.738 175.895 307.696 175.9Z" fill="black"/>
<path d="M304.112 280.324C304.049 280.325 303.987 280.313 303.928 280.29C303.865 280.266 303.807 280.23 303.758 280.183C303.709 280.137 303.67 280.081 303.643 280.019C303.616 279.957 303.601 279.891 303.599 279.824C303.597 279.756 303.609 279.689 303.633 279.626C311.321 259.578 299.026 241.604 298.899 241.426C298.821 241.314 298.791 241.176 298.815 241.042C298.838 240.908 298.914 240.788 299.026 240.71C299.138 240.632 299.276 240.602 299.41 240.626C299.544 240.649 299.663 240.725 299.741 240.837C299.875 241.025 302.979 245.52 305.16 252.619C307.176 259.177 308.713 269.251 304.592 280.003C304.553 280.098 304.487 280.18 304.402 280.237C304.316 280.295 304.215 280.325 304.112 280.324Z" fill="black"/>
<path d="M130.359 199.282L129.387 198.94C135.206 181.825 159.752 169.386 160.793 168.866L161.251 169.783C161.001 169.917 136.041 182.561 130.359 199.282Z" fill="black"/>
<path d="M64.6895 130.087L64.71 144.121C64.7098 144.772 64.8935 145.411 65.2398 145.962C65.5862 146.514 66.0813 146.956 66.668 147.239C71.9497 149.793 87.1032 155.537 101.925 146.291C102.419 145.979 102.827 145.547 103.108 145.034C103.389 144.522 103.536 143.946 103.533 143.361V125.62" fill="white"/>
<path d="M84.1933 151.895C76.3684 151.895 69.817 149.341 66.4453 147.708C65.7733 147.38 65.2064 146.871 64.8089 146.238C64.4114 145.604 64.1992 144.872 64.1963 144.124L64.1758 130.09H65.2027L65.2232 144.124C65.2209 144.68 65.3764 145.224 65.6715 145.694C65.9666 146.165 66.3893 146.541 66.8903 146.781C72.5313 149.519 87.2056 154.869 101.654 145.86C102.074 145.593 102.42 145.224 102.659 144.788C102.898 144.352 103.024 143.862 103.023 143.365V125.62H104.05V143.365C104.05 144.036 103.881 144.697 103.558 145.286C103.235 145.874 102.768 146.372 102.202 146.733C96.811 150.129 90.5645 151.919 84.1933 151.895Z" fill="#1D1E1B"/>
<path d="M53.5707 125.346L80.2699 109.364C80.6272 109.152 81.045 109.064 81.4577 109.114L114.945 113.324C115.315 113.371 115.662 113.527 115.942 113.773C116.222 114.019 116.421 114.344 116.514 114.705C116.607 115.066 116.59 115.447 116.463 115.797C116.337 116.148 116.109 116.453 115.807 116.672L93.6332 132.798C93.2571 133.072 92.7913 133.194 92.329 133.14L54.334 128.789C53.9471 128.747 53.5831 128.585 53.2932 128.325C53.0033 128.065 52.8022 127.721 52.7179 127.341C52.6337 126.961 52.6708 126.564 52.8237 126.207C52.9767 125.849 53.2378 125.548 53.5707 125.346Z" fill="#07ACEE"/>
<path d="M92.5348 133.677C92.4447 133.683 92.3544 133.683 92.2644 133.677L54.2694 129.327C53.7768 129.27 53.3145 129.061 52.9471 128.728C52.5798 128.395 52.326 127.955 52.2214 127.471C52.1168 126.986 52.1665 126.481 52.3638 126.026C52.5611 125.571 52.8959 125.19 53.3212 124.935L80.0204 108.953C80.4762 108.681 81.0097 108.568 81.5368 108.632L115.024 112.842C115.496 112.901 115.938 113.101 116.295 113.415C116.652 113.73 116.906 114.144 117.025 114.604C117.143 115.065 117.12 115.55 116.959 115.998C116.799 116.445 116.507 116.834 116.123 117.114L93.9281 133.219C93.5243 133.516 93.0362 133.677 92.5348 133.677ZM53.8346 125.805C53.5928 125.949 53.4024 126.166 53.2903 126.424C53.1781 126.683 53.15 126.97 53.2097 127.245C53.2694 127.52 53.4142 127.77 53.6234 127.958C53.8325 128.147 54.0955 128.265 54.3755 128.297L92.3705 132.647C92.7053 132.688 93.043 132.599 93.3153 132.401L115.489 116.272C115.708 116.113 115.873 115.892 115.965 115.638C116.056 115.384 116.069 115.108 116.001 114.847C115.933 114.585 115.789 114.35 115.586 114.172C115.383 113.994 115.131 113.881 114.863 113.848L81.3759 109.641C81.0784 109.605 80.7771 109.668 80.5201 109.823L53.8346 125.805Z" fill="black"/>
<path d="M92.295 130.871C92.0783 130.871 91.867 130.803 91.6913 130.676C91.5156 130.549 91.3845 130.37 91.3169 130.164C91.2493 129.958 91.2485 129.736 91.3147 129.53C91.381 129.324 91.5108 129.144 91.6856 129.015L110.252 115.324C110.471 115.162 110.746 115.094 111.015 115.135C111.284 115.176 111.526 115.322 111.688 115.541C111.849 115.76 111.917 116.035 111.876 116.304C111.836 116.573 111.69 116.815 111.471 116.977L92.9042 130.669C92.7279 130.799 92.5145 130.87 92.295 130.871Z" fill="white"/>
<path d="M188.252 60.1282C187.383 60.1161 186.516 60.0567 185.654 59.9502C181.433 59.4812 160.101 56.6402 159.889 56.6094C159.398 56.57 158.921 56.4207 158.495 56.1725C158.069 55.9242 157.705 55.5834 157.428 55.1752C155.878 52.916 156.939 48.8153 156.987 48.6441L157.979 48.9077C157.979 48.9453 156.993 52.7243 158.277 54.5967C158.474 54.8827 158.733 55.1203 159.034 55.2916C159.336 55.463 159.673 55.5636 160.019 55.5859C160.245 55.6133 181.564 58.4543 185.774 58.9233C189.984 59.3922 192.5 59.3786 194.29 53.5595C195.755 48.7947 200.92 34.6339 203.074 28.7669C203.538 27.5651 203.636 26.2528 203.356 24.9952C203.077 23.7375 202.432 22.5906 201.502 21.6985C200.961 21.1953 200.499 20.9763 200.205 21.0824L199.863 20.1136C200.547 19.8672 201.348 20.1479 202.204 20.9454C203.282 21.9753 204.031 23.3005 204.358 24.7548C204.685 26.209 204.575 27.7275 204.042 29.1195C201.893 34.9796 196.734 49.1234 195.276 53.8607C193.691 58.9849 191.398 60.1282 188.252 60.1282Z" fill="black"/>
<path d="M170.113 19.357L157.609 48.394C157.438 48.7922 157.361 49.2249 157.385 49.6578C157.41 50.0908 157.534 50.5121 157.749 50.8886C157.964 51.2651 158.264 51.5864 158.625 51.8271C158.985 52.0678 159.397 52.2214 159.827 52.2757L187.79 55.8219C188.419 55.9008 189.056 55.764 189.598 55.4339C190.139 55.1038 190.553 54.5998 190.771 54.0043L201.653 24.1731C201.798 23.7735 201.85 23.346 201.806 22.9232C201.761 22.5003 201.621 22.0931 201.396 21.7325C201.17 21.3719 200.866 21.0674 200.505 20.8421C200.145 20.6167 199.738 20.4764 199.315 20.4318L172.958 17.6934C172.369 17.6338 171.776 17.7628 171.265 18.0617C170.753 18.3607 170.35 18.8142 170.113 19.357Z" fill="#4BD657"/>
<path d="M188.15 56.356C188.008 56.357 187.866 56.3479 187.725 56.3286L159.763 52.779C159.254 52.7141 158.768 52.5319 158.341 52.2469C157.915 51.9618 157.56 51.5817 157.306 51.1364C157.051 50.6911 156.904 50.1927 156.875 49.6807C156.845 49.1686 156.935 48.6567 157.138 48.1854L169.642 19.1483C169.919 18.4983 170.397 17.9544 171.007 17.5969C171.616 17.2395 172.325 17.0874 173.027 17.163L199.384 19.9014C199.885 19.9535 200.367 20.1193 200.795 20.386C201.222 20.6527 201.582 21.0133 201.849 21.4404C202.116 21.8676 202.281 22.3499 202.334 22.8508C202.386 23.3516 202.323 23.8578 202.15 24.3307L191.265 54.1585C191.039 54.8031 190.617 55.3612 190.059 55.7551C189.5 56.149 188.833 56.359 188.15 56.356ZM172.678 18.1796C172.233 18.1782 171.798 18.3071 171.426 18.5505C171.053 18.7938 170.761 19.1409 170.583 19.5488L158.083 48.5859C157.942 48.911 157.879 49.2642 157.899 49.6178C157.919 49.9713 158.021 50.3154 158.196 50.6229C158.372 50.9303 158.617 51.1927 158.911 51.3893C159.206 51.5858 159.542 51.7113 159.893 51.7555L187.856 55.3017C188.369 55.3679 188.89 55.2572 189.333 54.9878C189.775 54.7184 190.112 54.3064 190.289 53.8196L201.171 23.9884C201.29 23.6624 201.333 23.3136 201.297 22.9684C201.261 22.6233 201.146 22.2909 200.963 21.9965C200.779 21.7021 200.53 21.4535 200.236 21.2696C199.942 21.0857 199.61 20.9713 199.264 20.9351L172.907 18.1967C172.831 18.1865 172.755 18.1809 172.678 18.1796Z" fill="black"/>
<path d="M188.099 51.2354C188.002 51.2344 187.906 51.2183 187.815 51.1874C187.6 51.1121 187.424 50.955 187.326 50.7503C187.227 50.5457 187.213 50.3102 187.288 50.0955L194.921 28.1577C194.955 28.0478 195.01 27.9459 195.084 27.858C195.158 27.7701 195.249 27.698 195.352 27.6461C195.455 27.5941 195.567 27.5634 195.681 27.5556C195.796 27.5479 195.911 27.5634 196.02 27.6011C196.128 27.6388 196.228 27.6981 196.313 27.7753C196.398 27.8524 196.467 27.946 196.515 28.0503C196.564 28.1547 196.59 28.2677 196.594 28.3826C196.598 28.4975 196.578 28.6119 196.536 28.719L188.907 50.6603C188.848 50.8279 188.739 50.9731 188.594 51.0761C188.449 51.1791 188.276 51.2347 188.099 51.2354Z" fill="white"/>
<path d="M189.049 33.244H188.998L170.856 31.3374C170.72 31.3229 170.595 31.2549 170.509 31.1483C170.423 31.0417 170.383 30.9054 170.397 30.7692C170.412 30.633 170.48 30.5082 170.586 30.4222C170.693 30.3362 170.829 30.296 170.966 30.3105L189.09 32.2205C189.158 32.2241 189.224 32.241 189.285 32.2701C189.346 32.2993 189.4 32.3401 189.445 32.3903C189.49 32.4405 189.525 32.4992 189.548 32.5628C189.57 32.6265 189.58 32.694 189.576 32.7614C189.573 32.8288 189.556 32.8949 189.527 32.9558C189.498 33.0167 189.457 33.0713 189.407 33.1164C189.356 33.1616 189.298 33.1964 189.234 33.2188C189.17 33.2413 189.103 33.251 189.035 33.2474L189.049 33.244Z" fill="black"/>
<path d="M186.18 39.9224H186.125L168.952 38.0124C168.816 37.9974 168.691 37.929 168.606 37.8221C168.52 37.7152 168.48 37.5786 168.495 37.4425C168.51 37.3063 168.579 37.1817 168.686 37.096C168.793 37.0103 168.929 36.9705 169.065 36.9855L186.238 38.8955C186.374 38.9032 186.502 38.9648 186.593 39.0665C186.684 39.1683 186.73 39.3019 186.723 39.4381C186.715 39.5743 186.653 39.7018 186.552 39.7926C186.45 39.8835 186.316 39.9301 186.18 39.9224Z" fill="black"/>
<path d="M305.131 94.3679C318.364 94.3679 329.092 83.6403 329.092 70.4071C329.092 57.1739 318.364 46.4463 305.131 46.4463C291.898 46.4463 281.17 57.1739 281.17 70.4071C281.17 83.6403 291.898 94.3679 305.131 94.3679Z" fill="#07ACEE"/>
<path d="M305.131 94.8813C300.29 94.8813 295.558 93.446 291.533 90.7567C287.509 88.0674 284.372 84.2451 282.519 79.773C280.667 75.3009 280.182 70.3799 281.127 65.6324C282.071 60.8849 284.402 56.524 287.825 53.1012C291.247 49.6784 295.608 47.3475 300.356 46.4031C305.103 45.4588 310.024 45.9435 314.496 47.7959C318.968 49.6483 322.791 52.7852 325.48 56.8099C328.169 60.8347 329.605 65.5666 329.605 70.4071C329.598 76.8961 327.018 83.1176 322.429 87.706C317.841 92.2944 311.62 94.875 305.131 94.8813ZM305.131 46.9597C300.493 46.9597 295.96 48.3349 292.104 50.9113C288.248 53.4878 285.243 57.1497 283.468 61.4342C281.693 65.7186 281.229 70.4331 282.134 74.9814C283.038 79.5298 285.271 83.7077 288.551 86.9869C291.83 90.266 296.008 92.4992 300.556 93.4039C305.104 94.3087 309.819 93.8443 314.103 92.0696C318.388 90.295 322.05 87.2896 324.626 83.4337C327.203 79.5778 328.578 75.0445 328.578 70.4071C328.571 64.1907 326.098 58.231 321.702 53.8353C317.307 49.4397 311.347 46.967 305.131 46.9597Z" fill="#1D1E1B"/>
<path d="M309.665 60.7371L294.947 70.1811C294.613 70.3948 294.345 70.6959 294.17 71.0515C293.996 71.4072 293.923 71.8038 293.958 72.1983C293.993 72.5928 294.136 72.9701 294.371 73.2891C294.605 73.6082 294.923 73.8568 295.289 74.008L310.008 80.1145C310.337 80.2514 310.695 80.3049 311.049 80.2704C311.404 80.2358 311.745 80.1144 312.041 79.9167C312.338 79.719 312.581 79.4511 312.749 79.137C312.918 78.8228 313.006 78.472 313.006 78.1155V62.5615C313.006 62.1724 312.901 61.7905 312.702 61.4559C312.503 61.1213 312.218 60.8464 311.876 60.6598C311.535 60.4733 311.149 60.382 310.76 60.3956C310.371 60.4092 309.993 60.5272 309.665 60.7371Z" fill="white"/>
<path d="M310.836 80.7958C310.483 80.7952 310.135 80.7254 309.809 80.5904L295.09 74.4804C294.638 74.2928 294.246 73.9851 293.957 73.5907C293.667 73.1962 293.491 72.73 293.448 72.2426C293.405 71.7552 293.496 71.2652 293.711 70.8258C293.926 70.3864 294.257 70.0143 294.669 69.7498L309.388 60.3059C309.793 60.0459 310.26 59.8998 310.741 59.8828C311.222 59.8658 311.699 59.9786 312.121 60.2094C312.543 60.4401 312.896 60.7803 313.141 61.1942C313.387 61.6081 313.516 62.0804 313.516 62.5616V78.1088C313.516 78.8196 313.234 79.5013 312.731 80.0039C312.228 80.5066 311.547 80.7889 310.836 80.7889V80.7958ZM309.665 60.7372L309.943 61.1719L295.224 70.6124C294.969 70.7755 294.764 71.0051 294.631 71.2764C294.498 71.5477 294.442 71.8502 294.469 72.1512C294.496 72.4522 294.605 72.74 294.783 72.9835C294.962 73.227 295.205 73.4168 295.484 73.5322L310.203 79.6422C310.454 79.7466 310.728 79.7872 310.999 79.7603C311.27 79.7334 311.531 79.6399 311.757 79.4881C311.983 79.3364 312.168 79.131 312.296 78.8904C312.424 78.6497 312.49 78.3812 312.489 78.1088V62.5548C312.49 62.2576 312.411 61.9657 312.259 61.7099C312.108 61.4541 311.89 61.244 311.63 61.1016C311.369 60.9593 311.074 60.89 310.777 60.9012C310.48 60.9123 310.192 61.0035 309.943 61.1651L309.665 60.7372Z" fill="black"/>
<path d="M324.47 62.3631C324.299 62.363 324.132 62.3204 323.982 62.2391C323.832 62.1578 323.704 62.0404 323.611 61.8976C319.004 54.8531 312.729 51.324 304.962 51.4096C301.344 51.4691 297.773 52.2475 294.457 53.6995C294.336 53.7668 294.202 53.8087 294.063 53.8226C293.925 53.8365 293.785 53.8222 293.652 53.7805C293.52 53.7387 293.397 53.6705 293.291 53.5799C293.186 53.4892 293.1 53.3781 293.039 53.2533C292.977 53.1284 292.942 52.9924 292.935 52.8535C292.928 52.7146 292.949 52.5757 292.997 52.4453C293.045 52.3148 293.12 52.1954 293.215 52.0945C293.311 51.9935 293.426 51.9131 293.554 51.858C297.112 50.27 300.954 49.4188 304.85 49.3558C310.72 49.2771 319.052 51.1905 325.319 60.7748C325.42 60.929 325.477 61.1074 325.485 61.2913C325.493 61.4752 325.452 61.6579 325.365 61.8203C325.278 61.9827 325.149 62.1187 324.992 62.2142C324.834 62.3097 324.654 62.3611 324.47 62.3631Z" fill="white"/>
<path d="M183.252 290.894H86.539C85.0656 290.894 83.6524 290.309 82.6106 289.267C81.5687 288.225 80.9835 286.812 80.9835 285.339C80.9835 285.274 81.0091 285.212 81.0547 285.167C81.1003 285.121 81.1621 285.096 81.2265 285.096H188.811V285.339C188.811 286.069 188.667 286.791 188.387 287.466C188.108 288.14 187.699 288.752 187.182 289.268C186.666 289.784 186.053 290.193 185.379 290.472C184.704 290.751 183.982 290.895 183.252 290.894Z" fill="white"/>
<path d="M183.252 291.408H86.5396C84.9306 291.406 83.388 290.766 82.2502 289.628C81.1125 288.49 80.4725 286.948 80.4707 285.339C80.4707 285.139 80.55 284.947 80.6912 284.805C80.8323 284.663 81.0238 284.583 81.2238 284.582H189.321V285.339C189.319 286.948 188.68 288.49 187.542 289.628C186.404 290.766 184.861 291.406 183.252 291.408ZM81.5044 285.609C81.5745 286.898 82.1355 288.11 83.072 288.998C84.0086 289.885 85.2494 290.38 86.5396 290.381H183.252C184.543 290.38 185.784 289.885 186.72 288.998C187.657 288.11 188.218 286.898 188.288 285.609H81.5044Z" fill="black"/>
<path d="M85.0952 287.933H173.637C177.246 287.933 180.172 285.008 180.172 281.399V227.915C180.172 224.306 177.246 221.381 173.637 221.381H85.0952C81.4864 221.381 78.5608 224.306 78.5608 227.915L78.5608 281.399C78.5608 285.008 81.4864 287.933 85.0952 287.933Z" fill="white"/>
<path d="M173.637 288.447H85.0949C83.2262 288.445 81.4345 287.702 80.1132 286.381C78.7918 285.059 78.0487 283.268 78.0469 281.399V227.915C78.0496 226.047 78.793 224.256 80.1142 222.934C81.4353 221.613 83.2265 220.87 85.0949 220.867H173.637C175.506 220.869 177.297 221.612 178.618 222.933C179.94 224.255 180.683 226.046 180.685 227.915V281.399C180.684 283.268 179.941 285.06 178.619 286.382C177.298 287.703 175.506 288.446 173.637 288.447ZM85.0949 221.894C83.4986 221.896 81.9682 222.531 80.8394 223.66C79.7106 224.788 79.0756 226.319 79.0738 227.915V281.399C79.0756 282.995 79.7106 284.526 80.8394 285.655C81.9682 286.783 83.4986 287.418 85.0949 287.42H173.637C175.233 287.418 176.764 286.783 177.892 285.655C179.021 284.526 179.656 282.995 179.658 281.399V227.915C179.656 226.319 179.021 224.788 177.892 223.66C176.764 222.531 175.233 221.896 173.637 221.894H85.0949Z" fill="black"/>
<path d="M82.1226 279.092C81.8502 279.092 81.5891 278.984 81.3966 278.791C81.204 278.599 81.0957 278.337 81.0957 278.065V234.494C81.0957 234.222 81.204 233.961 81.3966 233.768C81.5891 233.575 81.8502 233.467 82.1226 233.467C82.3949 233.467 82.6561 233.575 82.8486 233.768C83.0412 233.961 83.1495 234.222 83.1495 234.494V278.065C83.1495 278.337 83.0412 278.599 82.8486 278.791C82.6561 278.984 82.3949 279.092 82.1226 279.092Z" fill="white"/>
<path d="M128.237 259.872C130.046 259.872 131.513 258.405 131.513 256.596C131.513 254.787 130.046 253.321 128.237 253.321C126.428 253.321 124.961 254.787 124.961 256.596C124.961 258.405 126.428 259.872 128.237 259.872Z" fill="#07ACEE"/>
<path d="M128.237 260.382C127.487 260.382 126.754 260.16 126.131 259.743C125.508 259.327 125.022 258.735 124.735 258.042C124.449 257.35 124.374 256.588 124.52 255.852C124.667 255.117 125.028 254.442 125.558 253.912C126.089 253.383 126.764 253.022 127.499 252.876C128.235 252.73 128.997 252.806 129.689 253.093C130.381 253.38 130.973 253.867 131.389 254.49C131.805 255.114 132.026 255.847 132.026 256.596C132.025 257.601 131.625 258.564 130.915 259.274C130.204 259.983 129.241 260.382 128.237 260.382ZM128.237 253.834C127.69 253.834 127.156 253.996 126.702 254.3C126.248 254.603 125.894 255.035 125.684 255.539C125.475 256.044 125.421 256.599 125.527 257.135C125.634 257.671 125.897 258.163 126.283 258.55C126.67 258.936 127.162 259.199 127.698 259.306C128.233 259.412 128.789 259.358 129.294 259.148C129.798 258.939 130.23 258.585 130.533 258.131C130.837 257.677 130.999 257.143 130.999 256.596C130.999 256.234 130.927 255.874 130.789 255.539C130.65 255.204 130.446 254.9 130.19 254.643C129.933 254.387 129.629 254.183 129.294 254.044C128.958 253.905 128.599 253.834 128.237 253.834Z" fill="black"/>
<path d="M73.8358 226.365C73.6999 226.36 73.5712 226.302 73.4776 226.203C73.3841 226.105 73.3333 225.973 73.336 225.837C73.336 225.656 73.4867 221.408 76.7864 218.399C79.1277 216.26 82.4343 215.319 86.6138 215.586C86.75 215.594 86.8771 215.657 86.9673 215.759C87.0575 215.861 87.1033 215.995 87.0946 216.132C87.086 216.268 87.0237 216.395 86.9213 216.485C86.8189 216.575 86.6849 216.621 86.5488 216.612C82.6637 216.359 79.6137 217.211 77.4881 219.149C74.5101 221.856 74.3664 225.824 74.3629 225.865C74.3612 225.932 74.3461 225.999 74.3186 226.06C74.2912 226.122 74.2518 226.177 74.2028 226.224C74.1539 226.27 74.0963 226.307 74.0333 226.331C73.9704 226.355 73.9032 226.366 73.8358 226.365Z" fill="black"/>
<path d="M100.264 97.0106L99.3672 96.5143C110.953 75.5112 128.188 58.171 149.12 46.4568L149.62 47.3536C128.857 58.9765 111.76 76.1773 100.264 97.0106Z" fill="black"/>
<path d="M91.8325 203.965C88.253 194.556 85.7976 184.758 84.5176 174.774L85.5445 174.644C86.8099 184.547 89.2422 194.266 92.7909 203.598L91.8325 203.965Z" fill="black"/>
<path d="M311.676 238.595L310.875 237.951C326.536 218.417 336.087 194.697 338.332 169.761C340.577 144.825 335.416 119.781 323.496 97.7637L324.399 97.2742C336.446 119.461 341.665 144.713 339.402 169.858C337.138 195.003 327.492 218.917 311.676 238.595Z" fill="black"/>
<path d="M274.664 47.8053C274.575 47.8056 274.488 47.782 274.411 47.7368C255.281 36.8997 233.668 31.2069 211.681 31.2142C211.545 31.2142 211.415 31.1601 211.318 31.0638C211.222 30.9675 211.168 30.8369 211.168 30.7007C211.168 30.5645 211.222 30.4339 211.318 30.3376C211.415 30.2414 211.545 30.1873 211.681 30.1873C233.847 30.1807 255.635 35.9207 274.921 46.8469C275.019 46.9033 275.096 46.9905 275.139 47.095C275.182 47.1995 275.19 47.3154 275.161 47.4247C275.131 47.534 275.067 47.6305 274.977 47.6994C274.887 47.7682 274.777 47.8054 274.664 47.8053Z" fill="black"/>
<path d="M77.3296 119.787L76.3027 119.609C76.3027 119.534 77.6446 112.25 81.8138 102.552C85.6612 93.6013 92.7844 80.6933 104.881 70.0342L105.566 70.8009C82.7004 90.9691 77.3741 119.503 77.3296 119.787Z" fill="black"/>
<path d="M176.282 25.9053C176.197 25.9052 176.113 25.8839 176.037 25.8433C175.962 25.8026 175.898 25.744 175.851 25.6725C175.814 25.6162 175.789 25.5531 175.776 25.4869C175.764 25.4207 175.765 25.3527 175.779 25.2869C175.793 25.221 175.82 25.1585 175.858 25.1031C175.896 25.0477 175.945 25.0004 176.002 24.964C176.186 24.8407 195.078 12.785 223.239 17.2075C223.375 17.2284 223.497 17.3025 223.579 17.4136C223.66 17.5246 223.694 17.6635 223.673 17.7997C223.652 17.9359 223.578 18.0582 223.467 18.1397C223.356 18.2212 223.217 18.2553 223.081 18.2344C195.338 13.8735 176.755 25.7136 176.57 25.8334C176.484 25.8867 176.383 25.9118 176.282 25.9053Z" fill="black"/>
<path d="M346.376 109.186C341.683 85.7183 320.112 70.979 319.893 70.8489L320.468 69.9966C320.687 70.1472 342.604 85.1124 347.383 109.018L346.376 109.186Z" fill="black"/>
<path d="M324.47 291.531H64.6658C64.5296 291.531 64.3991 291.477 64.3028 291.381C64.2065 291.285 64.1523 291.154 64.1523 291.018C64.1523 290.882 64.2065 290.751 64.3028 290.655C64.3991 290.559 64.5296 290.504 64.6658 290.504H324.47C324.606 290.504 324.736 290.559 324.833 290.655C324.929 290.751 324.983 290.882 324.983 291.018C324.983 291.154 324.929 291.285 324.833 291.381C324.736 291.477 324.606 291.531 324.47 291.531Z" fill="black"/>
<path d="M339.359 299.233H312.66C312.524 299.233 312.393 299.179 312.297 299.083C312.201 298.986 312.146 298.856 312.146 298.72C312.146 298.583 312.201 298.453 312.297 298.356C312.393 298.26 312.524 298.206 312.66 298.206H339.359C339.495 298.206 339.626 298.26 339.722 298.356C339.818 298.453 339.873 298.583 339.873 298.72C339.873 298.856 339.818 298.986 339.722 299.083C339.626 299.179 339.495 299.233 339.359 299.233Z" fill="black"/>
<path d="M80.9241 298.548H52.5134C52.3773 298.548 52.2467 298.494 52.1504 298.398C52.0541 298.302 52 298.171 52 298.035C52 297.899 52.0541 297.768 52.1504 297.672C52.2467 297.576 52.3773 297.521 52.5134 297.521H80.9241C81.0603 297.521 81.1909 297.576 81.2872 297.672C81.3834 297.768 81.4376 297.899 81.4376 298.035C81.4376 298.171 81.3834 298.302 81.2872 298.398C81.1909 298.494 81.0603 298.548 80.9241 298.548Z" fill="black"/>
<defs>
<filter id="filter0_d_14043_105117" x="-4.0192" y="107.786" width="38.6829" height="38.6842" filterUnits="userSpaceOnUse" color-interpolation-filters="sRGB">
<feFlood flood-opacity="0" result="BackgroundImageFix"/>
<feColorMatrix in="SourceAlpha" type="matrix" values="0 0 0 0 0 0 0 0 0 0 0 0 0 0 0 0 0 0 127 0" result="hardAlpha"/>
<feOffset dy="2.03704"/>
<feGaussianBlur stdDeviation="5.09261"/>
<feComposite in2="hardAlpha" operator="out"/>
<feColorMatrix type="matrix" values="0 0 0 0 0 0 0 0 0 0 0 0 0 0 0 0 0 0 0.05 0"/>
<feBlend mode="normal" in2="BackgroundImageFix" result="effect1_dropShadow_14043_105117"/>
<feBlend mode="normal" in="SourceGraphic" in2="effect1_dropShadow_14043_105117" result="shape"/>
</filter>
<filter id="filter1_d_14043_105117" x="370.649" y="165.21" width="38.6888" height="38.6885" filterUnits="userSpaceOnUse" color-interpolation-filters="sRGB">
<feFlood flood-opacity="0" result="BackgroundImageFix"/>
<feColorMatrix in="SourceAlpha" type="matrix" values="0 0 0 0 0 0 0 0 0 0 0 0 0 0 0 0 0 0 127 0" result="hardAlpha"/>
<feOffset dy="2.03704"/>
<feGaussianBlur stdDeviation="5.09261"/>
<feComposite in2="hardAlpha" operator="out"/>
<feColorMatrix type="matrix" values="0 0 0 0 0 0 0 0 0 0 0 0 0 0 0 0 0 0 0.05 0"/>
<feBlend mode="normal" in2="BackgroundImageFix" result="effect1_dropShadow_14043_105117"/>
<feBlend mode="normal" in="SourceGraphic" in2="effect1_dropShadow_14043_105117" result="shape"/>
</filter>
<linearGradient id="paint0_linear_14043_105117" x1="20.4547" y1="112.038" x2="392.053" y2="200.547" gradientUnits="userSpaceOnUse">
<stop stop-color="#CDD5E2"/>
<stop offset="1" stop-color="#CDD5E2" stop-opacity="0"/>
</linearGradient>
<linearGradient id="paint1_linear_14043_105117" x1="391.411" y1="195.438" x2="353.85" y2="294.044" gradientUnits="userSpaceOnUse">
<stop stop-color="#CDD5E2"/>
<stop offset="1" stop-color="#CDD5E2" stop-opacity="0"/>
</linearGradient>
<linearGradient id="paint2_linear_14043_105117" x1="196.502" y1="23.2605" x2="196.502" y2="365.006" gradientUnits="userSpaceOnUse">
<stop stop-color="#CDD5E2"/>
<stop offset="1" stop-color="#CDD5E2" stop-opacity="0"/>
</linearGradient>
<linearGradient id="paint3_linear_14043_105117" x1="196.505" y1="57.4338" x2="196.505" y2="330.83" gradientUnits="userSpaceOnUse">
<stop stop-color="#CDD5E2"/>
<stop offset="1" stop-color="#CDD5E2" stop-opacity="0"/>
</linearGradient>
</defs>
</svg>
