<svg width="406" height="302" viewBox="0 0 406 302" fill="none" xmlns="http://www.w3.org/2000/svg">
<mask id="mask0_14045_109692" style="mask-type:alpha" maskUnits="userSpaceOnUse" x="0" y="0" width="406" height="302">
<rect width="405.823" height="301.875" fill="#D9D9D9"/>
</mask>
<g mask="url(#mask0_14045_109692)">
<g opacity="0.5">
<mask id="path-2-inside-1_14045_109692" fill="white">
<path d="M389.979 202.564C391.995 156.308 377.371 110.86 348.759 74.4585C320.146 38.0572 279.439 13.1117 234.015 4.14391C188.592 -4.82387 141.458 2.77957 101.159 25.576C60.859 48.3724 30.0607 84.853 14.3462 128.405L15.1858 128.708C30.8279 85.3568 61.4843 49.0443 101.598 26.353C141.712 3.66161 188.628 -3.90679 233.842 5.01966C279.057 13.9461 319.576 38.7766 348.057 75.0102C376.537 111.244 391.094 156.482 389.087 202.526L389.979 202.564Z"/>
</mask>
<path d="M389.979 202.564C391.995 156.308 377.371 110.86 348.759 74.4585C320.146 38.0572 279.439 13.1117 234.015 4.14391C188.592 -4.82387 141.458 2.77957 101.159 25.576C60.859 48.3724 30.0607 84.853 14.3462 128.405L15.1858 128.708C30.8279 85.3568 61.4843 49.0443 101.598 26.353C141.712 3.66161 188.628 -3.90679 233.842 5.01966C279.057 13.9461 319.576 38.7766 348.057 75.0102C376.537 111.244 391.094 156.482 389.087 202.526L389.979 202.564Z" stroke="url(#paint0_linear_14045_109692)" stroke-width="2.84788" stroke-dasharray="4.27 4.27" mask="url(#path-2-inside-1_14045_109692)"/>
</g>
<g opacity="0.5">
<mask id="path-3-inside-2_14045_109692" fill="white">
<path d="M14.6043 260.573C30.4892 304.063 61.4301 340.423 101.819 363.061C142.207 385.7 189.37 393.119 234.758 383.973C280.146 374.828 320.756 349.723 349.225 313.21C377.695 276.697 392.141 231.192 389.944 184.944L389.052 184.986C391.239 231.021 376.86 276.316 348.521 312.661C320.183 349.006 279.761 373.995 234.582 383.098C189.403 392.201 142.457 384.817 102.255 362.282C62.0527 339.748 31.2544 303.556 15.4428 260.266L14.6043 260.573Z"/>
</mask>
<path d="M14.6043 260.573C30.4892 304.063 61.4301 340.423 101.819 363.061C142.207 385.7 189.37 393.119 234.758 383.973C280.146 374.828 320.756 349.723 349.225 313.21C377.695 276.697 392.141 231.192 389.944 184.944L389.052 184.986C391.239 231.021 376.86 276.316 348.521 312.661C320.183 349.006 279.761 373.995 234.582 383.098C189.403 392.201 142.457 384.817 102.255 362.282C62.0527 339.748 31.2544 303.556 15.4428 260.266L14.6043 260.573Z" stroke="url(#paint1_linear_14045_109692)" stroke-width="2.84788" stroke-dasharray="4.27 4.27" mask="url(#path-3-inside-2_14045_109692)"/>
</g>
<circle opacity="0.08" cx="196.502" cy="194.133" r="170.873" fill="url(#paint2_linear_14045_109692)"/>
<circle opacity="0.1" cx="196.505" cy="194.132" r="136.698" fill="url(#paint3_linear_14045_109692)"/>
<circle cx="196.505" cy="194.134" r="91.1321" fill="white"/>
<g filter="url(#filter0_d_14045_109692)">
<circle cx="15.3224" cy="125.091" r="7.11969" transform="rotate(-2.50406 15.3224 125.091)" fill="#0170FF"/>
<circle cx="15.3224" cy="125.091" r="8.13822" transform="rotate(-2.50406 15.3224 125.091)" stroke="white" stroke-width="2.03704"/>
</g>
<g filter="url(#filter1_d_14045_109692)">
<circle cx="389.993" cy="182.517" r="7.11969" transform="rotate(-15.7345 389.993 182.517)" fill="#0170FF"/>
<circle cx="389.993" cy="182.517" r="8.13822" transform="rotate(-15.7345 389.993 182.517)" stroke="white" stroke-width="2.03704"/>
</g>
</g>
<path d="M320.125 167.595C320.125 172.513 318.172 177.23 314.694 180.708C311.217 184.185 306.5 186.139 301.582 186.139H106.735C101.817 186.139 97.1003 184.185 93.6227 180.708C90.1451 177.23 88.1914 172.513 88.1914 167.595V42.4768H320.125V167.595Z" fill="white"/>
<path d="M301.582 186.62H106.735C101.692 186.614 96.8561 184.607 93.2897 181.041C89.7232 177.475 87.7169 172.639 87.7109 167.595V42.4801C87.7109 42.3526 87.7616 42.2303 87.8518 42.1401C87.942 42.05 88.0642 41.9993 88.1918 41.9993H320.126C320.253 41.9993 320.376 42.05 320.466 42.1401C320.556 42.2303 320.607 42.3526 320.607 42.4801V167.595C320.601 172.639 318.594 177.475 315.028 181.041C311.461 184.607 306.626 186.614 301.582 186.62ZM88.6726 42.9609V167.595C88.6785 172.384 90.5836 176.975 93.9697 180.361C97.3559 183.747 101.947 185.652 106.735 185.658H301.582C306.371 185.652 310.962 183.747 314.348 180.361C317.734 176.975 319.639 172.384 319.645 167.595V42.9609H88.6726Z" fill="black"/>
<path d="M106.735 22.9846H301.582C306.5 22.9846 311.217 24.9383 314.694 28.4159C318.172 31.8935 320.125 36.6101 320.125 41.5282V42.4898H88.1914V41.5282C88.1914 36.6101 90.1451 31.8935 93.6227 28.4159C97.1003 24.9383 101.817 22.9846 106.735 22.9846Z" fill="#4BD657"/>
<path d="M320.607 42.9612H87.7109V41.5283C87.716 36.4843 89.7221 31.6483 93.2887 28.0817C96.8554 24.515 101.691 22.509 106.735 22.5039H301.582C306.626 22.509 311.462 24.515 315.029 28.0817C318.595 31.6483 320.601 36.4843 320.607 41.5283V42.9612ZM88.6726 41.9996H319.645V41.5283C319.639 36.7396 317.734 32.1488 314.348 28.7627C310.962 25.3765 306.371 23.4715 301.582 23.4655H106.735C101.947 23.4715 97.3559 25.3765 93.9697 28.7627C90.5836 32.1488 88.6785 36.7396 88.6726 41.5283V41.9996Z" fill="black"/>
<path d="M295.876 37.813C298.084 37.813 299.873 36.0233 299.873 33.8157C299.873 31.6081 298.084 29.8186 295.876 29.8186C293.669 29.8186 291.879 31.6081 291.879 33.8157C291.879 36.0233 293.669 37.813 295.876 37.813Z" fill="white"/>
<path d="M295.876 29.8154C296.667 29.8148 297.441 30.0489 298.099 30.4881C298.758 30.9273 299.271 31.5518 299.574 32.2827C299.878 33.0136 299.957 33.8181 299.803 34.5943C299.649 35.3705 299.269 36.0836 298.709 36.6434C298.15 37.2032 297.437 37.5846 296.661 37.7392C295.885 37.8938 295.08 37.8148 294.349 37.5121C293.618 37.2094 292.993 36.6966 292.553 36.0386C292.114 35.3807 291.879 34.6071 291.879 33.8158C291.879 32.7554 292.3 31.7385 293.049 30.9883C293.799 30.2382 294.816 29.8162 295.876 29.8154ZM295.876 28.8538C294.895 28.8538 293.935 29.1448 293.119 29.69C292.303 30.2353 291.667 31.0102 291.292 31.9169C290.916 32.8236 290.818 33.8213 291.009 34.7838C291.201 35.7464 291.674 36.6306 292.368 37.3246C293.061 38.0185 293.946 38.4911 294.908 38.6825C295.871 38.874 296.868 38.7757 297.775 38.4002C298.682 38.0246 299.457 37.3887 300.002 36.5727C300.547 35.7567 300.838 34.7972 300.838 33.8158C300.837 32.5 300.314 31.2385 299.384 30.3081C298.453 29.3777 297.192 28.8546 295.876 28.8538Z" fill="#1D1E1B"/>
<path d="M281.88 37.813C284.088 37.813 285.877 36.0233 285.877 33.8157C285.877 31.6081 284.088 29.8186 281.88 29.8186C279.672 29.8186 277.883 31.6081 277.883 33.8157C277.883 36.0233 279.672 37.813 281.88 37.813Z" fill="white"/>
<path d="M281.88 29.8154C282.671 29.8148 283.445 30.0489 284.103 30.4881C284.762 30.9273 285.275 31.5518 285.578 32.2827C285.881 33.0136 285.961 33.8181 285.807 34.5943C285.653 35.3705 285.272 36.0836 284.713 36.6434C284.154 37.2032 283.441 37.5846 282.665 37.7392C281.889 37.8938 281.084 37.8148 280.353 37.5121C279.622 37.2094 278.997 36.6966 278.557 36.0386C278.118 35.3807 277.883 34.6071 277.883 33.8158C277.883 32.7554 278.304 31.7385 279.053 30.9883C279.803 30.2382 280.82 29.8162 281.88 29.8154ZM281.88 28.8538C280.899 28.8538 279.939 29.1448 279.123 29.69C278.307 30.2353 277.671 31.0102 277.296 31.9169C276.92 32.8236 276.822 33.8213 277.013 34.7838C277.205 35.7464 277.677 36.6306 278.371 37.3246C279.065 38.0185 279.949 38.4911 280.912 38.6825C281.874 38.874 282.872 38.7757 283.779 38.4002C284.686 38.0246 285.461 37.3887 286.006 36.5727C286.551 35.7567 286.842 34.7972 286.842 33.8158C286.841 32.5 286.318 31.2385 285.388 30.3081C284.457 29.3777 283.196 28.8546 281.88 28.8538Z" fill="#1D1E1B"/>
<path d="M266.552 37.813C268.76 37.813 270.549 36.0233 270.549 33.8157C270.549 31.6081 268.76 29.8186 266.552 29.8186C264.344 29.8186 262.555 31.6081 262.555 33.8157C262.555 36.0233 264.344 37.813 266.552 37.813Z" fill="white"/>
<path d="M266.552 29.8154C267.343 29.8148 268.117 30.0489 268.775 30.4881C269.434 30.9273 269.947 31.5518 270.25 32.2827C270.553 33.0136 270.633 33.8181 270.479 34.5943C270.325 35.3705 269.944 36.0836 269.385 36.6434C268.826 37.2032 268.113 37.5846 267.337 37.7392C266.561 37.8938 265.756 37.8148 265.025 37.5121C264.294 37.2094 263.669 36.6966 263.229 36.0386C262.789 35.3807 262.555 34.6071 262.555 33.8158C262.555 32.7554 262.976 31.7385 263.725 30.9883C264.475 30.2382 265.491 29.8162 266.552 29.8154ZM266.552 28.8538C265.571 28.8538 264.611 29.1448 263.795 29.69C262.979 30.2353 262.343 31.0102 261.968 31.9169C261.592 32.8236 261.494 33.8213 261.685 34.7838C261.877 35.7464 262.349 36.6306 263.043 37.3246C263.737 38.0185 264.621 38.4911 265.584 38.6825C266.546 38.874 267.544 38.7757 268.451 38.4002C269.357 38.0246 270.132 37.3887 270.678 36.5727C271.223 35.7567 271.514 34.7972 271.514 33.8158C271.513 32.5 270.99 31.2385 270.06 30.3081C269.129 29.3777 267.868 28.8546 266.552 28.8538Z" fill="#1D1E1B"/>
<path d="M307.259 127.749H225.2C223.252 127.749 221.674 129.327 221.674 131.275C221.674 133.222 223.252 134.801 225.2 134.801H307.259C309.207 134.801 310.785 133.222 310.785 131.275C310.785 129.327 309.207 127.749 307.259 127.749Z" fill="#EBEBEB"/>
<path d="M307.259 143.135H225.2C223.252 143.135 221.674 144.713 221.674 146.661C221.674 148.608 223.252 150.187 225.2 150.187H307.259C309.207 150.187 310.785 148.608 310.785 146.661C310.785 144.713 309.207 143.135 307.259 143.135Z" fill="#EBEBEB"/>
<path d="M307.259 158.521H225.2C223.252 158.521 221.674 160.099 221.674 162.047C221.674 163.994 223.252 165.573 225.2 165.573H307.259C309.207 165.573 310.785 163.994 310.785 162.047C310.785 160.099 309.207 158.521 307.259 158.521Z" fill="#EBEBEB"/>
<path d="M200.927 150.667H108.117C104.868 150.664 101.754 149.372 99.4573 147.075C97.1605 144.779 95.8686 141.665 95.8652 138.416V65.1524C95.8686 61.9042 97.1605 58.79 99.4573 56.4932C101.754 54.1964 104.868 52.9045 108.117 52.9011H200.934C204.182 52.9045 207.296 54.1964 209.593 56.4932C211.89 58.79 213.182 61.9042 213.185 65.1524V138.416C213.181 141.665 211.888 144.78 209.59 147.077C207.292 149.374 204.176 150.665 200.927 150.667ZM108.11 53.8628C105.117 53.8662 102.247 55.0568 100.131 57.1732C98.0145 59.2897 96.8238 62.1593 96.8205 65.1524V138.416C96.8238 141.409 98.0145 144.279 100.131 146.396C102.247 148.512 105.117 149.702 108.11 149.706H200.927C203.92 149.702 206.79 148.512 208.907 146.396C211.023 144.279 212.213 141.409 212.217 138.416V65.1524C212.213 62.1593 211.023 59.2897 208.907 57.1732C206.79 55.0568 203.92 53.8662 200.927 53.8628H108.11Z" fill="black"/>
<path d="M155.743 61.3955H109.699C107.455 61.3955 105.635 63.2153 105.635 65.4601V65.9858C105.635 68.2306 107.455 70.0502 109.699 70.0502H155.743C157.987 70.0502 159.807 68.2306 159.807 65.9858V65.4601C159.807 63.2153 157.987 61.3955 155.743 61.3955Z" fill="#EBEBEB"/>
<path d="M155.582 76.9419H109.539C107.294 76.9419 105.475 78.7617 105.475 81.0065V81.5322C105.475 83.777 107.294 85.5966 109.539 85.5966H155.582C157.827 85.5966 159.647 83.777 159.647 81.5322V81.0065C159.647 78.7617 157.827 76.9419 155.582 76.9419Z" fill="#EBEBEB"/>
<path d="M156.301 94.2097H110.258C108.013 94.2097 106.193 96.0295 106.193 98.2743V98.7999C106.193 101.045 108.013 102.864 110.258 102.864H156.301C158.546 102.864 160.366 101.045 160.366 98.7999V98.2743C160.366 96.0295 158.546 94.2097 156.301 94.2097Z" fill="#EBEBEB"/>
<path d="M178.88 28.2192H130.157C129.902 28.2192 129.657 28.1179 129.477 27.9376C129.297 27.7573 129.195 27.5126 129.195 27.2575C129.195 27.0025 129.297 26.758 129.477 26.5776C129.657 26.3973 129.902 26.2959 130.157 26.2959H178.88C179.135 26.2959 179.38 26.3973 179.56 26.5776C179.74 26.758 179.842 27.0025 179.842 27.2575C179.842 27.5126 179.74 27.7573 179.56 27.9376C179.38 28.1179 179.135 28.2192 178.88 28.2192Z" fill="white"/>
<path d="M122.144 28.2192H107.719C107.464 28.2192 107.22 28.1179 107.04 27.9376C106.859 27.7573 106.758 27.5126 106.758 27.2575C106.758 27.0025 106.859 26.758 107.04 26.5776C107.22 26.3973 107.464 26.2959 107.719 26.2959H122.144C122.399 26.2959 122.644 26.3973 122.824 26.5776C123.004 26.758 123.106 27.0025 123.106 27.2575C123.106 27.5126 123.004 27.7573 122.824 27.9376C122.644 28.1179 122.399 28.2192 122.144 28.2192Z" fill="white"/>
<path d="M325.209 42.9641H325.138C325.076 42.9555 325.016 42.9345 324.962 42.9026C324.907 42.8706 324.86 42.8284 324.822 42.778C324.784 42.7277 324.757 42.6703 324.741 42.6093C324.726 42.5483 324.722 42.4847 324.731 42.4224C324.731 42.3134 326.187 31.5911 320.061 24.4398C316.458 20.2374 310.964 18.0609 303.713 17.968C303.586 17.968 303.463 17.9173 303.373 17.8271C303.283 17.7369 303.232 17.6147 303.232 17.4872C303.232 17.3596 303.283 17.2374 303.373 17.1472C303.463 17.057 303.586 17.0063 303.713 17.0063C311.243 17.1025 316.981 19.3945 320.769 23.8212C327.18 31.306 325.722 42.0922 325.658 42.557C325.641 42.666 325.587 42.766 325.505 42.8401C325.424 42.9143 325.319 42.958 325.209 42.9641Z" fill="#1D1D1B"/>
<path d="M281.936 17.9616H236.418C236.291 17.9616 236.169 17.9109 236.078 17.8208C235.988 17.7306 235.938 17.6083 235.938 17.4808C235.938 17.3533 235.988 17.231 236.078 17.1409C236.169 17.0507 236.291 17 236.418 17H281.936C282.063 17 282.186 17.0507 282.276 17.1409C282.366 17.231 282.417 17.3533 282.417 17.4808C282.417 17.6083 282.366 17.7306 282.276 17.8208C282.186 17.9109 282.063 17.9616 281.936 17.9616Z" fill="#1D1D1B"/>
<path d="M113.199 137.605C92.0431 137.926 72.8104 138.567 66.72 166.134C60.6296 193.701 76.8172 276.562 78.7405 287.46C80.6637 298.359 223.627 290.986 223.627 290.986C223.627 290.986 249.11 249.796 201.029 227.679C152.947 205.561 156.473 171.583 148.78 152.991C141.087 134.4 113.199 137.605 113.199 137.605Z" fill="#4BD657"/>
<path d="M135.823 293.91C122.264 293.91 110.984 293.637 102.166 293.092C81.4012 291.81 78.5836 289.316 78.2726 287.547C78.122 286.694 77.8817 285.396 77.574 283.719C66.326 222.55 62.5083 182.953 66.2555 166.034C69.0763 153.261 74.7531 145.375 84.1195 141.218C92.6203 137.442 103.067 137.282 113.174 137.128C118.193 136.697 123.247 136.943 128.201 137.858C138.747 139.881 146.017 145.055 149.229 152.812C150.899 156.848 152.056 161.656 153.284 166.746C157.928 186.011 163.708 209.984 201.234 227.246C216.28 234.169 225.717 243.664 229.275 255.473C234.747 273.622 224.147 291.07 224.041 291.243L223.909 291.457H223.656C223.297 291.477 187.495 293.307 151.915 293.781C146.241 293.867 140.877 293.91 135.823 293.91ZM117.873 137.884C115.084 137.884 113.276 138.083 113.241 138.086H113.196C92.6588 138.407 73.2626 138.692 67.1786 166.24C63.4667 183.033 67.278 222.499 78.5035 283.543C78.824 285.223 79.0515 286.521 79.2022 287.39C79.4234 288.649 82.709 290.945 102.208 292.143C114.292 292.887 131.006 293.121 151.892 292.842C185.87 292.39 220.037 290.698 223.339 290.534C224.518 288.499 233.369 272.407 228.342 255.752C224.865 244.212 215.604 234.916 200.824 228.13C183.989 220.386 171.975 210.555 164.057 198.076C157.242 187.325 154.64 176.516 152.341 166.983C151.12 161.931 149.969 157.158 148.331 153.2C144.44 143.801 135.144 140.195 128.031 138.827C124.686 138.195 121.29 137.878 117.886 137.881L117.873 137.884Z" fill="black"/>
<path d="M211.01 241.981C219.838 235.089 189.3 228.938 182.947 217.225C170.125 207.859 163.243 197.393 158.999 187.258C136.605 164.839 108.032 144.257 99.3515 138.176C95.5242 138.525 101.595 138.387 98.1782 139.407C99.4316 143.048 105.032 150.549 100.422 153.511C91.4468 159.28 77.6633 198.708 89.203 214.735C100.743 230.762 105.871 223.39 112.923 236.532C119.975 249.674 174.468 270.51 211.01 241.981Z" fill="#25BF2C"/>
<path d="M170.095 205.721C141.246 228.159 103.656 218.312 118.167 233.929C143.365 261.051 170.589 240.132 178.429 222.069C182.359 213.017 170.095 205.721 170.095 205.721Z" fill="#382256"/>
<path d="M144.167 247.43C134.897 247.43 125.873 242.943 117.815 234.272C115.074 231.323 114.058 229.143 114.609 227.4C115.571 224.425 120.812 223.351 128.762 221.726C140.205 219.386 155.88 216.181 169.791 205.359L170.051 205.157L170.333 205.324C170.458 205.401 182.915 212.946 178.863 222.277C174.427 232.493 163.223 244.587 149.107 247.004C147.475 247.287 145.823 247.429 144.167 247.43ZM170.131 206.324C156.098 217.123 139.785 220.457 128.967 222.671C121.623 224.172 116.318 225.258 115.539 227.695C115.103 229.05 116.081 230.99 118.527 233.621C126.396 242.09 135.195 246.469 144.186 246.469C145.787 246.468 147.385 246.332 148.962 246.062C162.727 243.703 173.66 231.884 177.997 221.899C181.382 214.062 171.885 207.449 170.125 206.308L170.131 206.324Z" fill="#1D1E1B"/>
<path d="M121.693 143.215C121.693 143.215 135.742 134.458 167.255 183.482C170.849 189.072 177.01 197.967 175.91 202.073C171.102 220.024 129.995 219.768 118.487 226.877C104.851 235.304 74.5503 164.916 109.192 145.138L121.693 143.215Z" fill="#07ACEE"/>
<path d="M116.057 228.051C114.827 228.016 113.626 227.67 112.567 227.044C103.681 222.127 92.8339 199.182 92.6928 178.061C92.6191 167.128 95.3822 152.469 108.954 144.725C109.005 144.696 109.06 144.677 109.118 144.667L121.536 142.744C122.177 142.423 125.847 140.82 132.883 144.529C142.845 149.796 154.545 162.8 167.659 183.213C167.979 183.726 168.342 184.27 168.71 184.835C172.39 190.495 177.429 198.253 176.374 202.189C173.147 214.235 154.654 218.13 138.338 221.566C130.264 223.265 122.632 224.871 118.74 227.278C117.937 227.784 117.007 228.052 116.057 228.051ZM109.355 145.6C96.2509 153.129 93.5839 167.397 93.648 178.055C93.7859 198.862 104.361 221.409 113.025 226.201C114.999 227.294 116.75 227.384 118.227 226.47C122.266 223.973 129.62 222.425 138.133 220.633C153.385 217.428 172.364 213.427 175.438 201.948C176.381 198.422 171.271 190.569 167.896 185.367C167.531 184.802 167.175 184.258 166.845 183.742C150.734 158.681 139.342 149.123 132.62 145.494C125.424 141.622 121.971 143.606 121.939 143.625C121.884 143.658 121.823 143.681 121.76 143.693L109.355 145.6Z" fill="#1D1D1B"/>
<path d="M99.2517 158.156C98.7388 158.156 98.2195 158.133 97.697 158.091C92.9975 157.73 88.6212 155.56 85.4875 152.04C83.9632 150.347 82.8008 148.361 82.0715 146.203C81.3423 144.045 81.0616 141.76 81.2467 139.49C82.0288 130.047 90.6739 123.027 100.527 123.841C105.228 124.201 109.606 126.371 112.74 129.893C114.265 131.585 115.427 133.572 116.156 135.73C116.884 137.888 117.164 140.172 116.978 142.442C116.241 151.382 108.435 158.156 99.2517 158.156ZM82.205 139.564C82.0309 141.705 82.296 143.859 82.9839 145.894C83.6718 147.929 84.768 149.802 86.2055 151.398C89.1758 154.734 93.3239 156.787 97.7772 157.126C98.2708 157.168 98.7645 157.188 99.2517 157.188C107.948 157.188 115.324 150.799 116.019 142.359C116.194 140.218 115.929 138.065 115.241 136.03C114.553 133.996 113.457 132.123 112.019 130.528C109.05 127.19 104.901 125.136 100.447 124.796C91.1259 124.024 82.9423 130.653 82.205 139.564Z" fill="#1D1E1B"/>
<path d="M172.706 191.495C180.758 192.034 185.4 184.296 188.91 178.353C193.862 169.971 202.11 147.776 198.6 141.458C195.09 135.14 190.089 136.426 190.089 136.426L188.432 131.198L169.44 132.954L169.76 136.64C169.76 136.64 163.51 135.877 163.01 145.936C162.689 152.626 162.67 161.688 163.827 165.38C163.827 165.38 142.379 138.532 123.021 142.76" fill="#07ACEE"/>
<path d="M173.508 192.002C173.235 192.002 172.96 192.002 172.678 191.976C172.615 191.972 172.553 191.955 172.496 191.927C172.44 191.899 172.389 191.86 172.347 191.812C172.305 191.765 172.274 191.709 172.253 191.65C172.233 191.59 172.225 191.526 172.229 191.463C172.233 191.4 172.25 191.338 172.278 191.282C172.306 191.225 172.345 191.174 172.392 191.133C172.44 191.091 172.495 191.059 172.555 191.039C172.615 191.018 172.679 191.01 172.742 191.014C180.566 191.543 185.153 183.777 188.5 178.109C193.776 169.176 201.495 147.657 198.184 141.689C194.911 135.794 190.404 136.842 190.212 136.881C190.093 136.91 189.967 136.894 189.86 136.834C189.753 136.775 189.672 136.677 189.635 136.56L188.093 131.704L169.963 133.377L170.242 136.583C170.248 136.654 170.239 136.726 170.214 136.793C170.189 136.86 170.149 136.921 170.097 136.97C170.046 137.02 169.984 137.057 169.917 137.08C169.849 137.103 169.777 137.11 169.706 137.102C168.469 137.041 167.256 137.467 166.328 138.288C164.629 139.73 163.674 142.311 163.494 145.955C163.148 152.946 163.174 161.678 164.292 165.233C164.324 165.34 164.317 165.454 164.274 165.557C164.231 165.659 164.154 165.744 164.055 165.796C163.957 165.848 163.844 165.865 163.735 165.844C163.625 165.822 163.527 165.764 163.456 165.678C163.244 165.409 141.979 139.108 123.128 143.24C123.066 143.254 123.002 143.255 122.94 143.244C122.877 143.232 122.818 143.209 122.765 143.175C122.711 143.141 122.665 143.096 122.629 143.044C122.593 142.992 122.568 142.934 122.554 142.872C122.541 142.81 122.539 142.746 122.551 142.684C122.562 142.621 122.585 142.562 122.619 142.508C122.654 142.455 122.698 142.409 122.75 142.373C122.802 142.337 122.861 142.311 122.923 142.298C130.984 140.538 140.687 143.933 150.986 152.116C155.296 155.582 159.294 159.418 162.933 163.582C162.218 159.271 162.234 151.946 162.532 145.923C162.728 141.987 163.815 139.169 165.738 137.551C166.726 136.706 167.966 136.213 169.264 136.147L168.988 132.993C168.978 132.866 169.017 132.739 169.099 132.642C169.18 132.544 169.297 132.482 169.424 132.47L188.416 130.717C188.524 130.706 188.633 130.731 188.724 130.789C188.815 130.848 188.884 130.935 188.92 131.037L190.452 135.871C191.824 135.717 196.023 135.756 199.049 141.208C202.783 147.94 194.148 170.467 189.356 178.58C185.968 184.283 181.406 192.002 173.508 192.002Z" fill="#1D1D1B"/>
<path d="M170.302 136.865C170.302 136.865 175.988 144.375 190.07 136.778L188.31 131.649L170.129 133.281L170.302 136.865Z" fill="#0598C6"/>
<path d="M172.006 150.084C172.915 149.95 173.544 149.104 173.411 148.193C173.277 147.283 172.432 146.652 171.523 146.785C170.614 146.918 169.985 147.765 170.118 148.675C170.252 149.586 171.097 150.217 172.006 150.084Z" fill="#51CEF4"/>
<path d="M192.649 148.685C193.558 148.552 194.187 147.705 194.053 146.794C193.92 145.884 193.075 145.253 192.166 145.386C191.256 145.519 190.628 146.366 190.761 147.277C190.894 148.187 191.739 148.818 192.649 148.685Z" fill="#51CEF4"/>
<path d="M178.467 178.736C179.376 178.602 180.005 177.756 179.872 176.845C179.738 175.934 178.893 175.304 177.984 175.437C177.075 175.57 176.446 176.416 176.579 177.327C176.713 178.238 177.558 178.869 178.467 178.736Z" fill="#51CEF4"/>
<path d="M181.863 163.426C182.773 163.293 183.401 162.447 183.268 161.536C183.135 160.625 182.29 159.995 181.38 160.128C180.471 160.261 179.842 161.107 179.976 162.018C180.109 162.929 180.954 163.559 181.863 163.426Z" fill="#51CEF4"/>
<path d="M163.207 162.111L166.454 177.456L163.207 162.111Z" fill="#07ACEE"/>
<path d="M166.454 177.936C166.345 177.936 166.238 177.898 166.153 177.828C166.068 177.759 166.009 177.662 165.986 177.555L162.727 162.21L163.666 162.008L166.926 177.353C166.939 177.415 166.941 177.478 166.929 177.541C166.918 177.603 166.895 177.662 166.86 177.715C166.826 177.768 166.782 177.814 166.73 177.85C166.678 177.885 166.619 177.911 166.557 177.924C166.524 177.932 166.489 177.937 166.454 177.936Z" fill="#1D1D1B"/>
<path d="M157.641 170.019C157.641 170.019 170.783 185.726 175.912 200.791L157.641 170.019Z" fill="#07ACEE"/>
<path d="M175.912 201.272C175.812 201.272 175.715 201.242 175.633 201.184C175.552 201.127 175.49 201.046 175.457 200.952C170.418 186.149 157.404 170.5 157.272 170.333C157.228 170.285 157.194 170.229 157.172 170.167C157.15 170.106 157.141 170.041 157.146 169.976C157.15 169.91 157.167 169.847 157.197 169.789C157.226 169.731 157.267 169.679 157.317 169.637C157.367 169.596 157.425 169.564 157.488 169.546C157.55 169.527 157.616 169.521 157.681 169.529C157.745 169.536 157.808 169.557 157.865 169.589C157.921 169.622 157.97 169.665 158.01 169.718C158.141 169.875 171.267 185.665 176.367 200.644C176.388 200.704 176.397 200.767 176.393 200.83C176.388 200.893 176.372 200.955 176.344 201.011C176.316 201.068 176.277 201.118 176.229 201.16C176.181 201.201 176.126 201.233 176.066 201.253C176.016 201.267 175.964 201.273 175.912 201.272Z" fill="#1D1D1B"/>
<path d="M117.531 142.551C118.257 133.758 111.997 126.063 103.547 125.366C95.0979 124.668 87.6598 131.231 86.9337 140.025C86.2077 148.818 92.4687 156.512 100.918 157.209C109.367 157.907 116.805 151.344 117.531 142.551Z" fill="#382256"/>
<path d="M102.226 157.829C101.8 157.829 101.374 157.809 100.944 157.774C92.2445 157.056 85.7727 149.119 86.5196 140.07L87.0004 140.112L86.5196 140.07C86.8515 135.749 88.8505 131.726 92.0939 128.851C93.6562 127.452 95.487 126.386 97.4748 125.717C99.4626 125.049 101.566 124.792 103.656 124.963C112.356 125.684 118.827 133.618 118.081 142.667C117.75 146.988 115.751 151.012 112.506 153.886C109.68 156.418 106.021 157.821 102.226 157.829ZM102.377 125.883C98.8162 125.892 95.3825 127.208 92.7286 129.582C89.6715 132.293 87.7886 136.086 87.4781 140.16C86.7761 148.674 92.8536 156.152 101.024 156.828C102.986 156.989 104.959 156.748 106.824 156.121C108.689 155.493 110.407 154.491 111.872 153.177C114.93 150.467 116.813 146.674 117.122 142.599C117.824 134.082 111.747 126.607 103.576 125.931C103.175 125.899 102.775 125.883 102.377 125.883Z" fill="#1D1E1B"/>
<path d="M151.227 178.673C151.227 178.673 167.254 170.019 174.498 178.673C181.743 187.328 172.895 196.477 172.895 196.477L171.174 193.739L157.878 195.662L151.227 178.673Z" fill="#FFCDB2"/>
<path d="M172.813 197.252L170.932 194.258L157.568 196.182L150.625 178.442L151 178.241C151.667 177.878 167.447 169.502 174.868 178.356C182.288 187.209 173.329 196.707 173.239 196.8L172.813 197.252ZM171.416 193.22L172.961 195.681C174.611 193.758 180.199 186.225 174.131 178.981C167.816 171.448 154.257 177.699 151.833 178.904L158.183 195.133L171.416 193.22Z" fill="#1D1E1B"/>
<path d="M175.133 201.544L152.461 208.42C151.664 208.662 150.986 209.192 150.559 209.906C150.131 210.621 149.986 211.469 150.15 212.286L150.496 214.001C150.587 214.45 150.77 214.876 151.033 215.252C151.295 215.628 151.632 215.947 152.023 216.187C152.414 216.427 152.85 216.585 153.304 216.65C153.758 216.715 154.221 216.686 154.663 216.565L178.383 209.997C178.897 209.854 179.369 209.589 179.761 209.226C180.152 208.863 180.451 208.412 180.632 207.911C180.814 207.409 180.873 206.871 180.804 206.342C180.736 205.813 180.542 205.308 180.239 204.868L178.832 202.846C178.431 202.268 177.857 201.831 177.193 201.597C176.529 201.363 175.808 201.345 175.133 201.544Z" fill="white"/>
<path d="M153.782 217.168C152.898 217.169 152.039 216.864 151.354 216.304C150.669 215.744 150.2 214.964 150.025 214.097L149.679 212.382C149.488 211.448 149.653 210.475 150.143 209.656C150.632 208.838 151.41 208.232 152.324 207.958L174.996 201.086C175.771 200.85 176.6 200.866 177.365 201.131C178.13 201.397 178.791 201.898 179.253 202.563L180.657 204.586C181.006 205.088 181.23 205.667 181.31 206.274C181.39 206.88 181.323 207.497 181.115 208.073C180.907 208.648 180.565 209.166 180.116 209.581C179.667 209.997 179.125 210.299 178.535 210.462L154.814 217.03C154.478 217.123 154.131 217.169 153.782 217.168ZM175.275 202.006L152.603 208.878C151.919 209.083 151.336 209.537 150.969 210.149C150.603 210.762 150.479 211.49 150.622 212.19L150.968 213.908C151.048 214.292 151.206 214.657 151.432 214.978C151.658 215.3 151.948 215.572 152.283 215.777C152.618 215.983 152.991 216.118 153.38 216.174C153.769 216.23 154.166 216.206 154.545 216.103L178.266 209.535C178.708 209.414 179.114 209.189 179.452 208.879C179.789 208.568 180.046 208.181 180.203 207.751C180.36 207.32 180.412 206.858 180.354 206.403C180.295 205.949 180.129 205.515 179.868 205.138L178.461 203.115C178.116 202.616 177.622 202.24 177.049 202.04C176.476 201.841 175.855 201.829 175.275 202.006Z" fill="black"/>
<path d="M246.752 258.489L245.425 281.049C245.425 281.049 260.17 284.255 261.292 296.621H210.931L209.248 256.874L246.752 258.489Z" fill="#382256"/>
<path d="M261.817 297.115H210.469L208.744 256.406L247.261 258.053L245.927 280.703C248.335 281.344 260.737 285.191 261.772 296.602L261.817 297.115ZM211.392 296.153H260.756C259.313 284.707 245.466 281.565 245.322 281.533L244.921 281.447L246.242 258.961L209.751 257.403L211.392 296.153Z" fill="#1D1E1B"/>
<path d="M175.129 167.214L169.562 198.544C169.401 199.449 169.454 200.379 169.717 201.259C169.981 202.14 170.447 202.946 171.078 203.614C171.71 204.281 172.489 204.792 173.354 205.104C174.218 205.416 175.143 205.521 176.056 205.41L219.663 200.147C220.902 199.998 222.062 199.457 222.974 198.605C223.886 197.753 224.504 196.633 224.737 195.406L231.026 162.329C231.199 161.404 231.148 160.452 230.877 159.551C230.606 158.651 230.123 157.828 229.468 157.153C228.813 156.477 228.006 155.969 227.115 155.67C226.223 155.371 225.272 155.29 224.343 155.434L180.002 162.448C178.795 162.638 177.678 163.2 176.805 164.054C175.932 164.908 175.347 166.012 175.129 167.214Z" fill="white"/>
<path d="M175.332 205.936C174.404 205.933 173.488 205.727 172.648 205.333C171.808 204.938 171.065 204.365 170.47 203.652C169.875 202.94 169.443 202.106 169.204 201.21C168.966 200.313 168.926 199.375 169.088 198.461L174.659 167.131L175.13 167.214L174.659 167.131C174.891 165.828 175.522 164.629 176.467 163.703C177.412 162.776 178.622 162.167 179.929 161.96L224.27 154.947C225.278 154.787 226.309 154.873 227.277 155.196C228.245 155.519 229.121 156.07 229.831 156.802C230.541 157.535 231.064 158.428 231.357 159.405C231.649 160.383 231.702 161.416 231.511 162.419L225.222 195.502C224.973 196.83 224.307 198.044 223.319 198.967C222.332 199.889 221.076 200.472 219.734 200.631L176.115 205.894C175.855 205.924 175.594 205.938 175.332 205.936ZM175.605 167.297L170.037 198.628C169.889 199.458 169.938 200.312 170.18 201.121C170.422 201.929 170.85 202.67 171.429 203.283C172.009 203.897 172.724 204.365 173.518 204.652C174.311 204.939 175.161 205.037 175.999 204.936L219.619 199.669C220.758 199.535 221.825 199.041 222.663 198.258C223.502 197.474 224.068 196.444 224.28 195.316L230.562 162.239C230.724 161.388 230.679 160.51 230.43 159.68C230.182 158.85 229.737 158.092 229.134 157.47C228.531 156.848 227.787 156.38 226.965 156.106C226.143 155.832 225.267 155.76 224.411 155.896L180.073 162.909C178.962 163.083 177.932 163.599 177.128 164.386C176.323 165.172 175.784 166.19 175.586 167.297H175.605Z" fill="black"/>
<path d="M246.109 258.489L209.246 256.566L210.208 280.287C221.561 282.636 233.348 282.437 245.468 280.287L246.109 258.489Z" fill="white"/>
<path d="M227.159 282.466C221.433 282.482 215.721 281.909 210.112 280.758C210.007 280.736 209.912 280.68 209.842 280.598C209.772 280.516 209.732 280.413 209.728 280.306L208.766 256.585C208.764 256.518 208.775 256.452 208.8 256.389C208.825 256.327 208.862 256.27 208.91 256.223C208.958 256.177 209.015 256.141 209.077 256.117C209.139 256.093 209.206 256.083 209.272 256.085L246.135 258.009C246.26 258.015 246.378 258.071 246.463 258.163C246.548 258.255 246.594 258.377 246.59 258.502L245.949 280.299C245.946 280.41 245.904 280.517 245.832 280.601C245.76 280.685 245.661 280.741 245.552 280.761C239.483 281.868 233.328 282.439 227.159 282.466ZM210.673 279.902C221.351 282.056 232.589 282.053 245 279.902L245.616 258.967L209.75 257.095L210.673 279.902Z" fill="#1D1D1B"/>
<path d="M244.834 196.868L265.638 205.702C265.638 205.702 273.613 192.88 285.637 195.99L268.712 243.43L230.721 231.66L244.834 196.868Z" fill="#382256"/>
<path d="M269.01 244.02L230.08 231.958L244.575 196.236L265.459 205.103C266.872 203.051 274.668 192.665 285.759 195.525L286.268 195.656L269.01 244.02ZM231.365 231.349L268.414 242.828L285.005 196.332C273.748 193.848 266.122 205.83 266.045 205.949L265.83 206.298L245.098 197.496L231.365 231.349Z" fill="#1D1E1B"/>
<path d="M244.62 197.473L230.42 231.544L253.083 238.612C259.452 228.559 263.504 217.214 264.943 205.4L244.62 197.473Z" fill="white"/>
<path d="M253.082 239.096C253.034 239.095 252.987 239.087 252.941 239.074L230.275 232.022C230.212 232.001 230.153 231.968 230.103 231.924C230.053 231.88 230.012 231.826 229.984 231.765C229.956 231.704 229.941 231.638 229.941 231.571C229.941 231.505 229.956 231.438 229.984 231.378L244.184 197.304C244.232 197.188 244.324 197.095 244.44 197.046C244.555 196.997 244.685 196.995 244.802 197.041L265.115 204.971C265.215 205.01 265.299 205.081 265.353 205.172C265.408 205.264 265.43 205.372 265.417 205.478C263.958 217.357 259.887 228.766 253.496 238.885C253.45 238.952 253.388 239.006 253.316 239.043C253.244 239.08 253.163 239.099 253.082 239.096ZM231.067 231.246L252.864 238.045C259 228.229 262.937 217.201 264.404 205.718L244.876 198.095L231.067 231.246Z" fill="#1D1D1B"/>
<path d="M161.441 215.337C161.441 215.337 185.482 180.719 210.484 184.245C233.243 187.45 255.04 201.233 255.04 201.233C253.501 220.146 240.615 229.762 240.615 229.762L216.857 220.306C216.857 220.306 174.887 252.841 151.504 254.765C128.12 256.688 116.885 232.647 116.885 232.647" fill="#382256"/>
<path d="M148.898 255.355C138 255.355 129.986 249.713 125.085 244.777C121.611 241.273 118.698 237.254 116.45 232.862C116.423 232.804 116.408 232.743 116.405 232.68C116.402 232.616 116.412 232.553 116.433 232.494C116.455 232.435 116.488 232.38 116.531 232.333C116.573 232.287 116.625 232.249 116.682 232.222C116.739 232.196 116.801 232.18 116.864 232.178C116.927 232.175 116.99 232.184 117.05 232.206C117.109 232.228 117.164 232.261 117.21 232.303C117.257 232.346 117.295 232.397 117.321 232.455C119.528 236.755 122.385 240.689 125.79 244.119C130.945 249.303 139.574 255.274 151.466 254.297C174.439 252.405 216.146 220.261 216.562 219.937C216.628 219.885 216.707 219.852 216.79 219.84C216.874 219.828 216.959 219.839 217.037 219.87L240.536 229.224C242.18 227.887 253.037 218.463 254.537 201.496C252.063 199.98 231.522 187.713 210.417 184.732C197.692 182.94 185.178 191.406 176.924 198.836C171.333 203.904 166.277 209.532 161.836 215.632C161.801 215.688 161.756 215.736 161.702 215.773C161.649 215.81 161.588 215.837 161.524 215.85C161.46 215.863 161.395 215.863 161.331 215.85C161.267 215.837 161.206 215.811 161.153 215.774C161.099 215.736 161.054 215.689 161.019 215.633C160.985 215.578 160.962 215.516 160.952 215.452C160.942 215.387 160.945 215.321 160.962 215.258C160.978 215.195 161.007 215.136 161.047 215.084C165.527 208.929 170.627 203.249 176.266 198.134C184.678 190.572 197.455 181.943 210.565 183.789C233.167 186.972 255.092 200.708 255.31 200.849C255.385 200.895 255.445 200.96 255.484 201.038C255.524 201.116 255.541 201.204 255.534 201.291C253.996 220.203 241.049 230.07 240.917 230.169C240.851 230.218 240.774 230.249 240.693 230.26C240.612 230.27 240.529 230.26 240.453 230.23L216.947 220.873C215.37 222.082 205.446 229.608 193.227 237.244C175.359 248.395 161.342 254.46 151.556 255.265C150.645 255.319 149.761 255.355 148.898 255.355Z" fill="#1D1E1B"/>
<path d="M114.92 194.079C127.062 170.163 145.093 179.731 145.093 179.731L150.981 178.257L158.28 195.662L154.754 199.509C162.126 216.802 130.742 220.575 114.551 223.149C98.3604 225.723 85.9168 201.073 89.6832 177.071C92.2476 160.723 100.412 146.619 112.442 143.734" fill="#07ACEE"/>
<path d="M112.222 223.816C107.837 223.816 103.609 221.893 99.8742 218.165C91.1586 209.465 86.7703 192.537 89.2097 176.997C90.5303 168.567 93.2645 160.992 97.1111 155.088C101.243 148.747 106.506 144.661 112.331 143.266C112.455 143.236 112.586 143.257 112.694 143.324C112.803 143.391 112.881 143.498 112.911 143.622C112.941 143.746 112.92 143.877 112.853 143.986C112.786 144.094 112.679 144.172 112.555 144.202C106.974 145.536 101.913 149.482 97.9157 155.614C94.1429 161.403 91.4599 168.849 90.1585 177.145C87.7672 192.403 92.0401 208.988 100.554 217.485C104.743 221.652 109.558 223.457 114.478 222.675L117.334 222.229C130.137 220.242 149.485 217.242 154.277 208.619C155.72 206.029 155.729 203.029 154.312 199.698C154.277 199.613 154.266 199.52 154.281 199.429C154.296 199.338 154.337 199.254 154.399 199.185L157.72 195.563L150.697 178.834L145.212 180.206C145.097 180.234 144.975 180.219 144.869 180.164C144.805 180.132 138.369 176.802 130.781 179.202C124.636 181.155 119.443 186.232 115.35 194.297C115.293 194.411 115.192 194.497 115.071 194.537C114.95 194.577 114.818 194.567 114.704 194.51C114.59 194.453 114.504 194.352 114.464 194.231C114.424 194.11 114.434 193.978 114.491 193.864C118.713 185.553 124.107 180.308 130.518 178.279C135.35 176.782 140.563 177.117 145.164 179.219L150.879 177.792C150.99 177.764 151.108 177.777 151.21 177.828C151.312 177.879 151.393 177.965 151.437 178.071L158.736 195.477C158.772 195.561 158.783 195.654 158.768 195.744C158.752 195.835 158.711 195.919 158.649 195.986L155.329 199.608C156.745 203.112 156.681 206.301 155.133 209.087C150.11 218.12 130.483 221.165 117.495 223.191L114.642 223.637C113.841 223.76 113.032 223.82 112.222 223.816Z" fill="#1D1D1B"/>
<path d="M171.084 248.072L207.28 240.331L209.524 266.615C221.942 268.426 234.138 268.343 246.066 265.974C246.066 265.974 249.913 240.331 241.578 226.227C228.811 204.619 198.625 231.676 198.625 231.676L171.084 248.072Z" fill="#382256"/>
<path d="M226.359 268.356C220.702 268.347 215.054 267.928 209.457 267.103L209.079 267.048L206.835 240.927L168.318 249.162L198.328 231.298C199.45 230.297 216.403 215.453 230.293 217.594C235.203 218.354 239.136 221.178 241.98 225.993C250.314 240.081 246.57 265.798 246.531 266.061L246.48 266.381L246.16 266.445C239.638 267.728 233.006 268.368 226.359 268.356ZM209.973 266.205C222.401 267.978 234.396 267.766 245.637 265.58C246.044 262.525 248.807 239.411 241.15 226.473C238.46 221.918 234.758 219.248 230.145 218.537C216.528 216.434 199.107 231.878 198.93 232.035L198.857 232.089L173.829 247.001L207.701 239.757L209.973 266.205Z" fill="#1D1E1B"/>
<path d="M127.142 142.253C127.142 142.253 130.001 141.814 131.995 144.055C134.56 146.94 133.329 154.232 126.225 150.786C126.225 150.786 121.529 156.062 116.288 153.671C111.743 151.597 107.419 145.978 112.121 144.055C118.132 141.59 127.142 142.253 127.142 142.253Z" fill="white"/>
<path d="M119.083 154.767C118.049 154.768 117.027 154.542 116.089 154.107C112.929 152.668 109.554 149.382 109.608 146.59C109.624 145.661 110.044 144.388 111.938 143.609C117.814 141.199 126.318 141.715 127.129 141.772C127.575 141.715 130.335 141.477 132.354 143.734C133.979 145.564 134.168 148.805 132.758 150.671C131.988 151.687 130.142 153.094 126.331 151.366C125.485 152.206 122.603 154.767 119.083 154.767ZM124.379 142.657C121.273 142.657 116.131 142.93 112.304 144.5C111.169 144.965 110.586 145.673 110.57 146.609C110.528 148.68 113.294 151.777 116.487 153.235C121.337 155.447 125.821 150.517 125.866 150.466L126.106 150.196L126.427 150.353C128.956 151.578 130.915 151.485 131.982 150.091C133.12 148.587 132.944 145.863 131.629 144.375C131.073 143.774 130.383 143.311 129.616 143.026C128.848 142.74 128.023 142.639 127.209 142.731H127.155H127.1C127.078 142.731 126.007 142.657 124.379 142.657Z" fill="#1D1E1B"/>
<path d="M127.424 101.758C127.802 97.176 124.4 93.1553 119.825 92.7776C115.251 92.3998 111.235 95.8081 110.857 100.39C110.479 104.972 113.881 108.992 118.455 109.37C123.03 109.748 127.046 106.34 127.424 101.758Z" fill="#382256"/>
<path d="M119.2 109.971C117.855 109.971 116.529 109.659 115.325 109.061C113.764 108.29 112.466 107.074 111.596 105.567C110.726 104.059 110.321 102.327 110.435 100.59C110.548 98.8529 111.173 97.1883 112.232 95.8063C113.29 94.4243 114.735 93.387 116.382 92.8253C117.474 92.45 118.63 92.2953 119.782 92.3701C120.935 92.445 122.06 92.7478 123.095 93.2612C124.876 94.1423 126.307 95.5996 127.155 97.3965C128.004 99.1934 128.22 101.224 127.769 103.16C127.318 105.095 126.226 106.821 124.671 108.057C123.115 109.294 121.187 109.968 119.2 109.971ZM119.219 93.3028C117.293 93.2966 115.431 93.9997 113.989 95.2777C112.547 96.5558 111.626 98.3196 111.401 100.233C111.176 102.147 111.663 104.076 112.769 105.654C113.875 107.232 115.522 108.347 117.398 108.788C119.274 109.229 121.246 108.965 122.939 108.045C124.632 107.126 125.928 105.615 126.579 103.802C127.23 101.989 127.192 99.9991 126.471 98.2124C125.749 96.4257 124.396 94.967 122.668 94.1139C121.595 93.5862 120.415 93.312 119.219 93.3125V93.3028Z" fill="#1D1E1B"/>
<path d="M142.661 126.816C142.661 126.816 148.396 121.738 145.886 116.558C143.376 111.378 142.039 111.843 140.885 109.029C139.731 106.214 134.657 103.429 130.045 104.81C130.045 104.81 124.275 100.56 119.101 101.945C113.928 103.329 112.142 105.826 110.703 109.897C109.264 113.968 107.818 115.779 106.699 118.607C105.581 121.434 103.962 129.364 115.033 135.095C126.105 140.827 142.661 126.816 142.661 126.816Z" fill="#382256"/>
<path d="M121.075 136.971C118.899 137.002 116.748 136.507 114.805 135.528C103.038 129.438 105.282 120.905 106.25 118.44C106.714 117.298 107.244 116.184 107.836 115.103C108.778 113.381 109.584 111.588 110.247 109.74C111.712 105.602 113.609 102.926 118.975 101.489C123.832 100.185 129.053 103.544 130.134 104.291C134.814 103.009 140.051 105.708 141.33 108.856C141.705 109.778 142.264 110.614 142.975 111.311C143.831 112.25 144.898 113.42 146.318 116.353C148.956 121.802 143.225 126.96 142.981 127.178C142.414 127.662 131.259 136.971 121.075 136.971ZM121.287 102.156C120.591 102.153 119.898 102.241 119.226 102.416C114.241 103.753 112.542 106.134 111.154 110.064C110.474 111.953 109.65 113.786 108.689 115.549C108.115 116.599 107.599 117.681 107.144 118.789C106.25 121.068 104.192 128.947 115.247 134.672C125.825 140.157 141.987 126.755 142.346 126.454C142.513 126.3 147.744 121.501 145.452 116.773C144.09 113.965 143.077 112.853 142.263 111.965C141.476 111.184 140.856 110.251 140.439 109.224C139.417 106.705 134.669 103.942 130.182 105.285L129.954 105.352L129.759 105.211C129.711 105.169 125.556 102.156 121.287 102.156Z" fill="#1D1E1B"/>
<path d="M121.864 121.594H121.835C118.129 121.674 114.494 118.119 114.344 117.969C114.291 117.913 114.263 117.84 114.264 117.763C114.265 117.687 114.295 117.614 114.349 117.56C114.402 117.506 114.474 117.474 114.55 117.472C114.627 117.47 114.701 117.498 114.757 117.549C114.792 117.584 118.37 121.075 121.809 121.001C121.888 121 121.963 121.03 122.02 121.085C122.076 121.14 122.109 121.214 122.11 121.293C122.113 121.364 122.089 121.434 122.044 121.49C121.998 121.545 121.934 121.582 121.864 121.594Z" fill="black"/>
<path d="M127.521 140.625L127.842 144.792C127.842 144.792 121.472 153.863 112.475 143.756C112.475 143.756 115.821 138.288 117.677 128.8C117.677 128.8 113.51 128.159 113.936 124.421C114.363 120.684 117.286 119.889 119.094 120.78C119.094 120.78 126.216 125.136 132.326 110.429C132.326 110.429 139.775 112.978 141.734 120.411C143.692 127.845 142.731 136.653 137.118 139.509C131.505 142.365 127.521 140.625 127.521 140.625Z" fill="#FFCDB2"/>
<path d="M120.953 149.023C118.01 149.023 115.042 147.362 112.122 144.083L111.885 143.817L112.071 143.497C112.103 143.445 115.276 138.163 117.119 129.165C115.481 128.742 113.119 127.354 113.465 124.357C113.673 122.527 114.501 121.132 115.786 120.43C116.325 120.138 116.925 119.978 117.538 119.962C118.151 119.947 118.759 120.076 119.312 120.341L119.35 120.36C119.418 120.401 121.088 121.376 123.485 120.587C125.652 119.873 128.871 117.497 131.884 110.237L132.057 109.82L132.483 109.964C132.804 110.073 140.199 112.686 142.202 120.28C144.125 127.572 143.423 136.833 137.339 139.926C132.925 142.17 129.492 141.673 128.044 141.285L128.329 144.917L128.229 145.058C128.124 145.208 125.591 148.747 121.392 148.991C121.258 149.023 121.104 149.023 120.953 149.023ZM113.074 143.702C115.856 146.741 118.632 148.19 121.341 148.052C124.639 147.866 126.867 145.276 127.354 144.654L126.979 139.846L127.713 140.166C127.765 140.189 131.592 141.769 136.907 139.076C142.221 136.384 143.161 127.684 141.276 120.533C139.673 114.443 134.156 111.711 132.592 111.048C130.089 116.904 127.117 120.424 123.758 121.517C121.065 122.392 119.116 121.341 118.873 121.196C118.459 121.004 118.006 120.911 117.55 120.926C117.094 120.94 116.648 121.062 116.248 121.28C115.536 121.668 114.645 122.536 114.42 124.485C114.048 127.713 117.607 128.306 117.76 128.332L118.254 128.409L118.158 128.899C116.53 137.214 113.808 142.41 113.074 143.705V143.702Z" fill="#1D1E1B"/>
<path d="M117.594 127.075C117.541 127.082 117.487 127.074 117.439 127.052C117.39 127.03 117.348 126.995 117.319 126.95C116.418 125.633 116.155 124.517 116.543 123.633C117.097 122.351 118.771 122.091 118.841 122.081C118.919 122.069 118.997 122.089 119.061 122.135C119.124 122.181 119.166 122.251 119.178 122.328C119.19 122.406 119.17 122.484 119.124 122.547C119.078 122.611 119.008 122.653 118.931 122.665C118.912 122.665 117.505 122.895 117.081 123.87C116.787 124.556 117.027 125.473 117.806 126.614C117.849 126.679 117.866 126.759 117.852 126.836C117.837 126.913 117.793 126.982 117.729 127.027C117.688 127.053 117.642 127.07 117.594 127.075Z" fill="black"/>
<path d="M132.963 122.318C128.755 123.113 123.158 121.139 122.151 122.613C121.145 124.088 121.831 126.111 124.091 126.662C126.35 127.213 128.601 127.197 133.217 126.944C137.832 126.691 142.336 126.095 141.871 123.617C141.407 121.139 139.153 121.152 132.963 122.318Z" fill="#FFB49F"/>
<path d="M117.278 128.799C117.34 128.049 116.784 127.391 116.036 127.329C115.288 127.268 114.631 127.825 114.569 128.575C114.507 129.325 115.064 129.983 115.812 130.045C116.56 130.106 117.216 129.549 117.278 128.799Z" fill="#07ACEE"/>
<path d="M115.996 127.412C116.204 127.412 116.409 127.46 116.595 127.553C116.872 127.688 117.096 127.914 117.228 128.192C117.361 128.471 117.395 128.786 117.325 129.087C117.255 129.387 117.085 129.655 116.843 129.846C116.601 130.038 116.301 130.141 115.992 130.14C115.784 130.14 115.579 130.092 115.393 129.999C115.119 129.862 114.898 129.636 114.768 129.358C114.637 129.08 114.604 128.767 114.674 128.468C114.744 128.169 114.912 127.902 115.152 127.711C115.391 127.519 115.689 127.414 115.996 127.412ZM115.996 126.45C115.424 126.449 114.873 126.658 114.446 127.038C114.018 127.417 113.746 127.941 113.68 128.508C113.614 129.076 113.758 129.648 114.087 130.115C114.415 130.583 114.904 130.913 115.46 131.043C116.016 131.174 116.601 131.095 117.103 130.822C117.605 130.549 117.989 130.101 118.182 129.563C118.375 129.025 118.363 128.436 118.149 127.906C117.935 127.376 117.534 126.944 117.021 126.691C116.702 126.533 116.352 126.451 115.996 126.45Z" fill="#1D1D1B"/>
<path d="M130.352 136.285C130.249 136.285 130.146 136.285 130.047 136.285C127.935 136.092 126.463 133.961 126.402 133.868C126.339 133.762 126.319 133.637 126.345 133.517C126.372 133.397 126.443 133.291 126.545 133.222C126.647 133.153 126.771 133.126 126.893 133.146C127.014 133.166 127.123 133.231 127.197 133.329C127.197 133.345 128.48 135.179 130.137 135.326C130.951 135.4 131.74 135.041 132.522 134.262C132.565 134.215 132.618 134.176 132.677 134.149C132.735 134.123 132.799 134.108 132.863 134.106C132.928 134.105 132.992 134.116 133.052 134.14C133.112 134.163 133.167 134.199 133.213 134.244C133.259 134.289 133.295 134.343 133.32 134.402C133.345 134.462 133.357 134.526 133.357 134.591C133.356 134.655 133.343 134.719 133.317 134.778C133.292 134.837 133.254 134.891 133.208 134.935C132.317 135.826 131.358 136.285 130.352 136.285Z" fill="#1D1D1B"/>
<path d="M135.766 129.941C135.663 129.941 135.564 129.908 135.481 129.848C135.399 129.787 135.338 129.702 135.307 129.604L133.269 123.081C133.246 123.02 133.236 122.955 133.239 122.889C133.242 122.824 133.258 122.76 133.287 122.701C133.316 122.643 133.356 122.59 133.406 122.548C133.456 122.505 133.514 122.473 133.576 122.454C133.639 122.434 133.704 122.428 133.769 122.435C133.834 122.442 133.897 122.462 133.954 122.494C134.011 122.526 134.061 122.569 134.101 122.621C134.141 122.673 134.17 122.733 134.185 122.796L136.224 129.319C136.243 129.38 136.249 129.443 136.244 129.507C136.238 129.57 136.219 129.631 136.189 129.687C136.16 129.743 136.119 129.793 136.07 129.833C136.021 129.873 135.964 129.904 135.904 129.922C135.859 129.934 135.812 129.941 135.766 129.941Z" fill="#1D1D1B"/>
<path d="M140.17 119.212C140.104 119.212 140.039 119.199 139.978 119.172C139.917 119.146 139.863 119.107 139.818 119.059C139.795 119.033 137.436 116.494 135.888 117.821C135.841 117.867 135.784 117.903 135.723 117.926C135.661 117.949 135.596 117.96 135.53 117.956C135.464 117.953 135.4 117.937 135.341 117.908C135.282 117.879 135.229 117.838 135.187 117.788C135.144 117.738 135.112 117.679 135.093 117.616C135.074 117.553 135.068 117.487 135.075 117.422C135.083 117.357 135.103 117.293 135.136 117.236C135.169 117.179 135.213 117.13 135.266 117.09C137.51 115.167 140.395 118.273 140.526 118.408C140.59 118.476 140.633 118.562 140.649 118.655C140.664 118.747 140.653 118.842 140.615 118.928C140.577 119.014 140.514 119.087 140.435 119.137C140.356 119.188 140.264 119.214 140.17 119.212Z" fill="black"/>
<path d="M124.534 120.059C124.441 120.059 124.349 120.032 124.271 119.981C124.193 119.93 124.132 119.858 124.094 119.772C124.056 119.687 124.044 119.593 124.059 119.501C124.074 119.409 124.115 119.323 124.178 119.254C125.14 118.183 126.165 117.619 127.198 117.571C127.923 117.536 128.635 117.774 129.195 118.238C129.241 118.281 129.279 118.332 129.306 118.39C129.332 118.447 129.347 118.509 129.35 118.572C129.352 118.636 129.342 118.699 129.32 118.758C129.297 118.817 129.264 118.871 129.22 118.918C129.134 119.01 129.014 119.064 128.888 119.07C128.762 119.075 128.638 119.031 128.544 118.946C128.384 118.805 126.941 117.642 124.89 119.908C124.844 119.956 124.788 119.994 124.727 120.02C124.666 120.046 124.6 120.059 124.534 120.059Z" fill="black"/>
<path d="M128.119 140.824C128.119 140.824 124.785 139.695 123.041 138.147L128.119 140.824Z" fill="#4BD657"/>
<path d="M128.119 141.304C128.067 141.304 128.015 141.295 127.966 141.279C127.824 141.231 124.52 140.102 122.721 138.506C122.626 138.421 122.569 138.302 122.561 138.174C122.554 138.047 122.598 137.922 122.683 137.826C122.768 137.731 122.887 137.674 123.015 137.667C123.142 137.659 123.267 137.703 123.362 137.788C125.013 139.253 128.244 140.352 128.276 140.368C128.384 140.405 128.475 140.479 128.534 140.576C128.592 140.674 128.614 140.789 128.596 140.902C128.577 141.014 128.52 141.116 128.433 141.19C128.346 141.264 128.236 141.304 128.122 141.304H128.119Z" fill="black"/>
<path d="M140.366 129.505C140.216 129.505 140.065 129.499 139.914 129.486C139.209 129.428 138.523 129.233 137.894 128.91C137.265 128.587 136.706 128.143 136.249 127.604C135.792 127.065 135.446 126.441 135.231 125.767C135.015 125.094 134.934 124.385 134.993 123.681C135.079 122.639 135.467 121.645 136.108 120.82C136.75 119.995 137.618 119.374 138.606 119.034C139.594 118.694 140.66 118.649 141.674 118.905C142.687 119.161 143.604 119.706 144.313 120.474C145.022 121.242 145.491 122.2 145.665 123.231C145.838 124.262 145.707 125.321 145.288 126.279C144.87 127.236 144.181 128.052 143.307 128.624C142.433 129.197 141.411 129.503 140.366 129.505ZM135.952 123.761C135.867 124.78 136.138 125.797 136.719 126.639C137.3 127.48 138.155 128.095 139.138 128.376C140.122 128.658 141.172 128.59 142.111 128.185C143.049 127.779 143.819 127.06 144.287 126.151C144.755 125.242 144.893 124.198 144.678 123.198C144.463 122.198 143.908 121.304 143.108 120.667C142.308 120.031 141.311 119.692 140.288 119.707C139.266 119.723 138.28 120.093 137.5 120.754C137.056 121.128 136.691 121.587 136.425 122.103C136.159 122.619 135.998 123.182 135.952 123.761Z" fill="#1D1E1B"/>
<path d="M128.351 130.387C128.199 130.387 128.049 130.38 127.899 130.367C126.477 130.249 125.161 129.571 124.238 128.483C123.315 127.394 122.863 125.984 122.979 124.562C123.065 123.521 123.452 122.527 124.094 121.701C124.735 120.876 125.603 120.256 126.592 119.916C127.58 119.575 128.646 119.531 129.659 119.786C130.673 120.042 131.59 120.587 132.299 121.356C133.007 122.124 133.477 123.082 133.65 124.113C133.823 125.144 133.693 126.202 133.274 127.16C132.855 128.118 132.167 128.933 131.293 129.506C130.418 130.079 129.396 130.385 128.351 130.387ZM128.335 120.588C127.227 120.588 126.159 121.005 125.345 121.756C124.53 122.508 124.027 123.538 123.937 124.642C123.865 125.514 124.054 126.387 124.478 127.151C124.902 127.915 125.544 128.537 126.321 128.937C127.098 129.337 127.977 129.497 128.845 129.397C129.714 129.298 130.534 128.943 131.2 128.378C131.867 127.813 132.352 127.063 132.592 126.222C132.833 125.382 132.819 124.489 132.552 123.656C132.285 122.824 131.777 122.089 131.093 121.545C130.408 121.001 129.578 120.673 128.707 120.6C128.582 120.591 128.457 120.588 128.335 120.588Z" fill="#1D1E1B"/>
<path d="M123.459 125.081C123.34 125.08 123.226 125.034 123.139 124.953L119.01 121.107C118.963 121.064 118.925 121.012 118.898 120.954C118.872 120.897 118.856 120.834 118.854 120.77C118.851 120.707 118.862 120.643 118.884 120.584C118.906 120.524 118.94 120.47 118.983 120.423C119.027 120.377 119.079 120.339 119.137 120.313C119.195 120.287 119.258 120.273 119.322 120.271C119.385 120.269 119.448 120.28 119.508 120.303C119.567 120.326 119.621 120.361 119.667 120.405L123.796 124.251C123.865 124.317 123.914 124.401 123.935 124.495C123.956 124.588 123.949 124.685 123.914 124.774C123.88 124.863 123.82 124.94 123.742 124.994C123.663 125.049 123.571 125.08 123.475 125.081H123.459Z" fill="#1D1E1B"/>
<path d="M133.243 125.546C133.163 125.548 133.085 125.528 133.016 125.489C132.905 125.429 132.823 125.328 132.786 125.208C132.75 125.088 132.762 124.959 132.82 124.848C133.387 123.793 134.833 123.86 135.596 124.065C135.719 124.099 135.824 124.179 135.888 124.29C135.952 124.4 135.969 124.532 135.936 124.655C135.903 124.778 135.822 124.884 135.711 124.947C135.6 125.011 135.469 125.028 135.346 124.995C135.346 124.995 134.012 124.674 133.666 125.316C133.622 125.388 133.56 125.448 133.486 125.488C133.412 125.529 133.328 125.549 133.243 125.546Z" fill="#1D1E1B"/>
<path d="M112.683 102.444H112.642C112.536 102.439 112.433 102.413 112.338 102.368C112.243 102.323 112.157 102.259 112.087 102.181C112.016 102.102 111.962 102.011 111.927 101.911C111.892 101.812 111.876 101.707 111.882 101.601C112.036 98.7967 112.956 96.6587 114.623 95.2515C117.094 93.1647 120.271 93.5045 120.392 93.5206C120.605 93.5448 120.799 93.6524 120.932 93.8198C121.066 93.9872 121.127 94.2006 121.103 94.4132C121.078 94.6257 120.971 94.82 120.803 94.9531C120.636 95.0863 120.422 95.1475 120.21 95.1233C120.181 95.1233 117.565 94.8604 115.632 96.4984C114.325 97.6107 113.597 99.3609 113.472 101.701C113.456 101.901 113.367 102.087 113.221 102.225C113.075 102.362 112.884 102.44 112.683 102.444Z" fill="white"/>
<path d="M162.707 113.705L168.182 137.105C168.182 137.105 175.423 140.384 181.193 135.823L182.078 112.321L162.707 113.705Z" fill="#4BD657"/>
<path d="M173.962 138.74C171.91 138.732 169.879 138.324 167.984 137.538L167.766 137.442L162.111 113.266L182.578 111.814L181.665 136.073L181.492 136.211C179.344 137.889 176.687 138.782 173.962 138.74ZM168.593 136.749C169.795 137.22 175.824 139.288 180.722 135.592L181.575 112.833L163.304 114.116L168.593 136.749Z" fill="black"/>
<path d="M164.137 119.821L167.022 132.22C171.448 132.185 177.148 131.287 181.379 130.486L181.824 118.594C175.523 119.783 168.781 119.924 164.137 119.821Z" fill="white"/>
<path d="M166.659 132.704L163.527 119.328H164.149C168.695 119.427 175.442 119.295 181.75 118.106L182.343 117.997L181.859 130.877L181.484 130.947C177.388 131.72 171.547 132.653 167.041 132.688L166.659 132.704ZM164.736 120.315L167.409 131.733C171.66 131.653 177.006 130.816 180.917 130.085L181.327 119.187C175.403 120.228 169.172 120.385 164.745 120.315H164.736Z" fill="#1D1E1B"/>
<path d="M164.012 109.856L165.49 107.878C165.709 107.583 166.026 107.376 166.384 107.291C168.07 106.894 173.311 105.83 178.564 106.596C178.801 106.63 179.027 106.718 179.225 106.853C179.423 106.988 179.587 107.166 179.706 107.374L180.616 108.977L164.012 109.856Z" fill="white"/>
<path d="M163.012 110.388L165.105 107.589C165.393 107.207 165.806 106.936 166.272 106.823C168.243 106.359 173.391 105.355 178.648 106.121C178.957 106.167 179.252 106.282 179.51 106.458C179.768 106.634 179.983 106.867 180.139 107.137L181.421 109.42L163.012 110.388ZM174.664 106.81C171.913 106.83 169.173 107.152 166.493 107.772C166.246 107.832 166.027 107.976 165.874 108.179L165.012 109.333L179.828 108.554L179.302 107.625C179.219 107.481 179.104 107.359 178.967 107.265C178.83 107.172 178.674 107.111 178.51 107.086C177.236 106.902 175.951 106.81 174.664 106.81Z" fill="#1D1E1B"/>
<path d="M162.565 110.089L161.177 113.026C161.098 113.195 161.064 113.382 161.08 113.568C161.096 113.754 161.16 113.932 161.267 114.086C161.373 114.239 161.518 114.362 161.686 114.442C161.855 114.522 162.042 114.557 162.228 114.542L182.801 112.801C182.99 112.786 183.171 112.72 183.326 112.61C183.482 112.501 183.605 112.352 183.683 112.179C183.761 112.006 183.791 111.815 183.771 111.626C183.751 111.438 183.68 111.258 183.567 111.106L181.724 108.634C181.616 108.491 181.475 108.376 181.312 108.302C181.149 108.227 180.97 108.195 180.791 108.208L163.462 109.49C163.273 109.501 163.09 109.562 162.932 109.667C162.774 109.773 162.647 109.919 162.565 110.089Z" fill="white"/>
<path d="M162.135 115.026C161.875 115.025 161.62 114.958 161.392 114.832C161.165 114.706 160.973 114.525 160.834 114.305C160.695 114.085 160.614 113.834 160.599 113.574C160.583 113.315 160.633 113.056 160.744 112.821L162.129 109.884C162.246 109.637 162.426 109.426 162.651 109.271C162.876 109.116 163.138 109.024 163.411 109.003L180.74 107.721C180.999 107.701 181.259 107.747 181.495 107.854C181.732 107.962 181.937 108.128 182.092 108.336L183.935 110.807C184.1 111.029 184.202 111.29 184.231 111.564C184.261 111.837 184.217 112.114 184.104 112.365C183.991 112.617 183.813 112.833 183.588 112.993C183.364 113.152 183.101 113.249 182.826 113.273L162.267 115.01L162.135 115.026ZM180.858 108.686H180.813L163.485 109.968C163.383 109.973 163.284 110.006 163.199 110.062C163.114 110.119 163.045 110.197 163.001 110.288L161.613 113.224C161.569 113.317 161.55 113.42 161.559 113.522C161.567 113.624 161.603 113.722 161.661 113.806C161.72 113.89 161.799 113.958 161.892 114.001C161.985 114.045 162.088 114.063 162.19 114.055L182.749 112.317C182.853 112.308 182.952 112.272 183.037 112.211C183.121 112.151 183.188 112.069 183.23 111.975C183.273 111.88 183.289 111.776 183.278 111.673C183.267 111.569 183.228 111.471 183.166 111.388L181.323 108.913C181.269 108.842 181.198 108.784 181.118 108.744C181.037 108.705 180.948 108.685 180.858 108.686Z" fill="#1D1E1B"/>
<path d="M181.905 134.441C181.905 134.441 187.777 135.428 189.992 128.992C192.207 122.555 192.258 115.917 188.623 112.109C184.988 108.301 180.876 108.243 178.247 109.628C175.619 111.013 175.276 113.971 177.664 116.904C177.664 116.904 173.625 120.164 178.132 125.072C176.398 125.783 175.154 131.204 180.398 131.755C180.642 132.773 181.163 133.703 181.905 134.441Z" fill="#FFCDB2"/>
<path d="M182.698 134.97C182.407 134.974 182.117 134.956 181.829 134.916L181.672 134.89L181.563 134.778C180.845 134.056 180.314 133.169 180.018 132.194C177.851 131.874 176.466 130.63 176.2 128.768C175.992 127.328 176.521 125.738 177.406 124.976C176.043 123.354 175.415 121.725 175.534 120.135C175.643 118.906 176.167 117.751 177.021 116.859C175.848 115.285 175.37 113.654 175.665 112.186C175.805 111.542 176.091 110.94 176.5 110.424C176.909 109.907 177.43 109.492 178.024 109.208C180.63 107.833 185.06 107.682 188.974 111.772C192.407 115.372 192.959 121.866 190.449 129.146C188.65 134.371 184.509 134.97 182.698 134.97ZM182.14 133.989C183.057 134.089 187.657 134.31 189.542 128.841C191.933 121.905 191.465 115.776 188.279 112.442C184.753 108.74 180.906 108.782 178.473 110.057C178.006 110.277 177.595 110.6 177.272 111.002C176.948 111.404 176.721 111.875 176.608 112.378C176.348 113.66 176.858 115.154 178.037 116.603L178.358 116.978L177.98 117.282C177.14 118.043 176.614 119.09 176.505 120.219C176.402 121.671 177.072 123.196 178.499 124.751L178.967 125.258L178.326 125.521C177.636 125.803 176.963 127.255 177.162 128.633C177.377 130.14 178.547 131.079 180.457 131.281L180.8 131.316L180.877 131.636C181.084 132.518 181.52 133.329 182.14 133.989Z" fill="black"/>
<path d="M187.383 118.892C187.263 118.889 187.149 118.842 187.062 118.76C186.899 118.606 182.966 115.016 177.254 117.517C177.137 117.568 177.004 117.571 176.885 117.525C176.766 117.478 176.67 117.387 176.619 117.27C176.567 117.153 176.565 117.02 176.611 116.901C176.657 116.782 176.749 116.687 176.866 116.635C178.625 115.823 180.579 115.525 182.5 115.777C184.421 116.029 186.232 116.82 187.723 118.058C187.815 118.146 187.869 118.267 187.873 118.394C187.876 118.522 187.829 118.645 187.742 118.738C187.697 118.788 187.641 118.827 187.579 118.854C187.517 118.88 187.45 118.893 187.383 118.892Z" fill="#1D1D1B"/>
<path d="M178.075 125.598C177.966 125.598 177.86 125.561 177.774 125.494C177.689 125.426 177.629 125.331 177.604 125.225C177.58 125.119 177.592 125.008 177.639 124.909C177.686 124.811 177.765 124.732 177.863 124.684C181.27 122.992 186.197 124.194 186.418 124.245C186.538 124.279 186.639 124.359 186.701 124.466C186.763 124.574 186.782 124.702 186.752 124.822C186.722 124.943 186.646 125.047 186.541 125.114C186.436 125.18 186.309 125.203 186.188 125.178C186.139 125.178 181.379 124.011 178.289 125.546C178.223 125.58 178.149 125.598 178.075 125.598Z" fill="#1D1D1B"/>
<path d="M182.354 132.463C181.586 132.46 180.821 132.373 180.072 132.204C179.953 132.169 179.851 132.09 179.789 131.982C179.727 131.875 179.709 131.747 179.739 131.626C179.769 131.506 179.844 131.401 179.949 131.335C180.054 131.269 180.181 131.246 180.303 131.271C180.335 131.271 183.303 131.992 184.957 130.864C185.063 130.792 185.192 130.765 185.317 130.789C185.443 130.813 185.554 130.885 185.625 130.991C185.697 131.096 185.724 131.226 185.701 131.351C185.677 131.476 185.604 131.587 185.499 131.659C184.576 132.287 183.386 132.463 182.354 132.463Z" fill="#1D1D1B"/>
<path d="M189.284 116.154C189.126 116.155 188.971 116.109 188.839 116.022C188.707 115.934 188.605 115.81 188.544 115.664C188.524 115.616 187.239 112.66 184.402 111.497C182.636 110.785 180.613 110.904 178.382 111.853C178.187 111.938 177.965 111.941 177.767 111.863C177.569 111.785 177.41 111.631 177.325 111.436C177.24 111.24 177.236 111.019 177.314 110.821C177.392 110.622 177.546 110.463 177.741 110.378C180.386 109.253 182.828 109.131 185.005 110.019C188.473 111.429 189.948 114.882 190.008 115.029C190.06 115.151 190.08 115.283 190.068 115.414C190.056 115.546 190.011 115.672 189.938 115.782C189.865 115.892 189.766 115.982 189.65 116.044C189.533 116.106 189.403 116.139 189.271 116.138L189.284 116.154Z" fill="white"/>
<path d="M187.464 121.735C187.346 121.735 187.229 121.709 187.122 121.659C187.015 121.608 186.92 121.535 186.845 121.443C186.708 121.277 183.614 117.638 178.8 119.594C178.701 119.638 178.596 119.661 178.488 119.663C178.381 119.665 178.274 119.646 178.174 119.605C178.074 119.565 177.984 119.505 177.908 119.429C177.831 119.354 177.771 119.263 177.731 119.163C177.69 119.064 177.67 118.957 177.672 118.85C177.674 118.742 177.697 118.636 177.741 118.538C177.784 118.439 177.847 118.351 177.925 118.277C178.004 118.204 178.096 118.147 178.197 118.11C184.13 115.699 188.047 120.379 188.086 120.427C188.22 120.592 188.283 120.804 188.261 121.015C188.239 121.226 188.135 121.421 187.971 121.556C187.828 121.673 187.649 121.736 187.464 121.735Z" fill="white"/>
<path d="M129.673 126.425C130.159 126.425 130.554 126.03 130.554 125.543C130.554 125.056 130.159 124.662 129.673 124.662C129.186 124.662 128.791 125.056 128.791 125.543C128.791 126.03 129.186 126.425 129.673 126.425Z" fill="#1D1D1B"/>
<path d="M138.727 125.944C139.17 125.944 139.529 125.585 139.529 125.142C139.529 124.7 139.17 124.341 138.727 124.341C138.285 124.341 137.926 124.7 137.926 125.142C137.926 125.585 138.285 125.944 138.727 125.944Z" fill="#1D1D1B"/>
<path d="M106.442 161.332C107.351 161.199 107.979 160.352 107.846 159.442C107.713 158.531 106.868 157.9 105.959 158.033C105.049 158.167 104.421 159.013 104.554 159.924C104.687 160.834 105.532 161.465 106.442 161.332Z" fill="#51CEF4"/>
<path d="M96.8224 178.64C97.7315 178.507 98.3603 177.661 98.227 176.75C98.0936 175.839 97.2485 175.209 96.3394 175.342C95.4303 175.475 94.8015 176.321 94.9348 177.232C95.0682 178.143 95.9133 178.773 96.8224 178.64Z" fill="#51CEF4"/>
<path d="M129.199 170.63C130.108 170.497 130.737 169.651 130.604 168.74C130.471 167.829 129.625 167.199 128.716 167.332C127.807 167.465 127.178 168.311 127.312 169.222C127.445 170.133 128.29 170.763 129.199 170.63Z" fill="#51CEF4"/>
<path d="M104.514 201.08C105.423 200.947 106.052 200.1 105.918 199.19C105.785 198.279 104.94 197.648 104.031 197.781C103.122 197.915 102.493 198.761 102.626 199.672C102.76 200.582 103.605 201.213 104.514 201.08Z" fill="#51CEF4"/>
<path d="M129.195 214.546C130.105 214.413 130.733 213.567 130.6 212.656C130.467 211.745 129.622 211.115 128.712 211.248C127.803 211.381 127.175 212.227 127.308 213.138C127.441 214.049 128.286 214.68 129.195 214.546Z" fill="#51CEF4"/>
<path d="M136.25 194.351C137.159 194.218 137.788 193.372 137.655 192.461C137.521 191.55 136.676 190.92 135.767 191.053C134.858 191.186 134.229 192.032 134.363 192.943C134.496 193.854 135.341 194.484 136.25 194.351Z" fill="#51CEF4"/>
<path d="M145.547 161.337C146.456 161.204 147.085 160.357 146.952 159.446C146.818 158.536 145.973 157.905 145.064 158.038C144.155 158.171 143.526 159.018 143.659 159.928C143.793 160.839 144.638 161.47 145.547 161.337Z" fill="#51CEF4"/>
<path d="M145.138 180.276C145.138 180.276 142.574 194.06 154.434 199.509L157.639 195.662L150.587 178.674L145.138 180.276Z" fill="#0598C6"/>
<path d="M172.546 182.36C172.468 182.359 172.391 182.341 172.322 182.305L169.293 180.703C169.237 180.673 169.187 180.633 169.146 180.584C169.106 180.536 169.076 180.479 169.057 180.419C169.019 180.297 169.031 180.165 169.091 180.052C169.15 179.939 169.252 179.854 169.374 179.816C169.496 179.778 169.628 179.79 169.741 179.85L172.77 181.453C172.866 181.502 172.942 181.583 172.986 181.681C173.031 181.78 173.041 181.89 173.015 181.994C172.989 182.099 172.929 182.192 172.844 182.258C172.759 182.324 172.654 182.36 172.546 182.36Z" fill="#1D1E1B"/>
<path d="M171.472 188.293C171.413 188.293 171.355 188.282 171.299 188.261L168.366 187.136C168.307 187.113 168.254 187.079 168.208 187.035C168.162 186.992 168.125 186.94 168.1 186.882C168.048 186.765 168.045 186.633 168.091 186.514C168.137 186.395 168.228 186.299 168.345 186.247C168.461 186.196 168.594 186.192 168.713 186.238L171.646 187.363C171.75 187.404 171.838 187.479 171.893 187.577C171.948 187.675 171.966 187.79 171.946 187.9C171.925 188.011 171.866 188.11 171.78 188.182C171.694 188.254 171.585 188.293 171.472 188.293Z" fill="#1D1E1B"/>
<path d="M204.041 179.242C204.591 177.374 203.798 175.494 202.269 175.044C200.741 174.594 199.056 175.744 198.506 177.612C197.956 179.48 198.749 181.359 200.277 181.809C201.806 182.259 203.491 181.11 204.041 179.242Z" fill="white"/>
<path d="M200.91 182.312C200.636 182.313 200.364 182.274 200.102 182.196C198.323 181.674 197.381 179.523 198.006 177.388C198.631 175.253 200.57 173.971 202.365 174.503C204.16 175.035 205.086 177.177 204.461 179.312C203.932 181.107 202.439 182.312 200.91 182.312ZM201.551 175.353C200.442 175.353 199.339 176.292 198.932 177.673C198.458 179.276 199.105 180.898 200.378 181.273C201.65 181.648 203.07 180.632 203.542 179.029C204.016 177.427 203.368 175.805 202.096 175.43C201.918 175.377 201.733 175.351 201.548 175.353H201.551Z" fill="black"/>
<path d="M59.8734 299.038C59.7459 299.038 59.6236 298.988 59.5334 298.897C59.4433 298.807 59.3926 298.685 59.3926 298.557C59.3926 298.43 59.4433 298.308 59.5334 298.217C59.6236 298.127 59.7459 298.077 59.8734 298.077L324.644 296.153C324.772 296.153 324.894 296.204 324.984 296.294C325.074 296.384 325.125 296.507 325.125 296.634C325.125 296.762 325.074 296.884 324.984 296.974C324.894 297.064 324.772 297.115 324.644 297.115L59.8734 299.038Z" fill="black"/>
<path d="M341.634 288.46H314.067C313.939 288.46 313.817 288.41 313.727 288.32C313.637 288.229 313.586 288.107 313.586 287.98C313.586 287.852 313.637 287.73 313.727 287.64C313.817 287.549 313.939 287.499 314.067 287.499H341.634C341.761 287.499 341.883 287.549 341.974 287.64C342.064 287.73 342.114 287.852 342.114 287.98C342.114 288.107 342.064 288.229 341.974 288.32C341.883 288.41 341.761 288.46 341.634 288.46Z" fill="black"/>
<path d="M200.271 162.486C200.059 162.501 199.849 162.431 199.688 162.292C199.527 162.152 199.428 161.955 199.412 161.742C199.397 161.53 199.467 161.32 199.606 161.159C199.746 160.998 199.943 160.898 200.156 160.883L217.786 158.319C217.893 158.297 218.003 158.297 218.11 158.32C218.216 158.342 218.317 158.386 218.407 158.449C218.496 158.511 218.571 158.591 218.628 158.684C218.685 158.777 218.723 158.881 218.739 158.989C218.754 159.096 218.748 159.206 218.72 159.312C218.691 159.417 218.642 159.515 218.575 159.601C218.507 159.686 218.423 159.757 218.327 159.809C218.231 159.861 218.125 159.893 218.017 159.902L200.387 162.467C200.349 162.476 200.31 162.483 200.271 162.486Z" fill="white"/>
<path d="M221.429 158.96C221.324 158.968 221.218 158.955 221.118 158.922C221.017 158.889 220.925 158.837 220.845 158.768C220.683 158.629 220.583 158.432 220.567 158.219C220.551 158.007 220.619 157.797 220.758 157.635C220.897 157.473 221.095 157.373 221.307 157.357L225.474 156.716C225.58 156.697 225.688 156.699 225.792 156.722C225.897 156.746 225.996 156.79 226.083 156.852C226.17 156.914 226.244 156.993 226.3 157.084C226.356 157.175 226.394 157.277 226.41 157.383C226.426 157.489 226.421 157.597 226.395 157.7C226.369 157.804 226.322 157.902 226.258 157.987C226.193 158.073 226.112 158.144 226.019 158.198C225.927 158.252 225.824 158.286 225.718 158.3L221.551 158.941L221.429 158.96Z" fill="white"/>
<path d="M189.054 192.297C188.884 192.296 188.718 192.242 188.581 192.141C188.444 192.041 188.343 191.9 188.291 191.738C188.24 191.576 188.241 191.402 188.295 191.241C188.35 191.079 188.453 190.94 188.592 190.841C188.752 190.726 192.657 188.001 199.75 186.543C206.257 185.206 216.797 184.738 230.064 190.111C230.261 190.191 230.419 190.346 230.502 190.542C230.585 190.737 230.586 190.958 230.507 191.156C230.427 191.353 230.272 191.51 230.076 191.593C229.88 191.676 229.659 191.678 229.462 191.598C204.831 181.619 189.666 192.043 189.515 192.149C189.381 192.246 189.219 192.297 189.054 192.297Z" fill="white"/>
<path d="M268.549 206.401C268.409 206.402 268.272 206.366 268.151 206.297C268.029 206.228 267.928 206.129 267.857 206.009C267.786 205.889 267.748 205.753 267.746 205.613C267.744 205.474 267.779 205.337 267.847 205.215C267.997 204.939 271.664 198.448 280.909 196.797C281.115 196.766 281.326 196.817 281.495 196.939C281.665 197.06 281.78 197.243 281.817 197.449C281.854 197.654 281.809 197.866 281.692 198.039C281.575 198.211 281.395 198.332 281.191 198.374C272.729 199.887 269.283 205.926 269.251 205.987C269.181 206.112 269.079 206.217 268.956 206.289C268.832 206.362 268.692 206.401 268.549 206.401Z" fill="white"/>
<path d="M258.292 294.871C258.136 294.871 257.984 294.826 257.854 294.741C257.724 294.656 257.621 294.535 257.558 294.393C254.221 286.809 244.7 283.969 244.604 283.941C244.503 283.911 244.409 283.862 244.327 283.796C244.245 283.73 244.177 283.649 244.126 283.557C244.076 283.464 244.044 283.363 244.032 283.258C244.021 283.154 244.03 283.048 244.059 282.947C244.089 282.846 244.138 282.752 244.204 282.67C244.27 282.588 244.351 282.519 244.443 282.469C244.536 282.418 244.637 282.386 244.742 282.375C244.846 282.363 244.952 282.373 245.053 282.402C245.473 282.524 255.391 285.486 259.026 293.746C259.111 293.941 259.116 294.161 259.039 294.36C258.962 294.558 258.81 294.718 258.615 294.804C258.513 294.848 258.403 294.871 258.292 294.871Z" fill="white"/>
<path d="M120.777 191.015C120.638 191.014 120.501 190.978 120.38 190.909C120.289 190.857 120.209 190.788 120.144 190.705C120.08 190.622 120.033 190.527 120.005 190.426C119.977 190.325 119.97 190.219 119.983 190.115C119.996 190.011 120.03 189.91 120.082 189.819C120.149 189.694 127.259 177.491 141.44 180.129C141.649 180.168 141.834 180.289 141.954 180.464C142.074 180.64 142.12 180.856 142.081 181.065C142.042 181.274 141.921 181.459 141.746 181.579C141.57 181.7 141.354 181.745 141.145 181.706C128.105 179.279 121.739 190.146 121.473 190.611C121.403 190.733 121.301 190.835 121.179 190.906C121.057 190.977 120.919 191.014 120.777 191.015Z" fill="white"/>
<path d="M70.3179 275.908L73.1708 296.102C73.4529 298.086 74.8569 299.532 76.4981 299.532H97.1892C98.7919 299.532 100.196 298.125 100.5 296.179L104.026 273.686C104.446 271.02 102.69 268.59 100.478 268.779L73.3951 271.09C71.4142 271.247 69.9685 273.494 70.3179 275.908Z" fill="#07ACEE"/>
<path d="M97.1901 300H76.4989C74.6109 300 73.0113 298.397 72.6971 296.153L69.8412 275.959C69.733 275.264 69.7669 274.554 69.941 273.873C70.1151 273.191 70.4257 272.552 70.854 271.994C71.1538 271.599 71.5316 271.269 71.9638 271.026C72.3961 270.783 72.8738 270.631 73.3672 270.58L100.453 268.272C100.985 268.233 101.519 268.317 102.013 268.519C102.506 268.72 102.947 269.033 103.3 269.433C103.812 270.013 104.187 270.7 104.398 271.445C104.608 272.19 104.648 272.972 104.515 273.734L100.989 296.224C100.636 298.42 99.0428 300 97.1901 300ZM70.7931 275.84L73.6492 296.035C73.896 297.782 75.0949 299.051 76.4989 299.051H97.1901C98.5652 299.051 99.7545 297.811 100.027 296.105L103.553 273.613C103.661 272.995 103.631 272.362 103.465 271.758C103.299 271.153 103 270.594 102.591 270.119C102.337 269.826 102.019 269.596 101.662 269.447C101.304 269.298 100.917 269.234 100.53 269.26L73.4473 271.567C73.0837 271.607 72.7321 271.721 72.4145 271.903C72.0968 272.084 71.8199 272.329 71.6009 272.622C71.2575 273.08 71.0089 273.601 70.8696 274.156C70.7304 274.711 70.7034 275.288 70.79 275.853L70.7931 275.84Z" fill="#1D1D1B"/>
<path d="M67.8405 263.102L65.382 271.927C64.789 274.052 66.0807 276.264 67.9143 276.257L107.05 276.132C108.893 276.132 110.175 273.888 109.563 271.766L106.998 262.922C106.62 261.611 105.607 260.736 104.473 260.74L70.3504 260.884C69.2189 260.893 68.2092 261.778 67.8405 263.102Z" fill="#07ACEE"/>
<path d="M67.9083 276.738C67.4509 276.731 67.0017 276.617 66.5968 276.404C66.1919 276.191 65.8428 275.886 65.5779 275.513C65.1938 274.985 64.9349 274.375 64.8205 273.732C64.7061 273.088 64.7394 272.427 64.9177 271.798L67.3763 262.971C67.8026 261.442 69.0014 260.406 70.3573 260.406L104.476 260.259C105.819 260.259 107.018 261.275 107.454 262.788L110.018 271.632C110.201 272.262 110.239 272.926 110.128 273.573C110.017 274.22 109.76 274.833 109.377 275.366C109.113 275.744 108.764 276.054 108.357 276.271C107.95 276.487 107.498 276.605 107.037 276.613L67.9019 276.738H67.9083ZM104.489 261.214L70.3701 261.361C69.4502 261.361 68.6232 262.112 68.3122 263.224L65.8537 272.048C65.7125 272.535 65.6839 273.048 65.7699 273.548C65.856 274.048 66.0545 274.521 66.3505 274.933C66.5298 275.186 66.7652 275.394 67.0382 275.541C67.3112 275.688 67.6146 275.769 67.9244 275.78L107.06 275.655C107.371 275.645 107.676 275.561 107.95 275.412C108.223 275.262 108.458 275.05 108.634 274.792C108.926 274.379 109.121 273.904 109.203 273.405C109.285 272.905 109.253 272.393 109.108 271.907L106.544 263.06C106.226 261.958 105.399 261.214 104.489 261.214Z" fill="#1D1D1B"/>
<path d="M59.7867 206.721C59.7867 206.721 55.0298 229.55 63.7807 240.965C72.5316 252.38 77.6572 253.146 77.6572 253.146C77.6572 253.146 82.4269 241.359 79.1926 228.611C75.9583 215.863 59.7867 206.721 59.7867 206.721Z" fill="white"/>
<path d="M77.6636 253.614H77.593C77.3783 253.582 72.1759 252.7 63.4057 241.263C54.6356 229.826 59.1264 207.568 59.3219 206.625C59.3379 206.551 59.3709 206.482 59.4182 206.423C59.4655 206.364 59.5258 206.317 59.5944 206.285C59.6637 206.255 59.7391 206.241 59.8146 206.245C59.8902 206.248 59.9641 206.269 60.0305 206.305C60.6972 206.683 76.4168 215.687 79.6639 228.486C82.8982 241.238 78.1573 253.197 78.1092 253.316C78.0737 253.405 78.012 253.481 77.9325 253.534C77.853 253.587 77.7593 253.615 77.6636 253.614ZM60.1361 207.488C59.4534 211.318 56.4819 230.647 64.1686 240.674C71.3392 250.027 76.0576 252.127 77.3654 252.556C78.1412 250.405 81.5615 239.866 78.731 228.717C75.9263 217.681 63.037 209.263 60.1297 207.488H60.1361Z" fill="#1D1E1B"/>
<path d="M82.9242 261.063C82.8152 260.948 71.8685 249.132 66.166 223.758L67.1053 223.547C72.7501 248.668 83.5139 260.288 83.6229 260.409L82.9242 261.063Z" fill="black"/>
<path d="M105.285 214.841C105.285 214.841 110.892 233.32 104.516 243.369C98.1403 253.418 93.9668 254.431 93.9668 254.431C93.9668 254.431 89.1587 245.058 90.8928 234.307C92.627 223.556 105.285 214.841 105.285 214.841Z" fill="white"/>
<path d="M93.9664 254.925C93.8781 254.925 93.7915 254.9 93.7163 254.853C93.6411 254.807 93.5801 254.741 93.5401 254.662C93.492 254.569 88.6839 245.027 90.418 234.243C92.1522 223.46 104.487 214.806 105.012 214.447C105.075 214.404 105.146 214.377 105.221 214.367C105.296 214.357 105.372 214.365 105.443 214.39C105.514 214.415 105.578 214.456 105.63 214.511C105.683 214.565 105.721 214.631 105.743 214.703C105.977 215.466 111.343 233.509 104.923 243.642C98.5022 253.774 94.2581 254.861 94.0786 254.912C94.042 254.921 94.0042 254.926 93.9664 254.925ZM105.009 215.636C102.576 217.453 92.8285 225.252 91.3668 234.397C89.8795 243.651 93.3575 251.976 94.2101 253.838C95.3288 253.335 99.0183 251.181 104.109 243.126C109.628 234.416 105.913 218.995 105.009 215.636Z" fill="#1D1E1B"/>
<path d="M90.4212 260.974L89.5879 260.493C89.6616 260.365 96.9604 247.52 100.413 229.224L101.358 229.403C97.8739 247.866 90.4853 260.845 90.4212 260.974Z" fill="black"/>
<path d="M81.6442 179.497C81.6442 179.497 68.4762 205.022 75.0987 221.466C81.7211 237.91 87.555 240.481 87.555 240.481C87.555 240.481 97.0977 228.066 97.4631 211.872C97.8286 195.678 81.6442 179.497 81.6442 179.497Z" fill="white"/>
<path d="M87.5557 240.949C87.4883 240.95 87.4215 240.935 87.3603 240.907C87.1134 240.801 81.2699 238.058 74.6506 221.633C71.1791 213.02 73.1569 201.948 75.4263 194.178C76.9297 189.055 78.8674 184.07 81.2185 179.276C81.2533 179.209 81.3035 179.151 81.3647 179.107C81.426 179.063 81.4967 179.034 81.5712 179.023C81.6458 179.01 81.7224 179.016 81.7944 179.039C81.8663 179.063 81.9317 179.103 81.9847 179.157C82.1482 179.321 98.3069 195.659 97.9447 211.869C97.5825 228.079 88.0333 240.638 87.9372 240.763C87.8919 240.821 87.8341 240.868 87.768 240.9C87.7019 240.932 87.6293 240.949 87.5557 240.949ZM81.7859 180.324C79.8626 184.283 69.6534 206.628 75.5578 221.274C81.1097 235.057 86.1358 238.997 87.418 239.837C88.9117 237.747 96.656 226.23 96.9797 211.85C97.3035 197.595 84.4144 183.132 81.7731 180.324H81.7859Z" fill="#1D1E1B"/>
<path d="M87.6001 260.756L86.6385 260.711C86.6577 260.294 88.5618 218.909 82.7695 200.067L83.6894 199.785C89.5233 218.787 87.6193 260.339 87.6001 260.756Z" fill="black"/>
<path d="M106.674 271.792C106.5 271.792 106.33 271.736 106.192 271.631C106.053 271.526 105.952 271.379 105.904 271.212L103.34 262.236C103.292 262.036 103.324 261.825 103.428 261.647C103.532 261.469 103.7 261.338 103.898 261.281C104.096 261.225 104.308 261.246 104.491 261.342C104.674 261.437 104.812 261.599 104.879 261.794L107.443 270.769C107.501 270.973 107.476 271.192 107.374 271.378C107.271 271.564 107.099 271.701 106.895 271.76C106.823 271.782 106.749 271.792 106.674 271.792Z" fill="white"/>
<path d="M98.6605 294.871H98.5387C98.3287 294.839 98.1401 294.725 98.0145 294.553C97.8889 294.382 97.8364 294.168 97.8687 293.958L100.112 279.533C100.126 279.427 100.16 279.325 100.214 279.232C100.268 279.139 100.339 279.058 100.425 278.994C100.51 278.929 100.608 278.883 100.712 278.856C100.816 278.83 100.924 278.825 101.029 278.841C101.135 278.858 101.237 278.895 101.328 278.951C101.419 279.007 101.498 279.081 101.56 279.168C101.622 279.256 101.667 279.354 101.69 279.459C101.713 279.563 101.715 279.672 101.696 279.777L99.4523 294.202C99.4211 294.389 99.3243 294.559 99.1793 294.682C99.0343 294.805 98.8504 294.872 98.6605 294.871Z" fill="white"/>
<path d="M95.4548 210.888H95.426C95.3208 210.885 95.2173 210.86 95.1215 210.817C95.0256 210.773 94.9393 210.711 94.8676 210.633C94.7958 210.556 94.74 210.466 94.7032 210.367C94.6665 210.268 94.6496 210.163 94.6535 210.058C94.974 201.461 84.3352 186.658 84.2262 186.517C84.1146 186.344 84.0735 186.135 84.1115 185.933C84.1495 185.73 84.2637 185.55 84.4304 185.43C84.5972 185.309 84.8039 185.257 85.008 185.284C85.2121 185.311 85.3979 185.415 85.5275 185.575C85.9762 186.2 96.5832 200.961 96.2562 210.116C96.2487 210.323 96.161 210.52 96.0116 210.664C95.8621 210.808 95.6625 210.889 95.4548 210.888Z" fill="white"/>
<path d="M94.8128 219.543H94.691C94.4811 219.511 94.2925 219.396 94.1669 219.225C94.0412 219.054 93.9888 218.84 94.021 218.63L94.6621 214.462C94.6755 214.356 94.71 214.254 94.7637 214.161C94.8173 214.068 94.889 213.987 94.9745 213.923C95.06 213.858 95.1575 213.812 95.2614 213.786C95.3652 213.759 95.4733 213.754 95.5791 213.771C95.685 213.787 95.7864 213.824 95.8776 213.88C95.9688 213.937 96.0477 214.01 96.1099 214.098C96.172 214.185 96.2161 214.284 96.2395 214.388C96.2628 214.493 96.2649 214.601 96.2457 214.706L95.6046 218.873C95.5741 219.061 95.4774 219.231 95.3323 219.354C95.1871 219.477 95.0029 219.544 94.8128 219.543Z" fill="white"/>
<path d="M105.391 236.853C105.334 236.852 105.279 236.846 105.224 236.833C105.12 236.812 105.021 236.77 104.933 236.709C104.846 236.649 104.771 236.572 104.714 236.482C104.656 236.392 104.618 236.292 104.6 236.188C104.581 236.083 104.584 235.975 104.608 235.872C105.532 231.554 104.608 221.47 104.592 221.367C104.573 221.154 104.639 220.943 104.775 220.779C104.911 220.615 105.107 220.511 105.32 220.492C105.533 220.472 105.744 220.538 105.908 220.675C106.072 220.811 106.176 221.007 106.195 221.22C106.234 221.643 107.157 231.65 106.179 236.205C106.144 236.388 106.046 236.553 105.902 236.671C105.758 236.79 105.577 236.854 105.391 236.853Z" fill="white"/>
<path d="M315.771 48.2367L242.072 61.6449C239.322 62.1451 237.499 64.7792 237.999 67.5285L244.732 104.537C245.233 107.286 247.867 109.109 250.616 108.609L324.315 95.2009C327.064 94.7007 328.887 92.0664 328.387 89.3171L321.654 52.3091C321.154 49.5598 318.52 47.7366 315.771 48.2367Z" fill="#07ACEE"/>
<path d="M326.262 94.7899C325.697 95.1308 325.075 95.3654 324.426 95.4819L250.727 108.894C250.028 109.022 249.31 109.011 248.615 108.861C247.92 108.711 247.261 108.426 246.676 108.021C246.091 107.617 245.591 107.101 245.206 106.503C244.821 105.905 244.557 105.238 244.43 104.538L237.695 67.53C237.439 66.1174 237.754 64.6609 238.571 63.4802C239.387 62.2995 240.639 61.491 242.051 61.2322L315.75 47.8199C317.163 47.564 318.619 47.8789 319.8 48.6956C320.981 49.5123 321.789 50.764 322.048 52.1761L328.782 89.184C328.978 90.2629 328.842 91.3756 328.392 92.3755C327.942 93.3754 327.2 94.2155 326.262 94.7847L326.262 94.7899ZM324.3 94.7931C325.527 94.5681 326.615 93.8654 327.325 92.8391C328.036 91.8129 328.309 90.5469 328.087 89.3189L321.353 52.311C321.128 51.0836 320.426 49.9954 319.4 49.2852C318.374 48.5749 317.108 48.3006 315.88 48.5224L242.181 61.9346C240.954 62.1593 239.866 62.8617 239.155 63.8876C238.445 64.9135 238.171 66.1794 238.393 67.4073L245.127 104.415C245.352 105.643 246.054 106.731 247.081 107.442C248.107 108.152 249.373 108.426 250.601 108.204L324.3 94.7931Z" fill="#1D1D1B"/>
<path d="M258.112 67.3856L248.009 69.2236C246.225 69.5482 245.042 71.2574 245.367 73.0414L245.832 75.5968C246.156 77.3807 247.866 78.5638 249.65 78.2392L259.753 76.4011C261.537 76.0766 262.72 74.3673 262.395 72.5834L261.93 70.028C261.606 68.2441 259.896 67.061 258.112 67.3856Z" fill="#4BD657"/>
<path d="M261.096 76.226C260.717 76.4544 260.299 76.6121 259.864 76.6913L249.76 78.5291C249.291 78.6148 248.809 78.607 248.342 78.5063C247.875 78.4056 247.433 78.2139 247.04 77.9422C246.648 77.6705 246.312 77.3242 246.054 76.9229C245.795 76.5216 245.618 76.0732 245.533 75.6034L245.067 73.0481C244.895 72.0995 245.106 71.1212 245.655 70.3284C246.203 69.5355 247.045 68.993 247.993 68.8203L258.096 66.9812C259.045 66.8093 260.023 67.0208 260.816 67.5694C261.608 68.1179 262.151 68.9587 262.324 69.9069L262.789 72.4634C262.921 73.1881 262.829 73.9356 262.527 74.6073C262.225 75.279 261.727 75.8434 261.097 76.2261L261.096 76.226ZM259.736 75.9971C260.115 75.9283 260.477 75.7856 260.8 75.5771C261.123 75.3685 261.403 75.0983 261.622 74.7818C261.841 74.4654 261.995 74.1089 262.077 73.7327C262.158 73.3565 262.164 72.9679 262.095 72.5893L261.63 70.034C261.49 69.2696 261.053 68.5919 260.414 68.1496C259.775 67.7074 258.987 67.5367 258.222 67.6752L248.119 69.5143C247.355 69.6537 246.677 70.0908 246.235 70.7297C245.793 71.3685 245.623 72.1567 245.762 72.921L246.226 75.4777C246.295 75.8564 246.438 76.2177 246.646 76.5413C246.854 76.8648 247.124 77.1441 247.441 77.3632C247.757 77.5822 248.114 77.7368 248.49 77.818C248.866 77.8992 249.255 77.9053 249.633 77.8362L259.736 75.9971Z" fill="black"/>
<path d="M260.784 79.6802L250.681 81.5183C248.897 81.8429 247.714 83.5521 248.039 85.3361L248.504 87.8914C248.828 89.6754 250.538 90.8584 252.321 90.5339L262.425 88.6958C264.208 88.3713 265.392 86.662 265.067 84.8781L264.602 82.3227C264.278 80.5387 262.568 79.3557 260.784 79.6802Z" fill="#382256"/>
<path d="M263.77 88.5193C263.391 88.7482 262.973 88.9059 262.537 88.9847L252.434 90.8237C251.485 90.9959 250.507 90.7843 249.714 90.2355C248.922 89.6866 248.379 88.8454 248.206 87.8967L247.741 85.3415C247.569 84.3929 247.78 83.4146 248.329 82.6217C248.877 81.8288 249.718 81.2863 250.667 81.1136L260.77 79.2758C261.719 79.1031 262.697 79.3145 263.49 79.8631C264.283 80.4118 264.825 81.2529 264.998 82.2015L265.463 84.7568C265.594 85.4814 265.503 86.2289 265.201 86.9006C264.899 87.5723 264.401 88.1367 263.771 88.5195L263.77 88.5193ZM249.8 82.1832C249.292 82.4908 248.889 82.9451 248.645 83.4862C248.401 84.0272 248.326 84.6296 248.432 85.2138L248.897 87.7691C248.965 88.1478 249.108 88.5093 249.316 88.8328C249.524 89.1563 249.795 89.4357 250.111 89.6547C250.427 89.8738 250.784 90.0282 251.16 90.1094C251.536 90.1906 251.925 90.1969 252.303 90.1278L262.408 88.2889C263.172 88.1492 263.85 87.7118 264.292 87.0727C264.734 86.4337 264.904 85.6453 264.765 84.8808L264.3 82.3254C264.232 81.9468 264.089 81.5855 263.881 81.2621C263.672 80.9386 263.402 80.6594 263.086 80.4404C262.769 80.2214 262.413 80.0667 262.037 79.9855C261.661 79.9042 261.272 79.898 260.894 79.9669L250.789 81.8058C250.439 81.8699 250.103 81.9978 249.8 82.1832Z" fill="#1D1E1B"/>
<path d="M304.302 65.8701C306.636 66.181 308.78 64.5413 309.091 62.2077C309.402 59.8742 307.762 57.7305 305.428 57.4196C303.095 57.1087 300.951 58.7484 300.64 61.0819C300.329 63.4154 301.969 65.5592 304.302 65.8701Z" fill="white"/>
<path d="M307.251 65.5963C306.409 66.105 305.425 66.331 304.445 66.2413C303.465 66.1517 302.539 65.7511 301.803 65.0978C301.067 64.4446 300.558 63.573 300.353 62.6105C300.147 61.648 300.254 60.6448 300.659 59.7476C301.063 58.8503 301.744 58.106 302.602 57.6233C303.46 57.1405 304.45 56.9446 305.427 57.0642C306.404 57.1838 307.317 57.6127 308.033 58.2881C308.749 58.9636 309.23 59.8502 309.406 60.8186C309.578 61.7397 309.463 62.6912 309.078 63.5452C308.693 64.3993 308.055 65.1151 307.251 65.5963ZM302.847 58.2979C302.236 58.6659 301.737 59.194 301.405 59.8249C301.073 60.4559 300.919 61.1658 300.961 61.8777C301.004 62.5896 301.24 63.2764 301.644 63.8638C302.048 64.4513 302.606 64.9168 303.256 65.2103C303.905 65.5037 304.623 65.6138 305.331 65.5287C306.039 65.4435 306.711 65.1664 307.272 64.7272C307.834 64.2879 308.265 63.7034 308.519 63.0369C308.772 62.3703 308.839 61.647 308.711 60.9454C308.597 60.3231 308.334 59.7377 307.944 59.2393C307.554 58.741 307.05 58.3447 306.473 58.0843C305.896 57.824 305.265 57.7074 304.634 57.7446C304.002 57.7818 303.389 57.9716 302.847 58.2979Z" fill="black"/>
<path d="M309.967 64.8398C312.3 65.1507 314.444 63.5111 314.755 61.1776C315.066 58.8441 313.426 56.7003 311.092 56.3894C308.759 56.0785 306.615 57.7182 306.304 60.0517C305.993 62.3852 307.633 64.5289 309.967 64.8398Z" fill="#4BD657"/>
<path d="M312.921 64.5641C311.945 65.1583 310.783 65.3699 309.659 65.1581C308.536 64.9462 307.531 64.326 306.837 63.417C306.144 62.5079 305.812 61.3744 305.905 60.235C305.998 59.0955 306.509 58.0308 307.341 57.2461C308.172 56.4614 309.265 56.0124 310.407 55.9854C311.55 55.9585 312.663 56.3556 313.53 57.1002C314.398 57.8448 314.959 58.8842 315.105 60.018C315.252 61.1518 314.974 62.2997 314.324 63.2404C313.955 63.7756 313.477 64.2267 312.921 64.5641ZM308.503 57.2693C307.893 57.6383 307.395 58.1671 307.064 58.7985C306.733 59.4299 306.58 60.1398 306.623 60.8515C306.666 61.5633 306.903 62.2497 307.308 62.8367C307.713 63.4236 308.271 63.8886 308.921 64.1815C309.571 64.4745 310.289 64.5841 310.996 64.4987C311.704 64.4132 312.375 64.1358 312.937 63.6966C313.499 63.2573 313.93 62.6728 314.183 62.0063C314.437 61.3399 314.503 60.6168 314.375 59.9153C314.261 59.2924 313.997 58.7064 313.607 58.2078C313.216 57.7092 312.711 57.3128 312.133 57.0526C311.556 56.7924 310.924 56.6761 310.291 56.7139C309.659 56.7516 309.046 56.9422 308.503 57.2693Z" fill="black"/>
<path d="M319.407 83.5277L250.428 96.0771L251.229 100.48L320.208 87.9304L319.407 83.5277Z" fill="#0598C6"/>
<defs>
<filter id="filter0_d_14045_109692" x="-4.0192" y="107.786" width="38.6829" height="38.6842" filterUnits="userSpaceOnUse" color-interpolation-filters="sRGB">
<feFlood flood-opacity="0" result="BackgroundImageFix"/>
<feColorMatrix in="SourceAlpha" type="matrix" values="0 0 0 0 0 0 0 0 0 0 0 0 0 0 0 0 0 0 127 0" result="hardAlpha"/>
<feOffset dy="2.03704"/>
<feGaussianBlur stdDeviation="5.09261"/>
<feComposite in2="hardAlpha" operator="out"/>
<feColorMatrix type="matrix" values="0 0 0 0 0 0 0 0 0 0 0 0 0 0 0 0 0 0 0.05 0"/>
<feBlend mode="normal" in2="BackgroundImageFix" result="effect1_dropShadow_14045_109692"/>
<feBlend mode="normal" in="SourceGraphic" in2="effect1_dropShadow_14045_109692" result="shape"/>
</filter>
<filter id="filter1_d_14045_109692" x="370.649" y="165.21" width="38.6888" height="38.6885" filterUnits="userSpaceOnUse" color-interpolation-filters="sRGB">
<feFlood flood-opacity="0" result="BackgroundImageFix"/>
<feColorMatrix in="SourceAlpha" type="matrix" values="0 0 0 0 0 0 0 0 0 0 0 0 0 0 0 0 0 0 127 0" result="hardAlpha"/>
<feOffset dy="2.03704"/>
<feGaussianBlur stdDeviation="5.09261"/>
<feComposite in2="hardAlpha" operator="out"/>
<feColorMatrix type="matrix" values="0 0 0 0 0 0 0 0 0 0 0 0 0 0 0 0 0 0 0.05 0"/>
<feBlend mode="normal" in2="BackgroundImageFix" result="effect1_dropShadow_14045_109692"/>
<feBlend mode="normal" in="SourceGraphic" in2="effect1_dropShadow_14045_109692" result="shape"/>
</filter>
<linearGradient id="paint0_linear_14045_109692" x1="20.4547" y1="112.038" x2="392.053" y2="200.547" gradientUnits="userSpaceOnUse">
<stop stop-color="#CDD5E2"/>
<stop offset="1" stop-color="#CDD5E2" stop-opacity="0"/>
</linearGradient>
<linearGradient id="paint1_linear_14045_109692" x1="391.411" y1="195.438" x2="353.85" y2="294.044" gradientUnits="userSpaceOnUse">
<stop stop-color="#CDD5E2"/>
<stop offset="1" stop-color="#CDD5E2" stop-opacity="0"/>
</linearGradient>
<linearGradient id="paint2_linear_14045_109692" x1="196.502" y1="23.2605" x2="196.502" y2="365.006" gradientUnits="userSpaceOnUse">
<stop stop-color="#CDD5E2"/>
<stop offset="1" stop-color="#CDD5E2" stop-opacity="0"/>
</linearGradient>
<linearGradient id="paint3_linear_14045_109692" x1="196.505" y1="57.4338" x2="196.505" y2="330.83" gradientUnits="userSpaceOnUse">
<stop stop-color="#CDD5E2"/>
<stop offset="1" stop-color="#CDD5E2" stop-opacity="0"/>
</linearGradient>
</defs>
</svg>
