<svg width="406" height="302" viewBox="0 0 406 302" fill="none" xmlns="http://www.w3.org/2000/svg">
<mask id="mask0_14056_86862" style="mask-type:alpha" maskUnits="userSpaceOnUse" x="0" y="0" width="406" height="302">
<rect width="405.823" height="301.875" fill="#D9D9D9"/>
</mask>
<g mask="url(#mask0_14056_86862)">
<g opacity="0.5">
<mask id="path-2-inside-1_14056_86862" fill="white">
<path d="M389.979 202.565C391.995 156.308 377.371 110.86 348.759 74.4588C320.146 38.0574 279.439 13.1119 234.015 4.14415C188.592 -4.82363 141.458 2.77982 101.159 25.5762C60.859 48.3727 30.0607 84.8533 14.3462 128.405L15.1858 128.708C30.8279 85.357 61.4843 49.0446 101.598 26.3532C141.712 3.66186 188.628 -3.90654 233.842 5.0199C279.057 13.9463 319.576 38.7768 348.057 75.0104C376.537 111.244 391.094 156.483 389.087 202.526L389.979 202.565Z"/>
</mask>
<path d="M389.979 202.565C391.995 156.308 377.371 110.86 348.759 74.4588C320.146 38.0574 279.439 13.1119 234.015 4.14415C188.592 -4.82363 141.458 2.77982 101.159 25.5762C60.859 48.3727 30.0607 84.8533 14.3462 128.405L15.1858 128.708C30.8279 85.357 61.4843 49.0446 101.598 26.3532C141.712 3.66186 188.628 -3.90654 233.842 5.0199C279.057 13.9463 319.576 38.7768 348.057 75.0104C376.537 111.244 391.094 156.483 389.087 202.526L389.979 202.565Z" stroke="url(#paint0_linear_14056_86862)" stroke-width="2.84788" stroke-dasharray="4.27 4.27" mask="url(#path-2-inside-1_14056_86862)"/>
</g>
<g opacity="0.5">
<mask id="path-3-inside-2_14056_86862" fill="white">
<path d="M14.6034 260.572C30.4882 304.063 61.4291 340.422 101.818 363.061C142.206 385.699 189.369 393.118 234.757 383.973C280.145 374.827 320.755 349.723 349.224 313.21C377.694 276.697 392.14 231.192 389.943 184.943L389.051 184.986C391.238 231.021 376.859 276.316 348.52 312.661C320.182 349.006 279.76 373.994 234.581 383.098C189.402 392.201 142.456 384.816 102.254 362.282C62.0517 339.748 31.2534 303.556 15.4418 260.266L14.6034 260.572Z"/>
</mask>
<path d="M14.6034 260.572C30.4882 304.063 61.4291 340.422 101.818 363.061C142.206 385.699 189.369 393.118 234.757 383.973C280.145 374.827 320.755 349.723 349.224 313.21C377.694 276.697 392.14 231.192 389.943 184.943L389.051 184.986C391.238 231.021 376.859 276.316 348.52 312.661C320.182 349.006 279.76 373.994 234.581 383.098C189.402 392.201 142.456 384.816 102.254 362.282C62.0517 339.748 31.2534 303.556 15.4418 260.266L14.6034 260.572Z" stroke="url(#paint1_linear_14056_86862)" stroke-width="2.84788" stroke-dasharray="4.27 4.27" mask="url(#path-3-inside-2_14056_86862)"/>
</g>
<circle opacity="0.08" cx="196.503" cy="194.133" r="170.873" fill="url(#paint2_linear_14056_86862)"/>
<circle opacity="0.1" cx="196.505" cy="194.132" r="136.698" fill="url(#paint3_linear_14056_86862)"/>
<circle cx="196.504" cy="194.134" r="91.1321" fill="white"/>
<g filter="url(#filter0_d_14056_86862)">
<circle cx="15.3224" cy="125.09" r="7.11969" transform="rotate(-2.50406 15.3224 125.09)" fill="#0170FF"/>
<circle cx="15.3224" cy="125.09" r="8.13822" transform="rotate(-2.50406 15.3224 125.09)" stroke="white" stroke-width="2.03704"/>
</g>
<g filter="url(#filter1_d_14056_86862)">
<circle cx="389.994" cy="182.517" r="7.11969" transform="rotate(-15.7345 389.994 182.517)" fill="#0170FF"/>
<circle cx="389.994" cy="182.517" r="8.13822" transform="rotate(-15.7345 389.994 182.517)" stroke="white" stroke-width="2.03704"/>
</g>
</g>
<path d="M117.328 299.011C117.124 299.011 116.929 298.93 116.785 298.786C116.641 298.642 116.56 298.446 116.56 298.242C116.56 298.039 116.641 297.843 116.785 297.699C116.929 297.555 117.124 297.474 117.328 297.474L305.425 296.321C305.629 296.321 305.824 296.402 305.969 296.546C306.113 296.69 306.194 296.886 306.194 297.089C306.194 297.293 306.113 297.489 305.969 297.633C305.824 297.777 305.629 297.858 305.425 297.858L117.324 299.011H117.328Z" fill="black"/>
<path d="M85.8595 285.875L108.124 285.49L130.277 285.106L142.772 284.887C143.513 284.887 143.517 283.734 142.772 283.734L120.507 284.118L98.3541 284.503L85.8595 284.722C85.1178 284.722 85.1139 285.875 85.8595 285.875Z" fill="black"/>
<path d="M123.597 271.992L135.592 272.307L147.637 272.623L154.405 272.799C155.147 272.799 155.147 271.646 154.405 271.646L142.406 271.331L130.361 271.016L123.597 270.839C122.851 270.839 122.855 271.992 123.597 271.992Z" fill="black"/>
<path d="M170.255 135.254C170.708 122.855 177.108 117.032 181.643 100.575C186.178 84.118 191.059 76.4467 197.016 70.651C204.422 63.4255 207.777 63.6446 207.777 63.6446L210.729 57.6797L227.363 62.5607L226.498 71.0161C228.493 75.0055 233.07 79.9557 224.772 92.7348C218.819 101.905 218.846 114.257 210.936 132.852C203.027 151.446 193.515 157.184 193.515 157.184" fill="#07ACEE"/>
<path d="M193.53 157.741C193.43 157.741 193.333 157.715 193.246 157.667C193.159 157.618 193.086 157.549 193.034 157.464C192.956 157.333 192.933 157.176 192.97 157.028C193.006 156.88 193.1 156.752 193.23 156.673C193.326 156.615 202.7 150.781 210.421 132.609C214.199 123.724 216.129 116.371 217.831 109.888C219.684 102.827 221.148 97.2469 224.296 92.4004C231.521 81.2739 228.739 76.2584 226.706 72.5918C226.448 72.1268 226.206 71.6887 225.991 71.2544C225.941 71.1558 225.921 71.045 225.933 70.9354L226.748 62.9758L211.04 58.3638L208.3 63.8944C208.25 63.9972 208.171 64.0829 208.073 64.1404C207.974 64.198 207.86 64.2247 207.746 64.2172C207.666 64.2172 204.38 64.2672 197.415 71.0583C192.419 75.9279 187.123 82.892 182.207 100.725C180.263 107.793 177.98 112.901 175.962 117.409C173.245 123.481 171.1 128.278 170.843 135.269C170.841 135.345 170.824 135.42 170.792 135.489C170.761 135.558 170.717 135.62 170.662 135.672C170.606 135.724 170.541 135.764 170.47 135.791C170.399 135.817 170.323 135.829 170.247 135.826C170.094 135.82 169.949 135.754 169.845 135.641C169.74 135.529 169.685 135.38 169.69 135.227C169.955 128.013 172.249 122.878 174.909 116.936C176.908 112.466 179.171 107.401 181.097 100.41C186.093 82.3155 191.501 75.2092 196.609 70.2243C202.758 64.2134 206.278 63.2333 207.412 63.0834L210.222 57.4106C210.281 57.2889 210.381 57.1923 210.505 57.138C210.629 57.0838 210.768 57.0755 210.898 57.1147L227.532 61.9957C227.661 62.0336 227.773 62.1155 227.848 62.2271C227.923 62.3387 227.957 62.473 227.943 62.6068L227.094 70.8739C227.282 71.2582 227.478 71.6425 227.716 72.0269C229.888 75.9471 232.866 81.3162 225.264 93.0269C222.217 97.7157 220.772 103.216 218.946 110.18C217.232 116.713 215.291 124.093 211.482 133.055C203.599 151.611 194.222 157.418 193.826 157.653C193.737 157.708 193.634 157.738 193.53 157.741Z" fill="black"/>
<path d="M172.142 127.079C171.375 129.705 170.94 132.416 170.847 135.15L178.599 142.452L195.867 154.336C197.907 152.514 200.963 149.309 204.226 144.201C190.428 129.224 176.608 127.29 172.142 127.079Z" fill="#0598C6"/>
<path d="M226.859 87.6116C223.381 77.7189 219.353 69.8862 215.798 72.3113C207.343 78.0763 205.037 103.827 206.958 107.67C208.296 110.36 213.553 112.666 216.617 113.819C218.965 105.133 220.372 98.3346 224.011 92.731C225.084 91.0962 226.036 89.3852 226.859 87.6116Z" fill="#0598C6"/>
<path d="M166.507 127.909C166.507 127.909 185.278 136.557 195.521 143.609C215.779 157.553 222.966 173.272 232.843 200.671C235.583 208.286 239.527 215.412 244.523 221.779L154.408 248.529C154.408 248.529 152.168 243.532 143.916 204.714C138.243 178.046 139.419 146.261 148.747 135.896C148.732 135.896 166.918 137.579 166.507 127.909Z" fill="#07ACEE"/>
<path d="M166.507 127.909C166.507 127.909 185.278 136.557 195.521 143.609C215.779 157.553 222.966 173.272 232.843 200.671C235.584 208.286 239.527 215.413 244.523 221.779L154.408 248.529C154.408 248.529 152.168 243.532 143.916 204.715C138.243 178.046 139.42 146.261 148.747 135.896C148.747 135.896 149.962 136.007 151.749 136.007C156.895 136.007 166.815 135.081 166.507 127.909ZM166.507 126.756C166.279 126.757 166.055 126.825 165.866 126.952C165.702 127.063 165.569 127.213 165.481 127.39C165.392 127.566 165.349 127.762 165.358 127.959C165.409 128.624 165.319 129.292 165.092 129.919C164.865 130.545 164.508 131.117 164.044 131.595C161.327 134.432 155.177 134.854 151.745 134.854C150.039 134.854 148.863 134.751 148.851 134.747H148.744C148.582 134.747 148.422 134.781 148.274 134.848C148.126 134.914 147.994 135.01 147.886 135.131C143.328 140.2 140.365 150.504 139.55 164.129C138.782 176.85 139.969 191.732 142.782 204.961C150.969 243.429 153.259 248.775 153.352 248.998C153.442 249.201 153.59 249.374 153.777 249.496C153.964 249.617 154.182 249.682 154.405 249.682C154.516 249.682 154.626 249.665 154.732 249.632L244.846 222.894C245.03 222.839 245.197 222.74 245.333 222.605C245.468 222.469 245.568 222.302 245.623 222.119C245.678 221.935 245.686 221.741 245.647 221.554C245.608 221.366 245.523 221.191 245.399 221.045C240.503 214.777 236.631 207.772 233.927 200.291C228.789 186.044 224.507 175.421 219.053 166.504C213.15 156.85 206.094 149.501 196.17 142.675C185.962 135.646 167.176 126.964 166.988 126.879C166.836 126.808 166.671 126.771 166.504 126.772L166.507 126.756Z" fill="black"/>
<path d="M252.687 204.069C252.687 204.069 241.265 172.907 251.446 159.359C261.627 145.812 336.71 136.007 336.71 136.007L348.663 170.059L307.731 186.689" fill="#050505"/>
<path d="M252.687 204.645C252.568 204.644 252.452 204.607 252.356 204.538C252.259 204.47 252.185 204.373 252.145 204.261C251.676 202.977 240.73 172.649 250.992 159.009C261.254 145.369 333.566 135.834 336.644 135.434C336.776 135.417 336.91 135.446 337.022 135.516C337.135 135.586 337.22 135.693 337.263 135.819L349.212 169.867C349.262 170.006 349.255 170.159 349.194 170.294C349.133 170.429 349.023 170.534 348.886 170.589L307.954 187.223C307.812 187.281 307.654 187.28 307.513 187.22C307.372 187.161 307.26 187.048 307.203 186.906C307.145 186.765 307.146 186.606 307.206 186.465C307.265 186.324 307.378 186.213 307.52 186.155L347.936 169.74L336.322 136.653C329.988 137.51 261.415 147.06 251.907 159.713C242.029 172.853 253.117 203.569 253.229 203.877C253.281 204.02 253.274 204.179 253.21 204.318C253.146 204.457 253.03 204.565 252.887 204.618C252.822 204.638 252.755 204.647 252.687 204.645Z" fill="black"/>
<path d="M338.7 135.465C341.688 128.16 345.855 121.394 351.033 115.438C351.367 115.06 351.794 114.777 352.272 114.617C352.75 114.458 353.262 114.427 353.756 114.528C354.249 114.63 354.707 114.86 355.084 115.195C355.46 115.53 355.741 115.958 355.899 116.437L370.957 162.03C370.957 162.03 360.469 169.333 350.307 168.695L338.7 135.465Z" fill="#050505"/>
<path d="M351.626 169.314C351.176 169.314 350.722 169.314 350.273 169.271C350.16 169.264 350.051 169.224 349.961 169.155C349.871 169.087 349.803 168.994 349.766 168.887L338.159 135.657C338.112 135.534 338.112 135.397 338.159 135.273C341.181 127.907 345.382 121.082 350.596 115.065C350.999 114.616 351.513 114.28 352.086 114.09C352.66 113.901 353.273 113.866 353.864 113.987C354.456 114.108 355.005 114.382 355.458 114.782C355.911 115.181 356.251 115.692 356.445 116.264L371.5 161.857C371.539 161.975 371.539 162.102 371.5 162.22C371.461 162.337 371.386 162.44 371.284 162.511C370.877 162.791 361.407 169.314 351.626 169.314ZM350.727 168.161C359.416 168.545 368.406 163.034 370.27 161.811L355.354 116.637C355.224 116.258 354.997 115.919 354.696 115.654C354.395 115.39 354.03 115.208 353.637 115.127C353.245 115.047 352.837 115.07 352.456 115.194C352.075 115.319 351.734 115.54 351.464 115.837C346.391 121.7 342.29 128.337 339.315 135.496L350.727 168.161Z" fill="black"/>
<path d="M228.12 188.065L140.98 184.345C141.007 184.675 141.034 185.006 141.065 185.336L142.987 190.094L228.924 190.056C228.65 189.39 228.382 188.726 228.12 188.065Z" fill="#0598C6"/>
<path d="M327.962 137.294C327.962 137.294 337.044 159.486 340.472 173.153L351.034 168.86L339.085 135.672L327.962 137.294Z" fill="white"/>
<path d="M340.472 173.729C340.382 173.728 340.292 173.707 340.211 173.668C340.137 173.629 340.071 173.574 340.02 173.508C339.968 173.441 339.931 173.365 339.911 173.283C336.533 159.832 327.52 137.725 327.428 137.506C327.399 137.426 327.387 137.34 327.395 137.256C327.402 137.171 327.428 137.089 327.471 137.015C327.514 136.942 327.573 136.879 327.643 136.831C327.714 136.782 327.794 136.75 327.878 136.737L339 135.111C339.133 135.093 339.268 135.122 339.382 135.192C339.497 135.262 339.583 135.369 339.627 135.496L351.58 168.683C351.629 168.823 351.623 168.977 351.562 169.113C351.502 169.249 351.391 169.356 351.253 169.413L340.688 173.706C340.618 173.727 340.545 173.735 340.472 173.729ZM328.773 137.759C330.311 141.541 337.705 160.143 340.868 172.369L350.304 168.525L338.701 136.303L328.773 137.759Z" fill="black"/>
<path d="M212.916 191.109C212.916 191.109 255.101 142.038 274.901 149.786C294.702 157.534 306.755 176.474 309.338 190.248C311.92 204.023 316.64 221.672 316.64 221.672L287.815 237.598C287.815 237.598 266.292 207.467 264.571 202.301C262.849 197.136 212.916 191.109 212.916 191.109Z" fill="#382256"/>
<path d="M287.826 238.175C287.734 238.175 287.644 238.153 287.562 238.111C287.48 238.069 287.41 238.007 287.357 237.932C286.473 236.699 265.762 207.67 264.032 202.482C263.744 201.609 260.627 199.169 238.016 195.337C225.476 193.211 212.981 191.697 212.858 191.682C212.753 191.672 212.652 191.633 212.567 191.57C212.483 191.507 212.417 191.422 212.377 191.324C212.337 191.226 212.325 191.119 212.343 191.015C212.36 190.91 212.405 190.813 212.474 190.732C219.838 182.363 227.729 174.472 236.099 167.107C253.555 151.957 266.68 145.969 275.105 149.247C284.263 152.833 292.534 159.109 299.026 167.4C304.548 174.46 308.511 182.75 309.898 190.141C312.447 203.738 317.158 221.345 317.201 221.521C317.234 221.646 317.224 221.778 317.173 221.896C317.122 222.015 317.033 222.113 316.92 222.175L288.095 238.102C288.013 238.148 287.921 238.173 287.826 238.175ZM214.069 190.671C217.378 191.086 227.77 192.431 238.197 194.199C263.948 198.561 264.797 201.144 265.12 202.116C266.684 206.817 285.39 233.19 287.988 236.845L315.986 221.383C315.241 218.574 311.105 202.793 308.772 190.352C306.082 176.036 293.522 157.684 274.694 150.324C256.891 143.352 219.695 184.322 214.069 190.671Z" fill="black"/>
<path d="M214.599 190.079L274.877 190.052L216.87 187.554C215.905 188.611 215.137 189.472 214.599 190.079Z" fill="#050505"/>
<path d="M317.316 222.417C317.316 222.417 329.184 223.393 340.184 229.85C340.618 230.106 340.976 230.472 341.224 230.911C341.471 231.35 341.599 231.846 341.594 232.35C341.588 232.854 341.45 233.348 341.193 233.781C340.936 234.215 340.569 234.573 340.13 234.819L298.237 258.264C298.237 258.264 288.395 249.674 287.092 239.574L317.316 222.417Z" fill="#382256"/>
<path d="M298.237 258.852C298.096 258.853 297.959 258.802 297.853 258.71C297.442 258.352 287.825 249.87 286.519 239.658C286.505 239.545 286.525 239.43 286.577 239.329C286.628 239.227 286.708 239.142 286.807 239.086L317.027 221.914C317.128 221.857 317.243 221.832 317.358 221.841C317.477 221.841 329.487 222.905 340.471 229.351C340.99 229.661 341.418 230.102 341.713 230.629C342.008 231.156 342.159 231.751 342.153 232.356C342.146 232.96 341.981 233.551 341.675 234.072C341.368 234.593 340.931 235.024 340.406 235.323L298.514 258.767C298.43 258.819 298.335 258.848 298.237 258.852ZM287.726 239.893C289.025 248.517 296.704 256.062 298.318 257.572L339.853 234.32C340.2 234.12 340.489 233.832 340.691 233.486C340.894 233.14 341.002 232.748 341.007 232.347C341.011 231.946 340.911 231.551 340.716 231.201C340.521 230.851 340.238 230.557 339.895 230.35C329.849 224.454 318.945 223.163 317.446 223.009L287.726 239.893Z" fill="black"/>
<path d="M313.477 212.22C313.477 212.22 294.134 223.45 281.37 229.419L287.396 239.75L317.186 222.839L313.477 212.22Z" fill="white"/>
<path d="M287.396 240.327C287.295 240.327 287.195 240.3 287.108 240.25C287.02 240.199 286.947 240.126 286.897 240.039L280.87 229.708C280.83 229.639 280.804 229.562 280.795 229.482C280.786 229.403 280.793 229.322 280.817 229.246C280.841 229.169 280.881 229.099 280.934 229.039C280.986 228.979 281.051 228.93 281.124 228.897C293.719 223.009 312.993 211.832 313.189 211.721C313.263 211.678 313.344 211.652 313.429 211.645C313.514 211.637 313.599 211.649 313.679 211.678C313.758 211.708 313.83 211.754 313.89 211.815C313.949 211.875 313.995 211.948 314.023 212.028L317.732 222.64C317.775 222.767 317.773 222.906 317.726 223.033C317.678 223.159 317.588 223.265 317.47 223.332L287.681 240.242C287.595 240.296 287.497 240.325 287.396 240.327ZM282.185 229.673L287.604 238.966L316.483 222.567L313.162 213.066C309.841 214.98 293.546 224.315 282.185 229.673Z" fill="black"/>
<path d="M132.474 111.779C132.474 111.779 123.492 120.76 118.103 108.185C115.267 101.567 102.231 86.8583 92.5032 92.0161C82.7757 97.1738 76.5416 89.4103 69.147 87.0735C60.6109 84.3832 46.1446 95.5712 61.076 112.674C96.4616 153.244 142.82 126.149 142.82 126.149L139.127 111.248L132.474 111.779Z" fill="#382256"/>
<path d="M66.4458 86.6737C67.3569 86.6646 68.2641 86.7942 69.1361 87.0581C74.7474 88.8299 79.6936 93.734 86.0082 93.734C88.2799 93.7045 90.5085 93.1088 92.4919 92.0006C93.8408 91.2847 95.3464 90.915 96.8735 90.9245C105.775 90.9245 115.667 102.508 118.093 108.17C120.31 113.347 123.139 114.868 125.699 114.868C129.357 114.868 132.463 111.763 132.463 111.763L139.1 111.233L142.793 126.133C142.793 126.133 127.636 134.996 108.035 134.996C93.3607 134.996 76.2002 130.027 61.0497 112.659C47.625 97.2621 58.0058 86.6584 66.4304 86.6584L66.4458 86.6737ZM66.4304 85.5054C61.5148 85.5054 56.6451 88.6684 54.5851 93.192C53.0478 96.5819 51.7218 103.715 60.1771 113.412C67.295 121.571 75.3967 127.632 84.2633 131.399C91.7834 134.571 99.8686 136.186 108.03 136.145C127.716 136.145 142.743 127.494 143.389 127.125C143.603 126.999 143.771 126.807 143.868 126.578C143.964 126.348 143.984 126.094 143.924 125.853L140.234 110.952C140.172 110.702 140.028 110.48 139.826 110.321C139.623 110.162 139.373 110.076 139.116 110.076H139.023L132.386 110.606C132.112 110.626 131.855 110.744 131.659 110.937C131.633 110.964 128.831 113.708 125.71 113.708C123.073 113.708 120.871 111.69 119.176 107.708C116.563 101.617 106.336 89.7638 96.8847 89.7638C95.1688 89.754 93.4773 90.17 91.9616 90.9744C90.145 91.9939 88.1026 92.5435 86.0198 92.5733C82.4147 92.5733 79.2786 90.8361 75.9618 88.999C73.8903 87.846 71.7341 86.6622 69.4934 85.9512C68.5066 85.6456 67.4789 85.4926 66.4458 85.4977L66.4304 85.5054Z" fill="black"/>
<path d="M150.47 134.612C150.47 134.612 150.854 134.854 151.527 135.25C155.439 137.556 164.767 142.525 170.19 139.812C176.478 136.668 169.037 132.125 169.037 132.125C177.761 136.557 173.399 131.23 173.399 131.23L167.5 127.698L150.47 134.612Z" fill="white"/>
<path d="M166.45 141.172C161.296 141.172 155.017 137.99 151.231 135.746C150.554 135.361 150.162 135.1 150.162 135.1C150.073 135.043 150 134.963 149.953 134.868C149.906 134.773 149.886 134.666 149.896 134.561C149.905 134.455 149.944 134.354 150.007 134.269C150.071 134.183 150.156 134.117 150.255 134.078L167.277 127.16C167.36 127.126 167.449 127.112 167.539 127.118C167.628 127.125 167.715 127.152 167.792 127.198L173.692 130.73C173.748 130.765 173.799 130.809 173.841 130.861C174.376 131.518 175.548 133.14 174.829 134.035C174.495 134.45 173.903 134.704 172.196 134.139C172.879 134.911 173.266 135.899 173.288 136.929C173.23 138.274 172.277 139.424 170.448 140.334C169.199 140.922 167.83 141.209 166.45 141.172ZM151.75 134.716L151.819 134.754C155.562 136.972 164.817 141.853 169.933 139.297C171.359 138.586 172.096 137.759 172.135 136.872C172.212 135.127 169.706 133.201 168.733 132.606C168.613 132.525 168.527 132.402 168.493 132.261C168.459 132.12 168.48 131.971 168.551 131.845C168.622 131.718 168.737 131.623 168.875 131.578C169.013 131.533 169.163 131.542 169.295 131.602C172.715 133.34 173.684 133.34 173.907 133.293C173.726 132.691 173.419 132.135 173.007 131.66L167.442 128.328L151.75 134.716Z" fill="black"/>
<path d="M130.442 106.133C135.307 106.133 139.251 102.189 139.251 97.3241C139.251 92.459 135.307 88.5151 130.442 88.5151C125.577 88.5151 121.633 92.459 121.633 97.3241C121.633 102.189 125.577 106.133 130.442 106.133Z" fill="#382256"/>
<path d="M130.445 88.5109C132.682 88.506 134.837 89.3493 136.477 90.8707C138.117 92.3921 139.118 94.4786 139.281 96.7095C139.443 98.9404 138.753 101.15 137.351 102.892C135.949 104.635 133.938 105.781 131.724 106.1C129.51 106.419 127.258 105.886 125.421 104.61C123.584 103.334 122.299 101.409 121.825 99.2226C121.352 97.0366 121.724 94.7523 122.868 92.8301C124.012 90.9079 125.842 89.4908 127.989 88.8645C128.787 88.6314 129.614 88.5123 130.445 88.5109ZM130.445 87.3579C127.802 87.3579 125.267 88.4079 123.398 90.2768C121.529 92.1458 120.479 94.6806 120.479 97.3237C120.479 99.9668 121.529 102.502 123.398 104.371C125.267 106.239 127.802 107.289 130.445 107.289C131.989 107.284 133.511 106.921 134.891 106.229C136.271 105.537 137.473 104.534 138.4 103.3C139.328 102.065 139.957 100.633 140.237 99.1144C140.518 97.5961 140.444 96.0333 140.019 94.5488C139.411 92.4802 138.151 90.6631 136.428 89.3675C134.704 88.072 132.609 87.3672 130.453 87.3579H130.445Z" fill="black"/>
<path d="M162.372 145.623C154.809 133.394 136.172 131.203 120.887 119.981C105.602 108.758 96.2666 104.992 87.4039 103.362C76.3543 101.317 73.1569 107.044 73.1569 107.044L67.0649 106.575L60.666 119.796L67.1573 121.991C68.3833 126.361 68.9636 130.181 85.221 133.094C98.1692 135.4 100.748 151.085 120.242 162.303C139.735 173.522 151.422 173.188 151.422 173.188" fill="#07ACEE"/>
<path d="M151.292 173.753C149.755 173.753 138.398 173.368 119.969 162.788C110.36 157.253 104.691 150.508 100.149 145.108C95.3406 139.343 91.5394 134.827 85.1326 133.682C68.9905 130.788 67.9376 126.976 66.7116 122.56L66.6845 122.46L60.4815 120.365C60.4045 120.338 60.3341 120.295 60.2747 120.239C60.2154 120.183 60.1685 120.115 60.137 120.039C60.1055 119.964 60.0902 119.883 60.0919 119.801C60.0937 119.72 60.1124 119.639 60.1471 119.566L66.5427 106.344C66.5938 106.24 66.6747 106.154 66.7754 106.096C66.8761 106.039 66.9919 106.013 67.1075 106.022L72.8725 106.464C73.7603 105.222 77.5923 100.975 87.5196 102.816C95.1218 104.223 104.468 107.221 121.241 119.535C127.494 124.128 134.228 127.156 140.742 130.085C149.789 134.155 158.337 138.002 162.876 145.339C162.917 145.403 162.944 145.475 162.957 145.55C162.97 145.625 162.968 145.702 162.951 145.777C162.934 145.851 162.902 145.921 162.858 145.983C162.814 146.045 162.758 146.098 162.693 146.138C162.628 146.178 162.556 146.205 162.48 146.217C162.405 146.229 162.328 146.226 162.254 146.209C162.18 146.191 162.11 146.158 162.049 146.113C161.987 146.068 161.935 146.011 161.896 145.946C157.541 138.909 149.535 135.308 140.265 131.138C133.701 128.182 126.91 125.127 120.561 120.465C103.973 108.289 94.7758 105.33 87.3121 103.939C76.8544 102.017 73.795 107.117 73.672 107.336C73.6172 107.431 73.5368 107.508 73.4404 107.56C73.344 107.611 73.2354 107.635 73.1263 107.628L67.4228 107.19L61.4885 119.462L67.3612 121.445C67.4521 121.472 67.5347 121.522 67.6018 121.589C67.6689 121.656 67.7184 121.738 67.7456 121.829L67.8571 122.214C68.9793 126.257 69.9476 129.747 85.3709 132.51C92.189 133.732 96.1095 138.409 101.067 144.332C105.783 149.963 111.129 156.339 120.58 161.773C139.67 172.742 151.326 172.581 151.457 172.584C151.61 172.584 151.757 172.645 151.865 172.753C151.973 172.861 152.034 173.008 152.034 173.161C152.034 173.314 151.973 173.46 151.865 173.569C151.757 173.677 151.61 173.737 151.457 173.737L151.292 173.753Z" fill="black"/>
<path d="M68.0221 121.379C68.9867 120.265 75.0824 114.031 73.1914 107.666C73.1146 107.785 72.6802 107.539 72.6802 107.539L67.357 107.297L61.8457 119.777L68.0221 121.379Z" fill="#0598C6"/>
<path d="M55.4924 102.097C62.4796 100.875 62.7407 99.2301 67.5103 100.529C70.5312 101.348 71.1655 107.063 69.1055 112.728C67.0454 118.393 62.9867 122.125 60.0466 121.056C57.1064 119.988 54.9463 118.501 51.5488 117.267" fill="#FFCDB2"/>
<path d="M61.1041 121.818C60.6731 121.819 60.2452 121.744 59.8396 121.598C58.4764 121.08 57.1445 120.484 55.8503 119.811C54.3889 119.057 52.885 118.389 51.346 117.809C51.2126 117.75 51.1062 117.644 51.0484 117.51C50.9906 117.376 50.9854 117.226 51.0341 117.088C51.0828 116.951 51.1816 116.837 51.3107 116.77C51.4398 116.703 51.5899 116.687 51.7303 116.725C53.3061 117.319 54.846 118.005 56.3423 118.777C57.5992 119.431 58.8928 120.011 60.2165 120.515C61.4271 120.957 62.9449 120.415 64.4899 118.997C66.131 117.482 67.5647 115.188 68.5371 112.532C69.9168 108.739 70.0744 104.722 68.9522 102.539C68.8018 102.195 68.5796 101.886 68.3006 101.635C68.0216 101.383 67.6922 101.193 67.3341 101.079C64.4555 100.31 63.3409 100.633 61.1232 101.306C59.3032 101.882 57.4466 102.335 55.5658 102.662C55.4129 102.689 55.2558 102.654 55.1289 102.564C55.0021 102.475 54.916 102.339 54.8895 102.186C54.863 102.033 54.8984 101.876 54.9878 101.749C55.0772 101.622 55.2132 101.536 55.3661 101.509C57.2012 101.188 59.0127 100.745 60.7888 100.183C63.141 99.4724 64.4363 99.0765 67.6378 99.9489C68.1495 100.104 68.6225 100.367 69.0254 100.718C69.4282 101.07 69.7517 101.504 69.9746 101.99C71.2659 104.476 71.1276 108.762 69.621 112.905C68.591 115.73 67.0458 118.186 65.2702 119.823C63.8828 121.145 62.4339 121.818 61.1041 121.818Z" fill="black"/>
<path d="M167.103 100.625C167.103 100.625 167.971 92.5542 162.314 90.3059C156.657 88.0575 155.93 89.3796 153.028 87.9999C150.127 86.6201 144.154 88.0729 141.533 92.4466C141.533 92.4466 133.981 93.2422 130.922 98.0233C127.862 102.804 128.231 106.025 130.015 110.237C131.798 114.45 131.936 116.902 133.089 119.903C134.242 122.905 138.62 130.28 151.372 126.821C164.124 123.362 167.103 100.625 167.103 100.625Z" fill="#382256"/>
<path d="M150.465 87.4929C151.346 87.4716 152.221 87.6434 153.029 87.9963C155.931 89.3799 156.661 88.0578 162.314 90.3023C167.968 92.5468 167.103 100.622 167.103 100.622C167.103 100.622 164.129 123.409 151.376 126.833C149.374 127.396 147.307 127.695 145.227 127.721C137.156 127.721 134.051 122.34 133.109 119.896C131.956 116.894 131.806 114.438 130.034 110.23C128.262 106.022 127.878 102.793 130.941 98.0159C134.005 93.2387 141.553 92.4392 141.553 92.4392C143.54 89.1263 147.445 87.489 150.485 87.489L150.465 87.4929ZM150.485 86.336C147.329 86.336 143.217 87.8964 140.876 91.367C138.955 91.6667 132.825 92.9466 129.977 97.3933C126.648 102.589 127.09 106.198 128.977 110.676C129.771 112.564 130.413 114.513 130.899 116.502C131.213 117.791 131.598 119.061 132.052 120.307C132.821 122.317 136.045 128.874 145.246 128.874C147.432 128.848 149.606 128.535 151.711 127.944C157.295 126.445 161.938 121.226 165.135 112.855C166.608 108.95 167.664 104.899 168.283 100.772V100.745C168.322 100.36 169.167 91.7782 162.772 89.2147C159.478 87.9041 157.775 87.7465 156.376 87.6158C155.399 87.5875 154.438 87.3544 153.556 86.9317C152.588 86.5027 151.539 86.2927 150.481 86.3168L150.485 86.336Z" fill="black"/>
<path d="M83.0454 123.755C84.0769 123.755 84.9134 122.918 84.9134 121.887C84.9134 120.855 84.0769 120.019 83.0454 120.019C82.0138 120.019 81.1777 120.855 81.1777 121.887C81.1777 122.918 82.0138 123.755 83.0454 123.755Z" fill="#51CEF4"/>
<path d="M161.707 122.725L168.559 131.022C168.559 131.022 170.07 137.222 152.386 133.109C152.386 133.109 152.798 128.997 148.974 120.023C148.974 120.023 145.242 122.494 142.92 119.277C140.599 116.06 142.309 113.339 144.362 112.743C144.362 112.743 153.044 111.06 147.336 95.2063C147.336 95.2063 154.989 91.8741 161.826 96.2862C168.663 100.698 174.19 108.266 171.819 114.507C169.447 120.749 161.707 122.725 161.707 122.725Z" fill="#FFCDB2"/>
<path d="M153.801 93.9992C156.643 93.9723 159.432 94.7736 161.826 96.3052C168.659 100.717 174.19 108.285 171.818 114.526C169.447 120.768 161.695 122.744 161.695 122.744L168.548 131.041C168.548 131.041 169.397 134.539 162.333 134.539C159.988 134.539 156.776 134.154 152.375 133.128C152.375 133.128 152.786 129.016 148.962 120.042C148.068 120.596 147.046 120.909 145.995 120.949C145.385 120.951 144.785 120.801 144.248 120.513C143.711 120.224 143.255 119.806 142.92 119.296C140.614 116.075 142.309 113.358 144.362 112.762C144.362 112.762 153.044 111.079 147.336 95.2252C149.397 94.4244 151.59 94.0151 153.801 94.0184V93.9992ZM153.801 92.8654C151.434 92.862 149.087 93.304 146.883 94.1683C146.615 94.2855 146.402 94.4999 146.287 94.7681C146.171 95.0364 146.162 95.3385 146.26 95.6134C149.001 103.231 148.228 107.201 147.098 109.192C146.791 109.772 146.373 110.287 145.867 110.706C145.361 111.124 144.778 111.439 144.15 111.632C144.115 111.636 144.08 111.644 144.046 111.655C143.326 111.874 142.667 112.26 142.124 112.781C141.581 113.303 141.169 113.946 140.922 114.657C140.345 116.329 140.726 118.216 141.99 119.969C142.434 120.628 143.033 121.167 143.735 121.54C144.437 121.912 145.22 122.105 146.014 122.102C146.829 122.091 147.635 121.928 148.39 121.621C151.51 129.339 151.249 132.986 151.245 133.024C151.22 133.302 151.297 133.578 151.46 133.804C151.623 134.029 151.862 134.188 152.133 134.25C156.237 135.207 159.674 135.692 162.352 135.692C165.631 135.692 167.867 134.961 168.993 133.524C169.303 133.143 169.525 132.699 169.645 132.223C169.764 131.747 169.778 131.25 169.685 130.768C169.644 130.599 169.565 130.442 169.455 130.307L163.69 123.305C166.265 122.313 171.069 119.846 172.914 114.934C175.604 107.835 169.37 99.7988 162.452 95.3328C159.873 93.6828 156.867 92.8237 153.805 92.8615L153.801 92.8654Z" fill="black"/>
<path d="M158.725 123.877C158.165 123.88 157.606 123.851 157.049 123.789C156.974 123.78 156.901 123.756 156.834 123.719C156.768 123.681 156.709 123.631 156.662 123.571C156.615 123.511 156.58 123.443 156.56 123.369C156.539 123.296 156.533 123.219 156.542 123.143C156.551 123.068 156.575 122.994 156.612 122.928C156.65 122.862 156.7 122.803 156.76 122.756C156.82 122.709 156.888 122.674 156.962 122.653C157.035 122.633 157.112 122.627 157.188 122.636C157.219 122.636 160.286 122.997 162.465 122.129C162.604 122.084 162.755 122.093 162.888 122.155C163.02 122.217 163.124 122.327 163.178 122.463C163.232 122.599 163.233 122.751 163.18 122.887C163.126 123.023 163.023 123.134 162.891 123.197C161.555 123.674 160.144 123.905 158.725 123.877Z" fill="black"/>
<path d="M147.425 119.1C147.382 119.105 147.338 119.105 147.295 119.1C145.557 118.693 144.493 117.947 144.132 116.89C143.609 115.353 144.819 113.85 144.873 113.785C144.97 113.666 145.109 113.59 145.261 113.574C145.413 113.559 145.566 113.604 145.684 113.7C145.803 113.796 145.879 113.936 145.895 114.088C145.91 114.24 145.865 114.392 145.769 114.511C145.75 114.534 144.908 115.603 145.227 116.521C145.507 117.34 146.649 117.766 147.56 117.978C147.708 118.014 147.836 118.108 147.916 118.238C147.996 118.368 148.021 118.525 147.986 118.673C147.954 118.797 147.881 118.906 147.779 118.983C147.678 119.061 147.553 119.102 147.425 119.1Z" fill="black"/>
<path d="M156.035 103.296C153.306 106.924 147.514 109.38 147.779 111.248C148.045 113.116 150.028 114.211 152.188 113.028C154.348 111.844 156.1 110.226 159.532 106.728C162.964 103.231 166.066 99.5568 163.937 97.9503C161.808 96.3438 160.059 97.9656 156.035 103.296Z" fill="#FFB49F"/>
<path d="M150.419 111.978H150.377C150.301 111.973 150.227 111.953 150.16 111.919C150.092 111.885 150.032 111.837 149.983 111.78C149.933 111.722 149.896 111.656 149.872 111.583C149.849 111.511 149.84 111.435 149.847 111.36C150.231 106.363 154.843 106.19 154.9 106.19C155.053 106.19 155.2 106.251 155.308 106.359C155.416 106.467 155.477 106.614 155.477 106.767C155.477 106.92 155.416 107.066 155.308 107.175C155.2 107.283 155.053 107.343 154.9 107.343C154.747 107.343 151.273 107.497 150.969 111.448C150.958 111.588 150.896 111.72 150.794 111.817C150.693 111.915 150.56 111.972 150.419 111.978Z" fill="black"/>
<path d="M154.536 99.5298C154.383 99.5385 154.233 99.486 154.119 99.384C154.005 99.2821 153.935 99.1389 153.927 98.986C153.918 98.8331 153.971 98.683 154.073 98.5688C154.175 98.4545 154.318 98.3855 154.471 98.3768C155.356 98.2625 156.201 97.934 156.93 97.4198C157.051 97.3268 157.204 97.2856 157.355 97.305C157.507 97.3245 157.644 97.403 157.737 97.5236C157.784 97.583 157.819 97.6511 157.839 97.724C157.859 97.7968 157.865 97.8729 157.856 97.948C157.846 98.023 157.822 98.0955 157.785 98.1611C157.748 98.2268 157.697 98.2845 157.638 98.3307C156.744 98.9775 155.7 99.3874 154.605 99.5221L154.536 99.5298Z" fill="black"/>
<path d="M157.853 116.994C157.12 116.985 156.394 116.855 155.704 116.61C155.559 116.559 155.441 116.452 155.374 116.314C155.308 116.176 155.299 116.017 155.35 115.872C155.401 115.727 155.508 115.609 155.646 115.542C155.784 115.476 155.943 115.467 156.088 115.518C159.547 116.671 160.985 114.254 161.042 114.15C161.116 114.016 161.24 113.917 161.387 113.874C161.534 113.832 161.692 113.849 161.826 113.923C161.96 113.997 162.059 114.121 162.102 114.268C162.144 114.415 162.127 114.573 162.053 114.707C161.605 115.414 160.984 115.995 160.249 116.396C159.514 116.796 158.689 117.002 157.853 116.994Z" fill="black"/>
<path d="M139.012 113.862C138.812 113.862 138.689 113.862 138.659 113.862C138.583 113.859 138.508 113.842 138.439 113.81C138.37 113.779 138.308 113.734 138.256 113.678C138.205 113.622 138.165 113.557 138.139 113.485C138.113 113.414 138.102 113.338 138.105 113.262C138.112 113.11 138.179 112.967 138.29 112.864C138.402 112.76 138.549 112.705 138.701 112.709C138.751 112.709 143.939 112.882 146.507 110.438C146.561 110.383 146.626 110.34 146.697 110.311C146.768 110.281 146.845 110.267 146.922 110.268C146.999 110.268 147.075 110.285 147.145 110.315C147.216 110.346 147.279 110.39 147.333 110.446C147.386 110.502 147.427 110.568 147.454 110.64C147.482 110.712 147.494 110.788 147.492 110.865C147.489 110.942 147.47 111.018 147.438 111.088C147.405 111.157 147.36 111.22 147.302 111.272C144.766 113.677 140.307 113.862 139.012 113.862Z" fill="black"/>
<path d="M142.998 111.49C142.902 111.491 142.808 111.468 142.724 111.423C142.64 111.378 142.569 111.312 142.517 111.233C142.475 111.17 142.446 111.099 142.432 111.025C142.417 110.95 142.417 110.874 142.432 110.8C142.447 110.725 142.477 110.655 142.519 110.592C142.561 110.529 142.615 110.475 142.679 110.433C148.928 106.313 145.481 99.2531 145.331 98.9533C145.262 98.8167 145.25 98.6584 145.298 98.5131C145.346 98.3679 145.45 98.2476 145.586 98.1788C145.723 98.11 145.881 98.0983 146.026 98.1462C146.171 98.1942 146.292 98.2978 146.361 98.4344C146.403 98.5151 150.427 106.705 143.317 111.398C143.221 111.458 143.11 111.49 142.998 111.49Z" fill="white"/>
<path d="M118.162 98.6805C118.059 98.6808 117.958 98.6536 117.87 98.6015C117.781 98.5494 117.708 98.4745 117.659 98.3845C116.579 96.4629 116.294 94.5412 116.813 92.754C117.72 89.5987 120.76 87.9038 120.891 87.8346C121.024 87.767 121.179 87.754 121.322 87.7983C121.465 87.8427 121.585 87.9408 121.657 88.0721C121.729 88.2033 121.747 88.3574 121.707 88.5017C121.667 88.646 121.573 88.7693 121.444 88.8454C121.417 88.8454 118.689 90.3827 117.92 93.073C117.49 94.5643 117.743 96.1477 118.665 97.8157C118.734 97.948 118.749 98.1015 118.708 98.2446C118.666 98.3877 118.572 98.5094 118.443 98.5844C118.359 98.6408 118.262 98.674 118.162 98.6805Z" fill="black"/>
<path d="M162.21 108.666C162.111 108.666 162.013 108.64 161.926 108.593L155.546 104.972C155.413 104.897 155.315 104.772 155.275 104.624C155.234 104.477 155.253 104.319 155.329 104.186C155.404 104.053 155.529 103.956 155.677 103.915C155.824 103.874 155.982 103.894 156.115 103.969L162.495 107.589C162.604 107.653 162.69 107.75 162.739 107.867C162.788 107.984 162.797 108.114 162.764 108.236C162.732 108.359 162.66 108.467 162.56 108.545C162.46 108.623 162.337 108.665 162.21 108.666Z" fill="black"/>
<path d="M234.506 56.0352C241.467 53.514 248.004 50.4163 247.236 53.5678C246.425 56.8884 243.242 60.186 234.168 61.5812C225.532 62.9071 224.648 61.12 224.648 61.12" fill="#FFCDB2"/>
<path d="M228.704 62.6493C225.133 62.6493 224.322 61.7423 224.142 61.3771C224.081 61.2454 224.072 61.0957 224.117 60.9578C224.162 60.8199 224.258 60.704 224.384 60.6333C224.511 60.5625 224.659 60.542 224.8 60.5758C224.941 60.6097 225.064 60.6955 225.145 60.816C225.233 60.9083 226.605 62.1612 234.088 61.012C241.494 59.859 245.73 57.3224 246.675 53.4291C246.737 53.1793 246.737 52.9795 246.675 52.9218C245.979 52.3069 241.721 53.9288 238.297 55.2278C237.144 55.6736 235.933 56.131 234.707 56.573C234.634 56.6048 234.556 56.6214 234.477 56.6216C234.398 56.6218 234.319 56.6057 234.246 56.5742C234.174 56.5428 234.108 56.4966 234.054 56.4387C234 56.3809 233.958 56.3124 233.932 56.2378C233.905 56.1631 233.895 56.0837 233.9 56.0047C233.906 55.9256 233.928 55.8486 233.964 55.7783C234.001 55.7081 234.052 55.6462 234.113 55.5964C234.175 55.5466 234.246 55.5101 234.323 55.4892C235.537 55.051 236.736 54.5937 237.897 54.1517C243.37 52.0647 246.279 51.027 247.444 52.0532C247.732 52.3069 248.028 52.795 247.828 53.6982C246.756 58.0873 242.205 60.9313 234.296 62.1535C232.447 62.4587 230.577 62.6244 228.704 62.6493Z" fill="black"/>
<path d="M217.471 49.0786C217.471 49.0786 230.127 40.5079 231.887 43.5711C233.648 46.6342 225 50.4506 224.162 54.6553C223.324 58.8599 217.471 49.0786 217.471 49.0786Z" fill="#FFCDB2"/>
<path d="M223.336 56.2809C221.276 56.2809 217.955 51.0271 216.975 49.3629C216.901 49.2368 216.877 49.0872 216.91 48.9444C216.942 48.8017 217.027 48.6765 217.148 48.5943C218.209 47.8756 227.629 41.5917 231.145 42.4027C231.402 42.4522 231.646 42.5556 231.86 42.7059C232.074 42.8563 232.253 43.0503 232.387 43.2751C233.54 45.3236 231.307 47.3644 228.928 49.5244C227.129 51.1539 225.084 52.9834 224.735 54.759C224.516 55.862 223.966 56.181 223.539 56.2579C223.472 56.2718 223.404 56.2795 223.336 56.2809ZM218.251 49.2515C220.288 52.5568 222.628 55.2509 223.332 55.1279C223.393 55.1279 223.516 54.9512 223.597 54.5438C224.02 52.4107 226.118 50.5121 228.148 48.675C230.177 46.8379 232.099 45.1007 231.384 43.8593C231.33 43.7708 231.258 43.6955 231.171 43.6389C231.085 43.5824 230.987 43.546 230.884 43.5326C228.447 42.9715 221.333 47.2145 218.251 49.2515Z" fill="black"/>
<path d="M211.582 57.3339C211.582 57.3339 213.269 47.4143 221.19 48.794C229.111 50.1738 232.051 52.7642 236.014 48.7172C242.624 41.9644 247.725 41.6493 241.864 52.8334C236.003 64.0175 217.105 65.3819 217.105 65.3819" fill="#FFCDB2"/>
<path d="M217.121 65.9698C216.968 65.9754 216.819 65.9201 216.707 65.8159C216.595 65.7118 216.529 65.5674 216.523 65.4145C216.517 65.2616 216.573 65.1127 216.677 65.0006C216.781 64.8886 216.925 64.8224 217.078 64.8168C217.267 64.8168 235.726 63.3448 241.372 52.5796C244.877 45.8884 243.72 44.7777 243.578 44.6739C242.952 44.2204 240.461 45.0275 236.441 49.1322C233.301 52.3414 230.718 51.6765 226.448 50.5734C224.911 50.1891 223.201 49.7394 221.114 49.3743C220.265 49.1956 219.389 49.1913 218.539 49.3618C217.688 49.5322 216.882 49.8739 216.167 50.3659C213.024 52.5835 212.167 57.3954 212.159 57.4415C212.134 57.5944 212.048 57.7309 211.922 57.821C211.796 57.9111 211.639 57.9474 211.486 57.9219C211.334 57.8964 211.197 57.8112 211.107 57.6851C211.017 57.559 210.981 57.4022 211.006 57.2493C211.044 57.0302 211.947 51.9263 215.483 49.4281C216.32 48.8444 217.267 48.4379 218.266 48.2336C219.266 48.0294 220.296 48.0318 221.294 48.2405C223.427 48.6249 225.176 49.0591 226.721 49.4589C230.857 50.5235 232.936 51.0577 235.611 48.3059C237.067 46.8185 241.998 42.0873 244.247 43.7246C245.711 44.7892 245.085 47.9523 242.383 53.0947C236.441 64.4325 217.939 65.893 217.155 65.9468L217.121 65.9698Z" fill="black"/>
<path d="M147.621 122.644C148.417 122.644 149.062 121.998 149.062 121.202C149.062 120.407 148.417 119.761 147.621 119.761C146.825 119.761 146.18 120.407 146.18 121.202C146.18 121.998 146.825 122.644 147.621 122.644Z" fill="#07ACEE"/>
<path d="M147.622 119.777C147.967 119.781 148.299 119.909 148.558 120.138C148.816 120.367 148.984 120.681 149.031 121.023C149.078 121.366 148.999 121.713 148.811 122.003C148.623 122.292 148.337 122.505 148.006 122.601C147.881 122.638 147.752 122.657 147.622 122.659C147.276 122.655 146.944 122.526 146.685 122.297C146.427 122.069 146.259 121.754 146.212 121.412C146.166 121.07 146.243 120.722 146.431 120.433C146.62 120.143 146.906 119.931 147.237 119.834C147.362 119.798 147.491 119.778 147.622 119.777ZM147.622 118.624C146.934 118.624 146.274 118.897 145.787 119.383C145.3 119.87 145.027 120.53 145.027 121.218C145.027 121.906 145.3 122.566 145.787 123.052C146.274 123.539 146.934 123.812 147.622 123.812C147.866 123.812 148.109 123.777 148.344 123.708C148.672 123.614 148.977 123.456 149.244 123.244C149.51 123.031 149.732 122.768 149.897 122.47C150.061 122.171 150.166 121.843 150.203 121.504C150.241 121.165 150.211 120.823 150.116 120.495C149.957 119.956 149.628 119.483 149.179 119.146C148.729 118.809 148.183 118.625 147.622 118.624Z" fill="black"/>
<path d="M124.519 100.452C124.4 100.452 124.284 100.415 124.187 100.346C124.09 100.277 124.016 100.18 123.977 100.068C123.158 97.8658 123.178 95.9249 124.035 94.303C125.418 91.6818 128.47 90.894 128.6 90.844C128.749 90.8068 128.906 90.83 129.037 90.9086C129.168 90.9872 129.263 91.1146 129.3 91.2629C129.337 91.4112 129.314 91.5682 129.235 91.6994C129.157 91.8306 129.029 91.9252 128.881 91.9624C128.854 91.9624 126.19 92.6658 125.037 94.8295C124.346 96.1478 124.349 97.7735 125.037 99.6529C125.09 99.7967 125.083 99.9553 125.019 100.094C124.955 100.233 124.839 100.341 124.696 100.395C124.64 100.423 124.58 100.442 124.519 100.452Z" fill="white"/>
<path d="M208.404 64.1099H208.357C209.38 65.1284 216.348 71.6813 225.891 70.9126L226.091 70.8896L226.89 63.0876L211.19 58.4756L208.404 64.1099Z" fill="#0598C6"/>
<path d="M253.77 148.517C256.128 146.813 258.737 145.487 261.503 144.585C264.266 143.679 267.151 143.197 270.058 143.156C272.883 143.12 275.696 143.521 278.398 144.343C283.681 145.955 288.384 149.059 291.942 153.283C292.161 153.544 292.373 153.809 292.584 154.078C292.693 154.186 292.839 154.246 292.991 154.246C293.144 154.246 293.29 154.186 293.399 154.078C293.503 153.969 293.562 153.823 293.562 153.671C293.562 153.519 293.503 153.374 293.399 153.264C291.646 151.024 289.574 149.053 287.25 147.414C284.925 145.769 282.377 144.465 279.682 143.544C276.931 142.602 274.053 142.083 271.146 142.007C268.149 141.935 265.158 142.317 262.276 143.14C259.38 143.96 256.629 145.22 254.116 146.876C253.801 147.084 253.494 147.299 253.19 147.518C253.067 147.598 252.977 147.721 252.94 147.863C252.902 148.005 252.919 148.156 252.986 148.287C253.064 148.413 253.186 148.504 253.329 148.543C253.472 148.582 253.624 148.564 253.755 148.494L253.77 148.517Z" fill="black"/>
<path d="M337.267 125.988L343.205 117.402L349.174 108.777L352.522 103.935C352.599 103.802 352.621 103.645 352.583 103.497C352.545 103.348 352.449 103.221 352.318 103.143C352.184 103.069 352.028 103.049 351.88 103.088C351.733 103.126 351.606 103.22 351.526 103.35L345.588 111.936L339.623 120.545L336.272 125.388C336.233 125.453 336.208 125.526 336.198 125.601C336.187 125.676 336.192 125.752 336.211 125.826C336.23 125.899 336.264 125.968 336.309 126.028C336.355 126.089 336.412 126.14 336.477 126.178C336.543 126.216 336.615 126.241 336.69 126.252C336.765 126.262 336.842 126.258 336.915 126.239C336.988 126.22 337.057 126.186 337.117 126.141C337.178 126.095 337.229 126.038 337.267 125.972V125.988Z" fill="black"/>
<path d="M216.052 177.231C217.083 177.231 217.919 176.395 217.919 175.363C217.919 174.331 217.083 173.495 216.052 173.495C215.02 173.495 214.184 174.331 214.184 175.363C214.184 176.395 215.02 177.231 216.052 177.231Z" fill="#51CEF4"/>
<path d="M163.263 183.061C164.295 183.061 165.131 182.225 165.131 181.193C165.131 180.161 164.295 179.325 163.263 179.325C162.232 179.325 161.396 180.161 161.396 181.193C161.396 182.225 162.232 183.061 163.263 183.061Z" fill="#51CEF4"/>
<path d="M191.37 184.43C192.402 184.43 193.238 183.593 193.238 182.562C193.238 181.53 192.402 180.694 191.37 180.694C190.338 180.694 189.502 181.53 189.502 182.562C189.502 183.593 190.338 184.43 191.37 184.43Z" fill="#51CEF4"/>
<path d="M171.831 161.12C172.862 161.12 173.699 160.283 173.699 159.252C173.699 158.22 172.862 157.384 171.831 157.384C170.799 157.384 169.963 158.22 169.963 159.252C169.963 160.283 170.799 161.12 171.831 161.12Z" fill="#51CEF4"/>
<path d="M198.226 166.262C199.258 166.262 200.094 165.426 200.094 164.394C200.094 163.363 199.258 162.526 198.226 162.526C197.195 162.526 196.358 163.363 196.358 164.394C196.358 165.426 197.195 166.262 198.226 166.262Z" fill="#51CEF4"/>
<path d="M183.83 146.722C184.862 146.722 185.698 145.886 185.698 144.854C185.698 143.823 184.862 142.986 183.83 142.986C182.798 142.986 181.962 143.823 181.962 144.854C181.962 145.886 182.798 146.722 183.83 146.722Z" fill="#51CEF4"/>
<path d="M85.4477 112.786C86.4793 112.786 87.3157 111.949 87.3157 110.918C87.3157 109.886 86.4793 109.05 85.4477 109.05C84.4161 109.05 83.5801 109.886 83.5801 110.918C83.5801 111.949 84.4161 112.786 85.4477 112.786Z" fill="#51CEF4"/>
<path d="M125.553 131.641C126.584 131.641 127.42 130.805 127.42 129.773C127.42 128.742 126.584 127.905 125.553 127.905C124.521 127.905 123.685 128.742 123.685 129.773C123.685 130.805 124.521 131.641 125.553 131.641Z" fill="#51CEF4"/>
<path d="M101.217 129.927C102.248 129.927 103.085 129.091 103.085 128.059C103.085 127.028 102.248 126.191 101.217 126.191C100.185 126.191 99.3486 127.028 99.3486 128.059C99.3486 129.091 100.185 129.927 101.217 129.927Z" fill="#51CEF4"/>
<path d="M131.725 161.461C132.757 161.461 133.593 160.625 133.593 159.593C133.593 158.562 132.757 157.726 131.725 157.726C130.694 157.726 129.857 158.562 129.857 159.593C129.857 160.625 130.694 161.461 131.725 161.461Z" fill="#51CEF4"/>
<path d="M181.404 122.778C182.435 122.778 183.272 121.942 183.272 120.91C183.272 119.879 182.435 119.042 181.404 119.042C180.372 119.042 179.536 119.879 179.536 120.91C179.536 121.942 180.372 122.778 181.404 122.778Z" fill="#51CEF4"/>
<path d="M208.116 120.668C209.147 120.668 209.984 119.832 209.984 118.8C209.984 117.769 209.147 116.933 208.116 116.933C207.084 116.933 206.248 117.769 206.248 118.8C206.248 119.832 207.084 120.668 208.116 120.668Z" fill="#51CEF4"/>
<path d="M196.259 91.2054C197.29 91.2054 198.126 90.3692 198.126 89.3376C198.126 88.306 197.29 87.4697 196.259 87.4697C195.227 87.4697 194.391 88.306 194.391 89.3376C194.391 90.3692 195.227 91.2054 196.259 91.2054Z" fill="#51CEF4"/>
<path d="M218.554 84.8793C219.585 84.8793 220.422 84.043 220.422 83.0114C220.422 81.9798 219.585 81.1436 218.554 81.1436C217.522 81.1436 216.686 81.9798 216.686 83.0114C216.686 84.043 217.522 84.8793 218.554 84.8793Z" fill="#51CEF4"/>
<path d="M287.861 164.936C289.712 166.858 291.445 168.891 293.05 171.024C294.675 173.185 296.17 175.441 297.527 177.78C298.876 180.11 300.087 182.516 301.155 184.987C303.285 189.925 304.815 195.1 305.713 200.402C305.767 200.729 305.821 201.056 305.871 201.382C305.917 201.526 306.017 201.646 306.149 201.717C306.282 201.789 306.437 201.807 306.582 201.767C306.724 201.719 306.843 201.619 306.914 201.487C306.986 201.355 307.004 201.201 306.966 201.056C306.555 198.37 305.978 195.711 305.24 193.096C304.498 190.483 303.599 187.916 302.55 185.409C301.5 182.878 300.303 180.41 298.964 178.019C296.296 173.266 293.071 168.848 289.356 164.859L288.645 164.09C288.13 163.556 287.315 164.371 287.83 164.905L287.861 164.936Z" fill="white"/>
<path d="M160.581 102.351C161.101 102.351 161.523 101.929 161.523 101.409C161.523 100.889 161.101 100.468 160.581 100.468C160.061 100.468 159.64 100.889 159.64 101.409C159.64 101.929 160.061 102.351 160.581 102.351Z" fill="black"/>
<path d="M98.769 98.4463C98.694 98.4452 98.6197 98.4309 98.5498 98.404C80.9089 91.1862 69.5252 73.5722 63.0837 60.0705C58.8477 51.1689 55.5477 41.8513 53.2371 32.2678C53.2214 32.1936 53.2205 32.1171 53.2344 32.0426C53.2484 31.968 53.2767 31.897 53.3181 31.8334C53.3595 31.7699 53.4132 31.7152 53.4758 31.6723C53.5383 31.6295 53.6088 31.5994 53.6829 31.5837C53.7571 31.5681 53.8336 31.5672 53.9081 31.5811C53.9827 31.5951 54.0537 31.6236 54.1172 31.665C54.1807 31.7064 54.2354 31.7599 54.2782 31.8224C54.3211 31.885 54.3511 31.9554 54.3668 32.0295C56.6563 41.5318 59.9293 50.7698 64.1328 59.594C70.4897 72.9073 81.6931 90.2599 98.9882 97.3355C99.1123 97.3859 99.215 97.4779 99.2787 97.5957C99.3423 97.7136 99.3628 97.8499 99.3368 97.9813C99.3109 98.1127 99.2401 98.231 99.1364 98.3159C99.0328 98.4007 98.9029 98.4468 98.769 98.4463Z" fill="black"/>
<path d="M58.9898 74.4253C58.8491 74.4276 58.7124 74.3784 58.6054 74.2869C46.7949 64.2943 39.535 49.1438 35.5225 38.2095C32.9325 31.2179 30.9459 24.0174 29.5845 16.6868C29.56 16.5339 29.5973 16.3776 29.6881 16.2522C29.7789 16.1267 29.9158 16.0425 30.0687 16.0181C30.2216 15.9936 30.3779 16.0309 30.5033 16.1217C30.6287 16.2125 30.713 16.3494 30.7375 16.5023C30.799 16.8867 37.1175 54.5514 59.3666 73.4222C59.4568 73.4993 59.5207 73.6024 59.5501 73.7174C59.5796 73.8324 59.573 73.9536 59.531 74.0646C59.489 74.1756 59.4138 74.2709 59.3156 74.3375C59.2173 74.4041 59.1009 74.4388 58.9823 74.4368L58.9898 74.4253Z" fill="black"/>
<path d="M235.403 49.3092C235.403 49.3092 241.291 43.0214 243.536 44.0207C245.78 45.02 242.767 52.5913 240.235 55.3432" fill="#FFCDB2"/>
<path d="M240.234 55.9199C240.092 55.9165 239.955 55.862 239.85 55.7661C239.739 55.6616 239.673 55.5176 239.667 55.3651C239.661 55.2126 239.716 55.0639 239.819 54.9514C241.806 52.7876 244.151 47.3684 243.697 45.1816C243.593 44.6781 243.378 44.582 243.313 44.5474C242.029 43.9709 238.17 47.2378 235.837 49.7013C235.792 49.7716 235.732 49.8311 235.661 49.8757C235.59 49.9203 235.51 49.9488 235.427 49.9594C235.344 49.9699 235.259 49.9622 235.179 49.9368C235.099 49.9114 235.026 49.8689 234.964 49.8123C234.903 49.7556 234.854 49.6862 234.822 49.6088C234.79 49.5314 234.774 49.448 234.778 49.3642C234.781 49.2805 234.803 49.1985 234.841 49.124C234.88 49.0495 234.934 48.9842 235 48.9327C236.026 47.8335 241.291 42.399 243.786 43.5136C244.067 43.6498 244.31 43.8539 244.493 44.1075C244.677 44.361 244.794 44.6562 244.835 44.9663C245.369 47.5529 242.913 53.3256 240.672 55.7507C240.615 55.8081 240.547 55.8528 240.472 55.8819C240.396 55.9111 240.315 55.924 240.234 55.9199Z" fill="black"/>
<path d="M211.955 167.05C211.84 167.05 211.728 167.015 211.633 166.951C211.538 166.886 211.464 166.795 211.421 166.688C205.422 151.699 179.671 138.678 179.414 138.548C179.285 138.475 179.189 138.355 179.145 138.214C179.102 138.072 179.115 137.92 179.181 137.787C179.247 137.655 179.362 137.553 179.501 137.503C179.64 137.453 179.793 137.458 179.929 137.517C181.005 138.056 206.332 150.858 212.489 166.258C212.546 166.4 212.545 166.558 212.485 166.699C212.425 166.839 212.312 166.95 212.17 167.007C212.102 167.036 212.029 167.051 211.955 167.05Z" fill="white"/>
<path d="M58.5215 137.36C58.3946 137.36 58.271 137.318 58.1702 137.241C58.0695 137.164 57.9972 137.056 57.9642 136.933C57.6605 135.78 50.6616 108.904 63.433 103.112C65.6161 102.12 67.7071 102.17 69.6518 103.258C77.8574 107.847 80.686 129.742 80.7975 130.672C80.8164 130.825 80.7737 130.979 80.6789 131.101C80.5841 131.222 80.4448 131.301 80.2919 131.32C80.139 131.339 79.9851 131.296 79.8637 131.201C79.7422 131.107 79.6634 130.967 79.6445 130.815C79.6138 130.595 76.7736 108.569 69.0716 104.261C67.4458 103.35 65.7507 103.319 63.8943 104.161C52.0184 109.542 58.9905 136.368 59.0635 136.641C59.0832 136.714 59.088 136.79 59.0781 136.865C59.0683 136.94 59.0439 137.012 59.0061 137.078C58.9682 137.143 58.9179 137.2 58.8578 137.246C58.7977 137.292 58.729 137.325 58.6559 137.344C58.6117 137.354 58.5668 137.359 58.5215 137.36Z" fill="black"/>
<path d="M70.401 135.3C70.3576 135.306 70.3134 135.306 70.27 135.3C70.1961 135.283 70.1264 135.252 70.0647 135.208C70.0029 135.164 69.9505 135.108 69.9104 135.044C69.8704 134.98 69.8434 134.908 69.8312 134.833C69.8191 134.758 69.8222 134.682 69.8399 134.608C69.8898 134.389 74.8785 112.751 69.1519 106.037C67.9412 104.619 66.3652 104 64.3282 104.146C51.3147 105.08 48.5437 132.644 48.5168 132.921C48.5098 132.997 48.4878 133.07 48.4523 133.138C48.4168 133.205 48.3686 133.264 48.31 133.313C48.2515 133.361 48.1838 133.398 48.1111 133.42C48.0385 133.443 47.9624 133.451 47.8867 133.444C47.811 133.437 47.7373 133.415 47.6701 133.379C47.6029 133.344 47.5434 133.295 47.4948 133.237C47.4463 133.178 47.4096 133.111 47.3871 133.038C47.3647 132.965 47.3568 132.889 47.3638 132.813C47.4753 131.637 50.2618 103.988 64.24 102.993C66.6306 102.82 68.5753 103.593 70.005 105.299C76.1082 112.455 71.1579 133.97 70.9388 134.893C70.9038 135.009 70.8328 135.111 70.7361 135.184C70.6394 135.257 70.5222 135.298 70.401 135.3Z" fill="black"/>
<path d="M44.819 126.975C44.819 126.975 37.6398 147.483 40.2341 161.596C40.2341 161.596 49.0738 168.714 71.123 168.691C71.123 168.691 80.4123 152.318 77.4683 134.373C77.4683 134.381 64.2087 124.5 44.819 126.975Z" fill="white"/>
<path d="M51.0652 126.576C66.9958 126.576 77.469 134.374 77.469 134.374C80.413 152.318 71.1237 168.691 71.1237 168.691H71.016C49.0513 168.691 40.2348 161.596 40.2348 161.596C37.6405 147.483 44.8198 126.975 44.8198 126.975C46.8913 126.715 48.9773 126.586 51.0652 126.591V126.576ZM51.0652 125.438C48.9281 125.439 46.7933 125.576 44.6738 125.849C44.4608 125.877 44.2599 125.964 44.0935 126.099C43.9272 126.235 43.8019 126.415 43.7321 126.618C43.4361 127.467 36.4835 147.576 39.1201 161.831C39.1705 162.102 39.3165 162.346 39.5314 162.519C39.9158 162.818 48.9207 169.867 71.0468 169.867H71.1545C71.3585 169.867 71.5586 169.813 71.7348 169.71C71.911 169.608 72.0568 169.46 72.1574 169.283C73.9626 165.883 75.4276 162.313 76.5311 158.625C78.3528 152.726 80.194 143.702 78.6374 134.208C78.5888 133.914 78.4276 133.649 78.1878 133.471C77.7458 133.144 67.2265 125.446 51.096 125.446L51.0652 125.438Z" fill="black"/>
<path d="M53.6201 134.527C53.6201 134.527 54.0042 156.25 61.3488 168.587C61.3488 168.587 72.1104 172.184 92.776 164.505C92.776 164.505 95.8006 145.93 86.8072 130.123C86.8072 130.123 70.942 125.468 53.6201 134.527Z" fill="#4BD657"/>
<path d="M68.8209 170.024C63.9476 170.024 61.3803 169.202 61.165 169.132C61.0344 169.088 60.9238 168.998 60.8535 168.879C53.5243 156.553 53.0595 135.442 53.0441 134.538C53.0416 134.431 53.0694 134.325 53.1244 134.232C53.1795 134.14 53.2595 134.065 53.3552 134.016C70.681 124.957 86.7923 129.523 86.9691 129.569C87.1124 129.611 87.2336 129.708 87.3072 129.838C96.2968 145.638 93.3758 164.428 93.3451 164.597C93.3276 164.7 93.2829 164.796 93.2152 164.875C93.1476 164.954 93.0595 165.014 92.9608 165.047C82.2148 169.044 74.1439 170.024 68.8209 170.024ZM61.7299 168.102C63.2672 168.521 73.7595 170.893 92.2537 164.094C92.5919 161.553 94.4252 144.877 86.4233 130.626C84.4671 130.122 69.8969 126.825 54.2084 134.881C54.3006 137.717 55.1693 156.861 61.7299 168.095V168.102Z" fill="black"/>
<path d="M42.5909 161.123C42.4466 161.123 42.3076 161.069 42.201 160.972C42.0944 160.874 42.0278 160.741 42.0144 160.597C40.8191 146.55 46.515 130.98 46.5765 130.823C46.6383 130.695 46.7453 130.594 46.8768 130.54C47.0083 130.486 47.1549 130.482 47.2889 130.53C47.4228 130.578 47.5345 130.673 47.6023 130.798C47.6701 130.923 47.6893 131.069 47.6563 131.207C47.5987 131.361 41.9876 146.696 43.1637 160.482C43.1705 160.557 43.1622 160.633 43.1397 160.706C43.1171 160.778 43.0805 160.845 43.0319 160.903C42.9834 160.961 42.9242 161.009 42.857 161.045C42.7899 161.08 42.7163 161.101 42.6408 161.108L42.5909 161.123Z" fill="white"/>
<path d="M61.5914 139.089C62.1603 139.089 62.6217 138.628 62.6217 138.059C62.6217 137.49 62.1603 137.029 61.5914 137.029C61.0226 137.029 60.5615 137.49 60.5615 138.059C60.5615 138.628 61.0226 139.089 61.5914 139.089Z" fill="#382256"/>
<path d="M75.2164 148.19C75.7853 148.19 76.2467 147.729 76.2467 147.16C76.2467 146.592 75.7853 146.13 75.2164 146.13C74.6476 146.13 74.1865 146.592 74.1865 147.16C74.1865 147.729 74.6476 148.19 75.2164 148.19Z" fill="#382256"/>
<path d="M76.2115 137.341C76.7804 137.341 77.2418 136.88 77.2418 136.311C77.2418 135.742 76.7804 135.281 76.2115 135.281C75.6427 135.281 75.1816 135.742 75.1816 136.311C75.1816 136.88 75.6427 137.341 76.2115 137.341Z" fill="#382256"/>
<path d="M69.5172 166.884C70.0861 166.884 70.5475 166.423 70.5475 165.854C70.5475 165.285 70.0861 164.824 69.5172 164.824C68.9483 164.824 68.4873 165.285 68.4873 165.854C68.4873 166.423 68.9483 166.884 69.5172 166.884Z" fill="#382256"/>
<path d="M87.9108 162.395C88.4796 162.395 88.9406 161.934 88.9406 161.365C88.9406 160.797 88.4796 160.335 87.9108 160.335C87.3419 160.335 86.8809 160.797 86.8809 161.365C86.8809 161.934 87.3419 162.395 87.9108 162.395Z" fill="#382256"/>
<path d="M68.4482 155.727C69.0171 155.727 69.4781 155.266 69.4781 154.697C69.4781 154.128 69.0171 153.667 68.4482 153.667C67.8794 153.667 67.418 154.128 67.418 154.697C67.418 155.266 67.8794 155.727 68.4482 155.727Z" fill="#382256"/>
<path d="M85.4053 147.887C85.9741 147.887 86.4352 147.426 86.4352 146.857C86.4352 146.288 85.9741 145.827 85.4053 145.827C84.8364 145.827 84.375 146.288 84.375 146.857C84.375 147.426 84.8364 147.887 85.4053 147.887Z" fill="#382256"/>
<path d="M63.5518 165.935C63.4514 165.936 63.3525 165.91 63.2655 165.86C63.1784 165.81 63.1062 165.738 63.056 165.651C56.5608 154.532 56.5723 138.578 56.5723 138.417C56.5743 138.265 56.6356 138.12 56.7434 138.013C56.8512 137.906 56.9968 137.845 57.1488 137.844C57.2245 137.845 57.2993 137.86 57.3691 137.89C57.4388 137.919 57.5021 137.962 57.5552 138.016C57.6084 138.07 57.6506 138.134 57.6791 138.204C57.7076 138.274 57.722 138.349 57.7215 138.425C57.7215 138.578 57.7215 154.225 64.0476 165.07C64.1176 165.201 64.135 165.353 64.0964 165.496C64.0578 165.639 63.9662 165.762 63.8401 165.839C63.7544 165.896 63.6548 165.93 63.5518 165.935Z" fill="white"/>
<path d="M30.9337 159.363C30.8041 159.363 30.6782 159.319 30.5764 159.239C30.4746 159.159 30.4028 159.047 30.3726 158.921C26.5946 143.382 31.5871 134.243 33.7201 130.342C33.9392 129.958 34.1277 129.573 34.2583 129.323C34.3256 129.186 34.4445 129.081 34.5894 129.031C34.7343 128.981 34.8932 128.991 35.0308 129.058C35.1684 129.125 35.2734 129.245 35.3231 129.39C35.3729 129.534 35.363 129.693 35.2957 129.831C35.1535 130.123 34.9576 130.48 34.7309 130.895C32.6632 134.677 27.8129 143.544 31.4948 158.652C31.5296 158.801 31.5041 158.957 31.4243 159.087C31.3444 159.218 31.2164 159.311 31.0681 159.348C31.0241 159.359 30.979 159.364 30.9337 159.363Z" fill="black"/>
<path d="M237.682 47.1027C238.001 46.8183 238.339 46.5262 238.688 46.238C237.617 45.8002 236.456 45.6262 235.303 45.7307C221.328 46.7338 218.538 74.3712 218.427 75.5473C218.412 75.7002 218.458 75.8527 218.556 75.9712C218.654 76.0898 218.795 76.1647 218.947 76.1795C219.1 76.1943 219.253 76.1477 219.371 76.0501C219.49 75.9524 219.565 75.8116 219.58 75.6587C219.606 75.3782 222.378 47.8137 235.391 46.8798C236.162 46.8171 236.938 46.8926 237.682 47.1027Z" fill="black"/>
<path d="M242.093 52.6179C244.564 61.423 240.94 77.1576 240.894 77.3459C240.861 77.4946 240.887 77.6506 240.968 77.7801C241.048 77.9095 241.176 78.0021 241.325 78.0377C241.369 78.0434 241.414 78.0434 241.459 78.0377C241.589 78.0375 241.715 77.9932 241.816 77.9122C241.917 77.8312 241.988 77.7183 242.016 77.5919C242.205 76.7886 246.067 60.024 242.827 51.1382C242.597 51.657 242.351 52.1336 242.093 52.6179Z" fill="black"/>
<path d="M237.514 47.2449C236.237 47.1288 234.952 47.3613 233.797 47.9175C221.037 53.7133 228.032 80.5859 228.328 81.7389C228.36 81.8621 228.432 81.9712 228.533 82.0491C228.634 82.127 228.758 82.1693 228.885 82.1694C228.935 82.175 228.985 82.175 229.035 82.1694C229.109 82.1497 229.177 82.1159 229.237 82.0697C229.297 82.0235 229.348 81.9659 229.385 81.9002C229.423 81.8346 229.448 81.7621 229.458 81.6869C229.467 81.6117 229.462 81.5354 229.443 81.4622C229.369 81.1931 222.398 54.382 234.274 48.986C234.915 48.6867 235.6 48.492 236.303 48.4095C236.649 48.0597 237.06 47.6639 237.514 47.2449Z" fill="black"/>
<path d="M251.173 75.4781C251.073 74.671 248.936 58.1101 243.021 50.7271C242.848 51.1114 242.668 51.4957 242.476 51.8801C247.918 59.2247 250.005 75.4205 250.032 75.6088C250.041 75.6845 250.065 75.7577 250.103 75.824C250.14 75.8904 250.191 75.9487 250.251 75.9956C250.311 76.0426 250.38 76.0772 250.453 76.0975C250.527 76.1179 250.603 76.1236 250.679 76.1142C250.755 76.1049 250.828 76.0807 250.895 76.0431C250.961 76.0055 251.019 75.9552 251.066 75.8951C251.113 75.8349 251.147 75.7662 251.168 75.6926C251.188 75.6191 251.194 75.5423 251.185 75.4666L251.173 75.4781Z" fill="black"/>
<path d="M215.192 71.7849C215.192 71.7849 208.016 92.2929 210.607 106.406C210.607 106.406 219.447 113.524 241.496 113.497C241.496 113.497 250.785 97.1279 247.841 79.1833C247.841 79.1833 234.581 69.3098 215.192 71.7849Z" fill="#4BD657"/>
<path d="M241.388 114.077C219.481 114.077 210.614 107.159 210.257 106.855C210.148 106.77 210.075 106.646 210.053 106.509C207.463 92.4082 214.365 72.4382 214.665 71.5926C214.699 71.4911 214.762 71.4013 214.844 71.3333C214.927 71.2654 215.028 71.2221 215.134 71.2083C234.531 68.7332 248.067 78.6144 248.187 78.7143C248.248 78.76 248.3 78.8175 248.339 78.8835C248.378 78.9495 248.403 79.0227 248.414 79.0987C251.358 97.0394 242.095 113.627 242.003 113.796C241.95 113.884 241.877 113.956 241.789 114.008C241.701 114.059 241.601 114.087 241.499 114.088L241.388 114.077ZM211.133 106.079C212.436 107.005 221.452 112.874 241.153 112.92C242.352 110.66 249.862 95.6596 247.303 79.5138C245.642 78.3608 233.121 70.2052 215.614 72.3113C214.723 75.0094 208.889 93.2575 211.133 106.079Z" fill="black"/>
<path d="M223.992 79.3372C223.992 79.3372 224.376 101.06 231.721 113.393C231.721 113.393 242.482 116.994 263.148 109.315C263.148 109.315 266.173 90.7365 257.179 74.9327C257.179 74.9327 241.314 70.2785 223.992 79.3372Z" fill="white"/>
<path d="M239.193 114.834C234.32 114.834 231.752 114.012 231.537 113.942C231.406 113.898 231.296 113.808 231.225 113.689C223.896 101.363 223.435 80.2517 223.416 79.3447C223.415 79.2379 223.444 79.133 223.499 79.0415C223.554 78.9499 223.633 78.8753 223.727 78.8258C241.053 69.7632 257.164 74.333 257.341 74.3791C257.484 74.4215 257.606 74.518 257.679 74.6481C266.673 90.4481 263.748 109.219 263.717 109.407C263.7 109.51 263.655 109.606 263.587 109.685C263.52 109.764 263.431 109.824 263.333 109.857C252.587 113.854 244.516 114.834 239.193 114.834ZM232.102 112.912C233.639 113.331 244.131 115.703 262.626 108.9C262.964 106.363 264.797 89.6832 256.795 75.4321C254.839 74.9325 240.269 71.6349 224.58 79.6906C224.673 82.5231 225.545 101.671 232.102 112.905V112.912Z" fill="black"/>
<path d="M212.962 105.94C212.818 105.941 212.679 105.887 212.573 105.789C212.466 105.692 212.401 105.558 212.389 105.414C211.19 91.3626 216.89 75.7932 216.948 75.6395C216.966 75.5607 217.002 75.4869 217.051 75.4226C217.1 75.3584 217.162 75.3052 217.233 75.2666C217.304 75.228 217.383 75.2048 217.464 75.1985C217.544 75.1922 217.625 75.203 217.702 75.2301C217.778 75.2573 217.848 75.3002 217.906 75.356C217.965 75.4119 218.011 75.4794 218.042 75.5543C218.073 75.6291 218.087 75.7096 218.085 75.7905C218.082 75.8714 218.063 75.9509 218.027 76.0238C217.97 76.1775 212.363 91.5125 213.535 105.299C213.548 105.451 213.5 105.602 213.402 105.719C213.304 105.836 213.164 105.91 213.012 105.925L212.962 105.94Z" fill="white"/>
<path d="M238.504 100.483C238.259 100.388 238.06 100.202 237.948 99.9648C237.835 99.7274 237.818 99.456 237.899 99.206C237.98 98.9561 238.153 98.7466 238.384 98.6204C238.614 98.4941 238.884 98.4607 239.138 98.5269" fill="#382256"/>
<path d="M233.924 110.745C233.824 110.745 233.725 110.718 233.638 110.669C233.551 110.619 233.479 110.547 233.428 110.46C226.933 99.3413 226.944 83.3838 226.944 83.2262C226.943 83.1501 226.958 83.0745 226.986 83.004C227.015 82.9335 227.058 82.8696 227.113 82.8161C227.167 82.7627 227.231 82.7207 227.302 82.6927C227.373 82.6648 227.449 82.6515 227.525 82.6535C227.6 82.6535 227.676 82.6686 227.746 82.6979C227.816 82.7271 227.879 82.77 227.932 82.824C227.986 82.878 228.028 82.942 228.056 83.0124C228.084 83.0827 228.098 83.158 228.097 83.2339C228.097 83.3876 228.097 99.0338 234.424 109.88C234.475 109.967 234.503 110.067 234.503 110.169C234.504 110.27 234.478 110.37 234.427 110.458C234.376 110.546 234.302 110.619 234.214 110.67C234.126 110.72 234.026 110.746 233.924 110.745Z" fill="white"/>
<path d="M235.234 85.4131C235.992 85.4131 236.606 84.7988 236.606 84.041C236.606 83.2832 235.992 82.6689 235.234 82.6689C234.477 82.6689 233.862 83.2832 233.862 84.041C233.862 84.7988 234.477 85.4131 235.234 85.4131Z" fill="#050505"/>
<path d="M252.887 81.4736C253.645 81.4736 254.259 80.8593 254.259 80.1016C254.259 79.3438 253.645 78.7295 252.887 78.7295C252.129 78.7295 251.515 79.3438 251.515 80.1016C251.515 80.8593 252.129 81.4736 252.887 81.4736Z" fill="#050505"/>
<path d="M245.346 90.3867C246.104 90.3867 246.718 89.7724 246.718 89.0147C246.718 88.2569 246.104 87.6426 245.346 87.6426C244.588 87.6426 243.974 88.2569 243.974 89.0147C243.974 89.7724 244.588 90.3867 245.346 90.3867Z" fill="#050505"/>
<path d="M258.717 102.385C259.475 102.385 260.089 101.771 260.089 101.013C260.089 100.255 259.475 99.6411 258.717 99.6411C257.959 99.6411 257.345 100.255 257.345 101.013C257.345 101.771 257.959 102.385 258.717 102.385Z" fill="#050505"/>
<path d="M237.805 100.671C238.563 100.671 239.178 100.057 239.178 99.2993C239.178 98.5415 238.563 97.9272 237.805 97.9272C237.048 97.9272 236.434 98.5415 236.434 99.2993C236.434 100.057 237.048 100.671 237.805 100.671Z" fill="#050505"/>
<path d="M246.718 110.952C247.476 110.952 248.09 110.338 248.09 109.58C248.09 108.822 247.476 108.208 246.718 108.208C245.96 108.208 245.346 108.822 245.346 109.58C245.346 110.338 245.96 110.952 246.718 110.952Z" fill="#050505"/>
<path d="M253.079 90.9514C252.943 90.9511 252.811 90.9024 252.707 90.814C252.603 90.7255 252.534 90.6031 252.512 90.4684C252.489 90.3337 252.516 90.1956 252.586 90.0786C252.656 89.9615 252.765 89.8731 252.894 89.8292C265.755 85.5177 277.093 77.5738 285.536 66.9574C291.889 58.9556 294.406 52.1952 294.429 52.126C294.45 52.0496 294.487 51.9783 294.537 51.9167C294.587 51.855 294.649 51.8042 294.719 51.7676C294.789 51.7309 294.866 51.7091 294.945 51.7036C295.024 51.698 295.104 51.7088 295.178 51.7353C295.253 51.7618 295.321 51.8034 295.379 51.8575C295.437 51.9116 295.483 51.9771 295.515 52.0498C295.546 52.1225 295.562 52.2009 295.562 52.2802C295.562 52.3594 295.545 52.4378 295.513 52.5103C295.41 52.7909 292.907 59.5129 286.439 67.6569C277.858 78.4484 266.336 86.5232 253.264 90.9053C253.206 90.932 253.143 90.9476 253.079 90.9514Z" fill="black"/>
<path d="M259.997 95.1793C259.844 95.1879 259.694 95.1355 259.579 95.0335C259.465 94.9315 259.396 94.7883 259.388 94.6354C259.379 94.4825 259.431 94.3325 259.533 94.2182C259.635 94.104 259.779 94.0349 259.931 94.0263C286.969 91.0208 294.375 75.6782 294.448 75.5244C294.478 75.4528 294.522 75.3879 294.578 75.3336C294.633 75.2794 294.699 75.2369 294.771 75.2087C294.844 75.1806 294.921 75.1673 294.999 75.1697C295.076 75.1721 295.153 75.1902 295.223 75.2228C295.293 75.2554 295.357 75.302 295.409 75.3596C295.461 75.4172 295.501 75.4847 295.526 75.5581C295.551 75.6315 295.561 75.7092 295.556 75.7867C295.55 75.8641 295.529 75.9396 295.494 76.0087C295.417 76.1739 293.553 80.1172 288.226 84.464C283.345 88.4573 274.494 93.5574 260.062 95.16L259.997 95.1793Z" fill="black"/>
<path d="M55.8345 118.816C55.8345 118.816 49.9463 117.555 50.1078 111.183C50.2692 104.811 52.4139 98.9613 56.8261 96.8052C61.2382 94.6491 64.8972 95.9404 66.7343 98.012C68.5714 100.084 67.9217 102.797 64.8701 104.592C64.8701 104.592 67.3452 108.769 61.7954 111.61C61.7954 111.61 63.0599 119.246 56.703 116.479L55.8345 118.816Z" fill="#FFCDB2"/>
<path d="M61.3 95.6903C62.3173 95.6697 63.3274 95.8646 64.264 96.262C65.2006 96.6594 66.0428 97.2505 66.7348 97.9963C68.5873 100.068 67.9221 102.781 64.8705 104.576C64.8705 104.576 67.3456 108.754 61.7958 111.594C61.7958 111.594 62.7029 117.067 59.1055 117.067C58.266 117.031 57.4424 116.826 56.6843 116.464L55.8233 118.8C55.8233 118.8 49.9355 117.54 50.0969 111.167C50.2584 104.795 52.4027 98.9456 56.8149 96.7895C58.2013 96.0808 59.732 95.6995 61.2888 95.675L61.3 95.6903ZM61.2888 94.522C59.5513 94.5451 57.8422 94.9658 56.2924 95.7518C51.8649 97.9079 49.1089 103.661 48.9244 111.125C48.8209 113.137 49.4295 115.121 50.6434 116.728C51.8573 118.336 53.5989 119.464 55.5621 119.915C55.6419 119.93 55.7229 119.938 55.8041 119.938C56.0414 119.936 56.2722 119.862 56.4655 119.724C56.6587 119.587 56.8049 119.393 56.884 119.169L57.3452 117.913C57.9093 118.088 58.4957 118.181 59.0864 118.189C59.6111 118.205 60.1326 118.103 60.6128 117.891C61.093 117.679 61.5196 117.362 61.8612 116.963C63.0372 115.58 63.0759 113.397 62.9875 112.201C64.7554 111.144 65.8775 109.826 66.3272 108.266C66.628 107.189 66.6053 106.047 66.2619 104.984C67.7069 103.919 68.6065 102.585 68.8332 101.14C68.932 100.427 68.8692 99.7005 68.6497 99.0147C68.4302 98.3288 68.0593 97.7011 67.5646 97.1777C66.7629 96.3125 65.7882 95.6257 64.7035 95.1622C63.6188 94.6987 62.4487 94.4688 61.2693 94.4874L61.2888 94.522Z" fill="black"/>
<path d="M61.7877 112.186C61.7106 112.186 61.6344 112.171 61.5636 112.141C61.4928 112.11 61.4289 112.065 61.3763 112.009C58.7475 109.296 54.7696 109.273 54.6966 109.273C54.5437 109.273 54.3971 109.212 54.289 109.104C54.1809 108.996 54.1201 108.849 54.1201 108.696C54.1201 108.543 54.1809 108.397 54.289 108.288C54.3971 108.18 54.5437 108.12 54.6966 108.12C54.8734 108.12 59.2163 108.12 62.2103 111.194C62.2905 111.275 62.3449 111.378 62.3664 111.49C62.3879 111.602 62.3757 111.717 62.3311 111.822C62.2866 111.927 62.2119 112.016 62.1164 112.078C62.021 112.14 61.909 112.172 61.7952 112.171L61.7877 112.186Z" fill="black"/>
<path d="M65.0315 105.245C64.8901 105.248 64.7528 105.197 64.6472 105.103C60.4195 101.471 57.418 102.797 57.2912 102.87C57.1531 102.936 56.9943 102.945 56.8498 102.894C56.7053 102.843 56.5869 102.737 56.5206 102.599C56.4544 102.461 56.4458 102.302 56.4966 102.158C56.5474 102.013 56.6535 101.895 56.7916 101.829C56.9453 101.756 60.5732 100.072 65.4005 104.231C65.5155 104.331 65.5863 104.474 65.5971 104.626C65.6079 104.779 65.558 104.929 65.4583 105.045C65.4054 105.107 65.34 105.157 65.2665 105.191C65.1929 105.226 65.1127 105.244 65.0315 105.245Z" fill="black"/>
<path d="M55.0731 100.46C54.9015 100.459 54.7353 100.401 54.6006 100.295C54.521 100.233 54.4547 100.155 54.405 100.067C54.3554 99.9792 54.3234 99.8823 54.3112 99.782C54.2991 99.6817 54.3069 99.58 54.3341 99.4827C54.3613 99.3854 54.4076 99.2944 54.47 99.2149C54.5661 99.0958 56.8413 96.2479 60.3964 95.9173C62.637 95.7059 64.8621 96.54 66.9875 98.404C67.124 98.5422 67.2032 98.7271 67.2089 98.9212C67.2147 99.1154 67.1467 99.3046 67.0186 99.4507C66.8906 99.5968 66.712 99.6889 66.5187 99.7087C66.3254 99.7284 66.1317 99.6742 65.9767 99.557C64.1819 97.9889 62.3563 97.274 60.5499 97.4393C57.6597 97.7045 55.6996 100.13 55.6804 100.164C55.6084 100.257 55.5165 100.331 55.4113 100.382C55.3061 100.434 55.1902 100.46 55.0731 100.46Z" fill="white"/>
<path d="M94.8984 160.231L137.717 173.23L142.302 190.052H276.104L256.957 251.603C255.604 255.954 251.48 261.649 246.929 261.792L165.62 261.672C163.306 261.745 161.031 261.065 159.138 259.733C157.244 258.402 155.834 256.491 155.12 254.289L130.834 179.344L94.8984 168.641V160.231Z" fill="#4BD657"/>
<path d="M246.949 262.365L165.616 262.245C163.182 262.315 160.791 261.595 158.801 260.193C156.811 258.791 155.328 256.782 154.574 254.466L130.361 179.814L94.7178 169.194C94.5984 169.16 94.4932 169.088 94.4183 168.989C94.3435 168.89 94.3029 168.769 94.3027 168.645V160.232C94.303 160.142 94.3243 160.053 94.365 159.973C94.4057 159.892 94.4648 159.823 94.5373 159.769C94.6098 159.716 94.6936 159.68 94.7824 159.665C94.8712 159.65 94.9624 159.656 95.0485 159.682L137.863 172.68C137.954 172.708 138.037 172.757 138.104 172.824C138.171 172.891 138.22 172.974 138.247 173.065L142.717 189.46H276.081C276.171 189.46 276.261 189.481 276.341 189.521C276.422 189.562 276.493 189.621 276.546 189.693C276.6 189.766 276.636 189.85 276.651 189.939C276.667 190.028 276.661 190.119 276.635 190.206L257.499 251.772C256.207 255.95 251.953 262.207 246.949 262.365ZM165.6 261.092L246.929 261.212C251.357 261.073 255.204 255.293 256.407 251.43L275.324 190.629H142.302C142.176 190.629 142.053 190.587 141.953 190.51C141.853 190.432 141.781 190.324 141.749 190.202L137.245 173.676L95.4749 160.993V168.203L130.999 178.783C131.09 178.811 131.172 178.861 131.239 178.928C131.306 178.995 131.356 179.077 131.383 179.168L155.669 254.113C156.353 256.19 157.688 257.992 159.478 259.249C161.267 260.507 163.414 261.153 165.6 261.092Z" fill="black"/>
<path d="M175.182 261.734C175.084 261.734 174.988 261.71 174.903 261.663C174.817 261.616 174.745 261.548 174.693 261.465C158.913 236.483 157.037 191.293 157.014 190.84C157.011 190.764 157.023 190.688 157.049 190.617C157.076 190.546 157.115 190.481 157.167 190.425C157.271 190.313 157.415 190.246 157.568 190.24C157.721 190.234 157.87 190.289 157.982 190.393C158.095 190.497 158.161 190.641 158.167 190.794C158.167 191.247 160.051 236.145 175.662 260.85C175.718 260.937 175.75 261.037 175.754 261.14C175.758 261.243 175.733 261.346 175.684 261.436C175.634 261.527 175.561 261.603 175.472 261.655C175.383 261.707 175.281 261.735 175.178 261.734H175.182Z" fill="black"/>
<path d="M234.246 261.596C234.143 261.596 234.041 261.568 233.952 261.515C233.864 261.462 233.791 261.386 233.741 261.295C233.692 261.205 233.668 261.102 233.671 260.999C233.675 260.895 233.706 260.795 233.762 260.708C251.146 233.497 251.745 190.828 251.749 190.402C251.751 190.25 251.812 190.106 251.92 189.999C252.028 189.893 252.174 189.833 252.325 189.833C252.401 189.833 252.476 189.848 252.546 189.877C252.616 189.907 252.68 189.949 252.733 190.003C252.786 190.057 252.828 190.121 252.857 190.192C252.885 190.262 252.899 190.337 252.898 190.413C252.898 190.844 252.295 233.843 234.727 261.331C234.675 261.412 234.605 261.479 234.521 261.525C234.437 261.571 234.342 261.596 234.246 261.596Z" fill="black"/>
<path d="M205.763 260.969C205.638 260.97 205.517 260.93 205.417 260.855C205.317 260.78 205.244 260.674 205.21 260.554C199.522 240.926 205.133 192.004 205.191 191.516C205.199 191.441 205.223 191.367 205.26 191.301C205.296 191.234 205.346 191.175 205.406 191.128C205.466 191.08 205.534 191.045 205.607 191.024C205.68 191.003 205.757 190.997 205.833 191.005C205.908 191.014 205.981 191.037 206.048 191.074C206.115 191.111 206.174 191.161 206.221 191.22C206.269 191.28 206.304 191.348 206.325 191.421C206.346 191.495 206.352 191.571 206.344 191.647C206.286 192.139 200.702 240.842 206.344 260.231C206.366 260.304 206.373 260.379 206.366 260.454C206.358 260.529 206.336 260.602 206.3 260.669C206.264 260.735 206.216 260.794 206.157 260.841C206.099 260.889 206.032 260.925 205.96 260.946C205.896 260.965 205.829 260.973 205.763 260.969Z" fill="black"/>
<path d="M172.887 297.093C178.799 297.093 183.591 292.301 183.591 286.389C183.591 280.478 178.799 275.686 172.887 275.686C166.976 275.686 162.184 280.478 162.184 286.389C162.184 292.301 166.976 297.093 172.887 297.093Z" fill="#4BD657"/>
<path d="M172.888 297.669C170.657 297.669 168.476 297.008 166.621 295.768C164.766 294.529 163.32 292.767 162.466 290.706C161.613 288.645 161.389 286.377 161.824 284.188C162.259 282 163.334 279.99 164.912 278.413C166.489 276.835 168.499 275.761 170.687 275.326C172.875 274.89 175.143 275.114 177.205 275.968C179.266 276.821 181.028 278.267 182.267 280.122C183.506 281.977 184.168 284.158 184.168 286.389C184.164 289.38 182.974 292.246 180.86 294.361C178.745 296.475 175.878 297.665 172.888 297.669ZM172.888 276.262C170.885 276.262 168.927 276.856 167.261 277.969C165.596 279.081 164.298 280.663 163.531 282.514C162.765 284.364 162.564 286.4 162.955 288.365C163.346 290.329 164.31 292.134 165.727 293.55C167.143 294.966 168.947 295.931 170.912 296.322C172.876 296.712 174.913 296.512 176.763 295.745C178.614 294.979 180.195 293.681 181.308 292.015C182.421 290.35 183.015 288.392 183.015 286.389C183.012 283.704 181.944 281.13 180.045 279.231C178.147 277.333 175.573 276.265 172.888 276.262Z" fill="black"/>
<path d="M239.404 297.093C245.315 297.093 250.107 292.301 250.107 286.389C250.107 280.478 245.315 275.686 239.404 275.686C233.492 275.686 228.7 280.478 228.7 286.389C228.7 292.301 233.492 297.093 239.404 297.093Z" fill="#4BD657"/>
<path d="M239.404 297.669C237.173 297.669 234.993 297.006 233.138 295.766C231.284 294.526 229.839 292.764 228.985 290.703C228.132 288.642 227.909 286.374 228.345 284.186C228.781 281.998 229.855 279.989 231.433 278.411C233.011 276.834 235.021 275.76 237.209 275.325C239.397 274.89 241.665 275.114 243.726 275.968C245.787 276.822 247.548 278.268 248.787 280.123C250.027 281.977 250.688 284.158 250.688 286.389C250.684 289.38 249.494 292.248 247.378 294.362C245.263 296.477 242.395 297.666 239.404 297.669ZM239.404 276.262C237.401 276.263 235.444 276.857 233.779 277.97C232.114 279.084 230.817 280.666 230.051 282.516C229.285 284.367 229.085 286.403 229.476 288.367C229.867 290.331 230.832 292.135 232.249 293.551C233.665 294.967 235.469 295.931 237.434 296.322C239.398 296.712 241.434 296.512 243.284 295.745C245.135 294.978 246.716 293.68 247.829 292.015C248.941 290.35 249.535 288.392 249.535 286.389C249.532 283.703 248.464 281.129 246.564 279.23C244.665 277.331 242.09 276.264 239.404 276.262Z" fill="black"/>
<path d="M250.825 266.592H162.321C161.396 266.592 160.646 267.343 160.646 268.268V269.913C160.646 270.838 161.396 271.589 162.321 271.589H250.825C251.751 271.589 252.501 270.838 252.501 269.913V268.268C252.501 267.343 251.751 266.592 250.825 266.592Z" fill="#4BD657"/>
<path d="M250.826 272.165H162.322C161.725 272.164 161.152 271.926 160.73 271.504C160.308 271.082 160.07 270.51 160.069 269.913V268.268C160.07 267.671 160.308 267.099 160.73 266.676C161.152 266.254 161.725 266.017 162.322 266.016H250.826C251.423 266.017 251.995 266.254 252.417 266.676C252.839 267.099 253.077 267.671 253.078 268.268V269.913C253.077 270.51 252.839 271.082 252.417 271.504C251.995 271.926 251.423 272.164 250.826 272.165ZM162.322 267.169C162.03 267.169 161.751 267.284 161.544 267.491C161.338 267.697 161.222 267.976 161.222 268.268V269.913C161.222 270.204 161.338 270.484 161.544 270.69C161.751 270.896 162.03 271.012 162.322 271.012H250.826C251.117 271.012 251.397 270.896 251.603 270.69C251.809 270.484 251.925 270.204 251.925 269.913V268.268C251.925 267.976 251.809 267.697 251.603 267.491C251.397 267.284 251.117 267.169 250.826 267.169H162.322Z" fill="black"/>
<path d="M185.501 267.169C185.348 267.169 185.202 267.108 185.094 267C184.986 266.892 184.925 266.745 184.925 266.592V261.7C184.925 261.547 184.986 261.4 185.094 261.292C185.202 261.184 185.348 261.123 185.501 261.123C185.654 261.123 185.801 261.184 185.909 261.292C186.017 261.4 186.078 261.547 186.078 261.7V266.592C186.078 266.745 186.017 266.892 185.909 267C185.801 267.108 185.654 267.169 185.501 267.169Z" fill="black"/>
<path d="M221.49 267.169C221.337 267.169 221.19 267.108 221.082 267C220.974 266.892 220.913 266.745 220.913 266.592V261.788C220.913 261.635 220.974 261.488 221.082 261.38C221.19 261.272 221.337 261.211 221.49 261.211C221.642 261.211 221.789 261.272 221.898 261.38C222.006 261.488 222.066 261.635 222.066 261.788V266.592C222.066 266.745 222.006 266.892 221.898 267C221.789 267.108 221.642 267.169 221.49 267.169Z" fill="black"/>
<path d="M239.242 289.46C240.94 289.46 242.316 288.084 242.316 286.386C242.316 284.688 240.94 283.311 239.242 283.311C237.544 283.311 236.167 284.688 236.167 286.386C236.167 288.084 237.544 289.46 239.242 289.46Z" fill="white"/>
<path d="M239.242 290.037C238.52 290.037 237.814 289.823 237.213 289.421C236.613 289.02 236.145 288.45 235.869 287.783C235.592 287.116 235.52 286.381 235.661 285.673C235.802 284.965 236.15 284.314 236.66 283.804C237.171 283.293 237.821 282.945 238.53 282.805C239.238 282.664 239.972 282.736 240.639 283.012C241.307 283.289 241.877 283.757 242.278 284.357C242.679 284.957 242.893 285.663 242.893 286.386C242.892 287.354 242.507 288.282 241.823 288.966C241.138 289.651 240.21 290.036 239.242 290.037ZM239.242 283.887C238.748 283.887 238.265 284.034 237.854 284.308C237.443 284.583 237.123 284.973 236.934 285.43C236.745 285.886 236.695 286.388 236.792 286.873C236.888 287.358 237.126 287.803 237.475 288.152C237.825 288.501 238.27 288.739 238.754 288.836C239.239 288.932 239.741 288.883 240.198 288.694C240.654 288.505 241.045 288.184 241.319 287.773C241.594 287.363 241.74 286.88 241.74 286.386C241.739 285.723 241.476 285.088 241.008 284.62C240.539 284.152 239.904 283.888 239.242 283.887Z" fill="black"/>
<path d="M172.752 289.46C174.45 289.46 175.827 288.083 175.827 286.385C175.827 284.687 174.45 283.311 172.752 283.311C171.054 283.311 169.678 284.687 169.678 286.385C169.678 288.083 171.054 289.46 172.752 289.46Z" fill="white"/>
<path d="M172.753 290.036C172.031 290.036 171.325 289.822 170.724 289.421C170.124 289.02 169.656 288.449 169.379 287.782C169.103 287.115 169.031 286.381 169.172 285.673C169.313 284.964 169.66 284.314 170.171 283.803C170.682 283.293 171.332 282.945 172.04 282.804C172.749 282.663 173.483 282.735 174.15 283.012C174.817 283.288 175.388 283.756 175.789 284.357C176.19 284.957 176.404 285.663 176.404 286.385C176.403 287.353 176.018 288.281 175.334 288.966C174.649 289.65 173.721 290.035 172.753 290.036ZM172.753 283.887C172.259 283.887 171.776 284.033 171.365 284.308C170.954 284.582 170.634 284.973 170.445 285.429C170.256 285.886 170.206 286.388 170.303 286.872C170.399 287.357 170.637 287.802 170.986 288.152C171.335 288.501 171.781 288.739 172.265 288.835C172.75 288.932 173.252 288.882 173.709 288.693C174.165 288.504 174.555 288.184 174.83 287.773C175.104 287.362 175.251 286.879 175.251 286.385C175.25 285.723 174.987 285.088 174.518 284.62C174.05 284.151 173.415 283.888 172.753 283.887Z" fill="black"/>
<path d="M170.063 257.368C169.962 257.368 169.864 257.342 169.777 257.292C169.69 257.242 169.618 257.17 169.567 257.084C155.051 232.256 154.501 197.574 154.497 197.228C154.496 197.152 154.51 197.077 154.538 197.007C154.566 196.936 154.608 196.872 154.66 196.818C154.713 196.764 154.776 196.72 154.846 196.69C154.915 196.66 154.99 196.645 155.066 196.644C155.218 196.644 155.363 196.703 155.471 196.81C155.579 196.916 155.641 197.061 155.643 197.212C155.643 197.558 156.196 231.941 170.551 256.5C170.602 256.587 170.629 256.687 170.63 256.788C170.631 256.89 170.605 256.989 170.554 257.078C170.504 257.166 170.431 257.239 170.344 257.29C170.256 257.341 170.157 257.368 170.055 257.368H170.063Z" fill="white"/>
<path d="M239.243 257.368C239.138 257.368 239.036 257.34 238.947 257.286C238.857 257.233 238.784 257.156 238.735 257.064C238.685 256.972 238.662 256.869 238.667 256.765C238.672 256.66 238.705 256.56 238.762 256.473C255.75 230.803 254.439 199.103 254.424 198.784C254.417 198.631 254.471 198.482 254.574 198.369C254.677 198.256 254.821 198.188 254.973 198.181C255.126 198.174 255.276 198.228 255.389 198.331C255.502 198.434 255.57 198.578 255.577 198.73C255.577 199.049 256.922 231.118 239.723 257.111C239.671 257.19 239.599 257.255 239.515 257.3C239.431 257.345 239.338 257.368 239.243 257.368Z" fill="white"/>
<path d="M207.727 257.368C207.598 257.368 207.472 257.325 207.37 257.245C207.268 257.164 207.196 257.052 207.166 256.926C202.965 239.355 207.112 200.241 207.166 199.849C207.174 199.773 207.197 199.7 207.234 199.633C207.27 199.566 207.319 199.507 207.379 199.459C207.438 199.411 207.506 199.376 207.579 199.354C207.652 199.333 207.728 199.326 207.804 199.334C207.88 199.342 207.953 199.365 208.02 199.401C208.087 199.438 208.146 199.487 208.194 199.546C208.242 199.605 208.277 199.673 208.299 199.747C208.32 199.82 208.327 199.896 208.319 199.972C208.277 200.356 204.153 239.278 208.319 256.657C208.354 256.806 208.328 256.962 208.249 257.093C208.169 257.223 208.041 257.316 207.892 257.353C207.838 257.366 207.783 257.371 207.727 257.368Z" fill="white"/>
<defs>
<filter id="filter0_d_14056_86862" x="-4.02018" y="107.785" width="38.6849" height="38.6839" filterUnits="userSpaceOnUse" color-interpolation-filters="sRGB">
<feFlood flood-opacity="0" result="BackgroundImageFix"/>
<feColorMatrix in="SourceAlpha" type="matrix" values="0 0 0 0 0 0 0 0 0 0 0 0 0 0 0 0 0 0 127 0" result="hardAlpha"/>
<feOffset dy="2.03704"/>
<feGaussianBlur stdDeviation="5.09261"/>
<feComposite in2="hardAlpha" operator="out"/>
<feColorMatrix type="matrix" values="0 0 0 0 0 0 0 0 0 0 0 0 0 0 0 0 0 0 0.05 0"/>
<feBlend mode="normal" in2="BackgroundImageFix" result="effect1_dropShadow_14056_86862"/>
<feBlend mode="normal" in="SourceGraphic" in2="effect1_dropShadow_14056_86862" result="shape"/>
</filter>
<filter id="filter1_d_14056_86862" x="370.65" y="165.21" width="38.6878" height="38.6883" filterUnits="userSpaceOnUse" color-interpolation-filters="sRGB">
<feFlood flood-opacity="0" result="BackgroundImageFix"/>
<feColorMatrix in="SourceAlpha" type="matrix" values="0 0 0 0 0 0 0 0 0 0 0 0 0 0 0 0 0 0 127 0" result="hardAlpha"/>
<feOffset dy="2.03704"/>
<feGaussianBlur stdDeviation="5.09261"/>
<feComposite in2="hardAlpha" operator="out"/>
<feColorMatrix type="matrix" values="0 0 0 0 0 0 0 0 0 0 0 0 0 0 0 0 0 0 0.05 0"/>
<feBlend mode="normal" in2="BackgroundImageFix" result="effect1_dropShadow_14056_86862"/>
<feBlend mode="normal" in="SourceGraphic" in2="effect1_dropShadow_14056_86862" result="shape"/>
</filter>
<linearGradient id="paint0_linear_14056_86862" x1="20.4547" y1="112.038" x2="392.053" y2="200.547" gradientUnits="userSpaceOnUse">
<stop stop-color="#CDD5E2"/>
<stop offset="1" stop-color="#CDD5E2" stop-opacity="0"/>
</linearGradient>
<linearGradient id="paint1_linear_14056_86862" x1="391.41" y1="195.437" x2="353.849" y2="294.044" gradientUnits="userSpaceOnUse">
<stop stop-color="#CDD5E2"/>
<stop offset="1" stop-color="#CDD5E2" stop-opacity="0"/>
</linearGradient>
<linearGradient id="paint2_linear_14056_86862" x1="196.503" y1="23.2607" x2="196.503" y2="365.006" gradientUnits="userSpaceOnUse">
<stop stop-color="#CDD5E2"/>
<stop offset="1" stop-color="#CDD5E2" stop-opacity="0"/>
</linearGradient>
<linearGradient id="paint3_linear_14056_86862" x1="196.505" y1="57.4336" x2="196.505" y2="330.83" gradientUnits="userSpaceOnUse">
<stop stop-color="#CDD5E2"/>
<stop offset="1" stop-color="#CDD5E2" stop-opacity="0"/>
</linearGradient>
</defs>
</svg>
