<svg width="285" height="212" viewBox="0 0 285 212" fill="none" xmlns="http://www.w3.org/2000/svg">
<mask id="mask0_14246_111104" style="mask-type:alpha" maskUnits="userSpaceOnUse" x="0" y="0" width="285" height="212">
<rect width="285" height="212" fill="#D9D9D9"/>
</mask>
<g mask="url(#mask0_14246_111104)">
<g opacity="0.5">
<mask id="path-2-inside-1_14246_111104" fill="white">
<path d="M273.871 142.257C275.287 109.772 265.017 77.8546 244.923 52.2907C224.829 26.7268 196.242 9.20819 164.342 2.91032C132.441 -3.38755 99.3407 1.95218 71.0393 17.9616C42.7378 33.971 21.1088 59.5905 10.0729 90.1762L10.6626 90.3889C21.6477 59.9443 43.1769 34.4429 71.3479 18.5072C99.5189 2.57162 132.467 -2.7435 164.22 3.52534C195.973 9.79418 224.429 27.2321 244.43 52.6781C264.432 78.1241 274.654 109.894 273.245 142.229L273.871 142.257Z"/>
</mask>
<path d="M273.871 142.257C275.287 109.772 265.017 77.8546 244.923 52.2907C224.829 26.7268 196.242 9.20819 164.342 2.91032C132.441 -3.38755 99.3407 1.95218 71.0393 17.9616C42.7378 33.971 21.1088 59.5905 10.0729 90.1762L10.6626 90.3889C21.6477 59.9443 43.1769 34.4429 71.3479 18.5072C99.5189 2.57162 132.467 -2.7435 164.22 3.52534C195.973 9.79418 224.429 27.2321 244.43 52.6781C264.432 78.1241 274.654 109.894 273.245 142.229L273.871 142.257Z" stroke="url(#paint0_linear_14246_111104)" stroke-width="2" stroke-dasharray="3 3" mask="url(#path-2-inside-1_14246_111104)"/>
</g>
<g opacity="0.5">
<mask id="path-3-inside-2_14246_111104" fill="white">
<path d="M10.256 182.994C21.4116 213.536 43.1407 239.071 71.5046 254.969C99.8685 270.868 132.99 276.078 164.865 269.655C196.74 263.233 225.259 245.602 245.253 219.96C265.247 194.317 275.391 162.36 273.848 129.881L273.222 129.911C274.758 162.24 264.66 194.05 244.759 219.574C224.857 245.098 196.469 262.648 164.741 269.041C133.013 275.434 100.044 270.248 71.8111 254.422C43.578 238.597 21.949 213.18 10.8449 182.779L10.256 182.994Z"/>
</mask>
<path d="M10.256 182.994C21.4116 213.536 43.1407 239.071 71.5046 254.969C99.8685 270.868 132.99 276.078 164.865 269.655C196.74 263.233 225.259 245.602 245.253 219.96C265.247 194.317 275.391 162.36 273.848 129.881L273.222 129.911C274.758 162.24 264.66 194.05 244.759 219.574C224.857 245.098 196.469 262.648 164.741 269.041C133.013 275.434 100.044 270.248 71.8111 254.422C43.578 238.597 21.949 213.18 10.8449 182.779L10.256 182.994Z" stroke="url(#paint1_linear_14246_111104)" stroke-width="2" stroke-dasharray="3 3" mask="url(#path-3-inside-2_14246_111104)"/>
</g>
<circle opacity="0.08" cx="138" cy="136.335" r="120" fill="url(#paint2_linear_14246_111104)"/>
<circle opacity="0.1" cx="138" cy="136.335" r="96" fill="url(#paint3_linear_14246_111104)"/>
<circle cx="138" cy="136.335" r="64" fill="white"/>
<g filter="url(#filter0_d_14246_111104)">
<circle cx="10.7606" cy="87.8481" r="5" transform="rotate(-2.50406 10.7606 87.8481)" fill="#0170FF"/>
<circle cx="10.7606" cy="87.8481" r="5.71528" transform="rotate(-2.50406 10.7606 87.8481)" stroke="white" stroke-width="1.43057"/>
</g>
<g filter="url(#filter1_d_14246_111104)">
<circle cx="273.879" cy="128.182" r="5" transform="rotate(-15.7345 273.879 128.182)" fill="#0170FF"/>
<circle cx="273.879" cy="128.182" r="5.71528" transform="rotate(-15.7345 273.879 128.182)" stroke="white" stroke-width="1.43057"/>
</g>
</g>
<path d="M180.831 41.8162H51.3768C44.2327 41.8162 38.4414 47.6076 38.4414 54.7516V135.359C38.4414 142.503 44.2327 148.294 51.3768 148.294H180.831C187.976 148.294 193.767 142.503 193.767 135.359V54.7516C193.767 47.6076 187.976 41.8162 180.831 41.8162Z" fill="white"/>
<path d="M180.835 148.67H51.3799C47.8502 148.666 44.4661 147.262 41.9702 144.766C39.4742 142.27 38.0704 138.886 38.0664 135.357V54.7517C38.071 51.2224 39.4752 47.839 41.971 45.3436C44.4669 42.8483 47.8506 41.4446 51.3799 41.4407H180.835C184.364 41.4447 187.747 42.8483 190.242 45.3438C192.738 47.8392 194.142 51.2226 194.146 54.7517V135.357C194.142 138.886 192.738 142.27 190.242 144.765C187.747 147.261 184.364 148.665 180.835 148.67ZM51.3799 42.1919C48.0496 42.1952 44.8566 43.5194 42.5015 45.8741C40.1464 48.2287 38.8216 51.4214 38.8176 54.7517V135.357C38.8216 138.687 40.1464 141.88 42.5014 144.235C44.8564 146.59 48.0494 147.915 51.3799 147.919H180.835C184.165 147.915 187.357 146.59 189.712 144.235C192.067 141.88 193.391 138.687 193.394 135.357V54.7517C193.391 51.4217 192.067 48.2289 189.712 45.8742C187.357 43.5195 184.165 42.1952 180.835 42.1919H51.3799Z" fill="black"/>
<path d="M183.761 45.6421H54.3065C47.1624 45.6421 41.3711 51.4335 41.3711 58.5775V139.185C41.3711 146.329 47.1624 152.12 54.3065 152.12H183.761C190.905 152.12 196.697 146.329 196.697 139.185V58.5775C196.697 51.4335 190.905 45.6421 183.761 45.6421Z" fill="white"/>
<path d="M183.762 152.496H54.307C50.778 152.492 47.3946 151.088 44.8991 148.593C42.4037 146.098 41.0001 142.714 40.9961 139.185V58.5802C41.0001 55.0508 42.4036 51.6672 44.899 49.1713C47.3944 46.6755 50.7777 45.2712 54.307 45.2666H183.762C187.291 45.2706 190.675 46.6745 193.171 49.1704C195.667 51.6664 197.071 55.0504 197.075 58.5802V139.185C197.071 142.714 195.666 146.098 193.171 148.593C190.675 151.088 187.291 152.492 183.762 152.496ZM54.307 46.0178C50.9768 46.0218 47.7841 47.3467 45.4295 49.7018C43.0749 52.0569 41.7506 55.2499 41.7473 58.5802V139.185C41.7506 142.515 43.0749 145.708 45.4296 148.063C47.7843 150.417 50.977 151.742 54.307 151.745H183.762C187.092 151.742 190.285 150.417 192.64 148.063C194.995 145.708 196.32 142.515 196.324 139.185V58.5802C196.32 55.2496 194.995 52.0567 192.64 49.7016C190.285 47.3466 187.092 46.0218 183.762 46.0178H54.307Z" fill="black"/>
<path d="M61.7668 68.1553H55.6395C52.6068 68.1553 50.1484 70.6137 50.1484 73.6464V79.7736C50.1484 82.8063 52.6068 85.2648 55.6395 85.2648H61.7668C64.7995 85.2648 67.2579 82.8063 67.2579 79.7736V73.6464C67.2579 70.6137 64.7995 68.1553 61.7668 68.1553Z" fill="#ACF9B0"/>
<path d="M91.7043 68.1553H85.5772C82.5445 68.1553 80.0859 70.6137 80.0859 73.6464V79.7736C80.0859 82.8063 82.5445 85.2648 85.5772 85.2648H91.7043C94.737 85.2648 97.1955 82.8063 97.1955 79.7736V73.6464C97.1955 70.6137 94.737 68.1553 91.7043 68.1553Z" fill="#ACF9B0"/>
<path d="M122.099 68.1553H115.972C112.939 68.1553 110.48 70.6137 110.48 73.6464V79.7736C110.48 82.8063 112.939 85.2648 115.972 85.2648H122.099C125.131 85.2648 127.59 82.8063 127.59 79.7736V73.6464C127.59 70.6137 125.131 68.1553 122.099 68.1553Z" fill="#ACF9B0"/>
<path d="M150.685 68.1553H144.558C141.525 68.1553 139.066 70.6137 139.066 73.6464V79.7736C139.066 82.8063 141.525 85.2648 144.558 85.2648H150.685C153.717 85.2648 156.176 82.8063 156.176 79.7736V73.6464C156.176 70.6137 153.717 68.1553 150.685 68.1553Z" fill="#ACF9B0"/>
<path d="M179.052 68.1553H172.925C169.892 68.1553 167.434 70.6137 167.434 73.6464V79.7736C167.434 82.8063 169.892 85.2648 172.925 85.2648H179.052C182.085 85.2648 184.543 82.8063 184.543 79.7736V73.6464C184.543 70.6137 182.085 68.1553 179.052 68.1553Z" fill="#ACF9B0"/>
<path d="M61.9894 95.168H55.8622C52.8295 95.168 50.3711 97.6264 50.3711 100.659V106.786C50.3711 109.819 52.8295 112.277 55.8622 112.277H61.9894C65.0221 112.277 67.4807 109.819 67.4807 106.786V100.659C67.4807 97.6264 65.0221 95.168 61.9894 95.168Z" fill="#ACF9B0"/>
<path d="M91.9308 95.168H85.8037C82.771 95.168 80.3125 97.6264 80.3125 100.659V106.786C80.3125 109.819 82.771 112.277 85.8037 112.277H91.9308C94.9635 112.277 97.4221 109.819 97.4221 106.786V100.659C97.4221 97.6264 94.9635 95.168 91.9308 95.168Z" fill="#ACF9B0"/>
<path d="M122.321 95.168H116.194C113.162 95.168 110.703 97.6264 110.703 100.659V106.786C110.703 109.819 113.162 112.277 116.194 112.277H122.321C125.354 112.277 127.813 109.819 127.813 106.786V100.659C127.813 97.6264 125.354 95.168 122.321 95.168Z" fill="#ACF9B0"/>
<path d="M150.915 95.168H144.788C141.755 95.168 139.297 97.6264 139.297 100.659V106.786C139.297 109.819 141.755 112.277 144.788 112.277H150.915C153.948 112.277 156.406 109.819 156.406 106.786V100.659C156.406 97.6264 153.948 95.168 150.915 95.168Z" fill="#ACF9B0"/>
<path d="M179.274 95.168H173.147C170.115 95.168 167.656 97.6264 167.656 100.659V106.786C167.656 109.819 170.115 112.277 173.147 112.277H179.274C182.307 112.277 184.766 109.819 184.766 106.786V100.659C184.766 97.6264 182.307 95.168 179.274 95.168Z" fill="#ACF9B0"/>
<path d="M61.9894 120.606H55.8622C52.8295 120.606 50.3711 123.064 50.3711 126.097V132.224C50.3711 135.257 52.8295 137.715 55.8622 137.715H61.9894C65.0221 137.715 67.4807 135.257 67.4807 132.224V126.097C67.4807 123.064 65.0221 120.606 61.9894 120.606Z" fill="#ACF9B0"/>
<path d="M91.9308 120.606H85.8037C82.771 120.606 80.3125 123.064 80.3125 126.097V132.224C80.3125 135.257 82.771 137.715 85.8037 137.715H91.9308C94.9635 137.715 97.4221 135.257 97.4221 132.224V126.097C97.4221 123.064 94.9635 120.606 91.9308 120.606Z" fill="#ACF9B0"/>
<path d="M122.321 120.606H116.194C113.162 120.606 110.703 123.064 110.703 126.097V132.224C110.703 135.257 113.162 137.715 116.194 137.715H122.321C125.354 137.715 127.813 135.257 127.813 132.224V126.097C127.813 123.064 125.354 120.606 122.321 120.606Z" fill="#ACF9B0"/>
<path d="M150.915 120.606H144.788C141.755 120.606 139.297 123.064 139.297 126.097V132.224C139.297 135.257 141.755 137.715 144.788 137.715H150.915C153.948 137.715 156.406 135.257 156.406 132.224V126.097C156.406 123.064 153.948 120.606 150.915 120.606Z" fill="#ACF9B0"/>
<path d="M179.274 120.606H173.147C170.115 120.606 167.656 123.064 167.656 126.097V132.224C167.656 135.257 170.115 137.715 173.147 137.715H179.274C182.307 137.715 184.766 135.257 184.766 132.224V126.097C184.766 123.064 182.307 120.606 179.274 120.606Z" fill="#ACF9B0"/>
<path d="M60.3707 37.99H60.3081C59.4216 37.99 58.7031 38.7086 58.7031 39.595V52.1424C58.7031 53.0288 59.4216 53.7474 60.3081 53.7474H60.3707C61.2571 53.7474 61.9758 53.0288 61.9758 52.1424V39.595C61.9758 38.7086 61.2571 37.99 60.3707 37.99Z" fill="#382256"/>
<path d="M60.3713 54.1231H60.3087C59.7831 54.1224 59.2794 53.9132 58.908 53.5414C58.5367 53.1695 58.3281 52.6655 58.3281 52.14V39.5951C58.3288 39.07 58.5376 38.5666 58.9089 38.1953C59.2802 37.824 59.7836 37.6152 60.3087 37.6145H60.3713C60.8964 37.6152 61.3998 37.824 61.7711 38.1953C62.1424 38.5666 62.3513 39.07 62.3519 39.5951V52.14C62.3519 52.6655 62.1434 53.1695 61.772 53.5414C61.4007 53.9132 60.8968 54.1224 60.3713 54.1231ZM60.3087 38.3657C59.9826 38.3657 59.6699 38.4952 59.4394 38.7258C59.2088 38.9564 59.0793 39.2691 59.0793 39.5951V52.14C59.0793 52.4663 59.2088 52.7792 59.4393 53.0102C59.6697 53.2412 59.9824 53.3713 60.3087 53.3719H60.3713C60.6976 53.3713 61.0103 53.2412 61.2408 53.0102C61.4713 52.7792 61.6008 52.4663 61.6008 52.14V39.5951C61.6008 39.2691 61.4713 38.9564 61.2407 38.7258C61.0101 38.4952 60.6973 38.3657 60.3713 38.3657H60.3087Z" fill="#1D1E1B"/>
<path d="M76.738 37.7646H76.6754C75.789 37.7646 75.0703 38.4832 75.0703 39.3697V51.917C75.0703 52.8034 75.789 53.522 76.6754 53.522H76.738C77.6244 53.522 78.3429 52.8034 78.3429 51.917V39.3697C78.3429 38.4832 77.6244 37.7646 76.738 37.7646Z" fill="#382256"/>
<path d="M76.7386 53.8977H76.6784C76.1529 53.8977 75.6489 53.6891 75.277 53.3178C74.9052 52.9464 74.696 52.4426 74.6953 51.9171V39.3698C74.696 38.8442 74.9052 38.3405 75.277 37.9691C75.6489 37.5977 76.1529 37.3892 76.6784 37.3892H76.7386C77.2641 37.3892 77.7681 37.5977 78.14 37.9691C78.5118 38.3405 78.721 38.8442 78.7217 39.3698V51.9171C78.721 52.4426 78.5118 52.9464 78.14 53.3178C77.7681 53.6891 77.2641 53.8977 76.7386 53.8977ZM76.6784 38.1403C76.3521 38.1403 76.0391 38.2698 75.8082 38.5003C75.5772 38.7308 75.4472 39.0435 75.4465 39.3698V51.9171C75.4472 52.2434 75.5772 52.5561 75.8082 52.7866C76.0391 53.0171 76.3521 53.1465 76.6784 53.1465H76.7386C77.0649 53.1465 77.3778 53.0171 77.6087 52.7866C77.8397 52.5561 77.9698 52.2434 77.9705 51.9171V39.3698C77.9698 39.0435 77.8397 38.7308 77.6087 38.5003C77.3778 38.2698 77.0649 38.1403 76.7386 38.1403H76.6784Z" fill="#1D1E1B"/>
<path d="M93.1011 37.5393H93.0385C92.1521 37.5393 91.4336 38.2579 91.4336 39.1444V51.6917C91.4336 52.5781 92.1521 53.2967 93.0385 53.2967H93.1011C93.9876 53.2967 94.7062 52.5781 94.7062 51.6917V39.1444C94.7062 38.2579 93.9876 37.5393 93.1011 37.5393Z" fill="#382256"/>
<path d="M93.1017 53.6724H93.0391C92.514 53.6717 92.0106 53.4628 91.6393 53.0915C91.268 52.7203 91.0593 52.2169 91.0586 51.6918V39.1445C91.0593 38.6194 91.268 38.116 91.6393 37.7447C92.0106 37.3734 92.514 37.1645 93.0391 37.1638H93.1017C93.6268 37.1645 94.1302 37.3734 94.5015 37.7447C94.8728 38.116 95.0817 38.6194 95.0824 39.1445V51.6918C95.0817 52.2169 94.8728 52.7203 94.5015 53.0915C94.1302 53.4628 93.6268 53.6717 93.1017 53.6724ZM93.0391 37.915C92.7131 37.915 92.4004 38.0445 92.1698 38.2751C91.9393 38.5057 91.8098 38.8184 91.8098 39.1445V51.6918C91.8098 52.0179 91.9393 52.3305 92.1698 52.5611C92.4004 52.7917 92.7131 52.9212 93.0391 52.9212H93.1017C93.4278 52.9212 93.7406 52.7917 93.9712 52.5611C94.2017 52.3305 94.3312 52.0179 94.3312 51.6918V39.1445C94.3312 38.8184 94.2017 38.5057 93.9712 38.2751C93.7406 38.0445 93.4278 37.915 93.1017 37.915H93.0391Z" fill="#1D1E1B"/>
<path d="M109.472 37.314H109.41C108.523 37.314 107.805 38.0326 107.805 38.919V51.4663C107.805 52.3528 108.523 53.0714 109.41 53.0714H109.472C110.359 53.0714 111.077 52.3528 111.077 51.4663V38.919C111.077 38.0326 110.359 37.314 109.472 37.314Z" fill="#382256"/>
<path d="M109.473 53.4471H109.413C108.887 53.4471 108.383 53.2385 108.011 52.8671C107.64 52.4957 107.43 51.992 107.43 51.4664V38.9191C107.43 38.3936 107.64 37.8898 108.011 37.5184C108.383 37.1471 108.887 36.9385 109.413 36.9385H109.473C109.998 36.9385 110.503 37.1471 110.874 37.5184C111.246 37.8898 111.455 38.3936 111.456 38.9191V51.4664C111.455 51.992 111.246 52.4957 110.874 52.8671C110.503 53.2385 109.998 53.4471 109.473 53.4471ZM109.413 37.6897C109.087 37.6897 108.773 37.8191 108.543 38.0496C108.312 38.2801 108.182 38.5928 108.181 38.9191V51.4664C108.182 51.7927 108.312 52.1055 108.543 52.3359C108.773 52.5664 109.087 52.6959 109.413 52.6959H109.473C109.799 52.6959 110.112 52.5664 110.343 52.3359C110.574 52.1055 110.704 51.7927 110.705 51.4664V38.9191C110.704 38.5928 110.574 38.2801 110.343 38.0496C110.112 37.8191 109.799 37.6897 109.473 37.6897H109.413Z" fill="#1D1E1B"/>
<path d="M125.839 37.5393H125.777C124.89 37.5393 124.172 38.2579 124.172 39.1444V51.6917C124.172 52.5781 124.89 53.2967 125.777 53.2967H125.839C126.726 53.2967 127.445 52.5781 127.445 51.6917V39.1444C127.445 38.2579 126.726 37.5393 125.839 37.5393Z" fill="#382256"/>
<path d="M125.84 53.6724H125.78C125.254 53.6724 124.75 53.4638 124.379 53.0924C124.007 52.7211 123.798 52.2173 123.797 51.6918V39.1445C123.798 38.6189 124.007 38.1151 124.379 37.7438C124.75 37.3724 125.254 37.1638 125.78 37.1638H125.84C126.365 37.1645 126.869 37.3734 127.24 37.7447C127.611 38.116 127.82 38.6194 127.821 39.1445V51.6918C127.82 52.2169 127.611 52.7203 127.24 53.0915C126.869 53.4628 126.365 53.6717 125.84 53.6724ZM125.78 37.915C125.454 37.915 125.141 38.0445 124.91 38.2749C124.679 38.5054 124.549 38.8182 124.548 39.1445V51.6918C124.549 52.0181 124.679 52.3308 124.91 52.5613C125.141 52.7918 125.454 52.9212 125.78 52.9212H125.84C126.166 52.9212 126.479 52.7917 126.709 52.5611C126.94 52.3305 127.07 52.0179 127.07 51.6918V39.1445C127.07 38.8184 126.94 38.5057 126.709 38.2751C126.479 38.0445 126.166 37.915 125.84 37.915H125.78Z" fill="#1D1E1B"/>
<path d="M142.207 37.5396H142.144C141.258 37.5396 140.539 38.2582 140.539 39.1446V51.6919C140.539 52.5784 141.258 53.2969 142.144 53.2969H142.207C143.093 53.2969 143.812 52.5784 143.812 51.6919V39.1446C143.812 38.2582 143.093 37.5396 142.207 37.5396Z" fill="#382256"/>
<path d="M142.207 53.6724H142.145C141.62 53.6717 141.116 53.4628 140.745 53.0915C140.374 52.7203 140.165 52.2169 140.164 51.6918V39.1445C140.165 38.6194 140.374 38.116 140.745 37.7447C141.116 37.3734 141.62 37.1645 142.145 37.1638H142.207C142.732 37.1645 143.236 37.3734 143.607 37.7447C143.978 38.116 144.187 38.6194 144.188 39.1445V51.6918C144.187 52.2169 143.978 52.7203 143.607 53.0915C143.236 53.4628 142.732 53.6717 142.207 53.6724ZM142.145 37.915C141.819 37.915 141.506 38.0445 141.275 38.2751C141.045 38.5057 140.915 38.8184 140.915 39.1445V51.6918C140.915 52.0179 141.045 52.3305 141.275 52.5611C141.506 52.7917 141.819 52.9212 142.145 52.9212H142.207C142.533 52.9212 142.846 52.7917 143.077 52.5611C143.307 52.3305 143.437 52.0179 143.437 51.6918V39.1445C143.437 38.8184 143.307 38.5057 143.077 38.2751C142.846 38.0445 142.533 37.915 142.207 37.915H142.145Z" fill="#1D1E1B"/>
<path d="M158.574 37.314H158.511C157.625 37.314 156.906 38.0326 156.906 38.919V51.4663C156.906 52.3528 157.625 53.0714 158.511 53.0714H158.574C159.46 53.0714 160.179 52.3528 160.179 51.4663V38.919C160.179 38.0326 159.46 37.314 158.574 37.314Z" fill="#382256"/>
<path d="M158.575 53.4471H158.514C157.989 53.4471 157.485 53.2385 157.113 52.8671C156.741 52.4957 156.532 51.992 156.531 51.4664V38.9191C156.532 38.3936 156.741 37.8898 157.113 37.5184C157.485 37.1471 157.989 36.9385 158.514 36.9385H158.575C159.1 36.9385 159.604 37.1471 159.976 37.5184C160.348 37.8898 160.557 38.3936 160.558 38.9191V51.4664C160.557 51.992 160.348 52.4957 159.976 52.8671C159.604 53.2385 159.1 53.4471 158.575 53.4471ZM158.514 37.6897C158.188 37.6897 157.875 37.8191 157.644 38.0496C157.413 38.2801 157.283 38.5928 157.282 38.9191V51.4664C157.283 51.7927 157.413 52.1055 157.644 52.3359C157.875 52.5664 158.188 52.6959 158.514 52.6959H158.575C158.901 52.6959 159.214 52.5664 159.445 52.3359C159.676 52.1055 159.806 51.7927 159.806 51.4664V38.9191C159.806 38.5928 159.676 38.2801 159.445 38.0496C159.214 37.8191 158.901 37.6897 158.575 37.6897H158.514Z" fill="#1D1E1B"/>
<path d="M174.937 37.5393H174.875C173.988 37.5393 173.27 38.2579 173.27 39.1444V51.6917C173.27 52.5781 173.988 53.2967 174.875 53.2967H174.937C175.824 53.2967 176.542 52.5781 176.542 51.6917V39.1444C176.542 38.2579 175.824 37.5393 174.937 37.5393Z" fill="#382256"/>
<path d="M174.938 53.6724H174.875C174.35 53.6717 173.847 53.4628 173.476 53.0915C173.104 52.7203 172.895 52.2169 172.895 51.6918V39.1445C172.895 38.6194 173.104 38.116 173.476 37.7447C173.847 37.3734 174.35 37.1645 174.875 37.1638H174.938C175.463 37.1645 175.966 37.3734 176.338 37.7447C176.709 38.116 176.918 38.6194 176.918 39.1445V51.6918C176.918 52.2169 176.709 52.7203 176.338 53.0915C175.966 53.4628 175.463 53.6717 174.938 53.6724ZM174.875 37.915C174.549 37.915 174.236 38.0445 174.006 38.2751C173.775 38.5057 173.646 38.8184 173.646 39.1445V51.6918C173.646 52.0179 173.775 52.3305 174.006 52.5611C174.236 52.7917 174.549 52.9212 174.875 52.9212H174.938C175.264 52.9212 175.577 52.7917 175.807 52.5611C176.038 52.3305 176.167 52.0179 176.167 51.6918V39.1445C176.167 38.8184 176.038 38.5057 175.807 38.2751C175.577 38.0445 175.264 37.915 174.938 37.915H174.875Z" fill="#1D1E1B"/>
<path d="M32.7512 59.4741H32V112.057H32.7512V59.4741Z" fill="#1D1D1B"/>
<path d="M177.472 16.0529C176.132 12.7977 174.38 9.96325 172.121 7.68465C170.376 5.93405 168.073 4.84887 165.612 4.61703C163.151 4.38518 160.686 5.02125 158.645 6.41513C154.273 9.39483 150.983 13.5865 148.629 18.8197C154.035 21.3688 157.696 23.0289 160.483 29.0284C164.524 21.3688 169.71 13.1332 177.472 16.0529Z" fill="white"/>
<path d="M160.486 29.4039C160.415 29.4025 160.347 29.3813 160.288 29.3427C160.229 29.3042 160.182 29.25 160.153 29.1861C157.461 23.3919 153.976 21.7493 148.697 19.2629L148.479 19.1602C148.389 19.1178 148.319 19.0414 148.285 18.9475C148.25 18.8537 148.255 18.7501 148.297 18.6594C150.725 13.2584 154.138 9.03173 158.443 6.09959C160.556 4.65365 163.109 3.99367 165.658 4.23428C168.207 4.47489 170.592 5.60088 172.397 7.41668C174.606 9.6452 176.431 12.4997 177.828 15.9051C177.858 15.9732 177.867 16.0486 177.854 16.1217C177.841 16.1949 177.807 16.2626 177.755 16.3162C177.704 16.3699 177.638 16.407 177.565 16.4229C177.492 16.4389 177.417 16.433 177.347 16.4059C170.179 13.7066 165.171 20.9631 160.821 29.2061C160.789 29.2664 160.74 29.3167 160.681 29.3515C160.622 29.3864 160.554 29.4045 160.486 29.4039ZM149.128 18.6369C154.098 20.9806 157.752 22.7359 160.503 28.1995C164.76 20.2269 169.72 13.3811 176.802 15.4293C175.624 12.6533 173.948 10.1167 171.856 7.94501C170.174 6.25399 167.953 5.20557 165.579 4.98189C163.204 4.75821 160.826 5.37339 158.858 6.72057C154.759 9.51999 151.487 13.5263 149.128 18.6369Z" fill="#1D1D1B"/>
<path d="M160.695 5.32848C160.695 5.32848 165.012 5.44618 166.237 8.46344C166.237 8.46344 169.219 5.07557 171.602 7.18891C171.592 7.18891 167.115 2.75942 160.695 5.32848Z" fill="#4BD657"/>
<path d="M166.108 9.16697L165.88 8.60609C164.763 5.85174 160.717 5.70401 160.676 5.70401L158.871 5.65144L160.546 4.98036C167.132 2.33618 171.814 6.87586 171.859 6.92093L171.358 7.46931C171.139 7.26197 170.879 7.10219 170.595 7.00007C170.311 6.89794 170.009 6.85565 169.708 6.87585C168.073 6.976 166.538 8.69624 166.521 8.71377L166.108 9.16697ZM162.352 5.18567C163.666 5.49116 165.432 6.18726 166.358 7.81984C166.951 7.26146 168.158 6.28993 169.51 6.1397C167.332 4.91299 164.765 4.57138 162.342 5.18567H162.352Z" fill="black"/>
<path d="M160.172 8.98145C160.172 8.98145 164.904 10.0557 166.181 14.355L160.172 8.98145Z" fill="white"/>
<path d="M166.206 14.7331C166.125 14.7333 166.046 14.7073 165.981 14.659C165.916 14.6108 165.868 14.5428 165.845 14.4652C164.635 10.4314 160.146 9.35717 160.101 9.34715C160.053 9.33614 160.007 9.31573 159.967 9.28712C159.927 9.25851 159.892 9.22224 159.866 9.18038C159.84 9.13853 159.822 9.09193 159.814 9.0432C159.806 8.99448 159.807 8.9446 159.818 8.89643C159.829 8.84825 159.849 8.80272 159.878 8.76243C159.907 8.72214 159.943 8.68789 159.985 8.66162C160.027 8.63535 160.073 8.61755 160.122 8.60929C160.171 8.60103 160.221 8.60246 160.269 8.61348C160.469 8.66105 165.226 9.79034 166.564 14.2474C166.592 14.3427 166.582 14.4455 166.535 14.5333C166.488 14.6211 166.408 14.6867 166.313 14.7156C166.278 14.7261 166.242 14.732 166.206 14.7331Z" fill="#1D1D1B"/>
<path d="M156.523 13.0657C156.523 13.0657 161.469 13.4964 162.112 18.011L156.523 13.0657Z" fill="white"/>
<path d="M162.109 18.3865C162.019 18.3862 161.931 18.3534 161.863 18.294C161.795 18.2347 161.751 18.1529 161.738 18.0635C161.142 13.9044 156.675 13.4562 156.48 13.4412C156.431 13.4367 156.383 13.4226 156.339 13.3996C156.295 13.3767 156.256 13.3453 156.224 13.3073C156.193 13.2693 156.169 13.2253 156.154 13.1781C156.139 13.1308 156.134 13.0811 156.138 13.0318C156.143 12.9825 156.157 12.9345 156.18 12.8906C156.203 12.8468 156.234 12.8078 156.272 12.7761C156.31 12.7444 156.354 12.7204 156.401 12.7056C156.449 12.6909 156.498 12.6856 156.548 12.69C156.6 12.69 161.806 13.1908 162.477 17.9483C162.491 18.0472 162.465 18.1474 162.404 18.2272C162.344 18.3069 162.255 18.3597 162.157 18.374L162.109 18.3865Z" fill="#1D1D1B"/>
<path d="M149.213 11.0775C149.161 11.0778 149.11 11.0667 149.063 11.0449C149.017 11.0251 148.975 10.9963 148.941 10.9603C148.906 10.9243 148.879 10.8817 148.861 10.8351C148.843 10.7884 148.835 10.7387 148.836 10.6887C148.838 10.6387 148.849 10.5896 148.87 10.5441C148.91 10.454 152.926 1.52989 162.053 0.00497824C162.153 -0.011292 162.255 0.0126792 162.337 0.0716119C162.419 0.130545 162.474 0.219612 162.49 0.319226C162.506 0.41884 162.482 0.520843 162.424 0.602786C162.365 0.684728 162.275 0.739895 162.176 0.756165C153.457 2.20846 149.596 10.772 149.556 10.8571C149.526 10.9232 149.478 10.9792 149.417 11.0183C149.356 11.0574 149.285 11.078 149.213 11.0775Z" fill="#1D1D1B"/>
<path d="M209.273 78.2788C211.414 83.0363 214.144 87.1303 217.592 90.388C220.256 92.8905 223.712 94.3827 227.361 94.6063C231.01 94.8299 234.622 93.7708 237.573 91.6124C243.891 86.9926 248.551 80.6351 251.773 72.7852C243.655 69.2796 238.167 67.006 233.745 58.2622C228.163 69.7929 220.882 82.2201 209.273 78.2788Z" fill="white"/>
<path d="M228.306 95.0176C224.226 95.0232 220.299 93.4639 217.334 90.6608C213.976 87.4908 211.152 83.3768 208.931 78.4339C208.901 78.3669 208.892 78.2927 208.903 78.2203C208.915 78.1479 208.947 78.0803 208.996 78.0258C209.045 77.9718 209.109 77.9334 209.18 77.9151C209.25 77.8969 209.325 77.8997 209.394 77.9232C220.256 81.6115 227.358 70.579 233.415 58.1068C233.445 58.044 233.493 57.991 233.552 57.9539C233.612 57.9167 233.68 57.8968 233.75 57.8965C233.819 57.8969 233.887 57.9163 233.946 57.9525C234.006 57.9886 234.054 58.0403 234.086 58.1018C238.377 66.5952 243.633 68.8688 251.591 72.2992L251.919 72.442C252.009 72.4807 252.081 72.5532 252.118 72.644C252.155 72.7348 252.156 72.8367 252.119 72.9277C248.804 81.0005 243.984 87.3881 237.791 91.9153C235.04 93.9312 231.717 95.0178 228.306 95.0176ZM209.977 78.8797C212.101 83.3868 214.748 87.1677 217.86 90.1074C220.459 92.5534 223.832 94.0121 227.394 94.2302C230.957 94.4484 234.483 93.4123 237.361 91.3018C243.353 86.9199 248.04 80.7576 251.295 72.9778C243.686 69.6927 238.134 67.2938 233.767 59.0984C227.783 71.3027 220.729 81.9119 209.977 78.8797Z" fill="#1D1D1B"/>
<path d="M234.626 93.3148C234.626 93.3148 228.238 93.3524 226.28 88.9504C226.28 88.9504 222.038 94.1036 218.41 91.0963C218.41 91.0963 225.246 97.4439 234.626 93.3148Z" fill="#4BD657"/>
<path d="M228.281 95.0753C224.58 95.0394 221.004 93.7318 218.152 91.3719L218.653 90.8085C219.007 91.1183 219.42 91.3525 219.867 91.4967C220.315 91.641 220.787 91.6922 221.255 91.6473C223.739 91.4119 225.972 88.7377 225.995 88.7102L226.38 88.2419L226.631 88.7978C228.468 92.9293 234.576 92.9419 234.631 92.9394H236.444L234.784 93.6705C232.738 94.5892 230.523 95.0678 228.281 95.0753ZM221.004 92.4135C222.806 93.427 224.799 94.0523 226.856 94.2494C228.914 94.4465 230.99 94.2109 232.951 93.5578C230.962 93.2724 227.73 92.381 226.19 89.6116C225.404 90.4354 223.498 92.1882 221.322 92.3935C221.214 92.401 221.109 92.401 221.004 92.4135Z" fill="black"/>
<path d="M235.206 87.8941C235.206 87.8941 228.163 86.5344 226.047 80.2419L235.206 87.8941Z" fill="white"/>
<path d="M235.203 88.2671C235.18 88.2696 235.156 88.2696 235.133 88.2671C234.835 88.212 227.849 86.7947 225.685 80.3671C225.652 80.2725 225.658 80.1685 225.701 80.0781C225.745 79.9877 225.823 79.9183 225.917 79.8851C226.012 79.8519 226.116 79.8576 226.206 79.9011C226.296 79.9445 226.366 80.0221 226.399 80.1167C228.422 86.1262 235.206 87.5084 235.276 87.5209C235.375 87.5305 235.467 87.5793 235.53 87.6566C235.594 87.7338 235.624 87.8332 235.615 87.9328C235.605 88.0324 235.556 88.1241 235.479 88.1878C235.402 88.2514 235.303 88.2817 235.203 88.2721V88.2671Z" fill="#1D1D1B"/>
<path d="M240.4 81.6741C240.4 81.6741 233.069 81.281 231.887 74.6355L240.4 81.6741Z" fill="white"/>
<path d="M240.402 82.0497H240.382C240.304 82.0497 232.737 81.5489 231.525 74.7031C231.508 74.6035 231.53 74.501 231.588 74.4181C231.646 74.3352 231.735 74.2788 231.835 74.2612C231.934 74.2436 232.037 74.2663 232.12 74.3243C232.202 74.3823 232.259 74.4708 232.277 74.5704C233.383 80.8303 240.144 81.2835 240.432 81.2986C240.532 81.3012 240.626 81.3433 240.695 81.4156C240.763 81.4879 240.8 81.5845 240.798 81.6841C240.795 81.7838 240.753 81.8782 240.68 81.9468C240.608 82.0154 240.512 82.0524 240.412 82.0497H240.402Z" fill="#1D1D1B"/>
<path d="M219.31 72.2617C219.227 72.2618 219.147 72.2346 219.081 72.1842C219.015 72.1339 218.968 72.0632 218.946 71.9833C218.925 71.9034 218.931 71.8186 218.962 71.7421C218.994 71.6657 219.05 71.6019 219.122 71.5606C226.719 67.1937 228.564 58.2896 228.582 58.2095C228.602 58.1117 228.66 58.0258 228.743 57.9705C228.826 57.9151 228.927 57.8949 229.025 57.914C229.119 57.9357 229.201 57.9929 229.254 58.0736C229.306 58.1544 229.326 58.2524 229.308 58.3472C229.29 58.4399 227.385 67.6619 219.488 72.2041C219.434 72.2371 219.373 72.2569 219.31 72.2617Z" fill="#1D1D1B"/>
<path d="M71.0581 155.261C71.9966 155.096 72.6237 154.201 72.4589 153.261C72.294 152.321 71.3995 151.693 70.461 151.857C69.5225 152.022 68.8954 152.917 69.0602 153.857C69.2251 154.797 70.1196 155.425 71.0581 155.261Z" fill="#51CEF4"/>
<path d="M172.365 99.457C172.365 99.457 175.793 108.782 181.96 104.866C188.128 100.949 198.153 95.4256 204.937 104.322C211.72 113.219 215.453 119.767 222.965 117.423C230.477 115.079 246.35 135.286 227.898 147.365C197.658 167.167 156.828 113.797 156.828 113.797L161.335 106.854L172.365 99.457Z" fill="#382256"/>
<path d="M172.365 99.4571C172.365 99.4571 174.707 105.827 179.001 105.827C180.059 105.798 181.087 105.464 181.961 104.866C185.686 102.497 190.829 99.5422 195.81 99.5422C199.065 99.5422 202.255 100.794 204.937 104.322C210.776 111.982 214.364 117.901 220.043 117.901C221.038 117.891 222.026 117.73 222.973 117.423C223.388 117.295 223.82 117.232 224.255 117.235C232.095 117.235 245.363 135.937 227.906 147.365C223.528 150.268 218.385 151.803 213.132 151.772C185.889 151.772 156.838 113.797 156.838 113.797L161.345 106.854L172.363 99.4571H172.365ZM172.736 98.3027L171.945 98.8336L160.927 106.23L160.799 106.315L160.717 106.446L156.21 113.389L155.922 113.835L156.245 114.255C161.706 121.115 167.737 127.501 174.273 133.346C180.511 138.897 186.64 143.321 192.49 146.499C199.849 150.505 206.795 152.523 213.137 152.523C218.532 152.545 223.811 150.967 228.309 147.989C232.348 145.347 235.057 142.15 236.364 138.489C237.478 135.374 237.531 131.931 236.519 128.538C235.541 125.31 233.764 122.382 231.351 120.025C229.025 117.771 226.436 116.474 224.247 116.474C223.738 116.472 223.232 116.547 222.745 116.694C221.872 116.98 220.96 117.131 220.041 117.14C215.464 117.14 212.196 112.763 207.671 106.704C206.988 105.785 206.279 104.838 205.53 103.857C202.964 100.489 199.691 98.781 195.807 98.781C190.8 98.781 185.792 101.535 181.555 104.222C180.8 104.74 179.913 105.033 178.998 105.066C175.283 105.066 173.089 99.2467 173.066 99.1866L172.736 98.2927V98.3027Z" fill="#1D1E1B"/>
<path d="M161.332 106.854L172.349 99.457C172.349 99.457 174.039 104.054 177.179 105.436C176.045 109.41 173.148 111.947 168.949 113.434C168.949 113.434 183.609 120.062 189.902 126.918C194.133 131.528 211.253 152.709 202.83 150.125C195.345 147.833 188.019 143.389 181.488 138.374C173.05 127.128 163.317 114.148 159.727 109.313L161.332 106.854Z" fill="#050505"/>
<path d="M158.072 121.322C158.072 121.322 149.193 152.684 119.781 172.415C97.6363 187.276 98.3901 184.832 88.0788 179.659C79.0645 175.129 63.615 154.041 65.0147 146.677C66.4144 139.313 71.7554 138.952 71.7554 138.952L71.6903 133.266L90.9708 128.816L91.8546 132.549C91.8546 132.549 99.5018 133.619 100.283 140.522C101.064 147.426 103.728 156.575 102.244 160.303C102.244 160.303 108.531 129.297 149.568 116.056" fill="#07ACEE"/>
<path d="M98.0817 184.046C95.5927 184.046 93.562 182.964 90.6123 181.399C89.8111 180.973 88.9046 180.49 87.913 179.994C83.6563 177.856 77.5367 171.754 72.3334 164.45C66.8598 156.76 63.9853 150.09 64.6488 146.607C65.8732 140.156 70.1199 138.872 71.3794 138.631L71.3118 132.965L91.2433 128.363L92.1548 132.221C93.5245 132.494 99.9171 134.102 100.648 140.484C100.899 142.668 101.337 145.117 101.767 147.496C102.353 150.733 102.919 153.861 103.034 156.41C104.81 151.621 107.221 147.092 110.203 142.946C114.227 137.342 119.092 132.393 124.626 128.275C131.695 122.977 140.043 118.76 149.443 115.718L149.673 116.434C128.592 123.235 116.919 134.825 110.837 143.349C105.801 150.408 103.663 156.587 102.927 159.146C102.862 159.596 102.747 160.037 102.584 160.461L101.868 160.248C101.868 160.231 101.965 159.785 102.191 158.996C102.596 156.292 101.803 151.897 101.029 147.628C100.596 145.249 100.15 142.788 99.902 140.577C99.1634 134.049 92.0946 132.978 91.7941 132.935L91.5437 132.9L90.69 129.277L72.063 133.563L72.1306 139.303L71.7751 139.328C71.5697 139.343 66.702 139.773 65.3774 146.747C64.7639 149.984 67.661 156.6 72.9394 164.024C78.075 171.236 84.082 177.245 88.241 179.333C89.2426 179.834 90.1516 180.317 90.9554 180.746C98.5749 184.792 99.7442 185.413 119.566 172.114C134.692 161.966 144.252 148.675 149.613 139.313C155.422 129.159 157.683 121.307 157.706 121.229L158.427 121.434C158.404 121.512 156.128 129.447 150.277 139.666C144.876 149.103 135.238 162.504 119.979 172.738C107.451 181.144 102.156 184.046 98.0817 184.046Z" fill="#1D1D1B"/>
<path d="M97.6016 183.295H100.689C102.885 182.714 105.602 181.399 109.44 179.09L118.482 150.343C104.057 159.958 97.6016 183.295 97.6016 183.295Z" fill="#0598C6"/>
<path d="M91.3981 132.945C91.3981 132.945 88.2407 142.19 71.9023 139.29L71.9724 133.681L90.4066 129.372L91.3981 132.945Z" fill="#0598C6"/>
<path d="M119.968 148.399C101.586 171.341 103.519 205.635 103.519 205.635L196.571 206.636C196.571 206.636 195.722 115.532 158.146 117.127" fill="#07ACEE"/>
<path d="M196.572 207.012L103.52 206.01C103.425 206.01 103.333 205.973 103.264 205.908C103.195 205.842 103.153 205.753 103.147 205.657C103.147 205.572 102.684 196.911 104.484 185.561C106.147 175.077 110.133 160.08 119.678 148.164C119.741 148.086 119.831 148.037 119.931 148.026C120.03 148.015 120.129 148.044 120.207 148.106C120.284 148.169 120.334 148.26 120.345 148.359C120.356 148.458 120.327 148.557 120.264 148.635C110.824 160.416 106.878 175.272 105.228 185.661C104.181 192.14 103.731 198.702 103.883 205.264L196.194 206.266C195.904 195.069 194.908 183.902 193.212 172.83C190.623 156.274 185.199 134.33 174.132 123.808C169.464 119.378 164.096 117.26 158.164 117.511C158.065 117.514 157.968 117.478 157.895 117.41C157.822 117.343 157.778 117.249 157.773 117.15C157.771 117.101 157.778 117.051 157.795 117.005C157.811 116.958 157.837 116.916 157.871 116.879C157.904 116.843 157.944 116.814 157.989 116.793C158.034 116.772 158.082 116.761 158.132 116.759C164.269 116.509 169.83 118.687 174.658 123.27C179.628 127.99 183.892 135.319 187.333 145.054C190.087 152.816 192.306 162.129 193.963 172.728C195.694 183.957 196.697 195.286 196.968 206.644C196.969 206.694 196.959 206.743 196.941 206.789C196.922 206.835 196.895 206.877 196.86 206.912C196.825 206.947 196.783 206.975 196.737 206.994C196.691 207.013 196.642 207.022 196.592 207.022L196.572 207.012Z" fill="#1D1D1B"/>
<path d="M166.839 117.816C166.839 117.816 203.825 134.032 211.385 168.634C217.076 194.688 215 195.008 206.402 202.7C198.89 209.433 173.672 214.133 167.34 210.127C161.007 206.121 162.632 201.02 162.632 201.02L157.316 198.994L160.254 179.434L164.052 179.984C164.052 179.984 167.853 173.261 174.569 175.072C181.284 176.882 190.764 177.758 193.694 180.51" fill="#07ACEE"/>
<path d="M175.208 211.98C171.833 211.98 168.881 211.549 167.133 210.445C161.584 206.939 161.947 202.515 162.185 201.255L156.895 199.237L159.932 179.008L163.855 179.576C164.607 178.402 168.458 173.036 174.653 174.708C176.776 175.279 179.217 175.768 181.576 176.236C186.867 177.29 191.862 178.287 193.938 180.242L193.422 180.788C191.504 178.985 186.384 177.966 181.431 176.98C179.057 176.506 176.603 176.018 174.457 175.437C168.102 173.724 164.409 180.11 164.371 180.172L164.246 180.397L160.563 179.864L157.728 198.756L163.092 200.802L162.982 201.14C162.921 201.338 161.534 206.023 167.534 209.814C170.356 211.599 177.742 211.702 186.351 210.077C195.142 208.417 202.729 205.485 206.15 202.425L207.309 201.393C214.821 194.733 216.393 193.345 211.015 168.719C207.136 150.958 195.3 138.171 186.053 130.559C176.017 122.296 166.773 118.207 166.688 118.164L166.988 117.478C167.081 117.518 176.4 121.647 186.519 129.965C192.461 134.85 197.516 140.206 201.542 145.883C206.58 152.989 210.016 160.616 211.751 168.559C214.618 181.677 215.397 187.812 214.736 192.001C214.032 196.445 211.689 198.511 207.81 201.957L206.653 202.986C202.449 206.742 193.482 209.496 186.494 210.816C182.883 211.489 178.804 211.977 175.208 211.98Z" fill="#1D1D1B"/>
<path d="M164.247 180.54C164.247 180.54 171.684 186.87 162.996 201.003L157.805 198.879L160.559 180.15L164.247 180.54Z" fill="#0598C6"/>
<path d="M151.54 114.368C149.78 115.16 148.365 116.563 147.559 118.317C146.024 121.69 148.06 127.081 156.073 124.326C156.073 124.326 158.895 130.541 166.589 127.582C173.1 125.078 172.599 121.104 167.649 118.803C163.359 116.81 151.54 114.368 151.54 114.368Z" fill="white"/>
<path d="M162.69 128.753C158.516 128.753 156.45 125.749 155.889 124.782C151.132 126.33 148.861 124.87 147.929 123.843C146.615 122.396 146.327 120.112 147.213 118.162C148.056 116.315 149.547 114.841 151.402 114.018L151.507 113.978L151.615 114C152.098 114.1 163.524 116.474 167.806 118.462C170.397 119.669 171.85 121.359 171.79 123.102C171.727 124.985 169.927 126.7 166.721 127.932C165.44 128.451 164.073 128.73 162.69 128.753ZM156.27 123.861L156.413 124.171C156.52 124.422 159.192 130.023 166.451 127.231C169.356 126.114 170.986 124.639 171.038 123.077C171.088 121.65 169.786 120.215 167.488 119.146C163.509 117.295 152.81 115.017 151.578 114.759C149.957 115.532 148.657 116.845 147.899 118.472C147.133 120.155 147.368 122.11 148.485 123.34C149.912 124.91 152.562 125.135 155.947 123.971L156.27 123.861Z" fill="#1D1E1B"/>
<path d="M86.6909 145.046C87.6294 144.881 88.2566 143.986 88.0917 143.046C87.9268 142.106 87.0323 141.477 86.0938 141.642C85.1554 141.807 84.5282 142.702 84.6931 143.642C84.8579 144.582 85.7524 145.21 86.6909 145.046Z" fill="#51CEF4"/>
<path d="M93.2104 174.956C94.1489 174.792 94.7761 173.896 94.6112 172.957C94.4463 172.017 93.5519 171.388 92.6134 171.553C91.6749 171.718 91.0477 172.613 91.2126 173.553C91.3775 174.493 92.272 175.121 93.2104 174.956Z" fill="#51CEF4"/>
<path d="M86.7064 159.75C87.6449 159.586 88.2721 158.69 88.1072 157.75C87.9423 156.81 87.0478 156.182 86.1093 156.347C85.1709 156.511 84.5438 157.407 84.7087 158.346C84.8736 159.286 85.7679 159.915 86.7064 159.75Z" fill="#51CEF4"/>
<path d="M208.169 183.55C208.361 182.616 207.758 181.704 206.823 181.513C205.888 181.321 204.976 181.922 204.784 182.855C204.593 183.789 205.195 184.701 206.13 184.893C207.065 185.084 207.978 184.483 208.169 183.55Z" fill="#51CEF4"/>
<path d="M179.027 143.596C179.098 142.646 178.384 141.818 177.432 141.747C176.481 141.676 175.652 142.389 175.581 143.339C175.51 144.289 176.224 145.117 177.176 145.188C178.128 145.259 178.956 144.546 179.027 143.596Z" fill="#51CEF4"/>
<path d="M177.611 207.694C177.802 206.761 177.199 205.849 176.265 205.657C175.33 205.465 174.417 206.067 174.225 207C174.034 207.933 174.637 208.845 175.571 209.037C176.506 209.229 177.419 208.628 177.611 207.694Z" fill="#51CEF4"/>
<path d="M193.329 194.54C193.521 193.607 192.918 192.695 191.983 192.503C191.049 192.311 190.136 192.912 189.944 193.846C189.753 194.779 190.355 195.691 191.29 195.883C192.225 196.075 193.138 195.473 193.329 194.54Z" fill="#51CEF4"/>
<path d="M197.456 158.67C198.409 158.67 199.181 157.897 199.181 156.943C199.181 155.989 198.409 155.215 197.456 155.215C196.503 155.215 195.73 155.989 195.73 156.943C195.73 157.897 196.503 158.67 197.456 158.67Z" fill="#51CEF4"/>
<path d="M113.331 194.224C114.283 194.224 115.056 193.451 115.056 192.497C115.056 191.542 114.283 190.769 113.331 190.769C112.378 190.769 111.605 191.542 111.605 192.497C111.605 193.451 112.378 194.224 113.331 194.224Z" fill="#51CEF4"/>
<path d="M160.528 158.778C160.799 158.525 160.981 158.192 161.048 157.827C161.115 157.462 161.063 157.086 160.899 156.753C160.736 156.421 160.47 156.149 160.14 155.979C159.81 155.81 159.435 155.75 159.069 155.81C158.703 155.87 158.367 156.046 158.108 156.313C157.85 156.579 157.685 156.921 157.636 157.288C157.587 157.656 157.658 158.029 157.838 158.354C158.018 158.678 158.297 158.936 158.635 159.089C158.946 159.229 159.291 159.275 159.628 159.219C159.965 159.164 160.278 159.011 160.528 158.778Z" fill="#51CEF4"/>
<path d="M139.299 135.975C140.252 135.975 141.025 135.201 141.025 134.247C141.025 133.293 140.252 132.519 139.299 132.519C138.347 132.519 137.574 133.293 137.574 134.247C137.574 135.201 138.347 135.975 139.299 135.975Z" fill="#51CEF4"/>
<path d="M173.849 189.404C174.04 188.471 173.438 187.559 172.503 187.367C171.568 187.176 170.655 187.777 170.464 188.71C170.272 189.644 170.875 190.556 171.81 190.748C172.744 190.939 173.657 190.338 173.849 189.404Z" fill="#51CEF4"/>
<path d="M66.0911 136.648C72.6439 137.039 78.7836 136.375 84.4175 134.432C88.754 132.921 92.426 129.941 94.7986 126.009C97.1711 122.077 98.0949 117.439 97.4105 112.898C95.9431 103.173 91.5738 94.2814 84.7055 86.126C76.0793 93.1245 70.3477 97.9171 58.0508 97.7519C67.6259 110.68 77.2312 126.019 66.0911 136.648Z" fill="white"/>
<path d="M69.5813 137.129C68.4295 137.129 67.261 137.094 66.0758 137.024C66.0025 137.018 65.9324 136.992 65.8738 136.947C65.8152 136.903 65.7706 136.843 65.7453 136.774C65.7205 136.705 65.7159 136.631 65.7324 136.56C65.7488 136.488 65.7856 136.424 65.838 136.373C76.3196 126.372 68.1492 111.999 57.7577 97.9597C57.7159 97.9034 57.6906 97.8365 57.6849 97.7666C57.6791 97.6967 57.693 97.6265 57.7251 97.5641C57.7559 97.5013 57.8043 97.4488 57.8642 97.4128C57.9242 97.3769 57.9933 97.359 58.0631 97.3613C70.0521 97.5216 75.6535 92.9794 84.1269 86.0935L84.4774 85.8106C84.5539 85.7488 84.6515 85.7194 84.7494 85.7288C84.8472 85.7381 84.9374 85.7855 85.0007 85.8606C92.0519 94.2364 96.3536 103.306 97.7884 112.821C98.4964 117.451 97.5595 122.183 95.1404 126.194C92.7214 130.205 88.9732 133.241 84.5475 134.775C80.0304 136.343 75.0099 137.129 69.5813 137.129ZM66.9572 136.318C73.3173 136.608 79.1465 135.855 84.2971 134.064C88.5574 132.588 92.1655 129.665 94.494 125.804C96.8225 121.943 97.7241 117.388 97.0422 112.931C95.6425 103.666 91.4784 94.8123 84.6577 86.6243L84.5976 86.6744C76.1743 93.5102 70.5504 98.0749 58.8069 98.105C68.9805 111.969 76.7927 126.102 66.9572 136.318Z" fill="#1D1D1B"/>
<path d="M97.6002 117.19C97.6002 117.19 93.9245 124.324 87.8799 123.951C87.8799 123.951 91.1525 131.676 85.6914 133.967C85.6814 133.947 96.7289 130.028 97.6002 117.19Z" fill="#4BD657"/>
<path d="M85.8056 134.302L85.5352 133.601C86.098 133.383 86.6104 133.052 87.041 132.629C87.4715 132.205 87.8112 131.699 88.0391 131.14C89.2385 128.195 87.5384 124.129 87.5259 124.076L87.2905 123.518L87.8964 123.555C93.613 123.916 97.2237 117.075 97.2588 117.005L98.0876 115.4L97.9674 117.203C97.0985 130.151 85.9183 134.262 85.8056 134.302ZM88.4197 124.322C88.8629 125.573 89.7894 128.829 88.7327 131.42C88.6372 131.658 88.5244 131.888 88.3948 132.109C91.4421 130.158 95.9917 126.099 97.0433 118.788C95.6486 120.821 92.6564 124.281 88.4197 124.322Z" fill="black"/>
<path d="M94.1585 108.987C93.9988 108.987 93.8453 108.926 93.7294 108.816C93.6135 108.706 93.5439 108.556 93.535 108.396C93.227 102.815 85.1643 91.4696 85.0817 91.3569C85.0338 91.29 84.9996 91.2143 84.981 91.1342C84.9624 91.0541 84.9598 90.9711 84.9733 90.8899C84.9868 90.8088 85.0161 90.7311 85.0597 90.6613C85.1032 90.5915 85.16 90.5309 85.2269 90.483C85.2938 90.4352 85.3695 90.401 85.4497 90.3824C85.5298 90.3638 85.6128 90.3612 85.694 90.3747C85.7751 90.3882 85.8528 90.4175 85.9226 90.461C85.9924 90.5045 86.0529 90.5614 86.1007 90.6283C86.4413 91.104 94.4565 102.384 94.7845 108.326C94.7892 108.408 94.7777 108.491 94.7505 108.569C94.7233 108.646 94.6812 108.718 94.6263 108.779C94.5714 108.841 94.5049 108.891 94.4307 108.926C94.3564 108.962 94.2758 108.983 94.1936 108.987H94.1585Z" fill="white"/>
<path d="M42.8916 168.521C42.8038 168.521 42.7188 168.491 42.6513 168.435C42.5838 168.379 42.538 168.301 42.522 168.214C42.5059 168.128 42.5206 168.039 42.5634 167.962C42.6062 167.886 42.6744 167.827 42.7563 167.795C60.2415 160.982 68.5046 151.074 72.3582 143.96C76.5223 136.275 76.5698 130.146 76.5698 130.086C76.5698 129.986 76.6094 129.89 76.6798 129.82C76.7503 129.75 76.8458 129.71 76.9454 129.71C77.045 129.71 77.1405 129.75 77.2109 129.82C77.2814 129.89 77.321 129.986 77.321 130.086C77.321 130.336 77.2709 136.468 73.0191 144.318C69.1055 151.542 60.7248 161.595 43.0268 168.496C42.9837 168.513 42.9378 168.522 42.8916 168.521Z" fill="#1D1E1B"/>
<path d="M64.9283 167.52C64.847 167.519 64.7681 167.492 64.7033 167.443C64.6386 167.394 64.5914 167.325 64.5691 167.247C64.5468 167.169 64.5505 167.086 64.5796 167.01C64.6087 166.934 64.6616 166.869 64.7305 166.826C75.2195 160.301 79.4312 151.066 81.1163 144.468C82.9467 137.299 82.2807 131.598 82.2732 131.543C82.2673 131.494 82.2711 131.444 82.2843 131.397C82.2976 131.349 82.3201 131.305 82.3506 131.266C82.3811 131.227 82.4188 131.194 82.4618 131.17C82.5049 131.146 82.5522 131.131 82.6012 131.125C82.6501 131.118 82.6997 131.122 82.7472 131.135C82.7947 131.148 82.8393 131.17 82.8782 131.2C82.917 131.231 82.9495 131.268 82.9738 131.311C82.998 131.354 83.0135 131.401 83.0194 131.45C83.0194 131.508 83.7105 137.324 81.85 144.623C80.1348 151.367 75.8405 160.802 65.1261 167.462C65.0673 167.5 64.9985 167.52 64.9283 167.52Z" fill="#1D1E1B"/>
<path d="M68.5498 132.965C68.5498 132.965 61.4511 134.968 57.8655 127.331C54.2798 119.694 53.3383 111.526 57.3121 106.353C61.2859 101.18 66.3413 100.564 69.7617 101.921C73.1821 103.278 74.0009 106.876 71.4469 110.805C71.4469 110.805 76.8554 114.281 71.9477 120.926C74.1762 121.572 76.4299 128.082 70.0448 129.46C69.881 130.744 69.3634 131.958 68.5498 132.965Z" fill="#FFCDB2"/>
<path d="M66.512 133.561C64.0306 133.561 59.9667 132.68 57.5278 127.491C53.5065 118.933 53.3137 110.945 57.027 106.123C61.2262 100.657 66.5922 100.253 69.9124 101.573C71.5224 102.212 72.6216 103.326 73.0873 104.791C73.6407 106.526 73.2401 108.617 71.9631 110.71C73.1693 111.669 73.9962 113.025 74.2968 114.536C74.6548 116.477 74.0639 118.572 72.544 120.768C73.7534 121.464 74.6849 123.383 74.6198 125.213C74.5422 127.466 73.0072 129.124 70.4006 129.768C70.189 131.024 69.6579 132.204 68.8582 133.196L68.7831 133.293L68.6654 133.326C67.9598 133.491 67.2367 133.57 66.512 133.561ZM66.4169 101.668C63.6225 101.668 60.3923 102.963 57.6129 106.581C54.0849 111.176 54.3077 118.873 58.2088 127.171C61.4064 133.972 67.3908 132.857 68.3348 132.632C69.0624 131.699 69.5274 130.588 69.6819 129.415L69.7146 129.149L69.965 129.092C73.2527 128.383 73.8086 126.337 73.8511 125.185C73.9137 123.337 72.8245 121.572 71.848 121.287L71.3296 121.136L71.6501 120.703C73.2401 118.545 73.8762 116.519 73.5431 114.694C73.2472 113.261 72.4253 111.99 71.2395 111.133L70.924 110.928L71.1267 110.612C72.4288 108.609 72.8646 106.631 72.3538 105.031C71.9581 103.779 71.0115 102.835 69.6193 102.277C68.5998 101.873 67.5133 101.666 66.4169 101.666V101.668Z" fill="black"/>
<path d="M59.6791 114.313C59.5874 114.315 59.4983 114.283 59.4287 114.223C59.353 114.158 59.3061 114.066 59.2981 113.966C59.2901 113.867 59.3218 113.768 59.3861 113.692C59.4362 113.637 64.334 108.043 72.3366 110.565C72.4285 110.597 72.5041 110.664 72.5477 110.751C72.5912 110.838 72.5993 110.939 72.57 111.032C72.5408 111.125 72.4766 111.203 72.391 111.249C72.3054 111.296 72.2052 111.307 72.1113 111.281C64.5994 108.912 60.1424 113.965 59.9571 114.18C59.9231 114.221 59.8806 114.254 59.8326 114.277C59.7846 114.3 59.7322 114.312 59.6791 114.313Z" fill="#1D1D1B"/>
<path d="M61.8504 121.948C61.7619 121.948 61.676 121.917 61.608 121.861C61.54 121.804 61.4941 121.725 61.4785 121.638C61.4629 121.551 61.4787 121.461 61.5229 121.384C61.5671 121.308 61.637 121.249 61.7202 121.219C61.9706 121.129 67.8173 119.021 72.1667 120.626C72.218 120.638 72.2661 120.661 72.308 120.693C72.3499 120.725 72.3844 120.765 72.4096 120.812C72.4348 120.858 72.4499 120.909 72.454 120.962C72.4581 121.014 72.451 121.067 72.4333 121.117C72.4156 121.167 72.3878 121.212 72.3514 121.25C72.315 121.288 72.2709 121.318 72.2222 121.338C72.1734 121.358 72.1209 121.368 72.0682 121.366C72.0155 121.365 71.9638 121.352 71.9163 121.329C67.8298 119.827 62.0457 121.903 61.9881 121.925C61.944 121.941 61.8973 121.949 61.8504 121.948Z" fill="#1D1D1B"/>
<path d="M66.6566 130.429C65.6908 130.456 64.7331 130.246 63.8671 129.818C63.8217 129.795 63.7812 129.764 63.748 129.726C63.7149 129.688 63.6898 129.643 63.6743 129.595C63.6588 129.547 63.6532 129.496 63.6578 129.446C63.6624 129.396 63.6771 129.347 63.7011 129.302C63.725 129.258 63.7577 129.218 63.7972 129.187C63.8367 129.155 63.8821 129.132 63.9308 129.118C63.9795 129.105 64.0306 129.101 64.0807 129.108C64.1309 129.114 64.1791 129.131 64.2227 129.157C66.4963 130.376 70.1495 129.064 70.1846 129.051C70.2319 129.031 70.2829 129.02 70.3345 129.02C70.3861 129.02 70.4373 129.03 70.4846 129.051C70.532 129.071 70.5747 129.101 70.61 129.139C70.6452 129.177 70.6723 129.221 70.6895 129.27C70.7068 129.318 70.7138 129.37 70.7102 129.422C70.7066 129.473 70.6924 129.523 70.6685 129.569C70.6446 129.615 70.6116 129.655 70.5714 129.688C70.5313 129.72 70.4848 129.744 70.435 129.758C69.2185 130.178 67.9435 130.405 66.6566 130.429Z" fill="#1D1D1B"/>
<path d="M56.9354 111.058C56.8753 111.058 56.8154 111.05 56.7577 111.033C56.6787 111.01 56.605 110.971 56.541 110.919C56.477 110.868 56.4238 110.804 56.3845 110.731C56.3452 110.659 56.3206 110.58 56.312 110.498C56.3034 110.416 56.3111 110.333 56.3345 110.254C56.3896 110.071 57.7042 105.765 61.6554 103.639C64.1293 102.307 67.0614 102.136 70.3691 103.138C70.451 103.159 70.5279 103.196 70.595 103.248C70.6621 103.299 70.718 103.364 70.7595 103.437C70.801 103.511 70.8272 103.592 70.8364 103.676C70.8456 103.76 70.8377 103.845 70.8132 103.926C70.7887 104.007 70.748 104.082 70.6936 104.147C70.6393 104.212 70.5723 104.265 70.4969 104.303C70.4215 104.341 70.3392 104.364 70.2548 104.369C70.1705 104.375 70.0857 104.363 70.006 104.335C67.0288 103.431 64.4172 103.564 62.2437 104.733C58.7382 106.616 57.5414 110.562 57.5289 110.602C57.4926 110.732 57.4151 110.847 57.3081 110.929C57.2011 111.011 57.0703 111.056 56.9354 111.058Z" fill="white"/>
<path d="M59.9147 117.691C59.7927 117.691 59.6733 117.656 59.5717 117.588C59.4329 117.497 59.336 117.355 59.3022 117.192C59.2684 117.03 59.3005 116.861 59.3914 116.722C59.4315 116.662 63.4854 110.602 70.8545 112.716C70.9369 112.735 71.0145 112.771 71.0825 112.821C71.1506 112.872 71.2078 112.936 71.2505 113.009C71.2933 113.082 71.3207 113.163 71.3312 113.247C71.3417 113.331 71.3352 113.416 71.3118 113.498C71.2884 113.579 71.2487 113.655 71.1951 113.72C71.1416 113.786 71.0753 113.84 71.0002 113.879C70.9252 113.919 70.843 113.942 70.7585 113.949C70.6741 113.955 70.5892 113.945 70.509 113.917C64.0438 112.07 60.5832 117.195 60.438 117.423C60.3794 117.507 60.301 117.575 60.2097 117.622C60.1185 117.669 60.0172 117.692 59.9147 117.691Z" fill="white"/>
<path d="M123.947 204.718C130.312 203.106 135.966 200.612 140.741 197.054C144.418 194.298 147.016 190.344 148.085 185.875C149.154 181.406 148.627 176.704 146.595 172.582C142.248 163.759 135.39 156.612 126.376 150.918C120.274 160.203 116.265 166.505 104.496 170.073C117.539 179.501 131.341 191.214 123.947 204.718Z" fill="white"/>
<path d="M123.203 205.294L123.619 204.543C130.578 191.835 118.433 180.615 104.276 170.384L103.66 169.941L104.386 169.721C115.867 166.24 119.823 160.205 125.815 151.091L126.263 150.407L126.576 150.605C135.841 156.45 142.682 163.791 146.931 172.422C149.01 176.62 149.551 181.414 148.461 185.97C147.372 190.526 144.72 194.556 140.967 197.359C136.324 200.817 130.628 203.416 124.04 205.086L123.203 205.294ZM105.323 170.209C119.22 180.325 130.948 191.427 124.671 204.142C130.818 202.49 136.147 200.006 140.518 196.751C144.13 194.052 146.682 190.174 147.731 185.789C148.779 181.404 148.258 176.791 146.258 172.75C142.116 164.342 135.465 157.171 126.476 151.434L126.434 151.499C120.487 160.566 116.513 166.621 105.323 170.209Z" fill="black"/>
<path d="M148.06 176.619C148.06 176.619 146.718 184.534 140.844 186.001C140.844 186.001 146.302 192.371 141.793 196.21C141.793 196.21 151.132 189.129 148.06 176.619Z" fill="#4BD657"/>
<path d="M142.02 196.51L141.549 195.924C142.019 195.546 142.407 195.074 142.689 194.54C142.971 194.006 143.14 193.419 143.186 192.817C143.437 189.644 140.587 186.279 140.56 186.244L140.164 185.783L140.753 185.636C146.319 184.246 147.676 176.634 147.691 176.556L147.994 174.773L148.425 176.526C151.522 189.131 142.115 196.438 142.02 196.51ZM141.486 186.206C142.292 187.278 144.155 190.08 143.935 192.877C143.915 193.13 143.878 193.381 143.822 193.628C146.136 190.846 149.238 185.588 148.029 178.312C147.315 180.68 145.512 184.884 141.486 186.206Z" fill="black"/>
<path d="M121.016 202.074C120.96 202.074 120.905 202.061 120.856 202.037C120.811 202.016 120.771 201.986 120.737 201.949C120.704 201.913 120.678 201.87 120.662 201.823C120.645 201.777 120.638 201.727 120.641 201.678C120.644 201.629 120.656 201.58 120.678 201.536C122.591 197.505 122.526 193.541 120.48 189.755C119.542 188.023 118.287 186.484 116.779 185.218C116.7 185.156 116.649 185.066 116.636 184.967C116.623 184.868 116.65 184.768 116.712 184.689C116.773 184.61 116.863 184.559 116.962 184.546C117.061 184.533 117.161 184.561 117.24 184.622C117.33 184.692 126.187 191.685 121.354 201.856C121.324 201.921 121.277 201.976 121.217 202.015C121.157 202.053 121.087 202.074 121.016 202.074Z" fill="#1D1E1B"/>
<path d="M163.669 207.012L63.4186 205.58C63.3189 205.58 63.2234 205.54 63.153 205.47C63.0826 205.399 63.043 205.304 63.043 205.204C63.043 205.105 63.0826 205.009 63.153 204.939C63.2234 204.868 63.3189 204.829 63.4186 204.829L163.667 206.263C163.767 206.263 163.862 206.303 163.933 206.373C164.003 206.444 164.043 206.539 164.043 206.639C164.043 206.739 164.003 206.834 163.933 206.905C163.862 206.975 163.767 207.015 163.667 207.015L163.669 207.012Z" fill="#1D1D1B"/>
<path d="M74.4409 210.838H50.4029C50.3033 210.838 50.2078 210.799 50.1374 210.728C50.0669 210.658 50.0273 210.562 50.0273 210.463C50.0273 210.363 50.0669 210.267 50.1374 210.197C50.2078 210.127 50.3033 210.087 50.4029 210.087H74.4409C74.5405 210.087 74.636 210.127 74.7065 210.197C74.7769 210.267 74.8165 210.363 74.8165 210.463C74.8165 210.562 74.7769 210.658 74.7065 210.728C74.636 210.799 74.5405 210.838 74.4409 210.838Z" fill="#1D1D1B"/>
<path d="M236.196 118.192C236.127 118.192 236.059 118.172 236 118.136C235.942 118.1 235.894 118.048 235.863 117.986C233.86 114.078 230.725 112.157 226.566 112.275C224.587 112.358 222.642 112.823 220.839 113.644C220.751 113.683 220.651 113.687 220.561 113.654C220.47 113.621 220.395 113.555 220.352 113.469C220.309 113.382 220.301 113.283 220.329 113.191C220.357 113.098 220.42 113.021 220.504 112.973C220.611 112.918 231.411 107.665 236.529 117.646C236.574 117.734 236.582 117.836 236.551 117.93C236.521 118.024 236.454 118.102 236.366 118.146C236.314 118.176 236.256 118.192 236.196 118.192Z" fill="#1D1D1B"/>
<path d="M214.661 204.077C214.609 204.077 214.557 204.066 214.509 204.045C214.461 204.024 214.418 203.993 214.383 203.955C214.35 203.918 214.324 203.875 214.307 203.829C214.291 203.783 214.283 203.733 214.286 203.684C214.288 203.635 214.3 203.586 214.321 203.542C214.342 203.497 214.372 203.457 214.408 203.424C218.88 199.36 220.861 194.124 220.3 187.862C220.036 184.996 219.286 182.197 218.081 179.584C218.036 179.495 218.028 179.391 218.059 179.297C218.09 179.202 218.158 179.123 218.247 179.078C218.336 179.033 218.439 179.025 218.534 179.056C218.629 179.087 218.707 179.154 218.752 179.243C220.003 181.927 220.778 184.808 221.044 187.757C221.452 192.241 220.718 198.691 214.914 203.97C214.846 204.036 214.756 204.074 214.661 204.077Z" fill="#1D1D1B"/>
<path d="M174.851 70.6165C174.755 70.6166 174.662 70.5801 174.593 70.5145C174.523 70.4489 174.481 70.359 174.475 70.2634C174.345 68.0274 173.551 66.2771 172.121 65.0602C169.309 62.6739 164.917 63.0971 164.875 63.1021C164.826 63.1073 164.776 63.1028 164.728 63.0888C164.681 63.0748 164.636 63.0516 164.598 63.0204C164.559 62.9892 164.527 62.9508 164.503 62.9072C164.479 62.8637 164.464 62.8159 164.459 62.7666C164.454 62.7172 164.458 62.6674 164.472 62.6198C164.486 62.5722 164.51 62.5278 164.541 62.4892C164.572 62.4506 164.611 62.4185 164.654 62.3948C164.698 62.3711 164.745 62.3561 164.795 62.3509C164.987 62.3309 169.552 61.8852 172.602 64.4818C174.199 65.8339 175.081 67.7644 175.226 70.2133C175.229 70.2627 175.222 70.3121 175.206 70.3588C175.19 70.4056 175.165 70.4487 175.132 70.4857C175.099 70.5227 175.06 70.5528 175.015 70.5744C174.971 70.596 174.922 70.6086 174.873 70.6114L174.851 70.6165Z" fill="#1D1E1B"/>
<path d="M164.939 83.026C169.865 83.026 173.858 79.026 173.858 74.0918C173.858 69.1577 169.865 65.1577 164.939 65.1577C160.013 65.1577 156.02 69.1577 156.02 74.0918C156.02 79.026 160.013 83.026 164.939 83.026Z" fill="#382256"/>
<path d="M164.935 83.4066C162.615 83.4117 160.376 82.5508 158.657 80.9925C156.938 79.4341 155.862 77.2904 155.64 74.9808C155.418 72.6712 156.066 70.3619 157.457 68.5047C158.848 66.6474 160.881 65.376 163.16 64.939C165.439 64.502 167.799 64.9309 169.778 66.1419C171.757 67.3529 173.213 69.2588 173.861 71.4866C174.509 73.7145 174.303 76.104 173.282 78.1878C172.262 80.2715 170.5 81.8994 168.343 82.7531C167.258 83.1842 166.102 83.4059 164.935 83.4066ZM164.935 65.5284C162.814 65.5228 160.767 66.304 159.189 67.7209C157.611 69.1378 156.615 71.0897 156.393 73.1987C156.172 75.3078 156.74 77.4241 157.989 79.1382C159.238 80.8523 161.078 82.0422 163.153 82.4778C165.228 82.9134 167.392 82.5636 169.224 81.4962C171.057 80.4287 172.428 78.7195 173.073 76.6992C173.718 74.679 173.59 72.4913 172.715 70.5596C171.84 68.6279 170.28 67.0895 168.336 66.242C167.265 65.7736 166.109 65.5307 164.94 65.5284H164.935Z" fill="#1D1E1B"/>
<path d="M137.589 99.4571C137.589 99.4571 131.908 93.5202 135.048 88.2068C138.188 82.8934 139.59 83.5068 141.057 80.5997C142.525 77.6927 148.214 75.1587 153.021 77.0441C153.021 77.0441 159.569 73.0078 164.978 74.9483C170.386 76.8889 172.081 79.7058 173.261 84.1929C174.44 88.68 175.835 90.7408 176.766 93.8632C177.698 96.9856 178.742 105.607 166.402 110.76C154.063 115.913 137.589 99.4571 137.589 99.4571Z" fill="#382256"/>
<path d="M161.259 112.12C157.104 112.12 152.335 110.517 147.179 107.362C143.639 105.165 140.337 102.606 137.326 99.7275C137.266 99.6674 131.484 93.5202 134.732 88.0265C136.502 85.0218 137.736 83.8825 138.738 82.9585C139.509 82.2399 140.118 81.674 140.741 80.4395C141.53 78.8795 143.378 77.4748 145.684 76.6836C148.047 75.8283 150.633 75.8141 153.006 76.6435C154.077 76.0175 160.017 72.7774 165.125 74.6078C170.681 76.6109 172.456 79.6007 173.638 84.1103C174.186 86.1506 174.892 88.1449 175.751 90.0747C176.285 91.2795 176.751 92.5134 177.146 93.7706C177.955 96.4673 179.585 105.687 166.567 111.121C164.882 111.803 163.077 112.143 161.259 112.12ZM137.862 99.1967C138.177 99.5097 154.363 115.382 166.269 110.412C178.706 105.221 177.184 96.5149 176.42 93.9709C176.031 92.7404 175.574 91.5324 175.05 90.3527C174.18 88.3893 173.463 86.3618 172.905 84.2881C171.753 79.9162 170.13 77.1894 164.859 75.3014C159.686 73.446 153.288 77.3246 153.226 77.3646L153.066 77.4623L152.89 77.3947C148.155 75.5368 142.739 78.1209 141.4 80.7675C140.714 82.1222 140.028 82.7707 139.236 83.4993C138.28 84.3907 137.088 85.5025 135.373 88.3996C132.441 93.3574 137.714 99.0389 137.862 99.1967Z" fill="#1D1E1B"/>
<path d="M160.299 95.7111H160.327C164.283 96.1217 168.485 92.6437 168.663 92.496C168.729 92.4422 168.771 92.3642 168.78 92.2792C168.789 92.1942 168.764 92.1092 168.71 92.0427C168.656 91.9763 168.578 91.934 168.494 91.9251C168.409 91.9162 168.323 91.9414 168.257 91.9952C168.214 92.0302 164.08 95.4507 160.395 95.0675C160.315 95.0631 160.238 95.0882 160.176 95.1381C160.115 95.188 160.074 95.259 160.062 95.3373C160.05 95.4155 160.068 95.4954 160.112 95.5613C160.156 95.6272 160.223 95.6743 160.299 95.6935V95.7111Z" fill="black"/>
<path d="M152.567 115.562L152.066 118.334C152.066 118.334 158.577 128.583 168.592 119.569C168.592 119.569 165.277 114.11 164.13 103.794C164.13 103.794 168.638 103.466 168.52 99.4444C168.402 95.4231 165.335 94.2988 163.324 95.0926C163.324 95.0926 155.312 99.1214 150.088 82.8557C150.088 82.8557 141.895 84.9215 139.143 92.6988C136.392 100.476 136.64 109.976 142.399 113.529C148.158 117.082 152.567 115.562 152.567 115.562Z" fill="#FFCDB2"/>
<path d="M160.483 123.655C160.084 123.655 159.686 123.628 159.291 123.573C154.586 122.929 151.857 118.715 151.741 118.537L151.664 118.412L152.089 116.073C150.667 116.369 146.871 116.739 142.194 113.855C136.027 110.049 136.104 100.158 138.786 92.5712C141.575 84.6962 149.911 82.5103 149.994 82.4877L150.337 82.4026L150.444 82.7381C152.503 89.1383 155.324 93.2547 158.6 94.6394C161.154 95.7186 163.134 94.7646 163.154 94.7546L163.184 94.7396C163.779 94.5144 164.418 94.4331 165.05 94.5023C165.682 94.5715 166.288 94.7893 166.82 95.1377C168.095 95.9766 168.823 97.4989 168.893 99.4295C169.009 103.03 165.693 103.914 164.542 104.112C165.703 113.975 168.879 119.313 168.911 119.366L169.074 119.631L168.841 119.839C166.031 122.378 163.225 123.655 160.483 123.655ZM152.458 118.252C152.928 118.928 155.462 122.296 159.398 122.829C162.213 123.212 165.145 122.078 168.112 119.491C167.431 118.257 164.769 112.961 163.753 103.841L163.71 103.453L164.101 103.423C164.269 103.423 168.257 103.07 168.142 99.4595C168.075 97.3111 167.161 96.267 166.407 95.7737C165.979 95.4908 165.49 95.3131 164.98 95.2552C164.47 95.1974 163.953 95.2609 163.472 95.4407C163.242 95.5534 161.104 96.5099 158.332 95.3481C154.849 93.8908 151.994 89.8394 149.843 83.3291C148.293 83.8299 141.831 86.2287 139.494 92.8441C136.828 100.381 137.036 109.801 142.589 113.229C148.143 116.657 152.4 115.232 152.442 115.232L153.051 115.024L152.458 118.252Z" fill="#1D1E1B"/>
<path d="M164.379 101.951C164.436 101.962 164.495 101.957 164.549 101.937C164.603 101.917 164.651 101.883 164.687 101.838C165.764 100.511 166.142 99.3343 165.809 98.3602C165.328 96.9455 163.556 96.5148 163.486 96.4973C163.405 96.4824 163.322 96.499 163.253 96.5437C163.185 96.5883 163.136 96.6577 163.118 96.7373C163.099 96.8168 163.112 96.9006 163.153 96.9711C163.195 97.0415 163.262 97.0933 163.34 97.1158C163.36 97.1158 164.843 97.4889 165.211 98.5681C165.461 99.3193 165.126 100.293 164.194 101.438C164.16 101.48 164.138 101.531 164.129 101.585C164.12 101.639 164.125 101.695 164.143 101.746C164.162 101.797 164.193 101.843 164.235 101.879C164.276 101.915 164.326 101.94 164.379 101.951Z" fill="black"/>
<path d="M148.361 95.5032C152.79 96.7251 158.953 95.1101 159.897 96.7727C160.841 98.4353 159.927 100.544 157.465 100.932C155.004 101.32 152.595 101.107 147.68 100.431C142.765 99.7549 138.002 98.7183 138.721 96.1092C139.439 93.5 141.843 93.7104 148.361 95.5032Z" fill="#FFB49F"/>
<path d="M165.936 105.371C166.743 105.371 167.396 104.717 167.396 103.909C167.396 103.101 166.743 102.447 165.936 102.447C165.13 102.447 164.477 103.101 164.477 103.909C164.477 104.717 165.13 105.371 165.936 105.371Z" fill="#07ACEE"/>
<path d="M165.936 102.447C166.277 102.446 166.608 102.564 166.871 102.782C167.134 102.999 167.313 103.301 167.377 103.636C167.44 103.972 167.385 104.319 167.219 104.617C167.054 104.916 166.79 105.147 166.472 105.271C166.302 105.337 166.121 105.371 165.939 105.371C165.599 105.371 165.269 105.252 165.007 105.035C164.746 104.818 164.568 104.516 164.504 104.182C164.441 103.848 164.496 103.502 164.66 103.204C164.824 102.906 165.087 102.675 165.403 102.549C165.572 102.481 165.753 102.447 165.936 102.447ZM165.936 101.696C165.659 101.696 165.385 101.748 165.127 101.851C164.617 102.053 164.2 102.439 163.959 102.932C163.717 103.426 163.669 103.991 163.822 104.519C163.976 105.046 164.321 105.497 164.79 105.784C165.258 106.07 165.817 106.172 166.356 106.068C166.895 105.964 167.377 105.663 167.706 105.224C168.035 104.784 168.189 104.237 168.136 103.691C168.084 103.144 167.829 102.636 167.422 102.267C167.015 101.898 166.485 101.695 165.936 101.696Z" fill="#1D1D1B"/>
<path d="M141.158 97.3085C141.615 97.3085 141.985 96.9374 141.985 96.4797C141.985 96.022 141.615 95.6509 141.158 95.6509C140.702 95.6509 140.332 96.022 140.332 96.4797C140.332 96.9374 140.702 97.3085 141.158 97.3085Z" fill="black"/>
<path d="M151.651 99.2467C152.107 99.2467 152.477 98.8757 152.477 98.4179C152.477 97.9602 152.107 97.5891 151.651 97.5891C151.194 97.5891 150.824 97.9602 150.824 98.4179C150.824 98.8757 151.194 99.2467 151.651 99.2467Z" fill="black"/>
<path d="M150.219 110.545C149.069 110.545 148.02 109.981 147.096 108.874C147.062 108.837 147.035 108.793 147.018 108.745C147.001 108.697 146.994 108.646 146.997 108.595C147 108.544 147.014 108.495 147.037 108.449C147.06 108.404 147.092 108.364 147.131 108.331C147.17 108.298 147.215 108.274 147.264 108.259C147.313 108.245 147.364 108.24 147.415 108.246C147.466 108.252 147.514 108.268 147.559 108.294C147.603 108.319 147.641 108.353 147.672 108.394C148.453 109.33 149.317 109.798 150.241 109.793C152.097 109.778 153.649 107.883 153.664 107.863C153.727 107.786 153.818 107.736 153.917 107.726C154.016 107.716 154.115 107.745 154.192 107.808C154.27 107.871 154.319 107.961 154.329 108.061C154.34 108.16 154.31 108.259 154.247 108.336C154.177 108.424 152.455 110.525 150.241 110.545H150.219Z" fill="#1D1D1B"/>
<path d="M144.735 103.27C144.687 103.271 144.639 103.262 144.595 103.243C144.548 103.225 144.505 103.197 144.468 103.161C144.432 103.126 144.404 103.084 144.384 103.037C144.365 102.99 144.355 102.94 144.355 102.889C144.356 102.839 144.367 102.789 144.387 102.742L147.141 95.9464C147.16 95.9007 147.187 95.8591 147.222 95.8239C147.257 95.7888 147.298 95.7609 147.343 95.7417C147.389 95.7225 147.438 95.7125 147.487 95.7122C147.536 95.7118 147.585 95.7212 147.631 95.7398C147.677 95.7584 147.718 95.7858 147.753 95.8204C147.788 95.8551 147.816 95.8963 147.836 95.9418C147.855 95.9872 147.865 96.036 147.865 96.0854C147.865 96.1347 147.856 96.1836 147.837 96.2293L145.083 103.025C145.057 103.097 145.01 103.158 144.947 103.202C144.885 103.246 144.811 103.27 144.735 103.27Z" fill="#1D1D1B"/>
<path d="M140.978 91.4143C140.926 91.4147 140.875 91.4043 140.828 91.3836C140.78 91.3628 140.738 91.3323 140.703 91.2941C140.669 91.258 140.643 91.2157 140.625 91.1694C140.608 91.1231 140.6 91.0739 140.602 91.0245C140.604 90.9751 140.615 90.9265 140.636 90.8817C140.657 90.8368 140.686 90.7966 140.723 90.7632C140.861 90.6355 144.126 87.6658 146.272 89.8142C146.338 89.8854 146.374 89.9796 146.372 90.0769C146.371 90.1742 146.331 90.2671 146.262 90.3359C146.194 90.4047 146.101 90.4441 146.003 90.4458C145.906 90.4475 145.812 90.4114 145.741 90.3451C144.103 88.7075 141.261 91.2891 141.234 91.3141C141.164 91.3785 141.073 91.4143 140.978 91.4143Z" fill="black"/>
<path d="M157.621 93.6929C157.563 93.6931 157.506 93.6801 157.455 93.6549C157.403 93.6297 157.358 93.593 157.323 93.5476C155.199 90.7933 153.376 92.1179 153.299 92.1755C153.26 92.2092 153.215 92.2348 153.166 92.2505C153.118 92.2662 153.066 92.2717 153.015 92.2667C152.964 92.2618 152.914 92.2464 152.87 92.2216C152.825 92.1968 152.785 92.163 152.754 92.1225C152.723 92.0819 152.7 92.0353 152.687 91.9856C152.675 91.9359 152.672 91.8842 152.681 91.8335C152.689 91.7829 152.707 91.7345 152.735 91.6912C152.762 91.6479 152.798 91.6108 152.84 91.582C153.45 91.1611 154.195 90.9826 154.929 91.0812C155.991 91.2164 156.997 91.895 157.919 93.0844C157.979 93.1635 158.005 93.2632 157.992 93.3618C157.979 93.4604 157.927 93.5497 157.848 93.6102C157.784 93.6627 157.704 93.6918 157.621 93.6929Z" fill="black"/>
<path d="M151.902 115.723C151.902 115.723 155.566 114.811 157.569 113.309L151.902 115.723Z" fill="#4BD657"/>
<path d="M151.904 116.098C151.804 116.11 151.704 116.082 151.625 116.02C151.546 115.958 151.495 115.867 151.483 115.768C151.471 115.668 151.499 115.568 151.561 115.489C151.623 115.41 151.714 115.359 151.814 115.347C151.849 115.347 155.427 114.436 157.345 112.998C157.384 112.969 157.429 112.947 157.477 112.935C157.525 112.923 157.575 112.92 157.623 112.927C157.672 112.934 157.719 112.951 157.762 112.976C157.804 113.001 157.841 113.034 157.871 113.074C157.9 113.113 157.922 113.158 157.934 113.206C157.946 113.254 157.949 113.303 157.942 113.352C157.935 113.401 157.919 113.448 157.894 113.49C157.868 113.533 157.835 113.57 157.796 113.599C155.755 115.129 152.147 116.038 151.994 116.076C151.965 116.087 151.935 116.095 151.904 116.098Z" fill="black"/>
<path d="M140.294 102.417C139.18 102.417 138.091 102.086 137.164 101.467C136.238 100.848 135.516 99.9683 135.089 98.9388C134.663 97.9094 134.551 96.7766 134.768 95.6837C134.986 94.5908 135.522 93.587 136.31 92.799C137.098 92.0111 138.102 91.4746 139.195 91.2572C140.288 91.0398 141.421 91.1514 142.45 91.5778C143.48 92.0042 144.359 92.7263 144.978 93.6528C145.598 94.5793 145.928 95.6685 145.928 96.7828C145.927 98.2766 145.333 99.7089 144.276 100.765C143.22 101.821 141.788 102.415 140.294 102.417ZM140.294 91.9001C139.328 91.9001 138.384 92.1865 137.581 92.723C136.778 93.2595 136.153 94.0221 135.783 94.9143C135.413 95.8065 135.317 96.7883 135.505 97.7354C135.694 98.6826 136.159 99.5526 136.841 100.235C137.524 100.918 138.394 101.383 139.342 101.572C140.289 101.76 141.27 101.663 142.163 101.294C143.055 100.924 143.817 100.298 144.354 99.4955C144.89 98.6926 145.177 97.7485 145.177 96.7828C145.175 95.4885 144.66 94.2477 143.744 93.3324C142.829 92.4172 141.588 91.9021 140.294 91.9001Z" fill="#1D1E1B"/>
<path d="M153.064 104.42C151.949 104.42 150.86 104.089 149.934 103.47C149.007 102.851 148.285 101.971 147.859 100.942C147.432 99.9125 147.321 98.7797 147.538 97.6869C147.755 96.594 148.292 95.5901 149.08 94.8022C149.868 94.0143 150.872 93.4777 151.964 93.2604C153.057 93.043 154.19 93.1545 155.22 93.581C156.249 94.0074 157.129 94.7295 157.748 95.656C158.367 96.5824 158.698 97.6717 158.698 98.786C158.696 100.28 158.102 101.712 157.046 102.768C155.99 103.825 154.557 104.419 153.064 104.42ZM153.064 93.9033C152.098 93.9033 151.154 94.1897 150.351 94.7262C149.548 95.2627 148.922 96.0253 148.553 96.9175C148.183 97.8097 148.086 98.7914 148.275 99.7386C148.463 100.686 148.928 101.556 149.611 102.239C150.294 102.921 151.164 103.387 152.111 103.575C153.058 103.763 154.04 103.667 154.932 103.297C155.824 102.927 156.587 102.302 157.124 101.499C157.66 100.696 157.946 99.7517 157.946 98.786C157.944 97.4916 157.429 96.2509 156.514 95.3356C155.599 94.4203 154.358 93.9053 153.064 93.9033Z" fill="#1D1E1B"/>
<path d="M158.321 99.1615C158.264 99.1611 158.208 99.1481 158.157 99.1234C158.106 99.0987 158.061 99.063 158.025 99.0188C157.964 98.9403 157.936 98.8407 157.948 98.7418C157.96 98.6428 158.01 98.5525 158.088 98.4905L162.846 94.7345C162.924 94.6728 163.024 94.6447 163.123 94.6564C163.222 94.6682 163.312 94.7188 163.374 94.7971C163.436 94.8755 163.464 94.9752 163.452 95.0743C163.44 95.1733 163.39 95.2637 163.311 95.3255L158.554 99.0814C158.487 99.1329 158.405 99.161 158.321 99.1615Z" fill="#1D1E1B"/>
<path d="M147.819 98.7935C147.746 98.7943 147.675 98.7732 147.614 98.7331C147.552 98.693 147.505 98.6355 147.476 98.5682C147.118 97.7519 145.566 98.0048 145.551 98.0073C145.451 98.0252 145.348 98.0028 145.265 97.9451C145.182 97.8873 145.126 97.7989 145.108 97.6993C145.09 97.5997 145.112 97.497 145.17 97.4139C145.227 97.3308 145.316 97.274 145.416 97.2561C145.503 97.2411 147.564 96.8805 148.17 98.2577C148.19 98.3033 148.201 98.3526 148.202 98.4025C148.204 98.4525 148.195 98.5022 148.177 98.5488C148.159 98.5954 148.131 98.6379 148.097 98.6739C148.062 98.7099 148.02 98.7386 147.975 98.7585C147.926 98.7806 147.873 98.7925 147.819 98.7935Z" fill="#1D1E1B"/>
<path d="M149.91 165.694C147.919 163.894 144.186 162.374 142.323 162.161C141.501 162.074 140.67 162.189 139.902 162.494C139.902 162.494 146.024 170.617 145.949 170.82L127.419 166.466C127.419 166.466 121.48 171.754 131.283 177.403C131.283 177.403 129.866 182.396 132.738 186.227C132.738 186.227 129.999 189.732 136.995 195.216C143.991 200.7 157.194 198.819 157.194 198.819L160.081 180.415C160.081 180.415 154.532 169.167 149.91 165.694Z" fill="#FFCDB2"/>
<path d="M151.895 199.643C147.367 199.643 140.967 198.957 136.695 195.609C130.523 190.771 131.59 187.306 132.146 186.249C129.827 182.896 130.446 178.89 130.716 177.648C127.283 175.6 125.418 173.349 125.172 170.953C124.879 168.101 127.003 166.173 127.095 166.092L127.288 165.917L144.861 170.049C143.699 168.404 141.193 165.041 139.505 162.787L139.109 162.264L139.72 162.013C140.565 161.678 141.478 161.552 142.382 161.648C144.44 161.886 148.226 163.491 150.232 165.294C154.892 168.799 160.303 179.716 160.533 180.18L160.603 180.322L157.634 199.247L157.266 199.3C155.485 199.53 153.69 199.645 151.895 199.643ZM127.586 167.019C127.133 167.52 125.969 168.964 126.169 170.862C126.394 172.991 128.202 175.047 131.542 176.972L131.88 177.167L131.773 177.543C131.76 177.591 130.463 182.348 133.147 185.929L133.378 186.237L133.14 186.537C133.047 186.662 130.849 189.757 137.314 194.823C143.421 199.61 154.591 198.616 156.76 198.371L159.564 180.5C158.906 179.196 153.805 169.25 149.611 166.097L149.576 166.07C147.588 164.272 143.919 162.85 142.269 162.662C141.754 162.606 141.233 162.639 140.729 162.76C141.29 163.511 142.332 164.898 143.359 166.285C146.559 170.612 146.541 170.665 146.421 170.993L146.271 171.411L127.586 167.019Z" fill="#1D1E1B"/>
<path d="M140.388 179.702C135.205 179.702 129.456 176.632 129.183 176.484C129.102 176.433 129.044 176.353 129.02 176.261C128.996 176.169 129.008 176.071 129.053 175.987C129.099 175.903 129.175 175.84 129.265 175.81C129.356 175.78 129.454 175.785 129.541 175.825C129.614 175.863 136.915 179.759 142.228 178.793C142.278 178.784 142.328 178.785 142.377 178.795C142.426 178.806 142.473 178.826 142.514 178.855C142.555 178.883 142.59 178.92 142.617 178.962C142.644 179.004 142.663 179.051 142.672 179.101C142.681 179.15 142.68 179.2 142.669 179.249C142.658 179.298 142.638 179.345 142.609 179.386C142.581 179.427 142.544 179.462 142.502 179.489C142.46 179.516 142.413 179.535 142.364 179.544C141.711 179.655 141.05 179.707 140.388 179.702Z" fill="#1D1E1B"/>
<path d="M142.184 188.819C137.319 188.819 132.319 186.122 132.098 186.004C132.011 185.956 131.946 185.876 131.918 185.78C131.889 185.684 131.901 185.581 131.948 185.493C131.996 185.406 132.077 185.341 132.173 185.312C132.268 185.284 132.371 185.295 132.459 185.343C132.512 185.373 137.938 188.295 142.775 188.052C142.875 188.047 142.973 188.082 143.047 188.148C143.121 188.215 143.166 188.308 143.171 188.408C143.176 188.508 143.142 188.605 143.075 188.679C143.008 188.754 142.915 188.798 142.815 188.804C142.605 188.814 142.395 188.819 142.184 188.819Z" fill="#1D1E1B"/>
<path d="M141.544 178.036H141.503C129.452 177.268 127.266 171.113 127.178 170.85C127.128 170.693 127.142 170.523 127.216 170.376C127.29 170.229 127.419 170.118 127.575 170.065C127.731 170.013 127.902 170.024 128.05 170.096C128.197 170.169 128.311 170.297 128.365 170.452C128.39 170.524 130.466 176.078 141.584 176.789C141.666 176.792 141.747 176.811 141.822 176.845C141.897 176.879 141.964 176.927 142.02 176.987C142.077 177.047 142.121 177.117 142.15 177.194C142.179 177.271 142.192 177.353 142.19 177.435C142.187 177.518 142.168 177.598 142.134 177.673C142.1 177.748 142.052 177.816 141.992 177.872C141.932 177.928 141.862 177.972 141.785 178.001C141.708 178.03 141.626 178.044 141.544 178.041V178.036Z" fill="white"/>
<path d="M143.296 187.802C135.847 187.802 132.699 184.487 132.569 184.346C132.513 184.286 132.47 184.215 132.441 184.138C132.413 184.061 132.4 183.979 132.403 183.897C132.406 183.815 132.425 183.734 132.46 183.659C132.494 183.584 132.543 183.517 132.603 183.461C132.663 183.405 132.734 183.362 132.811 183.333C132.888 183.305 132.97 183.292 133.053 183.295C133.135 183.298 133.215 183.317 133.29 183.352C133.365 183.386 133.432 183.435 133.488 183.495C133.528 183.538 136.453 186.55 143.296 186.55C143.462 186.55 143.621 186.616 143.739 186.733C143.856 186.851 143.922 187.01 143.922 187.176C143.922 187.342 143.856 187.501 143.739 187.619C143.621 187.736 143.462 187.802 143.296 187.802Z" fill="white"/>
<path d="M227.428 145.735C227.3 145.735 227.175 145.696 227.07 145.623C226.965 145.55 226.884 145.447 226.84 145.327C226.795 145.206 226.789 145.076 226.821 144.952C226.853 144.828 226.923 144.717 227.02 144.633C231.157 141.09 233.28 137.259 233.305 133.245C233.36 126.86 228.069 122.088 228.014 122.04C227.89 121.93 227.815 121.775 227.805 121.609C227.795 121.443 227.851 121.28 227.961 121.156C228.072 121.032 228.227 120.957 228.392 120.947C228.558 120.937 228.721 120.993 228.845 121.104C229.081 121.312 234.604 126.284 234.557 133.245C234.522 137.64 232.261 141.791 227.836 145.585C227.722 145.682 227.578 145.735 227.428 145.735Z" fill="white"/>
<path d="M204.894 159.256C204.749 159.256 204.61 159.207 204.498 159.115C204.386 159.024 204.309 158.897 204.28 158.756C201.849 146.604 184.146 132.214 183.968 132.078C183.839 131.974 183.756 131.823 183.738 131.658C183.72 131.492 183.769 131.327 183.873 131.197C183.977 131.068 184.129 130.985 184.294 130.967C184.459 130.949 184.625 130.998 184.754 131.102C185.506 131.7 202.988 145.913 205.507 158.51C205.523 158.592 205.523 158.675 205.506 158.756C205.49 158.837 205.457 158.914 205.41 158.983C205.364 159.051 205.304 159.11 205.235 159.155C205.165 159.2 205.088 159.231 205.006 159.246C204.969 159.253 204.932 159.256 204.894 159.256Z" fill="white"/>
<path d="M162.579 92.9017H162.556C155.42 92.6363 152.818 83.5645 152.71 83.1789C152.688 83.0996 152.682 83.0168 152.692 82.9352C152.702 82.8535 152.728 82.7746 152.769 82.703C152.809 82.6314 152.863 82.5685 152.928 82.5178C152.993 82.4671 153.067 82.4297 153.146 82.4076C153.225 82.3856 153.308 82.3794 153.39 82.3894C153.472 82.3994 153.55 82.4253 153.622 82.4658C153.694 82.5062 153.756 82.5604 153.807 82.6252C153.858 82.69 153.895 82.7641 153.917 82.8433C153.94 82.9285 156.384 91.4194 162.601 91.6498C162.767 91.6527 162.925 91.7216 163.04 91.8411C163.156 91.9606 163.219 92.121 163.216 92.287C163.213 92.453 163.144 92.6111 163.025 92.7263C162.905 92.8416 162.745 92.9047 162.579 92.9017Z" fill="white"/>
<path d="M171.343 74.6228C171.194 74.6229 171.05 74.5697 170.937 74.4728C170.823 74.3759 170.748 74.2418 170.725 74.0945C170.379 71.8735 169.495 70.3035 168.101 69.4196C165.797 67.9623 162.787 68.8287 162.757 68.8387C162.599 68.8822 162.431 68.8622 162.288 68.7828C162.144 68.7035 162.038 68.5712 161.991 68.4143C161.944 68.2574 161.961 68.0884 162.037 67.9435C162.113 67.7986 162.243 67.6894 162.399 67.6393C162.545 67.5942 165.97 66.5976 168.762 68.3554C170.48 69.4396 171.556 71.3051 171.962 73.8992C171.975 73.9804 171.972 74.0634 171.952 74.1433C171.933 74.2233 171.898 74.2986 171.85 74.3652C171.801 74.4317 171.741 74.488 171.67 74.5309C171.6 74.5738 171.522 74.6025 171.441 74.6153L171.343 74.6228Z" fill="white"/>
<defs>
<filter id="filter0_d_14246_111104" x="-2.82472" y="75.6952" width="27.169" height="27.167" filterUnits="userSpaceOnUse" color-interpolation-filters="sRGB">
<feFlood flood-opacity="0" result="BackgroundImageFix"/>
<feColorMatrix in="SourceAlpha" type="matrix" values="0 0 0 0 0 0 0 0 0 0 0 0 0 0 0 0 0 0 127 0" result="hardAlpha"/>
<feOffset dy="1.43057"/>
<feGaussianBlur stdDeviation="3.57642"/>
<feComposite in2="hardAlpha" operator="out"/>
<feColorMatrix type="matrix" values="0 0 0 0 0 0 0 0 0 0 0 0 0 0 0 0 0 0 0.05 0"/>
<feBlend mode="normal" in2="BackgroundImageFix" result="effect1_dropShadow_14246_111104"/>
<feBlend mode="normal" in="SourceGraphic" in2="effect1_dropShadow_14246_111104" result="shape"/>
</filter>
<filter id="filter1_d_14246_111104" x="260.296" y="116.027" width="27.169" height="27.1702" filterUnits="userSpaceOnUse" color-interpolation-filters="sRGB">
<feFlood flood-opacity="0" result="BackgroundImageFix"/>
<feColorMatrix in="SourceAlpha" type="matrix" values="0 0 0 0 0 0 0 0 0 0 0 0 0 0 0 0 0 0 127 0" result="hardAlpha"/>
<feOffset dy="1.43057"/>
<feGaussianBlur stdDeviation="3.57642"/>
<feComposite in2="hardAlpha" operator="out"/>
<feColorMatrix type="matrix" values="0 0 0 0 0 0 0 0 0 0 0 0 0 0 0 0 0 0 0.05 0"/>
<feBlend mode="normal" in2="BackgroundImageFix" result="effect1_dropShadow_14246_111104"/>
<feBlend mode="normal" in="SourceGraphic" in2="effect1_dropShadow_14246_111104" result="shape"/>
</filter>
<linearGradient id="paint0_linear_14246_111104" x1="14.3628" y1="78.6818" x2="275.328" y2="140.84" gradientUnits="userSpaceOnUse">
<stop stop-color="#CDD5E2"/>
<stop offset="1" stop-color="#CDD5E2" stop-opacity="0"/>
</linearGradient>
<linearGradient id="paint1_linear_14246_111104" x1="274.879" y1="137.251" x2="248.501" y2="206.5" gradientUnits="userSpaceOnUse">
<stop stop-color="#CDD5E2"/>
<stop offset="1" stop-color="#CDD5E2" stop-opacity="0"/>
</linearGradient>
<linearGradient id="paint2_linear_14246_111104" x1="138" y1="16.335" x2="138" y2="256.335" gradientUnits="userSpaceOnUse">
<stop stop-color="#CDD5E2"/>
<stop offset="1" stop-color="#CDD5E2" stop-opacity="0"/>
</linearGradient>
<linearGradient id="paint3_linear_14246_111104" x1="138" y1="40.335" x2="138" y2="232.335" gradientUnits="userSpaceOnUse">
<stop stop-color="#CDD5E2"/>
<stop offset="1" stop-color="#CDD5E2" stop-opacity="0"/>
</linearGradient>
</defs>
</svg>
