<svg width="406" height="302" viewBox="0 0 406 302" fill="none" xmlns="http://www.w3.org/2000/svg">
<mask id="mask0_14058_97440" style="mask-type:alpha" maskUnits="userSpaceOnUse" x="0" y="0" width="406" height="302">
<rect width="405.823" height="301.875" fill="#D9D9D9"/>
</mask>
<g mask="url(#mask0_14058_97440)">
<g opacity="0.5">
<mask id="path-2-inside-1_14058_97440" fill="white">
<path d="M389.977 202.565C391.993 156.308 377.369 110.86 348.757 74.4588C320.144 38.0574 279.437 13.1119 234.013 4.14415C188.59 -4.82363 141.456 2.77982 101.157 25.5762C60.8571 48.3727 30.0587 84.8533 14.3442 128.405L15.1839 128.708C30.8259 85.357 61.4823 49.0446 101.596 26.3532C141.71 3.66186 188.626 -3.90654 233.84 5.0199C279.055 13.9463 319.574 38.7768 348.055 75.0104C376.535 111.244 391.092 156.483 389.085 202.526L389.977 202.565Z"/>
</mask>
<path d="M389.977 202.565C391.993 156.308 377.369 110.86 348.757 74.4588C320.144 38.0574 279.437 13.1119 234.013 4.14415C188.59 -4.82363 141.456 2.77982 101.157 25.5762C60.8571 48.3727 30.0587 84.8533 14.3442 128.405L15.1839 128.708C30.8259 85.357 61.4823 49.0446 101.596 26.3532C141.71 3.66186 188.626 -3.90654 233.84 5.0199C279.055 13.9463 319.574 38.7768 348.055 75.0104C376.535 111.244 391.092 156.483 389.085 202.526L389.977 202.565Z" stroke="url(#paint0_linear_14058_97440)" stroke-width="2.84788" stroke-dasharray="4.27 4.27" mask="url(#path-2-inside-1_14058_97440)"/>
</g>
<g opacity="0.5">
<mask id="path-3-inside-2_14058_97440" fill="white">
<path d="M14.6043 260.572C30.4892 304.063 61.4301 340.422 101.819 363.061C142.207 385.699 189.37 393.118 234.758 383.973C280.146 374.827 320.756 349.723 349.225 313.21C377.695 276.697 392.141 231.192 389.944 184.943L389.052 184.986C391.239 231.021 376.86 276.316 348.521 312.661C320.183 349.006 279.761 373.994 234.582 383.098C189.403 392.201 142.457 384.816 102.255 362.282C62.0527 339.748 31.2544 303.556 15.4428 260.266L14.6043 260.572Z"/>
</mask>
<path d="M14.6043 260.572C30.4892 304.063 61.4301 340.422 101.819 363.061C142.207 385.699 189.37 393.118 234.758 383.973C280.146 374.827 320.756 349.723 349.225 313.21C377.695 276.697 392.141 231.192 389.944 184.943L389.052 184.986C391.239 231.021 376.86 276.316 348.521 312.661C320.183 349.006 279.761 373.994 234.582 383.098C189.403 392.201 142.457 384.816 102.255 362.282C62.0527 339.748 31.2544 303.556 15.4428 260.266L14.6043 260.572Z" stroke="url(#paint1_linear_14058_97440)" stroke-width="2.84788" stroke-dasharray="4.27 4.27" mask="url(#path-3-inside-2_14058_97440)"/>
</g>
<circle opacity="0.08" cx="196.502" cy="194.133" r="170.873" fill="url(#paint2_linear_14058_97440)"/>
<circle opacity="0.1" cx="196.503" cy="194.132" r="136.698" fill="url(#paint3_linear_14058_97440)"/>
<circle cx="196.503" cy="194.134" r="91.1321" fill="white"/>
<g filter="url(#filter0_d_14058_97440)">
<circle cx="15.3224" cy="125.09" r="7.11969" transform="rotate(-2.50406 15.3224 125.09)" fill="#0170FF"/>
<circle cx="15.3224" cy="125.09" r="8.13822" transform="rotate(-2.50406 15.3224 125.09)" stroke="white" stroke-width="2.03704"/>
</g>
<g filter="url(#filter1_d_14058_97440)">
<circle cx="389.995" cy="182.517" r="7.11969" transform="rotate(-15.7345 389.995 182.517)" fill="#0170FF"/>
<circle cx="389.995" cy="182.517" r="8.13822" transform="rotate(-15.7345 389.995 182.517)" stroke="white" stroke-width="2.03704"/>
</g>
</g>
<path d="M324.264 287.483H79.5078C79.3234 287.483 79.1466 287.41 79.0162 287.28C78.8858 287.149 78.8125 286.973 78.8125 286.788C78.8125 286.604 78.8858 286.427 79.0162 286.296C79.1466 286.166 79.3234 286.093 79.5078 286.093H324.264C324.448 286.093 324.625 286.166 324.755 286.296C324.886 286.427 324.959 286.604 324.959 286.788C324.959 286.973 324.886 287.149 324.755 287.28C324.625 287.41 324.448 287.483 324.264 287.483Z" fill="#1D1D1B"/>
<path d="M109.407 296.175H61.7774C61.5929 296.175 61.4161 296.102 61.2857 295.971C61.1553 295.841 61.082 295.664 61.082 295.48C61.082 295.295 61.1553 295.118 61.2857 294.988C61.4161 294.857 61.5929 294.784 61.7774 294.784H109.407C109.592 294.784 109.769 294.857 109.899 294.988C110.029 295.118 110.103 295.295 110.103 295.48C110.103 295.664 110.029 295.841 109.899 295.971C109.769 296.102 109.592 296.175 109.407 296.175Z" fill="#1D1D1B"/>
<path d="M343.036 300H305.488C305.304 300 305.127 299.926 304.997 299.796C304.866 299.665 304.793 299.489 304.793 299.304C304.793 299.12 304.866 298.943 304.997 298.813C305.127 298.682 305.304 298.609 305.488 298.609H343.036C343.22 298.609 343.397 298.682 343.528 298.813C343.658 298.943 343.731 299.12 343.731 299.304C343.731 299.489 343.658 299.665 343.528 299.796C343.397 299.926 343.22 300 343.036 300Z" fill="#1D1D1B"/>
<path d="M151.538 34.3062C156.158 43.8635 142.599 59.9813 142.599 59.9813C142.599 59.9813 121.545 60.5966 116.924 51.0393C113.795 44.5554 113.754 36.945 119.174 33.9516C126.221 30.0508 131.158 37.39 131.158 37.39C131.158 37.39 131.081 28.6045 136.467 25.7397C142.398 22.5794 148.464 27.9405 151.538 34.3062Z" fill="#4BD657"/>
<path d="M141.675 60.5132C137.454 60.5132 120.655 59.957 116.455 51.2653C113.441 45.0317 112.927 36.8094 118.92 33.4926C124.528 30.3915 128.902 34.042 130.699 36.0063C130.918 33.3362 131.895 27.5824 136.22 25.2774C137.203 24.7353 138.289 24.4054 139.408 24.309C140.526 24.2126 141.653 24.3517 142.714 24.7176C146.261 25.8753 149.734 29.3728 152.008 34.0802C156.722 43.8148 143.559 59.6476 142.996 60.3151L142.846 60.4959H142.614C142.52 60.5028 142.189 60.5132 141.675 60.5132ZM123.315 33.3397C121.942 33.359 120.597 33.7314 119.41 34.421C114.011 37.4074 114.571 45.0178 117.38 50.8273C121.552 59.439 140.03 59.5189 142.335 59.4772C143.785 57.6867 155.22 43.1612 151.055 34.5461C148.903 30.0925 145.659 26.7932 142.363 25.7224C141.435 25.4032 140.449 25.2818 139.471 25.3662C138.493 25.4506 137.543 25.739 136.683 26.2126C131.645 28.8965 131.648 37.3135 131.652 37.3969V39.1353L130.685 37.7029C130.574 37.4561 127.72 33.3397 123.315 33.3397Z" fill="#1D1E1B"/>
<path d="M111.842 43.5611C99.5073 43.5611 90.5967 37.9602 84.9576 32.7174C80.4316 28.5215 76.7222 23.5235 74.0166 17.9764C73.9797 17.8929 73.9594 17.8029 73.9572 17.7115C73.955 17.6202 73.9708 17.5293 74.0037 17.4441C74.0367 17.3588 74.086 17.281 74.1491 17.2148C74.2121 17.1487 74.2876 17.0955 74.3711 17.0586C74.4547 17.0216 74.5449 17.0014 74.6363 16.9992C74.7276 16.997 74.8182 17.0129 74.9035 17.0458C74.9887 17.0788 75.0668 17.1281 75.133 17.1911C75.1991 17.2542 75.2522 17.3296 75.2892 17.4132C77.9417 22.7934 81.5512 27.6459 85.9415 31.7335C95.5648 40.6615 107.045 43.9018 120.065 41.35C120.241 41.3266 120.419 41.3712 120.563 41.4748C120.707 41.5783 120.805 41.7328 120.839 41.9069C120.873 42.0809 120.839 42.2613 120.744 42.4111C120.649 42.5609 120.501 42.6688 120.329 42.7128C117.534 43.2701 114.692 43.5542 111.842 43.5611Z" fill="#1D1D1B"/>
<path d="M106.174 56.7096C103.25 56.7121 100.331 56.4491 97.4547 55.9239C97.28 55.8819 97.1284 55.7739 97.0316 55.6226C96.9348 55.4712 96.9002 55.2884 96.9352 55.1122C96.9703 54.936 97.072 54.7802 97.2194 54.6774C97.3667 54.5747 97.5482 54.533 97.7256 54.5611C97.896 54.5958 114.827 57.8674 122.118 50.2431C122.245 50.1094 122.42 50.0316 122.605 50.0271C122.789 50.0225 122.968 50.0915 123.102 50.2187C123.235 50.346 123.313 50.5211 123.318 50.7056C123.322 50.8901 123.253 51.0689 123.126 51.2026C118.853 55.6701 111.81 56.7096 106.174 56.7096Z" fill="#1D1D1B"/>
<path d="M148 42.0313H147.941C147.804 42.0237 147.67 41.9892 147.546 41.9297C147.423 41.8702 147.312 41.7869 147.22 41.6845C147.129 41.5821 147.059 41.4627 147.014 41.3331C146.968 41.2035 146.949 41.0662 146.957 40.9292C147.166 37.2092 146.366 34.5078 144.583 32.9016C142.114 30.68 138.471 31.2328 138.433 31.2397C138.16 31.2858 137.879 31.2216 137.654 31.0612C137.428 30.9009 137.276 30.6574 137.229 30.3845C137.183 30.1116 137.248 29.8315 137.408 29.6059C137.568 29.3803 137.812 29.2277 138.085 29.1816C138.273 29.1503 142.726 28.448 145.949 31.3371C148.24 33.3848 149.276 36.6529 149.033 41.0474C149.018 41.3118 148.903 41.5607 148.711 41.7435C148.519 41.9262 148.265 42.0291 148 42.0313Z" fill="white"/>
<path d="M84.2241 133.088C88.6812 140.042 79.7045 153.743 79.7045 153.743C79.7045 153.743 63.5034 156.177 59.0463 149.224C56.0251 144.509 55.2918 138.637 59.196 135.818C64.2754 132.153 68.767 137.358 68.767 137.358C68.767 137.358 67.8946 130.585 71.785 127.87C76.0751 124.884 81.2481 128.461 84.2241 133.088Z" fill="#4BD657"/>
<path d="M73.381 154.692C68.2112 154.692 61.369 153.806 58.6121 149.509C55.6778 144.93 54.5133 138.561 58.8939 135.4C62.8398 132.553 66.4729 134.705 68.166 136.096C68.1174 133.895 68.444 129.58 71.4896 127.456C72.2122 126.939 73.0352 126.58 73.9052 126.4C74.7752 126.22 75.673 126.225 76.5412 126.413C79.4164 126.983 82.4516 129.382 84.6628 132.831C89.2485 139.982 80.5186 153.482 80.1432 154.039L80.0145 154.237L79.785 154.268C77.6626 154.557 75.5229 154.699 73.381 154.692ZM62.9996 135.035C61.7352 135.053 60.5101 135.477 59.5057 136.245C55.6814 139.026 56.8113 144.766 59.5057 148.945C63.4482 155.096 77.4278 153.517 79.4095 153.26C80.4525 151.567 87.7534 139.517 83.8004 133.37C81.7388 130.157 78.954 127.929 76.3535 127.414C75.6221 127.257 74.866 127.255 74.1337 127.407C73.4014 127.56 72.7093 127.864 72.1017 128.301C68.5103 130.804 69.2961 137.232 69.3204 137.295L69.5428 139.033L68.4095 137.719C68.253 137.559 66.0139 135.035 62.9996 135.035Z" fill="#1D1E1B"/>
<path d="M63.8641 150.85C63.6172 150.851 63.378 150.763 63.1895 150.604C55.5409 144.102 60.9193 137.392 60.9714 137.323C61.1471 137.109 61.4008 136.973 61.6763 136.946C61.9517 136.919 62.2266 137.003 62.4405 137.178C62.6544 137.354 62.7897 137.608 62.8167 137.883C62.8438 138.159 62.7605 138.433 62.5848 138.647C62.4145 138.859 58.4824 143.862 64.5387 149.011C64.7019 149.149 64.8185 149.334 64.8732 149.541C64.9278 149.747 64.9176 149.966 64.844 150.167C64.7704 150.367 64.6369 150.54 64.4617 150.663C64.2864 150.785 64.0778 150.851 63.8641 150.85Z" fill="white"/>
<path d="M324.268 107.434C317.944 112.743 303.203 105.598 303.203 105.598C303.203 105.598 298.718 89.8421 305.042 84.5333C309.329 80.9315 315.062 79.4539 318.354 82.9653C322.637 87.5371 318.052 92.6583 318.052 92.6583C318.052 92.6583 324.657 90.9199 327.849 94.4348C331.371 98.3043 328.485 103.916 324.268 107.434Z" fill="#4BD657"/>
<path d="M317.717 109.927C311.045 109.927 303.424 106.28 302.983 106.068L302.771 105.964L302.708 105.741C302.52 105.084 298.188 89.5957 304.711 84.1339C308.883 80.6364 315.043 78.6686 318.739 82.6076C322.069 86.1573 320.407 90.0372 319.246 91.8937C321.423 91.5461 325.741 91.334 328.24 94.084C328.846 94.7327 329.31 95.5008 329.601 96.3389C329.893 97.1771 330.006 98.0669 329.934 98.9514C329.735 101.879 327.743 105.209 324.608 107.827C322.779 109.371 320.321 109.927 317.717 109.927ZM303.65 105.227C305.462 106.061 318.346 111.728 323.936 107.035L324.284 107.434L323.936 107.035C326.86 104.601 328.713 101.538 328.891 98.8888C328.953 98.1436 328.859 97.3935 328.615 96.6869C328.37 95.9802 327.979 95.3328 327.469 94.7863C324.531 91.553 318.252 93.1454 318.189 93.1628L316.514 93.6008L317.668 92.311C317.842 92.1163 321.882 87.4819 317.981 83.3238C314.748 79.875 309.185 81.7419 305.381 84.9335C299.788 89.6304 303.139 103.297 303.65 105.227Z" fill="#1D1E1B"/>
<path d="M311.056 86.5328C310.922 86.5329 310.792 86.4945 310.679 86.4224C310.567 86.3503 310.478 86.2474 310.423 86.1261C306.598 77.7821 306.216 65.7737 309.244 50.4591C310.63 43.4967 312.529 36.6464 314.925 29.9642C314.99 29.7918 315.122 29.6525 315.29 29.5768C315.458 29.5012 315.65 29.4954 315.822 29.5609C315.994 29.6263 316.134 29.7576 316.209 29.9259C316.285 30.0941 316.291 30.2855 316.225 30.4579C316.09 30.8055 302.875 66.2257 311.688 85.5489C311.726 85.6322 311.747 85.7222 311.75 85.8137C311.753 85.9051 311.738 85.9962 311.706 86.0818C311.673 86.1674 311.624 86.2457 311.562 86.3124C311.499 86.3791 311.424 86.4327 311.341 86.4703C311.251 86.5111 311.154 86.5324 311.056 86.5328Z" fill="#1D1D1B"/>
<path d="M306.534 91.0524C306.394 91.0524 306.257 91.0099 306.142 90.9307C293.799 82.4685 294.321 60.9967 294.366 60.0893C294.372 59.9049 294.45 59.7303 294.584 59.6038C294.719 59.4773 294.898 59.4093 295.082 59.4149C295.267 59.4204 295.442 59.4989 295.568 59.6333C295.694 59.7676 295.762 59.9467 295.757 60.1311C295.757 60.3466 295.218 81.7524 306.927 89.7835C307.079 89.8877 307.184 90.048 307.218 90.2293C307.252 90.4105 307.212 90.5978 307.108 90.7499C307.044 90.8431 306.959 90.9194 306.859 90.9721C306.759 91.0248 306.647 91.0524 306.534 91.0524Z" fill="#1D1D1B"/>
<path d="M315.575 107.741C315.32 107.741 315.074 107.648 314.884 107.479C314.693 107.31 314.57 107.078 314.539 106.825C314.508 106.573 314.57 106.317 314.714 106.108C314.858 105.898 315.074 105.748 315.321 105.686C321.784 104.069 323.561 101.966 324.044 100.853C324.19 100.544 324.266 100.206 324.266 99.8641C324.266 99.5221 324.19 99.1843 324.044 98.875C323.903 98.6398 323.861 98.3588 323.926 98.0928C323.991 97.8267 324.158 97.5969 324.392 97.4531C324.51 97.3821 324.641 97.3353 324.777 97.3153C324.913 97.2953 325.052 97.3024 325.185 97.3363C325.319 97.3703 325.444 97.4304 325.554 97.5131C325.665 97.5958 325.757 97.6994 325.827 97.8181C326.131 98.3992 326.3 99.0408 326.324 99.6958C326.347 100.351 326.224 101.003 325.963 101.604C324.868 104.243 321.443 106.298 315.801 107.709C315.727 107.728 315.651 107.738 315.575 107.741Z" fill="white"/>
<path d="M193.496 95.1196C193.496 95.1196 191.493 106.676 183.49 103.436C175.486 100.196 158.42 93.1067 152.426 104.879C146.432 116.651 147.475 119.23 138.245 118.09C129.014 116.95 110.762 131.068 128.941 149.755C147.121 168.442 208.445 108.602 208.445 108.602L207.896 101.353L193.496 95.1196Z" fill="#382256"/>
<path d="M193.496 95.1196L207.896 101.378L208.446 108.626C208.446 108.626 158.017 157.835 135.064 153.072C132.735 152.624 130.6 151.475 128.942 149.78C110.763 131.092 129.015 116.988 138.245 118.114C147.476 119.241 146.436 116.661 152.427 104.903C155.924 98.0365 163.18 97.6019 170.213 99.0482C175.24 100.091 180.153 102.111 183.49 103.46C183.948 103.649 184.421 103.795 184.905 103.898C191.734 105.317 193.496 95.1439 193.496 95.1439V95.1196ZM193.708 94.1218C193.471 94.0751 193.226 94.1118 193.013 94.226C192.874 94.3008 192.754 94.406 192.662 94.5336C192.57 94.6613 192.508 94.8081 192.481 94.9631C192.481 95.0188 191.539 100.237 188.59 102.243C188.091 102.586 187.525 102.82 186.929 102.929C186.332 103.038 185.72 103.02 185.131 102.876C184.708 102.787 184.293 102.659 183.894 102.494L183.588 102.368C180.33 101.051 175.407 99.0587 170.439 98.0261C161.052 96.0757 154.669 98.2277 151.512 104.43C150.382 106.645 149.52 108.501 148.759 110.135C145.55 117.033 145.139 117.919 138.384 117.089C133.103 116.445 125.173 120.343 121.783 127.171C119.732 131.312 117.837 139.85 128.208 150.513C130.011 152.357 132.334 153.608 134.866 154.098C144.691 156.138 160.218 149.199 181.005 133.474C190.835 125.967 200.243 117.924 209.186 109.381C209.296 109.274 209.381 109.145 209.435 109.002C209.489 108.859 209.511 108.706 209.499 108.553L208.95 101.305C208.936 101.115 208.87 100.933 208.759 100.778C208.649 100.622 208.498 100.501 208.324 100.425L193.924 94.167C193.859 94.1393 193.791 94.1184 193.722 94.1044L193.708 94.1218Z" fill="black"/>
<path d="M127.039 147.669C131.785 128.895 165.164 113.831 175.319 112.392C185.475 110.952 197.918 108.011 200.299 104.166C202.681 100.321 196.058 97.397 196.058 97.397L198.206 97.1641L207.896 101.367L208.445 108.616C208.445 108.616 147.12 168.456 128.941 149.769C128.253 149.063 127.623 148.365 127.039 147.669Z" fill="#050505"/>
<path d="M124.707 286.44C124.707 286.44 114.806 120.034 207.104 125.819C329.134 133.467 288.805 286.44 288.805 286.44H124.707Z" fill="#07ACEE"/>
<path d="M289.339 287.136H124.052L124.01 286.482C124.01 286.225 122.533 260.571 126.187 230.178C128.335 212.311 131.805 196.322 136.498 182.652C142.381 165.519 150.217 151.995 159.792 142.448C172.503 129.782 188.432 123.952 207.147 125.124C238.089 127.064 261.324 138.533 276.253 159.219C284.089 170.073 289.658 183.535 292.805 199.232C295.315 211.748 296.282 225.738 295.725 240.771C294.752 266.352 289.526 286.42 289.467 286.618L289.339 287.136ZM125.366 285.745H288.261C289.078 282.449 293.458 263.842 294.338 240.688C295.228 217.265 292.6 184.262 275.123 160.029C260.448 139.701 237.547 128.423 207.06 126.514C188.759 125.367 173.191 131.058 160.776 143.435C139.401 164.74 130.922 202.455 127.567 230.352C124.254 257.932 125.165 281.573 125.366 285.745Z" fill="#1D1D1B"/>
<path d="M125.398 261.756C125.398 261.756 167.118 275.663 211.967 232.9C211.967 232.9 255.554 299.304 294.363 240.548V233.943L199.799 220.731L125.051 245.416L125.398 261.756Z" fill="#0598C6"/>
<path d="M192.502 126.861C192.502 126.861 109.757 137.197 111.496 220.731C112.497 268.709 151.745 259.774 166.917 253.175C182.089 246.576 209.968 236.724 215.899 225.977C221.831 215.231 215.468 209.185 215.468 209.185L221.497 202.089L201.836 176.292L196.82 180.075C196.82 180.075 186.042 173.41 177.855 181.292C169.667 189.173 159.866 199.944 154.7 204.172" fill="#07ACEE"/>
<path d="M142.881 258.999C136.922 258.999 130.734 257.813 125.345 254.361C116.149 248.471 111.317 237.158 110.972 220.741C110.573 201.589 114.609 184.706 122.967 170.556C129.656 159.236 139.109 149.637 151.061 142.047C171.396 129.111 192.228 126.403 192.433 126.361L192.566 127.404C192.357 127.428 171.727 130.13 151.59 142.955C133.042 154.776 111.122 177.854 112.015 220.745C112.363 236.793 117.025 247.818 125.922 253.509C140.927 263.122 162.541 254.552 166.72 252.72C169.262 251.618 172.161 250.418 175.235 249.149C190.16 242.985 210.603 234.547 215.456 225.751C221.109 215.509 215.369 209.825 215.108 209.585L214.761 209.237L215.077 208.862L220.831 202.086L201.741 177.033L196.852 180.718L196.55 180.531C196.126 180.266 186.026 174.179 178.221 181.681C174.863 184.911 171.268 188.607 167.763 192.184C162.795 197.271 158.102 202.079 155.035 204.589L154.375 203.782C157.396 201.307 162.069 196.523 167.016 191.454C170.513 187.873 174.125 184.171 177.498 180.93C185.098 173.629 194.913 178.438 196.783 179.463L201.942 175.576L202.255 175.99L222.169 202.121L216.165 209.189C217.431 210.694 221.603 216.754 216.363 226.245C211.329 235.357 191.533 243.531 175.627 250.102C172.558 251.367 169.662 252.567 167.131 253.665C164.339 254.861 154.017 258.999 142.881 258.999Z" fill="#1D1D1B"/>
<path d="M188.416 127.832C188.416 127.832 184.675 132.25 189.89 138.161C195.105 144.071 204.604 135.616 204.604 135.616L188.416 127.832Z" fill="white"/>
<path d="M194.584 140.768C194.427 140.768 194.271 140.768 194.115 140.768C193.235 140.726 192.373 140.504 191.582 140.115C190.792 139.726 190.089 139.179 189.518 138.508C184.067 132.334 187.996 127.547 188.034 127.498L188.295 127.192L205.553 135.487L204.969 136.009C204.725 136.207 199.528 140.768 194.584 140.768ZM188.601 128.482C187.905 129.553 186.184 133.144 190.301 137.806C190.783 138.372 191.375 138.832 192.042 139.161C192.709 139.489 193.435 139.677 194.177 139.715C197.935 139.941 202.118 136.933 203.662 135.724L188.601 128.482Z" fill="#1D1D1B"/>
<path d="M228.784 69.5105C236.368 69.5105 242.516 63.3621 242.516 55.7777C242.516 48.1933 236.368 42.0449 228.784 42.0449C221.199 42.0449 215.051 48.1933 215.051 55.7777C215.051 63.3621 221.199 69.5105 228.784 69.5105Z" fill="#382256"/>
<path d="M239.81 47.5937C241.429 49.7748 242.365 52.3869 242.499 55.0997C242.633 57.8125 241.959 60.5041 240.564 62.8341C239.168 65.1642 237.113 67.0281 234.658 68.1901C232.203 69.3521 229.458 69.76 226.772 69.3623C224.085 68.9646 221.576 67.779 219.563 65.9557C217.55 64.1323 216.123 61.7529 215.462 59.1185C214.802 56.484 214.937 53.7127 215.851 51.1551C216.765 48.5975 218.417 46.3685 220.599 44.7499C222.047 43.6746 223.692 42.8952 225.441 42.4562C227.191 42.0173 229.009 41.9272 230.794 42.1913C232.578 42.4554 234.292 43.0685 235.839 43.9954C237.387 44.9224 238.736 46.1451 239.81 47.5937ZM240.711 46.9228C238.96 44.5634 236.549 42.7762 233.782 41.7872C231.015 40.7983 228.017 40.652 225.167 41.3667C222.318 42.0815 219.744 43.6253 217.771 45.8029C215.799 47.9805 214.516 50.6941 214.086 53.6006C213.656 56.507 214.097 59.4758 215.354 62.1315C216.611 64.7872 218.627 67.0105 221.148 68.5204C223.668 70.0302 226.58 70.7588 229.514 70.6138C232.449 70.4689 235.275 69.4571 237.634 67.7062C240.795 65.356 242.895 61.8474 243.471 57.9509C244.048 54.0543 243.055 50.0881 240.711 46.9228Z" fill="black"/>
<path d="M243.894 111.134C243.894 111.134 256.146 108.005 256.361 98.5273C256.577 89.0499 254.248 88.6988 254.689 83.7063C255.131 78.7139 249.763 70.7801 241.947 69.3269C241.947 69.3269 236.677 58.73 228.041 56.8561C219.405 54.9821 214.889 57.2872 209.705 62.1719C204.521 67.0566 201.013 68.6176 197.255 71.9274C193.497 75.2372 185.125 85.6393 197.06 102.407C208.996 119.175 243.894 111.134 243.894 111.134Z" fill="#382256"/>
<path d="M251.891 75.8001C253.849 78.4424 254.895 81.3907 254.673 83.7061C254.231 88.6986 256.56 89.0427 256.345 98.5271C256.129 108.011 243.878 111.133 243.878 111.133C243.878 111.133 209.4 119.078 197.256 102.713L197.033 102.407C185.098 85.6391 193.466 75.2369 197.228 71.9272C200.99 68.6174 204.491 67.0598 209.678 62.1717C214.865 57.2835 219.367 54.9784 228.014 56.8558C233.058 57.9475 236.952 62.0082 239.323 65.1998C240.3 66.5027 241.172 67.8816 241.931 69.3232C246.12 70.1019 249.607 72.7442 251.874 75.7967L251.891 75.8001ZM252.774 75.1292C250.198 71.6525 246.541 69.2014 242.692 68.3288C241.96 67.0104 241.141 65.7421 240.241 64.5323C237.748 61.1704 233.635 56.9184 228.267 55.7538C219.155 53.7756 214.274 56.3066 208.923 61.3477C206.567 63.545 204.043 65.5559 201.376 67.3624C199.685 68.5091 198.06 69.7499 196.508 71.0789C193.294 73.9114 191.071 77.6996 190.167 81.8878C188.797 88.4378 190.807 95.558 196.143 103.054C196.22 103.165 196.3 103.273 196.38 103.38C199.293 107.306 203.656 110.209 209.351 112.003C213.829 113.411 219.141 114.144 225.138 114.179C231.527 114.197 237.901 113.542 244.152 112.225H244.18C246.467 111.581 248.649 110.609 250.657 109.339C255.034 106.558 257.395 102.828 257.492 98.5619C257.617 93.1348 256.925 90.5864 256.372 88.5386C255.945 86.9707 255.639 85.8338 255.816 83.8104C256.046 81.2342 254.916 77.9905 252.799 75.1396L252.774 75.1292Z" fill="black"/>
<path d="M213.012 120.256L213.708 132.076C213.708 132.076 197.02 142.506 189.719 127.557C189.719 127.557 200.496 111.912 205.711 95.189C205.711 95.189 200.072 91.0831 203.511 85.9411C206.949 80.7991 211.855 81.8212 213.84 84.4948C213.84 84.4948 221.019 96.2667 241.079 79.3076C241.079 79.3076 250.101 88.6737 247.375 101.061C244.65 113.448 236.598 125.641 226.196 125.589C215.794 125.537 213.012 120.256 213.012 120.256Z" fill="#FFCDB2"/>
<path d="M241.065 79.3078C241.065 79.3078 250.087 88.6739 247.361 101.061C244.636 113.449 236.619 125.589 226.248 125.589H226.182C215.779 125.533 213.012 120.256 213.012 120.256L213.707 132.076C213.707 132.076 208.044 135.616 201.887 135.616C197.464 135.616 192.781 133.797 189.719 127.557C189.719 127.557 200.496 111.912 205.711 95.1891C205.711 95.1891 200.072 91.0832 203.51 85.9412C205.276 83.299 207.429 82.2838 209.375 82.2838C210.24 82.2838 211.092 82.4833 211.866 82.8668C212.64 83.2504 213.316 83.8075 213.839 84.4949C213.839 84.4949 216.273 88.4723 222.236 88.4723C226.54 88.4723 232.666 86.4106 241.079 79.3078H241.065ZM241.152 77.8824L240.405 78.5116C233.406 84.4219 227.294 87.4293 222.236 87.4293C216.913 87.4293 214.751 83.9874 214.73 83.9526L214.705 83.9109L214.677 83.8727C214.059 83.0518 213.258 82.3865 212.338 81.9296C211.417 81.4727 210.403 81.2369 209.375 81.2408C206.81 81.2408 204.421 82.7044 202.645 85.3606C201 87.8186 200.924 90.4678 202.422 93.0092C202.988 93.95 203.691 94.8008 204.508 95.5333C199.342 111.658 188.981 126.802 188.863 126.955L188.516 127.456L188.78 128.005C191.561 133.658 196.081 136.648 201.873 136.648C208.27 136.648 214.02 133.102 214.26 132.949L214.785 132.622L214.747 132.003L214.225 123.11C216.242 124.73 219.917 126.587 226.175 126.622H226.248C231.397 126.622 236.33 123.84 240.502 118.597C244.139 114.015 246.941 107.865 248.39 101.277C249.558 95.9783 248.794 90.374 246.183 85.0686C245.045 82.7085 243.579 80.5219 241.826 78.5742L241.131 77.8789L241.152 77.8824Z" fill="#1D1D1B"/>
<path d="M215.944 124.334C216.264 124.536 216.591 124.72 216.921 124.887C216.988 124.923 217.061 124.945 217.136 124.953C217.211 124.96 217.288 124.952 217.36 124.929C217.432 124.906 217.499 124.869 217.556 124.82C217.614 124.77 217.661 124.71 217.694 124.642C217.728 124.575 217.748 124.501 217.752 124.425C217.757 124.35 217.746 124.274 217.72 124.203C217.695 124.131 217.655 124.066 217.604 124.01C217.553 123.955 217.491 123.91 217.422 123.879C214.057 122.206 211.254 118.205 211.227 118.163C211.187 118.097 211.134 118.039 211.071 117.994C211.008 117.949 210.937 117.917 210.861 117.901C210.786 117.885 210.707 117.884 210.632 117.9C210.556 117.915 210.484 117.946 210.42 117.99C210.357 118.034 210.303 118.091 210.263 118.157C210.222 118.223 210.196 118.296 210.185 118.373C210.174 118.45 210.18 118.528 210.2 118.602C210.221 118.677 210.256 118.746 210.305 118.806C210.413 118.966 212.802 122.363 215.944 124.334Z" fill="black"/>
<path d="M206.593 92.4425C206.667 92.5411 206.773 92.6124 206.892 92.6454C207.011 92.6783 207.138 92.671 207.252 92.6248C207.367 92.5785 207.463 92.4958 207.526 92.3893C207.589 92.2828 207.616 92.1586 207.601 92.0358C207.32 89.8107 207.65 88.2914 208.585 87.5161C209.92 86.4245 212.11 87.1511 212.135 87.1685C212.204 87.1926 212.278 87.2027 212.351 87.1983C212.425 87.1938 212.497 87.1749 212.563 87.1426C212.629 87.1103 212.689 87.0652 212.737 87.01C212.786 86.9548 212.823 86.8905 212.847 86.8208C212.894 86.6801 212.884 86.5268 212.819 86.3935C212.754 86.2603 212.639 86.1578 212.5 86.1081C212.385 86.0698 209.687 85.1798 207.879 86.6574C206.624 87.7004 206.141 89.5395 206.489 92.1783C206.501 92.2735 206.537 92.3642 206.593 92.4425Z" fill="black"/>
<path d="M233.979 96.4338C227.196 94.4174 220.459 87.2937 217.872 88.6948C215.285 90.0959 214.767 93.5865 217.667 96.1001C220.566 98.6137 223.886 100.293 230.878 103.401C237.869 106.509 244.913 109.047 246.099 105.059C247.284 101.072 243.954 99.396 233.979 96.4338Z" fill="#FFB49F"/>
<path d="M234.798 100.022C234.88 100.131 234.999 100.206 235.133 100.234C235.266 100.262 235.405 100.241 235.525 100.175C236.985 99.3509 238.407 99.1319 239.752 99.5386C242.454 100.345 244.035 103.363 244.053 103.401C244.126 103.524 244.243 103.615 244.381 103.655C244.518 103.695 244.666 103.681 244.793 103.615C244.921 103.55 245.019 103.439 245.067 103.304C245.116 103.17 245.111 103.022 245.054 102.89C244.981 102.748 243.243 99.4135 240.079 98.4644C238.431 97.9672 236.714 98.214 234.972 99.1945C234.843 99.2681 234.748 99.3899 234.708 99.5332C234.668 99.6765 234.687 99.8297 234.76 99.9594L234.798 100.022Z" fill="black"/>
<path d="M218.624 92.9539C218.692 93.046 218.787 93.115 218.896 93.1517C219.005 93.1884 219.122 93.1909 219.232 93.1591C225.49 91.3651 227.68 96.6357 227.771 96.8686C227.834 96.9944 227.942 97.092 228.074 97.142C228.205 97.1921 228.351 97.1911 228.482 97.1392C228.613 97.0873 228.719 96.9883 228.78 96.8616C228.842 96.735 228.854 96.5899 228.814 96.4549C228.786 96.3889 226.158 90.0022 218.919 92.0778C218.776 92.1191 218.655 92.2154 218.582 92.3458C218.51 92.4761 218.492 92.6298 218.533 92.7731C218.551 92.8388 218.582 92.9002 218.624 92.9539Z" fill="black"/>
<path d="M239.813 93.427C240.489 94.3455 241.32 95.1396 242.268 95.7737C242.331 95.8185 242.402 95.8498 242.477 95.8659C242.552 95.882 242.63 95.8824 242.706 95.8672C242.781 95.852 242.853 95.8214 242.916 95.7774C242.98 95.7334 243.033 95.6767 243.074 95.6112C243.114 95.5456 243.141 95.4725 243.152 95.3962C243.163 95.3199 243.159 95.2423 243.138 95.1679C243.118 95.0935 243.083 95.024 243.035 94.9637C242.987 94.9035 242.927 94.8538 242.859 94.8177C241.66 93.9971 240.679 92.8969 240.001 91.6122C239.933 91.4799 239.816 91.3798 239.674 91.3342C239.533 91.2886 239.379 91.301 239.247 91.3688C239.114 91.4365 239.014 91.5541 238.968 91.6956C238.923 91.8371 238.935 91.9909 239.003 92.1232C239.237 92.5792 239.508 93.0152 239.813 93.427Z" fill="black"/>
<path d="M216.278 108.283C217.333 109.703 218.869 110.691 220.599 111.064C220.743 111.078 220.887 111.036 221.001 110.948C221.115 110.859 221.19 110.73 221.211 110.587C221.233 110.444 221.199 110.298 221.116 110.18C221.033 110.062 220.908 109.98 220.766 109.951C220.564 109.92 215.986 109.138 215.791 103.137C215.776 102.995 215.708 102.865 215.601 102.771C215.493 102.678 215.354 102.628 215.212 102.633C215.069 102.638 214.934 102.697 214.833 102.797C214.732 102.898 214.673 103.033 214.668 103.175C214.751 105.47 215.412 107.114 216.278 108.283Z" fill="black"/>
<path d="M212.976 83.4803C214.221 85.1595 215.802 86.7449 217.732 87.6836C217.866 87.7486 218.02 87.7578 218.16 87.7092C218.301 87.6606 218.416 87.5582 218.481 87.4245C218.546 87.2908 218.555 87.1368 218.507 86.9963C218.458 86.8558 218.356 86.7403 218.222 86.6753C213.122 84.1895 210.511 76.3914 210.487 76.3115C210.469 76.2356 210.435 76.1643 210.389 76.1021C210.342 76.0398 210.282 75.9879 210.214 75.9497C210.146 75.9115 210.072 75.8879 209.994 75.8802C209.916 75.8725 209.838 75.881 209.764 75.9051C209.69 75.9293 209.622 75.9685 209.563 76.0204C209.505 76.0723 209.459 76.1356 209.426 76.2065C209.394 76.2773 209.376 76.3542 209.375 76.4321C209.374 76.51 209.389 76.5873 209.419 76.6591C210.27 79.0922 211.468 81.3896 212.976 83.4803Z" fill="black"/>
<path d="M215.301 81.8426C215.334 81.8889 215.374 81.93 215.419 81.9643C225.901 89.613 235.473 79.5132 235.567 79.4089C235.667 79.2997 235.721 79.1548 235.715 79.0061C235.709 78.8575 235.645 78.7172 235.535 78.6163C235.481 78.5663 235.418 78.5274 235.349 78.5019C235.279 78.4764 235.206 78.4648 235.133 78.4677C234.984 78.4736 234.843 78.5383 234.743 78.6476C234.395 79.037 225.752 88.1249 216.083 81.0569C215.975 80.9758 215.842 80.9364 215.707 80.946C215.573 80.9557 215.446 81.0137 215.35 81.1094C215.255 81.2051 215.198 81.332 215.189 81.4668C215.18 81.6015 215.22 81.735 215.301 81.8426Z" fill="white"/>
<path d="M220.516 38.593C220.54 38.6283 220.569 38.6599 220.603 38.6868C220.716 38.7833 220.864 38.831 221.012 38.8193C221.161 38.8075 221.298 38.7374 221.395 38.6242C223.37 36.3053 225.644 35.0294 228.154 34.8382C232.646 34.4905 236.46 37.7342 236.498 37.769C236.611 37.8659 236.758 37.9141 236.907 37.9031C237.055 37.892 237.193 37.8226 237.291 37.7099C237.339 37.6543 237.376 37.5896 237.4 37.5196C237.423 37.4496 237.433 37.3756 237.428 37.302C237.423 37.2283 237.403 37.1563 237.37 37.0903C237.337 37.0242 237.291 36.9654 237.235 36.9172C237.065 36.7712 233.042 33.3397 228.077 33.7152C225.254 33.9308 222.72 35.3353 220.54 37.8872C220.456 37.9841 220.407 38.1072 220.403 38.2357C220.398 38.3642 220.438 38.4904 220.516 38.593Z" fill="black"/>
<path d="M229.871 108.38C229.937 108.469 230.027 108.536 230.131 108.574C230.235 108.612 230.348 108.618 230.456 108.592C230.563 108.566 230.661 108.509 230.736 108.428C230.811 108.347 230.861 108.245 230.879 108.136L232.697 96.8441C232.709 96.7027 232.667 96.5621 232.579 96.4505C232.492 96.3388 232.365 96.2643 232.225 96.2419C232.085 96.2195 231.942 96.2508 231.824 96.3296C231.705 96.4084 231.622 96.5288 231.589 96.6668L229.77 107.956C229.757 108.029 229.759 108.105 229.777 108.178C229.794 108.251 229.826 108.32 229.871 108.38Z" fill="black"/>
<path d="M203.238 96.1072C204.48 96.1072 205.487 95.1001 205.487 93.8578C205.487 92.6155 204.48 91.6084 203.238 91.6084C201.995 91.6084 200.988 92.6155 200.988 93.8578C200.988 95.1001 201.995 96.1072 203.238 96.1072Z" fill="#07ACEE"/>
<path d="M205.043 92.519C205.309 92.8755 205.463 93.3031 205.486 93.7475C205.509 94.1918 205.399 94.633 205.171 95.015C204.943 95.397 204.606 95.7025 204.204 95.893C203.802 96.0834 203.353 96.1501 202.912 96.0845C202.472 96.019 202.061 95.8243 201.732 95.5249C201.403 95.2256 201.17 94.8352 201.063 94.4033C200.956 93.9714 200.98 93.5175 201.131 93.0991C201.283 92.6807 201.555 92.3165 201.914 92.0531C202.391 91.7014 202.988 91.553 203.574 91.6403C204.16 91.7276 204.688 92.0435 205.043 92.519ZM205.946 91.848C205.549 91.3126 205.001 90.9072 204.373 90.683C203.744 90.4588 203.064 90.426 202.417 90.5886C201.77 90.7512 201.186 91.1021 200.738 91.5967C200.291 92.0913 200.001 92.7076 199.903 93.3675C199.806 94.0273 199.906 94.7013 200.192 95.304C200.478 95.9067 200.936 96.4111 201.508 96.7535C202.081 97.0958 202.742 97.2607 203.408 97.2273C204.075 97.194 204.716 96.9638 205.251 96.5659C205.967 96.0313 206.442 95.2347 206.573 94.3505C206.703 93.4664 206.478 92.5665 205.946 91.848Z" fill="black"/>
<path d="M221.38 48.8353L221.404 48.8665C221.502 48.9792 221.64 49.0487 221.789 49.0598C221.937 49.0709 222.084 49.0227 222.197 48.9257C224.631 46.8119 227.106 45.901 229.498 46.2139C233.441 46.725 235.965 50.3546 235.989 50.3859C236.028 50.4529 236.08 50.5112 236.142 50.5571C236.205 50.603 236.276 50.6356 236.352 50.6527C236.427 50.6699 236.505 50.6714 236.581 50.657C236.657 50.6426 236.73 50.6126 236.794 50.569C236.858 50.5253 236.912 50.469 236.953 50.4034C236.994 50.3379 237.022 50.2646 237.033 50.188C237.045 50.1115 237.041 50.0333 237.021 49.9584C237.001 49.8836 236.965 49.8137 236.917 49.7531C236.802 49.5862 234.08 45.6715 229.644 45.0944C226.904 44.7468 224.147 45.7411 221.446 48.0705C221.341 48.1664 221.276 48.2982 221.264 48.4399C221.252 48.5816 221.293 48.7228 221.38 48.8353Z" fill="white"/>
<path d="M244.244 110.389C244.244 110.389 229.11 111.363 228.102 125.457C228.102 125.471 236.018 125.728 244.244 110.389Z" fill="#FFB49F"/>
<path d="M264.956 128.784C273.759 145.709 250.253 175.372 250.253 175.372C250.253 175.372 212.472 177.593 203.666 160.669C197.696 149.196 197.234 135.526 206.795 129.862C219.248 122.488 228.496 135.404 228.496 135.404C228.496 135.404 227.898 119.634 237.417 114.196C247.92 108.206 259.094 117.517 264.956 128.784Z" fill="#4BD657"/>
<path d="M245.999 175.98C240.709 175.99 235.425 175.622 230.188 174.878C216.017 172.792 206.939 168.078 203.209 160.902C197.552 150.03 196.186 135.522 206.543 129.403C216.973 123.239 225.271 130.902 227.99 133.947C228.094 129.838 229.12 118.337 237.175 113.741C238.864 112.744 240.743 112.112 242.691 111.885C244.639 111.659 246.613 111.843 248.485 112.427C254.806 114.287 261.137 120.312 265.42 128.545C269.15 135.72 267.791 145.851 261.373 158.656C258.324 164.646 254.739 170.348 250.661 175.691L250.515 175.872H250.282C250.244 175.883 248.621 175.98 245.999 175.98ZM214.577 128.089C212.074 128.089 209.567 128.826 207.075 130.304C197.298 136.089 198.699 149.971 204.133 160.422C212.324 176.164 246.795 175.003 249.987 174.857C251.941 172.326 272.682 144.77 264.495 129.024C260.323 121.028 254.246 115.208 248.189 113.428C246.451 112.887 244.619 112.716 242.81 112.926C241.002 113.136 239.258 113.723 237.69 114.648C228.564 119.863 229.03 135.223 229.033 135.376L229.099 137.115L228.088 135.724C226.419 133.564 224.368 131.73 222.035 130.314C219.798 128.907 217.219 128.138 214.577 128.089Z" fill="#1D1E1B"/>
<path d="M260.989 141.464C260.712 141.464 260.447 141.354 260.252 141.159C260.056 140.963 259.946 140.698 259.946 140.421C259.946 133.43 257.165 127.683 251.71 123.337C249.206 121.344 246.366 119.813 243.324 118.817C243.058 118.743 242.832 118.565 242.696 118.324C242.561 118.083 242.527 117.797 242.601 117.531C242.676 117.264 242.853 117.039 243.095 116.903C243.336 116.767 243.621 116.733 243.887 116.808C247.173 117.86 250.242 119.498 252.944 121.644C257.092 124.919 262.032 130.833 262.032 140.418C262.033 140.555 262.006 140.691 261.954 140.818C261.901 140.945 261.825 141.06 261.728 141.157C261.631 141.255 261.516 141.332 261.389 141.384C261.262 141.437 261.126 141.464 260.989 141.464Z" fill="white"/>
<path d="M203.22 179.631C203.22 179.631 201.947 138.133 224.939 148.049L231.652 142.323C231.652 142.323 242.655 140.609 236.808 151.817C236.808 151.817 246.424 149.318 239.937 163.593C239.937 163.593 248.204 162.345 238.111 180.656C232.316 191.173 216.713 199.128 216.713 199.128L203.22 179.631Z" fill="#FFCDB2"/>
<path d="M216.708 199.649C216.624 199.649 216.541 199.628 216.466 199.589C216.392 199.549 216.328 199.492 216.28 199.423L202.795 179.926C202.737 179.843 202.706 179.745 202.704 179.644C202.673 178.632 202.061 154.783 212.258 147.85C215.675 145.524 219.906 145.389 224.847 147.443L231.317 141.926C231.391 141.864 231.479 141.822 231.574 141.804C231.769 141.776 236.389 141.088 238.281 143.723C239.459 145.364 239.271 147.861 237.724 151.15C238.844 151.059 240.61 151.17 241.73 152.505C243.301 154.376 242.964 157.932 240.728 163.085C241.165 163.132 241.586 163.271 241.965 163.494C242.343 163.717 242.67 164.019 242.922 164.378C244.681 166.906 243.217 172.465 238.566 180.906C232.756 191.444 217.588 199.263 216.945 199.59C216.872 199.628 216.79 199.648 216.708 199.649ZM203.74 179.46L216.875 198.449C219.347 197.118 232.52 189.723 237.651 180.402C243.478 169.83 242.918 166.2 242.067 164.976C241.829 164.665 241.515 164.421 241.155 164.269C240.794 164.116 240.4 164.061 240.012 164.107C239.919 164.121 239.824 164.11 239.737 164.075C239.65 164.039 239.575 163.981 239.518 163.905C239.461 163.831 239.425 163.743 239.415 163.649C239.404 163.556 239.42 163.462 239.459 163.377C242.373 156.966 241.869 154.292 240.933 153.176C239.644 151.643 236.97 152.318 236.942 152.325C236.844 152.349 236.742 152.345 236.647 152.312C236.551 152.28 236.467 152.221 236.405 152.142C236.342 152.063 236.303 151.968 236.293 151.868C236.283 151.768 236.302 151.667 236.348 151.577C238.103 148.215 238.468 145.778 237.436 144.335C236.08 142.441 232.617 142.733 231.873 142.819L225.267 148.445C225.193 148.508 225.103 148.549 225.006 148.563C224.91 148.578 224.812 148.566 224.722 148.528C220.008 146.494 216.006 146.553 212.835 148.712C203.525 155.047 203.705 177.391 203.74 179.46Z" fill="#1D1D1B"/>
<path d="M211.918 160.238C211.918 160.238 214.897 154.977 224.941 148.038L211.918 160.238Z" fill="#FFCDB2"/>
<path d="M211.917 160.933C211.795 160.934 211.675 160.903 211.569 160.843C211.41 160.751 211.293 160.601 211.244 160.424C211.195 160.246 211.218 160.057 211.309 159.897C211.434 159.674 214.479 154.414 224.541 147.464C224.693 147.36 224.88 147.32 225.062 147.353C225.243 147.387 225.404 147.491 225.509 147.643C225.614 147.796 225.653 147.983 225.62 148.165C225.586 148.346 225.482 148.507 225.33 148.612C215.571 155.349 212.546 160.53 212.518 160.582C212.458 160.688 212.37 160.777 212.265 160.838C212.159 160.9 212.039 160.933 211.917 160.933Z" fill="#1D1D1B"/>
<path d="M219.367 171.763C219.367 171.763 226.352 164.18 236.809 151.817L219.367 171.763Z" fill="#FFCDB2"/>
<path d="M219.368 172.284C219.239 172.284 219.115 172.234 219.02 172.145C218.97 172.099 218.929 172.043 218.9 171.981C218.871 171.919 218.855 171.852 218.852 171.783C218.849 171.715 218.86 171.646 218.883 171.582C218.907 171.518 218.943 171.459 218.989 171.408C219.059 171.335 226.085 163.69 236.418 151.484C236.461 151.431 236.515 151.387 236.575 151.355C236.636 151.323 236.703 151.304 236.771 151.298C236.839 151.292 236.908 151.3 236.974 151.321C237.039 151.342 237.099 151.376 237.151 151.421C237.257 151.51 237.322 151.637 237.334 151.775C237.346 151.912 237.302 152.049 237.214 152.155C226.867 164.382 219.831 172.041 219.758 172.117C219.708 172.171 219.647 172.213 219.58 172.242C219.513 172.271 219.441 172.285 219.368 172.284Z" fill="#1D1D1B"/>
<path d="M223.652 181.942C223.652 181.942 231.19 178.782 239.839 163.888L223.652 181.942Z" fill="#FFCDB2"/>
<path d="M223.651 182.464C223.531 182.464 223.414 182.423 223.321 182.347C223.228 182.271 223.164 182.165 223.14 182.047C223.115 181.929 223.133 181.807 223.188 181.7C223.244 181.594 223.335 181.51 223.446 181.463C223.522 181.431 230.952 178.153 239.39 163.627C239.421 163.563 239.466 163.506 239.52 163.46C239.575 163.414 239.638 163.379 239.707 163.358C239.775 163.338 239.847 163.331 239.918 163.339C239.989 163.348 240.058 163.37 240.119 163.406C240.181 163.442 240.235 163.49 240.277 163.548C240.32 163.605 240.35 163.671 240.366 163.74C240.382 163.81 240.384 163.882 240.371 163.953C240.358 164.023 240.33 164.09 240.29 164.149C231.651 179.026 224.166 182.294 223.853 182.426C223.789 182.452 223.72 182.465 223.651 182.464Z" fill="#1D1D1B"/>
<path d="M225.034 175.459C225.034 175.459 226.306 133.961 203.315 143.877L196.602 138.151C196.602 138.151 185.598 136.437 191.446 147.645C191.446 147.645 181.829 145.146 188.317 159.421C188.317 159.421 180.049 158.173 190.142 176.484C195.938 187.001 211.541 194.956 211.541 194.956L225.034 175.459Z" fill="#FFCDB2"/>
<path d="M211.548 195.477C211.466 195.476 211.385 195.456 211.312 195.418C210.669 195.091 195.5 187.272 189.69 176.734C185.039 168.293 183.575 162.734 185.334 160.206C185.586 159.847 185.913 159.545 186.291 159.322C186.67 159.099 187.091 158.96 187.528 158.913C185.293 153.761 184.955 150.204 186.527 148.334C187.646 147.002 189.412 146.891 190.532 146.978C188.985 143.689 188.794 141.192 189.976 139.552C191.867 136.916 196.487 137.605 196.682 137.632C196.777 137.65 196.865 137.692 196.939 137.754L203.409 143.272C208.346 141.217 212.581 141.356 215.998 143.678C226.195 150.611 225.584 174.461 225.552 175.472C225.551 175.573 225.519 175.671 225.462 175.754L211.976 195.251C211.928 195.321 211.864 195.378 211.79 195.417C211.715 195.456 211.632 195.477 211.548 195.477ZM188.001 159.921C187.648 159.91 187.297 159.986 186.98 160.141C186.663 160.297 186.389 160.528 186.183 160.815C185.338 162.042 184.792 165.682 190.605 176.23C195.743 185.558 208.909 192.946 211.381 194.277L224.516 175.288C224.551 173.219 224.732 150.875 215.411 144.541C212.24 142.385 208.242 142.322 203.524 144.356C203.434 144.395 203.336 144.407 203.239 144.393C203.143 144.378 203.052 144.336 202.978 144.273L196.373 138.648C195.629 138.561 192.166 138.269 190.81 140.163C189.767 141.606 190.142 144.043 191.898 147.405C191.944 147.495 191.963 147.596 191.953 147.696C191.943 147.796 191.904 147.891 191.841 147.97C191.778 148.049 191.695 148.108 191.599 148.14C191.504 148.173 191.401 148.177 191.304 148.153C191.276 148.153 188.592 147.478 187.313 149.008C186.377 150.124 185.873 152.798 188.787 159.205C188.826 159.29 188.842 159.384 188.831 159.478C188.821 159.571 188.785 159.659 188.728 159.734C188.671 159.808 188.595 159.867 188.508 159.902C188.421 159.938 188.327 159.949 188.234 159.935C188.157 159.926 188.079 159.922 188.001 159.921Z" fill="#1D1D1B"/>
<path d="M216.34 156.066C216.34 156.066 213.36 150.806 203.316 143.866L216.34 156.066Z" fill="#FFCDB2"/>
<path d="M216.339 156.598C216.247 156.598 216.157 156.574 216.077 156.528C215.998 156.481 215.932 156.414 215.887 156.334C215.856 156.282 212.821 151.077 203.024 144.304C202.964 144.267 202.912 144.218 202.871 144.16C202.831 144.102 202.802 144.036 202.788 143.967C202.774 143.898 202.774 143.826 202.788 143.757C202.802 143.688 202.83 143.622 202.871 143.564C202.911 143.506 202.963 143.456 203.023 143.419C203.083 143.381 203.15 143.357 203.22 143.346C203.29 143.335 203.361 143.339 203.43 143.357C203.498 143.374 203.563 143.406 203.618 143.449C213.645 150.375 216.673 155.6 216.798 155.819C216.843 155.899 216.867 155.989 216.866 156.08C216.865 156.171 216.841 156.261 216.795 156.34C216.749 156.419 216.683 156.484 216.603 156.529C216.524 156.575 216.434 156.598 216.343 156.598H216.339Z" fill="#1D1D1B"/>
<path d="M208.888 167.591C208.888 167.591 201.903 160.008 191.445 147.645L208.888 167.591Z" fill="#FFCDB2"/>
<path d="M208.886 168.112C208.814 168.112 208.742 168.098 208.676 168.069C208.61 168.04 208.55 167.998 208.501 167.945C208.431 167.869 201.391 160.21 191.044 147.982C190.956 147.876 190.912 147.74 190.924 147.602C190.935 147.465 191.001 147.338 191.107 147.249C191.159 147.204 191.219 147.17 191.284 147.149C191.35 147.127 191.418 147.12 191.487 147.125C191.555 147.131 191.622 147.151 191.682 147.183C191.743 147.215 191.797 147.258 191.84 147.311C202.173 159.521 209.199 167.163 209.269 167.236C209.315 167.286 209.351 167.345 209.375 167.41C209.398 167.474 209.409 167.542 209.406 167.611C209.403 167.679 209.387 167.747 209.358 167.809C209.329 167.871 209.288 167.927 209.238 167.973C209.143 168.062 209.017 168.112 208.886 168.112Z" fill="#1D1D1B"/>
<path d="M204.605 177.771C204.605 177.771 197.068 174.611 188.418 159.717L204.605 177.771Z" fill="#FFCDB2"/>
<path d="M204.604 178.292C204.535 178.293 204.466 178.28 204.402 178.254C204.089 178.122 196.604 174.854 187.964 159.977C187.93 159.918 187.908 159.852 187.899 159.785C187.89 159.717 187.895 159.648 187.913 159.581C187.93 159.515 187.961 159.453 188.002 159.399C188.044 159.344 188.096 159.299 188.156 159.265C188.215 159.23 188.281 159.208 188.348 159.199C188.416 159.19 188.485 159.195 188.551 159.213C188.618 159.23 188.68 159.261 188.734 159.303C188.788 159.344 188.834 159.396 188.868 159.456C197.303 173.981 204.732 177.26 204.809 177.291C204.92 177.338 205.01 177.422 205.066 177.529C205.122 177.635 205.14 177.758 205.115 177.875C205.091 177.993 205.027 178.099 204.934 178.175C204.841 178.251 204.724 178.293 204.604 178.292Z" fill="#1D1D1B"/>
<path d="M273.158 156.066C273.158 156.066 290.541 169.329 296.451 203.348C306.373 260.553 256.035 263.867 242.771 253.975C229.508 244.084 204.619 228.127 201.299 216.306C197.978 204.485 205.554 200.056 205.554 200.056L201.309 191.771L226.341 171.148L230.36 175.977C230.36 175.977 242.365 171.947 248.546 181.494C254.728 191.041 261.799 203.745 265.863 209.057" fill="#07ACEE"/>
<path d="M259.375 258.822H259.295C252.453 258.822 246.16 257.153 242.461 254.392C240.246 252.741 237.701 250.916 235.003 248.983C221.017 238.953 203.61 226.468 200.793 216.448C197.863 206.018 203.307 201.064 204.882 199.889L200.651 191.635L226.409 170.428L230.543 175.392C232.598 174.819 243.253 172.375 248.969 181.223C251.511 185.148 254.184 189.567 256.767 193.86C260.428 199.927 263.884 205.653 266.262 208.754L265.435 209.387C263.022 206.258 259.549 200.49 255.874 194.399C253.294 190.123 250.624 185.708 248.093 181.789C242.207 172.701 230.988 176.324 230.512 176.484L230.164 176.595L226.246 171.891L201.937 191.92L206.22 200.264L205.793 200.515C205.497 200.685 198.61 204.909 201.774 216.16C204.492 225.828 222.463 238.716 235.588 248.127C238.289 250.064 240.841 251.893 243.059 253.548C246.588 256.179 252.648 257.758 259.274 257.772H259.35C266.881 257.772 274.3 255.752 280.277 252.087C290.202 245.993 300.97 232.601 295.921 203.432C290.126 170 273 156.605 272.826 156.472L273.459 155.645C273.64 155.781 277.933 159.101 283.009 166.652C287.678 173.605 293.888 185.59 296.951 203.251C299.137 215.864 298.543 226.704 295.188 235.479C292.309 243.006 287.48 248.896 280.833 252.977C274.717 256.75 267.097 258.822 259.375 258.822Z" fill="#1D1D1B"/>
<path d="M206.406 200.219C206.406 200.219 226.571 195.699 230.048 176.578L226.223 171.71L202.234 191.875L206.406 200.219Z" fill="#0598C6"/>
<path d="M138.315 195.539C139.878 195.539 141.144 194.272 141.144 192.709C141.144 191.146 139.878 189.879 138.315 189.879C136.752 189.879 135.484 191.146 135.484 192.709C135.484 194.272 136.752 195.539 138.315 195.539Z" fill="#51CEF4"/>
<path d="M169.951 179.547C171.514 179.547 172.781 178.28 172.781 176.717C172.781 175.154 171.514 173.887 169.951 173.887C168.388 173.887 167.121 175.154 167.121 176.717C167.121 178.28 168.388 179.547 169.951 179.547Z" fill="#51CEF4"/>
<path d="M164.736 160.426C166.299 160.426 167.566 159.159 167.566 157.596C167.566 156.033 166.299 154.766 164.736 154.766C163.173 154.766 161.906 156.033 161.906 157.596C161.906 159.159 163.173 160.426 164.736 160.426Z" fill="#51CEF4"/>
<path d="M178.994 143.39C180.557 143.39 181.824 142.123 181.824 140.56C181.824 138.997 180.557 137.73 178.994 137.73C177.431 137.73 176.164 138.997 176.164 140.56C176.164 142.123 177.431 143.39 178.994 143.39Z" fill="#51CEF4"/>
<path d="M138.315 238.65C139.878 238.65 141.144 237.383 141.144 235.82C141.144 234.257 139.878 232.99 138.315 232.99C136.752 232.99 135.484 234.257 135.484 235.82C135.484 237.383 136.752 238.65 138.315 238.65Z" fill="#51CEF4"/>
<path d="M185.252 233.783C186.815 233.783 188.082 232.516 188.082 230.953C188.082 229.39 186.815 228.123 185.252 228.123C183.689 228.123 182.422 229.39 182.422 230.953C182.422 232.516 183.689 233.783 185.252 233.783Z" fill="#51CEF4"/>
<path d="M167.865 214.313C169.428 214.313 170.695 213.046 170.695 211.483C170.695 209.92 169.428 208.653 167.865 208.653C166.302 208.653 165.035 209.92 165.035 211.483C165.035 213.046 166.302 214.313 167.865 214.313Z" fill="#51CEF4"/>
<path d="M210.283 221.962C211.846 221.962 213.113 220.695 213.113 219.132C213.113 217.569 211.846 216.302 210.283 216.302C208.72 216.302 207.453 217.569 207.453 219.132C207.453 220.695 208.72 221.962 210.283 221.962Z" fill="#51CEF4"/>
<path d="M244.354 204.231C245.917 204.231 247.184 202.964 247.184 201.401C247.184 199.838 245.917 198.571 244.354 198.571C242.791 198.571 241.523 199.838 241.523 201.401C241.523 202.964 242.791 204.231 244.354 204.231Z" fill="#51CEF4"/>
<path d="M242.963 235.869C244.526 235.869 245.793 234.602 245.793 233.039C245.793 231.476 244.526 230.208 242.963 230.208C241.4 230.208 240.133 231.476 240.133 233.039C240.133 234.602 241.4 235.869 242.963 235.869Z" fill="#51CEF4"/>
<path d="M271.818 244.908C273.381 244.908 274.648 243.641 274.648 242.078C274.648 240.515 273.381 239.248 271.818 239.248C270.256 239.248 268.988 240.515 268.988 242.078C268.988 243.641 270.256 244.908 271.818 244.908Z" fill="#51CEF4"/>
<path d="M290.244 211.88C291.807 211.88 293.074 210.613 293.074 209.05C293.074 207.487 291.807 206.22 290.244 206.22C288.681 206.22 287.414 207.487 287.414 209.05C287.414 210.613 288.681 211.88 290.244 211.88Z" fill="#51CEF4"/>
<path d="M259.651 186.153C261.213 186.153 262.48 184.886 262.48 183.323C262.48 181.76 261.213 180.493 259.651 180.493C258.088 180.493 256.82 181.76 256.82 183.323C256.82 184.886 258.088 186.153 259.651 186.153Z" fill="#51CEF4"/>
<path d="M196.377 270.635C197.94 270.635 199.207 269.368 199.207 267.805C199.207 266.242 197.94 264.975 196.377 264.975C194.814 264.975 193.547 266.242 193.547 267.805C193.547 269.368 194.814 270.635 196.377 270.635Z" fill="#51CEF4"/>
<path d="M135.533 280.022C137.096 280.022 138.363 278.755 138.363 277.192C138.363 275.629 137.096 274.362 135.533 274.362C133.97 274.362 132.703 275.629 132.703 277.192C132.703 278.755 133.97 280.022 135.533 280.022Z" fill="#51CEF4"/>
<path d="M221.408 259.163C222.971 259.163 224.238 257.895 224.238 256.332C224.238 254.77 222.971 253.502 221.408 253.502C219.845 253.502 218.578 254.77 218.578 256.332C218.578 257.895 219.845 259.163 221.408 259.163Z" fill="#51CEF4"/>
<path d="M275.99 277.936C277.553 277.936 278.82 276.669 278.82 275.106C278.82 273.543 277.553 272.276 275.99 272.276C274.427 272.276 273.16 273.543 273.16 275.106C273.16 276.669 274.427 277.936 275.99 277.936Z" fill="#51CEF4"/>
<path d="M114.622 147.026C114.494 147.027 114.369 146.992 114.26 146.926C114.15 146.859 114.062 146.764 114.003 146.651C108.485 135.953 107.46 126.872 110.951 119.658C116.065 109.089 128.894 106.468 129.439 106.363C129.615 106.34 129.793 106.385 129.937 106.488C130.081 106.592 130.18 106.746 130.214 106.92C130.248 107.094 130.214 107.275 130.119 107.425C130.024 107.574 129.875 107.682 129.703 107.726C129.578 107.751 117 110.33 112.199 120.27C108.913 127.07 109.935 135.731 115.241 145.997C115.283 146.079 115.309 146.167 115.316 146.259C115.324 146.35 115.314 146.442 115.286 146.529C115.259 146.616 115.214 146.697 115.155 146.767C115.095 146.837 115.023 146.894 114.942 146.936C114.844 146.992 114.734 147.023 114.622 147.026Z" fill="#1D1D1B"/>
<path d="M117.749 220.036C117.477 220.036 117.217 219.931 117.022 219.742C116.827 219.553 116.714 219.296 116.706 219.024C116.16 201.022 121.076 187.516 125.297 179.359C129.886 170.487 134.558 165.933 134.756 165.745C134.854 165.645 134.971 165.566 135.099 165.512C135.228 165.458 135.367 165.431 135.506 165.431C135.646 165.432 135.784 165.46 135.912 165.515C136.041 165.57 136.157 165.65 136.253 165.751C136.35 165.851 136.426 165.97 136.476 166.101C136.526 166.231 136.549 166.37 136.544 166.509C136.54 166.649 136.507 166.786 136.448 166.913C136.39 167.039 136.306 167.153 136.203 167.247C136.126 167.32 131.523 171.832 127.104 180.402C123.019 188.329 118.26 201.45 118.792 218.962C118.796 219.099 118.773 219.235 118.725 219.363C118.676 219.492 118.603 219.609 118.509 219.709C118.415 219.808 118.302 219.889 118.177 219.945C118.052 220.001 117.917 220.032 117.78 220.036H117.749Z" fill="white"/>
<path d="M260.99 212.387C260.792 212.387 260.599 212.331 260.432 212.225C260.265 212.119 260.132 211.968 260.047 211.789C246.836 183.726 239.709 180.228 237.255 180.027C235.986 179.922 235.429 180.639 235.426 180.646C235.265 180.864 235.026 181.011 234.759 181.056C234.492 181.101 234.218 181.04 233.995 180.886C233.772 180.733 233.617 180.498 233.563 180.233C233.51 179.967 233.562 179.691 233.708 179.464C234.15 178.824 235.429 177.788 237.429 177.948C243.551 178.448 252.03 189.845 261.932 210.9C261.991 211.023 262.024 211.158 262.031 211.295C262.038 211.432 262.018 211.569 261.972 211.698C261.926 211.827 261.854 211.946 261.762 212.048C261.67 212.149 261.559 212.232 261.435 212.29C261.295 212.355 261.143 212.388 260.99 212.387Z" fill="white"/>
<path d="M303.752 206.825H303.672C303.581 206.814 303.493 206.786 303.413 206.742C303.333 206.697 303.263 206.638 303.206 206.566C303.149 206.494 303.107 206.412 303.082 206.324C303.057 206.236 303.049 206.144 303.06 206.053C305.188 187.435 297.609 172.357 290.871 162.988C283.549 152.798 275.609 146.953 275.529 146.898C275.379 146.789 275.279 146.625 275.251 146.443C275.222 146.26 275.267 146.074 275.376 145.924C275.484 145.775 275.648 145.675 275.831 145.646C276.013 145.617 276.2 145.662 276.349 145.771C276.429 145.83 284.519 151.782 291.973 162.139C298.867 171.714 306.624 187.133 304.444 206.213C304.424 206.382 304.342 206.538 304.214 206.65C304.087 206.763 303.922 206.825 303.752 206.825Z" fill="#1D1D1B"/>
<defs>
<filter id="filter0_d_14058_97440" x="-4.02115" y="107.785" width="38.6868" height="38.6839" filterUnits="userSpaceOnUse" color-interpolation-filters="sRGB">
<feFlood flood-opacity="0" result="BackgroundImageFix"/>
<feColorMatrix in="SourceAlpha" type="matrix" values="0 0 0 0 0 0 0 0 0 0 0 0 0 0 0 0 0 0 127 0" result="hardAlpha"/>
<feOffset dy="2.03704"/>
<feGaussianBlur stdDeviation="5.09261"/>
<feComposite in2="hardAlpha" operator="out"/>
<feColorMatrix type="matrix" values="0 0 0 0 0 0 0 0 0 0 0 0 0 0 0 0 0 0 0.05 0"/>
<feBlend mode="normal" in2="BackgroundImageFix" result="effect1_dropShadow_14058_97440"/>
<feBlend mode="normal" in="SourceGraphic" in2="effect1_dropShadow_14058_97440" result="shape"/>
</filter>
<filter id="filter1_d_14058_97440" x="370.651" y="165.21" width="38.6868" height="38.6883" filterUnits="userSpaceOnUse" color-interpolation-filters="sRGB">
<feFlood flood-opacity="0" result="BackgroundImageFix"/>
<feColorMatrix in="SourceAlpha" type="matrix" values="0 0 0 0 0 0 0 0 0 0 0 0 0 0 0 0 0 0 127 0" result="hardAlpha"/>
<feOffset dy="2.03704"/>
<feGaussianBlur stdDeviation="5.09261"/>
<feComposite in2="hardAlpha" operator="out"/>
<feColorMatrix type="matrix" values="0 0 0 0 0 0 0 0 0 0 0 0 0 0 0 0 0 0 0.05 0"/>
<feBlend mode="normal" in2="BackgroundImageFix" result="effect1_dropShadow_14058_97440"/>
<feBlend mode="normal" in="SourceGraphic" in2="effect1_dropShadow_14058_97440" result="shape"/>
</filter>
<linearGradient id="paint0_linear_14058_97440" x1="20.4527" y1="112.038" x2="392.051" y2="200.547" gradientUnits="userSpaceOnUse">
<stop stop-color="#CDD5E2"/>
<stop offset="1" stop-color="#CDD5E2" stop-opacity="0"/>
</linearGradient>
<linearGradient id="paint1_linear_14058_97440" x1="391.411" y1="195.437" x2="353.85" y2="294.044" gradientUnits="userSpaceOnUse">
<stop stop-color="#CDD5E2"/>
<stop offset="1" stop-color="#CDD5E2" stop-opacity="0"/>
</linearGradient>
<linearGradient id="paint2_linear_14058_97440" x1="196.502" y1="23.2607" x2="196.502" y2="365.006" gradientUnits="userSpaceOnUse">
<stop stop-color="#CDD5E2"/>
<stop offset="1" stop-color="#CDD5E2" stop-opacity="0"/>
</linearGradient>
<linearGradient id="paint3_linear_14058_97440" x1="196.503" y1="57.4336" x2="196.503" y2="330.83" gradientUnits="userSpaceOnUse">
<stop stop-color="#CDD5E2"/>
<stop offset="1" stop-color="#CDD5E2" stop-opacity="0"/>
</linearGradient>
</defs>
</svg>
