<svg width="406" height="302" viewBox="0 0 406 302" fill="none" xmlns="http://www.w3.org/2000/svg">
<mask id="mask0_14052_48450" style="mask-type:alpha" maskUnits="userSpaceOnUse" x="0" y="0" width="406" height="302">
<rect width="405.823" height="301.875" fill="#D9D9D9"/>
</mask>
<g mask="url(#mask0_14052_48450)">
<g opacity="0.5">
<mask id="path-2-inside-1_14052_48450" fill="white">
<path d="M389.977 202.564C391.993 156.308 377.369 110.86 348.757 74.4585C320.144 38.0572 279.437 13.1117 234.013 4.14391C188.59 -4.82387 141.456 2.77957 101.157 25.576C60.8571 48.3724 30.0587 84.853 14.3442 128.405L15.1839 128.708C30.8259 85.3568 61.4823 49.0443 101.596 26.353C141.71 3.66161 188.626 -3.90679 233.84 5.01966C279.055 13.9461 319.574 38.7766 348.055 75.0102C376.535 111.244 391.092 156.482 389.085 202.526L389.977 202.564Z"/>
</mask>
<path d="M389.977 202.564C391.993 156.308 377.369 110.86 348.757 74.4585C320.144 38.0572 279.437 13.1117 234.013 4.14391C188.59 -4.82387 141.456 2.77957 101.157 25.576C60.8571 48.3724 30.0587 84.853 14.3442 128.405L15.1839 128.708C30.8259 85.3568 61.4823 49.0443 101.596 26.353C141.71 3.66161 188.626 -3.90679 233.84 5.01966C279.055 13.9461 319.574 38.7766 348.055 75.0102C376.535 111.244 391.092 156.482 389.085 202.526L389.977 202.564Z" stroke="url(#paint0_linear_14052_48450)" stroke-width="2.84788" stroke-dasharray="4.27 4.27" mask="url(#path-2-inside-1_14052_48450)"/>
</g>
<g opacity="0.5">
<mask id="path-3-inside-2_14052_48450" fill="white">
<path d="M14.6043 260.573C30.4892 304.063 61.4301 340.423 101.819 363.061C142.207 385.7 189.37 393.119 234.758 383.973C280.146 374.828 320.756 349.723 349.225 313.21C377.695 276.697 392.141 231.192 389.944 184.944L389.052 184.986C391.239 231.021 376.86 276.316 348.521 312.661C320.183 349.006 279.761 373.995 234.582 383.098C189.403 392.201 142.457 384.817 102.255 362.282C62.0527 339.748 31.2544 303.556 15.4428 260.266L14.6043 260.573Z"/>
</mask>
<path d="M14.6043 260.573C30.4892 304.063 61.4301 340.423 101.819 363.061C142.207 385.7 189.37 393.119 234.758 383.973C280.146 374.828 320.756 349.723 349.225 313.21C377.695 276.697 392.141 231.192 389.944 184.944L389.052 184.986C391.239 231.021 376.86 276.316 348.521 312.661C320.183 349.006 279.761 373.995 234.582 383.098C189.403 392.201 142.457 384.817 102.255 362.282C62.0527 339.748 31.2544 303.556 15.4428 260.266L14.6043 260.573Z" stroke="url(#paint1_linear_14052_48450)" stroke-width="2.84788" stroke-dasharray="4.27 4.27" mask="url(#path-3-inside-2_14052_48450)"/>
</g>
<circle opacity="0.08" cx="196.502" cy="194.133" r="170.873" fill="url(#paint2_linear_14052_48450)"/>
<circle opacity="0.1" cx="196.503" cy="194.132" r="136.698" fill="url(#paint3_linear_14052_48450)"/>
<circle cx="196.503" cy="194.134" r="91.1321" fill="white"/>
<g filter="url(#filter0_d_14052_48450)">
<circle cx="15.3224" cy="125.091" r="7.11969" transform="rotate(-2.50406 15.3224 125.091)" fill="#0170FF"/>
<circle cx="15.3224" cy="125.091" r="8.13822" transform="rotate(-2.50406 15.3224 125.091)" stroke="white" stroke-width="2.03704"/>
</g>
<g filter="url(#filter1_d_14052_48450)">
<circle cx="389.995" cy="182.517" r="7.11969" transform="rotate(-15.7345 389.995 182.517)" fill="#0170FF"/>
<circle cx="389.995" cy="182.517" r="8.13822" transform="rotate(-15.7345 389.995 182.517)" stroke="white" stroke-width="2.03704"/>
</g>
</g>
<path d="M339.849 290.112H65.9103C65.7787 290.112 65.6525 290.06 65.5594 289.967C65.4664 289.874 65.4141 289.748 65.4141 289.616C65.4141 289.484 65.4664 289.358 65.5594 289.265C65.6525 289.172 65.7787 289.12 65.9103 289.12H339.849C339.98 289.12 340.106 289.172 340.2 289.265C340.293 289.358 340.345 289.484 340.345 289.616C340.345 289.748 340.293 289.874 340.2 289.967C340.106 290.06 339.98 290.112 339.849 290.112Z" fill="black"/>
<path d="M356.762 300H323.02C322.888 300 322.762 299.948 322.669 299.855C322.576 299.762 322.523 299.635 322.523 299.504C322.523 299.372 322.576 299.246 322.669 299.153C322.762 299.06 322.888 299.008 323.02 299.008H356.762C356.893 299.008 357.019 299.06 357.112 299.153C357.206 299.246 357.258 299.372 357.258 299.504C357.258 299.635 357.206 299.762 357.112 299.855C357.019 299.948 356.893 300 356.762 300Z" fill="black"/>
<path d="M76.569 280.483H42.4962C42.3646 280.483 42.2384 280.43 42.1454 280.337C42.0523 280.244 42 280.118 42 279.986C42 279.855 42.0523 279.729 42.1454 279.636C42.2384 279.543 42.3646 279.49 42.4962 279.49H76.569C76.7006 279.49 76.8268 279.543 76.9198 279.636C77.0129 279.729 77.0652 279.855 77.0652 279.986C77.0652 280.118 77.0129 280.244 76.9198 280.337C76.8268 280.43 76.7006 280.483 76.569 280.483Z" fill="black"/>
<path d="M78.4836 83.3236C78.4595 83.3269 78.4351 83.3269 78.4109 83.3236C78.3465 83.3143 78.2846 83.2924 78.2287 83.259C78.1729 83.2256 78.124 83.1816 78.0853 83.1293C78.0465 83.077 78.0186 83.0175 78.0029 82.9544C77.9873 82.8912 77.984 82.8256 77.9939 82.7613C79.3469 73.7303 85.4336 67.5741 90.3031 63.9948C93.4683 61.6538 96.9388 59.7561 100.618 58.3545C100.742 58.3107 100.878 58.3179 100.997 58.3747C101.116 58.4314 101.207 58.5331 101.251 58.6572C101.295 58.7814 101.288 58.9179 101.231 59.0367C101.174 59.1555 101.073 59.2469 100.949 59.2907C100.757 59.3569 81.4774 66.2574 78.9798 82.9068C78.9615 83.0245 78.9011 83.1316 78.8099 83.2082C78.7187 83.2848 78.6027 83.3258 78.4836 83.3236Z" fill="black"/>
<path d="M83.7555 95.7616L78.9388 95.143C78.0976 95.0339 77.2435 95.1925 76.4975 95.5962L72.2268 97.9118C71.667 98.2158 71.0432 98.3831 70.4064 98.4002C69.7696 98.4173 69.1381 98.2837 68.5628 98.0102C67.9874 97.7367 67.4846 97.3311 67.0958 96.8265C66.707 96.3219 66.4431 95.7326 66.3253 95.1066L65.4256 90.3331C65.2684 89.4997 64.853 88.7371 64.2381 88.1531L60.7181 84.8053C60.2567 84.3663 59.9053 83.8245 59.6928 83.2241C59.4802 82.6237 59.4125 81.9816 59.4951 81.35C59.5776 80.7184 59.8083 80.1153 60.168 79.5896C60.5276 79.0639 61.0064 78.6306 61.5652 78.3249L65.8223 76.0092C66.5685 75.6024 67.1674 74.9703 67.5329 74.2031L69.6266 69.8232C69.9019 69.2487 70.3091 68.7473 70.8147 68.3597C71.3203 67.9721 71.9103 67.7093 72.5366 67.5926C73.1629 67.476 73.8078 67.5088 74.419 67.6883C75.0303 67.8678 75.5906 68.189 76.0543 68.6258L79.5839 71.9569C80.2024 72.5393 80.988 72.9131 81.8301 73.0255L86.64 73.6639C87.2718 73.7469 87.8749 73.9781 88.4003 74.3386C88.9257 74.6991 89.3583 75.1787 89.6631 75.7383C89.9679 76.2979 90.1363 76.9215 90.1542 77.5584C90.172 78.1954 90.0391 78.8275 89.7662 79.4033L87.6919 83.7931C87.3263 84.5585 87.2106 85.4195 87.3611 86.2543L88.2411 91.0311C88.3534 91.6557 88.3171 92.2979 88.1354 92.9059C87.9537 93.5139 87.6317 94.0706 87.195 94.5311C86.7584 94.9916 86.2193 95.343 85.6218 95.5567C85.0243 95.7705 84.3852 95.8406 83.7555 95.7616Z" fill="white"/>
<path d="M73.2848 67.5077C74.3149 67.5059 75.3063 67.9003 76.0536 68.6093L79.5833 71.9405C80.2017 72.523 80.9874 72.8967 81.8294 73.009L86.6393 73.6474C87.2711 73.7304 87.8742 73.9616 88.3996 74.3221C88.925 74.6826 89.3577 75.1622 89.6624 75.7218C89.9672 76.2814 90.1356 76.9051 90.1535 77.542C90.1714 78.179 90.0384 78.8111 89.7655 79.3869L87.6912 83.7767C87.3256 84.5421 87.2099 85.403 87.3604 86.2378L88.2404 91.0146C88.348 91.5975 88.3261 92.1969 88.1764 92.7705C88.0268 93.344 87.753 93.8777 87.3743 94.3337C86.9956 94.7897 86.5215 95.1569 85.9852 95.4094C85.4489 95.6619 84.8635 95.7934 84.2707 95.7947C84.0949 95.7934 83.9194 95.7824 83.7448 95.7617L78.9281 95.143C78.757 95.1205 78.5848 95.1094 78.4122 95.1099C77.74 95.1097 77.0783 95.2769 76.4868 95.5963L72.2161 97.9119C71.6271 98.2352 70.9662 98.4047 70.2943 98.4048C69.3507 98.4029 68.4374 98.0711 67.7125 97.4671C66.9876 96.863 66.4967 96.0246 66.3246 95.0968L65.4249 90.3232C65.2677 89.4899 64.8523 88.7272 64.2374 88.1433L60.7174 84.7955C60.256 84.3565 59.9046 83.8147 59.6921 83.2142C59.4796 82.6138 59.4118 81.9717 59.4944 81.3401C59.5769 80.7086 59.8076 80.1054 60.1673 79.5798C60.527 79.0541 61.0057 78.6208 61.5645 78.3151L65.8216 75.9995C66.5678 75.5927 67.1667 74.9605 67.5322 74.1932L69.6259 69.8134C69.9548 69.1225 70.4734 68.5396 71.1213 68.1325C71.7691 67.7254 72.5196 67.5109 73.2848 67.5143V67.5077ZM73.2848 66.5219C72.3316 66.5164 71.3968 66.7831 70.5899 67.2906C69.783 67.7981 69.1374 68.5252 68.7294 69.3867L66.6357 73.7665C66.36 74.3454 65.9083 74.8224 65.3455 75.1294L61.088 77.445C60.3924 77.8261 59.7964 78.3659 59.3487 79.0206C58.9009 79.6754 58.6142 80.4265 58.5113 81.2129C58.4085 81.9994 58.4925 82.7991 58.7569 83.5469C59.0212 84.2947 59.4583 84.9695 60.0326 85.5166L63.5525 88.8611C64.0187 89.3038 64.3326 89.8828 64.449 90.5151L65.3487 95.2853C65.4944 96.0656 65.8226 96.8005 66.3065 97.4297C66.7905 98.0589 67.4165 98.5647 68.1334 98.9057C68.8502 99.2467 69.6377 99.4132 70.4313 99.3917C71.2248 99.3702 72.0017 99.1612 72.6991 98.7819L76.9698 96.4663C77.4157 96.2248 77.9151 96.0986 78.4222 96.0991C78.5527 96.0986 78.683 96.1063 78.8125 96.1222L83.6256 96.7408C83.8449 96.7702 84.066 96.7845 84.2872 96.7838C85.0254 96.7821 85.7544 96.6181 86.4223 96.3035C87.0901 95.9889 87.6807 95.5315 88.1522 94.9634C88.6237 94.3954 88.9646 93.7306 89.1507 93.0162C89.3369 92.3019 89.3638 91.5553 89.2296 90.8293L88.3496 86.0559C88.2323 85.4259 88.3181 84.7749 88.5944 84.1967L90.6684 79.807C91.0076 79.09 91.1728 78.3031 91.1504 77.5102C91.128 76.7174 90.9187 75.941 90.5395 75.2443C90.1604 74.5476 89.6221 73.9503 88.9685 73.5009C88.3149 73.0516 87.5645 72.7629 86.7783 72.6583L81.9651 72.0199C81.33 71.9371 80.7372 71.6557 80.2714 71.216L76.7382 67.8848C75.8075 67.0025 74.5737 66.5111 73.2912 66.512L73.2848 66.5219Z" fill="black"/>
<path d="M72.0518 79.9063H72.0221C71.9569 79.9025 71.8932 79.8859 71.8344 79.8574C71.7757 79.8288 71.723 79.789 71.6797 79.7402C71.6363 79.6913 71.6031 79.6343 71.5818 79.5726C71.5605 79.5108 71.5516 79.4456 71.5556 79.3804C72.0948 70.012 80.385 57.0643 96.1908 40.9013C103.655 33.3215 111.524 26.1514 119.764 19.4222C119.866 19.3397 119.998 19.3014 120.129 19.3157C120.259 19.3299 120.379 19.3956 120.462 19.4983C120.544 19.6009 120.582 19.7321 120.568 19.863C120.554 19.9939 120.488 20.1138 120.386 20.1962C119.919 20.57 73.8052 57.6168 72.5448 79.4399C72.538 79.566 72.4831 79.6846 72.3914 79.7714C72.2997 79.8582 72.1781 79.9065 72.0518 79.9063Z" fill="black"/>
<path d="M187.988 60.829C187.988 47.0874 202.831 35.9492 221.141 35.9492C239.451 35.9492 254.294 47.0874 254.294 60.829C254.294 74.5705 239.451 85.712 221.141 85.712C218.902 85.713 216.666 85.5438 214.453 85.2059L206.933 92.5001L205.173 82.6388C194.928 78.4012 187.988 70.2238 187.988 60.829Z" fill="#07ACEE"/>
<path d="M206.933 92.993C206.817 92.9907 206.706 92.9488 206.616 92.8742C206.527 92.7996 206.467 92.6968 206.444 92.5828L204.73 82.9895C194.092 78.5005 187.492 70.0319 187.492 60.8256C187.492 46.8327 202.587 35.4497 221.141 35.4497C239.696 35.4497 254.791 46.8327 254.791 60.8256C254.791 74.8186 239.696 86.2049 221.141 86.2049C218.959 86.2064 216.78 86.0472 214.621 85.7286L207.281 92.8508C207.188 92.9412 207.063 92.9922 206.933 92.993ZM221.158 36.4421C203.152 36.4421 188.501 47.3818 188.501 60.8256C188.501 69.6945 194.968 77.8753 205.372 82.179C205.449 82.2104 205.517 82.2609 205.569 82.3257C205.621 82.3905 205.656 82.4675 205.67 82.5495L207.267 91.4812L214.115 84.8354C214.17 84.7829 214.237 84.7437 214.31 84.7208C214.383 84.6979 214.46 84.6918 214.535 84.703C216.725 85.0361 218.937 85.2031 221.151 85.2026C239.16 85.2026 253.808 74.2629 253.808 60.8157C253.808 47.3685 239.157 36.4421 221.141 36.4421H221.158Z" fill="black"/>
<path d="M232.31 46.7102C232.245 46.7124 232.18 46.7016 232.119 46.6787C232.058 46.6558 232.002 46.6211 231.954 46.5765C231.907 46.532 231.868 46.4785 231.841 46.4191C231.814 46.3598 231.799 46.2957 231.797 46.2306C231.795 46.1654 231.806 46.1004 231.828 46.0394C231.851 45.9784 231.886 45.9224 231.931 45.8748C231.975 45.8272 232.029 45.7888 232.088 45.7619C232.148 45.7349 232.212 45.72 232.277 45.7178C246.098 44.7948 257.276 37.1169 264.216 30.8316C268.714 26.7886 272.712 22.2219 276.125 17.2289C276.196 17.118 276.308 17.0398 276.437 17.0115C276.566 16.9833 276.7 17.0074 276.811 17.0785C276.922 17.1495 277.001 17.2617 277.029 17.3905C277.057 17.5192 277.033 17.6539 276.962 17.7649C273.505 22.8219 269.458 27.4494 264.907 31.5494C257.845 37.9472 246.462 45.774 232.346 46.7135L232.31 46.7102Z" fill="black"/>
<path d="M248.916 57.5209C248.102 57.5209 247.267 57.48 246.411 57.3984C246.346 57.3921 246.283 57.3732 246.225 57.3424C246.167 57.3116 246.116 57.2698 246.074 57.2192C246.033 57.1687 246.002 57.1105 245.983 57.0479C245.964 56.9852 245.957 56.9195 245.963 56.8544C245.97 56.7892 245.988 56.7259 246.019 56.6681C246.05 56.6103 246.092 56.5591 246.142 56.5175C246.193 56.4759 246.251 56.4446 246.314 56.4255C246.376 56.4064 246.442 56.3997 246.507 56.406C262.287 57.9443 270.563 43.9645 270.656 43.8355C270.722 43.7214 270.83 43.6382 270.957 43.6041C271.085 43.57 271.22 43.5878 271.334 43.6536C271.448 43.7194 271.532 43.8278 271.566 43.955C271.6 44.0822 271.582 44.2176 271.516 44.3317C271.427 44.4706 263.706 57.5209 248.916 57.5209Z" fill="black"/>
<path d="M232.21 74.4879C232.043 74.4878 231.879 74.452 231.728 74.383C231.577 74.3139 231.442 74.2132 231.333 74.0876L211.654 51.411C211.548 51.2973 211.466 51.1634 211.413 51.0175C211.36 50.8715 211.337 50.7164 211.345 50.5613C211.354 50.4063 211.393 50.2545 211.461 50.1149C211.529 49.9754 211.625 49.851 211.742 49.7492C211.859 49.6473 211.996 49.57 212.143 49.522C212.291 49.4739 212.447 49.456 212.601 49.4694C212.756 49.4828 212.906 49.5272 213.044 49.5999C213.181 49.6726 213.302 49.7721 213.4 49.8926L233.083 72.5692C233.227 72.7372 233.321 72.9432 233.353 73.1626C233.384 73.3821 233.352 73.606 233.26 73.8078C233.168 74.0096 233.02 74.1809 232.834 74.3014C232.648 74.4219 232.431 74.4866 232.21 74.4879Z" fill="white"/>
<path d="M212.527 72.7743C212.301 72.7754 212.079 72.7099 211.89 72.5862C211.701 72.4625 211.552 72.286 211.462 72.0785C211.372 71.8709 211.345 71.6416 211.385 71.419C211.424 71.1963 211.528 70.99 211.684 70.8258L231.366 49.8595C231.579 49.6466 231.866 49.5247 232.167 49.5199C232.468 49.5151 232.759 49.6277 232.978 49.8337C233.198 50.0397 233.328 50.323 233.342 50.6236C233.356 50.9242 233.253 51.2185 233.053 51.444L213.371 72.4104C213.262 72.5254 213.132 72.617 212.986 72.6796C212.841 72.7422 212.685 72.7744 212.527 72.7743Z" fill="white"/>
<path d="M56.5888 232.437C56.4899 232.437 56.3935 232.407 56.3116 232.351C56.2297 232.296 56.166 232.217 56.1291 232.126C46.3009 207.712 47.4752 189.515 50.1911 178.536C53.1452 166.627 58.362 160.573 58.5836 160.321C58.6271 160.273 58.6798 160.233 58.7387 160.204C58.7975 160.176 58.8614 160.159 58.9267 160.155C58.992 160.151 59.0571 160.16 59.1189 160.182C59.1807 160.203 59.2377 160.237 59.2866 160.28C59.3355 160.324 59.3753 160.376 59.4038 160.435C59.4324 160.494 59.4491 160.558 59.4529 160.623C59.4568 160.688 59.4476 160.754 59.4261 160.815C59.4047 160.877 59.3714 160.934 59.3279 160.983C59.275 161.043 54.0351 167.136 51.1405 178.846C48.4743 189.66 47.3364 207.626 57.0488 231.752C57.0752 231.813 57.0891 231.879 57.0895 231.946C57.0899 232.013 57.0767 232.079 57.0511 232.141C57.0255 232.202 56.9878 232.258 56.9403 232.305C56.8927 232.352 56.8363 232.389 56.7742 232.413C56.7144 232.433 56.6514 232.44 56.5888 232.437Z" fill="black"/>
<path d="M250.607 118.961C203.877 125.762 217.628 130.347 166.165 106.983C137.342 93.8959 100.802 104.912 87.7913 134.77C78.4858 156.127 53.4804 168.181 56.7355 202.499C62.5577 263.899 102.429 289.011 102.429 289.011L279.615 286.057L250.607 118.961Z" fill="#382256"/>
<path d="M140.825 101.544C149.563 101.531 158.202 103.385 166.165 106.983C195.236 120.182 203.496 124.462 213.602 124.462C221.389 124.462 230.271 121.922 250.606 118.961L279.614 286.07L102.429 289.024C102.429 289.024 62.5571 263.913 56.7349 202.512C53.4798 168.204 78.4852 156.14 87.7907 134.783C97.1591 113.281 118.721 101.541 140.825 101.544ZM140.825 100.552C129.631 100.504 118.637 103.511 109.025 109.249C99.2041 115.115 91.463 123.906 86.8846 134.39C83.8279 141.413 79.084 147.36 74.0624 153.656C69.1003 159.878 63.9696 166.312 60.3605 174.073C56.2751 182.869 54.7667 192.204 55.7525 202.611C57.0757 216.713 60.3439 230.068 65.4217 242.308C69.4034 251.974 74.6302 261.078 80.9695 269.391C91.6512 283.324 101.479 289.596 101.893 289.857C102.051 289.957 102.235 290.01 102.422 290.01L279.607 287.056C279.751 287.053 279.891 287.019 280.02 286.957C280.149 286.895 280.263 286.806 280.354 286.695C280.445 286.585 280.511 286.456 280.548 286.318C280.585 286.18 280.591 286.035 280.567 285.894L251.559 118.786C251.519 118.555 251.399 118.347 251.221 118.196C251.042 118.045 250.816 117.962 250.583 117.962C250.535 117.959 250.488 117.959 250.441 117.962C242.118 119.173 235.683 120.321 230.513 121.24C223.037 122.563 218.098 123.453 213.579 123.453C204.7 123.453 197.138 120.003 174.693 109.768L166.552 106.063C158.456 102.418 149.68 100.534 140.802 100.535L140.825 100.552Z" fill="black"/>
<path d="M132.898 289.319C132.898 289.319 172.512 231.332 252.683 230.766C335.198 230.174 326.621 289.917 326.621 289.917L132.898 289.319Z" fill="#07ACEE"/>
<path d="M326.62 290.407L132.898 289.815C132.808 289.815 132.72 289.79 132.642 289.743C132.565 289.697 132.502 289.63 132.46 289.551C132.418 289.471 132.398 289.382 132.403 289.292C132.408 289.202 132.437 289.115 132.488 289.041C132.587 288.895 142.67 274.307 162.432 259.854C173.946 251.416 186.581 244.624 199.972 239.675C216.601 233.555 234.332 230.382 252.679 230.253C281.674 230.038 302.693 237.2 315.201 251.504C330.011 268.471 327.156 289.758 327.126 289.97C327.11 290.093 327.05 290.205 326.957 290.286C326.863 290.366 326.743 290.409 326.62 290.407ZM133.864 288.826L326.18 289.414C326.511 286.348 327.794 267.456 314.43 252.156C302.134 238.08 281.349 231.057 252.685 231.256C211.404 231.55 181.139 247.406 163.037 260.654C145.984 273.109 136.213 285.637 133.864 288.826Z" fill="black"/>
<path d="M235.102 231.821C235.102 231.821 224.145 247.108 238.41 252.096C252.674 257.085 265.393 245.252 265.393 245.252C265.393 245.252 268.056 259.447 290.237 254.419C312.417 249.39 291.523 235.742 291.523 235.742C291.523 235.742 271.649 227.855 235.102 231.821Z" fill="white"/>
<path d="M281.47 256.003C277.116 256.003 273.47 255.051 270.576 253.148C268.015 251.5 266.092 249.029 265.121 246.142C262.385 248.405 250.857 256.973 238.247 252.566C234.413 251.243 231.985 249.023 231.035 246.023C229.001 239.592 234.462 231.861 234.697 231.534C234.738 231.477 234.79 231.43 234.851 231.395C234.911 231.36 234.978 231.339 235.048 231.332C271.297 227.399 291.509 235.206 291.708 235.302C291.739 235.313 291.769 235.328 291.797 235.345C292.211 235.616 301.923 242.037 300.858 247.955C300.289 251.127 296.753 253.473 290.351 254.921C287.44 255.609 284.461 255.972 281.47 256.003ZM265.396 244.756C265.512 244.754 265.625 244.794 265.715 244.868C265.804 244.942 265.865 245.045 265.885 245.159C266.677 248.123 268.553 250.682 271.142 252.328C275.594 255.242 281.982 255.782 290.13 253.936C296.107 252.579 299.392 250.502 299.882 247.76C300.798 242.665 291.989 236.648 291.281 236.181C290.189 235.768 270.364 228.53 235.375 232.285C234.578 233.472 230.251 240.273 231.975 245.722C232.825 248.405 235.044 250.393 238.567 251.623C240.829 252.414 243.208 252.816 245.604 252.811C256.371 252.811 264.949 244.981 265.051 244.872C265.148 244.791 265.27 244.75 265.396 244.756Z" fill="black"/>
<path d="M315.564 140.735C329.829 140.735 341.393 129.17 341.393 114.905C341.393 100.64 329.829 89.0762 315.564 89.0762C301.299 89.0762 289.734 100.64 289.734 114.905C289.734 129.17 301.299 140.735 315.564 140.735Z" fill="#382256"/>
<path d="M315.576 89.0762C322.359 89.0899 328.866 91.7721 333.688 96.5431C338.511 101.314 341.263 107.791 341.35 114.574C341.437 121.358 338.852 127.903 334.153 132.796C329.454 137.689 323.019 140.537 316.237 140.725C316.006 140.725 315.774 140.725 315.543 140.725C308.759 140.711 302.252 138.029 297.429 133.258C292.607 128.487 289.855 122.01 289.768 115.226C289.681 108.443 292.266 101.898 296.965 97.0047C301.664 92.1117 308.1 89.2637 314.881 89.0762C315.113 89.0762 315.344 89.0762 315.576 89.0762ZM315.576 88.0837C315.337 88.0837 315.093 88.0837 314.855 88.0837C307.81 88.2752 301.123 91.2317 296.241 96.314C291.358 101.396 288.673 108.196 288.764 115.243C288.855 122.29 291.716 129.018 296.728 133.972C301.741 138.926 308.502 141.708 315.549 141.717H316.27C323.315 141.526 330.001 138.569 334.883 133.487C339.766 128.405 342.452 121.606 342.361 114.56C342.27 107.513 339.41 100.785 334.398 95.8308C329.386 90.8764 322.626 88.0935 315.579 88.0837H315.576Z" fill="black"/>
<path d="M216.08 156.762C216.08 156.762 206.487 135.002 220.275 123.682C234.062 112.362 237.278 115.412 244.155 108.958C251.033 102.504 269.009 101.257 280.213 111.138C280.213 111.138 302.016 106.645 314.825 117.271C327.634 127.896 329.446 137.241 328.232 150.583C327.018 163.924 328.771 170.927 328.232 180.335C327.693 189.743 322.007 214.203 283.336 215.989C244.665 217.776 216.08 156.762 216.08 156.762Z" fill="#382256"/>
<path d="M259.997 103.923C266.911 103.923 274.467 106.06 280.236 111.141C283.789 110.498 287.393 110.183 291.004 110.198C298.328 110.198 307.908 111.521 314.848 117.274C327.657 127.896 329.47 137.245 328.255 150.586C327.041 163.927 328.795 170.93 328.255 180.339C327.716 189.747 322.03 214.206 283.359 215.993C282.8 216.019 282.241 216.032 281.688 216.032C243.864 216.032 216.083 156.772 216.083 156.772C216.083 156.772 206.49 135.012 220.278 123.692C234.066 112.372 237.281 115.422 244.159 108.968C247.5 105.838 253.461 103.929 259.994 103.929L259.997 103.923ZM259.994 102.937C253.2 102.937 247.027 104.922 243.481 108.23C240.55 110.979 238.323 111.922 235.508 113.113C231.902 114.638 227.41 116.54 219.646 122.911C213.738 127.764 211.101 135.25 212.018 144.565C212.461 148.895 213.524 153.138 215.174 157.166V157.186C220.396 167.733 226.674 177.725 233.91 187.007C240.748 195.684 247.804 202.605 254.9 207.577C263.831 213.842 272.843 217.018 281.678 217.018C282.247 217.018 282.826 217.018 283.395 216.978C300.359 216.194 312.963 211.024 320.859 201.655C327.548 193.716 328.98 184.92 329.238 180.388C329.466 176.356 329.281 172.78 329.086 168.979C328.814 163.729 328.537 158.3 329.231 150.669C329.936 142.908 329.489 137.493 327.733 132.57C325.692 126.858 321.779 121.75 315.47 116.503C308.192 110.466 298.139 109.199 290.991 109.199C287.479 109.192 283.973 109.483 280.511 110.069C275.079 105.458 267.811 102.924 259.984 102.924L259.994 102.937Z" fill="black"/>
<path d="M250.841 213.703L241.291 231.203C241.291 231.203 256.673 253.089 286.128 234.418C286.128 234.418 281.318 223.296 284.011 194.818C284.011 194.818 296.631 198.4 300.253 187.341C303.875 176.283 296.67 170.212 290.412 170.378C290.412 170.378 264.652 173.405 266.481 124.032C266.481 124.032 242.144 121.541 226.97 139.95C211.796 158.36 203.09 184.427 215.24 199.766C227.39 215.106 250.841 213.703 250.841 213.703Z" fill="#FFCDB2"/>
<path d="M263.494 123.92C265.376 123.92 266.471 124.032 266.471 124.032C264.843 168.029 285.102 170.414 289.548 170.414C289.833 170.417 290.118 170.405 290.402 170.378H290.65C296.849 170.378 303.819 176.435 300.243 187.345C298.046 194.057 292.532 195.374 288.539 195.374C287.009 195.379 285.484 195.193 284 194.821C281.308 223.3 286.118 234.422 286.118 234.422C277.308 240.002 269.759 241.961 263.504 241.961C248.839 241.961 241.28 231.206 241.28 231.206L250.831 213.707C250.831 213.707 250.272 213.74 249.279 213.74C243.847 213.74 225.501 212.747 215.23 199.77C203.079 184.431 211.786 158.363 226.96 139.954C238.902 125.465 256.524 123.923 263.484 123.923L263.494 123.92ZM263.484 122.931C256.335 122.931 238.389 124.529 226.192 139.322C218.194 149.031 212.401 160.202 209.884 170.785C207.029 182.773 208.61 193.012 214.452 200.385C224.909 213.588 243.47 214.712 249.14 214.732L240.411 230.73C240.322 230.892 240.28 231.076 240.291 231.261C240.302 231.446 240.364 231.624 240.47 231.775C240.553 231.891 242.498 234.633 246.312 237.399C251.314 241.025 257.336 242.972 263.514 242.963C270.818 242.963 278.605 240.373 286.67 235.268C286.869 235.142 287.017 234.949 287.087 234.723C287.157 234.498 287.144 234.255 287.05 234.038C287.004 233.932 282.505 223.019 284.907 196.042C286.107 196.261 287.325 196.372 288.546 196.373C294.861 196.373 299.353 193.279 301.192 187.662C302.899 182.459 302.439 177.666 299.902 174.166C298.837 172.707 297.447 171.516 295.842 170.688C294.238 169.859 292.462 169.416 290.656 169.392H290.382H290.292C290.292 169.392 290.021 169.422 289.555 169.422C287.457 169.422 282.052 168.866 277.09 163.716C270.004 156.362 266.766 143.024 267.467 124.069C267.477 123.817 267.39 123.57 267.225 123.38C267.059 123.19 266.828 123.069 266.577 123.043C266.531 123.043 265.403 122.927 263.491 122.927L263.484 122.931Z" fill="black"/>
<path d="M286.992 189.753C286.884 189.752 286.78 189.716 286.694 189.65C286.609 189.585 286.547 189.493 286.518 189.389C286.489 189.285 286.495 189.175 286.535 189.075C286.574 188.974 286.646 188.89 286.738 188.833C290.535 186.561 292.487 184.156 292.54 181.678C292.613 178.142 288.736 175.552 288.696 175.528C288.591 175.454 288.518 175.342 288.494 175.216C288.47 175.09 288.495 174.959 288.566 174.851C288.636 174.743 288.746 174.667 288.871 174.639C288.997 174.61 289.128 174.631 289.238 174.698C289.417 174.814 293.615 177.606 293.539 181.691C293.483 184.536 291.365 187.226 287.254 189.684C287.175 189.731 287.084 189.756 286.992 189.753Z" fill="black"/>
<path d="M249.351 154.393C260.201 162.091 278.568 163.798 279.498 169.256C280.427 174.715 275.859 179.531 268.769 178.152C261.68 176.772 255.345 173.808 242.636 167.096C229.926 160.384 217.988 152.872 222.52 146.487C227.052 140.103 233.393 143.07 249.351 154.393Z" fill="#FFB49F"/>
<path d="M251.261 214.378C250.772 214.378 250.269 214.361 249.802 214.325C249.671 214.316 249.548 214.255 249.462 214.155C249.375 214.056 249.332 213.926 249.341 213.794C249.35 213.662 249.411 213.54 249.511 213.453C249.611 213.367 249.74 213.323 249.872 213.333C257.057 213.849 265.562 209.995 265.648 209.958C265.708 209.926 265.773 209.906 265.841 209.9C265.909 209.894 265.977 209.902 266.041 209.924C266.106 209.945 266.165 209.98 266.216 210.025C266.266 210.07 266.307 210.126 266.335 210.187C266.363 210.249 266.379 210.316 266.38 210.384C266.382 210.452 266.37 210.519 266.344 210.582C266.318 210.645 266.28 210.702 266.231 210.749C266.183 210.797 266.125 210.834 266.062 210.858C265.727 211.014 258.301 214.378 251.261 214.378Z" fill="black"/>
<path d="M233.386 141.449C233.274 141.449 233.166 141.411 233.078 141.342C232.991 141.272 232.929 141.175 232.904 141.067C232.878 140.958 232.89 140.844 232.937 140.743C232.984 140.642 233.064 140.56 233.164 140.51C235.946 139.254 239.035 138.84 242.049 139.319C242.114 139.33 242.175 139.353 242.23 139.388C242.286 139.422 242.334 139.467 242.372 139.521C242.409 139.574 242.436 139.634 242.451 139.697C242.465 139.761 242.467 139.827 242.456 139.891C242.433 140.02 242.36 140.135 242.253 140.211C242.146 140.287 242.014 140.318 241.884 140.298C239.079 139.868 236.21 140.249 233.614 141.396C233.543 141.433 233.465 141.451 233.386 141.449Z" fill="black"/>
<path d="M280.424 162.836C280.316 162.835 280.211 162.8 280.125 162.735C280.039 162.67 279.977 162.579 279.947 162.475C279.875 162.224 278.111 156.316 272.736 156.521C272.605 156.523 272.479 156.475 272.383 156.386C272.287 156.297 272.23 156.175 272.223 156.044C272.22 155.979 272.23 155.914 272.252 155.852C272.275 155.791 272.309 155.735 272.353 155.687C272.398 155.638 272.451 155.6 272.51 155.573C272.57 155.545 272.634 155.53 272.699 155.528C278.872 155.287 280.88 162.124 280.9 162.194C280.937 162.319 280.923 162.454 280.861 162.568C280.799 162.683 280.694 162.768 280.569 162.806C280.523 162.823 280.474 162.833 280.424 162.836Z" fill="black"/>
<path d="M291.93 169.911C288.363 169.911 284.652 169.369 281.397 167.788C281.278 167.73 281.188 167.628 281.144 167.504C281.101 167.379 281.11 167.243 281.167 167.124C281.225 167.006 281.327 166.915 281.451 166.872C281.575 166.829 281.712 166.837 281.83 166.894C291.652 171.668 306.442 166.402 306.588 166.345C306.65 166.318 306.717 166.304 306.786 166.303C306.854 166.303 306.921 166.317 306.984 166.344C307.047 166.371 307.103 166.411 307.149 166.461C307.196 166.511 307.232 166.57 307.255 166.634C307.278 166.698 307.287 166.766 307.282 166.834C307.277 166.903 307.258 166.969 307.227 167.029C307.195 167.09 307.152 167.143 307.099 167.186C307.046 167.229 306.984 167.26 306.918 167.278C306.505 167.434 299.548 169.911 291.93 169.911Z" fill="black"/>
<path d="M236.399 173.769C236.302 173.769 236.208 173.74 236.127 173.688C236.046 173.635 235.983 173.559 235.944 173.471C235.905 173.382 235.893 173.285 235.909 173.189C235.925 173.094 235.969 173.006 236.035 172.935L250.637 157.142C250.677 157.084 250.729 157.035 250.789 156.999C250.85 156.962 250.918 156.939 250.988 156.931C251.058 156.923 251.13 156.93 251.197 156.952C251.264 156.974 251.326 157.009 251.379 157.057C251.431 157.105 251.472 157.163 251.5 157.228C251.528 157.293 251.542 157.363 251.541 157.434C251.539 157.505 251.523 157.574 251.493 157.638C251.462 157.702 251.418 157.758 251.364 157.804L236.762 173.597C236.717 173.649 236.662 173.692 236.599 173.721C236.536 173.751 236.468 173.767 236.399 173.769Z" fill="black"/>
<path d="M235 155.918C236.526 155.918 237.763 154.682 237.763 153.156C237.763 151.631 236.526 150.394 235 150.394C233.475 150.394 232.238 151.631 232.238 153.156C232.238 154.682 233.475 155.918 235 155.918Z" fill="black"/>
<path d="M262.094 171.115C263.62 171.115 264.856 169.879 264.856 168.353C264.856 166.828 263.62 165.591 262.094 165.591C260.569 165.591 259.332 166.828 259.332 168.353C259.332 169.879 260.569 171.115 262.094 171.115Z" fill="black"/>
<path d="M120.324 289.169C120.324 272.689 126.219 270.919 103.146 257.743C80.0722 244.567 63.5918 211.599 89.9602 218.189C89.9602 218.189 96.5528 205.006 109.739 218.189C109.739 218.189 113.047 201.708 126.219 211.599C139.392 221.49 149.293 244.561 149.293 244.561C149.293 244.561 172.367 228.08 185.549 228.08C198.732 228.08 198.735 237.968 185.549 244.561C172.363 251.153 167.901 275.987 171.195 289.179L120.324 289.169Z" fill="#FFCDB2"/>
<path d="M118.592 208.43C120.66 208.43 123.177 209.307 126.221 211.589C139.403 221.477 149.294 244.551 149.294 244.551C149.294 244.551 172.368 228.07 185.551 228.07C198.733 228.07 198.736 237.958 185.551 244.551C172.365 251.144 167.902 275.977 171.197 289.17H120.326C120.326 272.689 126.221 270.919 103.147 257.743C82.1345 245.738 66.5932 217.329 83.8943 217.329C85.9439 217.369 87.9813 217.658 89.9615 218.189C89.9615 218.189 92.8922 212.33 98.7507 212.33C101.682 212.33 105.344 213.796 109.74 218.189C109.74 218.189 111.689 208.44 118.592 208.44V208.43ZM118.592 207.448C112.774 207.448 110.163 213.336 109.214 216.32C105.575 213.012 102.059 211.338 98.7507 211.338C93.5571 211.338 90.5071 215.387 89.4882 217.051C87.6611 216.608 85.7908 216.368 83.9111 216.336C78.3039 216.336 76.3852 219.122 75.7666 221.461C74.5989 225.86 76.9905 232.642 82.333 240.068C87.6754 247.495 95.1121 254.293 102.671 258.593C120.763 268.931 120.534 271.736 119.76 281.032C119.568 283.347 119.35 285.961 119.35 289.166C119.35 289.429 119.454 289.682 119.64 289.868C119.827 290.054 120.079 290.159 120.342 290.159H171.213C171.364 290.158 171.512 290.124 171.648 290.058C171.783 289.992 171.902 289.896 171.994 289.778C172.087 289.659 172.152 289.521 172.183 289.374C172.214 289.227 172.212 289.074 172.176 288.928C170.522 282.312 170.902 273.006 173.168 264.644C175.752 255.107 180.314 248.282 186.01 245.434C193.255 241.812 197.294 236.754 196.302 232.533C195.481 229.056 191.568 227.064 185.567 227.064C173.632 227.064 154.355 239.843 149.724 243.036C148.798 241.011 146.625 236.449 143.571 231.262C138.037 221.851 132.407 214.96 126.833 210.782C123.856 208.553 121.093 207.425 118.609 207.425L118.592 207.448Z" fill="black"/>
<path d="M149.291 257.733C149.291 257.733 146.5 244.954 121.359 246.138C109.75 240.416 99.1846 230.998 89.6641 217.885" fill="#FFCDB2"/>
<path d="M149.293 258.233C149.18 258.232 149.07 258.194 148.982 258.123C148.893 258.052 148.832 257.953 148.807 257.842C148.807 257.779 148.053 254.713 144.378 251.828C140.937 249.126 134.159 246.033 121.383 246.635C121.3 246.638 121.217 246.619 121.142 246.582C109.488 240.839 98.7631 231.282 89.2624 218.176C89.1852 218.069 89.1534 217.936 89.1742 217.806C89.195 217.676 89.2666 217.56 89.3732 217.483C89.4798 217.405 89.6128 217.374 89.7428 217.394C89.8727 217.415 89.9889 217.487 90.0661 217.593C99.4378 230.524 110 239.959 121.466 245.636C134.523 245.043 141.503 248.282 145.062 251.104C148.996 254.227 149.746 257.492 149.776 257.631C149.79 257.694 149.792 257.76 149.78 257.824C149.769 257.888 149.745 257.949 149.71 258.003C149.675 258.058 149.63 258.105 149.576 258.142C149.523 258.18 149.463 258.206 149.399 258.219C149.364 258.227 149.329 258.231 149.293 258.233Z" fill="black"/>
<path d="M109.969 217.299C109.969 217.299 123.436 235.804 133.492 243.197L109.969 217.299Z" fill="#FFCDB2"/>
<path d="M133.491 243.677C133.385 243.676 133.282 243.643 133.196 243.581C123.193 236.224 109.709 217.759 109.567 217.574C109.526 217.521 109.496 217.461 109.478 217.397C109.461 217.332 109.457 217.265 109.466 217.199C109.475 217.133 109.497 217.07 109.531 217.013C109.565 216.956 109.61 216.906 109.664 216.866C109.718 216.827 109.779 216.799 109.844 216.784C109.909 216.769 109.976 216.767 110.042 216.778C110.107 216.789 110.17 216.814 110.226 216.85C110.282 216.886 110.33 216.933 110.368 216.988C110.503 217.173 123.907 235.513 133.785 242.791C133.87 242.853 133.932 242.94 133.964 243.039C133.996 243.139 133.996 243.246 133.963 243.346C133.93 243.445 133.867 243.532 133.782 243.593C133.697 243.655 133.595 243.687 133.491 243.687V243.677Z" fill="black"/>
<path d="M215.525 250.72C217.5 250.72 219.101 249.119 219.101 247.144C219.101 245.169 217.5 243.568 215.525 243.568C213.55 243.568 211.949 245.169 211.949 247.144C211.949 249.119 213.55 250.72 215.525 250.72Z" fill="#51CEF4"/>
<path d="M190.384 270.535C192.359 270.535 193.961 268.934 193.961 266.959C193.961 264.984 192.359 263.383 190.384 263.383C188.409 263.383 186.809 264.984 186.809 266.959C186.809 268.934 188.409 270.535 190.384 270.535Z" fill="#51CEF4"/>
<path d="M227.646 287.099C229.621 287.099 231.222 285.498 231.222 283.523C231.222 281.548 229.621 279.947 227.646 279.947C225.672 279.947 224.07 281.548 224.07 283.523C224.07 285.498 225.672 287.099 227.646 287.099Z" fill="#51CEF4"/>
<path d="M264.322 268.17C266.297 268.17 267.898 266.569 267.898 264.594C267.898 262.619 266.297 261.018 264.322 261.018C262.347 261.018 260.746 262.619 260.746 264.594C260.746 266.569 262.347 268.17 264.322 268.17Z" fill="#51CEF4"/>
<path d="M300.404 270.535C302.379 270.535 303.98 268.934 303.98 266.959C303.98 264.984 302.379 263.383 300.404 263.383C298.429 263.383 296.828 264.984 296.828 266.959C296.828 268.934 298.429 270.535 300.404 270.535Z" fill="#51CEF4"/>
<path d="M290.052 287.099C292.027 287.099 293.629 285.498 293.629 283.523C293.629 281.548 292.027 279.947 290.052 279.947C288.077 279.947 286.477 281.548 286.477 283.523C286.477 285.498 288.077 287.099 290.052 287.099Z" fill="#51CEF4"/>
<path d="M287.746 200.584L286.539 199.406C286.327 199.201 286.056 199.067 285.764 199.025L284.11 198.777C283.892 198.744 283.684 198.66 283.504 198.532C283.324 198.404 283.177 198.235 283.074 198.039C282.972 197.843 282.917 197.625 282.914 197.404C282.911 197.183 282.961 196.964 283.059 196.766L283.803 195.254C283.933 194.99 283.977 194.691 283.929 194.401L283.647 192.747C283.611 192.529 283.626 192.305 283.692 192.094C283.758 191.882 283.874 191.69 284.028 191.532C284.183 191.374 284.373 191.255 284.583 191.184C284.793 191.113 285.016 191.094 285.235 191.126L286.889 191.364C287.182 191.407 287.48 191.358 287.743 191.222L289.235 190.441C289.43 190.339 289.646 190.284 289.867 190.281C290.087 190.278 290.305 190.327 290.503 190.423C290.701 190.52 290.873 190.662 291.006 190.837C291.139 191.013 291.23 191.217 291.269 191.434L291.557 193.088C291.607 193.378 291.747 193.645 291.957 193.852L293.161 195.033C293.319 195.187 293.438 195.377 293.508 195.587C293.579 195.796 293.599 196.02 293.566 196.238C293.534 196.457 293.451 196.665 293.323 196.845C293.195 197.025 293.026 197.173 292.831 197.276L291.339 198.063C291.079 198.2 290.868 198.415 290.737 198.678L289.986 200.19C289.888 200.389 289.745 200.562 289.568 200.696C289.391 200.829 289.185 200.919 288.966 200.957C288.748 200.995 288.523 200.981 288.311 200.917C288.099 200.852 287.906 200.738 287.746 200.584Z" fill="#07ACEE"/>
<path d="M288.718 201.477C288.223 201.479 287.748 201.285 287.395 200.938L286.187 199.763C286.05 199.629 285.874 199.543 285.685 199.515L284.031 199.267C283.735 199.223 283.454 199.109 283.21 198.936C282.966 198.762 282.767 198.534 282.628 198.269C282.489 198.004 282.414 197.71 282.41 197.411C282.406 197.112 282.473 196.816 282.605 196.548L283.352 195.036C283.436 194.865 283.464 194.671 283.432 194.484L283.154 192.83C283.104 192.535 283.125 192.232 283.214 191.946C283.303 191.661 283.458 191.4 283.667 191.186C283.876 190.972 284.133 190.81 284.416 190.714C284.699 190.618 285.002 190.59 285.298 190.633L286.968 190.875C287.156 190.901 287.348 190.868 287.517 190.782L289.013 190.001C289.278 189.863 289.572 189.789 289.872 189.786C290.171 189.783 290.467 189.851 290.735 189.984C291.003 190.117 291.236 190.311 291.415 190.551C291.594 190.791 291.714 191.069 291.765 191.364L292.053 193.018C292.084 193.207 292.174 193.38 292.311 193.514L293.515 194.695C293.729 194.905 293.889 195.162 293.985 195.445C294.08 195.729 294.107 196.031 294.064 196.327C294.02 196.623 293.908 196.905 293.735 197.149C293.562 197.393 293.333 197.593 293.068 197.732L291.576 198.519C291.408 198.607 291.271 198.746 291.186 198.916L290.432 200.428C290.3 200.697 290.106 200.931 289.865 201.11C289.625 201.289 289.345 201.408 289.049 201.457C288.94 201.474 288.829 201.48 288.718 201.477ZM285.016 191.596C284.896 191.595 284.776 191.62 284.666 191.667C284.555 191.714 284.455 191.783 284.371 191.87C284.271 191.972 284.196 192.096 284.153 192.232C284.11 192.369 284.099 192.513 284.123 192.654L284.405 194.308C284.47 194.701 284.411 195.105 284.236 195.463L283.488 196.975C283.425 197.103 283.394 197.245 283.396 197.388C283.398 197.531 283.434 197.672 283.5 197.798C283.567 197.925 283.663 198.034 283.779 198.117C283.896 198.2 284.031 198.254 284.173 198.275L285.827 198.523C286.222 198.581 286.588 198.763 286.872 199.042L288.08 200.216C288.182 200.316 288.306 200.391 288.443 200.433C288.579 200.476 288.724 200.486 288.865 200.462C289.006 200.438 289.139 200.381 289.254 200.296C289.369 200.211 289.462 200.1 289.525 199.972L290.28 198.463C290.456 198.105 290.741 197.813 291.093 197.626L292.585 196.842C292.711 196.777 292.819 196.683 292.902 196.568C292.985 196.453 293.039 196.32 293.062 196.181C293.083 196.039 293.071 195.894 293.025 195.758C292.979 195.622 292.901 195.499 292.797 195.4L291.596 194.219C291.31 193.94 291.12 193.577 291.054 193.184L290.766 191.529C290.744 191.386 290.689 191.25 290.604 191.132C290.518 191.014 290.406 190.919 290.276 190.854C290.146 190.789 290.003 190.757 289.858 190.759C289.713 190.761 289.57 190.799 289.442 190.868L287.947 191.649C287.594 191.833 287.191 191.901 286.796 191.844L285.142 191.602C285.1 191.597 285.058 191.595 285.016 191.596Z" fill="black"/>
<path d="M257.634 200.061C255.93 200.061 253.426 197.365 252.903 196.783C252.855 196.735 252.818 196.678 252.793 196.615C252.768 196.553 252.756 196.486 252.758 196.418C252.76 196.351 252.775 196.284 252.803 196.223C252.832 196.162 252.872 196.107 252.923 196.062C252.973 196.017 253.031 195.983 253.095 195.961C253.159 195.94 253.227 195.932 253.294 195.937C253.362 195.943 253.427 195.962 253.487 195.993C253.546 196.025 253.598 196.068 253.641 196.121C255.07 197.716 257.045 199.29 257.75 199.055C258.004 198.966 258.08 198.473 258.1 198.185C258.315 195.403 252.705 193.779 250.521 193.389C250.392 193.365 250.277 193.292 250.202 193.184C250.127 193.076 250.098 192.942 250.121 192.813C250.146 192.684 250.22 192.571 250.327 192.496C250.435 192.421 250.568 192.391 250.697 192.413C251.054 192.476 259.417 194.02 259.089 198.265C259.016 199.207 258.672 199.79 258.067 199.995C257.927 200.041 257.781 200.063 257.634 200.061Z" fill="black"/>
<path d="M334.309 91.0644C334.24 91.0645 334.172 91.0501 334.109 91.0222C334.046 90.9943 333.989 90.9534 333.942 90.9023C326.85 83.0887 317.862 80.7103 307.23 83.8265C302.181 85.3741 297.438 87.7862 293.214 90.9553C293.163 90.9961 293.105 91.0265 293.042 91.0448C292.979 91.0631 292.914 91.0689 292.849 91.0618C292.784 91.0548 292.722 91.035 292.664 91.0037C292.607 90.9724 292.557 90.9301 292.516 90.8792C292.475 90.8284 292.445 90.77 292.426 90.7074C292.408 90.6449 292.402 90.5792 292.409 90.5144C292.416 90.4496 292.436 90.3868 292.467 90.3296C292.499 90.2725 292.541 90.222 292.592 90.1812C296.91 86.9374 301.759 84.4681 306.922 82.8837C314.531 80.6507 325.49 80.1148 334.677 90.2341C334.742 90.3052 334.784 90.3936 334.8 90.4886C334.815 90.5835 334.803 90.6809 334.764 90.7689C334.725 90.8569 334.661 90.9317 334.58 90.9841C334.5 91.0366 334.406 91.0645 334.309 91.0644Z" fill="black"/>
<path d="M103.024 253.506C102.799 253.506 102.579 253.441 102.392 253.317C79.9931 238.685 78.5541 224.931 78.5045 224.352C78.491 224.2 78.5079 224.047 78.5536 223.901C78.5994 223.755 78.6734 223.62 78.7713 223.503C78.8693 223.386 78.9894 223.289 79.1248 223.219C79.2601 223.148 79.4079 223.105 79.5599 223.091C79.712 223.078 79.8653 223.095 80.0109 223.14C80.1565 223.186 80.2915 223.26 80.4086 223.358C80.5256 223.456 80.6222 223.576 80.6928 223.711C80.7635 223.847 80.8067 223.995 80.8201 224.147C80.8367 224.299 82.3387 237.445 103.666 251.378C103.874 251.515 104.033 251.715 104.119 251.949C104.205 252.183 104.213 252.438 104.142 252.677C104.071 252.916 103.925 253.126 103.725 253.275C103.526 253.424 103.283 253.505 103.034 253.506H103.024Z" fill="white"/>
<path d="M270.585 124.674C270.585 124.674 267.938 152.131 283.486 161.724" stroke="white" stroke-linecap="round" stroke-linejoin="round"/>
<path d="M317.891 90.9321L320.537 91.5937C320.537 91.5937 337.408 94.571 340.054 114.419" stroke="white" stroke-linecap="round" stroke-linejoin="round"/>
<path d="M304.988 247.733C304.988 247.733 316.236 255.011 319.544 267.25" stroke="white" stroke-width="6" stroke-linecap="round" stroke-linejoin="round"/>
<path d="M320.867 271.551C320.867 271.551 322.852 277.836 322.521 284.121" stroke="white" stroke-width="6" stroke-linecap="round" stroke-linejoin="round"/>
<path d="M59.7539 165.893C64.7918 177.114 71.2185 186.732 79.3371 194.405C92.2211 206.575 112.061 207.758 126.389 197.285C141.268 186.409 152.239 171.439 159.827 152.956C140.716 144.704 127.787 139.344 117.392 118.78C104.216 145.906 87.0696 175.169 59.7539 165.893Z" fill="white"/>
<path d="M104.569 205.304C94.9611 205.317 85.714 201.646 78.7308 195.047C70.8293 187.582 64.1738 177.895 58.9494 166.254C58.8785 166.097 58.855 165.923 58.8819 165.753C58.9088 165.583 58.9848 165.424 59.1007 165.297C59.2165 165.169 59.3671 165.078 59.5339 165.035C59.7007 164.992 59.8765 164.999 60.0395 165.055C85.6122 173.739 102.335 147.759 116.597 118.393C116.669 118.245 116.781 118.12 116.92 118.032C117.06 117.944 117.221 117.896 117.386 117.895C117.549 117.895 117.71 117.941 117.849 118.026C117.988 118.112 118.101 118.234 118.176 118.38C128.283 138.38 140.662 143.723 159.398 151.811L160.172 152.145C160.385 152.237 160.553 152.409 160.64 152.623C160.727 152.838 160.727 153.079 160.638 153.293C152.836 172.299 141.487 187.34 126.905 197.998C120.425 202.746 112.601 205.305 104.569 205.304ZM61.386 167.319C66.3846 177.949 72.6218 186.836 79.9462 193.755C92.5256 205.639 111.838 206.821 125.869 196.564C139.977 186.251 151.011 171.738 158.677 153.417C140.762 145.684 127.689 140.033 117.416 120.74C103.315 149.465 86.7037 174.446 61.386 167.319Z" fill="#1D1D1B"/>
<path d="M119.419 201.299C119.419 201.299 104.381 201.387 99.7698 191.018C99.7698 191.018 89.78 203.154 81.2344 196.075C81.2344 196.075 97.3302 211.021 119.419 201.299Z" fill="#4BD657"/>
<path d="M104.484 205.443C90.2379 205.443 80.7567 196.844 80.6328 196.722L81.7987 195.393C83.6349 196.916 85.694 197.579 87.9193 197.369C93.7718 196.815 99.0298 190.52 99.0808 190.456L99.9902 189.354L100.573 190.666C104.9 200.393 119.278 200.421 119.409 200.421L123.676 200.396L119.77 202.114C114.278 204.527 109.124 205.443 104.484 205.443ZM87.3495 199.176C93.2006 202.382 103.281 205.889 115.475 201.868C110.793 201.196 103.18 199.099 99.5515 192.576C97.7007 194.519 93.2151 198.643 88.0913 199.134C87.8479 199.153 87.5958 199.169 87.3495 199.175V199.176Z" fill="black"/>
<path d="M120.783 188.526C120.783 188.526 104.194 185.32 99.2148 170.505L120.783 188.526Z" fill="white"/>
<path d="M120.782 189.411C120.725 189.411 120.669 189.405 120.613 189.395C119.915 189.259 103.461 185.924 98.3704 170.788C98.2956 170.566 98.3122 170.323 98.4166 170.112C98.521 169.902 98.7046 169.742 98.9271 169.667C99.1495 169.593 99.3925 169.609 99.6027 169.714C99.8129 169.818 99.9729 170.002 100.048 170.224C104.812 184.392 120.788 187.627 120.948 187.658C121.16 187.704 121.347 187.826 121.475 188C121.602 188.175 121.662 188.39 121.641 188.606C121.621 188.821 121.522 189.022 121.364 189.169C121.205 189.317 120.999 189.401 120.782 189.406V189.411Z" fill="#1D1D1B"/>
<path d="M133.033 173.887C133.033 173.887 115.771 172.956 113.008 157.313L133.033 173.887Z" fill="white"/>
<path d="M133.032 174.771H132.984C132.805 174.76 114.986 173.615 112.135 157.468C112.094 157.236 112.147 156.998 112.282 156.805C112.417 156.612 112.623 156.481 112.855 156.44C113.087 156.399 113.326 156.452 113.518 156.587C113.711 156.723 113.842 156.929 113.883 157.161C116.489 171.913 132.411 172.966 133.088 173.004C133.204 173.007 133.318 173.033 133.424 173.081C133.53 173.128 133.625 173.196 133.705 173.28C133.785 173.364 133.847 173.463 133.889 173.572C133.93 173.68 133.95 173.796 133.947 173.912C133.944 174.028 133.918 174.142 133.87 174.248C133.823 174.354 133.755 174.449 133.671 174.529C133.587 174.609 133.488 174.671 133.379 174.713C133.271 174.754 133.155 174.774 133.039 174.771H133.032Z" fill="#1D1D1B"/>
<path d="M83.3608 151.726C83.1663 151.725 82.9776 151.66 82.8238 151.541C82.67 151.422 82.5597 151.256 82.5099 151.068C82.4602 150.88 82.4737 150.681 82.5485 150.502C82.6232 150.322 82.7551 150.172 82.9236 150.075C100.81 139.792 105.158 118.848 105.2 118.638C105.246 118.408 105.381 118.206 105.576 118.075C105.771 117.945 106.01 117.897 106.24 117.942C106.47 117.988 106.672 118.123 106.803 118.318C106.933 118.513 106.981 118.752 106.936 118.982C106.892 119.199 102.405 140.916 83.8053 151.61C83.6699 151.687 83.5166 151.727 83.3608 151.726Z" fill="#1D1D1B"/>
<path d="M185.113 216.197L183.433 216.085C183.138 216.068 182.846 216.142 182.596 216.297L181.167 217.19C180.979 217.307 180.766 217.378 180.545 217.398C180.325 217.417 180.103 217.384 179.898 217.302C179.692 217.219 179.509 217.089 179.364 216.923C179.218 216.756 179.114 216.558 179.059 216.343L178.646 214.709C178.575 214.422 178.413 214.166 178.186 213.978L176.896 212.893C176.727 212.751 176.593 212.57 176.506 212.367C176.42 212.164 176.383 211.942 176.398 211.722C176.413 211.501 176.48 211.287 176.594 211.097C176.707 210.908 176.864 210.748 177.051 210.63L178.477 209.73C178.726 209.573 178.92 209.342 179.03 209.069L179.661 207.507C179.744 207.302 179.874 207.119 180.041 206.973C180.208 206.827 180.407 206.723 180.622 206.669C180.836 206.615 181.061 206.612 181.277 206.661C181.493 206.71 181.694 206.81 181.864 206.951L183.158 208.033C183.384 208.225 183.664 208.34 183.959 208.364L185.642 208.483C185.863 208.498 186.077 208.566 186.266 208.68C186.456 208.793 186.616 208.95 186.734 209.138C186.851 209.325 186.922 209.538 186.942 209.758C186.962 209.978 186.929 210.2 186.847 210.405L186.221 211.97C186.113 212.243 186.092 212.544 186.162 212.83L186.568 214.467C186.62 214.681 186.621 214.904 186.571 215.119C186.521 215.333 186.42 215.532 186.279 215.701C186.137 215.869 185.958 216.002 185.755 216.088C185.553 216.175 185.333 216.212 185.113 216.197Z" fill="white"/>
<path d="M180.426 217.901C180.181 217.901 179.938 217.853 179.711 217.762C179.432 217.652 179.184 217.477 178.987 217.251C178.79 217.026 178.651 216.756 178.58 216.465L178.163 214.831C178.118 214.646 178.015 214.48 177.868 214.358L176.578 213.273C176.349 213.081 176.168 212.837 176.05 212.562C175.933 212.286 175.882 211.987 175.903 211.688C175.923 211.39 176.014 211.1 176.167 210.843C176.321 210.586 176.533 210.369 176.787 210.21L178.212 209.31C178.373 209.209 178.499 209.06 178.57 208.883L179.201 207.319C179.314 207.042 179.49 206.795 179.716 206.599C179.942 206.403 180.21 206.262 180.5 206.19C180.79 206.117 181.094 206.113 181.385 206.18C181.677 206.246 181.949 206.38 182.179 206.571L183.472 207.649C183.619 207.772 183.801 207.844 183.992 207.858L185.672 207.977C185.971 207.998 186.261 208.089 186.518 208.243C186.775 208.397 186.991 208.609 187.151 208.863C187.31 209.117 187.407 209.405 187.434 209.703C187.461 210.002 187.417 210.302 187.306 210.58L186.678 212.145C186.608 212.322 186.595 212.516 186.641 212.701L187.048 214.335C187.121 214.627 187.124 214.932 187.056 215.225C186.988 215.518 186.852 215.791 186.658 216.021C186.464 216.251 186.219 216.432 185.942 216.549C185.664 216.666 185.363 216.716 185.063 216.694L183.383 216.581C183.192 216.568 183.002 216.615 182.84 216.717L181.411 217.61C181.116 217.796 180.775 217.897 180.426 217.901ZM180.968 207.123C180.892 207.124 180.817 207.133 180.743 207.15C180.604 207.185 180.475 207.253 180.367 207.347C180.259 207.441 180.175 207.559 180.121 207.692L179.489 209.254C179.341 209.624 179.08 209.938 178.742 210.15L177.316 211.05C177.194 211.126 177.093 211.229 177.019 211.352C176.945 211.474 176.902 211.613 176.892 211.756C176.882 211.898 176.907 212.042 176.963 212.173C177.02 212.305 177.106 212.421 177.217 212.512L178.507 213.597C178.813 213.854 179.029 214.202 179.125 214.59L179.539 216.224C179.574 216.363 179.641 216.491 179.735 216.598C179.83 216.706 179.949 216.79 180.081 216.842C180.214 216.898 180.357 216.92 180.5 216.908C180.643 216.896 180.781 216.85 180.902 216.773L182.331 215.88C182.67 215.669 183.067 215.57 183.465 215.595L185.146 215.704C185.29 215.715 185.434 215.69 185.566 215.633C185.698 215.575 185.814 215.486 185.903 215.374C185.996 215.264 186.06 215.134 186.092 214.994C186.125 214.854 186.124 214.709 186.089 214.57L185.682 212.936C185.584 212.548 185.611 212.139 185.761 211.768L186.386 210.203C186.441 210.071 186.462 209.927 186.449 209.784C186.437 209.641 186.39 209.504 186.314 209.383C186.237 209.262 186.133 209.16 186.01 209.087C185.887 209.013 185.749 208.969 185.606 208.959L183.925 208.84C183.527 208.813 183.148 208.662 182.84 208.407L181.547 207.329C181.384 207.194 181.179 207.122 180.968 207.123Z" fill="black"/>
<path d="M195.039 144.757L193.832 143.583C193.621 143.376 193.35 143.241 193.057 143.199L191.403 142.951C191.185 142.918 190.977 142.834 190.797 142.706C190.617 142.577 190.47 142.408 190.367 142.212C190.265 142.016 190.21 141.799 190.207 141.578C190.204 141.357 190.254 141.138 190.352 140.94L191.096 139.428C191.226 139.164 191.27 138.865 191.222 138.574L190.94 136.92C190.904 136.702 190.92 136.479 190.987 136.268C191.053 136.057 191.169 135.865 191.323 135.707C191.478 135.549 191.668 135.43 191.877 135.359C192.086 135.288 192.309 135.268 192.528 135.3L194.182 135.541C194.474 135.581 194.771 135.53 195.033 135.395L196.528 134.615C196.724 134.513 196.942 134.458 197.163 134.456C197.384 134.454 197.603 134.504 197.801 134.602C197.999 134.701 198.172 134.844 198.304 135.022C198.436 135.199 198.525 135.406 198.562 135.624L198.85 137.278C198.899 137.569 199.039 137.836 199.25 138.042L200.451 139.223C200.609 139.378 200.728 139.568 200.798 139.778C200.868 139.988 200.888 140.211 200.856 140.43C200.824 140.649 200.74 140.857 200.612 141.037C200.484 141.218 200.316 141.366 200.12 141.469L198.628 142.253C198.367 142.39 198.157 142.607 198.026 142.872L197.275 144.38C197.176 144.577 197.032 144.749 196.854 144.88C196.677 145.011 196.47 145.099 196.253 145.135C196.035 145.172 195.812 145.157 195.601 145.091C195.39 145.026 195.197 144.911 195.039 144.757Z" fill="white"/>
<path d="M196.011 145.654C195.516 145.655 195.041 145.462 194.688 145.114L193.477 143.937C193.341 143.804 193.166 143.717 192.978 143.689L191.324 143.441C191.028 143.396 190.747 143.283 190.503 143.109C190.259 142.936 190.06 142.708 189.921 142.443C189.782 142.178 189.707 141.884 189.703 141.585C189.699 141.286 189.766 140.99 189.898 140.721L190.642 139.21C190.728 139.039 190.757 138.845 190.725 138.657L190.444 137.003C190.394 136.708 190.415 136.405 190.505 136.12C190.594 135.834 190.75 135.574 190.959 135.36C191.169 135.146 191.425 134.984 191.709 134.888C191.992 134.792 192.294 134.764 192.591 134.807L194.261 135.048C194.449 135.076 194.642 135.043 194.81 134.955L196.305 134.175C196.571 134.037 196.865 133.964 197.164 133.962C197.463 133.959 197.759 134.027 198.027 134.16C198.295 134.292 198.528 134.486 198.707 134.726C198.886 134.965 199.006 135.243 199.058 135.538L199.346 137.192C199.375 137.381 199.465 137.555 199.604 137.688L200.804 138.869C201.019 139.078 201.181 139.335 201.277 139.618C201.373 139.902 201.401 140.204 201.357 140.5C201.314 140.797 201.201 141.078 201.028 141.323C200.855 141.567 200.626 141.767 200.361 141.906L198.869 142.693C198.7 142.782 198.564 142.922 198.479 143.093L197.728 144.602C197.596 144.87 197.401 145.103 197.161 145.282C196.92 145.46 196.641 145.579 196.345 145.627C196.235 145.646 196.123 145.655 196.011 145.654ZM192.309 135.769C192.189 135.769 192.069 135.793 191.959 135.84C191.848 135.887 191.748 135.957 191.664 136.044C191.563 136.146 191.489 136.271 191.446 136.408C191.402 136.544 191.392 136.69 191.416 136.831L191.697 138.485C191.763 138.878 191.704 139.282 191.529 139.64L190.781 141.151C190.716 141.279 190.682 141.42 190.682 141.563C190.682 141.706 190.716 141.848 190.781 141.975C190.847 142.101 190.941 142.209 191.056 142.293C191.17 142.376 191.303 142.431 191.443 142.455L193.097 142.703C193.492 142.76 193.859 142.94 194.145 143.219L195.353 144.393C195.455 144.493 195.579 144.568 195.715 144.611C195.851 144.654 195.996 144.665 196.137 144.641C196.278 144.618 196.412 144.561 196.527 144.475C196.643 144.389 196.735 144.277 196.798 144.148L197.549 142.64C197.728 142.283 198.014 141.99 198.367 141.803L199.858 141.019C199.985 140.953 200.094 140.857 200.177 140.74C200.26 140.623 200.314 140.489 200.335 140.347C200.355 140.205 200.342 140.061 200.296 139.925C200.25 139.789 200.173 139.667 200.07 139.567L198.869 138.386C198.583 138.107 198.394 137.744 198.327 137.35L198.039 135.696C198.016 135.554 197.96 135.418 197.874 135.302C197.789 135.185 197.677 135.09 197.547 135.026C197.418 134.961 197.275 134.928 197.13 134.93C196.986 134.931 196.844 134.967 196.716 135.035L195.22 135.815C194.867 136 194.464 136.068 194.069 136.011L192.415 135.769C192.38 135.767 192.345 135.767 192.309 135.769Z" fill="black"/>
<path d="M138.948 122.08L137.347 122.613C137.067 122.705 136.824 122.883 136.652 123.122L135.66 124.485C135.529 124.664 135.358 124.809 135.161 124.909C134.964 125.009 134.746 125.061 134.525 125.061C134.304 125.061 134.086 125.009 133.889 124.909C133.691 124.809 133.521 124.664 133.39 124.485L132.398 123.126C132.224 122.889 131.98 122.713 131.7 122.623L130.095 122.104C129.885 122.036 129.693 121.919 129.536 121.763C129.379 121.607 129.261 121.416 129.192 121.206C129.122 120.996 129.104 120.772 129.137 120.553C129.171 120.334 129.255 120.127 129.384 119.947L130.377 118.577C130.547 118.337 130.638 118.051 130.638 117.757V116.073C130.638 115.852 130.69 115.634 130.79 115.436C130.89 115.239 131.036 115.068 131.214 114.938C131.393 114.807 131.6 114.721 131.818 114.685C132.036 114.65 132.26 114.666 132.471 114.733L134.078 115.246C134.358 115.335 134.659 115.335 134.939 115.246L136.543 114.723C136.753 114.655 136.976 114.636 137.194 114.67C137.412 114.704 137.619 114.789 137.799 114.918C137.978 115.047 138.124 115.216 138.226 115.412C138.327 115.608 138.38 115.826 138.382 116.046V117.73C138.384 118.026 138.479 118.313 138.653 118.551L139.646 119.914C139.777 120.093 139.864 120.301 139.899 120.52C139.935 120.739 139.918 120.964 139.85 121.175C139.781 121.386 139.664 121.579 139.507 121.736C139.351 121.893 139.159 122.011 138.948 122.08Z" fill="white"/>
<path d="M134.526 125.564C134.227 125.565 133.933 125.496 133.666 125.361C133.4 125.227 133.169 125.031 132.994 124.79L132.001 123.43C131.89 123.274 131.731 123.158 131.548 123.099L129.947 122.583C129.662 122.491 129.403 122.333 129.19 122.122C128.978 121.911 128.818 121.653 128.725 121.369C128.631 121.085 128.606 120.782 128.651 120.486C128.696 120.19 128.81 119.909 128.985 119.666L129.977 118.296C130.088 118.141 130.147 117.954 130.146 117.763V116.073C130.146 115.774 130.217 115.479 130.353 115.212C130.489 114.946 130.685 114.715 130.927 114.538C131.168 114.362 131.448 114.244 131.744 114.196C132.039 114.148 132.342 114.17 132.627 114.26L134.231 114.773C134.413 114.831 134.608 114.831 134.79 114.773L136.391 114.25C136.676 114.157 136.978 114.132 137.274 114.178C137.57 114.224 137.851 114.339 138.094 114.514C138.337 114.689 138.535 114.919 138.672 115.186C138.809 115.452 138.881 115.747 138.882 116.046V117.734C138.885 117.924 138.946 118.109 139.057 118.263L140.05 119.626C140.227 119.868 140.344 120.148 140.392 120.443C140.439 120.739 140.416 121.042 140.325 121.327C140.233 121.612 140.075 121.872 139.864 122.084C139.653 122.297 139.395 122.457 139.11 122.55L137.513 123.079C137.33 123.139 137.172 123.255 137.059 123.41L136.067 124.773C135.892 125.017 135.662 125.216 135.395 125.353C135.128 125.49 134.832 125.561 134.532 125.56L134.526 125.564ZM132.028 115.17C131.787 115.171 131.557 115.267 131.387 115.438C131.217 115.608 131.122 115.839 131.122 116.08V117.767C131.124 118.166 130.999 118.555 130.764 118.878L129.772 120.248C129.688 120.364 129.633 120.498 129.612 120.639C129.59 120.781 129.602 120.925 129.647 121.061C129.692 121.197 129.768 121.32 129.87 121.421C129.971 121.522 130.095 121.597 130.232 121.64L131.836 122.16C132.215 122.282 132.546 122.521 132.782 122.841L133.775 124.201C133.858 124.316 133.968 124.41 134.095 124.474C134.222 124.539 134.363 124.572 134.506 124.571C134.649 124.572 134.791 124.538 134.919 124.472C135.047 124.406 135.157 124.311 135.24 124.194L136.232 122.831C136.464 122.506 136.793 122.264 137.172 122.14L138.773 121.611C138.909 121.565 139.032 121.488 139.132 121.386C139.233 121.285 139.308 121.161 139.351 121.025C139.395 120.888 139.406 120.744 139.384 120.603C139.362 120.461 139.306 120.327 139.223 120.211L138.23 118.852C137.994 118.529 137.866 118.14 137.863 117.74V116.056C137.863 115.913 137.829 115.772 137.764 115.644C137.699 115.516 137.604 115.406 137.488 115.322C137.371 115.238 137.237 115.183 137.095 115.161C136.953 115.139 136.808 115.151 136.672 115.196L135.071 115.719C134.692 115.841 134.283 115.841 133.903 115.719L132.299 115.206C132.211 115.181 132.12 115.168 132.028 115.17Z" fill="black"/>
<path d="M200.454 45.2812C200.454 45.2812 184.575 54.5438 193.507 70.4223" stroke="white" stroke-linecap="round" stroke-linejoin="round"/>
<defs>
<filter id="filter0_d_14052_48450" x="-4.02115" y="107.786" width="38.6868" height="38.6842" filterUnits="userSpaceOnUse" color-interpolation-filters="sRGB">
<feFlood flood-opacity="0" result="BackgroundImageFix"/>
<feColorMatrix in="SourceAlpha" type="matrix" values="0 0 0 0 0 0 0 0 0 0 0 0 0 0 0 0 0 0 127 0" result="hardAlpha"/>
<feOffset dy="2.03704"/>
<feGaussianBlur stdDeviation="5.09261"/>
<feComposite in2="hardAlpha" operator="out"/>
<feColorMatrix type="matrix" values="0 0 0 0 0 0 0 0 0 0 0 0 0 0 0 0 0 0 0.05 0"/>
<feBlend mode="normal" in2="BackgroundImageFix" result="effect1_dropShadow_14052_48450"/>
<feBlend mode="normal" in="SourceGraphic" in2="effect1_dropShadow_14052_48450" result="shape"/>
</filter>
<filter id="filter1_d_14052_48450" x="370.651" y="165.21" width="38.6868" height="38.6885" filterUnits="userSpaceOnUse" color-interpolation-filters="sRGB">
<feFlood flood-opacity="0" result="BackgroundImageFix"/>
<feColorMatrix in="SourceAlpha" type="matrix" values="0 0 0 0 0 0 0 0 0 0 0 0 0 0 0 0 0 0 127 0" result="hardAlpha"/>
<feOffset dy="2.03704"/>
<feGaussianBlur stdDeviation="5.09261"/>
<feComposite in2="hardAlpha" operator="out"/>
<feColorMatrix type="matrix" values="0 0 0 0 0 0 0 0 0 0 0 0 0 0 0 0 0 0 0.05 0"/>
<feBlend mode="normal" in2="BackgroundImageFix" result="effect1_dropShadow_14052_48450"/>
<feBlend mode="normal" in="SourceGraphic" in2="effect1_dropShadow_14052_48450" result="shape"/>
</filter>
<linearGradient id="paint0_linear_14052_48450" x1="20.4527" y1="112.038" x2="392.051" y2="200.547" gradientUnits="userSpaceOnUse">
<stop stop-color="#CDD5E2"/>
<stop offset="1" stop-color="#CDD5E2" stop-opacity="0"/>
</linearGradient>
<linearGradient id="paint1_linear_14052_48450" x1="391.411" y1="195.438" x2="353.85" y2="294.044" gradientUnits="userSpaceOnUse">
<stop stop-color="#CDD5E2"/>
<stop offset="1" stop-color="#CDD5E2" stop-opacity="0"/>
</linearGradient>
<linearGradient id="paint2_linear_14052_48450" x1="196.502" y1="23.2605" x2="196.502" y2="365.006" gradientUnits="userSpaceOnUse">
<stop stop-color="#CDD5E2"/>
<stop offset="1" stop-color="#CDD5E2" stop-opacity="0"/>
</linearGradient>
<linearGradient id="paint3_linear_14052_48450" x1="196.503" y1="57.4338" x2="196.503" y2="330.83" gradientUnits="userSpaceOnUse">
<stop stop-color="#CDD5E2"/>
<stop offset="1" stop-color="#CDD5E2" stop-opacity="0"/>
</linearGradient>
</defs>
</svg>
