<svg width="406" height="302" viewBox="0 0 406 302" fill="none" xmlns="http://www.w3.org/2000/svg">
<mask id="mask0_14053_49195" style="mask-type:alpha" maskUnits="userSpaceOnUse" x="0" y="0" width="406" height="302">
<rect width="405.823" height="301.875" fill="#D9D9D9"/>
</mask>
<g mask="url(#mask0_14053_49195)">
<g opacity="0.5">
<mask id="path-2-inside-1_14053_49195" fill="white">
<path d="M389.977 202.564C391.993 156.308 377.369 110.86 348.757 74.4585C320.144 38.0572 279.437 13.1117 234.013 4.14391C188.59 -4.82387 141.456 2.77957 101.157 25.576C60.8571 48.3724 30.0587 84.853 14.3442 128.405L15.1839 128.708C30.8259 85.3568 61.4823 49.0443 101.596 26.353C141.71 3.66161 188.626 -3.90679 233.84 5.01966C279.055 13.9461 319.574 38.7766 348.055 75.0102C376.535 111.244 391.092 156.482 389.085 202.526L389.977 202.564Z"/>
</mask>
<path d="M389.977 202.564C391.993 156.308 377.369 110.86 348.757 74.4585C320.144 38.0572 279.437 13.1117 234.013 4.14391C188.59 -4.82387 141.456 2.77957 101.157 25.576C60.8571 48.3724 30.0587 84.853 14.3442 128.405L15.1839 128.708C30.8259 85.3568 61.4823 49.0443 101.596 26.353C141.71 3.66161 188.626 -3.90679 233.84 5.01966C279.055 13.9461 319.574 38.7766 348.055 75.0102C376.535 111.244 391.092 156.482 389.085 202.526L389.977 202.564Z" stroke="url(#paint0_linear_14053_49195)" stroke-width="2.84788" stroke-dasharray="4.27 4.27" mask="url(#path-2-inside-1_14053_49195)"/>
</g>
<g opacity="0.5">
<mask id="path-3-inside-2_14053_49195" fill="white">
<path d="M14.6043 260.573C30.4892 304.063 61.4301 340.423 101.819 363.061C142.207 385.7 189.37 393.119 234.758 383.973C280.146 374.828 320.756 349.723 349.225 313.21C377.695 276.697 392.141 231.192 389.944 184.944L389.052 184.986C391.239 231.021 376.86 276.316 348.521 312.661C320.183 349.006 279.761 373.995 234.582 383.098C189.403 392.201 142.457 384.817 102.255 362.282C62.0527 339.748 31.2544 303.556 15.4428 260.266L14.6043 260.573Z"/>
</mask>
<path d="M14.6043 260.573C30.4892 304.063 61.4301 340.423 101.819 363.061C142.207 385.7 189.37 393.119 234.758 383.973C280.146 374.828 320.756 349.723 349.225 313.21C377.695 276.697 392.141 231.192 389.944 184.944L389.052 184.986C391.239 231.021 376.86 276.316 348.521 312.661C320.183 349.006 279.761 373.995 234.582 383.098C189.403 392.201 142.457 384.817 102.255 362.282C62.0527 339.748 31.2544 303.556 15.4428 260.266L14.6043 260.573Z" stroke="url(#paint1_linear_14053_49195)" stroke-width="2.84788" stroke-dasharray="4.27 4.27" mask="url(#path-3-inside-2_14053_49195)"/>
</g>
<circle opacity="0.08" cx="196.502" cy="194.133" r="170.873" fill="url(#paint2_linear_14053_49195)"/>
<circle opacity="0.1" cx="196.503" cy="194.132" r="136.698" fill="url(#paint3_linear_14053_49195)"/>
<circle cx="196.503" cy="194.134" r="91.1321" fill="white"/>
<g filter="url(#filter0_d_14053_49195)">
<circle cx="15.3224" cy="125.091" r="7.11969" transform="rotate(-2.50406 15.3224 125.091)" fill="#0170FF"/>
<circle cx="15.3224" cy="125.091" r="8.13822" transform="rotate(-2.50406 15.3224 125.091)" stroke="white" stroke-width="2.03704"/>
</g>
<g filter="url(#filter1_d_14053_49195)">
<circle cx="389.995" cy="182.517" r="7.11969" transform="rotate(-15.7345 389.995 182.517)" fill="#0170FF"/>
<circle cx="389.995" cy="182.517" r="8.13822" transform="rotate(-15.7345 389.995 182.517)" stroke="white" stroke-width="2.03704"/>
</g>
</g>
<path d="M276.801 233.331C276.801 233.331 292.981 224.365 298.837 224.365C304.693 224.365 291.94 244.366 291.94 244.366L285.136 242.791L276.801 233.331Z" fill="#FFCDB2"/>
<path d="M291.949 244.884C291.91 244.889 291.87 244.889 291.831 244.884L285.031 243.308C284.925 243.284 284.83 243.228 284.759 243.146L276.41 233.686C276.359 233.628 276.321 233.56 276.3 233.485C276.28 233.411 276.276 233.333 276.289 233.257C276.302 233.181 276.332 233.109 276.377 233.046C276.422 232.983 276.48 232.931 276.547 232.893C277.213 232.524 292.914 223.861 298.835 223.861C299.186 223.834 299.537 223.909 299.847 224.075C300.157 224.241 300.412 224.492 300.584 224.799C302.584 228.448 293.435 243.011 292.383 244.66C292.334 244.73 292.27 244.787 292.194 244.826C292.118 244.865 292.034 244.885 291.949 244.884ZM285.424 242.325L291.707 243.78C295.539 237.711 300.943 227.572 299.677 225.286C299.577 225.096 299.387 224.882 298.835 224.882C293.787 224.882 280.52 231.903 277.617 233.476L285.424 242.325Z" fill="#1D1D1B"/>
<path d="M147.805 136.526C147.805 136.526 144.102 150.665 134.535 145.779C124.969 140.892 109.526 134.229 100.856 148.193C92.1867 162.156 87.6277 172.25 76.3198 169.87C65.0119 167.491 44.6274 199.263 73.3092 214.357C120.313 239.094 172.528 155.335 172.528 155.335L164.972 145.806L147.805 136.526Z" fill="#382256"/>
<path d="M85.6758 218.478C129.014 225.127 172.525 155.335 172.525 155.335L164.969 145.806L147.802 136.526C147.802 136.526 145.457 145.461 139.681 146.665C144.046 153.735 145.35 162.622 130.807 168.153C109.109 176.405 91.797 206.605 85.6758 218.478Z" fill="#050505"/>
<path d="M147.804 136.526L164.971 145.806L172.527 155.335C172.527 155.335 129.575 224.241 86.5089 218.599C81.8908 217.983 77.4199 216.547 73.3076 214.357C44.9913 199.456 64.4897 168.301 75.8769 169.795C76.0252 169.815 76.1734 169.84 76.3182 169.871C76.7596 169.964 77.1942 170.04 77.615 170.095C87.9883 171.453 92.523 161.604 100.855 148.193C105.448 140.792 111.945 139.192 118.463 140.044C124.24 140.803 130.037 143.492 134.534 145.779C135.455 146.265 136.452 146.59 137.482 146.741C144.869 147.71 147.804 136.526 147.804 136.526ZM147.925 135.602C147.758 135.582 147.589 135.605 147.435 135.671C147.305 135.727 147.19 135.812 147.098 135.92C147.006 136.028 146.939 136.155 146.904 136.292C146.866 136.43 144.076 146.665 137.593 145.817C136.667 145.679 135.771 145.385 134.944 144.948C130.116 142.496 124.412 139.885 118.574 139.12C110.48 138.057 104.248 140.944 100.051 147.7C99.0962 149.238 98.196 150.721 97.3235 152.155C90.6919 163.08 86.3122 170.295 77.7253 169.171C77.3287 169.115 76.9148 169.046 76.4975 168.957C76.332 168.922 76.1527 168.895 75.9872 168.87C72.9869 168.477 69.5177 170.005 66.2278 173.174C62.8776 176.478 60.3906 180.554 58.9857 185.044C57.2615 190.528 57.3096 196.014 59.1546 200.908C61.3583 206.753 65.9691 211.557 72.8594 215.185C77.0714 217.421 81.6477 218.89 86.3743 219.523C96.3993 220.837 107.228 218.275 118.56 211.909C127.557 206.853 136.896 199.39 146.321 189.734C162.326 173.333 173.196 156.004 173.306 155.831C173.407 155.667 173.455 155.476 173.444 155.284C173.433 155.091 173.363 154.907 173.244 154.755L165.702 145.22C165.623 145.121 165.524 145.039 165.412 144.979L148.245 135.699C148.145 135.646 148.037 135.611 147.925 135.595V135.602Z" fill="black"/>
<path d="M177.287 166.601C177.287 166.601 130.118 160.394 96.3735 215.916C62.6291 271.438 75.9648 285.922 95.5906 287.302C115.216 288.681 115.999 288.336 115.999 288.336L277.827 287.991L298.832 257.989L277.141 234.193C277.141 234.193 267.485 234.193 257.857 243.505C257.857 243.505 250.27 177.982 198.293 168.67L177.287 166.601Z" fill="#07ACEE"/>
<path d="M172.932 166.394C174.386 166.378 175.841 166.447 177.287 166.601L198.292 168.67C250.283 177.982 257.856 243.505 257.856 243.505C267.512 234.193 277.141 234.193 277.141 234.193L298.832 257.989L277.827 287.991L115.999 288.336C115.692 288.381 115.381 288.393 115.071 288.374C113.385 288.374 108.674 288.222 95.5903 287.302C75.9644 285.922 62.6322 271.438 96.3731 215.916C123.962 170.54 160.496 166.394 172.932 166.394ZM172.932 165.36C166.765 165.36 154.271 166.394 139.887 173.205C122.389 181.506 107.453 195.697 95.4903 215.378C85.8342 231.286 79.4475 244.805 76.5438 255.561C73.9436 265.186 74.0574 272.842 76.8887 278.321C79.9924 284.322 86.2619 287.698 95.511 288.346C108.822 289.284 113.475 289.422 115.064 289.422C115.41 289.43 115.755 289.417 116.099 289.384L277.837 289.04H278.365L278.672 288.598L299.674 258.596L300.15 257.906L299.591 257.295L277.899 233.5L277.592 233.155H277.137C276.744 233.155 267.909 233.255 258.594 241.432C256.718 230.26 253.322 219.397 248.5 209.146C243.572 198.842 237.427 190.231 230.223 183.548C221.41 175.271 210.37 169.751 198.461 167.667H198.42H198.379L177.391 165.598C175.902 165.44 174.405 165.368 172.907 165.384L172.932 165.36Z" fill="black"/>
<path d="M102.938 252.171C102.938 252.171 125.988 230.917 168.681 236.09C211.375 241.263 215.51 227.469 232.035 256.092C248.561 284.715 200.705 256.092 200.705 256.092L102.938 252.171Z" fill="#0598C6"/>
<path d="M217.918 192.983C217.918 192.983 235.82 225.055 231.347 253.333L217.918 192.983Z" fill="#07ACEE"/>
<path d="M231.347 253.85H231.264C231.129 253.829 231.008 253.755 230.927 253.645C230.846 253.534 230.812 253.396 230.833 253.261C235.23 225.486 217.642 193.562 217.467 193.255C217.403 193.136 217.389 192.996 217.427 192.866C217.466 192.737 217.553 192.627 217.672 192.561C217.79 192.495 217.929 192.478 218.06 192.514C218.19 192.55 218.302 192.635 218.37 192.752C221.709 199.064 224.527 205.639 226.798 212.409C230.392 223.003 234.185 238.721 231.857 253.447C231.831 253.562 231.766 253.665 231.673 253.738C231.58 253.811 231.465 253.851 231.347 253.85Z" fill="black"/>
<path d="M97.0625 255.747C97.0625 255.747 131.148 231.607 170.745 241.608L181.091 241.263L185.919 269.541L178.677 275.404C178.677 275.404 172.124 285.75 152.164 288.509" fill="#07ACEE"/>
<path d="M152.148 289.026C152.08 289.03 152.012 289.022 151.947 289C151.883 288.979 151.823 288.944 151.772 288.9C151.72 288.855 151.678 288.801 151.648 288.74C151.617 288.679 151.599 288.613 151.595 288.545C151.59 288.477 151.598 288.408 151.62 288.344C151.642 288.279 151.676 288.22 151.72 288.168C151.765 288.117 151.819 288.075 151.88 288.044C151.941 288.014 152.008 287.996 152.076 287.991C171.539 285.305 178.157 275.231 178.223 275.124C178.254 275.077 178.291 275.034 178.333 274.997L185.33 269.327L180.644 241.78L170.763 242.125C170.717 242.132 170.669 242.132 170.622 242.125C150.303 236.994 131.477 241.09 119.262 245.422C106.003 250.126 97.4467 256.112 97.3639 256.185C97.3089 256.228 97.2458 256.26 97.1782 256.278C97.1107 256.296 97.0401 256.3 96.9709 256.29C96.9017 256.28 96.8351 256.256 96.7754 256.22C96.7157 256.183 96.664 256.135 96.6234 256.078C96.5828 256.021 96.5543 255.957 96.5393 255.888C96.5244 255.82 96.5234 255.75 96.5365 255.681C96.5496 255.612 96.5766 255.547 96.6156 255.489C96.6547 255.431 96.7051 255.381 96.7638 255.343C96.85 255.281 105.499 249.212 118.883 244.456C131.229 240.073 150.265 235.935 170.801 241.104L181.061 240.759C181.185 240.757 181.306 240.8 181.402 240.879C181.498 240.958 181.563 241.068 181.585 241.19L186.413 269.469C186.428 269.559 186.419 269.652 186.387 269.738C186.355 269.824 186.301 269.9 186.23 269.958L179.047 275.756C178.357 276.79 171.536 286.353 152.217 289.022L152.148 289.026Z" fill="black"/>
<path d="M181.082 241.263C181.082 241.263 204.57 239.773 220.334 242.642C246.843 247.47 257.52 283.335 257.52 283.335H222.399C222.399 283.335 211.709 277.473 207.591 264.713L185.9 269.541L181.082 241.263Z" fill="#FFCDB2"/>
<path d="M258.21 283.853H222.262L222.145 283.787C222.038 283.729 211.496 277.821 207.247 265.32L185.48 270.148L180.473 240.766L181.045 240.728C181.28 240.728 204.778 239.266 220.421 242.108C234.305 244.636 243.788 255.681 249.303 264.499C252.941 270.35 255.865 276.616 258.01 283.163L258.21 283.853ZM222.535 282.818H256.807C254.692 276.597 251.875 270.636 248.413 265.051C243.013 256.43 233.74 245.612 220.238 243.153C206.082 240.573 185.383 241.546 181.687 241.746L186.318 268.917L207.937 264.089L208.082 264.537C211.875 276.266 221.393 282.149 222.535 282.818Z" fill="#1D1D1B"/>
<path d="M170.744 242.297C170.744 242.297 164.882 260.575 178.331 275.059L185.228 269.196L180.4 241.953L170.744 242.297Z" fill="#0598C6"/>
<path d="M152.066 115.128C159.303 115.128 165.17 109.251 165.17 102.002C165.17 94.7536 159.303 88.8772 152.066 88.8772C144.828 88.8772 138.961 94.7536 138.961 102.002C138.961 109.251 144.828 115.128 152.066 115.128Z" fill="#382256"/>
<path d="M145.94 90.3878C148.517 89.0237 151.475 88.5562 154.347 89.0589C157.219 89.5616 159.843 91.006 161.803 93.1643C163.764 95.3226 164.95 98.0721 165.176 100.979C165.401 103.887 164.653 106.786 163.048 109.221C161.444 111.656 159.074 113.487 156.314 114.426C153.553 115.366 150.559 115.36 147.802 114.409C145.045 113.459 142.684 111.618 141.089 109.177C139.494 106.735 138.757 103.833 138.994 100.927C139.165 98.7256 139.892 96.6039 141.107 94.7605C142.321 92.9172 143.984 91.4126 145.94 90.3878ZM145.505 89.5635C142.523 91.1407 140.21 93.7404 138.991 96.8855C137.771 100.031 137.727 103.51 138.866 106.685C140.005 109.86 142.251 112.518 145.192 114.17C148.133 115.823 151.571 116.359 154.875 115.681C158.18 115.003 161.128 113.156 163.181 110.479C165.233 107.802 166.251 104.475 166.048 101.107C165.844 97.7404 164.433 94.5596 162.074 92.1489C159.714 89.7383 156.564 88.2596 153.202 87.9841C150.539 87.7651 147.868 88.3131 145.505 89.5635Z" fill="black"/>
<path d="M201.289 126.039C201.289 126.039 206.761 115.269 200.092 109.141C193.422 103.013 191.709 104.465 188.405 100.999C185.101 97.5333 176.031 96.3952 170.069 101.092C170.069 101.092 159.147 98.2023 152.36 103.234C145.573 108.265 144.394 112.955 144.636 119.759C144.877 126.563 143.794 130.067 143.801 134.857C143.808 139.647 146.005 152.214 165.544 154.207C185.084 156.2 201.289 126.039 201.289 126.039Z" fill="#382256"/>
<path d="M153.986 102.206C160.769 98.6197 170.08 101.078 170.08 101.078C170.728 100.571 171.42 100.123 172.149 99.7404C177.967 96.6574 185.485 97.9023 188.427 100.985C191.73 104.434 193.441 102.996 200.114 109.127C206.787 115.259 201.31 126.026 201.31 126.026C201.31 126.026 191.516 144.255 177.974 151.431C174.098 153.5 169.915 154.631 165.559 154.19C146.019 152.197 143.833 139.63 143.816 134.84C143.798 130.05 144.892 126.563 144.65 119.742C144.409 112.921 145.588 108.248 152.375 103.217C152.889 102.831 153.432 102.485 153.999 102.182L153.986 102.206ZM153.561 101.358C152.96 101.678 152.383 102.043 151.837 102.451C144.733 107.717 143.485 112.797 143.733 119.763C143.828 122.847 143.682 125.934 143.295 128.995C143.053 130.93 142.921 132.877 142.898 134.826C142.906 138.889 144.214 142.843 146.63 146.11C150.444 151.193 156.786 154.218 165.48 155.104C169.673 155.532 174.025 154.569 178.415 152.245C185.561 148.452 191.634 141.644 195.469 136.592C197.928 133.376 200.157 129.99 202.138 126.46V126.439C203.107 124.402 203.779 122.236 204.131 120.008C204.88 115.159 203.707 111.152 200.738 108.424C196.944 104.931 194.686 103.824 192.875 102.937C191.468 102.248 190.461 101.748 189.082 100.327C185.895 96.9816 177.97 95.5746 171.694 98.899C171.057 99.238 170.444 99.623 169.863 100.051C167.863 99.5956 159.783 98.0575 153.551 101.358H153.561Z" fill="black"/>
<path d="M134.796 96.9919C134.749 97.0172 134.697 97.0335 134.644 97.0401C134.522 97.0579 134.398 97.0265 134.299 96.9528C134.2 96.8791 134.135 96.7691 134.117 96.647C133.658 93.4881 134.241 90.7844 135.841 88.6463C138.676 84.8529 143.645 84.1425 143.852 84.1149C143.913 84.1061 143.975 84.1094 144.034 84.1247C144.093 84.1399 144.149 84.1667 144.198 84.2035C144.247 84.2404 144.288 84.2865 144.32 84.3394C144.351 84.3922 144.371 84.4507 144.38 84.5115C144.395 84.6343 144.362 84.7584 144.287 84.8571C144.213 84.9558 144.102 85.0211 143.98 85.0391C143.935 85.0391 139.179 85.7288 136.582 89.2153C135.127 91.1534 134.606 93.6088 135.03 96.5125C135.044 96.6067 135.029 96.7029 134.987 96.7885C134.945 96.874 134.879 96.9449 134.796 96.9919Z" fill="black"/>
<path d="M160.234 167.636C160.234 167.636 163.862 184.365 182.112 175.744C182.112 175.744 195.886 185.055 198.296 168.846C198.296 168.843 183.464 163.315 160.234 167.636Z" fill="white"/>
<path d="M190.084 178.923C186.49 178.923 183.042 176.927 182.087 176.33C176.148 179.089 171.096 179.468 167.068 177.482C161.302 174.64 159.805 168.022 159.747 167.74C159.732 167.673 159.73 167.603 159.743 167.536C159.755 167.468 159.781 167.404 159.819 167.346C159.859 167.288 159.91 167.238 159.969 167.2C160.028 167.161 160.095 167.135 160.164 167.122C183.27 162.832 198.35 168.302 198.498 168.357C198.612 168.397 198.708 168.475 198.77 168.577C198.833 168.679 198.859 168.8 198.843 168.919C198.112 173.847 196.26 176.996 193.343 178.278C192.314 178.72 191.203 178.94 190.084 178.923ZM182.111 175.223C182.214 175.223 182.315 175.255 182.401 175.313C182.459 175.351 188.408 179.306 192.891 177.33C195.378 176.233 197.002 173.499 197.719 169.191C195.233 168.384 181.311 164.363 160.881 168.04C161.35 169.616 163.095 174.382 167.52 176.558C171.313 178.42 176.141 177.989 181.894 175.271C181.962 175.24 182.036 175.224 182.111 175.223Z" fill="#1D1D1B"/>
<path d="M186.515 154.138L191.06 167.464C191.06 167.464 180.387 178.154 166.269 166.429C166.269 166.429 168.569 158.432 165.81 143.437C165.81 143.437 159.316 144.903 157.788 139.189C156.261 133.474 160.085 130.598 163.251 130.857C163.251 130.857 176.218 133.119 176.673 108.014C176.673 108.014 189.088 107.434 196.244 117.201C203.399 126.967 207.096 140.441 200.51 147.893C193.923 155.345 186.515 154.138 186.515 154.138Z" fill="#FFCDB2"/>
<path d="M179.691 172.43C175.898 172.43 171.139 171.143 165.942 166.826L165.68 166.612L165.773 166.288C165.797 166.208 167.952 158.384 165.394 144.031C163.728 144.241 158.659 144.441 157.289 139.323C156.562 136.595 156.944 134.15 158.379 132.426C158.974 131.712 159.731 131.15 160.586 130.786C161.441 130.422 162.37 130.267 163.297 130.333H163.342C163.373 130.333 166.576 130.843 169.721 128.229C173.749 124.884 175.977 117.883 176.157 107.989V107.507L176.639 107.483C176.77 107.483 189.399 107.003 196.641 116.88C200.435 122.032 203.045 127.867 204.025 133.305C205.135 139.475 204.045 144.627 200.879 148.21C195.396 154.418 189.402 154.797 187.24 154.707L191.634 167.588L191.406 167.815C189.319 169.721 186.805 171.098 184.074 171.83C182.646 172.221 181.172 172.423 179.691 172.43ZM166.856 166.257C172.473 170.833 178.167 172.385 183.778 170.874C186.241 170.201 188.525 168.99 190.465 167.329L185.75 153.497L186.599 153.635C186.713 153.635 193.841 154.649 200.124 147.545C206.494 140.347 202.783 126.988 195.827 117.514C189.699 109.165 179.508 108.548 177.181 108.548C176.929 118.646 174.632 125.553 170.353 129.081C166.952 131.888 163.552 131.45 163.19 131.392C162.432 131.345 161.674 131.476 160.976 131.776C160.278 132.075 159.66 132.534 159.172 133.116C158.317 134.15 157.472 136.006 158.289 139.075C159.669 144.248 165.452 143.006 165.697 142.951L166.221 142.834L166.318 143.361C168.79 156.776 167.259 164.563 166.856 166.257Z" fill="black"/>
<path d="M187.793 154.583C187.745 154.6 187.695 154.608 187.645 154.607C182.065 154.528 176.719 150.372 176.495 150.197C176.398 150.12 176.335 150.008 176.32 149.885C176.305 149.762 176.34 149.639 176.416 149.541C176.492 149.444 176.604 149.381 176.727 149.366C176.85 149.351 176.974 149.386 177.071 149.462C177.123 149.503 182.396 153.6 187.658 153.673C187.77 153.673 187.877 153.714 187.961 153.787C188.045 153.86 188.1 153.96 188.116 154.07C188.132 154.18 188.109 154.292 188.049 154.387C187.99 154.481 187.899 154.55 187.793 154.583Z" fill="black"/>
<path d="M164.673 140.947C164.598 140.986 164.514 141.004 164.43 141C164.345 140.995 164.264 140.967 164.194 140.92C162.125 139.513 161.09 138.026 161.138 136.506C161.218 134.312 163.518 132.954 163.618 132.898C163.67 132.867 163.729 132.847 163.789 132.838C163.85 132.83 163.912 132.833 163.971 132.849C164.03 132.865 164.085 132.892 164.134 132.93C164.182 132.967 164.222 133.014 164.252 133.067C164.283 133.12 164.304 133.179 164.312 133.24C164.32 133.3 164.316 133.362 164.3 133.422C164.285 133.481 164.258 133.536 164.22 133.585C164.183 133.634 164.137 133.675 164.083 133.705C164.059 133.705 162.125 134.868 162.07 136.54C162.032 137.72 162.921 138.933 164.715 140.147C164.765 140.182 164.809 140.226 164.843 140.277C164.876 140.328 164.9 140.385 164.911 140.446C164.923 140.506 164.923 140.568 164.91 140.628C164.898 140.688 164.873 140.745 164.839 140.796C164.798 140.86 164.741 140.912 164.673 140.947Z" fill="black"/>
<path d="M184.156 124.936C178.442 128.536 169.089 128.888 168.469 131.629C167.848 134.371 170.024 136.944 173.641 136.457C177.259 135.971 180.566 134.633 187.191 131.585C193.816 128.536 200.075 125.056 197.961 121.691C195.847 118.325 192.557 119.635 184.156 124.936Z" fill="#FFB49F"/>
<path d="M163.305 146.513C164.49 146.513 165.45 145.551 165.45 144.365C165.45 143.178 164.49 142.216 163.305 142.216C162.12 142.216 161.16 143.178 161.16 144.365C161.16 145.551 162.12 146.513 163.305 146.513Z" fill="#07ACEE"/>
<path d="M162.305 142.461C162.804 142.233 163.372 142.204 163.891 142.38C164.411 142.557 164.843 142.926 165.099 143.411C165.356 143.896 165.417 144.461 165.27 144.99C165.123 145.519 164.779 145.971 164.309 146.255C163.81 146.483 163.242 146.512 162.723 146.335C162.203 146.159 161.771 145.79 161.514 145.305C161.258 144.819 161.197 144.254 161.344 143.726C161.491 143.197 161.835 142.744 162.305 142.461ZM161.871 141.637C161.215 141.983 160.705 142.553 160.436 143.244C160.167 143.935 160.157 144.7 160.406 145.398C160.656 146.096 161.149 146.681 161.795 147.045C162.441 147.409 163.197 147.527 163.923 147.379C164.65 147.23 165.298 146.824 165.749 146.236C166.201 145.648 166.425 144.917 166.38 144.176C166.336 143.436 166.026 142.737 165.507 142.207C164.988 141.677 164.296 141.352 163.557 141.292C162.973 141.244 162.388 141.364 161.871 141.637Z" fill="black"/>
<path d="M192.707 134.433C192.63 134.434 192.553 134.417 192.483 134.383C192.413 134.35 192.352 134.301 192.304 134.24L185.541 125.856C185.455 125.749 185.414 125.613 185.429 125.476C185.443 125.339 185.512 125.214 185.619 125.127C185.726 125.041 185.863 125 185.999 125.015C186.136 125.029 186.261 125.098 186.348 125.205L193.107 133.592C193.17 133.667 193.209 133.759 193.221 133.856C193.233 133.953 193.217 134.052 193.175 134.14C193.133 134.228 193.067 134.303 192.984 134.355C192.901 134.407 192.805 134.434 192.707 134.433Z" fill="#1D1D1B"/>
<path d="M185.476 117.632C185.386 117.632 185.298 117.61 185.22 117.566C185.141 117.522 185.076 117.458 185.03 117.381C184.984 117.304 184.959 117.216 184.957 117.126C184.956 117.037 184.978 116.948 185.021 116.869C187.111 112.962 192.953 115.738 193.184 115.859C193.307 115.919 193.402 116.026 193.446 116.156C193.491 116.286 193.482 116.429 193.422 116.552C193.361 116.676 193.254 116.77 193.124 116.815C192.994 116.859 192.852 116.85 192.729 116.79C192.68 116.766 187.556 114.328 185.931 117.359C185.888 117.442 185.823 117.512 185.742 117.56C185.662 117.608 185.57 117.633 185.476 117.632Z" fill="black"/>
<path d="M174.993 125.411C174.93 125.411 174.868 125.4 174.81 125.377C174.682 125.328 174.579 125.231 174.522 125.106C174.466 124.981 174.461 124.839 174.51 124.711C175.292 122.642 176.417 121.263 177.844 120.628C178.827 120.181 179.942 120.118 180.969 120.452C181.092 120.505 181.189 120.603 181.241 120.726C181.293 120.849 181.296 120.988 181.248 121.112C181.2 121.237 181.106 121.338 180.985 121.395C180.865 121.452 180.726 121.461 180.6 121.418C180.459 121.366 177.3 120.259 175.479 125.077C175.441 125.175 175.374 125.26 175.288 125.32C175.201 125.379 175.098 125.411 174.993 125.411Z" fill="black"/>
<path d="M177.804 132.978C177.712 132.978 177.621 132.954 177.541 132.907C177.462 132.86 177.396 132.793 177.351 132.713C177.306 132.632 177.283 132.541 177.285 132.449C177.287 132.357 177.314 132.266 177.363 132.188C177.394 132.14 180.415 127.343 185.253 129.577C185.372 129.638 185.463 129.743 185.506 129.869C185.55 129.996 185.543 130.134 185.487 130.255C185.43 130.377 185.329 130.471 185.205 130.52C185.08 130.568 184.942 130.567 184.819 130.515C180.822 128.667 178.349 132.564 178.246 132.733C178.199 132.808 178.134 132.87 178.057 132.912C177.979 132.955 177.892 132.978 177.804 132.978Z" fill="black"/>
<path d="M190.179 126.715C190.084 126.718 189.99 126.694 189.907 126.646C189.825 126.599 189.757 126.53 189.712 126.446C189.666 126.363 189.645 126.269 189.649 126.174C189.653 126.079 189.684 125.987 189.737 125.908C189.768 125.86 192.862 121.104 197.669 123.415C197.733 123.442 197.792 123.482 197.84 123.533C197.889 123.583 197.926 123.643 197.951 123.709C197.976 123.774 197.987 123.844 197.984 123.914C197.98 123.984 197.963 124.052 197.933 124.115C197.902 124.178 197.86 124.235 197.807 124.281C197.754 124.327 197.693 124.362 197.626 124.383C197.559 124.405 197.489 124.413 197.42 124.406C197.35 124.4 197.282 124.379 197.221 124.346C193.251 122.439 190.72 126.298 190.617 126.463C190.571 126.539 190.507 126.602 190.43 126.646C190.354 126.69 190.267 126.714 190.179 126.715Z" fill="black"/>
<path d="M191.722 145.358H191.66C189.018 145.317 186.949 142.63 186.863 142.517C186.801 142.435 186.764 142.336 186.759 142.233C186.753 142.13 186.778 142.028 186.83 141.94C186.883 141.851 186.961 141.78 187.054 141.736C187.147 141.692 187.251 141.677 187.353 141.692C187.418 141.692 193.957 142.641 195.285 138.844C195.33 138.714 195.426 138.608 195.55 138.548C195.674 138.489 195.817 138.481 195.947 138.527C196.077 138.572 196.183 138.668 196.242 138.792C196.302 138.916 196.31 139.059 196.264 139.189C195.067 142.613 190.815 142.923 188.581 142.841C189.322 143.53 190.453 144.313 191.684 144.33C192.698 144.33 193.657 143.806 194.522 142.737C194.563 142.679 194.615 142.631 194.676 142.594C194.736 142.557 194.804 142.533 194.874 142.523C194.944 142.514 195.015 142.518 195.083 142.537C195.151 142.556 195.215 142.589 195.27 142.633C195.325 142.678 195.37 142.733 195.403 142.795C195.436 142.858 195.455 142.927 195.461 142.997C195.466 143.068 195.457 143.139 195.434 143.205C195.41 143.272 195.374 143.333 195.326 143.386C194.264 144.693 193.05 145.358 191.722 145.358Z" fill="#1D1D1B"/>
<path d="M148.273 193.728C149.819 193.728 151.073 192.471 151.073 190.921C151.073 189.37 149.819 188.114 148.273 188.114C146.726 188.114 145.473 189.37 145.473 190.921C145.473 192.471 146.726 193.728 148.273 193.728Z" fill="#51CEF4"/>
<path d="M175.476 224.42C177.023 224.42 178.276 223.163 178.276 221.613C178.276 220.063 177.023 218.806 175.476 218.806C173.93 218.806 172.676 220.063 172.676 221.613C172.676 223.163 173.93 224.42 175.476 224.42Z" fill="#51CEF4"/>
<path d="M209.91 206.143C211.456 206.143 212.71 204.886 212.71 203.336C212.71 201.785 211.456 200.529 209.91 200.529C208.363 200.529 207.109 201.785 207.109 203.336C207.109 204.886 208.363 206.143 209.91 206.143Z" fill="#51CEF4"/>
<path d="M120.042 233.386C121.589 233.386 122.843 232.13 122.843 230.579C122.843 229.029 121.589 227.772 120.042 227.772C118.496 227.772 117.242 229.029 117.242 230.579C117.242 232.13 118.496 233.386 120.042 233.386Z" fill="#51CEF4"/>
<path d="M135.882 253.388C137.429 253.388 138.683 252.131 138.683 250.581C138.683 249.031 137.429 247.774 135.882 247.774C134.336 247.774 133.082 249.031 133.082 250.581C133.082 252.131 134.336 253.388 135.882 253.388Z" fill="#51CEF4"/>
<path d="M134.503 286.15C136.05 286.15 137.304 284.893 137.304 283.343C137.304 281.792 136.05 280.535 134.503 280.535C132.957 280.535 131.703 281.792 131.703 283.343C131.703 284.893 132.957 286.15 134.503 286.15Z" fill="#51CEF4"/>
<path d="M237.796 209.936C239.343 209.936 240.597 208.679 240.597 207.129C240.597 205.579 239.343 204.322 237.796 204.322C236.25 204.322 234.996 205.579 234.996 207.129C234.996 208.679 236.25 209.936 237.796 209.936Z" fill="#51CEF4"/>
<path d="M272.917 255.457C274.464 255.457 275.718 254.201 275.718 252.65C275.718 251.1 274.464 249.843 272.917 249.843C271.371 249.843 270.117 251.1 270.117 252.65C270.117 254.201 271.371 255.457 272.917 255.457Z" fill="#51CEF4"/>
<path d="M111.781 272.7C113.327 272.7 114.581 271.443 114.581 269.893C114.581 268.343 113.327 267.086 111.781 267.086C110.234 267.086 108.98 268.343 108.98 269.893C108.98 271.443 110.234 272.7 111.781 272.7Z" fill="#51CEF4"/>
<path d="M246.664 255.23C251.078 249.258 256.29 243.921 262.155 239.366L246.664 255.23Z" fill="#07ACEE"/>
<path d="M246.663 255.747C246.569 255.746 246.477 255.719 246.397 255.67C246.316 255.621 246.251 255.551 246.207 255.467C246.164 255.384 246.144 255.29 246.149 255.196C246.155 255.102 246.186 255.011 246.239 254.933C250.692 248.925 255.942 243.55 261.843 238.956C261.952 238.872 262.09 238.835 262.226 238.853C262.362 238.871 262.486 238.942 262.569 239.051C262.653 239.16 262.69 239.297 262.673 239.433C262.655 239.57 262.583 239.693 262.475 239.777C256.654 244.302 251.478 249.601 247.091 255.526C247.043 255.595 246.979 255.651 246.904 255.689C246.83 255.728 246.747 255.748 246.663 255.747Z" fill="black"/>
<path d="M240.293 270.921C243.121 274.686 245.332 278.876 246.845 283.336L240.293 270.921Z" fill="#FFCDB2"/>
<path d="M246.837 283.853C246.729 283.853 246.625 283.82 246.537 283.758C246.45 283.696 246.383 283.609 246.347 283.508C244.85 279.111 242.671 274.976 239.891 271.255C239.849 271.202 239.817 271.141 239.798 271.075C239.779 271.01 239.773 270.941 239.78 270.874C239.788 270.806 239.809 270.74 239.842 270.681C239.875 270.621 239.919 270.568 239.972 270.526C240.025 270.483 240.086 270.452 240.152 270.433C240.217 270.414 240.286 270.408 240.354 270.415C240.421 270.423 240.487 270.444 240.547 270.476C240.606 270.509 240.659 270.554 240.702 270.607C243.564 274.413 245.8 278.652 247.326 283.163C247.347 283.229 247.354 283.297 247.348 283.366C247.342 283.434 247.322 283.501 247.29 283.561C247.258 283.622 247.214 283.676 247.161 283.719C247.108 283.763 247.047 283.795 246.981 283.815C246.936 283.835 246.887 283.848 246.837 283.853Z" fill="#1D1D1B"/>
<path d="M231.004 273.68C231.004 273.68 234.108 277.128 235.487 282.991L231.004 273.68Z" fill="#FFCDB2"/>
<path d="M235.479 283.508C235.362 283.508 235.249 283.469 235.158 283.396C235.066 283.323 235.002 283.222 234.975 283.108C233.648 277.459 230.648 274.059 230.617 274.025C230.567 273.975 230.528 273.916 230.502 273.85C230.476 273.785 230.463 273.715 230.465 273.645C230.467 273.574 230.483 273.505 230.513 273.441C230.542 273.378 230.584 273.32 230.637 273.274C230.689 273.227 230.75 273.191 230.817 273.168C230.884 273.146 230.954 273.137 231.024 273.143C231.094 273.149 231.163 273.169 231.225 273.202C231.287 273.235 231.341 273.28 231.385 273.335C231.516 273.48 234.589 276.949 235.982 282.874C236.013 283.007 235.99 283.148 235.918 283.264C235.845 283.38 235.73 283.463 235.596 283.494C235.558 283.504 235.518 283.509 235.479 283.508Z" fill="#1D1D1B"/>
<path d="M158.247 107.824C158.292 107.824 158.336 107.806 158.369 107.773C158.401 107.741 158.419 107.697 158.419 107.651C158.419 107.606 158.401 107.562 158.369 107.529C158.336 107.497 158.292 107.479 158.247 107.479C158.201 107.479 158.157 107.497 158.125 107.529C158.092 107.562 158.074 107.606 158.074 107.651C158.074 107.697 158.092 107.741 158.125 107.773C158.157 107.806 158.201 107.824 158.247 107.824Z" fill="black"/>
<path d="M151.762 109.089C151.808 109.089 151.852 109.071 151.884 109.039C151.917 109.007 151.935 108.963 151.935 108.917C151.935 108.871 151.917 108.827 151.884 108.795C151.852 108.763 151.808 108.745 151.762 108.745C151.717 108.745 151.673 108.763 151.64 108.795C151.608 108.827 151.59 108.871 151.59 108.917C151.59 108.963 151.608 109.007 151.64 109.039C151.673 109.071 151.717 109.089 151.762 109.089Z" fill="black"/>
<path d="M97.1432 172.464C97.0985 172.469 97.0533 172.469 97.0086 172.464C75.824 166.719 63.3506 152.666 56.6155 141.889C49.3218 130.222 47.0008 119.759 46.9767 119.656C46.9622 119.589 46.961 119.52 46.9731 119.453C46.9852 119.386 47.0104 119.322 47.0472 119.265C47.084 119.208 47.1317 119.158 47.1876 119.119C47.2436 119.08 47.3068 119.053 47.3734 119.038C47.4399 119.024 47.5087 119.023 47.5758 119.035C47.6428 119.047 47.7067 119.072 47.764 119.109C47.8214 119.146 47.871 119.194 47.9099 119.249C47.9487 119.305 47.9762 119.368 47.9907 119.435C48.0114 119.539 50.3046 129.857 57.5122 141.375C64.1472 151.979 76.4345 165.812 97.2777 171.464C97.4149 171.482 97.5394 171.553 97.6238 171.663C97.7082 171.772 97.7455 171.911 97.7277 172.048C97.7098 172.185 97.6382 172.31 97.5286 172.394C97.419 172.479 97.2804 172.516 97.1432 172.498V172.464Z" fill="black"/>
<path d="M67.6588 172.44C67.6176 172.445 67.576 172.445 67.5347 172.44C50.7609 168.264 41.9359 149.952 41.8462 149.765C41.7877 149.641 41.781 149.498 41.8275 149.369C41.8741 149.24 41.9702 149.134 42.0946 149.076C42.219 149.017 42.3614 149.01 42.4908 149.057C42.6201 149.104 42.7258 149.2 42.7843 149.324C42.8671 149.503 51.4919 167.381 67.7829 171.433C67.9201 171.449 68.0453 171.52 68.1307 171.628C68.216 171.737 68.2547 171.875 68.2383 172.012C68.2218 172.149 68.1514 172.274 68.0428 172.36C67.9341 172.445 67.796 172.484 67.6588 172.467V172.44Z" fill="black"/>
<path d="M346.82 213.847H315.783C315.646 213.847 315.514 213.792 315.417 213.695C315.32 213.598 315.266 213.467 315.266 213.33C315.266 213.192 315.32 213.061 315.417 212.964C315.514 212.867 315.646 212.812 315.783 212.812H346.82C346.957 212.812 347.089 212.867 347.186 212.964C347.283 213.061 347.337 213.192 347.337 213.33C347.337 213.467 347.283 213.598 347.186 213.695C347.089 213.792 346.957 213.847 346.82 213.847Z" fill="black"/>
<path d="M246.812 216.95C246.638 216.951 246.468 216.898 246.325 216.8C246.182 216.703 246.071 216.564 246.008 216.402C239.68 200.228 230.145 190.255 223.247 184.741C215.767 178.757 209.702 176.574 209.643 176.554C209.536 176.516 209.437 176.458 209.353 176.382C209.269 176.307 209.2 176.215 209.151 176.113C209.102 176.011 209.074 175.9 209.068 175.787C209.062 175.674 209.078 175.561 209.115 175.454C209.153 175.347 209.211 175.248 209.287 175.164C209.362 175.08 209.454 175.011 209.556 174.962C209.658 174.913 209.769 174.885 209.882 174.878C209.995 174.872 210.108 174.888 210.215 174.926C210.47 175.016 216.564 177.202 224.261 183.344C231.345 188.993 241.159 199.207 247.632 215.761C247.715 215.974 247.71 216.211 247.618 216.42C247.526 216.63 247.355 216.794 247.143 216.878C247.038 216.924 246.926 216.949 246.812 216.95Z" fill="white" fill-opacity="0.2"/>
<path d="M251.296 275.921C251.134 275.921 250.976 275.876 250.839 275.791C250.702 275.705 250.591 275.583 250.52 275.438C235.095 243.912 214.655 245.208 214.465 245.225C214.352 245.235 214.238 245.221 214.13 245.186C214.022 245.151 213.922 245.095 213.835 245.022C213.749 244.948 213.678 244.858 213.626 244.757C213.574 244.656 213.543 244.545 213.534 244.432C213.525 244.319 213.538 244.205 213.573 244.097C213.608 243.989 213.664 243.889 213.738 243.802C213.811 243.716 213.901 243.645 214.002 243.593C214.104 243.541 214.214 243.51 214.327 243.501C214.551 243.501 219.91 243.091 227.284 246.777C234.008 250.143 243.771 257.713 252.072 274.673C252.136 274.804 252.166 274.95 252.159 275.097C252.151 275.243 252.106 275.385 252.029 275.509C251.951 275.633 251.843 275.736 251.715 275.807C251.587 275.878 251.442 275.915 251.296 275.914V275.921Z" fill="white"/>
<path d="M141.628 104.182C141.423 104.182 141.225 104.109 141.069 103.977C140.913 103.844 140.809 103.66 140.776 103.458C140.742 103.234 139.931 97.9401 143.338 93.9466C145.753 91.1257 149.57 89.698 154.719 89.698C154.947 89.698 155.167 89.7888 155.328 89.9505C155.49 90.1122 155.581 90.3315 155.581 90.5601C155.581 90.7888 155.49 91.0081 155.328 91.1698C155.167 91.3315 154.947 91.4223 154.719 91.4223C150.094 91.4223 146.704 92.6431 144.649 95.0502C141.756 98.4401 142.459 103.137 142.466 103.182C142.502 103.408 142.447 103.639 142.313 103.824C142.179 104.009 141.978 104.134 141.752 104.172L141.628 104.182Z" fill="white" fill-opacity="0.2"/>
<path d="M165.078 129.012C164.87 129.011 164.67 128.936 164.514 128.799C164.358 128.663 164.256 128.475 164.227 128.27C164.198 128.065 164.244 127.856 164.357 127.682C164.469 127.508 164.641 127.38 164.84 127.322C173.716 124.784 172.847 109.045 172.837 108.893C172.836 108.673 172.92 108.46 173.071 108.3C173.221 108.139 173.427 108.042 173.647 108.028C173.867 108.014 174.084 108.084 174.254 108.224C174.423 108.364 174.533 108.564 174.561 108.782C174.602 109.472 175.52 126.063 165.315 128.977C165.238 129.001 165.158 129.012 165.078 129.012Z" fill="white" fill-opacity="0.2"/>
<path d="M71.2788 277.646C71.1728 277.644 71.0697 277.61 70.9834 277.549C70.8971 277.487 70.8318 277.401 70.796 277.301C66.6577 266.472 68.1957 256.326 70.2235 249.712C72.4202 242.56 75.5516 238.032 75.6826 237.842C75.7613 237.73 75.8814 237.653 76.0165 237.629C76.1517 237.605 76.2908 237.636 76.4033 237.714C76.5158 237.793 76.5926 237.913 76.6165 238.048C76.6404 238.184 76.6096 238.323 76.5309 238.435C76.4068 238.615 64.0229 256.737 71.7615 276.921C71.786 276.985 71.7977 277.052 71.7961 277.12C71.7944 277.188 71.7795 277.255 71.7519 277.317C71.7244 277.379 71.6848 277.436 71.6356 277.482C71.5863 277.529 71.5284 277.566 71.465 277.59C71.4071 277.621 71.3438 277.639 71.2788 277.646Z" fill="black"/>
<path d="M350.959 289.715H67.486C67.3488 289.715 67.2173 289.661 67.1203 289.564C67.0233 289.467 66.9688 289.335 66.9688 289.198C66.9688 289.061 67.0233 288.929 67.1203 288.832C67.2173 288.735 67.3488 288.681 67.486 288.681H350.959C351.096 288.681 351.228 288.735 351.325 288.832C351.422 288.929 351.476 289.061 351.476 289.198C351.476 289.335 351.422 289.467 351.325 289.564C351.228 289.661 351.096 289.715 350.959 289.715Z" fill="black"/>
<path d="M85.7628 299.027H38.5173C38.3801 299.027 38.2486 298.972 38.1515 298.875C38.0545 298.778 38 298.647 38 298.509C38 298.372 38.0545 298.241 38.1515 298.144C38.2486 298.047 38.3801 297.992 38.5173 297.992H85.7628C85.9 297.992 86.0315 298.047 86.1285 298.144C86.2255 298.241 86.2801 298.372 86.2801 298.509C86.2801 298.647 86.2255 298.778 86.1285 298.875C86.0315 298.972 85.9 299.027 85.7628 299.027Z" fill="black"/>
<path d="M361.303 299.371H336.818C336.681 299.371 336.549 299.317 336.452 299.22C336.355 299.123 336.301 298.991 336.301 298.854C336.301 298.717 336.355 298.585 336.452 298.488C336.549 298.391 336.681 298.337 336.818 298.337H361.303C361.44 298.337 361.572 298.391 361.669 298.488C361.766 298.585 361.82 298.717 361.82 298.854C361.82 298.991 361.766 299.123 361.669 299.22C361.572 299.317 361.44 299.371 361.303 299.371Z" fill="black"/>
<path d="M140.356 282.711C138.773 282.711 135.79 282.401 133.459 280.349C131.39 278.528 130.355 275.828 130.355 272.317C130.355 268.807 131.39 266.148 133.459 264.42C136.749 261.661 141.329 262.461 141.522 262.499L140.974 265.568C140.939 265.568 137.597 265.01 135.456 266.824C134.139 267.938 133.47 269.783 133.47 272.317C133.47 274.852 134.159 276.8 135.539 278.007C137.715 279.928 141.056 279.563 141.074 279.559L141.47 282.663C141.1 282.702 140.728 282.718 140.356 282.711Z" fill="white"/>
<path d="M140.357 283.229C138.708 283.229 135.577 282.904 133.115 280.739C130.935 278.814 129.828 275.983 129.828 272.317C129.828 268.651 130.939 265.855 133.132 264.041C136.608 261.134 141.408 261.972 141.619 262.006L142.126 262.099L141.395 266.182L140.888 266.096C140.857 266.096 137.732 265.593 135.78 267.238C134.584 268.245 133.977 269.962 133.977 272.335C133.977 274.707 134.611 276.538 135.856 277.638C137.843 279.39 140.96 279.066 140.991 279.063L141.498 279.008L142.022 283.118L141.512 283.184C141.128 283.222 140.742 283.237 140.357 283.229ZM139.753 262.882C138.16 262.882 135.739 263.199 133.801 264.82C131.863 266.441 130.87 268.958 130.87 272.321C130.87 275.683 131.859 278.249 133.804 279.966C136.294 282.16 139.619 282.242 140.87 282.184L140.605 280.115C139.529 280.142 137.005 280.015 135.18 278.39C133.701 277.087 132.949 275.042 132.949 272.31C132.949 269.579 133.68 267.638 135.122 266.424C136.929 264.899 139.481 264.91 140.56 264.996L140.929 262.927C140.636 262.91 140.232 262.879 139.753 262.879V262.882Z" fill="black"/>
<path d="M162.693 254.847H145.971C143.364 254.847 141.25 256.96 141.25 259.568V284.132C141.25 286.739 143.364 288.853 145.971 288.853H162.693C165.301 288.853 167.414 286.739 167.414 284.132V259.568C167.414 256.96 165.301 254.847 162.693 254.847Z" fill="white"/>
<path d="M162.695 289.37H145.976C144.587 289.369 143.255 288.816 142.273 287.834C141.29 286.852 140.737 285.521 140.734 284.132V259.571C140.736 258.182 141.289 256.849 142.272 255.867C143.254 254.884 144.587 254.331 145.976 254.329H162.695C164.085 254.331 165.417 254.884 166.399 255.867C167.382 256.849 167.935 258.182 167.937 259.571V284.132C167.934 285.521 167.381 286.852 166.398 287.834C165.416 288.816 164.084 289.369 162.695 289.37ZM145.976 255.364C144.861 255.366 143.792 255.81 143.003 256.598C142.215 257.387 141.771 258.456 141.769 259.571V284.132C141.771 285.247 142.215 286.316 143.004 287.104C143.792 287.892 144.861 288.335 145.976 288.336H162.695C163.81 288.335 164.879 287.892 165.668 287.104C166.456 286.316 166.9 285.247 166.902 284.132V259.571C166.9 258.456 166.456 257.387 165.668 256.598C164.879 255.81 163.81 255.366 162.695 255.364H145.976Z" fill="black"/>
<path d="M149.663 250.815C149.578 250.816 149.494 250.795 149.418 250.754C149.343 250.714 149.279 250.656 149.232 250.584C146.239 246.07 148.628 241.963 150.549 238.683C151.584 236.9 152.574 235.235 152.574 233.766C152.574 226.12 147.684 223.896 147.473 223.806C147.347 223.752 147.248 223.649 147.197 223.522C147.146 223.394 147.148 223.251 147.202 223.125C147.257 222.999 147.359 222.899 147.487 222.849C147.615 222.798 147.757 222.8 147.884 222.854C148.118 222.954 153.608 225.41 153.608 233.766C153.608 235.49 152.574 237.297 151.443 239.208C149.48 242.563 147.456 246.036 150.094 250.015C150.132 250.072 150.158 250.135 150.171 250.201C150.184 250.268 150.184 250.336 150.17 250.402C150.157 250.469 150.13 250.532 150.092 250.588C150.054 250.644 150.006 250.692 149.949 250.729C149.865 250.786 149.765 250.816 149.663 250.815Z" fill="black"/>
<path d="M157.566 256.071C157.464 256.071 157.365 256.041 157.28 255.985C157.166 255.908 157.087 255.79 157.061 255.656C157.034 255.521 157.062 255.381 157.138 255.268C160.894 249.626 159.056 245.022 158.125 243.587C158.049 243.578 157.976 243.552 157.912 243.512C157.848 243.471 157.793 243.417 157.752 243.353C157.611 243.129 157.318 242.663 157.704 242.318C157.816 242.228 157.958 242.184 158.101 242.194C158.244 242.204 158.378 242.268 158.476 242.373C159.304 243.111 162.729 248.719 157.997 255.823C157.952 255.898 157.889 255.96 157.814 256.003C157.738 256.046 157.653 256.07 157.566 256.071Z" fill="black"/>
<path d="M164.737 284.543C164.508 284.543 164.289 284.452 164.128 284.29C163.966 284.128 163.875 283.909 163.875 283.681V259.885C163.875 259.657 163.966 259.437 164.128 259.276C164.289 259.114 164.508 259.023 164.737 259.023C164.966 259.023 165.185 259.114 165.347 259.276C165.508 259.437 165.599 259.657 165.599 259.885V283.681C165.599 283.909 165.508 284.128 165.347 284.29C165.185 284.452 164.966 284.543 164.737 284.543Z" fill="white"/>
<path d="M310.86 169.878C320.722 169.878 328.717 161.87 328.717 151.993C328.717 142.116 320.722 134.109 310.86 134.109C300.998 134.109 293.004 142.116 293.004 151.993C293.004 161.87 300.998 169.878 310.86 169.878Z" fill="#4BD657"/>
<path d="M310.859 170.395C307.218 170.4 303.658 169.326 300.628 167.307C297.598 165.288 295.235 162.416 293.838 159.054C292.441 155.692 292.073 151.991 292.78 148.42C293.487 144.849 295.237 141.567 297.81 138.991C300.382 136.415 303.661 134.659 307.231 133.947C310.801 133.235 314.503 133.598 317.867 134.99C321.231 136.382 324.107 138.74 326.13 141.767C328.153 144.794 329.233 148.352 329.233 151.993C329.231 156.868 327.295 161.544 323.851 164.993C320.406 168.443 315.734 170.386 310.859 170.395ZM310.859 134.626C307.423 134.621 304.062 135.635 301.203 137.54C298.343 139.445 296.113 142.155 294.794 145.328C293.475 148.501 293.128 151.994 293.795 155.364C294.462 158.735 296.113 161.832 298.541 164.264C300.969 166.695 304.063 168.352 307.433 169.024C310.803 169.697 314.296 169.354 317.471 168.041C320.646 166.727 323.36 164.501 325.269 161.645C327.179 158.788 328.198 155.429 328.198 151.993C328.197 147.392 326.371 142.98 323.12 139.724C319.87 136.468 315.46 134.634 310.859 134.626Z" fill="black"/>
<path d="M309.202 77.1108C314.147 77.1108 318.155 73.0965 318.155 68.1445C318.155 63.1926 314.147 59.1782 309.202 59.1782C304.258 59.1782 300.25 63.1926 300.25 68.1445C300.25 73.0965 304.258 77.1108 309.202 77.1108Z" fill="#4BD657"/>
<path d="M309.201 77.6281C307.324 77.6308 305.489 77.0769 303.928 76.0365C302.367 74.9961 301.149 73.5159 300.429 71.7832C299.709 70.0506 299.519 68.1433 299.884 66.3028C300.248 64.4622 301.15 62.7711 302.476 61.4435C303.802 60.1158 305.491 59.2112 307.331 58.8441C309.171 58.4771 311.079 58.6641 312.813 59.3815C314.547 60.0988 316.028 61.3144 317.071 62.8742C318.114 64.4341 318.67 66.2682 318.67 68.1445C318.669 70.657 317.672 73.0666 315.897 74.8445C314.121 76.6224 311.713 77.6235 309.201 77.6281ZM309.201 59.6955C307.529 59.6927 305.894 60.1859 304.503 61.1127C303.112 62.0394 302.026 63.358 301.385 64.9016C300.743 66.4452 300.574 68.1445 300.898 69.7843C301.223 71.4242 302.026 72.9309 303.207 74.1139C304.388 75.2969 305.894 76.103 307.533 76.4301C309.173 76.7572 310.872 76.5907 312.417 75.9517C313.961 75.3126 315.282 74.2296 316.211 72.8399C317.14 71.4502 317.636 69.8161 317.636 68.1445C317.635 65.9063 316.746 63.7599 315.165 62.176C313.584 60.5921 311.439 59.7 309.201 59.6955Z" fill="black"/>
<path d="M271.786 205.053C274.544 205.053 276.78 202.814 276.78 200.053C276.78 197.291 274.544 195.052 271.786 195.052C269.028 195.052 266.793 197.291 266.793 200.053C266.793 202.814 269.028 205.053 271.786 205.053Z" fill="#4BD657"/>
<path d="M271.787 205.57C270.696 205.57 269.629 205.247 268.722 204.64C267.815 204.034 267.107 203.172 266.689 202.164C266.272 201.156 266.163 200.047 266.376 198.976C266.588 197.906 267.114 196.923 267.886 196.151C268.657 195.379 269.641 194.854 270.711 194.641C271.781 194.428 272.891 194.537 273.899 194.955C274.907 195.373 275.769 196.08 276.375 196.987C276.981 197.895 277.305 198.961 277.305 200.053C277.305 201.516 276.724 202.919 275.689 203.954C274.654 204.989 273.251 205.57 271.787 205.57ZM271.787 195.569C270.901 195.569 270.034 195.832 269.296 196.325C268.559 196.818 267.985 197.518 267.645 198.337C267.306 199.156 267.217 200.058 267.39 200.927C267.563 201.797 267.99 202.596 268.617 203.223C269.244 203.85 270.043 204.277 270.913 204.45C271.782 204.623 272.684 204.534 273.503 204.195C274.322 203.855 275.022 203.281 275.515 202.543C276.008 201.806 276.27 200.939 276.27 200.053C276.27 198.864 275.798 197.723 274.957 196.883C274.117 196.042 272.976 195.569 271.787 195.569Z" fill="black"/>
<path d="M260.06 122.287C262.818 122.287 265.053 120.048 265.053 117.287C265.053 114.525 262.818 112.286 260.06 112.286C257.302 112.286 255.066 114.525 255.066 117.287C255.066 120.048 257.302 122.287 260.06 122.287Z" fill="#4BD657"/>
<path d="M260.061 122.804C258.969 122.804 257.903 122.481 256.995 121.874C256.088 121.268 255.381 120.406 254.963 119.398C254.545 118.39 254.436 117.28 254.649 116.21C254.862 115.14 255.387 114.157 256.159 113.385C256.931 112.613 257.914 112.088 258.984 111.875C260.055 111.662 261.164 111.771 262.172 112.189C263.18 112.606 264.042 113.314 264.649 114.221C265.255 115.128 265.578 116.195 265.578 117.287C265.578 118.75 264.997 120.153 263.962 121.188C262.927 122.223 261.524 122.804 260.061 122.804ZM260.061 112.803C259.174 112.803 258.307 113.066 257.57 113.559C256.833 114.052 256.258 114.752 255.919 115.571C255.579 116.39 255.491 117.292 255.664 118.161C255.837 119.031 256.264 119.83 256.891 120.457C257.518 121.084 258.316 121.511 259.186 121.684C260.056 121.857 260.957 121.768 261.776 121.428C262.595 121.089 263.296 120.514 263.788 119.777C264.281 119.04 264.544 118.173 264.544 117.287C264.544 116.098 264.071 114.957 263.231 114.116C262.39 113.276 261.25 112.803 260.061 112.803Z" fill="black"/>
<path d="M299.366 149.117L323.162 147.162C323.294 147.15 323.428 147.178 323.544 147.242C323.661 147.307 323.756 147.405 323.816 147.523C323.877 147.642 323.901 147.776 323.885 147.908C323.869 148.04 323.814 148.165 323.727 148.265L313.602 160.187C313.49 160.314 313.334 160.395 313.166 160.415C312.997 160.435 312.827 160.392 312.688 160.294L306.181 155.445C306.087 155.376 306.013 155.283 305.966 155.176C305.919 155.069 305.901 154.952 305.914 154.835C305.926 154.719 305.969 154.609 306.038 154.514C306.106 154.42 306.198 154.345 306.305 154.297L317.868 149.065L302.719 152.659C302.626 152.681 302.528 152.683 302.434 152.665C302.34 152.646 302.252 152.608 302.174 152.552L299.046 150.334C298.942 150.251 298.865 150.139 298.824 150.013C298.782 149.886 298.778 149.751 298.812 149.622C298.846 149.493 298.916 149.377 299.015 149.288C299.113 149.198 299.235 149.139 299.366 149.117Z" fill="#382256"/>
<path d="M260.274 20.0643L203.424 29.5134C196.027 30.7445 190.971 36.5037 191.761 42.7973L194.42 63.9095C195.206 70.1169 201.458 74.8553 208.904 74.8553H213.463L223.391 88.5427L233.944 74.8553H260.446C268.085 74.8553 274.427 69.9066 274.982 63.5129L277.63 32.9482C278.361 24.8957 269.712 18.4952 260.274 20.0643Z" fill="white"/>
<path d="M263.148 19.8264C271.387 19.8264 278.274 25.7234 277.632 32.9482L274.984 63.5129C274.429 69.9066 268.087 74.8553 260.448 74.8553H233.946L223.393 88.5427L213.478 74.8691H208.919C201.46 74.8691 195.208 70.1445 194.435 63.9233L191.763 42.7973C190.973 36.5037 196.029 30.7446 203.426 29.5134L260.276 20.0643C261.225 19.9056 262.186 19.826 263.148 19.8264ZM263.148 18.678C262.097 18.6793 261.047 18.7669 260.01 18.9401L203.16 28.3892C199.25 29.041 195.791 30.8825 193.425 33.562C191.059 36.2416 189.976 39.5729 190.404 42.9008L193.063 64.013C193.925 70.8377 200.739 75.983 208.926 75.983H212.72L222.248 89.1221C222.384 89.296 222.559 89.4361 222.758 89.5312C222.957 89.6264 223.176 89.674 223.397 89.6704H223.417C223.635 89.6748 223.852 89.6303 224.05 89.5402C224.249 89.4501 224.425 89.3166 224.566 89.1496L234.715 75.983H260.472C268.783 75.983 275.767 70.5342 276.37 63.5681L279.019 33.0034C279.346 29.2548 277.849 25.6786 274.804 22.9335C271.759 20.1885 267.562 18.6504 263.159 18.6504L263.148 18.678Z" fill="black"/>
<path d="M216.291 48.7565C216.128 48.7704 215.965 48.7209 215.836 48.6182C215.708 48.5156 215.624 48.3675 215.602 48.2047C215.61 48.0388 215.683 47.8829 215.806 47.771C215.929 47.6592 216.091 47.6006 216.257 47.6081L259.337 46.2045C259.42 46.1934 259.504 46.199 259.585 46.2208C259.666 46.2426 259.741 46.2803 259.807 46.3317C259.873 46.383 259.929 46.447 259.97 46.5199C260.011 46.5928 260.037 46.6732 260.047 46.7563C260.043 46.8383 260.023 46.9187 259.988 46.993C259.952 47.0672 259.903 47.1337 259.842 47.1888C259.781 47.2439 259.71 47.2865 259.633 47.314C259.556 47.3416 259.474 47.3537 259.392 47.3495L216.312 48.753L216.291 48.7565Z" fill="black"/>
<path d="M217.971 59.2851C217.809 59.2976 217.648 59.2489 217.521 59.1487C217.393 59.0484 217.308 58.9039 217.281 58.7437C217.283 58.6614 217.302 58.5804 217.335 58.5053C217.369 58.4301 217.417 58.3624 217.477 58.306C217.537 58.2496 217.608 58.2056 217.685 58.1766C217.762 58.1475 217.844 58.134 217.926 58.1367L248.46 56.7332C248.627 56.7132 248.795 56.7583 248.929 56.8592C249.063 56.96 249.153 57.1089 249.181 57.2746C249.178 57.3567 249.16 57.4376 249.126 57.5125C249.092 57.5874 249.044 57.6549 248.984 57.711C248.924 57.7672 248.854 57.8109 248.777 57.8395C248.7 57.8682 248.618 57.8813 248.536 57.8781L218.016 59.2851H217.971Z" fill="black"/>
<path d="M212.754 35.0105C199.742 35.0105 187.958 31.4171 179.609 27.9444C167.949 23.0957 160.297 17.4297 160.218 17.3745C160.152 17.3313 160.097 17.2734 160.058 17.2055C160.018 17.1376 159.995 17.0614 159.989 16.983C159.984 16.9045 159.997 16.8259 160.027 16.7533C160.057 16.6806 160.104 16.6159 160.163 16.5641C160.294 16.4488 160.461 16.3813 160.635 16.3726C160.81 16.3638 160.982 16.4143 161.125 16.5158C161.201 16.5744 168.743 22.1508 180.247 26.9305C190.827 31.3275 207.022 35.9244 224.103 32.8793C224.269 32.8398 224.443 32.863 224.593 32.9445C224.742 33.026 224.856 33.16 224.913 33.3207C224.929 33.401 224.928 33.4838 224.909 33.5635C224.891 33.6433 224.856 33.7182 224.806 33.7833C224.757 33.8485 224.694 33.9024 224.622 33.9416C224.55 33.9807 224.471 34.0042 224.389 34.0104C220.548 34.6856 216.654 35.0203 212.754 35.0105Z" fill="black"/>
<path d="M197.668 56.5124C183.905 56.5124 174.122 48.6911 174.001 48.5807C173.939 48.5331 173.888 48.4717 173.853 48.4015C173.819 48.3312 173.801 48.2539 173.801 48.1755C173.801 48.0971 173.819 48.0198 173.853 47.9496C173.888 47.8793 173.939 47.818 174.001 47.7703C174.138 47.6612 174.308 47.6018 174.484 47.6018C174.659 47.6018 174.829 47.6612 174.966 47.7703C175.115 47.891 189.944 59.7196 208.538 53.6156C208.7 53.5558 208.878 53.5555 209.039 53.6149C209.201 53.6743 209.337 53.7895 209.421 53.9398C209.452 54.0134 209.466 54.0929 209.462 54.1725C209.459 54.2522 209.438 54.3301 209.401 54.4008C209.364 54.4715 209.313 54.5333 209.249 54.5817C209.186 54.6302 209.113 54.6642 209.035 54.6813C205.368 55.895 201.531 56.5132 197.668 56.5124Z" fill="black"/>
<path d="M310.2 81.3801C305.886 81.3801 302.434 78.9661 302.376 78.9109C302.264 78.8304 302.189 78.7089 302.167 78.5731C302.145 78.4373 302.178 78.2983 302.258 78.1867C302.339 78.0751 302.46 78.0001 302.596 77.9781C302.732 77.9561 302.871 77.989 302.982 78.0694C303.327 78.3108 311.314 83.9113 317.811 76.7624C317.906 76.6745 318.03 76.6252 318.16 76.6243C318.289 76.6233 318.413 76.6708 318.509 76.7572C318.605 76.8437 318.666 76.963 318.678 77.0916C318.691 77.2202 318.654 77.3488 318.577 77.4521C315.859 80.4524 312.852 81.3801 310.2 81.3801Z" fill="black"/>
<path d="M298.885 172.464C298.8 172.463 298.716 172.442 298.64 172.402C283.611 164.363 287.998 149.527 288.046 149.379C288.094 149.257 288.185 149.158 288.303 149.101C288.421 149.044 288.555 149.033 288.68 149.072C288.805 149.11 288.911 149.195 288.977 149.308C289.042 149.421 289.062 149.555 289.032 149.683C288.36 152.31 288.236 155.048 288.67 157.725C289.626 163.66 293.153 168.291 299.13 171.491C299.231 171.546 299.311 171.633 299.357 171.738C299.404 171.843 299.414 171.961 299.386 172.073C299.358 172.184 299.293 172.283 299.203 172.354C299.112 172.425 299 172.464 298.885 172.464Z" fill="black"/>
<path d="M271.987 62.4544H271.914C271.687 62.435 271.476 62.3261 271.328 62.1515C271.181 61.9769 271.109 61.751 271.128 61.5232L273.542 33.2449C273.552 33.1317 273.583 33.0215 273.635 32.9205C273.687 32.8195 273.759 32.7298 273.846 32.6565C273.933 32.5832 274.033 32.5276 274.141 32.4931C274.249 32.4586 274.363 32.4457 274.477 32.4552C274.59 32.4647 274.7 32.4964 274.801 32.5485C274.902 32.6006 274.992 32.6721 275.065 32.7589C275.138 32.8457 275.194 32.9461 275.229 33.0543C275.263 33.1625 275.276 33.2765 275.266 33.3897L272.852 61.6681C272.834 61.8842 272.735 62.0855 272.574 62.2313C272.414 62.3772 272.204 62.4569 271.987 62.4544Z" fill="white"/>
<path d="M323.714 161.773C323.564 161.774 323.416 161.734 323.285 161.659C323.154 161.584 323.045 161.476 322.969 161.346C322.893 161.216 322.852 161.068 322.851 160.918C322.85 160.767 322.889 160.618 322.963 160.487C325.594 155.811 326.266 151.448 324.963 147.524C322.749 140.861 315.507 137.592 315.435 137.561C315.232 137.465 315.075 137.294 314.996 137.084C314.917 136.874 314.924 136.642 315.014 136.437C315.103 136.231 315.269 136.069 315.477 135.984C315.684 135.899 315.916 135.898 316.124 135.982C316.448 136.126 324.125 139.575 326.587 146.965C328.06 151.372 327.342 156.207 324.459 161.335C324.385 161.467 324.276 161.577 324.146 161.654C324.015 161.731 323.866 161.772 323.714 161.773Z" fill="white"/>
<path d="M329.128 283.336H214.301V289.026H329.128V283.336Z" fill="#4BD657"/>
<path d="M329.65 289.543H213.777V282.818H329.65V289.543ZM214.812 288.509H328.615V283.853H214.812V288.509Z" fill="black"/>
<path d="M329.129 283.336H264.055L293.992 224.31C294.824 222.667 296.095 221.287 297.663 220.323C299.232 219.359 301.037 218.848 302.879 218.847H355.956C356.574 218.848 357.181 219.007 357.72 219.309C358.259 219.611 358.711 220.047 359.034 220.573C359.356 221.1 359.539 221.701 359.563 222.318C359.588 222.935 359.453 223.549 359.173 224.099L329.129 283.336Z" fill="#4BD657"/>
<path d="M329.448 283.853H263.211L293.538 224.075C294.408 222.345 295.743 220.891 297.393 219.876C299.043 218.862 300.943 218.326 302.88 218.33H355.957C356.663 218.332 357.356 218.515 357.971 218.861C358.586 219.207 359.103 219.704 359.471 220.306C359.84 220.907 360.049 221.593 360.078 222.298C360.107 223.003 359.955 223.704 359.637 224.334L329.448 283.853ZM264.915 282.818H328.831L358.73 223.848C358.964 223.376 359.074 222.853 359.05 222.327C359.026 221.801 358.869 221.29 358.593 220.841C358.317 220.393 357.932 220.022 357.473 219.764C357.014 219.506 356.497 219.368 355.971 219.364H302.88C301.134 219.36 299.421 219.841 297.933 220.754C296.445 221.668 295.241 222.978 294.455 224.537L264.915 282.818Z" fill="black"/>
<path d="M321.056 253.26C322.372 249.483 321.034 245.583 318.067 244.549C315.099 243.514 311.626 245.737 310.31 249.514C308.993 253.29 310.331 257.191 313.299 258.225C316.266 259.26 319.739 257.037 321.056 253.26Z" fill="#4BD657"/>
<path d="M314.92 259.047C314.346 259.048 313.776 258.952 313.234 258.765C310.002 257.637 308.519 253.433 309.926 249.391C310.544 247.531 311.765 245.929 313.396 244.839C314.999 243.805 316.754 243.556 318.344 244.108C321.575 245.236 323.058 249.44 321.651 253.481C321.033 255.342 319.812 256.944 318.182 258.034C317.214 258.677 316.082 259.029 314.92 259.047ZM316.661 244.86C315.696 244.879 314.757 245.175 313.954 245.712C312.518 246.675 311.445 248.09 310.906 249.733C309.685 253.233 310.881 256.847 313.575 257.785C314.858 258.234 316.296 258.013 317.623 257.161C319.059 256.198 320.132 254.783 320.672 253.14L321.162 253.309L320.672 253.14C321.893 249.64 320.696 246.026 318.003 245.088C317.566 244.934 317.107 244.857 316.644 244.86H316.661Z" fill="black"/>
<path d="M328.197 276.611C328.047 276.611 327.9 276.572 327.771 276.498C327.641 276.423 327.532 276.317 327.456 276.188C327.38 276.059 327.339 275.913 327.336 275.763C327.334 275.614 327.37 275.466 327.441 275.335L354.34 226.02C354.456 225.831 354.64 225.694 354.854 225.637C355.068 225.58 355.296 225.607 355.49 225.714C355.685 225.82 355.831 225.997 355.898 226.209C355.965 226.42 355.948 226.649 355.851 226.848L328.952 276.163C328.878 276.298 328.769 276.412 328.636 276.491C328.503 276.57 328.351 276.611 328.197 276.611Z" fill="white"/>
<path d="M316.125 257.644C315.939 257.644 315.758 257.584 315.609 257.473C315.459 257.361 315.35 257.205 315.297 257.026C315.244 256.847 315.251 256.657 315.316 256.482C315.38 256.307 315.5 256.158 315.656 256.057C317.604 254.792 318.739 253.298 319.032 251.64C319.47 249.14 317.87 246.977 317.853 246.957C317.785 246.866 317.735 246.763 317.707 246.653C317.679 246.544 317.673 246.429 317.689 246.317C317.705 246.205 317.743 246.097 317.801 246C317.858 245.903 317.935 245.818 318.025 245.75C318.116 245.682 318.219 245.632 318.329 245.604C318.438 245.576 318.552 245.57 318.664 245.586C318.777 245.602 318.885 245.64 318.982 245.697C319.079 245.755 319.164 245.831 319.232 245.922C319.315 246.032 321.301 248.681 320.743 251.926C320.367 254.092 318.974 255.971 316.604 257.516C316.461 257.605 316.294 257.649 316.125 257.644Z" fill="white"/>
<path d="M264.052 288.715C263.915 288.715 263.784 288.661 263.687 288.564C263.59 288.467 263.535 288.335 263.535 288.198V283.336C263.535 283.198 263.59 283.067 263.687 282.97C263.784 282.873 263.915 282.818 264.052 282.818C264.19 282.818 264.321 282.873 264.418 282.97C264.515 283.067 264.57 283.198 264.57 283.336V288.198C264.57 288.335 264.515 288.467 264.418 288.564C264.321 288.661 264.19 288.715 264.052 288.715Z" fill="black"/>
<defs>
<filter id="filter0_d_14053_49195" x="-4.02115" y="107.786" width="38.6868" height="38.6842" filterUnits="userSpaceOnUse" color-interpolation-filters="sRGB">
<feFlood flood-opacity="0" result="BackgroundImageFix"/>
<feColorMatrix in="SourceAlpha" type="matrix" values="0 0 0 0 0 0 0 0 0 0 0 0 0 0 0 0 0 0 127 0" result="hardAlpha"/>
<feOffset dy="2.03704"/>
<feGaussianBlur stdDeviation="5.09261"/>
<feComposite in2="hardAlpha" operator="out"/>
<feColorMatrix type="matrix" values="0 0 0 0 0 0 0 0 0 0 0 0 0 0 0 0 0 0 0.05 0"/>
<feBlend mode="normal" in2="BackgroundImageFix" result="effect1_dropShadow_14053_49195"/>
<feBlend mode="normal" in="SourceGraphic" in2="effect1_dropShadow_14053_49195" result="shape"/>
</filter>
<filter id="filter1_d_14053_49195" x="370.651" y="165.21" width="38.6868" height="38.6885" filterUnits="userSpaceOnUse" color-interpolation-filters="sRGB">
<feFlood flood-opacity="0" result="BackgroundImageFix"/>
<feColorMatrix in="SourceAlpha" type="matrix" values="0 0 0 0 0 0 0 0 0 0 0 0 0 0 0 0 0 0 127 0" result="hardAlpha"/>
<feOffset dy="2.03704"/>
<feGaussianBlur stdDeviation="5.09261"/>
<feComposite in2="hardAlpha" operator="out"/>
<feColorMatrix type="matrix" values="0 0 0 0 0 0 0 0 0 0 0 0 0 0 0 0 0 0 0.05 0"/>
<feBlend mode="normal" in2="BackgroundImageFix" result="effect1_dropShadow_14053_49195"/>
<feBlend mode="normal" in="SourceGraphic" in2="effect1_dropShadow_14053_49195" result="shape"/>
</filter>
<linearGradient id="paint0_linear_14053_49195" x1="20.4527" y1="112.038" x2="392.051" y2="200.547" gradientUnits="userSpaceOnUse">
<stop stop-color="#CDD5E2"/>
<stop offset="1" stop-color="#CDD5E2" stop-opacity="0"/>
</linearGradient>
<linearGradient id="paint1_linear_14053_49195" x1="391.411" y1="195.438" x2="353.85" y2="294.044" gradientUnits="userSpaceOnUse">
<stop stop-color="#CDD5E2"/>
<stop offset="1" stop-color="#CDD5E2" stop-opacity="0"/>
</linearGradient>
<linearGradient id="paint2_linear_14053_49195" x1="196.502" y1="23.2605" x2="196.502" y2="365.006" gradientUnits="userSpaceOnUse">
<stop stop-color="#CDD5E2"/>
<stop offset="1" stop-color="#CDD5E2" stop-opacity="0"/>
</linearGradient>
<linearGradient id="paint3_linear_14053_49195" x1="196.503" y1="57.4338" x2="196.503" y2="330.83" gradientUnits="userSpaceOnUse">
<stop stop-color="#CDD5E2"/>
<stop offset="1" stop-color="#CDD5E2" stop-opacity="0"/>
</linearGradient>
</defs>
</svg>
