<svg width="406" height="302" viewBox="0 0 406 302" fill="none" xmlns="http://www.w3.org/2000/svg">
<mask id="mask0_14030_98764" style="mask-type:alpha" maskUnits="userSpaceOnUse" x="0" y="0" width="406" height="302">
<rect width="405.823" height="301.875" fill="#D9D9D9"/>
</mask>
<g mask="url(#mask0_14030_98764)">
<g opacity="0.5">
<mask id="path-2-inside-1_14030_98764" fill="white">
<path d="M389.978 202.564C391.994 156.308 377.371 110.86 348.758 74.4585C320.146 38.0572 279.439 13.1117 234.015 4.14391C188.591 -4.82387 141.458 2.77957 101.158 25.576C60.8587 48.3724 30.0604 84.853 14.3459 128.405L15.1855 128.708C30.8276 85.3568 61.484 49.0443 101.598 26.353C141.712 3.66161 188.628 -3.90679 233.842 5.01966C279.056 13.9461 319.576 38.7766 348.057 75.0102C376.537 111.244 391.093 156.482 389.087 202.526L389.978 202.564Z"/>
</mask>
<path d="M389.978 202.564C391.994 156.308 377.371 110.86 348.758 74.4585C320.146 38.0572 279.439 13.1117 234.015 4.14391C188.591 -4.82387 141.458 2.77957 101.158 25.576C60.8587 48.3724 30.0604 84.853 14.3459 128.405L15.1855 128.708C30.8276 85.3568 61.484 49.0443 101.598 26.353C141.712 3.66161 188.628 -3.90679 233.842 5.01966C279.056 13.9461 319.576 38.7766 348.057 75.0102C376.537 111.244 391.093 156.482 389.087 202.526L389.978 202.564Z" stroke="url(#paint0_linear_14030_98764)" stroke-width="2.84788" stroke-dasharray="4.27 4.27" mask="url(#path-2-inside-1_14030_98764)"/>
</g>
<g opacity="0.5">
<mask id="path-3-inside-2_14030_98764" fill="white">
<path d="M14.6038 260.573C30.4887 304.063 61.4296 340.423 101.818 363.061C142.206 385.7 189.369 393.119 234.758 383.973C280.146 374.828 320.755 349.723 349.225 313.21C377.695 276.697 392.14 231.192 389.943 184.944L389.051 184.986C391.238 231.021 376.859 276.316 348.521 312.661C320.182 349.006 279.76 373.995 234.581 383.098C189.402 392.201 142.457 384.817 102.254 362.282C62.0522 339.748 31.2539 303.556 15.4423 260.266L14.6038 260.573Z"/>
</mask>
<path d="M14.6038 260.573C30.4887 304.063 61.4296 340.423 101.818 363.061C142.206 385.7 189.369 393.119 234.758 383.973C280.146 374.828 320.755 349.723 349.225 313.21C377.695 276.697 392.14 231.192 389.943 184.944L389.051 184.986C391.238 231.021 376.859 276.316 348.521 312.661C320.182 349.006 279.76 373.995 234.581 383.098C189.402 392.201 142.457 384.817 102.254 362.282C62.0522 339.748 31.2539 303.556 15.4423 260.266L14.6038 260.573Z" stroke="url(#paint1_linear_14030_98764)" stroke-width="2.84788" stroke-dasharray="4.27 4.27" mask="url(#path-3-inside-2_14030_98764)"/>
</g>
<circle opacity="0.08" cx="196.502" cy="194.133" r="170.873" fill="url(#paint2_linear_14030_98764)"/>
<circle opacity="0.1" cx="196.505" cy="194.132" r="136.698" fill="url(#paint3_linear_14030_98764)"/>
<circle cx="196.504" cy="194.133" r="91.1321" fill="white"/>
<g filter="url(#filter0_d_14030_98764)">
<circle cx="15.3224" cy="125.091" r="7.11969" transform="rotate(-2.50406 15.3224 125.091)" fill="#0170FF"/>
<circle cx="15.3224" cy="125.091" r="8.13822" transform="rotate(-2.50406 15.3224 125.091)" stroke="white" stroke-width="2.03704"/>
</g>
<g filter="url(#filter1_d_14030_98764)">
<circle cx="389.993" cy="182.517" r="7.11969" transform="rotate(-15.7345 389.993 182.517)" fill="#0170FF"/>
<circle cx="389.993" cy="182.517" r="8.13822" transform="rotate(-15.7345 389.993 182.517)" stroke="white" stroke-width="2.03704"/>
</g>
</g>
<path d="M312.144 25.1332H144.044C142.293 25.133 140.559 25.484 138.943 26.1654C137.327 26.8468 135.862 27.8452 134.633 29.1026C133.403 30.36 132.434 31.8512 131.781 33.4897C131.128 35.1282 130.804 36.8813 130.829 38.6469L133.284 213.77" fill="white"/>
<path d="M132.742 213.781L130.305 38.6549C130.279 36.8182 130.616 34.9947 131.294 33.29C131.973 31.5853 132.98 30.0333 134.258 28.7243C135.537 27.4153 137.06 26.3753 138.74 25.6645C140.42 24.9537 142.223 24.5862 144.045 24.5835H312.144V25.6771H144.045C142.365 25.677 140.702 26.0133 139.153 26.6668C137.603 27.3203 136.198 28.2778 135.019 29.4836C133.84 30.6895 132.91 32.1197 132.284 33.691C131.658 35.2623 131.348 36.9434 131.372 38.6366L133.827 213.759L132.742 213.781Z" fill="#1D1E1B"/>
<path d="M183.388 103.958L131.609 105.033L131.632 106.127L183.411 105.051L183.388 103.958Z" fill="#1D1E1B"/>
<path d="M250.317 25.1327C250.317 25.1327 239.47 82.3659 291.535 145.796C285.099 164.691 284.582 180.625 290.812 193.187C290.812 193.187 318.29 220.528 328.414 210.685C331.057 208.115 328.511 177.668 328.775 160.014C329.195 131.911 334.69 109.98 338.176 78.356C341.068 52.1089 340.754 30.9654 338.537 26.9554C331.668 14.5609 249.956 14.9255 250.317 25.1327Z" fill="white"/>
<path d="M322.73 213.373C310.491 213.373 291.386 194.529 290.432 193.578L290.367 193.516L290.327 193.432C284.224 181.129 284.426 165.14 290.924 145.91C279.104 131.474 269.591 116.164 262.635 100.408C257.142 88.0679 253.189 75.0882 250.866 61.7665C247.222 40.4079 249.59 26.125 249.782 25.0861C249.756 23.0884 252.031 21.4735 256.731 20.1502C266.251 17.4671 284.813 16.3517 302.92 17.376C312.523 17.9192 335.265 19.9278 339.018 26.6827C341.234 30.6927 341.73 51.1073 338.721 78.4116C337.445 90.0004 335.912 100.193 334.43 110.05C331.942 126.604 329.589 142.239 329.325 160.018C329.231 166.336 329.498 174.323 329.755 182.048C330.323 198.919 330.576 209.344 328.797 211.072C327.134 212.687 325.055 213.373 322.73 213.373ZM291.256 192.863C292.728 194.322 318.637 219.435 328.037 210.292C329.56 208.812 329.082 194.617 328.663 182.095C328.406 174.356 328.139 166.354 328.233 160.007C328.5 142.145 330.854 126.469 333.349 109.893C334.831 100.051 336.36 89.8655 337.637 78.2985C340.58 51.5848 340.168 30.9882 338.063 27.2224C335.641 22.8479 322.48 19.5853 302.851 18.4734C285.135 17.4709 266.283 18.5937 257.016 21.2075C252.996 22.3412 250.809 23.7265 250.87 25.1117V25.1737V25.2319C250.845 25.3777 248.22 39.7407 251.955 61.6388C255.415 81.8491 265.162 112.795 291.961 145.447L292.156 145.681L292.059 145.972C285.565 165.002 285.301 180.775 291.256 192.863Z" fill="black"/>
<path d="M208.737 86.0136L207.291 31.6967V25.1349" fill="white"/>
<path d="M208.194 86.0282L206.748 31.7113V25.1349H207.833V31.6967L209.279 85.9992L208.194 86.0282Z" fill="#1D1E1B"/>
<path d="M293.295 122.828C277.889 105.02 272.48 83.457 270.658 68.4925C268.684 52.2922 270.373 40.1236 270.387 40.0033L271.472 40.1601C271.472 40.2804 269.787 52.3285 271.75 68.3903C273.558 83.1871 278.905 104.52 294.123 122.109L293.295 122.828Z" fill="#1D1E1B"/>
<path d="M324.603 84.3166L323.547 84.0616C328.171 64.697 325.716 40.3819 325.716 40.1377L326.801 40.0247C326.808 40.258 329.27 64.7662 324.603 84.3166Z" fill="#1D1E1B"/>
<path d="M345.768 48.8291C345.768 48.8291 347.938 76.1698 340.345 108.614L345.768 48.8291Z" fill="white"/>
<path d="M340.873 108.741L339.817 108.49C347.301 76.5085 345.241 49.1458 345.241 48.8724L346.325 48.785C346.329 49.0621 348.397 76.585 340.873 108.741Z" fill="#1D1E1B"/>
<path d="M327.509 112.803C327.433 112.803 327.357 112.796 327.282 112.781C327.142 112.751 327.01 112.693 326.893 112.612C326.776 112.53 326.675 112.425 326.598 112.305C326.521 112.184 326.468 112.049 326.443 111.907C326.417 111.766 326.42 111.621 326.45 111.48C334.986 71.3037 331.168 32.3742 331.129 31.9877C331.099 31.6977 331.186 31.4077 331.368 31.1818C331.551 30.9558 331.815 30.8123 332.103 30.7829C332.391 30.7534 332.678 30.8403 332.902 31.0246C333.126 31.2088 333.269 31.4754 333.298 31.7654C333.338 32.1555 337.196 71.4094 328.58 111.939C328.527 112.186 328.392 112.406 328.197 112.563C328.002 112.721 327.759 112.806 327.509 112.803Z" fill="white"/>
<path d="M273.999 103.689C273.791 103.689 273.587 103.628 273.412 103.514C273.237 103.401 273.098 103.239 273.012 103.047C260.357 75.0103 265.282 40.0833 265.332 39.737C265.374 39.4498 265.527 39.1911 265.758 39.0178C265.989 38.8445 266.279 38.7709 266.563 38.813C266.848 38.855 267.105 39.0093 267.277 39.2421C267.449 39.4749 267.522 39.767 267.48 40.0541C267.429 40.3968 262.613 74.6857 274.986 102.143C275.046 102.274 275.08 102.417 275.086 102.561C275.092 102.706 275.069 102.85 275.019 102.986C274.969 103.121 274.892 103.246 274.794 103.351C274.696 103.457 274.578 103.542 274.447 103.601C274.306 103.664 274.153 103.694 273.999 103.689Z" fill="white"/>
<path d="M242.465 158.442C230.66 158.442 221.06 149.518 221.06 138.545C221.06 127.572 230.66 118.648 242.465 118.648C254.27 118.648 263.869 127.572 263.869 138.545C263.869 149.518 254.266 158.442 242.465 158.442ZM242.465 119.742C231.256 119.742 222.145 128.178 222.145 138.545C222.145 148.913 231.26 157.348 242.465 157.348C253.669 157.348 262.784 148.913 262.784 138.545C262.784 128.178 253.669 119.731 242.465 119.731V119.742Z" fill="#1D1E1B"/>
<path d="M238.624 157.226C248.764 157.226 256.984 148.938 256.984 138.714C256.984 128.491 248.764 120.203 238.624 120.203C228.484 120.203 220.264 128.491 220.264 138.714C220.264 148.938 228.484 157.226 238.624 157.226Z" fill="#382256"/>
<path d="M238.624 157.773C234.886 157.773 231.231 156.655 228.123 154.561C225.014 152.467 222.591 149.49 221.161 146.008C219.73 142.525 219.356 138.693 220.085 134.996C220.814 131.299 222.615 127.903 225.258 125.238C227.902 122.573 231.27 120.758 234.937 120.022C238.603 119.287 242.404 119.664 245.858 121.107C249.312 122.549 252.264 124.992 254.341 128.126C256.418 131.26 257.526 134.945 257.526 138.714C257.521 143.767 255.527 148.611 251.984 152.184C248.44 155.757 243.636 157.767 238.624 157.773ZM238.624 120.753C235.1 120.753 231.655 121.807 228.725 123.781C225.795 125.755 223.511 128.561 222.163 131.844C220.814 135.127 220.461 138.739 221.149 142.224C221.837 145.709 223.534 148.91 226.026 151.422C228.519 153.934 231.694 155.645 235.15 156.338C238.607 157.031 242.189 156.674 245.445 155.314C248.701 153.954 251.483 151.651 253.441 148.696C255.398 145.741 256.442 142.268 256.442 138.714C256.436 133.952 254.557 129.386 251.217 126.019C247.876 122.652 243.348 120.758 238.624 120.753Z" fill="#1D1E1B"/>
<path d="M207.118 144.052C146.702 155.823 167.181 246.649 167.181 246.649L271.606 246.317C271.606 246.317 286.213 151.456 217.914 140.858" fill="#07ACEE"/>
<path d="M167.181 247.195C167.058 247.195 166.938 247.152 166.842 247.075C166.746 246.998 166.678 246.89 166.649 246.769C164.688 237.062 163.581 227.199 163.341 217.296C162.958 202.083 164.661 180.615 174.937 164.736C182.291 153.369 193.08 146.232 207.003 143.516C207.145 143.488 207.291 143.518 207.41 143.6C207.53 143.681 207.612 143.807 207.639 143.95C207.667 144.092 207.637 144.24 207.556 144.36C207.475 144.481 207.351 144.564 207.209 144.591C193.586 147.245 183.035 154.226 175.848 165.33C165.724 180.969 164.05 202.193 164.422 217.245C164.665 226.937 165.735 236.591 167.618 246.098L271.136 245.77C272.327 236.184 272.665 226.509 272.145 216.862C271.342 201.715 267.929 180.28 256.237 164.185C247.096 151.601 234.181 143.935 217.832 141.401C217.76 141.391 217.692 141.366 217.63 141.328C217.569 141.291 217.515 141.242 217.472 141.183C217.429 141.125 217.398 141.059 217.381 140.988C217.364 140.918 217.36 140.844 217.371 140.772C217.381 140.701 217.406 140.632 217.443 140.57C217.48 140.507 217.529 140.453 217.587 140.41C217.645 140.367 217.711 140.336 217.781 140.318C217.851 140.301 217.923 140.297 217.994 140.308C234.626 142.889 247.798 150.705 257.111 163.529C268.963 179.85 272.416 201.518 273.226 216.818C273.769 226.688 273.406 236.587 272.141 246.39C272.122 246.519 272.057 246.636 271.959 246.721C271.861 246.806 271.736 246.853 271.606 246.853L167.181 247.185V247.195Z" fill="#1D1D1B"/>
<path d="M273.349 247.845C298.825 259.212 309.549 246.507 316.23 239.639C325.652 229.946 344.07 202.667 341.452 192.941C338.835 183.215 331.69 183.292 331.69 183.292L331.195 175.666L305.119 171.696L304.331 176.799C304.331 176.799 296.193 173.683 292.187 187.145C289.526 196.087 286.514 208.347 286.846 213.731C286.846 213.731 285.147 157.176 229.246 143.684" fill="#07ACEE"/>
<path d="M291.883 252.92C286.676 252.92 280.508 251.637 273.132 248.345C273.063 248.319 273 248.278 272.947 248.227C272.894 248.175 272.852 248.113 272.823 248.045C272.795 247.976 272.78 247.902 272.781 247.828C272.782 247.754 272.797 247.68 272.827 247.612C272.857 247.544 272.9 247.483 272.954 247.432C273.008 247.382 273.072 247.343 273.142 247.318C273.211 247.293 273.285 247.283 273.359 247.287C273.432 247.292 273.504 247.312 273.57 247.346C297.682 258.104 308.117 247.273 315.022 240.103L315.843 239.257C325.898 228.911 343.408 202.303 340.932 193.087C338.455 183.872 331.98 183.832 331.705 183.839C331.567 183.839 331.434 183.787 331.334 183.692C331.233 183.597 331.172 183.467 331.162 183.329L330.696 176.14L305.586 172.319L304.881 176.876C304.868 176.956 304.838 177.032 304.793 177.099C304.748 177.165 304.688 177.221 304.619 177.262C304.55 177.303 304.473 177.329 304.393 177.336C304.314 177.344 304.233 177.334 304.158 177.306C302.486 176.812 300.69 176.983 299.139 177.784C296.344 179.187 294.19 182.384 292.729 187.295C290.003 196.452 287.208 207.997 287.392 213.356C287.392 213.575 287.41 213.695 287.41 213.721C287.417 213.866 287.366 214.007 287.269 214.115C287.172 214.222 287.037 214.286 286.893 214.293C286.749 214.3 286.609 214.249 286.502 214.151C286.396 214.053 286.332 213.917 286.326 213.772C286.326 213.659 286.326 213.542 286.307 213.407C286.185 211.18 285.19 198.173 278.523 183.956C271.809 169.64 257.791 151.121 229.145 144.22C229.015 144.178 228.906 144.088 228.839 143.968C228.772 143.849 228.752 143.708 228.784 143.574C228.815 143.44 228.896 143.323 229.009 143.246C229.122 143.169 229.26 143.138 229.395 143.16C242.233 146.258 253.275 151.909 262.213 159.929C269.361 166.348 275.186 174.295 279.521 183.551C283.061 191.205 285.496 199.33 286.752 207.68C287.645 201.698 289.677 193.707 291.669 187.007C293.224 181.779 295.578 178.353 298.666 176.818C300.28 176 302.121 175.757 303.89 176.129L304.588 171.638C304.61 171.495 304.687 171.368 304.802 171.282C304.917 171.197 305.061 171.161 305.203 171.182L331.278 175.148C331.401 175.167 331.513 175.228 331.596 175.32C331.68 175.412 331.73 175.53 331.737 175.655L332.204 182.811C333.954 183.019 339.688 184.346 341.966 192.825C344.739 203.127 325.714 230.679 316.606 240.048L315.789 240.89C311.107 245.738 304.187 252.92 291.883 252.92Z" fill="#1D1D1B"/>
<path d="M304.978 177.278C304.978 177.278 310.123 189.337 331.538 183.759L330.869 176.25L305.921 172.385L304.978 177.278Z" fill="#0598C6"/>
<path d="M247.632 218.932C247.755 217.656 246.829 216.521 245.565 216.398C244.301 216.274 243.177 217.209 243.054 218.486C242.932 219.762 243.857 220.897 245.121 221.02C246.385 221.144 247.51 220.209 247.632 218.932Z" fill="#51CEF4"/>
<path d="M215.334 195.83C215.617 194.58 214.843 193.335 213.604 193.05C212.366 192.765 211.133 193.548 210.85 194.798C210.567 196.048 211.341 197.293 212.579 197.578C213.817 197.863 215.051 197.08 215.334 195.83Z" fill="#51CEF4"/>
<path d="M305.77 193.59C305.892 192.313 304.967 191.178 303.703 191.055C302.439 190.932 301.314 191.866 301.192 193.143C301.069 194.419 301.995 195.554 303.259 195.678C304.523 195.801 305.647 194.866 305.77 193.59Z" fill="#51CEF4"/>
<path d="M333.94 198.592C334.063 197.316 333.137 196.181 331.873 196.057C330.609 195.934 329.485 196.869 329.362 198.145C329.24 199.422 330.165 200.557 331.429 200.68C332.693 200.803 333.818 199.869 333.94 198.592Z" fill="#51CEF4"/>
<path d="M322.5 234.205C322.628 232.923 321.701 231.779 320.431 231.651C319.161 231.523 318.028 232.459 317.901 233.741C317.774 235.024 318.701 236.167 319.971 236.295C321.241 236.424 322.373 235.488 322.5 234.205Z" fill="#51CEF4"/>
<path d="M276.248 207.261C276.371 205.985 275.445 204.85 274.181 204.727C272.917 204.603 271.793 205.538 271.671 206.814C271.548 208.091 272.473 209.226 273.737 209.349C275.001 209.473 276.126 208.538 276.248 207.261Z" fill="#51CEF4"/>
<path d="M314.584 214.94C314.706 213.663 313.781 212.528 312.517 212.405C311.253 212.281 310.129 213.216 310.006 214.493C309.884 215.769 310.809 216.904 312.073 217.027C313.337 217.151 314.461 216.216 314.584 214.94Z" fill="#51CEF4"/>
<path d="M204.451 144.726C203.44 145.405 202.591 146.303 201.966 147.353C201.341 148.403 200.954 149.58 200.835 150.799C200.249 155.742 210.387 159.931 219.455 153.14C219.455 153.14 224.922 157.944 229.803 156.169C236.525 153.719 233.679 144.711 226.549 143.239C217.467 141.361 204.451 144.726 204.451 144.726Z" fill="white"/>
<path d="M209.458 157.248C207.328 157.284 205.226 156.759 203.359 155.724C201.229 154.477 200.105 152.614 200.315 150.733C200.85 146.217 204.046 144.328 204.18 144.252L204.245 144.215L204.313 144.197C204.852 144.059 217.557 140.821 226.679 142.702C231.282 143.654 233.911 147.398 234.156 150.602C234.355 153.391 232.804 155.662 230.002 156.683C225.533 158.309 220.75 154.86 219.448 153.832C216.06 156.264 212.546 157.248 209.458 157.248ZM204.66 145.251C203.741 145.892 202.972 146.728 202.407 147.7C201.842 148.672 201.494 149.757 201.388 150.879C201.218 152.337 202.133 153.759 203.919 154.794C207.293 156.767 213.5 156.956 219.159 152.717L219.52 152.454L219.849 152.742C219.904 152.786 225.143 157.313 229.659 155.658C232.009 154.802 233.274 152.99 233.101 150.686C232.902 147.959 230.519 144.613 226.488 143.778C217.944 142.017 205.742 144.966 204.66 145.251Z" fill="#1D1E1B"/>
<path d="M241.962 234.723C243.232 234.723 244.262 233.684 244.262 232.401C244.262 231.119 243.232 230.079 241.962 230.079C240.692 230.079 239.663 231.119 239.663 232.401C239.663 233.684 240.692 234.723 241.962 234.723Z" fill="#51CEF4"/>
<path d="M174.575 199.001C175.845 199.001 176.874 197.961 176.874 196.679C176.874 195.396 175.845 194.357 174.575 194.357C173.305 194.357 172.275 195.396 172.275 196.679C172.275 197.961 173.305 199.001 174.575 199.001Z" fill="#51CEF4"/>
<path d="M210.42 216.361C210.697 216.1 210.905 215.774 211.028 215.413C211.15 215.051 211.182 214.665 211.121 214.288C211.061 213.911 210.909 213.554 210.679 213.25C210.45 212.946 210.15 212.704 209.805 212.544C209.391 212.35 208.928 212.286 208.477 212.36C208.025 212.434 207.607 212.643 207.275 212.96C207.045 213.165 206.858 213.415 206.725 213.694C206.593 213.973 206.517 214.276 206.502 214.585C206.487 214.894 206.534 215.204 206.639 215.494C206.744 215.785 206.906 216.052 207.115 216.278C207.324 216.505 207.576 216.687 207.856 216.815C208.136 216.942 208.438 217.011 208.745 217.019C209.052 217.027 209.357 216.973 209.643 216.86C209.929 216.747 210.189 216.577 210.409 216.361H210.42Z" fill="#51CEF4"/>
<path d="M176.04 240.592C176.317 240.331 176.526 240.005 176.649 239.644C176.772 239.282 176.804 238.895 176.743 238.518C176.683 238.141 176.531 237.784 176.301 237.48C176.071 237.176 175.77 236.934 175.425 236.775C175.01 236.581 174.547 236.517 174.096 236.591C173.645 236.665 173.226 236.874 172.894 237.191C172.664 237.396 172.478 237.646 172.345 237.925C172.212 238.204 172.136 238.507 172.121 238.816C172.106 239.125 172.153 239.434 172.258 239.725C172.364 240.016 172.526 240.282 172.735 240.509C172.944 240.736 173.195 240.918 173.475 241.045C173.755 241.173 174.057 241.242 174.364 241.25C174.671 241.258 174.977 241.203 175.262 241.09C175.548 240.977 175.809 240.808 176.029 240.592H176.04Z" fill="#51CEF4"/>
<path d="M252.556 169.554C253.826 169.554 254.855 168.514 254.855 167.232C254.855 165.949 253.826 164.91 252.556 164.91C251.286 164.91 250.256 165.949 250.256 167.232C250.256 168.514 251.286 169.554 252.556 169.554Z" fill="#51CEF4"/>
<path d="M266.7 194.364C266.7 194.364 274.712 209.507 276.213 229.196L271.205 227.512C271.205 227.512 270.706 210.867 266.7 194.364Z" fill="#0598C6"/>
<path d="M266.295 191.946C266.295 191.946 269.871 206.309 270.873 229.195L266.295 191.946Z" fill="#07ACEE"/>
<path d="M270.873 229.742C270.733 229.742 270.599 229.688 270.498 229.591C270.397 229.494 270.337 229.361 270.331 229.221C269.343 206.663 265.807 192.223 265.771 192.077C265.736 191.937 265.758 191.788 265.832 191.663C265.906 191.539 266.026 191.449 266.165 191.414C266.305 191.379 266.453 191.401 266.576 191.475C266.699 191.55 266.788 191.671 266.823 191.811C266.859 191.957 270.421 206.495 271.415 229.17C271.421 229.314 271.37 229.456 271.273 229.563C271.176 229.67 271.042 229.734 270.898 229.742H270.873Z" fill="#1D1D1B"/>
<path d="M335.588 208.916C335.471 208.916 335.355 208.893 335.248 208.847C335.138 208.802 335.038 208.735 334.954 208.651C334.869 208.567 334.802 208.467 334.756 208.356C334.71 208.246 334.686 208.128 334.686 208.008C334.685 207.888 334.708 207.77 334.753 207.659C338.748 197.816 337.851 192.957 336.394 190.602C335.903 189.807 335.241 189.134 334.457 188.634C333.673 188.133 332.786 187.818 331.864 187.711C331.624 187.697 331.4 187.587 331.24 187.407C331.08 187.226 330.998 186.988 331.012 186.747C331.026 186.505 331.135 186.279 331.314 186.118C331.493 185.957 331.729 185.874 331.969 185.888C333.172 186.013 334.331 186.412 335.36 187.054C336.388 187.696 337.258 188.565 337.905 189.596C340.375 193.544 339.88 199.85 336.427 208.344C336.359 208.513 336.243 208.657 336.094 208.759C335.944 208.861 335.768 208.916 335.588 208.916Z" fill="white"/>
<path d="M224.649 94.6938C231.217 94.6938 236.541 89.3176 236.541 82.6858C236.541 76.0539 231.217 70.6777 224.649 70.6777C218.082 70.6777 212.757 76.0539 212.757 82.6858C212.757 89.3176 218.082 94.6938 224.649 94.6938Z" fill="#382256"/>
<path d="M224.649 95.2436C222.383 95.2473 220.16 94.6279 218.217 93.4519C216.275 92.2759 214.687 90.5878 213.625 88.5697C212.564 86.5515 212.068 84.2797 212.192 81.9987C212.316 79.7176 213.055 77.5137 214.328 75.6245C215.602 73.7353 217.363 72.2322 219.421 71.277C221.48 70.3219 223.757 69.9508 226.009 70.2039C228.261 70.4569 230.401 71.3245 232.201 72.7131C234 74.1018 235.389 75.959 236.219 78.0846C236.962 79.9873 237.233 82.044 237.008 84.0763C236.783 86.1085 236.07 88.0547 234.93 89.7457C233.79 91.4368 232.257 92.8216 230.465 93.7797C228.674 94.7379 226.677 95.2403 224.649 95.2436ZM224.649 71.2167C222.216 71.2109 219.846 71.9915 217.886 73.4442C215.925 74.8968 214.479 76.9448 213.758 79.2876C213.037 81.6303 213.081 84.1443 213.881 86.4604C214.682 88.7765 216.198 90.7728 218.207 92.156C220.216 93.5393 222.612 94.2366 225.043 94.1457C227.475 94.0548 229.813 93.1805 231.715 91.651C233.617 90.1216 234.982 88.0176 235.61 85.648C236.239 83.2784 236.097 80.7681 235.207 78.4857C234.372 76.3466 232.92 74.5097 231.037 73.2135C229.154 71.9173 226.929 71.2217 224.649 71.2167Z" fill="#1D1E1B"/>
<path d="M188.192 116.777C188.192 116.777 180.618 108.793 184.805 101.656C188.992 94.5179 190.861 95.3381 192.82 91.4266C194.78 87.515 202.362 84.1138 208.772 86.651C208.772 86.651 217.497 81.2266 224.71 83.8331C231.923 86.4396 234.179 90.2345 235.752 96.2568C237.325 102.279 239.183 105.06 240.43 109.256C241.678 113.452 243.066 125.041 226.615 131.964C210.164 138.886 188.192 116.777 188.192 116.777Z" fill="#382256"/>
<path d="M219.742 133.833C214.196 133.833 207.829 131.679 200.941 127.432C196.22 124.476 191.816 121.035 187.799 117.163C187.477 116.828 179.989 108.797 184.335 101.385C186.696 97.3572 188.345 95.8115 189.672 94.5648C190.778 93.6358 191.683 92.4882 192.333 91.1928C194.502 86.8584 202.247 83.6577 208.715 86.0564C210.194 85.1888 218.094 80.8689 224.891 83.3259C232.314 86.0126 234.686 90.0518 236.273 96.1287C237.002 98.8718 237.943 101.553 239.086 104.149C239.799 105.768 240.421 107.427 240.948 109.117C242.033 112.763 244.202 125.157 226.822 132.488C224.574 133.406 222.167 133.863 219.742 133.833ZM188.583 116.394C189.014 116.824 210.562 138.128 226.406 131.46C242.954 124.494 240.926 112.825 239.914 109.413C239.4 107.761 238.796 106.139 238.106 104.553C236.943 101.913 235.986 99.185 235.243 96.3948C233.71 90.5366 231.551 86.8802 224.544 84.3649C217.674 81.8751 209.156 87.0808 209.069 87.1355L208.842 87.2777L208.588 87.1792C202.294 84.6894 195.099 88.1452 193.32 91.6922C192.611 93.1034 191.628 94.3558 190.427 95.3742C189.155 96.5699 187.567 98.0572 185.286 101.936C181.385 108.563 188.377 116.175 188.583 116.394Z" fill="#1D1E1B"/>
<path d="M218.462 111.738H218.498C223.773 112.292 229.373 107.615 229.609 107.418C229.694 107.345 229.748 107.241 229.758 107.128C229.768 107.016 229.734 106.904 229.663 106.816C229.627 106.773 229.584 106.737 229.535 106.71C229.485 106.684 229.431 106.668 229.376 106.663C229.32 106.658 229.264 106.664 229.211 106.681C229.158 106.698 229.109 106.725 229.066 106.762C229.012 106.809 223.502 111.406 218.581 110.888C218.474 110.88 218.368 110.912 218.284 110.98C218.2 111.047 218.144 111.144 218.129 111.251C218.113 111.358 218.138 111.468 218.199 111.556C218.261 111.645 218.353 111.708 218.458 111.73L218.462 111.738Z" fill="black"/>
<path d="M208.155 138.419L207.197 144.391C207.197 144.391 215.205 158.189 229.226 144.726C229.226 144.726 225.097 136.469 223.568 122.609C223.568 122.609 229.592 122.168 229.418 116.777C229.244 111.385 225.173 109.85 222.491 110.944C222.491 110.944 211.825 116.357 204.85 94.4957C204.85 94.4957 193.927 97.2735 190.258 107.729C186.588 118.184 186.924 130.954 194.596 135.726C202.269 140.497 208.155 138.419 208.155 138.419Z" fill="#FFCDB2"/>
<path d="M217.439 151.172C216.922 151.172 216.405 151.135 215.892 151.062C210.002 150.224 206.853 144.894 206.712 144.668L206.614 144.497L207.471 139.156C205.537 139.554 200.49 140.017 194.292 136.16C186.052 131.034 186.154 117.717 189.733 107.514C193.457 96.9094 204.59 93.9639 204.702 93.9384L205.193 93.8108L205.352 94.2992C208.823 105.181 213.18 108.998 216.228 110.281C219.623 111.717 222.208 110.441 222.234 110.427L222.277 110.405C223.076 110.1 223.936 109.99 224.785 110.084C225.635 110.178 226.45 110.472 227.165 110.944C228.875 112.078 229.862 114.138 229.946 116.748C230.101 121.578 225.73 122.796 224.161 123.076C225.708 136.349 229.664 144.398 229.707 144.482L229.888 144.847L229.595 145.128C225.412 149.141 221.333 151.172 217.439 151.172ZM207.75 144.274C208.314 145.146 211.232 149.302 216.066 149.98C219.97 150.534 224.175 148.722 228.561 144.603C227.755 142.831 224.371 134.844 223.026 122.672L222.96 122.106L223.524 122.063C223.749 122.063 229.027 121.589 228.872 116.781C228.782 113.908 227.574 112.519 226.58 111.859C226.014 111.484 225.369 111.249 224.696 111.171C224.023 111.094 223.342 111.177 222.707 111.415C222.385 111.571 219.526 112.854 215.82 111.291C211.174 109.329 207.363 103.898 204.492 95.1413C202.37 95.8303 193.859 99.0748 190.753 107.882C187.202 117.995 187.473 130.633 194.86 135.223C202.192 139.787 207.901 137.917 207.959 137.895L208.813 137.603L207.75 144.274Z" fill="#1D1E1B"/>
<path d="M223.903 120.127C223.978 120.141 224.056 120.134 224.128 120.108C224.199 120.081 224.263 120.036 224.312 119.977C225.758 118.191 226.253 116.62 225.805 115.3C225.165 113.397 222.808 112.821 222.71 112.796C222.601 112.77 222.486 112.788 222.39 112.848C222.294 112.907 222.226 113.003 222.2 113.113C222.174 113.223 222.193 113.339 222.252 113.435C222.311 113.532 222.406 113.601 222.515 113.627C222.54 113.627 224.522 114.126 225.006 115.577C225.35 116.601 224.894 117.899 223.654 119.438C223.584 119.525 223.551 119.637 223.562 119.749C223.574 119.861 223.629 119.964 223.715 120.035C223.77 120.081 223.834 120.112 223.903 120.127Z" fill="black"/>
<path d="M202.546 111.461C208.454 113.102 216.668 110.929 217.927 113.167C219.185 115.406 217.966 118.234 214.673 118.756C211.379 119.277 208.182 118.993 201.631 118.078C195.08 117.163 188.731 115.777 189.7 112.27C190.669 108.763 193.861 109.048 202.546 111.461Z" fill="#FFB49F"/>
<path d="M225.981 124.726C227.056 124.726 227.927 123.846 227.927 122.761C227.927 121.676 227.056 120.796 225.981 120.796C224.907 120.796 224.036 121.676 224.036 122.761C224.036 123.846 224.907 124.726 225.981 124.726Z" fill="#07ACEE"/>
<path d="M225.982 120.796C226.437 120.793 226.879 120.95 227.231 121.242C227.583 121.533 227.823 121.939 227.909 122.39C227.995 122.841 227.922 123.308 227.702 123.71C227.482 124.112 227.129 124.424 226.705 124.591C226.474 124.681 226.229 124.727 225.982 124.726C225.465 124.726 224.969 124.519 224.604 124.15C224.238 123.782 224.033 123.282 224.033 122.761C224.033 122.24 224.238 121.74 224.604 121.372C224.969 121.003 225.465 120.796 225.982 120.796ZM225.982 119.702C225.602 119.701 225.225 119.773 224.872 119.914C224.214 120.174 223.667 120.658 223.325 121.282C222.983 121.906 222.868 122.63 223 123.33C223.131 124.031 223.501 124.662 224.046 125.117C224.59 125.571 225.275 125.82 225.982 125.819C226.362 125.82 226.739 125.749 227.092 125.608C227.839 125.309 228.438 124.724 228.759 123.981C229.079 123.237 229.095 122.397 228.802 121.642C228.582 121.068 228.195 120.576 227.691 120.23C227.188 119.883 226.591 119.699 225.982 119.702Z" fill="#1D1D1B"/>
<path d="M205.026 131.715C203.482 131.715 202.069 130.957 200.828 129.458C200.776 129.404 200.734 129.339 200.707 129.268C200.681 129.197 200.669 129.121 200.673 129.045C200.676 128.969 200.695 128.895 200.729 128.827C200.763 128.759 200.81 128.699 200.868 128.65C200.926 128.601 200.993 128.565 201.065 128.544C201.138 128.523 201.214 128.517 201.288 128.527C201.363 128.536 201.435 128.562 201.5 128.601C201.564 128.64 201.62 128.693 201.664 128.755C202.687 129.994 203.833 130.621 205.026 130.621H205.055C207.51 130.603 209.564 128.069 209.585 128.044C209.676 127.931 209.807 127.859 209.951 127.843C210.094 127.828 210.238 127.871 210.35 127.962C210.462 128.053 210.534 128.186 210.549 128.33C210.564 128.475 210.522 128.62 210.431 128.733C210.334 128.853 208.027 131.693 205.062 131.715H205.026Z" fill="#1D1D1B"/>
<path d="M197.712 121.941C197.642 121.942 197.573 121.929 197.509 121.901C197.376 121.847 197.27 121.741 197.213 121.608C197.157 121.475 197.155 121.325 197.209 121.19L200.883 112.055C200.91 111.987 200.95 111.925 201.002 111.873C201.053 111.821 201.114 111.779 201.182 111.752C201.249 111.724 201.321 111.71 201.394 111.71C201.467 111.711 201.539 111.727 201.606 111.756C201.672 111.782 201.732 111.822 201.783 111.872C201.834 111.922 201.874 111.982 201.902 112.048C201.93 112.115 201.944 112.186 201.944 112.257C201.944 112.329 201.93 112.4 201.902 112.467L198.229 121.602C198.187 121.705 198.115 121.792 198.023 121.853C197.93 121.913 197.822 121.944 197.712 121.941Z" fill="#1D1D1B"/>
<path d="M192.708 106.007C192.6 106.006 192.494 105.972 192.405 105.909C192.316 105.847 192.248 105.759 192.209 105.657C192.17 105.555 192.163 105.443 192.187 105.337C192.212 105.23 192.267 105.134 192.347 105.059C192.531 104.884 196.913 100.867 199.802 103.783C199.898 103.887 199.95 104.024 199.948 104.166C199.945 104.307 199.888 104.443 199.789 104.543C199.689 104.643 199.555 104.7 199.415 104.703C199.274 104.705 199.138 104.653 199.036 104.556C196.866 102.369 193.12 105.825 193.084 105.861C192.982 105.957 192.848 106.009 192.708 106.007Z" fill="black"/>
<path d="M214.908 109.07C214.824 109.07 214.742 109.051 214.667 109.014C214.593 108.976 214.528 108.922 214.478 108.855C213.422 107.473 212.308 106.7 211.184 106.554C210.48 106.459 209.766 106.625 209.174 107.021C209.06 107.11 208.916 107.15 208.773 107.132C208.63 107.114 208.501 107.039 208.413 106.925C208.324 106.81 208.285 106.665 208.303 106.521C208.321 106.377 208.395 106.246 208.508 106.157C209.328 105.582 210.331 105.337 211.321 105.468C212.749 105.654 214.102 106.562 215.335 108.188C215.397 108.268 215.435 108.365 215.446 108.467C215.456 108.568 215.438 108.671 215.394 108.763C215.349 108.854 215.28 108.932 215.194 108.986C215.108 109.041 215.009 109.069 214.908 109.07Z" fill="black"/>
<path d="M207.275 138.636C207.275 138.636 212.159 137.411 214.827 135.391L207.275 138.636Z" fill="#4BD657"/>
<path d="M207.274 139.182C207.131 139.2 206.986 139.159 206.872 139.069C206.758 138.978 206.684 138.846 206.667 138.701C206.65 138.556 206.69 138.41 206.78 138.295C206.869 138.18 207 138.106 207.144 138.089C207.191 138.089 211.953 136.864 214.502 134.935C214.559 134.892 214.624 134.861 214.693 134.843C214.762 134.825 214.834 134.821 214.904 134.831C214.975 134.842 215.042 134.866 215.104 134.902C215.165 134.939 215.219 134.987 215.261 135.045C215.304 135.102 215.335 135.168 215.353 135.237C215.37 135.307 215.374 135.379 215.364 135.45C215.354 135.521 215.33 135.59 215.294 135.651C215.258 135.713 215.21 135.767 215.153 135.81C212.427 137.874 207.607 139.091 207.405 139.149C207.363 139.166 207.319 139.177 207.274 139.182Z" fill="black"/>
<path d="M221.506 108.035H221.47C211.907 107.67 208.429 95.44 208.284 94.9114C208.22 94.6784 208.25 94.4292 208.368 94.2186C208.486 94.0081 208.682 93.8534 208.913 93.7886C209.144 93.7238 209.391 93.7542 209.6 93.8731C209.809 93.9921 209.963 94.1898 210.027 94.4228C210.056 94.5358 213.299 105.899 221.539 106.209C221.779 106.213 222.007 106.313 222.173 106.487C222.34 106.661 222.431 106.895 222.426 107.136C222.422 107.378 222.323 107.608 222.15 107.776C221.978 107.944 221.746 108.036 221.506 108.031V108.035Z" fill="white"/>
<path d="M191.797 120.794C190.304 120.792 188.845 120.343 187.604 119.505C186.364 118.668 185.398 117.478 184.827 116.087C184.257 114.695 184.109 113.165 184.401 111.689C184.693 110.212 185.412 108.857 186.468 107.792C187.524 106.728 188.869 106.003 190.334 105.71C191.798 105.416 193.316 105.566 194.696 106.142C196.075 106.717 197.255 107.692 198.085 108.943C198.915 110.195 199.359 111.666 199.361 113.171C199.361 114.172 199.165 115.164 198.785 116.089C198.405 117.014 197.847 117.854 197.145 118.562C196.443 119.27 195.609 119.832 194.691 120.215C193.773 120.597 192.79 120.794 191.797 120.794ZM191.797 106.66C190.518 106.663 189.268 107.047 188.205 107.766C187.143 108.484 186.315 109.504 185.828 110.696C185.34 111.889 185.214 113.201 185.466 114.465C185.718 115.73 186.335 116.891 187.242 117.801C188.148 118.712 189.301 119.331 190.557 119.581C191.812 119.83 193.112 119.699 194.293 119.203C195.474 118.708 196.483 117.87 197.192 116.796C197.901 115.723 198.278 114.461 198.276 113.171C198.271 111.442 197.586 109.785 196.372 108.565C195.157 107.344 193.512 106.659 191.797 106.66Z" fill="#1D1E1B"/>
<path d="M208.819 123.488C207.325 123.488 205.865 123.041 204.623 122.204C203.38 121.368 202.412 120.178 201.841 118.787C201.269 117.395 201.119 115.864 201.411 114.387C201.702 112.91 202.422 111.553 203.478 110.488C204.534 109.423 205.88 108.697 207.345 108.404C208.81 108.11 210.329 108.261 211.709 108.837C213.089 109.413 214.269 110.389 215.099 111.642C215.929 112.894 216.372 114.367 216.372 115.873C216.37 117.892 215.573 119.828 214.157 121.255C212.741 122.683 210.821 123.486 208.819 123.488ZM208.819 109.351C207.539 109.351 206.289 109.733 205.225 110.45C204.161 111.167 203.332 112.185 202.843 113.377C202.353 114.569 202.225 115.88 202.475 117.145C202.724 118.41 203.34 119.572 204.245 120.484C205.149 121.396 206.302 122.017 207.557 122.269C208.812 122.521 210.112 122.391 211.294 121.898C212.476 121.404 213.486 120.568 214.197 119.496C214.908 118.423 215.287 117.163 215.287 115.873C215.285 114.144 214.603 112.486 213.39 111.263C212.178 110.041 210.534 109.353 208.819 109.351Z" fill="#1D1E1B"/>
<path d="M215.829 116.419C215.747 116.418 215.667 116.399 215.593 116.363C215.519 116.327 215.454 116.275 215.403 116.211C215.314 116.096 215.274 115.951 215.291 115.807C215.308 115.663 215.381 115.532 215.493 115.442L221.835 110.393C221.891 110.348 221.955 110.315 222.024 110.296C222.092 110.276 222.164 110.27 222.235 110.279C222.306 110.287 222.374 110.31 222.437 110.345C222.499 110.38 222.554 110.427 222.598 110.484C222.642 110.54 222.675 110.605 222.694 110.674C222.713 110.743 222.719 110.816 222.711 110.887C222.702 110.959 222.68 111.028 222.645 111.091C222.61 111.153 222.564 111.209 222.507 111.253L216.166 116.302C216.07 116.377 215.951 116.418 215.829 116.419Z" fill="#1D1E1B"/>
<path d="M201.827 115.927C201.721 115.926 201.619 115.894 201.531 115.836C201.443 115.778 201.374 115.696 201.331 115.599C200.869 114.527 198.833 114.869 198.8 114.869C198.661 114.892 198.518 114.858 198.403 114.775C198.287 114.693 198.208 114.568 198.183 114.428C198.157 114.287 198.187 114.143 198.266 114.024C198.345 113.906 198.467 113.823 198.605 113.794C198.725 113.772 201.498 113.284 202.315 115.165C202.345 115.231 202.361 115.303 202.363 115.376C202.365 115.449 202.352 115.521 202.326 115.589C202.3 115.657 202.26 115.719 202.21 115.771C202.159 115.824 202.099 115.865 202.033 115.894C201.967 115.919 201.897 115.93 201.827 115.927Z" fill="#1D1E1B"/>
<path d="M233.897 85.0607H233.872C233.753 85.0574 233.636 85.0305 233.527 84.9817C233.419 84.9328 233.321 84.8627 233.24 84.7757C233.158 84.6887 233.094 84.5864 233.052 84.4745C233.01 84.3627 232.99 84.2434 232.993 84.1237C233.091 80.6715 232.234 78.0067 230.462 76.2022C227.823 73.541 223.954 73.614 223.921 73.6176C223.682 73.6254 223.449 73.5367 223.274 73.3713C223.099 73.2058 222.996 72.9772 222.989 72.7355C222.981 72.4938 223.069 72.2588 223.233 72.0824C223.397 71.906 223.624 71.8027 223.864 71.7949C224.052 71.7949 228.52 71.6819 231.724 74.9008C233.893 77.0699 234.924 80.1903 234.811 84.1748C234.804 84.4136 234.704 84.6401 234.533 84.8056C234.362 84.9712 234.134 85.0627 233.897 85.0607Z" fill="white"/>
<path d="M239.57 86.7159C239.504 86.7143 239.439 86.702 239.378 86.6794C239.244 86.6271 239.135 86.5235 239.076 86.391C239.017 86.2586 239.013 86.1081 239.063 85.9722C242.209 77.7335 236.489 73.3299 236.243 73.1439C236.128 73.0574 236.051 72.9281 236.03 72.7846C236.009 72.641 236.045 72.4949 236.131 72.3784C236.217 72.2619 236.345 72.1845 236.488 72.1633C236.63 72.1422 236.775 72.1788 236.89 72.2653C236.955 72.3164 243.525 77.3288 240.076 86.3622C240.037 86.4662 239.968 86.5558 239.878 86.619C239.787 86.6823 239.68 86.7162 239.57 86.7159Z" fill="#1D1D1B"/>
<path d="M196.511 114.647C196.408 114.646 196.306 114.616 196.219 114.559C196.132 114.502 196.062 114.421 196.02 114.326C195.865 113.942 195.635 113.593 195.343 113.301C195.05 113.009 194.703 112.78 194.32 112.627C192.708 112.018 190.752 112.904 190.73 112.915C190.665 112.945 190.595 112.962 190.524 112.964C190.453 112.967 190.382 112.956 190.315 112.931C190.248 112.905 190.187 112.867 190.135 112.818C190.082 112.769 190.04 112.711 190.011 112.645C189.981 112.58 189.964 112.509 189.962 112.438C189.959 112.366 189.97 112.294 189.995 112.227C190.02 112.159 190.058 112.098 190.106 112.045C190.155 111.992 190.213 111.95 190.278 111.92C190.372 111.876 192.65 110.826 194.693 111.599C195.212 111.799 195.685 112.104 196.083 112.496C196.481 112.887 196.795 113.356 197.007 113.874C197.044 113.957 197.06 114.049 197.054 114.14C197.047 114.232 197.018 114.32 196.968 114.397C196.919 114.474 196.851 114.537 196.771 114.581C196.692 114.624 196.602 114.647 196.511 114.647Z" fill="#1D1D1B"/>
<path d="M211.867 116.332C211.743 116.331 211.623 116.289 211.527 116.211C208.54 113.802 205.532 115.872 205.503 115.894C205.385 115.977 205.239 116.01 205.098 115.985C204.956 115.959 204.83 115.878 204.747 115.759C204.665 115.64 204.633 115.493 204.658 115.351C204.683 115.208 204.763 115.081 204.881 114.997C204.917 114.972 208.591 112.446 212.206 115.362C212.293 115.433 212.356 115.53 212.387 115.639C212.417 115.748 212.414 115.864 212.377 115.971C212.339 116.077 212.27 116.17 212.179 116.236C212.088 116.302 211.979 116.338 211.867 116.339V116.332Z" fill="#1D1D1B"/>
<path d="M202.331 145.334C202.331 145.334 158.984 144.007 143.224 211.881C122.206 215.854 107.671 217.316 100.86 242.01L124.516 254.248C124.516 254.248 143.234 261.539 167.206 246.633" fill="#07ACEE"/>
<path d="M136.6 256.588C129.065 256.588 124.502 254.845 124.307 254.765L124.252 254.74L100.61 242.491C100.499 242.434 100.411 242.339 100.36 242.223C100.31 242.108 100.302 241.978 100.335 241.857C106.894 218.074 120.778 215.493 139.995 211.921L142.772 211.403C146.387 196.008 151.724 182.932 158.655 172.535C164.252 164.151 170.893 157.458 178.392 152.686C191.195 144.535 201.894 144.768 202.342 144.779C202.413 144.781 202.483 144.797 202.548 144.826C202.614 144.855 202.672 144.897 202.721 144.949C202.77 145.001 202.809 145.063 202.834 145.13C202.86 145.197 202.872 145.269 202.87 145.34C202.863 145.485 202.801 145.622 202.696 145.721C202.592 145.82 202.453 145.875 202.309 145.873C202.205 145.873 191.437 145.65 178.909 153.648C167.339 161.041 151.836 177.161 143.748 212.001C143.723 212.104 143.669 212.197 143.592 212.27C143.516 212.343 143.421 212.393 143.317 212.413L140.19 212.996C120.782 216.605 107.917 218.996 101.503 241.722L124.722 253.752C125.503 254.04 143.856 260.503 166.909 246.173C167.032 246.097 167.18 246.074 167.32 246.107C167.46 246.141 167.58 246.23 167.656 246.354C167.731 246.477 167.754 246.626 167.721 246.767C167.687 246.908 167.599 247.03 167.477 247.106C154.988 254.867 143.936 256.544 136.864 256.584L136.6 256.588Z" fill="#1D1D1B"/>
<path d="M169.819 194.335C169.819 194.335 161.941 213.536 167.194 246.647L169.819 194.335Z" fill="#07ACEE"/>
<path d="M167.18 247.195C167.051 247.195 166.926 247.149 166.828 247.065C166.73 246.981 166.665 246.864 166.645 246.735C161.424 213.853 169.227 194.317 169.306 194.124C169.332 194.056 169.372 193.995 169.422 193.942C169.472 193.89 169.532 193.848 169.599 193.82C169.665 193.791 169.737 193.776 169.809 193.776C169.881 193.775 169.953 193.79 170.02 193.818C170.086 193.846 170.147 193.887 170.198 193.938C170.248 193.99 170.288 194.052 170.315 194.119C170.342 194.187 170.355 194.259 170.354 194.332C170.353 194.405 170.337 194.477 170.308 194.544C170.228 194.733 162.549 214.01 167.715 246.56C167.727 246.631 167.724 246.704 167.707 246.774C167.691 246.844 167.661 246.91 167.619 246.968C167.577 247.027 167.524 247.076 167.463 247.114C167.402 247.151 167.334 247.176 167.263 247.187L167.18 247.195Z" fill="#1D1D1B"/>
<path d="M159.086 199.576C159.369 198.325 158.595 197.081 157.356 196.796C156.118 196.511 154.885 197.293 154.602 198.543C154.319 199.794 155.093 201.038 156.331 201.323C157.569 201.608 158.803 200.826 159.086 199.576Z" fill="#51CEF4"/>
<path d="M293.529 140.416L300.236 178.059C300.236 178.059 311.382 183.892 320.844 177.137L324.189 139.848L293.529 140.416Z" fill="#4BD657"/>
<path d="M310.399 180.924C306.795 180.891 303.239 180.083 299.968 178.554L299.733 178.43L292.885 139.883L324.779 139.297L321.358 177.446L321.152 177.592C318.003 179.811 314.241 180.977 310.399 180.924ZM300.702 177.698C302.329 178.456 312.026 182.568 320.324 176.841L323.578 140.412L294.165 140.952L300.702 177.698Z" fill="#1D1E1B"/>
<path d="M153.598 190.816C153.417 190.816 153.239 190.77 153.08 190.683C152.922 190.596 152.787 190.471 152.688 190.318C152.59 190.165 152.531 189.99 152.517 189.808C152.502 189.626 152.534 189.444 152.607 189.277C164.94 161.485 178.639 155.761 179.232 155.532C179.5 155.425 179.798 155.43 180.063 155.545C180.327 155.66 180.535 155.876 180.641 156.146C180.747 156.416 180.742 156.717 180.627 156.983C180.513 157.249 180.299 157.459 180.031 157.566C179.887 157.624 166.505 163.311 154.588 190.171C154.503 190.363 154.363 190.526 154.188 190.641C154.012 190.755 153.807 190.816 153.598 190.816Z" fill="white"/>
<path d="M295.278 150.26L298.821 170.211C305.803 170.525 314.863 169.577 321.599 168.658L323.291 149.789C313.229 151.149 302.592 150.81 295.278 150.26Z" fill="white"/>
<path d="M301.703 170.82C300.705 170.82 299.732 170.799 298.81 170.759L298.377 170.737L294.631 149.662L295.329 149.713C302.502 150.253 313.164 150.61 323.23 149.247L323.906 149.156L322.099 169.144L321.668 169.202C316.017 169.971 308.294 170.82 301.703 170.82ZM299.28 169.683C306.089 169.935 314.791 169.023 321.101 168.174L322.691 150.421C313.056 151.649 302.979 151.358 295.936 150.858L299.28 169.683Z" fill="#1D1E1B"/>
<path d="M295.896 134.403L298.387 131.388C298.754 130.94 299.266 130.637 299.833 130.531C302.527 130.035 310.875 128.785 319.119 130.444C319.489 130.519 319.838 130.678 320.139 130.909C320.439 131.141 320.684 131.437 320.854 131.778L322.156 134.403H295.896Z" fill="white"/>
<path d="M323.06 134.949H294.746L298 131.038C298.454 130.49 299.083 130.12 299.779 129.991C302.223 129.543 310.85 128.212 319.271 129.908C319.722 130 320.146 130.195 320.512 130.476C320.877 130.758 321.175 131.119 321.382 131.533L323.06 134.949ZM297.064 133.856H321.288L320.377 132.033C320.244 131.767 320.054 131.536 319.82 131.355C319.585 131.175 319.314 131.05 319.025 130.99C310.792 129.335 302.335 130.626 299.942 131.078C299.496 131.161 299.094 131.398 298.803 131.749L297.064 133.856Z" fill="#1D1E1B"/>
<path d="M293.607 134.677L291.177 139.226C291.037 139.488 290.968 139.783 290.977 140.081C290.986 140.378 291.073 140.668 291.229 140.921C291.384 141.174 291.603 141.382 291.863 141.523C292.123 141.663 292.415 141.733 292.71 141.723L325.272 140.681C325.572 140.671 325.863 140.581 326.116 140.42C326.369 140.258 326.575 140.032 326.712 139.763C326.849 139.495 326.912 139.194 326.895 138.892C326.877 138.591 326.78 138.3 326.614 138.049L323.913 133.966C323.756 133.725 323.541 133.53 323.288 133.398C323.034 133.266 322.752 133.201 322.467 133.211L295.039 133.787C294.744 133.796 294.456 133.882 294.204 134.039C293.953 134.195 293.747 134.415 293.607 134.677Z" fill="white"/>
<path d="M292.641 142.251C292.257 142.25 291.88 142.149 291.547 141.957C291.213 141.765 290.935 141.49 290.738 141.157C290.541 140.825 290.434 140.446 290.425 140.059C290.416 139.672 290.507 139.29 290.689 138.949L293.119 134.399C293.305 134.05 293.58 133.757 293.916 133.55C294.251 133.344 294.635 133.23 295.028 133.221L322.459 132.646C322.833 132.636 323.203 132.722 323.534 132.896C323.865 133.07 324.147 133.327 324.354 133.641L327.055 137.727C327.274 138.06 327.401 138.445 327.423 138.844C327.445 139.243 327.36 139.64 327.179 139.995C326.998 140.35 326.726 140.649 326.391 140.863C326.057 141.076 325.671 141.195 325.276 141.209L292.717 142.251H292.641ZM322.506 133.739H322.481L295.064 134.312C294.863 134.316 294.666 134.374 294.494 134.48C294.322 134.585 294.181 134.735 294.084 134.913L291.654 139.462C291.56 139.64 291.513 139.84 291.519 140.041C291.525 140.243 291.584 140.439 291.689 140.61C291.794 140.782 291.942 140.922 292.118 141.018C292.294 141.113 292.492 141.16 292.692 141.154L325.254 140.111C325.457 140.105 325.654 140.043 325.825 139.934C325.996 139.825 326.136 139.671 326.229 139.49C326.322 139.308 326.365 139.105 326.353 138.901C326.342 138.696 326.277 138.499 326.165 138.329L323.464 134.246C323.36 134.089 323.219 133.961 323.054 133.873C322.888 133.785 322.704 133.739 322.517 133.739H322.506Z" fill="#1D1E1B"/>
<path d="M322.08 174.994C322.08 174.994 331.253 177.05 335.281 167.014C339.309 156.979 339.941 146.414 334.525 140.056C329.109 133.699 322.63 133.265 318.371 135.248C314.112 137.231 313.309 141.901 316.849 146.764C316.849 146.764 310.207 151.605 316.906 159.786C314.115 160.77 311.7 169.282 319.922 170.601C320.226 172.239 320.973 173.759 322.08 174.994Z" fill="#FFCDB2"/>
<path d="M323.986 175.698C323.308 175.706 322.63 175.649 321.962 175.527L321.788 175.486L321.672 175.352C320.589 174.137 319.829 172.666 319.463 171.075C316.097 170.419 314.04 168.396 313.765 165.476C313.559 163.143 314.593 160.628 316.072 159.611C314 156.902 313.114 154.259 313.432 151.74C313.709 149.784 314.659 147.988 316.115 146.666C314.358 144.07 313.711 141.416 314.307 139.145C314.803 137.213 316.115 135.693 318.158 134.749C322.309 132.817 329.2 132.952 334.949 139.699C340.011 145.645 340.329 155.932 335.795 167.219C332.808 174.633 327.049 175.698 323.986 175.698ZM322.37 174.491C323.643 174.717 331.228 175.658 334.779 166.807C339.157 155.907 338.908 146.028 334.114 140.414C328.766 134.133 322.594 133.885 318.599 135.744C316.882 136.542 315.757 137.815 315.345 139.419C314.814 141.489 315.504 143.983 317.287 146.44L317.608 146.884L317.167 147.205C315.73 148.379 314.782 150.053 314.51 151.897C314.213 154.259 315.161 156.796 317.323 159.439L317.818 160.045L317.095 160.303C315.916 160.719 314.655 163.077 314.857 165.378C314.987 166.836 315.833 169.388 320.02 170.062L320.4 170.121L320.468 170.503C320.738 171.98 321.395 173.357 322.37 174.491Z" fill="black"/>
<path d="M332.053 150.499C331.98 150.499 331.907 150.485 331.839 150.456C331.771 150.427 331.71 150.385 331.659 150.331C331.402 150.062 325.415 143.93 316.061 147.477C315.994 147.508 315.921 147.524 315.847 147.526C315.773 147.527 315.699 147.513 315.63 147.484C315.562 147.456 315.5 147.413 315.448 147.36C315.397 147.306 315.357 147.242 315.33 147.173C315.304 147.103 315.292 147.028 315.296 146.953C315.299 146.879 315.318 146.806 315.35 146.738C315.383 146.671 315.429 146.612 315.485 146.563C315.542 146.515 315.607 146.478 315.678 146.456C325.726 142.643 332.379 149.504 332.444 149.577C332.518 149.654 332.568 149.751 332.587 149.856C332.607 149.962 332.595 150.071 332.553 150.169C332.512 150.268 332.442 150.352 332.353 150.41C332.264 150.469 332.16 150.5 332.053 150.499Z" fill="#1D1D1B"/>
<path d="M329.818 160.44C329.764 160.441 329.71 160.432 329.659 160.415C329.587 160.393 322.102 158.133 317.03 160.346C316.899 160.395 316.755 160.392 316.627 160.337C316.499 160.282 316.396 160.18 316.341 160.051C316.286 159.922 316.282 159.777 316.33 159.645C316.378 159.513 316.474 159.405 316.599 159.343C322.041 156.97 329.655 159.27 329.977 159.369C330.103 159.406 330.212 159.487 330.282 159.599C330.353 159.71 330.381 159.844 330.362 159.975C330.342 160.105 330.276 160.225 330.176 160.31C330.077 160.396 329.949 160.442 329.818 160.44Z" fill="#1D1D1B"/>
<path d="M323.671 171.682C322.239 171.67 320.815 171.464 319.437 171.07C319.303 171.025 319.192 170.929 319.127 170.803C319.062 170.676 319.048 170.529 319.089 170.392C319.13 170.256 319.223 170.141 319.346 170.072C319.47 170.004 319.616 169.986 319.752 170.024C319.799 170.024 324.514 171.453 327.298 169.743C327.421 169.668 327.569 169.645 327.709 169.679C327.849 169.714 327.97 169.803 328.044 169.927C328.119 170.051 328.142 170.201 328.108 170.342C328.074 170.483 327.985 170.605 327.862 170.68C326.629 171.446 325.081 171.682 323.671 171.682Z" fill="#1D1D1B"/>
<path d="M335.307 146.177C335.12 146.176 334.938 146.118 334.786 146.01C334.633 145.902 334.517 145.748 334.454 145.571C334.454 145.517 332.613 140.559 328.087 138.426C325.274 137.099 321.976 137.114 318.285 138.47C318.173 138.511 318.055 138.53 317.936 138.525C317.817 138.52 317.701 138.491 317.593 138.441C317.485 138.39 317.388 138.319 317.308 138.231C317.227 138.143 317.165 138.04 317.124 137.927C317.083 137.815 317.065 137.695 317.07 137.575C317.075 137.456 317.103 137.338 317.153 137.229C317.203 137.121 317.274 137.023 317.362 136.942C317.449 136.861 317.551 136.798 317.663 136.757C321.832 135.226 325.617 135.233 328.871 136.782C334.085 139.25 336.074 144.726 336.157 144.959C336.205 145.096 336.219 145.243 336.199 145.387C336.179 145.532 336.126 145.669 336.043 145.788C335.959 145.907 335.849 146.005 335.721 146.072C335.593 146.14 335.451 146.175 335.307 146.177Z" fill="white"/>
<path d="M331.966 154.895C331.826 154.894 331.688 154.861 331.562 154.798C331.437 154.735 331.327 154.643 331.243 154.53C331.037 154.25 326.319 147.994 318.303 150.79C318.076 150.869 317.827 150.854 317.612 150.748C317.396 150.642 317.231 150.454 317.153 150.225C317.075 149.997 317.09 149.746 317.195 149.529C317.3 149.311 317.487 149.145 317.713 149.066C327.016 145.822 332.646 153.375 332.7 153.441C332.77 153.537 332.821 153.646 332.849 153.762C332.878 153.879 332.883 153.999 332.865 154.118C332.847 154.236 332.805 154.349 332.744 154.451C332.682 154.554 332.601 154.642 332.505 154.713C332.35 154.831 332.161 154.896 331.966 154.895Z" fill="white"/>
<path d="M137.713 117.731C158.57 117.731 175.478 100.684 175.478 79.6545C175.478 58.6255 158.57 41.5781 137.713 41.5781C116.857 41.5781 99.9486 58.6255 99.9486 79.6545C99.9486 100.684 116.857 117.731 137.713 117.731Z" fill="white"/>
<path d="M137.666 118.271C127.597 118.254 117.941 114.238 110.788 107.093C103.634 99.9485 99.5608 90.2501 99.4489 80.0987C99.337 69.9473 103.196 60.1602 110.19 52.857C117.184 45.5537 126.749 41.3224 136.815 41.0794C146.881 40.8365 156.637 44.6014 163.97 51.5588C171.302 58.5162 175.621 68.1059 175.991 78.2511C176.362 88.3962 172.753 98.2799 165.947 105.762C159.141 113.243 149.686 117.721 139.63 118.224C138.982 118.271 138.317 118.271 137.666 118.271ZM137.735 42.1182C137.109 42.1182 136.48 42.1364 135.848 42.1656C128.496 42.539 121.418 45.1019 115.511 49.5305C109.603 53.9591 105.131 60.0544 102.659 67.0457C100.187 74.0369 99.8266 81.6103 101.623 88.8081C103.42 96.0058 107.293 102.505 112.753 107.483C118.213 112.461 125.015 115.696 132.298 116.777C139.581 117.858 147.018 116.738 153.669 113.558C160.321 110.378 165.887 105.28 169.666 98.9101C173.444 92.54 175.264 85.1834 174.896 77.7705C174.405 68.1622 170.277 59.11 163.363 52.4785C156.45 45.8471 147.277 42.1417 137.735 42.1255V42.1182Z" fill="#1D1E1B"/>
<path d="M167.473 134.003C170.556 134.003 173.056 131.483 173.056 128.375C173.056 125.266 170.556 122.746 167.473 122.746C164.39 122.746 161.891 125.266 161.891 128.375C161.891 131.483 164.39 134.003 167.473 134.003Z" fill="white"/>
<path d="M167.473 134.55C166.262 134.55 165.077 134.188 164.07 133.509C163.063 132.831 162.278 131.866 161.814 130.738C161.351 129.609 161.23 128.368 161.466 127.17C161.702 125.972 162.286 124.871 163.142 124.008C163.999 123.144 165.09 122.556 166.278 122.318C167.466 122.08 168.698 122.202 169.817 122.669C170.936 123.137 171.893 123.928 172.566 124.944C173.239 125.959 173.598 127.153 173.598 128.375C173.592 130.011 172.945 131.578 171.797 132.735C170.65 133.892 169.096 134.544 167.473 134.55ZM167.473 123.293C166.476 123.293 165.502 123.591 164.673 124.149C163.844 124.708 163.198 125.501 162.816 126.43C162.435 127.358 162.335 128.38 162.53 129.366C162.724 130.352 163.204 131.257 163.909 131.968C164.614 132.678 165.512 133.163 166.49 133.359C167.467 133.555 168.481 133.454 169.402 133.069C170.323 132.685 171.11 132.033 171.664 131.198C172.217 130.362 172.513 129.38 172.513 128.375C172.507 127.029 171.975 125.739 171.031 124.788C170.087 123.836 168.808 123.299 167.473 123.293Z" fill="#1D1E1B"/>
<path d="M120.108 89.9078L126.324 100.935C126.611 101.445 127.034 101.863 127.546 102.142C128.057 102.421 128.636 102.55 129.216 102.514C134.459 102.149 148.812 99.9327 156.282 86.0655C156.529 85.5998 156.655 85.0787 156.647 84.5507C156.64 84.0227 156.499 83.5053 156.239 83.0471L148.4 69.0996" fill="#382256"/>
<path d="M129.031 103.068C128.386 103.066 127.752 102.893 127.195 102.566C126.637 102.239 126.174 101.77 125.853 101.206L119.634 90.1781L120.578 89.6386L126.797 100.666C127.032 101.091 127.382 101.439 127.807 101.669C128.232 101.9 128.713 102.003 129.194 101.967C134.78 101.603 148.555 99.2843 155.819 85.8072C156.021 85.4226 156.124 84.9929 156.118 84.5576C156.112 84.1223 155.996 83.6957 155.783 83.3173L147.944 69.37L148.888 68.8304L156.727 82.7778C157.029 83.3182 157.192 83.9266 157.2 84.5471C157.208 85.1676 157.062 85.7802 156.773 86.3285C149.253 100.287 135.029 102.678 129.266 103.061L129.031 103.068Z" fill="#1D1E1B"/>
<path d="M121.68 92.6967C121.68 92.6967 147.774 88.6285 150.533 72.8694L148.414 69.0999L120.108 89.908L121.68 92.6967Z" fill="#050505"/>
<path d="M109.35 91.1454L123.089 66.6953C123.272 66.366 123.56 66.109 123.907 65.9662L151.87 54.3592C152.179 54.2312 152.519 54.1997 152.846 54.2688C153.172 54.338 153.471 54.5047 153.703 54.7471C153.935 54.9895 154.089 55.2966 154.146 55.6286C154.203 55.9605 154.159 56.3018 154.021 56.6084L143.858 79.1592C143.685 79.5412 143.377 79.8441 142.993 80.0085L111.44 93.5149C111.121 93.6468 110.769 93.6755 110.432 93.5969C110.096 93.5184 109.792 93.3366 109.563 93.0765C109.333 92.8164 109.19 92.4909 109.152 92.145C109.114 91.7991 109.183 91.4498 109.35 91.1454Z" fill="#382256"/>
<path d="M110.778 94.2144C110.393 94.2117 110.015 94.1075 109.682 93.9121C109.349 93.7167 109.073 93.4371 108.88 93.1006C108.687 92.7642 108.586 92.3828 108.584 91.9944C108.583 91.6059 108.683 91.2238 108.873 90.8861L122.612 66.4361C122.857 66.0018 123.239 65.663 123.697 65.4738L151.66 53.8667C152.069 53.6975 152.52 53.6563 152.953 53.7483C153.386 53.8403 153.781 54.0612 154.088 54.3825C154.395 54.7038 154.6 55.1106 154.675 55.5504C154.75 55.9901 154.692 56.4424 154.509 56.8487L144.349 79.3993C144.118 79.9058 143.708 80.3076 143.199 80.5258L111.65 94.0321C111.374 94.1511 111.078 94.2131 110.778 94.2144ZM109.817 91.4256C109.7 91.6312 109.65 91.8686 109.675 92.1042C109.699 92.3398 109.796 92.5617 109.952 92.7386C110.109 92.9155 110.316 93.0384 110.545 93.0899C110.775 93.1415 111.014 93.1192 111.23 93.026L142.784 79.5196C143.043 79.4105 143.251 79.2059 143.366 78.9473L153.529 56.3966C153.623 56.1902 153.653 55.9603 153.616 55.7364C153.578 55.5125 153.475 55.305 153.319 55.1413C153.162 54.9776 152.961 54.8652 152.741 54.8186C152.52 54.772 152.291 54.7935 152.083 54.8802L124.12 66.4872C123.888 66.5834 123.694 66.7553 123.57 66.9756L109.817 91.4256Z" fill="#1D1E1B"/>
<path d="M140.864 78.5384C140.684 78.5383 140.506 78.4928 140.347 78.4058C140.188 78.3188 140.053 78.1932 139.955 78.0403C139.857 77.8875 139.798 77.7122 139.783 77.5306C139.769 77.3489 139.8 77.1664 139.874 76.9999L148.305 57.9782C148.363 57.847 148.447 57.7286 148.55 57.6298C148.654 57.5311 148.775 57.454 148.908 57.4027C149.042 57.3514 149.184 57.327 149.326 57.331C149.468 57.335 149.609 57.3672 149.739 57.4259C149.869 57.4845 149.986 57.5684 150.084 57.6727C150.182 57.7771 150.259 57.9 150.31 58.0343C150.36 58.1685 150.385 58.3114 150.381 58.4551C150.377 58.5987 150.345 58.74 150.287 58.8712L141.873 77.904C141.784 78.0973 141.642 78.2603 141.463 78.373C141.283 78.4857 141.075 78.5431 140.864 78.5384Z" fill="white"/>
<path d="M162.92 84.3457C162.898 84.3629 162.874 84.3756 162.848 84.3831C162.822 84.3906 162.794 84.3927 162.767 84.3893C162.74 84.3859 162.714 84.3771 162.691 84.3633C162.667 84.3495 162.647 84.3312 162.63 84.3092C161.907 83.3359 158.519 78.3524 161.466 74.7143C164.471 71.0069 169.059 78.0464 169.782 79.2567C169.81 79.3022 169.82 79.3572 169.809 79.4098C169.797 79.4623 169.765 79.5082 169.72 79.5374L165.812 82.0563C165.768 82.0842 165.714 82.0938 165.663 82.083C165.612 82.0721 165.567 82.0417 165.537 81.998L163.798 79.3987C163.771 79.3577 163.73 79.3279 163.683 79.3149C163.636 79.3018 163.586 79.3064 163.542 79.3277C163.498 79.349 163.463 79.3857 163.444 79.4309C163.424 79.4762 163.422 79.5268 163.437 79.5737L164.496 82.8802C164.509 82.9196 164.509 82.9619 164.498 83.0016C164.486 83.0413 164.463 83.0765 164.431 83.1025L162.92 84.3457Z" fill="white"/>
<path d="M162.789 84.9366H162.699C162.6 84.9235 162.504 84.8903 162.417 84.8389C162.331 84.7875 162.256 84.7191 162.196 84.6378C161.441 83.6171 157.858 78.3275 161.047 74.3722C161.342 73.9585 161.736 73.6264 162.192 73.406C162.648 73.1856 163.152 73.0841 163.657 73.1109C166.528 73.2968 169.442 77.6422 170.245 78.9728C170.349 79.1402 170.383 79.3422 170.339 79.5349C170.296 79.7275 170.179 79.895 170.013 80.0007L166.108 82.5198C165.945 82.6267 165.746 82.6645 165.556 82.625C165.365 82.5854 165.197 82.4716 165.089 82.3083L164.695 81.7179L165.016 82.7166C165.062 82.8612 165.064 83.0162 165.022 83.1618C164.979 83.3074 164.894 83.4369 164.778 83.5333L163.263 84.7727C163.128 84.8801 162.961 84.9378 162.789 84.9366ZM163.466 74.1937C163.153 74.2046 162.848 74.2887 162.574 74.4393C162.3 74.5899 162.064 74.8028 161.885 75.0612C159.412 78.1161 161.918 82.3265 162.858 83.6899L163.914 82.8259L162.923 79.7456C162.866 79.573 162.874 79.3855 162.944 79.2179C163.014 79.0503 163.142 78.914 163.304 78.8343C163.466 78.7546 163.651 78.7369 163.825 78.7844C163.999 78.832 164.15 78.9417 164.25 79.0931L165.805 81.4153L169.146 79.2608C167.66 76.935 165.385 74.3139 163.588 74.1972L163.466 74.1937Z" fill="black"/>
<path d="M154.823 56.4023L153.814 56.8051L160.966 75.0084L161.975 74.6057L154.823 56.4023Z" fill="#1D1E1B"/>
<path d="M113.647 37.5321C113.647 37.5321 94.8461 45.1875 91.592 70.7055L113.647 37.5321Z" fill="white"/>
<path d="M92.1308 70.7746L91.0461 70.6359C92.7491 57.3009 98.7293 48.8801 103.451 44.1629C108.575 39.0411 113.242 37.1053 113.438 37.0251L113.843 38.0385C113.796 38.0604 109.142 39.9924 104.178 44.9648C99.6007 49.569 93.7868 57.7604 92.1308 70.7746Z" fill="#1D1E1B"/>
<path d="M239.596 278.186L238.569 275.597C238.382 275.124 238.292 274.616 238.304 274.106C238.317 273.596 238.432 273.094 238.642 272.63L257.898 230.587C258.165 229.964 258.619 229.44 259.198 229.092C259.776 228.744 260.449 228.589 261.12 228.648C269.652 229.567 300.067 233.474 307.085 243.157C313.394 251.866 311.138 245.785 309.771 242.541C309.54 241.993 309.442 241.397 309.484 240.803C309.526 240.21 309.707 239.634 310.013 239.125C312.544 234.969 320.187 224.583 334.653 221.499C335.364 221.363 336.1 221.475 336.739 221.817C337.378 222.159 337.882 222.71 338.168 223.38L339.274 225.764C339.57 226.405 339.68 227.118 339.59 227.82C339.501 228.521 339.216 229.182 338.768 229.727L313.643 259.579C313.231 260.072 312.684 260.43 312.07 260.611L243.4 280.202C242.63 280.404 241.814 280.309 241.11 279.937C240.407 279.564 239.867 278.939 239.596 278.186Z" fill="white"/>
<path d="M242.59 280.854C241.829 280.841 241.089 280.599 240.466 280.159C239.843 279.718 239.365 279.1 239.094 278.383L238.063 275.794C237.849 275.252 237.746 274.671 237.761 274.087C237.776 273.503 237.908 272.928 238.15 272.397L257.407 230.35C257.723 229.625 258.256 229.017 258.933 228.613C259.609 228.209 260.394 228.028 261.178 228.098C270.253 229.074 300.418 233.023 307.522 242.829C309.287 245.264 310.223 246.31 310.704 246.762C310.337 245.386 309.853 244.045 309.258 242.752C308.992 242.124 308.879 241.442 308.927 240.761C308.976 240.08 309.184 239.42 309.536 238.837C312.183 234.503 319.92 224.077 334.527 220.974C335.358 220.814 336.218 220.943 336.966 221.34C337.715 221.738 338.307 222.38 338.645 223.162L339.752 225.549C340.094 226.284 340.221 227.103 340.118 227.908C340.015 228.713 339.686 229.472 339.169 230.095L314.041 259.948C313.56 260.523 312.921 260.942 312.204 261.151L243.534 280.741C243.226 280.822 242.908 280.86 242.59 280.854ZM240.099 277.974C240.318 278.604 240.764 279.127 241.348 279.441C241.932 279.754 242.611 279.834 243.252 279.666L311.922 260.075C312.433 259.929 312.888 259.63 313.228 259.219L338.356 229.366C338.735 228.901 338.976 228.337 339.051 227.74C339.126 227.143 339.033 226.537 338.782 225.991L337.676 223.603C337.44 223.046 337.023 222.587 336.495 222.301C335.966 222.015 335.356 221.919 334.766 222.028C320.571 225.054 313.05 235.188 310.473 239.402C310.215 239.838 310.063 240.33 310.027 240.836C309.992 241.343 310.075 241.85 310.27 242.318C312.295 247.123 312.002 247.787 311.452 248.089C310.903 248.392 310.143 248.297 306.647 243.474C299.803 234.029 270.029 230.15 261.062 229.184C260.503 229.134 259.943 229.265 259.463 229.557C258.983 229.85 258.607 230.288 258.39 230.81L239.133 272.86C238.951 273.258 238.852 273.69 238.841 274.129C238.83 274.568 238.909 275.004 239.072 275.412L240.099 277.974Z" fill="black"/>
<path d="M259.804 236.747L239.919 275.684C239.713 276.086 239.611 276.534 239.621 276.986C239.632 277.438 239.754 277.881 239.978 278.273C240.202 278.665 240.519 278.994 240.902 279.23C241.284 279.466 241.72 279.602 242.168 279.625L294.55 282.242L324.921 265.284L343.266 230.343C343.463 229.971 343.539 229.547 343.486 229.13C343.432 228.713 343.251 228.322 342.968 228.014C342.685 227.705 342.313 227.492 341.905 227.406C341.496 227.32 341.071 227.364 340.689 227.532L314.656 238.898C314.656 238.898 309.692 241.603 306.8 239.543L266.236 233.434C264.955 233.237 263.645 233.451 262.491 234.046C261.337 234.64 260.397 235.585 259.804 236.747Z" fill="#382256"/>
<path d="M294.673 282.803H294.518L242.135 280.186C241.596 280.16 241.072 279.997 240.611 279.713C240.15 279.429 239.768 279.033 239.498 278.562C239.229 278.09 239.081 277.558 239.068 277.013C239.056 276.469 239.179 275.931 239.427 275.447L259.313 236.51C259.956 235.25 260.975 234.225 262.226 233.579C263.477 232.933 264.897 232.699 266.287 232.909L306.977 239.036L307.085 239.113C309.667 240.936 314.316 238.457 314.367 238.431L314.411 238.409L340.461 227.043C340.946 226.832 341.485 226.779 342.002 226.889C342.519 227 342.99 227.269 343.348 227.661C343.707 228.052 343.937 228.546 344.006 229.075C344.075 229.603 343.979 230.14 343.733 230.612L325.312 265.696L325.17 265.776L294.673 282.803ZM265.304 233.918C264.267 233.919 263.25 234.208 262.365 234.752C261.48 235.297 260.76 236.077 260.285 237.006L240.399 275.943C240.235 276.265 240.154 276.623 240.163 276.984C240.173 277.346 240.272 277.699 240.452 278.012C240.632 278.325 240.887 278.587 241.194 278.775C241.5 278.962 241.849 279.069 242.207 279.085L294.434 281.695L324.53 264.89L342.804 230.094C342.946 229.823 343.001 229.513 342.962 229.209C342.923 228.904 342.791 228.619 342.584 228.394C342.377 228.168 342.106 228.013 341.808 227.949C341.51 227.885 341.2 227.916 340.92 228.038L314.888 239.397C314.472 239.62 309.66 242.117 306.594 240.072L266.153 233.984C265.872 233.94 265.588 233.918 265.304 233.918Z" fill="#1D1E1B"/>
<path d="M293.414 267.114C293.327 267.114 293.242 267.093 293.165 267.052C293.039 266.985 292.945 266.871 292.902 266.735C292.858 266.599 292.87 266.451 292.933 266.323L305.552 241.826C305.583 241.759 305.626 241.698 305.681 241.649C305.735 241.599 305.799 241.561 305.869 241.537C305.938 241.513 306.012 241.504 306.085 241.509C306.158 241.515 306.229 241.535 306.294 241.569C306.36 241.603 306.417 241.65 306.464 241.707C306.51 241.765 306.545 241.831 306.565 241.902C306.586 241.973 306.592 242.047 306.583 242.12C306.574 242.194 306.55 242.265 306.514 242.329L293.899 266.826C293.852 266.914 293.782 266.988 293.697 267.038C293.611 267.089 293.514 267.115 293.414 267.114Z" fill="black"/>
<path d="M300.15 267.247C300.069 267.248 299.988 267.23 299.915 267.192C299.786 267.129 299.687 267.017 299.639 266.881C299.592 266.744 299.6 266.594 299.662 266.463L311.576 241.521C311.638 241.39 311.749 241.29 311.885 241.241C312.021 241.193 312.171 241.201 312.301 241.264C312.431 241.327 312.53 241.439 312.578 241.576C312.626 241.714 312.618 241.864 312.555 241.995L300.624 266.937C300.582 267.028 300.515 267.105 300.431 267.16C300.347 267.215 300.25 267.245 300.15 267.247Z" fill="black"/>
<path d="M251.087 277.07L291.74 284.605L345.479 277.07C345.479 277.07 343.14 281.78 345.945 285.549L290.804 297.798L249.225 287.434C249.225 287.434 246.415 280.857 251.087 277.07Z" fill="white"/>
<path d="M290.804 298.355C290.761 298.36 290.717 298.36 290.673 298.355L249.094 287.987C249.014 287.966 248.94 287.927 248.877 287.872C248.815 287.818 248.765 287.75 248.733 287.674C248.704 287.604 245.822 280.649 250.761 276.664C250.822 276.615 250.893 276.58 250.968 276.562C251.044 276.543 251.122 276.54 251.199 276.555L291.765 284.079L345.417 276.551C345.515 276.539 345.614 276.553 345.704 276.592C345.795 276.632 345.873 276.695 345.93 276.776C345.988 276.857 346.023 276.952 346.031 277.051C346.039 277.15 346.021 277.249 345.977 277.339C345.956 277.382 343.83 281.801 346.393 285.246C346.447 285.319 346.482 285.405 346.495 285.495C346.508 285.586 346.497 285.678 346.466 285.763C346.435 285.849 346.383 285.926 346.315 285.986C346.246 286.046 346.164 286.087 346.075 286.106L290.937 298.358C290.893 298.361 290.848 298.36 290.804 298.355ZM249.619 286.97L290.811 297.235L345.045 285.187C343.382 282.347 344.09 279.245 344.615 277.74L291.809 285.147C291.751 285.156 291.693 285.156 291.635 285.147L251.231 277.656C247.626 280.773 249.181 285.785 249.619 286.97Z" fill="black"/>
<path d="M290.803 299.448C290.67 299.449 290.538 299.433 290.409 299.401L248.83 289.037C248.406 288.931 248.043 288.659 247.817 288.283C246.212 285.585 245.728 283.015 246.371 280.645C247.286 277.281 250.189 275.673 250.312 275.607C250.638 275.43 251.014 275.369 251.379 275.436L293.956 279.081L347.076 273.54C347.499 273.481 347.929 273.589 348.274 273.844C348.619 274.099 348.851 274.479 348.923 274.904C348.994 275.329 348.898 275.765 348.655 276.12C348.412 276.474 348.041 276.72 347.622 276.803L292.712 286.128C292.525 286.161 292.335 286.161 292.148 286.128L251.447 278.804C250.528 279.483 249.854 280.446 249.528 281.546C249.166 282.851 249.444 284.342 250.301 285.986L290.836 296.098L347.474 283.93C347.686 283.881 347.906 283.875 348.12 283.912C348.335 283.95 348.54 284.03 348.723 284.148C348.907 284.266 349.065 284.42 349.189 284.6C349.313 284.78 349.401 284.984 349.446 285.199C349.491 285.413 349.494 285.635 349.453 285.851C349.413 286.066 349.33 286.272 349.21 286.455C349.09 286.638 348.936 286.795 348.755 286.918C348.574 287.04 348.371 287.125 348.157 287.167L291.15 299.416C291.036 299.44 290.92 299.451 290.803 299.448Z" fill="#07ACEE"/>
<path d="M290.803 299.999C290.626 299.998 290.45 299.977 290.278 299.937L248.699 289.569C248.42 289.5 248.157 289.375 247.926 289.203C247.695 289.031 247.499 288.815 247.351 288.567C245.666 285.738 245.163 283.025 245.85 280.503C246.826 276.919 249.925 275.199 250.055 275.13C250.482 274.899 250.973 274.817 251.451 274.896L293.952 278.542L347.025 273.008C347.584 272.913 348.157 273.044 348.62 273.373C348.979 273.621 349.255 273.972 349.413 274.381C349.571 274.79 349.604 275.238 349.506 275.666C349.409 276.094 349.186 276.482 348.867 276.78C348.547 277.079 348.146 277.273 347.716 277.339L292.795 286.689C292.549 286.735 292.296 286.735 292.05 286.689L251.588 279.398C250.854 279.99 250.317 280.794 250.048 281.702C249.755 282.796 249.961 284.097 250.666 285.53L290.835 295.537L347.358 283.408C347.638 283.348 347.928 283.344 348.21 283.397C348.492 283.449 348.761 283.557 349.002 283.714C349.243 283.872 349.45 284.076 349.613 284.314C349.776 284.552 349.89 284.82 349.95 285.103C350.01 285.386 350.014 285.678 349.962 285.963C349.91 286.247 349.803 286.519 349.646 286.761C349.49 287.004 349.288 287.214 349.052 287.378C348.816 287.542 348.55 287.657 348.269 287.717L291.258 299.966C291.108 299.993 290.955 300.004 290.803 299.999ZM251.086 275.961C250.904 275.96 250.725 276.005 250.565 276.092C248.795 277.135 247.482 278.813 246.888 280.791C246.284 283.015 246.747 285.439 248.273 288.002C248.424 288.254 248.668 288.436 248.952 288.508L290.532 298.872C290.695 298.909 290.864 298.909 291.027 298.872L348.034 286.62C348.176 286.591 348.311 286.534 348.43 286.453C348.55 286.371 348.652 286.266 348.731 286.143C348.81 286.021 348.864 285.884 348.889 285.741C348.915 285.597 348.912 285.45 348.88 285.308C348.852 285.164 348.795 285.028 348.714 284.907C348.632 284.786 348.528 284.683 348.406 284.603C348.284 284.524 348.148 284.469 348.005 284.444C347.863 284.418 347.716 284.422 347.575 284.455L290.936 296.623C290.857 296.641 290.774 296.641 290.694 296.623L250.16 286.522C250.084 286.504 250.012 286.47 249.95 286.422C249.888 286.374 249.836 286.314 249.798 286.244C248.876 284.476 248.602 282.851 248.981 281.411C249.34 280.191 250.084 279.124 251.1 278.37C251.16 278.325 251.228 278.293 251.301 278.275C251.374 278.257 251.449 278.255 251.523 278.268L292.242 285.596C292.362 285.614 292.484 285.614 292.603 285.596L347.513 276.271C347.801 276.221 348.057 276.058 348.225 275.818C348.394 275.578 348.462 275.281 348.414 274.991C348.391 274.847 348.341 274.709 348.265 274.585C348.188 274.46 348.088 274.353 347.971 274.268C347.853 274.184 347.719 274.124 347.578 274.092C347.437 274.06 347.29 274.057 347.148 274.083L293.999 279.628C293.965 279.632 293.931 279.632 293.898 279.628L251.321 275.983H251.274C251.212 275.97 251.149 275.963 251.086 275.961Z" fill="#1D1D1B"/>
<path d="M249.513 268.178L312.062 262.71L346.389 264.073C346.817 264.089 347.236 264.21 347.608 264.426C347.98 264.642 348.293 264.946 348.522 265.313C349.451 266.818 350.366 269.632 347.575 273.074L294.787 282.027L250.254 276.245C250.1 276.228 249.956 276.165 249.839 276.063C249.723 275.961 249.639 275.826 249.6 275.676C249.561 275.526 249.568 275.367 249.62 275.22C249.672 275.074 249.767 274.947 249.892 274.856C251.216 273.897 252.062 272.217 249.075 269.541C248.956 269.443 248.869 269.311 248.826 269.163C248.783 269.014 248.785 268.856 248.832 268.709C248.879 268.562 248.97 268.432 249.091 268.337C249.213 268.243 249.359 268.187 249.513 268.178Z" fill="#4BD657"/>
<path d="M294.787 282.563L250.175 276.774C249.914 276.741 249.67 276.629 249.474 276.453C249.277 276.278 249.138 276.046 249.074 275.79C249.01 275.533 249.024 275.263 249.115 275.014C249.205 274.766 249.368 274.551 249.582 274.397C250.207 273.942 250.54 273.439 250.569 272.892C250.608 272.072 249.968 271.051 248.717 269.939C248.526 269.767 248.389 269.541 248.324 269.291C248.26 269.04 248.271 268.776 248.356 268.532C248.433 268.286 248.581 268.069 248.782 267.909C248.982 267.749 249.226 267.654 249.48 267.635L312.066 262.149H312.102L346.425 263.516C346.943 263.532 347.448 263.677 347.897 263.937C348.346 264.197 348.725 264.564 348.999 265.007C349.943 266.53 351.064 269.647 348.012 273.391L347.886 273.552L294.787 282.563ZM312.077 263.242L249.56 268.71C249.517 268.713 249.475 268.728 249.441 268.755C249.407 268.782 249.382 268.818 249.368 268.86C249.355 268.903 249.355 268.949 249.367 268.992C249.379 269.036 249.403 269.075 249.437 269.104C250.966 270.464 251.711 271.751 251.65 272.932C251.606 273.829 251.122 274.612 250.204 275.272C250.166 275.297 250.137 275.334 250.121 275.376C250.105 275.419 250.102 275.465 250.113 275.509C250.123 275.553 250.147 275.593 250.18 275.622C250.214 275.652 250.257 275.67 250.301 275.673L294.755 281.444L347.275 272.542C349.618 269.542 348.999 267.103 348.056 265.572C347.874 265.281 347.624 265.04 347.329 264.869C347.033 264.698 346.701 264.603 346.36 264.591L312.077 263.242Z" fill="black"/>
<path d="M247.582 268.353L294.946 274.123C294.946 274.123 300.528 278.429 294.292 282.07L247.593 275.873C247.593 275.873 250.85 273.533 247.582 268.353Z" fill="white"/>
<path d="M294.281 282.617H294.209L247.51 276.42C247.401 276.406 247.3 276.36 247.218 276.286C247.137 276.213 247.079 276.117 247.052 276.011C247.026 275.904 247.032 275.792 247.069 275.688C247.107 275.585 247.175 275.496 247.264 275.432C247.38 275.352 250.059 273.285 247.123 268.633C247.068 268.546 247.039 268.444 247.039 268.341C247.039 268.237 247.068 268.136 247.123 268.049C247.178 267.961 247.256 267.891 247.349 267.847C247.442 267.803 247.545 267.786 247.647 267.799L295.011 273.569C295.107 273.583 295.198 273.62 295.275 273.679C295.387 273.762 297.943 275.767 297.781 278.356C297.679 279.942 296.595 281.345 294.563 282.533C294.478 282.586 294.381 282.615 294.281 282.617ZM248.677 275.483L294.165 281.505C295.763 280.536 296.613 279.457 296.696 278.297C296.808 276.548 295.17 275.016 294.725 274.652L248.605 269.031C250.265 272.257 249.44 274.397 248.677 275.483Z" fill="black"/>
<path d="M298.219 274.01C298.096 274.005 297.978 273.959 297.885 273.878C297.791 273.797 297.728 273.687 297.705 273.565C297.693 273.494 297.695 273.422 297.711 273.352C297.726 273.282 297.756 273.215 297.797 273.157C297.838 273.099 297.891 273.049 297.952 273.012C298.012 272.974 298.08 272.949 298.15 272.938L344.126 265.323C344.27 265.299 344.417 265.335 344.535 265.421C344.653 265.507 344.732 265.637 344.755 265.782C344.778 265.927 344.743 266.075 344.658 266.194C344.572 266.313 344.443 266.393 344.3 266.416L298.327 274.031L298.219 274.01Z" fill="#1D1E1B"/>
<path d="M306.101 288.576C305.957 288.59 305.813 288.545 305.702 288.452C305.591 288.359 305.521 288.225 305.508 288.08C305.494 287.935 305.539 287.791 305.631 287.679C305.723 287.567 305.856 287.496 305.999 287.482L344.093 280.192C344.235 280.165 344.381 280.195 344.5 280.277C344.619 280.359 344.701 280.485 344.728 280.627C344.755 280.77 344.724 280.917 344.643 281.037C344.562 281.157 344.437 281.24 344.296 281.267L306.202 288.558C306.169 288.567 306.135 288.574 306.101 288.576Z" fill="#1D1E1B"/>
<path d="M291.559 296.49C291.442 296.489 291.328 296.451 291.234 296.38C291.14 296.309 291.072 296.21 291.038 296.096C289.248 289.921 291.761 286.214 291.87 286.057C291.953 285.938 292.079 285.857 292.221 285.832C292.363 285.807 292.509 285.84 292.627 285.924C292.745 286.007 292.825 286.135 292.85 286.278C292.875 286.421 292.842 286.568 292.759 286.687C292.734 286.72 290.445 290.151 292.079 295.801C292.104 295.883 292.109 295.969 292.094 296.053C292.079 296.137 292.045 296.216 291.995 296.285C291.944 296.353 291.878 296.409 291.803 296.447C291.727 296.485 291.643 296.505 291.559 296.505V296.49Z" fill="#1D1E1B"/>
<path d="M299.668 276.845C299.381 276.868 299.096 276.774 298.876 276.585C298.657 276.396 298.521 276.127 298.499 275.837C298.476 275.547 298.569 275.26 298.756 275.039C298.944 274.817 299.211 274.68 299.498 274.658L331.677 269.554C331.961 269.509 332.252 269.579 332.485 269.749C332.718 269.92 332.874 270.177 332.919 270.464C332.964 270.75 332.894 271.043 332.725 271.278C332.556 271.513 332.301 271.67 332.017 271.716L299.838 276.819L299.668 276.845Z" fill="white"/>
<path d="M249.774 263.722C249.585 263.722 249.399 263.673 249.235 263.579C249.071 263.484 248.935 263.349 248.839 263.185C248.743 263.021 248.691 262.835 248.688 262.645C248.685 262.454 248.732 262.266 248.823 262.1L261.839 238.405C261.978 238.151 262.212 237.963 262.489 237.883C262.766 237.803 263.062 237.837 263.314 237.978C263.566 238.119 263.752 238.355 263.831 238.633C263.91 238.912 263.877 239.212 263.737 239.465L250.721 263.161C250.627 263.331 250.49 263.473 250.323 263.571C250.156 263.67 249.967 263.722 249.774 263.722Z" fill="white"/>
<path d="M147.937 279.56L217.884 269.816C218.101 269.788 218.3 269.681 218.444 269.516C218.588 269.351 218.667 269.139 218.667 268.919C218.667 268.699 218.588 268.486 218.444 268.321C218.3 268.156 218.101 268.05 217.884 268.022L147.778 258.723C147.717 258.715 147.655 258.715 147.594 258.723L111.799 261.5C111.6 261.516 111.412 261.597 111.264 261.733C111.116 261.868 111.017 262.049 110.983 262.248C110.949 262.446 110.982 262.651 111.076 262.828C111.17 263.006 111.32 263.147 111.503 263.228L147.46 279.498C147.61 279.563 147.776 279.585 147.937 279.56Z" fill="#4BD657"/>
<path d="M147.814 280.126C147.611 280.125 147.41 280.082 147.225 279.998L111.268 263.721C110.979 263.586 110.743 263.358 110.596 263.074C110.449 262.79 110.399 262.464 110.453 262.148C110.508 261.832 110.665 261.544 110.899 261.326C111.133 261.109 111.432 260.976 111.749 260.947L147.543 258.173C147.643 258.162 147.743 258.162 147.843 258.173L217.945 267.472C218.285 267.527 218.594 267.702 218.818 267.966C219.041 268.23 219.164 268.566 219.164 268.912C219.164 269.259 219.041 269.595 218.818 269.859C218.594 270.123 218.285 270.298 217.945 270.352L148.02 280.104C147.952 280.115 147.883 280.122 147.814 280.126ZM147.659 259.27H147.63L111.835 262.048C111.755 262.05 111.678 262.081 111.618 262.135C111.559 262.189 111.52 262.263 111.51 262.343C111.497 262.422 111.51 262.503 111.548 262.573C111.585 262.644 111.644 262.7 111.716 262.733L147.673 278.999C147.734 279.027 147.802 279.037 147.868 279.029L217.801 269.277C217.881 269.259 217.952 269.213 218.003 269.149C218.054 269.084 218.082 269.004 218.082 268.922C218.082 268.839 218.054 268.759 218.003 268.694C217.952 268.63 217.881 268.584 217.801 268.566L147.698 259.263L147.659 259.27Z" fill="black"/>
<path d="M126.478 258.564L127.277 258.717L176.829 268.231C177.011 268.265 177.175 268.363 177.291 268.508C177.408 268.653 177.469 268.836 177.463 269.023C177.457 269.209 177.385 269.388 177.26 269.525C177.135 269.663 176.966 269.751 176.782 269.773L134.685 275.117" fill="#382256"/>
<path d="M134.754 275.661L134.617 274.567L176.713 269.223C176.766 269.213 176.815 269.185 176.85 269.143C176.885 269.101 176.904 269.048 176.904 268.993C176.904 268.938 176.885 268.885 176.85 268.843C176.815 268.802 176.766 268.773 176.713 268.764L126.359 259.092L126.565 258.017L176.944 267.695C177.253 267.754 177.531 267.922 177.727 268.169C177.924 268.416 178.026 268.726 178.016 269.042C178.006 269.358 177.884 269.661 177.672 269.894C177.461 270.128 177.173 270.278 176.861 270.316L134.754 275.661Z" fill="#1D1E1B"/>
<path d="M55.501 197.51L117.364 204.006C118.24 204.098 119.074 204.428 119.779 204.961C120.483 205.494 121.031 206.21 121.363 207.032L148.201 273.379C148.532 274.197 148.638 275.089 148.507 275.963C148.377 276.836 148.014 277.658 147.459 278.341C146.903 279.024 146.175 279.543 145.351 279.843C144.527 280.143 143.638 280.213 142.778 280.046L77.9032 267.484C77.0984 267.332 76.345 266.977 75.7128 266.453C75.0806 265.928 74.5903 265.251 74.2876 264.484L50.4609 204.21C50.1481 203.424 50.0425 202.57 50.1544 201.731C50.2663 200.892 50.5919 200.096 51.0995 199.421C51.607 198.747 52.2791 198.216 53.0504 197.881C53.8218 197.546 54.6661 197.418 55.501 197.51Z" fill="#4BD657"/>
<path d="M143.732 280.681C143.378 280.681 143.024 280.647 142.676 280.579L77.8052 268.016C76.9133 267.846 76.0786 267.451 75.3788 266.867C74.6791 266.284 74.1369 265.532 73.8028 264.681L49.9762 204.404C49.631 203.532 49.5147 202.586 49.639 201.656C49.7632 200.726 50.1238 199.845 50.6853 199.097C51.2469 198.348 51.9906 197.759 52.8445 197.386C53.6983 197.013 54.6332 196.869 55.5586 196.967L117.418 203.463C118.391 203.565 119.32 203.931 120.103 204.523C120.886 205.115 121.495 205.91 121.865 206.824L148.703 273.171C149.034 273.996 149.159 274.891 149.069 275.776C148.978 276.661 148.675 277.511 148.185 278.251C147.695 278.992 147.034 279.6 146.258 280.024C145.481 280.448 144.615 280.675 143.732 280.684V280.681ZM54.9873 198.028C54.2839 198.034 53.5926 198.212 52.9728 198.548C52.353 198.883 51.8233 199.365 51.4295 199.953C51.0356 200.54 50.7893 201.216 50.7118 201.921C50.6344 202.625 50.7282 203.339 50.9849 203.999L74.8116 264.276C75.0773 264.957 75.51 265.558 76.0689 266.024C76.6279 266.49 77.2949 266.806 78.0077 266.941L142.882 279.503C143.646 279.651 144.436 279.589 145.168 279.322C145.899 279.055 146.546 278.594 147.039 277.987C147.533 277.38 147.854 276.65 147.97 275.875C148.086 275.099 147.992 274.306 147.698 273.579L120.86 207.233C120.565 206.501 120.078 205.865 119.452 205.391C118.826 204.917 118.084 204.624 117.306 204.542L55.461 198.053C55.2911 198.039 55.1392 198.028 54.9873 198.028Z" fill="black"/>
<path d="M153.779 212.936C153.779 212.936 149.954 210.235 137.961 212.801L153.779 212.936Z" fill="#07ACEE"/>
<path d="M153.776 213.483C153.666 213.483 153.559 213.451 153.469 213.388C153.411 213.348 149.56 210.88 138.074 213.337C137.933 213.367 137.786 213.339 137.665 213.26C137.544 213.181 137.46 213.056 137.43 212.914C137.4 212.772 137.428 212.624 137.506 212.502C137.585 212.381 137.708 212.295 137.849 212.265C149.933 209.681 153.924 212.375 154.091 212.488C154.208 212.571 154.288 212.699 154.312 212.841C154.337 212.984 154.304 213.131 154.221 213.249C154.171 213.322 154.105 213.381 154.027 213.422C153.95 213.463 153.863 213.484 153.776 213.483Z" fill="#1D1D1B"/>
<path d="M87.6032 213.171C79.6851 201.01 75.1259 187.653 74.0448 173.436C73.1843 162.084 74.533 150.178 78.0546 138.054C84.0456 117.424 94.4114 103.094 94.5163 102.952L95.3877 103.601C95.2865 103.743 85.0181 117.942 79.0849 138.393C73.6181 157.232 70.8198 185.39 88.5109 212.57L87.6032 213.171Z" fill="#1D1E1B"/>
<path d="M70.5452 211.874C61.3038 199.275 58.8233 184.898 58.3714 175.03C57.8796 164.36 59.5972 156.544 59.6153 156.467L60.671 156.708C60.671 156.784 58.9679 164.48 59.456 175.011C59.9044 184.705 62.3485 198.856 71.4164 211.221L70.5452 211.874Z" fill="#1D1E1B"/>
<path d="M92.6398 244.26C92.0013 244.224 91.3984 243.951 90.9477 243.494C90.2334 242.776 89.6864 241.908 89.3462 240.951C89.0061 239.994 88.8813 238.972 88.9808 237.96C89.129 236.947 89.5991 236.251 90.3042 235.995C91.6564 235.507 93.3521 236.918 94.1692 239.207C94.9827 241.496 94.5633 243.673 93.2111 244.161C93.0276 244.227 92.8344 244.26 92.6398 244.26ZM90.8717 236.991C90.8029 236.99 90.7345 237.001 90.6692 237.023C90.3655 237.136 90.1378 237.534 90.051 238.117C89.98 238.95 90.0882 239.789 90.3684 240.576C90.6486 241.363 91.0942 242.08 91.6745 242.678C92.112 243.075 92.5385 243.239 92.8458 243.129C93.5003 242.893 93.7678 241.307 93.146 239.572C92.5819 237.993 91.5479 236.991 90.8717 236.991Z" fill="#1D1E1B"/>
<path d="M132.629 246.224C132.415 246.225 132.206 246.161 132.028 246.043C131.85 245.924 131.711 245.755 131.627 245.557L117.165 210.925C117.053 210.658 117.052 210.357 117.16 210.088C117.268 209.819 117.478 209.605 117.743 209.493C118.009 209.38 118.307 209.378 118.574 209.488C118.84 209.597 119.053 209.809 119.164 210.076L133.627 244.707C133.682 244.84 133.711 244.982 133.712 245.126C133.713 245.269 133.686 245.412 133.632 245.545C133.578 245.678 133.499 245.799 133.399 245.901C133.299 246.003 133.18 246.084 133.048 246.14C132.915 246.196 132.773 246.224 132.629 246.224Z" fill="white"/>
<path d="M136.606 259.712C136.372 259.713 136.144 259.636 135.956 259.495C135.768 259.354 135.631 259.155 135.565 258.929L133.757 252.732C133.717 252.594 133.704 252.449 133.719 252.306C133.735 252.163 133.778 252.025 133.846 251.899C133.914 251.773 134.007 251.661 134.118 251.571C134.229 251.481 134.356 251.414 134.493 251.374C134.629 251.333 134.773 251.32 134.914 251.336C135.056 251.351 135.193 251.394 135.319 251.463C135.444 251.532 135.554 251.625 135.643 251.737C135.733 251.849 135.799 251.978 135.84 252.115L137.647 258.313C137.728 258.589 137.698 258.887 137.563 259.141C137.427 259.395 137.198 259.584 136.924 259.669C136.821 259.698 136.714 259.713 136.606 259.712Z" fill="white"/>
<defs>
<filter id="filter0_d_14030_98764" x="-4.01975" y="107.786" width="38.6843" height="38.6843" filterUnits="userSpaceOnUse" color-interpolation-filters="sRGB">
<feFlood flood-opacity="0" result="BackgroundImageFix"/>
<feColorMatrix in="SourceAlpha" type="matrix" values="0 0 0 0 0 0 0 0 0 0 0 0 0 0 0 0 0 0 127 0" result="hardAlpha"/>
<feOffset dy="2.03704"/>
<feGaussianBlur stdDeviation="5.09261"/>
<feComposite in2="hardAlpha" operator="out"/>
<feColorMatrix type="matrix" values="0 0 0 0 0 0 0 0 0 0 0 0 0 0 0 0 0 0 0.05 0"/>
<feBlend mode="normal" in2="BackgroundImageFix" result="effect1_dropShadow_14030_98764"/>
<feBlend mode="normal" in="SourceGraphic" in2="effect1_dropShadow_14030_98764" result="shape"/>
</filter>
<filter id="filter1_d_14030_98764" x="370.649" y="165.21" width="38.6887" height="38.6887" filterUnits="userSpaceOnUse" color-interpolation-filters="sRGB">
<feFlood flood-opacity="0" result="BackgroundImageFix"/>
<feColorMatrix in="SourceAlpha" type="matrix" values="0 0 0 0 0 0 0 0 0 0 0 0 0 0 0 0 0 0 127 0" result="hardAlpha"/>
<feOffset dy="2.03704"/>
<feGaussianBlur stdDeviation="5.09261"/>
<feComposite in2="hardAlpha" operator="out"/>
<feColorMatrix type="matrix" values="0 0 0 0 0 0 0 0 0 0 0 0 0 0 0 0 0 0 0.05 0"/>
<feBlend mode="normal" in2="BackgroundImageFix" result="effect1_dropShadow_14030_98764"/>
<feBlend mode="normal" in="SourceGraphic" in2="effect1_dropShadow_14030_98764" result="shape"/>
</filter>
<linearGradient id="paint0_linear_14030_98764" x1="20.4544" y1="112.038" x2="392.052" y2="200.547" gradientUnits="userSpaceOnUse">
<stop stop-color="#CDD5E2"/>
<stop offset="1" stop-color="#CDD5E2" stop-opacity="0"/>
</linearGradient>
<linearGradient id="paint1_linear_14030_98764" x1="391.41" y1="195.438" x2="353.85" y2="294.044" gradientUnits="userSpaceOnUse">
<stop stop-color="#CDD5E2"/>
<stop offset="1" stop-color="#CDD5E2" stop-opacity="0"/>
</linearGradient>
<linearGradient id="paint2_linear_14030_98764" x1="196.502" y1="23.2605" x2="196.502" y2="365.006" gradientUnits="userSpaceOnUse">
<stop stop-color="#CDD5E2"/>
<stop offset="1" stop-color="#CDD5E2" stop-opacity="0"/>
</linearGradient>
<linearGradient id="paint3_linear_14030_98764" x1="196.505" y1="57.4338" x2="196.505" y2="330.83" gradientUnits="userSpaceOnUse">
<stop stop-color="#CDD5E2"/>
<stop offset="1" stop-color="#CDD5E2" stop-opacity="0"/>
</linearGradient>
</defs>
</svg>
