<svg width="406" height="302" viewBox="0 0 406 302" fill="none" xmlns="http://www.w3.org/2000/svg">
<mask id="mask0_14058_95189" style="mask-type:alpha" maskUnits="userSpaceOnUse" x="0" y="0" width="406" height="302">
<rect width="405.823" height="301.875" fill="#D9D9D9"/>
</mask>
<g mask="url(#mask0_14058_95189)">
<g opacity="0.5">
<mask id="path-2-inside-1_14058_95189" fill="white">
<path d="M389.977 202.565C391.993 156.308 377.369 110.86 348.757 74.4588C320.144 38.0574 279.437 13.1119 234.013 4.14415C188.59 -4.82363 141.456 2.77982 101.157 25.5762C60.8571 48.3727 30.0587 84.8533 14.3442 128.405L15.1839 128.708C30.8259 85.357 61.4823 49.0446 101.596 26.3532C141.71 3.66186 188.626 -3.90654 233.84 5.0199C279.055 13.9463 319.574 38.7768 348.055 75.0104C376.535 111.244 391.092 156.483 389.085 202.526L389.977 202.565Z"/>
</mask>
<path d="M389.977 202.565C391.993 156.308 377.369 110.86 348.757 74.4588C320.144 38.0574 279.437 13.1119 234.013 4.14415C188.59 -4.82363 141.456 2.77982 101.157 25.5762C60.8571 48.3727 30.0587 84.8533 14.3442 128.405L15.1839 128.708C30.8259 85.357 61.4823 49.0446 101.596 26.3532C141.71 3.66186 188.626 -3.90654 233.84 5.0199C279.055 13.9463 319.574 38.7768 348.055 75.0104C376.535 111.244 391.092 156.483 389.085 202.526L389.977 202.565Z" stroke="url(#paint0_linear_14058_95189)" stroke-width="2.84788" stroke-dasharray="4.27 4.27" mask="url(#path-2-inside-1_14058_95189)"/>
</g>
<g opacity="0.5">
<mask id="path-3-inside-2_14058_95189" fill="white">
<path d="M14.6043 260.572C30.4892 304.063 61.4301 340.422 101.819 363.061C142.207 385.699 189.37 393.118 234.758 383.973C280.146 374.827 320.756 349.723 349.225 313.21C377.695 276.697 392.141 231.192 389.944 184.943L389.052 184.986C391.239 231.021 376.86 276.316 348.521 312.661C320.183 349.006 279.761 373.994 234.582 383.098C189.403 392.201 142.457 384.816 102.255 362.282C62.0527 339.748 31.2544 303.556 15.4428 260.266L14.6043 260.572Z"/>
</mask>
<path d="M14.6043 260.572C30.4892 304.063 61.4301 340.422 101.819 363.061C142.207 385.699 189.37 393.118 234.758 383.973C280.146 374.827 320.756 349.723 349.225 313.21C377.695 276.697 392.141 231.192 389.944 184.943L389.052 184.986C391.239 231.021 376.86 276.316 348.521 312.661C320.183 349.006 279.761 373.994 234.582 383.098C189.403 392.201 142.457 384.816 102.255 362.282C62.0527 339.748 31.2544 303.556 15.4428 260.266L14.6043 260.572Z" stroke="url(#paint1_linear_14058_95189)" stroke-width="2.84788" stroke-dasharray="4.27 4.27" mask="url(#path-3-inside-2_14058_95189)"/>
</g>
<circle opacity="0.08" cx="196.502" cy="194.133" r="170.873" fill="url(#paint2_linear_14058_95189)"/>
<circle opacity="0.1" cx="196.503" cy="194.132" r="136.698" fill="url(#paint3_linear_14058_95189)"/>
<circle cx="196.503" cy="194.134" r="91.1321" fill="white"/>
<g filter="url(#filter0_d_14058_95189)">
<circle cx="15.3224" cy="125.09" r="7.11969" transform="rotate(-2.50406 15.3224 125.09)" fill="#0170FF"/>
<circle cx="15.3224" cy="125.09" r="8.13822" transform="rotate(-2.50406 15.3224 125.09)" stroke="white" stroke-width="2.03704"/>
</g>
<g filter="url(#filter1_d_14058_95189)">
<circle cx="389.995" cy="182.517" r="7.11969" transform="rotate(-15.7345 389.995 182.517)" fill="#0170FF"/>
<circle cx="389.995" cy="182.517" r="8.13822" transform="rotate(-15.7345 389.995 182.517)" stroke="white" stroke-width="2.03704"/>
</g>
</g>
<path d="M314.898 290.761L140.83 291.82C140.662 291.82 140.5 291.887 140.381 292.006C140.262 292.125 140.195 292.286 140.195 292.455C140.195 292.623 140.262 292.784 140.381 292.903C140.5 293.022 140.662 293.089 140.83 293.089L314.898 292.03C315.066 292.03 315.228 291.963 315.347 291.844C315.466 291.725 315.533 291.563 315.533 291.395C315.533 291.227 315.466 291.066 315.347 290.947C315.228 290.828 315.066 290.761 314.898 290.761Z" fill="black"/>
<path d="M338.859 283.239H313.839C313.713 283.239 313.592 283.289 313.503 283.379C313.413 283.468 313.363 283.589 313.363 283.715C313.363 283.841 313.413 283.962 313.503 284.052C313.592 284.141 313.713 284.191 313.839 284.191H338.859C338.985 284.191 339.106 284.141 339.196 284.052C339.285 283.962 339.335 283.841 339.335 283.715C339.335 283.589 339.285 283.468 339.196 283.379C339.106 283.289 338.985 283.239 338.859 283.239Z" fill="black"/>
<path d="M146.115 298.042H120.038C119.912 298.042 119.791 298.092 119.702 298.181C119.613 298.27 119.562 298.391 119.562 298.517C119.562 298.644 119.613 298.765 119.702 298.854C119.791 298.943 119.912 298.993 120.038 298.993H146.115C146.241 298.993 146.362 298.943 146.451 298.854C146.541 298.765 146.591 298.644 146.591 298.517C146.591 298.391 146.541 298.27 146.451 298.181C146.362 298.092 146.241 298.042 146.115 298.042Z" fill="black"/>
<path d="M284.384 187.809C283.37 187.822 282.357 187.764 281.351 187.638C281.225 187.619 281.111 187.551 281.036 187.448C280.96 187.345 280.928 187.217 280.947 187.091C280.966 186.965 281.034 186.851 281.136 186.775C281.239 186.699 281.368 186.667 281.494 186.686C281.551 186.686 287.334 187.524 295.166 185.233C302.393 183.117 312.897 177.839 321.903 164.689C321.974 164.585 322.084 164.513 322.208 164.49C322.332 164.466 322.46 164.493 322.564 164.564C322.669 164.635 322.741 164.745 322.764 164.869C322.788 164.993 322.761 165.121 322.69 165.226C313.509 178.632 302.774 184.009 295.385 186.163C291.814 187.226 288.11 187.78 284.384 187.809Z" fill="black"/>
<path d="M303.275 194.998C297.93 194.998 294.431 193.659 294.285 193.599C294.223 193.579 294.167 193.546 294.118 193.503C294.07 193.461 294.03 193.408 294.003 193.35C293.975 193.291 293.96 193.228 293.957 193.163C293.955 193.098 293.966 193.034 293.99 192.974C294.013 192.913 294.049 192.858 294.095 192.812C294.14 192.766 294.194 192.73 294.254 192.706C294.314 192.681 294.379 192.67 294.443 192.671C294.508 192.672 294.572 192.687 294.63 192.714C294.773 192.768 309.011 198.107 323.41 186.791C323.509 186.718 323.634 186.686 323.756 186.703C323.879 186.719 323.99 186.783 324.067 186.881C324.143 186.978 324.178 187.101 324.165 187.224C324.152 187.347 324.092 187.461 323.997 187.54C316.247 193.631 308.592 194.957 303.535 194.998H303.275Z" fill="black"/>
<path d="M255.345 142.061C261.767 142.061 266.972 136.856 266.972 130.435C266.972 124.013 261.767 118.808 255.345 118.808C248.924 118.808 243.719 124.013 243.719 130.435C243.719 136.856 248.924 142.061 255.345 142.061Z" fill="#382256"/>
<path d="M255.346 118.805C257.647 118.805 259.895 119.487 261.808 120.765C263.72 122.043 265.211 123.86 266.091 125.985C266.971 128.11 267.201 130.449 266.752 132.705C266.303 134.961 265.195 137.033 263.569 138.659C261.942 140.286 259.869 141.393 257.613 141.842C255.357 142.29 253.019 142.059 250.894 141.178C248.769 140.298 246.953 138.807 245.675 136.894C244.398 134.981 243.716 132.732 243.717 130.432C243.717 128.905 244.017 127.393 244.602 125.982C245.186 124.571 246.043 123.289 247.123 122.209C248.203 121.13 249.485 120.273 250.896 119.689C252.307 119.105 253.819 118.805 255.346 118.805ZM255.346 117.854C252.858 117.853 250.425 118.59 248.355 119.973C246.286 121.355 244.673 123.32 243.72 125.619C242.767 127.918 242.518 130.448 243.003 132.889C243.489 135.33 244.687 137.572 246.447 139.331C248.206 141.091 250.448 142.289 252.889 142.775C255.33 143.26 257.86 143.011 260.159 142.058C262.458 141.105 264.423 139.492 265.806 137.423C267.188 135.353 267.925 132.92 267.925 130.432C267.92 127.097 266.594 123.9 264.236 121.542C261.878 119.184 258.681 117.858 255.346 117.854Z" fill="black"/>
<path d="M252.17 172.595C252.17 172.595 251.815 183.292 259.568 181.88C267.321 180.468 283.881 177.299 287.053 188.929C290.225 200.559 288.814 202.671 297.271 203.376C305.728 204.08 319.417 220.065 299.711 233.389C280.004 246.713 236.309 181.88 236.309 181.88L238.142 175.504L252.17 172.595Z" fill="#382256"/>
<path d="M252.171 172.595C252.171 172.595 251.854 182.01 258.221 182.01C258.674 182.008 259.125 181.965 259.569 181.88C262.799 181.294 267.564 180.399 272.259 180.399C278.813 180.399 285.214 182.147 287.064 188.929C290.236 200.556 288.825 202.672 297.282 203.376C305.739 204.08 319.428 220.066 299.721 233.389C297.927 234.598 295.806 235.228 293.643 235.194C272.252 235.194 236.323 181.88 236.323 181.88L238.156 175.504L252.181 172.595H252.171ZM252.181 171.643C252.116 171.643 252.051 171.65 251.987 171.662L237.963 174.575C237.793 174.61 237.637 174.69 237.51 174.808C237.383 174.925 237.291 175.075 237.243 175.241L235.409 181.617C235.37 181.751 235.361 181.891 235.382 182.029C235.404 182.167 235.455 182.298 235.533 182.413C241.939 191.705 248.854 200.636 256.245 209.165C271.903 227.07 284.479 236.146 293.643 236.146C295.996 236.178 298.302 235.492 300.254 234.179C311.5 226.566 311.389 218.597 310.323 214.511C308.562 207.779 302.199 202.827 297.361 202.424C291.175 201.907 290.969 201.041 289.383 194.284C289.005 192.682 288.577 190.864 287.981 188.675C286.312 182.55 281.021 179.444 272.259 179.444C267.63 179.444 262.859 180.313 259.706 180.887L259.407 180.941C259.019 181.015 258.625 181.053 258.23 181.056C257.678 181.074 257.128 180.977 256.617 180.768C256.105 180.56 255.643 180.246 255.261 179.847C252.996 177.509 253.13 172.671 253.133 172.624C253.137 172.496 253.116 172.369 253.07 172.25C253.024 172.13 252.954 172.022 252.865 171.93C252.777 171.838 252.67 171.765 252.553 171.715C252.435 171.666 252.309 171.64 252.181 171.64V171.643Z" fill="black"/>
<path d="M301.806 231.867C301.048 214.203 274.019 194.567 265.21 191.394C256.4 188.222 245.83 183.292 244.422 179.416C243.013 175.539 249.466 174.153 249.466 174.153L247.588 173.547L238.15 175.504L236.316 181.881C236.316 181.881 280.009 246.716 299.715 233.389C300.461 232.885 301.152 232.374 301.806 231.867Z" fill="#050505"/>
<path d="M210.075 148.095C210.075 148.095 206.011 138.188 212.356 133.255C218.7 128.322 220.105 129.73 223.278 126.91C226.45 124.09 234.552 123.738 239.488 128.322C239.488 128.322 249.354 126.558 254.991 131.494C260.629 136.43 261.336 140.656 260.629 146.648C259.921 152.641 260.629 155.81 260.277 160.039C259.924 164.267 257.072 175.206 239.656 175.548C222.24 175.891 210.075 148.095 210.075 148.095Z" fill="#382256"/>
<path d="M230.067 124.833C233.287 124.833 236.843 125.873 239.489 128.322C240.853 128.106 242.232 128 243.613 128.005C246.982 128.005 251.709 128.604 254.999 131.494C260.636 136.431 261.343 140.656 260.636 146.649C259.928 152.641 260.636 155.81 260.284 160.039C259.932 164.268 257.08 175.206 239.664 175.548H239.346C222.089 175.548 210.094 148.095 210.094 148.095C210.094 148.095 206.031 138.188 212.375 133.255C218.72 128.322 220.125 129.731 223.298 126.91C224.77 125.603 227.301 124.826 230.086 124.826L230.067 124.833ZM230.086 123.875C227.076 123.875 224.303 124.744 222.666 126.2C221.381 127.342 220.446 127.707 219.177 128.211C217.505 128.865 215.424 129.683 211.798 132.503C208.943 134.724 207.598 138.213 207.912 142.591C208.064 144.598 208.503 146.572 209.219 148.454V148.476C211.48 153.391 214.251 158.056 217.486 162.393C220.534 166.453 223.713 169.689 226.933 172.03C231.025 174.996 235.2 176.5 239.343 176.5H239.682C247.471 176.348 253.323 174.121 257.092 169.883C259.485 167.155 260.939 163.731 261.242 160.115C261.361 158.388 261.384 156.655 261.311 154.925C261.19 152.2 261.284 149.47 261.591 146.76C262.317 140.577 261.591 135.974 255.633 130.781C252.128 127.71 247.166 127.066 243.622 127.066C242.349 127.064 241.078 127.148 239.816 127.316C237.278 125.128 233.76 123.878 230.096 123.878L230.086 123.875Z" fill="black"/>
<path d="M123.209 154.748V160.74C123.209 160.74 112.636 166.377 117.569 181.88C122.502 197.383 133.075 229.449 186.282 224.868C186.282 224.868 171.483 264.335 176.416 291.82L286.708 290.408C286.708 290.408 307.144 285.475 306.087 271.733C305.031 257.991 302.915 259.402 303.267 249.184C303.619 238.966 293.049 201.26 245.48 186.813C245.48 186.813 229.974 201.26 219.404 187.165C219.404 187.165 182.757 194.919 170.778 194.214C158.8 193.51 158.444 191.042 159.149 180.824C159.853 170.606 156.332 161.444 145.054 157.216L144.35 152.635C144.35 152.635 139.417 156.873 123.209 154.748Z" fill="#07ACEE"/>
<path d="M144.35 152.635L145.054 157.216C156.332 161.444 159.853 170.606 159.149 180.824C158.444 191.042 158.797 193.513 170.778 194.214C171.299 194.246 171.866 194.259 172.475 194.259C185.875 194.259 219.404 187.165 219.404 187.165C222.871 191.788 226.865 193.342 230.672 193.342C238.476 193.342 245.48 186.813 245.48 186.813C293.065 201.26 303.619 238.963 303.267 249.184C302.915 259.405 305.028 257.991 306.087 271.733C307.147 285.476 286.708 290.408 286.708 290.408L176.416 291.82C171.483 264.335 186.282 224.868 186.282 224.868C182.792 225.17 179.483 225.313 176.346 225.313C131.718 225.313 122.179 196.368 117.569 181.88C112.636 166.377 123.209 160.74 123.209 160.74V154.748C126.001 155.128 128.814 155.326 131.632 155.341C141.193 155.341 144.35 152.635 144.35 152.635ZM144.35 151.683C144.126 151.683 143.909 151.761 143.737 151.905C143.709 151.931 140.606 154.389 131.632 154.389C128.855 154.372 126.082 154.177 123.33 153.805C123.29 153.802 123.249 153.802 123.209 153.805C122.957 153.805 122.715 153.906 122.536 154.084C122.358 154.263 122.258 154.505 122.258 154.757V160.217C120.414 161.464 118.866 163.102 117.724 165.013C115.773 168.236 114.007 173.829 116.665 182.179C118.825 188.977 122.448 200.356 131.258 209.692C136.13 214.82 142.056 218.833 148.626 221.455C156.503 224.653 165.829 226.274 176.346 226.274C179.09 226.274 181.958 226.163 184.889 225.957C182.399 233.136 180.291 240.443 178.573 247.846C175.74 260.068 172.901 277.665 175.48 292.01C175.52 292.233 175.637 292.434 175.812 292.577C175.986 292.721 176.206 292.798 176.432 292.794L286.72 291.382C286.792 291.382 286.863 291.373 286.933 291.357C290.56 290.398 294.041 288.955 297.281 287.065C304.127 283.007 307.499 277.688 307.039 271.682C306.535 265.147 305.789 261.969 305.19 259.418C304.523 256.563 304.038 254.523 304.222 249.238C304.381 244.651 302.265 232.441 293.135 219.069C288.225 211.923 282.164 205.64 275.198 200.476C266.785 194.198 256.878 189.304 245.759 185.925C245.67 185.899 245.577 185.885 245.483 185.884C245.247 185.888 245.021 185.979 244.849 186.141C244.782 186.201 238.019 192.412 230.691 192.412C226.602 192.412 223.077 190.461 220.184 186.617C220.095 186.498 219.98 186.403 219.848 186.336C219.716 186.27 219.57 186.236 219.423 186.236C219.356 186.236 219.29 186.243 219.226 186.258C218.909 186.328 185.644 193.329 172.495 193.329C171.898 193.329 171.346 193.313 170.851 193.285C165.192 192.952 162.473 192.241 161.16 190.747C159.672 189.056 159.774 185.903 160.119 180.913C160.941 168.969 156.04 160.556 145.93 156.549L145.295 152.511C145.269 152.344 145.198 152.186 145.09 152.055C144.983 151.924 144.842 151.824 144.683 151.766C144.582 151.727 144.474 151.706 144.366 151.705L144.35 151.683Z" fill="black"/>
<path d="M178.5 225.287C180.987 225.236 183.576 225.103 186.279 224.868C186.279 224.868 189.451 215.707 201.782 203.376C201.782 203.376 184.956 212.22 178.5 225.287Z" fill="#0598C6"/>
<path d="M266.973 277.738C262.744 275.27 259.223 276.326 260.279 271.393C261.335 266.46 268.736 258.003 269.441 250.253C270.145 242.503 266.62 231.578 253.938 219.596C253.938 219.596 266.973 235.102 264.156 247.433C261.339 259.764 252.174 270.337 259.223 276.326C259.223 276.326 252.815 286.3 254.962 290.827L270.009 290.637C270.145 289.2 270.872 279.997 266.973 277.738Z" fill="#0598C6"/>
<path d="M186.282 225.344C186.217 225.344 186.154 225.331 186.095 225.306C186.036 225.281 185.983 225.245 185.939 225.199C185.895 225.154 185.86 225.1 185.837 225.041C185.814 224.982 185.803 224.919 185.805 224.855C185.807 224.792 185.821 224.729 185.847 224.671C190.409 214.143 202.381 201.748 202.502 201.625C202.545 201.577 202.597 201.539 202.655 201.513C202.713 201.486 202.775 201.471 202.839 201.469C202.903 201.468 202.966 201.478 203.026 201.502C203.085 201.525 203.139 201.559 203.185 201.604C203.231 201.648 203.267 201.702 203.292 201.76C203.317 201.819 203.329 201.882 203.329 201.946C203.329 202.01 203.316 202.073 203.291 202.132C203.266 202.19 203.23 202.243 203.184 202.288C203.066 202.411 191.211 214.682 186.719 225.049C186.684 225.136 186.623 225.21 186.545 225.263C186.467 225.315 186.376 225.344 186.282 225.344Z" fill="black"/>
<path d="M263.594 276.717C263.508 276.716 263.424 276.693 263.35 276.65C257.773 273.29 259.391 270.55 262.614 265.084C263.483 263.605 264.473 261.93 265.51 259.945C270.389 250.605 269.691 246.481 266.462 237.078C263.29 227.879 253.744 220.03 253.649 219.948C253.6 219.909 253.56 219.86 253.53 219.805C253.501 219.75 253.482 219.69 253.475 219.628C253.469 219.566 253.475 219.503 253.493 219.443C253.51 219.383 253.54 219.327 253.579 219.279C253.618 219.23 253.667 219.19 253.722 219.16C253.777 219.13 253.837 219.112 253.899 219.105C253.961 219.099 254.024 219.104 254.084 219.122C254.144 219.14 254.2 219.169 254.248 219.209C254.651 219.526 264.105 227.305 267.36 236.761C270.614 246.218 271.385 250.751 266.357 260.379C265.307 262.387 264.314 264.072 263.435 265.56C260.174 271.092 259.074 272.957 263.845 275.828C263.933 275.882 264.002 275.964 264.04 276.06C264.077 276.157 264.083 276.263 264.055 276.363C264.027 276.463 263.967 276.551 263.884 276.613C263.802 276.676 263.701 276.71 263.597 276.71L263.594 276.717Z" fill="black"/>
<path d="M144.348 152.635C144.348 152.635 139.414 156.863 123.207 154.748V160.74C123.207 160.74 138.92 167.024 145.052 157.216L144.348 152.635Z" fill="#0598C6"/>
<path d="M134.25 211.304C141.324 217.835 151.399 223.082 166.074 224.754C165.602 199.975 134.25 211.304 134.25 211.304Z" fill="#0598C6"/>
<path d="M152.516 185.598C153.942 185.598 155.098 184.442 155.098 183.016C155.098 181.59 153.942 180.434 152.516 180.434C151.09 180.434 149.934 181.59 149.934 183.016C149.934 184.442 151.09 185.598 152.516 185.598Z" fill="#51CEF4"/>
<path d="M175.993 211.611C177.419 211.611 178.575 210.455 178.575 209.029C178.575 207.603 177.419 206.447 175.993 206.447C174.566 206.447 173.41 207.603 173.41 209.029C173.41 210.455 174.566 211.611 175.993 211.611Z" fill="#51CEF4"/>
<path d="M215.329 220.176C216.755 220.176 217.911 219.02 217.911 217.594C217.911 216.168 216.755 215.012 215.329 215.012C213.902 215.012 212.746 216.168 212.746 217.594C212.746 219.02 213.902 220.176 215.329 220.176Z" fill="#51CEF4"/>
<path d="M191.856 249.044C193.282 249.044 194.438 247.888 194.438 246.462C194.438 245.036 193.282 243.88 191.856 243.88C190.43 243.88 189.273 245.036 189.273 246.462C189.273 247.888 190.43 249.044 191.856 249.044Z" fill="#51CEF4"/>
<path d="M247.688 235.086C249.114 235.086 250.27 233.93 250.27 232.504C250.27 231.078 249.114 229.922 247.688 229.922C246.262 229.922 245.105 231.078 245.105 232.504C245.105 233.93 246.262 235.086 247.688 235.086Z" fill="#51CEF4"/>
<path d="M223.579 245.238C225.005 245.238 226.161 244.082 226.161 242.656C226.161 241.229 225.005 240.073 223.579 240.073C222.152 240.073 220.996 241.229 220.996 242.656C220.996 244.082 222.152 245.238 223.579 245.238Z" fill="#51CEF4"/>
<path d="M251.493 263.003C252.919 263.003 254.075 261.847 254.075 260.421C254.075 258.995 252.919 257.838 251.493 257.838C250.066 257.838 248.91 258.995 248.91 260.421C248.91 261.847 250.066 263.003 251.493 263.003Z" fill="#51CEF4"/>
<path d="M183.606 288.064C185.032 288.064 186.188 286.908 186.188 285.482C186.188 284.056 185.032 282.899 183.606 282.899C182.18 282.899 181.023 284.056 181.023 285.482C181.023 286.908 182.18 288.064 183.606 288.064Z" fill="#51CEF4"/>
<path d="M211.207 271.885C212.634 271.885 213.79 270.729 213.79 269.303C213.79 267.877 212.634 266.721 211.207 266.721C209.781 266.721 208.625 267.877 208.625 269.303C208.625 270.729 209.781 271.885 211.207 271.885Z" fill="#51CEF4"/>
<path d="M240.391 287.112C241.817 287.112 242.973 285.956 242.973 284.53C242.973 283.104 241.817 281.948 240.391 281.948C238.965 281.948 237.809 283.104 237.809 284.53C237.809 285.956 238.965 287.112 240.391 287.112Z" fill="#51CEF4"/>
<path d="M256.571 202.728C257.997 202.728 259.153 201.572 259.153 200.146C259.153 198.72 257.997 197.564 256.571 197.564C255.145 197.564 253.988 198.72 253.988 200.146C253.988 201.572 255.145 202.728 256.571 202.728Z" fill="#51CEF4"/>
<path d="M272.114 230.328C273.54 230.328 274.696 229.171 274.696 227.745C274.696 226.319 273.54 225.163 272.114 225.163C270.688 225.163 269.531 226.319 269.531 227.745C269.531 229.171 270.688 230.328 272.114 230.328Z" fill="#51CEF4"/>
<path d="M299.079 268.079C300.505 268.079 301.661 266.922 301.661 265.496C301.661 264.07 300.505 262.914 299.079 262.914C297.652 262.914 296.496 264.07 296.496 265.496C296.496 266.922 297.652 268.079 299.079 268.079Z" fill="#51CEF4"/>
<path d="M276.872 260.465C278.298 260.465 279.454 259.309 279.454 257.883C279.454 256.456 278.298 255.3 276.872 255.3C275.445 255.3 274.289 256.456 274.289 257.883C274.289 259.309 275.445 260.465 276.872 260.465Z" fill="#51CEF4"/>
<path d="M140.93 200.651C142.356 200.651 143.512 199.495 143.512 198.069C143.512 196.642 142.356 195.486 140.93 195.486C139.504 195.486 138.348 196.642 138.348 198.069C138.348 199.495 139.504 200.651 140.93 200.651Z" fill="#51CEF4"/>
<path d="M126.594 175.996C128.02 175.996 129.176 174.839 129.176 173.413C129.176 171.987 128.02 170.831 126.594 170.831C125.168 170.831 124.012 171.987 124.012 173.413C124.012 174.839 125.168 175.996 126.594 175.996Z" fill="#51CEF4"/>
<path d="M219.4 187.165C219.4 187.165 212.706 189.985 216.583 193.862C220.46 197.738 226.417 195.169 229.434 193.281C229.434 193.281 228.562 198.091 234.906 197.386C241.251 196.682 246.181 194.918 245.477 187.165H219.4Z" fill="white"/>
<path d="M245.479 187.165C246.183 194.918 241.25 196.682 234.908 197.386C234.509 197.431 234.108 197.455 233.706 197.456C228.678 197.456 229.436 193.281 229.436 193.281C227.574 194.452 224.579 195.879 221.645 195.879C220.706 195.906 219.772 195.741 218.899 195.394C218.026 195.047 217.233 194.526 216.569 193.862C212.692 189.985 219.386 187.165 219.386 187.165H245.462H245.479ZM245.462 186.213H219.386C219.26 186.213 219.134 186.239 219.018 186.29C218.609 186.461 215.005 188.05 214.472 190.766C214.218 192.069 214.697 193.335 215.893 194.534C216.643 195.286 217.539 195.878 218.525 196.273C219.511 196.668 220.567 196.858 221.629 196.831C224.268 196.831 226.844 195.768 228.532 194.887C228.664 195.575 228.968 196.22 229.414 196.761C230.324 197.853 231.765 198.408 233.69 198.408C234.127 198.406 234.563 198.381 234.997 198.332C237.852 198.014 241.104 197.447 243.4 195.67C245.783 193.83 246.766 191.019 246.411 187.079C246.39 186.842 246.28 186.622 246.104 186.461C245.928 186.301 245.698 186.212 245.459 186.213H245.462Z" fill="black"/>
<path d="M258.298 290.814C258.298 290.814 255.697 279.486 266.972 274.553C278.246 269.62 290.228 268.564 297.629 274.553C305.03 280.542 305.734 287.943 303.618 292.876C301.502 297.809 296.22 298.866 290.58 294.989C290.58 294.989 285.295 302.742 275.781 295.341C275.781 295.341 263.45 303.799 263.092 290.408L258.298 290.814Z" fill="#FFCDB2"/>
<path d="M284.531 270.442C289.559 270.442 294.121 271.711 297.642 274.547C305.04 280.536 305.747 287.937 303.631 292.87C302.388 295.776 300.04 297.337 297.169 297.337C295.167 297.337 292.912 296.579 290.593 294.983C290.593 294.983 288.173 298.536 283.655 298.536C281.501 298.536 278.868 297.727 275.794 295.335C275.794 295.335 271.952 297.971 268.498 297.971C265.76 297.971 263.267 296.322 263.105 290.402L258.305 290.808C258.305 290.808 255.704 279.48 266.978 274.547C272.888 271.961 278.992 270.442 284.525 270.442H284.531ZM284.525 269.49C279.055 269.49 272.857 270.937 266.598 273.674C260.405 276.384 258.226 280.971 257.484 284.324C256.997 286.526 256.961 288.804 257.379 291.021C257.427 291.231 257.545 291.418 257.713 291.552C257.881 291.686 258.09 291.76 258.305 291.76H258.388L262.194 291.443C262.661 297.6 265.83 298.933 268.482 298.933C271.401 298.933 274.474 297.267 275.734 296.503C278.446 298.492 281.105 299.497 283.639 299.497C284.989 299.483 286.32 299.188 287.548 298.63C288.777 298.073 289.875 297.265 290.774 296.258C292.937 297.594 295.126 298.298 297.153 298.298C300.443 298.298 303.117 296.458 304.491 293.254C305.726 290.281 305.944 286.983 305.11 283.874C304.158 280.159 301.763 276.679 298.226 273.817C294.688 270.956 290.073 269.5 284.515 269.5L284.525 269.49Z" fill="black"/>
<path d="M275.78 295.82C275.723 295.82 275.666 295.811 275.612 295.792C275.494 295.746 275.399 295.656 275.347 295.541C275.296 295.426 275.292 295.295 275.336 295.176C278.045 288.061 274.683 280.822 274.648 280.752C274.593 280.638 274.587 280.507 274.629 280.388C274.671 280.269 274.759 280.172 274.873 280.118C274.987 280.063 275.118 280.056 275.237 280.099C275.356 280.141 275.453 280.229 275.507 280.343C275.653 280.66 279.083 288.013 276.225 295.516C276.191 295.606 276.13 295.684 276.05 295.738C275.971 295.793 275.877 295.821 275.78 295.82Z" fill="black"/>
<path d="M290.582 295.82C290.539 295.827 290.495 295.827 290.452 295.82C290.333 295.784 290.233 295.702 290.174 295.592C290.115 295.482 290.1 295.353 290.135 295.233C293.187 284.384 287.88 279.918 287.826 279.873C287.775 279.834 287.733 279.786 287.702 279.73C287.671 279.675 287.651 279.614 287.644 279.55C287.637 279.487 287.642 279.423 287.66 279.362C287.678 279.301 287.708 279.244 287.748 279.195C287.788 279.146 287.838 279.105 287.895 279.075C287.951 279.046 288.013 279.028 288.076 279.022C288.14 279.017 288.203 279.024 288.264 279.044C288.324 279.064 288.38 279.095 288.428 279.137C288.666 279.331 294.272 284.045 291.052 295.49C291.02 295.589 290.957 295.675 290.872 295.734C290.788 295.794 290.686 295.824 290.582 295.82Z" fill="black"/>
<path d="M301.719 293.863C301.659 293.863 301.599 293.854 301.541 293.838C301.38 293.791 301.243 293.683 301.162 293.536C301.08 293.389 301.06 293.216 301.106 293.054C302.455 288.394 302.175 284.388 300.278 281.149C297.258 275.984 291.079 274.487 291.003 274.468C290.922 274.449 290.845 274.414 290.777 274.365C290.709 274.317 290.652 274.255 290.607 274.184C290.563 274.114 290.534 274.035 290.52 273.952C290.507 273.87 290.51 273.786 290.528 273.705C290.547 273.624 290.582 273.547 290.631 273.479C290.679 273.411 290.741 273.354 290.812 273.31C290.882 273.266 290.961 273.236 291.044 273.222C291.126 273.209 291.21 273.212 291.291 273.23C291.564 273.294 298.061 274.861 301.37 280.498C303.451 284.051 303.774 288.391 302.322 293.403C302.284 293.535 302.205 293.65 302.096 293.733C301.988 293.816 301.855 293.862 301.719 293.863Z" fill="white"/>
<path d="M105.588 129.73C105.588 129.73 98.8441 146.109 123.886 154.833C123.886 154.833 137.654 158.976 144.348 152.634V150.874C144.348 150.874 154.214 144.881 152.453 138.185C152.453 138.185 145.404 135.716 137.302 143.822C137.302 143.822 133.073 131.488 120.035 131.488C120.035 131.488 114.75 128.315 112.634 131.136C112.634 131.139 110.169 127.97 105.588 129.73Z" fill="#FFCDB2"/>
<path d="M108.272 129.198C109.096 129.19 109.912 129.36 110.664 129.695C111.417 130.03 112.088 130.522 112.634 131.139C113.288 130.273 114.236 129.972 115.242 129.972C117.501 129.972 120.035 131.491 120.035 131.491C133.073 131.491 137.302 143.825 137.302 143.825C142.34 138.788 146.968 137.836 149.75 137.836C150.664 137.815 151.576 137.933 152.453 138.188C154.214 144.882 144.348 150.877 144.348 150.877V152.638C141.445 155.388 137.213 156.165 133.35 156.165C130.151 156.135 126.97 155.688 123.887 154.836C98.8443 146.112 105.588 129.734 105.588 129.734C106.442 129.391 107.352 129.211 108.272 129.201V129.198ZM108.272 128.249C107.235 128.26 106.209 128.462 105.246 128.845C105.125 128.892 105.016 128.963 104.924 129.054C104.831 129.144 104.759 129.253 104.71 129.372C104.611 129.607 102.381 135.184 105.309 141.7C108.025 147.727 114.17 152.46 123.572 155.737H123.611C126.783 156.616 130.057 157.076 133.35 157.104C138.425 157.104 142.349 155.836 145.004 153.317C145.098 153.228 145.172 153.12 145.223 153.001C145.274 152.882 145.3 152.754 145.3 152.625V151.385C147.324 150.049 155.083 144.434 153.373 137.937C153.333 137.787 153.258 137.648 153.152 137.533C153.046 137.419 152.914 137.332 152.767 137.281C151.789 136.989 150.771 136.852 149.75 136.875C146.829 136.875 142.435 137.826 137.642 142.176C136.759 140.313 135.627 138.58 134.276 137.024C132.552 134.996 130.409 133.365 127.994 132.245C125.58 131.124 122.951 130.54 120.289 130.533C119.569 130.137 117.342 129.01 115.242 129.01C114.31 128.983 113.394 129.26 112.634 129.8C111.409 128.783 109.865 128.23 108.272 128.236V128.249Z" fill="black"/>
<path d="M135.54 149.938H135.514C135.452 149.935 135.391 149.919 135.335 149.893C135.279 149.866 135.229 149.828 135.188 149.782C135.146 149.736 135.114 149.682 135.093 149.623C135.073 149.564 135.064 149.502 135.067 149.44C135.067 149.377 135.096 148.136 133.83 146.902C132.444 145.567 129.3 144.092 122.188 144.64C122.1 144.646 122.012 144.627 121.934 144.587C121.856 144.547 121.79 144.486 121.743 144.412C121.696 144.333 116.782 136.291 112.287 131.45C112.235 131.406 112.193 131.352 112.163 131.291C112.134 131.23 112.119 131.163 112.117 131.095C112.116 131.027 112.129 130.96 112.156 130.897C112.183 130.835 112.223 130.779 112.273 130.734C112.323 130.688 112.383 130.654 112.447 130.633C112.512 130.612 112.58 130.605 112.647 130.613C112.715 130.621 112.78 130.643 112.838 130.678C112.896 130.713 112.946 130.76 112.985 130.815C117.109 135.257 121.531 142.277 122.403 143.682C128.275 143.267 132.352 144.136 134.521 146.261C136.108 147.797 136.019 149.434 136.016 149.491C136.008 149.612 135.955 149.726 135.867 149.809C135.778 149.892 135.661 149.938 135.54 149.938Z" fill="black"/>
<path d="M128.845 142.188C128.748 142.187 128.654 142.155 128.575 142.099C128.496 142.042 128.436 141.963 128.404 141.871C128.382 141.82 126.244 136.63 119.741 131.498C119.688 131.46 119.645 131.412 119.611 131.357C119.578 131.302 119.556 131.241 119.548 131.177C119.539 131.113 119.543 131.049 119.56 130.987C119.576 130.925 119.606 130.867 119.646 130.816C119.686 130.766 119.735 130.724 119.792 130.693C119.848 130.663 119.91 130.644 119.974 130.638C120.038 130.632 120.103 130.639 120.164 130.658C120.226 130.678 120.282 130.71 120.331 130.752C127.046 136.053 129.213 141.297 129.286 141.519C129.312 141.578 129.325 141.641 129.326 141.705C129.327 141.769 129.314 141.833 129.29 141.892C129.265 141.952 129.229 142.005 129.183 142.05C129.137 142.095 129.082 142.13 129.023 142.153C128.966 142.176 128.906 142.187 128.845 142.188Z" fill="black"/>
<path d="M123.346 152.565H123.235C113.182 150.769 107.856 141.024 107.634 140.612C107.554 140.463 107.537 140.289 107.586 140.128C107.635 139.967 107.746 139.831 107.894 139.752C108.043 139.672 108.216 139.655 108.378 139.704C108.539 139.753 108.674 139.864 108.754 140.012C108.804 140.107 114.02 149.631 123.457 151.315C123.626 151.33 123.781 151.411 123.89 151.54C123.998 151.67 124.051 151.837 124.036 152.005C124.022 152.173 123.94 152.329 123.811 152.437C123.682 152.546 123.515 152.599 123.346 152.584V152.565Z" fill="white"/>
<path d="M225.04 174.131L219.403 187.166C219.403 187.166 227.508 200.908 245.48 186.813C245.48 186.813 236.67 179.063 240.194 166.025C240.194 166.025 245.831 167.786 247.592 162.853C249.353 157.92 246.184 155.1 243.364 155.1C243.364 155.1 231.737 156.159 233.145 133.959C233.145 133.959 222.223 132.551 215.174 140.653C208.125 148.755 203.9 160.388 209.185 167.434C214.47 174.479 225.04 174.131 225.04 174.131Z" fill="#FFCDB2"/>
<path d="M231.218 133.864C231.862 133.858 232.506 133.89 233.146 133.959C231.858 154.23 241.442 155.109 243.117 155.109C243.279 155.109 243.364 155.109 243.364 155.109C246.185 155.109 249.357 157.929 247.593 162.862C246.565 165.74 244.221 166.352 242.441 166.352C241.682 166.349 240.926 166.242 240.195 166.035C236.671 179.073 245.48 186.823 245.48 186.823C239.386 191.6 234.431 193.167 230.535 193.167C222.947 193.167 219.404 187.162 219.404 187.162L225.041 174.127H224.794C223.163 174.127 213.992 173.838 209.186 167.43C203.901 160.385 208.129 148.755 215.175 140.65C220.406 134.622 227.766 133.861 231.218 133.861V133.864ZM231.218 132.909C227.271 132.909 219.842 133.836 214.458 140.028C210.693 144.358 207.914 149.386 206.635 154.192C205.17 159.709 205.788 164.486 208.424 168.001C212.774 173.8 220.39 174.86 223.607 175.044L218.531 186.782C218.472 186.919 218.445 187.069 218.455 187.219C218.464 187.369 218.509 187.515 218.585 187.644C218.741 187.908 222.494 194.116 230.535 194.116C235.294 194.116 240.516 191.895 246.08 187.556C246.19 187.469 246.279 187.36 246.342 187.235C246.405 187.111 246.439 186.974 246.443 186.834C246.447 186.694 246.42 186.556 246.365 186.428C246.309 186.3 246.226 186.185 246.121 186.093C244.561 184.567 243.283 182.778 242.346 180.808C240.271 176.563 239.786 171.97 240.906 167.145C241.418 167.23 241.935 167.273 242.454 167.275C245.407 167.275 247.555 165.816 248.503 163.167C249.398 160.658 249.214 158.31 247.98 156.559C247.458 155.822 246.769 155.218 245.969 154.798C245.169 154.378 244.28 154.153 243.377 154.142H243.291H243.13C242.451 154.142 240.065 153.964 237.921 151.68C234.898 148.457 233.581 142.347 234.114 134.004C234.13 133.762 234.053 133.524 233.899 133.337C233.745 133.15 233.526 133.029 233.286 132.998C232.604 132.925 231.919 132.891 231.233 132.897L231.218 132.909Z" fill="black"/>
<path d="M224.684 174.955C224.367 174.955 224.05 174.939 223.733 174.911C223.606 174.899 223.49 174.837 223.41 174.739C223.329 174.641 223.291 174.515 223.303 174.389C223.315 174.263 223.377 174.147 223.475 174.066C223.573 173.985 223.698 173.947 223.825 173.959C226.997 174.276 230.804 172.665 230.842 172.646C230.958 172.596 231.089 172.595 231.206 172.642C231.323 172.689 231.417 172.78 231.467 172.896C231.517 173.012 231.518 173.144 231.471 173.261C231.424 173.378 231.333 173.472 231.216 173.521C231.067 173.572 227.825 174.955 224.684 174.955Z" fill="black"/>
<path d="M241.602 164.033C241.497 164.032 241.396 163.997 241.313 163.933C241.231 163.869 241.171 163.78 241.145 163.679C241.118 163.577 241.125 163.47 241.165 163.374C241.206 163.277 241.277 163.197 241.367 163.145C243.027 162.212 243.889 161.222 243.937 160.198C244.004 158.741 242.405 157.618 242.389 157.606C242.334 157.572 242.287 157.527 242.25 157.474C242.213 157.421 242.187 157.361 242.174 157.298C242.161 157.235 242.161 157.169 242.174 157.106C242.187 157.043 242.212 156.983 242.249 156.93C242.286 156.877 242.333 156.832 242.388 156.798C242.443 156.764 242.504 156.741 242.568 156.731C242.631 156.721 242.697 156.725 242.759 156.741C242.822 156.757 242.88 156.786 242.931 156.825C243.014 156.882 244.981 158.266 244.889 160.242C244.822 161.616 243.797 162.869 241.837 163.973C241.765 164.012 241.684 164.033 241.602 164.033Z" fill="black"/>
<path d="M225.076 147.419C229.87 151.013 238.114 152 238.467 154.465C238.819 156.93 236.706 159.046 233.534 158.341C230.361 157.637 227.544 156.229 221.907 153.056C216.27 149.884 210.982 146.363 213.098 143.539C215.214 140.716 218.031 142.134 225.076 147.419Z" fill="#FFB49F"/>
<path d="M222.221 148.669C222.105 148.67 221.993 148.628 221.905 148.552C221.818 148.475 221.762 148.369 221.748 148.254C221.57 146.845 221 145.77 220.048 145.059C218.145 143.628 215.289 144.079 215.251 144.082C215.189 144.092 215.125 144.09 215.063 144.076C215.002 144.061 214.943 144.035 214.892 143.998C214.841 143.961 214.797 143.914 214.764 143.86C214.73 143.806 214.708 143.746 214.698 143.684C214.687 143.621 214.69 143.558 214.704 143.496C214.719 143.434 214.745 143.376 214.782 143.325C214.819 143.273 214.866 143.23 214.92 143.196C214.973 143.163 215.033 143.141 215.096 143.13C215.226 143.108 218.373 142.61 220.612 144.279C221.783 145.151 222.484 146.445 222.694 148.124C222.701 148.186 222.696 148.249 222.68 148.309C222.663 148.369 222.634 148.425 222.596 148.475C222.557 148.524 222.509 148.565 222.454 148.596C222.4 148.626 222.34 148.646 222.278 148.653L222.221 148.669Z" fill="black"/>
<path d="M235.188 156.105C235.09 156.104 234.995 156.073 234.916 156.016C234.837 155.959 234.776 155.88 234.744 155.788C232.812 150.633 228.11 151.8 227.91 151.851C227.85 151.867 227.787 151.871 227.725 151.863C227.663 151.855 227.603 151.834 227.549 151.803C227.495 151.772 227.448 151.73 227.41 151.68C227.372 151.63 227.344 151.574 227.328 151.513C227.312 151.453 227.308 151.39 227.317 151.328C227.325 151.266 227.346 151.206 227.377 151.152C227.408 151.098 227.45 151.051 227.5 151.013C227.549 150.975 227.606 150.947 227.666 150.931C227.723 150.931 233.395 149.482 235.635 155.452C235.679 155.57 235.675 155.701 235.622 155.816C235.57 155.931 235.474 156.02 235.356 156.064C235.303 156.089 235.246 156.103 235.188 156.105Z" fill="black"/>
<path d="M224.176 141.934C223.211 141.94 222.252 141.775 221.343 141.449C221.285 141.426 221.232 141.392 221.187 141.348C221.142 141.304 221.106 141.252 221.082 141.195C221.057 141.138 221.044 141.076 221.043 141.013C221.042 140.951 221.053 140.889 221.076 140.83C221.1 140.772 221.134 140.719 221.178 140.675C221.221 140.63 221.273 140.594 221.331 140.569C221.388 140.544 221.45 140.531 221.512 140.53C221.575 140.529 221.637 140.541 221.695 140.564C222.859 140.961 224.102 141.07 225.318 140.881C225.444 140.861 225.573 140.891 225.677 140.966C225.781 141.04 225.851 141.153 225.872 141.279C225.892 141.406 225.862 141.535 225.787 141.639C225.713 141.742 225.6 141.812 225.473 141.833C225.044 141.901 224.611 141.935 224.176 141.934Z" fill="black"/>
<path d="M225.95 165.438C224.453 165.435 223.009 164.887 221.887 163.897C221.842 163.853 221.807 163.8 221.783 163.743C221.759 163.685 221.746 163.623 221.746 163.56C221.746 163.498 221.759 163.436 221.783 163.378C221.807 163.32 221.842 163.268 221.887 163.224C221.976 163.136 222.097 163.086 222.223 163.086C222.349 163.086 222.47 163.136 222.559 163.224C222.68 163.345 225.525 166.079 229.703 163.17C229.807 163.098 229.935 163.071 230.06 163.093C230.184 163.116 230.294 163.187 230.366 163.291C230.438 163.395 230.466 163.523 230.443 163.647C230.421 163.772 230.35 163.882 230.246 163.954C228.637 165.064 227.181 165.438 225.95 165.438Z" fill="black"/>
<path d="M244.482 155.166C242.712 155.166 240.837 154.89 239.222 154.053C239.164 154.026 239.111 153.987 239.068 153.939C239.025 153.892 238.992 153.836 238.971 153.775C238.95 153.714 238.942 153.649 238.947 153.585C238.951 153.521 238.969 153.458 238.999 153.401C239.028 153.344 239.069 153.294 239.119 153.253C239.169 153.212 239.226 153.181 239.288 153.163C239.35 153.146 239.415 153.14 239.479 153.148C239.542 153.156 239.604 153.176 239.66 153.209C243.927 155.429 250.547 153.263 250.611 153.241C250.67 153.22 250.732 153.211 250.795 153.214C250.858 153.218 250.919 153.233 250.976 153.26C251.032 153.287 251.083 153.325 251.125 153.372C251.167 153.419 251.199 153.473 251.22 153.532C251.241 153.592 251.25 153.654 251.246 153.717C251.243 153.779 251.227 153.841 251.2 153.897C251.173 153.954 251.135 154.005 251.088 154.046C251.041 154.088 250.987 154.121 250.928 154.141C248.841 154.795 246.669 155.14 244.482 155.166Z" fill="black"/>
<path d="M271.207 127.389C271.172 127.393 271.137 127.393 271.102 127.389C270.979 127.361 270.873 127.285 270.806 127.178C270.738 127.071 270.716 126.942 270.744 126.818C271.324 124.303 271.042 122.114 269.907 120.309C267.876 117.079 263.746 116.121 263.704 116.112C263.64 116.102 263.578 116.08 263.522 116.045C263.466 116.011 263.418 115.965 263.381 115.911C263.344 115.857 263.318 115.796 263.306 115.732C263.293 115.668 263.294 115.601 263.308 115.537C263.322 115.474 263.35 115.413 263.388 115.36C263.427 115.307 263.476 115.263 263.533 115.23C263.589 115.197 263.652 115.176 263.717 115.168C263.782 115.161 263.848 115.167 263.911 115.186C264.095 115.227 268.46 116.229 270.709 119.795C271.978 121.825 272.295 124.258 271.661 127.031C271.635 127.132 271.577 127.223 271.495 127.288C271.413 127.353 271.312 127.388 271.207 127.389Z" fill="black"/>
<path d="M219.023 156.239C218.904 156.235 218.79 156.186 218.706 156.102C218.616 156.013 218.566 155.892 218.566 155.766C218.566 155.64 218.616 155.519 218.706 155.43L225.462 148.498C225.505 148.451 225.558 148.413 225.616 148.386C225.673 148.36 225.736 148.345 225.8 148.343C225.864 148.341 225.927 148.352 225.987 148.375C226.046 148.398 226.1 148.433 226.146 148.477C226.192 148.522 226.228 148.575 226.253 148.634C226.278 148.693 226.29 148.756 226.29 148.82C226.29 148.883 226.277 148.946 226.252 149.005C226.227 149.064 226.191 149.117 226.145 149.161L219.384 156.096C219.338 156.144 219.282 156.182 219.219 156.206C219.157 156.231 219.09 156.242 219.023 156.239Z" fill="black"/>
<path d="M242.337 168.927C243.388 168.927 244.24 168.075 244.24 167.024C244.24 165.973 243.388 165.121 242.337 165.121C241.286 165.121 240.434 165.973 240.434 167.024C240.434 168.075 241.286 168.927 242.337 168.927Z" fill="#07ACEE"/>
<path d="M242.336 165.121C242.712 165.121 243.08 165.232 243.393 165.441C243.706 165.651 243.95 165.948 244.094 166.296C244.238 166.643 244.276 167.026 244.202 167.395C244.129 167.765 243.947 168.104 243.681 168.37C243.415 168.636 243.076 168.817 242.707 168.891C242.338 168.964 241.955 168.927 241.607 168.783C241.259 168.638 240.962 168.395 240.753 168.082C240.544 167.768 240.432 167.4 240.432 167.024C240.432 166.519 240.633 166.035 240.99 165.678C241.347 165.321 241.831 165.121 242.336 165.121ZM242.336 164.169C241.771 164.169 241.219 164.336 240.749 164.65C240.28 164.964 239.914 165.41 239.698 165.931C239.482 166.453 239.425 167.027 239.535 167.581C239.645 168.135 239.917 168.644 240.317 169.043C240.716 169.442 241.225 169.714 241.779 169.824C242.332 169.934 242.906 169.878 243.428 169.662C243.95 169.446 244.396 169.08 244.71 168.61C245.023 168.141 245.191 167.589 245.191 167.024C245.191 166.267 244.89 165.541 244.354 165.005C243.819 164.47 243.093 164.169 242.336 164.169Z" fill="black"/>
<path d="M263.801 131.967H263.766C263.703 131.962 263.642 131.946 263.586 131.918C263.53 131.89 263.48 131.851 263.439 131.803C263.398 131.756 263.367 131.701 263.348 131.641C263.328 131.582 263.32 131.519 263.325 131.456C263.528 128.728 262.906 126.593 261.476 125.112C259.138 122.691 255.4 122.805 255.362 122.805C255.3 122.808 255.238 122.798 255.179 122.776C255.12 122.755 255.066 122.722 255.02 122.679C254.974 122.637 254.937 122.586 254.911 122.529C254.885 122.472 254.87 122.411 254.868 122.348C254.865 122.286 254.875 122.224 254.896 122.165C254.918 122.106 254.951 122.052 254.993 122.006C255.036 121.96 255.087 121.923 255.144 121.897C255.2 121.871 255.262 121.856 255.325 121.854C255.496 121.854 259.531 121.723 262.161 124.448C263.788 126.133 264.499 128.512 264.274 131.526C264.266 131.646 264.212 131.758 264.124 131.84C264.037 131.922 263.921 131.967 263.801 131.967Z" fill="white"/>
<path d="M299.122 238.718C298.984 238.718 298.85 238.673 298.74 238.589C298.63 238.505 298.551 238.388 298.513 238.255C292.308 216.236 268.884 201.336 268.649 201.187C268.572 201.146 268.504 201.09 268.45 201.021C268.396 200.953 268.357 200.874 268.334 200.79C268.312 200.706 268.307 200.618 268.32 200.532C268.333 200.446 268.363 200.363 268.409 200.29C268.456 200.216 268.517 200.152 268.589 200.103C268.661 200.054 268.742 200.02 268.828 200.004C268.913 199.987 269.001 199.989 269.086 200.008C269.171 200.027 269.251 200.063 269.321 200.115C273.903 203.154 278.187 206.62 282.115 210.466C288.324 216.493 296.416 226.14 299.731 237.913C299.758 238.007 299.762 238.106 299.744 238.202C299.726 238.298 299.686 238.389 299.627 238.467C299.568 238.545 299.491 238.608 299.404 238.652C299.316 238.695 299.22 238.718 299.122 238.718Z" fill="white"/>
<path d="M245.709 153.558C242.854 153.558 240.497 152.727 238.73 151.071C234.644 147.283 235.04 140.602 235.056 140.336C235.067 140.168 235.145 140.01 235.271 139.899C235.398 139.788 235.564 139.732 235.732 139.743C235.9 139.753 236.057 139.831 236.168 139.958C236.28 140.084 236.336 140.25 236.325 140.418C236.325 140.482 235.954 146.763 239.596 150.145C241.566 151.969 244.386 152.635 247.974 152.121C248.057 152.109 248.142 152.114 248.224 152.135C248.305 152.156 248.382 152.193 248.449 152.244C248.516 152.295 248.573 152.358 248.615 152.431C248.658 152.503 248.686 152.583 248.697 152.667C248.709 152.75 248.704 152.835 248.683 152.916C248.662 152.998 248.625 153.074 248.574 153.141C248.524 153.208 248.46 153.265 248.388 153.308C248.315 153.35 248.235 153.378 248.152 153.39C247.343 153.504 246.526 153.56 245.709 153.558Z" fill="white"/>
<path d="M172.738 196.007C170.099 196.032 167.462 195.886 164.842 195.569C164.674 195.544 164.522 195.454 164.42 195.318C164.319 195.182 164.275 195.011 164.3 194.842C164.324 194.674 164.414 194.522 164.551 194.421C164.687 194.319 164.858 194.276 165.026 194.3C165.134 194.316 175.869 195.835 189.231 193.031C189.312 193.014 189.397 193.013 189.479 193.029C189.561 193.044 189.639 193.076 189.709 193.121C189.778 193.167 189.839 193.226 189.886 193.295C189.933 193.364 189.966 193.441 189.983 193.523C190 193.604 190.001 193.689 189.985 193.771C189.97 193.853 189.938 193.931 189.893 194.001C189.847 194.07 189.788 194.13 189.719 194.177C189.65 194.225 189.573 194.258 189.491 194.275C183.98 195.421 178.367 196.001 172.738 196.007Z" fill="white"/>
<path d="M192.216 194.306C192.048 194.32 191.881 194.267 191.752 194.157C191.623 194.048 191.543 193.892 191.53 193.724C191.516 193.556 191.569 193.389 191.678 193.26C191.787 193.131 191.943 193.051 192.112 193.037L199.725 191.768C199.887 191.75 200.05 191.794 200.18 191.892C200.31 191.989 200.397 192.133 200.424 192.294C200.451 192.454 200.415 192.619 200.324 192.754C200.233 192.889 200.094 192.983 199.935 193.018L192.321 194.287L192.216 194.306Z" fill="white"/>
<path d="M259.684 102.912C253.174 102.904 246.721 101.694 240.65 99.343C226.692 93.9882 218.444 84.3285 218.346 84.2301C218.306 84.1822 218.275 84.1269 218.256 84.0672C218.238 84.0076 218.231 83.9448 218.236 83.8825C218.242 83.8202 218.259 83.7596 218.288 83.7041C218.317 83.6486 218.357 83.5994 218.404 83.5592C218.452 83.519 218.508 83.4886 218.567 83.4698C218.627 83.451 218.69 83.4441 218.752 83.4496C218.814 83.455 218.875 83.4727 218.93 83.5016C218.986 83.5304 219.035 83.57 219.075 83.6179C219.155 83.713 227.285 93.2078 241.031 98.4707C253.692 103.315 273.868 105.45 298.069 88.1162C298.172 88.0497 298.297 88.0255 298.417 88.0485C298.537 88.0714 298.644 88.1399 298.715 88.2396C298.786 88.3393 298.816 88.4625 298.799 88.5837C298.781 88.7049 298.718 88.8147 298.621 88.8903C287.788 96.6529 276.824 101.243 266.038 102.531C263.93 102.784 261.808 102.911 259.684 102.912Z" fill="black"/>
<path d="M271.845 93.2523C266.598 93.2899 261.407 92.1609 256.65 89.9468C249.036 86.3684 245.261 81.2483 245.106 81.0325C245.066 80.9823 245.037 80.9247 245.02 80.863C245.004 80.8014 245 80.737 245.008 80.6737C245.017 80.6104 245.039 80.5496 245.071 80.4947C245.104 80.4399 245.147 80.3922 245.199 80.3545C245.25 80.3168 245.309 80.2898 245.371 80.2752C245.433 80.2607 245.498 80.2588 245.561 80.2696C245.624 80.2805 245.684 80.304 245.738 80.3386C245.791 80.3732 245.837 80.4182 245.873 80.471C245.911 80.5218 249.705 85.6387 257.1 89.1061C263.917 92.307 275.29 94.7211 290.755 88.0656C290.813 88.0408 290.875 88.0276 290.937 88.0267C291 88.0258 291.062 88.0372 291.12 88.0603C291.178 88.0834 291.231 88.1178 291.276 88.1614C291.321 88.2051 291.357 88.2571 291.382 88.3146C291.407 88.3721 291.42 88.4339 291.421 88.4965C291.422 88.5591 291.41 88.6213 291.387 88.6794C291.364 88.7376 291.33 88.7907 291.286 88.8356C291.242 88.8805 291.19 88.9163 291.133 88.9411C283.786 92.0976 277.34 93.2523 271.845 93.2523Z" fill="black"/>
<path d="M290.232 83.2181L323.354 63.8385L312.783 63.4863L289.527 71.2395L290.232 83.2181Z" fill="white"/>
<path d="M312.782 63.4864L323.353 63.8385L290.243 83.2182L289.539 71.2395L312.795 63.4864H312.782ZM312.795 62.5347C312.693 62.5347 312.591 62.5508 312.494 62.5823L289.238 70.3354C289.043 70.4038 288.876 70.5337 288.761 70.7053C288.647 70.8769 288.591 71.0811 288.603 71.2871L289.291 83.2753C289.301 83.4379 289.352 83.5953 289.44 83.7325C289.528 83.8696 289.649 83.982 289.793 84.0588C289.936 84.1354 290.097 84.1739 290.26 84.1705C290.423 84.1672 290.582 84.1222 290.722 84.0398L323.844 64.6601C324.023 64.556 324.163 64.3966 324.242 64.206C324.322 64.0154 324.338 63.804 324.287 63.6037C324.236 63.4034 324.122 63.2251 323.961 63.0958C323.799 62.9665 323.6 62.8931 323.394 62.8868L312.824 62.5347H312.795Z" fill="black"/>
<path d="M281.07 65.2472L328.287 61.3706L308.203 84.9821L294.461 74.7609L316.308 64.895L289.528 71.2397L281.07 65.2472Z" fill="#4BD657"/>
<path d="M328.288 61.3865L308.204 84.998L294.462 74.7768L316.31 64.9109L289.529 71.2556L281.072 65.2631L328.288 61.3865ZM328.288 60.4348H328.209L280.992 64.3114C280.797 64.3271 280.612 64.4025 280.462 64.5272C280.311 64.652 280.203 64.82 280.151 65.0086C280.099 65.1971 280.107 65.397 280.173 65.581C280.239 65.765 280.36 65.9243 280.519 66.0371L288.977 72.0138C289.137 72.1283 289.329 72.1904 289.526 72.1914C289.6 72.1908 289.673 72.1823 289.745 72.166L306.875 68.1055L294.053 73.8949C293.902 73.963 293.771 74.0694 293.674 74.2035C293.576 74.3376 293.516 74.4947 293.498 74.6594C293.48 74.8241 293.505 74.9907 293.571 75.1426C293.637 75.2945 293.742 75.4265 293.875 75.5255L307.617 85.7435C307.811 85.8883 308.053 85.9538 308.293 85.9267C308.534 85.8996 308.755 85.7819 308.912 85.5976L328.996 61.9892C329.114 61.851 329.19 61.6817 329.215 61.5015C329.24 61.3213 329.213 61.1377 329.137 60.9725C329.061 60.8072 328.939 60.6673 328.786 60.5692C328.633 60.4711 328.454 60.4189 328.272 60.4189L328.288 60.4348Z" fill="black"/>
<path d="M306.794 81.8987C306.638 81.8974 306.485 81.8502 306.355 81.7628C306.226 81.6755 306.125 81.5518 306.065 81.4073C306.005 81.2629 305.989 81.1039 306.019 80.9504C306.048 80.7969 306.123 80.6556 306.233 80.5441L317.155 69.6218C317.228 69.546 317.315 69.4854 317.412 69.4437C317.509 69.402 317.613 69.38 317.718 69.3789C317.823 69.3779 317.928 69.3978 318.025 69.4376C318.123 69.4773 318.211 69.536 318.286 69.6104C318.36 69.6848 318.42 69.7732 318.46 69.8706C318.5 69.968 318.52 70.0724 318.519 70.1777C318.518 70.283 318.496 70.3871 318.455 70.484C318.414 70.5808 318.353 70.6684 318.278 70.7416L307.356 81.6639C307.282 81.7381 307.195 81.797 307.098 81.8373C307.002 81.8776 306.898 81.8984 306.794 81.8987Z" fill="white"/>
<path d="M109.469 40.7059C109.342 40.7059 109.221 40.6558 109.132 40.5665C109.043 40.4773 108.993 40.3563 108.993 40.2301C108.993 23.8197 94.6254 17.4719 94.4795 17.4116C94.3633 17.3615 94.2718 17.2674 94.2251 17.1499C94.1784 17.0324 94.1803 16.9012 94.2304 16.7851C94.2804 16.669 94.3743 16.5775 94.4918 16.5308C94.6093 16.4841 94.7407 16.486 94.8568 16.536C97.667 17.8809 100.221 19.7059 102.404 21.929C104.823 24.3195 106.738 27.172 108.033 30.317C109.328 33.462 109.979 36.8353 109.945 40.2364C109.943 40.3615 109.892 40.4809 109.803 40.5688C109.714 40.6567 109.594 40.7059 109.469 40.7059Z" fill="black"/>
<path d="M105.932 44.2301C105.856 44.2303 105.781 44.2122 105.714 44.1774C105.646 44.1426 105.588 44.0921 105.545 44.0302C97.6139 32.8637 85.8002 28.1496 77.2826 26.1574C71.7914 24.8557 66.1503 24.2966 60.5105 24.4951C60.3843 24.5039 60.2596 24.4623 60.1641 24.3793C60.0686 24.2963 60.01 24.1788 60.0012 24.0526C59.9923 23.9264 60.034 23.8018 60.117 23.7063C60.2 23.6109 60.3177 23.5523 60.4439 23.5434C66.1785 23.3382 71.9146 23.9047 77.4982 25.2279C86.1776 27.255 98.226 32.0674 106.319 43.4751C106.369 43.5462 106.399 43.6299 106.406 43.717C106.412 43.8041 106.394 43.8912 106.354 43.9689C106.314 44.0465 106.254 44.1116 106.179 44.1572C106.105 44.2027 106.019 44.2268 105.932 44.2269V44.2301Z" fill="black"/>
<path d="M191.919 61.142C191.866 61.1426 191.814 61.134 191.764 61.1166C191.645 61.0749 191.547 60.9877 191.493 60.8741C191.438 60.7605 191.431 60.6298 191.472 60.5107C193.496 54.6515 193.376 49.8327 191.066 46.1941C187.532 40.5822 179.963 39.6559 179.887 39.6464C179.761 39.6321 179.647 39.5685 179.568 39.4698C179.49 39.371 179.454 39.2451 179.468 39.1198C179.474 39.0574 179.493 38.9969 179.523 38.9418C179.553 38.8868 179.594 38.8383 179.643 38.7993C179.692 38.7603 179.749 38.7315 179.809 38.7146C179.869 38.6977 179.932 38.6931 179.995 38.701C180.312 38.7359 188.084 39.6813 191.869 45.6801C194.327 49.5757 194.495 54.6705 192.37 60.8216C192.338 60.9155 192.277 60.997 192.196 61.0545C192.115 61.112 192.018 61.1426 191.919 61.142Z" fill="black"/>
<path d="M169.115 111.826L154.982 110.874C152.512 110.711 150.053 111.329 147.953 112.641L135.939 120.14C134.362 121.124 132.575 121.722 130.723 121.885C128.872 122.047 127.008 121.771 125.284 121.077C123.559 120.384 122.023 119.293 120.799 117.894C119.576 116.495 118.7 114.826 118.244 113.025L114.754 99.2949C114.148 96.8938 112.8 94.7449 110.903 93.1533L100.057 84.0456C98.632 82.8502 97.5099 81.3351 96.7818 79.6238C96.0538 77.9125 95.7405 76.0533 95.8673 74.1979C95.9941 72.3424 96.5573 70.5432 97.5114 68.9468C98.4655 67.3504 99.7834 66.0021 101.358 65.0117L113.339 57.4615C115.435 56.1422 117.062 54.1965 117.99 51.9005L123.3 38.7734C123.997 37.0502 125.091 35.5159 126.494 34.2955C127.896 33.0751 129.566 32.203 131.369 31.7504C133.172 31.2977 135.056 31.2772 136.869 31.6906C138.681 32.104 140.37 32.9395 141.798 34.1292L152.683 43.1925C154.585 44.777 156.938 45.7226 159.408 45.8953L173.534 46.8914C175.388 47.0212 177.186 47.5872 178.78 48.5434C180.374 49.4996 181.72 50.8189 182.708 52.3937C183.695 53.9686 184.297 55.7545 184.464 57.606C184.63 59.4575 184.357 61.3221 183.667 63.048L178.41 76.1972C177.492 78.4971 177.32 81.0272 177.918 83.4301L181.338 97.1758C181.79 98.9798 181.81 100.865 181.395 102.678C180.981 104.491 180.144 106.181 178.952 107.609C177.761 109.037 176.248 110.163 174.539 110.896C172.829 111.629 170.971 111.947 169.115 111.826Z" fill="white"/>
<path d="M134.282 31.4076C137.036 31.4046 139.702 32.3742 141.81 34.1453L152.695 43.2086C154.597 44.7931 156.95 45.7387 159.42 45.9114L173.546 46.9075C175.401 47.0373 177.198 47.6034 178.792 48.5595C180.386 49.5157 181.732 50.835 182.72 52.4099C183.707 53.9847 184.309 55.7706 184.476 57.6221C184.642 59.4736 184.369 61.3382 183.679 63.0641L178.422 76.2134C177.504 78.5132 177.332 81.0433 177.93 83.4462L181.35 97.1919C181.782 98.9287 181.813 100.741 181.442 102.492C181.07 104.242 180.305 105.886 179.205 107.297C178.105 108.709 176.698 109.852 175.091 110.639C173.484 111.427 171.72 111.84 169.93 111.845C169.663 111.845 169.397 111.845 169.124 111.819L154.991 110.868C154.731 110.868 154.471 110.842 154.214 110.842C152.003 110.842 149.837 111.463 147.962 112.635L135.948 120.134C134.372 121.121 132.584 121.722 130.732 121.887C128.879 122.051 127.014 121.776 125.288 121.082C123.563 120.388 122.026 119.296 120.803 117.894C119.58 116.493 118.706 114.822 118.253 113.019L114.763 99.2888C114.157 96.8877 112.809 94.7388 110.912 93.1472L100.066 84.0395C98.641 82.8441 97.5189 81.329 96.7908 79.6177C96.0628 77.9064 95.7492 76.0472 95.876 74.1918C96.0028 72.3363 96.5663 70.5371 97.5204 68.9408C98.4745 67.3444 99.7921 65.996 101.366 65.0056L113.348 57.4555C115.444 56.1361 117.071 54.1904 117.999 51.8944L123.309 38.7674C124.19 36.5812 125.706 34.7094 127.662 33.3935C129.617 32.0777 131.922 31.3782 134.279 31.3854L134.282 31.4076ZM134.279 30.4337C131.732 30.4247 129.242 31.1799 127.129 32.6017C125.016 34.0235 123.378 36.0464 122.427 38.4089L117.12 51.5518C116.269 53.6645 114.773 55.4543 112.844 56.6656L100.859 64.222C99.1594 65.2929 97.7368 66.75 96.7069 68.4745C95.677 70.1991 95.069 72.1424 94.932 74.1465C94.7951 76.1505 95.1331 78.1585 95.9188 80.0071C96.7044 81.8558 97.9157 83.4928 99.4535 84.785L110.3 93.8927C112.046 95.354 113.285 97.3306 113.84 99.5394L117.329 113.269C117.82 115.218 118.764 117.023 120.086 118.537C121.407 120.051 123.068 121.231 124.932 121.981C126.797 122.73 128.812 123.028 130.814 122.85C132.815 122.672 134.746 122.023 136.449 120.956L148.462 113.456C150.186 112.379 152.178 111.808 154.211 111.81C154.449 111.81 154.69 111.81 154.928 111.832L169.057 112.784C169.346 112.803 169.638 112.812 169.926 112.812C171.862 112.809 173.771 112.364 175.509 111.514C177.247 110.663 178.769 109.428 179.959 107.902C181.149 106.376 181.977 104.6 182.379 102.707C182.781 100.814 182.747 98.8541 182.28 96.9762L178.86 83.2337C178.302 81.021 178.461 78.6886 179.313 76.5718L184.57 63.4194C185.313 61.5548 185.606 59.5411 185.424 57.542C185.243 55.543 184.592 53.615 183.525 51.9148C182.458 50.2146 181.004 48.7903 179.283 47.7576C177.562 46.7249 175.622 46.113 173.619 45.9717L159.493 44.9787C157.221 44.8232 155.057 43.9526 153.31 42.4916L142.416 33.4125C140.141 31.4949 137.258 30.4472 134.282 30.4559L134.279 30.4337Z" fill="black"/>
<path d="M124.27 48.7761C124.153 48.7743 124.038 48.7471 123.932 48.6962C123.827 48.6452 123.734 48.5719 123.659 48.4813C123.585 48.3907 123.531 48.285 123.502 48.1716C123.473 48.0581 123.469 47.9396 123.49 47.8244C123.56 47.4532 125.26 38.704 131.579 36.4041C135.729 34.8972 140.779 36.5659 146.619 41.3656C146.705 41.4298 146.777 41.5107 146.831 41.6034C146.885 41.6962 146.919 41.7989 146.932 41.9053C146.945 42.0117 146.936 42.1196 146.906 42.2225C146.876 42.3254 146.825 42.4212 146.757 42.504C146.689 42.5868 146.605 42.655 146.51 42.7044C146.415 42.7538 146.311 42.7835 146.204 42.7915C146.097 42.7995 145.99 42.7858 145.888 42.7512C145.787 42.7166 145.693 42.6618 145.614 42.5901C140.246 38.171 135.707 36.5912 132.119 37.8951C126.643 39.8873 125.063 48.0465 125.051 48.1131C125.019 48.2977 124.924 48.4654 124.781 48.5867C124.638 48.7079 124.458 48.775 124.27 48.7761Z" fill="white"/>
<path d="M129.778 119.408C128.635 119.417 127.504 119.174 126.466 118.694C121.178 116.223 120.343 108.298 120.308 107.962C120.288 107.752 120.352 107.542 120.486 107.378C120.62 107.215 120.814 107.112 121.024 107.091C121.234 107.071 121.444 107.134 121.607 107.269C121.771 107.403 121.874 107.596 121.895 107.807C121.895 107.88 122.678 115.173 127.148 117.26C129.873 118.529 133.493 117.647 137.934 114.627C138.108 114.508 138.322 114.464 138.529 114.503C138.737 114.542 138.919 114.662 139.038 114.836C139.156 115.011 139.201 115.225 139.162 115.432C139.123 115.639 139.003 115.822 138.829 115.94C135.438 118.25 132.398 119.408 129.778 119.408Z" fill="white"/>
<path d="M148.283 211.792L100.381 221.281C97.3753 221.874 94.7 223.57 92.8804 226.035C91.0608 228.501 90.2285 231.557 90.547 234.604L92.7865 255.799C93.1048 258.816 94.5292 261.608 96.7845 263.637C99.0397 265.666 101.966 266.789 105 266.787H108.842L117.204 280.53L126.087 266.787H148.442C151.545 266.788 154.532 265.613 156.804 263.501C159.077 261.388 160.465 258.493 160.69 255.399L162.911 224.716C163.046 222.833 162.744 220.943 162.03 219.195C161.316 217.447 160.208 215.887 158.793 214.637C157.378 213.387 155.693 212.48 153.871 211.986C152.048 211.493 150.136 211.426 148.283 211.792Z" fill="white"/>
<path d="M150.705 211.551C152.39 211.557 154.056 211.91 155.599 212.587C157.142 213.264 158.529 214.251 159.674 215.487C160.82 216.722 161.699 218.181 162.257 219.771C162.815 221.361 163.04 223.048 162.918 224.729L160.698 255.411C160.472 258.506 159.084 261.401 156.812 263.513C154.54 265.626 151.552 266.8 148.449 266.8H126.122L117.24 280.543L108.878 266.8H105.036C102.002 266.801 99.0756 265.679 96.8203 263.65C94.565 261.621 93.141 258.828 92.8227 255.811L90.5832 234.617C90.2647 231.57 91.0967 228.513 92.9163 226.048C94.7358 223.583 97.4114 221.887 100.417 221.293L148.319 211.805C149.116 211.646 149.927 211.565 150.74 211.564L150.705 211.551ZM150.74 210.612C149.865 210.614 148.993 210.7 148.135 210.869L100.233 220.361C96.9943 221.003 94.1123 222.833 92.1535 225.491C90.1948 228.149 89.3008 231.444 89.6473 234.728L91.8868 255.925C92.2246 259.178 93.7577 262.189 96.1886 264.377C98.6196 266.564 101.776 267.771 105.046 267.765H108.351L116.438 281.05C116.521 281.188 116.639 281.302 116.778 281.382C116.918 281.462 117.076 281.505 117.237 281.507C117.396 281.507 117.552 281.467 117.692 281.391C117.832 281.315 117.95 281.206 118.036 281.072L126.649 267.749H148.443C151.786 267.749 155.005 266.483 157.453 264.207C159.901 261.931 161.397 258.812 161.64 255.478L163.86 224.792C164.002 222.981 163.765 221.16 163.165 219.446C162.564 217.731 161.612 216.161 160.371 214.834C159.136 213.504 157.641 212.441 155.978 211.712C154.315 210.983 152.52 210.603 150.705 210.596L150.74 210.612Z" fill="black"/>
<path d="M111.232 240.499C111.105 240.501 110.983 240.453 110.892 240.366C110.801 240.278 110.749 240.158 110.746 240.032C110.744 239.906 110.791 239.784 110.879 239.693C110.966 239.602 111.086 239.549 111.212 239.547L147.507 238.135C147.633 238.13 147.756 238.175 147.849 238.261C147.942 238.347 147.997 238.466 148.002 238.592C148.007 238.718 147.962 238.841 147.876 238.934C147.79 239.027 147.671 239.082 147.545 239.087L111.251 240.499H111.232Z" fill="black"/>
<path d="M112.637 251.069C112.575 251.07 112.512 251.06 112.454 251.037C112.396 251.015 112.342 250.981 112.297 250.938C112.252 250.895 112.215 250.844 112.19 250.787C112.164 250.73 112.15 250.668 112.149 250.605C112.147 250.543 112.158 250.481 112.18 250.422C112.203 250.364 112.236 250.311 112.279 250.265C112.322 250.22 112.374 250.183 112.431 250.158C112.488 250.133 112.549 250.119 112.612 250.117L138.336 248.708C138.462 248.703 138.584 248.747 138.677 248.83C138.771 248.914 138.829 249.031 138.838 249.156C138.841 249.218 138.832 249.281 138.811 249.34C138.79 249.399 138.758 249.453 138.716 249.5C138.674 249.546 138.624 249.584 138.567 249.611C138.511 249.638 138.449 249.654 138.387 249.657L112.666 251.069H112.637Z" fill="black"/>
<path d="M156.596 217.502C153.702 215.098 149.984 216.021 149.829 216.062C149.725 216.085 149.626 216.128 149.539 216.189C149.452 216.251 149.378 216.329 149.322 216.42C149.265 216.511 149.228 216.612 149.212 216.718C149.196 216.823 149.202 216.931 149.228 217.034C149.254 217.138 149.302 217.234 149.366 217.319C149.431 217.404 149.512 217.475 149.605 217.527C149.698 217.58 149.801 217.613 149.907 217.625C150.013 217.637 150.12 217.628 150.222 217.597C150.254 217.597 153.306 216.83 155.583 218.724C157.579 220.383 158.439 223.568 158.121 228.196C157.17 241.993 156.218 255.028 156.218 255.161C156.203 255.37 156.272 255.577 156.409 255.736C156.547 255.895 156.742 255.992 156.951 256.008H157.008C157.208 256.008 157.402 255.933 157.548 255.796C157.695 255.659 157.784 255.472 157.798 255.272C157.798 255.142 158.75 242.104 159.701 228.307C160.05 223.139 159.007 219.504 156.596 217.502Z" fill="white"/>
<path d="M118.391 225.123C118.379 225.061 118.354 225.003 118.319 224.952C118.283 224.9 118.238 224.856 118.185 224.822C118.133 224.788 118.074 224.765 118.013 224.754C117.951 224.743 117.888 224.744 117.827 224.758C103.409 227.822 89.7391 223.194 80.8122 218.775C75.0396 215.938 69.6255 212.424 64.6842 208.306C64.5899 208.222 64.4661 208.179 64.34 208.186C64.2138 208.193 64.0957 208.25 64.0116 208.344C63.9275 208.438 63.8842 208.562 63.8914 208.688C63.8985 208.814 63.9555 208.933 64.0497 209.017C69.0486 213.184 74.5257 216.742 80.3651 219.615C87.3887 223.105 97.3021 226.699 108.243 226.699C111.531 226.705 114.81 226.365 118.027 225.687C118.088 225.674 118.146 225.65 118.198 225.614C118.249 225.579 118.293 225.534 118.327 225.481C118.361 225.429 118.384 225.37 118.395 225.308C118.406 225.247 118.405 225.184 118.391 225.123Z" fill="black"/>
<path d="M104.717 245.568C88.9914 251.722 76.4511 239.801 76.3274 239.68C76.2361 239.597 76.116 239.553 75.9925 239.556C75.8691 239.56 75.7518 239.612 75.6657 239.7C75.5796 239.789 75.5315 239.907 75.5313 240.031C75.531 240.155 75.5787 240.273 75.6645 240.362C78.1838 242.636 81.0578 244.484 84.1727 245.831C87.7328 247.425 91.5846 248.262 95.485 248.29C98.7642 248.285 102.013 247.663 105.062 246.456C105.18 246.41 105.275 246.32 105.326 246.204C105.377 246.088 105.38 245.957 105.334 245.839C105.288 245.721 105.197 245.627 105.081 245.576C104.966 245.525 104.834 245.522 104.717 245.568Z" fill="black"/>
<defs>
<filter id="filter0_d_14058_95189" x="-4.02115" y="107.785" width="38.6868" height="38.6839" filterUnits="userSpaceOnUse" color-interpolation-filters="sRGB">
<feFlood flood-opacity="0" result="BackgroundImageFix"/>
<feColorMatrix in="SourceAlpha" type="matrix" values="0 0 0 0 0 0 0 0 0 0 0 0 0 0 0 0 0 0 127 0" result="hardAlpha"/>
<feOffset dy="2.03704"/>
<feGaussianBlur stdDeviation="5.09261"/>
<feComposite in2="hardAlpha" operator="out"/>
<feColorMatrix type="matrix" values="0 0 0 0 0 0 0 0 0 0 0 0 0 0 0 0 0 0 0.05 0"/>
<feBlend mode="normal" in2="BackgroundImageFix" result="effect1_dropShadow_14058_95189"/>
<feBlend mode="normal" in="SourceGraphic" in2="effect1_dropShadow_14058_95189" result="shape"/>
</filter>
<filter id="filter1_d_14058_95189" x="370.651" y="165.21" width="38.6868" height="38.6883" filterUnits="userSpaceOnUse" color-interpolation-filters="sRGB">
<feFlood flood-opacity="0" result="BackgroundImageFix"/>
<feColorMatrix in="SourceAlpha" type="matrix" values="0 0 0 0 0 0 0 0 0 0 0 0 0 0 0 0 0 0 127 0" result="hardAlpha"/>
<feOffset dy="2.03704"/>
<feGaussianBlur stdDeviation="5.09261"/>
<feComposite in2="hardAlpha" operator="out"/>
<feColorMatrix type="matrix" values="0 0 0 0 0 0 0 0 0 0 0 0 0 0 0 0 0 0 0.05 0"/>
<feBlend mode="normal" in2="BackgroundImageFix" result="effect1_dropShadow_14058_95189"/>
<feBlend mode="normal" in="SourceGraphic" in2="effect1_dropShadow_14058_95189" result="shape"/>
</filter>
<linearGradient id="paint0_linear_14058_95189" x1="20.4527" y1="112.038" x2="392.051" y2="200.547" gradientUnits="userSpaceOnUse">
<stop stop-color="#CDD5E2"/>
<stop offset="1" stop-color="#CDD5E2" stop-opacity="0"/>
</linearGradient>
<linearGradient id="paint1_linear_14058_95189" x1="391.411" y1="195.437" x2="353.85" y2="294.044" gradientUnits="userSpaceOnUse">
<stop stop-color="#CDD5E2"/>
<stop offset="1" stop-color="#CDD5E2" stop-opacity="0"/>
</linearGradient>
<linearGradient id="paint2_linear_14058_95189" x1="196.502" y1="23.2607" x2="196.502" y2="365.006" gradientUnits="userSpaceOnUse">
<stop stop-color="#CDD5E2"/>
<stop offset="1" stop-color="#CDD5E2" stop-opacity="0"/>
</linearGradient>
<linearGradient id="paint3_linear_14058_95189" x1="196.503" y1="57.4336" x2="196.503" y2="330.83" gradientUnits="userSpaceOnUse">
<stop stop-color="#CDD5E2"/>
<stop offset="1" stop-color="#CDD5E2" stop-opacity="0"/>
</linearGradient>
</defs>
</svg>
