<svg width="406" height="302" viewBox="0 0 406 302" fill="none" xmlns="http://www.w3.org/2000/svg">
<mask id="mask0_14057_90095" style="mask-type:alpha" maskUnits="userSpaceOnUse" x="0" y="0" width="406" height="302">
<rect width="405.823" height="301.875" fill="#D9D9D9"/>
</mask>
<g mask="url(#mask0_14057_90095)">
<g opacity="0.5">
<mask id="path-2-inside-1_14057_90095" fill="white">
<path d="M389.979 202.565C391.995 156.308 377.371 110.86 348.759 74.4588C320.146 38.0574 279.439 13.1119 234.015 4.14415C188.592 -4.82363 141.458 2.77982 101.159 25.5762C60.859 48.3727 30.0607 84.8533 14.3462 128.405L15.1858 128.708C30.8279 85.357 61.4843 49.0446 101.598 26.3532C141.712 3.66186 188.628 -3.90654 233.842 5.0199C279.057 13.9463 319.576 38.7768 348.057 75.0104C376.537 111.244 391.094 156.483 389.087 202.526L389.979 202.565Z"/>
</mask>
<path d="M389.979 202.565C391.995 156.308 377.371 110.86 348.759 74.4588C320.146 38.0574 279.439 13.1119 234.015 4.14415C188.592 -4.82363 141.458 2.77982 101.159 25.5762C60.859 48.3727 30.0607 84.8533 14.3462 128.405L15.1858 128.708C30.8279 85.357 61.4843 49.0446 101.598 26.3532C141.712 3.66186 188.628 -3.90654 233.842 5.0199C279.057 13.9463 319.576 38.7768 348.057 75.0104C376.537 111.244 391.094 156.483 389.087 202.526L389.979 202.565Z" stroke="url(#paint0_linear_14057_90095)" stroke-width="2.84788" stroke-dasharray="4.27 4.27" mask="url(#path-2-inside-1_14057_90095)"/>
</g>
<g opacity="0.5">
<mask id="path-3-inside-2_14057_90095" fill="white">
<path d="M14.6043 260.572C30.4892 304.063 61.4301 340.422 101.819 363.061C142.207 385.699 189.37 393.118 234.758 383.973C280.146 374.827 320.756 349.723 349.225 313.21C377.695 276.697 392.141 231.192 389.944 184.943L389.052 184.986C391.239 231.021 376.86 276.316 348.521 312.661C320.183 349.006 279.761 373.994 234.582 383.098C189.403 392.201 142.457 384.816 102.255 362.282C62.0527 339.748 31.2544 303.556 15.4428 260.266L14.6043 260.572Z"/>
</mask>
<path d="M14.6043 260.572C30.4892 304.063 61.4301 340.422 101.819 363.061C142.207 385.699 189.37 393.118 234.758 383.973C280.146 374.827 320.756 349.723 349.225 313.21C377.695 276.697 392.141 231.192 389.944 184.943L389.052 184.986C391.239 231.021 376.86 276.316 348.521 312.661C320.183 349.006 279.761 373.994 234.582 383.098C189.403 392.201 142.457 384.816 102.255 362.282C62.0527 339.748 31.2544 303.556 15.4428 260.266L14.6043 260.572Z" stroke="url(#paint1_linear_14057_90095)" stroke-width="2.84788" stroke-dasharray="4.27 4.27" mask="url(#path-3-inside-2_14057_90095)"/>
</g>
<circle opacity="0.08" cx="196.502" cy="194.133" r="170.873" fill="url(#paint2_linear_14057_90095)"/>
<circle opacity="0.1" cx="196.505" cy="194.132" r="136.698" fill="url(#paint3_linear_14057_90095)"/>
<circle cx="196.505" cy="194.134" r="91.1321" fill="white"/>
<g filter="url(#filter0_d_14057_90095)">
<circle cx="15.3224" cy="125.09" r="7.11969" transform="rotate(-2.50406 15.3224 125.09)" fill="#0170FF"/>
<circle cx="15.3224" cy="125.09" r="8.13822" transform="rotate(-2.50406 15.3224 125.09)" stroke="white" stroke-width="2.03704"/>
</g>
<g filter="url(#filter1_d_14057_90095)">
<circle cx="389.993" cy="182.517" r="7.11969" transform="rotate(-15.7345 389.993 182.517)" fill="#0170FF"/>
<circle cx="389.993" cy="182.517" r="8.13822" transform="rotate(-15.7345 389.993 182.517)" stroke="white" stroke-width="2.03704"/>
</g>
</g>
<path d="M69.403 279.879C69.2133 279.879 69.0313 279.804 68.8971 279.67C68.7629 279.535 68.6875 279.354 68.6875 279.164C68.6875 278.974 68.7629 278.792 68.8971 278.658C69.0313 278.524 69.2133 278.448 69.403 278.448L265.715 277.257C265.904 277.257 266.087 277.332 266.221 277.466C266.355 277.601 266.43 277.783 266.43 277.972C266.43 278.162 266.355 278.344 266.221 278.478C266.087 278.613 265.904 278.688 265.715 278.688L69.403 279.879Z" fill="black"/>
<path d="M275.926 269.844H247.709C247.566 269.844 247.43 269.788 247.329 269.687C247.228 269.586 247.172 269.45 247.172 269.308C247.172 269.165 247.228 269.029 247.329 268.928C247.43 268.827 247.566 268.771 247.709 268.771H275.926C276.068 268.771 276.205 268.827 276.305 268.928C276.406 269.029 276.462 269.165 276.462 269.308C276.462 269.45 276.406 269.586 276.305 269.687C276.205 269.788 276.068 269.844 275.926 269.844Z" fill="black"/>
<path d="M78.945 286.538H49.5367C49.3943 286.538 49.2575 286.481 49.1569 286.381C49.0562 286.28 49 286.143 49 286.001C49 285.859 49.0562 285.722 49.1569 285.622C49.2575 285.521 49.3943 285.464 49.5367 285.464H78.945C79.0873 285.464 79.2241 285.521 79.3248 285.622C79.4254 285.722 79.4817 285.859 79.4817 286.001C79.4817 286.143 79.4254 286.28 79.3248 286.381C79.2241 286.481 79.0873 286.538 78.945 286.538Z" fill="black"/>
<path d="M65.063 144.528C48.6056 108.719 65.2027 63.8941 102.099 44.4064C138.996 24.9187 182.24 38.1454 198.697 73.9509C215.155 109.756 198.557 154.585 161.661 174.073C157.162 176.455 152.444 178.397 147.572 179.872L141.132 206.877L122.109 191.657C96.4037 191.528 76.3148 169.01 65.063 144.528Z" fill="#4BD657"/>
<path d="M137.597 35.4122C163.442 35.4122 187.384 49.3652 198.678 73.9511C215.136 109.757 198.539 154.585 161.642 174.073C157.144 176.455 152.425 178.397 147.553 179.872L141.114 206.877L122.109 191.657C96.4031 191.528 76.3143 169.01 65.0625 144.528C48.6051 108.719 65.2022 63.8942 102.099 44.4065C113.648 38.3065 125.819 35.4122 137.597 35.4122ZM137.597 34.3389C125.34 34.3389 112.893 37.4944 101.598 43.4584C83.5598 52.9962 69.6669 68.8441 62.5724 87.9756C59.1562 97.1045 57.4863 106.794 57.6496 116.54C57.804 126.362 59.9969 136.045 64.0894 144.975C70.2288 158.342 78.3037 169.769 87.4447 178.023C92.5429 182.623 97.9452 186.205 103.501 188.663C109.244 191.242 115.453 192.625 121.748 192.727L140.477 207.714C140.618 207.827 140.786 207.902 140.964 207.933C141.142 207.963 141.325 207.949 141.496 207.89C141.667 207.831 141.82 207.73 141.942 207.596C142.063 207.462 142.149 207.299 142.19 207.124L148.473 180.72C153.201 179.246 157.784 177.338 162.161 175.021C180.195 165.481 194.084 149.633 201.176 130.504C204.592 121.375 206.262 111.685 206.099 101.939C205.945 92.1171 203.752 82.4341 199.659 73.5039C188.568 49.3473 164.787 34.3389 137.604 34.3389H137.597Z" fill="black"/>
<path d="M99.1641 117.431C99.0438 117.431 98.9267 117.391 98.8318 117.317C98.7369 117.243 98.6696 117.14 98.6407 117.023C98.6118 116.906 98.623 116.783 98.6725 116.673C98.722 116.564 98.8069 116.474 98.9136 116.418L164.553 82.0152C164.68 81.9492 164.827 81.9361 164.963 81.9787C165.099 82.0213 165.212 82.1161 165.278 82.2423C165.344 82.3685 165.357 82.5157 165.314 82.6516C165.272 82.7875 165.177 82.9009 165.051 82.9668L99.4107 117.37C99.3348 117.41 99.2501 117.431 99.1641 117.431Z" fill="black"/>
<path d="M111.512 135.509C111.392 135.509 111.276 135.468 111.181 135.394C111.087 135.32 111.02 135.216 110.992 135.099C110.963 134.983 110.975 134.86 111.024 134.751C111.074 134.642 111.159 134.552 111.265 134.496L149.5 114.461C149.624 114.407 149.765 114.402 149.893 114.447C150.021 114.492 150.127 114.584 150.19 114.704C150.253 114.824 150.268 114.964 150.232 115.095C150.196 115.226 150.113 115.338 149.997 115.409L111.762 135.445C111.686 135.487 111.599 135.509 111.512 135.509Z" fill="black"/>
<path d="M98.8544 158.252C94.5849 156.407 90.635 153.897 87.1517 150.814C79.8681 144.366 74.7465 135.832 72.4832 126.372C70.0138 115.876 70.8729 104.873 74.9411 94.8879C75.1796 94.2964 75.4358 93.7108 75.7101 93.1312C75.8007 92.9659 75.8248 92.7721 75.7768 92.5898C75.7289 92.4074 75.6128 92.2504 75.4526 92.1509C75.3714 92.1033 75.2818 92.0722 75.1885 92.0594C75.0952 92.0466 75 92.0523 74.909 92.0762C74.8179 92.1002 74.7327 92.1418 74.6578 92.1988C74.5828 92.2559 74.5196 92.3271 74.4722 92.4085C69.8667 102.516 68.5336 113.809 70.6587 124.712C72.5943 134.604 77.5458 143.654 84.8332 150.618C88.2832 153.926 92.231 156.672 96.5324 158.757C97.0642 159.014 97.6009 159.253 98.1423 159.472C98.308 159.561 98.5013 159.584 98.6832 159.536C98.865 159.488 99.0221 159.374 99.1227 159.215C99.1703 159.134 99.2014 159.044 99.2142 158.95C99.227 158.857 99.2214 158.762 99.1975 158.671C99.1735 158.58 99.1318 158.495 99.0748 158.42C99.0178 158.345 98.9466 158.282 98.8652 158.234L98.8544 158.252Z" fill="white"/>
<path d="M184.541 44.6142C184.452 44.6144 184.363 44.5919 184.284 44.5487C184.206 44.5056 184.139 44.4432 184.091 44.3674C174.431 29.4091 157.902 25.6882 145.749 25.2053C137.54 24.9215 129.332 25.7873 121.363 27.7776C121.23 27.807 121.09 27.7843 120.972 27.7142C120.855 27.6441 120.769 27.5319 120.731 27.4005C120.694 27.269 120.708 27.1282 120.771 27.0068C120.834 26.8854 120.941 26.7926 121.07 26.7473C129.147 24.7272 137.467 23.8468 145.788 24.1319C163.583 24.8475 177.139 31.6451 184.992 43.7878C185.044 43.8688 185.073 43.9623 185.077 44.0585C185.08 44.1547 185.058 44.25 185.012 44.3346C184.966 44.4191 184.898 44.4896 184.815 44.5388C184.732 44.588 184.638 44.6141 184.541 44.6142Z" fill="black"/>
<path d="M319.411 19.4448L274.757 28.2924C271.955 28.8481 269.461 30.4316 267.766 32.732C266.071 35.0325 265.298 37.8834 265.599 40.7249L267.688 60.4845C267.985 63.2969 269.312 65.8999 271.414 67.7918C273.516 69.6838 276.244 70.7307 279.072 70.731H282.65L290.449 83.5427L298.739 70.731H319.554C322.446 70.7305 325.231 69.6353 327.349 67.6654C329.467 65.6956 330.76 62.9971 330.97 60.1124L333.052 31.4909C333.178 29.7346 332.896 27.9731 332.23 26.3433C331.564 24.7135 330.53 23.2594 329.211 22.094C327.891 20.9285 326.32 20.0832 324.62 19.6237C322.921 19.1643 321.138 19.103 319.411 19.4448Z" fill="white"/>
<path d="M321.668 19.2121C323.239 19.2163 324.793 19.5438 326.232 20.1743C327.671 20.8048 328.965 21.7247 330.033 22.8768C331.101 24.0289 331.921 25.3886 332.441 26.8711C332.961 28.3537 333.17 29.9274 333.056 31.4943L330.974 60.1159C330.764 63.0006 329.47 65.699 327.352 67.6689C325.234 69.6387 322.449 70.734 319.557 70.7345H298.742L290.453 83.5462L282.653 70.7345H279.076C276.248 70.7342 273.52 69.6872 271.418 67.7953C269.316 65.9034 267.988 63.3004 267.691 60.488L265.602 40.7284C265.302 37.8869 266.075 35.0359 267.77 32.7355C269.465 30.4351 271.958 28.8516 274.761 28.2959L319.414 19.4483C320.158 19.3011 320.914 19.2269 321.672 19.2265L321.668 19.2121ZM321.672 18.1532C320.844 18.1542 320.019 18.2356 319.207 18.3964L274.553 27.2405C271.488 27.8482 268.762 29.5798 266.908 32.0953C265.055 34.6108 264.208 37.7283 264.536 40.8357L266.622 60.5989C266.942 63.6769 268.393 66.5266 270.694 68.5965C272.995 70.6664 275.981 71.8094 279.076 71.8042H282.052L289.541 84.1008C289.635 84.2559 289.767 84.3845 289.925 84.4746C290.083 84.5647 290.26 84.6134 290.442 84.616C290.621 84.6161 290.798 84.5712 290.955 84.4856C291.113 84.4 291.246 84.2763 291.344 84.1258L299.315 71.8042H319.547C322.707 71.7935 325.747 70.5922 328.061 68.4399C330.375 66.2876 331.793 63.3423 332.033 60.1911L334.115 31.5695C334.248 29.8545 334.023 28.1304 333.453 26.5073C332.883 24.8842 331.982 23.3975 330.806 22.1423C329.637 20.8833 328.221 19.878 326.648 19.1887C325.074 18.4994 323.375 18.1409 321.657 18.1353L321.672 18.1532Z" fill="black"/>
<path d="M284.868 46.2989C284.797 46.3003 284.727 46.2878 284.661 46.2621C284.596 46.2365 284.536 46.1981 284.485 46.1493C284.382 46.0507 284.323 45.9153 284.32 45.773C284.318 45.6306 284.371 45.493 284.47 45.3903C284.569 45.2877 284.704 45.2284 284.846 45.2256L318.684 43.909C318.755 43.9051 318.825 43.9155 318.892 43.9396C318.958 43.9636 319.019 44.0007 319.071 44.0488C319.123 44.0969 319.164 44.1549 319.193 44.2194C319.222 44.2839 319.237 44.3535 319.239 44.4242C319.242 44.4948 319.231 44.5653 319.207 44.6317C319.183 44.6982 319.146 44.7591 319.098 44.8111C319.05 44.863 318.992 44.9049 318.928 44.9343C318.863 44.9637 318.794 44.98 318.723 44.9823L284.889 46.2953L284.868 46.2989Z" fill="black"/>
<path d="M286.18 56.1557C286.038 56.1595 285.9 56.1066 285.796 56.0086C285.693 55.9107 285.633 55.7757 285.629 55.6334C285.625 55.491 285.678 55.353 285.776 55.2497C285.874 55.1464 286.009 55.0862 286.151 55.0824L310.122 53.7694C310.192 53.7655 310.263 53.7756 310.33 53.7991C310.396 53.8225 310.458 53.8589 310.51 53.9061C310.563 53.9533 310.606 54.0103 310.636 54.0741C310.666 54.1378 310.684 54.2069 310.687 54.2774C310.694 54.4195 310.645 54.5586 310.55 54.6645C310.454 54.7703 310.321 54.8343 310.179 54.8427L286.209 56.1557H286.18Z" fill="black"/>
<path d="M327.547 60.8247H327.479C327.242 60.8064 327.023 60.6952 326.868 60.5156C326.713 60.336 326.635 60.1024 326.652 59.8658C326.652 59.7478 327.55 47.5944 328.441 34.7326C328.731 30.4823 327.958 27.5557 326.148 26.0387C324.101 24.3286 321.3 25.0048 321.275 25.0119C321.047 25.0655 320.808 25.0277 320.608 24.9068C320.408 24.7858 320.263 24.5913 320.204 24.3649C320.146 24.1385 320.178 23.8982 320.295 23.6955C320.411 23.4928 320.603 23.3438 320.828 23.2804C320.978 23.241 324.52 22.3609 327.268 24.6542C329.557 26.5539 330.548 29.9849 330.215 34.8542C329.339 47.7339 328.452 59.8766 328.427 59.9982C328.409 60.2207 328.309 60.4286 328.146 60.5814C327.984 60.7342 327.77 60.8209 327.547 60.8247Z" fill="white"/>
<path d="M282.082 33.4372C271.864 33.4372 262.608 30.0706 256.05 26.8221C250.598 24.1417 245.485 20.8195 240.82 16.9261C240.714 16.8313 240.65 16.698 240.641 16.5558C240.633 16.4136 240.683 16.2739 240.777 16.1677C240.872 16.0614 241.005 15.9972 241.148 15.9891C241.29 15.9811 241.429 16.0299 241.536 16.1247C246.139 19.9607 251.183 23.2336 256.562 25.874C264.873 29.9847 277.592 34.2923 291.008 31.4409C291.147 31.411 291.293 31.4377 291.413 31.5152C291.533 31.5927 291.617 31.7146 291.647 31.8541C291.677 31.9935 291.65 32.1392 291.572 32.259C291.495 32.3787 291.373 32.4628 291.233 32.4927C288.224 33.1271 285.157 33.4437 282.082 33.4372Z" fill="black"/>
<path d="M270.225 53.5582C259.413 53.5582 251.732 46.2383 251.621 46.1453C251.567 46.0968 251.525 46.0381 251.494 45.9728C251.464 45.9074 251.448 45.8367 251.446 45.7648C251.443 45.6929 251.456 45.6213 251.482 45.5543C251.508 45.4872 251.547 45.426 251.597 45.3745C251.647 45.3229 251.707 45.2819 251.774 45.254C251.84 45.2261 251.911 45.2118 251.983 45.2119C252.055 45.2121 252.126 45.2266 252.193 45.2548C252.259 45.283 252.318 45.3243 252.368 45.376C252.483 45.4869 264.135 56.5599 278.736 50.8463C278.802 50.8184 278.873 50.8039 278.945 50.8037C279.016 50.8036 279.087 50.8178 279.153 50.8455C279.219 50.8732 279.279 50.9138 279.329 50.965C279.379 51.0162 279.419 51.0769 279.445 51.1435C279.471 51.2102 279.484 51.2814 279.482 51.353C279.48 51.4246 279.464 51.4952 279.435 51.5605C279.406 51.6258 279.363 51.6846 279.311 51.7334C279.259 51.7822 279.197 51.8199 279.129 51.8445C276.295 52.9688 273.274 53.5501 270.225 53.5582Z" fill="black"/>
<path d="M149.477 83.0742C167.723 87.0097 168.259 115.81 210.834 102.93C253.409 90.0507 280.778 84.8631 304.927 107.224C331.71 132.021 322.1 194.162 282.746 215.986C249.251 234.561 198.67 236.736 198.67 236.736L149.477 83.0742Z" fill="#382256"/>
<path d="M149.478 83.0743C164.429 86.2942 167.492 106.222 191.537 106.222C196.836 106.222 203.151 105.256 210.835 102.931C232.391 96.4084 250.051 91.8611 265.367 91.8611C280.3 91.8611 293.004 96.183 304.929 107.224C331.711 132.021 322.102 194.162 282.747 215.986C249.253 234.561 198.671 236.736 198.671 236.736L149.478 83.0743ZM149.478 82.001C149.309 82.0009 149.143 82.0407 148.992 82.1171C148.841 82.1935 148.711 82.3044 148.611 82.4407C148.512 82.577 148.446 82.7349 148.418 82.9015C148.391 83.0682 148.403 83.239 148.455 83.3999L197.648 237.062C197.717 237.279 197.854 237.468 198.038 237.603C198.221 237.737 198.443 237.81 198.671 237.81H198.718C208.644 237.222 218.529 236.079 228.327 234.386C243.768 231.756 265.832 226.593 283.266 216.923C293.509 211.245 302.396 202.44 308.975 191.464C315.15 181.062 319.085 169.486 320.527 157.476C321.74 147.458 321.114 137.584 318.717 128.922C316.191 119.781 311.676 112.007 305.659 106.437C294.128 95.7608 281.33 90.7878 265.367 90.7878C250.297 90.7878 233.21 95.0417 210.524 101.904C203.304 104.086 197.093 105.149 191.537 105.149C177.828 105.149 171.277 98.5764 164.941 92.2224C160.426 87.6931 156.165 83.4177 149.703 82.026C149.63 82.0089 149.554 82.0005 149.478 82.001Z" fill="black"/>
<path d="M180.247 113.842C180.247 113.842 179.531 119.567 202.428 123.86C225.326 128.153 273.982 147.83 277.918 177.167C281.853 206.505 275.056 227.255 234.27 227.971C193.484 228.686 159.328 113.842 159.328 113.842H180.247Z" fill="#050505"/>
<path d="M128.835 140.321C120.857 148.55 101.537 179.318 95.8129 215.453C90.0886 251.587 119.426 279.493 119.426 279.493L231.05 277.347C231.05 277.347 237.49 244.432 224.968 203.288C220.159 187.486 264.841 170.871 252.158 161.429C234.509 148.289 150.194 128.515 150.194 128.515" fill="#07ACEE"/>
<path d="M119.425 280.026C119.292 280.023 119.165 279.971 119.068 279.88C118.993 279.808 111.601 272.724 105.018 261.276C98.9362 250.714 92.3136 234.175 95.2938 215.356C100.807 180.538 119.622 149.054 128.459 139.935C128.558 139.832 128.694 139.773 128.837 139.771C128.979 139.769 129.117 139.823 129.219 139.922C129.322 140.021 129.381 140.157 129.383 140.3C129.386 140.442 129.331 140.58 129.232 140.682C120.47 149.716 101.83 180.942 96.3528 215.521C93.4227 234.021 99.9307 250.307 105.93 260.714C109.72 267.342 114.33 273.465 119.651 278.939L230.609 276.792C231.289 272.81 236.04 241.455 224.466 203.421C221.962 195.192 232.166 186.87 241.171 179.543C247.764 174.177 253.99 169.114 253.907 165.19C253.879 163.945 253.192 162.846 251.847 161.834C234.488 148.911 150.924 129.209 150.083 129.012C150.012 128.998 149.945 128.97 149.885 128.93C149.825 128.889 149.774 128.837 149.735 128.777C149.696 128.716 149.67 128.649 149.657 128.578C149.645 128.507 149.647 128.434 149.663 128.364C149.68 128.293 149.71 128.227 149.752 128.169C149.795 128.111 149.849 128.062 149.911 128.025C149.972 127.988 150.041 127.964 150.113 127.954C150.184 127.944 150.256 127.949 150.326 127.967C153.775 128.776 234.953 147.917 252.49 160.975C254.108 162.181 254.945 163.59 254.995 165.168C255.088 169.615 248.96 174.603 241.865 180.377C233.118 187.489 223.207 195.554 225.504 203.106C237.922 243.892 231.665 277.093 231.586 277.425C231.563 277.546 231.499 277.655 231.405 277.733C231.312 277.812 231.193 277.856 231.071 277.858L119.447 280.005L119.425 280.026Z" fill="black"/>
<path d="M161.212 220.336C156.769 221.02 143.778 216.916 131.127 227.513C118.477 238.11 121.557 254.181 121.557 254.181L127.027 275.719L153.205 278.882L179.77 279.221C181.991 275.894 185.583 270.277 186.51 267.512C187.877 263.412 185.483 255.204 189.93 250.421C194.377 245.638 180.356 221.359 180.356 221.359C180.356 221.359 165.656 219.653 161.212 220.336Z" fill="#0598C6"/>
<path d="M147.027 127.684C161.911 122.972 216.681 122.944 255.864 154.392C295.047 185.84 264.275 220.851 249.249 222.107C234.223 223.363 218.506 218.057 216.828 209.13L210.585 205.252L222.033 178.087L228.735 180.852C228.735 180.852 234.144 163.608 252.612 167.973" fill="#07ACEE"/>
<path d="M244.859 222.826C238.813 222.826 232.796 221.821 227.844 219.939C221.343 217.47 217.276 213.76 216.349 209.467L210.303 205.707C210.194 205.64 210.112 205.537 210.073 205.415C210.035 205.294 210.041 205.162 210.092 205.045L221.54 177.879C221.567 177.813 221.607 177.752 221.658 177.701C221.709 177.65 221.77 177.61 221.837 177.583C221.904 177.557 221.975 177.544 222.047 177.545C222.119 177.547 222.19 177.563 222.256 177.593L228.435 180.141C229.56 177.26 231.241 174.629 233.382 172.398C236.817 168.864 242.967 165.129 252.752 167.433C252.891 167.465 253.011 167.552 253.085 167.673C253.16 167.794 253.184 167.94 253.151 168.078C253.118 168.217 253.032 168.337 252.911 168.412C252.79 168.486 252.644 168.51 252.505 168.477C245.06 166.724 238.91 168.288 234.18 173.128C232.008 175.388 230.333 178.078 229.264 181.024C229.243 181.095 229.207 181.16 229.158 181.216C229.109 181.272 229.049 181.316 228.982 181.346C228.914 181.376 228.84 181.392 228.765 181.392C228.691 181.392 228.617 181.376 228.549 181.346L222.338 178.788L211.247 205.038L217.1 208.676C217.164 208.715 217.219 208.767 217.262 208.829C217.304 208.89 217.334 208.96 217.347 209.034C219.029 217.978 235.175 222.747 249.189 221.556C257.171 220.89 268.898 210.887 272.955 197.585C276.175 187.031 275.771 171.039 255.51 154.782C234.209 137.684 209.358 130.768 192.228 127.981C172.064 124.693 154.737 125.774 147.174 128.167C147.038 128.211 146.891 128.198 146.765 128.133C146.639 128.067 146.543 127.954 146.5 127.819C146.457 127.683 146.469 127.536 146.535 127.409C146.6 127.283 146.713 127.187 146.849 127.144C154.534 124.711 172.064 123.606 192.404 126.922C209.641 129.731 234.699 136.7 256.183 153.945C264.952 160.978 270.816 168.667 273.613 176.788C276.004 183.602 276.13 191.006 273.971 197.897C269.785 211.592 257.593 221.914 249.285 222.608C247.825 222.783 246.341 222.826 244.859 222.826Z" fill="black"/>
<path d="M204.138 186.448C198.818 181.797 191.906 179.879 183.366 176.599C176.479 173.951 171.459 171.88 171.202 167.955C170.772 161.605 177.338 165.358 182.45 166.771C187.563 168.184 188.968 161.458 185.53 154.743C182.092 148.027 181.781 138.579 187.23 134.414C193.312 129.763 196.836 149.87 196.836 149.87C196.836 149.87 203.487 146.886 209.251 151.852C209.251 151.852 219.268 147.97 221.905 154.295C224.542 160.621 223.755 163.597 221.905 175.103C220.055 186.609 208.864 190.584 204.138 186.448Z" fill="#FFCDB2"/>
<path d="M189.03 133.716C193.999 133.716 196.829 149.869 196.829 149.869C198.331 149.275 199.933 148.974 201.548 148.982C204.378 148.961 207.116 149.979 209.244 151.844C211.237 151.119 213.335 150.721 215.455 150.667C218.038 150.667 220.711 151.447 221.895 154.288C224.546 160.613 223.744 163.59 221.895 175.096C220.517 183.643 213.999 188.033 208.797 188.033C207.105 188.083 205.452 187.518 204.146 186.441C198.826 181.79 191.914 179.872 183.374 176.591C176.487 173.944 171.467 171.872 171.21 167.948C171.027 165.243 172.115 164.37 173.818 164.37C176.111 164.37 179.542 165.955 182.458 166.763C182.88 166.885 183.317 166.949 183.756 166.953C187.785 166.953 188.665 160.839 185.545 154.735C182.103 148.016 181.796 138.571 187.245 134.407C187.745 133.976 188.374 133.724 189.033 133.691L189.03 133.716ZM189.033 132.618C188.134 132.641 187.269 132.965 186.576 133.537C180.683 138.042 180.93 148.091 184.572 155.204C186.744 159.447 186.658 163.136 185.645 164.767C185.459 165.109 185.181 165.392 184.843 165.585C184.505 165.779 184.121 165.874 183.732 165.862C183.389 165.857 183.048 165.807 182.719 165.711C181.764 165.447 180.726 165.089 179.721 164.742C177.549 163.991 175.496 163.279 173.793 163.279C172.626 163.279 171.711 163.636 171.074 164.309C170.315 165.121 170 166.327 170.115 168.005C170.433 172.756 176.243 174.988 182.97 177.575C184.569 178.187 186.103 178.752 187.585 179.296C194.1 181.693 199.241 183.589 203.419 187.231C204.921 188.485 206.83 189.146 208.786 189.088C214.567 189.088 221.494 184.237 222.939 175.25C223.086 174.341 223.226 173.486 223.358 172.677C224.911 163.168 225.437 159.962 222.875 153.855C221.702 151.054 219.129 149.562 215.441 149.562C213.401 149.604 211.38 149.954 209.444 150.599C207.201 148.806 204.406 147.842 201.534 147.87C200.214 147.873 198.901 148.056 197.631 148.413C197.15 146.05 196.538 143.715 195.799 141.419C193.845 135.487 191.627 132.604 189.001 132.604L189.033 132.618Z" fill="black"/>
<path d="M215.204 170.549C214.464 170.551 213.732 170.395 213.057 170.091C210.217 168.807 208.914 165.175 208.406 163.125C207.733 164.088 206.875 164.907 205.881 165.535C204.888 166.163 203.78 166.587 202.621 166.782C201.554 166.957 200.46 166.845 199.451 166.457C198.441 166.069 197.554 165.419 196.879 164.574C194.189 161.297 195.477 154.682 196.246 150.732C196.36 150.131 196.464 149.602 196.536 149.172C196.559 149.032 196.636 148.906 196.752 148.823C196.867 148.74 197.011 148.706 197.151 148.729C197.292 148.752 197.417 148.831 197.5 148.947C197.583 149.063 197.617 149.207 197.595 149.347C197.523 149.788 197.419 150.324 197.298 150.936C196.614 154.456 195.337 161.004 197.709 163.891C198.264 164.596 198.999 165.139 199.836 165.46C200.674 165.782 201.583 165.872 202.468 165.719C203.694 165.518 204.853 165.019 205.842 164.266C206.831 163.513 207.621 162.529 208.142 161.401C208.186 161.293 208.266 161.202 208.368 161.144C208.469 161.086 208.587 161.063 208.703 161.079C208.82 161.093 208.929 161.145 209.013 161.227C209.097 161.31 209.151 161.417 209.168 161.533C209.168 161.594 210.092 167.569 213.515 169.114C215.15 169.83 217.15 169.472 219.465 167.948C226.352 163.458 219.973 151.913 219.905 151.798C219.835 151.674 219.818 151.527 219.856 151.39C219.895 151.253 219.986 151.136 220.111 151.067C220.235 150.997 220.382 150.979 220.519 151.018C220.656 151.056 220.773 151.148 220.842 151.272C221.129 151.78 227.772 163.812 220.052 168.846C218.281 169.973 216.667 170.549 215.204 170.549Z" fill="black"/>
<path d="M208.919 162.059H208.876C208.806 162.054 208.737 162.035 208.674 162.003C208.611 161.972 208.555 161.928 208.509 161.874C208.463 161.82 208.429 161.758 208.407 161.691C208.385 161.624 208.377 161.553 208.383 161.483L209.145 151.598C209.156 151.455 209.223 151.323 209.331 151.23C209.44 151.137 209.58 151.091 209.723 151.102C209.865 151.113 209.997 151.18 210.09 151.288C210.183 151.397 210.229 151.538 210.218 151.68L209.456 161.565C209.445 161.7 209.384 161.826 209.284 161.917C209.185 162.009 209.055 162.059 208.919 162.059Z" fill="black"/>
<path d="M169.503 234.378C169.503 234.378 166.62 202.662 173.829 196.895C181.038 191.128 185.317 194.569 183.896 204.383" fill="#FFCDB2"/>
<path d="M169.503 234.915C169.369 234.915 169.24 234.864 169.142 234.774C169.043 234.683 168.982 234.559 168.97 234.425C168.852 233.119 166.144 202.355 173.492 196.476C177.864 192.981 180.53 193.256 181.993 194.087C184.336 195.425 185.213 199.095 184.43 204.462C184.409 204.604 184.333 204.733 184.218 204.819C184.103 204.905 183.958 204.942 183.816 204.922C183.673 204.901 183.545 204.825 183.459 204.71C183.373 204.595 183.336 204.45 183.356 204.308C184.05 199.496 183.356 196.111 181.449 195.006C179.786 194.054 177.195 194.87 174.154 197.303C167.253 202.823 169.997 234.003 170.025 234.318C170.038 234.459 169.995 234.6 169.905 234.709C169.814 234.818 169.684 234.887 169.543 234.901L169.503 234.915Z" fill="black"/>
<path d="M221.627 178.738L223.895 179.672L211.016 204.745C211.016 204.745 195.632 191.836 194.916 181.103" fill="#FFCDB2"/>
<path d="M211.015 205.281C210.884 205.285 210.757 205.24 210.657 205.156C210.02 204.623 195.087 191.976 194.364 181.139C194.36 181.068 194.369 180.998 194.392 180.931C194.414 180.864 194.45 180.802 194.497 180.749C194.59 180.642 194.723 180.576 194.865 180.567C195.008 180.557 195.148 180.604 195.255 180.698C195.363 180.792 195.428 180.925 195.438 181.067C196.057 190.369 208.182 201.546 210.822 203.889L223.122 179.948L221.394 179.232C221.329 179.205 221.269 179.166 221.219 179.116C221.169 179.066 221.129 179.007 221.102 178.942C221.075 178.877 221.061 178.807 221.061 178.737C221.06 178.666 221.074 178.596 221.101 178.531C221.128 178.466 221.167 178.406 221.216 178.356C221.266 178.306 221.325 178.266 221.39 178.239C221.455 178.212 221.525 178.198 221.596 178.197C221.666 178.197 221.737 178.211 221.802 178.237L224.07 179.171C224.139 179.2 224.201 179.242 224.253 179.296C224.304 179.349 224.344 179.413 224.371 179.482C224.396 179.553 224.407 179.627 224.402 179.702C224.397 179.777 224.377 179.849 224.342 179.915L211.462 204.988C211.427 205.058 211.376 205.119 211.314 205.167C211.253 205.216 211.181 205.25 211.105 205.267C211.075 205.274 211.045 205.279 211.015 205.281Z" fill="black"/>
<path d="M192.69 165.412L171.68 170.101C168.282 170.859 166.142 174.229 166.9 177.627L178.025 227.476C178.783 230.874 182.152 233.013 185.55 232.255L206.56 227.567C209.958 226.808 212.098 223.439 211.34 220.041L200.216 170.192C199.457 166.794 196.088 164.654 192.69 165.412Z" fill="#4BD657"/>
<path d="M194.08 165.472C195.512 165.474 196.902 165.963 198.019 166.86C199.136 167.757 199.914 169.007 200.226 170.406L211.349 220.254C211.709 221.884 211.407 223.591 210.51 224.999C209.613 226.407 208.195 227.403 206.566 227.767L185.557 232.454C183.927 232.812 182.221 232.51 180.813 231.614C179.405 230.717 178.409 229.299 178.044 227.67L166.925 177.826C166.564 176.196 166.865 174.49 167.761 173.081C168.657 171.673 170.075 170.677 171.705 170.313L192.713 165.626C193.166 165.524 193.629 165.472 194.094 165.472H194.08ZM194.094 164.399C193.551 164.399 193.01 164.459 192.48 164.578L171.472 169.265C170.526 169.475 169.631 169.87 168.838 170.427C168.045 170.984 167.369 171.692 166.85 172.509C166.33 173.327 165.976 174.24 165.809 175.194C165.643 176.149 165.665 177.127 165.877 178.073L177 227.921C177.428 229.826 178.593 231.484 180.24 232.532C181.888 233.581 183.883 233.935 185.79 233.516L206.798 228.826C208.707 228.398 210.368 227.23 211.416 225.578C212.464 223.927 212.815 221.927 212.39 220.018L201.274 170.191C200.902 168.559 199.988 167.1 198.682 166.052C197.376 165.003 195.754 164.427 194.08 164.417L194.094 164.399Z" fill="black"/>
<path d="M195.81 176.649C196.447 175.983 196.853 175.13 196.967 174.216C197.082 173.302 196.899 172.375 196.447 171.572C195.994 170.77 195.295 170.134 194.453 169.76C193.612 169.385 192.672 169.291 191.772 169.492C190.873 169.692 190.063 170.177 189.46 170.874C188.857 171.571 188.495 172.443 188.426 173.362C188.357 174.28 188.586 175.197 189.078 175.976C189.57 176.754 190.3 177.354 191.159 177.686C190.523 178.352 190.117 179.205 190.002 180.12C189.888 181.034 190.07 181.96 190.523 182.763C190.976 183.565 191.675 184.201 192.516 184.575C193.358 184.95 194.298 185.044 195.197 184.844C196.096 184.643 196.907 184.158 197.51 183.462C198.112 182.765 198.475 181.892 198.544 180.974C198.612 180.055 198.384 179.138 197.892 178.36C197.399 177.581 196.67 176.981 195.81 176.649Z" fill="#050505"/>
<path d="M193.223 175.907C194.579 175.604 195.434 174.264 195.133 172.915C194.832 171.565 193.488 170.716 192.133 171.018C190.777 171.321 189.922 172.66 190.223 174.01C190.524 175.36 191.868 176.209 193.223 175.907Z" fill="#4BD657"/>
<path d="M194.782 182.892C196.137 182.589 196.992 181.249 196.691 179.899C196.39 178.55 195.047 177.7 193.691 178.003C192.335 178.306 191.481 179.645 191.782 180.995C192.083 182.345 193.426 183.194 194.782 182.892Z" fill="#4BD657"/>
<path d="M174.522 212.944C180.246 204.065 188.736 194.011 198.543 194.011C215.694 194.011 207.898 206.988 207.898 206.988C207.898 206.988 217.254 211.309 214.134 219.96C214.134 219.96 217.254 237.258 204.779 243.026C192.303 248.793 182.955 243.026 182.955 243.026L167.363 225.727" fill="#FFCDB2"/>
<path d="M193.623 246.106C187.033 246.106 182.732 243.523 182.668 243.484C182.626 243.455 182.586 243.423 182.55 243.387L166.959 226.085C166.904 226.035 166.86 225.973 166.831 225.905C166.801 225.836 166.787 225.762 166.787 225.688C166.788 225.613 166.804 225.54 166.834 225.472C166.865 225.404 166.909 225.343 166.964 225.293C167.02 225.243 167.085 225.206 167.156 225.182C167.226 225.159 167.301 225.151 167.375 225.158C167.45 225.165 167.522 225.188 167.587 225.224C167.651 225.261 167.708 225.31 167.753 225.37L183.291 242.611C184.117 243.079 193.026 247.873 204.553 242.543C216.513 237.015 213.637 220.229 213.605 220.06C213.59 219.967 213.598 219.871 213.629 219.781C216.549 211.689 208.038 207.646 207.673 207.478C207.604 207.446 207.542 207.401 207.492 207.344C207.443 207.287 207.405 207.22 207.383 207.148C207.361 207.076 207.354 206.999 207.363 206.924C207.372 206.849 207.397 206.777 207.437 206.712C207.469 206.662 210.427 201.642 208.442 198.126C207.093 195.743 203.762 194.548 198.542 194.548C190.9 194.548 182.972 200.834 174.972 213.234C174.936 213.298 174.888 213.353 174.83 213.397C174.771 213.441 174.705 213.472 174.634 213.49C174.564 213.507 174.49 213.51 174.418 213.498C174.346 213.486 174.277 213.459 174.216 213.42C174.155 213.38 174.102 213.329 174.062 213.268C174.021 213.208 173.993 213.14 173.979 213.068C173.966 212.997 173.967 212.923 173.983 212.852C173.998 212.781 174.028 212.714 174.071 212.655C182.278 199.929 190.528 193.475 198.542 193.475C204.181 193.475 207.844 194.866 209.379 197.61C211.293 200.999 209.379 205.313 208.631 206.766C210.585 207.861 217.372 212.3 214.685 220.003C214.95 221.713 217.093 237.92 205.004 243.505C201.446 245.195 197.561 246.083 193.623 246.106Z" fill="black"/>
<path d="M121.394 247.827C123.541 241.745 136.421 233.516 144.649 226.003C152.878 218.49 163.253 225.288 163.253 225.288L168.262 221.71L186.866 247.469L180.784 254.267C180.784 254.267 186.866 260.349 180.784 270.724C174.702 281.1 147.154 290.044 132.127 296.126C117.101 302.208 96.3505 300.062 87.4063 243.892C78.462 187.722 124.257 145.147 124.257 145.147" fill="#07ACEE"/>
<path d="M121.233 298.988C117.549 299.01 113.923 298.065 110.718 296.248C99.4021 289.854 91.3986 272.277 86.8764 243.977C84.8228 231.098 85.4955 217.86 88.8692 204.623C91.5668 194.054 95.9889 183.475 102.014 173.175C112.267 155.644 123.777 144.85 123.891 144.743C123.998 144.669 124.128 144.637 124.257 144.651C124.386 144.666 124.506 144.727 124.593 144.824C124.681 144.92 124.73 145.044 124.733 145.174C124.735 145.304 124.691 145.431 124.607 145.53C124.493 145.637 113.08 156.342 102.908 173.744C93.5382 189.779 83.3276 214.952 87.9214 243.795C92.372 271.751 100.218 289.078 111.233 295.314C117.179 298.673 124.135 298.781 131.913 295.632C134.417 294.613 137.301 293.514 140.342 292.348C155.11 286.688 175.335 278.935 180.308 270.456C186.093 260.589 180.627 254.886 180.39 254.65C180.293 254.553 180.237 254.422 180.233 254.285C180.229 254.148 180.277 254.015 180.369 253.913L186.165 247.437L168.126 222.461L163.55 225.728C163.461 225.789 163.356 225.822 163.248 225.822C163.14 225.822 163.034 225.789 162.945 225.728C162.534 225.463 152.813 219.256 144.996 226.393C142.363 228.797 139.229 231.294 136.195 233.713C129.855 238.768 123.315 243.999 121.884 247.999C121.83 248.123 121.73 248.222 121.606 248.276C121.481 248.329 121.341 248.334 121.213 248.289C121.086 248.244 120.98 248.152 120.917 248.031C120.854 247.911 120.839 247.772 120.875 247.641C122.389 243.348 128.771 238.26 135.544 232.876C138.563 230.468 141.687 227.978 144.291 225.599C151.912 218.644 161.386 223.567 163.232 224.64L167.954 221.266C168.069 221.183 168.213 221.15 168.353 221.173C168.493 221.195 168.619 221.273 168.702 221.388L187.306 247.147C187.377 247.247 187.412 247.368 187.406 247.49C187.399 247.612 187.351 247.728 187.27 247.82L181.499 254.26C182.723 255.802 186.608 261.841 181.249 270.982C176.09 279.786 156.491 287.296 140.742 293.332C137.705 294.494 134.839 295.596 132.331 296.609C128.432 298.201 124.725 298.988 121.233 298.988Z" fill="black"/>
<path d="M128.189 138.35C123.137 141.044 121.871 151.662 126.4 155.165C128.404 156.714 134.922 158.782 138.207 159.1C149.297 160.174 151.265 152.481 153.412 148.546C153.412 148.546 178.992 143.001 150.728 130.836L128.189 138.35Z" fill="white"/>
<path d="M150.729 130.837C178.993 143.001 153.412 148.546 153.412 148.546C151.402 152.228 149.552 159.201 140.232 159.201C139.592 159.201 138.919 159.168 138.207 159.1C134.923 158.782 128.404 156.714 126.401 155.165C121.871 151.662 123.138 141.044 128.19 138.35L150.729 130.837ZM150.729 129.763C150.608 129.761 150.487 129.78 150.371 129.817L127.832 137.33C127.775 137.35 127.72 137.374 127.667 137.402C124.887 138.886 122.937 142.471 122.576 146.761C122.218 150.768 123.417 154.228 125.725 156.013C127.939 157.723 134.669 159.837 138.086 160.17C138.801 160.238 139.535 160.274 140.232 160.274C148.937 160.274 151.706 154.514 153.534 150.7C153.741 150.271 153.938 149.859 154.131 149.48C156.432 148.922 164.614 146.618 165.079 141.781C165.437 137.945 160.897 134.042 151.155 129.849C151.02 129.793 150.875 129.763 150.729 129.763Z" fill="black"/>
<path d="M147.691 87.2209C155.363 87.2209 161.583 81.0011 161.583 73.3287C161.583 65.6562 155.363 59.4365 147.691 59.4365C140.019 59.4365 133.799 65.6562 133.799 73.3287C133.799 81.0011 140.019 87.2209 147.691 87.2209Z" fill="#382256"/>
<path d="M147.702 59.4366C150.777 59.4389 153.763 60.461 156.195 62.3427C158.626 64.2244 160.364 66.8595 161.137 69.8351C161.911 72.8106 161.675 75.9586 160.467 78.7858C159.259 81.613 157.148 83.9598 154.464 85.4585C151.779 86.9572 148.674 87.5231 145.633 87.0676C142.593 86.6121 139.789 85.1609 137.662 82.9414C135.535 80.7219 134.204 77.8594 133.878 74.8023C133.552 71.7453 134.249 68.6665 135.86 66.0482C137.101 64.0229 138.842 62.351 140.916 61.1931C142.99 60.0352 145.327 59.4303 147.702 59.4366ZM147.702 58.3633C144.087 58.3593 140.593 59.6633 137.864 62.0346C135.135 64.406 133.357 67.6845 132.857 71.2648C132.357 74.8451 133.169 78.4855 135.144 81.5137C137.118 84.5419 140.121 86.7535 143.599 87.7401C147.077 88.7267 150.794 88.4218 154.065 86.8815C157.335 85.3413 159.938 82.6697 161.393 79.3602C162.847 76.0506 163.055 72.3266 161.978 68.8757C160.901 65.4247 158.612 62.4799 155.534 60.585C153.18 59.131 150.468 58.3617 147.702 58.3633Z" fill="black"/>
<path d="M182.697 119.642C182.697 119.642 193.033 112.107 189.666 103.117C186.3 94.1259 183.985 94.6768 182.511 89.8219C181.037 84.967 173.023 79.536 165.134 81.1066C165.134 81.1066 156.19 73.1355 147.374 74.6274C138.559 76.1193 135.185 79.9761 132.151 86.5125C129.117 93.049 126.427 95.8324 124.126 100.358C121.826 104.884 117.887 117.796 135.403 129.058C152.92 140.321 182.697 119.642 182.697 119.642Z" fill="#382256"/>
<path d="M149.656 74.4415C157.685 74.4415 165.159 81.1067 165.159 81.1067C166.092 80.9217 167.041 80.8294 167.992 80.8312C174.879 80.8312 181.248 85.5502 182.536 89.822C183.995 94.6769 186.314 94.1152 189.691 103.117C193.068 112.118 182.721 119.642 182.721 119.642C182.721 119.642 164.336 132.414 147.96 132.414C143.503 132.414 139.188 131.466 135.439 129.059C117.908 117.796 121.872 104.881 124.162 100.358C126.452 95.8361 129.153 93.0491 132.186 86.5126C135.22 79.9762 138.583 76.1158 147.41 74.6275C148.155 74.502 148.911 74.4397 149.667 74.4415H149.656ZM149.667 73.3682C148.851 73.3673 148.036 73.4344 147.231 73.5685C137.957 75.132 134.351 79.3322 131.213 86.0618C129.825 89.013 128.209 91.8515 126.38 94.5517C125.222 96.2642 124.161 98.0404 123.203 99.8717C121.253 103.727 120.591 108.106 121.314 112.365C122.487 119.016 127.038 124.937 134.855 129.96C138.498 132.3 142.905 133.488 147.957 133.488C156.615 133.488 165.781 129.957 171.928 126.998C175.875 125.116 179.68 122.952 183.315 120.522H183.333C185.234 119.059 186.913 117.33 188.321 115.388C191.369 111.149 192.184 106.777 190.678 102.748C188.757 97.6178 187.154 95.4855 185.866 93.7753C184.872 92.4552 184.152 91.4999 183.559 89.525C182.17 84.9098 175.434 79.7687 167.989 79.7687C167.15 79.769 166.312 79.8371 165.484 79.9726C163.774 78.5415 157.026 73.3789 149.671 73.3789L149.667 73.3682Z" fill="black"/>
<path d="M140.934 116.168C140.839 116.168 140.745 116.143 140.662 116.094C140.58 116.046 140.512 115.976 140.466 115.892C139.167 113.553 138.906 111.642 139.697 110.218C140.831 108.165 143.682 107.986 143.8 107.982C143.942 107.975 144.08 108.024 144.186 108.119C144.292 108.213 144.356 108.345 144.365 108.487C144.37 108.557 144.36 108.627 144.337 108.694C144.314 108.76 144.278 108.822 144.231 108.874C144.184 108.927 144.127 108.97 144.064 109C144 109.031 143.931 109.048 143.861 109.052C143.818 109.052 141.475 109.213 140.641 110.74C140.044 111.814 140.305 113.377 141.41 115.37C141.475 115.493 141.49 115.636 141.451 115.77C141.412 115.903 141.323 116.016 141.203 116.086C141.122 116.137 141.03 116.165 140.934 116.168Z" fill="black"/>
<path d="M151.168 136.761L150.094 144.138C148.86 152.685 131.67 150.134 128.9 142.643C128.9 142.643 135.698 135.845 140.818 119.03C140.818 119.03 133.977 117.295 135.276 111.159C136.574 105.023 141.562 104.154 144.431 105.921C144.431 105.921 155.601 114.275 168.065 90.8091C168.065 90.8091 180.065 96.2114 182.158 108.873C184.251 121.534 181.278 136.01 171.485 139.87C161.693 143.73 151.168 136.761 151.168 136.761Z" fill="#FFCDB2"/>
<path d="M168.072 90.8163C168.072 90.8163 180.072 96.2186 182.165 108.88C184.258 121.541 181.285 136.017 171.493 139.877C169.467 140.663 167.311 141.059 165.138 141.044C157.625 141.044 151.168 136.75 151.168 136.75L150.094 144.127C149.554 147.873 145.944 149.494 141.83 149.494C136.56 149.494 130.457 146.843 128.9 142.636C128.9 142.636 135.698 135.838 140.817 119.023C140.817 119.023 133.977 117.288 135.276 111.152C136.191 106.816 138.964 105.109 141.522 105.109C142.547 105.105 143.554 105.383 144.431 105.914C145.946 106.887 147.718 107.386 149.519 107.345C153.948 107.345 160.785 104.483 168.065 90.7877L168.072 90.8163ZM168.065 89.7144C167.87 89.7146 167.678 89.768 167.511 89.8688C167.344 89.9697 167.208 90.1142 167.117 90.2868C160.098 103.503 153.672 106.275 149.519 106.275C147.95 106.303 146.406 105.876 145.075 105.045L144.993 104.988C143.947 104.351 142.746 104.018 141.522 104.025C138.699 104.025 135.301 105.835 134.224 110.919C133.605 113.853 134.528 116.379 136.903 118.218C137.693 118.821 138.563 119.312 139.487 119.678C134.542 135.334 128.206 141.795 128.142 141.859C127.997 142.004 127.897 142.188 127.853 142.388C127.809 142.589 127.824 142.797 127.895 142.99C129.709 147.898 136.428 150.549 141.83 150.549C147.103 150.549 150.588 148.199 151.157 144.267L151.994 138.471C154.37 139.766 159.425 142.092 165.131 142.092C167.439 142.107 169.728 141.686 171.879 140.85C176.745 138.933 180.351 134.475 182.308 127.971C184.014 122.293 184.336 115.449 183.217 108.69C182.322 103.27 179.496 98.2901 175.045 94.2866C173.088 92.4979 170.887 90.9947 168.509 89.8217C168.37 89.7582 168.218 89.7253 168.065 89.7251V89.7144Z" fill="black"/>
<path d="M167.853 109.563C160.73 110.218 151.721 106.061 149.818 108.35C147.914 110.64 148.744 114.114 152.412 115.38C156.079 116.647 159.828 116.98 167.552 117.284C175.276 117.588 182.858 117.312 182.471 113.119C182.085 108.926 178.336 108.597 167.853 109.563Z" fill="#FFB49F"/>
<path d="M175.49 105.793H175.397C173.762 105.442 172.24 104.688 170.971 103.599C170.864 103.505 170.799 103.371 170.79 103.228C170.781 103.085 170.83 102.945 170.925 102.837C171.019 102.73 171.153 102.665 171.296 102.656C171.439 102.648 171.579 102.696 171.687 102.791C172.81 103.747 174.15 104.414 175.59 104.734C175.732 104.745 175.864 104.813 175.956 104.922C176.048 105.031 176.094 105.173 176.082 105.315C176.07 105.457 176.002 105.589 175.893 105.681C175.784 105.774 175.643 105.819 175.5 105.807L175.49 105.793Z" fill="black"/>
<path d="M149.348 107.424H149.309C143.112 106.969 137.61 100.479 137.377 100.204C137.328 100.151 137.29 100.088 137.265 100.019C137.241 99.9505 137.231 99.8776 137.235 99.805C137.24 99.7323 137.259 99.6614 137.292 99.5965C137.325 99.5316 137.371 99.4741 137.427 99.4274C137.483 99.3808 137.548 99.346 137.617 99.3252C137.687 99.3043 137.76 99.2979 137.833 99.3063C137.905 99.3147 137.975 99.3377 138.038 99.3739C138.101 99.4101 138.156 99.4588 138.2 99.517C138.254 99.5778 143.645 105.932 149.387 106.35C149.53 106.356 149.664 106.417 149.761 106.522C149.858 106.626 149.91 106.764 149.905 106.907C149.899 107.049 149.838 107.184 149.733 107.28C149.629 107.377 149.49 107.429 149.348 107.424Z" fill="black"/>
<path d="M148.94 103.438C147.611 103.431 146.289 103.256 145.005 102.916C144.932 102.903 144.863 102.875 144.802 102.834C144.741 102.793 144.689 102.74 144.649 102.678C144.61 102.616 144.583 102.546 144.571 102.474C144.56 102.401 144.563 102.327 144.581 102.256C144.599 102.184 144.632 102.117 144.677 102.059C144.722 102.001 144.779 101.953 144.843 101.918C144.908 101.882 144.979 101.861 145.052 101.854C145.126 101.847 145.2 101.856 145.269 101.879C157.036 104.895 161.727 93.0846 161.927 92.5766C161.952 92.5108 161.991 92.4506 162.039 92.3996C162.088 92.3485 162.146 92.3075 162.21 92.279C162.275 92.2504 162.344 92.2348 162.415 92.2331C162.485 92.2313 162.555 92.2435 162.621 92.2688C162.687 92.2942 162.747 92.3323 162.798 92.3809C162.849 92.4295 162.89 92.4877 162.919 92.5522C162.947 92.6166 162.963 92.6861 162.965 92.7565C162.966 92.827 162.954 92.8972 162.929 92.9629C162.871 93.081 158.772 103.438 148.94 103.438Z" fill="white"/>
<path d="M133.764 60.3559C133.705 60.3551 133.647 60.3454 133.592 60.3272C133.525 60.3051 133.463 60.2698 133.41 60.2235C133.356 60.1772 133.313 60.1208 133.282 60.0576C133.251 59.9944 133.232 59.9255 133.228 59.8551C133.223 59.7847 133.233 59.7142 133.256 59.6475C134.329 56.4276 136.186 54.1665 138.747 52.9071C143.255 50.6925 148.314 52.3991 148.529 52.4742C148.663 52.5216 148.773 52.6205 148.834 52.749C148.896 52.8775 148.903 53.0251 148.856 53.1593C148.809 53.2936 148.71 53.4035 148.581 53.4649C148.453 53.5263 148.305 53.5341 148.171 53.4867C148.121 53.4867 143.309 51.8553 139.209 53.8731C136.915 55.0036 135.252 57.0608 134.265 59.9909C134.23 60.0964 134.162 60.1882 134.072 60.2537C133.983 60.3191 133.875 60.3548 133.764 60.3559Z" fill="black"/>
<path d="M168.791 122.379C168.669 122.379 168.551 122.338 168.456 122.262C168.361 122.185 168.295 122.079 168.268 121.96L165.732 110.672C165.701 110.533 165.726 110.388 165.802 110.267C165.878 110.147 165.999 110.062 166.138 110.03C166.277 109.999 166.423 110.024 166.543 110.1C166.664 110.176 166.749 110.297 166.78 110.436L169.313 121.724C169.329 121.793 169.331 121.864 169.319 121.934C169.308 122.003 169.282 122.07 169.245 122.13C169.207 122.19 169.158 122.242 169.101 122.282C169.043 122.323 168.978 122.352 168.909 122.368L168.791 122.379Z" fill="black"/>
<path d="M138.014 120.976C139.27 120.976 140.289 119.957 140.289 118.701C140.289 117.444 139.27 116.425 138.014 116.425C136.757 116.425 135.738 117.444 135.738 118.701C135.738 119.957 136.757 120.976 138.014 120.976Z" fill="#07ACEE"/>
<path d="M138.018 116.425C138.522 116.427 139.011 116.596 139.409 116.905C139.806 117.215 140.09 117.647 140.215 118.135C140.34 118.623 140.3 119.139 140.1 119.602C139.901 120.064 139.554 120.448 139.113 120.692C138.672 120.936 138.163 121.026 137.665 120.95C137.167 120.873 136.709 120.633 136.362 120.268C136.015 119.903 135.798 119.433 135.747 118.932C135.696 118.43 135.813 117.926 136.079 117.499C136.283 117.169 136.569 116.897 136.908 116.709C137.248 116.521 137.63 116.423 138.018 116.425ZM138.018 115.352C137.208 115.35 136.426 115.641 135.814 116.172C135.203 116.702 134.803 117.436 134.691 118.238C134.578 119.04 134.76 119.855 135.201 120.533C135.643 121.212 136.315 121.708 137.094 121.929C137.873 122.15 138.705 122.082 139.438 121.738C140.17 121.393 140.753 120.795 141.079 120.054C141.405 119.313 141.452 118.479 141.211 117.706C140.97 116.933 140.457 116.274 139.768 115.849C139.242 115.525 138.636 115.352 138.018 115.352Z" fill="black"/>
<path d="M138.423 69.6577C138.338 69.6567 138.255 69.6358 138.18 69.5969C138.055 69.5319 137.96 69.4205 137.917 69.2867C137.873 69.1529 137.884 69.0073 137.947 68.8813C139.603 65.6864 141.811 63.7116 144.509 63.0211C148.877 61.8977 152.895 64.5416 153.067 64.6561C153.128 64.6941 153.181 64.7441 153.222 64.803C153.264 64.8619 153.293 64.9285 153.308 64.999C153.323 65.0694 153.324 65.1422 153.31 65.213C153.297 65.2837 153.269 65.351 153.229 65.4109C153.189 65.4707 153.137 65.5219 153.077 65.5613C153.016 65.6007 152.949 65.6275 152.878 65.6402C152.807 65.6529 152.734 65.6512 152.664 65.6352C152.594 65.6191 152.528 65.5891 152.469 65.5469C152.43 65.5219 148.666 63.0425 144.766 64.0622C142.384 64.6775 140.409 66.4664 138.903 69.375C138.856 69.4612 138.786 69.5331 138.702 69.5828C138.618 69.6326 138.521 69.6585 138.423 69.6577Z" fill="white"/>
<path d="M154.843 113.842C155.634 113.842 156.274 113.201 156.274 112.411C156.274 111.621 155.634 110.98 154.843 110.98C154.053 110.98 153.412 111.621 153.412 112.411C153.412 113.201 154.053 113.842 154.843 113.842Z" fill="black"/>
<path d="M175.773 115.095C176.563 115.095 177.204 114.454 177.204 113.663C177.204 112.873 176.563 112.232 175.773 112.232C174.983 112.232 174.342 112.873 174.342 113.663C174.342 114.454 174.983 115.095 175.773 115.095Z" fill="black"/>
<path d="M165.594 133.055C164.657 133.075 163.747 132.738 163.05 132.11C162.955 132.009 162.903 131.874 162.904 131.735C162.906 131.596 162.962 131.463 163.06 131.365C163.158 131.266 163.29 131.209 163.429 131.206C163.568 131.203 163.703 131.254 163.805 131.348C163.877 131.416 165.361 132.801 167.798 131.276C167.918 131.214 168.057 131.199 168.187 131.235C168.318 131.27 168.43 131.354 168.501 131.469C168.573 131.584 168.598 131.721 168.573 131.854C168.547 131.987 168.472 132.105 168.363 132.185C167.541 132.732 166.581 133.034 165.594 133.055Z" fill="black"/>
<path d="M155.559 104.004C155.441 104.003 155.327 103.963 155.234 103.891C155.14 103.819 155.073 103.718 155.043 103.604C155.013 103.49 155.021 103.369 155.067 103.26C155.112 103.151 155.192 103.061 155.294 103.002C155.516 102.873 160.747 99.9321 162.807 102.798C162.882 102.914 162.91 103.054 162.884 103.19C162.858 103.325 162.781 103.446 162.668 103.526C162.556 103.606 162.417 103.64 162.28 103.62C162.144 103.601 162.02 103.529 161.935 103.42C160.471 101.374 155.885 103.907 155.853 103.932C155.764 103.985 155.662 104.01 155.559 104.004Z" fill="black"/>
<path d="M152.409 138.586C152.359 138.586 152.308 138.578 152.259 138.564C148.56 137.491 145.161 134.096 145.018 133.952C144.917 133.851 144.861 133.715 144.861 133.572C144.862 133.429 144.919 133.293 145.02 133.192C145.121 133.092 145.258 133.035 145.4 133.036C145.543 133.036 145.679 133.093 145.78 133.194C145.812 133.23 149.129 136.525 152.577 137.534C152.701 137.57 152.808 137.65 152.878 137.758C152.948 137.867 152.977 137.997 152.958 138.125C152.94 138.253 152.876 138.37 152.779 138.454C152.681 138.539 152.556 138.586 152.427 138.586H152.409Z" fill="black"/>
<path d="M92.5918 194.34C92.5918 194.34 115.131 159.637 136.597 197.203L92.5918 194.34Z" fill="#07ACEE"/>
<path d="M136.598 197.739C136.503 197.74 136.41 197.715 136.328 197.667C136.247 197.619 136.179 197.55 136.133 197.468C129.736 186.276 122.645 180.491 115.053 180.273C102.764 179.915 93.1398 194.487 93.0432 194.634C92.9654 194.754 92.8435 194.837 92.704 194.867C92.5644 194.896 92.4186 194.869 92.299 194.791C92.1795 194.714 92.0958 194.591 92.0663 194.452C92.0368 194.312 92.064 194.167 92.1418 194.047C92.5461 193.428 102.159 178.842 115.082 179.2C123.075 179.429 130.466 185.396 137.063 196.938C137.129 197.06 137.144 197.203 137.107 197.336C137.069 197.469 136.982 197.583 136.863 197.654C136.784 197.706 136.693 197.736 136.598 197.739Z" fill="black"/>
<path d="M194.557 215.449C194.557 215.449 205.476 211.177 208.245 206.336L211.014 201.496" fill="#FFCDB2"/>
<path d="M194.556 215.986C194.431 215.987 194.309 215.943 194.212 215.864C194.114 215.784 194.048 215.672 194.025 215.549C194.002 215.425 194.022 215.298 194.083 215.188C194.145 215.078 194.242 214.993 194.36 214.948C194.467 214.909 205.136 210.691 207.78 206.072L210.549 201.228C210.584 201.167 210.631 201.113 210.687 201.07C210.743 201.027 210.807 200.996 210.875 200.977C210.943 200.959 211.014 200.954 211.084 200.964C211.154 200.973 211.221 200.996 211.282 201.031C211.343 201.066 211.397 201.113 211.44 201.169C211.483 201.225 211.514 201.289 211.532 201.357C211.551 201.425 211.555 201.496 211.546 201.566C211.537 201.636 211.514 201.703 211.479 201.764L208.71 206.605C205.88 211.553 195.204 215.771 194.757 215.95C194.693 215.974 194.625 215.986 194.556 215.986Z" fill="black"/>
<path d="M197.418 231.549C197.418 231.549 210.655 228.329 214.233 220.1L197.418 231.549Z" fill="#FFCDB2"/>
<path d="M197.419 232.085C197.277 232.102 197.134 232.061 197.021 231.972C196.909 231.883 196.837 231.754 196.82 231.611C196.803 231.469 196.844 231.326 196.933 231.213C197.022 231.101 197.152 231.029 197.294 231.012C197.423 230.98 210.313 227.756 213.752 219.871C213.808 219.74 213.915 219.637 214.048 219.585C214.181 219.532 214.329 219.535 214.46 219.592C214.591 219.649 214.694 219.756 214.746 219.888C214.798 220.021 214.796 220.169 214.739 220.3C211.097 228.676 198.106 231.921 197.566 232.057C197.519 232.074 197.469 232.084 197.419 232.085Z" fill="black"/>
<path d="M207.079 185.933C206.982 185.933 206.888 185.907 206.805 185.858C206.722 185.808 206.653 185.738 206.607 185.654C202.227 177.622 206.424 169.393 206.607 169.05C206.637 168.984 206.681 168.924 206.734 168.876C206.788 168.827 206.851 168.79 206.92 168.766C206.989 168.743 207.061 168.733 207.134 168.739C207.206 168.744 207.277 168.764 207.341 168.798C207.406 168.831 207.463 168.877 207.509 168.933C207.555 168.989 207.589 169.054 207.609 169.124C207.63 169.194 207.636 169.267 207.627 169.339C207.618 169.411 207.595 169.48 207.558 169.543C207.515 169.626 203.455 177.622 207.558 185.138C207.622 185.262 207.635 185.406 207.595 185.539C207.555 185.673 207.465 185.785 207.344 185.854C207.263 185.902 207.172 185.929 207.079 185.933Z" fill="black"/>
<path d="M174.343 201.317C174.183 201.317 174.028 201.263 173.902 201.165C173.776 201.066 173.687 200.928 173.649 200.773L168.282 178.949C168.259 178.858 168.254 178.763 168.267 178.67C168.28 178.577 168.311 178.487 168.359 178.406C168.407 178.325 168.47 178.254 168.546 178.198C168.621 178.141 168.706 178.1 168.798 178.076C168.889 178.053 168.984 178.048 169.077 178.061C169.17 178.074 169.26 178.105 169.341 178.153C169.422 178.201 169.493 178.264 169.549 178.34C169.606 178.415 169.647 178.5 169.671 178.592L175.037 200.415C175.083 200.6 175.053 200.794 174.955 200.956C174.857 201.119 174.699 201.236 174.515 201.281C174.459 201.3 174.402 201.312 174.343 201.317Z" fill="white"/>
<path d="M192.793 242.661C190.752 242.67 188.715 242.477 186.711 242.085C186.62 242.064 186.533 242.025 186.457 241.97C186.38 241.915 186.315 241.846 186.265 241.766C186.215 241.687 186.182 241.598 186.166 241.505C186.15 241.413 186.154 241.318 186.175 241.226C186.196 241.134 186.235 241.048 186.289 240.971C186.344 240.895 186.413 240.83 186.493 240.78C186.572 240.73 186.661 240.696 186.754 240.681C186.847 240.665 186.942 240.668 187.033 240.689C187.198 240.725 203.705 244.342 209.118 232.504C209.157 232.418 209.213 232.341 209.282 232.277C209.35 232.213 209.431 232.163 209.519 232.13C209.607 232.097 209.701 232.082 209.795 232.085C209.889 232.089 209.981 232.11 210.066 232.149C210.152 232.188 210.229 232.244 210.293 232.313C210.357 232.381 210.407 232.462 210.44 232.55C210.473 232.638 210.488 232.732 210.485 232.826C210.482 232.92 210.46 233.012 210.421 233.098C206.739 241.133 198.518 242.661 192.793 242.661Z" fill="white"/>
<path d="M118.889 292.906C118.809 292.906 118.73 292.893 118.656 292.866C109.064 289.568 101.669 279.722 97.2721 264.391C95.2361 257.124 93.9675 249.663 93.4869 242.131C93.4831 242.037 93.4981 241.943 93.5306 241.855C93.5631 241.767 93.6125 241.686 93.6763 241.617C93.74 241.548 93.8169 241.492 93.9023 241.452C93.9877 241.413 94.0798 241.391 94.1738 241.387C94.2678 241.383 94.3615 241.398 94.4498 241.43C94.538 241.463 94.619 241.512 94.6881 241.576C94.7572 241.64 94.8132 241.717 94.8526 241.802C94.8921 241.887 94.9142 241.98 94.918 242.074C95.392 249.501 96.644 256.857 98.6532 264.023C101.626 274.377 107.597 287.55 119.121 291.514C119.281 291.569 119.416 291.679 119.502 291.825C119.589 291.97 119.621 292.141 119.593 292.308C119.565 292.475 119.479 292.626 119.35 292.736C119.221 292.845 119.058 292.905 118.889 292.906Z" fill="white"/>
<path d="M266.291 203.821C266.176 203.821 266.063 203.793 265.962 203.74C265.86 203.687 265.773 203.611 265.707 203.518C265.641 203.424 265.599 203.316 265.583 203.203C265.568 203.089 265.58 202.974 265.618 202.866C269.832 191.088 268.838 180.258 262.634 170.667C259.842 166.338 256.214 162.61 251.962 159.701C251.809 159.597 251.703 159.439 251.664 159.259C251.626 159.078 251.658 158.89 251.755 158.733C251.852 158.576 252.006 158.463 252.184 158.416C252.363 158.37 252.552 158.395 252.713 158.485C257.142 161.478 260.916 165.342 263.804 169.84C268.258 176.706 272.423 188.086 266.963 203.338C266.915 203.478 266.824 203.6 266.704 203.687C266.583 203.773 266.439 203.82 266.291 203.821Z" fill="white"/>
<path d="M299.742 156.953C299.624 156.953 299.509 156.915 299.415 156.843C299.321 156.771 299.254 156.67 299.223 156.556C299.193 156.441 299.201 156.32 299.246 156.211C299.291 156.102 299.371 156.011 299.474 155.952C325.366 140.893 335.394 118.107 339.244 101.646C343.422 83.7931 341.447 69.3392 341.426 69.1961C341.416 69.1256 341.42 69.0539 341.438 68.985C341.456 68.9161 341.487 68.8515 341.53 68.7947C341.573 68.7379 341.627 68.69 341.688 68.654C341.749 68.6179 341.817 68.5942 341.887 68.5843C341.958 68.5745 342.029 68.5786 342.098 68.5964C342.167 68.6143 342.232 68.6456 342.289 68.6884C342.346 68.7313 342.394 68.7849 342.43 68.8462C342.466 68.9075 342.489 68.9754 342.499 69.0459C342.517 69.1926 344.521 83.8432 340.299 101.889C337.816 112.493 333.705 122.185 328.074 130.697C321.037 141.337 311.616 150.149 300.018 156.882C299.934 156.93 299.839 156.954 299.742 156.953Z" fill="black"/>
<path d="M305.824 172.696C305.698 172.695 305.576 172.649 305.48 172.568C305.384 172.486 305.32 172.374 305.299 172.25C305.277 172.126 305.301 171.998 305.364 171.889C305.427 171.781 305.526 171.697 305.645 171.655C322.707 165.601 333.772 156.081 340.051 149.162C346.849 141.648 349.668 135.509 349.711 135.445C349.74 135.38 349.781 135.322 349.833 135.274C349.884 135.225 349.944 135.188 350.01 135.163C350.076 135.137 350.146 135.126 350.217 135.128C350.287 135.13 350.357 135.146 350.421 135.175C350.486 135.203 350.544 135.245 350.592 135.296C350.641 135.347 350.678 135.408 350.703 135.474C350.728 135.54 350.74 135.61 350.738 135.68C350.736 135.751 350.72 135.82 350.691 135.885C350.577 136.142 347.804 142.224 340.896 149.838C334.527 156.861 323.311 166.521 306.017 172.656C305.955 172.682 305.89 172.695 305.824 172.696Z" fill="black"/>
<path d="M198.672 143.716H198.65C198.556 143.713 198.464 143.692 198.378 143.653C198.292 143.615 198.215 143.56 198.15 143.491C198.086 143.423 198.036 143.342 198.002 143.254C197.969 143.166 197.953 143.073 197.956 142.979C198.289 131.684 191.044 130.861 190.737 130.815C190.548 130.797 190.373 130.706 190.252 130.56C190.131 130.415 190.072 130.227 190.089 130.038C190.106 129.85 190.197 129.677 190.342 129.555C190.487 129.434 190.673 129.375 190.862 129.391C190.951 129.391 199.759 130.31 199.387 142.986C199.389 143.081 199.372 143.176 199.337 143.264C199.302 143.353 199.25 143.433 199.183 143.501C199.116 143.569 199.037 143.623 198.949 143.66C198.861 143.697 198.767 143.716 198.672 143.716Z" fill="black"/>
<path d="M94.2031 228.865C94.0856 228.864 93.97 228.835 93.8666 228.779C80.1855 221.474 71.7672 206.433 67.109 195.102C64.062 187.68 61.7565 179.974 60.2258 172.098C60.205 172.003 60.2034 171.905 60.2216 171.81C60.2398 171.714 60.2774 171.624 60.3317 171.543C60.386 171.463 60.4562 171.395 60.5378 171.342C60.6194 171.29 60.7108 171.254 60.8065 171.238C60.9022 171.222 60.9998 171.226 61.094 171.249C61.1883 171.272 61.2771 171.314 61.3547 171.372C61.4322 171.43 61.4968 171.504 61.5451 171.588C61.5933 171.672 61.624 171.765 61.6352 171.862C63.1456 179.643 65.4226 187.255 68.4328 194.587C72.998 205.678 81.2305 220.414 94.5252 227.502C94.6651 227.577 94.7758 227.697 94.84 227.843C94.9041 227.988 94.918 228.151 94.8795 228.305C94.8409 228.459 94.7519 228.596 94.6269 228.695C94.5018 228.793 94.3477 228.846 94.1887 228.847L94.2031 228.865Z" fill="black"/>
<path d="M88.8361 240.314C88.758 240.315 88.6805 240.301 88.6072 240.275C77.5164 236.514 71.2695 229.978 67.9852 225.155C64.4075 219.91 63.4881 215.596 63.4488 215.417C63.4099 215.231 63.4464 215.037 63.5504 214.878C63.6544 214.719 63.8173 214.608 64.0032 214.569C64.1892 214.53 64.383 214.567 64.542 214.671C64.701 214.775 64.8123 214.937 64.8512 215.123C64.887 215.292 68.6184 231.989 89.0649 238.922C89.2244 238.977 89.3594 239.087 89.4457 239.232C89.5321 239.377 89.5643 239.548 89.5369 239.715C89.5095 239.881 89.4245 240.033 89.2962 240.142C89.1679 240.252 89.0048 240.313 88.8361 240.314Z" fill="black"/>
<path d="M155.668 180.996C157.276 180.996 158.58 179.692 158.58 178.084C158.58 176.475 157.276 175.171 155.668 175.171C154.06 175.171 152.756 176.475 152.756 178.084C152.756 179.692 154.06 180.996 155.668 180.996Z" fill="#51CEF4"/>
<path d="M124.184 169.547C125.792 169.547 127.096 168.243 127.096 166.635C127.096 165.027 125.792 163.723 124.184 163.723C122.575 163.723 121.271 165.027 121.271 166.635C121.271 168.243 122.575 169.547 124.184 169.547Z" fill="#51CEF4"/>
<path d="M105.223 207.828C106.831 207.828 108.135 206.525 108.135 204.916C108.135 203.308 106.831 202.004 105.223 202.004C103.614 202.004 102.311 203.308 102.311 204.916C102.311 206.525 103.614 207.828 105.223 207.828Z" fill="#51CEF4"/>
<path d="M152.805 216.415C154.413 216.415 155.717 215.111 155.717 213.503C155.717 211.894 154.413 210.59 152.805 210.59C151.196 210.59 149.893 211.894 149.893 213.503C149.893 215.111 151.196 216.415 152.805 216.415Z" fill="#51CEF4"/>
<path d="M108.441 255.412C110.05 255.412 111.354 254.108 111.354 252.5C111.354 250.891 110.05 249.587 108.441 249.587C106.833 249.587 105.529 250.891 105.529 252.5C105.529 254.108 106.833 255.412 108.441 255.412Z" fill="#51CEF4"/>
<path d="M147.08 242.174C148.688 242.174 149.993 240.87 149.993 239.262C149.993 237.654 148.688 236.35 147.08 236.35C145.472 236.35 144.168 237.654 144.168 239.262C144.168 240.87 145.472 242.174 147.08 242.174Z" fill="#51CEF4"/>
<path d="M161.393 270.08C163.001 270.08 164.305 268.777 164.305 267.168C164.305 265.56 163.001 264.256 161.393 264.256C159.784 264.256 158.48 265.56 158.48 267.168C158.48 268.777 159.784 270.08 161.393 270.08Z" fill="#51CEF4"/>
<path d="M127.762 275.089C129.37 275.089 130.674 273.785 130.674 272.177C130.674 270.569 129.37 269.265 127.762 269.265C126.153 269.265 124.85 270.569 124.85 272.177C124.85 273.785 126.153 275.089 127.762 275.089Z" fill="#51CEF4"/>
<path d="M202.893 264.714C204.501 264.714 205.805 263.41 205.805 261.801C205.805 260.193 204.501 258.889 202.893 258.889C201.284 258.889 199.98 260.193 199.98 261.801C199.98 263.41 201.284 264.714 202.893 264.714Z" fill="#51CEF4"/>
<path d="M225.074 244.321C226.683 244.321 227.987 243.017 227.987 241.408C227.987 239.8 226.683 238.496 225.074 238.496C223.466 238.496 222.162 239.8 222.162 241.408C222.162 243.017 223.466 244.321 225.074 244.321Z" fill="#51CEF4"/>
<path d="M225.074 270.438C226.683 270.438 227.987 269.134 227.987 267.526C227.987 265.917 226.683 264.613 225.074 264.613C223.466 264.613 222.162 265.917 222.162 267.526C222.162 269.134 223.466 270.438 225.074 270.438Z" fill="#51CEF4"/>
<path d="M237.596 212.837C239.204 212.837 240.508 211.533 240.508 209.925C240.508 208.317 239.204 207.013 237.596 207.013C235.987 207.013 234.684 208.317 234.684 209.925C234.684 211.533 235.987 212.837 237.596 212.837Z" fill="#51CEF4"/>
<path d="M252.266 188.151C253.874 188.151 255.178 186.847 255.178 185.239C255.178 183.631 253.874 182.327 252.266 182.327C250.657 182.327 249.354 183.631 249.354 185.239C249.354 186.847 250.657 188.151 252.266 188.151Z" fill="#51CEF4"/>
<path d="M234.734 159.172C236.343 159.172 237.647 157.868 237.647 156.259C237.647 154.651 236.343 153.347 234.734 153.347C233.126 153.347 231.822 154.651 231.822 156.259C231.822 157.868 233.126 159.172 234.734 159.172Z" fill="#51CEF4"/>
<path d="M171.051 152.374C172.659 152.374 173.963 151.07 173.963 149.462C173.963 147.854 172.659 146.55 171.051 146.55C169.442 146.55 168.139 147.854 168.139 149.462C168.139 151.07 169.442 152.374 171.051 152.374Z" fill="#51CEF4"/>
<defs>
<filter id="filter0_d_14057_90095" x="-4.0192" y="107.785" width="38.6829" height="38.6839" filterUnits="userSpaceOnUse" color-interpolation-filters="sRGB">
<feFlood flood-opacity="0" result="BackgroundImageFix"/>
<feColorMatrix in="SourceAlpha" type="matrix" values="0 0 0 0 0 0 0 0 0 0 0 0 0 0 0 0 0 0 127 0" result="hardAlpha"/>
<feOffset dy="2.03704"/>
<feGaussianBlur stdDeviation="5.09261"/>
<feComposite in2="hardAlpha" operator="out"/>
<feColorMatrix type="matrix" values="0 0 0 0 0 0 0 0 0 0 0 0 0 0 0 0 0 0 0.05 0"/>
<feBlend mode="normal" in2="BackgroundImageFix" result="effect1_dropShadow_14057_90095"/>
<feBlend mode="normal" in="SourceGraphic" in2="effect1_dropShadow_14057_90095" result="shape"/>
</filter>
<filter id="filter1_d_14057_90095" x="370.649" y="165.21" width="38.6888" height="38.6883" filterUnits="userSpaceOnUse" color-interpolation-filters="sRGB">
<feFlood flood-opacity="0" result="BackgroundImageFix"/>
<feColorMatrix in="SourceAlpha" type="matrix" values="0 0 0 0 0 0 0 0 0 0 0 0 0 0 0 0 0 0 127 0" result="hardAlpha"/>
<feOffset dy="2.03704"/>
<feGaussianBlur stdDeviation="5.09261"/>
<feComposite in2="hardAlpha" operator="out"/>
<feColorMatrix type="matrix" values="0 0 0 0 0 0 0 0 0 0 0 0 0 0 0 0 0 0 0.05 0"/>
<feBlend mode="normal" in2="BackgroundImageFix" result="effect1_dropShadow_14057_90095"/>
<feBlend mode="normal" in="SourceGraphic" in2="effect1_dropShadow_14057_90095" result="shape"/>
</filter>
<linearGradient id="paint0_linear_14057_90095" x1="20.4547" y1="112.038" x2="392.053" y2="200.547" gradientUnits="userSpaceOnUse">
<stop stop-color="#CDD5E2"/>
<stop offset="1" stop-color="#CDD5E2" stop-opacity="0"/>
</linearGradient>
<linearGradient id="paint1_linear_14057_90095" x1="391.411" y1="195.437" x2="353.85" y2="294.044" gradientUnits="userSpaceOnUse">
<stop stop-color="#CDD5E2"/>
<stop offset="1" stop-color="#CDD5E2" stop-opacity="0"/>
</linearGradient>
<linearGradient id="paint2_linear_14057_90095" x1="196.502" y1="23.2607" x2="196.502" y2="365.006" gradientUnits="userSpaceOnUse">
<stop stop-color="#CDD5E2"/>
<stop offset="1" stop-color="#CDD5E2" stop-opacity="0"/>
</linearGradient>
<linearGradient id="paint3_linear_14057_90095" x1="196.505" y1="57.4336" x2="196.505" y2="330.83" gradientUnits="userSpaceOnUse">
<stop stop-color="#CDD5E2"/>
<stop offset="1" stop-color="#CDD5E2" stop-opacity="0"/>
</linearGradient>
</defs>
</svg>
