<svg width="406" height="302" viewBox="0 0 406 302" fill="none" xmlns="http://www.w3.org/2000/svg">
<mask id="mask0_14057_89497" style="mask-type:alpha" maskUnits="userSpaceOnUse" x="0" y="0" width="406" height="302">
<rect width="405.823" height="301.875" fill="#D9D9D9"/>
</mask>
<g mask="url(#mask0_14057_89497)">
<g opacity="0.5">
<mask id="path-2-inside-1_14057_89497" fill="white">
<path d="M389.979 202.565C391.995 156.308 377.371 110.86 348.759 74.4588C320.146 38.0574 279.439 13.1119 234.015 4.14415C188.592 -4.82363 141.458 2.77982 101.159 25.5762C60.859 48.3727 30.0607 84.8533 14.3462 128.405L15.1858 128.708C30.8279 85.357 61.4843 49.0446 101.598 26.3532C141.712 3.66186 188.628 -3.90654 233.842 5.0199C279.057 13.9463 319.576 38.7768 348.057 75.0104C376.537 111.244 391.094 156.483 389.087 202.526L389.979 202.565Z"/>
</mask>
<path d="M389.979 202.565C391.995 156.308 377.371 110.86 348.759 74.4588C320.146 38.0574 279.439 13.1119 234.015 4.14415C188.592 -4.82363 141.458 2.77982 101.159 25.5762C60.859 48.3727 30.0607 84.8533 14.3462 128.405L15.1858 128.708C30.8279 85.357 61.4843 49.0446 101.598 26.3532C141.712 3.66186 188.628 -3.90654 233.842 5.0199C279.057 13.9463 319.576 38.7768 348.057 75.0104C376.537 111.244 391.094 156.483 389.087 202.526L389.979 202.565Z" stroke="url(#paint0_linear_14057_89497)" stroke-width="2.84788" stroke-dasharray="4.27 4.27" mask="url(#path-2-inside-1_14057_89497)"/>
</g>
<g opacity="0.5">
<mask id="path-3-inside-2_14057_89497" fill="white">
<path d="M14.6043 260.572C30.4892 304.063 61.4301 340.422 101.819 363.061C142.207 385.699 189.37 393.118 234.758 383.973C280.146 374.827 320.756 349.723 349.225 313.21C377.695 276.697 392.141 231.192 389.944 184.943L389.052 184.986C391.239 231.021 376.86 276.316 348.521 312.661C320.183 349.006 279.761 373.994 234.582 383.098C189.403 392.201 142.457 384.816 102.255 362.282C62.0527 339.748 31.2544 303.556 15.4428 260.266L14.6043 260.572Z"/>
</mask>
<path d="M14.6043 260.572C30.4892 304.063 61.4301 340.422 101.819 363.061C142.207 385.699 189.37 393.118 234.758 383.973C280.146 374.827 320.756 349.723 349.225 313.21C377.695 276.697 392.141 231.192 389.944 184.943L389.052 184.986C391.239 231.021 376.86 276.316 348.521 312.661C320.183 349.006 279.761 373.994 234.582 383.098C189.403 392.201 142.457 384.816 102.255 362.282C62.0527 339.748 31.2544 303.556 15.4428 260.266L14.6043 260.572Z" stroke="url(#paint1_linear_14057_89497)" stroke-width="2.84788" stroke-dasharray="4.27 4.27" mask="url(#path-3-inside-2_14057_89497)"/>
</g>
<circle opacity="0.08" cx="196.502" cy="194.133" r="170.873" fill="url(#paint2_linear_14057_89497)"/>
<circle opacity="0.1" cx="196.505" cy="194.132" r="136.698" fill="url(#paint3_linear_14057_89497)"/>
<circle cx="196.505" cy="194.134" r="91.1321" fill="white"/>
<g filter="url(#filter0_d_14057_89497)">
<circle cx="15.3224" cy="125.09" r="7.11969" transform="rotate(-2.50406 15.3224 125.09)" fill="#0170FF"/>
<circle cx="15.3224" cy="125.09" r="8.13822" transform="rotate(-2.50406 15.3224 125.09)" stroke="white" stroke-width="2.03704"/>
</g>
<g filter="url(#filter1_d_14057_89497)">
<circle cx="389.993" cy="182.517" r="7.11969" transform="rotate(-15.7345 389.993 182.517)" fill="#0170FF"/>
<circle cx="389.993" cy="182.517" r="8.13822" transform="rotate(-15.7345 389.993 182.517)" stroke="white" stroke-width="2.03704"/>
</g>
</g>
<path d="M251.699 71.8062H78.8726C69.3351 71.8062 61.6035 79.5379 61.6035 89.0754V196.689C61.6035 206.226 69.3351 213.958 78.8726 213.958H251.699C261.237 213.958 268.968 206.226 268.968 196.689V89.0754C268.968 79.5379 261.237 71.8062 251.699 71.8062Z" fill="white"/>
<path d="M251.702 214.459H78.8756C74.1632 214.454 69.6453 212.58 66.3132 209.248C62.9811 205.916 61.1069 201.398 61.1016 196.685V89.0754C61.1078 84.3636 62.9823 79.8467 66.3143 76.5153C69.6464 73.1839 74.1638 71.31 78.8756 71.3047H251.702C256.413 71.31 260.93 73.184 264.262 76.5155C267.593 79.847 269.467 84.3639 269.472 89.0754V196.685C269.467 201.397 267.593 205.915 264.262 209.247C260.93 212.579 256.413 214.453 251.702 214.459ZM78.8756 72.3075C74.4295 72.312 70.1667 74.0799 67.0226 77.2234C63.8784 80.3669 62.1097 84.6293 62.1044 89.0754V196.685C62.1097 201.132 63.8784 205.395 67.0224 208.539C70.1665 211.683 74.4292 213.451 78.8756 213.457H251.702C256.148 213.451 260.41 211.683 263.554 208.538C266.697 205.394 268.465 201.132 268.47 196.685V89.0754C268.465 84.6296 266.697 80.3672 263.554 77.2236C260.41 74.08 256.147 72.312 251.702 72.3075H78.8756Z" fill="black"/>
<path d="M255.605 76.9136H82.7789C73.2414 76.9136 65.5098 84.6453 65.5098 94.1828V201.796C65.5098 211.334 73.2414 219.065 82.7789 219.065H255.605C265.143 219.065 272.874 211.334 272.874 201.796V94.1828C272.874 84.6453 265.143 76.9136 255.605 76.9136Z" fill="white"/>
<path d="M255.605 219.567H82.7784C78.0669 219.562 73.55 217.688 70.2185 214.356C66.887 211.025 65.0131 206.508 65.0078 201.796V94.1861C65.0131 89.4744 66.8869 84.9571 70.2183 81.6251C73.5497 78.293 78.0666 76.4183 82.7784 76.4121H255.605C260.317 76.4174 264.835 78.2917 268.167 81.6239C271.499 84.956 273.373 89.4738 273.379 94.1861V201.796C273.372 206.508 271.498 211.025 268.166 214.356C264.834 217.688 260.316 219.562 255.605 219.567ZM82.7784 77.415C78.3323 77.4203 74.0701 79.1891 70.9265 82.3332C67.783 85.4774 66.0151 89.7401 66.0107 94.1861V201.796C66.0151 206.242 67.7831 210.504 70.9267 213.648C74.0703 216.792 78.3326 218.56 82.7784 218.564H255.605C260.051 218.56 264.314 216.792 267.458 213.648C270.602 210.505 272.37 206.242 272.376 201.796V94.1861C272.37 89.7398 270.602 85.4771 267.458 82.333C264.314 79.189 260.051 77.4203 255.605 77.415H82.7784Z" fill="black"/>
<path d="M92.7413 106.969H84.5613C80.5125 106.969 77.2305 110.251 77.2305 114.3V122.48C77.2305 126.529 80.5125 129.811 84.5613 129.811H92.7413C96.7901 129.811 100.072 126.529 100.072 122.48V114.3C100.072 110.251 96.7901 106.969 92.7413 106.969Z" fill="#ACF9B0"/>
<path d="M132.712 106.969H124.532C120.483 106.969 117.201 110.251 117.201 114.3V122.48C117.201 126.529 120.483 129.811 124.532 129.811H132.712C136.761 129.811 140.043 126.529 140.043 122.48V114.3C140.043 110.251 136.761 106.969 132.712 106.969Z" fill="#ACF9B0"/>
<path d="M173.284 106.969H165.104C161.055 106.969 157.773 110.251 157.773 114.3V122.48C157.773 126.529 161.055 129.811 165.104 129.811H173.284C177.333 129.811 180.615 126.529 180.615 122.48V114.3C180.615 110.251 177.333 106.969 173.284 106.969Z" fill="#ACF9B0"/>
<path d="M211.454 106.969H203.274C199.226 106.969 195.943 110.251 195.943 114.3V122.48C195.943 126.529 199.226 129.811 203.274 129.811H211.454C215.503 129.811 218.785 126.529 218.785 122.48V114.3C218.785 110.251 215.503 106.969 211.454 106.969Z" fill="#ACF9B0"/>
<path d="M249.318 106.969H241.137C237.089 106.969 233.807 110.251 233.807 114.3V122.48C233.807 126.529 237.089 129.811 241.137 129.811H249.318C253.366 129.811 256.648 126.529 256.648 122.48V114.3C256.648 110.251 253.366 106.969 249.318 106.969Z" fill="#ACF9B0"/>
<path d="M93.0421 143.032H84.8621C80.8133 143.032 77.5312 146.314 77.5312 150.363V158.543C77.5312 162.592 80.8133 165.874 84.8621 165.874H93.0421C97.0909 165.874 100.373 162.592 100.373 158.543V150.363C100.373 146.314 97.0909 143.032 93.0421 143.032Z" fill="#ACF9B0"/>
<path d="M133.015 143.032H124.835C120.786 143.032 117.504 146.314 117.504 150.363V158.543C117.504 162.592 120.786 165.874 124.835 165.874H133.015C137.064 165.874 140.346 162.592 140.346 158.543V150.363C140.346 146.314 137.064 143.032 133.015 143.032Z" fill="#ACF9B0"/>
<path d="M173.585 143.032H165.405C161.356 143.032 158.074 146.314 158.074 150.363V158.543C158.074 162.592 161.356 165.874 165.405 165.874H173.585C177.634 165.874 180.916 162.592 180.916 158.543V150.363C180.916 146.314 177.634 143.032 173.585 143.032Z" fill="#ACF9B0"/>
<path d="M211.755 143.032H203.575C199.526 143.032 196.244 146.314 196.244 150.363V158.543C196.244 162.592 199.526 165.874 203.575 165.874H211.755C215.804 165.874 219.086 162.592 219.086 158.543V150.363C219.086 146.314 215.804 143.032 211.755 143.032Z" fill="#ACF9B0"/>
<path d="M249.62 143.032H241.44C237.391 143.032 234.109 146.314 234.109 150.363V158.543C234.109 162.592 237.391 165.874 241.44 165.874H249.62C253.669 165.874 256.951 162.592 256.951 158.543V150.363C256.951 146.314 253.669 143.032 249.62 143.032Z" fill="#ACF9B0"/>
<path d="M93.0421 176.993H84.8621C80.8133 176.993 77.5312 180.275 77.5312 184.324V192.504C77.5312 196.552 80.8133 199.834 84.8621 199.834H93.0421C97.0909 199.834 100.373 196.552 100.373 192.504V184.324C100.373 180.275 97.0909 176.993 93.0421 176.993Z" fill="#ACF9B0"/>
<path d="M133.015 176.993H124.835C120.786 176.993 117.504 180.275 117.504 184.324V192.504C117.504 196.552 120.786 199.834 124.835 199.834H133.015C137.064 199.834 140.346 196.552 140.346 192.504V184.324C140.346 180.275 137.064 176.993 133.015 176.993Z" fill="#ACF9B0"/>
<path d="M173.585 176.993H165.405C161.356 176.993 158.074 180.275 158.074 184.324V192.504C158.074 196.552 161.356 199.834 165.405 199.834H173.585C177.634 199.834 180.916 196.552 180.916 192.504V184.324C180.916 180.275 177.634 176.993 173.585 176.993Z" fill="#ACF9B0"/>
<path d="M211.755 176.993H203.575C199.526 176.993 196.244 180.275 196.244 184.324V192.504C196.244 196.552 199.526 199.834 203.575 199.834H211.755C215.804 199.834 219.086 196.552 219.086 192.504V184.324C219.086 180.275 215.804 176.993 211.755 176.993Z" fill="#ACF9B0"/>
<path d="M249.62 176.993H241.44C237.391 176.993 234.109 180.275 234.109 184.324V192.504C234.109 196.552 237.391 199.834 241.44 199.834H249.62C253.669 199.834 256.951 196.552 256.951 192.504V184.324C256.951 180.275 253.669 176.993 249.62 176.993Z" fill="#ACF9B0"/>
<path d="M90.8805 66.6978H90.797C89.6135 66.6978 88.6543 67.6571 88.6543 68.8405V85.5916C88.6543 86.775 89.6135 87.7344 90.797 87.7344H90.8805C92.064 87.7344 93.0234 86.775 93.0234 85.5916V68.8405C93.0234 67.6571 92.064 66.6978 90.8805 66.6978Z" fill="#382256"/>
<path d="M90.88 88.2358H90.7964C90.0948 88.2349 89.4223 87.9556 88.9265 87.4592C88.4307 86.9628 88.1523 86.2898 88.1523 85.5882V68.8405C88.1532 68.1395 88.432 67.4674 88.9277 66.9717C89.4234 66.476 90.0954 66.1972 90.7964 66.1963H90.88C91.581 66.1972 92.2531 66.476 92.7488 66.9717C93.2445 67.4674 93.5234 68.1395 93.5243 68.8405V85.5882C93.5243 86.2898 93.2459 86.9628 92.7501 87.4592C92.2543 87.9556 91.5816 88.2349 90.88 88.2358ZM90.7964 67.1991C90.3611 67.1991 89.9437 67.3721 89.6359 67.6799C89.3281 67.9877 89.1552 68.4052 89.1552 68.8405V85.5882C89.1552 86.0239 89.328 86.4417 89.6357 86.75C89.9435 87.0584 90.3608 87.2321 90.7964 87.2329H90.88C91.3156 87.2321 91.7332 87.0584 92.0409 86.75C92.3486 86.4417 92.5214 86.0239 92.5214 85.5882V68.8405C92.5214 68.4052 92.3485 67.9877 92.0407 67.6799C91.7329 67.3721 91.3153 67.1991 90.88 67.1991H90.7964Z" fill="#1D1E1B"/>
<path d="M112.73 66.397H112.647C111.463 66.397 110.504 67.3563 110.504 68.5397V85.2908C110.504 86.4742 111.463 87.4336 112.647 87.4336H112.73C113.914 87.4336 114.873 86.4742 114.873 85.2908V68.5397C114.873 67.3563 113.914 66.397 112.73 66.397Z" fill="#382256"/>
<path d="M112.73 87.935H112.649C111.948 87.935 111.275 87.6565 110.779 87.1607C110.282 86.6649 110.003 85.9924 110.002 85.2908V68.5397C110.003 67.8381 110.282 67.1656 110.779 66.6698C111.275 66.174 111.948 65.8955 112.649 65.8955H112.73C113.431 65.8955 114.104 66.174 114.601 66.6698C115.097 67.1656 115.376 67.8381 115.377 68.5397V85.2908C115.376 85.9924 115.097 86.6649 114.601 87.1607C114.104 87.6565 113.431 87.935 112.73 87.935ZM112.649 66.8984C112.214 66.8984 111.796 67.0712 111.488 67.3789C111.179 67.6866 111.006 68.1041 111.005 68.5397V85.2908C111.006 85.7264 111.179 86.1439 111.488 86.4516C111.796 86.7593 112.214 86.9321 112.649 86.9321H112.73C113.165 86.9321 113.583 86.7593 113.891 86.4516C114.2 86.1439 114.374 85.7264 114.374 85.2908V68.5397C114.374 68.1041 114.2 67.6866 113.891 67.3789C113.583 67.0712 113.165 66.8984 112.73 66.8984H112.649Z" fill="#1D1E1B"/>
<path d="M134.582 66.0962H134.498C133.315 66.0962 132.355 67.0556 132.355 68.239V84.9901C132.355 86.1735 133.315 87.1328 134.498 87.1328H134.582C135.765 87.1328 136.725 86.1735 136.725 84.9901V68.239C136.725 67.0556 135.765 66.0962 134.582 66.0962Z" fill="#382256"/>
<path d="M134.581 87.6342H134.498C133.797 87.6333 133.125 87.3545 132.629 86.8588C132.133 86.3631 131.854 85.691 131.854 84.99V68.2389C131.854 67.5379 132.133 66.8659 132.629 66.3702C133.125 65.8745 133.797 65.5956 134.498 65.5947H134.581C135.282 65.5956 135.954 65.8745 136.45 66.3702C136.946 66.8659 137.225 67.5379 137.225 68.2389V84.99C137.225 85.691 136.946 86.3631 136.45 86.8588C135.954 87.3545 135.282 87.6333 134.581 87.6342ZM134.498 66.5976C134.062 66.5976 133.645 66.7705 133.337 67.0783C133.029 67.3861 132.856 67.8036 132.856 68.2389V84.99C132.856 85.4253 133.029 85.8428 133.337 86.1506C133.645 86.4584 134.062 86.6313 134.498 86.6313H134.581C135.016 86.6313 135.434 86.4584 135.742 86.1506C136.05 85.8428 136.223 85.4253 136.223 84.99V68.2389C136.223 67.8036 136.05 67.3861 135.742 67.0783C135.434 66.7705 135.016 66.5976 134.581 66.5976H134.498Z" fill="#1D1E1B"/>
<path d="M156.433 65.7954H156.35C155.166 65.7954 154.207 66.7548 154.207 67.9382V84.6893C154.207 85.8727 155.166 86.8321 156.35 86.8321H156.433C157.617 86.8321 158.576 85.8727 158.576 84.6893V67.9382C158.576 66.7548 157.617 65.7954 156.433 65.7954Z" fill="#382256"/>
<path d="M156.431 87.3335H156.351C155.649 87.3335 154.976 87.0549 154.48 86.5592C153.983 86.0634 153.704 85.3908 153.703 84.6892V67.9382C153.704 67.2366 153.983 66.564 154.48 66.0682C154.976 65.5724 155.649 65.2939 156.351 65.2939H156.431C157.133 65.2939 157.805 65.5724 158.302 66.0682C158.798 66.564 159.078 67.2366 159.078 67.9382V84.6892C159.078 85.3908 158.798 86.0634 158.302 86.5592C157.805 87.0549 157.133 87.3335 156.431 87.3335ZM156.351 66.2968C155.915 66.2968 155.497 66.4696 155.189 66.7773C154.88 67.0851 154.707 67.5025 154.706 67.9382V84.6892C154.707 85.1249 154.88 85.5423 155.189 85.8501C155.497 86.1578 155.915 86.3306 156.351 86.3306H156.431C156.867 86.3306 157.284 86.1578 157.593 85.8501C157.901 85.5423 158.075 85.1249 158.076 84.6892V67.9382C158.075 67.5025 157.901 67.0851 157.593 66.7773C157.284 66.4696 156.867 66.2968 156.431 66.2968H156.351Z" fill="#1D1E1B"/>
<path d="M178.283 66.0962H178.199C177.016 66.0962 176.057 67.0556 176.057 68.239V84.9901C176.057 86.1735 177.016 87.1328 178.199 87.1328H178.283C179.466 87.1328 180.426 86.1735 180.426 84.9901V68.239C180.426 67.0556 179.466 66.0962 178.283 66.0962Z" fill="#382256"/>
<path d="M178.282 87.6342H178.202C177.501 87.6342 176.828 87.3557 176.331 86.8599C175.835 86.3642 175.556 85.6916 175.555 84.99V68.2389C175.556 67.5373 175.835 66.8648 176.331 66.369C176.828 65.8732 177.501 65.5947 178.202 65.5947H178.282C178.983 65.5956 179.655 65.8745 180.151 66.3702C180.647 66.8659 180.926 67.5379 180.927 68.2389V84.99C180.926 85.691 180.647 86.3631 180.151 86.8588C179.655 87.3545 178.983 87.6333 178.282 87.6342ZM178.202 66.5976C177.767 66.5976 177.349 66.7704 177.04 67.0781C176.732 67.3858 176.558 67.8033 176.558 68.2389V84.99C176.558 85.4256 176.732 85.8431 177.04 86.1508C177.349 86.4585 177.767 86.6313 178.202 86.6313H178.282C178.718 86.6313 179.135 86.4584 179.443 86.1506C179.751 85.8428 179.924 85.4253 179.924 84.99V68.2389C179.924 67.8036 179.751 67.3861 179.443 67.0783C179.135 66.7705 178.718 66.5976 178.282 66.5976H178.202Z" fill="#1D1E1B"/>
<path d="M200.136 66.0962H200.053C198.869 66.0962 197.91 67.0556 197.91 68.239V84.9901C197.91 86.1735 198.869 87.1328 200.053 87.1328H200.136C201.32 87.1328 202.279 86.1735 202.279 84.9901V68.239C202.279 67.0556 201.32 66.0962 200.136 66.0962Z" fill="#382256"/>
<path d="M200.136 87.6342H200.052C199.351 87.6333 198.679 87.3545 198.184 86.8588C197.688 86.3631 197.409 85.691 197.408 84.99V68.2389C197.409 67.5379 197.688 66.8659 198.184 66.3702C198.679 65.8745 199.351 65.5956 200.052 65.5947H200.136C200.837 65.5956 201.509 65.8745 202.005 66.3702C202.5 66.8659 202.779 67.5379 202.78 68.2389V84.99C202.779 85.691 202.5 86.3631 202.005 86.8588C201.509 87.3545 200.837 87.6333 200.136 87.6342ZM200.052 66.5976C199.617 66.5976 199.2 66.7705 198.892 67.0783C198.584 67.3861 198.411 67.8036 198.411 68.2389V84.99C198.411 85.4253 198.584 85.8428 198.892 86.1506C199.2 86.4584 199.617 86.6313 200.052 86.6313H200.136C200.571 86.6313 200.989 86.4584 201.297 86.1506C201.604 85.8428 201.777 85.4253 201.777 84.99V68.2389C201.777 67.8036 201.604 67.3861 201.297 67.0783C200.989 66.7705 200.571 66.5976 200.136 66.5976H200.052Z" fill="#1D1E1B"/>
<path d="M221.984 65.7954H221.901C220.717 65.7954 219.758 66.7548 219.758 67.9382V84.6893C219.758 85.8727 220.717 86.8321 221.901 86.8321H221.984C223.168 86.8321 224.127 85.8727 224.127 84.6893V67.9382C224.127 66.7548 223.168 65.7954 221.984 65.7954Z" fill="#382256"/>
<path d="M221.984 87.3335H221.903C221.202 87.3335 220.529 87.0549 220.032 86.5592C219.536 86.0634 219.257 85.3908 219.256 84.6892V67.9382C219.257 67.2366 219.536 66.564 220.032 66.0682C220.529 65.5724 221.202 65.2939 221.903 65.2939H221.984C222.685 65.2939 223.358 65.5724 223.855 66.0682C224.351 66.564 224.63 67.2366 224.631 67.9382V84.6892C224.63 85.3908 224.351 86.0634 223.855 86.5592C223.358 87.0549 222.685 87.3335 221.984 87.3335ZM221.903 66.2968C221.468 66.2968 221.05 66.4696 220.742 66.7773C220.434 67.0851 220.26 67.5025 220.259 67.9382V84.6892C220.26 85.1249 220.434 85.5423 220.742 85.8501C221.05 86.1578 221.468 86.3306 221.903 86.3306H221.984C222.419 86.3306 222.837 86.1578 223.146 85.8501C223.454 85.5423 223.627 85.1249 223.628 84.6892V67.9382C223.627 67.5025 223.454 67.0851 223.146 66.7773C222.837 66.4696 222.419 66.2968 221.984 66.2968H221.903Z" fill="#1D1E1B"/>
<path d="M243.836 66.0962H243.752C242.569 66.0962 241.609 67.0556 241.609 68.239V84.9901C241.609 86.1735 242.569 87.1328 243.752 87.1328H243.836C245.019 87.1328 245.979 86.1735 245.979 84.9901V68.239C245.979 67.0556 245.019 66.0962 243.836 66.0962Z" fill="#382256"/>
<path d="M243.835 87.6342H243.752C243.051 87.6333 242.379 87.3545 241.883 86.8588C241.387 86.3631 241.108 85.691 241.107 84.99V68.2389C241.108 67.5379 241.387 66.8659 241.883 66.3702C242.379 65.8745 243.051 65.5956 243.752 65.5947H243.835C244.536 65.5956 245.208 65.8745 245.704 66.3702C246.2 66.8659 246.479 67.5379 246.48 68.2389V84.99C246.479 85.691 246.2 86.3631 245.704 86.8588C245.208 87.3545 244.536 87.6333 243.835 87.6342ZM243.752 66.5976C243.316 66.5976 242.899 66.7705 242.591 67.0783C242.283 67.3861 242.11 67.8036 242.11 68.2389V84.99C242.11 85.4253 242.283 85.8428 242.591 86.1506C242.899 86.4584 243.316 86.6313 243.752 86.6313H243.835C244.271 86.6313 244.688 86.4584 244.996 86.1506C245.304 85.8428 245.477 85.4253 245.477 84.99V68.2389C245.477 67.8036 245.304 67.3861 244.996 67.0783C244.688 66.7705 244.271 66.5976 243.835 66.5976H243.752Z" fill="#1D1E1B"/>
<path d="M54.0029 95.3799H53V165.58H54.0029V95.3799Z" fill="#1D1D1B"/>
<path d="M247.219 37.4111C245.431 33.0654 243.091 29.2813 240.076 26.2393C237.746 23.9022 234.672 22.4534 231.386 22.1439C228.1 21.8344 224.81 22.6836 222.084 24.5444C216.248 28.5224 211.855 34.1184 208.713 41.105C215.93 44.508 220.818 46.7243 224.538 54.7338C229.934 44.508 236.856 33.5133 247.219 37.4111Z" fill="white"/>
<path d="M224.542 55.2354C224.448 55.2334 224.357 55.2051 224.278 55.1537C224.2 55.1023 224.137 55.0298 224.098 54.9446C220.504 47.2092 215.851 45.0163 208.804 41.6968L208.513 41.5597C208.392 41.5031 208.299 41.401 208.253 41.2758C208.208 41.1505 208.213 41.0122 208.269 40.8912C211.512 33.6806 216.068 28.0378 221.814 24.1233C224.636 22.193 228.044 21.3119 231.447 21.6331C234.851 21.9543 238.034 23.4575 240.444 25.8817C243.393 28.8568 245.83 32.6677 247.695 37.214C247.735 37.3049 247.747 37.4055 247.729 37.5032C247.712 37.601 247.666 37.6913 247.598 37.7629C247.529 37.8345 247.44 37.884 247.344 37.9054C247.247 37.9267 247.145 37.9187 247.053 37.8826C237.482 34.279 230.797 43.9666 224.99 54.9713C224.946 55.0518 224.882 55.1189 224.803 55.1655C224.724 55.212 224.634 55.2362 224.542 55.2354ZM209.379 40.8611C216.014 43.99 220.892 46.3333 224.566 53.6275C230.249 42.9838 236.871 33.8444 246.324 36.5789C244.753 32.8728 242.515 29.4863 239.722 26.587C237.477 24.3295 234.511 22.9298 231.341 22.6312C228.171 22.3326 224.997 23.1538 222.369 24.9524C216.897 28.6897 212.528 34.0383 209.379 40.8611Z" fill="#1D1D1B"/>
<path d="M224.822 23.0938C224.822 23.0938 230.585 23.2509 232.22 27.2791C232.22 27.2791 236.201 22.7561 239.384 25.5775C239.37 25.5775 233.393 19.664 224.822 23.0938Z" fill="#4BD657"/>
<path d="M232.046 28.2185L231.742 27.4697C230.251 23.7925 224.848 23.5953 224.795 23.5953L222.385 23.5251L224.621 22.6292C233.413 19.0991 239.664 25.1597 239.724 25.2199L239.056 25.952C238.763 25.6752 238.416 25.4619 238.037 25.3256C237.658 25.1892 237.255 25.1328 236.853 25.1597C234.67 25.2934 232.621 27.59 232.597 27.6134L232.046 28.2185ZM227.031 22.9033C228.786 23.3111 231.143 24.2404 232.38 26.42C233.172 25.6745 234.784 24.3775 236.589 24.1769C233.68 22.5393 230.253 22.0832 227.018 22.9033H227.031Z" fill="black"/>
<path d="M224.125 27.9707C224.125 27.9707 230.443 29.4048 232.148 35.1445L224.125 27.9707Z" fill="white"/>
<path d="M232.177 35.6494C232.069 35.6496 231.964 35.6149 231.877 35.5505C231.79 35.486 231.726 35.3952 231.695 35.2917C230.081 29.9064 224.087 28.4723 224.027 28.4589C223.963 28.4442 223.902 28.417 223.848 28.3788C223.794 28.3406 223.749 28.2922 223.714 28.2363C223.679 28.1804 223.655 28.1182 223.644 28.0531C223.633 27.9881 223.635 27.9215 223.649 27.8572C223.664 27.7929 223.691 27.7321 223.729 27.6783C223.768 27.6245 223.816 27.5788 223.872 27.5437C223.928 27.5086 223.99 27.4849 224.055 27.4739C224.12 27.4628 224.187 27.4647 224.251 27.4794C224.518 27.543 230.87 29.0506 232.655 35.0009C232.693 35.1281 232.68 35.2654 232.617 35.3826C232.555 35.4999 232.448 35.5874 232.321 35.626C232.274 35.64 232.226 35.6479 232.177 35.6494Z" fill="#1D1D1B"/>
<path d="M219.246 33.4233C219.246 33.4233 225.848 33.9983 226.707 40.0255L219.246 33.4233Z" fill="white"/>
<path d="M226.707 40.527C226.587 40.5265 226.47 40.4827 226.38 40.4035C226.289 40.3243 226.23 40.2151 226.213 40.0957C225.417 34.5432 219.454 33.9449 219.193 33.9248C219.127 33.9189 219.063 33.9 219.004 33.8694C218.946 33.8387 218.894 33.7968 218.851 33.746C218.809 33.6953 218.777 33.6367 218.757 33.5735C218.738 33.5104 218.73 33.4441 218.736 33.3782C218.742 33.3124 218.761 33.2484 218.792 33.1898C218.823 33.1312 218.865 33.0793 218.915 33.0369C218.966 32.9945 219.025 32.9626 219.088 32.9428C219.151 32.9231 219.217 32.916 219.283 32.9219C219.353 32.9219 226.303 33.5905 227.199 39.942C227.217 40.074 227.182 40.2078 227.102 40.3143C227.022 40.4207 226.903 40.4912 226.771 40.5102L226.707 40.527Z" fill="#1D1D1B"/>
<path d="M209.486 30.7688C209.416 30.7692 209.348 30.7543 209.285 30.7253C209.224 30.6989 209.168 30.6605 209.122 30.6123C209.076 30.5642 209.04 30.5074 209.016 30.4451C208.992 30.3829 208.981 30.3164 208.983 30.2497C208.985 30.1831 209 30.1174 209.028 30.0567C209.081 29.9364 214.443 18.0224 226.628 15.9866C226.761 15.9649 226.897 15.9969 227.006 16.0756C227.116 16.1543 227.189 16.2732 227.211 16.4062C227.233 16.5391 227.201 16.6753 227.122 16.7847C227.044 16.8941 226.925 16.9678 226.792 16.9895C215.152 18.9283 209.997 30.3609 209.944 30.4746C209.904 30.5628 209.84 30.6375 209.758 30.6898C209.677 30.742 209.582 30.7694 209.486 30.7688Z" fill="#1D1D1B"/>
<path d="M289.676 120.485C292.534 126.836 296.178 132.302 300.781 136.651C304.338 139.992 308.952 141.984 313.824 142.283C318.695 142.581 323.518 141.167 327.457 138.286C335.891 132.118 342.112 123.631 346.414 113.151C335.577 108.471 328.249 105.435 322.346 93.7622C314.895 109.156 305.173 125.747 289.676 120.485Z" fill="white"/>
<path d="M315.082 142.832C309.635 142.839 304.392 140.758 300.434 137.015C295.951 132.783 292.18 127.291 289.215 120.692C289.176 120.603 289.163 120.503 289.178 120.407C289.194 120.31 289.237 120.22 289.302 120.147C289.368 120.075 289.453 120.024 289.547 119.999C289.642 119.975 289.741 119.979 289.833 120.01C304.335 124.934 313.815 110.206 321.902 93.5548C321.943 93.4709 322.006 93.4001 322.086 93.3505C322.165 93.3009 322.256 93.2744 322.35 93.2739C322.442 93.2745 322.533 93.3003 322.612 93.3486C322.691 93.397 322.755 93.4659 322.798 93.5481C328.527 104.887 335.544 107.922 346.168 112.502L346.605 112.693C346.726 112.744 346.821 112.841 346.871 112.962C346.921 113.084 346.922 113.22 346.873 113.341C342.447 124.119 336.012 132.646 327.745 138.69C324.071 141.381 319.636 142.832 315.082 142.832ZM290.612 121.287C293.447 127.304 296.981 132.352 301.136 136.277C304.605 139.542 309.109 141.489 313.865 141.781C318.62 142.072 323.328 140.689 327.17 137.871C335.17 132.021 341.427 123.794 345.773 113.408C335.614 109.022 328.203 105.82 322.373 94.8785C314.383 111.172 304.967 125.335 290.612 121.287Z" fill="#1D1D1B"/>
<path d="M323.512 140.559C323.512 140.559 314.984 140.609 312.37 134.732C312.37 134.732 306.707 141.612 301.863 137.597C301.863 137.597 310.989 146.071 323.512 140.559Z" fill="#4BD657"/>
<path d="M315.045 142.909C310.104 142.861 305.33 141.115 301.523 137.965L302.192 137.213C302.664 137.626 303.216 137.939 303.813 138.131C304.41 138.324 305.04 138.392 305.665 138.332C308.981 138.018 311.963 134.448 311.993 134.411L312.508 133.786L312.842 134.528C315.296 140.044 323.449 140.061 323.523 140.057H325.943L323.727 141.033C320.996 142.26 318.038 142.899 315.045 142.909ZM305.331 139.355C307.736 140.708 310.397 141.543 313.143 141.806C315.89 142.069 318.662 141.755 321.28 140.883C318.625 140.502 314.31 139.312 312.254 135.615C311.204 136.714 308.66 139.054 305.755 139.329C305.611 139.339 305.471 139.339 305.331 139.355Z" fill="black"/>
<path d="M324.283 133.321C324.283 133.321 314.879 131.506 312.055 123.105L324.283 133.321Z" fill="white"/>
<path d="M324.284 133.819C324.253 133.823 324.221 133.823 324.19 133.819C323.792 133.746 314.465 131.854 311.577 123.273C311.533 123.146 311.541 123.007 311.599 122.887C311.657 122.766 311.76 122.673 311.887 122.629C312.013 122.585 312.152 122.592 312.272 122.65C312.393 122.708 312.486 122.812 312.53 122.938C315.231 130.961 324.287 132.806 324.381 132.823C324.514 132.836 324.636 132.901 324.721 133.004C324.806 133.107 324.846 133.24 324.833 133.373C324.821 133.506 324.755 133.628 324.652 133.713C324.549 133.798 324.417 133.839 324.284 133.826V133.819Z" fill="#1D1D1B"/>
<path d="M331.233 125.017C331.233 125.017 321.445 124.493 319.867 115.621L331.233 125.017Z" fill="white"/>
<path d="M331.233 125.519H331.207C331.103 125.519 321.001 124.85 319.383 115.711C319.359 115.578 319.39 115.441 319.467 115.331C319.544 115.22 319.663 115.145 319.796 115.121C319.929 115.098 320.065 115.128 320.176 115.205C320.287 115.283 320.362 115.401 320.386 115.534C321.863 123.891 330.889 124.496 331.273 124.516C331.406 124.52 331.533 124.576 331.624 124.672C331.716 124.769 331.765 124.898 331.761 125.031C331.758 125.164 331.702 125.29 331.605 125.382C331.509 125.473 331.38 125.523 331.247 125.519H331.233Z" fill="#1D1D1B"/>
<path d="M303.071 112.452C302.96 112.452 302.853 112.415 302.765 112.348C302.677 112.281 302.614 112.187 302.585 112.08C302.557 111.973 302.564 111.86 302.607 111.758C302.649 111.656 302.724 111.571 302.82 111.516C312.962 105.686 315.426 93.7984 315.449 93.6915C315.476 93.5609 315.553 93.4462 315.664 93.3724C315.775 93.2985 315.91 93.2714 316.041 93.297C316.166 93.3259 316.276 93.4023 316.346 93.5101C316.416 93.6179 316.443 93.7488 316.419 93.8753C316.395 93.999 313.851 106.311 303.308 112.375C303.236 112.419 303.155 112.445 303.071 112.452Z" fill="#1D1D1B"/>
<path d="M105.144 223.258C106.397 223.038 107.234 221.843 107.014 220.588C106.794 219.333 105.6 218.495 104.347 218.714C103.094 218.934 102.257 220.129 102.477 221.384C102.697 222.639 103.891 223.478 105.144 223.258Z" fill="#51CEF4"/>
<path d="M240.395 148.758C240.395 148.758 244.971 161.207 253.205 155.978C261.438 150.75 274.823 143.376 283.879 155.253C292.935 167.13 297.919 175.872 307.947 172.743C317.976 169.614 339.167 196.591 314.533 212.717C274.161 239.152 219.652 167.902 219.652 167.902L225.67 158.633L240.395 148.758Z" fill="#382256"/>
<path d="M240.394 148.758C240.394 148.758 243.52 157.262 249.253 157.262C250.666 157.223 252.038 156.777 253.204 155.979C258.178 152.816 265.044 148.872 271.693 148.872C276.039 148.872 280.298 150.543 283.878 155.253C291.674 165.479 296.464 173.382 304.046 173.382C305.374 173.368 306.693 173.153 307.957 172.743C308.511 172.572 309.088 172.488 309.668 172.492C320.135 172.492 337.848 197.46 314.542 212.717C308.698 216.593 301.832 218.641 294.819 218.601C258.449 218.601 219.665 167.903 219.665 167.903L225.682 158.633L240.391 148.758H240.394ZM240.889 147.217L239.832 147.926L225.124 157.8L224.953 157.914L224.843 158.088L218.826 167.358L218.441 167.953L218.873 168.514C226.164 177.672 234.215 186.198 242.941 194C251.268 201.411 259.452 207.318 267.261 211.56C277.085 216.909 286.358 219.603 294.826 219.603C302.027 219.633 309.076 217.526 315.08 213.549C320.472 210.023 324.089 205.754 325.834 200.867C327.322 196.708 327.392 192.112 326.042 187.582C324.736 183.273 322.363 179.363 319.142 176.216C316.036 173.208 312.58 171.476 309.658 171.476C308.979 171.474 308.303 171.573 307.653 171.77C306.487 172.152 305.269 172.353 304.042 172.365C297.932 172.365 293.569 166.522 287.528 158.432C286.616 157.205 285.67 155.942 284.67 154.631C281.244 150.135 276.875 147.855 271.69 147.855C265.004 147.855 258.318 151.533 252.662 155.119C251.655 155.812 250.471 156.202 249.249 156.246C244.288 156.246 241.36 148.477 241.33 148.397L240.889 147.204V147.217Z" fill="#1D1E1B"/>
<path d="M225.668 158.633L240.377 148.758C240.377 148.758 242.633 154.896 246.825 156.741C245.311 162.046 241.443 165.432 235.837 167.418C235.837 167.418 255.41 176.267 263.81 185.419C269.46 191.574 292.315 219.851 281.069 216.401C271.078 213.342 261.296 207.409 252.578 200.713C241.313 185.7 228.319 168.371 223.525 161.916L225.668 158.633Z" fill="#050505"/>
<path d="M221.314 177.949C221.314 177.949 209.46 219.818 170.195 246.16C140.631 266 141.637 262.737 127.871 255.831C115.837 249.783 95.211 221.63 97.0797 211.798C98.9484 201.967 106.079 201.486 106.079 201.486L105.992 193.894L131.732 187.954L132.912 192.938C132.912 192.938 143.121 194.365 144.164 203.582C145.207 212.798 148.764 225.013 146.781 229.99C146.781 229.99 155.175 188.596 209.962 170.918" fill="#07ACEE"/>
<path d="M141.222 261.687C137.9 261.687 135.189 260.243 131.251 258.154C130.181 257.586 128.971 256.941 127.647 256.279C121.964 253.424 113.794 245.277 106.848 235.526C99.5403 225.26 95.7027 216.355 96.5885 211.705C98.2232 203.094 103.893 201.379 105.574 201.058L105.484 193.493L132.093 187.349L133.31 192.5C135.139 192.864 143.673 195.011 144.649 203.532C144.983 206.447 145.568 209.716 146.143 212.892C146.925 217.214 147.681 221.389 147.835 224.792C150.205 218.399 153.424 212.353 157.405 206.818C162.777 199.336 169.271 192.73 176.66 187.232C186.097 180.158 197.242 174.529 209.791 170.467L210.099 171.423C181.955 180.503 166.371 195.977 158.251 207.356C151.529 216.779 148.674 225.03 147.691 228.446C147.605 229.046 147.451 229.635 147.233 230.201L146.277 229.917C146.277 229.893 146.407 229.298 146.708 228.245C147.25 224.635 146.19 218.768 145.157 213.069C144.579 209.893 143.984 206.607 143.653 203.655C142.667 194.94 133.23 193.51 132.828 193.453L132.494 193.406L131.354 188.569L106.487 194.292L106.577 201.954L106.102 201.987C105.828 202.007 99.3296 202.582 97.5612 211.892C96.7422 216.214 100.61 225.046 107.657 234.958C114.513 244.585 122.532 252.608 128.085 255.396C129.422 256.065 130.636 256.71 131.709 257.281C141.881 262.684 143.442 263.513 169.904 245.759C190.098 232.21 202.862 214.466 210.019 201.967C217.774 188.412 220.793 177.929 220.823 177.825L221.786 178.099C221.755 178.203 218.717 188.796 210.904 202.438C203.694 215.038 190.827 232.929 170.456 246.591C153.731 257.813 146.661 261.687 141.222 261.687Z" fill="#1D1D1B"/>
<path d="M140.584 260.684H144.706C147.637 259.909 151.264 258.154 156.389 255.072L168.46 216.692C149.202 229.529 140.584 260.684 140.584 260.684Z" fill="#0598C6"/>
<path d="M132.303 193.466C132.303 193.466 128.088 205.808 106.275 201.937L106.369 194.449L130.979 188.696L132.303 193.466Z" fill="#0598C6"/>
<path d="M170.445 214.098C145.905 244.726 148.486 290.51 148.486 290.51L272.714 291.847C272.714 291.847 271.58 170.22 221.414 172.349" fill="#07ACEE"/>
<path d="M272.713 292.348L148.486 291.011C148.358 291.01 148.236 290.961 148.143 290.874C148.051 290.786 147.995 290.667 147.987 290.54C147.987 290.426 147.369 278.863 149.773 263.71C151.992 249.713 157.314 229.693 170.057 213.784C170.14 213.68 170.261 213.614 170.394 213.6C170.526 213.585 170.659 213.624 170.762 213.707C170.866 213.791 170.932 213.912 170.947 214.044C170.961 214.176 170.922 214.309 170.839 214.413C158.237 230.141 152.968 249.974 150.765 263.843C149.367 272.494 148.766 281.254 148.97 290.015L272.208 291.352C271.82 276.404 270.491 261.495 268.227 246.715C264.77 224.612 257.53 195.315 242.754 181.268C236.523 175.355 229.356 172.526 221.437 172.861C221.304 172.865 221.175 172.817 221.077 172.727C220.98 172.637 220.921 172.512 220.915 172.379C220.912 172.314 220.921 172.248 220.944 172.186C220.966 172.124 221 172.067 221.045 172.018C221.089 171.969 221.143 171.93 221.203 171.903C221.263 171.875 221.328 171.86 221.393 171.858C229.587 171.524 237.011 174.432 243.456 180.549C250.092 186.851 255.785 196.635 260.378 209.632C264.055 219.995 267.017 232.427 269.23 246.578C271.54 261.569 272.88 276.693 273.241 291.857C273.242 291.923 273.23 291.989 273.205 292.05C273.18 292.111 273.143 292.167 273.097 292.214C273.05 292.261 272.994 292.299 272.933 292.324C272.872 292.349 272.806 292.362 272.74 292.361L272.713 292.348Z" fill="#1D1D1B"/>
<path d="M233.014 173.268C233.014 173.268 282.391 194.916 292.484 241.111C300.082 275.894 297.31 276.322 285.831 286.591C275.802 295.58 242.136 301.855 233.682 296.506C225.228 291.157 227.398 284.348 227.398 284.348L220.301 281.644L224.222 255.529L229.293 256.265C229.293 256.265 234.368 247.289 243.333 249.706C252.299 252.123 264.955 253.293 268.866 256.967" fill="#07ACEE"/>
<path d="M244.188 298.98C239.682 298.98 235.74 298.405 233.407 296.931C225.999 292.251 226.484 286.344 226.802 284.662L219.738 281.968L223.793 254.961L229.031 255.72C230.034 254.152 235.176 246.988 243.446 249.221C246.281 249.984 249.54 250.635 252.689 251.261C259.752 252.668 266.422 253.998 269.193 256.609L268.504 257.338C265.943 254.931 259.107 253.57 252.495 252.253C249.326 251.622 246.05 250.97 243.185 250.194C234.701 247.908 229.77 256.432 229.72 256.516L229.553 256.816L224.636 256.104L220.851 281.326L228.012 284.057L227.865 284.509C227.784 284.773 225.933 291.027 233.942 296.088C237.71 298.472 247.571 298.609 259.064 296.439C270.8 294.223 280.929 290.308 285.496 286.224L287.043 284.846C297.072 275.954 299.171 274.102 291.991 241.225C286.813 217.514 271.011 200.442 258.666 190.28C245.268 179.249 232.926 173.79 232.812 173.733L233.213 172.817C233.337 172.87 245.779 178.383 259.288 189.488C267.22 196.01 273.969 203.16 279.345 210.738C286.071 220.225 290.657 230.408 292.974 241.011C296.801 258.525 297.841 266.715 296.958 272.307C296.019 278.241 292.89 280.999 287.712 285.598L286.168 286.972C280.555 291.987 268.584 295.664 259.254 297.425C254.434 298.325 248.988 298.977 244.188 298.98Z" fill="#1D1D1B"/>
<path d="M229.556 257.007C229.556 257.007 239.485 265.458 227.885 284.325L220.955 281.49L224.632 256.486L229.556 257.007Z" fill="#0598C6"/>
<path d="M212.588 168.665C210.237 169.722 208.349 171.595 207.272 173.937C205.223 178.44 207.941 185.637 218.638 181.96C218.638 181.96 222.406 190.257 232.678 186.305C241.37 182.962 240.701 177.657 234.092 174.585C228.366 171.924 212.588 168.665 212.588 168.665Z" fill="white"/>
<path d="M227.478 187.87C221.906 187.87 219.148 183.858 218.399 182.568C212.047 184.634 209.015 182.685 207.772 181.314C206.017 179.382 205.632 176.334 206.816 173.729C207.942 171.264 209.931 169.296 212.408 168.197L212.549 168.144L212.692 168.174C213.338 168.307 228.591 171.476 234.307 174.131C237.767 175.742 239.706 177.998 239.626 180.325C239.542 182.839 237.139 185.129 232.86 186.773C231.149 187.467 229.324 187.838 227.478 187.87ZM218.907 181.338L219.097 181.752C219.241 182.087 222.808 189.565 232.499 185.837C236.377 184.346 238.553 182.377 238.623 180.292C238.69 178.386 236.951 176.471 233.883 175.043C228.571 172.573 214.287 169.531 212.642 169.187C210.479 170.218 208.743 171.971 207.732 174.144C206.709 176.39 207.023 179.001 208.514 180.643C210.419 182.739 213.956 183.039 218.476 181.485L218.907 181.338Z" fill="#1D1E1B"/>
<path d="M126.015 209.621C127.268 209.401 128.105 208.206 127.885 206.951C127.665 205.696 126.471 204.857 125.218 205.077C123.965 205.297 123.128 206.492 123.348 207.747C123.568 209.002 124.762 209.841 126.015 209.621Z" fill="#51CEF4"/>
<path d="M134.722 249.553C135.975 249.333 136.812 248.138 136.592 246.883C136.372 245.628 135.178 244.789 133.925 245.009C132.672 245.229 131.835 246.424 132.055 247.679C132.275 248.934 133.469 249.773 134.722 249.553Z" fill="#51CEF4"/>
<path d="M126.04 229.252C127.293 229.032 128.13 227.837 127.91 226.582C127.69 225.327 126.496 224.488 125.243 224.708C123.99 224.928 123.153 226.123 123.373 227.378C123.593 228.633 124.787 229.472 126.04 229.252Z" fill="#51CEF4"/>
<path d="M288.189 261.025C288.444 259.779 287.64 258.562 286.392 258.306C285.144 258.05 283.925 258.852 283.67 260.099C283.414 261.345 284.219 262.562 285.467 262.818C286.714 263.074 287.933 262.271 288.189 261.025Z" fill="#51CEF4"/>
<path d="M249.289 207.686C249.384 206.417 248.43 205.312 247.16 205.217C245.89 205.123 244.783 206.074 244.689 207.343C244.594 208.611 245.547 209.716 246.818 209.811C248.088 209.906 249.195 208.954 249.289 207.686Z" fill="#51CEF4"/>
<path d="M247.396 293.259C247.651 292.012 246.847 290.795 245.599 290.539C244.351 290.283 243.132 291.086 242.877 292.332C242.621 293.578 243.426 294.795 244.674 295.051C245.921 295.307 247.14 294.505 247.396 293.259Z" fill="#51CEF4"/>
<path d="M268.38 275.698C268.636 274.452 267.831 273.234 266.584 272.978C265.336 272.722 264.117 273.525 263.861 274.771C263.606 276.017 264.41 277.235 265.658 277.491C266.906 277.747 268.125 276.944 268.38 275.698Z" fill="#51CEF4"/>
<path d="M273.891 227.811C275.163 227.811 276.194 226.778 276.194 225.504C276.194 224.23 275.163 223.198 273.891 223.198C272.619 223.198 271.588 224.23 271.588 225.504C271.588 226.778 272.619 227.811 273.891 227.811Z" fill="#51CEF4"/>
<path d="M161.577 275.276C162.849 275.276 163.88 274.244 163.88 272.97C163.88 271.696 162.849 270.663 161.577 270.663C160.305 270.663 159.273 271.696 159.273 272.97C159.273 274.244 160.305 275.276 161.577 275.276Z" fill="#51CEF4"/>
<path d="M224.59 227.954C224.951 227.617 225.195 227.171 225.284 226.685C225.374 226.198 225.304 225.695 225.085 225.251C224.867 224.807 224.512 224.445 224.072 224.218C223.632 223.991 223.131 223.912 222.642 223.992C222.154 224.072 221.704 224.308 221.36 224.663C221.015 225.018 220.794 225.475 220.729 225.966C220.664 226.456 220.758 226.955 220.999 227.388C221.239 227.82 221.612 228.164 222.063 228.369C222.478 228.556 222.939 228.617 223.389 228.543C223.838 228.47 224.256 228.265 224.59 227.954Z" fill="#51CEF4"/>
<path d="M196.252 197.511C197.524 197.511 198.556 196.478 198.556 195.205C198.556 193.931 197.524 192.898 196.252 192.898C194.98 192.898 193.949 193.931 193.949 195.205C193.949 196.478 194.98 197.511 196.252 197.511Z" fill="#51CEF4"/>
<path d="M242.374 268.841C242.63 267.595 241.826 266.378 240.578 266.122C239.33 265.866 238.111 266.668 237.855 267.914C237.6 269.161 238.404 270.378 239.652 270.634C240.9 270.89 242.119 270.087 242.374 268.841Z" fill="#51CEF4"/>
<path d="M98.5251 198.41C107.273 198.932 115.47 198.046 122.991 195.452C128.781 193.434 133.683 189.456 136.851 184.207C140.018 178.957 141.251 172.766 140.338 166.703C138.379 153.72 132.545 141.849 123.376 130.961C111.86 140.305 104.208 146.703 87.791 146.482C100.574 163.742 113.397 184.22 98.5251 198.41Z" fill="white"/>
<path d="M103.181 199.052C101.643 199.052 100.083 199.005 98.5008 198.912C98.4029 198.904 98.3094 198.869 98.2311 198.809C98.1529 198.75 98.0933 198.67 98.0596 198.577C98.0264 198.486 98.0203 198.387 98.0423 198.292C98.0642 198.197 98.1133 198.11 98.1833 198.043C112.177 184.691 101.269 165.503 87.3958 146.76C87.34 146.685 87.3062 146.595 87.2986 146.502C87.2909 146.409 87.3095 146.315 87.3523 146.232C87.3934 146.148 87.458 146.078 87.538 146.03C87.6181 145.982 87.7103 145.958 87.8036 145.961C103.809 146.175 111.287 140.111 122.6 130.918L123.068 130.54C123.17 130.458 123.3 130.418 123.431 130.431C123.561 130.443 123.682 130.507 123.766 130.607C133.18 141.789 138.923 153.897 140.838 166.6C141.783 172.781 140.532 179.098 137.303 184.453C134.073 189.808 129.07 193.862 123.161 195.91C117.131 198.002 110.428 199.052 103.181 199.052ZM99.6775 197.969C108.168 198.357 115.951 197.351 122.827 194.961C128.514 192.989 133.331 189.087 136.44 183.933C139.549 178.778 140.752 172.697 139.842 166.747C137.973 154.378 132.414 142.558 123.308 131.627L123.228 131.693C111.983 140.819 104.475 146.914 88.7965 146.954C102.379 165.463 112.808 184.33 99.6775 197.969Z" fill="#1D1D1B"/>
<path d="M140.584 172.433C140.584 172.433 135.677 181.956 127.607 181.458C127.607 181.458 131.976 191.771 124.686 194.83C124.672 194.803 139.421 189.571 140.584 172.433Z" fill="#4BD657"/>
<path d="M124.84 195.278L124.479 194.342C125.23 194.05 125.914 193.609 126.489 193.043C127.064 192.478 127.517 191.802 127.821 191.056C129.423 187.125 127.153 181.696 127.136 181.626L126.822 180.88L127.631 180.93C135.263 181.412 140.083 172.279 140.13 172.185L141.236 170.042L141.076 172.449C139.916 189.735 124.99 195.224 124.84 195.278ZM128.33 181.953C128.921 183.625 130.158 187.97 128.747 191.43C128.62 191.747 128.469 192.055 128.296 192.349C132.364 189.745 138.438 184.327 139.842 174.565C137.98 177.28 133.986 181.9 128.33 181.953Z" fill="black"/>
<path d="M135.987 161.482C135.774 161.481 135.569 161.399 135.414 161.253C135.259 161.106 135.166 160.906 135.154 160.693C134.743 153.242 123.979 138.095 123.869 137.945C123.805 137.855 123.759 137.754 123.735 137.647C123.71 137.54 123.706 137.43 123.724 137.321C123.742 137.213 123.781 137.109 123.839 137.016C123.898 136.923 123.973 136.842 124.063 136.778C124.152 136.714 124.253 136.669 124.36 136.644C124.467 136.619 124.578 136.615 124.686 136.633C124.795 136.651 124.898 136.691 124.992 136.749C125.085 136.807 125.165 136.883 125.229 136.972C125.684 137.607 136.385 152.667 136.822 160.599C136.829 160.709 136.813 160.819 136.777 160.923C136.741 161.027 136.685 161.122 136.611 161.204C136.538 161.286 136.449 161.353 136.35 161.401C136.251 161.448 136.143 161.476 136.034 161.482H135.987Z" fill="white"/>
<path d="M67.541 240.961C67.4238 240.961 67.3104 240.921 67.2202 240.846C67.1301 240.771 67.069 240.667 67.0475 240.552C67.0261 240.437 67.0457 240.318 67.1029 240.215C67.16 240.113 67.2511 240.034 67.3604 239.992C90.7037 230.896 101.735 217.668 106.88 208.171C112.439 197.912 112.502 189.729 112.502 189.648C112.502 189.515 112.555 189.388 112.649 189.294C112.743 189.2 112.871 189.147 113.004 189.147C113.137 189.147 113.264 189.2 113.358 189.294C113.452 189.388 113.505 189.515 113.505 189.648C113.505 189.983 113.438 198.169 107.762 208.649C102.537 218.293 91.3489 231.715 67.7215 240.928C67.664 240.951 67.6027 240.962 67.541 240.961Z" fill="#1D1E1B"/>
<path d="M96.9577 239.624C96.8492 239.624 96.7439 239.588 96.6574 239.522C96.5709 239.457 96.508 239.365 96.4782 239.26C96.4484 239.156 96.4534 239.045 96.4922 238.944C96.5311 238.842 96.6017 238.756 96.6936 238.698C110.697 229.987 116.32 217.658 118.569 208.85C121.013 199.279 120.124 191.668 120.114 191.594C120.106 191.529 120.111 191.462 120.129 191.399C120.146 191.335 120.176 191.276 120.217 191.224C120.258 191.172 120.308 191.129 120.366 191.097C120.423 191.064 120.486 191.044 120.552 191.036C120.617 191.027 120.683 191.032 120.747 191.049C120.81 191.067 120.87 191.096 120.921 191.137C120.973 191.177 121.017 191.227 121.049 191.285C121.081 191.342 121.102 191.405 121.11 191.47C121.11 191.547 122.033 199.313 119.549 209.057C117.259 218.06 111.526 230.655 97.2218 239.547C97.1433 239.599 97.0514 239.625 96.9577 239.624Z" fill="#1D1E1B"/>
<path d="M101.806 193.493C101.806 193.493 92.3291 196.167 87.5421 185.971C82.7551 175.775 81.4982 164.871 86.8034 157.965C92.1085 151.058 98.8576 150.236 103.424 152.048C107.99 153.86 109.083 158.663 105.674 163.908C105.674 163.908 112.894 168.548 106.342 177.42C109.317 178.283 112.326 186.974 103.802 188.813C103.583 190.527 102.892 192.148 101.806 193.493Z" fill="#FFCDB2"/>
<path d="M99.0816 194.288C95.7688 194.288 90.3434 193.111 87.0874 186.185C81.7188 174.759 81.4614 164.095 86.4188 157.657C92.0248 150.36 99.1886 149.821 103.621 151.583C105.771 152.435 107.238 153.923 107.86 155.879C108.599 158.195 108.064 160.986 106.359 163.781C107.969 165.061 109.073 166.871 109.474 168.889C109.953 171.48 109.164 174.278 107.134 177.209C108.749 178.139 109.993 180.699 109.906 183.143C109.802 186.152 107.753 188.365 104.273 189.224C103.991 190.9 103.281 192.476 102.214 193.8L102.113 193.93L101.956 193.974C101.014 194.195 100.049 194.3 99.0816 194.288ZM98.9546 151.71C95.2239 151.71 90.9116 153.438 87.201 158.269C82.4909 164.403 82.7884 174.679 87.9966 185.757C92.2654 194.836 100.255 193.349 101.515 193.048C102.486 191.802 103.107 190.319 103.314 188.752L103.357 188.398L103.691 188.321C108.081 187.375 108.823 184.644 108.88 183.106C108.963 180.639 107.509 178.282 106.205 177.901L105.513 177.701L105.941 177.122C108.064 174.241 108.913 171.537 108.468 169.1C108.073 167.186 106.976 165.491 105.393 164.346L104.972 164.072L105.242 163.651C106.981 160.976 107.562 158.336 106.881 156.199C106.352 154.528 105.089 153.268 103.23 152.522C101.869 151.984 100.418 151.707 98.9546 151.707V151.71Z" fill="black"/>
<path d="M89.9555 168.592C89.8332 168.594 89.7143 168.551 89.6213 168.472C89.5202 168.385 89.4576 168.262 89.4469 168.129C89.4363 167.996 89.4785 167.865 89.5645 167.763C89.6313 167.689 96.17 160.221 106.854 163.588C106.976 163.631 107.077 163.72 107.136 163.836C107.194 163.953 107.204 164.087 107.165 164.211C107.126 164.335 107.041 164.439 106.926 164.501C106.812 164.563 106.678 164.578 106.553 164.544C96.5244 161.381 90.5741 168.127 90.3267 168.415C90.2813 168.469 90.2246 168.513 90.1606 168.544C90.0965 168.575 90.0265 168.591 89.9555 168.592Z" fill="#1D1D1B"/>
<path d="M92.854 178.784C92.7358 178.785 92.6211 178.744 92.5303 178.668C92.4395 178.592 92.3782 178.487 92.3574 178.371C92.3366 178.255 92.3577 178.135 92.4167 178.032C92.4757 177.93 92.569 177.852 92.6801 177.811C93.0144 177.691 100.82 174.876 106.626 177.019C106.695 177.035 106.759 177.066 106.815 177.109C106.871 177.152 106.917 177.206 106.951 177.268C106.984 177.329 107.005 177.398 107.01 177.468C107.016 177.538 107.006 177.609 106.982 177.675C106.959 177.741 106.922 177.802 106.873 177.853C106.825 177.904 106.766 177.944 106.701 177.971C106.635 177.997 106.565 178.01 106.495 178.008C106.425 178.006 106.356 177.989 106.292 177.958C100.837 175.953 93.1146 178.724 93.0377 178.754C92.9788 178.775 92.9166 178.785 92.854 178.784Z" fill="#1D1D1B"/>
<path d="M99.2692 190.106C97.9799 190.143 96.7013 189.863 95.5452 189.291C95.4845 189.261 95.4304 189.22 95.3862 189.169C95.342 189.118 95.3085 189.058 95.2878 188.994C95.2671 188.93 95.2596 188.862 95.2657 188.795C95.2719 188.727 95.2915 188.662 95.3235 188.603C95.3555 188.543 95.3991 188.491 95.4518 188.449C95.5045 188.406 95.5652 188.375 95.6302 188.357C95.6953 188.339 95.7634 188.334 95.8303 188.343C95.8973 188.352 95.9617 188.374 96.0199 188.408C99.0552 190.036 103.932 188.285 103.979 188.268C104.042 188.24 104.11 188.226 104.179 188.226C104.248 188.225 104.317 188.239 104.38 188.267C104.443 188.294 104.5 188.334 104.547 188.385C104.594 188.435 104.63 188.494 104.653 188.559C104.676 188.624 104.686 188.693 104.681 188.762C104.676 188.831 104.657 188.898 104.625 188.959C104.593 189.02 104.549 189.074 104.496 189.117C104.442 189.161 104.38 189.192 104.314 189.211C102.689 189.772 100.987 190.074 99.2692 190.106Z" fill="#1D1D1B"/>
<path d="M86.2958 164.246C86.2155 164.247 86.1355 164.235 86.0585 164.213C85.9531 164.182 85.8547 164.13 85.7693 164.061C85.6838 163.992 85.6128 163.907 85.5603 163.81C85.5079 163.713 85.475 163.608 85.4635 163.498C85.4521 163.389 85.4623 163.278 85.4936 163.173C85.5671 162.929 87.3221 157.179 92.5972 154.341C95.8999 152.563 99.8144 152.335 104.23 153.673C104.34 153.701 104.442 153.75 104.532 153.819C104.621 153.888 104.696 153.974 104.751 154.072C104.807 154.17 104.842 154.279 104.854 154.391C104.866 154.503 104.856 154.617 104.823 154.725C104.79 154.833 104.736 154.933 104.663 155.02C104.591 155.106 104.502 155.177 104.401 155.228C104.3 155.279 104.19 155.309 104.078 155.316C103.965 155.324 103.852 155.308 103.745 155.271C99.7708 154.064 96.2842 154.241 93.3826 155.802C88.7026 158.316 87.1048 163.584 87.0881 163.638C87.0397 163.811 86.9362 163.964 86.7933 164.074C86.6505 164.184 86.4759 164.244 86.2958 164.246Z" fill="white"/>
<path d="M90.2728 173.101C90.1099 173.102 89.9505 173.054 89.8148 172.964C89.6295 172.843 89.5001 172.652 89.455 172.436C89.4099 172.219 89.4528 171.993 89.5742 171.807C89.6277 171.727 95.0397 163.637 104.878 166.459C104.988 166.485 105.091 166.533 105.182 166.6C105.273 166.668 105.349 166.753 105.406 166.85C105.463 166.948 105.5 167.056 105.514 167.168C105.528 167.28 105.519 167.394 105.488 167.503C105.457 167.612 105.404 167.713 105.332 167.8C105.261 167.888 105.172 167.96 105.072 168.013C104.972 168.065 104.862 168.096 104.75 168.105C104.637 168.114 104.524 168.1 104.416 168.063C95.7852 165.596 91.1653 172.439 90.9714 172.743C90.8931 172.856 90.7885 172.947 90.6666 173.009C90.5448 173.072 90.4096 173.103 90.2728 173.101Z" fill="white"/>
<path d="M175.762 289.286C184.26 287.133 191.808 283.804 198.183 279.054C203.092 275.375 206.56 270.096 207.988 264.129C209.415 258.163 208.711 251.886 205.999 246.384C200.195 234.604 191.039 225.063 179.005 217.461C170.858 229.857 165.506 238.271 149.795 243.034C167.208 255.62 185.634 271.258 175.762 289.286Z" fill="white"/>
<path d="M174.769 290.055L175.324 289.052C184.614 272.087 168.401 257.108 149.5 243.449L148.678 242.857L149.647 242.563C164.974 237.916 170.256 229.86 178.255 217.692L178.854 216.779L179.272 217.043C191.64 224.846 200.773 234.647 206.446 246.17C209.221 251.774 209.944 258.174 208.489 264.256C207.034 270.339 203.494 275.719 198.483 279.461C192.285 284.078 184.68 287.548 175.885 289.777L174.769 290.055ZM150.897 243.215C169.45 256.72 185.108 271.542 176.728 288.517C184.935 286.311 192.048 282.995 197.885 278.649C202.707 275.047 206.113 269.869 207.513 264.015C208.913 258.161 208.217 252.002 205.547 246.608C200.018 235.382 191.139 225.808 179.138 218.15L179.081 218.237C171.142 230.341 165.837 238.424 150.897 243.215Z" fill="black"/>
<path d="M207.956 251.772C207.956 251.772 206.165 262.339 198.322 264.298C198.322 264.298 205.61 272.802 199.589 277.927C199.589 277.927 212.058 268.473 207.956 251.772Z" fill="#4BD657"/>
<path d="M199.889 278.328L199.261 277.546C199.889 277.04 200.407 276.411 200.783 275.698C201.159 274.984 201.385 274.201 201.447 273.397C201.781 269.162 197.977 264.669 197.94 264.622L197.412 264.007L198.198 263.81C205.629 261.955 207.441 251.792 207.461 251.689L207.865 249.309L208.44 251.649C212.575 268.477 200.016 278.231 199.889 278.328ZM199.177 264.572C200.253 266.003 202.741 269.744 202.446 273.478C202.42 273.815 202.37 274.15 202.296 274.48C205.385 270.766 209.527 263.746 207.912 254.032C206.959 257.194 204.552 262.807 199.177 264.572Z" fill="black"/>
<path d="M171.838 285.756C171.764 285.756 171.69 285.739 171.624 285.706C171.564 285.678 171.51 285.638 171.466 285.589C171.422 285.54 171.387 285.483 171.365 285.421C171.343 285.359 171.334 285.293 171.337 285.227C171.341 285.161 171.358 285.097 171.386 285.037C173.94 279.655 173.853 274.363 171.122 269.309C169.87 266.998 168.194 264.943 166.182 263.252C166.076 263.17 166.007 263.05 165.99 262.918C165.973 262.785 166.01 262.652 166.091 262.546C166.173 262.441 166.293 262.372 166.425 262.355C166.558 262.338 166.691 262.375 166.797 262.456C166.917 262.55 178.741 271.886 172.289 285.465C172.25 285.551 172.186 285.625 172.106 285.676C172.026 285.728 171.933 285.756 171.838 285.756Z" fill="#1D1E1B"/>
<path d="M228.785 292.348L94.9467 290.436C94.8138 290.436 94.6863 290.383 94.5922 290.289C94.4982 290.195 94.4453 290.068 94.4453 289.935C94.4453 289.802 94.4982 289.674 94.5922 289.58C94.6863 289.486 94.8138 289.433 94.9467 289.433L228.782 291.349C228.915 291.349 229.042 291.401 229.136 291.495C229.23 291.589 229.283 291.717 229.283 291.85C229.283 291.983 229.23 292.111 229.136 292.205C229.042 292.299 228.915 292.351 228.782 292.351L228.785 292.348Z" fill="#1D1D1B"/>
<path d="M109.661 297.456H77.5698C77.4368 297.456 77.3093 297.403 77.2153 297.309C77.1212 297.215 77.0684 297.088 77.0684 296.955C77.0684 296.822 77.1212 296.694 77.2153 296.6C77.3093 296.506 77.4368 296.453 77.5698 296.453H109.661C109.794 296.453 109.922 296.506 110.016 296.6C110.11 296.694 110.163 296.822 110.163 296.955C110.163 297.088 110.11 297.215 110.016 297.309C109.922 297.403 109.794 297.456 109.661 297.456Z" fill="#1D1D1B"/>
<path d="M325.611 173.77C325.519 173.77 325.429 173.744 325.35 173.696C325.272 173.648 325.208 173.578 325.167 173.496C322.492 168.278 318.307 165.714 312.755 165.871C310.112 165.982 307.516 166.603 305.11 167.699C304.992 167.751 304.858 167.756 304.737 167.712C304.616 167.668 304.517 167.58 304.459 167.465C304.402 167.35 304.391 167.217 304.428 167.094C304.466 166.971 304.549 166.867 304.662 166.804C304.805 166.73 319.223 159.717 326.056 173.041C326.116 173.159 326.126 173.295 326.085 173.421C326.045 173.546 325.956 173.65 325.839 173.71C325.769 173.749 325.691 173.77 325.611 173.77Z" fill="#1D1D1B"/>
<path d="M296.861 288.431C296.791 288.43 296.722 288.415 296.658 288.387C296.594 288.359 296.537 288.318 296.49 288.267C296.445 288.218 296.411 288.161 296.389 288.099C296.367 288.037 296.357 287.971 296.36 287.905C296.363 287.84 296.379 287.775 296.407 287.715C296.435 287.656 296.475 287.602 296.523 287.558C302.494 282.133 305.138 275.143 304.389 266.782C304.036 262.957 303.035 259.22 301.427 255.731C301.367 255.612 301.356 255.474 301.398 255.347C301.439 255.221 301.529 255.116 301.648 255.055C301.767 254.995 301.905 254.984 302.031 255.026C302.158 255.067 302.263 255.157 302.323 255.276C303.993 258.859 305.028 262.705 305.382 266.642C305.927 272.629 304.947 281.24 297.199 288.287C297.108 288.375 296.988 288.427 296.861 288.431Z" fill="#1D1D1B"/>
<path d="M243.71 110.256C243.582 110.256 243.459 110.207 243.365 110.12C243.272 110.032 243.216 109.912 243.208 109.784C243.034 106.799 241.975 104.462 240.066 102.838C236.312 99.6521 230.449 100.217 230.392 100.224C230.326 100.231 230.259 100.225 230.196 100.206C230.132 100.187 230.073 100.156 230.022 100.115C229.97 100.073 229.927 100.022 229.896 99.9636C229.864 99.9054 229.844 99.8416 229.837 99.7758C229.83 99.7099 229.836 99.6433 229.854 99.5798C229.873 99.5163 229.904 99.4571 229.946 99.4055C229.987 99.354 230.039 99.3112 230.097 99.2795C230.155 99.2478 230.219 99.2279 230.285 99.2208C230.542 99.1941 236.636 98.5991 240.708 102.066C242.84 103.871 244.017 106.448 244.211 109.717C244.215 109.783 244.206 109.849 244.185 109.912C244.163 109.974 244.13 110.032 244.086 110.081C244.042 110.13 243.989 110.171 243.929 110.199C243.87 110.228 243.806 110.245 243.74 110.249L243.71 110.256Z" fill="#1D1E1B"/>
<path d="M230.482 126.822C237.058 126.822 242.389 121.482 242.389 114.895C242.389 108.308 237.058 102.968 230.482 102.968C223.905 102.968 218.574 108.308 218.574 114.895C218.574 121.482 223.905 126.822 230.482 126.822Z" fill="#382256"/>
<path d="M230.478 127.331C227.38 127.337 224.391 126.188 222.096 124.108C219.801 122.027 218.365 119.165 218.069 116.082C217.772 112.999 218.637 109.916 220.494 107.436C222.351 104.957 225.066 103.259 228.108 102.676C231.15 102.092 234.3 102.665 236.943 104.282C239.585 105.898 241.529 108.443 242.394 111.417C243.259 114.391 242.984 117.581 241.621 120.363C240.259 123.145 237.907 125.319 235.027 126.458C233.579 127.034 232.036 127.33 230.478 127.331ZM230.478 103.463C227.646 103.455 224.913 104.498 222.807 106.39C220.7 108.281 219.37 110.887 219.074 113.703C218.778 116.518 219.537 119.344 221.204 121.632C222.871 123.921 225.328 125.509 228.098 126.091C230.869 126.672 233.757 126.205 236.204 124.78C238.65 123.355 240.481 121.073 241.342 118.376C242.202 115.679 242.033 112.758 240.864 110.179C239.696 107.601 237.613 105.547 235.017 104.415C233.588 103.79 232.044 103.466 230.484 103.463H230.478Z" fill="#1D1E1B"/>
<path d="M193.969 148.758C193.969 148.758 186.384 140.832 190.576 133.739C194.768 126.645 196.64 127.464 198.598 123.583C200.557 119.702 208.152 116.319 214.571 118.836C214.571 118.836 223.312 113.448 230.533 116.038C237.754 118.629 240.017 122.39 241.591 128.38C243.166 134.371 245.028 137.122 246.271 141.29C247.515 145.459 248.909 156.968 232.435 163.848C215.961 170.728 193.969 148.758 193.969 148.758Z" fill="#382256"/>
<path d="M225.565 165.663C220.02 165.663 213.652 163.524 206.769 159.312C202.043 156.378 197.635 152.963 193.614 149.119C193.534 149.039 185.815 140.832 190.151 133.498C192.514 129.487 194.162 127.966 195.5 126.732C196.529 125.773 197.342 125.017 198.174 123.369C199.227 121.287 201.694 119.411 204.773 118.355C207.928 117.213 211.38 117.194 214.547 118.301C215.978 117.466 223.907 113.14 230.727 115.584C238.145 118.258 240.515 122.249 242.093 128.27C242.824 130.994 243.767 133.656 244.914 136.232C245.627 137.841 246.248 139.488 246.776 141.167C247.856 144.767 250.032 157.075 232.652 164.329C230.402 165.241 227.993 165.694 225.565 165.663ZM194.33 148.411C194.751 148.828 216.359 170.019 232.255 163.383C248.859 156.454 246.826 144.83 245.806 141.434C245.287 139.791 244.677 138.179 243.978 136.604C242.816 133.982 241.859 131.276 241.113 128.507C239.576 122.671 237.409 119.03 230.372 116.51C223.466 114.033 214.925 119.211 214.841 119.264L214.628 119.394L214.394 119.304C208.072 116.824 200.842 120.274 199.053 123.807C198.137 125.616 197.221 126.481 196.165 127.454C194.888 128.644 193.297 130.128 191.007 133.996C187.092 140.615 194.132 148.2 194.33 148.411Z" fill="#1D1E1B"/>
<path d="M224.282 143.757H224.319C229.601 144.306 235.21 139.662 235.448 139.465C235.536 139.393 235.593 139.289 235.605 139.176C235.617 139.062 235.583 138.949 235.511 138.86C235.439 138.771 235.335 138.715 235.222 138.703C235.108 138.691 234.995 138.725 234.906 138.797C234.849 138.843 229.33 143.41 224.409 142.898C224.304 142.892 224.2 142.926 224.118 142.992C224.036 143.059 223.982 143.154 223.966 143.258C223.95 143.363 223.973 143.469 224.032 143.557C224.091 143.645 224.18 143.708 224.282 143.734V143.757Z" fill="black"/>
<path d="M213.961 170.259L213.292 173.96C213.292 173.96 221.984 187.642 235.355 175.608C235.355 175.608 230.929 168.32 229.398 154.548C229.398 154.548 235.415 154.11 235.258 148.741C235.101 143.373 231.006 141.872 228.322 142.931C228.322 142.931 217.625 148.31 210.652 126.595C210.652 126.595 199.714 129.353 196.04 139.736C192.366 150.118 192.697 162.801 200.386 167.545C208.074 172.288 213.961 170.259 213.961 170.259Z" fill="#FFCDB2"/>
<path d="M224.53 181.063C223.998 181.063 223.467 181.026 222.939 180.953C216.658 180.094 213.014 174.468 212.86 174.231L212.757 174.063L213.325 170.941C211.426 171.336 206.359 171.83 200.114 167.979C191.881 162.898 191.984 149.694 195.565 139.565C199.288 129.052 210.417 126.134 210.527 126.103L210.985 125.99L211.129 126.438C213.877 134.982 217.644 140.478 222.016 142.326C225.426 143.767 228.071 142.493 228.097 142.48L228.137 142.46C228.931 142.159 229.784 142.051 230.628 142.143C231.472 142.236 232.281 142.526 232.991 142.992C234.693 144.111 235.665 146.144 235.759 148.721C235.913 153.528 231.487 154.708 229.949 154.972C231.5 168.14 235.739 175.267 235.783 175.337L236 175.691L235.689 175.969C231.938 179.359 228.191 181.063 224.53 181.063ZM213.817 173.85C214.445 174.752 217.828 179.248 223.083 179.96C226.84 180.472 230.755 178.957 234.716 175.504C233.807 173.856 230.253 166.786 228.896 154.611L228.839 154.093L229.361 154.053C229.585 154.053 234.91 153.582 234.756 148.761C234.666 145.893 233.446 144.499 232.44 143.841C231.868 143.463 231.215 143.226 230.534 143.148C229.853 143.071 229.163 143.156 228.522 143.396C228.214 143.546 225.36 144.823 221.659 143.272C217.009 141.327 213.198 135.918 210.327 127.227C208.257 127.895 199.629 131.098 196.51 139.93C192.95 149.992 193.228 162.567 200.642 167.144C208.057 171.72 213.74 169.818 213.796 169.818L214.609 169.541L213.817 173.85Z" fill="#1D1E1B"/>
<path d="M229.731 152.088C229.806 152.102 229.884 152.096 229.957 152.069C230.029 152.043 230.093 151.997 230.142 151.937C231.579 150.166 232.084 148.594 231.639 147.294C230.997 145.405 228.631 144.83 228.537 144.807C228.43 144.787 228.319 144.809 228.228 144.869C228.136 144.928 228.071 145.021 228.046 145.127C228.021 145.234 228.038 145.345 228.094 145.439C228.149 145.534 228.239 145.603 228.343 145.633C228.37 145.633 230.349 146.131 230.84 147.571C231.175 148.574 230.727 149.875 229.483 151.402C229.438 151.46 229.408 151.527 229.396 151.599C229.384 151.672 229.391 151.745 229.416 151.814C229.44 151.883 229.482 151.944 229.538 151.992C229.593 152.04 229.659 152.073 229.731 152.088Z" fill="black"/>
<path d="M208.347 143.48C214.261 145.111 222.488 142.955 223.748 145.175C225.008 147.395 223.788 150.209 220.502 150.727C217.216 151.245 214 150.961 207.438 150.059C200.876 149.156 194.518 147.772 195.477 144.289C196.437 140.806 199.646 141.087 208.347 143.48Z" fill="#FFB49F"/>
<path d="M231.814 156.654C232.89 156.654 233.763 155.78 233.763 154.702C233.763 153.624 232.89 152.75 231.814 152.75C230.738 152.75 229.865 153.624 229.865 154.702C229.865 155.78 230.738 156.654 231.814 156.654Z" fill="#07ACEE"/>
<path d="M231.814 152.749C232.27 152.748 232.712 152.906 233.063 153.196C233.414 153.486 233.653 153.89 233.738 154.338C233.823 154.785 233.748 155.249 233.528 155.647C233.307 156.046 232.954 156.355 232.53 156.52C232.303 156.608 232.061 156.654 231.818 156.654C231.364 156.653 230.924 156.494 230.575 156.204C230.225 155.915 229.988 155.512 229.903 155.066C229.818 154.62 229.892 154.158 230.111 153.76C230.33 153.363 230.68 153.054 231.102 152.887C231.329 152.796 231.571 152.749 231.814 152.749ZM231.814 151.747C231.445 151.747 231.078 151.817 230.735 151.954C230.053 152.224 229.497 152.739 229.174 153.398C228.852 154.056 228.787 154.812 228.993 155.516C229.198 156.22 229.658 156.822 230.284 157.204C230.909 157.587 231.655 157.722 232.375 157.584C233.095 157.446 233.738 157.044 234.177 156.457C234.617 155.87 234.822 155.14 234.752 154.41C234.681 153.68 234.342 153.003 233.798 152.51C233.255 152.017 232.548 151.745 231.814 151.747Z" fill="#1D1D1B"/>
<path d="M198.732 145.89C199.341 145.89 199.835 145.395 199.835 144.784C199.835 144.173 199.341 143.677 198.732 143.677C198.123 143.677 197.629 144.173 197.629 144.784C197.629 145.395 198.123 145.89 198.732 145.89Z" fill="black"/>
<path d="M212.74 148.478C213.349 148.478 213.843 147.982 213.843 147.371C213.843 146.76 213.349 146.265 212.74 146.265C212.131 146.265 211.637 146.76 211.637 147.371C211.637 147.982 212.131 148.478 212.74 148.478Z" fill="black"/>
<path d="M210.827 163.561C209.293 163.561 207.892 162.809 206.659 161.331C206.613 161.281 206.577 161.222 206.554 161.158C206.532 161.094 206.522 161.026 206.526 160.958C206.531 160.89 206.549 160.824 206.58 160.763C206.611 160.703 206.653 160.649 206.705 160.605C206.758 160.562 206.818 160.529 206.883 160.51C206.949 160.49 207.017 160.484 207.085 160.492C207.152 160.5 207.217 160.522 207.276 160.555C207.335 160.589 207.387 160.635 207.428 160.689C208.471 161.939 209.624 162.565 210.858 162.558C213.335 162.538 215.407 160.007 215.427 159.98C215.511 159.877 215.632 159.811 215.765 159.798C215.897 159.784 216.029 159.823 216.133 159.907C216.236 159.991 216.302 160.112 216.315 160.244C216.329 160.377 216.29 160.509 216.206 160.612C216.112 160.729 213.813 163.534 210.858 163.561H210.827Z" fill="#1D1D1B"/>
<path d="M203.503 153.849C203.439 153.85 203.375 153.838 203.316 153.813C203.253 153.788 203.195 153.751 203.147 153.704C203.099 153.656 203.06 153.6 203.034 153.537C203.008 153.475 202.995 153.408 202.996 153.34C202.997 153.273 203.011 153.206 203.038 153.144L206.715 144.071C206.74 144.01 206.777 143.955 206.823 143.908C206.869 143.861 206.924 143.824 206.985 143.798C207.046 143.773 207.111 143.759 207.177 143.759C207.243 143.758 207.308 143.771 207.369 143.796C207.43 143.82 207.485 143.857 207.532 143.903C207.579 143.95 207.617 144.005 207.642 144.065C207.668 144.126 207.681 144.191 207.682 144.257C207.682 144.323 207.669 144.388 207.645 144.449L203.967 153.522C203.933 153.617 203.87 153.7 203.786 153.758C203.703 153.817 203.605 153.849 203.503 153.849Z" fill="#1D1D1B"/>
<path d="M198.491 138.021C198.422 138.022 198.354 138.008 198.29 137.98C198.227 137.953 198.17 137.912 198.123 137.861C198.078 137.813 198.043 137.756 198.02 137.694C197.997 137.633 197.986 137.567 197.989 137.501C197.991 137.435 198.007 137.37 198.035 137.31C198.062 137.25 198.102 137.197 198.15 137.152C198.334 136.982 202.693 133.017 205.558 135.885C205.647 135.98 205.695 136.106 205.693 136.236C205.69 136.366 205.638 136.49 205.546 136.582C205.454 136.673 205.33 136.726 205.2 136.728C205.07 136.731 204.944 136.682 204.849 136.594C202.663 134.408 198.869 137.854 198.832 137.888C198.739 137.973 198.618 138.021 198.491 138.021Z" fill="black"/>
<path d="M220.709 141.063C220.632 141.063 220.556 141.046 220.487 141.012C220.418 140.979 220.358 140.93 220.311 140.869C217.476 137.192 215.043 138.96 214.939 139.037C214.888 139.082 214.828 139.116 214.762 139.137C214.697 139.158 214.628 139.166 214.56 139.159C214.492 139.152 214.426 139.132 214.366 139.099C214.306 139.066 214.254 139.021 214.212 138.967C214.17 138.912 214.14 138.85 214.123 138.784C214.106 138.717 214.103 138.648 214.114 138.581C214.125 138.513 214.149 138.449 214.186 138.391C214.223 138.333 214.271 138.283 214.327 138.245C215.141 137.683 216.135 137.445 217.115 137.576C218.533 137.757 219.876 138.663 221.107 140.251C221.187 140.356 221.222 140.49 221.205 140.621C221.187 140.753 221.118 140.872 221.013 140.953C220.927 141.023 220.82 141.062 220.709 141.063Z" fill="black"/>
<path d="M213.078 170.474C213.078 170.474 217.969 169.257 220.643 167.251L213.078 170.474Z" fill="#4BD657"/>
<path d="M213.079 170.975C212.946 170.991 212.812 170.953 212.707 170.871C212.601 170.788 212.533 170.667 212.517 170.534C212.501 170.401 212.539 170.267 212.622 170.162C212.704 170.056 212.825 169.988 212.958 169.972C213.005 169.972 217.782 168.755 220.343 166.837C220.395 166.797 220.456 166.768 220.519 166.752C220.583 166.736 220.649 166.732 220.715 166.741C220.78 166.751 220.843 166.773 220.899 166.806C220.956 166.84 221.005 166.884 221.045 166.937C221.085 166.99 221.113 167.05 221.13 167.113C221.146 167.177 221.15 167.243 221.14 167.309C221.131 167.374 221.109 167.437 221.075 167.493C221.042 167.55 220.997 167.599 220.945 167.639C218.22 169.681 213.403 170.895 213.199 170.945C213.161 170.96 213.12 170.97 213.079 170.975Z" fill="black"/>
<path d="M197.578 152.709C196.091 152.709 194.636 152.268 193.399 151.442C192.162 150.615 191.199 149.441 190.629 148.066C190.06 146.692 189.911 145.18 190.201 143.721C190.491 142.262 191.208 140.921 192.26 139.869C193.312 138.818 194.652 138.101 196.111 137.811C197.57 137.521 199.082 137.67 200.456 138.239C201.831 138.808 203.005 139.772 203.832 141.009C204.658 142.246 205.1 143.7 205.1 145.188C205.098 147.182 204.305 149.094 202.895 150.504C201.485 151.915 199.572 152.708 197.578 152.709ZM197.578 138.669C196.289 138.669 195.029 139.052 193.957 139.768C192.885 140.484 192.049 141.502 191.556 142.693C191.062 143.885 190.933 145.195 191.185 146.46C191.436 147.724 192.057 148.886 192.969 149.797C193.88 150.709 195.042 151.33 196.306 151.581C197.571 151.833 198.882 151.704 200.073 151.21C201.264 150.717 202.282 149.881 202.998 148.809C203.714 147.737 204.097 146.477 204.097 145.188C204.094 143.46 203.406 141.803 202.185 140.582C200.963 139.36 199.306 138.672 197.578 138.669Z" fill="#1D1E1B"/>
<path d="M214.627 155.384C213.139 155.384 211.685 154.943 210.448 154.116C209.211 153.29 208.247 152.115 207.678 150.741C207.109 149.366 206.96 147.854 207.25 146.395C207.54 144.936 208.257 143.596 209.309 142.544C210.36 141.492 211.701 140.776 213.16 140.485C214.619 140.195 216.131 140.344 217.505 140.913C218.88 141.483 220.054 142.447 220.881 143.684C221.707 144.92 222.148 146.375 222.148 147.862C222.147 149.857 221.354 151.769 219.944 153.179C218.533 154.589 216.621 155.382 214.627 155.384ZM214.627 141.344C213.338 141.344 212.077 141.726 211.005 142.442C209.933 143.159 209.098 144.177 208.605 145.368C208.111 146.559 207.982 147.87 208.234 149.134C208.485 150.398 209.106 151.56 210.018 152.472C210.929 153.383 212.091 154.004 213.355 154.256C214.62 154.507 215.93 154.378 217.121 153.885C218.312 153.391 219.331 152.556 220.047 151.484C220.763 150.412 221.146 149.152 221.146 147.862C221.143 146.134 220.455 144.478 219.234 143.256C218.012 142.034 216.355 141.346 214.627 141.344Z" fill="#1D1E1B"/>
<path d="M221.648 148.364C221.572 148.363 221.497 148.346 221.429 148.313C221.361 148.28 221.301 148.232 221.253 148.173C221.172 148.068 221.134 147.935 221.15 147.803C221.166 147.671 221.233 147.551 221.337 147.468L227.688 142.453C227.793 142.371 227.926 142.334 228.058 142.349C228.191 142.365 228.311 142.432 228.394 142.537C228.476 142.642 228.514 142.775 228.498 142.907C228.482 143.039 228.415 143.16 228.31 143.242L221.959 148.257C221.869 148.325 221.76 148.363 221.648 148.364Z" fill="#1D1E1B"/>
<path d="M207.624 147.872C207.527 147.873 207.431 147.845 207.35 147.792C207.268 147.738 207.204 147.662 207.167 147.572C206.688 146.482 204.616 146.819 204.596 146.823C204.463 146.847 204.326 146.817 204.215 146.74C204.104 146.663 204.028 146.545 204.004 146.412C203.98 146.279 204.01 146.142 204.087 146.031C204.164 145.92 204.282 145.844 204.415 145.82C204.532 145.8 207.284 145.318 208.092 147.157C208.12 147.218 208.134 147.284 208.136 147.35C208.137 147.417 208.126 147.484 208.102 147.546C208.077 147.608 208.041 147.665 207.995 147.713C207.948 147.761 207.893 147.799 207.832 147.826C207.766 147.855 207.696 147.871 207.624 147.872Z" fill="#1D1E1B"/>
<path d="M210.417 237.188C207.76 234.784 202.776 232.755 200.288 232.471C199.191 232.355 198.082 232.507 197.056 232.915C197.056 232.915 205.229 243.76 205.129 244.03L180.392 238.217C180.392 238.217 172.463 245.277 185.55 252.819C185.55 252.819 183.658 259.484 187.492 264.599C187.492 264.599 183.835 269.279 193.175 276.6C202.515 283.921 220.142 281.41 220.142 281.41L223.996 256.84C223.996 256.84 216.588 241.824 210.417 237.188Z" fill="#FFCDB2"/>
<path d="M213.066 282.51C207.022 282.51 198.477 281.594 192.774 277.125C184.534 270.666 185.958 266.04 186.7 264.629C183.605 260.153 184.431 254.804 184.792 253.146C180.209 250.412 177.718 247.406 177.391 244.207C176.999 240.4 179.834 237.826 179.958 237.719L180.215 237.485L203.676 243.001C202.125 240.804 198.778 236.315 196.525 233.306L195.997 232.608L196.813 232.273C197.94 231.825 199.159 231.657 200.366 231.785C203.114 232.103 208.168 234.246 210.846 236.653C217.067 241.333 224.291 255.907 224.599 256.526L224.692 256.716L220.727 281.982L220.236 282.052C217.858 282.36 215.463 282.513 213.066 282.51ZM180.613 238.956C180.008 239.624 178.454 241.553 178.721 244.087C179.022 246.929 181.435 249.673 185.895 252.244L186.346 252.504L186.202 253.006C186.186 253.069 184.454 259.421 188.038 264.201L188.345 264.612L188.028 265.013C187.904 265.18 184.969 269.312 193.6 276.075C201.753 282.466 216.666 281.139 219.561 280.812L223.305 256.954C222.426 255.212 215.616 241.934 210.017 237.726L209.97 237.689C207.316 235.289 202.419 233.39 200.216 233.139C199.528 233.065 198.833 233.109 198.16 233.27C198.909 234.272 200.299 236.124 201.67 237.976C205.942 243.753 205.919 243.823 205.758 244.261L205.558 244.819L180.613 238.956Z" fill="#1D1E1B"/>
<path d="M197.705 255.887C190.785 255.887 183.11 251.789 182.745 251.591C182.638 251.523 182.56 251.417 182.528 251.294C182.496 251.171 182.512 251.04 182.573 250.928C182.633 250.816 182.734 250.732 182.855 250.691C182.976 250.651 183.108 250.659 183.223 250.712C183.32 250.762 193.068 255.964 200.162 254.674C200.228 254.662 200.295 254.663 200.36 254.677C200.426 254.691 200.488 254.718 200.543 254.757C200.598 254.795 200.645 254.843 200.681 254.9C200.717 254.956 200.742 255.019 200.753 255.085C200.765 255.151 200.764 255.218 200.75 255.283C200.736 255.349 200.708 255.411 200.67 255.466C200.632 255.521 200.583 255.568 200.527 255.604C200.471 255.64 200.408 255.665 200.342 255.676C199.471 255.824 198.588 255.895 197.705 255.887Z" fill="#1D1E1B"/>
<path d="M200.106 268.059C193.611 268.059 186.935 264.458 186.641 264.301C186.524 264.237 186.437 264.13 186.399 264.002C186.362 263.874 186.376 263.736 186.44 263.619C186.504 263.502 186.612 263.415 186.74 263.378C186.868 263.34 187.005 263.355 187.122 263.419C187.192 263.459 194.436 267.36 200.895 267.036C201.028 267.029 201.158 267.075 201.257 267.164C201.356 267.253 201.416 267.377 201.423 267.51C201.43 267.643 201.384 267.774 201.295 267.873C201.206 267.972 201.081 268.032 200.948 268.039C200.667 268.052 200.387 268.059 200.106 268.059Z" fill="#1D1E1B"/>
<path d="M199.249 253.664H199.196C183.106 252.638 180.188 244.421 180.071 244.07C180.004 243.861 180.022 243.634 180.121 243.438C180.22 243.241 180.393 243.092 180.601 243.022C180.81 242.953 181.037 242.967 181.234 243.064C181.432 243.161 181.583 243.331 181.656 243.539C181.689 243.636 184.46 251.05 199.303 251.999C199.413 252.003 199.521 252.028 199.621 252.073C199.721 252.119 199.811 252.183 199.886 252.263C199.961 252.343 200.02 252.437 200.058 252.54C200.097 252.643 200.115 252.752 200.112 252.862C200.108 252.972 200.083 253.08 200.038 253.18C199.993 253.28 199.928 253.37 199.848 253.445C199.768 253.52 199.674 253.579 199.571 253.617C199.468 253.656 199.359 253.674 199.249 253.671V253.664Z" fill="white"/>
<path d="M201.588 266.701C191.643 266.701 187.442 262.275 187.268 262.088C187.193 262.007 187.135 261.913 187.097 261.81C187.059 261.707 187.041 261.598 187.046 261.488C187.05 261.378 187.075 261.27 187.121 261.171C187.167 261.071 187.232 260.981 187.313 260.906C187.393 260.832 187.488 260.774 187.591 260.736C187.694 260.697 187.803 260.68 187.913 260.684C188.023 260.688 188.13 260.714 188.23 260.76C188.33 260.806 188.42 260.871 188.494 260.951C188.548 261.008 192.452 265.03 201.588 265.03C201.81 265.03 202.023 265.118 202.179 265.275C202.336 265.431 202.424 265.644 202.424 265.865C202.424 266.087 202.336 266.3 202.179 266.456C202.023 266.613 201.81 266.701 201.588 266.701Z" fill="white"/>
<path d="M313.91 210.541C313.739 210.541 313.572 210.489 313.431 210.392C313.291 210.294 313.184 210.156 313.124 209.995C313.065 209.835 313.056 209.66 313.099 209.495C313.142 209.329 313.235 209.181 313.365 209.07C318.887 204.34 321.722 199.225 321.755 193.867C321.829 185.342 314.765 178.971 314.692 178.907C314.526 178.76 314.426 178.553 314.412 178.332C314.399 178.11 314.475 177.893 314.622 177.727C314.769 177.561 314.976 177.461 315.197 177.448C315.419 177.435 315.636 177.51 315.802 177.657C316.116 177.935 323.49 184.573 323.427 193.867C323.38 199.733 320.361 205.276 314.455 210.34C314.303 210.47 314.109 210.541 313.91 210.541Z" fill="white"/>
<path d="M283.825 228.592C283.632 228.593 283.445 228.526 283.296 228.404C283.147 228.282 283.044 228.113 283.006 227.924C279.76 211.701 256.126 192.49 255.888 192.309C255.715 192.17 255.605 191.968 255.581 191.747C255.557 191.526 255.622 191.305 255.761 191.132C255.9 190.959 256.103 190.849 256.323 190.825C256.544 190.801 256.765 190.866 256.938 191.005C257.941 191.804 281.281 210.778 284.644 227.596C284.665 227.705 284.665 227.816 284.642 227.925C284.62 228.033 284.577 228.136 284.514 228.227C284.452 228.319 284.373 228.397 284.28 228.457C284.187 228.518 284.084 228.559 283.975 228.579C283.925 228.588 283.875 228.592 283.825 228.592Z" fill="white"/>
<path d="M227.33 140.006H227.3C217.773 139.652 214.299 127.541 214.156 127.026C214.126 126.92 214.118 126.81 214.131 126.701C214.144 126.592 214.179 126.486 214.233 126.391C214.287 126.295 214.36 126.211 214.446 126.143C214.533 126.076 214.632 126.026 214.737 125.996C214.843 125.967 214.954 125.959 215.063 125.972C215.172 125.985 215.277 126.02 215.373 126.074C215.468 126.128 215.552 126.2 215.62 126.287C215.687 126.373 215.738 126.472 215.767 126.578C215.797 126.692 219.06 138.027 227.36 138.335C227.582 138.339 227.793 138.431 227.947 138.59C228.1 138.75 228.185 138.964 228.181 139.186C228.177 139.407 228.085 139.618 227.925 139.772C227.766 139.926 227.552 140.01 227.33 140.006Z" fill="white"/>
<path d="M239.03 115.604C238.831 115.604 238.639 115.533 238.488 115.403C238.336 115.274 238.236 115.095 238.205 114.898C237.744 111.933 236.563 109.837 234.701 108.657C231.626 106.712 227.608 107.868 227.568 107.882C227.357 107.94 227.132 107.913 226.941 107.807C226.749 107.701 226.607 107.524 226.545 107.315C226.482 107.106 226.504 106.88 226.606 106.686C226.708 106.493 226.882 106.347 227.09 106.28C227.284 106.22 231.857 104.89 235.584 107.236C237.877 108.684 239.315 111.174 239.856 114.637C239.873 114.746 239.869 114.857 239.843 114.963C239.818 115.07 239.771 115.171 239.707 115.26C239.642 115.348 239.561 115.424 239.467 115.481C239.373 115.538 239.269 115.576 239.161 115.594L239.03 115.604Z" fill="white"/>
<defs>
<filter id="filter0_d_14057_89497" x="-4.0192" y="107.785" width="38.6829" height="38.6839" filterUnits="userSpaceOnUse" color-interpolation-filters="sRGB">
<feFlood flood-opacity="0" result="BackgroundImageFix"/>
<feColorMatrix in="SourceAlpha" type="matrix" values="0 0 0 0 0 0 0 0 0 0 0 0 0 0 0 0 0 0 127 0" result="hardAlpha"/>
<feOffset dy="2.03704"/>
<feGaussianBlur stdDeviation="5.09261"/>
<feComposite in2="hardAlpha" operator="out"/>
<feColorMatrix type="matrix" values="0 0 0 0 0 0 0 0 0 0 0 0 0 0 0 0 0 0 0.05 0"/>
<feBlend mode="normal" in2="BackgroundImageFix" result="effect1_dropShadow_14057_89497"/>
<feBlend mode="normal" in="SourceGraphic" in2="effect1_dropShadow_14057_89497" result="shape"/>
</filter>
<filter id="filter1_d_14057_89497" x="370.649" y="165.21" width="38.6888" height="38.6883" filterUnits="userSpaceOnUse" color-interpolation-filters="sRGB">
<feFlood flood-opacity="0" result="BackgroundImageFix"/>
<feColorMatrix in="SourceAlpha" type="matrix" values="0 0 0 0 0 0 0 0 0 0 0 0 0 0 0 0 0 0 127 0" result="hardAlpha"/>
<feOffset dy="2.03704"/>
<feGaussianBlur stdDeviation="5.09261"/>
<feComposite in2="hardAlpha" operator="out"/>
<feColorMatrix type="matrix" values="0 0 0 0 0 0 0 0 0 0 0 0 0 0 0 0 0 0 0.05 0"/>
<feBlend mode="normal" in2="BackgroundImageFix" result="effect1_dropShadow_14057_89497"/>
<feBlend mode="normal" in="SourceGraphic" in2="effect1_dropShadow_14057_89497" result="shape"/>
</filter>
<linearGradient id="paint0_linear_14057_89497" x1="20.4547" y1="112.038" x2="392.053" y2="200.547" gradientUnits="userSpaceOnUse">
<stop stop-color="#CDD5E2"/>
<stop offset="1" stop-color="#CDD5E2" stop-opacity="0"/>
</linearGradient>
<linearGradient id="paint1_linear_14057_89497" x1="391.411" y1="195.437" x2="353.85" y2="294.044" gradientUnits="userSpaceOnUse">
<stop stop-color="#CDD5E2"/>
<stop offset="1" stop-color="#CDD5E2" stop-opacity="0"/>
</linearGradient>
<linearGradient id="paint2_linear_14057_89497" x1="196.502" y1="23.2607" x2="196.502" y2="365.006" gradientUnits="userSpaceOnUse">
<stop stop-color="#CDD5E2"/>
<stop offset="1" stop-color="#CDD5E2" stop-opacity="0"/>
</linearGradient>
<linearGradient id="paint3_linear_14057_89497" x1="196.505" y1="57.4336" x2="196.505" y2="330.83" gradientUnits="userSpaceOnUse">
<stop stop-color="#CDD5E2"/>
<stop offset="1" stop-color="#CDD5E2" stop-opacity="0"/>
</linearGradient>
</defs>
</svg>
