<svg width="406" height="302" viewBox="0 0 406 302" fill="none" xmlns="http://www.w3.org/2000/svg">
<mask id="mask0_14057_93519" style="mask-type:alpha" maskUnits="userSpaceOnUse" x="0" y="0" width="406" height="302">
<rect width="405.823" height="301.875" fill="#D9D9D9"/>
</mask>
<g mask="url(#mask0_14057_93519)">
<g opacity="0.5">
<mask id="path-2-inside-1_14057_93519" fill="white">
<path d="M389.979 202.565C391.995 156.308 377.371 110.86 348.759 74.4588C320.146 38.0574 279.439 13.1119 234.015 4.14415C188.592 -4.82363 141.458 2.77982 101.159 25.5762C60.859 48.3727 30.0607 84.8533 14.3462 128.405L15.1858 128.708C30.8279 85.357 61.4843 49.0446 101.598 26.3532C141.712 3.66186 188.628 -3.90654 233.842 5.0199C279.057 13.9463 319.576 38.7768 348.057 75.0104C376.537 111.244 391.094 156.483 389.087 202.526L389.979 202.565Z"/>
</mask>
<path d="M389.979 202.565C391.995 156.308 377.371 110.86 348.759 74.4588C320.146 38.0574 279.439 13.1119 234.015 4.14415C188.592 -4.82363 141.458 2.77982 101.159 25.5762C60.859 48.3727 30.0607 84.8533 14.3462 128.405L15.1858 128.708C30.8279 85.357 61.4843 49.0446 101.598 26.3532C141.712 3.66186 188.628 -3.90654 233.842 5.0199C279.057 13.9463 319.576 38.7768 348.057 75.0104C376.537 111.244 391.094 156.483 389.087 202.526L389.979 202.565Z" stroke="url(#paint0_linear_14057_93519)" stroke-width="2.84788" stroke-dasharray="4.27 4.27" mask="url(#path-2-inside-1_14057_93519)"/>
</g>
<g opacity="0.5">
<mask id="path-3-inside-2_14057_93519" fill="white">
<path d="M14.6043 260.572C30.4892 304.063 61.4301 340.422 101.819 363.061C142.207 385.699 189.37 393.118 234.758 383.973C280.146 374.827 320.756 349.723 349.225 313.21C377.695 276.697 392.141 231.192 389.944 184.943L389.052 184.986C391.239 231.021 376.86 276.316 348.521 312.661C320.183 349.006 279.761 373.994 234.582 383.098C189.403 392.201 142.457 384.816 102.255 362.282C62.0527 339.748 31.2544 303.556 15.4428 260.266L14.6043 260.572Z"/>
</mask>
<path d="M14.6043 260.572C30.4892 304.063 61.4301 340.422 101.819 363.061C142.207 385.699 189.37 393.118 234.758 383.973C280.146 374.827 320.756 349.723 349.225 313.21C377.695 276.697 392.141 231.192 389.944 184.943L389.052 184.986C391.239 231.021 376.86 276.316 348.521 312.661C320.183 349.006 279.761 373.994 234.582 383.098C189.403 392.201 142.457 384.816 102.255 362.282C62.0527 339.748 31.2544 303.556 15.4428 260.266L14.6043 260.572Z" stroke="url(#paint1_linear_14057_93519)" stroke-width="2.84788" stroke-dasharray="4.27 4.27" mask="url(#path-3-inside-2_14057_93519)"/>
</g>
<circle opacity="0.08" cx="196.502" cy="194.133" r="170.873" fill="url(#paint2_linear_14057_93519)"/>
<circle opacity="0.1" cx="196.505" cy="194.132" r="136.698" fill="url(#paint3_linear_14057_93519)"/>
<circle cx="196.505" cy="194.134" r="91.1321" fill="white"/>
<g filter="url(#filter0_d_14057_93519)">
<circle cx="15.3224" cy="125.09" r="7.11969" transform="rotate(-2.50406 15.3224 125.09)" fill="#0170FF"/>
<circle cx="15.3224" cy="125.09" r="8.13822" transform="rotate(-2.50406 15.3224 125.09)" stroke="white" stroke-width="2.03704"/>
</g>
<g filter="url(#filter1_d_14057_93519)">
<circle cx="389.993" cy="182.517" r="7.11969" transform="rotate(-15.7345 389.993 182.517)" fill="#0170FF"/>
<circle cx="389.993" cy="182.517" r="8.13822" transform="rotate(-15.7345 389.993 182.517)" stroke="white" stroke-width="2.03704"/>
</g>
</g>
<path d="M345.386 288.547H92.4981C92.3168 288.547 92.1426 288.475 92.0144 288.347C91.8862 288.219 91.8145 288.045 91.8145 287.863C91.8145 287.682 91.8862 287.508 92.0144 287.38C92.1426 287.252 92.3168 287.18 92.4981 287.18H345.386C345.568 287.18 345.741 287.252 345.87 287.38C345.998 287.508 346.07 287.682 346.07 287.863C346.07 288.045 345.998 288.219 345.87 288.347C345.741 288.475 345.568 288.547 345.386 288.547Z" fill="#1D1D1B"/>
<path d="M357.264 298.402H318.481C318.299 298.402 318.125 298.33 317.997 298.202C317.869 298.074 317.797 297.9 317.797 297.718C317.797 297.537 317.869 297.363 317.997 297.235C318.125 297.107 318.299 297.035 318.481 297.035H357.275C357.456 297.035 357.63 297.107 357.758 297.235C357.886 297.363 357.958 297.537 357.958 297.718C357.958 297.9 357.886 298.074 357.758 298.202C357.63 298.33 357.456 298.402 357.275 298.402H357.264Z" fill="#1D1D1B"/>
<path d="M116.341 299.92H77.5469C77.3656 299.92 77.1918 299.848 77.0636 299.719C76.9354 299.591 76.8633 299.417 76.8633 299.236C76.8633 299.055 76.9354 298.881 77.0636 298.753C77.1918 298.624 77.3656 298.552 77.5469 298.552H116.341C116.522 298.552 116.696 298.624 116.825 298.753C116.953 298.881 117.025 299.055 117.025 299.236C117.025 299.417 116.953 299.591 116.825 299.719C116.696 299.848 116.522 299.92 116.341 299.92Z" fill="#1D1D1B"/>
<path d="M268.696 169.089C267.604 169.102 266.512 169.04 265.428 168.904C265.361 168.894 265.296 168.871 265.238 168.836C265.179 168.801 265.128 168.754 265.088 168.699C265.047 168.645 265.018 168.583 265.002 168.516C264.985 168.45 264.982 168.382 264.992 168.314C265.002 168.247 265.025 168.182 265.06 168.124C265.096 168.066 265.142 168.015 265.197 167.974C265.251 167.934 265.314 167.905 265.38 167.888C265.446 167.872 265.515 167.868 265.582 167.879C265.643 167.879 271.875 168.781 280.318 166.313C288.101 164.033 299.423 158.345 309.127 144.176C309.208 144.074 309.324 144.007 309.452 143.987C309.581 143.968 309.712 143.998 309.819 144.071C309.926 144.144 310.002 144.256 310.03 144.382C310.058 144.509 310.037 144.642 309.972 144.754C300.079 159.196 288.515 164.994 280.551 167.315C276.702 168.46 272.711 169.057 268.696 169.089Z" fill="black"/>
<path d="M289.059 176.835C283.299 176.835 279.529 175.392 279.368 175.327C279.249 175.273 279.155 175.175 279.106 175.053C279.057 174.932 279.056 174.796 279.104 174.674C279.151 174.552 279.244 174.453 279.362 174.397C279.481 174.341 279.616 174.333 279.741 174.373C279.895 174.431 295.236 180.184 310.751 167.991C310.804 167.948 310.865 167.915 310.931 167.895C310.996 167.875 311.065 167.868 311.134 167.875C311.202 167.883 311.268 167.904 311.328 167.937C311.388 167.97 311.441 168.015 311.483 168.069C311.525 168.123 311.557 168.185 311.575 168.251C311.593 168.317 311.597 168.387 311.588 168.455C311.578 168.523 311.556 168.588 311.521 168.647C311.486 168.706 311.439 168.757 311.384 168.798C303.033 175.361 294.785 176.79 289.336 176.835H289.059Z" fill="black"/>
<path d="M233.996 152.694C233.996 152.694 233.613 164.217 241.964 162.699C250.315 161.181 268.162 157.763 271.58 170.295C274.998 182.826 273.477 185.103 282.59 185.861C291.703 186.62 306.453 203.845 285.222 218.202C263.991 232.559 216.904 162.699 216.904 162.699L218.883 155.828L233.996 152.694Z" fill="#382256"/>
<path d="M233.995 152.694C233.995 152.694 233.653 162.839 240.514 162.839C241 162.837 241.485 162.79 241.963 162.699C245.446 162.067 250.577 161.103 255.636 161.103C262.699 161.103 269.597 162.986 271.59 170.295C275.008 182.823 273.487 185.103 282.6 185.862C291.713 186.62 306.463 203.845 285.232 218.202C283.297 219.504 281.01 220.183 278.679 220.147C255.629 220.147 216.914 162.699 216.914 162.699L218.893 155.829L234.005 152.694H233.995ZM234.005 151.669C233.935 151.668 233.865 151.675 233.797 151.689L218.685 154.827C218.502 154.864 218.332 154.951 218.195 155.077C218.058 155.204 217.957 155.366 217.905 155.545L215.93 162.416C215.888 162.56 215.878 162.711 215.901 162.859C215.924 163.008 215.979 163.149 216.063 163.274C222.969 173.284 230.419 182.907 238.381 192.1C255.253 211.393 268.803 221.173 278.679 221.173C281.215 221.207 283.701 220.467 285.806 219.053C297.921 210.849 297.801 202.263 296.652 197.86C294.755 190.606 287.898 185.27 282.685 184.836C276.02 184.279 275.801 183.346 274.088 176.065C273.681 174.339 273.223 172.38 272.577 170.021C270.779 163.421 265.078 160.074 255.636 160.074C250.649 160.074 245.511 161.011 242.11 161.629L241.792 161.688C241.374 161.767 240.95 161.808 240.524 161.811C239.929 161.831 239.335 161.726 238.783 161.501C238.231 161.277 237.733 160.939 237.321 160.508C234.884 157.989 235.028 152.776 235.028 152.725C235.032 152.587 235.009 152.45 234.959 152.322C234.91 152.193 234.835 152.076 234.739 151.977C234.644 151.879 234.529 151.8 234.402 151.746C234.276 151.693 234.14 151.665 234.002 151.665L234.005 151.669Z" fill="black"/>
<path d="M287.472 216.575C286.655 197.542 257.531 176.383 248.038 172.965C238.546 169.546 227.156 164.231 225.638 160.057C224.12 155.884 231.073 154.386 231.073 154.386L229.05 153.733L218.883 155.842L216.904 162.713C216.904 162.713 263.988 232.576 285.222 218.216C286.026 217.659 286.771 217.112 287.472 216.575Z" fill="#050505"/>
<path d="M197.315 174.889C197.315 174.889 190.099 177.928 194.276 182.105C198.453 186.282 204.873 183.514 208.124 181.48C208.124 181.48 207.187 186.662 214.02 185.899C220.853 185.137 226.168 183.243 225.41 174.889H197.315Z" fill="white"/>
<path d="M225.41 174.889C226.168 183.244 220.853 185.144 214.02 185.9C213.59 185.951 213.158 185.977 212.725 185.978C207.31 185.978 208.124 181.48 208.124 181.48C206.117 182.738 202.89 184.279 199.731 184.279C198.72 184.308 197.713 184.13 196.773 183.756C195.832 183.382 194.978 182.821 194.262 182.105C190.085 177.928 197.301 174.889 197.301 174.889H225.396H225.41ZM225.396 173.864H197.301C197.164 173.864 197.028 173.892 196.901 173.946C196.46 174.13 192.58 175.843 192.006 178.769C191.729 180.174 192.246 181.538 193.538 182.83C194.346 183.641 195.31 184.278 196.373 184.704C197.435 185.129 198.573 185.334 199.718 185.305C202.558 185.305 205.338 184.16 207.156 183.209C207.298 183.951 207.623 184.646 208.103 185.23C209.087 186.405 210.636 187.004 212.711 187.004C213.181 187.002 213.652 186.975 214.119 186.922C217.196 186.58 220.699 185.968 223.178 184.054C225.745 182.071 226.804 179.042 226.418 174.797C226.395 174.541 226.277 174.304 226.087 174.131C225.897 173.958 225.649 173.863 225.393 173.864H225.396Z" fill="black"/>
<path d="M256.269 116.867C256.233 116.863 256.199 116.853 256.167 116.837C256.109 116.813 256.056 116.777 256.012 116.733C255.968 116.689 255.933 116.636 255.91 116.578C255.886 116.52 255.875 116.458 255.875 116.396C255.876 116.333 255.889 116.272 255.914 116.214C256.915 113.842 257.014 111.641 256.208 109.672C254.765 106.147 250.868 104.496 250.827 104.479C250.711 104.431 250.618 104.339 250.57 104.223C250.521 104.106 250.521 103.975 250.569 103.859C250.617 103.742 250.71 103.65 250.826 103.601C250.942 103.553 251.073 103.553 251.189 103.601C251.364 103.673 255.486 105.409 257.086 109.303C257.995 111.518 257.896 113.969 256.789 116.584C256.747 116.683 256.673 116.765 256.579 116.817C256.484 116.869 256.375 116.886 256.269 116.867Z" fill="black"/>
<path d="M245.154 115.411H245.116C245.049 115.406 244.983 115.388 244.923 115.358C244.862 115.328 244.808 115.286 244.764 115.235C244.72 115.184 244.686 115.124 244.665 115.06C244.644 114.996 244.636 114.928 244.641 114.861C244.86 111.921 244.19 109.621 242.652 108.024C240.132 105.416 236.102 105.539 236.061 105.539C235.994 105.542 235.927 105.531 235.863 105.507C235.8 105.484 235.743 105.448 235.693 105.402C235.644 105.357 235.604 105.301 235.576 105.24C235.548 105.179 235.532 105.113 235.53 105.045C235.527 104.978 235.538 104.911 235.561 104.848C235.585 104.785 235.621 104.727 235.667 104.677C235.712 104.628 235.767 104.588 235.829 104.56C235.89 104.532 235.956 104.516 236.023 104.514C236.205 104.514 240.556 104.374 243.39 107.31C245.14 109.125 245.906 111.689 245.667 114.936C245.657 115.066 245.599 115.187 245.504 115.275C245.409 115.363 245.284 115.412 245.154 115.411Z" fill="white"/>
<path d="M240.165 128.753C246.576 128.753 251.774 123.556 251.774 117.145C251.774 110.733 246.576 105.536 240.165 105.536C233.754 105.536 228.557 110.733 228.557 117.145C228.557 123.556 233.754 128.753 240.165 128.753Z" fill="#382256"/>
<path d="M242.162 105.707C244.428 106.1 246.526 107.156 248.191 108.742C249.857 110.328 251.014 112.372 251.517 114.616C252.02 116.86 251.846 119.202 251.017 121.347C250.188 123.492 248.742 125.343 246.861 126.666C244.979 127.988 242.748 128.723 240.449 128.777C238.15 128.831 235.887 128.202 233.946 126.969C232.005 125.736 230.473 123.956 229.544 121.852C228.615 119.748 228.331 117.417 228.728 115.152C229.26 112.119 230.973 109.421 233.492 107.65C236.01 105.88 239.129 105.181 242.162 105.707ZM242.323 104.774C239.876 104.348 237.358 104.656 235.086 105.661C232.815 106.666 230.893 108.323 229.562 110.42C228.232 112.517 227.554 114.962 227.613 117.445C227.672 119.928 228.466 122.338 229.895 124.37C231.323 126.401 233.322 127.964 235.639 128.86C237.955 129.755 240.486 129.944 242.909 129.402C245.333 128.86 247.542 127.611 249.256 125.814C250.971 124.017 252.113 121.751 252.54 119.305C253.109 116.023 252.353 112.65 250.437 109.926C248.521 107.202 245.603 105.349 242.323 104.774Z" fill="black"/>
<path d="M192.611 126.746C192.611 126.746 190.314 116.303 197.397 112.54C204.48 108.776 205.625 110.407 209.228 108.178C212.831 105.949 220.85 106.992 224.932 112.345C224.932 112.345 234.937 112.304 239.63 118.125C244.324 123.946 244.3 128.223 242.577 133.993C240.854 139.763 241.004 143.007 239.931 147.105C238.858 151.204 234.178 161.462 216.98 158.82C199.783 156.177 192.611 126.746 192.611 126.746Z" fill="#382256"/>
<path d="M216.276 107.292C219.445 107.843 222.771 109.473 224.945 112.345C226.321 112.371 227.692 112.507 229.047 112.751C232.359 113.329 236.909 114.731 239.643 118.125C244.344 123.936 244.313 128.223 242.59 133.993C240.867 139.763 241.018 143.007 239.944 147.105C238.871 151.204 234.191 161.462 216.994 158.82C216.888 158.82 216.782 158.785 216.676 158.768C199.704 155.808 192.618 126.746 192.618 126.746C192.618 126.746 190.321 116.303 197.404 112.539C204.486 108.776 205.631 110.406 209.234 108.178C210.906 107.152 213.531 106.81 216.269 107.292H216.276ZM216.433 106.356C213.473 105.84 210.598 106.219 208.735 107.381C207.276 108.284 206.301 108.485 204.954 108.749C203.197 109.107 201.01 109.552 196.959 111.705C193.767 113.415 191.849 116.6 191.408 120.962C191.213 122.961 191.306 124.978 191.685 126.951V126.975C193.064 132.197 194.987 137.26 197.424 142.08C199.728 146.599 202.299 150.335 205.064 153.179C208.581 156.803 212.43 158.991 216.502 159.708L216.843 159.763C224.535 160.949 230.677 159.763 235.104 156.239C237.925 153.969 239.943 150.854 240.86 147.351C241.277 145.673 241.598 143.973 241.821 142.258C242.17 139.557 242.73 136.887 243.496 134.273C245.273 128.315 245.335 123.676 240.381 117.523C237.459 113.903 232.691 112.42 229.204 111.811C227.948 111.589 226.678 111.452 225.403 111.401C223.28 108.81 220.036 106.981 216.433 106.352V106.356Z" fill="black"/>
<path d="M151.33 163.849C172.441 157.251 225.363 167.434 240.253 186.153C248.731 196.808 257.345 216.675 265.89 241.498C269.503 251.993 276.015 261.817 288.273 260.641C296.204 259.868 304.483 265.426 303.314 270.814C301.051 281.41 282.151 288.312 282.151 288.312L132.516 287.693C132.516 287.693 115.199 253.281 131.651 218.702C131.651 218.702 99.1361 232.375 85.815 226.441C72.4939 220.507 55.0503 184.109 68.3577 180.407L65.7359 171.379L86.4372 159.606L90.7989 165.134C90.7989 165.134 97.5227 157.135 102.236 162.956C106.95 168.778 114.406 180.629 114.406 180.629C114.406 180.629 119.588 173.775 151.33 163.849Z" fill="#07ACEE"/>
<path d="M282.182 288.811L132.547 288.192C132.452 288.192 132.359 288.166 132.278 288.116C132.197 288.067 132.132 287.996 132.089 287.912C132.048 287.823 127.7 279.093 125.44 266.24C123.389 254.635 122.705 237.243 130.663 219.659C125.796 221.611 107.802 228.444 94.5763 228.447C91.1819 228.447 88.1023 227.996 85.6377 226.895C75.2837 222.277 62.2564 199.276 63.1554 187.199C63.4323 183.487 65.0184 181.029 67.7564 180.055L65.2748 171.509C65.2429 171.398 65.2491 171.28 65.2925 171.173C65.3359 171.067 65.4141 170.978 65.5142 170.921L86.2152 159.148C86.3213 159.087 86.446 159.067 86.566 159.091C86.6861 159.115 86.7934 159.181 86.8681 159.278L90.8572 164.327C91.9443 163.175 94.9798 160.307 98.2306 160.307H98.2817C99.9601 160.307 101.437 161.1 102.667 162.621C106.769 167.677 112.97 177.351 114.515 179.781C116.364 177.98 124.226 171.786 151.193 163.373L151.344 163.862L151.193 163.373C161.448 160.174 179.907 160.82 198.253 165.021C218.339 169.622 233.803 177.214 240.671 185.849C248.516 195.714 256.931 213.879 266.39 241.344C271.011 254.768 278.354 261.089 288.239 260.128C293.261 259.643 298.894 261.676 301.912 265.074C303.56 266.924 304.24 268.998 303.83 270.92C301.533 281.66 283.126 288.507 282.343 288.794C282.29 288.808 282.236 288.813 282.182 288.811ZM132.871 287.17L282.09 287.785C283.457 287.266 300.744 280.525 302.842 270.694C303.28 268.643 302.159 266.876 301.164 265.748C298.334 262.576 293.056 260.682 288.338 261.14C287.655 261.208 286.971 261.239 286.287 261.242C276.911 261.242 269.9 254.669 265.436 241.669C256.012 214.302 247.661 196.251 239.881 186.478C233.154 178.021 217.901 170.559 198.038 166.009C179.856 161.845 161.592 161.192 151.511 164.341C120.446 174.049 114.912 180.861 114.857 180.93C114.808 180.997 114.743 181.05 114.667 181.085C114.592 181.12 114.509 181.136 114.426 181.131C114.344 181.127 114.263 181.103 114.192 181.062C114.121 181.02 114.06 180.962 114.016 180.892C113.941 180.776 106.523 169.003 101.881 163.267C100.856 161.999 99.6457 161.35 98.2887 161.336H98.2443C94.744 161.336 91.271 165.414 91.2368 165.438C91.1892 165.498 91.1281 165.545 91.0585 165.577C90.989 165.608 90.9131 165.623 90.8369 165.619C90.7603 165.619 90.6847 165.602 90.6159 165.568C90.5471 165.534 90.487 165.485 90.4403 165.424L86.3384 160.246L66.3721 171.598L68.8811 180.236C68.9183 180.368 68.9024 180.509 68.8367 180.629C68.7688 180.748 68.6572 180.836 68.5255 180.875C65.9003 181.603 64.4237 183.753 64.1776 187.26C63.3025 199.033 75.9775 221.443 86.0546 225.945C99.0236 231.732 131.159 218.339 131.48 218.203C131.575 218.164 131.679 218.154 131.78 218.175C131.88 218.196 131.972 218.246 132.043 218.32C132.115 218.393 132.163 218.487 132.18 218.588C132.198 218.689 132.185 218.793 132.143 218.886C123.711 236.614 124.391 254.296 126.445 266.004C128.452 277.462 132.119 285.587 132.871 287.17Z" fill="#1D1D1B"/>
<path d="M196.35 162.508C196.35 162.508 188.146 163.715 191.906 171.256C195.666 178.796 202.982 176.52 202.982 176.52C202.982 176.52 217.461 192.244 221.905 172.582L196.35 162.508Z" fill="white"/>
<path d="M213.726 182.994C208.841 182.994 203.919 178.209 202.832 177.091C201.335 177.433 194.932 178.414 191.463 171.485C190.26 169.092 190.096 167.021 190.96 165.356C192.396 162.601 196.119 162.026 196.279 162.002L196.412 161.982L222.518 172.264L222.419 172.695C221.11 178.506 218.778 181.89 215.493 182.765C214.917 182.919 214.323 182.996 213.726 182.994ZM203.153 175.935L203.375 176.175C203.44 176.243 209.922 183.196 215.234 181.774C218.04 181.025 220.087 178.038 221.321 172.886L196.3 163.028C195.671 163.151 192.922 163.79 191.856 165.824C191.152 167.191 191.323 168.928 192.369 171.017C195.91 178.089 202.552 176.11 202.835 176.021L203.153 175.935Z" fill="#1D1D1B"/>
<path d="M214.905 230.573C216.187 230.573 217.226 229.534 217.226 228.252C217.226 226.97 216.187 225.931 214.905 225.931C213.623 225.931 212.584 226.97 212.584 228.252C212.584 229.534 213.623 230.573 214.905 230.573Z" fill="#51CEF4"/>
<path d="M170.844 193.112C172.126 193.112 173.165 192.073 173.165 190.791C173.165 189.509 172.126 188.47 170.844 188.47C169.563 188.47 168.523 189.509 168.523 190.791C168.523 192.073 169.563 193.112 170.844 193.112Z" fill="#51CEF4"/>
<path d="M155.454 233.452C156.736 233.452 157.775 232.412 157.775 231.131C157.775 229.849 156.736 228.81 155.454 228.81C154.172 228.81 153.133 229.849 153.133 231.131C153.133 232.412 154.172 233.452 155.454 233.452Z" fill="#51CEF4"/>
<path d="M180.19 224.776C181.472 224.776 182.511 223.737 182.511 222.455C182.511 221.173 181.472 220.134 180.19 220.134C178.908 220.134 177.869 221.173 177.869 222.455C177.869 223.737 178.908 224.776 180.19 224.776Z" fill="#51CEF4"/>
<path d="M232.335 196.055C233.617 196.055 234.655 195.016 234.655 193.734C234.655 192.452 233.617 191.413 232.335 191.413C231.053 191.413 230.014 192.452 230.014 193.734C230.014 195.016 231.053 196.055 232.335 196.055Z" fill="#51CEF4"/>
<path d="M206.743 205.155C208.025 205.155 209.064 204.116 209.064 202.834C209.064 201.552 208.025 200.513 206.743 200.513C205.461 200.513 204.422 201.552 204.422 202.834C204.422 204.116 205.461 205.155 206.743 205.155Z" fill="#51CEF4"/>
<path d="M170.542 179.945C171.824 179.945 172.863 178.906 172.863 177.624C172.863 176.342 171.824 175.303 170.542 175.303C169.26 175.303 168.221 176.342 168.221 177.624C168.221 178.906 169.26 179.945 170.542 179.945Z" fill="#51CEF4"/>
<path d="M121.305 201.309C122.587 201.309 123.626 200.27 123.626 198.988C123.626 197.706 122.587 196.667 121.305 196.667C120.024 196.667 118.984 197.706 118.984 198.988C118.984 200.27 120.024 201.309 121.305 201.309Z" fill="#51CEF4"/>
<path d="M97.1003 183.585C98.3822 183.585 99.4214 182.546 99.4214 181.264C99.4214 179.983 98.3822 178.943 97.1003 178.943C95.8185 178.943 94.7793 179.983 94.7793 181.264C94.7793 182.546 95.8185 183.585 97.1003 183.585Z" fill="#51CEF4"/>
<path d="M79.4285 193.314C80.7103 193.314 81.7495 192.275 81.7495 190.993C81.7495 189.711 80.7103 188.672 79.4285 188.672C78.1466 188.672 77.1074 189.711 77.1074 190.993C77.1074 192.275 78.1466 193.314 79.4285 193.314Z" fill="#51CEF4"/>
<path d="M236.067 197.026C237.349 197.026 238.388 195.987 238.388 194.705C238.388 193.423 237.349 192.384 236.067 192.384C234.785 192.384 233.746 193.423 233.746 194.705C233.746 195.987 234.785 197.026 236.067 197.026Z" fill="#51CEF4"/>
<path d="M66.7461 171.775L86.3946 160.358L90.8076 165.742C90.8076 165.742 85.2767 178.971 69.009 180.382L66.7461 171.775Z" fill="#0598C6"/>
<path d="M129.503 224.27C129.455 224.27 129.408 224.263 129.363 224.249C129.234 224.21 129.125 224.122 129.061 224.004C128.997 223.885 128.983 223.746 129.021 223.617C132.009 213.136 145.032 193.666 145.583 192.852C145.659 192.739 145.776 192.661 145.91 192.635C146.044 192.609 146.182 192.638 146.295 192.714C146.408 192.79 146.486 192.908 146.512 193.042C146.538 193.175 146.51 193.314 146.434 193.426C146.3 193.625 132.952 213.594 130.005 223.907C129.973 224.014 129.906 224.108 129.815 224.173C129.724 224.238 129.615 224.272 129.503 224.27Z" fill="#1D1E1B"/>
<path d="M124.101 182.659C123.886 182.658 123.676 182.59 123.501 182.464C123.327 182.337 123.197 182.159 123.13 181.954C123.062 181.749 123.061 181.528 123.126 181.323C123.191 181.118 123.32 180.938 123.493 180.81C138.875 169.461 153.335 166.566 162.752 166.135C173.007 165.667 179.501 167.878 179.792 167.971C180.049 168.061 180.26 168.25 180.377 168.496C180.495 168.742 180.51 169.024 180.42 169.281C180.329 169.538 180.14 169.749 179.894 169.867C179.648 169.984 179.365 169.999 179.108 169.909C179.03 169.881 172.614 167.724 162.728 168.2C153.622 168.63 139.627 171.457 124.696 182.468C124.523 182.592 124.315 182.658 124.101 182.659Z" fill="white"/>
<path d="M284.218 284.155C284.218 284.155 285.77 275.346 305.456 271.203C325.142 267.06 339.639 288.294 339.639 288.294H284.215L284.218 284.155Z" fill="white"/>
<path d="M340.616 288.811H283.705V284.066C283.77 283.69 285.547 274.871 305.343 270.701C313.547 268.974 322.154 271.429 330.242 277.794C333.962 280.738 337.264 284.174 340.059 288.007L340.616 288.811ZM284.731 287.785H338.651C336.026 284.358 332.989 281.268 329.609 278.583C324.14 274.286 315.543 269.607 305.579 271.706C287.096 275.596 284.888 283.598 284.748 284.206L284.731 287.785Z" fill="#1D1E1B"/>
<path d="M313.74 262.917C317.887 260.842 327.728 262.917 329.806 267.06C331.885 271.203 328.254 274.31 324.628 275.346C321.001 276.381 315.962 271.244 315.962 271.244L313.74 262.917Z" fill="#FFCDB2"/>
<path d="M323.61 275.995C319.953 275.995 315.796 271.808 315.601 271.61L315.509 271.514L313.15 262.643L313.523 262.455C315.605 261.43 319.112 261.303 322.681 262.158C326.417 263.054 329.257 264.8 330.269 266.831C330.655 267.534 330.876 268.316 330.916 269.117C330.957 269.918 330.815 270.717 330.502 271.456C329.476 273.773 326.871 275.24 324.773 275.841C324.394 275.946 324.003 275.998 323.61 275.995ZM316.432 270.984C317.115 271.668 321.46 275.722 324.495 274.854C326.372 274.317 328.686 273.035 329.565 271.042C330.084 269.866 330.013 268.601 329.356 267.282C328.474 265.522 325.89 263.977 322.445 263.149C319.368 262.408 316.264 262.435 314.364 263.197L316.432 270.984Z" fill="#1D1D1B"/>
<path d="M299.756 270.686C299.756 270.686 301.827 261.877 309.081 260.841C316.335 259.806 322.549 263.432 322.029 270.686C321.51 277.94 312.704 278.972 308.042 277.42C303.379 275.868 299.756 270.686 299.756 270.686Z" fill="#FFCDB2"/>
<path d="M312.2 278.552C310.736 278.563 309.279 278.345 307.882 277.906C303.114 276.316 299.487 271.196 299.337 270.98L299.203 270.792L299.258 270.567C299.343 270.194 301.497 261.409 309.007 260.336C313.335 259.717 317.252 260.705 319.758 263.04C321.809 264.947 322.765 267.603 322.543 270.721C322.486 271.915 322.146 273.078 321.552 274.116C320.958 275.153 320.126 276.035 319.125 276.689C317.156 278.005 314.603 278.552 312.2 278.552ZM300.314 270.581C300.998 271.51 304.259 275.616 308.207 276.932C311.092 277.896 315.573 277.827 318.554 275.838C319.427 275.273 320.153 274.507 320.668 273.604C321.184 272.701 321.475 271.688 321.518 270.649C321.719 267.849 320.869 265.477 319.06 263.792C316.777 261.666 313.167 260.777 309.147 261.351C302.957 262.237 300.707 269.234 300.314 270.584V270.581Z" fill="#1D1D1B"/>
<path d="M283.699 277.421C279.303 279.619 278.52 284.155 279.036 288.298C279.552 292.441 284.734 296.068 289.397 293.996C294.059 291.925 291.988 286.743 289.397 284.155C286.806 281.567 291.468 277.421 294.059 281.044C296.65 284.668 303.9 284.155 308.043 281.044C312.186 277.934 309.069 270.167 303.384 268.096C297.7 266.024 291.468 264.989 288.877 270.687C286.286 276.385 285.77 276.395 283.699 277.421Z" fill="#FFCDB2"/>
<path d="M286.573 295.107C285.177 295.098 283.808 294.728 282.597 294.034C280.365 292.772 278.806 290.598 278.526 288.359C278.047 284.527 278.526 279.438 283.469 276.959L283.811 276.799C285.52 275.951 286.053 275.695 288.425 270.471C291.351 264.035 298.472 265.758 303.572 267.614C307.051 268.879 309.855 272.276 310.388 275.872C310.73 278.231 310.022 280.214 308.368 281.454C305.477 283.516 301.914 284.408 298.393 283.953C296.281 283.628 294.633 282.726 293.655 281.345C292.831 280.193 291.909 280.063 291.262 280.162C290.806 280.239 290.379 280.435 290.024 280.732C289.669 281.029 289.401 281.415 289.246 281.851C289.13 282.189 289.118 282.554 289.209 282.899C289.3 283.245 289.491 283.555 289.758 283.793C291.508 285.543 293.067 288.438 292.599 290.971C292.312 292.52 291.276 293.733 289.604 294.475C288.65 294.897 287.617 295.112 286.573 295.107ZM283.927 277.879C279.51 280.087 279.107 284.715 279.544 288.233C279.784 290.157 281.148 292.038 283.1 293.142C284.012 293.68 285.039 293.996 286.097 294.063C287.155 294.13 288.214 293.947 289.187 293.528C290.555 292.919 291.365 291.993 291.58 290.773C291.977 288.629 290.534 286.025 289.024 284.517C288.624 284.144 288.34 283.665 288.205 283.135C288.07 282.606 288.089 282.048 288.261 281.53C288.474 280.912 288.85 280.363 289.349 279.942C289.849 279.52 290.453 279.242 291.098 279.137C291.847 279.021 293.279 279.079 294.465 280.737C295.491 282.193 297.248 282.733 298.526 282.931C301.774 283.349 305.059 282.525 307.725 280.624C309.065 279.619 309.643 277.981 309.352 276.013C308.877 272.823 306.276 269.692 303.199 268.568C295.703 265.833 291.297 266.578 289.338 270.889C286.914 276.221 286.282 276.7 284.245 277.708L283.927 277.879Z" fill="#1D1D1B"/>
<path d="M43.9336 141.982C43.9336 141.982 36.6662 159.634 63.6502 169.034C63.6502 169.034 78.4856 173.498 85.6982 166.662V164.765C85.6982 164.765 96.329 158.307 94.4318 151.091C94.4318 151.091 86.8365 148.435 78.1028 157.166C78.1028 157.166 73.5497 143.879 59.5005 143.879C59.5005 143.879 53.8056 140.461 51.5256 143.499C51.5154 143.503 48.8696 140.084 43.9336 141.982Z" fill="#FFCDB2"/>
<path d="M46.8248 141.407C47.7126 141.4 48.5916 141.583 49.4025 141.944C50.2134 142.306 50.9373 142.837 51.5249 143.503C52.2086 142.566 53.234 142.241 54.3347 142.241C56.7685 142.241 59.4998 143.882 59.4998 143.882C73.549 143.882 78.1021 157.169 78.1021 157.169C83.5338 151.741 88.5211 150.715 91.5189 150.715C92.5034 150.693 93.4854 150.821 94.4311 151.095C96.3283 158.307 85.6975 164.768 85.6975 164.768V166.668C82.5697 169.632 78.0098 170.473 73.8463 170.473C70.3996 170.44 66.9719 169.959 63.6495 169.041C36.6656 159.64 43.9329 141.988 43.9329 141.988C44.8535 141.621 45.8338 141.427 46.8248 141.414V141.407ZM46.8248 140.389C45.7076 140.402 44.6023 140.62 43.5637 141.031C43.4333 141.081 43.3145 141.157 43.2146 141.255C43.1146 141.353 43.0357 141.47 42.9826 141.599C41.4761 145.946 41.709 150.706 43.6322 154.886C46.5582 161.38 53.1758 166.477 63.311 170.008H63.3521C66.7705 170.957 70.2987 171.454 73.8463 171.485C79.3156 171.485 83.5438 170.118 86.4015 167.4C86.5029 167.304 86.5839 167.189 86.6392 167.061C86.6944 166.932 86.7229 166.794 86.723 166.655V165.318C88.9038 163.879 97.265 157.829 95.4226 150.828C95.38 150.666 95.2981 150.516 95.1842 150.393C95.0704 150.27 94.9281 150.176 94.7696 150.121C93.715 149.808 92.6186 149.661 91.5189 149.683C88.3707 149.683 83.6364 150.709 78.4713 155.395C77.5184 153.389 76.2971 151.521 74.8411 149.844C72.9848 147.657 70.6763 145.9 68.0749 144.693C65.4735 143.485 62.6412 142.856 59.7732 142.85C58.9973 142.423 56.5976 141.213 54.3347 141.209C53.3306 141.181 52.3445 141.479 51.5249 142.06C50.2042 140.965 48.5406 140.368 46.8248 140.375V140.389Z" fill="black"/>
<path d="M76.2054 163.756H76.178C76.0426 163.749 75.9155 163.688 75.8245 163.588C75.7336 163.487 75.6862 163.355 75.6927 163.219C75.6927 163.154 75.7266 161.818 74.3627 160.485C72.8689 159.049 69.4814 157.456 61.8176 158.047C61.7229 158.054 61.6283 158.035 61.5438 157.992C61.4594 157.948 61.3886 157.882 61.3392 157.801C61.2879 157.716 55.9928 149.051 51.1491 143.838C51.0786 143.735 51.0478 143.611 51.062 143.488C51.0761 143.364 51.1343 143.25 51.2262 143.167C51.3181 143.083 51.4372 143.036 51.5614 143.034C51.6855 143.031 51.8062 143.074 51.9012 143.154C56.345 147.922 61.1102 155.501 62.0502 157.015C68.3775 156.571 72.7663 157.504 75.1078 159.794C76.7999 161.449 76.7216 163.212 76.7182 163.274C76.7103 163.405 76.6526 163.527 76.5573 163.617C76.4619 163.706 76.3362 163.756 76.2054 163.756Z" fill="black"/>
<path d="M68.9918 155.405C68.8893 155.405 68.7893 155.374 68.7041 155.317C68.6189 155.26 68.5526 155.179 68.5135 155.084C68.493 155.026 66.1888 149.437 59.1813 143.903C59.1251 143.862 59.0778 143.811 59.0421 143.751C59.0064 143.692 58.9832 143.626 58.9737 143.558C58.9641 143.489 58.9685 143.419 58.9867 143.352C59.0049 143.285 59.0365 143.223 59.0795 143.169C59.1225 143.114 59.1758 143.069 59.2367 143.036C59.2976 143.003 59.3644 142.983 59.4333 142.976C59.5023 142.97 59.572 142.977 59.638 142.999C59.7039 143.02 59.7649 143.054 59.8172 143.099C67.0537 148.815 69.3712 154.465 69.4669 154.701C69.4918 154.764 69.5045 154.831 69.5036 154.898C69.5027 154.965 69.4882 155.032 69.4615 155.094C69.4349 155.156 69.3964 155.212 69.348 155.259C69.2997 155.306 69.2424 155.343 69.1798 155.368C69.1199 155.392 69.0563 155.404 68.9918 155.405Z" fill="black"/>
<path d="M63.0683 166.586C63.0285 166.59 62.9886 166.59 62.9488 166.586C52.1163 164.651 46.3768 154.151 46.1375 153.706C46.0518 153.546 46.0335 153.359 46.0861 153.185C46.1386 153.011 46.2579 152.865 46.4179 152.78C46.5779 152.694 46.7656 152.675 46.9393 152.728C47.113 152.781 47.2585 152.9 47.3442 153.06C47.3989 153.163 53.0188 163.424 63.1882 165.239C63.3695 165.255 63.5369 165.342 63.6539 165.482C63.7709 165.621 63.8276 165.802 63.8118 165.983C63.7959 166.164 63.7088 166.332 63.5694 166.449C63.43 166.566 63.2497 166.623 63.0683 166.607V166.586Z" fill="white"/>
<path d="M202.863 154.92L195.08 166.778C195.08 166.778 200.692 181.685 220.789 170.904C220.789 170.904 213.453 161.767 219.158 149.55C219.158 149.55 224.398 152.25 226.979 147.701C229.56 143.151 226.924 139.839 224.149 139.35C224.149 139.35 212.526 138.393 217.729 116.789C217.729 116.789 207.225 113.528 198.904 120.289C190.584 127.051 184.428 137.764 188.417 145.602C192.406 153.44 202.863 154.92 202.863 154.92Z" fill="#FFCDB2"/>
<path d="M215.845 116.379C216.481 116.483 217.11 116.624 217.729 116.803C212.984 136.516 222.258 139.021 223.905 139.315C224.063 139.343 224.148 139.35 224.148 139.35C226.924 139.835 229.559 143.151 226.978 147.7C225.474 150.353 223.061 150.541 221.314 150.237C220.568 150.108 219.842 149.878 219.157 149.553C213.452 161.77 220.788 170.907 220.788 170.907C213.975 174.561 208.824 175.266 204.999 174.596C197.533 173.293 195.086 166.781 195.086 166.781L202.869 154.923C202.869 154.923 202.784 154.923 202.623 154.882C201.02 154.605 192.05 152.742 188.423 145.619C184.434 137.781 190.587 127.068 198.911 120.306C205.084 115.288 212.457 115.791 215.852 116.382L215.845 116.379ZM216.016 115.446C212.133 114.762 204.667 114.403 198.309 119.568C193.866 123.181 190.269 127.652 188.188 132.161C185.795 137.333 185.583 142.139 187.576 146.05C190.857 152.496 198.173 154.848 201.3 155.58L194.293 166.258C194.211 166.383 194.159 166.526 194.142 166.674C194.126 166.823 194.144 166.973 194.197 167.113C195.129 169.292 196.591 171.204 198.45 172.674C200.309 174.144 202.506 175.127 204.842 175.532C209.518 176.349 215.038 175.074 221.249 171.745C221.373 171.679 221.48 171.587 221.563 171.475C221.647 171.363 221.705 171.234 221.732 171.097C221.76 170.96 221.757 170.819 221.724 170.683C221.691 170.548 221.628 170.421 221.54 170.313C220.271 168.543 219.322 166.565 218.737 164.467C217.424 159.935 217.735 155.337 219.663 150.794C220.152 150.967 220.654 151.1 221.164 151.191C224.069 151.697 226.431 150.63 227.819 148.186C229.132 145.872 229.351 143.53 228.438 141.599C228.052 140.785 227.479 140.074 226.766 139.523C226.054 138.973 225.221 138.598 224.336 138.43H224.251L224.093 138.406C223.41 138.29 221.106 137.705 219.39 135.09C216.97 131.402 216.723 125.177 218.675 117.052C218.731 116.817 218.696 116.57 218.577 116.36C218.458 116.15 218.263 115.993 218.033 115.921C217.375 115.732 216.708 115.581 216.033 115.47L216.016 115.446Z" fill="black"/>
<path d="M202.371 155.654C202.06 155.6 201.749 155.531 201.448 155.449C201.327 155.416 201.224 155.335 201.161 155.226C201.099 155.116 201.083 154.986 201.117 154.865C201.15 154.743 201.23 154.64 201.34 154.578C201.45 154.516 201.58 154.5 201.701 154.533C204.778 155.384 208.787 154.455 208.828 154.445C208.951 154.416 209.08 154.437 209.187 154.504C209.295 154.571 209.371 154.677 209.399 154.8C209.428 154.923 209.406 155.052 209.34 155.159C209.273 155.266 209.166 155.342 209.044 155.371C208.886 155.408 205.465 156.195 202.371 155.654Z" fill="black"/>
<path d="M220.885 147.834C220.782 147.815 220.687 147.763 220.616 147.686C220.546 147.608 220.502 147.509 220.494 147.405C220.485 147.3 220.512 147.195 220.569 147.107C220.626 147.019 220.71 146.952 220.81 146.918C222.597 146.285 223.616 145.458 223.838 144.463C224.156 143.041 222.775 141.66 222.761 141.646C222.671 141.556 222.62 141.433 222.62 141.305C222.62 141.176 222.671 141.053 222.761 140.963C222.852 140.872 222.975 140.821 223.103 140.821C223.231 140.821 223.354 140.872 223.445 140.963C223.517 141.035 225.212 142.734 224.785 144.662C224.484 145.998 223.261 147.054 221.141 147.806C221.06 147.839 220.971 147.848 220.885 147.834Z" fill="black"/>
<path d="M207.48 128.657C211.582 133.012 219.516 135.398 219.444 137.886C219.373 140.375 216.925 142.087 213.927 140.85C210.93 139.613 208.397 137.743 203.396 133.672C198.395 129.6 193.801 125.211 196.364 122.801C198.928 120.391 201.457 122.247 207.48 128.657Z" fill="#FFB49F"/>
<path d="M204.459 129.409C204.346 129.388 204.244 129.328 204.171 129.238C204.099 129.148 204.062 129.035 204.066 128.92C204.135 127.505 203.755 126.35 202.942 125.485C201.308 123.752 198.419 123.704 198.392 123.704C198.265 123.702 198.145 123.65 198.056 123.56C197.968 123.47 197.919 123.348 197.92 123.222C197.922 123.096 197.973 122.977 198.063 122.889C198.152 122.801 198.273 122.753 198.399 122.753C198.532 122.753 201.711 122.801 203.629 124.828C204.63 125.888 205.098 127.279 205.016 128.965C205.013 129.027 204.998 129.088 204.971 129.145C204.944 129.201 204.907 129.252 204.86 129.294C204.814 129.336 204.76 129.368 204.701 129.389C204.642 129.41 204.58 129.419 204.517 129.416L204.459 129.409Z" fill="black"/>
<path d="M215.934 138.936C215.839 138.919 215.75 138.874 215.681 138.805C215.612 138.737 215.566 138.649 215.548 138.553C214.523 133.152 209.706 133.494 209.505 133.511C209.379 133.522 209.254 133.482 209.158 133.401C209.061 133.32 209.001 133.204 208.99 133.078C208.979 132.953 209.019 132.828 209.1 132.732C209.181 132.635 209.297 132.575 209.423 132.564C209.481 132.564 215.305 132.12 216.481 138.375C216.493 138.436 216.493 138.499 216.48 138.561C216.468 138.622 216.443 138.68 216.407 138.731C216.372 138.783 216.327 138.827 216.275 138.861C216.222 138.895 216.163 138.918 216.102 138.929C216.047 138.94 215.99 138.942 215.934 138.936Z" fill="black"/>
<path d="M207.536 123.106C206.585 122.945 205.669 122.619 204.832 122.142C204.724 122.076 204.647 121.969 204.618 121.847C204.589 121.724 204.61 121.595 204.676 121.487C204.743 121.38 204.849 121.303 204.971 121.274C205.094 121.244 205.224 121.265 205.331 121.332C206.406 121.927 207.61 122.251 208.838 122.275C208.964 122.275 209.085 122.325 209.174 122.414C209.263 122.503 209.313 122.624 209.313 122.75C209.313 122.876 209.263 122.997 209.174 123.086C209.085 123.175 208.964 123.225 208.838 123.225C208.401 123.221 207.966 123.181 207.536 123.106Z" fill="black"/>
<path d="M205.248 146.524C203.777 146.265 202.45 145.479 201.515 144.313C201.476 144.262 201.448 144.204 201.431 144.142C201.415 144.08 201.412 144.015 201.421 143.952C201.431 143.888 201.453 143.827 201.487 143.772C201.52 143.718 201.565 143.671 201.617 143.634C201.67 143.597 201.729 143.571 201.792 143.557C201.855 143.544 201.919 143.543 201.982 143.556C202.045 143.568 202.105 143.593 202.158 143.629C202.211 143.665 202.257 143.712 202.291 143.766C202.39 143.906 204.722 147.068 209.329 144.938C209.442 144.895 209.567 144.896 209.679 144.942C209.791 144.987 209.881 145.074 209.931 145.183C209.982 145.293 209.989 145.418 209.951 145.532C209.913 145.647 209.832 145.742 209.726 145.8C207.955 146.62 206.458 146.736 205.248 146.524Z" fill="black"/>
<path d="M225.239 139.606C223.444 139.342 221.736 138.658 220.255 137.61C220.166 137.529 220.111 137.418 220.1 137.299C220.089 137.179 220.123 137.06 220.196 136.965C220.268 136.869 220.374 136.804 220.492 136.783C220.61 136.762 220.732 136.786 220.833 136.851C224.648 139.763 231.532 138.775 231.601 138.761C231.725 138.743 231.852 138.775 231.954 138.85C232.055 138.925 232.122 139.037 232.141 139.161C232.159 139.286 232.128 139.413 232.053 139.514C231.978 139.616 231.866 139.683 231.741 139.701C229.581 139.986 227.39 139.953 225.239 139.606Z" fill="black"/>
<path d="M225.592 137.227C225.545 137.219 225.501 137.204 225.459 137.182C215.689 132.175 219.695 121.116 219.736 120.99C219.782 120.872 219.872 120.776 219.988 120.725C220.103 120.673 220.235 120.669 220.353 120.715C220.471 120.76 220.567 120.851 220.619 120.966C220.67 121.082 220.674 121.213 220.629 121.332C220.471 121.752 216.868 131.723 225.889 136.341C225.991 136.393 226.071 136.479 226.115 136.585C226.158 136.69 226.163 136.808 226.127 136.916C226.09 137.025 226.016 137.116 225.918 137.175C225.82 137.233 225.704 137.254 225.592 137.234V137.227Z" fill="white"/>
<path d="M200.012 136.29C199.89 136.268 199.781 136.201 199.708 136.102C199.671 136.051 199.644 135.994 199.63 135.933C199.615 135.872 199.613 135.809 199.624 135.747C199.634 135.686 199.656 135.627 199.689 135.574C199.722 135.521 199.766 135.475 199.817 135.439L207.655 129.778C207.705 129.736 207.763 129.705 207.826 129.686C207.889 129.668 207.955 129.663 208.019 129.671C208.084 129.679 208.146 129.7 208.203 129.734C208.259 129.767 208.308 129.812 208.346 129.865C208.384 129.918 208.411 129.978 208.425 130.042C208.438 130.106 208.439 130.172 208.426 130.236C208.413 130.3 208.387 130.361 208.35 130.414C208.312 130.468 208.265 130.513 208.209 130.547L200.371 136.208C200.319 136.245 200.261 136.271 200.2 136.286C200.138 136.3 200.074 136.301 200.012 136.29Z" fill="black"/>
<path d="M221.096 152.8C222.145 152.8 222.996 151.949 222.996 150.9C222.996 149.85 222.145 148.999 221.096 148.999C220.046 148.999 219.195 149.85 219.195 150.9C219.195 151.949 220.046 152.8 221.096 152.8Z" fill="#07ACEE"/>
<path d="M221.422 149.03C221.792 149.094 222.135 149.267 222.407 149.527C222.679 149.786 222.868 150.12 222.95 150.487C223.033 150.854 223.004 151.237 222.869 151.588C222.733 151.938 222.496 152.241 222.189 152.457C221.881 152.673 221.516 152.793 221.14 152.802C220.765 152.811 220.395 152.708 220.077 152.507C219.76 152.305 219.509 152.014 219.357 151.67C219.205 151.326 219.159 150.945 219.224 150.575C219.266 150.329 219.356 150.094 219.49 149.882C219.623 149.671 219.797 149.489 220.001 149.345C220.205 149.202 220.436 149.1 220.68 149.046C220.924 148.992 221.176 148.986 221.422 149.03ZM221.586 148.093C221.03 147.996 220.458 148.066 219.943 148.294C219.427 148.522 218.99 148.898 218.688 149.374C218.386 149.85 218.232 150.405 218.245 150.968C218.258 151.532 218.438 152.079 218.762 152.54C219.086 153.002 219.54 153.357 220.066 153.56C220.592 153.764 221.166 153.807 221.717 153.684C222.267 153.561 222.768 153.278 223.157 152.87C223.547 152.462 223.806 151.947 223.903 151.392C224.032 150.647 223.861 149.882 223.426 149.264C222.992 148.645 222.33 148.224 221.586 148.093Z" fill="black"/>
<path d="M198.633 264.958C199.757 264.958 200.667 264.047 200.667 262.924C200.667 261.801 199.757 260.89 198.633 260.89C197.51 260.89 196.6 261.801 196.6 262.924C196.6 264.047 197.51 264.958 198.633 264.958Z" fill="#51CEF4"/>
<path d="M146.44 262.961C147.563 262.961 148.474 262.051 148.474 260.928C148.474 259.804 147.563 258.894 146.44 258.894C145.317 258.894 144.406 259.804 144.406 260.928C144.406 262.051 145.317 262.961 146.44 262.961Z" fill="#51CEF4"/>
<path d="M174.104 260.432C175.228 260.432 176.138 259.521 176.138 258.398C176.138 257.275 175.228 256.364 174.104 256.364C172.981 256.364 172.07 257.275 172.07 258.398C172.07 259.521 172.981 260.432 174.104 260.432Z" fill="#51CEF4"/>
<path d="M129.202 286.695H238.133C242.57 286.695 246.166 283.098 246.166 278.662V212.986C246.166 208.55 242.57 204.953 238.133 204.953H129.202C124.766 204.953 121.169 208.55 121.169 212.986L121.169 278.662C121.169 283.098 124.766 286.695 129.202 286.695Z" fill="white"/>
<path d="M238.132 287.207H129.198C126.932 287.207 124.758 286.307 123.155 284.704C121.553 283.102 120.652 280.928 120.652 278.662V212.986C120.652 210.72 121.553 208.546 123.155 206.943C124.758 205.341 126.932 204.44 129.198 204.44H238.132C240.399 204.44 242.572 205.341 244.175 206.943C245.777 208.546 246.678 210.72 246.678 212.986V278.665C246.677 280.931 245.776 283.104 244.174 284.706C242.571 286.307 240.398 287.207 238.132 287.207ZM129.198 205.466C127.204 205.466 125.291 206.258 123.881 207.669C122.47 209.079 121.678 210.992 121.678 212.986V278.665C121.678 280.66 122.47 282.572 123.881 283.983C125.291 285.393 127.204 286.185 129.198 286.185H238.132C240.127 286.185 242.039 285.393 243.45 283.983C244.86 282.572 245.653 280.66 245.653 278.665V212.986C245.653 210.992 244.86 209.079 243.45 207.669C242.039 206.258 240.127 205.466 238.132 205.466H129.198Z" fill="#1D1E1B"/>
<path d="M250.745 286.845H120.755C118.865 286.845 117.053 286.095 115.717 284.759C114.381 283.423 113.631 281.611 113.631 279.722H257.865C257.865 281.61 257.115 283.422 255.78 284.758C254.445 286.093 252.634 286.844 250.745 286.845Z" fill="white"/>
<path d="M250.745 287.358H120.754C118.73 287.355 116.791 286.55 115.36 285.119C113.929 283.689 113.124 281.749 113.121 279.725V279.212H258.378V279.725C258.376 281.749 257.571 283.689 256.14 285.12C254.709 286.552 252.768 287.356 250.745 287.358ZM114.164 280.238C114.296 281.896 115.047 283.443 116.268 284.573C117.489 285.702 119.091 286.33 120.754 286.333H250.745C252.408 286.331 254.01 285.703 255.231 284.574C256.452 283.444 257.204 281.896 257.335 280.238H114.164Z" fill="#1D1D1B"/>
<path d="M125.656 272.536C125.384 272.536 125.123 272.428 124.931 272.236C124.739 272.043 124.631 271.782 124.631 271.51V217.994C124.631 217.722 124.739 217.461 124.931 217.269C125.123 217.076 125.384 216.968 125.656 216.968C125.928 216.968 126.189 217.076 126.381 217.269C126.574 217.461 126.682 217.722 126.682 217.994V271.51C126.682 271.782 126.574 272.043 126.381 272.236C126.189 272.428 125.928 272.536 125.656 272.536Z" fill="white"/>
<path d="M184.52 240.114H177.746C175.824 240.114 174.266 241.672 174.266 243.594V250.369C174.266 252.29 175.824 253.849 177.746 253.849H184.52C186.442 253.849 188.001 252.29 188.001 250.369V243.594C188.001 241.672 186.442 240.114 184.52 240.114Z" fill="#07ACEE"/>
<path d="M184.52 254.361H177.745C176.686 254.36 175.671 253.94 174.922 253.191C174.174 252.442 173.753 251.427 173.752 250.369V243.58C173.753 242.521 174.174 241.506 174.922 240.758C175.671 240.009 176.686 239.588 177.745 239.587H184.52C185.578 239.588 186.593 240.009 187.342 240.758C188.091 241.506 188.511 242.521 188.512 243.58V250.355C188.514 250.88 188.411 251.401 188.211 251.887C188.011 252.372 187.717 252.814 187.347 253.186C186.976 253.558 186.535 253.854 186.05 254.055C185.565 254.257 185.045 254.361 184.52 254.361ZM177.745 240.627C176.958 240.628 176.205 240.942 175.649 241.498C175.093 242.054 174.779 242.807 174.777 243.594V250.369C174.778 251.155 175.091 251.909 175.648 252.466C176.204 253.022 176.958 253.335 177.745 253.336H184.52C185.306 253.336 186.061 253.023 186.618 252.467C187.174 251.91 187.487 251.156 187.487 250.369V243.58C187.486 242.793 187.173 242.039 186.617 241.483C186.06 240.927 185.306 240.614 184.52 240.613L177.745 240.627Z" fill="#1D1D1B"/>
<path d="M108.755 27.5746C101.731 20.8474 93.7556 17.436 85.0561 17.436C80.9883 17.436 76.1445 18.8989 70.248 21.9139C63.0696 25.5748 59.5762 29.4649 59.5762 33.8129C59.5751 36.1573 60.463 38.4147 62.0611 40.1299C62.8431 41.0466 63.8147 41.7826 64.9089 42.2872C66.0031 42.7918 67.1937 43.053 68.3986 43.0527C69.5301 43.0527 71.1333 42.7109 77.1289 38.7354C81.2993 35.9598 83.7435 35.3785 85.0561 35.3785C89.035 35.3785 92.7436 36.9851 96.4012 40.294C100.124 43.6405 101.932 47.1066 101.932 50.8907C101.932 53.5946 99.6487 56.9958 95.328 60.7286L81.1865 71.3801L81.1354 71.4209C75.1944 76.1074 72.4255 80.0385 72.4255 83.7884C72.4827 86.1577 73.4492 88.4143 75.1247 90.0905C76.8003 91.7667 79.0565 92.734 81.4258 92.7921C83.8836 92.7921 86.1227 91.6299 88.0575 89.3738C90.2828 86.8135 94.3846 83.361 100.226 79.1189C106.519 74.6478 110.748 71.0518 113.144 68.1429C117.23 63.3306 119.45 57.2101 119.4 50.8975C119.4 42.1775 115.821 34.3359 108.755 27.5746Z" fill="white"/>
<path d="M81.4263 93.3016C78.9216 93.2417 76.536 92.2196 74.7647 90.4477C72.9933 88.6757 71.9722 86.2898 71.9132 83.785C71.9132 79.8642 74.7435 75.8068 80.8007 71.0143L80.8555 70.9699L94.99 60.3288C99.1842 56.6986 101.403 53.4341 101.403 50.8875C101.403 47.2607 99.6492 43.9211 96.0395 40.6737C92.4845 37.4571 88.8851 35.8881 85.0396 35.8881C83.7953 35.8881 81.4605 36.4555 77.3961 39.1593C71.2808 43.2271 69.6434 43.562 68.3821 43.562C67.1049 43.5627 65.8429 43.2866 64.6827 42.7525C63.5225 42.2185 62.4917 41.4392 61.6617 40.4686C59.9777 38.6605 59.0432 36.2805 59.0469 33.8097C59.0469 29.2532 62.6293 25.2094 69.9854 21.4527C75.9572 18.4035 80.8761 16.9199 85.0259 16.9199C93.8621 16.9199 101.957 20.3793 109.08 27.1988C116.259 34.0627 119.882 42.0306 119.882 50.884C119.935 57.317 117.672 63.5544 113.507 68.4575C111.08 71.404 106.821 75.024 100.49 79.5225C94.6789 83.7407 90.6148 87.1623 88.4134 89.6952C86.4035 92.088 84.0413 93.3016 81.4263 93.3016ZM85.0566 34.8659C89.1585 34.8659 92.9902 36.517 96.7435 39.9147C100.582 43.3638 102.445 46.953 102.445 50.8875C102.445 53.7452 100.101 57.2797 95.6636 61.115L95.6362 61.1355L81.4467 71.8245C75.6356 76.4016 72.9387 80.2061 72.9387 83.7885C72.9974 86.0214 73.9103 88.1465 75.4894 89.7263C77.0685 91.306 79.1935 92.2199 81.4263 92.2795C83.7302 92.2795 85.829 91.1856 87.668 89.0321C89.9207 86.4376 94.0433 82.9612 99.9228 78.6986C106.185 74.2549 110.379 70.6895 112.748 67.8113C116.763 63.0923 118.947 57.0866 118.901 50.8908C118.901 42.328 115.373 34.6096 108.417 27.9474C101.488 21.3159 93.6331 17.9523 85.0703 17.9523C81.0845 17.9523 76.3158 19.3982 70.4945 22.3755C63.5007 25.9374 60.1031 29.6804 60.1031 33.8166C60.1031 36.0347 60.9447 38.1701 62.4582 39.7917C63.1926 40.6539 64.1053 41.3463 65.1334 41.8213C66.1614 42.2964 67.2803 42.5428 68.4128 42.5434C69.4178 42.5434 70.9868 42.2016 76.8594 38.3116C81.122 35.4642 83.6722 34.8659 85.0566 34.8659Z" fill="#1D1E1B"/>
<path d="M77.2186 96.3779C74.942 96.3779 71.6944 97.1812 69.1683 100.999C67.5533 103.445 66.7048 106.317 66.7311 109.248C66.7311 111.764 67.8215 113.999 69.8793 115.712C71.7081 117.278 74.0382 118.135 76.4458 118.128C78.5617 118.128 81.5735 117.356 83.8569 113.623C85.1612 111.394 85.8344 108.853 85.805 106.27C85.805 97.3419 79.7994 96.3779 77.2186 96.3779Z" fill="white"/>
<path d="M76.4451 118.641C73.9174 118.648 71.4711 117.748 69.5504 116.105C67.3696 114.293 66.2176 111.921 66.2176 109.248C66.1862 106.211 67.0648 103.235 68.7403 100.702C71.3894 96.6891 74.8148 95.8481 77.2179 95.8481C79.9525 95.8481 86.3171 96.8736 86.3171 106.253C86.3466 108.927 85.6486 111.559 84.2971 113.866C81.877 117.817 78.6909 118.641 76.4451 118.641ZM77.2179 96.8908C75.0644 96.8908 71.9947 97.6531 69.5985 101.283C68.0374 103.644 67.217 106.418 67.2431 109.248C67.2431 111.607 68.2686 113.692 70.2067 115.315C71.9427 116.806 74.1569 117.623 76.4451 117.616C78.4311 117.616 81.2513 116.877 83.4219 113.353C84.6747 111.205 85.3208 108.757 85.2916 106.271C85.2916 97.8035 79.6449 96.8908 77.2179 96.8908Z" fill="#1D1E1B"/>
<path d="M114.584 59.1632C114.52 59.1624 114.456 59.1568 114.393 59.1461C114.26 59.1211 114.134 59.0701 114.021 58.9963C113.908 58.9224 113.811 58.827 113.735 58.7155C113.659 58.6041 113.606 58.4788 113.579 58.3468C113.551 58.2148 113.55 58.0787 113.575 57.9462C115.353 48.5596 114.061 40.8035 109.74 34.8933C102.904 25.5511 90.6558 23.9548 90.5327 23.9548C90.398 23.9386 90.268 23.8961 90.1498 23.8296C90.0316 23.7632 89.9275 23.6741 89.8437 23.5674C89.7599 23.4608 89.698 23.3387 89.6614 23.208C89.6248 23.0774 89.6142 22.941 89.6304 22.8063C89.6465 22.6716 89.6891 22.5415 89.7556 22.4232C89.822 22.305 89.911 22.2009 90.0176 22.1171C90.1243 22.0333 90.2465 21.9715 90.3771 21.9349C90.5077 21.8983 90.6444 21.8877 90.7791 21.9038C91.3157 21.9688 104.014 23.613 111.384 33.6594C116.064 40.0481 117.479 48.358 115.592 58.3223C115.549 58.5583 115.424 58.7717 115.24 58.9253C115.056 59.079 114.824 59.1631 114.584 59.1632Z" fill="white"/>
<path d="M124.053 114.957C122.894 111.17 120.737 108.377 117.647 106.647C116.201 105.84 114.191 105.399 111.494 105.297C108.216 105.17 106.202 105.861 105.341 107.406C104.875 108.237 104.742 109.215 104.968 110.141C105.064 110.622 105.263 111.076 105.552 111.473C105.84 111.87 106.211 112.199 106.64 112.438C107.04 112.66 107.665 112.862 110.598 112.636C112.629 112.479 113.613 112.756 114.082 113.019C115.493 113.808 116.491 115.114 117.134 117.018C117.777 118.922 117.746 120.536 116.998 121.879C116.461 122.84 114.974 123.588 112.697 124.063L105.556 125.038H105.529C102.49 125.523 100.726 126.371 99.9813 127.704C99.5326 128.557 99.4284 129.549 99.6905 130.477C99.9526 131.404 100.561 132.196 101.39 132.688C102.265 133.176 103.29 133.207 104.428 132.787C105.727 132.318 107.867 131.905 110.787 131.56C113.907 131.218 116.126 130.787 117.555 130.227C119.961 129.329 121.965 127.597 123.202 125.345C124.935 122.258 125.218 118.758 124.053 114.957Z" fill="white"/>
<path d="M102.92 133.6C102.298 133.604 101.686 133.446 101.143 133.142C100.195 132.583 99.4994 131.68 99.2002 130.622C98.901 129.563 99.0215 128.43 99.5364 127.457C100.364 125.977 102.244 125.065 105.453 124.538H105.488L112.611 123.567C114.7 123.137 116.098 122.45 116.552 121.64C117.236 120.429 117.26 118.977 116.652 117.196C116.043 115.415 115.13 114.205 113.831 113.48C113.49 113.292 112.645 113.008 110.639 113.162C107.562 113.398 106.879 113.162 106.393 112.899C105.902 112.625 105.476 112.248 105.144 111.794C104.813 111.339 104.583 110.818 104.472 110.267C104.215 109.217 104.366 108.109 104.896 107.167C105.864 105.437 108.027 104.664 111.517 104.794C114.293 104.9 116.378 105.362 117.896 106.209C121.106 108.004 123.341 110.899 124.545 114.817C125.751 118.758 125.45 122.392 123.652 125.612C122.361 127.975 120.264 129.795 117.742 130.739C116.269 131.313 114.013 131.765 110.844 132.106C107.966 132.448 105.863 132.848 104.602 133.303C104.064 133.502 103.494 133.603 102.92 133.6ZM111.712 112.082C112.868 112.082 113.746 112.246 114.334 112.574C115.862 113.429 116.939 114.83 117.623 116.857C118.306 118.884 118.272 120.655 117.448 122.132C116.826 123.243 115.264 124.063 112.803 124.569H112.769L105.628 125.547C102.739 126.005 101.095 126.77 100.432 127.957C100.049 128.691 99.9607 129.544 100.186 130.341C100.412 131.138 100.934 131.819 101.645 132.243C102.38 132.653 103.259 132.677 104.254 132.308C105.59 131.826 107.768 131.406 110.728 131.057C113.804 130.715 115.982 130.295 117.37 129.754C119.666 128.898 121.578 127.245 122.757 125.095C124.415 122.128 124.685 118.768 123.564 115.104C122.442 111.439 120.367 108.753 117.411 107.091C116.043 106.326 114.102 105.905 111.49 105.806C108.414 105.686 106.564 106.291 105.805 107.652C105.397 108.379 105.282 109.235 105.484 110.045C105.565 110.455 105.735 110.843 105.98 111.182C106.226 111.52 106.541 111.802 106.906 112.007C107.248 112.198 107.932 112.349 110.574 112.144C110.971 112.096 111.353 112.082 111.712 112.082Z" fill="#1D1E1B"/>
<path d="M98.627 134.895C97.8168 134.441 96.5042 134.082 94.8669 134.936C93.8071 135.484 92.9355 136.337 92.3646 137.384C92.1173 137.826 91.974 138.319 91.945 138.824C91.9159 139.33 92.0019 139.836 92.197 140.303C92.5363 141.223 93.1938 141.99 94.05 142.467C94.802 142.887 96.0221 143.209 97.5775 142.337C98.4816 141.804 99.2247 141.036 99.7276 140.115C101.485 136.929 99.5431 135.408 98.627 134.895Z" fill="white"/>
<path d="M95.626 143.403C94.9801 143.401 94.3456 143.233 93.7837 142.915C92.8217 142.381 92.0832 141.52 91.702 140.488C91.4787 139.95 91.3806 139.369 91.4149 138.788C91.4492 138.207 91.6152 137.642 91.9003 137.134C92.5207 136 93.4656 135.076 94.6142 134.482C96.4738 133.521 97.9572 133.935 98.8767 134.448C99.6971 134.906 102.213 136.686 100.159 140.365C99.6121 141.367 98.8041 142.202 97.8205 142.781C97.1549 143.175 96.3989 143.389 95.626 143.403ZM96.8328 134.933C96.2218 134.944 95.6224 135.102 95.0859 135.394C94.1161 135.895 93.3185 136.675 92.7956 137.633C92.5859 138.01 92.4647 138.43 92.4411 138.86C92.4174 139.291 92.492 139.721 92.659 140.119C92.9556 140.926 93.5316 141.6 94.2827 142.019C95.2125 142.539 96.2313 142.494 97.3114 141.893C98.133 141.403 98.8081 140.702 99.2666 139.862C100.757 137.196 99.3485 135.887 98.3777 135.343C97.907 135.075 97.3747 134.933 96.8328 134.933Z" fill="#1D1E1B"/>
<path d="M121.417 125.478C121.25 125.478 121.086 125.437 120.938 125.359C120.79 125.281 120.664 125.168 120.57 125.029C120.476 124.891 120.417 124.732 120.398 124.566C120.38 124.4 120.402 124.232 120.464 124.076C121.992 120.2 122.101 116.898 120.805 114.29C118.932 110.564 114.718 109.388 114.676 109.378C114.414 109.308 114.189 109.137 114.053 108.901C113.916 108.666 113.879 108.386 113.948 108.123C114.018 107.86 114.19 107.636 114.425 107.499C114.66 107.363 114.94 107.325 115.203 107.395C115.411 107.45 120.33 108.797 122.624 113.346C124.227 116.515 124.145 120.378 122.388 124.828C122.311 125.023 122.178 125.189 122.004 125.305C121.831 125.421 121.626 125.481 121.417 125.478Z" fill="white"/>
<defs>
<filter id="filter0_d_14057_93519" x="-4.0192" y="107.785" width="38.6829" height="38.6839" filterUnits="userSpaceOnUse" color-interpolation-filters="sRGB">
<feFlood flood-opacity="0" result="BackgroundImageFix"/>
<feColorMatrix in="SourceAlpha" type="matrix" values="0 0 0 0 0 0 0 0 0 0 0 0 0 0 0 0 0 0 127 0" result="hardAlpha"/>
<feOffset dy="2.03704"/>
<feGaussianBlur stdDeviation="5.09261"/>
<feComposite in2="hardAlpha" operator="out"/>
<feColorMatrix type="matrix" values="0 0 0 0 0 0 0 0 0 0 0 0 0 0 0 0 0 0 0.05 0"/>
<feBlend mode="normal" in2="BackgroundImageFix" result="effect1_dropShadow_14057_93519"/>
<feBlend mode="normal" in="SourceGraphic" in2="effect1_dropShadow_14057_93519" result="shape"/>
</filter>
<filter id="filter1_d_14057_93519" x="370.649" y="165.21" width="38.6888" height="38.6883" filterUnits="userSpaceOnUse" color-interpolation-filters="sRGB">
<feFlood flood-opacity="0" result="BackgroundImageFix"/>
<feColorMatrix in="SourceAlpha" type="matrix" values="0 0 0 0 0 0 0 0 0 0 0 0 0 0 0 0 0 0 127 0" result="hardAlpha"/>
<feOffset dy="2.03704"/>
<feGaussianBlur stdDeviation="5.09261"/>
<feComposite in2="hardAlpha" operator="out"/>
<feColorMatrix type="matrix" values="0 0 0 0 0 0 0 0 0 0 0 0 0 0 0 0 0 0 0.05 0"/>
<feBlend mode="normal" in2="BackgroundImageFix" result="effect1_dropShadow_14057_93519"/>
<feBlend mode="normal" in="SourceGraphic" in2="effect1_dropShadow_14057_93519" result="shape"/>
</filter>
<linearGradient id="paint0_linear_14057_93519" x1="20.4547" y1="112.038" x2="392.053" y2="200.547" gradientUnits="userSpaceOnUse">
<stop stop-color="#CDD5E2"/>
<stop offset="1" stop-color="#CDD5E2" stop-opacity="0"/>
</linearGradient>
<linearGradient id="paint1_linear_14057_93519" x1="391.411" y1="195.437" x2="353.85" y2="294.044" gradientUnits="userSpaceOnUse">
<stop stop-color="#CDD5E2"/>
<stop offset="1" stop-color="#CDD5E2" stop-opacity="0"/>
</linearGradient>
<linearGradient id="paint2_linear_14057_93519" x1="196.502" y1="23.2607" x2="196.502" y2="365.006" gradientUnits="userSpaceOnUse">
<stop stop-color="#CDD5E2"/>
<stop offset="1" stop-color="#CDD5E2" stop-opacity="0"/>
</linearGradient>
<linearGradient id="paint3_linear_14057_93519" x1="196.505" y1="57.4336" x2="196.505" y2="330.83" gradientUnits="userSpaceOnUse">
<stop stop-color="#CDD5E2"/>
<stop offset="1" stop-color="#CDD5E2" stop-opacity="0"/>
</linearGradient>
</defs>
</svg>
