<svg width="406" height="302" viewBox="0 0 406 302" fill="none" xmlns="http://www.w3.org/2000/svg">
<mask id="mask0_14058_96271" style="mask-type:alpha" maskUnits="userSpaceOnUse" x="0" y="0" width="406" height="302">
<rect width="405.823" height="301.875" fill="#D9D9D9"/>
</mask>
<g mask="url(#mask0_14058_96271)">
<g opacity="0.5">
<mask id="path-2-inside-1_14058_96271" fill="white">
<path d="M389.977 202.565C391.993 156.308 377.369 110.86 348.757 74.4588C320.144 38.0574 279.437 13.1119 234.013 4.14415C188.59 -4.82363 141.456 2.77982 101.157 25.5762C60.8571 48.3727 30.0587 84.8533 14.3442 128.405L15.1839 128.708C30.8259 85.357 61.4823 49.0446 101.596 26.3532C141.71 3.66186 188.626 -3.90654 233.84 5.0199C279.055 13.9463 319.574 38.7768 348.055 75.0104C376.535 111.244 391.092 156.483 389.085 202.526L389.977 202.565Z"/>
</mask>
<path d="M389.977 202.565C391.993 156.308 377.369 110.86 348.757 74.4588C320.144 38.0574 279.437 13.1119 234.013 4.14415C188.59 -4.82363 141.456 2.77982 101.157 25.5762C60.8571 48.3727 30.0587 84.8533 14.3442 128.405L15.1839 128.708C30.8259 85.357 61.4823 49.0446 101.596 26.3532C141.71 3.66186 188.626 -3.90654 233.84 5.0199C279.055 13.9463 319.574 38.7768 348.055 75.0104C376.535 111.244 391.092 156.483 389.085 202.526L389.977 202.565Z" stroke="url(#paint0_linear_14058_96271)" stroke-width="2.84788" stroke-dasharray="4.27 4.27" mask="url(#path-2-inside-1_14058_96271)"/>
</g>
<g opacity="0.5">
<mask id="path-3-inside-2_14058_96271" fill="white">
<path d="M14.6043 260.572C30.4892 304.063 61.4301 340.422 101.819 363.061C142.207 385.699 189.37 393.118 234.758 383.973C280.146 374.827 320.756 349.723 349.225 313.21C377.695 276.697 392.141 231.192 389.944 184.943L389.052 184.986C391.239 231.021 376.86 276.316 348.521 312.661C320.183 349.006 279.761 373.994 234.582 383.098C189.403 392.201 142.457 384.816 102.255 362.282C62.0527 339.748 31.2544 303.556 15.4428 260.266L14.6043 260.572Z"/>
</mask>
<path d="M14.6043 260.572C30.4892 304.063 61.4301 340.422 101.819 363.061C142.207 385.699 189.37 393.118 234.758 383.973C280.146 374.827 320.756 349.723 349.225 313.21C377.695 276.697 392.141 231.192 389.944 184.943L389.052 184.986C391.239 231.021 376.86 276.316 348.521 312.661C320.183 349.006 279.761 373.994 234.582 383.098C189.403 392.201 142.457 384.816 102.255 362.282C62.0527 339.748 31.2544 303.556 15.4428 260.266L14.6043 260.572Z" stroke="url(#paint1_linear_14058_96271)" stroke-width="2.84788" stroke-dasharray="4.27 4.27" mask="url(#path-3-inside-2_14058_96271)"/>
</g>
<circle opacity="0.08" cx="196.502" cy="194.133" r="170.873" fill="url(#paint2_linear_14058_96271)"/>
<circle opacity="0.1" cx="196.503" cy="194.132" r="136.698" fill="url(#paint3_linear_14058_96271)"/>
<circle cx="196.503" cy="194.134" r="91.1321" fill="white"/>
<g filter="url(#filter0_d_14058_96271)">
<circle cx="15.3224" cy="125.09" r="7.11969" transform="rotate(-2.50406 15.3224 125.09)" fill="#0170FF"/>
<circle cx="15.3224" cy="125.09" r="8.13822" transform="rotate(-2.50406 15.3224 125.09)" stroke="white" stroke-width="2.03704"/>
</g>
<g filter="url(#filter1_d_14058_96271)">
<circle cx="389.995" cy="182.517" r="7.11969" transform="rotate(-15.7345 389.995 182.517)" fill="#0170FF"/>
<circle cx="389.995" cy="182.517" r="8.13822" transform="rotate(-15.7345 389.995 182.517)" stroke="white" stroke-width="2.03704"/>
</g>
</g>
<path d="M238.234 129.82L204.714 148.296C203.596 148.913 202.652 149.802 201.97 150.883C201.289 151.963 200.892 153.198 200.818 154.474C200.743 155.749 200.993 157.022 201.544 158.174C202.095 159.326 202.929 160.32 203.968 161.063L263.68 203.713C264.933 204.607 266.43 205.098 267.969 205.119C269.509 205.14 271.018 204.69 272.295 203.83L308.757 179.251C309.818 178.536 310.68 177.563 311.262 176.424C311.845 175.285 312.128 174.017 312.087 172.739C312.045 171.46 311.68 170.214 311.025 169.115C310.37 168.016 309.447 167.102 308.342 166.457L245.687 129.911C244.559 129.252 243.279 128.897 241.972 128.881C240.666 128.866 239.377 129.189 238.234 129.82Z" fill="white"/>
<path d="M268.073 205.615C266.393 205.619 264.753 205.097 263.385 204.121L203.673 161.471C202.564 160.68 201.674 159.62 201.086 158.391C200.498 157.162 200.231 155.804 200.311 154.444C200.39 153.084 200.813 151.766 201.539 150.613C202.266 149.461 203.273 148.512 204.466 147.854L237.989 129.379C239.211 128.71 240.584 128.368 241.976 128.385C243.368 128.402 244.733 128.778 245.938 129.476L308.59 166.025C309.768 166.712 310.753 167.687 311.452 168.858C312.151 170.029 312.541 171.359 312.585 172.722C312.63 174.085 312.327 175.438 311.706 176.652C311.085 177.867 310.166 178.904 309.035 179.666L272.573 204.245C271.243 205.14 269.676 205.617 268.073 205.615ZM238.475 130.259L204.955 148.735C203.911 149.31 203.03 150.141 202.393 151.149C201.757 152.158 201.387 153.311 201.318 154.501C201.249 155.692 201.483 156.88 201.998 157.956C202.512 159.031 203.292 159.959 204.262 160.651L263.971 203.304C265.142 204.134 266.538 204.588 267.973 204.608C269.407 204.627 270.814 204.21 272.007 203.411L308.469 178.835C309.459 178.168 310.264 177.26 310.808 176.197C311.351 175.134 311.616 173.95 311.577 172.756C311.538 171.563 311.197 170.399 310.586 169.373C309.974 168.348 309.112 167.494 308.081 166.892L245.429 130.343C244.374 129.732 243.179 129.403 241.959 129.388C240.74 129.373 239.537 129.673 238.468 130.259H238.475Z" fill="black"/>
<path d="M244.17 129.071L308.717 168.105C309.311 168.459 309.971 168.686 310.657 168.771C311.343 168.856 312.039 168.796 312.701 168.597C313.363 168.398 313.976 168.062 314.5 167.612C315.025 167.163 315.45 166.608 315.749 165.985L342.166 113.461C342.813 112.192 342.932 110.718 342.497 109.361C342.062 108.005 341.107 106.875 339.843 106.219L270.949 72.2277C270.347 71.935 269.691 71.7668 269.022 71.7333C268.353 71.6998 267.684 71.8015 267.055 72.0325C266.426 72.2635 265.85 72.619 265.362 73.0777C264.873 73.5363 264.482 74.0887 264.213 74.7019L242.141 122.183C241.579 123.381 241.476 124.743 241.85 126.012C242.223 127.281 243.049 128.369 244.17 129.071Z" fill="white"/>
<path d="M311.253 169.323C310.266 169.321 309.299 169.047 308.457 168.533L243.91 129.499C242.689 128.728 241.791 127.539 241.383 126.154C240.975 124.768 241.085 123.282 241.693 121.972L263.765 74.4909C264.075 73.8047 264.521 73.1884 265.076 72.6786C265.631 72.1689 266.282 71.7763 266.992 71.5244C267.671 71.2832 268.392 71.1815 269.111 71.2252C269.83 71.2689 270.533 71.4571 271.178 71.7788L340.071 105.77C340.747 106.107 341.35 106.575 341.844 107.147C342.338 107.719 342.713 108.383 342.947 109.102C343.199 109.85 343.3 110.64 343.242 111.427C343.185 112.214 342.971 112.982 342.612 113.685L316.195 166.213C315.85 166.907 315.365 167.523 314.771 168.021C314.177 168.519 313.487 168.89 312.743 169.109C312.259 169.25 311.757 169.322 311.253 169.323ZM268.787 72.2241C268.29 72.2245 267.796 72.3094 267.327 72.4752C266.744 72.6832 266.209 73.0066 265.753 73.4259C265.297 73.8453 264.931 74.352 264.675 74.9161L242.604 122.394C242.097 123.479 242.002 124.712 242.339 125.862C242.675 127.011 243.42 127.999 244.432 128.639L308.976 167.672C309.494 167.991 310.073 168.198 310.675 168.279C311.278 168.361 311.891 168.315 312.475 168.144C313.087 167.966 313.655 167.662 314.143 167.252C314.631 166.841 315.027 166.333 315.307 165.761L341.725 113.237C342.022 112.651 342.199 112.011 342.245 111.355C342.291 110.7 342.205 110.042 341.993 109.42C341.801 108.827 341.492 108.279 341.086 107.807C340.68 107.335 340.183 106.949 339.626 106.671L270.732 72.6796C270.128 72.3788 269.462 72.2218 268.787 72.2209V72.2241Z" fill="black"/>
<path d="M267.55 83.1055L249.905 121.138C249.393 122.218 249.298 123.449 249.637 124.595C249.976 125.741 250.726 126.722 251.743 127.349L305.456 159.204C305.99 159.518 306.585 159.717 307.201 159.789C307.817 159.86 308.441 159.802 309.033 159.619C309.625 159.436 310.173 159.131 310.641 158.724C311.109 158.317 311.487 157.817 311.751 157.256L332.285 115.764C332.853 114.631 332.954 113.32 332.566 112.112C332.178 110.905 331.332 109.899 330.209 109.309L273.607 80.9125C273.068 80.6465 272.48 80.4922 271.879 80.459C271.279 80.4257 270.677 80.5141 270.112 80.7189C269.546 80.9237 269.028 81.2407 268.587 81.6508C268.147 82.0609 267.795 82.5557 267.55 83.1055Z" fill="white"/>
<path d="M307.712 160.313C306.832 160.311 305.969 160.072 305.214 159.62L251.498 127.765C250.379 127.073 249.553 125.995 249.176 124.735C248.798 123.475 248.895 122.121 249.449 120.928L267.094 82.8949C267.378 82.2733 267.785 81.7156 268.29 81.2553C268.796 80.795 269.389 80.4416 270.034 80.2163C270.653 79.9978 271.31 79.9071 271.964 79.9497C272.619 79.9923 273.259 80.1673 273.844 80.4642L330.449 108.86C331.694 109.506 332.633 110.617 333.063 111.951C333.493 113.285 333.379 114.735 332.746 115.986L312.215 157.48C311.906 158.111 311.471 158.671 310.937 159.126C310.402 159.581 309.78 159.921 309.108 160.125C308.654 160.255 308.184 160.318 307.712 160.313ZM271.648 80.9262C271.211 80.9266 270.777 81.0013 270.365 81.1471C269.849 81.3322 269.375 81.62 268.972 81.9928C268.569 82.3656 268.246 82.816 268.022 83.3169L250.38 121.349C249.926 122.316 249.843 123.415 250.146 124.439C250.45 125.462 251.12 126.339 252.027 126.901L305.743 158.756C306.203 159.033 306.717 159.211 307.25 159.277C307.784 159.344 308.325 159.299 308.84 159.144C309.38 158.983 309.881 158.71 310.31 158.344C310.738 157.978 311.086 157.526 311.331 157.018L331.863 115.524C332.379 114.511 332.474 113.335 332.128 112.252C331.782 111.169 331.022 110.267 330.014 109.741L273.412 81.3447C272.865 81.0682 272.261 80.9248 271.648 80.9262Z" fill="black"/>
<path d="M242.851 135.234L216.229 150.405C215.789 150.658 215.419 151.018 215.155 151.452C214.89 151.886 214.74 152.379 214.718 152.887C214.695 153.394 214.802 153.899 215.027 154.354C215.252 154.81 215.588 155.201 216.005 155.491L269.034 192.201C269.543 192.553 270.147 192.739 270.765 192.736C271.383 192.732 271.985 192.539 272.49 192.181L298.365 173.786C298.764 173.5 299.088 173.121 299.307 172.681C299.527 172.241 299.635 171.754 299.623 171.263C299.611 170.772 299.479 170.291 299.239 169.862C298.999 169.434 298.657 169.07 298.244 168.804L245.965 135.321C245.503 135.025 244.969 134.86 244.42 134.844C243.871 134.829 243.329 134.964 242.851 135.234Z" fill="#4BD657"/>
<path d="M270.744 193.236C270.026 193.24 269.325 193.024 268.735 192.617L215.709 155.903C215.22 155.565 214.826 155.11 214.561 154.578C214.297 154.046 214.173 153.456 214.199 152.863C214.225 152.27 214.401 151.693 214.711 151.186C215.02 150.68 215.454 150.26 215.97 149.967L242.592 134.799C243.148 134.481 243.78 134.321 244.421 134.338C245.062 134.354 245.686 134.546 246.224 134.893L298.504 168.375C298.988 168.685 299.388 169.109 299.67 169.61C299.951 170.111 300.106 170.673 300.12 171.248C300.134 171.822 300.007 172.391 299.749 172.905C299.492 173.419 299.113 173.862 298.644 174.195L272.769 192.586C272.178 193.008 271.47 193.235 270.744 193.236ZM242.849 135.234L243.1 135.67L216.475 150.841C216.107 151.051 215.799 151.35 215.578 151.711C215.357 152.073 215.232 152.484 215.214 152.908C215.195 153.331 215.284 153.752 215.473 154.131C215.661 154.51 215.943 154.835 216.291 155.076L269.317 191.79C269.741 192.082 270.245 192.237 270.76 192.234C271.275 192.231 271.776 192.07 272.197 191.773L298.072 173.378C298.406 173.14 298.677 172.824 298.861 172.458C299.045 172.091 299.135 171.685 299.126 171.275C299.116 170.865 299.005 170.464 298.804 170.107C298.603 169.749 298.317 169.447 297.971 169.226L245.692 135.743C245.308 135.495 244.863 135.358 244.406 135.345C243.949 135.333 243.497 135.446 243.1 135.673L242.849 135.234Z" fill="#1D1E1B"/>
<path d="M273.263 99.7367L270.766 106.118C270.766 106.118 273.779 113.642 283.181 111.385L285.779 105.459C285.779 105.459 282.431 97.6575 272.825 99.7501" fill="#07ACEE"/>
<path d="M279.839 112.306C272.808 112.306 270.327 106.373 270.3 106.303L270.227 106.119L272.785 99.5761L272.718 99.2614C282.615 97.1051 286.204 105.181 286.241 105.261L286.325 105.462L283.543 111.824L283.298 111.884C282.166 112.16 281.005 112.302 279.839 112.306ZM271.308 106.105C271.82 107.203 274.83 112.748 282.823 110.953L285.227 105.466C284.664 104.327 281.483 98.7693 273.659 100.109L271.308 106.105Z" fill="#1D1E1B"/>
<path d="M279.693 94.9921L270.535 98.029C270.353 98.0886 270.191 98.1973 270.067 98.3433C269.943 98.4892 269.862 98.6666 269.833 98.8558C269.803 99.045 269.827 99.2387 269.901 99.4154C269.974 99.5921 270.096 99.7451 270.251 99.8572L280.5 107.307C280.634 107.404 280.789 107.468 280.953 107.494C281.116 107.519 281.283 107.506 281.441 107.454L291.11 104.233C291.295 104.172 291.459 104.061 291.583 103.911C291.707 103.762 291.787 103.58 291.813 103.388C291.839 103.195 291.811 102.999 291.731 102.822C291.651 102.644 291.523 102.493 291.362 102.385L280.604 95.116C280.472 95.0266 280.321 94.9689 280.163 94.9475C280.005 94.926 279.844 94.9412 279.693 94.9921Z" fill="#07ACEE"/>
<path d="M281.11 108.007C280.783 108.007 280.464 107.904 280.2 107.712L269.954 100.265C269.724 100.099 269.544 99.8717 269.435 99.6094C269.326 99.347 269.291 99.0596 269.335 98.7788C269.378 98.498 269.499 98.2346 269.682 98.0178C269.866 97.801 270.106 97.6392 270.376 97.5501L279.533 94.5133C279.756 94.4425 279.992 94.4226 280.224 94.4551C280.456 94.4875 280.678 94.5715 280.873 94.7008L291.631 101.966C291.87 102.127 292.059 102.352 292.177 102.616C292.295 102.879 292.337 103.17 292.298 103.456C292.259 103.742 292.141 104.011 291.957 104.233C291.772 104.455 291.529 104.621 291.256 104.712L281.586 107.93C281.433 107.981 281.272 108.007 281.11 108.007ZM280.019 95.4407C279.961 95.4415 279.903 95.4503 279.848 95.4674L270.691 98.5043C270.597 98.5356 270.513 98.592 270.449 98.6677C270.385 98.7433 270.343 98.8352 270.328 98.9332C270.313 99.0311 270.325 99.1312 270.363 99.2227C270.401 99.3142 270.463 99.3936 270.543 99.4519L280.792 106.902C280.861 106.952 280.942 106.985 281.026 106.997C281.111 107.01 281.197 107.003 281.278 106.975L290.948 103.758C291.044 103.727 291.129 103.669 291.194 103.592C291.259 103.514 291.301 103.42 291.314 103.32C291.328 103.22 291.313 103.118 291.271 103.026C291.23 102.934 291.163 102.856 291.078 102.8L280.32 95.5344C280.232 95.4726 280.127 95.4399 280.019 95.4407Z" fill="#1D1E1B"/>
<path d="M269.894 99.3897L267.637 104.659L268.56 105.054L270.817 99.7852L269.894 99.3897Z" fill="black"/>
<path d="M266.866 106.685C267.79 106.685 268.54 105.935 268.54 105.011C268.54 104.086 267.79 103.336 266.866 103.336C265.941 103.336 265.191 104.086 265.191 105.011C265.191 105.935 265.941 106.685 266.866 106.685Z" fill="white"/>
<path d="M266.864 107.187C266.433 107.187 266.013 107.059 265.655 106.82C265.297 106.581 265.018 106.241 264.853 105.843C264.688 105.446 264.645 105.008 264.729 104.586C264.813 104.164 265.021 103.776 265.325 103.471C265.629 103.167 266.017 102.96 266.439 102.876C266.861 102.792 267.299 102.835 267.697 103C268.094 103.164 268.434 103.443 268.673 103.801C268.913 104.159 269.04 104.58 269.04 105.01C269.039 105.587 268.81 106.14 268.402 106.548C267.994 106.956 267.441 107.186 266.864 107.187ZM266.864 103.838C266.632 103.838 266.406 103.907 266.213 104.036C266.02 104.165 265.87 104.348 265.781 104.562C265.693 104.776 265.669 105.012 265.714 105.239C265.76 105.466 265.871 105.675 266.035 105.839C266.199 106.003 266.408 106.115 266.635 106.16C266.863 106.205 267.098 106.182 267.312 106.093C267.526 106.004 267.709 105.854 267.838 105.661C267.967 105.469 268.036 105.242 268.036 105.01C268.036 104.699 267.912 104.401 267.692 104.182C267.473 103.962 267.175 103.838 266.864 103.838Z" fill="black"/>
<path d="M305.373 103.832L323.015 112.514C323.415 112.711 323.773 112.985 324.067 113.321C324.36 113.657 324.585 114.048 324.726 114.471C324.868 114.894 324.924 115.341 324.892 115.786C324.86 116.231 324.74 116.666 324.539 117.064L307.74 150.342C307.534 150.751 307.246 151.113 306.895 151.407C306.544 151.701 306.137 151.92 305.699 152.052C305.26 152.184 304.8 152.225 304.345 152.174C303.89 152.122 303.451 151.978 303.053 151.752L285.977 141.948C285.227 141.519 284.67 140.818 284.421 139.99C284.172 139.162 284.249 138.27 284.638 137.498L300.877 105.338C301.277 104.546 301.974 103.944 302.816 103.662C303.657 103.38 304.576 103.441 305.373 103.832Z" fill="#07ACEE"/>
<path d="M304.716 152.703C304.042 152.701 303.379 152.523 302.795 152.187L285.719 142.383C284.857 141.889 284.218 141.083 283.933 140.132C283.648 139.181 283.738 138.157 284.185 137.27L300.424 105.111C300.888 104.201 301.69 103.51 302.658 103.186C303.626 102.863 304.683 102.932 305.6 103.38L323.242 112.061C323.702 112.288 324.112 112.603 324.45 112.989C324.787 113.375 325.044 113.824 325.207 114.31C325.37 114.796 325.435 115.309 325.398 115.82C325.361 116.332 325.224 116.83 324.993 117.288L308.195 150.57C307.96 151.041 307.63 151.458 307.227 151.797C306.824 152.135 306.356 152.388 305.851 152.538C305.483 152.649 305.101 152.704 304.716 152.703ZM303.889 103.989C303.356 103.988 302.834 104.135 302.379 104.413C301.924 104.692 301.556 105.091 301.315 105.566L285.076 137.709C284.743 138.366 284.676 139.125 284.887 139.831C285.098 140.536 285.572 141.133 286.211 141.499L303.287 151.299C303.625 151.494 303.999 151.617 304.387 151.662C304.775 151.707 305.167 151.672 305.541 151.561C305.915 151.449 306.262 151.262 306.561 151.011C306.86 150.761 307.105 150.452 307.281 150.104L324.079 116.823C324.251 116.484 324.353 116.114 324.381 115.735C324.408 115.356 324.36 114.976 324.24 114.615C324.119 114.255 323.929 113.922 323.679 113.636C323.429 113.35 323.124 113.117 322.783 112.949L305.138 104.267C304.748 104.081 304.321 103.986 303.889 103.989Z" fill="black"/>
<path d="M279.799 122.046C279.721 122.047 279.644 122.028 279.575 121.992L263.021 113.716C262.962 113.686 262.909 113.645 262.866 113.596C262.822 113.546 262.789 113.488 262.768 113.425C262.747 113.362 262.739 113.296 262.743 113.23C262.748 113.164 262.765 113.1 262.795 113.041C262.824 112.982 262.865 112.929 262.915 112.886C262.965 112.842 263.023 112.809 263.085 112.788C263.148 112.767 263.214 112.759 263.28 112.763C263.346 112.768 263.41 112.785 263.47 112.815L280.023 121.095C280.124 121.146 280.205 121.229 280.253 121.332C280.3 121.434 280.312 121.549 280.286 121.659C280.26 121.769 280.198 121.867 280.11 121.937C280.021 122.007 279.912 122.046 279.799 122.046Z" fill="black"/>
<path d="M276.789 127.684C276.712 127.684 276.637 127.667 276.568 127.634L260.389 119.732C260.327 119.705 260.27 119.666 260.224 119.617C260.177 119.567 260.141 119.509 260.117 119.445C260.093 119.381 260.083 119.313 260.087 119.246C260.09 119.178 260.107 119.111 260.137 119.05C260.167 118.989 260.209 118.935 260.261 118.89C260.312 118.846 260.373 118.813 260.437 118.792C260.502 118.772 260.571 118.765 260.638 118.772C260.706 118.778 260.772 118.799 260.831 118.832L277.01 126.734C277.11 126.784 277.191 126.867 277.239 126.969C277.287 127.071 277.299 127.186 277.273 127.296C277.248 127.406 277.186 127.504 277.098 127.574C277.01 127.645 276.902 127.683 276.789 127.684Z" fill="black"/>
<path d="M315.544 122.8C315.467 122.8 315.391 122.781 315.323 122.746L302.154 116.351C302.034 116.293 301.942 116.189 301.899 116.063C301.855 115.938 301.863 115.799 301.922 115.68C301.98 115.56 302.083 115.468 302.209 115.424C302.335 115.381 302.473 115.389 302.593 115.447L315.761 121.845C315.821 121.874 315.874 121.913 315.919 121.963C315.963 122.012 315.997 122.069 316.018 122.131C316.04 122.194 316.049 122.259 316.046 122.325C316.042 122.391 316.025 122.456 315.996 122.515C315.954 122.6 315.89 122.671 315.81 122.721C315.73 122.772 315.638 122.799 315.544 122.8Z" fill="black"/>
<path d="M311.405 129.948C311.328 129.948 311.252 129.93 311.184 129.894L298.768 123.868C298.65 123.808 298.559 123.705 298.516 123.58C298.473 123.455 298.48 123.317 298.537 123.198C298.566 123.139 298.606 123.085 298.655 123.042C298.704 122.998 298.762 122.964 298.824 122.943C298.886 122.921 298.952 122.912 299.018 122.917C299.084 122.921 299.148 122.938 299.207 122.967L311.622 128.994C311.682 129.022 311.735 129.062 311.779 129.111C311.823 129.16 311.857 129.217 311.879 129.279C311.901 129.342 311.91 129.408 311.906 129.474C311.903 129.54 311.885 129.604 311.857 129.663C311.815 129.748 311.751 129.819 311.671 129.87C311.591 129.92 311.499 129.947 311.405 129.948Z" fill="black"/>
<path d="M308.015 136.725C307.934 136.725 307.853 136.706 307.781 136.668L294.991 129.894C294.929 129.865 294.874 129.824 294.829 129.773C294.784 129.723 294.75 129.663 294.729 129.599C294.707 129.535 294.699 129.467 294.705 129.399C294.71 129.331 294.73 129.266 294.761 129.206C294.793 129.146 294.836 129.093 294.889 129.05C294.942 129.007 295.003 128.976 295.068 128.957C295.133 128.939 295.201 128.933 295.269 128.942C295.336 128.951 295.401 128.973 295.459 129.007L308.253 135.781C308.351 135.834 308.429 135.918 308.474 136.02C308.519 136.122 308.529 136.237 308.501 136.345C308.474 136.453 308.411 136.55 308.323 136.618C308.235 136.687 308.127 136.725 308.015 136.725Z" fill="black"/>
<path d="M245.768 103.838C245.696 103.839 245.625 103.823 245.56 103.792C245.5 103.764 245.446 103.725 245.4 103.676C245.355 103.628 245.32 103.571 245.297 103.508C245.274 103.446 245.263 103.38 245.266 103.313C245.269 103.247 245.285 103.182 245.313 103.122L259.71 71.6484C259.766 71.5272 259.867 71.433 259.992 71.3865C260.117 71.3401 260.255 71.3451 260.376 71.4006C260.498 71.4561 260.592 71.5575 260.638 71.6824C260.685 71.8074 260.68 71.9457 260.624 72.067L246.227 103.54C246.187 103.629 246.122 103.703 246.041 103.756C245.96 103.809 245.865 103.837 245.768 103.838Z" fill="#1D1D1B"/>
<path d="M164.021 199.628L196.639 183.731C197.454 183.337 198.366 183.191 199.263 183.31C200.16 183.429 201.002 183.808 201.685 184.401L236.999 214.957C237.557 215.439 237.991 216.048 238.266 216.732C238.54 217.417 238.646 218.157 238.576 218.891C238.505 219.625 238.26 220.332 237.86 220.951C237.461 221.571 236.919 222.086 236.279 222.453L202.174 242.061C201.289 242.569 200.261 242.77 199.251 242.632C198.24 242.495 197.303 242.026 196.586 241.301L162.769 207.035C162.251 206.514 161.865 205.877 161.642 205.177C161.42 204.477 161.368 203.734 161.49 203.01C161.613 202.285 161.906 201.601 162.346 201.013C162.787 200.425 163.361 199.95 164.021 199.628Z" fill="#4BD657"/>
<path d="M199.846 243.165C199.167 243.166 198.496 243.031 197.87 242.77C197.244 242.508 196.676 242.125 196.2 241.642L162.382 207.379C161.811 206.801 161.386 206.094 161.142 205.318C160.898 204.542 160.842 203.72 160.98 202.918C161.117 202.116 161.443 201.359 161.931 200.708C162.418 200.058 163.054 199.532 163.785 199.176L164.006 199.628L163.785 199.176L196.404 183.282C197.305 182.842 198.316 182.676 199.311 182.806C200.306 182.936 201.24 183.355 201.999 184.012L237.313 214.565C237.931 215.1 238.412 215.775 238.716 216.534C239.02 217.293 239.138 218.113 239.06 218.927C238.982 219.741 238.71 220.524 238.268 221.212C237.825 221.899 237.224 222.471 236.516 222.878L202.411 242.486C201.63 242.933 200.746 243.167 199.846 243.165ZM198.634 183.768C198.009 183.768 197.392 183.91 196.829 184.183L164.211 200.08C163.623 200.367 163.113 200.789 162.721 201.312C162.33 201.835 162.068 202.444 161.958 203.088C161.848 203.732 161.893 204.393 162.089 205.017C162.285 205.64 162.627 206.208 163.086 206.673L196.903 240.936C197.543 241.582 198.379 241.998 199.28 242.119C200.181 242.24 201.097 242.059 201.885 241.605L236.007 222.008C236.579 221.681 237.065 221.221 237.423 220.667C237.781 220.114 238 219.482 238.063 218.825C238.126 218.169 238.03 217.507 237.783 216.896C237.537 216.284 237.147 215.741 236.646 215.311L201.329 184.759C200.583 184.117 199.631 183.765 198.647 183.768H198.634Z" fill="black"/>
<path d="M163.099 198.359L194.422 180.041C195.203 179.585 196.101 179.368 197.004 179.418C197.908 179.467 198.777 179.78 199.504 180.319L237.028 208.109C237.62 208.548 238.099 209.123 238.423 209.785C238.748 210.446 238.91 211.176 238.895 211.913C238.881 212.65 238.69 213.373 238.339 214.021C237.988 214.67 237.486 215.224 236.877 215.639L204.352 237.768C203.508 238.341 202.498 238.619 201.48 238.559C200.461 238.498 199.491 238.102 198.721 237.433L162.399 205.822C161.847 205.341 161.418 204.735 161.146 204.055C160.874 203.375 160.768 202.64 160.837 201.911C160.905 201.182 161.146 200.48 161.539 199.862C161.932 199.245 162.467 198.729 163.099 198.359Z" fill="white"/>
<path d="M201.753 239.074C200.522 239.072 199.333 238.626 198.405 237.818L162.08 206.207C161.467 205.673 160.991 205.001 160.69 204.246C160.388 203.491 160.271 202.676 160.347 201.866C160.422 201.057 160.69 200.278 161.126 199.592C161.562 198.907 162.156 198.335 162.856 197.924L194.183 179.609C195.048 179.101 196.043 178.86 197.044 178.914C198.046 178.968 199.009 179.316 199.814 179.914L237.341 207.704C237.998 208.191 238.528 208.828 238.888 209.562C239.248 210.296 239.427 211.105 239.411 211.922C239.394 212.739 239.183 213.541 238.794 214.26C238.404 214.979 237.849 215.594 237.174 216.054L204.632 238.176C203.785 238.758 202.781 239.07 201.753 239.074ZM163.098 198.359L163.352 198.791C162.787 199.12 162.309 199.58 161.957 200.131C161.606 200.682 161.39 201.309 161.329 201.96C161.268 202.611 161.362 203.267 161.605 203.874C161.848 204.481 162.232 205.021 162.726 205.45L199.051 237.061C199.737 237.659 200.603 238.012 201.511 238.066C202.42 238.12 203.321 237.872 204.073 237.359L236.601 215.231C237.144 214.86 237.59 214.366 237.903 213.788C238.216 213.21 238.386 212.566 238.399 211.909C238.412 211.252 238.268 210.601 237.978 210.011C237.689 209.421 237.263 208.909 236.735 208.518L199.212 180.727C198.564 180.247 197.789 179.968 196.983 179.924C196.178 179.881 195.377 180.075 194.681 180.483L163.359 198.798L163.098 198.359Z" fill="black"/>
<path d="M216.972 210.313C216.859 210.313 216.749 210.274 216.661 210.202L201.594 198.149C201.538 198.109 201.491 198.058 201.456 198C201.42 197.942 201.397 197.877 201.388 197.809C201.378 197.742 201.383 197.673 201.401 197.607C201.419 197.541 201.45 197.479 201.493 197.426C201.535 197.373 201.588 197.329 201.649 197.296C201.709 197.264 201.775 197.245 201.843 197.239C201.911 197.233 201.98 197.242 202.044 197.263C202.109 197.285 202.169 197.32 202.22 197.365L217.287 209.419C217.368 209.484 217.427 209.573 217.456 209.673C217.484 209.773 217.481 209.879 217.446 209.977C217.412 210.076 217.348 210.16 217.263 210.221C217.178 210.281 217.076 210.313 216.972 210.313Z" fill="black"/>
<path d="M213.614 28.9722H150.192C146.059 28.9722 142.096 30.6138 139.173 33.5361C136.251 36.4584 134.609 40.4221 134.609 44.5549V64.7882C134.609 67.5463 135.414 70.2445 136.926 72.5513C138.438 74.858 140.591 76.6729 143.121 77.7728C143.342 77.8705 143.535 78.0232 143.681 78.2166C143.827 78.41 143.921 78.6376 143.954 78.8776L145.25 88.3833C145.29 88.6702 145.416 88.9382 145.612 89.1517C145.808 89.3652 146.064 89.5139 146.346 89.5782C146.629 89.6426 146.924 89.6195 147.193 89.5119C147.462 89.4043 147.692 89.2174 147.852 88.976L154.043 79.584C154.172 79.3874 154.349 79.2261 154.556 79.1145C154.764 79.0029 154.996 78.9445 155.231 78.9446H213.614C217.747 78.9446 221.711 77.3029 224.633 74.3805C227.555 71.4582 229.197 67.4947 229.197 63.3619V44.5549C229.197 40.4221 227.555 36.4584 224.633 33.5361C221.711 30.6138 217.747 28.9722 213.614 28.9722Z" fill="#4BD657"/>
<path d="M146.668 90.1211C146.522 90.1207 146.376 90.1039 146.233 90.0709C145.849 89.9852 145.502 89.7838 145.236 89.4939C144.971 89.2041 144.801 88.8397 144.75 88.4502L143.454 78.948C143.433 78.7932 143.373 78.6463 143.28 78.5209C143.187 78.3956 143.064 78.2959 142.921 78.2314C140.302 77.0934 138.072 75.2148 136.506 72.8265C134.939 70.4382 134.105 67.6443 134.105 64.7883V44.5549C134.113 40.295 135.809 36.2117 138.822 33.1994C141.834 30.1871 145.917 28.4914 150.177 28.4834H213.599C217.859 28.4914 221.943 30.1871 224.955 33.1994C227.967 36.2117 229.663 40.295 229.671 44.5549V63.362C229.663 67.622 227.967 71.7051 224.955 74.7174C221.943 77.7297 217.859 79.4256 213.599 79.4335H155.23C155.077 79.4331 154.926 79.4709 154.792 79.5434C154.657 79.6159 154.543 79.7208 154.459 79.8486L148.272 89.2237C148.101 89.4957 147.865 89.7205 147.585 89.8773C147.304 90.0341 146.989 90.118 146.668 90.1211ZM150.19 29.4745C146.197 29.4833 142.37 31.0734 139.546 33.8971C136.722 36.7209 135.132 40.5482 135.123 44.5415V64.7748C135.123 67.435 135.9 70.0372 137.359 72.2618C138.817 74.4864 140.894 76.2366 143.333 77.2972C143.633 77.4305 143.895 77.6383 144.092 77.9008C144.29 78.1633 144.417 78.472 144.462 78.7974L145.757 88.3029C145.786 88.4857 145.869 88.6557 145.995 88.7909C146.121 88.9262 146.285 89.0204 146.465 89.0615C146.645 89.1026 146.834 89.0886 147.006 89.0215C147.178 88.9543 147.327 88.837 147.431 88.6847L153.619 79.3096C153.794 79.0428 154.034 78.8239 154.315 78.6725C154.596 78.5211 154.91 78.4421 155.23 78.4425H213.613C217.606 78.4345 221.434 76.8445 224.258 74.0206C227.082 71.1967 228.672 67.369 228.68 63.3754V44.5682C228.672 40.5746 227.082 36.7469 224.258 33.923C221.434 31.0991 217.606 29.5091 213.613 29.5011L150.19 29.4745Z" fill="black"/>
<path d="M155.704 49.7643C157.553 49.7643 159.052 48.2653 159.052 46.4161C159.052 44.5669 157.553 43.0679 155.704 43.0679C153.855 43.0679 152.355 44.5669 152.355 46.4161C152.355 48.2653 153.855 49.7643 155.704 49.7643Z" fill="#382256"/>
<path d="M155.702 50.2663C154.94 50.2663 154.196 50.0405 153.563 49.6174C152.93 49.1943 152.436 48.5929 152.145 47.8894C151.853 47.1858 151.777 46.4117 151.926 45.6648C152.074 44.9179 152.441 44.2318 152.979 43.6933C153.518 43.1548 154.204 42.788 154.951 42.6394C155.698 42.4909 156.472 42.5671 157.176 42.8585C157.879 43.1499 158.481 43.6436 158.904 44.2768C159.327 44.91 159.553 45.6543 159.553 46.4158C159.552 47.4368 159.146 48.4157 158.424 49.1376C157.702 49.8595 156.723 50.2654 155.702 50.2663ZM155.702 43.5698C155.139 43.5698 154.589 43.7368 154.121 44.0495C153.653 44.3622 153.288 44.8068 153.073 45.3268C152.857 45.8469 152.801 46.4191 152.911 46.9712C153.021 47.5233 153.292 48.0304 153.69 48.4284C154.088 48.8264 154.595 49.0974 155.147 49.2072C155.699 49.3171 156.271 49.2606 156.791 49.0452C157.311 48.8298 157.756 48.4651 158.068 47.9971C158.381 47.5291 158.548 46.9787 158.548 46.4158C158.547 45.6613 158.247 44.938 157.714 44.4044C157.18 43.8709 156.457 43.5707 155.702 43.5698Z" fill="#1D1E1B"/>
<path d="M155.704 64.1623C157.553 64.1623 159.052 62.6632 159.052 60.8141C159.052 58.9649 157.553 57.4658 155.704 57.4658C153.855 57.4658 152.355 58.9649 152.355 60.8141C152.355 62.6632 153.855 64.1623 155.704 64.1623Z" fill="#382256"/>
<path d="M155.702 64.6643C154.94 64.6643 154.196 64.4385 153.563 64.0154C152.93 63.5923 152.436 62.9909 152.145 62.2873C151.853 61.5837 151.777 60.8096 151.926 60.0627C152.074 59.3158 152.441 58.6297 152.979 58.0912C153.518 57.5527 154.204 57.1859 154.951 57.0374C155.698 56.8888 156.472 56.965 157.176 57.2565C157.879 57.5479 158.481 58.0415 158.904 58.6747C159.327 59.3079 159.553 60.0522 159.553 60.8138C159.552 61.8347 159.146 62.8136 158.424 63.5355C157.702 64.2575 156.723 64.6634 155.702 64.6643ZM155.702 57.9678C155.139 57.9678 154.589 58.1347 154.121 58.4475C153.653 58.7602 153.288 59.2048 153.073 59.7248C152.857 60.2448 152.801 60.8171 152.911 61.3692C153.021 61.9212 153.292 62.4283 153.69 62.8263C154.088 63.2244 154.595 63.4954 155.147 63.6052C155.699 63.715 156.271 63.6586 156.791 63.4432C157.311 63.2278 157.756 62.8631 158.068 62.3951C158.381 61.927 158.548 61.3767 158.548 60.8138C158.547 60.0593 158.247 59.3359 157.714 58.8024C157.18 58.2689 156.457 57.9687 155.702 57.9678Z" fill="#1D1E1B"/>
<path d="M167.083 49.7643C168.932 49.7643 170.431 48.2653 170.431 46.4161C170.431 44.5669 168.932 43.0679 167.083 43.0679C165.233 43.0679 163.734 44.5669 163.734 46.4161C163.734 48.2653 165.233 49.7643 167.083 49.7643Z" fill="#382256"/>
<path d="M167.081 50.2663C166.319 50.2663 165.575 50.0405 164.942 49.6174C164.309 49.1943 163.815 48.5929 163.524 47.8894C163.232 47.1858 163.156 46.4117 163.304 45.6648C163.453 44.9179 163.82 44.2318 164.358 43.6933C164.897 43.1548 165.583 42.788 166.33 42.6394C167.077 42.4909 167.851 42.5671 168.554 42.8585C169.258 43.1499 169.859 43.6436 170.283 44.2768C170.706 44.91 170.931 45.6543 170.931 46.4158C170.931 47.4368 170.525 48.4157 169.803 49.1376C169.081 49.8595 168.102 50.2654 167.081 50.2663ZM167.081 43.5698C166.518 43.5698 165.968 43.7368 165.5 44.0495C165.032 44.3622 164.667 44.8068 164.452 45.3268C164.236 45.8469 164.18 46.4191 164.29 46.9712C164.399 47.5233 164.671 48.0304 165.069 48.4284C165.467 48.8264 165.974 49.0974 166.526 49.2072C167.078 49.3171 167.65 49.2606 168.17 49.0452C168.69 48.8298 169.135 48.4651 169.447 47.9971C169.76 47.5291 169.927 46.9787 169.927 46.4158C169.926 45.6613 169.626 44.938 169.092 44.4044C168.559 43.8709 167.835 43.5707 167.081 43.5698Z" fill="#1D1E1B"/>
<path d="M167.083 64.1623C168.932 64.1623 170.431 62.6632 170.431 60.8141C170.431 58.9649 168.932 57.4658 167.083 57.4658C165.233 57.4658 163.734 58.9649 163.734 60.8141C163.734 62.6632 165.233 64.1623 167.083 64.1623Z" fill="#382256"/>
<path d="M167.081 64.6643C166.319 64.6643 165.575 64.4385 164.942 64.0154C164.309 63.5923 163.815 62.9909 163.524 62.2873C163.232 61.5837 163.156 60.8096 163.304 60.0627C163.453 59.3158 163.82 58.6297 164.358 58.0912C164.897 57.5527 165.583 57.1859 166.33 57.0374C167.077 56.8888 167.851 56.965 168.554 57.2565C169.258 57.5479 169.859 58.0415 170.283 58.6747C170.706 59.3079 170.931 60.0522 170.931 60.8138C170.931 61.8347 170.525 62.8136 169.803 63.5355C169.081 64.2575 168.102 64.6634 167.081 64.6643ZM167.081 57.9678C166.518 57.9678 165.968 58.1347 165.5 58.4475C165.032 58.7602 164.667 59.2048 164.452 59.7248C164.236 60.2448 164.18 60.8171 164.29 61.3692C164.399 61.9212 164.671 62.4283 165.069 62.8263C165.467 63.2244 165.974 63.4954 166.526 63.6052C167.078 63.715 167.65 63.6586 168.17 63.4432C168.69 63.2278 169.135 62.8631 169.447 62.3951C169.76 61.927 169.927 61.3767 169.927 60.8138C169.926 60.0593 169.626 59.3359 169.092 58.8024C168.559 58.2689 167.835 57.9687 167.081 57.9678Z" fill="#1D1E1B"/>
<path d="M178.469 49.7643C180.319 49.7643 181.818 48.2653 181.818 46.4161C181.818 44.5669 180.319 43.0679 178.469 43.0679C176.62 43.0679 175.121 44.5669 175.121 46.4161C175.121 48.2653 176.62 49.7643 178.469 49.7643Z" fill="#382256"/>
<path d="M178.468 50.2668C177.706 50.2668 176.962 50.041 176.328 49.6179C175.695 49.1948 175.202 48.5934 174.91 47.8899C174.619 47.1863 174.543 46.4122 174.691 45.6653C174.84 44.9183 175.207 44.2323 175.745 43.6938C176.284 43.1553 176.97 42.7885 177.717 42.6399C178.463 42.4913 179.238 42.5676 179.941 42.859C180.645 43.1504 181.246 43.644 181.669 44.2773C182.092 44.9105 182.318 45.6548 182.318 46.4163C182.317 47.4373 181.911 48.4162 181.189 49.1381C180.467 49.86 179.489 50.2659 178.468 50.2668ZM178.468 43.5703C177.905 43.5703 177.355 43.7373 176.887 44.05C176.419 44.3627 176.054 44.8073 175.838 45.3273C175.623 45.8474 175.567 46.4196 175.676 46.9717C175.786 47.5238 176.057 48.0309 176.455 48.4289C176.853 48.8269 177.36 49.0979 177.912 49.2077C178.465 49.3175 179.037 49.2611 179.557 49.0457C180.077 48.8303 180.521 48.4656 180.834 47.9976C181.147 47.5296 181.314 46.9792 181.314 46.4163C181.313 45.6618 181.013 44.9385 180.479 44.4049C179.946 43.8714 179.222 43.5712 178.468 43.5703Z" fill="#1D1E1B"/>
<path d="M178.469 64.1623C180.319 64.1623 181.818 62.6632 181.818 60.8141C181.818 58.9649 180.319 57.4658 178.469 57.4658C176.62 57.4658 175.121 58.9649 175.121 60.8141C175.121 62.6632 176.62 64.1623 178.469 64.1623Z" fill="white"/>
<path d="M178.468 64.6643C177.706 64.6643 176.962 64.4385 176.328 64.0154C175.695 63.5923 175.202 62.9909 174.91 62.2873C174.619 61.5837 174.543 60.8096 174.691 60.0627C174.84 59.3158 175.207 58.6297 175.745 58.0912C176.284 57.5527 176.97 57.1859 177.717 57.0374C178.463 56.8888 179.238 56.965 179.941 57.2565C180.645 57.5479 181.246 58.0415 181.669 58.6747C182.092 59.3079 182.318 60.0522 182.318 60.8138C182.317 61.8347 181.911 62.8136 181.189 63.5355C180.467 64.2575 179.489 64.6634 178.468 64.6643ZM178.468 57.9678C177.905 57.9678 177.355 58.1347 176.887 58.4475C176.419 58.7602 176.054 59.2048 175.838 59.7248C175.623 60.2448 175.567 60.8171 175.676 61.3692C175.786 61.9212 176.057 62.4283 176.455 62.8263C176.853 63.2244 177.36 63.4954 177.912 63.6052C178.465 63.715 179.037 63.6586 179.557 63.4432C180.077 63.2278 180.521 62.8631 180.834 62.3951C181.147 61.927 181.314 61.3767 181.314 60.8138C181.313 60.0593 181.013 59.3359 180.479 58.8024C179.946 58.2689 179.222 57.9687 178.468 57.9678Z" fill="black"/>
<path d="M189.856 49.7643C191.705 49.7643 193.204 48.2653 193.204 46.4161C193.204 44.5669 191.705 43.0679 189.856 43.0679C188.007 43.0679 186.508 44.5669 186.508 46.4161C186.508 48.2653 188.007 49.7643 189.856 49.7643Z" fill="white"/>
<path d="M189.854 50.2663C189.093 50.2663 188.348 50.0405 187.715 49.6174C187.082 49.1943 186.588 48.5929 186.297 47.8894C186.006 47.1858 185.929 46.4117 186.078 45.6648C186.226 44.9179 186.593 44.2318 187.132 43.6933C187.67 43.1548 188.356 42.788 189.103 42.6394C189.85 42.4909 190.624 42.5671 191.328 42.8585C192.031 43.1499 192.633 43.6436 193.056 44.2768C193.479 44.91 193.705 45.6543 193.705 46.4158C193.704 47.4368 193.298 48.4157 192.576 49.1376C191.854 49.8595 190.875 50.2654 189.854 50.2663ZM189.854 43.5698C189.291 43.5698 188.741 43.7368 188.273 44.0495C187.805 44.3622 187.44 44.8068 187.225 45.3268C187.01 45.8469 186.953 46.4191 187.063 46.9712C187.173 47.5233 187.444 48.0304 187.842 48.4284C188.24 48.8264 188.747 49.0974 189.299 49.2072C189.851 49.3171 190.423 49.2606 190.944 49.0452C191.464 48.8298 191.908 48.4651 192.221 47.9971C192.534 47.5291 192.7 46.9787 192.7 46.4158C192.699 45.6613 192.399 44.938 191.866 44.4044C191.332 43.8709 190.609 43.5707 189.854 43.5698Z" fill="black"/>
<path d="M189.856 64.1623C191.705 64.1623 193.204 62.6632 193.204 60.8141C193.204 58.9649 191.705 57.4658 189.856 57.4658C188.007 57.4658 186.508 58.9649 186.508 60.8141C186.508 62.6632 188.007 64.1623 189.856 64.1623Z" fill="white"/>
<path d="M189.854 64.6643C189.093 64.6643 188.348 64.4385 187.715 64.0154C187.082 63.5923 186.588 62.9909 186.297 62.2873C186.006 61.5837 185.929 60.8096 186.078 60.0627C186.226 59.3158 186.593 58.6297 187.132 58.0912C187.67 57.5527 188.356 57.1859 189.103 57.0374C189.85 56.8888 190.624 56.965 191.328 57.2565C192.031 57.5479 192.633 58.0415 193.056 58.6747C193.479 59.3079 193.705 60.0522 193.705 60.8138C193.704 61.8347 193.298 62.8136 192.576 63.5355C191.854 64.2575 190.875 64.6634 189.854 64.6643ZM189.854 57.9678C189.291 57.9678 188.741 58.1347 188.273 58.4475C187.805 58.7602 187.44 59.2048 187.225 59.7248C187.01 60.2448 186.953 60.8171 187.063 61.3692C187.173 61.9212 187.444 62.4283 187.842 62.8263C188.24 63.2244 188.747 63.4954 189.299 63.6052C189.851 63.715 190.423 63.6586 190.944 63.4432C191.464 63.2278 191.908 62.8631 192.221 62.3951C192.534 61.927 192.7 61.3767 192.7 60.8138C192.699 60.0593 192.399 59.3359 191.866 58.8024C191.332 58.2689 190.609 57.9687 189.854 57.9678Z" fill="black"/>
<path d="M201.235 49.7643C203.084 49.7643 204.583 48.2653 204.583 46.4161C204.583 44.5669 203.084 43.0679 201.235 43.0679C199.386 43.0679 197.887 44.5669 197.887 46.4161C197.887 48.2653 199.386 49.7643 201.235 49.7643Z" fill="white"/>
<path d="M201.233 50.2663C200.472 50.2663 199.727 50.0405 199.094 49.6174C198.461 49.1943 197.967 48.5929 197.676 47.8894C197.385 47.1858 197.308 46.4117 197.457 45.6648C197.605 44.9179 197.972 44.2318 198.511 43.6933C199.049 43.1548 199.735 42.788 200.482 42.6394C201.229 42.4909 202.003 42.5671 202.707 42.8585C203.41 43.1499 204.012 43.6436 204.435 44.2768C204.858 44.91 205.084 45.6543 205.084 46.4158C205.083 47.4368 204.677 48.4157 203.955 49.1376C203.233 49.8595 202.254 50.2654 201.233 50.2663ZM201.233 43.5698C200.67 43.5698 200.12 43.7368 199.652 44.0495C199.184 44.3622 198.819 44.8068 198.604 45.3268C198.389 45.8469 198.332 46.4191 198.442 46.9712C198.552 47.5233 198.823 48.0304 199.221 48.4284C199.619 48.8264 200.126 49.0974 200.678 49.2072C201.23 49.3171 201.802 49.2606 202.322 49.0452C202.842 48.8298 203.287 48.4651 203.6 47.9971C203.912 47.5291 204.079 46.9787 204.079 46.4158C204.078 45.6613 203.778 44.938 203.245 44.4044C202.711 43.8709 201.988 43.5707 201.233 43.5698Z" fill="black"/>
<path d="M201.235 64.1623C203.084 64.1623 204.583 62.6632 204.583 60.8141C204.583 58.9649 203.084 57.4658 201.235 57.4658C199.386 57.4658 197.887 58.9649 197.887 60.8141C197.887 62.6632 199.386 64.1623 201.235 64.1623Z" fill="white"/>
<path d="M201.233 64.6643C200.472 64.6643 199.727 64.4385 199.094 64.0154C198.461 63.5923 197.967 62.9909 197.676 62.2873C197.385 61.5837 197.308 60.8096 197.457 60.0627C197.605 59.3158 197.972 58.6297 198.511 58.0912C199.049 57.5527 199.735 57.1859 200.482 57.0374C201.229 56.8888 202.003 56.965 202.707 57.2565C203.41 57.5479 204.012 58.0415 204.435 58.6747C204.858 59.3079 205.084 60.0522 205.084 60.8138C205.083 61.8347 204.677 62.8136 203.955 63.5355C203.233 64.2575 202.254 64.6634 201.233 64.6643ZM201.233 57.9678C200.67 57.9678 200.12 58.1347 199.652 58.4475C199.184 58.7602 198.819 59.2048 198.604 59.7248C198.389 60.2448 198.332 60.8171 198.442 61.3692C198.552 61.9212 198.823 62.4283 199.221 62.8263C199.619 63.2244 200.126 63.4954 200.678 63.6052C201.23 63.715 201.802 63.6586 202.322 63.4432C202.842 63.2278 203.287 62.8631 203.6 62.3951C203.912 61.927 204.079 61.3767 204.079 60.8138C204.078 60.0593 203.778 59.3359 203.245 58.8024C202.711 58.2689 201.988 57.9687 201.233 57.9678Z" fill="black"/>
<path d="M202.911 84.4185H163.737C163.603 84.4185 163.476 84.3657 163.382 84.2716C163.287 84.1774 163.234 84.0495 163.234 83.9163C163.234 83.7831 163.287 83.6554 163.382 83.5612C163.476 83.467 163.603 83.4141 163.737 83.4141H202.911C203.044 83.4141 203.172 83.467 203.266 83.5612C203.36 83.6554 203.413 83.7831 203.413 83.9163C203.413 84.0495 203.36 84.1774 203.266 84.2716C203.172 84.3657 203.044 84.4185 202.911 84.4185Z" fill="#1D1D1B"/>
<path d="M239.204 236.125L275.944 231.169C276.526 231.09 277.118 231.185 277.647 231.441C278.175 231.697 278.616 232.103 278.914 232.609L284.385 241.86C284.633 242.279 284.774 242.751 284.797 243.237C284.82 243.722 284.724 244.206 284.517 244.646C284.311 245.086 284 245.469 283.611 245.761C283.223 246.053 282.769 246.246 282.289 246.323L243.309 252.584C242.598 252.699 241.869 252.552 241.257 252.171C240.646 251.79 240.192 251.201 239.981 250.512L236.75 239.952C236.624 239.538 236.59 239.102 236.649 238.674C236.709 238.246 236.86 237.835 237.094 237.472C237.327 237.108 237.637 236.799 238.001 236.566C238.365 236.334 238.776 236.183 239.204 236.125Z" fill="#382256"/>
<path d="M242.841 253.13C242.093 253.131 241.364 252.891 240.761 252.447C240.159 252.003 239.714 251.378 239.493 250.663L236.259 240.106C236.11 239.622 236.069 239.112 236.138 238.61C236.206 238.109 236.384 237.629 236.657 237.203C236.93 236.777 237.292 236.415 237.719 236.144C238.146 235.872 238.627 235.696 239.128 235.629L275.868 230.67C276.547 230.577 277.238 230.686 277.856 230.984C278.473 231.281 278.988 231.755 279.337 232.344L284.808 241.602C285.097 242.091 285.263 242.644 285.29 243.211C285.317 243.779 285.204 244.345 284.963 244.859C284.721 245.373 284.357 245.821 283.903 246.162C283.449 246.504 282.918 246.729 282.357 246.819L243.38 253.08C243.202 253.111 243.022 253.128 242.841 253.13ZM239.272 236.623C238.915 236.672 238.573 236.797 238.27 236.991C237.966 237.184 237.708 237.442 237.514 237.745C237.32 238.048 237.194 238.39 237.145 238.747C237.095 239.104 237.124 239.467 237.23 239.811L240.461 250.371C240.638 250.943 241.016 251.432 241.524 251.749C242.033 252.065 242.638 252.188 243.23 252.096L282.21 245.834C282.609 245.77 282.986 245.609 283.309 245.366C283.632 245.122 283.89 244.804 284.062 244.438C284.234 244.072 284.314 243.67 284.295 243.266C284.276 242.863 284.159 242.469 283.954 242.121L278.483 232.863C278.235 232.443 277.868 232.105 277.428 231.893C276.989 231.68 276.496 231.602 276.012 231.668L239.272 236.623Z" fill="#1D1E1B"/>
<path d="M240.208 233.781L276.948 228.825C277.53 228.746 278.122 228.841 278.65 229.097C279.179 229.353 279.62 229.76 279.918 230.265L285.389 239.516C285.636 239.935 285.778 240.407 285.801 240.893C285.824 241.378 285.728 241.862 285.521 242.302C285.315 242.742 285.004 243.125 284.615 243.417C284.227 243.71 283.773 243.903 283.293 243.98L244.313 250.241C243.602 250.355 242.873 250.208 242.261 249.827C241.65 249.446 241.196 248.857 240.985 248.168L237.754 237.608C237.628 237.194 237.594 236.758 237.653 236.33C237.713 235.902 237.864 235.492 238.098 235.128C238.331 234.764 238.64 234.455 239.005 234.222C239.369 233.99 239.78 233.839 240.208 233.781Z" fill="#4BD657"/>
<path d="M243.845 250.787C243.097 250.787 242.368 250.548 241.765 250.104C241.163 249.659 240.718 249.034 240.497 248.319L237.263 237.762C237.114 237.278 237.073 236.768 237.142 236.267C237.21 235.765 237.387 235.285 237.66 234.859C237.934 234.433 238.296 234.072 238.723 233.8C239.15 233.528 239.631 233.353 240.132 233.285L276.872 228.327C277.551 228.233 278.242 228.342 278.859 228.64C279.477 228.938 279.992 229.411 280.341 230.001L285.812 239.259C286.101 239.748 286.267 240.3 286.294 240.868C286.321 241.435 286.208 242.001 285.967 242.515C285.725 243.03 285.361 243.477 284.907 243.819C284.453 244.16 283.922 244.386 283.361 244.475L244.384 250.736C244.206 250.767 244.026 250.784 243.845 250.787ZM240.276 234.28C239.919 234.328 239.577 234.453 239.273 234.647C238.97 234.841 238.712 235.098 238.518 235.401C238.324 235.704 238.198 236.046 238.148 236.403C238.099 236.76 238.128 237.123 238.234 237.467L241.465 248.028C241.642 248.599 242.02 249.088 242.528 249.405C243.037 249.722 243.642 249.845 244.234 249.752L283.214 243.491C283.613 243.426 283.99 243.265 284.313 243.022C284.636 242.779 284.894 242.46 285.066 242.095C285.238 241.729 285.318 241.326 285.299 240.923C285.28 240.519 285.163 240.126 284.958 239.777L279.487 230.52C279.239 230.099 278.872 229.762 278.432 229.549C277.993 229.336 277.5 229.258 277.016 229.324L240.276 234.28Z" fill="black"/>
<path d="M243.088 242.958C244.013 242.958 244.762 242.283 244.762 241.451C244.762 240.619 244.013 239.944 243.088 239.944C242.164 239.944 241.414 240.619 241.414 241.451C241.414 242.283 242.164 242.958 243.088 242.958Z" fill="#382256"/>
<path d="M243.088 243.46C242.699 243.428 242.328 243.283 242.021 243.043C241.713 242.804 241.482 242.48 241.355 242.111C241.228 241.742 241.212 241.345 241.307 240.967C241.403 240.589 241.606 240.246 241.892 239.982C242.179 239.717 242.536 239.542 242.921 239.477C243.305 239.412 243.7 239.461 244.058 239.616C244.415 239.772 244.719 240.029 244.934 240.354C245.148 240.68 245.263 241.061 245.264 241.451C245.24 242.006 244.998 242.528 244.59 242.905C244.183 243.281 243.642 243.481 243.088 243.46ZM243.088 240.447C242.899 240.478 242.724 240.563 242.582 240.691C242.441 240.819 242.338 240.985 242.287 241.169C242.236 241.353 242.239 241.547 242.294 241.73C242.35 241.913 242.456 242.075 242.601 242.2C242.746 242.324 242.924 242.404 243.113 242.431C243.302 242.458 243.494 242.431 243.668 242.353C243.842 242.274 243.99 242.147 244.095 241.988C244.2 241.828 244.257 241.642 244.259 241.451C244.235 241.163 244.099 240.896 243.88 240.708C243.66 240.52 243.376 240.426 243.088 240.447Z" fill="#1D1E1B"/>
<path d="M211.709 282.3C202.186 282.304 192.689 281.294 183.38 279.286C183.313 279.275 183.249 279.25 183.192 279.214C183.135 279.177 183.086 279.129 183.048 279.073C183.009 279.017 182.983 278.954 182.97 278.887C182.957 278.82 182.958 278.752 182.972 278.685C182.986 278.619 183.014 278.556 183.053 278.501C183.092 278.446 183.142 278.399 183.2 278.363C183.258 278.328 183.322 278.304 183.39 278.294C183.457 278.284 183.525 278.288 183.591 278.305C192.833 280.301 202.261 281.305 211.716 281.302C284.617 281.302 343.924 221.971 343.924 149.046C343.925 144.084 343.648 139.125 343.097 134.194C343.09 134.128 343.096 134.061 343.114 133.997C343.132 133.933 343.163 133.874 343.204 133.822C343.246 133.77 343.297 133.727 343.355 133.695C343.413 133.662 343.477 133.642 343.543 133.635C343.609 133.627 343.675 133.633 343.739 133.651C343.803 133.669 343.863 133.7 343.914 133.741C343.966 133.783 344.01 133.834 344.042 133.892C344.074 133.95 344.094 134.014 344.102 134.08C344.654 139.05 344.931 144.046 344.932 149.046C344.952 166.548 341.52 183.881 334.832 200.055C328.145 216.228 318.334 230.925 305.961 243.302C293.588 255.68 278.895 265.496 262.724 272.189C246.553 278.881 229.221 282.32 211.719 282.306L211.709 282.3Z" fill="#1D1D1B"/>
<path d="M331.884 93.1544C331.788 93.1539 331.695 93.1261 331.614 93.0746C331.534 93.023 331.469 92.9497 331.429 92.863C309.722 46.6573 262.73 16.7843 211.706 16.7843C203.109 16.7826 194.532 17.6125 186.095 19.2621C186.029 19.2784 185.961 19.2811 185.894 19.2701C185.827 19.2591 185.762 19.2345 185.705 19.198C185.648 19.1615 185.599 19.1138 185.56 19.0577C185.522 19.0016 185.495 18.9383 185.482 18.8717C185.469 18.805 185.47 18.7364 185.484 18.6699C185.498 18.6035 185.525 18.5406 185.564 18.485C185.604 18.4295 185.654 18.3825 185.712 18.3469C185.769 18.3112 185.834 18.2877 185.901 18.2777C194.402 16.6148 203.044 15.7782 211.706 15.7798C237.019 15.7765 261.809 22.985 283.174 36.5613C304.538 50.1375 321.592 69.5195 332.34 92.4378C332.375 92.5145 332.39 92.5988 332.385 92.683C332.379 92.7672 332.352 92.8487 332.307 92.9199C332.261 92.9912 332.199 93.05 332.125 93.0909C332.051 93.1319 331.969 93.1537 331.884 93.1544Z" fill="#1D1D1B"/>
<path d="M79.4376 138.734H79.3974C79.3314 138.729 79.267 138.711 79.208 138.681C79.149 138.651 79.0965 138.609 79.0535 138.559C79.0106 138.508 78.9781 138.45 78.9578 138.387C78.9375 138.324 78.9298 138.257 78.9353 138.191C81.4819 107.008 94.9196 77.7147 116.894 55.4432C116.94 55.3937 116.995 55.3537 117.057 55.326C117.118 55.2983 117.185 55.2834 117.252 55.2819C117.32 55.2804 117.387 55.2924 117.449 55.3173C117.512 55.3423 117.569 55.3796 117.617 55.427C117.665 55.4745 117.702 55.5312 117.728 55.5936C117.754 55.656 117.766 55.7229 117.765 55.7903C117.765 55.8577 117.75 55.9243 117.723 55.986C117.696 56.0477 117.657 56.1034 117.607 56.1497C95.8015 78.2542 82.4662 107.325 79.9365 138.272C79.9272 138.398 79.8705 138.515 79.7779 138.601C79.6854 138.687 79.5637 138.734 79.4376 138.734Z" fill="#1D1D1B"/>
<path d="M65.7687 177.172C65.6411 177.171 65.5186 177.122 65.4259 177.034C65.3333 176.947 65.2774 176.827 65.2698 176.7C63.2173 143.854 69.1102 123.798 69.1705 123.617C69.1867 123.551 69.2161 123.488 69.2571 123.434C69.2981 123.38 69.3497 123.334 69.4088 123.3C69.4679 123.266 69.5333 123.245 69.601 123.237C69.6687 123.229 69.7373 123.235 69.8025 123.255C69.8678 123.275 69.9283 123.307 69.9805 123.351C70.0328 123.395 70.0756 123.448 70.1063 123.509C70.1371 123.57 70.1553 123.636 70.1596 123.704C70.1639 123.772 70.1543 123.841 70.1314 123.905C70.0712 124.102 64.2352 143.994 66.2709 176.636C66.2792 176.769 66.2345 176.899 66.1466 176.999C66.0587 177.099 65.9348 177.16 65.8021 177.169L65.7687 177.172Z" fill="#1D1D1B"/>
<path d="M89.2083 293.651C79.4114 285.95 74.5129 273.226 72.1323 263.915C70.5727 257.85 69.6138 251.645 69.2695 245.392L70.274 245.359C70.274 245.694 71.4894 278.446 89.8377 292.86L89.2083 293.651Z" fill="black"/>
<path d="M338.147 77.7624C333.165 59.8995 321.49 46.3727 312.57 38.1729C302.89 29.2733 294.278 24.5454 294.191 24.4986L294.674 23.6147C294.761 23.6616 303.463 28.4361 313.23 37.4161C322.253 45.7063 334.066 59.3907 339.111 77.4946L338.147 77.7624Z" fill="black"/>
<path d="M301.471 218.68C311.859 218.68 320.281 213.459 320.281 207.018C320.281 200.577 311.859 195.356 301.471 195.356C291.082 195.356 282.66 200.577 282.66 207.018C282.66 213.459 291.082 218.68 301.471 218.68Z" fill="#07ACEE"/>
<path d="M301.469 219.185C290.822 219.185 282.156 213.728 282.156 207.018C282.156 200.308 290.822 194.854 301.469 194.854C312.116 194.854 320.785 200.311 320.785 207.018C320.785 213.724 312.12 219.185 301.469 219.185ZM301.469 195.858C291.374 195.858 283.161 200.88 283.161 207.018C283.161 213.155 291.374 218.181 301.469 218.181C311.564 218.181 319.78 213.175 319.78 207.018C319.78 200.86 311.567 195.858 301.469 195.858Z" fill="black"/>
<path d="M289.246 185.763L292.447 208.149C293.763 213.604 310.317 214.732 311.823 207.208L314.837 185.385L289.246 185.763Z" fill="#07ACEE"/>
<path d="M302.18 213.065C297.72 213.065 292.714 211.424 291.958 208.283V208.237L288.68 185.284L315.419 184.893L312.328 207.292C311.501 211.427 306.733 212.984 302.545 213.061L302.18 213.065ZM292.929 208.042C293.515 210.386 297.713 212.127 302.505 212.03C306.305 211.953 310.614 210.621 311.317 207.098L314.244 185.887L289.801 186.245L292.929 208.042Z" fill="black"/>
<path d="M302.036 184.27C307.155 184.27 311.572 186.041 313.614 188.596C314.375 187.702 314.804 186.572 314.826 185.398C314.826 181.243 309.101 177.875 302.036 177.875C294.971 177.875 289.242 181.243 289.242 185.398C289.266 186.572 289.695 187.701 290.454 188.596C292.5 186.027 296.916 184.27 302.036 184.27Z" fill="#07ACEE"/>
<path d="M313.612 189.389L313.221 188.897C311.212 186.383 306.819 184.759 302.034 184.759C297.249 184.759 292.857 186.383 290.848 188.897L290.453 189.389L290.061 188.897C289.226 187.915 288.759 186.674 288.738 185.385C288.738 180.959 294.705 177.349 302.034 177.349C309.363 177.349 315.327 180.948 315.327 185.385C315.308 186.673 314.842 187.915 314.007 188.897L313.612 189.389ZM302.034 183.754C306.879 183.754 311.222 185.281 313.579 187.772C314.055 187.064 314.314 186.232 314.322 185.378C314.322 181.508 308.811 178.347 302.034 178.347C295.257 178.347 289.743 181.498 289.743 185.378C289.753 186.232 290.012 187.064 290.489 187.772C292.843 185.274 297.186 183.754 302.034 183.754Z" fill="black"/>
<path d="M302.031 192.908C308.427 192.908 313.612 190.971 313.612 188.582C313.612 186.193 308.427 184.256 302.031 184.256C295.634 184.256 290.449 186.193 290.449 188.582C290.449 190.971 295.634 192.908 302.031 192.908Z" fill="#382256"/>
<path d="M302.033 193.414C296.873 193.414 292.286 191.682 290.06 188.897L289.809 188.582L290.06 188.271C292.286 185.485 296.873 183.754 302.033 183.754C307.193 183.754 311.78 185.485 314.006 188.271L314.257 188.582L314.006 188.897C311.78 191.682 307.189 193.414 302.033 193.414ZM291.111 188.582C293.227 190.926 297.449 192.409 302.033 192.409C306.617 192.409 310.839 190.919 312.955 188.582C310.839 186.238 306.617 184.758 302.033 184.758C297.449 184.758 293.227 186.248 291.111 188.582Z" fill="#1D1E1B"/>
<path d="M312.568 203.194C312.435 203.211 312.3 203.175 312.194 203.093C312.087 203.011 312.018 202.89 312 202.757C311.983 202.624 312.019 202.489 312.101 202.383C312.183 202.276 312.304 202.207 312.437 202.19C316.422 201.115 320.473 196.424 321.173 193.26C321.437 192.068 321.24 191.191 320.594 190.645C317.815 188.301 314.741 190.564 314.61 190.662C314.503 190.741 314.37 190.775 314.238 190.756C314.106 190.737 313.988 190.667 313.907 190.561C313.867 190.509 313.838 190.449 313.822 190.386C313.805 190.322 313.801 190.256 313.81 190.191C313.819 190.126 313.841 190.064 313.875 190.007C313.908 189.95 313.952 189.901 314.004 189.861C314.044 189.831 317.841 187.019 321.24 189.861C322.184 190.655 322.499 191.9 322.154 193.464C321.377 196.97 317.081 201.962 312.698 203.147C312.658 203.17 312.614 203.185 312.568 203.194Z" fill="black"/>
<path d="M297.093 201.734C296.97 201.734 296.85 201.688 296.758 201.606C296.666 201.523 296.608 201.409 296.594 201.286C295.895 194.867 296.477 191.304 298.372 190.397C300.267 189.49 302.521 191.736 302.615 191.824C302.703 191.919 302.752 192.045 302.749 192.175C302.747 192.305 302.694 192.429 302.602 192.521C302.51 192.613 302.386 192.666 302.256 192.668C302.126 192.67 302 192.622 301.905 192.533C301.392 192.024 299.839 190.809 298.804 191.304C297.994 191.696 296.755 193.494 297.592 201.178C297.6 201.244 297.594 201.31 297.575 201.374C297.557 201.437 297.526 201.496 297.485 201.548C297.443 201.599 297.392 201.642 297.334 201.673C297.276 201.705 297.212 201.724 297.147 201.731L297.093 201.734Z" fill="#1D1D1B"/>
<path d="M297.456 200.901C295.718 200.854 294.345 202.454 294.509 204.333L294.757 207.152L300.653 207.306L300.349 203.821C300.205 202.2 298.952 200.938 297.456 200.901Z" fill="#07ACEE"/>
<path d="M300.651 207.808L294.755 207.654C294.632 207.651 294.514 207.603 294.424 207.518C294.335 207.433 294.279 207.318 294.27 207.195L294.022 204.38C293.97 203.849 294.031 203.313 294.201 202.808C294.37 202.302 294.645 201.838 295.006 201.446C295.32 201.106 295.704 200.836 296.13 200.655C296.557 200.475 297.017 200.387 297.48 200.398C299.242 200.442 300.695 201.895 300.859 203.777L301.164 207.262C301.17 207.333 301.162 207.404 301.139 207.471C301.116 207.538 301.079 207.6 301.03 207.651C300.981 207.702 300.923 207.743 300.857 207.77C300.792 207.797 300.722 207.81 300.651 207.808ZM295.217 206.663L300.102 206.79L299.844 203.864C299.724 202.494 298.693 201.433 297.444 201.403C297.121 201.394 296.801 201.455 296.504 201.581C296.208 201.708 295.942 201.897 295.726 202.136C295.461 202.424 295.26 202.765 295.137 203.136C295.013 203.507 294.97 203.9 295.01 204.289L295.217 206.663Z" fill="#1D1D1B"/>
<path d="M158.36 178.504C158.36 178.504 176.849 178.909 187.509 184.698C199.228 191.06 199.563 194.408 199.563 194.408C199.563 194.408 200.902 199.765 196.55 200.435C195.545 204.788 185.835 204.972 178.379 200.9C178.379 200.9 167.859 208.702 155.306 196.826C142.753 184.949 158.36 178.504 158.36 178.504Z" fill="#FFCDB2"/>
<path d="M189.508 204.332C185.637 204.261 181.836 203.287 178.409 201.486C176.347 202.772 174.021 203.573 171.605 203.83C167.668 204.265 161.584 203.472 154.958 197.204C151.074 193.521 149.423 189.962 150.046 186.597C151.071 181.042 157.878 178.173 158.165 178.052C158.23 178.026 158.3 178.014 158.37 178.015C158.554 178.015 177.12 178.491 187.751 184.27C199.011 190.384 199.975 193.789 200.059 194.315C200.136 194.649 200.728 197.345 199.466 199.23C199.178 199.658 198.806 200.024 198.374 200.306C197.941 200.588 197.456 200.78 196.948 200.87C196.587 201.969 195.703 202.856 194.373 203.455C192.829 204.08 191.173 204.379 189.508 204.332ZM178.379 200.398C178.463 200.399 178.546 200.42 178.62 200.459C183.759 203.264 190.355 204.142 193.961 202.538C195.137 202.009 195.843 201.262 196.061 200.321C196.083 200.224 196.135 200.135 196.208 200.067C196.281 199.999 196.374 199.954 196.473 199.94C196.902 199.898 197.317 199.764 197.69 199.546C198.062 199.328 198.383 199.031 198.629 198.677C199.69 197.08 199.084 194.556 199.078 194.529C199.076 194.505 199.076 194.482 199.078 194.459C199.078 194.442 198.408 191.181 187.285 185.14C177.274 179.706 160.007 179.057 158.47 179.01C157.66 179.371 151.908 182.087 151.044 186.768C150.491 189.781 152.048 193.039 155.664 196.477C160.67 201.212 166.131 203.412 171.455 202.839C173.821 202.608 176.098 201.809 178.091 200.512C178.173 200.446 178.273 200.406 178.379 200.398Z" fill="#1D1D1B"/>
<path d="M97.2745 234.39C97.2745 234.39 70.954 216.701 83.7142 172.645C96.4743 128.589 144.22 146.733 162.448 178.94C174.167 199.669 187.362 236.971 179.768 252.772C172.175 268.572 118.546 265.686 97.2745 234.39Z" fill="#07ACEE"/>
<path d="M155.077 262.659C145.725 262.659 135.432 260.67 126.178 257.017C113.578 252.045 103.46 244.347 96.9109 234.751C96.1007 234.182 90.0069 229.729 85.2591 220.264C80.672 211.123 76.5938 195.42 83.23 172.504C88.9722 152.686 100.976 147.259 110.036 146.2C119.033 145.146 129.419 147.958 139.283 154.119C149.043 160.255 157.147 168.693 162.885 178.692C174.453 199.133 187.963 236.881 180.218 252.989C177.694 258.243 170.197 261.695 159.657 262.492C158.164 262.619 156.633 262.659 155.077 262.659ZM113.826 146.987C112.595 146.986 111.366 147.056 110.143 147.198C101.384 148.223 89.7725 153.493 84.1843 172.786C77.6485 195.353 81.6296 210.785 86.1196 219.758C90.9846 229.468 97.4801 233.928 97.5437 233.975C97.5979 234.009 97.6437 234.054 97.6777 234.109C110.274 252.641 135.118 261.658 154.986 261.658C156.549 261.658 158.078 261.602 159.573 261.49C169.745 260.73 176.937 257.473 179.304 252.554C186.891 236.767 173.465 199.441 162.001 179.187C156.346 169.333 148.359 161.017 138.74 154.97C130.403 149.756 121.695 146.987 113.826 146.987Z" fill="#1D1D1B"/>
<path d="M124.395 149.04C124.395 149.04 140.299 149.207 137.956 154.229C135.612 159.252 125.567 155.569 125.567 155.569C125.567 155.569 115.355 155.401 124.395 149.04Z" fill="white"/>
<path d="M124.396 149.04C124.396 149.04 140.3 149.207 137.956 154.229C137.005 156.265 134.792 156.871 132.492 156.871C129.12 156.871 125.568 155.569 125.568 155.569C125.568 155.569 115.356 155.401 124.396 149.04ZM124.396 148.035C124.189 148.035 123.988 148.099 123.82 148.219C120.542 150.523 119.253 152.361 119.759 154.005C120.448 156.242 124.259 156.533 125.384 156.57C126.14 156.831 129.355 157.876 132.492 157.876C136.51 157.876 138.184 156.125 138.854 154.655C139.091 154.206 139.206 153.702 139.187 153.195C139.167 152.688 139.014 152.194 138.743 151.765C137.739 150.175 135.06 149.107 130.533 148.497C128.496 148.23 126.446 148.075 124.393 148.035H124.396Z" fill="black"/>
<path d="M82.776 194.984C70.6553 219.356 85.3005 274.418 99.8218 287.818C113.406 300.35 135.276 304.224 162.015 284.603C175.335 274.827 198.662 257.285 184.532 246.403L186.769 239.412L165.199 222.868L160.552 225.447C160.552 225.447 153.112 222.038 146.068 232.354C139.023 242.67 133.927 253.974 133.927 253.974C133.927 253.974 144.538 208.977 123.882 189.379" fill="#07ACEE"/>
<path d="M126.321 298.78H125.986C116.072 298.699 106.901 295.04 99.485 288.193C84.7025 274.552 70.1578 219.242 82.332 194.777C82.3952 194.664 82.4993 194.581 82.6226 194.543C82.7458 194.505 82.8788 194.516 82.9941 194.574C83.1094 194.632 83.1982 194.731 83.2419 194.853C83.2857 194.974 83.2811 195.107 83.2293 195.225C77.8185 206.107 77.2962 224.402 81.8029 245.426C85.8208 264.135 93.1869 281.027 100.168 287.463C107.323 294.1 116.722 297.787 126.482 297.785C136.058 297.785 147.86 294.39 161.725 284.215C171.017 277.395 188.31 264.701 188.428 254.483C188.461 251.566 187.048 248.988 184.232 246.818C184.15 246.756 184.09 246.669 184.059 246.571C184.027 246.473 184.027 246.368 184.058 246.269L186.188 239.613L165.161 223.485L160.808 225.902C160.739 225.94 160.662 225.962 160.584 225.965C160.505 225.967 160.427 225.952 160.356 225.919C160.068 225.792 153.201 222.842 146.498 232.652C139.557 242.811 134.444 254.081 134.4 254.198C134.356 254.324 134.263 254.426 134.143 254.484C134.023 254.541 133.885 254.549 133.759 254.504C133.634 254.46 133.531 254.367 133.473 254.247C133.416 254.127 133.408 253.989 133.453 253.863C135.188 245.69 136.096 237.364 136.162 229.009C136.225 216.621 134.086 199.746 123.545 189.751C123.492 189.707 123.448 189.653 123.417 189.591C123.385 189.53 123.367 189.463 123.363 189.394C123.358 189.325 123.368 189.256 123.392 189.191C123.415 189.126 123.452 189.067 123.5 189.017C123.547 188.967 123.604 188.927 123.668 188.9C123.732 188.873 123.8 188.86 123.869 188.86C123.938 188.861 124.006 188.876 124.069 188.904C124.132 188.933 124.189 188.973 124.235 189.025C135.04 199.27 137.233 216.437 137.166 229.036C137.098 236.127 136.442 243.2 135.207 250.183C137.283 245.995 141.077 238.799 145.667 232.076C152.146 222.59 159.134 224.415 160.527 224.901L164.973 222.437C165.059 222.39 165.156 222.368 165.254 222.375C165.351 222.382 165.444 222.418 165.522 222.477L187.088 239.02C187.171 239.082 187.232 239.169 187.263 239.267C187.295 239.366 187.294 239.471 187.262 239.57L185.116 246.212C188.012 248.539 189.469 251.315 189.425 254.462C189.301 265.177 171.743 278.071 162.305 284.995C149.869 294.142 137.762 298.78 126.321 298.78Z" fill="#1D1D1B"/>
<path d="M209.291 209.81L216.63 209.894L208.434 212.927L209.291 209.81Z" fill="#07ACEE"/>
<path d="M208.434 213.43C208.31 213.429 208.19 213.381 208.099 213.296C208.032 213.233 207.982 213.154 207.957 213.065C207.932 212.976 207.931 212.883 207.955 212.794L208.809 209.676C208.839 209.57 208.902 209.477 208.99 209.41C209.077 209.344 209.185 209.308 209.295 209.308L216.634 209.392C216.75 209.395 216.862 209.438 216.95 209.514C217.038 209.59 217.097 209.694 217.116 209.809C217.136 209.923 217.116 210.041 217.058 210.142C217.001 210.243 216.91 210.321 216.801 210.363L208.605 213.396C208.551 213.419 208.493 213.43 208.434 213.43ZM209.673 210.316L209.178 212.117L213.909 210.366L209.673 210.316Z" fill="#382256"/>
<path d="M165.32 222.775C165.32 222.775 174.464 208.401 182.765 205.545C191.065 202.689 196.292 208.833 196.292 208.833L183.481 208.464C183.481 208.464 179.54 210.055 183.264 212.995L192.153 211.95C192.153 211.95 201.17 205.632 206.159 206.546C211.148 207.46 210.321 213.189 206.139 215.921C206.139 215.921 211.108 219.842 205.573 223.873C205.573 223.873 208.362 228.427 204.311 232.28C200.259 236.134 186.143 239.362 186.143 239.362L165.32 222.775Z" fill="#FFCDB2"/>
<path d="M186.144 239.871C186.03 239.87 185.919 239.831 185.829 239.76L165.023 223.163C164.925 223.085 164.859 222.973 164.839 222.85C164.818 222.726 164.845 222.599 164.913 222.493C165.291 221.901 174.248 207.935 182.618 205.056C191.143 202.126 196.637 208.431 196.681 208.494C196.708 208.526 196.732 208.561 196.751 208.598C199.764 207.041 203.535 205.538 206.257 206.037C208.326 206.415 209.658 207.597 210.017 209.358C210.469 211.595 209.22 214.24 206.943 215.971C207.613 216.641 208.731 218.064 208.698 219.842C208.667 221.342 207.837 222.745 206.22 224.017C206.816 225.279 208.229 229.243 204.663 232.645C200.561 236.553 186.844 239.717 186.248 239.851C186.214 239.86 186.179 239.867 186.144 239.871ZM165.991 222.661L186.264 238.823C188.116 238.384 200.327 235.374 203.966 231.925C207.65 228.403 205.249 224.312 205.145 224.141C205.079 224.033 205.056 223.904 205.081 223.78C205.105 223.655 205.176 223.545 205.279 223.471C206.849 222.326 207.66 221.101 207.686 219.832C207.727 217.853 205.848 216.333 205.828 216.319C205.765 216.27 205.715 216.207 205.681 216.134C205.648 216.062 205.632 215.983 205.636 215.903C205.64 215.823 205.662 215.746 205.702 215.677C205.742 215.607 205.798 215.549 205.865 215.506C208.095 214.039 209.424 211.541 209.026 209.563C208.751 208.223 207.73 207.333 206.069 207.028C201.348 206.164 192.532 212.288 192.442 212.352C192.374 212.399 192.296 212.428 192.214 212.439L183.325 213.483C183.259 213.492 183.193 213.487 183.13 213.469C183.066 213.451 183.007 213.421 182.956 213.38C181.634 212.338 181.038 211.297 181.185 210.286C181.399 208.769 183.217 208.019 183.294 207.989C183.359 207.962 183.429 207.949 183.499 207.952L195.027 208.287C193.403 206.851 191.42 205.881 189.29 205.481C187.16 205.081 184.96 205.265 182.926 206.013C175.634 208.521 167.501 220.384 165.991 222.661ZM183.582 208.963C183.154 209.161 182.28 209.707 182.176 210.433C182.072 211.16 182.762 211.92 183.418 212.465L191.97 211.461C192.361 211.193 193.684 210.299 195.452 209.308L183.582 208.963Z" fill="#1D1D1B"/>
<path d="M125.14 95.7379C125.518 89.212 120.543 83.6153 114.026 83.2372C107.509 82.8592 101.919 87.8431 101.541 94.3689C101.162 100.895 106.138 106.492 112.655 106.87C119.172 107.248 124.761 102.264 125.14 95.7379Z" fill="#382256"/>
<path d="M113.244 107.26C111.175 107.256 109.139 106.732 107.325 105.735C105.512 104.738 103.978 103.301 102.865 101.556C101.752 99.8108 101.096 97.8139 100.957 95.7489C100.819 93.6839 101.202 91.6171 102.071 89.7389C102.748 88.2687 103.709 86.9464 104.897 85.8476C106.086 84.7488 107.479 83.8952 108.998 83.3354C110.517 82.7757 112.131 82.5209 113.749 82.5855C115.366 82.6502 116.955 83.0329 118.424 83.7121C120.974 84.8945 123.045 86.9119 124.293 89.4308C125.541 91.9496 125.892 94.819 125.288 97.5645C124.684 100.31 123.161 102.767 120.971 104.529C118.781 106.292 116.055 107.254 113.244 107.257V107.26ZM113.244 83.5748C111.081 83.5775 108.964 84.1991 107.143 85.3661C105.321 86.5331 103.872 88.1969 102.965 90.1609C101.709 92.8892 101.585 96.0042 102.62 98.8238C103.656 101.643 105.766 103.938 108.49 105.204C109.839 105.828 111.298 106.18 112.784 106.24C114.27 106.299 115.752 106.065 117.147 105.551C118.542 105.037 119.822 104.253 120.914 103.244C122.006 102.235 122.888 101.02 123.51 99.6699C124.308 97.9443 124.659 96.0458 124.531 94.149C124.403 92.2523 123.8 90.4182 122.778 88.8154C121.756 87.2126 120.347 85.8926 118.681 84.9769C117.015 84.0611 115.145 83.5789 113.244 83.5748Z" fill="#1D1E1B"/>
<path d="M147.488 130.567C147.488 130.567 155.46 123.147 151.714 115.882C147.967 108.616 146.065 109.316 144.347 105.355C142.63 101.394 135.307 97.6102 128.792 99.7363C128.792 99.7363 120.441 93.8936 113.135 96.0532C105.829 98.2129 103.378 101.809 101.473 107.648C99.5681 113.488 97.5659 116.113 96.0859 120.171C94.606 124.229 92.5736 135.556 108.501 143.314C124.429 151.072 147.488 130.567 147.488 130.567Z" fill="#382256"/>
<path d="M116.497 145.544C113.657 145.586 110.844 144.976 108.277 143.759C91.4689 135.573 94.3316 123.499 95.6073 119.987C96.2263 118.354 96.9373 116.758 97.7368 115.205C99.0209 112.719 100.108 110.135 100.988 107.478C102.906 101.602 105.485 97.7678 112.988 95.5579C119.882 93.5256 127.493 98.2633 128.865 99.1774C135.408 97.1685 142.895 100.768 144.8 105.147C145.533 106.821 146.293 107.625 147.257 108.633C148.499 109.932 150.046 111.549 152.159 115.644C156.036 123.164 147.913 130.852 147.83 130.929C143.628 134.51 139.064 137.643 134.213 140.277C127.683 143.783 121.7 145.544 116.497 145.544ZM116.561 96.077C115.449 96.0692 114.341 96.2215 113.273 96.5291C106.158 98.6217 103.801 102.104 101.942 107.796C101.044 110.497 99.9393 113.126 98.6375 115.658C97.8557 117.18 97.1593 118.745 96.5515 120.345C95.3462 123.653 92.6643 135.047 108.716 142.865C124.087 150.355 146.708 130.594 147.15 130.209C147.358 130.011 154.761 122.9 151.265 116.123C149.219 112.155 147.729 110.595 146.534 109.343C145.53 108.308 144.682 107.411 143.879 105.566C142.312 101.96 135.348 98.1294 128.942 100.209L128.705 100.289L128.497 100.145C128.43 100.098 122.584 96.077 116.561 96.077Z" fill="#1D1E1B"/>
<path d="M117.74 123.874H117.703C112.439 124.115 107.146 119.187 106.925 118.982C106.879 118.946 106.842 118.901 106.814 118.849C106.787 118.798 106.771 118.741 106.767 118.683C106.763 118.625 106.77 118.566 106.79 118.511C106.809 118.456 106.84 118.406 106.88 118.363C106.92 118.321 106.968 118.287 107.022 118.264C107.076 118.241 107.134 118.23 107.192 118.23C107.25 118.231 107.308 118.244 107.361 118.268C107.414 118.292 107.462 118.326 107.501 118.37C107.551 118.417 112.758 123.258 117.663 123.034C117.768 123.033 117.87 123.072 117.948 123.143C118.027 123.214 118.075 123.312 118.085 123.417C118.095 123.522 118.065 123.627 118.001 123.711C117.937 123.795 117.844 123.852 117.74 123.871V123.874Z" fill="black"/>
<path d="M126.447 150.724L127.807 159.094C127.807 159.094 117.501 167.465 104.941 154.785C104.941 154.785 109.743 147.821 112.053 134.267C112.053 134.267 106.1 133.487 106.579 128.177C107.057 122.866 111.186 121.614 113.787 122.819C113.787 122.819 124.063 128.759 132.233 107.645C132.233 107.645 142.91 110.993 145.961 121.507C149.011 132.02 147.949 144.556 140.068 148.812C132.186 153.067 126.447 150.724 126.447 150.724Z" fill="#FFCDB2"/>
<path d="M119.316 162.319C115.483 162.319 110.253 160.875 104.584 155.15L104.293 154.852L104.527 154.517C104.574 154.45 109.185 147.636 111.475 134.682C109.962 134.327 105.652 132.901 106.081 128.146C106.309 125.598 107.4 123.64 109.155 122.625C109.886 122.206 110.706 121.966 111.548 121.923C112.39 121.881 113.23 122.037 114 122.381L114.04 122.401C114.063 122.401 116.608 123.827 120.066 122.595C124.506 121.015 128.551 115.788 131.765 107.481L131.933 107.042L132.385 107.183C132.492 107.217 143.353 110.749 146.447 121.383C149.417 131.615 148.761 144.707 140.31 149.271C133.948 152.706 128.973 151.949 127.084 151.457L128.36 159.319L128.136 159.503C126.083 160.996 123.677 161.93 121.155 162.215C120.545 162.287 119.931 162.322 119.316 162.319ZM105.589 154.728C110.514 159.586 115.824 161.833 120.974 161.217C123.228 160.95 125.386 160.146 127.265 158.873L125.812 149.91L126.639 150.245C126.696 150.268 132.267 152.445 139.824 148.366C147.381 144.288 148.426 131.813 145.476 121.641C142.891 112.721 134.544 109.048 132.525 108.278C129.177 116.739 125.095 121.872 120.374 123.533C116.618 124.872 113.862 123.429 113.564 123.261C112.942 122.99 112.265 122.868 111.587 122.905C110.909 122.943 110.249 123.138 109.66 123.476C108.626 124.072 107.34 125.381 107.085 128.217C106.653 132.978 111.9 133.735 112.124 133.765L112.64 133.835L112.553 134.347C110.507 146.341 106.586 153.131 105.585 154.728H105.589Z" fill="#1D1E1B"/>
<path d="M111.862 131.813C111.786 131.824 111.709 131.813 111.638 131.783C111.568 131.753 111.508 131.704 111.463 131.642C110.124 129.804 109.729 128.227 110.248 126.955C110.991 125.12 113.362 124.688 113.462 124.668C113.516 124.658 113.571 124.658 113.625 124.67C113.679 124.681 113.729 124.703 113.774 124.734C113.82 124.765 113.858 124.805 113.888 124.851C113.918 124.897 113.938 124.949 113.947 125.003C113.967 125.112 113.943 125.224 113.88 125.316C113.818 125.407 113.721 125.47 113.613 125.491C113.586 125.491 111.604 125.866 111.031 127.266C110.629 128.254 111.008 129.556 112.153 131.143C112.185 131.188 112.208 131.239 112.221 131.293C112.233 131.346 112.235 131.402 112.226 131.456C112.217 131.511 112.197 131.563 112.168 131.61C112.139 131.657 112.101 131.697 112.056 131.729C112 131.774 111.933 131.803 111.862 131.813Z" fill="black"/>
<path d="M136.804 125.341C131.842 126.76 125.872 124.581 124.415 126.646C122.959 128.712 123.324 131.374 125.782 131.923C128.239 132.473 130.804 132.258 136.128 131.528C141.451 130.798 146.172 129.901 146.172 126.61C146.172 123.318 144.106 123.245 136.804 125.341Z" fill="#FFB49F"/>
<path d="M111.664 134.531C111.726 133.462 110.911 132.545 109.844 132.484C108.777 132.422 107.862 133.238 107.8 134.307C107.738 135.376 108.552 136.292 109.619 136.354C110.686 136.416 111.602 135.6 111.664 134.531Z" fill="#07ACEE"/>
<path d="M109.648 132.345C110.067 132.345 110.475 132.481 110.811 132.732C111.147 132.983 111.392 133.336 111.51 133.739C111.628 134.141 111.612 134.571 111.465 134.964C111.318 135.356 111.048 135.691 110.695 135.917C110.341 136.143 109.924 136.248 109.506 136.217C109.088 136.186 108.691 136.021 108.375 135.745C108.059 135.469 107.841 135.099 107.754 134.688C107.666 134.278 107.714 133.851 107.89 133.47C108.045 133.135 108.293 132.85 108.605 132.651C108.916 132.452 109.278 132.346 109.648 132.345ZM109.648 131.341C108.977 131.34 108.326 131.569 107.803 131.99C107.28 132.41 106.916 132.996 106.772 133.652C106.628 134.307 106.712 134.992 107.01 135.592C107.308 136.193 107.803 136.675 108.412 136.956C108.798 137.135 109.219 137.228 109.644 137.227C110.314 137.226 110.963 136.996 111.485 136.576C112.006 136.156 112.369 135.571 112.513 134.917C112.657 134.263 112.574 133.579 112.277 132.979C111.98 132.379 111.487 131.898 110.88 131.615C110.494 131.435 110.074 131.341 109.648 131.341Z" fill="#1D1D1B"/>
<path d="M144.554 126.944C144.589 126.338 144.129 125.819 143.525 125.784C142.921 125.749 142.403 126.212 142.368 126.817C142.333 127.423 142.794 127.942 143.398 127.977C144.001 128.012 144.519 127.55 144.554 126.944Z" fill="black"/>
<path d="M131.875 128.861C131.91 128.256 131.449 127.737 130.845 127.702C130.242 127.667 129.724 128.129 129.689 128.735C129.653 129.34 130.114 129.859 130.718 129.894C131.322 129.929 131.84 129.467 131.875 128.861Z" fill="black"/>
<path d="M135.416 144.426C135.304 144.426 135.192 144.419 135.081 144.406C133.026 144.161 131.7 141.747 131.643 141.647C131.611 141.589 131.592 141.525 131.585 141.46C131.578 141.394 131.584 141.327 131.603 141.264C131.622 141.201 131.653 141.142 131.694 141.091C131.736 141.039 131.787 140.997 131.845 140.966C131.903 140.934 131.967 140.914 132.033 140.907C132.098 140.901 132.165 140.907 132.228 140.926C132.291 140.944 132.35 140.976 132.401 141.017C132.453 141.059 132.495 141.11 132.527 141.168C132.527 141.188 133.665 143.227 135.205 143.408C135.952 143.498 136.719 143.113 137.475 142.266C137.564 142.167 137.689 142.107 137.822 142.099C137.955 142.092 138.086 142.137 138.185 142.226C138.285 142.315 138.345 142.44 138.352 142.573C138.36 142.706 138.314 142.836 138.225 142.936C137.325 143.914 136.387 144.426 135.416 144.426Z" fill="#1D1D1B"/>
<path d="M141.429 134.425C141.325 134.425 141.223 134.393 141.138 134.333C141.053 134.273 140.988 134.188 140.954 134.09L137.826 124.889C137.785 124.763 137.794 124.625 137.853 124.506C137.912 124.387 138.015 124.296 138.141 124.253C138.203 124.231 138.269 124.222 138.335 124.227C138.401 124.231 138.466 124.248 138.525 124.277C138.584 124.307 138.637 124.347 138.68 124.397C138.723 124.447 138.756 124.505 138.777 124.567L141.904 133.768C141.946 133.895 141.936 134.032 141.877 134.151C141.818 134.27 141.715 134.361 141.59 134.405C141.537 134.419 141.483 134.426 141.429 134.425Z" fill="#1D1D1B"/>
<path d="M147.367 117.58C147.268 117.581 147.171 117.551 147.089 117.496C147.045 117.466 142.8 114.667 140.995 117.161C140.917 117.269 140.799 117.342 140.668 117.363C140.536 117.384 140.401 117.352 140.294 117.273C140.186 117.195 140.113 117.078 140.092 116.946C140.071 116.814 140.103 116.68 140.181 116.572C142.555 113.314 147.44 116.539 147.648 116.676C147.759 116.75 147.835 116.865 147.861 116.996C147.886 117.126 147.859 117.262 147.785 117.372C147.738 117.439 147.675 117.492 147.602 117.529C147.529 117.565 147.448 117.582 147.367 117.58Z" fill="black"/>
<path d="M128.922 118.434C128.826 118.435 128.731 118.408 128.649 118.356C128.568 118.304 128.503 118.23 128.463 118.142C128.423 118.054 128.409 117.956 128.424 117.86C128.438 117.765 128.48 117.675 128.544 117.603C129.853 116.086 131.223 115.259 132.656 115.169C133.636 115.096 134.608 115.392 135.381 115.999C135.481 116.088 135.542 116.213 135.551 116.347C135.559 116.481 135.513 116.612 135.425 116.713C135.336 116.813 135.211 116.874 135.077 116.882C134.943 116.89 134.812 116.845 134.711 116.756C134.611 116.669 132.304 114.777 129.294 118.259C129.248 118.313 129.191 118.356 129.127 118.386C129.063 118.416 128.993 118.433 128.922 118.434Z" fill="black"/>
<path d="M127.309 150.985C127.309 150.985 122.535 149.501 120 147.358L127.309 150.985Z" fill="#4BD657"/>
<path d="M127.308 151.487C127.258 151.487 127.208 151.48 127.16 151.467C126.96 151.403 122.255 149.923 119.674 147.744C119.623 147.701 119.582 147.649 119.552 147.59C119.522 147.532 119.503 147.468 119.498 147.402C119.492 147.336 119.5 147.27 119.52 147.207C119.54 147.144 119.573 147.086 119.615 147.036C119.658 146.985 119.71 146.944 119.769 146.914C119.827 146.883 119.891 146.865 119.957 146.86C120.023 146.854 120.089 146.862 120.152 146.882C120.215 146.902 120.273 146.934 120.323 146.977C122.747 149.026 127.412 150.493 127.458 150.506C127.573 150.542 127.67 150.618 127.733 150.72C127.797 150.822 127.821 150.943 127.803 151.061C127.785 151.18 127.725 151.288 127.634 151.366C127.543 151.444 127.428 151.487 127.308 151.487Z" fill="black"/>
<path d="M115.203 119.984H114.969C114.859 119.982 114.751 119.958 114.65 119.914C114.549 119.869 114.458 119.806 114.382 119.727C114.306 119.647 114.246 119.554 114.206 119.452C114.166 119.349 114.146 119.24 114.149 119.13C114.15 119.02 114.173 118.911 114.217 118.81C114.261 118.709 114.324 118.617 114.404 118.541C114.483 118.464 114.577 118.405 114.68 118.365C114.783 118.325 114.892 118.306 115.002 118.31C123.226 118.477 127.12 107.441 127.156 107.331C127.228 107.12 127.38 106.947 127.579 106.849C127.779 106.75 128.009 106.735 128.22 106.807C128.43 106.878 128.603 107.03 128.702 107.23C128.8 107.429 128.815 107.659 128.744 107.87C128.573 108.375 124.511 119.984 115.203 119.984Z" fill="white"/>
<path d="M104.79 95.1396C104.731 95.1394 104.671 95.1328 104.613 95.1197C104.504 95.0967 104.401 95.0523 104.31 94.9892C104.219 94.9261 104.141 94.8453 104.081 94.7518C104.021 94.6584 103.981 94.554 103.962 94.4446C103.943 94.3353 103.945 94.2234 103.97 94.1152C104.707 90.7101 106.277 88.3227 108.634 87.0236C112.465 84.9075 116.921 86.4912 117.109 86.5581C117.215 86.5932 117.313 86.6493 117.397 86.7229C117.481 86.7966 117.55 86.8865 117.599 86.9871C117.648 87.0878 117.676 87.1971 117.682 87.3089C117.688 87.4206 117.671 87.5326 117.633 87.6378C117.595 87.7431 117.537 87.8395 117.461 87.9216C117.384 88.0038 117.293 88.0698 117.191 88.1158C117.089 88.1619 116.979 88.1872 116.867 88.1899C116.755 88.1926 116.643 88.1729 116.539 88.1319C116.499 88.1319 112.588 86.7424 109.434 88.4935C107.523 89.5515 106.237 91.5637 105.607 94.47C105.569 94.6585 105.467 94.828 105.318 94.95C105.169 95.0719 104.983 95.1389 104.79 95.1396Z" fill="white"/>
<path d="M131.707 158.382C131.97 158.591 132.181 158.859 132.324 159.164C132.466 159.469 132.536 159.803 132.527 160.139C132.519 160.476 132.432 160.806 132.275 161.103C132.117 161.401 131.893 161.658 131.619 161.854C128.77 163.863 121.866 166.688 106.313 165.111C96.6036 164.127 104.974 154.732 104.974 154.732C104.974 154.732 119.037 162.768 127.31 155.954C128.906 156.5 130.394 157.322 131.707 158.382Z" fill="white"/>
<path d="M104.973 154.732C104.973 154.732 111.911 158.693 118.905 158.693C121.872 158.693 124.848 157.983 127.309 155.954C128.905 156.5 130.393 157.321 131.705 158.381C131.969 158.591 132.18 158.859 132.322 159.164C132.465 159.469 132.535 159.802 132.526 160.139C132.518 160.475 132.431 160.805 132.274 161.103C132.116 161.4 131.892 161.657 131.618 161.853C129.348 163.457 124.51 165.57 114.787 165.57C111.956 165.559 109.128 165.406 106.312 165.111C96.6024 164.127 104.973 154.732 104.973 154.732ZM104.973 153.727C104.831 153.727 104.692 153.757 104.562 153.814C104.433 153.872 104.317 153.956 104.223 154.062C103.738 154.608 99.5087 159.503 100.895 163.069C101.565 164.796 103.356 165.821 106.212 166.109C109.061 166.408 111.922 166.564 114.787 166.574C124.61 166.574 129.676 164.455 132.198 162.674C132.598 162.395 132.928 162.027 133.16 161.599C133.393 161.17 133.522 160.693 133.537 160.206C133.554 159.709 133.456 159.215 133.249 158.762C133.042 158.31 132.732 157.913 132.345 157.601C130.932 156.458 129.328 155.575 127.607 154.993C127.513 154.963 127.415 154.948 127.316 154.949C127.084 154.949 126.859 155.03 126.68 155.177C124.654 156.851 122.042 157.688 118.912 157.688C112.276 157.688 105.546 153.898 105.479 153.858C105.326 153.772 105.154 153.727 104.98 153.727H104.973Z" fill="black"/>
<path d="M110.629 140.693C109.133 146.05 105.818 150.178 111.168 157.243C116.519 164.308 110.834 171.305 101.459 172.98C90.2453 174.989 89.0701 179.341 84.7174 193.739C82.916 199.695 80.3647 207.801 70.32 207.801C54.0475 207.801 51.9047 191.06 60.2753 181.015C66.282 173.807 74.003 177.506 75.3423 158.917C76.6816 140.063 109.083 151.574 100.474 137.234" fill="#382256"/>
<path d="M70.3189 208.303C63.6894 208.303 58.7407 205.538 56.3903 200.519C53.6313 194.629 55.071 186.476 59.8892 180.694C61.8345 178.35 63.9238 177.155 65.9428 175.986C70.2386 173.509 73.9484 171.366 74.8424 158.88C75.5689 148.685 84.9105 147.051 92.4139 145.738C96.6461 144.998 100.299 144.359 101.2 142.39C101.719 141.258 101.337 139.658 100.041 137.498C99.9724 137.384 99.9517 137.247 99.9837 137.118C100.016 136.989 100.098 136.877 100.212 136.809C100.326 136.74 100.463 136.719 100.592 136.751C100.722 136.783 100.833 136.865 100.902 136.979C102.382 139.447 102.78 141.352 102.114 142.805C100.992 145.263 97.0914 145.946 92.588 146.733C85.4261 147.985 76.5165 149.545 75.8468 158.961C74.916 171.975 70.8044 174.362 66.4484 176.864C64.5031 177.989 62.4941 179.147 60.666 181.343C56.0856 186.838 54.7028 194.549 57.3177 200.094C59.4941 204.741 64.1213 207.302 70.339 207.302C80.1125 207.302 82.5065 199.381 84.2576 193.595L84.4318 193.022C88.6137 179.181 90.0233 174.516 101.391 172.487C106.748 171.533 110.906 168.774 112.272 165.285C113.247 162.791 112.734 160.116 110.789 157.548C106.279 151.598 107.702 147.637 109.209 143.445C109.544 142.514 109.878 141.55 110.166 140.562C110.184 140.498 110.214 140.439 110.255 140.387C110.296 140.335 110.346 140.292 110.404 140.259C110.461 140.227 110.525 140.207 110.59 140.199C110.656 140.191 110.722 140.196 110.786 140.214C110.849 140.232 110.909 140.262 110.961 140.302C111.012 140.343 111.056 140.394 111.088 140.451C111.12 140.509 111.141 140.572 111.149 140.638C111.157 140.703 111.152 140.77 111.134 140.833C110.846 141.858 110.494 142.842 110.153 143.786C108.68 147.885 107.411 151.424 111.589 156.942C113.756 159.804 114.315 162.814 113.206 165.647C111.717 169.457 107.257 172.454 101.568 173.472C90.8068 175.39 89.5512 179.546 85.3927 193.303L85.2185 193.879C83.4607 199.625 80.839 208.303 70.3189 208.303Z" fill="#1D1E1B"/>
<path d="M197.276 208.98L175.934 208.119C175.934 208.119 170.105 210.155 176.604 213.774L192.565 211.893L197.276 208.98Z" fill="#382256"/>
<path d="M176.602 214.277C176.516 214.276 176.433 214.254 176.357 214.213C174.014 212.904 172.925 211.638 173.039 210.346C173.19 208.564 175.664 207.667 175.772 207.647C175.83 207.625 175.893 207.615 175.956 207.617L197.297 208.477C197.405 208.482 197.508 208.521 197.592 208.588C197.676 208.656 197.736 208.748 197.763 208.852C197.79 208.956 197.783 209.066 197.744 209.165C197.704 209.265 197.633 209.349 197.542 209.405L192.827 212.321C192.765 212.359 192.695 212.383 192.623 212.392L176.662 214.27L176.602 214.277ZM176.016 208.625C175.42 208.856 174.114 209.539 174.037 210.433C173.97 211.236 174.914 212.234 176.716 213.255L192.406 211.407L195.627 209.415L176.016 208.625Z" fill="#1D1D1B"/>
<path d="M198.57 220.454C198.456 220.454 198.344 220.415 198.255 220.343C198.166 220.271 198.103 220.171 198.078 220.059C198.064 219.995 198.063 219.928 198.074 219.863C198.086 219.798 198.11 219.736 198.146 219.681C198.182 219.625 198.229 219.578 198.283 219.54C198.337 219.503 198.399 219.477 198.463 219.463C201.601 218.77 206.764 214.876 206.814 214.836C206.92 214.756 207.054 214.721 207.187 214.739C207.319 214.758 207.438 214.828 207.519 214.935C207.599 215.041 207.634 215.175 207.615 215.308C207.597 215.44 207.526 215.559 207.42 215.639C207.202 215.803 202.032 219.704 198.677 220.444L198.57 220.454Z" fill="#1D1D1B"/>
<path d="M198.475 228.219C198.342 228.232 198.209 228.191 198.106 228.106C198.002 228.021 197.937 227.898 197.924 227.765C197.911 227.632 197.952 227.499 198.037 227.396C198.122 227.292 198.245 227.227 198.378 227.214C202.466 226.411 206.179 222.982 206.216 222.949C206.314 222.86 206.442 222.813 206.574 222.818C206.706 222.823 206.831 222.88 206.921 222.976C207.012 223.073 207.06 223.201 207.057 223.333C207.053 223.465 206.998 223.59 206.903 223.682C206.742 223.833 202.945 227.342 198.572 228.202C198.54 228.211 198.508 228.216 198.475 228.219Z" fill="#1D1D1B"/>
<path d="M196.547 200.937C196.478 200.938 196.41 200.923 196.347 200.896C196.285 200.868 196.228 200.827 196.182 200.777C191.645 195.918 178.138 192.252 178.001 192.215C177.872 192.181 177.763 192.096 177.696 191.981C177.629 191.865 177.612 191.728 177.646 191.599C177.681 191.47 177.765 191.361 177.881 191.294C177.996 191.228 178.134 191.21 178.262 191.244C178.828 191.395 192.184 195.024 196.915 200.094C196.983 200.165 197.029 200.254 197.046 200.351C197.063 200.448 197.051 200.548 197.012 200.638C196.973 200.728 196.908 200.805 196.825 200.858C196.742 200.911 196.645 200.939 196.547 200.937Z" fill="#1D1D1B"/>
<path d="M179.137 185.033C179.137 185.033 192.342 188.047 199.3 193.739L179.137 185.033Z" fill="#FFCDB2"/>
<path d="M199.299 194.241C199.183 194.241 199.07 194.201 198.981 194.127C192.197 188.576 179.156 185.553 179.025 185.522C178.958 185.511 178.894 185.485 178.837 185.448C178.78 185.411 178.731 185.362 178.693 185.305C178.655 185.249 178.63 185.185 178.618 185.118C178.605 185.051 178.607 184.982 178.622 184.915C178.637 184.849 178.666 184.786 178.706 184.731C178.746 184.676 178.797 184.63 178.856 184.595C178.915 184.561 178.98 184.538 179.048 184.53C179.115 184.521 179.184 184.526 179.249 184.545C179.792 184.668 192.642 187.648 199.617 193.351C199.698 193.417 199.756 193.507 199.784 193.609C199.811 193.71 199.806 193.818 199.769 193.916C199.732 194.014 199.665 194.099 199.578 194.157C199.49 194.215 199.387 194.245 199.282 194.241H199.299Z" fill="#1D1D1B"/>
<path d="M171.77 197.756C171.77 197.756 172.104 197.756 178.466 200.77L171.77 197.756Z" fill="#07ACEE"/>
<path d="M178.466 201.272C178.392 201.272 178.319 201.254 178.252 201.222C172.714 198.6 171.794 198.286 171.676 198.249C171.543 198.236 171.42 198.171 171.335 198.069C171.249 197.966 171.209 197.833 171.221 197.7C171.233 197.566 171.298 197.444 171.401 197.358C171.504 197.273 171.637 197.232 171.77 197.244C171.894 197.244 172.219 197.244 178.681 200.305C178.785 200.353 178.869 200.435 178.92 200.538C178.97 200.641 178.984 200.758 178.959 200.87C178.934 200.982 178.872 201.081 178.782 201.153C178.692 201.224 178.581 201.263 178.466 201.262V201.272Z" fill="#1D1D1B"/>
<path d="M111.169 208.136C113.018 208.136 114.517 206.637 114.517 204.788C114.517 202.939 113.018 201.439 111.169 201.439C109.319 201.439 107.82 202.939 107.82 204.788C107.82 206.637 109.319 208.136 111.169 208.136Z" fill="#51CEF4"/>
<path d="M92.9186 239.777C94.7677 239.777 96.2668 238.278 96.2668 236.429C96.2668 234.58 94.7677 233.081 92.9186 233.081C91.0694 233.081 89.5703 234.58 89.5703 236.429C89.5703 238.278 91.0694 239.777 92.9186 239.777Z" fill="#51CEF4"/>
<path d="M130.087 266.563C131.936 266.563 133.435 265.064 133.435 263.214C133.435 261.365 131.936 259.866 130.087 259.866C128.237 259.866 126.738 261.365 126.738 263.214C126.738 265.064 128.237 266.563 130.087 266.563Z" fill="#51CEF4"/>
<path d="M114.348 288.326C116.197 288.326 117.696 286.827 117.696 284.978C117.696 283.129 116.197 281.63 114.348 281.63C112.499 281.63 111 283.129 111 284.978C111 286.827 112.499 288.326 114.348 288.326Z" fill="#51CEF4"/>
<path d="M170.266 269.911C172.115 269.911 173.614 268.412 173.614 266.563C173.614 264.714 172.115 263.215 170.266 263.215C168.417 263.215 166.918 264.714 166.918 266.563C166.918 268.412 168.417 269.911 170.266 269.911Z" fill="#51CEF4"/>
<path d="M156.536 245.469C158.385 245.469 159.884 243.97 159.884 242.121C159.884 240.272 158.385 238.772 156.536 238.772C154.687 238.772 153.188 240.272 153.188 242.121C153.188 243.97 154.687 245.469 156.536 245.469Z" fill="#51CEF4"/>
<path d="M150.508 216.005C152.358 216.005 153.857 214.506 153.857 212.656C153.857 210.807 152.358 209.308 150.508 209.308C148.659 209.308 147.16 210.807 147.16 212.656C147.16 214.506 148.659 216.005 150.508 216.005Z" fill="#51CEF4"/>
<path d="M147.497 178.17C149.346 178.17 150.845 176.671 150.845 174.821C150.845 172.972 149.346 171.473 147.497 171.473C145.647 171.473 144.148 172.972 144.148 174.821C144.148 176.671 145.647 178.17 147.497 178.17Z" fill="#51CEF4"/>
<path d="M160.555 226.049C160.555 226.049 161.224 244.465 183.992 246.808L186.001 239.777L165.242 223.371L160.555 226.049Z" fill="#0598C6"/>
<path d="M183.264 213.49C183.133 213.49 183.007 213.438 182.912 213.346C181.868 212.321 181.409 211.294 181.553 210.293C181.761 208.833 183.184 208.049 183.244 208.016C183.302 207.984 183.366 207.965 183.431 207.958C183.497 207.951 183.563 207.957 183.627 207.976C183.69 207.995 183.749 208.026 183.8 208.067C183.851 208.109 183.894 208.16 183.925 208.218C183.957 208.276 183.977 208.34 183.983 208.406C183.99 208.471 183.984 208.538 183.965 208.601C183.946 208.664 183.915 208.723 183.874 208.774C183.832 208.826 183.781 208.868 183.723 208.9C183.723 208.9 182.678 209.482 182.548 210.44C182.454 211.11 182.815 211.843 183.619 212.63C183.713 212.724 183.766 212.851 183.766 212.984C183.766 213.117 183.713 213.245 183.619 213.339C183.525 213.434 183.398 213.488 183.264 213.49Z" fill="black"/>
<path d="M177.724 214.277C177.64 214.276 177.558 214.255 177.484 214.214C177.411 214.174 177.348 214.116 177.303 214.046C174.644 209.934 177.423 208.056 177.45 208.019C177.561 207.946 177.697 207.92 177.828 207.947C177.958 207.974 178.073 208.052 178.146 208.163C178.22 208.275 178.246 208.411 178.219 208.541C178.192 208.672 178.114 208.786 178.002 208.86C177.915 208.92 176.057 210.249 178.146 213.483C178.219 213.596 178.244 213.732 178.216 213.862C178.188 213.992 178.11 214.107 177.999 214.18C177.919 214.238 177.823 214.272 177.724 214.277Z" fill="black"/>
<path d="M152.684 130.29C152.616 130.29 152.55 130.276 152.487 130.25C152.425 130.223 152.369 130.185 152.322 130.136C152.229 130.041 152.177 129.914 152.177 129.781C152.177 129.648 152.229 129.521 152.322 129.426C156.196 125.686 157.268 121.186 155.503 116.057C154.63 113.607 153.317 111.338 151.629 109.36C151.578 109.313 151.538 109.255 151.51 109.191C151.482 109.127 151.468 109.058 151.469 108.988C151.469 108.919 151.484 108.85 151.513 108.786C151.541 108.722 151.583 108.665 151.635 108.619C151.687 108.572 151.748 108.537 151.814 108.515C151.88 108.493 151.95 108.485 152.019 108.492C152.089 108.499 152.156 108.52 152.217 108.554C152.278 108.588 152.331 108.635 152.373 108.69C152.48 108.808 162.966 120.546 153.019 130.149C152.929 130.237 152.809 130.287 152.684 130.29Z" fill="#1D1D1B"/>
<defs>
<filter id="filter0_d_14058_96271" x="-4.02115" y="107.785" width="38.6868" height="38.6839" filterUnits="userSpaceOnUse" color-interpolation-filters="sRGB">
<feFlood flood-opacity="0" result="BackgroundImageFix"/>
<feColorMatrix in="SourceAlpha" type="matrix" values="0 0 0 0 0 0 0 0 0 0 0 0 0 0 0 0 0 0 127 0" result="hardAlpha"/>
<feOffset dy="2.03704"/>
<feGaussianBlur stdDeviation="5.09261"/>
<feComposite in2="hardAlpha" operator="out"/>
<feColorMatrix type="matrix" values="0 0 0 0 0 0 0 0 0 0 0 0 0 0 0 0 0 0 0.05 0"/>
<feBlend mode="normal" in2="BackgroundImageFix" result="effect1_dropShadow_14058_96271"/>
<feBlend mode="normal" in="SourceGraphic" in2="effect1_dropShadow_14058_96271" result="shape"/>
</filter>
<filter id="filter1_d_14058_96271" x="370.651" y="165.21" width="38.6868" height="38.6883" filterUnits="userSpaceOnUse" color-interpolation-filters="sRGB">
<feFlood flood-opacity="0" result="BackgroundImageFix"/>
<feColorMatrix in="SourceAlpha" type="matrix" values="0 0 0 0 0 0 0 0 0 0 0 0 0 0 0 0 0 0 127 0" result="hardAlpha"/>
<feOffset dy="2.03704"/>
<feGaussianBlur stdDeviation="5.09261"/>
<feComposite in2="hardAlpha" operator="out"/>
<feColorMatrix type="matrix" values="0 0 0 0 0 0 0 0 0 0 0 0 0 0 0 0 0 0 0.05 0"/>
<feBlend mode="normal" in2="BackgroundImageFix" result="effect1_dropShadow_14058_96271"/>
<feBlend mode="normal" in="SourceGraphic" in2="effect1_dropShadow_14058_96271" result="shape"/>
</filter>
<linearGradient id="paint0_linear_14058_96271" x1="20.4527" y1="112.038" x2="392.051" y2="200.547" gradientUnits="userSpaceOnUse">
<stop stop-color="#CDD5E2"/>
<stop offset="1" stop-color="#CDD5E2" stop-opacity="0"/>
</linearGradient>
<linearGradient id="paint1_linear_14058_96271" x1="391.411" y1="195.437" x2="353.85" y2="294.044" gradientUnits="userSpaceOnUse">
<stop stop-color="#CDD5E2"/>
<stop offset="1" stop-color="#CDD5E2" stop-opacity="0"/>
</linearGradient>
<linearGradient id="paint2_linear_14058_96271" x1="196.502" y1="23.2607" x2="196.502" y2="365.006" gradientUnits="userSpaceOnUse">
<stop stop-color="#CDD5E2"/>
<stop offset="1" stop-color="#CDD5E2" stop-opacity="0"/>
</linearGradient>
<linearGradient id="paint3_linear_14058_96271" x1="196.503" y1="57.4336" x2="196.503" y2="330.83" gradientUnits="userSpaceOnUse">
<stop stop-color="#CDD5E2"/>
<stop offset="1" stop-color="#CDD5E2" stop-opacity="0"/>
</linearGradient>
</defs>
</svg>
