<svg width="406" height="302" viewBox="0 0 406 302" fill="none" xmlns="http://www.w3.org/2000/svg">
<mask id="mask0_14204_90551" style="mask-type:alpha" maskUnits="userSpaceOnUse" x="0" y="0" width="406" height="302">
<rect width="405.823" height="301.875" fill="#D9D9D9"/>
</mask>
<g mask="url(#mask0_14204_90551)">
<g opacity="0.5">
<mask id="path-2-inside-1_14204_90551" fill="white">
<path d="M389.977 202.565C391.993 156.308 377.369 110.86 348.757 74.4588C320.144 38.0574 279.437 13.1119 234.013 4.14415C188.59 -4.82363 141.456 2.77982 101.157 25.5762C60.8571 48.3727 30.0587 84.8533 14.3442 128.405L15.1839 128.708C30.8259 85.357 61.4823 49.0446 101.596 26.3532C141.71 3.66186 188.626 -3.90654 233.84 5.0199C279.055 13.9463 319.574 38.7768 348.055 75.0104C376.535 111.244 391.092 156.483 389.085 202.526L389.977 202.565Z"/>
</mask>
<path d="M389.977 202.565C391.993 156.308 377.369 110.86 348.757 74.4588C320.144 38.0574 279.437 13.1119 234.013 4.14415C188.59 -4.82363 141.456 2.77982 101.157 25.5762C60.8571 48.3727 30.0587 84.8533 14.3442 128.405L15.1839 128.708C30.8259 85.357 61.4823 49.0446 101.596 26.3532C141.71 3.66186 188.626 -3.90654 233.84 5.0199C279.055 13.9463 319.574 38.7768 348.055 75.0104C376.535 111.244 391.092 156.483 389.085 202.526L389.977 202.565Z" stroke="url(#paint0_linear_14204_90551)" stroke-width="2.84788" stroke-dasharray="4.27 4.27" mask="url(#path-2-inside-1_14204_90551)"/>
</g>
<g opacity="0.5">
<mask id="path-3-inside-2_14204_90551" fill="white">
<path d="M14.6043 260.572C30.4892 304.063 61.4301 340.422 101.819 363.061C142.207 385.699 189.37 393.118 234.758 383.973C280.146 374.827 320.756 349.723 349.225 313.21C377.695 276.697 392.141 231.192 389.944 184.943L389.052 184.986C391.239 231.021 376.86 276.316 348.521 312.661C320.183 349.006 279.761 373.994 234.582 383.098C189.403 392.201 142.457 384.816 102.255 362.282C62.0527 339.748 31.2544 303.556 15.4428 260.266L14.6043 260.572Z"/>
</mask>
<path d="M14.6043 260.572C30.4892 304.063 61.4301 340.422 101.819 363.061C142.207 385.699 189.37 393.118 234.758 383.973C280.146 374.827 320.756 349.723 349.225 313.21C377.695 276.697 392.141 231.192 389.944 184.943L389.052 184.986C391.239 231.021 376.86 276.316 348.521 312.661C320.183 349.006 279.761 373.994 234.582 383.098C189.403 392.201 142.457 384.816 102.255 362.282C62.0527 339.748 31.2544 303.556 15.4428 260.266L14.6043 260.572Z" stroke="url(#paint1_linear_14204_90551)" stroke-width="2.84788" stroke-dasharray="4.27 4.27" mask="url(#path-3-inside-2_14204_90551)"/>
</g>
<circle opacity="0.08" cx="196.502" cy="194.133" r="170.873" fill="url(#paint2_linear_14204_90551)"/>
<circle opacity="0.1" cx="196.503" cy="194.132" r="136.698" fill="url(#paint3_linear_14204_90551)"/>
<circle cx="196.503" cy="194.134" r="91.1321" fill="white"/>
<g filter="url(#filter0_d_14204_90551)">
<circle cx="15.3224" cy="125.09" r="7.11969" transform="rotate(-2.50406 15.3224 125.09)" fill="#0170FF"/>
<circle cx="15.3224" cy="125.09" r="8.13822" transform="rotate(-2.50406 15.3224 125.09)" stroke="white" stroke-width="2.03704"/>
</g>
<g filter="url(#filter1_d_14204_90551)">
<circle cx="389.995" cy="182.517" r="7.11969" transform="rotate(-15.7345 389.995 182.517)" fill="#0170FF"/>
<circle cx="389.995" cy="182.517" r="8.13822" transform="rotate(-15.7345 389.995 182.517)" stroke="white" stroke-width="2.03704"/>
</g>
</g>
<path d="M190.909 121.449C190.909 121.449 177.238 127.849 174.772 117.032C172.305 106.215 167.389 89.5326 150.563 91.8839C133.736 94.2352 122.692 97.2958 117.096 86.7381C111.501 76.1803 72.7638 81.0175 79.7651 113.778C91.2292 167.466 192.334 153.513 192.334 153.513L198.574 142.266L190.909 121.449Z" fill="#382256"/>
<path d="M104.968 81.7302C110.603 81.7302 115.394 83.52 117.118 86.7382C120.152 92.4653 124.789 94.1828 131.081 94.1828C136.391 94.1828 142.88 92.9579 150.584 91.8841C151.614 91.7379 152.652 91.6633 153.691 91.6608C168.035 91.6608 172.488 106.911 174.793 117.032C175.923 121.988 179.391 123.328 182.846 123.328C186.914 123.328 190.93 121.449 190.93 121.449L198.582 142.279L192.343 153.526C192.343 153.526 180.52 155.168 164.521 155.168C133.698 155.168 87.32 149.126 79.7736 113.791C74.9102 91.0237 92.1341 81.7433 104.971 81.7433L104.968 81.7302ZM104.971 80.7582C98.275 80.7582 89.0342 83.336 83.1823 90.5705C78.3287 96.5669 76.8179 104.668 78.8112 113.995C82.2298 130.007 93.7597 141.668 113.082 148.656C126.838 153.631 144.145 156.154 164.521 156.154C173.865 156.177 183.201 155.629 192.477 154.512L192.966 154.443L193.203 154.012L199.442 142.765L199.662 142.371L199.508 141.947L191.853 121.121L191.485 120.113L190.5 120.569C190.464 120.569 186.629 122.352 182.836 122.352C178.915 122.352 176.596 120.543 175.746 116.822C174.511 111.404 172.81 105.171 169.582 100.035C165.677 93.8315 160.328 90.6854 153.681 90.6854C152.595 90.687 151.511 90.7649 150.437 90.9186C148.581 91.1748 146.805 91.444 145.087 91.7002C139.692 92.508 135.032 93.2075 131.071 93.2075C124.379 93.2075 120.586 91.2043 117.979 86.2883C116.143 82.8238 111.282 80.7549 104.974 80.7549L104.971 80.7582Z" fill="#1D1E1B"/>
<path d="M128.632 228.177C126.462 266.947 133.085 288.384 133.085 288.384L256.56 289.898C261.131 266.145 255.535 237.46 255.535 237.46C255.535 237.46 266.661 222.903 275.354 222.906C288.838 222.906 300.453 225.776 309.779 205.537C319.105 185.299 291.258 181.64 266.385 167.628C241.513 153.615 207.603 155.149 207.603 155.149C207.603 155.149 173.779 145.626 139.814 171.109" fill="#07ACEE"/>
<path d="M256.952 290.397L132.722 288.873L132.614 288.529C132.548 288.315 125.993 266.563 128.144 228.151L129.129 228.206C127.136 263.827 132.643 284.995 133.461 287.898L256.141 289.402C260.502 266.086 255.097 237.845 255.041 237.556L254.998 237.336L255.133 237.162C255.593 236.557 266.508 222.414 275.338 222.414C276.856 222.414 278.356 222.45 279.811 222.486C291.269 222.765 301.157 223.008 309.317 205.331C311.268 201.094 311.616 197.476 310.414 194.27C307.734 187.197 297.462 182.668 285.571 177.427C279.516 174.757 272.652 171.733 266.127 168.058C241.669 154.266 207.95 155.625 207.611 155.642H207.533L207.454 155.619C207.372 155.596 198.916 153.268 186.437 154.066C174.923 154.798 157.538 158.42 140.111 171.5L139.519 170.712C157.164 157.474 174.759 153.816 186.417 153.077C198.413 152.318 206.777 154.417 207.661 154.65C209.5 154.584 242.493 153.599 266.63 167.195C273.109 170.846 279.654 173.733 285.985 176.521C298.08 181.854 308.526 186.458 311.353 193.926C312.667 197.39 312.296 201.259 310.227 205.748C301.81 224.013 291.614 223.763 279.805 223.481C278.357 223.445 276.849 223.409 275.352 223.409C267.503 223.409 257.343 235.973 256.062 237.598C256.568 240.331 261.369 267.525 257.047 290.003L256.952 290.397Z" fill="#1D1D1B"/>
<path d="M210.538 196.172C212.169 196.172 213.49 194.847 213.49 193.213C213.49 191.579 212.169 190.254 210.538 190.254C208.908 190.254 207.586 191.579 207.586 193.213C207.586 194.847 208.908 196.172 210.538 196.172Z" fill="#51CEF4"/>
<path d="M207.768 88.535C207.971 81.0437 202.071 74.8066 194.591 74.6042C187.111 74.4018 180.882 80.3107 180.68 87.8019C180.477 95.2932 186.377 101.53 193.857 101.733C201.337 101.935 207.566 96.0262 207.768 88.535Z" fill="#382256"/>
<path d="M194.244 102.245C191.921 102.24 189.636 101.661 187.593 100.558C185.549 99.4557 183.809 97.8644 182.53 95.9264C181.251 93.9883 180.471 91.7637 180.261 89.4511C180.051 87.1384 180.416 84.8097 181.324 82.6726L181.778 82.8663L181.324 82.6726C182.324 80.3449 183.934 78.331 185.985 76.8445C188.036 75.358 190.452 74.4544 192.975 74.2293C195.498 74.0043 198.035 74.4663 200.317 75.5663C202.598 76.6663 204.54 78.3633 205.935 80.4774C207.331 82.5915 208.128 85.0438 208.243 87.5744C208.357 90.1049 207.785 92.6192 206.586 94.8508C205.388 97.0824 203.608 98.9479 201.434 100.25C199.261 101.551 196.777 102.241 194.244 102.245ZM194.244 75.09C191.001 75.0831 187.871 76.2809 185.461 78.451C183.051 80.6211 181.533 83.6089 181.201 86.8348C180.87 90.0607 181.748 93.2949 183.665 95.91C185.583 98.5251 188.404 100.335 191.58 100.988C194.757 101.641 198.063 101.092 200.857 99.4454C203.651 97.7993 205.734 95.1742 206.702 92.0792C207.67 88.9842 207.455 85.6399 206.097 82.6949C204.739 79.75 202.336 77.4143 199.353 76.1409C197.739 75.4493 196.002 75.0918 194.247 75.09H194.244Z" fill="#1D1E1B"/>
<path d="M235.432 128.096C235.432 128.096 244.299 119.315 239.757 111.121C235.215 102.928 233.051 103.795 230.936 99.3189C228.822 94.8429 220.293 90.7807 212.918 93.4308C212.918 93.4308 203.141 87.0337 194.856 89.7561C186.571 92.4785 183.875 96.6983 181.901 103.453C179.927 110.208 177.721 113.305 176.171 117.991C174.621 122.677 172.69 135.744 191.214 144.072C209.739 152.4 235.432 128.096 235.432 128.096Z" fill="#382256"/>
<path d="M199.656 146.279C196.681 146.314 193.732 145.715 191.006 144.522C171.523 135.764 174.36 121.883 175.697 117.837C176.348 115.948 177.105 114.098 177.963 112.294C179.347 109.395 180.503 106.393 181.42 103.315C183.391 96.5406 186.208 92.0745 194.694 89.2897C202.546 86.7118 211.471 91.9497 212.979 92.902C216.41 91.7264 220.341 91.8479 224.072 93.2501C227.523 94.544 230.255 96.7409 231.382 99.1218C232.285 101.036 233.191 101.926 234.337 103.062C235.802 104.504 237.621 106.297 240.186 110.904C244.862 119.328 235.871 128.381 235.779 128.47C231.094 132.71 225.981 136.452 220.522 139.635C212.851 144.046 205.784 146.279 199.656 146.279ZM199.265 89.5787C197.816 89.5682 196.375 89.7899 194.996 90.2355C186.885 92.8987 184.297 96.9872 182.363 103.601C181.429 106.724 180.256 109.771 178.856 112.714C178.014 114.485 177.27 116.302 176.629 118.155C175.358 122.004 172.688 135.212 191.407 143.632C209.337 151.694 234.616 128.198 235.083 127.754C235.296 127.537 243.598 119.078 239.316 111.367C236.827 106.885 235.047 105.148 233.641 103.752C232.472 102.603 231.464 101.611 230.485 99.5421C228.548 95.4372 220.384 91.2634 213.08 93.9036L212.847 93.989L212.644 93.8544C212.568 93.792 206.027 89.5787 199.265 89.5787Z" fill="#1D1E1B"/>
<path d="M212.026 155.146C212.026 155.146 217.159 155.99 217.937 160.817C218.837 166.37 213.304 173.375 202.667 166.134C202.667 166.134 197.912 173.788 187.824 166.373C179.285 160.098 180.707 154.551 188.878 153.179C195.961 151.973 212.026 155.146 212.026 155.146Z" fill="white"/>
<path d="M196 170.091C193.373 170.091 190.542 168.977 187.528 166.761C183.101 163.506 181.019 160.193 181.672 157.441C182.237 155.057 184.766 153.369 188.792 152.683C195.875 151.477 211.411 154.515 212.108 154.653C212.403 154.705 217.605 155.73 218.413 160.728C218.915 163.822 217.566 166.968 215.06 168.57C213.227 169.736 209.221 171.023 202.778 166.797C201.502 168.418 199.689 169.531 197.665 169.933C197.116 170.038 196.559 170.091 196 170.091ZM192.834 153.389C191.536 153.371 190.239 153.46 188.956 153.655C185.344 154.269 183.098 155.694 182.631 157.668C182.076 160.012 184.02 162.961 188.112 165.966C191.55 168.495 194.703 169.503 197.484 168.967C199.409 168.58 201.112 167.469 202.243 165.864L202.515 165.427L202.939 165.716C207.536 168.849 211.661 169.568 214.538 167.739C216.718 166.353 217.887 163.598 217.447 160.882C216.735 156.475 212.134 155.654 211.94 155.628C211.789 155.602 200.532 153.398 192.834 153.398V153.389Z" fill="#1D1E1B"/>
<path d="M211.33 151.648L211.028 155.565C211.028 155.565 207.659 171.023 191.029 160.393C189.858 159.641 188.995 158.495 188.597 157.161C188.199 155.828 188.292 154.396 188.858 153.125C190.579 149.27 192.967 142.617 194.261 133.314C194.261 133.314 187.41 132.631 187.772 126.526C188.133 120.421 192.819 118.848 195.84 120.135C195.84 120.135 207.826 126.578 216.44 102.097C216.44 102.097 228.794 105.571 232.653 117.495C236.511 129.419 235.743 143.832 226.86 148.988C217.977 154.143 211.33 151.648 211.33 151.648Z" fill="#FFCDB2"/>
<path d="M201.356 164.619C198.282 164.619 194.735 163.345 190.765 160.807C189.5 159.987 188.568 158.744 188.137 157.3C187.705 155.855 187.802 154.304 188.411 152.925C190.122 149.086 192.417 142.66 193.704 133.721C192.062 133.393 186.959 131.977 187.284 126.496C187.455 123.593 188.621 121.334 190.568 120.126C191.379 119.625 192.297 119.324 193.247 119.246C194.196 119.168 195.151 119.317 196.033 119.679H196.072C196.102 119.679 199.097 121.242 203.05 119.699C208.108 117.728 212.574 111.574 215.972 101.913L216.127 101.479L216.57 101.604C216.698 101.64 229.223 105.289 233.121 117.321C235.154 123.603 235.827 130.178 235.023 135.829C234.106 142.23 231.371 146.919 227.108 149.395C219.575 153.766 213.644 152.774 211.773 152.278L211.506 155.651C211.454 155.901 210.117 161.789 205.07 163.884C203.893 164.373 202.63 164.623 201.356 164.619ZM193.767 120.211C192.822 120.21 191.896 120.472 191.09 120.966C189.908 121.699 188.463 123.265 188.266 126.549C187.938 132.132 194.049 132.788 194.309 132.815L194.821 132.867L194.749 133.373C193.458 142.673 191.077 149.352 189.311 153.319C188.796 154.481 188.712 155.788 189.073 157.007C189.434 158.225 190.217 159.275 191.281 159.969C196.676 163.421 201.185 164.435 204.673 162.99C209.07 161.168 210.416 155.93 210.524 155.483L210.876 150.952L211.49 151.182C211.592 151.218 218.058 153.503 226.596 148.554C235.206 143.56 235.916 129.219 232.179 117.64C228.855 107.374 218.945 103.46 216.744 102.704C213.214 112.556 208.722 118.572 203.382 120.641C199.139 122.283 195.954 120.74 195.632 120.572C195.04 120.329 194.406 120.207 193.767 120.211Z" fill="#1D1E1B"/>
<path d="M193.961 130.496C193.875 130.51 193.787 130.501 193.706 130.469C193.625 130.437 193.554 130.384 193.501 130.316C191.918 128.257 191.392 126.464 191.941 124.986C192.729 122.858 195.428 122.277 195.553 122.254C195.679 122.228 195.809 122.252 195.916 122.323C196.024 122.393 196.098 122.503 196.125 122.628C196.151 122.754 196.126 122.884 196.056 122.991C195.985 123.099 195.876 123.173 195.75 123.2C195.717 123.2 193.452 123.702 192.851 125.324C192.43 126.47 192.906 127.951 194.273 129.725C194.312 129.775 194.34 129.832 194.357 129.893C194.374 129.955 194.378 130.019 194.369 130.081C194.361 130.144 194.341 130.205 194.309 130.26C194.277 130.315 194.234 130.363 194.184 130.401C194.12 130.453 194.042 130.486 193.961 130.496Z" fill="black"/>
<path d="M218.543 121.367C211.765 123.039 202.475 120.333 200.971 122.819C199.467 125.305 200.771 128.542 204.495 129.235C208.219 129.928 211.88 129.702 219.371 128.871C226.862 128.04 234.149 126.671 233.163 122.677C232.178 118.684 228.507 118.911 218.543 121.367Z" fill="#FFB49F"/>
<path d="M228.694 127.006C228.713 126.312 228.167 125.734 227.474 125.715C226.782 125.696 226.205 126.244 226.186 126.938C226.168 127.633 226.714 128.211 227.406 128.229C228.099 128.248 228.676 127.701 228.694 127.006Z" fill="black"/>
<path d="M215.956 128.608C215.975 127.914 215.429 127.335 214.736 127.317C214.044 127.298 213.467 127.846 213.448 128.54C213.429 129.234 213.975 129.813 214.668 129.831C215.361 129.85 215.937 129.302 215.956 128.608Z" fill="black"/>
<path d="M223.745 133.232C223.643 133.231 223.544 133.2 223.461 133.141C223.378 133.082 223.315 132.999 223.282 132.903L219.377 122.474C219.349 122.355 219.365 122.231 219.423 122.124C219.481 122.018 219.576 121.936 219.691 121.895C219.805 121.854 219.931 121.857 220.043 121.904C220.156 121.95 220.247 122.036 220.3 122.145L224.204 132.575C224.25 132.697 224.245 132.833 224.191 132.952C224.137 133.071 224.038 133.163 223.915 133.209C223.86 133.227 223.802 133.235 223.745 133.232Z" fill="#1D1D1B"/>
<path d="M222.859 119.045C222.773 119.045 222.688 119.022 222.613 118.98C222.5 118.913 222.418 118.805 222.384 118.678C222.35 118.552 222.368 118.417 222.432 118.303C224.711 114.363 230.596 117.44 230.846 117.571C230.955 117.635 231.035 117.739 231.07 117.861C231.105 117.983 231.091 118.114 231.032 118.226C230.973 118.338 230.872 118.423 230.752 118.463C230.632 118.503 230.5 118.495 230.386 118.441C230.333 118.415 225.092 115.689 223.286 118.799C223.243 118.874 223.181 118.936 223.106 118.979C223.031 119.023 222.946 119.045 222.859 119.045Z" fill="black"/>
<path d="M208.656 122.723C208.563 122.723 208.472 122.697 208.393 122.647C208.314 122.597 208.252 122.526 208.212 122.442C208.172 122.357 208.156 122.264 208.168 122.171C208.179 122.078 208.216 121.991 208.275 121.919C209.707 120.152 211.231 119.177 212.843 119.016C213.943 118.899 215.046 119.198 215.937 119.853C216.034 119.937 216.094 120.056 216.105 120.183C216.115 120.311 216.076 120.438 215.995 120.537C215.914 120.636 215.797 120.7 215.67 120.715C215.542 120.729 215.414 120.693 215.313 120.615C215.191 120.517 212.423 118.375 209.037 122.543C208.992 122.6 208.933 122.645 208.867 122.677C208.801 122.708 208.729 122.724 208.656 122.723Z" fill="black"/>
<path d="M212.326 151.917C212.326 151.917 206.799 150.384 203.82 148.022L212.326 151.917Z" fill="#4BD657"/>
<path d="M212.324 152.41C212.28 152.411 212.236 152.405 212.193 152.393C211.963 152.331 206.535 150.804 203.514 148.407C203.418 148.324 203.358 148.207 203.346 148.081C203.334 147.954 203.371 147.828 203.45 147.729C203.529 147.629 203.643 147.564 203.769 147.547C203.894 147.529 204.022 147.561 204.125 147.635C206.991 149.908 212.4 151.428 212.456 151.444C212.569 151.477 212.667 151.55 212.731 151.649C212.795 151.748 212.822 151.867 212.806 151.984C212.79 152.101 212.733 152.208 212.644 152.286C212.556 152.364 212.442 152.408 212.324 152.41Z" fill="black"/>
<path d="M184.525 88.4231H184.404C184.233 88.3912 184.081 88.2926 183.983 88.1492C183.884 88.0057 183.846 87.829 183.878 87.6579C184.584 83.8223 186.249 81.0901 188.827 79.5729C193.024 77.0837 198.061 78.6994 198.272 78.7683C198.437 78.8228 198.574 78.9407 198.653 79.0962C198.731 79.2517 198.745 79.4321 198.69 79.5975C198.636 79.763 198.518 79.9001 198.362 79.9786C198.207 80.0571 198.027 80.0706 197.861 80.0162C197.789 79.9932 193.155 78.5286 189.487 80.7059C187.257 82.0194 185.803 84.4528 185.169 87.8976C185.139 88.0459 185.058 88.1793 184.941 88.2751C184.823 88.3708 184.676 88.4231 184.525 88.4231Z" fill="white"/>
<path d="M217.559 145.865C216.899 145.869 216.246 145.731 215.644 145.461C212.439 144.013 211.749 139.222 211.703 139.025C211.69 138.924 211.708 138.821 211.755 138.731C211.802 138.64 211.876 138.566 211.966 138.519C212.057 138.472 212.16 138.454 212.261 138.468C212.362 138.482 212.456 138.528 212.531 138.598C218.99 144.676 224.97 138.598 225.223 138.325C225.266 138.273 225.32 138.23 225.38 138.199C225.44 138.169 225.507 138.151 225.574 138.147C225.642 138.143 225.71 138.153 225.773 138.176C225.837 138.2 225.895 138.236 225.944 138.283C225.993 138.33 226.032 138.386 226.058 138.449C226.084 138.511 226.097 138.579 226.095 138.646C226.094 138.714 226.08 138.781 226.052 138.843C226.023 138.904 225.983 138.96 225.933 139.005C225.87 139.07 219.746 145.343 213.001 140.282C213.414 141.698 214.314 143.783 216.035 144.551C217.539 145.228 219.453 144.808 221.722 143.297C221.776 143.261 221.837 143.236 221.9 143.224C221.964 143.211 222.029 143.212 222.093 143.224C222.156 143.237 222.216 143.262 222.27 143.298C222.324 143.335 222.37 143.381 222.406 143.435C222.441 143.489 222.466 143.549 222.479 143.613C222.491 143.676 222.491 143.742 222.478 143.805C222.465 143.868 222.44 143.929 222.404 143.982C222.368 144.036 222.322 144.082 222.268 144.118C220.56 145.284 218.967 145.865 217.559 145.865Z" fill="#1D1D1B"/>
<path d="M206.55 119.344H206.441C204.284 119.33 202.221 118.46 200.705 116.925C199.189 115.389 198.346 113.315 198.36 111.158C198.373 109 199.244 106.937 200.779 105.421C202.314 103.906 204.389 103.062 206.547 103.076H206.655C208.811 103.107 210.868 103.992 212.372 105.538C213.877 107.083 214.707 109.162 214.681 111.318C214.65 113.456 213.781 115.496 212.259 116.997C210.738 118.499 208.687 119.342 206.55 119.344ZM206.55 104.061C204.67 104.074 202.872 104.831 201.549 106.167C200.227 107.502 199.488 109.308 199.494 111.188C199.5 113.067 200.252 114.868 201.583 116.195C202.915 117.522 204.717 118.267 206.597 118.267C208.477 118.267 210.28 117.522 211.612 116.195C212.943 114.868 213.694 113.067 213.7 111.188C213.707 109.308 212.968 107.502 211.645 106.167C210.323 104.831 208.525 104.074 206.645 104.061H206.55Z" fill="#1D1D1B"/>
<path d="M226.716 116.097H226.6C224.326 116.082 222.152 115.164 220.554 113.546C218.957 111.927 218.067 109.74 218.082 107.466C218.097 105.192 219.015 103.017 220.633 101.42C222.251 99.8223 224.438 98.9331 226.712 98.9479H226.824C229.097 98.98 231.265 99.9125 232.851 101.541C234.438 103.169 235.314 105.361 235.286 107.634C235.255 109.887 234.338 112.038 232.734 113.621C231.131 115.204 228.969 116.093 226.716 116.097ZM226.716 99.9331C224.717 99.9466 222.805 100.752 221.399 102.172C219.993 103.593 219.207 105.513 219.214 107.511C219.22 109.51 220.019 111.425 221.435 112.836C222.85 114.247 224.768 115.039 226.766 115.039C228.765 115.039 230.682 114.247 232.098 112.836C233.514 111.425 234.313 109.51 234.319 107.511C234.326 105.513 233.54 103.593 232.134 102.172C230.728 100.752 228.816 99.9466 226.817 99.9331H226.716Z" fill="#1D1D1B"/>
<path d="M217.552 108.524C217.432 108.524 217.315 108.481 217.224 108.402C215.362 106.76 213.983 108.146 213.832 108.31C213.741 108.394 213.623 108.441 213.5 108.442C213.377 108.443 213.258 108.397 213.167 108.315C213.075 108.233 213.018 108.119 213.006 107.997C212.994 107.874 213.029 107.752 213.103 107.653C213.835 106.849 215.769 105.814 217.874 107.67C217.949 107.736 218.001 107.824 218.025 107.921C218.049 108.018 218.042 108.12 218.007 108.213C217.971 108.307 217.908 108.387 217.826 108.443C217.743 108.5 217.646 108.53 217.546 108.53L217.552 108.524Z" fill="black"/>
<path d="M210.798 115.906C210.683 115.906 210.57 115.875 210.47 115.817C210.395 115.774 210.33 115.716 210.278 115.647C210.225 115.578 210.187 115.5 210.165 115.416C210.143 115.333 210.138 115.246 210.15 115.16C210.161 115.074 210.19 114.992 210.234 114.917C211.321 113.065 211.619 111.361 211.124 109.85C210.303 107.341 207.534 106.12 207.511 106.107C207.432 106.072 207.36 106.023 207.3 105.961C207.24 105.899 207.192 105.826 207.16 105.746C207.128 105.666 207.112 105.58 207.113 105.494C207.114 105.408 207.133 105.322 207.167 105.243C207.201 105.164 207.25 105.092 207.312 105.031C207.374 104.971 207.447 104.924 207.527 104.892C207.607 104.86 207.693 104.844 207.779 104.845C207.866 104.846 207.951 104.864 208.03 104.898C208.165 104.957 211.36 106.353 212.371 109.43C212.995 111.315 212.657 113.371 211.386 115.581C211.327 115.683 211.241 115.767 211.137 115.824C211.034 115.881 210.917 115.909 210.798 115.906Z" fill="white"/>
<path d="M231.935 111.982C231.82 111.981 231.707 111.95 231.608 111.892C231.508 111.834 231.426 111.751 231.369 111.652C231.312 111.552 231.282 111.439 231.282 111.324C231.282 111.209 231.312 111.096 231.37 110.997C232.454 109.141 232.752 107.437 232.257 105.926C231.436 103.417 228.667 102.196 228.644 102.183C228.561 102.151 228.485 102.103 228.421 102.042C228.357 101.981 228.306 101.907 228.271 101.825C228.236 101.743 228.219 101.655 228.219 101.566C228.219 101.478 228.237 101.39 228.272 101.308C228.307 101.227 228.359 101.153 228.423 101.092C228.487 101.031 228.564 100.983 228.647 100.952C228.73 100.921 228.819 100.908 228.908 100.912C228.996 100.916 229.083 100.939 229.163 100.977C229.298 101.033 232.493 102.432 233.504 105.506C234.128 107.391 233.79 109.447 232.519 111.66C232.459 111.761 232.374 111.844 232.271 111.901C232.168 111.957 232.052 111.985 231.935 111.982Z" fill="white"/>
<path d="M140.644 191.535C120.773 189.026 138.223 167.267 152.672 161.96C157.142 163.273 173.089 153.349 178.415 155.757C173.453 185.223 157.95 193.735 140.644 191.535Z" fill="#0598C6"/>
<path d="M155.766 130.027C155.766 130.027 160.573 128.284 161.319 125.837C162.064 123.391 162.498 112.229 165.259 105.914C167.929 99.776 173.213 100.85 173.906 111.752C173.906 111.752 178.106 102.341 183.101 107.063C183.101 107.063 186.644 103.329 193.471 101.533C199.336 99.9895 200.453 106.62 195.695 109.158C191.705 111.286 190.112 112.137 188.93 113.381C188.93 113.381 193.504 118.117 187.472 119.486C187.472 119.486 183.909 122.412 186.398 124.773C188.887 127.134 191.843 116.54 195.448 115.25C199.054 113.959 202.417 118.708 197.8 127.729C193.182 136.75 191.682 141.239 185.301 144.641C180.543 147.179 173.387 153.044 173.387 153.044L155.766 130.027Z" fill="#FFCDB2"/>
<path d="M173.358 153.521H173.302C173.172 153.502 173.055 153.434 172.974 153.33L155.382 130.343C155.336 130.281 155.304 130.21 155.289 130.134C155.275 130.058 155.28 129.98 155.301 129.905C155.323 129.831 155.362 129.763 155.415 129.707C155.468 129.651 155.533 129.607 155.606 129.581C156.88 129.118 160.305 127.519 160.86 125.709C161.086 124.964 161.29 123.289 161.549 121.174C162.095 116.757 162.912 110.081 164.804 105.74C166.032 102.919 167.864 101.428 169.713 101.753C172.012 102.157 173.67 105.224 174.245 110.071C175.23 108.38 177.099 105.802 179.457 105.342C180.701 105.096 181.916 105.457 183.069 106.413C184.12 105.428 187.561 102.597 193.328 101.08C196.474 100.252 198.254 101.625 198.861 103.188C199.623 105.132 198.861 108.048 195.906 109.618C192.356 111.51 190.701 112.393 189.584 113.431C190.198 114.179 191.433 115.946 190.95 117.569C190.622 118.718 189.509 119.539 187.666 119.962C187.338 120.271 186.024 121.522 185.972 122.842C185.967 123.146 186.03 123.447 186.157 123.723C186.283 123.999 186.469 124.243 186.701 124.438C186.759 124.51 186.833 124.566 186.918 124.602C187.003 124.638 187.095 124.651 187.187 124.642C188.051 124.521 189.302 122.409 190.405 120.547C191.886 118.045 193.42 115.457 195.246 114.794C195.921 114.524 196.664 114.473 197.37 114.645C198.076 114.817 198.711 115.206 199.186 115.756C200.795 117.582 201.38 121.742 198.201 127.959C197.571 129.187 196.999 130.33 196.467 131.397C193.035 138.293 191.144 142.066 185.496 145.078C180.833 147.564 173.733 153.37 173.674 153.429C173.582 153.495 173.471 153.527 173.358 153.521ZM156.555 130.248L173.444 152.325C175.02 151.051 180.879 146.414 185.039 144.191C190.415 141.324 192.264 137.623 195.597 130.937C196.129 129.867 196.704 128.721 197.334 127.489C200.29 121.716 199.853 117.966 198.457 116.39C198.114 115.987 197.651 115.703 197.136 115.579C196.621 115.455 196.08 115.498 195.59 115.7C194.096 116.242 192.589 118.787 191.259 121.03C189.867 123.381 188.665 125.41 187.318 125.598C187.081 125.627 186.84 125.601 186.615 125.52C186.39 125.44 186.186 125.308 186.021 125.135C185.686 124.844 185.419 124.482 185.24 124.075C185.061 123.669 184.975 123.227 184.987 122.783C185.056 120.813 187.036 119.171 187.121 119.109C187.181 119.061 187.25 119.027 187.325 119.01C188.852 118.662 189.748 118.078 189.988 117.27C190.369 115.999 189.069 114.281 188.537 113.726C188.449 113.635 188.399 113.513 188.399 113.386C188.399 113.26 188.449 113.138 188.537 113.047C189.771 111.733 191.427 110.863 195.433 108.731C197.876 107.418 198.546 105.077 197.939 103.526C197.331 101.976 195.712 101.451 193.571 102.013C186.954 103.753 183.466 107.369 183.434 107.405C183.389 107.452 183.336 107.49 183.277 107.517C183.218 107.543 183.154 107.558 183.089 107.559C182.959 107.562 182.832 107.514 182.737 107.424C181.709 106.439 180.698 106.081 179.641 106.292C176.642 106.886 174.386 111.907 174.347 111.96C174.301 112.059 174.223 112.141 174.126 112.192C174.028 112.243 173.917 112.261 173.808 112.242C173.7 112.223 173.601 112.168 173.528 112.086C173.454 112.003 173.411 111.899 173.404 111.789C173.007 105.52 171.145 102.985 169.536 102.702C168.186 102.466 166.718 103.773 165.7 106.114C163.868 110.331 163.057 116.918 162.521 121.279C162.255 123.443 162.045 125.154 161.792 125.982C161.146 128.1 157.927 129.663 156.555 130.248Z" fill="#1D1D1B"/>
<path d="M187.041 119.519C187.041 119.519 183.429 120.018 178.395 113.677L187.041 119.519Z" fill="#FFCDB2"/>
<path d="M186.848 120.002C185.889 120.002 182.444 119.568 178.007 113.966C177.933 113.863 177.901 113.735 177.919 113.61C177.936 113.484 178.002 113.37 178.101 113.291C178.201 113.213 178.326 113.175 178.453 113.187C178.579 113.199 178.696 113.259 178.779 113.355C183.518 119.338 186.943 119.016 186.989 119.013C187.053 119.005 187.119 119.009 187.182 119.026C187.245 119.042 187.305 119.071 187.356 119.111C187.408 119.151 187.452 119.2 187.484 119.257C187.517 119.313 187.538 119.375 187.547 119.44C187.556 119.505 187.552 119.571 187.535 119.634C187.518 119.697 187.489 119.756 187.449 119.808C187.409 119.86 187.36 119.903 187.304 119.936C187.247 119.968 187.185 119.99 187.12 119.998C187.029 120.005 186.938 120.007 186.848 120.002Z" fill="#1D1D1B"/>
<path d="M188.903 113.385C187.095 111.158 185.148 109.048 183.074 107.067L188.903 113.385Z" fill="#FFCDB2"/>
<path d="M188.903 113.877C188.829 113.878 188.755 113.861 188.688 113.828C188.621 113.796 188.562 113.749 188.516 113.69C186.721 111.484 184.791 109.391 182.736 107.425C182.688 107.381 182.648 107.327 182.62 107.268C182.593 107.208 182.577 107.144 182.575 107.079C182.572 107.013 182.583 106.948 182.606 106.886C182.629 106.825 182.664 106.769 182.709 106.721C182.754 106.674 182.808 106.635 182.868 106.609C182.928 106.582 182.993 106.568 183.058 106.567C183.124 106.566 183.189 106.578 183.25 106.602C183.311 106.626 183.366 106.663 183.413 106.709C185.503 108.708 187.466 110.835 189.291 113.079C189.371 113.182 189.408 113.313 189.392 113.443C189.377 113.573 189.311 113.691 189.209 113.772C189.122 113.841 189.014 113.878 188.903 113.877Z" fill="#1D1D1B"/>
<path d="M173.895 111.755C173.938 113.374 174.352 113.768 173.672 118.652L173.895 111.755Z" fill="#FFCDB2"/>
<path d="M173.673 119.132H173.604C173.475 119.112 173.358 119.043 173.28 118.938C173.201 118.834 173.167 118.703 173.184 118.573C173.693 114.961 173.584 113.881 173.482 112.853C173.45 112.524 173.414 112.196 173.404 111.772C173.401 111.642 173.45 111.516 173.54 111.421C173.629 111.326 173.753 111.271 173.883 111.267C174.012 111.267 174.136 111.317 174.228 111.407C174.32 111.498 174.373 111.62 174.376 111.749C174.376 112.12 174.415 112.429 174.448 112.754C174.553 113.789 174.671 114.964 174.146 118.711C174.13 118.826 174.073 118.931 173.987 119.008C173.9 119.085 173.789 119.129 173.673 119.132Z" fill="#1D1D1B"/>
<path d="M187.186 125.16C187.186 125.16 180.307 124.937 178.379 128.628L187.186 125.16Z" fill="#FFCDB2"/>
<path d="M178.379 129.121C178.3 129.12 178.222 129.101 178.152 129.065C178.039 129.004 177.953 128.902 177.914 128.779C177.875 128.657 177.885 128.524 177.942 128.408C179.988 124.487 186.91 124.668 187.202 124.678C187.333 124.682 187.457 124.738 187.546 124.834C187.635 124.929 187.683 125.056 187.679 125.187C187.674 125.317 187.618 125.441 187.523 125.53C187.427 125.619 187.3 125.667 187.17 125.663C187.104 125.663 180.575 125.492 178.815 128.865C178.773 128.943 178.709 129.008 178.633 129.053C178.556 129.098 178.468 129.122 178.379 129.121Z" fill="#1D1D1B"/>
<path d="M180.518 115.995C180.508 117.264 180.254 118.52 179.77 119.693L180.518 115.995Z" fill="#FFCDB2"/>
<path d="M179.767 120.176C179.695 120.175 179.625 120.159 179.56 120.13C179.442 120.073 179.351 119.973 179.307 119.85C179.262 119.727 179.269 119.591 179.324 119.473C179.775 118.366 180.013 117.184 180.026 115.989C180.026 115.858 180.078 115.733 180.171 115.64C180.263 115.548 180.388 115.496 180.519 115.496C180.649 115.496 180.775 115.548 180.867 115.64C180.96 115.733 181.011 115.858 181.011 115.989C181.002 117.331 180.731 118.658 180.214 119.897C180.173 119.981 180.11 120.052 180.031 120.101C179.952 120.151 179.86 120.177 179.767 120.176Z" fill="#1D1D1B"/>
<path d="M138.233 191.804C179 182.245 167.545 158.965 167.545 158.965L173.755 152.604L156.577 130.001L149.152 131.866C149.152 131.866 134.805 117.226 100.088 150.496C65.3701 183.765 125.282 216.525 130.608 232.016" fill="#07ACEE"/>
<path d="M130.144 232.183C128.686 227.95 122.92 222.246 116.201 215.645C103.958 203.577 88.7177 188.556 88.8327 172.265C88.8885 164.475 92.5597 157.034 99.7481 150.147C114.233 136.266 126.972 128.891 137.612 128.221C144.692 127.774 148.396 130.546 149.292 131.331L156.776 129.452L174.408 152.653L168.135 159.076C169.123 161.503 169.596 164.109 169.525 166.728C169.455 169.348 168.842 171.924 167.725 174.294C163.811 182.579 153.933 188.632 138.347 192.283L138.121 191.324C153.384 187.745 163.042 181.88 166.829 173.89C170.464 166.219 167.141 159.257 167.104 159.188L166.953 158.86L173.107 152.555L156.386 130.552L149 132.404L148.803 132.204C148.771 132.168 145.214 128.68 137.562 129.196C130.423 129.679 118.187 133.826 100.431 150.844C93.4431 157.543 89.8704 164.744 89.8178 172.258C89.7062 188.132 104.782 202.992 116.893 214.929C123.681 221.619 129.543 227.408 131.074 231.848L130.144 232.183Z" fill="#1D1D1B"/>
<path d="M149.38 132.549L156.513 130.759L173.008 152.466L167.044 158.574L167.087 158.666C161.314 155.632 150.539 147.937 149.18 132.368C149.301 132.48 149.38 132.549 149.38 132.549Z" fill="#0598C6"/>
<path d="M281.855 188.168C247.739 124.585 279.343 115.305 279.343 115.305L279.219 104.98L307.207 99.6636L311.309 107.174C311.309 107.174 328.339 106.553 334.056 162.117C340.473 224.456 307.289 230.038 255.184 237.171" fill="#07ACEE"/>
<path d="M255.179 237.664C255.048 237.672 254.92 237.629 254.821 237.542C254.723 237.456 254.662 237.334 254.653 237.204C254.645 237.073 254.688 236.944 254.775 236.846C254.861 236.747 254.983 236.687 255.113 236.678C279.184 233.394 301.922 230.268 316.276 219.93C331.238 209.162 336.571 191.344 333.566 162.134C330.643 133.724 324.699 120.405 320.256 114.231C315.475 107.607 311.363 107.63 311.321 107.634C311.23 107.635 311.141 107.612 311.062 107.567C310.984 107.522 310.919 107.456 310.874 107.378L306.933 100.183L279.7 105.351L279.821 115.269C279.823 115.376 279.789 115.48 279.726 115.566C279.662 115.652 279.573 115.715 279.47 115.745C279.401 115.768 272.423 117.925 268.755 126.733C264.903 135.967 264.124 154.078 282.274 187.902C282.308 187.96 282.33 188.023 282.339 188.089C282.347 188.154 282.343 188.221 282.325 188.285C282.307 188.349 282.276 188.409 282.235 188.46C282.194 188.512 282.142 188.555 282.084 188.586C282.025 188.618 281.961 188.637 281.895 188.643C281.829 188.649 281.762 188.642 281.699 188.622C281.636 188.601 281.578 188.568 281.528 188.525C281.477 188.481 281.437 188.428 281.408 188.369C273.28 173.22 268.209 159.871 266.334 148.686C264.85 139.819 265.349 132.286 267.858 126.319C271.28 118.142 277.293 115.482 278.833 114.921L278.712 104.951C278.71 104.835 278.75 104.723 278.823 104.633C278.896 104.544 278.999 104.483 279.112 104.461L307.101 99.1481C307.203 99.1277 307.31 99.1406 307.404 99.185C307.499 99.2293 307.576 99.3026 307.626 99.3944L311.593 106.662C312.71 106.757 316.565 107.535 320.919 113.486C327.573 122.569 332.15 138.903 334.531 162.032C336.108 177.345 335.352 189.521 332.232 199.258C329.31 208.351 324.276 215.369 316.848 220.712C302.297 231.184 279.441 234.314 255.245 237.627L255.179 237.664Z" fill="#1D1D1B"/>
<path d="M310.674 107.565L306.734 100.34L279.852 105.447L279.973 115.364L279.878 115.407C286.15 117.466 299.253 119.597 310.944 107.562C310.77 107.562 310.674 107.565 310.674 107.565Z" fill="#0598C6"/>
<path d="M173.886 209.984C175.516 209.984 176.838 208.659 176.838 207.025C176.838 205.391 175.516 204.066 173.886 204.066C172.255 204.066 170.934 205.391 170.934 207.025C170.934 208.659 172.255 209.984 173.886 209.984Z" fill="#51CEF4"/>
<path d="M235.573 179.818C237.204 179.818 238.525 178.493 238.525 176.859C238.525 175.225 237.204 173.9 235.573 173.9C233.943 173.9 232.621 175.225 232.621 176.859C232.621 178.493 233.943 179.818 235.573 179.818Z" fill="#51CEF4"/>
<path d="M256.783 218.227C256.889 218.845 256.795 219.481 256.515 220.043C256.236 220.605 255.784 221.063 255.227 221.351C254.67 221.639 254.035 221.742 253.415 221.646C252.795 221.549 252.222 221.258 251.778 220.814C251.335 220.37 251.044 219.796 250.949 219.176C250.853 218.556 250.957 217.922 251.246 217.365C251.535 216.808 251.994 216.357 252.556 216.078C253.118 215.799 253.754 215.706 254.372 215.813C254.974 215.917 255.529 216.205 255.961 216.637C256.393 217.069 256.68 217.625 256.783 218.227Z" fill="#51CEF4"/>
<path d="M197.544 237.766C197.65 238.384 197.557 239.02 197.277 239.582C196.997 240.144 196.546 240.602 195.989 240.89C195.431 241.178 194.797 241.281 194.177 241.185C193.557 241.088 192.983 240.797 192.54 240.353C192.097 239.909 191.806 239.335 191.71 238.715C191.615 238.095 191.719 237.461 192.008 236.904C192.297 236.347 192.755 235.896 193.317 235.617C193.879 235.338 194.516 235.245 195.134 235.352C195.736 235.456 196.291 235.744 196.722 236.176C197.154 236.608 197.441 237.164 197.544 237.766Z" fill="#51CEF4"/>
<path d="M245.927 262.579C246.033 263.198 245.939 263.834 245.66 264.396C245.38 264.957 244.929 265.415 244.372 265.703C243.814 265.992 243.179 266.095 242.559 265.998C241.939 265.902 241.366 265.611 240.923 265.167C240.479 264.723 240.189 264.149 240.093 263.529C239.997 262.909 240.102 262.274 240.39 261.717C240.679 261.16 241.138 260.71 241.7 260.431C242.262 260.152 242.899 260.059 243.517 260.166C244.119 260.27 244.674 260.557 245.105 260.99C245.537 261.422 245.824 261.977 245.927 262.579Z" fill="#51CEF4"/>
<path d="M118.339 188.29C121.357 187.617 122.723 191.308 119.981 192.756C116.976 193.426 115.61 189.738 118.339 188.29Z" fill="#51CEF4"/>
<path d="M108.968 154.588C111.986 153.931 113.352 157.606 110.61 159.054C107.592 159.727 106.239 156.036 108.968 154.588Z" fill="#51CEF4"/>
<path d="M151.925 165.493C154.943 164.837 156.309 168.511 153.567 169.959C150.562 170.62 149.196 166.932 151.925 165.493Z" fill="#51CEF4"/>
<path d="M126.452 138.096C129.47 137.439 130.836 141.117 128.094 142.565C125.09 143.235 123.724 139.551 126.452 138.096Z" fill="#51CEF4"/>
<path d="M294.838 179.368C293.114 176.39 289.584 178.406 290.569 181.808C292.293 184.787 295.82 182.77 294.838 179.368Z" fill="#51CEF4"/>
<path d="M324.803 158.456C323.079 155.477 319.549 157.494 320.534 160.899C322.261 163.878 325.788 161.858 324.803 158.456Z" fill="#51CEF4"/>
<path d="M286.182 133.285C284.455 130.306 280.928 132.323 281.913 135.728C283.637 138.707 287.164 136.69 286.182 133.285Z" fill="#51CEF4"/>
<path d="M323.471 130.572C321.744 127.594 318.217 129.613 319.202 133.016C320.926 135.994 324.453 133.968 323.471 130.572Z" fill="#51CEF4"/>
<path d="M308.468 108.911C298.977 110.001 290.003 109.529 281.661 107.151C275.237 105.3 269.662 101.261 265.901 95.7326C262.14 90.2045 260.431 83.5355 261.068 76.88C262.428 62.6311 268.069 49.3673 277.396 36.9673C290.489 46.4512 299.198 52.9567 317.052 51.7449C304.17 71.2973 291.438 94.3569 308.468 108.911Z" fill="white"/>
<path d="M299.13 109.956C293.182 109.999 287.257 109.214 281.525 107.624C274.986 105.748 269.311 101.641 265.484 96.0168C261.657 90.3923 259.921 83.6052 260.577 76.8341C261.891 62.907 267.431 49.3937 276.997 36.6718C277.034 36.6203 277.082 36.5766 277.136 36.5434C277.191 36.5102 277.252 36.4881 277.315 36.4784C277.378 36.4686 277.443 36.4714 277.505 36.4865C277.567 36.5017 277.625 36.529 277.676 36.5668L278.205 36.9509C291.075 46.2773 299.58 52.4346 317.011 51.2458C317.103 51.2393 317.194 51.2585 317.276 51.3014C317.357 51.3442 317.425 51.4088 317.471 51.4881C317.518 51.5673 317.541 51.658 317.538 51.7498C317.536 51.8416 317.508 51.931 317.458 52.0077C311.33 61.3078 304.706 72.1808 302.023 82.3281C299.048 93.5262 301.261 102.101 308.795 108.537C308.867 108.6 308.92 108.682 308.947 108.774C308.973 108.866 308.973 108.964 308.946 109.056C308.915 109.145 308.86 109.223 308.786 109.281C308.712 109.34 308.623 109.375 308.529 109.384C305.41 109.755 302.271 109.946 299.13 109.956ZM277.499 37.6504C268.216 50.1293 262.853 63.3241 261.559 76.9261C260.924 83.4682 262.6 90.0262 266.297 95.4612C269.993 100.896 275.477 104.865 281.795 106.678C289.462 108.862 298.04 109.489 307.311 108.544C300.138 101.926 298.096 93.2536 301.071 82.0752C303.724 72.0921 310.092 61.4687 316.105 52.2868C314.975 52.3503 313.881 52.381 312.821 52.3788C297.83 52.3788 289.597 46.4119 277.64 37.749L277.499 37.6504Z" fill="#1D1D1B"/>
<path d="M261.152 83.1294C261.152 83.1294 267.063 93.2044 275.812 92.1667C275.812 92.1667 271.674 103.66 279.792 106.55C279.792 106.55 263.425 101.733 261.152 83.1294Z" fill="#4BD657"/>
<path d="M279.652 107.02C279.481 106.971 275.415 105.749 271.015 102.199C266.952 98.9152 261.859 92.9648 260.664 83.1886L260.375 80.834L261.577 82.8799C261.636 82.9784 267.439 92.6626 275.754 91.6775L276.545 91.5855L276.276 92.3343C276.256 92.3966 274.112 98.4752 276.095 102.679C276.474 103.479 277.011 104.193 277.675 104.779C278.339 105.364 279.116 105.809 279.957 106.084L279.652 107.02ZM261.978 85.2082C264.066 96.0451 271.255 101.687 275.878 104.255C275.621 103.889 275.396 103.501 275.205 103.096C273.445 99.3717 274.584 94.5345 275.12 92.7218C268.798 93.0502 264.105 88.0291 261.978 85.2082Z" fill="black"/>
<path d="M265.439 70.8669C265.331 70.8669 265.225 70.8457 265.125 70.8044C265.026 70.7631 264.935 70.7026 264.859 70.6263C264.783 70.55 264.723 70.4595 264.682 70.3599C264.641 70.2603 264.621 70.1536 264.621 70.046C264.621 61.4093 275.356 44.4052 275.816 43.686C275.935 43.5067 276.119 43.3812 276.329 43.3364C276.54 43.2916 276.759 43.331 276.941 43.4463C277.122 43.5616 277.251 43.7435 277.3 43.9529C277.349 44.1622 277.314 44.3824 277.202 44.5661C277.09 44.7369 266.266 61.8854 266.263 70.046C266.262 70.264 266.175 70.4728 266.021 70.6267C265.866 70.7806 265.657 70.8669 265.439 70.8669Z" fill="white"/>
<path d="M344.694 153.323C344.642 153.323 344.59 153.315 344.54 153.3C332.958 149.5 322.975 144.358 314.867 138.01C308.368 132.927 303.045 127.062 299.068 120.579C292.27 109.525 291.712 100.642 291.692 100.268C291.689 100.203 291.698 100.139 291.72 100.078C291.741 100.017 291.775 99.9602 291.818 99.9121C291.861 99.8639 291.914 99.8247 291.972 99.7968C292.031 99.7688 292.094 99.7527 292.158 99.7492C292.223 99.7458 292.288 99.7551 292.349 99.7767C292.41 99.7982 292.466 99.8316 292.515 99.8749C292.563 99.9182 292.602 99.9706 292.63 100.029C292.658 100.087 292.674 100.151 292.677 100.216C292.677 100.304 293.255 109.266 299.941 120.116C306.115 130.135 318.919 143.862 344.852 152.364C344.962 152.402 345.056 152.477 345.116 152.576C345.176 152.676 345.198 152.794 345.18 152.909C345.161 153.024 345.103 153.128 345.015 153.204C344.926 153.28 344.814 153.322 344.698 153.323H344.694Z" fill="#1D1E1B"/>
<path d="M312.594 153.622C312.512 153.623 312.43 153.602 312.358 153.563C296.267 144.742 289.292 131.39 286.264 121.741C282.98 111.292 283.515 102.797 283.519 102.695C283.527 102.564 283.588 102.442 283.686 102.356C283.785 102.27 283.914 102.226 284.044 102.235C284.175 102.244 284.297 102.304 284.383 102.402C284.469 102.501 284.512 102.63 284.504 102.76C284.504 102.846 283.982 111.187 287.217 121.479C290.192 130.943 297.068 144.042 312.831 152.696C312.929 152.747 313.006 152.829 313.051 152.93C313.096 153.031 313.105 153.144 313.078 153.251C313.051 153.357 312.988 153.452 312.9 153.519C312.812 153.585 312.705 153.621 312.594 153.618V153.622Z" fill="#1D1E1B"/>
<path d="M304.602 103.756C304.602 103.756 315.074 106.084 319.678 94.7183C324.282 83.3527 324.994 71.4026 318.811 64.1779C312.627 56.9533 305.229 56.487 300.368 58.7299C295.508 60.9729 294.602 66.2829 298.628 71.7736C298.628 71.7736 291.045 77.2545 298.694 86.5184C295.508 87.6349 292.753 97.2732 302.139 98.7674C302.48 100.627 303.333 102.354 304.602 103.756Z" fill="#FFCDB2"/>
<path d="M306.782 104.432C306.011 104.442 305.241 104.377 304.483 104.239L304.325 104.202L304.22 104.081C302.978 102.701 302.114 101.023 301.711 99.2109C297.876 98.4983 295.518 96.2357 295.226 92.9715C294.986 90.3115 296.211 87.4414 297.915 86.3709C295.515 83.2938 294.48 80.2956 294.845 77.4452C295.161 75.2219 296.262 73.1849 297.948 71.7016C295.915 68.7658 295.163 65.7577 295.827 63.1963C296.382 61.0453 297.879 59.3541 300.152 58.3032C304.854 56.1326 312.66 56.2869 319.175 63.8859C324.925 70.5818 325.28 82.1838 320.124 94.9189C316.761 103.237 310.24 104.432 306.782 104.432ZM304.864 103.309C306.197 103.552 315.08 104.757 319.221 94.5379C324.236 82.1477 323.943 70.9266 318.439 64.5164C312.285 57.3509 305.176 57.0685 300.575 59.1932C298.579 60.116 297.268 61.5839 296.789 63.4393C296.171 65.8201 296.966 68.6935 299.025 71.498L299.317 71.8986L298.917 72.1876C297.248 73.5361 296.147 75.4615 295.83 77.5831C295.502 80.2956 296.579 83.2019 299.074 86.2231L299.524 86.7682L298.868 87.0013C297.446 87.4972 295.984 90.1769 296.24 92.8828C296.391 94.5708 297.373 97.523 302.24 98.298L302.585 98.3539L302.647 98.6822C302.958 100.396 303.723 101.994 304.864 103.309Z" fill="black"/>
<path d="M315.98 75.8951C315.913 75.8947 315.847 75.8812 315.786 75.8553C315.725 75.8294 315.669 75.7915 315.622 75.744C315.553 75.6685 308.447 68.4308 297.675 72.4831C297.613 72.5131 297.545 72.5297 297.476 72.5318C297.407 72.5339 297.338 72.5214 297.274 72.4951C297.21 72.4689 297.153 72.4294 297.105 72.3794C297.057 72.3293 297.02 72.2698 296.997 72.2046C296.974 72.1395 296.965 72.0702 296.97 72.0012C296.976 71.9323 296.996 71.8652 297.029 71.8044C297.062 71.7437 297.107 71.6905 297.162 71.6485C297.217 71.6064 297.28 71.5764 297.347 71.5603C308.739 67.2715 316.276 74.9854 316.351 75.061C316.443 75.1533 316.495 75.2785 316.495 75.4091C316.495 75.5396 316.443 75.6648 316.351 75.7571C316.302 75.8049 316.244 75.8419 316.18 75.8656C316.116 75.8894 316.048 75.8994 315.98 75.8951Z" fill="#1D1D1B"/>
<path d="M313.436 87.152C313.387 87.1524 313.338 87.1446 313.292 87.129C313.206 87.1028 304.619 84.5315 298.784 87.0568C298.664 87.109 298.528 87.1116 298.406 87.0638C298.285 87.0161 298.187 86.922 298.135 86.8023C298.083 86.6825 298.08 86.5469 298.128 86.4253C298.176 86.3037 298.27 86.206 298.389 86.1537C304.563 83.4806 313.213 86.0749 313.581 86.1865C313.695 86.2199 313.794 86.2935 313.858 86.3939C313.922 86.4943 313.948 86.6145 313.93 86.7324C313.913 86.8502 313.853 86.9577 313.762 87.0349C313.671 87.112 313.556 87.1536 313.436 87.152Z" fill="#1D1D1B"/>
<path d="M306.419 99.887C304.795 99.8721 303.18 99.6391 301.618 99.1941C301.493 99.1558 301.388 99.0694 301.327 98.9539C301.266 98.8384 301.253 98.7033 301.291 98.5783C301.329 98.4534 301.416 98.3487 301.531 98.2874C301.647 98.2262 301.782 98.2133 301.907 98.2516C301.963 98.2516 307.398 99.8936 310.622 97.9232C310.678 97.8866 310.74 97.8616 310.805 97.8495C310.87 97.8375 310.937 97.8387 311.001 97.8531C311.066 97.8675 311.127 97.8948 311.181 97.9334C311.235 97.972 311.281 98.021 311.315 98.0775C311.35 98.1341 311.372 98.1971 311.382 98.2626C311.391 98.3282 311.388 98.395 311.371 98.4591C311.354 98.5232 311.324 98.5832 311.284 98.6355C311.243 98.6879 311.192 98.7316 311.135 98.7639C309.729 99.621 308.008 99.887 306.419 99.887Z" fill="#1D1D1B"/>
<path d="M319.69 70.9168C319.52 70.9167 319.355 70.8642 319.216 70.7667C319.077 70.6691 318.972 70.5312 318.915 70.3716C318.895 70.3158 316.793 64.6215 311.539 62.1619C308.255 60.6316 304.452 60.6447 300.18 62.2045C299.975 62.279 299.75 62.2691 299.552 62.177C299.355 62.085 299.202 61.9183 299.128 61.7136C299.053 61.5089 299.063 61.2831 299.155 61.0857C299.247 60.8883 299.414 60.7356 299.619 60.6611C304.321 58.9469 308.57 58.9535 312.252 60.6808C318.127 63.4393 320.369 69.5474 320.461 69.82C320.505 69.9437 320.518 70.0761 320.5 70.206C320.482 70.3359 320.433 70.4596 320.358 70.5669C320.282 70.6741 320.182 70.7618 320.066 70.8227C319.95 70.8836 319.821 70.9158 319.69 70.9168Z" fill="white"/>
<path d="M315.885 80.7879C315.757 80.7882 315.631 80.7586 315.517 80.7016C315.403 80.6446 315.304 80.5617 315.228 80.4596C314.998 80.1312 309.527 72.9263 300.214 76.1478C300.111 76.1894 300 76.2096 299.889 76.2072C299.777 76.2047 299.668 76.1797 299.567 76.1335C299.465 76.0874 299.374 76.0211 299.299 75.9387C299.225 75.8564 299.167 75.7596 299.131 75.6544C299.094 75.5492 299.08 75.4376 299.088 75.3266C299.096 75.2156 299.127 75.1073 299.178 75.0085C299.229 74.9097 299.3 74.8223 299.386 74.7517C299.472 74.6811 299.572 74.6287 299.679 74.5977C310.157 70.9854 316.489 79.4021 316.551 79.4875C316.643 79.6095 316.698 79.7545 316.712 79.9064C316.726 80.0582 316.697 80.2109 316.629 80.3472C316.561 80.4836 316.456 80.5983 316.326 80.6785C316.196 80.7586 316.047 80.8011 315.894 80.8011L315.885 80.7879Z" fill="white"/>
<path d="M279.996 60.0801C279.996 60.0801 284.534 67.4163 296.53 67.7808L279.996 60.0801Z" fill="white"/>
<path d="M296.525 68.2668C284.401 67.899 279.777 60.6415 279.587 60.3328C279.52 60.2218 279.499 60.0889 279.529 59.9628C279.56 59.8367 279.639 59.7276 279.749 59.6593C279.859 59.591 279.992 59.5689 280.118 59.5979C280.245 59.6268 280.355 59.7045 280.424 59.814C280.467 59.8862 284.985 66.9302 296.555 67.2816C296.685 67.2816 296.811 67.3335 296.903 67.4259C296.995 67.5183 297.047 67.6436 297.047 67.7742C297.047 67.9048 296.995 68.0301 296.903 68.1225C296.811 68.2148 296.685 68.2668 296.555 68.2668H296.525Z" fill="#1D1D1B"/>
<path d="M277.816 74.6504C277.816 74.6504 282.778 81.1657 294.876 78.9917L277.816 74.6504Z" fill="white"/>
<path d="M290.075 79.934C281.34 79.934 277.596 75.1854 277.426 74.949C277.382 74.8981 277.35 74.8389 277.33 74.775C277.311 74.7112 277.304 74.644 277.311 74.5776C277.319 74.5112 277.339 74.4469 277.372 74.3887C277.405 74.3305 277.449 74.2796 277.502 74.239C277.555 74.1984 277.616 74.1691 277.681 74.1527C277.745 74.1364 277.813 74.1333 277.879 74.1438C277.945 74.1543 278.008 74.1781 278.064 74.2138C278.121 74.2495 278.169 74.2963 278.207 74.3513C278.256 74.4137 283.163 80.5908 294.788 78.5088C294.918 78.4857 295.053 78.5154 295.162 78.5915C295.27 78.6675 295.344 78.7837 295.367 78.9143C295.39 79.045 295.36 79.1794 295.284 79.2881C295.208 79.3968 295.092 79.4708 294.962 79.4939C293.349 79.7848 291.714 79.9321 290.075 79.934Z" fill="#1D1D1B"/>
<path d="M69.5719 16.1705C68.811 23.2495 68.8419 30.3912 69.6639 37.4634C70.4762 44.4872 72.017 51.4076 74.2614 58.1126C76.5165 64.8506 79.4499 71.3423 83.0163 77.4877C86.5679 83.6144 90.7502 89.3531 95.4952 94.61C100.217 99.8635 105.504 104.581 111.258 108.678C111.98 109.194 112.716 109.696 113.455 110.189C113.599 110.303 113.782 110.356 113.966 110.339C114.149 110.322 114.319 110.235 114.44 110.097C114.558 109.954 114.615 109.771 114.598 109.586C114.582 109.402 114.493 109.231 114.351 109.112C108.525 105.219 103.147 100.693 98.316 95.6182C93.4992 90.5494 89.2264 84.9901 85.5678 79.0311C81.8953 73.0682 78.8418 66.7456 76.4549 60.1618C74.0583 53.5852 72.3524 46.7771 71.3649 39.8475C70.3832 32.9426 70.1629 25.9509 70.7081 18.9979C70.7804 18.1343 70.8592 17.2739 70.9544 16.4102C71.0496 15.5465 69.6703 15.2838 69.5751 16.1836L69.5719 16.1705Z" fill="black"/>
<path d="M55.0978 79.8355C57.2922 83.0972 59.6786 86.2257 62.2438 89.2045C64.8414 92.2097 67.6121 95.0606 70.5421 97.7427C76.3794 103.086 82.8213 107.728 89.7366 111.575C93.1717 113.486 96.718 115.19 100.357 116.678L101.72 117.223C101.89 117.294 102.08 117.297 102.253 117.232C102.425 117.167 102.566 117.038 102.645 116.871C102.72 116.702 102.726 116.51 102.661 116.337C102.596 116.164 102.465 116.023 102.298 115.945C95.0268 113.103 88.1213 109.403 81.7272 104.925C78.5243 102.679 75.4542 100.249 72.5323 97.6475C66.7115 92.4825 61.5298 86.6394 57.0979 80.2427C56.8177 79.8421 56.5417 79.4382 56.2702 79.0309C55.7678 78.2822 54.6283 79.0868 55.1209 79.8322L55.0978 79.8355Z" fill="black"/>
<path d="M261.071 137.797C260.959 137.797 260.85 137.759 260.763 137.688C260.675 137.618 260.615 137.519 260.592 137.409C258.7 128.897 267.16 118.507 267.514 118.07C267.597 117.969 267.717 117.906 267.847 117.893C267.978 117.88 268.108 117.92 268.209 118.003C268.31 118.086 268.374 118.206 268.386 118.336C268.399 118.467 268.359 118.597 268.276 118.698C268.191 118.799 259.764 129.154 261.551 137.196C261.579 137.323 261.556 137.456 261.487 137.566C261.417 137.677 261.307 137.755 261.18 137.784C261.144 137.791 261.108 137.796 261.071 137.797Z" fill="#1D1E1B"/>
<path d="M333.028 210.371C332.946 210.371 332.864 210.351 332.791 210.312C332.68 210.25 332.597 210.146 332.56 210.024C332.523 209.901 332.536 209.769 332.594 209.655C341.701 192.963 337.849 174.189 337.819 174.015C337.8 173.891 337.83 173.764 337.901 173.661C337.973 173.557 338.081 173.485 338.204 173.459C338.327 173.433 338.455 173.455 338.563 173.521C338.67 173.586 338.748 173.69 338.781 173.811C338.821 174.002 342.745 193.104 333.458 210.128C333.415 210.203 333.352 210.266 333.276 210.308C333.201 210.351 333.115 210.373 333.028 210.371Z" fill="#1D1E1B"/>
<path d="M90.4855 192.382C90.4078 192.382 90.3311 192.364 90.262 192.328C90.1929 192.293 90.1333 192.241 90.0882 192.178C83.2642 182.757 82.6893 174.094 83.4084 168.488C84.1867 162.403 86.5578 158.6 86.6596 158.439C86.7333 158.338 86.8425 158.269 86.9653 158.246C87.0881 158.222 87.2153 158.246 87.3209 158.313C87.4266 158.38 87.503 158.484 87.5345 158.605C87.566 158.726 87.5503 158.855 87.4906 158.965C87.4676 159.004 85.1227 162.777 84.3773 168.659C83.6942 174.081 84.2657 182.451 90.8861 191.6C90.9622 191.707 90.9933 191.839 90.9723 191.968C90.9514 192.097 90.8803 192.213 90.7745 192.29C90.6903 192.35 90.5892 192.382 90.4855 192.382Z" fill="#1D1E1B"/>
<path d="M219.855 81.1886C219.814 81.1931 219.772 81.1931 219.73 81.1886C219.604 81.1554 219.496 81.0735 219.431 80.9608C219.365 80.8481 219.346 80.7139 219.379 80.5876L222.361 69.3238C222.395 69.1975 222.477 69.0897 222.59 69.0241C222.703 68.9585 222.837 68.9405 222.964 68.974C223.09 69.0076 223.198 69.0899 223.263 69.2029C223.329 69.3159 223.347 69.4504 223.313 69.5766L220.331 80.8372C220.302 80.94 220.239 81.0301 220.153 81.0937C220.067 81.1572 219.962 81.1906 219.855 81.1886Z" fill="#1D1E1B"/>
<path d="M225.487 83.5072C225.419 83.5076 225.352 83.4935 225.289 83.4657C225.227 83.438 225.171 83.3972 225.126 83.3463C225.082 83.2986 225.048 83.2428 225.026 83.182C225.004 83.1213 224.994 83.0567 224.997 82.9921C224.999 82.9274 225.015 82.8639 225.042 82.8053C225.069 82.7466 225.108 82.6938 225.156 82.6501L232.774 75.6948C232.873 75.6243 232.993 75.5925 233.114 75.6053C233.234 75.6182 233.345 75.6749 233.426 75.7646C233.507 75.8543 233.553 75.9707 233.554 76.0917C233.554 76.2126 233.511 76.3297 233.431 76.4205L225.816 83.3955C225.723 83.4716 225.607 83.5113 225.487 83.5072Z" fill="#1D1E1B"/>
<path d="M116.821 288.638L116.816 289.623L295.186 290.495L295.191 289.51L116.821 288.638Z" fill="#1D1E1B"/>
<path d="M137.461 297.638H92.4883V298.623H137.461V297.638Z" fill="#1D1E1B"/>
<path d="M101.356 153.671C101.227 153.671 101.101 153.633 100.993 153.562C100.885 153.49 100.801 153.388 100.75 153.269C100.7 153.15 100.687 153.018 100.711 152.891C100.735 152.764 100.796 152.647 100.887 152.555C105.574 147.931 110.68 143.753 116.14 140.076C127.917 132.224 137.926 129.518 145.886 132.03C145.968 132.056 146.045 132.098 146.111 132.153C146.177 132.209 146.232 132.277 146.272 132.353C146.312 132.43 146.336 132.513 146.344 132.599C146.352 132.685 146.342 132.772 146.316 132.854C146.291 132.937 146.249 133.013 146.193 133.079C146.138 133.146 146.07 133.2 145.994 133.24C145.917 133.28 145.833 133.305 145.747 133.312C145.661 133.32 145.575 133.311 145.492 133.285C127.375 127.564 102.079 153.218 101.816 153.477C101.695 153.6 101.529 153.67 101.356 153.671Z" fill="white"/>
<path d="M258.98 167.464C258.886 167.464 258.793 167.444 258.708 167.405C240.318 159.021 221.393 158.601 221.206 158.597C221.031 158.595 220.865 158.523 220.744 158.398C220.623 158.273 220.556 158.105 220.559 157.931C220.561 157.756 220.633 157.59 220.758 157.469C220.883 157.348 221.051 157.281 221.225 157.284C221.419 157.284 240.627 157.714 259.253 166.209C259.389 166.272 259.501 166.379 259.568 166.513C259.635 166.647 259.654 166.8 259.622 166.947C259.591 167.093 259.51 167.224 259.393 167.319C259.276 167.413 259.13 167.464 258.98 167.464Z" fill="white"/>
<defs>
<filter id="filter0_d_14204_90551" x="-4.02115" y="107.785" width="38.6868" height="38.6839" filterUnits="userSpaceOnUse" color-interpolation-filters="sRGB">
<feFlood flood-opacity="0" result="BackgroundImageFix"/>
<feColorMatrix in="SourceAlpha" type="matrix" values="0 0 0 0 0 0 0 0 0 0 0 0 0 0 0 0 0 0 127 0" result="hardAlpha"/>
<feOffset dy="2.03704"/>
<feGaussianBlur stdDeviation="5.09261"/>
<feComposite in2="hardAlpha" operator="out"/>
<feColorMatrix type="matrix" values="0 0 0 0 0 0 0 0 0 0 0 0 0 0 0 0 0 0 0.05 0"/>
<feBlend mode="normal" in2="BackgroundImageFix" result="effect1_dropShadow_14204_90551"/>
<feBlend mode="normal" in="SourceGraphic" in2="effect1_dropShadow_14204_90551" result="shape"/>
</filter>
<filter id="filter1_d_14204_90551" x="370.651" y="165.21" width="38.6868" height="38.6883" filterUnits="userSpaceOnUse" color-interpolation-filters="sRGB">
<feFlood flood-opacity="0" result="BackgroundImageFix"/>
<feColorMatrix in="SourceAlpha" type="matrix" values="0 0 0 0 0 0 0 0 0 0 0 0 0 0 0 0 0 0 127 0" result="hardAlpha"/>
<feOffset dy="2.03704"/>
<feGaussianBlur stdDeviation="5.09261"/>
<feComposite in2="hardAlpha" operator="out"/>
<feColorMatrix type="matrix" values="0 0 0 0 0 0 0 0 0 0 0 0 0 0 0 0 0 0 0.05 0"/>
<feBlend mode="normal" in2="BackgroundImageFix" result="effect1_dropShadow_14204_90551"/>
<feBlend mode="normal" in="SourceGraphic" in2="effect1_dropShadow_14204_90551" result="shape"/>
</filter>
<linearGradient id="paint0_linear_14204_90551" x1="20.4527" y1="112.038" x2="392.051" y2="200.547" gradientUnits="userSpaceOnUse">
<stop stop-color="#CDD5E2"/>
<stop offset="1" stop-color="#CDD5E2" stop-opacity="0"/>
</linearGradient>
<linearGradient id="paint1_linear_14204_90551" x1="391.411" y1="195.437" x2="353.85" y2="294.044" gradientUnits="userSpaceOnUse">
<stop stop-color="#CDD5E2"/>
<stop offset="1" stop-color="#CDD5E2" stop-opacity="0"/>
</linearGradient>
<linearGradient id="paint2_linear_14204_90551" x1="196.502" y1="23.2607" x2="196.502" y2="365.006" gradientUnits="userSpaceOnUse">
<stop stop-color="#CDD5E2"/>
<stop offset="1" stop-color="#CDD5E2" stop-opacity="0"/>
</linearGradient>
<linearGradient id="paint3_linear_14204_90551" x1="196.503" y1="57.4336" x2="196.503" y2="330.83" gradientUnits="userSpaceOnUse">
<stop stop-color="#CDD5E2"/>
<stop offset="1" stop-color="#CDD5E2" stop-opacity="0"/>
</linearGradient>
</defs>
</svg>
