<svg width="406" height="302" viewBox="0 0 406 302" fill="none" xmlns="http://www.w3.org/2000/svg">
<mask id="mask0_14083_92770" style="mask-type:alpha" maskUnits="userSpaceOnUse" x="0" y="0" width="406" height="302">
<rect width="405.823" height="301.875" fill="#D9D9D9"/>
</mask>
<g mask="url(#mask0_14083_92770)">
<g opacity="0.5">
<mask id="path-2-inside-1_14083_92770" fill="white">
<path d="M389.979 202.565C391.995 156.308 377.371 110.86 348.759 74.4588C320.146 38.0574 279.439 13.1119 234.015 4.14415C188.592 -4.82363 141.458 2.77982 101.159 25.5762C60.859 48.3727 30.0607 84.8533 14.3462 128.405L15.1858 128.708C30.8279 85.357 61.4843 49.0446 101.598 26.3532C141.712 3.66186 188.628 -3.90654 233.842 5.0199C279.057 13.9463 319.576 38.7768 348.057 75.0104C376.537 111.244 391.094 156.483 389.087 202.526L389.979 202.565Z"/>
</mask>
<path d="M389.979 202.565C391.995 156.308 377.371 110.86 348.759 74.4588C320.146 38.0574 279.439 13.1119 234.015 4.14415C188.592 -4.82363 141.458 2.77982 101.159 25.5762C60.859 48.3727 30.0607 84.8533 14.3462 128.405L15.1858 128.708C30.8279 85.357 61.4843 49.0446 101.598 26.3532C141.712 3.66186 188.628 -3.90654 233.842 5.0199C279.057 13.9463 319.576 38.7768 348.057 75.0104C376.537 111.244 391.094 156.483 389.087 202.526L389.979 202.565Z" stroke="url(#paint0_linear_14083_92770)" stroke-width="2.84788" stroke-dasharray="4.27 4.27" mask="url(#path-2-inside-1_14083_92770)"/>
</g>
<g opacity="0.5">
<mask id="path-3-inside-2_14083_92770" fill="white">
<path d="M14.6043 260.572C30.4892 304.063 61.4301 340.422 101.819 363.061C142.207 385.699 189.37 393.118 234.758 383.973C280.146 374.827 320.756 349.723 349.225 313.21C377.695 276.697 392.141 231.192 389.944 184.943L389.052 184.986C391.239 231.021 376.86 276.316 348.521 312.661C320.183 349.006 279.761 373.994 234.582 383.098C189.403 392.201 142.457 384.816 102.255 362.282C62.0527 339.748 31.2544 303.556 15.4428 260.266L14.6043 260.572Z"/>
</mask>
<path d="M14.6043 260.572C30.4892 304.063 61.4301 340.422 101.819 363.061C142.207 385.699 189.37 393.118 234.758 383.973C280.146 374.827 320.756 349.723 349.225 313.21C377.695 276.697 392.141 231.192 389.944 184.943L389.052 184.986C391.239 231.021 376.86 276.316 348.521 312.661C320.183 349.006 279.761 373.994 234.582 383.098C189.403 392.201 142.457 384.816 102.255 362.282C62.0527 339.748 31.2544 303.556 15.4428 260.266L14.6043 260.572Z" stroke="url(#paint1_linear_14083_92770)" stroke-width="2.84788" stroke-dasharray="4.27 4.27" mask="url(#path-3-inside-2_14083_92770)"/>
</g>
<circle opacity="0.08" cx="196.502" cy="194.133" r="170.873" fill="url(#paint2_linear_14083_92770)"/>
<circle opacity="0.1" cx="196.505" cy="194.132" r="136.698" fill="url(#paint3_linear_14083_92770)"/>
<circle cx="196.505" cy="194.134" r="91.1321" fill="white"/>
<g filter="url(#filter0_d_14083_92770)">
<circle cx="15.3224" cy="125.09" r="7.11969" transform="rotate(-2.50406 15.3224 125.09)" fill="#0170FF"/>
<circle cx="15.3224" cy="125.09" r="8.13822" transform="rotate(-2.50406 15.3224 125.09)" stroke="white" stroke-width="2.03704"/>
</g>
<g filter="url(#filter1_d_14083_92770)">
<circle cx="389.993" cy="182.517" r="7.11969" transform="rotate(-15.7345 389.993 182.517)" fill="#0170FF"/>
<circle cx="389.993" cy="182.517" r="8.13822" transform="rotate(-15.7345 389.993 182.517)" stroke="white" stroke-width="2.03704"/>
</g>
</g>
<path d="M320.021 289.14H84.6555C84.4926 289.14 84.3363 289.075 84.2211 288.96C84.1058 288.844 84.041 288.688 84.041 288.525C84.041 288.362 84.1058 288.206 84.2211 288.091C84.3363 287.975 84.4926 287.911 84.6555 287.911H320.021C320.184 287.911 320.34 287.975 320.455 288.091C320.571 288.206 320.635 288.362 320.635 288.525C320.635 288.688 320.571 288.844 320.455 288.96C320.34 289.075 320.184 289.14 320.021 289.14Z" fill="black"/>
<path d="M95.4104 298.972H60.3821C60.2191 298.972 60.0629 298.907 59.9476 298.792C59.8324 298.677 59.7676 298.521 59.7676 298.358C59.7676 298.195 59.8324 298.038 59.9476 297.923C60.0629 297.808 60.2191 297.743 60.3821 297.743H95.4104C95.5734 297.743 95.7296 297.808 95.8449 297.923C95.9601 298.038 96.0249 298.195 96.0249 298.358C96.0249 298.521 95.9601 298.677 95.8449 298.792C95.7296 298.907 95.5734 298.972 95.4104 298.972Z" fill="black"/>
<path d="M341.838 298.972H297.284C297.121 298.972 296.965 298.907 296.85 298.792C296.735 298.677 296.67 298.521 296.67 298.358C296.67 298.195 296.735 298.038 296.85 297.923C296.965 297.808 297.121 297.743 297.284 297.743H341.838C342.001 297.743 342.157 297.808 342.272 297.923C342.388 298.038 342.452 298.195 342.452 298.358C342.452 298.521 342.388 298.677 342.272 298.792C342.157 298.907 342.001 298.972 341.838 298.972Z" fill="black"/>
<path d="M279.769 288.833H129.209C122.237 252.305 121.128 217.725 129.209 186.206H279.769C289.438 215.704 289.438 249.912 279.769 288.833Z" fill="#4BD657"/>
<path d="M280.129 289.294H128.829L128.758 288.919C121.19 249.263 121.19 215.627 128.758 186.092L128.847 185.745H280.099L280.203 186.052C285.03 200.78 287.479 216.902 287.479 233.986C287.479 251.07 285.021 269.536 280.212 288.943L280.129 289.294ZM129.591 288.372H279.41C288.892 249.997 288.902 215.786 279.435 186.667H129.569C122.142 215.894 122.143 249.171 129.591 288.372Z" fill="#1D1E1B"/>
<path d="M89.7266 161.471C89.7266 161.471 119.252 169.768 129.262 185.131L148.261 178.371C148.261 178.371 144.924 163.929 118.994 150.103L89.7266 161.471Z" fill="#4BD657"/>
<path d="M129.075 185.687L128.876 185.38C119.074 170.324 89.8959 161.994 89.6009 161.911L88.2734 161.539L119.025 149.592L119.212 149.694C132.68 156.875 139.971 164.231 143.717 169.138C147.806 174.496 148.676 178.113 148.71 178.263L148.802 178.663L129.075 185.687ZM91.1402 161.413C96.9168 163.223 120.499 171.264 129.447 184.571L147.696 178.079C146.924 175.694 141.858 162.866 118.963 150.606L91.1402 161.413Z" fill="#1D1E1B"/>
<path d="M319.407 161.471C319.407 161.471 289.882 169.767 279.871 185.13L260.873 178.37C260.873 178.37 264.21 163.929 290.14 150.102L319.407 161.471Z" fill="#4BD657"/>
<path d="M280.059 185.687L260.332 178.666L260.424 178.266C260.458 178.116 261.328 174.499 265.417 169.14C269.163 164.224 276.454 156.877 289.922 149.697L290.109 149.595L320.86 161.542L319.533 161.913C319.226 161.996 290.06 170.342 280.258 185.382L280.059 185.687ZM261.438 178.082L279.687 184.574C288.634 171.267 312.217 163.225 317.994 161.416L290.17 150.609C267.285 162.854 262.209 175.694 261.438 178.082Z" fill="#1D1E1B"/>
<path d="M129.363 185.131L148.414 178.985H260.873L279.923 185.131H129.363Z" fill="#050505"/>
<path d="M186.822 245.508C188.604 245.508 190.048 244.064 190.048 242.282C190.048 240.5 188.604 239.056 186.822 239.056C185.04 239.056 183.596 240.5 183.596 242.282C183.596 244.064 185.04 245.508 186.822 245.508Z" fill="#050505"/>
<path d="M203.722 245.508C205.504 245.508 206.949 244.064 206.949 242.282C206.949 240.5 205.504 239.056 203.722 239.056C201.941 239.056 200.496 240.5 200.496 242.282C200.496 244.064 201.941 245.508 203.722 245.508Z" fill="#050505"/>
<path d="M220.314 245.508C222.096 245.508 223.54 244.064 223.54 242.282C223.54 240.5 222.096 239.056 220.314 239.056C218.532 239.056 217.088 240.5 217.088 242.282C217.088 244.064 218.532 245.508 220.314 245.508Z" fill="#050505"/>
<path d="M271.013 281.458C270.745 281.458 270.481 281.395 270.243 281.273C270.004 281.151 269.798 280.974 269.641 280.757C269.485 280.539 269.382 280.288 269.342 280.023C269.301 279.758 269.324 279.488 269.409 279.233C278.35 252.409 277.88 230.913 275.908 217.602C273.787 203.271 269.563 195.221 269.523 195.144C269.412 194.948 269.34 194.732 269.314 194.508C269.288 194.284 269.307 194.057 269.37 193.84C269.433 193.623 269.538 193.422 269.68 193.246C269.822 193.071 269.998 192.926 270.197 192.82C270.396 192.714 270.614 192.648 270.838 192.628C271.063 192.607 271.289 192.632 271.504 192.7C271.719 192.768 271.918 192.879 272.09 193.025C272.261 193.172 272.402 193.351 272.503 193.553C272.687 193.9 277.044 202.202 279.263 217.107C281.285 230.781 281.776 252.846 272.626 280.303C272.513 280.641 272.296 280.934 272.006 281.142C271.717 281.349 271.369 281.46 271.013 281.458Z" fill="white"/>
<path d="M135.816 284.531C135.514 284.531 135.216 284.45 134.956 284.296C134.695 284.142 134.481 283.92 134.335 283.655C125.6 267.745 127.575 227.02 127.677 225.296C127.688 225.074 127.743 224.857 127.839 224.656C127.934 224.455 128.068 224.275 128.233 224.126C128.398 223.977 128.59 223.862 128.8 223.788C129.009 223.713 129.231 223.681 129.453 223.692C129.675 223.703 129.892 223.758 130.093 223.854C130.294 223.949 130.474 224.083 130.623 224.248C130.771 224.413 130.887 224.605 130.961 224.815C131.035 225.024 131.068 225.246 131.057 225.468C131.035 225.883 129.029 266.949 137.303 282.026C137.445 282.284 137.517 282.574 137.512 282.867C137.508 283.161 137.427 283.448 137.277 283.701C137.128 283.954 136.915 284.163 136.66 284.309C136.405 284.454 136.116 284.531 135.822 284.531H135.816Z" fill="white"/>
<path d="M187.763 85.6166C187.763 85.6166 177.838 90.5697 175.82 82.6576C173.801 74.7455 169.643 57.7692 157.319 59.8033C144.995 61.8374 143.609 64.0743 139.295 56.4233C134.981 48.7724 103.726 49.7279 109.49 73.6977C118.939 112.985 189.422 109.196 189.422 109.196L191.075 100.101L187.763 85.6166Z" fill="#382256"/>
<path d="M184.564 109.74C178.001 109.74 165.667 109.31 152.916 106.618C141.943 104.304 132.796 100.799 125.726 96.1926C116.846 90.4099 111.238 82.8727 109.053 73.793C107.791 68.5418 108.187 64.0251 110.233 60.3686C111.963 57.2959 114.894 54.8562 118.711 53.3599C126.583 50.2657 137.18 51.6914 139.709 56.1836C143.052 62.123 144.318 61.868 151.385 60.4454C153.054 60.1105 154.947 59.7295 157.257 59.3485C169.855 57.2776 174.157 74.1341 176.206 82.2398L176.283 82.5471C176.738 84.3323 177.66 85.5551 179.024 86.1789C182.419 87.7337 187.523 85.2325 187.572 85.2079L188.097 84.9468L191.56 100.08L191.542 100.175L189.824 109.629L189.462 109.648C189.391 109.648 187.59 109.74 184.564 109.74ZM127.763 52.6194C124.78 52.6073 121.821 53.149 119.036 54.2171C114.341 56.0607 106.918 61.0292 109.938 73.5749C114.759 93.6301 136.056 102.12 153.075 105.709C170.095 109.298 186.417 108.84 189.025 108.738L190.592 100.095L187.431 86.268C185.962 86.904 181.768 88.4526 178.618 87.0116C176.987 86.2649 175.893 84.8392 175.364 82.7682L175.287 82.4609C173.29 74.6226 169.142 58.31 157.383 60.2519C155.088 60.6298 153.204 61.0077 151.545 61.3426C144.478 62.7714 142.561 63.1554 138.886 56.6322C137.549 54.2509 132.986 52.6194 127.763 52.6194Z" fill="black"/>
<path d="M150.855 185.899C150.855 185.899 143.339 133.526 167.312 117.686C174.634 112.847 186.669 126.422 200.496 126.904C216.262 127.454 231.558 113.384 240.133 117.379C274.086 133.228 255.995 185.899 255.995 185.899H150.855Z" fill="#07ACEE"/>
<path d="M256.433 186.513H150.319L150.246 185.985C149.087 176.598 148.831 167.122 149.48 157.686C150.132 148.876 151.671 141.18 154.05 134.813C157.045 126.793 161.393 120.86 166.973 117.173C171.177 114.407 176.606 117.148 182.887 120.335C188.19 123.023 194.2 126.071 200.517 126.289C208.178 126.557 215.791 123.281 222.518 120.39C229.646 117.317 235.804 114.681 240.394 116.822C248.279 120.51 254.034 126.461 257.5 134.53C260.265 140.949 261.574 148.71 261.411 157.594C261.132 172.665 256.621 185.966 256.575 186.099L256.433 186.513ZM151.392 185.284H255.555C256.311 182.934 259.945 170.944 260.188 157.544C260.545 137.72 253.714 124.394 239.878 117.935C235.788 116.024 229.867 118.571 223.009 121.518C216.151 124.464 208.396 127.792 200.481 127.518C193.89 127.288 187.754 124.175 182.337 121.428C176.397 118.417 171.275 115.815 167.655 118.199C155.485 126.24 151.724 144.148 150.713 157.756C150.085 166.934 150.312 176.149 151.392 185.284Z" fill="#1D1D1B"/>
<path d="M192.968 125.475C192.968 125.475 186.516 127.057 191.125 131.974C195.734 136.89 202.186 132.588 202.186 132.588C202.186 132.588 209.253 136.583 214.169 132.588C219.086 128.594 212.94 124.827 212.94 124.827C212.94 124.827 207.717 128.806 192.968 125.475Z" fill="white"/>
<path d="M208.866 134.837C205.793 134.837 203.028 133.547 202.201 133.12C200.951 133.851 195.094 136.881 190.79 132.29C189.296 130.699 188.737 129.239 189.121 127.946C189.754 125.795 192.731 125.057 192.857 125.027L192.965 125.002L193.07 125.023C207.44 128.274 212.611 124.498 212.664 124.458L212.916 124.268L213.183 124.434C213.312 124.513 216.354 126.406 216.529 129.064C216.621 130.45 215.915 131.756 214.461 132.945C212.876 134.213 210.896 134.883 208.866 134.837ZM202.164 132.048L202.414 132.186C202.481 132.226 209.268 135.977 213.877 132.232C215.107 131.239 215.678 130.198 215.611 129.125C215.494 127.331 213.616 125.853 212.94 125.38C211.662 126.154 206.002 128.867 192.968 125.948C192.486 126.09 190.418 126.766 189.991 128.21C189.708 129.165 190.2 130.327 191.447 131.657C195.73 136.226 201.667 132.37 201.919 132.204L202.164 132.048Z" fill="#1D1D1B"/>
<path d="M196.809 114.306C196.809 114.306 198.038 123.831 194.658 128.133C194.658 128.133 201.418 133.357 209.714 128.133C209.714 128.133 204.491 117.379 206.027 114.306C207.563 111.233 196.809 114.306 196.809 114.306Z" fill="#FFCDB2"/>
<path d="M202.159 130.898C199.383 130.894 196.672 130.058 194.376 128.499L194.01 128.213L194.296 127.847C197.516 123.748 196.363 114.46 196.351 114.365L196.302 113.971L196.683 113.864C198.646 113.301 205.148 111.587 206.396 113.089C206.611 113.348 206.792 113.805 206.439 114.512C205.262 116.866 208.703 124.996 210.126 127.93L210.307 128.302L209.957 128.523C207.13 130.305 204.46 130.898 202.159 130.898ZM195.31 128.026C196.772 128.981 202.343 132.02 209.118 127.958C208.101 125.807 204.137 117.053 205.615 114.1C205.674 113.98 205.763 113.768 205.686 113.679C205.114 112.988 200.972 113.633 197.31 114.644C197.503 116.472 198.084 123.967 195.31 128.026Z" fill="#1D1D1B"/>
<path d="M185.439 60.8694C185.303 60.8696 185.17 60.8245 185.062 60.7411C184.954 60.6576 184.877 60.5406 184.843 60.4085C182.79 52.3581 190.782 48.6218 190.865 48.5849C190.939 48.5516 191.018 48.5332 191.099 48.5306C191.18 48.528 191.261 48.5414 191.336 48.5699C191.412 48.5984 191.481 48.6417 191.54 48.697C191.599 48.7523 191.646 48.8185 191.679 48.8922C191.713 48.9658 191.731 49.0453 191.734 49.1261C191.736 49.2068 191.723 49.2874 191.694 49.363C191.666 49.4386 191.623 49.5078 191.568 49.5667C191.512 49.6256 191.446 49.6731 191.372 49.7064C191.065 49.8447 184.238 53.0649 186.035 60.1044C186.055 60.1826 186.059 60.264 186.048 60.344C186.036 60.4239 186.009 60.5007 185.967 60.57C185.926 60.6394 185.871 60.6998 185.806 60.748C185.742 60.7962 185.668 60.8312 185.59 60.8509C185.541 60.8644 185.49 60.8706 185.439 60.8694Z" fill="#1D1D1B"/>
<path d="M199.997 75.7503C206.71 75.7503 212.153 70.3081 212.153 63.5949C212.153 56.8816 206.71 51.4395 199.997 51.4395C193.284 51.4395 187.842 56.8816 187.842 63.5949C187.842 70.3081 193.284 75.7503 199.997 75.7503Z" fill="#382256"/>
<path d="M200.004 76.2048H199.813C197.319 76.1671 194.891 75.3907 192.837 73.9737C190.784 72.5567 189.196 70.5628 188.275 68.2438C187.355 65.9249 187.142 63.385 187.664 60.9452C188.187 58.5055 189.421 56.2752 191.21 54.5365C192.693 53.0969 194.506 52.0436 196.492 51.4692C198.477 50.8948 200.573 50.817 202.595 51.2424C204.617 51.6678 206.504 52.5835 208.09 53.909C209.676 55.2345 210.911 56.9293 211.688 58.8442C212.466 60.7591 212.76 62.8356 212.547 64.8912C212.334 66.9468 211.618 68.9185 210.464 70.6329C209.311 72.3474 207.753 73.7522 205.929 74.7237C204.105 75.6953 202.071 76.2039 200.004 76.2048ZM200.004 51.894C196.902 51.872 193.919 53.0829 191.71 55.2605C189.501 57.4381 188.248 60.4039 188.226 63.5055C188.204 66.6071 189.415 69.5904 191.593 71.7991C193.77 74.0079 196.736 75.261 199.838 75.283H200.01C203.081 75.2802 206.027 74.0706 208.214 71.9151C210.401 69.7596 211.654 66.831 211.701 63.7606C211.746 60.6591 210.558 57.6668 208.397 55.4415C206.237 53.2162 203.28 51.9401 200.179 51.894H200.004Z" fill="#1D1E1B"/>
<path d="M212.081 68.7447C207.236 59.834 193.529 61.5423 190.026 65.3831C181.318 74.9268 172.936 70.2442 171.283 80.5806C170.456 85.7703 175.044 87.8198 172.819 97.3204C171.667 102.218 179.886 109.857 187.402 109.967C194.917 110.078 220.553 110.732 222.707 105.236C224.861 99.7385 233.316 90.6097 226.566 80.0121C219.735 69.2978 214.18 72.6101 212.081 68.7447Z" fill="#382256"/>
<path d="M194.851 110.502C192.7 110.502 190.531 110.478 188.42 110.444L187.391 110.428C182.115 110.351 176.965 106.793 174.412 103.521C172.664 101.278 171.935 99.0379 172.365 97.2158C173.659 91.725 172.627 88.8122 171.717 86.2404C171.081 84.4429 170.488 82.7436 170.835 80.5098C171.791 74.515 174.965 73.3261 178.984 71.8235C182.216 70.6129 185.879 69.2425 189.686 65.0637C191.852 62.6885 197.14 61.3396 201.977 61.9295C206.758 62.5103 210.488 64.8516 212.479 68.5173C213.192 69.8232 214.365 70.2165 215.988 70.7573C218.787 71.6944 222.622 72.9726 226.942 79.7539C232.417 88.3574 228.189 95.9561 225.098 101.511C224.361 102.764 223.702 104.061 223.126 105.395C221.47 109.648 208.177 110.502 194.851 110.502ZM199.648 62.7223C195.49 62.7223 191.821 64.0988 190.368 65.6935C186.411 70.029 182.471 71.5038 179.307 72.6868C175.423 74.1402 172.614 75.188 171.745 80.6543C171.437 82.6576 171.963 84.1756 172.587 85.9331C173.539 88.6217 174.618 91.6728 173.263 97.4248C172.897 98.9612 173.57 100.937 175.137 102.956C177.561 106.062 182.431 109.436 187.403 109.51L188.432 109.525C196.32 109.654 220.326 110.038 222.274 105.073C222.865 103.7 223.542 102.366 224.299 101.078C227.277 95.7257 231.366 88.3974 226.171 80.264C222.026 73.7592 218.372 72.5394 215.702 71.6606C214.015 71.0983 212.559 70.6128 211.677 68.9843C209.833 65.586 206.349 63.4166 201.872 62.8728C201.134 62.7773 200.391 62.7271 199.648 62.7223Z" fill="#1D1E1B"/>
<path d="M204.045 88.9568C197.838 89.9185 189.72 86.766 188.178 88.8738C186.635 90.9816 187.563 93.9836 190.829 94.8962C194.095 95.8088 197.417 95.8917 204.198 95.7381C210.98 95.5844 217.611 94.9299 217.045 91.2766C216.48 87.6232 213.174 87.5403 204.045 88.9568Z" fill="#FFB49F"/>
<path d="M200.72 71.0674C198.173 80.6541 188.411 84.9252 183.117 85.3308C181.916 88.2467 182.447 92.2166 182.398 95.6641C182.21 108.326 188.982 117.59 201.141 116.939C213.017 116.303 219.347 109.608 219.414 95.6548C219.414 92.3609 219.608 89.0978 218.588 86.2526C208.519 86.0621 200.72 71.0674 200.72 71.0674Z" fill="#FFCDB2"/>
<path d="M199.976 117.431C195.22 117.431 191.102 115.876 188.008 112.898C183.986 109.03 181.829 102.906 181.936 95.6578C181.936 94.8036 181.937 93.8942 181.9 93.0123C181.829 90.2685 181.752 87.4323 182.689 85.1555L182.797 84.8913L183.08 84.8698C188.801 84.4304 197.914 79.8214 200.287 70.9476L200.594 69.7983L201.144 70.8523C201.221 70.9998 208.933 85.6011 218.618 85.7916H218.925L219.033 86.0989C219.955 88.683 219.927 91.6296 219.896 94.4841C219.896 94.8744 219.896 95.2675 219.896 95.6608C219.862 102.636 218.24 107.998 215.072 111.599C211.975 115.123 207.301 117.074 201.187 117.403C200.772 117.421 200.369 117.431 199.976 117.431ZM183.442 85.7638C182.683 87.8256 182.754 90.4497 182.828 92.9877C182.852 93.8788 182.877 94.7975 182.865 95.6701C182.763 102.664 184.819 108.544 188.653 112.235C191.818 115.28 196.132 116.748 201.132 116.478C213.069 115.842 218.904 109.03 218.968 95.6547C218.968 95.2583 218.968 94.8651 218.968 94.4718C218.999 91.6911 219.026 89.0547 218.258 86.7011C209.581 86.2771 202.769 75.5934 200.843 72.2596C197.887 81.1703 188.853 85.2323 183.442 85.7638Z" fill="#1D1D1B"/>
<path d="M202.774 89.691C195.381 90.92 185.659 87.2328 183.843 89.7801C182.027 92.3273 183.152 95.8793 187.079 96.9302C191.006 97.981 194.948 98.0424 203.038 97.7781C211.129 97.5139 219.016 96.6567 218.309 92.3089C217.603 87.9611 213.648 87.8812 202.774 89.691Z" fill="#FFB49F"/>
<path d="M200.425 100.949C200.365 100.948 200.305 100.935 200.25 100.911C200.194 100.888 200.144 100.853 200.101 100.81C200.059 100.766 200.026 100.715 200.003 100.659C199.981 100.602 199.97 100.542 199.971 100.482L200.115 90.5357C200.117 90.4151 200.167 90.3002 200.253 90.2157C200.34 90.1313 200.455 90.084 200.576 90.084C200.636 90.0848 200.696 90.0975 200.752 90.1215C200.807 90.1454 200.857 90.1801 200.899 90.2235C200.941 90.2669 200.974 90.3182 200.996 90.3744C201.018 90.4307 201.029 90.4907 201.028 90.551L200.883 100.494C200.882 100.615 200.833 100.73 200.747 100.815C200.662 100.9 200.546 100.948 200.425 100.949Z" fill="black"/>
<path d="M191.673 60.2457C191.562 60.2463 191.452 60.2221 191.351 60.1751C191.167 60.089 191.024 59.9337 190.955 59.7431C190.885 59.5526 190.894 59.3423 190.979 59.158C191.083 58.9337 193.606 53.6273 200.504 53.2739C200.708 53.2637 200.907 53.3348 201.058 53.4717C201.21 53.6085 201.3 53.7999 201.311 54.0037C201.321 54.2074 201.249 54.4068 201.113 54.558C200.976 54.7093 200.785 54.8001 200.581 54.8102C194.648 55.1175 192.472 59.6128 192.38 59.8033C192.317 59.9375 192.217 60.0506 192.092 60.1292C191.967 60.2077 191.821 60.2482 191.673 60.2457Z" fill="white"/>
<path d="M189.511 88.9258C188.441 88.9321 187.386 88.6746 186.439 88.1761C186.336 88.1161 186.261 88.0189 186.228 87.9047C186.196 87.7905 186.209 87.6682 186.264 87.5632C186.32 87.4583 186.413 87.3787 186.526 87.3412C186.639 87.3037 186.762 87.3111 186.869 87.3619C190.814 89.4421 195.383 85.7334 195.426 85.6965C195.473 85.655 195.527 85.6232 195.585 85.6031C195.644 85.5829 195.706 85.5748 195.768 85.5794C195.83 85.5839 195.891 85.6011 195.946 85.6296C196.001 85.6581 196.05 85.6975 196.09 85.7454C196.129 85.7933 196.159 85.8486 196.176 85.9082C196.194 85.9678 196.2 86.0304 196.192 86.0922C196.185 86.1539 196.166 86.2136 196.135 86.2676C196.104 86.3215 196.063 86.3688 196.013 86.4063C195.85 86.5385 192.907 88.9258 189.511 88.9258Z" fill="black"/>
<path d="M208.907 87.7397C207.276 87.7397 204.606 87.2143 202.455 84.2646C202.383 84.1655 202.354 84.0421 202.373 83.9214C202.392 83.8007 202.459 83.6925 202.558 83.6208C202.657 83.5491 202.78 83.5197 202.901 83.539C203.022 83.5583 203.13 83.6248 203.201 83.7238C206.117 87.749 209.961 86.735 210.14 86.6889C210.256 86.657 210.38 86.6711 210.485 86.7284C210.591 86.7856 210.671 86.8816 210.708 86.9962C210.742 87.1123 210.728 87.2369 210.671 87.3432C210.613 87.4495 210.516 87.5291 210.401 87.5647C209.912 87.685 209.411 87.7438 208.907 87.7397Z" fill="black"/>
<path d="M135.511 175.298C127.402 168.467 116.31 155.749 114.389 148.12C112.469 140.49 117.4 137.787 117.4 137.787L114.823 132.406L131.218 119.633L133.707 122.798C133.707 122.798 141.466 120.426 145.26 126.651C149.055 132.877 153.154 141.302 155.867 144.608C165.93 156.862 166.237 172.225 160.092 181.136C153.947 190.046 139.677 178.81 135.511 175.298Z" fill="#07ACEE"/>
<path d="M153.626 184.958C147.254 184.958 139.458 179.227 135.212 175.651C127.859 169.453 116.011 156.453 113.94 148.234C112.272 141.609 115.658 138.475 116.81 137.627L114.407 132.606C114.362 132.511 114.351 132.404 114.375 132.302C114.399 132.2 114.457 132.109 114.539 132.044L130.935 119.271C131.032 119.197 131.153 119.164 131.274 119.179C131.394 119.194 131.504 119.255 131.58 119.351L133.885 122.276C135.421 121.91 142.159 120.678 145.653 126.412C147.122 128.824 148.633 131.558 150.096 134.204C152.406 138.376 154.585 142.319 156.223 144.316C166.863 157.273 166.415 172.778 160.469 181.397C159.852 182.344 159.036 183.146 158.078 183.746C157.12 184.346 156.042 184.731 154.92 184.872C154.491 184.93 154.059 184.959 153.626 184.958ZM115.399 132.542L117.815 137.587C117.868 137.694 117.878 137.818 117.842 137.933C117.806 138.048 117.727 138.144 117.621 138.201C117.434 138.306 113.031 140.853 114.834 148.019C116.767 155.7 128.255 168.605 135.808 174.953C139.95 178.447 147.542 184.045 153.605 184.045C154.003 184.046 154.402 184.021 154.797 183.969C155.79 183.843 156.744 183.503 157.593 182.972C158.441 182.442 159.165 181.733 159.713 180.896C165.459 172.56 165.859 157.544 155.51 144.921C153.82 142.86 151.62 138.883 149.291 134.671C147.831 132.034 146.326 129.306 144.863 126.912C141.308 121.074 134.146 123.167 133.842 123.259C133.753 123.286 133.659 123.286 133.571 123.258C133.483 123.231 133.404 123.178 133.347 123.105L131.138 120.303L115.399 132.542Z" fill="#1D1D1B"/>
<path d="M117.94 137.907C117.94 137.907 130.934 135.366 133.494 123.18L131.131 119.993L115.414 132.49L117.94 137.907Z" fill="#0598C6"/>
<path d="M156.259 160.863C157.227 160.863 158.011 160.078 158.011 159.111C158.011 158.144 157.227 157.36 156.259 157.36C155.292 157.36 154.508 158.144 154.508 159.111C154.508 160.078 155.292 160.863 156.259 160.863Z" fill="#51CEF4"/>
<path d="M171.316 135.359C172.283 135.359 173.067 134.575 173.067 133.608C173.067 132.64 172.283 131.856 171.316 131.856C170.349 131.856 169.564 132.64 169.564 133.608C169.564 134.575 170.349 135.359 171.316 135.359Z" fill="#51CEF4"/>
<path d="M203.886 152.566C204.854 152.566 205.638 151.782 205.638 150.815C205.638 149.848 204.854 149.063 203.886 149.063C202.919 149.063 202.135 149.848 202.135 150.815C202.135 151.782 202.919 152.566 203.886 152.566Z" fill="#51CEF4"/>
<path d="M228.466 135.359C229.434 135.359 230.218 134.575 230.218 133.608C230.218 132.64 229.434 131.856 228.466 131.856C227.499 131.856 226.715 132.64 226.715 133.608C226.715 134.575 227.499 135.359 228.466 135.359Z" fill="#51CEF4"/>
<path d="M228.466 174.382C229.434 174.382 230.218 173.598 230.218 172.631C230.218 171.663 229.434 170.879 228.466 170.879C227.499 170.879 226.715 171.663 226.715 172.631C226.715 173.598 227.499 174.382 228.466 174.382Z" fill="#51CEF4"/>
<path d="M187.908 183.908C188.875 183.908 189.659 183.123 189.659 182.156C189.659 181.189 188.875 180.405 187.908 180.405C186.94 180.405 186.156 181.189 186.156 182.156C186.156 183.123 186.94 183.908 187.908 183.908Z" fill="#51CEF4"/>
<path d="M184.835 158.404C185.803 158.404 186.587 157.62 186.587 156.653C186.587 155.685 185.803 154.901 184.835 154.901C183.868 154.901 183.084 155.685 183.084 156.653C183.084 157.62 183.868 158.404 184.835 158.404Z" fill="#51CEF4"/>
<path d="M226.009 157.79C226.977 157.79 227.761 157.006 227.761 156.038C227.761 155.071 226.977 154.287 226.009 154.287C225.042 154.287 224.258 155.071 224.258 156.038C224.258 157.006 225.042 157.79 226.009 157.79Z" fill="#51CEF4"/>
<path d="M138.414 165.456C139.381 165.456 140.165 164.672 140.165 163.705C140.165 162.737 139.381 161.953 138.414 161.953C137.446 161.953 136.662 162.737 136.662 163.705C136.662 164.672 137.446 165.456 138.414 165.456Z" fill="#51CEF4"/>
<path d="M139.58 140.417C140.547 140.417 141.331 139.633 141.331 138.665C141.331 137.698 140.547 136.914 139.58 136.914C138.612 136.914 137.828 137.698 137.828 138.665C137.828 139.633 138.612 140.417 139.58 140.417Z" fill="#51CEF4"/>
<path d="M88.9841 113.399C88.9841 113.399 88.3051 130.646 114.14 130.225C114.14 130.225 128.123 129.398 132.121 121.351L131.528 119.738C131.528 119.738 138.546 110.95 134.69 105.416C134.69 105.416 127.414 105.524 122.706 115.657C122.706 115.657 114.702 105.794 102.777 110.166C102.777 110.166 96.8777 109.036 95.8883 112.317C95.9006 112.323 92.5822 110.252 88.9841 113.399Z" fill="#FFCDB2"/>
<path d="M91.2576 112.01C92.0084 111.726 92.8113 111.607 93.6122 111.66C94.4131 111.713 95.1933 111.937 95.9002 112.317C96.2075 111.306 96.9757 110.713 97.8944 110.375C99.9623 109.62 102.789 110.16 102.789 110.16C114.714 105.788 122.718 115.651 122.718 115.651C125.637 109.352 129.552 106.928 132.099 105.994C132.928 105.668 133.801 105.471 134.689 105.41C138.546 110.941 131.528 119.732 131.528 119.732L132.121 121.345C130.388 124.832 126.777 126.965 123.244 128.261C120.307 129.306 117.246 129.964 114.14 130.219C88.3047 130.64 88.9837 113.393 88.9837 113.393C89.6497 112.794 90.4207 112.323 91.2576 112.004V112.01ZM90.9503 111.134C90.0054 111.492 89.1345 112.021 88.3815 112.695C88.2881 112.779 88.2126 112.88 88.1597 112.994C88.1069 113.108 88.0779 113.231 88.0742 113.356C88.1512 117.509 89.8301 121.473 92.76 124.418C97.2676 129.027 104.473 131.288 114.173 131.131H114.213C117.411 130.872 120.561 130.195 123.582 129.116C128.224 127.413 131.383 124.931 132.969 121.741C133.025 121.629 133.058 121.505 133.065 121.38C133.071 121.254 133.052 121.128 133.009 121.01L132.594 119.876C133.995 117.974 139.212 110.237 135.467 104.866C135.38 104.741 135.264 104.64 135.129 104.571C134.994 104.502 134.844 104.467 134.692 104.47C133.7 104.532 132.724 104.747 131.798 105.109C129.125 106.089 125.422 108.43 122.5 114.02C121.067 112.613 119.45 111.407 117.691 110.437C115.435 109.159 112.928 108.386 110.343 108.171C107.759 107.955 105.159 108.303 102.722 109.189C101.929 109.07 99.5136 108.787 97.5931 109.497C96.7313 109.784 95.9871 110.345 95.4732 111.094C94.0117 110.574 92.4136 110.585 90.9593 111.125L90.9503 111.134Z" fill="black"/>
<path d="M123.157 121.84H123.133C123.015 121.875 122.889 121.862 122.781 121.804C122.673 121.747 122.592 121.649 122.555 121.533C122.537 121.477 122.147 120.331 120.577 119.64C118.865 118.881 115.494 118.586 109.171 121.483C109.092 121.518 109.006 121.531 108.921 121.52C108.836 121.51 108.755 121.476 108.688 121.422C108.615 121.367 101.425 115.658 95.691 112.739C95.6349 112.712 95.5847 112.675 95.5434 112.628C95.5021 112.582 95.4707 112.528 95.4507 112.469C95.4306 112.41 95.4225 112.348 95.427 112.286C95.4314 112.225 95.448 112.164 95.4762 112.109C95.5043 112.054 95.5433 112.004 95.5908 111.964C95.6382 111.925 95.6933 111.894 95.7525 111.876C95.8118 111.858 95.8741 111.852 95.9359 111.858C95.9976 111.864 96.0575 111.882 96.112 111.912C101.357 114.582 107.773 119.529 109.042 120.516C114.265 118.168 118.293 117.597 120.994 118.81C122.942 119.689 123.422 121.201 123.452 121.268C123.487 121.383 123.476 121.507 123.421 121.614C123.366 121.721 123.271 121.802 123.157 121.84Z" fill="black"/>
<path d="M114.434 116.994C114.347 117.025 114.253 117.03 114.163 117.007C114.073 116.985 113.992 116.936 113.93 116.868C113.893 116.828 110.197 112.8 102.525 110.283C102.408 110.245 102.311 110.162 102.255 110.052C102.2 109.942 102.19 109.815 102.228 109.698C102.266 109.581 102.35 109.484 102.459 109.428C102.569 109.373 102.697 109.363 102.813 109.401C110.738 112.001 114.465 116.075 114.619 116.247C114.66 116.292 114.691 116.345 114.712 116.403C114.732 116.46 114.741 116.521 114.738 116.582C114.735 116.642 114.72 116.702 114.694 116.757C114.667 116.812 114.63 116.861 114.585 116.902C114.541 116.942 114.49 116.973 114.434 116.994Z" fill="black"/>
<path d="M112.886 128.329L112.781 128.36C102.982 130.087 94.8429 122.961 94.5018 122.657C94.3796 122.548 94.3055 122.395 94.296 122.232C94.2865 122.069 94.3423 121.908 94.4511 121.786C94.5599 121.664 94.7129 121.59 94.8763 121.58C95.0397 121.571 95.1999 121.626 95.3222 121.735C95.4021 121.806 103.366 128.768 112.566 127.143C112.721 127.109 112.884 127.137 113.019 127.22C113.154 127.303 113.252 127.436 113.292 127.59C113.332 127.744 113.31 127.907 113.232 128.045C113.154 128.184 113.025 128.287 112.873 128.332L112.886 128.329Z" fill="white"/>
<path d="M271.012 172.226C279.12 165.395 288.219 150.219 290.136 142.59C292.053 134.961 287.125 132.257 287.125 132.257L289.7 126.877L273.307 114.104L270.815 117.268C270.815 117.268 263.056 114.896 259.265 121.122C255.473 127.347 251.368 135.772 248.655 139.078C238.592 151.332 242.129 173.762 248.274 182.673C254.419 191.584 266.845 175.738 271.012 172.226Z" fill="#07ACEE"/>
<path d="M252.948 185.816C252.767 185.816 252.589 185.816 252.41 185.794C250.613 185.635 249.095 184.673 247.896 182.934C244.596 178.153 242.311 170.188 241.926 162.15C241.472 152.64 243.736 144.329 248.299 138.798C249.94 136.801 252.118 132.859 254.426 128.686C255.888 126.04 257.4 123.306 258.872 120.894C262.366 115.16 269.116 116.392 270.64 116.758L272.945 113.833C273.02 113.737 273.13 113.675 273.251 113.66C273.372 113.645 273.494 113.678 273.59 113.753L289.983 126.526C290.067 126.59 290.126 126.681 290.15 126.783C290.174 126.886 290.161 126.994 290.115 127.088L287.712 132.109C288.864 132.957 292.251 136.103 290.582 142.716C288.622 150.505 279.342 165.822 271.31 172.591L271.003 172.238L271.31 172.591C270.585 173.206 269.58 174.217 268.419 175.394C264.283 179.566 258.107 185.816 252.948 185.816ZM267.39 117.268C264.95 117.268 261.711 118.002 259.665 121.361C258.205 123.754 256.697 126.483 255.237 129.119C252.911 133.332 250.711 137.308 249.018 139.37C244.6 144.75 242.412 152.825 242.855 162.107C243.223 169.863 245.503 177.833 248.659 182.411C249.71 183.948 250.966 184.74 252.496 184.87C252.65 184.882 252.807 184.888 252.966 184.888C257.729 184.888 263.746 178.801 267.768 174.727C268.948 173.535 269.964 172.505 270.72 171.866C278.632 165.202 287.764 150.133 289.694 142.473C291.501 135.308 287.098 132.76 286.907 132.641C286.801 132.584 286.721 132.487 286.686 132.372C286.65 132.257 286.661 132.133 286.717 132.026L289.132 126.981L273.391 114.721L271.184 117.523C271.126 117.596 271.048 117.649 270.959 117.676C270.87 117.704 270.775 117.704 270.687 117.677C269.609 117.393 268.498 117.255 267.384 117.268H267.39Z" fill="#1D1D1B"/>
<path d="M286.581 132.377C286.581 132.377 273.59 129.835 271.027 117.649L273.393 114.463L289.11 126.96L286.581 132.377Z" fill="#0598C6"/>
<path d="M248.263 155.332C249.23 155.332 250.015 154.548 250.015 153.581C250.015 152.614 249.23 151.83 248.263 151.83C247.296 151.83 246.512 152.614 246.512 153.581C246.512 154.548 247.296 155.332 248.263 155.332Z" fill="#51CEF4"/>
<path d="M266.111 159.926C267.078 159.926 267.862 159.142 267.862 158.174C267.862 157.207 267.078 156.423 266.111 156.423C265.144 156.423 264.359 157.207 264.359 158.174C264.359 159.142 265.144 159.926 266.111 159.926Z" fill="#51CEF4"/>
<path d="M264.941 134.887C265.908 134.887 266.692 134.103 266.692 133.136C266.692 132.168 265.908 131.384 264.941 131.384C263.974 131.384 263.189 132.168 263.189 133.136C263.189 134.103 263.974 134.887 264.941 134.887Z" fill="#51CEF4"/>
<path d="M316.853 107.018C316.853 107.018 317.529 124.265 291.694 123.844C291.694 123.844 277.714 123.017 273.716 114.97L274.306 113.36C274.306 113.36 267.292 104.569 271.148 99.0352C271.148 99.0352 278.42 99.1427 283.115 109.276C283.115 109.276 291.12 99.4131 303.048 103.785C303.048 103.785 308.944 102.658 309.934 105.936C309.934 105.946 313.262 103.859 316.853 107.018Z" fill="#FFCDB2"/>
<path d="M314.576 105.632C315.414 105.95 316.185 106.42 316.853 107.018C316.853 107.018 317.528 124.265 291.693 123.844C288.588 123.59 285.528 122.932 282.592 121.887C279.059 120.59 275.448 118.461 273.715 114.97L274.305 113.36C274.305 113.36 267.291 104.569 271.147 99.0353C272.035 99.0981 272.908 99.2951 273.737 99.6192C276.281 100.541 280.189 102.978 283.115 109.276C283.115 109.276 291.119 99.4132 303.047 103.786C303.047 103.786 305.874 103.245 307.942 104.004C308.864 104.339 309.629 104.926 309.933 105.946C310.639 105.565 311.42 105.34 312.221 105.287C313.022 105.234 313.825 105.354 314.576 105.639V105.632ZM314.883 104.766C313.428 104.228 311.831 104.217 310.369 104.735C309.855 103.986 309.111 103.425 308.249 103.137C306.326 102.434 303.91 102.716 303.121 102.83C300.684 101.944 298.083 101.597 295.499 101.812C292.915 102.028 290.408 102.8 288.151 104.078C286.393 105.048 284.775 106.253 283.342 107.66C280.417 102.071 276.717 99.7298 274.044 98.7496C273.117 98.3879 272.14 98.1722 271.147 98.1105C270.995 98.1077 270.845 98.1425 270.71 98.2116C270.575 98.2808 270.459 98.3822 270.372 98.5069C266.63 103.878 271.844 111.615 273.248 113.517L272.83 114.651C272.787 114.769 272.769 114.895 272.776 115.021C272.784 115.147 272.817 115.269 272.873 115.382C274.456 118.574 277.615 121.054 282.261 122.756C285.282 123.834 288.432 124.51 291.629 124.769H291.669C301.369 124.925 308.569 122.667 313.082 118.055C316.016 115.107 317.695 111.137 317.768 106.978C317.763 106.853 317.733 106.731 317.68 106.617C317.628 106.504 317.553 106.402 317.461 106.318C316.707 105.644 315.837 105.115 314.892 104.757L314.883 104.766Z" fill="black"/>
<path d="M282.676 115.459H282.7C282.818 115.494 282.945 115.482 283.054 115.424C283.163 115.367 283.244 115.269 283.281 115.151C283.3 115.096 283.687 113.95 285.257 113.258C286.972 112.503 290.342 112.205 296.666 115.102C296.744 115.137 296.83 115.15 296.915 115.14C297 115.129 297.08 115.096 297.148 115.044C297.219 114.985 304.409 109.276 310.146 106.357C310.202 106.331 310.252 106.293 310.293 106.247C310.334 106.201 310.366 106.147 310.386 106.088C310.406 106.029 310.414 105.967 310.41 105.905C310.405 105.843 310.388 105.783 310.36 105.727C310.332 105.672 310.293 105.623 310.245 105.583C310.198 105.543 310.143 105.513 310.084 105.495C310.025 105.476 309.962 105.47 309.901 105.476C309.839 105.483 309.779 105.501 309.725 105.531C304.48 108.201 298.064 113.148 296.792 114.134C291.568 111.787 287.543 111.215 284.842 112.432C282.894 113.311 282.415 114.819 282.384 114.89C282.35 115.004 282.362 115.127 282.417 115.233C282.471 115.338 282.564 115.419 282.676 115.459Z" fill="black"/>
<path d="M291.403 110.619C291.49 110.651 291.584 110.656 291.674 110.633C291.764 110.611 291.844 110.562 291.906 110.493C291.943 110.453 295.64 106.425 303.309 103.909C303.371 103.893 303.429 103.866 303.48 103.827C303.531 103.788 303.574 103.739 303.605 103.683C303.636 103.627 303.655 103.565 303.661 103.502C303.667 103.438 303.66 103.374 303.64 103.313C303.62 103.252 303.588 103.196 303.545 103.148C303.503 103.101 303.45 103.062 303.392 103.036C303.334 103.009 303.271 102.995 303.207 102.994C303.143 102.993 303.079 103.005 303.02 103.03C295.099 105.626 291.372 109.704 291.218 109.876C291.177 109.921 291.145 109.973 291.125 110.031C291.104 110.088 291.095 110.149 291.098 110.21C291.101 110.271 291.117 110.331 291.143 110.385C291.169 110.44 291.206 110.49 291.252 110.53C291.296 110.57 291.347 110.6 291.403 110.619Z" fill="black"/>
<path d="M292.95 121.948C292.984 121.963 293.019 121.973 293.055 121.979C302.854 123.709 310.993 116.58 311.334 116.276C311.456 116.167 311.53 116.013 311.539 115.849C311.549 115.686 311.492 115.525 311.383 115.403C311.274 115.281 311.121 115.207 310.957 115.198C310.793 115.189 310.633 115.245 310.51 115.354C310.434 115.425 302.47 122.387 293.27 120.765C293.118 120.738 292.961 120.77 292.831 120.853C292.701 120.937 292.607 121.066 292.568 121.216C292.53 121.366 292.549 121.524 292.622 121.661C292.695 121.797 292.817 121.9 292.963 121.951L292.95 121.948Z" fill="white"/>
<path d="M198.497 110.926H198.445C198.324 110.912 198.213 110.851 198.136 110.755C198.06 110.66 198.025 110.537 198.039 110.416C198.174 109.27 197.969 108.486 197.425 108.093C196.325 107.288 193.965 108.062 193.151 108.431C193.095 108.456 193.036 108.47 192.975 108.472C192.914 108.474 192.854 108.464 192.797 108.443C192.74 108.421 192.688 108.389 192.644 108.347C192.6 108.306 192.564 108.256 192.539 108.201C192.514 108.145 192.5 108.086 192.498 108.025C192.496 107.965 192.507 107.904 192.528 107.847C192.549 107.79 192.582 107.738 192.623 107.694C192.665 107.65 192.715 107.614 192.77 107.589C192.911 107.528 196.214 106.053 197.969 107.35C198.795 107.964 199.124 109.021 198.949 110.521C198.935 110.632 198.882 110.734 198.799 110.808C198.716 110.883 198.609 110.925 198.497 110.926Z" fill="black"/>
<path d="M191.124 96.3307C191.802 96.3307 192.353 95.7804 192.353 95.1016C192.353 94.4228 191.802 93.8726 191.124 93.8726C190.445 93.8726 189.895 94.4228 189.895 95.1016C189.895 95.7804 190.445 96.3307 191.124 96.3307Z" fill="black"/>
<path d="M210.635 96.4845C211.314 96.4845 211.864 95.9342 211.864 95.2554C211.864 94.5766 211.314 94.0264 210.635 94.0264C209.957 94.0264 209.406 94.5766 209.406 95.2554C209.406 95.9342 209.957 96.4845 210.635 96.4845Z" fill="black"/>
<path d="M131.576 81.9045C131.5 81.9039 131.425 81.8894 131.355 81.8616C123.403 78.7889 116.258 73.4547 110.113 65.9759C105.215 60.0149 100.941 52.6897 97.4077 44.2061C93.7469 35.3614 91.1208 26.123 89.5818 16.6751C89.5709 16.5944 89.5759 16.5124 89.5968 16.4337C89.6176 16.355 89.6536 16.2811 89.703 16.2163C89.7523 16.1515 89.8141 16.0972 89.8845 16.0562C89.9549 16.0153 90.0325 15.9886 90.1132 15.9777C90.1939 15.9669 90.276 15.9719 90.3547 15.9928C90.4334 16.0136 90.5072 16.0496 90.572 16.099C90.6367 16.1483 90.6913 16.21 90.7322 16.2804C90.7731 16.3508 90.7999 16.4286 90.8108 16.5093C90.8108 16.6384 92.6143 29.479 98.563 43.7607C104.032 56.884 114.234 73.9495 131.806 80.7155C131.941 80.7666 132.053 80.8633 132.124 80.9888C132.195 81.1144 132.219 81.2609 132.192 81.4025C132.166 81.5441 132.091 81.672 131.98 81.7638C131.869 81.8555 131.729 81.9053 131.585 81.9045H131.576Z" fill="black"/>
<path d="M115.952 81.0874H115.884C108.169 80.2547 100.702 75.5781 94.2929 67.5677C91.3599 63.8906 88.8701 59.8807 86.8753 55.6211C86.8431 55.547 86.8258 55.4675 86.8243 55.3867C86.8228 55.306 86.8371 55.2256 86.8666 55.1504C86.8962 55.0753 86.9402 55.0067 86.9963 54.9485C87.0523 54.8903 87.1194 54.8438 87.1934 54.8115C87.2674 54.7792 87.3473 54.7618 87.4281 54.7604C87.5088 54.7589 87.589 54.7733 87.6642 54.8028C87.7394 54.8323 87.808 54.8764 87.8661 54.9324C87.9243 54.9885 87.9707 55.0555 88.003 55.1296C88.1013 55.36 98.1427 77.9441 116.016 79.8768C116.179 79.8853 116.332 79.9582 116.442 80.0795C116.551 80.2007 116.607 80.3606 116.599 80.5235C116.59 80.6865 116.517 80.8394 116.396 80.9486C116.275 81.0578 116.115 81.1144 115.952 81.1058V81.0874Z" fill="black"/>
<path d="M57.6162 112.462C57.5026 112.462 57.3912 112.431 57.2942 112.372C57.1973 112.313 57.1186 112.228 57.0671 112.126C57.0155 112.025 56.9929 111.912 57.002 111.798C57.011 111.685 57.0513 111.577 57.1184 111.485C61.6567 105.263 69.7869 102.731 80.6272 104.172C85.7808 104.904 90.8264 106.259 95.6526 108.21C95.8025 108.274 95.9207 108.395 95.9812 108.547C96.0417 108.698 96.0395 108.868 95.9752 109.018C95.9108 109.168 95.7894 109.286 95.6379 109.346C95.4863 109.407 95.317 109.405 95.1671 109.34C94.8998 109.223 68.4535 98.0299 58.114 112.21C58.0568 112.288 57.9818 112.352 57.8952 112.396C57.8087 112.44 57.7132 112.462 57.6162 112.462Z" fill="black"/>
<path d="M100.941 101.401C100.855 101.4 100.769 101.382 100.69 101.347C100.611 101.311 100.541 101.259 100.483 101.195C100.406 101.112 92.783 92.8556 76.7346 94.6378C76.6539 94.6466 76.5722 94.6394 76.4942 94.6167C76.4163 94.5941 76.3436 94.5562 76.2803 94.5054C76.2169 94.4546 76.1642 94.3919 76.1251 94.3207C76.086 94.2496 76.0614 94.1714 76.0525 94.0907C76.0436 94.01 76.0508 93.9283 76.0735 93.8504C76.0962 93.7724 76.1341 93.6998 76.1848 93.6364C76.2356 93.5731 76.2982 93.5204 76.3694 93.4813C76.4405 93.4422 76.5188 93.4176 76.5995 93.4087C93.3178 91.5497 101.076 100.009 101.399 100.371C101.478 100.46 101.529 100.569 101.547 100.686C101.565 100.803 101.549 100.923 101.501 101.031C101.453 101.139 101.374 101.231 101.275 101.295C101.175 101.36 101.059 101.394 100.941 101.394V101.401Z" fill="black"/>
<path d="M256.57 177.449C256.305 177.449 256.046 177.363 255.833 177.204C255.62 177.045 255.464 176.821 255.389 176.565C255.315 176.31 255.325 176.038 255.418 175.789C255.511 175.539 255.683 175.327 255.907 175.184C285.509 156.238 281.25 140.771 281.204 140.626C281.109 140.314 281.143 139.977 281.297 139.689C281.451 139.402 281.712 139.187 282.024 139.093C282.336 138.998 282.673 139.032 282.961 139.186C283.248 139.339 283.463 139.601 283.558 139.913C283.613 140.098 284.879 144.476 282.138 151.328C278.577 160.239 270.198 168.959 257.25 177.255C257.047 177.385 256.811 177.452 256.57 177.449Z" fill="white"/>
<path d="M335.078 104.781C334.994 104.781 334.912 104.764 334.835 104.731C334.759 104.698 334.69 104.65 334.632 104.59C329.808 99.5201 323.417 97.3693 315.631 98.2051C312.04 98.6004 308.533 99.5531 305.236 101.029C305.163 101.072 305.082 101.099 304.998 101.109C304.914 101.119 304.829 101.111 304.748 101.087C304.667 101.063 304.592 101.022 304.528 100.968C304.463 100.913 304.411 100.846 304.374 100.77C304.336 100.694 304.315 100.611 304.311 100.527C304.307 100.442 304.321 100.358 304.351 100.279C304.381 100.2 304.428 100.128 304.487 100.068C304.546 100.008 304.617 99.9604 304.695 99.9288C308.101 98.3832 311.731 97.3906 315.45 96.9883C323.537 96.1095 330.475 98.4478 335.511 103.748C335.594 103.835 335.65 103.945 335.671 104.063C335.692 104.182 335.678 104.304 335.631 104.414C335.584 104.525 335.505 104.619 335.404 104.685C335.304 104.752 335.186 104.787 335.065 104.787L335.078 104.781Z" fill="black"/>
<path d="M289.909 98.0204C289.796 98.0202 289.687 97.9893 289.591 97.9311C289.495 97.873 289.417 97.7897 289.365 97.6903C289.313 97.591 289.289 97.4794 289.296 97.3675C289.303 97.2556 289.341 97.1477 289.405 97.0556C289.509 96.905 291.998 93.3684 297.049 90.4217C301.705 87.7024 309.49 85.0016 320.165 87.5918C320.323 87.6304 320.459 87.73 320.544 87.8688C320.629 88.0076 320.655 88.1743 320.617 88.3324C320.578 88.4903 320.479 88.6264 320.34 88.7111C320.201 88.7957 320.034 88.822 319.876 88.784C309.626 86.3013 302.171 88.8669 297.719 91.4541C292.883 94.2687 290.437 97.7224 290.412 97.7562C290.356 97.8376 290.281 97.9042 290.193 97.9502C290.105 97.9962 290.008 98.0203 289.909 98.0204Z" fill="black"/>
<defs>
<filter id="filter0_d_14083_92770" x="-4.0192" y="107.785" width="38.6829" height="38.6839" filterUnits="userSpaceOnUse" color-interpolation-filters="sRGB">
<feFlood flood-opacity="0" result="BackgroundImageFix"/>
<feColorMatrix in="SourceAlpha" type="matrix" values="0 0 0 0 0 0 0 0 0 0 0 0 0 0 0 0 0 0 127 0" result="hardAlpha"/>
<feOffset dy="2.03704"/>
<feGaussianBlur stdDeviation="5.09261"/>
<feComposite in2="hardAlpha" operator="out"/>
<feColorMatrix type="matrix" values="0 0 0 0 0 0 0 0 0 0 0 0 0 0 0 0 0 0 0.05 0"/>
<feBlend mode="normal" in2="BackgroundImageFix" result="effect1_dropShadow_14083_92770"/>
<feBlend mode="normal" in="SourceGraphic" in2="effect1_dropShadow_14083_92770" result="shape"/>
</filter>
<filter id="filter1_d_14083_92770" x="370.649" y="165.21" width="38.6888" height="38.6883" filterUnits="userSpaceOnUse" color-interpolation-filters="sRGB">
<feFlood flood-opacity="0" result="BackgroundImageFix"/>
<feColorMatrix in="SourceAlpha" type="matrix" values="0 0 0 0 0 0 0 0 0 0 0 0 0 0 0 0 0 0 127 0" result="hardAlpha"/>
<feOffset dy="2.03704"/>
<feGaussianBlur stdDeviation="5.09261"/>
<feComposite in2="hardAlpha" operator="out"/>
<feColorMatrix type="matrix" values="0 0 0 0 0 0 0 0 0 0 0 0 0 0 0 0 0 0 0.05 0"/>
<feBlend mode="normal" in2="BackgroundImageFix" result="effect1_dropShadow_14083_92770"/>
<feBlend mode="normal" in="SourceGraphic" in2="effect1_dropShadow_14083_92770" result="shape"/>
</filter>
<linearGradient id="paint0_linear_14083_92770" x1="20.4547" y1="112.038" x2="392.053" y2="200.547" gradientUnits="userSpaceOnUse">
<stop stop-color="#CDD5E2"/>
<stop offset="1" stop-color="#CDD5E2" stop-opacity="0"/>
</linearGradient>
<linearGradient id="paint1_linear_14083_92770" x1="391.411" y1="195.437" x2="353.85" y2="294.044" gradientUnits="userSpaceOnUse">
<stop stop-color="#CDD5E2"/>
<stop offset="1" stop-color="#CDD5E2" stop-opacity="0"/>
</linearGradient>
<linearGradient id="paint2_linear_14083_92770" x1="196.502" y1="23.2607" x2="196.502" y2="365.006" gradientUnits="userSpaceOnUse">
<stop stop-color="#CDD5E2"/>
<stop offset="1" stop-color="#CDD5E2" stop-opacity="0"/>
</linearGradient>
<linearGradient id="paint3_linear_14083_92770" x1="196.505" y1="57.4336" x2="196.505" y2="330.83" gradientUnits="userSpaceOnUse">
<stop stop-color="#CDD5E2"/>
<stop offset="1" stop-color="#CDD5E2" stop-opacity="0"/>
</linearGradient>
</defs>
</svg>
