<svg width="406" height="302" viewBox="0 0 406 302" fill="none" xmlns="http://www.w3.org/2000/svg">
<mask id="mask0_14083_92405" style="mask-type:alpha" maskUnits="userSpaceOnUse" x="0" y="0" width="406" height="302">
<rect width="405.823" height="301.875" fill="#D9D9D9"/>
</mask>
<g mask="url(#mask0_14083_92405)">
<g opacity="0.5">
<mask id="path-2-inside-1_14083_92405" fill="white">
<path d="M389.979 202.565C391.995 156.308 377.371 110.86 348.759 74.4588C320.146 38.0574 279.439 13.1119 234.015 4.14415C188.592 -4.82363 141.458 2.77982 101.159 25.5762C60.859 48.3727 30.0607 84.8533 14.3462 128.405L15.1858 128.708C30.8279 85.357 61.4843 49.0446 101.598 26.3532C141.712 3.66186 188.628 -3.90654 233.842 5.0199C279.057 13.9463 319.576 38.7768 348.057 75.0104C376.537 111.244 391.094 156.483 389.087 202.526L389.979 202.565Z"/>
</mask>
<path d="M389.979 202.565C391.995 156.308 377.371 110.86 348.759 74.4588C320.146 38.0574 279.439 13.1119 234.015 4.14415C188.592 -4.82363 141.458 2.77982 101.159 25.5762C60.859 48.3727 30.0607 84.8533 14.3462 128.405L15.1858 128.708C30.8279 85.357 61.4843 49.0446 101.598 26.3532C141.712 3.66186 188.628 -3.90654 233.842 5.0199C279.057 13.9463 319.576 38.7768 348.057 75.0104C376.537 111.244 391.094 156.483 389.087 202.526L389.979 202.565Z" stroke="url(#paint0_linear_14083_92405)" stroke-width="2.84788" stroke-dasharray="4.27 4.27" mask="url(#path-2-inside-1_14083_92405)"/>
</g>
<g opacity="0.5">
<mask id="path-3-inside-2_14083_92405" fill="white">
<path d="M14.6043 260.572C30.4892 304.063 61.4301 340.422 101.819 363.061C142.207 385.699 189.37 393.118 234.758 383.973C280.146 374.827 320.756 349.723 349.225 313.21C377.695 276.697 392.141 231.192 389.944 184.943L389.052 184.986C391.239 231.021 376.86 276.316 348.521 312.661C320.183 349.006 279.761 373.994 234.582 383.098C189.403 392.201 142.457 384.816 102.255 362.282C62.0527 339.748 31.2544 303.556 15.4428 260.266L14.6043 260.572Z"/>
</mask>
<path d="M14.6043 260.572C30.4892 304.063 61.4301 340.422 101.819 363.061C142.207 385.699 189.37 393.118 234.758 383.973C280.146 374.827 320.756 349.723 349.225 313.21C377.695 276.697 392.141 231.192 389.944 184.943L389.052 184.986C391.239 231.021 376.86 276.316 348.521 312.661C320.183 349.006 279.761 373.994 234.582 383.098C189.403 392.201 142.457 384.816 102.255 362.282C62.0527 339.748 31.2544 303.556 15.4428 260.266L14.6043 260.572Z" stroke="url(#paint1_linear_14083_92405)" stroke-width="2.84788" stroke-dasharray="4.27 4.27" mask="url(#path-3-inside-2_14083_92405)"/>
</g>
<circle opacity="0.08" cx="196.502" cy="194.133" r="170.873" fill="url(#paint2_linear_14083_92405)"/>
<circle opacity="0.1" cx="196.505" cy="194.132" r="136.698" fill="url(#paint3_linear_14083_92405)"/>
<circle cx="196.505" cy="194.134" r="91.1321" fill="white"/>
<g filter="url(#filter0_d_14083_92405)">
<circle cx="15.3224" cy="125.09" r="7.11969" transform="rotate(-2.50406 15.3224 125.09)" fill="#0170FF"/>
<circle cx="15.3224" cy="125.09" r="8.13822" transform="rotate(-2.50406 15.3224 125.09)" stroke="white" stroke-width="2.03704"/>
</g>
<g filter="url(#filter1_d_14083_92405)">
<circle cx="389.993" cy="182.517" r="7.11969" transform="rotate(-15.7345 389.993 182.517)" fill="#0170FF"/>
<circle cx="389.993" cy="182.517" r="8.13822" transform="rotate(-15.7345 389.993 182.517)" stroke="white" stroke-width="2.03704"/>
</g>
</g>
<path d="M313.719 24.3315H144.232C142.466 24.3314 140.717 24.6823 139.088 25.3638C137.459 26.0452 135.982 27.0435 134.742 28.3009C133.503 29.5583 132.525 31.0496 131.867 32.6881C131.208 34.3266 130.882 36.0796 130.908 37.8452L133.383 212.968" fill="white"/>
<path d="M132.837 212.979L130.38 37.8526C130.354 36.0159 130.693 34.1924 131.377 32.4877C132.061 30.783 133.077 29.231 134.366 27.922C135.655 26.6131 137.19 25.5731 138.884 24.8622C140.578 24.1514 142.396 23.784 144.233 23.7812H313.72V24.8749H144.233C142.54 24.8747 140.863 25.2111 139.301 25.8646C137.739 26.518 136.322 27.4755 135.133 28.6814C133.944 29.8872 133.007 31.3175 132.376 32.8888C131.744 34.4601 131.432 36.1411 131.456 37.8343L133.931 212.957L132.837 212.979Z" fill="#1D1E1B"/>
<path d="M183.901 103.144L131.695 104.229L131.718 105.322L183.924 104.237L183.901 103.144Z" fill="#1D1E1B"/>
<path d="M251.382 24.3319C251.382 24.3319 240.445 81.565 292.94 144.995C286.451 163.89 285.929 179.824 292.21 192.386C292.21 192.386 319.916 219.727 330.123 209.884C332.788 207.314 330.221 176.867 330.487 159.213C330.91 131.11 336.451 109.179 339.966 77.5551C342.882 51.308 342.565 30.1646 340.33 26.1546C333.404 13.7601 251.017 14.1247 251.382 24.3319Z" fill="white"/>
<path d="M324.393 212.57C312.053 212.57 292.791 193.727 291.828 192.776L291.763 192.714L291.722 192.63C285.569 180.327 285.773 164.338 292.324 145.108C280.407 130.672 270.816 115.362 263.802 99.6061C258.264 87.266 254.278 74.2863 251.936 60.9646C248.262 39.6061 250.649 25.3233 250.843 24.2843C250.817 22.2866 253.11 20.6717 257.849 19.3484C267.448 16.6654 286.163 15.5499 304.419 16.5743C314.102 17.1174 337.031 19.126 340.815 25.881C343.05 29.8909 343.55 50.3055 340.517 77.6097C339.23 89.1985 337.684 99.3911 336.189 109.248C333.681 125.802 331.308 141.437 331.042 159.216C330.947 165.534 331.217 173.521 331.476 181.245C332.048 198.117 332.303 208.542 330.51 210.27C328.833 211.885 326.737 212.57 324.393 212.57ZM292.659 192.061C294.143 193.52 320.266 218.633 329.744 209.49C331.279 208.01 330.798 193.815 330.375 181.293C330.116 173.554 329.846 165.552 329.941 159.205C330.211 141.343 332.584 125.667 335.099 109.092C336.594 99.2489 338.136 89.0636 339.423 77.4967C342.39 50.783 341.975 30.1864 339.853 26.4207C337.411 22.0462 324.141 18.7835 304.35 17.6716C286.488 16.6692 267.48 17.7919 258.137 20.4057C254.083 21.5394 251.878 22.9247 251.94 24.3099V24.3719V24.4301C251.914 24.5759 249.268 38.9389 253.033 60.837C256.522 81.0472 266.35 111.993 293.37 144.645L293.567 144.879L293.469 145.17C286.921 164.199 286.655 179.973 292.659 192.061Z" fill="black"/>
<path d="M209.458 85.2106L208 30.8938V24.332" fill="white"/>
<path d="M208.911 85.2252L207.453 30.9084V24.332H208.547V30.8938L210.005 85.1962L208.911 85.2252Z" fill="#1D1E1B"/>
<path d="M294.715 122.026C279.182 104.218 273.728 82.6553 271.891 67.6908C269.901 51.4905 271.603 39.322 271.618 39.2017L272.711 39.3585C272.711 39.4788 271.013 51.5269 272.992 67.5886C274.815 82.3854 280.206 103.718 295.55 121.308L294.715 122.026Z" fill="#1D1E1B"/>
<path d="M326.281 83.5151L325.217 83.26C329.879 63.8955 327.404 39.5804 327.404 39.3362L328.498 39.2231C328.505 39.4565 330.987 63.9646 326.281 83.5151Z" fill="#1D1E1B"/>
<path d="M347.62 48.0269C347.62 48.0269 349.808 75.3675 342.152 107.812L347.62 48.0269Z" fill="white"/>
<path d="M342.686 107.94L341.621 107.688C349.167 75.7068 347.089 48.3442 347.089 48.0708L348.183 47.9834C348.187 48.2605 350.272 75.7833 342.686 107.94Z" fill="#1D1E1B"/>
<path d="M329.212 112.001C329.135 112 329.058 111.993 328.982 111.979C328.842 111.948 328.709 111.891 328.591 111.809C328.472 111.727 328.371 111.623 328.293 111.502C328.216 111.381 328.162 111.246 328.137 111.104C328.111 110.963 328.114 110.818 328.144 110.677C336.751 70.5011 332.901 31.5715 332.861 31.1851C332.832 30.8951 332.919 30.6051 333.103 30.3791C333.287 30.1532 333.554 30.0097 333.844 29.9802C334.134 29.9508 334.424 30.0377 334.65 30.222C334.876 30.4062 335.019 30.6728 335.049 30.9628C335.089 31.3529 338.978 70.6067 330.291 111.137C330.238 111.383 330.102 111.603 329.906 111.761C329.709 111.918 329.464 112.003 329.212 112.001Z" fill="white"/>
<path d="M275.26 102.887C275.051 102.887 274.845 102.827 274.668 102.713C274.492 102.599 274.352 102.437 274.265 102.246C261.506 74.2088 266.471 39.2819 266.522 38.9356C266.564 38.6484 266.719 38.3897 266.952 38.2164C267.184 38.0431 267.477 37.9695 267.764 38.0116C268.051 38.0536 268.309 38.2079 268.483 38.4407C268.656 38.6735 268.73 38.9656 268.688 39.2528C268.637 39.5954 263.781 73.8842 276.256 101.342C276.317 101.473 276.351 101.615 276.357 101.76C276.362 101.904 276.339 102.049 276.289 102.184C276.238 102.32 276.161 102.444 276.062 102.55C275.963 102.655 275.844 102.74 275.712 102.8C275.57 102.862 275.416 102.892 275.26 102.887Z" fill="white"/>
<path d="M243.466 157.638C231.563 157.638 221.885 148.714 221.885 137.741C221.885 126.769 231.563 117.845 243.466 117.845C255.368 117.845 265.047 126.769 265.047 137.741C265.047 148.714 255.364 157.638 243.466 157.638ZM243.466 118.938C232.165 118.938 222.978 127.374 222.978 137.741C222.978 148.109 232.169 156.545 243.466 156.545C254.763 156.545 263.953 148.109 263.953 137.741C263.953 127.374 254.763 118.927 243.466 118.927V118.938Z" fill="#1D1E1B"/>
<path d="M239.594 156.42C249.817 156.42 258.105 148.132 258.105 137.909C258.105 127.685 249.817 119.397 239.594 119.397C229.37 119.397 221.082 127.685 221.082 137.909C221.082 148.132 229.37 156.42 239.594 156.42Z" fill="#382256"/>
<path d="M239.593 156.967C235.824 156.967 232.139 155.849 229.005 153.755C225.871 151.661 223.428 148.685 221.986 145.202C220.543 141.72 220.166 137.888 220.901 134.191C221.637 130.494 223.452 127.098 226.117 124.433C228.782 121.767 232.178 119.952 235.875 119.217C239.572 118.481 243.404 118.859 246.887 120.301C250.369 121.744 253.346 124.187 255.44 127.321C257.534 130.455 258.652 134.139 258.652 137.909C258.646 142.962 256.636 147.806 253.063 151.379C249.49 154.952 244.646 156.961 239.593 156.967ZM239.593 119.948C236.04 119.948 232.567 121.002 229.612 122.976C226.658 124.95 224.355 127.756 222.996 131.039C221.636 134.321 221.281 137.934 221.974 141.419C222.668 144.904 224.379 148.104 226.892 150.617C229.405 153.129 232.606 154.84 236.091 155.533C239.576 156.225 243.188 155.869 246.471 154.509C249.753 153.148 252.559 150.845 254.532 147.891C256.506 144.936 257.559 141.462 257.558 137.909C257.552 133.146 255.658 128.581 252.29 125.214C248.922 121.846 244.356 119.953 239.593 119.948Z" fill="#1D1E1B"/>
<path d="M207.827 143.246C146.912 155.017 167.56 245.843 167.56 245.843L272.847 245.511C272.847 245.511 287.575 150.65 218.713 140.053" fill="#07ACEE"/>
<path d="M167.561 246.39C167.437 246.389 167.317 246.346 167.219 246.269C167.122 246.192 167.054 246.084 167.025 245.963C165.047 236.256 163.931 226.393 163.69 216.49C163.303 201.278 165.02 179.81 175.381 163.93C182.795 152.564 193.673 145.426 207.712 142.71C207.855 142.683 208.002 142.713 208.123 142.794C208.243 142.876 208.326 143.001 208.353 143.144C208.381 143.287 208.351 143.434 208.269 143.555C208.188 143.675 208.062 143.758 207.92 143.786C194.184 146.439 183.546 153.42 176.299 164.524C166.092 180.163 164.404 201.387 164.78 216.439C165.025 226.131 166.103 235.785 168.002 245.292L272.375 244.964C273.575 235.378 273.916 225.703 273.392 216.056C272.582 200.909 269.141 179.474 257.352 163.38C248.136 150.796 235.115 143.129 218.63 140.596C218.558 140.585 218.489 140.56 218.427 140.523C218.365 140.485 218.31 140.436 218.267 140.378C218.224 140.319 218.193 140.253 218.175 140.182C218.158 140.112 218.154 140.039 218.165 139.967C218.176 139.895 218.201 139.826 218.238 139.764C218.276 139.702 218.325 139.648 218.383 139.604C218.442 139.561 218.508 139.53 218.578 139.513C218.649 139.495 218.722 139.491 218.794 139.502C235.563 142.083 248.843 149.899 258.234 162.724C270.184 179.044 273.665 200.712 274.482 216.012C275.029 225.882 274.662 235.782 273.388 245.584C273.368 245.713 273.303 245.83 273.204 245.915C273.105 246 272.979 246.047 272.848 246.047L167.561 246.379V246.39Z" fill="#1D1D1B"/>
<path d="M274.604 247.043C300.289 258.409 311.102 245.705 317.839 238.837C327.339 229.144 345.908 201.865 343.269 192.139C340.63 182.413 333.426 182.489 333.426 182.489L332.927 174.863L306.636 170.893L305.841 175.997C305.841 175.997 297.636 172.88 293.596 186.343C290.913 195.285 287.877 207.544 288.212 212.929C288.212 212.929 286.499 156.374 230.137 142.882" fill="#07ACEE"/>
<path d="M293.291 252.117C288.041 252.117 281.822 250.834 274.386 247.542C274.316 247.516 274.253 247.476 274.199 247.424C274.145 247.373 274.103 247.311 274.074 247.242C274.045 247.173 274.031 247.1 274.032 247.025C274.032 246.951 274.048 246.878 274.078 246.81C274.108 246.741 274.152 246.68 274.206 246.63C274.261 246.579 274.325 246.54 274.395 246.515C274.465 246.49 274.54 246.48 274.614 246.485C274.688 246.49 274.761 246.509 274.827 246.543C299.138 257.301 309.659 246.47 316.622 239.3L317.449 238.454C327.587 228.108 345.242 201.5 342.745 192.285C340.248 183.069 333.719 183.029 333.442 183.036C333.303 183.037 333.169 182.984 333.067 182.889C332.966 182.794 332.904 182.665 332.895 182.526L332.425 175.337L307.107 171.517L306.396 176.074C306.383 176.153 306.353 176.229 306.307 176.296C306.262 176.363 306.202 176.419 306.133 176.46C306.063 176.501 305.985 176.526 305.905 176.534C305.824 176.541 305.743 176.531 305.667 176.504C303.982 176.009 302.171 176.18 300.607 176.981C297.789 178.385 295.617 181.582 294.144 186.492C291.395 195.649 288.577 207.195 288.763 212.553C288.763 212.772 288.781 212.892 288.781 212.918C288.788 213.063 288.737 213.205 288.639 213.312C288.542 213.419 288.405 213.483 288.26 213.49C288.115 213.497 287.974 213.446 287.866 213.348C287.759 213.25 287.695 213.114 287.688 212.969C287.688 212.856 287.688 212.739 287.67 212.604C287.546 210.377 286.543 197.37 279.821 183.153C273.052 168.837 258.918 150.319 230.035 143.418C229.904 143.376 229.794 143.286 229.727 143.166C229.659 143.046 229.639 142.905 229.671 142.771C229.703 142.637 229.784 142.52 229.898 142.444C230.012 142.367 230.151 142.336 230.287 142.357C243.232 145.456 254.365 151.106 263.376 159.126C270.583 165.546 276.456 173.493 280.827 182.748C284.396 190.402 286.852 198.528 288.118 206.877C289.018 200.895 291.067 192.904 293.076 186.204C294.643 180.977 297.017 177.55 300.13 176.015C301.758 175.198 303.614 174.955 305.397 175.326L306.101 170.835C306.123 170.693 306.201 170.565 306.317 170.48C306.433 170.395 306.578 170.359 306.721 170.379L333.011 174.346C333.135 174.365 333.248 174.425 333.332 174.517C333.417 174.609 333.467 174.728 333.474 174.852L333.945 182.008C335.709 182.216 341.491 183.543 343.787 192.022C346.583 202.324 327.401 229.876 318.218 239.245L317.395 240.087C312.674 244.936 305.696 252.117 293.291 252.117Z" fill="#1D1D1B"/>
<path d="M306.494 176.474C306.494 176.474 311.682 188.533 333.273 182.956L332.599 175.446L307.446 171.582L306.494 176.474Z" fill="#0598C6"/>
<path d="M248.675 218.13C248.799 216.853 247.866 215.718 246.591 215.595C245.317 215.471 244.183 216.406 244.06 217.683C243.936 218.959 244.869 220.094 246.144 220.218C247.418 220.341 248.552 219.406 248.675 218.13Z" fill="#51CEF4"/>
<path d="M216.11 195.027C216.395 193.777 215.615 192.532 214.366 192.247C213.118 191.962 211.875 192.745 211.589 193.995C211.304 195.245 212.084 196.49 213.333 196.775C214.581 197.06 215.824 196.277 216.11 195.027Z" fill="#51CEF4"/>
<path d="M307.292 192.786C307.416 191.51 306.483 190.375 305.208 190.252C303.934 190.128 302.8 191.063 302.677 192.34C302.553 193.616 303.486 194.751 304.761 194.874C306.035 194.998 307.169 194.063 307.292 192.786Z" fill="#51CEF4"/>
<path d="M335.695 197.789C335.818 196.513 334.885 195.378 333.611 195.255C332.336 195.131 331.203 196.066 331.079 197.343C330.956 198.619 331.889 199.754 333.163 199.877C334.438 200.001 335.571 199.066 335.695 197.789Z" fill="#51CEF4"/>
<path d="M324.16 233.402C324.289 232.12 323.355 230.976 322.074 230.848C320.794 230.72 319.651 231.656 319.523 232.939C319.395 234.221 320.329 235.365 321.61 235.493C322.89 235.621 324.032 234.685 324.16 233.402Z" fill="#51CEF4"/>
<path d="M277.527 206.458C277.65 205.182 276.717 204.047 275.443 203.923C274.168 203.8 273.035 204.735 272.911 206.011C272.788 207.288 273.721 208.423 274.995 208.546C276.27 208.67 277.403 207.735 277.527 206.458Z" fill="#51CEF4"/>
<path d="M316.179 214.136C316.303 212.859 315.37 211.725 314.095 211.601C312.821 211.478 311.687 212.413 311.564 213.689C311.44 214.966 312.373 216.101 313.647 216.224C314.922 216.347 316.055 215.412 316.179 214.136Z" fill="#51CEF4"/>
<path d="M205.137 143.921C204.117 144.6 203.262 145.497 202.631 146.548C202.001 147.598 201.611 148.775 201.491 149.994C200.901 154.937 211.122 159.126 220.265 152.334C220.265 152.334 225.777 157.139 230.698 155.364C237.475 152.914 234.606 143.906 227.418 142.433C218.26 140.556 205.137 143.921 205.137 143.921Z" fill="white"/>
<path d="M210.186 156.443C208.038 156.479 205.918 155.954 204.036 154.919C201.889 153.672 200.755 151.81 200.966 149.928C201.506 145.412 204.729 143.523 204.863 143.447L204.929 143.41L204.998 143.392C205.542 143.254 218.352 140.016 227.549 141.898C232.19 142.849 234.84 146.593 235.088 149.797C235.288 152.586 233.724 154.857 230.899 155.878C226.393 157.504 221.57 154.055 220.258 153.027C216.842 155.459 213.299 156.443 210.186 156.443ZM205.348 144.446C204.421 145.087 203.646 145.923 203.076 146.895C202.506 147.867 202.156 148.952 202.049 150.074C201.878 151.532 202.8 152.954 204.601 153.99C208.002 155.962 214.261 156.151 219.966 151.912L220.331 151.649L220.663 151.937C220.717 151.981 226 156.508 230.553 154.853C232.922 153.997 234.198 152.185 234.023 149.881C233.823 147.154 231.42 143.808 227.356 142.973C218.741 141.212 206.438 144.161 205.348 144.446Z" fill="#1D1E1B"/>
<path d="M242.959 233.919C244.24 233.919 245.278 232.879 245.278 231.596C245.278 230.314 244.24 229.274 242.959 229.274C241.679 229.274 240.641 230.314 240.641 231.596C240.641 232.879 241.679 233.919 242.959 233.919Z" fill="#51CEF4"/>
<path d="M175.016 198.197C176.296 198.197 177.334 197.157 177.334 195.875C177.334 194.592 176.296 193.553 175.016 193.553C173.735 193.553 172.697 194.592 172.697 195.875C172.697 197.157 173.735 198.197 175.016 198.197Z" fill="#51CEF4"/>
<path d="M211.156 215.557C211.435 215.296 211.646 214.97 211.769 214.608C211.892 214.247 211.925 213.861 211.863 213.484C211.802 213.106 211.649 212.75 211.418 212.446C211.186 212.142 210.884 211.9 210.537 211.74C210.119 211.546 209.652 211.482 209.197 211.556C208.742 211.63 208.32 211.839 207.985 212.156C207.753 212.361 207.565 212.611 207.431 212.89C207.297 213.169 207.221 213.472 207.206 213.781C207.191 214.09 207.238 214.399 207.344 214.69C207.45 214.981 207.613 215.248 207.824 215.474C208.035 215.701 208.289 215.883 208.571 216.011C208.853 216.138 209.158 216.207 209.467 216.215C209.777 216.223 210.085 216.168 210.373 216.055C210.661 215.942 210.924 215.773 211.146 215.557H211.156Z" fill="#51CEF4"/>
<path d="M176.492 239.788C176.772 239.527 176.983 239.202 177.107 238.84C177.231 238.478 177.263 238.092 177.202 237.714C177.141 237.337 176.988 236.98 176.756 236.676C176.524 236.372 176.22 236.13 175.873 235.971C175.455 235.777 174.988 235.713 174.533 235.787C174.078 235.861 173.656 236.07 173.321 236.387C173.089 236.592 172.901 236.842 172.767 237.121C172.634 237.4 172.557 237.703 172.542 238.012C172.527 238.321 172.574 238.63 172.68 238.921C172.786 239.212 172.949 239.478 173.16 239.705C173.371 239.932 173.625 240.114 173.907 240.242C174.189 240.369 174.494 240.438 174.803 240.446C175.113 240.454 175.421 240.399 175.709 240.286C175.997 240.173 176.26 240.004 176.482 239.788H176.492Z" fill="#51CEF4"/>
<path d="M253.639 168.75C254.919 168.75 255.957 167.71 255.957 166.427C255.957 165.145 254.919 164.105 253.639 164.105C252.358 164.105 251.32 165.145 251.32 166.427C251.32 167.71 252.358 168.75 253.639 168.75Z" fill="#51CEF4"/>
<path d="M267.9 193.56C267.9 193.56 275.979 208.703 277.492 228.392L272.443 226.708C272.443 226.708 271.94 210.063 267.9 193.56Z" fill="#0598C6"/>
<path d="M267.492 191.144C267.492 191.144 271.098 205.506 272.107 228.392L267.492 191.144Z" fill="#07ACEE"/>
<path d="M272.107 228.939C271.967 228.939 271.831 228.885 271.729 228.788C271.628 228.691 271.567 228.558 271.561 228.418C270.565 205.86 267 191.42 266.964 191.275C266.928 191.134 266.95 190.985 267.025 190.861C267.099 190.736 267.22 190.646 267.361 190.611C267.502 190.576 267.651 190.598 267.775 190.672C267.899 190.747 267.989 190.868 268.024 191.008C268.061 191.154 271.652 205.692 272.654 228.367C272.66 228.512 272.609 228.653 272.511 228.76C272.413 228.867 272.278 228.931 272.133 228.939H272.107Z" fill="#1D1D1B"/>
<path d="M337.357 208.113C337.239 208.113 337.123 208.089 337.014 208.043C336.903 207.998 336.803 207.932 336.718 207.847C336.632 207.763 336.565 207.663 336.518 207.553C336.472 207.442 336.448 207.324 336.447 207.204C336.447 207.084 336.47 206.966 336.515 206.855C340.543 197.012 339.639 192.153 338.17 189.798C337.675 189.003 337.008 188.331 336.217 187.83C335.426 187.33 334.532 187.014 333.602 186.907C333.361 186.893 333.134 186.784 332.973 186.603C332.812 186.422 332.73 186.185 332.744 185.943C332.758 185.701 332.867 185.475 333.048 185.314C333.229 185.153 333.466 185.071 333.708 185.085C334.921 185.209 336.09 185.608 337.127 186.25C338.164 186.892 339.041 187.761 339.694 188.792C342.184 192.74 341.684 199.047 338.203 207.54C338.135 207.709 338.018 207.854 337.867 207.955C337.716 208.057 337.539 208.112 337.357 208.113Z" fill="white"/>
<path d="M225.502 93.8876C232.123 93.8876 237.491 88.5114 237.491 81.8796C237.491 75.2477 232.123 69.8716 225.502 69.8716C218.88 69.8716 213.512 75.2477 213.512 81.8796C213.512 88.5114 218.88 93.8876 225.502 93.8876Z" fill="#382256"/>
<path d="M225.502 94.4378C223.218 94.4414 220.976 93.8221 219.017 92.646C217.059 91.47 215.458 89.782 214.388 87.7639C213.317 85.7457 212.818 83.4739 212.943 81.1929C213.068 78.9118 213.812 76.7079 215.097 74.8187C216.381 72.9295 218.156 71.4264 220.232 70.4712C222.307 69.5161 224.603 69.145 226.874 69.3981C229.144 69.6512 231.302 70.5187 233.116 71.9073C234.93 73.296 236.331 75.1532 237.168 77.2788C237.917 79.1815 238.19 81.2382 237.963 83.2705C237.737 85.3027 237.018 87.2489 235.868 88.9399C234.718 90.631 233.173 92.0158 231.367 92.9739C229.56 93.932 227.547 94.4345 225.502 94.4378ZM225.502 70.4109C223.05 70.4051 220.66 71.1857 218.683 72.6384C216.707 74.091 215.248 76.139 214.521 78.4817C213.795 80.8245 213.838 83.3385 214.646 85.6546C215.453 87.9707 216.982 89.967 219.008 91.3502C221.033 92.7334 223.449 93.4308 225.9 93.3399C228.351 93.249 230.709 92.3747 232.626 90.8452C234.544 89.3158 235.921 87.2118 236.554 84.8422C237.188 82.4726 237.045 79.9623 236.147 77.6799C235.306 75.5408 233.841 73.7039 231.943 72.4077C230.045 71.1115 227.801 70.4159 225.502 70.4109Z" fill="#1D1E1B"/>
<path d="M188.744 115.971C188.744 115.971 181.107 107.988 185.329 100.85C189.55 93.7121 191.435 94.5323 193.411 90.6208C195.387 86.7092 203.031 83.308 209.494 85.8452C209.494 85.8452 218.291 80.4208 225.563 83.0273C232.836 85.6338 235.111 89.4287 236.696 95.4509C238.282 101.473 240.156 104.255 241.414 108.45C242.671 112.646 244.071 124.235 227.484 131.158C210.898 138.08 188.744 115.971 188.744 115.971Z" fill="#382256"/>
<path d="M220.556 133.028C214.964 133.028 208.544 130.874 201.6 126.627C196.839 123.671 192.399 120.23 188.348 116.358C188.024 116.022 180.474 107.991 184.856 100.58C187.237 96.5519 188.899 95.0062 190.237 93.7595C191.352 92.8304 192.265 91.6829 192.92 90.3875C195.107 86.0531 202.916 82.8524 209.437 85.2511C210.928 84.3835 218.893 80.0636 225.747 82.5206C233.231 85.2073 235.622 89.2465 237.223 95.3234C237.958 98.0664 238.906 100.748 240.059 103.343C240.778 104.963 241.405 106.622 241.936 108.312C243.03 111.957 245.217 124.352 227.694 131.683C225.427 132.601 223.001 133.058 220.556 133.028ZM189.139 115.588C189.573 116.018 211.3 137.322 227.274 130.655C243.959 123.688 241.914 112.019 240.894 108.607C240.375 106.955 239.767 105.333 239.071 103.748C237.899 101.107 236.933 98.3797 236.184 95.5895C234.638 89.7313 232.462 86.0749 225.397 83.5596C218.471 81.0698 209.882 86.2755 209.794 86.3302L209.565 86.4724L209.31 86.3739C202.963 83.8841 195.709 87.3399 193.915 90.8869C193.201 92.2981 192.209 93.5505 190.999 94.5688C189.715 95.7645 188.115 97.2519 185.815 101.131C181.881 107.758 188.932 115.37 189.139 115.588Z" fill="#1D1E1B"/>
<path d="M219.264 110.933H219.301C224.619 111.487 230.266 106.81 230.503 106.613C230.589 106.54 230.643 106.436 230.654 106.324C230.664 106.211 230.629 106.099 230.558 106.012C230.522 105.968 230.478 105.932 230.428 105.906C230.379 105.88 230.324 105.863 230.268 105.858C230.212 105.853 230.156 105.859 230.102 105.876C230.049 105.893 229.999 105.921 229.956 105.957C229.901 106.005 224.346 110.602 219.384 110.084C219.277 110.075 219.169 110.108 219.085 110.175C219 110.243 218.944 110.34 218.928 110.447C218.913 110.554 218.938 110.663 219 110.752C219.061 110.841 219.155 110.903 219.26 110.926L219.264 110.933Z" fill="black"/>
<path d="M208.873 137.614L207.907 143.585C207.907 143.585 215.982 157.383 230.119 143.92C230.119 143.92 225.956 135.663 224.414 121.803C224.414 121.803 230.487 121.362 230.312 115.971C230.137 110.579 226.032 109.045 223.327 110.138C223.327 110.138 212.573 115.552 205.541 93.6899C205.541 93.6899 194.528 96.4677 190.828 106.923C187.128 117.378 187.467 130.148 195.203 134.92C202.938 139.692 208.873 137.614 208.873 137.614Z" fill="#FFCDB2"/>
<path d="M218.233 150.366C217.711 150.366 217.19 150.329 216.673 150.256C210.735 149.418 207.56 144.088 207.417 143.862L207.319 143.691L208.183 138.35C206.233 138.748 201.144 139.211 194.895 135.354C186.587 130.228 186.69 116.912 190.299 106.708C194.053 96.1034 205.278 93.158 205.391 93.1325L205.886 93.0049L206.047 93.4933C209.546 104.375 213.939 108.192 217.012 109.475C220.435 110.911 223.042 109.635 223.067 109.621L223.111 109.599C223.917 109.294 224.784 109.184 225.64 109.278C226.497 109.372 227.319 109.667 228.04 110.138C229.764 111.272 230.759 113.332 230.843 115.942C231 120.772 226.592 121.99 225.01 122.27C226.571 135.543 230.559 143.592 230.602 143.676L230.785 144.041L230.489 144.322C226.272 148.335 222.16 150.366 218.233 150.366ZM208.464 143.468C209.032 144.34 211.974 148.496 216.848 149.174C220.785 149.728 225.025 147.916 229.447 143.797C228.634 142.025 225.222 134.038 223.866 121.866L223.8 121.301L224.369 121.257C224.595 121.257 229.917 120.783 229.76 115.975C229.669 113.102 228.452 111.713 227.449 111.053C226.879 110.678 226.228 110.443 225.55 110.365C224.872 110.288 224.185 110.371 223.545 110.609C223.22 110.765 220.337 112.048 216.6 110.485C211.916 108.523 208.074 103.092 205.179 94.3354C203.039 95.0244 194.458 98.2689 191.327 107.076C187.747 117.189 188.02 129.827 195.468 134.417C202.861 138.981 208.617 137.111 208.675 137.089L209.536 136.797L208.464 143.468Z" fill="#1D1E1B"/>
<path d="M224.75 119.321C224.826 119.335 224.904 119.329 224.976 119.303C225.049 119.276 225.113 119.231 225.162 119.172C226.62 117.386 227.12 115.814 226.668 114.495C226.022 112.592 223.645 112.016 223.547 111.991C223.437 111.964 223.321 111.983 223.224 112.043C223.128 112.102 223.059 112.197 223.033 112.308C223.007 112.418 223.026 112.534 223.085 112.63C223.145 112.727 223.24 112.796 223.35 112.822C223.376 112.822 225.373 113.321 225.862 114.772C226.208 115.796 225.749 117.094 224.498 118.632C224.428 118.72 224.395 118.832 224.406 118.944C224.418 119.056 224.473 119.159 224.56 119.23C224.615 119.276 224.68 119.307 224.75 119.321Z" fill="black"/>
<path d="M203.218 110.656C209.174 112.297 217.457 110.124 218.725 112.362C219.994 114.601 218.765 117.429 215.444 117.951C212.123 118.472 208.901 118.188 202.295 117.273C195.69 116.358 189.288 114.972 190.265 111.465C191.242 107.959 194.461 108.243 203.218 110.656Z" fill="#FFB49F"/>
<path d="M226.846 123.918C227.929 123.918 228.807 123.039 228.807 121.954C228.807 120.868 227.929 119.989 226.846 119.989C225.763 119.989 224.885 120.868 224.885 121.954C224.885 123.039 225.763 123.918 226.846 123.918Z" fill="#07ACEE"/>
<path d="M226.847 119.989C227.306 119.985 227.752 120.143 228.107 120.434C228.462 120.725 228.704 121.132 228.791 121.583C228.877 122.034 228.803 122.501 228.582 122.903C228.36 123.305 228.004 123.616 227.576 123.783C227.344 123.874 227.097 123.919 226.847 123.918C226.326 123.918 225.827 123.711 225.458 123.343C225.09 122.974 224.883 122.475 224.883 121.953C224.883 121.432 225.09 120.933 225.458 120.564C225.827 120.196 226.326 119.989 226.847 119.989ZM226.847 118.895C226.464 118.894 226.084 118.965 225.728 119.107C225.065 119.367 224.513 119.851 224.169 120.474C223.824 121.098 223.708 121.823 223.841 122.523C223.973 123.223 224.346 123.855 224.895 124.309C225.444 124.764 226.135 125.012 226.847 125.012C227.23 125.013 227.61 124.941 227.967 124.801C228.72 124.502 229.324 123.917 229.647 123.173C229.97 122.43 229.986 121.589 229.691 120.834C229.469 120.261 229.079 119.769 228.571 119.422C228.063 119.076 227.462 118.892 226.847 118.895Z" fill="#1D1D1B"/>
<path d="M205.718 130.91C204.162 130.91 202.736 130.152 201.486 128.654C201.433 128.6 201.391 128.535 201.364 128.464C201.337 128.393 201.325 128.317 201.329 128.241C201.333 128.165 201.352 128.091 201.386 128.023C201.42 127.955 201.467 127.894 201.526 127.846C201.584 127.797 201.652 127.761 201.725 127.739C201.798 127.718 201.874 127.712 201.95 127.722C202.025 127.732 202.098 127.757 202.163 127.797C202.228 127.836 202.284 127.888 202.328 127.95C203.36 129.19 204.515 129.817 205.718 129.817H205.747C208.223 129.799 210.293 127.265 210.315 127.239C210.406 127.126 210.539 127.054 210.684 127.039C210.828 127.023 210.973 127.066 211.086 127.157C211.199 127.249 211.271 127.381 211.287 127.526C211.302 127.67 211.26 127.815 211.168 127.928C211.07 128.049 208.744 130.889 205.755 130.91H205.718Z" fill="#1D1D1B"/>
<path d="M198.343 121.137C198.273 121.138 198.203 121.125 198.139 121.097C198.005 121.043 197.897 120.937 197.841 120.804C197.784 120.671 197.782 120.52 197.836 120.386L201.54 111.251C201.568 111.182 201.608 111.121 201.66 111.069C201.712 111.017 201.774 110.975 201.842 110.947C201.91 110.92 201.983 110.906 202.056 110.906C202.129 110.907 202.202 110.922 202.269 110.952C202.336 110.978 202.397 111.017 202.448 111.068C202.5 111.118 202.54 111.178 202.568 111.244C202.596 111.31 202.61 111.381 202.61 111.453C202.61 111.525 202.596 111.596 202.568 111.662L198.864 120.798C198.822 120.901 198.75 120.988 198.657 121.049C198.564 121.109 198.454 121.14 198.343 121.137Z" fill="#1D1D1B"/>
<path d="M193.299 105.203C193.19 105.201 193.084 105.167 192.994 105.105C192.904 105.042 192.835 104.954 192.796 104.852C192.757 104.75 192.749 104.639 192.774 104.532C192.799 104.426 192.855 104.329 192.935 104.255C193.121 104.08 197.539 100.063 200.452 102.979C200.548 103.083 200.601 103.22 200.598 103.362C200.596 103.503 200.538 103.638 200.438 103.739C200.338 103.839 200.203 103.896 200.061 103.899C199.92 103.901 199.783 103.849 199.679 103.752C197.492 101.565 193.715 105.021 193.679 105.057C193.576 105.153 193.44 105.205 193.299 105.203Z" fill="black"/>
<path d="M215.682 108.265C215.597 108.265 215.514 108.246 215.439 108.209C215.364 108.171 215.298 108.117 215.248 108.05C214.183 106.668 213.061 105.895 211.927 105.749C211.217 105.654 210.497 105.82 209.9 106.216C209.785 106.305 209.64 106.345 209.496 106.327C209.352 106.309 209.222 106.234 209.133 106.119C209.044 106.005 209.004 105.86 209.022 105.716C209.04 105.572 209.114 105.441 209.229 105.352C210.056 104.777 211.067 104.532 212.065 104.663C213.505 104.849 214.869 105.757 216.112 107.383C216.174 107.463 216.213 107.56 216.224 107.661C216.234 107.763 216.216 107.866 216.171 107.957C216.127 108.049 216.057 108.127 215.97 108.181C215.884 108.236 215.784 108.264 215.682 108.265Z" fill="black"/>
<path d="M207.986 137.829C207.986 137.829 212.911 136.604 215.602 134.584L207.986 137.829Z" fill="#4BD657"/>
<path d="M207.986 138.376C207.841 138.393 207.695 138.352 207.58 138.262C207.465 138.172 207.39 138.04 207.373 137.895C207.356 137.75 207.397 137.604 207.487 137.489C207.577 137.374 207.709 137.3 207.854 137.282C207.902 137.282 212.703 136.057 215.273 134.129C215.33 134.086 215.396 134.054 215.465 134.037C215.535 134.019 215.607 134.015 215.678 134.025C215.749 134.035 215.818 134.059 215.879 134.096C215.941 134.132 215.995 134.181 216.038 134.238C216.081 134.296 216.113 134.361 216.13 134.431C216.148 134.5 216.152 134.573 216.142 134.644C216.132 134.715 216.108 134.783 216.071 134.845C216.035 134.907 215.986 134.961 215.929 135.004C213.18 137.067 208.321 138.285 208.117 138.343C208.075 138.359 208.031 138.371 207.986 138.376Z" fill="black"/>
<path d="M222.333 107.229H222.297C212.655 106.865 209.148 94.6345 209.002 94.1059C208.937 93.8729 208.968 93.6237 209.087 93.4131C209.206 93.2025 209.403 93.0478 209.636 92.983C209.869 92.9183 210.119 92.9486 210.329 93.0676C210.54 93.1866 210.694 93.3843 210.759 93.6173C210.788 93.7303 214.058 105.093 222.366 105.403C222.608 105.407 222.838 105.508 223.006 105.682C223.174 105.856 223.265 106.089 223.261 106.331C223.257 106.572 223.157 106.803 222.983 106.97C222.809 107.138 222.575 107.23 222.333 107.226V107.229Z" fill="white"/>
<path d="M192.38 119.988C190.874 119.986 189.403 119.538 188.153 118.7C186.902 117.862 185.928 116.673 185.353 115.281C184.778 113.89 184.628 112.36 184.922 110.883C185.217 109.407 185.942 108.051 187.007 106.987C188.072 105.923 189.428 105.198 190.905 104.904C192.381 104.61 193.911 104.761 195.302 105.336C196.693 105.912 197.883 106.887 198.72 108.138C199.557 109.389 200.005 110.86 200.006 112.366C200.006 113.367 199.809 114.359 199.425 115.284C199.042 116.209 198.48 117.049 197.772 117.757C197.064 118.465 196.223 119.026 195.298 119.409C194.373 119.792 193.381 119.989 192.38 119.988ZM192.38 105.855C191.09 105.857 189.83 106.242 188.758 106.96C187.687 107.679 186.853 108.699 186.361 109.891C185.87 111.084 185.743 112.395 185.997 113.66C186.25 114.924 186.873 116.085 187.787 116.996C188.7 117.906 189.864 118.526 191.129 118.775C192.395 119.025 193.706 118.893 194.897 118.398C196.087 117.902 197.104 117.065 197.819 115.991C198.534 114.917 198.915 113.656 198.912 112.366C198.908 110.637 198.217 108.98 196.992 107.76C195.768 106.539 194.109 105.854 192.38 105.855Z" fill="#1D1E1B"/>
<path d="M209.541 122.682C208.035 122.682 206.563 122.236 205.31 121.399C204.058 120.562 203.082 119.373 202.506 117.981C201.929 116.59 201.778 115.058 202.072 113.581C202.366 112.104 203.091 110.747 204.156 109.682C205.221 108.617 206.578 107.892 208.055 107.598C209.533 107.304 211.064 107.455 212.455 108.031C213.847 108.608 215.036 109.584 215.873 110.836C216.71 112.088 217.156 113.561 217.156 115.067C217.154 117.086 216.352 119.022 214.924 120.45C213.496 121.877 211.56 122.68 209.541 122.682ZM209.541 108.545C208.251 108.545 206.99 108.928 205.918 109.644C204.845 110.361 204.009 111.38 203.516 112.571C203.022 113.763 202.893 115.074 203.145 116.339C203.396 117.604 204.017 118.766 204.93 119.678C205.842 120.59 207.004 121.212 208.269 121.463C209.534 121.715 210.845 121.586 212.037 121.092C213.229 120.598 214.247 119.763 214.964 118.69C215.68 117.618 216.063 116.357 216.063 115.067C216.061 113.338 215.373 111.68 214.15 110.458C212.928 109.235 211.27 108.547 209.541 108.545Z" fill="#1D1E1B"/>
<path d="M216.611 115.614C216.528 115.614 216.447 115.595 216.373 115.559C216.298 115.523 216.233 115.471 216.181 115.406C216.092 115.292 216.051 115.147 216.068 115.003C216.085 114.859 216.159 114.728 216.272 114.637L222.666 109.588C222.723 109.544 222.787 109.511 222.856 109.491C222.926 109.472 222.998 109.466 223.07 109.475C223.141 109.483 223.21 109.505 223.273 109.541C223.336 109.576 223.391 109.623 223.435 109.679C223.48 109.736 223.513 109.801 223.532 109.87C223.552 109.939 223.558 110.011 223.549 110.083C223.541 110.154 223.518 110.223 223.483 110.286C223.448 110.349 223.401 110.404 223.344 110.449L216.95 115.497C216.853 115.573 216.734 115.614 216.611 115.614Z" fill="#1D1E1B"/>
<path d="M202.491 115.122C202.385 115.121 202.282 115.09 202.193 115.032C202.105 114.973 202.035 114.891 201.992 114.794C201.525 113.722 199.473 114.065 199.44 114.065C199.299 114.087 199.155 114.053 199.039 113.97C198.923 113.888 198.843 113.763 198.818 113.623C198.792 113.483 198.822 113.338 198.902 113.22C198.981 113.101 199.104 113.019 199.243 112.989C199.364 112.967 202.16 112.479 202.983 114.36C203.014 114.427 203.03 114.498 203.032 114.571C203.034 114.644 203.021 114.717 202.995 114.784C202.968 114.852 202.928 114.914 202.878 114.967C202.827 115.019 202.766 115.061 202.699 115.089C202.633 115.114 202.562 115.125 202.491 115.122Z" fill="#1D1E1B"/>
<path d="M234.827 84.256H234.801C234.682 84.2527 234.564 84.2258 234.454 84.177C234.345 84.1281 234.247 84.058 234.164 83.971C234.082 83.884 234.018 83.7817 233.975 83.6698C233.932 83.558 233.912 83.4387 233.915 83.319C234.014 79.8668 233.15 77.202 231.364 75.3975C228.703 72.7363 224.802 72.8093 224.769 72.8129C224.527 72.8207 224.292 72.732 224.116 72.5666C223.94 72.4012 223.836 72.1725 223.829 71.9308C223.821 71.6891 223.909 71.4541 224.075 71.2777C224.24 71.1013 224.469 70.998 224.711 70.9902C224.9 70.9902 229.406 70.8772 232.636 74.0961C234.823 76.2652 235.862 79.3856 235.749 83.3701C235.741 83.6089 235.641 83.8354 235.468 84.0009C235.296 84.1664 235.066 84.258 234.827 84.256Z" fill="white"/>
<path d="M240.547 85.9109C240.481 85.9094 240.416 85.897 240.354 85.8744C240.219 85.8222 240.109 85.7185 240.05 85.5861C239.991 85.4536 239.986 85.3031 240.037 85.1672C243.209 76.9286 237.441 72.5249 237.194 72.339C237.077 72.2525 237 72.1232 236.979 71.9796C236.957 71.8361 236.994 71.6899 237.081 71.5734C237.167 71.4569 237.296 71.3796 237.44 71.3584C237.584 71.3372 237.73 71.3739 237.846 71.4604C237.912 71.5114 244.535 76.5239 241.058 85.5572C241.019 85.6613 240.949 85.7509 240.858 85.8141C240.767 85.8773 240.658 85.9112 240.547 85.9109Z" fill="#1D1D1B"/>
<path d="M197.133 113.842C197.029 113.842 196.926 113.812 196.839 113.755C196.751 113.698 196.681 113.617 196.638 113.522C196.482 113.137 196.249 112.789 195.955 112.497C195.66 112.205 195.31 111.975 194.924 111.823C193.298 111.214 191.326 112.1 191.304 112.111C191.239 112.141 191.168 112.157 191.097 112.16C191.025 112.163 190.953 112.151 190.886 112.126C190.818 112.101 190.757 112.063 190.704 112.014C190.651 111.965 190.609 111.906 190.579 111.841C190.549 111.776 190.532 111.705 190.53 111.633C190.527 111.562 190.538 111.49 190.563 111.422C190.589 111.355 190.627 111.293 190.676 111.241C190.725 111.188 190.783 111.145 190.849 111.116C190.943 111.072 193.24 110.022 195.3 110.795C195.823 110.995 196.3 111.3 196.701 111.691C197.102 112.082 197.42 112.552 197.633 113.07C197.671 113.153 197.687 113.245 197.68 113.336C197.674 113.427 197.644 113.515 197.594 113.592C197.544 113.669 197.476 113.733 197.396 113.776C197.315 113.82 197.225 113.843 197.133 113.842Z" fill="#1D1D1B"/>
<path d="M212.614 115.526C212.49 115.526 212.369 115.484 212.272 115.406C209.261 112.997 206.228 115.067 206.199 115.089C206.08 115.172 205.932 115.205 205.79 115.179C205.647 115.154 205.52 115.073 205.437 114.954C205.353 114.835 205.321 114.688 205.346 114.545C205.372 114.402 205.453 114.275 205.571 114.192C205.608 114.167 209.312 111.64 212.957 114.557C213.045 114.628 213.108 114.725 213.139 114.834C213.17 114.943 213.166 115.059 213.129 115.165C213.091 115.272 213.022 115.365 212.93 115.431C212.838 115.497 212.728 115.533 212.614 115.534V115.526Z" fill="#1D1D1B"/>
<path d="M203.001 144.529C203.001 144.529 159.296 143.202 143.405 211.076C122.214 215.049 107.559 216.511 100.691 241.205L124.544 253.443C124.544 253.443 143.416 260.734 167.585 245.828" fill="#07ACEE"/>
<path d="M136.727 255.784C129.129 255.784 124.529 254.041 124.332 253.961L124.277 253.935L100.44 241.687C100.328 241.629 100.239 241.535 100.188 241.419C100.138 241.303 100.129 241.174 100.163 241.052C106.776 217.27 120.774 214.689 140.15 211.116L142.949 210.599C146.595 195.204 151.975 182.128 158.964 171.731C164.607 163.347 171.303 156.654 178.864 151.882C191.772 143.731 202.559 143.964 203.011 143.975C203.083 143.977 203.154 143.993 203.22 144.022C203.285 144.051 203.345 144.093 203.394 144.145C203.443 144.197 203.482 144.259 203.508 144.326C203.533 144.393 203.546 144.464 203.544 144.536C203.537 144.681 203.474 144.817 203.369 144.917C203.263 145.016 203.124 145.07 202.979 145.068C202.873 145.068 192.017 144.846 179.385 152.844C167.72 160.237 152.088 176.357 143.934 211.196C143.908 211.299 143.854 211.393 143.777 211.466C143.7 211.539 143.604 211.588 143.5 211.608L140.347 212.192C120.778 215.801 107.807 218.192 101.34 240.918L124.751 252.948C125.539 253.236 144.043 259.699 167.286 245.369C167.41 245.293 167.559 245.269 167.7 245.303C167.841 245.337 167.963 245.425 168.039 245.549C168.115 245.673 168.139 245.822 168.105 245.963C168.071 246.104 167.982 246.226 167.858 246.302C155.267 254.063 144.123 255.74 136.993 255.78L136.727 255.784Z" fill="#1D1D1B"/>
<path d="M170.22 193.531C170.22 193.531 162.276 212.731 167.573 245.843L170.22 193.531Z" fill="#07ACEE"/>
<path d="M167.559 246.389C167.429 246.39 167.303 246.344 167.204 246.26C167.105 246.175 167.04 246.059 167.02 245.93C161.756 213.048 169.623 193.512 169.703 193.319C169.729 193.251 169.769 193.189 169.82 193.137C169.87 193.085 169.931 193.043 169.998 193.014C170.065 192.986 170.137 192.971 170.21 192.971C170.283 192.97 170.355 192.985 170.422 193.013C170.489 193.04 170.551 193.082 170.602 193.133C170.653 193.185 170.693 193.247 170.72 193.314C170.747 193.382 170.761 193.454 170.759 193.527C170.758 193.6 170.742 193.672 170.713 193.739C170.632 193.928 162.89 213.205 168.099 245.755C168.11 245.826 168.108 245.899 168.091 245.969C168.074 246.039 168.044 246.105 168.001 246.163C167.959 246.222 167.906 246.271 167.844 246.308C167.783 246.346 167.714 246.371 167.643 246.382L167.559 246.389Z" fill="#1D1D1B"/>
<path d="M159.399 198.772C159.684 197.522 158.904 196.277 157.655 195.992C156.407 195.707 155.164 196.49 154.878 197.74C154.593 198.99 155.373 200.235 156.622 200.52C157.87 200.805 159.113 200.022 159.399 198.772Z" fill="#51CEF4"/>
<path d="M294.951 139.612L301.713 177.255C301.713 177.255 312.952 183.087 322.492 176.333L325.864 139.043L294.951 139.612Z" fill="#4BD657"/>
<path d="M311.961 180.12C308.327 180.087 304.741 179.279 301.444 177.75L301.207 177.626L294.303 139.08L326.459 138.493L323.011 176.642L322.803 176.788C319.627 179.007 315.835 180.173 311.961 180.12ZM302.184 176.894C303.825 177.652 313.602 181.764 321.968 176.037L325.249 139.608L295.593 140.148L302.184 176.894Z" fill="#1D1E1B"/>
<path d="M153.865 190.013C153.683 190.013 153.503 189.968 153.343 189.881C153.183 189.794 153.047 189.668 152.948 189.515C152.849 189.362 152.789 189.187 152.775 189.005C152.761 188.824 152.792 188.641 152.866 188.475C165.301 160.682 179.113 154.959 179.711 154.729C179.981 154.622 180.282 154.627 180.548 154.742C180.814 154.857 181.024 155.074 181.131 155.344C181.238 155.613 181.233 155.914 181.118 156.181C181.003 156.447 180.786 156.657 180.517 156.763C180.371 156.822 166.879 162.509 154.864 189.368C154.777 189.561 154.637 189.724 154.46 189.838C154.282 189.953 154.076 190.014 153.865 190.013Z" fill="white"/>
<path d="M296.715 149.458L300.287 169.409C307.327 169.722 316.462 168.775 323.254 167.856L324.96 148.987C314.814 150.347 304.09 150.008 296.715 149.458Z" fill="white"/>
<path d="M303.193 170.018C302.187 170.018 301.206 169.996 300.277 169.956L299.839 169.934L296.062 148.86L296.766 148.911C303.999 149.45 314.749 149.808 324.898 148.444L325.58 148.353L323.757 168.341L323.323 168.399C317.625 169.168 309.839 170.018 303.193 170.018ZM300.75 168.88C307.615 169.132 316.389 168.221 322.751 167.371L324.355 149.618C314.64 150.846 304.48 150.555 297.378 150.055L300.75 168.88Z" fill="#1D1E1B"/>
<path d="M297.336 133.6L299.848 130.585C300.218 130.137 300.734 129.834 301.306 129.728C304.022 129.233 312.439 127.982 320.751 129.641C321.124 129.716 321.476 129.876 321.779 130.107C322.082 130.338 322.329 130.635 322.5 130.975L323.813 133.6H297.336Z" fill="white"/>
<path d="M324.725 134.147H296.178L299.459 130.235C299.916 129.687 300.551 129.317 301.252 129.189C303.717 128.74 312.415 127.41 320.905 129.105C321.359 129.198 321.787 129.392 322.156 129.674C322.524 129.955 322.825 130.317 323.034 130.731L324.725 134.147ZM298.515 133.053H322.939L322.02 131.23C321.886 130.965 321.694 130.733 321.458 130.553C321.222 130.372 320.948 130.247 320.657 130.188C312.356 128.533 303.83 129.823 301.416 130.275C300.967 130.358 300.561 130.596 300.268 130.946L298.515 133.053Z" fill="#1D1E1B"/>
<path d="M295.029 133.874L292.579 138.424C292.438 138.686 292.369 138.98 292.378 139.278C292.387 139.576 292.474 139.865 292.631 140.119C292.788 140.372 293.008 140.579 293.27 140.72C293.532 140.861 293.827 140.93 294.125 140.921L326.956 139.878C327.257 139.869 327.551 139.779 327.806 139.617C328.062 139.456 328.269 139.229 328.407 138.961C328.545 138.692 328.609 138.391 328.591 138.09C328.574 137.788 328.476 137.497 328.308 137.246L325.585 133.163C325.427 132.923 325.21 132.728 324.955 132.595C324.699 132.463 324.414 132.399 324.127 132.409L296.472 132.985C296.175 132.993 295.885 133.08 295.631 133.236C295.378 133.392 295.17 133.612 295.029 133.874Z" fill="white"/>
<path d="M294.056 141.449C293.669 141.448 293.288 141.347 292.952 141.155C292.616 140.963 292.335 140.688 292.136 140.355C291.938 140.022 291.83 139.644 291.821 139.257C291.812 138.87 291.904 138.488 292.087 138.146L294.537 133.597C294.725 133.248 295.002 132.955 295.34 132.748C295.678 132.541 296.065 132.428 296.462 132.419L324.12 131.843C324.496 131.834 324.869 131.92 325.203 132.094C325.537 132.268 325.822 132.525 326.03 132.839L328.753 136.925C328.974 137.258 329.102 137.643 329.124 138.042C329.146 138.44 329.061 138.838 328.878 139.193C328.696 139.547 328.421 139.847 328.084 140.06C327.747 140.274 327.358 140.393 326.959 140.406L294.132 141.449H294.056ZM324.167 132.937H324.141L296.498 133.509C296.295 133.514 296.097 133.572 295.923 133.678C295.75 133.783 295.608 133.933 295.51 134.111L293.06 138.66C292.965 138.838 292.918 139.038 292.924 139.239C292.93 139.44 292.989 139.637 293.095 139.808C293.201 139.979 293.351 140.12 293.528 140.216C293.706 140.311 293.905 140.358 294.107 140.352L326.938 139.309C327.142 139.303 327.34 139.241 327.513 139.132C327.686 139.023 327.826 138.869 327.92 138.688C328.014 138.506 328.057 138.302 328.046 138.098C328.035 137.894 327.969 137.697 327.856 137.527L325.133 133.444C325.028 133.287 324.885 133.159 324.719 133.071C324.552 132.983 324.366 132.937 324.178 132.937H324.167Z" fill="#1D1E1B"/>
<path d="M323.738 174.188C323.738 174.188 332.986 176.244 337.047 166.208C341.108 156.173 341.746 145.608 336.285 139.25C330.825 132.893 324.292 132.459 319.998 134.442C315.703 136.425 314.894 141.095 318.463 145.958C318.463 145.958 311.766 150.799 318.521 158.98C315.707 159.964 313.272 168.476 321.562 169.796C321.868 171.433 322.621 172.953 323.738 174.188Z" fill="#FFCDB2"/>
<path d="M325.66 174.892C324.975 174.9 324.292 174.843 323.618 174.721L323.443 174.681L323.327 174.546C322.235 173.331 321.468 171.86 321.099 170.27C317.705 169.613 315.631 167.59 315.354 164.67C315.146 162.337 316.189 159.822 317.68 158.805C315.591 156.096 314.698 153.453 315.019 150.934C315.298 148.978 316.255 147.182 317.724 145.86C315.952 143.264 315.299 140.61 315.901 138.339C316.4 136.407 317.724 134.887 319.783 133.943C323.968 132.011 330.916 132.146 336.713 138.893C341.816 144.839 342.137 155.126 337.566 166.413C334.555 173.827 328.747 174.892 325.66 174.892ZM324.03 173.685C325.313 173.911 332.962 174.852 336.541 166.001C340.956 155.101 340.704 145.222 335.871 139.608C330.479 133.327 324.256 133.079 320.228 134.938C318.496 135.736 317.363 137.009 316.947 138.613C316.411 140.683 317.108 143.177 318.905 145.634L319.229 146.079L318.784 146.399C317.336 147.573 316.379 149.247 316.105 151.091C315.806 153.453 316.761 155.99 318.941 158.633L319.441 159.239L318.711 159.497C317.523 159.913 316.251 162.271 316.455 164.572C316.586 166.03 317.439 168.582 321.661 169.256L322.043 169.315L322.113 169.697C322.385 171.174 323.047 172.551 324.03 173.685Z" fill="black"/>
<path d="M333.793 149.695C333.719 149.695 333.645 149.681 333.577 149.652C333.509 149.623 333.447 149.58 333.396 149.527C333.137 149.257 327.1 143.126 317.669 146.673C317.601 146.703 317.527 146.72 317.453 146.721C317.378 146.723 317.304 146.709 317.235 146.68C317.165 146.652 317.103 146.609 317.051 146.555C316.999 146.502 316.958 146.438 316.932 146.368C316.906 146.298 316.894 146.224 316.897 146.149C316.901 146.074 316.919 146.001 316.952 145.934C316.985 145.867 317.031 145.807 317.088 145.759C317.145 145.71 317.211 145.674 317.283 145.652C327.413 141.839 334.121 148.7 334.187 148.772C334.261 148.849 334.312 148.946 334.331 149.052C334.351 149.157 334.339 149.266 334.297 149.365C334.255 149.463 334.185 149.547 334.095 149.606C334.005 149.665 333.9 149.696 333.793 149.695Z" fill="#1D1D1B"/>
<path d="M331.539 159.636C331.485 159.636 331.431 159.628 331.379 159.611C331.306 159.589 323.76 157.329 318.646 159.541C318.514 159.591 318.369 159.588 318.239 159.533C318.11 159.478 318.007 159.375 317.951 159.247C317.895 159.118 317.891 158.972 317.94 158.841C317.988 158.709 318.086 158.601 318.212 158.539C323.698 156.166 331.375 158.466 331.7 158.564C331.827 158.601 331.936 158.683 332.007 158.795C332.079 158.906 332.107 159.039 332.088 159.17C332.068 159.301 332.002 159.421 331.901 159.506C331.8 159.592 331.672 159.638 331.539 159.636Z" fill="#1D1D1B"/>
<path d="M325.342 170.878C323.899 170.866 322.463 170.66 321.074 170.266C320.938 170.221 320.826 170.125 320.761 169.998C320.695 169.872 320.681 169.725 320.723 169.588C320.764 169.452 320.857 169.337 320.982 169.268C321.107 169.199 321.253 169.182 321.391 169.22C321.438 169.22 326.192 170.649 328.999 168.939C329.123 168.864 329.272 168.841 329.414 168.875C329.555 168.91 329.676 168.999 329.752 169.123C329.827 169.247 329.85 169.396 329.816 169.538C329.781 169.679 329.692 169.8 329.568 169.876C328.325 170.641 326.764 170.878 325.342 170.878Z" fill="#1D1D1B"/>
<path d="M337.074 145.371C336.886 145.371 336.702 145.313 336.548 145.205C336.394 145.096 336.278 144.943 336.214 144.766C336.214 144.711 334.358 139.754 329.794 137.621C326.958 136.294 323.633 136.309 319.911 137.665C319.799 137.706 319.679 137.725 319.56 137.72C319.44 137.715 319.322 137.686 319.214 137.636C319.105 137.585 319.007 137.514 318.926 137.426C318.845 137.337 318.782 137.234 318.741 137.122C318.7 137.009 318.681 136.89 318.686 136.77C318.691 136.65 318.72 136.533 318.77 136.424C318.821 136.315 318.892 136.218 318.98 136.137C319.069 136.056 319.172 135.993 319.284 135.952C323.488 134.42 327.304 134.428 330.585 135.977C335.842 138.445 337.847 143.92 337.931 144.154C337.979 144.291 337.994 144.438 337.973 144.582C337.953 144.726 337.899 144.864 337.816 144.983C337.732 145.102 337.621 145.199 337.492 145.267C337.363 145.334 337.22 145.37 337.074 145.371Z" fill="white"/>
<path d="M333.706 154.091C333.564 154.091 333.425 154.058 333.299 153.994C333.172 153.931 333.062 153.84 332.977 153.727C332.769 153.446 328.012 147.191 319.93 149.987C319.701 150.066 319.451 150.05 319.233 149.944C319.016 149.838 318.849 149.65 318.77 149.422C318.692 149.193 318.707 148.942 318.813 148.725C318.919 148.508 319.107 148.341 319.335 148.262C328.715 145.018 334.391 152.571 334.446 152.637C334.517 152.733 334.568 152.843 334.596 152.959C334.625 153.075 334.63 153.196 334.612 153.314C334.594 153.432 334.552 153.546 334.49 153.648C334.428 153.75 334.346 153.839 334.249 153.909C334.093 154.028 333.902 154.092 333.706 154.091Z" fill="white"/>
<path d="M137.848 116.929C158.877 116.929 175.924 99.8813 175.924 78.8522C175.924 57.8232 158.877 40.7759 137.848 40.7759C116.819 40.7759 99.7715 57.8232 99.7715 78.8522C99.7715 99.8813 116.819 116.929 137.848 116.929Z" fill="white"/>
<path d="M137.801 117.468C127.649 117.451 117.912 113.435 110.7 106.29C103.488 99.1457 99.3808 89.4473 99.268 79.2959C99.1552 69.1446 103.046 59.3574 110.098 52.0542C117.149 44.751 126.794 40.5197 136.943 40.2767C147.092 40.0337 156.928 43.7986 164.322 50.756C171.715 57.7134 176.069 67.3032 176.442 77.4483C176.816 87.5934 173.177 97.4771 166.315 104.959C159.453 112.44 149.92 116.918 139.78 117.421C139.128 117.468 138.457 117.468 137.801 117.468ZM137.87 41.3155C137.239 41.3155 136.605 41.3337 135.967 41.3628C128.554 41.7362 121.419 44.2992 115.462 48.7277C109.506 53.1563 104.997 59.2516 102.505 66.2429C100.012 73.2341 99.6488 80.8075 101.46 88.0052C103.272 95.203 107.177 101.702 112.682 106.68C118.187 111.659 125.045 114.893 132.388 115.974C139.731 117.056 147.23 115.935 153.936 112.755C160.642 109.575 166.255 104.477 170.064 98.1072C173.874 91.7372 175.709 84.3806 175.338 76.9677C174.842 67.3594 170.681 58.3072 163.71 51.6758C156.74 45.0443 147.491 41.339 137.87 41.3228V41.3155Z" fill="#1D1E1B"/>
<path d="M167.855 133.198C170.964 133.198 173.484 130.678 173.484 127.57C173.484 124.461 170.964 121.941 167.855 121.941C164.747 121.941 162.227 124.461 162.227 127.57C162.227 130.678 164.747 133.198 167.855 133.198Z" fill="white"/>
<path d="M167.855 133.745C166.634 133.745 165.44 133.383 164.424 132.704C163.409 132.026 162.617 131.061 162.15 129.933C161.682 128.805 161.56 127.563 161.798 126.365C162.037 125.167 162.625 124.067 163.488 123.203C164.352 122.339 165.452 121.751 166.65 121.513C167.848 121.275 169.09 121.397 170.218 121.865C171.347 122.332 172.311 123.124 172.99 124.139C173.668 125.155 174.03 126.348 174.03 127.57C174.025 129.206 173.372 130.773 172.215 131.93C171.058 133.087 169.491 133.739 167.855 133.745ZM167.855 122.488C166.85 122.488 165.867 122.786 165.032 123.344C164.196 123.903 163.545 124.697 163.16 125.625C162.775 126.554 162.675 127.576 162.871 128.561C163.067 129.547 163.551 130.452 164.262 131.163C164.972 131.874 165.878 132.358 166.864 132.554C167.849 132.75 168.871 132.649 169.8 132.265C170.728 131.88 171.522 131.229 172.08 130.393C172.639 129.557 172.937 128.575 172.937 127.57C172.931 126.224 172.394 124.935 171.442 123.983C170.49 123.031 169.201 122.494 167.855 122.488Z" fill="#1D1E1B"/>
<path d="M120.1 89.1035L126.366 100.131C126.656 100.64 127.083 101.058 127.599 101.337C128.114 101.616 128.698 101.745 129.283 101.709C134.568 101.345 149.041 99.1284 156.572 85.2612C156.821 84.7956 156.948 84.2744 156.94 83.7465C156.933 83.2185 156.791 82.7011 156.528 82.2429L148.625 68.2954" fill="#382256"/>
<path d="M129.095 102.264C128.445 102.262 127.806 102.088 127.244 101.761C126.681 101.434 126.215 100.965 125.891 100.401L119.621 89.3735L120.573 88.834L126.843 99.8614C127.08 100.286 127.433 100.634 127.861 100.865C128.289 101.095 128.775 101.199 129.26 101.163C134.892 100.798 148.781 98.4797 156.104 85.0026C156.309 84.6181 156.412 84.1883 156.406 83.753C156.4 83.3177 156.283 82.8911 156.068 82.5127L148.165 68.5654L149.116 68.0259L157.02 81.9732C157.325 82.5136 157.489 83.122 157.497 83.7425C157.505 84.363 157.357 84.9756 157.067 85.5239C149.484 99.4823 135.143 101.874 129.332 102.256L129.095 102.264Z" fill="#1D1E1B"/>
<path d="M121.685 91.8922C121.685 91.8922 147.995 87.8241 150.776 72.0649L148.64 68.2954L120.1 89.1035L121.685 91.8922Z" fill="#050505"/>
<path d="M109.253 90.3395L123.106 65.8895C123.29 65.5602 123.581 65.3032 123.93 65.1604L152.124 53.5535C152.435 53.4254 152.778 53.3939 153.108 53.463C153.437 53.5322 153.739 53.6989 153.972 53.9413C154.206 54.1838 154.362 54.4909 154.419 54.8228C154.476 55.1547 154.432 55.496 154.293 55.8027L144.046 78.3534C143.871 78.7354 143.561 79.0383 143.174 79.2026L111.361 92.709C111.039 92.841 110.683 92.8696 110.344 92.7911C110.005 92.7126 109.699 92.5307 109.468 92.2706C109.237 92.0105 109.092 91.6851 109.053 91.3391C109.015 90.9932 109.085 90.6439 109.253 90.3395Z" fill="#382256"/>
<path d="M110.693 93.4089C110.304 93.4062 109.923 93.302 109.587 93.1066C109.252 92.9112 108.973 92.6316 108.779 92.2951C108.584 91.9587 108.482 91.5773 108.48 91.1889C108.479 90.8004 108.579 90.4183 108.772 90.0806L122.624 65.6307C122.871 65.1964 123.256 64.8575 123.718 64.6684L151.911 53.0612C152.324 52.8921 152.779 52.8509 153.215 52.9429C153.652 53.0348 154.051 53.2558 154.36 53.5771C154.67 53.8984 154.876 54.3052 154.951 54.7449C155.027 55.1847 154.969 55.637 154.784 56.0433L144.541 78.5938C144.308 79.1004 143.894 79.5021 143.381 79.7204L111.571 93.2266C111.294 93.3456 110.995 93.4076 110.693 93.4089ZM109.723 90.6202C109.605 90.8257 109.555 91.0631 109.58 91.2987C109.604 91.5343 109.702 91.7562 109.86 91.9331C110.017 92.11 110.226 92.2329 110.458 92.2845C110.689 92.336 110.931 92.3137 111.148 92.2206L142.962 78.7141C143.223 78.6051 143.433 78.4004 143.549 78.1419L153.796 55.5912C153.891 55.3848 153.922 55.1549 153.884 54.931C153.846 54.707 153.741 54.4996 153.584 54.3359C153.427 54.1722 153.224 54.0598 153.001 54.0132C152.779 53.9666 152.548 53.9881 152.338 54.0748L124.144 65.6818C123.91 65.7779 123.715 65.9499 123.59 66.1702L109.723 90.6202Z" fill="#1D1E1B"/>
<path d="M141.027 77.7337C140.845 77.7336 140.665 77.688 140.505 77.6011C140.345 77.5141 140.209 77.3885 140.11 77.2356C140.011 77.0828 139.951 76.9075 139.937 76.7258C139.923 76.5442 139.954 76.3617 140.028 76.1952L148.529 57.1735C148.588 57.0423 148.672 56.9239 148.776 56.8252C148.88 56.7264 149.003 56.6493 149.137 56.598C149.272 56.5467 149.415 56.5223 149.558 56.5263C149.702 56.5303 149.843 56.5625 149.975 56.6212C150.106 56.6798 150.224 56.7637 150.323 56.8681C150.422 56.9724 150.499 57.0954 150.55 57.2296C150.601 57.3638 150.626 57.5067 150.622 57.6504C150.618 57.794 150.586 57.9354 150.527 58.0665L142.044 77.0993C141.955 77.2925 141.811 77.4556 141.63 77.5683C141.449 77.681 141.24 77.7384 141.027 77.7337Z" fill="white"/>
<path d="M163.264 83.5406C163.242 83.5578 163.218 83.5705 163.192 83.578C163.165 83.5855 163.137 83.5876 163.11 83.5842C163.083 83.5808 163.057 83.572 163.033 83.5582C163.009 83.5445 162.989 83.5261 162.972 83.5041C162.243 82.5308 158.827 77.5474 161.798 73.9093C164.828 70.2019 169.454 77.2413 170.183 78.4516C170.212 78.4971 170.221 78.5521 170.21 78.6047C170.198 78.6573 170.166 78.7032 170.121 78.7323L166.18 81.2512C166.135 81.2792 166.082 81.2888 166.03 81.2779C165.978 81.267 165.933 81.2366 165.903 81.193L164.15 78.5937C164.122 78.5526 164.081 78.5229 164.034 78.5098C163.986 78.4968 163.936 78.5013 163.891 78.5226C163.847 78.5439 163.812 78.5807 163.792 78.6259C163.773 78.6711 163.77 78.7217 163.785 78.7686L164.853 82.0751C164.866 82.1145 164.867 82.1568 164.855 82.1965C164.843 82.2363 164.82 82.2714 164.788 82.2975L163.264 83.5406Z" fill="white"/>
<path d="M163.133 84.1312H163.042C162.942 84.118 162.845 84.0848 162.758 84.0335C162.671 83.9821 162.595 83.9137 162.535 83.8323C161.773 82.8116 158.161 77.522 161.376 73.5668C161.674 73.1531 162.071 72.8209 162.531 72.6006C162.991 72.3802 163.499 72.2787 164.008 72.3055C166.903 72.4914 169.841 76.8368 170.65 78.1673C170.755 78.3347 170.789 78.5368 170.746 78.7295C170.702 78.9221 170.584 79.0895 170.417 79.1953L166.48 81.7143C166.315 81.8212 166.115 81.8591 165.922 81.8195C165.73 81.78 165.561 81.6661 165.452 81.5029L165.054 80.9124L165.379 81.9112C165.425 82.0557 165.427 82.2108 165.384 82.3564C165.341 82.5019 165.255 82.6314 165.138 82.7278L163.611 83.9673C163.475 84.0746 163.306 84.1324 163.133 84.1312ZM163.815 73.3882C163.5 73.3992 163.192 73.4833 162.916 73.6339C162.639 73.7845 162.402 73.9974 162.222 74.2558C159.728 77.3107 162.255 81.5211 163.202 82.8845L164.267 82.0205L163.268 78.9402C163.211 78.7676 163.218 78.58 163.289 78.4124C163.359 78.2448 163.488 78.1086 163.652 78.0288C163.815 77.9491 164.002 77.9314 164.177 77.979C164.353 78.0266 164.505 78.1363 164.606 78.2877L166.173 80.6098L169.542 78.4553C168.044 76.1296 165.751 73.5084 163.939 73.3918L163.815 73.3882Z" fill="black"/>
<path d="M155.101 55.5977L154.084 56.0005L161.295 74.2038L162.312 73.8011L155.101 55.5977Z" fill="#1D1E1B"/>
<path d="M113.585 36.7256C113.585 36.7256 94.6285 44.381 91.3477 69.8989L113.585 36.7256Z" fill="white"/>
<path d="M91.8905 69.9686L90.7969 69.8299C92.5139 56.495 98.5434 48.0742 103.304 43.357C108.47 38.2352 113.176 36.2994 113.373 36.2192L113.781 37.2326C113.734 37.2545 109.042 39.1865 104.037 44.1589C99.4221 48.7631 93.5601 56.9544 91.8905 69.9686Z" fill="#1D1E1B"/>
<path d="M240.575 277.386L239.54 274.798C239.351 274.324 239.26 273.817 239.273 273.307C239.285 272.797 239.401 272.294 239.613 271.83L259.028 229.788C259.297 229.164 259.755 228.641 260.339 228.293C260.922 227.945 261.6 227.789 262.276 227.848C270.879 228.767 301.545 232.675 308.621 242.357C314.982 251.066 312.707 244.985 311.329 241.741C311.096 241.193 310.997 240.598 311.04 240.004C311.082 239.41 311.265 238.835 311.573 238.325C314.125 234.169 321.832 223.784 336.417 220.7C337.133 220.563 337.875 220.675 338.519 221.017C339.164 221.359 339.672 221.911 339.96 222.581L341.076 224.965C341.375 225.606 341.485 226.319 341.395 227.02C341.304 227.722 341.017 228.383 340.565 228.927L315.233 258.78C314.818 259.272 314.266 259.631 313.648 259.812L244.41 279.402C243.634 279.604 242.811 279.51 242.102 279.137C241.393 278.764 240.848 278.14 240.575 277.386Z" fill="white"/>
<path d="M243.593 280.054C242.826 280.041 242.08 279.799 241.452 279.359C240.823 278.918 240.341 278.3 240.068 277.583L239.029 274.995C238.813 274.452 238.709 273.871 238.724 273.287C238.739 272.703 238.872 272.128 239.116 271.597L258.532 229.551C258.851 228.825 259.389 228.217 260.071 227.813C260.753 227.409 261.544 227.229 262.334 227.298C271.484 228.275 301.898 232.223 309.061 242.029C310.84 244.464 311.784 245.51 312.269 245.962C311.899 244.586 311.411 243.245 310.811 241.952C310.543 241.324 310.429 240.642 310.478 239.961C310.527 239.28 310.737 238.621 311.092 238.037C313.76 233.703 321.561 223.277 336.289 220.175C337.126 220.014 337.994 220.143 338.748 220.54C339.503 220.938 340.1 221.58 340.441 222.362L341.557 224.75C341.902 225.485 342.03 226.303 341.926 227.108C341.822 227.913 341.49 228.672 340.97 229.295L315.634 259.148C315.149 259.723 314.505 260.142 313.782 260.351L244.544 279.941C244.234 280.022 243.914 280.06 243.593 280.054ZM241.081 277.174C241.302 277.804 241.752 278.327 242.341 278.641C242.929 278.954 243.615 279.035 244.26 278.866L313.498 259.275C314.012 259.129 314.471 258.83 314.814 258.419L340.149 228.566C340.531 228.101 340.774 227.538 340.85 226.94C340.926 226.343 340.832 225.737 340.58 225.191L339.464 222.803C339.226 222.247 338.806 221.788 338.273 221.501C337.739 221.215 337.125 221.119 336.53 221.228C322.218 224.254 314.635 234.388 312.036 238.602C311.776 239.039 311.623 239.53 311.587 240.036C311.552 240.543 311.635 241.05 311.832 241.519C313.873 246.323 313.578 246.987 313.024 247.289C312.47 247.592 311.704 247.497 308.179 242.674C301.278 233.229 271.258 229.35 262.217 228.384C261.654 228.335 261.089 228.465 260.605 228.758C260.121 229.05 259.742 229.489 259.523 230.01L240.108 272.06C239.924 272.459 239.824 272.891 239.813 273.329C239.802 273.768 239.882 274.205 240.046 274.612L241.081 277.174Z" fill="black"/>
<path d="M260.948 235.945L240.898 274.882C240.691 275.284 240.588 275.731 240.598 276.183C240.609 276.635 240.732 277.078 240.958 277.47C241.184 277.862 241.504 278.191 241.889 278.427C242.275 278.664 242.714 278.799 243.166 278.822L295.981 281.44L326.602 264.481L345.099 229.54C345.297 229.168 345.374 228.745 345.32 228.327C345.266 227.91 345.084 227.52 344.798 227.211C344.513 226.902 344.138 226.689 343.726 226.603C343.314 226.517 342.886 226.561 342.5 226.729L316.253 238.095C316.253 238.095 311.248 240.8 308.331 238.741L267.433 232.631C266.141 232.434 264.82 232.648 263.657 233.243C262.493 233.838 261.546 234.783 260.948 235.945Z" fill="#382256"/>
<path d="M296.105 282.001H295.949L243.134 279.384C242.59 279.357 242.062 279.194 241.597 278.911C241.133 278.627 240.747 278.231 240.475 277.759C240.204 277.288 240.054 276.755 240.042 276.211C240.029 275.667 240.154 275.128 240.403 274.645L260.453 235.708C261.102 234.448 262.129 233.423 263.39 232.777C264.652 232.131 266.084 231.897 267.485 232.106L308.511 238.234L308.62 238.311C311.223 240.134 315.911 237.655 315.962 237.629L316.006 237.607L342.271 226.241C342.761 226.03 343.304 225.976 343.825 226.087C344.347 226.198 344.821 226.467 345.183 226.859C345.545 227.25 345.776 227.744 345.846 228.273C345.915 228.801 345.819 229.338 345.57 229.81L326.997 264.893L326.855 264.973L296.105 282.001ZM266.494 233.116C265.448 233.117 264.423 233.405 263.531 233.95C262.638 234.495 261.913 235.274 261.434 236.204L241.384 275.14C241.219 275.462 241.137 275.82 241.146 276.182C241.155 276.543 241.255 276.897 241.437 277.21C241.618 277.523 241.875 277.785 242.184 277.972C242.494 278.16 242.845 278.267 243.207 278.283L295.865 280.893L326.209 264.088L344.633 229.292C344.777 229.02 344.833 228.711 344.793 228.406C344.753 228.102 344.62 227.817 344.412 227.592C344.203 227.366 343.93 227.211 343.629 227.147C343.329 227.083 343.016 227.114 342.734 227.236L316.487 238.595C316.068 238.817 311.216 241.315 308.124 239.27L267.35 233.182C267.067 233.137 266.78 233.116 266.494 233.116Z" fill="#1D1E1B"/>
<path d="M294.836 266.315C294.748 266.315 294.662 266.294 294.585 266.253C294.458 266.186 294.363 266.072 294.319 265.936C294.275 265.8 294.287 265.652 294.351 265.524L307.074 241.027C307.105 240.959 307.149 240.899 307.204 240.85C307.259 240.8 307.323 240.762 307.393 240.738C307.463 240.714 307.537 240.705 307.611 240.71C307.685 240.715 307.757 240.736 307.822 240.77C307.888 240.804 307.946 240.851 307.993 240.908C308.04 240.965 308.075 241.031 308.096 241.102C308.116 241.174 308.122 241.248 308.113 241.321C308.104 241.395 308.081 241.466 308.043 241.53L295.325 266.027C295.277 266.115 295.207 266.188 295.121 266.239C295.035 266.29 294.936 266.316 294.836 266.315Z" fill="black"/>
<path d="M301.628 266.446C301.546 266.448 301.464 266.429 301.391 266.392C301.261 266.329 301.161 266.217 301.113 266.08C301.065 265.943 301.073 265.793 301.136 265.663L313.147 240.721C313.21 240.59 313.323 240.489 313.46 240.441C313.597 240.392 313.748 240.401 313.879 240.464C314.01 240.526 314.11 240.639 314.158 240.776C314.207 240.913 314.198 241.063 314.135 241.194L302.105 266.136C302.063 266.227 301.995 266.305 301.911 266.359C301.827 266.414 301.728 266.444 301.628 266.446Z" fill="black"/>
<path d="M252.159 276.267L293.149 283.802L347.331 276.267C347.331 276.267 344.972 280.977 347.801 284.746L292.204 296.995L250.282 286.631C250.282 286.631 247.449 280.055 252.159 276.267Z" fill="white"/>
<path d="M292.205 297.553C292.162 297.558 292.117 297.558 292.074 297.553L250.151 287.185C250.071 287.164 249.996 287.125 249.933 287.07C249.87 287.016 249.82 286.948 249.787 286.872C249.758 286.802 246.852 279.847 251.832 275.862C251.893 275.814 251.964 275.779 252.041 275.76C252.117 275.741 252.196 275.739 252.273 275.753L293.175 283.277L347.269 275.749C347.368 275.737 347.468 275.751 347.559 275.79C347.65 275.83 347.729 275.894 347.787 275.974C347.845 276.055 347.88 276.15 347.888 276.249C347.897 276.348 347.878 276.448 347.834 276.537C347.812 276.581 345.669 280.999 348.254 284.444C348.308 284.517 348.343 284.603 348.356 284.693C348.369 284.784 348.358 284.876 348.326 284.961C348.295 285.047 348.243 285.124 348.174 285.184C348.105 285.244 348.022 285.285 347.933 285.304L292.34 297.556C292.295 297.56 292.25 297.558 292.205 297.553ZM250.68 286.168L292.212 296.434L346.894 284.385C345.217 281.546 345.932 278.443 346.46 276.938L293.218 284.345C293.161 284.354 293.101 284.354 293.044 284.345L252.306 276.854C248.671 279.971 250.239 284.983 250.68 286.168Z" fill="black"/>
<path d="M292.204 298.646C292.07 298.647 291.936 298.631 291.806 298.599L249.884 288.235C249.457 288.128 249.09 287.857 248.863 287.48C247.244 284.783 246.756 282.213 247.405 279.843C248.327 276.478 251.254 274.871 251.378 274.805C251.707 274.628 252.086 274.567 252.454 274.634L295.382 278.279L348.941 272.738C349.368 272.678 349.801 272.787 350.149 273.042C350.496 273.297 350.731 273.677 350.803 274.102C350.874 274.527 350.778 274.963 350.533 275.318C350.288 275.672 349.914 275.917 349.491 276.001L294.128 285.326C293.94 285.359 293.748 285.359 293.56 285.326L252.523 278.002C251.596 278.681 250.917 279.643 250.587 280.744C250.223 282.049 250.503 283.539 251.367 285.184L292.236 295.296L349.342 283.128C349.556 283.079 349.777 283.073 349.994 283.11C350.21 283.147 350.417 283.227 350.602 283.346C350.787 283.464 350.947 283.617 351.072 283.798C351.197 283.978 351.285 284.182 351.33 284.396C351.376 284.611 351.379 284.833 351.338 285.048C351.297 285.264 351.214 285.469 351.093 285.653C350.972 285.836 350.816 285.993 350.633 286.115C350.451 286.238 350.246 286.322 350.031 286.365L292.553 298.613C292.438 298.637 292.321 298.648 292.204 298.646Z" fill="#07ACEE"/>
<path d="M292.204 299.197C292.026 299.196 291.849 299.175 291.675 299.135L249.753 288.767C249.471 288.698 249.206 288.573 248.973 288.401C248.74 288.229 248.543 288.013 248.393 287.765C246.694 284.936 246.188 282.224 246.88 279.701C247.865 276.117 250.989 274.397 251.12 274.328C251.55 274.097 252.045 274.015 252.527 274.094L295.379 277.74L348.89 272.206C349.453 272.111 350.031 272.242 350.498 272.571C350.86 272.819 351.139 273.171 351.298 273.58C351.458 273.989 351.49 274.436 351.392 274.864C351.294 275.292 351.069 275.68 350.747 275.978C350.425 276.277 350.021 276.471 349.587 276.537L294.212 285.887C293.964 285.933 293.71 285.933 293.461 285.887L252.666 278.596C251.925 279.188 251.384 279.992 251.113 280.9C250.817 281.994 251.025 283.295 251.736 284.728L292.237 294.735L349.226 282.606C349.509 282.546 349.801 282.542 350.085 282.595C350.37 282.647 350.641 282.755 350.884 282.913C351.126 283.07 351.336 283.274 351.5 283.512C351.664 283.75 351.779 284.019 351.839 284.301C351.9 284.584 351.904 284.877 351.851 285.161C351.799 285.446 351.691 285.717 351.533 285.96C351.376 286.202 351.172 286.412 350.934 286.576C350.696 286.74 350.427 286.855 350.144 286.915L292.663 299.164C292.512 299.191 292.358 299.202 292.204 299.197ZM252.159 275.159C251.976 275.158 251.795 275.203 251.634 275.29C249.85 276.333 248.526 278.011 247.927 279.989C247.318 282.213 247.784 284.637 249.323 287.2C249.475 287.452 249.722 287.635 250.008 287.706L291.931 298.07C292.095 298.107 292.265 298.107 292.43 298.07L349.907 285.818C350.05 285.79 350.186 285.733 350.307 285.651C350.428 285.569 350.531 285.464 350.61 285.342C350.69 285.219 350.744 285.082 350.77 284.939C350.796 284.795 350.792 284.648 350.76 284.506C350.732 284.362 350.675 284.226 350.593 284.105C350.511 283.984 350.405 283.881 350.283 283.801C350.16 283.722 350.023 283.668 349.879 283.642C349.735 283.617 349.587 283.62 349.444 283.653L292.339 295.821C292.258 295.839 292.175 295.839 292.094 295.821L251.226 285.72C251.149 285.702 251.077 285.668 251.014 285.62C250.951 285.572 250.899 285.512 250.861 285.442C249.931 283.674 249.654 282.049 250.037 280.609C250.399 279.39 251.149 278.322 252.173 277.569C252.234 277.523 252.303 277.491 252.376 277.473C252.449 277.456 252.526 277.453 252.6 277.466L293.655 284.794C293.776 284.812 293.899 284.812 294.019 284.794L349.382 275.469C349.672 275.419 349.93 275.256 350.1 275.016C350.271 274.777 350.339 274.479 350.29 274.189C350.268 274.045 350.217 273.907 350.14 273.783C350.063 273.659 349.962 273.551 349.844 273.466C349.725 273.382 349.59 273.322 349.448 273.29C349.305 273.258 349.158 273.255 349.014 273.281L295.426 278.826C295.393 278.83 295.358 278.83 295.324 278.826L252.396 275.181H252.348C252.286 275.168 252.223 275.161 252.159 275.159Z" fill="#1D1D1B"/>
<path d="M250.573 267.379L313.639 261.911L348.249 263.275C348.681 263.29 349.103 263.411 349.478 263.627C349.853 263.843 350.169 264.148 350.4 264.514C351.336 266.02 352.259 268.834 349.445 272.275L296.221 281.228L251.32 275.447C251.166 275.429 251.02 275.366 250.902 275.264C250.785 275.163 250.701 275.028 250.661 274.877C250.622 274.727 250.629 274.568 250.681 274.422C250.734 274.275 250.83 274.148 250.956 274.058C252.29 273.099 253.143 271.418 250.132 268.743C250.012 268.645 249.925 268.513 249.881 268.364C249.837 268.216 249.839 268.058 249.887 267.91C249.935 267.763 250.026 267.634 250.148 267.539C250.271 267.444 250.419 267.388 250.573 267.379Z" fill="#4BD657"/>
<path d="M296.222 281.764L251.241 275.975C250.979 275.942 250.732 275.83 250.534 275.654C250.336 275.479 250.196 275.247 250.131 274.991C250.067 274.734 250.081 274.464 250.172 274.215C250.264 273.967 250.428 273.752 250.643 273.598C251.274 273.143 251.609 272.64 251.638 272.093C251.679 271.273 251.033 270.252 249.772 269.14C249.579 268.968 249.441 268.742 249.376 268.492C249.311 268.241 249.322 267.977 249.407 267.733C249.485 267.487 249.634 267.27 249.837 267.11C250.039 266.95 250.284 266.855 250.541 266.836L313.644 261.35H313.68L348.286 262.717C348.808 262.733 349.318 262.878 349.77 263.138C350.223 263.398 350.605 263.765 350.882 264.208C351.833 265.731 352.963 268.848 349.887 272.592L349.759 272.753L296.222 281.764ZM313.655 262.443L250.621 267.911C250.578 267.914 250.536 267.929 250.502 267.956C250.467 267.983 250.441 268.019 250.428 268.061C250.415 268.104 250.414 268.15 250.427 268.193C250.439 268.236 250.464 268.275 250.497 268.305C252.039 269.665 252.79 270.952 252.729 272.133C252.685 273.03 252.196 273.813 251.27 274.473C251.232 274.498 251.203 274.535 251.187 274.577C251.171 274.62 251.168 274.666 251.179 274.71C251.189 274.754 251.213 274.794 251.247 274.823C251.281 274.853 251.324 274.871 251.369 274.874L296.189 280.645L349.143 271.743C351.505 268.743 350.882 266.304 349.93 264.773C349.747 264.482 349.495 264.241 349.197 264.07C348.899 263.899 348.564 263.804 348.22 263.792L313.655 262.443Z" fill="black"/>
<path d="M248.627 267.551L296.382 273.321C296.382 273.321 302.011 277.627 295.722 281.268L248.638 275.071C248.638 275.071 251.922 272.731 248.627 267.551Z" fill="white"/>
<path d="M295.711 281.815H295.638L248.554 275.618C248.445 275.604 248.342 275.558 248.26 275.485C248.178 275.412 248.119 275.315 248.093 275.209C248.066 275.102 248.072 274.99 248.11 274.887C248.148 274.783 248.216 274.694 248.306 274.63C248.423 274.55 251.124 272.483 248.164 267.832C248.109 267.744 248.079 267.643 248.079 267.539C248.079 267.436 248.109 267.334 248.164 267.247C248.219 267.16 248.298 267.09 248.392 267.045C248.485 267.001 248.59 266.984 248.692 266.997L296.447 272.767C296.544 272.781 296.635 272.818 296.713 272.877C296.827 272.961 299.404 274.966 299.24 277.554C299.138 279.14 298.044 280.543 295.995 281.731C295.91 281.785 295.812 281.814 295.711 281.815ZM249.731 274.681L295.594 280.703C297.206 279.734 298.062 278.655 298.146 277.495C298.259 275.746 296.608 274.215 296.159 273.85L249.658 268.229C251.332 271.455 250.5 273.595 249.731 274.681Z" fill="black"/>
<path d="M299.68 273.209C299.556 273.204 299.437 273.158 299.343 273.077C299.249 272.996 299.186 272.886 299.163 272.764C299.15 272.693 299.152 272.621 299.168 272.551C299.184 272.481 299.213 272.414 299.255 272.356C299.297 272.298 299.35 272.248 299.411 272.211C299.472 272.173 299.54 272.148 299.611 272.137L345.966 264.522C346.111 264.498 346.26 264.534 346.378 264.62C346.497 264.706 346.577 264.836 346.6 264.981C346.624 265.126 346.588 265.274 346.502 265.393C346.416 265.512 346.286 265.592 346.141 265.615L299.79 273.23L299.68 273.209Z" fill="#1D1E1B"/>
<path d="M307.628 287.775C307.483 287.789 307.338 287.744 307.226 287.651C307.114 287.558 307.043 287.425 307.03 287.28C307.016 287.135 307.061 286.99 307.154 286.878C307.247 286.766 307.38 286.695 307.525 286.682L345.934 279.391C346.076 279.364 346.224 279.395 346.344 279.476C346.464 279.558 346.547 279.684 346.574 279.827C346.601 279.969 346.57 280.117 346.488 280.237C346.406 280.357 346.28 280.439 346.138 280.466L307.73 287.757C307.696 287.767 307.662 287.773 307.628 287.775Z" fill="#1D1E1B"/>
<path d="M292.966 295.69C292.848 295.689 292.733 295.651 292.639 295.58C292.544 295.509 292.475 295.41 292.442 295.296C290.637 289.121 293.171 285.413 293.28 285.257C293.364 285.138 293.491 285.057 293.634 285.032C293.778 285.007 293.925 285.04 294.044 285.124C294.163 285.207 294.243 285.335 294.268 285.478C294.293 285.621 294.26 285.768 294.177 285.887C294.151 285.92 291.844 289.351 293.491 295.001C293.516 295.083 293.521 295.169 293.506 295.253C293.491 295.337 293.457 295.416 293.406 295.485C293.355 295.553 293.289 295.609 293.212 295.647C293.136 295.685 293.052 295.705 292.966 295.705V295.69Z" fill="#1D1E1B"/>
<path d="M301.142 276.045C300.852 276.067 300.564 275.974 300.343 275.785C300.122 275.596 299.985 275.327 299.962 275.037C299.94 274.747 300.033 274.459 300.222 274.238C300.411 274.017 300.68 273.88 300.97 273.857L333.415 268.754C333.701 268.708 333.994 268.779 334.229 268.949C334.464 269.12 334.621 269.377 334.667 269.663C334.712 269.95 334.642 270.243 334.471 270.478C334.301 270.712 334.044 270.87 333.757 270.916L301.313 276.019L301.142 276.045Z" fill="white"/>
<path d="M250.835 262.921C250.645 262.921 250.458 262.872 250.292 262.778C250.127 262.683 249.989 262.548 249.892 262.384C249.796 262.22 249.743 262.034 249.74 261.844C249.738 261.653 249.784 261.465 249.876 261.299L263 237.604C263.141 237.35 263.376 237.162 263.655 237.082C263.934 237.002 264.233 237.036 264.487 237.177C264.741 237.318 264.929 237.554 265.009 237.833C265.089 238.111 265.054 238.411 264.914 238.665L251.79 262.36C251.695 262.53 251.557 262.672 251.389 262.77C251.221 262.869 251.03 262.921 250.835 262.921Z" fill="white"/>
<path d="M148.159 278.761L218.684 269.017C218.902 268.989 219.102 268.882 219.248 268.717C219.393 268.552 219.473 268.34 219.473 268.12C219.473 267.9 219.393 267.687 219.248 267.522C219.102 267.357 218.902 267.251 218.684 267.223L147.999 257.923C147.937 257.916 147.875 257.916 147.813 257.923L111.723 260.701C111.522 260.716 111.332 260.798 111.183 260.933C111.034 261.069 110.934 261.25 110.9 261.449C110.866 261.647 110.898 261.851 110.993 262.029C111.088 262.207 111.24 262.347 111.424 262.429L147.678 278.699C147.829 278.764 147.996 278.786 148.159 278.761Z" fill="#4BD657"/>
<path d="M148.035 279.326C147.83 279.325 147.627 279.282 147.44 279.198L111.186 262.921C110.896 262.786 110.658 262.559 110.509 262.274C110.361 261.99 110.31 261.664 110.366 261.348C110.421 261.032 110.579 260.744 110.815 260.526C111.051 260.309 111.352 260.176 111.671 260.147L147.761 257.373C147.862 257.362 147.963 257.362 148.064 257.373L218.745 266.673C219.087 266.727 219.399 266.902 219.624 267.166C219.849 267.43 219.973 267.766 219.973 268.113C219.973 268.459 219.849 268.795 219.624 269.059C219.399 269.323 219.087 269.498 218.745 269.552L148.242 279.304C148.173 279.315 148.104 279.322 148.035 279.326ZM147.878 258.47H147.848L111.759 261.248C111.678 261.25 111.6 261.281 111.54 261.335C111.48 261.389 111.441 261.463 111.431 261.543C111.418 261.622 111.431 261.703 111.469 261.773C111.506 261.844 111.566 261.9 111.638 261.933L147.892 278.199C147.954 278.227 148.022 278.237 148.089 278.229L218.599 268.477C218.68 268.459 218.752 268.414 218.803 268.349C218.855 268.284 218.883 268.204 218.883 268.122C218.883 268.039 218.855 267.959 218.803 267.894C218.752 267.83 218.68 267.785 218.599 267.766L147.918 258.463L147.878 258.47Z" fill="black"/>
<path d="M126.523 257.763L127.329 257.916L177.29 267.43C177.473 267.464 177.639 267.562 177.756 267.707C177.874 267.853 177.935 268.035 177.929 268.222C177.924 268.408 177.851 268.587 177.725 268.724C177.599 268.862 177.428 268.95 177.242 268.972L134.799 274.316" fill="#382256"/>
<path d="M134.867 274.86L134.729 273.766L177.172 268.422C177.226 268.412 177.275 268.384 177.31 268.342C177.345 268.3 177.365 268.247 177.365 268.192C177.365 268.137 177.345 268.084 177.31 268.042C177.275 268 177.226 267.972 177.172 267.963L126.402 258.291L126.61 257.216L177.406 266.894C177.717 266.953 177.997 267.121 178.195 267.368C178.393 267.615 178.496 267.924 178.486 268.241C178.476 268.557 178.353 268.86 178.14 269.093C177.926 269.327 177.636 269.477 177.322 269.515L134.867 274.86Z" fill="#1D1E1B"/>
<path d="M54.9598 196.71L117.333 203.206C118.216 203.297 119.058 203.627 119.768 204.16C120.478 204.693 121.03 205.409 121.365 206.231L148.425 272.578C148.759 273.396 148.866 274.289 148.734 275.162C148.602 276.036 148.237 276.857 147.677 277.54C147.117 278.223 146.382 278.742 145.552 279.043C144.721 279.343 143.824 279.413 142.957 279.245L77.5469 266.683C76.7355 266.531 75.9759 266.177 75.3385 265.652C74.7011 265.128 74.2066 264.45 73.9015 263.683L49.8781 203.41C49.5627 202.624 49.4563 201.77 49.5691 200.93C49.6819 200.091 50.0102 199.296 50.5219 198.621C51.0336 197.946 51.7113 197.415 52.489 197.08C53.2667 196.746 54.118 196.618 54.9598 196.71Z" fill="#4BD657"/>
<path d="M143.918 279.88C143.561 279.88 143.205 279.846 142.854 279.778L77.4475 267.216C76.5482 267.045 75.7066 266.65 75.0011 266.067C74.2955 265.483 73.7489 264.731 73.4121 263.88L49.3887 203.603C49.0407 202.732 48.9235 201.785 49.0487 200.855C49.174 199.926 49.5375 199.044 50.1037 198.296C50.67 197.548 51.4198 196.959 52.2807 196.585C53.1415 196.212 54.0842 196.068 55.0172 196.166L117.387 202.662C118.369 202.764 119.304 203.13 120.094 203.722C120.884 204.314 121.498 205.11 121.871 206.023L148.931 272.37C149.264 273.196 149.39 274.09 149.299 274.975C149.208 275.86 148.902 276.71 148.408 277.45C147.915 278.191 147.247 278.799 146.465 279.223C145.682 279.647 144.808 279.874 143.918 279.883V279.88ZM54.4412 197.227C53.7321 197.233 53.035 197.412 52.4101 197.747C51.7852 198.082 51.2511 198.564 50.854 199.152C50.4569 199.74 50.2085 200.415 50.1304 201.12C50.0524 201.825 50.1469 202.538 50.4058 203.198L74.4292 263.475C74.6971 264.156 75.1333 264.757 75.6969 265.223C76.2605 265.689 76.933 266.005 77.6517 266.14L143.062 278.702C143.832 278.85 144.628 278.788 145.366 278.521C146.104 278.254 146.756 277.793 147.253 277.186C147.75 276.579 148.075 275.849 148.192 275.074C148.309 274.298 148.214 273.505 147.917 272.779L120.857 206.432C120.56 205.701 120.07 205.064 119.438 204.59C118.807 204.116 118.059 203.823 117.274 203.742L54.9188 197.253C54.7475 197.238 54.5943 197.227 54.4412 197.227Z" fill="black"/>
<path d="M154.048 212.137C154.048 212.137 150.192 209.435 138.1 212.002L154.048 212.137Z" fill="#07ACEE"/>
<path d="M154.045 212.683C153.935 212.684 153.827 212.651 153.736 212.589C153.677 212.549 149.795 210.081 138.214 212.538C138.071 212.568 137.923 212.54 137.801 212.461C137.68 212.381 137.594 212.257 137.565 212.115C137.535 211.973 137.562 211.824 137.642 211.703C137.721 211.581 137.845 211.496 137.987 211.466C150.17 208.881 154.195 211.575 154.363 211.688C154.481 211.772 154.561 211.899 154.586 212.042C154.611 212.185 154.577 212.332 154.494 212.45C154.444 212.523 154.377 212.582 154.299 212.623C154.221 212.663 154.134 212.684 154.045 212.683Z" fill="#1D1D1B"/>
<path d="M87.3264 212.37C79.3429 200.209 74.7461 186.852 73.6561 172.635C72.7885 161.283 74.1483 149.377 77.699 137.253C83.7395 116.623 94.1908 102.293 94.2965 102.151L95.1751 102.8C95.0731 102.942 84.7199 117.141 78.7378 137.592C73.2259 156.431 70.4044 184.589 88.2415 211.769L87.3264 212.37Z" fill="#1D1E1B"/>
<path d="M70.1272 211.072C60.8095 198.474 58.3086 184.096 57.8529 174.228C57.3571 163.558 59.0888 155.742 59.1071 155.666L60.1715 155.906C60.1715 155.983 58.4544 163.678 58.9465 174.21C59.3985 183.903 61.8629 198.055 71.0056 210.42L70.1272 211.072Z" fill="#1D1E1B"/>
<path d="M92.4044 243.458C91.7606 243.423 91.1527 243.15 90.6982 242.693C89.9781 241.975 89.4266 241.106 89.0836 240.149C88.7406 239.192 88.6148 238.171 88.7151 237.159C88.8646 236.146 89.3386 235.449 90.0494 235.194C91.4128 234.706 93.1225 236.116 93.9464 238.406C94.7666 240.695 94.3438 242.871 92.9804 243.36C92.7954 243.425 92.6005 243.459 92.4044 243.458ZM90.6217 236.189C90.5523 236.189 90.4833 236.2 90.4175 236.222C90.1113 236.335 89.8817 236.732 89.7942 237.316C89.7226 238.149 89.8317 238.988 90.1142 239.775C90.3967 240.562 90.846 241.279 91.4311 241.876C91.8722 242.274 92.3022 242.438 92.6121 242.328C93.2719 242.091 93.5417 240.506 92.9147 238.77C92.346 237.192 91.3034 236.189 90.6217 236.189Z" fill="#1D1E1B"/>
<path d="M132.724 245.423C132.509 245.424 132.298 245.36 132.119 245.242C131.939 245.123 131.798 244.954 131.714 244.756L117.133 210.124C117.02 209.857 117.018 209.556 117.128 209.287C117.237 209.019 117.449 208.804 117.716 208.692C117.983 208.579 118.284 208.577 118.553 208.687C118.822 208.796 119.036 209.008 119.149 209.275L133.73 243.906C133.786 244.039 133.815 244.181 133.816 244.325C133.817 244.468 133.79 244.611 133.735 244.744C133.681 244.877 133.601 244.998 133.501 245.1C133.4 245.202 133.279 245.283 133.147 245.339C133.013 245.395 132.869 245.423 132.724 245.423Z" fill="white"/>
<path d="M136.733 258.911C136.497 258.912 136.267 258.835 136.078 258.694C135.889 258.553 135.75 258.354 135.683 258.128L133.861 251.93C133.82 251.793 133.807 251.648 133.823 251.505C133.838 251.362 133.881 251.224 133.95 251.098C134.019 250.972 134.112 250.86 134.224 250.77C134.336 250.68 134.465 250.613 134.603 250.573C134.74 250.532 134.885 250.519 135.028 250.535C135.171 250.55 135.309 250.593 135.435 250.662C135.561 250.731 135.673 250.824 135.763 250.936C135.853 251.048 135.92 251.177 135.96 251.314L137.783 257.512C137.865 257.788 137.834 258.086 137.698 258.34C137.561 258.594 137.33 258.783 137.054 258.868C136.95 258.897 136.842 258.912 136.733 258.911Z" fill="white"/>
<defs>
<filter id="filter0_d_14083_92405" x="-4.0192" y="107.785" width="38.6829" height="38.6839" filterUnits="userSpaceOnUse" color-interpolation-filters="sRGB">
<feFlood flood-opacity="0" result="BackgroundImageFix"/>
<feColorMatrix in="SourceAlpha" type="matrix" values="0 0 0 0 0 0 0 0 0 0 0 0 0 0 0 0 0 0 127 0" result="hardAlpha"/>
<feOffset dy="2.03704"/>
<feGaussianBlur stdDeviation="5.09261"/>
<feComposite in2="hardAlpha" operator="out"/>
<feColorMatrix type="matrix" values="0 0 0 0 0 0 0 0 0 0 0 0 0 0 0 0 0 0 0.05 0"/>
<feBlend mode="normal" in2="BackgroundImageFix" result="effect1_dropShadow_14083_92405"/>
<feBlend mode="normal" in="SourceGraphic" in2="effect1_dropShadow_14083_92405" result="shape"/>
</filter>
<filter id="filter1_d_14083_92405" x="370.649" y="165.21" width="38.6888" height="38.6883" filterUnits="userSpaceOnUse" color-interpolation-filters="sRGB">
<feFlood flood-opacity="0" result="BackgroundImageFix"/>
<feColorMatrix in="SourceAlpha" type="matrix" values="0 0 0 0 0 0 0 0 0 0 0 0 0 0 0 0 0 0 127 0" result="hardAlpha"/>
<feOffset dy="2.03704"/>
<feGaussianBlur stdDeviation="5.09261"/>
<feComposite in2="hardAlpha" operator="out"/>
<feColorMatrix type="matrix" values="0 0 0 0 0 0 0 0 0 0 0 0 0 0 0 0 0 0 0.05 0"/>
<feBlend mode="normal" in2="BackgroundImageFix" result="effect1_dropShadow_14083_92405"/>
<feBlend mode="normal" in="SourceGraphic" in2="effect1_dropShadow_14083_92405" result="shape"/>
</filter>
<linearGradient id="paint0_linear_14083_92405" x1="20.4547" y1="112.038" x2="392.053" y2="200.547" gradientUnits="userSpaceOnUse">
<stop stop-color="#CDD5E2"/>
<stop offset="1" stop-color="#CDD5E2" stop-opacity="0"/>
</linearGradient>
<linearGradient id="paint1_linear_14083_92405" x1="391.411" y1="195.437" x2="353.85" y2="294.044" gradientUnits="userSpaceOnUse">
<stop stop-color="#CDD5E2"/>
<stop offset="1" stop-color="#CDD5E2" stop-opacity="0"/>
</linearGradient>
<linearGradient id="paint2_linear_14083_92405" x1="196.502" y1="23.2607" x2="196.502" y2="365.006" gradientUnits="userSpaceOnUse">
<stop stop-color="#CDD5E2"/>
<stop offset="1" stop-color="#CDD5E2" stop-opacity="0"/>
</linearGradient>
<linearGradient id="paint3_linear_14083_92405" x1="196.505" y1="57.4336" x2="196.505" y2="330.83" gradientUnits="userSpaceOnUse">
<stop stop-color="#CDD5E2"/>
<stop offset="1" stop-color="#CDD5E2" stop-opacity="0"/>
</linearGradient>
</defs>
</svg>
