<svg width="406" height="302" viewBox="0 0 406 302" fill="none" xmlns="http://www.w3.org/2000/svg">
<mask id="mask0_14058_96956" style="mask-type:alpha" maskUnits="userSpaceOnUse" x="0" y="0" width="406" height="302">
<rect width="405.823" height="301.875" fill="#D9D9D9"/>
</mask>
<g mask="url(#mask0_14058_96956)">
<g opacity="0.5">
<mask id="path-2-inside-1_14058_96956" fill="white">
<path d="M389.977 202.565C391.993 156.308 377.369 110.86 348.757 74.4588C320.144 38.0574 279.437 13.1119 234.013 4.14415C188.59 -4.82363 141.456 2.77982 101.157 25.5762C60.8571 48.3727 30.0587 84.8533 14.3442 128.405L15.1839 128.708C30.8259 85.357 61.4823 49.0446 101.596 26.3532C141.71 3.66186 188.626 -3.90654 233.84 5.0199C279.055 13.9463 319.574 38.7768 348.055 75.0104C376.535 111.244 391.092 156.483 389.085 202.526L389.977 202.565Z"/>
</mask>
<path d="M389.977 202.565C391.993 156.308 377.369 110.86 348.757 74.4588C320.144 38.0574 279.437 13.1119 234.013 4.14415C188.59 -4.82363 141.456 2.77982 101.157 25.5762C60.8571 48.3727 30.0587 84.8533 14.3442 128.405L15.1839 128.708C30.8259 85.357 61.4823 49.0446 101.596 26.3532C141.71 3.66186 188.626 -3.90654 233.84 5.0199C279.055 13.9463 319.574 38.7768 348.055 75.0104C376.535 111.244 391.092 156.483 389.085 202.526L389.977 202.565Z" stroke="url(#paint0_linear_14058_96956)" stroke-width="2.84788" stroke-dasharray="4.27 4.27" mask="url(#path-2-inside-1_14058_96956)"/>
</g>
<g opacity="0.5">
<mask id="path-3-inside-2_14058_96956" fill="white">
<path d="M14.6043 260.572C30.4892 304.063 61.4301 340.422 101.819 363.061C142.207 385.699 189.37 393.118 234.758 383.973C280.146 374.827 320.756 349.723 349.225 313.21C377.695 276.697 392.141 231.192 389.944 184.943L389.052 184.986C391.239 231.021 376.86 276.316 348.521 312.661C320.183 349.006 279.761 373.994 234.582 383.098C189.403 392.201 142.457 384.816 102.255 362.282C62.0527 339.748 31.2544 303.556 15.4428 260.266L14.6043 260.572Z"/>
</mask>
<path d="M14.6043 260.572C30.4892 304.063 61.4301 340.422 101.819 363.061C142.207 385.699 189.37 393.118 234.758 383.973C280.146 374.827 320.756 349.723 349.225 313.21C377.695 276.697 392.141 231.192 389.944 184.943L389.052 184.986C391.239 231.021 376.86 276.316 348.521 312.661C320.183 349.006 279.761 373.994 234.582 383.098C189.403 392.201 142.457 384.816 102.255 362.282C62.0527 339.748 31.2544 303.556 15.4428 260.266L14.6043 260.572Z" stroke="url(#paint1_linear_14058_96956)" stroke-width="2.84788" stroke-dasharray="4.27 4.27" mask="url(#path-3-inside-2_14058_96956)"/>
</g>
<circle opacity="0.08" cx="196.502" cy="194.133" r="170.873" fill="url(#paint2_linear_14058_96956)"/>
<circle opacity="0.1" cx="196.503" cy="194.132" r="136.698" fill="url(#paint3_linear_14058_96956)"/>
<circle cx="196.503" cy="194.134" r="91.1321" fill="white"/>
<g filter="url(#filter0_d_14058_96956)">
<circle cx="15.3224" cy="125.09" r="7.11969" transform="rotate(-2.50406 15.3224 125.09)" fill="#0170FF"/>
<circle cx="15.3224" cy="125.09" r="8.13822" transform="rotate(-2.50406 15.3224 125.09)" stroke="white" stroke-width="2.03704"/>
</g>
<g filter="url(#filter1_d_14058_96956)">
<circle cx="389.995" cy="182.517" r="7.11969" transform="rotate(-15.7345 389.995 182.517)" fill="#0170FF"/>
<circle cx="389.995" cy="182.517" r="8.13822" transform="rotate(-15.7345 389.995 182.517)" stroke="white" stroke-width="2.03704"/>
</g>
</g>
<path d="M198.72 134.064C198.72 134.064 216.136 150.915 225.173 145.271C234.209 139.626 248.897 131.678 258.684 144.73C268.47 157.782 273.851 167.369 284.828 164.032C295.806 160.695 318.716 190.341 291.674 207.757C247.35 236.301 188.438 158.021 188.438 158.021L195.078 147.937L198.72 134.064Z" fill="#382256"/>
<path d="M198.722 134.064C198.722 134.064 211.5 146.428 220.845 146.428C222.369 146.462 223.871 146.06 225.175 145.271C230.604 141.879 238.073 137.655 245.295 137.655C250.087 137.655 254.78 139.52 258.686 144.73C267.14 156.005 272.313 164.699 280.644 164.699C282.066 164.679 283.476 164.448 284.83 164.015C285.42 163.839 286.032 163.751 286.648 163.755C298.074 163.755 317.304 191.238 291.673 207.74C285.348 211.868 277.949 214.046 270.396 214.004C230.576 214.004 188.436 158.004 188.436 158.004L195.08 147.937L198.722 134.057V134.064ZM198.174 132.099L197.729 133.811L194.132 147.526L187.58 157.453L187.18 158.059L187.618 158.637C195.532 168.743 204.289 178.158 213.797 186.781C222.861 194.962 231.778 201.5 240.297 206.169C251.011 212.056 261.14 215.045 270.396 215.045C278.145 215.079 285.736 212.844 292.231 208.616C298.156 204.8 302.157 200.158 304.081 194.825C305.728 190.286 305.823 185.268 304.365 180.308C302.964 175.616 300.402 171.353 296.917 167.914C293.555 164.628 289.814 162.742 286.648 162.742C285.932 162.738 285.219 162.841 284.533 163.046C283.279 163.451 281.972 163.665 280.654 163.683C273.901 163.683 269.163 157.227 262.601 148.28C261.616 146.934 260.596 145.541 259.521 144.107C255.797 139.14 251.015 136.621 245.309 136.621C238.059 136.621 230.795 140.55 224.644 144.391C223.503 145.078 222.19 145.425 220.858 145.394C212.041 145.394 199.574 133.441 199.451 133.318L198.188 132.099H198.174Z" fill="#1D1E1B"/>
<path d="M279.797 212.909C237.523 223.243 195.421 156.495 195.421 156.495L189.02 144.881L195.181 133C195.181 133 214.333 145.908 220.148 146.596C216.448 153.965 215.928 162.865 230.79 167.068C252.971 173.343 272.715 201.678 279.797 212.909Z" fill="#050505"/>
<path d="M198.889 170.105C198.889 170.105 245.709 163.943 279.202 219.053C312.696 274.163 299.46 288.539 279.979 289.909C260.499 291.278 259.722 290.936 259.722 290.936L99.0958 290.593L88.625 260.553L99.7804 237.195C99.7804 237.195 109.348 237.195 118.918 246.437C118.918 246.437 126.449 181.4 178.04 172.158L198.889 170.105Z" fill="#07ACEE"/>
<path d="M203.213 169.9C215.556 169.9 251.819 174.007 279.203 219.053C312.693 274.163 299.46 288.54 279.98 289.909C266.993 290.823 262.321 290.973 260.644 290.973C260.336 290.993 260.028 290.98 259.723 290.936L99.0964 290.593L88.6256 260.553L99.781 237.195C99.781 237.195 109.348 237.195 118.919 246.437C118.919 246.437 126.45 181.401 178.041 172.159L198.89 170.105C200.326 169.952 201.769 169.883 203.213 169.9ZM203.213 168.873C201.727 168.857 200.241 168.928 198.763 169.085L177.931 171.139H177.89H177.852C166.032 173.202 155.074 178.675 146.323 186.884C139.186 193.518 133.083 202.065 128.182 212.293C121.544 226.166 118.939 239.465 118.162 244.339C108.92 236.24 100.147 236.141 99.7605 236.141H99.1101L98.8329 236.726L87.6774 260.084L87.4961 260.464L87.6363 260.865L98.1073 290.905L98.3468 291.59H99.0725L259.61 291.932C259.951 291.965 260.294 291.977 260.637 291.969C262.215 291.969 266.833 291.833 280.045 290.901C289.236 290.258 295.449 286.907 298.529 280.951C301.336 275.526 301.453 267.944 298.872 258.359C295.986 247.683 289.657 234.265 280.045 218.475C268.174 198.94 253.346 184.858 235.978 176.615C221.701 169.841 209.299 168.828 203.179 168.828L203.213 168.873Z" fill="black"/>
<path d="M272.693 255.043C272.693 255.043 249.81 233.944 207.434 239.078C165.057 244.213 160.953 230.521 144.55 258.931C128.147 287.342 175.651 258.931 175.651 258.931L272.693 255.043Z" fill="#0598C6"/>
<path d="M278.52 258.589C278.52 258.589 244.688 234.628 205.385 244.554L195.116 244.212L190.324 272.28L197.512 278.1C197.512 278.1 204.016 288.368 223.828 291.107" fill="#07ACEE"/>
<path d="M223.836 291.62H223.764C204.595 288.971 197.804 279.465 197.133 278.452L190.017 272.684C189.947 272.627 189.893 272.551 189.861 272.466C189.829 272.38 189.82 272.288 189.835 272.198L194.628 244.13C194.648 244.007 194.713 243.896 194.809 243.818C194.905 243.739 195.027 243.698 195.151 243.702L205.331 244.044C225.729 238.91 244.61 243.017 256.864 247.368C270.149 252.088 278.733 258.113 278.819 258.174C278.93 258.253 279.006 258.373 279.028 258.508C279.051 258.642 279.02 258.78 278.941 258.892C278.862 259.003 278.742 259.078 278.607 259.101C278.473 259.124 278.335 259.092 278.224 259.013C278.141 258.951 269.649 252.995 256.491 248.327C244.363 244.024 225.684 239.964 205.513 245.058C205.465 245.065 205.417 245.065 205.369 245.058L195.562 244.715L190.903 272.048L197.849 277.679C197.893 277.712 197.93 277.754 197.958 277.802C198.023 277.901 204.592 287.906 223.911 290.576C224.047 290.585 224.174 290.648 224.264 290.751C224.354 290.854 224.399 290.988 224.39 291.124C224.381 291.26 224.318 291.387 224.216 291.477C224.113 291.567 223.979 291.612 223.843 291.603L223.836 291.62Z" fill="black"/>
<path d="M195.128 244.213C195.128 244.213 171.811 242.734 156.168 245.582C129.852 250.374 119.258 285.973 119.258 285.973H154.117C154.117 285.973 164.711 280.154 168.812 267.489L190.343 272.281L195.128 244.213Z" fill="#FFCDB2"/>
<path d="M154.248 286.486H118.57L118.765 285.826C120.895 279.328 123.797 273.11 127.408 267.304C132.885 258.548 142.298 247.588 156.076 245.079C171.602 242.251 194.927 243.686 195.159 243.71L195.727 243.747L190.757 272.911L169.151 268.084C164.934 280.493 154.47 286.36 154.364 286.418L154.248 286.486ZM119.96 285.459H153.981C155.11 284.795 164.558 278.956 168.323 267.318L168.467 266.873L189.926 271.648L194.526 244.678C190.857 244.48 170.312 243.514 156.257 246.075C142.856 248.515 133.666 259.243 128.292 267.814C124.855 273.361 122.06 279.281 119.96 285.459Z" fill="#1D1D1B"/>
<path d="M205.384 245.239C205.384 245.239 211.203 263.381 197.854 277.757L191.008 271.938L195.8 244.897L205.384 245.239Z" fill="#0598C6"/>
<path d="M215.818 171.129C215.818 171.129 212.217 187.733 194.103 179.176C194.103 179.176 180.432 188.418 178.039 172.33C178.039 172.33 192.765 166.843 215.818 171.129Z" fill="white"/>
<path d="M186.206 182.335C185.101 182.348 184.007 182.13 182.992 181.695C180.096 180.422 178.261 177.296 177.532 172.405C177.516 172.287 177.541 172.168 177.604 172.066C177.666 171.965 177.762 171.889 177.874 171.85C178.025 171.792 192.997 166.374 215.924 170.622C215.993 170.634 216.059 170.66 216.117 170.698C216.176 170.737 216.227 170.786 216.266 170.844C216.342 170.959 216.369 171.099 216.342 171.234C216.28 171.515 214.794 178.08 209.071 180.904C205.073 182.876 200.059 182.492 194.164 179.761C193.195 180.357 189.772 182.335 186.206 182.335ZM178.614 172.679C179.326 176.951 180.934 179.669 183.406 180.757C187.856 182.715 193.757 178.792 193.815 178.751C193.889 178.701 193.974 178.671 194.063 178.664C194.152 178.658 194.241 178.675 194.322 178.714C200.028 181.407 204.83 181.839 208.589 179.987C212.98 177.827 214.712 173.096 215.178 171.532C194.9 167.88 181.081 171.874 178.614 172.679Z" fill="#1D1D1B"/>
<path d="M227.689 197.03C229.225 197.03 230.469 195.783 230.469 194.244C230.469 192.705 229.225 191.458 227.689 191.458C226.154 191.458 224.91 192.705 224.91 194.244C224.91 195.783 226.154 197.03 227.689 197.03Z" fill="#51CEF4"/>
<path d="M200.69 227.494C202.225 227.494 203.469 226.247 203.469 224.708C203.469 223.169 202.225 221.922 200.69 221.922C199.155 221.922 197.91 223.169 197.91 224.708C197.91 226.247 199.155 227.494 200.69 227.494Z" fill="#51CEF4"/>
<path d="M166.514 209.353C168.049 209.353 169.293 208.105 169.293 206.567C169.293 205.028 168.049 203.78 166.514 203.78C164.979 203.78 163.734 205.028 163.734 206.567C163.734 208.105 164.979 209.353 166.514 209.353Z" fill="#51CEF4"/>
<path d="M255.713 236.394C257.248 236.394 258.493 235.147 258.493 233.608C258.493 232.069 257.248 230.822 255.713 230.822C254.178 230.822 252.934 232.069 252.934 233.608C252.934 235.147 254.178 236.394 255.713 236.394Z" fill="#51CEF4"/>
<path d="M239.99 256.247C241.525 256.247 242.77 255 242.77 253.461C242.77 251.922 241.525 250.675 239.99 250.675C238.455 250.675 237.211 251.922 237.211 253.461C237.211 255 238.455 256.247 239.99 256.247Z" fill="#51CEF4"/>
<path d="M241.362 288.766C242.897 288.766 244.141 287.519 244.141 285.98C244.141 284.441 242.897 283.193 241.362 283.193C239.826 283.193 238.582 284.441 238.582 285.98C238.582 287.519 239.826 288.766 241.362 288.766Z" fill="#51CEF4"/>
<path d="M263.916 275.416C265.451 275.416 266.696 274.169 266.696 272.63C266.696 271.091 265.451 269.844 263.916 269.844C262.381 269.844 261.137 271.091 261.137 272.63C261.137 274.169 262.381 275.416 263.916 275.416Z" fill="#51CEF4"/>
<path d="M196.664 109.658C202.674 105.723 204.35 97.6525 200.408 91.6333C196.466 85.6141 188.399 83.9251 182.389 87.8607C176.38 91.7963 174.703 99.8664 178.645 105.886C182.587 111.905 190.654 113.594 196.664 109.658Z" fill="#382256"/>
<path d="M188.325 85.8961C191.443 85.6025 194.561 86.4433 197.109 88.2641C199.656 90.085 201.461 92.7637 202.193 95.8083C202.924 98.8529 202.532 102.059 201.09 104.838C199.647 107.618 197.251 109.783 194.34 110.937C191.429 112.092 188.2 112.157 185.245 111.122C182.289 110.087 179.807 108.02 178.253 105.302C176.699 102.584 176.177 99.3958 176.784 96.324C177.392 93.2522 179.087 90.5024 181.558 88.5797C183.512 87.0593 185.86 86.1283 188.325 85.8961ZM188.236 84.9754C185.149 85.264 182.245 86.5719 179.983 88.6929C177.721 90.814 176.23 93.6275 175.743 96.69C175.257 99.7525 175.804 102.89 177.297 105.607C178.791 108.325 181.146 110.468 183.992 111.699C186.838 112.93 190.013 113.178 193.016 112.406C196.019 111.633 198.68 109.883 200.578 107.431C202.477 104.979 203.505 101.966 203.502 98.8647C203.498 95.7638 202.463 92.7524 200.559 90.3049C199.125 88.4453 197.241 86.9807 195.086 86.0484C192.931 85.1162 190.574 84.747 188.236 84.9754Z" fill="black"/>
<path d="M161.75 145.589C161.75 145.589 151.351 139.62 153.552 130.902C155.753 122.183 157.971 122.457 158.83 117.785C159.689 113.112 166.6 107.232 174.107 107.892C174.107 107.892 181.603 99.5539 189.976 100.04C198.348 100.526 201.878 103.781 205.379 109.563C208.881 115.344 211.684 117.665 214.279 121.646C216.874 125.627 221.888 137.258 206.748 149.54C191.609 161.821 161.75 145.589 161.75 145.589Z" fill="#382256"/>
<path d="M191.8 154.626C187.771 154.626 183.297 153.976 178.433 152.665C172.577 151.048 166.904 148.828 161.506 146.041C161.397 145.98 150.792 139.774 153.065 130.782C154.308 125.87 155.557 123.758 156.567 122.056C157.351 120.735 157.97 119.688 158.337 117.699C159.278 112.565 166.607 106.869 173.908 107.368C175.116 106.085 182.102 99.0746 190.013 99.5332C198.594 100.033 202.308 103.494 205.827 109.302C207.435 111.934 209.246 114.434 211.246 116.782C212.488 118.246 213.648 119.779 214.72 121.372C216.959 124.795 223.031 137.008 207.076 149.943C203.219 153.072 198.05 154.626 191.8 154.626ZM162.003 145.141C162.55 145.435 191.783 161.01 206.419 149.139C221.706 136.744 215.969 125.178 213.851 121.926C212.794 120.363 211.651 118.861 210.428 117.425C208.402 115.038 206.563 112.499 204.927 109.83C201.504 104.178 198.105 101.029 189.934 100.553C181.911 100.084 174.551 108.152 174.479 108.234L174.308 108.426L174.052 108.402C166.641 107.752 160.11 113.609 159.333 117.877C158.932 120.047 158.237 121.218 157.436 122.573C156.461 124.216 155.253 126.26 154.048 131.025C151.984 139.202 161.739 144.987 162.003 145.141Z" fill="#1D1E1B"/>
<path d="M189.294 160.887L185.669 170.7C185.669 170.7 195.254 179.942 211.684 170.358C211.684 170.358 206.532 154.694 200.672 140.746C200.672 140.746 206.861 138.428 205.023 132.873C203.185 127.317 198.444 126.985 195.955 128.923C195.955 128.923 186.419 137.85 172.388 117.254C172.388 117.254 161.777 123.515 161.133 135.522C160.49 147.53 164.758 160.719 174.274 163.317C183.79 165.915 189.294 160.887 189.294 160.887Z" fill="#FFCDB2"/>
<path d="M197.317 175.212C195.658 175.216 194.004 175.019 192.392 174.623C187.86 173.49 185.416 171.169 185.313 171.07L185.07 170.837L188.233 162.28C185.988 163.649 181.127 165.703 174.137 163.799C169.557 162.55 165.854 158.86 163.42 153.137C161.274 148.085 160.281 141.814 160.62 135.481C161.27 123.337 172.018 116.86 172.128 116.795L172.542 116.552L172.812 116.949C179.812 127.218 185.583 129.861 189.195 130.258C193.234 130.706 195.582 128.546 195.606 128.546L195.64 128.516C196.375 127.959 197.231 127.584 198.138 127.421C199.045 127.259 199.978 127.314 200.86 127.581C202.979 128.225 204.626 130.046 205.509 132.716C207.159 137.71 202.835 140.301 201.339 141.03C207.063 154.722 212.122 170.064 212.17 170.218L212.3 170.611L211.958 170.823C206.149 174.181 201.199 175.212 197.317 175.212ZM186.275 170.546C188.165 172.03 190.357 173.081 192.696 173.627C196.599 174.589 202.931 174.743 211.064 170.108C210.222 167.585 205.471 153.476 200.2 140.931L199.994 140.438L200.491 140.249C200.727 140.16 206.193 138.035 204.533 133.003C203.547 130.008 201.829 128.919 200.562 128.536C199.841 128.316 199.078 128.269 198.335 128.399C197.592 128.529 196.891 128.833 196.287 129.286C196.017 129.529 193.429 131.743 189.082 131.264C183.605 130.658 177.947 126.171 172.248 117.915C170.327 119.202 162.194 125.25 161.636 135.512C161.01 147.15 165.193 160.27 174.397 162.786C183.506 165.275 188.887 160.534 188.942 160.486L190.489 159.086L186.275 170.546Z" fill="black"/>
<path d="M188.476 161.951C188.524 161.938 188.569 161.917 188.61 161.89C193.203 158.788 195.38 152.435 195.456 152.165C195.494 152.049 195.485 151.922 195.43 151.813C195.376 151.703 195.28 151.619 195.165 151.58C195.107 151.56 195.047 151.551 194.986 151.555C194.926 151.559 194.867 151.574 194.812 151.601C194.758 151.628 194.709 151.665 194.669 151.711C194.629 151.757 194.599 151.81 194.579 151.867C194.555 151.932 192.406 158.2 188.076 161.109C187.984 161.17 187.918 161.262 187.888 161.368C187.859 161.474 187.868 161.587 187.914 161.687C187.96 161.787 188.04 161.867 188.14 161.913C188.24 161.959 188.353 161.967 188.459 161.937L188.476 161.951Z" fill="black"/>
<path d="M200.258 138.055C200.341 138.048 200.421 138.018 200.488 137.968C200.556 137.919 200.608 137.852 200.641 137.775C201.603 135.475 201.651 133.667 200.778 132.445C199.522 130.665 196.869 130.792 196.759 130.799C196.699 130.801 196.639 130.816 196.584 130.842C196.528 130.868 196.479 130.905 196.438 130.95C196.398 130.995 196.366 131.048 196.346 131.106C196.326 131.163 196.317 131.224 196.321 131.285C196.328 131.408 196.384 131.523 196.475 131.605C196.567 131.687 196.688 131.73 196.811 131.723C196.838 131.723 199.07 131.624 200.025 132.983C200.71 133.941 200.62 135.434 199.789 137.433C199.765 137.489 199.753 137.549 199.753 137.61C199.752 137.671 199.764 137.731 199.788 137.787C199.811 137.844 199.845 137.895 199.888 137.938C199.931 137.981 199.982 138.015 200.039 138.038C200.109 138.062 200.184 138.068 200.258 138.055Z" fill="black"/>
<path d="M175.374 135.355C182.076 135.238 190.034 130.446 192.04 132.384C194.046 134.321 193.638 137.645 190.352 139.202C187.066 140.76 183.613 141.448 176.452 142.519C169.291 143.59 162.205 144.107 162.13 140.161C162.055 136.214 165.515 135.526 175.374 135.355Z" fill="#FFB49F"/>
<path d="M204.387 141.833C205.371 141.189 205.645 139.868 205 138.883C204.355 137.898 203.034 137.621 202.051 138.265C201.067 138.909 200.793 140.23 201.438 141.216C202.083 142.201 203.404 142.477 204.387 141.833Z" fill="#07ACEE"/>
<path d="M203.051 138.031C203.561 137.983 204.072 138.121 204.489 138.419C204.906 138.717 205.201 139.155 205.321 139.654C205.441 140.152 205.377 140.677 205.141 141.132C204.904 141.587 204.512 141.941 204.035 142.13C203.559 142.319 203.03 142.33 202.546 142.16C202.063 141.99 201.656 141.652 201.402 141.207C201.148 140.762 201.063 140.24 201.163 139.737C201.262 139.234 201.54 138.784 201.945 138.469C202.264 138.221 202.648 138.069 203.051 138.031ZM202.965 137.111C202.288 137.173 201.652 137.46 201.156 137.924C200.66 138.389 200.333 139.005 200.226 139.676C200.119 140.347 200.238 141.035 200.565 141.631C200.893 142.226 201.409 142.696 202.032 142.966C202.656 143.236 203.352 143.291 204.01 143.121C204.668 142.952 205.251 142.568 205.667 142.031C206.083 141.494 206.309 140.833 206.308 140.154C206.307 139.474 206.08 138.814 205.662 138.278C205.349 137.871 204.936 137.55 204.465 137.346C203.993 137.141 203.477 137.061 202.965 137.111Z" fill="black"/>
<path d="M173.172 147.972H173.121C172.986 147.957 172.863 147.89 172.777 147.785C172.691 147.68 172.65 147.545 172.662 147.41L173.717 136.772C173.723 136.704 173.743 136.639 173.775 136.579C173.807 136.519 173.85 136.466 173.902 136.423C173.954 136.38 174.015 136.348 174.08 136.328C174.144 136.308 174.212 136.302 174.28 136.308C174.347 136.315 174.413 136.334 174.472 136.366C174.532 136.398 174.585 136.441 174.628 136.494C174.671 136.546 174.704 136.606 174.723 136.671C174.743 136.736 174.75 136.804 174.744 136.871L173.689 147.51C173.677 147.638 173.617 147.756 173.521 147.842C173.426 147.928 173.301 147.974 173.172 147.972Z" fill="#1D1D1B"/>
<path d="M163.392 133.506C163.299 133.507 163.208 133.483 163.129 133.434C163.012 133.364 162.928 133.25 162.895 133.118C162.861 132.986 162.881 132.846 162.951 132.729C163.091 132.496 166.418 127.026 170.279 129.135C170.341 129.166 170.395 129.209 170.44 129.262C170.484 129.314 170.517 129.375 170.538 129.441C170.558 129.507 170.565 129.576 170.558 129.644C170.552 129.713 170.531 129.779 170.498 129.84C170.465 129.9 170.42 129.953 170.366 129.996C170.312 130.039 170.25 130.07 170.183 130.088C170.117 130.106 170.048 130.111 169.98 130.102C169.911 130.093 169.846 130.07 169.786 130.035C166.791 128.399 163.861 133.208 163.834 133.256C163.788 133.333 163.723 133.396 163.646 133.44C163.569 133.483 163.481 133.506 163.392 133.506Z" fill="black"/>
<path d="M182.964 130.85C182.856 130.851 182.75 130.817 182.663 130.754C178.524 127.738 176.501 130.384 176.419 130.497C176.336 130.599 176.218 130.665 176.088 130.682C175.959 130.699 175.827 130.666 175.721 130.589C175.615 130.513 175.542 130.399 175.517 130.27C175.492 130.142 175.517 130.009 175.587 129.898C176.258 129.063 177.216 128.509 178.274 128.344C179.811 128.098 181.489 128.628 183.265 129.922C183.352 129.986 183.417 130.076 183.45 130.179C183.483 130.282 183.483 130.392 183.45 130.495C183.417 130.598 183.352 130.687 183.264 130.751C183.177 130.815 183.072 130.849 182.964 130.85Z" fill="black"/>
<path d="M187.491 107.084C187.537 107.084 187.58 107.066 187.612 107.034C187.645 107.002 187.663 106.959 187.663 106.913C187.663 106.868 187.645 106.824 187.612 106.792C187.58 106.76 187.537 106.742 187.491 106.742C187.446 106.742 187.403 106.76 187.37 106.792C187.338 106.824 187.32 106.868 187.32 106.913C187.32 106.959 187.338 107.002 187.37 107.034C187.403 107.066 187.446 107.084 187.491 107.084Z" fill="black"/>
<path d="M193.566 104.609C193.611 104.609 193.655 104.591 193.687 104.559C193.719 104.527 193.737 104.484 193.737 104.438C193.737 104.393 193.719 104.349 193.687 104.317C193.655 104.285 193.611 104.267 193.566 104.267C193.52 104.267 193.477 104.285 193.445 104.317C193.413 104.349 193.395 104.393 193.395 104.438C193.395 104.484 193.413 104.527 193.445 104.559C193.477 104.591 193.52 104.609 193.566 104.609Z" fill="black"/>
<path d="M165.473 148.28C164.017 148.28 162.594 147.848 161.384 147.04C160.174 146.231 159.231 145.081 158.674 143.737C158.117 142.392 157.971 140.912 158.255 139.485C158.539 138.057 159.24 136.746 160.269 135.717C161.298 134.687 162.609 133.986 164.037 133.702C165.465 133.418 166.944 133.564 168.289 134.121C169.634 134.678 170.783 135.622 171.592 136.832C172.4 138.042 172.832 139.465 172.832 140.92C172.83 142.872 172.054 144.743 170.674 146.122C169.295 147.502 167.424 148.278 165.473 148.28ZM165.473 134.588C164.22 134.588 162.996 134.959 161.955 135.655C160.913 136.351 160.101 137.34 159.622 138.497C159.143 139.654 159.018 140.927 159.262 142.156C159.506 143.384 160.109 144.513 160.995 145.398C161.881 146.284 163.009 146.887 164.237 147.131C165.466 147.376 166.739 147.25 167.896 146.771C169.053 146.292 170.042 145.48 170.738 144.439C171.434 143.397 171.805 142.173 171.805 140.92C171.803 139.242 171.136 137.632 169.948 136.445C168.761 135.257 167.152 134.59 165.473 134.588Z" fill="black"/>
<path d="M182.246 147.595C180.791 147.595 179.368 147.164 178.157 146.355C176.947 145.546 176.004 144.397 175.447 143.052C174.89 141.707 174.744 140.228 175.028 138.8C175.312 137.373 176.013 136.061 177.042 135.032C178.072 134.003 179.383 133.302 180.81 133.018C182.238 132.734 183.718 132.88 185.062 133.437C186.407 133.994 187.557 134.937 188.365 136.147C189.174 137.357 189.606 138.78 189.606 140.236C189.604 142.187 188.828 144.058 187.448 145.438C186.068 146.817 184.197 147.593 182.246 147.595ZM182.246 133.903C180.994 133.903 179.769 134.275 178.728 134.971C177.687 135.666 176.875 136.655 176.396 137.813C175.916 138.97 175.791 140.243 176.035 141.471C176.28 142.7 176.883 143.828 177.768 144.714C178.654 145.599 179.782 146.202 181.011 146.447C182.239 146.691 183.512 146.566 184.669 146.086C185.827 145.607 186.816 144.795 187.511 143.754C188.207 142.713 188.579 141.488 188.579 140.236C188.577 138.557 187.909 136.947 186.722 135.76C185.535 134.573 183.925 133.905 182.246 133.903Z" fill="black"/>
<path d="M175.433 139.038H172.318C172.182 139.038 172.051 138.984 171.955 138.887C171.859 138.791 171.805 138.66 171.805 138.524C171.805 138.388 171.859 138.257 171.955 138.161C172.051 138.065 172.182 138.011 172.318 138.011H175.433C175.569 138.011 175.7 138.065 175.796 138.161C175.892 138.257 175.947 138.388 175.947 138.524C175.947 138.66 175.892 138.791 175.796 138.887C175.7 138.984 175.569 139.038 175.433 139.038Z" fill="black"/>
<path d="M179.678 141.776C180.434 141.776 181.047 141.163 181.047 140.407C181.047 139.651 180.434 139.038 179.678 139.038C178.922 139.038 178.309 139.651 178.309 140.407C178.309 141.163 178.922 141.776 179.678 141.776Z" fill="black"/>
<path d="M167.354 142.803C168.11 142.803 168.723 142.19 168.723 141.434C168.723 140.678 168.11 140.065 167.354 140.065C166.597 140.065 165.984 140.678 165.984 141.434C165.984 142.19 166.597 142.803 167.354 142.803Z" fill="black"/>
<path d="M178.898 155.707C178.554 155.709 178.21 155.684 177.871 155.632C177.803 155.62 177.739 155.595 177.681 155.558C177.624 155.521 177.574 155.473 177.535 155.416C177.495 155.36 177.468 155.297 177.453 155.23C177.439 155.163 177.438 155.094 177.45 155.026C177.462 154.959 177.487 154.894 177.524 154.837C177.561 154.779 177.609 154.729 177.665 154.69C177.722 154.651 177.785 154.624 177.852 154.609C177.919 154.594 177.988 154.593 178.055 154.605C178.196 154.633 181.52 155.184 183.354 152.432C183.43 152.318 183.547 152.239 183.68 152.212C183.814 152.185 183.953 152.213 184.066 152.288C184.18 152.363 184.259 152.481 184.286 152.614C184.313 152.748 184.285 152.886 184.21 153C182.663 155.341 180.257 155.707 178.898 155.707Z" fill="black"/>
<path d="M195.061 128.703L187.742 136.349L188.484 137.059L195.803 129.413L195.061 128.703Z" fill="black"/>
<path d="M198.936 95.1379C198.771 95.1379 198.609 95.0902 198.47 95.0003C198.331 94.9104 198.22 94.7823 198.152 94.6313C198.152 94.5868 196.164 90.3046 191.919 89.0655C188.9 88.1858 185.415 89.0142 181.582 91.5266C181.392 91.6434 181.164 91.6817 180.947 91.6332C180.729 91.5848 180.54 91.4534 180.417 91.2671C180.295 91.0808 180.251 90.8542 180.293 90.6355C180.335 90.4168 180.461 90.2232 180.644 90.0958C184.929 87.289 188.893 86.3922 192.416 87.4293C197.423 88.9012 199.624 93.7276 199.717 93.933C199.762 94.0357 199.787 94.1464 199.79 94.2588C199.793 94.3711 199.774 94.4829 199.733 94.5878C199.693 94.6927 199.632 94.7886 199.555 94.8701C199.477 94.9515 199.385 95.017 199.282 95.0626C199.173 95.1119 199.056 95.1375 198.936 95.1379Z" fill="white"/>
<path d="M190.288 128.916C181.594 128.916 174.857 117.278 174.542 116.727C174.486 116.629 174.45 116.521 174.436 116.41C174.422 116.298 174.43 116.185 174.46 116.076C174.49 115.967 174.541 115.866 174.61 115.777C174.679 115.688 174.765 115.614 174.862 115.558C174.96 115.502 175.068 115.466 175.18 115.452C175.291 115.438 175.404 115.446 175.513 115.476C175.621 115.505 175.723 115.556 175.812 115.625C175.901 115.694 175.975 115.78 176.031 115.878C176.11 116.015 183.945 129.57 192.691 126.831C192.905 126.772 193.134 126.798 193.329 126.905C193.524 127.011 193.67 127.189 193.736 127.401C193.802 127.613 193.783 127.842 193.683 128.041C193.584 128.239 193.41 128.391 193.201 128.464C192.258 128.761 191.276 128.913 190.288 128.916Z" fill="white"/>
<path d="M291.952 255.761C291.732 255.761 291.518 255.691 291.341 255.56C291.164 255.429 291.034 255.245 290.969 255.035C282.576 227.843 263.315 206.347 263.124 206.131C262.97 205.926 262.898 205.671 262.923 205.416C262.948 205.16 263.067 204.923 263.257 204.752C263.448 204.58 263.696 204.486 263.952 204.488C264.209 204.49 264.455 204.588 264.643 204.762C264.842 204.978 284.408 226.813 292.934 254.44C292.98 254.593 292.99 254.755 292.962 254.912C292.934 255.07 292.87 255.218 292.775 255.347C292.679 255.475 292.555 255.579 292.412 255.651C292.269 255.723 292.112 255.761 291.952 255.761Z" fill="white"/>
<path d="M267.99 259.184C267.819 259.183 267.651 259.141 267.501 259.061C238.566 243.428 221.955 249.134 221.79 249.196C221.534 249.289 221.252 249.277 221.005 249.162C220.757 249.047 220.566 248.839 220.473 248.583C220.379 248.327 220.391 248.044 220.506 247.797C220.621 247.55 220.829 247.359 221.085 247.265C221.787 247.008 238.635 241.131 268.48 257.253C268.681 257.362 268.84 257.535 268.932 257.744C269.024 257.954 269.044 258.188 268.987 258.409C268.931 258.631 268.802 258.828 268.622 258.968C268.441 259.108 268.219 259.184 267.99 259.184Z" fill="white"/>
<path d="M201.169 85.2973C201.222 85.2937 201.273 85.2798 201.32 85.2562C201.431 85.2049 201.517 85.1115 201.56 84.9966C201.602 84.8817 201.597 84.7547 201.546 84.6435C200.211 81.7682 198.263 79.8514 195.758 78.9409C191.345 77.3458 186.827 79.444 186.639 79.533C186.584 79.5591 186.535 79.5957 186.494 79.6408C186.453 79.6858 186.422 79.7385 186.402 79.7957C186.381 79.8529 186.372 79.9136 186.376 79.9742C186.379 80.0349 186.394 80.0943 186.42 80.1491C186.473 80.2593 186.568 80.3442 186.683 80.3858C186.798 80.4274 186.925 80.4223 187.036 80.3716C187.077 80.3511 191.407 78.3452 195.45 79.8137C197.712 80.6352 199.482 82.3912 200.707 85.0303C200.747 85.1171 200.813 85.1894 200.896 85.2373C200.979 85.2851 201.074 85.3061 201.169 85.2973Z" fill="black"/>
<path d="M278.44 175.924C278.304 175.942 278.166 175.905 278.057 175.821C277.949 175.737 277.877 175.614 277.86 175.477C277.842 175.341 277.879 175.204 277.963 175.095C278.047 174.986 278.17 174.915 278.307 174.897C298.995 169.287 311.191 155.561 317.777 145.032C324.931 133.599 327.207 123.357 327.231 123.255C327.263 123.125 327.344 123.012 327.458 122.941C327.572 122.87 327.709 122.847 327.839 122.875C327.97 122.904 328.085 122.982 328.159 123.094C328.232 123.206 328.259 123.342 328.234 123.474C328.21 123.577 325.906 133.965 318.667 145.545C311.982 156.242 299.601 170.191 278.573 175.89C278.53 175.906 278.486 175.918 278.44 175.924Z" fill="black"/>
<path d="M307.696 175.9C307.56 175.916 307.423 175.878 307.315 175.793C307.207 175.708 307.137 175.584 307.121 175.448C307.105 175.312 307.143 175.175 307.228 175.067C307.312 174.959 307.437 174.889 307.573 174.873C323.753 170.844 332.304 153.103 332.389 152.925C332.451 152.808 332.555 152.719 332.681 152.677C332.806 152.635 332.943 152.644 333.063 152.7C333.182 152.757 333.275 152.857 333.323 152.98C333.37 153.104 333.368 153.241 333.317 153.363C333.231 153.548 324.469 171.727 307.819 175.869C307.78 175.884 307.738 175.895 307.696 175.9Z" fill="black"/>
<path d="M304.11 280.324C304.047 280.325 303.985 280.313 303.926 280.29C303.863 280.266 303.805 280.23 303.756 280.183C303.707 280.137 303.668 280.081 303.641 280.019C303.614 279.957 303.599 279.891 303.597 279.824C303.595 279.756 303.607 279.689 303.631 279.626C311.319 259.578 299.024 241.604 298.897 241.426C298.819 241.314 298.789 241.176 298.813 241.042C298.836 240.908 298.912 240.788 299.024 240.71C299.136 240.632 299.274 240.602 299.408 240.626C299.542 240.649 299.661 240.725 299.739 240.837C299.873 241.025 302.978 245.52 305.158 252.619C307.174 259.177 308.711 269.251 304.59 280.003C304.551 280.098 304.485 280.18 304.4 280.237C304.314 280.295 304.213 280.325 304.11 280.324Z" fill="black"/>
<path d="M130.359 199.282L129.387 198.94C135.206 181.825 159.752 169.386 160.793 168.866L161.251 169.783C161.001 169.917 136.041 182.561 130.359 199.282Z" fill="black"/>
<path d="M64.6914 130.087L64.712 144.121C64.7118 144.772 64.8954 145.41 65.2418 145.962C65.5882 146.514 66.0832 146.956 66.67 147.239C71.9516 149.793 87.1051 155.536 101.927 146.291C102.421 145.979 102.829 145.547 103.11 145.034C103.391 144.521 103.538 143.946 103.535 143.361V125.62" fill="white"/>
<path d="M84.1972 151.894C76.3723 151.894 69.8209 149.341 66.4492 147.708C65.7772 147.38 65.2103 146.871 64.8128 146.237C64.4154 145.604 64.2031 144.872 64.2002 144.124L64.1797 130.09H65.2066L65.2271 144.124C65.2248 144.679 65.3803 145.224 65.6754 145.694C65.9705 146.164 66.3932 146.541 66.8942 146.78C72.5352 149.519 87.2095 154.869 101.658 145.86C102.078 145.593 102.424 145.224 102.663 144.788C102.902 144.352 103.028 143.862 103.027 143.364V125.62H104.054V143.364C104.054 144.036 103.885 144.697 103.562 145.285C103.239 145.874 102.772 146.372 102.206 146.732C96.8149 150.128 90.5684 151.919 84.1972 151.894Z" fill="#1D1E1B"/>
<path d="M53.5765 125.345L80.2757 109.363C80.6331 109.151 81.0509 109.063 81.4636 109.113L114.951 113.324C115.32 113.37 115.668 113.526 115.948 113.772C116.228 114.019 116.427 114.343 116.52 114.704C116.613 115.065 116.595 115.446 116.469 115.797C116.343 116.147 116.115 116.452 115.813 116.671L93.639 132.797C93.2629 133.071 92.7972 133.193 92.3349 133.139L54.3398 128.789C53.9529 128.747 53.5889 128.584 53.2991 128.324C53.0092 128.065 52.808 127.721 52.7238 127.341C52.6395 126.961 52.6766 126.564 52.8296 126.206C52.9825 125.848 53.2437 125.547 53.5765 125.345Z" fill="#07ACEE"/>
<path d="M92.5387 133.677C92.4486 133.682 92.3583 133.682 92.2683 133.677L54.2733 129.326C53.7808 129.27 53.3184 129.06 52.951 128.727C52.5837 128.395 52.3299 127.955 52.2253 127.47C52.1207 126.986 52.1704 126.481 52.3677 126.026C52.565 125.571 52.8998 125.189 53.3251 124.935L80.0243 108.953C80.4801 108.681 81.0136 108.567 81.5407 108.631L115.028 112.841C115.499 112.901 115.942 113.101 116.299 113.415C116.656 113.729 116.91 114.143 117.029 114.604C117.147 115.064 117.124 115.55 116.963 115.997C116.802 116.445 116.511 116.834 116.126 117.113L93.932 133.218C93.5282 133.516 93.0401 133.676 92.5387 133.677ZM53.8385 125.804C53.5967 125.949 53.4063 126.165 53.2942 126.424C53.1821 126.682 53.1539 126.969 53.2136 127.244C53.2734 127.52 53.4181 127.769 53.6273 127.958C53.8364 128.147 54.0994 128.265 54.3794 128.296L92.3744 132.647C92.7092 132.687 93.0469 132.599 93.3192 132.4L115.493 116.271C115.712 116.112 115.877 115.892 115.969 115.637C116.06 115.383 116.073 115.108 116.005 114.846C115.937 114.585 115.793 114.35 115.59 114.172C115.387 113.994 115.135 113.881 114.867 113.848L81.3798 109.641C81.0823 109.604 80.781 109.668 80.524 109.822L53.8385 125.804Z" fill="black"/>
<path d="M92.2989 130.87C92.0822 130.871 91.8709 130.803 91.6952 130.676C91.5195 130.549 91.3884 130.37 91.3208 130.164C91.2532 129.958 91.2524 129.736 91.3186 129.53C91.3849 129.323 91.5147 129.143 91.6895 129.015L110.256 115.323C110.475 115.162 110.75 115.094 111.019 115.135C111.288 115.175 111.53 115.321 111.692 115.541C111.853 115.76 111.921 116.034 111.88 116.304C111.84 116.573 111.694 116.815 111.474 116.977L92.9081 130.669C92.7318 130.799 92.5184 130.87 92.2989 130.87Z" fill="white"/>
<path d="M188.254 60.1275C187.385 60.1154 186.518 60.0559 185.656 59.9495C181.435 59.4805 160.103 56.6394 159.891 56.6086C159.4 56.5693 158.923 56.42 158.497 56.1717C158.071 55.9235 157.707 55.5826 157.43 55.1744C155.879 52.9153 156.941 48.8146 156.988 48.6434L157.981 48.9069C157.981 48.9446 156.995 52.7236 158.279 54.596C158.476 54.8819 158.735 55.1195 159.036 55.2909C159.338 55.4622 159.675 55.5628 160.021 55.5852C160.247 55.6125 181.565 58.4536 185.776 58.9226C189.986 59.3915 192.502 59.3778 194.292 53.5588C195.757 48.794 200.922 34.6332 203.075 28.7662C203.54 27.5643 203.638 26.2521 203.358 24.9945C203.079 23.7368 202.434 22.5898 201.504 21.6978C200.963 21.1946 200.501 20.9755 200.207 21.0816L199.865 20.1129C200.549 19.8665 201.35 20.1472 202.206 20.9447C203.284 21.9745 204.033 23.2998 204.36 24.754C204.687 26.2083 204.577 27.7268 204.044 29.1188C201.895 34.9789 196.736 49.1226 195.278 53.86C193.693 58.9842 191.4 60.1275 188.254 60.1275Z" fill="black"/>
<path d="M170.115 19.3565L157.611 48.3935C157.44 48.7917 157.363 49.2244 157.387 49.6573C157.412 50.0903 157.536 50.5116 157.751 50.8881C157.966 51.2646 158.266 51.5859 158.627 51.8266C158.987 52.0673 159.399 52.2209 159.829 52.2752L187.792 55.8214C188.421 55.9003 189.058 55.7636 189.6 55.4334C190.141 55.1033 190.555 54.5993 190.773 54.0038L201.655 24.1726C201.8 23.773 201.852 23.3455 201.808 22.9227C201.763 22.4998 201.623 22.0926 201.398 21.732C201.172 21.3714 200.868 21.0669 200.507 20.8416C200.147 20.6162 199.74 20.4759 199.317 20.4313L172.96 17.6929C172.371 17.6333 171.778 17.7623 171.267 18.0612C170.755 18.3602 170.352 18.8137 170.115 19.3565Z" fill="#4BD657"/>
<path d="M188.152 56.3555C188.01 56.3565 187.868 56.3474 187.727 56.3281L159.765 52.7785C159.256 52.7136 158.77 52.5314 158.343 52.2464C157.917 51.9614 157.562 51.5812 157.308 51.1359C157.053 50.6906 156.906 50.1923 156.876 49.6802C156.847 49.1681 156.937 48.6562 157.14 48.1849L169.644 19.1478C169.921 18.4978 170.399 17.9539 171.009 17.5965C171.618 17.239 172.327 17.0869 173.029 17.1625L199.386 19.9009C199.887 19.953 200.369 20.1188 200.796 20.3855C201.224 20.6522 201.584 21.0128 201.851 21.4399C202.118 21.8671 202.283 22.3494 202.335 22.8503C202.388 23.3511 202.325 23.8573 202.152 24.3302L191.267 54.158C191.041 54.8026 190.619 55.3607 190.061 55.7546C189.502 56.1485 188.835 56.3585 188.152 56.3555ZM172.68 18.1791C172.235 18.1778 171.8 18.3066 171.428 18.55C171.055 18.7933 170.762 19.1404 170.585 19.5483L158.085 48.5854C157.944 48.9105 157.881 49.2638 157.901 49.6173C157.921 49.9708 158.023 50.3149 158.198 50.6224C158.374 50.9298 158.619 51.1922 158.913 51.3888C159.208 51.5854 159.544 51.7108 159.895 51.7551L187.858 55.3012C188.371 55.3674 188.892 55.2567 189.335 54.9873C189.777 54.7179 190.114 54.3059 190.291 53.8191L201.173 23.9879C201.292 23.6619 201.335 23.3131 201.299 22.9679C201.263 22.6228 201.148 22.2904 200.965 21.996C200.781 21.7017 200.532 21.4531 200.238 21.2691C199.944 21.0852 199.611 20.9708 199.266 20.9346L172.909 18.1962C172.833 18.1861 172.757 18.1804 172.68 18.1791Z" fill="black"/>
<path d="M188.101 51.2349C188.004 51.234 187.908 51.2178 187.817 51.1869C187.602 51.1116 187.426 50.9545 187.328 50.7498C187.229 50.5452 187.215 50.3098 187.29 50.095L194.923 28.1572C194.957 28.0473 195.012 27.9454 195.086 27.8575C195.16 27.7696 195.251 27.6975 195.354 27.6456C195.456 27.5936 195.568 27.5629 195.683 27.5552C195.798 27.5474 195.913 27.5629 196.021 27.6006C196.13 27.6383 196.23 27.6976 196.315 27.7748C196.4 27.852 196.469 27.9455 196.517 28.0498C196.566 28.1542 196.592 28.2672 196.596 28.3821C196.6 28.497 196.58 28.6114 196.538 28.7186L188.909 50.6598C188.85 50.8274 188.741 50.9727 188.596 51.0756C188.451 51.1786 188.278 51.2342 188.101 51.2349Z" fill="white"/>
<path d="M189.053 33.2436H189.002L170.86 31.3369C170.724 31.3224 170.599 31.2544 170.513 31.1478C170.427 31.0413 170.387 30.9049 170.401 30.7687C170.416 30.6325 170.484 30.5077 170.59 30.4217C170.697 30.3357 170.833 30.2955 170.969 30.31L189.094 32.22C189.162 32.2236 189.228 32.2405 189.289 32.2696C189.349 32.2988 189.404 32.3396 189.449 32.3898C189.494 32.44 189.529 32.4987 189.552 32.5623C189.574 32.626 189.584 32.6935 189.58 32.7609C189.577 32.8283 189.56 32.8944 189.531 32.9553C189.502 33.0162 189.461 33.0708 189.411 33.1159C189.36 33.1611 189.302 33.1959 189.238 33.2184C189.174 33.2408 189.107 33.2505 189.039 33.2469L189.053 33.2436Z" fill="black"/>
<path d="M186.184 39.9219H186.129L168.956 38.0119C168.82 37.9969 168.695 37.9285 168.61 37.8216C168.524 37.7147 168.484 37.5782 168.499 37.442C168.514 37.3058 168.583 37.1812 168.69 37.0955C168.796 37.0098 168.933 36.9701 169.069 36.985L186.242 38.895C186.378 38.9028 186.506 38.9643 186.597 39.066C186.687 39.1678 186.734 39.3014 186.727 39.4376C186.719 39.5738 186.657 39.7013 186.556 39.7921C186.454 39.883 186.32 39.9296 186.184 39.9219Z" fill="black"/>
<path d="M305.125 94.3679C318.358 94.3679 329.086 83.6403 329.086 70.4071C329.086 57.1739 318.358 46.4463 305.125 46.4463C291.892 46.4463 281.164 57.1739 281.164 70.4071C281.164 83.6403 291.892 94.3679 305.125 94.3679Z" fill="#07ACEE"/>
<path d="M305.127 94.8811C300.286 94.8811 295.554 93.4457 291.529 90.7564C287.505 88.0672 284.368 84.2448 282.515 79.7727C280.663 75.3006 280.178 70.3797 281.123 65.6322C282.067 60.8846 284.398 56.5237 287.821 53.101C291.243 49.6782 295.604 47.3472 300.352 46.4029C305.1 45.4586 310.02 45.9432 314.492 47.7956C318.965 49.648 322.787 52.7849 325.476 56.8097C328.166 60.8345 329.601 65.5663 329.601 70.4069C329.595 76.8959 327.014 83.1173 322.425 87.7058C317.837 92.2942 311.616 94.8748 305.127 94.8811ZM305.127 46.9595C300.489 46.9595 295.956 48.3347 292.1 50.9111C288.244 53.4875 285.239 57.1495 283.464 61.4339C281.689 65.7184 281.225 70.4329 282.13 74.9812C283.035 79.5295 285.268 83.7074 288.547 86.9866C291.826 90.2658 296.004 92.499 300.552 93.4037C305.101 94.3084 309.815 93.8441 314.1 92.0694C318.384 90.2947 322.046 87.2894 324.622 83.4335C327.199 79.5776 328.574 75.0443 328.574 70.4069C328.567 64.1905 326.094 58.2307 321.698 53.8351C317.303 49.4394 311.343 46.9668 305.127 46.9595Z" fill="#1D1E1B"/>
<path d="M309.665 60.7369L294.947 70.1808C294.613 70.3946 294.345 70.6956 294.17 71.0513C293.996 71.4069 293.923 71.8036 293.958 72.1981C293.993 72.5926 294.136 72.9698 294.371 73.2889C294.605 73.6079 294.923 73.8566 295.289 74.0077L310.008 80.1143C310.337 80.2511 310.695 80.3046 311.049 80.2701C311.404 80.2356 311.745 80.1141 312.041 79.9164C312.338 79.7187 312.581 79.4509 312.749 79.1367C312.918 78.8225 313.006 78.4717 313.006 78.1153V62.5613C313.006 62.1721 312.901 61.7902 312.702 61.4556C312.503 61.1211 312.218 60.8461 311.876 60.6596C311.535 60.473 311.149 60.3818 310.76 60.3954C310.371 60.409 309.993 60.5269 309.665 60.7369Z" fill="white"/>
<path d="M310.836 80.7955C310.483 80.7949 310.135 80.7251 309.809 80.5902L295.09 74.4802C294.638 74.2926 294.246 73.9849 293.957 73.5904C293.667 73.1959 293.491 72.7297 293.448 72.2423C293.405 71.7549 293.496 71.265 293.711 70.8255C293.926 70.3861 294.257 70.014 294.669 69.7496L309.388 60.3056C309.793 60.0457 310.26 59.8995 310.741 59.8825C311.222 59.8655 311.699 59.9784 312.121 60.2091C312.543 60.4399 312.896 60.78 313.141 61.1939C313.387 61.6078 313.516 62.0802 313.516 62.5614V78.1085C313.516 78.8193 313.234 79.501 312.731 80.0037C312.228 80.5063 311.547 80.7887 310.836 80.7887V80.7955ZM309.665 60.7369L309.943 61.1717L295.224 70.6122C294.969 70.7752 294.764 71.0049 294.631 71.2761C294.498 71.5474 294.442 71.85 294.469 72.1509C294.496 72.4519 294.605 72.7398 294.783 72.9832C294.962 73.2267 295.205 73.4165 295.484 73.532L310.203 79.642C310.454 79.7464 310.728 79.7869 310.999 79.76C311.27 79.7331 311.531 79.6397 311.757 79.4879C311.983 79.3361 312.168 79.1308 312.296 78.8901C312.424 78.6495 312.49 78.381 312.489 78.1085V62.5546C312.49 62.2574 312.411 61.9655 312.259 61.7097C312.108 61.4539 311.89 61.2437 311.63 61.1014C311.369 60.959 311.074 60.8898 310.777 60.9009C310.48 60.9121 310.192 61.0033 309.943 61.1648L309.665 60.7369Z" fill="black"/>
<path d="M324.466 62.3631C324.296 62.363 324.128 62.3204 323.978 62.2391C323.828 62.1578 323.7 62.0404 323.607 61.8976C319 54.8531 312.725 51.324 304.959 51.4096C301.34 51.4691 297.769 52.2475 294.453 53.6995C294.332 53.7668 294.198 53.8087 294.059 53.8226C293.921 53.8365 293.781 53.8222 293.649 53.7805C293.516 53.7387 293.393 53.6705 293.288 53.5799C293.182 53.4892 293.096 53.3781 293.035 53.2533C292.974 53.1284 292.938 52.9924 292.931 52.8535C292.924 52.7146 292.945 52.5757 292.993 52.4453C293.042 52.3148 293.116 52.1954 293.211 52.0945C293.307 51.9935 293.422 51.9131 293.55 51.858C297.108 50.27 300.95 49.4188 304.846 49.3558C310.716 49.2771 319.048 51.1905 325.315 60.7748C325.416 60.929 325.473 61.1074 325.481 61.2913C325.489 61.4752 325.448 61.6579 325.361 61.8203C325.274 61.9827 325.145 62.1187 324.988 62.2142C324.83 62.3097 324.65 62.3611 324.466 62.3631Z" fill="white"/>
<path d="M183.246 290.895H86.5331C85.0597 290.895 83.6466 290.31 82.6047 289.268C81.5629 288.226 80.9776 286.813 80.9776 285.34C80.9776 285.275 81.0033 285.213 81.0488 285.168C81.0944 285.122 81.1562 285.097 81.2207 285.097H188.805V285.34C188.805 286.069 188.661 286.792 188.381 287.466C188.102 288.141 187.693 288.753 187.176 289.269C186.66 289.785 186.047 290.194 185.373 290.473C184.698 290.752 183.976 290.895 183.246 290.895Z" fill="white"/>
<path d="M183.247 291.408H86.5338C84.9247 291.407 83.3821 290.767 82.2444 289.629C81.1066 288.491 80.4667 286.948 80.4648 285.339C80.4648 285.139 80.5442 284.948 80.6853 284.806C80.8264 284.664 81.0179 284.584 81.218 284.583H189.315V285.339C189.314 286.948 188.674 288.491 187.536 289.629C186.398 290.767 184.856 291.407 183.247 291.408ZM81.4986 285.61C81.5686 286.898 82.1296 288.111 83.0662 288.998C84.0027 289.886 85.2435 290.381 86.5338 290.382H183.247C184.537 290.381 185.778 289.886 186.714 288.998C187.651 288.111 188.212 286.898 188.282 285.61H81.4986Z" fill="black"/>
<path d="M85.0874 287.934H173.629C177.238 287.934 180.164 285.009 180.164 281.4V227.916C180.164 224.307 177.238 221.381 173.629 221.381H85.0874C81.4786 221.381 78.553 224.307 78.553 227.916L78.553 281.4C78.553 285.009 81.4786 287.934 85.0874 287.934Z" fill="white"/>
<path d="M173.629 288.447H85.0871C83.2184 288.446 81.4267 287.702 80.1054 286.381C78.784 285.06 78.0409 283.268 78.0391 281.399V227.916C78.0418 226.047 78.7852 224.256 80.1064 222.935C81.4275 221.614 83.2187 220.87 85.0871 220.868H173.629C175.498 220.869 177.289 221.613 178.611 222.934C179.932 224.255 180.675 226.047 180.677 227.916V281.399C180.676 283.268 179.933 285.061 178.612 286.382C177.29 287.704 175.498 288.446 173.629 288.447ZM85.0871 221.895C83.4908 221.896 81.9604 222.531 80.8316 223.66C79.7028 224.789 79.0678 226.319 79.066 227.916V281.399C79.0678 282.996 79.7028 284.526 80.8316 285.655C81.9604 286.784 83.4908 287.419 85.0871 287.42H173.629C175.225 287.419 176.756 286.784 177.885 285.655C179.013 284.526 179.648 282.996 179.65 281.399V227.916C179.648 226.319 179.013 224.789 177.885 223.66C176.756 222.531 175.225 221.896 173.629 221.895H85.0871Z" fill="black"/>
<path d="M82.1167 279.092C81.8444 279.092 81.5833 278.984 81.3907 278.791C81.1981 278.599 81.0898 278.337 81.0898 278.065V234.494C81.0898 234.222 81.1981 233.961 81.3907 233.768C81.5833 233.575 81.8444 233.467 82.1167 233.467C82.3891 233.467 82.6502 233.575 82.8428 233.768C83.0354 233.961 83.1436 234.222 83.1436 234.494V278.065C83.1436 278.337 83.0354 278.599 82.8428 278.791C82.6502 278.984 82.3891 279.092 82.1167 279.092Z" fill="white"/>
<path d="M128.233 259.872C130.042 259.872 131.509 258.406 131.509 256.597C131.509 254.787 130.042 253.321 128.233 253.321C126.424 253.321 124.957 254.787 124.957 256.597C124.957 258.406 126.424 259.872 128.233 259.872Z" fill="#07ACEE"/>
<path d="M128.235 260.383C127.485 260.383 126.752 260.16 126.129 259.744C125.506 259.327 125.02 258.735 124.733 258.043C124.447 257.35 124.372 256.588 124.518 255.853C124.665 255.118 125.026 254.443 125.556 253.913C126.087 253.383 126.762 253.022 127.497 252.877C128.233 252.731 128.995 252.806 129.687 253.094C130.379 253.381 130.971 253.867 131.387 254.491C131.803 255.114 132.025 255.847 132.024 256.597C132.023 257.601 131.623 258.564 130.913 259.274C130.202 259.984 129.239 260.383 128.235 260.383ZM128.235 253.835C127.688 253.835 127.154 253.996 126.7 254.3C126.246 254.604 125.892 255.035 125.682 255.54C125.473 256.045 125.419 256.6 125.525 257.136C125.632 257.672 125.895 258.164 126.281 258.55C126.668 258.936 127.16 259.2 127.696 259.306C128.231 259.413 128.787 259.358 129.292 259.149C129.796 258.94 130.228 258.586 130.531 258.131C130.835 257.677 130.997 257.143 130.997 256.597C130.997 256.234 130.926 255.875 130.787 255.54C130.648 255.205 130.444 254.9 130.188 254.644C129.931 254.387 129.627 254.184 129.292 254.045C128.956 253.906 128.597 253.835 128.235 253.835Z" fill="black"/>
<path d="M73.8319 226.365C73.696 226.36 73.5672 226.302 73.4737 226.204C73.3802 226.105 73.3294 225.974 73.3321 225.838C73.3321 225.656 73.4828 221.408 76.7825 218.4C79.1238 216.26 82.4304 215.319 86.6099 215.586C86.746 215.594 86.8732 215.657 86.9634 215.759C87.0536 215.862 87.0993 215.996 87.0907 216.132C87.0821 216.268 87.0198 216.395 86.9174 216.485C86.815 216.575 86.681 216.621 86.5449 216.613C82.6598 216.359 79.6098 217.212 77.4842 219.149C74.5062 221.857 74.3625 225.824 74.359 225.865C74.3573 225.932 74.3422 225.999 74.3147 226.06C74.2873 226.122 74.2479 226.178 74.1989 226.224C74.15 226.27 74.0924 226.307 74.0294 226.331C73.9664 226.355 73.8993 226.367 73.8319 226.365Z" fill="black"/>
<path d="M100.264 97.0109L99.3672 96.5146C110.953 75.5114 128.188 58.1713 149.12 46.457L149.62 47.3538C128.857 58.9767 111.76 76.1775 100.264 97.0109Z" fill="black"/>
<path d="M91.8345 203.965C88.2549 194.556 85.7996 184.758 84.5195 174.774L85.5464 174.644C86.8119 184.547 89.2442 194.266 92.7928 203.598L91.8345 203.965Z" fill="black"/>
<path d="M311.676 238.595L310.875 237.952C326.536 218.417 336.087 194.698 338.332 169.761C340.577 144.825 335.416 119.781 323.496 97.7639L324.399 97.2744C336.446 119.461 341.665 144.714 339.402 169.858C337.138 195.003 327.492 218.917 311.676 238.595Z" fill="black"/>
<path d="M274.664 47.8055C274.575 47.8058 274.488 47.7822 274.411 47.7371C255.281 36.8999 233.668 31.2072 211.681 31.2144C211.545 31.2144 211.415 31.1603 211.318 31.064C211.222 30.9677 211.168 30.8371 211.168 30.701C211.168 30.5648 211.222 30.4342 211.318 30.3379C211.415 30.2416 211.545 30.1875 211.681 30.1875C233.847 30.181 255.635 35.9209 274.921 46.8471C275.019 46.9036 275.096 46.9908 275.139 47.0953C275.182 47.1998 275.19 47.3157 275.161 47.425C275.131 47.5342 275.067 47.6308 274.977 47.6996C274.887 47.7684 274.777 47.8057 274.664 47.8055Z" fill="black"/>
<path d="M77.3316 119.787L76.3047 119.609C76.3047 119.534 77.6465 112.25 81.8157 102.552C85.6631 93.6013 92.7864 80.6933 104.883 70.0342L105.568 70.8009C82.7023 90.9691 77.3761 119.503 77.3316 119.787Z" fill="black"/>
<path d="M176.28 25.9053C176.195 25.9052 176.111 25.8839 176.035 25.8433C175.96 25.8026 175.896 25.744 175.849 25.6725C175.812 25.6162 175.787 25.5531 175.774 25.4869C175.762 25.4207 175.763 25.3527 175.777 25.2869C175.791 25.221 175.818 25.1585 175.856 25.1031C175.894 25.0477 175.943 25.0004 176 24.964C176.184 24.8407 195.076 12.785 223.237 17.2075C223.373 17.2284 223.495 17.3025 223.577 17.4136C223.658 17.5246 223.692 17.6635 223.671 17.7997C223.651 17.9359 223.577 18.0582 223.465 18.1397C223.354 18.2212 223.215 18.2553 223.079 18.2344C195.336 13.8735 176.753 25.7136 176.568 25.8334C176.482 25.8867 176.381 25.9118 176.28 25.9053Z" fill="black"/>
<path d="M346.374 109.186C341.681 85.7183 320.11 70.979 319.891 70.8489L320.466 69.9966C320.685 70.1472 342.602 85.1124 347.381 109.018L346.374 109.186Z" fill="black"/>
<path d="M324.47 291.531H64.6658C64.5296 291.531 64.3991 291.477 64.3028 291.381C64.2065 291.285 64.1523 291.154 64.1523 291.018C64.1523 290.882 64.2065 290.751 64.3028 290.655C64.3991 290.559 64.5296 290.504 64.6658 290.504H324.47C324.606 290.504 324.736 290.559 324.833 290.655C324.929 290.751 324.983 290.882 324.983 291.018C324.983 291.154 324.929 291.285 324.833 291.381C324.736 291.477 324.606 291.531 324.47 291.531Z" fill="black"/>
<path d="M339.357 299.233H312.658C312.522 299.233 312.391 299.179 312.295 299.083C312.199 298.986 312.145 298.856 312.145 298.72C312.145 298.583 312.199 298.453 312.295 298.356C312.391 298.26 312.522 298.206 312.658 298.206H339.357C339.493 298.206 339.624 298.26 339.72 298.356C339.816 298.453 339.871 298.583 339.871 298.72C339.871 298.856 339.816 298.986 339.72 299.083C339.624 299.179 339.493 299.233 339.357 299.233Z" fill="black"/>
<path d="M80.9241 298.548H52.5134C52.3773 298.548 52.2467 298.494 52.1504 298.398C52.0541 298.302 52 298.171 52 298.035C52 297.899 52.0541 297.768 52.1504 297.672C52.2467 297.576 52.3773 297.521 52.5134 297.521H80.9241C81.0603 297.521 81.1909 297.576 81.2872 297.672C81.3834 297.768 81.4376 297.899 81.4376 298.035C81.4376 298.171 81.3834 298.302 81.2872 298.398C81.1909 298.494 81.0603 298.548 80.9241 298.548Z" fill="black"/>
<defs>
<filter id="filter0_d_14058_96956" x="-4.02115" y="107.785" width="38.6868" height="38.6839" filterUnits="userSpaceOnUse" color-interpolation-filters="sRGB">
<feFlood flood-opacity="0" result="BackgroundImageFix"/>
<feColorMatrix in="SourceAlpha" type="matrix" values="0 0 0 0 0 0 0 0 0 0 0 0 0 0 0 0 0 0 127 0" result="hardAlpha"/>
<feOffset dy="2.03704"/>
<feGaussianBlur stdDeviation="5.09261"/>
<feComposite in2="hardAlpha" operator="out"/>
<feColorMatrix type="matrix" values="0 0 0 0 0 0 0 0 0 0 0 0 0 0 0 0 0 0 0.05 0"/>
<feBlend mode="normal" in2="BackgroundImageFix" result="effect1_dropShadow_14058_96956"/>
<feBlend mode="normal" in="SourceGraphic" in2="effect1_dropShadow_14058_96956" result="shape"/>
</filter>
<filter id="filter1_d_14058_96956" x="370.651" y="165.21" width="38.6868" height="38.6883" filterUnits="userSpaceOnUse" color-interpolation-filters="sRGB">
<feFlood flood-opacity="0" result="BackgroundImageFix"/>
<feColorMatrix in="SourceAlpha" type="matrix" values="0 0 0 0 0 0 0 0 0 0 0 0 0 0 0 0 0 0 127 0" result="hardAlpha"/>
<feOffset dy="2.03704"/>
<feGaussianBlur stdDeviation="5.09261"/>
<feComposite in2="hardAlpha" operator="out"/>
<feColorMatrix type="matrix" values="0 0 0 0 0 0 0 0 0 0 0 0 0 0 0 0 0 0 0.05 0"/>
<feBlend mode="normal" in2="BackgroundImageFix" result="effect1_dropShadow_14058_96956"/>
<feBlend mode="normal" in="SourceGraphic" in2="effect1_dropShadow_14058_96956" result="shape"/>
</filter>
<linearGradient id="paint0_linear_14058_96956" x1="20.4527" y1="112.038" x2="392.051" y2="200.547" gradientUnits="userSpaceOnUse">
<stop stop-color="#CDD5E2"/>
<stop offset="1" stop-color="#CDD5E2" stop-opacity="0"/>
</linearGradient>
<linearGradient id="paint1_linear_14058_96956" x1="391.411" y1="195.437" x2="353.85" y2="294.044" gradientUnits="userSpaceOnUse">
<stop stop-color="#CDD5E2"/>
<stop offset="1" stop-color="#CDD5E2" stop-opacity="0"/>
</linearGradient>
<linearGradient id="paint2_linear_14058_96956" x1="196.502" y1="23.2607" x2="196.502" y2="365.006" gradientUnits="userSpaceOnUse">
<stop stop-color="#CDD5E2"/>
<stop offset="1" stop-color="#CDD5E2" stop-opacity="0"/>
</linearGradient>
<linearGradient id="paint3_linear_14058_96956" x1="196.503" y1="57.4336" x2="196.503" y2="330.83" gradientUnits="userSpaceOnUse">
<stop stop-color="#CDD5E2"/>
<stop offset="1" stop-color="#CDD5E2" stop-opacity="0"/>
</linearGradient>
</defs>
</svg>
