<svg width="406" height="302" viewBox="0 0 406 302" fill="none" xmlns="http://www.w3.org/2000/svg">
<mask id="mask0_14057_91014" style="mask-type:alpha" maskUnits="userSpaceOnUse" x="0" y="0" width="406" height="302">
<rect width="405.823" height="301.875" fill="#D9D9D9"/>
</mask>
<g mask="url(#mask0_14057_91014)">
<g opacity="0.5">
<mask id="path-2-inside-1_14057_91014" fill="white">
<path d="M389.979 202.565C391.995 156.308 377.371 110.86 348.759 74.4588C320.146 38.0574 279.439 13.1119 234.015 4.14415C188.592 -4.82363 141.458 2.77982 101.159 25.5762C60.859 48.3727 30.0607 84.8533 14.3462 128.405L15.1858 128.708C30.8279 85.357 61.4843 49.0446 101.598 26.3532C141.712 3.66186 188.628 -3.90654 233.842 5.0199C279.057 13.9463 319.576 38.7768 348.057 75.0104C376.537 111.244 391.094 156.483 389.087 202.526L389.979 202.565Z"/>
</mask>
<path d="M389.979 202.565C391.995 156.308 377.371 110.86 348.759 74.4588C320.146 38.0574 279.439 13.1119 234.015 4.14415C188.592 -4.82363 141.458 2.77982 101.159 25.5762C60.859 48.3727 30.0607 84.8533 14.3462 128.405L15.1858 128.708C30.8279 85.357 61.4843 49.0446 101.598 26.3532C141.712 3.66186 188.628 -3.90654 233.842 5.0199C279.057 13.9463 319.576 38.7768 348.057 75.0104C376.537 111.244 391.094 156.483 389.087 202.526L389.979 202.565Z" stroke="url(#paint0_linear_14057_91014)" stroke-width="2.84788" stroke-dasharray="4.27 4.27" mask="url(#path-2-inside-1_14057_91014)"/>
</g>
<g opacity="0.5">
<mask id="path-3-inside-2_14057_91014" fill="white">
<path d="M14.6043 260.572C30.4892 304.063 61.4301 340.422 101.819 363.061C142.207 385.699 189.37 393.118 234.758 383.973C280.146 374.827 320.756 349.723 349.225 313.21C377.695 276.697 392.141 231.192 389.944 184.943L389.052 184.986C391.239 231.021 376.86 276.316 348.521 312.661C320.183 349.006 279.761 373.994 234.582 383.098C189.403 392.201 142.457 384.816 102.255 362.282C62.0527 339.748 31.2544 303.556 15.4428 260.266L14.6043 260.572Z"/>
</mask>
<path d="M14.6043 260.572C30.4892 304.063 61.4301 340.422 101.819 363.061C142.207 385.699 189.37 393.118 234.758 383.973C280.146 374.827 320.756 349.723 349.225 313.21C377.695 276.697 392.141 231.192 389.944 184.943L389.052 184.986C391.239 231.021 376.86 276.316 348.521 312.661C320.183 349.006 279.761 373.994 234.582 383.098C189.403 392.201 142.457 384.816 102.255 362.282C62.0527 339.748 31.2544 303.556 15.4428 260.266L14.6043 260.572Z" stroke="url(#paint1_linear_14057_91014)" stroke-width="2.84788" stroke-dasharray="4.27 4.27" mask="url(#path-3-inside-2_14057_91014)"/>
</g>
<circle opacity="0.08" cx="196.502" cy="194.133" r="170.873" fill="url(#paint2_linear_14057_91014)"/>
<circle opacity="0.1" cx="196.505" cy="194.132" r="136.698" fill="url(#paint3_linear_14057_91014)"/>
<circle cx="196.505" cy="194.134" r="91.1321" fill="white"/>
<g filter="url(#filter0_d_14057_91014)">
<circle cx="15.3224" cy="125.09" r="7.11969" transform="rotate(-2.50406 15.3224 125.09)" fill="#0170FF"/>
<circle cx="15.3224" cy="125.09" r="8.13822" transform="rotate(-2.50406 15.3224 125.09)" stroke="white" stroke-width="2.03704"/>
</g>
<g filter="url(#filter1_d_14057_91014)">
<circle cx="389.993" cy="182.517" r="7.11969" transform="rotate(-15.7345 389.993 182.517)" fill="#0170FF"/>
<circle cx="389.993" cy="182.517" r="8.13822" transform="rotate(-15.7345 389.993 182.517)" stroke="white" stroke-width="2.03704"/>
</g>
</g>
<path d="M359.803 287.525H82.3964C82.1975 287.525 82.0065 287.446 81.8658 287.305C81.7252 287.165 81.6465 286.974 81.6465 286.775C81.6465 286.576 81.7252 286.385 81.8658 286.245C82.0065 286.104 82.1975 286.025 82.3964 286.025H359.803C360.002 286.025 360.192 286.104 360.333 286.245C360.474 286.385 360.553 286.576 360.553 286.775C360.553 286.974 360.474 287.165 360.333 287.305C360.192 287.446 360.002 287.525 359.803 287.525Z" fill="#1D1D1B"/>
<path d="M372.833 298.335H330.289C330.09 298.335 329.899 298.256 329.759 298.116C329.618 297.975 329.539 297.784 329.539 297.585C329.539 297.386 329.618 297.196 329.759 297.055C329.899 296.915 330.09 296.835 330.289 296.835H372.844C373.043 296.835 373.234 296.915 373.375 297.055C373.515 297.196 373.594 297.386 373.594 297.585C373.594 297.784 373.515 297.975 373.375 298.116C373.234 298.256 373.043 298.335 372.844 298.335H372.833Z" fill="#1D1D1B"/>
<path d="M108.551 300H65.996C65.7971 300 65.6064 299.921 65.4658 299.78C65.3252 299.64 65.2461 299.449 65.2461 299.25C65.2461 299.051 65.3252 298.86 65.4658 298.72C65.6064 298.579 65.7971 298.5 65.996 298.5H108.551C108.75 298.5 108.941 298.579 109.082 298.72C109.222 298.86 109.301 299.051 109.301 299.25C109.301 299.449 109.222 299.64 109.082 299.78C108.941 299.921 108.75 300 108.551 300Z" fill="#1D1D1B"/>
<path d="M275.675 156.484C274.476 156.499 273.279 156.431 272.09 156.282C272.016 156.271 271.945 156.245 271.881 156.207C271.817 156.168 271.761 156.117 271.717 156.057C271.672 155.997 271.64 155.929 271.622 155.857C271.604 155.784 271.601 155.709 271.612 155.635C271.623 155.561 271.648 155.49 271.687 155.426C271.725 155.362 271.776 155.306 271.836 155.262C271.896 155.218 271.964 155.185 272.037 155.167C272.109 155.149 272.185 155.146 272.259 155.157C272.326 155.157 279.162 156.147 288.423 153.439C296.962 150.938 309.381 144.699 320.026 129.157C320.114 129.045 320.242 128.971 320.383 128.949C320.524 128.928 320.667 128.961 320.785 129.041C320.902 129.122 320.985 129.244 321.016 129.383C321.047 129.522 321.024 129.667 320.952 129.79C310.101 145.633 297.416 151.992 288.679 154.538C284.457 155.795 280.079 156.45 275.675 156.484Z" fill="black"/>
<path d="M298.012 164.981C291.694 164.981 287.558 163.399 287.382 163.328C287.251 163.268 287.148 163.16 287.094 163.027C287.04 162.894 287.039 162.745 287.091 162.611C287.144 162.477 287.245 162.369 287.375 162.307C287.505 162.246 287.654 162.237 287.79 162.281C287.959 162.345 304.788 168.656 321.808 155.281C321.865 155.233 321.932 155.196 322.004 155.175C322.076 155.153 322.152 155.146 322.227 155.154C322.302 155.161 322.374 155.184 322.44 155.221C322.506 155.257 322.564 155.307 322.61 155.366C322.657 155.425 322.691 155.493 322.711 155.566C322.73 155.638 322.735 155.714 322.725 155.789C322.715 155.863 322.69 155.935 322.651 156C322.613 156.065 322.562 156.121 322.501 156.166C313.341 163.365 304.293 164.933 298.316 164.981H298.012Z" fill="black"/>
<path d="M237.61 138.501C237.61 138.501 237.19 151.142 246.351 149.477C255.511 147.812 275.088 144.062 278.838 157.809C282.588 171.555 280.919 174.052 290.916 174.885C300.912 175.717 317.092 194.612 293.803 210.361C270.514 226.109 218.861 149.477 218.861 149.477L221.032 141.94L237.61 138.501Z" fill="#382256"/>
<path d="M237.61 138.501C237.61 138.501 237.235 149.63 244.761 149.63C245.294 149.628 245.826 149.576 246.351 149.477C250.172 148.783 255.8 147.726 261.349 147.726C269.096 147.726 276.663 149.792 278.849 157.808C282.599 171.551 280.93 174.052 290.927 174.885C300.924 175.717 317.104 194.612 293.814 210.36C291.692 211.789 289.183 212.533 286.626 212.494C261.342 212.494 218.873 149.477 218.873 149.477L221.044 141.94L237.621 138.501H237.61ZM237.621 137.376C237.544 137.376 237.468 137.384 237.392 137.399L220.815 140.841C220.614 140.882 220.429 140.977 220.278 141.116C220.127 141.255 220.017 141.432 219.96 141.629L217.793 149.165C217.747 149.323 217.736 149.49 217.761 149.652C217.787 149.815 217.847 149.97 217.939 150.107C225.515 161.087 233.688 171.643 242.421 181.728C260.929 202.891 275.793 213.619 286.626 213.619C289.408 213.656 292.135 212.845 294.444 211.294C307.733 202.295 307.602 192.876 306.342 188.046C304.261 180.089 296.739 174.236 291.021 173.76C283.709 173.148 283.469 172.125 281.59 164.138C281.144 162.244 280.641 160.096 279.933 157.509C277.96 150.268 271.706 146.597 261.349 146.597C255.879 146.597 250.243 147.624 246.512 148.303L246.163 148.367C245.704 148.454 245.239 148.499 244.772 148.502C244.119 148.524 243.468 148.409 242.862 148.163C242.257 147.916 241.711 147.545 241.259 147.073C238.585 144.31 238.742 138.591 238.742 138.535C238.747 138.384 238.722 138.234 238.668 138.093C238.613 137.952 238.531 137.824 238.426 137.715C238.321 137.607 238.196 137.521 238.057 137.462C237.918 137.403 237.768 137.372 237.618 137.373L237.621 137.376Z" fill="black"/>
<path d="M296.27 208.576C295.374 187.697 263.427 164.487 253.014 160.737C242.601 156.987 230.107 151.156 228.442 146.578C226.777 142 234.404 140.357 234.404 140.357L232.184 139.641L221.032 141.955L218.861 149.492C218.861 149.492 270.51 226.128 293.803 210.375C294.684 209.764 295.502 209.164 296.27 208.576Z" fill="#050505"/>
<path d="M197.374 162.848C197.374 162.848 189.458 166.181 194.041 170.763C198.623 175.346 205.665 172.308 209.231 170.077C209.231 170.077 208.204 175.762 215.699 174.925C223.195 174.089 229.025 172.012 228.193 162.848H197.374Z" fill="white"/>
<path d="M228.192 162.848C229.025 172.012 223.194 174.097 215.699 174.925C215.227 174.982 214.752 175.011 214.277 175.012C208.338 175.012 209.23 170.077 209.23 170.077C207.029 171.457 203.489 173.148 200.024 173.148C198.915 173.179 197.811 172.984 196.779 172.574C195.747 172.164 194.81 171.548 194.025 170.763C189.443 166.181 197.359 162.848 197.359 162.848H228.177H228.192ZM228.177 161.723H197.359C197.208 161.723 197.059 161.754 196.92 161.813C196.436 162.015 192.18 163.894 191.55 167.104C191.247 168.645 191.813 170.141 193.23 171.558C194.117 172.447 195.175 173.147 196.34 173.613C197.506 174.08 198.754 174.305 200.009 174.273C203.125 174.273 206.174 173.017 208.169 171.974C208.325 172.788 208.682 173.55 209.208 174.19C210.288 175.48 211.986 176.137 214.262 176.137C214.779 176.135 215.294 176.105 215.807 176.047C219.182 175.672 223.025 175 225.744 172.901C228.56 170.726 229.722 167.403 229.299 162.746C229.273 162.466 229.144 162.205 228.935 162.016C228.727 161.826 228.455 161.722 228.174 161.723H228.177Z" fill="black"/>
<path d="M262.044 99.2004C262.005 99.1961 261.967 99.1848 261.932 99.1667C261.868 99.1405 261.811 99.1018 261.762 99.0532C261.714 99.0046 261.676 98.947 261.65 98.8835C261.624 98.82 261.611 98.7519 261.612 98.6834C261.613 98.6148 261.627 98.5471 261.654 98.4842C262.753 95.8819 262.862 93.467 261.977 91.3072C260.394 87.4412 256.119 85.6302 256.075 85.6114C255.947 85.5587 255.845 85.4574 255.792 85.3298C255.739 85.2022 255.739 85.0586 255.791 84.9309C255.844 84.8031 255.945 84.7014 256.073 84.6483C256.201 84.5953 256.344 84.5951 256.472 84.6478C256.663 84.7265 261.185 86.6315 262.94 90.9024C263.937 93.3322 263.829 96.0206 262.614 98.8891C262.569 98.9983 262.487 99.0887 262.384 99.1453C262.28 99.2019 262.16 99.2214 262.044 99.2004Z" fill="black"/>
<path d="M249.851 97.6031H249.809C249.735 97.5979 249.663 97.5781 249.597 97.5449C249.531 97.5117 249.471 97.4659 249.423 97.4098C249.375 97.3537 249.338 97.2885 249.315 97.2181C249.291 97.1477 249.283 97.0734 249.288 96.9995C249.528 93.7747 248.793 91.2512 247.106 89.5001C244.342 86.639 239.921 86.774 239.876 86.774C239.802 86.7767 239.729 86.7648 239.66 86.7391C239.59 86.7133 239.527 86.6742 239.473 86.6239C239.419 86.5736 239.375 86.5131 239.344 86.4459C239.313 86.3787 239.296 86.3061 239.293 86.2323C239.291 86.1584 239.302 86.0848 239.328 86.0155C239.354 85.9462 239.393 85.8827 239.443 85.8285C239.494 85.7744 239.554 85.7306 239.621 85.6998C239.689 85.6691 239.761 85.6518 239.835 85.6491C240.034 85.6491 244.807 85.4954 247.916 88.7164C249.836 90.7075 250.676 93.5198 250.413 97.082C250.403 97.2239 250.339 97.3566 250.234 97.4533C250.13 97.5501 249.993 97.6035 249.851 97.6031Z" fill="white"/>
<path d="M244.378 112.238C251.411 112.238 257.112 106.537 257.112 99.5045C257.112 92.4717 251.411 86.7705 244.378 86.7705C237.346 86.7705 231.645 92.4717 231.645 99.5045C231.645 106.537 237.346 112.238 244.378 112.238Z" fill="#382256"/>
<path d="M246.569 86.9579C249.055 87.389 251.356 88.5476 253.183 90.2873C255.01 92.0269 256.279 94.2692 256.831 96.7306C257.382 99.192 257.192 101.762 256.282 104.115C255.373 106.468 253.787 108.498 251.723 109.949C249.66 111.399 247.212 112.205 244.69 112.265C242.168 112.324 239.686 111.634 237.556 110.282C235.427 108.929 233.747 106.976 232.728 104.668C231.709 102.361 231.397 99.8029 231.833 97.3183C232.416 93.9917 234.295 91.0323 237.058 89.0898C239.821 87.1474 243.242 86.3808 246.569 86.9579ZM246.746 85.9343C244.061 85.4668 241.299 85.8057 238.807 86.9081C236.316 88.0106 234.207 89.8272 232.748 92.1281C231.289 94.4289 230.545 97.1106 230.609 99.8343C230.674 102.558 231.546 105.201 233.113 107.43C234.68 109.659 236.872 111.373 239.413 112.356C241.955 113.338 244.73 113.545 247.389 112.951C250.048 112.356 252.471 110.986 254.351 109.015C256.232 107.043 257.485 104.558 257.953 101.874C258.577 98.2746 257.748 94.5746 255.646 91.5861C253.545 88.5976 250.344 86.565 246.746 85.9343Z" fill="black"/>
<path d="M192.212 110.037C192.212 110.037 189.693 98.5818 197.462 94.4534C205.231 90.325 206.488 92.1137 210.44 89.6689C214.392 87.2241 223.189 88.3677 227.666 94.2398C227.666 94.2398 238.641 94.1948 243.79 100.581C248.938 106.966 248.912 111.657 247.022 117.987C245.132 124.316 245.297 127.875 244.12 132.37C242.942 136.866 237.809 148.119 218.944 145.221C200.079 142.322 192.212 110.037 192.212 110.037Z" fill="#382256"/>
<path d="M218.171 88.6975C221.647 89.3012 225.296 91.0899 227.681 94.2396C229.19 94.2681 230.695 94.4173 232.18 94.6858C235.814 95.3195 240.804 96.857 243.804 100.58C248.96 106.955 248.926 111.657 247.036 117.987C245.147 124.316 245.312 127.874 244.134 132.37C242.957 136.866 237.823 148.119 218.958 145.221C218.842 145.221 218.726 145.183 218.61 145.164C199.993 141.917 192.219 110.037 192.219 110.037C192.219 110.037 189.7 98.5817 197.469 94.4533C205.238 90.3249 206.495 92.1136 210.447 89.6688C212.281 88.5439 215.16 88.1688 218.164 88.6975H218.171ZM218.344 87.6702C215.096 87.1039 211.943 87.5202 209.899 88.7951C208.298 89.785 207.229 90.0062 205.752 90.2949C203.825 90.6887 201.425 91.1761 196.982 93.5384C193.479 95.4132 191.376 98.908 190.892 103.693C190.678 105.886 190.78 108.098 191.196 110.262V110.288C192.709 116.017 194.819 121.57 197.491 126.858C200.019 131.815 202.839 135.914 205.872 139.034C209.731 143.008 213.953 145.408 218.419 146.195L218.794 146.255C227.23 147.556 233.969 146.256 238.825 142.39C241.919 139.9 244.133 136.483 245.139 132.64C245.596 130.8 245.948 128.934 246.193 127.053C246.576 124.09 247.19 121.161 248.03 118.294C249.98 111.758 250.047 106.67 244.614 99.9204C241.408 95.9495 236.177 94.3221 232.353 93.6547C230.974 93.4106 229.581 93.2602 228.183 93.2046C225.854 90.3623 222.296 88.3563 218.344 87.6663V87.6702Z" fill="black"/>
<path d="M146.928 150.736C170.086 143.5 228.138 154.67 244.472 175.203C253.771 186.891 263.221 208.684 272.595 235.915C276.558 247.426 283.702 258.203 297.148 256.913C305.847 256.066 314.929 262.162 313.647 268.072C311.164 279.696 290.432 287.267 290.432 287.267L126.289 286.588C126.289 286.588 107.293 248.84 125.34 210.908C125.34 210.908 89.6734 225.907 75.0608 219.397C60.4483 212.888 41.3134 172.961 55.911 168.9L53.035 158.997L75.7434 146.083L80.5279 152.146C80.5279 152.146 87.9036 143.372 93.0744 149.758C98.2452 156.144 106.424 169.144 106.424 169.144C106.424 169.144 112.108 161.626 146.928 150.736Z" fill="#07ACEE"/>
<path d="M290.467 287.814L126.324 287.135C126.22 287.135 126.118 287.107 126.029 287.052C125.94 286.998 125.869 286.92 125.821 286.828C125.776 286.731 121.006 277.154 118.528 263.055C116.278 250.325 115.528 231.246 124.258 211.958C118.918 214.099 99.1794 221.595 84.6718 221.598C80.9484 221.598 77.5701 221.103 74.8666 219.896C63.5087 214.83 49.2185 189.598 50.2046 176.351C50.5084 172.279 52.2482 169.583 55.2517 168.514L52.5295 159.14C52.4945 159.018 52.5013 158.889 52.5489 158.772C52.5965 158.655 52.6822 158.557 52.7921 158.495L75.5001 145.581C75.6165 145.514 75.7532 145.491 75.8849 145.518C76.0166 145.544 76.1344 145.617 76.2163 145.723L80.5922 151.261C81.7846 149.998 85.1145 146.852 88.6804 146.852H88.7364C90.5775 146.852 92.1974 147.722 93.5473 149.39C98.047 154.936 104.849 165.548 106.544 168.214C108.572 166.238 117.197 159.443 146.778 150.215L146.943 150.752L146.778 150.215C158.027 146.706 178.275 147.414 198.4 152.023C220.433 157.07 237.397 165.398 244.93 174.87C253.536 185.691 262.768 205.617 273.143 235.746C278.213 250.471 286.267 257.404 297.111 256.351C302.619 255.818 308.799 258.049 312.11 261.776C313.917 263.805 314.663 266.081 314.213 268.188C311.694 279.97 291.501 287.481 290.643 287.796C290.585 287.811 290.526 287.817 290.467 287.814ZM126.68 286.014L290.366 286.689C291.865 286.119 310.828 278.725 313.13 267.941C313.61 265.691 312.38 263.752 311.289 262.515C308.184 259.035 302.394 256.958 297.22 257.46C296.47 257.535 295.72 257.569 294.97 257.573C284.684 257.573 276.994 250.362 272.097 236.102C261.759 206.082 252.598 186.28 244.064 175.56C236.685 166.283 219.953 158.097 198.164 153.106C178.219 148.539 158.185 147.823 147.127 151.276C113.05 161.926 106.979 169.399 106.919 169.474C106.865 169.547 106.793 169.606 106.711 169.644C106.628 169.683 106.537 169.7 106.446 169.695C106.356 169.69 106.268 169.664 106.189 169.618C106.111 169.573 106.045 169.509 105.996 169.432C105.914 169.305 97.7771 156.391 92.685 150.099C91.5601 148.708 90.2328 147.995 88.7441 147.98H88.6954C84.8557 147.98 81.046 152.454 81.0086 152.48C80.9564 152.546 80.8893 152.598 80.813 152.632C80.7367 152.667 80.6535 152.683 80.5699 152.679C80.4858 152.679 80.4029 152.66 80.3275 152.623C80.252 152.586 80.1861 152.532 80.1348 152.465L75.6352 146.784L53.7332 159.237L56.4854 168.713C56.5262 168.857 56.5088 169.012 56.4367 169.144C56.3622 169.274 56.2398 169.371 56.0954 169.414C53.2156 170.212 51.5959 172.571 51.3259 176.418C50.366 189.332 64.2698 213.915 75.3239 218.854C89.5503 225.202 124.801 210.51 125.154 210.36C125.258 210.318 125.372 210.307 125.482 210.33C125.593 210.353 125.693 210.408 125.771 210.489C125.85 210.57 125.902 210.672 125.922 210.783C125.941 210.894 125.927 211.008 125.881 211.11C116.631 230.556 117.377 249.954 119.63 262.796C121.832 275.365 125.855 284.278 126.68 286.014Z" fill="#1D1D1B"/>
<path d="M196.316 149.267C196.316 149.267 187.317 150.59 191.441 158.862C195.566 167.134 203.59 164.637 203.59 164.637C203.59 164.637 219.474 181.885 224.348 160.317L196.316 149.267Z" fill="white"/>
<path d="M215.375 171.738C210.016 171.738 204.617 166.489 203.424 165.263C201.782 165.638 194.759 166.714 190.953 159.113C189.633 156.488 189.453 154.216 190.402 152.39C191.977 149.368 196.06 148.738 196.236 148.711L196.382 148.689L225.019 159.968L224.91 160.44C223.474 166.815 220.917 170.527 217.313 171.487C216.681 171.656 216.029 171.74 215.375 171.738ZM203.777 163.995L204.021 164.258C204.092 164.333 211.201 171.96 217.028 170.4C220.107 169.579 222.353 166.301 223.707 160.65L196.259 149.836C195.569 149.971 192.554 150.672 191.384 152.904C190.612 154.403 190.799 156.308 191.946 158.599C195.831 166.358 203.117 164.186 203.428 164.089L203.777 163.995Z" fill="#1D1D1B"/>
<path d="M216.669 223.93C218.075 223.93 219.215 222.791 219.215 221.384C219.215 219.978 218.075 218.838 216.669 218.838C215.263 218.838 214.123 219.978 214.123 221.384C214.123 222.791 215.263 223.93 216.669 223.93Z" fill="#51CEF4"/>
<path d="M168.335 182.838C169.741 182.838 170.881 181.698 170.881 180.292C170.881 178.886 169.741 177.746 168.335 177.746C166.929 177.746 165.789 178.886 165.789 180.292C165.789 181.698 166.929 182.838 168.335 182.838Z" fill="#51CEF4"/>
<path d="M151.454 227.088C152.86 227.088 154 225.948 154 224.542C154 223.136 152.86 221.996 151.454 221.996C150.048 221.996 148.908 223.136 148.908 224.542C148.908 225.948 150.048 227.088 151.454 227.088Z" fill="#51CEF4"/>
<path d="M178.587 217.571C179.993 217.571 181.133 216.431 181.133 215.025C181.133 213.619 179.993 212.479 178.587 212.479C177.181 212.479 176.041 213.619 176.041 215.025C176.041 216.431 177.181 217.571 178.587 217.571Z" fill="#51CEF4"/>
<path d="M235.788 186.066C237.194 186.066 238.334 184.926 238.334 183.52C238.334 182.114 237.194 180.974 235.788 180.974C234.382 180.974 233.242 182.114 233.242 183.52C233.242 184.926 234.382 186.066 235.788 186.066Z" fill="#51CEF4"/>
<path d="M207.714 196.048C209.12 196.048 210.26 194.908 210.26 193.502C210.26 192.095 209.12 190.956 207.714 190.956C206.308 190.956 205.168 192.095 205.168 193.502C205.168 194.908 206.308 196.048 207.714 196.048Z" fill="#51CEF4"/>
<path d="M168.005 168.394C169.411 168.394 170.551 167.254 170.551 165.848C170.551 164.442 169.411 163.302 168.005 163.302C166.599 163.302 165.459 164.442 165.459 165.848C165.459 167.254 166.599 168.394 168.005 168.394Z" fill="#51CEF4"/>
<path d="M113.995 191.829C115.401 191.829 116.541 190.69 116.541 189.283C116.541 187.877 115.401 186.737 113.995 186.737C112.589 186.737 111.449 187.877 111.449 189.283C111.449 190.69 112.589 191.829 113.995 191.829Z" fill="#51CEF4"/>
<path d="M87.4425 172.388C88.8487 172.388 89.9886 171.248 89.9886 169.841C89.9886 168.435 88.8487 167.295 87.4425 167.295C86.0364 167.295 84.8965 168.435 84.8965 169.841C84.8965 171.248 86.0364 172.388 87.4425 172.388Z" fill="#51CEF4"/>
<path d="M68.0558 183.059C69.462 183.059 70.6019 181.919 70.6019 180.513C70.6019 179.107 69.462 177.967 68.0558 177.967C66.6497 177.967 65.5098 179.107 65.5098 180.513C65.5098 181.919 66.6497 183.059 68.0558 183.059Z" fill="#51CEF4"/>
<path d="M239.884 187.131C241.29 187.131 242.43 185.991 242.43 184.585C242.43 183.179 241.29 182.039 239.884 182.039C238.478 182.039 237.338 183.179 237.338 184.585C237.338 185.991 238.478 187.131 239.884 187.131Z" fill="#51CEF4"/>
<path d="M54.1465 159.432L75.6999 146.908L80.5408 152.814C80.5408 152.814 74.4736 167.325 56.6288 168.874L54.1465 159.432Z" fill="#0598C6"/>
<path d="M122.985 217.016C122.933 217.016 122.881 217.008 122.832 216.993C122.69 216.951 122.571 216.854 122.501 216.724C122.431 216.594 122.415 216.441 122.457 216.3C125.734 204.803 140.02 183.445 140.624 182.552C140.707 182.429 140.837 182.343 140.983 182.315C141.13 182.286 141.282 182.317 141.406 182.4C141.53 182.484 141.615 182.613 141.643 182.76C141.672 182.907 141.641 183.058 141.557 183.182C141.411 183.4 126.769 205.306 123.536 216.618C123.5 216.736 123.427 216.838 123.328 216.91C123.228 216.981 123.108 217.019 122.985 217.016Z" fill="#1D1E1B"/>
<path opacity="0.4" d="M117.062 171.371C116.825 171.37 116.595 171.295 116.404 171.156C116.212 171.018 116.07 170.822 115.996 170.597C115.922 170.373 115.921 170.131 115.992 169.905C116.064 169.68 116.205 169.483 116.395 169.342C133.268 156.893 149.129 153.717 159.46 153.245C170.709 152.731 177.833 155.157 178.152 155.258C178.434 155.358 178.665 155.565 178.794 155.835C178.923 156.105 178.94 156.414 178.84 156.696C178.741 156.978 178.533 157.209 178.264 157.338C177.994 157.467 177.684 157.484 177.402 157.384C177.316 157.354 170.278 154.988 159.433 155.51C149.444 155.982 134.093 159.083 117.714 171.161C117.524 171.297 117.296 171.37 117.062 171.371Z" fill="white"/>
<path d="M292.701 282.708C292.701 282.708 294.403 273.045 315.998 268.5C337.592 263.955 353.495 287.249 353.495 287.249H292.697L292.701 282.708Z" fill="white"/>
<path d="M354.568 287.814H292.139V282.61C292.21 282.197 294.16 272.523 315.874 267.948C324.873 266.055 334.316 268.747 343.187 275.729C347.268 278.959 350.891 282.728 353.956 286.933L354.568 287.814ZM293.264 286.689H352.411C349.532 282.931 346.201 279.54 342.493 276.595C336.494 271.882 327.063 266.749 316.133 269.051C295.858 273.318 293.436 282.096 293.282 282.764L293.264 286.689Z" fill="#1D1E1B"/>
<path d="M325.088 259.41C329.636 257.134 340.432 259.41 342.711 263.955C344.991 268.499 341.009 271.908 337.031 273.044C333.052 274.18 327.525 268.545 327.525 268.545L325.088 259.41Z" fill="#FFCDB2"/>
<path d="M335.913 273.756C331.901 273.756 327.342 269.163 327.128 268.945L327.027 268.841L324.439 259.11L324.848 258.904C327.132 257.779 330.979 257.64 334.894 258.578C338.992 259.56 342.108 261.476 343.218 263.703C343.641 264.475 343.884 265.332 343.928 266.211C343.972 267.09 343.817 267.967 343.473 268.777C342.348 271.319 339.491 272.928 337.188 273.588C336.773 273.702 336.344 273.759 335.913 273.756ZM328.039 268.259C328.789 269.009 333.555 273.456 336.884 272.504C338.943 271.915 341.482 270.509 342.445 268.323C343.015 267.033 342.936 265.646 342.216 264.198C341.249 262.267 338.414 260.572 334.635 259.665C331.26 258.851 327.855 258.881 325.771 259.717L328.039 268.259Z" fill="#1D1D1B"/>
<path d="M309.746 267.933C309.746 267.933 312.019 258.27 319.975 257.134C327.932 255.998 334.749 259.976 334.179 267.933C333.609 275.89 323.95 277.023 318.835 275.32C313.721 273.618 309.746 267.933 309.746 267.933Z" fill="#FFCDB2"/>
<path d="M323.395 276.562C321.789 276.574 320.191 276.335 318.659 275.853C313.429 274.109 309.45 268.492 309.285 268.256L309.139 268.05L309.199 267.802C309.292 267.394 311.655 257.757 319.893 256.579C324.64 255.901 328.937 256.984 331.686 259.546C333.936 261.638 334.985 264.551 334.742 267.971C334.679 269.281 334.306 270.557 333.654 271.695C333.002 272.833 332.09 273.801 330.992 274.518C328.832 275.962 326.031 276.562 323.395 276.562ZM310.357 267.817C311.107 268.837 314.685 273.341 319.016 274.784C322.18 275.842 327.096 275.767 330.366 273.584C331.324 272.965 332.119 272.125 332.685 271.134C333.251 270.144 333.57 269.032 333.617 267.892C333.838 264.821 332.905 262.219 330.921 260.37C328.416 258.038 324.457 257.063 320.047 257.693C313.256 258.664 310.789 266.34 310.357 267.821V267.817Z" fill="#1D1D1B"/>
<path d="M292.133 275.321C287.311 277.732 286.452 282.708 287.018 287.252C287.584 291.797 293.269 295.775 298.384 293.503C303.498 291.231 301.226 285.546 298.384 282.708C295.541 279.869 300.656 275.321 303.498 279.295C306.34 283.27 314.293 282.708 318.838 279.295C323.383 275.883 319.963 267.364 313.727 265.092C307.492 262.819 300.656 261.683 297.813 267.934C294.971 274.184 294.405 274.196 292.133 275.321Z" fill="#FFCDB2"/>
<path d="M295.285 294.721C293.754 294.711 292.252 294.305 290.924 293.544C288.475 292.16 286.766 289.775 286.458 287.319C285.933 283.116 286.458 277.533 291.88 274.814L292.255 274.638C294.13 273.708 294.715 273.427 297.317 267.697C300.527 260.636 308.337 262.526 313.932 264.562C317.749 265.95 320.824 269.677 321.409 273.622C321.784 276.209 321.008 278.384 319.193 279.745C316.022 282.006 312.114 282.985 308.251 282.486C305.934 282.13 304.127 281.14 303.054 279.625C302.15 278.361 301.138 278.219 300.429 278.328C299.929 278.411 299.46 278.627 299.071 278.953C298.682 279.278 298.387 279.702 298.217 280.18C298.091 280.551 298.077 280.951 298.177 281.33C298.277 281.709 298.486 282.05 298.779 282.31C300.699 284.23 302.409 287.406 301.896 290.184C301.581 291.883 300.444 293.214 298.61 294.028C297.563 294.491 296.43 294.727 295.285 294.721ZM292.382 275.823C287.538 278.245 287.095 283.322 287.575 287.181C287.838 289.292 289.334 291.354 291.475 292.565C292.476 293.156 293.603 293.502 294.763 293.576C295.924 293.65 297.085 293.449 298.153 292.989C299.653 292.321 300.542 291.305 300.778 289.967C301.213 287.616 299.631 284.758 297.973 283.105C297.535 282.695 297.223 282.169 297.075 281.589C296.927 281.008 296.948 280.396 297.137 279.827C297.37 279.15 297.783 278.548 298.331 278.085C298.879 277.623 299.542 277.318 300.249 277.203C301.07 277.075 302.642 277.139 303.943 278.958C305.068 280.555 306.995 281.147 308.397 281.365C311.96 281.823 315.564 280.919 318.488 278.834C319.958 277.731 320.591 275.935 320.273 273.775C319.751 270.277 316.898 266.842 313.523 265.609C305.3 262.609 300.467 263.426 298.318 268.155C295.66 274.004 294.966 274.529 292.731 275.635L292.382 275.823Z" fill="#1D1D1B"/>
<path d="M29.1196 126.75C29.1196 126.75 21.1476 146.113 50.7477 156.425C50.7477 156.425 67.0214 161.322 74.9333 153.823V151.741C74.9333 151.741 86.5948 144.658 84.5137 136.743C84.5137 136.743 76.182 133.829 66.6016 143.406C66.6016 143.406 61.607 128.831 46.1957 128.831C46.1957 128.831 39.9487 125.081 37.4476 128.415C37.4364 128.418 34.5341 124.669 29.1196 126.75Z" fill="#FFCDB2"/>
<path d="M32.2926 126.12C33.2665 126.111 34.2307 126.312 35.1202 126.709C36.0098 127.105 36.8038 127.688 37.4484 128.418C38.1984 127.391 39.3232 127.035 40.5306 127.035C43.2003 127.035 46.1965 128.834 46.1965 128.834C61.6078 128.834 66.6023 143.41 66.6023 143.41C72.5606 137.455 78.0314 136.33 81.3199 136.33C82.3998 136.305 83.477 136.446 84.5145 136.746C86.5955 144.658 74.9341 151.745 74.9341 151.745V153.83C71.5031 157.081 66.501 158.003 61.9339 158.003C58.153 157.967 54.393 157.439 50.7485 156.432C21.1484 146.121 29.1203 126.757 29.1203 126.757C30.1302 126.354 31.2055 126.141 32.2926 126.127V126.12ZM32.2926 125.002C31.0671 125.017 29.8547 125.256 28.7153 125.707C28.5723 125.762 28.4419 125.846 28.3323 125.953C28.2227 126.06 28.1361 126.188 28.0778 126.33C26.4254 131.098 26.6808 136.32 28.7904 140.905C32.0002 148.029 39.2593 153.62 50.3772 157.493H50.4222C54.172 158.535 58.0423 159.079 61.9339 159.113C67.9334 159.113 72.5716 157.614 75.7063 154.633C75.8176 154.527 75.9064 154.401 75.967 154.26C76.0277 154.12 76.0589 153.968 76.059 153.815V152.349C78.4513 150.77 87.6231 144.133 85.602 136.454C85.5553 136.276 85.4654 136.112 85.3406 135.976C85.2157 135.841 85.0596 135.739 84.8858 135.678C83.7289 135.335 82.5262 135.173 81.3199 135.198C77.8664 135.198 72.6731 136.323 67.0073 141.464C65.962 139.263 64.6223 137.214 63.0251 135.374C60.9889 132.976 58.4566 131.048 55.603 129.724C52.7494 128.399 49.6424 127.709 46.4964 127.702C45.6452 127.233 43.0129 125.906 40.5306 125.902C39.4291 125.871 38.3474 126.199 37.4484 126.836C35.9996 125.634 34.1748 124.98 32.2926 124.987V125.002Z" fill="black"/>
<path d="M64.5224 150.635H64.4923C64.3438 150.627 64.2043 150.561 64.1045 150.45C64.0048 150.34 63.9528 150.195 63.9599 150.046C63.9599 149.975 63.9972 148.509 62.501 147.046C60.8624 145.471 57.1464 143.724 48.7396 144.373C48.6357 144.38 48.5319 144.359 48.4393 144.311C48.3467 144.264 48.269 144.192 48.2148 144.103C48.1586 144.009 42.3501 134.503 37.0368 128.785C36.9594 128.673 36.9256 128.537 36.9412 128.401C36.9568 128.266 37.0206 128.141 37.1214 128.05C37.2221 127.958 37.3529 127.906 37.489 127.903C37.6252 127.901 37.7576 127.948 37.8618 128.035C42.7364 133.266 47.9636 141.579 48.9948 143.24C55.9355 142.753 60.7498 143.777 63.3184 146.289C65.1745 148.104 65.0886 150.038 65.0848 150.106C65.0762 150.249 65.0129 150.384 64.9083 150.482C64.8038 150.58 64.6659 150.635 64.5224 150.635Z" fill="black"/>
<path d="M56.6081 141.475C56.4956 141.474 56.3859 141.441 56.2925 141.378C56.1991 141.315 56.1263 141.226 56.0834 141.122C56.0609 141.059 53.5333 134.928 45.8464 128.857C45.7848 128.813 45.7329 128.756 45.6937 128.691C45.6545 128.626 45.6291 128.554 45.6187 128.478C45.6082 128.403 45.613 128.326 45.6329 128.253C45.6529 128.18 45.6876 128.111 45.7347 128.052C45.7819 127.992 45.8405 127.943 45.9072 127.907C45.974 127.87 46.0473 127.848 46.1229 127.841C46.1985 127.834 46.275 127.842 46.3474 127.865C46.4197 127.888 46.4866 127.926 46.544 127.976C54.4821 134.245 57.0242 140.444 57.1292 140.702C57.1566 140.771 57.1705 140.844 57.1695 140.918C57.1685 140.992 57.1526 141.065 57.1234 141.133C57.0941 141.201 57.0519 141.263 56.9989 141.314C56.9458 141.366 56.883 141.406 56.8143 141.434C56.7487 141.46 56.6788 141.474 56.6081 141.475Z" fill="black"/>
<path d="M50.1103 153.74C50.0666 153.743 50.0228 153.743 49.9792 153.74C38.0964 151.617 31.8004 140.098 31.5379 139.611C31.4439 139.435 31.4238 139.23 31.4815 139.039C31.5392 138.849 31.67 138.689 31.8455 138.595C32.021 138.501 32.2269 138.48 32.4175 138.538C32.608 138.596 32.7677 138.727 32.8616 138.902C32.9216 139.015 39.0864 150.271 50.2417 152.262C50.4406 152.28 50.6242 152.375 50.7525 152.528C50.8809 152.681 50.9431 152.879 50.9257 153.078C50.9083 153.277 50.8128 153.461 50.6599 153.589C50.5069 153.717 50.3091 153.78 50.1103 153.762V153.74Z" fill="white"/>
<path d="M203.458 140.942L194.921 153.95C194.921 153.95 201.077 170.302 223.122 158.476C223.122 158.476 215.075 148.453 221.333 135.051C221.333 135.051 227.081 138.014 229.912 133.023C232.743 128.032 229.853 124.399 226.808 123.862C226.808 123.862 214.059 122.812 219.766 99.1144C219.766 99.1144 208.243 95.5371 199.116 102.954C189.989 110.371 183.236 122.123 187.612 130.721C191.988 139.319 203.458 140.942 203.458 140.942Z" fill="#FFCDB2"/>
<path d="M217.7 98.664C218.397 98.7781 219.087 98.9334 219.766 99.129C214.561 120.754 224.734 123.502 226.541 123.824C226.714 123.854 226.808 123.862 226.808 123.862C229.852 124.394 232.743 128.032 229.912 133.022C228.262 135.932 225.615 136.139 223.699 135.805C222.88 135.663 222.084 135.411 221.333 135.055C215.075 148.456 223.122 158.479 223.122 158.479C215.648 162.488 209.997 163.26 205.802 162.525C197.612 161.096 194.927 153.953 194.927 153.953L203.466 140.946C203.466 140.946 203.372 140.946 203.195 140.901C201.437 140.597 191.598 138.553 187.619 130.739C183.243 122.141 189.993 110.389 199.124 102.972C205.895 97.4679 213.983 98.0191 217.707 98.6678L217.7 98.664ZM217.887 97.6403C213.627 96.8904 205.438 96.4967 198.464 102.162C193.589 106.126 189.644 111.03 187.361 115.976C184.736 121.65 184.503 126.922 186.689 131.211C190.289 138.283 198.314 140.863 201.745 141.666L194.058 153.38C193.968 153.516 193.911 153.673 193.893 153.836C193.874 153.999 193.895 154.164 193.953 154.317C194.975 156.707 196.579 158.804 198.618 160.417C200.657 162.03 203.067 163.108 205.629 163.553C210.759 164.449 216.814 163.05 223.628 159.398C223.763 159.326 223.881 159.225 223.972 159.102C224.064 158.979 224.127 158.838 224.158 158.688C224.188 158.537 224.185 158.382 224.148 158.233C224.112 158.085 224.043 157.946 223.947 157.827C222.555 155.886 221.514 153.715 220.872 151.415C219.432 146.443 219.773 141.399 221.888 136.416C222.424 136.606 222.974 136.752 223.534 136.851C226.721 137.406 229.312 136.236 230.834 133.555C232.274 131.016 232.515 128.448 231.513 126.329C231.09 125.437 230.461 124.657 229.68 124.053C228.898 123.449 227.984 123.038 227.014 122.853H226.92L226.748 122.827C225.998 122.7 223.47 122.058 221.588 119.19C218.933 115.144 218.663 108.316 220.804 99.4027C220.866 99.145 220.827 98.8736 220.696 98.6433C220.566 98.4129 220.352 98.2407 220.099 98.1616C219.378 97.9546 218.646 97.7894 217.906 97.6667L217.887 97.6403Z" fill="black"/>
<path d="M202.918 141.748C202.577 141.688 202.236 141.613 201.906 141.523C201.773 141.486 201.66 141.398 201.591 141.278C201.523 141.158 201.505 141.015 201.542 140.882C201.579 140.749 201.667 140.635 201.787 140.567C201.907 140.499 202.05 140.481 202.183 140.518C205.558 141.452 209.956 140.432 210.001 140.421C210.136 140.389 210.278 140.413 210.395 140.486C210.513 140.559 210.596 140.676 210.628 140.811C210.659 140.945 210.636 141.087 210.562 141.205C210.489 141.322 210.372 141.406 210.238 141.437C210.065 141.478 206.312 142.34 202.918 141.748Z" fill="black"/>
<path d="M223.226 133.169C223.112 133.149 223.009 133.092 222.931 133.007C222.853 132.921 222.806 132.813 222.797 132.698C222.787 132.583 222.816 132.469 222.879 132.372C222.942 132.275 223.034 132.202 223.143 132.164C225.104 131.47 226.222 130.563 226.465 129.472C226.814 127.912 225.299 126.397 225.284 126.382C225.185 126.282 225.129 126.147 225.129 126.007C225.129 125.866 225.185 125.731 225.284 125.632C225.384 125.532 225.518 125.477 225.659 125.477C225.8 125.477 225.935 125.532 226.034 125.632C226.113 125.711 227.973 127.574 227.504 129.689C227.174 131.155 225.832 132.314 223.507 133.139C223.418 133.174 223.321 133.185 223.226 133.169Z" fill="black"/>
<path d="M208.524 112.133C213.023 116.91 221.726 119.527 221.648 122.257C221.569 124.987 218.884 126.866 215.596 125.508C212.307 124.151 209.529 122.1 204.043 117.634C198.557 113.168 193.518 108.353 196.33 105.71C199.142 103.066 201.917 105.102 208.524 112.133Z" fill="#FFB49F"/>
<path d="M205.208 112.958C205.084 112.936 204.972 112.869 204.893 112.77C204.813 112.672 204.773 112.548 204.777 112.422C204.852 110.869 204.436 109.602 203.544 108.653C201.751 106.752 198.583 106.7 198.553 106.7C198.414 106.698 198.282 106.641 198.185 106.542C198.088 106.443 198.034 106.31 198.035 106.171C198.037 106.033 198.094 105.902 198.192 105.806C198.29 105.71 198.423 105.656 198.56 105.657C198.707 105.657 202.194 105.71 204.297 107.933C205.396 109.096 205.909 110.622 205.819 112.471C205.816 112.539 205.799 112.606 205.77 112.668C205.741 112.73 205.699 112.786 205.648 112.832C205.598 112.878 205.538 112.913 205.474 112.936C205.409 112.959 205.34 112.969 205.272 112.965L205.208 112.958Z" fill="black"/>
<path d="M217.797 123.409C217.692 123.39 217.595 123.34 217.519 123.265C217.444 123.19 217.393 123.094 217.374 122.989C216.249 117.064 210.966 117.439 210.744 117.458C210.607 117.47 210.47 117.427 210.364 117.338C210.258 117.249 210.192 117.121 210.18 116.983C210.168 116.846 210.211 116.709 210.3 116.603C210.389 116.497 210.517 116.431 210.654 116.419C210.718 116.419 217.107 115.932 218.397 122.794C218.41 122.861 218.41 122.93 218.396 122.997C218.382 123.064 218.355 123.128 218.316 123.184C218.278 123.241 218.228 123.289 218.17 123.326C218.113 123.363 218.049 123.389 217.981 123.401C217.921 123.413 217.859 123.416 217.797 123.409Z" fill="black"/>
<path d="M208.583 106.044C207.54 105.868 206.536 105.51 205.617 104.986C205.499 104.914 205.415 104.797 205.383 104.663C205.351 104.528 205.374 104.386 205.447 104.268C205.52 104.15 205.636 104.066 205.771 104.034C205.905 104.002 206.047 104.025 206.165 104.098C207.344 104.751 208.665 105.106 210.012 105.132C210.15 105.132 210.283 105.187 210.38 105.285C210.478 105.383 210.533 105.516 210.533 105.654C210.533 105.792 210.478 105.925 210.38 106.022C210.283 106.12 210.15 106.175 210.012 106.175C209.533 106.17 209.055 106.126 208.583 106.044Z" fill="black"/>
<path d="M206.077 131.733C204.463 131.448 203.007 130.586 201.982 129.307C201.939 129.251 201.908 129.187 201.89 129.119C201.872 129.051 201.868 128.98 201.879 128.91C201.889 128.841 201.914 128.774 201.951 128.714C201.988 128.654 202.036 128.602 202.094 128.561C202.151 128.521 202.216 128.492 202.285 128.478C202.354 128.463 202.425 128.463 202.494 128.476C202.563 128.49 202.629 128.517 202.687 128.557C202.746 128.596 202.795 128.647 202.833 128.707C202.942 128.86 205.499 132.329 210.554 129.993C210.677 129.945 210.814 129.947 210.937 129.996C211.06 130.046 211.159 130.141 211.214 130.261C211.269 130.382 211.277 130.518 211.235 130.644C211.193 130.77 211.105 130.875 210.989 130.938C209.046 131.838 207.404 131.965 206.077 131.733Z" fill="black"/>
<path d="M228.003 124.143C226.034 123.854 224.161 123.104 222.536 121.954C222.439 121.865 222.378 121.744 222.366 121.613C222.353 121.482 222.391 121.351 222.471 121.246C222.55 121.141 222.666 121.07 222.796 121.047C222.925 121.024 223.059 121.05 223.17 121.121C227.355 124.316 234.907 123.232 234.982 123.217C235.118 123.197 235.258 123.231 235.369 123.314C235.48 123.396 235.554 123.519 235.574 123.656C235.594 123.792 235.56 123.932 235.477 124.043C235.395 124.154 235.272 124.228 235.135 124.248C232.766 124.56 230.363 124.525 228.003 124.143Z" fill="black"/>
<path d="M228.39 121.534C228.339 121.525 228.29 121.509 228.244 121.485C217.527 115.992 221.922 103.862 221.967 103.723C222.017 103.593 222.116 103.488 222.243 103.432C222.37 103.375 222.514 103.371 222.644 103.421C222.773 103.471 222.878 103.57 222.935 103.697C222.991 103.824 222.995 103.968 222.946 104.098C222.773 104.559 218.821 115.497 228.716 120.563C228.828 120.619 228.916 120.714 228.964 120.829C229.012 120.945 229.016 121.074 228.977 121.193C228.937 121.312 228.856 121.413 228.748 121.477C228.641 121.541 228.513 121.564 228.39 121.541V121.534Z" fill="white"/>
<path d="M200.331 120.506C200.198 120.482 200.079 120.409 199.998 120.3C199.957 120.244 199.928 120.182 199.912 120.115C199.897 120.048 199.894 119.979 199.905 119.911C199.917 119.843 199.941 119.779 199.978 119.72C200.014 119.662 200.061 119.612 200.117 119.573L208.716 113.363C208.771 113.317 208.834 113.283 208.903 113.262C208.972 113.242 209.044 113.236 209.115 113.245C209.186 113.254 209.255 113.278 209.316 113.314C209.378 113.351 209.431 113.4 209.473 113.458C209.515 113.516 209.545 113.582 209.56 113.652C209.575 113.722 209.575 113.795 209.561 113.865C209.547 113.935 209.519 114.002 209.478 114.061C209.437 114.12 209.384 114.169 209.323 114.207L200.725 120.416C200.669 120.457 200.605 120.486 200.537 120.502C200.47 120.517 200.4 120.518 200.331 120.506Z" fill="black"/>
<path d="M223.462 138.617C224.613 138.617 225.547 137.684 225.547 136.533C225.547 135.381 224.613 134.448 223.462 134.448C222.31 134.448 221.377 135.381 221.377 136.533C221.377 137.684 222.31 138.617 223.462 138.617Z" fill="#07ACEE"/>
<path d="M223.817 134.481C224.224 134.552 224.6 134.742 224.898 135.026C225.197 135.311 225.404 135.677 225.495 136.08C225.585 136.482 225.554 136.902 225.405 137.287C225.256 137.672 224.996 138.004 224.659 138.241C224.322 138.478 223.921 138.61 223.509 138.619C223.097 138.629 222.691 138.516 222.343 138.295C221.995 138.074 221.72 137.755 221.553 137.378C221.386 137.001 221.335 136.582 221.407 136.176C221.453 135.906 221.552 135.648 221.698 135.416C221.845 135.185 222.035 134.985 222.259 134.827C222.483 134.67 222.736 134.558 223.004 134.499C223.271 134.439 223.548 134.433 223.817 134.481ZM223.998 133.454C223.388 133.347 222.761 133.424 222.195 133.674C221.63 133.924 221.151 134.336 220.819 134.858C220.488 135.38 220.318 135.989 220.333 136.608C220.347 137.226 220.545 137.826 220.9 138.332C221.256 138.838 221.754 139.228 222.33 139.451C222.907 139.674 223.538 139.721 224.141 139.586C224.745 139.452 225.295 139.141 225.722 138.693C226.149 138.246 226.433 137.682 226.54 137.072C226.681 136.256 226.493 135.416 226.017 134.738C225.54 134.059 224.814 133.598 223.998 133.454Z" fill="black"/>
<path d="M198.821 261.649C200.053 261.649 201.052 260.65 201.052 259.417C201.052 258.185 200.053 257.187 198.821 257.187C197.588 257.187 196.59 258.185 196.59 259.417C196.59 260.65 197.588 261.649 198.821 261.649Z" fill="#51CEF4"/>
<path d="M141.567 259.459C142.799 259.459 143.798 258.46 143.798 257.228C143.798 255.996 142.799 254.997 141.567 254.997C140.335 254.997 139.336 255.996 139.336 257.228C139.336 258.46 140.335 259.459 141.567 259.459Z" fill="#51CEF4"/>
<path d="M171.913 256.684C173.145 256.684 174.144 255.685 174.144 254.453C174.144 253.221 173.145 252.222 171.913 252.222C170.681 252.222 169.682 253.221 169.682 254.453C169.682 255.685 170.681 256.684 171.913 256.684Z" fill="#51CEF4"/>
<path d="M122.659 285.493H242.151C247.018 285.493 250.963 281.548 250.963 276.681V204.638C250.963 199.772 247.018 195.827 242.151 195.827H122.659C117.792 195.827 113.847 199.772 113.847 204.638V276.681C113.847 281.548 117.792 285.493 122.659 285.493Z" fill="white"/>
<path d="M242.151 286.056H122.655C120.169 286.056 117.785 285.068 116.027 283.31C114.269 281.552 113.281 279.168 113.281 276.681V204.638C113.281 202.152 114.269 199.768 116.027 198.01C117.785 196.252 120.169 195.264 122.655 195.264H242.151C244.637 195.264 247.021 196.252 248.779 198.01C250.537 199.768 251.525 202.152 251.525 204.638V276.685C251.524 279.171 250.536 281.554 248.778 283.311C247.02 285.068 244.637 286.056 242.151 286.056ZM122.655 196.389C120.468 196.389 118.37 197.258 116.823 198.805C115.276 200.352 114.406 202.451 114.406 204.638V276.685C114.406 278.873 115.276 280.971 116.823 282.518C118.37 284.065 120.468 284.935 122.655 284.935H242.151C244.339 284.935 246.437 284.065 247.984 282.518C249.531 280.971 250.4 278.873 250.4 276.685V204.638C250.4 202.451 249.531 200.352 247.984 198.805C246.437 197.258 244.339 196.389 242.151 196.389H122.655Z" fill="#1D1E1B"/>
<path d="M255.987 285.658H113.393C111.32 285.658 109.333 284.835 107.867 283.37C106.402 281.904 105.579 279.916 105.579 277.844H263.797C263.797 279.916 262.974 281.903 261.51 283.368C260.045 284.833 258.058 285.657 255.987 285.658Z" fill="white"/>
<path d="M255.986 286.221H113.392C111.173 286.218 109.045 285.335 107.475 283.765C105.906 282.195 105.023 280.067 105.02 277.848V277.285H264.359V277.848C264.357 280.068 263.474 282.196 261.905 283.766C260.335 285.336 258.206 286.219 255.986 286.221ZM106.163 278.41C106.308 280.229 107.132 281.926 108.472 283.165C109.811 284.404 111.568 285.093 113.392 285.096H255.986C257.811 285.094 259.568 284.405 260.907 283.166C262.247 281.927 263.071 280.229 263.215 278.41H106.163Z" fill="#1D1D1B"/>
<path d="M118.769 269.961C118.471 269.961 118.185 269.843 117.974 269.632C117.763 269.421 117.645 269.135 117.645 268.837V210.131C117.645 209.833 117.763 209.547 117.974 209.336C118.185 209.125 118.471 209.006 118.769 209.006C119.068 209.006 119.354 209.125 119.565 209.336C119.776 209.547 119.894 209.833 119.894 210.131V268.837C119.894 269.135 119.776 269.421 119.565 269.632C119.354 269.843 119.068 269.961 118.769 269.961Z" fill="white"/>
<path d="M183.339 234.396H175.907C173.799 234.396 172.09 236.105 172.09 238.213V245.645C172.09 247.753 173.799 249.462 175.907 249.462H183.339C185.447 249.462 187.156 247.753 187.156 245.645V238.213C187.156 236.105 185.447 234.396 183.339 234.396Z" fill="#07ACEE"/>
<path d="M183.339 250.025H175.907C174.746 250.024 173.632 249.562 172.811 248.741C171.99 247.92 171.528 246.806 171.527 245.645V238.198C171.528 237.037 171.99 235.924 172.811 235.102C173.632 234.281 174.746 233.819 175.907 233.818H183.339C184.5 233.819 185.614 234.281 186.435 235.102C187.256 235.924 187.718 237.037 187.719 238.198V245.63C187.72 246.206 187.608 246.777 187.388 247.31C187.169 247.843 186.847 248.327 186.44 248.735C186.033 249.144 185.55 249.468 185.018 249.689C184.486 249.91 183.915 250.024 183.339 250.025ZM175.907 234.958C175.045 234.96 174.218 235.304 173.608 235.914C172.998 236.524 172.654 237.35 172.652 238.213V245.645C172.653 246.508 172.997 247.335 173.607 247.945C174.217 248.555 175.044 248.899 175.907 248.9H183.339C184.202 248.9 185.03 248.557 185.64 247.946C186.251 247.336 186.594 246.508 186.594 245.645V238.198C186.593 237.335 186.249 236.508 185.639 235.898C185.029 235.288 184.202 234.944 183.339 234.943L175.907 234.958Z" fill="#1D1D1B"/>
<path d="M54.0978 46.6705C54.0978 46.6705 71.4557 41.7119 106.316 67.0973C106.316 67.0973 94.789 104.074 83.7015 115.524L42.3497 96.4103C42.3497 96.4103 45.1971 61.9144 54.0978 46.6705Z" fill="#4BD657"/>
<path d="M79.35 51.359C86.7204 54.4588 95.7066 59.374 106.315 67.0986C106.315 67.0986 94.7878 104.076 83.7003 115.525L42.3484 96.4118C42.3484 96.4118 45.1963 61.9146 54.0981 46.6681C54.0981 46.6681 62.5 44.2694 79.3516 51.3552L79.35 51.359ZM79.8866 50.0831C62.7839 42.8902 54.0796 45.2357 53.717 45.34C53.3752 45.4386 53.0841 45.6643 52.9034 45.9708C43.9496 61.3086 41.0904 94.8736 40.9734 96.2942C40.9498 96.5763 41.0136 96.8587 41.1562 97.1032C41.2988 97.3478 41.5131 97.5426 41.7701 97.6611L83.1221 116.775L83.1669 116.793C83.4232 116.901 83.7061 116.929 83.9784 116.873C84.2507 116.817 84.4998 116.681 84.6929 116.481C95.881 104.928 107.16 69.0266 107.634 67.5039C107.72 67.2287 107.718 66.9333 107.627 66.6595C107.537 66.3856 107.363 66.1471 107.129 65.9774C97.5566 59.0056 88.3897 53.6578 79.8872 50.0818L79.8866 50.0831Z" fill="black"/>
<path d="M82.8807 52.2198C82.8807 52.2198 67.0198 71.9733 62.725 105.83L82.8807 52.2198Z" fill="#4BD657"/>
<path d="M62.4584 106.467C62.3201 106.408 62.2048 106.305 62.1298 106.175C62.0547 106.045 62.0239 105.893 62.042 105.744C66.3147 72.0831 82.1837 51.9871 82.3429 51.7882C82.3945 51.7039 82.4635 51.6315 82.5453 51.5759C82.627 51.5204 82.7197 51.4828 82.8171 51.4658C82.9144 51.4489 83.0143 51.4528 83.1101 51.4774C83.2058 51.502 83.2952 51.5468 83.3723 51.6086C83.4494 51.6705 83.5125 51.7479 83.5573 51.836C83.6021 51.9241 83.6276 52.0208 83.6322 52.1195C83.6368 52.2182 83.6203 52.3168 83.5838 52.4087C83.5474 52.5005 83.4917 52.5836 83.4207 52.6523C83.2625 52.8487 67.6329 72.6662 63.4115 105.918C63.387 106.099 63.2922 106.264 63.1476 106.375C63.003 106.487 62.8203 106.538 62.6388 106.516C62.5768 106.508 62.5161 106.492 62.4584 106.467Z" fill="black"/>
<path d="M45.5813 72.7311C45.4395 72.6654 45.3239 72.5538 45.2531 72.4143C45.1824 72.2748 45.1607 72.1157 45.1915 71.9623C45.2223 71.809 45.3039 71.6705 45.423 71.5692C45.5421 71.4678 45.6918 71.4096 45.8481 71.4038C46.1789 71.4039 79.0602 71.6249 97.9063 93.2389C97.9809 93.3044 98.0407 93.3851 98.0816 93.4756C98.1225 93.566 98.1436 93.6641 98.1435 93.7634C98.1433 93.8627 98.122 93.9608 98.0809 94.0512C98.0397 94.1415 97.9797 94.222 97.9049 94.2872C97.83 94.3525 97.7422 94.401 97.6471 94.4295C97.552 94.458 97.4518 94.4658 97.3534 94.4525C97.255 94.4391 97.1606 94.4048 97.0766 94.352C96.9925 94.2991 96.9208 94.2289 96.8661 94.146C78.4362 73.0152 46.179 72.7862 45.8488 72.7848C45.757 72.7847 45.6661 72.7665 45.5813 72.7311Z" fill="black"/>
<path d="M98.941 47.5749C97.5084 44.9829 93.9557 45.0613 91.3991 45.246C91.1823 45.2621 90.9661 45.2875 90.7498 45.3098C91.2437 45.019 91.7349 44.7241 92.2177 44.4165C93.6933 43.4782 95.1088 42.4484 96.4557 41.3332C97.7079 40.2918 98.8667 39.0811 99.6178 37.622C100.334 36.2314 100.548 34.5222 99.8348 33.0831C99.139 31.6771 97.806 30.7449 96.3098 30.3513C92.9923 29.4788 89.8357 31.7616 88.0183 34.3479C86.8958 35.9394 86.0849 37.7237 85.2416 39.4704C84.7607 40.4676 84.2799 41.4649 83.7991 42.4621C84.136 39.5825 84.4193 36.701 84.6491 33.8177C84.8027 31.8792 84.9514 29.866 84.309 27.9991C83.7085 26.2661 82.4046 24.8083 80.5842 24.3705C78.9359 23.9794 77.1814 24.5589 75.8156 25.4755C74.3657 26.4443 73.2658 27.9031 72.5278 29.4675C70.983 32.7455 71.0298 36.5961 72.0733 40.0019C73.1169 43.4077 75.0719 46.3992 77.2099 49.1927C75.8658 49.4242 74.5603 49.8411 73.3308 50.4315C70.9743 51.5867 68.9729 53.3561 67.5376 55.5533C66.1023 57.7505 65.2862 60.2941 65.1751 62.9162C65.1698 63.029 65.1946 63.1412 65.247 63.2413C65.2994 63.3414 65.3775 63.4257 65.4733 63.4856C65.5043 63.5047 65.5367 63.5214 65.5702 63.5355C65.6581 63.5736 65.7532 63.5918 65.8489 63.589C65.9446 63.5862 66.0385 63.5623 66.124 63.5191C66.2168 63.4695 66.2947 63.3962 66.3497 63.3064C66.4047 63.2167 66.4348 63.1139 66.4368 63.0087C66.5689 59.8419 67.8134 56.8232 69.9513 54.4833C71.9259 52.35 74.5497 50.9284 77.4152 50.4393C77.6448 50.3999 77.8761 50.3673 78.107 50.3391L78.4019 50.7154C78.7335 51.1267 79.2574 50.998 79.5112 50.6818C82.5754 51.5747 85.6369 52.474 88.7031 53.3587C91.1872 54.0757 94.1832 54.8614 96.6065 53.5103C98.5923 52.4164 100.163 49.7852 98.941 47.5749ZM97.6629 50.5315C97.644 50.5764 97.6251 50.6213 97.5999 50.6561C97.5999 50.6561 97.5489 50.7449 97.5318 50.7785C97.4603 50.8974 97.3826 51.0125 97.2991 51.1233C97.0286 51.5018 96.693 51.8292 96.308 52.0903C95.9137 52.3653 95.4714 52.564 95.004 52.6763C94.4187 52.8205 93.8158 52.8812 93.2135 52.8568C91.983 52.8121 90.7709 52.526 89.5907 52.1928C87.3117 51.5485 85.0376 50.882 82.7644 50.213C82.8136 50.141 82.8477 50.0599 82.8648 49.9744C82.8817 49.8915 82.8819 49.806 82.8655 49.723C82.849 49.64 82.8163 49.5611 82.769 49.4909C82.7218 49.4207 82.661 49.3606 82.5903 49.3141C82.5196 49.2676 82.4404 49.2356 82.3572 49.2201C81.1873 49.0044 79.9952 48.9338 78.808 49.0099C76.8929 46.57 75.0988 44.0041 73.9321 41.1175C72.7107 38.1022 72.2547 34.6641 73.2184 31.5179C74.0764 28.72 76.2675 25.7516 79.4191 25.6284C80.0705 25.6021 80.7147 25.772 81.2684 26.1161C81.9023 26.5387 82.41 27.1249 82.7378 27.8126C83.5027 29.3776 83.4628 31.157 83.3375 32.8521C83.0486 36.8939 82.6206 40.9287 82.1061 44.9466C82.0409 45.4489 81.9746 45.9512 81.9073 46.4536C81.8008 47.2457 82.8965 47.4997 83.2288 46.8101L85.6977 41.694C86.5051 40.0184 87.2712 38.3118 88.1729 36.6925C88.9493 35.2953 89.9029 33.9546 91.1712 32.9683C92.2396 32.1412 93.6285 31.5077 94.9416 31.5464C96.1909 31.5823 97.4156 32.1004 98.177 33.0415C98.992 34.0489 99.0604 35.3769 98.59 36.5492C98.072 37.842 97.0797 38.955 96.0244 39.8873C94.7826 40.964 93.4689 41.9549 92.0926 42.8533C90.0984 44.1784 87.9959 45.3327 85.8074 46.3038C84.5418 46.6901 83.3083 47.1745 82.118 47.7524C81.3185 48.1412 81.7945 49.3188 82.6386 49.0288C83.8856 48.6045 85.1104 48.124 86.3129 47.5875C87.5626 47.2088 88.841 46.932 90.1354 46.7599C91.3915 46.579 92.6614 46.5135 93.9294 46.564C95.0935 46.6231 96.3405 46.8226 97.2122 47.5911C97.39 47.7492 97.5432 47.9329 97.6672 48.1361C97.7152 48.2157 97.7576 48.2987 97.794 48.3843C97.8169 48.4377 97.8392 48.4923 97.8597 48.5477C97.8597 48.5477 97.89 48.6482 97.8982 48.6682C97.9242 48.7721 97.9434 48.8776 97.9558 48.9839C97.9633 49.0521 97.9691 49.1209 97.9736 49.1893L97.9735 49.2361C97.9685 49.4771 97.9352 49.7166 97.8743 49.9497C97.864 49.9741 97.8463 50.0165 97.848 50.0339C97.8254 50.0878 97.8098 50.1463 97.7897 50.2013C97.7621 50.3135 97.7145 50.4233 97.6629 50.5315Z" fill="black"/>
<path d="M70.1791 60.4755C70.1791 60.4755 85.3706 56.139 115.882 78.3523C115.882 78.3523 105.794 110.715 96.0924 120.737L59.9021 104.006C59.9021 104.006 62.3904 73.8153 70.1791 60.4755Z" fill="#07ACEE"/>
<path d="M92.2816 64.5774C98.733 67.2907 106.598 71.5911 115.882 78.3523C115.882 78.3523 105.794 110.715 96.0927 120.737L59.9024 104.006C59.9024 104.006 62.3949 73.8125 70.1836 60.4726C70.1836 60.4726 77.5386 58.3723 92.2859 64.5746L92.2816 64.5774ZM92.8214 63.3013C77.8033 56.9851 70.1235 59.053 69.8043 59.1438C69.4614 59.2412 69.1696 59.4678 68.9902 59.7758C61.1303 73.2383 58.6286 102.645 58.5244 103.892C58.5016 104.173 58.5658 104.456 58.7082 104.7C58.8507 104.944 59.0646 105.139 59.3212 105.258L95.5129 121.99L95.5565 122.009C95.8129 122.116 96.0959 122.144 96.3684 122.088C96.6409 122.033 96.8902 121.896 97.0837 121.696C106.903 111.555 116.786 80.0965 117.202 78.7624C117.289 78.4872 117.286 78.1918 117.196 77.918C117.105 77.6441 116.931 77.4056 116.698 77.2359C108.307 71.1269 100.275 66.4392 92.8216 63.3043L92.8214 63.3013Z" fill="black"/>
<path d="M77.4627 112.887C77.3244 112.827 77.2092 112.725 77.1341 112.594C77.0591 112.464 77.0282 112.313 77.0463 112.163C80.7886 82.6801 94.6929 65.072 94.8325 64.8981C94.8842 64.8138 94.953 64.7414 95.0348 64.6859C95.1165 64.6303 95.2093 64.5928 95.3066 64.5758C95.404 64.5588 95.5039 64.5628 95.5996 64.5874C95.6954 64.612 95.7847 64.6566 95.8618 64.7184C95.9389 64.7803 96.002 64.8579 96.0469 64.946C96.0917 65.0341 96.1173 65.1306 96.1218 65.2294C96.1264 65.3281 96.1098 65.4267 96.0734 65.5186C96.0369 65.6105 95.9813 65.6935 95.9103 65.7622C95.773 65.9341 82.107 83.2631 78.4169 112.335C78.3924 112.516 78.2976 112.68 78.1531 112.792C78.0085 112.904 77.8257 112.955 77.6442 112.933C77.5819 112.926 77.5208 112.91 77.4627 112.887Z" fill="black"/>
<path d="M62.6936 83.3604C62.5524 83.2943 62.4376 83.1827 62.3673 83.0435C62.2971 82.9044 62.2756 82.7456 62.3062 82.5928C62.3369 82.44 62.418 82.3019 62.5365 82.2006C62.655 82.0993 62.8041 82.0407 62.9598 82.0342C63.25 82.0338 92.0662 82.2296 108.588 101.174C108.662 101.24 108.721 101.321 108.762 101.411C108.802 101.501 108.823 101.599 108.823 101.698C108.822 101.798 108.801 101.895 108.76 101.985C108.718 102.076 108.658 102.156 108.584 102.221C108.509 102.286 108.421 102.334 108.326 102.363C108.231 102.391 108.131 102.399 108.033 102.386C107.935 102.372 107.841 102.338 107.757 102.286C107.673 102.233 107.601 102.163 107.546 102.081C91.4428 83.6186 63.2446 83.4153 62.9606 83.4152C62.8688 83.4149 62.778 83.3963 62.6936 83.3604Z" fill="black"/>
<path d="M96.732 65.0256C94.8284 62.6554 92.9909 60.1711 91.8485 57.331C90.7867 54.694 90.3993 51.682 91.2653 48.9403C92.0184 46.5606 93.9316 43.9692 96.6378 43.9246C97.2054 43.9122 97.7632 44.0735 98.2365 44.387C98.7438 44.7456 99.1503 45.2287 99.4169 45.7898C100.083 47.1591 100.039 48.7115 99.9306 50.1934C99.6462 54.1525 99.2128 58.1139 98.682 62.0555C98.5755 62.8476 99.6707 63.1028 100.004 62.412C100.736 60.8932 101.469 59.3745 102.202 57.856C102.909 56.3917 103.576 54.8988 104.371 53.4811C105.559 51.3748 107.569 49.0705 110.138 49.1085C111.233 49.1159 112.311 49.5874 112.967 50.4175C113.662 51.2993 113.683 52.4393 113.261 53.4462C112.789 54.568 111.902 55.5393 110.97 56.3469C109.894 57.2667 108.76 58.1162 107.574 58.8901C104.886 60.6688 101.979 62.0938 98.9267 63.1298L99.4473 64.4063C101.494 63.406 103.687 62.7402 105.944 62.4345C107.06 62.2711 108.188 62.2121 109.315 62.2583C110.311 62.3115 111.373 62.4864 112.118 63.1353C112.276 63.276 112.411 63.4402 112.518 63.6221C112.518 63.6221 112.595 63.7737 112.618 63.8302C112.641 63.8867 112.65 63.9179 112.667 63.9612C112.683 64.0044 112.689 64.0264 112.699 64.0595C112.687 64.0091 112.687 64.0104 112.699 64.0595C112.785 64.4048 112.777 64.7664 112.678 65.1081C112.443 65.8626 111.956 66.5135 111.299 66.9523C110.969 67.1802 110.6 67.3448 110.211 67.4375C109.696 67.563 109.165 67.6151 108.635 67.5921C107.549 67.5448 106.481 67.2904 105.441 66.9904C102.522 66.1603 99.613 65.2946 96.6932 64.4427C96.335 64.3389 95.9402 64.4372 95.7814 64.8146C95.6497 65.1278 95.7896 65.6142 96.1533 65.7263C98.9795 66.5494 101.804 67.3776 104.632 68.1955C106.908 68.8506 109.581 69.5458 111.782 68.2843C113.487 67.3062 114.796 65.0047 113.795 63.0958C112.555 60.7358 109.395 60.7752 107.102 60.9381C104.262 61.1452 101.487 61.8916 98.9265 63.1373C98.127 63.5261 98.603 64.7037 99.4471 64.4137C102.406 63.4023 105.232 62.0382 107.865 60.3508C109.154 59.5319 110.39 58.6324 111.565 57.6578C112.671 56.7359 113.692 55.6653 114.353 54.3738C114.987 53.1402 115.17 51.6191 114.537 50.3438C113.904 49.0685 112.703 48.24 111.353 47.8942C108.471 47.1534 105.705 49.1098 104.11 51.3439C103 52.9058 102.213 54.6793 101.38 56.3984L98.7321 61.8863L100.053 62.244C100.559 58.4917 100.96 54.7274 101.258 50.9513C101.391 49.2669 101.511 47.5284 100.951 45.902C100.425 44.3725 99.2787 43.0836 97.6818 42.6779C96.231 42.3094 94.6918 42.8011 93.4686 43.5903C92.1664 44.4309 91.1766 45.7247 90.5105 47.1108C89.1261 49.9894 89.1534 53.3908 90.0607 56.4023C91.0035 59.5483 92.8754 62.3387 94.8763 64.9084C95.125 65.2295 95.3766 65.5473 95.6311 65.8618C96.1892 66.5497 97.2923 65.7265 96.735 65.0329L96.732 65.0256Z" fill="black"/>
<path d="M96.3679 67.089C100.19 71.6498 105.072 75.5837 110.7 77.6396C113.161 78.5371 115.757 79.0427 118.381 78.9316C120.768 78.8364 123.097 78.1721 125.175 76.9942C127.525 75.653 129.382 73.6395 130.684 71.2806C130.864 70.953 130.635 70.5049 130.312 70.3688C129.937 70.2112 129.589 70.4094 129.4 70.7407C129.133 71.2185 128.838 71.68 128.517 72.1229C128.185 72.5825 127.826 73.0217 127.441 73.438C127.087 73.8231 126.708 74.1833 126.305 74.5161C124.215 76.2683 121.625 77.316 118.905 77.5099C116.591 77.7135 114.17 77.3388 111.967 76.6178C109.409 75.7578 106.989 74.532 104.783 72.9785C102.051 71.075 99.5874 68.8134 97.4578 66.2542C97.3454 66.1107 97.182 66.0164 97.0017 65.9906C96.8213 65.9649 96.638 66.0098 96.4901 66.1161C96.345 66.227 96.2494 66.3904 96.2236 66.5711C96.1979 66.7519 96.2441 66.9355 96.3524 67.0825L96.3679 67.089Z" fill="black"/>
<path opacity="0.4" d="M64.0866 99.3635C63.8992 99.2853 63.736 99.1588 63.6136 98.9968C63.4911 98.8349 63.4138 98.6434 63.3895 98.4419C61.5716 83.4939 72.0517 65.3099 72.4995 64.5435C72.5741 64.4104 72.6746 64.2935 72.7949 64.1997C72.9152 64.1058 73.0529 64.0368 73.2002 63.9967C73.3474 63.9566 73.5012 63.9462 73.6524 63.9661C73.8037 63.986 73.9495 64.0358 74.0814 64.1126C74.2132 64.1894 74.3285 64.2917 74.4204 64.4134C74.5123 64.5352 74.5791 64.6741 74.6169 64.822C74.6546 64.9698 74.6626 65.1237 74.6403 65.2747C74.618 65.4256 74.5659 65.5705 74.487 65.7012C74.3816 65.8834 63.9502 83.9912 65.669 98.1618C65.6929 98.3613 65.6642 98.5636 65.5858 98.7485C65.5074 98.9334 65.382 99.0945 65.2221 99.216C65.0621 99.3375 64.8731 99.415 64.6739 99.4409C64.4747 99.4668 64.2723 99.4401 64.0866 99.3635Z" fill="white"/>
<path d="M139.004 74.4421C139.004 74.4421 132.136 76.5822 129.887 73.9145C127.639 71.2468 129.129 66.798 135.896 65.8821L142.659 64.9726L145.002 72.354L139.004 74.4421Z" fill="#4BD657"/>
<path d="M142.659 64.9727L145.002 72.3541L139.004 74.4422C139.004 74.4422 133.997 76.0027 131.134 74.7983C130.654 74.6069 130.227 74.304 129.887 73.9146C127.638 71.2464 129.129 66.7981 135.896 65.8822L142.659 64.9727ZM143.195 63.6994C142.969 63.6051 142.721 63.5726 142.479 63.6053L135.715 64.5161C131.743 65.0495 128.891 66.8367 127.895 69.4209C127.548 70.3186 127.452 71.2941 127.617 72.2423C127.783 73.1904 128.205 74.0753 128.836 74.8018C129.316 75.3587 129.922 75.7929 130.604 76.0681C133.839 77.4285 138.859 75.9339 139.42 75.7592L139.464 75.7444L145.462 73.6551C145.802 73.5366 146.081 73.2906 146.242 72.9693C146.403 72.648 146.432 72.2767 146.324 71.9341L143.981 64.5527C143.92 64.3618 143.819 64.1865 143.684 64.0387C143.549 63.8909 143.383 63.7741 143.199 63.6966L143.195 63.6994Z" fill="black"/>
<path d="M138.666 80.5156C144.77 79.6271 150.66 77.6296 156.044 74.6215C157.564 73.7727 159.041 72.8477 160.467 71.8499C161.196 71.3377 160.364 70.2353 159.637 70.7454C154.733 74.187 149.242 76.7033 143.434 78.1701C141.803 78.5794 140.154 78.906 138.49 79.1486C137.613 79.2767 137.788 80.6463 138.67 80.5172L138.666 80.5156Z" fill="black"/>
<path d="M131.723 69.1644C131.723 69.1644 136.79 66.4822 141.877 66.8723" stroke="white" stroke-opacity="0.2" stroke-linecap="round" stroke-linejoin="round"/>
<defs>
<filter id="filter0_d_14057_91014" x="-4.0192" y="107.785" width="38.6829" height="38.6839" filterUnits="userSpaceOnUse" color-interpolation-filters="sRGB">
<feFlood flood-opacity="0" result="BackgroundImageFix"/>
<feColorMatrix in="SourceAlpha" type="matrix" values="0 0 0 0 0 0 0 0 0 0 0 0 0 0 0 0 0 0 127 0" result="hardAlpha"/>
<feOffset dy="2.03704"/>
<feGaussianBlur stdDeviation="5.09261"/>
<feComposite in2="hardAlpha" operator="out"/>
<feColorMatrix type="matrix" values="0 0 0 0 0 0 0 0 0 0 0 0 0 0 0 0 0 0 0.05 0"/>
<feBlend mode="normal" in2="BackgroundImageFix" result="effect1_dropShadow_14057_91014"/>
<feBlend mode="normal" in="SourceGraphic" in2="effect1_dropShadow_14057_91014" result="shape"/>
</filter>
<filter id="filter1_d_14057_91014" x="370.649" y="165.21" width="38.6888" height="38.6883" filterUnits="userSpaceOnUse" color-interpolation-filters="sRGB">
<feFlood flood-opacity="0" result="BackgroundImageFix"/>
<feColorMatrix in="SourceAlpha" type="matrix" values="0 0 0 0 0 0 0 0 0 0 0 0 0 0 0 0 0 0 127 0" result="hardAlpha"/>
<feOffset dy="2.03704"/>
<feGaussianBlur stdDeviation="5.09261"/>
<feComposite in2="hardAlpha" operator="out"/>
<feColorMatrix type="matrix" values="0 0 0 0 0 0 0 0 0 0 0 0 0 0 0 0 0 0 0.05 0"/>
<feBlend mode="normal" in2="BackgroundImageFix" result="effect1_dropShadow_14057_91014"/>
<feBlend mode="normal" in="SourceGraphic" in2="effect1_dropShadow_14057_91014" result="shape"/>
</filter>
<linearGradient id="paint0_linear_14057_91014" x1="20.4547" y1="112.038" x2="392.053" y2="200.547" gradientUnits="userSpaceOnUse">
<stop stop-color="#CDD5E2"/>
<stop offset="1" stop-color="#CDD5E2" stop-opacity="0"/>
</linearGradient>
<linearGradient id="paint1_linear_14057_91014" x1="391.411" y1="195.437" x2="353.85" y2="294.044" gradientUnits="userSpaceOnUse">
<stop stop-color="#CDD5E2"/>
<stop offset="1" stop-color="#CDD5E2" stop-opacity="0"/>
</linearGradient>
<linearGradient id="paint2_linear_14057_91014" x1="196.502" y1="23.2607" x2="196.502" y2="365.006" gradientUnits="userSpaceOnUse">
<stop stop-color="#CDD5E2"/>
<stop offset="1" stop-color="#CDD5E2" stop-opacity="0"/>
</linearGradient>
<linearGradient id="paint3_linear_14057_91014" x1="196.505" y1="57.4336" x2="196.505" y2="330.83" gradientUnits="userSpaceOnUse">
<stop stop-color="#CDD5E2"/>
<stop offset="1" stop-color="#CDD5E2" stop-opacity="0"/>
</linearGradient>
</defs>
</svg>
