<svg width="406" height="302" viewBox="0 0 406 302" fill="none" xmlns="http://www.w3.org/2000/svg">
<mask id="mask0_14052_2903" style="mask-type:alpha" maskUnits="userSpaceOnUse" x="0" y="0" width="406" height="302">
<rect width="405.823" height="301.875" fill="#D9D9D9"/>
</mask>
<g mask="url(#mask0_14052_2903)">
<g opacity="0.5">
<mask id="path-2-inside-1_14052_2903" fill="white">
<path d="M389.977 202.564C391.993 156.308 377.369 110.86 348.757 74.4585C320.144 38.0572 279.437 13.1117 234.013 4.14391C188.59 -4.82387 141.456 2.77957 101.157 25.576C60.8571 48.3724 30.0587 84.853 14.3442 128.405L15.1839 128.708C30.8259 85.3568 61.4823 49.0443 101.596 26.353C141.71 3.66161 188.626 -3.90679 233.84 5.01966C279.055 13.9461 319.574 38.7766 348.055 75.0102C376.535 111.244 391.092 156.482 389.085 202.526L389.977 202.564Z"/>
</mask>
<path d="M389.977 202.564C391.993 156.308 377.369 110.86 348.757 74.4585C320.144 38.0572 279.437 13.1117 234.013 4.14391C188.59 -4.82387 141.456 2.77957 101.157 25.576C60.8571 48.3724 30.0587 84.853 14.3442 128.405L15.1839 128.708C30.8259 85.3568 61.4823 49.0443 101.596 26.353C141.71 3.66161 188.626 -3.90679 233.84 5.01966C279.055 13.9461 319.574 38.7766 348.055 75.0102C376.535 111.244 391.092 156.482 389.085 202.526L389.977 202.564Z" stroke="url(#paint0_linear_14052_2903)" stroke-width="2.84788" stroke-dasharray="4.27 4.27" mask="url(#path-2-inside-1_14052_2903)"/>
</g>
<g opacity="0.5">
<mask id="path-3-inside-2_14052_2903" fill="white">
<path d="M14.6043 260.573C30.4892 304.063 61.4301 340.423 101.819 363.061C142.207 385.7 189.37 393.119 234.758 383.973C280.146 374.828 320.756 349.723 349.225 313.21C377.695 276.697 392.141 231.192 389.944 184.944L389.052 184.986C391.239 231.021 376.86 276.316 348.521 312.661C320.183 349.006 279.761 373.995 234.582 383.098C189.403 392.201 142.457 384.817 102.255 362.282C62.0527 339.748 31.2544 303.556 15.4428 260.266L14.6043 260.573Z"/>
</mask>
<path d="M14.6043 260.573C30.4892 304.063 61.4301 340.423 101.819 363.061C142.207 385.7 189.37 393.119 234.758 383.973C280.146 374.828 320.756 349.723 349.225 313.21C377.695 276.697 392.141 231.192 389.944 184.944L389.052 184.986C391.239 231.021 376.86 276.316 348.521 312.661C320.183 349.006 279.761 373.995 234.582 383.098C189.403 392.201 142.457 384.817 102.255 362.282C62.0527 339.748 31.2544 303.556 15.4428 260.266L14.6043 260.573Z" stroke="url(#paint1_linear_14052_2903)" stroke-width="2.84788" stroke-dasharray="4.27 4.27" mask="url(#path-3-inside-2_14052_2903)"/>
</g>
<circle opacity="0.08" cx="196.502" cy="194.133" r="170.873" fill="url(#paint2_linear_14052_2903)"/>
<circle opacity="0.1" cx="196.503" cy="194.132" r="136.698" fill="url(#paint3_linear_14052_2903)"/>
<circle cx="196.503" cy="194.134" r="91.1321" fill="white"/>
<g filter="url(#filter0_d_14052_2903)">
<circle cx="15.3224" cy="125.091" r="7.11969" transform="rotate(-2.50406 15.3224 125.091)" fill="#0170FF"/>
<circle cx="15.3224" cy="125.091" r="8.13822" transform="rotate(-2.50406 15.3224 125.091)" stroke="white" stroke-width="2.03704"/>
</g>
<g filter="url(#filter1_d_14052_2903)">
<circle cx="389.995" cy="182.517" r="7.11969" transform="rotate(-15.7345 389.995 182.517)" fill="#0170FF"/>
<circle cx="389.995" cy="182.517" r="8.13822" transform="rotate(-15.7345 389.995 182.517)" stroke="white" stroke-width="2.03704"/>
</g>
</g>
<path d="M197.002 131.417H296.671C305.568 131.417 312.781 124.204 312.781 115.306V44.1271C312.781 35.2296 305.568 28.0168 296.671 28.0168L197.002 28.0168C188.104 28.0168 180.891 35.2296 180.891 44.1271V115.306C180.891 124.204 188.104 131.417 197.002 131.417Z" fill="#4BD657"/>
<path d="M296.671 131.965H196.999C192.583 131.959 188.349 130.202 185.227 127.079C182.104 123.956 180.349 119.722 180.344 115.306V44.1271C180.349 39.7111 182.104 35.4774 185.227 32.3545C188.349 29.2316 192.583 27.4746 196.999 27.4688H296.671C301.088 27.4736 305.322 29.2302 308.445 32.3533C311.568 35.4763 313.325 39.7105 313.33 44.1271V115.306C313.325 119.723 311.568 123.957 308.445 127.08C305.322 130.203 301.088 131.96 296.671 131.965ZM196.999 28.5576C192.873 28.5634 188.919 30.2051 186.002 33.1224C183.085 36.0397 181.445 39.9946 181.44 44.1198V115.299C181.444 119.425 183.084 123.38 186.001 126.298C188.918 129.215 192.873 130.857 196.999 130.861H296.671C300.798 130.857 304.754 129.217 307.671 126.299C310.589 123.381 312.23 119.425 312.234 115.299V44.1198C312.229 39.9939 310.588 36.0384 307.67 33.121C304.753 30.2035 300.797 28.5625 296.671 28.5576H196.999Z" fill="black"/>
<path d="M312.773 44.3318V115.307C312.773 119.579 311.076 123.677 308.054 126.698C305.033 129.719 300.936 131.417 296.663 131.417H196.997C194.882 131.417 192.787 131 190.833 130.19C188.878 129.381 187.103 128.194 185.607 126.698C184.111 125.202 182.925 123.426 182.116 121.471C181.306 119.517 180.89 117.422 180.891 115.307V44.3318H312.773Z" fill="white"/>
<path d="M296.671 131.965H196.999C192.583 131.959 188.349 130.202 185.227 127.079C182.104 123.956 180.349 119.722 180.344 115.307V44.3318C180.344 44.1864 180.402 44.0471 180.504 43.9443C180.607 43.8415 180.746 43.7837 180.892 43.7837H312.8C312.946 43.7837 313.085 43.8415 313.188 43.9443C313.29 44.0471 313.348 44.1864 313.348 44.3318V115.307C313.343 119.726 311.584 123.963 308.457 127.087C305.33 130.21 301.091 131.965 296.671 131.965ZM181.44 44.8799V115.307C181.444 119.432 183.084 123.387 186.001 126.305C188.918 129.223 192.873 130.864 196.999 130.869H296.671C300.798 130.865 304.754 129.224 307.671 126.306C310.589 123.389 312.23 119.433 312.234 115.307V44.8799H181.44Z" fill="black"/>
<path d="M194.445 40.6558C196.475 40.6558 198.121 39.0101 198.121 36.9799C198.121 34.9498 196.475 33.3042 194.445 33.3042C192.415 33.3042 190.77 34.9498 190.77 36.9799C190.77 39.0101 192.415 40.6558 194.445 40.6558Z" fill="#382256"/>
<path d="M194.446 41.204C193.61 41.2047 192.792 40.9573 192.096 40.493C191.4 40.0287 190.858 39.3686 190.537 38.5959C190.217 37.8233 190.133 36.9729 190.296 36.1525C190.459 35.3321 190.862 34.5785 191.453 33.9871C192.045 33.3956 192.798 32.9929 193.619 32.8299C194.439 32.6668 195.289 32.7508 196.062 33.0712C196.835 33.3917 197.495 33.9341 197.959 34.6299C198.423 35.3257 198.671 36.1435 198.67 36.98C198.669 38.1 198.224 39.1738 197.432 39.9658C196.64 40.7577 195.566 41.203 194.446 41.204ZM194.446 33.8486C193.827 33.8479 193.221 34.0309 192.706 34.3746C192.19 34.7182 191.788 35.2071 191.55 35.7793C191.313 36.3514 191.251 36.9811 191.371 37.5887C191.491 38.1964 191.789 38.7548 192.227 39.1931C192.665 39.6314 193.223 39.9299 193.83 40.0511C194.438 40.1722 195.068 40.1105 195.64 39.8735C196.213 39.6366 196.702 39.2353 197.046 38.7203C197.39 38.2052 197.574 37.5995 197.574 36.98C197.571 36.1517 197.241 35.3582 196.655 34.7728C196.069 34.1874 195.275 33.8578 194.446 33.8559V33.8486Z" fill="#1D1E1B"/>
<path d="M230.444 66.7673L298.368 66.7673C300.93 66.7673 303.008 64.6896 303.008 62.1267V60.3802C303.008 57.8173 300.93 55.7396 298.368 55.7396L230.444 55.7396C227.881 55.7396 225.803 57.8173 225.803 60.3802V62.1267C225.803 64.6896 227.881 66.7673 230.444 66.7673Z" fill="#4BD657"/>
<path d="M298.366 67.3152H230.442C229.067 67.3133 227.748 66.7662 226.775 65.7935C225.803 64.8209 225.256 63.5022 225.254 62.1267V60.38C225.255 59.0039 225.802 57.6843 226.774 56.7109C227.747 55.7375 229.066 55.1897 230.442 55.1877H298.366C299.742 55.1897 301.061 55.7375 302.034 56.7109C303.007 57.6843 303.554 59.0039 303.554 60.38V62.1267C303.553 63.5022 303.006 64.8209 302.033 65.7935C301.06 66.7662 299.742 67.3133 298.366 67.3152ZM230.442 56.2839C229.357 56.2859 228.317 56.7183 227.549 57.4861C226.782 58.254 226.351 59.2946 226.35 60.38V62.1267C226.351 63.2118 226.782 64.2521 227.55 65.0194C228.317 65.7866 229.357 66.2181 230.442 66.219H298.366C299.451 66.2171 300.49 65.7854 301.258 65.0183C302.025 64.2512 302.456 63.2115 302.458 62.1267V60.38C302.457 59.2946 302.026 58.254 301.259 57.4861C300.492 56.7183 299.452 56.2859 298.366 56.2839H230.442Z" fill="black"/>
<path d="M230.444 85.4023L298.368 85.4023C300.93 85.4023 303.008 83.3246 303.008 80.7617V79.0152C303.008 76.4523 300.93 74.3746 298.368 74.3746L230.444 74.3746C227.881 74.3746 225.803 76.4523 225.803 79.0152V80.7617C225.803 83.3246 227.881 85.4023 230.444 85.4023Z" fill="#4BD657"/>
<path d="M298.366 85.9502H230.442C229.067 85.9483 227.748 85.4012 226.775 84.4285C225.803 83.4559 225.256 82.1372 225.254 80.7617V79.015C225.255 77.6389 225.802 76.3193 226.774 75.3459C227.747 74.3725 229.066 73.8247 230.442 73.8228H298.366C299.742 73.8247 301.061 74.3725 302.034 75.3459C303.007 76.3193 303.554 77.6389 303.554 79.015V80.7617C303.553 82.1372 303.006 83.4559 302.033 84.4285C301.06 85.4012 299.742 85.9483 298.366 85.9502ZM230.442 74.9189C229.357 74.9209 228.317 75.3533 227.549 76.1211C226.782 76.889 226.351 77.9296 226.35 79.015V80.7617C226.351 81.8468 226.782 82.8871 227.55 83.6544C228.317 84.4217 229.357 84.8531 230.442 84.8541H298.366C299.451 84.8521 300.49 84.4204 301.258 83.6533C302.025 82.8863 302.456 81.8465 302.458 80.7617V79.015C302.457 77.9296 302.026 76.889 301.259 76.1211C300.492 75.3533 299.452 74.9209 298.366 74.9189H230.442Z" fill="black"/>
<path d="M206.395 40.6558C208.425 40.6558 210.071 39.0101 210.071 36.9799C210.071 34.9498 208.425 33.3042 206.395 33.3042C204.365 33.3042 202.719 34.9498 202.719 36.9799C202.719 39.0101 204.365 40.6558 206.395 40.6558Z" fill="#382256"/>
<path d="M206.395 41.204C205.559 41.2047 204.741 40.9573 204.045 40.493C203.35 40.0287 202.807 39.3686 202.487 38.5959C202.166 37.8233 202.082 36.9729 202.245 36.1525C202.408 35.3321 202.811 34.5785 203.402 33.9871C203.994 33.3956 204.747 32.9929 205.568 32.8299C206.388 32.6668 207.239 32.7508 208.011 33.0712C208.784 33.3917 209.444 33.9341 209.908 34.6299C210.373 35.3257 210.62 36.1435 210.619 36.98C210.618 38.1 210.173 39.1738 209.381 39.9658C208.589 40.7577 207.515 41.203 206.395 41.204ZM206.395 33.8486C205.776 33.8479 205.17 34.0309 204.655 34.3746C204.139 34.7182 203.737 35.2071 203.5 35.7793C203.262 36.3514 203.199 36.9811 203.32 37.5887C203.44 38.1964 203.738 38.7548 204.176 39.1931C204.614 39.6314 205.172 39.9299 205.78 40.0511C206.387 40.1722 207.017 40.1105 207.589 39.8735C208.162 39.6366 208.651 39.2353 208.995 38.7203C209.34 38.2052 209.523 37.5995 209.523 36.98C209.52 36.1517 209.19 35.3582 208.603 34.7728C208.017 34.1874 207.224 33.8578 206.395 33.8559V33.8486Z" fill="#1D1E1B"/>
<path d="M218.348 40.6558C220.378 40.6558 222.024 39.0101 222.024 36.9799C222.024 34.9498 220.378 33.3042 218.348 33.3042C216.318 33.3042 214.672 34.9498 214.672 36.9799C214.672 39.0101 216.318 40.6558 218.348 40.6558Z" fill="#382256"/>
<path d="M218.349 41.204C217.512 41.2047 216.694 40.9573 215.998 40.493C215.303 40.0287 214.76 39.3686 214.44 38.5959C214.119 37.8233 214.035 36.9729 214.198 36.1525C214.361 35.3321 214.764 34.5785 215.355 33.9871C215.947 33.3956 216.701 32.9929 217.521 32.8299C218.341 32.6668 219.192 32.7508 219.964 33.0712C220.737 33.3917 221.397 33.9341 221.862 34.6299C222.326 35.3257 222.573 36.1435 222.572 36.98C222.57 38.0997 222.125 39.173 221.333 39.9647C220.541 40.7565 219.468 41.2021 218.349 41.204ZM218.349 33.8486C217.729 33.8479 217.123 34.0309 216.608 34.3746C216.092 34.7182 215.69 35.2071 215.453 35.7793C215.215 36.3514 215.153 36.9811 215.273 37.5887C215.393 38.1964 215.691 38.7548 216.129 39.1931C216.567 39.6314 217.125 39.9299 217.733 40.0511C218.34 40.1722 218.97 40.1105 219.542 39.8735C220.115 39.6366 220.604 39.2353 220.948 38.7203C221.292 38.2052 221.476 37.5995 221.476 36.98C221.472 36.152 221.141 35.359 220.556 34.7739C219.97 34.1887 219.177 33.8588 218.349 33.8559V33.8486Z" fill="#1D1E1B"/>
<path d="M283.149 121.664H296.183C300.832 121.664 304.602 117.895 304.602 113.246V102.05C304.602 97.4004 300.832 93.6312 296.183 93.6312H283.149C278.5 93.6312 274.73 97.4004 274.73 102.05V113.246C274.73 117.895 278.5 121.664 283.149 121.664Z" fill="#4BD657"/>
<path d="M296.184 122.212H283.15C280.774 122.21 278.495 121.266 276.813 119.585C275.132 117.905 274.186 115.626 274.184 113.249V102.05C274.186 99.6728 275.132 97.3942 276.813 95.7138C278.495 94.0335 280.774 93.0886 283.15 93.0867H296.184C298.561 93.0886 300.84 94.0335 302.521 95.7138C304.202 97.3942 305.148 99.6728 305.151 102.05V113.249C305.148 115.626 304.202 117.905 302.521 119.585C300.84 121.266 298.561 122.21 296.184 122.212ZM283.15 94.1829C281.064 94.1848 279.064 95.0141 277.588 96.4889C276.113 97.9637 275.283 99.9636 275.28 102.05V113.249C275.283 115.335 276.113 117.335 277.588 118.81C279.064 120.285 281.064 121.114 283.15 121.116H296.184C298.27 121.114 300.271 120.285 301.746 118.81C303.222 117.335 304.052 115.335 304.055 113.249V102.05C304.052 99.9636 303.222 97.9637 301.746 96.4889C300.271 95.0141 298.27 94.1848 296.184 94.1829H283.15Z" fill="black"/>
<path d="M215.759 58.7026H189.45C189.305 58.7026 189.166 58.6448 189.063 58.5421C188.96 58.4393 188.902 58.2999 188.902 58.1545C188.902 58.0092 188.96 57.8698 189.063 57.767C189.166 57.6642 189.305 57.6064 189.45 57.6064H215.759C215.904 57.6064 216.044 57.6642 216.147 57.767C216.249 57.8698 216.307 58.0092 216.307 58.1545C216.307 58.2999 216.249 58.4393 216.147 58.5421C216.044 58.6448 215.904 58.7026 215.759 58.7026Z" fill="black"/>
<path d="M215.759 63.8184H189.45C189.305 63.8184 189.166 63.7606 189.063 63.6578C188.96 63.555 188.902 63.4156 188.902 63.2703C188.902 63.1249 188.96 62.9855 189.063 62.8827C189.166 62.78 189.305 62.7222 189.45 62.7222H215.759C215.904 62.7222 216.044 62.78 216.147 62.8827C216.249 62.9855 216.307 63.1249 216.307 63.2703C216.307 63.4156 216.249 63.555 216.147 63.6578C216.044 63.7606 215.904 63.8184 215.759 63.8184Z" fill="black"/>
<path d="M215.759 68.9338H189.45C189.305 68.9338 189.166 68.876 189.063 68.7733C188.96 68.6705 188.902 68.5311 188.902 68.3857C188.902 68.2404 188.96 68.101 189.063 67.9982C189.166 67.8954 189.305 67.8376 189.45 67.8376H215.759C215.904 67.8376 216.044 67.8954 216.147 67.9982C216.249 68.101 216.307 68.2404 216.307 68.3857C216.307 68.5311 216.249 68.6705 216.147 68.7733C216.044 68.876 215.904 68.9338 215.759 68.9338Z" fill="black"/>
<path d="M215.759 74.0493H189.45C189.305 74.0493 189.166 73.9915 189.063 73.8887C188.96 73.786 188.902 73.6466 188.902 73.5012C188.902 73.3559 188.96 73.2165 189.063 73.1137C189.166 73.0109 189.305 72.9531 189.45 72.9531H215.759C215.904 72.9531 216.044 73.0109 216.147 73.1137C216.249 73.2165 216.307 73.3559 216.307 73.5012C216.307 73.6466 216.249 73.786 216.147 73.8887C216.044 73.9915 215.904 74.0493 215.759 74.0493Z" fill="black"/>
<path d="M215.759 79.165H189.45C189.305 79.165 189.166 79.1073 189.063 79.0045C188.96 78.9017 188.902 78.7623 188.902 78.6169C188.902 78.4716 188.96 78.3322 189.063 78.2294C189.166 78.1266 189.305 78.0688 189.45 78.0688H215.759C215.904 78.0688 216.044 78.1266 216.147 78.2294C216.249 78.3322 216.307 78.4716 216.307 78.6169C216.307 78.7623 216.249 78.9017 216.147 79.0045C216.044 79.1073 215.904 79.165 215.759 79.165Z" fill="black"/>
<path d="M215.759 84.2805H189.45C189.305 84.2805 189.166 84.2227 189.063 84.1199C188.96 84.0172 188.902 83.8778 188.902 83.7324C188.902 83.5871 188.96 83.4477 189.063 83.3449C189.166 83.2421 189.305 83.1843 189.45 83.1843H215.759C215.904 83.1843 216.044 83.2421 216.147 83.3449C216.249 83.4477 216.307 83.5871 216.307 83.7324C216.307 83.8778 216.249 84.0172 216.147 84.1199C216.044 84.2227 215.904 84.2805 215.759 84.2805Z" fill="black"/>
<path d="M318.071 45.9138C317.999 45.9129 317.928 45.8978 317.862 45.8694C317.796 45.841 317.736 45.7997 317.686 45.7481C317.636 45.6965 317.596 45.6357 317.569 45.5688C317.543 45.5019 317.529 45.4304 317.53 45.3584C317.643 37.0712 315.448 30.7865 311.004 26.6757C304.475 20.6394 295.201 21.4214 295.11 21.4287C294.964 21.4423 294.82 21.3974 294.707 21.3042C294.595 21.211 294.524 21.077 294.51 20.9316C294.497 20.7863 294.542 20.6415 294.635 20.5291C294.728 20.4167 294.862 20.3461 295.007 20.3325C295.406 20.2923 304.844 19.4883 311.739 25.8572C316.427 30.1835 318.743 36.7497 318.626 45.3657C318.626 45.4383 318.612 45.5102 318.584 45.5772C318.556 45.6441 318.515 45.705 318.463 45.7559C318.412 45.8069 318.35 45.8471 318.283 45.8742C318.216 45.9013 318.144 45.9148 318.071 45.9138Z" fill="#1D1D1B"/>
<path d="M289.571 31.2979H251.57C251.327 31.2979 251.095 31.2016 250.924 31.0303C250.753 30.859 250.656 30.6267 250.656 30.3844C250.656 30.1422 250.753 29.9099 250.924 29.7386C251.095 29.5673 251.327 29.4709 251.57 29.4709H289.571C289.813 29.4709 290.046 29.5673 290.217 29.7386C290.388 29.9099 290.485 30.1422 290.485 30.3844C290.485 30.6267 290.388 30.859 290.217 31.0303C290.046 31.2016 289.813 31.2979 289.571 31.2979Z" fill="white"/>
<path d="M156.133 35.8289L147.177 69.3613C146.896 70.4132 146.324 71.3641 145.525 72.1039C144.726 72.8437 143.734 73.3421 142.664 73.5414L104.378 80.6924C103.918 80.7778 103.481 80.9549 103.091 81.2133C102.701 81.4717 102.368 81.8061 102.11 82.1962C101.853 82.5864 101.677 83.0244 101.592 83.4842C101.508 83.944 101.517 84.4163 101.619 84.8725C107.075 108.989 132.049 125.724 159.074 117.564C165.829 115.532 171.978 111.865 176.976 106.888C181.975 101.91 185.668 95.7767 187.729 89.0307C195.296 64.2787 181.977 41.2148 161.182 33.2418C160.683 33.0514 160.148 32.9682 159.614 32.9974C159.08 33.0267 158.558 33.1678 158.082 33.4117C157.606 33.6556 157.186 33.9967 156.85 34.4131C156.515 34.8296 156.27 35.3119 156.133 35.8289Z" fill="#07ACEE"/>
<path d="M145.186 120.199C137.203 120.216 129.359 118.105 122.462 114.082C117.098 110.954 112.434 106.758 108.756 101.755C105.079 96.7512 102.467 91.0464 101.083 84.9932C100.964 84.4648 100.953 83.9177 101.05 83.3849C101.148 82.8522 101.352 82.3447 101.651 81.8929C101.949 81.441 102.336 81.0542 102.788 80.7556C103.24 80.457 103.747 80.2528 104.28 80.1553L142.563 73.0045C143.53 72.8212 144.426 72.3693 145.149 71.7005C145.871 71.0317 146.391 70.1729 146.648 69.2226L155.604 35.6864C155.764 35.0967 156.045 34.5471 156.43 34.0725C156.815 33.5979 157.294 33.2089 157.838 32.9306C158.382 32.6523 158.978 32.4907 159.588 32.4562C160.198 32.4217 160.809 32.5151 161.381 32.7304C171.886 36.7549 180.515 44.5507 185.581 54.5957C190.908 65.1264 191.855 77.4112 188.256 89.1879C186.172 96.0218 182.432 102.235 177.37 107.277C172.307 112.318 166.078 116.032 159.236 118.087C154.681 119.476 149.948 120.187 145.186 120.199ZM159.824 33.5417C159.103 33.541 158.402 33.7789 157.83 34.2184C157.258 34.658 156.848 35.2744 156.663 35.9715L147.704 69.504C147.394 70.6542 146.766 71.6938 145.892 72.5035C145.018 73.3133 143.934 73.8604 142.764 74.0823L104.496 81.2332C104.108 81.3039 103.738 81.4522 103.409 81.6693C103.081 81.8864 102.799 82.1676 102.582 82.4963C102.364 82.825 102.216 83.1943 102.144 83.5819C102.073 83.9696 102.081 84.3675 102.168 84.752C103.519 90.6584 106.067 96.2249 109.655 101.107C113.243 105.989 117.795 110.083 123.028 113.136C133.775 119.399 146.527 120.784 158.933 117.038C165.603 115.035 171.674 111.416 176.609 106.502C181.544 101.588 185.19 95.5314 187.222 88.87C194.252 65.8756 182.979 42.1797 161.001 33.7536C160.625 33.6109 160.226 33.539 159.824 33.5417Z" fill="#1D1E1B"/>
<path d="M113.539 30.8633L138.646 59.8868C138.86 60.135 139.138 60.3201 139.45 60.4222C139.762 60.5243 140.095 60.5395 140.415 60.4663C140.735 60.393 141.028 60.234 141.264 60.0063C141.501 59.7787 141.67 59.491 141.755 59.1742L151.343 23.2775C151.406 23.045 151.422 22.8022 151.389 22.5635C151.356 22.3248 151.276 22.0952 151.153 21.888C151.03 21.6809 150.867 21.5005 150.673 21.3576C150.479 21.2147 150.258 21.1122 150.024 21.0561C143.832 19.6113 137.404 19.5018 131.167 20.7347C124.929 21.9677 119.026 24.5149 113.85 28.2068C113.645 28.3532 113.473 28.5409 113.344 28.7578C113.216 28.9747 113.135 29.216 113.106 29.4663C113.077 29.7165 113.1 29.97 113.175 30.2106C113.249 30.4512 113.373 30.6735 113.539 30.8633Z" fill="#4BD657"/>
<path d="M140.009 61.0595C139.671 61.06 139.337 60.9877 139.03 60.8477C138.723 60.7077 138.45 60.5033 138.229 60.2482L113.123 31.2247C112.908 30.9759 112.748 30.6852 112.653 30.371C112.557 30.0568 112.528 29.7261 112.568 29.4001C112.608 29.074 112.714 28.7599 112.882 28.4776C113.05 28.1954 113.275 27.9511 113.543 27.7608C121.207 22.269 130.405 19.3287 139.833 19.3566C143.306 19.3559 146.767 19.7532 150.149 20.5406C150.452 20.6109 150.738 20.742 150.989 20.926C151.24 21.11 151.452 21.3433 151.61 21.6113C151.774 21.8827 151.881 22.1843 151.926 22.4982C151.971 22.8121 151.951 23.132 151.87 23.4383L142.281 59.3312C142.149 59.8332 141.853 60.2769 141.441 60.5929C141.03 60.909 140.524 61.0795 140.005 61.0777L140.009 61.0595ZM113.952 30.505L139.059 59.5283C139.208 59.7016 139.401 59.831 139.619 59.9023C139.836 59.9736 140.069 59.9841 140.292 59.933C140.515 59.8818 140.72 59.7709 140.884 59.612C141.049 59.4531 141.166 59.2524 141.225 59.0314L150.813 23.1385C150.857 22.9744 150.868 22.803 150.844 22.6347C150.82 22.4664 150.762 22.3048 150.675 22.1594C150.591 22.0166 150.479 21.8922 150.346 21.7942C150.213 21.6961 150.061 21.6265 149.9 21.5893C146.599 20.8208 143.222 20.4334 139.833 20.4346C130.631 20.4141 121.656 23.289 114.179 28.6523C114.034 28.7543 113.912 28.886 113.822 29.0384C113.732 29.1908 113.676 29.3607 113.656 29.5367C113.634 29.7099 113.649 29.8858 113.7 30.0527C113.751 30.2196 113.837 30.3738 113.952 30.505Z" fill="#1D1D1B"/>
<path d="M111.502 38.7301C111.222 38.4066 110.879 38.1427 110.495 37.9538C110.111 37.7649 109.692 37.655 109.265 37.6305C108.838 37.606 108.409 37.6674 108.006 37.8111C107.603 37.9547 107.232 38.1778 106.917 38.4671C102.31 42.6492 98.629 47.7494 96.1118 53.4396C93.5945 59.1298 92.2963 65.2841 92.3008 71.5062C92.3008 72.4441 92.3301 73.3782 92.3886 74.3088C92.4184 74.7594 92.5436 75.1985 92.7558 75.5971C92.968 75.9957 93.2621 76.3447 93.6193 76.6211C93.9764 76.8974 94.3884 77.0947 94.8275 77.2C95.2666 77.3053 95.7231 77.3162 96.1667 77.232L132.545 70.4393C133.098 70.3356 133.614 70.0878 134.041 69.721C134.468 69.3542 134.789 68.8812 134.975 68.35C135.16 67.8189 135.202 67.2483 135.096 66.6958C134.991 66.1432 134.741 65.6283 134.372 65.2031L111.502 38.7301Z" fill="#382256"/>
<path d="M95.5912 77.824C94.7536 77.8239 93.9398 77.545 93.2782 77.0311C92.8647 76.7088 92.5241 76.3023 92.2791 75.8388C92.0341 75.3752 91.8903 74.8649 91.857 74.3417C91.7949 73.4026 91.7656 72.449 91.7656 71.5063C91.7728 65.211 93.0904 58.9861 95.6351 53.2281C98.1798 47.47 101.896 42.3048 106.546 38.0614C106.918 37.7221 107.354 37.461 107.828 37.2934C108.303 37.1258 108.806 37.0551 109.308 37.0859C109.807 37.1134 110.296 37.2415 110.744 37.4625C111.192 37.6835 111.591 37.9929 111.917 38.3721L134.806 64.8341C135.238 65.3324 135.53 65.936 135.654 66.5838C135.778 67.2315 135.729 67.9006 135.511 68.5232C135.293 69.1457 134.915 69.6998 134.415 70.1293C133.914 70.5588 133.309 70.8484 132.661 70.9691L96.2817 77.7619C96.054 77.8043 95.8229 77.8251 95.5912 77.824ZM109.078 38.1747C108.414 38.1738 107.773 38.423 107.284 38.8727C102.746 43.0128 99.1202 48.0526 96.6371 53.6711C94.1541 59.2896 92.8684 65.3636 92.8618 71.5063C92.8618 72.4271 92.8911 73.3551 92.9496 74.2723C92.9738 74.6409 93.0758 75.0003 93.249 75.3265C93.4222 75.6528 93.6627 75.9386 93.9544 76.1651C94.2518 76.3975 94.5951 76.564 94.9618 76.6534C95.3284 76.7429 95.7098 76.7533 96.0808 76.6839L132.46 69.8913C132.918 69.8049 133.345 69.5993 133.699 69.2952C134.052 68.9911 134.319 68.5993 134.473 68.1592C134.627 67.719 134.662 67.2461 134.575 66.7881C134.487 66.3301 134.281 65.9032 133.976 65.5504L111.073 39.0882C110.842 38.8207 110.56 38.6024 110.243 38.4461C109.926 38.2898 109.581 38.1988 109.228 38.1785L109.078 38.1747Z" fill="black"/>
<path d="M121.323 27.7389C121.125 27.7396 120.932 27.6761 120.773 27.5576C120.615 27.4392 120.499 27.2722 120.443 27.0822C120.387 26.8921 120.395 26.6891 120.465 26.5037C120.535 26.3184 120.663 26.1607 120.83 26.0545C121.268 25.7768 131.722 19.2691 147.35 22.1411C147.589 22.1847 147.8 22.3212 147.938 22.5206C148.075 22.72 148.128 22.9661 148.085 23.2045C148.041 23.4429 147.904 23.6541 147.705 23.7918C147.506 23.9295 147.26 23.9824 147.021 23.9388C132.131 21.202 121.911 27.5307 121.809 27.5928C121.664 27.6868 121.496 27.7375 121.323 27.7389Z" fill="white"/>
<path d="M96.4024 61.487C96.3234 61.4879 96.2449 61.478 96.1686 61.4577C95.9345 61.3951 95.7346 61.2424 95.6127 61.0329C95.4908 60.8234 95.4568 60.5741 95.5181 60.3396C98.3865 49.5129 106.444 41.054 106.783 40.6995C106.867 40.6129 106.966 40.5436 107.076 40.4954C107.186 40.4473 107.305 40.4213 107.425 40.4189C107.545 40.4165 107.665 40.4377 107.776 40.4815C107.888 40.5253 107.99 40.5908 108.077 40.674C108.163 40.7573 108.233 40.8567 108.281 40.9668C108.329 41.0769 108.355 41.1953 108.358 41.3154C108.36 41.4355 108.339 41.5548 108.295 41.6667C108.251 41.7786 108.186 41.8809 108.103 41.9675C108.019 42.0516 100.027 50.4482 97.2866 60.8072C97.2344 61.0019 97.1196 61.1741 96.9597 61.297C96.7999 61.4198 96.604 61.4866 96.4024 61.487Z" fill="white"/>
<path d="M151.917 62.4333C151.842 62.4338 151.767 62.4253 151.694 62.4078C151.461 62.349 151.261 62.2011 151.137 61.996C151.012 61.7909 150.973 61.5451 151.028 61.3116L157.021 37.3378C157.084 37.1077 157.235 36.9115 157.441 36.791C157.647 36.6705 157.892 36.6354 158.123 36.6932C158.355 36.751 158.554 36.8971 158.68 37.1002C158.805 37.3033 158.846 37.5473 158.793 37.7801L152.801 61.7537C152.749 61.9488 152.634 62.1213 152.474 62.2442C152.314 62.3671 152.118 62.4336 151.917 62.4333Z" fill="white"/>
<path d="M87.8845 74.9994C87.7533 74.999 87.6265 74.9516 87.5273 74.8657C87.428 74.7799 87.3627 74.6613 87.3435 74.5316C85.4471 61.2457 92.3933 49.3741 92.4591 49.2535C92.5337 49.1285 92.6551 49.0381 92.7963 49.0025C92.9374 48.9669 93.087 48.9889 93.212 49.0635C93.337 49.1381 93.4272 49.2594 93.4628 49.4006C93.4985 49.5417 93.4764 49.6913 93.4018 49.8163C93.3324 49.9295 86.5835 61.4834 88.4251 74.3746C88.4354 74.4458 88.4317 74.5183 88.414 74.5881C88.3963 74.6579 88.365 74.7235 88.3219 74.7812C88.2788 74.8389 88.2247 74.8876 88.1628 74.9244C88.1009 74.9612 88.0324 74.9853 87.9612 74.9956L87.8845 74.9994Z" fill="#1D1D1B"/>
<path d="M110.912 25.7951C110.802 25.7937 110.696 25.7594 110.606 25.6968C110.516 25.6342 110.447 25.5461 110.408 25.4438C110.368 25.3416 110.36 25.2299 110.385 25.1232C110.41 25.0165 110.466 24.9195 110.547 24.8451C110.634 24.7647 119.375 16.8064 133.3 16.4995C133.373 16.4965 133.445 16.5083 133.513 16.5339C133.581 16.5595 133.643 16.5985 133.695 16.6486C133.748 16.6987 133.79 16.759 133.818 16.8256C133.847 16.8923 133.862 16.9641 133.863 17.0367C133.864 17.1087 133.851 17.1802 133.825 17.2472C133.799 17.3143 133.76 17.3755 133.71 17.4274C133.66 17.4793 133.6 17.5209 133.534 17.5498C133.468 17.5787 133.398 17.5942 133.326 17.5957C119.832 17.9026 111.376 25.5723 111.292 25.6344C111.191 25.7354 111.055 25.7931 110.912 25.7951Z" fill="#1D1D1B"/>
<path d="M69.813 178.739H151.889C159.214 178.739 165.152 172.801 165.152 165.475V106.862C165.152 99.5364 159.214 93.598 151.889 93.598L69.813 93.598C62.4875 93.598 56.5491 99.5364 56.5491 106.862L56.5491 165.475C56.5491 172.801 62.4875 178.739 69.813 178.739Z" fill="#4BD657"/>
<path d="M151.887 179.284H69.8119C66.1496 179.279 62.6387 177.822 60.0493 175.232C57.46 172.642 56.0039 169.13 56 165.468V106.862C56.0039 103.2 57.46 99.6884 60.0493 97.0984C62.6387 94.5084 66.1496 93.0512 69.8119 93.0464H151.887C155.55 93.0512 159.061 94.5084 161.65 97.0984C164.239 99.6884 165.696 103.2 165.699 106.862V165.472C165.695 169.133 164.238 172.644 161.649 175.233C159.059 177.822 155.549 179.279 151.887 179.284ZM69.8119 94.1461C66.44 94.15 63.2073 95.4915 60.8233 97.8761C58.4394 100.261 57.0991 103.494 57.0962 106.866V165.475C57.1001 168.847 58.4406 172.079 60.8244 174.464C63.2081 176.848 66.4403 178.19 69.8119 178.195H151.887C155.259 178.19 158.491 176.848 160.875 174.464C163.258 172.079 164.599 168.847 164.603 165.475V106.862C164.6 103.49 163.26 100.257 160.876 97.8724C158.492 95.4877 155.259 94.1464 151.887 94.1426L69.8119 94.1461Z" fill="black"/>
<path d="M165.15 107.03V165.472C165.15 168.99 163.753 172.364 161.265 174.852C158.778 177.34 155.404 178.738 151.886 178.739H69.8107C66.2926 178.738 62.9187 177.34 60.4314 174.852C57.944 172.364 56.5469 168.99 56.5469 165.472V107.03H165.15Z" fill="white"/>
<path d="M151.887 179.284H69.8119C66.1496 179.279 62.6387 177.822 60.0493 175.232C57.46 172.642 56.0039 169.13 56 165.468V107.03C56 106.885 56.0578 106.745 56.1606 106.643C56.2634 106.54 56.4027 106.482 56.5481 106.482H165.151C165.297 106.482 165.436 106.54 165.539 106.643C165.642 106.745 165.699 106.885 165.699 107.03V165.472C165.695 169.133 164.238 172.644 161.649 175.233C159.059 177.822 155.549 179.279 151.887 179.284ZM57.0962 107.575V165.472C57.1001 168.843 58.4406 172.076 60.8244 174.46C63.2081 176.845 66.4403 178.186 69.8119 178.191H151.887C155.259 178.186 158.491 176.845 160.875 174.46C163.258 172.076 164.599 168.843 164.603 165.472V107.578L57.0962 107.575Z" fill="black"/>
<path d="M67.7131 104.001C69.384 104.001 70.7387 102.646 70.7387 100.975C70.7387 99.3044 69.384 97.95 67.7131 97.95C66.0422 97.95 64.6875 99.3044 64.6875 100.975C64.6875 102.646 66.0422 104.001 67.7131 104.001Z" fill="#382256"/>
<path d="M67.7137 104.549C67.0059 104.55 66.3135 104.34 65.7247 103.948C65.1359 103.555 64.677 102.996 64.4058 102.342C64.1346 101.689 64.0635 100.969 64.2014 100.275C64.3393 99.5805 64.68 98.9427 65.1805 98.4422C65.681 97.9417 66.3186 97.601 67.0129 97.4631C67.7071 97.3252 68.4269 97.3963 69.0807 97.6675C69.7345 97.9388 70.2929 98.3977 70.6857 98.9866C71.0785 99.5754 71.2881 100.268 71.2874 100.975C71.2854 101.923 70.908 102.83 70.2383 103.5C69.5685 104.17 68.6609 104.547 67.7137 104.549ZM67.7137 98.4943C67.2228 98.4936 66.7426 98.6386 66.3342 98.9108C65.9257 99.1829 65.6072 99.5701 65.4189 100.023C65.2305 100.477 65.1808 100.976 65.2761 101.457C65.3715 101.939 65.6077 102.381 65.9545 102.729C66.3013 103.076 66.7431 103.312 67.2245 103.408C67.7058 103.504 68.205 103.456 68.6586 103.268C69.1121 103.08 69.4998 102.762 69.7726 102.354C70.0454 101.946 70.1912 101.466 70.1912 100.975C70.1902 100.318 69.9289 99.6883 69.4647 99.2233C69.0004 98.7584 68.3708 98.4963 67.7137 98.4943Z" fill="#1D1E1B"/>
<path d="M77.5526 104.001C79.2235 104.001 80.5782 102.646 80.5782 100.975C80.5782 99.3044 79.2235 97.95 77.5526 97.95C75.8816 97.95 74.5273 99.3044 74.5273 100.975C74.5273 102.646 75.8816 104.001 77.5526 104.001Z" fill="#382256"/>
<path d="M77.5535 104.549C76.8457 104.55 76.1537 104.34 75.5649 103.948C74.9761 103.555 74.5169 102.996 74.2457 102.342C73.9745 101.689 73.9033 100.969 74.0412 100.275C74.1791 99.5805 74.5199 98.9427 75.0204 98.4422C75.5209 97.9417 76.1588 97.601 76.8531 97.4631C77.5473 97.3252 78.2667 97.3963 78.9205 97.6675C79.5743 97.9388 80.1331 98.3977 80.5259 98.9866C80.9187 99.5754 81.1279 100.268 81.1272 100.975C81.1253 101.923 80.7482 102.83 80.0785 103.5C79.4087 104.17 78.5007 104.547 77.5535 104.549ZM77.5535 98.4943C77.0627 98.4936 76.5828 98.6386 76.1744 98.9108C75.7659 99.1829 75.4471 99.5701 75.2587 100.023C75.0704 100.477 75.0207 100.976 75.116 101.457C75.2113 101.939 75.4475 102.381 75.7943 102.729C76.1412 103.076 76.5833 103.312 77.0647 103.408C77.546 103.504 78.0448 103.456 78.4984 103.268C78.952 103.08 79.3397 102.762 79.6124 102.354C79.8852 101.946 80.031 101.466 80.031 100.975C80.03 100.318 79.7688 99.6883 79.3045 99.2233C78.8402 98.7584 78.2106 98.4963 77.5535 98.4943Z" fill="#1D1E1B"/>
<path d="M87.3885 104.001C89.0594 104.001 90.4141 102.647 90.4141 100.976C90.4141 99.3047 89.0594 97.9502 87.3885 97.9502C85.7176 97.9502 84.3633 99.3047 84.3633 100.976C84.3633 102.647 85.7176 104.001 87.3885 104.001Z" fill="#382256"/>
<path d="M87.3896 104.549C86.6819 104.549 85.9904 104.339 85.402 103.946C84.8137 103.553 84.3549 102.994 84.0843 102.34C83.8136 101.686 83.7432 100.967 83.8816 100.273C84.0199 99.5787 84.3608 98.9412 84.8614 98.441C85.3621 97.9409 86 97.6004 86.6941 97.4628C87.3883 97.3252 88.1077 97.3967 88.7613 97.668C89.4149 97.9393 89.9733 98.3982 90.3659 98.987C90.7586 99.5758 90.9676 100.268 90.9669 100.975C90.9659 101.924 90.5885 102.832 89.9178 103.503C89.247 104.173 88.3377 104.549 87.3896 104.549ZM87.3896 98.4944C86.8989 98.4944 86.4192 98.64 86.0112 98.9126C85.6031 99.1852 85.2854 99.5727 85.0977 100.026C84.9099 100.479 84.8606 100.978 84.9564 101.459C85.0521 101.941 85.2884 102.383 85.6354 102.73C85.9824 103.077 86.4245 103.313 86.9057 103.409C87.387 103.505 87.8858 103.456 88.3391 103.268C88.7925 103.08 89.1798 102.762 89.4525 102.354C89.7251 101.946 89.8707 101.466 89.8707 100.975C89.8707 100.65 89.8066 100.327 89.6819 100.026C89.5572 99.7251 89.3745 99.4515 89.1441 99.2211C88.9138 98.9907 88.6401 98.808 88.3391 98.6833C88.0381 98.5587 87.7154 98.4944 87.3896 98.4944Z" fill="#1D1E1B"/>
<path d="M74.7062 122.83H76.5332C77.2116 122.83 77.862 123.099 78.3416 123.579C78.8213 124.059 79.091 124.709 79.091 125.388V159.369H72.1484V125.388C72.1484 124.709 72.4178 124.059 72.8974 123.579C73.3771 123.099 74.0279 122.83 74.7062 122.83Z" fill="#4BD657"/>
<path d="M79.1 159.918H72.1575C72.0121 159.918 71.8727 159.86 71.7699 159.757C71.6672 159.654 71.6094 159.515 71.6094 159.37V125.388C71.6094 124.566 71.9357 123.778 72.5168 123.197C73.0979 122.616 73.8863 122.289 74.7081 122.289H76.5351C77.3569 122.289 78.145 122.616 78.7261 123.197C79.3071 123.778 79.6335 124.566 79.6335 125.388V159.37C79.6335 159.512 79.5779 159.65 79.4783 159.752C79.3786 159.854 79.2428 159.914 79.1 159.918ZM72.7056 158.821H78.5519V125.38C78.551 124.85 78.3395 124.341 77.9642 123.965C77.5889 123.59 77.0801 123.379 76.5494 123.378H74.7224C74.1916 123.379 73.6832 123.59 73.3079 123.965C72.9326 124.341 72.7212 124.85 72.7202 125.38L72.7056 158.821Z" fill="black"/>
<path d="M86.4368 137.446H88.9397C89.5289 137.446 90.0942 137.68 90.5108 138.096C90.9274 138.513 91.1613 139.078 91.1613 139.667V159.37H84.2188V139.667C84.2187 139.079 84.4523 138.514 84.8682 138.098C85.284 137.681 85.8482 137.447 86.4368 137.446Z" fill="#07ACEE"/>
<path d="M91.7067 159.918H83.668V139.667C83.6689 138.933 83.9609 138.229 84.4801 137.71C84.9993 137.191 85.7034 136.899 86.4377 136.898H88.937C89.6712 136.899 90.3753 137.191 90.8946 137.71C91.4138 138.229 91.7057 138.933 91.7067 139.667V159.918ZM84.7642 158.821H90.6105V139.667C90.6105 139.224 90.4341 138.798 90.1202 138.484C89.8064 138.17 89.3808 137.994 88.937 137.994H86.4377C85.9939 137.994 85.5683 138.17 85.2544 138.484C84.9406 138.798 84.7642 139.224 84.7642 139.667V158.821Z" fill="#1D1D1B"/>
<path d="M98.7795 128.311H102.174C102.644 128.311 103.095 128.497 103.427 128.83C103.76 129.162 103.946 129.613 103.946 130.083V159.37H97.0039V130.083C97.0039 129.85 97.0499 129.619 97.1391 129.404C97.2284 129.189 97.3592 128.993 97.5242 128.829C97.6891 128.664 97.885 128.533 98.1005 128.445C98.3159 128.356 98.5465 128.31 98.7795 128.311Z" fill="#4BD657"/>
<path d="M103.948 159.918H97.0051C96.8598 159.918 96.7204 159.86 96.6176 159.757C96.5148 159.654 96.457 159.515 96.457 159.37V130.083C96.458 129.468 96.7029 128.878 97.1379 128.443C97.5728 128.008 98.1621 127.764 98.7772 127.763H102.176C102.791 127.764 103.38 128.008 103.815 128.443C104.25 128.878 104.495 129.468 104.496 130.083V159.37C104.496 159.515 104.438 159.654 104.335 159.757C104.232 159.86 104.093 159.918 103.948 159.918ZM97.5532 158.821H103.4V130.083C103.4 129.758 103.271 129.447 103.041 129.217C102.811 128.988 102.5 128.859 102.176 128.859H98.7772C98.4525 128.859 98.1414 128.988 97.9118 129.217C97.6823 129.447 97.5532 129.758 97.5532 130.083V158.821Z" fill="black"/>
<path d="M110.104 147.677H113.498C113.968 147.677 114.419 147.863 114.751 148.196C115.084 148.528 115.271 148.979 115.271 149.449V159.369H108.328V149.449C108.328 149.216 108.374 148.985 108.463 148.77C108.553 148.555 108.683 148.359 108.848 148.195C109.013 148.03 109.209 147.899 109.425 147.811C109.64 147.722 109.871 147.676 110.104 147.677Z" fill="#07ACEE"/>
<path d="M115.82 159.918H107.781V149.449C107.782 148.834 108.027 148.244 108.462 147.809C108.897 147.374 109.486 147.13 110.101 147.129H113.5C114.115 147.13 114.704 147.374 115.139 147.809C115.574 148.244 115.819 148.834 115.82 149.449V159.918ZM108.877 158.821H114.724V149.449C114.724 149.124 114.595 148.813 114.365 148.583C114.136 148.354 113.825 148.225 113.5 148.225H110.101C109.941 148.225 109.782 148.256 109.633 148.318C109.485 148.38 109.35 148.47 109.236 148.583C109.122 148.697 109.032 148.832 108.971 148.98C108.909 149.129 108.877 149.288 108.877 149.449V158.821Z" fill="#1D1D1B"/>
<path d="M125.116 159.917H63.7551C63.6098 159.917 63.4704 159.86 63.3676 159.757C63.2648 159.654 63.207 159.515 63.207 159.369C63.207 159.224 63.2648 159.085 63.3676 158.982C63.4704 158.879 63.6098 158.821 63.7551 158.821H125.116C125.262 158.821 125.401 158.879 125.504 158.982C125.606 159.085 125.664 159.224 125.664 159.369C125.664 159.515 125.606 159.654 125.504 159.757C125.401 159.86 125.262 159.917 125.116 159.917Z" fill="black"/>
<path d="M66.3098 163.937C66.1645 163.937 66.0251 163.879 65.9223 163.776C65.8195 163.673 65.7617 163.534 65.7617 163.389V116.618C65.7617 116.473 65.8195 116.333 65.9223 116.23C66.0251 116.128 66.1645 116.07 66.3098 116.07C66.4552 116.07 66.5945 116.128 66.6973 116.23C66.8001 116.333 66.8579 116.473 66.8579 116.618V163.389C66.8579 163.534 66.8001 163.673 66.6973 163.776C66.5945 163.879 66.4552 163.937 66.3098 163.937Z" fill="black"/>
<path d="M95.5435 169.418H70.6965C70.5512 169.418 70.4118 169.36 70.309 169.257C70.2062 169.155 70.1484 169.015 70.1484 168.87C70.1484 168.725 70.2062 168.585 70.309 168.482C70.4118 168.38 70.5512 168.322 70.6965 168.322H95.5435C95.6889 168.322 95.8283 168.38 95.931 168.482C96.0338 168.585 96.0916 168.725 96.0916 168.87C96.0916 169.015 96.0338 169.155 95.931 169.257C95.8283 169.36 95.6889 169.418 95.5435 169.418Z" fill="black"/>
<path d="M113.813 169.418H101.755C101.61 169.418 101.47 169.36 101.368 169.257C101.265 169.155 101.207 169.015 101.207 168.87C101.207 168.725 101.265 168.585 101.368 168.482C101.47 168.38 101.61 168.322 101.755 168.322H113.813C113.959 168.322 114.098 168.38 114.201 168.482C114.304 168.585 114.361 168.725 114.361 168.87C114.361 169.015 114.304 169.155 114.201 169.257C114.098 169.36 113.959 169.418 113.813 169.418Z" fill="black"/>
<path d="M118.562 98.1656C118.32 98.1656 118.087 98.0693 117.916 97.898C117.745 97.7267 117.648 97.4944 117.648 97.2521C117.648 97.0098 117.745 96.7775 117.916 96.6062C118.087 96.4349 118.32 96.3386 118.562 96.3386L150.351 95.9732C150.471 95.9718 150.59 95.9939 150.702 96.0385C150.813 96.0831 150.915 96.1492 151.001 96.233C151.086 96.3168 151.155 96.4167 151.202 96.527C151.249 96.6373 151.275 96.7559 151.276 96.8758C151.277 96.9958 151.255 97.1148 151.211 97.2262C151.166 97.3376 151.1 97.4391 151.016 97.5249C150.932 97.6107 150.833 97.6793 150.722 97.7265C150.612 97.7737 150.493 97.7988 150.373 97.8002L118.584 98.1656H118.562Z" fill="white"/>
<path d="M76.9057 152.61C76.6634 152.61 76.4311 152.513 76.2598 152.342C76.0885 152.171 75.9922 151.938 75.9922 151.696V129.772C75.9922 129.53 76.0885 129.298 76.2598 129.127C76.4311 128.955 76.6634 128.859 76.9057 128.859C77.148 128.859 77.3802 128.955 77.5515 129.127C77.7229 129.298 77.8192 129.53 77.8192 129.772V151.696C77.8192 151.938 77.7229 152.171 77.5515 152.342C77.3802 152.513 77.148 152.61 76.9057 152.61Z" fill="white"/>
<path d="M88.601 149.321C88.3587 149.321 88.1264 149.225 87.9551 149.053C87.7838 148.882 87.6875 148.65 87.6875 148.407V141.1C87.6875 140.857 87.7838 140.625 87.9551 140.454C88.1264 140.282 88.3587 140.186 88.601 140.186C88.8433 140.186 89.0755 140.282 89.2469 140.454C89.4182 140.625 89.5145 140.857 89.5145 141.1V148.407C89.5145 148.65 89.4182 148.882 89.2469 149.053C89.0755 149.225 88.8433 149.321 88.601 149.321Z" fill="white"/>
<path d="M101.753 142.379C101.511 142.379 101.279 142.282 101.107 142.111C100.936 141.94 100.84 141.707 100.84 141.465V131.965C100.84 131.722 100.936 131.49 101.107 131.319C101.279 131.148 101.511 131.051 101.753 131.051C101.996 131.051 102.228 131.148 102.399 131.319C102.571 131.49 102.667 131.722 102.667 131.965V141.465C102.667 141.707 102.571 141.94 102.399 142.111C102.228 142.282 101.996 142.379 101.753 142.379Z" fill="white"/>
<path d="M113.081 158.091C112.839 158.091 112.607 157.994 112.436 157.823C112.264 157.652 112.168 157.419 112.168 157.177V150.235C112.168 149.992 112.264 149.76 112.436 149.589C112.607 149.417 112.839 149.321 113.081 149.321C113.324 149.321 113.556 149.417 113.727 149.589C113.899 149.76 113.995 149.992 113.995 150.235V157.177C113.995 157.419 113.899 157.652 113.727 157.823C113.556 157.994 113.324 158.091 113.081 158.091Z" fill="white"/>
<path d="M103.947 184.399H76.9075C76.7621 184.399 76.6227 184.341 76.5199 184.239C76.4172 184.136 76.3594 183.996 76.3594 183.851C76.3594 183.706 76.4172 183.566 76.5199 183.464C76.6227 183.361 76.7621 183.303 76.9075 183.303H103.947C104.092 183.303 104.232 183.361 104.334 183.464C104.437 183.566 104.495 183.706 104.495 183.851C104.495 183.996 104.437 184.136 104.334 184.239C104.232 184.341 104.092 184.399 103.947 184.399Z" fill="#1D1D1B"/>
<path d="M128.977 225.155L153.582 226.006L161.219 215.823C161.219 215.823 169.704 189.514 161.219 178.487C152.735 167.459 135.766 193.76 135.766 193.76" fill="#FFCDB2"/>
<path d="M153.864 226.562L128.977 225.689L129.013 224.593L153.334 225.429L160.744 215.564C161.26 213.908 168.783 189.186 160.803 178.819C159.458 177.069 157.879 176.262 155.943 176.335C147.539 176.7 136.354 193.874 136.244 194.056L135.32 193.461C135.791 192.73 146.939 175.611 155.899 175.238C158.161 175.143 160.116 176.126 161.672 178.162C170.234 189.292 162.111 214.913 161.76 215.998L161.731 216.086L153.864 226.562Z" fill="#1D1E1B"/>
<path d="M138.205 192.781L115.791 135.582C115.628 135.164 115.569 134.714 115.619 134.268C115.669 133.823 115.827 133.397 116.079 133.026C116.331 132.656 116.669 132.352 117.064 132.141C117.46 131.931 117.901 131.82 118.349 131.818H154.019C154.569 131.818 155.107 131.982 155.563 132.29C156.019 132.598 156.372 133.036 156.577 133.546L179.034 189.288C179.199 189.697 179.263 190.141 179.221 190.58C179.179 191.02 179.032 191.443 178.792 191.813C178.553 192.184 178.228 192.492 177.844 192.711C177.461 192.931 177.031 193.055 176.589 193.073L140.879 194.535C140.307 194.555 139.742 194.398 139.263 194.084C138.784 193.769 138.414 193.314 138.205 192.781Z" fill="#4BD657"/>
<path d="M140.773 195.079C140.108 195.081 139.458 194.882 138.909 194.508C138.36 194.133 137.937 193.601 137.696 192.982L115.279 135.801C115.078 135.3 115.004 134.757 115.062 134.22C115.121 133.683 115.311 133.169 115.615 132.723C115.92 132.277 116.329 131.913 116.808 131.662C117.287 131.412 117.82 131.284 118.36 131.288H154.03C154.69 131.285 155.336 131.482 155.883 131.851C156.431 132.221 156.854 132.746 157.099 133.36L179.549 189.101C179.75 189.591 179.83 190.123 179.781 190.65C179.733 191.178 179.557 191.686 179.27 192.131C178.983 192.576 178.593 192.946 178.133 193.208C177.672 193.47 177.155 193.617 176.626 193.636L140.915 195.097L140.773 195.079ZM118.378 132.366C118.017 132.362 117.66 132.447 117.34 132.614C117.019 132.781 116.745 133.024 116.542 133.323C116.338 133.621 116.212 133.965 116.173 134.324C116.135 134.683 116.185 135.046 116.321 135.381L138.734 192.58C138.903 193.007 139.2 193.372 139.585 193.623C139.97 193.874 140.423 194 140.883 193.983L176.589 192.521C176.944 192.511 177.292 192.415 177.602 192.241C177.912 192.066 178.174 191.819 178.367 191.521C178.561 191.222 178.678 190.881 178.71 190.527C178.742 190.173 178.688 189.817 178.551 189.489L156.098 133.747C155.935 133.337 155.653 132.985 155.287 132.738C154.921 132.491 154.489 132.36 154.048 132.362L118.378 132.366Z" fill="black"/>
<path d="M127.83 137.445H148.734C149.968 137.447 151.172 137.816 152.195 138.505C153.218 139.194 154.013 140.172 154.478 141.315L172.138 184.921C172.256 185.215 172.301 185.533 172.269 185.848C172.238 186.163 172.131 186.465 171.957 186.73C171.783 186.995 171.548 187.213 171.272 187.367C170.995 187.521 170.686 187.606 170.369 187.614L145.811 188.203C145.426 188.211 145.048 188.105 144.723 187.899C144.398 187.693 144.141 187.396 143.984 187.044L124.292 142.904C124.03 142.314 123.918 141.668 123.969 141.023C124.019 140.379 124.229 139.758 124.581 139.216C124.932 138.674 125.413 138.228 125.981 137.918C126.548 137.609 127.184 137.447 127.83 137.445Z" fill="#382256"/>
<path d="M145.762 188.754C145.278 188.755 144.804 188.614 144.398 188.35C143.991 188.086 143.671 187.71 143.474 187.267L123.783 143.127C123.482 142.453 123.354 141.714 123.412 140.978C123.469 140.242 123.71 139.532 124.112 138.913C124.514 138.293 125.065 137.784 125.714 137.432C126.363 137.08 127.09 136.896 127.828 136.897H148.733C150.077 136.893 151.391 137.293 152.506 138.044C153.62 138.795 154.484 139.863 154.984 141.11L172.644 184.713C172.796 185.089 172.854 185.496 172.815 185.899C172.775 186.303 172.638 186.691 172.416 187.03C172.193 187.369 171.892 187.649 171.538 187.846C171.184 188.043 170.788 188.152 170.382 188.162L145.824 188.751L145.762 188.754ZM127.828 137.993C127.273 137.994 126.726 138.132 126.238 138.398C125.75 138.663 125.336 139.045 125.034 139.511C124.731 139.977 124.55 140.511 124.507 141.065C124.463 141.618 124.559 142.174 124.785 142.682L144.476 186.821C144.586 187.071 144.766 187.283 144.994 187.431C145.223 187.58 145.49 187.659 145.762 187.658H145.795L170.353 187.07C170.582 187.065 170.805 187.004 171.005 186.894C171.205 186.783 171.375 186.625 171.5 186.435C171.626 186.244 171.703 186.025 171.725 185.798C171.747 185.57 171.714 185.341 171.629 185.13L153.969 141.523C153.549 140.479 152.825 139.585 151.892 138.957C150.958 138.328 149.858 137.994 148.733 137.997L127.828 137.993Z" fill="#1D1E1B"/>
<path d="M209.41 186.401C209.41 186.401 210.206 159.38 190.34 162.559C190.34 162.559 183.982 160.97 180.006 162.559C180.006 162.559 165.179 145.806 161.462 152.898C158.357 158.821 170.469 170.506 170.469 170.506C170.469 170.506 164.115 185.605 185.571 199.113C207.027 212.622 209.41 186.401 209.41 186.401Z" fill="#FFCDB2"/>
<path d="M196.502 203.531C193.214 203.531 189.458 202.212 185.278 199.577C174.027 192.496 170.453 184.943 169.434 179.846C168.502 175.176 169.459 171.727 169.832 170.642C168.023 168.84 157.942 158.426 160.975 152.635C161.229 152.089 161.619 151.618 162.107 151.265C162.595 150.913 163.165 150.691 163.763 150.622C169.091 149.975 178.466 160.038 180.166 161.909C184.002 160.582 189.487 161.788 190.36 161.993C195.359 161.218 199.521 162.256 202.732 165.077C210.3 171.723 209.975 185.813 209.956 186.409V186.441C209.909 186.942 208.754 198.741 201.26 202.446C199.78 203.172 198.151 203.543 196.502 203.531ZM164.311 151.696C164.173 151.696 164.035 151.703 163.898 151.718C163.477 151.767 163.076 151.925 162.734 152.176C162.392 152.427 162.121 152.763 161.947 153.15C159.068 158.631 170.716 169.999 170.852 170.112L171.122 170.371L170.976 170.737C170.976 170.773 169.456 174.471 170.523 179.725C171.513 184.585 174.981 191.816 185.87 198.668C191.884 202.457 196.897 203.418 200.778 201.488C207.603 198.12 208.816 186.873 208.867 186.383C208.867 185.817 209.079 172.133 202.013 165.921C199.035 163.305 195.139 162.362 190.43 163.115L190.32 163.133L190.21 163.107C190.148 163.107 183.977 161.58 180.217 163.082L179.852 163.228L179.596 162.935C179.493 162.807 169.591 151.696 164.311 151.696Z" fill="#1D1E1B"/>
<path d="M126.442 223.46C126.442 223.46 129.836 209.882 126.442 200.549C123.047 191.217 113.715 175.944 126.442 162.365L134.079 181.881C134.079 181.881 136.637 164.912 142.563 166.608C148.49 168.303 146.806 178.487 145.958 184.428C145.11 190.369 155.294 187.823 150.2 204.792" fill="#FFCDB2"/>
<path d="M126.976 223.591L125.913 223.328C125.946 223.193 129.223 209.809 125.913 200.736C125.441 199.442 124.853 198.021 124.225 196.515C120.264 186.982 114.838 173.927 126.03 161.989L126.621 161.357L133.867 179.872C134.58 176.258 136.425 168.691 139.769 166.546C140.192 166.258 140.673 166.068 141.178 165.988C141.684 165.907 142.2 165.939 142.692 166.082C148.878 167.85 147.442 177.869 146.569 183.858L146.477 184.505C146.214 186.332 147.142 187.22 148.425 188.426C150.807 190.662 154.07 193.72 150.701 204.949L149.652 204.634C152.824 194.056 149.97 191.378 147.676 189.222C146.324 187.954 145.048 186.756 145.392 184.351L145.483 183.701C146.298 178.066 147.676 168.639 142.388 167.134C142.046 167.033 141.685 167.011 141.333 167.069C140.98 167.128 140.645 167.265 140.353 167.47C136.436 169.988 134.613 181.845 134.595 181.962L134.291 183.993L126.227 163.389C116.31 174.635 121.451 187.015 125.229 196.095C125.858 197.612 126.454 199.044 126.932 200.363C130.371 209.746 127.115 223.032 126.976 223.591Z" fill="#1D1E1B"/>
<path d="M253.722 174.245C232.24 174.245 200.45 171.88 158.024 216.006L128.062 213.813L124.408 223.314C124.408 223.314 102.484 218.564 113.08 263.142C120.1 292.677 161.232 281.16 189.236 259.097L183.295 292.191H311.425C311.425 292.191 319.062 174.245 253.722 174.245Z" fill="#07ACEE"/>
<path d="M311.939 292.739H182.643L188.446 260.409C170.541 274.129 144.035 285.862 126.763 279.848C119.331 277.261 114.548 271.681 112.549 263.27C108.073 244.43 108.731 231.889 114.511 225.999C115.742 224.753 117.244 223.807 118.9 223.237C120.556 222.666 122.322 222.486 124.059 222.711L127.713 213.247L157.825 215.439C175.701 196.888 193.192 184.903 211.29 178.797C226.794 173.565 240.01 173.634 250.625 173.682H253.739C266.962 173.682 278.22 178.516 287.139 188.053C302.424 204.357 308.362 231.827 310.656 251.997C312.157 265.346 312.602 278.793 311.986 292.213L311.939 292.739ZM183.951 291.643H310.909C311.469 278.452 311.015 265.238 309.549 252.118C307.276 232.116 301.401 204.898 286.321 188.816C277.599 179.51 266.633 174.793 253.724 174.793H250.607C228.683 174.683 198.68 174.529 158.421 216.397L158.242 216.583L128.429 214.391L124.753 223.949L124.293 223.851C124.242 223.851 119.152 222.809 115.282 226.774C111.511 230.636 108.157 240.06 113.616 263.018C115.523 271.056 120.069 276.358 127.136 278.817C141.92 283.962 167.329 275.678 188.909 258.669L190.042 257.778L183.951 291.643Z" fill="#1D1D1B"/>
<path d="M305.765 231.656C298.76 226.928 292.212 223.416 292.212 223.416L237.64 179.156C237.64 179.156 229.156 190.987 235.641 201.445C242.127 211.902 263.748 217.303 266.989 224.509C270.23 231.714 272.346 259.316 309.485 255.966C308.74 247.794 307.498 239.676 305.765 231.656Z" fill="#0598C6"/>
<path d="M175.931 177.456C175.852 177.456 175.773 177.439 175.702 177.405C175.63 177.372 175.566 177.323 175.515 177.263L170.034 170.861C169.939 170.75 169.892 170.606 169.904 170.461C169.916 170.315 169.985 170.181 170.096 170.086C170.207 169.992 170.35 169.945 170.496 169.957C170.641 169.968 170.776 170.037 170.87 170.148L176.329 176.554C176.397 176.633 176.44 176.731 176.454 176.834C176.468 176.938 176.453 177.043 176.409 177.138C176.365 177.233 176.295 177.313 176.207 177.369C176.119 177.426 176.017 177.456 175.913 177.456H175.931Z" fill="#1D1D1B"/>
<path d="M185.795 170.879C185.695 170.879 185.597 170.852 185.512 170.801C185.426 170.749 185.356 170.675 185.309 170.587C184.151 168.365 182.291 166.107 179.587 162.914C179.493 162.803 179.447 162.659 179.459 162.514C179.471 162.369 179.54 162.235 179.651 162.141C179.762 162.047 179.906 162.001 180.051 162.013C180.195 162.025 180.33 162.094 180.424 162.205C183.175 165.457 185.068 167.759 186.27 170.075C186.334 170.203 186.346 170.351 186.303 170.487C186.26 170.624 186.166 170.738 186.04 170.806C185.965 170.85 185.881 170.875 185.795 170.879Z" fill="#1D1D1B"/>
<path d="M196.027 169.783C195.931 169.782 195.837 169.757 195.754 169.71C195.671 169.663 195.601 169.594 195.552 169.513C194.044 167.054 192.161 164.846 189.972 162.968C189.919 162.92 189.875 162.862 189.843 162.797C189.812 162.732 189.794 162.662 189.79 162.59C189.786 162.518 189.796 162.446 189.82 162.378C189.844 162.31 189.88 162.247 189.928 162.194C189.976 162.14 190.035 162.096 190.1 162.065C190.165 162.034 190.235 162.015 190.307 162.011C190.379 162.007 190.451 162.017 190.519 162.041C190.587 162.065 190.649 162.102 190.703 162.15C192.978 164.105 194.936 166.401 196.506 168.957C196.578 169.084 196.598 169.233 196.561 169.374C196.524 169.515 196.433 169.635 196.308 169.71C196.222 169.758 196.125 169.783 196.027 169.783Z" fill="#1D1D1B"/>
<path d="M189.237 259.645C189.123 259.646 189.011 259.61 188.918 259.544C188.825 259.478 188.755 259.385 188.718 259.277C188.68 259.169 188.677 259.052 188.71 258.943C188.742 258.833 188.808 258.736 188.897 258.666L216.05 237.455C216.106 237.408 216.172 237.372 216.242 237.351C216.312 237.33 216.385 237.323 216.458 237.331C216.531 237.338 216.602 237.361 216.666 237.396C216.73 237.432 216.787 237.48 216.832 237.538C216.877 237.595 216.911 237.662 216.93 237.732C216.949 237.803 216.954 237.877 216.944 237.95C216.934 238.022 216.909 238.092 216.872 238.156C216.835 238.219 216.785 238.273 216.726 238.317L189.573 259.532C189.477 259.605 189.358 259.645 189.237 259.645Z" fill="#1D1D1B"/>
<path d="M135.652 238.313C135.544 238.311 135.439 238.277 135.35 238.216C135.262 238.154 135.193 238.067 135.154 237.966C135.115 237.866 135.107 237.756 135.13 237.65C135.154 237.545 135.208 237.449 135.287 237.374L157.941 215.538C157.993 215.486 158.054 215.444 158.122 215.416C158.189 215.387 158.262 215.373 158.336 215.373C158.409 215.374 158.481 215.389 158.549 215.417C158.616 215.446 158.677 215.488 158.728 215.541C158.779 215.594 158.818 215.656 158.845 215.725C158.871 215.793 158.884 215.867 158.881 215.94C158.879 216.013 158.861 216.085 158.83 216.152C158.8 216.218 158.756 216.278 158.701 216.327L136.047 238.16C135.995 238.211 135.933 238.251 135.865 238.277C135.798 238.304 135.725 238.316 135.652 238.313Z" fill="#1D1D1B"/>
<path d="M248.379 117.865C255.555 117.449 261.034 111.284 260.617 104.096C260.2 96.9079 254.045 91.4181 246.869 91.8344C239.692 92.2507 234.213 98.4154 234.63 105.604C235.047 112.792 241.203 118.282 248.379 117.865Z" fill="#382256"/>
<path d="M247.506 118.715C244.155 118.724 240.918 117.494 238.418 115.261C235.918 113.029 234.331 109.952 233.962 106.621C233.592 103.289 234.467 99.9392 236.417 97.2133C238.367 94.4875 241.256 92.5782 244.528 91.8523C247.8 91.1263 251.224 91.6348 254.144 93.2801C257.064 94.9255 259.273 97.5916 260.347 100.766C261.421 103.941 261.285 107.401 259.963 110.481C258.642 113.561 256.229 116.045 253.189 117.454C251.408 118.28 249.469 118.71 247.506 118.715ZM247.506 92.6257C244.379 92.6184 241.363 93.783 239.052 95.8896C236.74 97.9963 235.303 100.892 235.021 104.007C234.739 107.121 235.634 110.228 237.53 112.715C239.426 115.202 242.185 116.889 245.262 117.443C248.34 117.997 251.514 117.378 254.157 115.708C256.801 114.037 258.723 111.438 259.545 108.42C260.367 105.403 260.029 102.187 258.597 99.4071C257.165 96.6269 254.744 94.4838 251.811 93.4004C250.427 92.8875 248.964 92.6252 247.488 92.6257H247.506Z" fill="#1D1E1B"/>
<path d="M209.798 144.384C209.798 144.384 201.029 136.211 205.147 128.208C209.265 120.206 211.359 120.977 213.266 116.618C215.173 112.259 223.234 108.086 230.396 110.428C230.396 110.428 239.593 103.993 247.639 106.365C255.685 108.736 258.389 112.704 260.486 119.132C262.584 125.559 264.791 128.457 266.417 132.926C268.043 137.394 270.286 149.869 252.744 158.416C235.201 166.962 209.798 144.384 209.798 144.384Z" fill="#382256"/>
<path d="M243.93 160.871C238.2 160.871 231.612 158.931 224.432 155.087C219.095 152.184 214.074 148.735 209.451 144.793C209.36 144.709 200.415 136.243 204.701 127.963C207.025 123.454 208.72 121.675 210.094 120.242C211.157 119.146 211.998 118.255 212.802 116.406C213.821 114.067 216.393 111.864 219.689 110.508C223.058 109.062 226.823 108.823 230.348 109.832C231.857 108.831 240.239 103.621 247.836 105.846C256.098 108.279 258.933 112.5 261.045 118.971C262.016 121.896 263.213 124.742 264.626 127.481C265.507 129.191 266.29 130.949 266.972 132.746C268.379 136.605 271.528 149.902 253.025 158.916C250.183 160.257 247.071 160.926 243.93 160.871ZM210.167 143.979C210.657 144.41 235.577 166.169 252.502 157.922C270.184 149.31 267.227 136.755 265.901 133.112C265.232 131.353 264.465 129.633 263.603 127.96C262.165 125.172 260.943 122.278 259.949 119.303C257.902 113.033 255.308 109.197 247.471 106.88C239.775 104.611 230.787 110.804 230.695 110.866L230.472 111.024L230.213 110.936C223.153 108.63 215.484 112.851 213.77 116.822C212.889 118.854 211.943 119.841 210.847 120.984C209.528 122.362 207.887 124.079 205.633 128.449C201.781 135.929 209.944 143.763 210.167 143.979Z" fill="#1D1E1B"/>
<path d="M242.559 137.011H242.599C248.398 137.277 254.222 131.855 254.471 131.621C254.52 131.581 254.561 131.531 254.591 131.474C254.62 131.417 254.637 131.355 254.642 131.291C254.646 131.227 254.637 131.163 254.615 131.103C254.594 131.043 254.56 130.988 254.516 130.941C254.472 130.895 254.419 130.858 254.36 130.833C254.301 130.808 254.238 130.795 254.174 130.796C254.11 130.797 254.047 130.811 253.988 130.837C253.93 130.863 253.878 130.901 253.835 130.949C253.776 131 248.043 136.331 242.643 136.086C242.582 136.083 242.521 136.091 242.464 136.112C242.406 136.132 242.354 136.163 242.308 136.204C242.263 136.245 242.226 136.294 242.2 136.349C242.174 136.404 242.16 136.464 242.157 136.525C242.151 136.641 242.189 136.756 242.264 136.846C242.338 136.935 242.443 136.994 242.559 137.011Z" fill="black"/>
<path d="M232.969 166.582L231.471 175.812C231.471 175.812 242.824 185.042 256.654 171.062C256.654 171.062 251.363 163.389 248.82 148.466C248.82 148.466 255.375 147.607 254.849 141.757C254.323 135.907 249.777 134.529 246.912 135.856C246.912 135.856 235.585 142.4 226.597 119.146C226.597 119.146 214.838 122.848 211.484 134.409C208.129 145.97 209.291 159.797 217.977 164.481C226.662 169.165 232.969 166.582 232.969 166.582Z" fill="#FFCDB2"/>
<path d="M240.821 179.345C240.148 179.346 239.476 179.306 238.808 179.225C236.034 178.911 233.389 177.881 231.134 176.236L230.89 176.039L232.296 167.375C230.221 167.923 224.743 168.756 217.728 164.967C208.421 159.943 207.701 145.528 210.968 134.274C214.362 122.581 226.315 118.678 226.443 118.638L226.932 118.485L227.119 118.964C230.659 128.117 235.117 133.876 240.006 135.615C243.817 136.97 246.624 135.414 246.649 135.399L246.693 135.377C247.54 134.999 248.465 134.826 249.391 134.873C250.317 134.92 251.22 135.186 252.024 135.648C253.953 136.762 255.152 138.936 255.408 141.724C255.879 146.96 251.125 148.532 249.463 148.915C251.988 163.188 257.063 170.693 257.114 170.77L257.373 171.135L257.055 171.46C250.803 177.756 245.041 179.345 240.821 179.345ZM232.051 175.571C234.128 176.967 236.508 177.844 238.994 178.129C244.669 178.805 250.522 176.335 255.949 170.978C254.852 169.239 250.526 161.748 248.275 148.546L248.18 147.983L248.747 147.91C248.991 147.877 254.772 147.044 254.301 141.794C254.019 138.669 252.601 137.226 251.461 136.568C250.813 136.193 250.085 135.976 249.337 135.935C248.589 135.894 247.842 136.031 247.157 136.335C246.828 136.514 243.795 138.088 239.659 136.631C234.463 134.804 229.961 129.147 226.278 119.822C224.064 120.67 214.852 124.726 212.006 134.544C208.758 145.747 209.854 159.457 218.218 163.98C226.541 168.475 232.684 166.078 232.742 166.052L233.648 165.687L232.051 175.571Z" fill="#1D1E1B"/>
<path d="M249.032 145.755C249.116 145.766 249.201 145.754 249.278 145.721C249.355 145.687 249.422 145.633 249.471 145.565C250.932 143.54 251.382 141.804 250.812 140.401C249.99 138.384 247.381 137.906 247.268 137.887C247.209 137.876 247.148 137.877 247.089 137.889C247.03 137.902 246.975 137.926 246.925 137.96C246.876 137.994 246.833 138.037 246.8 138.087C246.767 138.137 246.745 138.194 246.734 138.253C246.712 138.372 246.739 138.495 246.807 138.595C246.876 138.694 246.98 138.763 247.099 138.786C247.128 138.786 249.321 139.203 249.946 140.745C250.384 141.841 249.968 143.266 248.707 145.013C248.636 145.113 248.607 145.237 248.626 145.358C248.646 145.479 248.713 145.588 248.813 145.659C248.876 145.71 248.952 145.743 249.032 145.755Z" fill="black"/>
<path d="M221.561 138.622C227.042 140.186 233.619 137.785 235.205 140.058C236.791 142.331 236.411 145.265 233.703 145.871C230.996 146.478 228.164 146.237 222.31 145.44C216.456 144.644 210.665 143.339 210.676 139.714C210.687 136.09 213.522 136.32 221.561 138.622Z" fill="#FFB49F"/>
<path d="M251.718 150.331C252.892 150.263 253.789 149.254 253.72 148.078C253.652 146.901 252.645 146.003 251.47 146.071C250.296 146.139 249.399 147.148 249.467 148.324C249.536 149.501 250.543 150.399 251.718 150.331Z" fill="#07ACEE"/>
<path d="M251.466 146.343C251.952 146.343 252.423 146.509 252.802 146.814C253.181 147.119 253.444 147.543 253.549 148.018C253.653 148.493 253.592 148.989 253.376 149.425C253.16 149.86 252.802 150.209 252.361 150.413C252.082 150.544 251.777 150.611 251.469 150.611C250.983 150.61 250.511 150.444 250.133 150.139C249.754 149.835 249.49 149.41 249.386 148.935C249.282 148.46 249.342 147.964 249.558 147.529C249.774 147.093 250.133 146.744 250.574 146.54C250.853 146.41 251.158 146.342 251.466 146.343ZM251.466 145.247C250.998 145.245 250.536 145.347 250.114 145.546C249.446 145.856 248.904 146.383 248.578 147.043C248.251 147.702 248.16 148.452 248.318 149.171C248.476 149.889 248.874 150.532 249.447 150.993C250.02 151.454 250.734 151.706 251.469 151.707C251.937 151.708 252.398 151.606 252.821 151.407C253.489 151.098 254.03 150.57 254.357 149.911C254.683 149.252 254.775 148.501 254.617 147.782C254.459 147.064 254.061 146.421 253.488 145.96C252.914 145.499 252.201 145.247 251.466 145.247Z" fill="#1D1D1B"/>
<path d="M214.531 141.112C215.196 141.073 215.704 140.501 215.665 139.834C215.627 139.168 215.056 138.658 214.391 138.697C213.726 138.735 213.219 139.307 213.258 139.974C213.296 140.641 213.866 141.15 214.531 141.112Z" fill="black"/>
<path d="M228.488 143.219C229.153 143.181 229.661 142.609 229.622 141.942C229.583 141.275 229.013 140.766 228.348 140.804C227.683 140.843 227.176 141.415 227.215 142.082C227.253 142.749 227.823 143.258 228.488 143.219Z" fill="black"/>
<path d="M218.842 157.531C218.696 157.531 218.55 157.531 218.4 157.513C216.716 157.37 215.25 156.417 214.048 154.659C214.005 154.6 213.973 154.533 213.956 154.461C213.939 154.39 213.937 154.316 213.949 154.243C213.961 154.171 213.988 154.102 214.027 154.04C214.067 153.978 214.118 153.924 214.179 153.883C214.239 153.841 214.307 153.812 214.379 153.797C214.451 153.783 214.526 153.782 214.598 153.797C214.67 153.811 214.738 153.84 214.799 153.882C214.859 153.923 214.911 153.976 214.951 154.038C215.959 155.5 217.143 156.304 218.492 156.42C221.177 156.654 223.706 154.107 223.731 154.082C223.78 154.024 223.84 153.977 223.907 153.943C223.975 153.909 224.048 153.89 224.124 153.886C224.199 153.883 224.275 153.894 224.345 153.921C224.416 153.948 224.48 153.989 224.534 154.042C224.588 154.094 224.631 154.158 224.659 154.228C224.687 154.298 224.701 154.373 224.699 154.448C224.697 154.524 224.68 154.598 224.648 154.666C224.616 154.735 224.57 154.796 224.513 154.846C224.404 154.962 221.864 157.531 218.842 157.531Z" fill="#1D1D1B"/>
<path d="M216.467 148.626C216.407 148.626 216.348 148.616 216.291 148.597C216.223 148.574 216.159 148.538 216.105 148.49C216.051 148.442 216.006 148.385 215.974 148.32C215.942 148.255 215.924 148.184 215.919 148.112C215.915 148.04 215.924 147.967 215.948 147.899L219.39 137.767C219.414 137.699 219.451 137.636 219.499 137.582C219.547 137.528 219.606 137.485 219.671 137.453C219.736 137.422 219.807 137.404 219.879 137.4C219.951 137.396 220.023 137.407 220.092 137.431C220.16 137.455 220.222 137.492 220.276 137.54C220.33 137.588 220.374 137.647 220.405 137.712C220.436 137.777 220.454 137.847 220.458 137.92C220.462 137.992 220.452 138.064 220.428 138.132L216.986 148.265C216.947 148.371 216.877 148.463 216.784 148.528C216.691 148.593 216.58 148.627 216.467 148.626Z" fill="#1D1D1B"/>
<path d="M209.926 130.072C209.809 130.07 209.696 130.032 209.602 129.962C209.509 129.892 209.44 129.794 209.406 129.682C209.372 129.571 209.375 129.451 209.414 129.341C209.453 129.231 209.526 129.136 209.623 129.07C209.849 128.917 215.224 125.369 217.837 128.95C217.923 129.068 217.958 129.214 217.935 129.358C217.913 129.502 217.834 129.631 217.716 129.717C217.598 129.803 217.451 129.838 217.307 129.816C217.163 129.793 217.034 129.714 216.949 129.597C214.957 126.863 210.277 129.962 210.233 129.962C210.144 130.028 210.037 130.066 209.926 130.072Z" fill="black"/>
<path d="M230.241 131.014C230.162 131.014 230.084 130.997 230.012 130.964C229.941 130.931 229.877 130.884 229.825 130.824C226.503 126.98 223.957 129.078 223.851 129.169C223.741 129.266 223.597 129.315 223.451 129.307C223.305 129.298 223.169 129.231 223.072 129.122C222.975 129.012 222.926 128.869 222.935 128.723C222.944 128.577 223.01 128.44 223.12 128.343C223.97 127.674 225.041 127.348 226.12 127.43C227.68 127.536 229.2 128.438 230.643 130.108C230.712 130.187 230.756 130.285 230.771 130.389C230.786 130.492 230.771 130.598 230.727 130.694C230.684 130.789 230.614 130.87 230.526 130.927C230.437 130.984 230.335 131.014 230.23 131.014H230.241Z" fill="black"/>
<path d="M232.016 166.86C232.016 166.86 237.277 165.223 240.054 162.866L232.016 166.86Z" fill="#4BD657"/>
<path d="M232.016 167.419C231.886 167.418 231.76 167.37 231.661 167.285C231.563 167.199 231.498 167.081 231.479 166.952C231.459 166.823 231.487 166.691 231.556 166.581C231.625 166.47 231.731 166.388 231.855 166.348C231.906 166.33 237.04 164.715 239.715 162.457C239.826 162.364 239.97 162.318 240.114 162.33C240.259 162.343 240.392 162.412 240.486 162.523C240.533 162.577 240.569 162.641 240.591 162.709C240.613 162.778 240.622 162.85 240.615 162.922C240.609 162.994 240.589 163.064 240.555 163.128C240.522 163.191 240.476 163.248 240.42 163.294C237.577 165.698 232.382 167.313 232.181 167.393C232.128 167.411 232.072 167.419 232.016 167.419Z" fill="black"/>
<path d="M245.357 132.728C235.126 132.728 230.639 119.939 230.453 119.391C230.377 119.163 230.394 118.914 230.501 118.698C230.608 118.483 230.796 118.318 231.024 118.24C231.251 118.162 231.5 118.177 231.717 118.282C231.934 118.386 232.101 118.572 232.181 118.799C232.225 118.924 236.492 131.08 245.576 130.898C245.818 130.892 246.053 130.983 246.228 131.151C246.403 131.318 246.505 131.549 246.51 131.791C246.515 132.033 246.424 132.268 246.257 132.443C246.089 132.618 245.859 132.719 245.617 132.725L245.357 132.728Z" fill="white"/>
<path d="M256.817 105.356C256.607 105.355 256.404 105.282 256.242 105.149C256.079 105.016 255.968 104.831 255.926 104.625C255.235 101.421 253.814 99.2065 251.709 98.0482C248.227 96.1189 243.919 97.6352 243.879 97.6498C243.766 97.6908 243.646 97.7093 243.526 97.704C243.407 97.6988 243.289 97.67 243.18 97.6193C243.071 97.5686 242.973 97.4969 242.892 97.4084C242.811 97.3199 242.748 97.2164 242.707 97.1037C242.666 96.9909 242.648 96.871 242.653 96.7511C242.658 96.6312 242.687 96.5137 242.738 96.405C242.789 96.2963 242.861 96.1984 242.949 96.1174C243.038 96.0363 243.141 95.9736 243.254 95.9326C243.458 95.8595 248.369 94.1055 252.579 96.4441C255.177 97.8764 256.901 100.5 257.694 104.249C257.721 104.367 257.724 104.489 257.703 104.609C257.683 104.728 257.638 104.842 257.573 104.944C257.507 105.046 257.423 105.134 257.323 105.203C257.223 105.272 257.111 105.32 256.993 105.345C256.935 105.355 256.876 105.359 256.817 105.356Z" fill="white"/>
<path d="M209.477 147.768C207.872 147.766 206.302 147.294 204.962 146.41C203.621 145.527 202.569 144.27 201.935 142.795C201.301 141.32 201.112 139.692 201.392 138.111C201.672 136.531 202.409 135.066 203.512 133.9C204.614 132.733 206.034 131.914 207.597 131.545C209.159 131.176 210.795 131.272 212.303 131.822C213.812 132.372 215.126 133.352 216.084 134.64C217.042 135.928 217.602 137.469 217.695 139.071C217.818 141.247 217.073 143.383 215.623 145.01C214.174 146.638 212.138 147.624 209.963 147.753C209.798 147.76 209.638 147.768 209.477 147.768ZM209.495 132.421C209.357 132.421 209.214 132.421 209.075 132.421C207.194 132.476 205.41 133.27 204.108 134.629C202.807 135.989 202.093 137.807 202.12 139.689C202.148 141.571 202.915 143.366 204.256 144.687C205.596 146.008 207.403 146.749 209.285 146.749C211.167 146.749 212.974 146.008 214.315 144.687C215.655 143.366 216.422 141.571 216.45 139.689C216.477 137.807 215.764 135.989 214.462 134.629C213.161 133.27 211.377 132.476 209.495 132.421Z" fill="#1D1E1B"/>
<path d="M228.254 149.606C226.649 149.605 225.079 149.133 223.738 148.25C222.397 147.367 221.344 146.11 220.709 144.636C220.074 143.161 219.885 141.533 220.165 139.952C220.445 138.371 221.181 136.906 222.284 135.739C223.386 134.572 224.806 133.753 226.369 133.384C227.931 133.014 229.568 133.11 231.076 133.66C232.585 134.21 233.899 135.19 234.857 136.478C235.815 137.766 236.375 139.307 236.468 140.909C236.531 141.987 236.381 143.067 236.026 144.087C235.671 145.107 235.119 146.047 234.401 146.854C233.683 147.66 232.814 148.318 231.842 148.788C230.87 149.258 229.814 149.532 228.736 149.595C228.576 149.602 228.415 149.606 228.254 149.606ZM228.254 134.259C228.115 134.259 227.976 134.259 227.837 134.259C226.43 134.34 225.079 134.837 223.954 135.686C222.83 136.535 221.982 137.699 221.519 139.03C221.055 140.361 220.997 141.799 221.351 143.163C221.705 144.527 222.456 145.756 223.509 146.693C224.561 147.631 225.868 148.235 227.264 148.43C228.659 148.624 230.081 148.401 231.35 147.787C232.619 147.173 233.677 146.197 234.391 144.982C235.105 143.767 235.443 142.368 235.361 140.961C235.252 139.151 234.457 137.451 233.139 136.206C231.821 134.961 230.078 134.265 228.265 134.259H228.254Z" fill="#1D1E1B"/>
<path d="M235.777 142.294C235.655 142.295 235.536 142.254 235.44 142.18C235.343 142.105 235.274 142 235.244 141.882C235.213 141.763 235.223 141.638 235.273 141.526C235.322 141.414 235.407 141.322 235.514 141.264L246.633 135.216C246.761 135.147 246.911 135.131 247.051 135.173C247.19 135.214 247.308 135.309 247.377 135.437C247.446 135.565 247.462 135.716 247.421 135.855C247.379 135.994 247.284 136.112 247.156 136.181L236.037 142.228C235.957 142.271 235.868 142.294 235.777 142.294Z" fill="#1D1E1B"/>
<path d="M220.59 141.841C220.489 141.842 220.389 141.814 220.303 141.761C220.216 141.708 220.146 141.632 220.101 141.541C219.509 140.379 217.272 140.88 217.247 140.887C217.177 140.904 217.104 140.907 217.033 140.896C216.962 140.884 216.894 140.859 216.832 140.821C216.771 140.784 216.717 140.735 216.675 140.676C216.633 140.618 216.602 140.552 216.585 140.482C216.569 140.412 216.566 140.339 216.577 140.268C216.588 140.197 216.614 140.129 216.651 140.067C216.689 140.006 216.738 139.952 216.797 139.91C216.855 139.868 216.921 139.837 216.991 139.82C217.115 139.791 220.086 139.09 221.076 141.044C221.14 141.174 221.15 141.323 221.105 141.459C221.06 141.596 220.963 141.71 220.835 141.775C220.76 141.816 220.676 141.839 220.59 141.841Z" fill="#1D1E1B"/>
<path d="M124.773 224.045L146.266 226.142L157.085 216.368L128.427 214.544L124.773 224.045Z" fill="#0598C6"/>
<path d="M226.73 175.571C226.73 175.571 236.402 186.591 246.634 183.303C256.865 180.014 249.096 174.223 249.096 174.223C249.096 174.223 235.306 175.629 232.018 172.341C232.018 172.341 229.482 172.22 226.73 175.571Z" fill="white"/>
<path d="M231.982 172.341H232.015C233.787 174.113 238.593 174.533 242.681 174.533C246.164 174.533 249.094 174.234 249.094 174.234C249.094 174.234 256.862 180.014 246.631 183.303C245.36 183.712 244.032 183.919 242.696 183.917C234.051 183.917 226.728 175.571 226.728 175.571C229.286 172.443 231.676 172.341 231.982 172.341ZM231.982 171.245C231.46 171.245 228.719 171.42 225.88 174.873C225.716 175.074 225.628 175.327 225.633 175.587C225.638 175.846 225.734 176.096 225.906 176.291C226.217 176.656 233.66 185.013 242.696 185.013C244.146 185.013 245.586 184.789 246.967 184.348C250.588 183.182 252.606 181.512 252.96 179.386C253.493 176.177 249.902 173.459 249.748 173.346C249.559 173.204 249.33 173.127 249.094 173.126H248.981C248.955 173.126 246.058 173.419 242.681 173.419C237.566 173.419 233.974 172.739 232.79 171.559C232.593 171.368 232.333 171.254 232.059 171.237L231.982 171.245Z" fill="black"/>
<path d="M203.516 231.104C205.292 231.104 206.732 229.661 206.732 227.881C206.732 226.101 205.292 224.658 203.516 224.658C201.74 224.658 200.301 226.101 200.301 227.881C200.301 229.661 201.74 231.104 203.516 231.104Z" fill="#51CEF4"/>
<path d="M172.825 223.431C174.601 223.431 176.04 221.988 176.04 220.208C176.04 218.428 174.601 216.985 172.825 216.985C171.049 216.985 169.609 218.428 169.609 220.208C169.609 221.988 171.049 223.431 172.825 223.431Z" fill="#51CEF4"/>
<path d="M167.344 262.163C169.12 262.163 170.56 260.72 170.56 258.94C170.56 257.16 169.12 255.717 167.344 255.717C165.568 255.717 164.129 257.16 164.129 258.94C164.129 260.72 165.568 262.163 167.344 262.163Z" fill="#51CEF4"/>
<path d="M225.805 197.853C227.581 197.853 229.021 196.41 229.021 194.63C229.021 192.85 227.581 191.407 225.805 191.407C224.029 191.407 222.59 192.85 222.59 194.63C222.59 196.41 224.029 197.853 225.805 197.853Z" fill="#51CEF4"/>
<path d="M253.575 245.72C255.351 245.72 256.79 244.277 256.79 242.497C256.79 240.717 255.351 239.274 253.575 239.274C251.799 239.274 250.359 240.717 250.359 242.497C250.359 244.277 251.799 245.72 253.575 245.72Z" fill="#51CEF4"/>
<path d="M216.305 280.067C218.081 280.067 219.521 278.624 219.521 276.844C219.521 275.064 218.081 273.622 216.305 273.622C214.529 273.622 213.09 275.064 213.09 276.844C213.09 278.624 214.529 280.067 216.305 280.067Z" fill="#51CEF4"/>
<path d="M286.098 282.259C287.874 282.259 289.314 280.817 289.314 279.037C289.314 277.257 287.874 275.814 286.098 275.814C284.322 275.814 282.883 277.257 282.883 279.037C282.883 280.817 284.322 282.259 286.098 282.259Z" fill="#51CEF4"/>
<path d="M122.766 240.97C124.542 240.97 125.982 239.527 125.982 237.747C125.982 235.967 124.542 234.524 122.766 234.524C120.99 234.524 119.551 235.967 119.551 237.747C119.551 239.527 120.99 240.97 122.766 240.97Z" fill="#51CEF4"/>
<path d="M126.782 270.201C128.558 270.201 129.997 268.758 129.997 266.979C129.997 265.199 128.558 263.756 126.782 263.756C125.006 263.756 123.566 265.199 123.566 266.979C123.566 268.758 125.006 270.201 126.782 270.201Z" fill="#51CEF4"/>
<path d="M139.758 162.11C139.64 162.109 139.524 162.087 139.414 162.044C139.19 161.952 139.011 161.776 138.916 161.552C138.822 161.329 138.82 161.078 138.91 160.853L146.583 141.852C146.674 141.627 146.851 141.448 147.075 141.353C147.298 141.259 147.55 141.257 147.775 141.348C148 141.439 148.179 141.616 148.273 141.839C148.368 142.063 148.37 142.314 148.279 142.539L140.606 161.54C140.537 161.708 140.419 161.852 140.268 161.954C140.117 162.055 139.94 162.11 139.758 162.11Z" fill="white"/>
<path d="M145.238 159.552C145.09 159.552 144.945 159.516 144.814 159.448C144.683 159.379 144.571 159.28 144.487 159.158C144.403 159.037 144.349 158.897 144.331 158.751C144.313 158.604 144.331 158.455 144.383 158.317L146.575 152.471C146.617 152.358 146.681 152.255 146.763 152.168C146.845 152.08 146.944 152.01 147.053 151.96C147.162 151.911 147.28 151.883 147.4 151.879C147.52 151.875 147.639 151.895 147.752 151.937C147.864 151.979 147.967 152.043 148.054 152.125C148.142 152.207 148.213 152.306 148.262 152.415C148.312 152.524 148.339 152.642 148.343 152.762C148.347 152.882 148.327 153.001 148.285 153.114L146.093 158.96C146.027 159.134 145.91 159.283 145.757 159.389C145.605 159.495 145.423 159.551 145.238 159.552Z" fill="white"/>
<path d="M152.181 135.07H135.738C135.495 135.07 135.263 134.974 135.092 134.803C134.921 134.631 134.824 134.399 134.824 134.157C134.824 133.915 134.921 133.682 135.092 133.511C135.263 133.34 135.495 133.243 135.738 133.243H152.181C152.423 133.243 152.655 133.34 152.826 133.511C152.998 133.682 153.094 133.915 153.094 134.157C153.094 134.399 152.998 134.631 152.826 134.803C152.655 134.974 152.423 135.07 152.181 135.07Z" fill="white"/>
<path d="M182.141 170.148C181.98 170.148 181.821 170.105 181.682 170.024C181.543 169.942 181.427 169.825 181.348 169.684C175.356 159.113 164.573 153.852 164.463 153.797C164.259 153.684 164.106 153.497 164.035 153.275C163.965 153.053 163.981 152.812 164.082 152.602C164.183 152.392 164.36 152.229 164.578 152.145C164.795 152.061 165.037 152.064 165.253 152.153C165.717 152.372 176.656 157.699 182.934 168.785C183.014 168.924 183.055 169.081 183.055 169.241C183.055 169.401 183.012 169.558 182.931 169.696C182.851 169.834 182.736 169.949 182.597 170.028C182.458 170.108 182.301 170.149 182.141 170.148Z" fill="white"/>
<path d="M193.104 170.879C192.912 170.88 192.725 170.82 192.57 170.707C192.414 170.595 192.298 170.437 192.238 170.254C191.251 167.298 187.853 164.89 187.827 164.868C187.629 164.729 187.494 164.517 187.451 164.278C187.409 164.04 187.464 163.794 187.603 163.595C187.742 163.396 187.954 163.261 188.193 163.219C188.432 163.177 188.678 163.231 188.876 163.37C189.037 163.484 192.793 166.144 193.97 169.677C194.008 169.791 194.024 169.911 194.015 170.031C194.007 170.15 193.975 170.267 193.921 170.375C193.868 170.482 193.794 170.578 193.703 170.656C193.612 170.735 193.507 170.794 193.393 170.832C193.3 170.864 193.202 170.88 193.104 170.879Z" fill="white"/>
<path d="M143.957 184.297C143.902 184.302 143.847 184.302 143.792 184.297C143.555 184.252 143.344 184.115 143.207 183.916C143.07 183.717 143.018 183.471 143.062 183.233C144.936 172.922 142.718 169.845 142.696 169.816C142.62 169.724 142.563 169.618 142.528 169.503C142.493 169.389 142.481 169.269 142.493 169.15C142.505 169.031 142.54 168.915 142.597 168.81C142.654 168.705 142.731 168.612 142.824 168.537C143.013 168.384 143.254 168.312 143.495 168.336C143.737 168.36 143.959 168.478 144.114 168.665C144.406 169.03 146.887 172.399 144.845 183.562C144.804 183.768 144.693 183.953 144.531 184.087C144.37 184.221 144.167 184.295 143.957 184.297Z" fill="white"/>
<path d="M250.013 154.265C252.074 161.627 250.013 169.286 242.65 179.006C235.288 188.725 239.113 201.094 253.247 207.872C267.38 214.65 275.335 217.296 275.927 225.835C276.519 234.374 279.289 240.637 287.985 247.028C312.43 264.991 335.512 239.077 320.977 217.091C306.726 195.533 294.668 207.225 292.841 181.648C290.989 155.704 252.121 169.224 263.975 149.493" fill="#382256"/>
<path d="M304.532 253.601C298.953 253.601 293.143 251.493 287.677 247.477C278.231 240.535 275.929 233.819 275.381 225.871C274.88 218.637 268.767 215.768 257.67 210.561C256.209 209.874 254.656 209.144 253.011 208.369C245.407 204.715 240.394 199.307 238.892 193.117C237.701 188.203 238.892 183.076 242.21 178.68C249.313 169.304 251.557 161.825 249.482 154.418C249.448 154.28 249.469 154.133 249.541 154.01C249.613 153.887 249.73 153.797 249.868 153.759C250.005 153.721 250.152 153.738 250.277 153.807C250.402 153.875 250.495 153.99 250.537 154.126C252.712 161.89 250.413 169.666 243.084 179.338C239.912 183.529 238.83 188.203 239.959 192.858C241.381 198.704 246.171 203.878 253.479 207.375C255.112 208.157 256.662 208.884 258.127 209.567C269.604 214.95 275.925 217.917 276.466 225.791C276.996 233.435 279.21 239.899 288.32 246.593C300.999 255.911 312.166 252.907 318.385 246.988C324.801 240.882 328.21 229.021 320.53 217.391C314.511 208.285 308.837 205.157 304.276 202.639C297.944 199.146 293.37 196.625 292.303 181.684C291.382 168.771 280.909 165.899 272.494 163.593C267.32 162.172 262.851 160.948 261.554 157.714C260.707 155.595 261.346 152.81 263.509 149.207C263.544 149.142 263.592 149.084 263.65 149.037C263.708 148.991 263.775 148.957 263.846 148.937C263.918 148.917 263.993 148.912 264.066 148.922C264.14 148.932 264.211 148.956 264.275 148.995C264.339 149.033 264.394 149.084 264.438 149.144C264.481 149.204 264.512 149.273 264.528 149.345C264.544 149.418 264.545 149.493 264.532 149.566C264.518 149.639 264.49 149.708 264.448 149.77C262.475 153.059 261.861 155.525 262.574 157.305C263.67 160.034 267.89 161.193 272.783 162.534C281.53 164.934 292.42 167.92 293.399 181.604C294.422 195.953 298.554 198.229 304.806 201.678C309.473 204.255 315.279 207.455 321.443 216.784C329.482 228.93 325.879 241.361 319.141 247.77C315.382 251.344 310.44 253.41 305.256 253.576C305.025 253.598 304.777 253.601 304.532 253.601Z" fill="#1D1E1B"/>
<path d="M318.395 214.04C318.346 214.039 318.299 214.033 318.252 214.021C318.112 213.983 317.993 213.891 317.92 213.765C317.848 213.639 317.828 213.49 317.865 213.349C322.111 197.582 320.748 185.849 313.82 178.472C301.396 165.252 274.963 170.433 274.697 170.503C274.554 170.532 274.406 170.503 274.285 170.423C274.164 170.343 274.079 170.218 274.05 170.075C274.021 169.933 274.05 169.785 274.13 169.663C274.21 169.542 274.335 169.458 274.478 169.428C279.477 168.539 284.557 168.188 289.631 168.383C297.304 168.69 307.9 170.576 314.616 177.719C321.826 185.393 323.276 197.476 318.924 213.634C318.893 213.751 318.824 213.854 318.729 213.927C318.633 214 318.515 214.04 318.395 214.04Z" fill="#1D1D1B"/>
<path d="M325.378 179.649C325.271 179.649 325.166 179.617 325.077 179.559C324.987 179.501 324.917 179.418 324.873 179.32C319.067 165.921 306.706 159.669 288.118 160.736C274.16 161.54 261.758 166.407 261.634 166.454C261.567 166.481 261.496 166.494 261.425 166.492C261.353 166.491 261.282 166.476 261.216 166.447C261.15 166.419 261.091 166.378 261.041 166.326C260.991 166.275 260.952 166.214 260.925 166.147C260.899 166.08 260.886 166.009 260.887 165.938C260.888 165.866 260.903 165.795 260.932 165.729C260.96 165.663 261.002 165.604 261.053 165.554C261.105 165.504 261.166 165.465 261.232 165.438C261.356 165.387 273.9 160.462 288.03 159.643C296.361 159.161 303.615 160.18 309.589 162.665C317.094 165.789 322.575 171.248 325.885 178.881C325.915 178.948 325.931 179.02 325.933 179.093C325.935 179.166 325.922 179.238 325.895 179.306C325.869 179.374 325.829 179.436 325.779 179.489C325.728 179.541 325.668 179.583 325.601 179.612C325.529 179.639 325.454 179.651 325.378 179.649Z" fill="#1D1D1B"/>
<path d="M133.226 287.876C126.715 287.926 120.416 285.557 115.552 281.229C112.106 278.2 109.347 274.47 107.458 270.289C107.431 270.222 107.418 270.151 107.418 270.079C107.418 270.007 107.433 269.936 107.461 269.87C107.489 269.803 107.53 269.743 107.581 269.693C107.632 269.642 107.693 269.602 107.759 269.575C107.826 269.548 107.898 269.534 107.97 269.534C108.042 269.535 108.113 269.55 108.179 269.578C108.245 269.606 108.306 269.646 108.356 269.698C108.407 269.749 108.447 269.81 108.474 269.876C110.319 273.904 112.988 277.5 116.308 280.432C123.547 286.765 132.488 288.391 142.887 285.27C143.026 285.228 143.176 285.243 143.304 285.312C143.432 285.38 143.528 285.497 143.571 285.636C143.611 285.775 143.595 285.924 143.527 286.052C143.458 286.179 143.343 286.275 143.205 286.319C139.973 287.322 136.61 287.846 133.226 287.876Z" fill="#1D1D1B"/>
<path d="M321.722 238.843C321.625 238.843 321.529 238.828 321.437 238.799C321.207 238.723 321.017 238.56 320.908 238.344C320.798 238.129 320.778 237.878 320.852 237.648C326.059 221.68 308.94 209.198 308.768 209.074C308.572 208.934 308.439 208.721 308.399 208.482C308.359 208.244 308.416 207.999 308.556 207.803C308.697 207.606 308.91 207.473 309.148 207.433C309.387 207.394 309.632 207.45 309.828 207.591C313.076 210.052 315.935 212.987 318.309 216.298C323.425 223.474 324.926 231.053 322.591 238.222C322.53 238.403 322.412 238.561 322.256 238.672C322.1 238.784 321.914 238.843 321.722 238.843Z" fill="white"/>
<path d="M162.775 215.458C162.596 215.458 162.42 215.406 162.271 215.307C162.121 215.209 162.004 215.068 161.933 214.903C161.863 214.739 161.842 214.557 161.874 214.381C161.906 214.204 161.99 214.041 162.114 213.912C177.749 197.553 190.359 190.782 190.483 190.717C190.697 190.603 190.947 190.579 191.179 190.651C191.294 190.686 191.4 190.744 191.493 190.82C191.585 190.897 191.662 190.991 191.718 191.097C191.774 191.203 191.809 191.319 191.82 191.438C191.831 191.558 191.819 191.678 191.784 191.793C191.748 191.907 191.691 192.014 191.614 192.107C191.538 192.199 191.444 192.275 191.338 192.332C191.214 192.397 178.845 199.048 163.436 215.176C163.35 215.265 163.248 215.336 163.134 215.384C163.02 215.433 162.898 215.458 162.775 215.458Z" fill="white"/>
<path d="M154.006 224.227C153.828 224.228 153.654 224.176 153.504 224.079C153.355 223.982 153.238 223.843 153.167 223.68C153.095 223.517 153.073 223.337 153.103 223.161C153.132 222.986 153.212 222.823 153.334 222.692L157.718 217.942C157.797 217.845 157.895 217.765 158.007 217.708C158.118 217.65 158.24 217.615 158.365 217.607C158.489 217.598 158.615 217.614 158.733 217.656C158.851 217.697 158.96 217.763 159.052 217.848C159.144 217.933 159.217 218.036 159.268 218.15C159.319 218.265 159.345 218.389 159.347 218.514C159.348 218.639 159.323 218.763 159.274 218.878C159.225 218.994 159.153 219.098 159.063 219.185L154.678 223.935C154.592 224.027 154.488 224.1 154.372 224.15C154.257 224.201 154.132 224.227 154.006 224.227Z" fill="white"/>
<path d="M313.318 249.44C313.099 249.44 312.888 249.362 312.721 249.219C312.555 249.077 312.445 248.879 312.413 248.663C312.38 248.446 312.426 248.225 312.543 248.04C312.659 247.854 312.838 247.717 313.048 247.653C317.239 246.363 318.251 243.268 318.291 243.144C318.37 242.922 318.53 242.739 318.74 242.632C318.95 242.526 319.193 242.505 319.418 242.573C319.643 242.642 319.833 242.794 319.949 242.999C320.064 243.204 320.096 243.446 320.038 243.674C319.99 243.842 318.745 247.814 313.589 249.399C313.501 249.425 313.41 249.439 313.318 249.44Z" fill="white"/>
<path d="M325.376 292.922H167.525C167.379 292.922 167.24 292.864 167.137 292.761C167.034 292.658 166.977 292.519 166.977 292.374C166.977 292.228 167.034 292.089 167.137 291.986C167.24 291.883 167.379 291.825 167.525 291.825H325.376C325.522 291.825 325.661 291.883 325.764 291.986C325.866 292.089 325.924 292.228 325.924 292.374C325.924 292.519 325.866 292.658 325.764 292.761C325.661 292.864 325.522 292.922 325.376 292.922Z" fill="#1D1D1B"/>
<path d="M344.377 299.499H315.876C315.731 299.499 315.591 299.441 315.489 299.338C315.386 299.235 315.328 299.096 315.328 298.951C315.328 298.805 315.386 298.666 315.489 298.563C315.591 298.46 315.731 298.403 315.876 298.403H344.377C344.523 298.403 344.662 298.46 344.765 298.563C344.867 298.666 344.925 298.805 344.925 298.951C344.925 299.096 344.867 299.235 344.765 299.338C344.662 299.441 344.523 299.499 344.377 299.499Z" fill="#1D1D1B"/>
<path d="M179.22 299.499H148.161C148.016 299.499 147.877 299.441 147.774 299.338C147.671 299.235 147.613 299.096 147.613 298.951C147.613 298.805 147.671 298.666 147.774 298.563C147.877 298.46 148.016 298.403 148.161 298.403H179.22C179.365 298.403 179.505 298.46 179.608 298.563C179.71 298.666 179.768 298.805 179.768 298.951C179.768 299.096 179.71 299.235 179.608 299.338C179.505 299.441 179.365 299.499 179.22 299.499Z" fill="#1D1D1B"/>
<defs>
<filter id="filter0_d_14052_2903" x="-4.02115" y="107.786" width="38.6868" height="38.6842" filterUnits="userSpaceOnUse" color-interpolation-filters="sRGB">
<feFlood flood-opacity="0" result="BackgroundImageFix"/>
<feColorMatrix in="SourceAlpha" type="matrix" values="0 0 0 0 0 0 0 0 0 0 0 0 0 0 0 0 0 0 127 0" result="hardAlpha"/>
<feOffset dy="2.03704"/>
<feGaussianBlur stdDeviation="5.09261"/>
<feComposite in2="hardAlpha" operator="out"/>
<feColorMatrix type="matrix" values="0 0 0 0 0 0 0 0 0 0 0 0 0 0 0 0 0 0 0.05 0"/>
<feBlend mode="normal" in2="BackgroundImageFix" result="effect1_dropShadow_14052_2903"/>
<feBlend mode="normal" in="SourceGraphic" in2="effect1_dropShadow_14052_2903" result="shape"/>
</filter>
<filter id="filter1_d_14052_2903" x="370.651" y="165.21" width="38.6868" height="38.6885" filterUnits="userSpaceOnUse" color-interpolation-filters="sRGB">
<feFlood flood-opacity="0" result="BackgroundImageFix"/>
<feColorMatrix in="SourceAlpha" type="matrix" values="0 0 0 0 0 0 0 0 0 0 0 0 0 0 0 0 0 0 127 0" result="hardAlpha"/>
<feOffset dy="2.03704"/>
<feGaussianBlur stdDeviation="5.09261"/>
<feComposite in2="hardAlpha" operator="out"/>
<feColorMatrix type="matrix" values="0 0 0 0 0 0 0 0 0 0 0 0 0 0 0 0 0 0 0.05 0"/>
<feBlend mode="normal" in2="BackgroundImageFix" result="effect1_dropShadow_14052_2903"/>
<feBlend mode="normal" in="SourceGraphic" in2="effect1_dropShadow_14052_2903" result="shape"/>
</filter>
<linearGradient id="paint0_linear_14052_2903" x1="20.4527" y1="112.038" x2="392.051" y2="200.547" gradientUnits="userSpaceOnUse">
<stop stop-color="#CDD5E2"/>
<stop offset="1" stop-color="#CDD5E2" stop-opacity="0"/>
</linearGradient>
<linearGradient id="paint1_linear_14052_2903" x1="391.411" y1="195.438" x2="353.85" y2="294.044" gradientUnits="userSpaceOnUse">
<stop stop-color="#CDD5E2"/>
<stop offset="1" stop-color="#CDD5E2" stop-opacity="0"/>
</linearGradient>
<linearGradient id="paint2_linear_14052_2903" x1="196.502" y1="23.2605" x2="196.502" y2="365.006" gradientUnits="userSpaceOnUse">
<stop stop-color="#CDD5E2"/>
<stop offset="1" stop-color="#CDD5E2" stop-opacity="0"/>
</linearGradient>
<linearGradient id="paint3_linear_14052_2903" x1="196.503" y1="57.4338" x2="196.503" y2="330.83" gradientUnits="userSpaceOnUse">
<stop stop-color="#CDD5E2"/>
<stop offset="1" stop-color="#CDD5E2" stop-opacity="0"/>
</linearGradient>
</defs>
</svg>
