<svg width="406" height="302" viewBox="0 0 406 302" fill="none" xmlns="http://www.w3.org/2000/svg">
<mask id="mask0_14055_51798" style="mask-type:alpha" maskUnits="userSpaceOnUse" x="0" y="0" width="406" height="302">
<rect width="405.823" height="301.875" fill="#D9D9D9"/>
</mask>
<g mask="url(#mask0_14055_51798)">
<g opacity="0.5">
<mask id="path-2-inside-1_14055_51798" fill="white">
<path d="M389.978 202.565C391.994 156.308 377.371 110.86 348.758 74.4588C320.146 38.0574 279.438 13.1119 234.015 4.14415C188.591 -4.82363 141.458 2.77982 101.158 25.5762C60.8585 48.3727 30.0602 84.8533 14.3457 128.405L15.1854 128.708C30.8274 85.357 61.4838 49.0446 101.598 26.3532C141.711 3.66186 188.628 -3.90654 233.842 5.0199C279.056 13.9463 319.576 38.7768 348.056 75.0104C376.537 111.244 391.093 156.483 389.086 202.526L389.978 202.565Z"/>
</mask>
<path d="M389.978 202.565C391.994 156.308 377.371 110.86 348.758 74.4588C320.146 38.0574 279.438 13.1119 234.015 4.14415C188.591 -4.82363 141.458 2.77982 101.158 25.5762C60.8585 48.3727 30.0602 84.8533 14.3457 128.405L15.1854 128.708C30.8274 85.357 61.4838 49.0446 101.598 26.3532C141.711 3.66186 188.628 -3.90654 233.842 5.0199C279.056 13.9463 319.576 38.7768 348.056 75.0104C376.537 111.244 391.093 156.483 389.086 202.526L389.978 202.565Z" stroke="url(#paint0_linear_14055_51798)" stroke-width="2.84788" stroke-dasharray="4.27 4.27" mask="url(#path-2-inside-1_14055_51798)"/>
</g>
<g opacity="0.5">
<mask id="path-3-inside-2_14055_51798" fill="white">
<path d="M14.6038 260.572C30.4887 304.063 61.4296 340.422 101.818 363.061C142.206 385.699 189.369 393.118 234.758 383.973C280.146 374.827 320.755 349.723 349.225 313.21C377.695 276.697 392.14 231.192 389.943 184.943L389.051 184.986C391.238 231.021 376.859 276.316 348.521 312.661C320.182 349.006 279.76 373.994 234.581 383.098C189.402 392.201 142.457 384.816 102.254 362.282C62.0522 339.748 31.2539 303.556 15.4423 260.266L14.6038 260.572Z"/>
</mask>
<path d="M14.6038 260.572C30.4887 304.063 61.4296 340.422 101.818 363.061C142.206 385.699 189.369 393.118 234.758 383.973C280.146 374.827 320.755 349.723 349.225 313.21C377.695 276.697 392.14 231.192 389.943 184.943L389.051 184.986C391.238 231.021 376.859 276.316 348.521 312.661C320.182 349.006 279.76 373.994 234.581 383.098C189.402 392.201 142.457 384.816 102.254 362.282C62.0522 339.748 31.2539 303.556 15.4423 260.266L14.6038 260.572Z" stroke="url(#paint1_linear_14055_51798)" stroke-width="2.84788" stroke-dasharray="4.27 4.27" mask="url(#path-3-inside-2_14055_51798)"/>
</g>
<circle opacity="0.08" cx="196.502" cy="194.133" r="170.873" fill="url(#paint2_linear_14055_51798)"/>
<circle opacity="0.1" cx="196.505" cy="194.132" r="136.698" fill="url(#paint3_linear_14055_51798)"/>
<circle cx="196.504" cy="194.134" r="91.1321" fill="white"/>
<g filter="url(#filter0_d_14055_51798)">
<circle cx="15.3224" cy="125.09" r="7.11969" transform="rotate(-2.50406 15.3224 125.09)" fill="#0170FF"/>
<circle cx="15.3224" cy="125.09" r="8.13822" transform="rotate(-2.50406 15.3224 125.09)" stroke="white" stroke-width="2.03704"/>
</g>
<g filter="url(#filter1_d_14055_51798)">
<circle cx="389.993" cy="182.517" r="7.11969" transform="rotate(-15.7345 389.993 182.517)" fill="#0170FF"/>
<circle cx="389.993" cy="182.517" r="8.13822" transform="rotate(-15.7345 389.993 182.517)" stroke="white" stroke-width="2.03704"/>
</g>
</g>
<path d="M290.15 274.271L93.1409 273.075C92.9505 273.075 92.7679 273 92.6332 272.865C92.4986 272.73 92.4229 272.548 92.4229 272.357C92.4229 272.167 92.4986 271.984 92.6332 271.849C92.7679 271.715 92.9505 271.639 93.1409 271.639L290.15 272.835C290.341 272.835 290.524 272.91 290.659 273.045C290.793 273.18 290.869 273.362 290.869 273.553C290.869 273.743 290.793 273.926 290.659 274.061C290.524 274.195 290.341 274.271 290.15 274.271Z" fill="black"/>
<path d="M100.441 263.841H72.123C71.9802 263.841 71.8433 263.784 71.7423 263.683C71.6413 263.582 71.5845 263.445 71.5845 263.302C71.5845 263.159 71.6413 263.022 71.7423 262.921C71.8433 262.82 71.9802 262.764 72.123 262.764H100.441C100.584 262.764 100.72 262.82 100.821 262.921C100.922 263.022 100.979 263.159 100.979 263.302C100.979 263.445 100.922 263.582 100.821 263.683C100.72 263.784 100.584 263.841 100.441 263.841Z" fill="black"/>
<path d="M291.878 65.0973C289.478 65.0964 287.08 64.9525 284.697 64.6665C272.49 63.2088 260.081 58.0134 247.82 49.2277C247.711 49.1422 247.639 49.0179 247.619 48.8807C247.6 48.7436 247.633 48.6041 247.714 48.4912C247.794 48.3784 247.915 48.301 248.051 48.275C248.187 48.2489 248.328 48.2764 248.445 48.3516C275.857 67.9912 298.71 65.5533 313.043 60.0528C328.586 54.0891 337.76 43.3645 337.849 43.2568C337.942 43.1473 338.074 43.079 338.217 43.0669C338.359 43.0548 338.501 43.0998 338.611 43.1922C338.72 43.2846 338.788 43.4166 338.8 43.5594C338.812 43.7021 338.768 43.8438 338.675 43.9534C338.582 44.0611 329.229 54.9975 313.431 61.0581C306.556 63.7192 299.25 65.0886 291.878 65.0973Z" fill="black"/>
<path d="M278.123 54.1645C271.897 54.1645 264.602 52.8576 256.293 49.2851C256.162 49.2284 256.058 49.1219 256.005 48.9889C255.953 48.8559 255.955 48.7074 256.011 48.576C256.068 48.4446 256.175 48.341 256.308 48.2882C256.441 48.2353 256.589 48.2375 256.721 48.2941C274.224 55.834 287.096 53.0909 294.811 49.4718C303.181 45.5439 307.475 39.7561 307.518 39.6987C307.558 39.6389 307.611 39.5879 307.672 39.5487C307.732 39.5096 307.8 39.4831 307.871 39.4708C307.943 39.4585 308.016 39.4606 308.086 39.4771C308.156 39.4936 308.223 39.5241 308.281 39.5668C308.339 39.6094 308.389 39.6634 308.426 39.7255C308.463 39.7876 308.487 39.8565 308.497 39.9281C308.506 39.9997 308.502 40.0725 308.483 40.1423C308.464 40.2121 308.431 40.2773 308.387 40.3342C308.211 40.5783 303.92 46.3733 295.321 50.4232C289.936 52.9287 284.062 54.2066 278.123 54.1645Z" fill="black"/>
<path d="M257.306 42.8079L219.818 20.8741L231.782 20.4756L258.103 29.2469L257.306 42.8079Z" fill="white"/>
<path d="M231.781 20.4756L258.102 29.2469L257.306 42.8079L219.818 20.8741L231.781 20.4756ZM231.781 19.3984H231.745L219.782 19.797C219.548 19.8041 219.323 19.8871 219.141 20.0335C218.958 20.1799 218.829 20.3817 218.771 20.6084C218.713 20.8351 218.731 21.0744 218.821 21.2901C218.912 21.5058 219.07 21.6862 219.272 21.804L256.76 43.7378C256.925 43.8346 257.114 43.8854 257.306 43.885C257.58 43.8855 257.845 43.781 258.045 43.5927C258.245 43.4045 258.366 43.1468 258.383 42.8725L259.18 29.3116C259.193 29.0785 259.13 28.8474 259 28.6531C258.871 28.4588 258.682 28.3119 258.462 28.2344L232.14 19.4594C232.024 19.4219 231.903 19.4037 231.781 19.4056V19.3984Z" fill="black"/>
<path d="M267.675 22.468L214.235 18.0806L236.966 44.8004L252.52 33.2357L227.793 22.0695L258.103 29.2467L267.675 22.468Z" fill="#4BD657"/>
<path d="M214.235 18.0807L267.675 22.4682L258.103 29.2469L227.793 22.0661L252.52 33.2322L236.966 44.797L214.235 18.0771V18.0807ZM214.235 17C214.03 17 213.828 17.059 213.654 17.17C213.481 17.281 213.343 17.4395 213.257 17.6265C213.171 17.8135 213.14 18.0213 213.168 18.2253C213.197 18.4292 213.283 18.6208 213.417 18.7772L236.148 45.4971C236.325 45.7057 236.575 45.8389 236.847 45.8696C237.119 45.9002 237.393 45.8261 237.613 45.6623L253.166 34.0975C253.317 33.9855 253.435 33.8361 253.51 33.6642C253.585 33.4923 253.614 33.3038 253.594 33.1174C253.573 32.9309 253.505 32.753 253.394 32.6012C253.284 32.4495 253.136 32.3291 252.965 32.2521L238.453 25.696L257.859 30.2917C257.94 30.3119 258.023 30.3215 258.106 30.3204C258.329 30.3203 258.546 30.2514 258.728 30.123L268.3 23.3443C268.481 23.2166 268.618 23.0363 268.692 22.828C268.767 22.6197 268.775 22.3935 268.717 22.1802C268.658 21.9668 268.536 21.7765 268.365 21.6354C268.195 21.4942 267.985 21.4089 267.765 21.3911L214.325 17.0036L214.235 17Z" fill="black"/>
<path d="M238.56 41.3105C238.442 41.3109 238.325 41.2879 238.216 41.243C238.107 41.198 238.008 41.1318 237.924 41.0484L225.563 28.6866C225.394 28.5181 225.299 28.2894 225.299 28.0511C225.299 27.8127 225.394 27.5841 225.563 27.4156C225.731 27.247 225.96 27.1523 226.198 27.1523C226.437 27.1523 226.665 27.247 226.834 27.4156L239.195 39.7809C239.32 39.9067 239.405 40.0665 239.439 40.2402C239.473 40.4139 239.455 40.5938 239.387 40.7573C239.319 40.9207 239.204 41.0605 239.057 41.1589C238.91 41.2574 238.737 41.3101 238.56 41.3105Z" fill="white"/>
<path d="M150.329 96.9981C150.329 96.9981 143.17 110.283 134.74 103.052C126.31 95.8205 108.404 80.2201 96.2936 92.1188C84.1832 104.017 84.3952 107.59 73.606 102.445C62.8168 97.2997 34.8115 107.033 49.3311 137.236C63.8507 167.438 163.036 119.557 163.036 119.557L165.33 110.498L150.329 96.9981Z" fill="#382256"/>
<path d="M106.67 87.785C117.082 87.785 128.503 97.7125 134.74 103.051C136.535 104.595 138.287 105.206 139.917 105.206C145.906 105.206 150.329 97.0051 150.329 97.0051L165.33 110.505L163.036 119.564C163.036 119.564 105.711 147.235 71.839 147.235C61.1575 147.235 52.8101 144.485 49.3274 137.243C37.2421 112.11 54.6158 101.145 67.0063 101.145C69.2739 101.094 71.5251 101.54 73.602 102.452C76.8082 103.981 79.0415 104.739 80.9157 104.739C85.3498 104.739 87.7771 100.488 96.2899 92.1258C99.4459 89.0237 102.993 87.7922 106.666 87.7922L106.67 87.785ZM106.666 86.715C102.415 86.715 98.6702 88.2768 95.5357 91.3574C93.2558 93.5942 91.4501 95.5007 89.8559 97.1811C85.7629 101.49 83.709 103.644 80.9157 103.644C79.3215 103.644 77.2714 102.99 74.0651 101.461C71.8439 100.479 69.4342 99.9978 67.0063 100.05C60.9026 100.05 52.0451 102.753 47.2591 110.379C44.1498 115.323 41.816 124.077 48.3649 137.692C51.7471 144.729 59.6497 148.294 71.8464 148.294C86.0213 148.294 105.761 143.627 130.521 134.392C148.918 127.534 163.366 120.583 163.51 120.515C163.652 120.445 163.778 120.345 163.877 120.221C163.977 120.096 164.047 119.952 164.084 119.797L166.378 110.735C166.429 110.543 166.424 110.34 166.367 110.15C166.309 109.96 166.2 109.79 166.052 109.658L151.055 96.1578C150.857 95.9804 150.602 95.8819 150.337 95.8813C150.276 95.876 150.214 95.876 150.153 95.8813C149.992 95.909 149.84 95.9729 149.708 96.068C149.575 96.1632 149.466 96.2872 149.388 96.4307C149.349 96.5061 145.191 104.064 139.924 104.064C138.42 104.064 136.912 103.428 135.447 102.175L135.124 101.899C128.902 96.5707 117.319 86.6504 106.677 86.6504L106.666 86.715Z" fill="black"/>
<path d="M171.811 134.464C171.811 134.464 143.282 132.112 118.673 145.953C94.0642 159.794 56.8424 181.43 66.0733 201.425C75.3043 221.42 92.1039 226.737 105.446 226.734C114.045 226.734 126.931 219.194 126.931 219.194C126.931 219.194 119.19 238.711 126.931 271.973L270.831 272.946C270.831 272.946 298.836 148 197.228 136.51" fill="#07ACEE"/>
<path d="M270.831 273.488L126.931 272.515C126.809 272.516 126.692 272.475 126.597 272.399C126.502 272.323 126.436 272.217 126.41 272.099C119.854 243.932 124.432 225.348 125.976 220.354C122.529 222.235 112.634 227.269 105.449 227.273C94.976 227.273 75.8893 223.941 65.5956 201.651C63.3624 196.808 63.657 191.552 66.4718 186.026C68.8738 181.312 73.2036 176.246 79.3468 170.975C90.2868 161.582 105.252 152.894 118.421 145.483C142.894 131.717 171.581 133.9 171.868 133.925C171.939 133.931 172.008 133.95 172.071 133.983C172.134 134.015 172.19 134.059 172.236 134.113C172.282 134.167 172.316 134.23 172.337 134.298C172.359 134.365 172.367 134.437 172.36 134.507C172.347 134.649 172.278 134.779 172.17 134.871C172.061 134.963 171.921 135.009 171.779 134.999C171.495 134.977 143.124 132.823 118.949 146.42C105.826 153.802 90.9152 162.462 80.047 171.79C67.0138 182.978 62.605 192.614 66.576 201.199C76.6291 222.943 95.2274 226.192 105.446 226.192C113.797 226.192 126.529 218.806 126.658 218.731C126.755 218.674 126.867 218.65 126.978 218.66C127.09 218.67 127.196 218.715 127.281 218.788C127.366 218.861 127.426 218.959 127.452 219.068C127.479 219.177 127.471 219.291 127.43 219.395C127.354 219.586 119.89 238.999 127.358 271.456L270.396 272.422C270.949 269.754 273.868 254.829 273.829 235.958C273.789 216.853 270.626 189.706 255.769 168.849C242.844 150.693 223.121 139.997 197.166 137.063C197.096 137.055 197.027 137.034 196.965 136.999C196.903 136.965 196.848 136.918 196.803 136.863C196.759 136.807 196.726 136.743 196.706 136.675C196.687 136.606 196.681 136.535 196.689 136.464C196.697 136.393 196.719 136.325 196.753 136.262C196.788 136.2 196.834 136.145 196.89 136.101C196.945 136.057 197.009 136.024 197.078 136.004C197.146 135.984 197.218 135.978 197.288 135.986C223.559 138.956 243.533 149.802 256.649 168.221C271.671 189.315 274.87 216.692 274.906 235.972C274.945 256.822 271.391 272.914 271.355 273.076C271.327 273.193 271.26 273.298 271.165 273.373C271.07 273.448 270.952 273.488 270.831 273.488Z" fill="black"/>
<path d="M118.339 200.025C121.211 192.887 130.798 187.124 136.32 172.102C141.842 157.08 122.511 150.33 122.511 150.33L123.541 145.274C123.541 145.274 110.282 148.114 97.0372 137.336L92.7287 143.199C92.7287 143.199 76.1876 146.847 75.1356 160.67C74.0836 174.493 60.4686 186.108 66.5435 202.793" fill="#07ACEE"/>
<path d="M66.5255 203.331C66.4143 203.332 66.306 203.297 66.2152 203.233C66.1245 203.168 66.0558 203.077 66.0192 202.972C62.1847 192.445 66.0193 183.943 69.7282 175.685C72.0188 170.598 74.184 165.79 74.5826 160.605C75.6023 147.389 90.488 143.188 92.4053 142.7L96.6026 136.995C96.6456 136.936 96.7001 136.887 96.7628 136.85C96.8256 136.813 96.8953 136.789 96.9676 136.78C97.0399 136.771 97.1133 136.777 97.1832 136.797C97.2532 136.817 97.3181 136.852 97.3743 136.898C110.271 147.389 123.297 144.754 123.43 144.729C123.518 144.71 123.609 144.713 123.694 144.738C123.78 144.763 123.859 144.809 123.922 144.872C123.984 144.936 124.031 145.013 124.056 145.098C124.082 145.183 124.086 145.273 124.069 145.361L123.129 149.967C125.15 150.75 133.325 154.276 136.556 161.097C138.187 164.551 138.276 168.303 136.826 172.249C133.476 181.362 128.618 187.128 124.712 191.76C122.156 194.797 119.947 197.414 118.838 200.186C118.812 200.252 118.773 200.312 118.724 200.363C118.674 200.413 118.615 200.454 118.55 200.482C118.485 200.51 118.415 200.525 118.345 200.526C118.274 200.527 118.203 200.514 118.138 200.488C118.072 200.462 118.012 200.423 117.961 200.373C117.911 200.324 117.87 200.265 117.842 200.2C117.814 200.135 117.799 200.065 117.798 199.995C117.797 199.924 117.81 199.853 117.836 199.788C119.014 196.854 121.272 194.172 123.89 191.067C127.739 186.496 132.532 180.812 135.813 171.879C137.163 168.214 137.084 164.742 135.583 161.561C132.162 154.312 122.429 150.832 122.332 150.789C122.207 150.748 122.101 150.662 122.035 150.549C121.969 150.435 121.947 150.301 121.973 150.172L122.848 145.863C119.793 146.262 108.429 146.983 97.1268 138.043L93.1486 143.454C93.0701 143.559 92.957 143.633 92.8292 143.662C92.6676 143.698 76.6722 147.389 75.6453 160.645C75.2324 166.009 72.9273 171.129 70.6976 176.084C67.0785 184.123 63.3372 192.435 67.021 202.552C67.0695 202.687 67.063 202.835 67.0024 202.964C66.9418 203.093 66.8323 203.193 66.698 203.242C66.6464 203.282 66.5879 203.312 66.5255 203.331Z" fill="black"/>
<path d="M199.015 136.751C199.015 136.751 203.765 146.312 192.635 148.826C181.505 151.339 179.35 145.594 179.35 145.594C179.35 145.594 171.81 152.775 164.989 146.671C158.167 140.568 166.425 134.105 166.425 134.105L199.015 136.751Z" fill="white"/>
<path d="M187.433 150.007C182.115 150.007 179.943 147.63 179.175 146.438C177.279 147.96 170.662 152.484 164.616 147.074C162.637 145.304 161.668 143.322 161.743 141.182C161.88 137.017 165.908 133.818 166.081 133.681C166.183 133.603 166.311 133.563 166.44 133.57L199.03 136.213C199.122 136.22 199.211 136.252 199.288 136.304C199.365 136.356 199.427 136.427 199.468 136.511C199.558 136.687 201.583 140.851 199.827 144.567C198.703 146.934 196.319 148.546 192.739 149.353C191 149.766 189.22 149.985 187.433 150.007ZM179.351 145.056C179.39 145.052 179.43 145.052 179.469 145.056C179.556 145.077 179.636 145.118 179.703 145.177C179.77 145.236 179.822 145.31 179.854 145.393C179.936 145.605 182.036 150.653 192.517 148.287C195.748 147.569 197.903 146.133 198.868 144.097C200.175 141.358 199.044 138.184 198.653 137.247L166.598 134.647C165.88 135.261 162.932 137.979 162.831 141.21C162.77 143.006 163.618 144.711 165.345 146.259C171.707 151.953 178.679 145.469 178.988 145.181C179.09 145.097 179.219 145.052 179.351 145.056Z" fill="black"/>
<path d="M172.141 78.4572C179.627 78.4572 185.695 72.389 185.695 64.9034C185.695 57.4179 179.627 51.3496 172.141 51.3496C164.656 51.3496 158.587 57.4179 158.587 64.9034C158.587 72.389 164.656 78.4572 172.141 78.4572Z" fill="#382256"/>
<path d="M172.13 51.3462C175.393 51.3435 178.547 52.5178 181.014 54.6537C183.481 56.7895 185.094 59.7434 185.558 62.973C186.022 66.2027 185.305 69.4913 183.539 72.235C181.773 74.9787 179.077 76.9934 175.945 77.9091C172.814 78.8248 169.457 78.5801 166.491 77.2199C163.526 75.8597 161.15 73.4753 159.801 70.5045C158.452 67.5338 158.219 64.176 159.147 61.0478C160.074 57.9195 162.099 55.2308 164.849 53.4753C167.024 52.0868 169.55 51.3481 172.13 51.3462ZM172.13 50.2691C168.88 50.2704 165.723 51.3533 163.156 53.3471C160.59 55.3409 158.759 58.1322 157.954 61.2809C157.149 64.4297 157.415 67.7568 158.71 70.7379C160.004 73.719 162.254 76.1845 165.105 77.7458C167.955 79.307 171.244 79.8752 174.453 79.3608C177.662 78.8463 180.609 77.2785 182.829 74.9046C185.048 72.5306 186.415 69.4854 186.713 66.249C187.011 63.0126 186.223 59.7691 184.474 57.0298C183.153 54.9539 181.329 53.2457 179.171 52.0637C177.013 50.8817 174.591 50.2644 172.13 50.2691Z" fill="black"/>
<path d="M138.739 110.649C138.739 110.649 128.532 103.468 131.67 94.6356C134.808 85.8032 137.077 86.313 138.427 81.5521C139.777 76.7913 147.514 71.3625 155.237 72.77C155.237 72.77 163.826 64.8495 172.471 66.16C181.117 67.4705 184.449 71.1866 187.515 77.5129C190.582 83.8392 193.26 86.5141 195.565 90.8908C197.87 95.2675 201.931 107.802 185.027 119.072C168.123 130.342 138.739 110.649 138.739 110.649Z" fill="#382256"/>
<path d="M170.479 66.0164C171.14 66.0144 171.8 66.0624 172.454 66.16C181.071 67.4705 184.431 71.1866 187.498 77.5129C190.564 83.8392 193.242 86.514 195.547 90.8908C197.852 95.2675 201.913 107.802 185.009 119.072C181.25 121.585 176.87 122.555 172.335 122.555C156.487 122.555 138.733 110.649 138.733 110.649C138.733 110.649 128.525 103.468 131.663 94.6355C134.801 85.8031 137.07 86.313 138.42 81.5521C139.619 77.3154 145.892 72.5437 152.703 72.5437C153.546 72.5437 154.387 72.6194 155.216 72.7699C155.216 72.7699 162.541 66.0164 170.465 66.0164H170.479ZM170.465 64.9392C163.194 64.9392 156.57 70.1848 154.886 71.6246C154.158 71.5196 153.424 71.4667 152.689 71.4666C145.292 71.4666 138.686 76.6296 137.368 81.2576C136.819 83.1929 136.137 84.13 135.189 85.4369C133.961 87.128 132.428 89.232 130.636 94.2765C129.225 98.2259 130.094 102.499 133.15 106.595C134.554 108.47 136.223 110.132 138.104 111.528H138.126C141.645 113.8 145.323 115.817 149.13 117.564C155.087 120.325 163.945 123.617 172.328 123.617C177.488 123.617 181.954 122.386 185.613 119.955C193.153 114.929 197.519 109.065 198.538 102.552C199.177 98.3788 198.461 94.1105 196.495 90.3737C195.53 88.601 194.466 86.8844 193.307 85.2323C191.48 82.6281 189.859 79.885 188.46 77.0281C185.3 70.5079 181.692 66.4616 172.608 65.0829C171.901 64.9757 171.187 64.9229 170.472 64.9249L170.465 64.9392Z" fill="black"/>
<path d="M171.064 98.2042C170.921 98.2104 170.782 98.1596 170.677 98.063C170.571 97.9664 170.509 97.8318 170.502 97.689C170.496 97.5462 170.547 97.4067 170.643 97.3013C170.74 97.196 170.875 97.1333 171.018 97.1271C176.604 96.6281 181.76 90.3448 181.81 90.2838C181.9 90.1728 182.031 90.1022 182.173 90.0874C182.315 90.0726 182.457 90.1148 182.568 90.2048C182.679 90.2948 182.749 90.4251 182.764 90.5672C182.779 90.7093 182.737 90.8514 182.647 90.9624C182.428 91.2352 177.157 97.6585 171.114 98.2007L171.064 98.2042Z" fill="black"/>
<path d="M185.512 52.0315C185.401 52.0317 185.292 51.9973 185.202 51.933C185.111 51.8686 185.042 51.7775 185.006 51.6725C183.997 48.8361 182.342 46.8577 180.094 45.795C176.062 43.8921 171.398 45.5437 171.351 45.5616C171.22 45.5977 171.08 45.5827 170.96 45.5197C170.839 45.4568 170.747 45.3505 170.701 45.2223C170.656 45.094 170.661 44.9533 170.715 44.8285C170.769 44.7036 170.868 44.6038 170.992 44.5491C171.197 44.4737 176.112 42.7252 180.55 44.8148C183.063 46.0032 184.916 48.1898 186.025 51.3134C186.049 51.3799 186.06 51.4504 186.056 51.521C186.053 51.5915 186.036 51.6607 186.005 51.7244C185.975 51.7882 185.932 51.8452 185.879 51.8924C185.827 51.9396 185.765 51.9759 185.699 51.9992C185.639 52.0215 185.576 52.0324 185.512 52.0315Z" fill="black"/>
<path d="M165.811 129.154V134.539C165.811 134.539 175.146 148.542 193.098 137.052C193.098 137.052 184.295 124.396 179.577 109.374C179.577 109.374 186.223 107.579 184.858 101.615C183.494 95.6515 178.611 94.8831 175.843 96.6532C175.843 96.6532 165.072 104.983 152.541 82.2915C152.541 82.2915 140.922 87.7597 139.084 100.143C137.246 112.526 140.38 126.604 149.996 130.213C159.611 133.821 165.811 129.154 165.811 129.154Z" fill="#FFCDB2"/>
<path d="M152.527 82.2881C159.758 95.3751 166.397 98.1469 170.723 98.1469C172.538 98.183 174.32 97.6617 175.829 96.6533C176.702 96.1057 177.713 95.8169 178.744 95.8204C181.214 95.8204 183.893 97.454 184.848 101.615C186.212 107.568 179.566 109.374 179.566 109.374C184.284 124.396 193.088 137.053 193.088 137.053C187.864 140.395 183.372 141.58 179.627 141.58C170.497 141.58 165.801 134.539 165.801 134.539V129.154C165.801 129.154 162.569 131.581 157.184 131.581C154.727 131.56 152.294 131.095 150.003 130.209C140.388 126.619 137.25 112.523 139.092 100.14C140.933 87.7563 152.548 82.2881 152.548 82.2881H152.527ZM152.548 81.2109C152.389 81.2103 152.232 81.246 152.089 81.3151C149.784 82.4976 147.659 84.0014 145.777 85.7815C141.494 89.7633 138.815 94.6714 138.025 99.9816C137.042 106.592 137.469 113.266 139.224 118.792C141.239 125.125 144.836 129.419 149.637 131.218C152.053 132.148 154.617 132.634 157.205 132.654C159.81 132.671 162.385 132.108 164.745 131.006V134.539C164.746 134.751 164.808 134.958 164.925 135.135C165.129 135.444 170.052 142.657 179.645 142.657C184.09 142.657 188.815 141.078 193.687 137.961C193.809 137.883 193.914 137.781 193.995 137.661C194.077 137.541 194.133 137.406 194.161 137.264C194.19 137.122 194.189 136.976 194.159 136.834C194.13 136.692 194.072 136.558 193.989 136.439C193.907 136.317 185.605 124.289 180.927 110.031C181.818 109.658 182.653 109.165 183.411 108.566C185.706 106.728 186.575 104.24 185.925 101.386C184.805 96.4954 181.494 94.754 178.773 94.754C177.537 94.7516 176.326 95.0989 175.279 95.7557L175.197 95.8096C173.875 96.6671 172.327 97.1097 170.752 97.0806C166.738 97.0806 160.487 94.4237 153.496 81.7783C153.403 81.61 153.267 81.4697 153.102 81.3718C152.936 81.2739 152.748 81.2221 152.556 81.2217L152.548 81.2109Z" fill="black"/>
<path d="M165.632 130.231C165.504 130.23 165.382 130.184 165.285 130.101C165.189 130.018 165.125 129.904 165.105 129.778C165.084 129.652 165.109 129.524 165.175 129.415C165.24 129.306 165.342 129.223 165.463 129.183C170.608 127.466 174.514 121.801 174.55 121.743C174.631 121.625 174.755 121.543 174.895 121.516C175.036 121.489 175.182 121.519 175.3 121.6C175.419 121.68 175.501 121.804 175.528 121.945C175.555 122.086 175.525 122.231 175.444 122.35C175.275 122.594 171.297 128.371 165.8 130.202C165.746 130.222 165.689 130.232 165.632 130.231Z" fill="black"/>
<path d="M123.994 122.842C123.994 122.842 128.844 135.365 121.84 148.003C114.835 160.642 101.424 141.968 101.424 141.968L123.994 122.842Z" fill="#FFCDB2"/>
<path d="M115.603 152.933C108.698 152.933 101.295 142.725 100.975 142.28C100.897 142.171 100.862 142.037 100.879 141.903C100.896 141.77 100.962 141.648 101.065 141.562L123.645 122.436C123.71 122.38 123.788 122.341 123.872 122.322C123.956 122.302 124.043 122.303 124.126 122.324C124.209 122.345 124.286 122.386 124.351 122.443C124.415 122.5 124.465 122.571 124.496 122.651C124.546 122.781 129.354 135.555 122.299 148.269C120.665 151.209 118.547 152.775 116.001 152.936C115.868 152.929 115.735 152.933 115.603 152.933ZM102.149 142.05C103.618 143.971 110.242 152.179 115.936 151.845C118.091 151.719 119.915 150.341 121.358 147.741C127.211 137.192 124.589 126.597 123.735 123.768L102.149 142.05Z" fill="black"/>
<path d="M179.415 106.606C179.327 106.606 179.241 106.584 179.164 106.541C179.041 106.474 178.948 106.362 178.907 106.228C178.865 106.093 178.877 105.948 178.941 105.823C179.986 103.867 180.212 102.348 179.62 101.307C178.776 99.8344 176.478 99.7232 176.457 99.7196C176.386 99.717 176.316 99.7005 176.252 99.671C176.188 99.6416 176.13 99.5997 176.082 99.5479C176.033 99.496 175.996 99.4352 175.971 99.3689C175.947 99.3025 175.935 99.232 175.938 99.1612C175.94 99.0905 175.957 99.021 175.986 98.9567C176.016 98.8923 176.058 98.8344 176.11 98.7862C176.162 98.738 176.222 98.7006 176.288 98.6759C176.355 98.6512 176.425 98.6399 176.496 98.6425C176.615 98.6425 179.404 98.7717 180.55 100.764C181.347 102.147 181.124 104.017 179.893 106.326C179.846 106.411 179.777 106.483 179.693 106.532C179.609 106.581 179.513 106.607 179.415 106.606Z" fill="black"/>
<path d="M153.054 100.574C160.02 101.102 168.737 96.8976 170.647 99.1021C172.558 101.307 171.789 104.707 168.231 106.003C164.673 107.299 161.018 107.683 153.489 108.103C145.96 108.523 138.557 108.38 138.865 104.283C139.174 100.186 142.833 99.8023 153.054 100.574Z" fill="#FFB49F"/>
<path d="M144.628 97.2709C144.497 97.2725 144.369 97.2266 144.269 97.1417C144.215 97.0959 144.171 97.0399 144.139 96.9769C144.107 96.914 144.088 96.8453 144.083 96.7749C144.077 96.7044 144.086 96.6336 144.108 96.5666C144.13 96.4995 144.165 96.4375 144.212 96.3841C144.305 96.2728 146.571 93.6662 149.597 93.8708C149.74 93.8813 149.873 93.9481 149.966 94.0565C150.06 94.1649 150.107 94.306 150.097 94.4489C150.086 94.5917 150.019 94.7245 149.911 94.8181C149.802 94.9117 149.661 94.9584 149.518 94.9479C147.03 94.7612 145.041 97.0484 145.023 97.0735C144.975 97.1321 144.915 97.1799 144.847 97.214C144.779 97.248 144.704 97.2673 144.628 97.2709Z" fill="black"/>
<path d="M152.34 113.108H152.229C152.16 113.094 152.094 113.066 152.035 113.027C151.977 112.987 151.927 112.936 151.888 112.877C151.849 112.818 151.823 112.752 151.81 112.682C151.797 112.613 151.798 112.542 151.812 112.473L154.103 101.421C154.132 101.281 154.215 101.158 154.334 101.08C154.453 101.001 154.599 100.973 154.739 101.001C154.879 101.03 155.001 101.113 155.08 101.232C155.159 101.351 155.187 101.497 155.159 101.637L152.868 112.692C152.84 112.811 152.773 112.917 152.677 112.992C152.581 113.068 152.463 113.109 152.34 113.108Z" fill="black"/>
<path d="M182.313 111.23C183.538 111.23 184.531 110.237 184.531 109.011C184.531 107.786 183.538 106.792 182.313 106.792C181.087 106.792 180.094 107.786 180.094 109.011C180.094 110.237 181.087 111.23 182.313 111.23Z" fill="#07ACEE"/>
<path d="M182.327 106.792C182.861 106.788 183.379 106.976 183.785 107.323C184.191 107.669 184.459 108.151 184.539 108.679C184.619 109.207 184.506 109.746 184.22 110.197C183.935 110.649 183.497 110.982 182.985 111.136C182.474 111.29 181.924 111.254 181.437 111.036C180.95 110.817 180.558 110.43 180.333 109.946C180.108 109.461 180.065 108.912 180.212 108.399C180.36 107.886 180.687 107.443 181.135 107.152C181.49 106.921 181.904 106.796 182.327 106.792ZM182.327 105.715C181.706 105.718 181.099 105.896 180.574 106.228C180.05 106.561 179.63 107.035 179.364 107.595C179.097 108.156 178.994 108.78 179.067 109.397C179.139 110.014 179.385 110.597 179.775 111.08C180.164 111.564 180.682 111.927 181.27 112.129C181.857 112.33 182.489 112.362 183.094 112.22C183.698 112.078 184.25 111.768 184.686 111.327C185.122 110.885 185.425 110.328 185.558 109.722C185.664 109.24 185.66 108.739 185.547 108.258C185.434 107.778 185.214 107.328 184.904 106.944C184.594 106.559 184.201 106.249 183.755 106.036C183.309 105.824 182.821 105.714 182.327 105.715Z" fill="black"/>
<path d="M164.526 104.118C165.22 104.118 165.782 103.555 165.782 102.861C165.782 102.167 165.22 101.604 164.526 101.604C163.832 101.604 163.269 102.167 163.269 102.861C163.269 103.555 163.832 104.118 164.526 104.118Z" fill="black"/>
<path d="M146.147 105.381C146.841 105.381 147.403 104.819 147.403 104.125C147.403 103.431 146.841 102.868 146.147 102.868C145.453 102.868 144.89 103.431 144.89 104.125C144.89 104.819 145.453 105.381 146.147 105.381Z" fill="black"/>
<path d="M158.939 122.095C158.513 122.094 158.089 122.036 157.679 121.923C157.607 121.908 157.538 121.879 157.478 121.837C157.417 121.795 157.366 121.741 157.327 121.679C157.288 121.616 157.262 121.546 157.252 121.473C157.241 121.4 157.246 121.326 157.265 121.254C157.284 121.183 157.317 121.117 157.363 121.059C157.409 121.001 157.466 120.954 157.532 120.919C157.597 120.885 157.668 120.864 157.742 120.858C157.815 120.852 157.889 120.861 157.959 120.885C161.442 121.822 163.768 117.245 163.79 117.198C163.854 117.07 163.966 116.972 164.101 116.927C164.237 116.881 164.385 116.892 164.513 116.956C164.641 117.019 164.739 117.131 164.784 117.267C164.83 117.403 164.819 117.551 164.756 117.679C164.655 117.876 162.515 122.095 158.939 122.095Z" fill="black"/>
<path d="M157.611 94.2229C157.505 94.2246 157.401 94.1947 157.312 94.1372C157.223 94.0796 157.153 93.997 157.112 93.8997C157.07 93.8024 157.058 93.6949 157.077 93.5907C157.096 93.4865 157.146 93.3904 157.22 93.3146C157.399 93.1279 159.015 91.4942 160.516 92.022C160.582 92.0456 160.644 92.082 160.697 92.1294C160.749 92.1767 160.792 92.2339 160.823 92.2977C160.853 92.3616 160.871 92.4308 160.874 92.5015C160.878 92.5721 160.868 92.6428 160.844 92.7096C160.821 92.7763 160.784 92.8377 160.737 92.8903C160.69 92.9429 160.633 92.9857 160.569 93.0162C160.505 93.0467 160.435 93.0644 160.365 93.0681C160.294 93.0719 160.223 93.0617 160.157 93.0381C159.439 92.7832 158.329 93.7131 158.002 94.0578C157.952 94.1107 157.891 94.1527 157.824 94.1811C157.757 94.2096 157.684 94.2238 157.611 94.2229Z" fill="black"/>
<path d="M93.1374 143.587C93.1051 143.551 97.2232 138.033 97.2232 138.033C110.468 148.804 122.941 145.81 122.941 145.81L122.051 150.879L122.177 150.66C122.177 150.66 108.756 160.214 93.1374 143.587Z" fill="#0598C6"/>
<path d="M216.522 157.848C218.137 157.848 219.445 156.54 219.445 154.926C219.445 153.311 218.137 152.003 216.522 152.003C214.908 152.003 213.6 153.311 213.6 154.926C213.6 156.54 214.908 157.848 216.522 157.848Z" fill="#51CEF4"/>
<path d="M253.863 189.444C255.477 189.444 256.785 188.135 256.785 186.521C256.785 184.907 255.477 183.599 253.863 183.599C252.249 183.599 250.94 184.907 250.94 186.521C250.94 188.135 252.249 189.444 253.863 189.444Z" fill="#51CEF4"/>
<path d="M208.624 190.521C210.238 190.521 211.546 189.212 211.546 187.598C211.546 185.984 210.238 184.676 208.624 184.676C207.009 184.676 205.701 185.984 205.701 187.598C205.701 189.212 207.009 190.521 208.624 190.521Z" fill="#51CEF4"/>
<path d="M147.586 160.721C149.201 160.721 150.509 159.412 150.509 157.798C150.509 156.184 149.201 154.875 147.586 154.875C145.972 154.875 144.664 156.184 144.664 157.798C144.664 159.412 145.972 160.721 147.586 160.721Z" fill="#51CEF4"/>
<path d="M172.36 176.877C173.974 176.877 175.283 175.569 175.283 173.955C175.283 172.341 173.974 171.032 172.36 171.032C170.746 171.032 169.438 172.341 169.438 173.955C169.438 175.569 170.746 176.877 172.36 176.877Z" fill="#51CEF4"/>
<path d="M141.842 238.992C143.456 238.992 144.764 237.683 144.764 236.069C144.764 234.455 143.456 233.146 141.842 233.146C140.228 233.146 138.919 234.455 138.919 236.069C138.919 237.683 140.228 238.992 141.842 238.992Z" fill="#51CEF4"/>
<path d="M182.054 229.657C183.668 229.657 184.977 228.348 184.977 226.734C184.977 225.12 183.668 223.812 182.054 223.812C180.44 223.812 179.131 225.12 179.131 226.734C179.131 228.348 180.44 229.657 182.054 229.657Z" fill="#51CEF4"/>
<path d="M147.586 200.215C149.201 200.215 150.509 198.907 150.509 197.293C150.509 195.679 149.201 194.37 147.586 194.37C145.972 194.37 144.664 195.679 144.664 197.293C144.664 198.907 145.972 200.215 147.586 200.215Z" fill="#51CEF4"/>
<path d="M227.293 223.912C228.908 223.912 230.216 222.603 230.216 220.989C230.216 219.375 228.908 218.066 227.293 218.066C225.679 218.066 224.371 219.375 224.371 220.989C224.371 222.603 225.679 223.912 227.293 223.912Z" fill="#51CEF4"/>
<path d="M124.608 182.622C126.222 182.622 127.53 181.314 127.53 179.699C127.53 178.085 126.222 176.777 124.608 176.777C122.994 176.777 121.685 178.085 121.685 179.699C121.685 181.314 122.994 182.622 124.608 182.622Z" fill="#51CEF4"/>
<path d="M98.3979 167.901C100.012 167.901 101.32 166.593 101.32 164.979C101.32 163.365 100.012 162.056 98.3979 162.056C96.7838 162.056 95.4751 163.365 95.4751 164.979C95.4751 166.593 96.7838 167.901 98.3979 167.901Z" fill="#51CEF4"/>
<path d="M78.6504 190.521C80.2645 190.521 81.5728 189.212 81.5728 187.598C81.5728 185.984 80.2645 184.676 78.6504 184.676C77.0363 184.676 75.7275 185.984 75.7275 187.598C75.7275 189.212 77.0363 190.521 78.6504 190.521Z" fill="#51CEF4"/>
<path d="M95.5254 217.09C97.1395 217.09 98.4478 215.782 98.4478 214.168C98.4478 212.554 97.1395 211.245 95.5254 211.245C93.9113 211.245 92.6025 212.554 92.6025 214.168C92.6025 215.782 93.9113 217.09 95.5254 217.09Z" fill="#51CEF4"/>
<path d="M65.9976 172.91C64.0288 175.033 62.3396 177.399 60.9711 179.951C59.6014 182.491 58.5557 185.193 57.8582 187.993C57.1517 190.839 56.8197 193.765 56.8708 196.697C56.9872 202.743 58.6908 208.653 61.8112 213.834C62.005 214.153 62.2061 214.469 62.4107 214.785C62.4831 214.908 62.6016 214.998 62.74 215.034C62.8783 215.07 63.0255 215.05 63.1488 214.977C63.2721 214.905 63.3614 214.786 63.3974 214.648C63.4334 214.51 63.413 214.363 63.3406 214.239C61.7272 211.789 60.4475 209.136 59.5349 206.348C58.6364 203.58 58.1029 200.708 57.948 197.802C57.7949 194.944 58.0219 192.078 58.6229 189.279C59.2111 186.55 60.1372 183.905 61.3802 181.405C62.6289 178.892 64.1913 176.548 66.0299 174.429C66.2597 174.17 66.4896 173.912 66.7266 173.657C67.1969 173.151 66.4393 172.386 65.9654 172.896L65.9976 172.91Z" fill="black"/>
<path d="M120.956 132.27C125.121 125.951 124.813 118.813 121.229 113.004C115.485 103.712 118.321 99.9996 116.648 93.6158C114.975 87.2321 107.176 91.5119 105.403 102.552C105.403 102.552 90.8507 99.321 93.6189 113.575C93.6189 113.575 84.4849 116.569 91.3892 126.353C91.3892 126.353 85.7703 130.82 89.1417 137.085C92.5131 143.35 103.74 144.424 108.376 142.295" fill="#FFCDB2"/>
<path d="M102.656 143.838C97.4605 143.838 91.1665 141.997 88.6533 137.347C85.6481 131.764 89.4146 127.481 90.6641 126.278C88.4739 123.046 87.77 120.153 88.5779 117.711C89.4791 114.993 91.9711 113.679 92.9944 113.241C92.2763 109.13 92.9438 106.06 94.9652 104.082C98.0386 101.095 103.223 101.651 104.95 101.928C106.264 94.7109 110.228 90.2659 113.395 90.1079C115.19 90.0253 116.565 91.2497 117.154 93.4829C117.743 95.7162 117.79 97.6981 117.833 99.5866C117.912 103.109 117.991 106.767 121.675 112.717C125.549 118.993 125.444 126.411 121.394 132.561C121.316 132.68 121.193 132.764 121.053 132.793C120.913 132.822 120.767 132.794 120.648 132.715C120.528 132.637 120.445 132.514 120.416 132.374C120.387 132.234 120.415 132.088 120.493 131.969C124.364 126.091 124.461 119.28 120.755 113.298C116.921 107.087 116.838 103.296 116.756 99.6297C116.713 97.716 116.673 95.91 116.113 93.7701C115.661 92.0503 114.72 91.1348 113.449 91.1994C110.691 91.3359 107.029 95.752 105.909 102.656C105.897 102.729 105.87 102.798 105.831 102.859C105.791 102.921 105.74 102.974 105.679 103.015C105.618 103.058 105.55 103.087 105.478 103.101C105.405 103.115 105.331 103.114 105.259 103.098C105.194 103.098 98.9186 101.734 95.7015 104.868C93.8848 106.635 93.3498 109.536 94.1181 113.485C94.1433 113.614 94.1207 113.748 94.0547 113.861C93.9886 113.975 93.8836 114.061 93.7591 114.103C93.7303 114.103 90.5277 115.201 89.587 118.052C88.8689 120.249 89.612 122.939 91.8057 126.044C91.881 126.156 91.9119 126.291 91.8927 126.424C91.8734 126.556 91.8053 126.677 91.7016 126.762C91.4862 126.935 86.4776 131.035 89.5905 136.816C92.8972 142.952 103.887 143.738 108.128 141.792C108.192 141.762 108.262 141.746 108.333 141.743C108.403 141.741 108.474 141.752 108.54 141.777C108.606 141.801 108.667 141.839 108.719 141.887C108.771 141.935 108.813 141.993 108.842 142.058C108.872 142.122 108.888 142.191 108.891 142.262C108.893 142.333 108.882 142.404 108.857 142.47C108.833 142.536 108.795 142.597 108.747 142.649C108.699 142.701 108.641 142.743 108.577 142.772C107.144 143.461 105.011 143.838 102.656 143.838Z" fill="black"/>
<path d="M90.2437 138.259C90.2437 138.259 101.439 143.426 106.76 137.232C113.222 129.692 98.8606 126.055 91.9526 126.102" fill="#FFCDB2"/>
<path d="M99.1947 140.837C94.6277 140.837 90.3086 138.88 90.0177 138.747C89.8939 138.684 89.7994 138.575 89.7541 138.444C89.7087 138.312 89.7159 138.168 89.7744 138.042C89.8329 137.916 89.9378 137.817 90.0675 137.766C90.1972 137.716 90.3416 137.717 90.47 137.771C90.5778 137.818 101.36 142.693 106.34 136.881C107.776 135.207 108.181 133.671 107.546 132.306C105.891 128.741 97.3311 126.612 91.9455 126.648C91.8026 126.648 91.6657 126.591 91.5647 126.49C91.4637 126.389 91.4069 126.252 91.4069 126.109C91.4069 125.966 91.4637 125.829 91.5647 125.728C91.6657 125.627 91.8026 125.571 91.9455 125.571C96.7064 125.524 106.436 127.341 108.533 131.854C109.363 133.649 108.892 135.559 107.169 137.599C105.033 140.065 102.063 140.837 99.1947 140.837Z" fill="black"/>
<path d="M93.2847 113.758C93.2847 113.758 107.722 112.921 110.702 119.639C113.682 126.357 103.88 128.256 103.88 128.256" fill="#FFCDB2"/>
<path d="M103.877 128.795C103.734 128.808 103.591 128.765 103.48 128.674C103.37 128.583 103.3 128.451 103.286 128.308C103.272 128.165 103.316 128.023 103.407 127.912C103.498 127.801 103.63 127.731 103.773 127.718C103.823 127.718 108.799 126.709 110.293 123.808C110.892 122.659 110.864 121.327 110.206 119.858C107.413 113.561 93.45 114.289 93.3316 114.297C93.1887 114.305 93.0484 114.257 92.9413 114.162C92.8342 114.067 92.7693 113.933 92.7607 113.79C92.7522 113.647 92.8008 113.507 92.8957 113.4C92.9907 113.293 93.1242 113.228 93.267 113.219C93.8738 113.184 108.113 112.44 111.219 119.417C112.016 121.212 112.034 122.86 111.273 124.317C109.521 127.678 104.232 128.737 104.01 128.78L103.877 128.795Z" fill="black"/>
<path d="M105.367 102.832C105.367 102.832 114.497 103.999 114.289 109.945C114.124 114.612 107.108 116.048 107.108 116.048" fill="#FFCDB2"/>
<path d="M107.108 116.587C106.965 116.601 106.823 116.558 106.712 116.467C106.601 116.376 106.53 116.245 106.516 116.102C106.501 115.959 106.545 115.817 106.636 115.706C106.727 115.595 106.858 115.524 107.001 115.51C107.069 115.51 113.603 114.117 113.751 109.916C113.941 104.53 105.385 103.367 105.299 103.356C105.156 103.338 105.026 103.264 104.938 103.15C104.85 103.037 104.81 102.892 104.829 102.75C104.847 102.607 104.921 102.477 105.034 102.389C105.148 102.3 105.292 102.261 105.435 102.279C105.826 102.329 115.05 103.583 114.828 109.945C114.648 114.996 107.518 116.497 107.216 116.558C107.181 116.571 107.145 116.581 107.108 116.587Z" fill="black"/>
<path d="M110.304 124.993C110.304 124.993 120.544 128.414 117.427 134.651L110.304 124.993Z" fill="#FFCDB2"/>
<path d="M117.427 135.189C117.335 135.189 117.245 135.166 117.165 135.121C117.085 135.076 117.018 135.012 116.969 134.934C116.921 134.856 116.894 134.767 116.89 134.675C116.885 134.583 116.905 134.492 116.946 134.41C117.253 133.865 117.433 133.257 117.471 132.632C117.51 132.007 117.406 131.381 117.168 130.802C115.772 127.427 110.189 125.524 110.131 125.506C109.996 125.458 109.884 125.359 109.822 125.229C109.76 125.1 109.752 124.951 109.799 124.815C109.847 124.679 109.946 124.568 110.076 124.506C110.205 124.443 110.355 124.435 110.49 124.483C110.742 124.565 116.594 126.558 118.181 130.389C118.477 131.111 118.607 131.89 118.563 132.669C118.519 133.448 118.301 134.207 117.926 134.891C117.88 134.984 117.809 135.061 117.72 135.113C117.632 135.166 117.53 135.193 117.427 135.189Z" fill="black"/>
<path d="M134.754 190.37C134.754 190.37 125.778 215.086 124.701 227.861L134.754 190.37Z" fill="#382256"/>
<path d="M124.694 228.4H124.647C124.505 228.387 124.374 228.319 124.282 228.21C124.19 228.101 124.144 227.961 124.155 227.819C125.233 215.119 134.158 190.435 134.248 190.187C134.267 190.116 134.302 190.05 134.348 189.992C134.395 189.934 134.453 189.887 134.518 189.853C134.584 189.818 134.656 189.798 134.73 189.793C134.803 189.788 134.878 189.798 134.947 189.822C135.017 189.847 135.081 189.886 135.135 189.937C135.189 189.987 135.232 190.048 135.262 190.116C135.291 190.184 135.306 190.257 135.306 190.332C135.305 190.406 135.29 190.479 135.26 190.547C135.171 190.794 126.284 215.345 125.229 227.887C125.223 228.025 125.164 228.156 125.065 228.251C124.965 228.347 124.832 228.4 124.694 228.4Z" fill="black"/>
<path d="M75.8715 120.178C75.8091 120.178 75.7472 120.167 75.6885 120.146C66.2301 116.77 57.9047 110.815 51.6541 102.955C46.5772 96.6176 42.5955 88.909 39.8057 80.0371C35.0736 64.9573 35.4687 51.5364 35.4723 51.4035C35.4789 51.2613 35.5405 51.1273 35.6445 51.03C35.7485 50.9328 35.8864 50.88 36.0288 50.8829C36.0995 50.8852 36.1691 50.9015 36.2335 50.9307C36.298 50.9599 36.3559 51.0016 36.4043 51.0533C36.4526 51.105 36.4902 51.1657 36.5151 51.2319C36.54 51.2982 36.5519 51.3687 36.5495 51.4395C36.5495 51.5723 36.1617 64.8317 40.8579 79.7463C45.1664 93.4581 54.7671 111.421 76.0619 119.133C76.1809 119.176 76.2807 119.26 76.3441 119.37C76.4075 119.479 76.4305 119.608 76.4087 119.732C76.3868 119.857 76.3215 119.97 76.2246 120.052C76.1277 120.133 76.0051 120.178 75.8785 120.178H75.8715Z" fill="black"/>
<path d="M60.0124 123.38H59.9658C49.1945 122.422 41.3494 115.747 36.6782 110.318C33.6362 106.79 31.0755 102.873 29.063 98.671C29.0281 98.6055 29.0074 98.5336 29.0016 98.4596C28.9959 98.3856 29.0053 98.3113 29.0297 98.2412C29.054 98.1711 29.0926 98.1068 29.1429 98.0523C29.1933 97.9979 29.2545 97.9544 29.3225 97.9246C29.3904 97.8949 29.4635 97.8795 29.5377 97.8794C29.6119 97.8793 29.6854 97.8946 29.7534 97.9242C29.8214 97.9538 29.8828 97.9972 29.9332 98.0516C29.9837 98.1059 30.0224 98.1702 30.0468 98.2402C30.1474 98.4628 40.0999 120.533 60.0591 122.296C60.2019 122.302 60.3365 122.365 60.4332 122.47C60.5298 122.576 60.5803 122.715 60.5741 122.858C60.5679 123.001 60.5056 123.135 60.4002 123.232C60.2948 123.328 60.1553 123.379 60.0124 123.373V123.38Z" fill="black"/>
<path d="M155.126 265.92C156.741 265.92 158.049 264.611 158.049 262.997C158.049 261.383 156.741 260.075 155.126 260.075C153.512 260.075 152.204 261.383 152.204 262.997C152.204 264.611 153.512 265.92 155.126 265.92Z" fill="#51CEF4"/>
<path d="M261.402 227.861C263.016 227.861 264.325 226.553 264.325 224.939C264.325 223.325 263.016 222.016 261.402 222.016C259.788 222.016 258.479 223.325 258.479 224.939C258.479 226.553 259.788 227.861 261.402 227.861Z" fill="#51CEF4"/>
<path d="M248.118 247.608C249.732 247.608 251.041 246.3 251.041 244.686C251.041 243.072 249.732 241.763 248.118 241.763C246.504 241.763 245.195 243.072 245.195 244.686C245.195 246.3 246.504 247.608 248.118 247.608Z" fill="#51CEF4"/>
<path d="M189.235 263.406C190.849 263.406 192.158 262.098 192.158 260.484C192.158 258.87 190.849 257.561 189.235 257.561C187.621 257.561 186.312 258.87 186.312 260.484C186.312 262.098 187.621 263.406 189.235 263.406Z" fill="#51CEF4"/>
<path d="M171.865 96.122C171.562 96.1224 171.26 96.1068 170.96 96.0754C164.418 95.4147 158.393 87.76 158.138 87.4333C157.963 87.2076 157.885 86.9215 157.921 86.638C157.956 86.3546 158.103 86.0969 158.329 85.9217C158.554 85.7465 158.84 85.6681 159.124 85.7038C159.407 85.7394 159.665 85.8863 159.84 86.112C159.894 86.1838 165.556 93.3682 171.182 93.9319C172.028 94.0294 172.886 93.9446 173.696 93.6833C174.507 93.4219 175.252 92.9901 175.882 92.4168C175.99 92.3248 176.114 92.2549 176.249 92.2111C176.383 92.1673 176.525 92.1505 176.666 92.1615C176.807 92.1725 176.945 92.2111 177.071 92.2752C177.197 92.3394 177.309 92.4277 177.401 92.5352C177.493 92.6427 177.563 92.7673 177.606 92.9018C177.65 93.0363 177.667 93.1781 177.656 93.3191C177.645 93.4602 177.606 93.5976 177.542 93.7237C177.478 93.8498 177.39 93.962 177.282 94.054C175.792 95.3854 173.863 96.1216 171.865 96.122Z" fill="white"/>
<path d="M183.354 61.3956C183.144 61.3961 182.937 61.3347 182.761 61.2192C182.585 61.1037 182.446 60.9391 182.363 60.7457C178.166 51.0516 168.001 54.7067 167.574 54.8646C167.307 54.9651 167.01 54.9552 166.75 54.837C166.49 54.7188 166.287 54.5021 166.186 54.2345C166.086 53.9669 166.096 53.6704 166.214 53.4102C166.332 53.15 166.549 52.9473 166.816 52.8468C166.942 52.8002 179.326 48.3121 184.341 59.8912C184.454 60.1531 184.459 60.4492 184.354 60.7144C184.249 60.9796 184.043 61.1923 183.781 61.3059C183.646 61.3646 183.501 61.3952 183.354 61.3956Z" fill="white"/>
<path d="M126.317 248.714H126.295C126.154 248.712 126.014 248.681 125.885 248.624C125.755 248.567 125.638 248.486 125.54 248.384C125.442 248.282 125.365 248.161 125.313 248.03C125.262 247.898 125.237 247.757 125.239 247.616C125.958 212.225 137.806 189.2 137.928 188.974C138.06 188.72 138.288 188.53 138.56 188.444C138.833 188.359 139.129 188.385 139.382 188.518C139.635 188.65 139.826 188.877 139.911 189.15C139.997 189.423 139.971 189.718 139.838 189.972C139.72 190.198 128.097 212.81 127.394 247.659C127.388 247.941 127.272 248.209 127.071 248.407C126.869 248.604 126.599 248.714 126.317 248.714Z" fill="white"/>
<path d="M128.471 263.794C128.205 263.796 127.948 263.699 127.749 263.523C127.55 263.347 127.424 263.103 127.394 262.839L126.316 253.504C126.284 253.218 126.367 252.931 126.546 252.707C126.725 252.482 126.986 252.337 127.272 252.305C127.557 252.272 127.844 252.355 128.069 252.534C128.294 252.713 128.438 252.974 128.471 253.26L129.548 262.595C129.58 262.879 129.498 263.164 129.321 263.387C129.143 263.611 128.884 263.754 128.6 263.787L128.471 263.794Z" fill="white"/>
<path d="M77.8458 164.699C77.7476 164.698 77.65 164.685 77.5551 164.659C77.4188 164.621 77.2913 164.557 77.1799 164.469C77.0686 164.382 76.9755 164.273 76.9061 164.15C76.8368 164.027 76.7925 163.891 76.7757 163.75C76.7588 163.61 76.77 163.467 76.8083 163.331C81.2389 147.454 91.9167 144.891 92.3691 144.79C92.6439 144.737 92.9283 144.793 93.1625 144.946C93.3968 145.099 93.5624 145.338 93.624 145.611C93.6856 145.884 93.6382 146.17 93.4925 146.409C93.3467 146.648 93.1137 146.82 92.8428 146.89C92.4299 146.987 82.9476 149.353 78.8833 163.913C78.8198 164.139 78.6842 164.338 78.4969 164.48C78.3096 164.622 78.0808 164.699 77.8458 164.699Z" fill="white"/>
<path d="M111.955 109.407C111.69 109.407 111.435 109.31 111.237 109.134C105.32 103.877 98.0315 106.445 97.9525 106.47C97.6839 106.568 97.3874 106.555 97.1281 106.435C96.8689 106.314 96.6684 106.096 96.5703 105.827C96.4722 105.558 96.4848 105.262 96.6054 105.003C96.7259 104.743 96.9445 104.543 97.213 104.445C97.572 104.319 105.798 101.422 112.652 107.525C112.815 107.671 112.93 107.862 112.982 108.074C113.033 108.287 113.019 108.51 112.941 108.714C112.863 108.918 112.726 109.093 112.546 109.217C112.366 109.341 112.152 109.407 111.934 109.407H111.955Z" fill="white"/>
<path d="M109.083 121.255C108.808 121.255 108.543 121.15 108.343 120.961C102.721 115.668 92.1577 117.625 92.0536 117.647C91.7727 117.701 91.4817 117.641 91.2447 117.481C91.0077 117.321 90.8439 117.073 90.7896 116.792C90.7353 116.511 90.7949 116.22 90.9551 115.983C91.1154 115.746 91.3632 115.583 91.6441 115.528C92.1216 115.439 103.388 113.342 109.822 119.395C109.979 119.543 110.088 119.735 110.134 119.945C110.181 120.156 110.163 120.376 110.084 120.576C110.004 120.776 109.866 120.948 109.687 121.069C109.509 121.19 109.298 121.255 109.083 121.255Z" fill="white"/>
<path d="M245.856 172.181C235.886 157.5 226.583 147.59 218.63 153.256C205.845 162.365 227.387 186.78 215.313 208.369C208.387 220.749 210.645 241.239 222.616 249.537C234.586 257.834 257.809 189.778 245.856 172.181Z" fill="#FFCDB2"/>
<path d="M224.755 250.772C223.877 250.767 223.021 250.492 222.306 249.982C209.779 241.279 208.006 220.325 214.842 208.107C220.981 197.127 218.307 185.487 215.948 175.247C213.75 165.686 211.848 157.428 218.318 152.818C219.267 152.107 220.353 151.6 221.508 151.33C222.663 151.059 223.861 151.03 225.028 151.246C230.744 152.272 237.307 158.635 246.301 171.88C250.775 178.468 250.829 193.113 246.437 211.058C242.449 227.369 235.832 242.227 229.969 248.039C227.89 250.09 226.148 250.772 224.755 250.772ZM223.423 152.175C221.806 152.19 220.235 152.722 218.942 153.694C213.061 157.888 214.799 165.442 217 175.007C219.402 185.451 222.123 197.289 215.783 208.631C212.476 214.544 211.216 222.68 212.418 230.4C213.679 238.521 217.506 245.336 222.924 249.095C224.655 250.298 226.769 249.684 229.211 247.268C234.956 241.591 241.447 226.939 245.393 210.803C249.701 193.149 249.701 178.823 245.411 172.483C239.472 163.744 231.767 153.551 224.838 152.305C224.371 152.22 223.898 152.176 223.423 152.175Z" fill="black"/>
<path d="M276.558 298.912L230.184 297.835C216.54 297.58 201.891 286.418 206.343 274.232L255.697 134.945C260.153 122.759 274.83 113.09 288.485 113.345L346.707 114.422C362.745 116.049 365.259 132.206 357.36 149.44L309.341 279.826C304.889 292.011 302.426 298.801 276.558 298.912Z" fill="#382256"/>
<path d="M287.953 113.356H288.485L346.707 114.433C362.745 116.06 365.259 132.217 357.36 149.451L309.341 279.836C304.889 292.022 302.426 298.812 276.557 298.923L230.184 297.846C216.54 297.591 201.891 286.428 206.343 274.243L255.697 134.956C260.095 122.928 274.45 113.353 287.953 113.353V113.356ZM287.953 112.275C281.203 112.275 274.051 114.573 267.811 118.738C261.571 122.903 256.889 128.551 254.685 134.575L205.331 273.884C203.672 278.418 204.358 283.111 207.323 287.434C211.844 294.029 221.236 298.754 230.162 298.923L276.532 300H276.561C289.034 299.946 296.757 298.338 301.608 294.783C306.275 291.362 308.07 286.45 310.343 280.235V280.206L358.347 149.874C363.492 138.625 364.189 128.242 360.261 121.381C357.618 116.767 352.965 113.995 346.804 113.37H346.714L288.492 112.293L287.953 112.275Z" fill="black"/>
<path d="M274.812 289.908L224.482 288.96C211.998 288.726 205.18 279.506 209.252 268.365L257.819 135.498C261.89 124.368 275.312 115.521 287.792 115.751L338.126 116.699C350.606 116.932 357.424 126.152 353.353 137.293L304.789 270.16C300.717 281.301 287.296 290.141 274.812 289.908Z" fill="white"/>
<path d="M275.298 290.45H274.802L224.472 289.502C218.038 289.383 212.875 286.96 209.945 282.68C207.212 278.695 206.789 273.546 208.746 268.185L257.313 135.319C261.453 123.998 275.121 114.972 287.803 115.212L338.137 116.16C344.571 116.279 349.73 118.702 352.664 122.982C355.396 126.967 355.82 132.116 353.859 137.476L305.295 270.343C301.21 281.52 287.832 290.45 275.298 290.45ZM274.824 289.372C287.07 289.617 300.29 280.903 304.265 269.984L352.829 137.117C354.667 132.091 354.287 127.29 351.752 123.599C349.023 119.618 344.172 117.359 338.108 117.248L287.778 116.3H287.3C275.186 116.3 262.257 124.917 258.319 135.688L209.751 268.555C207.916 273.582 208.315 278.382 210.828 282.073C213.56 286.055 218.411 288.313 224.489 288.425L274.824 289.372Z" fill="black"/>
<path d="M319.1 186.564L256.839 185.394L273.462 139.921L335.724 141.092L319.1 186.564Z" fill="white"/>
<path d="M273.462 139.925L335.724 141.095L319.1 186.568L256.839 185.397L273.462 139.925ZM273.462 138.848C273.24 138.848 273.023 138.918 272.842 139.046C272.661 139.175 272.524 139.356 272.45 139.566L255.83 185.038C255.773 185.199 255.755 185.371 255.777 185.539C255.8 185.708 255.862 185.869 255.959 186.009C256.055 186.149 256.184 186.265 256.334 186.346C256.484 186.426 256.651 186.471 256.821 186.474L319.082 187.645H319.1C319.322 187.644 319.539 187.575 319.72 187.446C319.901 187.318 320.038 187.136 320.112 186.927L336.736 141.454C336.793 141.293 336.811 141.121 336.788 140.952C336.766 140.783 336.703 140.622 336.606 140.482C336.509 140.342 336.38 140.226 336.23 140.146C336.079 140.065 335.912 140.021 335.742 140.018L273.48 138.848H273.462Z" fill="black"/>
<path d="M289.012 159.016C288.944 159.015 288.876 159.001 288.811 158.976C288.744 158.949 288.683 158.909 288.631 158.858C288.58 158.808 288.538 158.747 288.511 158.68C288.483 158.613 288.469 158.541 288.469 158.469C288.47 158.396 288.485 158.325 288.513 158.258C288.722 157.748 293.659 145.76 299.357 143.749C301.604 142.956 302.979 143.652 303.733 144.374C305.916 146.467 306.088 151.863 304.178 158.121C304.136 158.258 304.042 158.373 303.915 158.44C303.789 158.507 303.641 158.522 303.503 158.481C303.435 158.46 303.372 158.427 303.317 158.382C303.262 158.338 303.217 158.282 303.184 158.22C303.15 158.157 303.129 158.089 303.123 158.018C303.116 157.948 303.123 157.877 303.144 157.809C304.911 152.021 304.846 146.937 302.983 145.153C302.204 144.403 301.102 144.273 299.712 144.762C294.466 146.614 289.558 158.545 289.508 158.664C289.471 158.766 289.404 158.854 289.316 158.917C289.227 158.98 289.121 159.015 289.012 159.016Z" fill="black"/>
<path d="M284.647 153.763L267.671 176.594L308.76 177.37L311.869 154.276L284.647 153.763Z" fill="#4BD657"/>
<path d="M308.756 177.905L267.668 177.133C267.569 177.131 267.472 177.102 267.389 177.049C267.306 176.996 267.238 176.921 267.194 176.833C267.151 176.744 267.132 176.645 267.141 176.547C267.149 176.448 267.185 176.354 267.244 176.275L284.219 153.443C284.271 153.375 284.338 153.319 284.414 153.281C284.491 153.243 284.575 153.224 284.661 153.224L311.887 153.738C311.963 153.739 312.038 153.756 312.107 153.789C312.176 153.821 312.236 153.867 312.286 153.925C312.336 153.983 312.372 154.05 312.394 154.123C312.416 154.196 312.421 154.273 312.411 154.348L309.298 177.438C309.281 177.569 309.216 177.688 309.116 177.774C309.016 177.86 308.888 177.907 308.756 177.905ZM268.727 176.077L308.29 176.82L311.255 154.804L284.912 154.308L268.727 176.077Z" fill="black"/>
<path d="M302.017 167.855C301.948 167.856 301.879 167.843 301.816 167.815C301.748 167.789 301.687 167.749 301.635 167.698C301.583 167.648 301.542 167.587 301.514 167.52C301.486 167.453 301.472 167.381 301.473 167.308C301.473 167.236 301.489 167.164 301.518 167.097C301.658 166.738 304.951 158.76 308.792 157.403C310.365 156.847 311.334 157.342 311.873 157.859C313.384 159.295 313.517 162.861 312.232 167.13C312.19 167.266 312.095 167.381 311.969 167.448C311.843 167.515 311.695 167.529 311.558 167.487C311.422 167.445 311.307 167.35 311.24 167.224C311.173 167.098 311.16 166.95 311.202 166.814C312.35 163.054 312.325 159.769 311.144 158.635C310.674 158.186 310.027 158.114 309.169 158.419C305.78 159.615 302.566 167.424 302.534 167.503C302.496 167.609 302.426 167.7 302.333 167.763C302.24 167.826 302.13 167.858 302.017 167.855Z" fill="black"/>
<path d="M299.131 164.204L287.914 179.291L315.065 179.8L317.122 164.541L299.131 164.204Z" fill="#07ACEE"/>
<path d="M315.065 180.339L287.911 179.829C287.812 179.827 287.715 179.798 287.632 179.745C287.548 179.692 287.481 179.618 287.437 179.529C287.394 179.44 287.375 179.341 287.384 179.243C287.393 179.145 287.428 179.05 287.487 178.971L298.707 163.891C298.76 163.825 298.827 163.771 298.904 163.734C298.98 163.697 299.064 163.677 299.149 163.676L317.14 164.013C317.216 164.015 317.29 164.033 317.359 164.065C317.428 164.097 317.489 164.143 317.539 164.2C317.587 164.258 317.624 164.326 317.645 164.399C317.667 164.472 317.674 164.548 317.664 164.624L315.607 179.883C315.587 180.012 315.521 180.129 315.421 180.213C315.322 180.296 315.195 180.341 315.065 180.339ZM288.969 178.773L314.598 179.255L316.508 165.069L299.396 164.746L288.969 178.773Z" fill="black"/>
<path d="M273.933 218.641L249.877 218.189C246.567 218.124 244.761 215.675 245.842 212.728L249.87 201.705C250.947 198.754 254.506 196.409 257.816 196.474L281.872 196.926C285.182 196.987 286.988 199.44 285.907 202.384L281.879 213.406C280.802 216.358 277.244 218.702 273.933 218.641Z" fill="#07ACEE"/>
<path d="M257.679 196.47H257.808L281.864 196.923C285.175 196.984 286.98 199.436 285.9 202.38L281.871 213.403C280.794 216.318 277.33 218.638 274.055 218.638H273.926L249.87 218.185C246.56 218.121 244.754 215.672 245.834 212.724L249.863 201.702C250.94 198.79 254.408 196.467 257.679 196.467V196.47ZM257.679 195.39C253.945 195.39 250.067 198 248.85 201.332L244.822 212.354C244.197 214.067 244.348 215.733 245.246 217.047C246.186 218.415 247.863 219.223 249.848 219.262L273.904 219.715H274.051C277.785 219.715 281.663 217.104 282.88 213.773L286.909 202.75C287.533 201.037 287.386 199.371 286.485 198.057C285.548 196.689 283.868 195.882 281.882 195.846L257.826 195.393L257.679 195.39Z" fill="black"/>
<path d="M263.944 245.975L239.889 245.523C236.582 245.462 234.772 243.009 235.853 240.065L239.881 229.043C240.958 226.088 244.516 223.747 247.827 223.808L271.883 224.26C275.193 224.321 276.999 226.774 275.918 229.718L271.89 240.74C270.809 243.688 267.251 246.036 263.944 245.975Z" fill="#4BD657"/>
<path d="M264.07 246.514H263.934L239.878 246.061C238.083 246.025 236.55 245.304 235.709 244.079C234.912 242.916 234.783 241.422 235.35 239.878L239.379 228.856C240.528 225.711 244.326 223.223 247.841 223.269L271.897 223.722C273.692 223.758 275.229 224.479 276.066 225.704C276.867 226.867 276.996 228.36 276.425 229.904L272.397 240.927C271.258 244.047 267.546 246.514 264.07 246.514ZM263.952 245.436C267.047 245.498 270.379 243.304 271.38 240.557L275.412 229.535C275.854 228.325 275.771 227.183 275.172 226.303C274.522 225.355 273.348 224.82 271.869 224.792L247.813 224.339C244.721 224.296 241.39 226.472 240.384 229.219L236.356 240.241C235.914 241.451 235.997 242.593 236.593 243.472C237.243 244.42 238.417 244.955 239.896 244.984L263.952 245.436Z" fill="black"/>
<path d="M252.925 276.12L228.87 275.668C225.563 275.607 223.753 273.154 224.834 270.21L228.863 259.188C229.94 256.233 233.498 253.892 236.808 253.953L260.864 254.405C264.174 254.466 265.98 256.918 264.903 259.863L260.871 270.885C259.79 273.847 256.232 276.181 252.925 276.12Z" fill="white"/>
<path d="M253.058 276.659H252.922L228.866 276.206C227.071 276.17 225.537 275.449 224.697 274.224C223.9 273.061 223.771 271.568 224.338 270.024L228.367 259.001C229.519 255.856 233.303 253.361 236.829 253.414L260.885 253.867C262.68 253.903 264.217 254.624 265.054 255.849C265.854 257.012 265.984 258.506 265.413 260.05L261.384 271.072C260.239 274.178 256.526 276.659 253.058 276.659ZM252.94 275.582H253.062C256.117 275.582 259.377 273.427 260.368 270.702L264.4 259.68C264.842 258.47 264.759 257.328 264.16 256.448C263.51 255.5 262.339 254.965 260.856 254.937L236.801 254.484C233.695 254.427 230.377 256.617 229.372 259.364L225.343 270.386C224.902 271.596 224.984 272.738 225.58 273.618C226.23 274.566 227.404 275.101 228.884 275.129L252.94 275.582Z" fill="black"/>
<path d="M306.957 212.022C311.654 207.992 313.152 202.033 310.302 198.712C307.452 195.39 301.334 195.965 296.638 199.995C291.941 204.025 290.443 209.984 293.293 213.305C296.143 216.627 302.261 216.052 306.957 212.022Z" fill="#07ACEE"/>
<path d="M298.706 216.3H298.523C295.985 216.254 293.906 215.223 292.671 213.428C291.325 211.464 291.134 208.739 292.154 205.949C294.132 200.538 300.082 196.216 305.438 196.32C307.977 196.366 310.052 197.397 311.291 199.192C312.637 201.156 312.824 203.881 311.804 206.671C309.866 212.017 304.013 216.3 298.706 216.3ZM305.263 197.39C300.376 197.39 294.976 201.361 293.166 206.315C292.269 208.775 292.412 211.141 293.558 212.818C294.592 214.326 296.362 215.18 298.541 215.22C303.467 215.317 308.975 211.31 310.806 206.297C311.707 203.838 311.564 201.472 310.415 199.795C309.381 198.287 307.611 197.433 305.431 197.393L305.263 197.39Z" fill="black"/>
<path d="M296.221 241.402C300.917 237.372 302.415 231.413 299.565 228.092C296.715 224.77 290.598 225.345 285.901 229.375C281.204 233.404 279.707 239.364 282.556 242.685C285.406 246.007 291.524 245.432 296.221 241.402Z" fill="#07ACEE"/>
<path d="M287.968 245.677H287.785C285.246 245.627 283.168 244.6 281.933 242.805C280.586 240.841 280.396 238.112 281.416 235.326C283.373 229.976 289.225 225.693 294.531 225.693H294.714C297.253 225.743 299.328 226.77 300.567 228.565C301.913 230.529 302.1 233.258 301.08 236.044C299.127 241.394 293.271 245.677 287.968 245.677ZM294.524 226.77C289.638 226.77 284.238 230.719 282.428 235.696C281.53 238.152 281.674 240.521 282.819 242.194C283.853 243.706 285.623 244.557 287.803 244.6C292.725 244.701 298.237 240.69 300.068 235.674C300.969 233.218 300.825 230.849 299.676 229.176C298.642 227.668 296.872 226.813 294.693 226.77H294.524Z" fill="black"/>
<path d="M285.205 271.549C289.902 267.519 291.4 261.56 288.55 258.238C285.7 254.917 279.582 255.492 274.886 259.522C270.189 263.551 268.691 269.511 271.541 272.832C274.391 276.153 280.509 275.579 285.205 271.549Z" fill="#07ACEE"/>
<path d="M276.949 275.822H276.766C274.227 275.772 272.148 274.745 270.913 272.95C269.567 270.986 269.376 268.257 270.396 265.471C272.353 260.121 278.205 255.838 283.512 255.838H283.695C286.233 255.888 288.312 256.915 289.547 258.71C290.894 260.678 291.08 263.403 290.061 266.189C288.107 271.539 282.255 275.822 276.949 275.822ZM283.505 256.915C278.618 256.915 273.222 260.864 271.409 265.841C270.511 268.297 270.655 270.666 271.8 272.339C272.834 273.851 274.604 274.702 276.783 274.745C281.72 274.853 287.217 270.835 289.048 265.819C289.95 263.363 289.806 260.994 288.657 259.321C287.623 257.813 285.853 256.958 283.673 256.915H283.505Z" fill="black"/>
<path d="M274.511 206.348L257.119 206.021C256.976 206.018 256.84 205.959 256.741 205.856C256.643 205.753 256.589 205.615 256.591 205.472C256.594 205.329 256.654 205.193 256.757 205.094C256.86 204.995 256.998 204.941 257.141 204.944L274.533 205.271C274.675 205.271 274.813 205.327 274.914 205.428C275.015 205.529 275.071 205.666 275.071 205.809C275.071 205.952 275.015 206.089 274.914 206.19C274.813 206.291 274.675 206.348 274.533 206.348H274.511Z" fill="black"/>
<path d="M267.323 212.11L256.232 211.902C256.089 211.902 255.952 211.845 255.851 211.744C255.75 211.643 255.693 211.506 255.693 211.363C255.693 211.22 255.75 211.083 255.851 210.982C255.952 210.881 256.089 210.825 256.232 210.825L267.323 211.033C267.466 211.033 267.603 211.09 267.704 211.191C267.805 211.292 267.861 211.429 267.861 211.572C267.861 211.714 267.805 211.851 267.704 211.952C267.603 212.053 267.466 212.11 267.323 212.11Z" fill="black"/>
<path d="M263.772 235.707L246.38 235.38C246.309 235.379 246.239 235.364 246.174 235.336C246.109 235.307 246.05 235.267 246.001 235.216C245.952 235.164 245.914 235.104 245.888 235.038C245.863 234.972 245.85 234.901 245.852 234.831C245.857 234.688 245.917 234.554 246.02 234.455C246.122 234.356 246.259 234.302 246.402 234.303L263.794 234.629C263.937 234.629 264.074 234.686 264.175 234.787C264.276 234.888 264.332 235.025 264.332 235.168C264.332 235.311 264.276 235.448 264.175 235.549C264.074 235.65 263.937 235.707 263.794 235.707H263.772Z" fill="black"/>
<path d="M245.49 269.062L234.148 268.846C234.077 268.845 234.007 268.83 233.942 268.801C233.878 268.773 233.819 268.732 233.77 268.681C233.721 268.63 233.683 268.57 233.657 268.504C233.631 268.438 233.619 268.368 233.62 268.297C233.622 268.226 233.637 268.156 233.665 268.092C233.693 268.027 233.734 267.968 233.785 267.919C233.836 267.87 233.897 267.832 233.962 267.806C234.028 267.78 234.099 267.768 234.169 267.769L245.512 267.985C245.655 267.985 245.791 268.041 245.892 268.142C245.993 268.243 246.05 268.38 246.05 268.523C246.05 268.666 245.993 268.803 245.892 268.904C245.791 269.005 245.655 269.062 245.512 269.062H245.49Z" fill="black"/>
<path d="M253.593 263.554L236.201 263.227C236.13 263.226 236.061 263.21 235.996 263.182C235.931 263.154 235.873 263.113 235.824 263.062C235.775 263.011 235.736 262.951 235.71 262.885C235.685 262.819 235.672 262.748 235.673 262.678C235.678 262.535 235.738 262.401 235.841 262.302C235.943 262.204 236.081 262.149 236.223 262.15L253.615 262.477C253.757 262.477 253.894 262.533 253.995 262.634C254.096 262.735 254.153 262.872 254.153 263.015C254.153 263.158 254.096 263.295 253.995 263.396C253.894 263.497 253.757 263.554 253.615 263.554H253.593Z" fill="black"/>
<path d="M277.29 263.46L276.999 269.115L285.282 261.037" fill="#07ACEE"/>
<path d="M276.999 269.65C276.926 269.651 276.854 269.636 276.787 269.608C276.72 269.579 276.659 269.538 276.608 269.485C276.558 269.432 276.519 269.369 276.493 269.301C276.468 269.232 276.457 269.159 276.461 269.086L276.752 263.431C276.759 263.289 276.823 263.155 276.93 263.059C277.036 262.963 277.176 262.914 277.319 262.922C277.462 262.929 277.596 262.993 277.691 263.1C277.787 263.206 277.836 263.346 277.829 263.489L277.606 267.769L284.906 260.653C284.956 260.601 285.016 260.559 285.082 260.531C285.148 260.503 285.22 260.488 285.292 260.488C285.364 260.488 285.436 260.502 285.502 260.53C285.569 260.558 285.629 260.599 285.679 260.651C285.73 260.703 285.769 260.764 285.795 260.831C285.821 260.899 285.834 260.971 285.832 261.043C285.829 261.115 285.813 261.186 285.782 261.251C285.752 261.317 285.709 261.376 285.656 261.424L277.377 269.499C277.275 269.596 277.14 269.651 276.999 269.65Z" fill="black"/>
<path d="M288.122 233.825L289.407 240.022L297.755 232.464" fill="#07ACEE"/>
<path d="M289.408 240.561C289.352 240.561 289.296 240.553 289.243 240.536C289.153 240.506 289.072 240.453 289.009 240.382C288.946 240.312 288.903 240.226 288.884 240.133L287.598 233.936C287.569 233.796 287.597 233.651 287.675 233.531C287.754 233.412 287.876 233.328 288.016 233.299C288.156 233.27 288.302 233.298 288.422 233.376C288.541 233.455 288.625 233.577 288.654 233.717L289.749 238.992L297.396 232.066C297.447 232.011 297.509 231.967 297.578 231.938C297.646 231.908 297.72 231.893 297.795 231.894C297.87 231.894 297.944 231.91 298.012 231.941C298.08 231.972 298.141 232.016 298.191 232.072C298.241 232.127 298.279 232.193 298.302 232.264C298.326 232.335 298.334 232.41 298.327 232.484C298.32 232.559 298.297 232.631 298.261 232.696C298.224 232.761 298.174 232.818 298.114 232.863L289.767 240.421C289.669 240.511 289.541 240.561 289.408 240.561Z" fill="black"/>
<path d="M298.01 204.689L299.773 211.665L306.383 203.303" fill="#07ACEE"/>
<path d="M299.773 212.204C299.736 212.207 299.699 212.207 299.662 212.204C299.563 212.183 299.473 212.134 299.401 212.065C299.328 211.995 299.277 211.906 299.252 211.809L297.49 204.832C297.466 204.762 297.458 204.688 297.465 204.615C297.471 204.541 297.493 204.47 297.529 204.405C297.564 204.34 297.612 204.284 297.671 204.238C297.729 204.193 297.796 204.16 297.868 204.142C297.939 204.124 298.014 204.12 298.087 204.132C298.16 204.144 298.229 204.171 298.291 204.21C298.354 204.25 298.407 204.302 298.448 204.364C298.489 204.425 298.518 204.494 298.531 204.567L300.028 210.487L305.963 202.98C306.005 202.921 306.06 202.871 306.122 202.834C306.184 202.796 306.254 202.772 306.326 202.761C306.398 202.751 306.471 202.756 306.541 202.775C306.611 202.794 306.677 202.827 306.734 202.873C306.791 202.918 306.838 202.974 306.873 203.038C306.908 203.102 306.929 203.172 306.936 203.245C306.943 203.317 306.935 203.39 306.913 203.459C306.89 203.529 306.854 203.593 306.807 203.648L300.197 212.01C300.145 212.072 300.081 212.122 300.007 212.156C299.934 212.189 299.854 212.206 299.773 212.204Z" fill="black"/>
<path d="M339.149 192.101C339.149 192.101 319.56 169.194 337.157 157.906C354.753 146.618 370.023 165.543 364.049 183.47C358.074 201.397 341.788 203.723 332.841 208.369" fill="#FFCDB2"/>
<path d="M332.841 208.908C332.72 208.908 332.603 208.867 332.509 208.792C332.414 208.718 332.347 208.614 332.319 208.497C332.29 208.38 332.302 208.257 332.351 208.147C332.401 208.037 332.486 207.947 332.593 207.892C334.496 206.904 336.722 206.021 339.077 205.088C347.906 201.587 358.893 197.232 363.539 183.297C366.648 173.962 363.995 163.69 357.076 158.312C351.457 153.942 344.297 153.96 337.44 158.358C333.454 160.915 331.124 164.3 330.518 168.412C328.927 179.183 339.444 191.616 339.551 191.749C339.598 191.803 339.634 191.865 339.657 191.933C339.68 192.001 339.69 192.072 339.685 192.144C339.681 192.215 339.662 192.285 339.63 192.349C339.599 192.413 339.554 192.47 339.501 192.518C339.447 192.565 339.385 192.601 339.317 192.624C339.249 192.647 339.178 192.656 339.106 192.652C339.035 192.647 338.965 192.628 338.901 192.597C338.837 192.565 338.78 192.521 338.733 192.467C338.284 191.943 327.792 179.52 329.451 168.282C330.105 163.837 332.597 160.2 336.858 157.468C344.125 152.8 351.733 152.8 357.736 157.468C365.003 163.119 367.79 173.883 364.558 183.642C359.754 198.05 348.509 202.51 339.476 206.093C337.146 207.016 334.941 207.888 333.088 208.85C333.012 208.89 332.927 208.91 332.841 208.908Z" fill="black"/>
<path d="M332.507 221.65C332.507 221.65 312.921 198.743 330.518 187.455C348.115 176.167 363.384 195.088 357.41 213.019C351.436 230.949 335.15 233.269 326.199 237.918" fill="#FFCDB2"/>
<path d="M326.199 238.457C326.078 238.456 325.961 238.416 325.867 238.341C325.772 238.267 325.705 238.163 325.676 238.046C325.648 237.929 325.66 237.805 325.709 237.696C325.759 237.586 325.844 237.496 325.951 237.441C327.854 236.453 330.08 235.57 332.439 234.636C341.267 231.136 352.254 226.781 356.897 212.846C360.009 203.511 357.356 193.239 350.434 187.861C344.811 183.491 337.655 183.505 330.794 187.907C326.812 190.464 324.483 193.849 323.872 197.96C322.285 208.71 332.801 221.165 332.905 221.298C333.001 221.407 333.049 221.549 333.04 221.693C333.03 221.837 332.964 221.971 332.855 222.066C332.747 222.162 332.605 222.21 332.461 222.2C332.317 222.191 332.182 222.125 332.087 222.016C331.642 221.495 321.147 209.073 322.806 197.835C323.463 193.39 325.955 189.749 330.216 187.017C337.48 182.349 345.091 182.349 351.094 187.017C358.358 192.668 361.148 203.436 357.916 213.194C353.112 227.603 341.867 232.062 332.83 235.645C330.5 236.568 328.299 237.441 326.443 238.403C326.367 238.441 326.283 238.459 326.199 238.457Z" fill="black"/>
<path d="M322.791 245.221C322.791 245.221 303.202 222.314 320.798 211.026C338.395 199.738 353.669 218.663 347.691 236.59C341.713 254.517 325.448 256.843 316.483 261.489" fill="#FFCDB2"/>
<path d="M316.483 262.028C316.363 262.028 316.246 261.987 316.151 261.912C316.057 261.838 315.99 261.734 315.961 261.617C315.933 261.5 315.944 261.377 315.994 261.267C316.043 261.157 316.129 261.067 316.235 261.012C318.138 260.024 320.364 259.141 322.723 258.208C331.549 254.707 342.535 250.352 347.181 236.421C350.294 227.086 347.637 216.81 340.718 211.432C335.099 207.062 327.944 207.08 321.082 211.478C317.097 214.035 314.767 217.421 314.16 221.532C312.573 232.285 323.086 244.736 323.193 244.869C323.239 244.923 323.274 244.985 323.296 245.053C323.318 245.12 323.327 245.191 323.321 245.261C323.316 245.332 323.296 245.4 323.264 245.463C323.232 245.526 323.188 245.583 323.134 245.629C323.08 245.675 323.018 245.71 322.951 245.731C322.884 245.753 322.813 245.762 322.742 245.756C322.672 245.751 322.603 245.731 322.54 245.699C322.477 245.667 322.421 245.623 322.375 245.569C321.926 245.045 311.435 232.622 313.094 221.384C313.751 216.939 316.242 213.302 320.501 210.57C327.768 205.902 335.379 205.902 341.379 210.57C348.646 216.221 351.432 226.985 348.201 236.748C343.397 251.152 332.152 255.612 323.115 259.195C320.784 260.118 318.583 260.99 316.727 261.952C316.653 261.998 316.57 262.024 316.483 262.028Z" fill="black"/>
<path d="M317.147 125.563H317.122C316.989 125.563 303.935 124.845 289.648 118.741C281.247 115.151 274.062 110.405 268.296 104.656C261.079 97.4754 256.089 88.6538 253.435 78.4857C253.405 78.3497 253.429 78.2072 253.501 78.0882C253.574 77.9692 253.69 77.883 253.824 77.8477C253.959 77.8123 254.103 77.8306 254.224 77.8987C254.346 77.9668 254.436 78.0794 254.477 78.2129C260.354 100.804 277.06 112.175 290.022 117.74C304.136 123.786 317.025 124.479 317.154 124.486C317.297 124.489 317.433 124.549 317.531 124.653C317.63 124.756 317.684 124.894 317.681 125.037C317.677 125.18 317.617 125.316 317.514 125.414C317.41 125.513 317.272 125.567 317.129 125.563H317.147Z" fill="black"/>
<path d="M273.843 126.835C270.881 126.806 267.953 126.196 265.226 125.039C259.481 122.67 251.223 116.735 244.473 101.921C244.444 101.856 244.428 101.786 244.426 101.716C244.423 101.645 244.435 101.574 244.46 101.508C244.485 101.441 244.523 101.381 244.571 101.329C244.62 101.277 244.678 101.235 244.743 101.206C244.807 101.177 244.877 101.161 244.948 101.158C245.019 101.156 245.089 101.168 245.156 101.193C245.222 101.218 245.283 101.256 245.334 101.304C245.386 101.353 245.428 101.411 245.457 101.476C252.038 115.923 260.023 121.707 265.563 124.016C271.545 126.508 276.044 125.596 276.091 125.585C276.231 125.555 276.376 125.582 276.497 125.66C276.617 125.738 276.701 125.86 276.731 126C276.761 126.14 276.735 126.286 276.657 126.406C276.579 126.526 276.457 126.611 276.317 126.641C275.5 126.785 274.672 126.85 273.843 126.835Z" fill="black"/>
<path d="M208.717 236.507C208.612 236.507 208.51 236.477 208.422 236.419C208.335 236.362 208.266 236.28 208.225 236.184C202.1 222.138 209.341 203.511 209.661 202.739C209.713 202.607 209.816 202.501 209.947 202.444C210.077 202.388 210.225 202.385 210.358 202.438C210.49 202.49 210.596 202.593 210.653 202.723C210.709 202.854 210.712 203.002 210.659 203.134C210.587 203.324 203.277 222.12 209.223 235.753C209.252 235.818 209.268 235.889 209.27 235.961C209.271 236.032 209.259 236.104 209.233 236.17C209.207 236.237 209.168 236.298 209.118 236.35C209.068 236.401 209.009 236.443 208.943 236.471C208.871 236.498 208.794 236.51 208.717 236.507Z" fill="black"/>
<path d="M368.849 138.489C368.763 138.49 368.677 138.47 368.6 138.43C368.522 138.391 368.456 138.334 368.405 138.263C368.355 138.193 368.322 138.111 368.31 138.025C368.298 137.94 368.307 137.852 368.336 137.771C371.898 126.615 371.567 118.023 367.363 112.279C361.927 104.832 351.716 104.739 351.615 104.739C351.472 104.739 351.335 104.682 351.234 104.581C351.133 104.48 351.077 104.343 351.077 104.2C351.077 104.057 351.133 103.92 351.234 103.819C351.335 103.718 351.472 103.662 351.615 103.662C352.057 103.662 362.462 103.751 368.224 111.64C372.651 117.7 373.036 126.608 369.363 138.115C369.328 138.224 369.259 138.319 369.167 138.386C369.075 138.453 368.963 138.489 368.849 138.489Z" fill="black"/>
<path d="M361.848 180.497C361.788 180.502 361.728 180.502 361.668 180.497C361.529 180.473 361.395 180.423 361.275 180.347C361.155 180.272 361.051 180.174 360.969 180.059C360.887 179.943 360.829 179.813 360.797 179.675C360.765 179.537 360.761 179.394 360.785 179.255C363.794 161.532 347.184 158.376 346.474 158.251C346.202 158.192 345.964 158.031 345.809 157.802C345.653 157.572 345.592 157.291 345.639 157.018C345.685 156.745 345.835 156.5 346.057 156.334C346.28 156.168 346.557 156.095 346.833 156.129C350.19 156.838 353.353 158.267 356.103 160.319C360.171 163.403 364.655 169.252 362.896 179.614C362.851 179.86 362.722 180.082 362.531 180.244C362.339 180.405 362.098 180.494 361.848 180.497Z" fill="white"/>
<path d="M356.463 207.066C356.181 207.066 355.91 206.955 355.708 206.758C355.507 206.56 355.391 206.292 355.385 206.01C355.051 189.34 341.569 188.776 340.995 188.754C340.709 188.751 340.437 188.633 340.238 188.429C340.038 188.224 339.928 187.949 339.932 187.663C339.936 187.377 340.053 187.105 340.258 186.906C340.463 186.706 340.738 186.596 341.024 186.6H341.049C341.211 186.6 357.163 187.2 357.54 205.967C357.542 206.108 357.518 206.249 357.466 206.381C357.414 206.513 357.338 206.633 357.239 206.735C357.141 206.837 357.024 206.919 356.894 206.975C356.765 207.032 356.625 207.063 356.484 207.066H356.463Z" fill="white"/>
<path d="M273.165 174.752C272.967 174.752 272.774 174.698 272.605 174.595C272.437 174.493 272.299 174.346 272.209 174.17C272.118 173.995 272.077 173.798 272.09 173.601C272.104 173.405 272.171 173.215 272.285 173.054L284.492 155.82C284.66 155.594 284.909 155.442 285.187 155.397C285.465 155.353 285.75 155.419 285.979 155.581C286.209 155.743 286.366 155.989 286.417 156.266C286.468 156.543 286.409 156.829 286.252 157.062L274.044 174.296C273.945 174.437 273.813 174.552 273.66 174.631C273.507 174.711 273.337 174.752 273.165 174.752Z" fill="white"/>
<path d="M292.581 178.141C292.382 178.141 292.186 178.085 292.017 177.98C291.847 177.875 291.71 177.725 291.621 177.547C291.532 177.368 291.494 177.169 291.511 176.97C291.528 176.771 291.601 176.581 291.72 176.421L299.586 165.851C299.757 165.622 300.011 165.469 300.294 165.428C300.577 165.386 300.865 165.458 301.094 165.629C301.324 165.799 301.476 166.054 301.518 166.336C301.56 166.619 301.487 166.907 301.317 167.137L293.447 177.707C293.346 177.842 293.216 177.951 293.066 178.027C292.915 178.102 292.75 178.141 292.581 178.141Z" fill="white"/>
<path d="M225.053 236.148C224.93 236.147 224.809 236.125 224.694 236.084C224.425 235.986 224.206 235.786 224.085 235.528C223.964 235.269 223.951 234.973 224.048 234.705L249.899 163.256C250.008 163.006 250.207 162.808 250.457 162.7C250.707 162.592 250.988 162.582 251.245 162.673C251.501 162.764 251.714 162.949 251.84 163.19C251.966 163.431 251.995 163.711 251.923 163.974L226.072 235.423C225.999 235.635 225.861 235.819 225.679 235.949C225.496 236.079 225.277 236.148 225.053 236.148Z" fill="white"/>
<path d="M216.436 261.281C216.305 261.282 216.174 261.258 216.052 261.209C215.785 261.107 215.571 260.904 215.454 260.643C215.338 260.383 215.329 260.087 215.431 259.82L222.971 240.073C223.081 239.817 223.285 239.614 223.541 239.506C223.797 239.398 224.085 239.393 224.345 239.492C224.605 239.591 224.816 239.787 224.934 240.038C225.053 240.29 225.07 240.577 224.981 240.841L217.441 260.588C217.364 260.792 217.226 260.967 217.047 261.091C216.867 261.215 216.654 261.281 216.436 261.281Z" fill="white"/>
<defs>
<filter id="filter0_d_14055_51798" x="-4.01969" y="107.785" width="38.6844" height="38.6839" filterUnits="userSpaceOnUse" color-interpolation-filters="sRGB">
<feFlood flood-opacity="0" result="BackgroundImageFix"/>
<feColorMatrix in="SourceAlpha" type="matrix" values="0 0 0 0 0 0 0 0 0 0 0 0 0 0 0 0 0 0 127 0" result="hardAlpha"/>
<feOffset dy="2.03704"/>
<feGaussianBlur stdDeviation="5.09261"/>
<feComposite in2="hardAlpha" operator="out"/>
<feColorMatrix type="matrix" values="0 0 0 0 0 0 0 0 0 0 0 0 0 0 0 0 0 0 0.05 0"/>
<feBlend mode="normal" in2="BackgroundImageFix" result="effect1_dropShadow_14055_51798"/>
<feBlend mode="normal" in="SourceGraphic" in2="effect1_dropShadow_14055_51798" result="shape"/>
</filter>
<filter id="filter1_d_14055_51798" x="370.649" y="165.21" width="38.6888" height="38.6883" filterUnits="userSpaceOnUse" color-interpolation-filters="sRGB">
<feFlood flood-opacity="0" result="BackgroundImageFix"/>
<feColorMatrix in="SourceAlpha" type="matrix" values="0 0 0 0 0 0 0 0 0 0 0 0 0 0 0 0 0 0 127 0" result="hardAlpha"/>
<feOffset dy="2.03704"/>
<feGaussianBlur stdDeviation="5.09261"/>
<feComposite in2="hardAlpha" operator="out"/>
<feColorMatrix type="matrix" values="0 0 0 0 0 0 0 0 0 0 0 0 0 0 0 0 0 0 0.05 0"/>
<feBlend mode="normal" in2="BackgroundImageFix" result="effect1_dropShadow_14055_51798"/>
<feBlend mode="normal" in="SourceGraphic" in2="effect1_dropShadow_14055_51798" result="shape"/>
</filter>
<linearGradient id="paint0_linear_14055_51798" x1="20.4542" y1="112.038" x2="392.052" y2="200.547" gradientUnits="userSpaceOnUse">
<stop stop-color="#CDD5E2"/>
<stop offset="1" stop-color="#CDD5E2" stop-opacity="0"/>
</linearGradient>
<linearGradient id="paint1_linear_14055_51798" x1="391.41" y1="195.437" x2="353.85" y2="294.044" gradientUnits="userSpaceOnUse">
<stop stop-color="#CDD5E2"/>
<stop offset="1" stop-color="#CDD5E2" stop-opacity="0"/>
</linearGradient>
<linearGradient id="paint2_linear_14055_51798" x1="196.502" y1="23.2607" x2="196.502" y2="365.006" gradientUnits="userSpaceOnUse">
<stop stop-color="#CDD5E2"/>
<stop offset="1" stop-color="#CDD5E2" stop-opacity="0"/>
</linearGradient>
<linearGradient id="paint3_linear_14055_51798" x1="196.505" y1="57.4336" x2="196.505" y2="330.83" gradientUnits="userSpaceOnUse">
<stop stop-color="#CDD5E2"/>
<stop offset="1" stop-color="#CDD5E2" stop-opacity="0"/>
</linearGradient>
</defs>
</svg>
