<svg width="406" height="302" viewBox="0 0 406 302" fill="none" xmlns="http://www.w3.org/2000/svg">
<mask id="mask0_14058_99002" style="mask-type:alpha" maskUnits="userSpaceOnUse" x="0" y="0" width="406" height="302">
<rect width="405.823" height="301.875" fill="#D9D9D9"/>
</mask>
<g mask="url(#mask0_14058_99002)">
<g opacity="0.5">
<mask id="path-2-inside-1_14058_99002" fill="white">
<path d="M389.978 202.565C391.994 156.308 377.371 110.86 348.758 74.4588C320.146 38.0574 279.438 13.1119 234.015 4.14415C188.591 -4.82363 141.458 2.77982 101.158 25.5762C60.8585 48.3727 30.0602 84.8533 14.3457 128.405L15.1854 128.708C30.8274 85.357 61.4838 49.0446 101.598 26.3532C141.711 3.66186 188.628 -3.90654 233.842 5.0199C279.056 13.9463 319.576 38.7768 348.056 75.0104C376.537 111.244 391.093 156.483 389.086 202.526L389.978 202.565Z"/>
</mask>
<path d="M389.978 202.565C391.994 156.308 377.371 110.86 348.758 74.4588C320.146 38.0574 279.438 13.1119 234.015 4.14415C188.591 -4.82363 141.458 2.77982 101.158 25.5762C60.8585 48.3727 30.0602 84.8533 14.3457 128.405L15.1854 128.708C30.8274 85.357 61.4838 49.0446 101.598 26.3532C141.711 3.66186 188.628 -3.90654 233.842 5.0199C279.056 13.9463 319.576 38.7768 348.056 75.0104C376.537 111.244 391.093 156.483 389.086 202.526L389.978 202.565Z" stroke="url(#paint0_linear_14058_99002)" stroke-width="2.84788" stroke-dasharray="4.27 4.27" mask="url(#path-2-inside-1_14058_99002)"/>
</g>
<g opacity="0.5">
<mask id="path-3-inside-2_14058_99002" fill="white">
<path d="M14.6038 260.572C30.4887 304.063 61.4296 340.422 101.818 363.061C142.206 385.699 189.369 393.118 234.758 383.973C280.146 374.827 320.755 349.723 349.225 313.21C377.695 276.697 392.14 231.192 389.943 184.943L389.051 184.986C391.238 231.021 376.859 276.316 348.521 312.661C320.182 349.006 279.76 373.994 234.581 383.098C189.402 392.201 142.457 384.816 102.254 362.282C62.0522 339.748 31.2539 303.556 15.4423 260.266L14.6038 260.572Z"/>
</mask>
<path d="M14.6038 260.572C30.4887 304.063 61.4296 340.422 101.818 363.061C142.206 385.699 189.369 393.118 234.758 383.973C280.146 374.827 320.755 349.723 349.225 313.21C377.695 276.697 392.14 231.192 389.943 184.943L389.051 184.986C391.238 231.021 376.859 276.316 348.521 312.661C320.182 349.006 279.76 373.994 234.581 383.098C189.402 392.201 142.457 384.816 102.254 362.282C62.0522 339.748 31.2539 303.556 15.4423 260.266L14.6038 260.572Z" stroke="url(#paint1_linear_14058_99002)" stroke-width="2.84788" stroke-dasharray="4.27 4.27" mask="url(#path-3-inside-2_14058_99002)"/>
</g>
<circle opacity="0.08" cx="196.502" cy="194.133" r="170.873" fill="url(#paint2_linear_14058_99002)"/>
<circle opacity="0.1" cx="196.505" cy="194.132" r="136.698" fill="url(#paint3_linear_14058_99002)"/>
<circle cx="196.504" cy="194.134" r="91.1321" fill="white"/>
<g filter="url(#filter0_d_14058_99002)">
<circle cx="15.3224" cy="125.09" r="7.11969" transform="rotate(-2.50406 15.3224 125.09)" fill="#0170FF"/>
<circle cx="15.3224" cy="125.09" r="8.13822" transform="rotate(-2.50406 15.3224 125.09)" stroke="white" stroke-width="2.03704"/>
</g>
<g filter="url(#filter1_d_14058_99002)">
<circle cx="389.993" cy="182.517" r="7.11969" transform="rotate(-15.7345 389.993 182.517)" fill="#0170FF"/>
<circle cx="389.993" cy="182.517" r="8.13822" transform="rotate(-15.7345 389.993 182.517)" stroke="white" stroke-width="2.03704"/>
</g>
</g>
<path d="M190.908 122.449C190.908 122.449 177.237 128.85 174.77 118.033C172.304 107.215 167.388 90.5331 150.561 92.8844C133.735 95.2357 122.691 98.2963 117.095 87.7385C111.499 77.1808 72.7623 82.018 79.7636 114.778C91.2277 168.467 192.333 154.514 192.333 154.514L198.572 143.266L190.908 122.449Z" fill="#382256"/>
<path d="M104.967 82.7307C110.602 82.7307 115.394 84.5205 117.118 87.7387C120.152 93.4658 124.789 95.1833 131.081 95.1833C136.391 95.1833 142.88 93.9584 150.584 92.8846C151.613 92.7384 152.651 92.6638 153.691 92.6613C168.035 92.6613 172.488 107.912 174.793 118.033C175.923 122.988 179.391 124.328 182.845 124.328C186.914 124.328 190.93 122.45 190.93 122.45L198.582 143.28L192.342 154.527C192.342 154.527 180.52 156.169 164.521 156.169C133.698 156.169 87.3196 150.126 79.7731 114.792C74.9097 92.0242 92.1336 82.7438 104.97 82.7438L104.967 82.7307ZM104.97 81.7587C98.2745 81.7587 89.0337 84.3365 83.1818 91.571C78.3282 97.5674 76.8174 105.669 78.8107 114.995C82.2293 131.008 93.7592 142.669 113.082 149.657C126.838 154.632 144.144 157.154 164.521 157.154C173.864 157.178 183.201 156.629 192.477 155.512L192.966 155.443L193.203 155.013L199.442 143.766L199.662 143.371L199.508 142.948L191.853 122.121L191.485 121.113L190.5 121.57C190.464 121.57 186.628 123.353 182.835 123.353C178.914 123.353 176.596 121.543 175.745 117.823C174.511 112.404 172.809 106.171 169.581 101.035C165.677 94.8319 160.327 91.6859 153.681 91.6859C152.595 91.6875 151.511 91.7654 150.436 91.9191C148.581 92.1753 146.804 92.4445 145.087 92.7007C139.691 93.5085 135.032 94.208 131.071 94.208C124.379 94.208 120.586 92.2048 117.978 87.2888C116.142 83.8243 111.282 81.7554 104.974 81.7554L104.97 81.7587Z" fill="#1D1E1B"/>
<path d="M128.635 229.177C126.464 267.947 133.087 289.384 133.087 289.384L256.563 290.898C261.134 267.145 255.538 238.46 255.538 238.46C255.538 238.46 266.664 223.903 275.357 223.906C288.84 223.906 300.456 226.776 309.782 206.537C319.108 186.299 291.26 182.64 266.388 168.628C241.516 154.615 207.606 156.149 207.606 156.149C207.606 156.149 173.782 146.626 139.816 172.109" fill="#07ACEE"/>
<path d="M256.953 291.397L132.723 289.873L132.615 289.528C132.549 289.315 125.994 267.562 128.145 229.15L129.13 229.206C127.137 264.827 132.644 285.995 133.462 288.898L256.142 290.402C260.503 267.086 255.098 238.844 255.042 238.555L254.999 238.335L255.134 238.161C255.594 237.557 266.509 223.413 275.34 223.413C276.857 223.413 278.358 223.449 279.812 223.485C291.27 223.765 301.158 224.008 309.319 206.33C311.269 202.094 311.617 198.475 310.415 195.27C307.736 188.196 297.464 183.668 285.572 178.427C279.517 175.757 272.654 172.733 266.128 169.058C241.67 155.265 207.951 156.625 207.613 156.641H207.534L207.455 156.618C207.373 156.595 198.917 154.267 186.438 155.065C174.924 155.797 157.539 159.42 140.112 172.499L139.52 171.711C157.165 158.474 174.76 154.815 186.418 154.077C198.414 153.318 206.778 155.416 207.662 155.65C209.501 155.584 242.494 154.599 266.631 168.194C273.11 171.846 279.655 174.732 285.987 177.52C298.081 182.854 308.527 187.458 311.355 194.925C312.668 198.39 312.297 202.258 310.228 206.747C301.811 225.012 291.615 224.763 279.806 224.48C278.358 224.444 276.85 224.408 275.353 224.408C267.504 224.408 257.344 236.972 256.063 238.598C256.569 241.33 261.37 268.524 257.049 291.003L256.953 291.397Z" fill="#1D1D1B"/>
<path d="M210.539 197.172C212.169 197.172 213.491 195.847 213.491 194.213C213.491 192.579 212.169 191.254 210.539 191.254C208.908 191.254 207.586 192.579 207.586 194.213C207.586 195.847 208.908 197.172 210.539 197.172Z" fill="#51CEF4"/>
<path d="M207.77 89.535C207.973 82.0437 202.073 75.8066 194.593 75.6042C187.113 75.4018 180.884 81.3107 180.681 88.8019C180.479 96.2932 186.379 102.53 193.859 102.733C201.339 102.935 207.568 97.0262 207.77 89.535Z" fill="#382256"/>
<path d="M194.244 103.245C191.922 103.241 189.637 102.661 187.593 101.559C185.549 100.456 183.81 98.8649 182.531 96.9269C181.251 94.9888 180.472 92.7642 180.261 90.4516C180.051 88.1389 180.416 85.8102 181.325 83.6731L181.778 83.8668L181.325 83.6731C182.324 81.3454 183.935 79.3315 185.986 77.845C188.037 76.3585 190.452 75.4549 192.975 75.2298C195.499 75.0048 198.035 75.4667 200.317 76.5668C202.599 77.6668 204.541 79.3638 205.936 81.4779C207.331 83.592 208.129 86.0443 208.243 88.5748C208.358 91.1054 207.786 93.6197 206.587 95.8513C205.388 98.0828 203.608 99.9484 201.435 101.25C199.262 102.552 196.777 103.241 194.244 103.245ZM194.244 76.0905C191.001 76.0836 187.871 77.2814 185.461 79.4515C183.051 81.6216 181.533 84.6094 181.202 87.8353C180.87 91.0612 181.748 94.2954 183.666 96.9105C185.584 99.5256 188.404 101.335 191.581 101.989C194.757 102.642 198.063 102.092 200.857 100.446C203.651 98.7998 205.735 96.1747 206.703 93.0797C207.671 89.9847 207.455 86.6403 206.097 83.6954C204.739 80.7505 202.336 78.4148 199.354 77.1414C197.74 76.4498 196.003 76.0923 194.247 76.0905H194.244Z" fill="#1D1E1B"/>
<path d="M235.431 129.096C235.431 129.096 244.297 120.315 239.756 112.122C235.214 103.928 233.05 104.795 230.935 100.319C228.82 95.8434 220.292 91.7812 212.916 94.4313C212.916 94.4313 203.14 88.0342 194.855 90.7566C186.569 93.4789 183.873 97.6988 181.9 104.454C179.926 111.209 177.719 114.306 176.169 118.992C174.619 123.678 172.688 136.745 191.213 145.073C209.737 153.401 235.431 129.096 235.431 129.096Z" fill="#382256"/>
<path d="M199.656 147.279C196.681 147.315 193.732 146.716 191.006 145.522C171.523 136.764 174.36 122.883 175.697 118.837C176.348 116.949 177.105 115.098 177.963 113.294C179.347 110.396 180.503 107.394 181.42 104.316C183.391 97.5411 186.209 93.075 194.694 90.2902C202.546 87.7123 211.472 92.9502 212.979 93.9025C216.411 92.7269 220.341 92.8484 224.072 94.2506C227.523 95.5445 230.256 97.7414 231.382 100.122C232.285 102.037 233.191 102.927 234.337 104.063C235.802 105.505 237.621 107.298 240.186 111.905C244.862 120.328 235.871 129.382 235.779 129.471C231.094 133.711 225.981 137.453 220.522 140.636C212.851 145.046 205.784 147.279 199.656 147.279ZM199.265 90.5792C197.816 90.5687 196.375 90.7904 194.996 91.236C186.885 93.8992 184.297 97.9877 182.363 104.602C181.429 107.724 180.256 110.771 178.856 113.714C178.014 115.486 177.27 117.302 176.629 119.156C175.358 123.005 172.688 136.212 191.407 144.632C209.337 152.694 234.616 129.198 235.083 128.755C235.296 128.538 243.598 120.079 239.316 112.368C236.827 107.885 235.047 106.148 233.641 104.753C232.472 103.603 231.464 102.611 230.485 100.543C228.548 96.4377 220.384 92.2639 213.081 94.9041L212.847 94.9895L212.644 94.8549C212.568 94.7925 206.027 90.5792 199.265 90.5792Z" fill="#1D1E1B"/>
<path d="M212.023 156.146C212.023 156.146 217.156 156.99 217.934 161.817C218.834 167.37 213.301 174.375 202.664 167.134C202.664 167.134 197.909 174.788 187.821 167.373C179.283 161.098 180.704 155.551 188.875 154.179C195.958 152.973 212.023 156.146 212.023 156.146Z" fill="white"/>
<path d="M195.998 171.091C193.371 171.091 190.54 169.977 187.525 167.761C183.099 164.506 181.017 161.193 181.67 158.441C182.235 156.057 184.763 154.369 188.789 153.683C195.873 152.477 211.409 155.515 212.105 155.653C212.401 155.705 217.603 156.73 218.41 161.728C218.913 164.822 217.563 167.968 215.058 169.57C213.225 170.736 209.219 172.023 202.776 167.797C201.5 169.418 199.686 170.531 197.662 170.933C197.114 171.038 196.556 171.091 195.998 171.091ZM192.832 154.389C191.534 154.371 190.237 154.46 188.954 154.655C185.341 155.269 183.095 156.694 182.629 158.668C182.074 161.012 184.018 163.961 188.11 166.966C191.548 169.495 194.7 170.503 197.482 169.967C199.407 169.58 201.11 168.469 202.24 166.864L202.513 166.427L202.937 166.716C207.534 169.849 211.659 170.568 214.535 168.739C216.716 167.353 217.885 164.598 217.445 161.882C216.732 157.475 212.132 156.654 211.938 156.628C211.787 156.602 200.529 154.398 192.832 154.398V154.389Z" fill="#1D1E1B"/>
<path d="M211.33 152.648L211.028 156.566C211.028 156.566 207.659 172.023 191.029 161.393C189.858 160.641 188.995 159.495 188.597 158.162C188.199 156.829 188.292 155.397 188.858 154.126C190.579 150.271 192.967 143.617 194.261 134.314C194.261 134.314 187.41 133.631 187.772 127.526C188.133 121.421 192.819 119.848 195.84 121.136C195.84 121.136 207.826 127.579 216.44 103.097C216.44 103.097 228.794 106.572 232.653 118.495C236.511 130.419 235.743 144.832 226.86 149.988C217.977 155.144 211.33 152.648 211.33 152.648Z" fill="#FFCDB2"/>
<path d="M201.353 165.62C198.28 165.62 194.733 164.346 190.763 161.807C189.498 160.988 188.566 159.744 188.134 158.3C187.703 156.856 187.8 155.305 188.408 153.926C190.119 150.087 192.415 143.66 193.702 134.721C192.06 134.393 186.957 132.978 187.282 127.497C187.453 124.594 188.618 122.335 190.566 121.126C191.377 120.626 192.295 120.324 193.244 120.247C194.194 120.169 195.149 120.317 196.03 120.679H196.07C196.099 120.679 199.094 122.243 203.048 120.699C208.105 118.729 212.571 112.575 215.97 102.913L216.125 102.48L216.568 102.605C216.696 102.641 229.221 106.289 233.119 118.322C235.152 124.604 235.825 131.178 235.02 136.83C234.104 143.23 231.368 147.919 227.106 150.396C219.573 154.766 213.642 153.775 211.77 153.279L211.504 156.651C211.451 156.901 210.115 162.789 205.068 164.884C203.891 165.373 202.628 165.623 201.353 165.62ZM193.764 121.211C192.82 121.211 191.893 121.472 191.088 121.967C189.906 122.699 188.461 124.265 188.264 127.549C187.936 133.132 194.047 133.789 194.306 133.815L194.819 133.868L194.746 134.373C193.456 143.673 191.075 150.353 189.308 154.32C188.794 155.482 188.709 156.789 189.07 158.007C189.431 159.225 190.214 160.276 191.278 160.97C196.674 164.421 201.183 165.436 204.67 163.991C209.067 162.168 210.414 156.931 210.522 156.484L210.874 151.952L211.488 152.182C211.589 152.218 218.055 154.504 226.594 149.555C235.204 144.56 235.913 130.219 232.176 118.64C228.853 108.375 218.942 104.46 216.742 103.705C213.212 113.557 208.719 119.573 203.38 121.642C199.137 123.284 195.951 121.74 195.63 121.573C195.038 121.33 194.404 121.207 193.764 121.211Z" fill="#1D1E1B"/>
<path d="M193.962 131.496C193.876 131.51 193.788 131.501 193.707 131.469C193.626 131.437 193.555 131.384 193.502 131.316C191.919 129.257 191.393 127.464 191.942 125.986C192.73 123.858 195.429 123.277 195.554 123.254C195.679 123.228 195.81 123.252 195.917 123.323C196.025 123.393 196.099 123.503 196.126 123.628C196.152 123.754 196.127 123.884 196.057 123.991C195.986 124.099 195.877 124.173 195.751 124.2C195.718 124.2 193.453 124.702 192.852 126.324C192.431 127.47 192.907 128.951 194.274 130.725C194.313 130.775 194.341 130.832 194.358 130.893C194.375 130.955 194.379 131.019 194.37 131.081C194.362 131.144 194.342 131.205 194.31 131.26C194.278 131.315 194.235 131.363 194.185 131.401C194.121 131.453 194.043 131.486 193.962 131.496Z" fill="black"/>
<path d="M218.541 122.367C211.763 124.039 202.473 121.333 200.969 123.819C199.465 126.305 200.769 129.542 204.493 130.235C208.217 130.928 211.879 130.702 219.369 129.871C226.86 129.04 234.147 127.671 233.162 123.677C232.176 119.684 228.505 119.911 218.541 122.367Z" fill="#FFB49F"/>
<path d="M228.694 128.006C228.713 127.312 228.167 126.734 227.474 126.715C226.782 126.696 226.205 127.244 226.186 127.938C226.168 128.633 226.714 129.211 227.406 129.229C228.099 129.248 228.676 128.701 228.694 128.006Z" fill="black"/>
<path d="M215.956 129.608C215.975 128.914 215.429 128.335 214.736 128.317C214.044 128.298 213.467 128.846 213.448 129.54C213.429 130.234 213.975 130.813 214.668 130.831C215.361 130.85 215.937 130.302 215.956 129.608Z" fill="black"/>
<path d="M223.744 134.232C223.642 134.232 223.543 134.2 223.46 134.141C223.377 134.083 223.314 134 223.281 133.904L219.376 123.474C219.348 123.356 219.364 123.232 219.422 123.125C219.48 123.018 219.575 122.936 219.69 122.896C219.804 122.855 219.93 122.858 220.042 122.904C220.155 122.95 220.246 123.036 220.299 123.146L224.203 133.575C224.249 133.698 224.244 133.833 224.19 133.952C224.136 134.071 224.037 134.163 223.914 134.209C223.859 134.228 223.801 134.236 223.744 134.232Z" fill="#1D1D1B"/>
<path d="M222.86 120.045C222.774 120.045 222.689 120.022 222.614 119.98C222.501 119.913 222.419 119.805 222.385 119.678C222.351 119.552 222.369 119.417 222.433 119.303C224.712 115.363 230.597 118.44 230.847 118.571C230.956 118.635 231.036 118.739 231.071 118.861C231.106 118.983 231.092 119.114 231.033 119.226C230.974 119.338 230.873 119.423 230.753 119.463C230.633 119.503 230.501 119.495 230.387 119.441C230.334 119.415 225.093 116.689 223.287 119.799C223.244 119.874 223.182 119.936 223.107 119.979C223.032 120.023 222.947 120.045 222.86 120.045Z" fill="black"/>
<path d="M208.657 123.723C208.564 123.723 208.472 123.697 208.394 123.647C208.315 123.597 208.252 123.526 208.212 123.442C208.172 123.357 208.157 123.264 208.168 123.171C208.18 123.078 208.217 122.991 208.276 122.919C209.708 121.152 211.232 120.177 212.844 120.016C213.943 119.899 215.047 120.198 215.937 120.853C216.034 120.937 216.094 121.056 216.105 121.183C216.116 121.311 216.077 121.438 215.995 121.537C215.914 121.636 215.798 121.7 215.67 121.715C215.543 121.729 215.415 121.693 215.313 121.615C215.192 121.517 212.424 119.375 209.038 123.543C208.992 123.6 208.934 123.645 208.868 123.677C208.802 123.708 208.73 123.724 208.657 123.723Z" fill="black"/>
<path d="M212.325 152.918C212.325 152.918 206.798 151.384 203.82 149.023L212.325 152.918Z" fill="#4BD657"/>
<path d="M212.325 153.41C212.281 153.411 212.236 153.405 212.193 153.393C211.964 153.331 206.535 151.804 203.514 149.407C203.418 149.324 203.358 149.207 203.346 149.081C203.335 148.954 203.372 148.828 203.451 148.729C203.529 148.629 203.643 148.564 203.769 148.547C203.895 148.529 204.022 148.561 204.125 148.635C206.992 150.908 212.401 152.428 212.456 152.444C212.57 152.477 212.667 152.55 212.732 152.649C212.796 152.748 212.822 152.867 212.807 152.984C212.791 153.101 212.733 153.208 212.645 153.286C212.557 153.364 212.443 153.408 212.325 153.41Z" fill="black"/>
<path d="M184.526 89.4231H184.405C184.234 89.3912 184.083 89.2926 183.984 89.1492C183.886 89.0057 183.848 88.829 183.88 88.6579C184.586 84.8223 186.251 82.0901 188.829 80.5729C193.025 78.0837 198.063 79.6994 198.273 79.7683C198.438 79.8228 198.575 79.9407 198.654 80.0962C198.733 80.2517 198.746 80.4321 198.692 80.5975C198.637 80.763 198.519 80.9001 198.364 80.9786C198.208 81.0571 198.028 81.0706 197.863 81.0162C197.79 80.9932 193.157 79.5286 189.489 81.7059C187.259 83.0194 185.804 85.4528 185.17 88.8976C185.14 89.0459 185.059 89.1793 184.942 89.2751C184.825 89.3708 184.678 89.4231 184.526 89.4231Z" fill="white"/>
<path d="M217.56 146.865C216.9 146.87 216.247 146.732 215.645 146.461C212.44 145.013 211.75 140.222 211.704 140.025C211.691 139.924 211.709 139.821 211.756 139.731C211.803 139.641 211.877 139.567 211.967 139.519C212.058 139.472 212.161 139.455 212.262 139.469C212.363 139.483 212.457 139.528 212.532 139.598C218.991 145.677 224.971 139.598 225.224 139.326C225.267 139.273 225.321 139.23 225.381 139.2C225.441 139.169 225.508 139.151 225.575 139.147C225.643 139.143 225.711 139.153 225.774 139.177C225.838 139.2 225.896 139.237 225.945 139.283C225.994 139.33 226.033 139.387 226.059 139.449C226.085 139.512 226.098 139.579 226.096 139.647C226.095 139.715 226.081 139.781 226.053 139.843C226.024 139.905 225.984 139.96 225.934 140.005C225.871 140.071 219.747 146.343 213.002 141.283C213.415 142.698 214.315 144.783 216.036 145.552C217.54 146.228 219.454 145.808 221.723 144.297C221.777 144.262 221.838 144.237 221.901 144.224C221.965 144.212 222.03 144.212 222.094 144.225C222.157 144.238 222.217 144.263 222.271 144.299C222.325 144.335 222.371 144.381 222.407 144.435C222.442 144.489 222.467 144.55 222.48 144.613C222.492 144.677 222.492 144.742 222.479 144.805C222.466 144.869 222.441 144.929 222.405 144.983C222.369 145.037 222.323 145.083 222.269 145.118C220.561 146.284 218.968 146.865 217.56 146.865Z" fill="#1D1D1B"/>
<path d="M206.549 120.344H206.44C204.283 120.33 202.22 119.46 200.704 117.925C199.189 116.389 198.345 114.315 198.359 112.158C198.373 110 199.243 107.937 200.778 106.421C202.314 104.906 204.388 104.062 206.546 104.076H206.654C208.811 104.107 210.867 104.992 212.371 106.538C213.876 108.083 214.706 110.162 214.68 112.318C214.65 114.456 213.78 116.496 212.258 117.997C210.737 119.499 208.686 120.342 206.549 120.344ZM206.549 105.061C204.669 105.074 202.871 105.831 201.549 107.167C200.226 108.502 199.487 110.308 199.493 112.188C199.499 114.067 200.251 115.868 201.582 117.195C202.914 118.522 204.717 119.267 206.596 119.267C208.476 119.267 210.279 118.522 211.611 117.195C212.942 115.868 213.693 114.067 213.699 112.188C213.706 110.308 212.967 108.502 211.644 107.167C210.322 105.831 208.524 105.074 206.644 105.061H206.549Z" fill="#1D1D1B"/>
<path d="M226.715 117.097H226.6C224.326 117.082 222.151 116.164 220.554 114.546C218.956 112.927 218.067 110.74 218.082 108.466C218.097 106.192 219.014 104.017 220.633 102.42C222.251 100.822 224.438 99.9331 226.712 99.9479H226.824C229.097 99.98 231.264 100.912 232.851 102.541C234.438 104.169 235.313 106.361 235.286 108.634C235.254 110.887 234.338 113.038 232.734 114.621C231.13 116.204 228.969 117.093 226.715 117.097ZM226.715 100.933C224.716 100.947 222.805 101.752 221.398 103.172C219.992 104.593 219.206 106.513 219.213 108.511C219.22 110.51 220.019 112.425 221.434 113.836C222.85 115.247 224.767 116.039 226.766 116.039C228.765 116.039 230.682 115.247 232.098 113.836C233.513 112.425 234.312 110.51 234.319 108.511C234.326 106.513 233.54 104.593 232.134 103.172C230.727 101.752 228.816 100.947 226.817 100.933H226.715Z" fill="#1D1D1B"/>
<path d="M217.553 109.524C217.432 109.525 217.316 109.482 217.224 109.403C215.362 107.761 213.983 109.146 213.832 109.311C213.742 109.394 213.624 109.441 213.501 109.442C213.378 109.443 213.259 109.398 213.167 109.316C213.076 109.233 213.019 109.12 213.007 108.997C212.995 108.875 213.029 108.752 213.103 108.654C213.836 107.849 215.77 106.815 217.875 108.67C217.949 108.737 218.002 108.824 218.026 108.921C218.049 109.018 218.043 109.12 218.007 109.214C217.972 109.307 217.908 109.387 217.826 109.444C217.744 109.501 217.646 109.531 217.546 109.531L217.553 109.524Z" fill="black"/>
<path d="M210.798 116.906C210.683 116.906 210.569 116.875 210.47 116.818C210.395 116.774 210.329 116.716 210.277 116.648C210.225 116.579 210.187 116.5 210.165 116.417C210.143 116.333 210.137 116.246 210.149 116.16C210.161 116.075 210.19 115.992 210.233 115.918C211.32 114.066 211.619 112.361 211.123 110.851C210.302 108.342 207.534 107.12 207.511 107.107C207.431 107.073 207.36 107.024 207.299 106.962C207.239 106.9 207.192 106.827 207.16 106.747C207.128 106.666 207.112 106.581 207.113 106.494C207.114 106.408 207.132 106.323 207.166 106.243C207.2 106.164 207.25 106.092 207.311 106.032C207.373 105.972 207.446 105.924 207.527 105.892C207.607 105.86 207.693 105.844 207.779 105.845C207.865 105.846 207.95 105.864 208.03 105.899C208.164 105.958 211.36 107.353 212.371 110.43C212.995 112.315 212.657 114.371 211.386 116.581C211.326 116.683 211.24 116.767 211.137 116.824C211.033 116.882 210.916 116.91 210.798 116.906Z" fill="white"/>
<path d="M231.933 112.982C231.818 112.981 231.705 112.95 231.606 112.892C231.507 112.834 231.425 112.751 231.367 112.652C231.31 112.552 231.28 112.439 231.28 112.324C231.28 112.209 231.311 112.096 231.368 111.997C232.452 110.141 232.751 108.437 232.255 106.926C231.434 104.417 228.666 103.196 228.643 103.183C228.56 103.151 228.484 103.103 228.42 103.042C228.356 102.981 228.304 102.907 228.27 102.825C228.235 102.743 228.217 102.655 228.217 102.566C228.217 102.478 228.236 102.39 228.271 102.308C228.306 102.227 228.357 102.153 228.422 102.092C228.486 102.031 228.562 101.983 228.645 101.952C228.729 101.921 228.817 101.908 228.906 101.912C228.995 101.916 229.082 101.939 229.162 101.977C229.296 102.033 232.492 103.432 233.503 106.506C234.127 108.391 233.789 110.447 232.518 112.66C232.458 112.761 232.372 112.844 232.269 112.901C232.166 112.957 232.05 112.985 231.933 112.982Z" fill="white"/>
<path d="M140.644 192.535C120.773 190.026 138.223 168.267 152.672 162.96C157.142 164.273 173.089 154.349 178.415 156.757C173.453 186.223 157.95 194.735 140.644 192.535Z" fill="#0598C6"/>
<path d="M155.77 131.027C155.77 131.027 160.577 129.283 161.323 126.837C162.068 124.39 162.502 113.228 165.263 106.913C167.933 100.776 173.217 101.849 173.91 112.752C173.91 112.752 178.11 103.34 183.105 108.063C183.105 108.063 186.648 104.329 193.475 102.532C199.34 100.989 200.457 107.619 195.699 110.158C191.709 112.286 190.116 113.136 188.934 114.381C188.934 114.381 193.508 119.116 187.476 120.486C187.476 120.486 183.913 123.412 186.402 125.773C188.891 128.134 191.847 117.54 195.452 116.249C199.058 114.959 202.421 119.707 197.804 128.728C193.186 137.749 191.686 142.238 185.305 145.64C180.546 148.179 173.391 154.044 173.391 154.044L155.77 131.027Z" fill="#FFCDB2"/>
<path d="M173.361 154.52H173.305C173.175 154.501 173.058 154.433 172.977 154.329L155.385 131.342C155.338 131.28 155.306 131.209 155.292 131.133C155.278 131.057 155.282 130.979 155.304 130.904C155.326 130.83 155.365 130.762 155.418 130.706C155.471 130.65 155.536 130.606 155.609 130.58C156.883 130.117 160.308 128.518 160.863 126.708C161.089 125.963 161.293 124.288 161.552 122.173C162.097 117.756 162.915 111.08 164.807 106.739C166.035 103.918 167.867 102.427 169.716 102.752C172.015 103.156 173.673 106.223 174.248 111.07C175.233 109.379 177.102 106.801 179.46 106.341C180.704 106.095 181.919 106.456 183.072 107.412C184.123 106.427 187.564 103.596 193.331 102.079C196.477 101.251 198.257 102.624 198.864 104.187C199.626 106.131 198.864 109.047 195.909 110.617C192.359 112.509 190.704 113.392 189.587 114.43C190.201 115.179 191.436 116.945 190.953 118.568C190.625 119.717 189.512 120.538 187.669 120.961C187.341 121.27 186.027 122.521 185.975 123.841C185.97 124.145 186.033 124.446 186.16 124.722C186.286 124.998 186.472 125.242 186.704 125.437C186.762 125.509 186.836 125.565 186.921 125.601C187.006 125.637 187.098 125.65 187.19 125.641C188.054 125.52 189.305 123.408 190.408 121.546C191.889 119.044 193.423 116.456 195.249 115.793C195.924 115.524 196.667 115.472 197.373 115.644C198.079 115.816 198.714 116.205 199.189 116.755C200.798 118.581 201.383 122.741 198.204 128.958C197.574 130.186 197.002 131.329 196.47 132.396C193.039 139.292 191.147 143.065 185.499 146.077C180.836 148.563 173.736 154.369 173.677 154.428C173.585 154.494 173.474 154.526 173.361 154.52ZM156.558 131.247L173.447 153.324C175.023 152.05 180.882 147.413 185.042 145.19C190.418 142.323 192.267 138.622 195.6 131.936C196.132 130.866 196.707 129.72 197.337 128.488C200.293 122.715 199.856 118.965 198.46 117.389C198.117 116.986 197.654 116.702 197.139 116.578C196.624 116.454 196.083 116.497 195.593 116.699C194.099 117.241 192.592 119.786 191.262 122.029C189.87 124.38 188.668 126.41 187.321 126.597C187.084 126.626 186.843 126.6 186.618 126.519C186.393 126.439 186.189 126.307 186.024 126.134C185.689 125.843 185.422 125.481 185.243 125.074C185.064 124.668 184.978 124.226 184.99 123.782C185.059 121.812 187.039 120.17 187.124 120.108C187.184 120.06 187.253 120.026 187.328 120.009C188.855 119.661 189.751 119.077 189.991 118.269C190.372 116.998 189.072 115.28 188.54 114.725C188.452 114.634 188.402 114.512 188.402 114.385C188.402 114.259 188.452 114.137 188.54 114.046C189.774 112.732 191.43 111.862 195.436 109.731C197.879 108.417 198.549 106.076 197.942 104.526C197.334 102.976 195.715 102.45 193.574 103.012C186.957 104.752 183.469 108.368 183.437 108.404C183.392 108.451 183.339 108.489 183.28 108.516C183.221 108.542 183.157 108.557 183.092 108.558C182.962 108.561 182.835 108.513 182.74 108.424C181.712 107.438 180.701 107.08 179.644 107.291C176.645 107.885 174.389 112.906 174.35 112.959C174.304 113.058 174.226 113.14 174.129 113.191C174.031 113.242 173.92 113.26 173.811 113.241C173.703 113.222 173.604 113.167 173.531 113.085C173.457 113.002 173.414 112.898 173.407 112.788C173.01 106.519 171.148 103.984 169.539 103.701C168.189 103.465 166.721 104.772 165.703 107.113C163.871 111.33 163.06 117.917 162.524 122.278C162.258 124.442 162.048 126.153 161.795 126.981C161.148 129.099 157.93 130.662 156.558 131.247Z" fill="#1D1D1B"/>
<path d="M187.042 120.518C187.042 120.518 183.43 121.018 178.396 114.676L187.042 120.518Z" fill="#FFCDB2"/>
<path d="M186.849 121.001C185.89 121.001 182.445 120.568 178.008 114.965C177.934 114.862 177.902 114.735 177.92 114.609C177.937 114.484 178.003 114.37 178.102 114.291C178.202 114.212 178.327 114.175 178.454 114.187C178.58 114.199 178.697 114.259 178.78 114.355C183.519 120.338 186.944 120.016 186.99 120.013C187.054 120.004 187.12 120.008 187.183 120.025C187.246 120.042 187.306 120.071 187.357 120.111C187.409 120.15 187.453 120.2 187.485 120.256C187.518 120.313 187.539 120.375 187.548 120.44C187.557 120.504 187.553 120.57 187.536 120.633C187.519 120.696 187.49 120.755 187.45 120.807C187.41 120.859 187.361 120.903 187.305 120.935C187.248 120.968 187.186 120.989 187.121 120.998C187.03 121.005 186.939 121.006 186.849 121.001Z" fill="#1D1D1B"/>
<path d="M188.904 114.384C187.096 112.157 185.149 110.047 183.075 108.066L188.904 114.384Z" fill="#FFCDB2"/>
<path d="M188.904 114.876C188.83 114.877 188.756 114.86 188.689 114.827C188.622 114.795 188.563 114.748 188.517 114.689C186.722 112.483 184.792 110.39 182.737 108.424C182.689 108.38 182.649 108.326 182.621 108.267C182.594 108.208 182.578 108.143 182.576 108.078C182.573 108.012 182.584 107.947 182.607 107.885C182.63 107.824 182.665 107.768 182.71 107.72C182.755 107.673 182.809 107.634 182.869 107.608C182.929 107.581 182.994 107.567 183.059 107.566C183.125 107.565 183.19 107.577 183.251 107.601C183.312 107.625 183.367 107.662 183.414 107.708C185.504 109.707 187.467 111.834 189.292 114.079C189.372 114.182 189.409 114.312 189.393 114.442C189.378 114.572 189.312 114.69 189.21 114.771C189.123 114.84 189.015 114.877 188.904 114.876Z" fill="#1D1D1B"/>
<path d="M173.897 112.755C173.94 114.374 174.353 114.768 173.673 119.651L173.897 112.755Z" fill="#FFCDB2"/>
<path d="M173.673 120.131H173.605C173.475 120.112 173.359 120.042 173.28 119.938C173.202 119.833 173.167 119.702 173.184 119.573C173.693 115.961 173.585 114.88 173.483 113.852C173.45 113.524 173.414 113.195 173.404 112.772C173.402 112.641 173.45 112.515 173.54 112.421C173.63 112.326 173.753 112.27 173.884 112.266C174.013 112.266 174.136 112.317 174.229 112.407C174.321 112.497 174.374 112.62 174.376 112.749C174.376 113.12 174.416 113.429 174.449 113.754C174.554 114.788 174.672 115.964 174.146 119.711C174.13 119.825 174.074 119.931 173.987 120.008C173.901 120.085 173.789 120.128 173.673 120.131Z" fill="#1D1D1B"/>
<path d="M187.19 126.16C187.19 126.16 180.31 125.937 178.382 129.628L187.19 126.16Z" fill="#FFCDB2"/>
<path d="M178.382 130.121C178.304 130.12 178.226 130.101 178.156 130.065C178.043 130.004 177.957 129.902 177.918 129.779C177.879 129.657 177.889 129.524 177.946 129.408C179.992 125.487 186.914 125.668 187.206 125.678C187.337 125.682 187.461 125.738 187.55 125.834C187.639 125.929 187.687 126.056 187.683 126.187C187.678 126.317 187.622 126.441 187.527 126.53C187.431 126.619 187.304 126.667 187.174 126.663C187.108 126.663 180.579 126.492 178.819 129.865C178.776 129.943 178.713 130.008 178.636 130.053C178.56 130.098 178.472 130.122 178.382 130.121Z" fill="#1D1D1B"/>
<path d="M180.517 116.995C180.507 118.264 180.253 119.519 179.769 120.692L180.517 116.995Z" fill="#FFCDB2"/>
<path d="M179.765 121.175C179.693 121.174 179.623 121.158 179.558 121.129C179.44 121.073 179.349 120.972 179.305 120.849C179.26 120.726 179.267 120.591 179.322 120.472C179.773 119.366 180.011 118.183 180.024 116.988C180.024 116.858 180.076 116.732 180.169 116.64C180.261 116.547 180.386 116.496 180.517 116.496C180.648 116.496 180.773 116.547 180.865 116.64C180.958 116.732 181.009 116.858 181.009 116.988C181 118.33 180.729 119.658 180.212 120.896C180.172 120.98 180.108 121.051 180.029 121.101C179.95 121.15 179.858 121.176 179.765 121.175Z" fill="#1D1D1B"/>
<path d="M138.233 192.804C179 183.245 167.545 159.965 167.545 159.965L173.755 153.604L156.577 131.001L149.152 132.866C149.152 132.866 134.805 118.226 100.087 151.496C65.3695 184.765 125.281 217.525 130.608 233.016" fill="#07ACEE"/>
<path d="M130.142 233.183C128.684 228.95 122.917 223.246 116.198 216.645C103.956 204.577 88.7153 189.556 88.8302 173.265C88.8861 165.475 92.5572 158.034 99.7457 151.147C114.231 137.266 126.97 129.891 137.609 129.221C144.69 128.774 148.394 131.546 149.29 132.331L156.774 130.452L174.406 153.653L168.133 160.076C169.12 162.503 169.594 165.109 169.523 167.728C169.452 170.348 168.839 172.924 167.723 175.294C163.808 183.579 153.93 189.632 138.345 193.283L138.118 192.324C153.382 188.745 163.04 182.88 166.826 174.89C170.462 167.219 167.138 160.257 167.102 160.188L166.951 159.86L173.105 153.555L156.384 131.552L148.998 133.404L148.801 133.204C148.768 133.168 145.212 129.68 137.56 130.196C130.421 130.679 118.185 134.826 100.429 151.844C93.4406 158.543 89.868 165.744 89.8154 173.258C89.7038 189.132 104.78 203.992 116.891 215.929C123.679 222.619 129.541 228.408 131.071 232.848L130.142 233.183Z" fill="#1D1D1B"/>
<path d="M149.379 133.549L156.512 131.759L173.007 153.466L167.043 159.574L167.086 159.666C161.313 156.632 150.538 148.937 149.179 133.368C149.3 133.48 149.379 133.549 149.379 133.549Z" fill="#0598C6"/>
<path d="M281.852 189.169C247.735 125.586 279.34 116.305 279.34 116.305L279.215 105.981L307.204 100.664L311.306 108.174C311.306 108.174 328.336 107.554 334.053 163.117C340.47 225.456 307.286 231.039 255.18 238.171" fill="#07ACEE"/>
<path d="M255.177 238.664C255.046 238.673 254.918 238.629 254.819 238.543C254.721 238.457 254.66 238.335 254.651 238.204C254.643 238.074 254.686 237.945 254.773 237.846C254.859 237.748 254.981 237.688 255.111 237.679C279.182 234.395 301.92 231.269 316.274 220.931C331.236 210.163 336.569 192.344 333.564 163.134C330.641 134.725 324.698 121.405 320.254 115.232C315.473 108.608 311.362 108.631 311.319 108.634C311.228 108.635 311.139 108.612 311.06 108.567C310.982 108.522 310.917 108.457 310.872 108.378L306.931 101.183L279.698 106.352L279.82 116.269C279.821 116.376 279.787 116.481 279.724 116.567C279.661 116.653 279.571 116.715 279.468 116.745C279.399 116.768 272.421 118.926 268.753 127.733C264.901 136.968 264.122 155.079 282.273 188.903C282.306 188.96 282.328 189.023 282.337 189.089C282.345 189.155 282.341 189.222 282.323 189.286C282.305 189.349 282.275 189.409 282.233 189.461C282.192 189.513 282.14 189.556 282.082 189.587C282.023 189.618 281.959 189.638 281.893 189.644C281.827 189.65 281.76 189.642 281.697 189.622C281.634 189.602 281.576 189.569 281.526 189.525C281.476 189.482 281.435 189.429 281.406 189.369C273.278 174.221 268.208 160.871 266.332 149.686C264.848 140.82 265.347 133.287 267.856 127.32C271.278 119.143 277.291 116.483 278.831 115.921L278.71 105.951C278.708 105.836 278.748 105.723 278.821 105.634C278.894 105.544 278.997 105.484 279.11 105.462L307.099 100.149C307.201 100.128 307.308 100.141 307.402 100.185C307.497 100.23 307.575 100.303 307.624 100.395L311.591 107.662C312.708 107.757 316.563 108.536 320.918 114.486C327.571 123.569 332.149 139.904 334.529 163.032C336.106 178.345 335.35 190.522 332.231 200.259C329.308 209.352 324.274 216.369 316.846 221.712C302.295 232.185 279.439 235.314 255.243 238.628L255.177 238.664Z" fill="#1D1D1B"/>
<path d="M310.675 108.565L306.734 101.34L279.852 106.447L279.974 116.364L279.878 116.407C286.151 118.466 299.254 120.597 310.944 108.562C310.77 108.562 310.675 108.565 310.675 108.565Z" fill="#0598C6"/>
<path d="M173.887 210.984C175.517 210.984 176.839 209.659 176.839 208.025C176.839 206.391 175.517 205.066 173.887 205.066C172.256 205.066 170.935 206.391 170.935 208.025C170.935 209.659 172.256 210.984 173.887 210.984Z" fill="#51CEF4"/>
<path d="M235.575 180.818C237.206 180.818 238.527 179.493 238.527 177.859C238.527 176.225 237.206 174.9 235.575 174.9C233.945 174.9 232.623 176.225 232.623 177.859C232.623 179.493 233.945 180.818 235.575 180.818Z" fill="#51CEF4"/>
<path d="M256.786 219.226C256.892 219.845 256.798 220.481 256.518 221.043C256.238 221.604 255.787 222.062 255.23 222.351C254.673 222.639 254.038 222.742 253.418 222.645C252.798 222.549 252.225 222.258 251.781 221.814C251.338 221.37 251.047 220.796 250.952 220.176C250.856 219.556 250.96 218.921 251.249 218.364C251.538 217.807 251.997 217.357 252.559 217.078C253.121 216.799 253.757 216.706 254.375 216.813C254.977 216.917 255.532 217.204 255.964 217.637C256.396 218.069 256.683 218.624 256.786 219.226Z" fill="#51CEF4"/>
<path d="M197.547 238.765C197.653 239.384 197.56 240.02 197.28 240.582C197 241.143 196.549 241.601 195.992 241.89C195.434 242.178 194.799 242.281 194.179 242.184C193.559 242.088 192.986 241.797 192.543 241.353C192.1 240.909 191.809 240.335 191.713 239.715C191.618 239.095 191.722 238.46 192.011 237.903C192.3 237.346 192.758 236.896 193.32 236.617C193.882 236.338 194.519 236.245 195.137 236.352C195.739 236.456 196.294 236.743 196.725 237.176C197.157 237.608 197.444 238.163 197.547 238.765Z" fill="#51CEF4"/>
<path d="M245.929 263.579C246.035 264.197 245.941 264.833 245.662 265.395C245.382 265.957 244.931 266.415 244.374 266.703C243.816 266.991 243.181 267.094 242.561 266.998C241.941 266.901 241.368 266.61 240.925 266.166C240.481 265.722 240.191 265.148 240.095 264.528C239.999 263.908 240.104 263.274 240.392 262.717C240.681 262.16 241.14 261.709 241.702 261.43C242.264 261.151 242.901 261.058 243.519 261.165C244.121 261.269 244.676 261.557 245.107 261.989C245.539 262.421 245.826 262.977 245.929 263.579Z" fill="#51CEF4"/>
<path d="M118.343 189.29C121.361 188.617 122.727 192.308 119.985 193.756C116.98 194.426 115.614 190.738 118.343 189.29Z" fill="#51CEF4"/>
<path d="M108.971 155.587C111.988 154.93 113.355 158.605 110.613 160.053C107.595 160.726 106.242 157.035 108.971 155.587Z" fill="#51CEF4"/>
<path d="M151.928 166.493C154.945 165.837 156.312 169.511 153.57 170.959C150.565 171.62 149.199 167.932 151.928 166.493Z" fill="#51CEF4"/>
<path d="M126.454 139.095C129.472 138.439 130.838 142.117 128.096 143.565C125.091 144.235 123.725 140.55 126.454 139.095Z" fill="#51CEF4"/>
<path d="M294.84 180.368C293.116 177.389 289.586 179.405 290.571 182.808C292.295 185.786 295.822 183.77 294.84 180.368Z" fill="#51CEF4"/>
<path d="M324.806 159.456C323.082 156.477 319.552 158.494 320.537 161.899C322.264 164.878 325.791 162.858 324.806 159.456Z" fill="#51CEF4"/>
<path d="M286.184 134.285C284.457 131.306 280.93 133.322 281.915 136.728C283.639 139.706 287.166 137.69 286.184 134.285Z" fill="#51CEF4"/>
<path d="M323.476 131.572C321.749 128.593 318.222 130.613 319.207 134.015C320.931 136.994 324.458 134.967 323.476 131.572Z" fill="#51CEF4"/>
<path d="M308.465 109.911C298.975 111.001 290 110.529 281.659 108.151C275.234 106.3 269.659 102.261 265.898 96.7326C262.137 91.2045 260.428 84.5355 261.065 77.88C262.425 63.6311 268.066 50.3673 277.393 37.9673C290.486 47.4512 299.195 53.9567 317.049 52.7449C304.167 72.2973 291.435 95.3569 308.465 109.911Z" fill="white"/>
<path d="M299.129 110.956C293.181 110.999 287.255 110.214 281.524 108.624C274.985 106.748 269.309 102.641 265.483 97.0168C261.656 91.3923 259.92 84.6052 260.576 77.8341C261.889 63.907 267.429 50.3937 276.995 37.6718C277.033 37.6203 277.08 37.5766 277.135 37.5434C277.19 37.5102 277.25 37.4881 277.313 37.4784C277.376 37.4686 277.441 37.4714 277.503 37.4865C277.565 37.5017 277.624 37.529 277.675 37.5668L278.204 37.9509C291.074 47.2773 299.579 53.4346 317.01 52.2458C317.101 52.2393 317.193 52.2585 317.274 52.3014C317.356 52.3442 317.423 52.4088 317.47 52.4881C317.516 52.5673 317.539 52.658 317.537 52.7498C317.535 52.8416 317.507 52.931 317.456 53.0077C311.328 62.3078 304.705 73.1808 302.022 83.3281C299.047 94.5262 301.26 103.101 308.793 109.537C308.866 109.6 308.919 109.682 308.945 109.774C308.972 109.866 308.972 109.964 308.944 110.056C308.914 110.145 308.858 110.223 308.784 110.281C308.71 110.34 308.621 110.375 308.527 110.384C305.408 110.755 302.27 110.946 299.129 110.956ZM277.498 38.6504C268.214 51.1293 262.851 64.3241 261.558 77.9261C260.923 84.4682 262.599 91.0262 266.296 96.4612C269.992 101.896 275.475 105.865 281.793 107.678C289.461 109.862 298.039 110.489 307.309 109.544C300.137 102.926 298.095 94.2536 301.07 83.0752C303.723 73.0921 310.091 62.4687 316.104 53.2868C314.974 53.3503 313.879 53.381 312.82 53.3788C297.829 53.3788 289.596 47.4119 277.639 38.749L277.498 38.6504Z" fill="#1D1D1B"/>
<path d="M261.154 84.1294C261.154 84.1294 267.065 94.2044 275.813 93.1667C275.813 93.1667 271.675 104.66 279.793 107.55C279.793 107.55 263.426 102.733 261.154 84.1294Z" fill="#4BD657"/>
<path d="M279.652 108.02C279.481 107.971 275.416 106.749 271.015 103.199C266.953 99.9152 261.86 93.9648 260.664 84.1886L260.375 81.834L261.577 83.8799C261.637 83.9784 267.439 93.6626 275.754 92.6775L276.546 92.5855L276.276 93.3343C276.256 93.3966 274.112 99.4752 276.096 103.679C276.474 104.479 277.012 105.193 277.676 105.779C278.34 106.364 279.116 106.809 279.957 107.084L279.652 108.02ZM261.978 86.2082C264.067 97.0451 271.255 102.687 275.879 105.255C275.621 104.889 275.396 104.501 275.206 104.096C273.446 100.372 274.585 95.5345 275.12 93.7218C268.799 94.0502 264.106 89.0291 261.978 86.2082Z" fill="black"/>
<path d="M265.439 71.8669C265.332 71.8669 265.225 71.8457 265.126 71.8044C265.026 71.7631 264.936 71.7026 264.86 71.6263C264.784 71.55 264.724 71.4595 264.683 71.3599C264.642 71.2603 264.621 71.1536 264.622 71.046C264.622 62.4093 275.357 45.4052 275.816 44.686C275.935 44.5067 276.12 44.3812 276.33 44.3364C276.54 44.2916 276.76 44.331 276.941 44.4463C277.123 44.5616 277.252 44.7435 277.301 44.9529C277.349 45.1622 277.314 45.3824 277.202 45.5661C277.091 45.7369 266.267 62.8854 266.264 71.046C266.263 71.264 266.176 71.4728 266.021 71.6267C265.867 71.7806 265.657 71.8669 265.439 71.8669Z" fill="white"/>
<path d="M344.693 154.323C344.641 154.323 344.589 154.315 344.539 154.3C332.956 150.5 322.973 145.358 314.865 139.01C308.366 133.927 303.043 128.062 299.066 121.579C292.269 110.525 291.71 101.642 291.691 101.268C291.687 101.203 291.697 101.139 291.718 101.078C291.74 101.017 291.773 100.96 291.816 100.912C291.86 100.864 291.912 100.825 291.971 100.797C292.029 100.769 292.092 100.753 292.157 100.749C292.222 100.746 292.287 100.755 292.348 100.777C292.409 100.798 292.465 100.832 292.513 100.875C292.561 100.918 292.6 100.971 292.628 101.029C292.656 101.087 292.672 101.151 292.676 101.216C292.676 101.304 293.254 110.266 299.94 121.116C306.114 131.135 318.918 144.862 344.851 153.364C344.961 153.402 345.054 153.477 345.114 153.576C345.174 153.676 345.197 153.794 345.178 153.909C345.16 154.024 345.101 154.128 345.013 154.204C344.925 154.28 344.813 154.322 344.696 154.323H344.693Z" fill="#1D1E1B"/>
<path d="M312.596 154.622C312.513 154.623 312.432 154.602 312.359 154.563C296.268 145.742 289.293 132.39 286.266 122.741C282.982 112.292 283.517 103.797 283.52 103.695C283.529 103.564 283.589 103.442 283.688 103.356C283.786 103.27 283.915 103.226 284.046 103.235C284.176 103.244 284.298 103.304 284.384 103.402C284.471 103.501 284.514 103.63 284.505 103.76C284.505 103.846 283.983 112.187 287.218 122.479C290.193 131.943 297.07 145.042 312.833 153.696C312.93 153.747 313.008 153.829 313.053 153.93C313.097 154.031 313.107 154.144 313.079 154.251C313.052 154.357 312.99 154.452 312.902 154.519C312.814 154.585 312.706 154.621 312.596 154.618V154.622Z" fill="#1D1E1B"/>
<path d="M304.6 104.756C304.6 104.756 315.072 107.084 319.676 95.7183C324.28 84.3527 324.993 72.4026 318.809 65.1779C312.625 57.9533 305.227 57.487 300.366 59.7299C295.506 61.9729 294.6 67.2829 298.626 72.7736C298.626 72.7736 291.044 78.2545 298.692 87.5184C295.506 88.6349 292.751 98.2732 302.137 99.7674C302.479 101.627 303.331 103.354 304.6 104.756Z" fill="#FFCDB2"/>
<path d="M306.78 105.432C306.009 105.441 305.24 105.376 304.481 105.238L304.324 105.202L304.219 105.08C302.977 103.701 302.113 102.023 301.71 100.21C297.874 99.4978 295.517 97.2352 295.224 93.971C294.985 91.3111 296.209 88.4409 297.914 87.3704C295.513 84.2933 294.479 81.2951 294.843 78.4447C295.16 76.2214 296.261 74.1844 297.947 72.7011C295.914 69.7653 295.162 66.7572 295.825 64.1958C296.38 62.0448 297.878 60.3536 300.15 59.3027C304.853 57.1321 312.658 57.2864 319.174 64.8854C324.924 71.5813 325.278 83.1834 320.123 95.9184C316.76 104.237 310.238 105.432 306.78 105.432ZM304.862 104.309C306.196 104.552 315.079 105.757 319.22 95.5375C324.234 83.1473 323.942 71.9261 318.438 65.5159C312.284 58.3504 305.175 58.068 300.574 60.1927C298.577 61.1155 297.267 62.5834 296.787 64.4388C296.17 66.8196 296.965 69.6931 299.024 72.4975L299.316 72.8981L298.915 73.1871C297.247 74.5356 296.145 76.461 295.828 78.5826C295.5 81.2951 296.577 84.2014 299.073 87.2226L299.523 87.7677L298.866 88.0009C297.444 88.4967 295.983 91.1764 296.239 93.8824C296.39 95.5703 297.372 98.5225 302.239 99.2975L302.583 99.3534L302.646 99.6818C302.956 101.395 303.722 102.993 304.862 104.309Z" fill="black"/>
<path d="M315.982 76.8951C315.915 76.8947 315.849 76.8812 315.788 76.8553C315.727 76.8294 315.671 76.7915 315.624 76.744C315.555 76.6685 308.449 69.4308 297.677 73.4831C297.615 73.5131 297.547 73.5297 297.478 73.5318C297.409 73.5339 297.34 73.5214 297.276 73.4951C297.212 73.4689 297.155 73.4294 297.107 73.3794C297.059 73.3293 297.022 73.2698 296.999 73.2046C296.976 73.1395 296.967 73.0702 296.972 73.0012C296.978 72.9323 296.998 72.8652 297.031 72.8044C297.064 72.7437 297.109 72.6905 297.164 72.6485C297.219 72.6064 297.282 72.5764 297.349 72.5603C308.741 68.2715 316.278 75.9854 316.353 76.061C316.445 76.1533 316.497 76.2785 316.497 76.4091C316.497 76.5396 316.445 76.6648 316.353 76.7571C316.304 76.8049 316.246 76.8419 316.182 76.8656C316.118 76.8894 316.05 76.8994 315.982 76.8951Z" fill="#1D1D1B"/>
<path d="M313.437 88.152C313.388 88.1524 313.339 88.1446 313.292 88.129C313.207 88.1028 304.62 85.5315 298.784 88.0568C298.664 88.109 298.529 88.1116 298.407 88.0638C298.285 88.0161 298.188 87.922 298.135 87.8023C298.083 87.6825 298.081 87.5469 298.128 87.4253C298.176 87.3037 298.27 87.206 298.39 87.1537C304.564 84.4806 313.213 87.0749 313.581 87.1865C313.696 87.2199 313.794 87.2935 313.858 87.3939C313.923 87.4943 313.948 87.6145 313.931 87.7324C313.913 87.8502 313.853 87.9577 313.762 88.0349C313.672 88.112 313.556 88.1536 313.437 88.152Z" fill="#1D1D1B"/>
<path d="M306.419 100.887C304.795 100.872 303.18 100.639 301.618 100.194C301.493 100.156 301.388 100.069 301.327 99.9539C301.266 99.8384 301.253 99.7033 301.291 99.5783C301.329 99.4534 301.416 99.3487 301.531 99.2874C301.647 99.2262 301.782 99.2133 301.907 99.2516C301.963 99.2516 307.398 100.894 310.622 98.9232C310.678 98.8866 310.74 98.8616 310.805 98.8495C310.87 98.8375 310.937 98.8387 311.001 98.8531C311.066 98.8675 311.127 98.8948 311.181 98.9334C311.235 98.972 311.281 99.021 311.315 99.0775C311.35 99.1341 311.372 99.1971 311.382 99.2626C311.391 99.3282 311.388 99.395 311.371 99.4591C311.354 99.5232 311.324 99.5832 311.284 99.6355C311.243 99.6879 311.192 99.7316 311.135 99.7639C309.729 100.621 308.008 100.887 306.419 100.887Z" fill="#1D1D1B"/>
<path d="M319.689 71.9163C319.52 71.9162 319.354 71.8638 319.216 71.7662C319.077 71.6687 318.972 71.5307 318.914 71.3712C318.895 71.3153 316.793 65.621 311.539 63.1614C308.255 61.6311 304.452 61.6442 300.18 63.2041C299.975 63.2785 299.749 63.2686 299.552 63.1766C299.354 63.0845 299.202 62.9178 299.127 62.7131C299.053 62.5084 299.063 62.2826 299.155 62.0852C299.247 61.8878 299.413 61.7351 299.618 61.6606C304.321 59.9464 308.57 59.953 312.251 61.6803C318.126 64.4388 320.369 70.5469 320.461 70.8195C320.504 70.9432 320.518 71.0756 320.499 71.2055C320.481 71.3354 320.433 71.4591 320.357 71.5664C320.282 71.6736 320.182 71.7613 320.066 71.8222C319.949 71.8831 319.821 71.9153 319.689 71.9163Z" fill="white"/>
<path d="M315.887 81.7879C315.759 81.7882 315.633 81.7586 315.519 81.7016C315.405 81.6446 315.306 81.5617 315.23 81.4596C315 81.1312 309.529 73.9263 300.216 77.1478C300.112 77.1894 300.002 77.2096 299.891 77.2072C299.779 77.2047 299.67 77.1797 299.569 77.1335C299.467 77.0874 299.376 77.0211 299.301 76.9387C299.227 76.8564 299.169 76.7596 299.133 76.6544C299.096 76.5492 299.082 76.4376 299.09 76.3266C299.098 76.2156 299.129 76.1073 299.18 76.0085C299.231 75.9097 299.302 75.8223 299.388 75.7517C299.474 75.6811 299.574 75.6287 299.68 75.5977C310.159 71.9854 316.491 80.4021 316.553 80.4875C316.645 80.6095 316.7 80.7545 316.714 80.9064C316.728 81.0582 316.699 81.2109 316.631 81.3472C316.563 81.4836 316.458 81.5983 316.328 81.6785C316.198 81.7586 316.049 81.8011 315.896 81.8011L315.887 81.7879Z" fill="white"/>
<path d="M280 61.0796C280 61.0796 284.538 68.4158 296.534 68.7803L280 61.0796Z" fill="white"/>
<path d="M296.528 69.2663C284.403 68.8985 279.78 61.641 279.589 61.3324C279.522 61.2214 279.501 61.0884 279.532 60.9623C279.562 60.8362 279.641 60.7271 279.751 60.6588C279.862 60.5905 279.994 60.5684 280.121 60.5974C280.247 60.6264 280.357 60.704 280.426 60.8135C280.469 60.8857 284.988 67.9297 296.557 68.2811C296.688 68.2811 296.813 68.333 296.905 68.4254C296.998 68.5178 297.05 68.6431 297.05 68.7737C297.05 68.9044 296.998 69.0296 296.905 69.122C296.813 69.2144 296.688 69.2663 296.557 69.2663H296.528Z" fill="#1D1D1B"/>
<path d="M277.819 75.6504C277.819 75.6504 282.781 82.1657 294.879 79.9917L277.819 75.6504Z" fill="white"/>
<path d="M290.078 80.934C281.343 80.934 277.599 76.1854 277.429 75.949C277.385 75.8981 277.353 75.8389 277.333 75.775C277.314 75.7112 277.307 75.644 277.314 75.5776C277.321 75.5112 277.342 75.4469 277.375 75.3887C277.408 75.3305 277.452 75.2796 277.505 75.239C277.558 75.1984 277.619 75.1691 277.683 75.1527C277.748 75.1364 277.816 75.1333 277.882 75.1438C277.948 75.1543 278.011 75.1781 278.067 75.2138C278.124 75.2495 278.172 75.2963 278.21 75.3513C278.259 75.4137 283.166 81.5908 294.791 79.5088C294.921 79.4857 295.056 79.5154 295.165 79.5915C295.273 79.6675 295.347 79.7837 295.37 79.9143C295.393 80.045 295.363 80.1794 295.287 80.2881C295.211 80.3968 295.095 80.4708 294.965 80.4939C293.352 80.7848 291.717 80.9321 290.078 80.934Z" fill="#1D1D1B"/>
<path d="M69.5704 17.1705C68.8095 24.2495 68.8405 31.3912 69.6625 38.4634C70.4747 45.4872 72.0155 52.4076 74.2599 59.1126C76.515 65.8506 79.4484 72.3423 83.0149 78.4877C86.5665 84.6144 90.7488 90.3531 95.4938 95.61C100.216 100.863 105.502 105.581 111.257 109.678C111.979 110.194 112.714 110.696 113.453 111.189C113.598 111.303 113.781 111.356 113.964 111.339C114.147 111.322 114.317 111.235 114.438 111.097C114.557 110.954 114.614 110.771 114.597 110.586C114.58 110.402 114.492 110.231 114.35 110.112C108.524 106.219 103.146 101.693 98.3146 96.6182C93.4977 91.5494 89.225 85.9901 85.5664 80.0311C81.8939 74.0682 78.8404 67.7456 76.4535 61.1618C74.0568 54.5852 72.3509 47.7771 71.3634 40.8475C70.3817 33.9426 70.1615 26.9509 70.7066 19.9979C70.7789 19.1343 70.8577 18.2739 70.9529 17.4102C71.0482 16.5465 69.6689 16.2838 69.5736 17.1836L69.5704 17.1705Z" fill="black"/>
<path d="M55.0978 80.8355C57.2922 84.0972 59.6786 87.2257 62.2438 90.2045C64.8414 93.2097 67.6121 96.0606 70.5421 98.7427C76.3794 104.086 82.8214 108.728 89.7366 112.575C93.1718 114.486 96.7181 116.19 100.357 117.678L101.72 118.223C101.89 118.294 102.08 118.297 102.253 118.232C102.425 118.167 102.566 118.038 102.646 117.871C102.72 117.702 102.726 117.51 102.661 117.337C102.596 117.164 102.465 117.023 102.298 116.945C95.0269 114.103 88.1214 110.403 81.7273 105.925C78.5243 103.679 75.4542 101.249 72.5323 98.6475C66.7115 93.4825 61.5298 87.6394 57.098 81.2427C56.8177 80.8421 56.5417 80.4382 56.2702 80.0309C55.7678 79.2822 54.6283 80.0868 55.1209 80.8322L55.0978 80.8355Z" fill="black"/>
<path d="M261.072 138.797C260.959 138.797 260.851 138.759 260.763 138.688C260.676 138.618 260.616 138.519 260.592 138.409C258.701 129.897 267.16 119.507 267.515 119.07C267.598 118.969 267.718 118.906 267.848 118.893C267.978 118.88 268.108 118.92 268.209 119.003C268.31 119.086 268.374 119.206 268.387 119.336C268.399 119.467 268.36 119.597 268.276 119.698C268.191 119.799 259.765 130.154 261.551 138.196C261.58 138.323 261.557 138.456 261.487 138.566C261.417 138.677 261.307 138.755 261.18 138.784C261.144 138.791 261.108 138.796 261.072 138.797Z" fill="#1D1E1B"/>
<path d="M333.029 211.371C332.946 211.371 332.865 211.351 332.792 211.312C332.68 211.25 332.597 211.146 332.56 211.024C332.524 210.901 332.536 210.769 332.595 210.655C341.701 193.963 337.849 175.189 337.82 175.015C337.801 174.891 337.83 174.764 337.902 174.661C337.973 174.557 338.082 174.485 338.205 174.459C338.327 174.433 338.456 174.455 338.563 174.521C338.67 174.586 338.749 174.69 338.782 174.811C338.821 175.002 342.745 194.104 333.459 211.128C333.415 211.203 333.352 211.266 333.277 211.308C333.201 211.351 333.115 211.373 333.029 211.371Z" fill="#1D1E1B"/>
<path d="M90.4855 193.382C90.4079 193.382 90.3312 193.364 90.262 193.328C90.1929 193.293 90.1333 193.241 90.0882 193.178C83.2642 183.757 82.6893 175.094 83.4084 169.488C84.1867 163.403 86.5579 159.6 86.6597 159.439C86.7333 159.338 86.8425 159.269 86.9653 159.246C87.0881 159.222 87.2153 159.246 87.3209 159.313C87.4266 159.38 87.503 159.484 87.5345 159.605C87.566 159.726 87.5503 159.855 87.4906 159.965C87.4676 160.004 85.1227 163.777 84.3773 169.659C83.6942 175.081 84.2657 183.451 90.8861 192.6C90.9622 192.707 90.9933 192.839 90.9724 192.968C90.9514 193.097 90.8803 193.213 90.7745 193.29C90.6903 193.35 90.5892 193.382 90.4855 193.382Z" fill="#1D1E1B"/>
<path d="M219.855 82.1886C219.814 82.1931 219.772 82.1931 219.73 82.1886C219.604 82.1554 219.496 82.0735 219.431 81.9608C219.365 81.8481 219.346 81.7139 219.379 81.5876L222.361 70.3238C222.395 70.1975 222.477 70.0897 222.59 70.0241C222.703 69.9585 222.837 69.9405 222.964 69.974C223.09 70.0076 223.198 70.0899 223.263 70.2029C223.329 70.3159 223.347 70.4504 223.313 70.5766L220.331 81.8372C220.302 81.94 220.239 82.0301 220.153 82.0937C220.067 82.1572 219.962 82.1906 219.855 82.1886Z" fill="#1D1E1B"/>
<path d="M225.487 84.5072C225.419 84.5076 225.352 84.4935 225.289 84.4657C225.227 84.438 225.171 84.3972 225.126 84.3463C225.082 84.2986 225.048 84.2428 225.026 84.182C225.004 84.1213 224.994 84.0567 224.997 83.9921C224.999 83.9274 225.015 83.8639 225.042 83.8053C225.069 83.7466 225.108 83.6938 225.156 83.6501L232.774 76.6948C232.873 76.6243 232.993 76.5925 233.114 76.6053C233.234 76.6182 233.345 76.6749 233.426 76.7646C233.507 76.8543 233.553 76.9707 233.554 77.0917C233.554 77.2126 233.511 77.3297 233.431 77.4205L225.816 84.3955C225.723 84.4716 225.607 84.5113 225.487 84.5072Z" fill="#1D1E1B"/>
<path d="M116.819 289.637L116.814 290.623L295.185 291.494L295.189 290.509L116.819 289.637Z" fill="#1D1E1B"/>
<path d="M137.462 298.638H92.4888V299.623H137.462V298.638Z" fill="#1D1E1B"/>
<path d="M101.355 154.671C101.226 154.671 101.099 154.633 100.991 154.562C100.884 154.49 100.799 154.388 100.749 154.269C100.699 154.15 100.685 154.018 100.709 153.891C100.734 153.764 100.795 153.647 100.886 153.555C105.572 148.931 110.679 144.753 116.139 141.076C127.915 133.224 137.925 130.518 145.885 133.03C145.967 133.056 146.044 133.098 146.11 133.153C146.176 133.209 146.231 133.277 146.271 133.353C146.311 133.43 146.335 133.513 146.343 133.599C146.35 133.685 146.341 133.772 146.315 133.854C146.289 133.937 146.247 134.013 146.192 134.079C146.137 134.146 146.069 134.2 145.992 134.24C145.916 134.28 145.832 134.305 145.746 134.312C145.66 134.32 145.573 134.311 145.491 134.285C127.374 128.564 102.078 154.218 101.815 154.477C101.693 154.6 101.528 154.67 101.355 154.671Z" fill="white"/>
<path d="M258.983 168.464C258.889 168.464 258.796 168.444 258.71 168.405C240.32 160.021 221.395 159.601 221.208 159.597C221.034 159.595 220.868 159.523 220.746 159.398C220.625 159.273 220.558 159.105 220.561 158.931C220.564 158.756 220.636 158.59 220.761 158.469C220.886 158.348 221.054 158.281 221.228 158.284C221.422 158.284 240.629 158.714 259.255 167.209C259.392 167.272 259.503 167.379 259.57 167.513C259.638 167.647 259.657 167.8 259.625 167.947C259.593 168.093 259.512 168.224 259.395 168.319C259.278 168.413 259.133 168.464 258.983 168.464Z" fill="white"/>
<path d="M150.459 254.049L117.118 252.236L117.292 251.642L138.86 177.754L150.459 254.049ZM118.418 251.32L149.303 253.001L138.565 182.299L118.418 251.32Z" fill="#1D1E1B"/>
<path d="M308.948 277.621L275.612 275.808L275.786 275.21L297.355 201.322L308.948 277.621ZM276.906 274.892L307.775 276.573L297.037 205.87L276.906 274.892Z" fill="#1D1E1B"/>
<path d="M301.361 204.05L301.431 203.573C301.609 202.349 300.762 201.212 299.538 201.033L135.83 177.151C134.606 176.972 133.469 177.82 133.291 179.044L133.221 179.521C133.043 180.745 133.89 181.882 135.114 182.061L298.821 205.943C300.045 206.122 301.182 205.274 301.361 204.05Z" fill="#4BD657"/>
<path d="M135.324 177.061C135.434 177.06 135.543 177.068 135.652 177.084L299.355 200.974C299.646 201.017 299.926 201.116 300.179 201.267C300.431 201.418 300.652 201.617 300.827 201.853C301.003 202.089 301.13 202.358 301.202 202.643C301.274 202.928 301.289 203.225 301.247 203.516L301.178 203.992C301.137 204.284 301.039 204.565 300.889 204.819C300.739 205.073 300.539 205.294 300.303 205.47C300.066 205.646 299.797 205.773 299.511 205.844C299.225 205.915 298.927 205.929 298.636 205.884L134.933 181.993C134.642 181.951 134.362 181.851 134.109 181.7C133.857 181.55 133.636 181.35 133.461 181.114C133.285 180.878 133.157 180.61 133.085 180.325C133.013 180.039 132.999 179.743 133.041 179.452L133.11 178.979C133.188 178.447 133.454 177.96 133.86 177.608C134.266 177.256 134.786 177.062 135.324 177.061ZM135.324 176.076C134.551 176.08 133.804 176.36 133.219 176.866C132.635 177.371 132.25 178.07 132.135 178.834L132.066 179.31C131.943 180.157 132.161 181.018 132.672 181.703C133.183 182.389 133.945 182.844 134.792 182.969L298.495 206.859C298.65 206.883 298.807 206.895 298.964 206.895C299.738 206.891 300.484 206.61 301.069 206.103C301.653 205.597 302.038 204.898 302.153 204.133L302.222 203.657C302.283 203.238 302.262 202.811 302.158 202.4C302.054 201.989 301.87 201.603 301.617 201.263C301.364 200.924 301.046 200.637 300.683 200.42C300.319 200.203 299.916 200.06 299.496 199.999L135.793 176.109C135.638 176.086 135.481 176.075 135.324 176.076Z" fill="black"/>
<path d="M154.843 254.144H112.044C110.673 254.144 109.562 255.255 109.562 256.625C109.562 257.995 110.673 259.106 112.044 259.106H154.843C156.214 259.106 157.326 257.995 157.326 256.625C157.326 255.255 156.214 254.144 154.843 254.144Z" fill="#382256"/>
<path d="M154.843 254.144C155.177 254.132 155.509 254.187 155.821 254.306C156.132 254.426 156.417 254.606 156.657 254.838C156.897 255.07 157.088 255.347 157.219 255.654C157.349 255.961 157.416 256.291 157.416 256.625C157.416 256.959 157.349 257.289 157.219 257.596C157.088 257.903 156.897 258.181 156.657 258.412C156.417 258.644 156.132 258.825 155.821 258.944C155.509 259.063 155.177 259.118 154.843 259.106H112.041C111.399 259.083 110.79 258.811 110.344 258.348C109.898 257.886 109.649 257.268 109.649 256.625C109.649 255.982 109.898 255.364 110.344 254.902C110.79 254.439 111.399 254.167 112.041 254.144H154.843ZM154.843 253.159H112.041C111.14 253.187 110.286 253.564 109.658 254.211C109.031 254.858 108.68 255.724 108.68 256.625C108.68 257.526 109.031 258.392 109.658 259.039C110.286 259.686 111.14 260.064 112.041 260.091H154.843C155.308 260.106 155.77 260.026 156.203 259.859C156.636 259.691 157.031 259.438 157.364 259.115C157.698 258.791 157.963 258.404 158.144 257.977C158.325 257.549 158.418 257.089 158.418 256.625C158.418 256.161 158.325 255.701 158.144 255.273C157.963 254.846 157.698 254.459 157.364 254.136C157.031 253.812 156.636 253.559 156.203 253.391C155.77 253.224 155.308 253.145 154.843 253.159Z" fill="#1D1E1B"/>
<path d="M213.773 272.715V193.664C213.75 193.022 213.478 192.414 213.015 191.967C212.553 191.521 211.935 191.272 211.292 191.272C210.649 191.272 210.032 191.521 209.569 191.967C209.106 192.414 208.834 193.022 208.811 193.664V272.665C199.764 273.628 192.628 280.133 191.791 289.256L230.521 290.188C230.114 285.812 228.237 281.702 225.196 278.529C222.155 275.356 218.128 273.307 213.773 272.715Z" fill="#382256"/>
<path d="M211.291 191.185C211.616 191.184 211.939 191.248 212.24 191.373C212.542 191.497 212.816 191.68 213.046 191.91C213.277 192.14 213.459 192.414 213.584 192.715C213.709 193.016 213.773 193.338 213.773 193.664V272.715C218.129 273.306 222.155 275.356 225.196 278.529C228.238 281.702 230.115 285.812 230.521 290.188L191.791 289.256C192.628 280.133 199.764 273.628 208.811 272.665V193.664C208.811 193.007 209.073 192.376 209.538 191.911C210.003 191.446 210.633 191.185 211.291 191.185ZM211.291 190.2C210.372 190.201 209.491 190.566 208.842 191.215C208.192 191.865 207.827 192.746 207.826 193.664V271.798C203.599 272.389 199.657 274.271 196.539 277.187C193.229 280.346 191.191 284.608 190.809 289.167L190.714 290.215L191.768 290.241L230.498 291.17L231.605 291.2L231.503 290.096C231.088 285.645 229.225 281.453 226.201 278.161C223.176 274.869 219.156 272.66 214.755 271.871V193.664C214.754 192.745 214.388 191.865 213.737 191.215C213.087 190.566 212.206 190.201 211.287 190.2H211.291Z" fill="#1D1E1B"/>
<path d="M311.47 287.644H268.67C267.299 287.644 266.188 288.754 266.188 290.125C266.188 291.495 267.299 292.606 268.67 292.606H311.47C312.841 292.606 313.952 291.495 313.952 290.125C313.952 288.754 312.841 287.644 311.47 287.644Z" fill="#382256"/>
<path d="M311.473 287.644C312.115 287.667 312.724 287.939 313.17 288.401C313.616 288.864 313.866 289.482 313.866 290.125C313.866 290.767 313.616 291.385 313.17 291.848C312.724 292.311 312.115 292.582 311.473 292.606H268.671C268.337 292.618 268.005 292.563 267.693 292.443C267.382 292.324 267.097 292.143 266.857 291.912C266.617 291.68 266.426 291.402 266.296 291.095C266.165 290.788 266.098 290.458 266.098 290.125C266.098 289.791 266.165 289.461 266.296 289.154C266.426 288.847 266.617 288.569 266.857 288.337C267.097 288.106 267.382 287.925 267.693 287.806C268.005 287.687 268.337 287.631 268.671 287.644H311.473ZM311.473 286.658H268.671C268.206 286.644 267.744 286.723 267.311 286.891C266.878 287.059 266.483 287.312 266.15 287.635C265.817 287.958 265.551 288.345 265.37 288.773C265.189 289.201 265.096 289.66 265.096 290.125C265.096 290.589 265.189 291.049 265.37 291.476C265.551 291.904 265.817 292.291 266.15 292.614C266.483 292.937 266.878 293.19 267.311 293.358C267.744 293.526 268.206 293.605 268.671 293.591H311.473C312.374 293.563 313.228 293.186 313.856 292.539C314.483 291.892 314.834 291.026 314.834 290.125C314.834 289.223 314.483 288.358 313.856 287.71C313.228 287.063 312.374 286.686 311.473 286.658Z" fill="#1D1E1B"/>
<path d="M227.576 288.143C227.443 288.143 227.312 288.102 227.203 288.026C227.093 287.951 227.009 287.844 226.962 287.719C222.522 275.88 211.567 275.142 211.1 275.115C210.927 275.105 210.765 275.027 210.65 274.898C210.534 274.769 210.474 274.599 210.483 274.426C210.492 274.252 210.57 274.089 210.699 273.973C210.829 273.856 210.999 273.796 211.173 273.805C211.294 273.805 223.441 274.593 228.19 287.269C228.221 287.35 228.235 287.436 228.232 287.522C228.229 287.609 228.209 287.694 228.174 287.772C228.138 287.851 228.087 287.922 228.024 287.981C227.961 288.04 227.886 288.086 227.805 288.116C227.731 288.138 227.653 288.147 227.576 288.143Z" fill="white"/>
<path d="M144.164 240.131C145.795 240.131 147.116 238.807 147.116 237.173C147.116 235.539 145.795 234.214 144.164 234.214C142.534 234.214 141.212 235.539 141.212 237.173C141.212 238.807 142.534 240.131 144.164 240.131Z" fill="#51CEF4"/>
<path d="M120.773 253.251C124.877 253.251 128.204 249.918 128.204 245.806C128.204 241.695 124.877 238.362 120.773 238.362C116.668 238.362 113.341 241.695 113.341 245.806C113.341 249.918 116.668 253.251 120.773 253.251Z" fill="white"/>
<path d="M120.773 253.714C119.207 253.717 117.676 253.255 116.374 252.387C115.071 251.519 114.055 250.284 113.454 248.839C112.854 247.393 112.695 245.802 112.999 244.267C113.303 242.731 114.056 241.32 115.162 240.213C116.268 239.105 117.678 238.351 119.213 238.045C120.749 237.739 122.34 237.895 123.786 238.494C125.232 239.093 126.468 240.107 127.338 241.409C128.207 242.711 128.671 244.241 128.67 245.806C128.67 247.902 127.839 249.912 126.358 251.394C124.877 252.877 122.868 253.711 120.773 253.714ZM120.773 238.828C119.392 238.826 118.042 239.234 116.893 239.999C115.744 240.765 114.848 241.854 114.319 243.129C113.789 244.404 113.649 245.807 113.917 247.162C114.186 248.516 114.849 249.76 115.825 250.737C116.8 251.714 118.044 252.38 119.398 252.65C120.752 252.92 122.155 252.782 123.431 252.254C124.707 251.726 125.797 250.832 126.564 249.684C127.332 248.537 127.741 247.187 127.741 245.806C127.741 243.957 127.007 242.184 125.701 240.875C124.394 239.567 122.622 238.831 120.773 238.828Z" fill="black"/>
<path d="M115.453 243.445C114.951 244.46 114.841 245.624 115.144 246.714C115.447 247.805 116.142 248.746 117.095 249.356C117.201 249.407 117.322 249.416 117.435 249.382C117.547 249.347 117.642 249.271 117.701 249.17C117.76 249.068 117.778 248.948 117.752 248.833C117.726 248.719 117.658 248.618 117.561 248.551C116.82 248.067 116.28 247.329 116.042 246.476C115.804 245.623 115.884 244.713 116.268 243.915C116.327 243.807 116.343 243.681 116.312 243.562C116.281 243.444 116.205 243.342 116.1 243.278C115.993 243.217 115.867 243.201 115.749 243.232C115.631 243.264 115.529 243.34 115.466 243.445H115.453Z" fill="black"/>
<path d="M123.442 242.292C124.071 242.693 124.584 243.252 124.93 243.913C125.276 244.574 125.442 245.314 125.413 246.059C125.394 246.548 125.282 247.03 125.084 247.478C125.026 247.585 125.01 247.711 125.041 247.829C125.073 247.948 125.148 248.05 125.252 248.115C125.359 248.176 125.486 248.193 125.605 248.161C125.724 248.13 125.826 248.053 125.889 247.947C126.281 247.062 126.418 246.086 126.284 245.127C126.151 244.168 125.753 243.266 125.134 242.522C124.794 242.112 124.387 241.763 123.929 241.491C123.876 241.46 123.818 241.44 123.757 241.432C123.697 241.423 123.636 241.427 123.577 241.442C123.457 241.473 123.355 241.551 123.293 241.657C123.231 241.763 123.214 241.89 123.245 242.009C123.276 242.128 123.353 242.23 123.459 242.292H123.442Z" fill="black"/>
<path d="M119.483 242.605L117.933 246.618C117.9 246.737 117.917 246.865 117.978 246.973C118.04 247.08 118.142 247.159 118.261 247.192L122.497 248.269C122.586 248.29 122.678 248.285 122.764 248.255C122.85 248.224 122.925 248.169 122.98 248.097C123.036 248.025 123.069 247.939 123.077 247.848C123.084 247.757 123.066 247.666 123.023 247.586L120.55 242.756C120.488 242.65 120.386 242.573 120.267 242.542C120.149 242.51 120.022 242.527 119.916 242.588C119.811 242.652 119.735 242.754 119.704 242.873C119.673 242.992 119.689 243.118 119.748 243.225L122.218 248.056L122.743 247.373L118.507 246.296L118.836 246.867L120.386 242.854C120.407 242.794 120.415 242.73 120.411 242.666C120.406 242.603 120.389 242.541 120.359 242.484C120.33 242.427 120.289 242.378 120.239 242.337C120.19 242.297 120.132 242.268 120.071 242.251C120.009 242.233 119.945 242.229 119.882 242.238C119.818 242.247 119.758 242.268 119.703 242.301C119.649 242.335 119.602 242.379 119.565 242.431C119.528 242.483 119.502 242.542 119.489 242.605H119.483Z" fill="black"/>
<path d="M135.093 254.677C138.95 253.253 140.924 248.977 139.502 245.127C138.081 241.277 133.801 239.31 129.944 240.735C126.087 242.159 124.113 246.435 125.535 250.285C126.957 254.135 131.236 256.102 135.093 254.677Z" fill="white"/>
<path d="M125.14 250.716C124.595 249.248 124.498 247.652 124.86 246.129C125.222 244.606 126.028 243.225 127.176 242.161C128.324 241.096 129.761 240.396 131.307 240.149C132.853 239.901 134.437 240.118 135.86 240.772C137.282 241.426 138.478 242.487 139.297 243.821C140.117 245.155 140.521 246.702 140.461 248.266C140.4 249.83 139.877 251.342 138.958 252.608C138.038 253.875 136.763 254.84 135.294 255.382C133.329 256.106 131.156 256.022 129.253 255.147C127.35 254.273 125.871 252.679 125.14 250.716ZM139.107 245.56C138.631 244.264 137.781 243.138 136.666 242.325C135.55 241.512 134.218 241.048 132.838 240.993C131.459 240.937 130.094 241.292 128.916 242.012C127.738 242.732 126.8 243.786 126.221 245.039C125.642 246.293 125.448 247.69 125.663 249.054C125.879 250.417 126.494 251.687 127.431 252.701C128.368 253.715 129.584 254.428 130.927 254.751C132.269 255.073 133.677 254.99 134.973 254.512C136.709 253.874 138.121 252.572 138.899 250.894C139.676 249.216 139.756 247.297 139.12 245.56H139.107Z" fill="black"/>
<path d="M132.93 242.167C131.806 242.047 130.677 242.344 129.759 243.004C128.84 243.663 128.197 244.637 127.952 245.74C127.94 245.858 127.972 245.975 128.043 246.069C128.114 246.163 128.219 246.227 128.335 246.247C128.451 246.267 128.57 246.243 128.669 246.179C128.768 246.115 128.839 246.016 128.868 245.901C129.065 245.039 129.57 244.277 130.287 243.758C131.004 243.239 131.885 242.998 132.766 243.08C132.887 243.099 133.011 243.07 133.111 243.001C133.212 242.931 133.282 242.826 133.308 242.706C133.328 242.585 133.3 242.46 133.229 242.359C133.158 242.259 133.051 242.19 132.93 242.167Z" fill="black"/>
<path d="M136.779 249.248C136.581 250.227 136.029 251.099 135.229 251.697C134.836 252.005 134.391 252.24 133.915 252.39C133.449 252.542 132.959 252.603 132.47 252.571C132.349 252.553 132.226 252.583 132.126 252.653C132.026 252.723 131.956 252.829 131.932 252.949C131.911 253.07 131.938 253.195 132.009 253.296C132.08 253.397 132.188 253.465 132.309 253.487C133.275 253.547 134.238 253.337 135.091 252.88C135.944 252.423 136.652 251.737 137.137 250.899C137.404 250.439 137.591 249.936 137.688 249.412C137.702 249.294 137.67 249.175 137.599 249.08C137.528 248.985 137.424 248.92 137.307 248.899C137.19 248.878 137.07 248.903 136.971 248.967C136.871 249.032 136.8 249.132 136.772 249.248H136.779Z" fill="black"/>
<path d="M135.114 245.655L130.812 245.593C130.69 245.604 130.577 245.664 130.498 245.758C130.419 245.851 130.379 245.973 130.389 246.095L130.845 250.443C130.856 250.533 130.892 250.619 130.95 250.689C131.009 250.759 131.086 250.81 131.173 250.837C131.26 250.864 131.353 250.865 131.44 250.84C131.528 250.815 131.606 250.765 131.666 250.696L135.341 246.706C135.379 246.659 135.408 246.605 135.426 246.547C135.444 246.488 135.45 246.427 135.444 246.367C135.438 246.306 135.42 246.247 135.391 246.194C135.362 246.14 135.324 246.093 135.277 246.054C135.23 246.015 135.175 245.987 135.117 245.969C135.059 245.951 134.998 245.945 134.937 245.951C134.877 245.957 134.818 245.975 134.764 246.004C134.711 246.032 134.663 246.071 134.625 246.118L130.95 250.108L131.771 250.364L131.315 246.016L130.891 246.519L135.193 246.581C135.315 246.569 135.428 246.51 135.507 246.416C135.586 246.322 135.626 246.201 135.616 246.079C135.603 245.957 135.544 245.845 135.45 245.766C135.356 245.687 135.236 245.648 135.114 245.655Z" fill="black"/>
<path d="M152.081 253.207C154.103 249.636 152.842 245.098 149.265 243.072C145.687 241.046 141.147 242.299 139.125 245.871C137.102 249.442 138.363 253.98 141.941 256.006C145.519 258.032 150.059 256.779 152.081 253.207Z" fill="white"/>
<path d="M152.469 253.425C151.701 254.788 150.545 255.893 149.148 256.6C147.751 257.306 146.176 257.582 144.622 257.393C143.068 257.204 141.605 256.558 140.418 255.537C139.232 254.516 138.375 253.166 137.956 251.658C137.537 250.149 137.575 248.551 138.064 247.064C138.554 245.577 139.474 244.269 140.708 243.306C141.941 242.342 143.433 241.766 144.994 241.65C146.555 241.535 148.116 241.885 149.478 242.657C151.301 243.69 152.639 245.403 153.2 247.422C153.761 249.441 153.498 251.6 152.469 253.425ZM139.514 246.088C138.832 247.289 138.522 248.665 138.622 250.042C138.722 251.419 139.229 252.735 140.077 253.825C140.926 254.914 142.079 255.726 143.39 256.16C144.7 256.594 146.11 256.629 147.441 256.261C148.772 255.893 149.964 255.139 150.866 254.094C151.767 253.048 152.339 251.759 152.508 250.388C152.677 249.018 152.435 247.628 151.814 246.395C151.193 245.162 150.219 244.141 149.018 243.461C147.409 242.551 145.505 242.317 143.723 242.809C141.941 243.302 140.427 244.481 139.514 246.088Z" fill="black"/>
<path d="M140.913 252.995C141.547 253.931 142.503 254.601 143.6 254.877C144.696 255.152 145.856 255.014 146.857 254.489C147.379 254.197 146.909 253.395 146.387 253.688C145.6 254.094 144.692 254.2 143.833 253.987C142.973 253.774 142.22 253.255 141.714 252.528C141.651 252.424 141.549 252.348 141.431 252.317C141.313 252.286 141.187 252.301 141.08 252.361C140.975 252.423 140.898 252.525 140.867 252.643C140.835 252.762 140.852 252.888 140.913 252.995Z" fill="black"/>
<path d="M143.845 245.475C144.72 244.995 145.74 244.854 146.712 245.077C147.201 245.177 147.666 245.364 148.088 245.629C148.504 245.887 148.868 246.221 149.159 246.614C149.224 246.718 149.326 246.793 149.444 246.825C149.563 246.856 149.688 246.84 149.796 246.782C149.902 246.719 149.979 246.618 150.01 246.499C150.041 246.38 150.024 246.254 149.963 246.148C149.386 245.371 148.604 244.771 147.704 244.414C146.804 244.058 145.823 243.96 144.87 244.131C144.345 244.223 143.839 244.405 143.376 244.67C143.275 244.735 143.204 244.837 143.176 244.953C143.148 245.07 143.167 245.193 143.227 245.296C143.288 245.4 143.386 245.476 143.501 245.509C143.616 245.542 143.739 245.53 143.845 245.475Z" fill="black"/>
<path d="M142.164 249.074L144.893 252.4C144.981 252.486 145.099 252.534 145.222 252.534C145.344 252.534 145.462 252.486 145.55 252.4L148.574 249.244C148.637 249.179 148.678 249.096 148.694 249.007C148.711 248.918 148.701 248.826 148.667 248.743C148.632 248.659 148.574 248.587 148.499 248.536C148.425 248.484 148.337 248.456 148.246 248.453L142.824 248.223C142.764 248.224 142.704 248.237 142.648 248.261C142.592 248.285 142.541 248.32 142.499 248.363C142.457 248.407 142.423 248.459 142.4 248.515C142.378 248.572 142.367 248.632 142.368 248.693C142.371 248.815 142.422 248.932 142.51 249.018C142.597 249.103 142.715 249.152 142.838 249.153L148.259 249.382L147.931 248.588L144.906 251.744H145.563L142.834 248.417C142.746 248.331 142.628 248.283 142.506 248.283C142.383 248.283 142.265 248.331 142.177 248.417C142.094 248.506 142.047 248.623 142.047 248.745C142.047 248.867 142.094 248.985 142.177 249.074H142.164Z" fill="black"/>
<path d="M135.64 238.943C137.662 235.371 136.401 230.834 132.824 228.808C129.246 226.782 124.706 228.035 122.684 231.607C120.661 235.178 121.922 239.716 125.5 241.741C129.078 243.767 133.618 242.514 135.64 238.943Z" fill="white"/>
<path d="M136.03 239.156C135.261 240.519 134.105 241.622 132.709 242.328C131.313 243.033 129.739 243.309 128.186 243.119C126.633 242.93 125.171 242.284 123.985 241.264C122.799 240.243 121.943 238.894 121.524 237.387C121.105 235.879 121.143 234.282 121.632 232.796C122.122 231.31 123.041 230.003 124.274 229.039C125.507 228.076 126.997 227.5 128.557 227.384C130.118 227.268 131.677 227.618 133.038 228.388C134.861 229.421 136.2 231.135 136.761 233.154C137.322 235.172 137.059 237.331 136.03 239.156ZM123.075 231.82C122.395 233.02 122.087 234.395 122.188 235.771C122.29 237.147 122.797 238.462 123.645 239.55C124.493 240.638 125.645 241.45 126.955 241.883C128.265 242.317 129.673 242.352 131.003 241.985C132.333 241.618 133.524 240.866 134.426 239.822C135.329 238.778 135.902 237.491 136.072 236.122C136.243 234.753 136.004 233.364 135.386 232.131C134.767 230.897 133.797 229.875 132.598 229.193C131.8 228.74 130.921 228.449 130.011 228.335C129.1 228.222 128.177 228.29 127.293 228.534C126.408 228.778 125.581 229.193 124.857 229.757C124.133 230.321 123.528 231.022 123.075 231.82Z" fill="black"/>
<path d="M124.474 238.739C125.108 239.676 126.064 240.346 127.16 240.621C128.257 240.897 129.416 240.759 130.418 240.234C130.94 239.941 130.47 239.137 129.948 239.429C129.162 239.836 128.255 239.942 127.396 239.73C126.537 239.517 125.784 238.999 125.278 238.273C125.214 238.169 125.112 238.093 124.994 238.061C124.875 238.029 124.749 238.044 124.641 238.102C124.535 238.165 124.458 238.267 124.427 238.387C124.396 238.506 124.413 238.633 124.474 238.739Z" fill="black"/>
<path d="M127.406 231.209C128.065 230.862 128.803 230.693 129.548 230.72C130.292 230.746 131.016 230.967 131.649 231.36C132.064 231.619 132.427 231.953 132.719 232.345C132.784 232.45 132.885 232.526 133.004 232.558C133.122 232.589 133.249 232.575 133.357 232.516C133.463 232.453 133.54 232.351 133.571 232.232C133.602 232.113 133.585 231.986 133.524 231.879C132.947 231.102 132.165 230.501 131.265 230.145C130.365 229.789 129.383 229.691 128.431 229.863C127.906 229.957 127.402 230.14 126.94 230.405C126.843 230.471 126.775 230.572 126.749 230.686C126.723 230.801 126.741 230.921 126.8 231.023C126.859 231.125 126.954 231.2 127.067 231.235C127.179 231.269 127.3 231.26 127.406 231.209Z" fill="black"/>
<path d="M125.728 234.799L128.457 238.125C128.545 238.211 128.663 238.259 128.785 238.259C128.908 238.259 129.026 238.211 129.114 238.125L132.138 234.97C132.2 234.904 132.242 234.821 132.258 234.732C132.275 234.643 132.265 234.551 132.23 234.468C132.195 234.384 132.137 234.312 132.063 234.261C131.988 234.209 131.9 234.181 131.81 234.178L126.388 233.948C126.266 233.952 126.15 234.003 126.064 234.09C125.979 234.178 125.932 234.296 125.932 234.418C125.936 234.541 125.987 234.657 126.076 234.743C126.164 234.829 126.282 234.877 126.405 234.878L131.823 235.107L131.495 234.313L128.467 237.469H129.124L126.395 234.142C126.307 234.056 126.189 234.008 126.066 234.008C125.944 234.008 125.826 234.056 125.738 234.142C125.654 234.231 125.606 234.348 125.606 234.47C125.606 234.593 125.654 234.71 125.738 234.799H125.728Z" fill="black"/>
<path d="M143.731 243.211C147.54 241.681 149.384 237.347 147.85 233.532C146.317 229.717 141.986 227.866 138.178 229.397C134.37 230.927 132.526 235.261 134.059 239.076C135.593 242.891 139.923 244.742 143.731 243.211Z" fill="white"/>
<path d="M137.984 228.852C139.435 228.266 141.027 228.125 142.558 228.444C144.089 228.764 145.491 229.53 146.587 230.647C147.682 231.763 148.423 233.18 148.713 234.717C149.004 236.254 148.831 237.842 148.219 239.282C147.606 240.721 146.58 241.946 145.271 242.803C143.962 243.659 142.429 244.108 140.864 244.092C139.3 244.077 137.776 243.598 136.484 242.716C135.192 241.834 134.191 240.588 133.607 239.137C132.825 237.192 132.847 235.017 133.668 233.089C134.489 231.16 136.041 229.637 137.984 228.852ZM143.537 242.664C144.819 242.151 145.92 241.269 146.701 240.13C147.481 238.991 147.907 237.647 147.923 236.266C147.939 234.886 147.545 233.531 146.791 232.374C146.037 231.218 144.957 230.311 143.687 229.768C142.418 229.226 141.016 229.072 139.659 229.326C138.302 229.581 137.05 230.232 136.064 231.198C135.077 232.164 134.399 233.4 134.115 234.752C133.832 236.103 133.955 237.508 134.47 238.789C135.157 240.507 136.498 241.882 138.198 242.612C139.898 243.342 141.819 243.366 143.537 242.68V242.664Z" fill="black"/>
<path d="M146.752 236.394C146.841 235.267 146.511 234.146 145.826 233.247C145.141 232.347 144.148 231.732 143.038 231.518C142.921 231.509 142.805 231.546 142.713 231.619C142.621 231.692 142.561 231.798 142.544 231.914C142.526 232.03 142.553 232.148 142.619 232.245C142.685 232.342 142.785 232.411 142.9 232.437C143.769 232.61 144.545 233.092 145.085 233.795C145.624 234.498 145.89 235.372 145.832 236.256C145.824 236.374 145.86 236.489 145.934 236.581C146.007 236.673 146.112 236.733 146.228 236.751C146.344 236.768 146.463 236.741 146.56 236.675C146.657 236.609 146.725 236.509 146.752 236.394Z" fill="black"/>
<path d="M139.777 240.444C139.045 240.304 138.363 239.975 137.798 239.49C137.233 239.005 136.804 238.38 136.555 237.679C136.39 237.218 136.314 236.729 136.332 236.24C136.346 236.118 136.313 235.996 136.24 235.897C136.167 235.799 136.058 235.732 135.938 235.711C135.816 235.694 135.693 235.725 135.594 235.798C135.496 235.871 135.43 235.981 135.412 236.102C135.379 237.069 135.616 238.026 136.097 238.866C136.578 239.706 137.283 240.394 138.135 240.854C138.603 241.109 139.112 241.281 139.639 241.363C139.756 241.371 139.872 241.335 139.963 241.262C140.055 241.188 140.116 241.083 140.133 240.967C140.15 240.851 140.123 240.733 140.057 240.636C139.991 240.539 139.891 240.47 139.777 240.444Z" fill="black"/>
<path d="M143.327 238.677L143.268 234.375C143.253 234.253 143.191 234.141 143.094 234.064C142.998 233.987 142.875 233.952 142.752 233.965L138.421 234.546C138.331 234.559 138.246 234.599 138.178 234.659C138.109 234.719 138.06 234.798 138.035 234.886C138.011 234.974 138.012 235.067 138.039 235.154C138.066 235.241 138.118 235.318 138.188 235.377L142.283 238.936C142.331 238.974 142.387 239.002 142.446 239.018C142.505 239.034 142.568 239.038 142.629 239.031C142.69 239.023 142.749 239.003 142.802 238.972C142.855 238.941 142.902 238.9 142.939 238.851C143.015 238.753 143.049 238.629 143.034 238.506C143.018 238.383 142.955 238.271 142.857 238.194L138.765 234.634L138.532 235.462L142.864 234.884L142.351 234.474L142.41 238.775C142.425 238.897 142.487 239.008 142.583 239.085C142.679 239.162 142.801 239.198 142.923 239.186C143.045 239.17 143.155 239.107 143.232 239.011C143.308 238.915 143.345 238.793 143.333 238.67L143.327 238.677Z" fill="black"/>
<path d="M282.298 245.636C282.298 245.636 255.81 271.598 267.616 286.356L311.824 287.515C311.824 287.515 323.246 273.638 300.659 247.806C300.659 247.806 306.438 243.705 307.19 236.641C307.19 236.641 301.342 232.52 296.741 234.95C292.14 237.38 281.015 229.15 279.254 231.374C279.274 231.37 289.523 240.427 282.298 245.636Z" fill="#4BD657"/>
<path d="M280.299 230.983C283.136 230.983 290.151 235.4 294.653 235.4C295.382 235.423 296.106 235.267 296.761 234.946C297.766 234.427 298.884 234.163 300.015 234.178C303.723 234.178 307.211 236.638 307.211 236.638C306.459 243.708 300.679 247.803 300.679 247.803C323.252 273.634 311.844 287.512 311.844 287.512L267.636 286.353C255.83 271.575 282.318 245.632 282.318 245.632C289.543 240.434 279.287 231.377 279.287 231.377C279.417 231.238 279.577 231.13 279.754 231.063C279.932 230.996 280.123 230.971 280.312 230.989L280.299 230.983ZM280.312 230.004C279.974 229.981 279.635 230.038 279.323 230.169C279.011 230.301 278.735 230.504 278.516 230.763L277.938 231.495L278.637 232.112C278.69 232.162 284.118 237.022 283.891 241.252C283.819 242.667 283.113 243.839 281.727 244.834L281.668 244.877L281.616 244.93C277.111 249.488 273.115 254.522 269.698 259.944C266.644 264.87 264.716 269.467 263.968 273.592C263.006 278.875 263.968 283.378 266.854 286.98L267.14 287.338H267.597L311.804 288.497H312.284L312.59 288.126C312.718 287.972 315.67 284.304 315.706 277.335C315.726 273.312 314.764 268.994 312.849 264.505C310.586 259.195 306.967 253.619 302.091 247.918C303.805 246.43 307.568 242.549 308.189 236.723L308.252 236.148L307.778 235.82C307.624 235.712 303.989 233.193 300.015 233.193C298.724 233.179 297.448 233.482 296.301 234.076C295.788 234.316 295.225 234.429 294.659 234.405C292.341 234.405 289.139 233.071 286.318 231.892C283.872 230.871 281.757 229.988 280.305 229.988L280.312 230.004Z" fill="black"/>
<path d="M301.201 261.68C301.082 261.681 300.967 261.637 300.877 261.559C300.788 261.48 300.73 261.372 300.715 261.254C300.498 259.582 299.901 258.055 299.323 256.574C298.259 253.845 297.241 251.247 299.612 249.11C291.231 251.041 283.373 245.008 283.005 244.722C282.902 244.642 282.835 244.523 282.819 244.394C282.803 244.264 282.839 244.133 282.919 244.029C283 243.926 283.118 243.859 283.248 243.843C283.378 243.827 283.509 243.864 283.612 243.944C283.704 244.016 292.384 250.669 300.83 247.73C300.574 247.41 300.373 247.051 300.232 246.666C299.178 243.76 300.823 241.048 302.712 239.481C304.6 237.915 306.882 237.347 308.274 238.168C308.631 238.367 308.925 238.661 309.123 239.018C309.321 239.375 309.416 239.779 309.398 240.187C309.378 241.708 308.084 243.734 306.091 245.635C309.086 244.68 311.414 244.558 313.151 245.254C314.553 245.819 315.549 246.896 316.199 248.538C316.298 248.768 316.331 249.021 316.295 249.268C316.259 249.516 316.155 249.748 315.995 249.941C314.902 251.287 311 251.428 307.71 250.87C306.37 250.643 303.723 250.052 301.914 248.735L301.539 248.949C298.144 250.83 298.978 252.968 300.226 256.203C300.797 257.664 301.444 259.323 301.674 261.129C301.683 261.193 301.679 261.258 301.662 261.321C301.645 261.383 301.616 261.442 301.577 261.493C301.538 261.544 301.489 261.587 301.432 261.619C301.376 261.652 301.314 261.672 301.25 261.68H301.201ZM302.843 248.184C304.038 248.952 305.775 249.556 307.887 249.911C311.499 250.525 314.609 250.108 315.24 249.333C315.29 249.276 315.322 249.205 315.331 249.129C315.339 249.053 315.325 248.977 315.289 248.909C314.747 247.52 313.93 246.611 312.793 246.171C310.823 245.386 307.805 245.842 303.759 247.56C303.454 247.773 303.145 247.983 302.833 248.184H302.843ZM306.751 238.765C305.766 238.765 304.491 239.291 303.349 240.237C301.707 241.593 300.288 243.905 301.168 246.331C301.315 246.711 301.538 247.057 301.825 247.346L302.055 247.244C302.475 247.051 302.889 246.867 303.29 246.696C306.245 244.561 308.409 241.901 308.432 240.174C308.446 239.938 308.391 239.703 308.275 239.498C308.158 239.292 307.985 239.124 307.775 239.015C307.459 238.84 307.102 238.754 306.741 238.765H306.751Z" fill="#1D1D1B"/>
<path d="M293.103 249.175C293.045 249.176 292.987 249.166 292.932 249.146C292.871 249.124 292.815 249.089 292.768 249.046C292.72 249.002 292.682 248.949 292.654 248.89C292.627 248.831 292.612 248.767 292.61 248.702C292.607 248.638 292.617 248.573 292.64 248.512C294.105 244.571 289.737 239.912 289.684 239.866C289.598 239.77 289.553 239.645 289.557 239.517C289.562 239.389 289.617 239.267 289.709 239.179C289.802 239.09 289.926 239.041 290.055 239.043C290.183 239.044 290.306 239.095 290.397 239.186C290.597 239.393 295.238 244.325 293.556 248.854C293.523 248.947 293.461 249.028 293.38 249.086C293.299 249.143 293.202 249.175 293.103 249.175Z" fill="#1D1D1B"/>
<path d="M295.894 249.471C295.795 249.471 295.698 249.44 295.617 249.384C295.535 249.327 295.472 249.248 295.437 249.155C295.401 249.062 295.395 248.961 295.418 248.865C295.441 248.768 295.492 248.681 295.566 248.614C298.006 246.414 297.822 241.035 297.818 240.982C297.813 240.852 297.86 240.724 297.949 240.628C298.038 240.532 298.161 240.475 298.291 240.47C298.422 240.465 298.549 240.512 298.645 240.6C298.742 240.689 298.798 240.812 298.804 240.943C298.804 241.183 299.007 246.838 296.226 249.343C296.135 249.426 296.017 249.471 295.894 249.471Z" fill="#1D1D1B"/>
<path d="M288.538 279.857C286.808 279.857 284.788 279.23 282.627 277.976C282.519 277.907 282.442 277.8 282.412 277.676C282.382 277.552 282.401 277.421 282.465 277.311C282.529 277.201 282.634 277.12 282.756 277.085C282.879 277.051 283.011 277.065 283.123 277.125C287.093 279.424 290.348 279.483 292.032 277.266C293.536 275.296 293.224 272.068 291.346 270.222C289.645 268.551 287.98 268.163 286.509 267.822C284.585 267.375 282.926 266.988 282.962 263.697C283.001 259.999 285.001 257.691 288.305 257.523C291.395 257.366 294.63 259.146 294.853 261.113C294.861 261.177 294.855 261.243 294.837 261.306C294.819 261.368 294.789 261.426 294.749 261.477C294.708 261.528 294.658 261.571 294.601 261.602C294.544 261.634 294.481 261.654 294.417 261.661C294.352 261.669 294.286 261.663 294.224 261.645C294.161 261.627 294.103 261.597 294.052 261.556C294.001 261.516 293.958 261.466 293.927 261.409C293.895 261.352 293.876 261.289 293.868 261.224C293.72 259.911 291.014 258.371 288.348 258.505C286.722 258.591 283.99 259.376 283.941 263.707C283.911 266.206 284.854 266.426 286.726 266.863C288.243 267.214 290.134 267.654 292.032 269.52C294.282 271.733 294.63 275.477 292.807 277.864C291.789 279.191 290.308 279.857 288.538 279.857Z" fill="#1D1D1B"/>
<path d="M285.002 284.937H284.923C284.795 284.916 284.68 284.846 284.603 284.74C284.527 284.635 284.496 284.504 284.516 284.376L289.248 254.252C289.258 254.188 289.28 254.126 289.314 254.07C289.348 254.014 289.393 253.965 289.445 253.926C289.498 253.888 289.558 253.86 289.622 253.844C289.685 253.828 289.751 253.825 289.816 253.835C289.88 253.845 289.943 253.868 289.999 253.902C290.054 253.936 290.103 253.98 290.142 254.033C290.181 254.086 290.209 254.146 290.224 254.209C290.24 254.273 290.243 254.339 290.233 254.403L285.501 284.527C285.48 284.644 285.419 284.749 285.327 284.825C285.236 284.9 285.12 284.94 285.002 284.937Z" fill="#1D1D1B"/>
<path d="M288.906 284.99H288.84C288.711 284.973 288.594 284.905 288.515 284.802C288.435 284.698 288.4 284.568 288.417 284.438L292.532 253.836C292.549 253.705 292.618 253.587 292.722 253.507C292.827 253.426 292.959 253.391 293.09 253.409C293.22 253.426 293.339 253.495 293.419 253.599C293.499 253.704 293.534 253.836 293.517 253.967L289.402 284.57C289.384 284.688 289.324 284.796 289.233 284.873C289.142 284.951 289.026 284.992 288.906 284.99Z" fill="#1D1D1B"/>
<path d="M311.627 285.207C311.559 285.206 311.491 285.197 311.424 285.18C311.216 285.127 311.037 284.993 310.926 284.809C310.816 284.625 310.782 284.404 310.833 284.195C314.708 268.987 303.079 256.239 302.951 256.111C302.814 255.95 302.744 255.742 302.756 255.531C302.769 255.319 302.862 255.121 303.017 254.977C303.172 254.833 303.377 254.754 303.589 254.757C303.801 254.761 304.003 254.846 304.153 254.995C304.662 255.54 316.507 268.534 312.412 284.602C312.365 284.775 312.263 284.927 312.121 285.036C311.98 285.145 311.806 285.205 311.627 285.207Z" fill="white"/>
<path d="M264.483 264.718C264.439 264.718 264.394 264.711 264.352 264.698C264.289 264.682 264.231 264.653 264.18 264.613C264.128 264.574 264.086 264.524 264.054 264.468C264.022 264.412 264.001 264.35 263.993 264.286C263.985 264.222 263.99 264.156 264.007 264.094C267.124 252.876 275.915 247.12 276.003 247.064C276.113 247.001 276.242 246.983 276.365 247.013C276.487 247.043 276.594 247.119 276.662 247.225C276.73 247.331 276.755 247.46 276.731 247.583C276.708 247.707 276.638 247.818 276.535 247.891C276.45 247.947 267.971 253.513 264.96 264.357C264.93 264.46 264.867 264.551 264.782 264.617C264.696 264.682 264.591 264.717 264.483 264.718Z" fill="#1D1E1B"/>
<defs>
<filter id="filter0_d_14058_99002" x="-4.01969" y="107.785" width="38.6844" height="38.6839" filterUnits="userSpaceOnUse" color-interpolation-filters="sRGB">
<feFlood flood-opacity="0" result="BackgroundImageFix"/>
<feColorMatrix in="SourceAlpha" type="matrix" values="0 0 0 0 0 0 0 0 0 0 0 0 0 0 0 0 0 0 127 0" result="hardAlpha"/>
<feOffset dy="2.03704"/>
<feGaussianBlur stdDeviation="5.09261"/>
<feComposite in2="hardAlpha" operator="out"/>
<feColorMatrix type="matrix" values="0 0 0 0 0 0 0 0 0 0 0 0 0 0 0 0 0 0 0.05 0"/>
<feBlend mode="normal" in2="BackgroundImageFix" result="effect1_dropShadow_14058_99002"/>
<feBlend mode="normal" in="SourceGraphic" in2="effect1_dropShadow_14058_99002" result="shape"/>
</filter>
<filter id="filter1_d_14058_99002" x="370.649" y="165.21" width="38.6888" height="38.6883" filterUnits="userSpaceOnUse" color-interpolation-filters="sRGB">
<feFlood flood-opacity="0" result="BackgroundImageFix"/>
<feColorMatrix in="SourceAlpha" type="matrix" values="0 0 0 0 0 0 0 0 0 0 0 0 0 0 0 0 0 0 127 0" result="hardAlpha"/>
<feOffset dy="2.03704"/>
<feGaussianBlur stdDeviation="5.09261"/>
<feComposite in2="hardAlpha" operator="out"/>
<feColorMatrix type="matrix" values="0 0 0 0 0 0 0 0 0 0 0 0 0 0 0 0 0 0 0.05 0"/>
<feBlend mode="normal" in2="BackgroundImageFix" result="effect1_dropShadow_14058_99002"/>
<feBlend mode="normal" in="SourceGraphic" in2="effect1_dropShadow_14058_99002" result="shape"/>
</filter>
<linearGradient id="paint0_linear_14058_99002" x1="20.4542" y1="112.038" x2="392.052" y2="200.547" gradientUnits="userSpaceOnUse">
<stop stop-color="#CDD5E2"/>
<stop offset="1" stop-color="#CDD5E2" stop-opacity="0"/>
</linearGradient>
<linearGradient id="paint1_linear_14058_99002" x1="391.41" y1="195.437" x2="353.85" y2="294.044" gradientUnits="userSpaceOnUse">
<stop stop-color="#CDD5E2"/>
<stop offset="1" stop-color="#CDD5E2" stop-opacity="0"/>
</linearGradient>
<linearGradient id="paint2_linear_14058_99002" x1="196.502" y1="23.2607" x2="196.502" y2="365.006" gradientUnits="userSpaceOnUse">
<stop stop-color="#CDD5E2"/>
<stop offset="1" stop-color="#CDD5E2" stop-opacity="0"/>
</linearGradient>
<linearGradient id="paint3_linear_14058_99002" x1="196.505" y1="57.4336" x2="196.505" y2="330.83" gradientUnits="userSpaceOnUse">
<stop stop-color="#CDD5E2"/>
<stop offset="1" stop-color="#CDD5E2" stop-opacity="0"/>
</linearGradient>
</defs>
</svg>
