<svg width="406" height="302" viewBox="0 0 406 302" fill="none" xmlns="http://www.w3.org/2000/svg">
<mask id="mask0_14058_99867" style="mask-type:alpha" maskUnits="userSpaceOnUse" x="0" y="0" width="406" height="302">
<rect width="405.823" height="301.875" fill="#D9D9D9"/>
</mask>
<g mask="url(#mask0_14058_99867)">
<g opacity="0.5">
<mask id="path-2-inside-1_14058_99867" fill="white">
<path d="M389.978 202.565C391.994 156.308 377.371 110.86 348.758 74.4588C320.146 38.0574 279.438 13.1119 234.015 4.14415C188.591 -4.82363 141.458 2.77982 101.158 25.5762C60.8585 48.3727 30.0602 84.8533 14.3457 128.405L15.1854 128.708C30.8274 85.357 61.4838 49.0446 101.598 26.3532C141.711 3.66186 188.628 -3.90654 233.842 5.0199C279.056 13.9463 319.576 38.7768 348.056 75.0104C376.537 111.244 391.093 156.483 389.086 202.526L389.978 202.565Z"/>
</mask>
<path d="M389.978 202.565C391.994 156.308 377.371 110.86 348.758 74.4588C320.146 38.0574 279.438 13.1119 234.015 4.14415C188.591 -4.82363 141.458 2.77982 101.158 25.5762C60.8585 48.3727 30.0602 84.8533 14.3457 128.405L15.1854 128.708C30.8274 85.357 61.4838 49.0446 101.598 26.3532C141.711 3.66186 188.628 -3.90654 233.842 5.0199C279.056 13.9463 319.576 38.7768 348.056 75.0104C376.537 111.244 391.093 156.483 389.086 202.526L389.978 202.565Z" stroke="url(#paint0_linear_14058_99867)" stroke-width="2.84788" stroke-dasharray="4.27 4.27" mask="url(#path-2-inside-1_14058_99867)"/>
</g>
<g opacity="0.5">
<mask id="path-3-inside-2_14058_99867" fill="white">
<path d="M14.6038 260.572C30.4887 304.063 61.4296 340.422 101.818 363.061C142.206 385.699 189.369 393.118 234.758 383.973C280.146 374.827 320.755 349.723 349.225 313.21C377.695 276.697 392.14 231.192 389.943 184.943L389.051 184.986C391.238 231.021 376.859 276.316 348.521 312.661C320.182 349.006 279.76 373.994 234.581 383.098C189.402 392.201 142.457 384.816 102.254 362.282C62.0522 339.748 31.2539 303.556 15.4423 260.266L14.6038 260.572Z"/>
</mask>
<path d="M14.6038 260.572C30.4887 304.063 61.4296 340.422 101.818 363.061C142.206 385.699 189.369 393.118 234.758 383.973C280.146 374.827 320.755 349.723 349.225 313.21C377.695 276.697 392.14 231.192 389.943 184.943L389.051 184.986C391.238 231.021 376.859 276.316 348.521 312.661C320.182 349.006 279.76 373.994 234.581 383.098C189.402 392.201 142.457 384.816 102.254 362.282C62.0522 339.748 31.2539 303.556 15.4423 260.266L14.6038 260.572Z" stroke="url(#paint1_linear_14058_99867)" stroke-width="2.84788" stroke-dasharray="4.27 4.27" mask="url(#path-3-inside-2_14058_99867)"/>
</g>
<circle opacity="0.08" cx="196.502" cy="194.133" r="170.873" fill="url(#paint2_linear_14058_99867)"/>
<circle opacity="0.1" cx="196.505" cy="194.132" r="136.698" fill="url(#paint3_linear_14058_99867)"/>
<circle cx="196.504" cy="194.134" r="91.1321" fill="white"/>
<g filter="url(#filter0_d_14058_99867)">
<circle cx="15.3224" cy="125.09" r="7.11969" transform="rotate(-2.50406 15.3224 125.09)" fill="#0170FF"/>
<circle cx="15.3224" cy="125.09" r="8.13822" transform="rotate(-2.50406 15.3224 125.09)" stroke="white" stroke-width="2.03704"/>
</g>
<g filter="url(#filter1_d_14058_99867)">
<circle cx="389.993" cy="182.517" r="7.11969" transform="rotate(-15.7345 389.993 182.517)" fill="#0170FF"/>
<circle cx="389.993" cy="182.517" r="8.13822" transform="rotate(-15.7345 389.993 182.517)" stroke="white" stroke-width="2.03704"/>
</g>
</g>
<path d="M320.021 290.14H84.6555C84.4926 290.14 84.3363 290.075 84.2211 289.96C84.1058 289.844 84.041 289.688 84.041 289.525C84.041 289.362 84.1058 289.206 84.2211 289.091C84.3363 288.975 84.4926 288.911 84.6555 288.911H320.021C320.184 288.911 320.34 288.975 320.455 289.091C320.571 289.206 320.635 289.362 320.635 289.525C320.635 289.688 320.571 289.844 320.455 289.96C320.34 290.075 320.184 290.14 320.021 290.14Z" fill="black"/>
<path d="M95.4099 299.972H60.3816C60.2186 299.972 60.0624 299.907 59.9471 299.792C59.8319 299.677 59.7671 299.521 59.7671 299.358C59.7671 299.195 59.8319 299.038 59.9471 298.923C60.0624 298.808 60.2186 298.743 60.3816 298.743H95.4099C95.5729 298.743 95.7291 298.808 95.8444 298.923C95.9596 299.038 96.0244 299.195 96.0244 299.358C96.0244 299.521 95.9596 299.677 95.8444 299.792C95.7291 299.907 95.5729 299.972 95.4099 299.972Z" fill="black"/>
<path d="M341.837 299.972H297.283C297.12 299.972 296.964 299.907 296.849 299.792C296.734 299.677 296.669 299.521 296.669 299.358C296.669 299.195 296.734 299.038 296.849 298.923C296.964 298.808 297.12 298.743 297.283 298.743H341.837C342 298.743 342.156 298.808 342.271 298.923C342.387 299.038 342.451 299.195 342.451 299.358C342.451 299.521 342.387 299.677 342.271 299.792C342.156 299.907 342 299.972 341.837 299.972Z" fill="black"/>
<path d="M279.769 289.832H129.209C122.237 253.304 121.128 218.725 129.209 187.206H279.769C289.438 216.703 289.438 250.912 279.769 289.832Z" fill="#4BD657"/>
<path d="M280.129 290.293H128.828L128.758 289.918C121.19 250.262 121.19 216.626 128.758 187.092L128.847 186.745H280.098L280.202 187.052C285.03 201.779 287.478 217.901 287.478 234.985C287.478 252.069 285.02 270.536 280.212 289.943L280.129 290.293ZM129.59 289.371H279.41C288.892 250.997 288.901 216.786 279.434 187.666H129.569C122.142 216.894 122.142 250.17 129.59 289.371Z" fill="#1D1E1B"/>
<path d="M89.7256 162.471C89.7256 162.471 119.251 170.767 129.261 186.13L148.26 179.37C148.26 179.37 144.923 164.929 118.993 151.102L89.7256 162.471Z" fill="#4BD657"/>
<path d="M129.074 186.686L128.874 186.379C119.072 171.323 89.8944 162.993 89.5995 162.91L88.272 162.538L119.023 150.592L119.211 150.693C132.678 157.874 139.97 165.23 143.715 170.137C147.805 175.496 148.674 179.112 148.708 179.263L148.8 179.662L129.074 186.686ZM91.1388 162.412C96.9154 164.222 120.498 172.263 129.446 185.571L147.694 179.078C146.923 176.694 141.856 163.866 118.962 151.606L91.1388 162.412Z" fill="#1D1E1B"/>
<path d="M319.407 162.471C319.407 162.471 289.882 170.767 279.871 186.13L260.873 179.37C260.873 179.37 264.209 164.929 290.14 151.102L319.407 162.471Z" fill="#4BD657"/>
<path d="M280.058 186.687L260.332 179.666L260.424 179.266C260.457 179.116 261.327 175.499 265.417 170.14C269.162 165.224 276.454 157.877 289.921 150.697L290.109 150.595L320.86 162.542L319.532 162.913C319.225 162.996 290.059 171.342 280.258 186.382L280.058 186.687ZM261.438 179.082L279.686 185.574C288.634 172.267 312.216 164.225 317.993 162.416L290.17 151.609C267.285 163.854 262.209 176.694 261.438 179.082Z" fill="#1D1E1B"/>
<path d="M129.363 186.13L148.413 179.985H260.872L279.923 186.13H129.363Z" fill="#050505"/>
<path d="M186.822 246.508C188.603 246.508 190.048 245.063 190.048 243.281C190.048 241.5 188.603 240.055 186.822 240.055C185.04 240.055 183.595 241.5 183.595 243.281C183.595 245.063 185.04 246.508 186.822 246.508Z" fill="#050505"/>
<path d="M203.721 246.508C205.503 246.508 206.947 245.063 206.947 243.281C206.947 241.5 205.503 240.055 203.721 240.055C201.939 240.055 200.495 241.5 200.495 243.281C200.495 245.063 201.939 246.508 203.721 246.508Z" fill="#050505"/>
<path d="M220.313 246.508C222.095 246.508 223.539 245.063 223.539 243.281C223.539 241.5 222.095 240.055 220.313 240.055C218.531 240.055 217.087 241.5 217.087 243.281C217.087 245.063 218.531 246.508 220.313 246.508Z" fill="#050505"/>
<path d="M271.012 282.458C270.745 282.458 270.481 282.395 270.242 282.273C270.004 282.151 269.797 281.974 269.641 281.757C269.484 281.539 269.381 281.288 269.341 281.023C269.301 280.758 269.324 280.488 269.409 280.233C278.35 253.409 277.88 231.913 275.907 218.602C273.787 204.271 269.562 196.221 269.522 196.144C269.411 195.948 269.34 195.732 269.314 195.508C269.287 195.284 269.306 195.057 269.369 194.84C269.432 194.623 269.537 194.422 269.68 194.246C269.822 194.071 269.997 193.926 270.196 193.82C270.395 193.714 270.613 193.648 270.838 193.628C271.062 193.607 271.289 193.632 271.504 193.7C271.719 193.768 271.918 193.879 272.089 194.025C272.261 194.172 272.401 194.351 272.503 194.553C272.687 194.9 277.044 203.202 279.262 218.107C281.284 231.781 281.776 253.846 272.626 281.303C272.512 281.641 272.296 281.934 272.006 282.142C271.716 282.349 271.369 282.46 271.012 282.458Z" fill="white"/>
<path d="M135.815 285.531C135.513 285.531 135.215 285.45 134.955 285.296C134.694 285.142 134.48 284.92 134.334 284.655C125.599 268.745 127.574 228.02 127.676 226.296C127.687 226.074 127.742 225.857 127.838 225.656C127.933 225.455 128.067 225.275 128.232 225.126C128.397 224.977 128.589 224.862 128.799 224.788C129.008 224.713 129.23 224.681 129.452 224.692C129.674 224.703 129.891 224.758 130.092 224.854C130.293 224.949 130.473 225.083 130.622 225.248C130.77 225.413 130.886 225.605 130.96 225.815C131.035 226.024 131.067 226.246 131.056 226.468C131.034 226.883 129.028 267.949 137.302 283.026C137.444 283.284 137.516 283.574 137.511 283.867C137.507 284.161 137.426 284.448 137.276 284.701C137.127 284.954 136.914 285.163 136.659 285.309C136.404 285.454 136.115 285.531 135.821 285.531H135.815Z" fill="white"/>
<path d="M187.762 86.6161C187.762 86.6161 177.837 91.5692 175.819 83.6571C173.8 75.7451 169.643 58.7687 157.318 60.8028C144.994 62.8369 143.608 65.0738 139.294 57.4229C134.98 49.772 103.725 50.7275 109.489 74.6972C118.938 113.984 189.421 110.196 189.421 110.196L191.074 101.101L187.762 86.6161Z" fill="#382256"/>
<path d="M184.563 110.74C178 110.74 165.667 110.309 152.915 107.618C141.943 105.304 132.795 101.798 125.725 97.1921C116.845 91.4094 111.238 83.8722 109.053 74.7925C107.79 69.5413 108.186 65.0246 110.233 61.3681C111.963 58.2955 114.894 55.8557 118.71 54.3594C126.582 51.2652 137.18 52.6909 139.709 57.1831C143.052 63.1226 144.318 62.8676 151.385 61.4449C153.053 61.11 154.946 60.729 157.257 60.348C169.855 58.2771 174.156 75.1336 176.206 83.2393L176.283 83.5466C176.737 85.3318 177.659 86.5546 179.023 87.1784C182.419 88.7332 187.522 86.232 187.572 86.2074L188.097 85.9463L191.56 101.079L191.541 101.174L189.824 110.629L189.461 110.647C189.39 110.647 187.59 110.74 184.563 110.74ZM127.762 53.619C124.78 53.6068 121.821 54.1485 119.036 55.2166C114.341 57.0602 106.917 62.0287 109.938 74.5744C114.759 94.6296 136.055 103.119 153.075 106.708C170.094 110.297 186.416 109.839 189.025 109.738L190.592 101.094L187.43 87.2675C185.962 87.9036 181.767 89.4522 178.618 88.0111C176.986 87.2644 175.892 85.8387 175.364 83.7677L175.287 83.4605C173.29 75.6221 169.142 59.3095 157.383 61.2514C155.087 61.6293 153.204 62.0072 151.545 62.3421C144.478 63.7709 142.56 64.155 138.885 57.6317C137.549 55.2504 132.986 53.619 127.762 53.619Z" fill="black"/>
<path d="M150.853 186.899C150.853 186.899 143.337 134.525 167.31 118.686C174.632 113.846 186.668 127.421 200.495 127.904C216.261 128.454 231.556 114.384 240.132 118.378C274.085 134.227 255.993 186.899 255.993 186.899H150.853Z" fill="#07ACEE"/>
<path d="M256.432 187.513H150.318L150.245 186.984C149.086 177.597 148.83 168.121 149.479 158.685C150.131 149.876 151.67 142.179 154.049 135.812C157.044 127.793 161.392 121.86 166.972 118.172C171.176 115.407 176.605 118.148 182.886 121.334C188.189 124.023 194.199 127.071 200.516 127.289C208.177 127.556 215.791 124.281 222.517 121.389C229.645 118.317 235.803 115.68 240.393 117.822C248.278 121.509 254.033 127.461 257.499 135.53C260.264 141.948 261.573 149.71 261.41 158.593C261.131 173.664 256.62 186.966 256.574 187.098L256.432 187.513ZM151.391 186.284H255.554C256.31 183.933 259.944 171.944 260.187 158.544C260.544 138.719 253.713 125.393 239.877 118.934C235.787 117.023 229.866 119.57 223.008 122.517C216.15 125.464 208.395 128.791 200.48 128.518C193.889 128.287 187.753 125.175 182.336 122.428C176.396 119.417 171.274 116.814 167.654 119.199C155.484 127.24 151.723 145.147 150.712 158.756C150.084 167.933 150.311 177.149 151.391 186.284Z" fill="#1D1D1B"/>
<path d="M192.967 126.475C192.967 126.475 186.514 128.057 191.123 132.974C195.732 137.89 202.185 133.588 202.185 133.588C202.185 133.588 209.252 137.583 214.168 133.588C219.084 129.594 212.939 125.827 212.939 125.827C212.939 125.827 207.715 129.806 192.967 126.475Z" fill="white"/>
<path d="M208.865 135.837C205.792 135.837 203.026 134.547 202.2 134.119C200.949 134.851 195.093 137.88 190.788 133.29C189.295 131.698 188.736 130.239 189.12 128.945C189.753 126.794 192.73 126.057 192.856 126.026L192.964 126.001L193.068 126.023C207.439 129.274 212.61 125.498 212.662 125.458L212.914 125.267L213.182 125.433C213.311 125.513 216.353 127.406 216.528 130.063C216.62 131.449 215.913 132.755 214.46 133.944C212.875 135.213 210.894 135.882 208.865 135.837ZM202.163 133.047L202.412 133.185C202.48 133.225 209.267 136.977 213.876 133.231C215.105 132.239 215.677 131.197 215.609 130.125C215.492 128.331 213.615 126.853 212.939 126.379C211.661 127.154 206.001 129.867 192.967 126.948C192.484 127.089 190.416 127.765 189.989 129.209C189.706 130.165 190.198 131.326 191.446 132.657C195.729 137.226 201.665 133.37 201.917 133.204L202.163 133.047Z" fill="#1D1D1B"/>
<path d="M196.808 115.306C196.808 115.306 198.037 124.831 194.657 129.133C194.657 129.133 201.417 134.356 209.713 129.133C209.713 129.133 204.489 118.378 206.026 115.306C207.562 112.233 196.808 115.306 196.808 115.306Z" fill="#FFCDB2"/>
<path d="M202.157 131.898C199.381 131.893 196.671 131.057 194.374 129.498L194.008 129.212L194.294 128.847C197.514 124.748 196.362 115.459 196.35 115.364L196.3 114.971L196.682 114.863C198.645 114.301 205.147 112.586 206.394 114.089C206.609 114.347 206.791 114.805 206.437 115.512C205.26 117.865 208.702 125.995 210.124 128.93L210.306 129.302L209.955 129.523C207.129 131.305 204.459 131.898 202.157 131.898ZM195.308 129.025C196.771 129.981 202.341 133.02 209.117 128.958C208.099 126.807 204.136 118.053 205.614 115.1C205.672 114.98 205.761 114.768 205.684 114.679C205.113 113.987 200.971 114.633 197.308 115.644C197.502 117.472 198.083 124.966 195.308 129.025Z" fill="#1D1D1B"/>
<path d="M185.439 61.8689C185.302 61.8691 185.17 61.824 185.062 61.7406C184.954 61.6571 184.876 61.5401 184.842 61.408C182.79 53.3576 190.782 49.6213 190.865 49.5844C190.939 49.5511 191.018 49.5327 191.099 49.5301C191.179 49.5275 191.26 49.5409 191.336 49.5694C191.411 49.5979 191.481 49.6412 191.539 49.6965C191.598 49.7518 191.646 49.818 191.679 49.8917C191.712 49.9653 191.731 50.0448 191.733 50.1256C191.736 50.2063 191.723 50.2869 191.694 50.3625C191.665 50.4381 191.622 50.5073 191.567 50.5662C191.512 50.6252 191.445 50.6726 191.372 50.7059C191.064 50.8442 184.237 54.0644 186.035 61.1039C186.055 61.1821 186.059 61.2636 186.047 61.3435C186.035 61.4234 186.008 61.5002 185.967 61.5696C185.925 61.6389 185.871 61.6993 185.806 61.7475C185.741 61.7957 185.667 61.8307 185.589 61.8504C185.54 61.8639 185.489 61.8701 185.439 61.8689Z" fill="#1D1D1B"/>
<path d="M199.997 76.7498C206.71 76.7498 212.153 71.3077 212.153 64.5944C212.153 57.8811 206.71 52.439 199.997 52.439C193.284 52.439 187.842 57.8811 187.842 64.5944C187.842 71.3077 193.284 76.7498 199.997 76.7498Z" fill="#382256"/>
<path d="M200.003 77.2048H199.813C197.318 77.1671 194.89 76.3907 192.837 74.9737C190.783 73.5567 189.196 71.5628 188.275 69.2438C187.354 66.9249 187.142 64.385 187.664 61.9452C188.186 59.5055 189.42 57.2752 191.209 55.5365C192.692 54.0969 194.506 53.0436 196.491 52.4692C198.476 51.8948 200.572 51.817 202.595 52.2424C204.617 52.6678 206.504 53.5835 208.09 54.909C209.675 56.2345 210.911 57.9293 211.688 59.8442C212.465 61.7591 212.76 63.8356 212.546 65.8912C212.333 67.9468 211.618 69.9185 210.464 71.6329C209.31 73.3474 207.753 74.7522 205.929 75.7237C204.105 76.6953 202.07 77.2039 200.003 77.2048ZM200.003 52.894C196.902 52.872 193.918 54.0829 191.71 56.2605C189.501 58.4381 188.248 61.4039 188.226 64.5055C188.204 67.6071 189.415 70.5904 191.592 72.7991C193.77 75.0079 196.736 76.261 199.838 76.283H200.009C203.08 76.2802 206.027 75.0706 208.214 72.9151C210.401 70.7596 211.653 67.831 211.701 64.7606C211.746 61.6591 210.558 58.6668 208.397 56.4415C206.236 54.2162 203.28 52.9401 200.178 52.894H200.003Z" fill="#1D1E1B"/>
<path d="M212.082 69.7443C207.236 60.8336 193.529 62.5418 190.026 66.3826C181.318 75.9263 172.936 71.2437 171.283 81.5801C170.457 86.7698 175.044 88.8193 172.819 98.3199C171.667 103.218 179.886 110.856 187.402 110.967C194.918 111.077 220.553 111.732 222.707 106.235C224.861 100.738 233.317 91.6092 226.566 81.0117C219.736 70.2973 214.18 73.6097 212.082 69.7443Z" fill="#382256"/>
<path d="M194.851 111.502C192.7 111.502 190.531 111.477 188.42 111.443L187.39 111.428C182.114 111.351 176.965 107.793 174.411 104.52C172.663 102.277 171.935 100.037 172.365 98.2154C173.659 92.7245 172.626 89.8117 171.717 87.2399C171.081 85.4424 170.487 83.7431 170.835 81.5093C171.79 75.5146 174.964 74.3256 178.983 72.823C182.216 71.6124 185.879 70.242 189.686 66.0632C191.852 63.688 197.14 62.3391 201.976 62.929C206.757 63.5098 210.487 65.8511 212.478 69.5168C213.191 70.8227 214.365 71.216 215.987 71.7568C218.787 72.6939 222.621 73.9721 226.941 80.7534C232.417 89.3569 228.189 96.9556 225.098 102.511C224.36 103.763 223.702 105.06 223.125 106.395C221.469 110.647 208.177 111.502 194.851 111.502ZM199.647 63.7218C195.49 63.7218 191.821 65.0983 190.368 66.693C186.41 71.0286 182.471 72.5034 179.306 73.6863C175.422 75.1397 172.614 76.1875 171.744 81.6538C171.437 83.6572 171.962 85.1751 172.586 86.9327C173.539 89.6212 174.617 92.6723 173.262 98.4244C172.897 99.9607 173.569 101.936 175.136 103.955C177.561 107.062 182.431 110.435 187.402 110.509L188.432 110.524C196.319 110.653 220.326 111.038 222.274 106.072C222.865 104.7 223.541 103.366 224.299 102.078C227.276 96.7252 231.366 89.3969 226.17 81.2635C222.025 74.7587 218.372 73.5389 215.702 72.6601C214.015 72.0978 212.558 71.6124 211.676 69.9838C209.833 66.5855 206.349 64.4162 201.872 63.8723C201.134 63.7768 200.391 63.7266 199.647 63.7218Z" fill="#1D1E1B"/>
<path d="M204.044 89.9563C197.837 90.918 189.719 87.7655 188.177 89.8733C186.634 91.9811 187.562 94.9832 190.828 95.8957C194.094 96.8083 197.416 96.8912 204.197 96.7376C210.979 96.5839 217.61 95.9295 217.044 92.2761C216.479 88.6227 213.173 88.5398 204.044 89.9563Z" fill="#FFB49F"/>
<path d="M200.719 72.0674C198.172 81.6541 188.41 85.9252 183.116 86.3308C181.915 89.2467 182.446 93.2166 182.397 96.6641C182.209 109.326 188.982 118.59 201.14 117.939C213.016 117.303 219.346 110.608 219.413 96.6548C219.413 93.3609 219.607 90.0978 218.587 87.2526C208.518 87.0621 200.719 72.0674 200.719 72.0674Z" fill="#FFCDB2"/>
<path d="M199.976 118.431C195.219 118.431 191.102 116.876 188.008 113.898C183.986 110.03 181.828 103.906 181.936 96.6578C181.936 95.8036 181.936 94.8942 181.899 94.0123C181.829 91.2685 181.752 88.4323 182.689 86.1555L182.797 85.8913L183.079 85.8698C188.801 85.4304 197.914 80.8214 200.286 71.9476L200.593 70.7983L201.143 71.8523C201.22 71.9998 208.933 86.6011 218.618 86.7916H218.925L219.032 87.0989C219.954 89.683 219.926 92.6296 219.896 95.4841C219.896 95.8744 219.896 96.2675 219.896 96.6608C219.862 103.636 218.24 108.998 215.072 112.599C211.975 116.123 207.301 118.074 201.186 118.403C200.771 118.421 200.369 118.431 199.976 118.431ZM183.442 86.7638C182.683 88.8256 182.753 91.4497 182.827 93.9877C182.852 94.8788 182.876 95.7975 182.864 96.6701C182.763 103.664 184.818 109.544 188.653 113.235C191.818 116.28 196.132 117.748 201.131 117.478C213.068 116.842 218.903 110.03 218.968 96.6547C218.968 96.2583 218.968 95.8651 218.968 95.4718C218.999 92.6911 219.026 90.0547 218.258 87.7011C209.581 87.2771 202.769 76.5934 200.842 73.2596C197.886 82.1703 188.853 86.2323 183.442 86.7638Z" fill="#1D1D1B"/>
<path d="M202.774 90.6905C195.382 91.9195 185.66 88.2324 183.844 90.7796C182.028 93.3268 183.152 96.8788 187.079 97.9297C191.006 98.9805 194.949 99.0419 203.039 98.7776C211.129 98.5134 219.017 97.6562 218.31 93.3084C217.603 88.9606 213.649 88.8807 202.774 90.6905Z" fill="#FFB49F"/>
<path d="M200.424 101.949C200.363 101.948 200.304 101.935 200.248 101.911C200.192 101.888 200.142 101.853 200.1 101.81C200.058 101.766 200.024 101.715 200.002 101.659C199.98 101.602 199.968 101.542 199.969 101.482L200.114 91.5357C200.116 91.4151 200.166 91.3002 200.252 91.2157C200.338 91.1313 200.454 91.084 200.575 91.084C200.635 91.0848 200.695 91.0975 200.75 91.1215C200.805 91.1454 200.856 91.1801 200.898 91.2235C200.94 91.2669 200.973 91.3182 200.995 91.3744C201.017 91.4307 201.028 91.4907 201.026 91.551L200.882 101.494C200.88 101.615 200.831 101.73 200.746 101.815C200.66 101.9 200.545 101.948 200.424 101.949Z" fill="black"/>
<path d="M191.673 61.2453C191.562 61.2458 191.452 61.2216 191.351 61.1746C191.167 61.0885 191.024 60.9332 190.955 60.7427C190.885 60.5521 190.894 60.3418 190.979 60.1575C191.083 59.9332 193.606 54.6268 200.504 54.2734C200.708 54.2632 200.907 54.3343 201.058 54.4712C201.21 54.608 201.3 54.7994 201.311 55.0032C201.321 55.2069 201.249 55.4063 201.113 55.5575C200.976 55.7088 200.785 55.7996 200.581 55.8097C194.648 56.117 192.472 60.6123 192.38 60.8028C192.317 60.937 192.217 61.0501 192.092 61.1287C191.967 61.2072 191.821 61.2478 191.673 61.2453Z" fill="white"/>
<path d="M189.51 89.9253C188.44 89.9316 187.384 89.6742 186.437 89.1756C186.335 89.1156 186.26 89.0184 186.227 88.9042C186.195 88.79 186.208 88.6677 186.263 88.5627C186.318 88.4578 186.412 88.3782 186.525 88.3407C186.637 88.3032 186.76 88.3106 186.868 88.3614C190.813 90.4416 195.382 86.7329 195.425 86.696C195.471 86.6545 195.525 86.6227 195.584 86.6026C195.643 86.5825 195.705 86.5743 195.767 86.5789C195.829 86.5834 195.889 86.6006 195.945 86.6291C196 86.6577 196.049 86.6971 196.088 86.745C196.128 86.7929 196.157 86.8481 196.175 86.9077C196.193 86.9673 196.198 87.0299 196.191 87.0917C196.184 87.1534 196.164 87.2131 196.134 87.2671C196.103 87.321 196.061 87.3683 196.012 87.4058C195.849 87.538 192.905 89.9253 189.51 89.9253Z" fill="black"/>
<path d="M208.908 88.7393C207.276 88.7393 204.606 88.2138 202.455 85.2641C202.384 85.1651 202.354 85.0417 202.373 84.9209C202.393 84.8002 202.459 84.692 202.558 84.6203C202.657 84.5486 202.781 84.5192 202.902 84.5385C203.022 84.5578 203.13 84.6243 203.202 84.7233C206.118 88.7485 209.962 87.7345 210.14 87.6884C210.256 87.6565 210.38 87.6706 210.486 87.7279C210.592 87.7851 210.672 87.8811 210.709 87.9957C210.742 88.1118 210.729 88.2364 210.671 88.3427C210.614 88.449 210.517 88.5286 210.401 88.5642C209.913 88.6845 209.411 88.7433 208.908 88.7393Z" fill="black"/>
<path d="M135.508 176.298C127.399 169.468 116.307 156.75 114.386 149.12C112.466 141.491 117.397 138.787 117.397 138.787L114.82 133.407L131.215 120.634L133.704 123.799C133.704 123.799 141.463 121.427 145.258 127.652C149.052 133.877 153.151 142.302 155.864 145.608C165.927 157.862 166.234 173.225 160.089 182.136C153.944 191.047 139.674 179.81 135.508 176.298Z" fill="#07ACEE"/>
<path d="M153.624 185.958C147.252 185.958 139.457 180.228 135.21 176.651C127.857 170.454 116.009 157.453 113.938 149.234C112.27 142.609 115.656 139.475 116.808 138.627L114.405 133.607C114.36 133.512 114.349 133.404 114.373 133.302C114.397 133.2 114.455 133.109 114.537 133.044L130.933 120.271C131.03 120.197 131.151 120.164 131.272 120.179C131.392 120.194 131.503 120.256 131.578 120.351L133.883 123.276C135.419 122.911 142.157 121.678 145.651 127.412C147.12 129.824 148.631 132.559 150.094 135.204C152.405 139.377 154.583 143.319 156.221 145.316C166.862 158.274 166.413 173.778 160.467 182.397C159.85 183.345 159.034 184.147 158.076 184.747C157.118 185.347 156.04 185.731 154.918 185.872C154.489 185.931 154.057 185.959 153.624 185.958ZM115.398 133.542L117.813 138.587C117.866 138.695 117.876 138.819 117.84 138.934C117.804 139.048 117.725 139.144 117.619 139.202C117.432 139.306 113.029 141.854 114.832 149.019C116.765 156.701 128.253 169.606 135.806 175.954C139.948 179.447 147.541 185.046 153.603 185.046C154.002 185.047 154.4 185.021 154.795 184.969C155.788 184.843 156.742 184.503 157.591 183.973C158.439 183.442 159.163 182.734 159.711 181.896C165.457 173.56 165.857 158.544 155.508 145.922C153.818 143.86 151.618 139.884 149.289 135.671C147.829 133.035 146.324 130.306 144.861 127.913C141.306 122.075 134.144 124.167 133.84 124.26C133.751 124.286 133.657 124.286 133.569 124.259C133.481 124.231 133.403 124.178 133.345 124.106L131.136 121.304L115.398 133.542Z" fill="#1D1D1B"/>
<path d="M117.939 138.907C117.939 138.907 130.933 136.366 133.492 124.18L131.129 120.993L115.413 133.49L117.939 138.907Z" fill="#0598C6"/>
<path d="M156.258 161.863C157.225 161.863 158.009 161.078 158.009 160.111C158.009 159.144 157.225 158.36 156.258 158.36C155.291 158.36 154.506 159.144 154.506 160.111C154.506 161.078 155.291 161.863 156.258 161.863Z" fill="#51CEF4"/>
<path d="M171.314 136.359C172.281 136.359 173.065 135.575 173.065 134.608C173.065 133.64 172.281 132.856 171.314 132.856C170.347 132.856 169.562 133.64 169.562 134.608C169.562 135.575 170.347 136.359 171.314 136.359Z" fill="#51CEF4"/>
<path d="M203.884 153.566C204.851 153.566 205.635 152.782 205.635 151.815C205.635 150.848 204.851 150.063 203.884 150.063C202.917 150.063 202.132 150.848 202.132 151.815C202.132 152.782 202.917 153.566 203.884 153.566Z" fill="#51CEF4"/>
<path d="M228.465 136.359C229.433 136.359 230.217 135.575 230.217 134.608C230.217 133.64 229.433 132.856 228.465 132.856C227.498 132.856 226.714 133.64 226.714 134.608C226.714 135.575 227.498 136.359 228.465 136.359Z" fill="#51CEF4"/>
<path d="M228.465 175.382C229.433 175.382 230.217 174.598 230.217 173.631C230.217 172.663 229.433 171.879 228.465 171.879C227.498 171.879 226.714 172.663 226.714 173.631C226.714 174.598 227.498 175.382 228.465 175.382Z" fill="#51CEF4"/>
<path d="M187.906 184.908C188.874 184.908 189.658 184.123 189.658 183.156C189.658 182.189 188.874 181.405 187.906 181.405C186.939 181.405 186.155 182.189 186.155 183.156C186.155 184.123 186.939 184.908 187.906 184.908Z" fill="#51CEF4"/>
<path d="M184.834 159.404C185.801 159.404 186.585 158.62 186.585 157.653C186.585 156.685 185.801 155.901 184.834 155.901C183.866 155.901 183.082 156.685 183.082 157.653C183.082 158.62 183.866 159.404 184.834 159.404Z" fill="#51CEF4"/>
<path d="M226.007 158.79C226.975 158.79 227.759 158.006 227.759 157.038C227.759 156.071 226.975 155.287 226.007 155.287C225.04 155.287 224.256 156.071 224.256 157.038C224.256 158.006 225.04 158.79 226.007 158.79Z" fill="#51CEF4"/>
<path d="M138.412 166.456C139.379 166.456 140.163 165.672 140.163 164.705C140.163 163.737 139.379 162.953 138.412 162.953C137.444 162.953 136.66 163.737 136.66 164.705C136.66 165.672 137.444 166.456 138.412 166.456Z" fill="#51CEF4"/>
<path d="M139.58 141.417C140.547 141.417 141.331 140.633 141.331 139.665C141.331 138.698 140.547 137.914 139.58 137.914C138.612 137.914 137.828 138.698 137.828 139.665C137.828 140.633 138.612 141.417 139.58 141.417Z" fill="#51CEF4"/>
<path d="M88.9817 114.399C88.9817 114.399 88.3027 131.646 114.138 131.225C114.138 131.225 128.121 130.399 132.119 122.351L131.526 120.738C131.526 120.738 138.544 111.95 134.687 106.417C134.687 106.417 127.411 106.524 122.704 116.658C122.704 116.658 114.7 106.794 102.775 111.167C102.775 111.167 96.8752 110.036 95.8858 113.318C95.8981 113.324 92.5798 111.253 88.9817 114.399Z" fill="#FFCDB2"/>
<path d="M91.2561 113.011C92.0069 112.727 92.8098 112.607 93.6107 112.66C94.4117 112.713 95.1919 112.937 95.8987 113.318C96.206 112.307 96.9742 111.714 97.8929 111.376C99.9608 110.62 102.788 111.161 102.788 111.161C114.713 106.788 122.717 116.652 122.717 116.652C125.636 110.353 129.551 107.928 132.098 106.994C132.926 106.668 133.8 106.471 134.688 106.41C138.544 111.941 131.526 120.732 131.526 120.732L132.119 122.345C130.386 125.833 126.776 127.965 123.242 129.262C120.305 130.307 117.245 130.965 114.138 131.219C88.3032 131.64 88.9822 114.393 88.9822 114.393C89.6482 113.794 90.4192 113.323 91.2561 113.004V113.011ZM90.9489 112.135C90.004 112.493 89.133 113.022 88.38 113.696C88.2866 113.779 88.2111 113.881 88.1583 113.994C88.1054 114.108 88.0764 114.231 88.0728 114.356C88.1498 118.51 89.8286 122.473 92.7586 125.418C97.2661 130.027 104.471 132.288 114.172 132.132H114.212C117.41 131.873 120.559 131.195 123.58 130.116C128.223 128.414 131.382 125.931 132.967 122.742C133.024 122.629 133.056 122.506 133.063 122.38C133.07 122.254 133.051 122.128 133.007 122.01L132.592 120.877C133.993 118.975 139.211 111.238 135.465 105.867C135.379 105.742 135.263 105.64 135.128 105.571C134.993 105.502 134.843 105.468 134.691 105.47C133.699 105.532 132.722 105.748 131.797 106.109C129.123 107.09 125.421 109.431 122.499 115.02C121.066 113.613 119.448 112.408 117.69 111.437C115.433 110.16 112.926 109.387 110.342 109.171C107.758 108.956 105.157 109.303 102.72 110.19C101.927 110.07 99.5121 109.787 97.5917 110.497C96.7299 110.785 95.9857 111.346 95.4717 112.095C94.0102 111.575 92.4122 111.586 90.9579 112.126L90.9489 112.135Z" fill="black"/>
<path d="M123.156 122.84H123.131C123.014 122.875 122.888 122.862 122.78 122.804C122.672 122.747 122.591 122.649 122.554 122.533C122.535 122.477 122.145 121.331 120.575 120.64C118.864 119.881 115.493 119.586 109.169 122.483C109.091 122.518 109.004 122.531 108.919 122.52C108.834 122.51 108.754 122.476 108.687 122.422C108.613 122.367 101.423 116.658 95.6895 113.739C95.6335 113.712 95.5832 113.675 95.5419 113.628C95.5006 113.582 95.4692 113.528 95.4492 113.469C95.4292 113.41 95.4211 113.348 95.4255 113.286C95.4299 113.225 95.4465 113.164 95.4747 113.109C95.5029 113.054 95.5419 113.004 95.5893 112.964C95.6368 112.925 95.6918 112.894 95.7511 112.876C95.8103 112.858 95.8727 112.852 95.9344 112.858C95.9961 112.864 96.0561 112.882 96.1105 112.912C101.356 115.582 107.771 120.529 109.04 121.516C114.264 119.168 118.292 118.597 120.993 119.81C122.941 120.689 123.42 122.201 123.451 122.268C123.486 122.383 123.475 122.507 123.42 122.614C123.365 122.721 123.27 122.802 123.156 122.84Z" fill="black"/>
<path d="M114.433 117.994C114.346 118.025 114.251 118.03 114.162 118.007C114.072 117.985 113.991 117.936 113.929 117.868C113.892 117.828 110.196 113.8 102.523 111.283C102.406 111.245 102.309 111.162 102.254 111.052C102.198 110.942 102.188 110.815 102.227 110.698C102.265 110.581 102.348 110.484 102.458 110.428C102.568 110.373 102.695 110.363 102.812 110.401C110.736 113.001 114.463 117.075 114.617 117.247C114.658 117.292 114.69 117.345 114.71 117.403C114.731 117.46 114.74 117.521 114.737 117.582C114.734 117.642 114.718 117.702 114.692 117.757C114.666 117.812 114.629 117.861 114.583 117.902C114.539 117.942 114.488 117.973 114.433 117.994Z" fill="black"/>
<path d="M112.885 129.329L112.78 129.36C102.981 131.087 94.8419 123.961 94.5008 123.657C94.3786 123.548 94.3045 123.395 94.295 123.232C94.2855 123.069 94.3413 122.908 94.4501 122.786C94.5589 122.664 94.7119 122.59 94.8753 122.58C95.0387 122.571 95.199 122.626 95.3212 122.735C95.4011 122.806 103.365 129.768 112.565 128.143C112.72 128.109 112.883 128.137 113.018 128.22C113.153 128.303 113.251 128.436 113.291 128.59C113.331 128.744 113.309 128.907 113.231 129.045C113.153 129.184 113.025 129.287 112.872 129.332L112.885 129.329Z" fill="white"/>
<path d="M271.012 173.225C279.121 166.395 288.219 151.219 290.136 143.59C292.054 135.96 287.125 133.256 287.125 133.256L289.7 127.876L273.307 115.103L270.816 118.268C270.816 118.268 263.057 115.896 259.265 122.121C255.474 128.346 251.369 136.771 248.656 140.078C238.593 152.331 242.129 174.762 248.275 183.672C254.42 192.583 266.846 176.737 271.012 173.225Z" fill="#07ACEE"/>
<path d="M252.948 186.815C252.767 186.815 252.589 186.816 252.41 186.794C250.613 186.634 249.095 185.672 247.896 183.933C244.596 179.152 242.311 171.188 241.926 163.15C241.472 153.64 243.736 145.328 248.299 139.798C249.94 137.8 252.118 133.858 254.426 129.686C255.888 127.04 257.4 124.305 258.872 121.893C262.366 116.16 269.116 117.392 270.64 117.758L272.945 114.832C273.02 114.736 273.13 114.674 273.251 114.659C273.372 114.644 273.494 114.678 273.59 114.753L289.983 127.526C290.067 127.589 290.126 127.68 290.15 127.783C290.174 127.886 290.161 127.993 290.115 128.088L287.712 133.109C288.864 133.957 292.251 137.103 290.582 143.715C288.622 151.505 279.342 166.822 271.31 173.591L271.003 173.237L271.31 173.591C270.585 174.205 269.58 175.216 268.419 176.393C264.283 180.566 258.107 186.815 252.948 186.815ZM267.39 118.268C264.95 118.268 261.711 119.002 259.665 122.36C258.205 124.754 256.697 127.483 255.237 130.119C252.911 134.331 250.711 138.307 249.018 140.369C244.6 145.749 242.412 153.824 242.855 163.107C243.223 170.862 245.503 178.833 248.659 183.411C249.71 184.947 250.966 185.74 252.496 185.869C252.65 185.881 252.807 185.888 252.966 185.888C257.729 185.888 263.746 179.801 267.768 175.726C268.948 174.534 269.964 173.505 270.72 172.866C278.632 166.201 287.764 151.133 289.694 143.473C291.501 136.307 287.098 133.76 286.907 133.64C286.801 133.583 286.721 133.487 286.686 133.372C286.65 133.257 286.661 133.132 286.717 133.026L289.132 127.98L273.391 115.72L271.184 118.523C271.126 118.595 271.048 118.649 270.959 118.676C270.87 118.703 270.775 118.704 270.687 118.676C269.609 118.392 268.498 118.255 267.384 118.268H267.39Z" fill="#1D1D1B"/>
<path d="M286.581 133.376C286.581 133.376 273.59 130.835 271.027 118.649L273.393 115.462L289.11 127.959L286.581 133.376Z" fill="#0598C6"/>
<path d="M248.262 156.332C249.229 156.332 250.014 155.548 250.014 154.58C250.014 153.613 249.229 152.829 248.262 152.829C247.295 152.829 246.511 153.613 246.511 154.58C246.511 155.548 247.295 156.332 248.262 156.332Z" fill="#51CEF4"/>
<path d="M266.111 160.925C267.079 160.925 267.863 160.141 267.863 159.174C267.863 158.207 267.079 157.422 266.111 157.422C265.144 157.422 264.36 158.207 264.36 159.174C264.36 160.141 265.144 160.925 266.111 160.925Z" fill="#51CEF4"/>
<path d="M264.94 135.886C265.908 135.886 266.692 135.102 266.692 134.135C266.692 133.167 265.908 132.383 264.94 132.383C263.973 132.383 263.189 133.167 263.189 134.135C263.189 135.102 263.973 135.886 264.94 135.886Z" fill="#51CEF4"/>
<path d="M316.853 108.017C316.853 108.017 317.529 125.264 291.694 124.843C291.694 124.843 277.714 124.017 273.716 115.97L274.306 114.359C274.306 114.359 267.292 105.569 271.148 100.035C271.148 100.035 278.42 100.142 283.115 110.276C283.115 110.276 291.12 100.413 303.048 104.785C303.048 104.785 308.944 103.657 309.934 106.936C309.934 106.945 313.262 104.859 316.853 108.017Z" fill="#FFCDB2"/>
<path d="M314.576 106.631C315.414 106.949 316.186 107.419 316.853 108.017C316.853 108.017 317.529 125.264 291.694 124.843C288.588 124.589 285.529 123.931 282.593 122.886C279.059 121.589 275.449 119.46 273.716 115.969L274.306 114.359C274.306 114.359 267.291 105.568 271.147 100.034C272.035 100.097 272.908 100.294 273.737 100.618C276.282 101.54 280.19 103.977 283.115 110.276C283.115 110.276 291.119 100.412 303.047 104.785C303.047 104.785 305.874 104.244 307.942 105.003C308.864 105.338 309.629 105.925 309.933 106.945C310.64 106.564 311.42 106.339 312.221 106.286C313.022 106.233 313.825 106.353 314.576 106.638V106.631ZM314.883 105.765C313.429 105.227 311.831 105.216 310.37 105.734C309.856 104.985 309.111 104.424 308.25 104.136C306.326 103.433 303.911 103.715 303.121 103.829C300.684 102.943 298.084 102.596 295.499 102.811C292.915 103.027 290.408 103.799 288.151 105.077C286.393 106.047 284.775 107.252 283.343 108.659C280.417 103.07 276.718 100.729 274.045 99.7487C273.118 99.3869 272.14 99.1712 271.147 99.1095C270.996 99.1068 270.845 99.1415 270.71 99.2106C270.575 99.2798 270.459 99.3812 270.373 99.5059C266.63 104.877 271.845 112.614 273.249 114.516L272.831 115.65C272.788 115.768 272.769 115.894 272.777 116.02C272.784 116.146 272.817 116.268 272.874 116.381C274.456 119.573 277.615 122.053 282.261 123.755C285.283 124.833 288.432 125.509 291.629 125.768H291.67C301.37 125.925 308.569 123.666 313.083 119.054C316.017 116.106 317.696 112.136 317.769 107.977C317.764 107.852 317.734 107.73 317.681 107.616C317.628 107.503 317.554 107.401 317.461 107.317C316.708 106.643 315.837 106.114 314.892 105.756L314.883 105.765Z" fill="black"/>
<path d="M282.676 116.458H282.7C282.818 116.494 282.945 116.481 283.054 116.424C283.163 116.366 283.244 116.268 283.281 116.151C283.3 116.095 283.687 114.949 285.257 114.258C286.972 113.502 290.342 113.204 296.666 116.102C296.744 116.136 296.83 116.149 296.915 116.139C297 116.129 297.08 116.096 297.148 116.043C297.219 115.985 304.409 110.276 310.146 107.357C310.202 107.33 310.252 107.293 310.293 107.246C310.334 107.2 310.366 107.146 310.386 107.087C310.406 107.029 310.414 106.966 310.41 106.905C310.405 106.843 310.388 106.782 310.36 106.727C310.332 106.672 310.293 106.623 310.245 106.583C310.198 106.543 310.143 106.513 310.084 106.494C310.025 106.476 309.962 106.47 309.901 106.476C309.839 106.482 309.779 106.501 309.725 106.53C304.48 109.2 298.064 114.147 296.792 115.134C291.568 112.786 287.543 112.215 284.842 113.431C282.894 114.31 282.415 115.819 282.384 115.89C282.35 116.004 282.362 116.126 282.417 116.232C282.471 116.338 282.564 116.419 282.676 116.458Z" fill="black"/>
<path d="M291.403 111.619C291.49 111.65 291.584 111.655 291.674 111.633C291.764 111.61 291.844 111.562 291.906 111.493C291.943 111.453 295.64 107.425 303.309 104.908C303.371 104.893 303.429 104.865 303.48 104.826C303.531 104.788 303.574 104.739 303.605 104.683C303.636 104.627 303.655 104.565 303.661 104.501C303.667 104.437 303.66 104.373 303.64 104.312C303.62 104.252 303.588 104.195 303.545 104.148C303.503 104.1 303.45 104.062 303.392 104.035C303.334 104.008 303.271 103.994 303.207 103.993C303.143 103.992 303.079 104.004 303.02 104.029C295.099 106.626 291.372 110.703 291.218 110.875C291.177 110.92 291.145 110.973 291.125 111.03C291.104 111.088 291.095 111.149 291.098 111.209C291.101 111.27 291.117 111.33 291.143 111.385C291.169 111.44 291.206 111.489 291.252 111.53C291.296 111.569 291.347 111.599 291.403 111.619Z" fill="black"/>
<path d="M292.951 122.947C292.984 122.962 293.019 122.973 293.055 122.978C302.854 124.708 310.994 117.579 311.335 117.275C311.457 117.166 311.531 117.013 311.54 116.849C311.549 116.685 311.493 116.525 311.384 116.403C311.274 116.28 311.121 116.206 310.957 116.197C310.794 116.188 310.633 116.244 310.511 116.353C310.434 116.424 302.47 123.387 293.27 121.764C293.118 121.738 292.961 121.769 292.831 121.853C292.701 121.936 292.608 122.066 292.569 122.215C292.53 122.365 292.549 122.524 292.622 122.66C292.695 122.796 292.817 122.9 292.963 122.95L292.951 122.947Z" fill="white"/>
<path d="M198.498 111.926H198.445C198.324 111.912 198.213 111.85 198.137 111.755C198.061 111.659 198.026 111.537 198.04 111.416C198.175 110.269 197.969 109.486 197.425 109.093C196.325 108.288 193.965 109.062 193.151 109.431C193.096 109.456 193.036 109.47 192.976 109.472C192.915 109.474 192.854 109.463 192.798 109.442C192.741 109.421 192.689 109.388 192.645 109.347C192.6 109.305 192.565 109.256 192.54 109.2C192.515 109.145 192.501 109.085 192.499 109.025C192.497 108.964 192.507 108.904 192.528 108.847C192.55 108.79 192.582 108.738 192.624 108.694C192.665 108.649 192.715 108.614 192.77 108.589C192.912 108.527 196.215 107.052 197.969 108.349C198.796 108.964 199.124 110.021 198.949 111.52C198.936 111.631 198.883 111.733 198.8 111.808C198.717 111.882 198.609 111.924 198.498 111.926Z" fill="black"/>
<path d="M191.123 97.3307C191.802 97.3307 192.352 96.7804 192.352 96.1016C192.352 95.4228 191.802 94.8726 191.123 94.8726C190.444 94.8726 189.894 95.4228 189.894 96.1016C189.894 96.7804 190.444 97.3307 191.123 97.3307Z" fill="black"/>
<path d="M210.634 97.4845C211.313 97.4845 211.863 96.9342 211.863 96.2554C211.863 95.5766 211.313 95.0264 210.634 95.0264C209.956 95.0264 209.405 95.5766 209.405 96.2554C209.405 96.9342 209.956 97.4845 210.634 97.4845Z" fill="black"/>
<path d="M131.575 82.9045C131.499 82.9039 131.425 82.8894 131.354 82.8616C123.402 79.7889 116.258 74.4547 110.113 66.9759C105.215 61.0149 100.941 53.6897 97.4072 45.2061C93.7464 36.3614 91.1203 27.123 89.5813 17.6751C89.5704 17.5944 89.5755 17.5124 89.5963 17.4337C89.6171 17.355 89.6531 17.2811 89.7025 17.2163C89.7519 17.1515 89.8136 17.0972 89.884 17.0562C89.9544 17.0153 90.032 16.9886 90.1127 16.9777C90.1934 16.9669 90.2755 16.9719 90.3542 16.9928C90.433 17.0136 90.5067 17.0496 90.5715 17.099C90.6362 17.1483 90.6908 17.21 90.7317 17.2804C90.7727 17.3508 90.7994 17.4286 90.8103 17.5093C90.8103 17.6384 92.6138 30.479 98.5625 44.7607C104.032 57.884 114.233 74.9495 131.806 81.7155C131.94 81.7666 132.053 81.8633 132.123 81.9888C132.194 82.1144 132.218 82.2609 132.192 82.4025C132.165 82.5441 132.09 82.672 131.979 82.7638C131.868 82.8555 131.729 82.9053 131.585 82.9045H131.575Z" fill="black"/>
<path d="M115.951 82.0874H115.883C108.168 81.2547 100.701 76.5781 94.2919 68.5677C91.3589 64.8906 88.8691 60.8807 86.8744 56.6211C86.8421 56.547 86.8248 56.4675 86.8233 56.3867C86.8219 56.306 86.8361 56.2256 86.8657 56.1504C86.8952 56.0753 86.9392 56.0067 86.9953 55.9485C87.0513 55.8903 87.1184 55.8438 87.1924 55.8115C87.2665 55.7792 87.3463 55.7618 87.4271 55.7604C87.5078 55.7589 87.588 55.7733 87.6632 55.8028C87.7384 55.8323 87.807 55.8764 87.8652 55.9324C87.9233 55.9885 87.9697 56.0555 88.002 56.1296C88.1003 56.36 98.1417 78.9441 116.015 80.8768C116.178 80.8853 116.331 80.9582 116.441 81.0795C116.55 81.2007 116.606 81.3606 116.598 81.5235C116.589 81.6865 116.516 81.8394 116.395 81.9486C116.274 82.0578 116.114 82.1144 115.951 82.1058V82.0874Z" fill="black"/>
<path d="M57.6162 113.462C57.5026 113.462 57.3912 113.431 57.2942 113.372C57.1973 113.313 57.1186 113.228 57.0671 113.126C57.0155 113.025 56.9929 112.912 57.002 112.798C57.011 112.685 57.0513 112.577 57.1184 112.485C61.6567 106.263 69.7869 103.731 80.6272 105.172C85.7808 105.904 90.8264 107.259 95.6526 109.21C95.8025 109.274 95.9207 109.395 95.9812 109.547C96.0417 109.698 96.0395 109.868 95.9752 110.018C95.9108 110.168 95.7894 110.286 95.6379 110.346C95.4863 110.407 95.317 110.405 95.1671 110.34C94.8998 110.223 68.4535 99.0299 58.114 113.21C58.0568 113.288 57.9818 113.352 57.8952 113.396C57.8087 113.44 57.7132 113.462 57.6162 113.462Z" fill="black"/>
<path d="M100.941 102.401C100.855 102.4 100.769 102.382 100.69 102.347C100.611 102.311 100.541 102.259 100.483 102.195C100.406 102.112 92.783 93.8556 76.7346 95.6378C76.6539 95.6466 76.5722 95.6394 76.4942 95.6167C76.4163 95.5941 76.3436 95.5562 76.2803 95.5054C76.2169 95.4546 76.1642 95.3919 76.1251 95.3207C76.086 95.2496 76.0614 95.1714 76.0525 95.0907C76.0436 95.01 76.0508 94.9283 76.0735 94.8504C76.0962 94.7724 76.1341 94.6998 76.1848 94.6364C76.2356 94.5731 76.2982 94.5204 76.3694 94.4813C76.4405 94.4422 76.5188 94.4176 76.5995 94.4087C93.3178 92.5497 101.076 101.009 101.399 101.371C101.478 101.46 101.529 101.569 101.547 101.686C101.565 101.803 101.549 101.923 101.501 102.031C101.453 102.139 101.374 102.231 101.275 102.295C101.175 102.36 101.059 102.394 100.941 102.394V102.401Z" fill="black"/>
<path d="M256.571 178.449C256.305 178.449 256.046 178.363 255.833 178.204C255.62 178.045 255.465 177.821 255.39 177.565C255.315 177.31 255.325 177.038 255.418 176.789C255.512 176.539 255.683 176.327 255.907 176.184C285.509 157.238 281.251 141.771 281.204 141.626C281.11 141.314 281.143 140.977 281.297 140.689C281.451 140.402 281.713 140.187 282.025 140.093C282.337 139.998 282.674 140.032 282.961 140.186C283.249 140.339 283.464 140.601 283.558 140.913C283.613 141.098 284.879 145.476 282.139 152.328C278.577 161.239 270.198 169.959 257.25 178.255C257.047 178.385 256.811 178.452 256.571 178.449Z" fill="white"/>
<path d="M335.077 105.781C334.994 105.781 334.911 105.764 334.835 105.731C334.758 105.698 334.689 105.65 334.632 105.59C329.807 100.52 323.416 98.3693 315.63 99.2051C312.04 99.6004 308.533 100.553 305.236 102.029C305.163 102.072 305.082 102.099 304.998 102.109C304.914 102.119 304.829 102.111 304.748 102.087C304.667 102.063 304.592 102.022 304.527 101.968C304.463 101.913 304.41 101.846 304.373 101.77C304.336 101.694 304.315 101.611 304.311 101.527C304.307 101.442 304.32 101.358 304.351 101.279C304.381 101.2 304.427 101.128 304.486 101.068C304.545 101.008 304.616 100.96 304.695 100.929C308.1 99.3832 311.731 98.3906 315.449 97.9883C323.536 97.1095 330.474 99.4478 335.51 104.748C335.593 104.835 335.649 104.945 335.67 105.063C335.692 105.182 335.678 105.304 335.63 105.414C335.583 105.525 335.504 105.619 335.404 105.685C335.303 105.752 335.185 105.787 335.065 105.787L335.077 105.781Z" fill="black"/>
<path d="M289.909 99.0204C289.797 99.0202 289.687 98.9893 289.591 98.9311C289.495 98.873 289.417 98.7897 289.365 98.6903C289.313 98.591 289.29 98.4794 289.297 98.3675C289.304 98.2556 289.341 98.1477 289.405 98.0556C289.51 97.905 291.999 94.3684 297.05 91.4217C301.705 88.7024 309.491 86.0016 320.165 88.5918C320.323 88.6304 320.46 88.73 320.544 88.8688C320.629 89.0076 320.655 89.1743 320.617 89.3324C320.579 89.4903 320.479 89.6264 320.34 89.7111C320.202 89.7957 320.035 89.822 319.877 89.784C309.626 87.3013 302.172 89.8669 297.72 92.4541C292.883 95.2687 290.437 98.7224 290.413 98.7562C290.356 98.8376 290.281 98.9042 290.194 98.9502C290.106 98.9962 290.008 99.0203 289.909 99.0204Z" fill="black"/>
<defs>
<filter id="filter0_d_14058_99867" x="-4.01969" y="107.785" width="38.6844" height="38.6839" filterUnits="userSpaceOnUse" color-interpolation-filters="sRGB">
<feFlood flood-opacity="0" result="BackgroundImageFix"/>
<feColorMatrix in="SourceAlpha" type="matrix" values="0 0 0 0 0 0 0 0 0 0 0 0 0 0 0 0 0 0 127 0" result="hardAlpha"/>
<feOffset dy="2.03704"/>
<feGaussianBlur stdDeviation="5.09261"/>
<feComposite in2="hardAlpha" operator="out"/>
<feColorMatrix type="matrix" values="0 0 0 0 0 0 0 0 0 0 0 0 0 0 0 0 0 0 0.05 0"/>
<feBlend mode="normal" in2="BackgroundImageFix" result="effect1_dropShadow_14058_99867"/>
<feBlend mode="normal" in="SourceGraphic" in2="effect1_dropShadow_14058_99867" result="shape"/>
</filter>
<filter id="filter1_d_14058_99867" x="370.649" y="165.21" width="38.6888" height="38.6883" filterUnits="userSpaceOnUse" color-interpolation-filters="sRGB">
<feFlood flood-opacity="0" result="BackgroundImageFix"/>
<feColorMatrix in="SourceAlpha" type="matrix" values="0 0 0 0 0 0 0 0 0 0 0 0 0 0 0 0 0 0 127 0" result="hardAlpha"/>
<feOffset dy="2.03704"/>
<feGaussianBlur stdDeviation="5.09261"/>
<feComposite in2="hardAlpha" operator="out"/>
<feColorMatrix type="matrix" values="0 0 0 0 0 0 0 0 0 0 0 0 0 0 0 0 0 0 0.05 0"/>
<feBlend mode="normal" in2="BackgroundImageFix" result="effect1_dropShadow_14058_99867"/>
<feBlend mode="normal" in="SourceGraphic" in2="effect1_dropShadow_14058_99867" result="shape"/>
</filter>
<linearGradient id="paint0_linear_14058_99867" x1="20.4542" y1="112.038" x2="392.052" y2="200.547" gradientUnits="userSpaceOnUse">
<stop stop-color="#CDD5E2"/>
<stop offset="1" stop-color="#CDD5E2" stop-opacity="0"/>
</linearGradient>
<linearGradient id="paint1_linear_14058_99867" x1="391.41" y1="195.437" x2="353.85" y2="294.044" gradientUnits="userSpaceOnUse">
<stop stop-color="#CDD5E2"/>
<stop offset="1" stop-color="#CDD5E2" stop-opacity="0"/>
</linearGradient>
<linearGradient id="paint2_linear_14058_99867" x1="196.502" y1="23.2607" x2="196.502" y2="365.006" gradientUnits="userSpaceOnUse">
<stop stop-color="#CDD5E2"/>
<stop offset="1" stop-color="#CDD5E2" stop-opacity="0"/>
</linearGradient>
<linearGradient id="paint3_linear_14058_99867" x1="196.505" y1="57.4336" x2="196.505" y2="330.83" gradientUnits="userSpaceOnUse">
<stop stop-color="#CDD5E2"/>
<stop offset="1" stop-color="#CDD5E2" stop-opacity="0"/>
</linearGradient>
</defs>
</svg>
