<svg width="406" height="302" viewBox="0 0 406 302" fill="none" xmlns="http://www.w3.org/2000/svg">
<mask id="mask0_14058_98042" style="mask-type:alpha" maskUnits="userSpaceOnUse" x="0" y="0" width="406" height="302">
<rect width="405.823" height="301.875" fill="#D9D9D9"/>
</mask>
<g mask="url(#mask0_14058_98042)">
<g opacity="0.5">
<mask id="path-2-inside-1_14058_98042" fill="white">
<path d="M389.978 202.565C391.994 156.308 377.371 110.86 348.758 74.4588C320.146 38.0574 279.439 13.1119 234.015 4.14415C188.591 -4.82363 141.458 2.77982 101.158 25.5762C60.8587 48.3727 30.0604 84.8533 14.3459 128.405L15.1855 128.708C30.8276 85.357 61.484 49.0446 101.598 26.3532C141.712 3.66186 188.628 -3.90654 233.842 5.0199C279.056 13.9463 319.576 38.7768 348.057 75.0104C376.537 111.244 391.093 156.483 389.087 202.526L389.978 202.565Z"/>
</mask>
<path d="M389.978 202.565C391.994 156.308 377.371 110.86 348.758 74.4588C320.146 38.0574 279.439 13.1119 234.015 4.14415C188.591 -4.82363 141.458 2.77982 101.158 25.5762C60.8587 48.3727 30.0604 84.8533 14.3459 128.405L15.1855 128.708C30.8276 85.357 61.484 49.0446 101.598 26.3532C141.712 3.66186 188.628 -3.90654 233.842 5.0199C279.056 13.9463 319.576 38.7768 348.057 75.0104C376.537 111.244 391.093 156.483 389.087 202.526L389.978 202.565Z" stroke="url(#paint0_linear_14058_98042)" stroke-width="2.84788" stroke-dasharray="4.27 4.27" mask="url(#path-2-inside-1_14058_98042)"/>
</g>
<g opacity="0.5">
<mask id="path-3-inside-2_14058_98042" fill="white">
<path d="M14.6038 260.572C30.4887 304.063 61.4296 340.422 101.818 363.061C142.206 385.699 189.369 393.118 234.758 383.973C280.146 374.827 320.755 349.723 349.225 313.21C377.695 276.697 392.14 231.192 389.943 184.943L389.051 184.986C391.238 231.021 376.859 276.316 348.521 312.661C320.182 349.006 279.76 373.994 234.581 383.098C189.402 392.201 142.457 384.816 102.254 362.282C62.0522 339.748 31.2539 303.556 15.4423 260.266L14.6038 260.572Z"/>
</mask>
<path d="M14.6038 260.572C30.4887 304.063 61.4296 340.422 101.818 363.061C142.206 385.699 189.369 393.118 234.758 383.973C280.146 374.827 320.755 349.723 349.225 313.21C377.695 276.697 392.14 231.192 389.943 184.943L389.051 184.986C391.238 231.021 376.859 276.316 348.521 312.661C320.182 349.006 279.76 373.994 234.581 383.098C189.402 392.201 142.457 384.816 102.254 362.282C62.0522 339.748 31.2539 303.556 15.4423 260.266L14.6038 260.572Z" stroke="url(#paint1_linear_14058_98042)" stroke-width="2.84788" stroke-dasharray="4.27 4.27" mask="url(#path-3-inside-2_14058_98042)"/>
</g>
<circle opacity="0.08" cx="196.502" cy="194.133" r="170.873" fill="url(#paint2_linear_14058_98042)"/>
<circle opacity="0.1" cx="196.505" cy="194.132" r="136.698" fill="url(#paint3_linear_14058_98042)"/>
<circle cx="196.504" cy="194.134" r="91.1321" fill="white"/>
<g filter="url(#filter0_d_14058_98042)">
<circle cx="15.3224" cy="125.09" r="7.11969" transform="rotate(-2.50406 15.3224 125.09)" fill="#0170FF"/>
<circle cx="15.3224" cy="125.09" r="8.13822" transform="rotate(-2.50406 15.3224 125.09)" stroke="white" stroke-width="2.03704"/>
</g>
<g filter="url(#filter1_d_14058_98042)">
<circle cx="389.993" cy="182.517" r="7.11969" transform="rotate(-15.7345 389.993 182.517)" fill="#0170FF"/>
<circle cx="389.993" cy="182.517" r="8.13822" transform="rotate(-15.7345 389.993 182.517)" stroke="white" stroke-width="2.03704"/>
</g>
</g>
<path d="M334.437 282.803L82.709 281.364C82.4799 281.364 82.26 281.273 82.098 281.111C81.9359 280.949 81.8448 280.729 81.8448 280.5C81.8448 280.271 81.9359 280.051 82.098 279.889C82.26 279.727 82.4799 279.636 82.709 279.636L334.437 281.075C334.666 281.075 334.886 281.166 335.048 281.328C335.21 281.49 335.301 281.71 335.301 281.939C335.301 282.168 335.21 282.388 335.048 282.55C334.886 282.712 334.666 282.803 334.437 282.803Z" fill="black"/>
<path d="M83.8385 292.97H47.6488C47.4767 292.97 47.3118 292.902 47.1901 292.78C47.0684 292.658 47 292.493 47 292.321C47 292.149 47.0684 291.984 47.1901 291.862C47.3118 291.741 47.4767 291.672 47.6488 291.672H83.8286C84.0007 291.672 84.1656 291.741 84.2873 291.862C84.409 291.984 84.4774 292.149 84.4774 292.321C84.4774 292.493 84.409 292.658 84.2873 292.78C84.1656 292.902 84.0007 292.97 83.8286 292.97H83.8385Z" fill="black"/>
<path d="M351.799 298.013H315.609C315.524 298.013 315.44 297.996 315.361 297.964C315.283 297.931 315.211 297.883 315.151 297.823C315.091 297.763 315.043 297.691 315.01 297.612C314.977 297.534 314.961 297.449 314.961 297.364C314.961 297.279 314.977 297.195 315.01 297.116C315.043 297.037 315.091 296.966 315.151 296.905C315.211 296.845 315.283 296.797 315.361 296.765C315.44 296.732 315.524 296.715 315.609 296.715H351.789C351.875 296.715 351.959 296.732 352.038 296.765C352.116 296.797 352.188 296.845 352.248 296.905C352.308 296.966 352.356 297.037 352.389 297.116C352.421 297.195 352.438 297.279 352.438 297.364C352.438 297.449 352.421 297.534 352.389 297.612C352.356 297.691 352.308 297.763 352.248 297.823C352.188 297.883 352.116 297.931 352.038 297.964C351.959 297.996 351.875 298.013 351.789 298.013H351.799Z" fill="black"/>
<path d="M190.636 206.359C190.636 206.359 186.477 214.041 181.599 209.855C176.72 205.669 166.355 196.612 159.328 203.497C152.301 210.383 152.426 212.454 146.179 209.465C139.932 206.476 120.22 221.233 134.785 234.089C158.656 255.136 202.363 220.799 202.363 220.799L199.314 214.189L190.636 206.359Z" fill="#382256"/>
<path d="M154.046 241.419C146.27 241.419 139.687 239.085 134.449 234.466C128.521 229.238 127.408 222.776 131.403 216.741C135.101 211.133 142.672 207.233 146.394 209.008C151.145 211.277 151.75 210.642 155.684 206.503C156.608 205.528 157.657 204.429 158.975 203.141C166.241 196.017 176.707 205 181.737 209.314L181.925 209.475C182.994 210.393 184.1 210.749 185.22 210.544C188.054 210.02 190.169 206.174 190.192 206.123L190.495 205.558L199.731 213.886L202.992 220.947L202.679 221.192C202.568 221.28 191.537 229.887 177.722 235.797C169.589 239.277 162.089 241.16 155.428 241.392C154.964 241.412 154.5 241.419 154.046 241.419ZM144.259 209.586C140.833 209.586 135.356 212.588 132.243 217.295C130.078 220.57 127.573 227.046 135.118 233.709C147.245 244.404 164.755 240.249 177.309 234.879C189.708 229.577 199.852 222.08 201.741 220.644L198.9 214.495L190.754 207.145C190.004 208.329 188.027 211.049 185.405 211.533C183.969 211.798 182.58 211.365 181.269 210.238L181.081 210.077C176.28 205.955 166.288 197.382 159.681 203.857C158.377 205.138 157.328 206.234 156.417 207.199C152.439 211.385 151.373 212.508 145.96 209.922C145.426 209.684 144.844 209.569 144.259 209.586Z" fill="black"/>
<path d="M151.289 280.877C151.289 280.877 144.35 216.052 209.057 218.308C294.61 221.286 266.338 280.877 266.338 280.877H151.289Z" fill="#07ACEE"/>
<path d="M266.761 281.549H150.687L150.624 280.947C150.19 275.291 150.394 269.603 151.232 263.992C152.506 255.18 155.919 242.643 164.946 232.943C175.033 222.117 189.876 216.97 209.081 217.635C238.436 218.644 257.727 226.417 266.412 240.696C272.147 250.11 271.986 260.63 270.836 267.785C270.124 272.394 268.815 276.891 266.943 281.162L266.761 281.549ZM151.908 280.204H265.884C267.175 277.219 275.049 257.497 265.242 241.385C256.803 227.523 237.887 219.985 209.017 218.98C190.216 218.308 175.732 223.327 165.921 233.851C150.456 250.48 151.599 275.978 151.908 280.204Z" fill="#1D1D1B"/>
<path d="M249.201 226.672C249.201 226.672 276.411 237.038 280.728 264.247C287.116 304.448 251.622 302.054 243.116 294.17C234.609 286.286 218.454 273.298 217.022 264.812C215.59 256.326 221.205 253.801 221.205 253.801L218.851 247.709L237.844 235.205L240.285 238.873C240.285 238.873 248.956 236.96 252.55 244.078C256.144 251.196 260.121 260.593 262.559 264.587" fill="#07ACEE"/>
<path d="M258.288 299.338C251.736 299.338 245.65 297.203 242.773 294.534C241.354 293.219 239.713 291.757 237.978 290.207C228.964 282.154 217.748 272.132 216.524 264.89C215.284 257.517 219.248 254.397 220.579 253.57L218.394 247.884C218.353 247.777 218.35 247.658 218.385 247.549C218.421 247.44 218.492 247.346 218.589 247.283L237.581 234.779C237.636 234.742 237.698 234.717 237.763 234.704C237.827 234.691 237.894 234.692 237.959 234.705C238.023 234.718 238.085 234.744 238.139 234.781C238.194 234.817 238.241 234.865 238.277 234.92L240.537 238.312C242.218 238.047 249.702 237.304 253.014 243.846C254.493 246.775 256.039 250.063 257.505 253.244C259.6 257.742 261.58 261.985 263.002 264.322C263.066 264.436 263.083 264.57 263.05 264.696C263.016 264.822 262.936 264.93 262.824 264.998C262.713 265.066 262.58 265.088 262.452 265.06C262.325 265.032 262.214 264.955 262.141 264.846C260.689 262.466 258.699 258.193 256.591 253.671C255.115 250.497 253.585 247.215 252.112 244.3C248.75 237.61 240.49 239.341 240.409 239.358C240.31 239.38 240.206 239.372 240.112 239.334C240.018 239.296 239.937 239.231 239.881 239.146L237.716 235.895L219.483 247.901L221.679 253.617C221.724 253.737 221.722 253.87 221.673 253.989C221.623 254.108 221.53 254.203 221.413 254.255C221.201 254.353 216.175 256.75 217.52 264.722C218.683 271.617 230.225 281.926 238.65 289.453C240.389 291.007 242.033 292.479 243.458 293.794C247.9 297.916 260.39 300.676 269.851 295.626C276.306 292.183 283.346 283.956 280.23 264.325C278.027 250.44 269.673 241.076 263.053 235.666C255.854 229.786 249.087 227.17 249.019 227.143C248.9 227.092 248.804 226.996 248.754 226.876C248.703 226.757 248.701 226.622 248.747 226.5C248.794 226.378 248.886 226.28 249.003 226.224C249.121 226.168 249.255 226.161 249.379 226.202C249.446 226.226 256.342 228.892 263.665 234.866C270.429 240.387 278.969 249.955 281.225 264.167C284.436 284.383 277.069 292.917 270.325 296.517C266.566 298.525 262.336 299.338 258.288 299.338Z" fill="#1D1D1B"/>
<path d="M221.786 253.973C221.786 253.973 236.183 252.332 240.036 239.264L237.733 235.565L219.503 247.827L221.786 253.973Z" fill="#0598C6"/>
<path d="M180.526 222.783C180.526 222.783 151.589 235.74 148.997 262.52C145.076 303.033 179.662 302.055 188.169 294.164C196.675 286.273 212.826 273.292 214.258 264.806C215.691 256.32 210.076 253.795 210.076 253.795L212.43 247.703L193.437 235.199L190.996 238.867C190.996 238.867 182.325 236.954 178.731 244.072C175.137 251.189 171.16 260.586 168.722 264.58" fill="#07ACEE"/>
<path d="M174.296 298.978C170.136 299.01 166.023 298.09 162.273 296.288C157.442 293.895 153.777 290.095 151.383 284.998C148.593 279.061 147.625 271.479 148.495 262.472C149.84 248.472 158.437 238.299 165.403 232.23C169.916 228.283 174.933 224.953 180.321 222.325C180.382 222.292 180.449 222.271 180.519 222.265C180.588 222.259 180.658 222.267 180.724 222.289C180.79 222.312 180.851 222.347 180.903 222.394C180.954 222.441 180.995 222.498 181.024 222.562C181.052 222.625 181.067 222.694 181.068 222.764C181.068 222.833 181.054 222.902 181.027 222.966C180.999 223.03 180.959 223.088 180.908 223.136C180.857 223.183 180.797 223.22 180.731 223.243C175.426 225.838 170.487 229.122 166.042 233.01C159.227 238.954 150.822 248.909 149.501 262.566C147.483 283.294 155.583 291.857 162.72 295.394C172.534 300.252 183.794 297.532 187.825 293.794C189.247 292.476 190.891 291.006 192.63 289.453C201.059 281.925 212.598 271.617 213.761 264.721C215.106 256.713 209.921 254.279 209.867 254.255C209.75 254.203 209.658 254.107 209.609 253.988C209.56 253.869 209.559 253.736 209.605 253.616L211.801 247.901L193.564 235.895L191.403 239.146C191.346 239.229 191.265 239.294 191.171 239.332C191.077 239.37 190.974 239.379 190.875 239.358C190.539 239.284 182.54 237.623 179.168 244.3C177.695 247.215 176.166 250.496 174.69 253.674C172.582 258.196 170.591 262.465 169.139 264.846C169.067 264.955 168.955 265.031 168.828 265.06C168.701 265.088 168.567 265.066 168.456 264.998C168.345 264.93 168.264 264.822 168.23 264.695C168.197 264.569 168.214 264.435 168.278 264.321C169.7 261.988 171.68 257.742 173.775 253.247C175.254 250.063 176.801 246.774 178.267 243.833C181.579 237.276 189.049 238.033 190.744 238.299L193.003 234.906C193.039 234.851 193.086 234.804 193.141 234.767C193.196 234.73 193.257 234.704 193.322 234.691C193.386 234.678 193.453 234.678 193.518 234.69C193.582 234.703 193.644 234.728 193.699 234.765L212.695 247.269C212.79 247.333 212.861 247.427 212.896 247.536C212.93 247.645 212.927 247.763 212.886 247.871L210.701 253.556C212.046 254.383 216 257.503 214.756 264.876C213.536 272.118 202.316 282.141 193.302 290.193C191.567 291.743 189.94 293.219 188.508 294.52C185.593 297.24 180.177 298.978 174.296 298.978Z" fill="#1D1D1B"/>
<path d="M209.494 253.973C209.494 253.973 195.101 252.332 191.245 239.264L193.548 235.565L211.777 247.827L209.494 253.973Z" fill="#0598C6"/>
<path d="M200.235 177.091C200.086 177.091 199.941 177.04 199.824 176.948C199.706 176.857 199.623 176.728 199.586 176.584C197.337 167.775 206.085 163.69 206.172 163.65C206.335 163.576 206.52 163.569 206.687 163.631C206.854 163.694 206.99 163.82 207.064 163.982C207.138 164.145 207.144 164.33 207.082 164.497C207.019 164.664 206.893 164.799 206.731 164.873C206.394 165.018 198.924 168.541 200.887 176.251C200.91 176.336 200.914 176.426 200.902 176.513C200.89 176.601 200.86 176.685 200.815 176.761C200.77 176.838 200.711 176.904 200.64 176.957C200.569 177.01 200.489 177.049 200.403 177.071C200.348 177.084 200.292 177.091 200.235 177.091Z" fill="#1D1D1B"/>
<path d="M216.161 193.371C223.507 193.371 229.462 187.416 229.462 180.07C229.462 172.724 223.507 166.77 216.161 166.77C208.816 166.77 202.861 172.724 202.861 180.07C202.861 187.416 208.816 193.371 216.161 193.371Z" fill="#382256"/>
<path d="M216.168 193.879H215.96C212.299 193.853 208.797 192.374 206.227 189.766C203.656 187.159 202.226 183.638 202.252 179.976C202.278 176.315 203.757 172.814 206.365 170.243C208.972 167.673 212.494 166.243 216.155 166.269H216.363C220.024 166.295 223.525 167.774 226.096 170.381C228.667 172.988 230.096 176.51 230.071 180.171C230.045 183.833 228.565 187.334 225.958 189.904C223.351 192.475 219.83 193.904 216.168 193.879ZM216.168 167.274C212.775 167.25 209.51 168.574 207.093 170.957C204.676 173.339 203.304 176.584 203.279 179.978C203.255 183.372 204.579 186.636 206.962 189.053C209.344 191.47 212.589 192.842 215.983 192.867H216.175C219.535 192.862 222.759 191.537 225.151 189.178C227.544 186.82 228.915 183.615 228.968 180.255C229.017 176.862 227.716 173.588 225.352 171.154C222.988 168.719 219.753 167.324 216.36 167.274H216.168Z" fill="#1D1E1B"/>
<path d="M229.381 185.708C224.083 175.958 209.084 177.824 205.248 182.01C195.723 192.453 186.548 187.329 184.739 198.642C183.835 204.321 188.854 206.564 186.42 216.956C185.156 222.318 194.153 230.677 202.377 230.798C210.601 230.919 238.651 231.632 241.008 225.62C243.365 219.609 252.617 209.613 245.227 198.017C237.756 186.314 231.678 189.935 229.381 185.708Z" fill="#382256"/>
<path d="M210.527 231.4C208.173 231.4 205.803 231.376 203.489 231.339L202.363 231.319C196.591 231.235 190.956 227.342 188.162 223.761C186.249 221.307 185.455 218.859 185.926 216.862C187.341 210.854 186.212 207.667 185.217 204.853C184.521 202.886 183.872 201.027 184.252 198.582C185.294 192.023 188.767 190.722 193.164 189.078C196.705 187.756 200.712 186.257 204.875 181.681C207.248 179.082 213.031 177.609 218.323 178.251C223.555 178.887 227.636 181.449 229.815 185.46C230.592 186.892 231.876 187.319 233.655 187.914C236.718 188.923 240.913 190.335 245.64 197.755C251.632 207.169 246.985 215.487 243.623 221.566C242.817 222.935 242.096 224.353 241.465 225.812C239.652 230.462 225.108 231.4 210.527 231.4ZM215.778 179.119C211.229 179.119 207.215 180.625 205.621 182.37C201.294 187.114 196.984 188.728 193.518 190.022C189.265 191.613 186.195 192.762 185.243 198.74C184.907 200.932 185.482 202.593 186.165 204.516C187.207 207.462 188.387 210.797 186.904 217.094C186.504 218.775 187.241 220.934 188.955 223.146C191.605 226.542 196.937 230.237 202.377 230.314L203.503 230.334C212.134 230.472 238.402 230.896 240.53 225.459C241.179 223.958 241.92 222.498 242.749 221.088C246.007 215.231 250.482 207.213 244.797 198.313C240.261 191.192 236.26 189.857 233.342 188.899C231.496 188.284 229.903 187.753 228.934 185.971C226.917 182.256 223.104 179.879 218.206 179.284C217.401 179.18 216.59 179.124 215.778 179.116V179.119Z" fill="#1D1E1B"/>
<path d="M220.589 207.821C213.794 208.877 204.912 205.424 203.224 207.734C201.536 210.043 202.551 213.322 206.129 214.32C209.706 215.319 213.337 215.413 220.757 215.241C228.177 215.07 235.433 214.357 234.814 210.363C234.196 206.369 230.578 206.271 220.589 207.821Z" fill="#FFB49F"/>
<path d="M216.948 188.247C214.161 198.737 203.5 203.41 197.687 203.854C196.372 207.048 196.957 211.389 196.903 215.164C196.698 229.019 204.108 239.153 217.412 238.44C230.407 237.748 237.333 230.418 237.407 215.154C237.407 211.55 237.615 207.976 236.499 204.863C225.485 204.654 216.948 188.247 216.948 188.247Z" fill="#FFCDB2"/>
<path d="M216.135 238.981C210.933 238.981 206.428 237.28 203.043 234.022C198.642 229.789 196.281 223.089 196.399 215.154C196.399 214.219 196.399 213.224 196.358 212.259C196.278 209.257 196.194 206.154 197.223 203.662L197.34 203.376L197.65 203.353C203.907 202.872 213.882 197.826 216.478 188.116L216.814 186.858L217.412 188.015C217.496 188.176 225.938 204.153 236.536 204.358H236.872L236.99 204.694C237.998 207.519 237.972 210.746 237.938 213.87C237.938 214.297 237.938 214.727 237.938 215.154C237.901 222.786 236.126 228.653 232.659 232.593C229.27 236.45 224.157 238.588 217.466 238.944C217.005 238.968 216.568 238.981 216.135 238.981ZM198.043 204.331C197.216 206.584 197.293 209.452 197.371 212.232C197.398 213.207 197.425 214.213 197.411 215.171C197.297 222.82 199.546 229.258 203.745 233.296C207.205 236.624 211.922 238.228 217.399 237.939C230.46 237.24 236.845 229.786 236.916 215.151C236.916 214.72 236.916 214.287 236.916 213.86C236.946 210.813 236.98 207.932 236.139 205.357C226.644 204.893 219.187 193.199 217.083 189.555C213.852 199.302 203.964 203.746 198.043 204.331Z" fill="#1D1D1B"/>
<path d="M219.201 208.624C211.108 209.969 200.47 205.935 198.487 208.722C196.503 211.509 197.73 215.399 202.027 216.546C206.324 217.692 210.638 217.766 219.49 217.477C228.342 217.188 236.973 216.25 236.199 211.489C235.426 206.728 231.099 206.661 219.201 208.624Z" fill="#FFB49F"/>
<path d="M216.629 220.943C216.563 220.943 216.498 220.929 216.437 220.902C216.376 220.876 216.321 220.838 216.275 220.791C216.229 220.743 216.193 220.687 216.169 220.626C216.145 220.564 216.133 220.498 216.135 220.432L216.292 209.553C216.292 209.419 216.346 209.291 216.44 209.196C216.535 209.102 216.663 209.048 216.797 209.048C216.931 209.048 217.059 209.102 217.154 209.196C217.248 209.291 217.301 209.419 217.301 209.553L217.143 220.436C217.144 220.503 217.13 220.57 217.105 220.632C217.079 220.694 217.041 220.751 216.993 220.798C216.945 220.846 216.888 220.883 216.826 220.908C216.763 220.933 216.696 220.945 216.629 220.943Z" fill="black"/>
<path d="M207.053 176.409C206.932 176.408 206.811 176.382 206.7 176.332C206.499 176.237 206.342 176.067 206.265 175.858C206.188 175.649 206.197 175.418 206.29 175.215C206.404 174.97 209.168 169.164 216.713 168.78C216.823 168.775 216.934 168.791 217.038 168.828C217.142 168.865 217.237 168.923 217.319 168.997C217.401 169.071 217.468 169.161 217.515 169.26C217.563 169.36 217.59 169.468 217.595 169.579C217.601 169.689 217.585 169.8 217.547 169.904C217.51 170.008 217.453 170.103 217.379 170.185C217.305 170.267 217.215 170.334 217.115 170.381C217.015 170.429 216.907 170.456 216.797 170.461C210.301 170.798 207.921 175.716 207.823 175.928C207.754 176.073 207.645 176.196 207.508 176.281C207.372 176.366 207.214 176.411 207.053 176.409Z" fill="white"/>
<path d="M214.911 226.834C214.447 226.834 213.986 226.772 213.539 226.649C210.809 225.906 209.296 223.183 209.232 223.068C209.198 223.01 209.175 222.946 209.166 222.879C209.157 222.812 209.162 222.743 209.18 222.678C209.198 222.613 209.229 222.552 209.271 222.499C209.313 222.446 209.365 222.402 209.424 222.37C209.483 222.337 209.549 222.317 209.616 222.31C209.683 222.303 209.751 222.31 209.816 222.33C209.88 222.35 209.94 222.383 209.992 222.427C210.043 222.47 210.086 222.524 210.117 222.584C210.137 222.618 211.502 225.055 213.815 225.677C215.042 226.014 216.34 225.775 217.674 224.971C217.731 224.937 217.795 224.915 217.86 224.905C217.926 224.896 217.993 224.899 218.057 224.915C218.121 224.932 218.182 224.96 218.235 225C218.288 225.039 218.333 225.089 218.367 225.146C218.401 225.203 218.424 225.266 218.433 225.332C218.443 225.397 218.439 225.464 218.423 225.529C218.407 225.593 218.378 225.653 218.338 225.707C218.299 225.76 218.249 225.805 218.192 225.839C217.21 226.465 216.075 226.809 214.911 226.834Z" fill="black"/>
<path d="M212.255 211.977C212.13 211.978 212.01 211.933 211.918 211.849C207.117 207.529 201.768 211.328 201.714 211.365C201.606 211.432 201.477 211.456 201.351 211.432C201.226 211.408 201.115 211.337 201.04 211.233C200.965 211.13 200.932 211.003 200.947 210.876C200.963 210.75 201.025 210.634 201.123 210.551C201.183 210.508 207.191 206.238 212.591 211.099C212.668 211.167 212.722 211.256 212.747 211.356C212.771 211.455 212.765 211.56 212.728 211.655C212.692 211.751 212.627 211.833 212.542 211.89C212.457 211.948 212.357 211.978 212.255 211.977Z" fill="black"/>
<path d="M220.512 211.462C220.401 211.462 220.293 211.426 220.205 211.358C220.116 211.29 220.053 211.196 220.024 211.088C219.996 210.981 220.003 210.867 220.046 210.764C220.088 210.662 220.164 210.576 220.26 210.521C220.566 210.346 227.825 206.278 233.184 210.03C233.243 210.066 233.294 210.113 233.334 210.17C233.374 210.226 233.401 210.29 233.416 210.357C233.43 210.425 233.43 210.495 233.416 210.562C233.402 210.63 233.374 210.694 233.335 210.75C233.295 210.807 233.244 210.855 233.185 210.891C233.127 210.927 233.061 210.95 232.992 210.96C232.924 210.97 232.854 210.965 232.788 210.947C232.721 210.929 232.659 210.897 232.606 210.854C227.771 207.471 220.838 211.354 220.761 211.395C220.685 211.439 220.6 211.462 220.512 211.462Z" fill="black"/>
<path d="M202.451 201.14C202.328 201.145 202.208 201.103 202.114 201.023C202.063 200.981 202.021 200.929 201.99 200.87C201.959 200.811 201.94 200.747 201.934 200.681C201.929 200.615 201.936 200.549 201.956 200.486C201.976 200.423 202.008 200.364 202.051 200.313C202.239 200.091 206.717 194.853 212.006 196.514C212.071 196.532 212.132 196.563 212.185 196.606C212.238 196.648 212.282 196.7 212.314 196.759C212.346 196.819 212.366 196.884 212.373 196.952C212.379 197.019 212.372 197.087 212.352 197.152C212.332 197.216 212.299 197.276 212.255 197.327C212.211 197.379 212.157 197.421 212.096 197.451C212.036 197.481 211.97 197.499 211.902 197.504C211.835 197.508 211.767 197.498 211.703 197.476C207.047 196.013 202.864 200.912 202.824 200.962C202.778 201.017 202.72 201.06 202.656 201.091C202.592 201.122 202.522 201.139 202.451 201.14Z" fill="black"/>
<path d="M229.281 200.626C229.168 200.627 229.059 200.589 228.971 200.519C224.658 197.157 220.815 199.51 220.778 199.51C220.722 199.549 220.658 199.576 220.591 199.59C220.525 199.603 220.456 199.603 220.389 199.59C220.322 199.576 220.259 199.549 220.203 199.51C220.147 199.471 220.099 199.421 220.063 199.363C220.027 199.306 220.002 199.241 219.992 199.173C219.981 199.106 219.985 199.037 220.001 198.971C220.018 198.905 220.049 198.843 220.09 198.789C220.132 198.735 220.184 198.689 220.243 198.656C220.287 198.629 224.728 195.933 229.593 199.718C229.676 199.783 229.736 199.872 229.766 199.973C229.795 200.074 229.793 200.181 229.758 200.281C229.724 200.38 229.659 200.466 229.574 200.527C229.488 200.587 229.386 200.62 229.281 200.62V200.626Z" fill="black"/>
<path d="M215.005 242.72C215.005 242.72 211.121 249.135 203.684 246.354C196.247 243.574 190.236 238.682 189.486 232.57C188.737 226.457 191.749 222.729 194.947 221.394C198.144 220.059 201.062 221.942 201.933 226.272C201.933 226.272 207.864 225.055 208.943 232.758C208.943 232.758 218.454 234.382 212.601 240.74L215.005 242.72Z" fill="#FFCDB2"/>
<path d="M196.927 220.977C199.28 220.977 201.244 222.87 201.93 226.279C202.218 226.228 202.511 226.205 202.804 226.208C204.485 226.208 208.12 226.911 208.94 232.765C208.94 232.765 218.451 234.388 212.598 240.746L215.002 242.713C215.002 242.713 212.379 247.047 207.316 247.047C206.072 247.036 204.841 246.799 203.681 246.347C196.241 243.567 190.233 238.675 189.483 232.563C188.734 226.45 191.746 222.722 194.943 221.387C195.569 221.115 196.244 220.971 196.927 220.963V220.977ZM196.927 219.955C196.11 219.962 195.303 220.132 194.553 220.456C191.242 221.841 187.661 225.872 188.485 232.684C188.864 235.837 190.502 238.783 193.383 241.425C195.918 243.779 199.358 245.796 203.328 247.272C204.601 247.764 205.952 248.023 207.316 248.035C212.884 248.035 215.745 243.412 215.866 243.217L216.32 242.468L215.647 241.913L214.037 240.595C215.381 238.857 215.819 237.233 215.318 235.767C214.477 233.306 211.307 232.26 209.831 231.901C208.694 225.849 204.576 225.176 202.811 225.176H202.713C201.795 221.925 199.637 219.945 196.933 219.945L196.927 219.955Z" fill="#1D1D1B"/>
<path d="M196.073 236.645C195.945 236.644 195.823 236.595 195.73 236.508C195.637 236.421 195.58 236.301 195.572 236.174C195.561 233.928 196.186 231.726 197.377 229.821C198.567 227.917 200.273 226.389 202.296 225.415C202.416 225.355 202.554 225.345 202.681 225.387C202.808 225.429 202.914 225.519 202.974 225.639C203.034 225.758 203.044 225.897 203.002 226.024C202.96 226.151 202.87 226.256 202.75 226.316C196.207 229.628 196.564 236.066 196.567 236.117C196.572 236.183 196.564 236.249 196.543 236.312C196.522 236.375 196.489 236.433 196.446 236.483C196.402 236.533 196.349 236.574 196.29 236.604C196.23 236.633 196.166 236.65 196.1 236.655L196.073 236.645Z" fill="#1D1D1B"/>
<path d="M202.558 240.356C202.485 240.355 202.413 240.339 202.347 240.309C202.286 240.282 202.232 240.242 202.187 240.193C202.142 240.144 202.107 240.086 202.084 240.024C202.062 239.961 202.052 239.895 202.056 239.828C202.059 239.762 202.076 239.697 202.105 239.637C202.219 239.391 204.952 233.585 208.99 231.79C209.051 231.761 209.117 231.745 209.184 231.742C209.251 231.739 209.318 231.75 209.381 231.773C209.444 231.797 209.501 231.832 209.55 231.878C209.599 231.924 209.638 231.98 209.666 232.041C209.693 232.102 209.708 232.168 209.709 232.235C209.71 232.303 209.698 232.369 209.674 232.432C209.649 232.494 209.612 232.551 209.565 232.599C209.518 232.647 209.462 232.685 209.4 232.711C205.702 234.358 203.042 240.003 203.012 240.06C202.972 240.148 202.908 240.222 202.828 240.274C202.748 240.326 202.654 240.355 202.558 240.356Z" fill="#1D1D1B"/>
<path d="M209.081 245.084C208.96 245.084 208.842 245.04 208.75 244.96C208.659 244.881 208.599 244.771 208.582 244.65C208.564 244.53 208.591 244.408 208.657 244.306C208.723 244.204 208.823 244.129 208.94 244.095C211.206 243.439 212.776 240.215 212.789 240.182C212.847 240.061 212.951 239.969 213.077 239.925C213.203 239.881 213.341 239.888 213.462 239.946C213.522 239.974 213.576 240.014 213.62 240.063C213.665 240.112 213.699 240.17 213.722 240.232C213.744 240.295 213.754 240.361 213.75 240.428C213.746 240.494 213.729 240.559 213.7 240.619C213.63 240.77 211.925 244.287 209.222 245.067C209.176 245.079 209.129 245.085 209.081 245.084Z" fill="#1D1D1B"/>
<path d="M191.921 236.087C191.829 236.087 191.738 236.062 191.659 236.015C191.581 235.967 191.516 235.899 191.474 235.818C191.389 235.66 189.456 231.921 190.704 227.92C191.484 225.419 193.333 223.398 196.197 221.909C196.315 221.849 196.452 221.839 196.577 221.879C196.703 221.919 196.808 222.007 196.87 222.124C196.9 222.182 196.918 222.246 196.924 222.311C196.929 222.376 196.922 222.442 196.902 222.505C196.882 222.567 196.85 222.625 196.807 222.675C196.765 222.725 196.713 222.766 196.655 222.796C194.039 224.141 192.358 225.98 191.658 228.213C190.532 231.817 192.331 235.303 192.358 235.34C192.418 235.458 192.429 235.593 192.39 235.719C192.351 235.845 192.265 235.95 192.149 236.013C192.079 236.054 192.001 236.079 191.921 236.087Z" fill="white"/>
<path d="M216.155 242.72C216.155 242.72 220.041 249.135 227.478 246.354C234.915 243.574 240.927 238.682 241.673 232.57C242.419 226.457 239.411 222.729 236.217 221.394C233.022 220.059 230.097 221.942 229.23 226.272C229.23 226.272 223.299 225.055 222.216 232.758C222.216 232.758 212.705 234.382 218.559 240.74L216.155 242.72Z" fill="#FFCDB2"/>
<path d="M234.246 220.977C234.93 220.984 235.606 221.128 236.233 221.401C239.427 222.746 242.426 226.478 241.69 232.576C240.954 238.675 234.932 243.567 227.495 246.361C226.336 246.812 225.105 247.049 223.861 247.06C218.797 247.06 216.172 242.727 216.172 242.727L218.575 240.76C212.722 234.402 222.233 232.778 222.233 232.778C223.057 226.925 226.678 226.222 228.369 226.222C228.663 226.219 228.957 226.242 229.247 226.293C229.919 222.883 231.886 220.991 234.246 220.991V220.977ZM234.246 219.982C231.557 219.982 229.384 221.962 228.467 225.213H228.369C226.604 225.213 222.489 225.886 221.349 231.938C219.876 232.297 216.703 233.343 215.866 235.804C215.361 237.273 215.792 238.894 217.143 240.632L215.533 241.95L214.86 242.505L215.314 243.254C215.432 243.449 218.296 248.072 223.864 248.072C225.228 248.059 226.579 247.801 227.852 247.309C231.822 245.826 235.248 243.803 237.793 241.463C240.664 238.813 242.315 235.868 242.695 232.721C243.516 225.909 239.938 221.878 236.623 220.493C235.874 220.169 235.066 219.999 234.25 219.992L234.246 219.982Z" fill="#1D1D1B"/>
<path d="M235.087 236.645H235.053C234.92 236.636 234.795 236.575 234.707 236.475C234.619 236.375 234.574 236.243 234.582 236.11C234.582 235.841 234.919 229.605 228.4 226.306C228.28 226.246 228.189 226.14 228.148 226.013C228.106 225.885 228.117 225.747 228.178 225.627C228.238 225.508 228.344 225.417 228.471 225.376C228.598 225.334 228.737 225.345 228.857 225.405C230.88 226.379 232.586 227.907 233.776 229.811C234.966 231.716 235.592 233.918 235.581 236.164C235.574 236.292 235.519 236.412 235.428 236.501C235.336 236.59 235.214 236.642 235.087 236.645Z" fill="#1D1D1B"/>
<path d="M228.601 240.356C228.505 240.357 228.411 240.329 228.33 240.277C228.248 240.225 228.184 240.151 228.144 240.064C228.117 240.007 225.454 234.348 221.756 232.714C221.633 232.659 221.538 232.558 221.491 232.433C221.443 232.308 221.447 232.169 221.502 232.047C221.557 231.924 221.658 231.829 221.783 231.782C221.908 231.734 222.047 231.738 222.169 231.793C226.204 233.595 228.94 239.395 229.055 239.64C229.083 239.7 229.099 239.766 229.102 239.832C229.105 239.899 229.095 239.965 229.072 240.027C229.049 240.09 229.015 240.147 228.969 240.196C228.924 240.245 228.87 240.285 228.81 240.312C228.744 240.341 228.673 240.356 228.601 240.356Z" fill="#1D1D1B"/>
<path d="M222.082 245.083C222.034 245.083 221.987 245.076 221.941 245.063C219.251 244.283 217.533 240.766 217.463 240.615C217.416 240.496 217.416 240.364 217.463 240.246C217.51 240.127 217.599 240.031 217.714 239.976C217.829 239.921 217.961 239.911 218.083 239.949C218.204 239.988 218.307 240.07 218.37 240.181C218.37 240.215 219.954 243.439 222.22 244.095C222.336 244.129 222.436 244.203 222.502 244.305C222.568 244.407 222.595 244.529 222.578 244.649C222.562 244.769 222.502 244.878 222.411 244.958C222.32 245.038 222.203 245.083 222.082 245.083Z" fill="#1D1D1B"/>
<path d="M239.243 236.086C239.161 236.086 239.08 236.066 239.007 236.029C238.892 235.966 238.805 235.861 238.765 235.735C238.726 235.61 238.737 235.474 238.795 235.357C238.795 235.323 240.621 231.816 239.495 228.222C238.792 225.99 237.114 224.171 234.498 222.813C234.437 222.784 234.381 222.743 234.335 222.693C234.29 222.642 234.254 222.583 234.232 222.518C234.21 222.453 234.202 222.385 234.207 222.317C234.212 222.249 234.23 222.183 234.262 222.122C234.293 222.062 234.336 222.008 234.389 221.965C234.442 221.921 234.503 221.889 234.568 221.87C234.634 221.851 234.703 221.846 234.77 221.854C234.838 221.862 234.903 221.884 234.962 221.918C237.827 223.408 239.67 225.428 240.46 227.93C241.71 231.931 239.787 235.663 239.686 235.827C239.642 235.906 239.578 235.972 239.5 236.018C239.422 236.064 239.333 236.087 239.243 236.086Z" fill="white"/>
<path d="M180.479 230.774C181.538 230.774 182.396 229.916 182.396 228.858C182.396 227.799 181.538 226.941 180.479 226.941C179.421 226.941 178.563 227.799 178.563 228.858C178.563 229.916 179.421 230.774 180.479 230.774Z" fill="#51CEF4"/>
<path d="M163.205 249.777C164.263 249.777 165.121 248.919 165.121 247.861C165.121 246.802 164.263 245.944 163.205 245.944C162.146 245.944 161.288 246.802 161.288 247.861C161.288 248.919 162.146 249.777 163.205 249.777Z" fill="#51CEF4"/>
<path d="M168.82 281.737C169.878 281.737 170.736 280.879 170.736 279.821C170.736 278.762 169.878 277.904 168.82 277.904C167.761 277.904 166.903 278.762 166.903 279.821C166.903 280.879 167.761 281.737 168.82 281.737Z" fill="#51CEF4"/>
<path d="M188.686 285.194C189.745 285.194 190.603 284.336 190.603 283.277C190.603 282.219 189.745 281.361 188.686 281.361C187.628 281.361 186.77 282.219 186.77 283.277C186.77 284.336 187.628 285.194 188.686 285.194Z" fill="#51CEF4"/>
<path d="M185.233 257.984C186.292 257.984 187.15 257.126 187.15 256.067C187.15 255.009 186.292 254.151 185.233 254.151C184.175 254.151 183.317 255.009 183.317 256.067C183.317 257.126 184.175 257.984 185.233 257.984Z" fill="#51CEF4"/>
<path d="M226.261 268.78C227.32 268.78 228.178 267.922 228.178 266.863C228.178 265.805 227.32 264.947 226.261 264.947C225.203 264.947 224.345 265.805 224.345 266.863C224.345 267.922 225.203 268.78 226.261 268.78Z" fill="#51CEF4"/>
<path d="M247.426 266.621C248.484 266.621 249.342 265.763 249.342 264.705C249.342 263.647 248.484 262.789 247.426 262.789C246.367 262.789 245.509 263.647 245.509 264.705C245.509 265.763 246.367 266.621 247.426 266.621Z" fill="#51CEF4"/>
<path d="M264.27 287.786C265.328 287.786 266.186 286.928 266.186 285.869C266.186 284.811 265.328 283.953 264.27 283.953C263.211 283.953 262.353 284.811 262.353 285.869C262.353 286.928 263.211 287.786 264.27 287.786Z" fill="#51CEF4"/>
<path d="M263.839 252.369C264.898 252.369 265.756 251.511 265.756 250.453C265.756 249.395 264.898 248.537 263.839 248.537C262.781 248.537 261.923 249.395 261.923 250.453C261.923 251.511 262.781 252.369 263.839 252.369Z" fill="#51CEF4"/>
<path d="M167.569 294.456C167.466 294.456 167.365 294.438 167.269 294.402C158.118 290.923 152.812 283.563 151.938 273.117C151.566 268.161 152.052 263.177 153.377 258.387C153.447 258.18 153.595 258.008 153.789 257.908C153.984 257.808 154.21 257.788 154.419 257.852C154.628 257.916 154.805 258.059 154.91 258.25C155.016 258.442 155.042 258.667 154.984 258.878C153.734 263.482 153.272 268.264 153.619 273.022C154.46 282.894 159.254 289.558 167.868 292.832C168.05 292.903 168.202 293.035 168.297 293.206C168.393 293.377 168.425 293.575 168.39 293.768C168.355 293.96 168.253 294.134 168.103 294.26C167.953 294.385 167.764 294.455 167.569 294.456Z" fill="white"/>
<path d="M259.798 296.399C259.575 296.419 259.354 296.35 259.182 296.207C259.01 296.063 258.902 295.857 258.882 295.634C258.862 295.411 258.931 295.19 259.075 295.018C259.218 294.846 259.424 294.738 259.647 294.718C265.907 293.582 270.486 290.758 273.264 286.313C278.771 277.518 275.436 265.216 275.402 265.095C275.367 264.987 275.354 264.873 275.364 264.76C275.374 264.648 275.407 264.538 275.46 264.438C275.514 264.338 275.587 264.25 275.675 264.179C275.763 264.108 275.865 264.056 275.974 264.025C276.083 263.995 276.197 263.987 276.31 264.001C276.422 264.016 276.53 264.053 276.628 264.11C276.725 264.168 276.81 264.244 276.878 264.336C276.945 264.427 276.993 264.531 277.019 264.641C277.167 265.175 280.586 277.79 274.689 287.204C271.663 292.052 266.691 295.135 259.95 296.359C259.901 296.377 259.85 296.391 259.798 296.399Z" fill="white"/>
<path d="M112.202 281.347C112.148 281.156 107.041 261.689 105.121 235.085C103.995 219.458 104.169 204.459 105.645 190.5C107.488 173.04 111.361 157.171 117.211 143.333C122.782 130.113 134.045 119.774 150.688 112.603C165.565 106.195 184.087 102.735 204.25 102.597H205.497C228.42 102.597 251.491 106.884 270.601 114.701C291.745 123.355 306.239 135.496 312.493 149.805C318.034 162.463 321.668 177.246 323.299 193.744C324.603 206.93 324.643 221.233 323.403 236.261C321.301 261.84 316.168 280.91 316.117 281.099L315.142 280.836C315.193 280.645 320.306 261.649 322.401 236.157C324.331 212.656 324.018 178.665 311.568 150.211C305.416 136.144 291.117 124.189 270.214 115.636C250.876 107.721 227.435 103.444 204.25 103.606C184.221 103.744 165.834 107.173 151.081 113.531C134.687 120.591 123.599 130.752 118.132 143.726C105.02 174.863 104.348 210.541 106.12 234.991C108.033 261.508 113.116 280.897 113.18 281.089L112.202 281.347Z" fill="black"/>
<path d="M311.575 114.674C306.787 103.895 260.407 96.3471 204.081 97.5642C160.424 98.5056 122.96 104.453 106.304 112.193C104.966 112.036 103.617 111.973 102.27 112.004C86.9318 112.341 74.7508 124.417 75.0669 138.989C75.3829 153.56 88.0715 165.102 103.409 164.773C114.303 164.538 123.582 158.385 127.953 149.6C132.69 158.176 142.242 163.932 153.139 163.697C165.198 163.438 175.302 155.91 178.919 145.622C182.974 155.746 193.393 162.826 205.457 162.567C216.552 162.329 226.002 155.927 230.255 146.886C233.981 157.588 244.713 165.193 257.203 164.924C268.298 164.682 277.749 158.284 282.002 149.243C285.727 159.945 296.459 167.547 308.949 167.278C324.287 166.941 336.468 154.865 336.152 140.293C335.876 126.929 325.175 116.116 311.575 114.674Z" fill="#07ACEE"/>
<path d="M308.31 167.788C302.468 167.814 296.755 166.072 291.92 162.792C287.455 159.771 283.985 155.495 281.948 150.504C277.278 159.383 267.703 165.2 257.226 165.428C251.159 165.586 245.195 163.841 240.17 160.436C235.708 157.413 232.24 153.139 230.202 148.15C225.532 157.03 215.957 162.846 205.48 163.071C194.005 163.324 183.508 156.895 178.96 146.967C174.844 157.08 164.637 163.952 153.162 164.201C142.696 164.426 133.137 159.259 127.99 150.652C123.219 159.471 113.896 165.048 103.427 165.277H102.777C87.4764 165.277 74.872 153.61 74.5694 138.992C74.25 124.165 86.673 111.829 102.267 111.493C103.585 111.465 104.903 111.524 106.214 111.668C123.495 103.696 161.867 97.9641 204.051 97.0529C260.199 95.8426 306.327 103.196 311.891 114.2C325.746 115.803 336.374 126.976 336.66 140.28C336.731 143.849 336.068 147.395 334.713 150.698C333.357 154.001 331.337 156.99 328.779 159.481C323.487 164.694 316.39 167.666 308.963 167.778L308.31 167.788ZM282.086 147.908L282.493 149.078C286.268 159.921 296.903 167.042 308.953 166.773C316.121 166.666 322.972 163.799 328.08 158.768C333.123 153.768 335.812 147.212 335.661 140.307C335.382 127.409 325 116.604 311.511 115.175L311.222 115.145L311.104 114.879C306.397 104.258 259.382 96.8748 204.081 98.0683C161.91 98.9794 123.613 104.702 106.51 112.65L106.378 112.71H106.237C104.926 112.559 103.606 112.498 102.287 112.525C87.2512 112.862 75.2688 124.723 75.5781 138.995C75.8807 153.062 88.0177 164.292 102.777 164.292H103.406C113.829 164.067 123.058 158.358 127.516 149.398L127.943 148.537L128.41 149.381C133.248 158.139 142.729 163.438 153.139 163.216C164.64 162.967 174.814 155.839 178.455 145.477L178.899 144.213L179.4 145.457C183.485 155.651 193.961 162.338 205.457 162.086C215.963 161.858 225.521 155.819 229.812 146.698L230.336 145.578L230.743 146.745C234.522 157.591 245.153 164.695 257.206 164.443C267.709 164.215 277.268 158.173 281.558 149.051L282.086 147.908Z" fill="#1D1D1B"/>
<path d="M110.984 65.6811C110.984 65.6811 221.773 54.2499 305.15 65.6811V83.9542L330.278 123.93C330.278 123.93 205.208 99.3863 79.0038 123.93L112.985 84.2399L110.984 65.6811Z" fill="#07ACEE"/>
<path d="M77.6793 124.703L112.46 84.0784L110.443 65.2303L110.947 65.1799C111.223 65.1497 139.095 62.3053 176.794 60.8932C211.596 59.5921 262.128 59.2761 305.227 65.1799L305.661 65.2405V83.8027L331.334 124.642L330.188 124.417C329.875 124.357 298.402 118.248 251.924 115.218C209.04 112.421 144.242 111.745 79.1115 124.42L77.6793 124.703ZM200.245 112.512C217.268 112.512 234.586 113.083 252.001 114.22C293.591 116.933 323.191 122.107 329.236 123.22L304.645 84.0986V66.1214C261.708 60.2882 211.465 60.6041 176.821 61.9019C141.933 63.2097 115.476 65.7414 111.539 66.1314L113.509 84.4046L113.368 84.5692L80.3253 123.163C108.742 117.716 139.404 114.321 171.489 113.077C180.957 112.7 190.542 112.512 200.245 112.512Z" fill="#1D1D1B"/>
<path d="M139.979 79.8925L127.677 116.708C146.122 114.758 164.183 113.682 181.454 113.251L179.195 76.7859L178.364 61.3403C163.786 61.8682 150.677 62.6079 139.979 63.3274V79.8925Z" fill="#4BD657"/>
<path d="M126.948 117.29L139.475 79.8122V62.8571L139.945 62.8268C152.721 61.9661 165.642 61.297 178.348 60.8364H178.842L179.696 76.7763L181.992 113.76H181.468C163.11 114.224 145.029 115.383 127.728 117.212L126.948 117.29ZM140.484 63.8018V79.977L140.457 80.0543L128.404 116.123C145.328 114.358 162.989 113.228 180.92 112.761L178.691 76.8199L177.887 61.862C165.508 62.3159 152.93 62.9579 140.484 63.8018Z" fill="#1D1E1B"/>
<path d="M279.988 79.8929L280.008 62.9512C265.813 61.7711 251.255 61.102 236.919 60.8027L234.881 113.79C255.595 114.701 273.963 116.311 288.911 117.986L279.988 79.8929Z" fill="#4BD657"/>
<path d="M289.563 118.564L288.854 118.486C271.112 116.499 252.946 115.091 234.858 114.29L234.357 114.27L236.435 60.2881H236.929C252.244 60.6075 266.751 61.3303 280.052 62.4398L280.512 62.4767L280.492 79.8253L289.563 118.564ZM235.406 113.305C253.108 114.099 270.88 115.477 288.255 117.404L279.483 79.953V79.8926L279.504 63.4182C266.496 62.3457 252.338 61.6396 237.403 61.3202L235.406 113.305Z" fill="#1D1E1B"/>
<path d="M112.79 84.4516L112.605 83.443C112.854 83.3959 137.753 78.8402 173.772 76.5808C207.016 74.4963 256.816 73.9921 305.247 83.443L305.056 84.4314C256.732 75.0175 207.033 75.5049 173.849 77.586C137.888 79.8588 113.035 84.4045 112.79 84.4516Z" fill="#1D1D1B"/>
<path d="M69.0118 153.274C68.9264 153.274 68.8425 153.253 68.7678 153.212C68.6931 153.171 68.6299 153.111 68.5846 153.039C61.9848 142.539 63.1315 133.454 65.253 127.682C66.6178 123.914 68.7507 120.471 71.5166 117.572C71.6138 117.484 71.7415 117.437 71.8725 117.441C72.0036 117.446 72.1276 117.501 72.2186 117.596C72.3096 117.69 72.3603 117.816 72.3598 117.947C72.3593 118.078 72.3077 118.204 72.216 118.298C69.562 121.111 67.5095 124.435 66.1842 128.068C63.2289 136.137 64.3248 144.364 69.4386 152.501C69.4738 152.557 69.4976 152.62 69.5085 152.685C69.5195 152.751 69.5176 152.818 69.5026 152.882C69.4876 152.947 69.4598 153.008 69.4212 153.062C69.3826 153.116 69.3338 153.162 69.2774 153.197C69.1984 153.248 69.106 153.275 69.0118 153.274Z" fill="#1D1D1B"/>
<path d="M342.954 158.509C342.868 158.509 342.783 158.487 342.708 158.445C342.595 158.38 342.511 158.274 342.475 158.148C342.439 158.023 342.452 157.888 342.513 157.772C350.068 144.176 348.487 132.584 345.831 125.254C342.943 117.289 338.199 112.478 338.152 112.428C338.105 112.381 338.068 112.326 338.042 112.264C338.017 112.203 338.004 112.138 338.004 112.071C338.004 112.005 338.017 111.939 338.042 111.878C338.068 111.817 338.105 111.762 338.152 111.715C338.247 111.621 338.376 111.569 338.509 111.569C338.642 111.569 338.77 111.621 338.865 111.715C339.064 111.917 343.794 116.704 346.763 124.868C349.503 132.405 351.134 144.314 343.401 158.264C343.355 158.341 343.289 158.404 343.211 158.447C343.132 158.491 343.043 158.512 342.954 158.509Z" fill="#1D1D1B"/>
<path d="M101.056 161.431C100.961 161.43 100.867 161.414 100.777 161.384C91.0065 157.917 84.558 152.867 81.6128 146.372C79.5667 141.919 79.2928 136.855 80.8465 132.207C80.9331 132.007 81.094 131.849 81.2953 131.765C81.4966 131.681 81.7225 131.679 81.9254 131.759C82.1282 131.839 82.2924 131.994 82.3827 132.193C82.4731 132.391 82.4826 132.617 82.4097 132.822C81.0498 137.061 81.3161 141.653 83.1563 145.706C85.9199 151.758 92.0389 156.495 101.345 159.797C101.533 159.862 101.691 159.992 101.792 160.164C101.893 160.336 101.93 160.537 101.896 160.733C101.862 160.929 101.76 161.107 101.607 161.235C101.455 161.362 101.262 161.432 101.063 161.431H101.056Z" fill="white"/>
<path d="M252.654 161.431C252.583 161.432 252.513 161.423 252.445 161.404C241.653 158.65 236.418 152.128 233.923 147.145C232.292 143.942 231.325 140.441 231.082 136.854C231.08 136.744 231.099 136.634 231.139 136.531C231.179 136.428 231.238 136.334 231.314 136.255C231.391 136.175 231.482 136.111 231.583 136.067C231.684 136.023 231.793 135.999 231.903 135.997H231.923C232.142 135.996 232.353 136.081 232.51 136.233C232.667 136.386 232.758 136.594 232.763 136.813C233.01 140.175 233.924 143.453 235.453 146.456C238.855 153.214 244.712 157.696 252.855 159.777C253.053 159.828 253.226 159.95 253.34 160.119C253.455 160.288 253.504 160.493 253.478 160.696C253.453 160.898 253.354 161.085 253.201 161.22C253.048 161.355 252.851 161.43 252.647 161.431H252.654Z" fill="white"/>
<path d="M281.591 110.898C281.404 110.897 281.221 110.834 281.073 110.719C280.925 110.603 280.82 110.441 280.774 110.259L274.722 85.6383C274.669 85.4216 274.705 85.1927 274.82 85.002C274.936 84.8113 275.123 84.6744 275.339 84.6213C275.556 84.5682 275.785 84.6034 275.976 84.7191C276.166 84.8348 276.303 85.0216 276.356 85.2382L282.408 109.856C282.458 110.071 282.422 110.297 282.307 110.486C282.191 110.674 282.007 110.81 281.793 110.864C281.727 110.884 281.66 110.895 281.591 110.898Z" fill="white"/>
<path d="M175.776 103.976C175.553 103.976 175.339 103.887 175.181 103.729C175.024 103.572 174.935 103.358 174.935 103.135V85.427C174.935 85.204 175.024 84.9901 175.181 84.8325C175.339 84.6749 175.553 84.5864 175.776 84.5864C175.999 84.5864 176.212 84.6749 176.37 84.8325C176.527 84.9901 176.616 85.204 176.616 85.427V103.135C176.616 103.358 176.527 103.572 176.37 103.729C176.212 103.887 175.999 103.976 175.776 103.976Z" fill="white"/>
<path d="M122.12 269.392C122.011 269.392 121.905 269.357 121.818 269.292C121.731 269.228 121.667 269.136 121.635 269.032C115.19 247.256 114.434 224.222 114.935 208.733C115.476 191.952 117.567 180.155 117.587 180.037C117.599 179.971 117.624 179.908 117.661 179.851C117.697 179.794 117.744 179.745 117.8 179.707C117.855 179.669 117.917 179.641 117.983 179.627C118.049 179.613 118.116 179.611 118.183 179.623C118.249 179.635 118.312 179.66 118.369 179.696C118.425 179.733 118.474 179.78 118.513 179.835C118.551 179.891 118.578 179.953 118.592 180.019C118.607 180.084 118.608 180.152 118.596 180.218C118.512 180.682 110.356 227.318 122.631 268.743C122.668 268.871 122.654 269.009 122.592 269.126C122.529 269.244 122.422 269.332 122.294 269.372C122.238 269.388 122.179 269.394 122.12 269.392Z" fill="#1D1D1B"/>
<path d="M309.726 269.055C309.685 269.06 309.645 269.06 309.604 269.055C309.475 269.023 309.363 268.94 309.294 268.825C309.224 268.711 309.203 268.573 309.235 268.443C315.125 244.892 314.809 222.897 313.511 208.598C312.103 193.105 309.268 183.069 309.241 182.968C309.214 182.843 309.235 182.711 309.301 182.601C309.367 182.491 309.472 182.41 309.596 182.375C309.719 182.34 309.852 182.353 309.966 182.412C310.08 182.471 310.167 182.571 310.21 182.692C310.24 182.793 313.098 192.92 314.513 208.503C315.821 222.883 316.137 244.999 310.216 268.685C310.186 268.792 310.122 268.886 310.033 268.953C309.945 269.02 309.837 269.056 309.726 269.055Z" fill="#1D1D1B"/>
<path d="M250.811 60.8832C250.811 46.9136 265.897 35.5933 284.507 35.5933C303.116 35.5933 318.202 46.9136 318.202 60.8832C318.202 74.8528 303.116 86.1696 284.507 86.1696C282.23 86.1723 279.956 86.0003 277.705 85.6551L270.066 93.0687L268.274 83.0462C257.865 78.7595 250.811 70.4316 250.811 60.8832Z" fill="white"/>
<path d="M269.737 94.0911L267.827 83.4062C257.011 78.8471 250.307 70.2368 250.307 60.88C250.307 46.6549 265.648 35.0859 284.507 35.0859C303.365 35.0859 318.706 46.6549 318.706 60.88C318.706 75.1051 303.365 86.6708 284.507 86.6708C282.288 86.6723 280.071 86.5105 277.876 86.1866L269.737 94.0911ZM284.507 36.0979C266.203 36.0979 251.316 47.2164 251.316 60.8834C251.316 69.8939 257.888 78.2084 268.462 82.5826L268.714 82.6868L270.396 92.0469L277.533 85.1209L277.782 85.1578C280.008 85.4966 282.256 85.6664 284.507 85.6656C302.807 85.6656 317.697 74.5471 317.697 60.8834C317.697 47.2198 302.807 36.0979 284.507 36.0979Z" fill="#1D1E1B"/>
<path d="M261.523 72.9027C260.799 72.1733 260.141 71.3799 259.56 70.5323C258.979 69.692 258.47 68.8048 258.037 67.8797L257.868 67.5099L257.788 67.325C257.828 67.4158 257.788 67.325 257.788 67.2981C257.687 67.0493 257.59 66.7971 257.495 66.5449C257.321 66.0641 257.159 65.5732 257.031 65.0756C256.903 64.578 256.789 64.0839 256.695 63.5796C256.675 63.4686 256.658 63.361 256.638 63.2434C256.618 63.1257 256.618 63.1122 256.611 63.0483C256.611 63.0483 256.581 62.8196 256.611 62.9608C256.581 62.7087 256.551 62.4566 256.53 62.2011C256.445 61.1939 256.453 60.1809 256.554 59.1752C256.554 59.0608 256.577 58.9465 256.594 58.8389C256.594 58.7885 256.594 58.7347 256.594 58.6843C256.574 58.8322 256.594 58.6271 256.594 58.6103C256.631 58.3615 256.671 58.1128 256.722 57.864C256.813 57.3966 256.924 56.9327 257.058 56.4755C257.193 56.0182 257.337 55.5609 257.505 55.1137C257.549 54.996 257.596 54.875 257.643 54.7573L257.704 54.6094C257.704 54.5825 257.768 54.4547 257.721 54.5623C257.822 54.3269 257.926 54.0916 258.037 53.8596C258.46 52.9734 258.951 52.1213 259.506 51.3111C260.118 50.4168 260.811 49.5796 261.574 48.8097C261.975 48.404 262.39 48.0163 262.818 47.6465C263.295 47.2396 263.614 46.9908 264.115 46.6378C264.266 46.5449 264.376 46.3974 264.421 46.2258C264.466 46.0542 264.443 45.8719 264.357 45.7167C264.312 45.6405 264.253 45.5738 264.183 45.5205C264.112 45.4673 264.032 45.4284 263.946 45.4062C263.861 45.3841 263.772 45.379 263.684 45.3913C263.597 45.4036 263.512 45.4329 263.436 45.4778C259.957 47.9167 257.343 51.3999 255.976 55.423C254.674 59.4395 254.854 63.7896 256.483 67.6847C257.439 69.9804 258.823 72.073 260.561 73.8508C260.624 73.9133 260.698 73.9629 260.78 73.9967C260.861 74.0305 260.949 74.0481 261.037 74.0481C261.125 74.0481 261.213 74.0305 261.295 73.9967C261.376 73.9629 261.45 73.9133 261.513 73.8508C261.635 73.7226 261.704 73.5522 261.704 73.375C261.704 73.1978 261.635 73.0275 261.513 72.8993L261.523 72.9027Z" fill="white"/>
<path d="M261.052 74.3886C260.918 74.3899 260.785 74.3642 260.661 74.3134C260.537 74.2626 260.424 74.1877 260.329 74.0928C258.561 72.2843 257.154 70.155 256.184 67.819C254.514 63.8512 254.33 59.4144 255.666 55.3221C257.063 51.2348 259.718 47.6946 263.251 45.2088C263.351 45.1398 263.464 45.0917 263.583 45.0675C263.702 45.0432 263.825 45.0433 263.944 45.0676C264.087 45.096 264.223 45.1526 264.344 45.2339C264.465 45.3153 264.569 45.4199 264.65 45.5417C264.785 45.7692 264.826 46.0408 264.763 46.2981C264.7 46.5553 264.539 46.7776 264.313 46.9168C263.809 47.2765 263.5 47.5186 263.039 47.9254C262.578 48.3322 262.209 48.6718 261.819 49.0685C261.073 49.8238 260.398 50.6454 259.801 51.523C259.256 52.3188 258.774 53.1562 258.359 54.0276C258.255 54.2428 258.157 54.458 258.063 54.6799C258.062 54.6865 258.062 54.6934 258.063 54.7001L257.982 54.8951C257.935 55.0094 257.889 55.1271 257.845 55.2313C257.68 55.6751 257.532 56.1223 257.408 56.5762C257.283 57.03 257.169 57.4839 257.071 57.9377C257.024 58.1798 256.981 58.4253 256.947 58.6707V58.7211C256.947 58.7211 256.947 58.7413 256.947 58.7548V58.8892C256.947 59.0036 256.92 59.1145 256.91 59.2255C256.811 60.2077 256.803 61.197 256.886 62.1808C256.907 62.4161 256.93 62.6515 256.96 62.8868C256.96 62.9272 256.96 62.9675 256.96 63.0078L256.987 63.1894C256.987 63.3004 257.024 63.4079 257.041 63.5256C257.129 64.0198 257.24 64.5141 257.377 64.9949C257.515 65.4757 257.66 65.9632 257.831 66.4373C257.922 66.6861 258.02 66.9314 258.12 67.1768L258.208 67.3786C258.261 67.503 258.315 67.6241 258.373 67.7417C258.797 68.6513 259.296 69.5241 259.865 70.3508C260.439 71.18 261.083 71.9573 261.792 72.6739C261.972 72.8654 262.073 73.1186 262.073 73.3816C262.073 73.6447 261.972 73.8979 261.792 74.0894C261.702 74.1833 261.594 74.2584 261.474 74.3103C261.355 74.3623 261.226 74.39 261.096 74.3919L261.052 74.3886ZM263.759 45.7199C263.717 45.7198 263.675 45.7327 263.641 45.7568C260.224 48.159 257.656 51.5817 256.305 55.5339C255.019 59.4723 255.197 63.7424 256.806 67.5602C257.742 69.8143 259.102 71.8685 260.81 73.612C260.879 73.6715 260.968 73.7049 261.059 73.7062C261.139 73.7065 261.217 73.675 261.274 73.6187C261.307 73.5873 261.333 73.5495 261.351 73.5076C261.369 73.4657 261.379 73.4205 261.379 73.3749C261.379 73.3293 261.369 73.2842 261.351 73.2423C261.333 73.2004 261.307 73.1625 261.274 73.1311C260.532 72.3873 259.857 71.5796 259.257 70.7172C258.669 69.8641 258.152 68.9646 257.71 68.0275C257.673 67.9536 257.64 67.8796 257.606 67.8056L257.458 67.4694V67.4392C257.354 67.187 257.253 66.9314 257.159 66.6725C256.981 66.1816 256.823 65.6808 256.688 65.1765C256.554 64.6722 256.439 64.1678 256.352 63.6501C256.332 63.5391 256.315 63.4282 256.298 63.3138L256.254 63.0213C256.221 62.7624 256.194 62.507 256.17 62.2481C256.085 61.2229 256.094 60.1919 256.197 59.1683C256.197 59.0507 256.221 58.933 256.234 58.8154L256.254 58.6675V58.5867C256.291 58.3345 256.335 58.0791 256.385 57.8269C256.476 57.3529 256.591 56.8787 256.722 56.4113C256.853 55.944 257.008 55.4834 257.179 55.0228L257.32 54.6597L257.401 54.4581C257.506 54.216 257.618 53.9772 257.737 53.7418C258.166 52.8383 258.667 51.9705 259.233 51.1464C259.857 50.2365 260.561 49.3846 261.338 48.6011C261.741 48.191 262.165 47.7942 262.602 47.4177C263.039 47.0411 263.409 46.7453 263.923 46.3856C264.051 46.2948 264.186 46.0897 264.078 45.9216C264.015 45.8301 263.918 45.7663 263.809 45.7433L263.759 45.7199Z" fill="white"/>
<path d="M295.857 46.5338C295.723 46.5382 295.593 46.4894 295.495 46.398C295.398 46.3066 295.34 46.1801 295.336 46.0463C295.331 45.9126 295.38 45.7824 295.471 45.6847C295.563 45.587 295.69 45.5296 295.823 45.5251C309.87 44.5871 321.228 36.7836 328.285 30.3956C332.856 26.2863 336.919 21.6449 340.388 16.5705C340.424 16.5147 340.47 16.4665 340.525 16.4285C340.579 16.3906 340.641 16.3638 340.705 16.3496C340.77 16.3354 340.837 16.3341 340.902 16.3458C340.968 16.3575 341.03 16.3819 341.086 16.4177C341.142 16.4535 341.19 16.4999 341.228 16.5543C341.266 16.6087 341.293 16.6699 341.307 16.7347C341.321 16.7995 341.322 16.8664 341.31 16.9317C341.299 16.997 341.275 17.0594 341.239 17.1152C337.725 22.2555 333.611 26.9586 328.984 31.1252C321.806 37.6275 310.24 45.5824 295.894 46.5372L295.857 46.5338Z" fill="black"/>
<path d="M312.728 57.5314C311.904 57.5314 311.047 57.4912 310.186 57.4071C310.053 57.3942 309.929 57.3286 309.844 57.2249C309.758 57.1212 309.718 56.9878 309.731 56.854C309.744 56.7203 309.809 56.597 309.913 56.5116C310.017 56.4261 310.15 56.3855 310.284 56.3985C326.318 57.9619 334.733 43.7535 334.827 43.6224C334.858 43.5604 334.901 43.5052 334.953 43.4604C335.006 43.4156 335.067 43.3821 335.133 43.3621C335.199 43.342 335.269 43.3357 335.338 43.3437C335.407 43.3516 335.473 43.3737 335.533 43.4084C335.592 43.443 335.644 43.4895 335.686 43.5451C335.727 43.6007 335.756 43.6642 335.771 43.7316C335.787 43.799 335.788 43.8688 335.776 43.9368C335.763 44.0048 335.737 44.0694 335.698 44.1267C335.607 44.2579 327.763 57.5314 312.728 57.5314Z" fill="black"/>
<defs>
<filter id="filter0_d_14058_98042" x="-4.01975" y="107.785" width="38.6843" height="38.6839" filterUnits="userSpaceOnUse" color-interpolation-filters="sRGB">
<feFlood flood-opacity="0" result="BackgroundImageFix"/>
<feColorMatrix in="SourceAlpha" type="matrix" values="0 0 0 0 0 0 0 0 0 0 0 0 0 0 0 0 0 0 127 0" result="hardAlpha"/>
<feOffset dy="2.03704"/>
<feGaussianBlur stdDeviation="5.09261"/>
<feComposite in2="hardAlpha" operator="out"/>
<feColorMatrix type="matrix" values="0 0 0 0 0 0 0 0 0 0 0 0 0 0 0 0 0 0 0.05 0"/>
<feBlend mode="normal" in2="BackgroundImageFix" result="effect1_dropShadow_14058_98042"/>
<feBlend mode="normal" in="SourceGraphic" in2="effect1_dropShadow_14058_98042" result="shape"/>
</filter>
<filter id="filter1_d_14058_98042" x="370.649" y="165.21" width="38.6887" height="38.6883" filterUnits="userSpaceOnUse" color-interpolation-filters="sRGB">
<feFlood flood-opacity="0" result="BackgroundImageFix"/>
<feColorMatrix in="SourceAlpha" type="matrix" values="0 0 0 0 0 0 0 0 0 0 0 0 0 0 0 0 0 0 127 0" result="hardAlpha"/>
<feOffset dy="2.03704"/>
<feGaussianBlur stdDeviation="5.09261"/>
<feComposite in2="hardAlpha" operator="out"/>
<feColorMatrix type="matrix" values="0 0 0 0 0 0 0 0 0 0 0 0 0 0 0 0 0 0 0.05 0"/>
<feBlend mode="normal" in2="BackgroundImageFix" result="effect1_dropShadow_14058_98042"/>
<feBlend mode="normal" in="SourceGraphic" in2="effect1_dropShadow_14058_98042" result="shape"/>
</filter>
<linearGradient id="paint0_linear_14058_98042" x1="20.4544" y1="112.038" x2="392.052" y2="200.547" gradientUnits="userSpaceOnUse">
<stop stop-color="#CDD5E2"/>
<stop offset="1" stop-color="#CDD5E2" stop-opacity="0"/>
</linearGradient>
<linearGradient id="paint1_linear_14058_98042" x1="391.41" y1="195.437" x2="353.85" y2="294.044" gradientUnits="userSpaceOnUse">
<stop stop-color="#CDD5E2"/>
<stop offset="1" stop-color="#CDD5E2" stop-opacity="0"/>
</linearGradient>
<linearGradient id="paint2_linear_14058_98042" x1="196.502" y1="23.2607" x2="196.502" y2="365.006" gradientUnits="userSpaceOnUse">
<stop stop-color="#CDD5E2"/>
<stop offset="1" stop-color="#CDD5E2" stop-opacity="0"/>
</linearGradient>
<linearGradient id="paint3_linear_14058_98042" x1="196.505" y1="57.4336" x2="196.505" y2="330.83" gradientUnits="userSpaceOnUse">
<stop stop-color="#CDD5E2"/>
<stop offset="1" stop-color="#CDD5E2" stop-opacity="0"/>
</linearGradient>
</defs>
</svg>
