<svg width="406" height="302" viewBox="0 0 406 302" fill="none" xmlns="http://www.w3.org/2000/svg">
<mask id="mask0_14053_50295" style="mask-type:alpha" maskUnits="userSpaceOnUse" x="0" y="0" width="406" height="302">
<rect width="405.823" height="301.875" fill="#D9D9D9"/>
</mask>
<g mask="url(#mask0_14053_50295)">
<g opacity="0.5">
<mask id="path-2-inside-1_14053_50295" fill="white">
<path d="M389.978 202.565C391.994 156.308 377.371 110.86 348.758 74.4588C320.146 38.0574 279.439 13.1119 234.015 4.14415C188.591 -4.82363 141.458 2.77982 101.158 25.5762C60.8587 48.3727 30.0604 84.8533 14.3459 128.405L15.1855 128.708C30.8276 85.357 61.484 49.0446 101.598 26.3532C141.712 3.66186 188.628 -3.90654 233.842 5.0199C279.056 13.9463 319.576 38.7768 348.057 75.0104C376.537 111.244 391.093 156.483 389.087 202.526L389.978 202.565Z"/>
</mask>
<path d="M389.978 202.565C391.994 156.308 377.371 110.86 348.758 74.4588C320.146 38.0574 279.439 13.1119 234.015 4.14415C188.591 -4.82363 141.458 2.77982 101.158 25.5762C60.8587 48.3727 30.0604 84.8533 14.3459 128.405L15.1855 128.708C30.8276 85.357 61.484 49.0446 101.598 26.3532C141.712 3.66186 188.628 -3.90654 233.842 5.0199C279.056 13.9463 319.576 38.7768 348.057 75.0104C376.537 111.244 391.093 156.483 389.087 202.526L389.978 202.565Z" stroke="url(#paint0_linear_14053_50295)" stroke-width="2.84788" stroke-dasharray="4.27 4.27" mask="url(#path-2-inside-1_14053_50295)"/>
</g>
<g opacity="0.5">
<mask id="path-3-inside-2_14053_50295" fill="white">
<path d="M14.6038 260.572C30.4887 304.063 61.4296 340.422 101.818 363.061C142.206 385.699 189.369 393.118 234.758 383.973C280.146 374.827 320.755 349.723 349.225 313.21C377.695 276.697 392.14 231.192 389.943 184.943L389.051 184.986C391.238 231.021 376.859 276.316 348.521 312.661C320.182 349.006 279.76 373.994 234.581 383.098C189.402 392.201 142.457 384.816 102.254 362.282C62.0522 339.748 31.2539 303.556 15.4423 260.266L14.6038 260.572Z"/>
</mask>
<path d="M14.6038 260.572C30.4887 304.063 61.4296 340.422 101.818 363.061C142.206 385.699 189.369 393.118 234.758 383.973C280.146 374.827 320.755 349.723 349.225 313.21C377.695 276.697 392.14 231.192 389.943 184.943L389.051 184.986C391.238 231.021 376.859 276.316 348.521 312.661C320.182 349.006 279.76 373.994 234.581 383.098C189.402 392.201 142.457 384.816 102.254 362.282C62.0522 339.748 31.2539 303.556 15.4423 260.266L14.6038 260.572Z" stroke="url(#paint1_linear_14053_50295)" stroke-width="2.84788" stroke-dasharray="4.27 4.27" mask="url(#path-3-inside-2_14053_50295)"/>
</g>
<circle opacity="0.08" cx="196.502" cy="194.133" r="170.873" fill="url(#paint2_linear_14053_50295)"/>
<circle opacity="0.1" cx="196.505" cy="194.132" r="136.698" fill="url(#paint3_linear_14053_50295)"/>
<circle cx="196.504" cy="194.134" r="91.1321" fill="white"/>
<g filter="url(#filter0_d_14053_50295)">
<circle cx="15.3224" cy="125.09" r="7.11969" transform="rotate(-2.50406 15.3224 125.09)" fill="#0170FF"/>
<circle cx="15.3224" cy="125.09" r="8.13822" transform="rotate(-2.50406 15.3224 125.09)" stroke="white" stroke-width="2.03704"/>
</g>
<g filter="url(#filter1_d_14053_50295)">
<circle cx="389.993" cy="182.517" r="7.11969" transform="rotate(-15.7345 389.993 182.517)" fill="#0170FF"/>
<circle cx="389.993" cy="182.517" r="8.13822" transform="rotate(-15.7345 389.993 182.517)" stroke="white" stroke-width="2.03704"/>
</g>
</g>
<path d="M313.718 24.3315H144.232C142.466 24.3314 140.718 24.6823 139.089 25.3638C137.46 26.0452 135.982 27.0435 134.743 28.3009C133.503 29.5583 132.525 31.0496 131.867 32.6881C131.209 34.3266 130.883 36.0796 130.908 37.8452L133.383 212.968" fill="white"/>
<path d="M132.836 212.979L130.379 37.8526C130.353 36.0159 130.692 34.1924 131.376 32.4877C132.06 30.783 133.076 29.231 134.365 27.922C135.653 26.6131 137.189 25.5731 138.883 24.8622C140.577 24.1514 142.395 23.784 144.232 23.7812H313.718V24.8749H144.232C142.538 24.8747 140.862 25.2111 139.3 25.8646C137.737 26.518 136.321 27.4755 135.132 28.6814C133.943 29.8872 133.006 31.3175 132.374 32.8888C131.743 34.4601 131.43 36.1411 131.455 37.8343L133.93 212.957L132.836 212.979Z" fill="#1D1E1B"/>
<path d="M183.901 103.144L131.695 104.229L131.718 105.322L183.924 104.237L183.901 103.144Z" fill="#1D1E1B"/>
<path d="M251.382 24.3319C251.382 24.3319 240.445 81.565 292.94 144.995C286.451 163.89 285.929 179.824 292.21 192.386C292.21 192.386 319.916 219.727 330.123 209.884C332.788 207.314 330.221 176.867 330.487 159.213C330.91 131.11 336.451 109.179 339.966 77.5551C342.882 51.308 342.565 30.1646 340.33 26.1546C333.404 13.7601 251.017 14.1247 251.382 24.3319Z" fill="white"/>
<path d="M324.392 212.57C312.052 212.57 292.79 193.727 291.828 192.776L291.762 192.714L291.722 192.63C285.568 180.327 285.773 164.338 292.323 145.108C280.407 130.672 270.815 115.362 263.802 99.6061C258.263 87.266 254.278 74.2863 251.936 60.9646C248.261 39.6061 250.649 25.3233 250.842 24.2843C250.817 22.2866 253.11 20.6717 257.849 19.3484C267.447 16.6654 286.163 15.5499 304.419 16.5743C314.101 17.1174 337.031 19.126 340.815 25.881C343.049 29.8909 343.549 50.3055 340.516 77.6097C339.229 89.1985 337.683 99.3911 336.189 109.248C333.681 125.802 331.308 141.437 331.042 159.216C330.947 165.534 331.216 173.521 331.475 181.245C332.048 198.117 332.303 208.542 330.509 210.27C328.832 211.885 326.736 212.57 324.392 212.57ZM292.659 192.061C294.143 193.52 320.266 218.633 329.744 209.49C331.278 208.01 330.797 193.815 330.374 181.293C330.116 173.554 329.846 165.552 329.941 159.205C330.21 141.343 332.584 125.667 335.099 109.092C336.593 99.2489 338.135 89.0636 339.422 77.4967C342.39 50.783 341.974 30.1864 339.852 26.4207C337.41 22.0462 324.141 18.7835 304.35 17.6716C286.487 16.6692 267.48 17.7919 258.137 20.4057C254.083 21.5394 251.877 22.9247 251.939 24.3099V24.3719V24.4301C251.914 24.5759 249.267 38.9389 253.033 60.837C256.522 81.0472 266.35 111.993 293.37 144.645L293.566 144.879L293.468 145.17C286.921 164.199 286.655 179.973 292.659 192.061Z" fill="black"/>
<path d="M209.459 85.2101L208.001 30.8933V24.3315" fill="white"/>
<path d="M208.913 85.2247L207.454 30.9079V24.3315H208.548V30.8933L210.006 85.1957L208.913 85.2247Z" fill="#1D1E1B"/>
<path d="M294.715 122.026C279.182 104.218 273.728 82.6553 271.891 67.6908C269.9 51.4905 271.603 39.322 271.617 39.2017L272.711 39.3585C272.711 39.4788 271.012 51.5269 272.992 67.5886C274.814 82.3854 280.206 103.718 295.55 121.308L294.715 122.026Z" fill="#1D1E1B"/>
<path d="M326.281 83.5151L325.216 83.26C329.879 63.8955 327.403 39.5804 327.403 39.3362L328.497 39.2231C328.504 39.4565 330.987 63.9646 326.281 83.5151Z" fill="#1D1E1B"/>
<path d="M347.621 48.0269C347.621 48.0269 349.808 75.3675 342.153 107.812L347.621 48.0269Z" fill="white"/>
<path d="M342.685 107.94L341.621 107.688C349.167 75.7068 347.089 48.3442 347.089 48.0708L348.182 47.9834C348.186 48.2605 350.271 75.7833 342.685 107.94Z" fill="#1D1E1B"/>
<path d="M329.212 112.001C329.135 112 329.058 111.993 328.982 111.979C328.841 111.948 328.708 111.891 328.59 111.809C328.472 111.727 328.371 111.623 328.293 111.502C328.215 111.381 328.162 111.246 328.136 111.104C328.11 110.963 328.113 110.818 328.143 110.677C336.75 70.5011 332.901 31.5715 332.861 31.1851C332.831 30.8951 332.918 30.6051 333.102 30.3791C333.287 30.1532 333.553 30.0097 333.843 29.9802C334.133 29.9508 334.423 30.0377 334.649 30.222C334.875 30.4062 335.018 30.6728 335.048 30.9628C335.088 31.3529 338.978 70.6067 330.291 111.137C330.238 111.383 330.102 111.603 329.905 111.761C329.708 111.918 329.464 112.003 329.212 112.001Z" fill="white"/>
<path d="M275.259 102.887C275.049 102.887 274.844 102.827 274.667 102.713C274.491 102.599 274.351 102.437 274.264 102.246C261.505 74.2088 266.47 39.2819 266.521 38.9356C266.563 38.6484 266.718 38.3897 266.95 38.2164C267.183 38.0431 267.475 37.9695 267.762 38.0116C268.05 38.0536 268.308 38.2079 268.482 38.4407C268.655 38.6735 268.729 38.9656 268.686 39.2528C268.635 39.5954 263.78 73.8842 276.254 101.342C276.315 101.473 276.35 101.615 276.355 101.76C276.361 101.904 276.338 102.049 276.287 102.184C276.237 102.32 276.16 102.444 276.061 102.55C275.962 102.655 275.843 102.74 275.711 102.8C275.569 102.862 275.415 102.892 275.259 102.887Z" fill="white"/>
<path d="M243.468 157.638C231.565 157.638 221.887 148.714 221.887 137.741C221.887 126.768 231.565 117.844 243.468 117.844C255.37 117.844 265.048 126.768 265.048 137.741C265.048 148.714 255.366 157.638 243.468 157.638ZM243.468 118.938C232.167 118.938 222.98 127.373 222.98 137.741C222.98 148.109 232.17 156.544 243.468 156.544C254.765 156.544 263.955 148.109 263.955 137.741C263.955 127.373 254.765 118.927 243.468 118.927V118.938Z" fill="#1D1E1B"/>
<path d="M239.596 156.42C249.82 156.42 258.107 148.132 258.107 137.909C258.107 127.685 249.82 119.397 239.596 119.397C229.372 119.397 221.084 127.685 221.084 137.909C221.084 148.132 229.372 156.42 239.596 156.42Z" fill="#382256"/>
<path d="M239.596 156.967C235.827 156.967 232.142 155.849 229.008 153.755C225.874 151.661 223.431 148.685 221.989 145.202C220.546 141.72 220.169 137.888 220.904 134.191C221.639 130.494 223.454 127.098 226.12 124.433C228.785 121.767 232.181 119.952 235.878 119.217C239.575 118.481 243.407 118.859 246.889 120.301C250.372 121.744 253.348 124.187 255.442 127.321C257.537 130.455 258.654 134.139 258.654 137.909C258.649 142.962 256.639 147.806 253.066 151.379C249.493 154.952 244.649 156.961 239.596 156.967ZM239.596 119.948C236.043 119.948 232.57 121.002 229.615 122.976C226.661 124.95 224.358 127.756 222.999 131.039C221.639 134.321 221.283 137.934 221.977 141.419C222.67 144.904 224.382 148.104 226.894 150.617C229.407 153.129 232.609 154.84 236.094 155.533C239.579 156.225 243.191 155.869 246.473 154.509C249.756 153.148 252.561 150.845 254.535 147.891C256.508 144.936 257.561 141.462 257.561 137.909C257.555 133.146 255.66 128.581 252.292 125.214C248.925 121.846 244.359 119.953 239.596 119.948Z" fill="#1D1E1B"/>
<path d="M207.83 143.246C146.915 155.017 167.562 245.842 167.562 245.842L272.85 245.511C272.85 245.511 287.577 150.649 218.715 140.052" fill="#07ACEE"/>
<path d="M167.562 246.389C167.438 246.388 167.318 246.346 167.221 246.269C167.124 246.191 167.055 246.084 167.027 245.963C165.049 236.256 163.933 226.393 163.691 216.489C163.305 201.277 165.022 179.809 175.382 163.93C182.797 152.563 193.675 145.426 207.713 142.71C207.856 142.682 208.004 142.712 208.124 142.794C208.244 142.875 208.327 143.001 208.355 143.144C208.382 143.286 208.352 143.434 208.271 143.554C208.189 143.675 208.064 143.758 207.921 143.785C194.185 146.439 183.548 153.42 176.301 164.524C166.093 180.163 164.406 201.387 164.781 216.438C165.026 226.131 166.104 235.784 168.004 245.292L272.376 244.964C273.577 235.378 273.917 225.703 273.393 216.056C272.584 200.909 269.142 179.474 257.353 163.379C248.137 150.795 235.116 143.129 218.631 140.595C218.559 140.585 218.49 140.56 218.428 140.522C218.366 140.485 218.312 140.436 218.269 140.377C218.225 140.319 218.194 140.252 218.177 140.182C218.159 140.112 218.156 140.038 218.166 139.966C218.177 139.895 218.202 139.826 218.239 139.764C218.277 139.701 218.326 139.647 218.385 139.604C218.443 139.561 218.509 139.53 218.58 139.512C218.65 139.494 218.723 139.491 218.795 139.502C235.564 142.083 248.844 149.899 258.235 162.723C270.185 179.044 273.666 200.712 274.483 216.012C275.03 225.882 274.664 235.781 273.389 245.584C273.369 245.712 273.304 245.83 273.205 245.915C273.106 246 272.98 246.046 272.85 246.047L167.562 246.378V246.389Z" fill="#1D1D1B"/>
<path d="M274.607 247.042C300.292 258.408 311.105 245.704 317.842 238.836C327.342 229.143 345.911 201.864 343.272 192.138C340.633 182.412 333.429 182.488 333.429 182.488L332.93 174.862L306.639 170.892L305.844 175.996C305.844 175.996 297.639 172.879 293.599 186.342C290.916 195.284 287.88 207.543 288.215 212.928C288.215 212.928 286.502 156.373 230.14 142.881" fill="#07ACEE"/>
<path d="M293.293 252.116C288.044 252.116 281.825 250.833 274.388 247.541C274.318 247.515 274.255 247.475 274.201 247.423C274.148 247.372 274.105 247.31 274.076 247.241C274.047 247.172 274.033 247.099 274.034 247.024C274.034 246.95 274.05 246.877 274.08 246.809C274.11 246.74 274.154 246.679 274.208 246.629C274.263 246.578 274.327 246.539 274.397 246.514C274.468 246.489 274.542 246.479 274.616 246.484C274.69 246.489 274.763 246.508 274.829 246.542C299.14 257.3 309.661 246.469 316.624 239.299L317.451 238.453C327.589 228.107 345.244 201.499 342.747 192.284C340.25 183.068 333.721 183.028 333.444 183.035C333.305 183.036 333.171 182.983 333.07 182.888C332.968 182.794 332.906 182.664 332.897 182.525L332.427 175.336L307.109 171.516L306.398 176.073C306.386 176.152 306.355 176.228 306.31 176.295C306.264 176.362 306.204 176.418 306.135 176.459C306.065 176.5 305.987 176.525 305.907 176.533C305.827 176.54 305.745 176.53 305.669 176.503C303.984 176.008 302.173 176.179 300.61 176.98C297.792 178.384 295.619 181.581 294.146 186.491C291.398 195.648 288.58 207.194 288.766 212.552C288.766 212.771 288.784 212.891 288.784 212.917C288.79 213.062 288.739 213.204 288.642 213.311C288.544 213.418 288.408 213.482 288.262 213.489C288.117 213.496 287.976 213.445 287.868 213.347C287.761 213.249 287.697 213.113 287.69 212.968C287.69 212.855 287.69 212.738 287.672 212.603C287.548 210.376 286.546 197.369 279.823 183.152C273.054 168.837 258.92 150.318 230.038 143.417C229.907 143.375 229.797 143.285 229.729 143.165C229.661 143.045 229.642 142.904 229.673 142.77C229.705 142.636 229.786 142.519 229.9 142.443C230.014 142.366 230.153 142.335 230.289 142.356C243.234 145.455 254.367 151.105 263.379 159.125C270.586 165.545 276.459 173.492 280.829 182.747C284.399 190.401 286.854 198.527 288.12 206.876C289.021 200.894 291.069 192.903 293.078 186.203C294.646 180.976 297.019 177.549 300.132 176.014C301.76 175.197 303.616 174.954 305.4 175.325L306.103 170.834C306.126 170.692 306.203 170.564 306.319 170.479C306.435 170.394 306.58 170.358 306.723 170.379L333.014 174.345C333.137 174.364 333.25 174.424 333.335 174.516C333.419 174.608 333.469 174.727 333.477 174.851L333.947 182.007C335.711 182.215 341.493 183.542 343.79 192.021C346.586 202.323 327.403 229.875 318.22 239.244L317.397 240.086C312.676 244.935 305.698 252.116 293.293 252.116Z" fill="#1D1D1B"/>
<path d="M306.497 176.474C306.497 176.474 311.684 188.533 333.276 182.955L332.602 175.446L307.448 171.582L306.497 176.474Z" fill="#0598C6"/>
<path d="M248.678 218.129C248.802 216.852 247.869 215.717 246.594 215.594C245.32 215.47 244.187 216.405 244.063 217.682C243.939 218.958 244.872 220.093 246.147 220.217C247.421 220.34 248.555 219.405 248.678 218.129Z" fill="#51CEF4"/>
<path d="M216.113 195.027C216.399 193.776 215.618 192.532 214.37 192.247C213.121 191.962 211.878 192.744 211.593 193.995C211.307 195.245 212.088 196.489 213.336 196.774C214.584 197.059 215.828 196.277 216.113 195.027Z" fill="#51CEF4"/>
<path d="M307.296 192.785C307.42 191.509 306.486 190.374 305.212 190.251C303.937 190.127 302.804 191.062 302.68 192.339C302.557 193.615 303.49 194.75 304.764 194.873C306.039 194.997 307.172 194.062 307.296 192.785Z" fill="#51CEF4"/>
<path d="M335.699 197.788C335.822 196.512 334.889 195.377 333.615 195.254C332.34 195.13 331.207 196.065 331.083 197.342C330.96 198.618 331.893 199.753 333.167 199.876C334.442 200 335.575 199.065 335.699 197.788Z" fill="#51CEF4"/>
<path d="M324.164 233.402C324.293 232.119 323.359 230.976 322.078 230.848C320.798 230.72 319.656 231.656 319.527 232.938C319.399 234.221 320.333 235.364 321.614 235.492C322.894 235.62 324.036 234.684 324.164 233.402Z" fill="#51CEF4"/>
<path d="M277.53 206.457C277.654 205.181 276.721 204.046 275.446 203.922C274.172 203.799 273.039 204.734 272.915 206.01C272.791 207.287 273.724 208.422 274.999 208.545C276.273 208.669 277.407 207.734 277.53 206.457Z" fill="#51CEF4"/>
<path d="M316.182 214.135C316.306 212.859 315.373 211.724 314.098 211.601C312.824 211.477 311.691 212.412 311.567 213.689C311.443 214.965 312.376 216.1 313.651 216.223C314.925 216.347 316.059 215.412 316.182 214.135Z" fill="#51CEF4"/>
<path d="M205.14 143.92C204.12 144.6 203.265 145.497 202.634 146.547C202.004 147.597 201.614 148.775 201.494 149.994C200.904 154.937 211.125 159.125 220.268 152.334C220.268 152.334 225.78 157.139 230.701 155.363C237.478 152.914 234.609 143.906 227.42 142.433C218.263 140.555 205.14 143.92 205.14 143.92Z" fill="white"/>
<path d="M210.188 156.442C208.041 156.478 205.921 155.953 204.039 154.918C201.891 153.671 200.758 151.809 200.969 149.927C201.509 145.411 204.731 143.522 204.866 143.446L204.932 143.41L205.001 143.391C205.544 143.253 218.354 140.015 227.552 141.897C232.192 142.848 234.843 146.592 235.09 149.796C235.291 152.585 233.727 154.856 230.902 155.877C226.396 157.503 221.573 154.054 220.261 153.026C216.845 155.458 213.302 156.442 210.188 156.442ZM205.351 144.445C204.424 145.086 203.649 145.922 203.079 146.894C202.509 147.866 202.158 148.951 202.052 150.073C201.88 151.531 202.803 152.953 204.604 153.989C208.005 155.961 214.264 156.15 219.969 151.911L220.334 151.648L220.665 151.936C220.72 151.98 226.002 156.507 230.555 154.852C232.925 153.996 234.201 152.184 234.026 149.88C233.825 147.153 231.423 143.807 227.358 142.972C218.744 141.211 206.441 144.16 205.351 144.445Z" fill="#1D1E1B"/>
<path d="M242.961 233.918C244.241 233.918 245.279 232.878 245.279 231.596C245.279 230.313 244.241 229.274 242.961 229.274C241.68 229.274 240.642 230.313 240.642 231.596C240.642 232.878 241.68 233.918 242.961 233.918Z" fill="#51CEF4"/>
<path d="M175.017 198.197C176.298 198.197 177.336 197.157 177.336 195.874C177.336 194.592 176.298 193.552 175.017 193.552C173.737 193.552 172.699 194.592 172.699 195.874C172.699 197.157 173.737 198.197 175.017 198.197Z" fill="#51CEF4"/>
<path d="M211.158 215.556C211.437 215.295 211.647 214.97 211.771 214.608C211.894 214.246 211.926 213.86 211.865 213.483C211.804 213.106 211.651 212.75 211.419 212.446C211.188 212.142 210.886 211.899 210.538 211.74C210.12 211.546 209.654 211.482 209.199 211.556C208.744 211.63 208.322 211.839 207.987 212.155C207.755 212.361 207.567 212.61 207.433 212.889C207.299 213.168 207.223 213.471 207.208 213.781C207.193 214.09 207.239 214.399 207.346 214.69C207.452 214.98 207.615 215.247 207.826 215.474C208.036 215.701 208.29 215.883 208.573 216.01C208.855 216.137 209.16 216.207 209.469 216.214C209.778 216.222 210.086 216.168 210.375 216.055C210.663 215.942 210.925 215.772 211.147 215.556H211.158Z" fill="#51CEF4"/>
<path d="M176.494 239.788C176.773 239.527 176.984 239.201 177.108 238.839C177.232 238.478 177.265 238.091 177.203 237.714C177.142 237.336 176.989 236.98 176.757 236.676C176.525 236.372 176.222 236.13 175.874 235.971C175.456 235.777 174.989 235.713 174.534 235.787C174.079 235.861 173.657 236.07 173.322 236.386C173.091 236.592 172.902 236.841 172.769 237.12C172.635 237.4 172.558 237.703 172.543 238.012C172.528 238.321 172.575 238.63 172.681 238.921C172.788 239.211 172.951 239.478 173.161 239.705C173.372 239.931 173.626 240.114 173.908 240.241C174.191 240.368 174.495 240.438 174.805 240.446C175.114 240.453 175.422 240.399 175.71 240.286C175.998 240.173 176.261 240.003 176.483 239.788H176.494Z" fill="#51CEF4"/>
<path d="M253.642 168.749C254.922 168.749 255.96 167.709 255.96 166.427C255.96 165.145 254.922 164.105 253.642 164.105C252.361 164.105 251.323 165.145 251.323 166.427C251.323 167.709 252.361 168.749 253.642 168.749Z" fill="#51CEF4"/>
<path d="M267.903 193.56C267.903 193.56 275.981 208.703 277.494 228.392L272.445 226.707C272.445 226.707 271.942 210.062 267.903 193.56Z" fill="#0598C6"/>
<path d="M267.494 191.143C267.494 191.143 271.1 205.506 272.11 228.392L267.494 191.143Z" fill="#07ACEE"/>
<path d="M272.11 228.939C271.969 228.939 271.834 228.885 271.732 228.788C271.63 228.691 271.569 228.558 271.563 228.417C270.568 205.859 267.002 191.42 266.966 191.274C266.931 191.133 266.953 190.984 267.027 190.86C267.102 190.736 267.223 190.646 267.363 190.611C267.504 190.575 267.653 190.597 267.777 190.672C267.902 190.746 267.991 190.867 268.027 191.008C268.063 191.154 271.654 205.692 272.656 228.366C272.662 228.511 272.611 228.653 272.513 228.76C272.416 228.867 272.28 228.931 272.135 228.939H272.11Z" fill="#1D1D1B"/>
<path d="M337.359 208.112C337.241 208.112 337.125 208.089 337.016 208.043C336.905 207.998 336.805 207.931 336.72 207.847C336.634 207.763 336.567 207.663 336.52 207.552C336.474 207.442 336.45 207.323 336.449 207.204C336.449 207.084 336.472 206.965 336.517 206.855C340.545 197.012 339.641 192.153 338.172 189.798C337.677 189.003 337.01 188.33 336.219 187.83C335.428 187.329 334.534 187.014 333.604 186.907C333.362 186.893 333.136 186.783 332.975 186.602C332.814 186.422 332.732 186.184 332.746 185.943C332.76 185.701 332.869 185.475 333.05 185.314C333.231 185.153 333.468 185.07 333.71 185.084C334.923 185.209 336.092 185.607 337.129 186.25C338.166 186.892 339.043 187.761 339.696 188.791C342.185 192.739 341.686 199.046 338.205 207.54C338.137 207.709 338.02 207.853 337.869 207.955C337.718 208.057 337.541 208.112 337.359 208.112Z" fill="white"/>
<path d="M225.503 93.8866C232.125 93.8866 237.493 88.5105 237.493 81.8786C237.493 75.2468 232.125 69.8706 225.503 69.8706C218.881 69.8706 213.513 75.2468 213.513 81.8786C213.513 88.5105 218.881 93.8866 225.503 93.8866Z" fill="#382256"/>
<path d="M225.503 94.4368C223.218 94.4405 220.976 93.8211 219.018 92.6451C217.059 91.469 215.458 89.781 214.388 87.7629C213.318 85.7448 212.818 83.4729 212.943 81.1919C213.068 78.9108 213.812 76.7069 215.097 74.8177C216.381 72.9285 218.157 71.4254 220.232 70.4703C222.307 69.5151 224.603 69.1441 226.874 69.3971C229.144 69.6502 231.302 70.5177 233.116 71.9064C234.93 73.295 236.331 75.1522 237.168 77.2779C237.917 79.1805 238.19 81.2373 237.964 83.2695C237.737 85.3017 237.018 87.2479 235.868 88.9389C234.719 90.63 233.173 92.0148 231.367 92.9729C229.561 93.9311 227.547 94.4335 225.503 94.4368ZM225.503 70.4099C223.05 70.4041 220.66 71.1848 218.683 72.6374C216.707 74.0901 215.248 76.138 214.522 78.4808C213.795 80.8235 213.839 83.3375 214.646 85.6536C215.454 87.9697 216.982 89.966 219.008 91.3492C221.033 92.7325 223.449 93.4298 225.9 93.3389C228.351 93.248 230.709 92.3737 232.627 90.8442C234.544 89.3148 235.921 87.2108 236.554 84.8412C237.188 82.4717 237.046 79.9614 236.147 77.6789C235.306 75.5398 233.841 73.7029 231.943 72.4067C230.045 71.1105 227.801 70.4149 225.503 70.4099Z" fill="#1D1E1B"/>
<path d="M188.746 115.971C188.746 115.971 181.109 107.987 185.33 100.849C189.552 93.7116 191.436 94.5318 193.412 90.6203C195.388 86.7087 203.032 83.3075 209.496 85.8447C209.496 85.8447 218.292 80.4203 225.565 83.0268C232.837 85.6333 235.112 89.4282 236.698 95.4505C238.284 101.473 240.157 104.254 241.415 108.45C242.673 112.646 244.072 124.235 227.486 131.157C210.899 138.08 188.746 115.971 188.746 115.971Z" fill="#382256"/>
<path d="M220.556 133.028C214.964 133.028 208.544 130.873 201.6 126.626C196.84 123.671 192.399 120.229 188.349 116.357C188.024 116.022 180.474 107.991 184.856 100.58C187.237 96.5514 188.899 95.0057 190.237 93.759C191.352 92.83 192.265 91.6824 192.92 90.387C195.107 86.0526 202.916 82.8519 209.437 85.2506C210.928 84.383 218.894 80.0631 225.747 82.5201C233.231 85.2068 235.622 89.246 237.223 95.3229C237.958 98.0659 238.906 100.747 240.059 103.343C240.778 104.962 241.405 106.621 241.936 108.312C243.03 111.957 245.217 124.352 227.694 131.682C225.427 132.6 223.001 133.057 220.556 133.028ZM189.14 115.588C189.573 116.018 211.3 137.322 227.274 130.654C243.96 123.688 241.915 112.019 240.894 108.607C240.376 106.955 239.767 105.333 239.071 103.747C237.899 101.107 236.934 98.3792 236.184 95.589C234.638 89.7308 232.462 86.0744 225.397 83.5591C218.471 81.0693 209.882 86.275 209.795 86.3297L209.565 86.4719L209.31 86.3735C202.963 83.8836 195.709 87.3394 193.915 90.8864C193.201 92.2976 192.209 93.55 190.999 94.5684C189.716 95.7641 188.115 97.2514 185.815 101.13C181.882 107.758 188.932 115.369 189.14 115.588Z" fill="#1D1E1B"/>
<path d="M219.265 110.933H219.302C224.621 111.487 230.267 106.81 230.504 106.613C230.591 106.54 230.645 106.436 230.655 106.323C230.665 106.211 230.631 106.099 230.559 106.011C230.523 105.968 230.479 105.932 230.43 105.905C230.38 105.879 230.326 105.863 230.27 105.858C230.214 105.853 230.157 105.859 230.104 105.876C230.05 105.893 230 105.92 229.957 105.957C229.903 106.004 224.347 110.601 219.386 110.083C219.278 110.075 219.171 110.107 219.086 110.175C219.001 110.242 218.945 110.339 218.93 110.446C218.914 110.553 218.939 110.662 219.001 110.751C219.063 110.84 219.156 110.903 219.262 110.925L219.265 110.933Z" fill="black"/>
<path d="M208.872 137.613L207.906 143.584C207.906 143.584 215.981 157.382 230.118 143.92C230.118 143.92 225.955 135.663 224.413 121.803C224.413 121.803 230.486 121.362 230.311 115.97C230.136 110.579 226.032 109.044 223.327 110.138C223.327 110.138 212.573 115.551 205.541 93.6895C205.541 93.6895 194.528 96.4672 190.828 106.922C187.127 117.377 187.466 130.147 195.202 134.919C202.938 139.691 208.872 137.613 208.872 137.613Z" fill="#FFCDB2"/>
<path d="M218.234 150.365C217.712 150.365 217.19 150.329 216.674 150.256C210.735 149.417 207.56 144.088 207.418 143.862L207.319 143.69L208.183 138.35C206.233 138.747 201.144 139.21 194.896 135.353C186.588 130.228 186.69 116.911 190.299 106.707C194.054 96.1029 205.278 93.1575 205.391 93.132L205.887 93.0044L206.047 93.4928C209.547 104.374 213.939 108.191 217.013 109.474C220.436 110.911 223.042 109.635 223.068 109.62L223.111 109.598C223.917 109.294 224.784 109.184 225.64 109.277C226.497 109.371 227.319 109.666 228.04 110.138C229.764 111.272 230.759 113.331 230.843 115.941C231 120.772 226.593 121.989 225.011 122.27C226.571 135.543 230.559 143.592 230.603 143.676L230.785 144.04L230.49 144.321C226.272 148.335 222.16 150.365 218.234 150.365ZM208.464 143.468C209.033 144.339 211.975 148.495 216.849 149.173C220.786 149.727 225.025 147.915 229.447 143.796C228.634 142.024 225.222 134.037 223.866 121.865L223.8 121.3L224.369 121.256C224.595 121.256 229.917 120.782 229.761 115.974C229.67 113.102 228.452 111.713 227.449 111.053C226.879 110.678 226.228 110.442 225.55 110.365C224.872 110.288 224.185 110.371 223.545 110.608C223.221 110.765 220.337 112.048 216.601 110.484C211.916 108.523 208.074 103.091 205.179 94.3349C203.04 95.0239 194.458 98.2684 191.327 107.076C187.747 117.188 188.02 129.827 195.468 134.416C202.861 138.981 208.617 137.11 208.675 137.088L209.536 136.797L208.464 143.468Z" fill="#1D1E1B"/>
<path d="M224.752 119.32C224.827 119.334 224.906 119.328 224.978 119.302C225.05 119.275 225.114 119.23 225.164 119.171C226.622 117.385 227.121 115.813 226.669 114.494C226.024 112.591 223.647 112.015 223.549 111.99C223.439 111.963 223.322 111.982 223.226 112.042C223.13 112.101 223.061 112.196 223.035 112.307C223.009 112.417 223.027 112.533 223.087 112.629C223.146 112.726 223.242 112.795 223.352 112.821C223.377 112.821 225.375 113.32 225.864 114.771C226.21 115.795 225.751 117.093 224.5 118.631C224.429 118.719 224.396 118.831 224.408 118.943C224.42 119.055 224.475 119.158 224.562 119.229C224.617 119.275 224.682 119.306 224.752 119.32Z" fill="black"/>
<path d="M203.218 110.655C209.175 112.296 217.457 110.123 218.726 112.361C219.995 114.6 218.766 117.428 215.445 117.95C212.124 118.471 208.901 118.187 202.296 117.272C195.69 116.357 189.289 114.971 190.266 111.464C191.243 107.958 194.462 108.242 203.218 110.655Z" fill="#FFB49F"/>
<path d="M226.848 123.917C227.931 123.917 228.809 123.038 228.809 121.953C228.809 120.867 227.931 119.988 226.848 119.988C225.765 119.988 224.887 120.867 224.887 121.953C224.887 123.038 225.765 123.917 226.848 123.917Z" fill="#07ACEE"/>
<path d="M226.848 119.988C227.307 119.984 227.753 120.142 228.108 120.433C228.463 120.724 228.705 121.131 228.791 121.582C228.878 122.033 228.804 122.5 228.582 122.902C228.36 123.304 228.005 123.615 227.577 123.782C227.345 123.873 227.097 123.918 226.848 123.917C226.327 123.917 225.827 123.71 225.459 123.342C225.09 122.973 224.883 122.474 224.883 121.952C224.883 121.431 225.09 120.932 225.459 120.563C225.827 120.195 226.327 119.988 226.848 119.988ZM226.848 118.894C226.465 118.893 226.085 118.964 225.729 119.106C225.065 119.366 224.514 119.85 224.169 120.473C223.825 121.097 223.708 121.822 223.841 122.522C223.974 123.222 224.347 123.854 224.896 124.308C225.445 124.763 226.135 125.011 226.848 125.011C227.231 125.012 227.611 124.94 227.967 124.8C228.72 124.501 229.325 123.916 229.648 123.172C229.971 122.429 229.987 121.588 229.691 120.833C229.47 120.26 229.079 119.768 228.572 119.421C228.064 119.075 227.463 118.891 226.848 118.894Z" fill="#1D1D1B"/>
<path d="M205.719 130.909C204.162 130.909 202.737 130.151 201.487 128.653C201.433 128.599 201.392 128.534 201.365 128.463C201.338 128.392 201.326 128.316 201.33 128.24C201.333 128.164 201.353 128.09 201.386 128.022C201.42 127.954 201.468 127.893 201.526 127.845C201.585 127.796 201.652 127.76 201.725 127.738C201.798 127.717 201.875 127.711 201.951 127.721C202.026 127.731 202.098 127.756 202.163 127.796C202.229 127.835 202.285 127.887 202.329 127.949C203.36 129.189 204.516 129.816 205.719 129.816H205.748C208.223 129.798 210.294 127.264 210.316 127.238C210.407 127.125 210.54 127.053 210.684 127.038C210.829 127.022 210.974 127.065 211.087 127.156C211.2 127.248 211.272 127.38 211.288 127.525C211.303 127.67 211.26 127.814 211.169 127.927C211.071 128.048 208.745 130.888 205.755 130.909H205.719Z" fill="#1D1D1B"/>
<path d="M198.344 121.136C198.274 121.137 198.205 121.124 198.14 121.096C198.006 121.042 197.899 120.936 197.842 120.803C197.785 120.67 197.784 120.519 197.838 120.385L201.541 111.25C201.569 111.181 201.61 111.12 201.662 111.068C201.713 111.016 201.775 110.974 201.843 110.946C201.911 110.919 201.984 110.905 202.057 110.905C202.131 110.906 202.203 110.922 202.271 110.951C202.337 110.977 202.398 111.017 202.45 111.067C202.501 111.117 202.542 111.177 202.569 111.243C202.597 111.309 202.612 111.38 202.612 111.452C202.612 111.524 202.597 111.595 202.569 111.661L198.866 120.797C198.824 120.9 198.751 120.987 198.658 121.048C198.565 121.108 198.455 121.139 198.344 121.136Z" fill="#1D1D1B"/>
<path d="M193.299 105.202C193.19 105.201 193.083 105.166 192.994 105.104C192.904 105.041 192.835 104.953 192.796 104.851C192.757 104.749 192.749 104.638 192.774 104.531C192.798 104.425 192.854 104.328 192.934 104.254C193.12 104.079 197.539 100.062 200.451 102.978C200.548 103.082 200.601 103.219 200.598 103.361C200.596 103.502 200.538 103.637 200.438 103.738C200.338 103.838 200.203 103.895 200.061 103.898C199.919 103.9 199.782 103.848 199.679 103.751C197.491 101.564 193.715 105.02 193.678 105.056C193.575 105.152 193.439 105.204 193.299 105.202Z" fill="black"/>
<path d="M215.682 108.264C215.598 108.265 215.515 108.245 215.44 108.208C215.364 108.171 215.299 108.116 215.248 108.049C214.184 106.668 213.061 105.895 211.927 105.749C211.217 105.654 210.497 105.82 209.9 106.215C209.786 106.304 209.641 106.344 209.497 106.326C209.353 106.308 209.222 106.234 209.133 106.119C209.044 106.004 209.004 105.859 209.022 105.715C209.04 105.571 209.115 105.44 209.23 105.351C210.056 104.777 211.068 104.531 212.066 104.663C213.506 104.849 214.869 105.756 216.112 107.382C216.175 107.463 216.214 107.559 216.224 107.661C216.235 107.763 216.217 107.865 216.172 107.957C216.127 108.049 216.057 108.126 215.971 108.181C215.884 108.235 215.784 108.264 215.682 108.264Z" fill="black"/>
<path d="M207.986 137.828C207.986 137.828 212.911 136.604 215.602 134.584L207.986 137.828Z" fill="#4BD657"/>
<path d="M207.987 138.375C207.842 138.393 207.696 138.352 207.581 138.262C207.466 138.171 207.391 138.039 207.374 137.894C207.357 137.749 207.398 137.603 207.488 137.488C207.578 137.373 207.71 137.299 207.855 137.282C207.903 137.282 212.704 136.057 215.274 134.129C215.331 134.085 215.397 134.054 215.466 134.036C215.536 134.018 215.608 134.014 215.679 134.025C215.75 134.035 215.819 134.059 215.88 134.095C215.942 134.132 215.996 134.18 216.039 134.238C216.082 134.295 216.114 134.361 216.131 134.43C216.149 134.5 216.153 134.572 216.143 134.643C216.133 134.714 216.109 134.783 216.072 134.844C216.036 134.906 215.987 134.96 215.93 135.003C213.181 137.067 208.322 138.284 208.118 138.342C208.076 138.359 208.031 138.37 207.987 138.375Z" fill="black"/>
<path d="M222.335 107.229H222.298C212.656 106.864 209.149 94.634 209.004 94.1054C208.939 93.8724 208.969 93.6232 209.088 93.4126C209.207 93.202 209.405 93.0473 209.638 92.9826C209.871 92.9178 210.12 92.9482 210.331 93.0671C210.541 93.1861 210.696 93.3838 210.761 93.6168C210.79 93.7298 214.06 105.093 222.368 105.402C222.609 105.407 222.84 105.507 223.007 105.681C223.175 105.855 223.267 106.088 223.263 106.33C223.258 106.572 223.158 106.802 222.984 106.97C222.81 107.138 222.577 107.23 222.335 107.225V107.229Z" fill="white"/>
<path d="M192.381 119.988C190.875 119.986 189.404 119.537 188.153 118.7C186.903 117.862 185.928 116.672 185.353 115.281C184.779 113.89 184.629 112.359 184.923 110.883C185.218 109.407 185.943 108.051 187.008 106.987C188.073 105.922 189.429 105.198 190.905 104.904C192.382 104.61 193.912 104.76 195.303 105.336C196.694 105.912 197.883 106.887 198.72 108.138C199.558 109.389 200.005 110.86 200.007 112.365C200.007 113.367 199.809 114.358 199.426 115.283C199.043 116.208 198.481 117.049 197.773 117.757C197.065 118.464 196.224 119.026 195.299 119.409C194.373 119.792 193.382 119.988 192.381 119.988ZM192.381 105.855C191.091 105.857 189.83 106.241 188.759 106.96C187.688 107.678 186.854 108.698 186.362 109.891C185.87 111.083 185.744 112.395 185.997 113.659C186.251 114.924 186.874 116.085 187.788 116.995C188.701 117.906 189.864 118.525 191.13 118.775C192.395 119.024 193.706 118.893 194.897 118.397C196.088 117.902 197.105 117.064 197.82 115.99C198.535 114.917 198.915 113.655 198.913 112.365C198.908 110.636 198.218 108.98 196.993 107.759C195.768 106.538 194.11 105.854 192.381 105.855Z" fill="#1D1E1B"/>
<path d="M209.543 122.682C208.037 122.682 206.565 122.235 205.312 121.398C204.06 120.562 203.084 119.372 202.508 117.981C201.931 116.589 201.78 115.058 202.074 113.581C202.368 112.104 203.093 110.747 204.158 109.682C205.223 108.617 206.58 107.891 208.057 107.597C209.535 107.304 211.066 107.455 212.457 108.031C213.849 108.607 215.038 109.583 215.875 110.836C216.712 112.088 217.158 113.56 217.158 115.067C217.156 117.086 216.354 119.021 214.926 120.449C213.498 121.877 211.562 122.68 209.543 122.682ZM209.543 108.545C208.253 108.545 206.992 108.927 205.92 109.644C204.847 110.361 204.012 111.379 203.518 112.571C203.024 113.762 202.895 115.074 203.147 116.339C203.398 117.604 204.02 118.766 204.932 119.678C205.844 120.59 207.006 121.211 208.271 121.463C209.536 121.714 210.847 121.585 212.039 121.092C213.231 120.598 214.249 119.762 214.966 118.69C215.682 117.617 216.065 116.356 216.065 115.067C216.063 113.337 215.375 111.68 214.152 110.457C212.93 109.234 211.272 108.547 209.543 108.545Z" fill="#1D1E1B"/>
<path d="M216.612 115.613C216.529 115.613 216.448 115.594 216.373 115.558C216.299 115.522 216.233 115.47 216.182 115.405C216.092 115.291 216.052 115.146 216.069 115.002C216.086 114.858 216.159 114.727 216.273 114.636L222.667 109.587C222.723 109.543 222.788 109.51 222.857 109.49C222.926 109.471 222.999 109.465 223.07 109.474C223.142 109.482 223.211 109.504 223.273 109.54C223.336 109.575 223.391 109.622 223.436 109.678C223.48 109.735 223.513 109.8 223.533 109.869C223.552 109.938 223.558 110.011 223.55 110.082C223.541 110.153 223.519 110.222 223.484 110.285C223.448 110.348 223.401 110.403 223.345 110.448L216.951 115.496C216.854 115.572 216.734 115.613 216.612 115.613Z" fill="#1D1E1B"/>
<path d="M202.493 115.121C202.387 115.12 202.283 115.089 202.195 115.031C202.106 114.972 202.036 114.89 201.994 114.793C201.527 113.721 199.475 114.064 199.442 114.064C199.301 114.086 199.157 114.052 199.041 113.969C198.924 113.887 198.845 113.762 198.819 113.622C198.793 113.482 198.824 113.337 198.903 113.219C198.983 113.1 199.105 113.018 199.245 112.988C199.365 112.966 202.161 112.478 202.985 114.359C203.015 114.426 203.032 114.497 203.034 114.57C203.036 114.643 203.023 114.716 202.996 114.783C202.97 114.851 202.93 114.913 202.879 114.966C202.828 115.018 202.768 115.06 202.701 115.088C202.634 115.113 202.564 115.124 202.493 115.121Z" fill="#1D1E1B"/>
<path d="M234.828 84.2555H234.802C234.683 84.2522 234.565 84.2253 234.455 84.1765C234.346 84.1276 234.247 84.0575 234.165 83.9705C234.083 83.8835 234.018 83.7812 233.976 83.6693C233.933 83.5575 233.913 83.4382 233.916 83.3185C234.015 79.8663 233.151 77.2015 231.365 75.397C228.703 72.7358 224.803 72.8088 224.77 72.8125C224.528 72.8202 224.293 72.7315 224.117 72.5661C223.941 72.4007 223.837 72.172 223.829 71.9303C223.822 71.6886 223.91 71.4536 224.076 71.2772C224.241 71.1008 224.47 70.9975 224.712 70.9897C224.901 70.9897 229.407 70.8767 232.637 74.0957C234.824 76.2647 235.863 79.3851 235.75 83.3696C235.742 83.6084 235.642 83.8349 235.469 84.0004C235.297 84.166 235.067 84.2575 234.828 84.2555Z" fill="white"/>
<path d="M240.547 85.9104C240.481 85.9089 240.416 85.8965 240.354 85.8739C240.219 85.8217 240.109 85.718 240.05 85.5856C239.991 85.4531 239.986 85.3026 240.037 85.1667C243.209 76.9281 237.441 72.5244 237.194 72.3385C237.077 72.252 237 72.1227 236.979 71.9791C236.957 71.8356 236.994 71.6894 237.081 71.5729C237.167 71.4564 237.296 71.3791 237.44 71.3579C237.584 71.3367 237.73 71.3734 237.846 71.4599C237.912 71.511 244.535 76.5234 241.058 85.5567C241.019 85.6608 240.949 85.7504 240.858 85.8136C240.767 85.8768 240.658 85.9107 240.547 85.9104Z" fill="#1D1D1B"/>
<path d="M197.134 113.841C197.029 113.841 196.927 113.811 196.839 113.754C196.751 113.697 196.682 113.616 196.638 113.521C196.482 113.136 196.25 112.788 195.956 112.496C195.661 112.204 195.311 111.974 194.925 111.822C193.299 111.213 191.327 112.099 191.305 112.11C191.24 112.14 191.169 112.156 191.097 112.159C191.026 112.162 190.954 112.15 190.887 112.125C190.819 112.1 190.757 112.062 190.705 112.013C190.652 111.964 190.61 111.905 190.58 111.84C190.55 111.775 190.533 111.704 190.53 111.632C190.528 111.561 190.539 111.489 190.564 111.421C190.589 111.354 190.627 111.292 190.676 111.24C190.725 111.187 190.784 111.144 190.849 111.115C190.944 111.071 193.241 110.021 195.3 110.794C195.824 110.994 196.301 111.299 196.702 111.69C197.103 112.081 197.42 112.551 197.634 113.069C197.671 113.152 197.688 113.244 197.681 113.335C197.674 113.426 197.645 113.514 197.595 113.591C197.545 113.668 197.477 113.732 197.396 113.775C197.316 113.819 197.226 113.842 197.134 113.841Z" fill="#1D1D1B"/>
<path d="M212.616 115.525C212.492 115.525 212.371 115.483 212.274 115.405C209.262 112.996 206.23 115.066 206.2 115.088C206.081 115.171 205.934 115.204 205.791 115.178C205.648 115.153 205.522 115.072 205.438 114.953C205.355 114.834 205.323 114.687 205.348 114.544C205.373 114.401 205.454 114.274 205.573 114.191C205.61 114.166 209.313 111.639 212.959 114.556C213.047 114.627 213.11 114.724 213.141 114.833C213.171 114.942 213.168 115.058 213.13 115.165C213.093 115.271 213.023 115.364 212.931 115.43C212.839 115.496 212.729 115.532 212.616 115.533V115.525Z" fill="#1D1D1B"/>
<path d="M203.003 144.529C203.003 144.529 159.298 143.202 143.408 211.076C122.217 215.049 107.562 216.511 100.694 241.205L124.546 253.443C124.546 253.443 143.419 260.734 167.588 245.828" fill="#07ACEE"/>
<path d="M136.729 255.784C129.132 255.784 124.532 254.041 124.335 253.961L124.28 253.935L100.443 241.687C100.331 241.629 100.242 241.535 100.191 241.419C100.141 241.303 100.132 241.174 100.166 241.052C106.779 217.27 120.777 214.689 140.153 211.116L142.952 210.599C146.598 195.204 151.978 182.128 158.967 171.731C164.61 163.347 171.306 156.654 178.867 151.882C191.775 143.731 202.562 143.964 203.014 143.975C203.086 143.977 203.157 143.993 203.223 144.022C203.288 144.051 203.347 144.093 203.397 144.145C203.446 144.197 203.485 144.259 203.511 144.326C203.536 144.393 203.548 144.464 203.546 144.536C203.54 144.681 203.477 144.817 203.372 144.917C203.266 145.016 203.126 145.07 202.982 145.068C202.876 145.068 192.02 144.846 179.388 152.844C167.723 160.237 152.091 176.357 143.936 211.196C143.911 211.299 143.857 211.393 143.78 211.466C143.703 211.539 143.607 211.588 143.503 211.608L140.349 212.192C120.781 215.801 107.81 218.192 101.343 240.918L124.754 252.948C125.542 253.236 144.046 259.699 167.289 245.369C167.413 245.293 167.562 245.269 167.703 245.303C167.844 245.337 167.966 245.425 168.042 245.549C168.118 245.673 168.141 245.822 168.108 245.963C168.074 246.104 167.985 246.226 167.861 246.302C155.27 254.063 144.126 255.74 136.996 255.78L136.729 255.784Z" fill="#1D1D1B"/>
<path d="M170.224 193.531C170.224 193.531 162.28 212.731 167.577 245.843L170.224 193.531Z" fill="#07ACEE"/>
<path d="M167.563 246.389C167.433 246.39 167.307 246.344 167.208 246.26C167.109 246.175 167.043 246.059 167.023 245.93C161.759 213.048 169.626 193.512 169.706 193.319C169.732 193.251 169.772 193.189 169.823 193.137C169.873 193.085 169.934 193.043 170.001 193.014C170.068 192.986 170.14 192.971 170.213 192.971C170.286 192.97 170.358 192.985 170.425 193.013C170.493 193.04 170.554 193.082 170.605 193.133C170.656 193.185 170.696 193.247 170.723 193.314C170.751 193.382 170.764 193.454 170.762 193.527C170.761 193.6 170.745 193.672 170.716 193.739C170.636 193.928 162.893 213.205 168.102 245.755C168.113 245.826 168.111 245.899 168.094 245.969C168.077 246.039 168.047 246.105 168.005 246.163C167.962 246.222 167.909 246.271 167.847 246.308C167.786 246.346 167.718 246.371 167.646 246.382L167.563 246.389Z" fill="#1D1D1B"/>
<path d="M159.401 198.772C159.686 197.521 158.905 196.277 157.657 195.992C156.409 195.707 155.165 196.489 154.88 197.739C154.594 198.99 155.375 200.234 156.623 200.519C157.872 200.804 159.115 200.022 159.401 198.772Z" fill="#51CEF4"/>
<path d="M294.952 139.611L301.714 177.254C301.714 177.254 312.953 183.087 322.493 176.332L325.865 139.042L294.952 139.611Z" fill="#4BD657"/>
<path d="M311.961 180.119C308.327 180.086 304.742 179.278 301.444 177.749L301.207 177.625L294.303 139.079L326.459 138.492L323.011 176.641L322.803 176.787C319.628 179.006 315.835 180.172 311.961 180.119ZM302.184 176.893C303.825 177.651 313.602 181.763 321.968 176.036L325.249 139.607L295.593 140.147L302.184 176.893Z" fill="#1D1E1B"/>
<path d="M153.867 190.013C153.684 190.013 153.505 189.967 153.345 189.88C153.185 189.793 153.049 189.668 152.95 189.515C152.85 189.362 152.791 189.187 152.777 189.005C152.762 188.823 152.794 188.641 152.868 188.474C165.302 160.682 179.115 154.958 179.713 154.729C179.982 154.622 180.284 154.627 180.55 154.742C180.816 154.857 181.026 155.073 181.133 155.343C181.239 155.613 181.235 155.914 181.119 156.18C181.004 156.446 180.788 156.656 180.518 156.763C180.372 156.821 166.881 162.508 154.865 189.368C154.779 189.56 154.639 189.723 154.461 189.838C154.284 189.952 154.078 190.013 153.867 190.013Z" fill="white"/>
<path d="M296.716 149.458L300.289 169.409C307.328 169.722 316.463 168.775 323.255 167.856L324.961 148.987C314.816 150.347 304.091 150.008 296.716 149.458Z" fill="white"/>
<path d="M303.194 170.018C302.188 170.018 301.207 169.996 300.278 169.956L299.84 169.934L296.064 148.86L296.767 148.911C304 149.45 314.75 149.808 324.899 148.444L325.581 148.353L323.758 168.341L323.324 168.399C317.626 169.168 309.84 170.018 303.194 170.018ZM300.752 168.88C307.616 169.132 316.391 168.221 322.752 167.371L324.356 149.618C314.641 150.846 304.481 150.555 297.38 150.055L300.752 168.88Z" fill="#1D1E1B"/>
<path d="M297.34 133.6L299.851 130.585C300.222 130.137 300.738 129.834 301.31 129.728C304.025 129.233 312.443 127.982 320.754 129.641C321.128 129.716 321.479 129.876 321.783 130.107C322.086 130.338 322.332 130.635 322.504 130.975L323.816 133.6H297.34Z" fill="white"/>
<path d="M324.728 134.147H296.18L299.461 130.235C299.918 129.687 300.553 129.317 301.255 129.189C303.719 128.74 312.417 127.41 320.907 129.105C321.362 129.198 321.79 129.392 322.158 129.674C322.527 129.955 322.827 130.317 323.036 130.731L324.728 134.147ZM298.517 133.053H322.941L322.023 131.23C321.889 130.965 321.697 130.733 321.461 130.553C321.225 130.372 320.951 130.247 320.659 130.188C312.359 128.533 303.832 129.823 301.419 130.275C300.97 130.358 300.564 130.596 300.271 130.946L298.517 133.053Z" fill="#1D1E1B"/>
<path d="M295.032 133.873L292.582 138.423C292.441 138.685 292.372 138.98 292.381 139.277C292.39 139.575 292.477 139.864 292.634 140.118C292.791 140.371 293.011 140.578 293.273 140.719C293.536 140.86 293.83 140.929 294.128 140.92L326.959 139.877C327.261 139.868 327.554 139.778 327.81 139.616C328.065 139.455 328.272 139.228 328.41 138.96C328.548 138.691 328.612 138.39 328.595 138.089C328.577 137.787 328.479 137.496 328.311 137.245L325.588 133.162C325.43 132.922 325.213 132.727 324.958 132.594C324.702 132.462 324.417 132.398 324.13 132.408L296.476 132.984C296.178 132.992 295.888 133.079 295.635 133.235C295.381 133.391 295.173 133.611 295.032 133.873Z" fill="white"/>
<path d="M294.059 141.448C293.672 141.447 293.291 141.346 292.955 141.154C292.619 140.962 292.338 140.687 292.14 140.354C291.941 140.022 291.833 139.643 291.824 139.256C291.815 138.869 291.907 138.487 292.09 138.145L294.54 133.596C294.728 133.247 295.005 132.954 295.343 132.747C295.681 132.54 296.068 132.427 296.465 132.418L324.123 131.843C324.499 131.833 324.872 131.919 325.206 132.093C325.54 132.267 325.825 132.524 326.033 132.838L328.756 136.924C328.977 137.257 329.105 137.642 329.127 138.041C329.149 138.439 329.064 138.837 328.881 139.192C328.699 139.546 328.424 139.846 328.087 140.059C327.75 140.273 327.361 140.392 326.962 140.406L294.135 141.448H294.059ZM324.17 132.936H324.144L296.501 133.508C296.298 133.513 296.1 133.571 295.926 133.677C295.753 133.782 295.611 133.932 295.513 134.11L293.064 138.659C292.968 138.837 292.921 139.037 292.927 139.238C292.933 139.439 292.992 139.636 293.098 139.807C293.204 139.979 293.354 140.119 293.531 140.215C293.709 140.31 293.908 140.357 294.11 140.351L326.941 139.308C327.145 139.302 327.343 139.24 327.516 139.131C327.689 139.022 327.829 138.868 327.923 138.687C328.017 138.505 328.06 138.301 328.049 138.097C328.038 137.893 327.972 137.696 327.859 137.526L325.136 133.443C325.031 133.286 324.888 133.158 324.722 133.07C324.555 132.982 324.369 132.936 324.181 132.936H324.17Z" fill="#1D1E1B"/>
<path d="M323.74 174.188C323.74 174.188 332.988 176.244 337.049 166.208C341.11 156.172 341.748 145.608 336.287 139.25C330.826 132.892 324.294 132.459 319.999 134.442C315.705 136.425 314.896 141.095 318.465 145.958C318.465 145.958 311.768 150.799 318.523 158.979C315.709 159.963 313.274 168.475 321.563 169.795C321.87 171.432 322.623 172.952 323.74 174.188Z" fill="#FFCDB2"/>
<path d="M325.661 174.891C324.977 174.9 324.293 174.842 323.619 174.72L323.444 174.68L323.328 174.545C322.236 173.331 321.47 171.86 321.101 170.269C317.707 169.613 315.632 167.59 315.355 164.67C315.147 162.337 316.19 159.821 317.681 158.804C315.592 156.096 314.699 153.453 315.02 150.934C315.299 148.978 316.256 147.182 317.725 145.859C315.953 143.264 315.301 140.61 315.902 138.339C316.402 136.407 317.725 134.887 319.784 133.942C323.969 132.01 330.918 132.145 336.714 138.893C341.817 144.839 342.138 155.126 337.567 166.412C334.556 173.827 328.749 174.891 325.661 174.891ZM324.031 173.685C325.315 173.911 332.963 174.851 336.543 166C340.957 155.1 340.706 145.221 335.872 139.607C330.48 133.326 324.257 133.078 320.229 134.938C318.498 135.736 317.364 137.008 316.948 138.612C316.412 140.683 317.109 143.176 318.906 145.633L319.23 146.078L318.786 146.399C317.337 147.572 316.381 149.246 316.106 151.09C315.807 153.453 316.762 155.99 318.942 158.633L319.442 159.238L318.713 159.497C317.524 159.912 316.252 162.271 316.456 164.571C316.587 166.029 317.441 168.581 321.662 169.256L322.045 169.314L322.114 169.697C322.386 171.173 323.048 172.55 324.031 173.685Z" fill="black"/>
<path d="M333.794 149.694C333.72 149.695 333.646 149.68 333.578 149.651C333.51 149.622 333.448 149.58 333.397 149.526C333.138 149.257 327.101 143.125 317.67 146.672C317.602 146.703 317.528 146.72 317.454 146.721C317.379 146.722 317.305 146.708 317.236 146.68C317.167 146.651 317.104 146.609 317.052 146.555C317 146.501 316.96 146.438 316.933 146.368C316.907 146.298 316.895 146.223 316.898 146.149C316.902 146.074 316.92 146.001 316.953 145.934C316.986 145.866 317.033 145.807 317.089 145.758C317.146 145.71 317.212 145.673 317.284 145.651C327.414 141.838 334.122 148.699 334.188 148.772C334.262 148.849 334.313 148.946 334.332 149.051C334.352 149.157 334.34 149.266 334.298 149.364C334.256 149.463 334.186 149.547 334.096 149.606C334.006 149.664 333.901 149.695 333.794 149.694Z" fill="#1D1D1B"/>
<path d="M331.541 159.636C331.486 159.636 331.432 159.627 331.381 159.61C331.308 159.588 323.762 157.328 318.647 159.541C318.516 159.59 318.37 159.587 318.241 159.532C318.112 159.478 318.009 159.375 317.953 159.246C317.897 159.117 317.893 158.972 317.942 158.84C317.99 158.708 318.087 158.6 318.213 158.538C323.7 156.165 331.377 158.465 331.701 158.564C331.828 158.601 331.938 158.683 332.009 158.794C332.08 158.905 332.109 159.039 332.089 159.17C332.07 159.301 332.003 159.42 331.902 159.506C331.802 159.591 331.673 159.637 331.541 159.636Z" fill="#1D1D1B"/>
<path d="M325.344 170.878C323.9 170.865 322.464 170.66 321.075 170.265C320.94 170.221 320.827 170.124 320.762 169.998C320.696 169.871 320.682 169.724 320.724 169.588C320.765 169.451 320.858 169.337 320.983 169.268C321.108 169.199 321.255 169.181 321.392 169.219C321.439 169.219 326.193 170.648 329 168.938C329.124 168.863 329.273 168.84 329.415 168.875C329.556 168.909 329.677 168.998 329.753 169.123C329.828 169.247 329.851 169.396 329.817 169.537C329.782 169.678 329.693 169.8 329.569 169.875C328.326 170.641 326.765 170.878 325.344 170.878Z" fill="#1D1D1B"/>
<path d="M337.075 145.371C336.887 145.371 336.703 145.312 336.549 145.204C336.395 145.096 336.278 144.943 336.214 144.766C336.214 144.711 334.359 139.753 329.795 137.62C326.959 136.294 323.634 136.308 319.912 137.664C319.8 137.705 319.68 137.724 319.56 137.719C319.441 137.714 319.323 137.686 319.214 137.635C319.106 137.585 319.008 137.513 318.927 137.425C318.846 137.337 318.783 137.234 318.742 137.121C318.701 137.009 318.682 136.889 318.687 136.769C318.692 136.65 318.721 136.532 318.771 136.424C318.822 136.315 318.893 136.217 318.981 136.136C319.069 136.055 319.173 135.992 319.285 135.951C323.488 134.42 327.305 134.427 330.586 135.976C335.843 138.444 337.848 143.92 337.931 144.153C337.98 144.291 337.994 144.437 337.974 144.582C337.954 144.726 337.9 144.863 337.816 144.982C337.733 145.101 337.621 145.199 337.493 145.266C337.364 145.334 337.22 145.37 337.075 145.371Z" fill="white"/>
<path d="M333.706 154.091C333.565 154.09 333.426 154.057 333.299 153.994C333.173 153.931 333.062 153.839 332.977 153.726C332.769 153.446 328.012 147.19 319.93 149.986C319.702 150.065 319.451 150.05 319.234 149.944C319.016 149.838 318.85 149.65 318.771 149.421C318.692 149.192 318.707 148.942 318.813 148.724C318.919 148.507 319.107 148.341 319.336 148.262C328.716 145.018 334.392 152.571 334.446 152.636C334.517 152.733 334.568 152.842 334.597 152.958C334.625 153.075 334.631 153.195 334.612 153.313C334.594 153.432 334.553 153.545 334.49 153.647C334.428 153.749 334.346 153.838 334.249 153.909C334.093 154.027 333.902 154.091 333.706 154.091Z" fill="white"/>
<path d="M137.849 116.929C158.878 116.929 175.925 99.8818 175.925 78.8527C175.925 57.8237 158.878 40.7764 137.849 40.7764C116.82 40.7764 99.7722 57.8237 99.7722 78.8527C99.7722 99.8818 116.82 116.929 137.849 116.929Z" fill="white"/>
<path d="M137.801 117.469C127.649 117.451 117.913 113.436 110.701 106.291C103.488 99.1461 99.3813 89.4478 99.2685 79.2964C99.1557 69.145 103.046 59.3579 110.098 52.0547C117.15 44.7515 126.794 40.5202 136.943 40.2772C147.093 40.0342 156.929 43.7991 164.322 50.7565C171.715 57.7139 176.07 67.3036 176.443 77.4488C176.816 87.5939 173.177 97.4776 166.315 104.959C159.453 112.441 149.92 116.918 139.781 117.422C139.128 117.469 138.457 117.469 137.801 117.469ZM137.87 41.316C137.24 41.316 136.606 41.3342 135.968 41.3633C128.555 41.7367 121.419 44.2997 115.463 48.7282C109.507 53.1568 104.997 59.2521 102.505 66.2434C100.013 73.2346 99.6493 80.808 101.461 88.0057C103.273 95.2034 107.178 101.702 112.683 106.681C118.188 111.659 125.045 114.893 132.388 115.975C139.731 117.056 147.23 115.936 153.936 112.755C160.643 109.575 166.255 104.478 170.065 98.1077C173.874 91.7377 175.71 84.3811 175.338 76.9682C174.843 67.3599 170.681 58.3077 163.71 51.6763C156.74 45.0448 147.491 41.3394 137.87 41.3233V41.316Z" fill="#1D1E1B"/>
<path d="M167.854 133.199C170.963 133.199 173.483 130.679 173.483 127.57C173.483 124.462 170.963 121.942 167.854 121.942C164.745 121.942 162.225 124.462 162.225 127.57C162.225 130.679 164.745 133.199 167.854 133.199Z" fill="white"/>
<path d="M167.854 133.746C166.633 133.746 165.439 133.383 164.423 132.705C163.408 132.026 162.616 131.062 162.149 129.934C161.681 128.805 161.559 127.563 161.797 126.366C162.036 125.168 162.624 124.067 163.487 123.204C164.351 122.34 165.451 121.752 166.649 121.514C167.847 121.275 169.089 121.398 170.217 121.865C171.346 122.332 172.31 123.124 172.989 124.14C173.667 125.155 174.029 126.349 174.029 127.57C174.024 129.206 173.371 130.774 172.214 131.931C171.057 133.087 169.49 133.74 167.854 133.746ZM167.854 122.489C166.849 122.489 165.866 122.787 165.031 123.345C164.195 123.903 163.544 124.697 163.159 125.626C162.774 126.554 162.674 127.576 162.87 128.562C163.066 129.548 163.55 130.453 164.261 131.164C164.971 131.874 165.877 132.358 166.863 132.554C167.848 132.751 168.87 132.65 169.799 132.265C170.727 131.881 171.521 131.229 172.079 130.394C172.638 129.558 172.936 128.575 172.936 127.57C172.93 126.224 172.393 124.935 171.441 123.983C170.489 123.032 169.2 122.494 167.854 122.489Z" fill="#1D1E1B"/>
<path d="M120.099 89.1035L126.366 100.131C126.656 100.64 127.082 101.058 127.598 101.337C128.113 101.616 128.697 101.745 129.282 101.709C134.568 101.345 149.04 99.1284 156.572 85.2612C156.82 84.7956 156.947 84.2744 156.939 83.7465C156.932 83.2185 156.79 82.7011 156.528 82.2429L148.624 68.2954" fill="#382256"/>
<path d="M129.096 102.264C128.445 102.262 127.807 102.088 127.244 101.761C126.682 101.434 126.215 100.965 125.892 100.401L119.622 89.3735L120.573 88.834L126.843 99.8614C127.08 100.286 127.434 100.634 127.862 100.865C128.29 101.095 128.775 101.199 129.26 101.163C134.892 100.798 148.781 98.4797 156.105 85.0026C156.309 84.6181 156.413 84.1883 156.406 83.753C156.4 83.3177 156.284 82.8911 156.069 82.5127L148.165 68.5654L149.117 68.0259L157.02 81.9732C157.325 82.5136 157.489 83.122 157.497 83.7425C157.506 84.363 157.358 84.9756 157.067 85.5239C149.485 99.4823 135.144 101.874 129.333 102.256L129.096 102.264Z" fill="#1D1E1B"/>
<path d="M121.685 91.8922C121.685 91.8922 147.994 87.8241 150.775 72.0649L148.639 68.2954L120.099 89.1035L121.685 91.8922Z" fill="#050505"/>
<path d="M109.254 90.3395L123.106 65.8895C123.29 65.5602 123.581 65.3032 123.93 65.1604L152.124 53.5535C152.435 53.4254 152.778 53.3939 153.108 53.463C153.438 53.5322 153.739 53.6989 153.972 53.9413C154.206 54.1838 154.362 54.4909 154.419 54.8228C154.476 55.1547 154.432 55.496 154.293 55.8027L144.046 78.3534C143.872 78.7354 143.561 79.0383 143.174 79.2026L111.361 92.709C111.039 92.841 110.684 92.8696 110.345 92.7911C110.006 92.7126 109.699 92.5307 109.468 92.2706C109.237 92.0105 109.092 91.6851 109.053 91.3391C109.015 90.9932 109.085 90.6439 109.254 90.3395Z" fill="#382256"/>
<path d="M110.694 93.4089C110.305 93.4062 109.924 93.302 109.589 93.1066C109.253 92.9112 108.974 92.6316 108.78 92.2951C108.586 91.9587 108.483 91.5773 108.482 91.1889C108.48 90.8004 108.581 90.4183 108.773 90.0806L122.625 65.6307C122.872 65.1964 123.257 64.8575 123.719 64.6684L151.913 53.0612C152.325 52.8921 152.78 52.8509 153.216 52.9429C153.653 53.0348 154.052 53.2558 154.361 53.5771C154.671 53.8984 154.877 54.3052 154.952 54.7449C155.028 55.1847 154.97 55.637 154.785 56.0433L144.542 78.5938C144.309 79.1004 143.895 79.5021 143.382 79.7204L111.572 93.2266C111.295 93.3456 110.996 93.4076 110.694 93.4089ZM109.724 90.6202C109.606 90.8257 109.556 91.0631 109.581 91.2987C109.606 91.5343 109.703 91.7562 109.861 91.9331C110.019 92.11 110.228 92.2329 110.459 92.2845C110.69 92.336 110.932 92.3137 111.149 92.2206L142.963 78.7141C143.225 78.6051 143.434 78.4004 143.55 78.1419L153.797 55.5912C153.892 55.3848 153.923 55.1549 153.885 54.931C153.847 54.707 153.742 54.4996 153.585 54.3359C153.428 54.1722 153.225 54.0598 153.002 54.0132C152.78 53.9666 152.549 53.9881 152.339 54.0748L124.145 65.6818C123.911 65.7779 123.716 65.9499 123.591 66.1702L109.724 90.6202Z" fill="#1D1E1B"/>
<path d="M141.027 77.7337C140.845 77.7336 140.666 77.688 140.506 77.6011C140.345 77.5141 140.21 77.3885 140.11 77.2356C140.011 77.0828 139.952 76.9075 139.937 76.7258C139.923 76.5442 139.954 76.3617 140.029 76.1952L148.53 57.1735C148.588 57.0423 148.672 56.9239 148.777 56.8252C148.881 56.7264 149.004 56.6493 149.138 56.598C149.272 56.5467 149.415 56.5223 149.559 56.5263C149.702 56.5303 149.844 56.5625 149.975 56.6212C150.106 56.6798 150.225 56.7637 150.323 56.8681C150.422 56.9724 150.499 57.0954 150.55 57.2296C150.602 57.3638 150.626 57.5067 150.622 57.6504C150.618 57.794 150.586 57.9354 150.527 58.0665L142.044 77.0993C141.955 77.2925 141.811 77.4556 141.631 77.5683C141.45 77.681 141.24 77.7384 141.027 77.7337Z" fill="white"/>
<path d="M163.264 83.5406C163.243 83.5578 163.219 83.5705 163.192 83.578C163.166 83.5855 163.138 83.5876 163.111 83.5842C163.084 83.5808 163.057 83.572 163.034 83.5582C163.01 83.5445 162.989 83.5261 162.973 83.5041C162.244 82.5308 158.828 77.5474 161.799 73.9093C164.828 70.2019 169.454 77.2413 170.183 78.4516C170.212 78.4971 170.222 78.5521 170.21 78.6047C170.199 78.6573 170.167 78.7032 170.122 78.7323L166.181 81.2512C166.136 81.2792 166.082 81.2888 166.031 81.2779C165.979 81.267 165.934 81.2366 165.904 81.193L164.15 78.5937C164.123 78.5526 164.082 78.5229 164.034 78.5098C163.987 78.4968 163.936 78.5013 163.892 78.5226C163.847 78.5439 163.812 78.5807 163.793 78.6259C163.773 78.6711 163.771 78.7217 163.786 78.7686L164.854 82.0751C164.867 82.1145 164.867 82.1568 164.856 82.1965C164.844 82.2363 164.821 82.2714 164.788 82.2975L163.264 83.5406Z" fill="white"/>
<path d="M163.133 84.1312H163.042C162.942 84.118 162.845 84.0848 162.758 84.0335C162.671 83.9821 162.595 83.9137 162.535 83.8323C161.774 82.8116 158.161 77.522 161.376 73.5668C161.674 73.1531 162.071 72.8209 162.531 72.6006C162.991 72.3802 163.499 72.2787 164.008 72.3055C166.903 72.4914 169.841 76.8368 170.65 78.1673C170.755 78.3347 170.789 78.5368 170.746 78.7295C170.702 78.9221 170.584 79.0895 170.417 79.1953L166.48 81.7143C166.315 81.8212 166.115 81.8591 165.922 81.8195C165.73 81.78 165.561 81.6661 165.452 81.5029L165.054 80.9124L165.379 81.9112C165.425 82.0557 165.427 82.2108 165.384 82.3564C165.341 82.5019 165.256 82.6314 165.138 82.7278L163.611 83.9673C163.475 84.0746 163.307 84.1324 163.133 84.1312ZM163.815 73.3882C163.5 73.3992 163.193 73.4833 162.916 73.6339C162.639 73.7845 162.402 73.9974 162.222 74.2558C159.728 77.3107 162.255 81.5211 163.203 82.8845L164.267 82.0205L163.268 78.9402C163.211 78.7676 163.218 78.58 163.289 78.4124C163.359 78.2448 163.488 78.1086 163.652 78.0288C163.815 77.9491 164.002 77.9314 164.177 77.979C164.353 78.0266 164.505 78.1363 164.606 78.2877L166.174 80.6098L169.542 78.4553C168.044 76.1296 165.751 73.5084 163.939 73.3918L163.815 73.3882Z" fill="black"/>
<path d="M155.101 55.5982L154.084 56.001L161.295 74.2043L162.312 73.8016L155.101 55.5982Z" fill="#1D1E1B"/>
<path d="M113.585 36.7261C113.585 36.7261 94.6285 44.3815 91.3476 69.8994L113.585 36.7261Z" fill="white"/>
<path d="M91.8907 69.9691L90.7971 69.8304C92.5141 56.4955 98.5436 48.0747 103.305 43.3575C108.47 38.2357 113.176 36.2999 113.373 36.2197L113.782 37.2331C113.734 37.2549 109.043 39.187 104.037 44.1594C99.4222 48.7636 93.5603 56.9549 91.8907 69.9691Z" fill="#1D1E1B"/>
<path d="M240.573 277.387L239.538 274.798C239.349 274.324 239.258 273.817 239.271 273.307C239.283 272.797 239.399 272.295 239.611 271.831L259.026 229.788C259.295 229.164 259.754 228.641 260.337 228.293C260.92 227.945 261.598 227.79 262.274 227.849C270.878 228.768 301.543 232.675 308.619 242.358C314.98 251.067 312.705 244.986 311.327 241.742C311.094 241.194 310.995 240.598 311.038 240.004C311.08 239.41 311.263 238.835 311.571 238.326C314.123 234.17 321.83 223.784 336.415 220.7C337.131 220.564 337.873 220.676 338.517 221.018C339.162 221.36 339.67 221.911 339.958 222.581L341.074 224.965C341.373 225.606 341.483 226.319 341.393 227.021C341.302 227.722 341.015 228.383 340.563 228.928L315.231 258.78C314.816 259.272 314.264 259.631 313.646 259.812L244.408 279.402C243.633 279.605 242.81 279.51 242.1 279.137C241.391 278.764 240.846 278.14 240.573 277.387Z" fill="white"/>
<path d="M243.591 280.055C242.824 280.042 242.078 279.8 241.45 279.359C240.822 278.919 240.34 278.3 240.066 277.583L239.027 274.995C238.811 274.452 238.708 273.871 238.723 273.287C238.738 272.703 238.871 272.128 239.115 271.597L258.53 229.551C258.849 228.825 259.387 228.217 260.069 227.813C260.751 227.409 261.543 227.229 262.333 227.298C271.483 228.275 301.896 232.223 309.06 242.029C310.839 244.465 311.783 245.511 312.268 245.963C311.897 244.587 311.409 243.245 310.809 241.953C310.542 241.325 310.427 240.642 310.476 239.961C310.525 239.281 310.736 238.621 311.09 238.038C313.759 233.703 321.56 223.277 336.287 220.175C337.125 220.015 337.992 220.143 338.747 220.541C339.501 220.938 340.098 221.581 340.439 222.362L341.555 224.75C341.9 225.485 342.029 226.303 341.925 227.109C341.821 227.914 341.489 228.673 340.968 229.296L315.632 259.148C315.148 259.724 314.503 260.142 313.78 260.351L244.543 279.942C244.232 280.023 243.912 280.061 243.591 280.055ZM241.08 277.175C241.301 277.804 241.75 278.328 242.339 278.641C242.928 278.955 243.613 279.035 244.259 278.867L313.496 259.276C314.011 259.129 314.47 258.831 314.812 258.419L340.148 228.567C340.53 228.101 340.773 227.538 340.849 226.941C340.925 226.344 340.831 225.737 340.578 225.191L339.462 222.804C339.224 222.247 338.804 221.788 338.271 221.502C337.738 221.216 337.123 221.119 336.528 221.229C322.216 224.254 314.633 234.389 312.034 238.603C311.775 239.039 311.621 239.53 311.586 240.037C311.55 240.543 311.634 241.051 311.83 241.519C313.872 246.324 313.576 246.987 313.022 247.29C312.468 247.592 311.703 247.498 308.177 242.675C301.277 233.229 271.257 229.351 262.216 228.385C261.652 228.335 261.088 228.466 260.604 228.758C260.12 229.05 259.741 229.489 259.522 230.011L240.106 272.06C239.923 272.459 239.822 272.891 239.812 273.33C239.801 273.769 239.88 274.205 240.044 274.612L241.08 277.175Z" fill="black"/>
<path d="M260.947 235.945L240.897 274.882C240.69 275.284 240.587 275.732 240.598 276.184C240.608 276.636 240.732 277.078 240.957 277.47C241.183 277.862 241.503 278.191 241.889 278.428C242.274 278.664 242.713 278.8 243.165 278.823L295.98 281.44L326.601 264.481L345.098 229.54C345.296 229.169 345.373 228.745 345.319 228.328C345.265 227.91 345.083 227.52 344.797 227.211C344.512 226.902 344.137 226.69 343.725 226.604C343.313 226.517 342.885 226.561 342.499 226.73L316.252 238.096C316.252 238.096 311.247 240.801 308.33 238.741L267.432 232.632C266.141 232.435 264.82 232.649 263.656 233.244C262.492 233.838 261.545 234.783 260.947 235.945Z" fill="#382256"/>
<path d="M296.104 282.002H295.947L243.132 279.384C242.588 279.358 242.06 279.195 241.596 278.911C241.131 278.627 240.745 278.231 240.474 277.76C240.202 277.288 240.053 276.756 240.04 276.212C240.028 275.667 240.152 275.129 240.402 274.645L260.451 235.708C261.1 234.449 262.127 233.424 263.389 232.778C264.65 232.131 266.082 231.897 267.484 232.107L308.509 238.235L308.618 238.311C311.221 240.134 315.909 237.655 315.96 237.63L316.004 237.608L342.269 226.241C342.759 226.03 343.302 225.977 343.823 226.087C344.345 226.198 344.819 226.468 345.181 226.859C345.543 227.25 345.774 227.745 345.844 228.273C345.913 228.802 345.817 229.339 345.568 229.81L326.995 264.894L326.853 264.974L296.104 282.002ZM266.492 233.117C265.446 233.118 264.421 233.406 263.529 233.951C262.636 234.495 261.911 235.275 261.432 236.204L241.382 275.141C241.217 275.463 241.135 275.821 241.144 276.182C241.153 276.544 241.253 276.897 241.435 277.21C241.616 277.523 241.874 277.785 242.183 277.973C242.492 278.16 242.844 278.267 243.205 278.283L295.863 280.893L326.208 264.088L344.632 229.292C344.775 229.021 344.831 228.711 344.791 228.407C344.752 228.102 344.618 227.818 344.41 227.592C344.202 227.366 343.928 227.211 343.628 227.147C343.327 227.084 343.014 227.115 342.732 227.236L316.485 238.596C316.066 238.818 311.214 241.315 308.123 239.27L267.349 233.182C267.065 233.138 266.779 233.116 266.492 233.117Z" fill="#1D1E1B"/>
<path d="M294.835 266.315C294.747 266.315 294.661 266.294 294.584 266.253C294.457 266.186 294.362 266.072 294.318 265.936C294.274 265.8 294.286 265.652 294.35 265.524L307.073 241.027C307.104 240.959 307.148 240.899 307.203 240.85C307.258 240.8 307.322 240.762 307.392 240.738C307.462 240.714 307.536 240.705 307.61 240.71C307.684 240.715 307.756 240.736 307.821 240.77C307.887 240.804 307.945 240.851 307.992 240.908C308.039 240.965 308.074 241.031 308.095 241.102C308.115 241.174 308.121 241.248 308.112 241.321C308.103 241.395 308.08 241.466 308.042 241.53L295.324 266.027C295.276 266.115 295.206 266.188 295.12 266.239C295.034 266.29 294.935 266.316 294.835 266.315Z" fill="black"/>
<path d="M301.626 266.446C301.544 266.448 301.463 266.429 301.389 266.392C301.259 266.329 301.159 266.217 301.111 266.08C301.063 265.943 301.072 265.793 301.134 265.663L313.146 240.721C313.209 240.59 313.321 240.489 313.458 240.441C313.595 240.392 313.746 240.401 313.877 240.464C314.008 240.526 314.109 240.639 314.157 240.776C314.205 240.913 314.197 241.063 314.134 241.194L302.104 266.136C302.061 266.227 301.994 266.305 301.909 266.359C301.825 266.414 301.727 266.444 301.626 266.446Z" fill="black"/>
<path d="M252.158 276.267L293.147 283.802L347.329 276.267C347.329 276.267 344.971 280.977 347.799 284.746L292.203 296.995L250.281 286.631C250.281 286.631 247.448 280.055 252.158 276.267Z" fill="white"/>
<path d="M292.203 297.553C292.16 297.558 292.115 297.558 292.072 297.553L250.149 287.185C250.069 287.164 249.994 287.125 249.931 287.07C249.868 287.016 249.818 286.948 249.785 286.872C249.756 286.802 246.85 279.847 251.83 275.862C251.892 275.814 251.963 275.779 252.039 275.76C252.115 275.741 252.194 275.739 252.271 275.753L293.173 283.277L347.267 275.749C347.366 275.737 347.466 275.751 347.557 275.79C347.648 275.83 347.727 275.894 347.785 275.974C347.843 276.055 347.878 276.15 347.886 276.249C347.895 276.348 347.876 276.448 347.832 276.537C347.81 276.581 345.667 280.999 348.252 284.444C348.306 284.517 348.341 284.603 348.354 284.693C348.367 284.784 348.356 284.876 348.324 284.961C348.293 285.047 348.241 285.124 348.172 285.184C348.103 285.244 348.02 285.285 347.931 285.304L292.338 297.556C292.293 297.56 292.248 297.558 292.203 297.553ZM250.678 286.168L292.211 296.434L346.892 284.385C345.215 281.546 345.93 278.443 346.458 276.938L293.217 284.345C293.159 284.354 293.1 284.354 293.042 284.345L252.304 276.854C248.669 279.971 250.237 284.983 250.678 286.168Z" fill="black"/>
<path d="M292.203 298.646C292.069 298.647 291.936 298.631 291.806 298.599L249.883 288.235C249.457 288.128 249.09 287.857 248.863 287.48C247.244 284.783 246.756 282.213 247.405 279.843C248.327 276.478 251.254 274.871 251.378 274.805C251.707 274.628 252.086 274.567 252.453 274.634L295.382 278.279L348.94 272.738C349.367 272.678 349.801 272.787 350.148 273.042C350.496 273.297 350.731 273.677 350.802 274.102C350.874 274.527 350.777 274.963 350.532 275.318C350.287 275.672 349.914 275.917 349.491 276.001L294.128 285.326C293.94 285.359 293.747 285.359 293.559 285.326L252.523 278.002C251.596 278.681 250.916 279.643 250.587 280.744C250.222 282.049 250.503 283.539 251.367 285.184L292.236 295.296L349.341 283.128C349.555 283.079 349.777 283.073 349.993 283.11C350.21 283.147 350.416 283.227 350.601 283.346C350.786 283.464 350.946 283.617 351.071 283.798C351.196 283.978 351.284 284.182 351.33 284.396C351.376 284.611 351.378 284.833 351.337 285.048C351.297 285.264 351.213 285.469 351.092 285.653C350.972 285.836 350.815 285.993 350.633 286.115C350.451 286.238 350.246 286.322 350.031 286.365L292.553 298.613C292.438 298.637 292.321 298.648 292.203 298.646Z" fill="#07ACEE"/>
<path d="M292.203 299.197C292.025 299.196 291.848 299.175 291.675 299.135L249.752 288.767C249.471 288.698 249.206 288.573 248.973 288.401C248.739 288.229 248.542 288.013 248.392 287.765C246.694 284.936 246.187 282.224 246.88 279.701C247.864 276.117 250.988 274.397 251.119 274.328C251.55 274.097 252.044 274.015 252.526 274.094L295.378 277.74L348.89 272.206C349.453 272.111 350.03 272.242 350.497 272.571C350.859 272.819 351.138 273.171 351.297 273.58C351.457 273.989 351.49 274.436 351.391 274.864C351.293 275.292 351.068 275.68 350.746 275.978C350.424 276.277 350.02 276.471 349.586 276.537L294.212 285.887C293.964 285.933 293.709 285.933 293.461 285.887L252.665 278.596C251.925 279.188 251.383 279.992 251.112 280.9C250.817 281.994 251.024 283.295 251.735 284.728L292.236 294.735L349.225 282.606C349.508 282.546 349.8 282.542 350.084 282.595C350.369 282.647 350.64 282.755 350.883 282.913C351.126 283.07 351.335 283.274 351.499 283.512C351.663 283.75 351.778 284.019 351.839 284.301C351.899 284.584 351.903 284.877 351.85 285.161C351.798 285.446 351.69 285.717 351.533 285.96C351.375 286.202 351.171 286.412 350.933 286.576C350.695 286.74 350.427 286.855 350.144 286.915L292.662 299.164C292.511 299.191 292.357 299.202 292.203 299.197ZM252.158 275.159C251.975 275.158 251.795 275.203 251.633 275.29C249.849 276.333 248.525 278.011 247.926 279.989C247.317 282.213 247.784 284.637 249.322 287.2C249.475 287.452 249.721 287.635 250.007 287.706L291.93 298.07C292.094 298.107 292.265 298.107 292.429 298.07L349.907 285.818C350.05 285.79 350.186 285.733 350.306 285.651C350.427 285.569 350.53 285.464 350.61 285.342C350.689 285.219 350.743 285.082 350.769 284.939C350.795 284.795 350.792 284.648 350.76 284.506C350.731 284.362 350.674 284.226 350.592 284.105C350.51 283.984 350.405 283.881 350.282 283.801C350.159 283.722 350.022 283.668 349.878 283.642C349.734 283.617 349.586 283.62 349.444 283.653L292.338 295.821C292.258 295.839 292.174 295.839 292.094 295.821L251.225 285.72C251.148 285.702 251.076 285.668 251.013 285.62C250.95 285.572 250.898 285.512 250.86 285.442C249.931 283.674 249.654 282.049 250.037 280.609C250.398 279.39 251.148 278.322 252.173 277.569C252.233 277.523 252.302 277.491 252.375 277.473C252.449 277.456 252.525 277.453 252.599 277.466L293.654 284.794C293.775 284.812 293.898 284.812 294.019 284.794L349.382 275.469C349.671 275.419 349.93 275.256 350.1 275.016C350.27 274.777 350.338 274.479 350.289 274.189C350.267 274.045 350.216 273.907 350.139 273.783C350.062 273.659 349.962 273.551 349.843 273.466C349.724 273.382 349.589 273.322 349.447 273.29C349.304 273.258 349.157 273.255 349.013 273.281L295.426 278.826C295.392 278.83 295.358 278.83 295.324 278.826L252.395 275.181H252.348C252.285 275.168 252.222 275.161 252.158 275.159Z" fill="#1D1D1B"/>
<path d="M250.572 267.38L313.638 261.912L348.248 263.275C348.68 263.291 349.102 263.412 349.477 263.628C349.852 263.844 350.168 264.148 350.399 264.515C351.336 266.02 352.258 268.834 349.444 272.276L296.221 281.229L251.32 275.447C251.165 275.43 251.019 275.366 250.902 275.265C250.784 275.163 250.7 275.028 250.66 274.878C250.621 274.727 250.628 274.569 250.681 274.422C250.733 274.276 250.829 274.149 250.955 274.058C252.289 273.099 253.142 271.419 250.131 268.743C250.011 268.645 249.924 268.513 249.88 268.365C249.836 268.216 249.839 268.058 249.886 267.911C249.934 267.764 250.025 267.634 250.147 267.539C250.27 267.444 250.418 267.389 250.572 267.38Z" fill="#4BD657"/>
<path d="M296.22 281.764L251.239 275.976C250.977 275.942 250.731 275.83 250.533 275.655C250.335 275.479 250.194 275.248 250.13 274.991C250.065 274.734 250.079 274.464 250.171 274.216C250.262 273.967 250.426 273.752 250.642 273.599C251.272 273.143 251.608 272.64 251.637 272.093C251.677 271.273 251.032 270.252 249.77 269.14C249.577 268.968 249.439 268.743 249.374 268.492C249.309 268.242 249.32 267.978 249.406 267.733C249.483 267.488 249.633 267.271 249.835 267.111C250.037 266.951 250.283 266.855 250.54 266.837L313.642 261.35H313.678L348.284 262.717C348.806 262.734 349.316 262.878 349.768 263.138C350.221 263.398 350.603 263.766 350.88 264.208C351.831 265.732 352.961 268.849 349.885 272.593L349.757 272.753L296.22 281.764ZM313.653 262.444L250.62 267.912C250.576 267.914 250.534 267.93 250.5 267.957C250.465 267.983 250.44 268.02 250.427 268.061C250.413 268.104 250.413 268.15 250.425 268.194C250.437 268.237 250.462 268.276 250.496 268.306C252.038 269.665 252.789 270.952 252.727 272.133C252.683 273.03 252.195 273.814 251.269 274.474C251.231 274.499 251.201 274.535 251.185 274.578C251.169 274.62 251.166 274.666 251.178 274.711C251.187 274.755 251.211 274.794 251.245 274.824C251.279 274.853 251.322 274.871 251.367 274.875L296.187 280.645L349.141 271.743C351.503 268.743 350.88 266.304 349.928 264.773C349.745 264.483 349.493 264.242 349.195 264.071C348.897 263.9 348.562 263.804 348.219 263.793L313.653 262.444Z" fill="black"/>
<path d="M248.626 267.551L296.381 273.321C296.381 273.321 302.009 277.627 295.721 281.268L248.637 275.071C248.637 275.071 251.921 272.731 248.626 267.551Z" fill="white"/>
<path d="M295.71 281.815H295.637L248.553 275.618C248.444 275.604 248.341 275.558 248.259 275.485C248.177 275.412 248.118 275.315 248.092 275.209C248.065 275.102 248.071 274.99 248.109 274.887C248.147 274.783 248.215 274.694 248.305 274.63C248.422 274.55 251.123 272.483 248.163 267.832C248.108 267.744 248.078 267.643 248.078 267.539C248.078 267.436 248.108 267.334 248.163 267.247C248.218 267.16 248.297 267.09 248.391 267.045C248.484 267.001 248.589 266.984 248.691 266.997L296.446 272.767C296.543 272.781 296.634 272.818 296.712 272.877C296.825 272.961 299.403 274.966 299.239 277.554C299.137 279.14 298.043 280.543 295.994 281.731C295.909 281.785 295.811 281.814 295.71 281.815ZM249.73 274.681L295.593 280.703C297.205 279.734 298.061 278.655 298.145 277.495C298.258 275.746 296.607 274.215 296.158 273.85L249.657 268.229C251.331 271.455 250.499 273.595 249.73 274.681Z" fill="black"/>
<path d="M299.68 273.209C299.556 273.204 299.437 273.158 299.343 273.077C299.249 272.996 299.185 272.886 299.162 272.764C299.15 272.693 299.152 272.621 299.167 272.551C299.183 272.481 299.213 272.414 299.255 272.356C299.296 272.298 299.349 272.248 299.411 272.211C299.472 272.173 299.54 272.148 299.611 272.137L345.966 264.522C346.111 264.498 346.259 264.534 346.378 264.62C346.497 264.706 346.577 264.836 346.6 264.981C346.623 265.126 346.588 265.274 346.502 265.393C346.416 265.512 346.286 265.592 346.141 265.615L299.789 273.23L299.68 273.209Z" fill="#1D1E1B"/>
<path d="M307.627 287.776C307.482 287.789 307.338 287.745 307.225 287.652C307.113 287.559 307.043 287.425 307.029 287.28C307.016 287.135 307.06 286.991 307.153 286.878C307.246 286.766 307.38 286.696 307.525 286.682L345.933 279.391C346.076 279.364 346.223 279.395 346.343 279.477C346.463 279.558 346.546 279.684 346.573 279.827C346.6 279.97 346.569 280.117 346.488 280.237C346.406 280.357 346.28 280.44 346.137 280.467L307.729 287.758C307.696 287.767 307.662 287.774 307.627 287.776Z" fill="#1D1E1B"/>
<path d="M292.965 295.69C292.847 295.689 292.732 295.651 292.637 295.58C292.543 295.509 292.474 295.41 292.44 295.296C290.636 289.121 293.169 285.413 293.278 285.257C293.362 285.138 293.49 285.057 293.633 285.032C293.776 285.007 293.923 285.04 294.042 285.124C294.161 285.207 294.242 285.335 294.267 285.478C294.292 285.621 294.259 285.768 294.175 285.887C294.15 285.92 291.842 289.351 293.49 295.001C293.514 295.083 293.519 295.169 293.505 295.253C293.49 295.337 293.455 295.416 293.404 295.485C293.353 295.553 293.287 295.609 293.211 295.647C293.135 295.685 293.05 295.705 292.965 295.705V295.69Z" fill="#1D1E1B"/>
<path d="M301.142 276.045C300.852 276.067 300.564 275.974 300.343 275.785C300.122 275.596 299.985 275.327 299.962 275.037C299.94 274.747 300.033 274.459 300.222 274.238C300.411 274.017 300.68 273.88 300.97 273.857L333.415 268.754C333.701 268.708 333.994 268.779 334.229 268.949C334.464 269.12 334.621 269.377 334.667 269.663C334.712 269.95 334.642 270.243 334.471 270.478C334.301 270.712 334.044 270.87 333.757 270.916L301.313 276.019L301.142 276.045Z" fill="white"/>
<path d="M250.835 262.921C250.645 262.921 250.457 262.872 250.292 262.778C250.127 262.683 249.989 262.548 249.892 262.384C249.795 262.22 249.743 262.034 249.74 261.844C249.737 261.653 249.784 261.465 249.876 261.299L263 237.604C263.14 237.35 263.376 237.162 263.655 237.082C263.934 237.002 264.233 237.036 264.487 237.177C264.741 237.318 264.928 237.554 265.008 237.833C265.088 238.111 265.054 238.411 264.913 238.665L251.79 262.36C251.695 262.53 251.557 262.672 251.389 262.77C251.221 262.869 251.03 262.921 250.835 262.921Z" fill="white"/>
<path d="M148.158 278.761L218.682 269.017C218.9 268.989 219.101 268.882 219.246 268.717C219.392 268.552 219.472 268.34 219.472 268.12C219.472 267.9 219.392 267.687 219.246 267.522C219.101 267.357 218.9 267.251 218.682 267.223L147.998 257.923C147.936 257.916 147.873 257.916 147.812 257.923L111.722 260.701C111.521 260.716 111.331 260.798 111.182 260.933C111.033 261.069 110.933 261.25 110.899 261.449C110.864 261.647 110.897 261.851 110.992 262.029C111.087 262.207 111.239 262.347 111.423 262.429L147.677 278.699C147.828 278.764 147.995 278.786 148.158 278.761Z" fill="#4BD657"/>
<path d="M148.034 279.326C147.829 279.325 147.627 279.282 147.44 279.198L111.186 262.921C110.895 262.786 110.657 262.559 110.509 262.274C110.36 261.99 110.31 261.664 110.365 261.348C110.42 261.032 110.578 260.744 110.814 260.526C111.05 260.309 111.351 260.176 111.671 260.147L147.761 257.373C147.861 257.362 147.962 257.362 148.063 257.373L218.744 266.673C219.087 266.727 219.399 266.902 219.624 267.166C219.849 267.43 219.973 267.766 219.973 268.113C219.973 268.459 219.849 268.795 219.624 269.059C219.399 269.323 219.087 269.498 218.744 269.552L148.242 279.304C148.173 279.315 148.104 279.322 148.034 279.326ZM147.877 258.47H147.848L111.758 261.248C111.677 261.25 111.6 261.281 111.54 261.335C111.48 261.389 111.441 261.463 111.43 261.543C111.417 261.622 111.431 261.703 111.468 261.773C111.506 261.844 111.565 261.9 111.638 261.933L147.892 278.199C147.953 278.227 148.022 278.237 148.089 278.229L218.598 268.477C218.679 268.459 218.751 268.414 218.802 268.349C218.854 268.284 218.882 268.204 218.882 268.122C218.882 268.039 218.854 267.959 218.802 267.894C218.751 267.83 218.679 267.785 218.598 267.766L147.917 258.463L147.877 258.47Z" fill="black"/>
<path d="M126.522 257.763L127.328 257.916L177.288 267.431C177.472 267.464 177.638 267.563 177.755 267.708C177.872 267.853 177.934 268.036 177.928 268.222C177.922 268.409 177.85 268.587 177.724 268.725C177.598 268.863 177.426 268.951 177.241 268.973L134.797 274.317" fill="#382256"/>
<path d="M134.867 274.86L134.728 273.767L177.172 268.422C177.226 268.413 177.275 268.384 177.31 268.342C177.345 268.3 177.364 268.247 177.364 268.193C177.364 268.138 177.345 268.085 177.31 268.043C177.275 268.001 177.226 267.973 177.172 267.963L126.402 258.292L126.61 257.216L177.405 266.895C177.716 266.953 177.996 267.121 178.194 267.368C178.393 267.615 178.496 267.925 178.486 268.241C178.476 268.558 178.353 268.86 178.139 269.094C177.926 269.328 177.636 269.477 177.321 269.516L134.867 274.86Z" fill="#1D1E1B"/>
<path d="M54.9588 196.71L117.332 203.206C118.215 203.297 119.057 203.627 119.767 204.16C120.477 204.693 121.029 205.409 121.364 206.231L148.424 272.578C148.758 273.396 148.864 274.289 148.733 275.162C148.601 276.036 148.236 276.857 147.676 277.54C147.115 278.223 146.381 278.742 145.55 279.043C144.72 279.343 143.823 279.413 142.956 279.245L77.5459 266.683C76.7345 266.531 75.9748 266.177 75.3374 265.652C74.7 265.128 74.2056 264.45 73.9004 263.683L49.8771 203.41C49.5618 202.624 49.4553 201.77 49.5681 200.93C49.6809 200.091 50.0092 199.296 50.521 198.621C51.0327 197.946 51.7103 197.415 52.488 197.08C53.2658 196.746 54.117 196.618 54.9588 196.71Z" fill="#4BD657"/>
<path d="M143.918 279.88C143.561 279.88 143.205 279.846 142.854 279.778L77.4475 267.216C76.5481 267.045 75.7066 266.65 75.001 266.067C74.2955 265.483 73.7489 264.731 73.412 263.88L49.3887 203.603C49.0407 202.732 48.9235 201.785 49.0487 200.855C49.174 199.926 49.5375 199.044 50.1037 198.296C50.67 197.548 51.4198 196.959 52.2807 196.585C53.1415 196.212 54.0842 196.068 55.0172 196.166L117.387 202.662C118.369 202.764 119.304 203.13 120.094 203.722C120.884 204.314 121.498 205.11 121.871 206.023L148.931 272.37C149.264 273.196 149.39 274.09 149.299 274.975C149.208 275.86 148.902 276.71 148.408 277.45C147.914 278.191 147.247 278.799 146.465 279.223C145.682 279.647 144.808 279.874 143.918 279.883V279.88ZM54.4412 197.227C53.732 197.233 53.035 197.412 52.4101 197.747C51.7852 198.082 51.2511 198.564 50.854 199.152C50.4569 199.74 50.2085 200.415 50.1304 201.12C50.0524 201.825 50.1469 202.538 50.4058 203.198L74.4291 263.475C74.697 264.156 75.1332 264.757 75.6968 265.223C76.2604 265.689 76.9329 266.005 77.6516 266.14L143.062 278.702C143.832 278.85 144.628 278.788 145.366 278.521C146.104 278.254 146.756 277.793 147.253 277.186C147.75 276.579 148.075 275.849 148.191 275.074C148.308 274.298 148.214 273.505 147.917 272.779L120.857 206.432C120.56 205.701 120.07 205.064 119.438 204.59C118.807 204.116 118.059 203.823 117.274 203.742L54.9188 197.253C54.7475 197.238 54.5943 197.227 54.4412 197.227Z" fill="black"/>
<path d="M154.049 212.137C154.049 212.137 150.192 209.435 138.1 212.002L154.049 212.137Z" fill="#07ACEE"/>
<path d="M154.045 212.683C153.935 212.684 153.827 212.651 153.735 212.589C153.677 212.549 149.795 210.081 138.213 212.538C138.071 212.568 137.923 212.54 137.801 212.461C137.68 212.381 137.594 212.257 137.564 212.115C137.534 211.973 137.562 211.824 137.641 211.703C137.721 211.581 137.845 211.496 137.987 211.466C150.17 208.881 154.195 211.575 154.362 211.688C154.481 211.772 154.561 211.899 154.586 212.042C154.61 212.185 154.577 212.332 154.494 212.45C154.444 212.523 154.377 212.582 154.299 212.623C154.22 212.663 154.133 212.684 154.045 212.683Z" fill="#1D1D1B"/>
<path d="M87.3267 212.37C79.3432 200.209 74.7464 186.852 73.6564 172.635C72.7888 161.283 74.1486 149.377 77.6993 137.253C83.7397 116.623 94.1911 102.293 94.2968 102.151L95.1754 102.8C95.0733 102.942 84.7202 117.141 78.7381 137.592C73.2262 156.431 70.4047 184.589 88.2418 211.769L87.3267 212.37Z" fill="#1D1E1B"/>
<path d="M70.1277 211.072C60.8099 198.474 58.309 184.096 57.8534 174.228C57.3576 163.558 59.0893 155.742 59.1075 155.666L60.172 155.906C60.172 155.983 58.4549 163.678 58.947 174.21C59.399 183.903 61.8634 198.055 71.0061 210.42L70.1277 211.072Z" fill="#1D1E1B"/>
<path d="M92.4048 243.458C91.761 243.423 91.1531 243.15 90.6987 242.693C89.9785 241.975 89.427 241.106 89.084 240.149C88.741 239.192 88.6152 238.171 88.7156 237.159C88.865 236.146 89.339 235.449 90.0498 235.194C91.4132 234.706 93.1229 236.116 93.9468 238.406C94.767 240.695 94.3442 242.871 92.9808 243.36C92.7958 243.425 92.601 243.459 92.4048 243.458ZM90.6221 236.189C90.5527 236.189 90.4837 236.2 90.4179 236.222C90.1117 236.335 89.8821 236.732 89.7946 237.316C89.723 238.149 89.8321 238.988 90.1146 239.775C90.3971 240.562 90.8464 241.279 91.4315 241.876C91.8726 242.274 92.3026 242.438 92.6125 242.328C93.2723 242.091 93.5421 240.506 92.9151 238.77C92.3464 237.192 91.3038 236.189 90.6221 236.189Z" fill="#1D1E1B"/>
<path d="M132.723 245.423C132.508 245.424 132.297 245.36 132.118 245.242C131.938 245.123 131.797 244.954 131.713 244.756L117.132 210.124C117.019 209.857 117.017 209.556 117.127 209.287C117.236 209.019 117.448 208.804 117.715 208.692C117.982 208.579 118.283 208.577 118.552 208.687C118.821 208.796 119.035 209.008 119.148 209.275L133.729 243.906C133.785 244.039 133.814 244.181 133.815 244.325C133.816 244.468 133.789 244.611 133.734 244.744C133.68 244.877 133.6 244.998 133.5 245.1C133.399 245.202 133.278 245.283 133.146 245.339C133.012 245.395 132.868 245.423 132.723 245.423Z" fill="white"/>
<path d="M136.733 258.911C136.497 258.912 136.267 258.835 136.078 258.694C135.889 258.553 135.75 258.354 135.683 258.128L133.861 251.93C133.82 251.793 133.807 251.648 133.823 251.505C133.838 251.362 133.881 251.224 133.95 251.098C134.019 250.972 134.112 250.86 134.224 250.77C134.336 250.68 134.465 250.613 134.602 250.573C134.74 250.532 134.885 250.519 135.028 250.535C135.17 250.55 135.309 250.593 135.435 250.662C135.561 250.731 135.672 250.824 135.763 250.936C135.853 251.048 135.92 251.177 135.96 251.314L137.783 257.512C137.865 257.788 137.834 258.086 137.698 258.34C137.561 258.594 137.33 258.783 137.054 258.868C136.95 258.897 136.842 258.912 136.733 258.911Z" fill="white"/>
<defs>
<filter id="filter0_d_14053_50295" x="-4.01975" y="107.785" width="38.6843" height="38.6839" filterUnits="userSpaceOnUse" color-interpolation-filters="sRGB">
<feFlood flood-opacity="0" result="BackgroundImageFix"/>
<feColorMatrix in="SourceAlpha" type="matrix" values="0 0 0 0 0 0 0 0 0 0 0 0 0 0 0 0 0 0 127 0" result="hardAlpha"/>
<feOffset dy="2.03704"/>
<feGaussianBlur stdDeviation="5.09261"/>
<feComposite in2="hardAlpha" operator="out"/>
<feColorMatrix type="matrix" values="0 0 0 0 0 0 0 0 0 0 0 0 0 0 0 0 0 0 0.05 0"/>
<feBlend mode="normal" in2="BackgroundImageFix" result="effect1_dropShadow_14053_50295"/>
<feBlend mode="normal" in="SourceGraphic" in2="effect1_dropShadow_14053_50295" result="shape"/>
</filter>
<filter id="filter1_d_14053_50295" x="370.649" y="165.21" width="38.6887" height="38.6883" filterUnits="userSpaceOnUse" color-interpolation-filters="sRGB">
<feFlood flood-opacity="0" result="BackgroundImageFix"/>
<feColorMatrix in="SourceAlpha" type="matrix" values="0 0 0 0 0 0 0 0 0 0 0 0 0 0 0 0 0 0 127 0" result="hardAlpha"/>
<feOffset dy="2.03704"/>
<feGaussianBlur stdDeviation="5.09261"/>
<feComposite in2="hardAlpha" operator="out"/>
<feColorMatrix type="matrix" values="0 0 0 0 0 0 0 0 0 0 0 0 0 0 0 0 0 0 0.05 0"/>
<feBlend mode="normal" in2="BackgroundImageFix" result="effect1_dropShadow_14053_50295"/>
<feBlend mode="normal" in="SourceGraphic" in2="effect1_dropShadow_14053_50295" result="shape"/>
</filter>
<linearGradient id="paint0_linear_14053_50295" x1="20.4544" y1="112.038" x2="392.052" y2="200.547" gradientUnits="userSpaceOnUse">
<stop stop-color="#CDD5E2"/>
<stop offset="1" stop-color="#CDD5E2" stop-opacity="0"/>
</linearGradient>
<linearGradient id="paint1_linear_14053_50295" x1="391.41" y1="195.437" x2="353.85" y2="294.044" gradientUnits="userSpaceOnUse">
<stop stop-color="#CDD5E2"/>
<stop offset="1" stop-color="#CDD5E2" stop-opacity="0"/>
</linearGradient>
<linearGradient id="paint2_linear_14053_50295" x1="196.502" y1="23.2607" x2="196.502" y2="365.006" gradientUnits="userSpaceOnUse">
<stop stop-color="#CDD5E2"/>
<stop offset="1" stop-color="#CDD5E2" stop-opacity="0"/>
</linearGradient>
<linearGradient id="paint3_linear_14053_50295" x1="196.505" y1="57.4336" x2="196.505" y2="330.83" gradientUnits="userSpaceOnUse">
<stop stop-color="#CDD5E2"/>
<stop offset="1" stop-color="#CDD5E2" stop-opacity="0"/>
</linearGradient>
</defs>
</svg>
