<svg width="406" height="302" viewBox="0 0 406 302" fill="none" xmlns="http://www.w3.org/2000/svg">
<mask id="mask0_14058_101173" style="mask-type:alpha" maskUnits="userSpaceOnUse" x="0" y="0" width="406" height="302">
<rect width="405.823" height="301.875" fill="#D9D9D9"/>
</mask>
<g mask="url(#mask0_14058_101173)">
<g opacity="0.5">
<mask id="path-2-inside-1_14058_101173" fill="white">
<path d="M389.979 202.565C391.995 156.308 377.371 110.86 348.759 74.4588C320.146 38.0574 279.439 13.1119 234.015 4.14415C188.592 -4.82363 141.458 2.77982 101.159 25.5762C60.859 48.3727 30.0607 84.8533 14.3462 128.405L15.1858 128.708C30.8279 85.357 61.4843 49.0446 101.598 26.3532C141.712 3.66186 188.628 -3.90654 233.842 5.0199C279.057 13.9463 319.576 38.7768 348.057 75.0104C376.537 111.244 391.094 156.483 389.087 202.526L389.979 202.565Z"/>
</mask>
<path d="M389.979 202.565C391.995 156.308 377.371 110.86 348.759 74.4588C320.146 38.0574 279.439 13.1119 234.015 4.14415C188.592 -4.82363 141.458 2.77982 101.159 25.5762C60.859 48.3727 30.0607 84.8533 14.3462 128.405L15.1858 128.708C30.8279 85.357 61.4843 49.0446 101.598 26.3532C141.712 3.66186 188.628 -3.90654 233.842 5.0199C279.057 13.9463 319.576 38.7768 348.057 75.0104C376.537 111.244 391.094 156.483 389.087 202.526L389.979 202.565Z" stroke="url(#paint0_linear_14058_101173)" stroke-width="2.84788" stroke-dasharray="4.27 4.27" mask="url(#path-2-inside-1_14058_101173)"/>
</g>
<g opacity="0.5">
<mask id="path-3-inside-2_14058_101173" fill="white">
<path d="M14.6034 260.572C30.4882 304.063 61.4291 340.422 101.818 363.061C142.206 385.699 189.369 393.118 234.757 383.973C280.145 374.827 320.755 349.723 349.224 313.21C377.694 276.697 392.14 231.192 389.943 184.943L389.051 184.986C391.238 231.021 376.859 276.316 348.52 312.661C320.182 349.006 279.76 373.994 234.581 383.098C189.402 392.201 142.456 384.816 102.254 362.282C62.0517 339.748 31.2534 303.556 15.4418 260.266L14.6034 260.572Z"/>
</mask>
<path d="M14.6034 260.572C30.4882 304.063 61.4291 340.422 101.818 363.061C142.206 385.699 189.369 393.118 234.757 383.973C280.145 374.827 320.755 349.723 349.224 313.21C377.694 276.697 392.14 231.192 389.943 184.943L389.051 184.986C391.238 231.021 376.859 276.316 348.52 312.661C320.182 349.006 279.76 373.994 234.581 383.098C189.402 392.201 142.456 384.816 102.254 362.282C62.0517 339.748 31.2534 303.556 15.4418 260.266L14.6034 260.572Z" stroke="url(#paint1_linear_14058_101173)" stroke-width="2.84788" stroke-dasharray="4.27 4.27" mask="url(#path-3-inside-2_14058_101173)"/>
</g>
<circle opacity="0.08" cx="196.503" cy="194.133" r="170.873" fill="url(#paint2_linear_14058_101173)"/>
<circle opacity="0.1" cx="196.505" cy="194.132" r="136.698" fill="url(#paint3_linear_14058_101173)"/>
<circle cx="196.504" cy="194.134" r="91.1321" fill="white"/>
<g filter="url(#filter0_d_14058_101173)">
<circle cx="15.3224" cy="125.09" r="7.11969" transform="rotate(-2.50406 15.3224 125.09)" fill="#0170FF"/>
<circle cx="15.3224" cy="125.09" r="8.13822" transform="rotate(-2.50406 15.3224 125.09)" stroke="white" stroke-width="2.03704"/>
</g>
<g filter="url(#filter1_d_14058_101173)">
<circle cx="389.994" cy="182.517" r="7.11969" transform="rotate(-15.7345 389.994 182.517)" fill="#0170FF"/>
<circle cx="389.994" cy="182.517" r="8.13822" transform="rotate(-15.7345 389.994 182.517)" stroke="white" stroke-width="2.03704"/>
</g>
</g>
<path d="M276.796 233.331C276.796 233.331 292.976 224.365 298.832 224.365C304.688 224.365 291.935 244.366 291.935 244.366L285.131 242.791L276.796 233.331Z" fill="#FFCDB2"/>
<path d="M291.946 244.884C291.907 244.889 291.867 244.889 291.829 244.884L285.028 243.308C284.922 243.284 284.827 243.228 284.756 243.146L276.407 233.686C276.356 233.628 276.318 233.56 276.297 233.485C276.277 233.411 276.273 233.333 276.286 233.257C276.299 233.181 276.329 233.109 276.374 233.046C276.419 232.983 276.477 232.931 276.544 232.893C277.21 232.524 292.911 223.861 298.832 223.861C299.183 223.834 299.534 223.909 299.844 224.075C300.154 224.241 300.409 224.492 300.581 224.799C302.581 228.448 293.432 243.011 292.38 244.66C292.331 244.73 292.267 244.787 292.191 244.826C292.115 244.865 292.031 244.885 291.946 244.884ZM285.421 242.325L291.704 243.78C295.536 237.711 300.94 227.572 299.674 225.286C299.574 225.096 299.384 224.882 298.832 224.882C293.784 224.882 280.517 231.903 277.614 233.476L285.421 242.325Z" fill="#1D1D1B"/>
<path d="M147.802 136.526C147.802 136.526 144.099 150.666 134.532 145.779C124.966 140.892 109.523 134.23 100.853 148.193C92.1837 162.156 87.6247 172.25 76.3169 169.871C65.009 167.491 44.6244 199.263 73.3063 214.357C120.31 239.094 172.525 155.335 172.525 155.335L164.97 145.806L147.802 136.526Z" fill="#382256"/>
<path d="M85.6768 218.478C129.015 225.127 172.526 155.335 172.526 155.335L164.97 145.806L147.803 136.526C147.803 136.526 145.458 145.462 139.682 146.665C144.047 153.735 145.351 162.622 130.808 168.153C109.11 176.406 91.798 206.605 85.6768 218.478Z" fill="#050505"/>
<path d="M147.803 136.527L164.97 145.807L172.526 155.335C172.526 155.335 129.574 224.241 86.5079 218.599C81.8898 217.984 77.419 216.547 73.3066 214.357C44.9904 199.456 64.4887 168.302 75.8759 169.795C76.0242 169.816 76.1724 169.84 76.3172 169.871C76.7586 169.964 77.1933 170.04 77.614 170.095C87.9873 171.454 92.5221 161.605 100.854 148.193C105.447 140.792 111.944 139.192 118.462 140.044C124.239 140.803 130.036 143.493 134.533 145.779C135.454 146.265 136.451 146.59 137.481 146.741C144.868 147.71 147.803 136.527 147.803 136.527ZM147.924 135.602C147.757 135.582 147.588 135.606 147.434 135.671C147.304 135.728 147.189 135.813 147.097 135.92C147.005 136.028 146.938 136.155 146.903 136.292C146.865 136.43 144.075 146.665 137.592 145.817C136.666 145.679 135.77 145.385 134.943 144.948C130.115 142.496 124.411 139.885 118.573 139.12C110.479 138.058 104.247 140.944 100.05 147.7C99.0952 149.238 98.1951 150.721 97.3226 152.155C90.691 163.081 86.3112 170.295 77.7243 169.171C77.3277 169.116 76.9138 169.047 76.4966 168.957C76.331 168.922 76.1517 168.895 75.9862 168.871C72.9859 168.478 69.5167 170.005 66.2268 173.175C62.8766 176.478 60.3897 180.554 58.9848 185.045C57.2605 190.528 57.3087 196.014 59.1537 200.908C61.3573 206.753 65.9681 211.557 72.8584 215.185C77.0704 217.421 81.6467 218.89 86.3733 219.523C96.3983 220.837 107.227 218.275 118.559 211.909C127.556 206.853 136.895 199.391 146.32 189.735C162.325 173.333 173.195 156.004 173.305 155.832C173.406 155.668 173.454 155.476 173.443 155.284C173.432 155.092 173.362 154.907 173.243 154.756L165.701 145.22C165.622 145.121 165.523 145.039 165.411 144.979L148.244 135.699C148.144 135.646 148.036 135.611 147.924 135.595V135.602Z" fill="black"/>
<path d="M177.288 166.601C177.288 166.601 130.119 160.394 96.3744 215.916C62.6301 271.438 75.9658 285.922 95.5916 287.301C115.217 288.681 116 288.336 116 288.336L277.828 287.991L298.833 257.989L277.142 234.193C277.142 234.193 267.486 234.193 257.858 243.505C257.858 243.505 250.271 177.982 198.294 168.67L177.288 166.601Z" fill="#07ACEE"/>
<path d="M172.933 166.394C174.387 166.378 175.841 166.447 177.288 166.601L198.293 168.67C250.284 177.982 257.857 243.505 257.857 243.505C267.513 234.193 277.142 234.193 277.142 234.193L298.833 257.989L277.828 287.991L116 288.336C115.693 288.381 115.382 288.393 115.072 288.374C113.386 288.374 108.675 288.222 95.5913 287.301C75.9654 285.922 62.6332 271.438 96.3741 215.916C123.963 170.54 160.497 166.394 172.933 166.394ZM172.933 165.36C166.766 165.36 154.272 166.394 139.888 173.205C122.39 181.506 107.454 195.697 95.4912 215.378C85.8352 231.286 79.4485 244.805 76.5448 255.561C73.9445 265.186 74.0584 272.842 76.8896 278.321C79.9934 284.322 86.2629 287.698 95.5119 288.346C108.823 289.284 113.476 289.422 115.065 289.422C115.411 289.43 115.756 289.417 116.1 289.384L277.838 289.04H278.366L278.673 288.598L299.675 258.596L300.15 257.906L299.592 257.295L277.9 233.5L277.593 233.155H277.138C276.745 233.155 267.91 233.255 258.595 241.432C256.719 230.26 253.323 219.397 248.501 209.146C243.573 198.842 237.428 190.231 230.224 183.548C221.411 175.271 210.371 169.751 198.462 167.667H198.421H198.38L177.392 165.598C175.903 165.44 174.406 165.368 172.908 165.384L172.933 165.36Z" fill="black"/>
<path d="M102.937 252.171C102.937 252.171 125.987 230.917 168.68 236.09C211.374 241.263 215.509 227.469 232.034 256.092C248.56 284.715 200.704 256.092 200.704 256.092L102.937 252.171Z" fill="#0598C6"/>
<path d="M217.919 192.983C217.919 192.983 235.821 225.055 231.348 253.333L217.919 192.983Z" fill="#07ACEE"/>
<path d="M231.348 253.85H231.265C231.13 253.829 231.009 253.755 230.928 253.644C230.847 253.534 230.813 253.396 230.834 253.26C235.231 225.486 217.643 193.562 217.468 193.255C217.404 193.136 217.39 192.996 217.428 192.866C217.467 192.736 217.554 192.627 217.673 192.561C217.791 192.495 217.93 192.478 218.061 192.514C218.191 192.549 218.303 192.635 218.371 192.752C221.709 199.064 224.528 205.638 226.799 212.409C230.393 223.003 234.186 238.721 231.858 253.447C231.832 253.562 231.767 253.664 231.674 253.738C231.581 253.811 231.466 253.851 231.348 253.85Z" fill="black"/>
<path d="M97.0635 255.747C97.0635 255.747 131.149 231.607 170.746 241.608L181.092 241.263L185.92 269.541L178.678 275.404C178.678 275.404 172.125 285.749 152.165 288.508" fill="#07ACEE"/>
<path d="M152.148 289.026C152.08 289.03 152.012 289.022 151.947 289C151.883 288.979 151.823 288.944 151.772 288.9C151.72 288.855 151.678 288.801 151.648 288.74C151.617 288.679 151.599 288.613 151.595 288.545C151.59 288.477 151.598 288.408 151.62 288.344C151.642 288.279 151.676 288.22 151.72 288.168C151.765 288.117 151.819 288.075 151.88 288.044C151.941 288.014 152.008 287.996 152.076 287.991C171.539 285.305 178.157 275.231 178.223 275.124C178.254 275.077 178.291 275.034 178.333 274.997L185.33 269.327L180.644 241.78L170.763 242.125C170.717 242.132 170.669 242.132 170.622 242.125C150.303 236.994 131.477 241.09 119.262 245.422C106.003 250.126 97.4467 256.112 97.3639 256.185C97.3089 256.228 97.2458 256.26 97.1782 256.278C97.1107 256.296 97.0401 256.3 96.9709 256.29C96.9017 256.28 96.8351 256.256 96.7754 256.22C96.7157 256.183 96.664 256.135 96.6234 256.078C96.5828 256.021 96.5543 255.957 96.5393 255.888C96.5244 255.82 96.5234 255.749 96.5365 255.681C96.5496 255.612 96.5766 255.547 96.6156 255.489C96.6547 255.431 96.7051 255.381 96.7638 255.343C96.85 255.281 105.499 249.212 118.883 244.456C131.229 240.073 150.265 235.935 170.801 241.104L181.061 240.759C181.185 240.757 181.306 240.8 181.402 240.879C181.498 240.958 181.563 241.068 181.585 241.19L186.413 269.469C186.428 269.559 186.419 269.652 186.387 269.738C186.355 269.824 186.301 269.9 186.23 269.958L179.047 275.756C178.357 276.79 171.536 286.353 152.217 289.022L152.148 289.026Z" fill="black"/>
<path d="M181.079 241.263C181.079 241.263 204.567 239.773 220.331 242.643C246.84 247.471 257.517 283.336 257.517 283.336H222.397C222.397 283.336 211.706 277.473 207.588 264.713L185.897 269.541L181.079 241.263Z" fill="#FFCDB2"/>
<path d="M258.209 283.853H222.261L222.144 283.788C222.037 283.729 211.495 277.822 207.246 265.32L185.479 270.148L180.472 240.767L181.044 240.729C181.279 240.729 204.777 239.266 220.42 242.108C234.304 244.636 243.787 255.682 249.302 264.5C252.94 270.35 255.864 276.616 258.009 283.163L258.209 283.853ZM222.534 282.819H256.806C254.691 276.597 251.875 270.636 248.412 265.051C243.012 256.43 233.739 245.612 220.237 243.153C206.081 240.573 185.382 241.546 181.686 241.746L186.317 268.917L207.936 264.089L208.081 264.538C211.874 276.266 221.392 282.15 222.534 282.819Z" fill="#1D1D1B"/>
<path d="M170.746 242.297C170.746 242.297 164.884 260.575 178.333 275.059L185.23 269.196L180.402 241.953L170.746 242.297Z" fill="#0598C6"/>
<path d="M152.066 115.128C159.303 115.128 165.17 109.252 165.17 102.003C165.17 94.7538 159.303 88.8774 152.066 88.8774C144.828 88.8774 138.961 94.7538 138.961 102.003C138.961 109.252 144.828 115.128 152.066 115.128Z" fill="#382256"/>
<path d="M145.941 90.3878C148.518 89.0237 151.476 88.5562 154.348 89.0589C157.22 89.5616 159.843 91.006 161.804 93.1643C163.765 95.3226 164.951 98.0721 165.177 100.979C165.402 103.887 164.654 106.786 163.049 109.221C161.444 111.655 159.075 113.487 156.315 114.426C153.554 115.366 150.56 115.36 147.803 114.409C145.046 113.459 142.685 111.618 141.09 109.177C139.495 106.735 138.758 103.833 138.995 100.927C139.166 98.7255 139.893 96.6039 141.107 94.7605C142.322 92.9172 143.985 91.4126 145.941 90.3878ZM145.506 89.5635C142.524 91.1407 140.211 93.7404 138.992 96.8854C137.772 100.03 137.728 103.51 138.867 106.685C140.006 109.86 142.252 112.518 145.193 114.17C148.134 115.823 151.572 116.359 154.876 115.681C158.181 115.003 161.129 113.156 163.182 110.479C165.234 107.802 166.252 104.475 166.049 101.107C165.845 97.7403 164.434 94.5596 162.075 92.1489C159.715 89.7383 156.565 88.2596 153.203 87.9841C150.54 87.7651 147.869 88.3131 145.506 89.5635Z" fill="black"/>
<path d="M201.291 126.039C201.291 126.039 206.763 115.269 200.094 109.141C193.424 103.013 191.711 104.464 188.407 100.999C185.103 97.5328 176.033 96.3947 170.071 101.092C170.071 101.092 159.149 98.2018 152.362 103.233C145.575 108.265 144.396 112.955 144.637 119.759C144.879 126.563 143.796 130.067 143.803 134.857C143.81 139.647 146.007 152.213 165.546 154.207C185.086 156.2 201.291 126.039 201.291 126.039Z" fill="#382256"/>
<path d="M153.987 102.206C160.77 98.6192 170.081 101.078 170.081 101.078C170.729 100.57 171.421 100.122 172.15 99.7399C177.968 96.6569 185.486 97.9019 188.428 100.985C191.731 104.433 193.442 102.995 200.115 109.127C206.788 115.259 201.311 126.025 201.311 126.025C201.311 126.025 191.517 144.254 177.975 151.431C174.099 153.5 169.916 154.631 165.56 154.19C146.02 152.196 143.834 139.63 143.817 134.84C143.799 130.049 144.893 126.563 144.651 119.742C144.41 112.92 145.589 108.248 152.376 103.216C152.89 102.83 153.433 102.484 154 102.182L153.987 102.206ZM153.562 101.357C152.961 101.678 152.384 102.043 151.838 102.451C144.734 107.716 143.486 112.796 143.734 119.762C143.829 122.846 143.683 125.933 143.296 128.994C143.054 130.929 142.922 132.876 142.899 134.826C142.907 138.889 144.215 142.843 146.631 146.11C150.445 151.193 156.787 154.217 165.481 155.103C169.674 155.531 174.026 154.569 178.416 152.245C185.562 148.451 191.635 141.644 195.47 136.591C197.929 133.376 200.158 129.99 202.139 126.46V126.439C203.108 124.402 203.78 122.236 204.132 120.007C204.881 115.159 203.708 111.151 200.739 108.423C196.945 104.93 194.687 103.823 192.876 102.937C191.469 102.247 190.462 101.747 189.083 100.326C185.896 96.9811 177.971 95.5741 171.695 98.8985C171.058 99.2375 170.445 99.6225 169.864 100.05C167.864 99.5951 159.784 98.057 153.552 101.357H153.562Z" fill="black"/>
<path d="M134.795 96.9916C134.748 97.0169 134.696 97.0333 134.643 97.0399C134.521 97.0577 134.397 97.0262 134.298 96.9525C134.199 96.8788 134.134 96.7688 134.116 96.6468C133.657 93.4879 134.24 90.7842 135.84 88.6461C138.675 84.8526 143.644 84.1422 143.851 84.1146C143.912 84.1059 143.974 84.1092 144.033 84.1244C144.092 84.1396 144.148 84.1664 144.197 84.2033C144.246 84.2401 144.287 84.2863 144.319 84.3391C144.35 84.392 144.37 84.4505 144.379 84.5112C144.394 84.6341 144.361 84.7582 144.286 84.8568C144.212 84.9555 144.101 85.0209 143.979 85.0389C143.934 85.0389 139.178 85.7286 136.581 89.2151C135.126 91.1532 134.605 93.6086 135.029 96.5123C135.043 96.6065 135.028 96.7027 134.986 96.7882C134.945 96.8738 134.878 96.9447 134.795 96.9916Z" fill="black"/>
<path d="M160.231 167.636C160.231 167.636 163.859 184.365 182.109 175.743C182.109 175.743 195.883 185.054 198.293 168.846C198.293 168.843 183.461 163.314 160.231 167.636Z" fill="white"/>
<path d="M190.083 178.923C186.49 178.923 183.041 176.926 182.086 176.329C176.147 179.088 171.095 179.468 167.067 177.481C161.301 174.64 159.804 168.022 159.746 167.739C159.731 167.672 159.729 167.603 159.742 167.535C159.754 167.468 159.78 167.403 159.818 167.346C159.858 167.288 159.909 167.238 159.968 167.199C160.027 167.161 160.094 167.134 160.163 167.122C183.269 162.832 198.349 168.301 198.497 168.356C198.611 168.396 198.707 168.474 198.769 168.576C198.832 168.679 198.858 168.799 198.842 168.918C198.111 173.846 196.259 176.995 193.342 178.278C192.313 178.719 191.202 178.939 190.083 178.923ZM182.11 175.222C182.213 175.223 182.314 175.254 182.4 175.312C182.458 175.35 188.407 179.306 192.89 177.33C195.377 176.233 197.001 173.498 197.718 169.191C195.232 168.384 181.31 164.363 160.88 168.039C161.349 169.615 163.094 174.381 167.519 176.557C171.312 178.419 176.14 177.988 181.893 175.271C181.961 175.24 182.035 175.223 182.11 175.222Z" fill="#1D1D1B"/>
<path d="M186.517 154.139L191.062 167.464C191.062 167.464 180.389 178.154 166.271 166.429C166.271 166.429 168.571 158.432 165.812 143.438C165.812 143.438 159.318 144.903 157.79 139.189C156.263 133.475 160.087 130.599 163.253 130.857C163.253 130.857 176.22 133.119 176.675 108.014C176.675 108.014 189.09 107.434 196.246 117.201C203.401 126.967 207.098 140.441 200.511 147.893C193.925 155.346 186.517 154.139 186.517 154.139Z" fill="#FFCDB2"/>
<path d="M179.692 172.43C175.899 172.43 171.14 171.143 165.943 166.826L165.681 166.612L165.774 166.288C165.798 166.209 167.953 158.384 165.395 144.031C163.729 144.241 158.659 144.441 157.29 139.323C156.563 136.596 156.945 134.151 158.38 132.426C158.975 131.713 159.732 131.151 160.587 130.787C161.442 130.423 162.371 130.267 163.298 130.333H163.343C163.374 130.333 166.577 130.843 169.722 128.229C173.75 124.884 175.978 117.884 176.158 107.99V107.507L176.64 107.483C176.771 107.483 189.4 107.003 196.642 116.88C200.435 122.032 203.046 127.867 204.026 133.306C205.136 139.475 204.046 144.627 200.88 148.21C195.397 154.418 189.403 154.797 187.241 154.708L191.635 167.588L191.407 167.816C189.32 169.722 186.806 171.098 184.075 171.83C182.647 172.221 181.173 172.423 179.692 172.43ZM166.857 166.257C172.474 170.833 178.168 172.385 183.779 170.874C186.242 170.201 188.526 168.99 190.466 167.329L185.751 153.497L186.6 153.635C186.714 153.635 193.842 154.649 200.125 147.545C206.495 140.348 202.784 126.988 195.828 117.515C189.7 109.166 179.509 108.548 177.182 108.548C176.93 118.646 174.633 125.553 170.354 129.081C166.953 131.888 163.553 131.45 163.191 131.392C162.433 131.345 161.675 131.476 160.977 131.776C160.279 132.075 159.661 132.534 159.173 133.116C158.318 134.151 157.473 136.006 158.29 139.075C159.67 144.248 165.453 143.007 165.698 142.951L166.222 142.834L166.319 143.362C168.791 156.777 167.26 164.564 166.857 166.257Z" fill="black"/>
<path d="M187.793 154.583C187.745 154.6 187.695 154.608 187.645 154.607C182.065 154.528 176.719 150.372 176.495 150.196C176.398 150.12 176.335 150.008 176.32 149.885C176.305 149.762 176.34 149.638 176.416 149.541C176.492 149.444 176.604 149.381 176.727 149.366C176.85 149.351 176.974 149.385 177.071 149.462C177.123 149.503 182.396 153.6 187.658 153.672C187.77 153.673 187.877 153.714 187.961 153.786C188.045 153.859 188.1 153.96 188.116 154.07C188.132 154.18 188.109 154.292 188.049 154.386C187.99 154.48 187.899 154.55 187.793 154.583Z" fill="black"/>
<path d="M164.673 140.947C164.598 140.986 164.514 141.004 164.43 140.999C164.345 140.995 164.264 140.967 164.194 140.92C162.125 139.513 161.09 138.026 161.138 136.505C161.218 134.312 163.518 132.953 163.618 132.898C163.67 132.867 163.729 132.846 163.789 132.838C163.85 132.829 163.912 132.833 163.971 132.849C164.03 132.865 164.085 132.892 164.134 132.93C164.182 132.967 164.222 133.014 164.252 133.067C164.283 133.12 164.304 133.179 164.312 133.239C164.32 133.3 164.316 133.362 164.3 133.421C164.285 133.481 164.258 133.536 164.22 133.585C164.183 133.634 164.137 133.674 164.083 133.705C164.059 133.705 162.125 134.867 162.07 136.54C162.032 137.719 162.921 138.933 164.715 140.147C164.765 140.181 164.809 140.225 164.843 140.277C164.876 140.328 164.9 140.385 164.911 140.445C164.923 140.506 164.923 140.568 164.91 140.628C164.898 140.688 164.873 140.745 164.839 140.795C164.798 140.86 164.741 140.912 164.673 140.947Z" fill="black"/>
<path d="M184.158 124.936C178.444 128.536 169.091 128.888 168.47 131.629C167.85 134.371 170.026 136.944 173.643 136.457C177.261 135.971 180.568 134.633 187.193 131.585C193.818 128.536 200.077 125.056 197.963 121.691C195.849 118.325 192.559 119.635 184.158 124.936Z" fill="#FFB49F"/>
<path d="M163.308 146.514C164.493 146.514 165.453 145.552 165.453 144.365C165.453 143.179 164.493 142.217 163.308 142.217C162.123 142.217 161.163 143.179 161.163 144.365C161.163 145.552 162.123 146.514 163.308 146.514Z" fill="#07ACEE"/>
<path d="M162.308 142.462C162.807 142.233 163.374 142.204 163.894 142.381C164.414 142.558 164.846 142.926 165.102 143.412C165.359 143.897 165.419 144.462 165.272 144.991C165.125 145.519 164.782 145.972 164.312 146.255C163.813 146.484 163.245 146.512 162.726 146.336C162.206 146.159 161.774 145.79 161.517 145.305C161.261 144.82 161.2 144.255 161.347 143.726C161.494 143.197 161.838 142.745 162.308 142.462ZM161.874 141.637C161.218 141.983 160.708 142.554 160.439 143.245C160.17 143.936 160.16 144.7 160.409 145.399C160.659 146.097 161.152 146.681 161.798 147.045C162.444 147.409 163.2 147.528 163.926 147.379C164.652 147.23 165.301 146.825 165.752 146.237C166.204 145.648 166.428 144.917 166.383 144.177C166.339 143.437 166.029 142.738 165.51 142.208C164.991 141.678 164.299 141.353 163.56 141.293C162.976 141.245 162.391 141.364 161.874 141.637Z" fill="black"/>
<path d="M192.707 134.433C192.63 134.433 192.553 134.416 192.483 134.383C192.413 134.349 192.352 134.3 192.304 134.24L185.541 125.856C185.455 125.749 185.414 125.612 185.429 125.476C185.443 125.339 185.512 125.213 185.619 125.127C185.726 125.04 185.863 125 185.999 125.015C186.136 125.029 186.261 125.097 186.348 125.204L193.107 133.591C193.17 133.667 193.209 133.758 193.221 133.856C193.233 133.953 193.217 134.051 193.175 134.14C193.133 134.228 193.067 134.303 192.984 134.355C192.901 134.407 192.805 134.434 192.707 134.433Z" fill="#1D1D1B"/>
<path d="M185.475 117.631C185.385 117.632 185.297 117.61 185.219 117.566C185.14 117.522 185.075 117.458 185.029 117.381C184.983 117.304 184.958 117.216 184.956 117.126C184.955 117.036 184.977 116.948 185.02 116.869C187.11 112.962 192.952 115.738 193.183 115.859C193.306 115.919 193.401 116.026 193.445 116.156C193.49 116.286 193.481 116.428 193.421 116.552C193.36 116.675 193.253 116.77 193.123 116.814C192.993 116.859 192.851 116.85 192.728 116.79C192.679 116.766 187.555 114.328 185.93 117.359C185.887 117.442 185.822 117.511 185.741 117.559C185.661 117.607 185.569 117.632 185.475 117.631Z" fill="black"/>
<path d="M174.992 125.412C174.929 125.412 174.867 125.4 174.809 125.377C174.681 125.329 174.578 125.231 174.521 125.106C174.465 124.982 174.461 124.84 174.509 124.712C175.292 122.642 176.416 121.263 177.843 120.629C178.826 120.181 179.941 120.118 180.968 120.453C181.091 120.505 181.188 120.603 181.24 120.726C181.292 120.849 181.295 120.988 181.247 121.113C181.199 121.237 181.105 121.339 180.984 121.396C180.864 121.453 180.726 121.461 180.599 121.418C180.458 121.367 177.299 120.26 175.478 125.077C175.44 125.176 175.373 125.26 175.287 125.32C175.2 125.38 175.097 125.412 174.992 125.412Z" fill="black"/>
<path d="M177.805 132.978C177.713 132.978 177.622 132.954 177.542 132.907C177.463 132.86 177.397 132.793 177.352 132.713C177.307 132.632 177.284 132.541 177.286 132.449C177.288 132.357 177.315 132.266 177.364 132.188C177.395 132.14 180.416 127.343 185.254 129.577C185.373 129.638 185.464 129.743 185.507 129.869C185.551 129.996 185.544 130.134 185.488 130.255C185.431 130.377 185.33 130.471 185.206 130.52C185.081 130.568 184.943 130.567 184.82 130.515C180.823 128.667 178.35 132.564 178.247 132.733C178.2 132.808 178.135 132.87 178.057 132.912C177.98 132.955 177.893 132.978 177.805 132.978Z" fill="black"/>
<path d="M190.179 126.715C190.084 126.717 189.99 126.693 189.907 126.646C189.825 126.599 189.757 126.529 189.712 126.446C189.666 126.363 189.645 126.268 189.649 126.173C189.653 126.079 189.684 125.987 189.737 125.908C189.768 125.86 192.862 121.104 197.669 123.415C197.733 123.442 197.792 123.482 197.84 123.533C197.889 123.583 197.926 123.643 197.951 123.708C197.976 123.774 197.987 123.844 197.984 123.914C197.98 123.984 197.963 124.052 197.933 124.115C197.902 124.178 197.86 124.234 197.807 124.28C197.754 124.327 197.693 124.361 197.626 124.383C197.559 124.404 197.489 124.412 197.42 124.406C197.35 124.4 197.282 124.379 197.221 124.346C193.251 122.439 190.72 126.298 190.617 126.463C190.571 126.539 190.507 126.602 190.43 126.646C190.354 126.69 190.267 126.714 190.179 126.715Z" fill="black"/>
<path d="M191.72 145.358H191.658C189.017 145.317 186.947 142.63 186.861 142.517C186.799 142.435 186.763 142.336 186.757 142.233C186.751 142.13 186.776 142.028 186.828 141.94C186.881 141.851 186.959 141.78 187.052 141.736C187.145 141.692 187.249 141.677 187.351 141.692C187.416 141.692 193.955 142.641 195.283 138.844C195.328 138.714 195.424 138.608 195.548 138.548C195.672 138.489 195.815 138.481 195.945 138.527C196.075 138.572 196.181 138.668 196.24 138.792C196.3 138.916 196.308 139.059 196.262 139.189C195.065 142.613 190.813 142.923 188.579 142.841C189.32 143.53 190.451 144.313 191.682 144.33C192.696 144.33 193.655 143.806 194.521 142.737C194.561 142.679 194.614 142.631 194.674 142.594C194.734 142.557 194.802 142.533 194.872 142.523C194.942 142.514 195.013 142.518 195.081 142.537C195.149 142.556 195.213 142.589 195.268 142.633C195.323 142.678 195.368 142.733 195.401 142.795C195.434 142.858 195.454 142.927 195.459 142.997C195.464 143.068 195.455 143.139 195.432 143.205C195.408 143.272 195.372 143.333 195.324 143.386C194.262 144.693 193.048 145.358 191.72 145.358Z" fill="#1D1D1B"/>
<path d="M148.275 193.728C149.821 193.728 151.075 192.471 151.075 190.92C151.075 189.37 149.821 188.113 148.275 188.113C146.728 188.113 145.475 189.37 145.475 190.92C145.475 192.471 146.728 193.728 148.275 193.728Z" fill="#51CEF4"/>
<path d="M175.477 224.42C177.024 224.42 178.277 223.163 178.277 221.613C178.277 220.062 177.024 218.806 175.477 218.806C173.931 218.806 172.677 220.062 172.677 221.613C172.677 223.163 173.931 224.42 175.477 224.42Z" fill="#51CEF4"/>
<path d="M209.908 206.143C211.454 206.143 212.708 204.886 212.708 203.335C212.708 201.785 211.454 200.528 209.908 200.528C208.361 200.528 207.107 201.785 207.107 203.335C207.107 204.886 208.361 206.143 209.908 206.143Z" fill="#51CEF4"/>
<path d="M120.041 233.386C121.588 233.386 122.842 232.129 122.842 230.579C122.842 229.029 121.588 227.772 120.041 227.772C118.495 227.772 117.241 229.029 117.241 230.579C117.241 232.129 118.495 233.386 120.041 233.386Z" fill="#51CEF4"/>
<path d="M135.881 253.388C137.428 253.388 138.682 252.131 138.682 250.581C138.682 249.031 137.428 247.774 135.881 247.774C134.335 247.774 133.081 249.031 133.081 250.581C133.081 252.131 134.335 253.388 135.881 253.388Z" fill="#51CEF4"/>
<path d="M134.505 286.149C136.052 286.149 137.305 284.893 137.305 283.342C137.305 281.792 136.052 280.535 134.505 280.535C132.959 280.535 131.705 281.792 131.705 283.342C131.705 284.893 132.959 286.149 134.505 286.149Z" fill="#51CEF4"/>
<path d="M237.797 209.936C239.344 209.936 240.598 208.679 240.598 207.129C240.598 205.579 239.344 204.322 237.797 204.322C236.251 204.322 234.997 205.579 234.997 207.129C234.997 208.679 236.251 209.936 237.797 209.936Z" fill="#51CEF4"/>
<path d="M272.917 255.458C274.464 255.458 275.718 254.201 275.718 252.65C275.718 251.1 274.464 249.843 272.917 249.843C271.371 249.843 270.117 251.1 270.117 252.65C270.117 254.201 271.371 255.458 272.917 255.458Z" fill="#51CEF4"/>
<path d="M111.779 272.7C113.325 272.7 114.579 271.443 114.579 269.893C114.579 268.343 113.325 267.086 111.779 267.086C110.232 267.086 108.979 268.343 108.979 269.893C108.979 271.443 110.232 272.7 111.779 272.7Z" fill="#51CEF4"/>
<path d="M246.669 255.23C251.083 249.258 256.295 243.921 262.16 239.366L246.669 255.23Z" fill="#07ACEE"/>
<path d="M246.666 255.747C246.572 255.746 246.48 255.719 246.399 255.67C246.319 255.621 246.254 255.551 246.21 255.467C246.167 255.384 246.147 255.29 246.152 255.196C246.158 255.102 246.189 255.011 246.242 254.933C250.695 248.925 255.945 243.55 261.846 238.956C261.955 238.872 262.093 238.835 262.229 238.853C262.365 238.871 262.489 238.942 262.572 239.051C262.656 239.16 262.693 239.297 262.675 239.433C262.658 239.57 262.586 239.693 262.477 239.777C256.657 244.302 251.481 249.601 247.094 255.526C247.045 255.595 246.981 255.651 246.907 255.689C246.832 255.728 246.75 255.748 246.666 255.747Z" fill="black"/>
<path d="M240.297 270.92C243.125 274.686 245.336 278.876 246.849 283.335L240.297 270.92Z" fill="#FFCDB2"/>
<path d="M246.839 283.853C246.731 283.853 246.627 283.82 246.539 283.758C246.452 283.696 246.385 283.609 246.349 283.508C244.852 279.111 242.673 274.976 239.893 271.255C239.851 271.202 239.819 271.141 239.8 271.075C239.781 271.01 239.775 270.941 239.782 270.874C239.79 270.806 239.811 270.74 239.844 270.681C239.877 270.621 239.921 270.568 239.974 270.526C240.027 270.483 240.088 270.452 240.154 270.433C240.219 270.414 240.288 270.408 240.356 270.415C240.423 270.423 240.489 270.444 240.549 270.476C240.608 270.509 240.661 270.554 240.704 270.607C243.566 274.413 245.802 278.652 247.328 283.163C247.349 283.229 247.356 283.297 247.35 283.366C247.344 283.434 247.324 283.501 247.292 283.561C247.26 283.622 247.216 283.676 247.163 283.719C247.11 283.763 247.049 283.795 246.983 283.815C246.937 283.835 246.889 283.848 246.839 283.853Z" fill="#1D1D1B"/>
<path d="M231.003 273.68C231.003 273.68 234.107 277.128 235.486 282.991L231.003 273.68Z" fill="#FFCDB2"/>
<path d="M235.479 283.508C235.362 283.508 235.249 283.468 235.158 283.396C235.066 283.323 235.002 283.222 234.975 283.108C233.648 277.459 230.648 274.059 230.617 274.024C230.567 273.975 230.528 273.915 230.502 273.85C230.476 273.785 230.463 273.715 230.465 273.645C230.467 273.574 230.483 273.505 230.513 273.441C230.542 273.377 230.584 273.32 230.637 273.273C230.689 273.226 230.75 273.191 230.817 273.168C230.884 273.146 230.954 273.137 231.024 273.143C231.094 273.149 231.163 273.169 231.225 273.202C231.287 273.235 231.341 273.28 231.385 273.335C231.516 273.48 234.589 276.949 235.982 282.873C236.013 283.007 235.99 283.147 235.918 283.264C235.845 283.38 235.73 283.463 235.596 283.494C235.558 283.504 235.518 283.508 235.479 283.508Z" fill="#1D1D1B"/>
<path d="M158.245 107.824C158.29 107.824 158.334 107.806 158.367 107.773C158.399 107.741 158.417 107.697 158.417 107.651C158.417 107.606 158.399 107.562 158.367 107.529C158.334 107.497 158.29 107.479 158.245 107.479C158.199 107.479 158.155 107.497 158.123 107.529C158.09 107.562 158.072 107.606 158.072 107.651C158.072 107.697 158.09 107.741 158.123 107.773C158.155 107.806 158.199 107.824 158.245 107.824Z" fill="black"/>
<path d="M151.761 109.089C151.807 109.089 151.851 109.071 151.883 109.039C151.916 109.007 151.934 108.963 151.934 108.917C151.934 108.871 151.916 108.827 151.883 108.795C151.851 108.763 151.807 108.745 151.761 108.745C151.716 108.745 151.672 108.763 151.639 108.795C151.607 108.827 151.589 108.871 151.589 108.917C151.589 108.963 151.607 109.007 151.639 109.039C151.672 109.071 151.716 109.089 151.761 109.089Z" fill="black"/>
<path d="M97.1432 172.464C97.0985 172.469 97.0533 172.469 97.0086 172.464C75.824 166.719 63.3506 152.666 56.6155 141.889C49.3218 130.222 47.0008 119.759 46.9767 119.656C46.9622 119.589 46.961 119.521 46.9731 119.454C46.9852 119.387 47.0104 119.323 47.0472 119.265C47.084 119.208 47.1317 119.158 47.1876 119.12C47.2436 119.081 47.3068 119.053 47.3734 119.039C47.4399 119.024 47.5087 119.023 47.5758 119.035C47.6428 119.047 47.7067 119.072 47.764 119.109C47.8214 119.146 47.871 119.194 47.9099 119.25C47.9487 119.306 47.9762 119.369 47.9907 119.435C48.0114 119.539 50.3046 129.857 57.5122 141.375C64.1472 151.98 76.4345 165.812 97.2777 171.464C97.4149 171.482 97.5394 171.553 97.6238 171.663C97.7082 171.773 97.7455 171.911 97.7277 172.048C97.7098 172.186 97.6382 172.31 97.5286 172.395C97.419 172.479 97.2804 172.516 97.1432 172.499V172.464Z" fill="black"/>
<path d="M67.6579 172.44C67.6166 172.445 67.575 172.445 67.5338 172.44C50.7599 168.264 41.9349 149.952 41.8452 149.765C41.7867 149.641 41.78 149.498 41.8265 149.369C41.8731 149.24 41.9692 149.134 42.0936 149.076C42.218 149.017 42.3605 149.01 42.4898 149.057C42.6192 149.104 42.7248 149.2 42.7833 149.324C42.8661 149.503 51.4909 167.381 67.782 171.433C67.9192 171.449 68.0443 171.52 68.1297 171.628C68.2151 171.737 68.2537 171.875 68.2373 172.012C68.2208 172.149 68.1504 172.274 68.0418 172.36C67.9331 172.445 67.7951 172.484 67.6579 172.467V172.44Z" fill="black"/>
<path d="M346.82 213.847H315.783C315.646 213.847 315.514 213.793 315.417 213.696C315.32 213.599 315.266 213.467 315.266 213.33C315.266 213.193 315.32 213.061 315.417 212.964C315.514 212.867 315.646 212.812 315.783 212.812H346.82C346.957 212.812 347.089 212.867 347.186 212.964C347.283 213.061 347.337 213.193 347.337 213.33C347.337 213.467 347.283 213.599 347.186 213.696C347.089 213.793 346.957 213.847 346.82 213.847Z" fill="black"/>
<path d="M246.812 216.951C246.638 216.951 246.468 216.898 246.325 216.801C246.182 216.703 246.071 216.564 246.008 216.402C239.68 200.228 230.145 190.255 223.247 184.741C215.767 178.758 209.702 176.575 209.643 176.554C209.536 176.516 209.437 176.458 209.353 176.383C209.269 176.307 209.2 176.215 209.151 176.113C209.102 176.011 209.074 175.9 209.068 175.787C209.062 175.674 209.078 175.561 209.115 175.454C209.153 175.347 209.211 175.249 209.287 175.164C209.362 175.08 209.454 175.011 209.556 174.962C209.658 174.913 209.769 174.885 209.882 174.879C209.995 174.873 210.108 174.889 210.215 174.926C210.47 175.016 216.564 177.202 224.261 183.344C231.345 188.993 241.159 199.208 247.632 215.761C247.715 215.974 247.71 216.211 247.618 216.42C247.526 216.63 247.355 216.794 247.143 216.878C247.038 216.925 246.926 216.949 246.812 216.951Z" fill="white"/>
<path d="M251.295 275.921C251.133 275.921 250.975 275.876 250.838 275.79C250.701 275.705 250.59 275.583 250.519 275.438C235.094 243.911 214.654 245.208 214.464 245.225C214.351 245.234 214.237 245.221 214.129 245.186C214.021 245.151 213.921 245.095 213.834 245.021C213.748 244.948 213.677 244.858 213.625 244.757C213.573 244.656 213.542 244.545 213.533 244.432C213.524 244.319 213.537 244.205 213.572 244.097C213.607 243.989 213.663 243.889 213.737 243.802C213.81 243.716 213.9 243.645 214.001 243.593C214.103 243.541 214.213 243.51 214.326 243.501C214.55 243.501 219.909 243.091 227.283 246.777C234.007 250.143 243.77 257.712 252.071 274.673C252.135 274.804 252.165 274.95 252.158 275.096C252.15 275.243 252.105 275.385 252.028 275.509C251.95 275.633 251.842 275.736 251.714 275.806C251.586 275.877 251.441 275.914 251.295 275.914V275.921Z" fill="white"/>
<path d="M141.63 104.182C141.425 104.182 141.227 104.11 141.071 103.977C140.915 103.844 140.811 103.66 140.778 103.458C140.744 103.234 139.933 97.9403 143.34 93.9469C145.754 91.126 149.572 89.6982 154.721 89.6982C154.949 89.6982 155.169 89.7891 155.33 89.9508C155.492 90.1124 155.583 90.3317 155.583 90.5604C155.583 90.789 155.492 91.0083 155.33 91.17C155.169 91.3317 154.949 91.4225 154.721 91.4225C150.096 91.4225 146.706 92.6433 144.651 95.0504C141.757 98.4404 142.461 103.137 142.468 103.182C142.504 103.408 142.449 103.639 142.315 103.824C142.181 104.01 141.98 104.135 141.754 104.172L141.63 104.182Z" fill="white"/>
<path d="M165.08 129.012C164.873 129.011 164.673 128.936 164.517 128.799C164.361 128.663 164.259 128.475 164.23 128.27C164.201 128.065 164.247 127.856 164.36 127.682C164.472 127.508 164.644 127.38 164.843 127.322C173.719 124.784 172.85 109.045 172.84 108.893C172.839 108.673 172.923 108.46 173.074 108.3C173.224 108.139 173.43 108.042 173.65 108.028C173.87 108.014 174.087 108.084 174.257 108.224C174.426 108.364 174.536 108.564 174.564 108.782C174.605 109.472 175.523 126.063 165.318 128.977C165.241 129.001 165.161 129.012 165.08 129.012Z" fill="white"/>
<path d="M71.2788 277.646C71.1728 277.644 71.0697 277.61 70.9834 277.549C70.8971 277.487 70.8318 277.4 70.796 277.301C66.6577 266.472 68.1957 256.326 70.2235 249.712C72.4202 242.56 75.5516 238.032 75.6826 237.842C75.7613 237.73 75.8814 237.653 76.0165 237.629C76.1517 237.605 76.2908 237.636 76.4033 237.714C76.5158 237.793 76.5926 237.913 76.6165 238.048C76.6404 238.184 76.6096 238.323 76.5309 238.435C76.4068 238.615 64.0229 256.737 71.7615 276.921C71.786 276.985 71.7977 277.052 71.7961 277.12C71.7944 277.188 71.7795 277.255 71.7519 277.317C71.7244 277.379 71.6848 277.436 71.6356 277.482C71.5863 277.529 71.5284 277.566 71.465 277.59C71.4071 277.621 71.3438 277.639 71.2788 277.646Z" fill="black"/>
<path d="M350.958 289.716H67.4851C67.3479 289.716 67.2163 289.661 67.1193 289.564C67.0223 289.467 66.9678 289.336 66.9678 289.198C66.9678 289.061 67.0223 288.93 67.1193 288.833C67.2163 288.736 67.3479 288.681 67.4851 288.681H350.958C351.095 288.681 351.227 288.736 351.324 288.833C351.421 288.93 351.475 289.061 351.475 289.198C351.475 289.336 351.421 289.467 351.324 289.564C351.227 289.661 351.095 289.716 350.958 289.716Z" fill="black"/>
<path d="M85.7628 299.027H38.5173C38.3801 299.027 38.2486 298.972 38.1515 298.875C38.0545 298.778 38 298.647 38 298.509C38 298.372 38.0545 298.241 38.1515 298.144C38.2486 298.047 38.3801 297.992 38.5173 297.992H85.7628C85.9 297.992 86.0315 298.047 86.1285 298.144C86.2255 298.241 86.2801 298.372 86.2801 298.509C86.2801 298.647 86.2255 298.778 86.1285 298.875C86.0315 298.972 85.9 299.027 85.7628 299.027Z" fill="black"/>
<path d="M361.304 299.371H336.819C336.682 299.371 336.55 299.317 336.453 299.22C336.356 299.123 336.302 298.991 336.302 298.854C336.302 298.717 336.356 298.585 336.453 298.488C336.55 298.391 336.682 298.337 336.819 298.337H361.304C361.441 298.337 361.573 298.391 361.67 298.488C361.767 298.585 361.821 298.717 361.821 298.854C361.821 298.991 361.767 299.123 361.67 299.22C361.573 299.317 361.441 299.371 361.304 299.371Z" fill="black"/>
<path d="M140.353 282.711C138.771 282.711 135.787 282.401 133.456 280.349C131.387 278.528 130.353 275.828 130.353 272.317C130.353 268.807 131.387 266.148 133.456 264.42C136.746 261.661 141.326 262.461 141.519 262.499L140.971 265.568C140.936 265.568 137.595 265.01 135.453 266.824C134.136 267.938 133.467 269.783 133.467 272.317C133.467 274.852 134.156 276.8 135.536 278.007C137.712 279.928 141.054 279.563 141.071 279.559L141.467 282.663C141.097 282.702 140.725 282.718 140.353 282.711Z" fill="white"/>
<path d="M140.354 283.229C138.705 283.229 135.574 282.904 133.112 280.739C130.932 278.814 129.825 275.983 129.825 272.317C129.825 268.651 130.936 265.855 133.129 264.041C136.605 261.134 141.405 261.972 141.616 262.006L142.123 262.099L141.392 266.182L140.885 266.096C140.854 266.096 137.729 265.593 135.777 267.238C134.581 268.245 133.974 269.962 133.974 272.335C133.974 274.707 134.608 276.538 135.853 277.638C137.84 279.39 140.957 279.066 140.988 279.063L141.495 279.008L142.019 283.118L141.509 283.184C141.125 283.222 140.739 283.237 140.354 283.229ZM139.75 262.882C138.157 262.882 135.736 263.199 133.798 264.82C131.86 266.441 130.867 268.958 130.867 272.321C130.867 275.683 131.856 278.249 133.801 279.966C136.291 282.16 139.616 282.242 140.868 282.184L140.602 280.115C139.526 280.142 137.002 280.015 135.177 278.39C133.698 277.087 132.946 275.042 132.946 272.31C132.946 269.579 133.677 267.638 135.119 266.424C136.926 264.899 139.478 264.91 140.557 264.996L140.926 262.927C140.633 262.91 140.229 262.879 139.75 262.879V262.882Z" fill="black"/>
<path d="M162.694 254.847H145.972C143.365 254.847 141.251 256.96 141.251 259.568V284.132C141.251 286.739 143.365 288.853 145.972 288.853H162.694C165.302 288.853 167.415 286.739 167.415 284.132V259.568C167.415 256.96 165.302 254.847 162.694 254.847Z" fill="white"/>
<path d="M162.694 289.371H145.975C144.586 289.369 143.254 288.816 142.272 287.834C141.289 286.853 140.736 285.521 140.733 284.132V259.571C140.735 258.182 141.288 256.85 142.271 255.867C143.253 254.884 144.586 254.331 145.975 254.33H162.694C164.084 254.331 165.416 254.884 166.399 255.867C167.381 256.85 167.934 258.182 167.936 259.571V284.132C167.933 285.521 167.38 286.853 166.397 287.834C165.415 288.816 164.083 289.369 162.694 289.371ZM145.975 255.364C144.86 255.366 143.791 255.81 143.002 256.598C142.214 257.387 141.77 258.456 141.768 259.571V284.132C141.77 285.247 142.214 286.316 143.003 287.104C143.791 287.892 144.86 288.335 145.975 288.336H162.694C163.809 288.335 164.878 287.892 165.667 287.104C166.455 286.316 166.899 285.247 166.901 284.132V259.571C166.899 258.456 166.455 257.387 165.667 256.598C164.878 255.81 163.809 255.366 162.694 255.364H145.975Z" fill="black"/>
<path d="M149.661 250.815C149.576 250.816 149.492 250.795 149.416 250.754C149.341 250.714 149.277 250.656 149.23 250.584C146.237 246.07 148.626 241.963 150.547 238.683C151.582 236.9 152.572 235.235 152.572 233.766C152.572 226.12 147.682 223.896 147.471 223.806C147.345 223.752 147.246 223.649 147.195 223.522C147.144 223.394 147.146 223.251 147.2 223.125C147.255 222.999 147.357 222.899 147.485 222.849C147.613 222.798 147.755 222.8 147.882 222.854C148.116 222.954 153.606 225.41 153.606 233.766C153.606 235.49 152.572 237.297 151.441 239.208C149.478 242.563 147.454 246.036 150.092 250.015C150.13 250.072 150.156 250.135 150.169 250.201C150.182 250.268 150.182 250.336 150.168 250.402C150.155 250.469 150.128 250.532 150.09 250.588C150.052 250.644 150.004 250.692 149.947 250.729C149.863 250.786 149.763 250.816 149.661 250.815Z" fill="black"/>
<path d="M157.562 256.071C157.46 256.071 157.361 256.041 157.276 255.985C157.162 255.909 157.083 255.79 157.057 255.656C157.03 255.521 157.058 255.382 157.134 255.268C160.89 249.626 159.052 245.022 158.121 243.588C158.045 243.578 157.973 243.553 157.908 243.512C157.844 243.472 157.789 243.417 157.748 243.353C157.607 243.129 157.314 242.663 157.7 242.318C157.812 242.228 157.954 242.184 158.097 242.194C158.24 242.205 158.374 242.269 158.472 242.374C159.3 243.112 162.725 248.719 157.993 255.823C157.948 255.898 157.885 255.96 157.81 256.003C157.734 256.047 157.649 256.07 157.562 256.071Z" fill="black"/>
<path d="M164.735 284.542C164.507 284.542 164.287 284.452 164.126 284.29C163.964 284.128 163.873 283.909 163.873 283.68V259.885C163.873 259.656 163.964 259.437 164.126 259.275C164.287 259.114 164.507 259.023 164.735 259.023C164.964 259.023 165.183 259.114 165.345 259.275C165.506 259.437 165.597 259.656 165.597 259.885V283.68C165.597 283.909 165.506 284.128 165.345 284.29C165.183 284.452 164.964 284.542 164.735 284.542Z" fill="white"/>
<path d="M310.857 169.878C320.719 169.878 328.714 161.87 328.714 151.993C328.714 142.116 320.719 134.109 310.857 134.109C300.995 134.109 293.001 142.116 293.001 151.993C293.001 161.87 300.995 169.878 310.857 169.878Z" fill="#4BD657"/>
<path d="M310.858 170.395C307.217 170.4 303.657 169.326 300.627 167.307C297.597 165.289 295.234 162.416 293.837 159.055C292.44 155.693 292.072 151.992 292.779 148.42C293.486 144.849 295.236 141.568 297.809 138.991C300.381 136.415 303.66 134.66 307.23 133.947C310.8 133.235 314.502 133.598 317.866 134.99C321.23 136.382 324.106 138.74 326.129 141.767C328.152 144.794 329.232 148.353 329.232 151.993C329.23 156.868 327.294 161.544 323.85 164.994C320.405 168.443 315.733 170.386 310.858 170.395ZM310.858 134.626C307.422 134.621 304.061 135.635 301.202 137.54C298.342 139.445 296.112 142.155 294.793 145.328C293.474 148.501 293.127 151.994 293.794 155.365C294.461 158.735 296.112 161.832 298.54 164.264C300.968 166.696 304.062 168.352 307.432 169.025C310.802 169.697 314.295 169.355 317.47 168.041C320.645 166.727 323.359 164.501 325.268 161.645C327.178 158.788 328.197 155.429 328.197 151.993C328.196 147.392 326.37 142.98 323.119 139.724C319.869 136.468 315.459 134.635 310.858 134.626Z" fill="black"/>
<path d="M309.2 77.1108C314.144 77.1108 318.152 73.0965 318.152 68.1445C318.152 63.1926 314.144 59.1782 309.2 59.1782C304.255 59.1782 300.247 63.1926 300.247 68.1445C300.247 73.0965 304.255 77.1108 309.2 77.1108Z" fill="#4BD657"/>
<path d="M309.2 77.6283C307.323 77.631 305.488 77.0771 303.927 76.0367C302.366 74.9963 301.148 73.5161 300.428 71.7835C299.708 70.0508 299.518 68.1436 299.883 66.303C300.247 64.4625 301.149 62.7714 302.475 61.4437C303.801 60.116 305.49 59.2114 307.33 58.8444C309.171 58.4773 311.078 58.6643 312.812 59.3817C314.546 60.0991 316.027 61.3146 317.07 62.8745C318.113 64.4343 318.669 66.2684 318.669 68.1447C318.668 70.6572 317.671 73.0668 315.896 74.8447C314.12 76.6227 311.712 77.6237 309.2 77.6283ZM309.2 59.6957C307.528 59.693 305.893 60.1862 304.502 61.1129C303.111 62.0396 302.025 63.3582 301.384 64.9018C300.742 66.4455 300.573 68.1447 300.897 69.7846C301.222 71.4244 302.025 72.9312 303.206 74.1142C304.387 75.2972 305.893 76.1032 307.532 76.4303C309.172 76.7575 310.871 76.591 312.416 75.9519C313.96 75.3128 315.281 74.2299 316.21 72.8402C317.139 71.4504 317.635 69.8164 317.635 68.1447C317.634 65.9066 316.745 63.7601 315.164 62.1762C313.583 60.5923 311.438 59.7003 309.2 59.6957Z" fill="black"/>
<path d="M271.785 205.053C274.543 205.053 276.779 202.814 276.779 200.053C276.779 197.291 274.543 195.052 271.785 195.052C269.028 195.052 266.792 197.291 266.792 200.053C266.792 202.814 269.028 205.053 271.785 205.053Z" fill="#4BD657"/>
<path d="M271.785 205.571C270.694 205.571 269.627 205.247 268.72 204.641C267.813 204.034 267.105 203.173 266.688 202.164C266.27 201.156 266.161 200.047 266.374 198.976C266.587 197.906 267.112 196.923 267.884 196.151C268.655 195.38 269.639 194.854 270.709 194.641C271.779 194.428 272.889 194.538 273.897 194.955C274.905 195.373 275.767 196.08 276.373 196.987C276.979 197.895 277.303 198.962 277.303 200.053C277.303 201.516 276.722 202.92 275.687 203.954C274.652 204.989 273.249 205.571 271.785 205.571ZM271.785 195.57C270.899 195.57 270.032 195.833 269.294 196.325C268.557 196.818 267.983 197.518 267.643 198.337C267.304 199.156 267.215 200.058 267.388 200.928C267.561 201.797 267.988 202.596 268.615 203.223C269.242 203.85 270.041 204.277 270.911 204.45C271.78 204.623 272.682 204.534 273.501 204.195C274.32 203.855 275.02 203.281 275.513 202.544C276.006 201.806 276.268 200.94 276.268 200.053C276.268 198.864 275.796 197.724 274.955 196.883C274.115 196.042 272.974 195.57 271.785 195.57Z" fill="black"/>
<path d="M260.061 122.287C262.819 122.287 265.054 120.048 265.054 117.287C265.054 114.525 262.819 112.286 260.061 112.286C257.303 112.286 255.067 114.525 255.067 117.287C255.067 120.048 257.303 122.287 260.061 122.287Z" fill="#4BD657"/>
<path d="M260.061 122.804C258.969 122.804 257.903 122.481 256.995 121.875C256.088 121.268 255.381 120.407 254.963 119.398C254.545 118.39 254.436 117.281 254.649 116.21C254.862 115.14 255.387 114.157 256.159 113.385C256.931 112.613 257.914 112.088 258.984 111.875C260.055 111.662 261.164 111.771 262.172 112.189C263.18 112.607 264.042 113.314 264.649 114.221C265.255 115.129 265.578 116.195 265.578 117.287C265.578 118.75 264.997 120.154 263.962 121.188C262.927 122.223 261.524 122.804 260.061 122.804ZM260.061 112.804C259.174 112.804 258.307 113.067 257.57 113.559C256.833 114.052 256.258 114.752 255.919 115.571C255.579 116.39 255.491 117.292 255.664 118.161C255.837 119.031 256.264 119.83 256.891 120.457C257.518 121.084 258.316 121.511 259.186 121.684C260.056 121.857 260.957 121.768 261.776 121.429C262.595 121.089 263.296 120.515 263.788 119.777C264.281 119.04 264.544 118.173 264.544 117.287C264.544 116.098 264.071 114.957 263.231 114.117C262.39 113.276 261.25 112.804 260.061 112.804Z" fill="black"/>
<path d="M97.0533 106.423C106.561 106.423 114.269 98.7034 114.269 89.1804C114.269 79.6574 106.561 71.9375 97.0533 71.9375C87.5456 71.9375 79.8379 79.6574 79.8379 89.1804C79.8379 98.7034 87.5456 106.423 97.0533 106.423Z" fill="#4BD657"/>
<path d="M97.053 106.941C93.5393 106.946 90.1031 105.908 87.1793 103.959C84.2554 102.011 81.9754 99.2387 80.6275 95.9938C79.2795 92.749 78.9243 89.1773 79.6069 85.7306C80.2894 82.2838 81.979 79.117 84.4618 76.6308C86.9447 74.1446 90.1093 72.4507 93.5551 71.7634C97.0009 71.0762 100.573 71.4265 103.82 72.77C107.066 74.1135 109.842 76.3899 111.794 79.311C113.747 82.2322 114.789 85.6669 114.789 89.1806C114.787 93.8861 112.919 98.3988 109.594 101.728C106.269 105.058 101.759 106.933 97.053 106.941ZM97.053 72.455C93.744 72.4502 90.5078 73.4271 87.7541 75.262C85.0004 77.0969 82.8529 79.7074 81.5832 82.7632C80.3136 85.819 79.9789 89.1827 80.6216 92.4287C81.2642 95.6748 82.8553 98.6572 85.1935 100.999C87.5316 103.34 90.5117 104.936 93.7568 105.583C97.0019 106.23 100.366 105.901 103.424 104.635C106.481 103.37 109.095 101.226 110.934 98.4753C112.773 95.7243 113.754 92.4896 113.754 89.1806C113.753 84.7494 111.993 80.4999 108.862 77.3643C105.731 74.2288 101.484 72.4632 97.053 72.455Z" fill="black"/>
<path d="M299.364 149.117L323.16 147.162C323.292 147.15 323.426 147.178 323.542 147.242C323.659 147.307 323.754 147.405 323.814 147.523C323.875 147.642 323.899 147.776 323.883 147.908C323.867 148.04 323.812 148.165 323.725 148.265L313.6 160.187C313.488 160.314 313.332 160.395 313.164 160.415C312.995 160.435 312.825 160.392 312.686 160.294L306.179 155.445C306.085 155.376 306.011 155.283 305.964 155.176C305.917 155.069 305.899 154.952 305.912 154.835C305.924 154.719 305.967 154.609 306.036 154.514C306.104 154.42 306.196 154.345 306.303 154.297L317.866 149.065L302.717 152.659C302.624 152.681 302.527 152.683 302.433 152.665C302.338 152.646 302.25 152.608 302.172 152.552L299.044 150.334C298.94 150.251 298.863 150.139 298.822 150.013C298.78 149.886 298.776 149.751 298.81 149.622C298.844 149.493 298.914 149.377 299.013 149.288C299.111 149.198 299.233 149.139 299.364 149.117Z" fill="#382256"/>
<path d="M260.277 20.0648L203.427 29.5139C196.03 30.745 190.974 36.5041 191.764 42.7978L194.423 63.91C195.209 70.1174 201.461 74.8558 208.907 74.8558H213.466L223.394 88.5432L233.947 74.8558H260.449C268.088 74.8558 274.43 69.907 274.985 63.5134L277.633 32.9487C278.364 24.8962 269.715 18.4957 260.277 20.0648Z" fill="white"/>
<path d="M263.149 19.8268C271.388 19.8268 278.275 25.7239 277.633 32.9487L274.985 63.5134C274.43 69.9071 268.088 74.8558 260.449 74.8558H233.947L223.394 88.5432L213.479 74.8696H208.92C201.461 74.8696 195.209 70.145 194.436 63.9238L191.764 42.7978C190.974 36.5042 196.03 30.745 203.427 29.5139L260.277 20.0648C261.226 19.9061 262.187 19.8265 263.149 19.8268ZM263.149 18.6785C262.098 18.6798 261.048 18.7674 260.011 18.9406L203.161 28.3897C199.251 29.0414 195.792 30.883 193.426 33.5625C191.06 36.2421 189.977 39.5734 190.405 42.9013L193.064 64.0134C193.926 70.8382 200.74 75.9834 208.927 75.9834H212.721L222.249 89.1225C222.385 89.2965 222.559 89.4366 222.759 89.5317C222.958 89.6269 223.177 89.6745 223.398 89.6708H223.418C223.636 89.6752 223.853 89.6307 224.051 89.5406C224.25 89.4505 224.426 89.3171 224.567 89.1501L234.716 75.9834H260.473C268.784 75.9834 275.767 70.5347 276.371 63.5686L279.02 33.0038C279.347 29.2552 277.85 25.6791 274.805 22.934C271.76 20.1889 267.563 18.6509 263.16 18.6509L263.149 18.6785Z" fill="black"/>
<path d="M216.29 48.7567C216.127 48.7706 215.964 48.7211 215.835 48.6185C215.707 48.5158 215.623 48.3678 215.601 48.205C215.609 48.0391 215.682 47.8831 215.805 47.7713C215.928 47.6594 216.09 47.6009 216.256 47.6084L259.336 46.2048C259.419 46.1937 259.503 46.1992 259.584 46.221C259.665 46.2429 259.74 46.2805 259.806 46.3319C259.872 46.3832 259.928 46.4472 259.969 46.5201C260.01 46.5931 260.036 46.6734 260.046 46.7566C260.042 46.8386 260.022 46.919 259.987 46.9932C259.951 47.0674 259.902 47.134 259.841 47.1891C259.781 47.2442 259.709 47.2867 259.632 47.3143C259.555 47.3419 259.473 47.3539 259.391 47.3497L216.311 48.7533L216.29 48.7567Z" fill="black"/>
<path d="M217.97 59.2851C217.808 59.2976 217.647 59.2489 217.52 59.1487C217.392 59.0484 217.307 58.9039 217.28 58.7437C217.283 58.6614 217.301 58.5804 217.334 58.5053C217.368 58.4301 217.416 58.3624 217.476 58.306C217.536 58.2496 217.607 58.2056 217.684 58.1766C217.761 58.1475 217.843 58.134 217.925 58.1367L248.459 56.7332C248.626 56.7132 248.794 56.7583 248.928 56.8592C249.062 56.96 249.152 57.1089 249.18 57.2746C249.177 57.3567 249.159 57.4376 249.125 57.5125C249.091 57.5874 249.043 57.6549 248.983 57.711C248.923 57.7672 248.853 57.8109 248.776 57.8395C248.699 57.8682 248.617 57.8813 248.535 57.8781L218.015 59.2851H217.97Z" fill="black"/>
<path d="M212.753 35.0105C199.741 35.0105 187.957 31.4171 179.608 27.9444C167.949 23.0957 160.296 17.4297 160.217 17.3745C160.151 17.3313 160.096 17.2734 160.057 17.2055C160.017 17.1376 159.994 17.0614 159.988 16.983C159.983 16.9045 159.996 16.8259 160.026 16.7533C160.056 16.6806 160.103 16.6159 160.162 16.5641C160.293 16.4488 160.46 16.3813 160.634 16.3726C160.809 16.3638 160.981 16.4143 161.124 16.5158C161.2 16.5744 168.742 22.1508 180.246 26.9305C190.826 31.3274 207.021 35.9244 224.102 32.8793C224.268 32.8398 224.442 32.863 224.592 32.9445C224.741 33.026 224.855 33.16 224.912 33.3207C224.928 33.401 224.927 33.4838 224.908 33.5635C224.89 33.6433 224.855 33.7182 224.805 33.7833C224.756 33.8485 224.693 33.9024 224.621 33.9416C224.549 33.9807 224.47 34.0042 224.388 34.0104C220.547 34.6856 216.653 35.0203 212.753 35.0105Z" fill="black"/>
<path d="M197.668 56.5122C183.905 56.5122 174.122 48.6908 174.001 48.5805C173.939 48.5328 173.888 48.4715 173.853 48.4012C173.819 48.331 173.801 48.2536 173.801 48.1753C173.801 48.0969 173.819 48.0196 173.853 47.9493C173.888 47.879 173.939 47.8177 174.001 47.7701C174.138 47.661 174.308 47.6016 174.484 47.6016C174.659 47.6016 174.829 47.661 174.966 47.7701C175.115 47.8908 189.944 59.7194 208.538 53.6154C208.7 53.5555 208.878 53.5553 209.039 53.6147C209.201 53.6741 209.337 53.7893 209.421 53.9396C209.452 54.0132 209.466 54.0926 209.462 54.1723C209.459 54.2519 209.438 54.3298 209.401 54.4005C209.364 54.4713 209.313 54.533 209.249 54.5815C209.186 54.6299 209.113 54.6639 209.035 54.681C205.368 55.8947 201.531 56.513 197.668 56.5122Z" fill="black"/>
<path d="M111.627 70.0412C111.498 70.0383 111.375 69.9866 111.282 69.8964C106.833 65.5891 101.54 63.82 95.5427 64.6442C92.8175 65.0188 90.1834 65.8871 87.7696 67.2065C87.6528 67.2718 87.5153 67.2893 87.3858 67.2553C87.2564 67.2212 87.1453 67.1384 87.0757 67.0241C87.006 66.9099 86.9833 66.773 87.0124 66.6424C87.0415 66.5118 87.12 66.3976 87.2316 66.3237C87.3661 66.2409 100.809 58.3092 111.999 69.1515C112.073 69.2222 112.124 69.3131 112.146 69.4126C112.168 69.5122 112.16 69.616 112.123 69.7111C112.086 69.8062 112.022 69.8882 111.939 69.9469C111.855 70.0057 111.756 70.0385 111.655 70.0412H111.627Z" fill="black"/>
<path d="M310.199 81.3803C305.885 81.3803 302.433 78.9663 302.375 78.9111C302.263 78.8306 302.188 78.7091 302.166 78.5733C302.144 78.4375 302.177 78.2985 302.257 78.1869C302.338 78.0753 302.459 78.0003 302.595 77.9783C302.731 77.9563 302.87 77.9892 302.981 78.0697C303.326 78.3111 311.313 83.9116 317.81 76.7627C317.905 76.6748 318.029 76.6255 318.159 76.6245C318.288 76.6236 318.413 76.671 318.509 76.7575C318.605 76.844 318.665 76.9632 318.677 77.0918C318.69 77.2204 318.653 77.3491 318.576 77.4524C315.858 80.4526 312.851 81.3803 310.199 81.3803Z" fill="black"/>
<path d="M298.885 172.464C298.8 172.463 298.716 172.442 298.64 172.402C283.611 164.363 287.998 149.527 288.046 149.379C288.094 149.257 288.185 149.158 288.303 149.101C288.421 149.044 288.555 149.033 288.68 149.072C288.805 149.11 288.911 149.195 288.977 149.308C289.042 149.421 289.062 149.555 289.032 149.683C288.36 152.31 288.236 155.048 288.67 157.725C289.626 163.66 293.153 168.291 299.13 171.491C299.231 171.546 299.311 171.633 299.357 171.738C299.404 171.843 299.414 171.961 299.386 172.073C299.358 172.184 299.293 172.283 299.203 172.354C299.112 172.425 299 172.464 298.885 172.464Z" fill="black"/>
<path d="M271.986 62.4543H271.913C271.686 62.435 271.475 62.3261 271.327 62.1515C271.18 61.9769 271.108 61.7509 271.127 61.5232L273.541 33.2449C273.551 33.1317 273.582 33.0215 273.634 32.9205C273.686 32.8195 273.758 32.7298 273.845 32.6565C273.932 32.5832 274.032 32.5276 274.14 32.4931C274.248 32.4586 274.362 32.4457 274.476 32.4552C274.589 32.4647 274.699 32.4964 274.8 32.5485C274.901 32.6006 274.991 32.6721 275.064 32.7589C275.137 32.8457 275.193 32.9461 275.228 33.0543C275.262 33.1625 275.275 33.2765 275.265 33.3897L272.851 61.6681C272.833 61.8842 272.734 62.0855 272.573 62.2313C272.413 62.3772 272.203 62.4569 271.986 62.4543Z" fill="white"/>
<path d="M323.714 161.773C323.564 161.773 323.416 161.734 323.285 161.659C323.154 161.584 323.045 161.476 322.969 161.346C322.893 161.216 322.852 161.068 322.851 160.917C322.85 160.766 322.889 160.618 322.963 160.487C325.594 155.811 326.266 151.448 324.963 147.524C322.749 140.861 315.507 137.592 315.435 137.561C315.232 137.465 315.075 137.294 314.996 137.084C314.917 136.874 314.924 136.642 315.014 136.437C315.103 136.231 315.269 136.069 315.477 135.984C315.684 135.899 315.916 135.898 316.124 135.981C316.448 136.126 324.125 139.575 326.587 146.965C328.06 151.372 327.342 156.207 324.459 161.335C324.385 161.467 324.276 161.577 324.146 161.654C324.015 161.731 323.866 161.772 323.714 161.773Z" fill="white"/>
<path d="M105.419 102.803C105.248 102.803 105.08 102.752 104.937 102.657C104.795 102.561 104.684 102.425 104.619 102.266C104.555 102.108 104.539 101.933 104.574 101.765C104.609 101.597 104.693 101.443 104.816 101.323C109.299 96.9541 111.334 92.5124 110.899 88.1292C110.182 80.932 102.967 76.1592 102.881 76.1109C102.689 75.9865 102.554 75.791 102.506 75.5672C102.459 75.3434 102.502 75.1098 102.626 74.9177C102.75 74.7257 102.946 74.5909 103.17 74.543C103.393 74.4951 103.627 74.5382 103.819 74.6625C104.143 74.8729 111.809 79.9182 112.613 87.9464C113.106 92.8814 110.889 97.7956 106.023 102.558C105.861 102.715 105.645 102.802 105.419 102.803Z" fill="white"/>
<path d="M329.129 283.335H214.302V289.026H329.129V283.335Z" fill="#4BD657"/>
<path d="M329.65 289.543H213.777V282.818H329.65V289.543ZM214.812 288.509H328.615V283.853H214.812V288.509Z" fill="black"/>
<path d="M329.131 283.336H264.057L293.994 224.31C294.826 222.667 296.097 221.287 297.665 220.323C299.234 219.359 301.039 218.848 302.881 218.847H355.958C356.576 218.848 357.183 219.007 357.722 219.309C358.261 219.611 358.713 220.047 359.036 220.573C359.358 221.1 359.541 221.701 359.565 222.318C359.59 222.935 359.455 223.549 359.175 224.099L329.131 283.336Z" fill="#4BD657"/>
<path d="M329.449 283.853H263.212L293.539 224.075C294.409 222.345 295.744 220.891 297.394 219.877C299.044 218.862 300.944 218.326 302.881 218.33H355.958C356.664 218.333 357.357 218.515 357.972 218.861C358.587 219.207 359.104 219.704 359.472 220.306C359.841 220.908 360.05 221.593 360.079 222.298C360.107 223.004 359.956 223.704 359.638 224.334L329.449 283.853ZM264.916 282.818H328.832L358.731 223.848C358.965 223.376 359.075 222.853 359.051 222.327C359.027 221.801 358.87 221.29 358.594 220.842C358.318 220.393 357.933 220.023 357.474 219.764C357.015 219.506 356.498 219.368 355.972 219.365H302.881C301.135 219.36 299.422 219.841 297.934 220.755C296.446 221.668 295.242 222.978 294.456 224.538L264.916 282.818Z" fill="black"/>
<path d="M321.056 253.26C322.372 249.483 321.034 245.583 318.067 244.549C315.099 243.514 311.626 245.737 310.31 249.514C308.993 253.29 310.331 257.191 313.299 258.225C316.266 259.26 319.739 257.037 321.056 253.26Z" fill="#4BD657"/>
<path d="M314.921 259.047C314.347 259.048 313.777 258.952 313.234 258.765C310.003 257.637 308.52 253.433 309.927 249.391C310.545 247.531 311.766 245.929 313.396 244.839C315 243.805 316.755 243.556 318.345 244.108C321.576 245.236 323.059 249.44 321.652 253.481C321.034 255.342 319.813 256.944 318.183 258.034C317.215 258.677 316.083 259.029 314.921 259.047ZM316.662 244.86C315.697 244.879 314.757 245.175 313.955 245.712C312.519 246.675 311.446 248.09 310.907 249.733C309.686 253.233 310.882 256.847 313.576 257.785C314.859 258.234 316.297 258.013 317.624 257.161C319.06 256.198 320.133 254.783 320.673 253.14L321.163 253.309L320.673 253.14C321.894 249.64 320.697 246.026 318.004 245.088C317.567 244.934 317.108 244.857 316.645 244.86H316.662Z" fill="black"/>
<path d="M328.198 276.611C328.048 276.611 327.901 276.572 327.771 276.498C327.642 276.424 327.533 276.317 327.457 276.188C327.381 276.059 327.34 275.913 327.337 275.764C327.335 275.614 327.371 275.466 327.442 275.335L354.341 226.021C354.457 225.831 354.641 225.694 354.855 225.637C355.069 225.58 355.297 225.607 355.491 225.714C355.686 225.82 355.832 225.998 355.899 226.209C355.966 226.42 355.949 226.649 355.852 226.848L328.953 276.163C328.879 276.299 328.77 276.412 328.637 276.491C328.504 276.57 328.352 276.611 328.198 276.611Z" fill="white"/>
<path d="M316.128 257.644C315.942 257.644 315.761 257.584 315.611 257.473C315.462 257.361 315.353 257.205 315.3 257.026C315.247 256.847 315.254 256.657 315.318 256.482C315.383 256.307 315.503 256.158 315.659 256.057C317.607 254.792 318.742 253.298 319.035 251.64C319.473 249.14 317.873 246.977 317.856 246.957C317.788 246.866 317.738 246.763 317.71 246.653C317.682 246.544 317.676 246.429 317.692 246.317C317.708 246.205 317.746 246.097 317.804 246C317.861 245.903 317.938 245.818 318.028 245.75C318.119 245.682 318.222 245.632 318.332 245.604C318.441 245.576 318.555 245.57 318.667 245.586C318.779 245.602 318.888 245.64 318.985 245.697C319.082 245.755 319.167 245.831 319.235 245.922C319.318 246.032 321.304 248.681 320.746 251.926C320.37 254.092 318.976 255.971 316.607 257.516C316.463 257.605 316.297 257.649 316.128 257.644Z" fill="white"/>
<path d="M264.054 288.715C263.917 288.715 263.786 288.661 263.689 288.564C263.592 288.467 263.537 288.335 263.537 288.198V283.336C263.537 283.198 263.592 283.067 263.689 282.97C263.786 282.873 263.917 282.818 264.054 282.818C264.192 282.818 264.323 282.873 264.42 282.97C264.517 283.067 264.572 283.198 264.572 283.336V288.198C264.572 288.335 264.517 288.467 264.42 288.564C264.323 288.661 264.192 288.715 264.054 288.715Z" fill="black"/>
<defs>
<filter id="filter0_d_14058_101173" x="-4.02018" y="107.785" width="38.6849" height="38.6839" filterUnits="userSpaceOnUse" color-interpolation-filters="sRGB">
<feFlood flood-opacity="0" result="BackgroundImageFix"/>
<feColorMatrix in="SourceAlpha" type="matrix" values="0 0 0 0 0 0 0 0 0 0 0 0 0 0 0 0 0 0 127 0" result="hardAlpha"/>
<feOffset dy="2.03704"/>
<feGaussianBlur stdDeviation="5.09261"/>
<feComposite in2="hardAlpha" operator="out"/>
<feColorMatrix type="matrix" values="0 0 0 0 0 0 0 0 0 0 0 0 0 0 0 0 0 0 0.05 0"/>
<feBlend mode="normal" in2="BackgroundImageFix" result="effect1_dropShadow_14058_101173"/>
<feBlend mode="normal" in="SourceGraphic" in2="effect1_dropShadow_14058_101173" result="shape"/>
</filter>
<filter id="filter1_d_14058_101173" x="370.65" y="165.21" width="38.6878" height="38.6883" filterUnits="userSpaceOnUse" color-interpolation-filters="sRGB">
<feFlood flood-opacity="0" result="BackgroundImageFix"/>
<feColorMatrix in="SourceAlpha" type="matrix" values="0 0 0 0 0 0 0 0 0 0 0 0 0 0 0 0 0 0 127 0" result="hardAlpha"/>
<feOffset dy="2.03704"/>
<feGaussianBlur stdDeviation="5.09261"/>
<feComposite in2="hardAlpha" operator="out"/>
<feColorMatrix type="matrix" values="0 0 0 0 0 0 0 0 0 0 0 0 0 0 0 0 0 0 0.05 0"/>
<feBlend mode="normal" in2="BackgroundImageFix" result="effect1_dropShadow_14058_101173"/>
<feBlend mode="normal" in="SourceGraphic" in2="effect1_dropShadow_14058_101173" result="shape"/>
</filter>
<linearGradient id="paint0_linear_14058_101173" x1="20.4547" y1="112.038" x2="392.053" y2="200.547" gradientUnits="userSpaceOnUse">
<stop stop-color="#CDD5E2"/>
<stop offset="1" stop-color="#CDD5E2" stop-opacity="0"/>
</linearGradient>
<linearGradient id="paint1_linear_14058_101173" x1="391.41" y1="195.437" x2="353.849" y2="294.044" gradientUnits="userSpaceOnUse">
<stop stop-color="#CDD5E2"/>
<stop offset="1" stop-color="#CDD5E2" stop-opacity="0"/>
</linearGradient>
<linearGradient id="paint2_linear_14058_101173" x1="196.503" y1="23.2607" x2="196.503" y2="365.006" gradientUnits="userSpaceOnUse">
<stop stop-color="#CDD5E2"/>
<stop offset="1" stop-color="#CDD5E2" stop-opacity="0"/>
</linearGradient>
<linearGradient id="paint3_linear_14058_101173" x1="196.505" y1="57.4336" x2="196.505" y2="330.83" gradientUnits="userSpaceOnUse">
<stop stop-color="#CDD5E2"/>
<stop offset="1" stop-color="#CDD5E2" stop-opacity="0"/>
</linearGradient>
</defs>
</svg>
