<svg width="406" height="302" viewBox="0 0 406 302" fill="none" xmlns="http://www.w3.org/2000/svg">
<mask id="mask0_14083_90188" style="mask-type:alpha" maskUnits="userSpaceOnUse" x="0" y="0" width="406" height="302">
<rect width="405.823" height="301.875" fill="#D9D9D9"/>
</mask>
<g mask="url(#mask0_14083_90188)">
<g opacity="0.5">
<mask id="path-2-inside-1_14083_90188" fill="white">
<path d="M389.979 202.565C391.995 156.308 377.371 110.86 348.759 74.4588C320.146 38.0574 279.439 13.1119 234.015 4.14415C188.592 -4.82363 141.458 2.77982 101.159 25.5762C60.859 48.3727 30.0607 84.8533 14.3462 128.405L15.1858 128.708C30.8279 85.357 61.4843 49.0446 101.598 26.3532C141.712 3.66186 188.628 -3.90654 233.842 5.0199C279.057 13.9463 319.576 38.7768 348.057 75.0104C376.537 111.244 391.094 156.483 389.087 202.526L389.979 202.565Z"/>
</mask>
<path d="M389.979 202.565C391.995 156.308 377.371 110.86 348.759 74.4588C320.146 38.0574 279.439 13.1119 234.015 4.14415C188.592 -4.82363 141.458 2.77982 101.159 25.5762C60.859 48.3727 30.0607 84.8533 14.3462 128.405L15.1858 128.708C30.8279 85.357 61.4843 49.0446 101.598 26.3532C141.712 3.66186 188.628 -3.90654 233.842 5.0199C279.057 13.9463 319.576 38.7768 348.057 75.0104C376.537 111.244 391.094 156.483 389.087 202.526L389.979 202.565Z" stroke="url(#paint0_linear_14083_90188)" stroke-width="2.84788" stroke-dasharray="4.27 4.27" mask="url(#path-2-inside-1_14083_90188)"/>
</g>
<g opacity="0.5">
<mask id="path-3-inside-2_14083_90188" fill="white">
<path d="M14.6043 260.572C30.4892 304.063 61.4301 340.422 101.819 363.061C142.207 385.699 189.37 393.118 234.758 383.973C280.146 374.827 320.756 349.723 349.225 313.21C377.695 276.697 392.141 231.192 389.944 184.943L389.052 184.986C391.239 231.021 376.86 276.316 348.521 312.661C320.183 349.006 279.761 373.994 234.582 383.098C189.403 392.201 142.457 384.816 102.255 362.282C62.0527 339.748 31.2544 303.556 15.4428 260.266L14.6043 260.572Z"/>
</mask>
<path d="M14.6043 260.572C30.4892 304.063 61.4301 340.422 101.819 363.061C142.207 385.699 189.37 393.118 234.758 383.973C280.146 374.827 320.756 349.723 349.225 313.21C377.695 276.697 392.141 231.192 389.944 184.943L389.052 184.986C391.239 231.021 376.86 276.316 348.521 312.661C320.183 349.006 279.761 373.994 234.582 383.098C189.403 392.201 142.457 384.816 102.255 362.282C62.0527 339.748 31.2544 303.556 15.4428 260.266L14.6043 260.572Z" stroke="url(#paint1_linear_14083_90188)" stroke-width="2.84788" stroke-dasharray="4.27 4.27" mask="url(#path-3-inside-2_14083_90188)"/>
</g>
<circle opacity="0.08" cx="196.502" cy="194.133" r="170.873" fill="url(#paint2_linear_14083_90188)"/>
<circle opacity="0.1" cx="196.505" cy="194.132" r="136.698" fill="url(#paint3_linear_14083_90188)"/>
<circle cx="196.505" cy="194.134" r="91.1321" fill="white"/>
<g filter="url(#filter0_d_14083_90188)">
<circle cx="15.3224" cy="125.09" r="7.11969" transform="rotate(-2.50406 15.3224 125.09)" fill="#0170FF"/>
<circle cx="15.3224" cy="125.09" r="8.13822" transform="rotate(-2.50406 15.3224 125.09)" stroke="white" stroke-width="2.03704"/>
</g>
<g filter="url(#filter1_d_14083_90188)">
<circle cx="389.993" cy="182.517" r="7.11969" transform="rotate(-15.7345 389.993 182.517)" fill="#0170FF"/>
<circle cx="389.993" cy="182.517" r="8.13822" transform="rotate(-15.7345 389.993 182.517)" stroke="white" stroke-width="2.03704"/>
</g>
</g>
<path d="M251.699 72.8062H78.8726C69.3351 72.8062 61.6035 80.5379 61.6035 90.0754V197.689C61.6035 207.226 69.3351 214.958 78.8726 214.958H251.699C261.237 214.958 268.968 207.226 268.968 197.689V90.0754C268.968 80.5379 261.237 72.8062 251.699 72.8062Z" fill="white"/>
<path d="M251.702 215.459H78.8756C74.1632 215.454 69.6453 213.58 66.3132 210.248C62.9811 206.916 61.1069 202.398 61.1016 197.685V90.0754C61.1078 85.3636 62.9823 80.8467 66.3143 77.5153C69.6464 74.1839 74.1638 72.31 78.8756 72.3047H251.702C256.413 72.31 260.93 74.184 264.262 77.5155C267.593 80.847 269.467 85.3639 269.472 90.0754V197.685C269.467 202.397 267.593 206.915 264.262 210.247C260.93 213.579 256.413 215.453 251.702 215.459ZM78.8756 73.3075C74.4295 73.312 70.1667 75.0799 67.0226 78.2234C63.8784 81.3669 62.1097 85.6293 62.1044 90.0754V197.685C62.1097 202.132 63.8784 206.395 67.0224 209.539C70.1665 212.683 74.4292 214.451 78.8756 214.457H251.702C256.148 214.451 260.41 212.683 263.554 209.538C266.697 206.394 268.465 202.132 268.47 197.685V90.0754C268.465 85.6296 266.697 81.3672 263.554 78.2236C260.41 75.08 256.147 73.312 251.702 73.3075H78.8756Z" fill="black"/>
<path d="M255.605 77.9136H82.7789C73.2414 77.9136 65.5098 85.6453 65.5098 95.1828V202.796C65.5098 212.334 73.2414 220.065 82.7789 220.065H255.605C265.143 220.065 272.874 212.334 272.874 202.796V95.1828C272.874 85.6453 265.143 77.9136 255.605 77.9136Z" fill="white"/>
<path d="M255.605 220.567H82.7784C78.0669 220.562 73.55 218.688 70.2185 215.356C66.887 212.025 65.0131 207.508 65.0078 202.796V95.1861C65.0131 90.4744 66.8869 85.9571 70.2183 82.6251C73.5497 79.293 78.0666 77.4183 82.7784 77.4121H255.605C260.317 77.4174 264.835 79.2917 268.167 82.6239C271.499 85.956 273.373 90.4738 273.379 95.1861V202.796C273.372 207.508 271.498 212.025 268.166 215.356C264.834 218.688 260.316 220.562 255.605 220.567ZM82.7784 78.415C78.3323 78.4203 74.0701 80.1891 70.9265 83.3332C67.783 86.4774 66.0151 90.7401 66.0107 95.1861V202.796C66.0151 207.242 67.7831 211.504 70.9267 214.648C74.0703 217.792 78.3326 219.56 82.7784 219.564H255.605C260.051 219.56 264.314 217.792 267.458 214.648C270.602 211.505 272.37 207.242 272.376 202.796V95.1861C272.37 90.7398 270.602 86.4771 267.458 83.333C264.314 80.189 260.051 78.4203 255.605 78.415H82.7784Z" fill="black"/>
<path d="M92.7413 107.969H84.5613C80.5125 107.969 77.2305 111.251 77.2305 115.3V123.48C77.2305 127.529 80.5125 130.811 84.5613 130.811H92.7413C96.7901 130.811 100.072 127.529 100.072 123.48V115.3C100.072 111.251 96.7901 107.969 92.7413 107.969Z" fill="#ACF9B0"/>
<path d="M132.712 107.969H124.532C120.483 107.969 117.201 111.251 117.201 115.3V123.48C117.201 127.529 120.483 130.811 124.532 130.811H132.712C136.761 130.811 140.043 127.529 140.043 123.48V115.3C140.043 111.251 136.761 107.969 132.712 107.969Z" fill="#ACF9B0"/>
<path d="M173.284 107.969H165.104C161.055 107.969 157.773 111.251 157.773 115.3V123.48C157.773 127.529 161.055 130.811 165.104 130.811H173.284C177.333 130.811 180.615 127.529 180.615 123.48V115.3C180.615 111.251 177.333 107.969 173.284 107.969Z" fill="#ACF9B0"/>
<path d="M211.454 107.969H203.274C199.226 107.969 195.943 111.251 195.943 115.3V123.48C195.943 127.529 199.226 130.811 203.274 130.811H211.454C215.503 130.811 218.785 127.529 218.785 123.48V115.3C218.785 111.251 215.503 107.969 211.454 107.969Z" fill="#ACF9B0"/>
<path d="M249.318 107.969H241.137C237.089 107.969 233.807 111.251 233.807 115.3V123.48C233.807 127.529 237.089 130.811 241.137 130.811H249.318C253.366 130.811 256.648 127.529 256.648 123.48V115.3C256.648 111.251 253.366 107.969 249.318 107.969Z" fill="#ACF9B0"/>
<path d="M93.0421 144.032H84.8621C80.8133 144.032 77.5312 147.314 77.5312 151.363V159.543C77.5312 163.592 80.8133 166.874 84.8621 166.874H93.0421C97.0909 166.874 100.373 163.592 100.373 159.543V151.363C100.373 147.314 97.0909 144.032 93.0421 144.032Z" fill="#ACF9B0"/>
<path d="M133.015 144.032H124.835C120.786 144.032 117.504 147.314 117.504 151.363V159.543C117.504 163.592 120.786 166.874 124.835 166.874H133.015C137.064 166.874 140.346 163.592 140.346 159.543V151.363C140.346 147.314 137.064 144.032 133.015 144.032Z" fill="#ACF9B0"/>
<path d="M173.585 144.032H165.405C161.356 144.032 158.074 147.314 158.074 151.363V159.543C158.074 163.592 161.356 166.874 165.405 166.874H173.585C177.634 166.874 180.916 163.592 180.916 159.543V151.363C180.916 147.314 177.634 144.032 173.585 144.032Z" fill="#ACF9B0"/>
<path d="M211.755 144.032H203.575C199.526 144.032 196.244 147.314 196.244 151.363V159.543C196.244 163.592 199.526 166.874 203.575 166.874H211.755C215.804 166.874 219.086 163.592 219.086 159.543V151.363C219.086 147.314 215.804 144.032 211.755 144.032Z" fill="#ACF9B0"/>
<path d="M249.62 144.032H241.44C237.391 144.032 234.109 147.314 234.109 151.363V159.543C234.109 163.592 237.391 166.874 241.44 166.874H249.62C253.669 166.874 256.951 163.592 256.951 159.543V151.363C256.951 147.314 253.669 144.032 249.62 144.032Z" fill="#ACF9B0"/>
<path d="M93.0421 177.993H84.8621C80.8133 177.993 77.5312 181.275 77.5312 185.324V193.504C77.5312 197.552 80.8133 200.834 84.8621 200.834H93.0421C97.0909 200.834 100.373 197.552 100.373 193.504V185.324C100.373 181.275 97.0909 177.993 93.0421 177.993Z" fill="#ACF9B0"/>
<path d="M133.015 177.993H124.835C120.786 177.993 117.504 181.275 117.504 185.324V193.504C117.504 197.552 120.786 200.834 124.835 200.834H133.015C137.064 200.834 140.346 197.552 140.346 193.504V185.324C140.346 181.275 137.064 177.993 133.015 177.993Z" fill="#ACF9B0"/>
<path d="M173.585 177.993H165.405C161.356 177.993 158.074 181.275 158.074 185.324V193.504C158.074 197.552 161.356 200.834 165.405 200.834H173.585C177.634 200.834 180.916 197.552 180.916 193.504V185.324C180.916 181.275 177.634 177.993 173.585 177.993Z" fill="#ACF9B0"/>
<path d="M211.755 177.993H203.575C199.526 177.993 196.244 181.275 196.244 185.324V193.504C196.244 197.552 199.526 200.834 203.575 200.834H211.755C215.804 200.834 219.086 197.552 219.086 193.504V185.324C219.086 181.275 215.804 177.993 211.755 177.993Z" fill="#ACF9B0"/>
<path d="M249.62 177.993H241.44C237.391 177.993 234.109 181.275 234.109 185.324V193.504C234.109 197.552 237.391 200.834 241.44 200.834H249.62C253.669 200.834 256.951 197.552 256.951 193.504V185.324C256.951 181.275 253.669 177.993 249.62 177.993Z" fill="#ACF9B0"/>
<path d="M90.8805 67.6978H90.797C89.6135 67.6978 88.6543 68.6571 88.6543 69.8405V86.5916C88.6543 87.775 89.6135 88.7344 90.797 88.7344H90.8805C92.064 88.7344 93.0234 87.775 93.0234 86.5916V69.8405C93.0234 68.6571 92.064 67.6978 90.8805 67.6978Z" fill="#382256"/>
<path d="M90.88 89.2358H90.7964C90.0948 89.2349 89.4223 88.9556 88.9265 88.4592C88.4307 87.9628 88.1523 87.2898 88.1523 86.5882V69.8405C88.1532 69.1395 88.432 68.4674 88.9277 67.9717C89.4234 67.476 90.0954 67.1972 90.7964 67.1963H90.88C91.581 67.1972 92.2531 67.476 92.7488 67.9717C93.2445 68.4674 93.5234 69.1395 93.5243 69.8405V86.5882C93.5243 87.2898 93.2459 87.9628 92.7501 88.4592C92.2543 88.9556 91.5816 89.2349 90.88 89.2358ZM90.7964 68.1991C90.3611 68.1991 89.9437 68.3721 89.6359 68.6799C89.3281 68.9877 89.1552 69.4052 89.1552 69.8405V86.5882C89.1552 87.0239 89.328 87.4417 89.6357 87.75C89.9435 88.0584 90.3608 88.2321 90.7964 88.2329H90.88C91.3156 88.2321 91.7332 88.0584 92.0409 87.75C92.3486 87.4417 92.5214 87.0239 92.5214 86.5882V69.8405C92.5214 69.4052 92.3485 68.9877 92.0407 68.6799C91.7329 68.3721 91.3153 68.1991 90.88 68.1991H90.7964Z" fill="#1D1E1B"/>
<path d="M112.73 67.397H112.647C111.463 67.397 110.504 68.3563 110.504 69.5397V86.2908C110.504 87.4742 111.463 88.4336 112.647 88.4336H112.73C113.914 88.4336 114.873 87.4742 114.873 86.2908V69.5397C114.873 68.3563 113.914 67.397 112.73 67.397Z" fill="#382256"/>
<path d="M112.73 88.935H112.649C111.948 88.935 111.275 88.6565 110.779 88.1607C110.282 87.6649 110.003 86.9924 110.002 86.2908V69.5397C110.003 68.8381 110.282 68.1656 110.779 67.6698C111.275 67.174 111.948 66.8955 112.649 66.8955H112.73C113.431 66.8955 114.104 67.174 114.601 67.6698C115.097 68.1656 115.376 68.8381 115.377 69.5397V86.2908C115.376 86.9924 115.097 87.6649 114.601 88.1607C114.104 88.6565 113.431 88.935 112.73 88.935ZM112.649 67.8984C112.214 67.8984 111.796 68.0712 111.488 68.3789C111.179 68.6866 111.006 69.1041 111.005 69.5397V86.2908C111.006 86.7264 111.179 87.1439 111.488 87.4516C111.796 87.7593 112.214 87.9321 112.649 87.9321H112.73C113.165 87.9321 113.583 87.7593 113.891 87.4516C114.2 87.1439 114.374 86.7264 114.374 86.2908V69.5397C114.374 69.1041 114.2 68.6866 113.891 68.3789C113.583 68.0712 113.165 67.8984 112.73 67.8984H112.649Z" fill="#1D1E1B"/>
<path d="M134.582 67.0962H134.498C133.315 67.0962 132.355 68.0556 132.355 69.239V85.9901C132.355 87.1735 133.315 88.1328 134.498 88.1328H134.582C135.765 88.1328 136.725 87.1735 136.725 85.9901V69.239C136.725 68.0556 135.765 67.0962 134.582 67.0962Z" fill="#382256"/>
<path d="M134.581 88.6342H134.498C133.797 88.6333 133.125 88.3545 132.629 87.8588C132.133 87.3631 131.854 86.691 131.854 85.99V69.2389C131.854 68.5379 132.133 67.8659 132.629 67.3702C133.125 66.8745 133.797 66.5956 134.498 66.5947H134.581C135.282 66.5956 135.954 66.8745 136.45 67.3702C136.946 67.8659 137.225 68.5379 137.225 69.2389V85.99C137.225 86.691 136.946 87.3631 136.45 87.8588C135.954 88.3545 135.282 88.6333 134.581 88.6342ZM134.498 67.5976C134.062 67.5976 133.645 67.7705 133.337 68.0783C133.029 68.3861 132.856 68.8036 132.856 69.2389V85.99C132.856 86.4253 133.029 86.8428 133.337 87.1506C133.645 87.4584 134.062 87.6313 134.498 87.6313H134.581C135.016 87.6313 135.434 87.4584 135.742 87.1506C136.05 86.8428 136.223 86.4253 136.223 85.99V69.2389C136.223 68.8036 136.05 68.3861 135.742 68.0783C135.434 67.7705 135.016 67.5976 134.581 67.5976H134.498Z" fill="#1D1E1B"/>
<path d="M156.433 66.7954H156.35C155.166 66.7954 154.207 67.7548 154.207 68.9382V85.6893C154.207 86.8727 155.166 87.8321 156.35 87.8321H156.433C157.617 87.8321 158.576 86.8727 158.576 85.6893V68.9382C158.576 67.7548 157.617 66.7954 156.433 66.7954Z" fill="#382256"/>
<path d="M156.431 88.3335H156.351C155.649 88.3335 154.976 88.0549 154.48 87.5592C153.983 87.0634 153.704 86.3908 153.703 85.6892V68.9382C153.704 68.2366 153.983 67.564 154.48 67.0682C154.976 66.5724 155.649 66.2939 156.351 66.2939H156.431C157.133 66.2939 157.805 66.5724 158.302 67.0682C158.798 67.564 159.078 68.2366 159.078 68.9382V85.6892C159.078 86.3908 158.798 87.0634 158.302 87.5592C157.805 88.0549 157.133 88.3335 156.431 88.3335ZM156.351 67.2968C155.915 67.2968 155.497 67.4696 155.189 67.7773C154.88 68.0851 154.707 68.5025 154.706 68.9382V85.6892C154.707 86.1249 154.88 86.5423 155.189 86.8501C155.497 87.1578 155.915 87.3306 156.351 87.3306H156.431C156.867 87.3306 157.284 87.1578 157.593 86.8501C157.901 86.5423 158.075 86.1249 158.076 85.6892V68.9382C158.075 68.5025 157.901 68.0851 157.593 67.7773C157.284 67.4696 156.867 67.2968 156.431 67.2968H156.351Z" fill="#1D1E1B"/>
<path d="M178.283 67.0962H178.199C177.016 67.0962 176.057 68.0556 176.057 69.239V85.9901C176.057 87.1735 177.016 88.1328 178.199 88.1328H178.283C179.466 88.1328 180.426 87.1735 180.426 85.9901V69.239C180.426 68.0556 179.466 67.0962 178.283 67.0962Z" fill="#382256"/>
<path d="M178.282 88.6342H178.202C177.501 88.6342 176.828 88.3557 176.331 87.8599C175.835 87.3642 175.556 86.6916 175.555 85.99V69.2389C175.556 68.5373 175.835 67.8648 176.331 67.369C176.828 66.8732 177.501 66.5947 178.202 66.5947H178.282C178.983 66.5956 179.655 66.8745 180.151 67.3702C180.647 67.8659 180.926 68.5379 180.927 69.2389V85.99C180.926 86.691 180.647 87.3631 180.151 87.8588C179.655 88.3545 178.983 88.6333 178.282 88.6342ZM178.202 67.5976C177.767 67.5976 177.349 67.7704 177.04 68.0781C176.732 68.3858 176.558 68.8033 176.558 69.2389V85.99C176.558 86.4256 176.732 86.8431 177.04 87.1508C177.349 87.4585 177.767 87.6313 178.202 87.6313H178.282C178.718 87.6313 179.135 87.4584 179.443 87.1506C179.751 86.8428 179.924 86.4253 179.924 85.99V69.2389C179.924 68.8036 179.751 68.3861 179.443 68.0783C179.135 67.7705 178.718 67.5976 178.282 67.5976H178.202Z" fill="#1D1E1B"/>
<path d="M200.136 67.0962H200.053C198.869 67.0962 197.91 68.0556 197.91 69.239V85.9901C197.91 87.1735 198.869 88.1328 200.053 88.1328H200.136C201.32 88.1328 202.279 87.1735 202.279 85.9901V69.239C202.279 68.0556 201.32 67.0962 200.136 67.0962Z" fill="#382256"/>
<path d="M200.136 88.6342H200.052C199.351 88.6333 198.679 88.3545 198.184 87.8588C197.688 87.3631 197.409 86.691 197.408 85.99V69.2389C197.409 68.5379 197.688 67.8659 198.184 67.3702C198.679 66.8745 199.351 66.5956 200.052 66.5947H200.136C200.837 66.5956 201.509 66.8745 202.005 67.3702C202.5 67.8659 202.779 68.5379 202.78 69.2389V85.99C202.779 86.691 202.5 87.3631 202.005 87.8588C201.509 88.3545 200.837 88.6333 200.136 88.6342ZM200.052 67.5976C199.617 67.5976 199.2 67.7705 198.892 68.0783C198.584 68.3861 198.411 68.8036 198.411 69.2389V85.99C198.411 86.4253 198.584 86.8428 198.892 87.1506C199.2 87.4584 199.617 87.6313 200.052 87.6313H200.136C200.571 87.6313 200.989 87.4584 201.297 87.1506C201.604 86.8428 201.777 86.4253 201.777 85.99V69.2389C201.777 68.8036 201.604 68.3861 201.297 68.0783C200.989 67.7705 200.571 67.5976 200.136 67.5976H200.052Z" fill="#1D1E1B"/>
<path d="M221.984 66.7954H221.901C220.717 66.7954 219.758 67.7548 219.758 68.9382V85.6893C219.758 86.8727 220.717 87.8321 221.901 87.8321H221.984C223.168 87.8321 224.127 86.8727 224.127 85.6893V68.9382C224.127 67.7548 223.168 66.7954 221.984 66.7954Z" fill="#382256"/>
<path d="M221.984 88.3335H221.903C221.202 88.3335 220.529 88.0549 220.032 87.5592C219.536 87.0634 219.257 86.3908 219.256 85.6892V68.9382C219.257 68.2366 219.536 67.564 220.032 67.0682C220.529 66.5724 221.202 66.2939 221.903 66.2939H221.984C222.685 66.2939 223.358 66.5724 223.855 67.0682C224.351 67.564 224.63 68.2366 224.631 68.9382V85.6892C224.63 86.3908 224.351 87.0634 223.855 87.5592C223.358 88.0549 222.685 88.3335 221.984 88.3335ZM221.903 67.2968C221.468 67.2968 221.05 67.4696 220.742 67.7773C220.434 68.0851 220.26 68.5025 220.259 68.9382V85.6892C220.26 86.1249 220.434 86.5423 220.742 86.8501C221.05 87.1578 221.468 87.3306 221.903 87.3306H221.984C222.419 87.3306 222.837 87.1578 223.146 86.8501C223.454 86.5423 223.627 86.1249 223.628 85.6892V68.9382C223.627 68.5025 223.454 68.0851 223.146 67.7773C222.837 67.4696 222.419 67.2968 221.984 67.2968H221.903Z" fill="#1D1E1B"/>
<path d="M243.836 67.0962H243.752C242.569 67.0962 241.609 68.0556 241.609 69.239V85.9901C241.609 87.1735 242.569 88.1328 243.752 88.1328H243.836C245.019 88.1328 245.979 87.1735 245.979 85.9901V69.239C245.979 68.0556 245.019 67.0962 243.836 67.0962Z" fill="#382256"/>
<path d="M243.835 88.6342H243.752C243.051 88.6333 242.379 88.3545 241.883 87.8588C241.387 87.3631 241.108 86.691 241.107 85.99V69.2389C241.108 68.5379 241.387 67.8659 241.883 67.3702C242.379 66.8745 243.051 66.5956 243.752 66.5947H243.835C244.536 66.5956 245.208 66.8745 245.704 67.3702C246.2 67.8659 246.479 68.5379 246.48 69.2389V85.99C246.479 86.691 246.2 87.3631 245.704 87.8588C245.208 88.3545 244.536 88.6333 243.835 88.6342ZM243.752 67.5976C243.316 67.5976 242.899 67.7705 242.591 68.0783C242.283 68.3861 242.11 68.8036 242.11 69.2389V85.99C242.11 86.4253 242.283 86.8428 242.591 87.1506C242.899 87.4584 243.316 87.6313 243.752 87.6313H243.835C244.271 87.6313 244.688 87.4584 244.996 87.1506C245.304 86.8428 245.477 86.4253 245.477 85.99V69.2389C245.477 68.8036 245.304 68.3861 244.996 68.0783C244.688 67.7705 244.271 67.5976 243.835 67.5976H243.752Z" fill="#1D1E1B"/>
<path d="M54.0029 96.3799H53V166.58H54.0029V96.3799Z" fill="#1D1D1B"/>
<path d="M247.219 38.4111C245.431 34.0654 243.091 30.2813 240.076 27.2393C237.746 24.9022 234.672 23.4534 231.386 23.1439C228.1 22.8344 224.81 23.6836 222.084 25.5444C216.248 29.5224 211.855 35.1184 208.713 42.105C215.93 45.508 220.818 47.7243 224.538 55.7338C229.934 45.508 236.856 34.5133 247.219 38.4111Z" fill="white"/>
<path d="M224.542 56.2354C224.448 56.2334 224.357 56.2051 224.278 56.1537C224.2 56.1023 224.137 56.0298 224.098 55.9446C220.504 48.2092 215.851 46.0163 208.804 42.6968L208.513 42.5597C208.392 42.5031 208.299 42.401 208.253 42.2758C208.208 42.1505 208.213 42.0122 208.269 41.8912C211.512 34.6806 216.068 29.0378 221.814 25.1233C224.636 23.193 228.044 22.3119 231.447 22.6331C234.851 22.9543 238.034 24.4575 240.444 26.8817C243.393 29.8568 245.83 33.6677 247.695 38.214C247.735 38.3049 247.747 38.4055 247.729 38.5032C247.712 38.601 247.666 38.6913 247.598 38.7629C247.529 38.8345 247.44 38.884 247.344 38.9054C247.247 38.9267 247.145 38.9187 247.053 38.8826C237.482 35.279 230.797 44.9666 224.99 55.9713C224.946 56.0518 224.882 56.1189 224.803 56.1655C224.724 56.212 224.634 56.2362 224.542 56.2354ZM209.379 41.8611C216.014 44.99 220.892 47.3333 224.566 54.6275C230.249 43.9838 236.871 34.8444 246.324 37.5789C244.753 33.8728 242.515 30.4863 239.722 27.587C237.477 25.3295 234.511 23.9298 231.341 23.6312C228.171 23.3326 224.997 24.1538 222.369 25.9524C216.897 29.6897 212.528 35.0383 209.379 41.8611Z" fill="#1D1D1B"/>
<path d="M224.822 24.0938C224.822 24.0938 230.585 24.2509 232.22 28.2791C232.22 28.2791 236.201 23.7561 239.384 26.5775C239.37 26.5775 233.393 20.664 224.822 24.0938Z" fill="#4BD657"/>
<path d="M232.046 29.2185L231.742 28.4697C230.251 24.7925 224.848 24.5953 224.795 24.5953L222.385 24.5251L224.621 23.6292C233.413 20.0991 239.664 26.1597 239.724 26.2199L239.056 26.952C238.763 26.6752 238.416 26.4619 238.037 26.3256C237.658 26.1892 237.255 26.1328 236.853 26.1597C234.67 26.2934 232.621 28.59 232.597 28.6134L232.046 29.2185ZM227.031 23.9033C228.786 24.3111 231.143 25.2404 232.38 27.42C233.172 26.6745 234.784 25.3775 236.589 25.1769C233.68 23.5393 230.253 23.0832 227.018 23.9033H227.031Z" fill="black"/>
<path d="M224.125 28.9707C224.125 28.9707 230.443 30.4048 232.148 36.1445L224.125 28.9707Z" fill="white"/>
<path d="M232.177 36.6494C232.069 36.6496 231.964 36.6149 231.877 36.5505C231.79 36.486 231.726 36.3952 231.695 36.2917C230.081 30.9064 224.087 29.4723 224.027 29.4589C223.963 29.4442 223.902 29.417 223.848 29.3788C223.794 29.3406 223.749 29.2922 223.714 29.2363C223.679 29.1804 223.655 29.1182 223.644 29.0531C223.633 28.9881 223.635 28.9215 223.649 28.8572C223.664 28.7929 223.691 28.7321 223.729 28.6783C223.768 28.6245 223.816 28.5788 223.872 28.5437C223.928 28.5086 223.99 28.4849 224.055 28.4739C224.12 28.4628 224.187 28.4647 224.251 28.4794C224.518 28.543 230.87 30.0506 232.655 36.0009C232.693 36.1281 232.68 36.2654 232.617 36.3826C232.555 36.4999 232.448 36.5874 232.321 36.626C232.274 36.64 232.226 36.6479 232.177 36.6494Z" fill="#1D1D1B"/>
<path d="M219.246 34.4233C219.246 34.4233 225.848 34.9983 226.707 41.0255L219.246 34.4233Z" fill="white"/>
<path d="M226.707 41.527C226.587 41.5265 226.47 41.4827 226.38 41.4035C226.289 41.3243 226.23 41.2151 226.213 41.0957C225.417 35.5432 219.454 34.9449 219.193 34.9248C219.127 34.9189 219.063 34.9 219.004 34.8694C218.946 34.8387 218.894 34.7968 218.851 34.746C218.809 34.6953 218.777 34.6367 218.757 34.5735C218.738 34.5104 218.73 34.4441 218.736 34.3782C218.742 34.3124 218.761 34.2484 218.792 34.1898C218.823 34.1312 218.865 34.0793 218.915 34.0369C218.966 33.9945 219.025 33.9626 219.088 33.9428C219.151 33.9231 219.217 33.916 219.283 33.9219C219.353 33.9219 226.303 34.5905 227.199 40.942C227.217 41.074 227.182 41.2078 227.102 41.3143C227.022 41.4207 226.903 41.4912 226.771 41.5102L226.707 41.527Z" fill="#1D1D1B"/>
<path d="M209.486 31.7688C209.416 31.7692 209.348 31.7543 209.285 31.7253C209.224 31.6989 209.168 31.6605 209.122 31.6123C209.076 31.5642 209.04 31.5074 209.016 31.4451C208.992 31.3829 208.981 31.3164 208.983 31.2497C208.985 31.1831 209 31.1174 209.028 31.0567C209.081 30.9364 214.443 19.0224 226.628 16.9866C226.761 16.9649 226.897 16.9969 227.006 17.0756C227.116 17.1543 227.189 17.2732 227.211 17.4062C227.233 17.5391 227.201 17.6753 227.122 17.7847C227.044 17.8941 226.925 17.9678 226.792 17.9895C215.152 19.9283 209.997 31.3609 209.944 31.4746C209.904 31.5628 209.84 31.6375 209.758 31.6898C209.677 31.742 209.582 31.7694 209.486 31.7688Z" fill="#1D1D1B"/>
<path d="M289.676 121.485C292.534 127.836 296.178 133.302 300.781 137.651C304.338 140.992 308.952 142.984 313.824 143.283C318.695 143.581 323.518 142.167 327.457 139.286C335.891 133.118 342.112 124.631 346.414 114.151C335.577 109.471 328.249 106.435 322.346 94.7622C314.895 110.156 305.173 126.747 289.676 121.485Z" fill="white"/>
<path d="M315.082 143.832C309.635 143.839 304.392 141.758 300.434 138.015C295.951 133.783 292.18 128.291 289.215 121.692C289.176 121.603 289.163 121.503 289.178 121.407C289.194 121.31 289.237 121.22 289.302 121.147C289.368 121.075 289.453 121.024 289.547 120.999C289.642 120.975 289.741 120.979 289.833 121.01C304.335 125.934 313.815 111.206 321.902 94.5548C321.943 94.4709 322.006 94.4001 322.086 94.3505C322.165 94.3009 322.256 94.2744 322.35 94.2739C322.442 94.2745 322.533 94.3003 322.612 94.3486C322.691 94.397 322.755 94.4659 322.798 94.5481C328.527 105.887 335.544 108.922 346.168 113.502L346.605 113.693C346.726 113.744 346.821 113.841 346.871 113.962C346.921 114.084 346.922 114.22 346.873 114.341C342.447 125.119 336.012 133.646 327.745 139.69C324.071 142.381 319.636 143.832 315.082 143.832ZM290.612 122.287C293.447 128.304 296.981 133.352 301.136 137.277C304.605 140.542 309.109 142.489 313.865 142.781C318.62 143.072 323.328 141.689 327.17 138.871C335.17 133.021 341.427 124.794 345.773 114.408C335.614 110.022 328.203 106.82 322.373 95.8785C314.383 112.172 304.967 126.335 290.612 122.287Z" fill="#1D1D1B"/>
<path d="M323.512 141.559C323.512 141.559 314.984 141.609 312.37 135.732C312.37 135.732 306.707 142.612 301.863 138.597C301.863 138.597 310.989 147.071 323.512 141.559Z" fill="#4BD657"/>
<path d="M315.045 143.909C310.104 143.861 305.33 142.115 301.523 138.965L302.192 138.213C302.664 138.626 303.216 138.939 303.813 139.131C304.41 139.324 305.04 139.392 305.665 139.332C308.981 139.018 311.963 135.448 311.993 135.411L312.508 134.786L312.842 135.528C315.296 141.044 323.449 141.061 323.523 141.057H325.943L323.727 142.033C320.996 143.26 318.038 143.899 315.045 143.909ZM305.331 140.355C307.736 141.708 310.397 142.543 313.143 142.806C315.89 143.069 318.662 142.755 321.28 141.883C318.625 141.502 314.31 140.312 312.254 136.615C311.204 137.714 308.66 140.054 305.755 140.329C305.611 140.339 305.471 140.339 305.331 140.355Z" fill="black"/>
<path d="M324.283 134.321C324.283 134.321 314.879 132.506 312.055 124.105L324.283 134.321Z" fill="white"/>
<path d="M324.284 134.819C324.253 134.823 324.221 134.823 324.19 134.819C323.792 134.746 314.465 132.854 311.577 124.273C311.533 124.146 311.541 124.007 311.599 123.887C311.657 123.766 311.76 123.673 311.887 123.629C312.013 123.585 312.152 123.592 312.272 123.65C312.393 123.708 312.486 123.812 312.53 123.938C315.231 131.961 324.287 133.806 324.381 133.823C324.514 133.836 324.636 133.901 324.721 134.004C324.806 134.107 324.846 134.24 324.833 134.373C324.821 134.506 324.755 134.628 324.652 134.713C324.549 134.798 324.417 134.839 324.284 134.826V134.819Z" fill="#1D1D1B"/>
<path d="M331.233 126.017C331.233 126.017 321.445 125.493 319.867 116.621L331.233 126.017Z" fill="white"/>
<path d="M331.233 126.519H331.207C331.103 126.519 321.001 125.85 319.383 116.711C319.359 116.578 319.39 116.441 319.467 116.331C319.544 116.22 319.663 116.145 319.796 116.121C319.929 116.098 320.065 116.128 320.176 116.205C320.287 116.283 320.362 116.401 320.386 116.534C321.863 124.891 330.889 125.496 331.273 125.516C331.406 125.52 331.533 125.576 331.624 125.672C331.716 125.769 331.765 125.898 331.761 126.031C331.758 126.164 331.702 126.29 331.605 126.382C331.509 126.473 331.38 126.523 331.247 126.519H331.233Z" fill="#1D1D1B"/>
<path d="M303.071 113.452C302.96 113.452 302.853 113.415 302.765 113.348C302.677 113.281 302.614 113.187 302.585 113.08C302.557 112.973 302.564 112.86 302.607 112.758C302.649 112.656 302.724 112.571 302.82 112.516C312.962 106.686 315.426 94.7984 315.449 94.6915C315.476 94.5609 315.553 94.4462 315.664 94.3724C315.775 94.2985 315.91 94.2714 316.041 94.297C316.166 94.3259 316.276 94.4023 316.346 94.5101C316.416 94.6179 316.443 94.7488 316.419 94.8753C316.395 94.999 313.851 107.311 303.308 113.375C303.236 113.419 303.155 113.445 303.071 113.452Z" fill="#1D1D1B"/>
<path d="M105.144 224.258C106.397 224.038 107.234 222.843 107.014 221.588C106.794 220.333 105.6 219.495 104.347 219.714C103.094 219.934 102.257 221.129 102.477 222.384C102.697 223.639 103.891 224.478 105.144 224.258Z" fill="#51CEF4"/>
<path d="M240.395 149.758C240.395 149.758 244.971 162.207 253.205 156.978C261.438 151.75 274.823 144.376 283.879 156.253C292.935 168.13 297.919 176.872 307.947 173.743C317.976 170.614 339.167 197.591 314.533 213.717C274.161 240.152 219.652 168.902 219.652 168.902L225.67 159.633L240.395 149.758Z" fill="#382256"/>
<path d="M240.394 149.758C240.394 149.758 243.52 158.262 249.253 158.262C250.666 158.223 252.038 157.777 253.204 156.979C258.178 153.816 265.044 149.872 271.693 149.872C276.039 149.872 280.298 151.543 283.878 156.253C291.674 166.479 296.464 174.382 304.046 174.382C305.374 174.368 306.693 174.153 307.957 173.743C308.511 173.572 309.088 173.488 309.668 173.492C320.135 173.492 337.848 198.46 314.542 213.717C308.698 217.593 301.832 219.641 294.819 219.601C258.449 219.601 219.665 168.903 219.665 168.903L225.682 159.633L240.391 149.758H240.394ZM240.889 148.217L239.832 148.926L225.124 158.8L224.953 158.914L224.843 159.088L218.826 168.358L218.441 168.953L218.873 169.514C226.164 178.672 234.215 187.198 242.941 195C251.268 202.411 259.452 208.318 267.261 212.56C277.085 217.909 286.358 220.603 294.826 220.603C302.027 220.633 309.076 218.526 315.08 214.549C320.472 211.023 324.089 206.754 325.834 201.867C327.322 197.708 327.392 193.112 326.042 188.582C324.736 184.273 322.363 180.363 319.142 177.216C316.036 174.208 312.58 172.476 309.658 172.476C308.979 172.474 308.303 172.573 307.653 172.77C306.487 173.152 305.269 173.353 304.042 173.365C297.932 173.365 293.569 167.522 287.528 159.432C286.616 158.205 285.67 156.942 284.67 155.631C281.244 151.135 276.875 148.855 271.69 148.855C265.004 148.855 258.318 152.533 252.662 156.119C251.655 156.812 250.471 157.202 249.249 157.246C244.288 157.246 241.36 149.477 241.33 149.397L240.889 148.204V148.217Z" fill="#1D1E1B"/>
<path d="M225.668 159.633L240.377 149.758C240.377 149.758 242.633 155.896 246.825 157.741C245.311 163.046 241.443 166.432 235.837 168.418C235.837 168.418 255.41 177.267 263.81 186.419C269.46 192.574 292.315 220.851 281.069 217.401C271.078 214.342 261.296 208.409 252.578 201.713C241.313 186.7 228.319 169.371 223.525 162.916L225.668 159.633Z" fill="#050505"/>
<path d="M221.314 178.949C221.314 178.949 209.46 220.818 170.195 247.16C140.631 267 141.637 263.737 127.871 256.831C115.837 250.783 95.211 222.63 97.0797 212.798C98.9484 202.967 106.079 202.486 106.079 202.486L105.992 194.894L131.732 188.954L132.912 193.938C132.912 193.938 143.121 195.365 144.164 204.582C145.207 213.798 148.764 226.013 146.781 230.99C146.781 230.99 155.175 189.596 209.962 171.918" fill="#07ACEE"/>
<path d="M141.222 262.687C137.9 262.687 135.189 261.243 131.251 259.154C130.181 258.586 128.971 257.941 127.647 257.279C121.964 254.424 113.794 246.277 106.848 236.526C99.5403 226.26 95.7027 217.355 96.5885 212.705C98.2232 204.094 103.893 202.379 105.574 202.058L105.484 194.493L132.093 188.349L133.31 193.5C135.139 193.864 143.673 196.011 144.649 204.532C144.983 207.447 145.568 210.716 146.143 213.892C146.925 218.214 147.681 222.389 147.835 225.792C150.205 219.399 153.424 213.353 157.405 207.818C162.777 200.336 169.271 193.73 176.66 188.232C186.097 181.158 197.242 175.529 209.791 171.467L210.099 172.423C181.955 181.503 166.371 196.977 158.251 208.356C151.529 217.779 148.674 226.03 147.691 229.446C147.605 230.046 147.451 230.635 147.233 231.201L146.277 230.917C146.277 230.893 146.407 230.298 146.708 229.245C147.25 225.635 146.19 219.768 145.157 214.069C144.579 210.893 143.984 207.607 143.653 204.655C142.667 195.94 133.23 194.51 132.828 194.453L132.494 194.406L131.354 189.569L106.487 195.292L106.577 202.954L106.102 202.987C105.828 203.007 99.3296 203.582 97.5612 212.892C96.7422 217.214 100.61 226.046 107.657 235.958C114.513 245.585 122.532 253.608 128.085 256.396C129.422 257.065 130.636 257.71 131.709 258.281C141.881 263.684 143.442 264.513 169.904 246.759C190.098 233.21 202.862 215.466 210.019 202.967C217.774 189.412 220.793 178.929 220.823 178.825L221.786 179.099C221.755 179.203 218.717 189.796 210.904 203.438C203.694 216.038 190.827 233.929 170.456 247.591C153.731 258.813 146.661 262.687 141.222 262.687Z" fill="#1D1D1B"/>
<path d="M140.584 261.684H144.706C147.637 260.909 151.264 259.154 156.389 256.072L168.46 217.692C149.202 230.529 140.584 261.684 140.584 261.684Z" fill="#0598C6"/>
<path d="M132.303 194.466C132.303 194.466 128.088 206.808 106.275 202.937L106.369 195.449L130.979 189.696L132.303 194.466Z" fill="#0598C6"/>
<path d="M170.445 215.098C145.905 245.726 148.486 291.51 148.486 291.51L272.714 292.847C272.714 292.847 271.58 171.22 221.414 173.349" fill="#07ACEE"/>
<path d="M272.713 293.348L148.486 292.011C148.358 292.01 148.236 291.961 148.143 291.874C148.051 291.786 147.995 291.667 147.987 291.54C147.987 291.426 147.369 279.863 149.773 264.71C151.992 250.713 157.314 230.693 170.057 214.784C170.14 214.68 170.261 214.614 170.394 214.6C170.526 214.585 170.659 214.624 170.762 214.707C170.866 214.791 170.932 214.912 170.947 215.044C170.961 215.176 170.922 215.309 170.839 215.413C158.237 231.141 152.968 250.974 150.765 264.843C149.367 273.494 148.766 282.254 148.97 291.015L272.208 292.352C271.82 277.404 270.491 262.495 268.227 247.715C264.77 225.612 257.53 196.315 242.754 182.268C236.523 176.355 229.356 173.526 221.437 173.861C221.304 173.865 221.175 173.817 221.077 173.727C220.98 173.637 220.921 173.512 220.915 173.379C220.912 173.314 220.921 173.248 220.944 173.186C220.966 173.124 221 173.067 221.045 173.018C221.089 172.969 221.143 172.93 221.203 172.903C221.263 172.875 221.328 172.86 221.393 172.858C229.587 172.524 237.011 175.432 243.456 181.549C250.092 187.851 255.785 197.635 260.378 210.632C264.055 220.995 267.017 233.427 269.23 247.578C271.54 262.569 272.88 277.693 273.241 292.857C273.242 292.923 273.23 292.989 273.205 293.05C273.18 293.111 273.143 293.167 273.097 293.214C273.05 293.261 272.994 293.299 272.933 293.324C272.872 293.349 272.806 293.362 272.74 293.361L272.713 293.348Z" fill="#1D1D1B"/>
<path d="M233.014 174.268C233.014 174.268 282.391 195.916 292.484 242.111C300.082 276.894 297.31 277.322 285.831 287.591C275.802 296.58 242.136 302.855 233.682 297.506C225.228 292.157 227.398 285.348 227.398 285.348L220.301 282.644L224.222 256.529L229.293 257.265C229.293 257.265 234.368 248.289 243.333 250.706C252.299 253.123 264.955 254.293 268.866 257.967" fill="#07ACEE"/>
<path d="M244.188 299.98C239.682 299.98 235.74 299.405 233.407 297.931C225.999 293.251 226.484 287.344 226.802 285.662L219.738 282.968L223.793 255.961L229.031 256.72C230.034 255.152 235.176 247.988 243.446 250.221C246.281 250.984 249.54 251.635 252.689 252.261C259.752 253.668 266.422 254.998 269.193 257.609L268.504 258.338C265.943 255.931 259.107 254.57 252.495 253.253C249.326 252.622 246.05 251.97 243.185 251.194C234.701 248.908 229.77 257.432 229.72 257.516L229.553 257.816L224.636 257.104L220.851 282.326L228.012 285.057L227.865 285.509C227.784 285.773 225.933 292.027 233.942 297.088C237.71 299.472 247.571 299.609 259.064 297.439C270.8 295.223 280.929 291.308 285.496 287.224L287.043 285.846C297.072 276.954 299.171 275.102 291.991 242.225C286.813 218.514 271.011 201.442 258.666 191.28C245.268 180.249 232.926 174.79 232.812 174.733L233.213 173.817C233.337 173.87 245.779 179.383 259.288 190.488C267.22 197.01 273.969 204.16 279.345 211.738C286.071 221.225 290.657 231.408 292.974 242.011C296.801 259.525 297.841 267.715 296.958 273.307C296.019 279.241 292.89 281.999 287.712 286.598L286.168 287.972C280.555 292.987 268.584 296.664 259.254 298.425C254.434 299.325 248.988 299.977 244.188 299.98Z" fill="#1D1D1B"/>
<path d="M229.556 258.007C229.556 258.007 239.485 266.458 227.885 285.325L220.955 282.49L224.632 257.486L229.556 258.007Z" fill="#0598C6"/>
<path d="M212.588 169.665C210.237 170.722 208.349 172.595 207.272 174.937C205.223 179.44 207.941 186.637 218.638 182.96C218.638 182.96 222.406 191.257 232.678 187.305C241.37 183.962 240.701 178.657 234.092 175.585C228.366 172.924 212.588 169.665 212.588 169.665Z" fill="white"/>
<path d="M227.478 188.87C221.906 188.87 219.148 184.858 218.399 183.568C212.047 185.634 209.015 183.685 207.772 182.314C206.017 180.382 205.632 177.334 206.816 174.729C207.942 172.264 209.931 170.296 212.408 169.197L212.549 169.144L212.692 169.174C213.338 169.307 228.591 172.476 234.307 175.131C237.767 176.742 239.706 178.998 239.626 181.325C239.542 183.839 237.139 186.129 232.86 187.773C231.149 188.467 229.324 188.838 227.478 188.87ZM218.907 182.338L219.097 182.752C219.241 183.087 222.808 190.565 232.499 186.837C236.377 185.346 238.553 183.377 238.623 181.292C238.69 179.386 236.951 177.471 233.883 176.043C228.571 173.573 214.287 170.531 212.642 170.187C210.479 171.218 208.743 172.971 207.732 175.144C206.709 177.39 207.023 180.001 208.514 181.643C210.419 183.739 213.956 184.039 218.476 182.485L218.907 182.338Z" fill="#1D1E1B"/>
<path d="M126.015 210.621C127.268 210.401 128.105 209.206 127.885 207.951C127.665 206.696 126.471 205.857 125.218 206.077C123.965 206.297 123.128 207.492 123.348 208.747C123.568 210.002 124.762 210.841 126.015 210.621Z" fill="#51CEF4"/>
<path d="M134.722 250.553C135.975 250.333 136.812 249.138 136.592 247.883C136.372 246.628 135.178 245.789 133.925 246.009C132.672 246.229 131.835 247.424 132.055 248.679C132.275 249.934 133.469 250.773 134.722 250.553Z" fill="#51CEF4"/>
<path d="M126.04 230.252C127.293 230.032 128.13 228.837 127.91 227.582C127.69 226.327 126.496 225.488 125.243 225.708C123.99 225.928 123.153 227.123 123.373 228.378C123.593 229.633 124.787 230.472 126.04 230.252Z" fill="#51CEF4"/>
<path d="M288.189 262.025C288.444 260.779 287.64 259.562 286.392 259.306C285.144 259.05 283.925 259.852 283.67 261.099C283.414 262.345 284.219 263.562 285.467 263.818C286.714 264.074 287.933 263.271 288.189 262.025Z" fill="#51CEF4"/>
<path d="M249.289 208.686C249.384 207.417 248.43 206.312 247.16 206.217C245.89 206.123 244.783 207.074 244.689 208.343C244.594 209.611 245.547 210.716 246.818 210.811C248.088 210.906 249.195 209.954 249.289 208.686Z" fill="#51CEF4"/>
<path d="M247.396 294.259C247.651 293.012 246.847 291.795 245.599 291.539C244.351 291.283 243.132 292.086 242.877 293.332C242.621 294.578 243.426 295.795 244.674 296.051C245.921 296.307 247.14 295.505 247.396 294.259Z" fill="#51CEF4"/>
<path d="M268.38 276.698C268.636 275.452 267.831 274.234 266.584 273.978C265.336 273.722 264.117 274.525 263.861 275.771C263.606 277.017 264.41 278.235 265.658 278.491C266.906 278.747 268.125 277.944 268.38 276.698Z" fill="#51CEF4"/>
<path d="M273.891 228.811C275.163 228.811 276.194 227.778 276.194 226.504C276.194 225.23 275.163 224.198 273.891 224.198C272.619 224.198 271.588 225.23 271.588 226.504C271.588 227.778 272.619 228.811 273.891 228.811Z" fill="#51CEF4"/>
<path d="M161.577 276.276C162.849 276.276 163.88 275.244 163.88 273.97C163.88 272.696 162.849 271.663 161.577 271.663C160.305 271.663 159.273 272.696 159.273 273.97C159.273 275.244 160.305 276.276 161.577 276.276Z" fill="#51CEF4"/>
<path d="M224.59 228.954C224.951 228.617 225.195 228.171 225.284 227.685C225.374 227.198 225.304 226.695 225.085 226.251C224.867 225.807 224.512 225.445 224.072 225.218C223.632 224.991 223.131 224.912 222.642 224.992C222.154 225.072 221.704 225.308 221.36 225.663C221.015 226.018 220.794 226.475 220.729 226.966C220.664 227.456 220.758 227.955 220.999 228.388C221.239 228.82 221.612 229.164 222.063 229.369C222.478 229.556 222.939 229.617 223.389 229.543C223.838 229.47 224.256 229.265 224.59 228.954Z" fill="#51CEF4"/>
<path d="M196.252 198.511C197.524 198.511 198.556 197.478 198.556 196.205C198.556 194.931 197.524 193.898 196.252 193.898C194.98 193.898 193.949 194.931 193.949 196.205C193.949 197.478 194.98 198.511 196.252 198.511Z" fill="#51CEF4"/>
<path d="M242.374 269.841C242.63 268.595 241.826 267.378 240.578 267.122C239.33 266.866 238.111 267.668 237.855 268.914C237.6 270.161 238.404 271.378 239.652 271.634C240.9 271.89 242.119 271.087 242.374 269.841Z" fill="#51CEF4"/>
<path d="M98.5251 199.41C107.273 199.932 115.47 199.046 122.991 196.452C128.781 194.434 133.683 190.456 136.851 185.207C140.018 179.957 141.251 173.766 140.338 167.703C138.379 154.72 132.545 142.849 123.376 131.961C111.86 141.305 104.208 147.703 87.791 147.482C100.574 164.742 113.397 185.22 98.5251 199.41Z" fill="white"/>
<path d="M103.181 200.052C101.643 200.052 100.083 200.005 98.5008 199.912C98.4029 199.904 98.3094 199.869 98.2311 199.809C98.1529 199.75 98.0933 199.67 98.0596 199.577C98.0264 199.486 98.0203 199.387 98.0423 199.292C98.0642 199.197 98.1133 199.11 98.1833 199.043C112.177 185.691 101.269 166.503 87.3958 147.76C87.34 147.685 87.3062 147.595 87.2986 147.502C87.2909 147.409 87.3095 147.315 87.3523 147.232C87.3934 147.148 87.458 147.078 87.538 147.03C87.6181 146.982 87.7103 146.958 87.8036 146.961C103.809 147.175 111.287 141.111 122.6 131.918L123.068 131.54C123.17 131.458 123.3 131.418 123.431 131.431C123.561 131.443 123.682 131.507 123.766 131.607C133.18 142.789 138.923 154.897 140.838 167.6C141.783 173.781 140.532 180.098 137.303 185.453C134.073 190.808 129.07 194.862 123.161 196.91C117.131 199.002 110.428 200.052 103.181 200.052ZM99.6775 198.969C108.168 199.357 115.951 198.351 122.827 195.961C128.514 193.989 133.331 190.087 136.44 184.933C139.549 179.778 140.752 173.697 139.842 167.747C137.973 155.378 132.414 143.558 123.308 132.627L123.228 132.693C111.983 141.819 104.475 147.914 88.7965 147.954C102.379 166.463 112.808 185.33 99.6775 198.969Z" fill="#1D1D1B"/>
<path d="M140.584 173.433C140.584 173.433 135.677 182.956 127.607 182.458C127.607 182.458 131.976 192.771 124.686 195.83C124.672 195.803 139.421 190.571 140.584 173.433Z" fill="#4BD657"/>
<path d="M124.84 196.278L124.479 195.342C125.23 195.05 125.914 194.609 126.489 194.043C127.064 193.478 127.517 192.802 127.821 192.056C129.423 188.125 127.153 182.696 127.136 182.626L126.822 181.88L127.631 181.93C135.263 182.412 140.083 173.279 140.13 173.185L141.236 171.042L141.076 173.449C139.916 190.735 124.99 196.224 124.84 196.278ZM128.33 182.953C128.921 184.625 130.158 188.97 128.747 192.43C128.62 192.747 128.469 193.055 128.296 193.349C132.364 190.745 138.438 185.327 139.842 175.565C137.98 178.28 133.986 182.9 128.33 182.953Z" fill="black"/>
<path d="M135.987 162.482C135.774 162.481 135.569 162.399 135.414 162.253C135.259 162.106 135.166 161.906 135.154 161.693C134.743 154.242 123.979 139.095 123.869 138.945C123.805 138.855 123.759 138.754 123.735 138.647C123.71 138.54 123.706 138.43 123.724 138.321C123.742 138.213 123.781 138.109 123.839 138.016C123.898 137.923 123.973 137.842 124.063 137.778C124.152 137.714 124.253 137.669 124.36 137.644C124.467 137.619 124.578 137.615 124.686 137.633C124.795 137.651 124.898 137.691 124.992 137.749C125.085 137.807 125.165 137.883 125.229 137.972C125.684 138.607 136.385 153.667 136.822 161.599C136.829 161.709 136.813 161.819 136.777 161.923C136.741 162.027 136.685 162.122 136.611 162.204C136.538 162.286 136.449 162.353 136.35 162.401C136.251 162.448 136.143 162.476 136.034 162.482H135.987Z" fill="white"/>
<path d="M67.541 241.961C67.4238 241.961 67.3104 241.921 67.2202 241.846C67.1301 241.771 67.069 241.667 67.0475 241.552C67.0261 241.437 67.0457 241.318 67.1029 241.215C67.16 241.113 67.2511 241.034 67.3604 240.992C90.7037 231.896 101.735 218.668 106.88 209.171C112.439 198.912 112.502 190.729 112.502 190.648C112.502 190.515 112.555 190.388 112.649 190.294C112.743 190.2 112.871 190.147 113.004 190.147C113.137 190.147 113.264 190.2 113.358 190.294C113.452 190.388 113.505 190.515 113.505 190.648C113.505 190.983 113.438 199.169 107.762 209.649C102.537 219.293 91.3489 232.715 67.7215 241.928C67.664 241.951 67.6027 241.962 67.541 241.961Z" fill="#1D1E1B"/>
<path d="M96.9577 240.624C96.8492 240.624 96.7439 240.588 96.6574 240.522C96.5709 240.457 96.508 240.365 96.4782 240.26C96.4484 240.156 96.4534 240.045 96.4922 239.944C96.5311 239.842 96.6017 239.756 96.6936 239.698C110.697 230.987 116.32 218.658 118.569 209.85C121.013 200.279 120.124 192.668 120.114 192.594C120.106 192.529 120.111 192.462 120.129 192.399C120.146 192.335 120.176 192.276 120.217 192.224C120.258 192.172 120.308 192.129 120.366 192.097C120.423 192.064 120.486 192.044 120.552 192.036C120.617 192.027 120.683 192.032 120.747 192.049C120.81 192.067 120.87 192.096 120.921 192.137C120.973 192.177 121.017 192.227 121.049 192.285C121.081 192.342 121.102 192.405 121.11 192.47C121.11 192.547 122.033 200.313 119.549 210.057C117.259 219.06 111.526 231.655 97.2218 240.547C97.1433 240.599 97.0514 240.625 96.9577 240.624Z" fill="#1D1E1B"/>
<path d="M101.806 194.493C101.806 194.493 92.3291 197.167 87.5421 186.971C82.7551 176.775 81.4982 165.871 86.8034 158.965C92.1085 152.058 98.8576 151.236 103.424 153.048C107.99 154.86 109.083 159.663 105.674 164.908C105.674 164.908 112.894 169.548 106.342 178.42C109.317 179.283 112.326 187.974 103.802 189.813C103.583 191.527 102.892 193.148 101.806 194.493Z" fill="#FFCDB2"/>
<path d="M99.0816 195.288C95.7688 195.288 90.3434 194.111 87.0874 187.185C81.7188 175.759 81.4614 165.095 86.4188 158.657C92.0248 151.36 99.1886 150.821 103.621 152.583C105.771 153.435 107.238 154.923 107.86 156.879C108.599 159.195 108.064 161.986 106.359 164.781C107.969 166.061 109.073 167.871 109.474 169.889C109.953 172.48 109.164 175.278 107.134 178.209C108.749 179.139 109.993 181.699 109.906 184.143C109.802 187.152 107.753 189.365 104.273 190.224C103.991 191.9 103.281 193.476 102.214 194.8L102.113 194.93L101.956 194.974C101.014 195.195 100.049 195.3 99.0816 195.288ZM98.9546 152.71C95.2239 152.71 90.9116 154.438 87.201 159.269C82.4909 165.403 82.7884 175.679 87.9966 186.757C92.2654 195.836 100.255 194.349 101.515 194.048C102.486 192.802 103.107 191.319 103.314 189.752L103.357 189.398L103.691 189.321C108.081 188.375 108.823 185.644 108.88 184.106C108.963 181.639 107.509 179.282 106.205 178.901L105.513 178.701L105.941 178.122C108.064 175.241 108.913 172.537 108.468 170.1C108.073 168.186 106.976 166.491 105.393 165.346L104.972 165.072L105.242 164.651C106.981 161.976 107.562 159.336 106.881 157.199C106.352 155.528 105.089 154.268 103.23 153.522C101.869 152.984 100.418 152.707 98.9546 152.707V152.71Z" fill="black"/>
<path d="M89.9555 169.592C89.8332 169.594 89.7143 169.551 89.6213 169.472C89.5202 169.385 89.4576 169.262 89.4469 169.129C89.4363 168.996 89.4785 168.865 89.5645 168.763C89.6313 168.689 96.17 161.221 106.854 164.588C106.976 164.631 107.077 164.72 107.136 164.836C107.194 164.953 107.204 165.087 107.165 165.211C107.126 165.335 107.041 165.439 106.926 165.501C106.812 165.563 106.678 165.578 106.553 165.544C96.5244 162.381 90.5741 169.127 90.3267 169.415C90.2813 169.469 90.2246 169.513 90.1606 169.544C90.0965 169.575 90.0265 169.591 89.9555 169.592Z" fill="#1D1D1B"/>
<path d="M92.854 179.784C92.7358 179.785 92.6211 179.744 92.5303 179.668C92.4395 179.592 92.3782 179.487 92.3574 179.371C92.3366 179.255 92.3577 179.135 92.4167 179.032C92.4757 178.93 92.569 178.852 92.6801 178.811C93.0144 178.691 100.82 175.876 106.626 178.019C106.695 178.035 106.759 178.066 106.815 178.109C106.871 178.152 106.917 178.206 106.951 178.268C106.984 178.329 107.005 178.398 107.01 178.468C107.016 178.538 107.006 178.609 106.982 178.675C106.959 178.741 106.922 178.802 106.873 178.853C106.825 178.904 106.766 178.944 106.701 178.971C106.635 178.997 106.565 179.01 106.495 179.008C106.425 179.006 106.356 178.989 106.292 178.958C100.837 176.953 93.1146 179.724 93.0377 179.754C92.9788 179.775 92.9166 179.785 92.854 179.784Z" fill="#1D1D1B"/>
<path d="M99.2692 191.106C97.9799 191.143 96.7013 190.863 95.5452 190.291C95.4845 190.261 95.4304 190.22 95.3862 190.169C95.342 190.118 95.3085 190.058 95.2878 189.994C95.2671 189.93 95.2596 189.862 95.2657 189.795C95.2719 189.727 95.2915 189.662 95.3235 189.603C95.3555 189.543 95.3991 189.491 95.4518 189.449C95.5045 189.406 95.5652 189.375 95.6302 189.357C95.6953 189.339 95.7634 189.334 95.8303 189.343C95.8973 189.352 95.9617 189.374 96.0199 189.408C99.0552 191.036 103.932 189.285 103.979 189.268C104.042 189.24 104.11 189.226 104.179 189.226C104.248 189.225 104.317 189.239 104.38 189.267C104.443 189.294 104.5 189.334 104.547 189.385C104.594 189.435 104.63 189.494 104.653 189.559C104.676 189.624 104.686 189.693 104.681 189.762C104.676 189.831 104.657 189.898 104.625 189.959C104.593 190.02 104.549 190.074 104.496 190.117C104.442 190.161 104.38 190.192 104.314 190.211C102.689 190.772 100.987 191.074 99.2692 191.106Z" fill="#1D1D1B"/>
<path d="M86.2958 165.246C86.2155 165.247 86.1355 165.235 86.0585 165.213C85.9531 165.182 85.8547 165.13 85.7693 165.061C85.6838 164.992 85.6128 164.907 85.5603 164.81C85.5079 164.713 85.475 164.608 85.4635 164.498C85.4521 164.389 85.4623 164.278 85.4936 164.173C85.5671 163.929 87.3221 158.179 92.5972 155.341C95.8999 153.563 99.8144 153.335 104.23 154.673C104.34 154.701 104.442 154.75 104.532 154.819C104.621 154.888 104.696 154.974 104.751 155.072C104.807 155.17 104.842 155.279 104.854 155.391C104.866 155.503 104.856 155.617 104.823 155.725C104.79 155.833 104.736 155.933 104.663 156.02C104.591 156.106 104.502 156.177 104.401 156.228C104.3 156.279 104.19 156.309 104.078 156.316C103.965 156.324 103.852 156.308 103.745 156.271C99.7708 155.064 96.2842 155.241 93.3826 156.802C88.7026 159.316 87.1048 164.584 87.0881 164.638C87.0397 164.811 86.9362 164.964 86.7933 165.074C86.6505 165.184 86.4759 165.244 86.2958 165.246Z" fill="white"/>
<path d="M90.2728 174.101C90.1099 174.102 89.9505 174.054 89.8148 173.964C89.6295 173.843 89.5001 173.652 89.455 173.436C89.4099 173.219 89.4528 172.993 89.5742 172.807C89.6277 172.727 95.0397 164.637 104.878 167.459C104.988 167.485 105.091 167.533 105.182 167.6C105.273 167.668 105.349 167.753 105.406 167.85C105.463 167.948 105.5 168.056 105.514 168.168C105.528 168.28 105.519 168.394 105.488 168.503C105.457 168.612 105.404 168.713 105.332 168.8C105.261 168.888 105.172 168.96 105.072 169.013C104.972 169.065 104.862 169.096 104.75 169.105C104.637 169.114 104.524 169.1 104.416 169.063C95.7852 166.596 91.1653 173.439 90.9714 173.743C90.8931 173.856 90.7885 173.947 90.6666 174.009C90.5448 174.072 90.4096 174.103 90.2728 174.101Z" fill="white"/>
<path d="M175.762 290.286C184.26 288.133 191.808 284.804 198.183 280.054C203.092 276.375 206.56 271.096 207.988 265.129C209.415 259.163 208.711 252.886 205.999 247.384C200.195 235.604 191.039 226.063 179.005 218.461C170.858 230.857 165.506 239.271 149.795 244.034C167.208 256.62 185.634 272.258 175.762 290.286Z" fill="white"/>
<path d="M174.769 291.055L175.324 290.052C184.614 273.087 168.401 258.108 149.5 244.449L148.678 243.857L149.647 243.563C164.974 238.916 170.256 230.86 178.255 218.692L178.854 217.779L179.272 218.043C191.64 225.846 200.773 235.647 206.446 247.17C209.221 252.774 209.944 259.174 208.489 265.256C207.034 271.339 203.494 276.719 198.483 280.461C192.285 285.078 184.68 288.548 175.885 290.777L174.769 291.055ZM150.897 244.215C169.45 257.72 185.108 272.542 176.728 289.517C184.935 287.311 192.048 283.995 197.885 279.649C202.707 276.047 206.113 270.869 207.513 265.015C208.913 259.161 208.217 253.002 205.547 247.608C200.018 236.382 191.139 226.808 179.138 219.15L179.081 219.237C171.142 231.341 165.837 239.424 150.897 244.215Z" fill="black"/>
<path d="M207.956 252.772C207.956 252.772 206.165 263.339 198.322 265.298C198.322 265.298 205.61 273.802 199.589 278.927C199.589 278.927 212.058 269.473 207.956 252.772Z" fill="#4BD657"/>
<path d="M199.889 279.328L199.261 278.546C199.889 278.04 200.407 277.411 200.783 276.698C201.159 275.984 201.385 275.201 201.447 274.397C201.781 270.162 197.977 265.669 197.94 265.622L197.412 265.007L198.198 264.81C205.629 262.955 207.441 252.792 207.461 252.689L207.865 250.309L208.44 252.649C212.575 269.477 200.016 279.231 199.889 279.328ZM199.177 265.572C200.253 267.003 202.741 270.744 202.446 274.478C202.42 274.815 202.37 275.15 202.296 275.48C205.385 271.766 209.527 264.746 207.912 255.032C206.959 258.194 204.552 263.807 199.177 265.572Z" fill="black"/>
<path d="M171.838 286.756C171.764 286.756 171.69 286.739 171.624 286.706C171.564 286.678 171.51 286.638 171.466 286.589C171.422 286.54 171.387 286.483 171.365 286.421C171.343 286.359 171.334 286.293 171.337 286.227C171.341 286.161 171.358 286.097 171.386 286.037C173.94 280.655 173.853 275.363 171.122 270.309C169.87 267.998 168.194 265.943 166.182 264.252C166.076 264.17 166.007 264.05 165.99 263.918C165.973 263.785 166.01 263.652 166.091 263.546C166.173 263.441 166.293 263.372 166.425 263.355C166.558 263.338 166.691 263.375 166.797 263.456C166.917 263.55 178.741 272.886 172.289 286.465C172.25 286.551 172.186 286.625 172.106 286.676C172.026 286.728 171.933 286.756 171.838 286.756Z" fill="#1D1E1B"/>
<path d="M228.785 293.348L94.9467 291.436C94.8138 291.436 94.6863 291.383 94.5922 291.289C94.4982 291.195 94.4453 291.068 94.4453 290.935C94.4453 290.802 94.4982 290.674 94.5922 290.58C94.6863 290.486 94.8138 290.433 94.9467 290.433L228.782 292.349C228.915 292.349 229.042 292.401 229.136 292.495C229.23 292.589 229.283 292.717 229.283 292.85C229.283 292.983 229.23 293.111 229.136 293.205C229.042 293.299 228.915 293.351 228.782 293.351L228.785 293.348Z" fill="#1D1D1B"/>
<path d="M109.661 298.456H77.5698C77.4368 298.456 77.3093 298.403 77.2153 298.309C77.1212 298.215 77.0684 298.088 77.0684 297.955C77.0684 297.822 77.1212 297.694 77.2153 297.6C77.3093 297.506 77.4368 297.453 77.5698 297.453H109.661C109.794 297.453 109.922 297.506 110.016 297.6C110.11 297.694 110.163 297.822 110.163 297.955C110.163 298.088 110.11 298.215 110.016 298.309C109.922 298.403 109.794 298.456 109.661 298.456Z" fill="#1D1D1B"/>
<path d="M325.611 174.77C325.519 174.77 325.429 174.744 325.35 174.696C325.272 174.648 325.208 174.578 325.167 174.496C322.492 169.278 318.307 166.714 312.755 166.871C310.112 166.982 307.516 167.603 305.11 168.699C304.992 168.751 304.858 168.756 304.737 168.712C304.616 168.668 304.517 168.58 304.459 168.465C304.402 168.35 304.391 168.217 304.428 168.094C304.466 167.971 304.549 167.867 304.662 167.804C304.805 167.73 319.223 160.717 326.056 174.041C326.116 174.159 326.126 174.295 326.085 174.421C326.045 174.546 325.956 174.65 325.839 174.71C325.769 174.749 325.691 174.77 325.611 174.77Z" fill="#1D1D1B"/>
<path d="M296.861 289.431C296.791 289.43 296.722 289.415 296.658 289.387C296.594 289.359 296.537 289.318 296.49 289.267C296.445 289.218 296.411 289.161 296.389 289.099C296.367 289.037 296.357 288.971 296.36 288.905C296.363 288.84 296.379 288.775 296.407 288.715C296.435 288.656 296.475 288.602 296.523 288.558C302.494 283.133 305.138 276.143 304.389 267.782C304.036 263.957 303.035 260.22 301.427 256.731C301.367 256.612 301.356 256.474 301.398 256.347C301.439 256.221 301.529 256.116 301.648 256.055C301.767 255.995 301.905 255.984 302.031 256.026C302.158 256.067 302.263 256.157 302.323 256.276C303.993 259.859 305.028 263.705 305.382 267.642C305.927 273.629 304.947 282.24 297.199 289.287C297.108 289.375 296.988 289.427 296.861 289.431Z" fill="#1D1D1B"/>
<path d="M243.71 111.256C243.582 111.256 243.459 111.207 243.365 111.12C243.272 111.032 243.216 110.912 243.208 110.784C243.034 107.799 241.975 105.462 240.066 103.838C236.312 100.652 230.449 101.217 230.392 101.224C230.326 101.231 230.259 101.225 230.196 101.206C230.132 101.187 230.073 101.156 230.022 101.115C229.97 101.073 229.927 101.022 229.896 100.964C229.864 100.905 229.844 100.842 229.837 100.776C229.83 100.71 229.836 100.643 229.854 100.58C229.873 100.516 229.904 100.457 229.946 100.406C229.987 100.354 230.039 100.311 230.097 100.279C230.155 100.248 230.219 100.228 230.285 100.221C230.542 100.194 236.636 99.5991 240.708 103.066C242.84 104.871 244.017 107.448 244.211 110.717C244.215 110.783 244.206 110.849 244.185 110.912C244.163 110.974 244.13 111.032 244.086 111.081C244.042 111.13 243.989 111.171 243.929 111.199C243.87 111.228 243.806 111.245 243.74 111.249L243.71 111.256Z" fill="#1D1E1B"/>
<path d="M230.482 127.822C237.058 127.822 242.389 122.482 242.389 115.895C242.389 109.308 237.058 103.968 230.482 103.968C223.905 103.968 218.574 109.308 218.574 115.895C218.574 122.482 223.905 127.822 230.482 127.822Z" fill="#382256"/>
<path d="M230.478 128.331C227.38 128.337 224.391 127.188 222.096 125.108C219.801 123.027 218.365 120.165 218.069 117.082C217.772 113.999 218.637 110.916 220.494 108.436C222.351 105.957 225.066 104.259 228.108 103.676C231.15 103.092 234.3 103.665 236.943 105.282C239.585 106.898 241.529 109.443 242.394 112.417C243.259 115.391 242.984 118.581 241.621 121.363C240.259 124.145 237.907 126.319 235.027 127.458C233.579 128.034 232.036 128.33 230.478 128.331ZM230.478 104.463C227.646 104.455 224.913 105.498 222.807 107.39C220.7 109.281 219.37 111.887 219.074 114.703C218.778 117.518 219.537 120.344 221.204 122.632C222.871 124.921 225.328 126.509 228.098 127.091C230.869 127.672 233.757 127.205 236.204 125.78C238.65 124.355 240.481 122.073 241.342 119.376C242.202 116.679 242.033 113.758 240.864 111.179C239.696 108.601 237.613 106.547 235.017 105.415C233.588 104.79 232.044 104.466 230.484 104.463H230.478Z" fill="#1D1E1B"/>
<path d="M193.969 149.758C193.969 149.758 186.384 141.832 190.576 134.739C194.768 127.645 196.64 128.464 198.598 124.583C200.557 120.702 208.152 117.319 214.571 119.836C214.571 119.836 223.312 114.448 230.533 117.038C237.754 119.629 240.017 123.39 241.591 129.38C243.166 135.371 245.028 138.122 246.271 142.29C247.515 146.459 248.909 157.968 232.435 164.848C215.961 171.728 193.969 149.758 193.969 149.758Z" fill="#382256"/>
<path d="M225.565 166.663C220.02 166.663 213.652 164.524 206.769 160.312C202.043 157.378 197.635 153.963 193.614 150.119C193.534 150.039 185.815 141.832 190.151 134.498C192.514 130.487 194.162 128.966 195.5 127.732C196.529 126.773 197.342 126.017 198.174 124.369C199.227 122.287 201.694 120.411 204.773 119.355C207.928 118.213 211.38 118.194 214.547 119.301C215.978 118.466 223.907 114.14 230.727 116.584C238.145 119.258 240.515 123.249 242.093 129.27C242.824 131.994 243.767 134.656 244.914 137.232C245.627 138.841 246.248 140.488 246.776 142.167C247.856 145.767 250.032 158.075 232.652 165.329C230.402 166.241 227.993 166.694 225.565 166.663ZM194.33 149.411C194.751 149.828 216.359 171.019 232.255 164.383C248.859 157.454 246.826 145.83 245.806 142.434C245.287 140.791 244.677 139.179 243.978 137.604C242.816 134.982 241.859 132.276 241.113 129.507C239.576 123.671 237.409 120.03 230.372 117.51C223.466 115.033 214.925 120.211 214.841 120.264L214.628 120.394L214.394 120.304C208.072 117.824 200.842 121.274 199.053 124.807C198.137 126.616 197.221 127.481 196.165 128.454C194.888 129.644 193.297 131.128 191.007 134.996C187.092 141.615 194.132 149.2 194.33 149.411Z" fill="#1D1E1B"/>
<path d="M224.282 144.757H224.319C229.601 145.306 235.21 140.662 235.448 140.465C235.536 140.393 235.593 140.289 235.605 140.176C235.617 140.062 235.583 139.949 235.511 139.86C235.439 139.771 235.335 139.715 235.222 139.703C235.108 139.691 234.995 139.725 234.906 139.797C234.849 139.843 229.33 144.41 224.409 143.898C224.304 143.892 224.2 143.926 224.118 143.992C224.036 144.059 223.982 144.154 223.966 144.258C223.95 144.363 223.973 144.469 224.032 144.557C224.091 144.645 224.18 144.708 224.282 144.734V144.757Z" fill="black"/>
<path d="M213.961 171.259L213.292 174.96C213.292 174.96 221.984 188.642 235.355 176.608C235.355 176.608 230.929 169.32 229.398 155.548C229.398 155.548 235.415 155.11 235.258 149.741C235.101 144.373 231.006 142.872 228.322 143.931C228.322 143.931 217.625 149.31 210.652 127.595C210.652 127.595 199.714 130.353 196.04 140.736C192.366 151.118 192.697 163.801 200.386 168.545C208.074 173.288 213.961 171.259 213.961 171.259Z" fill="#FFCDB2"/>
<path d="M224.53 182.063C223.998 182.063 223.467 182.026 222.939 181.953C216.658 181.094 213.014 175.468 212.86 175.231L212.757 175.063L213.325 171.941C211.426 172.336 206.359 172.83 200.114 168.979C191.881 163.898 191.984 150.694 195.565 140.565C199.288 130.052 210.417 127.134 210.527 127.103L210.985 126.99L211.129 127.438C213.877 135.982 217.644 141.478 222.016 143.326C225.426 144.767 228.071 143.493 228.097 143.48L228.137 143.46C228.931 143.159 229.784 143.051 230.628 143.143C231.472 143.236 232.281 143.526 232.991 143.992C234.693 145.111 235.665 147.144 235.759 149.721C235.913 154.528 231.487 155.708 229.949 155.972C231.5 169.14 235.739 176.267 235.783 176.337L236 176.691L235.689 176.969C231.938 180.359 228.191 182.063 224.53 182.063ZM213.817 174.85C214.445 175.752 217.828 180.248 223.083 180.96C226.84 181.472 230.755 179.957 234.716 176.504C233.807 174.856 230.253 167.786 228.896 155.611L228.839 155.093L229.361 155.053C229.585 155.053 234.91 154.582 234.756 149.761C234.666 146.893 233.446 145.499 232.44 144.841C231.868 144.463 231.215 144.226 230.534 144.148C229.853 144.071 229.163 144.156 228.522 144.396C228.214 144.546 225.36 145.823 221.659 144.272C217.009 142.327 213.198 136.918 210.327 128.227C208.257 128.895 199.629 132.098 196.51 140.93C192.95 150.992 193.228 163.567 200.642 168.144C208.057 172.72 213.74 170.818 213.796 170.818L214.609 170.541L213.817 174.85Z" fill="#1D1E1B"/>
<path d="M229.731 153.088C229.806 153.102 229.884 153.096 229.957 153.069C230.029 153.043 230.093 152.997 230.142 152.937C231.579 151.166 232.084 149.594 231.639 148.294C230.997 146.405 228.631 145.83 228.537 145.807C228.43 145.787 228.319 145.809 228.228 145.869C228.136 145.928 228.071 146.021 228.046 146.127C228.021 146.234 228.038 146.345 228.094 146.439C228.149 146.534 228.239 146.603 228.343 146.633C228.37 146.633 230.349 147.131 230.84 148.571C231.175 149.574 230.727 150.875 229.483 152.402C229.438 152.46 229.408 152.527 229.396 152.599C229.384 152.672 229.391 152.745 229.416 152.814C229.44 152.883 229.482 152.944 229.538 152.992C229.593 153.04 229.659 153.073 229.731 153.088Z" fill="black"/>
<path d="M208.347 144.48C214.261 146.111 222.488 143.955 223.748 146.175C225.008 148.395 223.788 151.209 220.502 151.727C217.216 152.245 214 151.961 207.438 151.059C200.876 150.156 194.518 148.772 195.477 145.289C196.437 141.806 199.646 142.087 208.347 144.48Z" fill="#FFB49F"/>
<path d="M231.814 157.654C232.89 157.654 233.763 156.78 233.763 155.702C233.763 154.624 232.89 153.75 231.814 153.75C230.738 153.75 229.865 154.624 229.865 155.702C229.865 156.78 230.738 157.654 231.814 157.654Z" fill="#07ACEE"/>
<path d="M231.814 153.749C232.27 153.748 232.712 153.906 233.063 154.196C233.414 154.486 233.653 154.89 233.738 155.338C233.823 155.785 233.748 156.249 233.528 156.647C233.307 157.046 232.954 157.355 232.53 157.52C232.303 157.608 232.061 157.654 231.818 157.654C231.364 157.653 230.924 157.494 230.575 157.204C230.225 156.915 229.988 156.512 229.903 156.066C229.818 155.62 229.892 155.158 230.111 154.76C230.33 154.363 230.68 154.054 231.102 153.887C231.329 153.796 231.571 153.749 231.814 153.749ZM231.814 152.747C231.445 152.747 231.078 152.817 230.735 152.954C230.053 153.224 229.497 153.739 229.174 154.398C228.852 155.056 228.787 155.812 228.993 156.516C229.198 157.22 229.658 157.822 230.284 158.204C230.909 158.587 231.655 158.722 232.375 158.584C233.095 158.446 233.738 158.044 234.177 157.457C234.617 156.87 234.822 156.14 234.752 155.41C234.681 154.68 234.342 154.003 233.798 153.51C233.255 153.017 232.548 152.745 231.814 152.747Z" fill="#1D1D1B"/>
<path d="M198.732 146.89C199.341 146.89 199.835 146.395 199.835 145.784C199.835 145.173 199.341 144.677 198.732 144.677C198.123 144.677 197.629 145.173 197.629 145.784C197.629 146.395 198.123 146.89 198.732 146.89Z" fill="black"/>
<path d="M212.74 149.478C213.349 149.478 213.843 148.982 213.843 148.371C213.843 147.76 213.349 147.265 212.74 147.265C212.131 147.265 211.637 147.76 211.637 148.371C211.637 148.982 212.131 149.478 212.74 149.478Z" fill="black"/>
<path d="M210.827 164.561C209.293 164.561 207.892 163.809 206.659 162.331C206.613 162.281 206.577 162.222 206.554 162.158C206.532 162.094 206.522 162.026 206.526 161.958C206.531 161.89 206.549 161.824 206.58 161.763C206.611 161.703 206.653 161.649 206.705 161.605C206.758 161.562 206.818 161.529 206.883 161.51C206.949 161.49 207.017 161.484 207.085 161.492C207.152 161.5 207.217 161.522 207.276 161.555C207.335 161.589 207.387 161.635 207.428 161.689C208.471 162.939 209.624 163.565 210.858 163.558C213.335 163.538 215.407 161.007 215.427 160.98C215.511 160.877 215.632 160.811 215.765 160.798C215.897 160.784 216.029 160.823 216.133 160.907C216.236 160.991 216.302 161.112 216.315 161.244C216.329 161.377 216.29 161.509 216.206 161.612C216.112 161.729 213.813 164.534 210.858 164.561H210.827Z" fill="#1D1D1B"/>
<path d="M203.503 154.849C203.439 154.85 203.375 154.838 203.316 154.813C203.253 154.788 203.195 154.751 203.147 154.704C203.099 154.656 203.06 154.6 203.034 154.537C203.008 154.475 202.995 154.408 202.996 154.34C202.997 154.273 203.011 154.206 203.038 154.144L206.715 145.071C206.74 145.01 206.777 144.955 206.823 144.908C206.869 144.861 206.924 144.824 206.985 144.798C207.046 144.773 207.111 144.759 207.177 144.759C207.243 144.758 207.308 144.771 207.369 144.796C207.43 144.82 207.485 144.857 207.532 144.903C207.579 144.95 207.617 145.005 207.642 145.065C207.668 145.126 207.681 145.191 207.682 145.257C207.682 145.323 207.669 145.388 207.645 145.449L203.967 154.522C203.933 154.617 203.87 154.7 203.786 154.758C203.703 154.817 203.605 154.849 203.503 154.849Z" fill="#1D1D1B"/>
<path d="M198.491 139.021C198.422 139.022 198.354 139.008 198.29 138.98C198.227 138.953 198.17 138.912 198.123 138.861C198.078 138.813 198.043 138.756 198.02 138.694C197.997 138.633 197.986 138.567 197.989 138.501C197.991 138.435 198.007 138.37 198.035 138.31C198.062 138.25 198.102 138.197 198.15 138.152C198.334 137.982 202.693 134.017 205.558 136.885C205.647 136.98 205.695 137.106 205.693 137.236C205.69 137.366 205.638 137.49 205.546 137.582C205.454 137.673 205.33 137.726 205.2 137.728C205.07 137.731 204.944 137.682 204.849 137.594C202.663 135.408 198.869 138.854 198.832 138.888C198.739 138.973 198.618 139.021 198.491 139.021Z" fill="black"/>
<path d="M220.709 142.063C220.632 142.063 220.556 142.046 220.487 142.012C220.418 141.979 220.358 141.93 220.311 141.869C217.476 138.192 215.043 139.96 214.939 140.037C214.888 140.082 214.828 140.116 214.762 140.137C214.697 140.158 214.628 140.166 214.56 140.159C214.492 140.152 214.426 140.132 214.366 140.099C214.306 140.066 214.254 140.021 214.212 139.967C214.17 139.912 214.14 139.85 214.123 139.784C214.106 139.717 214.103 139.648 214.114 139.581C214.125 139.513 214.149 139.449 214.186 139.391C214.223 139.333 214.271 139.283 214.327 139.245C215.141 138.683 216.135 138.445 217.115 138.576C218.533 138.757 219.876 139.663 221.107 141.251C221.187 141.356 221.222 141.49 221.205 141.621C221.187 141.753 221.118 141.872 221.013 141.953C220.927 142.023 220.82 142.062 220.709 142.063Z" fill="black"/>
<path d="M213.078 171.474C213.078 171.474 217.969 170.257 220.643 168.251L213.078 171.474Z" fill="#4BD657"/>
<path d="M213.079 171.975C212.946 171.991 212.812 171.953 212.707 171.871C212.601 171.788 212.533 171.667 212.517 171.534C212.501 171.401 212.539 171.267 212.622 171.162C212.704 171.056 212.825 170.988 212.958 170.972C213.005 170.972 217.782 169.755 220.343 167.837C220.395 167.797 220.456 167.768 220.519 167.752C220.583 167.736 220.649 167.732 220.715 167.741C220.78 167.751 220.843 167.773 220.899 167.806C220.956 167.84 221.005 167.884 221.045 167.937C221.085 167.99 221.113 168.05 221.13 168.113C221.146 168.177 221.15 168.243 221.14 168.309C221.131 168.374 221.109 168.437 221.075 168.493C221.042 168.55 220.997 168.599 220.945 168.639C218.22 170.681 213.403 171.895 213.199 171.945C213.161 171.96 213.12 171.97 213.079 171.975Z" fill="black"/>
<path d="M197.578 153.709C196.091 153.709 194.636 153.268 193.399 152.442C192.162 151.615 191.199 150.441 190.629 149.066C190.06 147.692 189.911 146.18 190.201 144.721C190.491 143.262 191.208 141.921 192.26 140.869C193.312 139.818 194.652 139.101 196.111 138.811C197.57 138.521 199.082 138.67 200.456 139.239C201.831 139.808 203.005 140.772 203.832 142.009C204.658 143.246 205.1 144.7 205.1 146.188C205.098 148.182 204.305 150.094 202.895 151.504C201.485 152.915 199.572 153.708 197.578 153.709ZM197.578 139.669C196.289 139.669 195.029 140.052 193.957 140.768C192.885 141.484 192.049 142.502 191.556 143.693C191.062 144.885 190.933 146.195 191.185 147.46C191.436 148.724 192.057 149.886 192.969 150.797C193.88 151.709 195.042 152.33 196.306 152.581C197.571 152.833 198.882 152.704 200.073 152.21C201.264 151.717 202.282 150.881 202.998 149.809C203.714 148.737 204.097 147.477 204.097 146.188C204.094 144.46 203.406 142.803 202.185 141.582C200.963 140.36 199.306 139.672 197.578 139.669Z" fill="#1D1E1B"/>
<path d="M214.627 156.384C213.139 156.384 211.685 155.943 210.448 155.116C209.211 154.29 208.247 153.115 207.678 151.741C207.109 150.366 206.96 148.854 207.25 147.395C207.54 145.936 208.257 144.596 209.309 143.544C210.36 142.492 211.701 141.776 213.16 141.485C214.619 141.195 216.131 141.344 217.505 141.913C218.88 142.483 220.054 143.447 220.881 144.684C221.707 145.92 222.148 147.375 222.148 148.862C222.147 150.857 221.354 152.769 219.944 154.179C218.533 155.589 216.621 156.382 214.627 156.384ZM214.627 142.344C213.338 142.344 212.077 142.726 211.005 143.442C209.933 144.159 209.098 145.177 208.605 146.368C208.111 147.559 207.982 148.87 208.234 150.134C208.485 151.398 209.106 152.56 210.018 153.472C210.929 154.383 212.091 155.004 213.355 155.256C214.62 155.507 215.93 155.378 217.121 154.885C218.312 154.391 219.331 153.556 220.047 152.484C220.763 151.412 221.146 150.152 221.146 148.862C221.143 147.134 220.455 145.478 219.234 144.256C218.012 143.034 216.355 142.346 214.627 142.344Z" fill="#1D1E1B"/>
<path d="M221.648 149.364C221.572 149.363 221.497 149.346 221.429 149.313C221.361 149.28 221.301 149.232 221.253 149.173C221.172 149.068 221.134 148.935 221.15 148.803C221.166 148.671 221.233 148.551 221.337 148.468L227.688 143.453C227.793 143.371 227.926 143.334 228.058 143.349C228.191 143.365 228.311 143.432 228.394 143.537C228.476 143.642 228.514 143.775 228.498 143.907C228.482 144.039 228.415 144.16 228.31 144.242L221.959 149.257C221.869 149.325 221.76 149.363 221.648 149.364Z" fill="#1D1E1B"/>
<path d="M207.624 148.872C207.527 148.873 207.431 148.845 207.35 148.792C207.268 148.738 207.204 148.662 207.167 148.572C206.688 147.482 204.616 147.819 204.596 147.823C204.463 147.847 204.326 147.817 204.215 147.74C204.104 147.663 204.028 147.545 204.004 147.412C203.98 147.279 204.01 147.142 204.087 147.031C204.164 146.92 204.282 146.844 204.415 146.82C204.532 146.8 207.284 146.318 208.092 148.157C208.12 148.218 208.134 148.284 208.136 148.35C208.137 148.417 208.126 148.484 208.102 148.546C208.077 148.608 208.041 148.665 207.995 148.713C207.948 148.761 207.893 148.799 207.832 148.826C207.766 148.855 207.696 148.871 207.624 148.872Z" fill="#1D1E1B"/>
<path d="M210.417 238.188C207.76 235.784 202.776 233.755 200.288 233.471C199.191 233.355 198.082 233.507 197.056 233.915C197.056 233.915 205.229 244.76 205.129 245.03L180.392 239.217C180.392 239.217 172.463 246.277 185.55 253.819C185.55 253.819 183.658 260.484 187.492 265.599C187.492 265.599 183.835 270.279 193.175 277.6C202.515 284.921 220.142 282.41 220.142 282.41L223.996 257.84C223.996 257.84 216.588 242.824 210.417 238.188Z" fill="#FFCDB2"/>
<path d="M213.066 283.51C207.022 283.51 198.477 282.594 192.774 278.125C184.534 271.666 185.958 267.04 186.7 265.629C183.605 261.153 184.431 255.804 184.792 254.146C180.209 251.412 177.718 248.406 177.391 245.207C176.999 241.4 179.834 238.826 179.958 238.719L180.215 238.485L203.676 244.001C202.125 241.804 198.778 237.315 196.525 234.306L195.997 233.608L196.813 233.273C197.94 232.825 199.159 232.657 200.366 232.785C203.114 233.103 208.168 235.246 210.846 237.653C217.067 242.333 224.291 256.907 224.599 257.526L224.692 257.716L220.727 282.982L220.236 283.052C217.858 283.36 215.463 283.513 213.066 283.51ZM180.613 239.956C180.008 240.624 178.454 242.553 178.721 245.087C179.022 247.929 181.435 250.673 185.895 253.244L186.346 253.504L186.202 254.006C186.186 254.069 184.454 260.421 188.038 265.201L188.345 265.612L188.028 266.013C187.904 266.18 184.969 270.312 193.6 277.075C201.753 283.466 216.666 282.139 219.561 281.812L223.305 257.954C222.426 256.212 215.616 242.934 210.017 238.726L209.97 238.689C207.316 236.289 202.419 234.39 200.216 234.139C199.528 234.065 198.833 234.109 198.16 234.27C198.909 235.272 200.299 237.124 201.67 238.976C205.942 244.753 205.919 244.823 205.758 245.261L205.558 245.819L180.613 239.956Z" fill="#1D1E1B"/>
<path d="M197.705 256.887C190.785 256.887 183.11 252.789 182.745 252.591C182.638 252.523 182.56 252.417 182.528 252.294C182.496 252.171 182.512 252.04 182.573 251.928C182.633 251.816 182.734 251.732 182.855 251.691C182.976 251.651 183.108 251.659 183.223 251.712C183.32 251.762 193.068 256.964 200.162 255.674C200.228 255.662 200.295 255.663 200.36 255.677C200.426 255.691 200.488 255.718 200.543 255.757C200.598 255.795 200.645 255.843 200.681 255.9C200.717 255.956 200.742 256.019 200.753 256.085C200.765 256.151 200.764 256.218 200.75 256.283C200.736 256.349 200.708 256.411 200.67 256.466C200.632 256.521 200.583 256.568 200.527 256.604C200.471 256.64 200.408 256.665 200.342 256.676C199.471 256.824 198.588 256.895 197.705 256.887Z" fill="#1D1E1B"/>
<path d="M200.106 269.059C193.611 269.059 186.935 265.458 186.641 265.301C186.524 265.237 186.437 265.13 186.399 265.002C186.362 264.874 186.376 264.736 186.44 264.619C186.504 264.502 186.612 264.415 186.74 264.378C186.868 264.34 187.005 264.355 187.122 264.419C187.192 264.459 194.436 268.36 200.895 268.036C201.028 268.029 201.158 268.075 201.257 268.164C201.356 268.253 201.416 268.377 201.423 268.51C201.43 268.643 201.384 268.774 201.295 268.873C201.206 268.972 201.081 269.032 200.948 269.039C200.667 269.052 200.387 269.059 200.106 269.059Z" fill="#1D1E1B"/>
<path d="M199.249 254.664H199.196C183.106 253.638 180.188 245.421 180.071 245.07C180.004 244.861 180.022 244.634 180.121 244.438C180.22 244.241 180.393 244.092 180.601 244.022C180.81 243.953 181.037 243.967 181.234 244.064C181.432 244.161 181.583 244.331 181.656 244.539C181.689 244.636 184.46 252.05 199.303 252.999C199.413 253.003 199.521 253.028 199.621 253.073C199.721 253.119 199.811 253.183 199.886 253.263C199.961 253.343 200.02 253.437 200.058 253.54C200.097 253.643 200.115 253.752 200.112 253.862C200.108 253.972 200.083 254.08 200.038 254.18C199.993 254.28 199.928 254.37 199.848 254.445C199.768 254.52 199.674 254.579 199.571 254.617C199.468 254.656 199.359 254.674 199.249 254.671V254.664Z" fill="white"/>
<path d="M201.588 267.701C191.643 267.701 187.442 263.275 187.268 263.088C187.193 263.007 187.135 262.913 187.097 262.81C187.059 262.707 187.041 262.598 187.046 262.488C187.05 262.378 187.075 262.27 187.121 262.171C187.167 262.071 187.232 261.981 187.313 261.906C187.393 261.832 187.488 261.774 187.591 261.736C187.694 261.697 187.803 261.68 187.913 261.684C188.023 261.688 188.13 261.714 188.23 261.76C188.33 261.806 188.42 261.871 188.494 261.951C188.548 262.008 192.452 266.03 201.588 266.03C201.81 266.03 202.023 266.118 202.179 266.275C202.336 266.431 202.424 266.644 202.424 266.865C202.424 267.087 202.336 267.3 202.179 267.456C202.023 267.613 201.81 267.701 201.588 267.701Z" fill="white"/>
<path d="M313.91 211.541C313.739 211.541 313.572 211.489 313.431 211.392C313.291 211.294 313.184 211.156 313.124 210.995C313.065 210.835 313.056 210.66 313.099 210.495C313.142 210.329 313.235 210.181 313.365 210.07C318.887 205.34 321.722 200.225 321.755 194.867C321.829 186.342 314.765 179.971 314.692 179.907C314.526 179.76 314.426 179.553 314.412 179.332C314.399 179.11 314.475 178.893 314.622 178.727C314.769 178.561 314.976 178.461 315.197 178.448C315.419 178.435 315.636 178.51 315.802 178.657C316.116 178.935 323.49 185.573 323.427 194.867C323.38 200.733 320.361 206.276 314.455 211.34C314.303 211.47 314.109 211.541 313.91 211.541Z" fill="white"/>
<path d="M283.825 229.592C283.632 229.593 283.445 229.526 283.296 229.404C283.147 229.282 283.044 229.113 283.006 228.924C279.76 212.701 256.126 193.49 255.888 193.309C255.715 193.17 255.605 192.968 255.581 192.747C255.557 192.526 255.622 192.305 255.761 192.132C255.9 191.959 256.103 191.849 256.323 191.825C256.544 191.801 256.765 191.866 256.938 192.005C257.941 192.804 281.281 211.778 284.644 228.596C284.665 228.705 284.665 228.816 284.642 228.925C284.62 229.033 284.577 229.136 284.514 229.227C284.452 229.319 284.373 229.397 284.28 229.457C284.187 229.518 284.084 229.559 283.975 229.579C283.925 229.588 283.875 229.592 283.825 229.592Z" fill="white"/>
<path d="M227.33 141.006H227.3C217.773 140.652 214.299 128.541 214.156 128.026C214.126 127.92 214.118 127.81 214.131 127.701C214.144 127.592 214.179 127.486 214.233 127.391C214.287 127.295 214.36 127.211 214.446 127.143C214.533 127.076 214.632 127.026 214.737 126.996C214.843 126.967 214.954 126.959 215.063 126.972C215.172 126.985 215.277 127.02 215.373 127.074C215.468 127.128 215.552 127.2 215.62 127.287C215.687 127.373 215.738 127.472 215.767 127.578C215.797 127.692 219.06 139.027 227.36 139.335C227.582 139.339 227.793 139.431 227.947 139.59C228.1 139.75 228.185 139.964 228.181 140.186C228.177 140.407 228.085 140.618 227.925 140.772C227.766 140.926 227.552 141.01 227.33 141.006Z" fill="white"/>
<path d="M239.03 116.604C238.831 116.604 238.639 116.533 238.488 116.403C238.336 116.274 238.236 116.095 238.205 115.898C237.744 112.933 236.563 110.837 234.701 109.657C231.626 107.712 227.608 108.868 227.568 108.882C227.357 108.94 227.132 108.913 226.941 108.807C226.749 108.701 226.607 108.524 226.545 108.315C226.482 108.106 226.504 107.88 226.606 107.686C226.708 107.493 226.882 107.347 227.09 107.28C227.284 107.22 231.857 105.89 235.584 108.236C237.877 109.684 239.315 112.174 239.856 115.637C239.873 115.746 239.869 115.857 239.843 115.963C239.818 116.07 239.771 116.171 239.707 116.26C239.642 116.348 239.561 116.424 239.467 116.481C239.373 116.538 239.269 116.576 239.161 116.594L239.03 116.604Z" fill="white"/>
<defs>
<filter id="filter0_d_14083_90188" x="-4.0192" y="107.785" width="38.6829" height="38.6839" filterUnits="userSpaceOnUse" color-interpolation-filters="sRGB">
<feFlood flood-opacity="0" result="BackgroundImageFix"/>
<feColorMatrix in="SourceAlpha" type="matrix" values="0 0 0 0 0 0 0 0 0 0 0 0 0 0 0 0 0 0 127 0" result="hardAlpha"/>
<feOffset dy="2.03704"/>
<feGaussianBlur stdDeviation="5.09261"/>
<feComposite in2="hardAlpha" operator="out"/>
<feColorMatrix type="matrix" values="0 0 0 0 0 0 0 0 0 0 0 0 0 0 0 0 0 0 0.05 0"/>
<feBlend mode="normal" in2="BackgroundImageFix" result="effect1_dropShadow_14083_90188"/>
<feBlend mode="normal" in="SourceGraphic" in2="effect1_dropShadow_14083_90188" result="shape"/>
</filter>
<filter id="filter1_d_14083_90188" x="370.649" y="165.21" width="38.6888" height="38.6883" filterUnits="userSpaceOnUse" color-interpolation-filters="sRGB">
<feFlood flood-opacity="0" result="BackgroundImageFix"/>
<feColorMatrix in="SourceAlpha" type="matrix" values="0 0 0 0 0 0 0 0 0 0 0 0 0 0 0 0 0 0 127 0" result="hardAlpha"/>
<feOffset dy="2.03704"/>
<feGaussianBlur stdDeviation="5.09261"/>
<feComposite in2="hardAlpha" operator="out"/>
<feColorMatrix type="matrix" values="0 0 0 0 0 0 0 0 0 0 0 0 0 0 0 0 0 0 0.05 0"/>
<feBlend mode="normal" in2="BackgroundImageFix" result="effect1_dropShadow_14083_90188"/>
<feBlend mode="normal" in="SourceGraphic" in2="effect1_dropShadow_14083_90188" result="shape"/>
</filter>
<linearGradient id="paint0_linear_14083_90188" x1="20.4547" y1="112.038" x2="392.053" y2="200.547" gradientUnits="userSpaceOnUse">
<stop stop-color="#CDD5E2"/>
<stop offset="1" stop-color="#CDD5E2" stop-opacity="0"/>
</linearGradient>
<linearGradient id="paint1_linear_14083_90188" x1="391.411" y1="195.437" x2="353.85" y2="294.044" gradientUnits="userSpaceOnUse">
<stop stop-color="#CDD5E2"/>
<stop offset="1" stop-color="#CDD5E2" stop-opacity="0"/>
</linearGradient>
<linearGradient id="paint2_linear_14083_90188" x1="196.502" y1="23.2607" x2="196.502" y2="365.006" gradientUnits="userSpaceOnUse">
<stop stop-color="#CDD5E2"/>
<stop offset="1" stop-color="#CDD5E2" stop-opacity="0"/>
</linearGradient>
<linearGradient id="paint3_linear_14083_90188" x1="196.505" y1="57.4336" x2="196.505" y2="330.83" gradientUnits="userSpaceOnUse">
<stop stop-color="#CDD5E2"/>
<stop offset="1" stop-color="#CDD5E2" stop-opacity="0"/>
</linearGradient>
</defs>
</svg>
