<svg width="406" height="302" viewBox="0 0 406 302" fill="none" xmlns="http://www.w3.org/2000/svg">
<mask id="mask0_14083_91640" style="mask-type:alpha" maskUnits="userSpaceOnUse" x="0" y="0" width="406" height="302">
<rect width="405.823" height="301.875" fill="#D9D9D9"/>
</mask>
<g mask="url(#mask0_14083_91640)">
<g opacity="0.5">
<mask id="path-2-inside-1_14083_91640" fill="white">
<path d="M389.979 202.565C391.995 156.308 377.371 110.86 348.759 74.4588C320.146 38.0574 279.439 13.1119 234.015 4.14415C188.592 -4.82363 141.458 2.77982 101.159 25.5762C60.859 48.3727 30.0607 84.8533 14.3462 128.405L15.1858 128.708C30.8279 85.357 61.4843 49.0446 101.598 26.3532C141.712 3.66186 188.628 -3.90654 233.842 5.0199C279.057 13.9463 319.576 38.7768 348.057 75.0104C376.537 111.244 391.094 156.483 389.087 202.526L389.979 202.565Z"/>
</mask>
<path d="M389.979 202.565C391.995 156.308 377.371 110.86 348.759 74.4588C320.146 38.0574 279.439 13.1119 234.015 4.14415C188.592 -4.82363 141.458 2.77982 101.159 25.5762C60.859 48.3727 30.0607 84.8533 14.3462 128.405L15.1858 128.708C30.8279 85.357 61.4843 49.0446 101.598 26.3532C141.712 3.66186 188.628 -3.90654 233.842 5.0199C279.057 13.9463 319.576 38.7768 348.057 75.0104C376.537 111.244 391.094 156.483 389.087 202.526L389.979 202.565Z" stroke="url(#paint0_linear_14083_91640)" stroke-width="2.84788" stroke-dasharray="4.27 4.27" mask="url(#path-2-inside-1_14083_91640)"/>
</g>
<g opacity="0.5">
<mask id="path-3-inside-2_14083_91640" fill="white">
<path d="M14.6043 260.572C30.4892 304.063 61.4301 340.422 101.819 363.061C142.207 385.699 189.37 393.118 234.758 383.973C280.146 374.827 320.756 349.723 349.225 313.21C377.695 276.697 392.141 231.192 389.944 184.943L389.052 184.986C391.239 231.021 376.86 276.316 348.521 312.661C320.183 349.006 279.761 373.994 234.582 383.098C189.403 392.201 142.457 384.816 102.255 362.282C62.0527 339.748 31.2544 303.556 15.4428 260.266L14.6043 260.572Z"/>
</mask>
<path d="M14.6043 260.572C30.4892 304.063 61.4301 340.422 101.819 363.061C142.207 385.699 189.37 393.118 234.758 383.973C280.146 374.827 320.756 349.723 349.225 313.21C377.695 276.697 392.141 231.192 389.944 184.943L389.052 184.986C391.239 231.021 376.86 276.316 348.521 312.661C320.183 349.006 279.761 373.994 234.582 383.098C189.403 392.201 142.457 384.816 102.255 362.282C62.0527 339.748 31.2544 303.556 15.4428 260.266L14.6043 260.572Z" stroke="url(#paint1_linear_14083_91640)" stroke-width="2.84788" stroke-dasharray="4.27 4.27" mask="url(#path-3-inside-2_14083_91640)"/>
</g>
<circle opacity="0.08" cx="196.502" cy="194.133" r="170.873" fill="url(#paint2_linear_14083_91640)"/>
<circle opacity="0.1" cx="196.505" cy="194.132" r="136.698" fill="url(#paint3_linear_14083_91640)"/>
<circle cx="196.505" cy="194.134" r="91.1321" fill="white"/>
<g filter="url(#filter0_d_14083_91640)">
<circle cx="15.3224" cy="125.09" r="7.11969" transform="rotate(-2.50406 15.3224 125.09)" fill="#0170FF"/>
<circle cx="15.3224" cy="125.09" r="8.13822" transform="rotate(-2.50406 15.3224 125.09)" stroke="white" stroke-width="2.03704"/>
</g>
<g filter="url(#filter1_d_14083_91640)">
<circle cx="389.993" cy="182.517" r="7.11969" transform="rotate(-15.7345 389.993 182.517)" fill="#0170FF"/>
<circle cx="389.993" cy="182.517" r="8.13822" transform="rotate(-15.7345 389.993 182.517)" stroke="white" stroke-width="2.03704"/>
</g>
</g>
<path d="M326.266 287.482H81.5098C81.3254 287.482 81.1486 287.409 81.0182 287.279C80.8878 287.148 80.8145 286.972 80.8145 286.787C80.8145 286.603 80.8878 286.426 81.0182 286.296C81.1486 286.165 81.3254 286.092 81.5098 286.092H326.266C326.451 286.092 326.627 286.165 326.758 286.296C326.888 286.426 326.961 286.603 326.961 286.787C326.961 286.972 326.888 287.148 326.758 287.279C326.627 287.409 326.451 287.482 326.266 287.482Z" fill="#1D1D1B"/>
<path d="M111.409 296.174H63.7793C63.5949 296.174 63.4181 296.101 63.2877 295.97C63.1573 295.84 63.084 295.663 63.084 295.479C63.084 295.294 63.1573 295.117 63.2877 294.987C63.4181 294.857 63.5949 294.783 63.7793 294.783H111.409C111.594 294.783 111.771 294.857 111.901 294.987C112.031 295.117 112.105 295.294 112.105 295.479C112.105 295.663 112.031 295.84 111.901 295.97C111.771 296.101 111.594 296.174 111.409 296.174Z" fill="#1D1D1B"/>
<path d="M345.04 299.999H307.492C307.308 299.999 307.131 299.925 307.001 299.795C306.87 299.664 306.797 299.488 306.797 299.303C306.797 299.119 306.87 298.942 307.001 298.812C307.131 298.681 307.308 298.608 307.492 298.608H345.04C345.224 298.608 345.401 298.681 345.532 298.812C345.662 298.942 345.735 299.119 345.735 299.303C345.735 299.488 345.662 299.664 345.532 299.795C345.401 299.925 345.224 299.999 345.04 299.999Z" fill="#1D1D1B"/>
<path d="M153.538 34.3062C158.158 43.8635 144.599 59.9813 144.599 59.9813C144.599 59.9813 123.545 60.5966 118.924 51.0393C115.795 44.5554 115.754 36.945 121.174 33.9516C128.221 30.0508 133.158 37.39 133.158 37.39C133.158 37.39 133.081 28.6045 138.467 25.7397C144.398 22.5794 150.464 27.9405 153.538 34.3062Z" fill="#4BD657"/>
<path d="M143.675 60.5132C139.454 60.5132 122.655 59.957 118.455 51.2653C115.441 45.0317 114.927 36.8094 120.92 33.4926C126.528 30.3915 130.902 34.0419 132.699 36.0063C132.918 33.3362 133.895 27.5824 138.22 25.2774C139.203 24.7353 140.289 24.4054 141.408 24.309C142.527 24.2126 143.653 24.3517 144.714 24.7176C148.261 25.8753 151.734 29.3728 154.008 34.0802C158.722 43.8148 145.559 59.6476 144.996 60.3151L144.847 60.4959H144.614C144.52 60.5028 144.189 60.5132 143.675 60.5132ZM125.315 33.3397C123.942 33.359 122.597 33.7314 121.41 34.421C116.011 37.4074 116.571 45.0178 119.38 50.8273C123.552 59.4389 142.031 59.5189 144.336 59.4771C145.785 57.6867 157.22 43.1612 153.055 34.5461C150.903 30.0925 147.659 26.7932 144.363 25.7224C143.435 25.4032 142.449 25.2818 141.471 25.3662C140.493 25.4506 139.543 25.739 138.683 26.2126C133.645 28.8965 133.648 37.3135 133.652 37.3969V39.1352L132.685 37.7029C132.574 37.4561 129.72 33.3397 125.315 33.3397Z" fill="#1D1E1B"/>
<path d="M113.843 43.5611C101.507 43.5611 92.5967 37.9602 86.9576 32.7174C82.4317 28.5215 78.7222 23.5235 76.0166 17.9764C75.9797 17.8929 75.9594 17.8029 75.9572 17.7115C75.955 17.6202 75.9708 17.5293 76.0037 17.4441C76.0367 17.3588 76.086 17.281 76.1491 17.2148C76.2121 17.1487 76.2876 17.0955 76.3711 17.0586C76.4547 17.0216 76.5449 17.0014 76.6363 16.9992C76.7276 16.997 76.8182 17.0129 76.9035 17.0458C76.9887 17.0788 77.0668 17.1281 77.133 17.1911C77.1991 17.2542 77.2522 17.3296 77.2892 17.4132C79.9417 22.7934 83.5512 27.6459 87.9415 31.7335C97.5649 40.6615 109.045 43.9018 122.065 41.35C122.241 41.3266 122.419 41.3712 122.563 41.4747C122.707 41.5783 122.805 41.7328 122.839 41.9069C122.873 42.0809 122.839 42.2613 122.744 42.4111C122.649 42.5609 122.501 42.6688 122.329 42.7128C119.534 43.2701 116.692 43.5542 113.843 43.5611Z" fill="#1D1D1B"/>
<path d="M108.172 56.7096C105.248 56.7121 102.329 56.4491 99.4527 55.9239C99.2781 55.8819 99.1265 55.7739 99.0297 55.6226C98.9329 55.4712 98.8982 55.2884 98.9333 55.1122C98.9683 54.936 99.0701 54.7802 99.2174 54.6774C99.3648 54.5747 99.5462 54.533 99.7237 54.5611C99.894 54.5958 116.825 57.8674 124.116 50.2431C124.243 50.1094 124.418 50.0316 124.603 50.0271C124.787 50.0225 124.966 50.0915 125.1 50.2187C125.234 50.346 125.311 50.5211 125.316 50.7056C125.32 50.8901 125.252 51.0689 125.124 51.2026C120.851 55.6701 113.808 56.7096 108.172 56.7096Z" fill="#1D1D1B"/>
<path d="M150 42.0313H149.941C149.804 42.0237 149.67 41.9892 149.546 41.9297C149.423 41.8702 149.312 41.7869 149.22 41.6845C149.129 41.5821 149.059 41.4627 149.014 41.3331C148.968 41.2035 148.949 41.0662 148.957 40.9292C149.166 37.2092 148.366 34.5078 146.583 32.9016C144.114 30.68 140.471 31.2328 140.433 31.2397C140.16 31.2858 139.879 31.2216 139.654 31.0612C139.428 30.9008 139.276 30.6574 139.229 30.3845C139.183 30.1116 139.248 29.8315 139.408 29.6059C139.568 29.3803 139.812 29.2277 140.085 29.1816C140.273 29.1503 144.726 28.448 147.949 31.3371C150.24 33.3848 151.276 36.6529 151.033 41.0474C151.018 41.3118 150.903 41.5607 150.711 41.7435C150.519 41.9262 150.265 42.0291 150 42.0313Z" fill="white"/>
<path d="M86.2242 133.089C90.6813 140.042 81.7046 153.744 81.7046 153.744C81.7046 153.744 65.5034 156.177 61.0463 149.224C58.0251 144.51 57.2918 138.638 61.196 135.818C66.2754 132.154 70.767 137.358 70.767 137.358C70.767 137.358 69.8946 130.586 73.785 127.871C78.0752 124.884 83.2482 128.462 86.2242 133.089Z" fill="#4BD657"/>
<path d="M75.3811 154.693C70.2113 154.693 63.3691 153.807 60.6121 149.509C57.6778 144.931 56.5133 138.562 60.8939 135.401C64.8399 132.554 68.4729 134.706 70.1661 136.097C70.1174 133.896 70.4441 129.581 73.4896 127.457C74.2122 126.94 75.0353 126.581 75.9053 126.401C76.7753 126.221 77.6731 126.226 78.5413 126.414C81.4165 126.984 84.4517 129.383 86.6629 132.832C91.2486 139.983 82.5187 153.483 82.1432 154.04L82.0145 154.238L81.785 154.269C79.6627 154.558 77.5229 154.7 75.3811 154.693ZM64.9996 135.036C63.7352 135.054 62.5102 135.478 61.5057 136.246C57.6814 139.027 58.8113 144.767 61.5057 148.946C65.4482 155.097 79.4278 153.518 81.4095 153.261C82.4525 151.568 89.7534 139.518 85.8005 133.371C83.7388 130.158 80.9541 127.93 78.3535 127.415C77.6222 127.258 76.8661 127.256 76.1338 127.408C75.4014 127.561 74.7093 127.865 74.1017 128.302C70.5104 130.805 71.2961 137.233 71.3204 137.296L71.5428 139.034L70.4095 137.72C70.2531 137.56 68.0139 135.036 64.9996 135.036Z" fill="#1D1E1B"/>
<path d="M65.8641 150.851C65.6172 150.852 65.378 150.764 65.1895 150.605C57.5409 144.103 62.9193 137.393 62.9714 137.324C63.1471 137.11 63.4008 136.974 63.6763 136.947C63.9518 136.92 64.2266 137.004 64.4405 137.179C64.6545 137.355 64.7897 137.609 64.8167 137.884C64.8438 138.159 64.7605 138.434 64.5848 138.648C64.4145 138.86 60.4824 143.863 66.5388 149.012C66.7019 149.15 66.8185 149.335 66.8732 149.542C66.9278 149.748 66.9176 149.967 66.844 150.167C66.7704 150.368 66.6369 150.541 66.4617 150.664C66.2864 150.786 66.0779 150.852 65.8641 150.851Z" fill="white"/>
<path d="M326.266 107.434C319.942 112.742 305.201 105.598 305.201 105.598C305.201 105.598 300.716 89.8416 307.04 84.5328C311.327 80.931 317.06 79.4534 320.352 82.9648C324.635 87.5366 320.05 92.6578 320.05 92.6578C320.05 92.6578 326.655 90.9194 329.847 94.4343C333.369 98.3038 330.483 103.915 326.266 107.434Z" fill="#4BD657"/>
<path d="M319.717 109.927C313.045 109.927 305.424 106.28 304.983 106.068L304.771 105.963L304.708 105.741C304.52 105.084 300.188 89.5952 306.711 84.1334C310.883 80.6359 317.043 78.6681 320.739 82.6071C324.069 86.1568 322.408 90.0367 321.246 91.8932C323.423 91.5456 327.741 91.3335 330.24 94.0835C330.846 94.7322 331.31 95.5003 331.601 96.3384C331.893 97.1766 332.006 98.0664 331.934 98.9509C331.735 101.878 329.744 105.209 326.608 107.827C324.779 109.37 322.321 109.927 319.717 109.927ZM305.65 105.226C307.462 106.061 320.346 111.728 325.936 107.034L326.284 107.434L325.936 107.034C328.86 104.6 330.713 101.538 330.891 98.8883C330.953 98.1431 330.86 97.393 330.615 96.6864C330.37 95.9798 329.979 95.3323 329.469 94.7858C326.531 91.5525 320.252 93.1449 320.189 93.1623L318.514 93.6003L319.668 92.3105C319.842 92.1158 323.882 87.4814 319.981 83.3233C316.748 79.8745 311.185 81.7414 307.381 84.933C301.788 89.6299 305.139 103.297 305.65 105.226Z" fill="#1D1E1B"/>
<path d="M313.056 86.5323C312.922 86.5324 312.792 86.494 312.679 86.4219C312.567 86.3498 312.478 86.2469 312.423 86.1256C308.598 77.7816 308.216 65.7732 311.244 50.4586C312.63 43.4962 314.529 36.6459 316.925 29.9637C316.991 29.7913 317.122 29.652 317.29 29.5763C317.458 29.5007 317.65 29.4949 317.822 29.5604C317.994 29.6259 318.134 29.7571 318.209 29.9254C318.285 30.0936 318.291 30.285 318.225 30.4574C318.09 30.8051 304.875 66.2252 313.688 85.5484C313.726 85.6317 313.747 85.7217 313.75 85.8132C313.753 85.9046 313.738 85.9957 313.706 86.0813C313.673 86.1669 313.624 86.2452 313.562 86.3119C313.499 86.3786 313.424 86.4322 313.341 86.4698C313.251 86.5106 313.154 86.5319 313.056 86.5323Z" fill="#1D1D1B"/>
<path d="M308.536 91.0519C308.396 91.0519 308.259 91.0094 308.144 90.9302C295.801 82.468 296.323 60.9962 296.368 60.0888C296.374 59.9044 296.452 59.7298 296.586 59.6033C296.721 59.4768 296.9 59.4088 297.084 59.4144C297.269 59.4199 297.443 59.4985 297.57 59.6328C297.696 59.7671 297.764 59.9462 297.759 60.1306C297.759 60.3461 297.22 81.7519 308.929 89.783C309.081 89.8872 309.186 90.0475 309.22 90.2288C309.254 90.41 309.214 90.5973 309.11 90.7494C309.046 90.8426 308.961 90.9189 308.861 90.9716C308.761 91.0243 308.649 91.0519 308.536 91.0519Z" fill="#1D1D1B"/>
<path d="M317.577 107.74C317.322 107.74 317.076 107.647 316.886 107.478C316.695 107.31 316.572 107.077 316.541 106.825C316.51 106.572 316.572 106.317 316.716 106.107C316.86 105.897 317.076 105.747 317.323 105.685C323.786 104.069 325.563 101.965 326.046 100.853C326.192 100.543 326.268 100.206 326.268 99.8636C326.268 99.5216 326.192 99.1838 326.046 98.8745C325.905 98.6394 325.863 98.3584 325.928 98.0923C325.993 97.8262 326.16 97.5965 326.393 97.4526C326.512 97.3816 326.643 97.3348 326.779 97.3148C326.915 97.2948 327.054 97.3019 327.187 97.3359C327.321 97.3698 327.446 97.4299 327.556 97.5126C327.667 97.5953 327.759 97.6989 327.829 97.8176C328.133 98.3987 328.302 99.0403 328.326 99.6953C328.349 100.35 328.226 101.002 327.965 101.604C326.87 104.243 323.445 106.297 317.803 107.709C317.729 107.727 317.653 107.738 317.577 107.74Z" fill="white"/>
<path d="M195.498 95.1191C195.498 95.1191 193.495 106.676 185.492 103.435C177.489 100.195 160.422 93.1062 154.428 104.878C148.434 116.65 149.477 119.23 140.247 118.089C131.016 116.949 112.764 131.068 130.943 149.755C149.123 168.442 210.447 108.602 210.447 108.602L209.898 101.353L195.498 95.1191Z" fill="#382256"/>
<path d="M195.498 95.1196L209.899 101.378L210.448 108.626C210.448 108.626 160.019 157.835 137.066 153.072C134.737 152.624 132.602 151.475 130.944 149.78C112.764 131.092 131.017 116.988 140.247 118.114C149.478 119.241 148.438 116.661 154.429 104.903C157.926 98.0365 165.182 97.6019 172.215 99.0482C177.242 100.091 182.155 102.111 185.492 103.46C185.95 103.649 186.424 103.795 186.907 103.898C193.736 105.317 195.498 95.1439 195.498 95.1439V95.1196ZM195.71 94.1218C195.474 94.0751 195.228 94.1118 195.015 94.226C194.877 94.3008 194.757 94.406 194.664 94.5336C194.572 94.6613 194.51 94.8081 194.483 94.9631C194.483 95.0188 193.541 100.237 190.593 102.243C190.093 102.586 189.527 102.82 188.931 102.929C188.335 103.038 187.722 103.02 187.133 102.876C186.71 102.787 186.295 102.659 185.896 102.494L185.59 102.368C182.332 101.051 177.409 99.0587 172.441 98.0261C163.054 96.0757 156.671 98.2277 153.514 104.43C152.384 106.645 151.522 108.501 150.761 110.135C147.552 117.033 147.141 117.919 140.386 117.089C135.105 116.445 127.175 120.343 123.785 127.171C121.734 131.312 119.839 139.85 130.21 150.513C132.013 152.357 134.336 153.608 136.868 154.098C146.693 156.138 162.22 149.199 183.007 133.474C192.837 125.967 202.245 117.924 211.188 109.381C211.298 109.274 211.383 109.145 211.437 109.002C211.491 108.859 211.513 108.706 211.501 108.553L210.952 101.305C210.938 101.115 210.872 100.933 210.762 100.778C210.651 100.622 210.501 100.501 210.326 100.425L195.926 94.167C195.861 94.1393 195.793 94.1184 195.724 94.1044L195.71 94.1218Z" fill="black"/>
<path d="M129.043 147.669C133.789 128.895 167.168 113.831 177.323 112.392C187.479 110.952 199.922 108.011 202.303 104.166C204.685 100.321 198.062 97.397 198.062 97.397L200.21 97.1641L209.9 101.367L210.449 108.616C210.449 108.616 149.124 168.456 130.945 149.769C130.257 149.063 129.627 148.365 129.043 147.669Z" fill="#050505"/>
<path d="M126.705 286.44C126.705 286.44 116.804 120.033 209.102 125.818C331.133 133.467 290.804 286.44 290.804 286.44H126.705Z" fill="#07ACEE"/>
<path d="M291.339 287.135H126.052L126.01 286.482C126.01 286.224 124.533 260.57 128.187 230.177C130.335 212.311 133.805 196.322 138.498 182.651C144.381 165.518 152.217 151.994 161.792 142.447C174.503 129.782 190.433 123.952 209.147 125.123C240.09 127.063 263.324 138.533 278.253 159.219C286.089 170.073 291.659 183.535 294.805 199.232C297.315 211.748 298.282 225.738 297.726 240.771C296.752 266.352 291.527 286.419 291.468 286.617L291.339 287.135ZM127.366 285.745H290.261C291.078 282.449 295.459 263.842 296.338 240.687C297.228 217.265 294.6 184.261 277.123 160.029C262.448 139.701 239.547 128.423 209.061 126.514C190.759 125.367 175.191 131.058 162.776 143.435C141.401 164.74 132.922 202.454 129.567 230.351C126.254 257.931 127.165 281.573 127.366 285.745Z" fill="#1D1D1B"/>
<path d="M127.402 261.755C127.402 261.755 169.122 275.662 213.971 232.899C213.971 232.899 257.558 299.303 296.368 240.548V233.942L201.803 220.731L127.055 245.415L127.402 261.755Z" fill="#0598C6"/>
<path d="M194.502 126.861C194.502 126.861 111.757 137.197 113.496 220.731C114.497 268.709 153.745 259.774 168.917 253.175C184.089 246.576 211.968 236.724 217.9 225.977C223.831 215.231 217.468 209.185 217.468 209.185L223.497 202.089L203.836 176.292L198.82 180.075C198.82 180.075 188.042 173.41 179.855 181.292C171.667 189.173 161.866 199.944 156.7 204.172" fill="#07ACEE"/>
<path d="M144.883 258.999C138.924 258.999 132.736 257.813 127.347 254.361C118.151 248.471 113.318 237.158 112.974 220.741C112.574 201.589 116.611 184.706 124.969 170.556C131.658 159.236 141.111 149.637 153.063 142.047C173.398 129.111 194.23 126.403 194.436 126.361L194.568 127.404C194.359 127.428 173.729 130.13 153.592 142.955C135.044 154.776 113.124 177.854 114.017 220.745C114.365 236.793 119.027 247.818 127.924 253.509C142.929 263.122 164.543 254.552 168.722 252.72C171.264 251.618 174.163 250.418 177.237 249.149C192.162 242.985 212.605 234.547 217.458 225.751C223.111 215.509 217.371 209.825 217.111 209.585L216.763 209.237L217.079 208.862L222.833 202.086L203.743 177.033L198.854 180.718L198.552 180.531C198.128 180.266 188.028 174.179 180.223 181.681C176.865 184.911 173.27 188.607 169.765 192.184C164.797 197.271 160.104 202.079 157.037 204.589L156.377 203.782C159.398 201.307 164.071 196.523 169.018 191.454C172.516 187.873 176.128 184.171 179.5 180.93C187.1 173.629 196.915 178.438 198.785 179.463L203.944 175.576L204.257 175.99L224.172 202.121L218.168 209.189C219.433 210.694 223.605 216.754 218.365 226.245C213.331 235.357 193.535 243.531 177.63 250.102C174.56 251.367 171.664 252.567 169.133 253.665C166.341 254.861 156.019 258.999 144.883 258.999Z" fill="#1D1D1B"/>
<path d="M190.418 127.831C190.418 127.831 186.677 132.25 191.892 138.16C197.107 144.07 206.606 135.615 206.606 135.615L190.418 127.831Z" fill="white"/>
<path d="M196.586 140.768C196.429 140.768 196.273 140.768 196.117 140.768C195.237 140.726 194.375 140.503 193.584 140.115C192.794 139.726 192.091 139.179 191.52 138.508C186.069 132.333 189.998 127.546 190.036 127.497L190.297 127.191L207.555 135.487L206.971 136.008C206.727 136.206 201.53 140.768 196.586 140.768ZM190.603 128.481C189.907 129.552 188.186 133.143 192.303 137.806C192.785 138.371 193.377 138.832 194.044 139.16C194.711 139.488 195.437 139.677 196.179 139.714C199.937 139.94 204.12 136.933 205.664 135.723L190.603 128.481Z" fill="#1D1D1B"/>
<path d="M230.787 69.5105C238.372 69.5105 244.52 63.3621 244.52 55.7777C244.52 48.1933 238.372 42.0449 230.787 42.0449C223.203 42.0449 217.055 48.1933 217.055 55.7777C217.055 63.3621 223.203 69.5105 230.787 69.5105Z" fill="#382256"/>
<path d="M241.814 47.5937C243.433 49.7748 244.369 52.3869 244.503 55.0997C244.637 57.8124 243.963 60.5041 242.568 62.8341C241.172 65.1642 239.117 67.0281 236.662 68.1901C234.207 69.3521 231.462 69.76 228.776 69.3623C226.089 68.9646 223.58 67.779 221.567 65.9557C219.554 64.1323 218.127 61.7529 217.466 59.1185C216.805 56.484 216.941 53.7127 217.855 51.1551C218.769 48.5975 220.421 46.3685 222.602 44.7499C224.05 43.6746 225.696 42.8952 227.445 42.4562C229.195 42.0173 231.013 41.9272 232.797 42.1913C234.582 42.4554 236.296 43.0685 237.843 43.9954C239.39 44.9224 240.74 46.1451 241.814 47.5937ZM242.715 46.9228C240.964 44.5634 238.553 42.7762 235.786 41.7872C233.019 40.7983 230.021 40.652 227.171 41.3667C224.321 42.0815 221.748 43.6253 219.775 45.8029C217.803 47.9805 216.52 50.6941 216.09 53.6005C215.66 56.507 216.101 59.4758 217.358 62.1315C218.615 64.7872 220.631 67.0105 223.151 68.5204C225.672 70.0302 228.584 70.7588 231.518 70.6138C234.453 70.4689 237.279 69.457 239.638 67.7062C242.799 65.356 244.899 61.8474 245.475 57.9509C246.052 54.0543 245.059 50.0881 242.715 46.9228Z" fill="black"/>
<path d="M245.894 111.134C245.894 111.134 258.146 108.005 258.362 98.5273C258.577 89.0499 256.248 88.6988 256.689 83.7063C257.131 78.7139 251.763 70.7801 243.947 69.3269C243.947 69.3269 238.677 58.73 230.041 56.8561C221.405 54.9821 216.889 57.2872 211.705 62.1719C206.521 67.0566 203.013 68.6176 199.255 71.9274C195.497 75.2372 187.125 85.6393 199.06 102.407C210.996 119.175 245.894 111.134 245.894 111.134Z" fill="#382256"/>
<path d="M253.891 75.8006C255.849 78.4429 256.895 81.3912 256.673 83.7066C256.231 88.6991 258.56 89.0432 258.345 98.5275C258.129 108.012 245.878 111.134 245.878 111.134C245.878 111.134 211.4 119.078 199.256 102.713L199.033 102.407C187.098 85.6396 195.466 75.2374 199.228 71.9277C202.99 68.6179 206.491 67.0603 211.678 62.1721C216.865 57.284 221.367 54.9789 230.014 56.8563C235.058 57.948 238.952 62.0087 241.323 65.2003C242.301 66.5032 243.172 67.8821 243.931 69.3236C248.12 70.1024 251.607 72.7447 253.874 75.7972L253.891 75.8006ZM254.774 75.1296C252.198 71.653 248.541 69.2019 244.692 68.3293C243.96 67.0108 243.141 65.7426 242.241 64.5328C239.748 61.1709 235.635 56.9189 230.267 55.7543C221.155 53.776 216.274 56.3071 210.923 61.3482C208.567 63.5455 206.044 65.5564 203.376 67.3629C201.685 68.5096 200.06 69.7503 198.508 71.0794C195.294 73.9119 193.071 77.7001 192.167 81.8882C190.797 88.4383 192.807 95.5585 198.143 103.054C198.22 103.165 198.3 103.273 198.38 103.381C201.293 107.306 205.656 110.209 211.351 112.003C215.829 113.411 221.141 114.145 227.138 114.179C233.527 114.197 239.901 113.542 246.152 112.226H246.18C248.467 111.582 250.649 110.61 252.657 109.34C257.034 106.559 259.395 102.828 259.492 98.5623C259.618 93.1353 258.925 90.5869 258.373 88.5391C257.945 86.9711 257.639 85.8342 257.817 83.8108C258.046 81.2346 256.916 77.9909 254.799 75.1401L254.774 75.1296Z" fill="black"/>
<path d="M215.012 120.257L215.708 132.077C215.708 132.077 199.02 142.507 191.719 127.558C191.719 127.558 202.496 111.913 207.711 95.1899C207.711 95.1899 202.072 91.084 205.511 85.9421C208.949 80.8001 213.855 81.8222 215.84 84.4957C215.84 84.4957 223.019 96.2677 243.08 79.3086C243.08 79.3086 252.101 88.6747 249.376 101.062C246.65 113.449 238.598 125.642 228.196 125.59C217.794 125.538 215.012 120.257 215.012 120.257Z" fill="#FFCDB2"/>
<path d="M243.065 79.3083C243.065 79.3083 252.087 88.6744 249.361 101.062C246.636 113.449 238.619 125.59 228.248 125.59H228.182C217.779 125.534 215.012 120.256 215.012 120.256L215.707 132.077C215.707 132.077 210.044 135.616 203.887 135.616C199.465 135.616 194.781 133.798 191.719 127.557C191.719 127.557 202.496 111.912 207.711 95.1896C207.711 95.1896 202.072 91.0837 205.51 85.9417C207.277 83.2995 209.429 82.2843 211.376 82.2843C212.24 82.2843 213.092 82.4838 213.866 82.8673C214.641 83.2509 215.316 83.808 215.84 84.4954C215.84 84.4954 218.273 88.4727 224.236 88.4727C228.54 88.4727 234.666 86.4111 243.079 79.3083H243.065ZM243.152 77.8829L242.405 78.5121C235.406 84.4224 229.294 87.4298 224.236 87.4298C218.913 87.4298 216.751 83.9879 216.73 83.9531L216.705 83.9113L216.677 83.8731C216.059 83.0523 215.258 82.387 214.338 81.9301C213.417 81.4732 212.403 81.2374 211.376 81.2413C208.81 81.2413 206.421 82.7049 204.645 85.3611C203 87.8191 202.924 90.4683 204.422 93.0097C204.988 93.9505 205.691 94.8012 206.508 95.5338C201.342 111.658 190.981 126.803 190.863 126.956L190.516 127.456L190.78 128.006C193.561 133.659 198.081 136.649 203.873 136.649C210.27 136.649 216.02 133.103 216.26 132.95L216.785 132.623L216.747 132.004L216.226 123.111C218.242 124.731 221.917 126.587 228.175 126.622H228.248C233.397 126.622 238.33 123.841 242.502 118.598C246.139 114.016 248.941 107.865 250.39 101.277C251.559 95.9788 250.794 90.3745 248.183 85.0691C247.046 82.709 245.579 80.5224 243.827 78.5747L243.131 77.8794L243.152 77.8829Z" fill="#1D1D1B"/>
<path d="M217.948 124.334C218.268 124.536 218.595 124.72 218.925 124.887C218.992 124.923 219.065 124.945 219.14 124.953C219.215 124.96 219.292 124.952 219.364 124.929C219.436 124.906 219.503 124.869 219.56 124.82C219.618 124.77 219.665 124.71 219.698 124.642C219.732 124.575 219.752 124.501 219.756 124.425C219.761 124.35 219.75 124.274 219.724 124.203C219.699 124.131 219.659 124.066 219.608 124.01C219.557 123.955 219.495 123.91 219.426 123.879C216.061 122.206 213.258 118.205 213.23 118.163C213.191 118.097 213.138 118.039 213.075 117.994C213.012 117.949 212.941 117.917 212.865 117.901C212.789 117.885 212.711 117.884 212.636 117.9C212.56 117.915 212.488 117.946 212.424 117.99C212.361 118.034 212.307 118.091 212.267 118.157C212.226 118.223 212.2 118.296 212.189 118.373C212.178 118.45 212.183 118.528 212.204 118.602C212.225 118.677 212.26 118.746 212.309 118.806C212.417 118.966 214.805 122.363 217.948 124.334Z" fill="black"/>
<path d="M208.595 92.4425C208.669 92.5411 208.775 92.6124 208.894 92.6454C209.013 92.6783 209.14 92.671 209.254 92.6248C209.369 92.5785 209.465 92.4958 209.528 92.3893C209.591 92.2828 209.618 92.1586 209.603 92.0358C209.321 89.8107 209.651 88.2914 210.587 87.5161C211.922 86.4245 214.112 87.1511 214.137 87.1685C214.206 87.1926 214.28 87.2027 214.353 87.1983C214.427 87.1938 214.499 87.1749 214.565 87.1426C214.631 87.1103 214.691 87.0652 214.739 87.01C214.788 86.9548 214.825 86.8905 214.849 86.8208C214.896 86.6801 214.886 86.5268 214.821 86.3935C214.756 86.2603 214.641 86.1578 214.502 86.1081C214.387 86.0698 211.689 85.1798 209.881 86.6574C208.626 87.7004 208.143 89.5395 208.491 92.1783C208.503 92.2735 208.539 92.3642 208.595 92.4425Z" fill="black"/>
<path d="M235.981 96.4338C229.198 94.4174 222.461 87.2937 219.874 88.6948C217.287 90.0959 216.769 93.5865 219.669 96.1001C222.568 98.6137 225.888 100.293 232.88 103.401C239.871 106.509 246.915 109.047 248.101 105.059C249.286 101.072 245.956 99.3959 235.981 96.4338Z" fill="#FFB49F"/>
<path d="M236.802 100.022C236.884 100.131 237.003 100.206 237.137 100.234C237.27 100.262 237.409 100.241 237.528 100.175C238.989 99.3509 240.411 99.1319 241.756 99.5386C244.457 100.345 246.039 103.363 246.057 103.401C246.13 103.524 246.247 103.615 246.385 103.655C246.522 103.695 246.67 103.681 246.797 103.615C246.925 103.55 247.023 103.439 247.071 103.304C247.12 103.17 247.115 103.022 247.058 102.89C246.985 102.748 245.247 99.4135 242.083 98.4644C240.435 97.9672 238.717 98.214 236.976 99.1945C236.847 99.2681 236.752 99.3899 236.712 99.5332C236.672 99.6765 236.691 99.8297 236.763 99.9594L236.802 100.022Z" fill="black"/>
<path d="M220.624 92.9539C220.692 93.046 220.787 93.115 220.896 93.1517C221.005 93.1884 221.122 93.1909 221.232 93.1591C227.49 91.3651 229.68 96.6357 229.771 96.8686C229.834 96.9944 229.942 97.092 230.074 97.142C230.205 97.1921 230.351 97.1911 230.482 97.1392C230.613 97.0872 230.719 96.9883 230.781 96.8616C230.842 96.735 230.854 96.5899 230.814 96.4549C230.786 96.3889 228.158 90.0022 220.919 92.0778C220.776 92.1191 220.655 92.2154 220.582 92.3458C220.51 92.4761 220.492 92.6298 220.533 92.7731C220.551 92.8388 220.582 92.9002 220.624 92.9539Z" fill="black"/>
<path d="M241.815 93.427C242.491 94.3455 243.322 95.1396 244.27 95.7737C244.333 95.8185 244.404 95.8498 244.479 95.8659C244.554 95.882 244.632 95.8824 244.708 95.8672C244.783 95.852 244.855 95.8214 244.918 95.7774C244.982 95.7334 245.035 95.6767 245.076 95.6112C245.116 95.5456 245.143 95.4725 245.154 95.3962C245.165 95.3199 245.161 95.2423 245.14 95.1679C245.12 95.0935 245.085 95.024 245.037 94.9637C244.989 94.9035 244.929 94.8538 244.861 94.8176C243.662 93.9971 242.681 92.8969 242.003 91.6122C241.935 91.4799 241.818 91.3798 241.676 91.3342C241.535 91.2886 241.381 91.301 241.248 91.3688C241.116 91.4365 241.016 91.5541 240.97 91.6956C240.925 91.8371 240.937 91.9909 241.005 92.1232C241.239 92.5792 241.51 93.0152 241.815 93.427Z" fill="black"/>
<path d="M218.278 108.283C219.333 109.703 220.869 110.691 222.599 111.064C222.743 111.078 222.887 111.036 223.001 110.948C223.115 110.859 223.19 110.73 223.211 110.587C223.233 110.444 223.199 110.298 223.116 110.18C223.033 110.062 222.908 109.98 222.766 109.951C222.564 109.92 217.986 109.138 217.791 103.137C217.776 102.995 217.708 102.865 217.601 102.771C217.493 102.678 217.354 102.628 217.212 102.633C217.069 102.638 216.934 102.697 216.833 102.797C216.732 102.898 216.673 103.033 216.668 103.175C216.751 105.47 217.412 107.114 218.278 108.283Z" fill="black"/>
<path d="M214.978 83.4803C216.223 85.1595 217.804 86.7449 219.734 87.6836C219.868 87.7486 220.022 87.7578 220.162 87.7092C220.303 87.6606 220.418 87.5582 220.483 87.4245C220.548 87.2908 220.557 87.1368 220.509 86.9963C220.46 86.8558 220.358 86.7403 220.224 86.6753C215.124 84.1895 212.513 76.3914 212.489 76.3115C212.471 76.2356 212.437 76.1643 212.39 76.1021C212.344 76.0398 212.284 75.9879 212.216 75.9497C212.148 75.9115 212.073 75.8879 211.996 75.8802C211.918 75.8725 211.84 75.881 211.766 75.9051C211.692 75.9293 211.624 75.9685 211.565 76.0204C211.507 76.0723 211.461 76.1356 211.428 76.2065C211.396 76.2773 211.378 76.3542 211.377 76.4321C211.376 76.51 211.391 76.5873 211.421 76.6591C212.272 79.0922 213.47 81.3896 214.978 83.4803Z" fill="black"/>
<path d="M217.303 81.8426C217.336 81.8889 217.376 81.93 217.421 81.9643C227.903 89.613 237.475 79.5132 237.569 79.4089C237.669 79.2997 237.723 79.1548 237.717 79.0061C237.711 78.8575 237.647 78.7172 237.537 78.6163C237.483 78.5663 237.42 78.5274 237.351 78.5019C237.281 78.4764 237.208 78.4648 237.135 78.4677C236.986 78.4736 236.845 78.5383 236.745 78.6476C236.397 79.037 227.754 88.1249 218.085 81.0569C217.977 80.9758 217.844 80.9364 217.709 80.946C217.574 80.9557 217.448 81.0137 217.352 81.1094C217.257 81.2051 217.2 81.332 217.191 81.4668C217.182 81.6015 217.221 81.735 217.303 81.8426Z" fill="white"/>
<path d="M222.52 38.593C222.544 38.6283 222.573 38.6599 222.607 38.6868C222.72 38.7833 222.867 38.831 223.016 38.8193C223.165 38.8075 223.302 38.7374 223.399 38.6242C225.374 36.3053 227.648 35.0294 230.158 34.8382C234.65 34.4905 238.463 37.7342 238.502 37.769C238.615 37.8659 238.762 37.9141 238.911 37.9031C239.059 37.892 239.197 37.8226 239.294 37.7099C239.343 37.6543 239.38 37.5896 239.404 37.5196C239.427 37.4496 239.437 37.3756 239.432 37.302C239.426 37.2283 239.407 37.1563 239.374 37.0903C239.341 37.0242 239.295 36.9654 239.239 36.9172C239.068 36.7712 235.046 33.3397 230.081 33.7152C227.258 33.9308 224.724 35.3353 222.544 37.8872C222.46 37.9841 222.411 38.1072 222.407 38.2357C222.402 38.3642 222.442 38.4904 222.52 38.593Z" fill="black"/>
<path d="M231.875 108.38C231.941 108.469 232.031 108.536 232.135 108.574C232.239 108.612 232.352 108.618 232.46 108.592C232.567 108.566 232.665 108.509 232.74 108.428C232.815 108.347 232.865 108.245 232.883 108.136L234.701 96.8441C234.713 96.7027 234.671 96.5621 234.583 96.4505C234.496 96.3388 234.369 96.2643 234.229 96.2419C234.089 96.2195 233.945 96.2508 233.827 96.3296C233.709 96.4084 233.626 96.5288 233.592 96.6668L231.774 107.956C231.761 108.029 231.763 108.105 231.78 108.178C231.798 108.251 231.83 108.32 231.875 108.38Z" fill="black"/>
<path d="M205.24 96.1067C206.482 96.1067 207.489 95.0996 207.489 93.8573C207.489 92.615 206.482 91.6079 205.24 91.6079C203.997 91.6079 202.99 92.615 202.99 93.8573C202.99 95.0996 203.997 96.1067 205.24 96.1067Z" fill="#07ACEE"/>
<path d="M207.044 92.519C207.311 92.8755 207.465 93.3031 207.488 93.7475C207.511 94.1918 207.401 94.633 207.173 95.015C206.945 95.397 206.608 95.7025 206.206 95.893C205.804 96.0834 205.354 96.1501 204.914 96.0845C204.474 96.019 204.063 95.8243 203.734 95.5249C203.405 95.2256 203.172 94.8352 203.065 94.4033C202.958 93.9714 202.982 93.5175 203.133 93.0991C203.285 92.6807 203.557 92.3165 203.915 92.0531C204.393 91.7014 204.99 91.553 205.576 91.6403C206.162 91.7276 206.69 92.0435 207.044 92.519ZM207.948 91.848C207.55 91.3126 207.003 90.9072 206.375 90.683C205.746 90.4588 205.066 90.426 204.419 90.5886C203.772 90.7512 203.188 91.1021 202.74 91.5967C202.293 92.0913 202.002 92.7076 201.905 93.3675C201.808 94.0273 201.908 94.7013 202.194 95.304C202.48 95.9067 202.938 96.4111 203.51 96.7535C204.083 97.0958 204.744 97.2607 205.41 97.2273C206.077 97.1939 206.718 96.9638 207.253 96.5659C207.969 96.0313 208.444 95.2347 208.575 94.3505C208.705 93.4664 208.48 92.5665 207.948 91.848Z" fill="black"/>
<path d="M223.382 48.8353L223.406 48.8665C223.504 48.9792 223.642 49.0487 223.791 49.0598C223.939 49.0709 224.086 49.0227 224.199 48.9257C226.633 46.8119 229.108 45.901 231.5 46.2139C235.443 46.725 237.967 50.3546 237.991 50.3859C238.03 50.4529 238.082 50.5112 238.144 50.5571C238.207 50.603 238.278 50.6356 238.354 50.6527C238.429 50.6699 238.507 50.6714 238.583 50.657C238.659 50.6426 238.732 50.6126 238.796 50.569C238.86 50.5253 238.914 50.469 238.955 50.4034C238.996 50.3379 239.024 50.2646 239.035 50.188C239.047 50.1115 239.043 50.0332 239.023 49.9584C239.003 49.8836 238.967 49.8137 238.919 49.7531C238.804 49.5862 236.082 45.6715 231.646 45.0944C228.906 44.7468 226.149 45.7411 223.448 48.0705C223.343 48.1664 223.278 48.2982 223.266 48.4399C223.254 48.5816 223.295 48.7228 223.382 48.8353Z" fill="white"/>
<path d="M246.244 110.39C246.244 110.39 231.11 111.363 230.102 125.457C230.102 125.471 238.018 125.729 246.244 110.39Z" fill="#FFB49F"/>
<path d="M266.958 128.785C275.761 145.71 252.255 175.372 252.255 175.372C252.255 175.372 214.474 177.594 205.668 160.67C199.698 149.197 199.236 135.527 208.797 129.863C221.25 122.489 230.498 135.405 230.498 135.405C230.498 135.405 229.9 119.635 239.419 114.197C249.922 108.207 261.096 117.517 266.958 128.785Z" fill="#4BD657"/>
<path d="M247.999 175.981C242.709 175.991 237.425 175.623 232.188 174.879C218.017 172.793 208.939 168.079 205.209 160.903C199.552 150.031 198.186 135.523 208.543 129.404C218.973 123.24 227.272 130.903 229.99 133.948C230.095 129.839 231.12 118.338 239.176 113.742C240.864 112.745 242.743 112.113 244.691 111.886C246.639 111.66 248.613 111.844 250.485 112.428C256.806 114.288 263.137 120.313 267.42 128.546C271.15 135.721 269.791 145.852 263.373 158.657C260.324 164.647 256.739 170.349 252.661 175.692L252.515 175.873H252.283C252.244 175.884 250.621 175.981 247.999 175.981ZM216.577 128.09C214.074 128.09 211.567 128.827 209.075 130.305C199.298 136.09 200.699 149.972 206.133 160.423C214.324 176.165 248.795 175.004 251.987 174.858C253.941 172.327 274.683 144.771 266.495 129.025C262.323 121.029 256.246 115.209 250.189 113.429C248.451 112.888 246.619 112.717 244.81 112.927C243.002 113.137 241.258 113.724 239.69 114.649C230.564 119.864 231.03 135.224 231.033 135.377L231.099 137.116L230.088 135.725C228.42 133.565 226.368 131.731 224.035 130.315C221.798 128.908 219.219 128.139 216.577 128.09Z" fill="#1D1E1B"/>
<path d="M262.991 141.465C262.714 141.465 262.449 141.355 262.254 141.159C262.058 140.964 261.948 140.698 261.948 140.422C261.948 133.43 259.167 127.683 253.712 123.337C251.208 121.344 248.368 119.814 245.326 118.818C245.06 118.743 244.834 118.566 244.698 118.324C244.563 118.083 244.529 117.798 244.603 117.531C244.678 117.265 244.855 117.039 245.097 116.903C245.338 116.768 245.623 116.734 245.889 116.808C249.175 117.86 252.244 119.499 254.946 121.644C259.094 124.919 264.034 130.833 264.034 140.418C264.035 140.555 264.008 140.691 263.956 140.818C263.903 140.945 263.827 141.061 263.73 141.158C263.633 141.255 263.518 141.332 263.391 141.385C263.264 141.438 263.128 141.465 262.991 141.465Z" fill="white"/>
<path d="M205.226 179.631C205.226 179.631 203.953 138.133 226.944 148.049L233.658 142.323C233.658 142.323 244.661 140.609 238.814 151.817C238.814 151.817 248.43 149.318 241.943 163.593C241.943 163.593 250.21 162.345 240.117 180.656C234.322 191.173 218.719 199.128 218.719 199.128L205.226 179.631Z" fill="#FFCDB2"/>
<path d="M218.712 199.649C218.628 199.649 218.545 199.628 218.47 199.589C218.396 199.549 218.332 199.492 218.284 199.423L204.798 179.926C204.741 179.843 204.71 179.745 204.708 179.644C204.677 178.632 204.065 154.783 214.262 147.85C217.679 145.524 221.91 145.389 226.851 147.443L233.321 141.926C233.395 141.864 233.483 141.822 233.578 141.804C233.773 141.776 238.393 141.088 240.285 143.723C241.463 145.364 241.275 147.861 239.728 151.15C240.848 151.059 242.614 151.17 243.734 152.505C245.305 154.376 244.968 157.932 242.732 163.085C243.169 163.132 243.59 163.271 243.969 163.494C244.347 163.717 244.674 164.019 244.926 164.378C246.685 166.906 245.221 172.465 240.57 180.906C234.76 191.444 219.592 199.263 218.948 199.59C218.875 199.628 218.794 199.648 218.712 199.649ZM205.744 179.46L218.879 198.449C221.351 197.118 234.524 189.723 239.655 180.402C245.482 169.83 244.922 166.2 244.071 164.976C243.833 164.665 243.519 164.421 243.159 164.269C242.798 164.116 242.404 164.061 242.016 164.107C241.923 164.121 241.828 164.11 241.741 164.075C241.654 164.039 241.579 163.981 241.522 163.905C241.465 163.831 241.429 163.743 241.419 163.649C241.408 163.556 241.424 163.462 241.463 163.377C244.377 156.966 243.873 154.292 242.937 153.176C241.648 151.643 238.974 152.318 238.946 152.325C238.848 152.349 238.746 152.345 238.651 152.312C238.555 152.28 238.471 152.221 238.409 152.142C238.346 152.063 238.307 151.968 238.297 151.868C238.287 151.768 238.306 151.667 238.352 151.577C240.107 148.215 240.472 145.778 239.44 144.335C238.084 142.441 234.621 142.733 233.877 142.819L227.271 148.445C227.197 148.508 227.107 148.549 227.01 148.563C226.914 148.578 226.816 148.566 226.726 148.528C222.011 146.494 218.01 146.553 214.839 148.712C205.528 155.047 205.709 177.391 205.744 179.46Z" fill="#1D1D1B"/>
<path d="M213.922 160.238C213.922 160.238 216.901 154.977 226.945 148.038L213.922 160.238Z" fill="#FFCDB2"/>
<path d="M213.921 160.933C213.799 160.934 213.679 160.903 213.573 160.843C213.414 160.751 213.297 160.601 213.248 160.424C213.199 160.246 213.222 160.057 213.313 159.897C213.438 159.674 216.483 154.414 226.544 147.464C226.697 147.36 226.884 147.32 227.066 147.353C227.247 147.387 227.408 147.491 227.513 147.643C227.617 147.796 227.657 147.983 227.624 148.165C227.59 148.346 227.486 148.507 227.334 148.612C217.575 155.349 214.55 160.53 214.522 160.582C214.462 160.688 214.374 160.777 214.269 160.838C214.163 160.9 214.043 160.933 213.921 160.933Z" fill="#1D1D1B"/>
<path d="M221.371 171.763C221.371 171.763 228.356 164.18 238.813 151.817L221.371 171.763Z" fill="#FFCDB2"/>
<path d="M221.372 172.284C221.243 172.284 221.118 172.234 221.024 172.145C220.974 172.099 220.933 172.043 220.904 171.981C220.875 171.919 220.859 171.852 220.856 171.783C220.853 171.715 220.864 171.646 220.887 171.582C220.911 171.518 220.947 171.459 220.993 171.408C221.063 171.335 228.089 163.69 238.422 151.484C238.465 151.431 238.519 151.387 238.579 151.355C238.64 151.323 238.707 151.304 238.775 151.298C238.843 151.292 238.912 151.3 238.978 151.321C239.043 151.342 239.103 151.376 239.155 151.421C239.261 151.51 239.326 151.637 239.338 151.775C239.35 151.912 239.306 152.049 239.218 152.155C228.871 164.382 221.834 172.041 221.761 172.117C221.712 172.171 221.651 172.213 221.584 172.242C221.517 172.271 221.445 172.285 221.372 172.284Z" fill="#1D1D1B"/>
<path d="M225.654 181.942C225.654 181.942 233.192 178.782 241.841 163.888L225.654 181.942Z" fill="#FFCDB2"/>
<path d="M225.655 182.464C225.535 182.464 225.418 182.423 225.325 182.347C225.232 182.271 225.168 182.165 225.143 182.047C225.119 181.929 225.136 181.807 225.192 181.7C225.248 181.594 225.339 181.51 225.45 181.463C225.526 181.431 232.956 178.153 241.394 163.627C241.425 163.563 241.47 163.506 241.524 163.46C241.579 163.414 241.642 163.379 241.711 163.358C241.779 163.338 241.851 163.331 241.922 163.339C241.993 163.348 242.062 163.37 242.123 163.406C242.185 163.442 242.239 163.49 242.281 163.548C242.324 163.605 242.354 163.671 242.37 163.74C242.386 163.81 242.388 163.882 242.375 163.953C242.362 164.023 242.334 164.09 242.294 164.149C233.655 179.026 226.17 182.294 225.857 182.426C225.793 182.452 225.724 182.465 225.655 182.464Z" fill="#1D1D1B"/>
<path d="M227.036 175.459C227.036 175.459 228.308 133.961 205.317 143.877L198.604 138.151C198.604 138.151 187.6 136.437 193.448 147.645C193.448 147.645 183.831 145.146 190.319 159.421C190.319 159.421 182.051 158.173 192.144 176.484C197.94 187.001 213.543 194.956 213.543 194.956L227.036 175.459Z" fill="#FFCDB2"/>
<path d="M213.55 195.477C213.468 195.476 213.387 195.456 213.314 195.418C212.671 195.091 197.502 187.272 191.692 176.734C187.041 168.293 185.577 162.734 187.336 160.206C187.588 159.847 187.915 159.545 188.293 159.322C188.672 159.099 189.093 158.96 189.53 158.913C187.295 153.761 186.957 150.204 188.529 148.334C189.648 147.002 191.414 146.891 192.534 146.978C190.987 143.689 190.796 141.192 191.978 139.552C193.869 136.916 198.489 137.605 198.684 137.632C198.779 137.65 198.867 137.692 198.941 137.754L205.411 143.272C210.348 141.217 214.583 141.356 218 143.678C228.197 150.611 227.586 174.461 227.554 175.472C227.553 175.573 227.521 175.671 227.464 175.754L213.978 195.251C213.93 195.321 213.866 195.378 213.792 195.417C213.717 195.456 213.634 195.477 213.55 195.477ZM190.003 159.921C189.65 159.91 189.299 159.986 188.982 160.141C188.665 160.297 188.391 160.528 188.185 160.815C187.34 162.042 186.794 165.682 192.607 176.23C197.745 185.558 210.911 192.946 213.383 194.277L226.518 175.288C226.553 173.219 226.734 150.875 217.413 144.541C214.242 142.385 210.244 142.322 205.526 144.356C205.436 144.395 205.338 144.407 205.241 144.393C205.145 144.378 205.054 144.336 204.98 144.273L198.374 138.648C197.63 138.561 194.168 138.269 192.812 140.163C191.769 141.606 192.144 144.043 193.9 147.405C193.946 147.495 193.965 147.596 193.955 147.696C193.945 147.796 193.906 147.891 193.843 147.97C193.78 148.049 193.697 148.108 193.601 148.14C193.506 148.173 193.403 148.177 193.305 148.153C193.278 148.153 190.594 147.478 189.314 149.008C188.379 150.124 187.875 152.798 190.789 159.205C190.828 159.29 190.844 159.384 190.833 159.478C190.823 159.571 190.787 159.659 190.73 159.733C190.673 159.808 190.597 159.867 190.51 159.902C190.423 159.938 190.329 159.949 190.236 159.935C190.159 159.926 190.081 159.922 190.003 159.921Z" fill="#1D1D1B"/>
<path d="M218.342 156.065C218.342 156.065 215.362 150.805 205.318 143.866L218.342 156.065Z" fill="#FFCDB2"/>
<path d="M218.341 156.597C218.249 156.598 218.159 156.573 218.079 156.527C218 156.481 217.934 156.414 217.889 156.333C217.858 156.281 214.823 151.076 205.026 144.304C204.965 144.267 204.914 144.217 204.873 144.159C204.833 144.101 204.804 144.036 204.79 143.966C204.776 143.897 204.776 143.826 204.79 143.756C204.804 143.687 204.832 143.621 204.872 143.563C204.913 143.505 204.965 143.456 205.025 143.418C205.085 143.381 205.152 143.356 205.222 143.345C205.292 143.335 205.363 143.338 205.432 143.356C205.5 143.374 205.565 143.405 205.62 143.449C215.647 150.374 218.675 155.6 218.8 155.819C218.845 155.898 218.869 155.988 218.868 156.079C218.867 156.171 218.843 156.26 218.797 156.339C218.751 156.418 218.685 156.483 218.605 156.529C218.526 156.574 218.436 156.598 218.345 156.597H218.341Z" fill="#1D1D1B"/>
<path d="M210.89 167.591C210.89 167.591 203.905 160.008 193.447 147.646L210.89 167.591Z" fill="#FFCDB2"/>
<path d="M210.89 168.112C210.818 168.113 210.746 168.098 210.68 168.069C210.614 168.041 210.554 167.998 210.504 167.946C210.435 167.869 203.395 160.21 193.048 147.983C192.959 147.877 192.916 147.74 192.928 147.603C192.939 147.465 193.005 147.338 193.111 147.249C193.163 147.204 193.223 147.17 193.288 147.149C193.353 147.128 193.422 147.12 193.491 147.126C193.559 147.132 193.625 147.151 193.686 147.183C193.747 147.215 193.801 147.259 193.844 147.312C204.177 159.522 211.203 167.163 211.273 167.236C211.319 167.287 211.355 167.346 211.379 167.41C211.402 167.475 211.413 167.543 211.41 167.611C211.407 167.68 211.391 167.747 211.362 167.809C211.333 167.871 211.292 167.927 211.242 167.973C211.147 168.063 211.021 168.113 210.89 168.112Z" fill="#1D1D1B"/>
<path d="M206.607 177.771C206.607 177.771 199.07 174.611 190.42 159.717L206.607 177.771Z" fill="#FFCDB2"/>
<path d="M206.608 178.292C206.539 178.293 206.47 178.28 206.406 178.254C206.093 178.122 198.608 174.854 189.968 159.977C189.934 159.918 189.912 159.852 189.903 159.785C189.894 159.717 189.899 159.648 189.916 159.581C189.934 159.515 189.965 159.453 190.006 159.399C190.048 159.344 190.1 159.299 190.16 159.265C190.219 159.23 190.284 159.208 190.352 159.199C190.42 159.19 190.489 159.195 190.555 159.213C190.622 159.23 190.684 159.261 190.738 159.303C190.792 159.344 190.838 159.396 190.872 159.456C199.307 173.981 206.736 177.26 206.813 177.291C206.923 177.338 207.014 177.422 207.07 177.529C207.126 177.635 207.144 177.758 207.119 177.875C207.095 177.993 207.031 178.099 206.938 178.175C206.845 178.251 206.728 178.293 206.608 178.292Z" fill="#1D1D1B"/>
<path d="M275.16 156.065C275.16 156.065 292.543 169.329 298.453 203.348C308.376 260.553 258.037 263.866 244.774 253.975C231.51 244.084 206.621 228.126 203.301 216.305C199.98 204.485 207.556 200.055 207.556 200.055L203.311 191.771L228.343 171.147L232.362 175.976C232.362 175.976 244.367 171.947 250.548 181.494C256.73 191.041 263.801 203.744 267.865 209.057" fill="#07ACEE"/>
<path d="M261.379 258.821H261.299C254.457 258.821 248.164 257.152 244.465 254.392C242.25 252.74 239.705 250.915 237.007 248.982C223.021 238.952 205.613 226.467 202.797 216.448C199.867 206.018 205.311 201.063 206.886 199.888L202.655 191.635L228.413 170.427L232.547 175.392C234.602 174.818 245.258 172.374 250.973 181.222C253.515 185.147 256.188 189.566 258.771 193.86C262.432 199.927 265.888 205.653 268.266 208.754L267.439 209.387C265.026 206.258 261.553 200.49 257.878 194.399C255.298 190.122 252.628 185.707 250.097 181.789C244.211 172.701 232.992 176.324 232.516 176.484L232.168 176.595L228.25 171.891L203.941 191.92L208.224 200.264L207.797 200.514C207.501 200.685 200.614 204.909 203.778 216.159C206.496 225.828 224.467 238.716 237.592 248.127C240.293 250.063 242.845 251.892 245.063 253.547C248.592 256.179 254.652 257.757 261.278 257.771H261.355C268.885 257.771 276.304 255.751 282.281 252.087C292.207 245.992 302.974 232.6 297.926 203.431C292.13 170 275.004 156.604 274.83 156.472L275.463 155.645C275.644 155.78 279.937 159.1 285.013 166.652C289.682 173.605 295.892 185.589 298.955 203.25C301.141 215.864 300.547 226.704 297.192 235.479C294.313 243.006 289.484 248.895 282.837 252.977C276.721 256.749 269.101 258.821 261.379 258.821Z" fill="#1D1D1B"/>
<path d="M208.408 200.219C208.408 200.219 228.573 195.699 232.05 176.578L228.225 171.71L204.236 191.875L208.408 200.219Z" fill="#0598C6"/>
<path d="M140.317 195.539C141.88 195.539 143.146 194.272 143.146 192.709C143.146 191.146 141.88 189.879 140.317 189.879C138.754 189.879 137.486 191.146 137.486 192.709C137.486 194.272 138.754 195.539 140.317 195.539Z" fill="#51CEF4"/>
<path d="M171.955 179.547C173.518 179.547 174.785 178.28 174.785 176.717C174.785 175.154 173.518 173.887 171.955 173.887C170.392 173.887 169.125 175.154 169.125 176.717C169.125 178.28 170.392 179.547 171.955 179.547Z" fill="#51CEF4"/>
<path d="M166.74 160.426C168.303 160.426 169.57 159.159 169.57 157.596C169.57 156.033 168.303 154.766 166.74 154.766C165.177 154.766 163.91 156.033 163.91 157.596C163.91 159.159 165.177 160.426 166.74 160.426Z" fill="#51CEF4"/>
<path d="M180.994 143.39C182.557 143.39 183.824 142.123 183.824 140.56C183.824 138.997 182.557 137.73 180.994 137.73C179.431 137.73 178.164 138.997 178.164 140.56C178.164 142.123 179.431 143.39 180.994 143.39Z" fill="#51CEF4"/>
<path d="M140.317 238.65C141.88 238.65 143.146 237.383 143.146 235.82C143.146 234.257 141.88 232.99 140.317 232.99C138.754 232.99 137.486 234.257 137.486 235.82C137.486 237.383 138.754 238.65 140.317 238.65Z" fill="#51CEF4"/>
<path d="M187.252 233.783C188.815 233.783 190.082 232.516 190.082 230.953C190.082 229.39 188.815 228.123 187.252 228.123C185.689 228.123 184.422 229.39 184.422 230.953C184.422 232.516 185.689 233.783 187.252 233.783Z" fill="#51CEF4"/>
<path d="M169.869 214.313C171.432 214.313 172.699 213.046 172.699 211.483C172.699 209.92 171.432 208.653 169.869 208.653C168.306 208.653 167.039 209.92 167.039 211.483C167.039 213.046 168.306 214.313 169.869 214.313Z" fill="#51CEF4"/>
<path d="M212.283 221.962C213.846 221.962 215.113 220.695 215.113 219.132C215.113 217.569 213.846 216.302 212.283 216.302C210.72 216.302 209.453 217.569 209.453 219.132C209.453 220.695 210.72 221.962 212.283 221.962Z" fill="#51CEF4"/>
<path d="M246.356 204.231C247.919 204.231 249.185 202.964 249.185 201.401C249.185 199.838 247.919 198.571 246.356 198.571C244.793 198.571 243.525 199.838 243.525 201.401C243.525 202.964 244.793 204.231 246.356 204.231Z" fill="#51CEF4"/>
<path d="M244.965 235.869C246.528 235.869 247.795 234.602 247.795 233.039C247.795 231.476 246.528 230.208 244.965 230.208C243.402 230.208 242.135 231.476 242.135 233.039C242.135 234.602 243.402 235.869 244.965 235.869Z" fill="#51CEF4"/>
<path d="M273.82 244.908C275.383 244.908 276.65 243.641 276.65 242.078C276.65 240.515 275.383 239.248 273.82 239.248C272.257 239.248 270.99 240.515 270.99 242.078C270.99 243.641 272.257 244.908 273.82 244.908Z" fill="#51CEF4"/>
<path d="M292.246 211.88C293.809 211.88 295.076 210.613 295.076 209.05C295.076 207.487 293.809 206.22 292.246 206.22C290.683 206.22 289.416 207.487 289.416 209.05C289.416 210.613 290.683 211.88 292.246 211.88Z" fill="#51CEF4"/>
<path d="M261.652 186.153C263.215 186.153 264.482 184.886 264.482 183.323C264.482 181.76 263.215 180.493 261.652 180.493C260.09 180.493 258.822 181.76 258.822 183.323C258.822 184.886 260.09 186.153 261.652 186.153Z" fill="#51CEF4"/>
<path d="M198.377 270.635C199.94 270.635 201.207 269.368 201.207 267.805C201.207 266.242 199.94 264.975 198.377 264.975C196.814 264.975 195.547 266.242 195.547 267.805C195.547 269.368 196.814 270.635 198.377 270.635Z" fill="#51CEF4"/>
<path d="M137.535 280.022C139.098 280.022 140.365 278.755 140.365 277.192C140.365 275.629 139.098 274.362 137.535 274.362C135.972 274.362 134.705 275.629 134.705 277.192C134.705 278.755 135.972 280.022 137.535 280.022Z" fill="#51CEF4"/>
<path d="M223.41 259.162C224.973 259.162 226.24 257.895 226.24 256.332C226.24 254.769 224.973 253.502 223.41 253.502C221.847 253.502 220.58 254.769 220.58 256.332C220.58 257.895 221.847 259.162 223.41 259.162Z" fill="#51CEF4"/>
<path d="M277.992 277.936C279.555 277.936 280.822 276.669 280.822 275.106C280.822 273.543 279.555 272.276 277.992 272.276C276.429 272.276 275.162 273.543 275.162 275.106C275.162 276.669 276.429 277.936 277.992 277.936Z" fill="#51CEF4"/>
<path d="M116.624 147.026C116.496 147.027 116.371 146.992 116.262 146.926C116.152 146.859 116.064 146.764 116.005 146.651C110.487 135.953 109.462 126.872 112.953 119.658C118.067 109.089 130.896 106.468 131.441 106.363C131.617 106.34 131.795 106.385 131.939 106.488C132.083 106.592 132.182 106.746 132.216 106.92C132.25 107.094 132.216 107.275 132.121 107.425C132.026 107.574 131.877 107.682 131.705 107.726C131.58 107.751 119.002 110.33 114.201 120.27C110.915 127.07 111.937 135.731 117.243 145.997C117.285 146.079 117.311 146.167 117.318 146.259C117.326 146.35 117.316 146.442 117.288 146.529C117.26 146.616 117.216 146.697 117.157 146.767C117.097 146.837 117.025 146.894 116.944 146.936C116.846 146.992 116.736 147.023 116.624 147.026Z" fill="#1D1D1B"/>
<path d="M119.753 220.036C119.481 220.036 119.221 219.931 119.026 219.742C118.831 219.553 118.718 219.296 118.71 219.024C118.164 201.022 123.08 187.516 127.3 179.359C131.89 170.487 136.562 165.933 136.76 165.745C136.858 165.645 136.975 165.566 137.103 165.512C137.232 165.458 137.371 165.431 137.51 165.431C137.65 165.432 137.788 165.46 137.916 165.515C138.044 165.57 138.161 165.65 138.257 165.751C138.354 165.851 138.43 165.97 138.48 166.101C138.53 166.231 138.553 166.37 138.548 166.509C138.544 166.649 138.511 166.786 138.452 166.913C138.394 167.039 138.31 167.153 138.207 167.247C138.13 167.32 133.527 171.832 129.108 180.402C125.023 188.329 120.264 201.45 120.796 218.962C120.8 219.099 120.777 219.235 120.728 219.363C120.68 219.492 120.606 219.609 120.513 219.709C120.419 219.808 120.306 219.889 120.181 219.945C120.056 220.001 119.921 220.032 119.784 220.036H119.753Z" fill="white"/>
<path d="M262.992 212.387C262.794 212.387 262.601 212.331 262.434 212.225C262.267 212.119 262.134 211.968 262.049 211.789C248.838 183.726 241.711 180.228 239.257 180.027C237.988 179.922 237.431 180.639 237.428 180.646C237.267 180.864 237.028 181.011 236.761 181.056C236.494 181.101 236.22 181.04 235.997 180.886C235.773 180.733 235.619 180.498 235.565 180.233C235.512 179.967 235.564 179.691 235.71 179.464C236.152 178.824 237.431 177.788 239.43 177.948C245.553 178.448 254.032 189.845 263.934 210.9C263.993 211.023 264.026 211.158 264.033 211.295C264.04 211.432 264.02 211.569 263.974 211.698C263.928 211.827 263.856 211.946 263.764 212.048C263.672 212.149 263.561 212.232 263.437 212.29C263.297 212.355 263.145 212.388 262.992 212.387Z" fill="white"/>
<path d="M305.754 206.825H305.674C305.583 206.814 305.495 206.786 305.415 206.742C305.335 206.697 305.265 206.638 305.208 206.566C305.151 206.494 305.109 206.412 305.084 206.324C305.059 206.236 305.051 206.144 305.062 206.053C307.19 187.435 299.611 172.357 292.873 162.988C285.551 152.798 277.611 146.953 277.531 146.898C277.381 146.789 277.281 146.625 277.253 146.443C277.224 146.26 277.269 146.074 277.378 145.924C277.486 145.775 277.65 145.675 277.833 145.646C278.015 145.617 278.202 145.662 278.351 145.771C278.431 145.83 286.521 151.782 293.975 162.139C300.869 171.714 308.626 187.133 306.446 206.213C306.426 206.382 306.344 206.538 306.216 206.65C306.089 206.763 305.924 206.825 305.754 206.825Z" fill="#1D1D1B"/>
<defs>
<filter id="filter0_d_14083_91640" x="-4.0192" y="107.785" width="38.6829" height="38.6839" filterUnits="userSpaceOnUse" color-interpolation-filters="sRGB">
<feFlood flood-opacity="0" result="BackgroundImageFix"/>
<feColorMatrix in="SourceAlpha" type="matrix" values="0 0 0 0 0 0 0 0 0 0 0 0 0 0 0 0 0 0 127 0" result="hardAlpha"/>
<feOffset dy="2.03704"/>
<feGaussianBlur stdDeviation="5.09261"/>
<feComposite in2="hardAlpha" operator="out"/>
<feColorMatrix type="matrix" values="0 0 0 0 0 0 0 0 0 0 0 0 0 0 0 0 0 0 0.05 0"/>
<feBlend mode="normal" in2="BackgroundImageFix" result="effect1_dropShadow_14083_91640"/>
<feBlend mode="normal" in="SourceGraphic" in2="effect1_dropShadow_14083_91640" result="shape"/>
</filter>
<filter id="filter1_d_14083_91640" x="370.649" y="165.21" width="38.6888" height="38.6883" filterUnits="userSpaceOnUse" color-interpolation-filters="sRGB">
<feFlood flood-opacity="0" result="BackgroundImageFix"/>
<feColorMatrix in="SourceAlpha" type="matrix" values="0 0 0 0 0 0 0 0 0 0 0 0 0 0 0 0 0 0 127 0" result="hardAlpha"/>
<feOffset dy="2.03704"/>
<feGaussianBlur stdDeviation="5.09261"/>
<feComposite in2="hardAlpha" operator="out"/>
<feColorMatrix type="matrix" values="0 0 0 0 0 0 0 0 0 0 0 0 0 0 0 0 0 0 0.05 0"/>
<feBlend mode="normal" in2="BackgroundImageFix" result="effect1_dropShadow_14083_91640"/>
<feBlend mode="normal" in="SourceGraphic" in2="effect1_dropShadow_14083_91640" result="shape"/>
</filter>
<linearGradient id="paint0_linear_14083_91640" x1="20.4547" y1="112.038" x2="392.053" y2="200.547" gradientUnits="userSpaceOnUse">
<stop stop-color="#CDD5E2"/>
<stop offset="1" stop-color="#CDD5E2" stop-opacity="0"/>
</linearGradient>
<linearGradient id="paint1_linear_14083_91640" x1="391.411" y1="195.437" x2="353.85" y2="294.044" gradientUnits="userSpaceOnUse">
<stop stop-color="#CDD5E2"/>
<stop offset="1" stop-color="#CDD5E2" stop-opacity="0"/>
</linearGradient>
<linearGradient id="paint2_linear_14083_91640" x1="196.502" y1="23.2607" x2="196.502" y2="365.006" gradientUnits="userSpaceOnUse">
<stop stop-color="#CDD5E2"/>
<stop offset="1" stop-color="#CDD5E2" stop-opacity="0"/>
</linearGradient>
<linearGradient id="paint3_linear_14083_91640" x1="196.505" y1="57.4336" x2="196.505" y2="330.83" gradientUnits="userSpaceOnUse">
<stop stop-color="#CDD5E2"/>
<stop offset="1" stop-color="#CDD5E2" stop-opacity="0"/>
</linearGradient>
</defs>
</svg>
