<svg width="217" height="161" viewBox="0 0 217 161" fill="none" xmlns="http://www.w3.org/2000/svg">
<mask id="mask0_14562_45218" style="mask-type:alpha" maskUnits="userSpaceOnUse" x="0" y="0" width="217" height="161">
<rect width="216.439" height="161" fill="#D9D9D9"/>
</mask>
<g mask="url(#mask0_14562_45218)">
<g opacity="0.5">
<mask id="path-2-inside-1_14562_45218" fill="white">
<path d="M207.987 108.035C209.062 83.3647 201.263 59.1257 186.003 39.7116C170.743 20.2975 149.033 6.99329 124.807 2.21047C100.581 -2.57234 75.443 1.48283 53.9499 13.6409C32.4568 25.799 16.031 45.2554 7.64993 68.4831L8.09775 68.6447C16.4402 45.524 32.7903 26.1574 54.1843 14.0553C75.5783 1.95325 100.6 -2.08323 124.715 2.67754C148.829 7.43831 170.439 20.6812 185.629 40.0058C200.819 59.3304 208.582 83.4576 207.512 108.014L207.987 108.035Z"/>
</mask>
<path d="M207.987 108.035C209.062 83.3647 201.263 59.1257 186.003 39.7116C170.743 20.2975 149.033 6.99329 124.807 2.21047C100.581 -2.57234 75.443 1.48283 53.9499 13.6409C32.4568 25.799 16.031 45.2554 7.64993 68.4831L8.09775 68.6447C16.4402 45.524 32.7903 26.1574 54.1843 14.0553C75.5783 1.95325 100.6 -2.08323 124.715 2.67754C148.829 7.43831 170.439 20.6812 185.629 40.0058C200.819 59.3304 208.582 83.4576 207.512 108.014L207.987 108.035Z" stroke="url(#paint0_linear_14562_45218)" stroke-width="1.51887" stroke-dasharray="2.28 2.28" mask="url(#path-2-inside-1_14562_45218)"/>
</g>
<g opacity="0.5">
<mask id="path-3-inside-2_14562_45218" fill="white">
<path d="M7.78784 138.972C16.2598 162.167 32.7616 181.559 54.3021 193.632C75.8426 205.706 100.996 209.663 125.203 204.785C149.41 199.908 171.069 186.519 186.252 167.045C201.436 147.571 209.141 123.302 207.969 98.6364L207.493 98.659C208.66 123.211 200.991 147.368 185.877 166.752C170.763 186.136 149.205 199.464 125.109 204.319C101.014 209.174 75.9761 205.235 54.5348 193.217C33.0936 181.199 16.6679 161.896 8.23502 138.809L7.78784 138.972Z"/>
</mask>
<path d="M7.78784 138.972C16.2598 162.167 32.7616 181.559 54.3021 193.632C75.8426 205.706 100.996 209.663 125.203 204.785C149.41 199.908 171.069 186.519 186.252 167.045C201.436 147.571 209.141 123.302 207.969 98.6364L207.493 98.659C208.66 123.211 200.991 147.368 185.877 166.752C170.763 186.136 149.205 199.464 125.109 204.319C101.014 209.174 75.9761 205.235 54.5348 193.217C33.0936 181.199 16.6679 161.896 8.23502 138.809L7.78784 138.972Z" stroke="url(#paint1_linear_14562_45218)" stroke-width="1.51887" stroke-dasharray="2.28 2.28" mask="url(#path-3-inside-2_14562_45218)"/>
</g>
<circle opacity="0.08" cx="104.802" cy="103.538" r="91.1321" fill="url(#paint2_linear_14562_45218)"/>
<circle opacity="0.1" cx="104.802" cy="103.537" r="72.9057" fill="url(#paint3_linear_14562_45218)"/>
<circle cx="104.802" cy="103.537" r="48.6038" fill="white"/>
<g filter="url(#filter0_d_14562_45218)">
<circle cx="8.17233" cy="66.7155" r="3.79717" transform="rotate(-2.50406 8.17233 66.7155)" fill="#0170FF"/>
<circle cx="8.17233" cy="66.7155" r="4.34038" transform="rotate(-2.50406 8.17233 66.7155)" stroke="white" stroke-width="1.08642"/>
</g>
<g filter="url(#filter1_d_14562_45218)">
<circle cx="207.994" cy="97.3459" r="3.79717" transform="rotate(-15.7345 207.994 97.3459)" fill="#0170FF"/>
<circle cx="207.994" cy="97.3459" r="4.34038" transform="rotate(-15.7345 207.994 97.3459)" stroke="white" stroke-width="1.08642"/>
</g>
</g>
<path d="M102.675 62.482C102.675 62.482 95.383 65.8957 94.0676 60.1262C92.7522 54.3566 90.1302 45.4588 81.1553 46.7129C72.1805 47.967 66.29 49.5995 63.3054 43.9683C60.3208 38.3371 39.6598 40.9171 43.3941 58.3904C49.5087 87.0262 103.435 79.5839 103.435 79.5839L106.763 73.5849L102.675 62.482Z" fill="#382256"/>
<path d="M56.8373 41.2976C59.8429 41.2976 62.3984 42.2522 63.318 43.9687C64.9364 47.0233 67.4094 47.9394 70.7654 47.9394C73.5976 47.9394 77.0588 47.286 81.1678 46.7133C81.7167 46.6353 82.2704 46.5956 82.8248 46.5942C90.4755 46.5942 92.8505 54.7283 94.0801 60.1265C94.6826 62.7696 96.5323 63.4842 98.3749 63.4842C100.545 63.4842 102.687 62.4823 102.687 62.4823L106.768 73.5923L103.44 79.5913C103.44 79.5913 97.1347 80.4671 88.6013 80.4671C72.1614 80.4671 47.4246 77.2443 43.3996 58.3978C40.8056 46.2544 49.9923 41.3046 56.839 41.3046L56.8373 41.2976ZM56.839 40.7791C53.2676 40.7791 48.3389 42.1541 45.2176 46.0127C42.6289 49.211 41.8231 53.532 42.8863 58.5064C44.7096 67.0468 50.8593 73.2665 61.1653 76.9938C68.5025 79.6474 77.733 80.9925 88.6013 80.9925C93.5847 81.0052 98.5645 80.7127 103.512 80.1168L103.773 80.08L103.899 79.8505L107.227 73.8515L107.345 73.6413L107.262 73.4154L103.179 62.3072L102.983 61.7695L102.458 62.0129C102.438 62.0129 100.393 62.964 98.3696 62.964C96.2783 62.964 95.0418 61.9989 94.5881 60.0144C93.9295 57.1244 93.0221 53.8 91.3004 51.0606C89.2178 47.752 86.3646 46.074 82.8195 46.074C82.2404 46.0748 81.6622 46.1164 81.089 46.1983C80.0994 46.335 79.1518 46.4786 78.2357 46.6152C75.358 47.0461 72.8726 47.4192 70.7603 47.4192C67.1906 47.4192 65.1676 46.3507 63.7769 43.7287C62.7978 41.8808 60.2054 40.7773 56.8407 40.7773L56.839 40.7791Z" fill="#1D1E1B"/>
<path d="M69.4615 119.405C68.3038 140.084 71.8365 151.518 71.8365 151.518L137.694 152.325C140.132 139.656 137.148 124.357 137.148 124.357C137.148 124.357 143.082 116.592 147.718 116.594C154.91 116.594 161.105 118.125 166.08 107.33C171.054 96.5355 156.201 94.5843 142.935 87.1105C129.669 79.6367 111.582 80.4547 111.582 80.4547C111.582 80.4547 93.5416 75.3752 75.4255 88.9671" fill="#07ACEE"/>
<path d="M137.902 152.592L71.6414 151.779L71.5837 151.595C71.5487 151.481 68.0526 139.879 69.1998 119.391L69.7253 119.421C68.6621 138.42 71.5993 149.71 72.0354 151.259L137.469 152.061C139.795 139.625 136.912 124.562 136.883 124.408L136.86 124.29L136.932 124.197C137.177 123.875 142.999 116.331 147.709 116.331C148.518 116.331 149.318 116.351 150.094 116.37C156.205 116.519 161.479 116.648 165.832 107.22C166.872 104.96 167.058 103.03 166.417 101.321C164.988 97.5479 159.509 95.1325 153.166 92.3371C149.937 90.9131 146.276 89.2999 142.796 87.34C129.75 79.9835 111.766 80.7086 111.585 80.7174H111.543L111.501 80.7051C111.457 80.6929 106.947 79.451 100.291 79.8767C94.1503 80.2672 84.8777 82.1992 75.5823 89.1756L75.2671 88.7552C84.678 81.6948 94.0628 79.7435 100.281 79.3494C106.679 78.9448 111.14 80.0641 111.611 80.1884C112.592 80.1534 130.19 79.628 143.064 86.8793C146.519 88.827 150.01 90.3666 153.387 91.8536C159.838 94.6981 165.41 97.1538 166.918 101.137C167.618 102.985 167.42 105.048 166.317 107.442C161.828 117.184 156.389 117.051 150.091 116.901C149.318 116.881 148.514 116.862 147.716 116.862C143.53 116.862 138.11 123.563 137.427 124.43C137.697 125.888 140.258 140.392 137.953 152.381L137.902 152.592Z" fill="#1D1D1B"/>
<path d="M113.148 102.334C114.018 102.334 114.722 101.627 114.722 100.756C114.722 99.8843 114.018 99.1777 113.148 99.1777C112.278 99.1777 111.573 99.8843 111.573 100.756C111.573 101.627 112.278 102.334 113.148 102.334Z" fill="#51CEF4"/>
<path d="M111.671 44.9258C111.78 40.9301 108.633 37.6035 104.643 37.4955C100.653 37.3876 97.3312 40.5392 97.2231 44.5348C97.115 48.5304 100.262 51.8571 104.252 51.965C108.241 52.073 111.563 48.9214 111.671 44.9258Z" fill="#382256"/>
<path d="M104.456 52.2377C103.217 52.2352 101.998 51.9262 100.908 51.3382C99.8181 50.7502 98.8903 49.9014 98.208 48.8677C97.5257 47.834 97.1099 46.6475 96.9977 45.414C96.8854 44.1805 97.0803 42.9384 97.5649 41.7986L97.8067 41.9019L97.5649 41.7986C98.0978 40.5571 98.9569 39.4829 100.051 38.6901C101.145 37.8972 102.433 37.4153 103.779 37.2952C105.125 37.1752 106.478 37.4216 107.695 38.0083C108.912 38.595 109.947 39.5001 110.692 40.6277C111.436 41.7553 111.861 43.0633 111.922 44.413C111.983 45.7627 111.678 47.1038 111.039 48.294C110.399 49.4843 109.45 50.4793 108.291 51.1736C107.132 51.8679 105.807 52.2356 104.456 52.2377ZM104.456 37.7543C102.726 37.7506 101.056 38.3895 99.771 39.5469C98.4857 40.7044 97.6761 42.298 97.4992 44.0186C97.3222 45.7392 97.7906 47.4642 98.8135 48.859C99.8364 50.2538 101.341 51.219 103.035 51.5674C104.729 51.9159 106.492 51.6226 107.983 50.7447C109.473 49.8667 110.584 48.4665 111.101 46.8158C111.617 45.165 111.502 43.3812 110.778 41.8105C110.053 40.2398 108.772 38.994 107.181 38.3148C106.32 37.9459 105.394 37.7552 104.457 37.7543H104.456Z" fill="#1D1E1B"/>
<path d="M126.423 66.0218C126.423 66.0218 131.152 61.3382 128.73 56.9682C126.307 52.5981 125.153 53.0605 124.025 50.6731C122.897 48.2858 118.348 46.1192 114.414 47.5327C114.414 47.5327 109.2 44.1207 104.781 45.5727C100.362 47.0247 98.9239 49.2754 97.8712 52.8783C96.8185 56.4812 95.6417 58.1329 94.8149 60.6323C93.9882 63.1318 92.9582 70.1011 102.839 74.543C112.719 78.9849 126.423 66.0218 126.423 66.0218Z" fill="#382256"/>
<path d="M107.342 75.722C105.755 75.7409 104.183 75.4215 102.729 74.7849C92.3369 70.1136 93.8502 62.7099 94.5631 60.552C94.9108 59.5448 95.3143 58.5577 95.7717 57.5954C96.5101 56.0495 97.1266 54.4485 97.616 52.8067C98.6669 49.1933 100.17 46.8112 104.696 45.3259C108.884 43.9509 113.644 46.7446 114.448 47.2526C116.279 46.6255 118.375 46.6903 120.365 47.4383C122.206 48.1284 123.663 49.3001 124.264 50.57C124.746 51.5911 125.229 52.0658 125.84 52.6718C126.621 53.4408 127.592 54.3971 128.96 56.8545C131.454 61.3472 126.658 66.1761 126.609 66.2234C124.11 68.4851 121.383 70.4809 118.472 72.1786C114.38 74.531 110.611 75.722 107.342 75.722ZM107.134 45.48C106.361 45.4744 105.592 45.5927 104.857 45.8303C100.531 47.2508 99.1503 49.4315 98.1187 52.9591C97.6206 54.6248 96.9952 56.2497 96.2481 57.8196C95.7991 58.7644 95.4026 59.7333 95.0605 60.7219C94.3827 62.7747 92.9587 69.8193 102.942 74.3103C112.506 78.6103 125.989 66.078 126.238 65.8416C126.352 65.726 130.78 61.2141 128.496 57.1015C127.168 54.7106 126.219 53.784 125.469 53.0396C124.845 52.4266 124.308 51.8977 123.786 50.7942C122.752 48.6048 118.398 46.3786 114.503 47.7868L114.378 47.8323L114.27 47.7605C114.229 47.7272 110.74 45.48 107.134 45.48Z" fill="#1D1E1B"/>
<path d="M113.937 80.4566C113.937 80.4566 116.675 80.9068 117.09 83.4815C117.57 86.4434 114.618 90.1794 108.945 86.3172C108.945 86.3172 106.409 90.4001 101.028 86.4451C96.4743 83.0979 97.2327 80.1396 101.591 79.4075C105.369 78.7646 113.937 80.4566 113.937 80.4566Z" fill="white"/>
<path d="M105.39 88.4256C103.989 88.4256 102.479 87.8318 100.871 86.6495C98.5103 84.9138 97.3998 83.1465 97.7484 81.6787C98.0496 80.4071 99.3982 79.5068 101.546 79.1407C105.324 78.4979 113.61 80.1181 113.982 80.1916C114.139 80.2197 116.914 80.7661 117.344 83.432C117.612 85.0819 116.893 86.7599 115.556 87.6146C114.579 88.2364 112.442 88.923 109.005 86.6688C108.325 87.5337 107.358 88.1269 106.278 88.3415C105.986 88.3976 105.688 88.4257 105.39 88.4256ZM103.702 79.5173C103.009 79.5081 102.318 79.5556 101.633 79.6592C99.7065 79.9867 98.5085 80.7469 98.2598 81.7995C97.9638 83.0501 99.0006 84.623 101.183 86.2256C103.017 87.5743 104.698 88.1121 106.182 87.8266C107.209 87.6199 108.117 87.0276 108.72 86.1714L108.865 85.9384L109.091 86.0926C111.543 87.7635 113.743 88.1471 115.278 87.1715C116.441 86.4323 117.064 84.9628 116.829 83.5143C116.449 81.1637 113.996 80.7258 113.892 80.7118C113.812 80.6978 107.807 79.5226 103.702 79.5226V79.5173Z" fill="#1D1E1B"/>
<path d="M113.571 78.5871L113.41 80.6767C113.41 80.6767 111.613 88.9211 102.743 83.2514C102.118 82.8505 101.658 82.239 101.446 81.5279C101.233 80.8168 101.283 80.0531 101.585 79.3753C102.503 77.319 103.776 73.7704 104.466 68.8083C104.466 68.8083 100.813 68.444 101.005 65.1879C101.198 61.9318 103.697 61.0928 105.309 61.7794C105.309 61.7794 111.702 65.2159 116.296 52.1582C116.296 52.1582 122.886 54.0113 124.944 60.3711C127.002 66.731 126.592 74.4184 121.854 77.1683C117.116 79.9182 113.571 78.5871 113.571 78.5871Z" fill="#FFCDB2"/>
<path d="M108.249 85.5048C106.61 85.5048 104.718 84.8252 102.601 83.4713C101.926 83.0342 101.429 82.3711 101.199 81.6007C100.969 80.8304 101.021 80.0032 101.345 79.2676C102.258 77.2201 103.482 73.7923 104.168 69.0247C103.293 68.8495 100.571 68.0946 100.744 65.1713C100.835 63.623 101.457 62.4179 102.496 61.7733C102.928 61.5064 103.418 61.3456 103.924 61.3042C104.431 61.2628 104.94 61.3419 105.41 61.5351H105.431C105.447 61.5351 107.044 62.3689 109.153 61.5456C111.851 60.4947 114.233 57.2123 116.046 52.0593L116.128 51.8281L116.364 51.8947C116.433 51.914 123.113 53.8599 125.192 60.2775C126.276 63.6282 126.635 67.1348 126.206 70.1492C125.718 73.5629 124.258 76.0641 121.985 77.3847C117.967 79.716 114.804 79.1871 113.805 78.9226L113.664 80.7214C113.635 80.8545 112.923 83.995 110.231 85.1125C109.603 85.3733 108.929 85.5067 108.249 85.5048ZM104.202 61.8189C103.698 61.8186 103.204 61.9581 102.774 62.2217C102.144 62.6123 101.373 63.4478 101.268 65.1993C101.093 68.1769 104.352 68.5272 104.491 68.5413L104.764 68.5693L104.725 68.839C104.037 73.7993 102.767 77.362 101.825 79.4778C101.551 80.0976 101.506 80.7947 101.698 81.4445C101.891 82.0943 102.308 82.6544 102.876 83.0247C105.754 84.8655 108.159 85.4068 110.019 84.6361C112.364 83.664 113.082 80.8703 113.14 80.6321L113.327 78.215L113.655 78.3376C113.709 78.3568 117.158 79.5759 121.712 76.9364C126.304 74.2723 126.683 66.6233 124.689 60.4474C122.917 54.9721 117.631 52.8843 116.457 52.4815C114.574 57.7361 112.178 60.9449 109.33 62.0483C107.067 62.9241 105.368 62.1009 105.197 62.0115C104.881 61.8821 104.543 61.8166 104.202 61.8189Z" fill="#1D1E1B"/>
<path d="M104.305 67.3061C104.259 67.3134 104.212 67.3083 104.169 67.2914C104.126 67.2744 104.088 67.2462 104.059 67.2097C103.215 66.1115 102.935 65.1552 103.227 64.367C103.648 63.232 105.088 62.922 105.154 62.9097C105.221 62.8958 105.291 62.909 105.348 62.9464C105.405 62.9839 105.445 63.0425 105.459 63.1094C105.473 63.1763 105.46 63.246 105.422 63.3031C105.385 63.3603 105.326 63.4002 105.259 63.4142C105.242 63.4142 104.033 63.6822 103.713 64.5474C103.488 65.1587 103.742 65.9486 104.471 66.8944C104.492 66.9212 104.507 66.9518 104.516 66.9844C104.525 67.0171 104.527 67.0512 104.523 67.0847C104.518 67.1183 104.507 67.1507 104.49 67.1799C104.473 67.2092 104.451 67.2348 104.424 67.2553C104.389 67.2829 104.348 67.3005 104.305 67.3061Z" fill="black"/>
<path d="M117.416 62.438C113.8 63.3296 108.845 61.8863 108.043 63.2122C107.241 64.5381 107.936 66.2651 109.923 66.6347C111.909 67.0043 113.862 66.8834 117.857 66.4403C121.852 65.9971 125.739 65.2668 125.213 63.1369C124.688 61.007 122.73 61.1279 117.416 62.438Z" fill="#FFB49F"/>
<path d="M122.831 65.4458C122.841 65.0755 122.55 64.7671 122.181 64.7571C121.811 64.7471 121.504 65.0393 121.494 65.4096C121.484 65.78 121.775 66.0882 122.144 66.0982C122.514 66.1082 122.821 65.8162 122.831 65.4458Z" fill="black"/>
<path d="M116.036 66.3011C116.047 65.9308 115.755 65.6224 115.386 65.6124C115.016 65.6024 114.709 65.8946 114.699 66.2649C114.689 66.6353 114.98 66.9436 115.349 66.9536C115.719 66.9636 116.026 66.6715 116.036 66.3011Z" fill="black"/>
<path d="M120.19 68.7649C120.136 68.7647 120.083 68.7478 120.039 68.7164C119.995 68.6851 119.961 68.6408 119.943 68.5897L117.861 63.0268C117.846 62.9638 117.854 62.8975 117.885 62.8405C117.916 62.7836 117.967 62.7401 118.028 62.7183C118.089 62.6966 118.156 62.6982 118.216 62.7228C118.276 62.7474 118.325 62.7933 118.353 62.8517L120.435 68.4146C120.46 68.4798 120.457 68.5521 120.428 68.6155C120.4 68.6789 120.347 68.7282 120.281 68.7526C120.252 68.7625 120.221 68.7667 120.19 68.7649Z" fill="#1D1D1B"/>
<path d="M119.718 61.1987C119.672 61.1982 119.627 61.1862 119.587 61.1636C119.527 61.1281 119.483 61.0704 119.465 61.0029C119.447 60.9354 119.456 60.8636 119.491 60.8028C120.706 58.701 123.845 60.3421 123.978 60.4122C124.037 60.4464 124.079 60.5019 124.098 60.567C124.116 60.632 124.109 60.7018 124.078 60.7616C124.046 60.8214 123.992 60.8668 123.928 60.8881C123.864 60.9095 123.794 60.9053 123.733 60.8764C123.705 60.8624 120.909 59.4086 119.946 61.0673C119.923 61.1073 119.89 61.1404 119.85 61.1635C119.81 61.1866 119.765 61.1987 119.718 61.1987Z" fill="black"/>
<path d="M112.143 63.1625C112.094 63.1625 112.045 63.1483 112.003 63.1217C111.961 63.0951 111.928 63.0571 111.906 63.0122C111.885 62.9673 111.877 62.9172 111.883 62.8679C111.889 62.8185 111.909 62.7719 111.94 62.7334C112.704 61.7911 113.517 61.2708 114.377 61.185C114.963 61.1229 115.552 61.2823 116.027 61.6317C116.078 61.6765 116.11 61.7397 116.116 61.8078C116.122 61.8759 116.101 61.9436 116.058 61.9965C116.014 62.0494 115.952 62.0833 115.884 62.091C115.816 62.0988 115.748 62.0798 115.694 62.038C115.629 61.9855 114.153 60.8435 112.347 63.0662C112.322 63.0964 112.291 63.1208 112.256 63.1375C112.221 63.1542 112.182 63.1627 112.143 63.1625Z" fill="black"/>
<path d="M114.099 78.7316C114.099 78.7316 111.151 77.9136 109.562 76.6543L114.099 78.7316Z" fill="#4BD657"/>
<path d="M114.099 78.9948C114.075 78.9954 114.051 78.9924 114.028 78.9861C113.906 78.9528 111.011 78.1383 109.399 76.8597C109.348 76.8154 109.316 76.7531 109.31 76.6857C109.303 76.6184 109.323 76.5512 109.365 76.4981C109.407 76.4451 109.468 76.4103 109.535 76.4009C109.602 76.3916 109.67 76.4085 109.725 76.4481C111.254 77.6601 114.139 78.4711 114.169 78.4799C114.229 78.4975 114.281 78.5362 114.315 78.589C114.35 78.6418 114.364 78.7051 114.355 78.7675C114.347 78.8299 114.316 78.8872 114.269 78.9289C114.222 78.9706 114.162 78.994 114.099 78.9948Z" fill="black"/>
<path d="M99.2727 44.8645H99.2081C99.1168 44.8475 99.036 44.795 98.9835 44.7184C98.9309 44.6419 98.9108 44.5477 98.9277 44.4564C99.3043 42.4106 100.192 40.9533 101.567 40.1441C103.806 38.8165 106.493 39.6782 106.605 39.715C106.693 39.744 106.766 39.8069 106.808 39.8899C106.85 39.9728 106.857 40.069 106.828 40.1573C106.799 40.2455 106.736 40.3186 106.653 40.3605C106.57 40.4024 106.474 40.4096 106.386 40.3806C106.347 40.3683 103.876 39.5872 101.919 40.7484C100.73 41.449 99.9542 42.7469 99.6162 44.5843C99.6 44.6634 99.557 44.7345 99.4944 44.7856C99.4318 44.8367 99.3535 44.8645 99.2727 44.8645Z" fill="white"/>
<path d="M116.892 75.5037C116.54 75.506 116.192 75.4326 115.871 75.2883C114.161 74.5159 113.793 71.9604 113.769 71.8553C113.762 71.8014 113.771 71.7467 113.797 71.6985C113.822 71.6503 113.861 71.6109 113.909 71.5856C113.957 71.5605 114.012 71.551 114.066 71.5586C114.12 71.5661 114.17 71.5902 114.21 71.6276C117.655 74.8697 120.845 71.6276 120.98 71.4822C121.003 71.4543 121.031 71.4315 121.063 71.4152C121.096 71.3988 121.131 71.3893 121.167 71.3872C121.203 71.3851 121.239 71.3904 121.273 71.4029C121.307 71.4154 121.338 71.4347 121.364 71.4598C121.39 71.4848 121.411 71.5149 121.425 71.5482C121.439 71.5816 121.446 71.6175 121.445 71.6536C121.445 71.6897 121.437 71.7254 121.422 71.7583C121.407 71.7912 121.385 71.8206 121.358 71.8448C121.325 71.8798 118.058 75.2252 114.461 72.5261C114.681 73.281 115.161 74.3933 116.079 74.8031C116.881 75.1639 117.902 74.9398 119.113 74.134C119.141 74.115 119.174 74.1017 119.207 74.0951C119.241 74.0884 119.276 74.0885 119.31 74.0954C119.344 74.1022 119.376 74.1156 119.405 74.1349C119.433 74.1541 119.458 74.1788 119.477 74.2076C119.496 74.2364 119.509 74.2686 119.516 74.3025C119.523 74.3363 119.523 74.3712 119.516 74.405C119.509 74.4388 119.495 74.471 119.476 74.4996C119.457 74.5283 119.432 74.5528 119.403 74.5719C118.493 75.1937 117.643 75.5037 116.892 75.5037Z" fill="#1D1D1B"/>
<path d="M111.018 61.3608H110.96C109.809 61.3533 108.709 60.8891 107.901 60.0702C107.092 59.2513 106.642 58.1449 106.65 56.9942C106.657 55.8435 107.121 54.743 107.94 53.9346C108.759 53.1262 109.866 52.6763 111.016 52.6837H111.074C112.224 52.7003 113.321 53.1725 114.123 53.9967C114.926 54.8209 115.369 55.9297 115.355 57.08C115.339 58.22 114.875 59.308 114.063 60.1089C113.252 60.9099 112.158 61.3595 111.018 61.3608ZM111.018 53.2091C110.015 53.2159 109.056 53.6197 108.351 54.3322C107.646 55.0447 107.251 56.0077 107.255 57.0103C107.258 58.0129 107.659 58.9733 108.369 59.681C109.079 60.3888 110.041 60.7862 111.043 60.7862C112.046 60.7862 113.008 60.3888 113.718 59.681C114.428 58.9733 114.828 58.0129 114.832 57.0103C114.835 56.0077 114.441 55.0447 113.736 54.3322C113.03 53.6197 112.071 53.2159 111.069 53.2091H111.018Z" fill="#1D1D1B"/>
<path d="M121.776 59.6271H121.714C120.501 59.6192 119.342 59.1298 118.489 58.2665C117.637 57.4033 117.163 56.237 117.171 55.0241C117.179 53.8112 117.668 52.651 118.532 51.799C119.395 50.9469 120.561 50.4727 121.774 50.4806H121.834C123.046 50.4976 124.202 50.995 125.048 51.8636C125.895 52.7321 126.362 53.9009 126.347 55.1134C126.33 56.3152 125.841 57.4621 124.986 58.3066C124.131 59.1511 122.978 59.6253 121.776 59.6271ZM121.776 51.006C120.71 51.0132 119.69 51.4427 118.94 52.2003C118.19 52.9579 117.771 53.982 117.774 55.048C117.778 56.1141 118.204 57.1353 118.959 57.8878C119.714 58.6404 120.737 59.063 121.803 59.063C122.869 59.063 123.892 58.6404 124.647 57.8878C125.402 57.1353 125.828 56.1141 125.831 55.048C125.835 53.982 125.416 52.9579 124.666 52.2003C123.916 51.4427 122.896 51.0132 121.83 51.006H121.776Z" fill="#1D1D1B"/>
<path d="M116.889 55.5862C116.825 55.5866 116.762 55.5636 116.714 55.5214C115.721 54.6456 114.985 55.3848 114.904 55.4723C114.856 55.517 114.793 55.542 114.728 55.5425C114.662 55.543 114.599 55.5189 114.55 55.475C114.501 55.4311 114.47 55.3705 114.464 55.3052C114.458 55.2399 114.476 55.1745 114.516 55.122C114.906 54.6929 115.938 54.1412 117.061 55.1308C117.1 55.1663 117.128 55.2129 117.141 55.2647C117.154 55.3165 117.15 55.3709 117.131 55.4206C117.112 55.4704 117.079 55.5133 117.035 55.5435C116.991 55.5737 116.939 55.5898 116.885 55.5897L116.889 55.5862Z" fill="black"/>
<path d="M113.286 59.5246C113.224 59.5245 113.164 59.5082 113.111 59.4773C113.071 59.4541 113.036 59.4233 113.008 59.3866C112.98 59.3499 112.96 59.3081 112.948 59.2635C112.936 59.2189 112.934 59.1725 112.94 59.1268C112.946 59.0811 112.961 59.0371 112.985 58.9974C113.564 58.0095 113.724 57.1005 113.459 56.2948C113.021 54.9566 111.545 54.305 111.533 54.298C111.49 54.2798 111.452 54.2535 111.42 54.2205C111.388 54.1875 111.362 54.1486 111.345 54.1058C111.328 54.063 111.32 54.0173 111.32 53.9712C111.321 53.9252 111.331 53.8797 111.349 53.8374C111.367 53.795 111.393 53.7567 111.426 53.7246C111.459 53.6924 111.498 53.6671 111.541 53.65C111.584 53.6329 111.63 53.6244 111.676 53.625C111.722 53.6256 111.767 53.6353 111.809 53.6534C111.881 53.685 113.585 54.4294 114.125 56.0706C114.458 57.0759 114.277 58.1724 113.599 59.3512C113.568 59.4056 113.522 59.4505 113.466 59.481C113.411 59.5115 113.349 59.5266 113.286 59.5246Z" fill="white"/>
<path d="M124.558 57.4321C124.497 57.4317 124.437 57.4153 124.384 57.3844C124.331 57.3535 124.287 57.3092 124.256 57.256C124.226 57.2028 124.21 57.1426 124.21 57.0812C124.21 57.0199 124.226 56.9597 124.257 56.9066C124.835 55.917 124.994 55.008 124.73 54.2022C124.292 52.8641 122.815 52.2125 122.803 52.2055C122.759 52.1888 122.718 52.1633 122.684 52.1305C122.65 52.0977 122.623 52.0584 122.604 52.0148C122.586 51.9712 122.576 51.9242 122.576 51.8769C122.576 51.8295 122.586 51.7826 122.605 51.7391C122.623 51.6956 122.651 51.6564 122.685 51.6237C122.719 51.5911 122.76 51.5657 122.805 51.5492C122.849 51.5328 122.896 51.5255 122.944 51.5278C122.991 51.5301 123.037 51.542 123.08 51.5627C123.152 51.5925 124.856 52.3386 125.395 53.978C125.728 54.9834 125.548 56.0799 124.87 57.2604C124.838 57.3143 124.792 57.3586 124.737 57.3888C124.683 57.419 124.621 57.4339 124.558 57.4321Z" fill="white"/>
<path d="M75.8679 99.8647C65.2694 98.5265 74.577 86.9209 82.2837 84.0904C84.6676 84.791 93.1731 79.4979 96.0141 80.7818C93.3675 96.4983 85.0985 101.038 75.8679 99.8647Z" fill="#0598C6"/>
<path d="M83.9326 67.0552C83.9326 67.0552 86.4969 66.1251 86.8945 64.8202C87.2921 63.5154 87.5233 57.5619 88.9963 54.1937C90.4203 50.9201 93.2385 51.4928 93.6081 57.3079C93.6081 57.3079 95.8483 52.288 98.5124 54.8067C98.5124 54.8067 100.402 52.8152 104.044 51.8572C107.172 51.0339 107.767 54.5703 105.229 55.9242C103.101 57.0592 102.252 57.5129 101.621 58.1767C101.621 58.1767 104.061 60.7024 100.844 61.4328C100.844 61.4328 98.9433 62.9934 100.271 64.2527C101.599 65.5121 103.175 59.8617 105.098 59.1733C107.021 58.485 108.815 61.0177 106.352 65.8291C103.89 70.6406 103.089 73.0349 99.6858 74.8495C97.1478 76.2035 93.3314 79.3317 93.3314 79.3317L83.9326 67.0552Z" fill="#FFCDB2"/>
<path d="M93.3165 79.5854H93.2868C93.2174 79.5756 93.1546 79.5391 93.1116 79.4838L83.7288 67.2231C83.7038 67.1903 83.6867 67.1521 83.6792 67.1116C83.6716 67.0711 83.6739 67.0293 83.6855 66.9898C83.6971 66.9502 83.7178 66.9139 83.746 66.8839C83.7743 66.8538 83.8091 66.8308 83.8478 66.8167C84.5274 66.5698 86.3543 65.7168 86.6503 64.7517C86.7711 64.3541 86.8797 63.4608 87.018 62.3328C87.3088 59.977 87.7449 56.4161 88.7538 54.1006C89.4089 52.596 90.3863 51.8008 91.3724 51.9743C92.5985 52.1897 93.483 53.8256 93.7895 56.4109C94.3149 55.5088 95.3116 54.1339 96.5692 53.8887C97.233 53.7573 97.8811 53.95 98.4959 54.4597C99.0564 53.9342 100.892 52.4244 103.968 51.6152C105.646 51.1738 106.595 51.9059 106.919 52.7397C107.325 53.7766 106.919 55.3319 105.343 56.1692C103.449 57.178 102.566 57.6492 101.971 58.2027C102.298 58.602 102.957 59.5444 102.7 60.4096C102.524 61.0227 101.931 61.4605 100.948 61.6865C100.773 61.8511 100.072 62.5185 100.044 63.2226C100.042 63.3844 100.075 63.5448 100.143 63.692C100.21 63.8392 100.309 63.9697 100.433 64.0738C100.464 64.1121 100.504 64.1421 100.549 64.1611C100.594 64.18 100.643 64.1874 100.692 64.1824C101.153 64.1176 101.82 62.9914 102.409 61.9983C103.199 60.6636 104.017 59.2834 104.991 58.9296C105.351 58.786 105.747 58.7583 106.124 58.8503C106.5 58.9423 106.839 59.1494 107.092 59.4428C107.951 60.4166 108.262 62.6358 106.567 65.9515C106.231 66.6065 105.926 67.2161 105.642 67.7853C103.812 71.4636 102.803 73.476 99.7904 75.0822C97.3032 76.4081 93.5164 79.5048 93.4848 79.5364C93.4361 79.5716 93.3766 79.5889 93.3165 79.5854ZM84.354 67.1723L93.3622 78.9478C94.2029 78.2683 97.3276 75.7951 99.5468 74.6093C102.414 73.0802 103.4 71.1062 105.178 67.5401C105.462 66.9691 105.768 66.3578 106.105 65.701C107.681 62.6218 107.448 60.6216 106.704 59.7808C106.52 59.566 106.273 59.4147 105.999 59.3486C105.724 59.2825 105.436 59.3051 105.174 59.413C104.377 59.702 103.574 61.0594 102.864 62.2557C102.122 63.5098 101.481 64.5923 100.762 64.6921C100.636 64.7079 100.507 64.6938 100.387 64.6509C100.267 64.608 100.159 64.5375 100.071 64.4452C99.8916 64.2899 99.7493 64.0969 99.6539 63.88C99.5585 63.6632 99.5123 63.4279 99.5187 63.191C99.5555 62.1401 100.612 61.2644 100.657 61.2311C100.689 61.2057 100.726 61.1877 100.766 61.1785C101.58 60.9929 102.059 60.6811 102.186 60.2502C102.39 59.5724 101.696 58.6563 101.412 58.3603C101.365 58.3117 101.339 58.2467 101.339 58.179C101.339 58.1114 101.365 58.0464 101.412 57.9978C102.071 57.2972 102.954 56.833 105.09 55.6963C106.394 54.9956 106.751 53.7468 106.427 52.9201C106.103 52.0934 105.239 51.8131 104.097 52.1126C100.568 53.0409 98.7079 54.9694 98.6903 54.9886C98.6667 55.0139 98.6383 55.0341 98.6067 55.0483C98.5751 55.0624 98.5411 55.0701 98.5065 55.0709C98.437 55.0726 98.3696 55.0468 98.319 54.9991C97.7708 54.4737 97.2314 54.2828 96.6674 54.3949C95.0682 54.7119 93.8649 57.39 93.8439 57.418C93.8193 57.4712 93.7778 57.5149 93.7258 57.5421C93.6739 57.5694 93.6143 57.5787 93.5565 57.5686C93.4986 57.5585 93.4459 57.5291 93.4068 57.4852C93.3677 57.4414 93.3446 57.3856 93.3412 57.3269C93.1292 53.9832 92.1361 52.6311 91.2778 52.4804C90.5579 52.3543 89.775 53.0514 89.2321 54.3003C88.2547 56.5493 87.822 60.0628 87.5365 62.3889C87.3946 63.5431 87.2825 64.4557 87.1477 64.8971C86.8026 66.0268 85.0861 66.8605 84.354 67.1723Z" fill="#1D1D1B"/>
<path d="M100.615 61.4461C100.615 61.4461 98.688 61.7123 96.0029 58.3301L100.615 61.4461Z" fill="#FFCDB2"/>
<path d="M100.512 61.7061C100 61.7061 98.1631 61.4749 95.7968 58.4867C95.7572 58.4319 95.7403 58.3639 95.7496 58.2969C95.7589 58.2299 95.7938 58.169 95.8469 58.127C95.8999 58.085 95.967 58.0651 96.0344 58.0715C96.1017 58.0778 96.164 58.1098 96.2083 58.161C98.7358 61.3523 100.563 61.1806 100.587 61.1788C100.622 61.1742 100.657 61.1765 100.69 61.1855C100.724 61.1944 100.756 61.2099 100.783 61.231C100.811 61.2522 100.834 61.2786 100.852 61.3087C100.869 61.3388 100.88 61.3721 100.885 61.4066C100.89 61.4411 100.887 61.4761 100.878 61.5098C100.869 61.5434 100.854 61.575 100.833 61.6026C100.812 61.6302 100.785 61.6535 100.755 61.6709C100.725 61.6884 100.692 61.6997 100.657 61.7043C100.609 61.7081 100.56 61.7087 100.512 61.7061Z" fill="#1D1D1B"/>
<path d="M101.608 58.1785C100.644 56.9908 99.6053 55.8653 98.499 54.8086L101.608 58.1785Z" fill="#FFCDB2"/>
<path d="M101.607 58.4402C101.567 58.4403 101.528 58.4314 101.492 58.4141C101.457 58.3968 101.425 58.3716 101.4 58.3404C100.443 57.1636 99.4137 56.0474 98.3179 54.9985C98.2919 54.975 98.2709 54.9466 98.2561 54.9149C98.2413 54.8832 98.233 54.8489 98.2316 54.814C98.2303 54.779 98.2359 54.7442 98.2482 54.7114C98.2605 54.6787 98.2791 54.6487 98.3031 54.6233C98.3272 54.5979 98.3562 54.5775 98.3882 54.5634C98.4201 54.5493 98.4546 54.5417 98.4896 54.5411C98.5245 54.5404 98.5592 54.5468 98.5917 54.5598C98.6242 54.5728 98.6537 54.5921 98.6786 54.6166C99.7935 55.6828 100.841 56.8177 101.814 58.0146C101.857 58.0696 101.876 58.1392 101.868 58.2084C101.86 58.2776 101.825 58.3408 101.77 58.3842C101.724 58.4209 101.666 58.4407 101.607 58.4402Z" fill="#1D1D1B"/>
<path d="M93.6055 57.3125C93.6283 58.176 93.8489 58.3862 93.4863 60.9907L93.6055 57.3125Z" fill="#FFCDB2"/>
<path d="M93.4858 61.2476H93.449C93.3801 61.2372 93.318 61.2002 93.2761 61.1445C93.2341 61.0889 93.2159 61.019 93.2249 60.9499C93.4964 59.0232 93.4385 58.4469 93.3842 57.8987C93.3666 57.7236 93.3475 57.5484 93.3423 57.3225C93.3408 57.2529 93.3667 57.1856 93.4146 57.1351C93.4625 57.0846 93.5284 57.055 93.598 57.0527C93.6668 57.0527 93.7327 57.0797 93.7818 57.1278C93.831 57.176 93.8593 57.2414 93.8607 57.3102C93.8607 57.5081 93.8817 57.6728 93.8992 57.8462C93.9552 58.3979 94.0183 59.025 93.7381 61.0235C93.7294 61.0846 93.6992 61.1408 93.653 61.1818C93.6069 61.2229 93.5475 61.2462 93.4858 61.2476Z" fill="#1D1D1B"/>
<path d="M100.694 64.4565C100.694 64.4565 97.0242 64.3374 95.9961 66.3061L100.694 64.4565Z" fill="#FFCDB2"/>
<path d="M95.9966 66.5711C95.9545 66.5706 95.9133 66.5604 95.8758 66.5413C95.8153 66.5089 95.7698 66.4542 95.7489 66.3888C95.728 66.3235 95.7333 66.2525 95.7638 66.191C96.855 64.0997 100.547 64.196 100.703 64.2013C100.773 64.2036 100.839 64.2335 100.886 64.2844C100.934 64.3353 100.959 64.4031 100.957 64.4727C100.955 64.5424 100.925 64.6083 100.874 64.656C100.823 64.7036 100.755 64.729 100.686 64.7267C100.65 64.7267 97.1684 64.6356 96.2295 66.4345C96.2067 66.4762 96.1731 66.5109 96.132 66.535C96.091 66.559 96.0441 66.5715 95.9966 66.5711Z" fill="#1D1D1B"/>
<path d="M97.1346 59.5723C97.129 60.2492 96.9936 60.9187 96.7354 61.5445L97.1346 59.5723Z" fill="#FFCDB2"/>
<path d="M96.7347 61.8006C96.6966 61.8 96.6591 61.7917 96.6244 61.7761C96.5614 61.7461 96.5129 61.6925 96.4893 61.6269C96.4656 61.5613 96.4689 61.489 96.4983 61.4258C96.7391 60.8355 96.8662 60.2049 96.8731 59.5674C96.8731 59.4977 96.9008 59.4309 96.9501 59.3816C96.9993 59.3324 97.0661 59.3047 97.1358 59.3047C97.2055 59.3047 97.2725 59.3324 97.3217 59.3816C97.371 59.4309 97.3985 59.4977 97.3985 59.5674C97.3935 60.2833 97.249 60.9912 96.973 61.6517C96.9516 61.6967 96.9179 61.7346 96.8756 61.761C96.8334 61.7873 96.7845 61.8011 96.7347 61.8006Z" fill="#1D1D1B"/>
<path d="M74.5827 100.01C96.3262 94.9113 90.2169 82.4947 90.2169 82.4947L93.529 79.102L84.3668 67.0462L80.4066 68.0411C80.4066 68.0411 72.7541 60.2327 54.2369 77.9775C35.7197 95.7223 67.6747 113.196 70.5157 121.458" fill="#07ACEE"/>
<path d="M70.267 121.546C69.4893 119.288 66.4136 116.246 62.83 112.725C56.3003 106.289 48.1715 98.277 48.2328 89.5877C48.2625 85.433 50.2206 81.4641 54.0547 77.7911C61.7807 70.3874 68.5751 66.4534 74.25 66.0961C78.0263 65.8579 80.0019 67.3362 80.4801 67.7548L84.4719 66.7529L93.8759 79.1275L90.5304 82.5535C91.057 83.848 91.3094 85.2377 91.2717 86.6348C91.234 88.0318 90.9071 89.4059 90.3114 90.6701C88.2236 95.0892 82.955 98.3173 74.6422 100.265L74.5215 99.7536C82.6626 97.8444 87.8138 94.7161 89.8334 90.4547C91.7723 86.3631 89.9997 82.6499 89.9805 82.6131L89.8999 82.4379L93.1823 79.075L84.2635 67.3397L80.3243 68.3276L80.2193 68.2207C80.2018 68.2015 78.3048 66.3413 74.2237 66.6163C70.4159 66.8738 63.8896 69.086 54.4191 78.1624C50.6918 81.7356 48.7863 85.5767 48.7582 89.5842C48.6987 98.0511 56.7398 105.977 63.1995 112.344C66.8199 115.911 69.9465 118.999 70.7627 121.367L70.267 121.546Z" fill="#1D1D1B"/>
<path d="M80.5268 68.4038L84.3311 67.4492L93.1291 79.0268L89.9483 82.2847L89.9711 82.3337C86.8919 80.7153 81.1451 76.6115 80.4199 68.3075C80.4847 68.367 80.5268 68.4038 80.5268 68.4038Z" fill="#0598C6"/>
<path d="M151.185 98.0649C132.988 64.1518 149.845 59.2019 149.845 59.2019L149.779 53.6951L164.707 50.8594L166.894 54.8651C166.894 54.8651 175.978 54.5341 179.027 84.17C182.45 117.419 164.751 120.397 136.959 124.201" fill="#07ACEE"/>
<path d="M136.957 124.465C136.887 124.469 136.818 124.446 136.766 124.4C136.713 124.354 136.681 124.289 136.676 124.22C136.672 124.15 136.695 124.081 136.741 124.029C136.787 123.976 136.852 123.944 136.922 123.939C149.76 122.188 161.888 120.52 169.544 115.006C177.524 109.263 180.368 99.7594 178.766 84.1795C177.207 69.027 174.037 61.9228 171.667 58.6299C169.117 55.097 166.924 55.1093 166.901 55.1111C166.853 55.1117 166.805 55.0994 166.763 55.0753C166.721 55.0513 166.686 55.0165 166.663 54.9744L164.561 51.1368L150.035 53.8937L150.1 59.1834C150.101 59.2404 150.083 59.296 150.049 59.3419C150.015 59.3878 149.967 59.4213 149.913 59.4373C149.876 59.4496 146.154 60.6004 144.198 65.298C142.143 70.2233 141.728 79.883 151.409 97.9238C151.427 97.9542 151.438 97.988 151.443 98.0231C151.447 98.0582 151.445 98.0938 151.435 98.1279C151.426 98.162 151.41 98.1938 151.388 98.2214C151.365 98.249 151.338 98.2719 151.307 98.2886C151.276 98.3054 151.241 98.3157 151.206 98.3189C151.171 98.3221 151.135 98.3182 151.102 98.3073C151.068 98.2965 151.037 98.2789 151.01 98.2558C150.983 98.2326 150.962 98.2043 150.946 98.1725C146.611 90.0927 143.907 82.9727 142.907 77.007C142.115 72.2778 142.381 68.2598 143.719 65.0773C145.544 60.716 148.752 59.2972 149.573 58.9977L149.508 53.6801C149.508 53.6184 149.529 53.5585 149.568 53.5107C149.607 53.463 149.661 53.4306 149.722 53.4191L164.65 50.5851C164.705 50.5742 164.761 50.5811 164.812 50.6048C164.862 50.6284 164.904 50.6675 164.93 50.7165L167.046 54.5926C167.642 54.6434 169.698 55.0585 172.021 58.2323C175.569 63.077 178.011 71.7891 179.281 84.1252C180.121 92.2926 179.719 98.7873 178.055 103.981C176.496 108.831 173.811 112.574 169.849 115.423C162.088 121.009 149.897 122.678 136.992 124.445L136.957 124.465Z" fill="#1D1D1B"/>
<path d="M166.558 55.078L164.456 51.2246L150.118 53.9482L150.183 59.2379L150.132 59.2606C153.478 60.3588 160.466 61.4956 166.702 55.0762C166.609 55.0762 166.558 55.078 166.558 55.078Z" fill="#0598C6"/>
<path d="M93.5971 109.703C94.4668 109.703 95.1718 108.997 95.1718 108.125C95.1718 107.253 94.4668 106.547 93.5971 106.547C92.7275 106.547 92.0225 107.253 92.0225 108.125C92.0225 108.997 92.7275 109.703 93.5971 109.703Z" fill="#51CEF4"/>
<path d="M126.5 93.6133C127.37 93.6133 128.075 92.9067 128.075 92.0352C128.075 91.1636 127.37 90.457 126.5 90.457C125.631 90.457 124.926 91.1636 124.926 92.0352C124.926 92.9067 125.631 93.6133 126.5 93.6133Z" fill="#51CEF4"/>
<path d="M137.813 114.099C137.869 114.429 137.819 114.769 137.67 115.068C137.521 115.368 137.28 115.612 136.983 115.766C136.686 115.919 136.347 115.975 136.017 115.923C135.686 115.872 135.38 115.716 135.144 115.479C134.907 115.243 134.752 114.937 134.701 114.606C134.65 114.275 134.706 113.937 134.86 113.64C135.014 113.343 135.259 113.102 135.558 112.953C135.858 112.805 136.197 112.755 136.527 112.812C136.848 112.867 137.144 113.021 137.375 113.252C137.605 113.482 137.758 113.778 137.813 114.099Z" fill="#51CEF4"/>
<path d="M106.217 124.523C106.274 124.853 106.224 125.192 106.074 125.492C105.925 125.792 105.685 126.036 105.387 126.19C105.09 126.343 104.751 126.398 104.421 126.347C104.09 126.295 103.784 126.14 103.548 125.903C103.311 125.666 103.156 125.36 103.105 125.03C103.054 124.699 103.11 124.361 103.264 124.063C103.418 123.766 103.663 123.526 103.962 123.377C104.262 123.228 104.602 123.179 104.931 123.236C105.253 123.291 105.548 123.445 105.779 123.675C106.009 123.906 106.162 124.202 106.217 124.523Z" fill="#51CEF4"/>
<path d="M132.023 137.756C132.079 138.086 132.029 138.425 131.88 138.724C131.731 139.024 131.49 139.268 131.193 139.422C130.896 139.576 130.557 139.631 130.226 139.579C129.896 139.528 129.59 139.372 129.354 139.136C129.117 138.899 128.962 138.593 128.911 138.262C128.86 137.931 128.915 137.593 129.07 137.296C129.224 136.999 129.468 136.758 129.768 136.61C130.068 136.461 130.407 136.411 130.737 136.468C131.058 136.524 131.354 136.677 131.584 136.908C131.815 137.138 131.968 137.435 132.023 137.756Z" fill="#51CEF4"/>
<path d="M63.9716 98.1332C65.5813 97.7741 66.3099 99.7428 64.8474 100.515C63.2447 100.873 62.5161 98.9056 63.9716 98.1332Z" fill="#51CEF4"/>
<path d="M58.9725 80.1567C60.5822 79.8064 61.3108 81.7664 59.8483 82.5388C58.2386 82.8979 57.517 80.9292 58.9725 80.1567Z" fill="#51CEF4"/>
<path d="M81.8847 85.9712C83.4944 85.6209 84.223 87.5809 82.7605 88.3533C81.1578 88.7053 80.4292 86.7384 81.8847 85.9712Z" fill="#51CEF4"/>
<path d="M68.2968 71.3618C69.9065 71.0115 70.6351 72.9732 69.1726 73.7456C67.5699 74.103 66.8413 72.1377 68.2968 71.3618Z" fill="#51CEF4"/>
<path d="M158.11 93.3718C157.191 91.7831 155.308 92.8586 155.833 94.6732C156.753 96.2618 158.634 95.1864 158.11 93.3718Z" fill="#51CEF4"/>
<path d="M174.092 82.2194C173.172 80.6307 171.289 81.7062 171.815 83.5225C172.736 85.1112 174.617 84.0339 174.092 82.2194Z" fill="#51CEF4"/>
<path d="M153.492 68.7955C152.571 67.2069 150.69 68.2823 151.215 70.0987C152.135 71.6873 154.016 70.6119 153.492 68.7955Z" fill="#51CEF4"/>
<path d="M173.382 67.3479C172.46 65.7592 170.579 66.8364 171.105 68.651C172.024 70.2396 173.905 69.159 173.382 67.3479Z" fill="#51CEF4"/>
<path d="M165.377 55.7964C160.315 56.3779 155.528 56.1257 151.079 54.8576C147.652 53.8702 144.679 51.7158 142.673 48.7673C140.667 45.8188 139.755 42.2618 140.095 38.712C140.82 31.1121 143.829 24.0376 148.804 17.4238C155.787 22.4823 160.432 25.952 169.955 25.3057C163.084 35.7343 156.293 48.0336 165.377 55.7964Z" fill="white"/>
<path d="M160.397 56.3536C157.225 56.3768 154.064 55.9583 151.007 55.11C147.519 54.1094 144.492 51.919 142.451 48.919C140.41 45.9191 139.484 42.2991 139.834 38.6876C140.535 31.2594 143.49 24.0518 148.592 17.2664C148.612 17.2389 148.637 17.2156 148.666 17.1979C148.695 17.1802 148.728 17.1684 148.761 17.1632C148.795 17.158 148.83 17.1595 148.863 17.1676C148.896 17.1757 148.927 17.1902 148.954 17.2103L149.236 17.4153C156.101 22.3896 160.637 25.6737 169.934 25.0397C169.983 25.0362 170.032 25.0465 170.075 25.0693C170.119 25.0921 170.155 25.1266 170.18 25.1689C170.204 25.2112 170.217 25.2595 170.215 25.3085C170.214 25.3575 170.199 25.4051 170.172 25.4461C166.904 30.4064 163.371 36.2057 161.94 41.6179C160.353 47.5907 161.534 52.1639 165.552 55.5969C165.59 55.6305 165.619 55.6744 165.633 55.7234C165.647 55.7725 165.647 55.8247 165.632 55.8737C165.616 55.9212 165.587 55.9629 165.547 55.994C165.508 56.0251 165.46 56.0441 165.41 56.0488C163.746 56.2465 162.073 56.3482 160.397 56.3536ZM148.86 17.7883C143.908 24.4442 141.048 31.4818 140.358 38.7367C140.019 42.2261 140.913 45.7239 142.885 48.6227C144.856 51.5216 147.781 53.6384 151.151 54.6056C155.241 55.7703 159.816 56.1049 164.76 55.6004C160.935 52.0711 159.845 47.4453 161.432 41.4831C162.848 36.1584 166.244 30.4922 169.451 25.5949C168.848 25.6288 168.265 25.6451 167.699 25.644C159.704 25.644 155.312 22.4614 148.935 17.8409L148.86 17.7883Z" fill="#1D1D1B"/>
<path d="M140.144 42.0449C140.144 42.0449 143.296 47.4186 147.962 46.8651C147.962 46.8651 145.755 52.9955 150.085 54.5369C150.085 54.5369 141.356 51.9674 140.144 42.0449Z" fill="#4BD657"/>
<path d="M150.01 54.7851C149.919 54.7588 147.75 54.1072 145.403 52.2138C143.237 50.4623 140.52 47.2885 139.883 42.0742L139.729 40.8184L140.37 41.9096C140.401 41.9621 143.496 47.1274 147.931 46.6019L148.353 46.5529L148.209 46.9522C148.199 46.9855 147.055 50.2276 148.113 52.4696C148.315 52.8964 148.602 53.2775 148.956 53.5898C149.31 53.9021 149.724 54.139 150.173 54.2859L150.01 54.7851ZM140.583 43.1514C141.697 48.9315 145.531 51.9406 147.997 53.3103C147.86 53.115 147.74 52.9081 147.638 52.692C146.7 50.7058 147.307 48.1258 147.593 47.1589C144.221 47.3341 141.718 44.656 140.583 43.1514Z" fill="black"/>
<path d="M142.429 35.506C142.372 35.506 142.315 35.4947 142.262 35.4727C142.209 35.4506 142.161 35.4184 142.12 35.3777C142.08 35.337 142.048 35.2887 142.026 35.2356C142.004 35.1825 141.993 35.1256 141.993 35.0681C141.993 30.4616 147.719 21.3922 147.964 21.0086C148.027 20.913 148.126 20.846 148.238 20.8221C148.35 20.7982 148.467 20.8193 148.564 20.8807C148.661 20.9422 148.73 21.0392 148.756 21.1509C148.782 21.2626 148.763 21.38 148.703 21.478C148.644 21.5691 142.871 30.7156 142.869 35.0681C142.868 35.1844 142.822 35.2958 142.74 35.3779C142.657 35.46 142.546 35.506 142.429 35.506Z" fill="white"/>
<path d="M184.701 79.4831C184.673 79.4831 184.645 79.479 184.619 79.4708C178.441 77.4443 173.116 74.7014 168.792 71.3157C165.325 68.6043 162.486 65.4761 160.365 62.0185C156.739 56.1229 156.442 51.385 156.431 51.1853C156.429 51.1508 156.434 51.1163 156.446 51.0837C156.457 51.0511 156.475 51.0211 156.498 50.9954C156.521 50.9697 156.549 50.9488 156.58 50.9339C156.612 50.919 156.645 50.9104 156.68 50.9086C156.714 50.9067 156.749 50.9117 156.782 50.9232C156.814 50.9347 156.844 50.9525 156.87 50.9756C156.895 50.9987 156.916 51.0266 156.931 51.0578C156.946 51.089 156.955 51.1228 156.956 51.1573C156.956 51.2046 157.265 55.9845 160.831 61.7716C164.124 67.1155 170.953 74.4369 184.785 78.9716C184.844 78.9916 184.893 79.0317 184.925 79.0849C184.957 79.1381 184.969 79.2008 184.96 79.2621C184.95 79.3234 184.919 79.3792 184.872 79.4196C184.824 79.46 184.765 79.4825 184.703 79.4831H184.701Z" fill="#1D1E1B"/>
<path d="M167.583 79.6429C167.539 79.6435 167.495 79.6327 167.457 79.6114C158.874 74.9068 155.154 67.7851 153.539 62.6391C151.788 57.0657 152.073 52.5345 152.075 52.4802C152.08 52.4105 152.112 52.3455 152.164 52.2995C152.217 52.2535 152.286 52.2303 152.355 52.235C152.425 52.2396 152.49 52.2717 152.536 52.3243C152.582 52.3768 152.605 52.4455 152.6 52.5152C152.6 52.5607 152.322 57.0096 154.047 62.4989C155.634 67.5468 159.302 74.5337 167.709 79.149C167.761 79.1763 167.803 79.2203 167.827 79.2741C167.85 79.3278 167.856 79.388 167.841 79.445C167.826 79.502 167.793 79.5524 167.746 79.588C167.699 79.6236 167.642 79.6423 167.583 79.6412V79.6429Z" fill="#1D1E1B"/>
<path d="M163.314 53.0425C163.314 53.0425 168.9 54.2843 171.355 48.2223C173.811 42.1602 174.191 35.7864 170.893 31.933C167.595 28.0797 163.648 27.8309 161.056 29.0272C158.464 30.2235 157.981 33.0558 160.128 35.9843C160.128 35.9843 156.084 38.9076 160.163 43.8487C158.464 44.4442 156.995 49.585 162 50.3819C162.183 51.3735 162.638 52.2948 163.314 53.0425Z" fill="#FFCDB2"/>
<path d="M164.478 53.4036C164.067 53.4085 163.656 53.3738 163.252 53.3002L163.168 53.281L163.112 53.2161C162.449 52.4801 161.988 51.5853 161.774 50.6186C159.728 50.2385 158.47 49.0317 158.314 47.2907C158.187 45.872 158.84 44.3411 159.749 43.7701C158.469 42.129 157.917 40.5298 158.111 39.0095C158.28 37.8237 158.867 36.7372 159.767 35.946C158.682 34.3802 158.281 32.7758 158.635 31.4096C158.931 30.2623 159.73 29.3603 160.942 28.7998C163.45 27.642 167.613 27.7243 171.088 31.7774C174.155 35.3488 174.344 41.5369 171.594 48.3294C169.801 52.766 166.322 53.4036 164.478 53.4036ZM163.455 52.8045C164.166 52.9342 168.904 53.577 171.113 48.1262C173.787 41.5177 173.632 35.5327 170.696 32.1137C167.414 28.2918 163.622 28.1412 161.168 29.2745C160.103 29.7666 159.404 30.5496 159.148 31.5392C158.819 32.809 159.243 34.3416 160.341 35.8374L160.497 36.0511L160.283 36.2053C159.393 36.9245 158.806 37.9514 158.637 39.083C158.462 40.5298 159.036 42.0799 160.367 43.6913L160.607 43.9821L160.257 44.1064C159.498 44.3709 158.719 45.8002 158.856 47.2434C158.936 48.1437 159.46 49.7183 162.056 50.1317L162.24 50.1615L162.273 50.3366C162.438 51.2504 162.847 52.1029 163.455 52.8045Z" fill="black"/>
<path d="M169.387 38.1855C169.352 38.1853 169.316 38.1781 169.284 38.1643C169.251 38.1505 169.221 38.1303 169.196 38.1049C169.159 38.0646 165.369 34.2043 159.624 36.3657C159.591 36.3817 159.554 36.3905 159.518 36.3916C159.481 36.3928 159.444 36.3861 159.41 36.3721C159.376 36.3581 159.345 36.337 159.32 36.3103C159.294 36.2836 159.275 36.2519 159.262 36.2171C159.25 36.1824 159.245 36.1454 159.248 36.1086C159.251 36.0719 159.261 36.0361 159.279 36.0037C159.297 35.9713 159.321 35.9429 159.35 35.9205C159.379 35.8981 159.413 35.882 159.449 35.8735C165.525 33.586 169.545 37.7003 169.585 37.7406C169.634 37.7899 169.662 37.8567 169.662 37.9263C169.662 37.9959 169.634 38.0627 169.585 38.1119C169.559 38.1374 169.528 38.1571 169.494 38.1698C169.46 38.1825 169.423 38.1878 169.387 38.1855Z" fill="#1D1D1B"/>
<path d="M168.03 44.1886C168.004 44.1888 167.978 44.1846 167.953 44.1763C167.907 44.1623 163.327 42.7909 160.215 44.1378C160.151 44.1657 160.078 44.167 160.013 44.1415C159.949 44.1161 159.896 44.0659 159.869 44.002C159.841 43.9382 159.839 43.8658 159.865 43.801C159.89 43.7361 159.941 43.684 160.004 43.6561C163.297 42.2304 167.911 43.6141 168.107 43.6736C168.168 43.6914 168.22 43.7307 168.255 43.7842C168.289 43.8378 168.303 43.9019 168.293 43.9647C168.284 44.0276 168.252 44.0849 168.204 44.1261C168.155 44.1672 168.094 44.1894 168.03 44.1886Z" fill="#1D1D1B"/>
<path d="M164.287 50.9798C163.42 50.9718 162.559 50.8475 161.726 50.6102C161.659 50.5898 161.603 50.5437 161.571 50.4821C161.538 50.4205 161.531 50.3484 161.552 50.2818C161.572 50.2151 161.618 50.1593 161.68 50.1266C161.741 50.0939 161.813 50.0871 161.88 50.1075C161.91 50.1075 164.809 50.9833 166.529 49.9324C166.558 49.9128 166.591 49.8995 166.626 49.8931C166.661 49.8866 166.696 49.8873 166.731 49.895C166.765 49.9026 166.798 49.9172 166.827 49.9378C166.855 49.9584 166.88 49.9845 166.898 50.0147C166.916 50.0448 166.928 50.0784 166.934 50.1134C166.939 50.1484 166.937 50.184 166.928 50.2182C166.919 50.2524 166.903 50.2844 166.881 50.3123C166.86 50.3402 166.833 50.3635 166.802 50.3808C166.052 50.8379 165.134 50.9798 164.287 50.9798Z" fill="#1D1D1B"/>
<path d="M171.364 35.5262C171.273 35.5261 171.185 35.4982 171.111 35.4461C171.037 35.3941 170.981 35.3205 170.95 35.2354C170.94 35.2057 169.819 32.1685 167.016 30.8566C165.265 30.0404 163.237 30.0474 160.958 30.8794C160.849 30.9191 160.728 30.9138 160.623 30.8647C160.518 30.8156 160.436 30.7267 160.396 30.6175C160.357 30.5084 160.362 30.3879 160.411 30.2826C160.46 30.1773 160.549 30.0959 160.658 30.0562C163.167 29.1419 165.433 29.1454 167.396 30.0667C170.53 31.5379 171.726 34.7958 171.775 34.9412C171.798 35.0072 171.805 35.0778 171.796 35.1471C171.786 35.2163 171.76 35.2823 171.72 35.3396C171.68 35.3968 171.626 35.4435 171.564 35.476C171.502 35.5085 171.434 35.5257 171.364 35.5262Z" fill="white"/>
<path d="M169.336 40.7937C169.268 40.7938 169.201 40.778 169.14 40.7476C169.079 40.7172 169.026 40.673 168.986 40.6185C168.863 40.4434 165.945 36.6005 160.978 38.3187C160.922 38.341 160.863 38.3517 160.804 38.3504C160.745 38.3491 160.686 38.3357 160.632 38.3111C160.578 38.2865 160.53 38.2512 160.49 38.2072C160.45 38.1633 160.419 38.1117 160.4 38.0556C160.381 37.9995 160.373 37.94 160.377 37.8808C160.381 37.8215 160.398 37.7638 160.425 37.7111C160.452 37.6584 160.49 37.6118 160.536 37.5741C160.582 37.5364 160.635 37.5085 160.692 37.492C166.281 35.5653 169.658 40.0545 169.691 40.1C169.74 40.1651 169.77 40.2425 169.777 40.3234C169.785 40.4044 169.769 40.4859 169.733 40.5586C169.696 40.6313 169.64 40.6925 169.571 40.7353C169.502 40.778 169.422 40.8006 169.341 40.8006L169.336 40.7937Z" fill="white"/>
<path d="M150.196 29.75C150.196 29.75 152.617 33.6629 159.015 33.8573L150.196 29.75Z" fill="white"/>
<path d="M159.011 34.1167C152.544 33.9205 150.078 30.0496 149.976 29.885C149.941 29.8258 149.93 29.7548 149.946 29.6876C149.962 29.6203 150.004 29.5622 150.063 29.5257C150.122 29.4893 150.192 29.4775 150.26 29.493C150.327 29.5084 150.386 29.5498 150.423 29.6082C150.446 29.6467 152.856 33.4038 159.027 33.5912C159.096 33.5912 159.163 33.6189 159.212 33.6682C159.262 33.7174 159.289 33.7843 159.289 33.8539C159.289 33.9236 159.262 33.9904 159.212 34.0397C159.163 34.089 159.096 34.1167 159.027 34.1167H159.011Z" fill="#1D1D1B"/>
<path d="M149.032 37.5215C149.032 37.5215 151.679 40.9965 158.131 39.837L149.032 37.5215Z" fill="white"/>
<path d="M155.57 40.3376C150.911 40.3376 148.914 37.8049 148.823 37.6788C148.8 37.6517 148.783 37.6201 148.772 37.586C148.762 37.552 148.758 37.5161 148.762 37.4807C148.766 37.4453 148.777 37.411 148.795 37.38C148.812 37.3489 148.836 37.3218 148.864 37.3001C148.892 37.2785 148.925 37.2628 148.959 37.2541C148.994 37.2454 149.03 37.2438 149.065 37.2494C149.1 37.255 149.134 37.2677 149.164 37.2867C149.194 37.3057 149.22 37.3307 149.24 37.36C149.266 37.3933 151.883 40.6879 158.084 39.5775C158.153 39.5652 158.225 39.581 158.283 39.6216C158.341 39.6622 158.38 39.7241 158.393 39.7938C158.405 39.8635 158.389 39.9352 158.348 39.9932C158.308 40.0511 158.246 40.0906 158.176 40.1029C157.316 40.2581 156.444 40.3366 155.57 40.3376Z" fill="#1D1D1B"/>
<path d="M37.9605 6.32909C37.5547 10.1048 37.5712 13.914 38.0096 17.686C38.4428 21.4323 39.2646 25.1234 40.4617 28.6997C41.6645 32.2935 43.2291 35.7559 45.1313 39.0337C47.0256 42.3015 49.2564 45.3623 51.7872 48.1662C54.3059 50.9682 57.1253 53.4845 60.1945 55.6697C60.5799 55.9447 60.9721 56.2127 61.3662 56.4754C61.4434 56.5361 61.5409 56.5648 61.6387 56.5556C61.7364 56.5465 61.827 56.5003 61.8917 56.4264C61.9546 56.3503 61.985 56.2523 61.9762 56.1539C61.9673 56.0555 61.92 55.9646 61.8444 55.901C58.7369 53.8246 55.8686 51.4109 53.2917 48.7039C50.7225 46.0004 48.4436 43.0352 46.4922 39.8569C44.5334 36.6765 42.9048 33.3042 41.6317 29.7926C40.3534 26.2849 39.4435 22.6537 38.9168 18.9576C38.3932 15.2748 38.2757 11.5456 38.5665 7.83716C38.6051 7.37651 38.6471 6.9176 38.6979 6.45695C38.7487 5.9963 38.013 5.85616 37.9622 6.33608L37.9605 6.32909Z" fill="black"/>
<path d="M30.2406 40.2878C31.4111 42.0275 32.6839 43.6961 34.0521 45.2849C35.4376 46.8878 36.9154 48.4084 38.4781 49.8389C41.5916 52.6886 45.0275 55.1646 48.7159 57.2164C50.548 58.2359 52.4395 59.1448 54.3803 59.9383L55.1073 60.229C55.1979 60.267 55.2996 60.2688 55.3915 60.2339C55.4834 60.199 55.5584 60.1302 55.6011 60.0416C55.641 59.9514 55.644 59.8491 55.6093 59.7567C55.5746 59.6643 55.505 59.5893 55.4155 59.5477C51.5375 58.0316 47.8544 56.0583 44.4439 53.6695C42.7356 52.4716 41.0981 51.1756 39.5397 49.7881C36.435 47.0333 33.6713 43.9168 31.3075 40.505C31.158 40.2913 31.0108 40.0759 30.866 39.8587C30.598 39.4594 29.9902 39.8885 30.2529 40.2861L30.2406 40.2878Z" fill="black"/>
<path d="M140.1 71.1994C140.04 71.1995 139.982 71.179 139.935 71.1414C139.889 71.1038 139.857 71.0513 139.844 70.9927C138.835 66.4527 143.347 60.9109 143.536 60.6779C143.581 60.624 143.645 60.59 143.714 60.5833C143.784 60.5765 143.853 60.5977 143.907 60.642C143.961 60.6864 143.995 60.7503 144.001 60.8198C144.008 60.8893 143.987 60.9586 143.943 61.0125C143.897 61.0668 139.403 66.5894 140.356 70.8789C140.371 70.9467 140.358 71.0177 140.321 71.0765C140.284 71.1353 140.225 71.1769 140.158 71.1924C140.139 71.1964 140.119 71.1988 140.1 71.1994Z" fill="#1D1E1B"/>
<path d="M178.48 109.91C178.436 109.91 178.392 109.899 178.353 109.878C178.294 109.845 178.249 109.79 178.23 109.725C178.21 109.659 178.217 109.589 178.248 109.528C183.105 100.625 181.051 90.6116 181.035 90.5188C181.025 90.4525 181.041 90.385 181.079 90.3299C181.117 90.2748 181.175 90.2364 181.24 90.2225C181.306 90.2086 181.374 90.2203 181.431 90.2552C181.489 90.2901 181.53 90.3456 181.548 90.4102C181.569 90.5118 183.662 100.7 178.709 109.78C178.686 109.821 178.652 109.854 178.612 109.877C178.572 109.899 178.526 109.911 178.48 109.91Z" fill="#1D1E1B"/>
<path d="M49.1147 100.313C49.0733 100.314 49.0324 100.304 48.9955 100.285C48.9586 100.266 48.9269 100.238 48.9028 100.205C45.2631 95.1796 44.9565 90.5591 45.34 87.5692C45.7552 84.3236 47.0198 82.2954 47.0741 82.2095C47.1134 82.1556 47.1716 82.1187 47.2371 82.1062C47.3026 82.0937 47.3705 82.1066 47.4268 82.1422C47.4832 82.1779 47.524 82.2336 47.5408 82.2982C47.5575 82.3627 47.5492 82.4312 47.5173 82.4898C47.5051 82.5108 46.2544 84.5233 45.8568 87.6603C45.4925 90.5521 45.7973 95.0167 49.3284 99.8965C49.369 99.9533 49.3855 100.024 49.3744 100.093C49.3632 100.162 49.3253 100.223 49.2689 100.264C49.224 100.297 49.17 100.314 49.1147 100.313Z" fill="#1D1E1B"/>
<path d="M118.117 41.008C118.095 41.0105 118.072 41.0105 118.05 41.008C117.983 40.9903 117.926 40.9466 117.89 40.8865C117.855 40.8264 117.845 40.7548 117.863 40.6875L119.453 34.6797C119.471 34.6124 119.515 34.5549 119.575 34.5199C119.636 34.4849 119.707 34.4753 119.775 34.4932C119.842 34.5111 119.9 34.555 119.935 34.6153C119.97 34.6755 119.979 34.7472 119.961 34.8146L118.371 40.8206C118.355 40.8754 118.322 40.9235 118.276 40.9574C118.23 40.9913 118.174 41.0091 118.117 41.008Z" fill="#1D1E1B"/>
<path d="M121.12 42.2434C121.084 42.2436 121.048 42.2361 121.015 42.2213C120.982 42.2065 120.952 42.1848 120.928 42.1576C120.904 42.1322 120.886 42.1024 120.874 42.07C120.863 42.0376 120.857 42.0032 120.859 41.9687C120.86 41.9342 120.868 41.9003 120.883 41.869C120.897 41.8377 120.918 41.8096 120.943 41.7863L125.007 38.0765C125.06 38.039 125.124 38.022 125.188 38.0288C125.252 38.0357 125.312 38.0659 125.355 38.1138C125.398 38.1616 125.422 38.2237 125.423 38.2882C125.423 38.3527 125.4 38.4152 125.357 38.4636L121.295 42.1839C121.246 42.2244 121.184 42.2456 121.12 42.2434Z" fill="#1D1E1B"/>
<path d="M63.1617 151.654L63.1592 152.18L158.296 152.645L158.299 152.119L63.1617 151.654Z" fill="#1D1E1B"/>
<path d="M74.1699 156.455H50.1826V156.981H74.1699V156.455Z" fill="#1D1E1B"/>
<path d="M54.9111 79.6695C54.8421 79.6696 54.7746 79.6493 54.7171 79.6111C54.6596 79.5729 54.6146 79.5187 54.5878 79.455C54.5611 79.3914 54.5539 79.3213 54.5668 79.2535C54.5797 79.1858 54.6124 79.1233 54.6607 79.074C57.1604 76.608 59.884 74.3798 62.7964 72.4182C69.0774 68.2303 74.4161 66.787 78.6618 68.1269C78.7058 68.1407 78.7466 68.1631 78.7819 68.1926C78.8172 68.2222 78.8463 68.2584 78.8676 68.2992C78.8889 68.3401 78.902 68.3847 78.9061 68.4305C78.9101 68.4764 78.9052 68.5226 78.8914 68.5666C78.8776 68.6105 78.8553 68.6513 78.8257 68.6866C78.7961 68.7219 78.7599 68.751 78.7191 68.7723C78.6783 68.7936 78.6336 68.8067 78.5878 68.8108C78.5419 68.8148 78.4957 68.8098 78.4518 68.796C68.7886 65.7449 55.2965 79.4278 55.1564 79.5662C55.0914 79.6316 55.0033 79.6687 54.9111 79.6695Z" fill="white"/>
<path d="M138.985 87.0235C138.935 87.0236 138.885 87.0128 138.84 86.992C129.031 82.5203 118.937 82.2962 118.837 82.2944C118.744 82.293 118.656 82.2548 118.591 82.1881C118.526 82.1214 118.491 82.0317 118.492 81.9388C118.494 81.8459 118.532 81.7574 118.599 81.6927C118.665 81.628 118.755 81.5924 118.848 81.5938C118.951 81.5938 129.196 81.8232 139.131 86.3545C139.203 86.3876 139.263 86.4447 139.299 86.5163C139.334 86.5878 139.345 86.6694 139.328 86.7476C139.311 86.8258 139.267 86.8958 139.205 86.946C139.143 86.9962 139.065 87.0236 138.985 87.0235Z" fill="white"/>
<path d="M101.648 138.444C101.14 138.347 100.69 138.055 100.393 137.632C100.096 137.209 99.975 136.687 100.056 136.176L104.345 108.957C104.495 107.973 104.844 107.031 105.373 106.187C105.901 105.344 106.597 104.617 107.417 104.053C108.969 102.984 110.875 102.558 112.735 102.864L132.77 106.168C132.918 106.192 133.059 106.245 133.186 106.325C133.313 106.404 133.423 106.508 133.51 106.63C133.596 106.752 133.658 106.891 133.691 107.037C133.724 107.183 133.728 107.334 133.702 107.482L127.829 141.428C127.783 141.689 127.686 141.939 127.544 142.162C127.401 142.386 127.215 142.578 126.997 142.729C126.779 142.88 126.533 142.985 126.273 143.04C126.014 143.094 125.746 143.097 125.486 143.046L101.648 138.444Z" fill="white"/>
<path d="M125.869 143.358C125.723 143.358 125.577 143.344 125.433 143.316L101.596 138.719C101.017 138.609 100.503 138.278 100.165 137.795C99.826 137.313 99.689 136.717 99.7827 136.135L104.072 108.917C104.223 107.927 104.569 106.977 105.089 106.122C105.61 105.267 106.295 104.524 107.106 103.935C107.916 103.347 108.835 102.926 109.809 102.695C110.783 102.465 111.794 102.43 112.782 102.593L132.816 105.896C133 105.927 133.176 105.993 133.334 106.092C133.492 106.191 133.629 106.32 133.737 106.472C133.845 106.624 133.922 106.796 133.963 106.978C134.004 107.159 134.009 107.348 133.976 107.531L128.102 141.475C128.011 142.002 127.737 142.48 127.329 142.824C126.92 143.169 126.403 143.359 125.869 143.36V143.358ZM101.701 138.172L125.539 142.769C125.763 142.812 125.993 142.81 126.216 142.763C126.44 142.717 126.652 142.626 126.839 142.496C127.027 142.366 127.187 142.201 127.31 142.008C127.433 141.816 127.517 141.601 127.556 141.376L133.43 107.431C133.449 107.32 133.447 107.206 133.422 107.095C133.397 106.985 133.35 106.881 133.285 106.788C133.22 106.696 133.136 106.618 133.04 106.558C132.944 106.498 132.838 106.457 132.726 106.439L112.691 103.136C111.776 102.985 110.839 103.017 109.936 103.231C109.034 103.444 108.182 103.835 107.431 104.38C106.68 104.925 106.045 105.614 105.563 106.407C105.08 107.199 104.76 108.079 104.62 108.997L100.33 136.219C100.259 136.659 100.362 137.109 100.618 137.474C100.874 137.839 101.262 138.089 101.7 138.172H101.701Z" fill="black"/>
<path d="M107.899 113.251L115.031 140.821L100.457 137.12L104.076 111.876L105.37 111.638C105.917 111.537 106.483 111.648 106.952 111.947C107.421 112.246 107.759 112.713 107.899 113.251Z" fill="#EBEBEB"/>
<path d="M107.078 103.964C106.271 104.547 105.592 105.288 105.083 106.143C104.574 106.998 104.245 107.949 104.117 108.935L103.789 111.467C105.187 109.783 108.569 110.876 108.569 110.876C107.538 105.62 110.372 103.316 111.58 102.59C109.969 102.537 108.385 103.02 107.078 103.964Z" fill="#4BD657"/>
<path d="M110.395 103.015C109.077 104.178 107.517 106.434 108.116 110.378C107.235 110.177 105.515 109.924 104.269 110.615L104.48 108.984C104.675 107.479 105.359 106.079 106.428 105.001C107.497 103.923 108.891 103.226 110.395 103.018V103.015ZM111.583 102.592C109.773 102.532 108.005 103.149 106.624 104.322C105.243 105.495 104.35 107.141 104.117 108.938L103.789 111.469C105.187 109.785 108.569 110.878 108.569 110.878C107.538 105.622 110.372 103.318 111.58 102.592H111.583Z" fill="black"/>
<path d="M89.9978 155.302C89.4955 155.425 88.9652 155.348 88.5188 155.087C88.0723 154.826 87.7448 154.402 87.6052 153.904L80.1555 127.376C79.8816 126.42 79.8065 125.417 79.935 124.43C80.0636 123.443 80.3929 122.493 80.9028 121.638C81.8682 120.019 83.4234 118.837 85.2419 118.34L104.829 112.989C104.973 112.95 105.124 112.939 105.273 112.959C105.421 112.978 105.564 113.026 105.694 113.101C105.824 113.176 105.937 113.276 106.028 113.395C106.119 113.514 106.186 113.65 106.224 113.794L115.037 147.097C115.105 147.354 115.121 147.621 115.084 147.883C115.048 148.146 114.959 148.399 114.824 148.626C114.688 148.854 114.508 149.053 114.295 149.211C114.082 149.368 113.84 149.482 113.582 149.545L89.9978 155.302Z" fill="white"/>
<path d="M89.5166 155.638C89.022 155.638 88.5412 155.476 88.1477 155.176C87.7542 154.876 87.4698 154.456 87.338 153.979L79.8884 127.451C79.6131 126.488 79.5315 125.481 79.6485 124.486C79.7655 123.492 80.0786 122.531 80.5698 121.659C81.0609 120.786 81.7204 120.02 82.5098 119.404C83.2993 118.789 84.2031 118.336 85.1689 118.072L104.756 112.722C104.936 112.673 105.123 112.66 105.308 112.683C105.493 112.707 105.671 112.767 105.833 112.861C105.994 112.954 106.136 113.078 106.249 113.226C106.362 113.374 106.445 113.543 106.492 113.724L115.305 147.026C115.382 147.318 115.401 147.622 115.359 147.921C115.317 148.22 115.216 148.508 115.062 148.768C114.908 149.027 114.703 149.254 114.46 149.433C114.217 149.613 113.941 149.742 113.648 149.814L90.0642 155.571C89.8851 155.616 89.7012 155.638 89.5166 155.638ZM105.129 113.226C105.052 113.226 104.976 113.236 104.902 113.257L85.3147 118.607C84.4196 118.852 83.5819 119.271 82.8503 119.842C82.1186 120.413 81.5075 121.123 81.0524 121.931C80.5972 122.74 80.3071 123.631 80.1989 124.553C80.0906 125.474 80.1664 126.408 80.4217 127.3L87.8714 153.83C87.9904 154.259 88.2723 154.625 88.6572 154.85C89.042 155.074 89.4994 155.14 89.9319 155.033L113.516 149.275C113.737 149.221 113.946 149.123 114.129 148.987C114.313 148.851 114.467 148.68 114.584 148.484C114.7 148.288 114.777 148.07 114.808 147.844C114.84 147.618 114.827 147.388 114.769 147.168L105.955 113.865C105.907 113.683 105.8 113.521 105.65 113.405C105.501 113.289 105.317 113.226 105.128 113.226H105.129Z" fill="black"/>
<path d="M80.5538 121.577C80.0442 122.432 79.715 123.382 79.5865 124.369C79.4579 125.356 79.5328 126.359 79.8065 127.316L80.5087 129.773C81.1245 127.672 84.6622 127.335 84.6622 127.335C81.6301 122.92 83.3205 119.68 84.1455 118.533C82.6446 119.123 81.3815 120.193 80.5538 121.577Z" fill="#4BD657"/>
<path d="M83.2205 119.396C82.4716 120.986 81.9342 123.676 84.0487 127.059C83.1595 127.224 81.4801 127.673 80.6091 128.802L80.1566 127.217C79.7383 125.758 79.8116 124.201 80.3653 122.788C80.919 121.374 81.9223 120.182 83.2205 119.395V119.396ZM84.1461 118.531C82.4597 119.194 81.0808 120.461 80.2784 122.085C79.4761 123.71 79.3081 125.575 79.8071 127.317L80.5093 129.774C81.1251 127.674 84.6629 127.336 84.6629 127.336C81.6307 122.921 83.3211 119.681 84.1461 118.534V118.531Z" fill="black"/>
<path d="M93.4084 143.765L90.5879 144.449C89.8835 144.619 89.451 145.329 89.6218 146.033L90.3057 148.854C90.4765 149.558 91.1859 149.991 91.8903 149.82L94.7108 149.136C95.4152 148.965 95.8478 148.256 95.677 147.551L94.9931 144.731C94.8223 144.026 94.1128 143.594 93.4084 143.765Z" fill="#4BD657"/>
<path d="M90.844 149.919C90.8123 149.903 90.7806 149.884 90.7489 149.865C90.5811 149.764 90.4351 149.63 90.3194 149.471C90.2038 149.313 90.1208 149.133 90.0753 148.942L89.3913 146.122C89.2984 145.737 89.3621 145.33 89.5683 144.992C89.7745 144.654 90.1065 144.411 90.4913 144.318L93.3119 143.634C93.5025 143.588 93.7004 143.579 93.8943 143.61C94.0881 143.64 94.2741 143.708 94.4416 143.81C94.6091 143.912 94.7548 144.047 94.8705 144.205C94.9861 144.363 95.0694 144.543 95.1157 144.734L95.7996 147.554C95.8927 147.939 95.8292 148.346 95.6229 148.684C95.4166 149.022 95.0845 149.265 94.6996 149.358L91.879 150.042C91.5305 150.127 91.1628 150.084 90.844 149.919ZM94.1805 144.08C93.9393 143.955 93.6611 143.922 93.3975 143.987L90.5769 144.67C90.2857 144.742 90.0346 144.925 89.8784 145.181C89.7223 145.437 89.674 145.744 89.744 146.036L90.4279 148.857C90.4987 149.148 90.6823 149.399 90.9383 149.556C91.1944 149.712 91.5019 149.76 91.7934 149.689L94.614 149.006C94.7583 148.971 94.8944 148.907 95.0143 148.82C95.1343 148.732 95.2358 148.622 95.313 148.495C95.3903 148.368 95.4419 148.228 95.4647 148.081C95.4875 147.934 95.4812 147.784 95.4461 147.64L94.763 144.819C94.7282 144.675 94.6652 144.539 94.5777 144.419C94.4901 144.299 94.3796 144.198 94.2526 144.12C94.2312 144.106 94.205 144.093 94.1805 144.08Z" fill="black"/>
<path d="M97.9888 145.838C97.956 145.821 97.9291 145.795 97.9118 145.762C97.8944 145.729 97.8875 145.692 97.8919 145.656C97.8963 145.619 97.9118 145.584 97.9364 145.557C97.9609 145.529 97.9933 145.509 98.0293 145.501L110.134 142.568C110.157 142.562 110.182 142.561 110.206 142.564C110.23 142.568 110.253 142.576 110.273 142.588C110.294 142.6 110.312 142.617 110.326 142.636C110.341 142.656 110.351 142.678 110.357 142.701C110.362 142.725 110.363 142.749 110.359 142.773C110.356 142.797 110.347 142.819 110.334 142.84C110.322 142.86 110.305 142.878 110.285 142.892C110.266 142.906 110.243 142.916 110.22 142.921L98.1148 145.853C98.0724 145.863 98.0278 145.858 97.9888 145.838Z" fill="black"/>
<path d="M92.5847 147.951L92.572 147.943L90.865 146.872C90.844 146.86 90.8258 146.843 90.8113 146.824C90.7968 146.804 90.7864 146.782 90.7806 146.759C90.7748 146.735 90.7738 146.711 90.7777 146.687C90.7816 146.663 90.7902 146.64 90.803 146.619C90.8159 146.599 90.8328 146.581 90.8527 146.567C90.8726 146.553 90.895 146.543 90.9187 146.538C90.9425 146.533 90.967 146.533 90.9908 146.537C91.0147 146.542 91.0374 146.551 91.0576 146.564L92.5816 147.521L93.5326 145.189C93.5508 145.145 93.5859 145.109 93.6304 145.09C93.6748 145.072 93.7249 145.071 93.7696 145.09C93.8142 145.108 93.8498 145.143 93.8685 145.187C93.8873 145.232 93.8876 145.282 93.8694 145.327L92.8391 147.858C92.829 147.882 92.8137 147.904 92.7943 147.922C92.7749 147.94 92.7518 147.954 92.7266 147.962C92.7034 147.97 92.6788 147.973 92.6545 147.971C92.6301 147.969 92.6064 147.962 92.5847 147.951Z" fill="black"/>
<path d="M91.1828 135.399L88.3624 136.083C87.658 136.254 87.2254 136.964 87.3962 137.668L88.0801 140.488C88.2509 141.193 88.9604 141.625 89.6648 141.455L92.4852 140.771C93.1896 140.6 93.6222 139.89 93.4514 139.186L92.7675 136.366C92.5967 135.661 91.8872 135.229 91.1828 135.399Z" fill="#4BD657"/>
<path d="M88.6184 141.552C88.5859 141.535 88.5542 141.517 88.5233 141.499C88.3555 141.397 88.2096 141.263 88.0938 141.104C87.9781 140.946 87.8948 140.766 87.8489 140.575L87.1657 137.754C87.0728 137.369 87.1365 136.963 87.3427 136.625C87.5489 136.287 87.8809 136.044 88.2657 135.95L91.0855 135.266C91.4707 135.173 91.877 135.237 92.2154 135.443C92.5537 135.649 92.7964 135.981 92.8901 136.366L93.574 139.187C93.6671 139.572 93.6036 139.979 93.3973 140.317C93.1911 140.655 92.859 140.898 92.474 140.992L89.6534 141.675C89.3049 141.761 88.9372 141.717 88.6184 141.552ZM91.9549 135.713C91.7135 135.588 91.435 135.555 91.1711 135.62L88.3513 136.303C88.0601 136.374 87.809 136.558 87.6529 136.814C87.4968 137.07 87.4484 137.377 87.5184 137.669L88.2024 140.489C88.2731 140.781 88.4567 141.032 88.7127 141.188C88.9688 141.344 89.2763 141.393 89.5679 141.322L92.3884 140.638C92.5327 140.603 92.6688 140.54 92.7887 140.453C92.9087 140.365 93.0102 140.255 93.0875 140.128C93.1648 140.001 93.2163 139.86 93.2391 139.714C93.2619 139.567 93.2556 139.417 93.2205 139.273L92.5366 136.452C92.5021 136.308 92.4393 136.172 92.3518 136.052C92.2643 135.932 92.1539 135.83 92.027 135.753C92.0032 135.739 91.9794 135.725 91.9549 135.713Z" fill="black"/>
<path d="M89.2267 127.306L86.4063 127.99C85.7019 128.16 85.2693 128.87 85.4401 129.574L86.124 132.395C86.2948 133.099 87.0043 133.532 87.7087 133.361L90.5292 132.677C91.2336 132.506 91.6662 131.797 91.4953 131.092L90.8114 128.272C90.6406 127.567 89.9311 127.135 89.2267 127.306Z" fill="#4BD657"/>
<path d="M86.6623 133.458C86.6298 133.442 86.5982 133.423 86.5673 133.405C86.3995 133.303 86.2535 133.169 86.1378 133.01C86.022 132.852 85.9388 132.672 85.8928 132.481L85.2097 129.66C85.1168 129.275 85.1804 128.869 85.3866 128.531C85.5929 128.193 85.9248 127.95 86.3097 127.857L89.1295 127.173C89.5146 127.08 89.9209 127.143 90.2593 127.349C90.5976 127.556 90.8403 127.888 90.934 128.273L91.6179 131.093C91.7111 131.479 91.6475 131.885 91.4413 132.223C91.235 132.562 90.903 132.804 90.5179 132.898L87.6974 133.581C87.3489 133.667 86.9811 133.623 86.6623 133.458ZM89.9988 127.619C89.7574 127.494 89.4789 127.461 89.2151 127.526L86.3953 128.209C86.1041 128.281 85.8529 128.464 85.6968 128.72C85.5407 128.976 85.4923 129.283 85.5623 129.575L86.2463 132.395C86.3171 132.687 86.5006 132.938 86.7567 133.094C87.0127 133.251 87.3203 133.299 87.6118 133.228L90.4323 132.544C90.5767 132.509 90.7127 132.446 90.8327 132.359C90.9526 132.271 91.0541 132.161 91.1314 132.034C91.2087 131.907 91.2602 131.767 91.2831 131.62C91.3059 131.473 91.2996 131.323 91.2645 131.179L90.5806 128.358C90.546 128.214 90.4832 128.078 90.3957 127.958C90.3083 127.838 90.1979 127.736 90.071 127.659C90.0472 127.645 90.0234 127.632 89.9988 127.619Z" fill="black"/>
<path d="M102.397 117.669L87.5518 121.268C86.8555 121.437 86.4279 122.139 86.5967 122.835C86.7656 123.531 87.467 123.959 88.1633 123.79L103.008 120.191C103.704 120.022 104.132 119.32 103.963 118.624C103.794 117.928 103.093 117.5 102.397 117.669Z" fill="#4BD657"/>
<path d="M87.1281 123.889C86.8598 123.751 86.64 123.534 86.4984 123.268C86.3567 123.002 86.2999 122.698 86.3356 122.399C86.3713 122.099 86.4978 121.818 86.6981 121.592C86.8985 121.367 87.163 121.208 87.4563 121.137L102.302 117.538C102.491 117.492 102.687 117.484 102.879 117.513C103.071 117.543 103.255 117.611 103.422 117.712C103.588 117.813 103.732 117.946 103.847 118.103C103.962 118.26 104.044 118.438 104.09 118.627C104.136 118.816 104.144 119.012 104.114 119.204C104.084 119.396 104.016 119.58 103.915 119.746C103.813 119.912 103.68 120.056 103.523 120.171C103.366 120.285 103.187 120.367 102.998 120.413L88.1537 124.012C87.8082 124.096 87.4439 124.052 87.1281 123.889ZM103.161 117.985C102.923 117.861 102.648 117.828 102.387 117.892L87.5419 121.491C87.2595 121.565 87.0177 121.748 86.8683 121.998C86.7188 122.249 86.6737 122.549 86.7426 122.833C86.8114 123.116 86.9888 123.362 87.2367 123.516C87.4845 123.671 87.783 123.722 88.0681 123.659L102.913 120.06C103.134 120.007 103.333 119.887 103.484 119.717C103.636 119.547 103.731 119.334 103.758 119.109C103.785 118.883 103.742 118.654 103.636 118.453C103.529 118.252 103.363 118.089 103.161 117.985Z" fill="black"/>
<path d="M93.7536 129.159C93.7204 129.142 93.6932 129.115 93.6757 129.082C93.6582 129.05 93.6512 129.012 93.6556 128.975C93.66 128.938 93.6756 128.904 93.7004 128.876C93.7251 128.848 93.7578 128.829 93.794 128.82L105.899 125.888C105.946 125.877 105.995 125.884 106.036 125.909C106.077 125.935 106.107 125.975 106.118 126.022C106.13 126.069 106.122 126.118 106.097 126.159C106.072 126.201 106.031 126.23 105.984 126.241L93.8796 129.174C93.8371 129.184 93.7925 129.178 93.7536 129.159Z" fill="black"/>
<path d="M95.7633 137.471C95.7304 137.454 95.7035 137.428 95.6862 137.395C95.6689 137.362 95.6619 137.325 95.6663 137.288C95.6707 137.252 95.6862 137.217 95.7108 137.189C95.7353 137.162 95.7678 137.142 95.8037 137.134L107.909 134.201C107.932 134.195 107.956 134.194 107.98 134.197C108.004 134.2 108.027 134.209 108.048 134.221C108.068 134.233 108.086 134.25 108.101 134.269C108.115 134.288 108.125 134.311 108.131 134.334C108.137 134.357 108.138 134.382 108.134 134.406C108.13 134.429 108.122 134.452 108.109 134.473C108.096 134.493 108.079 134.511 108.06 134.525C108.04 134.539 108.018 134.549 107.994 134.554L95.8893 137.486C95.8469 137.497 95.802 137.491 95.7633 137.471Z" fill="black"/>
<path d="M129.22 110.656L114.098 108.365C113.389 108.257 112.726 108.745 112.619 109.454C112.511 110.164 112.999 110.826 113.709 110.933L128.831 113.225C129.54 113.332 130.202 112.844 130.31 112.135C130.417 111.425 129.929 110.763 129.22 110.656Z" fill="#4BD657"/>
<path d="M112.434 109.543C112.125 109.381 111.884 109.114 111.753 108.791C111.621 108.468 111.608 108.108 111.716 107.776C111.824 107.445 112.045 107.161 112.342 106.977C112.638 106.793 112.99 106.719 113.335 106.769L128.438 109.061C128.63 109.09 128.814 109.157 128.98 109.257C129.146 109.358 129.291 109.49 129.406 109.646C129.522 109.803 129.605 109.98 129.651 110.169C129.698 110.357 129.707 110.553 129.678 110.745C129.649 110.937 129.582 111.122 129.482 111.288C129.381 111.454 129.249 111.599 129.093 111.714C128.936 111.829 128.759 111.913 128.57 111.959C128.382 112.006 128.186 112.015 127.994 111.986L112.892 109.694C112.732 109.669 112.577 109.618 112.434 109.543ZM128.728 109.529C128.62 109.473 128.503 109.435 128.383 109.417L113.281 107.125C112.99 107.085 112.695 107.16 112.459 107.336C112.224 107.511 112.067 107.773 112.023 108.063C111.979 108.353 112.052 108.649 112.224 108.887C112.397 109.124 112.656 109.284 112.946 109.331L128.048 111.623C128.31 111.662 128.576 111.607 128.8 111.468C129.025 111.329 129.192 111.115 129.274 110.863C129.355 110.612 129.345 110.341 129.245 110.096C129.146 109.852 128.962 109.651 128.728 109.529Z" fill="black"/>
<path d="M110.363 115.734C110.325 115.714 110.295 115.681 110.279 115.641C110.263 115.602 110.261 115.557 110.275 115.517C110.288 115.476 110.315 115.441 110.351 115.418C110.388 115.396 110.431 115.386 110.474 115.392L128.601 118.143C128.624 118.147 128.647 118.155 128.667 118.167C128.688 118.18 128.706 118.196 128.72 118.215C128.734 118.234 128.744 118.256 128.75 118.279C128.755 118.302 128.757 118.326 128.753 118.35C128.749 118.374 128.741 118.396 128.729 118.417C128.716 118.437 128.7 118.455 128.681 118.469C128.662 118.483 128.64 118.493 128.617 118.499C128.594 118.505 128.57 118.506 128.546 118.502L110.419 115.752C110.399 115.749 110.38 115.743 110.363 115.734Z" fill="black"/>
<path d="M110.016 118.762C109.977 118.743 109.946 118.71 109.929 118.67C109.912 118.63 109.91 118.585 109.924 118.544C109.937 118.502 109.965 118.467 110.002 118.445C110.039 118.422 110.083 118.413 110.126 118.42L128.09 121.147C128.114 121.15 128.137 121.158 128.157 121.171C128.178 121.183 128.195 121.199 128.209 121.218C128.224 121.238 128.234 121.259 128.239 121.283C128.245 121.306 128.246 121.33 128.243 121.353C128.239 121.377 128.231 121.4 128.219 121.42C128.206 121.44 128.19 121.458 128.171 121.472C128.152 121.486 128.13 121.497 128.107 121.502C128.083 121.508 128.059 121.509 128.036 121.506L110.071 118.779C110.052 118.777 110.033 118.771 110.016 118.762Z" fill="black"/>
<path d="M118.921 124.038C118.882 124.018 118.852 123.986 118.836 123.946C118.82 123.906 118.818 123.862 118.831 123.821C118.844 123.78 118.872 123.745 118.908 123.723C118.945 123.7 118.988 123.691 119.031 123.697L128.29 125.102C128.314 125.106 128.337 125.114 128.357 125.127C128.377 125.139 128.395 125.155 128.409 125.174C128.424 125.194 128.434 125.215 128.439 125.239C128.445 125.262 128.446 125.286 128.443 125.309C128.439 125.333 128.431 125.356 128.419 125.376C128.406 125.396 128.39 125.414 128.371 125.428C128.352 125.442 128.33 125.453 128.307 125.458C128.283 125.464 128.259 125.465 128.236 125.462L118.976 124.056C118.957 124.054 118.938 124.048 118.921 124.038Z" fill="black"/>
<path d="M86.8311 130.017L88.3979 131.591L89.4107 128.73" fill="#4BD657"/>
<path d="M88.3144 131.752C88.2978 131.744 88.2825 131.732 88.2693 131.719L86.7025 130.145C86.6684 130.111 86.6493 130.065 86.6494 130.016C86.6495 129.968 86.6687 129.922 86.7029 129.888C86.737 129.854 86.7833 129.835 86.8315 129.835C86.8798 129.835 86.926 129.854 86.96 129.888L88.3232 131.259L89.2369 128.668C89.2449 128.645 89.2572 128.625 89.2731 128.607C89.2891 128.589 89.3084 128.575 89.33 128.565C89.3515 128.554 89.3748 128.548 89.3986 128.547C89.4224 128.546 89.4462 128.549 89.4687 128.557C89.4912 128.565 89.5119 128.578 89.5296 128.594C89.5474 128.61 89.5618 128.629 89.572 128.65C89.5823 128.672 89.5882 128.695 89.5895 128.719C89.5907 128.743 89.5872 128.767 89.5793 128.789L88.5656 131.65C88.557 131.675 88.5432 131.697 88.5252 131.715C88.5073 131.734 88.4855 131.749 88.4614 131.758C88.4373 131.768 88.4114 131.772 88.3855 131.771C88.3596 131.769 88.3343 131.763 88.3113 131.751L88.3144 131.752Z" fill="black"/>
<path d="M90.3621 139.584L90.3487 139.576L88.6416 138.504C88.6008 138.479 88.5719 138.438 88.5612 138.391C88.5505 138.344 88.5589 138.295 88.5845 138.254C88.6102 138.213 88.651 138.184 88.6979 138.173C88.7449 138.163 88.7942 138.171 88.835 138.197L90.359 139.153L91.31 136.823C91.3189 136.8 91.3321 136.78 91.3489 136.763C91.3656 136.746 91.3855 136.733 91.4075 136.723C91.4295 136.714 91.4531 136.709 91.4769 136.709C91.5008 136.709 91.5244 136.713 91.5465 136.722C91.5687 136.731 91.5888 136.744 91.6058 136.761C91.6228 136.778 91.6364 136.798 91.6457 136.82C91.655 136.842 91.6599 136.865 91.6601 136.889C91.6603 136.913 91.6557 136.937 91.6468 136.959L90.6165 139.49C90.6067 139.515 90.5914 139.537 90.572 139.555C90.5525 139.573 90.5293 139.587 90.504 139.595C90.4808 139.602 90.4563 139.605 90.4319 139.604C90.4076 139.602 90.3838 139.595 90.3621 139.584Z" fill="black"/>
<path d="M78.6673 128.15C78.6265 128.129 78.5953 128.093 78.5801 128.05C77.1742 124.132 78.592 121.26 80.0288 119.541C80.9972 118.392 82.1772 117.439 83.5048 116.734C83.548 116.714 83.5976 116.711 83.6427 116.727C83.6878 116.743 83.7248 116.776 83.7457 116.819C83.7666 116.862 83.7697 116.912 83.7542 116.957C83.7388 117.002 83.7061 117.039 83.6633 117.061C82.3813 117.75 81.2401 118.673 80.2991 119.783C78.3036 122.176 77.8423 124.915 78.9209 127.927C78.9333 127.961 78.9351 127.999 78.9259 128.034C78.9168 128.069 78.8972 128.101 78.8698 128.125C78.8423 128.149 78.8082 128.164 78.7719 128.169C78.7357 128.173 78.6989 128.166 78.6665 128.15H78.6673Z" fill="black"/>
<path d="M122.244 102.343C122.205 102.324 122.175 102.291 122.158 102.251C122.142 102.211 122.14 102.166 122.154 102.125C122.167 102.084 122.195 102.049 122.232 102.026C122.269 102.004 122.313 101.995 122.355 102.002L131.493 103.466C131.517 103.469 131.54 103.477 131.561 103.49C131.582 103.502 131.6 103.518 131.614 103.538C131.629 103.557 131.639 103.58 131.645 103.603C131.651 103.627 131.652 103.651 131.648 103.675C131.644 103.699 131.635 103.722 131.622 103.742C131.61 103.763 131.593 103.781 131.573 103.795C131.553 103.808 131.531 103.818 131.507 103.823C131.483 103.829 131.459 103.829 131.435 103.824L122.298 102.357C122.279 102.355 122.261 102.351 122.244 102.343Z" fill="black"/>
<defs>
<filter id="filter0_d_14562_45218" x="-2.14305" y="57.4863" width="20.6308" height="20.6318" filterUnits="userSpaceOnUse" color-interpolation-filters="sRGB">
<feFlood flood-opacity="0" result="BackgroundImageFix"/>
<feColorMatrix in="SourceAlpha" type="matrix" values="0 0 0 0 0 0 0 0 0 0 0 0 0 0 0 0 0 0 127 0" result="hardAlpha"/>
<feOffset dy="1.08642"/>
<feGaussianBlur stdDeviation="2.71606"/>
<feComposite in2="hardAlpha" operator="out"/>
<feColorMatrix type="matrix" values="0 0 0 0 0 0 0 0 0 0 0 0 0 0 0 0 0 0 0.05 0"/>
<feBlend mode="normal" in2="BackgroundImageFix" result="effect1_dropShadow_14562_45218"/>
<feBlend mode="normal" in="SourceGraphic" in2="effect1_dropShadow_14562_45218" result="shape"/>
</filter>
<filter id="filter1_d_14562_45218" x="197.677" y="88.1152" width="20.6338" height="20.6338" filterUnits="userSpaceOnUse" color-interpolation-filters="sRGB">
<feFlood flood-opacity="0" result="BackgroundImageFix"/>
<feColorMatrix in="SourceAlpha" type="matrix" values="0 0 0 0 0 0 0 0 0 0 0 0 0 0 0 0 0 0 127 0" result="hardAlpha"/>
<feOffset dy="1.08642"/>
<feGaussianBlur stdDeviation="2.71606"/>
<feComposite in2="hardAlpha" operator="out"/>
<feColorMatrix type="matrix" values="0 0 0 0 0 0 0 0 0 0 0 0 0 0 0 0 0 0 0.05 0"/>
<feBlend mode="normal" in2="BackgroundImageFix" result="effect1_dropShadow_14562_45218"/>
<feBlend mode="normal" in="SourceGraphic" in2="effect1_dropShadow_14562_45218" result="shape"/>
</filter>
<linearGradient id="paint0_linear_14562_45218" x1="10.9078" y1="59.7539" x2="209.093" y2="106.959" gradientUnits="userSpaceOnUse">
<stop stop-color="#CDD5E2"/>
<stop offset="1" stop-color="#CDD5E2" stop-opacity="0"/>
</linearGradient>
<linearGradient id="paint1_linear_14562_45218" x1="208.751" y1="104.233" x2="188.719" y2="156.823" gradientUnits="userSpaceOnUse">
<stop stop-color="#CDD5E2"/>
<stop offset="1" stop-color="#CDD5E2" stop-opacity="0"/>
</linearGradient>
<linearGradient id="paint2_linear_14562_45218" x1="104.802" y1="12.4062" x2="104.802" y2="194.67" gradientUnits="userSpaceOnUse">
<stop stop-color="#CDD5E2"/>
<stop offset="1" stop-color="#CDD5E2" stop-opacity="0"/>
</linearGradient>
<linearGradient id="paint3_linear_14562_45218" x1="104.802" y1="30.6309" x2="104.802" y2="176.442" gradientUnits="userSpaceOnUse">
<stop stop-color="#CDD5E2"/>
<stop offset="1" stop-color="#CDD5E2" stop-opacity="0"/>
</linearGradient>
</defs>
</svg>
