<svg width="285" height="212" viewBox="0 0 285 212" fill="none" xmlns="http://www.w3.org/2000/svg">
<mask id="mask0_10210_60978" style="mask-type:alpha" maskUnits="userSpaceOnUse" x="0" y="0" width="285" height="212">
<rect width="285" height="212" fill="#D9D9D9"/>
</mask>
<g mask="url(#mask0_10210_60978)">
<g opacity="0.5">
<mask id="path-2-inside-1_10210_60978" fill="white">
<path d="M273.871 142.256C275.287 109.771 265.017 77.8543 244.923 52.2905C224.829 26.7266 196.242 9.20795 164.342 2.91007C132.441 -3.3878 99.3407 1.95193 71.0393 17.9614C42.7378 33.9708 21.1088 59.5903 10.0729 90.1759L10.6626 90.3887C21.6477 59.944 43.1769 34.4426 71.3479 18.507C99.5189 2.57137 132.467 -2.74374 164.22 3.5251C195.973 9.79394 224.429 27.2318 244.43 52.6779C264.432 78.1239 274.654 109.894 273.245 142.229L273.871 142.256Z"/>
</mask>
<path d="M273.871 142.256C275.287 109.771 265.017 77.8543 244.923 52.2905C224.829 26.7266 196.242 9.20795 164.342 2.91007C132.441 -3.3878 99.3407 1.95193 71.0393 17.9614C42.7378 33.9708 21.1088 59.5903 10.0729 90.1759L10.6626 90.3887C21.6477 59.944 43.1769 34.4426 71.3479 18.507C99.5189 2.57137 132.467 -2.74374 164.22 3.5251C195.973 9.79394 224.429 27.2318 244.43 52.6779C264.432 78.1239 274.654 109.894 273.245 142.229L273.871 142.256Z" stroke="url(#paint0_linear_10210_60978)" stroke-width="2" stroke-dasharray="3 3" mask="url(#path-2-inside-1_10210_60978)"/>
</g>
<g opacity="0.5">
<mask id="path-3-inside-2_10210_60978" fill="white">
<path d="M10.256 182.994C21.4116 213.536 43.1407 239.07 71.5046 254.969C99.8685 270.867 132.99 276.078 164.865 269.655C196.74 263.232 225.259 245.602 245.253 219.96C265.247 194.317 275.391 162.36 273.848 129.881L273.222 129.911C274.758 162.24 264.66 194.05 244.759 219.574C224.857 245.098 196.469 262.647 164.741 269.04C133.013 275.433 100.044 270.247 71.8111 254.422C43.578 238.597 21.949 213.18 10.8449 182.778L10.256 182.994Z"/>
</mask>
<path d="M10.256 182.994C21.4116 213.536 43.1407 239.07 71.5046 254.969C99.8685 270.867 132.99 276.078 164.865 269.655C196.74 263.232 225.259 245.602 245.253 219.96C265.247 194.317 275.391 162.36 273.848 129.881L273.222 129.911C274.758 162.24 264.66 194.05 244.759 219.574C224.857 245.098 196.469 262.647 164.741 269.04C133.013 275.433 100.044 270.247 71.8111 254.422C43.578 238.597 21.949 213.18 10.8449 182.778L10.256 182.994Z" stroke="url(#paint1_linear_10210_60978)" stroke-width="2" stroke-dasharray="3 3" mask="url(#path-3-inside-2_10210_60978)"/>
</g>
<circle opacity="0.08" cx="138" cy="136.335" r="120" fill="url(#paint2_linear_10210_60978)"/>
<circle opacity="0.1" cx="138" cy="136.335" r="96" fill="url(#paint3_linear_10210_60978)"/>
<circle cx="138" cy="136.335" r="64" fill="white"/>
<g filter="url(#filter0_d_10210_60978)">
<circle cx="10.7606" cy="87.8481" r="5" transform="rotate(-2.50406 10.7606 87.8481)" fill="#0170FF"/>
<circle cx="10.7606" cy="87.8481" r="5.71528" transform="rotate(-2.50406 10.7606 87.8481)" stroke="white" stroke-width="1.43057"/>
</g>
<g filter="url(#filter1_d_10210_60978)">
<circle cx="273.879" cy="128.181" r="5" transform="rotate(-15.7345 273.879 128.181)" fill="#0170FF"/>
<circle cx="273.879" cy="128.181" r="5.71528" transform="rotate(-15.7345 273.879 128.181)" stroke="white" stroke-width="1.43057"/>
</g>
</g>
<path d="M248.366 205.201L46.9559 204.256C46.8215 204.256 46.6927 204.202 46.5977 204.107C46.5026 204.012 46.4492 203.883 46.4492 203.749C46.4492 203.614 46.5026 203.486 46.5977 203.391C46.6927 203.296 46.8215 203.242 46.9559 203.242L248.366 204.187C248.501 204.187 248.63 204.241 248.725 204.336C248.82 204.431 248.873 204.559 248.873 204.694C248.873 204.828 248.82 204.957 248.725 205.052C248.63 205.147 248.501 205.201 248.366 205.201Z" fill="black"/>
<path d="M52.0545 209.452H22.38C22.2792 209.452 22.1826 209.412 22.1113 209.341C22.0401 209.27 22 209.173 22 209.072C22 208.972 22.0401 208.875 22.1113 208.804C22.1826 208.732 22.2792 208.692 22.38 208.692H52.0597C52.1605 208.692 52.2571 208.732 52.3284 208.804C52.3996 208.875 52.4397 208.972 52.4397 209.072C52.4397 209.173 52.3996 209.27 52.3284 209.341C52.2571 209.412 52.1605 209.452 52.0597 209.452H52.0545Z" fill="black"/>
<path d="M263.099 212.001H233.419C233.318 212.001 233.222 211.961 233.15 211.89C233.079 211.819 233.039 211.722 233.039 211.621C233.039 211.52 233.079 211.424 233.15 211.353C233.222 211.281 233.318 211.241 233.419 211.241H263.099C263.2 211.241 263.296 211.281 263.367 211.353C263.439 211.424 263.479 211.52 263.479 211.621C263.479 211.722 263.439 211.819 263.367 211.89C263.296 211.961 263.2 212.001 263.099 212.001Z" fill="black"/>
<path d="M102.793 59.7153C102.793 59.7153 101.288 71.5162 93.0317 68.5951C84.7752 65.674 71.5759 61.9143 66.0352 74.1104C60.4945 86.3065 57.8749 94.9482 48.4707 94.2237C39.0665 93.4991 25.9228 121.332 50.7508 130.483C91.4002 145.491 124.799 72.294 124.799 72.294L117.677 65.3953L102.793 59.7153Z" fill="#382256"/>
<path d="M102.795 59.715L117.666 65.3951L124.788 72.2937C124.788 72.2937 97.315 132.512 61.8692 132.512C58.0683 132.504 54.2993 131.818 50.7398 130.485C26.2539 121.445 38.7386 94.2107 48.1098 94.2107C48.2315 94.2107 48.3634 94.2107 48.4723 94.2259C48.8422 94.2538 49.1994 94.269 49.549 94.269C58.0843 94.269 60.714 85.83 66.0368 74.1127C68.9731 67.6473 74.0603 65.6662 79.4236 65.6662C84.1789 65.6662 89.1521 67.2242 93.0333 68.5973C93.8301 68.8927 94.6716 69.0495 95.5213 69.061C101.602 69.061 102.795 59.7176 102.795 59.7176V59.715ZM102.795 58.9575C102.609 58.956 102.429 59.0228 102.289 59.1451C102.149 59.2674 102.058 59.4368 102.035 59.6213C102.02 59.7378 100.844 68.3009 95.5161 68.3009C94.7527 68.2889 93.9972 68.1467 93.2817 67.8804C89.1243 66.411 84.2244 64.9061 79.4184 64.9061C72.7554 64.9061 68.018 67.8981 65.3401 73.7985C64.7296 75.1413 64.1569 76.4359 63.6021 77.6874C59.3915 87.2133 56.6097 93.5089 49.5438 93.5089C49.2145 93.5089 48.8725 93.4937 48.5304 93.4684C48.3911 93.4557 48.2492 93.4506 48.1098 93.4506C45.6372 93.4506 42.9949 95.0518 40.6641 97.9602C38.3045 100.983 36.7245 104.54 36.0633 108.317C35.2399 112.93 35.8657 117.356 37.8773 121.116C40.2765 125.605 44.5176 128.998 50.4763 131.197C54.123 132.561 57.9835 133.264 61.8769 133.274C70.1309 133.274 78.6206 130.057 87.1178 123.713C93.8644 118.676 100.634 111.659 107.236 102.862C118.454 87.915 125.419 72.7624 125.477 72.6129C125.542 72.4701 125.561 72.3107 125.532 72.1565C125.503 72.0023 125.427 71.8608 125.315 71.7515L118.193 64.8529C118.122 64.7806 118.035 64.7244 117.94 64.6882L103.068 59.0082C102.982 58.9753 102.89 58.9582 102.797 58.9575H102.795Z" fill="black"/>
<path d="M117.668 65.3953L102.796 59.7153C102.796 59.7153 102.054 65.5423 98.7425 67.9871L103.191 73.9686C103.191 73.9686 92.7102 78.5009 91.0103 86.1495C89.3838 93.4636 62.6356 94.3073 50.8828 130.536C70.92 137.83 89.1838 123.723 102.543 107.572C109.383 92.1943 117.28 74.4398 120.178 67.8376L117.668 65.3953Z" fill="#050505"/>
<path d="M114.012 81.0859C127.61 77.3212 202.431 97.3153 207.819 104.847C213.208 112.379 180.764 202.839 172.085 202.839C162.169 202.839 91.0669 202.839 76.3348 203.156C63.4141 203.435 53.9568 168.323 58.2054 160.166C62.4541 152.008 93.8994 86.1073 104.38 84.8532C114.861 83.5992 114.012 81.0859 114.012 81.0859Z" fill="#07ACEE"/>
<path d="M76.1854 203.538C72.4206 203.538 68.6457 200.658 65.2509 195.198C58.712 184.677 54.7802 165.921 57.8685 159.983C58.3752 158.997 59.282 157.196 60.5259 154.69C75.2909 125.031 95.8984 85.4813 104.335 84.4704C111.099 83.6597 112.964 82.355 113.473 81.6481C113.681 81.3619 113.648 81.1896 113.645 81.182C113.622 81.1376 113.609 81.088 113.609 81.0376C113.609 80.9872 113.622 80.9376 113.645 80.8932C113.672 80.8466 113.708 80.8066 113.752 80.7759C113.796 80.7452 113.846 80.7247 113.899 80.7158C121.299 78.6663 145.554 83.5508 164.079 88.3567C183.885 93.4971 205.184 100.517 208.116 104.622C212.623 110.927 192.983 168.293 180.924 191.737C176.949 199.459 174.053 203.214 172.072 203.214C153.071 203.214 89.9877 203.237 76.3323 203.531L76.1854 203.538ZM114.398 81.3796C114.364 81.5978 114.284 81.8062 114.162 81.9902C113.518 83.0036 111.304 84.4046 104.426 85.2305C101.809 85.5421 95.9387 90.7459 82.8407 113.75C74.2269 128.869 65.7576 145.892 61.2075 155.045C59.961 157.548 59.0592 159.352 58.5424 160.35C55.8037 165.61 58.9376 183.61 65.8895 194.805C68.1696 198.459 71.7771 202.786 76.1752 202.786H76.3197C90.0004 202.492 153.069 202.469 172.085 202.469C173.012 202.469 175.307 201.03 180.26 191.403C186.269 179.721 194.075 159.988 200.145 141.121C206.479 121.408 209.311 107.598 207.51 105.078C205.106 101.713 187.174 95.1464 163.901 89.1168C145.701 84.3767 121.978 79.5657 114.398 81.3796Z" fill="black"/>
<path d="M200.834 109.782C200.834 109.782 111.885 108.082 109.052 110.915C107.763 112.204 107.636 141.225 106.503 161.622C105.125 186.412 85.5391 202.981 85.5391 202.981H121.233L200.834 109.782Z" fill="#0598C6"/>
<path d="M122.055 82.5937C139.234 74.0889 186.486 81.2561 208.953 100.315C231.419 119.375 218.017 134.591 212.636 133.458" fill="#07ACEE"/>
<path d="M213.225 133.896C213 133.897 212.777 133.875 212.556 133.83C212.507 133.82 212.461 133.8 212.42 133.772C212.379 133.744 212.343 133.708 212.316 133.666C212.289 133.624 212.27 133.577 212.261 133.528C212.251 133.479 212.252 133.428 212.262 133.38C212.273 133.331 212.293 133.284 212.321 133.243C212.349 133.202 212.385 133.166 212.427 133.139C212.469 133.112 212.516 133.093 212.565 133.084C212.614 133.075 212.664 133.075 212.713 133.086C214.631 133.488 217.861 131.545 219.746 127.697C220.899 125.348 221.935 121.46 220.331 116.279C218.718 111.052 214.806 105.777 208.705 100.604C198.43 91.8864 181.934 84.9194 163.45 81.4916C146.261 78.302 130.462 78.8543 122.22 82.9357C122.176 82.9578 122.127 82.9709 122.077 82.9742C122.027 82.9775 121.978 82.971 121.93 82.955C121.883 82.939 121.839 82.9139 121.802 82.881C121.764 82.8481 121.733 82.8082 121.711 82.7634C121.689 82.7187 121.676 82.67 121.673 82.6202C121.669 82.5703 121.676 82.5204 121.692 82.4731C121.708 82.4258 121.733 82.3822 121.766 82.3446C121.799 82.307 121.839 82.2763 121.884 82.2542C130.264 78.1044 146.245 77.5267 163.589 80.7341C182.2 84.1872 198.822 91.215 209.192 100.014C215.404 105.283 219.394 110.677 221.054 116.046C222.728 121.462 221.636 125.549 220.425 128.021C218.553 131.862 215.457 133.896 213.225 133.896Z" fill="black"/>
<path d="M142.216 94.2773C143.322 94.2773 144.218 93.3813 144.218 92.2759C144.218 91.1705 143.322 90.2744 142.216 90.2744C141.111 90.2744 140.215 91.1705 140.215 92.2759C140.215 93.3813 141.111 94.2773 142.216 94.2773Z" fill="#51CEF4"/>
<path d="M162.962 87.9135C164.068 87.9135 164.964 87.0174 164.964 85.9121C164.964 84.8067 164.068 83.9106 162.962 83.9106C161.857 83.9106 160.961 84.8067 160.961 85.9121C160.961 87.0174 161.857 87.9135 162.962 87.9135Z" fill="#51CEF4"/>
<path d="M180.685 97.1787C181.79 97.1787 182.686 96.2826 182.686 95.1773C182.686 94.0719 181.79 93.1758 180.685 93.1758C179.58 93.1758 178.684 94.0719 178.684 95.1773C178.684 96.2826 179.58 97.1787 180.685 97.1787Z" fill="#51CEF4"/>
<path d="M156.201 105.435C157.306 105.435 158.202 104.539 158.202 103.434C158.202 102.328 157.306 101.432 156.201 101.432C155.095 101.432 154.199 102.328 154.199 103.434C154.199 104.539 155.095 105.435 156.201 105.435Z" fill="#51CEF4"/>
<path d="M198.951 105.67C200.056 105.67 200.952 104.774 200.952 103.669C200.952 102.564 200.056 101.667 198.951 101.667C197.845 101.667 196.949 102.564 196.949 103.669C196.949 104.774 197.845 105.67 198.951 105.67Z" fill="#51CEF4"/>
<path d="M182.771 111.906C183.876 111.906 184.773 111.01 184.773 109.904C184.773 108.799 183.876 107.903 182.771 107.903C181.666 107.903 180.77 108.799 180.77 109.904C180.77 111.01 181.666 111.906 182.771 111.906Z" fill="#51CEF4"/>
<path d="M206.118 85.3978C206.031 85.3975 205.947 85.3681 205.879 85.3142C205.829 85.2712 200.64 81.1112 192.802 77.4199C185.584 74.0225 174.561 70.3262 163.117 72.0794C163.067 72.0868 163.016 72.0844 162.967 72.0722C162.918 72.0601 162.872 72.0384 162.832 72.0084C162.791 71.9784 162.757 71.9407 162.731 71.8974C162.705 71.8542 162.687 71.8063 162.68 71.7564C162.673 71.7065 162.675 71.6556 162.687 71.6066C162.699 71.5576 162.721 71.5116 162.751 71.471C162.781 71.4304 162.819 71.3961 162.862 71.3701C162.905 71.3441 162.953 71.3268 163.003 71.3193C174.657 69.5459 185.827 73.2878 193.151 76.7334C201.068 80.4626 206.313 84.6732 206.363 84.7138C206.425 84.763 206.469 84.8302 206.491 84.9059C206.513 84.9816 206.51 85.0622 206.484 85.1364C206.458 85.2107 206.409 85.275 206.345 85.3204C206.281 85.3659 206.204 85.3903 206.125 85.3902L206.118 85.3978Z" fill="black"/>
<path d="M31.0541 119.108C30.9787 119.108 30.9048 119.086 30.8421 119.044C30.7794 119.002 30.7305 118.942 30.7018 118.872C26.9396 109.752 26.6711 102.268 29.9012 96.6335C34.3297 88.909 43.9342 87.4876 44.0305 87.4724C44.0804 87.4655 44.1311 87.4684 44.1799 87.481C44.2287 87.4937 44.2745 87.5158 44.3148 87.5462C44.355 87.5765 44.3889 87.6145 44.4145 87.6579C44.44 87.7014 44.4567 87.7494 44.4637 87.7993C44.4707 87.8492 44.4677 87.9 44.455 87.9488C44.4424 87.9976 44.4203 88.0434 44.39 88.0836C44.3596 88.1238 44.3216 88.1577 44.2781 88.1833C44.2347 88.2088 44.1868 88.2255 44.1369 88.2325C44.0431 88.2477 34.7958 89.6234 30.5573 97.0237C27.4539 102.445 27.7378 109.691 31.4037 118.588C31.4244 118.635 31.4355 118.685 31.4364 118.736C31.4372 118.787 31.4278 118.838 31.4087 118.885C31.3895 118.933 31.3609 118.976 31.3248 119.012C31.2887 119.048 31.2457 119.076 31.1984 119.095C31.1516 119.109 31.1026 119.113 31.0541 119.108Z" fill="black"/>
<path d="M41.447 193.609C41.3837 193.609 41.3214 193.593 41.2657 193.563C41.21 193.533 41.1627 193.49 41.1279 193.437C34.3179 183.075 35.3794 171.799 37.467 164.163C38.8423 159.154 40.9347 154.37 43.6791 149.96C43.7368 149.88 43.8232 149.826 43.9201 149.809C44.0171 149.791 44.1169 149.812 44.1987 149.867C44.2805 149.922 44.3378 150.006 44.3585 150.103C44.3793 150.199 44.3618 150.3 44.3098 150.383C41.6061 154.731 39.5462 159.448 38.1941 164.386C36.1521 171.864 35.1134 182.903 41.7637 193.014C41.8185 193.098 41.8378 193.2 41.8174 193.299C41.797 193.397 41.7386 193.483 41.6548 193.538C41.5944 193.582 41.5219 193.607 41.447 193.609Z" fill="black"/>
<path d="M220.246 119.166C220.573 110.311 219.759 103.575 214.885 103.501C207.046 103.387 208.498 119.578 197.254 124.696C190.809 127.63 185.669 136.548 188.022 143.421C190.376 150.294 219.856 129.778 220.246 119.166Z" fill="#FFCDB2"/>
<path d="M190.42 145.179C188.634 145.179 187.932 144.328 187.664 143.545C185.176 136.287 190.704 127.268 197.098 124.352C202.776 121.768 205.127 116.321 207.202 111.515C209.145 107.013 210.827 103.121 214.802 103.121H214.893C215.501 103.117 216.102 103.237 216.661 103.476C217.219 103.714 217.722 104.065 218.139 104.507C220.166 106.635 220.925 111.16 220.627 119.178C220.414 124.952 212.466 132.213 209.059 135.068C202.619 140.462 195.54 144.495 191.446 145.098C191.107 145.151 190.764 145.178 190.42 145.179ZM214.802 103.884C211.326 103.884 209.814 107.39 207.901 111.819C205.773 116.749 203.358 122.34 197.412 125.046C191.299 127.833 186.012 136.408 188.383 143.302C188.705 144.239 189.698 144.589 191.332 144.351C195.3 143.763 202.226 139.791 208.56 134.488C215.491 128.679 219.707 122.948 219.856 119.153C220.049 113.904 219.965 107.552 217.576 105.034C217.231 104.664 216.812 104.371 216.347 104.173C215.881 103.975 215.379 103.876 214.873 103.884H214.802Z" fill="black"/>
<path d="M114.288 202.981H224.648V113.466L114.288 113.466L114.288 202.981Z" fill="white"/>
<path d="M224.651 113.469V202.987H114.291V113.469H224.651ZM224.651 112.709H114.291C114.09 112.709 113.896 112.789 113.754 112.932C113.611 113.074 113.531 113.267 113.531 113.469V202.987C113.531 203.188 113.611 203.381 113.754 203.524C113.896 203.666 114.09 203.747 114.291 203.747H224.651C224.853 203.747 225.047 203.666 225.189 203.524C225.332 203.381 225.411 203.188 225.411 202.987V113.469C225.411 113.267 225.332 113.074 225.189 112.932C225.047 112.789 224.853 112.709 224.651 112.709Z" fill="black"/>
<path d="M121.323 193.306H217.93V121.497L121.323 121.497L121.323 193.306Z" fill="#4BD657"/>
<path d="M217.933 121.497V193.306H121.326V121.497H217.933ZM217.933 120.737H121.326C121.125 120.737 120.932 120.817 120.789 120.96C120.647 121.102 120.566 121.296 120.566 121.497V193.306C120.566 193.507 120.647 193.701 120.789 193.843C120.932 193.986 121.125 194.066 121.326 194.066H217.933C218.134 194.066 218.327 193.986 218.47 193.843C218.613 193.701 218.693 193.507 218.693 193.306V121.497C218.693 121.296 218.613 121.102 218.47 120.96C218.327 120.817 218.134 120.737 217.933 120.737Z" fill="black"/>
<path d="M225.019 202.982L117.6 202.982C114.959 202.982 112.427 201.933 110.56 200.066C108.693 198.199 107.644 195.667 107.644 193.026L234.988 193.026C234.988 194.334 234.73 195.63 234.229 196.839C233.728 198.048 232.994 199.146 232.068 200.071C231.142 200.995 230.042 201.729 228.833 202.228C227.624 202.728 226.328 202.984 225.019 202.982Z" fill="white"/>
<path d="M234.976 193.019C234.976 195.66 233.927 198.192 232.06 200.06C230.193 201.928 227.66 202.977 225.019 202.978H117.588C114.947 202.977 112.414 201.928 110.547 200.06C108.68 198.192 107.631 195.66 107.631 193.019H234.976ZM235.736 192.259H106.871V193.019C106.874 195.86 108.005 198.584 110.014 200.594C112.023 202.603 114.746 203.734 117.588 203.738H225.019C227.861 203.734 230.585 202.603 232.594 200.594C234.603 198.584 235.733 195.86 235.736 193.019V192.259Z" fill="black"/>
<path d="M200.142 143.633H184.584C180.868 143.633 177.855 146.645 177.855 150.362V163.941C177.855 167.657 180.868 170.67 184.584 170.67H200.142C203.859 170.67 206.871 167.657 206.871 163.941V150.362C206.871 146.645 203.859 143.633 200.142 143.633Z" fill="#382256"/>
<path d="M200.142 143.633C201.927 143.633 203.639 144.342 204.901 145.604C206.163 146.866 206.873 148.577 206.874 150.362V163.939C206.873 165.724 206.163 167.436 204.901 168.698C203.639 169.96 201.927 170.67 200.142 170.67H184.586C182.802 170.67 181.09 169.96 179.828 168.698C178.566 167.435 177.858 165.724 177.858 163.939V150.362C177.858 148.577 178.567 146.866 179.829 145.604C181.09 144.342 182.802 143.633 184.586 143.633H200.142ZM200.142 142.873H184.586C182.601 142.875 180.697 143.665 179.293 145.069C177.889 146.473 177.1 148.376 177.098 150.362V163.939C177.1 165.925 177.889 167.829 179.293 169.233C180.697 170.637 182.601 171.428 184.586 171.43H200.142C202.128 171.428 204.032 170.637 205.436 169.233C206.841 167.829 207.631 165.925 207.634 163.939V150.362C207.631 148.376 206.841 146.472 205.436 145.069C204.032 143.665 202.128 142.875 200.142 142.873Z" fill="black"/>
<path d="M167.871 145.453H131.044C130.943 145.453 130.847 145.413 130.775 145.342C130.704 145.271 130.664 145.174 130.664 145.073C130.664 144.973 130.704 144.876 130.775 144.805C130.847 144.733 130.943 144.693 131.044 144.693H167.871C167.971 144.693 168.068 144.733 168.139 144.805C168.211 144.876 168.251 144.973 168.251 145.073C168.251 145.174 168.211 145.271 168.139 145.342C168.068 145.413 167.971 145.453 167.871 145.453Z" fill="black"/>
<path d="M167.023 155.368L131.048 154.519C130.947 154.519 130.85 154.479 130.779 154.407C130.708 154.336 130.668 154.24 130.668 154.139C130.668 154.038 130.708 153.941 130.779 153.87C130.85 153.799 130.947 153.759 131.048 153.759L167.023 154.607C167.124 154.607 167.221 154.648 167.292 154.719C167.363 154.79 167.403 154.887 167.403 154.987C167.403 155.088 167.363 155.185 167.292 155.256C167.221 155.327 167.124 155.368 167.023 155.368Z" fill="black"/>
<path d="M167.874 166.699H144.079C143.978 166.699 143.882 166.658 143.811 166.587C143.739 166.516 143.699 166.419 143.699 166.318C143.699 166.218 143.739 166.121 143.811 166.05C143.882 165.978 143.978 165.938 144.079 165.938H167.874C167.974 165.938 168.071 165.978 168.142 166.05C168.213 166.121 168.254 166.218 168.254 166.318C168.254 166.419 168.213 166.516 168.142 166.587C168.071 166.658 167.974 166.699 167.874 166.699Z" fill="black"/>
<path d="M105.836 118.535C105.745 118.535 105.656 118.502 105.587 118.442C105.518 118.382 105.472 118.299 105.459 118.208C104.848 113.848 105.631 110.659 107.782 108.723C111.344 105.518 117.29 106.95 117.543 107.023C117.641 107.048 117.725 107.11 117.777 107.196C117.829 107.283 117.844 107.386 117.82 107.484C117.795 107.582 117.733 107.666 117.646 107.718C117.56 107.77 117.456 107.785 117.359 107.76C117.3 107.745 111.547 106.357 108.286 109.28C106.338 111.036 105.639 114 106.211 118.092C106.219 118.141 106.216 118.192 106.203 118.24C106.191 118.288 106.169 118.334 106.14 118.374C106.11 118.414 106.072 118.448 106.029 118.473C105.986 118.499 105.939 118.515 105.889 118.522L105.836 118.535Z" fill="black"/>
<path d="M122.224 117.385C122.123 117.385 122.026 117.345 121.955 117.273C121.884 117.202 121.844 117.105 121.844 117.005C121.844 116.904 121.884 116.807 121.955 116.736C122.026 116.665 122.123 116.625 122.224 116.625L158.199 116.341C158.3 116.341 158.397 116.381 158.468 116.452C158.539 116.523 158.579 116.62 158.579 116.721C158.579 116.822 158.539 116.918 158.468 116.99C158.397 117.061 158.3 117.101 158.199 117.101L122.224 117.385Z" fill="white"/>
<path d="M226.47 198.403H185.681C185.58 198.403 185.483 198.363 185.412 198.291C185.341 198.22 185.301 198.123 185.301 198.023C185.301 197.922 185.341 197.825 185.412 197.754C185.483 197.683 185.58 197.643 185.681 197.643H226.47C226.57 197.643 226.667 197.683 226.738 197.754C226.81 197.825 226.85 197.922 226.85 198.023C226.85 198.123 226.81 198.22 226.738 198.291C226.667 198.363 226.57 198.403 226.47 198.403Z" fill="white"/>
<path d="M174.911 151.095C174.862 151.094 174.812 151.084 174.767 151.064C174.721 151.044 174.68 151.015 174.645 150.979C174.61 150.943 174.583 150.9 174.565 150.854C174.547 150.807 174.538 150.758 174.539 150.708C174.635 145.641 176.006 142.127 178.608 140.29C182.003 137.891 186.193 139.249 186.37 139.307C186.466 139.341 186.544 139.411 186.588 139.502C186.631 139.593 186.637 139.698 186.604 139.794C186.57 139.889 186.5 139.967 186.409 140.011C186.317 140.055 186.212 140.06 186.117 140.027C186.076 140.027 182.104 138.737 179.023 140.913C176.632 142.606 175.373 145.907 175.281 150.723C175.279 150.821 175.24 150.914 175.171 150.983C175.102 151.053 175.009 151.093 174.911 151.095Z" fill="black"/>
<path d="M184.872 167.205C184.643 167.204 184.424 167.113 184.261 166.952C184.176 166.872 184.109 166.776 184.061 166.669C184.014 166.563 183.988 166.448 183.985 166.332C183.982 166.215 184.002 166.099 184.043 165.991C184.085 165.882 184.148 165.782 184.228 165.698L200.376 148.703C200.455 148.614 200.552 148.542 200.659 148.491C200.767 148.439 200.883 148.41 201.002 148.405C201.121 148.4 201.24 148.419 201.352 148.461C201.463 148.502 201.565 148.566 201.652 148.648C201.738 148.73 201.807 148.829 201.854 148.938C201.901 149.048 201.926 149.165 201.927 149.284C201.928 149.404 201.905 149.522 201.859 149.632C201.813 149.742 201.746 149.841 201.661 149.925L185.515 166.922C185.433 167.01 185.333 167.081 185.222 167.13C185.112 167.178 184.993 167.204 184.872 167.205Z" fill="white"/>
<path d="M201.016 167.206C200.789 167.201 200.572 167.111 200.41 166.952L182.281 149.955C182.109 149.794 182.008 149.572 182 149.337C181.993 149.102 182.079 148.873 182.24 148.701C182.401 148.53 182.623 148.429 182.858 148.421C183.094 148.414 183.322 148.5 183.494 148.661L201.623 165.658C201.754 165.779 201.845 165.938 201.884 166.111C201.923 166.285 201.909 166.467 201.843 166.633C201.777 166.799 201.663 166.941 201.516 167.041C201.368 167.141 201.194 167.194 201.016 167.193V167.206Z" fill="white"/>
<path d="M206.113 175.764H193.083C192.982 175.764 192.886 175.724 192.814 175.653C192.743 175.581 192.703 175.485 192.703 175.384C192.703 175.283 192.743 175.187 192.814 175.115C192.886 175.044 192.982 175.004 193.083 175.004H206.113C206.214 175.004 206.31 175.044 206.382 175.115C206.453 175.187 206.493 175.283 206.493 175.384C206.493 175.485 206.453 175.581 206.382 175.653C206.31 175.724 206.214 175.764 206.113 175.764Z" fill="black"/>
<path d="M101.546 84.4272C86.533 98.5919 66.0904 98.8984 47.8646 157.373C40.3351 181.527 48.4372 193.333 55.2295 198.448C64.4791 205.41 112.351 207.394 113.585 189.384L121.517 189.1L123.782 166.719H117.55C117.55 166.719 114.857 157.011 103.287 155.825C83.7409 153.844 68.5429 162.744 65.9942 163.593" fill="#07ACEE"/>
<path d="M81.5297 203.868C70.0303 203.868 58.9818 201.744 55.0018 198.752C48.8201 194.098 39.6288 182.521 47.5028 157.259C53.7959 137.07 60.9074 122.021 69.2451 111.254C76.5465 101.825 83.8808 96.8514 90.3513 92.4634C94.2325 89.8337 97.896 87.3484 101.286 84.1511C101.359 84.0844 101.456 84.0492 101.556 84.053C101.655 84.0569 101.749 84.0995 101.817 84.1718C101.885 84.244 101.923 84.3402 101.921 84.4395C101.919 84.5389 101.878 84.6336 101.808 84.7034C98.3747 87.9437 94.6834 90.4443 90.7768 93.0943C77.4179 102.151 62.2753 112.42 48.2272 157.485C40.4925 182.313 49.4382 193.612 55.4577 198.144C58.7994 200.66 67.3853 202.568 77.3292 203.004C88.3852 203.487 98.4405 202.069 104.914 199.112C110.138 196.726 112.927 193.442 113.206 189.356C113.213 189.262 113.254 189.174 113.322 189.109C113.39 189.044 113.479 189.007 113.573 189.004L121.173 188.733L123.362 167.099H117.551C117.468 167.1 117.387 167.073 117.322 167.023C117.256 166.973 117.208 166.903 117.186 166.823C117.158 166.727 114.412 157.348 103.252 156.216C86.6803 154.533 73.1616 160.776 68.0719 163.114C67.1649 163.532 66.5113 163.834 66.1186 163.965C66.0712 163.981 66.0212 163.988 65.9714 163.984C65.9215 163.98 65.8728 163.967 65.8281 163.945C65.7834 163.922 65.7436 163.891 65.7108 163.854C65.6781 163.816 65.6532 163.772 65.6374 163.725C65.6216 163.677 65.6153 163.627 65.6188 163.577C65.6224 163.528 65.6356 163.479 65.6579 163.434C65.6803 163.389 65.7112 163.35 65.7489 163.317C65.7867 163.284 65.8307 163.259 65.8781 163.243C66.2328 163.124 66.8685 162.83 67.7527 162.425C72.8931 160.054 86.551 153.758 103.328 155.458C113.907 156.532 117.262 164.718 117.829 166.352H123.785C123.839 166.352 123.892 166.363 123.941 166.385C123.99 166.407 124.033 166.439 124.069 166.479C124.105 166.518 124.131 166.565 124.148 166.615C124.165 166.666 124.171 166.719 124.165 166.772L121.885 189.151C121.876 189.242 121.833 189.327 121.766 189.389C121.7 189.452 121.612 189.489 121.521 189.493L113.92 189.764C113.495 193.989 110.566 197.364 105.215 199.817C98.922 202.684 90.1004 203.868 81.5297 203.868Z" fill="black"/>
<path d="M112.168 190.947C112.282 184.36 115.938 172.498 117.645 167.31H122.933L120.787 188.502L113.275 188.771C112.957 189.521 112.587 190.248 112.168 190.947Z" fill="#0598C6"/>
<path d="M94.9075 105.893C96.0129 105.893 96.9091 104.997 96.9091 103.892C96.9091 102.786 96.0129 101.89 94.9075 101.89C93.8022 101.89 92.9062 102.786 92.9062 103.892C92.9062 104.997 93.8022 105.893 94.9075 105.893Z" fill="#51CEF4"/>
<path d="M74.2281 134.504C75.3335 134.504 76.2294 133.608 76.2294 132.502C76.2294 131.397 75.3335 130.501 74.2281 130.501C73.1227 130.501 72.2266 131.397 72.2266 132.502C72.2266 133.608 73.1227 134.504 74.2281 134.504Z" fill="#51CEF4"/>
<path d="M92.9273 146.969C94.0327 146.969 94.9286 146.073 94.9286 144.967C94.9286 143.862 94.0327 142.966 92.9273 142.966C91.822 142.966 90.9258 143.862 90.9258 144.967C90.9258 146.073 91.822 146.969 92.9273 146.969Z" fill="#51CEF4"/>
<path d="M52.982 157.732C54.0874 157.732 54.9835 156.836 54.9835 155.731C54.9835 154.626 54.0874 153.729 52.982 153.729C51.8766 153.729 50.9805 154.626 50.9805 155.731C50.9805 156.836 51.8766 157.732 52.982 157.732Z" fill="#51CEF4"/>
<path d="M72.2437 190.024C73.3491 190.024 74.245 189.128 74.245 188.023C74.245 186.918 73.3491 186.021 72.2437 186.021C71.1384 186.021 70.2422 186.918 70.2422 188.023C70.2422 189.128 71.1384 190.024 72.2437 190.024Z" fill="#51CEF4"/>
<path d="M90.9429 174.446C92.0483 174.446 92.9442 173.55 92.9442 172.445C92.9442 171.339 92.0483 170.443 90.9429 170.443C89.8376 170.443 88.9414 171.339 88.9414 172.445C88.9414 173.55 89.8376 174.446 90.9429 174.446Z" fill="#51CEF4"/>
<path d="M94.9075 193.141C96.0129 193.141 96.9091 192.245 96.9091 191.139C96.9091 190.034 96.0129 189.138 94.9075 189.138C93.8022 189.138 92.9062 190.034 92.9062 191.139C92.9062 192.245 93.8022 193.141 94.9075 193.141Z" fill="#51CEF4"/>
<path d="M66.1354 167.809C66.0498 167.809 65.9665 167.781 65.8992 167.728C65.8318 167.675 65.7843 167.601 65.7643 167.518C65.7444 167.434 65.7532 167.347 65.7893 167.269C65.8254 167.191 65.8867 167.128 65.9633 167.09C79.9505 160.024 88.6099 159.236 93.4108 159.829C98.7108 160.477 100.631 162.843 100.71 162.945C100.743 162.984 100.769 163.029 100.784 163.078C100.8 163.127 100.806 163.178 100.801 163.229C100.796 163.28 100.781 163.33 100.756 163.375C100.732 163.42 100.699 163.46 100.658 163.492C100.618 163.524 100.572 163.547 100.522 163.56C100.473 163.574 100.421 163.577 100.37 163.57C100.319 163.563 100.27 163.546 100.226 163.519C100.182 163.493 100.144 163.458 100.114 163.416C100.094 163.388 98.247 161.159 93.2156 160.571C88.5236 160.021 80.0416 160.824 66.3076 167.769C66.2542 167.795 66.1953 167.809 66.1354 167.809Z" fill="white"/>
<path d="M123.682 166.885C123.682 166.885 132.947 139.523 142.78 156.039L158.946 153.792C158.946 153.792 165.517 160.412 153.625 166.304C153.625 166.304 154.922 172.245 151.279 176.517C151.279 176.517 154.231 180.824 145.635 186.719C137.039 192.614 122.094 189.04 122.094 189.04L123.682 166.885Z" fill="#FFCDB2"/>
<path d="M132.079 190.517C128.695 190.509 125.321 190.137 122.017 189.407C121.929 189.386 121.852 189.335 121.799 189.263C121.746 189.19 121.721 189.101 121.728 189.012L123.316 166.857C123.319 166.825 123.326 166.793 123.337 166.763C123.552 166.124 128.71 151.114 135.631 150.384C138.228 150.11 140.698 151.874 142.978 155.628L158.899 153.417C158.957 153.408 159.017 153.414 159.073 153.433C159.129 153.451 159.179 153.483 159.22 153.526C159.317 153.622 161.594 155.96 161.06 159.17C160.604 161.916 158.248 164.386 154.052 166.517C154.265 167.784 154.85 172.717 151.739 176.562C152.263 177.614 153.583 181.726 145.849 187.036C141.869 189.764 136.624 190.517 132.079 190.517ZM122.508 188.743C124.694 189.207 137.752 191.682 145.431 186.41C153.568 180.821 151.086 176.899 150.974 176.737C150.928 176.668 150.906 176.585 150.91 176.502C150.915 176.419 150.946 176.34 150.999 176.276C154.475 172.202 153.28 166.446 153.264 166.396C153.247 166.313 153.257 166.226 153.294 166.15C153.33 166.073 153.391 166.011 153.467 165.972C157.586 163.946 159.892 161.607 160.307 159.064C160.713 156.647 159.243 154.724 158.787 154.207L142.826 156.426C142.753 156.436 142.677 156.424 142.61 156.391C142.543 156.359 142.487 156.308 142.449 156.244C140.29 152.619 138.015 150.903 135.695 151.149C129.429 151.81 124.373 166.056 124.041 166.973L122.508 188.743Z" fill="black"/>
<path d="M137.467 157.668C137.366 157.679 137.265 157.649 137.186 157.586C137.107 157.522 137.056 157.43 137.045 157.329C137.034 157.229 137.064 157.127 137.127 157.048C137.191 156.969 137.283 156.919 137.383 156.907L142.704 155.671C142.8 155.652 142.901 155.671 142.983 155.725C143.066 155.778 143.125 155.862 143.147 155.958C143.169 156.054 143.154 156.155 143.103 156.239C143.053 156.324 142.971 156.385 142.876 156.411L137.556 157.647C137.527 157.658 137.497 157.665 137.467 157.668Z" fill="black"/>
<path d="M141.243 170.38C140.666 170.385 140.09 170.355 139.518 170.291C139.417 170.278 139.325 170.226 139.263 170.145C139.201 170.065 139.174 169.963 139.187 169.862C139.2 169.761 139.252 169.67 139.333 169.608C139.414 169.546 139.516 169.518 139.616 169.531C139.687 169.531 146.71 170.398 153.297 165.911C153.338 165.879 153.385 165.855 153.435 165.842C153.486 165.828 153.538 165.826 153.59 165.833C153.641 165.841 153.691 165.86 153.735 165.887C153.779 165.915 153.817 165.952 153.846 165.995C153.876 166.038 153.896 166.086 153.906 166.137C153.916 166.189 153.915 166.241 153.904 166.292C153.892 166.343 153.871 166.391 153.84 166.433C153.809 166.475 153.77 166.51 153.725 166.537C150.038 169.028 145.693 170.366 141.243 170.38Z" fill="black"/>
<path d="M140.12 180.172C139.302 180.172 138.777 180.132 138.696 180.124C138.646 180.12 138.598 180.106 138.553 180.083C138.509 180.06 138.469 180.028 138.437 179.99C138.405 179.951 138.38 179.907 138.365 179.859C138.35 179.811 138.345 179.761 138.349 179.711C138.359 179.611 138.408 179.519 138.486 179.455C138.563 179.39 138.662 179.359 138.762 179.366C138.841 179.366 146.679 180 151.247 175.959C151.284 175.926 151.328 175.9 151.375 175.884C151.422 175.867 151.472 175.86 151.522 175.863C151.572 175.866 151.621 175.878 151.666 175.9C151.711 175.922 151.751 175.952 151.784 175.989C151.818 176.027 151.843 176.07 151.859 176.117C151.876 176.164 151.883 176.214 151.88 176.264C151.877 176.314 151.865 176.363 151.843 176.408C151.821 176.453 151.791 176.493 151.754 176.526C148.103 179.757 142.679 180.172 140.12 180.172Z" fill="black"/>
<path d="M134.962 188.611C131.712 188.611 129.69 187.611 129.604 187.568C129.514 187.522 129.445 187.443 129.414 187.347C129.382 187.251 129.39 187.147 129.435 187.057C129.481 186.967 129.56 186.899 129.656 186.867C129.751 186.835 129.856 186.843 129.946 186.889C130.037 186.934 138.23 190.879 147.933 182.268C147.971 182.234 148.014 182.209 148.061 182.192C148.109 182.176 148.158 182.169 148.208 182.172C148.258 182.174 148.307 182.187 148.352 182.209C148.397 182.23 148.437 182.261 148.471 182.298C148.504 182.335 148.529 182.379 148.546 182.426C148.562 182.473 148.569 182.523 148.567 182.573C148.564 182.623 148.551 182.671 148.529 182.716C148.508 182.761 148.477 182.802 148.44 182.835C143.165 187.514 138.342 188.558 135.223 188.609L134.962 188.611Z" fill="white"/>
<path d="M139.717 178.166C139.365 178.166 139.142 178.166 139.086 178.166C139.037 178.165 138.988 178.153 138.942 178.133C138.897 178.113 138.856 178.084 138.821 178.047C138.787 178.011 138.761 177.968 138.743 177.922C138.726 177.875 138.717 177.826 138.719 177.776C138.72 177.726 138.73 177.676 138.751 177.63C138.771 177.584 138.8 177.543 138.837 177.508C138.874 177.474 138.917 177.447 138.964 177.43C139.011 177.413 139.061 177.406 139.112 177.408C139.215 177.408 149.415 177.705 151.359 173.487C151.377 173.438 151.405 173.394 151.442 173.357C151.478 173.319 151.522 173.29 151.57 173.27C151.618 173.251 151.67 173.241 151.722 173.242C151.774 173.243 151.825 173.255 151.872 173.277C151.919 173.299 151.962 173.33 151.996 173.369C152.031 173.407 152.058 173.453 152.074 173.502C152.091 173.551 152.097 173.604 152.092 173.655C152.088 173.707 152.072 173.758 152.048 173.803C150.173 177.864 142.076 178.166 139.717 178.166Z" fill="white"/>
<path d="M141.428 167.996C141.379 167.999 141.328 167.992 141.281 167.976C141.234 167.96 141.19 167.935 141.153 167.902C141.115 167.869 141.084 167.829 141.062 167.784C141.04 167.739 141.027 167.69 141.024 167.64C141.021 167.59 141.028 167.54 141.044 167.493C141.06 167.445 141.085 167.402 141.118 167.364C141.152 167.327 141.192 167.296 141.237 167.274C141.282 167.252 141.33 167.239 141.38 167.236C141.509 167.221 154.187 165.559 157.594 159.932C157.619 159.887 157.653 159.848 157.693 159.817C157.734 159.786 157.78 159.763 157.83 159.75C157.879 159.737 157.931 159.734 157.981 159.741C158.032 159.749 158.08 159.766 158.124 159.793C158.167 159.819 158.205 159.855 158.235 159.896C158.265 159.938 158.286 159.985 158.297 160.035C158.308 160.085 158.309 160.136 158.3 160.186C158.29 160.237 158.271 160.285 158.243 160.327C154.638 166.268 142.003 167.928 141.469 167.991L141.428 167.996Z" fill="white"/>
<path d="M117.389 39.3001C123.295 39.3001 128.083 34.5123 128.083 28.6063C128.083 22.7003 123.295 17.9126 117.389 17.9126C111.483 17.9126 106.695 22.7003 106.695 28.6063C106.695 34.5123 111.483 39.3001 117.389 39.3001Z" fill="#382256"/>
<path d="M117.387 17.9104C119.762 17.912 122.069 18.7037 123.944 20.1608C125.819 21.6179 127.155 23.6575 127.743 25.9581C128.331 28.2588 128.137 30.6898 127.191 32.8678C126.245 35.0459 124.601 36.8472 122.518 37.988C120.436 39.1287 118.033 39.5439 115.688 39.1683C113.343 38.7926 111.19 37.6475 109.568 35.9132C107.946 34.1789 106.947 31.9541 106.729 29.5896C106.511 27.225 107.086 24.8551 108.363 22.8532C109.328 21.3347 110.661 20.085 112.239 19.2208C113.817 18.3565 115.588 17.9057 117.387 17.9104ZM117.387 17.1504C114.629 17.1473 111.963 18.1391 109.878 19.9438C107.792 21.7485 106.428 24.2449 106.035 26.9747C105.642 29.7044 106.247 32.4843 107.739 34.8038C109.231 37.1234 111.509 38.8269 114.156 39.6017C116.803 40.3764 119.64 40.1704 122.147 39.0214C124.654 37.8724 126.663 35.8576 127.804 33.3468C128.945 30.8361 129.142 27.998 128.359 25.3536C127.576 22.7093 125.865 20.4362 123.541 18.9517C121.704 17.7749 119.569 17.1497 117.387 17.1504Z" fill="black"/>
<path d="M143.734 64.7014C143.734 64.7014 151.786 59.0315 149.308 52.067C146.83 45.1025 145.041 45.5002 143.988 41.7456C142.934 37.991 136.815 33.707 130.725 34.8167C130.725 34.8167 123.948 28.5666 117.135 29.6028C110.323 30.6389 107.686 33.5651 105.266 38.5586C102.847 43.552 100.734 45.6523 98.9121 49.113C97.0905 52.5737 93.8908 62.4567 107.229 71.3467C120.568 80.2366 143.734 64.7014 143.734 64.7014Z" fill="#382256"/>
<path d="M118.695 29.486C124.945 29.486 130.727 34.8063 130.727 34.8063C131.384 34.6864 132.052 34.6262 132.72 34.6264C138.094 34.6264 143.042 38.3912 143.989 41.7354C145.053 45.49 146.844 45.0947 149.309 52.0567C151.775 59.0187 143.736 64.6911 143.736 64.6911C143.736 64.6911 129.726 74.0852 117.223 74.0852C113.646 74.0852 110.19 73.3251 107.223 71.3363C93.8848 62.4464 97.0896 52.5532 98.9061 49.1026C100.723 45.6521 102.843 43.529 105.26 38.5482C107.677 33.5674 110.327 30.6261 117.129 29.5924C117.645 29.5135 118.166 29.4746 118.687 29.4759L118.695 29.486ZM118.687 28.7158C118.128 28.7147 117.569 28.7562 117.015 28.84C109.886 29.9218 107.056 33.0962 104.576 38.2138C103.47 40.472 102.189 42.6398 100.743 44.697C99.8311 45.9998 98.9939 47.3532 98.2349 48.7505C96.6925 51.6807 96.1304 55.0284 96.6312 58.3017C97.4444 63.4167 100.867 68.015 106.803 71.9824C109.663 73.8901 113.169 74.8579 117.223 74.8579C123.81 74.8579 130.798 72.2636 135.487 70.0899C138.487 68.713 141.385 67.1238 144.159 65.3346H144.174C145.648 64.2367 146.957 62.933 148.061 61.4634C150.45 58.2561 151.129 54.9245 150.026 51.8363C148.618 47.8688 147.414 46.2145 146.447 44.8844C145.687 43.8508 145.15 43.111 144.714 41.5605C143.7 37.9376 138.507 33.9018 132.713 33.8993C132.119 33.8991 131.526 33.9432 130.939 34.031C129.673 32.9391 124.428 28.7488 118.675 28.7488L118.687 28.7158Z" fill="black"/>
<path d="M118.234 54.8386H118.202C113.451 54.413 109.307 49.3587 109.132 49.1434C109.068 49.0651 109.038 48.9648 109.049 48.8646C109.059 48.7643 109.109 48.6723 109.187 48.6088C109.266 48.5453 109.366 48.5155 109.466 48.526C109.567 48.5364 109.659 48.5862 109.722 48.6645C109.763 48.7152 113.842 53.6834 118.268 54.0811C118.368 54.0855 118.463 54.1297 118.531 54.204C118.6 54.2784 118.635 54.3768 118.631 54.4776C118.627 54.5784 118.582 54.6733 118.508 54.7414C118.434 54.8096 118.335 54.8455 118.234 54.8411V54.8386Z" fill="black"/>
<path d="M118.146 51.7655C117.066 51.7593 115.992 51.6085 114.952 51.3171C114.854 51.2902 114.771 51.2257 114.721 51.1378C114.672 51.0499 114.659 50.9458 114.686 50.8484C114.712 50.751 114.777 50.6682 114.865 50.6183C114.953 50.5684 115.057 50.5555 115.154 50.5824C124.201 53.0601 127.976 43.9954 128.133 43.6179C128.152 43.5716 128.18 43.5295 128.215 43.494C128.25 43.4585 128.292 43.4302 128.338 43.4108C128.384 43.3914 128.433 43.3812 128.483 43.3809C128.533 43.3805 128.582 43.3901 128.629 43.4089C128.675 43.4277 128.717 43.4554 128.753 43.4905C128.788 43.5255 128.816 43.5673 128.836 43.6132C128.855 43.6592 128.865 43.7086 128.866 43.7585C128.866 43.8084 128.856 43.8579 128.838 43.9041C128.787 43.9928 125.564 51.7655 118.146 51.7655Z" fill="white"/>
<path d="M123.36 76.7773C123.36 76.7773 140.922 93.4982 115.993 90.6582C115.993 90.6582 110.895 98.8743 102.112 94.3419C93.3282 89.8095 97.2981 81.5935 103.528 79.6098C108.934 77.8896 123.36 76.7773 123.36 76.7773Z" fill="white"/>
<path d="M107.253 96.0801C105.392 96.0499 103.567 95.5691 101.933 94.6791C98.2667 92.7866 96.392 90.0378 96.6529 86.9394C96.9366 83.5876 99.7134 80.4233 103.407 79.2477C108.793 77.5351 122.732 76.4457 123.323 76.4001C123.376 76.3959 123.429 76.4029 123.479 76.4208C123.53 76.4387 123.576 76.4671 123.614 76.504C123.933 76.8081 131.417 84.0005 129.39 88.3378C128.159 90.9752 123.713 91.8847 116.173 91.0613C115.502 92.024 112.343 96.0801 107.253 96.0801ZM123.214 77.1703C121.572 77.302 108.629 78.3864 103.643 79.9723C100.288 81.0415 97.6688 83.998 97.4154 87.0027C97.1823 89.7768 98.9101 92.2621 102.285 94.0026C105.799 95.8166 109.125 95.7761 112.142 93.8785C113.539 92.991 114.739 91.8271 115.669 90.4583C115.706 90.3969 115.761 90.3475 115.825 90.3161C115.89 90.2846 115.962 90.2724 116.034 90.281C123.249 91.1018 127.632 90.319 128.701 88.0161C130.378 84.4439 124.169 78.1102 123.214 77.1703Z" fill="black"/>
<path d="M106.839 18.4098C106.778 18.4091 106.719 18.3941 106.665 18.3659C106.612 18.3377 106.566 18.2972 106.531 18.2477C106.496 18.1983 106.473 18.1413 106.465 18.0814C106.456 18.0214 106.462 17.9604 106.482 17.9032C107.353 15.4508 108.8 13.7356 110.789 12.8033C114.275 11.1616 118.135 12.5348 118.298 12.5956C118.386 12.6341 118.456 12.7046 118.494 12.7927C118.532 12.8808 118.535 12.98 118.503 13.0705C118.471 13.161 118.406 13.236 118.321 13.2804C118.236 13.3248 118.137 13.3354 118.044 13.31C118.009 13.2948 114.313 11.9849 111.115 13.4949C109.327 14.3385 108.014 15.9068 107.216 18.159C107.188 18.2354 107.136 18.3008 107.068 18.3458C107 18.3909 106.92 18.4133 106.839 18.4098Z" fill="black"/>
<path d="M110.307 25.6227C110.241 25.6229 110.176 25.6058 110.119 25.5733C110.061 25.5407 110.013 25.4937 109.979 25.4369C109.946 25.3801 109.927 25.3155 109.926 25.2495C109.925 25.1834 109.941 25.1182 109.973 25.0603C111.282 22.6307 112.997 21.146 115.075 20.6495C118.439 19.8438 121.485 21.9162 121.614 22.0125C121.697 22.0699 121.753 22.158 121.772 22.2573C121.79 22.3566 121.768 22.459 121.71 22.542C121.653 22.625 121.565 22.6817 121.465 22.6998C121.366 22.7178 121.264 22.6957 121.181 22.6382C121.153 22.618 118.272 20.6622 115.245 21.3918C113.39 21.8377 111.842 23.1931 110.641 25.4225C110.609 25.4828 110.56 25.5332 110.502 25.5684C110.443 25.6036 110.375 25.6223 110.307 25.6227Z" fill="white"/>
<path d="M122.382 79.3011V83.5497C122.382 83.5497 115.017 94.5982 100.848 85.5335C100.848 85.5335 107.795 75.5466 111.514 63.695C111.514 63.695 106.272 62.2712 107.346 57.5741C108.42 52.8771 112.276 52.2538 114.463 53.6574C114.463 53.6574 122.952 60.2317 132.848 42.3252C132.848 42.3252 142.012 46.6321 143.466 56.4088C144.92 66.1854 142.452 77.287 134.852 80.1346C127.252 82.9823 122.382 79.3011 122.382 79.3011Z" fill="#FFCDB2"/>
<path d="M132.852 42.3255C132.852 42.3255 142.015 46.6324 143.47 56.409C144.924 66.1857 142.456 77.2873 134.856 80.1349C133.046 80.8336 131.126 81.1993 129.186 81.2142C124.922 81.2142 122.378 79.3014 122.378 79.3014V83.55C122.378 83.55 118.675 89.106 111.469 89.106C108.513 89.106 104.969 88.1711 100.849 85.5337C100.849 85.5337 107.796 75.5468 111.515 63.6953C111.515 63.6953 106.273 62.2714 107.347 57.5744C108.107 54.2809 110.213 53.0015 112.161 53.0015C112.974 52.9986 113.772 53.2261 114.461 53.6577C114.461 53.6577 115.982 54.8358 118.49 54.8358C121.902 54.8358 127.141 52.6519 132.847 42.3255H132.852ZM132.847 41.5654C132.711 41.5653 132.577 41.6016 132.46 41.6707C132.343 41.7398 132.246 41.839 132.181 41.9581C126.647 51.9729 121.679 54.0757 118.5 54.0757C117.236 54.1004 115.994 53.7476 114.933 53.0623L114.88 53.0243C114.068 52.5166 113.129 52.248 112.171 52.2491C110.056 52.2491 107.487 53.6045 106.615 57.4123C106.109 59.6367 106.777 61.5672 108.561 62.9859C109.178 63.4706 109.86 63.8663 110.588 64.1614C106.899 75.4581 100.312 84.9992 100.244 85.098C100.186 85.1821 100.145 85.2771 100.125 85.3772C100.104 85.4773 100.104 85.5806 100.125 85.6807C100.144 85.7809 100.184 85.876 100.242 85.9605C100.299 86.0449 100.373 86.1169 100.459 86.1722C104.287 88.622 107.999 89.8635 111.49 89.8635C119.014 89.8635 122.87 84.2113 123.03 83.9706C123.114 83.8455 123.159 83.6982 123.159 83.5475V80.6214C125.045 81.5271 127.114 81.9889 129.206 81.9717C131.237 81.9549 133.249 81.573 135.145 80.8443C138.894 79.4357 141.714 76.0636 143.295 71.0955C144.675 66.7557 145.013 61.4988 144.237 56.295C143.619 52.1275 141.514 48.2716 138.157 45.1478C136.679 43.7487 135.01 42.5672 133.199 41.6389C133.099 41.5901 132.989 41.5649 132.877 41.5654H132.847Z" fill="black"/>
<path d="M122.524 80.1071C122.483 80.1066 122.442 80.0997 122.403 80.0868C118.096 78.6453 114.952 74.1003 114.82 73.9077C114.763 73.8244 114.742 73.7219 114.761 73.6228C114.779 73.5238 114.837 73.4362 114.92 73.3794C115.003 73.3227 115.106 73.3014 115.205 73.3201C115.304 73.3389 115.391 73.3962 115.448 73.4795C115.478 73.5251 118.569 78.0068 122.643 79.3648C122.73 79.3922 122.804 79.4501 122.852 79.5276C122.9 79.6052 122.918 79.6973 122.904 79.7873C122.889 79.8772 122.843 79.959 122.773 80.0177C122.704 80.0764 122.615 80.1082 122.524 80.1071Z" fill="black"/>
<path d="M111.648 61.4664C111.579 61.4665 111.511 61.448 111.452 61.4128C111.392 61.3775 111.344 61.3269 111.311 61.2663C110.348 59.4574 110.173 57.9956 110.791 56.9189C111.683 55.3684 113.86 55.2696 113.953 55.267C114.003 55.2646 114.053 55.2723 114.1 55.2894C114.147 55.3066 114.19 55.3329 114.226 55.3669C114.263 55.4008 114.292 55.4418 114.313 55.4873C114.333 55.5328 114.345 55.5819 114.346 55.6318C114.349 55.7325 114.313 55.8304 114.245 55.9044C114.176 55.9784 114.082 56.0225 113.981 56.0271C113.958 56.0271 112.127 56.1183 111.448 57.2938C110.971 58.1273 111.151 59.3408 111.982 60.9015C112.005 60.945 112.019 60.9927 112.024 61.0418C112.029 61.0908 112.023 61.1403 112.009 61.1873C111.994 61.2344 111.97 61.2781 111.939 61.316C111.907 61.3539 111.869 61.3852 111.825 61.4081C111.772 61.4424 111.711 61.4625 111.648 61.4664Z" fill="black"/>
<path d="M132.446 56.7539C126.953 57.1694 120.072 53.8531 118.577 55.5911C117.083 57.3291 117.678 60.0145 120.485 61.0381C123.292 62.0616 126.175 62.3631 132.114 62.695C138.052 63.0268 143.897 62.9103 143.651 59.6776C143.405 56.4449 140.525 56.1434 132.446 56.7539Z" fill="#FFB49F"/>
<path d="M138.766 57.932H138.728C136.362 57.7014 134.964 55.3833 134.905 55.2845C134.856 55.1979 134.843 55.0954 134.868 54.9991C134.894 54.9027 134.956 54.8203 135.042 54.7695C135.127 54.7186 135.23 54.7035 135.326 54.7273C135.423 54.7512 135.507 54.8121 135.559 54.8969C135.577 54.9247 136.826 56.9819 138.804 57.177C138.905 57.182 139 57.2269 139.068 57.3017C139.135 57.3766 139.17 57.4752 139.165 57.576C139.16 57.6768 139.115 57.7714 139.041 57.8391C138.966 57.9068 138.867 57.9421 138.766 57.937V57.932Z" fill="black"/>
<path d="M133.01 66.599C132.922 66.5986 132.837 66.5681 132.77 66.5128C132.702 66.4575 132.655 66.3806 132.637 66.295L130.828 57.5748C130.808 57.476 130.827 57.3732 130.883 57.2888C130.938 57.2045 131.025 57.1456 131.123 57.1251C131.222 57.1046 131.325 57.1242 131.409 57.1796C131.494 57.2349 131.553 57.3215 131.573 57.4203L133.382 66.1404C133.392 66.1894 133.393 66.2399 133.384 66.289C133.375 66.3382 133.356 66.3851 133.329 66.4269C133.302 66.4688 133.266 66.5049 133.225 66.5331C133.184 66.5614 133.137 66.5812 133.088 66.5914L133.01 66.599Z" fill="black"/>
<path d="M109.36 65.1595C110.327 65.1595 111.111 64.3756 111.111 63.4088C111.111 62.442 110.327 61.6582 109.36 61.6582C108.393 61.6582 107.609 62.442 107.609 63.4088C107.609 64.3756 108.393 65.1595 109.36 65.1595Z" fill="#07ACEE"/>
<path d="M109.364 61.6585C109.697 61.6582 110.024 61.7541 110.304 61.9346C110.623 62.1386 110.867 62.4404 110.999 62.7948C111.132 63.1491 111.147 63.5369 111.041 63.9001C110.934 64.2633 110.714 64.5824 110.411 64.8095C110.108 65.0366 109.74 65.1595 109.362 65.1597C109.028 65.1604 108.702 65.0645 108.422 64.8836C108.103 64.6796 107.859 64.3778 107.726 64.0235C107.593 63.6691 107.579 63.2813 107.685 62.918C107.791 62.5548 108.012 62.2358 108.315 62.0087C108.618 61.7816 108.986 61.6588 109.364 61.6585ZM109.364 60.8984C108.76 60.898 108.176 61.1156 107.719 61.5111C107.262 61.9067 106.963 62.4538 106.877 63.0519C106.791 63.6501 106.924 64.2593 107.251 64.7675C107.578 65.2757 108.077 65.6489 108.657 65.8187C109.237 65.9884 109.859 65.9433 110.408 65.6915C110.958 65.4398 111.398 64.9984 111.648 64.4483C111.898 63.8981 111.941 63.2763 111.77 62.6968C111.598 62.1173 111.224 61.6191 110.714 61.2937C110.311 61.0354 109.843 60.8982 109.364 60.8984Z" fill="black"/>
<path d="M123.686 61.0784C124.233 61.0784 124.676 60.6349 124.676 60.0878C124.676 59.5407 124.233 59.0972 123.686 59.0972C123.139 59.0972 122.695 59.5407 122.695 60.0878C122.695 60.6349 123.139 61.0784 123.686 61.0784Z" fill="black"/>
<path d="M137.284 61.9299C137.831 61.9299 138.274 61.4864 138.274 60.9393C138.274 60.3922 137.831 59.9487 137.284 59.9487C136.737 59.9487 136.293 60.3922 136.293 60.9393C136.293 61.4864 136.737 61.9299 137.284 61.9299Z" fill="black"/>
<path d="M129.07 73.5C129.009 73.5 128.949 73.4853 128.894 73.4571C128.84 73.4288 128.793 73.388 128.758 73.3379C126.919 70.7081 121.427 70.9159 121.374 70.9209C121.324 70.9231 121.274 70.9154 121.227 70.8983C121.18 70.8812 121.137 70.855 121.1 70.8212C121.063 70.7875 121.033 70.7468 121.012 70.7015C120.991 70.6563 120.979 70.6073 120.977 70.5574C120.975 70.5075 120.982 70.4577 120.999 70.4107C121.017 70.3638 121.043 70.3207 121.077 70.2839C121.11 70.247 121.151 70.2172 121.196 70.1961C121.242 70.175 121.29 70.1631 121.34 70.1609C121.581 70.1609 127.302 69.9303 129.379 72.9021C129.408 72.9427 129.429 72.9887 129.44 73.0373C129.45 73.0859 129.451 73.1362 129.443 73.1852C129.434 73.2343 129.416 73.2812 129.389 73.323C129.362 73.3649 129.327 73.4009 129.285 73.429C129.223 73.475 129.148 73.4998 129.07 73.5Z" fill="black"/>
<path d="M125.03 56.5966C124.98 56.6007 124.93 56.595 124.882 56.5797C124.835 56.5645 124.791 56.54 124.752 56.5076C124.714 56.4753 124.683 56.4357 124.66 56.3912C124.637 56.3467 124.623 56.2981 124.619 56.2482C124.614 56.1983 124.62 56.1481 124.635 56.1004C124.651 56.0527 124.675 56.0084 124.708 55.9702C124.74 55.932 124.779 55.9005 124.824 55.8776C124.868 55.8547 124.917 55.8407 124.967 55.8365C124.997 55.8365 128.063 55.2893 128.39 53.4018C128.407 53.3011 128.464 53.2114 128.548 53.1525C128.631 53.0935 128.735 53.0702 128.836 53.0877C128.936 53.1052 129.026 53.162 129.085 53.2456C129.144 53.3292 129.167 53.4328 129.15 53.5336C128.729 55.948 125.251 56.5738 125.096 56.5864C125.075 56.5925 125.052 56.5959 125.03 56.5966Z" fill="black"/>
<path d="M103.247 84.8073C103.154 84.8089 103.063 84.7754 102.993 84.7136C102.956 84.6807 102.925 84.6407 102.903 84.5959C102.881 84.5511 102.867 84.5023 102.864 84.4524C102.861 84.4025 102.868 84.3525 102.884 84.3051C102.9 84.2578 102.925 84.214 102.958 84.1765C106.837 79.7454 110.784 70.2145 110.824 70.1183C110.843 70.0711 110.87 70.0281 110.905 69.9917C110.941 69.9553 110.983 69.9263 111.029 69.9065C111.076 69.8866 111.126 69.8762 111.177 69.876C111.227 69.8757 111.277 69.8856 111.324 69.9051C111.371 69.9245 111.413 69.953 111.449 69.989C111.484 70.0251 111.513 70.0678 111.531 70.1149C111.55 70.1619 111.559 70.2122 111.559 70.2628C111.558 70.3134 111.547 70.3633 111.526 70.4096C111.364 70.8049 107.49 80.1508 103.53 84.6781C103.495 84.7184 103.451 84.7507 103.402 84.773C103.354 84.7952 103.301 84.8069 103.247 84.8073Z" fill="white"/>
<path d="M224.064 139.472C224.064 139.472 212.706 146.224 218.419 153.388C224.132 160.553 233.139 154.848 233.184 146.563C233.23 138.279 226.803 135.023 223.737 131.831" fill="#FFCDB2"/>
<path d="M224.488 157.044C222.142 157.044 219.907 155.868 218.124 153.634C216.713 151.86 216.183 149.965 216.543 147.984C217.45 143.023 223.609 139.309 223.87 139.155C223.913 139.128 223.96 139.111 224.01 139.103C224.06 139.095 224.111 139.097 224.16 139.109C224.209 139.121 224.255 139.143 224.296 139.173C224.336 139.203 224.37 139.241 224.396 139.284C224.422 139.328 224.439 139.376 224.446 139.426C224.452 139.476 224.449 139.527 224.436 139.576C224.423 139.624 224.401 139.67 224.37 139.71C224.34 139.75 224.301 139.784 224.257 139.808C224.196 139.844 218.134 143.502 217.29 148.123C216.971 149.876 217.452 151.571 218.719 153.16C220.905 155.901 223.816 156.899 226.705 155.899C230.274 154.66 232.785 150.832 232.805 146.57C232.838 140.199 228.919 136.867 225.77 134.192C224.921 133.47 224.118 132.786 223.462 132.104C223.392 132.031 223.354 131.934 223.356 131.833C223.358 131.732 223.4 131.636 223.473 131.566C223.546 131.496 223.644 131.458 223.745 131.46C223.846 131.462 223.942 131.504 224.012 131.577C224.64 132.233 225.428 132.902 226.264 133.604C229.532 136.391 233.611 139.841 233.565 146.565C233.54 151.125 230.821 155.265 226.953 156.608C226.161 156.89 225.328 157.037 224.488 157.044Z" fill="black"/>
<path d="M225.469 126.27C225.469 126.27 214.111 133.021 219.827 140.186C225.542 147.351 234.546 141.645 234.592 133.361C234.637 125.077 228.21 121.821 225.142 118.629" fill="#FFCDB2"/>
<path d="M225.895 143.832C223.547 143.832 221.315 142.659 219.531 140.422C218.12 138.648 217.588 136.753 217.95 134.775C218.854 129.812 225.013 126.1 225.277 125.943C225.363 125.894 225.466 125.88 225.562 125.906C225.659 125.931 225.741 125.994 225.792 126.079C225.843 126.165 225.858 126.267 225.834 126.364C225.81 126.461 225.749 126.544 225.664 126.597C225.604 126.635 219.539 130.29 218.697 134.912C218.378 136.665 218.857 138.36 220.124 139.948C222.313 142.692 225.221 143.687 228.109 142.687C231.679 141.448 234.19 137.62 234.212 133.359C234.245 126.989 230.326 123.658 227.177 120.98C226.328 120.258 225.525 119.576 224.869 118.892C224.799 118.821 224.759 118.724 224.759 118.624C224.759 118.523 224.799 118.427 224.869 118.355C224.904 118.32 224.946 118.292 224.992 118.272C225.038 118.253 225.088 118.243 225.138 118.243C225.187 118.243 225.237 118.253 225.283 118.272C225.329 118.292 225.371 118.32 225.406 118.355C226.037 119.012 226.825 119.68 227.658 120.382C230.929 123.169 235.005 126.62 234.962 133.346C234.937 137.906 232.219 142.046 228.347 143.389C227.56 143.672 226.732 143.822 225.895 143.832Z" fill="black"/>
<path d="M224.755 115.119C224.755 115.119 213.398 121.868 219.111 129.033C224.824 136.197 233.83 130.492 233.876 122.207C233.921 113.923 228.472 114.029 224.532 113.062" fill="#FFCDB2"/>
<path d="M225.176 132.68C222.83 132.68 220.596 131.505 218.812 129.27C217.401 127.497 216.869 125.602 217.231 123.62C218.138 118.657 224.297 114.946 224.558 114.791C224.601 114.765 224.649 114.747 224.699 114.739C224.748 114.732 224.799 114.734 224.848 114.746C224.897 114.758 224.943 114.78 224.984 114.81C225.024 114.84 225.059 114.878 225.084 114.921C225.11 114.964 225.127 115.012 225.134 115.062C225.141 115.112 225.138 115.163 225.125 115.212C225.112 115.261 225.089 115.307 225.059 115.347C225.028 115.387 224.989 115.42 224.946 115.445C224.885 115.48 218.822 119.136 217.978 123.76C217.659 125.513 218.141 127.208 219.408 128.796C221.594 131.538 224.505 132.536 227.39 131.533C230.963 130.296 233.471 126.466 233.493 122.207C233.529 115.285 229.708 114.515 226.01 113.77C225.462 113.659 224.946 113.555 224.439 113.431C224.389 113.421 224.341 113.4 224.299 113.371C224.257 113.342 224.222 113.305 224.194 113.261C224.167 113.218 224.149 113.17 224.141 113.119C224.133 113.069 224.135 113.017 224.147 112.967C224.159 112.918 224.181 112.871 224.212 112.83C224.243 112.789 224.281 112.755 224.326 112.73C224.37 112.704 224.419 112.688 224.47 112.682C224.521 112.675 224.572 112.679 224.621 112.694C225.113 112.813 225.622 112.917 226.162 113.026C229.785 113.755 234.294 114.662 234.254 122.209C234.228 126.77 231.51 130.909 227.641 132.252C226.849 132.532 226.016 132.676 225.176 132.68Z" fill="black"/>
<path d="M224.509 152.605C224.408 152.605 224.312 152.565 224.24 152.494C224.169 152.423 224.129 152.326 224.129 152.225C224.129 152.125 224.169 152.028 224.24 151.957C224.312 151.885 224.408 151.845 224.509 151.845C224.785 151.845 231.322 151.673 231.694 143.637C231.7 143.537 231.745 143.443 231.82 143.376C231.894 143.308 231.991 143.272 232.092 143.275C232.192 143.28 232.287 143.325 232.355 143.399C232.422 143.473 232.458 143.572 232.454 143.672C232.046 152.441 224.6 152.605 224.514 152.605H224.509Z" fill="white"/>
<path d="M225.154 142.306C225.053 142.314 224.953 142.28 224.877 142.214C224.801 142.148 224.754 142.054 224.747 141.953C224.74 141.852 224.773 141.753 224.839 141.676C224.906 141.6 225 141.553 225.1 141.546C225.354 141.508 231.67 140.533 232.792 133.495C232.8 133.445 232.817 133.397 232.844 133.354C232.87 133.311 232.905 133.274 232.945 133.244C232.986 133.214 233.032 133.193 233.081 133.181C233.131 133.169 233.182 133.167 233.231 133.175C233.281 133.182 233.329 133.2 233.372 133.226C233.416 133.253 233.453 133.287 233.483 133.328C233.513 133.369 233.534 133.415 233.546 133.464C233.558 133.513 233.56 133.564 233.552 133.614C232.336 141.215 225.285 142.289 225.214 142.299L225.154 142.306Z" fill="white"/>
<path d="M223.312 129.407H223.231C223.181 129.405 223.132 129.394 223.086 129.373C223.041 129.352 223 129.323 222.966 129.286C222.932 129.25 222.905 129.207 222.887 129.16C222.87 129.114 222.862 129.064 222.863 129.014C222.865 128.964 222.876 128.915 222.896 128.869C222.917 128.824 222.946 128.783 222.983 128.749C223.02 128.715 223.063 128.689 223.109 128.672C223.156 128.654 223.206 128.647 223.256 128.649C223.58 128.649 231.138 128.824 232.166 121.163C232.173 121.113 232.189 121.065 232.215 121.021C232.24 120.978 232.274 120.939 232.314 120.909C232.354 120.878 232.399 120.856 232.448 120.843C232.496 120.83 232.547 120.827 232.597 120.833C232.647 120.84 232.695 120.857 232.739 120.882C232.782 120.907 232.82 120.941 232.851 120.981C232.881 121.021 232.904 121.066 232.917 121.115C232.93 121.163 232.933 121.214 232.926 121.264C231.857 129.176 224.191 129.407 223.312 129.407Z" fill="white"/>
<path d="M237.845 122.789C237.811 122.79 237.777 122.785 237.744 122.776C237.648 122.747 237.568 122.681 237.521 122.594C237.474 122.506 237.463 122.403 237.49 122.307C238.737 117.887 237.698 114.2 234.404 111.348C232.804 110 230.959 108.975 228.97 108.328C228.92 108.317 228.872 108.295 228.83 108.265C228.788 108.235 228.752 108.196 228.726 108.152C228.699 108.107 228.682 108.058 228.675 108.006C228.668 107.955 228.672 107.902 228.686 107.853C228.7 107.803 228.725 107.756 228.758 107.716C228.79 107.676 228.831 107.643 228.877 107.619C228.923 107.595 228.974 107.581 229.025 107.578C229.077 107.574 229.129 107.581 229.178 107.598C229.302 107.631 241.404 111.231 238.222 122.513C238.199 122.594 238.149 122.665 238.081 122.715C238.013 122.765 237.929 122.791 237.845 122.789Z" fill="black"/>
<defs>
<filter id="filter0_d_10210_60978" x="-2.82472" y="75.6952" width="27.169" height="27.167" filterUnits="userSpaceOnUse" color-interpolation-filters="sRGB">
<feFlood flood-opacity="0" result="BackgroundImageFix"/>
<feColorMatrix in="SourceAlpha" type="matrix" values="0 0 0 0 0 0 0 0 0 0 0 0 0 0 0 0 0 0 127 0" result="hardAlpha"/>
<feOffset dy="1.43057"/>
<feGaussianBlur stdDeviation="3.57642"/>
<feComposite in2="hardAlpha" operator="out"/>
<feColorMatrix type="matrix" values="0 0 0 0 0 0 0 0 0 0 0 0 0 0 0 0 0 0 0.05 0"/>
<feBlend mode="normal" in2="BackgroundImageFix" result="effect1_dropShadow_10210_60978"/>
<feBlend mode="normal" in="SourceGraphic" in2="effect1_dropShadow_10210_60978" result="shape"/>
</filter>
<filter id="filter1_d_10210_60978" x="260.296" y="116.027" width="27.169" height="27.17" filterUnits="userSpaceOnUse" color-interpolation-filters="sRGB">
<feFlood flood-opacity="0" result="BackgroundImageFix"/>
<feColorMatrix in="SourceAlpha" type="matrix" values="0 0 0 0 0 0 0 0 0 0 0 0 0 0 0 0 0 0 127 0" result="hardAlpha"/>
<feOffset dy="1.43057"/>
<feGaussianBlur stdDeviation="3.57642"/>
<feComposite in2="hardAlpha" operator="out"/>
<feColorMatrix type="matrix" values="0 0 0 0 0 0 0 0 0 0 0 0 0 0 0 0 0 0 0.05 0"/>
<feBlend mode="normal" in2="BackgroundImageFix" result="effect1_dropShadow_10210_60978"/>
<feBlend mode="normal" in="SourceGraphic" in2="effect1_dropShadow_10210_60978" result="shape"/>
</filter>
<linearGradient id="paint0_linear_10210_60978" x1="14.3628" y1="78.6815" x2="275.328" y2="140.839" gradientUnits="userSpaceOnUse">
<stop stop-color="#CDD5E2"/>
<stop offset="1" stop-color="#CDD5E2" stop-opacity="0"/>
</linearGradient>
<linearGradient id="paint1_linear_10210_60978" x1="274.879" y1="137.251" x2="248.501" y2="206.5" gradientUnits="userSpaceOnUse">
<stop stop-color="#CDD5E2"/>
<stop offset="1" stop-color="#CDD5E2" stop-opacity="0"/>
</linearGradient>
<linearGradient id="paint2_linear_10210_60978" x1="138" y1="16.335" x2="138" y2="256.335" gradientUnits="userSpaceOnUse">
<stop stop-color="#CDD5E2"/>
<stop offset="1" stop-color="#CDD5E2" stop-opacity="0"/>
</linearGradient>
<linearGradient id="paint3_linear_10210_60978" x1="138" y1="40.335" x2="138" y2="232.335" gradientUnits="userSpaceOnUse">
<stop stop-color="#CDD5E2"/>
<stop offset="1" stop-color="#CDD5E2" stop-opacity="0"/>
</linearGradient>
</defs>
</svg>
