<svg width="285" height="212" viewBox="0 0 285 212" fill="none" xmlns="http://www.w3.org/2000/svg">
<mask id="mask0_10204_60338" style="mask-type:alpha" maskUnits="userSpaceOnUse" x="0" y="0" width="285" height="212">
<rect width="285" height="212" fill="#D9D9D9"/>
</mask>
<g mask="url(#mask0_10204_60338)">
<g opacity="0.5">
<mask id="path-2-inside-1_10204_60338" fill="white">
<path d="M273.871 142.256C275.287 109.771 265.017 77.8543 244.923 52.2905C224.829 26.7266 196.242 9.20795 164.342 2.91007C132.441 -3.3878 99.3407 1.95193 71.0393 17.9614C42.7378 33.9708 21.1088 59.5903 10.0729 90.1759L10.6626 90.3887C21.6477 59.944 43.1769 34.4426 71.3479 18.507C99.5189 2.57137 132.467 -2.74374 164.22 3.5251C195.973 9.79394 224.429 27.2318 244.43 52.6779C264.432 78.1239 274.654 109.894 273.245 142.229L273.871 142.256Z"/>
</mask>
<path d="M273.871 142.256C275.287 109.771 265.017 77.8543 244.923 52.2905C224.829 26.7266 196.242 9.20795 164.342 2.91007C132.441 -3.3878 99.3407 1.95193 71.0393 17.9614C42.7378 33.9708 21.1088 59.5903 10.0729 90.1759L10.6626 90.3887C21.6477 59.944 43.1769 34.4426 71.3479 18.507C99.5189 2.57137 132.467 -2.74374 164.22 3.5251C195.973 9.79394 224.429 27.2318 244.43 52.6779C264.432 78.1239 274.654 109.894 273.245 142.229L273.871 142.256Z" stroke="url(#paint0_linear_10204_60338)" stroke-width="2" stroke-dasharray="3 3" mask="url(#path-2-inside-1_10204_60338)"/>
</g>
<g opacity="0.5">
<mask id="path-3-inside-2_10204_60338" fill="white">
<path d="M10.256 182.994C21.4116 213.536 43.1407 239.07 71.5046 254.969C99.8685 270.867 132.99 276.078 164.865 269.655C196.74 263.232 225.259 245.602 245.253 219.96C265.247 194.317 275.391 162.36 273.848 129.881L273.222 129.911C274.758 162.24 264.66 194.05 244.759 219.574C224.857 245.098 196.469 262.647 164.741 269.04C133.013 275.433 100.044 270.247 71.8111 254.422C43.578 238.597 21.949 213.18 10.8449 182.778L10.256 182.994Z"/>
</mask>
<path d="M10.256 182.994C21.4116 213.536 43.1407 239.07 71.5046 254.969C99.8685 270.867 132.99 276.078 164.865 269.655C196.74 263.232 225.259 245.602 245.253 219.96C265.247 194.317 275.391 162.36 273.848 129.881L273.222 129.911C274.758 162.24 264.66 194.05 244.759 219.574C224.857 245.098 196.469 262.647 164.741 269.04C133.013 275.433 100.044 270.247 71.8111 254.422C43.578 238.597 21.949 213.18 10.8449 182.778L10.256 182.994Z" stroke="url(#paint1_linear_10204_60338)" stroke-width="2" stroke-dasharray="3 3" mask="url(#path-3-inside-2_10204_60338)"/>
</g>
<circle opacity="0.08" cx="138" cy="136.335" r="120" fill="url(#paint2_linear_10204_60338)"/>
<circle opacity="0.1" cx="138" cy="136.335" r="96" fill="url(#paint3_linear_10204_60338)"/>
<circle cx="138" cy="136.335" r="64" fill="white"/>
<g filter="url(#filter0_d_10204_60338)">
<circle cx="10.7606" cy="87.8481" r="5" transform="rotate(-2.50406 10.7606 87.8481)" fill="#0170FF"/>
<circle cx="10.7606" cy="87.8481" r="5.71528" transform="rotate(-2.50406 10.7606 87.8481)" stroke="white" stroke-width="1.43057"/>
</g>
<g filter="url(#filter1_d_10204_60338)">
<circle cx="273.879" cy="128.181" r="5" transform="rotate(-15.7345 273.879 128.181)" fill="#0170FF"/>
<circle cx="273.879" cy="128.181" r="5.71528" transform="rotate(-15.7345 273.879 128.181)" stroke="white" stroke-width="1.43057"/>
</g>
</g>
<path d="M126.635 77.5746C126.635 77.5746 135.287 82.8603 137.743 75.8119C140.199 68.7636 145.317 53.6325 156.381 56.4573C167.445 59.2822 168.531 61.4181 173.058 54.7776C177.586 48.1371 205.977 51.462 198.851 72.8419C187.176 107.878 123.275 98.9154 123.275 98.9154L122.48 90.503L126.635 77.5746Z" fill="#382256"/>
<path d="M181.863 51.6991C191.326 51.6991 203.856 57.8073 198.849 72.8325C191.125 96.0097 160.547 99.9336 140.734 99.9336C130.596 99.9336 123.28 98.9059 123.28 98.9059L122.485 90.4936L126.633 77.5744C126.633 77.5744 129.748 79.4776 132.769 79.4776C134.785 79.4776 136.757 78.632 137.741 75.8117C139.992 69.3602 144.478 56.1022 153.732 56.1022C154.625 56.1065 155.514 56.2226 156.379 56.4479C162.047 57.8879 165.096 59.1552 167.331 59.1552C169.46 59.1552 170.849 58.0031 173.056 54.7774C174.404 52.8027 177.86 51.7083 181.863 51.7083V51.6991ZM181.863 51.0171C177.429 51.0171 173.925 52.2774 172.487 54.388C170.351 57.5193 169.146 58.4732 167.331 58.4732C166.01 58.4732 164.252 57.9594 161.819 57.2474C160.324 56.8097 158.63 56.3258 156.55 55.7866C155.629 55.5475 154.682 55.4244 153.732 55.4202C149.54 55.4202 145.805 57.9732 142.633 63.0078C140.04 67.116 138.319 72.056 137.181 75.3256L137.089 75.5951C136.338 77.7472 134.925 78.7956 132.769 78.7956C129.974 78.7956 127.022 77.0122 126.992 76.9938C126.884 76.9276 126.76 76.8926 126.633 76.8924C126.55 76.8924 126.468 76.9072 126.391 76.9362C126.293 76.9725 126.204 77.0306 126.132 77.106C126.06 77.1815 126.006 77.2722 125.974 77.3716L121.826 90.2908C121.797 90.3799 121.787 90.4741 121.796 90.5673L122.589 98.982C122.604 99.1369 122.67 99.2823 122.778 99.3948C122.885 99.5073 123.027 99.5802 123.181 99.6018C129.004 100.309 134.866 100.654 140.732 100.634C149.773 100.634 162.978 99.7838 174.552 95.7355C187.616 91.1664 196.012 83.5352 199.503 73.0606C200.512 70.033 200.885 67.1966 200.581 64.6275C200.335 62.3327 199.496 60.1414 198.148 58.2682C196.459 55.9226 193.909 54.0101 190.775 52.7383C187.939 51.6096 184.915 51.0264 181.863 51.0194V51.0171Z" fill="black"/>
<path d="M185.352 89.7706C153.606 80.8998 126.867 93.5909 126.867 93.5909C126.335 95.4368 126.236 97.3804 126.579 99.2705C136.53 100.224 166.723 101.895 185.352 89.7706Z" fill="#050505"/>
<path d="M184.726 71.1256C184.646 71.1259 184.568 71.0983 184.506 71.0474C184.443 70.9965 184.401 70.9256 184.385 70.8469C184.37 70.7681 184.382 70.6863 184.421 70.6157C184.459 70.545 184.52 70.4898 184.595 70.4597C208.276 60.9137 217.458 45.6466 221 34.5154C224.832 22.4487 223.041 12.5087 223.023 12.4096C223.014 12.3651 223.014 12.3193 223.024 12.2749C223.033 12.2305 223.051 12.1883 223.076 12.1508C223.102 12.1134 223.134 12.0813 223.172 12.0565C223.21 12.0317 223.252 12.0147 223.297 12.0064C223.342 11.9977 223.388 11.9979 223.432 12.007C223.477 12.016 223.519 12.0339 223.557 12.0593C223.594 12.0848 223.627 12.1174 223.652 12.1554C223.677 12.1934 223.694 12.2359 223.703 12.2806C223.721 12.3819 225.546 22.4671 221.67 34.6928C219.391 41.8776 215.571 48.4782 210.477 54.0336C204.046 61.0934 195.429 66.833 184.862 71.0841C184.82 71.1064 184.774 71.1205 184.726 71.1256Z" fill="black"/>
<path d="M183.28 64.1231C183.199 64.1232 183.121 64.0951 183.058 64.0435C182.996 63.9919 182.954 63.9202 182.939 63.8408C182.925 63.7614 182.938 63.6794 182.977 63.6089C183.017 63.5384 183.08 63.484 183.155 63.455C192.932 59.7038 198.512 51.7845 199.745 39.9183C200.667 31.029 198.662 23.1397 198.641 23.0614C198.627 23.0166 198.622 22.9694 198.627 22.9226C198.631 22.8758 198.645 22.8305 198.668 22.7894C198.691 22.7483 198.722 22.7122 198.759 22.6834C198.796 22.6546 198.839 22.6336 198.884 22.6219C198.93 22.6101 198.977 22.6077 199.023 22.6149C199.07 22.6221 199.114 22.6387 199.154 22.6637C199.194 22.6886 199.228 22.7214 199.255 22.7601C199.282 22.7988 199.3 22.8425 199.309 22.8886C199.33 22.9669 201.367 30.953 200.436 39.9714C199.888 45.2708 198.432 49.9021 196.114 53.7108C193.206 58.485 188.929 61.9803 183.406 64.1001C183.366 64.1158 183.323 64.1236 183.28 64.1231Z" fill="black"/>
<path d="M229.962 208.386L58.3046 207.582C58.1824 207.582 58.0652 207.533 57.9788 207.447C57.8923 207.36 57.8438 207.243 57.8438 207.121C57.8438 206.999 57.8923 206.882 57.9788 206.795C58.0652 206.709 58.1824 206.66 58.3046 206.66L229.962 207.464C230.084 207.464 230.201 207.513 230.288 207.599C230.374 207.686 230.423 207.803 230.423 207.925C230.423 208.047 230.374 208.165 230.288 208.251C230.201 208.337 230.084 208.386 229.962 208.386Z" fill="black"/>
<path d="M62.6426 212.001H37.3456C37.254 212.001 37.1661 211.964 37.1013 211.9C37.0364 211.835 37 211.747 37 211.655C37 211.564 37.0364 211.476 37.1013 211.411C37.1661 211.346 37.254 211.31 37.3456 211.31H62.6426C62.7343 211.31 62.8221 211.346 62.887 211.411C62.9518 211.476 62.9882 211.564 62.9882 211.655C62.9882 211.747 62.9518 211.835 62.887 211.9C62.8221 211.964 62.7343 212.001 62.6426 212.001Z" fill="black"/>
<path d="M247.101 201.618H221.807C221.715 201.618 221.627 201.582 221.562 201.517C221.497 201.452 221.461 201.364 221.461 201.272C221.461 201.181 221.497 201.093 221.562 201.028C221.627 200.963 221.715 200.927 221.807 200.927H247.104C247.195 200.927 247.283 200.963 247.348 201.028C247.413 201.093 247.449 201.181 247.449 201.272C247.449 201.364 247.413 201.452 247.348 201.517C247.283 201.582 247.195 201.618 247.104 201.618H247.101Z" fill="black"/>
<path d="M106.985 102.699C118.573 99.4894 189.556 112.328 194.143 118.747C198.731 125.167 163.879 206.467 156.48 206.467C148.029 206.467 87.428 206.467 74.8728 206.737C63.8522 206.967 55.7994 177.051 59.4215 170.102C63.0435 163.152 89.8358 106.982 98.7758 105.913C107.716 104.844 106.985 102.699 106.985 102.699Z" fill="#07ACEE"/>
<path d="M74.7455 207.085C71.5198 207.085 68.2939 204.629 65.4069 199.967C59.8309 190.995 56.4785 174.998 59.1144 169.938C59.5522 169.097 60.3172 167.558 61.3794 165.429C73.9645 140.143 91.5309 106.427 98.7336 105.565C104.478 104.874 106.068 103.773 106.503 103.176C106.601 103.071 106.654 102.932 106.651 102.789C106.63 102.748 106.619 102.703 106.619 102.657C106.619 102.612 106.63 102.567 106.651 102.526C106.675 102.484 106.708 102.448 106.748 102.42C106.788 102.393 106.833 102.375 106.881 102.367C112.985 100.676 134.563 103.36 153.24 106.773C170.62 109.948 191.832 114.934 194.412 118.544C196.498 121.464 191.06 137.293 187.631 146.47C182.346 160.622 175.208 176.903 169.005 188.961C162.91 200.806 158.692 206.813 156.468 206.813C140.27 206.813 86.515 206.834 74.87 207.083L74.7455 207.085ZM107.333 102.966C107.302 103.149 107.234 103.324 107.132 103.48C106.34 104.738 103.464 105.694 98.8167 106.245C96.5909 106.512 91.5955 110.943 80.4343 130.542C73.098 143.429 65.8768 157.936 62.0013 165.73C60.9391 167.862 60.1719 169.403 59.7318 170.249C57.4001 174.728 60.0706 190.064 65.9991 199.596C67.953 202.739 71.0682 206.465 74.87 206.384C86.5219 206.136 140.284 206.115 156.484 206.115C157.364 206.115 160.291 204.412 168.406 188.636C174.597 176.601 181.721 160.35 187 146.221C192.666 131.051 195.233 120.853 193.866 118.941C191.873 116.15 175.503 111.531 153.132 107.445C134.784 104.102 113.664 101.445 107.333 102.966Z" fill="black"/>
<path d="M180.983 127.155C180.983 127.155 105.177 125.708 102.758 128.12C101.659 129.222 101.067 153.954 100.101 171.339C98.9284 192.468 82.7188 206.592 82.7188 206.592H113.133L180.983 127.155Z" fill="#0598C6"/>
<path d="M96.3564 105.547C83.5616 117.619 73.1448 118.344 50.6036 167.717C41.6497 187.335 50.6036 199.104 56.8823 202.726C63.161 206.348 89.9579 211.659 96.9601 195L103.72 194.77L105.651 175.696H100.352C100.352 175.696 99.1445 167.971 89.246 167.487C79.3475 167.003 68.2414 172.325 66.0686 173.04" fill="#07ACEE"/>
<path d="M75.088 206.836C67.3185 206.836 59.8325 204.827 56.7104 203.025C55.2081 202.159 50.1227 198.756 47.7034 191.327C45.4545 184.415 46.3486 176.208 50.291 167.574C68.4659 127.759 78.8115 119.489 88.816 111.494C91.1846 109.6 93.6337 107.642 96.1199 105.296C96.1869 105.235 96.275 105.203 96.3654 105.207C96.4557 105.21 96.5411 105.249 96.6032 105.315C96.6653 105.38 96.6991 105.468 96.6975 105.558C96.6959 105.649 96.659 105.735 96.5946 105.798C94.0878 108.165 91.627 110.132 89.2469 112.033C79.3069 119.98 69.028 128.197 50.9199 167.862C47.0029 176.456 46.1344 184.279 48.3602 191.113C50.7035 198.307 55.609 201.592 57.056 202.426C61.5629 205.028 75.3597 208.064 85.6638 204.594C90.9886 202.8 94.6845 199.525 96.643 194.866C96.6683 194.805 96.7106 194.753 96.765 194.715C96.8193 194.678 96.8834 194.657 96.9495 194.654L103.401 194.424L105.263 176.03H100.334C100.252 176.03 100.172 176.001 100.11 175.947C100.047 175.893 100.006 175.819 99.9932 175.738C99.9448 175.434 98.6983 168.284 89.2122 167.821C80.9358 167.422 71.7355 171.129 67.8093 172.715C67.0536 173.021 66.5097 173.24 66.1595 173.357C66.1164 173.373 66.0706 173.379 66.025 173.377C65.9793 173.374 65.9347 173.363 65.8936 173.343C65.8524 173.323 65.8156 173.295 65.7851 173.261C65.7546 173.227 65.7312 173.187 65.716 173.144C65.7009 173.101 65.6944 173.056 65.6969 173.01C65.6994 172.964 65.7109 172.92 65.7306 172.878C65.7504 172.837 65.7781 172.8 65.8121 172.77C65.8461 172.739 65.886 172.716 65.9291 172.701C66.2586 172.592 66.8231 172.364 67.542 172.074C71.5097 170.473 80.8044 166.719 89.2352 167.132C98.1913 167.567 100.249 173.894 100.604 175.339H105.636C105.684 175.339 105.732 175.349 105.776 175.369C105.82 175.389 105.86 175.417 105.893 175.453C105.925 175.489 105.95 175.531 105.965 175.577C105.981 175.623 105.986 175.671 105.982 175.719L104.048 194.793C104.04 194.876 104.002 194.953 103.941 195.01C103.88 195.068 103.8 195.101 103.717 195.104L97.1777 195.334C95.1039 200.078 91.3136 203.412 85.869 205.242C82.5119 206.385 78.7677 206.836 75.088 206.836Z" fill="black"/>
<path d="M96 196.394C96.0968 190.772 99.2257 180.671 100.668 176.249H105.175L103.346 194.311L96.9424 194.541C96.6727 195.181 96.3578 195.8 96 196.394Z" fill="#0598C6"/>
<path d="M107.044 185.094C107.044 185.094 116.549 191.133 111.498 197.092C106.447 203.05 98.92 197.963 99.0928 190.903C99.2656 183.843 104.823 181.225 107.517 178.592" fill="#FFCDB2"/>
<path d="M106.413 200.069C105.635 200.066 104.864 199.92 104.139 199.638C100.867 198.394 98.6506 194.799 98.7451 190.894C98.8856 185.154 102.446 182.309 105.303 180.021C106.033 179.438 106.722 178.887 107.273 178.346C107.305 178.312 107.343 178.285 107.386 178.267C107.428 178.248 107.474 178.239 107.52 178.238C107.567 178.238 107.613 178.247 107.656 178.265C107.698 178.283 107.737 178.309 107.77 178.342C107.802 178.375 107.828 178.414 107.845 178.457C107.862 178.501 107.87 178.547 107.868 178.593C107.867 178.639 107.857 178.685 107.837 178.727C107.818 178.769 107.791 178.807 107.757 178.839C107.181 179.405 106.478 179.968 105.736 180.562C102.989 182.758 99.57 185.493 99.4363 190.912C99.3488 194.527 101.383 197.85 104.383 198.993C106.809 199.914 109.305 199.143 111.233 196.868C112.349 195.553 112.798 194.127 112.572 192.631C111.973 188.684 106.909 185.419 106.856 185.387C106.816 185.363 106.781 185.332 106.754 185.295C106.727 185.257 106.707 185.215 106.697 185.17C106.686 185.125 106.684 185.078 106.692 185.033C106.7 184.987 106.717 184.944 106.741 184.905C106.766 184.866 106.799 184.832 106.837 184.806C106.875 184.78 106.918 184.761 106.963 184.752C107.008 184.743 107.055 184.742 107.1 184.751C107.145 184.76 107.188 184.778 107.227 184.804C107.457 184.942 112.607 188.26 113.254 192.525C113.514 194.228 113.01 195.841 111.759 197.315C110.227 199.124 108.356 200.069 106.413 200.069Z" fill="black"/>
<path d="M106.181 173.812C106.181 173.812 115.685 179.851 110.635 185.809C105.584 191.768 98.0567 186.678 98.2295 179.62C98.4023 172.563 103.96 169.943 106.653 167.31" fill="#FFCDB2"/>
<path d="M105.55 188.787C104.772 188.783 104.001 188.637 103.276 188.356C100.004 187.109 97.7873 183.517 97.8818 179.612C98.0224 173.872 101.582 171.024 104.442 168.738C105.17 168.155 105.857 167.605 106.41 167.063C106.442 167.03 106.48 167.003 106.522 166.985C106.565 166.966 106.611 166.956 106.657 166.956C106.703 166.956 106.749 166.965 106.792 166.982C106.835 167 106.874 167.026 106.906 167.06C106.939 167.093 106.964 167.132 106.981 167.175C106.998 167.218 107.006 167.264 107.005 167.311C107.004 167.357 106.994 167.403 106.974 167.445C106.955 167.487 106.928 167.525 106.893 167.556C106.317 168.123 105.614 168.683 104.872 169.278C102.126 171.476 98.7067 174.211 98.5731 179.628C98.4855 183.243 100.52 186.568 103.52 187.708C105.946 188.63 108.442 187.858 110.37 185.586C111.485 184.271 111.935 182.844 111.709 181.349C111.11 177.4 106.045 174.135 105.992 174.102C105.953 174.079 105.918 174.047 105.891 174.01C105.864 173.973 105.844 173.93 105.834 173.885C105.823 173.841 105.821 173.794 105.829 173.748C105.837 173.703 105.853 173.659 105.878 173.62C105.903 173.581 105.935 173.548 105.973 173.521C106.011 173.495 106.054 173.477 106.099 173.467C106.145 173.458 106.191 173.458 106.237 173.467C106.282 173.476 106.325 173.494 106.363 173.519C106.594 173.66 111.744 176.976 112.391 181.243C112.651 182.946 112.147 184.556 110.896 186.033C109.361 187.842 107.492 188.787 105.55 188.787Z" fill="black"/>
<path d="M107.075 164.33C107.075 164.33 116.58 170.369 111.529 176.328C106.479 182.286 98.9512 177.196 99.124 170.139C99.2968 163.081 102.877 163.252 106.267 162.535" fill="#FFCDB2"/>
<path d="M106.445 179.304C105.667 179.301 104.896 179.155 104.17 178.874C100.898 177.627 98.6819 174.035 98.7763 170.129C98.9376 163.54 102.078 162.959 105.115 162.397C105.467 162.332 105.829 162.265 106.184 162.189C106.272 162.175 106.362 162.194 106.436 162.244C106.509 162.294 106.561 162.371 106.58 162.458C106.598 162.545 106.582 162.635 106.536 162.711C106.489 162.787 106.415 162.842 106.329 162.864C105.965 162.943 105.597 163.01 105.242 163.076C102.223 163.634 99.615 164.118 99.4676 170.146C99.38 173.761 101.415 177.083 104.414 178.226C106.841 179.148 109.336 178.376 111.262 176.104C112.38 174.786 112.829 173.36 112.601 171.864C112.002 167.913 106.938 164.652 106.887 164.62C106.847 164.597 106.813 164.565 106.785 164.528C106.758 164.491 106.739 164.448 106.728 164.403C106.717 164.358 106.716 164.312 106.724 164.266C106.731 164.221 106.748 164.177 106.773 164.138C106.797 164.099 106.83 164.065 106.868 164.039C106.906 164.013 106.949 163.995 106.994 163.985C107.039 163.976 107.086 163.976 107.131 163.985C107.177 163.993 107.22 164.011 107.258 164.037C107.477 164.176 112.638 167.493 113.285 171.761C113.543 173.463 113.041 175.074 111.79 176.551C110.258 178.36 108.387 179.304 106.445 179.304Z" fill="black"/>
<path d="M106.339 196.294H106.325C106.26 196.294 99.8917 195.962 99.7696 188.46C99.7687 188.415 99.7767 188.369 99.7932 188.327C99.8098 188.285 99.8345 188.246 99.8659 188.214C99.8974 188.181 99.9348 188.155 99.9764 188.136C100.018 188.118 100.063 188.108 100.108 188.107C100.199 188.108 100.286 188.144 100.35 188.208C100.415 188.271 100.452 188.358 100.454 188.448C100.567 195.282 106.111 195.591 106.346 195.603C106.391 195.604 106.436 195.613 106.477 195.632C106.519 195.65 106.556 195.676 106.588 195.709C106.619 195.742 106.644 195.78 106.661 195.822C106.677 195.865 106.685 195.91 106.684 195.955C106.683 196.001 106.673 196.045 106.655 196.087C106.637 196.129 106.611 196.166 106.578 196.198C106.545 196.229 106.507 196.254 106.464 196.27C106.422 196.287 106.377 196.295 106.332 196.294H106.339Z" fill="white"/>
<path d="M106.051 187.504C106.032 187.507 106.012 187.507 105.993 187.504C105.931 187.504 99.9357 186.396 99.0809 179.876C99.0752 179.83 99.0783 179.784 99.0904 179.74C99.1024 179.696 99.1231 179.654 99.1511 179.618C99.2077 179.545 99.291 179.498 99.3827 179.486C99.4743 179.475 99.5668 179.5 99.6398 179.556C99.7129 179.613 99.7605 179.696 99.7721 179.788C100.551 185.793 105.878 186.786 106.106 186.825C106.198 186.833 106.283 186.877 106.342 186.947C106.401 187.018 106.43 187.109 106.422 187.2C106.414 187.292 106.37 187.377 106.3 187.436C106.229 187.495 106.138 187.524 106.046 187.516L106.051 187.504Z" fill="white"/>
<path d="M108.012 176.56C107.883 176.56 100.684 176.493 99.9472 169.357C99.9377 169.265 99.9651 169.173 100.023 169.102C100.081 169.03 100.165 168.985 100.257 168.975C100.349 168.966 100.44 168.993 100.512 169.051C100.583 169.11 100.629 169.194 100.638 169.285C101.313 175.774 107.654 175.868 108.012 175.868C108.103 175.868 108.191 175.905 108.256 175.97C108.321 176.034 108.357 176.122 108.357 176.214C108.357 176.306 108.321 176.393 108.256 176.458C108.191 176.523 108.103 176.56 108.012 176.56Z" fill="white"/>
<path d="M114.955 99.0288C114.955 99.0288 129.932 113.273 108.677 110.858C108.677 110.858 104.331 117.86 96.8473 113.999C89.3636 110.137 92.7412 103.132 98.0545 101.444C102.66 99.9758 114.955 99.0288 114.955 99.0288Z" fill="white"/>
<path d="M101.226 115.501C99.6382 115.474 98.0808 115.064 96.6865 114.305C93.5552 112.692 91.9514 110.337 92.1772 107.685C92.4192 104.821 94.7901 102.118 97.9375 101.114C102.53 99.6528 114.414 98.722 114.917 98.6828C114.965 98.6788 115.014 98.6852 115.059 98.7015C115.105 98.7178 115.147 98.7436 115.182 98.7773C115.454 99.0377 121.843 105.178 120.11 108.89C119.057 111.144 115.271 111.929 108.834 111.224C108.248 112.067 105.555 115.501 101.226 115.501ZM114.82 99.3856C113.378 99.5008 102.378 100.422 98.152 101.773C95.3018 102.678 93.0829 105.19 92.8525 107.745C92.652 110.1 94.1221 112.21 96.9999 113.69C99.9953 115.231 102.809 115.196 105.38 113.584C106.566 112.828 107.585 111.839 108.375 110.676C108.409 110.62 108.458 110.575 108.517 110.546C108.576 110.517 108.642 110.506 108.707 110.514C114.848 111.206 118.573 110.549 119.486 108.597C120.905 105.574 115.656 100.208 114.824 99.3856H114.82Z" fill="black"/>
<path d="M131.022 113.94C131.963 113.94 132.726 113.177 132.726 112.235C132.726 111.294 131.963 110.53 131.022 110.53C130.08 110.53 129.316 111.294 129.316 112.235C129.316 113.177 130.08 113.94 131.022 113.94Z" fill="#51CEF4"/>
<path d="M90.7012 123.839C91.6429 123.839 92.4064 123.075 92.4064 122.134C92.4064 121.192 91.6429 120.429 90.7012 120.429C89.7596 120.429 88.9961 121.192 88.9961 122.134C88.9961 123.075 89.7596 123.839 90.7012 123.839Z" fill="#51CEF4"/>
<path d="M73.0762 148.226C74.0179 148.226 74.7814 147.462 74.7814 146.521C74.7814 145.579 74.0179 144.815 73.0762 144.815C72.1346 144.815 71.3711 145.579 71.3711 146.521C71.3711 147.462 72.1346 148.226 73.0762 148.226Z" fill="#51CEF4"/>
<path d="M89.0098 158.848C89.9515 158.848 90.7147 158.084 90.7147 157.143C90.7147 156.201 89.9515 155.438 89.0098 155.438C88.0682 155.438 87.3047 156.201 87.3047 157.143C87.3047 158.084 88.0682 158.848 89.0098 158.848Z" fill="#51CEF4"/>
<path d="M54.9669 168.022C55.9085 168.022 56.6718 167.259 56.6718 166.317C56.6718 165.376 55.9085 164.612 54.9669 164.612C54.0252 164.612 53.2617 165.376 53.2617 166.317C53.2617 167.259 54.0252 168.022 54.9669 168.022Z" fill="#51CEF4"/>
<path d="M71.3848 195.548C72.3265 195.548 73.09 194.784 73.09 193.843C73.09 192.901 72.3265 192.138 71.3848 192.138C70.4432 192.138 69.6797 192.901 69.6797 193.843C69.6797 194.784 70.4432 195.548 71.3848 195.548Z" fill="#51CEF4"/>
<path d="M87.3223 182.267C88.264 182.267 89.0275 181.503 89.0275 180.562C89.0275 179.62 88.264 178.856 87.3223 178.856C86.3807 178.856 85.6172 179.62 85.6172 180.562C85.6172 181.503 86.3807 182.267 87.3223 182.267Z" fill="#51CEF4"/>
<path d="M90.7012 198.202C91.6429 198.202 92.4064 197.439 92.4064 196.497C92.4064 195.555 91.6429 194.792 90.7012 194.792C89.7596 194.792 88.9961 195.555 88.9961 196.497C88.9961 197.439 89.7596 198.202 90.7012 198.202Z" fill="#51CEF4"/>
<path d="M66.179 176.636C66.1011 176.636 66.0254 176.61 65.9641 176.562C65.9029 176.514 65.8597 176.446 65.8415 176.37C65.8234 176.295 65.8314 176.215 65.8642 176.144C65.8971 176.074 65.9526 176.016 66.0222 175.981C75.5981 171.143 83.4715 169.069 89.43 169.79C93.9553 170.345 95.598 172.368 95.6648 172.454C95.722 172.525 95.7483 172.617 95.738 172.708C95.7276 172.799 95.6813 172.883 95.6095 172.94C95.5377 172.997 95.4462 173.023 95.355 173.013C95.2638 173.002 95.1806 172.956 95.1235 172.884C95.1073 172.864 93.5381 170.965 89.2524 170.465C85.2571 170.004 78.0383 170.696 66.3356 176.599C66.287 176.623 66.2334 176.636 66.179 176.636Z" fill="white"/>
<path d="M67.6264 153.938C67.5467 153.938 67.4694 153.91 67.4077 153.86C67.346 153.81 67.3035 153.74 67.2875 153.661C65.0295 142.62 68.1771 126.802 71.2162 115.478C73.2322 107.982 75.6339 100.595 78.4119 93.3464C78.4265 93.3014 78.4501 93.2599 78.4814 93.2244C78.5127 93.1889 78.5511 93.1602 78.5939 93.1401C78.6368 93.12 78.6832 93.109 78.7305 93.1076C78.7778 93.1062 78.8249 93.1145 78.8689 93.132C78.9128 93.1496 78.9526 93.176 78.9859 93.2096C79.0192 93.2431 79.0454 93.2832 79.0626 93.3273C79.0798 93.3714 79.0878 93.4185 79.086 93.4658C79.0843 93.5131 79.0729 93.5595 79.0525 93.6021C78.8981 93.9915 63.6886 132.622 67.965 153.523C67.9741 153.568 67.9743 153.613 67.9657 153.658C67.9571 153.703 67.9397 153.745 67.9146 153.783C67.8896 153.821 67.8575 153.853 67.8199 153.879C67.7823 153.904 67.7399 153.922 67.6955 153.931C67.6727 153.936 67.6496 153.938 67.6264 153.938Z" fill="black"/>
<path d="M61.8329 156.359C61.7794 156.36 61.7267 156.347 61.6787 156.324C61.6308 156.3 61.5889 156.266 61.5563 156.223C56.9481 150.168 56.4366 131.929 56.4182 131.155C56.4166 131.109 56.4241 131.064 56.4402 131.021C56.4563 130.979 56.4809 130.94 56.5122 130.907C56.5435 130.874 56.5811 130.847 56.6227 130.829C56.6643 130.811 56.7091 130.801 56.7546 130.8C56.8444 130.8 56.9307 130.835 56.9949 130.898C57.0591 130.961 57.0961 131.046 57.0979 131.136C57.0979 131.325 57.6302 149.926 62.0979 155.804C62.1535 155.877 62.178 155.969 62.1659 156.06C62.1538 156.152 62.1061 156.234 62.0333 156.29C61.9752 156.333 61.9052 156.357 61.8329 156.359Z" fill="black"/>
<path d="M107.219 206.588H201.277V130.294H107.219L107.219 206.588Z" fill="white"/>
<path d="M201.277 130.296V206.59H107.219V130.296H201.277ZM201.277 129.604H107.219C107.035 129.604 106.859 129.677 106.73 129.807C106.6 129.937 106.527 130.112 106.527 130.296V206.59C106.527 206.773 106.6 206.949 106.73 207.079C106.859 207.208 107.035 207.281 107.219 207.281H201.277C201.461 207.281 201.637 207.208 201.766 207.079C201.896 206.949 201.969 206.773 201.969 206.59V130.296C201.969 130.112 201.896 129.937 201.766 129.807C201.637 129.677 201.461 129.604 201.277 129.604Z" fill="black"/>
<path d="M113.217 198.344H195.555V137.142H113.217L113.217 198.344Z" fill="#4BD657"/>
<path d="M195.553 137.141V198.344H113.215V137.141H195.553ZM195.553 136.45H113.215C113.031 136.45 112.856 136.523 112.726 136.653C112.596 136.782 112.523 136.958 112.523 137.141V198.344C112.523 198.527 112.596 198.703 112.726 198.832C112.856 198.962 113.031 199.035 113.215 199.035H195.553C195.736 199.035 195.912 198.962 196.041 198.832C196.171 198.703 196.244 198.527 196.244 198.344V137.141C196.244 136.958 196.171 136.782 196.041 136.653C195.912 136.523 195.736 136.45 195.553 136.45Z" fill="black"/>
<path d="M183.113 159.15H149.65C149.559 159.15 149.471 159.114 149.406 159.049C149.341 158.984 149.305 158.896 149.305 158.805C149.305 158.713 149.341 158.625 149.406 158.56C149.471 158.495 149.559 158.459 149.65 158.459H183.113C183.205 158.459 183.293 158.495 183.358 158.56C183.422 158.625 183.459 158.713 183.459 158.805C183.459 158.896 183.422 158.984 183.358 159.049C183.293 159.114 183.205 159.15 183.113 159.15Z" fill="black"/>
<path d="M182.233 167.735H149.65C149.559 167.735 149.471 167.699 149.406 167.634C149.341 167.569 149.305 167.481 149.305 167.39C149.305 167.298 149.341 167.21 149.406 167.145C149.471 167.08 149.559 167.044 149.65 167.044H182.233C182.325 167.044 182.412 167.08 182.477 167.145C182.542 167.21 182.579 167.298 182.579 167.39C182.579 167.481 182.542 167.569 182.477 167.634C182.412 167.699 182.325 167.735 182.233 167.735Z" fill="black"/>
<path d="M201.598 206.59H110.036C107.786 206.59 105.627 205.696 104.036 204.104C102.444 202.513 101.55 200.354 101.55 198.104H210.086C210.086 199.218 209.867 200.322 209.44 201.352C209.013 202.381 208.388 203.317 207.6 204.105C206.812 204.893 205.876 205.518 204.846 205.945C203.816 206.371 202.712 206.59 201.598 206.59Z" fill="white"/>
<path d="M210.082 198.101C210.083 199.216 209.863 200.32 209.437 201.35C209.011 202.379 208.386 203.315 207.598 204.103C206.81 204.892 205.874 205.517 204.844 205.944C203.815 206.37 202.711 206.59 201.596 206.59H110.033C108.918 206.59 107.814 206.37 106.785 205.944C105.755 205.517 104.819 204.892 104.031 204.103C103.243 203.315 102.618 202.379 102.192 201.35C101.766 200.32 101.546 199.216 101.547 198.101H210.071H210.082ZM210.762 197.41H100.855V198.101C100.858 200.535 101.825 202.868 103.546 204.589C105.266 206.31 107.599 207.278 110.033 207.281H201.596C204.03 207.278 206.363 206.31 208.083 204.589C209.804 202.868 210.771 200.535 210.774 198.101V197.41H210.762Z" fill="black"/>
<path d="M163.521 175H149.65C149.559 175 149.471 174.963 149.406 174.899C149.341 174.834 149.305 174.746 149.305 174.654C149.305 174.563 149.341 174.475 149.406 174.41C149.471 174.345 149.559 174.309 149.65 174.309H163.521C163.613 174.309 163.701 174.345 163.766 174.41C163.83 174.475 163.867 174.563 163.867 174.654C163.867 174.746 163.83 174.834 163.766 174.899C163.701 174.963 163.613 175 163.521 175Z" fill="black"/>
<path d="M139.593 155.284H126.333C123.165 155.284 120.598 157.852 120.598 161.019V172.593C120.598 175.76 123.165 178.328 126.333 178.328H139.593C142.76 178.328 145.328 175.76 145.328 172.593V161.019C145.328 157.852 142.76 155.284 139.593 155.284Z" fill="white"/>
<path d="M139.589 178.673H126.331C124.718 178.671 123.172 178.03 122.032 176.889C120.892 175.749 120.251 174.203 120.25 172.59V161.019C120.252 159.407 120.893 157.861 122.033 156.721C123.173 155.581 124.719 154.94 126.331 154.938H139.589C141.201 154.94 142.746 155.581 143.886 156.721C145.026 157.861 145.667 159.407 145.669 161.019V172.59C145.668 174.203 145.027 175.749 143.887 176.889C142.747 178.03 141.201 178.671 139.589 178.673ZM126.331 155.632C124.902 155.633 123.531 156.201 122.521 157.212C121.511 158.222 120.942 159.592 120.941 161.021V172.593C120.942 174.022 121.511 175.392 122.521 176.403C123.531 177.414 124.902 177.982 126.331 177.984H139.589C141.018 177.982 142.388 177.414 143.398 176.403C144.408 175.392 144.977 174.022 144.978 172.593V161.021C144.977 159.592 144.409 158.222 143.398 157.212C142.388 156.201 141.018 155.633 139.589 155.632H126.331Z" fill="black"/>
<path d="M133.059 173.714H133.008C132.873 173.706 132.742 173.664 132.627 173.592C132.512 173.519 132.418 173.42 132.352 173.301L126.075 161.954C126.02 161.861 125.983 161.758 125.969 161.651C125.954 161.544 125.961 161.435 125.989 161.33C126.017 161.226 126.066 161.128 126.132 161.043C126.199 160.958 126.282 160.887 126.377 160.834C126.471 160.782 126.575 160.749 126.683 160.738C126.79 160.727 126.899 160.737 127.003 160.768C127.106 160.8 127.202 160.852 127.285 160.921C127.368 160.991 127.436 161.076 127.485 161.173L133.151 171.412L137.732 165.122C137.794 165.036 137.873 164.964 137.963 164.908C138.053 164.853 138.154 164.816 138.258 164.8C138.363 164.783 138.47 164.788 138.573 164.812C138.676 164.837 138.773 164.882 138.858 164.944C138.944 165.007 139.016 165.085 139.072 165.176C139.127 165.266 139.164 165.366 139.18 165.471C139.197 165.576 139.193 165.683 139.168 165.785C139.143 165.888 139.098 165.985 139.036 166.071L133.711 173.384C133.636 173.487 133.537 173.57 133.424 173.627C133.311 173.684 133.186 173.714 133.059 173.714Z" fill="#382256"/>
<path d="M101.428 131.475C101.338 131.475 101.251 131.44 101.187 131.377C101.122 131.314 101.084 131.229 101.082 131.139C101.013 128.12 101.875 125.901 103.642 124.544C107.075 121.906 112.628 123.487 112.872 123.556C112.96 123.581 113.034 123.641 113.078 123.721C113.123 123.802 113.133 123.896 113.107 123.984C113.082 124.072 113.022 124.147 112.942 124.191C112.861 124.235 112.767 124.245 112.679 124.219C112.623 124.203 107.216 122.669 104.061 125.093C102.478 126.309 101.709 128.337 101.773 131.123C101.774 131.168 101.766 131.213 101.75 131.255C101.733 131.298 101.708 131.336 101.677 131.369C101.645 131.402 101.608 131.428 101.566 131.446C101.525 131.464 101.48 131.474 101.435 131.475H101.428Z" fill="black"/>
<path d="M113.971 133.657C113.88 133.657 113.793 133.621 113.728 133.557C113.663 133.494 113.626 133.407 113.625 133.316C113.625 133.224 113.661 133.136 113.725 133.071C113.789 133.005 113.877 132.968 113.968 132.966L144.632 132.735C144.677 132.735 144.721 132.744 144.763 132.761C144.805 132.778 144.843 132.803 144.875 132.834C144.907 132.866 144.933 132.904 144.95 132.945C144.968 132.987 144.977 133.031 144.977 133.076C144.978 133.168 144.942 133.257 144.878 133.322C144.813 133.388 144.726 133.425 144.634 133.427L113.973 133.657H113.971Z" fill="white"/>
<path d="M202.831 202.709H168.064C167.973 202.709 167.885 202.672 167.82 202.608C167.755 202.543 167.719 202.455 167.719 202.363C167.719 202.272 167.755 202.184 167.82 202.119C167.885 202.054 167.973 202.018 168.064 202.018H202.831C202.923 202.018 203.011 202.054 203.076 202.119C203.141 202.184 203.177 202.272 203.177 202.363C203.177 202.455 203.141 202.543 203.076 202.608C203.011 202.672 202.923 202.709 202.831 202.709Z" fill="white"/>
<path d="M118.085 161.659C118.04 161.658 117.995 161.649 117.953 161.631C117.912 161.613 117.874 161.587 117.843 161.554C117.811 161.522 117.787 161.483 117.77 161.441C117.753 161.399 117.745 161.354 117.746 161.309C117.829 156.975 119 153.982 121.223 152.41C124.126 150.362 127.707 151.521 127.859 151.571C127.902 151.586 127.942 151.61 127.975 151.64C128.009 151.671 128.037 151.708 128.057 151.749C128.076 151.79 128.088 151.834 128.09 151.88C128.093 151.925 128.086 151.971 128.071 152.014C128.056 152.057 128.032 152.096 128.002 152.13C127.972 152.164 127.935 152.192 127.894 152.211C127.853 152.231 127.808 152.242 127.763 152.245C127.717 152.247 127.672 152.241 127.629 152.226C127.594 152.226 124.218 151.129 121.606 152.979C119.573 154.417 118.504 157.223 118.426 161.32C118.424 161.41 118.388 161.495 118.324 161.558C118.26 161.622 118.175 161.658 118.085 161.659Z" fill="black"/>
<path d="M142.713 181.221H134.017C133.926 181.221 133.838 181.184 133.773 181.119C133.708 181.055 133.672 180.967 133.672 180.875C133.672 180.783 133.708 180.695 133.773 180.631C133.838 180.566 133.926 180.529 134.017 180.529H142.709C142.8 180.529 142.888 180.566 142.953 180.631C143.018 180.695 143.054 180.783 143.054 180.875C143.054 180.967 143.018 181.055 142.953 181.119C142.888 181.184 142.8 181.221 142.709 181.221H142.713Z" fill="black"/>
<path d="M182.789 149.26C182.789 149.26 158.914 137.258 161.787 153.392L150.11 160.954C150.11 160.954 149.564 168.885 160.515 166.055C160.515 166.055 162.992 170.608 167.723 171.332C167.723 171.332 168.216 175.749 177.05 174.763C185.884 173.776 193.517 163.138 193.517 163.138L182.789 149.26Z" fill="#FFCDB2"/>
<path d="M174.613 175.253C172.092 175.253 170.163 174.728 168.852 173.686C168.172 173.17 167.673 172.451 167.428 171.633C163.297 170.887 160.921 167.403 160.343 166.454C156.454 167.415 153.555 167.145 151.726 165.615C149.585 163.836 149.751 161.048 149.76 160.931C149.763 160.877 149.779 160.825 149.806 160.779C149.834 160.733 149.872 160.694 149.917 160.666L161.401 153.226C160.825 149.733 161.468 147.265 163.315 145.885C168.7 141.873 182.359 148.661 182.937 148.952C182.984 148.975 183.024 149.008 183.057 149.048L193.785 162.926C193.83 162.986 193.854 163.058 193.854 163.132C193.854 163.207 193.83 163.279 193.785 163.339C193.47 163.779 185.951 174.115 177.073 175.106C176.256 175.2 175.435 175.25 174.613 175.253ZM160.516 165.709C160.578 165.71 160.639 165.726 160.693 165.758C160.746 165.789 160.79 165.835 160.82 165.889C160.845 165.933 163.276 170.302 167.776 170.991C167.851 171.002 167.92 171.037 167.973 171.092C168.025 171.147 168.058 171.217 168.067 171.292C168.087 171.456 168.672 175.35 177.011 174.419C184.919 173.537 191.97 164.617 193.085 163.129L182.566 149.535C181.5 149.011 168.594 142.818 163.737 146.44C162.076 147.68 161.534 149.998 162.124 153.332C162.136 153.399 162.128 153.468 162.101 153.53C162.074 153.592 162.029 153.645 161.972 153.682L150.452 161.145C150.452 161.737 150.59 163.769 152.18 165.087C153.869 166.486 156.645 166.7 160.431 165.719C160.458 165.712 160.486 165.709 160.514 165.709H160.516Z" fill="black"/>
<path d="M113.832 103.983C128.475 96.7318 191.419 84.9277 210.568 101.172C229.718 117.416 213.024 149.263 209.623 154.303C206.223 159.342 198.923 157.816 198.923 157.816L193.504 163.346L177.836 147.194L180.652 144.25C180.652 144.25 166.573 141.333 184.688 119.651" fill="#07ACEE"/>
<path d="M193.503 163.69C193.457 163.69 193.411 163.68 193.368 163.662C193.325 163.644 193.287 163.617 193.254 163.584L177.586 147.435C177.524 147.37 177.49 147.284 177.49 147.195C177.49 147.106 177.524 147.02 177.586 146.955L180.006 144.421C178.897 144.045 176.503 142.928 175.517 140.098C173.884 135.409 176.879 128.453 184.423 119.426C184.451 119.388 184.486 119.357 184.527 119.333C184.568 119.31 184.613 119.295 184.659 119.29C184.706 119.285 184.753 119.289 184.798 119.302C184.843 119.315 184.885 119.338 184.921 119.368C184.957 119.398 184.986 119.435 185.007 119.477C185.028 119.519 185.041 119.564 185.044 119.611C185.047 119.658 185.04 119.705 185.025 119.749C185.009 119.793 184.985 119.834 184.953 119.868C175.773 130.856 175.107 136.808 176.167 139.863C177.308 143.153 180.685 143.9 180.72 143.907C180.781 143.919 180.837 143.947 180.883 143.988C180.929 144.03 180.963 144.082 180.981 144.141C181 144.2 181.002 144.263 180.987 144.323C180.973 144.383 180.943 144.439 180.9 144.483L178.317 147.188L193.503 162.856L198.674 157.582C198.714 157.54 198.765 157.51 198.82 157.493C198.876 157.476 198.935 157.473 198.992 157.485C199.061 157.499 206.104 158.9 209.335 154.116C210.932 151.75 215.987 142.596 218.21 131.875C220.994 118.472 218.346 108.232 210.342 101.442C199.342 92.1102 174.418 92.8476 160.54 94.1171C140.58 95.9443 121.193 100.73 113.983 104.299C113.901 104.34 113.806 104.346 113.719 104.317C113.632 104.287 113.561 104.225 113.52 104.142C113.48 104.06 113.473 103.965 113.503 103.878C113.532 103.791 113.595 103.72 113.677 103.679C120.944 100.083 140.437 95.2646 160.476 93.4305C174.462 92.1494 199.595 91.419 210.789 100.914C215.254 104.702 218.123 109.628 219.314 115.557C220.291 120.414 220.146 125.951 218.888 132.015C216.641 142.845 211.514 152.107 209.902 154.504C206.724 159.213 200.224 158.393 199.036 158.19L193.736 163.589C193.674 163.65 193.591 163.686 193.503 163.69Z" fill="black"/>
<path d="M198.548 157.476H198.49L193.324 162.806L178.348 147.193L181.03 144.354C180.492 144.219 179.974 144.014 179.488 143.746C187.377 145.299 195.244 153.608 198.548 157.476Z" fill="#0598C6"/>
<path d="M161.784 153.756C161.707 153.756 161.632 153.73 161.57 153.683C161.509 153.635 161.466 153.568 161.448 153.493C161.429 153.418 161.436 153.339 161.468 153.268C161.5 153.197 161.554 153.139 161.623 153.104L165.748 150.929C165.829 150.886 165.924 150.877 166.012 150.904C166.099 150.931 166.173 150.992 166.215 151.074C166.258 151.155 166.267 151.25 166.24 151.338C166.212 151.425 166.152 151.499 166.07 151.541L161.946 153.714C161.896 153.741 161.841 153.756 161.784 153.756Z" fill="black"/>
<path d="M160.549 166.289C160.504 166.292 160.459 166.286 160.416 166.271C160.373 166.256 160.333 166.232 160.299 166.202C160.265 166.172 160.238 166.135 160.218 166.094C160.198 166.053 160.187 166.009 160.184 165.963C160.182 165.918 160.188 165.872 160.203 165.83C160.218 165.787 160.241 165.747 160.272 165.713C160.302 165.679 160.339 165.652 160.379 165.632C160.42 165.612 160.465 165.601 160.51 165.598C164.609 165.098 168.422 163.238 171.34 160.315C171.401 160.246 171.486 160.205 171.578 160.2C171.67 160.195 171.76 160.226 171.828 160.287C171.897 160.348 171.938 160.434 171.943 160.526C171.948 160.617 171.917 160.707 171.856 160.776C171.685 160.967 167.598 165.483 160.591 166.287L160.549 166.289Z" fill="black"/>
<path d="M167.53 171.624H167.424C167.332 171.624 167.244 171.587 167.179 171.523C167.115 171.458 167.078 171.37 167.078 171.278C167.078 171.187 167.115 171.099 167.179 171.034C167.244 170.969 167.332 170.933 167.424 170.933H167.525C172.677 170.933 177.315 166.225 177.364 166.177C177.428 166.115 177.514 166.08 177.604 166.08C177.694 166.08 177.78 166.115 177.844 166.178C177.909 166.24 177.946 166.326 177.949 166.415C177.952 166.505 177.92 166.592 177.859 166.658C177.663 166.864 172.974 171.624 167.53 171.624Z" fill="black"/>
<path d="M151.838 103.203C152.779 103.203 153.543 102.44 153.543 101.498C153.543 100.556 152.779 99.793 151.838 99.793C150.896 99.793 150.133 100.556 150.133 101.498C150.133 102.44 150.896 103.203 151.838 103.203Z" fill="#51CEF4"/>
<path d="M163.803 116.412C164.744 116.412 165.508 115.649 165.508 114.707C165.508 113.765 164.744 113.002 163.803 113.002C162.861 113.002 162.098 113.765 162.098 114.707C162.098 115.649 162.861 116.412 163.803 116.412Z" fill="#51CEF4"/>
<path d="M192.678 107.514C193.619 107.514 194.383 106.751 194.383 105.809C194.383 104.867 193.619 104.104 192.678 104.104C191.736 104.104 190.973 104.867 190.973 105.809C190.973 106.751 191.736 107.514 192.678 107.514Z" fill="#51CEF4"/>
<path d="M210.998 125.341C211.94 125.341 212.703 124.577 212.703 123.636C212.703 122.694 211.94 121.931 210.998 121.931C210.056 121.931 209.293 122.694 209.293 123.636C209.293 124.577 210.056 125.341 210.998 125.341Z" fill="#51CEF4"/>
<path d="M203.49 142.486C204.432 142.486 205.195 141.723 205.195 140.781C205.195 139.84 204.432 139.076 203.49 139.076C202.548 139.076 201.785 139.84 201.785 140.781C201.785 141.723 202.548 142.486 203.49 142.486Z" fill="#51CEF4"/>
<path d="M213.484 138.35C213.448 138.35 213.413 138.345 213.378 138.334C213.334 138.321 213.293 138.299 213.257 138.27C213.222 138.241 213.192 138.205 213.171 138.165C213.15 138.124 213.136 138.08 213.132 138.034C213.128 137.988 213.134 137.942 213.148 137.898C217.005 126.027 215.623 117.979 213.786 113.32C211.8 108.279 208.865 106.002 208.835 105.979C208.762 105.924 208.714 105.841 208.702 105.751C208.69 105.66 208.714 105.568 208.77 105.495C208.826 105.423 208.908 105.376 208.998 105.364C209.089 105.351 209.18 105.374 209.254 105.429C209.378 105.525 212.348 107.818 214.411 113.018C216.302 117.79 217.733 126.018 213.804 138.11C213.783 138.179 213.74 138.239 213.683 138.281C213.625 138.324 213.556 138.348 213.484 138.35Z" fill="white"/>
<path d="M173.418 173.847H173.084C172.992 173.847 172.904 173.811 172.84 173.746C172.775 173.681 172.738 173.593 172.738 173.501C172.738 173.41 172.775 173.322 172.84 173.257C172.904 173.192 172.992 173.156 173.084 173.156H173.416C184.224 173.156 187.215 166.191 187.241 166.119C187.258 166.077 187.283 166.039 187.315 166.007C187.347 165.974 187.385 165.949 187.427 165.931C187.469 165.914 187.514 165.904 187.56 165.904C187.605 165.904 187.65 165.913 187.692 165.93C187.734 165.947 187.772 165.973 187.805 166.005C187.837 166.037 187.862 166.075 187.88 166.117C187.898 166.159 187.907 166.204 187.907 166.249C187.907 166.295 187.898 166.34 187.881 166.382C187.846 166.458 184.678 173.847 173.418 173.847Z" fill="white"/>
<path d="M167.392 170.371C166.809 170.379 166.231 170.262 165.697 170.028C165.616 169.988 165.554 169.918 165.524 169.834C165.494 169.749 165.498 169.656 165.535 169.575C165.572 169.493 165.639 169.429 165.723 169.396C165.806 169.363 165.899 169.364 165.982 169.399C169.577 171.032 175.977 165.164 176.042 165.104C176.074 165.066 176.113 165.035 176.158 165.014C176.202 164.993 176.25 164.981 176.3 164.981C176.349 164.98 176.398 164.989 176.443 165.009C176.489 165.028 176.529 165.057 176.562 165.094C176.595 165.13 176.62 165.173 176.635 165.22C176.651 165.267 176.656 165.317 176.65 165.366C176.644 165.414 176.628 165.462 176.603 165.504C176.577 165.546 176.543 165.583 176.503 165.611C176.272 165.832 171.316 170.371 167.392 170.371Z" fill="white"/>
<path d="M156.583 165.147C155.774 165.157 154.969 165.041 154.196 164.801C154.151 164.789 154.11 164.767 154.074 164.738C154.038 164.709 154.008 164.672 153.986 164.631C153.964 164.59 153.951 164.545 153.947 164.499C153.943 164.453 153.948 164.406 153.962 164.362C153.977 164.318 154 164.277 154.031 164.242C154.061 164.207 154.099 164.178 154.14 164.158C154.182 164.138 154.228 164.126 154.274 164.124C154.32 164.122 154.367 164.129 154.41 164.145C159.737 165.866 168.83 159.875 168.926 159.815C168.964 159.786 169.007 159.765 169.053 159.754C169.099 159.742 169.147 159.74 169.194 159.748C169.24 159.755 169.285 159.773 169.325 159.798C169.365 159.824 169.399 159.858 169.425 159.897C169.452 159.937 169.47 159.981 169.478 160.028C169.486 160.074 169.485 160.122 169.474 160.168C169.463 160.215 169.443 160.258 169.414 160.296C169.386 160.334 169.35 160.366 169.309 160.389C168.97 160.613 162.088 165.147 156.583 165.147Z" fill="white"/>
<path d="M227.115 117.346C227.093 117.348 227.071 117.348 227.048 117.346C227.003 117.337 226.961 117.32 226.923 117.295C226.885 117.27 226.852 117.238 226.826 117.2C226.801 117.162 226.783 117.12 226.774 117.075C226.765 117.031 226.765 116.985 226.774 116.94C228.53 108.009 226.657 101.028 221.207 96.1891C218.683 93.9783 215.675 92.3925 212.424 91.5601C212.334 91.5415 212.255 91.4879 212.205 91.4112C212.155 91.3345 212.137 91.241 212.156 91.1511C212.174 91.0613 212.228 90.9825 212.305 90.9322C212.381 90.8819 212.475 90.8641 212.565 90.8827C215.929 91.7248 219.042 93.3602 221.645 95.6522C225.537 99.1084 229.71 105.613 227.454 117.081C227.436 117.157 227.392 117.224 227.331 117.272C227.269 117.32 227.193 117.346 227.115 117.346Z" fill="black"/>
<path d="M109.857 67.0862C114.891 67.0862 118.972 63.0052 118.972 57.9711C118.972 52.9369 114.891 48.856 109.857 48.856C104.823 48.856 100.742 52.9369 100.742 57.9711C100.742 63.0052 104.823 67.0862 109.857 67.0862Z" fill="#382256"/>
<path d="M109.867 48.8563C111.89 48.8579 113.856 49.5328 115.454 50.7746C117.051 52.0165 118.19 53.7546 118.691 55.7152C119.192 57.6758 119.026 59.7473 118.22 61.6033C117.414 63.4593 116.013 64.9942 114.238 65.9662C112.463 66.9382 110.415 67.2919 108.417 66.9717C106.419 66.6514 104.585 65.6754 103.202 64.1975C101.82 62.7195 100.969 60.8237 100.783 58.8087C100.597 56.7937 101.087 54.7741 102.176 53.0682C102.997 51.7735 104.134 50.7081 105.479 49.9715C106.824 49.2349 108.333 48.8512 109.867 48.8563ZM109.867 48.165C107.505 48.1623 105.223 49.0115 103.437 50.5567C101.652 52.1019 100.483 54.2393 100.147 56.5766C99.8106 58.9138 100.329 61.2939 101.606 63.2798C102.883 65.2658 104.834 66.7243 107.1 67.3875C109.367 68.0508 111.796 67.8742 113.943 66.8902C116.089 65.9063 117.809 64.181 118.786 62.0312C119.762 59.8814 119.931 57.4514 119.26 55.1873C118.589 52.9233 117.124 50.9773 115.134 49.7065C113.562 48.7 111.734 48.165 109.867 48.165Z" fill="black"/>
<path d="M132.317 88.7338C132.317 88.7338 139.178 83.8952 137.07 77.9667C134.962 72.0381 133.434 72.37 132.526 69.1695C131.619 65.9691 126.416 62.317 121.223 63.264C121.223 63.264 115.448 57.9369 109.642 58.8194C103.835 59.7019 101.577 62.1972 99.5244 66.453C97.4714 70.7087 95.6604 72.5059 94.1097 75.439C92.559 78.3722 89.8288 86.8122 101.197 94.3905C112.566 101.969 132.317 88.7338 132.317 88.7338Z" fill="#382256"/>
<path d="M110.977 58.7206C116.304 58.7206 121.23 63.2643 121.23 63.2643C121.791 63.1626 122.36 63.1117 122.931 63.1123C127.511 63.1123 131.728 66.3196 132.534 69.1698C133.442 72.3702 134.967 72.0338 137.078 77.9669C139.189 83.9 132.325 88.7341 132.325 88.7341C132.325 88.7341 120.385 96.7409 109.728 96.7409C106.68 96.7409 103.737 96.0843 101.203 94.3999C89.8343 86.8217 92.5647 78.3909 94.1154 75.4485C95.6661 72.5062 97.4702 70.7067 99.5301 66.4625C101.59 62.2183 103.841 59.709 109.648 58.8289C110.087 58.7628 110.53 58.7297 110.975 58.7298L110.977 58.7206ZM110.975 58.0386C110.496 58.0387 110.017 58.0741 109.544 58.1446C103.447 59.0662 101.018 61.7851 98.9079 66.1606C97.9664 68.0862 96.8754 69.9352 95.6452 71.6905C94.8672 72.8013 94.1525 73.9552 93.5047 75.1467C92.1823 77.6515 91.6978 80.5143 92.1222 83.3148C92.8135 87.6926 95.742 91.6096 100.811 94.9944C103.258 96.6257 106.254 97.4529 109.717 97.4529C115.348 97.4529 121.299 95.2409 125.302 93.3861C127.86 92.2112 130.332 90.8553 132.698 89.3286H132.712C133.972 88.3898 135.091 87.2747 136.034 86.0175C138.078 83.271 138.661 80.4185 137.716 77.7641C136.513 74.3771 135.486 72.9624 134.659 71.8265C134.02 70.9486 133.56 70.3149 133.189 69.0085C132.311 65.9048 127.875 62.4486 122.919 62.4486C122.421 62.4487 121.924 62.4849 121.431 62.5569C120.32 61.603 115.859 58.057 110.965 58.057L110.975 58.0386Z" fill="black"/>
<path d="M110.584 80.3514H110.552C106.494 79.9873 102.948 75.674 102.808 75.4897C102.75 75.4185 102.723 75.3272 102.732 75.2361C102.742 75.1449 102.787 75.0612 102.858 75.0035C102.93 74.9457 103.021 74.9186 103.112 74.9281C103.203 74.9376 103.287 74.9829 103.345 75.0541C103.379 75.0979 106.849 79.326 110.614 79.6624C110.706 79.6664 110.792 79.7066 110.854 79.7742C110.916 79.8418 110.949 79.9314 110.945 80.023C110.941 80.1147 110.901 80.201 110.833 80.263C110.765 80.325 110.676 80.3576 110.584 80.3536V80.3514Z" fill="black"/>
<path d="M110.497 77.7316C109.574 77.7263 108.657 77.5969 107.769 77.3468C107.685 77.3191 107.614 77.2601 107.572 77.1821C107.53 77.104 107.52 77.0129 107.544 76.9274C107.567 76.842 107.622 76.7688 107.698 76.7229C107.774 76.677 107.864 76.662 107.951 76.6809C115.642 78.7869 118.854 71.0865 118.987 70.757C119.022 70.6721 119.089 70.6043 119.173 70.5687C119.258 70.5331 119.353 70.5324 119.438 70.567C119.523 70.6015 119.591 70.6683 119.626 70.7528C119.662 70.8373 119.663 70.9325 119.628 71.0174C119.598 71.0935 116.84 77.7316 110.497 77.7316Z" fill="white"/>
<path d="M100.869 49.3006C100.829 49.3003 100.79 49.2933 100.753 49.2799C100.711 49.2649 100.671 49.2416 100.637 49.2114C100.604 49.1811 100.576 49.1444 100.557 49.1035C100.537 49.0626 100.526 49.0182 100.524 48.973C100.522 48.9277 100.528 48.8825 100.544 48.8398C101.288 46.7431 102.525 45.2776 104.23 44.4804C107.207 43.0772 110.507 44.25 110.645 44.3007C110.725 44.3357 110.789 44.3998 110.823 44.4799C110.858 44.5601 110.861 44.6504 110.832 44.7327C110.803 44.815 110.743 44.8831 110.666 44.9235C110.589 44.9639 110.499 44.9736 110.414 44.9504C110.385 44.9389 107.242 43.826 104.525 45.1071C103.007 45.8237 101.894 47.1578 101.214 49.0702C101.189 49.1409 101.142 49.2016 101.08 49.2432C101.018 49.2847 100.943 49.3049 100.869 49.3006Z" fill="black"/>
<path d="M103.834 55.4392C103.774 55.4391 103.715 55.4235 103.663 55.394C103.611 55.3645 103.568 55.3221 103.537 55.2708C103.507 55.2195 103.49 55.1611 103.488 55.1014C103.487 55.0416 103.501 54.9826 103.529 54.9299C104.647 52.8562 106.117 51.5843 107.891 51.1581C110.767 50.4668 113.373 52.2479 113.481 52.324C113.553 52.3772 113.602 52.4564 113.617 52.5449C113.632 52.6335 113.612 52.7243 113.561 52.7982C113.51 52.8722 113.432 52.9234 113.344 52.9411C113.256 52.9588 113.165 52.9416 113.089 52.8931C113.064 52.8747 110.619 51.2134 108.048 51.8332C106.474 52.2111 105.158 53.3631 104.131 55.2571C104.102 55.3112 104.059 55.3566 104.007 55.3886C103.955 55.4206 103.895 55.4381 103.834 55.4392Z" fill="white"/>
<path d="M114.119 101.178V104.8C114.119 104.8 107.843 114.214 95.7695 106.489C95.7695 106.489 101.691 97.9771 104.862 87.8759C104.862 87.8759 100.394 86.6639 101.311 82.6593C102.228 78.6547 105.511 78.1317 107.373 79.3229C107.373 79.3229 114.61 84.9243 123.041 69.6641C123.041 69.6641 130.852 73.3507 132.092 81.6663C133.331 89.9818 131.218 99.461 124.753 101.887C118.288 104.313 114.119 101.178 114.119 101.178Z" fill="#FFCDB2"/>
<path d="M123.043 69.6639C123.043 69.6639 130.854 73.3505 132.094 81.6661C133.333 89.9817 131.22 99.4608 124.755 101.887C123.211 102.484 121.572 102.797 119.916 102.809C116.283 102.809 114.115 101.177 114.115 101.177V104.799C114.115 104.799 110.958 109.534 104.817 109.534C102.299 109.534 99.2876 108.737 95.7646 106.488C95.7646 106.488 101.686 97.977 104.857 87.8757C104.857 87.8757 100.389 86.6637 101.306 82.6591C101.946 79.8596 103.746 78.7629 105.407 78.7629C106.101 78.7588 106.781 78.953 107.368 79.3228C108.383 79.9994 109.581 80.3492 110.801 80.3251C113.711 80.3251 118.174 78.4633 123.038 69.6639H123.043ZM123.038 68.9727C122.915 68.9725 122.793 69.0056 122.687 69.0684C122.58 69.1312 122.492 69.2215 122.433 69.3298C117.728 77.8551 113.511 79.6361 110.801 79.6361C109.734 79.6553 108.685 79.3553 107.79 78.7744L107.741 78.7421C107.042 78.3038 106.233 78.0722 105.407 78.0739C103.589 78.0739 101.38 79.2375 100.631 82.5071C100.193 84.4218 100.771 86.0808 102.306 87.3112C102.821 87.7173 103.389 88.0506 103.995 88.3019C100.847 97.9147 95.2554 106.014 95.1977 106.097C95.1447 106.173 95.1075 106.259 95.0886 106.351C95.0697 106.442 95.0694 106.536 95.0877 106.627C95.106 106.718 95.1425 106.805 95.195 106.881C95.2476 106.958 95.3151 107.024 95.3935 107.074C98.6631 109.166 101.834 110.228 104.817 110.228C111.253 110.228 114.552 105.389 114.691 105.184C114.766 105.071 114.806 104.938 114.806 104.802V102.373C116.403 103.128 118.15 103.513 119.916 103.5C121.65 103.485 123.368 103.158 124.986 102.534C128.197 101.329 130.607 98.447 131.96 94.1982C133.14 90.4932 133.425 86.007 132.764 81.5647C132.237 78.0025 130.437 74.7076 127.564 72.0348C126.3 70.8416 124.873 69.8331 123.326 69.0395C123.234 68.9961 123.133 68.9733 123.032 68.9727H123.038Z" fill="black"/>
<path d="M114.237 101.886C114.2 101.886 114.163 101.88 114.128 101.867C110.442 100.639 107.767 96.7568 107.654 96.5932C107.628 96.5557 107.61 96.5134 107.601 96.469C107.592 96.4245 107.591 96.3787 107.6 96.3341C107.608 96.2895 107.625 96.247 107.65 96.209C107.675 96.171 107.707 96.1383 107.745 96.1127C107.782 96.0872 107.825 96.0693 107.869 96.06C107.913 96.0507 107.959 96.0503 108.004 96.0588C108.048 96.0672 108.091 96.0844 108.129 96.1092C108.167 96.1341 108.2 96.1662 108.225 96.2037C108.253 96.2429 110.882 100.056 114.347 101.213C114.425 101.239 114.49 101.292 114.532 101.362C114.574 101.433 114.59 101.515 114.577 101.596C114.564 101.677 114.522 101.75 114.46 101.803C114.397 101.856 114.318 101.886 114.237 101.886Z" fill="black"/>
<path d="M104.971 85.9985C104.908 85.9986 104.847 85.9818 104.793 85.9497C104.739 85.9177 104.694 85.8717 104.664 85.8165C103.84 84.2682 103.69 83.0147 104.222 82.0907C104.987 80.7589 106.854 80.6737 106.934 80.6714C106.98 80.6689 107.025 80.6756 107.068 80.6911C107.111 80.7066 107.15 80.7305 107.183 80.7615C107.216 80.7924 107.243 80.8298 107.262 80.8713C107.28 80.9129 107.29 80.9577 107.291 81.0032C107.294 81.0947 107.261 81.1838 107.199 81.2511C107.137 81.3184 107.051 81.3584 106.959 81.3626C106.934 81.3626 105.39 81.441 104.819 82.4363C104.416 83.1414 104.57 84.169 105.28 85.4893C105.307 85.542 105.321 85.6009 105.319 85.6604C105.318 85.7199 105.301 85.7779 105.27 85.829C105.24 85.8801 105.196 85.9225 105.145 85.9522C105.093 85.9819 105.035 85.9978 104.976 85.9985H104.971Z" fill="black"/>
<path d="M122.694 81.9619C118.012 82.3144 112.148 79.4873 110.874 80.9688C109.6 82.4504 110.107 84.7383 112.499 85.6116C114.89 86.4849 117.337 86.7407 122.406 87.0241C127.475 87.3075 132.448 87.2084 132.241 84.4526C132.033 81.6969 129.579 81.4412 122.694 81.9619Z" fill="#FFB49F"/>
<path d="M128.369 79.7224C128.319 79.7227 128.27 79.7122 128.224 79.6915C128.179 79.6708 128.139 79.6405 128.106 79.6026C128.092 79.5865 126.751 78.0404 125.067 78.1671C125.022 78.1705 124.976 78.1648 124.933 78.1505C124.89 78.1362 124.85 78.1136 124.815 78.0838C124.781 78.0541 124.753 78.0179 124.732 77.9772C124.712 77.9366 124.7 77.8923 124.696 77.8469C124.693 77.8015 124.699 77.7559 124.713 77.7127C124.727 77.6695 124.75 77.6295 124.779 77.5951C124.809 77.5606 124.845 77.5324 124.886 77.5119C124.927 77.4915 124.971 77.4792 125.016 77.4759C127.051 77.3261 128.567 79.075 128.632 79.151C128.674 79.2012 128.702 79.2626 128.71 79.3279C128.719 79.3931 128.709 79.4595 128.682 79.5193C128.654 79.5791 128.61 79.6298 128.555 79.6654C128.499 79.7009 128.435 79.7199 128.369 79.7201V79.7224Z" fill="black"/>
<path d="M123.174 90.3716C123.095 90.3716 123.018 90.3443 122.957 90.2943C122.896 90.2444 122.854 90.1748 122.838 90.0973L121.296 82.6642C121.278 82.5744 121.295 82.4809 121.346 82.4042C121.396 82.3275 121.475 82.2739 121.565 82.2553C121.655 82.2366 121.748 82.2544 121.825 82.3048C121.902 82.3551 121.955 82.4339 121.974 82.5237L123.515 89.9568C123.524 90.0013 123.524 90.0471 123.516 90.0917C123.507 90.1363 123.49 90.1787 123.465 90.2166C123.44 90.2545 123.407 90.287 123.37 90.3124C123.332 90.3378 123.29 90.3556 123.246 90.3646C123.222 90.3693 123.198 90.3717 123.174 90.3716Z" fill="black"/>
<path d="M103.02 89.1258C103.845 89.1258 104.513 88.4573 104.513 87.6327C104.513 86.8081 103.845 86.1396 103.02 86.1396C102.196 86.1396 101.527 86.8081 101.527 87.6327C101.527 88.4573 102.196 89.1258 103.02 89.1258Z" fill="#07ACEE"/>
<path d="M103.022 86.1419C103.353 86.1419 103.674 86.252 103.935 86.4547C104.197 86.6575 104.384 86.9415 104.466 87.262C104.548 87.5825 104.521 87.9213 104.39 88.225C104.259 88.5286 104.03 88.7799 103.74 88.9392C103.45 89.0986 103.115 89.1569 102.788 89.105C102.461 89.0532 102.161 88.894 101.935 88.6527C101.708 88.4114 101.569 88.1017 101.538 87.7722C101.507 87.4428 101.586 87.1124 101.764 86.8332C101.898 86.6208 102.083 86.4459 102.303 86.325C102.524 86.2041 102.771 86.1411 103.022 86.1419ZM103.022 85.4507C102.497 85.4507 101.989 85.6402 101.592 85.9842C101.196 86.3283 100.936 86.8039 100.862 87.3237C100.787 87.8436 100.903 88.3728 101.188 88.8143C101.472 89.2558 101.906 89.5799 102.41 89.7272C102.914 89.8744 103.454 89.8349 103.932 89.616C104.409 89.397 104.791 89.0133 105.009 88.5352C105.226 88.0571 105.263 87.5167 105.114 87.0132C104.965 86.5096 104.639 86.0768 104.197 85.794C103.846 85.5692 103.438 85.45 103.022 85.4507Z" fill="black"/>
<path d="M114.978 84.3445C115.445 84.3445 115.824 83.9659 115.824 83.4989C115.824 83.0319 115.445 82.6533 114.978 82.6533C114.511 82.6533 114.133 83.0319 114.133 83.4989C114.133 83.9659 114.511 84.3445 114.978 84.3445Z" fill="black"/>
<path d="M127.342 85.1946C127.809 85.1946 128.187 84.816 128.187 84.349C128.187 83.882 127.809 83.5034 127.342 83.5034C126.875 83.5034 126.496 83.882 126.496 84.349C126.496 84.816 126.875 85.1946 127.342 85.1946Z" fill="black"/>
<path d="M117.847 96.6829C117.124 96.6848 116.408 96.5438 115.739 96.2681C112.578 94.9686 111.294 91.0977 111.242 90.9318C111.219 90.8465 111.231 90.7559 111.273 90.6787C111.316 90.6014 111.386 90.5433 111.47 90.5162C111.554 90.4891 111.645 90.4951 111.725 90.533C111.804 90.5708 111.866 90.6377 111.898 90.7199C111.912 90.7567 113.143 94.4548 116.007 95.6299C117.504 96.2451 119.207 96.07 121.076 95.1069C121.156 95.0697 121.248 95.0651 121.332 95.0939C121.416 95.1227 121.486 95.1828 121.527 95.2617C121.568 95.3405 121.577 95.4321 121.552 95.5175C121.527 95.6028 121.47 95.6752 121.394 95.7198C120.306 96.3207 119.09 96.651 117.847 96.6829Z" fill="black"/>
<path d="M119.633 77.6735C119.586 77.6736 119.539 77.664 119.496 77.6454C119.453 77.6268 119.414 77.5995 119.382 77.5652C119.151 77.3348 118.409 76.7011 117.914 76.874C117.871 76.8891 117.826 76.8956 117.781 76.8932C117.735 76.8908 117.691 76.8795 117.65 76.8599C117.609 76.8403 117.572 76.8129 117.542 76.7791C117.511 76.7453 117.488 76.7059 117.473 76.6631C117.458 76.6203 117.451 76.5749 117.454 76.5296C117.456 76.4842 117.467 76.4398 117.487 76.3988C117.506 76.3579 117.534 76.3211 117.568 76.2908C117.601 76.2604 117.641 76.237 117.684 76.2219C118.688 75.8716 119.757 76.9615 119.882 77.0882C119.929 77.1368 119.961 77.1982 119.974 77.2649C119.986 77.3315 119.978 77.4003 119.952 77.4626C119.925 77.525 119.881 77.5781 119.824 77.6152C119.767 77.6523 119.701 77.6718 119.633 77.6712V77.6735Z" fill="black"/>
<path d="M97.8072 105.899C97.7407 105.9 97.6755 105.88 97.6195 105.844C97.5636 105.809 97.5192 105.757 97.4917 105.697C97.4642 105.636 97.4549 105.569 97.4647 105.503C97.4745 105.437 97.5029 105.376 97.5468 105.326C100.851 101.549 104.215 93.4318 104.247 93.3442C104.264 93.3022 104.29 93.2639 104.322 93.2317C104.354 93.1994 104.392 93.1738 104.434 93.1562C104.476 93.1387 104.521 93.1296 104.566 93.1294C104.612 93.1292 104.657 93.138 104.699 93.1553C104.741 93.1725 104.779 93.1979 104.811 93.2299C104.844 93.262 104.869 93.3 104.887 93.342C104.904 93.3839 104.914 93.4289 104.914 93.4743C104.914 93.5198 104.905 93.5648 104.888 93.6069C104.747 93.9433 101.445 101.902 98.0675 105.775C98.0357 105.813 97.9961 105.844 97.9512 105.866C97.9062 105.887 97.857 105.899 97.8072 105.899Z" fill="white"/>
<defs>
<filter id="filter0_d_10204_60338" x="-2.82472" y="75.6952" width="27.169" height="27.167" filterUnits="userSpaceOnUse" color-interpolation-filters="sRGB">
<feFlood flood-opacity="0" result="BackgroundImageFix"/>
<feColorMatrix in="SourceAlpha" type="matrix" values="0 0 0 0 0 0 0 0 0 0 0 0 0 0 0 0 0 0 127 0" result="hardAlpha"/>
<feOffset dy="1.43057"/>
<feGaussianBlur stdDeviation="3.57642"/>
<feComposite in2="hardAlpha" operator="out"/>
<feColorMatrix type="matrix" values="0 0 0 0 0 0 0 0 0 0 0 0 0 0 0 0 0 0 0.05 0"/>
<feBlend mode="normal" in2="BackgroundImageFix" result="effect1_dropShadow_10204_60338"/>
<feBlend mode="normal" in="SourceGraphic" in2="effect1_dropShadow_10204_60338" result="shape"/>
</filter>
<filter id="filter1_d_10204_60338" x="260.296" y="116.027" width="27.169" height="27.17" filterUnits="userSpaceOnUse" color-interpolation-filters="sRGB">
<feFlood flood-opacity="0" result="BackgroundImageFix"/>
<feColorMatrix in="SourceAlpha" type="matrix" values="0 0 0 0 0 0 0 0 0 0 0 0 0 0 0 0 0 0 127 0" result="hardAlpha"/>
<feOffset dy="1.43057"/>
<feGaussianBlur stdDeviation="3.57642"/>
<feComposite in2="hardAlpha" operator="out"/>
<feColorMatrix type="matrix" values="0 0 0 0 0 0 0 0 0 0 0 0 0 0 0 0 0 0 0.05 0"/>
<feBlend mode="normal" in2="BackgroundImageFix" result="effect1_dropShadow_10204_60338"/>
<feBlend mode="normal" in="SourceGraphic" in2="effect1_dropShadow_10204_60338" result="shape"/>
</filter>
<linearGradient id="paint0_linear_10204_60338" x1="14.3628" y1="78.6815" x2="275.328" y2="140.839" gradientUnits="userSpaceOnUse">
<stop stop-color="#CDD5E2"/>
<stop offset="1" stop-color="#CDD5E2" stop-opacity="0"/>
</linearGradient>
<linearGradient id="paint1_linear_10204_60338" x1="274.879" y1="137.251" x2="248.501" y2="206.5" gradientUnits="userSpaceOnUse">
<stop stop-color="#CDD5E2"/>
<stop offset="1" stop-color="#CDD5E2" stop-opacity="0"/>
</linearGradient>
<linearGradient id="paint2_linear_10204_60338" x1="138" y1="16.335" x2="138" y2="256.335" gradientUnits="userSpaceOnUse">
<stop stop-color="#CDD5E2"/>
<stop offset="1" stop-color="#CDD5E2" stop-opacity="0"/>
</linearGradient>
<linearGradient id="paint3_linear_10204_60338" x1="138" y1="40.335" x2="138" y2="232.335" gradientUnits="userSpaceOnUse">
<stop stop-color="#CDD5E2"/>
<stop offset="1" stop-color="#CDD5E2" stop-opacity="0"/>
</linearGradient>
</defs>
</svg>
