<svg width="285" height="212" viewBox="0 0 285 212" fill="none" xmlns="http://www.w3.org/2000/svg">
<mask id="mask0_10210_62210" style="mask-type:alpha" maskUnits="userSpaceOnUse" x="0" y="0" width="285" height="212">
<rect width="285" height="212" fill="#D9D9D9"/>
</mask>
<g mask="url(#mask0_10210_62210)">
<g opacity="0.5">
<mask id="path-2-inside-1_10210_62210" fill="white">
<path d="M273.871 142.256C275.287 109.771 265.017 77.8543 244.923 52.2905C224.829 26.7266 196.242 9.20795 164.342 2.91007C132.441 -3.3878 99.3407 1.95193 71.0393 17.9614C42.7378 33.9708 21.1088 59.5903 10.0729 90.1759L10.6626 90.3887C21.6477 59.944 43.1769 34.4426 71.3479 18.507C99.5189 2.57137 132.467 -2.74374 164.22 3.5251C195.973 9.79394 224.429 27.2318 244.43 52.6779C264.432 78.1239 274.654 109.894 273.245 142.229L273.871 142.256Z"/>
</mask>
<path d="M273.871 142.256C275.287 109.771 265.017 77.8543 244.923 52.2905C224.829 26.7266 196.242 9.20795 164.342 2.91007C132.441 -3.3878 99.3407 1.95193 71.0393 17.9614C42.7378 33.9708 21.1088 59.5903 10.0729 90.1759L10.6626 90.3887C21.6477 59.944 43.1769 34.4426 71.3479 18.507C99.5189 2.57137 132.467 -2.74374 164.22 3.5251C195.973 9.79394 224.429 27.2318 244.43 52.6779C264.432 78.1239 274.654 109.894 273.245 142.229L273.871 142.256Z" stroke="url(#paint0_linear_10210_62210)" stroke-width="2" stroke-dasharray="3 3" mask="url(#path-2-inside-1_10210_62210)"/>
</g>
<g opacity="0.5">
<mask id="path-3-inside-2_10210_62210" fill="white">
<path d="M10.256 182.994C21.4116 213.536 43.1407 239.07 71.5046 254.969C99.8685 270.867 132.99 276.078 164.865 269.655C196.74 263.232 225.259 245.602 245.253 219.96C265.247 194.317 275.391 162.36 273.848 129.881L273.222 129.911C274.758 162.24 264.66 194.05 244.759 219.574C224.857 245.098 196.469 262.647 164.741 269.04C133.013 275.433 100.044 270.247 71.8111 254.422C43.578 238.597 21.949 213.18 10.8449 182.778L10.256 182.994Z"/>
</mask>
<path d="M10.256 182.994C21.4116 213.536 43.1407 239.07 71.5046 254.969C99.8685 270.867 132.99 276.078 164.865 269.655C196.74 263.232 225.259 245.602 245.253 219.96C265.247 194.317 275.391 162.36 273.848 129.881L273.222 129.911C274.758 162.24 264.66 194.05 244.759 219.574C224.857 245.098 196.469 262.647 164.741 269.04C133.013 275.433 100.044 270.247 71.8111 254.422C43.578 238.597 21.949 213.18 10.8449 182.778L10.256 182.994Z" stroke="url(#paint1_linear_10210_62210)" stroke-width="2" stroke-dasharray="3 3" mask="url(#path-3-inside-2_10210_62210)"/>
</g>
<circle opacity="0.08" cx="138" cy="136.335" r="120" fill="url(#paint2_linear_10210_62210)"/>
<circle opacity="0.1" cx="138" cy="136.335" r="96" fill="url(#paint3_linear_10210_62210)"/>
<circle cx="138" cy="136.335" r="64" fill="white"/>
<g filter="url(#filter0_d_10210_62210)">
<circle cx="10.7606" cy="87.8481" r="5" transform="rotate(-2.50406 10.7606 87.8481)" fill="#0170FF"/>
<circle cx="10.7606" cy="87.8481" r="5.71528" transform="rotate(-2.50406 10.7606 87.8481)" stroke="white" stroke-width="1.43057"/>
</g>
<g filter="url(#filter1_d_10210_62210)">
<circle cx="273.879" cy="128.181" r="5" transform="rotate(-15.7345 273.879 128.181)" fill="#0170FF"/>
<circle cx="273.879" cy="128.181" r="5.71528" transform="rotate(-15.7345 273.879 128.181)" stroke="white" stroke-width="1.43057"/>
</g>
</g>
<path d="M126.635 77.5746C126.635 77.5746 135.287 82.8603 137.743 75.8119C140.199 68.7636 145.317 53.6325 156.381 56.4573C167.445 59.2822 168.531 61.4181 173.058 54.7776C177.586 48.1371 205.977 51.462 198.851 72.8419C187.176 107.878 123.275 98.9154 123.275 98.9154L122.48 90.503L126.635 77.5746Z" fill="#382256"/>
<path d="M181.863 51.6991C191.326 51.6991 203.856 57.8073 198.849 72.8325C191.125 96.0097 160.547 99.9336 140.734 99.9336C130.596 99.9336 123.28 98.9059 123.28 98.9059L122.485 90.4936L126.633 77.5744C126.633 77.5744 129.748 79.4776 132.769 79.4776C134.785 79.4776 136.757 78.632 137.741 75.8117C139.992 69.3602 144.478 56.1022 153.732 56.1022C154.625 56.1065 155.514 56.2226 156.379 56.4479C162.047 57.8879 165.096 59.1552 167.331 59.1552C169.46 59.1552 170.849 58.0031 173.056 54.7774C174.404 52.8027 177.86 51.7083 181.863 51.7083V51.6991ZM181.863 51.0171C177.429 51.0171 173.925 52.2774 172.487 54.388C170.351 57.5193 169.146 58.4732 167.331 58.4732C166.01 58.4732 164.252 57.9594 161.819 57.2474C160.324 56.8097 158.63 56.3258 156.55 55.7866C155.629 55.5475 154.682 55.4244 153.732 55.4202C149.54 55.4202 145.805 57.9732 142.633 63.0078C140.04 67.116 138.319 72.056 137.181 75.3256L137.089 75.5951C136.338 77.7472 134.925 78.7956 132.769 78.7956C129.974 78.7956 127.022 77.0122 126.992 76.9938C126.884 76.9276 126.76 76.8926 126.633 76.8924C126.55 76.8924 126.468 76.9072 126.391 76.9362C126.293 76.9725 126.204 77.0306 126.132 77.106C126.06 77.1815 126.006 77.2722 125.974 77.3716L121.826 90.2908C121.797 90.3799 121.787 90.4741 121.796 90.5673L122.589 98.982C122.604 99.1369 122.67 99.2823 122.778 99.3948C122.885 99.5073 123.027 99.5802 123.181 99.6018C129.004 100.309 134.866 100.654 140.732 100.634C149.773 100.634 162.978 99.7838 174.552 95.7355C187.616 91.1664 196.012 83.5352 199.503 73.0606C200.512 70.033 200.885 67.1966 200.581 64.6275C200.335 62.3327 199.496 60.1414 198.148 58.2682C196.459 55.9226 193.909 54.0101 190.775 52.7383C187.939 51.6096 184.915 51.0264 181.863 51.0194V51.0171Z" fill="black"/>
<path d="M185.352 89.7706C153.606 80.8998 126.867 93.5909 126.867 93.5909C126.335 95.4368 126.236 97.3804 126.579 99.2705C136.53 100.224 166.723 101.895 185.352 89.7706Z" fill="#050505"/>
<path d="M184.726 71.1256C184.646 71.1259 184.568 71.0983 184.506 71.0474C184.443 70.9965 184.401 70.9256 184.385 70.8469C184.37 70.7681 184.382 70.6863 184.421 70.6157C184.459 70.545 184.52 70.4898 184.595 70.4597C208.276 60.9137 217.458 45.6466 221 34.5154C224.832 22.4487 223.041 12.5087 223.023 12.4096C223.014 12.3651 223.014 12.3193 223.024 12.2749C223.033 12.2305 223.051 12.1883 223.076 12.1508C223.102 12.1134 223.134 12.0813 223.172 12.0565C223.21 12.0317 223.252 12.0147 223.297 12.0064C223.342 11.9977 223.388 11.9979 223.432 12.007C223.477 12.016 223.519 12.0339 223.557 12.0593C223.594 12.0848 223.627 12.1174 223.652 12.1554C223.677 12.1934 223.694 12.2359 223.703 12.2806C223.721 12.3819 225.546 22.4671 221.67 34.6928C219.391 41.8776 215.571 48.4782 210.477 54.0336C204.046 61.0934 195.429 66.833 184.862 71.0841C184.82 71.1064 184.774 71.1205 184.726 71.1256Z" fill="black"/>
<path d="M183.28 64.1231C183.199 64.1232 183.121 64.0951 183.058 64.0435C182.996 63.9919 182.954 63.9202 182.939 63.8408C182.925 63.7614 182.938 63.6794 182.977 63.6089C183.017 63.5384 183.08 63.484 183.155 63.455C192.932 59.7038 198.512 51.7845 199.745 39.9183C200.667 31.029 198.662 23.1397 198.641 23.0614C198.627 23.0166 198.622 22.9694 198.627 22.9226C198.631 22.8758 198.645 22.8305 198.668 22.7894C198.691 22.7483 198.722 22.7122 198.759 22.6834C198.796 22.6546 198.839 22.6336 198.884 22.6219C198.93 22.6101 198.977 22.6077 199.023 22.6149C199.07 22.6221 199.114 22.6387 199.154 22.6637C199.194 22.6886 199.228 22.7214 199.255 22.7601C199.282 22.7988 199.3 22.8425 199.309 22.8886C199.33 22.9669 201.367 30.953 200.436 39.9714C199.888 45.2708 198.432 49.9021 196.114 53.7108C193.206 58.485 188.929 61.9803 183.406 64.1001C183.366 64.1158 183.323 64.1236 183.28 64.1231Z" fill="black"/>
<path d="M229.962 208.386L58.3046 207.582C58.1824 207.582 58.0652 207.533 57.9788 207.447C57.8923 207.36 57.8438 207.243 57.8438 207.121C57.8438 206.999 57.8923 206.882 57.9788 206.795C58.0652 206.709 58.1824 206.66 58.3046 206.66L229.962 207.464C230.084 207.464 230.201 207.513 230.288 207.599C230.374 207.686 230.423 207.803 230.423 207.925C230.423 208.047 230.374 208.165 230.288 208.251C230.201 208.337 230.084 208.386 229.962 208.386Z" fill="black"/>
<path d="M62.6426 212.001H37.3456C37.254 212.001 37.1661 211.964 37.1013 211.9C37.0364 211.835 37 211.747 37 211.655C37 211.564 37.0364 211.476 37.1013 211.411C37.1661 211.346 37.254 211.31 37.3456 211.31H62.6426C62.7343 211.31 62.8221 211.346 62.887 211.411C62.9518 211.476 62.9882 211.564 62.9882 211.655C62.9882 211.747 62.9518 211.835 62.887 211.9C62.8221 211.964 62.7343 212.001 62.6426 212.001Z" fill="black"/>
<path d="M247.101 201.618H221.807C221.715 201.618 221.627 201.582 221.562 201.517C221.497 201.452 221.461 201.364 221.461 201.272C221.461 201.181 221.497 201.093 221.562 201.028C221.627 200.963 221.715 200.927 221.807 200.927H247.104C247.195 200.927 247.283 200.963 247.348 201.028C247.413 201.093 247.449 201.181 247.449 201.272C247.449 201.364 247.413 201.452 247.348 201.517C247.283 201.582 247.195 201.618 247.104 201.618H247.101Z" fill="black"/>
<path d="M106.985 102.699C118.573 99.4894 189.556 112.328 194.143 118.747C198.731 125.167 163.879 206.467 156.48 206.467C148.029 206.467 87.428 206.467 74.8728 206.737C63.8522 206.967 55.7994 177.051 59.4215 170.102C63.0435 163.152 89.8358 106.982 98.7758 105.913C107.716 104.844 106.985 102.699 106.985 102.699Z" fill="#07ACEE"/>
<path d="M74.7455 207.085C71.5198 207.085 68.2939 204.629 65.4069 199.967C59.8309 190.995 56.4785 174.998 59.1144 169.938C59.5522 169.097 60.3172 167.558 61.3794 165.429C73.9645 140.143 91.5309 106.427 98.7336 105.565C104.478 104.874 106.068 103.773 106.503 103.176C106.601 103.071 106.654 102.932 106.651 102.789C106.63 102.748 106.619 102.703 106.619 102.657C106.619 102.612 106.63 102.567 106.651 102.526C106.675 102.484 106.708 102.448 106.748 102.42C106.788 102.393 106.833 102.375 106.881 102.367C112.985 100.676 134.563 103.36 153.24 106.773C170.62 109.948 191.832 114.934 194.412 118.544C196.498 121.464 191.06 137.293 187.631 146.47C182.346 160.622 175.208 176.903 169.005 188.961C162.91 200.806 158.692 206.813 156.468 206.813C140.27 206.813 86.515 206.834 74.87 207.083L74.7455 207.085ZM107.333 102.966C107.302 103.149 107.234 103.324 107.132 103.48C106.34 104.738 103.464 105.694 98.8167 106.245C96.5909 106.512 91.5955 110.943 80.4343 130.542C73.098 143.429 65.8768 157.936 62.0013 165.73C60.9391 167.862 60.1719 169.403 59.7318 170.249C57.4001 174.728 60.0706 190.064 65.9991 199.596C67.953 202.739 71.0682 206.465 74.87 206.384C86.5219 206.136 140.284 206.115 156.484 206.115C157.364 206.115 160.291 204.412 168.406 188.636C174.597 176.601 181.721 160.35 187 146.221C192.666 131.051 195.233 120.853 193.866 118.941C191.873 116.15 175.503 111.531 153.132 107.445C134.784 104.102 113.664 101.445 107.333 102.966Z" fill="black"/>
<path d="M181 143.345C181 143.345 120.827 142.185 118.907 144.118C118.034 145.001 117.564 164.82 116.798 178.751C115.867 195.682 103 207 103 207H127.142L181 143.345Z" fill="#0598C6"/>
<path d="M96.3564 105.547C83.5616 117.619 73.1448 118.344 50.6036 167.717C41.6497 187.335 50.6036 199.104 56.8823 202.726C63.161 206.348 89.9579 211.659 96.9601 195L103.72 194.77L105.651 175.696H100.352C100.352 175.696 99.1445 167.971 89.246 167.487C79.3475 167.003 68.2414 172.325 66.0686 173.04" fill="#07ACEE"/>
<path d="M75.088 206.836C67.3185 206.836 59.8325 204.827 56.7104 203.025C55.2081 202.159 50.1227 198.756 47.7034 191.327C45.4545 184.415 46.3486 176.208 50.291 167.574C68.4659 127.759 78.8115 119.489 88.816 111.494C91.1846 109.6 93.6337 107.642 96.1199 105.296C96.1869 105.235 96.275 105.203 96.3654 105.207C96.4557 105.21 96.5411 105.249 96.6032 105.315C96.6653 105.38 96.6991 105.468 96.6975 105.558C96.6959 105.649 96.659 105.735 96.5946 105.798C94.0878 108.165 91.627 110.132 89.2469 112.033C79.3069 119.98 69.028 128.197 50.9199 167.862C47.0029 176.456 46.1344 184.279 48.3602 191.113C50.7035 198.307 55.609 201.592 57.056 202.426C61.5629 205.028 75.3597 208.064 85.6638 204.594C90.9886 202.8 94.6845 199.525 96.643 194.866C96.6683 194.805 96.7106 194.753 96.765 194.715C96.8193 194.678 96.8834 194.657 96.9495 194.654L103.401 194.424L105.263 176.03H100.334C100.252 176.03 100.172 176.001 100.11 175.947C100.047 175.893 100.006 175.819 99.9932 175.738C99.9448 175.434 98.6983 168.284 89.2122 167.821C80.9358 167.422 71.7355 171.129 67.8093 172.715C67.0536 173.021 66.5097 173.24 66.1595 173.357C66.1164 173.373 66.0706 173.379 66.025 173.377C65.9793 173.374 65.9347 173.363 65.8936 173.343C65.8524 173.323 65.8156 173.295 65.7851 173.261C65.7546 173.227 65.7312 173.187 65.716 173.144C65.7009 173.101 65.6944 173.056 65.6969 173.01C65.6994 172.964 65.7109 172.92 65.7306 172.878C65.7504 172.837 65.7781 172.8 65.8121 172.77C65.8461 172.739 65.886 172.716 65.9291 172.701C66.2586 172.592 66.8231 172.364 67.542 172.074C71.5097 170.473 80.8044 166.719 89.2352 167.132C98.1913 167.567 100.249 173.894 100.604 175.339H105.636C105.684 175.339 105.732 175.349 105.776 175.369C105.82 175.389 105.86 175.417 105.893 175.453C105.925 175.489 105.95 175.531 105.965 175.577C105.981 175.623 105.986 175.671 105.982 175.719L104.048 194.793C104.04 194.876 104.002 194.953 103.941 195.01C103.88 195.068 103.8 195.101 103.717 195.104L97.1777 195.334C95.1039 200.078 91.3136 203.412 85.869 205.242C82.5119 206.385 78.7677 206.836 75.088 206.836Z" fill="black"/>
<path d="M96 196.394C96.0968 190.772 99.2257 180.671 100.668 176.249H105.175L103.346 194.311L96.9424 194.541C96.6727 195.181 96.3578 195.8 96 196.394Z" fill="#0598C6"/>
<path d="M107.044 185.094C107.044 185.094 116.549 191.133 111.498 197.092C106.447 203.05 98.92 197.963 99.0928 190.903C99.2656 183.843 104.823 181.225 107.517 178.592" fill="#FFCDB2"/>
<path d="M106.413 200.069C105.635 200.066 104.864 199.92 104.139 199.638C100.867 198.394 98.6506 194.799 98.7451 190.894C98.8856 185.154 102.446 182.309 105.303 180.021C106.033 179.438 106.722 178.887 107.273 178.346C107.305 178.312 107.343 178.285 107.386 178.267C107.428 178.248 107.474 178.239 107.52 178.238C107.567 178.238 107.613 178.247 107.656 178.265C107.698 178.283 107.737 178.309 107.77 178.342C107.802 178.375 107.828 178.414 107.845 178.457C107.862 178.501 107.87 178.547 107.868 178.593C107.867 178.639 107.857 178.685 107.837 178.727C107.818 178.769 107.791 178.807 107.757 178.839C107.181 179.405 106.478 179.968 105.736 180.562C102.989 182.758 99.57 185.493 99.4363 190.912C99.3488 194.527 101.383 197.85 104.383 198.993C106.809 199.914 109.305 199.143 111.233 196.868C112.349 195.553 112.798 194.127 112.572 192.631C111.973 188.684 106.909 185.419 106.856 185.387C106.816 185.363 106.781 185.332 106.754 185.295C106.727 185.257 106.707 185.215 106.697 185.17C106.686 185.125 106.684 185.078 106.692 185.033C106.7 184.987 106.717 184.944 106.741 184.905C106.766 184.866 106.799 184.832 106.837 184.806C106.875 184.78 106.918 184.761 106.963 184.752C107.008 184.743 107.055 184.742 107.1 184.751C107.145 184.76 107.188 184.778 107.227 184.804C107.457 184.942 112.607 188.26 113.254 192.525C113.514 194.228 113.01 195.841 111.759 197.315C110.227 199.124 108.356 200.069 106.413 200.069Z" fill="black"/>
<path d="M106.181 173.812C106.181 173.812 115.685 179.851 110.635 185.809C105.584 191.768 98.0567 186.678 98.2295 179.62C98.4023 172.563 103.96 169.943 106.653 167.31" fill="#FFCDB2"/>
<path d="M105.55 188.787C104.772 188.783 104.001 188.637 103.276 188.356C100.004 187.109 97.7873 183.517 97.8818 179.612C98.0224 173.872 101.582 171.024 104.442 168.738C105.17 168.155 105.857 167.605 106.41 167.063C106.442 167.03 106.48 167.003 106.522 166.985C106.565 166.966 106.611 166.956 106.657 166.956C106.703 166.956 106.749 166.965 106.792 166.982C106.835 167 106.874 167.026 106.906 167.06C106.939 167.093 106.964 167.132 106.981 167.175C106.998 167.218 107.006 167.264 107.005 167.311C107.004 167.357 106.994 167.403 106.974 167.445C106.955 167.487 106.928 167.525 106.893 167.556C106.317 168.123 105.614 168.683 104.872 169.278C102.126 171.476 98.7067 174.211 98.5731 179.628C98.4855 183.243 100.52 186.568 103.52 187.708C105.946 188.63 108.442 187.858 110.37 185.586C111.485 184.271 111.935 182.844 111.709 181.349C111.11 177.4 106.045 174.135 105.992 174.102C105.953 174.079 105.918 174.047 105.891 174.01C105.864 173.973 105.844 173.93 105.834 173.885C105.823 173.841 105.821 173.794 105.829 173.748C105.837 173.703 105.853 173.659 105.878 173.62C105.903 173.581 105.935 173.548 105.973 173.521C106.011 173.495 106.054 173.477 106.099 173.467C106.145 173.458 106.191 173.458 106.237 173.467C106.282 173.476 106.325 173.494 106.363 173.519C106.594 173.66 111.744 176.976 112.391 181.243C112.651 182.946 112.147 184.556 110.896 186.033C109.361 187.842 107.492 188.787 105.55 188.787Z" fill="black"/>
<path d="M107.075 164.33C107.075 164.33 116.58 170.369 111.529 176.328C106.479 182.286 98.9512 177.196 99.124 170.139C99.2968 163.081 102.877 163.252 106.267 162.535" fill="#FFCDB2"/>
<path d="M106.445 179.304C105.667 179.301 104.896 179.155 104.17 178.874C100.898 177.627 98.6819 174.035 98.7763 170.129C98.9376 163.54 102.078 162.959 105.115 162.397C105.467 162.332 105.829 162.265 106.184 162.189C106.272 162.175 106.362 162.194 106.436 162.244C106.509 162.294 106.561 162.371 106.58 162.458C106.598 162.545 106.582 162.635 106.536 162.711C106.489 162.787 106.415 162.842 106.329 162.864C105.965 162.943 105.597 163.01 105.242 163.076C102.223 163.634 99.615 164.118 99.4676 170.146C99.38 173.761 101.415 177.083 104.414 178.226C106.841 179.148 109.336 178.376 111.262 176.104C112.38 174.786 112.829 173.36 112.601 171.864C112.002 167.913 106.938 164.652 106.887 164.62C106.847 164.597 106.813 164.565 106.785 164.528C106.758 164.491 106.739 164.448 106.728 164.403C106.717 164.358 106.716 164.312 106.724 164.266C106.731 164.221 106.748 164.177 106.773 164.138C106.797 164.099 106.83 164.065 106.868 164.039C106.906 164.013 106.949 163.995 106.994 163.985C107.039 163.976 107.086 163.976 107.131 163.985C107.177 163.993 107.22 164.011 107.258 164.037C107.477 164.176 112.638 167.493 113.285 171.761C113.543 173.463 113.041 175.074 111.79 176.551C110.258 178.36 108.387 179.304 106.445 179.304Z" fill="black"/>
<path d="M106.339 196.294H106.325C106.26 196.294 99.8917 195.962 99.7696 188.46C99.7687 188.415 99.7767 188.369 99.7932 188.327C99.8098 188.285 99.8345 188.246 99.8659 188.214C99.8974 188.181 99.9348 188.155 99.9764 188.136C100.018 188.118 100.063 188.108 100.108 188.107C100.199 188.108 100.286 188.144 100.35 188.208C100.415 188.271 100.452 188.358 100.454 188.448C100.567 195.282 106.111 195.591 106.346 195.603C106.391 195.604 106.436 195.613 106.477 195.632C106.519 195.65 106.556 195.676 106.588 195.709C106.619 195.742 106.644 195.78 106.661 195.822C106.677 195.865 106.685 195.91 106.684 195.955C106.683 196.001 106.673 196.045 106.655 196.087C106.637 196.129 106.611 196.166 106.578 196.198C106.545 196.229 106.507 196.254 106.464 196.27C106.422 196.287 106.377 196.295 106.332 196.294H106.339Z" fill="white"/>
<path d="M106.051 187.504C106.032 187.507 106.012 187.507 105.993 187.504C105.931 187.504 99.9357 186.396 99.0809 179.876C99.0752 179.83 99.0783 179.784 99.0904 179.74C99.1024 179.696 99.1231 179.654 99.1511 179.618C99.2077 179.545 99.291 179.498 99.3827 179.486C99.4743 179.475 99.5668 179.5 99.6398 179.556C99.7129 179.613 99.7605 179.696 99.7721 179.788C100.551 185.793 105.878 186.786 106.106 186.825C106.198 186.833 106.283 186.877 106.342 186.947C106.401 187.018 106.43 187.109 106.422 187.2C106.414 187.292 106.37 187.377 106.3 187.436C106.229 187.495 106.138 187.524 106.046 187.516L106.051 187.504Z" fill="white"/>
<path d="M108.012 176.56C107.883 176.56 100.684 176.493 99.9472 169.357C99.9377 169.265 99.9651 169.173 100.023 169.102C100.081 169.03 100.165 168.985 100.257 168.975C100.349 168.966 100.44 168.993 100.512 169.051C100.583 169.11 100.629 169.194 100.638 169.285C101.313 175.774 107.654 175.868 108.012 175.868C108.103 175.868 108.191 175.905 108.256 175.97C108.321 176.034 108.357 176.122 108.357 176.214C108.357 176.306 108.321 176.393 108.256 176.458C108.191 176.523 108.103 176.56 108.012 176.56Z" fill="white"/>
<path d="M114.955 99.0288C114.955 99.0288 129.932 113.273 108.677 110.858C108.677 110.858 104.331 117.86 96.8473 113.999C89.3636 110.137 92.7412 103.132 98.0545 101.444C102.66 99.9758 114.955 99.0288 114.955 99.0288Z" fill="white"/>
<path d="M101.226 115.501C99.6382 115.474 98.0808 115.064 96.6865 114.305C93.5552 112.692 91.9514 110.337 92.1772 107.685C92.4192 104.821 94.7901 102.118 97.9375 101.114C102.53 99.6528 114.414 98.722 114.917 98.6828C114.965 98.6788 115.014 98.6852 115.059 98.7015C115.105 98.7178 115.147 98.7436 115.182 98.7773C115.454 99.0377 121.843 105.178 120.11 108.89C119.057 111.144 115.271 111.929 108.834 111.224C108.248 112.067 105.555 115.501 101.226 115.501ZM114.82 99.3856C113.378 99.5008 102.378 100.422 98.152 101.773C95.3018 102.678 93.0829 105.19 92.8525 107.745C92.652 110.1 94.1221 112.21 96.9999 113.69C99.9953 115.231 102.809 115.196 105.38 113.584C106.566 112.828 107.585 111.839 108.375 110.676C108.409 110.62 108.458 110.575 108.517 110.546C108.576 110.517 108.642 110.506 108.707 110.514C114.848 111.206 118.573 110.549 119.486 108.597C120.905 105.574 115.656 100.208 114.824 99.3856H114.82Z" fill="black"/>
<path d="M131.022 113.94C131.963 113.94 132.726 113.177 132.726 112.235C132.726 111.294 131.963 110.53 131.022 110.53C130.08 110.53 129.316 111.294 129.316 112.235C129.316 113.177 130.08 113.94 131.022 113.94Z" fill="#51CEF4"/>
<path d="M90.7012 123.839C91.6429 123.839 92.4064 123.075 92.4064 122.134C92.4064 121.192 91.6429 120.429 90.7012 120.429C89.7596 120.429 88.9961 121.192 88.9961 122.134C88.9961 123.075 89.7596 123.839 90.7012 123.839Z" fill="#51CEF4"/>
<path d="M73.0762 148.226C74.0179 148.226 74.7814 147.462 74.7814 146.521C74.7814 145.579 74.0179 144.815 73.0762 144.815C72.1346 144.815 71.3711 145.579 71.3711 146.521C71.3711 147.462 72.1346 148.226 73.0762 148.226Z" fill="#51CEF4"/>
<path d="M89.0098 158.848C89.9515 158.848 90.7147 158.084 90.7147 157.143C90.7147 156.201 89.9515 155.438 89.0098 155.438C88.0682 155.438 87.3047 156.201 87.3047 157.143C87.3047 158.084 88.0682 158.848 89.0098 158.848Z" fill="#51CEF4"/>
<path d="M54.9669 168.022C55.9085 168.022 56.6718 167.259 56.6718 166.317C56.6718 165.376 55.9085 164.612 54.9669 164.612C54.0252 164.612 53.2617 165.376 53.2617 166.317C53.2617 167.259 54.0252 168.022 54.9669 168.022Z" fill="#51CEF4"/>
<path d="M71.3848 195.548C72.3265 195.548 73.09 194.784 73.09 193.843C73.09 192.901 72.3265 192.138 71.3848 192.138C70.4432 192.138 69.6797 192.901 69.6797 193.843C69.6797 194.784 70.4432 195.548 71.3848 195.548Z" fill="#51CEF4"/>
<path d="M87.3223 182.267C88.264 182.267 89.0275 181.503 89.0275 180.562C89.0275 179.62 88.264 178.856 87.3223 178.856C86.3807 178.856 85.6172 179.62 85.6172 180.562C85.6172 181.503 86.3807 182.267 87.3223 182.267Z" fill="#51CEF4"/>
<path d="M90.7012 198.202C91.6429 198.202 92.4064 197.439 92.4064 196.497C92.4064 195.555 91.6429 194.792 90.7012 194.792C89.7596 194.792 88.9961 195.555 88.9961 196.497C88.9961 197.439 89.7596 198.202 90.7012 198.202Z" fill="#51CEF4"/>
<path d="M66.179 176.636C66.1011 176.636 66.0254 176.61 65.9641 176.562C65.9029 176.514 65.8597 176.446 65.8415 176.37C65.8234 176.295 65.8314 176.215 65.8642 176.144C65.8971 176.074 65.9526 176.016 66.0222 175.981C75.5981 171.143 83.4715 169.069 89.43 169.79C93.9553 170.345 95.598 172.368 95.6648 172.454C95.722 172.525 95.7483 172.617 95.738 172.708C95.7276 172.799 95.6813 172.883 95.6095 172.94C95.5377 172.997 95.4462 173.023 95.355 173.013C95.2638 173.002 95.1806 172.956 95.1235 172.884C95.1073 172.864 93.5381 170.965 89.2524 170.465C85.2571 170.004 78.0383 170.696 66.3356 176.599C66.287 176.623 66.2334 176.636 66.179 176.636Z" fill="white"/>
<path d="M67.6264 153.938C67.5467 153.938 67.4694 153.91 67.4077 153.86C67.346 153.81 67.3035 153.74 67.2875 153.661C65.0295 142.62 68.1771 126.802 71.2162 115.478C73.2322 107.982 75.6339 100.595 78.4119 93.3464C78.4265 93.3014 78.4501 93.2599 78.4814 93.2244C78.5127 93.1889 78.5511 93.1602 78.5939 93.1401C78.6368 93.12 78.6832 93.109 78.7305 93.1076C78.7778 93.1062 78.8249 93.1145 78.8689 93.132C78.9128 93.1496 78.9526 93.176 78.9859 93.2096C79.0192 93.2431 79.0454 93.2832 79.0626 93.3273C79.0798 93.3714 79.0878 93.4185 79.086 93.4658C79.0843 93.5131 79.0729 93.5595 79.0525 93.6021C78.8981 93.9915 63.6886 132.622 67.965 153.523C67.9741 153.568 67.9743 153.613 67.9657 153.658C67.9571 153.703 67.9397 153.745 67.9146 153.783C67.8896 153.821 67.8575 153.853 67.8199 153.879C67.7823 153.904 67.7399 153.922 67.6955 153.931C67.6727 153.936 67.6496 153.938 67.6264 153.938Z" fill="black"/>
<path d="M61.8329 156.359C61.7794 156.36 61.7267 156.347 61.6787 156.324C61.6308 156.3 61.5889 156.266 61.5563 156.223C56.9481 150.168 56.4366 131.929 56.4182 131.155C56.4166 131.109 56.4241 131.064 56.4402 131.021C56.4563 130.979 56.4809 130.94 56.5122 130.907C56.5435 130.874 56.5811 130.847 56.6227 130.829C56.6643 130.811 56.7091 130.801 56.7546 130.8C56.8444 130.8 56.9307 130.835 56.9949 130.898C57.0591 130.961 57.0961 131.046 57.0979 131.136C57.0979 131.325 57.6302 149.926 62.0979 155.804C62.1535 155.877 62.178 155.969 62.1659 156.06C62.1538 156.152 62.1061 156.234 62.0333 156.29C61.9752 156.333 61.9052 156.357 61.8329 156.359Z" fill="black"/>
<path d="M135.203 182.165C134.49 182.028 133.859 181.619 133.442 181.025C133.024 180.431 132.855 179.698 132.968 178.981L138.989 140.768C139.2 139.387 139.691 138.063 140.433 136.879C141.174 135.695 142.151 134.675 143.302 133.883C145.481 132.382 148.158 131.784 150.769 132.214L178.896 136.851C179.103 136.886 179.302 136.961 179.48 137.072C179.658 137.184 179.813 137.33 179.934 137.501C180.056 137.673 180.142 137.866 180.189 138.072C180.235 138.277 180.24 138.489 180.204 138.696L171.958 186.354C171.895 186.721 171.759 187.071 171.558 187.385C171.358 187.698 171.097 187.969 170.791 188.18C170.485 188.392 170.139 188.54 169.775 188.617C169.411 188.693 169.035 188.696 168.67 188.626L135.203 182.165Z" fill="white"/>
<path d="M169.206 189.063C169.001 189.063 168.796 189.043 168.594 189.004L135.129 182.551C134.316 182.397 133.595 181.931 133.12 181.254C132.644 180.577 132.452 179.741 132.583 178.924L138.605 140.711C138.817 139.321 139.302 137.988 140.033 136.787C140.765 135.587 141.727 134.543 142.864 133.718C144.002 132.892 145.292 132.3 146.659 131.976C148.027 131.653 149.446 131.604 150.833 131.833L178.96 136.47C179.218 136.513 179.465 136.606 179.687 136.745C179.909 136.884 180.101 137.065 180.253 137.278C180.404 137.492 180.512 137.733 180.569 137.988C180.627 138.244 180.634 138.508 180.588 138.766L172.341 186.42C172.213 187.16 171.829 187.83 171.255 188.314C170.682 188.798 169.957 189.064 169.206 189.066V189.063ZM135.277 181.783L168.742 188.236C169.057 188.297 169.381 188.294 169.694 188.229C170.008 188.163 170.305 188.035 170.569 187.853C170.832 187.671 171.057 187.438 171.23 187.169C171.402 186.899 171.519 186.597 171.574 186.281L179.821 138.626C179.848 138.469 179.845 138.309 179.81 138.154C179.775 137.999 179.71 137.852 179.618 137.723C179.526 137.593 179.409 137.483 179.274 137.399C179.14 137.315 178.989 137.258 178.833 137.233L150.706 132.595C149.421 132.383 148.106 132.428 146.838 132.728C145.571 133.028 144.375 133.577 143.321 134.342C142.267 135.107 141.376 136.074 140.698 137.187C140.021 138.299 139.571 139.535 139.375 140.823L133.351 179.042C133.251 179.659 133.397 180.291 133.756 180.803C134.115 181.315 134.66 181.667 135.275 181.783H135.277Z" fill="black"/>
<path d="M143.975 146.796L153.988 185.502L133.527 180.305L138.608 144.864L140.425 144.53C141.193 144.389 141.987 144.544 142.645 144.965C143.304 145.385 143.779 146.039 143.975 146.796Z" fill="#EBEBEB"/>
<path d="M142.828 133.76C141.696 134.578 140.742 135.619 140.027 136.819C139.313 138.02 138.851 139.354 138.672 140.739L138.211 144.293C140.174 141.929 144.921 143.463 144.921 143.463C143.475 136.085 147.452 132.85 149.149 131.831C146.887 131.757 144.664 132.435 142.828 133.76Z" fill="#4BD657"/>
<path d="M147.485 132.43C145.634 134.062 143.445 137.23 144.286 142.766C143.049 142.485 140.634 142.13 138.885 143.1L139.181 140.81C139.454 138.696 140.415 136.731 141.916 135.217C143.416 133.704 145.373 132.726 147.485 132.434V132.43ZM149.154 131.836C146.611 131.751 144.129 132.617 142.191 134.264C140.253 135.912 138.998 138.222 138.672 140.744L138.211 144.298C140.174 141.934 144.921 143.468 144.921 143.468C143.475 136.09 147.452 132.855 149.149 131.836H149.154Z" fill="black"/>
<path d="M118.842 205.832C118.137 206.004 117.392 205.896 116.765 205.53C116.139 205.164 115.679 204.568 115.483 203.869L105.024 166.627C104.639 165.283 104.534 163.875 104.715 162.49C104.895 161.104 105.357 159.77 106.073 158.57C107.429 156.297 109.612 154.638 112.165 153.94L139.663 146.428C139.866 146.373 140.078 146.358 140.286 146.385C140.495 146.412 140.696 146.48 140.878 146.585C141.06 146.69 141.219 146.83 141.347 146.998C141.475 147.165 141.568 147.355 141.621 147.559L153.995 194.313C154.09 194.673 154.113 195.048 154.061 195.417C154.01 195.785 153.885 196.14 153.695 196.46C153.505 196.78 153.253 197.058 152.953 197.28C152.654 197.501 152.314 197.661 151.952 197.749L118.842 205.832Z" fill="white"/>
<path d="M118.165 206.304C117.471 206.304 116.796 206.076 116.243 205.655C115.691 205.235 115.291 204.645 115.106 203.975L104.648 166.732C104.261 165.38 104.147 163.966 104.311 162.57C104.475 161.174 104.915 159.825 105.604 158.6C106.294 157.375 107.22 156.299 108.328 155.435C109.436 154.571 110.705 153.935 112.061 153.565L139.56 146.054C139.812 145.984 140.076 145.966 140.335 146C140.595 146.033 140.845 146.118 141.072 146.248C141.298 146.379 141.497 146.554 141.656 146.762C141.815 146.969 141.931 147.207 141.997 147.46L154.37 194.213C154.478 194.623 154.504 195.051 154.445 195.47C154.387 195.89 154.245 196.294 154.028 196.659C153.812 197.023 153.525 197.341 153.184 197.593C152.843 197.845 152.455 198.027 152.043 198.128L118.934 206.211C118.682 206.273 118.424 206.304 118.165 206.304ZM140.084 146.761C139.976 146.761 139.868 146.776 139.764 146.805L112.266 154.316C111.009 154.659 109.833 155.248 108.806 156.05C107.779 156.851 106.921 157.848 106.282 158.983C105.643 160.118 105.236 161.369 105.084 162.663C104.932 163.957 105.038 165.268 105.397 166.52L115.855 203.765C116.022 204.368 116.418 204.882 116.958 205.197C117.499 205.513 118.141 205.605 118.748 205.454L151.857 197.371C152.169 197.295 152.461 197.157 152.719 196.966C152.976 196.776 153.193 196.536 153.357 196.26C153.521 195.985 153.628 195.68 153.673 195.362C153.717 195.045 153.698 194.722 153.616 194.412L141.243 147.659C141.176 147.402 141.025 147.175 140.815 147.013C140.606 146.85 140.348 146.762 140.083 146.761H140.084Z" fill="black"/>
<path d="M105.588 158.485C104.873 159.686 104.411 161.02 104.23 162.405C104.05 163.791 104.155 165.199 104.539 166.542L105.525 169.991C106.389 167.043 111.356 166.569 111.356 166.569C107.099 160.37 109.473 155.822 110.631 154.212C108.524 155.04 106.75 156.542 105.588 158.485Z" fill="#4BD657"/>
<path d="M109.332 155.423C108.281 157.655 107.526 161.431 110.495 166.181C109.246 166.412 106.889 167.043 105.666 168.629L105.031 166.403C104.443 164.355 104.546 162.169 105.324 160.185C106.101 158.2 107.51 156.527 109.332 155.422V155.423ZM110.632 154.209C108.264 155.139 106.328 156.918 105.202 159.199C104.075 161.48 103.839 164.098 104.54 166.544L105.526 169.993C106.39 167.044 111.357 166.57 111.357 166.57C107.1 160.372 109.473 155.823 110.632 154.213V154.209Z" fill="black"/>
<path d="M123.629 189.636L119.669 190.596C118.681 190.836 118.073 191.832 118.313 192.821L119.273 196.781C119.513 197.769 120.509 198.377 121.498 198.137L125.458 197.177C126.447 196.937 127.054 195.941 126.814 194.952L125.854 190.992C125.614 190.003 124.618 189.396 123.629 189.636Z" fill="#4BD657"/>
<path d="M120.028 198.277C119.983 198.253 119.939 198.228 119.894 198.201C119.659 198.058 119.454 197.87 119.291 197.648C119.129 197.425 119.012 197.173 118.948 196.905L117.988 192.945C117.858 192.405 117.947 191.834 118.237 191.36C118.526 190.885 118.992 190.544 119.533 190.413L123.492 189.453C123.76 189.388 124.038 189.376 124.31 189.419C124.582 189.461 124.843 189.557 125.078 189.7C125.314 189.844 125.518 190.032 125.68 190.254C125.843 190.477 125.96 190.729 126.025 190.997L126.985 194.957C127.116 195.497 127.026 196.068 126.737 196.542C126.447 197.017 125.981 197.358 125.441 197.489L121.481 198.449C120.991 198.569 120.475 198.508 120.028 198.277ZM124.712 190.079C124.373 189.904 123.983 189.858 123.613 189.949L119.653 190.908C119.244 191.008 118.891 191.266 118.672 191.625C118.453 191.984 118.385 192.416 118.483 192.825L119.444 196.785C119.543 197.194 119.801 197.547 120.16 197.766C120.52 197.985 120.951 198.053 121.361 197.954L125.32 196.994C125.523 196.945 125.714 196.856 125.882 196.733C126.051 196.61 126.193 196.456 126.302 196.278C126.41 196.1 126.483 195.902 126.515 195.696C126.547 195.49 126.538 195.279 126.489 195.077L125.53 191.117C125.481 190.914 125.392 190.723 125.269 190.555C125.146 190.386 124.991 190.244 124.813 190.136C124.783 190.116 124.746 190.097 124.712 190.079Z" fill="black"/>
<path d="M130.064 192.545C130.018 192.522 129.98 192.484 129.955 192.438C129.931 192.392 129.921 192.34 129.928 192.289C129.934 192.237 129.956 192.189 129.99 192.15C130.024 192.111 130.07 192.084 130.12 192.071L147.115 187.955C147.147 187.946 147.181 187.944 147.215 187.949C147.249 187.954 147.281 187.965 147.31 187.982C147.339 188 147.364 188.023 147.384 188.05C147.404 188.077 147.419 188.108 147.427 188.141C147.435 188.174 147.436 188.208 147.431 188.242C147.426 188.275 147.414 188.307 147.396 188.336C147.378 188.364 147.354 188.389 147.327 188.409C147.299 188.429 147.268 188.442 147.235 188.45L130.241 192.566C130.181 192.581 130.118 192.573 130.064 192.545Z" fill="black"/>
<path d="M122.478 195.512L122.46 195.502L120.063 193.998C120.034 193.98 120.008 193.957 119.988 193.93C119.968 193.903 119.953 193.872 119.945 193.839C119.937 193.805 119.935 193.771 119.941 193.737C119.946 193.704 119.958 193.672 119.976 193.643C119.994 193.614 120.018 193.589 120.046 193.569C120.074 193.55 120.105 193.536 120.139 193.529C120.172 193.522 120.207 193.521 120.24 193.528C120.273 193.534 120.305 193.547 120.334 193.566L122.473 194.909L123.808 191.636C123.834 191.573 123.883 191.523 123.946 191.497C124.008 191.47 124.078 191.47 124.141 191.495C124.204 191.521 124.254 191.57 124.28 191.633C124.306 191.695 124.307 191.765 124.281 191.828L122.835 195.382C122.821 195.416 122.799 195.447 122.772 195.472C122.745 195.498 122.712 195.517 122.677 195.529C122.644 195.539 122.61 195.543 122.576 195.541C122.541 195.538 122.508 195.528 122.478 195.512Z" fill="black"/>
<path d="M120.508 177.889L116.548 178.849C115.56 179.089 114.952 180.085 115.192 181.074L116.152 185.033C116.392 186.022 117.388 186.63 118.377 186.39L122.337 185.43C123.325 185.19 123.933 184.194 123.693 183.205L122.733 179.245C122.493 178.256 121.497 177.649 120.508 177.889Z" fill="#4BD657"/>
<path d="M116.911 186.529C116.865 186.505 116.82 186.48 116.777 186.454C116.541 186.311 116.336 186.123 116.174 185.9C116.012 185.677 115.895 185.425 115.83 185.157L114.871 181.197C114.741 180.656 114.83 180.086 115.12 179.611C115.409 179.137 115.875 178.796 116.415 178.664L120.374 177.704C120.915 177.574 121.485 177.663 121.96 177.952C122.435 178.242 122.776 178.708 122.908 179.249L123.868 183.209C123.998 183.749 123.909 184.32 123.62 184.795C123.33 185.27 122.864 185.61 122.323 185.742L118.364 186.701C117.874 186.821 117.358 186.76 116.911 186.529ZM121.595 178.331C121.256 178.156 120.865 178.109 120.494 178.201L116.536 179.16C116.127 179.26 115.774 179.517 115.555 179.877C115.336 180.236 115.268 180.667 115.366 181.077L116.326 185.037C116.426 185.446 116.683 185.799 117.043 186.018C117.402 186.237 117.834 186.305 118.243 186.206L122.203 185.246C122.406 185.197 122.597 185.108 122.765 184.985C122.934 184.862 123.076 184.707 123.185 184.529C123.293 184.351 123.365 184.154 123.398 183.948C123.43 183.742 123.421 183.531 123.371 183.329L122.411 179.369C122.363 179.166 122.275 178.975 122.152 178.807C122.029 178.638 121.874 178.496 121.696 178.388C121.662 178.368 121.629 178.349 121.595 178.331Z" fill="black"/>
<path d="M117.758 166.527L113.798 167.487C112.809 167.727 112.202 168.723 112.442 169.711L113.402 173.671C113.642 174.66 114.638 175.267 115.627 175.028L119.587 174.067C120.576 173.828 121.183 172.832 120.943 171.843L119.983 167.883C119.743 166.894 118.747 166.287 117.758 166.527Z" fill="#4BD657"/>
<path d="M114.16 175.165C114.115 175.142 114.07 175.116 114.027 175.091C113.791 174.948 113.586 174.759 113.424 174.537C113.262 174.314 113.145 174.061 113.08 173.793L112.121 169.834C111.991 169.293 112.08 168.723 112.37 168.248C112.659 167.773 113.125 167.433 113.665 167.301L117.624 166.341C118.165 166.21 118.735 166.3 119.21 166.589C119.685 166.879 120.026 167.345 120.158 167.885L121.118 171.845C121.248 172.386 121.159 172.956 120.87 173.431C120.58 173.906 120.114 174.247 119.573 174.379L115.614 175.338C115.124 175.458 114.608 175.397 114.16 175.165ZM118.845 166.967C118.506 166.792 118.115 166.746 117.744 166.837L113.786 167.796C113.377 167.896 113.024 168.154 112.805 168.513C112.586 168.873 112.518 169.304 112.616 169.713L113.576 173.673C113.676 174.082 113.933 174.435 114.293 174.655C114.652 174.874 115.084 174.941 115.493 174.843L119.453 173.882C119.656 173.833 119.847 173.745 120.015 173.622C120.184 173.499 120.326 173.344 120.435 173.166C120.543 172.988 120.615 172.79 120.648 172.584C120.68 172.378 120.671 172.168 120.621 171.965L119.661 168.006C119.613 167.803 119.525 167.612 119.402 167.443C119.279 167.275 119.124 167.132 118.946 167.024C118.912 167.004 118.879 166.985 118.845 166.967Z" fill="black"/>
<path d="M136.248 153L115.407 158.053C114.429 158.29 113.829 159.275 114.066 160.252C114.303 161.23 115.288 161.83 116.265 161.593L137.106 156.54C138.084 156.303 138.684 155.318 138.447 154.341C138.21 153.363 137.225 152.763 136.248 153Z" fill="#4BD657"/>
<path d="M114.811 161.732C114.434 161.538 114.126 161.234 113.927 160.86C113.728 160.486 113.648 160.06 113.698 159.64C113.748 159.219 113.926 158.824 114.207 158.508C114.488 158.191 114.86 157.968 115.272 157.869L136.113 152.816C136.378 152.751 136.654 152.74 136.923 152.781C137.193 152.823 137.452 152.917 137.685 153.059C137.919 153.201 138.121 153.388 138.282 153.608C138.444 153.829 138.56 154.079 138.624 154.344C138.688 154.609 138.699 154.885 138.657 155.154C138.615 155.424 138.52 155.683 138.378 155.916C138.235 156.149 138.048 156.351 137.828 156.512C137.607 156.672 137.357 156.788 137.091 156.852L116.251 161.904C115.766 162.022 115.254 161.961 114.811 161.732ZM137.319 153.443C136.985 153.269 136.599 153.223 136.233 153.312L115.392 158.365C114.995 158.47 114.656 158.726 114.446 159.078C114.236 159.43 114.173 159.85 114.27 160.249C114.366 160.647 114.615 160.992 114.963 161.209C115.311 161.426 115.73 161.498 116.13 161.409L136.971 156.356C137.281 156.282 137.562 156.113 137.774 155.875C137.986 155.636 138.12 155.338 138.158 155.021C138.196 154.703 138.136 154.382 137.986 154.1C137.836 153.818 137.603 153.589 137.319 153.443Z" fill="black"/>
<path d="M124.116 169.128C124.069 169.105 124.031 169.067 124.007 169.021C123.982 168.975 123.972 168.923 123.978 168.871C123.985 168.819 124.007 168.77 124.041 168.731C124.076 168.692 124.122 168.665 124.173 168.653L141.167 164.536C141.233 164.521 141.302 164.531 141.36 164.567C141.418 164.602 141.459 164.659 141.475 164.724C141.491 164.79 141.48 164.86 141.445 164.918C141.41 164.975 141.353 165.017 141.287 165.033L124.293 169.149C124.233 169.163 124.171 169.156 124.116 169.128Z" fill="black"/>
<path d="M126.943 180.799C126.896 180.775 126.859 180.738 126.834 180.692C126.81 180.646 126.8 180.594 126.806 180.542C126.813 180.491 126.834 180.443 126.869 180.404C126.903 180.365 126.949 180.337 126.999 180.325L143.993 176.208C144.026 176.2 144.06 176.198 144.094 176.203C144.127 176.207 144.16 176.219 144.189 176.236C144.218 176.254 144.243 176.276 144.263 176.304C144.283 176.331 144.298 176.362 144.306 176.395C144.314 176.428 144.315 176.462 144.31 176.495C144.304 176.529 144.292 176.561 144.275 176.59C144.257 176.618 144.233 176.643 144.206 176.663C144.178 176.682 144.147 176.696 144.114 176.704L127.12 180.82C127.06 180.835 126.997 180.828 126.943 180.799Z" fill="black"/>
<path d="M173.912 143.154L152.682 139.937C151.686 139.786 150.757 140.471 150.606 141.467C150.455 142.463 151.14 143.393 152.136 143.544L173.366 146.76C174.362 146.911 175.291 146.226 175.442 145.23C175.593 144.234 174.908 143.305 173.912 143.154Z" fill="#4BD657"/>
<path d="M150.348 141.591C149.915 141.363 149.576 140.989 149.391 140.536C149.207 140.082 149.189 139.577 149.34 139.111C149.491 138.645 149.802 138.248 150.219 137.989C150.635 137.73 151.129 137.627 151.613 137.697L172.816 140.915C173.085 140.956 173.344 141.05 173.577 141.19C173.811 141.331 174.014 141.517 174.176 141.736C174.338 141.956 174.454 142.205 174.52 142.47C174.585 142.735 174.598 143.01 174.557 143.279C174.516 143.549 174.422 143.808 174.281 144.041C174.14 144.275 173.955 144.478 173.735 144.64C173.516 144.801 173.266 144.918 173.002 144.984C172.737 145.049 172.462 145.061 172.192 145.021L150.99 141.803C150.766 141.768 150.549 141.696 150.348 141.591ZM173.224 141.571C173.072 141.493 172.908 141.44 172.739 141.415L151.537 138.197C151.128 138.14 150.714 138.246 150.384 138.493C150.053 138.739 149.833 139.106 149.771 139.514C149.71 139.921 149.811 140.337 150.054 140.67C150.296 141.004 150.66 141.228 151.067 141.294L172.269 144.512C172.636 144.566 173.01 144.489 173.325 144.294C173.64 144.098 173.875 143.798 173.99 143.445C174.104 143.093 174.09 142.711 173.95 142.368C173.81 142.025 173.552 141.743 173.224 141.571Z" fill="black"/>
<path d="M147.437 150.283C147.384 150.255 147.342 150.209 147.32 150.153C147.297 150.097 147.295 150.035 147.313 149.978C147.332 149.92 147.37 149.871 147.421 149.84C147.472 149.808 147.533 149.795 147.593 149.803L173.042 153.665C173.075 153.67 173.107 153.682 173.135 153.699C173.164 153.716 173.189 153.739 173.209 153.766C173.229 153.793 173.243 153.824 173.251 153.856C173.259 153.889 173.26 153.922 173.255 153.956C173.25 153.989 173.239 154.02 173.221 154.049C173.204 154.078 173.181 154.103 173.154 154.123C173.127 154.142 173.097 154.157 173.064 154.165C173.032 154.173 172.998 154.174 172.965 154.169L147.516 150.308C147.489 150.304 147.462 150.295 147.437 150.283Z" fill="black"/>
<path d="M146.95 154.533C146.895 154.505 146.852 154.46 146.829 154.403C146.805 154.347 146.802 154.284 146.821 154.226C146.84 154.168 146.878 154.119 146.931 154.087C146.983 154.055 147.044 154.043 147.104 154.053L172.325 157.88C172.358 157.886 172.39 157.897 172.419 157.914C172.448 157.932 172.472 157.954 172.492 157.981C172.512 158.008 172.526 158.039 172.534 158.072C172.542 158.104 172.544 158.138 172.539 158.171C172.534 158.204 172.522 158.236 172.505 158.264C172.488 158.293 172.465 158.318 172.438 158.338C172.411 158.358 172.38 158.372 172.348 158.38C172.315 158.388 172.282 158.39 172.249 158.385L147.028 154.557C147 154.554 146.974 154.546 146.95 154.533Z" fill="black"/>
<path d="M159.454 161.94C159.401 161.913 159.359 161.867 159.336 161.811C159.313 161.755 159.31 161.693 159.329 161.635C159.347 161.578 159.386 161.529 159.437 161.497C159.488 161.465 159.549 161.453 159.609 161.462L172.609 163.435C172.642 163.44 172.674 163.451 172.702 163.468C172.731 163.486 172.756 163.509 172.776 163.535C172.796 163.562 172.81 163.593 172.818 163.626C172.826 163.658 172.828 163.692 172.823 163.725C172.818 163.758 172.806 163.79 172.789 163.818C172.771 163.847 172.749 163.872 172.722 163.892C172.695 163.912 172.664 163.926 172.632 163.934C172.599 163.942 172.565 163.944 172.532 163.939L159.532 161.966C159.505 161.962 159.479 161.953 159.454 161.94Z" fill="black"/>
<path d="M114.398 170.334L116.598 172.544L118.02 168.527" fill="#4BD657"/>
<path d="M116.482 172.771C116.459 172.758 116.437 172.743 116.419 172.724L114.219 170.514C114.171 170.466 114.144 170.401 114.145 170.334C114.145 170.266 114.172 170.201 114.22 170.153C114.268 170.105 114.332 170.079 114.4 170.079C114.468 170.079 114.533 170.106 114.581 170.154L116.494 172.078L117.777 168.44C117.788 168.409 117.806 168.38 117.828 168.355C117.85 168.33 117.878 168.31 117.908 168.295C117.938 168.281 117.971 168.273 118.004 168.271C118.038 168.269 118.071 168.274 118.103 168.285C118.134 168.296 118.163 168.314 118.188 168.336C118.213 168.358 118.233 168.385 118.248 168.416C118.262 168.446 118.27 168.479 118.272 168.512C118.274 168.546 118.269 168.579 118.258 168.611L116.835 172.627C116.823 172.661 116.803 172.693 116.778 172.719C116.753 172.745 116.722 172.766 116.688 172.779C116.655 172.792 116.618 172.798 116.582 172.797C116.546 172.795 116.51 172.785 116.478 172.768L116.482 172.771Z" fill="black"/>
<path d="M119.355 183.766L119.336 183.755L116.94 182.251C116.882 182.215 116.842 182.158 116.827 182.092C116.812 182.026 116.823 181.956 116.859 181.899C116.895 181.842 116.953 181.801 117.019 181.786C117.085 181.771 117.154 181.783 117.211 181.819L119.351 183.162L120.686 179.89C120.698 179.859 120.717 179.831 120.74 179.807C120.764 179.783 120.792 179.764 120.823 179.751C120.854 179.738 120.887 179.731 120.92 179.73C120.954 179.73 120.987 179.736 121.018 179.749C121.049 179.762 121.077 179.78 121.101 179.804C121.125 179.827 121.144 179.855 121.157 179.886C121.17 179.917 121.177 179.95 121.177 179.983C121.178 180.017 121.171 180.05 121.159 180.081L119.712 183.635C119.698 183.669 119.677 183.701 119.65 183.726C119.622 183.751 119.59 183.77 119.554 183.782C119.522 183.793 119.487 183.797 119.453 183.794C119.419 183.791 119.386 183.782 119.355 183.766Z" fill="black"/>
<path d="M102.935 167.712C102.878 167.683 102.834 167.632 102.813 167.572C100.839 162.071 102.83 158.04 104.847 155.627C106.206 154.013 107.863 152.675 109.727 151.686C109.788 151.657 109.857 151.653 109.921 151.676C109.984 151.698 110.036 151.744 110.065 151.805C110.094 151.865 110.099 151.935 110.077 151.998C110.055 152.062 110.01 152.114 109.949 152.144C108.15 153.111 106.547 154.407 105.226 155.966C102.425 159.325 101.777 163.171 103.292 167.399C103.309 167.447 103.311 167.5 103.299 167.549C103.286 167.599 103.258 167.644 103.22 167.678C103.181 167.711 103.133 167.733 103.082 167.739C103.031 167.745 102.98 167.735 102.934 167.712H102.935Z" fill="black"/>
<path d="M164.112 131.482C164.058 131.454 164.015 131.408 163.992 131.352C163.969 131.296 163.966 131.233 163.985 131.175C164.004 131.118 164.043 131.069 164.095 131.037C164.147 131.006 164.209 130.994 164.269 131.003L177.097 133.058C177.131 133.063 177.163 133.074 177.192 133.092C177.222 133.109 177.247 133.132 177.267 133.159C177.288 133.186 177.302 133.218 177.31 133.251C177.318 133.284 177.32 133.318 177.314 133.351C177.309 133.385 177.297 133.417 177.279 133.446C177.261 133.475 177.237 133.5 177.209 133.519C177.182 133.539 177.15 133.553 177.117 133.56C177.084 133.567 177.049 133.568 177.016 133.561L164.188 131.502C164.162 131.499 164.136 131.492 164.112 131.482Z" fill="black"/>
<path d="M182.789 149.26C182.789 149.26 158.914 137.258 161.787 153.392L150.11 160.954C150.11 160.954 149.564 168.885 160.515 166.055C160.515 166.055 162.992 170.608 167.723 171.332C167.723 171.332 168.216 175.749 177.05 174.763C185.884 173.776 193.517 163.138 193.517 163.138L182.789 149.26Z" fill="#FFCDB2"/>
<path d="M174.613 175.253C172.092 175.253 170.163 174.728 168.852 173.686C168.172 173.17 167.673 172.451 167.428 171.633C163.297 170.887 160.921 167.403 160.343 166.454C156.454 167.415 153.555 167.145 151.726 165.615C149.585 163.836 149.751 161.048 149.76 160.931C149.763 160.877 149.779 160.825 149.806 160.779C149.834 160.733 149.872 160.694 149.917 160.666L161.401 153.226C160.825 149.733 161.468 147.265 163.315 145.885C168.7 141.873 182.359 148.661 182.937 148.952C182.984 148.975 183.024 149.008 183.057 149.048L193.785 162.926C193.83 162.986 193.854 163.058 193.854 163.132C193.854 163.207 193.83 163.279 193.785 163.339C193.47 163.779 185.951 174.115 177.073 175.106C176.256 175.2 175.435 175.25 174.613 175.253ZM160.516 165.709C160.578 165.71 160.639 165.726 160.693 165.758C160.746 165.789 160.79 165.835 160.82 165.889C160.845 165.933 163.276 170.302 167.776 170.991C167.851 171.002 167.92 171.037 167.973 171.092C168.025 171.147 168.058 171.217 168.067 171.292C168.087 171.456 168.672 175.35 177.011 174.419C184.919 173.537 191.97 164.617 193.085 163.129L182.566 149.535C181.5 149.011 168.594 142.818 163.737 146.44C162.076 147.68 161.534 149.998 162.124 153.332C162.136 153.399 162.128 153.468 162.101 153.53C162.074 153.592 162.029 153.645 161.972 153.682L150.452 161.145C150.452 161.737 150.59 163.769 152.18 165.087C153.869 166.486 156.645 166.7 160.431 165.719C160.458 165.712 160.486 165.709 160.514 165.709H160.516Z" fill="black"/>
<path d="M113.832 103.983C128.475 96.7318 191.419 84.9277 210.568 101.172C229.718 117.416 213.024 149.263 209.623 154.303C206.223 159.342 198.923 157.816 198.923 157.816L193.504 163.346L177.836 147.194L180.652 144.25C180.652 144.25 166.573 141.333 184.688 119.651" fill="#07ACEE"/>
<path d="M193.503 163.69C193.457 163.69 193.411 163.68 193.368 163.662C193.325 163.644 193.287 163.617 193.254 163.584L177.586 147.435C177.524 147.37 177.49 147.284 177.49 147.195C177.49 147.106 177.524 147.02 177.586 146.955L180.006 144.421C178.897 144.045 176.503 142.928 175.517 140.098C173.884 135.409 176.879 128.453 184.423 119.426C184.451 119.388 184.486 119.357 184.527 119.333C184.568 119.31 184.613 119.295 184.659 119.29C184.706 119.285 184.753 119.289 184.798 119.302C184.843 119.315 184.885 119.338 184.921 119.368C184.957 119.398 184.986 119.435 185.007 119.477C185.028 119.519 185.041 119.564 185.044 119.611C185.047 119.658 185.04 119.705 185.025 119.749C185.009 119.793 184.985 119.834 184.953 119.868C175.773 130.856 175.107 136.808 176.167 139.863C177.308 143.153 180.685 143.9 180.72 143.907C180.781 143.919 180.837 143.947 180.883 143.988C180.929 144.03 180.963 144.082 180.981 144.141C181 144.2 181.002 144.263 180.987 144.323C180.973 144.383 180.943 144.439 180.9 144.483L178.317 147.188L193.503 162.856L198.674 157.582C198.714 157.54 198.765 157.51 198.82 157.493C198.876 157.476 198.935 157.473 198.992 157.485C199.061 157.499 206.104 158.9 209.335 154.116C210.932 151.75 215.987 142.596 218.21 131.875C220.994 118.472 218.346 108.232 210.342 101.442C199.342 92.1102 174.418 92.8476 160.54 94.1171C140.58 95.9443 121.193 100.73 113.983 104.299C113.901 104.34 113.806 104.346 113.719 104.317C113.632 104.287 113.561 104.225 113.52 104.142C113.48 104.06 113.473 103.965 113.503 103.878C113.532 103.791 113.595 103.72 113.677 103.679C120.944 100.083 140.437 95.2646 160.476 93.4305C174.462 92.1494 199.595 91.419 210.789 100.914C215.254 104.702 218.123 109.628 219.314 115.557C220.291 120.414 220.146 125.951 218.888 132.015C216.641 142.845 211.514 152.107 209.902 154.504C206.724 159.213 200.224 158.393 199.036 158.19L193.736 163.589C193.674 163.65 193.591 163.686 193.503 163.69Z" fill="black"/>
<path d="M198.548 157.476H198.49L193.324 162.806L178.348 147.193L181.03 144.354C180.492 144.219 179.974 144.014 179.488 143.746C187.377 145.299 195.244 153.608 198.548 157.476Z" fill="#0598C6"/>
<path d="M161.784 153.756C161.707 153.756 161.632 153.73 161.57 153.683C161.509 153.635 161.466 153.568 161.448 153.493C161.429 153.418 161.436 153.339 161.468 153.268C161.5 153.197 161.554 153.139 161.623 153.104L165.748 150.929C165.829 150.886 165.924 150.877 166.012 150.904C166.099 150.931 166.173 150.992 166.215 151.074C166.258 151.155 166.267 151.25 166.24 151.338C166.212 151.425 166.152 151.499 166.07 151.541L161.946 153.714C161.896 153.741 161.841 153.756 161.784 153.756Z" fill="black"/>
<path d="M160.549 166.289C160.504 166.292 160.459 166.286 160.416 166.271C160.373 166.256 160.333 166.232 160.299 166.202C160.265 166.172 160.238 166.135 160.218 166.094C160.198 166.053 160.187 166.009 160.184 165.963C160.182 165.918 160.188 165.872 160.203 165.83C160.218 165.787 160.241 165.747 160.272 165.713C160.302 165.679 160.339 165.652 160.379 165.632C160.42 165.612 160.465 165.601 160.51 165.598C164.609 165.098 168.422 163.238 171.34 160.315C171.401 160.246 171.486 160.205 171.578 160.2C171.67 160.195 171.76 160.226 171.828 160.287C171.897 160.348 171.938 160.434 171.943 160.526C171.948 160.617 171.917 160.707 171.856 160.776C171.685 160.967 167.598 165.483 160.591 166.287L160.549 166.289Z" fill="black"/>
<path d="M167.53 171.624H167.424C167.332 171.624 167.244 171.587 167.179 171.523C167.115 171.458 167.078 171.37 167.078 171.278C167.078 171.187 167.115 171.099 167.179 171.034C167.244 170.969 167.332 170.933 167.424 170.933H167.525C172.677 170.933 177.315 166.225 177.364 166.177C177.428 166.115 177.514 166.08 177.604 166.08C177.694 166.08 177.78 166.115 177.844 166.178C177.909 166.24 177.946 166.326 177.949 166.415C177.952 166.505 177.92 166.592 177.859 166.658C177.663 166.864 172.974 171.624 167.53 171.624Z" fill="black"/>
<path d="M151.838 103.203C152.779 103.203 153.543 102.44 153.543 101.498C153.543 100.556 152.779 99.793 151.838 99.793C150.896 99.793 150.133 100.556 150.133 101.498C150.133 102.44 150.896 103.203 151.838 103.203Z" fill="#51CEF4"/>
<path d="M163.803 116.412C164.744 116.412 165.508 115.649 165.508 114.707C165.508 113.765 164.744 113.002 163.803 113.002C162.861 113.002 162.098 113.765 162.098 114.707C162.098 115.649 162.861 116.412 163.803 116.412Z" fill="#51CEF4"/>
<path d="M192.678 107.514C193.619 107.514 194.383 106.751 194.383 105.809C194.383 104.867 193.619 104.104 192.678 104.104C191.736 104.104 190.973 104.867 190.973 105.809C190.973 106.751 191.736 107.514 192.678 107.514Z" fill="#51CEF4"/>
<path d="M210.998 125.341C211.94 125.341 212.703 124.577 212.703 123.636C212.703 122.694 211.94 121.931 210.998 121.931C210.056 121.931 209.293 122.694 209.293 123.636C209.293 124.577 210.056 125.341 210.998 125.341Z" fill="#51CEF4"/>
<path d="M203.49 142.486C204.432 142.486 205.195 141.723 205.195 140.781C205.195 139.84 204.432 139.076 203.49 139.076C202.548 139.076 201.785 139.84 201.785 140.781C201.785 141.723 202.548 142.486 203.49 142.486Z" fill="#51CEF4"/>
<path d="M213.484 138.35C213.448 138.35 213.413 138.345 213.378 138.334C213.334 138.321 213.293 138.299 213.257 138.27C213.222 138.241 213.192 138.205 213.171 138.165C213.15 138.124 213.136 138.08 213.132 138.034C213.128 137.988 213.134 137.942 213.148 137.898C217.005 126.027 215.623 117.979 213.786 113.32C211.8 108.279 208.865 106.002 208.835 105.979C208.762 105.924 208.714 105.841 208.702 105.751C208.69 105.66 208.714 105.568 208.77 105.495C208.826 105.423 208.908 105.376 208.998 105.364C209.089 105.351 209.18 105.374 209.254 105.429C209.378 105.525 212.348 107.818 214.411 113.018C216.302 117.79 217.733 126.018 213.804 138.11C213.783 138.179 213.74 138.239 213.683 138.281C213.625 138.324 213.556 138.348 213.484 138.35Z" fill="white"/>
<path d="M173.418 173.847H173.084C172.992 173.847 172.904 173.811 172.84 173.746C172.775 173.681 172.738 173.593 172.738 173.501C172.738 173.41 172.775 173.322 172.84 173.257C172.904 173.192 172.992 173.156 173.084 173.156H173.416C184.224 173.156 187.215 166.191 187.241 166.119C187.258 166.077 187.283 166.039 187.315 166.007C187.347 165.974 187.385 165.949 187.427 165.931C187.469 165.914 187.514 165.904 187.56 165.904C187.605 165.904 187.65 165.913 187.692 165.93C187.734 165.947 187.772 165.973 187.805 166.005C187.837 166.037 187.862 166.075 187.88 166.117C187.898 166.159 187.907 166.204 187.907 166.249C187.907 166.295 187.898 166.34 187.881 166.382C187.846 166.458 184.678 173.847 173.418 173.847Z" fill="white"/>
<path d="M167.392 170.371C166.809 170.379 166.231 170.262 165.697 170.028C165.616 169.988 165.554 169.918 165.524 169.834C165.494 169.749 165.498 169.656 165.535 169.575C165.572 169.493 165.639 169.429 165.723 169.396C165.806 169.363 165.899 169.364 165.982 169.399C169.577 171.032 175.977 165.164 176.042 165.104C176.074 165.066 176.113 165.035 176.158 165.014C176.202 164.993 176.25 164.981 176.3 164.981C176.349 164.98 176.398 164.989 176.443 165.009C176.489 165.028 176.529 165.057 176.562 165.094C176.595 165.13 176.62 165.173 176.635 165.22C176.651 165.267 176.656 165.317 176.65 165.366C176.644 165.414 176.628 165.462 176.603 165.504C176.577 165.546 176.543 165.583 176.503 165.611C176.272 165.832 171.316 170.371 167.392 170.371Z" fill="white"/>
<path d="M156.583 165.147C155.774 165.157 154.969 165.041 154.196 164.801C154.151 164.789 154.11 164.767 154.074 164.738C154.038 164.709 154.008 164.672 153.986 164.631C153.964 164.59 153.951 164.545 153.947 164.499C153.943 164.453 153.948 164.406 153.962 164.362C153.977 164.318 154 164.277 154.031 164.242C154.061 164.207 154.099 164.178 154.14 164.158C154.182 164.138 154.228 164.126 154.274 164.124C154.32 164.122 154.367 164.129 154.41 164.145C159.737 165.866 168.83 159.875 168.926 159.815C168.964 159.786 169.007 159.765 169.053 159.754C169.099 159.742 169.147 159.74 169.194 159.748C169.24 159.755 169.285 159.773 169.325 159.798C169.365 159.824 169.399 159.858 169.425 159.897C169.452 159.937 169.47 159.981 169.478 160.028C169.486 160.074 169.485 160.122 169.474 160.168C169.463 160.215 169.443 160.258 169.414 160.296C169.386 160.334 169.35 160.366 169.309 160.389C168.97 160.613 162.088 165.147 156.583 165.147Z" fill="white"/>
<path d="M227.115 117.346C227.093 117.348 227.071 117.348 227.048 117.346C227.003 117.337 226.961 117.32 226.923 117.295C226.885 117.27 226.852 117.238 226.826 117.2C226.801 117.162 226.783 117.12 226.774 117.075C226.765 117.031 226.765 116.985 226.774 116.94C228.53 108.009 226.657 101.028 221.207 96.1891C218.683 93.9783 215.675 92.3925 212.424 91.5601C212.334 91.5415 212.255 91.4879 212.205 91.4112C212.155 91.3345 212.137 91.241 212.156 91.1511C212.174 91.0613 212.228 90.9825 212.305 90.9322C212.381 90.8819 212.475 90.8641 212.565 90.8827C215.929 91.7248 219.042 93.3602 221.645 95.6522C225.537 99.1084 229.71 105.613 227.454 117.081C227.436 117.157 227.392 117.224 227.331 117.272C227.269 117.32 227.193 117.346 227.115 117.346Z" fill="black"/>
<path d="M109.857 67.0862C114.891 67.0862 118.972 63.0052 118.972 57.9711C118.972 52.9369 114.891 48.856 109.857 48.856C104.823 48.856 100.742 52.9369 100.742 57.9711C100.742 63.0052 104.823 67.0862 109.857 67.0862Z" fill="#382256"/>
<path d="M109.867 48.8563C111.89 48.8579 113.856 49.5328 115.454 50.7746C117.051 52.0165 118.19 53.7546 118.691 55.7152C119.192 57.6758 119.026 59.7473 118.22 61.6033C117.414 63.4593 116.013 64.9942 114.238 65.9662C112.463 66.9382 110.415 67.2919 108.417 66.9717C106.419 66.6514 104.585 65.6754 103.202 64.1975C101.82 62.7195 100.969 60.8237 100.783 58.8087C100.597 56.7937 101.087 54.7741 102.176 53.0682C102.997 51.7735 104.134 50.7081 105.479 49.9715C106.824 49.2349 108.333 48.8512 109.867 48.8563ZM109.867 48.165C107.505 48.1623 105.223 49.0115 103.437 50.5567C101.652 52.1019 100.483 54.2393 100.147 56.5766C99.8106 58.9138 100.329 61.2939 101.606 63.2798C102.883 65.2658 104.834 66.7243 107.1 67.3875C109.367 68.0508 111.796 67.8742 113.943 66.8902C116.089 65.9063 117.809 64.181 118.786 62.0312C119.762 59.8814 119.931 57.4514 119.26 55.1873C118.589 52.9233 117.124 50.9773 115.134 49.7065C113.562 48.7 111.734 48.165 109.867 48.165Z" fill="black"/>
<path d="M132.317 88.7338C132.317 88.7338 139.178 83.8952 137.07 77.9667C134.962 72.0381 133.434 72.37 132.526 69.1695C131.619 65.9691 126.416 62.317 121.223 63.264C121.223 63.264 115.448 57.9369 109.642 58.8194C103.835 59.7019 101.577 62.1972 99.5244 66.453C97.4714 70.7087 95.6604 72.5059 94.1097 75.439C92.559 78.3722 89.8288 86.8122 101.197 94.3905C112.566 101.969 132.317 88.7338 132.317 88.7338Z" fill="#382256"/>
<path d="M110.977 58.7206C116.304 58.7206 121.23 63.2643 121.23 63.2643C121.791 63.1626 122.36 63.1117 122.931 63.1123C127.511 63.1123 131.728 66.3196 132.534 69.1698C133.442 72.3702 134.967 72.0338 137.078 77.9669C139.189 83.9 132.325 88.7341 132.325 88.7341C132.325 88.7341 120.385 96.7409 109.728 96.7409C106.68 96.7409 103.737 96.0843 101.203 94.3999C89.8343 86.8217 92.5647 78.3909 94.1154 75.4485C95.6661 72.5062 97.4702 70.7067 99.5301 66.4625C101.59 62.2183 103.841 59.709 109.648 58.8289C110.087 58.7628 110.53 58.7297 110.975 58.7298L110.977 58.7206ZM110.975 58.0386C110.496 58.0387 110.017 58.0741 109.544 58.1446C103.447 59.0662 101.018 61.7851 98.9079 66.1606C97.9664 68.0862 96.8754 69.9352 95.6452 71.6905C94.8672 72.8013 94.1525 73.9552 93.5047 75.1467C92.1823 77.6515 91.6978 80.5143 92.1222 83.3148C92.8135 87.6926 95.742 91.6096 100.811 94.9944C103.258 96.6257 106.254 97.4529 109.717 97.4529C115.348 97.4529 121.299 95.2409 125.302 93.3861C127.86 92.2112 130.332 90.8553 132.698 89.3286H132.712C133.972 88.3898 135.091 87.2747 136.034 86.0175C138.078 83.271 138.661 80.4185 137.716 77.7641C136.513 74.3771 135.486 72.9624 134.659 71.8265C134.02 70.9486 133.56 70.3149 133.189 69.0085C132.311 65.9048 127.875 62.4486 122.919 62.4486C122.421 62.4487 121.924 62.4849 121.431 62.5569C120.32 61.603 115.859 58.057 110.965 58.057L110.975 58.0386Z" fill="black"/>
<path d="M110.584 80.3514H110.552C106.494 79.9873 102.948 75.674 102.808 75.4897C102.75 75.4185 102.723 75.3272 102.732 75.2361C102.742 75.1449 102.787 75.0612 102.858 75.0035C102.93 74.9457 103.021 74.9186 103.112 74.9281C103.203 74.9376 103.287 74.9829 103.345 75.0541C103.379 75.0979 106.849 79.326 110.614 79.6624C110.706 79.6664 110.792 79.7066 110.854 79.7742C110.916 79.8418 110.949 79.9314 110.945 80.023C110.941 80.1147 110.901 80.201 110.833 80.263C110.765 80.325 110.676 80.3576 110.584 80.3536V80.3514Z" fill="black"/>
<path d="M110.497 77.7316C109.574 77.7263 108.657 77.5969 107.769 77.3468C107.685 77.3191 107.614 77.2601 107.572 77.1821C107.53 77.104 107.52 77.0129 107.544 76.9274C107.567 76.842 107.622 76.7688 107.698 76.7229C107.774 76.677 107.864 76.662 107.951 76.6809C115.642 78.7869 118.854 71.0865 118.987 70.757C119.022 70.6721 119.089 70.6043 119.173 70.5687C119.258 70.5331 119.353 70.5324 119.438 70.567C119.523 70.6015 119.591 70.6683 119.626 70.7528C119.662 70.8373 119.663 70.9325 119.628 71.0174C119.598 71.0935 116.84 77.7316 110.497 77.7316Z" fill="white"/>
<path d="M100.869 49.3006C100.829 49.3003 100.79 49.2933 100.753 49.2799C100.711 49.2649 100.671 49.2416 100.637 49.2114C100.604 49.1811 100.576 49.1444 100.557 49.1035C100.537 49.0626 100.526 49.0182 100.524 48.973C100.522 48.9277 100.528 48.8825 100.544 48.8398C101.288 46.7431 102.525 45.2776 104.23 44.4804C107.207 43.0772 110.507 44.25 110.645 44.3007C110.725 44.3357 110.789 44.3998 110.823 44.4799C110.858 44.5601 110.861 44.6504 110.832 44.7327C110.803 44.815 110.743 44.8831 110.666 44.9235C110.589 44.9639 110.499 44.9736 110.414 44.9504C110.385 44.9389 107.242 43.826 104.525 45.1071C103.007 45.8237 101.894 47.1578 101.214 49.0702C101.189 49.1409 101.142 49.2016 101.08 49.2432C101.018 49.2847 100.943 49.3049 100.869 49.3006Z" fill="black"/>
<path d="M103.834 55.4392C103.774 55.4391 103.715 55.4235 103.663 55.394C103.611 55.3645 103.568 55.3221 103.537 55.2708C103.507 55.2195 103.49 55.1611 103.488 55.1014C103.487 55.0416 103.501 54.9826 103.529 54.9299C104.647 52.8562 106.117 51.5843 107.891 51.1581C110.767 50.4668 113.373 52.2479 113.481 52.324C113.553 52.3772 113.602 52.4564 113.617 52.5449C113.632 52.6335 113.612 52.7243 113.561 52.7982C113.51 52.8722 113.432 52.9234 113.344 52.9411C113.256 52.9588 113.165 52.9416 113.089 52.8931C113.064 52.8747 110.619 51.2134 108.048 51.8332C106.474 52.2111 105.158 53.3631 104.131 55.2571C104.102 55.3112 104.059 55.3566 104.007 55.3886C103.955 55.4206 103.895 55.4381 103.834 55.4392Z" fill="white"/>
<path d="M114.119 101.178V104.8C114.119 104.8 107.843 114.214 95.7695 106.489C95.7695 106.489 101.691 97.9771 104.862 87.8759C104.862 87.8759 100.394 86.6639 101.311 82.6593C102.228 78.6547 105.511 78.1317 107.373 79.3229C107.373 79.3229 114.61 84.9243 123.041 69.6641C123.041 69.6641 130.852 73.3507 132.092 81.6663C133.331 89.9818 131.218 99.461 124.753 101.887C118.288 104.313 114.119 101.178 114.119 101.178Z" fill="#FFCDB2"/>
<path d="M123.043 69.6639C123.043 69.6639 130.854 73.3505 132.094 81.6661C133.333 89.9817 131.22 99.4608 124.755 101.887C123.211 102.484 121.572 102.797 119.916 102.809C116.283 102.809 114.115 101.177 114.115 101.177V104.799C114.115 104.799 110.958 109.534 104.817 109.534C102.299 109.534 99.2876 108.737 95.7646 106.488C95.7646 106.488 101.686 97.977 104.857 87.8757C104.857 87.8757 100.389 86.6637 101.306 82.6591C101.946 79.8596 103.746 78.7629 105.407 78.7629C106.101 78.7588 106.781 78.953 107.368 79.3228C108.383 79.9994 109.581 80.3492 110.801 80.3251C113.711 80.3251 118.174 78.4633 123.038 69.6639H123.043ZM123.038 68.9727C122.915 68.9725 122.793 69.0056 122.687 69.0684C122.58 69.1312 122.492 69.2215 122.433 69.3298C117.728 77.8551 113.511 79.6361 110.801 79.6361C109.734 79.6553 108.685 79.3553 107.79 78.7744L107.741 78.7421C107.042 78.3038 106.233 78.0722 105.407 78.0739C103.589 78.0739 101.38 79.2375 100.631 82.5071C100.193 84.4218 100.771 86.0808 102.306 87.3112C102.821 87.7173 103.389 88.0506 103.995 88.3019C100.847 97.9147 95.2554 106.014 95.1977 106.097C95.1447 106.173 95.1075 106.259 95.0886 106.351C95.0697 106.442 95.0694 106.536 95.0877 106.627C95.106 106.718 95.1425 106.805 95.195 106.881C95.2476 106.958 95.3151 107.024 95.3935 107.074C98.6631 109.166 101.834 110.228 104.817 110.228C111.253 110.228 114.552 105.389 114.691 105.184C114.766 105.071 114.806 104.938 114.806 104.802V102.373C116.403 103.128 118.15 103.513 119.916 103.5C121.65 103.485 123.368 103.158 124.986 102.534C128.197 101.329 130.607 98.447 131.96 94.1982C133.14 90.4932 133.425 86.007 132.764 81.5647C132.237 78.0025 130.437 74.7076 127.564 72.0348C126.3 70.8416 124.873 69.8331 123.326 69.0395C123.234 68.9961 123.133 68.9733 123.032 68.9727H123.038Z" fill="black"/>
<path d="M114.237 101.886C114.2 101.886 114.163 101.88 114.128 101.867C110.442 100.639 107.767 96.7568 107.654 96.5932C107.628 96.5557 107.61 96.5134 107.601 96.469C107.592 96.4245 107.591 96.3787 107.6 96.3341C107.608 96.2895 107.625 96.247 107.65 96.209C107.675 96.171 107.707 96.1383 107.745 96.1127C107.782 96.0872 107.825 96.0693 107.869 96.06C107.913 96.0507 107.959 96.0503 108.004 96.0588C108.048 96.0672 108.091 96.0844 108.129 96.1092C108.167 96.1341 108.2 96.1662 108.225 96.2037C108.253 96.2429 110.882 100.056 114.347 101.213C114.425 101.239 114.49 101.292 114.532 101.362C114.574 101.433 114.59 101.515 114.577 101.596C114.564 101.677 114.522 101.75 114.46 101.803C114.397 101.856 114.318 101.886 114.237 101.886Z" fill="black"/>
<path d="M104.971 85.9985C104.908 85.9986 104.847 85.9818 104.793 85.9497C104.739 85.9177 104.694 85.8717 104.664 85.8165C103.84 84.2682 103.69 83.0147 104.222 82.0907C104.987 80.7589 106.854 80.6737 106.934 80.6714C106.98 80.6689 107.025 80.6756 107.068 80.6911C107.111 80.7066 107.15 80.7305 107.183 80.7615C107.216 80.7924 107.243 80.8298 107.262 80.8713C107.28 80.9129 107.29 80.9577 107.291 81.0032C107.294 81.0947 107.261 81.1838 107.199 81.2511C107.137 81.3184 107.051 81.3584 106.959 81.3626C106.934 81.3626 105.39 81.441 104.819 82.4363C104.416 83.1414 104.57 84.169 105.28 85.4893C105.307 85.542 105.321 85.6009 105.319 85.6604C105.318 85.7199 105.301 85.7779 105.27 85.829C105.24 85.8801 105.196 85.9225 105.145 85.9522C105.093 85.9819 105.035 85.9978 104.976 85.9985H104.971Z" fill="black"/>
<path d="M122.694 81.9619C118.012 82.3144 112.148 79.4873 110.874 80.9688C109.6 82.4504 110.107 84.7383 112.499 85.6116C114.89 86.4849 117.337 86.7407 122.406 87.0241C127.475 87.3075 132.448 87.2084 132.241 84.4526C132.033 81.6969 129.579 81.4412 122.694 81.9619Z" fill="#FFB49F"/>
<path d="M128.369 79.7224C128.319 79.7227 128.27 79.7122 128.224 79.6915C128.179 79.6708 128.139 79.6405 128.106 79.6026C128.092 79.5865 126.751 78.0404 125.067 78.1671C125.022 78.1705 124.976 78.1648 124.933 78.1505C124.89 78.1362 124.85 78.1136 124.815 78.0838C124.781 78.0541 124.753 78.0179 124.732 77.9772C124.712 77.9366 124.7 77.8923 124.696 77.8469C124.693 77.8015 124.699 77.7559 124.713 77.7127C124.727 77.6695 124.75 77.6295 124.779 77.5951C124.809 77.5606 124.845 77.5324 124.886 77.5119C124.927 77.4915 124.971 77.4792 125.016 77.4759C127.051 77.3261 128.567 79.075 128.632 79.151C128.674 79.2012 128.702 79.2626 128.71 79.3279C128.719 79.3931 128.709 79.4595 128.682 79.5193C128.654 79.5791 128.61 79.6298 128.555 79.6654C128.499 79.7009 128.435 79.7199 128.369 79.7201V79.7224Z" fill="black"/>
<path d="M123.174 90.3716C123.095 90.3716 123.018 90.3443 122.957 90.2943C122.896 90.2444 122.854 90.1748 122.838 90.0973L121.296 82.6642C121.278 82.5744 121.295 82.4809 121.346 82.4042C121.396 82.3275 121.475 82.2739 121.565 82.2553C121.655 82.2366 121.748 82.2544 121.825 82.3048C121.902 82.3551 121.955 82.4339 121.974 82.5237L123.515 89.9568C123.524 90.0013 123.524 90.0471 123.516 90.0917C123.507 90.1363 123.49 90.1787 123.465 90.2166C123.44 90.2545 123.407 90.287 123.37 90.3124C123.332 90.3378 123.29 90.3556 123.246 90.3646C123.222 90.3693 123.198 90.3717 123.174 90.3716Z" fill="black"/>
<path d="M103.02 89.1258C103.845 89.1258 104.513 88.4573 104.513 87.6327C104.513 86.8081 103.845 86.1396 103.02 86.1396C102.196 86.1396 101.527 86.8081 101.527 87.6327C101.527 88.4573 102.196 89.1258 103.02 89.1258Z" fill="#07ACEE"/>
<path d="M103.022 86.1419C103.353 86.1419 103.674 86.252 103.935 86.4547C104.197 86.6575 104.384 86.9415 104.466 87.262C104.548 87.5825 104.521 87.9213 104.39 88.225C104.259 88.5286 104.03 88.7799 103.74 88.9392C103.45 89.0986 103.115 89.1569 102.788 89.105C102.461 89.0532 102.161 88.894 101.935 88.6527C101.708 88.4114 101.569 88.1017 101.538 87.7722C101.507 87.4428 101.586 87.1124 101.764 86.8332C101.898 86.6208 102.083 86.4459 102.303 86.325C102.524 86.2041 102.771 86.1411 103.022 86.1419ZM103.022 85.4507C102.497 85.4507 101.989 85.6402 101.592 85.9842C101.196 86.3283 100.936 86.8039 100.862 87.3237C100.787 87.8436 100.903 88.3728 101.188 88.8143C101.472 89.2558 101.906 89.5799 102.41 89.7272C102.914 89.8744 103.454 89.8349 103.932 89.616C104.409 89.397 104.791 89.0133 105.009 88.5352C105.226 88.0571 105.263 87.5167 105.114 87.0132C104.965 86.5096 104.639 86.0768 104.197 85.794C103.846 85.5692 103.438 85.45 103.022 85.4507Z" fill="black"/>
<path d="M114.978 84.3445C115.445 84.3445 115.824 83.9659 115.824 83.4989C115.824 83.0319 115.445 82.6533 114.978 82.6533C114.511 82.6533 114.133 83.0319 114.133 83.4989C114.133 83.9659 114.511 84.3445 114.978 84.3445Z" fill="black"/>
<path d="M127.342 85.1946C127.809 85.1946 128.187 84.816 128.187 84.349C128.187 83.882 127.809 83.5034 127.342 83.5034C126.875 83.5034 126.496 83.882 126.496 84.349C126.496 84.816 126.875 85.1946 127.342 85.1946Z" fill="black"/>
<path d="M117.847 96.6829C117.124 96.6848 116.408 96.5438 115.739 96.2681C112.578 94.9686 111.294 91.0977 111.242 90.9318C111.219 90.8465 111.231 90.7559 111.273 90.6787C111.316 90.6014 111.386 90.5433 111.47 90.5162C111.554 90.4891 111.645 90.4951 111.725 90.533C111.804 90.5708 111.866 90.6377 111.898 90.7199C111.912 90.7567 113.143 94.4548 116.007 95.6299C117.504 96.2451 119.207 96.07 121.076 95.1069C121.156 95.0697 121.248 95.0651 121.332 95.0939C121.416 95.1227 121.486 95.1828 121.527 95.2617C121.568 95.3405 121.577 95.4321 121.552 95.5175C121.527 95.6028 121.47 95.6752 121.394 95.7198C120.306 96.3207 119.09 96.651 117.847 96.6829Z" fill="black"/>
<path d="M119.633 77.674C119.586 77.6741 119.539 77.6645 119.496 77.6459C119.453 77.6273 119.414 77.6 119.382 77.5657C119.151 77.3353 118.409 76.7016 117.914 76.8744C117.871 76.8896 117.826 76.8961 117.781 76.8937C117.735 76.8913 117.691 76.88 117.65 76.8604C117.609 76.8408 117.572 76.8134 117.542 76.7796C117.511 76.7458 117.488 76.7064 117.473 76.6636C117.458 76.6208 117.451 76.5754 117.454 76.5301C117.456 76.4847 117.467 76.4403 117.487 76.3993C117.506 76.3584 117.534 76.3216 117.568 76.2913C117.601 76.2609 117.641 76.2375 117.684 76.2224C118.688 75.8721 119.757 76.962 119.882 77.0887C119.929 77.1372 119.961 77.1987 119.974 77.2653C119.986 77.332 119.978 77.4008 119.952 77.4631C119.925 77.5255 119.881 77.5786 119.824 77.6157C119.767 77.6528 119.701 77.6723 119.633 77.6717V77.674Z" fill="black"/>
<path d="M97.8072 105.899C97.7407 105.9 97.6755 105.88 97.6195 105.844C97.5636 105.809 97.5192 105.757 97.4917 105.697C97.4642 105.636 97.4549 105.569 97.4647 105.503C97.4745 105.437 97.5029 105.376 97.5468 105.326C100.851 101.549 104.215 93.4318 104.247 93.3442C104.264 93.3022 104.29 93.2639 104.322 93.2317C104.354 93.1994 104.392 93.1738 104.434 93.1562C104.476 93.1387 104.521 93.1296 104.566 93.1294C104.612 93.1292 104.657 93.138 104.699 93.1553C104.741 93.1725 104.779 93.1979 104.811 93.2299C104.844 93.262 104.869 93.3 104.887 93.342C104.904 93.3839 104.914 93.4289 104.914 93.4743C104.914 93.5198 104.905 93.5648 104.888 93.6069C104.747 93.9433 101.445 101.902 98.0675 105.775C98.0357 105.813 97.9961 105.844 97.9512 105.866C97.9062 105.887 97.857 105.899 97.8072 105.899Z" fill="white"/>
<defs>
<filter id="filter0_d_10210_62210" x="-2.82472" y="75.6952" width="27.169" height="27.167" filterUnits="userSpaceOnUse" color-interpolation-filters="sRGB">
<feFlood flood-opacity="0" result="BackgroundImageFix"/>
<feColorMatrix in="SourceAlpha" type="matrix" values="0 0 0 0 0 0 0 0 0 0 0 0 0 0 0 0 0 0 127 0" result="hardAlpha"/>
<feOffset dy="1.43057"/>
<feGaussianBlur stdDeviation="3.57642"/>
<feComposite in2="hardAlpha" operator="out"/>
<feColorMatrix type="matrix" values="0 0 0 0 0 0 0 0 0 0 0 0 0 0 0 0 0 0 0.05 0"/>
<feBlend mode="normal" in2="BackgroundImageFix" result="effect1_dropShadow_10210_62210"/>
<feBlend mode="normal" in="SourceGraphic" in2="effect1_dropShadow_10210_62210" result="shape"/>
</filter>
<filter id="filter1_d_10210_62210" x="260.296" y="116.027" width="27.169" height="27.17" filterUnits="userSpaceOnUse" color-interpolation-filters="sRGB">
<feFlood flood-opacity="0" result="BackgroundImageFix"/>
<feColorMatrix in="SourceAlpha" type="matrix" values="0 0 0 0 0 0 0 0 0 0 0 0 0 0 0 0 0 0 127 0" result="hardAlpha"/>
<feOffset dy="1.43057"/>
<feGaussianBlur stdDeviation="3.57642"/>
<feComposite in2="hardAlpha" operator="out"/>
<feColorMatrix type="matrix" values="0 0 0 0 0 0 0 0 0 0 0 0 0 0 0 0 0 0 0.05 0"/>
<feBlend mode="normal" in2="BackgroundImageFix" result="effect1_dropShadow_10210_62210"/>
<feBlend mode="normal" in="SourceGraphic" in2="effect1_dropShadow_10210_62210" result="shape"/>
</filter>
<linearGradient id="paint0_linear_10210_62210" x1="14.3628" y1="78.6815" x2="275.328" y2="140.839" gradientUnits="userSpaceOnUse">
<stop stop-color="#CDD5E2"/>
<stop offset="1" stop-color="#CDD5E2" stop-opacity="0"/>
</linearGradient>
<linearGradient id="paint1_linear_10210_62210" x1="274.879" y1="137.251" x2="248.501" y2="206.5" gradientUnits="userSpaceOnUse">
<stop stop-color="#CDD5E2"/>
<stop offset="1" stop-color="#CDD5E2" stop-opacity="0"/>
</linearGradient>
<linearGradient id="paint2_linear_10210_62210" x1="138" y1="16.335" x2="138" y2="256.335" gradientUnits="userSpaceOnUse">
<stop stop-color="#CDD5E2"/>
<stop offset="1" stop-color="#CDD5E2" stop-opacity="0"/>
</linearGradient>
<linearGradient id="paint3_linear_10210_62210" x1="138" y1="40.335" x2="138" y2="232.335" gradientUnits="userSpaceOnUse">
<stop stop-color="#CDD5E2"/>
<stop offset="1" stop-color="#CDD5E2" stop-opacity="0"/>
</linearGradient>
</defs>
</svg>
