<svg width="406" height="302" viewBox="0 0 406 302" fill="none" xmlns="http://www.w3.org/2000/svg">
<mask id="mask0_2732_20222" style="mask-type:alpha" maskUnits="userSpaceOnUse" x="0" y="0" width="406" height="302">
<rect width="405.823" height="301.875" fill="#D9D9D9"/>
</mask>
<g mask="url(#mask0_2732_20222)">
<g opacity="0.5">
<mask id="path-2-inside-1_2732_20222" fill="white">
<path d="M389.977 202.565C391.993 156.308 377.369 110.86 348.757 74.4588C320.144 38.0574 279.437 13.1119 234.013 4.14415C188.59 -4.82363 141.456 2.77982 101.157 25.5762C60.8571 48.3727 30.0587 84.8533 14.3442 128.405L15.1839 128.708C30.8259 85.357 61.4823 49.0446 101.596 26.3532C141.71 3.66186 188.626 -3.90654 233.84 5.0199C279.055 13.9463 319.574 38.7768 348.055 75.0104C376.535 111.244 391.092 156.483 389.085 202.526L389.977 202.565Z"/>
</mask>
<path d="M389.977 202.565C391.993 156.308 377.369 110.86 348.757 74.4588C320.144 38.0574 279.437 13.1119 234.013 4.14415C188.59 -4.82363 141.456 2.77982 101.157 25.5762C60.8571 48.3727 30.0587 84.8533 14.3442 128.405L15.1839 128.708C30.8259 85.357 61.4823 49.0446 101.596 26.3532C141.71 3.66186 188.626 -3.90654 233.84 5.0199C279.055 13.9463 319.574 38.7768 348.055 75.0104C376.535 111.244 391.092 156.483 389.085 202.526L389.977 202.565Z" stroke="url(#paint0_linear_2732_20222)" stroke-width="2.84788" stroke-dasharray="4.27 4.27" mask="url(#path-2-inside-1_2732_20222)"/>
</g>
<g opacity="0.5">
<mask id="path-3-inside-2_2732_20222" fill="white">
<path d="M14.6043 260.573C30.4892 304.064 61.4301 340.423 101.819 363.062C142.207 385.7 189.37 393.119 234.758 383.974C280.146 374.828 320.756 349.724 349.225 313.211C377.695 276.697 392.141 231.193 389.944 184.944L389.052 184.987C391.239 231.022 376.86 276.317 348.521 312.662C320.183 349.006 279.761 373.995 234.582 383.099C189.403 392.202 142.457 384.817 102.255 362.283C62.0527 339.749 31.2544 303.557 15.4428 260.267L14.6043 260.573Z"/>
</mask>
<path d="M14.6043 260.573C30.4892 304.064 61.4301 340.423 101.819 363.062C142.207 385.7 189.37 393.119 234.758 383.974C280.146 374.828 320.756 349.724 349.225 313.211C377.695 276.697 392.141 231.193 389.944 184.944L389.052 184.987C391.239 231.022 376.86 276.317 348.521 312.662C320.183 349.006 279.761 373.995 234.582 383.099C189.403 392.202 142.457 384.817 102.255 362.283C62.0527 339.749 31.2544 303.557 15.4428 260.267L14.6043 260.573Z" stroke="url(#paint1_linear_2732_20222)" stroke-width="2.84788" stroke-dasharray="4.27 4.27" mask="url(#path-3-inside-2_2732_20222)"/>
</g>
<circle opacity="0.08" cx="196.502" cy="194.132" r="170.873" fill="url(#paint2_linear_2732_20222)"/>
<circle opacity="0.1" cx="196.503" cy="194.132" r="136.698" fill="url(#paint3_linear_2732_20222)"/>
<circle cx="196.503" cy="194.134" r="91.1321" fill="white"/>
<g filter="url(#filter0_d_2732_20222)">
<circle cx="15.3224" cy="125.091" r="7.11969" transform="rotate(-2.50406 15.3224 125.091)" fill="#0170FF"/>
<circle cx="15.3224" cy="125.091" r="8.13822" transform="rotate(-2.50406 15.3224 125.091)" stroke="white" stroke-width="2.03704"/>
</g>
<g filter="url(#filter1_d_2732_20222)">
<circle cx="389.995" cy="182.518" r="7.11969" transform="rotate(-15.7345 389.995 182.518)" fill="#0170FF"/>
<circle cx="389.995" cy="182.518" r="8.13822" transform="rotate(-15.7345 389.995 182.518)" stroke="white" stroke-width="2.03704"/>
</g>
</g>
<path d="M265.454 98.4395C265.454 98.4395 269.866 113.685 280.128 108.142C290.39 102.598 306.994 94.9149 316.797 109.873C326.601 124.831 331.822 135.669 344.049 132.782C356.276 129.896 379.282 163.885 348.522 181.045C298.105 209.167 239.094 119.532 239.094 119.532L247.049 108.978L265.454 98.4395Z" fill="#382256"/>
<path d="M265.46 98.44C265.46 98.44 268.615 109.356 275.804 109.356C277.325 109.32 278.812 108.902 280.13 108.142C285.965 104.999 293.812 101.171 301.308 101.171C307.039 101.171 312.555 103.404 316.799 109.873C325.529 123.182 330.625 133.25 340.281 133.25C341.551 133.241 342.816 133.084 344.05 132.783C344.55 132.667 345.062 132.61 345.575 132.612C358.044 132.612 378.047 164.578 348.524 181.045C342.174 184.633 335.001 186.51 327.707 186.492C283.188 186.492 239.096 119.517 239.096 119.517L247.051 108.963L265.46 98.4244V98.44ZM266.164 96.6738L264.876 97.413L246.472 107.971L246.265 108.092L246.121 108.282L238.174 118.829L237.676 119.486L238.131 120.175C246.376 132.189 255.663 143.455 265.884 153.841C275.582 163.629 285.207 171.436 294.485 177.042C306.156 184.095 317.344 187.674 327.715 187.674C335.212 187.683 342.583 185.75 349.112 182.065C356.052 178.194 360.802 173.234 363.229 167.321C365.287 162.314 365.598 156.677 364.124 151.017C362.776 145.872 360.161 141.147 356.519 137.272C352.994 133.569 349.014 131.437 345.595 131.437C344.991 131.434 344.389 131.502 343.801 131.639C342.655 131.918 341.48 132.064 340.3 132.075C332.473 132.075 327.61 124.493 320.88 114.001C319.896 112.464 318.873 110.889 317.791 109.224C313.777 103.101 308.237 99.9961 301.328 99.9961C293.781 99.9961 286.105 103.591 279.597 107.107C278.448 107.773 277.151 108.142 275.823 108.181C269.599 108.181 266.627 98.2066 266.6 98.1054L266.183 96.6894L266.164 96.6738Z" fill="#1D1E1B"/>
<path d="M247.055 108.978L265.46 98.4395C265.46 98.4395 267.634 105.951 272.482 108.511C270.225 114.736 265.32 118.435 258.477 120.322C258.477 120.322 281.083 132.537 290.334 144.173C296.558 151.993 321.432 187.67 308.307 182.609C296.636 178.108 285.471 170.199 275.629 161.473C263.456 142.605 249.416 120.82 244.242 112.713L247.055 108.978Z" fill="#050505"/>
<path d="M225.145 129.954C120.497 136.178 127.76 298.868 127.76 298.868L309.574 299.646C309.574 299.646 307.917 122.8 234.493 125.916" fill="#07ACEE"/>
<path d="M309.575 300.241L127.757 299.463C127.608 299.461 127.464 299.402 127.356 299.298C127.249 299.194 127.185 299.052 127.178 298.903C127.158 298.514 125.485 257.666 136.647 216.605C143.209 192.45 152.865 172.937 165.341 158.601C180.968 140.644 201.081 130.813 225.111 129.382C225.187 129.377 225.264 129.387 225.337 129.413C225.409 129.438 225.476 129.477 225.534 129.528C225.591 129.579 225.638 129.64 225.671 129.709C225.705 129.778 225.725 129.853 225.729 129.93C225.734 130.007 225.723 130.084 225.698 130.156C225.673 130.229 225.634 130.296 225.583 130.353C225.532 130.41 225.47 130.457 225.401 130.491C225.332 130.524 225.257 130.544 225.181 130.549C171.476 133.743 148.01 179.262 137.779 216.885C127.368 255.176 128.166 293.277 128.325 298.296L308.984 299.074C308.428 277.323 306.487 255.63 303.172 234.126C298.115 202.012 287.58 159.434 265.97 138.905C256.789 130.187 246.207 126.016 234.517 126.514C234.362 126.521 234.211 126.466 234.097 126.361C233.983 126.257 233.915 126.111 233.908 125.956C233.902 125.801 233.957 125.65 234.062 125.536C234.166 125.422 234.312 125.354 234.467 125.347C246.484 124.838 257.353 129.113 266.775 138.061C276.438 147.234 284.729 161.457 291.42 180.324C296.761 195.383 301.103 213.43 304.328 233.959C307.691 255.708 309.64 277.652 310.163 299.653C310.164 299.731 310.15 299.808 310.121 299.88C310.093 299.952 310.05 300.018 309.996 300.074C309.883 300.182 309.732 300.242 309.575 300.241Z" fill="#1D1D1B"/>
<path d="M247.764 59.2959C257.39 59.2959 265.193 51.4807 265.193 41.8403C265.193 32.1999 257.39 24.3848 247.764 24.3848C238.139 24.3848 230.336 32.1999 230.336 41.8403C230.336 51.4807 238.139 59.2959 247.764 59.2959Z" fill="#382256"/>
<path d="M247.76 59.8904C244.477 59.8959 241.254 59.0056 238.438 57.3153C235.623 55.625 233.323 53.1987 231.784 50.2978C230.245 47.3969 229.527 44.1313 229.707 40.8525C229.886 37.5737 230.957 34.406 232.803 31.6906C234.649 28.9751 237.202 26.8147 240.185 25.442C243.168 24.0693 246.469 23.5363 249.732 23.9004C252.995 24.2645 256.098 25.5119 258.705 27.5084C261.312 29.5048 263.325 32.1746 264.527 35.2302C265.603 37.9649 265.996 40.9208 265.67 43.8414C265.344 46.762 264.31 49.5589 262.658 51.989C261.005 54.4192 258.785 56.4092 256.188 57.7862C253.592 59.1632 250.699 59.8855 247.76 59.8904ZM247.76 24.96C243.584 24.952 239.553 26.4933 236.447 29.2858C233.341 32.0784 231.382 35.9236 230.947 40.0776C230.513 44.2315 231.635 48.3989 234.096 51.7734C236.557 55.148 240.182 57.4897 244.27 58.3457C248.358 59.2017 252.618 58.511 256.226 56.4073C259.834 54.3037 262.534 50.9365 263.803 46.9573C265.071 42.9781 264.819 38.6698 263.095 34.8658C261.37 31.0619 258.296 28.0326 254.467 26.3644C252.354 25.441 250.074 24.963 247.768 24.96H247.76Z" fill="#1D1E1B"/>
<path d="M194.328 91.4045C194.328 91.4045 183.225 79.7999 189.36 69.4208C195.495 59.0416 198.238 60.2359 201.113 54.5523C203.988 48.8687 215.098 43.9203 224.493 47.6083C224.493 47.6083 237.284 39.7189 247.854 43.5119C258.424 47.3048 261.73 52.8173 264.037 61.5742C266.344 70.3311 269.067 74.3692 270.899 80.4691C272.732 86.569 274.759 103.421 250.647 113.486C226.535 123.55 194.328 91.4045 194.328 91.4045Z" fill="#382256"/>
<path d="M240.57 115.992C232.482 115.992 223.184 112.88 213.14 106.718C206.233 102.43 199.79 97.4363 193.914 91.818C193.801 91.7012 182.578 79.7582 188.857 69.1378C192.303 63.3025 194.712 61.0656 196.637 59.2684C198.154 57.8562 199.36 56.7397 200.586 54.3044C202.111 51.2895 205.69 48.5702 210.16 47.0297C215.007 45.3569 220.06 45.3413 224.429 46.9752C226.331 45.8548 238.022 39.3814 248.047 42.9721C258.838 46.8429 262.289 52.6743 264.596 61.439C265.668 65.4311 267.051 69.3332 268.731 73.1098C269.772 75.4574 270.681 77.8614 271.454 80.3106C273.01 85.5507 276.189 103.461 250.867 114.031C247.599 115.363 244.098 116.03 240.57 115.992ZM194.746 90.9972C200.558 96.5549 206.933 101.493 213.766 105.733C223.74 111.841 238.197 118.05 250.42 112.946C274.839 102.753 271.839 85.6403 270.338 80.6569C269.576 78.2464 268.681 75.88 267.657 73.5689C265.959 69.7394 264.559 65.7842 263.471 61.7386C261.207 53.1489 258.025 47.7921 247.658 44.0769C237.477 40.4279 224.923 48.045 224.795 48.1228L224.55 48.2745L224.277 48.1656C214.941 44.5088 204.274 49.6088 201.632 54.8334C200.306 57.4554 198.975 58.6926 197.438 60.1242C195.559 61.8748 193.225 64.0494 189.86 69.7331C184.068 79.517 194.482 90.7171 194.746 90.9972Z" fill="#1D1E1B"/>
<path d="M238.696 84.0827H238.751C246.48 84.888 254.7 78.0917 255.035 77.7999C255.16 77.6941 255.238 77.5433 255.253 77.3802C255.267 77.2171 255.217 77.0548 255.113 76.9285C255.061 76.8657 254.997 76.8139 254.925 76.776C254.853 76.738 254.774 76.7147 254.693 76.7075C254.612 76.7003 254.531 76.7092 254.453 76.7338C254.375 76.7584 254.303 76.7981 254.241 76.8507C254.16 76.9169 246.072 83.6003 238.879 82.8495C238.798 82.8374 238.716 82.8414 238.637 82.8611C238.558 82.8808 238.484 82.9159 238.419 82.9643C238.353 83.0127 238.298 83.0735 238.256 83.1432C238.214 83.213 238.187 83.2903 238.175 83.3708C238.163 83.4512 238.167 83.5333 238.186 83.6122C238.206 83.6911 238.241 83.7655 238.29 83.8308C238.338 83.8962 238.399 83.9514 238.468 83.9933C238.538 84.0351 238.616 84.0629 238.696 84.0749V84.0827Z" fill="black"/>
<path d="M220.711 120.535C217.271 122.084 214.507 124.825 212.931 128.253C209.935 134.84 213.911 145.37 229.566 139.994C229.566 139.994 230.223 151.089 245.259 145.308C257.98 140.414 261.854 133.696 252.187 129.203C243.8 125.305 220.711 120.535 220.711 120.535Z" fill="white"/>
<path d="M237.648 147.564C235.868 147.618 234.11 147.151 232.591 146.222C230.097 144.619 229.323 142.032 229.09 140.776C219.917 143.728 215.567 140.927 213.782 138.959C211.249 136.173 210.697 131.777 212.408 128.016C214.04 124.445 216.921 121.593 220.508 119.998L220.671 119.936L220.839 119.971C221.784 120.165 244.091 124.798 252.439 128.681C257.298 130.941 258.247 133.512 258.185 135.271C258.06 138.994 253.544 142.756 245.475 145.86C242.503 146.992 239.889 147.564 237.648 147.564ZM230.101 139.192L230.148 139.97C230.148 140.005 230.401 143.444 233.233 145.261C235.859 146.946 239.846 146.782 245.048 144.775C252.439 141.935 256.905 138.368 257.014 135.232C257.08 133.217 255.325 131.318 251.957 129.743C244.114 126.098 222.951 121.608 220.788 121.153C217.567 122.675 214.981 125.276 213.478 128.506C211.957 131.844 212.428 135.73 214.645 138.177C217.473 141.289 222.71 141.748 229.385 139.453L230.101 139.192Z" fill="#1D1E1B"/>
<path d="M223.586 122.868L222.597 128.287C222.597 128.287 235.326 148.31 254.886 130.695C254.886 130.695 248.409 120.032 246.164 99.8843C246.164 99.8843 254.995 99.2425 254.723 91.3842C254.451 83.5259 248.499 81.3318 244.569 82.8801C244.569 82.8801 228.935 90.754 218.711 58.9707C218.711 58.9707 202.703 63.0087 197.315 78.204C191.927 93.3993 192.425 111.967 203.667 118.904C214.91 125.84 223.586 122.868 223.586 122.868Z" fill="#FFCDB2"/>
<path d="M239.056 138.529C238.284 138.528 237.514 138.476 236.749 138.373C227.618 137.125 222.324 128.947 222.102 128.597L221.982 128.407L222.845 123.668C220.285 124.244 212.754 125.174 203.394 119.389C198.014 116.067 194.664 109.955 193.715 101.708C192.871 94.4176 193.968 85.9991 196.8 77.9969C202.219 62.6849 218.43 58.4329 218.585 58.3901L219.114 58.2578L219.282 58.7791C223.324 71.3368 228.867 79.3974 235.313 82.1206C240.371 84.2524 244.288 82.3579 244.327 82.3385H244.374C245.514 81.9089 246.74 81.7555 247.951 81.8907C249.162 82.026 250.324 82.446 251.341 83.1165C253.792 84.7271 255.204 87.6603 255.325 91.3794C255.55 98.4518 248.879 100.07 246.809 100.401C249.069 119.829 255.321 130.305 255.367 130.41L255.617 130.822L255.259 131.145C249.82 136.047 244.374 138.529 239.056 138.529ZM223.211 128.158C224.051 129.367 229.046 136.148 236.916 137.218C242.491 137.996 248.287 135.74 254.154 130.574C252.952 128.383 247.583 117.786 245.595 99.9457L245.529 99.3466L246.132 99.2998C246.471 99.2765 254.399 98.5996 254.169 91.4026C254.033 87.1234 252.224 85.0616 250.711 84.0735C249.853 83.5092 248.873 83.1555 247.853 83.0413C246.832 82.927 245.798 83.0554 244.837 83.416C244.428 83.6105 240.293 85.4895 234.905 83.2331C228.12 80.3894 222.553 72.4688 218.36 59.6855C215.586 60.5452 202.569 65.2175 197.905 78.3976C195.131 86.2364 194.057 94.4682 194.878 101.583C195.512 107.08 197.601 114.456 204.013 118.409C214.859 125.104 223.312 122.346 223.394 122.299L224.335 121.98L223.211 128.158Z" fill="#1D1E1B"/>
<path d="M246.67 96.2708C246.78 96.2927 246.895 96.284 247 96.2456C247.106 96.2072 247.199 96.1406 247.269 96.053C249.374 93.4621 250.113 91.1746 249.459 89.2567C248.518 86.4946 245.067 85.6544 244.92 85.6194C244.84 85.5998 244.758 85.5963 244.677 85.6091C244.597 85.6219 244.519 85.6508 244.45 85.6939C244.381 85.7371 244.321 85.7937 244.274 85.8604C244.227 85.9271 244.194 86.0026 244.177 86.0823C244.139 86.2417 244.166 86.4094 244.252 86.5487C244.339 86.688 244.476 86.7874 244.636 86.8253C244.675 86.8253 247.577 87.5528 248.289 89.6613C248.79 91.1474 248.125 93.0342 246.308 95.2711C246.256 95.3339 246.217 95.4064 246.194 95.4844C246.17 95.5624 246.162 95.6444 246.171 95.7255C246.179 95.8065 246.203 95.8852 246.242 95.9568C246.281 96.0284 246.334 96.0915 246.398 96.1425C246.476 96.2082 246.57 96.2524 246.67 96.2708Z" fill="black"/>
<path d="M215.368 83.6785C224.024 86.0632 236.064 82.9004 237.908 86.1566C239.752 89.4127 237.967 93.5247 233.158 94.2833C228.35 95.0419 223.643 94.6256 214.042 93.2952C204.441 91.9647 195.131 89.9535 196.536 84.8534C197.94 79.7533 202.636 80.1695 215.368 83.6785Z" fill="#FFB49F"/>
<path d="M249.719 102.955C251.294 102.955 252.57 101.677 252.57 100.1C252.57 98.5226 251.294 97.2441 249.719 97.2441C248.144 97.2441 246.867 98.5226 246.867 100.1C246.867 101.677 248.144 102.955 249.719 102.955Z" fill="#07ACEE"/>
<path d="M249.717 97.2433C250.382 97.2456 251.024 97.4791 251.535 97.9036C252.046 98.3281 252.393 98.9172 252.517 99.5697C252.64 100.222 252.533 100.898 252.213 101.48C251.893 102.062 251.381 102.514 250.764 102.76C250.432 102.891 250.078 102.959 249.721 102.958C249.057 102.956 248.414 102.722 247.903 102.298C247.393 101.873 247.046 101.284 246.922 100.632C246.798 99.9791 246.905 99.3039 247.225 98.7218C247.545 98.1397 248.058 97.6871 248.675 97.4417C249.007 97.3101 249.36 97.2428 249.717 97.2433ZM249.717 96.0762C249.214 96.0754 248.715 96.1705 248.247 96.3563C247.369 96.6965 246.639 97.3333 246.182 98.156C245.725 98.9788 245.571 99.9355 245.746 100.86C245.921 101.785 246.415 102.619 247.141 103.217C247.867 103.816 248.78 104.141 249.721 104.137C250.225 104.137 250.724 104.042 251.192 103.857C252.069 103.517 252.8 102.88 253.256 102.057C253.713 101.234 253.867 100.278 253.692 99.3529C253.517 98.4283 253.023 97.5944 252.297 96.9958C251.571 96.3972 250.658 96.0718 249.717 96.0762Z" fill="#1D1D1B"/>
<path d="M201.298 87.1996C202.19 87.1996 202.913 86.475 202.913 85.5812C202.913 84.6874 202.19 83.9629 201.298 83.9629C200.407 83.9629 199.684 84.6874 199.684 85.5812C199.684 86.475 200.407 87.1996 201.298 87.1996Z" fill="black"/>
<path d="M221.802 90.9926C222.694 90.9926 223.416 90.2679 223.416 89.3742C223.416 88.4804 222.694 87.7559 221.802 87.7559C220.91 87.7559 220.188 88.4804 220.188 89.3742C220.188 90.2679 220.91 90.9926 221.802 90.9926Z" fill="black"/>
<path d="M218.998 112.914C216.804 112.914 214.789 111.833 213.011 109.705C212.957 109.647 212.915 109.578 212.889 109.504C212.862 109.429 212.852 109.35 212.857 109.271C212.862 109.192 212.883 109.115 212.919 109.044C212.954 108.974 213.004 108.911 213.065 108.86C213.126 108.81 213.196 108.772 213.272 108.749C213.348 108.726 213.428 108.719 213.506 108.729C213.585 108.738 213.661 108.763 213.729 108.802C213.798 108.842 213.858 108.895 213.905 108.958C215.462 110.821 217.189 111.755 219.044 111.747C222.744 111.716 225.817 107.958 225.849 107.919C225.897 107.86 225.956 107.81 226.024 107.774C226.091 107.737 226.165 107.714 226.241 107.706C226.317 107.698 226.394 107.705 226.468 107.727C226.541 107.749 226.61 107.785 226.669 107.833C226.729 107.882 226.778 107.941 226.815 108.009C226.851 108.076 226.874 108.15 226.882 108.226C226.89 108.302 226.883 108.379 226.861 108.453C226.839 108.526 226.803 108.595 226.755 108.654C226.619 108.826 223.296 112.879 219.052 112.914H218.998Z" fill="#1D1D1B"/>
<path d="M208.282 98.7035C208.207 98.7048 208.133 98.6903 208.064 98.6608C207.921 98.6029 207.806 98.4904 207.746 98.3482C207.685 98.206 207.684 98.0456 207.741 97.9022L213.126 84.6326C213.183 84.4886 213.296 84.3735 213.439 84.3126C213.581 84.2517 213.742 84.25 213.886 84.3077C214.03 84.3655 214.145 84.4781 214.206 84.6207C214.267 84.7633 214.269 84.9244 214.211 85.0683L208.823 98.3496C208.778 98.4553 208.702 98.5453 208.606 98.6083C208.51 98.6713 208.397 98.7044 208.282 98.7035Z" fill="#1D1D1B"/>
<path d="M200.943 75.5373C200.826 75.5358 200.713 75.4993 200.617 75.4326C200.521 75.366 200.448 75.2721 200.406 75.1633C200.364 75.0544 200.356 74.9355 200.382 74.8218C200.409 74.7082 200.468 74.6051 200.554 74.5258C200.819 74.2807 207.094 68.5698 211.186 72.6662C211.243 72.7197 211.289 72.784 211.321 72.8556C211.353 72.9272 211.37 73.0046 211.372 73.0829C211.373 73.1613 211.359 73.239 211.329 73.3117C211.3 73.3844 211.256 73.4504 211.201 73.5058C211.145 73.5612 211.079 73.6049 211.007 73.6342C210.934 73.6636 210.856 73.678 210.778 73.6766C210.7 73.6752 210.622 73.6581 210.551 73.6262C210.479 73.5943 210.415 73.5484 210.361 73.491C207.058 70.1843 201.414 75.331 201.344 75.3816C201.235 75.4833 201.092 75.5391 200.943 75.5373Z" fill="black"/>
<path d="M233.463 79.9911C233.374 79.9906 233.286 79.9697 233.205 79.9299C233.125 79.8901 233.055 79.8325 233 79.7615C228.756 74.2374 225.084 76.9372 224.928 77.0578C224.867 77.1046 224.798 77.1389 224.724 77.1588C224.65 77.1787 224.573 77.1838 224.497 77.1739C224.421 77.164 224.347 77.1391 224.281 77.1008C224.214 77.0626 224.156 77.0116 224.109 76.9508C224.063 76.89 224.028 76.8206 224.008 76.7466C223.988 76.6725 223.983 76.5953 223.993 76.5192C224.003 76.4432 224.028 76.3699 224.066 76.3034C224.104 76.237 224.155 76.1786 224.216 76.1319C225.373 75.3294 226.789 74.9882 228.184 75.1749C230.219 75.4356 232.148 76.731 233.926 79.0652C233.992 79.1519 234.032 79.2553 234.042 79.3636C234.053 79.4718 234.033 79.5808 233.985 79.6784C233.937 79.776 233.863 79.8584 233.77 79.9163C233.678 79.9743 233.572 80.0056 233.463 80.0067V79.9911Z" fill="black"/>
<path d="M222.297 123.182C222.297 123.182 229.455 121.404 233.368 118.467L222.297 123.182Z" fill="#4BD657"/>
<path d="M222.298 123.769C222.144 123.787 221.988 123.744 221.865 123.647C221.743 123.551 221.663 123.41 221.645 123.255C221.626 123.1 221.67 122.945 221.766 122.822C221.862 122.699 222.003 122.62 222.158 122.602C222.228 122.602 229.246 120.816 233.02 117.984C233.144 117.891 233.299 117.851 233.452 117.873C233.606 117.895 233.744 117.977 233.837 118.101C233.93 118.224 233.97 118.38 233.948 118.533C233.926 118.686 233.844 118.825 233.72 118.918C229.756 121.89 222.738 123.66 222.438 123.734C222.393 123.751 222.346 123.763 222.298 123.769Z" fill="black"/>
<path d="M199.611 97.0337C197.464 97.0337 195.365 96.3969 193.579 95.2038C191.794 94.0108 190.402 92.315 189.58 90.3311C188.759 88.3471 188.544 86.164 188.963 84.0579C189.381 81.9517 190.415 80.017 191.934 78.4985C193.452 76.98 195.387 75.9459 197.493 75.527C199.599 75.108 201.783 75.3231 203.767 76.1449C205.75 76.9667 207.446 78.3583 208.639 80.1439C209.832 81.9294 210.469 84.0286 210.469 86.176C210.466 89.0547 209.321 91.8146 207.286 93.8501C205.25 95.8857 202.49 97.0306 199.611 97.0337ZM199.611 76.4855C197.695 76.4855 195.821 77.0538 194.228 78.1186C192.634 79.1834 191.392 80.6969 190.659 82.4676C189.925 84.2383 189.733 86.1868 190.107 88.0665C190.481 89.9463 191.404 91.6731 192.759 93.0283C194.115 94.3836 195.841 95.3065 197.721 95.6804C199.601 96.0543 201.549 95.8625 203.32 95.129C205.091 94.3955 206.604 93.1535 207.669 91.5599C208.734 89.9663 209.302 88.0926 209.302 86.176C209.299 83.6069 208.277 81.1438 206.46 79.3272C204.644 77.5105 202.181 76.4886 199.611 76.4855Z" fill="#1D1E1B"/>
<path d="M224.561 100.948C222.413 100.948 220.314 100.311 218.529 99.1179C216.743 97.9248 215.351 96.2291 214.53 94.2451C213.708 92.2612 213.493 90.078 213.912 87.9718C214.331 85.8657 215.365 83.931 216.883 82.4126C218.402 80.8941 220.336 79.86 222.443 79.441C224.549 79.0221 226.732 79.2372 228.716 80.059C230.7 80.8807 232.396 82.2723 233.589 84.0578C234.782 85.8434 235.418 87.9427 235.418 90.0901C235.415 92.9688 234.27 95.7287 232.235 97.7642C230.199 99.7997 227.439 100.945 224.561 100.948ZM224.561 80.3995C222.644 80.3995 220.771 80.9678 219.177 82.0327C217.583 83.0975 216.341 84.6109 215.608 86.3816C214.874 88.1524 214.683 90.1008 215.056 91.9806C215.43 93.8604 216.353 95.5871 217.708 96.9424C219.064 98.2976 220.79 99.2206 222.67 99.5945C224.55 99.9684 226.498 99.7765 228.269 99.0431C230.04 98.3096 231.553 97.0674 232.618 95.4738C233.683 93.8802 234.251 92.0067 234.251 90.0901C234.248 87.5209 233.226 85.0579 231.41 83.2412C229.593 81.4246 227.13 80.4026 224.561 80.3995Z" fill="#1D1E1B"/>
<path d="M234.835 90.6725C234.714 90.6729 234.595 90.6352 234.496 90.5649C234.397 90.4946 234.322 90.3951 234.282 90.2803C234.242 90.1655 234.239 90.0411 234.274 89.9245C234.308 89.8079 234.378 89.705 234.473 89.63L243.771 82.2929C243.831 82.2413 243.9 82.2023 243.975 82.1782C244.05 82.1541 244.129 82.1456 244.208 82.1529C244.286 82.1603 244.362 82.1834 244.432 82.221C244.501 82.2587 244.562 82.31 244.611 82.3718C244.66 82.4336 244.696 82.5047 244.716 82.5807C244.737 82.6568 244.742 82.7362 244.731 82.8143C244.72 82.8923 244.694 82.9674 244.653 83.0349C244.612 83.1024 244.559 83.1611 244.495 83.2072L235.197 90.548C235.093 90.6285 234.966 90.6723 234.835 90.6725Z" fill="#1D1E1B"/>
<path d="M214.316 89.957C214.202 89.9569 214.091 89.9238 213.995 89.8616C213.9 89.7995 213.825 89.711 213.779 89.6069C213.032 87.8913 209.888 88.4126 209.853 88.4204C209.703 88.4439 209.55 88.4079 209.426 88.3198C209.301 88.2317 209.217 88.0986 209.189 87.9489C209.162 87.7992 209.194 87.6448 209.279 87.5185C209.364 87.3922 209.494 87.304 209.643 87.2728C209.811 87.2416 213.724 86.557 214.848 89.1401C214.881 89.2107 214.899 89.287 214.901 89.3646C214.903 89.4422 214.89 89.5195 214.862 89.592C214.834 89.6645 214.792 89.7306 214.739 89.7866C214.685 89.8426 214.62 89.8874 214.549 89.9181C214.475 89.9476 214.395 89.9608 214.316 89.957Z" fill="#1D1E1B"/>
<path d="M148.174 271.148H120.332V296.851H148.174V271.148Z" fill="#4BD657"/>
<path d="M148.759 297.427H119.75V270.584H148.759V297.427ZM120.917 296.26H147.592V271.751H120.917V296.26Z" fill="black"/>
<path d="M213.97 147.279H54.5438C48.8868 147.279 44.3008 151.865 44.3008 157.522V268.402C44.3008 274.059 48.8868 278.645 54.5438 278.645H213.97C219.627 278.645 224.213 274.059 224.213 268.402V157.522C224.213 151.865 219.627 147.279 213.97 147.279Z" fill="#4BD657"/>
<path d="M213.971 279.228H54.5609C51.6908 279.225 48.9392 278.083 46.9101 276.053C44.881 274.023 43.7403 271.271 43.7383 268.401V157.53C43.7403 154.66 44.881 151.908 46.9101 149.878C48.9392 147.848 51.6908 146.706 54.5609 146.703H213.991C216.861 146.706 219.613 147.848 221.643 149.878C223.673 151.907 224.814 154.659 224.817 157.53V268.401C224.814 271.275 223.67 274.03 221.636 276.06C219.602 278.091 216.845 279.23 213.971 279.228ZM54.5609 147.862C52.0003 147.865 49.5457 148.884 47.7355 150.695C45.9253 152.506 44.9074 154.961 44.9054 157.522V268.394C44.9074 270.954 45.9253 273.409 47.7355 275.22C49.5457 277.031 52.0003 278.05 54.5609 278.053H213.991C216.551 278.05 219.007 277.031 220.818 275.221C222.628 273.41 223.647 270.955 223.65 268.394V157.522C223.647 154.961 222.628 152.506 220.818 150.695C219.007 148.884 216.551 147.865 213.991 147.862H54.5609Z" fill="black"/>
<path d="M205.615 156.562H61.1119C55.1777 156.562 50.3672 161.373 50.3672 167.307V245.77C50.3672 251.704 55.1777 256.514 61.1119 256.514H205.615C211.549 256.514 216.36 251.704 216.36 245.77V167.307C216.36 161.373 211.549 156.562 205.615 156.562Z" fill="white"/>
<path d="M205.614 156.562C208.463 156.563 211.196 157.695 213.211 159.71C215.225 161.725 216.358 164.457 216.359 167.306V245.765C216.359 248.615 215.227 251.348 213.212 253.364C211.197 255.38 208.464 256.513 205.614 256.514H61.115C58.2642 256.514 55.5302 255.381 53.5144 253.365C51.4986 251.35 50.3663 248.616 50.3663 245.765V167.306C50.3673 164.456 51.5002 161.723 53.5159 159.708C55.5316 157.694 58.2649 156.562 61.115 156.562H205.614ZM205.614 155.395H61.115C57.9563 155.398 54.9278 156.653 52.694 158.887C50.4601 161.12 49.2033 164.148 49.1992 167.306V245.765C49.2023 248.924 50.4587 251.953 52.6926 254.187C54.9266 256.421 57.9557 257.678 61.115 257.681H205.614C208.773 257.677 211.801 256.42 214.034 254.186C216.267 251.952 217.523 248.923 217.526 245.765V167.306C217.522 164.149 216.265 161.121 214.032 158.888C211.799 156.655 208.772 155.399 205.614 155.395Z" fill="black"/>
<path d="M161.159 293.832H105.828C104.251 293.832 102.973 295.11 102.973 296.688C102.973 298.265 104.251 299.543 105.828 299.543H161.159C162.736 299.543 164.014 298.265 164.014 296.688C164.014 295.11 162.736 293.832 161.159 293.832Z" fill="#4BD657"/>
<path d="M161.153 300.126H105.83C104.917 300.126 104.043 299.764 103.398 299.119C102.753 298.474 102.391 297.599 102.391 296.687C102.391 295.775 102.753 294.9 103.398 294.255C104.043 293.61 104.917 293.248 105.83 293.248H161.153C162.065 293.248 162.939 293.61 163.584 294.255C164.229 294.9 164.592 295.775 164.592 296.687C164.592 297.599 164.229 298.474 163.584 299.119C162.939 299.764 162.065 300.126 161.153 300.126ZM105.822 294.415C105.219 294.415 104.641 294.654 104.215 295.081C103.789 295.507 103.55 296.085 103.55 296.687C103.55 297.29 103.789 297.867 104.215 298.293C104.641 298.72 105.219 298.959 105.822 298.959H161.153C161.755 298.959 162.333 298.72 162.759 298.293C163.185 297.867 163.424 297.29 163.424 296.687C163.424 296.085 163.185 295.507 162.759 295.081C162.333 294.654 161.755 294.415 161.153 294.415H105.822Z" fill="black"/>
<path d="M97.9369 275.252H61.7577C61.4998 275.252 61.2525 275.149 61.0701 274.967C60.8877 274.785 60.7852 274.537 60.7852 274.279C60.7852 274.021 60.8877 273.774 61.0701 273.591C61.2525 273.409 61.4998 273.307 61.7577 273.307H97.9369C98.1949 273.307 98.4422 273.409 98.6246 273.591C98.807 273.774 98.9095 274.021 98.9095 274.279C98.9095 274.537 98.807 274.785 98.6246 274.967C98.4422 275.149 98.1949 275.252 97.9369 275.252Z" fill="white"/>
<path d="M40.1671 157.961H39V222.539H40.1671V157.961Z" fill="#1D1E1B"/>
<path d="M101.438 136.761C101.329 136.761 101.223 136.731 101.131 136.674C101.039 136.617 100.965 136.535 100.916 136.438C88.7866 111.98 89.5374 87.0323 92.3034 70.3859C95.2989 52.3741 101.251 39.9566 101.301 39.836C101.332 39.7633 101.378 39.6976 101.435 39.643C101.492 39.5883 101.559 39.5457 101.633 39.5179C101.707 39.4901 101.786 39.4775 101.864 39.481C101.943 39.4845 102.021 39.504 102.092 39.5382C102.163 39.5725 102.226 39.6208 102.278 39.6803C102.33 39.7398 102.369 39.8092 102.394 39.8843C102.418 39.9594 102.427 40.0387 102.42 40.1173C102.412 40.1959 102.389 40.2722 102.352 40.3416C102.294 40.4661 96.4114 52.7554 93.4471 70.6155C90.7239 87.0673 89.9769 111.755 101.959 135.917C101.993 135.985 102.013 136.06 102.019 136.136C102.024 136.212 102.014 136.288 101.99 136.36C101.966 136.432 101.928 136.499 101.878 136.557C101.828 136.614 101.767 136.661 101.698 136.695C101.618 136.738 101.529 136.76 101.438 136.761Z" fill="#1D1D1B"/>
<path d="M169.047 187.092L171.899 172.06C172.202 170.462 173.108 169.041 174.429 168.091C175.751 167.142 177.387 166.737 178.998 166.96L190.587 168.563C192.235 168.793 193.726 169.66 194.74 170.978C195.755 172.297 196.211 173.961 196.01 175.612L187.946 242.011C187.759 243.55 187.015 244.966 185.854 245.994C184.694 247.022 183.198 247.589 181.648 247.589H161.185C160.213 247.589 159.254 247.365 158.382 246.935C157.51 246.505 156.748 245.88 156.156 245.109C155.564 244.338 155.157 243.441 154.967 242.488C154.776 241.534 154.807 240.55 155.058 239.611L168.934 187.544C168.985 187.392 169.02 187.244 169.047 187.092Z" fill="#0598C6"/>
<path d="M178.122 166.902C178.415 166.902 178.707 166.922 178.998 166.96L190.587 168.563C192.234 168.793 193.726 169.66 194.74 170.978C195.754 172.297 196.21 173.961 196.01 175.612L187.945 242.011C187.758 243.549 187.014 244.966 185.854 245.994C184.693 247.022 183.197 247.589 181.647 247.589H161.184C160.212 247.589 159.253 247.365 158.381 246.935C157.509 246.504 156.748 245.88 156.156 245.109C155.563 244.338 155.157 243.441 154.966 242.487C154.776 241.534 154.807 240.55 155.057 239.61L168.934 187.543C168.976 187.392 169.011 187.244 169.039 187.092L171.89 172.06C172.165 170.611 172.938 169.302 174.074 168.361C175.21 167.419 176.639 166.903 178.115 166.902H178.122ZM178.115 165.346C176.276 165.346 174.495 165.989 173.08 167.162C171.664 168.335 170.703 169.966 170.361 171.772L167.51 186.8C167.486 186.913 167.463 187.03 167.432 187.143L153.548 239.21C153.236 240.379 153.197 241.605 153.434 242.792C153.671 243.979 154.178 245.096 154.915 246.056C155.653 247.016 156.601 247.794 157.686 248.33C158.772 248.865 159.966 249.144 161.176 249.145H181.639C183.569 249.143 185.431 248.436 186.876 247.156C188.32 245.877 189.247 244.113 189.482 242.197L197.546 175.799C197.787 173.744 197.216 171.677 195.955 170.037C194.693 168.398 192.841 167.316 190.793 167.022L179.204 165.42C178.843 165.37 178.479 165.345 178.115 165.346Z" fill="black"/>
<path d="M123.418 175.7L130.561 136.253C130.945 134.136 131.759 132.119 132.952 130.328C134.145 128.537 135.692 127.009 137.497 125.839C140.918 123.621 145.065 122.815 149.067 123.59L192.171 131.939C192.49 131.999 192.793 132.121 193.064 132.3C193.335 132.478 193.568 132.709 193.749 132.978C193.93 133.248 194.056 133.55 194.119 133.869C194.182 134.187 194.181 134.515 194.116 134.833L177.699 215.559C177.616 215.97 177.43 216.352 177.157 216.67C176.885 216.987 176.535 217.23 176.142 217.374C175.749 217.518 175.326 217.558 174.912 217.492C174.499 217.426 174.11 217.255 173.781 216.995L124.313 178.061C123.963 177.786 123.695 177.421 123.538 177.005C123.38 176.589 123.339 176.138 123.418 175.7Z" fill="white"/>
<path d="M146.072 123.302C147.078 123.303 148.081 123.4 149.068 123.59L192.172 131.938C192.49 131.998 192.794 132.121 193.065 132.3C193.336 132.478 193.569 132.709 193.75 132.978C193.931 133.247 194.057 133.55 194.12 133.869C194.183 134.187 194.182 134.515 194.117 134.833L177.7 215.559C177.617 215.969 177.43 216.351 177.158 216.668C176.885 216.986 176.536 217.228 176.143 217.373C175.75 217.517 175.327 217.558 174.914 217.493C174.501 217.427 174.111 217.257 173.782 216.998L124.314 178.061C123.964 177.786 123.696 177.421 123.539 177.005C123.381 176.588 123.34 176.137 123.419 175.7L130.562 136.252C130.946 134.135 131.76 132.119 132.953 130.328C134.146 128.537 135.693 127.009 137.498 125.838C140.047 124.186 143.019 123.306 146.057 123.302H146.072ZM146.057 122.135C142.09 122.135 138.25 123.528 135.205 126.07C132.161 128.613 130.106 132.143 129.399 136.046L122.256 175.489C122.135 176.138 122.195 176.808 122.428 177.425C122.662 178.042 123.059 178.584 123.579 178.991L173.035 217.924C173.67 218.429 174.457 218.703 175.268 218.702C176.103 218.701 176.913 218.413 177.56 217.885C178.207 217.357 178.652 216.622 178.82 215.804L195.237 135.078C195.333 134.609 195.334 134.125 195.242 133.656C195.15 133.186 194.965 132.74 194.7 132.342C194.434 131.944 194.092 131.603 193.693 131.338C193.295 131.073 192.847 130.889 192.378 130.798L149.274 122.454C148.214 122.247 147.137 122.143 146.057 122.143V122.135Z" fill="black"/>
<path d="M137.111 129.434L148.89 186.55L140.682 185.122L128.902 138.358L137.111 129.434Z" fill="#EBEBEB"/>
<path d="M136.643 125.091C134.837 126.261 133.289 127.789 132.096 129.58C130.903 131.371 130.09 133.388 129.707 135.505L128.723 140.952C131.924 137.451 139.109 140.193 139.109 140.193C137.448 128.733 143.825 124.064 146.521 122.629C143.046 122.334 139.572 123.2 136.643 125.091Z" fill="#4BD657"/>
<path d="M142.704 123.924C139.981 126.492 137.157 131.012 137.764 138.532C136.414 138.181 135.027 137.994 133.632 137.976C132.519 137.957 131.412 138.133 130.361 138.497L130.866 135.692C131.397 132.755 132.818 130.051 134.935 127.946C137.052 125.842 139.764 124.438 142.704 123.924ZM145.221 122.539C141.53 122.539 137.956 123.835 135.122 126.202C132.289 128.568 130.377 131.854 129.719 135.486L128.734 140.932C129.983 139.574 131.847 139.158 133.632 139.158C135.504 139.203 137.357 139.546 139.121 140.174C137.46 128.713 143.836 124.045 146.532 122.609C146.097 122.57 145.661 122.555 145.221 122.555V122.539Z" fill="black"/>
<path d="M78.1333 175.444L69.0536 136.401C68.5666 134.305 68.5139 132.131 68.8985 130.014C69.2832 127.896 70.0972 125.88 71.2904 124.089C73.5506 120.698 77.0364 118.315 81.016 117.44L123.898 108.01C124.214 107.941 124.542 107.935 124.86 107.992C125.179 108.05 125.483 108.17 125.755 108.346C126.027 108.521 126.262 108.749 126.445 109.016C126.628 109.283 126.757 109.584 126.824 109.901L143.758 190.522C143.844 190.932 143.825 191.357 143.701 191.756C143.576 192.156 143.352 192.517 143.048 192.805C142.744 193.093 142.372 193.298 141.966 193.401C141.561 193.504 141.135 193.502 140.731 193.393L79.8879 177.261C79.4583 177.145 79.068 176.915 78.759 176.595C78.45 176.275 78.2337 175.877 78.1333 175.444Z" fill="white"/>
<path d="M124.43 107.952C124.992 107.954 125.536 108.148 125.971 108.502C126.407 108.856 126.709 109.348 126.826 109.897L143.761 190.519C143.85 190.928 143.832 191.354 143.708 191.755C143.585 192.156 143.36 192.518 143.056 192.806C142.751 193.095 142.378 193.3 141.971 193.403C141.565 193.505 141.138 193.5 140.734 193.39L79.8906 177.257C79.4602 177.142 79.0693 176.912 78.7596 176.592C78.4498 176.272 78.2329 175.874 78.1322 175.44L69.0524 136.398C68.5795 134.366 68.5147 132.261 68.8617 130.205C69.2087 128.148 69.9605 126.181 71.0737 124.417C72.1869 122.653 73.6391 121.128 75.3463 119.929C77.0535 118.731 78.9815 117.884 81.0187 117.437L123.901 108.007C124.075 107.968 124.252 107.949 124.43 107.948V107.952ZM124.43 106.781C124.168 106.783 123.908 106.812 123.652 106.867L80.7737 116.297C78.5874 116.78 76.5188 117.692 74.6874 118.98C72.856 120.268 71.2981 121.906 70.1042 123.8C68.9102 125.694 68.1039 127.806 67.7317 130.014C67.3595 132.222 67.4289 134.481 67.9359 136.662L77.0158 175.705C77.1641 176.345 77.4839 176.933 77.9411 177.405C78.3982 177.877 78.9754 178.216 79.6106 178.385L140.454 194.518C140.76 194.6 141.075 194.641 141.391 194.642C141.929 194.64 142.46 194.519 142.944 194.287C143.429 194.054 143.856 193.717 144.194 193.299C144.533 192.881 144.774 192.393 144.9 191.87C145.026 191.348 145.034 190.804 144.924 190.278L127.986 109.66C127.814 108.848 127.369 108.12 126.726 107.596C126.083 107.072 125.279 106.785 124.449 106.781H124.43Z" fill="black"/>
<path d="M70.2201 123.73C69.0269 125.521 68.2129 127.538 67.8282 129.655C67.4435 131.773 67.4963 133.947 67.9832 136.043L69.232 141.419C70.7881 136.949 78.4675 136.607 78.4675 136.607C72.3987 126.741 76.4017 119.93 78.3079 117.545C75.0026 118.656 72.1585 120.831 70.2201 123.73Z" fill="#4BD657"/>
<path d="M75.3181 120.287C73.8321 123.73 73.0384 128.994 76.5747 135.65C74.6723 135.957 71.7196 136.72 69.7667 138.56L69.1209 135.778C68.442 132.872 68.6724 129.828 69.7808 127.057C70.8892 124.287 72.8223 121.923 75.3181 120.287ZM78.3097 117.541C74.5956 118.788 71.4797 121.375 69.5705 124.796C67.6614 128.217 67.096 132.227 67.985 136.043L69.2337 141.419C70.7898 136.949 78.4693 136.607 78.4693 136.607C72.4005 126.741 76.4035 119.93 78.3097 117.545V117.541Z" fill="black"/>
<path d="M88.2364 137.037L82.0753 138.207C80.5344 138.499 79.5223 139.985 79.8149 141.526L80.9846 147.687C81.2771 149.228 82.7635 150.24 84.3044 149.948L90.4655 148.778C92.0064 148.485 93.0183 146.999 92.7257 145.458L91.556 139.297C91.2635 137.756 89.7773 136.744 88.2364 137.037Z" fill="#4BD657"/>
<path d="M83.7403 150.68C82.9437 150.679 82.1723 150.4 81.5589 149.892C80.9455 149.383 80.5283 148.677 80.3791 147.895L79.212 141.732C79.0434 140.841 79.2355 139.918 79.746 139.168C80.2565 138.417 81.0437 137.9 81.9352 137.729L88.1013 136.562C88.5427 136.478 88.9963 136.482 89.4363 136.573C89.8762 136.665 90.2939 136.842 90.6653 137.095C91.0367 137.348 91.3545 137.672 91.6008 138.047C91.847 138.423 92.017 138.844 92.1005 139.285L93.2676 145.448C93.3517 145.889 93.3478 146.343 93.2564 146.783C93.165 147.223 92.9879 147.641 92.735 148.013C92.4821 148.385 92.1586 148.703 91.7828 148.95C91.4069 149.196 90.9861 149.367 90.5444 149.451L84.3784 150.618C84.1683 150.659 83.9545 150.68 83.7403 150.68ZM88.7393 137.667C88.5971 137.667 88.4549 137.68 88.3152 137.706L82.1493 138.873C81.8582 138.928 81.5806 139.04 81.3329 139.203C81.0851 139.365 80.8719 139.575 80.7053 139.82C80.5387 140.065 80.422 140.34 80.362 140.63C80.302 140.921 80.2999 141.22 80.3557 141.511L81.5228 147.673C81.6342 148.26 81.974 148.779 82.4678 149.116C82.9616 149.453 83.569 149.58 84.1565 149.47L90.3226 148.303C90.6137 148.248 90.891 148.136 91.1388 147.973C91.3866 147.811 91.6 147.601 91.7666 147.356C91.9332 147.111 92.0497 146.836 92.1097 146.546C92.1696 146.256 92.1718 145.956 92.1159 145.665L90.9489 139.503C90.8512 138.988 90.5773 138.523 90.174 138.188C89.7708 137.853 89.2636 137.669 88.7393 137.667Z" fill="black"/>
<path d="M117.728 117.66L85.2791 123.821C83.7572 124.11 82.7577 125.577 83.0466 127.099C83.3356 128.621 84.8035 129.621 86.3254 129.332L118.774 123.171C120.296 122.882 121.295 121.414 121.006 119.892C120.717 118.371 119.249 117.371 117.728 117.66Z" fill="#4BD657"/>
<path d="M85.7637 130.063C84.9191 130.064 84.1045 129.75 83.4797 129.182C82.8548 128.613 82.4648 127.832 82.3859 126.991C82.307 126.15 82.545 125.31 83.0532 124.636C83.5615 123.961 84.3034 123.501 85.1334 123.345L117.586 117.186C118.469 117.019 119.383 117.209 120.126 117.715C120.869 118.221 121.38 119.001 121.548 119.884C121.716 120.768 121.525 121.681 121.02 122.424C120.514 123.167 119.733 123.679 118.85 123.847L86.3977 130.005C86.1886 130.043 85.9764 130.063 85.7637 130.063ZM118.22 118.295C118.08 118.295 117.941 118.308 117.804 118.334L85.3513 124.492C84.7725 124.602 84.2609 124.938 83.9293 125.425C83.5977 125.911 83.4733 126.51 83.5832 127.089C83.6931 127.668 84.0283 128.179 84.5153 128.511C85.0023 128.843 85.601 128.967 86.1798 128.857L118.632 122.699C119.176 122.596 119.661 122.294 119.993 121.852C120.326 121.41 120.481 120.86 120.43 120.309C120.378 119.759 120.123 119.247 119.715 118.875C119.306 118.502 118.773 118.296 118.22 118.295Z" fill="black"/>
<path d="M91.7987 155.045L85.6376 156.214C84.0967 156.507 83.0848 157.993 83.3774 159.534L84.5471 165.695C84.8396 167.236 86.3258 168.248 87.8667 167.956L94.0278 166.786C95.5687 166.493 96.5808 165.007 96.2882 163.466L95.1185 157.305C94.826 155.764 93.3396 154.752 91.7987 155.045Z" fill="#4BD657"/>
<path d="M87.2956 168.686C86.5 168.685 85.7296 168.406 85.1169 167.899C84.5042 167.391 84.0874 166.686 83.9382 165.904L82.7711 159.738C82.6871 159.297 82.6911 158.843 82.7825 158.403C82.874 157.963 83.0511 157.546 83.304 157.174C83.5569 156.803 83.8805 156.485 84.2564 156.239C84.6322 155.992 85.0528 155.823 85.4943 155.739L91.6604 154.572C92.1018 154.488 92.5554 154.492 92.9954 154.583C93.4353 154.675 93.853 154.852 94.2244 155.105C94.5958 155.358 94.9138 155.681 95.1601 156.057C95.4063 156.433 95.5761 156.854 95.6597 157.295L96.8267 163.461C96.9107 163.903 96.9069 164.356 96.8155 164.796C96.7241 165.236 96.5468 165.654 96.2939 166.025C96.041 166.397 95.7173 166.714 95.3415 166.961C94.9656 167.207 94.5451 167.377 94.1036 167.46L93.9945 166.888L94.1036 167.46L87.9413 168.627C87.7282 168.666 87.5122 168.686 87.2956 168.686ZM92.2984 155.673C92.1561 155.674 92.0141 155.688 91.8745 155.716L85.7084 156.883C85.4177 156.938 85.1406 157.05 84.8931 157.212C84.6456 157.374 84.4326 157.584 84.2661 157.828C84.0995 158.073 83.9827 158.348 83.9225 158.637C83.8622 158.927 83.8598 159.226 83.915 159.516L85.0821 165.683C85.1943 166.27 85.535 166.789 86.0296 167.125C86.5242 167.461 87.1321 167.588 87.7196 167.476L93.8857 166.309C94.1764 166.254 94.4535 166.142 94.701 165.98C94.9485 165.818 95.1615 165.608 95.328 165.364C95.4945 165.119 95.6112 164.844 95.6714 164.554C95.7317 164.265 95.7343 163.966 95.679 163.675L94.512 157.509C94.4143 156.994 94.1404 156.529 93.7371 156.194C93.3339 155.859 92.8265 155.675 92.3022 155.673H92.2984Z" fill="black"/>
<path d="M98.0857 141.781C97.9309 141.795 97.7768 141.748 97.6572 141.648C97.5375 141.549 97.4623 141.406 97.4479 141.252C97.4334 141.097 97.481 140.943 97.5802 140.823C97.6795 140.703 97.8221 140.628 97.9769 140.614L124.43 135.587C124.583 135.56 124.74 135.594 124.868 135.681C124.996 135.768 125.085 135.902 125.115 136.054C125.129 136.13 125.128 136.207 125.112 136.282C125.097 136.357 125.066 136.428 125.023 136.491C124.979 136.555 124.924 136.609 124.86 136.651C124.796 136.692 124.724 136.721 124.648 136.735L98.1947 141.757C98.1594 141.769 98.1228 141.777 98.0857 141.781Z" fill="black"/>
<path d="M101.539 159.951C101.384 159.965 101.23 159.918 101.11 159.818C100.991 159.719 100.915 159.576 100.901 159.422C100.887 159.267 100.934 159.113 101.033 158.993C101.133 158.873 101.275 158.798 101.43 158.784L127.884 153.761C127.961 153.741 128.042 153.737 128.121 153.749C128.2 153.761 128.276 153.789 128.343 153.832C128.411 153.875 128.469 153.931 128.514 153.997C128.56 154.063 128.59 154.138 128.605 154.216C128.62 154.295 128.619 154.376 128.601 154.454C128.584 154.532 128.55 154.606 128.503 154.67C128.456 154.735 128.396 154.789 128.327 154.829C128.258 154.87 128.181 154.896 128.101 154.905L101.648 159.927C101.613 159.939 101.576 159.947 101.539 159.951Z" fill="black"/>
<path d="M182.101 138.838L149.737 132.247C148.219 131.938 146.738 132.918 146.429 134.436C146.12 135.954 147.1 137.435 148.618 137.744L180.981 144.334C182.499 144.644 183.98 143.664 184.29 142.146C184.599 140.628 183.619 139.147 182.101 138.838Z" fill="#4BD657"/>
<path d="M181.589 144.93C181.362 144.932 181.135 144.909 180.912 144.864L148.545 138.274C147.889 138.141 147.286 137.815 146.814 137.339C146.342 136.863 146.022 136.258 145.894 135.6C145.766 134.942 145.837 134.261 146.096 133.643C146.355 133.025 146.792 132.497 147.351 132.128C147.722 131.88 148.138 131.709 148.575 131.624C149.013 131.539 149.463 131.542 149.899 131.634L182.262 138.224C182.699 138.311 183.113 138.484 183.483 138.733C183.852 138.981 184.169 139.3 184.415 139.672C184.661 140.043 184.831 140.459 184.915 140.896C185 141.333 184.997 141.783 184.908 142.219C184.751 142.984 184.335 143.671 183.731 144.165C183.126 144.659 182.37 144.929 181.589 144.93ZM181.146 143.72C181.723 143.836 182.322 143.719 182.813 143.394C183.304 143.069 183.646 142.562 183.764 141.985C183.823 141.7 183.825 141.405 183.769 141.118C183.714 140.832 183.602 140.559 183.441 140.315C183.28 140.072 183.072 139.863 182.83 139.7C182.587 139.538 182.315 139.424 182.029 139.367L149.666 132.777C149.38 132.718 149.086 132.715 148.799 132.771C148.512 132.826 148.24 132.938 147.997 133.1C147.63 133.342 147.343 133.687 147.173 134.092C147.003 134.497 146.956 134.944 147.039 135.375C147.123 135.807 147.332 136.204 147.641 136.516C147.95 136.829 148.345 137.042 148.775 137.13L181.146 143.72Z" fill="black"/>
<path d="M181.518 159.014C181.479 159.017 181.44 159.017 181.401 159.014L142.553 151.105C142.478 151.089 142.406 151.059 142.343 151.017C142.279 150.974 142.225 150.919 142.183 150.855C142.14 150.791 142.111 150.719 142.097 150.644C142.082 150.569 142.082 150.491 142.098 150.416C142.113 150.341 142.143 150.27 142.186 150.206C142.229 150.143 142.284 150.088 142.348 150.046C142.412 150.004 142.483 149.974 142.559 149.96C142.634 149.945 142.711 149.946 142.786 149.961L181.634 157.87C181.789 157.885 181.931 157.962 182.03 158.082C182.128 158.202 182.175 158.357 182.159 158.512C182.144 158.667 182.068 158.809 181.947 158.907C181.827 159.006 181.672 159.052 181.518 159.037V159.014Z" fill="black"/>
<path d="M180.093 165.442C180.054 165.446 180.015 165.446 179.976 165.442L141.463 157.603C141.315 157.569 141.187 157.478 141.105 157.351C141.022 157.223 140.993 157.069 141.023 156.92C141.053 156.771 141.14 156.64 141.265 156.554C141.39 156.468 141.543 156.434 141.693 156.459L180.206 164.298C180.361 164.314 180.503 164.39 180.602 164.51C180.7 164.631 180.747 164.785 180.731 164.94C180.716 165.095 180.639 165.237 180.519 165.336C180.399 165.434 180.244 165.481 180.089 165.465L180.093 165.442Z" fill="black"/>
<path d="M180.092 174.006C180.053 174.01 180.014 174.01 179.975 174.006L160.135 169.964C160.06 169.949 159.989 169.919 159.925 169.876C159.861 169.833 159.807 169.778 159.765 169.714C159.722 169.65 159.693 169.579 159.679 169.503C159.664 169.428 159.664 169.351 159.68 169.276C159.695 169.201 159.725 169.129 159.768 169.066C159.811 169.002 159.866 168.948 159.93 168.905C159.994 168.863 160.065 168.834 160.141 168.819C160.216 168.805 160.293 168.805 160.368 168.82L180.209 172.862C180.363 172.878 180.506 172.954 180.604 173.075C180.703 173.195 180.749 173.349 180.734 173.504C180.718 173.659 180.642 173.801 180.522 173.9C180.401 173.998 180.247 174.045 180.092 174.029V174.006Z" fill="black"/>
<path d="M82.8594 142.64L86.0688 146.211L88.5703 140.143" fill="#4BD657"/>
<path d="M86.0743 146.795C85.9921 146.795 85.9108 146.778 85.8358 146.745C85.7607 146.711 85.6934 146.662 85.6386 146.601L82.4253 143.03C82.3319 142.913 82.2866 142.766 82.2988 142.617C82.311 142.468 82.3798 142.33 82.4909 142.23C82.602 142.13 82.7469 142.077 82.896 142.081C83.0452 142.085 83.1873 142.146 83.2928 142.252L85.8876 145.13L88.031 139.921C88.0898 139.778 88.2034 139.664 88.3464 139.604C88.4894 139.544 88.6503 139.544 88.7937 139.602C88.9371 139.661 89.0513 139.774 89.1111 139.917C89.1709 140.06 89.1714 140.221 89.1126 140.365L86.6111 146.434C86.5741 146.525 86.5143 146.606 86.4373 146.668C86.3604 146.73 86.269 146.771 86.1716 146.788L86.0743 146.795Z" fill="black"/>
<path d="M86.0664 160.848L89.6377 163.345L92.139 157.992" fill="#4BD657"/>
<path d="M89.6356 163.929C89.516 163.929 89.3992 163.892 89.301 163.824L85.7336 161.326C85.6708 161.282 85.6172 161.226 85.576 161.162C85.5347 161.097 85.5067 161.025 85.4933 160.95C85.48 160.874 85.4815 160.797 85.4981 160.722C85.5146 160.647 85.5457 160.576 85.5896 160.513C85.6336 160.45 85.6895 160.397 85.7541 160.356C85.8188 160.314 85.891 160.286 85.9665 160.273C86.042 160.26 86.1194 160.261 86.1943 160.278C86.2691 160.294 86.34 160.325 86.4028 160.369L89.4022 162.47L91.6079 157.743C91.6797 157.614 91.7978 157.517 91.9385 157.472C92.0791 157.426 92.2318 157.436 92.3657 157.499C92.4995 157.561 92.6045 157.672 92.6595 157.81C92.7146 157.947 92.7155 158.1 92.6622 158.237L90.1647 163.594C90.1277 163.673 90.0736 163.742 90.0062 163.796C89.9389 163.851 89.86 163.89 89.7756 163.909C89.7301 163.922 89.683 163.929 89.6356 163.929Z" fill="black"/>
<path d="M184.301 123.923C184.264 123.927 184.228 123.927 184.192 123.923L163.963 120.033C163.82 119.995 163.696 119.905 163.617 119.78C163.539 119.655 163.51 119.504 163.538 119.359C163.565 119.214 163.647 119.085 163.766 118.997C163.886 118.91 164.033 118.871 164.18 118.889L184.409 122.779C184.564 122.794 184.707 122.869 184.806 122.989C184.906 123.108 184.953 123.262 184.939 123.417C184.924 123.572 184.849 123.715 184.729 123.814C184.61 123.913 184.455 123.961 184.301 123.946V123.923Z" fill="#1D1D1B"/>
<path d="M109.218 132.483C109.092 132.482 108.969 132.441 108.868 132.365C108.767 132.289 108.693 132.183 108.657 132.062C99.7527 101.477 112.061 73.203 112.186 72.9307C112.251 72.7926 112.367 72.6855 112.51 72.6323C112.654 72.5791 112.812 72.5841 112.951 72.6462C113.091 72.7082 113.2 72.8225 113.256 72.9644C113.313 73.1063 113.311 73.2646 113.252 73.4053C113.127 73.6815 100.998 101.586 109.778 131.759C109.821 131.906 109.805 132.065 109.732 132.201C109.659 132.336 109.536 132.438 109.389 132.483C109.332 132.491 109.274 132.491 109.218 132.483Z" fill="#1D1D1B"/>
<path d="M72.1692 176.884L79.7901 241.679C79.9284 242.855 80.4862 243.941 81.361 244.737C82.2358 245.534 83.3689 245.989 84.5519 246.017L181.714 248.351C183.009 248.382 184.264 247.9 185.205 247.01C186.146 246.121 186.698 244.896 186.741 243.601L188.612 185.925C188.632 185.271 188.521 184.62 188.285 184.009C188.05 183.399 187.694 182.842 187.241 182.371C186.787 181.9 186.244 181.524 185.643 181.266C185.042 181.008 184.395 180.872 183.741 180.867L141.419 180.552C140.163 180.545 138.958 180.054 138.054 179.183L131.394 172.78C130.48 171.899 129.26 171.406 127.99 171.406H77.0476C76.3549 171.407 75.6702 171.553 75.0382 171.837C74.4063 172.121 73.8416 172.535 73.3809 173.052C72.9203 173.569 72.5743 174.178 72.3654 174.838C72.1566 175.499 72.0897 176.196 72.1692 176.884Z" fill="#07ACEE"/>
<path d="M127.991 171.384C129.26 171.384 130.481 171.876 131.395 172.757L138.055 179.16C138.959 180.032 140.164 180.522 141.42 180.53L183.742 180.845C184.396 180.85 185.043 180.985 185.643 181.244C186.244 181.502 186.788 181.877 187.241 182.349C187.695 182.82 188.05 183.377 188.286 183.987C188.521 184.597 188.632 185.248 188.612 185.902L186.741 243.579C186.7 244.852 186.165 246.06 185.25 246.946C184.334 247.833 183.11 248.329 181.836 248.329H181.715L84.5525 245.995C83.3696 245.966 82.2365 245.512 81.3617 244.715C80.4869 243.918 79.9291 242.832 79.7908 241.657L72.1699 176.861C72.0892 176.173 72.1551 175.475 72.3634 174.813C72.5717 174.152 72.9176 173.542 73.3784 173.024C73.8391 172.506 74.4043 172.091 75.0368 171.807C75.6693 171.523 76.3549 171.376 77.0482 171.376H127.991V171.384ZM127.991 170.209H77.0482C76.1899 170.209 75.3413 170.39 74.5582 170.741C73.775 171.093 73.0752 171.606 72.5048 172.247C71.9343 172.889 71.5063 173.643 71.2488 174.462C70.9912 175.281 70.91 176.145 71.0106 176.997L78.6315 241.793C78.8095 243.245 79.5022 244.585 80.5835 245.57C81.6648 246.555 83.0631 247.12 84.5252 247.162L181.688 249.496H181.836C183.415 249.502 184.934 248.89 186.069 247.791C187.204 246.692 187.864 245.193 187.908 243.614L189.78 185.941C189.805 185.131 189.669 184.323 189.378 183.566C189.088 182.809 188.648 182.118 188.086 181.533C187.525 180.949 186.852 180.482 186.107 180.162C185.362 179.841 184.561 179.673 183.75 179.666L141.428 179.351C140.471 179.345 139.553 178.972 138.864 178.308L132.2 171.901C131.071 170.811 129.561 170.202 127.991 170.205V170.209Z" fill="black"/>
<path d="M82.7658 236.351C82.5294 236.351 82.3011 236.265 82.1236 236.109C81.946 235.953 81.8313 235.738 81.801 235.503L75.1876 184.152C75.1546 183.894 75.2254 183.633 75.3844 183.428C75.5435 183.222 75.7778 183.088 76.0358 183.055C76.2937 183.022 76.5541 183.093 76.7599 183.252C76.9656 183.411 77.0997 183.645 77.1327 183.903L83.7462 235.254C83.7625 235.381 83.7537 235.509 83.7203 235.633C83.687 235.756 83.6297 235.872 83.5516 235.973C83.4736 236.074 83.3764 236.159 83.2656 236.222C83.1548 236.286 83.0325 236.327 82.9058 236.343L82.7658 236.351Z" fill="white"/>
<path d="M220.48 193.169C220.222 193.169 219.975 193.067 219.793 192.884C219.61 192.702 219.508 192.455 219.508 192.197V166.91C219.508 166.652 219.61 166.405 219.793 166.222C219.975 166.04 220.222 165.938 220.48 165.938C220.738 165.938 220.986 166.04 221.168 166.222C221.35 166.405 221.453 166.652 221.453 166.91V192.197C221.453 192.455 221.35 192.702 221.168 192.884C220.986 193.067 220.738 193.169 220.48 193.169Z" fill="white"/>
<path d="M348.15 176.829C347.945 176.829 347.745 176.764 347.579 176.645C347.413 176.525 347.289 176.356 347.225 176.161C347.161 175.967 347.159 175.757 347.221 175.562C347.283 175.366 347.405 175.196 347.57 175.074C353.814 170.449 357.21 165.212 357.685 159.513C358.408 150.437 351.359 143.112 351.289 143.038C351.113 142.853 351.017 142.606 351.021 142.35C351.025 142.095 351.13 141.852 351.312 141.673C351.495 141.494 351.74 141.394 351.996 141.395C352.251 141.395 352.496 141.496 352.678 141.676C352.993 141.999 360.408 149.686 359.622 159.653C359.128 165.944 355.467 171.662 348.749 176.642C348.575 176.768 348.365 176.834 348.15 176.829Z" fill="white"/>
<path d="M243.156 78.34H243.121C229.358 77.8304 224.328 60.2737 224.118 59.5267C224.048 59.2781 224.081 59.0122 224.208 58.7874C224.335 58.5627 224.546 58.3976 224.794 58.3285C225.043 58.2594 225.309 58.2919 225.534 58.4188C225.758 58.5458 225.924 58.7568 225.993 59.0054C226.039 59.1727 230.856 75.9397 243.195 76.3949C243.453 76.4 243.699 76.5074 243.877 76.6935C244.056 76.8795 244.154 77.1289 244.148 77.3868C244.143 77.6447 244.036 77.8901 243.85 78.0688C243.664 78.2476 243.414 78.3451 243.156 78.34Z" fill="white"/>
<path d="M308.638 198.525C308.435 198.524 308.238 198.461 308.072 198.343C307.907 198.225 307.783 198.059 307.717 197.867C300.52 176.693 281.31 161.132 281.115 160.976C280.927 160.811 280.811 160.58 280.789 160.331C280.767 160.081 280.842 159.834 280.998 159.638C281.155 159.443 281.38 159.316 281.627 159.282C281.875 159.249 282.126 159.312 282.329 159.459C282.527 159.618 302.169 175.518 309.56 197.241C309.642 197.485 309.624 197.751 309.511 197.982C309.397 198.213 309.197 198.39 308.954 198.474C308.852 198.508 308.746 198.525 308.638 198.525Z" fill="white"/>
<path d="M82.7632 300.539C82.6085 300.539 82.4601 300.477 82.3506 300.368C82.2412 300.258 82.1797 300.11 82.1797 299.955C82.1797 299.8 82.2412 299.652 82.3506 299.542C82.4601 299.433 82.6085 299.371 82.7632 299.371L336.407 298.982C336.562 298.982 336.71 299.044 336.819 299.153C336.929 299.263 336.99 299.411 336.99 299.566C336.99 299.721 336.929 299.869 336.819 299.979C336.71 300.088 336.562 300.149 336.407 300.149L82.7632 300.539Z" fill="#1D1D1B"/>
<path d="M301.549 122.559C301.16 122.559 300.771 122.559 300.355 122.559C300.279 122.558 300.203 122.542 300.133 122.511C300.062 122.481 299.999 122.437 299.945 122.382C299.892 122.327 299.85 122.262 299.822 122.19C299.794 122.119 299.78 122.043 299.781 121.966C299.783 121.89 299.799 121.814 299.829 121.744C299.86 121.673 299.904 121.61 299.959 121.556C300.014 121.503 300.079 121.461 300.151 121.433C300.222 121.405 300.298 121.391 300.375 121.392C319.312 121.715 333.329 114.483 342.051 99.9027C346.035 93.1248 348.577 85.5967 349.516 77.7905C349.522 77.7139 349.543 77.6392 349.578 77.5706C349.612 77.5021 349.66 77.4411 349.719 77.391C349.777 77.341 349.845 77.303 349.918 77.2791C349.991 77.2552 350.068 77.2458 350.144 77.2517C350.221 77.2576 350.296 77.2785 350.364 77.3133C350.433 77.348 350.494 77.396 350.544 77.4543C350.594 77.5126 350.632 77.5802 350.656 77.6533C350.68 77.7263 350.689 77.8033 350.683 77.88C349.727 85.8652 347.131 93.5667 343.058 100.502C339.141 107.049 334.049 112.231 327.925 115.911C320.565 120.322 311.703 122.559 301.549 122.559Z" fill="#1D1D1B"/>
<path d="M320.294 137.483C320.163 137.484 320.035 137.44 319.932 137.359C319.829 137.277 319.756 137.163 319.726 137.035C319.691 136.885 319.717 136.726 319.798 136.595C319.878 136.463 320.008 136.368 320.158 136.331C335.458 132.706 343.36 125.727 347.293 120.51C351.548 114.869 352.21 110.006 352.218 109.963C352.227 109.887 352.252 109.813 352.29 109.745C352.328 109.678 352.378 109.619 352.439 109.572C352.5 109.524 352.57 109.489 352.644 109.469C352.719 109.448 352.797 109.442 352.873 109.452C352.95 109.461 353.024 109.486 353.091 109.524C353.158 109.562 353.217 109.613 353.265 109.674C353.312 109.734 353.347 109.804 353.368 109.878C353.388 109.953 353.394 110.031 353.385 110.107C353.361 110.317 352.7 115.266 348.284 121.148C344.239 126.544 336.124 133.752 320.442 137.487C320.393 137.492 320.343 137.491 320.294 137.483Z" fill="#1D1D1B"/>
<path d="M171.224 236.689C166.416 229.464 168.501 225.138 176.383 226.994C184.264 228.85 205.143 242.372 205.143 242.372L199.428 274.152" fill="#FFCDB2"/>
<path d="M200.191 274.288L198.662 274.012L204.288 242.746C201.253 240.801 183.238 229.407 176.204 227.749C173.014 226.999 170.758 227.283 169.886 228.551C168.867 230.021 169.591 232.83 171.874 236.257L170.579 237.121C167.883 233.071 167.182 229.73 168.61 227.664C169.509 226.368 171.617 225.073 176.562 226.236C184.475 228.1 204.712 241.163 205.567 241.719L206.003 241.999L200.191 274.288Z" fill="#1D1E1B"/>
<path d="M176.055 248.57C175.434 248.988 174.736 249.28 174.002 249.428C173.268 249.576 172.512 249.578 171.777 249.433C171.043 249.289 170.344 249 169.721 248.585C169.097 248.17 168.562 247.636 168.146 247.014L150.216 220.401C149.371 219.147 149.059 217.61 149.347 216.126C149.635 214.643 150.5 213.334 151.753 212.488C152.374 212.07 153.071 211.778 153.805 211.63C154.539 211.482 155.295 211.48 156.03 211.625C156.765 211.769 157.464 212.057 158.087 212.473C158.71 212.888 159.245 213.422 159.661 214.044L177.592 240.677C178.43 241.928 178.739 243.461 178.451 244.94C178.163 246.419 177.302 247.724 176.055 248.57Z" fill="#382256"/>
<path d="M172.883 250.131C172.475 250.13 172.069 250.091 171.669 250.014C170.858 249.859 170.087 249.544 169.399 249.088C168.711 248.632 168.12 248.043 167.662 247.357L149.728 220.724C148.8 219.342 148.458 217.648 148.776 216.013C149.094 214.379 150.046 212.937 151.424 212.002C152.108 211.54 152.876 211.217 153.684 211.052C154.492 210.887 155.325 210.884 156.135 211.041C156.945 211.199 157.716 211.515 158.404 211.971C159.091 212.427 159.682 213.014 160.142 213.699L178.076 240.331C179.004 241.714 179.346 243.408 179.028 245.042C178.71 246.677 177.758 248.119 176.38 249.053C175.349 249.755 174.13 250.13 172.883 250.131ZM154.929 212.092C154.002 212.095 153.093 212.35 152.3 212.829C151.506 213.309 150.858 213.995 150.424 214.814C149.99 215.633 149.786 216.555 149.835 217.481C149.884 218.407 150.183 219.302 150.701 220.071L168.635 246.707C169.392 247.831 170.566 248.608 171.897 248.867C173.227 249.126 174.606 248.846 175.731 248.088C176.853 247.328 177.629 246.153 177.888 244.822C178.147 243.49 177.868 242.111 177.111 240.985L159.181 214.348C158.806 213.791 158.325 213.313 157.765 212.942C157.205 212.571 156.577 212.314 155.917 212.185C155.592 212.123 155.261 212.092 154.929 212.092Z" fill="#1D1F1C"/>
<path d="M165.895 226.591L159.597 230.836C159.132 231.148 158.611 231.366 158.062 231.476C157.513 231.587 156.948 231.588 156.398 231.479C155.849 231.371 155.327 231.155 154.861 230.844C154.395 230.534 153.995 230.134 153.684 229.669L150.825 225.417C150.2 224.476 149.972 223.327 150.19 222.22C150.409 221.112 151.057 220.136 151.992 219.503L158.278 215.259C158.743 214.947 159.265 214.729 159.814 214.619C160.362 214.508 160.928 214.507 161.477 214.616C162.026 214.724 162.549 214.94 163.015 215.251C163.48 215.561 163.88 215.961 164.191 216.426L167.051 220.678C167.677 221.617 167.906 222.765 167.69 223.873C167.474 224.98 166.829 225.957 165.895 226.591Z" fill="#382256"/>
<path d="M157.236 232.151C156.923 232.15 156.61 232.12 156.302 232.061C155.678 231.94 155.083 231.697 154.553 231.345C154.023 230.993 153.567 230.54 153.213 230.011L150.35 225.763C149.635 224.697 149.372 223.392 149.617 222.132C149.862 220.872 150.595 219.761 151.657 219.04L157.944 214.792C158.472 214.439 159.064 214.193 159.687 214.068C160.31 213.944 160.952 213.943 161.575 214.067C162.198 214.19 162.791 214.436 163.319 214.788C163.848 215.141 164.302 215.595 164.655 216.123L167.518 220.371C168.233 221.437 168.496 222.742 168.251 224.002C168.006 225.262 167.273 226.373 166.211 227.093L159.924 231.341C159.128 231.872 158.193 232.154 157.236 232.151ZM160.648 215.131C159.917 215.13 159.202 215.35 158.598 215.761L152.311 220.013C151.504 220.56 150.947 221.404 150.761 222.36C150.575 223.317 150.776 224.308 151.319 225.117L154.182 229.365C154.452 229.765 154.798 230.108 155.2 230.375C155.602 230.641 156.053 230.826 156.527 230.918C157 231.01 157.487 231.008 157.96 230.912C158.433 230.816 158.882 230.627 159.282 230.357L165.569 226.109C166.376 225.562 166.933 224.719 167.119 223.762C167.305 222.805 167.104 221.814 166.561 221.005L163.701 216.757C163.363 216.258 162.908 215.85 162.376 215.567C161.843 215.285 161.25 215.136 160.648 215.135V215.131Z" fill="#1D1F1C"/>
<path d="M144.545 171.043C139.32 170.589 134.078 171.696 129.482 174.224C124.887 176.751 121.144 180.585 118.729 185.24C116.313 189.895 115.333 195.162 115.912 200.375C116.491 205.587 118.604 210.511 121.982 214.522C125.361 218.533 129.854 221.452 134.892 222.909C139.93 224.366 145.287 224.295 150.285 222.706C155.283 221.116 159.698 218.08 162.969 213.981C166.241 209.882 168.223 204.905 168.664 199.679C169.26 192.683 167.055 185.738 162.532 180.368C158.009 174.998 151.539 171.644 144.545 171.043ZM159.297 198.885C159.009 202.242 157.733 205.438 155.629 208.07C153.525 210.702 150.689 212.651 147.478 213.672C144.267 214.692 140.825 214.738 137.588 213.803C134.351 212.869 131.464 210.996 129.291 208.421C127.118 205.846 125.757 202.685 125.38 199.336C125.003 195.988 125.626 192.604 127.172 189.61C128.718 186.616 131.117 184.148 134.065 182.516C137.013 180.885 140.378 180.165 143.736 180.445C145.968 180.634 148.142 181.261 150.132 182.289C152.123 183.318 153.891 184.729 155.336 186.442C156.781 188.154 157.874 190.134 158.554 192.269C159.234 194.404 159.486 196.652 159.297 198.885Z" fill="#4BD657"/>
<path d="M142.327 224.537C141.567 224.537 140.803 224.505 140.035 224.44C132.992 223.841 126.463 220.506 121.849 215.15C117.234 209.794 114.902 202.844 115.352 195.789C115.801 188.734 118.997 182.136 124.254 177.409C129.51 172.682 136.41 170.203 143.473 170.503C150.536 170.803 157.2 173.858 162.037 179.013C166.874 184.168 169.499 191.013 169.35 198.081C169.2 205.149 166.287 211.876 161.236 216.822C156.184 221.768 149.396 224.537 142.327 224.537ZM142.276 171.533C135.794 171.549 129.553 173.995 124.786 178.389C120.02 182.782 117.074 188.804 116.531 195.263C116.108 200.362 117.206 205.472 119.687 209.947C122.168 214.422 125.919 218.062 130.468 220.405C135.016 222.748 140.157 223.691 145.241 223.113C150.325 222.536 155.124 220.464 159.031 217.16C162.937 213.856 165.777 209.468 167.191 204.55C168.604 199.633 168.528 194.407 166.973 189.532C165.417 184.658 162.451 180.354 158.45 177.165C154.449 173.976 149.592 172.044 144.494 171.615C143.755 171.564 143.012 171.533 142.276 171.533ZM142.323 215.103C141.829 215.103 141.331 215.084 140.829 215.041C137.349 214.75 134.033 213.434 131.302 211.258C128.57 209.082 126.545 206.145 125.483 202.818C124.42 199.491 124.369 195.924 125.334 192.568C126.3 189.212 128.239 186.218 130.907 183.964C133.574 181.71 136.85 180.298 140.321 179.906C143.791 179.515 147.299 180.161 150.402 181.764C153.505 183.367 156.063 185.854 157.752 188.91C159.441 191.967 160.185 195.456 159.891 198.936C159.517 203.34 157.506 207.444 154.253 210.438C151 213.431 146.743 215.096 142.323 215.103ZM142.323 180.967C139.121 180.963 135.988 181.892 133.305 183.64C130.623 185.387 128.508 187.879 127.218 190.809C125.928 193.739 125.519 196.982 126.042 200.14C126.565 203.299 127.996 206.237 130.161 208.596C132.326 210.954 135.131 212.632 138.234 213.422C141.336 214.213 144.602 214.083 147.632 213.048C150.661 212.013 153.324 210.118 155.295 207.595C157.265 205.071 158.458 202.029 158.728 198.838C159.096 194.486 157.721 190.166 154.907 186.826C152.092 183.487 148.067 181.4 143.716 181.025C143.233 180.986 142.766 180.967 142.307 180.967H142.323Z" fill="#1D1E1B"/>
<path d="M166.407 198.725C166.157 198.725 165.917 198.629 165.736 198.457C165.555 198.285 165.447 198.049 165.435 197.799C164.575 180.262 149.485 175.668 149.345 175.625C149.222 175.589 149.108 175.53 149.008 175.45C148.909 175.37 148.826 175.271 148.764 175.159C148.703 175.047 148.664 174.924 148.65 174.797C148.636 174.67 148.648 174.542 148.683 174.419C148.719 174.296 148.779 174.182 148.859 174.082C148.939 173.983 149.037 173.9 149.149 173.838C149.261 173.777 149.384 173.738 149.511 173.725C149.638 173.711 149.767 173.722 149.889 173.758C152.977 174.805 155.833 176.439 158.3 178.57C162.19 181.849 166.894 187.836 167.376 197.706C167.389 197.963 167.299 198.215 167.126 198.406C166.953 198.597 166.711 198.712 166.454 198.725H166.407Z" fill="white"/>
<path d="M129.067 218.173C128.89 218.174 128.716 218.125 128.565 218.032C118.225 211.808 117.365 199.476 117.33 198.97C117.314 198.712 117.401 198.459 117.572 198.265C117.743 198.071 117.984 197.953 118.242 197.937C118.5 197.921 118.754 198.009 118.948 198.18C119.141 198.351 119.259 198.592 119.275 198.85C119.275 198.97 120.119 210.68 129.569 216.383C129.75 216.493 129.891 216.659 129.97 216.856C130.048 217.054 130.06 217.271 130.003 217.476C129.946 217.681 129.824 217.861 129.655 217.99C129.486 218.118 129.279 218.188 129.067 218.188V218.173Z" fill="white"/>
<path d="M86.9514 179.835C86.7791 179.836 86.6114 179.78 86.4744 179.675C86.3374 179.571 86.2389 179.424 86.1944 179.258C86.1499 179.091 86.1618 178.915 86.2284 178.756C86.295 178.597 86.4125 178.465 86.5623 178.38C86.7646 178.267 91.5847 175.586 100.474 173.867C108.643 172.284 121.913 171.268 138.801 175.404C139.001 175.453 139.174 175.579 139.282 175.756C139.389 175.933 139.421 176.144 139.372 176.345C139.323 176.546 139.197 176.719 139.02 176.826C138.844 176.933 138.632 176.966 138.431 176.917C106.718 169.136 87.5194 179.64 87.3288 179.733C87.2137 179.799 87.0837 179.834 86.9514 179.835Z" fill="#1D1D1B"/>
<path d="M105.822 184.716C105.654 184.713 105.491 184.656 105.358 184.552C105.225 184.448 105.129 184.304 105.085 184.141C105.042 183.978 105.052 183.806 105.114 183.649C105.177 183.492 105.289 183.361 105.433 183.273C105.924 182.974 117.555 176.029 128.386 180.021C128.482 180.056 128.57 180.11 128.645 180.179C128.721 180.249 128.781 180.332 128.824 180.425C128.867 180.518 128.892 180.618 128.896 180.72C128.9 180.823 128.884 180.925 128.849 181.021C128.813 181.117 128.76 181.205 128.69 181.28C128.621 181.355 128.538 181.416 128.445 181.459C128.352 181.502 128.252 181.527 128.149 181.531C128.047 181.535 127.945 181.519 127.849 181.484C117.734 177.749 106.348 184.534 106.231 184.596C106.109 184.674 105.967 184.716 105.822 184.716Z" fill="#1D1D1B"/>
<path d="M168.642 213.858C168.505 213.855 168.371 213.816 168.253 213.745C168.166 213.692 168.09 213.622 168.029 213.54C167.969 213.457 167.925 213.364 167.901 213.264C167.877 213.165 167.872 213.062 167.888 212.961C167.904 212.86 167.939 212.763 167.993 212.675C177.356 197.363 170.035 187.093 169.72 186.665C169.654 186.584 169.605 186.49 169.576 186.388C169.547 186.287 169.539 186.182 169.552 186.077C169.565 185.973 169.599 185.873 169.652 185.782C169.705 185.691 169.776 185.612 169.86 185.55C169.945 185.487 170.041 185.442 170.143 185.418C170.245 185.393 170.351 185.39 170.455 185.408C170.559 185.425 170.657 185.464 170.746 185.521C170.834 185.578 170.91 185.652 170.969 185.739C171.054 185.852 179.251 197.243 169.323 213.485C169.252 213.601 169.152 213.697 169.033 213.762C168.913 213.828 168.778 213.861 168.642 213.858Z" fill="#1D1D1B"/>
<path d="M137.501 229.034C118.988 228.867 113.619 213.547 113.565 213.395C113.532 213.298 113.518 213.196 113.525 213.094C113.532 212.991 113.559 212.891 113.604 212.8C113.65 212.708 113.713 212.626 113.791 212.559C113.868 212.491 113.958 212.44 114.055 212.407C114.25 212.342 114.464 212.357 114.648 212.449C114.833 212.541 114.973 212.702 115.039 212.897C115.241 213.485 120.135 227.319 137.517 227.478C137.723 227.478 137.921 227.56 138.067 227.706C138.213 227.852 138.295 228.05 138.295 228.256C138.295 228.462 138.213 228.66 138.067 228.806C137.921 228.952 137.723 229.034 137.517 229.034H137.501Z" fill="#1D1D1B"/>
<path d="M199.215 274.655C199.215 274.655 182.564 276.896 169.221 275.068C150.369 272.481 153.142 260.359 153.142 260.359C147.42 254.695 153.197 247.762 153.197 247.762C153.197 247.762 142.149 240.441 155.722 233.999C163.483 230.315 173.979 235.068 181.852 239.931" fill="#FFCDB2"/>
<path d="M181.121 276.363C177.117 276.391 173.115 276.151 169.143 275.643C162.016 274.666 157.064 272.235 154.43 268.423C152.827 266.131 152.143 263.321 152.516 260.549C147.712 255.526 151.174 249.617 152.38 247.89C151.158 246.945 148.147 244.272 148.389 240.887C148.587 238.09 150.972 235.589 155.473 233.453C161.864 230.419 170.843 232.426 182.16 239.421L181.545 240.413C170.586 233.64 161.985 231.656 155.975 234.507C151.882 236.453 149.723 238.623 149.552 240.969C149.303 244.412 153.481 247.232 153.52 247.26L154.06 247.621L153.648 248.119C153.427 248.388 148.287 254.713 153.555 259.926L153.784 260.156L153.71 260.471C153.313 263.03 153.919 265.643 155.403 267.765C157.85 271.286 162.526 273.542 169.303 274.472C182.413 276.273 198.969 274.083 199.137 274.059L199.292 275.227C193.263 275.964 187.195 276.343 181.121 276.363Z" fill="#1D1E1B"/>
<path d="M234.047 266.921C234.447 265.3 233.456 263.661 231.833 263.261C230.21 262.86 228.57 263.849 228.17 265.47C227.77 267.09 228.761 268.729 230.384 269.13C232.006 269.531 233.646 268.542 234.047 266.921Z" fill="#51CEF4"/>
<path d="M257.825 131.9C257.825 131.9 318.104 172.67 327.46 228.378C335.194 274.427 329.584 280.037 307.62 288.677C291.168 295.15 228.562 299.628 217.755 292.178C206.948 284.728 208.279 279.239 208.279 279.239L199.121 275.326L205.622 241.302L212.235 242.531C212.235 242.531 219.354 231.035 230.963 234.669C242.571 238.302 259.113 240.504 264.03 245.515" fill="#07ACEE"/>
<path d="M245.961 296.652C231.473 296.652 221.188 295.259 217.43 292.672C208.14 286.269 207.568 281.192 207.653 279.617L198.465 275.688L205.16 240.636L211.96 241.897C213.291 239.991 220.382 230.759 231.135 234.116C234.811 235.283 239.048 236.291 243.148 237.275C252.317 239.485 260.981 241.574 264.459 245.114L263.626 245.931C260.382 242.628 251.481 240.485 242.876 238.411C238.756 237.419 234.5 236.392 230.789 235.233C219.752 231.778 213.01 242.391 212.726 242.846L212.516 243.185L206.09 241.99L199.787 274.98L208.968 278.905L208.852 279.383C208.852 279.43 207.832 284.635 218.091 291.704C221.981 294.388 232.703 295.477 245.537 295.477C268.151 295.477 297.343 292.104 307.411 288.14C319.082 283.546 325.182 280.01 328.138 272.354C331.208 264.406 330.861 252.105 326.889 228.483C322.081 199.859 303.486 175.269 288.734 159.677C272.722 142.758 257.655 132.492 257.503 132.391L258.157 131.426C258.308 131.527 273.465 141.852 289.563 158.856C304.435 174.569 323.182 199.369 328.041 228.289C332.044 252.14 332.379 264.612 329.227 272.774C325.827 281.573 318.218 285.145 307.831 289.229C299.872 292.342 280.891 295.178 260.6 296.232C255.363 296.504 250.458 296.652 245.961 296.652Z" fill="#1D1D1B"/>
<path d="M212.46 243.148C212.46 243.148 225.033 254.741 208.838 278.861L199.891 274.784L206.022 242.207L212.46 243.148Z" fill="#0598C6"/>
<path d="M279.751 264.073C280.116 263.536 280.297 262.895 280.269 262.246C280.241 261.597 280.005 260.975 279.596 260.47C279.187 259.966 278.627 259.606 277.998 259.445C277.369 259.283 276.705 259.328 276.103 259.573C275.502 259.818 274.995 260.25 274.658 260.806C274.321 261.361 274.172 262.01 274.232 262.656C274.292 263.303 274.558 263.913 274.992 264.397C275.425 264.88 276.003 265.211 276.639 265.341C277.225 265.461 277.834 265.404 278.387 265.178C278.941 264.953 279.416 264.568 279.751 264.073Z" fill="#51CEF4"/>
<path d="M317.287 225.911C317.651 225.373 317.832 224.733 317.804 224.084C317.776 223.435 317.541 222.813 317.132 222.308C316.723 221.804 316.162 221.444 315.533 221.283C314.904 221.121 314.24 221.166 313.638 221.411C313.037 221.656 312.53 222.088 312.193 222.644C311.856 223.199 311.707 223.848 311.767 224.494C311.827 225.141 312.094 225.751 312.527 226.235C312.961 226.718 313.538 227.049 314.174 227.179C314.76 227.299 315.369 227.242 315.922 227.016C316.476 226.791 316.951 226.406 317.287 225.911Z" fill="#51CEF4"/>
<path d="M248.427 222.409C248.791 221.871 248.973 221.231 248.945 220.582C248.917 219.933 248.681 219.311 248.272 218.806C247.863 218.302 247.303 217.942 246.674 217.781C246.045 217.619 245.381 217.664 244.779 217.909C244.178 218.154 243.671 218.586 243.334 219.142C242.997 219.697 242.847 220.346 242.908 220.992C242.968 221.639 243.234 222.249 243.668 222.733C244.101 223.216 244.679 223.547 245.315 223.677C245.901 223.797 246.509 223.74 247.063 223.514C247.617 223.289 248.091 222.904 248.427 222.409Z" fill="#51CEF4"/>
<path d="M246.872 168.724C247.237 168.186 247.418 167.545 247.39 166.897C247.362 166.248 247.126 165.625 246.717 165.121C246.308 164.616 245.748 164.257 245.119 164.095C244.49 163.934 243.826 163.979 243.224 164.224C242.623 164.469 242.116 164.901 241.779 165.456C241.442 166.011 241.293 166.66 241.353 167.307C241.413 167.953 241.679 168.564 242.113 169.047C242.547 169.531 243.124 169.862 243.76 169.992C244.346 170.111 244.955 170.054 245.508 169.829C246.062 169.603 246.537 169.219 246.872 168.724Z" fill="#51CEF4"/>
<path d="M277.259 190.089C277.623 189.551 277.805 188.911 277.777 188.262C277.749 187.613 277.513 186.99 277.104 186.486C276.695 185.981 276.135 185.622 275.506 185.46C274.877 185.299 274.212 185.344 273.611 185.589C273.01 185.834 272.503 186.266 272.166 186.821C271.829 187.376 271.679 188.025 271.74 188.672C271.8 189.319 272.066 189.929 272.5 190.412C272.933 190.896 273.511 191.227 274.147 191.357C274.733 191.476 275.341 191.42 275.895 191.194C276.449 190.968 276.923 190.584 277.259 190.089Z" fill="#51CEF4"/>
<path d="M318.56 267.929C318.924 267.391 319.106 266.75 319.078 266.102C319.05 265.453 318.814 264.83 318.405 264.326C317.996 263.821 317.436 263.462 316.807 263.3C316.177 263.139 315.513 263.184 314.912 263.429C314.31 263.674 313.804 264.106 313.467 264.661C313.13 265.216 312.98 265.865 313.04 266.512C313.1 267.158 313.367 267.769 313.8 268.252C314.234 268.736 314.812 269.067 315.448 269.197C316.034 269.316 316.642 269.259 317.195 269.033C317.749 268.807 318.224 268.423 318.56 267.929Z" fill="#51CEF4"/>
<path d="M230.517 282.575C230.881 282.038 231.063 281.397 231.035 280.748C231.007 280.099 230.771 279.477 230.362 278.972C229.953 278.468 229.393 278.108 228.764 277.947C228.135 277.785 227.47 277.83 226.869 278.075C226.268 278.32 225.761 278.752 225.424 279.308C225.087 279.863 224.937 280.512 224.997 281.158C225.057 281.805 225.324 282.415 225.758 282.899C226.191 283.382 226.769 283.713 227.405 283.844C227.991 283.963 228.599 283.906 229.153 283.68C229.707 283.455 230.181 283.07 230.517 282.575Z" fill="#51CEF4"/>
<path d="M170.826 248.68C170.749 248.679 170.672 248.664 170.601 248.633C165.166 246.36 159.06 246.289 153.573 248.435C153.433 248.5 153.272 248.507 153.127 248.454C152.981 248.401 152.863 248.293 152.797 248.152C152.732 248.012 152.724 247.852 152.777 247.706C152.83 247.56 152.939 247.442 153.079 247.376C153.418 247.217 161.47 243.544 171.052 247.555C171.178 247.606 171.282 247.7 171.347 247.82C171.411 247.939 171.432 248.078 171.405 248.211C171.378 248.344 171.306 248.464 171.2 248.55C171.094 248.635 170.962 248.681 170.826 248.68Z" fill="#1D1D1B"/>
<path d="M162.912 262.182C159.537 262.181 156.179 261.711 152.934 260.786C152.785 260.74 152.662 260.636 152.59 260.499C152.518 260.361 152.504 260.201 152.55 260.053C152.597 259.905 152.7 259.781 152.838 259.709C152.975 259.637 153.136 259.623 153.284 259.669C153.373 259.701 162.465 262.486 170.79 259.903C170.863 259.88 170.94 259.872 171.016 259.879C171.093 259.886 171.167 259.908 171.235 259.944C171.303 259.98 171.363 260.028 171.412 260.087C171.461 260.147 171.498 260.215 171.521 260.288C171.544 260.361 171.552 260.438 171.545 260.515C171.538 260.591 171.516 260.665 171.48 260.733C171.444 260.801 171.395 260.861 171.336 260.911C171.277 260.96 171.209 260.997 171.136 261.019C168.469 261.817 165.696 262.209 162.912 262.182Z" fill="#1D1D1B"/>
<path d="M151.549 241.105C151.333 241.107 151.123 241.034 150.954 240.899C150.853 240.821 150.769 240.724 150.705 240.613C150.642 240.503 150.602 240.38 150.586 240.254C150.57 240.127 150.579 239.999 150.613 239.876C150.647 239.753 150.704 239.638 150.783 239.538C151.094 239.149 158.664 229.719 176.003 238.114C176.118 238.17 176.221 238.247 176.306 238.343C176.391 238.438 176.456 238.549 176.498 238.67C176.54 238.791 176.557 238.918 176.55 239.046C176.543 239.173 176.51 239.298 176.454 239.413C176.399 239.528 176.321 239.631 176.226 239.716C176.13 239.801 176.019 239.866 175.898 239.908C175.778 239.95 175.65 239.968 175.522 239.96C175.395 239.953 175.27 239.92 175.155 239.864C159.306 232.193 152.592 240.382 152.315 240.736C152.224 240.851 152.107 240.945 151.975 241.009C151.842 241.073 151.696 241.106 151.549 241.105Z" fill="white"/>
<path d="M153.298 251.692C153.081 251.693 152.87 251.621 152.698 251.489C152.527 251.356 152.404 251.17 152.351 250.96C152.297 250.75 152.315 250.528 152.402 250.329C152.489 250.13 152.64 249.966 152.831 249.863C153.154 249.692 160.755 245.662 168.902 249.369C169.018 249.422 169.122 249.498 169.209 249.592C169.297 249.685 169.364 249.795 169.409 249.915C169.453 250.034 169.474 250.162 169.469 250.289C169.465 250.417 169.435 250.543 169.382 250.659C169.329 250.775 169.253 250.88 169.16 250.967C169.066 251.054 168.956 251.122 168.837 251.166C168.717 251.211 168.59 251.231 168.462 251.227C168.334 251.222 168.209 251.193 168.092 251.139C160.853 247.84 153.831 251.528 153.757 251.575C153.616 251.651 153.458 251.691 153.298 251.692Z" fill="white"/>
<path d="M332.517 286.115C332.362 286.127 332.209 286.077 332.091 285.976C331.973 285.875 331.9 285.731 331.888 285.576C331.877 285.422 331.927 285.269 332.028 285.151C332.129 285.033 332.273 284.96 332.427 284.948C338.831 283.948 343.479 281.058 346.234 276.347C353.271 264.338 345.938 244.256 345.864 244.058C345.829 243.984 345.809 243.904 345.806 243.822C345.804 243.74 345.819 243.658 345.85 243.583C345.881 243.507 345.928 243.438 345.987 243.382C346.046 243.325 346.117 243.282 346.194 243.254C346.271 243.227 346.353 243.216 346.435 243.222C346.517 243.229 346.596 243.252 346.668 243.291C346.74 243.331 346.803 243.384 346.853 243.449C346.903 243.514 346.938 243.589 346.957 243.669C347.269 244.513 354.559 264.47 347.245 276.958C344.3 281.984 339.375 285.069 332.606 286.127L332.517 286.115Z" fill="#1D1D1B"/>
<path d="M268.706 37.7923H268.651C268.502 37.7756 268.364 37.7012 268.269 37.5851C268.173 37.4689 268.126 37.32 268.138 37.1698C268.628 32.023 267.492 27.8333 264.765 24.6705C259.988 19.162 251.842 18.7107 251.76 18.7068C251.605 18.6995 251.46 18.6312 251.355 18.5166C251.251 18.4021 251.197 18.2507 251.204 18.096C251.211 17.9412 251.279 17.7957 251.394 17.6914C251.508 17.587 251.66 17.5325 251.814 17.5397C252.168 17.5397 260.529 18.0104 265.64 23.9002C268.589 27.3003 269.818 31.8013 269.297 37.2788C269.281 37.4228 269.211 37.5554 269.101 37.6505C268.992 37.7456 268.851 37.7962 268.706 37.7923Z" fill="#1D1D1B"/>
<defs>
<filter id="filter0_d_2732_20222" x="-4.02115" y="107.785" width="38.6868" height="38.6849" filterUnits="userSpaceOnUse" color-interpolation-filters="sRGB">
<feFlood flood-opacity="0" result="BackgroundImageFix"/>
<feColorMatrix in="SourceAlpha" type="matrix" values="0 0 0 0 0 0 0 0 0 0 0 0 0 0 0 0 0 0 127 0" result="hardAlpha"/>
<feOffset dy="2.03704"/>
<feGaussianBlur stdDeviation="5.09261"/>
<feComposite in2="hardAlpha" operator="out"/>
<feColorMatrix type="matrix" values="0 0 0 0 0 0 0 0 0 0 0 0 0 0 0 0 0 0 0.05 0"/>
<feBlend mode="normal" in2="BackgroundImageFix" result="effect1_dropShadow_2732_20222"/>
<feBlend mode="normal" in="SourceGraphic" in2="effect1_dropShadow_2732_20222" result="shape"/>
</filter>
<filter id="filter1_d_2732_20222" x="370.651" y="165.211" width="38.6868" height="38.6888" filterUnits="userSpaceOnUse" color-interpolation-filters="sRGB">
<feFlood flood-opacity="0" result="BackgroundImageFix"/>
<feColorMatrix in="SourceAlpha" type="matrix" values="0 0 0 0 0 0 0 0 0 0 0 0 0 0 0 0 0 0 127 0" result="hardAlpha"/>
<feOffset dy="2.03704"/>
<feGaussianBlur stdDeviation="5.09261"/>
<feComposite in2="hardAlpha" operator="out"/>
<feColorMatrix type="matrix" values="0 0 0 0 0 0 0 0 0 0 0 0 0 0 0 0 0 0 0.05 0"/>
<feBlend mode="normal" in2="BackgroundImageFix" result="effect1_dropShadow_2732_20222"/>
<feBlend mode="normal" in="SourceGraphic" in2="effect1_dropShadow_2732_20222" result="shape"/>
</filter>
<linearGradient id="paint0_linear_2732_20222" x1="20.4527" y1="112.038" x2="392.051" y2="200.547" gradientUnits="userSpaceOnUse">
<stop stop-color="#CDD5E2"/>
<stop offset="1" stop-color="#CDD5E2" stop-opacity="0"/>
</linearGradient>
<linearGradient id="paint1_linear_2732_20222" x1="391.411" y1="195.438" x2="353.85" y2="294.045" gradientUnits="userSpaceOnUse">
<stop stop-color="#CDD5E2"/>
<stop offset="1" stop-color="#CDD5E2" stop-opacity="0"/>
</linearGradient>
<linearGradient id="paint2_linear_2732_20222" x1="196.502" y1="23.2598" x2="196.502" y2="365.005" gradientUnits="userSpaceOnUse">
<stop stop-color="#CDD5E2"/>
<stop offset="1" stop-color="#CDD5E2" stop-opacity="0"/>
</linearGradient>
<linearGradient id="paint3_linear_2732_20222" x1="196.503" y1="57.4336" x2="196.503" y2="330.83" gradientUnits="userSpaceOnUse">
<stop stop-color="#CDD5E2"/>
<stop offset="1" stop-color="#CDD5E2" stop-opacity="0"/>
</linearGradient>
</defs>
</svg>
