<svg width="406" height="302" viewBox="0 0 406 302" fill="none" xmlns="http://www.w3.org/2000/svg">
<mask id="mask0_2732_19975" style="mask-type:alpha" maskUnits="userSpaceOnUse" x="0" y="0" width="406" height="302">
<rect width="405.823" height="301.875" fill="#D9D9D9"/>
</mask>
<g mask="url(#mask0_2732_19975)">
<g opacity="0.5">
<mask id="path-2-inside-1_2732_19975" fill="white">
<path d="M389.977 202.565C391.993 156.308 377.369 110.86 348.757 74.4588C320.144 38.0574 279.437 13.1119 234.013 4.14415C188.59 -4.82363 141.456 2.77982 101.157 25.5762C60.8571 48.3727 30.0587 84.8533 14.3442 128.405L15.1839 128.708C30.8259 85.357 61.4823 49.0446 101.596 26.3532C141.71 3.66186 188.626 -3.90654 233.84 5.0199C279.055 13.9463 319.574 38.7768 348.055 75.0104C376.535 111.244 391.092 156.483 389.085 202.526L389.977 202.565Z"/>
</mask>
<path d="M389.977 202.565C391.993 156.308 377.369 110.86 348.757 74.4588C320.144 38.0574 279.437 13.1119 234.013 4.14415C188.59 -4.82363 141.456 2.77982 101.157 25.5762C60.8571 48.3727 30.0587 84.8533 14.3442 128.405L15.1839 128.708C30.8259 85.357 61.4823 49.0446 101.596 26.3532C141.71 3.66186 188.626 -3.90654 233.84 5.0199C279.055 13.9463 319.574 38.7768 348.055 75.0104C376.535 111.244 391.092 156.483 389.085 202.526L389.977 202.565Z" stroke="url(#paint0_linear_2732_19975)" stroke-width="2.84788" stroke-dasharray="4.27 4.27" mask="url(#path-2-inside-1_2732_19975)"/>
</g>
<g opacity="0.5">
<mask id="path-3-inside-2_2732_19975" fill="white">
<path d="M14.6043 260.573C30.4892 304.064 61.4301 340.423 101.819 363.062C142.207 385.7 189.37 393.119 234.758 383.974C280.146 374.828 320.756 349.724 349.225 313.211C377.695 276.697 392.141 231.193 389.944 184.944L389.052 184.987C391.239 231.022 376.86 276.317 348.521 312.662C320.183 349.006 279.761 373.995 234.582 383.099C189.403 392.202 142.457 384.817 102.255 362.283C62.0527 339.749 31.2544 303.557 15.4428 260.267L14.6043 260.573Z"/>
</mask>
<path d="M14.6043 260.573C30.4892 304.064 61.4301 340.423 101.819 363.062C142.207 385.7 189.37 393.119 234.758 383.974C280.146 374.828 320.756 349.724 349.225 313.211C377.695 276.697 392.141 231.193 389.944 184.944L389.052 184.987C391.239 231.022 376.86 276.317 348.521 312.662C320.183 349.006 279.761 373.995 234.582 383.099C189.403 392.202 142.457 384.817 102.255 362.283C62.0527 339.749 31.2544 303.557 15.4428 260.267L14.6043 260.573Z" stroke="url(#paint1_linear_2732_19975)" stroke-width="2.84788" stroke-dasharray="4.27 4.27" mask="url(#path-3-inside-2_2732_19975)"/>
</g>
<circle opacity="0.08" cx="196.502" cy="194.132" r="170.873" fill="url(#paint2_linear_2732_19975)"/>
<circle opacity="0.1" cx="196.503" cy="194.132" r="136.698" fill="url(#paint3_linear_2732_19975)"/>
<circle cx="196.503" cy="194.134" r="91.1321" fill="white"/>
<g filter="url(#filter0_d_2732_19975)">
<circle cx="15.3224" cy="125.091" r="7.11969" transform="rotate(-2.50406 15.3224 125.091)" fill="#0170FF"/>
<circle cx="15.3224" cy="125.091" r="8.13822" transform="rotate(-2.50406 15.3224 125.091)" stroke="white" stroke-width="2.03704"/>
</g>
<g filter="url(#filter1_d_2732_19975)">
<circle cx="389.995" cy="182.518" r="7.11969" transform="rotate(-15.7345 389.995 182.518)" fill="#0170FF"/>
<circle cx="389.995" cy="182.518" r="8.13822" transform="rotate(-15.7345 389.995 182.518)" stroke="white" stroke-width="2.03704"/>
</g>
</g>
<path d="M341.849 290.112H67.9103C67.7787 290.112 67.6525 290.059 67.5594 289.966C67.4664 289.873 67.4141 289.747 67.4141 289.615C67.4141 289.484 67.4664 289.357 67.5594 289.264C67.6525 289.171 67.7787 289.119 67.9103 289.119H341.849C341.98 289.119 342.106 289.171 342.2 289.264C342.293 289.357 342.345 289.484 342.345 289.615C342.345 289.747 342.293 289.873 342.2 289.966C342.106 290.059 341.98 290.112 341.849 290.112Z" fill="black"/>
<path d="M358.762 300H325.02C324.888 300 324.762 299.948 324.669 299.855C324.576 299.762 324.523 299.636 324.523 299.504C324.523 299.372 324.576 299.246 324.669 299.153C324.762 299.06 324.888 299.008 325.02 299.008H358.762C358.893 299.008 359.019 299.06 359.112 299.153C359.206 299.246 359.258 299.372 359.258 299.504C359.258 299.636 359.206 299.762 359.112 299.855C359.019 299.948 358.893 300 358.762 300Z" fill="black"/>
<path d="M78.569 280.483H44.4962C44.3646 280.483 44.2384 280.43 44.1454 280.337C44.0523 280.244 44 280.118 44 279.986C44 279.855 44.0523 279.729 44.1454 279.636C44.2384 279.543 44.3646 279.49 44.4962 279.49H78.569C78.7006 279.49 78.8268 279.543 78.9198 279.636C79.0129 279.729 79.0652 279.855 79.0652 279.986C79.0652 280.118 79.0129 280.244 78.9198 280.337C78.8268 280.43 78.7006 280.483 78.569 280.483Z" fill="black"/>
<path d="M80.4836 83.3256C80.4595 83.3288 80.4351 83.3288 80.4109 83.3256C80.3465 83.3163 80.2846 83.2943 80.2287 83.261C80.1729 83.2276 80.124 83.1835 80.0853 83.1312C80.0465 83.079 80.0186 83.0195 80.0029 82.9563C79.9873 82.8932 79.984 82.8275 79.9939 82.7632C81.3469 73.7323 87.4336 67.576 92.3031 63.9967C95.4683 61.6557 98.9388 59.7581 102.618 58.3565C102.742 58.3126 102.878 58.3198 102.997 58.3766C103.116 58.4334 103.207 58.5351 103.251 58.6592C103.295 58.7833 103.288 58.9198 103.231 59.0386C103.174 59.1574 103.073 59.2488 102.949 59.2927C102.757 59.3589 83.4774 66.2594 80.9798 82.9087C80.9615 83.0265 80.9011 83.1335 80.8099 83.2102C80.7187 83.2868 80.6027 83.3278 80.4836 83.3256Z" fill="black"/>
<path d="M85.7555 95.7628L80.9388 95.1442C80.0976 95.0352 79.2435 95.1938 78.4975 95.5974L74.2268 97.913C73.667 98.217 73.0432 98.3843 72.4064 98.4014C71.7696 98.4185 71.1381 98.2849 70.5628 98.0114C69.9874 97.7379 69.4846 97.3323 69.0958 96.8278C68.707 96.3232 68.4431 95.7339 68.3253 95.1078L67.4256 90.3343C67.2684 89.501 66.853 88.7383 66.2381 88.1543L62.7181 84.8066C62.2567 84.3675 61.9053 83.8258 61.6928 83.2253C61.4802 82.6249 61.4125 81.9828 61.4951 81.3512C61.5776 80.7196 61.8083 80.1165 62.168 79.5908C62.5276 79.0652 63.0064 78.6318 63.5652 78.3261L67.8223 76.0105C68.5685 75.6037 69.1674 74.9715 69.5329 74.2043L71.6266 69.8245C71.9019 69.25 72.3091 68.7485 72.8147 68.361C73.3203 67.9734 73.9103 67.7106 74.5366 67.5939C75.1629 67.4772 75.8078 67.51 76.419 67.6895C77.0303 67.869 77.5906 68.1902 78.0543 68.627L81.5839 71.9581C82.2024 72.5406 82.988 72.9144 83.8301 73.0267L88.64 73.6651C89.2718 73.7481 89.8749 73.9793 90.4003 74.3398C90.9257 74.7003 91.3583 75.1799 91.6631 75.7395C91.9679 76.2991 92.1363 76.9227 92.1542 77.5597C92.172 78.1966 92.0391 78.8287 91.7662 79.4045L89.6919 83.7943C89.3263 84.5597 89.2106 85.4207 89.3611 86.2555L90.2411 91.0323C90.3534 91.6569 90.3171 92.2991 90.1354 92.9071C89.9537 93.5152 89.6317 94.0718 89.195 94.5323C88.7584 94.9928 88.2193 95.3442 87.6218 95.5579C87.0243 95.7717 86.3852 95.8419 85.7555 95.7628Z" fill="white"/>
<path d="M75.2848 67.5094C76.3149 67.5076 77.3063 67.902 78.0536 68.611L81.5833 71.9422C82.2017 72.5247 82.9874 72.8984 83.8294 73.0107L88.6393 73.6491C89.2711 73.7322 89.8742 73.9633 90.3996 74.3238C90.925 74.6843 91.3577 75.1639 91.6624 75.7235C91.9672 76.2831 92.1356 76.9068 92.1535 77.5437C92.1714 78.1807 92.0384 78.8128 91.7655 79.3886L89.6912 83.7784C89.3256 84.5438 89.2099 85.4048 89.3604 86.2395L90.2404 91.0163C90.348 91.5992 90.3261 92.1986 90.1764 92.7722C90.0268 93.3457 89.753 93.8794 89.3743 94.3354C88.9956 94.7914 88.5215 95.1586 87.9852 95.4111C87.4489 95.6636 86.8635 95.7951 86.2707 95.7964C86.0949 95.7951 85.9194 95.7841 85.7448 95.7634L80.9281 95.1448C80.757 95.1222 80.5848 95.1111 80.4122 95.1116C79.74 95.1114 79.0783 95.2786 78.4868 95.598L74.2161 97.9136C73.6271 98.2369 72.9662 98.4064 72.2943 98.4065C71.3507 98.4046 70.4374 98.0729 69.7125 97.4688C68.9876 96.8647 68.4967 96.0263 68.3246 95.0985L67.4249 90.3249C67.2677 89.4916 66.8523 88.729 66.2374 88.145L62.7174 84.7972C62.256 84.3582 61.9046 83.8164 61.6921 83.216C61.4796 82.6155 61.4118 81.9734 61.4944 81.3419C61.5769 80.7103 61.8076 80.1071 62.1673 79.5815C62.527 79.0558 63.0057 78.6225 63.5645 78.3168L67.8216 76.0012C68.5678 75.5944 69.1667 74.9622 69.5322 74.1949L71.6259 69.8151C71.9548 69.1242 72.4734 68.5413 73.1213 68.1342C73.7691 67.7271 74.5196 67.5127 75.2848 67.516V67.5094ZM75.2848 66.5236C74.3316 66.5181 73.3968 66.7849 72.5899 67.2923C71.783 67.7998 71.1374 68.5269 70.7294 69.3884L68.6357 73.7683C68.36 74.3471 67.9083 74.8241 67.3455 75.1311L63.088 77.4468C62.3924 77.8278 61.7964 78.3676 61.3487 79.0224C60.9009 79.6771 60.6142 80.4282 60.5113 81.2147C60.4085 82.0011 60.4925 82.8008 60.7569 83.5486C61.0212 84.2964 61.4583 84.9712 62.0326 85.5183L65.5525 88.8628C66.0187 89.3055 66.3326 89.8846 66.449 90.5168L67.3487 95.287C67.4944 96.0673 67.8226 96.8022 68.3065 97.4314C68.7905 98.0606 69.4165 98.5664 70.1334 98.9074C70.8502 99.2484 71.6377 99.4149 72.4313 99.3934C73.2248 99.3719 74.0017 99.1629 74.6991 98.7836L78.9698 96.468C79.4157 96.2265 79.9151 96.1003 80.4222 96.1008C80.5527 96.1003 80.683 96.108 80.8125 96.1239L85.6256 96.7426C85.8449 96.7719 86.066 96.7862 86.2872 96.7855C87.0254 96.7838 87.7544 96.6198 88.4223 96.3052C89.0901 95.9907 89.6807 95.5332 90.1522 94.9651C90.6237 94.3971 90.9646 93.7323 91.1507 93.0179C91.3369 92.3036 91.3638 91.557 91.2296 90.8311L90.3496 86.0576C90.2323 85.4276 90.3181 84.7766 90.5944 84.1984L92.6684 79.8087C93.0076 79.0917 93.1728 78.3048 93.1504 77.5119C93.128 76.7191 92.9187 75.9427 92.5395 75.246C92.1604 74.5493 91.6221 73.952 90.9685 73.5026C90.3149 73.0533 89.5645 72.7646 88.7783 72.66L83.9651 72.0216C83.33 71.9388 82.7372 71.6574 82.2714 71.2177L78.7382 67.8866C77.8075 67.0042 76.5737 66.5128 75.2912 66.5137L75.2848 66.5236Z" fill="black"/>
<path d="M74.0518 79.908H74.0221C73.9569 79.9042 73.8932 79.8876 73.8344 79.8591C73.7757 79.8306 73.723 79.7907 73.6797 79.7419C73.6363 79.693 73.6031 79.636 73.5818 79.5743C73.5605 79.5125 73.5516 79.4473 73.5556 79.3821C74.0948 70.0137 82.385 57.066 98.1908 40.903C105.655 33.3233 113.524 26.1531 121.764 19.4239C121.866 19.3414 121.998 19.3031 122.129 19.3174C122.259 19.3316 122.379 19.3973 122.462 19.5C122.544 19.6026 122.582 19.7338 122.568 19.8647C122.554 19.9956 122.488 20.1155 122.386 20.1979C121.919 20.5717 75.8052 57.6185 74.5448 79.4416C74.538 79.5677 74.4831 79.6863 74.3914 79.7731C74.2997 79.8599 74.1781 79.9082 74.0518 79.908Z" fill="black"/>
<path d="M189.988 60.829C189.988 47.0874 204.831 35.9492 223.141 35.9492C241.451 35.9492 256.294 47.0874 256.294 60.829C256.294 74.5705 241.451 85.712 223.141 85.712C220.902 85.713 218.666 85.5438 216.453 85.2059L208.933 92.5001L207.173 82.6388C196.928 78.4012 189.988 70.2238 189.988 60.829Z" fill="#07ACEE"/>
<path d="M208.933 92.9925C208.817 92.9902 208.706 92.9483 208.616 92.8737C208.527 92.7991 208.467 92.6963 208.444 92.5823L206.73 82.989C196.092 78.5 189.492 70.0314 189.492 60.8252C189.492 46.8322 204.587 35.4492 223.141 35.4492C241.696 35.4492 256.791 46.8322 256.791 60.8252C256.791 74.8182 241.696 86.2044 223.141 86.2044C220.959 86.206 218.78 86.0468 216.621 85.7281L209.281 92.8503C209.188 92.9408 209.063 92.9917 208.933 92.9925ZM223.158 36.4416C205.152 36.4416 190.501 47.3813 190.501 60.8252C190.501 69.694 196.968 77.8748 207.372 82.1786C207.449 82.2099 207.517 82.2604 207.569 82.3252C207.621 82.39 207.656 82.4671 207.67 82.549L209.267 91.4807L216.115 84.8349C216.17 84.7824 216.237 84.7432 216.31 84.7203C216.383 84.6974 216.46 84.6913 216.535 84.7025C218.725 85.0356 220.937 85.2026 223.151 85.2021C241.16 85.2021 255.808 74.2624 255.808 60.8152C255.808 47.3681 241.157 36.4416 223.141 36.4416H223.158Z" fill="black"/>
<path d="M234.31 46.7102C234.245 46.7124 234.18 46.7016 234.119 46.6787C234.058 46.6558 234.002 46.6211 233.954 46.5765C233.907 46.532 233.868 46.4785 233.841 46.4191C233.814 46.3598 233.799 46.2957 233.797 46.2306C233.795 46.1654 233.806 46.1004 233.828 46.0394C233.851 45.9784 233.886 45.9224 233.931 45.8748C233.975 45.8272 234.029 45.7888 234.088 45.7619C234.148 45.7349 234.212 45.72 234.277 45.7178C248.098 44.7948 259.276 37.1169 266.216 30.8316C270.714 26.7886 274.712 22.2219 278.125 17.2289C278.196 17.118 278.308 17.0398 278.437 17.0115C278.566 16.9833 278.7 17.0074 278.811 17.0785C278.922 17.1495 279.001 17.2617 279.029 17.3905C279.057 17.5192 279.033 17.6539 278.962 17.7649C275.505 22.8219 271.458 27.4494 266.907 31.5494C259.845 37.9472 248.462 45.774 234.346 46.7135L234.31 46.7102Z" fill="black"/>
<path d="M250.916 57.5216C250.102 57.5216 249.267 57.4808 248.411 57.3992C248.346 57.3929 248.283 57.3739 248.225 57.3431C248.167 57.3124 248.116 57.2705 248.074 57.22C248.033 57.1694 248.002 57.1112 247.983 57.0486C247.964 56.986 247.957 56.9202 247.963 56.8551C247.97 56.7899 247.988 56.7266 248.019 56.6688C248.05 56.6111 248.092 56.5598 248.142 56.5182C248.193 56.4766 248.251 56.4454 248.314 56.4262C248.376 56.4071 248.442 56.4005 248.507 56.4068C264.287 57.945 272.563 43.9652 272.656 43.8362C272.722 43.7222 272.83 43.639 272.957 43.6048C273.085 43.5707 273.22 43.5885 273.334 43.6544C273.448 43.7202 273.532 43.8286 273.566 43.9558C273.6 44.0829 273.582 44.2184 273.516 44.3324C273.427 44.4714 265.706 57.5216 250.916 57.5216Z" fill="black"/>
<path d="M234.21 74.4876C234.043 74.4876 233.879 74.4518 233.728 74.3827C233.577 74.3137 233.442 74.213 233.333 74.0874L213.654 51.4108C213.548 51.297 213.466 51.1632 213.413 51.0172C213.36 50.8712 213.337 50.7161 213.345 50.5611C213.354 50.406 213.393 50.2542 213.461 50.1147C213.529 49.9752 213.625 49.8508 213.742 49.7489C213.859 49.647 213.996 49.5698 214.143 49.5217C214.291 49.4737 214.447 49.4558 214.601 49.4691C214.756 49.4825 214.906 49.527 215.044 49.5997C215.181 49.6724 215.302 49.7719 215.4 49.8923L235.083 72.569C235.227 72.737 235.321 72.9429 235.353 73.1624C235.384 73.3819 235.352 73.6057 235.26 73.8075C235.168 74.0093 235.02 74.1806 234.834 74.3012C234.648 74.4217 234.431 74.4864 234.21 74.4876Z" fill="white"/>
<path d="M214.527 72.7741C214.301 72.7751 214.079 72.7097 213.89 72.586C213.701 72.4623 213.552 72.2857 213.462 72.0782C213.372 71.8707 213.345 71.6414 213.385 71.4187C213.424 71.196 213.528 70.9898 213.684 70.8256L233.366 49.8593C233.579 49.6463 233.866 49.5245 234.167 49.5197C234.468 49.5149 234.759 49.6274 234.978 49.8334C235.198 50.0395 235.328 50.3228 235.342 50.6234C235.356 50.924 235.253 51.2182 235.053 51.4438L215.371 72.4102C215.262 72.5252 215.132 72.6168 214.986 72.6793C214.841 72.7419 214.685 72.7742 214.527 72.7741Z" fill="white"/>
<path d="M58.5888 232.435C58.4899 232.435 58.3935 232.405 58.3116 232.35C58.2297 232.294 58.166 232.216 58.1291 232.124C48.3009 207.71 49.4752 189.513 52.1911 178.534C55.1452 166.625 60.362 160.571 60.5836 160.319C60.6271 160.271 60.6798 160.231 60.7387 160.202C60.7975 160.174 60.8614 160.157 60.9267 160.153C60.992 160.149 61.0571 160.158 61.1189 160.18C61.1807 160.201 61.2377 160.235 61.2866 160.278C61.3355 160.322 61.3753 160.374 61.4038 160.433C61.4324 160.492 61.4491 160.556 61.4529 160.621C61.4568 160.686 61.4476 160.752 61.4261 160.814C61.4047 160.875 61.3714 160.932 61.3279 160.981C61.275 161.041 56.0351 167.134 53.1405 178.845C50.4743 189.658 49.3364 207.624 59.0488 231.75C59.0752 231.811 59.0891 231.877 59.0895 231.944C59.0899 232.011 59.0767 232.077 59.0511 232.139C59.0255 232.2 58.9878 232.256 58.9403 232.303C58.8927 232.35 58.8363 232.387 58.7742 232.412C58.7144 232.431 58.6514 232.438 58.5888 232.435Z" fill="black"/>
<path d="M252.607 118.959C205.877 125.76 219.628 130.345 168.165 106.98C139.342 93.8937 102.802 104.91 89.7913 134.768C80.4858 156.125 55.4804 168.179 58.7355 202.497C64.5577 263.897 104.429 289.008 104.429 289.008L281.615 286.054L252.607 118.959Z" fill="#382256"/>
<path d="M142.825 101.542C151.563 101.529 160.202 103.383 168.165 106.981C197.236 120.18 205.496 124.46 215.602 124.46C223.389 124.46 232.271 121.92 252.606 118.959L281.614 286.068L104.429 289.022C104.429 289.022 64.5571 263.911 58.7349 202.51C55.4798 168.202 80.4852 156.138 89.7907 134.781C99.1591 113.279 120.721 101.539 142.825 101.542ZM142.825 100.55C131.631 100.502 120.637 103.509 111.025 109.247C101.204 115.113 93.463 123.904 88.8846 134.388C85.8279 141.411 81.084 147.358 76.0624 153.654C71.1003 159.876 65.9696 166.31 62.3605 174.071C58.2751 182.867 56.7667 192.202 57.7525 202.609C59.0757 216.711 62.3439 230.066 67.4217 242.306C71.4034 251.972 76.6302 261.076 82.9695 269.389C93.6512 283.322 103.479 289.594 103.893 289.855C104.051 289.955 104.235 290.008 104.422 290.008L281.607 287.054C281.751 287.051 281.891 287.017 282.02 286.955C282.149 286.893 282.263 286.804 282.354 286.693C282.445 286.583 282.511 286.454 282.548 286.316C282.585 286.178 282.591 286.033 282.567 285.892L253.559 118.784C253.519 118.553 253.399 118.345 253.221 118.194C253.042 118.043 252.816 117.96 252.583 117.96C252.535 117.957 252.488 117.957 252.441 117.96C244.118 119.171 237.683 120.319 232.513 121.238C225.037 122.561 220.098 123.451 215.579 123.451C206.7 123.451 199.138 120.001 176.693 109.766L168.552 106.061C160.456 102.417 151.68 100.532 142.802 100.533L142.825 100.55Z" fill="black"/>
<path d="M134.898 289.318C134.898 289.318 174.512 231.332 254.683 230.766C337.198 230.174 328.621 289.917 328.621 289.917L134.898 289.318Z" fill="#07ACEE"/>
<path d="M328.62 290.406L134.898 289.814C134.808 289.814 134.72 289.789 134.642 289.743C134.565 289.696 134.502 289.63 134.46 289.55C134.418 289.471 134.398 289.381 134.403 289.291C134.408 289.201 134.437 289.115 134.488 289.04C134.587 288.894 144.67 274.306 164.432 259.853C175.946 251.415 188.581 244.623 201.972 239.674C218.601 233.554 236.332 230.382 254.679 230.253C283.674 230.038 304.693 237.2 317.201 251.504C332.011 268.471 329.156 289.758 329.126 289.969C329.11 290.092 329.05 290.204 328.957 290.285C328.863 290.366 328.743 290.409 328.62 290.406ZM135.864 288.825L328.18 289.414C328.511 286.347 329.794 267.455 316.43 252.155C304.134 238.08 283.349 231.057 254.685 231.255C213.404 231.55 183.139 247.405 165.037 260.654C147.984 273.108 138.213 285.636 135.864 288.825Z" fill="black"/>
<path d="M237.102 231.82C237.102 231.82 226.145 247.107 240.41 252.095C254.674 257.084 267.393 245.251 267.393 245.251C267.393 245.251 270.056 259.446 292.237 254.418C314.417 249.389 293.523 235.741 293.523 235.741C293.523 235.741 273.649 227.854 237.102 231.82Z" fill="white"/>
<path d="M283.47 256.003C279.116 256.003 275.47 255.05 272.576 253.148C270.015 251.499 268.092 249.028 267.121 246.141C264.385 248.404 252.857 256.972 240.247 252.566C236.413 251.243 233.985 249.023 233.035 246.022C231.001 239.592 236.462 231.861 236.697 231.533C236.738 231.477 236.79 231.429 236.851 231.395C236.911 231.36 236.978 231.338 237.048 231.331C273.297 227.398 293.509 235.205 293.708 235.301C293.739 235.313 293.769 235.327 293.797 235.344C294.211 235.615 303.923 242.036 302.858 247.954C302.289 251.127 298.753 253.472 292.351 254.921C289.44 255.609 286.461 255.972 283.47 256.003ZM267.396 244.755C267.512 244.754 267.625 244.793 267.715 244.867C267.804 244.941 267.865 245.045 267.885 245.159C268.677 248.123 270.553 250.681 273.142 252.327C277.594 255.242 283.982 255.781 292.13 253.935C298.107 252.579 301.392 250.501 301.882 247.759C302.798 242.665 293.989 236.647 293.281 236.181C292.189 235.767 272.364 228.53 237.375 232.284C236.578 233.472 232.251 240.273 233.975 245.721C234.825 248.404 237.044 250.392 240.567 251.623C242.829 252.414 245.208 252.816 247.604 252.811C258.371 252.811 266.949 244.98 267.051 244.871C267.148 244.791 267.27 244.749 267.396 244.755Z" fill="black"/>
<path d="M317.564 140.733C331.829 140.733 343.393 129.168 343.393 114.903C343.393 100.638 331.829 89.0742 317.564 89.0742C303.299 89.0742 291.734 100.638 291.734 114.903C291.734 129.168 303.299 140.733 317.564 140.733Z" fill="#382256"/>
<path d="M317.576 89.0744C324.359 89.0882 330.866 91.7704 335.688 96.5414C340.511 101.312 343.263 107.789 343.35 114.573C343.437 121.356 340.852 127.901 336.153 132.794C331.454 137.687 325.019 140.535 318.237 140.723C318.006 140.723 317.774 140.723 317.543 140.723C310.759 140.709 304.252 138.027 299.429 133.256C294.607 128.485 291.855 122.008 291.768 115.225C291.681 108.441 294.266 101.896 298.965 97.003C303.664 92.11 310.1 89.262 316.881 89.0744C317.113 89.0744 317.344 89.0744 317.576 89.0744ZM317.576 88.082C317.337 88.082 317.093 88.082 316.855 88.082C309.81 88.2735 303.123 91.23 298.241 96.3123C293.358 101.395 290.673 108.194 290.764 115.241C290.855 122.288 293.716 129.016 298.728 133.97C303.741 138.924 310.502 141.706 317.549 141.715H318.27C325.315 141.524 332.001 138.568 336.883 133.486C341.766 128.404 344.452 121.604 344.361 114.558C344.27 107.511 341.41 100.783 336.398 95.8291C331.386 90.8747 324.626 88.0918 317.579 88.082H317.576Z" fill="black"/>
<path d="M218.08 156.759C218.08 156.759 208.487 134.999 222.275 123.679C236.062 112.359 239.278 115.409 246.155 108.955C253.033 102.501 271.009 101.254 282.213 111.135C282.213 111.135 304.016 106.642 316.825 117.268C329.634 127.893 331.446 137.238 330.232 150.58C329.018 163.921 330.771 170.924 330.232 180.332C329.693 189.74 324.007 214.2 285.336 215.986C246.665 217.773 218.08 156.759 218.08 156.759Z" fill="#382256"/>
<path d="M261.997 103.921C268.911 103.921 276.467 106.058 282.236 111.139C285.789 110.496 289.393 110.181 293.004 110.196C300.328 110.196 309.908 111.519 316.848 117.272C329.657 127.894 331.47 137.243 330.255 150.584C329.041 163.925 330.795 170.929 330.255 180.337C329.716 189.745 324.03 214.204 285.359 215.991C284.8 216.017 284.241 216.03 283.688 216.03C245.864 216.03 218.083 156.77 218.083 156.77C218.083 156.77 208.49 135.01 222.278 123.69C236.066 112.37 239.281 115.42 246.159 108.966C249.5 105.836 255.461 103.928 261.994 103.928L261.997 103.921ZM261.994 102.935C255.2 102.935 249.027 104.92 245.481 108.228C242.55 110.977 240.323 111.92 237.508 113.111C233.902 114.636 229.41 116.538 221.646 122.909C215.738 127.762 213.101 135.248 214.018 144.563C214.461 148.893 215.524 153.136 217.174 157.164V157.184C222.396 167.732 228.674 177.723 235.91 187.006C242.748 195.683 249.804 202.603 256.9 207.575C265.831 213.84 274.843 217.016 283.678 217.016C284.247 217.016 284.826 217.016 285.395 216.976C302.359 216.192 314.963 211.022 322.859 201.654C329.548 193.714 330.98 184.918 331.238 180.386C331.466 176.354 331.281 172.778 331.086 168.977C330.814 163.727 330.537 158.298 331.231 150.667C331.936 142.906 331.489 137.491 329.733 132.569C327.692 126.856 323.779 121.748 317.47 116.501C310.192 110.464 300.139 109.197 292.991 109.197C289.479 109.19 285.973 109.481 282.511 110.067C277.079 105.456 269.811 102.922 261.984 102.922L261.994 102.935Z" fill="black"/>
<path d="M252.841 213.702L243.291 231.201C243.291 231.201 258.673 253.087 288.128 234.417C288.128 234.417 283.318 223.295 286.011 194.816C286.011 194.816 298.631 198.399 302.253 187.34C305.875 176.281 298.67 170.211 292.412 170.377C292.412 170.377 266.652 173.403 268.481 124.031C268.481 124.031 244.144 121.54 228.97 139.949C213.796 158.358 205.09 184.426 217.24 199.765C229.39 215.105 252.841 213.702 252.841 213.702Z" fill="#FFCDB2"/>
<path d="M265.494 123.918C267.376 123.918 268.471 124.031 268.471 124.031C266.843 168.028 287.102 170.413 291.548 170.413C291.833 170.415 292.118 170.403 292.402 170.376H292.65C298.849 170.376 305.819 176.433 302.243 187.343C300.046 194.055 294.532 195.372 290.539 195.372C289.009 195.377 287.484 195.191 286 194.819C283.308 223.298 288.118 234.42 288.118 234.42C279.308 240.001 271.759 241.959 265.504 241.959C250.839 241.959 243.28 231.204 243.28 231.204L252.831 213.705C252.831 213.705 252.272 213.738 251.279 213.738C245.847 213.738 227.501 212.746 217.23 199.768C205.079 184.429 213.786 158.361 228.96 139.952C240.902 125.463 258.524 123.922 265.484 123.922L265.494 123.918ZM265.484 122.929C258.335 122.929 240.389 124.527 228.192 139.32C220.194 149.03 214.401 160.201 211.884 170.783C209.029 182.771 210.61 193.01 216.452 200.384C226.909 213.586 245.47 214.711 251.14 214.73L242.411 230.728C242.322 230.891 242.28 231.075 242.291 231.259C242.302 231.444 242.364 231.622 242.47 231.773C242.553 231.889 244.498 234.632 248.312 237.397C253.314 241.023 259.336 242.971 265.514 242.961C272.818 242.961 280.605 240.371 288.67 235.267C288.869 235.14 289.017 234.947 289.087 234.722C289.157 234.496 289.144 234.253 289.05 234.036C289.004 233.93 284.505 223.017 286.907 196.04C288.107 196.26 289.325 196.37 290.546 196.371C296.861 196.371 301.353 193.278 303.192 187.661C304.899 182.457 304.439 177.664 301.902 174.164C300.837 172.705 299.447 171.514 297.842 170.686C296.238 169.857 294.462 169.414 292.656 169.39H292.382H292.292C292.292 169.39 292.021 169.42 291.555 169.42C289.457 169.42 284.052 168.865 279.09 163.714C272.004 156.36 268.766 143.022 269.467 124.067C269.477 123.815 269.39 123.569 269.225 123.378C269.059 123.188 268.828 123.067 268.577 123.042C268.531 123.042 267.403 122.926 265.491 122.926L265.484 122.929Z" fill="black"/>
<path d="M288.992 189.752C288.884 189.751 288.78 189.715 288.694 189.649C288.609 189.584 288.547 189.492 288.518 189.388C288.489 189.284 288.495 189.174 288.535 189.073C288.574 188.973 288.646 188.888 288.738 188.832C292.535 186.559 294.487 184.155 294.54 181.677C294.613 178.141 290.736 175.55 290.696 175.527C290.591 175.453 290.518 175.341 290.494 175.215C290.47 175.088 290.495 174.958 290.566 174.85C290.636 174.742 290.746 174.666 290.871 174.637C290.997 174.609 291.128 174.63 291.238 174.697C291.417 174.813 295.615 177.605 295.539 181.69C295.483 184.535 293.365 187.224 289.254 189.682C289.175 189.73 289.084 189.754 288.992 189.752Z" fill="black"/>
<path d="M251.351 154.392C262.201 162.09 280.568 163.797 281.498 169.255C282.427 174.713 277.859 179.53 270.769 178.15C263.68 176.771 257.345 173.807 244.636 167.095C231.926 160.383 219.988 152.87 224.52 146.486C229.052 140.101 235.393 143.068 251.351 154.392Z" fill="#FFB49F"/>
<path d="M253.261 214.376C252.772 214.376 252.269 214.359 251.802 214.323C251.671 214.314 251.548 214.253 251.462 214.153C251.375 214.054 251.332 213.924 251.341 213.792C251.35 213.661 251.411 213.538 251.511 213.451C251.611 213.365 251.74 213.321 251.872 213.331C259.057 213.847 267.562 209.993 267.648 209.956C267.708 209.924 267.773 209.904 267.841 209.898C267.909 209.892 267.977 209.9 268.041 209.922C268.106 209.943 268.165 209.978 268.216 210.023C268.266 210.069 268.307 210.124 268.335 210.186C268.363 210.247 268.379 210.314 268.38 210.382C268.382 210.45 268.37 210.517 268.344 210.58C268.318 210.643 268.28 210.7 268.231 210.748C268.183 210.795 268.125 210.832 268.062 210.856C267.727 211.012 260.301 214.376 253.261 214.376Z" fill="black"/>
<path d="M235.386 141.447C235.274 141.447 235.166 141.409 235.078 141.34C234.991 141.27 234.929 141.174 234.904 141.065C234.878 140.956 234.89 140.842 234.937 140.741C234.984 140.64 235.064 140.558 235.164 140.508C237.946 139.252 241.035 138.838 244.049 139.317C244.114 139.328 244.175 139.351 244.23 139.386C244.286 139.42 244.334 139.465 244.372 139.519C244.409 139.572 244.436 139.632 244.451 139.695C244.465 139.759 244.467 139.825 244.456 139.889C244.433 140.018 244.36 140.133 244.253 140.209C244.146 140.285 244.014 140.316 243.884 140.296C241.079 139.866 238.21 140.247 235.614 141.394C235.543 141.431 235.465 141.449 235.386 141.447Z" fill="black"/>
<path d="M282.424 162.833C282.316 162.833 282.211 162.798 282.125 162.733C282.039 162.668 281.977 162.576 281.947 162.473C281.875 162.221 280.111 156.313 274.736 156.518C274.605 156.521 274.479 156.473 274.383 156.384C274.287 156.295 274.23 156.172 274.223 156.042C274.22 155.977 274.23 155.911 274.252 155.85C274.275 155.788 274.309 155.732 274.353 155.684C274.398 155.636 274.451 155.597 274.51 155.57C274.57 155.543 274.634 155.528 274.699 155.526C280.872 155.284 282.88 162.122 282.9 162.191C282.937 162.316 282.923 162.451 282.861 162.566C282.799 162.68 282.694 162.766 282.569 162.803C282.523 162.821 282.474 162.831 282.424 162.833Z" fill="black"/>
<path d="M293.93 169.911C290.363 169.911 286.652 169.368 283.397 167.787C283.278 167.729 283.188 167.627 283.144 167.503C283.101 167.378 283.11 167.242 283.167 167.124C283.225 167.005 283.327 166.914 283.451 166.871C283.575 166.828 283.712 166.836 283.83 166.894C293.652 171.667 308.442 166.401 308.588 166.345C308.65 166.317 308.717 166.303 308.786 166.303C308.854 166.303 308.921 166.316 308.984 166.344C309.047 166.371 309.103 166.41 309.149 166.46C309.196 166.51 309.232 166.569 309.255 166.633C309.278 166.697 309.287 166.766 309.282 166.834C309.277 166.902 309.258 166.968 309.227 167.029C309.195 167.089 309.152 167.142 309.099 167.185C309.046 167.228 308.984 167.259 308.918 167.277C308.505 167.433 301.548 169.911 293.93 169.911Z" fill="black"/>
<path d="M238.399 173.768C238.302 173.768 238.208 173.74 238.127 173.687C238.046 173.634 237.983 173.559 237.944 173.471C237.905 173.382 237.893 173.284 237.909 173.189C237.925 173.094 237.969 173.005 238.035 172.935L252.637 157.142C252.677 157.084 252.729 157.035 252.789 156.998C252.85 156.962 252.918 156.939 252.988 156.931C253.058 156.923 253.13 156.93 253.197 156.952C253.264 156.973 253.326 157.009 253.379 157.057C253.431 157.104 253.472 157.163 253.5 157.228C253.528 157.293 253.542 157.363 253.541 157.434C253.539 157.504 253.523 157.574 253.493 157.638C253.462 157.702 253.418 157.758 253.364 157.804L238.762 173.596C238.717 173.649 238.662 173.691 238.599 173.721C238.536 173.751 238.468 173.767 238.399 173.768Z" fill="black"/>
<path d="M237 155.917C238.526 155.917 239.763 154.68 239.763 153.155C239.763 151.629 238.526 150.393 237 150.393C235.475 150.393 234.238 151.629 234.238 153.155C234.238 154.68 235.475 155.917 237 155.917Z" fill="black"/>
<path d="M264.094 171.114C265.62 171.114 266.856 169.878 266.856 168.352C266.856 166.827 265.62 165.59 264.094 165.59C262.569 165.59 261.332 166.827 261.332 168.352C261.332 169.878 262.569 171.114 264.094 171.114Z" fill="black"/>
<path d="M122.324 289.169C122.324 272.688 128.219 270.918 105.146 257.742C82.0722 244.566 65.5918 211.599 91.9602 218.188C91.9602 218.188 98.5528 205.006 111.739 218.188C111.739 218.188 115.047 201.708 128.219 211.599C141.392 221.49 151.293 244.56 151.293 244.56C151.293 244.56 174.367 228.079 187.549 228.079C200.732 228.079 200.735 237.967 187.549 244.56C174.363 251.153 169.901 275.986 173.195 289.179L122.324 289.169Z" fill="#FFCDB2"/>
<path d="M120.592 208.429C122.66 208.429 125.177 209.306 128.221 211.589C141.403 221.476 151.294 244.55 151.294 244.55C151.294 244.55 174.368 228.069 187.551 228.069C200.733 228.069 200.736 237.957 187.551 244.55C174.365 251.143 169.902 275.976 173.197 289.169H122.326C122.326 272.688 128.221 270.918 105.147 257.742C84.1345 245.738 68.5932 217.328 85.8943 217.328C87.9439 217.369 89.9813 217.657 91.9615 218.188C91.9615 218.188 94.8922 212.33 100.751 212.33C103.682 212.33 107.344 213.795 111.74 218.188C111.74 218.188 113.689 208.439 120.592 208.439V208.429ZM120.592 207.447C114.774 207.447 112.163 213.335 111.214 216.319C107.575 213.011 104.059 211.337 100.751 211.337C95.5571 211.337 92.5071 215.386 91.4882 217.05C89.6611 216.607 87.7908 216.368 85.9111 216.336C80.3039 216.336 78.3852 219.121 77.7666 221.46C76.5989 225.86 78.9905 232.641 84.333 240.068C89.6754 247.494 97.1121 254.292 104.671 258.593C122.763 268.93 122.534 271.735 121.76 281.031C121.568 283.347 121.35 285.96 121.35 289.165C121.35 289.429 121.454 289.681 121.64 289.867C121.827 290.053 122.079 290.158 122.342 290.158H173.213C173.364 290.158 173.512 290.123 173.648 290.057C173.783 289.991 173.902 289.895 173.994 289.777C174.087 289.658 174.152 289.52 174.183 289.373C174.214 289.226 174.212 289.073 174.176 288.927C172.522 282.311 172.902 273.006 175.168 264.643C177.752 255.106 182.314 248.281 188.01 245.433C195.255 241.811 199.294 236.753 198.302 232.532C197.481 229.055 193.568 227.064 187.567 227.064C175.632 227.064 156.355 239.843 151.724 243.035C150.798 241.01 148.625 236.449 145.571 231.262C140.037 221.85 134.407 214.96 128.833 210.782C125.856 208.552 123.093 207.424 120.609 207.424L120.592 207.447Z" fill="black"/>
<path d="M151.291 257.731C151.291 257.731 148.5 244.952 123.359 246.137C111.75 240.414 101.185 230.996 91.6641 217.883" fill="#FFCDB2"/>
<path d="M151.293 258.231C151.18 258.231 151.07 258.192 150.982 258.121C150.893 258.05 150.832 257.951 150.807 257.841C150.807 257.778 150.053 254.711 146.378 251.827C142.937 249.124 136.159 246.031 123.383 246.633C123.3 246.636 123.217 246.618 123.142 246.58C111.488 240.837 100.763 231.281 91.2624 218.174C91.1852 218.067 91.1534 217.935 91.1742 217.805C91.195 217.675 91.2666 217.558 91.3732 217.481C91.4798 217.404 91.6128 217.372 91.7428 217.393C91.8727 217.414 91.9889 217.485 92.0661 217.592C101.438 230.523 112 239.958 123.466 245.634C136.523 245.042 143.503 248.281 147.062 251.102C150.996 254.225 151.746 257.49 151.776 257.629C151.79 257.692 151.792 257.758 151.78 257.822C151.769 257.886 151.745 257.947 151.71 258.002C151.675 258.057 151.63 258.104 151.576 258.141C151.523 258.178 151.463 258.204 151.399 258.218C151.364 258.225 151.329 258.23 151.293 258.231Z" fill="black"/>
<path d="M111.969 217.297C111.969 217.297 125.436 235.802 135.492 243.196L111.969 217.297Z" fill="#FFCDB2"/>
<path d="M135.491 243.674C135.385 243.673 135.282 243.64 135.196 243.578C125.193 236.221 111.709 217.756 111.567 217.57C111.526 217.518 111.496 217.458 111.478 217.394C111.461 217.329 111.457 217.262 111.466 217.196C111.475 217.13 111.497 217.067 111.531 217.01C111.565 216.952 111.61 216.903 111.664 216.863C111.718 216.824 111.779 216.796 111.844 216.781C111.909 216.766 111.976 216.763 112.042 216.775C112.107 216.786 112.17 216.811 112.226 216.847C112.282 216.883 112.33 216.93 112.368 216.985C112.503 217.17 125.907 235.51 135.785 242.788C135.87 242.849 135.932 242.936 135.964 243.036C135.996 243.136 135.996 243.243 135.963 243.343C135.93 243.442 135.867 243.529 135.782 243.59C135.697 243.651 135.595 243.684 135.491 243.684V243.674Z" fill="black"/>
<path d="M217.525 250.718C219.5 250.718 221.101 249.117 221.101 247.142C221.101 245.167 219.5 243.566 217.525 243.566C215.55 243.566 213.949 245.167 213.949 247.142C213.949 249.117 215.55 250.718 217.525 250.718Z" fill="#51CEF4"/>
<path d="M192.381 270.533C194.355 270.533 195.957 268.932 195.957 266.957C195.957 264.982 194.355 263.381 192.381 263.381C190.406 263.381 188.805 264.982 188.805 266.957C188.805 268.932 190.406 270.533 192.381 270.533Z" fill="#51CEF4"/>
<path d="M229.646 287.097C231.621 287.097 233.222 285.496 233.222 283.521C233.222 281.546 231.621 279.945 229.646 279.945C227.672 279.945 226.07 281.546 226.07 283.521C226.07 285.496 227.672 287.097 229.646 287.097Z" fill="#51CEF4"/>
<path d="M266.322 268.17C268.297 268.17 269.898 266.569 269.898 264.594C269.898 262.619 268.297 261.018 266.322 261.018C264.347 261.018 262.746 262.619 262.746 264.594C262.746 266.569 264.347 268.17 266.322 268.17Z" fill="#51CEF4"/>
<path d="M302.404 270.533C304.379 270.533 305.98 268.932 305.98 266.957C305.98 264.982 304.379 263.381 302.404 263.381C300.429 263.381 298.828 264.982 298.828 266.957C298.828 268.932 300.429 270.533 302.404 270.533Z" fill="#51CEF4"/>
<path d="M292.052 287.097C294.027 287.097 295.629 285.496 295.629 283.521C295.629 281.546 294.027 279.945 292.052 279.945C290.077 279.945 288.477 281.546 288.477 283.521C288.477 285.496 290.077 287.097 292.052 287.097Z" fill="#51CEF4"/>
<path d="M289.746 200.58L288.539 199.402C288.327 199.197 288.056 199.064 287.764 199.022L286.11 198.774C285.892 198.741 285.684 198.657 285.504 198.528C285.324 198.4 285.177 198.231 285.074 198.035C284.972 197.839 284.917 197.622 284.914 197.401C284.911 197.179 284.961 196.961 285.059 196.762L285.803 195.251C285.933 194.986 285.977 194.688 285.929 194.397L285.647 192.743C285.611 192.525 285.626 192.301 285.692 192.09C285.758 191.879 285.874 191.686 286.028 191.528C286.183 191.37 286.373 191.251 286.583 191.18C286.793 191.11 287.016 191.09 287.235 191.122L288.889 191.36C289.182 191.404 289.48 191.354 289.743 191.218L291.235 190.437C291.43 190.335 291.646 190.281 291.867 190.277C292.087 190.274 292.305 190.323 292.503 190.42C292.701 190.516 292.873 190.658 293.006 190.833C293.139 191.009 293.23 191.213 293.269 191.43L293.557 193.084C293.607 193.374 293.747 193.641 293.957 193.848L295.161 195.029C295.319 195.184 295.438 195.374 295.508 195.583C295.579 195.793 295.599 196.016 295.566 196.235C295.534 196.453 295.451 196.661 295.323 196.841C295.195 197.022 295.026 197.169 294.831 197.272L293.339 198.059C293.079 198.196 292.868 198.411 292.737 198.674L291.986 200.186C291.888 200.385 291.745 200.559 291.568 200.692C291.391 200.825 291.185 200.915 290.966 200.953C290.748 200.992 290.523 200.978 290.311 200.913C290.099 200.848 289.906 200.734 289.746 200.58Z" fill="#07ACEE"/>
<path d="M290.718 201.474C290.223 201.475 289.748 201.282 289.395 200.934L288.187 199.76C288.05 199.626 287.874 199.539 287.685 199.512L286.031 199.264C285.735 199.219 285.454 199.106 285.21 198.933C284.966 198.759 284.767 198.531 284.628 198.266C284.489 198.001 284.414 197.707 284.41 197.408C284.406 197.109 284.473 196.813 284.605 196.545L285.352 195.033C285.436 194.861 285.464 194.668 285.432 194.48L285.154 192.826C285.104 192.531 285.125 192.229 285.214 191.943C285.303 191.658 285.458 191.397 285.667 191.183C285.876 190.969 286.133 190.807 286.416 190.711C286.699 190.615 287.002 190.587 287.298 190.63L288.968 190.871C289.156 190.898 289.348 190.865 289.517 190.779L291.013 189.998C291.278 189.86 291.572 189.786 291.872 189.783C292.171 189.78 292.467 189.848 292.735 189.981C293.003 190.114 293.236 190.308 293.415 190.548C293.594 190.787 293.714 191.066 293.765 191.361L294.053 193.015C294.084 193.203 294.174 193.377 294.311 193.511L295.515 194.692C295.729 194.902 295.889 195.159 295.985 195.442C296.08 195.726 296.107 196.028 296.064 196.324C296.02 196.62 295.908 196.902 295.735 197.146C295.562 197.39 295.333 197.59 295.068 197.729L293.576 198.516C293.408 198.604 293.271 198.743 293.186 198.913L292.432 200.425C292.3 200.694 292.106 200.928 291.865 201.107C291.625 201.286 291.345 201.405 291.049 201.454C290.94 201.47 290.829 201.477 290.718 201.474ZM287.016 191.592C286.896 191.592 286.776 191.616 286.666 191.664C286.555 191.711 286.455 191.78 286.371 191.867C286.271 191.969 286.196 192.093 286.153 192.229C286.11 192.365 286.099 192.51 286.123 192.651L286.405 194.305C286.47 194.698 286.411 195.102 286.236 195.46L285.488 196.971C285.425 197.1 285.394 197.242 285.396 197.385C285.398 197.528 285.434 197.669 285.5 197.795C285.567 197.922 285.663 198.031 285.779 198.114C285.896 198.197 286.031 198.251 286.173 198.271L287.827 198.519C288.222 198.578 288.588 198.76 288.872 199.039L290.08 200.213C290.182 200.313 290.306 200.388 290.443 200.43C290.579 200.473 290.724 200.483 290.865 200.459C291.006 200.435 291.139 200.378 291.254 200.293C291.369 200.208 291.462 200.096 291.525 199.968L292.28 198.46C292.456 198.102 292.741 197.809 293.093 197.623L294.585 196.839C294.711 196.774 294.819 196.68 294.902 196.565C294.985 196.45 295.039 196.317 295.062 196.177C295.083 196.036 295.071 195.891 295.025 195.755C294.979 195.619 294.901 195.496 294.797 195.397L293.596 194.216C293.31 193.937 293.12 193.574 293.054 193.18L292.766 191.526C292.744 191.383 292.689 191.246 292.604 191.129C292.518 191.011 292.406 190.916 292.276 190.851C292.146 190.786 292.003 190.754 291.858 190.756C291.713 190.758 291.57 190.796 291.442 190.865L289.947 191.645C289.594 191.83 289.191 191.898 288.796 191.841L287.142 191.599C287.1 191.594 287.058 191.592 287.016 191.592Z" fill="black"/>
<path d="M259.634 200.059C257.93 200.059 255.426 197.363 254.903 196.781C254.855 196.733 254.818 196.676 254.793 196.614C254.768 196.551 254.756 196.484 254.758 196.417C254.76 196.349 254.775 196.283 254.803 196.221C254.832 196.16 254.872 196.105 254.923 196.06C254.973 196.015 255.031 195.981 255.095 195.96C255.159 195.938 255.227 195.93 255.294 195.935C255.362 195.941 255.427 195.96 255.487 195.992C255.546 196.023 255.598 196.067 255.641 196.119C257.07 197.714 259.045 199.288 259.75 199.054C260.004 198.964 260.08 198.471 260.1 198.184C260.315 195.401 254.705 193.777 252.521 193.387C252.392 193.364 252.277 193.29 252.202 193.182C252.127 193.074 252.098 192.941 252.121 192.811C252.146 192.683 252.22 192.569 252.327 192.494C252.435 192.42 252.568 192.39 252.697 192.411C253.054 192.474 261.417 194.019 261.089 198.263C261.016 199.206 260.672 199.788 260.067 199.993C259.927 200.039 259.781 200.061 259.634 200.059Z" fill="black"/>
<path d="M336.309 91.063C336.24 91.063 336.172 91.0486 336.109 91.0207C336.046 90.9928 335.989 90.952 335.942 90.9009C328.85 83.0873 319.862 80.7088 309.23 83.825C304.181 85.3727 299.438 87.7847 295.214 90.9538C295.163 90.9947 295.105 91.0251 295.042 91.0433C294.979 91.0616 294.914 91.0674 294.849 91.0604C294.784 91.0533 294.722 91.0336 294.664 91.0022C294.607 90.9709 294.557 90.9286 294.516 90.8778C294.475 90.8269 294.445 90.7686 294.426 90.706C294.408 90.6434 294.402 90.5778 294.409 90.513C294.416 90.4481 294.436 90.3854 294.467 90.3282C294.499 90.271 294.541 90.2206 294.592 90.1797C298.91 86.9359 303.759 84.4667 308.922 82.8822C316.531 80.6493 327.49 80.1133 336.677 90.2326C336.742 90.3038 336.784 90.3922 336.8 90.4871C336.815 90.5821 336.803 90.6795 336.764 90.7674C336.725 90.8554 336.661 90.9302 336.58 90.9827C336.5 91.0351 336.406 91.063 336.309 91.063Z" fill="black"/>
<path d="M94.4098 244C94.2961 244 94.1849 243.964 94.09 243.895C82.7556 235.718 82.0274 228.03 82.0023 227.707C81.9955 227.622 82.004 227.536 82.0271 227.455C82.0503 227.374 82.0877 227.298 82.1373 227.233C82.1869 227.167 82.2477 227.113 82.3162 227.074C82.3846 227.034 82.4594 227.01 82.5363 227.003C82.6133 226.995 82.6909 227.004 82.7646 227.03C82.8383 227.055 82.9066 227.097 82.9658 227.152C83.025 227.206 83.0739 227.273 83.1097 227.349C83.1454 227.425 83.1672 227.507 83.1741 227.592C83.1824 227.677 83.9425 235.024 94.7346 242.811C94.8402 242.887 94.9207 242.999 94.9641 243.13C95.0076 243.261 95.0117 243.404 94.9757 243.537C94.9398 243.671 94.8659 243.788 94.7649 243.871C94.6638 243.955 94.541 244 94.4149 244H94.4098Z" fill="white"/>
<path d="M272.585 124.672C272.585 124.672 269.938 152.129 285.486 161.722" stroke="white" stroke-linecap="round" stroke-linejoin="round"/>
<path d="M319.891 90.9316L322.537 91.5932C322.537 91.5932 339.408 94.5705 342.054 114.419" stroke="white" stroke-linecap="round" stroke-linejoin="round"/>
<path d="M306.988 247.732C306.988 247.732 318.236 255.01 321.544 267.25" stroke="white" stroke-linecap="round" stroke-linejoin="round"/>
<path d="M322.867 271.549C322.867 271.549 324.852 277.834 324.521 284.119" stroke="white" stroke-linecap="round" stroke-linejoin="round"/>
<path d="M187.113 216.196L185.433 216.084C185.138 216.066 184.846 216.14 184.596 216.295L183.167 217.188C182.979 217.306 182.766 217.377 182.545 217.396C182.325 217.416 182.103 217.383 181.898 217.3C181.692 217.218 181.509 217.088 181.364 216.921C181.218 216.755 181.114 216.556 181.059 216.342L180.646 214.707C180.575 214.421 180.413 214.165 180.186 213.976L178.896 212.891C178.727 212.749 178.593 212.569 178.506 212.366C178.42 212.162 178.383 211.941 178.398 211.72C178.413 211.5 178.48 211.286 178.594 211.096C178.707 210.906 178.864 210.746 179.051 210.629L180.477 209.729C180.726 209.572 180.92 209.34 181.03 209.067L181.661 207.506C181.744 207.3 181.874 207.117 182.041 206.972C182.208 206.826 182.407 206.722 182.622 206.668C182.836 206.614 183.061 206.611 183.277 206.66C183.493 206.709 183.694 206.808 183.864 206.95L185.158 208.032C185.384 208.223 185.664 208.339 185.959 208.363L187.642 208.482C187.863 208.497 188.077 208.564 188.266 208.678C188.456 208.792 188.616 208.949 188.734 209.136C188.851 209.324 188.922 209.536 188.942 209.756C188.962 209.977 188.929 210.198 188.847 210.404L188.221 211.968C188.113 212.242 188.092 212.542 188.162 212.828L188.568 214.466C188.62 214.68 188.621 214.903 188.571 215.117C188.521 215.331 188.42 215.531 188.279 215.699C188.137 215.868 187.958 216.001 187.755 216.087C187.553 216.173 187.333 216.21 187.113 216.196Z" fill="white"/>
<path d="M182.426 217.9C182.181 217.899 181.938 217.852 181.711 217.761C181.432 217.651 181.184 217.476 180.987 217.25C180.79 217.024 180.651 216.755 180.58 216.464L180.163 214.83C180.118 214.645 180.015 214.479 179.868 214.357L178.578 213.272C178.349 213.079 178.168 212.836 178.05 212.56C177.933 212.285 177.882 211.986 177.903 211.687C177.923 211.388 178.014 211.099 178.167 210.842C178.321 210.585 178.533 210.368 178.787 210.208L180.212 209.309C180.373 209.208 180.499 209.058 180.57 208.882L181.201 207.317C181.314 207.04 181.49 206.793 181.716 206.597C181.942 206.401 182.21 206.261 182.5 206.188C182.79 206.115 183.094 206.112 183.385 206.178C183.677 206.244 183.949 206.379 184.179 206.57L185.472 207.648C185.619 207.77 185.801 207.843 185.992 207.856L187.672 207.975C187.971 207.996 188.261 208.087 188.518 208.241C188.775 208.395 188.991 208.608 189.151 208.862C189.31 209.115 189.407 209.403 189.434 209.702C189.461 210 189.417 210.301 189.306 210.579L188.678 212.143C188.608 212.32 188.595 212.515 188.641 212.699L189.048 214.333C189.121 214.625 189.124 214.93 189.056 215.224C188.988 215.517 188.852 215.79 188.658 216.02C188.464 216.25 188.219 216.431 187.942 216.548C187.664 216.665 187.363 216.714 187.063 216.692L185.383 216.58C185.192 216.567 185.002 216.614 184.84 216.715L183.411 217.608C183.116 217.794 182.775 217.895 182.426 217.9ZM182.968 207.122C182.892 207.123 182.817 207.132 182.743 207.148C182.604 207.184 182.475 207.251 182.367 207.345C182.259 207.44 182.175 207.558 182.121 207.691L181.489 209.252C181.341 209.623 181.08 209.937 180.742 210.149L179.316 211.049C179.194 211.124 179.093 211.228 179.019 211.35C178.945 211.473 178.902 211.611 178.892 211.754C178.882 211.897 178.907 212.04 178.963 212.172C179.02 212.303 179.106 212.419 179.217 212.511L180.507 213.596C180.813 213.853 181.029 214.2 181.125 214.588L181.539 216.222C181.574 216.361 181.641 216.489 181.735 216.597C181.83 216.705 181.949 216.788 182.081 216.841C182.214 216.896 182.357 216.919 182.5 216.907C182.643 216.895 182.781 216.848 182.902 216.771L184.331 215.878C184.67 215.668 185.067 215.568 185.465 215.594L187.146 215.703C187.29 215.713 187.434 215.689 187.566 215.631C187.698 215.574 187.814 215.485 187.903 215.372C187.996 215.262 188.06 215.132 188.092 214.992C188.125 214.853 188.124 214.707 188.089 214.568L187.682 212.934C187.584 212.546 187.611 212.137 187.761 211.766L188.386 210.202C188.441 210.069 188.462 209.925 188.449 209.783C188.437 209.64 188.39 209.502 188.314 209.381C188.237 209.26 188.133 209.159 188.01 209.085C187.887 209.012 187.749 208.968 187.606 208.958L185.925 208.839C185.527 208.812 185.148 208.66 184.84 208.405L183.547 207.327C183.384 207.193 183.179 207.12 182.968 207.122Z" fill="black"/>
<path d="M197.039 144.758L195.832 143.584C195.621 143.377 195.35 143.242 195.057 143.2L193.403 142.952C193.185 142.919 192.977 142.835 192.797 142.707C192.617 142.578 192.47 142.409 192.367 142.213C192.265 142.017 192.21 141.8 192.207 141.579C192.204 141.358 192.254 141.139 192.352 140.941L193.096 139.429C193.226 139.165 193.27 138.866 193.222 138.575L192.94 136.921C192.904 136.703 192.92 136.48 192.987 136.269C193.053 136.058 193.169 135.866 193.323 135.708C193.478 135.55 193.668 135.431 193.877 135.36C194.086 135.289 194.309 135.269 194.528 135.301L196.182 135.542C196.474 135.582 196.771 135.531 197.033 135.396L198.528 134.616C198.724 134.514 198.942 134.459 199.163 134.457C199.384 134.455 199.603 134.505 199.801 134.603C199.999 134.702 200.172 134.845 200.304 135.023C200.436 135.2 200.525 135.407 200.562 135.625L200.85 137.279C200.899 137.57 201.039 137.837 201.25 138.043L202.451 139.224C202.609 139.379 202.728 139.569 202.798 139.779C202.868 139.989 202.888 140.212 202.856 140.431C202.824 140.65 202.74 140.858 202.612 141.038C202.484 141.219 202.316 141.367 202.12 141.47L200.628 142.254C200.367 142.391 200.157 142.608 200.026 142.873L199.275 144.381C199.176 144.578 199.032 144.75 198.854 144.881C198.677 145.012 198.47 145.1 198.253 145.136C198.035 145.173 197.812 145.158 197.601 145.092C197.39 145.027 197.197 144.912 197.039 144.758Z" fill="white"/>
<path d="M198.011 145.655C197.516 145.657 197.041 145.463 196.688 145.116L195.477 143.938C195.341 143.805 195.166 143.718 194.978 143.69L193.324 143.442C193.028 143.397 192.747 143.284 192.503 143.111C192.259 142.937 192.06 142.709 191.921 142.444C191.782 142.179 191.707 141.885 191.703 141.586C191.699 141.287 191.766 140.991 191.898 140.723L192.642 139.211C192.728 139.04 192.757 138.847 192.725 138.658L192.444 137.004C192.394 136.709 192.415 136.406 192.505 136.121C192.594 135.835 192.75 135.575 192.959 135.361C193.169 135.147 193.425 134.985 193.709 134.889C193.992 134.793 194.294 134.765 194.591 134.808L196.261 135.049C196.449 135.077 196.642 135.045 196.81 134.957L198.305 134.176C198.571 134.039 198.865 133.966 199.164 133.963C199.463 133.96 199.759 134.028 200.027 134.161C200.295 134.293 200.528 134.487 200.707 134.727C200.886 134.966 201.006 135.244 201.058 135.539L201.346 137.193C201.375 137.382 201.465 137.556 201.604 137.689L202.804 138.87C203.019 139.079 203.181 139.336 203.277 139.619C203.373 139.903 203.401 140.205 203.357 140.502C203.314 140.798 203.201 141.08 203.028 141.324C202.855 141.568 202.626 141.768 202.361 141.907L200.869 142.694C200.7 142.783 200.564 142.923 200.479 143.094L199.728 144.603C199.596 144.871 199.401 145.105 199.161 145.283C198.92 145.461 198.641 145.58 198.345 145.628C198.235 145.647 198.123 145.656 198.011 145.655ZM194.309 135.77C194.189 135.77 194.069 135.794 193.959 135.842C193.848 135.889 193.748 135.958 193.664 136.045C193.563 136.147 193.489 136.272 193.446 136.409C193.402 136.546 193.392 136.691 193.416 136.832L193.697 138.486C193.763 138.879 193.704 139.283 193.529 139.641L192.781 141.153C192.716 141.28 192.682 141.421 192.682 141.564C192.682 141.708 192.716 141.849 192.781 141.976C192.847 142.102 192.941 142.211 193.056 142.294C193.17 142.377 193.303 142.433 193.443 142.456L195.097 142.704C195.492 142.761 195.859 142.942 196.145 143.22L197.353 144.395C197.455 144.495 197.579 144.569 197.715 144.612C197.851 144.655 197.996 144.666 198.137 144.643C198.278 144.619 198.412 144.562 198.527 144.476C198.643 144.391 198.735 144.279 198.798 144.15L199.549 142.641C199.728 142.284 200.014 141.992 200.367 141.804L201.858 141.02C201.985 140.954 202.094 140.858 202.177 140.741C202.26 140.625 202.314 140.49 202.335 140.348C202.355 140.206 202.342 140.062 202.296 139.926C202.25 139.791 202.173 139.668 202.07 139.568L200.869 138.387C200.583 138.108 200.394 137.746 200.327 137.352L200.039 135.698C200.016 135.555 199.96 135.419 199.874 135.303C199.789 135.186 199.677 135.091 199.547 135.027C199.418 134.962 199.275 134.929 199.13 134.931C198.986 134.932 198.844 134.969 198.716 135.036L197.22 135.817C196.867 136.001 196.464 136.069 196.069 136.012L194.415 135.77C194.38 135.768 194.345 135.768 194.309 135.77Z" fill="black"/>
<path d="M140.948 122.079L139.347 122.612C139.067 122.704 138.824 122.882 138.652 123.121L137.66 124.484C137.529 124.663 137.358 124.808 137.161 124.908C136.964 125.008 136.746 125.06 136.525 125.06C136.304 125.06 136.086 125.008 135.889 124.908C135.691 124.808 135.521 124.663 135.39 124.484L134.398 123.125C134.224 122.888 133.98 122.712 133.7 122.622L132.095 122.102C131.885 122.034 131.693 121.918 131.536 121.762C131.379 121.606 131.261 121.415 131.192 121.205C131.122 120.994 131.104 120.771 131.137 120.552C131.171 120.333 131.255 120.125 131.384 119.945L132.377 118.576C132.547 118.336 132.638 118.049 132.638 117.756V116.072C132.638 115.851 132.69 115.633 132.79 115.435C132.89 115.238 133.036 115.067 133.214 114.937C133.393 114.806 133.6 114.719 133.818 114.684C134.036 114.648 134.26 114.665 134.471 114.732L136.078 115.245C136.358 115.334 136.659 115.334 136.939 115.245L138.543 114.722C138.753 114.653 138.976 114.635 139.194 114.669C139.412 114.703 139.619 114.787 139.799 114.916C139.978 115.045 140.124 115.215 140.226 115.411C140.327 115.607 140.38 115.824 140.382 116.045V117.729C140.384 118.024 140.479 118.311 140.653 118.549L141.646 119.912C141.777 120.092 141.864 120.299 141.899 120.519C141.935 120.738 141.918 120.962 141.85 121.174C141.781 121.385 141.664 121.577 141.507 121.735C141.351 121.892 141.159 122.01 140.948 122.079Z" fill="white"/>
<path d="M136.526 125.562C136.227 125.564 135.933 125.495 135.666 125.36C135.4 125.226 135.169 125.03 134.994 124.788L134.001 123.429C133.89 123.273 133.731 123.157 133.548 123.098L131.947 122.582C131.662 122.49 131.403 122.332 131.19 122.121C130.978 121.91 130.818 121.652 130.725 121.368C130.631 121.083 130.606 120.781 130.651 120.485C130.696 120.189 130.81 119.908 130.985 119.664L131.977 118.295C132.088 118.139 132.147 117.953 132.146 117.762V116.072C132.146 115.773 132.217 115.478 132.353 115.211C132.489 114.944 132.685 114.713 132.927 114.537C133.168 114.36 133.448 114.243 133.744 114.195C134.039 114.147 134.342 114.169 134.627 114.259L136.231 114.772C136.413 114.829 136.608 114.829 136.79 114.772L138.391 114.249C138.676 114.156 138.978 114.131 139.274 114.177C139.57 114.223 139.851 114.338 140.094 114.513C140.337 114.688 140.535 114.918 140.672 115.185C140.809 115.451 140.881 115.746 140.882 116.045V117.732C140.885 117.923 140.946 118.108 141.057 118.262L142.05 119.625C142.227 119.866 142.344 120.147 142.392 120.442C142.439 120.738 142.416 121.041 142.325 121.326C142.233 121.611 142.075 121.871 141.864 122.083C141.653 122.296 141.395 122.455 141.11 122.549L139.513 123.078C139.33 123.138 139.172 123.254 139.059 123.409L138.067 124.772C137.892 125.016 137.662 125.215 137.395 125.352C137.128 125.489 136.832 125.56 136.532 125.559L136.526 125.562ZM134.028 115.169C133.787 115.17 133.557 115.266 133.387 115.436C133.217 115.607 133.122 115.838 133.122 116.078V117.765C133.124 118.165 132.999 118.554 132.764 118.877L131.772 120.247C131.688 120.363 131.633 120.497 131.612 120.638C131.59 120.78 131.602 120.924 131.647 121.06C131.692 121.196 131.768 121.319 131.87 121.42C131.971 121.52 132.095 121.596 132.232 121.639L133.836 122.158C134.215 122.281 134.546 122.519 134.782 122.84L135.775 124.2C135.858 124.315 135.968 124.408 136.095 124.473C136.222 124.537 136.363 124.571 136.506 124.57C136.649 124.57 136.791 124.536 136.919 124.471C137.047 124.405 137.157 124.31 137.24 124.193L138.232 122.83C138.464 122.505 138.793 122.263 139.172 122.139L140.773 121.609C140.909 121.564 141.032 121.487 141.132 121.385C141.233 121.283 141.308 121.16 141.351 121.023C141.395 120.887 141.406 120.743 141.384 120.601C141.362 120.46 141.306 120.326 141.223 120.21L140.23 118.85C139.994 118.528 139.866 118.139 139.863 117.739V116.055C139.863 115.912 139.829 115.77 139.764 115.643C139.699 115.515 139.604 115.405 139.488 115.321C139.371 115.237 139.237 115.182 139.095 115.16C138.953 115.138 138.808 115.15 138.672 115.195L137.071 115.718C136.692 115.84 136.283 115.84 135.903 115.718L134.299 115.205C134.211 115.179 134.12 115.167 134.028 115.169Z" fill="black"/>
<path d="M202.454 45.2812C202.454 45.2812 186.575 54.5438 195.507 70.4223" stroke="white" stroke-linecap="round" stroke-linejoin="round"/>
<path d="M160.561 145.595H102.939L102.926 142.126C102.926 142.07 102.926 142.014 102.926 141.956C102.926 130.162 105.746 119.026 110.866 110.596C116.308 101.635 123.727 96.7012 131.752 96.7012C139.778 96.7012 147.194 101.633 152.638 110.596C157.759 119.026 160.578 130.162 160.578 141.956C160.578 142.014 160.578 142.07 160.578 142.126V142.208L160.561 145.595ZM109.802 138.793H153.699C153.257 129.429 150.854 120.766 146.822 114.133C142.66 107.283 137.308 103.511 131.75 103.511C126.193 103.511 120.841 107.283 116.679 114.133C112.647 120.766 110.244 129.429 109.802 138.793Z" fill="white"/>
<path d="M160.816 145.85H102.687L102.672 142.127C102.672 142.071 102.672 142.013 102.672 141.957C102.672 130.117 105.505 118.934 110.65 110.464C116.141 101.425 123.636 96.4473 131.753 96.4473C139.871 96.4473 147.365 101.425 152.857 110.464C158.001 118.934 160.835 130.117 160.835 141.957C160.835 142.015 160.835 142.073 160.835 142.127V142.209L160.816 145.85ZM103.196 145.34H160.308L160.321 142.124C160.321 142.068 160.321 142.012 160.321 141.954C160.321 130.207 157.513 119.116 152.416 110.726C147.022 101.845 139.682 96.9507 131.75 96.9507C123.818 96.9507 116.478 101.842 111.083 110.726C105.981 119.116 103.179 130.207 103.179 141.954C103.179 142.01 103.179 142.066 103.179 142.124L103.196 145.34ZM153.967 139.047H109.536L109.548 138.78C109.99 129.408 112.439 120.607 116.463 113.995C120.672 107.065 126.102 103.248 131.752 103.248C137.401 103.248 142.832 107.065 147.041 113.995C151.058 120.607 153.513 129.408 153.955 138.78L153.967 139.047ZM110.07 138.537H153.437C152.964 129.354 150.546 120.736 146.609 114.258C142.495 107.488 137.219 103.758 131.755 103.758C126.291 103.758 121.015 107.488 116.901 114.258C112.964 120.736 110.543 129.348 110.07 138.537Z" fill="#1D1E1B"/>
<path d="M116.728 136.074H146.602C153.714 136.074 160.534 138.899 165.563 143.928C170.592 148.957 173.417 155.777 173.417 162.889V192.851C173.417 194.978 172.572 197.017 171.068 198.521C169.564 200.025 167.525 200.87 165.398 200.87H97.9327C95.806 200.87 93.7665 200.025 92.2627 198.521C90.7589 197.017 89.9141 194.978 89.9141 192.851V162.889C89.9141 155.777 92.7392 148.957 97.7679 143.928C102.797 138.899 109.617 136.074 116.728 136.074Z" fill="#4BD657"/>
<path d="M165.399 201.124H97.9339C95.7402 201.122 93.6371 200.249 92.0859 198.698C90.5348 197.147 89.6624 195.044 89.6602 192.85V162.888C89.6602 147.961 101.803 135.818 116.73 135.818H146.604C161.53 135.818 173.673 147.961 173.673 162.888V192.85C173.671 195.044 172.798 197.147 171.247 198.698C169.696 200.249 167.593 201.122 165.399 201.124ZM116.73 136.329C102.085 136.329 90.1704 148.243 90.1704 162.888V192.85C90.1726 194.909 90.9913 196.882 92.4467 198.337C93.9022 199.793 95.8756 200.612 97.9339 200.614H165.399C167.458 200.612 169.431 199.793 170.887 198.337C172.342 196.882 173.161 194.909 173.163 192.85V162.888C173.163 148.243 161.248 136.329 146.604 136.329H116.73Z" fill="#1D1E1B"/>
<path d="M135.037 164.701V157.16H128.078V164.854C126.503 165.674 125.252 167.002 124.528 168.623C123.804 170.244 123.649 172.062 124.09 173.782C124.53 175.502 125.539 177.023 126.954 178.096C128.368 179.17 130.103 179.733 131.878 179.695C133.653 179.657 135.363 179.019 136.73 177.886C138.097 176.753 139.04 175.19 139.406 173.453C139.772 171.716 139.54 169.906 138.746 168.317C137.953 166.729 136.646 165.455 135.037 164.704V164.701Z" fill="white"/>
<path d="M131.711 179.95C129.906 179.95 128.153 179.349 126.728 178.241C125.302 177.134 124.287 175.583 123.841 173.834C123.396 172.085 123.545 170.238 124.267 168.583C124.988 166.929 126.24 165.562 127.825 164.698V156.902H135.295V164.542C136.94 165.351 138.264 166.693 139.049 168.351C139.835 170.008 140.036 171.882 139.621 173.669C139.205 175.455 138.198 177.048 136.761 178.188C135.325 179.329 133.545 179.95 131.711 179.95ZM128.335 157.413V165.006L128.199 165.077C126.675 165.87 125.464 167.155 124.763 168.724C124.062 170.292 123.913 172.052 124.339 173.716C124.765 175.38 125.741 176.852 127.11 177.891C128.478 178.929 130.157 179.475 131.875 179.438C133.592 179.401 135.247 178.784 136.569 177.687C137.892 176.591 138.804 175.079 139.159 173.398C139.513 171.717 139.288 169.965 138.52 168.428C137.752 166.892 136.487 165.66 134.931 164.933L134.784 164.865V157.413H128.335Z" fill="#141111"/>
<path opacity="0.2" d="M169.932 182.926H169.888C169.618 182.914 169.364 182.795 169.181 182.596C168.998 182.397 168.902 182.133 168.914 181.863C170.199 152.271 161.669 150.107 161.582 150.088H161.607L161.931 148.074C162.227 148.122 164.89 148.671 167.267 153.29C170.284 159.149 171.519 168.792 170.951 181.948C170.94 182.211 170.828 182.46 170.638 182.642C170.448 182.824 170.195 182.926 169.932 182.926Z" fill="white"/>
<path opacity="0.2" d="M93.022 168.054H92.9386C92.6689 168.032 92.4189 167.904 92.2435 167.698C92.0681 167.492 91.9816 167.225 92.0033 166.955C92.823 156.641 96.2176 148.877 102.092 143.881C109.78 137.342 118.838 138.001 119.221 138.032C119.355 138.043 119.485 138.081 119.605 138.142C119.724 138.204 119.831 138.288 119.917 138.391C120.004 138.494 120.07 138.612 120.111 138.74C120.152 138.869 120.167 139.003 120.156 139.137C120.145 139.271 120.108 139.402 120.046 139.521C119.984 139.641 119.9 139.747 119.797 139.834C119.694 139.921 119.576 139.987 119.448 140.028C119.32 140.069 119.185 140.084 119.051 140.073C118.957 140.073 113.245 139.666 107.359 142.772C99.4709 146.935 94.988 155.129 94.0339 167.125C94.0111 167.378 93.8947 167.614 93.7076 167.785C93.5205 167.957 93.276 168.053 93.022 168.054Z" fill="white"/>
<path d="M145.853 186.582H117.653C116.206 186.58 114.818 186.005 113.795 184.982C112.772 183.959 112.197 182.571 112.195 181.124V155.815C112.197 154.368 112.772 152.981 113.795 151.957C114.818 150.934 116.206 150.359 117.653 150.357H145.853C147.3 150.359 148.687 150.934 149.711 151.957C150.734 152.981 151.309 154.368 151.311 155.815V181.124C151.309 182.571 150.734 183.959 149.711 184.982C148.687 186.005 147.3 186.58 145.853 186.582ZM117.653 151.038C116.386 151.039 115.172 151.543 114.276 152.438C113.381 153.334 112.877 154.548 112.876 155.815V181.124C112.877 182.391 113.381 183.605 114.276 184.501C115.172 185.396 116.386 185.9 117.653 185.901H145.853C147.12 185.9 148.334 185.396 149.23 184.501C150.125 183.605 150.629 182.391 150.63 181.124V155.815C150.629 154.548 150.125 153.334 149.23 152.438C148.334 151.543 147.12 151.039 145.853 151.038H117.653Z" fill="#1D1D1B"/>
<path d="M161.686 125.698C161.605 125.699 161.526 125.671 161.464 125.619C161.402 125.568 161.36 125.495 161.346 125.415C158.815 110.672 152.997 103.251 148.562 99.6215C143.787 95.71 139.581 95.2576 139.538 95.2542C139.448 95.2452 139.365 95.2007 139.308 95.1305C139.25 95.0603 139.223 94.9703 139.232 94.8801C139.241 94.7898 139.286 94.7069 139.356 94.6495C139.426 94.5921 139.516 94.5649 139.606 94.574C139.776 94.591 144.059 95.0552 148.992 99.0926C151.884 101.453 154.385 104.553 156.445 108.309C159.009 112.989 160.885 118.703 162.016 125.296C162.031 125.385 162.011 125.477 161.959 125.55C161.907 125.624 161.828 125.674 161.739 125.689L161.686 125.698Z" fill="#1D1D1B"/>
<path d="M114.747 130.63H114.731C114.687 130.628 114.643 130.617 114.602 130.598C114.562 130.579 114.525 130.552 114.495 130.519C114.465 130.486 114.442 130.448 114.427 130.406C114.411 130.364 114.405 130.319 114.407 130.274C114.762 122.631 117.276 117.791 119.322 115.077C121.553 112.114 123.684 110.987 123.774 110.941C123.814 110.917 123.858 110.901 123.904 110.894C123.951 110.887 123.998 110.89 124.043 110.903C124.088 110.915 124.13 110.937 124.166 110.966C124.202 110.996 124.232 111.032 124.254 111.074C124.275 111.115 124.288 111.161 124.291 111.207C124.295 111.254 124.288 111.301 124.272 111.345C124.257 111.389 124.232 111.429 124.2 111.463C124.168 111.497 124.13 111.525 124.087 111.543C124.061 111.557 121.978 112.671 119.835 115.519C117.857 118.155 115.427 122.861 115.082 130.305C115.078 130.391 115.041 130.473 114.979 130.534C114.916 130.594 114.833 130.628 114.747 130.63Z" fill="#1D1D1B"/>
<defs>
<filter id="filter0_d_2732_19975" x="-4.02115" y="107.785" width="38.6868" height="38.6849" filterUnits="userSpaceOnUse" color-interpolation-filters="sRGB">
<feFlood flood-opacity="0" result="BackgroundImageFix"/>
<feColorMatrix in="SourceAlpha" type="matrix" values="0 0 0 0 0 0 0 0 0 0 0 0 0 0 0 0 0 0 127 0" result="hardAlpha"/>
<feOffset dy="2.03704"/>
<feGaussianBlur stdDeviation="5.09261"/>
<feComposite in2="hardAlpha" operator="out"/>
<feColorMatrix type="matrix" values="0 0 0 0 0 0 0 0 0 0 0 0 0 0 0 0 0 0 0.05 0"/>
<feBlend mode="normal" in2="BackgroundImageFix" result="effect1_dropShadow_2732_19975"/>
<feBlend mode="normal" in="SourceGraphic" in2="effect1_dropShadow_2732_19975" result="shape"/>
</filter>
<filter id="filter1_d_2732_19975" x="370.651" y="165.211" width="38.6868" height="38.6888" filterUnits="userSpaceOnUse" color-interpolation-filters="sRGB">
<feFlood flood-opacity="0" result="BackgroundImageFix"/>
<feColorMatrix in="SourceAlpha" type="matrix" values="0 0 0 0 0 0 0 0 0 0 0 0 0 0 0 0 0 0 127 0" result="hardAlpha"/>
<feOffset dy="2.03704"/>
<feGaussianBlur stdDeviation="5.09261"/>
<feComposite in2="hardAlpha" operator="out"/>
<feColorMatrix type="matrix" values="0 0 0 0 0 0 0 0 0 0 0 0 0 0 0 0 0 0 0.05 0"/>
<feBlend mode="normal" in2="BackgroundImageFix" result="effect1_dropShadow_2732_19975"/>
<feBlend mode="normal" in="SourceGraphic" in2="effect1_dropShadow_2732_19975" result="shape"/>
</filter>
<linearGradient id="paint0_linear_2732_19975" x1="20.4527" y1="112.038" x2="392.051" y2="200.547" gradientUnits="userSpaceOnUse">
<stop stop-color="#CDD5E2"/>
<stop offset="1" stop-color="#CDD5E2" stop-opacity="0"/>
</linearGradient>
<linearGradient id="paint1_linear_2732_19975" x1="391.411" y1="195.438" x2="353.85" y2="294.045" gradientUnits="userSpaceOnUse">
<stop stop-color="#CDD5E2"/>
<stop offset="1" stop-color="#CDD5E2" stop-opacity="0"/>
</linearGradient>
<linearGradient id="paint2_linear_2732_19975" x1="196.502" y1="23.2598" x2="196.502" y2="365.005" gradientUnits="userSpaceOnUse">
<stop stop-color="#CDD5E2"/>
<stop offset="1" stop-color="#CDD5E2" stop-opacity="0"/>
</linearGradient>
<linearGradient id="paint3_linear_2732_19975" x1="196.503" y1="57.4336" x2="196.503" y2="330.83" gradientUnits="userSpaceOnUse">
<stop stop-color="#CDD5E2"/>
<stop offset="1" stop-color="#CDD5E2" stop-opacity="0"/>
</linearGradient>
</defs>
</svg>
