<svg width="78" height="30" viewBox="0 0 78 30" fill="none" xmlns="http://www.w3.org/2000/svg">
<path id="Vector" fill-rule="evenodd" clip-rule="evenodd" d="M67.9344 0.84514C67.5563 0.902847 67.4259 1.04222 67.3657 1.36425C67.2868 1.88255 67.8017 2.60785 69.436 4.24685C70.2806 5.11525 70.5004 5.40973 70.1935 5.33712C66.0772 4.22489 64.2066 4.00419 61.5426 4.2914C57.7404 4.72202 53.8646 6.25219 50.0207 8.87723L47.8607 10.3522L45.5956 8.76207C43.1774 7.03416 41.6945 6.39591 39.3062 5.97172C36.8883 5.55205 33.096 5.83327 30.5697 6.59054C29.0894 7.0554 26.9048 8.2516 25.7246 9.28119L24.5919 10.2428L23.501 9.4272C21.9804 8.29036 20.2075 7.59213 17.5869 7.10101C12.8007 6.19531 8.37524 7.49465 3.44848 11.2254C0.800013 13.2527 -0.189019 14.5053 0.472269 14.9998C0.720779 15.1856 1.04229 15.0322 2.0505 14.2678C4.89118 12.1239 6.25054 11.2016 8.10849 10.2316C12.4326 7.96555 17.8362 8.18164 22.0215 10.7869L23.3499 11.5966L22.9592 12.3256C21.1358 15.7305 20.6446 17.9025 21.0706 20.9205C21.5517 24.3434 23.8644 26.2827 26.5016 25.4782C27.4289 25.2039 28.8097 23.5635 29.2615 22.1995C30.1236 19.5974 29.0907 15.4984 26.8172 12.5406L26.0003 11.4594L26.5562 10.9574C28.4152 9.23071 30.6168 8.2841 33.9211 7.79487C37.5145 7.26151 41.0032 7.90452 43.9005 9.65031C45.2586 10.4555 46.4308 11.6455 46.1234 11.9162C46.0185 12.0213 45.2747 12.88 44.4792 13.8035C41.5801 17.2683 40.0584 21.4729 40.609 24.5306C40.9193 26.2541 41.5383 27.4243 42.6699 28.4272C45.1478 30.5934 48.4027 29.9638 50.174 26.9404C52.322 23.3076 52.1427 17.7246 49.7618 13.3251C49.3843 12.6224 49.119 11.9803 49.1814 11.8969C49.4455 11.5437 52.2643 9.67049 53.7711 8.85839C58.011 6.52937 62.2643 5.7019 66.325 6.40549C67.6593 6.61895 71.823 7.84337 72.1684 8.10161C72.2674 8.17561 71.6864 8.36857 70.871 8.49304C67.3679 9.14724 64.719 10.31 64.5553 11.2888C64.4103 12.3082 65.3256 12.3619 67.6855 11.4802C68.6472 11.1249 71.0699 10.6071 73.3975 10.2518C75.5973 9.93118 77.4738 9.55565 77.5618 9.43793C77.6498 9.32021 77.7396 8.99363 77.7317 8.72748C77.7426 8.26509 77.5028 8.03245 74.7271 5.95715C73.0698 4.69139 70.9713 3.01897 70.0622 2.23247C68.6256 0.948182 68.3643 0.779501 67.9291 0.847835L67.9344 0.84514ZM49.0825 16.4777C50.1595 19.6921 49.8802 23.7543 48.4134 25.9577C47.5034 27.3461 46.6952 27.8431 45.6341 27.677C44.1159 27.4328 42.6852 25.5523 42.5902 23.6461C42.5351 22.477 42.9767 20.3713 43.6413 18.7227C44.1901 17.4046 46.2622 14.4224 47.1724 13.6881L47.5978 13.3255L48.1028 14.2003C48.3779 14.6929 48.8286 15.7106 49.0804 16.4761L49.0825 16.4777ZM26.4138 15.6359C27.2973 17.3174 27.8001 19.8155 27.5372 21.1639C27.1608 23.0814 25.7868 24.2297 24.5274 23.7052C23.2517 23.1719 22.5447 20.2575 23.0137 17.4916C23.2341 16.1648 24.0335 13.8529 24.4935 13.2024C24.6824 12.9499 25.6507 14.171 26.4133 15.6321L26.4138 15.6359Z" fill="white"/>
</svg>
