<svg width="217" height="161" viewBox="0 0 217 161" fill="none" xmlns="http://www.w3.org/2000/svg">
<mask id="mask0_3806_26460" style="mask-type:alpha" maskUnits="userSpaceOnUse" x="0" y="0" width="217" height="161">
<rect width="216.439" height="161" fill="#D9D9D9"/>
</mask>
<g mask="url(#mask0_3806_26460)">
<g opacity="0.5">
<mask id="path-2-inside-1_3806_26460" fill="white">
<path d="M207.987 108.035C209.062 83.3647 201.263 59.1257 186.003 39.7116C170.743 20.2975 149.033 6.99329 124.807 2.21047C100.581 -2.57234 75.443 1.48283 53.9499 13.6409C32.4568 25.799 16.031 45.2554 7.64993 68.4831L8.09775 68.6447C16.4402 45.524 32.7903 26.1574 54.1843 14.0553C75.5783 1.95325 100.6 -2.08323 124.715 2.67754C148.829 7.43831 170.439 20.6812 185.629 40.0058C200.819 59.3304 208.582 83.4576 207.512 108.014L207.987 108.035Z"/>
</mask>
<path d="M207.987 108.035C209.062 83.3647 201.263 59.1257 186.003 39.7116C170.743 20.2975 149.033 6.99329 124.807 2.21047C100.581 -2.57234 75.443 1.48283 53.9499 13.6409C32.4568 25.799 16.031 45.2554 7.64993 68.4831L8.09775 68.6447C16.4402 45.524 32.7903 26.1574 54.1843 14.0553C75.5783 1.95325 100.6 -2.08323 124.715 2.67754C148.829 7.43831 170.439 20.6812 185.629 40.0058C200.819 59.3304 208.582 83.4576 207.512 108.014L207.987 108.035Z" stroke="url(#paint0_linear_3806_26460)" stroke-width="1.51887" stroke-dasharray="2.28 2.28" mask="url(#path-2-inside-1_3806_26460)"/>
</g>
<g opacity="0.5">
<mask id="path-3-inside-2_3806_26460" fill="white">
<path d="M7.78784 138.972C16.2598 162.167 32.7616 181.559 54.3021 193.632C75.8426 205.706 100.996 209.663 125.203 204.785C149.41 199.908 171.069 186.519 186.252 167.045C201.436 147.571 209.141 123.302 207.969 98.6364L207.493 98.659C208.66 123.211 200.991 147.368 185.877 166.752C170.763 186.136 149.205 199.464 125.109 204.319C101.014 209.174 75.9761 205.235 54.5348 193.217C33.0936 181.199 16.6679 161.896 8.23502 138.809L7.78784 138.972Z"/>
</mask>
<path d="M7.78784 138.972C16.2598 162.167 32.7616 181.559 54.3021 193.632C75.8426 205.706 100.996 209.663 125.203 204.785C149.41 199.908 171.069 186.519 186.252 167.045C201.436 147.571 209.141 123.302 207.969 98.6364L207.493 98.659C208.66 123.211 200.991 147.368 185.877 166.752C170.763 186.136 149.205 199.464 125.109 204.319C101.014 209.174 75.9761 205.235 54.5348 193.217C33.0936 181.199 16.6679 161.896 8.23502 138.809L7.78784 138.972Z" stroke="url(#paint1_linear_3806_26460)" stroke-width="1.51887" stroke-dasharray="2.28 2.28" mask="url(#path-3-inside-2_3806_26460)"/>
</g>
<circle opacity="0.08" cx="104.802" cy="103.538" r="91.1321" fill="url(#paint2_linear_3806_26460)"/>
<circle opacity="0.1" cx="104.802" cy="103.537" r="72.9057" fill="url(#paint3_linear_3806_26460)"/>
<circle cx="104.802" cy="103.537" r="48.6038" fill="white"/>
<g filter="url(#filter0_d_3806_26460)">
<circle cx="8.17233" cy="66.7155" r="3.79717" transform="rotate(-2.50406 8.17233 66.7155)" fill="#0170FF"/>
<circle cx="8.17233" cy="66.7155" r="4.34038" transform="rotate(-2.50406 8.17233 66.7155)" stroke="white" stroke-width="1.08642"/>
</g>
<g filter="url(#filter1_d_3806_26460)">
<circle cx="207.994" cy="97.3439" r="3.79717" transform="rotate(-15.7345 207.994 97.3439)" fill="#0170FF"/>
<circle cx="207.994" cy="97.3439" r="4.34038" transform="rotate(-15.7345 207.994 97.3439)" stroke="white" stroke-width="1.08642"/>
</g>
</g>
<path d="M152.189 146.273L54.7293 145.681C54.635 145.681 54.5447 145.644 54.4781 145.577C54.4115 145.51 54.374 145.42 54.374 145.326C54.374 145.232 54.4115 145.141 54.4781 145.075C54.5447 145.008 54.635 144.971 54.7293 144.971L152.189 145.562C152.283 145.562 152.374 145.6 152.441 145.666C152.507 145.733 152.544 145.823 152.544 145.917C152.544 146.012 152.507 146.102 152.441 146.169C152.374 146.235 152.283 146.273 152.189 146.273Z" fill="black"/>
<path d="M58.3405 141.113H44.3319C44.2612 141.113 44.1934 141.085 44.1435 141.035C44.0935 140.985 44.0654 140.917 44.0654 140.847C44.0654 140.776 44.0935 140.708 44.1435 140.658C44.1934 140.608 44.2612 140.58 44.3319 140.58H58.3405C58.4112 140.58 58.4789 140.608 58.5289 140.658C58.5788 140.708 58.6069 140.776 58.6069 140.847C58.6069 140.917 58.5788 140.985 58.5289 141.035C58.4789 141.085 58.4112 141.113 58.3405 141.113Z" fill="black"/>
<path d="M153.044 42.7919C151.856 42.7915 150.67 42.7203 149.491 42.5788C143.452 41.8577 137.314 39.2875 131.248 34.9413C131.194 34.899 131.159 34.8375 131.149 34.7696C131.139 34.7018 131.156 34.6328 131.196 34.577C131.236 34.5211 131.296 34.4828 131.363 34.47C131.43 34.4571 131.5 34.4707 131.558 34.5079C145.119 44.2235 156.424 43.0175 163.514 40.2964C171.203 37.3462 175.741 32.0408 175.786 31.9875C175.831 31.9333 175.897 31.8995 175.967 31.8935C176.038 31.8875 176.108 31.9098 176.162 31.9555C176.217 32.0012 176.25 32.0666 176.256 32.1372C176.262 32.2078 176.24 32.2779 176.194 32.3321C176.148 32.3854 171.521 37.7956 163.706 40.7937C160.305 42.1102 156.691 42.7876 153.044 42.7919Z" fill="black"/>
<path d="M146.24 37.3842C143.16 37.3842 139.551 36.7376 135.441 34.9703C135.376 34.9423 135.324 34.8896 135.298 34.8238C135.272 34.758 135.273 34.6845 135.301 34.6195C135.329 34.5545 135.382 34.5033 135.448 34.4772C135.513 34.451 135.587 34.4521 135.652 34.4801C144.311 38.2101 150.678 36.8531 154.495 35.0627C158.636 33.1196 160.76 30.2564 160.781 30.228C160.801 30.1984 160.827 30.1732 160.857 30.1538C160.887 30.1344 160.921 30.1213 160.956 30.1152C160.991 30.1091 161.027 30.1102 161.062 30.1183C161.097 30.1265 161.13 30.1416 161.159 30.1627C161.188 30.1838 161.212 30.2105 161.23 30.2412C161.249 30.2719 161.261 30.306 161.265 30.3415C161.27 30.3769 161.268 30.4129 161.259 30.4474C161.249 30.4819 161.233 30.5142 161.211 30.5424C161.124 30.6631 159.001 33.5299 154.748 35.5334C152.084 36.7728 149.178 37.405 146.24 37.3842Z" fill="black"/>
<path d="M135.94 31.7684L117.396 20.9179L123.314 20.7207L136.335 25.0599L135.94 31.7684Z" fill="white"/>
<path d="M123.314 20.7223L136.335 25.0615L135.941 31.77L117.396 20.9195L123.314 20.7223ZM123.314 20.1895H123.296L117.378 20.3866C117.262 20.3901 117.151 20.4312 117.061 20.5036C116.971 20.576 116.906 20.6759 116.878 20.788C116.849 20.9001 116.858 21.0185 116.903 21.1252C116.947 21.2319 117.026 21.3212 117.126 21.3795L135.671 32.2301C135.753 32.2779 135.846 32.3031 135.941 32.3029C136.077 32.3031 136.207 32.2514 136.306 32.1583C136.406 32.0652 136.465 31.9377 136.474 31.802L136.868 25.0934C136.874 24.9781 136.843 24.8638 136.779 24.7677C136.715 24.6716 136.622 24.5989 136.513 24.5606L123.492 20.2196C123.434 20.2011 123.374 20.1921 123.314 20.193V20.1895Z" fill="black"/>
<path d="M141.07 21.7056L114.634 19.5352L125.879 32.7534L133.573 27.0323L121.341 21.5085L136.335 25.059L141.07 21.7056Z" fill="#4BD657"/>
<path d="M114.633 19.5346L141.07 21.7051L136.335 25.0585L121.34 21.5062L133.573 27.03L125.878 32.7511L114.633 19.5328V19.5346ZM114.633 19C114.532 19 114.432 19.0292 114.346 19.0841C114.26 19.139 114.192 19.2174 114.149 19.3099C114.107 19.4024 114.092 19.5052 114.106 19.6061C114.12 19.707 114.162 19.8018 114.228 19.8792L125.473 33.0974C125.561 33.2006 125.685 33.2665 125.82 33.2817C125.954 33.2969 126.09 33.2602 126.198 33.1791L133.892 27.4581C133.967 27.4027 134.025 27.3288 134.063 27.2437C134.1 27.1587 134.114 27.0654 134.104 26.9732C134.094 26.881 134.06 26.793 134.005 26.7179C133.951 26.6428 133.878 26.5833 133.793 26.5451L126.614 23.3019L136.214 25.5754C136.254 25.5853 136.295 25.5901 136.336 25.5896C136.446 25.5895 136.554 25.5554 136.644 25.4919L141.379 22.1385C141.468 22.0753 141.536 21.9861 141.573 21.8831C141.61 21.7801 141.614 21.6682 141.585 21.5626C141.556 21.457 141.496 21.3629 141.411 21.2931C141.327 21.2233 141.223 21.1811 141.114 21.1722L114.678 19.0018L114.633 19Z" fill="black"/>
<path d="M126.667 31.0274C126.609 31.0276 126.551 31.0163 126.497 30.994C126.443 30.9718 126.394 30.939 126.353 30.8978L120.238 24.7824C120.154 24.699 120.107 24.586 120.107 24.468C120.107 24.3501 120.154 24.237 120.238 24.1537C120.321 24.0703 120.434 24.0234 120.552 24.0234C120.67 24.0234 120.783 24.0703 120.866 24.1537L126.982 30.2708C127.043 30.333 127.085 30.412 127.102 30.4979C127.119 30.5839 127.11 30.6729 127.076 30.7537C127.043 30.8346 126.986 30.9038 126.913 30.9525C126.841 31.0012 126.755 31.0272 126.667 31.0274Z" fill="white"/>
<path d="M83.0215 58.5737C83.0215 58.5737 79.4798 65.1456 75.3094 61.5684C71.1389 57.9912 62.2812 50.2737 56.2902 56.1599C50.2991 62.0461 50.404 63.8134 45.0667 61.2682C39.7293 58.7229 25.8751 63.5381 33.0579 78.4792C40.2408 93.4203 89.3072 69.7334 89.3072 69.7334L90.4423 65.2521L83.0215 58.5737Z" fill="#382256"/>
<path d="M61.4225 54.0164C66.5733 54.0164 72.2233 58.9275 75.3085 61.5686C76.1966 62.3324 77.0633 62.6343 77.8697 62.6343C80.8323 62.6343 83.0206 58.5775 83.0206 58.5775L90.4414 65.2559L89.3064 69.7372C89.3064 69.7372 60.9481 83.4261 44.1917 83.4261C38.9077 83.4261 34.7782 82.0656 33.0553 78.483C27.0768 66.0499 35.6715 60.6255 41.801 60.6255C42.9228 60.6004 44.0365 60.821 45.0639 61.272C46.65 62.0286 47.7548 62.4034 48.6819 62.4034C50.8755 62.4034 52.0763 60.3004 56.2875 56.1637C57.8488 54.6291 59.6035 54.0199 61.4206 54.0199L61.4225 54.0164ZM61.4206 53.4871C59.3176 53.4871 57.465 54.2597 55.9144 55.7836C54.7866 56.8902 53.8933 57.8333 53.1047 58.6646C51.0798 60.796 50.0638 61.8617 48.6819 61.8617C47.8933 61.8617 46.8791 61.5384 45.293 60.7818C44.1942 60.2963 43.0021 60.058 41.801 60.0837C38.7816 60.0837 34.3998 61.4212 32.0321 65.1938C30.494 67.6395 29.3395 71.9698 32.5792 78.7051C34.2523 82.1863 38.1618 83.9501 44.1954 83.9501C51.2077 83.9501 60.973 81.6411 73.2215 77.0728C82.3226 73.6803 89.4698 70.2416 89.5409 70.2079C89.6115 70.1733 89.6737 70.1235 89.7228 70.0621C89.772 70.0007 89.8069 69.9291 89.8252 69.8526L90.9601 65.3696C90.9849 65.2745 90.9829 65.1744 90.9543 65.0804C90.9258 64.9863 90.8719 64.902 90.7984 64.8367L83.3795 58.1584C83.2819 58.0706 83.1554 58.0219 83.0242 58.0216C82.9941 58.019 82.9636 58.019 82.9335 58.0216C82.854 58.0353 82.7788 58.0669 82.7132 58.114C82.6477 58.161 82.5936 58.2224 82.5552 58.2934C82.5357 58.3307 80.479 62.0695 77.8733 62.0695C77.1291 62.0695 76.383 61.7551 75.6583 61.1352L75.4986 60.9984C72.4205 58.3626 66.6905 53.4551 61.4259 53.4551L61.4206 53.4871Z" fill="black"/>
<path d="M93.6484 77.1061C93.6484 77.1061 79.535 75.9427 67.3611 82.7898C55.1873 89.6369 36.7738 100.34 41.3403 110.232C45.9068 120.123 54.2175 122.754 60.8178 122.752C65.0717 122.752 71.4463 119.022 71.4463 119.022C71.4463 119.022 67.6169 128.677 71.4463 145.131L142.633 145.613C142.633 145.613 156.487 83.8022 106.222 78.1185" fill="#07ACEE"/>
<path d="M142.634 145.882L71.4467 145.401C71.3867 145.401 71.3284 145.381 71.2815 145.344C71.2347 145.306 71.2021 145.254 71.1891 145.195C67.9458 131.261 70.2104 122.068 70.9742 119.597C69.2691 120.528 64.374 123.018 60.8199 123.02C55.6388 123.02 46.1967 121.371 41.1044 110.345C39.9996 107.949 40.1454 105.349 41.5379 102.615C42.7261 100.283 44.8681 97.7768 47.9071 95.1694C53.3191 90.5229 60.7222 86.2246 67.2371 82.5586C79.3435 75.7488 93.5351 76.8287 93.6772 76.8411C93.7122 76.8438 93.7462 76.8534 93.7775 76.8694C93.8087 76.8853 93.8363 76.9073 93.859 76.9341C93.8816 76.9609 93.8987 76.9919 93.9093 77.0253C93.9198 77.0587 93.9237 77.0939 93.9206 77.1289C93.9138 77.1989 93.8799 77.2636 93.8262 77.309C93.7724 77.3545 93.703 77.3772 93.6328 77.3722C93.4925 77.3615 79.4573 76.2958 67.4983 83.0222C61.0065 86.674 53.6299 90.9581 48.2535 95.5726C41.806 101.107 39.625 105.874 41.5894 110.121C46.5627 120.878 55.7632 122.485 60.8181 122.485C64.9495 122.485 71.2478 118.831 71.3117 118.794C71.3596 118.766 71.415 118.754 71.4703 118.759C71.5255 118.764 71.5777 118.786 71.6198 118.822C71.6618 118.858 71.6916 118.907 71.7048 118.961C71.718 119.015 71.714 119.071 71.6935 119.123C71.6562 119.217 67.9637 128.821 71.6581 144.877L142.419 145.355C142.692 144.035 144.136 136.652 144.117 127.316C144.097 117.865 142.532 104.436 135.183 94.1179C128.788 85.1358 119.032 79.8446 106.192 78.3935C106.157 78.3895 106.123 78.3787 106.092 78.3616C106.062 78.3446 106.034 78.3216 106.013 78.2941C105.991 78.2666 105.974 78.235 105.964 78.2011C105.955 78.1673 105.952 78.1319 105.956 78.0969C105.96 78.0619 105.971 78.028 105.988 77.9972C106.005 77.9664 106.028 77.9393 106.055 77.9173C106.083 77.8954 106.114 77.8791 106.148 77.8694C106.182 77.8596 106.217 77.8567 106.252 77.8606C119.249 79.3295 129.129 84.6953 135.618 93.8071C143.049 104.242 144.632 117.785 144.65 127.323C144.669 137.638 142.911 145.598 142.893 145.678C142.879 145.736 142.846 145.788 142.799 145.825C142.752 145.862 142.694 145.883 142.634 145.882Z" fill="black"/>
<path d="M67.196 109.537C68.6169 106.006 73.3593 103.155 76.091 95.724C78.8228 88.2925 69.2599 84.9533 69.2599 84.9533L69.7695 82.4525C69.7695 82.4525 63.2102 83.8574 56.6579 78.5254L54.5265 81.4259C54.5265 81.4259 46.3438 83.2305 45.8233 90.0687C45.3029 96.9069 38.5676 102.653 41.5729 110.907" fill="#07ACEE"/>
<path d="M41.5641 111.175C41.5091 111.175 41.4555 111.158 41.4106 111.126C41.3657 111.094 41.3318 111.049 41.3137 110.997C39.4167 105.789 41.3137 101.584 43.1485 97.4983C44.2817 94.9815 45.3528 92.6032 45.5499 90.0384C46.0544 83.5004 53.4183 81.4223 54.3668 81.1807L56.4432 78.3584C56.4645 78.3293 56.4914 78.3049 56.5224 78.2866C56.5535 78.2683 56.588 78.2566 56.6237 78.2521C56.6595 78.2476 56.6958 78.2504 56.7304 78.2605C56.765 78.2705 56.7971 78.2875 56.8249 78.3104C63.2049 83.5004 69.6489 82.1967 69.7146 82.1842C69.7579 82.1748 69.8029 82.1763 69.8454 82.1887C69.8879 82.2011 69.9266 82.224 69.958 82.2553C69.9889 82.2866 70.0117 82.3249 70.0244 82.367C70.0371 82.4091 70.0393 82.4537 70.0308 82.4968L69.5655 84.7757C70.5654 85.1629 74.6097 86.9071 76.2082 90.2818C77.0146 91.9904 77.059 93.8465 76.3414 95.7985C74.6843 100.306 72.2812 103.159 70.3488 105.45C69.0842 106.953 67.9917 108.248 67.4429 109.619C67.43 109.651 67.4108 109.681 67.3864 109.706C67.362 109.731 67.3328 109.751 67.3007 109.765C67.2685 109.779 67.2339 109.786 67.1989 109.787C67.1638 109.787 67.1291 109.781 67.0965 109.768C67.064 109.755 67.0344 109.736 67.0093 109.712C66.9842 109.687 66.9642 109.658 66.9503 109.626C66.9364 109.594 66.9289 109.559 66.9284 109.524C66.928 109.489 66.9344 109.454 66.9474 109.422C67.5299 107.971 68.6472 106.644 69.942 105.107C71.8461 102.846 74.2173 100.035 75.8407 95.6156C76.5085 93.8021 76.4693 92.0846 75.7269 90.5109C74.0342 86.9248 69.2192 85.2037 69.1712 85.1824C69.1094 85.162 69.0572 85.1196 69.0245 85.0633C68.9917 85.007 68.9808 84.9407 68.9936 84.8769L69.4269 82.7455C67.9154 82.9427 62.2939 83.2997 56.7025 78.877L54.7345 81.5537C54.6957 81.6057 54.6397 81.6422 54.5765 81.6567C54.4965 81.6745 46.5837 83.5004 46.0757 90.058C45.8714 92.7116 44.7311 95.2444 43.6281 97.6955C41.8377 101.672 39.9869 105.784 41.8092 110.789C41.8332 110.856 41.83 110.929 41.8 110.993C41.7701 111.057 41.7159 111.106 41.6495 111.13C41.6239 111.15 41.595 111.165 41.5641 111.175Z" fill="black"/>
<path d="M107.107 78.2407C107.107 78.2407 109.457 82.9706 103.95 84.2139C98.4443 85.4572 97.3786 82.6154 97.3786 82.6154C97.3786 82.6154 93.6487 86.1677 90.274 83.1482C86.8993 80.1287 90.9845 76.9316 90.9845 76.9316L107.107 78.2407Z" fill="white"/>
<path d="M101.376 84.7976C98.746 84.7976 97.6714 83.6218 97.2913 83.0321C96.3535 83.7852 93.08 86.0232 90.089 83.3465C89.1103 82.4709 88.6307 81.4904 88.668 80.4318C88.7355 78.3715 90.7284 76.7889 90.8137 76.7214C90.8645 76.6826 90.9274 76.6631 90.9913 76.6664L107.113 77.9736C107.159 77.9774 107.203 77.993 107.241 78.0189C107.279 78.0447 107.31 78.0799 107.33 78.121C107.375 78.2081 108.376 80.2684 107.508 82.1068C106.952 83.2773 105.773 84.0747 104.002 84.4744C103.141 84.6785 102.261 84.7869 101.376 84.7976ZM97.3784 82.3483C97.3979 82.3466 97.4175 82.3466 97.437 82.3483C97.4798 82.3587 97.5196 82.3792 97.5527 82.4083C97.5858 82.4374 97.6113 82.4741 97.6271 82.5153C97.6679 82.6201 98.7069 85.1174 103.892 83.9469C105.49 83.5916 106.556 82.8812 107.034 81.8741C107.68 80.5189 107.121 78.9487 106.927 78.4852L91.0695 77.1992C90.7143 77.5029 89.256 78.8475 89.2063 80.446C89.1761 81.3341 89.5952 82.1778 90.4496 82.9433C93.5969 85.7603 97.0463 82.5526 97.199 82.4105C97.2492 82.3686 97.313 82.3465 97.3784 82.3483Z" fill="black"/>
<path d="M93.8105 49.4042C97.5136 49.4042 100.516 46.4023 100.516 42.6992C100.516 38.9961 97.5136 35.9941 93.8105 35.9941C90.1074 35.9941 87.1055 38.9961 87.1055 42.6992C87.1055 46.4023 90.1074 49.4042 93.8105 49.4042Z" fill="#382256"/>
<path d="M93.8048 35.9918C95.4189 35.9905 96.9794 36.5715 98.1996 37.628C99.4198 38.6846 100.218 40.1459 100.447 41.7436C100.677 43.3413 100.322 44.9682 99.4489 46.3255C98.5753 47.6828 97.2414 48.6794 95.6922 49.1324C94.143 49.5854 92.4825 49.4644 91.0154 48.7915C89.5482 48.1186 88.3729 46.9391 87.7055 45.4694C87.0381 43.9998 86.9233 42.3387 87.382 40.7912C87.8408 39.2437 88.8424 37.9136 90.2029 37.0451C91.2788 36.3582 92.5284 35.9928 93.8048 35.9918ZM93.8048 35.459C92.197 35.4597 90.6352 35.9954 89.3655 36.9817C88.0958 37.968 87.1904 39.3488 86.7921 40.9065C86.3938 42.4642 86.5253 44.1101 87.1657 45.5849C87.8062 47.0596 88.9192 48.2793 90.3293 49.0516C91.7395 49.824 93.3666 50.105 94.9541 49.8506C96.5417 49.5961 97.9994 48.8205 99.0974 47.6461C100.196 46.4717 100.871 44.9652 101.019 43.3642C101.166 41.7632 100.777 40.1586 99.9115 38.8035C99.2579 37.7766 98.3554 36.9315 97.2878 36.3468C96.2202 35.7621 95.0221 35.4567 93.8048 35.459Z" fill="black"/>
<path d="M77.2868 65.327C77.2868 65.327 72.2373 61.7746 73.7896 57.4053C75.342 53.0359 76.4646 53.2881 77.1324 50.9329C77.8003 48.5777 81.6278 45.8922 85.4483 46.5884C85.4483 46.5884 89.6969 42.6702 93.9739 43.3185C98.2509 43.9668 99.8993 45.8051 101.416 48.9347C102.933 52.0643 104.258 53.3876 105.398 55.5527C106.539 57.7179 108.547 63.9185 100.185 69.4939C91.8229 75.0692 77.2868 65.327 77.2868 65.327Z" fill="#382256"/>
<path d="M92.9886 43.247C93.3155 43.2461 93.6421 43.2698 93.9655 43.3181C98.2283 43.9664 99.8908 45.8047 101.408 48.9343C102.925 52.0639 104.25 53.3872 105.39 55.5523C106.53 57.7174 108.539 63.918 100.177 69.4934C98.317 70.7367 96.1501 71.2163 93.9068 71.2163C86.0668 71.2163 77.2837 65.3265 77.2837 65.3265C77.2837 65.3265 72.234 61.7742 73.7864 57.4048C75.3388 53.0355 76.4613 53.2877 77.1292 50.9325C77.7224 48.8366 80.8254 46.4761 84.1948 46.4761C84.6118 46.4761 85.0279 46.5135 85.4381 46.588C85.4381 46.588 89.0615 43.247 92.9815 43.247H92.9886ZM92.9815 42.7142C89.3847 42.7142 86.1078 45.3091 85.2747 46.0214C84.9147 45.9694 84.5515 45.9433 84.1877 45.9432C80.5288 45.9432 77.2607 48.4974 76.6088 50.7868C76.3371 51.7442 75.9995 52.2078 75.5306 52.8543C74.9232 53.6909 74.1648 54.7317 73.2785 57.2272C72.5805 59.181 73.0103 61.2946 74.5218 63.3212C75.2167 64.2488 76.0423 65.0708 76.9729 65.7617H76.9835C78.7247 66.8854 80.544 67.8831 82.4275 68.7474C85.3742 70.1133 89.756 71.742 93.9034 71.742C96.4557 71.742 98.6653 71.1328 100.475 69.9304C104.205 67.4437 106.365 64.5432 106.869 61.3213C107.185 59.2566 106.831 57.1451 105.859 55.2965C105.381 54.4196 104.855 53.5704 104.281 52.7531C103.378 51.4648 102.576 50.1078 101.884 48.6945C100.321 45.469 98.5355 43.4673 94.0418 42.7852C93.692 42.7322 93.3389 42.7061 92.9851 42.7071L92.9815 42.7142Z" fill="black"/>
<path d="M93.2781 59.1711C93.2075 59.1742 93.1386 59.149 93.0865 59.1012C93.0343 59.0534 93.0033 58.9869 93.0003 58.9162C92.9972 58.8456 93.0222 58.7766 93.07 58.7245C93.1178 58.6723 93.1844 58.6413 93.2551 58.6383C96.0188 58.3914 98.5693 55.2831 98.5941 55.2529C98.6386 55.198 98.7032 55.1631 98.7735 55.1557C98.8438 55.1484 98.9141 55.1693 98.969 55.2138C99.0238 55.2583 99.0588 55.3228 99.0661 55.3931C99.0734 55.4634 99.0525 55.5337 99.008 55.5886C98.8996 55.7236 96.2922 58.9011 93.3029 59.1693L93.2781 59.1711Z" fill="black"/>
<path d="M100.426 36.3297C100.371 36.3298 100.317 36.3128 100.272 36.281C100.228 36.2491 100.194 36.2041 100.176 36.1521C99.6766 34.7489 98.8578 33.7703 97.7459 33.2445C95.7513 32.3032 93.444 33.1202 93.4209 33.1291C93.356 33.1469 93.2868 33.1395 93.2271 33.1084C93.1675 33.0772 93.1218 33.0247 93.0993 32.9612C93.0768 32.8978 93.0792 32.8282 93.1059 32.7664C93.1326 32.7046 93.1816 32.6553 93.2433 32.6282C93.3445 32.5909 95.7761 31.7259 97.9714 32.7596C99.2148 33.3476 100.131 34.4292 100.68 35.9745C100.692 36.0074 100.697 36.0423 100.695 36.0772C100.694 36.1121 100.685 36.1463 100.67 36.1778C100.655 36.2093 100.634 36.2376 100.608 36.2609C100.582 36.2842 100.551 36.3022 100.518 36.3138C100.489 36.3248 100.458 36.3302 100.426 36.3297Z" fill="black"/>
<path d="M90.6814 74.4853V77.1495C90.6814 77.1495 95.2994 84.0766 104.18 78.3928C104.18 78.3928 99.8251 72.1318 97.4912 64.7004C97.4912 64.7004 100.779 63.8123 100.104 60.8621C99.429 57.9119 97.0135 57.5317 95.6441 58.4074C95.6441 58.4074 90.3155 62.5281 84.1167 51.3027C84.1167 51.3027 78.3689 54.0078 77.4595 60.1338C76.5501 66.2598 78.1008 73.2242 82.8574 75.0092C87.614 76.7943 90.6814 74.4853 90.6814 74.4853Z" fill="#FFCDB2"/>
<path d="M84.1098 51.3004C87.687 57.7746 90.9711 59.1458 93.1114 59.1458C94.009 59.1636 94.8907 58.9057 95.6372 58.4069C96.0693 58.136 96.5693 57.9931 97.0793 57.9948C98.3013 57.9948 99.6263 58.803 100.099 60.8615C100.774 63.8064 97.486 64.6998 97.486 64.6998C99.8199 72.1313 104.175 78.3923 104.175 78.3923C101.591 80.0459 99.3689 80.632 97.5164 80.632C92.9996 80.632 90.6762 77.149 90.6762 77.149V74.4847C90.6762 74.4847 89.0777 75.6854 86.4134 75.6854C85.1981 75.675 83.9947 75.4451 82.8611 75.0069C78.1045 73.2307 76.5522 66.2575 77.4634 60.1315C78.3746 54.0055 84.1204 51.3004 84.1204 51.3004H84.1098ZM84.1204 50.7676C84.0417 50.7673 83.9641 50.7849 83.8932 50.8191C82.753 51.4041 81.7016 52.148 80.7706 53.0286C78.6517 54.9984 77.3267 57.4264 76.9359 60.0534C76.4493 63.3233 76.6606 66.6252 77.5291 69.3587C78.5256 72.4919 80.3053 74.6162 82.68 75.506C83.8753 75.9659 85.1436 76.2066 86.4242 76.2165C87.7126 76.2248 88.9867 75.9463 90.1541 75.4012V77.149C90.1546 77.2538 90.1855 77.3562 90.243 77.4438C90.3442 77.5966 92.7793 81.1649 97.5252 81.1649C99.7241 81.1649 102.061 80.3834 104.472 78.8417C104.532 78.8029 104.584 78.7525 104.624 78.6933C104.664 78.6341 104.692 78.5673 104.706 78.4971C104.72 78.4268 104.72 78.3543 104.705 78.2841C104.691 78.214 104.662 78.1474 104.621 78.0886C104.58 78.0282 100.474 72.078 98.1592 65.0249C98.5999 64.8401 99.0133 64.5964 99.3883 64.3002C100.523 63.3908 100.953 62.1599 100.632 60.7479C100.077 58.3287 98.4398 57.4673 97.0935 57.4673C96.4822 57.4661 95.8832 57.6379 95.3654 57.9628L95.3245 57.9895C94.6706 58.4137 93.9049 58.6326 93.1256 58.6182C91.1398 58.6182 88.0476 57.3039 84.5894 51.0482C84.5435 50.965 84.4761 50.8956 84.3943 50.8472C84.3124 50.7987 84.2191 50.7731 84.124 50.7729L84.1204 50.7676Z" fill="black"/>
<path d="M90.5912 75.0152C90.5283 75.0147 90.4676 74.9919 90.4199 74.9509C90.3722 74.9099 90.3405 74.8533 90.3305 74.7912C90.3205 74.729 90.3328 74.6654 90.3652 74.6115C90.3977 74.5576 90.4482 74.5169 90.5078 74.4966C93.0531 73.6476 94.9855 70.8448 95.0032 70.8164C95.043 70.7577 95.1044 70.7173 95.1741 70.704C95.2437 70.6907 95.3158 70.7055 95.3744 70.7453C95.4331 70.7851 95.4735 70.8466 95.4868 70.9162C95.5001 70.9858 95.4853 71.0579 95.4455 71.1166C95.362 71.2373 93.394 74.0952 90.6747 75.001C90.648 75.011 90.6197 75.0159 90.5912 75.0152Z" fill="black"/>
<path d="M69.9941 71.3613C69.9941 71.3613 72.3937 77.5566 68.9284 83.8087C65.4631 90.0608 58.8291 80.8229 58.8291 80.8229L69.9941 71.3613Z" fill="#FFCDB2"/>
<path d="M65.8423 86.2459C62.4268 86.2459 58.7643 81.1963 58.6062 80.976C58.5674 80.9222 58.5504 80.8556 58.5587 80.7897C58.5669 80.7238 58.5997 80.6635 58.6506 80.6208L69.8209 71.1592C69.8532 71.1316 69.8919 71.1122 69.9333 71.1026C69.9746 71.093 70.0176 71.0934 70.0588 71.1039C70.1 71.1143 70.1382 71.1344 70.17 71.1626C70.2018 71.1907 70.2264 71.2261 70.2418 71.2657C70.2667 71.3297 72.645 77.6493 69.1548 83.9387C68.3466 85.3933 67.2987 86.1678 66.0394 86.2477C65.9737 86.2441 65.9081 86.2459 65.8423 86.2459ZM59.1871 80.8624C59.9136 81.8126 63.1905 85.8729 66.0075 85.7077C67.0732 85.6456 67.9756 84.9635 68.6896 83.6776C71.5847 78.4592 70.288 73.2177 69.8653 71.8181L59.1871 80.8624Z" fill="black"/>
<path d="M97.4098 63.3264C97.3663 63.3264 97.3237 63.3154 97.2856 63.2945C97.2245 63.2613 97.1788 63.2056 97.1583 63.1392C97.1377 63.0729 97.1439 63.0011 97.1754 62.9392C97.6923 61.9712 97.8041 61.2199 97.5111 60.7048C97.0937 59.9766 95.957 59.9215 95.9463 59.9197C95.9114 59.9185 95.8769 59.9103 95.845 59.8957C95.8132 59.8811 95.7846 59.8604 95.7607 59.8348C95.7369 59.8092 95.7183 59.7791 95.7061 59.7463C95.6939 59.7134 95.6884 59.6785 95.6896 59.6435C95.6909 59.6086 95.699 59.5742 95.7136 59.5423C95.7281 59.5105 95.749 59.4818 95.7746 59.458C95.8003 59.4342 95.8303 59.4156 95.8631 59.4034C95.8959 59.3912 95.9308 59.3856 95.9658 59.3869C96.0244 59.3869 97.4045 59.4508 97.9711 60.4366C98.3654 61.1204 98.2552 62.0458 97.646 63.1879C97.6229 63.2302 97.5888 63.2654 97.5471 63.2898C97.5055 63.3142 97.458 63.3269 97.4098 63.3264Z" fill="black"/>
<path d="M84.3696 60.3437C87.8154 60.6048 92.1279 58.525 93.0729 59.6155C94.0178 60.7061 93.6378 62.3881 91.8776 63.0293C90.1174 63.6705 88.3092 63.8606 84.5846 64.0684C80.8599 64.2762 77.1976 64.2051 77.3503 62.1785C77.5031 60.1519 79.3129 59.9619 84.3696 60.3437Z" fill="#FFB49F"/>
<path d="M80.2003 58.7111C80.1354 58.7119 80.0723 58.6892 80.0227 58.6472C79.9961 58.6245 79.9742 58.5968 79.9584 58.5657C79.9425 58.5345 79.9331 58.5006 79.9304 58.4657C79.9278 58.4309 79.9321 58.3959 79.9431 58.3627C79.9541 58.3295 79.9714 58.2988 79.9943 58.2724C80.0405 58.2174 81.1612 56.9279 82.6585 57.0291C82.7292 57.0343 82.7949 57.0673 82.8412 57.1209C82.8875 57.1746 82.9107 57.2444 82.9055 57.3151C82.9003 57.3857 82.8672 57.4514 82.8136 57.4977C82.76 57.544 82.6902 57.5671 82.6195 57.5619C81.3886 57.4696 80.4045 58.601 80.3956 58.6134C80.3717 58.6424 80.342 58.6661 80.3084 58.6829C80.2747 58.6998 80.2379 58.7093 80.2003 58.7111Z" fill="black"/>
<path d="M84.015 66.5435H83.9599C83.9256 66.5365 83.8931 66.5228 83.8641 66.5032C83.8352 66.4836 83.8104 66.4584 83.7913 66.4292C83.7721 66.4 83.759 66.3672 83.7526 66.3329C83.7462 66.2985 83.7465 66.2633 83.7538 66.2291L84.887 60.762C84.9011 60.6928 84.9422 60.632 85.0011 60.593C85.0601 60.554 85.1322 60.5401 85.2015 60.5542C85.2707 60.5683 85.3314 60.6094 85.3704 60.6684C85.4094 60.7273 85.4234 60.7993 85.4093 60.8686L84.2761 66.3374C84.2624 66.3963 84.229 66.4487 84.1815 66.4862C84.1341 66.5236 84.0755 66.5438 84.015 66.5435Z" fill="black"/>
<path d="M98.8427 65.6133C99.449 65.6133 99.9403 65.1219 99.9403 64.5156C99.9403 63.9094 99.449 63.418 98.8427 63.418C98.2365 63.418 97.7451 63.9094 97.7451 64.5156C97.7451 65.1219 98.2365 65.6133 98.8427 65.6133Z" fill="#07ACEE"/>
<path d="M98.8497 63.4196C99.1139 63.4174 99.3699 63.5106 99.571 63.682C99.772 63.8534 99.9045 64.0916 99.9441 64.3528C99.9836 64.6139 99.9276 64.8806 99.7864 65.1039C99.6452 65.3272 99.4283 65.492 99.1753 65.5682C98.9224 65.6444 98.6504 65.6268 98.4093 65.5187C98.1683 65.4105 97.9744 65.2191 97.8631 64.9795C97.7519 64.7399 97.7307 64.4682 97.8036 64.2143C97.8765 63.9604 98.0386 63.7413 98.26 63.5972C98.4356 63.4829 98.6403 63.4213 98.8497 63.4196ZM98.8497 62.8867C98.5426 62.8879 98.242 62.9759 97.9826 63.1404C97.7233 63.3049 97.5157 63.5394 97.3837 63.8167C97.2517 64.094 97.2009 64.403 97.2368 64.708C97.2727 65.0131 97.3942 65.3017 97.587 65.5408C97.7798 65.7799 98.0361 65.9596 98.3266 66.0594C98.6171 66.1591 98.9299 66.1748 99.2289 66.1046C99.5279 66.0344 99.801 65.8812 100.017 65.6625C100.232 65.4439 100.382 65.1688 100.448 64.8689C100.501 64.6302 100.499 64.3827 100.443 64.1448C100.387 63.9069 100.278 63.6846 100.125 63.4943C99.9712 63.3041 99.7769 63.1507 99.5562 63.0455C99.3356 62.9404 99.0942 62.8861 98.8497 62.8867Z" fill="black"/>
<path d="M90.0435 62.0968C90.3869 62.0968 90.6652 61.8185 90.6652 61.4752C90.6652 61.1318 90.3869 60.8535 90.0435 60.8535C89.7002 60.8535 89.4219 61.1318 89.4219 61.4752C89.4219 61.8185 89.7002 62.0968 90.0435 62.0968Z" fill="black"/>
<path d="M80.9517 62.7218C81.2951 62.7218 81.5734 62.4435 81.5734 62.1002C81.5734 61.7568 81.2951 61.4785 80.9517 61.4785C80.6084 61.4785 80.3301 61.7568 80.3301 62.1002C80.3301 62.4435 80.6084 62.7218 80.9517 62.7218Z" fill="black"/>
<path d="M87.281 70.9885C87.0703 70.9879 86.8606 70.9592 86.6574 70.9033C86.6217 70.8961 86.5878 70.8817 86.5579 70.8609C86.5279 70.8401 86.5025 70.8134 86.4833 70.7824C86.4641 70.7514 86.4515 70.7168 86.4462 70.6807C86.4409 70.6446 86.4431 70.6078 86.4526 70.5726C86.4621 70.5374 86.4786 70.5045 86.5013 70.476C86.5241 70.4475 86.5524 70.4239 86.5846 70.4068C86.6168 70.3897 86.6523 70.3793 86.6887 70.3764C86.725 70.3736 86.7615 70.3782 86.796 70.39C88.5189 70.8536 89.6699 68.5889 89.6806 68.5658C89.7121 68.5025 89.7675 68.4543 89.8346 68.4318C89.9017 68.4093 89.975 68.4144 90.0384 68.446C90.1018 68.4775 90.15 68.533 90.1725 68.6001C90.195 68.6672 90.1898 68.7405 90.1583 68.8039C90.1085 68.9016 89.0501 70.9885 87.281 70.9885Z" fill="black"/>
<path d="M86.6233 57.1991C86.5709 57.1999 86.5193 57.1851 86.4753 57.1567C86.4313 57.1282 86.3968 57.0873 86.3761 57.0392C86.3553 56.991 86.3494 56.9379 86.3589 56.8863C86.3684 56.8348 86.3931 56.7873 86.4297 56.7497C86.5185 56.6574 87.3177 55.8492 88.0601 56.1103C88.0932 56.122 88.1236 56.14 88.1496 56.1634C88.1757 56.1868 88.1968 56.2151 88.2119 56.2467C88.227 56.2783 88.2357 56.3125 88.2376 56.3475C88.2394 56.3824 88.2343 56.4174 88.2227 56.4504C88.211 56.4834 88.193 56.5138 88.1696 56.5398C88.1462 56.5659 88.1179 56.587 88.0863 56.6021C88.0548 56.6172 88.0203 56.626 87.9854 56.6278C87.9504 56.6297 87.9155 56.6246 87.8825 56.613C87.5273 56.4869 86.9785 56.9469 86.8168 57.1174C86.7919 57.1436 86.7619 57.1644 86.7285 57.1784C86.6952 57.1925 86.6594 57.1995 86.6233 57.1991Z" fill="black"/>
<path d="M54.7286 81.6227C54.7126 81.605 56.7499 78.875 56.7499 78.875C63.3021 84.2035 69.4725 82.7222 69.4725 82.7222L69.0321 85.2301L69.0942 85.1218C69.0942 85.1218 62.4549 89.8481 54.7286 81.6227Z" fill="#0598C6"/>
<path d="M115.766 88.6768C116.565 88.6768 117.212 88.0295 117.212 87.231C117.212 86.4325 116.565 85.7852 115.766 85.7852C114.968 85.7852 114.32 86.4325 114.32 87.231C114.32 88.0295 114.968 88.6768 115.766 88.6768Z" fill="#51CEF4"/>
<path d="M134.238 104.306C135.036 104.306 135.684 103.658 135.684 102.86C135.684 102.061 135.036 101.414 134.238 101.414C133.439 101.414 132.792 102.061 132.792 102.86C132.792 103.658 133.439 104.306 134.238 104.306Z" fill="#51CEF4"/>
<path d="M111.859 104.841C112.657 104.841 113.305 104.194 113.305 103.395C113.305 102.597 112.657 101.949 111.859 101.949C111.061 101.949 110.413 102.597 110.413 103.395C110.413 104.194 111.061 104.841 111.859 104.841Z" fill="#51CEF4"/>
<path d="M81.6647 90.0967C82.4632 90.0967 83.1104 89.4494 83.1104 88.6509C83.1104 87.8524 82.4632 87.2051 81.6647 87.2051C80.8662 87.2051 80.2188 87.8524 80.2188 88.6509C80.2188 89.4494 80.8662 90.0967 81.6647 90.0967Z" fill="#51CEF4"/>
<path d="M93.9195 98.0908C94.718 98.0908 95.3653 97.4435 95.3653 96.645C95.3653 95.8465 94.718 95.1992 93.9195 95.1992C93.1211 95.1992 92.4736 95.8465 92.4736 96.645C92.4736 97.4435 93.1211 98.0908 93.9195 98.0908Z" fill="#51CEF4"/>
<path d="M78.8219 128.819C79.6204 128.819 80.2676 128.172 80.2676 127.374C80.2676 126.575 79.6204 125.928 78.8219 125.928C78.0234 125.928 77.376 126.575 77.376 127.374C77.376 128.172 78.0234 128.819 78.8219 128.819Z" fill="#51CEF4"/>
<path d="M98.7154 124.2C99.5139 124.2 100.161 123.553 100.161 122.754C100.161 121.956 99.5139 121.309 98.7154 121.309C97.9169 121.309 97.2695 121.956 97.2695 122.754C97.2695 123.553 97.9169 124.2 98.7154 124.2Z" fill="#51CEF4"/>
<path d="M81.6647 109.636C82.4632 109.636 83.1104 108.988 83.1104 108.19C83.1104 107.391 82.4632 106.744 81.6647 106.744C80.8662 106.744 80.2188 107.391 80.2188 108.19C80.2188 108.988 80.8662 109.636 81.6647 109.636Z" fill="#51CEF4"/>
<path d="M121.095 121.358C121.894 121.358 122.541 120.711 122.541 119.913C122.541 119.114 121.894 118.467 121.095 118.467C120.297 118.467 119.649 119.114 119.649 119.913C119.649 120.711 120.297 121.358 121.095 121.358Z" fill="#51CEF4"/>
<path d="M70.2975 100.933C71.096 100.933 71.7432 100.285 71.7432 99.4868C71.7432 98.6883 71.096 98.041 70.2975 98.041C69.499 98.041 68.8516 98.6883 68.8516 99.4868C68.8516 100.285 69.499 100.933 70.2975 100.933Z" fill="#51CEF4"/>
<path d="M57.3307 93.6494C58.1292 93.6494 58.7764 93.0021 58.7764 92.2036C58.7764 91.4051 58.1292 90.7578 57.3307 90.7578C56.5322 90.7578 55.8848 91.4051 55.8848 92.2036C55.8848 93.0021 56.5322 93.6494 57.3307 93.6494Z" fill="#51CEF4"/>
<path d="M47.5621 104.841C48.3606 104.841 49.0079 104.194 49.0079 103.395C49.0079 102.597 48.3606 101.949 47.5621 101.949C46.7636 101.949 46.1162 102.597 46.1162 103.395C46.1162 104.194 46.7636 104.841 47.5621 104.841Z" fill="#51CEF4"/>
<path d="M55.9108 117.983C56.7092 117.983 57.3565 117.336 57.3565 116.538C57.3565 115.739 56.7092 115.092 55.9108 115.092C55.1123 115.092 54.4648 115.739 54.4648 116.538C54.4648 117.336 55.1123 117.983 55.9108 117.983Z" fill="#51CEF4"/>
<path d="M41.3027 96.1294C40.3287 97.1796 39.4931 98.3501 38.8161 99.6124C38.1385 100.869 37.6212 102.206 37.2761 103.591C36.9266 104.999 36.7624 106.446 36.7877 107.896C36.8452 110.888 37.688 113.811 39.2317 116.374C39.3276 116.532 39.427 116.688 39.5283 116.845C39.5641 116.906 39.6227 116.95 39.6911 116.968C39.7596 116.986 39.8324 116.976 39.8934 116.94C39.9544 116.904 39.9985 116.845 40.0164 116.777C40.0342 116.709 40.0241 116.636 39.9883 116.575C39.1901 115.363 38.557 114.05 38.1056 112.671C37.6611 111.302 37.3972 109.881 37.3205 108.444C37.2448 107.029 37.3571 105.611 37.6544 104.227C37.9454 102.877 38.4036 101.568 39.0185 100.332C39.6362 99.0888 40.4091 97.9292 41.3186 96.8807C41.4323 96.7528 41.5461 96.6249 41.6633 96.4988C41.896 96.2484 41.5212 95.87 41.2867 96.1223L41.3027 96.1294Z" fill="black"/>
<path d="M68.4903 76.0205C70.5507 72.8945 70.3979 69.3634 68.6253 66.4896C65.7834 61.8929 67.1866 60.0563 66.3589 56.8983C65.5312 53.7403 61.6734 55.8575 60.7959 61.3192C60.7959 61.3192 53.5971 59.7206 54.9665 66.772C54.9665 66.772 50.4479 68.2533 53.8635 73.0934C53.8635 73.0934 51.0838 75.3029 52.7517 78.4023C54.4195 81.5018 59.9736 82.0328 62.2666 80.9796" fill="#FFCDB2"/>
<path d="M59.4373 81.7444C56.8672 81.7444 53.7536 80.8332 52.5103 78.5331C51.0236 75.7711 52.8869 73.6522 53.5051 73.0571C52.4216 71.4586 52.0734 70.027 52.473 68.8192C52.9188 67.4747 54.1516 66.8246 54.6578 66.6079C54.3026 64.5742 54.6328 63.0556 55.6328 62.0769C57.1532 60.5991 59.7181 60.8744 60.5724 61.0112C61.2225 57.4411 63.1833 55.2422 64.7499 55.1641C65.638 55.1232 66.3184 55.7289 66.6097 56.8337C66.9009 57.9384 66.924 58.9189 66.9453 59.8531C66.9844 61.5956 67.0235 63.4055 68.8458 66.3486C70.7623 69.4533 70.7107 73.1229 68.7072 76.1654C68.6684 76.2246 68.6076 76.2658 68.5383 76.2801C68.469 76.2945 68.3969 76.2807 68.3378 76.2418C68.2787 76.203 68.2374 76.1422 68.2231 76.0729C68.2088 76.0036 68.2226 75.9315 68.2615 75.8724C70.1762 72.9648 70.224 69.5954 68.391 66.6363C66.4941 63.5635 66.4533 61.6879 66.4124 59.8744C66.3911 58.9277 66.3716 58.0343 66.0945 56.9757C65.8707 56.1249 65.4054 55.672 64.7766 55.704C63.4125 55.7715 61.6008 57.9562 61.0466 61.3717C61.0407 61.4075 61.0275 61.4417 61.008 61.4722C60.9884 61.5027 60.9628 61.529 60.9329 61.5494C60.903 61.5702 60.8691 61.5846 60.8333 61.5916C60.7975 61.5987 60.7606 61.5982 60.7251 61.5902C60.6931 61.5902 57.5885 60.9153 55.9971 62.4659C55.0983 63.3397 54.8336 64.7749 55.2137 66.7287C55.2262 66.7925 55.215 66.8586 55.1824 66.9148C55.1497 66.971 55.0977 67.0134 55.0361 67.0342C55.0219 67.0342 53.4376 67.5777 52.9722 68.9879C52.617 70.075 52.9846 71.4053 54.0698 72.9417C54.107 72.9967 54.1224 73.0636 54.1128 73.1293C54.1033 73.195 54.0696 73.2548 54.0183 73.2969C53.9117 73.3822 51.434 75.4106 52.9739 78.2702C54.6098 81.3057 60.0466 81.6946 62.1443 80.732C62.1761 80.7174 62.2106 80.7092 62.2456 80.7079C62.2806 80.7066 62.3154 80.7123 62.3482 80.7245C62.3811 80.7367 62.4112 80.7552 62.4369 80.7791C62.4625 80.8029 62.4832 80.8315 62.4978 80.8634C62.5123 80.8952 62.5204 80.9296 62.5217 80.9646C62.523 80.9996 62.5174 81.0345 62.5052 81.0673C62.493 81.1002 62.4744 81.1303 62.4506 81.1559C62.4267 81.1816 62.3981 81.2023 62.3663 81.2169C61.6576 81.5579 60.6025 81.7444 59.4373 81.7444Z" fill="black"/>
<path d="M53.2979 78.985C53.2979 78.985 58.8359 81.5409 61.4682 78.477C64.6653 74.7471 57.5606 72.9478 54.1433 72.9709" fill="#FFCDB2"/>
<path d="M57.7258 80.2617C55.4665 80.2617 53.3299 79.2937 53.186 79.2279C53.1247 79.1966 53.078 79.1427 53.0556 79.0776C53.0332 79.0125 53.0367 78.9413 53.0656 78.8788C53.0946 78.8164 53.1465 78.7675 53.2107 78.7425C53.2748 78.7175 53.3462 78.7184 53.4098 78.7448C53.4631 78.7679 58.7969 81.18 61.2605 78.3043C61.9709 77.4766 62.1715 76.7164 61.8571 76.0415C61.0383 74.2778 56.8039 73.2245 54.1397 73.2423C54.069 73.2423 54.0013 73.2142 53.9513 73.1642C53.9013 73.1143 53.8732 73.0465 53.8732 72.9758C53.8732 72.9052 53.9013 72.8374 53.9513 72.7874C54.0013 72.7375 54.069 72.7094 54.1397 72.7094C56.4949 72.6863 61.3083 73.5851 62.3456 75.8177C62.7559 76.7058 62.5232 77.6507 61.6707 78.6596C60.6139 79.8798 59.145 80.2617 57.7258 80.2617Z" fill="black"/>
<path d="M54.8008 66.8661C54.8008 66.8661 61.9427 66.4522 63.4169 69.7754C64.8911 73.0986 60.0422 74.0382 60.0422 74.0382" fill="#FFCDB2"/>
<path d="M60.0405 74.3045C59.9698 74.3113 59.8993 74.2898 59.8445 74.2447C59.7897 74.1996 59.7552 74.1345 59.7484 74.0638C59.7416 73.9932 59.7629 73.9227 59.8081 73.8679C59.8532 73.8131 59.9183 73.7785 59.989 73.7717C60.0138 73.7717 62.4756 73.2726 63.2145 71.8374C63.5111 71.269 63.4969 70.6101 63.1719 69.8836C61.79 66.7682 54.8825 67.1288 54.8239 67.1324C54.7532 67.1366 54.6838 67.1126 54.6308 67.0656C54.5779 67.0187 54.5457 66.9526 54.5415 66.8819C54.5373 66.8112 54.5613 66.7418 54.6083 66.6888C54.6552 66.6359 54.7213 66.6037 54.792 66.5995C55.0921 66.5817 62.1364 66.2141 63.6728 69.6652C64.0671 70.5533 64.0759 71.3685 63.6993 72.0896C62.8326 73.7521 60.2164 74.2761 60.1062 74.2974L60.0405 74.3045Z" fill="black"/>
<path d="M60.7783 61.4609C60.7783 61.4609 65.295 62.0382 65.192 64.9795C65.1103 67.2885 61.6397 67.999 61.6397 67.999" fill="#FFCDB2"/>
<path d="M61.6407 68.2657C61.57 68.2728 61.4995 68.2515 61.4445 68.2065C61.3895 68.1615 61.3546 68.0966 61.3475 68.0259C61.3405 67.9553 61.3619 67.8847 61.4069 67.8297C61.4518 67.7748 61.5168 67.7399 61.5874 67.7328C61.6212 67.7328 64.8538 67.0437 64.9266 64.9656C65.0207 62.3013 60.7881 61.7259 60.7455 61.7205C60.6748 61.7116 60.6106 61.6749 60.567 61.6186C60.5234 61.5623 60.5039 61.491 60.5129 61.4203C60.5218 61.3497 60.5584 61.2855 60.6147 61.2418C60.671 61.1982 60.7423 61.1787 60.813 61.1877C61.0066 61.2125 65.5696 61.8324 65.4594 64.9798C65.3706 67.4789 61.8431 68.2213 61.6939 68.2515C61.6767 68.258 61.6589 68.2628 61.6407 68.2657Z" fill="black"/>
<path d="M63.2207 72.4219C63.2207 72.4219 68.2863 74.1146 66.7446 77.1998L63.2207 72.4219Z" fill="#FFCDB2"/>
<path d="M66.7437 77.466C66.6983 77.4659 66.6538 77.4542 66.6141 77.4321C66.5745 77.41 66.5412 77.3781 66.5174 77.3395C66.4935 77.3009 66.4799 77.2569 66.4778 77.2115C66.4758 77.1662 66.4855 77.1211 66.5057 77.0805C66.6577 76.8106 66.7465 76.5098 66.7656 76.2006C66.7846 75.8915 66.7333 75.582 66.6157 75.2955C65.9248 73.6259 63.1629 72.6845 63.1345 72.6756C63.0674 72.6521 63.0123 72.6028 62.9815 72.5387C62.9507 72.4746 62.9467 72.4009 62.9702 72.3337C62.9938 72.2666 63.043 72.2116 63.1071 72.1808C63.1712 72.15 63.245 72.1459 63.3121 72.1694C63.4364 72.2103 66.3316 73.196 67.1166 75.0912C67.2629 75.4484 67.3275 75.8338 67.3057 76.2192C67.2839 76.6045 67.1762 76.9801 66.9905 77.3185C66.9678 77.3641 66.9325 77.4023 66.8887 77.4284C66.845 77.4545 66.7947 77.4676 66.7437 77.466Z" fill="black"/>
<path d="M75.316 104.764C75.316 104.764 70.8756 116.991 70.3428 123.31L75.316 104.764Z" fill="#382256"/>
<path d="M70.3395 123.576H70.3162C70.246 123.57 70.1812 123.536 70.1357 123.482C70.0901 123.428 70.0676 123.359 70.0731 123.288C70.6059 117.006 75.0213 104.795 75.0658 104.672C75.0754 104.637 75.0924 104.604 75.1154 104.576C75.1384 104.547 75.167 104.524 75.1995 104.507C75.2319 104.49 75.2675 104.48 75.3041 104.477C75.3406 104.475 75.3773 104.48 75.4118 104.492C75.4463 104.504 75.4778 104.523 75.5046 104.548C75.5313 104.573 75.5527 104.604 75.5672 104.637C75.5817 104.671 75.5892 104.707 75.5891 104.744C75.589 104.78 75.5814 104.817 75.5667 104.85C75.5223 104.973 71.1262 117.118 70.604 123.322C70.6012 123.391 70.5722 123.455 70.5228 123.502C70.4735 123.55 70.4079 123.576 70.3395 123.576Z" fill="black"/>
<path d="M46.1863 70.0418C46.1554 70.0417 46.1248 70.0363 46.0958 70.0258C41.4167 68.3559 37.2982 65.41 34.206 61.5215C31.6945 58.3866 29.7248 54.5731 28.3447 50.1842C26.0037 42.7243 26.1992 36.085 26.201 36.0193C26.2042 35.949 26.2347 35.8827 26.2861 35.8345C26.3376 35.7864 26.4058 35.7603 26.4762 35.7618C26.5112 35.7629 26.5456 35.771 26.5775 35.7854C26.6094 35.7999 26.6381 35.8205 26.662 35.8461C26.6859 35.8716 26.7045 35.9016 26.7168 35.9344C26.7291 35.9672 26.735 36.0021 26.7338 36.0371C26.7338 36.1028 26.542 42.6622 28.8652 50.0404C30.9966 56.8236 35.746 65.7097 46.2805 69.5249C46.3394 69.5463 46.3887 69.5877 46.4201 69.6419C46.4515 69.6961 46.4628 69.7597 46.452 69.8213C46.4412 69.883 46.4089 69.9389 46.361 69.9793C46.313 70.0196 46.2524 70.0417 46.1898 70.0418H46.1863Z" fill="black"/>
<path d="M38.3417 71.625H38.3187C32.9902 71.1507 29.1092 67.8488 26.7984 65.1633C25.2935 63.4176 24.0267 61.4801 23.0312 59.4014C23.0139 59.369 23.0036 59.3334 23.0008 59.2968C22.998 59.2602 23.0026 59.2234 23.0147 59.1887C23.0267 59.1541 23.0458 59.1223 23.0707 59.0953C23.0956 59.0684 23.1259 59.0469 23.1595 59.0321C23.1931 59.0174 23.2293 59.0098 23.266 59.0098C23.3027 59.0097 23.339 59.0173 23.3727 59.0319C23.4063 59.0466 23.4367 59.068 23.4617 59.0949C23.4866 59.1218 23.5058 59.1536 23.5179 59.1882C23.5676 59.2984 28.4911 70.2165 38.3648 71.0886C38.4355 71.0916 38.5021 71.1226 38.5499 71.1747C38.5977 71.2269 38.6227 71.2959 38.6196 71.3665C38.6166 71.4372 38.5857 71.5037 38.5336 71.5515C38.4815 71.5993 38.4124 71.6245 38.3417 71.6214V71.625Z" fill="black"/>
<path d="M85.3942 142.138C86.1926 142.138 86.8399 141.49 86.8399 140.692C86.8399 139.893 86.1926 139.246 85.3942 139.246C84.5957 139.246 83.9482 139.893 83.9482 140.692C83.9482 141.49 84.5957 142.138 85.3942 142.138Z" fill="#51CEF4"/>
<path d="M137.969 123.312C138.768 123.312 139.415 122.664 139.415 121.866C139.415 121.067 138.768 120.42 137.969 120.42C137.171 120.42 136.523 121.067 136.523 121.866C136.523 122.664 137.171 123.312 137.969 123.312Z" fill="#51CEF4"/>
<path d="M131.397 133.081C132.196 133.081 132.843 132.434 132.843 131.635C132.843 130.837 132.196 130.189 131.397 130.189C130.599 130.189 129.951 130.837 129.951 131.635C129.951 132.434 130.599 133.081 131.397 133.081Z" fill="#51CEF4"/>
<path d="M102.268 140.896C103.067 140.896 103.714 140.248 103.714 139.45C103.714 138.651 103.067 138.004 102.268 138.004C101.47 138.004 100.822 138.651 100.822 139.45C100.822 140.248 101.47 140.896 102.268 140.896Z" fill="#51CEF4"/>
<path d="M93.6747 58.1424C93.5252 58.1426 93.3757 58.1349 93.227 58.1194C89.9909 57.7925 87.0105 54.0058 86.8844 53.8441C86.7977 53.7325 86.759 53.591 86.7766 53.4507C86.7943 53.3105 86.8669 53.183 86.9785 53.0964C87.0902 53.0097 87.2317 52.9709 87.3719 52.9886C87.5122 53.0062 87.6396 53.0789 87.7263 53.1905C87.7529 53.226 90.5539 56.7801 93.3372 57.059C93.7558 57.1072 94.1798 57.0653 94.5808 56.936C94.9819 56.8067 95.3506 56.5931 95.6622 56.3095C95.7153 56.264 95.777 56.2294 95.8436 56.2077C95.9101 56.1861 95.9802 56.1777 96.05 56.1832C96.1198 56.1886 96.1878 56.2077 96.2502 56.2394C96.3125 56.2712 96.3681 56.3149 96.4136 56.3681C96.459 56.4212 96.4935 56.4829 96.5152 56.5494C96.5369 56.6159 96.5453 56.6861 96.5398 56.7559C96.5344 56.8256 96.5152 56.8936 96.4835 56.956C96.4517 57.0184 96.4081 57.0739 96.3549 57.1194C95.6175 57.778 94.6635 58.1422 93.6747 58.1424Z" fill="white"/>
<path d="M99.3589 40.9624C99.2547 40.9626 99.1527 40.9323 99.0655 40.8752C98.9784 40.818 98.9098 40.7366 98.8685 40.6409C96.7922 35.8453 91.7639 37.6534 91.5526 37.7316C91.4202 37.7813 91.2735 37.7764 91.1448 37.7179C91.016 37.6594 90.9157 37.5522 90.866 37.4199C90.8163 37.2875 90.8213 37.1408 90.8797 37.0121C90.9382 36.8833 91.0454 36.7831 91.1777 36.7334C91.2399 36.7103 97.366 34.4901 99.8473 40.2182C99.9032 40.3478 99.9053 40.4942 99.8534 40.6254C99.8014 40.7566 99.6995 40.8618 99.5701 40.918C99.5034 40.9471 99.4316 40.9622 99.3589 40.9624Z" fill="white"/>
<path d="M71.1423 133.629H71.1318C71.0618 133.627 70.9928 133.612 70.9286 133.584C70.8645 133.556 70.8065 133.516 70.758 133.465C70.7095 133.415 70.6714 133.355 70.6459 133.29C70.6204 133.225 70.6081 133.155 70.6095 133.085C70.9647 115.578 76.826 104.187 76.8864 104.075C76.9519 103.95 77.0644 103.856 77.1993 103.813C77.3342 103.771 77.4804 103.784 77.6057 103.85C77.731 103.915 77.8254 104.028 77.8677 104.163C77.91 104.298 77.8969 104.444 77.8314 104.569C77.7728 104.681 72.0233 115.867 71.6752 133.107C71.6724 133.246 71.6151 133.379 71.5154 133.477C71.4158 133.574 71.2818 133.629 71.1423 133.629Z" fill="white"/>
<path d="M72.2078 141.088C72.0763 141.088 71.9492 141.041 71.8508 140.953C71.7525 140.866 71.6898 140.746 71.6749 140.615L71.1421 135.997C71.1261 135.856 71.1669 135.714 71.2555 135.603C71.3441 135.491 71.4732 135.42 71.6146 135.404C71.7559 135.388 71.8977 135.429 72.009 135.517C72.1203 135.606 72.1918 135.735 72.2078 135.876L72.7406 140.494C72.7566 140.635 72.7162 140.776 72.6282 140.886C72.5403 140.997 72.4122 141.068 72.2718 141.084L72.2078 141.088Z" fill="white"/>
<path d="M47.164 92.0655C47.1154 92.0652 47.0671 92.0586 47.0202 92.046C46.9528 92.0271 46.8897 91.9952 46.8346 91.9519C46.7796 91.9087 46.7335 91.855 46.6991 91.794C46.6648 91.7329 46.643 91.6657 46.6346 91.5962C46.6263 91.5267 46.6318 91.4562 46.6508 91.3888C48.8425 83.5346 54.1248 82.2664 54.3486 82.2167C54.4846 82.1905 54.6253 82.2181 54.7412 82.2939C54.857 82.3697 54.939 82.4876 54.9694 82.6226C54.9999 82.7576 54.9765 82.8992 54.9044 83.0174C54.8323 83.1356 54.717 83.2211 54.583 83.2557C54.3787 83.3037 49.6879 84.4742 47.6773 91.6766C47.6459 91.7885 47.5788 91.8871 47.4861 91.9574C47.3934 92.0276 47.2803 92.0656 47.164 92.0655Z" fill="white"/>
<path d="M64.0387 64.7138C63.9077 64.714 63.7812 64.6659 63.6834 64.5788C60.7563 61.9785 57.1507 63.2484 57.1116 63.2609C56.9788 63.3094 56.8321 63.3032 56.7038 63.2435C56.5756 63.1839 56.4764 63.0758 56.4279 62.943C56.3794 62.8101 56.3856 62.6634 56.4452 62.5352C56.5048 62.4069 56.613 62.3077 56.7458 62.2591C56.9234 62.197 60.9926 60.7636 64.3833 63.7831C64.464 63.855 64.5209 63.9497 64.5465 64.0547C64.5722 64.1597 64.5651 64.27 64.5266 64.371C64.4881 64.4719 64.4198 64.5588 64.3308 64.62C64.2417 64.6812 64.1362 64.7139 64.0281 64.7138H64.0387Z" fill="white"/>
<path d="M62.6159 70.5753C62.4798 70.5753 62.349 70.5232 62.2501 70.4297C59.4686 67.8116 54.2431 68.7796 54.1916 68.7903C54.0527 68.8171 53.9087 68.7877 53.7915 68.7084C53.6742 68.6291 53.5932 68.5065 53.5663 68.3675C53.5395 68.2286 53.5689 68.0847 53.6482 67.9674C53.7275 67.8502 53.8501 67.7692 53.989 67.7424C54.2253 67.698 59.7989 66.6607 62.9817 69.6553C63.0592 69.7285 63.1131 69.8234 63.1361 69.9275C63.1591 70.0316 63.1504 70.1403 63.111 70.2394C63.0716 70.3385 63.0032 70.4235 62.915 70.4834C62.8267 70.5433 62.7226 70.5753 62.6159 70.5753Z" fill="white"/>
<path d="M130.279 95.7679C125.347 88.5052 120.745 83.603 116.81 86.4058C110.485 90.9119 121.142 102.99 115.169 113.67C111.743 119.794 112.86 129.931 118.782 134.035C124.704 138.14 136.192 104.473 130.279 95.7679Z" fill="#FFCDB2"/>
<path d="M119.84 134.646C119.406 134.644 118.983 134.507 118.629 134.255C112.432 129.949 111.555 119.584 114.936 113.539C117.974 108.108 116.65 102.35 115.483 97.284C114.396 92.5541 113.455 88.4689 116.656 86.1883C117.126 85.8366 117.663 85.5859 118.234 85.452C118.806 85.3181 119.398 85.3039 119.975 85.4103C122.803 85.9183 126.05 89.0657 130.499 95.618C132.712 98.8772 132.739 106.122 130.567 114.999C128.593 123.069 125.32 130.418 122.42 133.294C121.391 134.308 120.53 134.646 119.84 134.646ZM119.181 85.8704C118.381 85.8776 117.605 86.1409 116.965 86.6217C114.056 88.6962 114.915 92.4333 116.004 97.165C117.192 102.332 118.538 108.188 115.402 113.799C113.766 116.724 113.142 120.749 113.737 124.568C114.361 128.585 116.254 131.957 118.935 133.816C119.791 134.411 120.837 134.107 122.045 132.912C124.887 130.104 128.098 122.855 130.05 114.873C132.181 106.14 132.181 99.0531 130.059 95.9164C127.121 91.5932 123.309 86.5506 119.881 85.9343C119.65 85.8923 119.416 85.8709 119.181 85.8704Z" fill="black"/>
<path d="M145.468 158.462L122.527 157.929C115.778 157.803 108.531 152.281 110.733 146.253L135.149 77.348C137.353 71.3197 144.614 66.5365 151.369 66.6626L180.171 67.1954C188.105 68 189.348 75.9928 185.441 84.5184L161.686 149.02C159.484 155.048 158.266 158.407 145.468 158.462Z" fill="#382256"/>
<path d="M151.105 66.6694H151.368L180.17 67.2022C188.104 68.0068 189.347 75.9996 185.44 84.5252L161.685 149.027C159.483 155.055 158.265 158.414 145.467 158.469L122.526 157.936C115.777 157.81 108.53 152.288 110.733 146.259L135.148 77.3548C137.324 71.4047 144.425 66.6676 151.105 66.6676V66.6694ZM151.105 66.1348C147.766 66.1348 144.228 67.2715 141.141 69.3319C138.054 71.3922 135.738 74.1861 134.647 77.1665L110.232 146.082C109.411 148.325 109.75 150.647 111.218 152.785C113.454 156.048 118.1 158.385 122.516 158.469L145.455 159.002H145.469C151.639 158.975 155.46 158.179 157.86 156.421C160.169 154.728 161.057 152.298 162.181 149.224V149.21L185.928 84.7348C188.474 79.17 188.818 74.0334 186.875 70.6391C185.568 68.3567 183.266 66.9856 180.218 66.6765H180.174L151.371 66.1437L151.105 66.1348Z" fill="black"/>
<path d="M144.605 154.008L119.706 153.54C113.531 153.424 110.158 148.863 112.172 143.351L136.198 77.6226C138.212 72.1165 144.851 67.7401 151.025 67.8537L175.925 68.3226C182.099 68.4381 185.472 72.9993 183.458 78.5107L159.434 144.24C157.42 149.751 150.78 154.124 144.605 154.008Z" fill="white"/>
<path d="M144.845 154.276H144.599L119.701 153.807C116.518 153.748 113.964 152.549 112.515 150.432C111.163 148.46 110.954 145.913 111.922 143.262L135.948 77.5328C137.996 71.9326 144.757 67.4673 151.031 67.5863L175.931 68.0552C179.114 68.1138 181.666 69.3127 183.117 71.4299C184.469 73.4015 184.679 75.9485 183.709 78.6003L159.684 144.329C157.663 149.858 151.045 154.276 144.845 154.276ZM144.61 153.743C150.669 153.864 157.208 149.553 159.175 144.151L183.199 78.4227C184.108 75.9361 183.92 73.5613 182.666 71.7354C181.316 69.7657 178.917 68.6484 175.917 68.5934L151.019 68.1245H150.782C144.79 68.1245 138.394 72.3873 136.445 77.7158L112.419 143.445C111.511 145.931 111.708 148.306 112.952 150.132C114.303 152.102 116.703 153.219 119.71 153.274L144.61 153.743Z" fill="black"/>
<path d="M166.51 102.883L135.71 102.304L143.934 79.8086L174.734 80.3876L166.51 102.883Z" fill="white"/>
<path d="M143.934 79.8121L174.734 80.3912L166.511 102.886L135.71 102.307L143.934 79.8121ZM143.934 79.2793C143.824 79.2796 143.717 79.3139 143.627 79.3775C143.537 79.4411 143.47 79.5309 143.433 79.6345L135.211 102.13C135.183 102.209 135.174 102.294 135.185 102.378C135.196 102.461 135.227 102.541 135.275 102.61C135.323 102.679 135.386 102.736 135.461 102.776C135.535 102.816 135.617 102.838 135.702 102.84L166.502 103.419H166.511C166.621 103.419 166.728 103.385 166.818 103.321C166.907 103.257 166.975 103.168 167.012 103.064L175.235 80.5688C175.263 80.4892 175.272 80.4042 175.261 80.3205C175.25 80.2369 175.219 80.1571 175.171 80.0877C175.123 80.0184 175.059 79.9614 174.985 79.9215C174.91 79.8816 174.828 79.86 174.743 79.8583L143.943 79.2793H143.934Z" fill="black"/>
<path d="M151.628 89.2557C151.594 89.2553 151.56 89.2487 151.529 89.2362C151.495 89.223 151.465 89.2032 151.44 89.178C151.414 89.1529 151.394 89.1228 151.38 89.0897C151.366 89.0566 151.359 89.021 151.359 88.9852C151.36 88.9493 151.367 88.9139 151.381 88.881C151.484 88.6287 153.927 82.6981 156.745 81.7035C157.857 81.3109 158.537 81.6555 158.91 82.0125C159.99 83.048 160.076 85.7176 159.131 88.8135C159.11 88.8812 159.063 88.9379 159 88.9711C158.938 89.0044 158.865 89.0116 158.797 88.9911C158.763 88.9811 158.732 88.9646 158.705 88.9425C158.677 88.9203 158.655 88.893 158.639 88.8621C158.622 88.8312 158.612 88.7974 158.608 88.7625C158.605 88.7276 158.609 88.6924 158.619 88.6589C159.493 85.7958 159.461 83.2807 158.539 82.398C158.154 82.0267 157.609 81.9628 156.921 82.2043C154.326 83.1208 151.898 89.023 151.873 89.0817C151.855 89.1322 151.822 89.1761 151.778 89.2072C151.734 89.2383 151.682 89.2553 151.628 89.2557Z" fill="black"/>
<path d="M149.469 86.6562L141.071 97.9509L161.398 98.3345L162.936 86.9102L149.469 86.6562Z" fill="#4BD657"/>
<path d="M161.396 98.598L141.069 98.2162C141.02 98.2153 140.973 98.2009 140.931 98.1748C140.89 98.1486 140.857 98.1116 140.835 98.0677C140.814 98.0239 140.804 97.9749 140.809 97.9263C140.813 97.8776 140.831 97.831 140.86 97.7917L149.257 86.497C149.283 86.4632 149.316 86.4358 149.354 86.417C149.392 86.3982 149.433 86.3885 149.476 86.3887L162.944 86.6427C162.982 86.6433 163.019 86.6519 163.053 86.6679C163.087 86.6839 163.117 86.7069 163.142 86.7355C163.166 86.764 163.185 86.7974 163.195 86.8334C163.206 86.8695 163.209 86.9074 163.204 86.9446L161.664 98.3671C161.655 98.4318 161.623 98.491 161.574 98.5336C161.524 98.5761 161.461 98.5991 161.396 98.598ZM141.593 97.694L161.165 98.0616L162.632 87.1702L149.6 86.9251L141.593 97.694Z" fill="black"/>
<path d="M158.061 93.6295C158.027 93.6301 157.993 93.6234 157.962 93.61C157.928 93.5969 157.898 93.5773 157.872 93.5521C157.846 93.527 157.826 93.497 157.812 93.4638C157.799 93.4306 157.792 93.395 157.792 93.359C157.792 93.3231 157.8 93.2876 157.814 93.2547C157.884 93.0771 159.513 89.1305 161.413 88.4591C162.191 88.1838 162.67 88.4289 162.937 88.6846C163.685 89.3951 163.75 91.1589 163.114 93.2707C163.094 93.3383 163.047 93.3949 162.985 93.4281C162.922 93.4612 162.849 93.4682 162.781 93.4474C162.714 93.4267 162.657 93.38 162.624 93.3175C162.591 93.2551 162.584 93.182 162.605 93.1144C163.173 91.2548 163.161 89.6296 162.576 89.0683C162.344 88.8463 162.024 88.8108 161.599 88.9617C159.923 89.5532 158.333 93.4164 158.317 93.4554C158.298 93.5078 158.263 93.5528 158.217 93.5841C158.172 93.6154 158.117 93.6313 158.061 93.6295Z" fill="black"/>
<path d="M156.634 91.8203L151.085 99.2838L164.516 99.536L165.534 91.9873L156.634 91.8203Z" fill="#07ACEE"/>
<path d="M164.516 99.8037L151.083 99.5515C151.034 99.5506 150.986 99.5363 150.945 99.5101C150.904 99.4839 150.87 99.4469 150.849 99.4031C150.827 99.3593 150.818 99.3103 150.822 99.2616C150.827 99.2129 150.844 99.1664 150.873 99.127L156.424 91.6671C156.45 91.6344 156.483 91.6079 156.521 91.5894C156.559 91.571 156.6 91.5612 156.642 91.5605L165.543 91.7275C165.58 91.7284 165.617 91.737 165.651 91.7529C165.685 91.7688 165.715 91.7916 165.74 91.8199C165.764 91.8486 165.782 91.8821 165.793 91.9182C165.803 91.9542 165.807 91.9921 165.802 92.0295L164.784 99.5782C164.774 99.6418 164.742 99.6998 164.692 99.7413C164.643 99.7827 164.58 99.8049 164.516 99.8037ZM151.607 99.0293L164.285 99.2673L165.23 92.2497L156.765 92.0898L151.607 99.0293Z" fill="black"/>
<path d="M144.168 118.756L132.267 118.532C130.63 118.5 129.737 117.289 130.271 115.83L132.264 110.378C132.797 108.918 134.557 107.758 136.195 107.79L148.095 108.014C149.733 108.044 150.626 109.257 150.091 110.713L148.098 116.166C147.566 117.626 145.805 118.786 144.168 118.756Z" fill="#07ACEE"/>
<path d="M136.127 107.787H136.191L148.092 108.01C149.729 108.041 150.622 109.254 150.088 110.71L148.095 116.163C147.562 117.605 145.848 118.753 144.228 118.753H144.164L132.264 118.529C130.626 118.497 129.733 117.286 130.268 115.827L132.26 110.374C132.793 108.934 134.509 107.785 136.127 107.785V107.787ZM136.127 107.252C134.28 107.252 132.362 108.543 131.76 110.192L129.767 115.644C129.458 116.492 129.532 117.316 129.976 117.966C130.442 118.643 131.271 119.042 132.253 119.062L144.154 119.285H144.227C146.074 119.285 147.992 117.994 148.594 116.346L150.587 110.893C150.896 110.046 150.823 109.222 150.377 108.572C149.914 107.895 149.083 107.495 148.1 107.478L136.2 107.254L136.127 107.252Z" fill="black"/>
<path d="M139.226 132.277L127.326 132.053C125.69 132.023 124.795 130.81 125.33 129.354L127.322 123.901C127.855 122.439 129.615 121.281 131.253 121.311L143.153 121.535C144.791 121.565 145.684 122.778 145.15 124.235L143.157 129.688C142.622 131.146 140.862 132.307 139.226 132.277Z" fill="#4BD657"/>
<path d="M139.288 132.542H139.221L127.32 132.318C126.432 132.301 125.674 131.944 125.258 131.338C124.864 130.763 124.8 130.024 125.081 129.26L127.074 123.807C127.642 122.251 129.521 121.02 131.26 121.043L143.16 121.267C144.048 121.285 144.809 121.642 145.222 122.248C145.618 122.823 145.682 123.562 145.4 124.326L143.407 129.779C142.844 131.322 141.008 132.542 139.288 132.542ZM139.23 132.009C140.761 132.04 142.409 130.954 142.905 129.596L144.899 124.143C145.118 123.544 145.077 122.979 144.78 122.544C144.459 122.075 143.878 121.811 143.146 121.796L131.246 121.573C129.716 121.551 128.068 122.628 127.571 123.986L125.578 129.439C125.36 130.038 125.4 130.603 125.695 131.038C126.017 131.507 126.597 131.771 127.329 131.786L139.23 132.009Z" fill="black"/>
<path d="M133.776 147.187L121.876 146.964C120.24 146.933 119.345 145.72 119.879 144.264L121.872 138.811C122.405 137.349 124.165 136.191 125.803 136.221L137.703 136.445C139.341 136.475 140.234 137.688 139.701 139.145L137.707 144.598C137.172 146.063 135.412 147.218 133.776 147.187Z" fill="white"/>
<path d="M133.842 147.452H133.774L121.874 147.229C120.986 147.211 120.228 146.854 119.812 146.248C119.418 145.673 119.354 144.934 119.634 144.17L121.627 138.717C122.197 137.161 124.069 135.927 125.814 135.954L137.714 136.177C138.602 136.195 139.362 136.552 139.776 137.158C140.172 137.733 140.236 138.472 139.954 139.236L137.961 144.689C137.394 146.225 135.558 147.452 133.842 147.452ZM133.783 146.92H133.844C135.355 146.92 136.968 145.854 137.458 144.506L139.453 139.053C139.671 138.454 139.63 137.89 139.334 137.454C139.012 136.985 138.433 136.721 137.7 136.707L125.799 136.483C124.263 136.454 122.622 137.538 122.125 138.897L120.132 144.349C119.913 144.948 119.954 145.513 120.249 145.948C120.57 146.417 121.151 146.682 121.883 146.696L133.783 146.92Z" fill="black"/>
<path d="M160.506 115.475C162.829 113.481 163.57 110.533 162.16 108.89C160.75 107.247 157.724 107.531 155.4 109.525C153.077 111.519 152.336 114.467 153.746 116.11C155.156 117.753 158.182 117.469 160.506 115.475Z" fill="#07ACEE"/>
<path d="M156.424 117.592H156.333C155.077 117.569 154.049 117.059 153.438 116.171C152.772 115.2 152.678 113.852 153.182 112.472C154.161 109.795 157.104 107.656 159.754 107.708C161.01 107.731 162.036 108.241 162.649 109.129C163.315 110.1 163.408 111.449 162.903 112.829C161.944 115.473 159.049 117.592 156.424 117.592ZM159.667 108.237C157.25 108.237 154.578 110.202 153.683 112.653C153.239 113.869 153.31 115.04 153.877 115.869C154.388 116.615 155.264 117.038 156.342 117.058C158.779 117.106 161.504 115.123 162.409 112.644C162.855 111.427 162.784 110.257 162.216 109.427C161.704 108.681 160.829 108.259 159.75 108.239L159.667 108.237Z" fill="black"/>
<path d="M155.193 130.008C157.517 128.015 158.257 125.067 156.848 123.424C155.438 121.781 152.411 122.065 150.088 124.058C147.764 126.052 147.024 129 148.433 130.643C149.843 132.286 152.87 132.002 155.193 130.008Z" fill="#07ACEE"/>
<path d="M151.111 132.124H151.02C149.765 132.1 148.736 131.592 148.125 130.704C147.459 129.732 147.365 128.382 147.87 127.004C148.838 124.357 151.733 122.238 154.358 122.238H154.448C155.704 122.263 156.731 122.771 157.344 123.659C158.01 124.631 158.102 125.981 157.598 127.359C156.631 130.005 153.735 132.124 151.111 132.124ZM154.354 122.771C151.937 122.771 149.266 124.725 148.37 127.187C147.926 128.402 147.997 129.574 148.564 130.402C149.076 131.149 149.951 131.57 151.029 131.592C153.464 131.641 156.191 129.657 157.097 127.176C157.543 125.961 157.472 124.789 156.903 123.961C156.392 123.215 155.516 122.792 154.438 122.771H154.354Z" fill="black"/>
<path d="M149.746 144.924C152.069 142.931 152.81 139.983 151.4 138.34C149.991 136.696 146.964 136.981 144.641 138.974C142.317 140.968 141.576 143.916 142.986 145.559C144.396 147.202 147.422 146.918 149.746 144.924Z" fill="#07ACEE"/>
<path d="M145.661 147.04H145.57C144.315 147.016 143.286 146.508 142.675 145.619C142.009 144.648 141.915 143.298 142.419 141.92C143.387 139.273 146.283 137.154 148.908 137.154H148.998C150.254 137.179 151.282 137.687 151.893 138.575C152.56 139.549 152.652 140.897 152.147 142.275C151.181 144.921 148.286 147.04 145.661 147.04ZM148.904 137.687C146.487 137.687 143.817 139.641 142.92 142.103C142.476 143.318 142.547 144.49 143.114 145.318C143.625 146.065 144.501 146.486 145.579 146.508C148.021 146.561 150.741 144.573 151.647 142.092C152.092 140.877 152.021 139.705 151.453 138.877C150.942 138.131 150.066 137.708 148.988 137.687H148.904Z" fill="black"/>
<path d="M144.455 112.671L135.851 112.509C135.78 112.508 135.713 112.479 135.664 112.428C135.615 112.377 135.588 112.308 135.59 112.238C135.591 112.167 135.621 112.1 135.672 112.051C135.723 112.002 135.791 111.975 135.862 111.977L144.465 112.138C144.536 112.138 144.604 112.166 144.654 112.216C144.704 112.266 144.732 112.334 144.732 112.405C144.732 112.475 144.704 112.543 144.654 112.593C144.604 112.643 144.536 112.671 144.465 112.671H144.455Z" fill="black"/>
<path d="M140.901 115.521L135.414 115.418C135.343 115.418 135.275 115.39 135.226 115.34C135.176 115.29 135.147 115.222 135.147 115.151C135.147 115.081 135.176 115.013 135.226 114.963C135.275 114.913 135.343 114.885 135.414 114.885L140.901 114.988C140.971 114.988 141.039 115.016 141.089 115.066C141.139 115.116 141.167 115.184 141.167 115.254C141.167 115.325 141.139 115.393 141.089 115.443C141.039 115.493 140.971 115.521 140.901 115.521Z" fill="black"/>
<path d="M139.141 127.193L130.538 127.031C130.503 127.03 130.468 127.023 130.436 127.009C130.404 126.995 130.374 126.975 130.35 126.95C130.326 126.924 130.307 126.894 130.294 126.862C130.282 126.829 130.276 126.794 130.276 126.759C130.279 126.689 130.309 126.622 130.359 126.573C130.41 126.525 130.478 126.498 130.548 126.498L139.152 126.66C139.223 126.66 139.29 126.688 139.34 126.738C139.39 126.788 139.419 126.855 139.419 126.926C139.419 126.997 139.39 127.065 139.34 127.114C139.29 127.164 139.223 127.193 139.152 127.193H139.141Z" fill="black"/>
<path d="M130.097 143.694L124.486 143.588C124.451 143.587 124.416 143.579 124.384 143.565C124.352 143.551 124.323 143.531 124.299 143.506C124.275 143.481 124.256 143.451 124.243 143.418C124.23 143.386 124.224 143.351 124.225 143.316C124.225 143.281 124.233 143.246 124.247 143.214C124.261 143.182 124.281 143.153 124.306 143.129C124.332 143.105 124.361 143.086 124.394 143.073C124.427 143.06 124.461 143.054 124.496 143.055L130.107 143.161C130.178 143.161 130.246 143.189 130.296 143.239C130.346 143.289 130.374 143.357 130.374 143.428C130.374 143.498 130.346 143.566 130.296 143.616C130.246 143.666 130.178 143.694 130.107 143.694H130.097Z" fill="black"/>
<path d="M134.106 140.97L125.502 140.808C125.467 140.808 125.433 140.8 125.401 140.786C125.369 140.772 125.34 140.752 125.316 140.726C125.291 140.701 125.272 140.671 125.259 140.639C125.247 140.606 125.241 140.571 125.241 140.536C125.244 140.466 125.273 140.399 125.324 140.351C125.375 140.302 125.443 140.275 125.513 140.275L134.117 140.437C134.187 140.437 134.255 140.465 134.305 140.515C134.355 140.565 134.383 140.633 134.383 140.703C134.383 140.774 134.355 140.842 134.305 140.892C134.255 140.942 134.187 140.97 134.117 140.97H134.106Z" fill="black"/>
<path d="M145.828 140.922L145.684 143.719L149.781 139.723" fill="#07ACEE"/>
<path d="M145.684 143.984C145.648 143.984 145.612 143.977 145.579 143.963C145.545 143.949 145.515 143.928 145.49 143.902C145.465 143.876 145.446 143.845 145.434 143.811C145.421 143.777 145.415 143.741 145.417 143.705L145.561 140.907C145.565 140.837 145.597 140.77 145.649 140.723C145.702 140.676 145.771 140.651 145.842 140.655C145.913 140.659 145.979 140.691 146.026 140.743C146.073 140.796 146.098 140.865 146.094 140.936L145.984 143.053L149.595 139.533C149.62 139.507 149.649 139.486 149.682 139.472C149.715 139.458 149.75 139.451 149.786 139.451C149.822 139.451 149.857 139.458 149.89 139.472C149.923 139.486 149.953 139.506 149.978 139.532C150.003 139.557 150.022 139.588 150.035 139.621C150.048 139.654 150.054 139.69 150.053 139.726C150.052 139.761 150.044 139.796 150.029 139.829C150.014 139.861 149.993 139.89 149.966 139.915L145.87 143.909C145.82 143.957 145.753 143.984 145.684 143.984Z" fill="black"/>
<path d="M151.19 126.263L151.826 129.329L155.956 125.59" fill="#07ACEE"/>
<path d="M151.826 129.594C151.798 129.594 151.77 129.59 151.744 129.582C151.699 129.567 151.66 129.541 151.629 129.506C151.597 129.471 151.576 129.429 151.566 129.383L150.93 126.317C150.916 126.248 150.93 126.176 150.969 126.117C151.007 126.058 151.068 126.016 151.137 126.002C151.207 125.988 151.279 126.001 151.338 126.04C151.397 126.079 151.438 126.14 151.452 126.209L151.994 128.818L155.778 125.392C155.803 125.365 155.833 125.343 155.867 125.329C155.901 125.314 155.938 125.306 155.975 125.307C156.012 125.307 156.048 125.315 156.082 125.33C156.116 125.345 156.146 125.367 156.171 125.395C156.196 125.422 156.214 125.455 156.226 125.49C156.237 125.525 156.241 125.562 156.238 125.599C156.234 125.636 156.223 125.671 156.205 125.704C156.187 125.736 156.162 125.764 156.133 125.786L152.003 129.525C151.955 129.57 151.891 129.594 151.826 129.594Z" fill="black"/>
<path d="M156.078 111.852L156.95 115.303L160.22 111.166" fill="#07ACEE"/>
<path d="M156.951 115.568C156.932 115.57 156.914 115.57 156.896 115.568C156.847 115.558 156.802 115.534 156.767 115.499C156.731 115.465 156.705 115.421 156.693 115.373L155.821 111.922C155.81 111.887 155.805 111.85 155.809 111.814C155.812 111.777 155.823 111.742 155.84 111.71C155.858 111.678 155.882 111.65 155.911 111.628C155.94 111.605 155.973 111.589 156.008 111.58C156.044 111.571 156.08 111.569 156.116 111.575C156.152 111.581 156.187 111.594 156.218 111.614C156.248 111.634 156.275 111.659 156.295 111.69C156.316 111.72 156.33 111.754 156.336 111.79L157.077 114.719L160.013 111.005C160.034 110.976 160.061 110.951 160.091 110.933C160.122 110.914 160.157 110.902 160.192 110.897C160.228 110.892 160.264 110.894 160.299 110.904C160.333 110.913 160.366 110.93 160.394 110.952C160.422 110.974 160.446 111.002 160.463 111.034C160.48 111.065 160.491 111.1 160.494 111.136C160.497 111.172 160.494 111.208 160.483 111.242C160.472 111.277 160.454 111.308 160.43 111.335L157.16 115.472C157.135 115.503 157.103 115.528 157.067 115.544C157.03 115.561 156.991 115.569 156.951 115.568Z" fill="black"/>
<path d="M176.429 105.625C176.429 105.625 166.738 94.2933 175.443 88.7091C184.148 83.1248 191.702 92.487 188.747 101.355C185.791 110.224 177.734 111.375 173.308 113.673" fill="#FFCDB2"/>
<path d="M173.309 113.939C173.249 113.939 173.191 113.918 173.144 113.882C173.098 113.845 173.064 113.793 173.05 113.735C173.036 113.677 173.042 113.617 173.067 113.562C173.091 113.508 173.133 113.464 173.186 113.436C174.127 112.948 175.229 112.511 176.394 112.049C180.761 110.317 186.196 108.163 188.495 101.269C190.033 96.6512 188.72 91.5696 185.298 88.9089C182.518 86.7473 178.976 86.7562 175.584 88.932C173.612 90.1966 172.46 91.8716 172.159 93.9053C171.373 99.2338 176.575 105.385 176.628 105.45C176.652 105.477 176.67 105.508 176.681 105.541C176.692 105.575 176.697 105.61 176.695 105.646C176.692 105.681 176.683 105.715 176.667 105.747C176.652 105.779 176.63 105.807 176.603 105.83C176.577 105.854 176.546 105.872 176.512 105.883C176.479 105.894 176.444 105.899 176.408 105.897C176.373 105.894 176.338 105.885 176.307 105.87C176.275 105.854 176.247 105.832 176.223 105.806C176.001 105.546 170.811 99.4007 171.632 93.8413C171.955 91.6424 173.188 89.8432 175.296 88.4915C178.891 86.1825 182.655 86.1825 185.625 88.4915C189.219 91.2872 190.598 96.6122 188.999 101.44C186.623 108.568 181.06 110.774 176.591 112.546C175.438 113.003 174.348 113.434 173.431 113.91C173.393 113.93 173.351 113.94 173.309 113.939Z" fill="black"/>
<path d="M173.145 120.245C173.145 120.245 163.456 108.913 172.161 103.328C180.866 97.7441 188.419 107.105 185.464 115.975C182.508 124.845 174.452 125.992 170.024 128.292" fill="#FFCDB2"/>
<path d="M170.024 128.558C169.965 128.558 169.907 128.538 169.86 128.501C169.813 128.464 169.78 128.412 169.766 128.354C169.752 128.297 169.758 128.236 169.782 128.181C169.807 128.127 169.849 128.083 169.902 128.055C170.843 127.567 171.944 127.13 173.111 126.668C177.479 124.936 182.914 122.782 185.21 115.888C186.75 111.27 185.438 106.189 182.013 103.528C179.232 101.366 175.692 101.374 172.298 103.551C170.328 104.816 169.175 106.491 168.873 108.524C168.088 113.842 173.29 120.004 173.342 120.069C173.389 120.123 173.413 120.193 173.408 120.265C173.404 120.336 173.371 120.402 173.317 120.45C173.264 120.497 173.193 120.521 173.122 120.516C173.051 120.511 172.984 120.478 172.937 120.425C172.717 120.167 167.525 114.022 168.346 108.462C168.671 106.263 169.903 104.462 172.012 103.111C175.605 100.802 179.37 100.802 182.34 103.111C185.933 105.906 187.313 111.233 185.715 116.061C183.338 123.188 177.775 125.394 173.305 127.167C172.152 127.624 171.063 128.055 170.145 128.531C170.108 128.55 170.066 128.559 170.024 128.558Z" fill="black"/>
<path d="M168.338 131.901C168.338 131.901 158.648 120.569 167.353 114.984C176.058 109.4 183.613 118.762 180.656 127.631C177.699 136.499 169.653 137.65 165.218 139.948" fill="#FFCDB2"/>
<path d="M165.218 140.215C165.158 140.215 165.1 140.195 165.054 140.158C165.007 140.121 164.974 140.07 164.96 140.012C164.945 139.954 164.951 139.893 164.976 139.839C165 139.784 165.042 139.74 165.095 139.712C166.037 139.224 167.138 138.787 168.305 138.325C172.671 136.594 178.106 134.439 180.404 127.548C181.944 122.929 180.63 117.846 177.207 115.185C174.427 113.024 170.887 113.033 167.493 115.208C165.521 116.473 164.369 118.148 164.068 120.182C163.283 125.501 168.484 131.661 168.537 131.727C168.56 131.753 168.577 131.784 168.588 131.817C168.599 131.851 168.603 131.886 168.6 131.921C168.598 131.956 168.588 131.99 168.572 132.021C168.557 132.052 168.535 132.08 168.508 132.102C168.481 132.125 168.451 132.143 168.417 132.153C168.384 132.164 168.349 132.168 168.314 132.166C168.279 132.163 168.245 132.153 168.214 132.137C168.183 132.122 168.155 132.1 168.132 132.073C167.91 131.814 162.72 125.668 163.541 120.109C163.866 117.91 165.099 116.111 167.205 114.759C170.8 112.45 174.566 112.45 177.534 114.759C181.129 117.555 182.507 122.88 180.908 127.709C178.532 134.835 172.969 137.041 168.498 138.814C167.346 139.27 166.257 139.702 165.339 140.178C165.302 140.2 165.261 140.213 165.218 140.215Z" fill="black"/>
<path d="M165.547 72.7072H165.534C165.469 72.7072 159.011 72.352 151.943 69.3325C147.787 67.5563 144.233 65.2082 141.38 62.3646C137.81 58.8122 135.341 54.4482 134.029 49.4181C134.014 49.3508 134.026 49.2803 134.061 49.2214C134.097 49.1626 134.155 49.1199 134.221 49.1025C134.288 49.085 134.359 49.094 134.419 49.1277C134.479 49.1614 134.524 49.2171 134.544 49.2831C137.452 60.4587 145.716 66.0839 152.128 68.8369C159.11 71.828 165.486 72.1708 165.55 72.1743C165.621 72.176 165.688 72.2056 165.737 72.2568C165.786 72.3079 165.812 72.3763 165.811 72.447C165.809 72.5176 165.779 72.5848 165.728 72.6336C165.677 72.6824 165.609 72.7088 165.538 72.7072H165.547Z" fill="black"/>
<path d="M144.124 73.3349C142.659 73.3208 141.21 73.0191 139.861 72.4468C137.019 71.2745 132.934 68.3385 129.595 61.01C129.581 60.9781 129.573 60.9436 129.571 60.9085C129.57 60.8735 129.576 60.8385 129.588 60.8057C129.601 60.7729 129.62 60.7428 129.644 60.7173C129.668 60.6917 129.696 60.671 129.728 60.6566C129.76 60.6421 129.795 60.6341 129.83 60.633C129.865 60.6318 129.9 60.6376 129.933 60.65C129.965 60.6623 129.995 60.6811 130.021 60.705C130.047 60.729 130.067 60.7578 130.082 60.7898C133.337 67.9371 137.288 70.7985 140.028 71.9406C142.987 73.1732 145.213 72.7221 145.236 72.7168C145.305 72.7019 145.377 72.7152 145.437 72.7537C145.496 72.7921 145.538 72.8526 145.553 72.9219C145.568 72.9911 145.555 73.0634 145.516 73.1229C145.478 73.1824 145.417 73.2241 145.348 73.2389C144.944 73.3105 144.534 73.3427 144.124 73.3349Z" fill="black"/>
<path d="M111.906 127.591C111.854 127.591 111.803 127.576 111.76 127.548C111.717 127.52 111.683 127.479 111.662 127.432C108.632 120.483 112.215 111.268 112.373 110.887C112.399 110.821 112.449 110.769 112.514 110.741C112.579 110.713 112.652 110.711 112.717 110.737C112.783 110.763 112.835 110.814 112.863 110.879C112.891 110.943 112.892 111.016 112.866 111.082C112.831 111.176 109.215 120.474 112.156 127.218C112.17 127.251 112.178 127.286 112.179 127.321C112.18 127.357 112.174 127.392 112.161 127.425C112.148 127.458 112.129 127.488 112.104 127.514C112.079 127.539 112.05 127.56 112.017 127.574C111.982 127.587 111.944 127.593 111.906 127.591Z" fill="black"/>
<path d="M191.123 79.1019C191.08 79.1023 191.038 79.0924 191 79.073C190.961 79.0536 190.928 79.0253 190.903 78.9904C190.879 78.9555 190.862 78.9152 190.856 78.8727C190.85 78.8303 190.855 78.787 190.869 78.7466C192.631 73.2281 192.468 68.9777 190.388 66.1358C187.699 62.4521 182.647 62.4059 182.597 62.4059C182.527 62.4059 182.459 62.3778 182.409 62.3279C182.359 62.2779 182.331 62.2101 182.331 62.1395C182.331 62.0688 182.359 62.001 182.409 61.9511C182.459 61.9011 182.527 61.873 182.597 61.873C182.816 61.873 187.963 61.9174 190.814 65.8197C193.004 68.8179 193.194 73.2245 191.377 78.9171C191.36 78.9709 191.326 79.0177 191.28 79.0509C191.235 79.0841 191.18 79.1019 191.123 79.1019Z" fill="black"/>
<path d="M187.66 99.8831C187.63 99.8856 187.601 99.8856 187.571 99.8831C187.502 99.8715 187.436 99.8463 187.377 99.8092C187.317 99.772 187.266 99.7234 187.225 99.6664C187.185 99.6093 187.156 99.5448 187.14 99.4765C187.124 99.4083 187.122 99.3376 187.134 99.2685C188.623 90.5014 180.406 88.9401 180.054 88.878C179.92 88.849 179.802 88.7695 179.725 88.6559C179.648 88.5423 179.618 88.4034 179.641 88.2682C179.664 88.1329 179.738 88.0117 179.848 87.9297C179.958 87.8478 180.096 87.8114 180.232 87.8282C181.893 88.179 183.457 88.8862 184.818 89.901C186.83 91.4268 189.049 94.3201 188.178 99.4461C188.156 99.5679 188.092 99.678 187.998 99.7578C187.903 99.8375 187.784 99.8818 187.66 99.8831Z" fill="white"/>
<path d="M184.996 113.027C184.856 113.027 184.722 112.972 184.623 112.874C184.523 112.777 184.466 112.644 184.463 112.504C184.298 104.258 177.628 103.979 177.344 103.968C177.203 103.966 177.068 103.908 176.969 103.807C176.871 103.706 176.817 103.569 176.818 103.428C176.82 103.287 176.878 103.152 176.98 103.053C177.081 102.955 177.217 102.901 177.358 102.902H177.371C177.451 102.902 185.342 103.199 185.529 112.483C185.53 112.553 185.518 112.623 185.492 112.688C185.467 112.753 185.429 112.812 185.38 112.863C185.332 112.913 185.274 112.954 185.21 112.982C185.145 113.01 185.076 113.025 185.006 113.027H184.996Z" fill="white"/>
<path d="M143.79 97.0385C143.692 97.0385 143.596 97.0116 143.513 96.9608C143.429 96.9101 143.361 96.8374 143.317 96.7507C143.272 96.664 143.251 96.5666 143.258 96.4692C143.265 96.3718 143.298 96.2781 143.354 96.1984L149.393 87.6728C149.476 87.5609 149.6 87.4859 149.737 87.4638C149.875 87.4417 150.015 87.4743 150.129 87.5546C150.243 87.6349 150.32 87.7566 150.346 87.8935C150.371 88.0304 150.341 88.1718 150.264 88.2873L144.225 96.8129C144.176 96.8826 144.11 96.9395 144.035 96.9787C143.959 97.018 143.875 97.0385 143.79 97.0385Z" fill="white"/>
<path d="M153.394 98.717C153.295 98.7167 153.199 98.6891 153.115 98.6372C153.031 98.5852 152.963 98.511 152.919 98.4228C152.875 98.3346 152.856 98.2359 152.864 98.1376C152.873 98.0393 152.909 97.9454 152.968 97.8662L156.859 92.6371C156.943 92.5236 157.069 92.4482 157.209 92.4276C157.349 92.4069 157.492 92.4427 157.605 92.527C157.719 92.6113 157.794 92.7373 157.815 92.8772C157.835 93.0171 157.8 93.1595 157.715 93.273L153.822 98.5021C153.772 98.5688 153.708 98.623 153.633 98.6603C153.559 98.6976 153.477 98.717 153.394 98.717Z" fill="white"/>
<path d="M119.988 127.414C119.927 127.413 119.867 127.402 119.81 127.382C119.678 127.334 119.569 127.235 119.509 127.107C119.449 126.979 119.443 126.832 119.491 126.7L132.279 91.3539C132.333 91.2306 132.432 91.1324 132.555 91.0789C132.679 91.0255 132.818 91.0208 132.945 91.0658C133.072 91.1108 133.177 91.2021 133.239 91.3215C133.302 91.4408 133.316 91.5793 133.281 91.7091L120.492 127.055C120.456 127.16 120.388 127.251 120.298 127.315C120.207 127.379 120.099 127.414 119.988 127.414Z" fill="white"/>
<path d="M115.725 139.847C115.66 139.848 115.595 139.836 115.535 139.812C115.403 139.761 115.296 139.661 115.239 139.532C115.181 139.403 115.177 139.256 115.227 139.125L118.957 129.356C119.012 129.229 119.113 129.129 119.239 129.075C119.366 129.022 119.509 129.019 119.637 129.068C119.766 129.117 119.87 129.214 119.929 129.339C119.987 129.463 119.996 129.605 119.952 129.736L116.222 139.505C116.183 139.605 116.115 139.692 116.027 139.753C115.938 139.814 115.832 139.847 115.725 139.847Z" fill="white"/>
<defs>
<filter id="filter0_d_3806_26460" x="-2.14305" y="57.4863" width="20.6308" height="20.6318" filterUnits="userSpaceOnUse" color-interpolation-filters="sRGB">
<feFlood flood-opacity="0" result="BackgroundImageFix"/>
<feColorMatrix in="SourceAlpha" type="matrix" values="0 0 0 0 0 0 0 0 0 0 0 0 0 0 0 0 0 0 127 0" result="hardAlpha"/>
<feOffset dy="1.08642"/>
<feGaussianBlur stdDeviation="2.71606"/>
<feComposite in2="hardAlpha" operator="out"/>
<feColorMatrix type="matrix" values="0 0 0 0 0 0 0 0 0 0 0 0 0 0 0 0 0 0 0.05 0"/>
<feBlend mode="normal" in2="BackgroundImageFix" result="effect1_dropShadow_3806_26460"/>
<feBlend mode="normal" in="SourceGraphic" in2="effect1_dropShadow_3806_26460" result="shape"/>
</filter>
<filter id="filter1_d_3806_26460" x="197.677" y="88.1133" width="20.6338" height="20.6338" filterUnits="userSpaceOnUse" color-interpolation-filters="sRGB">
<feFlood flood-opacity="0" result="BackgroundImageFix"/>
<feColorMatrix in="SourceAlpha" type="matrix" values="0 0 0 0 0 0 0 0 0 0 0 0 0 0 0 0 0 0 127 0" result="hardAlpha"/>
<feOffset dy="1.08642"/>
<feGaussianBlur stdDeviation="2.71606"/>
<feComposite in2="hardAlpha" operator="out"/>
<feColorMatrix type="matrix" values="0 0 0 0 0 0 0 0 0 0 0 0 0 0 0 0 0 0 0.05 0"/>
<feBlend mode="normal" in2="BackgroundImageFix" result="effect1_dropShadow_3806_26460"/>
<feBlend mode="normal" in="SourceGraphic" in2="effect1_dropShadow_3806_26460" result="shape"/>
</filter>
<linearGradient id="paint0_linear_3806_26460" x1="10.9078" y1="59.7539" x2="209.093" y2="106.959" gradientUnits="userSpaceOnUse">
<stop stop-color="#CDD5E2"/>
<stop offset="1" stop-color="#CDD5E2" stop-opacity="0"/>
</linearGradient>
<linearGradient id="paint1_linear_3806_26460" x1="208.751" y1="104.233" x2="188.719" y2="156.823" gradientUnits="userSpaceOnUse">
<stop stop-color="#CDD5E2"/>
<stop offset="1" stop-color="#CDD5E2" stop-opacity="0"/>
</linearGradient>
<linearGradient id="paint2_linear_3806_26460" x1="104.802" y1="12.4062" x2="104.802" y2="194.67" gradientUnits="userSpaceOnUse">
<stop stop-color="#CDD5E2"/>
<stop offset="1" stop-color="#CDD5E2" stop-opacity="0"/>
</linearGradient>
<linearGradient id="paint3_linear_3806_26460" x1="104.802" y1="30.6309" x2="104.802" y2="176.442" gradientUnits="userSpaceOnUse">
<stop stop-color="#CDD5E2"/>
<stop offset="1" stop-color="#CDD5E2" stop-opacity="0"/>
</linearGradient>
</defs>
</svg>
