<svg width="217" height="161" viewBox="0 0 217 161" fill="none" xmlns="http://www.w3.org/2000/svg">
<mask id="mask0_14204_91780" style="mask-type:alpha" maskUnits="userSpaceOnUse" x="0" y="0" width="217" height="161">
<rect width="216.439" height="161" fill="#D9D9D9"/>
</mask>
<g mask="url(#mask0_14204_91780)">
<g opacity="0.5">
<mask id="path-2-inside-1_14204_91780" fill="white">
<path d="M207.988 108.035C209.063 83.3647 201.264 59.1257 186.004 39.7116C170.744 20.2975 149.033 6.99329 124.807 2.21047C100.581 -2.57234 75.4434 1.48283 53.9504 13.6409C32.4573 25.799 16.0315 45.2554 7.65042 68.4831L8.09824 68.6447C16.4407 45.524 32.7907 26.1574 54.1848 14.0553C75.5788 1.95325 100.601 -2.08323 124.715 2.67754C148.829 7.43831 170.44 20.6812 185.629 40.0058C200.819 59.3304 208.582 83.4576 207.512 108.014L207.988 108.035Z"/>
</mask>
<path d="M207.988 108.035C209.063 83.3647 201.264 59.1257 186.004 39.7116C170.744 20.2975 149.033 6.99329 124.807 2.21047C100.581 -2.57234 75.4434 1.48283 53.9504 13.6409C32.4573 25.799 16.0315 45.2554 7.65042 68.4831L8.09824 68.6447C16.4407 45.524 32.7907 26.1574 54.1848 14.0553C75.5788 1.95325 100.601 -2.08323 124.715 2.67754C148.829 7.43831 170.44 20.6812 185.629 40.0058C200.819 59.3304 208.582 83.4576 207.512 108.014L207.988 108.035Z" stroke="url(#paint0_linear_14204_91780)" stroke-width="1.51887" stroke-dasharray="2.28 2.28" mask="url(#path-2-inside-1_14204_91780)"/>
</g>
<g opacity="0.5">
<mask id="path-3-inside-2_14204_91780" fill="white">
<path d="M7.78833 138.972C16.2602 162.167 32.7621 181.559 54.3026 193.632C75.8431 205.706 100.997 209.663 125.204 204.785C149.411 199.908 171.069 186.519 186.253 167.045C201.437 147.571 209.141 123.302 207.969 98.6364L207.494 98.659C208.66 123.211 200.991 147.368 185.877 166.752C170.764 186.136 149.205 199.464 125.11 204.319C101.014 209.174 75.9766 205.235 54.5353 193.217C33.0941 181.199 16.6684 161.896 8.23551 138.809L7.78833 138.972Z"/>
</mask>
<path d="M7.78833 138.972C16.2602 162.167 32.7621 181.559 54.3026 193.632C75.8431 205.706 100.997 209.663 125.204 204.785C149.411 199.908 171.069 186.519 186.253 167.045C201.437 147.571 209.141 123.302 207.969 98.6364L207.494 98.659C208.66 123.211 200.991 147.368 185.877 166.752C170.764 186.136 149.205 199.464 125.11 204.319C101.014 209.174 75.9766 205.235 54.5353 193.217C33.0941 181.199 16.6684 161.896 8.23551 138.809L7.78833 138.972Z" stroke="url(#paint1_linear_14204_91780)" stroke-width="1.51887" stroke-dasharray="2.28 2.28" mask="url(#path-3-inside-2_14204_91780)"/>
</g>
<circle opacity="0.08" cx="104.802" cy="103.537" r="91.1321" fill="url(#paint2_linear_14204_91780)"/>
<circle opacity="0.1" cx="104.802" cy="103.537" r="72.9057" fill="url(#paint3_linear_14204_91780)"/>
<circle cx="104.802" cy="103.537" r="48.6038" fill="white"/>
<g filter="url(#filter0_d_14204_91780)">
<circle cx="8.17185" cy="66.7146" r="3.79717" transform="rotate(-2.50406 8.17185 66.7146)" fill="#0170FF"/>
<circle cx="8.17185" cy="66.7146" r="4.34038" transform="rotate(-2.50406 8.17185 66.7146)" stroke="white" stroke-width="1.08642"/>
</g>
<g filter="url(#filter1_d_14204_91780)">
<circle cx="207.994" cy="97.3449" r="3.79717" transform="rotate(-15.7345 207.994 97.3449)" fill="#0170FF"/>
<circle cx="207.994" cy="97.3449" r="4.34038" transform="rotate(-15.7345 207.994 97.3449)" stroke="white" stroke-width="1.08642"/>
</g>
</g>
<path d="M169.73 152.535H43.7641C43.6692 152.535 43.5782 152.497 43.5111 152.43C43.444 152.363 43.4062 152.272 43.4062 152.177C43.4062 152.082 43.444 151.991 43.5111 151.924C43.5782 151.857 43.6692 151.819 43.7641 151.819H169.73C169.825 151.819 169.916 151.857 169.983 151.924C170.05 151.991 170.088 152.082 170.088 152.177C170.088 152.272 170.05 152.363 169.983 152.43C169.916 152.497 169.825 152.535 169.73 152.535Z" fill="#1D1D1B"/>
<path d="M59.1517 157.009H34.6384C34.5435 157.009 34.4525 156.971 34.3854 156.904C34.3182 156.837 34.2805 156.746 34.2805 156.651C34.2805 156.556 34.3182 156.465 34.3854 156.398C34.4525 156.331 34.5435 156.293 34.6384 156.293H59.1517C59.2466 156.293 59.3376 156.331 59.4047 156.398C59.4718 156.465 59.5095 156.556 59.5095 156.651C59.5095 156.746 59.4718 156.837 59.4047 156.904C59.3376 156.971 59.2466 157.009 59.1517 157.009Z" fill="#1D1D1B"/>
<path d="M179.392 158.976H160.068C159.973 158.976 159.882 158.939 159.815 158.872C159.748 158.805 159.71 158.714 159.71 158.619C159.71 158.524 159.748 158.433 159.815 158.365C159.882 158.298 159.973 158.261 160.068 158.261H179.392C179.487 158.261 179.578 158.298 179.645 158.365C179.712 158.433 179.75 158.524 179.75 158.619C179.75 158.714 179.712 158.805 179.645 158.872C179.578 158.939 179.487 158.976 179.392 158.976Z" fill="#1D1D1B"/>
<path d="M101.18 65.3066C101.18 65.3066 110.27 98.3852 139.43 109.171C161.388 117.293 160.243 115.366 167.983 108.84C174.758 103.129 183.609 81.9846 180.902 75.9941C178.195 70.0035 173.566 70.7944 173.566 70.7944L172.455 65.9347L155.086 66.0939L155.101 69.4596C155.101 69.4596 148.79 71.9396 149.541 77.9838C150.293 84.028 149.899 92.3732 151.93 95.2522C151.93 95.2522 145.079 68.2822 107.326 65.414" fill="#07ACEE"/>
<path d="M158.259 114.796C154.78 114.796 149.514 113.186 139.337 109.428C132.652 106.955 126.472 103.101 120.968 97.9766C116.568 93.8737 112.591 88.9532 109.141 83.3491C103.272 73.8086 100.944 65.4741 100.921 65.3918L101.44 65.2486C101.461 65.3327 103.766 73.6047 109.608 83.0807C114.976 91.8143 124.538 103.389 139.523 108.932C159.205 116.215 160.087 115.442 165.784 110.407C166.382 109.879 167.06 109.279 167.81 108.648C170.941 106.009 174.842 99.6441 177.749 92.4351C180.739 85.0185 181.854 78.7667 180.657 76.1186C178.075 70.4018 173.786 71.0423 173.605 71.0727L173.355 71.1139L172.237 66.2184L155.351 66.3741L155.364 69.6556L155.185 69.7219C155.122 69.7469 149.076 72.2018 149.794 77.9651C150.033 79.8975 150.151 82.0804 150.278 84.2025C150.439 87.0242 150.604 89.9068 151.048 92.1201C151.496 93.1187 151.872 94.1478 152.175 95.1996L152.533 96.6041L151.697 95.4214C151.16 94.6663 150.803 93.5731 150.525 92.2562C148.79 88.3449 146.434 84.74 143.547 81.5812C137.71 75.1398 126.683 67.1686 107.287 65.696L107.327 65.1592C115.972 65.8158 123.709 67.802 130.321 71.0638C135.617 73.6726 140.206 77.0991 143.964 81.2467C146.449 83.9814 148.551 87.041 150.212 90.3416C149.98 88.5004 149.854 86.4052 149.738 84.2383C149.618 82.1306 149.493 79.944 149.255 78.0366C148.557 72.429 153.787 69.7666 154.802 69.3032L154.789 65.8481L172.639 65.6834L173.747 70.5252C174.781 70.4626 178.728 70.6022 181.124 75.9021C182.398 78.722 181.314 84.9791 178.223 92.6408C175.285 99.9268 171.326 106.372 168.132 109.063C167.388 109.691 166.713 110.289 166.115 110.815C163.306 113.3 161.612 114.796 158.259 114.796Z" fill="#1D1D1B"/>
<path d="M155.559 69.7042C155.559 69.7042 160.152 76.9347 173.505 71.1124L172.294 66.3457L155.67 66.4548L155.559 69.7042Z" fill="#0598C6"/>
<path d="M89.2656 44.3265C89.2656 44.3265 86.9628 50.4352 82.9262 47.8282C78.8895 45.2212 70.3046 39.5617 65.7991 45.3697C61.2937 51.1777 61.5924 52.7058 56.6647 51.1169C51.737 49.528 40.2873 55.3361 48.2693 67.4513C56.2514 79.5666 96.0256 53.2676 96.0256 53.2676L96.4836 49.2471L89.2656 44.3265Z" fill="#382256"/>
<path d="M89.2657 44.3267L96.4836 49.2472L96.0257 53.2678C96.0257 53.2678 63.3192 74.8931 51.2719 69.8903C50.0455 69.4031 48.9976 68.552 48.2694 67.4515C40.2874 55.3362 51.7353 49.5353 56.6648 51.1171C61.5943 52.6988 61.292 51.1779 65.7992 45.3699C68.4259 41.9827 72.4411 42.4963 76.1324 44.0279C78.7698 45.1247 81.2444 46.7423 82.9317 47.8284C83.1628 47.9792 83.407 48.1085 83.6616 48.2148C87.2401 49.7035 89.2711 44.3267 89.2711 44.3267H89.2657ZM89.493 43.7899C89.4211 43.7599 89.3439 43.7448 89.266 43.7453C89.1882 43.7458 89.1112 43.7619 89.0397 43.7928C88.9683 43.8237 88.9037 43.8687 88.85 43.9251C88.7963 43.9814 88.7545 44.0481 88.7271 44.1209C88.7164 44.1496 87.6536 46.9033 85.8393 47.6995C85.5306 47.8348 85.1969 47.9034 84.8599 47.901C84.5229 47.8985 84.1901 47.825 83.8835 47.6852C83.6619 47.5907 83.4489 47.4776 83.2466 47.347L83.0926 47.2469C81.4501 46.184 78.9665 44.5808 76.3595 43.4983C71.4247 41.4477 67.7191 41.9595 65.3448 45.0192C64.4966 46.1124 63.831 47.0357 63.2441 47.8516C60.7695 51.2853 60.451 51.7254 56.8474 50.5695C54.0275 49.6642 49.284 50.9667 46.7181 54.3467C45.1632 56.3954 43.2344 60.8633 47.7917 67.7771C48.5849 68.9725 49.7233 69.8981 51.0554 70.4306C56.2139 72.5778 65.4234 70.4038 78.4316 63.9803C84.5891 60.905 90.5721 57.4917 96.3531 53.7563C96.424 53.7101 96.4838 53.6487 96.528 53.5766C96.5723 53.5045 96.5998 53.4235 96.6089 53.3394L97.0671 49.3188C97.0793 49.2138 97.0625 49.1074 97.0187 49.0113C96.9748 48.9151 96.9055 48.8327 96.8183 48.7731L89.5985 43.8525C89.5659 43.8306 89.5311 43.812 89.4948 43.7971L89.493 43.7899Z" fill="black"/>
<path d="M47.448 66.1035C52.0071 56.334 71.8236 51.5942 77.5261 51.8679C83.2285 52.1417 90.3373 51.8357 92.0371 49.982C93.737 48.1283 90.4268 45.8398 90.4268 45.8398L91.6274 45.9365L96.4835 49.2467L96.0255 53.2672C96.0255 53.2672 56.2513 79.5698 48.2693 67.4509C47.9669 66.9929 47.6967 66.5437 47.448 66.1035Z" fill="#050505"/>
<path d="M67.0247 151.998C67.0247 151.998 56.0724 71.5155 103.653 70.3327C161.268 68.9013 151.479 151.998 151.479 151.998H67.0247Z" fill="#07ACEE"/>
<path d="M151.798 152.356H66.7116L66.6704 152.046C66.6543 151.926 65.0368 139.807 65.7758 125.114C66.2088 116.477 67.3557 108.652 69.1897 101.853C71.4854 93.3323 74.8689 86.4041 79.2473 81.2617C85.4114 74.0222 93.6207 70.2253 103.648 69.9766C117.193 69.6366 128.161 73.9596 136.227 82.8166C141.037 88.0932 144.85 95.0213 147.561 103.409C149.724 110.105 151.195 117.744 151.93 126.11C153.183 140.346 151.851 151.926 151.839 152.042L151.798 152.356ZM67.3433 151.64H151.161C151.363 149.695 152.349 139.016 151.216 126.157C150.068 113.109 146.442 95.0822 135.698 83.2961C127.769 74.6002 116.991 70.3596 103.669 70.6906C93.8551 70.9339 85.823 74.6467 79.7967 81.7251C70.0236 93.1998 67.1698 111.674 66.4934 125.149C65.8206 138.474 67.0945 149.661 67.3396 151.64H67.3433Z" fill="#1D1D1B"/>
<path d="M99.815 70.3701C99.815 70.3701 97.8897 72.6443 100.574 75.6861C103.258 78.7279 108.146 74.3763 108.146 74.3763L99.815 70.3701Z" fill="white"/>
<path d="M102.98 77.0349C102.9 77.0349 102.819 77.0349 102.739 77.0349C102.286 77.0124 101.842 76.8974 101.436 76.6971C101.029 76.4968 100.667 76.2153 100.373 75.87C97.5677 72.6922 99.5897 70.2284 99.6094 70.2033L99.7436 70.0459L108.626 74.3151L108.325 74.5835C108.209 74.6801 105.534 77.0349 102.98 77.0349ZM99.8956 70.7097C99.5377 71.2608 98.6431 73.1091 100.769 75.5086C101.017 75.7996 101.322 76.0368 101.666 76.2058C102.009 76.3747 102.383 76.4717 102.766 76.4909C104.693 76.6072 106.851 75.0595 107.647 74.4368L99.8956 70.7097Z" fill="#1D1D1B"/>
<path d="M120.591 40.3532C124.494 40.3532 127.658 37.1888 127.658 33.2855C127.658 29.3821 124.494 26.2178 120.591 26.2178C116.687 26.2178 113.523 29.3821 113.523 33.2855C113.523 37.1888 116.687 40.3532 120.591 40.3532Z" fill="#382256"/>
<path d="M126.266 29.0742C127.099 30.1967 127.581 31.541 127.65 32.9371C127.719 34.3333 127.372 35.7186 126.654 36.9178C125.935 38.117 124.878 39.0762 123.614 39.6742C122.351 40.2723 120.938 40.4822 119.556 40.2775C118.173 40.0728 116.882 39.4627 115.846 38.5243C114.81 37.5859 114.075 36.3612 113.735 35.0054C113.395 33.6495 113.465 32.2233 113.935 30.9071C114.406 29.5908 115.256 28.4436 116.379 27.6105C117.124 27.0574 117.971 26.6565 118.871 26.4307C119.771 26.2049 120.707 26.1586 121.625 26.2945C122.544 26.4304 123.426 26.7458 124.222 27.2228C125.018 27.6997 125.713 28.3288 126.266 29.0742ZM126.73 28.7288C125.828 27.5145 124.587 26.5947 123.164 26.0858C121.74 25.5768 120.197 25.5015 118.73 25.8694C117.263 26.2372 115.939 27.0317 114.924 28.1524C113.908 29.2732 113.248 30.6698 113.027 32.1656C112.805 33.6614 113.032 35.1894 113.679 36.5562C114.326 37.9229 115.364 39.0672 116.661 39.8442C117.958 40.6213 119.457 40.9962 120.967 40.9217C122.477 40.8471 123.932 40.3262 125.146 39.4251C126.773 38.2156 127.853 36.41 128.15 34.4046C128.447 32.3992 127.936 30.3579 126.73 28.7288Z" fill="black"/>
<path d="M128.367 61.7755C128.367 61.7755 134.672 60.1652 134.783 55.2876C134.894 50.41 133.695 50.2292 133.922 47.6598C134.15 45.0904 131.387 41.0072 127.365 40.2593C127.365 40.2593 124.652 34.8055 120.208 33.8411C115.763 32.8767 113.439 34.063 110.771 36.5769C108.103 39.0909 106.298 39.8943 104.363 41.5977C102.429 43.3011 98.1206 48.6546 104.263 57.2844C110.406 65.9141 128.367 61.7755 128.367 61.7755Z" fill="#382256"/>
<path d="M132.482 43.5913C133.49 44.9512 134.028 46.4685 133.914 47.6601C133.686 50.2295 134.885 50.4067 134.774 55.2879C134.663 60.1691 128.358 61.7758 128.358 61.7758C128.358 61.7758 110.631 65.8608 104.369 57.4511L104.254 57.2937C98.1118 48.664 102.418 43.3104 104.355 41.607C106.291 39.9036 108.092 39.102 110.762 36.5863C113.432 34.0705 115.749 32.8842 120.199 33.8504C122.795 34.4123 124.799 36.504 126.019 38.1447C126.522 38.8153 126.971 39.5249 127.361 40.2668C129.508 40.6676 131.312 42.0275 132.479 43.5985L132.482 43.5913ZM132.942 43.255C131.616 41.4657 129.734 40.2042 127.753 39.7551C127.379 39.0768 126.961 38.4241 126.501 37.8012C125.218 36.071 123.101 33.8827 120.338 33.2833C115.649 32.2651 113.136 33.5677 110.383 36.1622C109.17 37.2935 107.872 38.3285 106.498 39.2576C105.628 39.8478 104.792 40.4864 103.993 41.1704C102.339 42.6282 101.195 44.5778 100.729 46.7333C100.024 50.1043 101.059 53.7688 103.805 57.6265C103.845 57.6838 103.886 57.7392 103.927 57.7947C105.426 59.8148 107.672 61.3089 110.603 62.2322C112.907 62.9586 115.64 63.3344 118.728 63.3541C122.016 63.3622 125.296 63.0245 128.514 62.3466H128.528C129.705 62.0152 130.828 61.515 131.861 60.8615C134.114 59.4301 135.329 57.5102 135.379 55.3147C135.443 52.5217 135.087 51.2101 134.803 50.1562C134.583 49.3492 134.425 48.7642 134.517 47.7246C134.635 46.3969 134.053 44.7293 132.963 43.2603L132.942 43.255Z" fill="black"/>
<path d="M112.473 66.4688L112.83 72.5524C112.83 72.5524 104.242 77.9203 100.484 70.2263C100.484 70.2263 106.031 62.1745 108.715 53.568C108.715 53.568 105.813 51.4549 107.582 48.8085C109.352 46.1622 111.877 46.6882 112.898 48.0641C112.898 48.0641 116.593 54.1227 126.917 45.3945C126.917 45.3945 131.57 50.2167 130.158 56.5902C128.746 62.9636 124.611 69.2404 119.258 69.2136C113.904 69.1867 112.473 66.4688 112.473 66.4688Z" fill="#FFCDB2"/>
<path d="M126.914 45.3955C126.914 45.3955 131.566 50.2177 130.155 56.5912C128.743 62.9646 124.626 69.2146 119.288 69.2146H119.254C113.901 69.1859 112.476 66.4698 112.476 66.4698L112.834 72.5534C112.834 72.5534 109.919 74.3749 106.75 74.3749C104.475 74.3749 102.064 73.4391 100.488 70.2273C100.488 70.2273 106.035 62.1755 108.719 53.569C108.719 53.569 105.817 51.4559 107.586 48.8095C108.495 47.4496 109.603 46.9272 110.605 46.9272C111.049 46.9272 111.488 47.0299 111.887 47.2273C112.285 47.4247 112.633 47.7114 112.902 48.0651C112.902 48.0651 114.155 50.1122 117.223 50.1122C119.438 50.1122 122.591 49.051 126.921 45.3955H126.914ZM126.959 44.6619L126.574 44.9858C122.972 48.0276 119.827 49.5754 117.223 49.5754C114.484 49.5754 113.371 47.804 113.36 47.7861L113.348 47.7646L113.333 47.7448C113.015 47.3224 112.603 46.9801 112.129 46.7449C111.656 46.5098 111.133 46.3884 110.605 46.3904C109.284 46.3904 108.055 47.1437 107.141 48.5107C106.294 49.7757 106.246 51.1392 107.026 52.4471C107.317 52.9313 107.679 53.3691 108.1 53.7461C105.439 62.0502 100.109 69.8391 100.048 69.9178L99.8689 70.1754L100.007 70.4582C101.438 73.3675 103.764 74.9063 106.745 74.9063C110.038 74.9063 112.995 73.0812 113.12 73.0025L113.391 72.8343L113.371 72.5158L113.102 67.9388C114.14 68.7726 116.032 69.7281 119.252 69.746H119.29C121.94 69.746 124.479 68.3146 126.626 65.6163C128.498 63.2598 129.94 60.0927 130.686 56.702C131.287 53.9752 130.894 51.0909 129.55 48.3604C128.964 47.1461 128.209 46.0208 127.308 45.018L126.959 44.6602V44.6619Z" fill="#1D1D1B"/>
<path d="M113.983 68.5715C114.147 68.6735 114.315 68.7683 114.485 68.8542C114.554 68.8851 114.632 68.8883 114.702 68.863C114.773 68.8378 114.831 68.7862 114.864 68.719C114.898 68.6518 114.904 68.5742 114.881 68.5026C114.859 68.4311 114.809 68.3711 114.743 68.3353C113.011 67.4747 111.569 65.4152 111.555 65.3955C111.533 65.3644 111.505 65.3378 111.474 65.3173C111.442 65.2968 111.406 65.2828 111.369 65.2761C111.331 65.2693 111.293 65.27 111.256 65.2781C111.219 65.2861 111.184 65.3015 111.153 65.3231C111.122 65.3447 111.095 65.3722 111.075 65.4041C111.054 65.436 111.04 65.4716 111.033 65.5089C111.027 65.5462 111.027 65.5845 111.035 65.6215C111.044 65.6586 111.059 65.6937 111.08 65.7248C111.136 65.8071 112.365 67.5552 113.983 68.5715Z" fill="black"/>
<path d="M109.17 52.1608C109.208 52.2116 109.262 52.2483 109.323 52.2652C109.385 52.2822 109.45 52.2785 109.509 52.2546C109.568 52.2308 109.618 52.1882 109.65 52.1334C109.682 52.0786 109.696 52.0147 109.688 51.9515C109.544 50.8063 109.713 50.0262 110.195 49.6254C110.882 49.0636 112.009 49.4375 112.022 49.4465C112.093 49.4688 112.17 49.4626 112.237 49.4293C112.303 49.3959 112.355 49.3379 112.379 49.2675C112.403 49.1951 112.398 49.1162 112.365 49.0476C112.331 48.9791 112.272 48.9264 112.2 48.9008C112.141 48.8811 110.753 48.423 109.823 49.1834C109.177 49.7112 108.928 50.6686 109.107 52.0249C109.116 52.0747 109.138 52.1214 109.17 52.1608Z" fill="black"/>
<path d="M123.264 54.21C119.773 53.1722 116.305 49.5059 114.974 50.227C113.643 50.9481 113.376 52.7446 114.868 54.0382C116.361 55.3319 118.069 56.1961 121.668 57.7958C125.266 59.3954 128.891 60.7016 129.501 58.6493C130.111 56.5969 128.395 55.7345 123.264 54.21Z" fill="#FFB49F"/>
<path d="M115.361 52.4192C115.396 52.4666 115.445 52.5021 115.501 52.521C115.557 52.5399 115.617 52.5412 115.674 52.5249C118.895 51.6016 120.022 54.3141 120.068 54.434C120.101 54.4987 120.157 54.5489 120.224 54.5747C120.292 54.6004 120.367 54.5999 120.434 54.5732C120.502 54.5465 120.557 54.4955 120.588 54.4303C120.62 54.3652 120.626 54.2905 120.605 54.2211C120.591 54.1871 119.238 50.9001 115.513 51.9683C115.439 51.9895 115.377 52.0392 115.34 52.1063C115.302 52.1734 115.293 52.2524 115.314 52.3262C115.323 52.36 115.339 52.3916 115.361 52.4192Z" fill="black"/>
<path d="M126.266 52.6623C126.614 53.135 127.042 53.5437 127.53 53.8701C127.562 53.8931 127.598 53.9092 127.637 53.9175C127.676 53.9258 127.716 53.926 127.755 53.9181C127.794 53.9103 127.831 53.8946 127.863 53.8719C127.896 53.8493 127.923 53.8201 127.944 53.7864C127.965 53.7526 127.979 53.715 127.985 53.6758C127.99 53.6365 127.988 53.5965 127.978 53.5582C127.967 53.5199 127.949 53.4842 127.924 53.4532C127.9 53.4222 127.869 53.3966 127.834 53.378C127.217 52.9557 126.712 52.3894 126.363 51.7283C126.346 51.6945 126.322 51.6646 126.293 51.64C126.264 51.6155 126.231 51.5969 126.195 51.5852C126.159 51.5736 126.121 51.5692 126.083 51.5722C126.045 51.5753 126.008 51.5857 125.975 51.603C125.941 51.6202 125.911 51.644 125.886 51.6729C125.862 51.7017 125.843 51.7352 125.832 51.7712C125.82 51.8073 125.816 51.8452 125.819 51.883C125.822 51.9208 125.832 51.9576 125.849 51.9913C125.97 52.226 126.109 52.4504 126.266 52.6623Z" fill="black"/>
<path d="M114.153 60.3139C114.696 61.0448 115.487 61.5535 116.377 61.7454C116.415 61.7532 116.455 61.753 116.494 61.745C116.532 61.737 116.568 61.7213 116.601 61.6987C116.633 61.6762 116.66 61.6473 116.681 61.6139C116.701 61.5804 116.715 61.5431 116.721 61.5042C116.727 61.4653 116.725 61.4257 116.715 61.3877C116.705 61.3497 116.687 61.3141 116.663 61.2831C116.639 61.2521 116.609 61.2263 116.574 61.2073C116.54 61.1884 116.502 61.1766 116.463 61.1727C116.359 61.1566 114.002 60.7541 113.902 57.6658C113.895 57.5929 113.86 57.5256 113.804 57.4774C113.749 57.4293 113.677 57.4039 113.604 57.4064C113.531 57.4089 113.461 57.4391 113.409 57.4909C113.357 57.5427 113.327 57.6122 113.324 57.6855C113.362 58.861 113.707 59.7074 114.153 60.3139Z" fill="black"/>
<path d="M112.455 47.5437C113.095 48.4079 113.909 49.2239 114.903 49.7088C114.937 49.7282 114.975 49.7404 115.015 49.7446C115.054 49.7488 115.094 49.7449 115.131 49.7331C115.169 49.7213 115.204 49.7019 115.234 49.676C115.264 49.6502 115.289 49.6184 115.306 49.5828C115.323 49.5472 115.333 49.5083 115.335 49.4688C115.336 49.4292 115.33 49.3897 115.316 49.3528C115.302 49.3158 115.28 49.2821 115.252 49.2538C115.225 49.2254 115.192 49.2031 115.155 49.1881C112.53 47.9087 111.186 43.8953 111.174 43.8542C111.164 43.8152 111.147 43.7785 111.123 43.7465C111.099 43.7144 111.068 43.6877 111.034 43.6681C110.999 43.6484 110.96 43.6362 110.92 43.6323C110.88 43.6283 110.84 43.6327 110.802 43.6451C110.764 43.6575 110.728 43.6777 110.699 43.7044C110.669 43.7311 110.644 43.7637 110.628 43.8002C110.611 43.8367 110.602 43.8762 110.602 43.9163C110.601 43.9564 110.609 43.9961 110.624 44.0331C111.062 45.2855 111.678 46.468 112.455 47.5437Z" fill="black"/>
<path d="M113.652 46.7027C113.669 46.7256 113.69 46.746 113.713 46.7635C119.107 50.6999 124.033 45.5021 124.09 45.4502C124.119 45.4229 124.142 45.39 124.158 45.3535C124.173 45.3171 124.181 45.2779 124.181 45.2383C124.18 45.1987 124.172 45.1597 124.156 45.1234C124.14 45.0872 124.117 45.0546 124.088 45.0277C124.059 45.0007 124.025 44.9801 123.987 44.9669C123.95 44.9537 123.91 44.9482 123.871 44.9509C123.831 44.9536 123.793 44.9643 123.758 44.9825C123.723 45.0007 123.691 45.0259 123.666 45.0565C123.487 45.2569 119.039 49.9359 114.063 46.2965C114.007 46.2568 113.939 46.2383 113.871 46.2443C113.802 46.2502 113.738 46.2802 113.69 46.3289C113.642 46.3777 113.612 46.442 113.607 46.5105C113.601 46.5789 113.62 46.647 113.661 46.7027H113.652Z" fill="white"/>
<path d="M121.151 60.3578C121.193 60.4172 121.258 60.4575 121.33 60.4706C121.367 60.4769 121.405 60.4758 121.442 60.4673C121.479 60.4588 121.515 60.4431 121.545 60.4209C121.576 60.3988 121.603 60.3708 121.623 60.3385C121.643 60.3061 121.656 60.2701 121.662 60.2326L122.598 54.4228C122.607 54.3841 122.608 54.3439 122.601 54.3048C122.594 54.2656 122.579 54.2284 122.557 54.1953C122.535 54.1622 122.506 54.1341 122.473 54.1125C122.439 54.091 122.402 54.0766 122.363 54.0702C122.323 54.0638 122.283 54.0655 122.245 54.0753C122.206 54.0851 122.17 54.1027 122.139 54.1271C122.107 54.1514 122.081 54.182 122.062 54.2169C122.043 54.2517 122.031 54.2901 122.027 54.3297L121.092 60.1395C121.086 60.178 121.088 60.2174 121.098 60.2549C121.108 60.2925 121.126 60.3275 121.151 60.3578Z" fill="black"/>
<path d="M107.443 54.041C108.082 54.041 108.601 53.5227 108.601 52.8833C108.601 52.2439 108.082 51.7256 107.443 51.7256C106.803 51.7256 106.285 52.2439 106.285 52.8833C106.285 53.5227 106.803 54.041 107.443 54.041Z" fill="#07ACEE"/>
<path d="M108.371 52.1943C108.508 52.3777 108.588 52.5978 108.6 52.8265C108.612 53.0552 108.555 53.2822 108.438 53.4788C108.32 53.6754 108.147 53.8327 107.94 53.9307C107.733 54.0287 107.502 54.0631 107.275 54.0293C107.049 53.9956 106.837 53.8953 106.668 53.7413C106.498 53.5872 106.378 53.3863 106.323 53.1641C106.268 52.9418 106.281 52.7082 106.358 52.4928C106.436 52.2775 106.577 52.0901 106.761 51.9545C107.007 51.7735 107.314 51.6971 107.616 51.7421C107.917 51.787 108.189 51.9496 108.371 52.1943ZM108.837 51.849C108.632 51.5734 108.35 51.3648 108.027 51.2494C107.703 51.134 107.353 51.1171 107.02 51.2008C106.687 51.2845 106.387 51.465 106.156 51.7196C105.926 51.9742 105.776 52.2913 105.726 52.6309C105.676 52.9706 105.728 53.3174 105.875 53.6276C106.022 53.9378 106.258 54.1974 106.553 54.3736C106.847 54.5498 107.187 54.6347 107.53 54.6175C107.873 54.6003 108.203 54.4818 108.479 54.277C108.847 54.0019 109.092 53.5919 109.159 53.1369C109.226 52.6818 109.11 52.2188 108.837 51.849Z" fill="black"/>
<path d="M116.78 29.7167L116.792 29.7328C116.842 29.7908 116.913 29.8266 116.99 29.8323C117.066 29.838 117.142 29.8131 117.2 29.7632C118.452 28.6753 119.726 28.2066 120.966 28.3676C122.995 28.6306 124.294 30.4986 124.307 30.5147C124.352 30.5745 124.418 30.6145 124.492 30.6267C124.566 30.6388 124.641 30.622 124.703 30.5797C124.764 30.5375 124.807 30.4731 124.822 30.4C124.838 30.3269 124.824 30.2507 124.785 30.1873C124.726 30.1014 123.325 28.0867 121.042 27.7897C119.632 27.6107 118.213 28.1225 116.822 29.3213C116.767 29.3695 116.731 29.4372 116.723 29.5105C116.715 29.5839 116.735 29.6576 116.78 29.7167Z" fill="white"/>
<path d="M93.533 97.164C94.3374 97.164 94.9894 96.5119 94.9894 95.7075C94.9894 94.9031 94.3374 94.251 93.533 94.251C92.7286 94.251 92.0764 94.9031 92.0764 95.7075C92.0764 96.5119 92.7286 97.164 93.533 97.164Z" fill="#51CEF4"/>
<path d="M65.2623 92.87C66.0667 92.87 66.7187 92.2179 66.7187 91.4135C66.7187 90.6091 66.0667 89.957 65.2623 89.957C64.4579 89.957 63.8057 90.6091 63.8057 91.4135C63.8057 92.2179 64.4579 92.87 65.2623 92.87Z" fill="#51CEF4"/>
<path d="M98.3643 127.761C99.1687 127.761 99.8207 127.109 99.8207 126.304C99.8207 125.5 99.1687 124.848 98.3643 124.848C97.5599 124.848 96.9077 125.5 96.9077 126.304C96.9077 127.109 97.5599 127.761 98.3643 127.761Z" fill="#51CEF4"/>
<path d="M76.356 129.729C77.1604 129.729 77.8124 129.077 77.8124 128.273C77.8124 127.469 77.1604 126.816 76.356 126.816C75.5516 126.816 74.8994 127.469 74.8994 128.273C74.8994 129.077 75.5516 129.729 76.356 129.729Z" fill="#51CEF4"/>
<path d="M115.541 142.791C116.346 142.791 116.998 142.139 116.998 141.334C116.998 140.53 116.346 139.878 115.541 139.878C114.737 139.878 114.085 140.53 114.085 141.334C114.085 142.139 114.737 142.791 115.541 142.791Z" fill="#51CEF4"/>
<path d="M142.918 113.626C143.722 113.626 144.374 112.974 144.374 112.169C144.374 111.365 143.722 110.713 142.918 110.713C142.113 110.713 141.461 111.365 141.461 112.169C141.461 112.974 142.113 113.626 142.918 113.626Z" fill="#51CEF4"/>
<path d="M158.663 105.037C159.468 105.037 160.12 104.385 160.12 103.581C160.12 102.776 159.468 102.124 158.663 102.124C157.859 102.124 157.207 102.776 157.207 103.581C157.207 104.385 157.859 105.037 158.663 105.037Z" fill="#51CEF4"/>
<path d="M171.367 83.207C172.172 83.207 172.824 82.5548 172.824 81.7505C172.824 80.9461 172.172 80.2939 171.367 80.2939C170.563 80.2939 169.911 80.9461 169.911 81.7505C169.911 82.5548 170.563 83.207 171.367 83.207Z" fill="#51CEF4"/>
<path d="M157.053 85.7128C157.857 85.7128 158.509 85.0607 158.509 84.2563C158.509 83.4519 157.857 82.7998 157.053 82.7998C156.248 82.7998 155.596 83.4519 155.596 84.2563C155.596 85.0607 156.248 85.7128 157.053 85.7128Z" fill="#51CEF4"/>
<path d="M87.6285 87.1435C88.4329 87.1435 89.0849 86.4914 89.0849 85.687C89.0849 84.8826 88.4329 84.2305 87.6285 84.2305C86.8241 84.2305 86.1719 84.8826 86.1719 85.687C86.1719 86.4914 86.8241 87.1435 87.6285 87.1435Z" fill="#51CEF4"/>
<path d="M94.9647 78.3769C95.769 78.3769 96.4211 77.7248 96.4211 76.9204C96.4211 76.116 95.769 75.4639 94.9647 75.4639C94.1603 75.4639 93.5081 76.116 93.5081 76.9204C93.5081 77.7248 94.1603 78.3769 94.9647 78.3769Z" fill="#51CEF4"/>
<path d="M136.476 100.385C137.281 100.385 137.933 99.7326 137.933 98.9282C137.933 98.1238 137.281 97.4717 136.476 97.4717C135.672 97.4717 135.02 98.1238 135.02 98.9282C135.02 99.7326 135.672 100.385 136.476 100.385Z" fill="#51CEF4"/>
<path d="M93.0964 76.9541C93.0964 76.9541 94.8857 127.949 104.19 130.633C113.494 133.317 138.296 101.288 142.177 92.6998C146.058 84.1113 93.0964 76.9541 93.0964 76.9541Z" fill="#0598C6"/>
<path d="M158.699 59.2991C158.096 59.3044 157.495 59.2334 156.91 59.0879C156.876 59.0791 156.843 59.0636 156.815 59.0424C156.787 59.0212 156.763 58.9946 156.745 58.9642C156.727 58.9338 156.716 58.9002 156.711 58.8652C156.706 58.8303 156.708 58.7947 156.716 58.7605C156.725 58.7263 156.741 58.6941 156.762 58.6659C156.783 58.6377 156.81 58.614 156.84 58.596C156.871 58.5781 156.904 58.5663 156.939 58.5614C156.974 58.5564 157.01 58.5585 157.044 58.5673C160.363 59.4297 165.081 57.1144 165.13 57.0911C165.162 57.0723 165.197 57.0603 165.233 57.0557C165.27 57.0512 165.307 57.0543 165.343 57.0647C165.378 57.0752 165.411 57.0929 165.439 57.1166C165.467 57.1404 165.49 57.1697 165.507 57.2028C165.523 57.2358 165.533 57.2719 165.534 57.3088C165.536 57.3456 165.531 57.3825 165.518 57.417C165.504 57.4515 165.484 57.483 165.459 57.5094C165.433 57.5359 165.402 57.5567 165.368 57.5706C165.205 57.6547 161.845 59.2991 158.699 59.2991Z" fill="#1D1D1B"/>
<path d="M126.556 57.451C126.952 57.451 127.272 57.1305 127.272 56.7352C127.272 56.34 126.952 56.0195 126.556 56.0195C126.161 56.0195 125.841 56.34 125.841 56.7352C125.841 57.1305 126.161 57.451 126.556 57.451Z" fill="black"/>
<path d="M69.1681 50.4922H69.1253C63.2583 49.798 57.5486 47.76 52.1592 44.4337C47.8542 41.7784 43.7496 38.2982 39.9367 34.0934C33.4612 26.9363 30.0705 20.0547 30.0365 19.9867C30.0158 19.9444 30.0036 19.8984 30.0007 19.8514C29.9978 19.8045 30.0041 19.7573 30.0194 19.7128C30.0347 19.6683 30.0586 19.6272 30.0898 19.5919C30.121 19.5566 30.1588 19.5278 30.2011 19.5071C30.2434 19.4865 30.2894 19.4743 30.3364 19.4714C30.3833 19.4685 30.4304 19.4748 30.4749 19.4901C30.5195 19.5054 30.5606 19.5293 30.5958 19.5605C30.6311 19.5917 30.6599 19.6294 30.6806 19.6717C30.7128 19.7397 34.0696 26.5462 40.4806 33.6282C46.3853 40.1448 56.1565 48.2378 69.2094 49.7819C69.3043 49.7874 69.3932 49.8303 69.4565 49.9013C69.5197 49.9723 69.5521 50.0654 69.5466 50.1603C69.5412 50.2552 69.4982 50.3441 69.4273 50.4074C69.3563 50.4707 69.2631 50.5031 69.1681 50.4977V50.4922Z" fill="#1D1D1B"/>
<path d="M56.4501 54.7438C50.4435 54.7438 44.0807 51.0739 39.7828 47.9766C36.9253 45.9137 34.2397 43.6224 31.7525 41.1254C31.72 41.0915 31.6944 41.0515 31.6774 41.0076C31.6603 40.9638 31.6519 40.9171 31.6529 40.87C31.6539 40.823 31.6642 40.7766 31.6831 40.7336C31.7021 40.6905 31.7292 40.6517 31.7632 40.6191C31.7971 40.5866 31.8371 40.561 31.8809 40.5439C31.9248 40.5268 31.9716 40.5186 32.0186 40.5196C32.0657 40.5206 32.112 40.5308 32.1551 40.5498C32.1982 40.5687 32.237 40.5959 32.2696 40.6299C32.3984 40.7659 45.2347 54.028 56.4482 54.028H56.6271C56.722 54.028 56.813 54.0657 56.8802 54.1328C56.9473 54.1999 56.985 54.291 56.985 54.3859C56.985 54.4808 56.9473 54.5718 56.8802 54.6389C56.813 54.706 56.722 54.7438 56.6271 54.7438H56.4501Z" fill="#1D1D1B"/>
<path d="M176.119 104.331C176.037 104.331 175.956 104.302 175.892 104.25C175.856 104.22 175.825 104.184 175.803 104.142C175.781 104.101 175.767 104.055 175.762 104.008C175.758 103.961 175.762 103.914 175.776 103.869C175.79 103.824 175.812 103.782 175.842 103.746C182.437 95.6938 184.207 87.7333 184.529 82.4799C184.887 76.7971 183.665 72.9878 183.652 72.9502C183.627 72.8612 183.637 72.7657 183.68 72.684C183.724 72.6022 183.797 72.5405 183.885 72.5118C183.973 72.4831 184.069 72.4896 184.152 72.53C184.236 72.5703 184.3 72.6414 184.332 72.7283C184.384 72.8875 185.603 76.7077 185.245 82.5229C184.914 87.8818 183.112 95.9927 176.397 104.2C176.363 104.241 176.321 104.274 176.273 104.297C176.225 104.319 176.172 104.331 176.119 104.331Z" fill="#1D1D1B"/>
<path d="M56.5948 103.973C56.5314 103.973 56.4691 103.957 56.4141 103.925C56.3591 103.894 56.3133 103.849 56.2816 103.794C53.6384 99.0767 52.2954 93.7423 52.3899 88.336C52.4794 84.3226 53.3562 81.7783 53.3938 81.6727C53.4251 81.583 53.4906 81.5095 53.5762 81.4682C53.6618 81.4269 53.7603 81.4213 53.85 81.4526C53.9397 81.484 54.0132 81.5496 54.0545 81.6352C54.0957 81.7207 54.1013 81.8192 54.07 81.9089C54.0342 82.0091 50.6257 92.1078 56.9079 103.447C56.9394 103.501 56.9559 103.563 56.9558 103.626C56.9556 103.689 56.9388 103.751 56.907 103.806C56.8752 103.86 56.8296 103.905 56.7747 103.937C56.7199 103.968 56.6578 103.984 56.5948 103.983V103.973Z" fill="#1D1D1B"/>
<path d="M175.225 92.6997C175.134 92.6999 175.044 92.6765 174.965 92.6318C174.841 92.5628 174.749 92.4474 174.71 92.3109C174.671 92.1744 174.687 92.0279 174.756 91.9035C178.428 85.2831 178.513 80.9888 177.925 78.5608C177.306 75.9752 175.826 74.8981 175.812 74.8891C175.699 74.806 175.624 74.6824 175.601 74.5445C175.578 74.4066 175.611 74.2653 175.691 74.1506C175.77 74.036 175.892 73.9571 176.029 73.9306C176.166 73.9041 176.308 73.9322 176.425 74.0088C176.499 74.0589 178.215 75.2756 178.945 78.2101C179.898 82.0266 178.805 86.8094 175.694 92.4224C175.647 92.5063 175.579 92.5762 175.497 92.625C175.414 92.6737 175.32 92.6995 175.225 92.6997Z" fill="white"/>
<path d="M91.7437 148.159C92.5481 148.159 93.2001 147.507 93.2001 146.703C93.2001 145.898 92.5481 145.246 91.7437 145.246C90.9393 145.246 90.2871 145.898 90.2871 146.703C90.2871 147.507 90.9393 148.159 91.7437 148.159Z" fill="#51CEF4"/>
<path d="M132.719 147.265C133.523 147.265 134.175 146.612 134.175 145.808C134.175 145.004 133.523 144.352 132.719 144.352C131.914 144.352 131.262 145.004 131.262 145.808C131.262 146.612 131.914 147.265 132.719 147.265Z" fill="#51CEF4"/>
<path d="M135.198 26.4704C117.4 21.5015 98.9421 31.9009 93.9732 49.699C89.9616 64.067 100.132 108.719 104.201 125.398C104.358 126.041 104.683 126.631 105.144 127.107C105.604 127.582 106.183 127.927 106.82 128.105C107.458 128.283 108.132 128.288 108.772 128.119C109.412 127.951 109.996 127.615 110.463 127.147C122.586 114.979 154.415 82.0564 158.427 67.6956C163.396 49.8975 152.996 31.441 135.198 26.4704ZM122.181 73.0885C118.935 72.182 116.03 70.3331 113.834 67.7757C111.638 65.2183 110.25 62.0671 109.845 58.7208C109.441 55.3745 110.037 51.9833 111.559 48.9759C113.082 45.9686 115.462 43.4802 118.398 41.8255C121.335 40.1708 124.696 39.424 128.057 39.6797C131.418 39.9353 134.628 41.1818 137.281 43.2616C139.933 45.3413 141.91 48.161 142.96 51.3639C144.01 54.5669 144.087 58.0094 143.18 61.256C142.579 63.4118 141.558 65.4279 140.177 67.1893C138.796 68.9507 137.082 70.4228 135.132 71.5216C133.182 72.6203 131.034 73.3242 128.812 73.5931C126.59 73.8619 124.337 73.6905 122.181 73.0885Z" fill="#4BD657"/>
<path d="M107.844 128.516C107.473 128.515 107.105 128.464 106.749 128.364C106.063 128.177 105.44 127.81 104.945 127.299C104.451 126.788 104.104 126.153 103.941 125.461C99.5378 107.416 89.7271 63.9097 93.7136 49.6276C96.1198 41.0122 101.849 33.7054 109.643 29.3144C117.436 24.9234 126.654 23.8078 135.27 26.213C153.182 31.2141 163.687 49.8567 158.684 67.7692C154.698 82.0478 123.767 114.183 110.653 127.337C110.286 127.709 109.849 128.006 109.367 128.208C108.884 128.41 108.367 128.515 107.844 128.516ZM126.15 25.492C118.911 25.5111 111.877 27.8929 106.115 32.2754C100.354 36.658 96.1811 42.8016 94.2307 49.7726C90.2781 63.9276 100.069 107.33 104.462 125.334C104.608 125.931 104.91 126.478 105.337 126.92C105.764 127.361 106.301 127.681 106.893 127.846C107.485 128.011 108.11 128.016 108.704 127.86C109.298 127.704 109.84 127.392 110.273 126.957C123.357 113.833 154.215 81.7812 158.169 67.6243C163.09 49.9962 152.753 31.6596 135.127 26.7301C132.205 25.9108 129.185 25.4942 126.15 25.492ZM126.792 73.9924C122.578 74.0037 118.504 72.4789 115.332 69.7036C112.16 66.9282 110.108 63.0923 109.56 58.9136C109.012 54.7349 110.006 50.4996 112.354 47.0002C114.703 43.5008 118.246 40.9771 122.321 39.9012C126.396 38.8252 130.723 39.2708 134.493 41.1545C138.263 43.0383 141.218 46.2311 142.804 50.1357C144.391 54.0402 144.5 58.389 143.112 62.3684C141.724 66.3477 138.933 69.685 135.263 71.7558C132.677 73.2139 129.761 73.984 126.792 73.9924ZM126.74 39.8922C122.683 39.8933 118.763 41.3648 115.707 44.0342C112.652 46.7035 110.667 50.3898 110.12 54.4103C109.574 58.4308 110.502 62.5132 112.735 65.9014C114.967 69.2896 118.352 71.754 122.262 72.8383C124.388 73.4461 126.614 73.6274 128.81 73.3718C131.007 73.1162 133.132 72.4288 135.062 71.349C136.992 70.2693 138.689 68.8185 140.056 67.0803C141.424 65.342 142.434 63.3506 143.028 61.2205C143.623 59.0904 143.791 56.8637 143.522 54.6686C143.253 52.4735 142.552 50.3533 141.461 48.43C140.369 46.5066 138.908 44.818 137.161 43.4615C135.415 42.1049 133.417 41.1072 131.283 40.5256C129.803 40.1077 128.273 39.8945 126.735 39.8922H126.74Z" fill="#1D1E1B"/>
<path d="M155.543 33.295C155.472 33.2949 155.404 33.2742 155.345 33.2354C155.287 33.1966 155.241 33.1413 155.213 33.0767C150.341 21.5912 135.431 19.7107 135.282 19.6946C135.235 19.6892 135.19 19.6746 135.149 19.6516C135.107 19.6286 135.071 19.5978 135.041 19.5607C135.012 19.5237 134.99 19.4812 134.977 19.4357C134.964 19.3902 134.96 19.3425 134.966 19.2956C134.971 19.2486 134.986 19.2031 135.009 19.1618C135.032 19.1204 135.063 19.084 135.1 19.0546C135.137 19.0252 135.179 19.0034 135.225 18.9904C135.27 18.9774 135.318 18.9735 135.365 18.9789C138.237 19.4046 141.039 20.2114 143.697 21.3783C147.797 23.1587 153.238 26.5852 155.865 32.794C155.902 32.8814 155.902 32.9798 155.867 33.0677C155.831 33.1556 155.762 33.2257 155.675 33.2628C155.633 33.2819 155.588 33.2928 155.543 33.295Z" fill="#1D1D1B"/>
<path d="M163.415 143.158C163.384 143.158 163.353 143.154 163.322 143.145C155.553 141.05 148.471 137.178 142.284 131.64C137.337 127.215 132.942 121.722 129.222 115.313C122.892 104.409 120.682 94.4855 120.66 94.387C120.647 94.3402 120.644 94.2911 120.65 94.2428C120.657 94.1945 120.673 94.1482 120.698 94.1064C120.723 94.0647 120.756 94.0284 120.796 94C120.835 93.9716 120.88 93.9515 120.928 93.941C120.975 93.9305 121.024 93.9298 121.072 93.939C121.12 93.9482 121.166 93.9671 121.206 93.9944C121.246 94.0218 121.28 94.057 121.307 94.098C121.333 94.1391 121.35 94.185 121.358 94.2331C121.38 94.3315 123.573 104.162 129.852 114.973C135.633 124.927 146.165 137.774 163.508 142.454C163.592 142.477 163.665 142.53 163.713 142.602C163.761 142.674 163.781 142.761 163.769 142.847C163.758 142.933 163.716 143.011 163.651 143.069C163.586 143.126 163.502 143.157 163.415 143.158Z" fill="#1D1D1B"/>
<path d="M134.787 136.357C134.724 136.357 134.662 136.341 134.608 136.309C126.401 131.553 121.546 124.545 118.904 119.502C116.05 114.041 115.121 109.634 115.112 109.59C115.093 109.497 115.112 109.4 115.164 109.321C115.216 109.242 115.298 109.186 115.391 109.167C115.484 109.148 115.581 109.167 115.66 109.219C115.739 109.272 115.794 109.354 115.813 109.447C115.822 109.489 116.737 113.816 119.548 119.193C122.139 124.144 126.916 131.024 134.966 135.69C135.034 135.729 135.087 135.79 135.117 135.863C135.147 135.936 135.152 136.016 135.132 136.092C135.112 136.168 135.067 136.235 135.004 136.283C134.942 136.331 134.866 136.357 134.787 136.357Z" fill="#1D1D1B"/>
<path d="M129.598 99.4988C129.485 99.4991 129.376 99.4639 129.284 99.3984C129.193 99.3329 129.124 99.2404 129.088 99.1338C129.052 99.0272 129.051 98.912 129.084 98.8044C129.117 98.6969 129.183 98.6024 129.272 98.5343C141.031 89.5879 149.268 75.0481 149.348 74.9014C149.383 74.8398 149.429 74.7857 149.484 74.742C149.54 74.6984 149.603 74.6661 149.671 74.647C149.739 74.6279 149.81 74.6224 149.881 74.6307C149.951 74.6391 150.018 74.6611 150.08 74.6957C150.141 74.7302 150.196 74.7766 150.239 74.832C150.283 74.8875 150.315 74.951 150.334 75.019C150.353 75.087 150.359 75.158 150.351 75.2281C150.342 75.2982 150.32 75.366 150.286 75.4275C150.202 75.5743 141.862 90.3019 129.924 99.3897C129.83 99.4607 129.716 99.4991 129.598 99.4988Z" fill="white"/>
<path d="M108.127 34.0103C108.047 34.0102 107.969 33.9926 107.897 33.9586C107.825 33.9245 107.762 33.8749 107.711 33.8134C107.621 33.7033 107.579 33.562 107.593 33.4204C107.607 33.2788 107.676 33.1486 107.787 33.0584C107.912 32.9564 110.909 30.5194 115.77 28.7426C120.263 27.0983 127.243 25.7545 134.977 28.6764C135.043 28.7013 135.103 28.739 135.155 28.7873C135.206 28.8355 135.248 28.8935 135.277 28.9578C135.306 29.0221 135.322 29.0915 135.324 29.162C135.326 29.2325 135.315 29.3028 135.29 29.3689C135.265 29.4349 135.227 29.4954 135.179 29.5468C135.131 29.5983 135.073 29.6397 135.008 29.6688C134.944 29.6979 134.875 29.7141 134.804 29.7163C134.734 29.7186 134.663 29.7069 134.597 29.682C127.188 26.88 120.489 28.1647 116.168 29.7375C111.467 31.4498 108.49 33.8635 108.459 33.8886C108.365 33.9656 108.248 34.0086 108.127 34.0103Z" fill="white"/>
<path d="M66.257 123.834C66.257 108.804 59.1642 101.088 58.631 92.7897C57.0367 67.8935 69.8052 59.9007 73.0904 54.9032C77.4723 48.2381 85.907 53.9818 85.907 53.9818L87.6264 52.0709C87.6264 52.0709 90.4196 58.2242 98.6629 60.3373L97.5893 63.8015C97.5893 63.8015 101.03 71.5097 95.8089 76.033C90.5878 80.5563 85.2235 93.0581 89.3388 104.688" fill="#07ACEE"/>
<path d="M66.2571 124.192C66.1622 124.192 66.0712 124.154 66.0041 124.087C65.937 124.02 65.8993 123.929 65.8993 123.834C65.8993 114.957 63.4371 108.731 61.2649 103.236C59.778 99.4783 58.4933 96.2271 58.275 92.8132C56.9653 72.3813 65.2318 63.2792 70.1721 57.8397C71.2599 56.6427 72.1975 55.6103 72.7915 54.7067C73.9563 52.9353 75.5059 51.8439 77.3972 51.4717C81.0438 50.756 84.8209 52.8798 85.8444 53.5168L87.3601 51.8313C87.3998 51.7871 87.4497 51.7536 87.5056 51.7336C87.5615 51.7136 87.6217 51.7079 87.6804 51.7168C87.7392 51.7258 87.7949 51.7493 87.8423 51.7853C87.8898 51.8212 87.9276 51.8684 87.9523 51.9226C87.9791 51.9834 90.7848 57.9489 98.7525 59.9905C98.8001 60.0033 98.8445 60.0258 98.883 60.0566C98.9215 60.0874 98.9532 60.1258 98.9761 60.1694C98.9997 60.2118 99.0144 60.2586 99.0193 60.3069C99.0242 60.3552 99.0191 60.404 99.0046 60.4503L97.9723 63.791C98.3946 64.8341 101.032 71.9913 96.047 76.316C90.7937 80.8679 85.6565 93.2212 89.6771 104.587C89.7089 104.676 89.7039 104.775 89.6629 104.861C89.622 104.947 89.5485 105.013 89.4588 105.045C89.3691 105.077 89.2706 105.071 89.1847 105.031C89.0988 104.99 89.0326 104.916 89.0008 104.826C84.8765 93.1657 90.1692 80.4653 95.5782 75.781C100.535 71.4867 97.2995 64.0414 97.2655 63.9716C97.2302 63.8921 97.2251 63.8024 97.2511 63.7193L98.2103 60.6114C91.4002 58.7362 88.38 54.2075 87.5462 52.7188L86.1736 54.2451C86.1158 54.3095 86.0369 54.3507 85.951 54.3612C85.8652 54.3717 85.7783 54.3508 85.7067 54.3023C85.6638 54.2737 81.4123 51.4251 77.5331 52.1963C75.8387 52.5327 74.445 53.5187 73.3893 55.1237C72.7648 56.0738 71.8093 57.1259 70.7053 58.3444C65.8421 63.6997 57.7026 72.6586 58.9927 92.7899C59.2038 96.093 60.4687 99.2922 61.9342 102.989C64.1296 108.536 66.6185 114.836 66.6185 123.85C66.6143 123.943 66.5744 124.03 66.507 124.094C66.4395 124.158 66.3499 124.193 66.2571 124.192Z" fill="#1D1D1B"/>
<path d="M97.3137 63.7521C97.3387 63.7521 98.33 60.4688 98.33 60.4688C90.0867 58.3556 87.5942 52.4707 87.5942 52.4707L85.8264 54.3315L85.8766 54.2153C85.8766 54.2153 86.0251 62.4227 97.3137 63.7521Z" fill="#0598C6"/>
<path d="M101.304 36.1345C101.304 36.1345 95.553 33.6904 91.8796 39.1942C88.2062 44.6981 86.5116 50.9392 88.9916 55.4196C91.4715 59.8999 95.3151 60.9663 98.126 60.315C100.937 59.6637 101.993 56.9636 100.472 53.6141C100.472 53.6141 105.074 51.5457 102.053 45.8146C102.053 45.8146 107.69 40.0889 100.636 38.636L101.304 36.1345Z" fill="#FFCDB2"/>
<path d="M88.0539 48.0944C88.5746 45.1636 89.9542 42.077 91.8794 39.1945C95.5528 33.6906 101.304 36.1347 101.304 36.1347L100.636 38.6398C103.753 39.2785 104.394 40.7547 104.134 42.2023C103.809 44.0327 102.053 45.8184 102.053 45.8184C103.028 47.6703 103.209 49.1393 103.005 50.2809C102.581 52.6696 100.472 53.6179 100.472 53.6179C101.098 54.9939 101.287 56.2607 101.098 57.3199C100.828 58.839 99.781 59.9341 98.1259 60.3188C95.3149 60.9737 91.4642 59.9037 88.9914 55.4233C87.814 53.2905 87.5798 50.7587 88.0539 48.098V48.0944ZM87.5493 48.0085C87.0268 50.9483 87.3596 53.5267 88.5441 55.6702C89.7286 57.8138 91.3425 59.3991 93.2177 60.2616C94.7854 60.9958 96.5517 61.1914 98.2421 60.818C100.067 60.3922 101.284 59.1504 101.602 57.4094C101.792 56.3358 101.628 55.1102 101.123 53.8398C101.74 53.4593 102.271 52.9541 102.682 52.3567C103.093 51.7593 103.375 51.0828 103.51 50.3703C103.748 49.0284 103.467 47.5254 102.671 45.8971C103.193 45.3031 104.363 43.8323 104.639 42.2881C104.887 40.8835 104.481 39.0817 101.268 38.2551L101.805 36.2654C101.808 36.2512 101.811 36.237 101.813 36.2225C101.834 36.1087 101.815 35.9914 101.76 35.8897C101.705 35.788 101.617 35.7079 101.511 35.6624C100.377 35.2325 99.1664 35.037 97.9541 35.088C96.1058 35.1631 93.4809 35.886 91.4608 38.9081C89.421 41.9625 88.0718 45.108 87.5565 48.0031L87.5493 48.0085Z" fill="black"/>
<path d="M99.3893 54.0179C97.8424 54.0195 96.3176 53.6509 94.9423 52.9427C93.567 52.2345 92.3814 51.2074 91.4843 49.9472C91.4466 49.8867 91.4345 49.8137 91.4506 49.7443C91.4667 49.6748 91.5096 49.6146 91.5701 49.5769C91.6306 49.5392 91.7037 49.527 91.7731 49.5431C91.8426 49.5592 91.9028 49.6023 91.9405 49.6628C91.9691 49.7093 94.9233 54.3148 101.048 53.3486C101.083 53.3432 101.119 53.3449 101.154 53.3534C101.188 53.3618 101.221 53.3771 101.25 53.3982C101.279 53.4193 101.303 53.4459 101.321 53.4764C101.34 53.5069 101.352 53.5406 101.358 53.5759C101.363 53.6111 101.361 53.6471 101.353 53.6818C101.344 53.7164 101.329 53.749 101.308 53.7778C101.287 53.8065 101.26 53.8308 101.23 53.8492C101.199 53.8677 101.166 53.88 101.13 53.8854C100.554 53.9752 99.9722 54.0195 99.3893 54.0179Z" fill="#1D1D1B"/>
<path d="M101.148 46.437C97.8829 46.437 94.3222 44.4688 94.1504 44.3704C94.0882 44.3355 94.0425 44.2774 94.0232 44.2088C94.0039 44.1402 94.0128 44.0667 94.0476 44.0045C94.0825 43.9423 94.1407 43.8965 94.2093 43.8772C94.2779 43.8579 94.3514 43.8667 94.4135 43.9016C94.4601 43.9284 99.0656 46.4745 102.415 45.7785C102.485 45.764 102.558 45.7779 102.617 45.817C102.677 45.8561 102.718 45.9172 102.733 45.987C102.747 46.0567 102.733 46.1294 102.694 46.189C102.655 46.2485 102.594 46.2902 102.524 46.3046C102.072 46.3959 101.61 46.4402 101.148 46.437Z" fill="#1D1D1B"/>
<path d="M101.243 38.8291C101.199 38.829 101.155 38.818 101.116 38.7969C101.089 38.7826 98.3998 37.3332 96.4834 38.0167C96.4163 38.0404 96.3426 38.0366 96.2783 38.0059C96.214 37.9752 96.1645 37.9201 96.1408 37.853C96.1171 37.7858 96.1211 37.712 96.1518 37.6478C96.1825 37.5835 96.2374 37.5341 96.3045 37.5103C98.4517 36.7445 101.255 38.2618 101.375 38.3263C101.427 38.3552 101.468 38.4006 101.492 38.4552C101.515 38.5098 101.519 38.5707 101.504 38.6282C101.49 38.6857 101.456 38.7366 101.409 38.773C101.362 38.8093 101.304 38.829 101.245 38.8291H101.243Z" fill="#1D1D1B"/>
<path d="M73.493 72.6513C74.2974 72.6513 74.9494 71.9992 74.9494 71.1948C74.9494 70.3904 74.2974 69.7383 73.493 69.7383C72.6886 69.7383 72.0364 70.3904 72.0364 71.1948C72.0364 71.9992 72.6886 72.6513 73.493 72.6513Z" fill="#51CEF4"/>
<path d="M73.1353 86.2499C73.9397 86.2499 74.5917 85.5978 74.5917 84.7934C74.5917 83.989 73.9397 83.3369 73.1353 83.3369C72.3309 83.3369 71.6787 83.989 71.6787 84.7934C71.6787 85.5978 72.3309 86.2499 73.1353 86.2499Z" fill="#51CEF4"/>
<path d="M91.565 75.1572C92.3694 75.1572 93.0214 74.505 93.0214 73.7006C93.0214 72.8963 92.3694 72.2441 91.565 72.2441C90.7606 72.2441 90.1084 72.8963 90.1084 73.7006C90.1084 74.505 90.7606 75.1572 91.565 75.1572Z" fill="#51CEF4"/>
<path d="M73.493 107.9C74.2974 107.9 74.9494 107.248 74.9494 106.444C74.9494 105.639 74.2974 104.987 73.493 104.987C72.6886 104.987 72.0364 105.639 72.0364 106.444C72.0364 107.248 72.6886 107.9 73.493 107.9Z" fill="#51CEF4"/>
<path d="M158.636 48.9924C158.636 48.9924 164.501 46.8363 167.896 52.5155C171.29 58.1947 172.668 64.5037 169.973 68.8642C167.278 73.2247 163.383 74.0943 160.608 73.2999C157.833 72.5054 156.911 69.7606 158.597 66.5006C158.597 66.5006 154.104 64.2067 157.405 58.6277C157.405 58.6277 152.06 52.6229 159.176 51.5278L158.636 48.9924Z" fill="#FFCDB2"/>
<path d="M171.276 61.5941C171.616 64.278 171.256 66.7919 169.973 68.8639C167.289 73.2155 163.383 74.094 160.608 73.2996C158.974 72.8326 157.983 71.6892 157.788 70.1576C157.652 69.084 157.905 67.8316 158.597 66.4914C158.597 66.4914 156.539 65.4393 156.233 63.0309C156.087 61.8822 156.339 60.4239 157.405 58.6221C157.405 58.6221 155.741 56.7504 155.507 54.9075C155.328 53.4492 156.033 52.0071 159.177 51.5222L158.64 48.9922C158.64 48.9922 164.505 46.8361 167.899 52.5153C169.678 55.4909 170.904 58.6417 171.28 61.5941H171.276ZM171.786 61.5297C171.416 58.6131 170.224 55.4049 168.34 52.2522C166.475 49.1335 163.886 48.28 162.043 48.1136C160.836 48.003 159.618 48.1381 158.465 48.5108C158.357 48.5502 158.266 48.6246 158.206 48.7219C158.146 48.8193 158.121 48.9339 158.134 49.0476C158.133 49.0619 158.133 49.0762 158.134 49.0905L158.565 51.1052C155.312 51.7709 154.818 53.5513 154.997 54.9648C155.196 56.5215 156.291 58.0495 156.786 58.6686C155.91 60.2503 155.553 61.7354 155.725 63.0881C155.823 63.806 156.071 64.4952 156.452 65.1116C156.833 65.7279 157.339 66.2577 157.937 66.6667C157.37 67.9192 157.144 69.1288 157.28 70.2095C157.504 71.963 158.665 73.2638 160.469 73.7792C162.138 74.2372 163.911 74.1296 165.513 73.4732C167.429 72.7056 169.122 71.2008 170.41 69.1198C171.698 67.0389 172.16 64.4803 171.782 61.5172L171.786 61.5297Z" fill="black"/>
<path d="M160.171 66.9619C159.417 66.9596 158.664 66.8792 157.926 66.7222C157.889 66.7172 157.854 66.7048 157.823 66.6856C157.791 66.6665 157.764 66.6411 157.743 66.611C157.722 66.581 157.707 66.5469 157.699 66.5108C157.692 66.4748 157.692 66.4376 157.699 66.4015C157.707 66.3655 157.722 66.3314 157.743 66.3013C157.764 66.2712 157.792 66.2459 157.823 66.2268C157.854 66.2077 157.889 66.1952 157.926 66.1903C157.962 66.1853 158 66.1879 158.035 66.1979C164.102 67.4629 167.284 63.0148 167.316 62.9682C167.357 62.9099 167.419 62.87 167.489 62.8576C167.559 62.8452 167.632 62.8612 167.69 62.902C167.748 62.9428 167.788 63.0051 167.801 63.0753C167.813 63.1454 167.797 63.2176 167.756 63.2759C166.851 64.422 165.699 65.3488 164.386 65.987C163.072 66.6253 161.632 66.9585 160.171 66.9619Z" fill="#1D1D1B"/>
<path d="M158.584 51.6867C158.523 51.687 158.464 51.6666 158.416 51.6288C158.369 51.591 158.335 51.5382 158.322 51.479C158.308 51.4197 158.315 51.3575 158.341 51.3026C158.367 51.2477 158.411 51.2034 158.466 51.1769C158.588 51.1178 161.467 49.7454 163.571 50.615C163.635 50.6433 163.686 50.6957 163.712 50.7608C163.738 50.8259 163.737 50.8986 163.71 50.9634C163.684 51.0282 163.632 51.0798 163.568 51.1073C163.503 51.1348 163.431 51.136 163.365 51.1106C161.485 50.3305 158.727 51.6474 158.701 51.6599C158.664 51.6774 158.625 51.6866 158.584 51.6867Z" fill="#1D1D1B"/>
<path d="M60.7103 90.3751C60.5719 90.3752 60.4388 90.3219 60.3388 90.2262C60.2388 90.1305 60.1795 89.9998 60.1735 89.8615C59.8926 83.277 62.2259 77.1075 64.2335 73.0924C66.4039 68.7516 68.6101 65.9978 68.7067 65.8833C68.7959 65.7723 68.9256 65.7012 69.0672 65.6858C69.2088 65.6703 69.3507 65.7118 69.4617 65.801C69.5728 65.8902 69.6438 66.0199 69.6592 66.1615C69.6746 66.3031 69.6333 66.445 69.544 66.5561C69.4546 66.6652 60.73 77.6496 61.2525 89.8168C61.2556 89.8873 61.2448 89.9578 61.2207 90.0241C61.1966 90.0905 61.1595 90.1513 61.1118 90.2033C61.0641 90.2553 61.0067 90.2974 60.9427 90.3272C60.8787 90.357 60.8095 90.3738 60.739 90.3768L60.7103 90.3751Z" fill="white"/>
<path d="M159.375 58.0376C157.396 58.0376 156.613 57.143 156.562 57.0786C156.477 56.9694 156.437 56.8315 156.452 56.6937C156.466 56.5558 156.533 56.4288 156.638 56.3391C156.744 56.2495 156.88 56.2041 157.018 56.2125C157.156 56.221 157.286 56.2825 157.38 56.3844C157.423 56.4309 159.107 58.111 164.249 55.5398C164.313 55.5041 164.383 55.4817 164.455 55.4738C164.527 55.466 164.6 55.4729 164.67 55.4942C164.739 55.5155 164.804 55.5507 164.859 55.5976C164.915 55.6446 164.96 55.7023 164.993 55.7674C165.025 55.8324 165.044 55.9034 165.049 55.976C165.053 56.0486 165.042 56.1214 165.018 56.1898C164.993 56.2582 164.955 56.3208 164.905 56.374C164.855 56.4271 164.795 56.4697 164.729 56.4989C162.381 57.6745 160.637 58.0376 159.375 58.0376Z" fill="white"/>
<path d="M159.744 65.4063C158.887 65.4128 158.033 65.3197 157.198 65.129C157.06 65.0934 156.941 65.0044 156.869 64.8815C156.796 64.7587 156.776 64.6122 156.811 64.4741C156.847 64.336 156.936 64.2177 157.059 64.1452C157.181 64.0727 157.328 64.052 157.466 64.0876C157.518 64.1019 162.748 65.3848 166.055 61.7418C166.099 61.6822 166.156 61.6326 166.221 61.5961C166.286 61.5596 166.358 61.5371 166.432 61.5299C166.506 61.5227 166.581 61.5309 166.652 61.5542C166.723 61.5776 166.788 61.6154 166.843 61.6653C166.899 61.7152 166.943 61.7761 166.974 61.844C167.004 61.912 167.02 61.9856 167.021 62.0601C167.021 62.1346 167.006 62.2084 166.977 62.2769C166.947 62.3453 166.904 62.4068 166.849 62.4575C164.648 64.891 161.782 65.4063 159.744 65.4063Z" fill="white"/>
<path d="M162.342 73.0183C162.2 73.0292 162.059 72.9831 161.95 72.8902C161.842 72.7972 161.775 72.665 161.764 72.5226C161.753 72.3803 161.799 72.2394 161.892 72.1311C161.985 72.0227 162.117 71.9556 162.26 71.9447C162.471 71.9107 167.282 71.0894 169.143 66.1492C169.198 66.0223 169.299 65.9213 169.426 65.8671C169.553 65.813 169.696 65.81 169.825 65.8586C169.955 65.9072 170.06 66.0038 170.12 66.1282C170.18 66.2526 170.19 66.3954 170.147 66.5268C168.061 72.0736 162.653 72.9682 162.424 73.004C162.397 73.0113 162.37 73.0161 162.342 73.0183Z" fill="white"/>
<defs>
<filter id="filter0_d_14204_91780" x="-2.14403" y="57.4854" width="20.6316" height="20.6318" filterUnits="userSpaceOnUse" color-interpolation-filters="sRGB">
<feFlood flood-opacity="0" result="BackgroundImageFix"/>
<feColorMatrix in="SourceAlpha" type="matrix" values="0 0 0 0 0 0 0 0 0 0 0 0 0 0 0 0 0 0 127 0" result="hardAlpha"/>
<feOffset dy="1.08642"/>
<feGaussianBlur stdDeviation="2.71606"/>
<feComposite in2="hardAlpha" operator="out"/>
<feColorMatrix type="matrix" values="0 0 0 0 0 0 0 0 0 0 0 0 0 0 0 0 0 0 0.05 0"/>
<feBlend mode="normal" in2="BackgroundImageFix" result="effect1_dropShadow_14204_91780"/>
<feBlend mode="normal" in="SourceGraphic" in2="effect1_dropShadow_14204_91780" result="shape"/>
</filter>
<filter id="filter1_d_14204_91780" x="197.678" y="88.1143" width="20.6338" height="20.6338" filterUnits="userSpaceOnUse" color-interpolation-filters="sRGB">
<feFlood flood-opacity="0" result="BackgroundImageFix"/>
<feColorMatrix in="SourceAlpha" type="matrix" values="0 0 0 0 0 0 0 0 0 0 0 0 0 0 0 0 0 0 127 0" result="hardAlpha"/>
<feOffset dy="1.08642"/>
<feGaussianBlur stdDeviation="2.71606"/>
<feComposite in2="hardAlpha" operator="out"/>
<feColorMatrix type="matrix" values="0 0 0 0 0 0 0 0 0 0 0 0 0 0 0 0 0 0 0.05 0"/>
<feBlend mode="normal" in2="BackgroundImageFix" result="effect1_dropShadow_14204_91780"/>
<feBlend mode="normal" in="SourceGraphic" in2="effect1_dropShadow_14204_91780" result="shape"/>
</filter>
<linearGradient id="paint0_linear_14204_91780" x1="10.9083" y1="59.7539" x2="209.094" y2="106.959" gradientUnits="userSpaceOnUse">
<stop stop-color="#CDD5E2"/>
<stop offset="1" stop-color="#CDD5E2" stop-opacity="0"/>
</linearGradient>
<linearGradient id="paint1_linear_14204_91780" x1="208.752" y1="104.233" x2="188.719" y2="156.823" gradientUnits="userSpaceOnUse">
<stop stop-color="#CDD5E2"/>
<stop offset="1" stop-color="#CDD5E2" stop-opacity="0"/>
</linearGradient>
<linearGradient id="paint2_linear_14204_91780" x1="104.802" y1="12.4053" x2="104.802" y2="194.669" gradientUnits="userSpaceOnUse">
<stop stop-color="#CDD5E2"/>
<stop offset="1" stop-color="#CDD5E2" stop-opacity="0"/>
</linearGradient>
<linearGradient id="paint3_linear_14204_91780" x1="104.802" y1="30.6318" x2="104.802" y2="176.443" gradientUnits="userSpaceOnUse">
<stop stop-color="#CDD5E2"/>
<stop offset="1" stop-color="#CDD5E2" stop-opacity="0"/>
</linearGradient>
</defs>
</svg>
