<svg width="217" height="161" viewBox="0 0 217 161" fill="none" xmlns="http://www.w3.org/2000/svg">
<mask id="mask0_8286_54645" style="mask-type:alpha" maskUnits="userSpaceOnUse" x="0" y="0" width="217" height="161">
<rect width="216.439" height="161" fill="#D9D9D9"/>
</mask>
<g mask="url(#mask0_8286_54645)">
<g opacity="0.5">
<mask id="path-2-inside-1_8286_54645" fill="white">
<path d="M207.986 108.034C209.061 83.3642 201.262 59.1252 186.002 39.7111C170.742 20.2971 149.032 6.9928 124.806 2.20999C100.58 -2.57283 75.442 1.48234 53.9489 13.6404C32.4558 25.7985 16.03 45.2549 7.64895 68.4826L8.09678 68.6442C16.4392 45.5235 32.7893 26.1569 54.1833 14.0548C75.5773 1.95276 100.599 -2.08372 124.714 2.67705C148.828 7.43782 170.438 20.6807 185.628 40.0053C200.818 59.3299 208.581 83.4571 207.511 108.014L207.986 108.034Z"/>
</mask>
<path d="M207.986 108.034C209.061 83.3642 201.262 59.1252 186.002 39.7111C170.742 20.2971 149.032 6.9928 124.806 2.20999C100.58 -2.57283 75.442 1.48234 53.9489 13.6404C32.4558 25.7985 16.03 45.2549 7.64895 68.4826L8.09678 68.6442C16.4392 45.5235 32.7893 26.1569 54.1833 14.0548C75.5773 1.95276 100.599 -2.08372 124.714 2.67705C148.828 7.43782 170.438 20.6807 185.628 40.0053C200.818 59.3299 208.581 83.4571 207.511 108.014L207.986 108.034Z" stroke="url(#paint0_linear_8286_54645)" stroke-width="1.51887" stroke-dasharray="2.28 2.28" mask="url(#path-2-inside-1_8286_54645)"/>
</g>
<g opacity="0.5">
<mask id="path-3-inside-2_8286_54645" fill="white">
<path d="M7.78687 138.971C16.2588 162.166 32.7606 181.558 54.3011 193.632C75.8416 205.706 100.995 209.663 125.202 204.785C149.409 199.907 171.068 186.518 186.251 167.045C201.435 147.571 209.14 123.302 207.968 98.6359L207.492 98.6585C208.659 123.211 200.99 147.368 185.876 166.752C170.762 186.136 149.204 199.463 125.108 204.318C101.013 209.173 75.9751 205.235 54.5339 193.217C33.0927 181.198 16.6669 161.896 8.23405 138.808L7.78687 138.971Z"/>
</mask>
<path d="M7.78687 138.971C16.2588 162.166 32.7606 181.558 54.3011 193.632C75.8416 205.706 100.995 209.663 125.202 204.785C149.409 199.907 171.068 186.518 186.251 167.045C201.435 147.571 209.14 123.302 207.968 98.6359L207.492 98.6585C208.659 123.211 200.99 147.368 185.876 166.752C170.762 186.136 149.204 199.463 125.108 204.318C101.013 209.173 75.9751 205.235 54.5339 193.217C33.0927 181.198 16.6669 161.896 8.23405 138.808L7.78687 138.971Z" stroke="url(#paint1_linear_8286_54645)" stroke-width="1.51887" stroke-dasharray="2.28 2.28" mask="url(#path-3-inside-2_8286_54645)"/>
</g>
<circle opacity="0.08" cx="104.804" cy="103.537" r="91.1321" fill="url(#paint2_linear_8286_54645)"/>
<circle opacity="0.1" cx="104.804" cy="103.537" r="72.9057" fill="url(#paint3_linear_8286_54645)"/>
<circle cx="104.803" cy="103.537" r="48.6038" fill="white"/>
<g filter="url(#filter0_d_8286_54645)">
<circle cx="8.17038" cy="66.715" r="3.79717" transform="rotate(-2.50406 8.17038 66.715)" fill="#0170FF"/>
<circle cx="8.17038" cy="66.715" r="4.34038" transform="rotate(-2.50406 8.17038 66.715)" stroke="white" stroke-width="1.08642"/>
</g>
<g filter="url(#filter1_d_8286_54645)">
<circle cx="207.993" cy="97.3454" r="3.79717" transform="rotate(-15.7345 207.993 97.3454)" fill="#0170FF"/>
<circle cx="207.993" cy="97.3454" r="4.34038" transform="rotate(-15.7345 207.993 97.3454)" stroke="white" stroke-width="1.08642"/>
</g>
</g>
<path d="M48.5417 115.974L27.8784 83.4333C26.7685 81.6867 26.0283 79.7311 25.7034 77.6872C25.3786 75.6434 25.4759 73.5547 25.9896 71.55C26.9624 67.753 29.3685 64.4806 32.7026 62.4199L68.6118 40.2181C68.8767 40.0544 69.1714 39.9448 69.4789 39.8957C69.7864 39.8466 70.1005 39.8589 70.4032 39.9319C70.7059 40.0049 70.9911 40.1372 71.2424 40.3212C71.4936 40.5051 71.706 40.737 71.8671 41.0035L112.892 108.769C113.101 109.113 113.217 109.505 113.232 109.908C113.246 110.31 113.157 110.71 112.973 111.068C112.789 111.426 112.516 111.731 112.181 111.954C111.846 112.177 111.459 112.311 111.058 112.342L50.7139 117.061C50.2872 117.094 49.8596 117.01 49.4769 116.819C49.0942 116.627 48.7709 116.335 48.5417 115.974Z" fill="white"/>
<path d="M69.8491 39.8657C70.2561 39.8642 70.6565 39.9681 71.0113 40.1675C71.3661 40.3669 71.6632 40.655 71.8735 41.0034L112.898 108.769C113.107 109.113 113.224 109.505 113.238 109.908C113.252 110.31 113.163 110.709 112.979 111.068C112.795 111.426 112.523 111.731 112.188 111.954C111.852 112.177 111.466 112.311 111.064 112.342L50.7203 117.061C50.6575 117.061 50.5968 117.061 50.5361 117.061C50.139 117.061 49.7483 116.96 49.4004 116.769C49.0525 116.577 48.7586 116.301 48.5461 115.966L27.8768 83.4332C26.7668 81.6865 26.0266 79.731 25.7018 77.6871C25.3769 75.6433 25.4743 73.5546 25.988 71.5499C26.9607 67.7529 29.3668 64.4805 32.701 62.4198L68.6101 40.218C68.9819 39.9884 69.4101 39.8664 69.8471 39.8657H69.8491ZM69.8471 39.2583C69.2971 39.259 68.7581 39.4125 68.2902 39.7017L32.373 61.9035C30.5975 63.0001 29.0574 64.4384 27.8422 66.135C26.627 67.8315 25.7609 69.7525 25.294 71.7865C24.8271 73.8204 24.7688 75.9268 25.1226 77.9835C25.4763 80.0401 26.2349 82.0061 27.3545 83.7672L48.0198 116.308C48.286 116.73 48.6553 117.079 49.093 117.319C49.5307 117.56 50.0224 117.686 50.5219 117.684C50.5988 117.684 50.6758 117.684 50.7527 117.674L111.099 112.955C111.605 112.918 112.093 112.75 112.516 112.47C112.94 112.189 113.284 111.805 113.516 111.353C113.748 110.901 113.86 110.398 113.841 109.89C113.823 109.383 113.675 108.889 113.411 108.455L72.3877 40.6896C72.1253 40.251 71.7532 39.8885 71.3081 39.6375C70.8629 39.3865 70.3601 39.2558 69.8491 39.2583H69.8471Z" fill="black"/>
<path d="M63.9252 43.1152L55.2344 48.488L80.6935 84.4882L91.8481 78.7024L63.9252 43.1152Z" fill="#EBEBEB"/>
<path d="M63.9075 145.828L18.3986 89.379C17.1057 87.7627 16.1576 85.8987 15.6128 83.9019C15.0679 81.9052 14.9378 79.8179 15.2304 77.7689C15.7846 73.8887 17.8215 70.3745 20.9129 67.9647L54.2005 41.9954C54.4462 41.8038 54.7274 41.6627 55.028 41.5804C55.3286 41.498 55.6425 41.4761 55.9516 41.5158C56.2607 41.5555 56.5588 41.6561 56.8288 41.8118C57.0988 41.9674 57.3353 42.175 57.5245 42.4226L105.651 105.333C105.896 105.653 106.055 106.03 106.113 106.428C106.171 106.826 106.126 107.233 105.982 107.609C105.838 107.985 105.601 108.317 105.292 108.575C104.983 108.833 104.613 109.008 104.218 109.083L63.9075 145.828Z" fill="white"/>
<path d="M55.65 41.4975C56.0126 41.4969 56.3704 41.5801 56.6956 41.7405C57.0207 41.901 57.3044 42.1344 57.5246 42.4226L105.653 105.334C105.898 105.653 106.057 106.03 106.115 106.428C106.173 106.826 106.128 107.233 105.984 107.609C105.84 107.985 105.603 108.317 105.294 108.575C104.985 108.834 104.615 109.008 104.22 109.083L63.9096 145.828L18.4006 89.3791C17.1477 87.8131 16.2181 86.014 15.6658 84.0861C15.1135 82.1582 14.9494 80.1398 15.1831 78.148C15.4168 76.1562 16.0436 74.2306 17.0272 72.4829C18.0108 70.7351 19.3315 69.2001 20.9129 67.9668L54.2005 41.9975C54.6145 41.6744 55.1247 41.499 55.65 41.4994V41.4975ZM55.65 40.8921C54.9893 40.8902 54.3473 41.1113 53.828 41.5197L20.5384 67.4869C18.8942 68.7699 17.5209 70.3664 16.4982 72.1839C15.4754 74.0014 14.8236 76.0038 14.5803 78.0751C14.337 80.1464 14.5072 82.2453 15.0809 84.2503C15.6547 86.2553 16.6207 88.1266 17.9228 89.7556L63.4379 146.207C63.4897 146.271 63.5542 146.324 63.6273 146.363C63.7004 146.401 63.7806 146.425 63.863 146.431H63.9096C64.0597 146.43 64.2039 146.373 64.3145 146.271L104.513 109.629C104.988 109.507 105.425 109.27 105.786 108.938C106.146 108.605 106.419 108.189 106.579 107.726C106.74 107.263 106.783 106.767 106.705 106.283C106.627 105.799 106.431 105.342 106.133 104.953L58.0064 42.0542C57.7302 41.6914 57.3737 41.3977 56.9648 41.1961C56.5559 40.9944 56.1058 40.8904 55.65 40.8921Z" fill="black"/>
<path d="M14.1522 77.9045C13.8596 79.9532 13.9898 82.04 14.5347 84.0365C15.0796 86.0329 16.0276 87.8966 17.3204 89.5126L20.6303 93.6565C20.1283 89.134 26.6449 85.65 26.6449 85.65C17.286 79.6111 17.9399 72.0398 18.5958 69.1772C16.1903 71.5149 14.6276 74.5841 14.1522 77.9045Z" fill="#07ACEE"/>
<path d="M17.7009 71.0944C17.4174 74.7161 18.3324 80.6092 25.5191 85.6196C23.9624 86.6096 20.778 88.9721 20.1241 92.0391L17.798 89.134C15.7518 86.5779 14.6287 83.4057 14.6107 80.1315C14.5927 76.8572 15.6808 73.6729 17.6988 71.0944H17.7009ZM18.6078 69.1813C15.9037 71.8046 14.2743 75.3416 14.0377 79.1017C13.8012 82.8617 14.9744 86.5751 17.3283 89.5166L20.6322 93.6565C20.1302 89.134 26.6468 85.65 26.6468 85.65C17.2879 79.6111 17.9417 72.0398 18.5977 69.1772L18.6078 69.1813Z" fill="black"/>
<path d="M61.5025 64.8198L31.4798 87.5258C30.3152 88.4066 30.0851 90.0647 30.9659 91.2293C31.8467 92.394 33.5049 92.624 34.6695 91.7433L64.6922 69.0373C65.8568 68.1565 66.0869 66.4983 65.2061 65.3337C64.3253 64.1691 62.6671 63.939 61.5025 64.8198Z" fill="#EBEBEB"/>
<path d="M67.1314 72.2622L37.1087 94.9682C35.9441 95.849 35.714 97.5071 36.5948 98.6717C37.4756 99.8363 39.1338 100.066 40.2984 99.1856L70.3211 76.4796C71.4857 75.5989 71.7158 73.9407 70.835 72.7761C69.9542 71.6115 68.2961 71.3814 67.1314 72.2622Z" fill="#EBEBEB"/>
<path d="M49.838 55.5884L27.5091 72.4756C26.1385 73.5122 25.8674 75.4632 26.9036 76.8334C27.9399 78.2036 29.891 78.474 31.2617 77.4374L53.5906 60.5502C54.9612 59.5136 55.2322 57.5625 54.196 56.1924C53.1597 54.8222 51.2086 54.5518 49.838 55.5884Z" fill="#07ACEE"/>
<path d="M29.3547 78.4436C29.1949 78.4439 29.0353 78.433 28.877 78.4112C28.2083 78.3179 27.5822 78.0286 27.078 77.5797C26.5737 77.1308 26.2138 76.5424 26.0437 75.889C25.8736 75.2356 25.9011 74.5466 26.1225 73.9088C26.3439 73.271 26.7494 72.7131 27.2878 72.3056L49.6192 55.4159C49.9764 55.14 50.3849 54.9376 50.8208 54.8205C51.2568 54.7034 51.7116 54.6739 52.159 54.7337C52.6065 54.7935 53.0376 54.9414 53.4275 55.1688C53.8174 55.3963 54.1583 55.6988 54.4306 56.0589C54.7029 56.4189 54.9011 56.8294 55.0138 57.2665C55.1264 57.7036 55.1513 58.1587 55.087 58.6055C55.0226 59.0523 54.8704 59.4819 54.639 59.8695C54.4076 60.2571 54.1017 60.595 53.7389 60.8636L53.5546 60.6206L53.7389 60.8636L31.4075 77.7492C30.8177 78.1993 30.0966 78.4432 29.3547 78.4436ZM51.676 55.3349C51.0659 55.3349 50.4724 55.5339 49.9856 55.9017L27.6542 72.7894C27.0773 73.2445 26.7018 73.9076 26.6083 74.6364C26.5147 75.3652 26.7106 76.1017 27.1539 76.6877C27.5971 77.2737 28.2524 77.6627 28.9791 77.7711C29.7059 77.8795 30.4461 77.6986 31.0411 77.2674L53.3724 60.3817C53.8417 60.0266 54.1875 59.5331 54.361 58.9708C54.5346 58.4085 54.5271 57.8059 54.3396 57.2481C54.1521 56.6903 53.7941 56.2056 53.3162 55.8623C52.8382 55.519 52.2645 55.3345 51.676 55.3349Z" fill="black"/>
<path d="M39.7254 66.5071C39.6583 66.5071 39.5931 66.4848 39.54 66.4438C39.4869 66.4027 39.4489 66.3453 39.4319 66.2804C37.6504 59.537 37.456 52.1722 38.8569 44.3944C39.9765 38.1814 42.1102 31.6912 45.1974 25.1037C50.4609 13.8945 56.7366 6.17939 56.8075 6.10449C56.8593 6.04484 56.9323 6.00777 57.011 6.00109C57.0898 5.99441 57.168 6.01864 57.2291 6.0687C57.2902 6.11876 57.3295 6.19067 57.3384 6.26917C57.3474 6.34767 57.3254 6.42655 57.2771 6.48911C57.2144 6.56603 50.963 14.2305 45.7379 25.3749C40.9279 35.6408 36.0207 51.0426 40.0149 66.1245C40.0348 66.2026 40.0232 66.2854 39.9827 66.355C39.9422 66.4247 39.876 66.4757 39.7983 66.4971C39.7744 66.503 39.75 66.5063 39.7254 66.5071Z" fill="#1D1D1B"/>
<path d="M30.7301 59.5291C30.659 59.5289 30.5902 59.504 30.5355 59.4585C30.4808 59.4131 30.4437 59.35 30.4305 59.2801C27.5538 43.4896 34.8842 29.9969 34.9571 29.8613C34.996 29.7907 35.0614 29.7385 35.1389 29.7161C35.2163 29.6937 35.2995 29.7029 35.3701 29.7419C35.4407 29.7808 35.493 29.8461 35.5154 29.9236C35.5378 30.001 35.5284 30.0843 35.4895 30.1549C35.4166 30.2885 28.1895 43.603 31.0358 59.1708C31.0431 59.21 31.0427 59.2503 31.0344 59.2893C31.0262 59.3283 31.0103 59.3654 30.9878 59.3983C30.9652 59.4312 30.9364 59.4593 30.9029 59.4811C30.8695 59.5028 30.8321 59.5178 30.7929 59.5251L30.7301 59.5291Z" fill="#1D1D1B"/>
<path d="M164.638 79.9103L164.508 68.1343C164.499 67.2725 164.32 66.4209 163.982 65.6283C163.643 64.8356 163.152 64.1175 162.536 63.5148C161.92 62.9121 161.191 62.4366 160.391 62.1156C159.591 61.7946 158.736 61.6343 157.874 61.644L56.477 62.7553C54.7375 62.7745 53.0768 63.4834 51.8595 64.7261C50.6423 65.9688 49.9679 67.6438 49.9847 69.3833L50.8613 149.297C50.8708 150.159 51.0499 151.01 51.3885 151.803C51.727 152.595 52.2183 153.313 52.8344 153.916C53.4504 154.518 54.1791 154.993 54.9788 155.314C55.7785 155.635 56.6337 155.795 57.4953 155.786L158.892 154.674C159.754 154.665 160.605 154.486 161.398 154.148C162.19 153.809 162.909 153.318 163.511 152.702C164.114 152.087 164.589 151.358 164.91 150.558C165.232 149.759 165.392 148.904 165.383 148.042L164.638 79.9103Z" fill="#4BD657"/>
<path d="M57.4254 156.097C55.6187 156.093 53.8863 155.378 52.602 154.107C51.3177 152.837 50.5845 151.112 50.5606 149.306L49.684 69.3834C49.6645 67.5629 50.3689 65.8092 51.6422 64.5078C52.9154 63.2064 54.6534 62.464 56.4739 62.4437L157.871 61.3323C159.691 61.3166 161.442 62.0221 162.743 63.2945C164.044 64.5669 164.788 66.3027 164.813 68.1222L165.689 148.036C165.704 149.856 164.998 151.607 163.726 152.908C162.453 154.208 160.717 154.952 158.897 154.976L57.5003 156.087L57.4254 156.097ZM157.948 61.9477H157.887L56.4901 63.0591C54.8316 63.0815 53.2495 63.7596 52.0895 64.945C50.9294 66.1304 50.2859 67.7269 50.2994 69.3854L51.176 149.299C51.1983 150.946 51.8668 152.518 53.0374 153.676C54.208 154.834 55.7868 155.485 57.4335 155.49H57.5023L158.899 154.379C160.558 154.356 162.14 153.678 163.3 152.493C164.46 151.307 165.104 149.711 165.09 148.052L164.214 68.1384C164.191 66.4905 163.522 64.9175 162.349 63.7592C161.177 62.6009 159.596 61.9502 157.948 61.9477Z" fill="black"/>
<path d="M122.244 149.293C122.11 149.293 121.981 149.24 121.887 149.145C121.792 149.05 121.738 148.922 121.738 148.787C121.738 148.653 121.792 148.524 121.887 148.429C121.981 148.335 122.11 148.281 122.244 148.281L171.689 147.674C171.755 147.673 171.821 147.685 171.883 147.71C171.945 147.735 172.001 147.771 172.048 147.818C172.096 147.864 172.134 147.92 172.16 147.981C172.186 148.042 172.2 148.107 172.201 148.174C172.202 148.24 172.19 148.306 172.165 148.368C172.14 148.43 172.104 148.486 172.057 148.534C172.011 148.581 171.955 148.619 171.894 148.645C171.833 148.671 171.767 148.685 171.701 148.686L122.257 149.293H122.244Z" fill="white"/>
<path d="M63.9001 145.688L152.54 144.714C155.745 144.678 158.315 142.052 158.28 138.846L157.587 75.8197C157.552 72.6144 154.925 70.0446 151.719 70.0799L63.0795 71.0546C59.8742 71.0898 57.3044 73.7168 57.3396 76.922L58.0327 139.949C58.0679 143.154 60.6949 145.724 63.9001 145.688Z" fill="white"/>
<path d="M63.8687 145.97C62.2608 145.968 60.7183 145.333 59.5751 144.203C58.4319 143.072 57.7802 141.537 57.761 139.929L57.0707 76.9025C57.0619 76.1004 57.2111 75.3044 57.5099 74.56C57.8087 73.8156 58.2513 73.1374 58.8122 72.564C59.3732 71.9906 60.0416 71.5334 60.7793 71.2184C61.517 70.9033 62.3095 70.7367 63.1116 70.728L151.751 69.7562C153.371 69.7389 154.931 70.3656 156.089 71.4984C157.246 72.6312 157.907 74.1774 157.925 75.7971L158.618 138.823C158.633 140.443 158.006 142.002 156.874 143.16C155.741 144.317 154.196 144.978 152.577 144.998L63.9355 145.97H63.8687ZM63.9294 145.362V145.666V145.362L152.569 144.39C154.027 144.373 155.42 143.778 156.44 142.736C157.46 141.693 158.025 140.288 158.01 138.829L157.318 75.8053C157.311 75.0828 157.161 74.3689 156.877 73.7044C156.594 73.0399 156.182 72.4377 155.666 71.9324C155.15 71.427 154.539 71.0283 153.869 70.7591C153.198 70.4899 152.481 70.3555 151.759 70.3635L63.1176 71.3353C61.659 71.3519 60.2666 71.9469 59.2466 72.9897C58.2266 74.0326 57.6623 75.4377 57.678 76.8963L58.3683 139.923C58.3859 141.37 58.9729 142.753 60.0024 143.771C61.0318 144.789 62.4209 145.361 63.8687 145.362H63.9294Z" fill="black"/>
<path d="M165.951 155.433L54.4887 156.659C53.1305 156.674 51.7827 156.421 50.5222 155.915C49.2618 155.409 48.1133 154.66 47.1424 153.71C46.1715 152.76 45.3971 151.629 44.8636 150.38C44.33 149.13 44.0477 147.789 44.0328 146.43L176.187 144.977C176.202 146.335 175.949 147.683 175.443 148.944C174.937 150.204 174.188 151.353 173.238 152.324C172.289 153.294 171.157 154.069 169.908 154.602C168.659 155.136 167.317 155.418 165.959 155.433L165.951 155.433Z" fill="#4BD657"/>
<path d="M54.408 156.94C51.6065 156.936 48.919 155.83 46.9272 153.86C44.9355 151.889 43.7997 149.214 43.7656 146.413V146.109L44.0693 146.097L176.519 144.646V144.949C176.549 147.773 175.457 150.492 173.483 152.512C171.51 154.531 168.815 155.684 165.992 155.719L54.5295 156.934L54.408 156.94ZM54.5193 156.332V156.636V156.332L165.984 155.118C168.593 155.085 171.086 154.038 172.937 152.2C174.789 150.362 175.852 147.875 175.904 145.267L44.375 146.708C44.4862 149.315 45.6068 151.777 47.4998 153.573C49.3929 155.369 51.91 156.359 54.5193 156.332Z" fill="black"/>
<path d="M64.9078 68.5861C65.8816 68.5861 66.6711 67.7967 66.6711 66.8228C66.6711 65.849 65.8816 65.0596 64.9078 65.0596C63.934 65.0596 63.1445 65.849 63.1445 66.8228C63.1445 67.7967 63.934 68.5861 64.9078 68.5861Z" fill="#4BD657"/>
<path d="M64.9068 68.8897C64.498 68.8897 64.0983 68.7685 63.7584 68.5414C63.4185 68.3143 63.1536 67.9915 62.9972 67.6138C62.8407 67.2361 62.7998 66.8204 62.8796 66.4195C62.9593 66.0185 63.1562 65.6503 63.4452 65.3612C63.7343 65.0721 64.1026 64.8754 64.5035 64.7956C64.9045 64.7158 65.3201 64.7567 65.6977 64.9131C66.0754 65.0696 66.3982 65.3346 66.6253 65.6745C66.8525 66.0144 66.9737 66.414 66.9737 66.8228C66.9731 67.3708 66.7552 67.8962 66.3677 68.2837C65.9802 68.6712 65.4548 68.8892 64.9068 68.8897ZM64.9068 65.3632C64.6181 65.3632 64.3359 65.4487 64.0959 65.6091C63.8558 65.7695 63.6687 65.9975 63.5583 66.2642C63.4478 66.5309 63.4189 66.8244 63.4752 67.1076C63.5315 67.3907 63.6706 67.6507 63.8747 67.8549C64.0788 68.059 64.3389 68.198 64.622 68.2543C64.9052 68.3106 65.1986 68.2818 65.4654 68.1713C65.7321 68.0608 65.96 67.8737 66.1204 67.6336C66.2808 67.3936 66.3664 67.1115 66.3664 66.8228C66.3664 66.4357 66.2126 66.0644 65.9389 65.7907C65.6652 65.517 65.2939 65.3632 64.9068 65.3632Z" fill="black"/>
<path d="M78.5653 66.9057H69.9716C69.8911 66.9057 69.8139 66.8737 69.7569 66.8168C69.7 66.7599 69.668 66.6825 69.668 66.602C69.668 66.5215 69.7 66.4443 69.7569 66.3873C69.8139 66.3304 69.8911 66.2983 69.9716 66.2983H78.5653C78.6458 66.2983 78.7231 66.3304 78.78 66.3873C78.837 66.4443 78.8689 66.5215 78.8689 66.602C78.8689 66.6825 78.837 66.7599 78.78 66.8168C78.7231 66.8737 78.6458 66.9057 78.5653 66.9057Z" fill="black"/>
<path d="M158.123 147.986H138.51C138.376 147.986 138.247 147.932 138.152 147.838C138.057 147.743 138.004 147.614 138.004 147.48C138.004 147.346 138.057 147.217 138.152 147.122C138.247 147.027 138.376 146.974 138.51 146.974H158.123C158.257 146.974 158.386 147.027 158.48 147.122C158.575 147.217 158.629 147.346 158.629 147.48C158.629 147.614 158.575 147.743 158.48 147.838C158.386 147.932 158.257 147.986 158.123 147.986Z" fill="white"/>
<path d="M170.235 147.986H162.744C162.61 147.986 162.481 147.932 162.387 147.838C162.292 147.743 162.238 147.614 162.238 147.48C162.238 147.346 162.292 147.217 162.387 147.122C162.481 147.027 162.61 146.974 162.744 146.974H170.235C170.369 146.974 170.498 147.027 170.593 147.122C170.688 147.217 170.741 147.346 170.741 147.48C170.741 147.614 170.688 147.743 170.593 147.838C170.498 147.932 170.369 147.986 170.235 147.986Z" fill="white"/>
<path d="M108.729 79.4778C61.9411 86.5795 78.3429 103.625 78.1223 127.861C78.0777 132.827 81.2095 145.931 81.2095 145.931L144.056 145.616C144.056 145.616 153.773 83.6542 114.886 77.668" fill="#07ACEE"/>
<path d="M81.2105 146.241C81.1422 146.241 81.0759 146.218 81.0223 146.176C80.9687 146.134 80.9309 146.075 80.9149 146.009C80.7854 145.472 77.775 132.811 77.8196 127.864C77.8702 122.475 77.109 117.539 76.3721 112.776C75.0846 104.433 73.9732 97.2261 78.2164 91.4504C82.5284 85.5796 92.2092 81.6785 108.684 79.1783C108.724 79.1724 108.764 79.1743 108.804 79.1841C108.843 79.1938 108.88 79.2111 108.912 79.2351C108.944 79.259 108.972 79.2892 108.993 79.3237C109.013 79.3583 109.027 79.3966 109.033 79.4364C109.039 79.4763 109.037 79.517 109.027 79.5561C109.018 79.5953 109 79.6322 108.976 79.6646C108.952 79.697 108.922 79.7244 108.888 79.7451C108.853 79.7659 108.815 79.7797 108.775 79.7857C92.4703 82.2615 82.915 86.0837 78.7042 91.8168C74.6129 97.3901 75.7061 104.482 76.9734 112.693C77.6779 117.26 78.4775 122.438 78.4269 127.876C78.3864 132.386 81.0303 143.855 81.4494 145.64L143.802 145.326C144.678 138.656 145.002 131.925 144.769 125.202C144.405 114.802 142.413 100.273 134.987 90.1163C130.048 83.3608 123.272 79.2776 114.848 77.982C114.768 77.9696 114.695 77.9258 114.647 77.8601C114.599 77.7944 114.579 77.7123 114.591 77.6318C114.603 77.5512 114.647 77.4788 114.713 77.4306C114.779 77.3824 114.861 77.3623 114.941 77.3747C123.531 78.6966 130.44 82.8608 135.479 89.7519C142.996 100.036 145.01 114.697 145.377 125.179C145.62 132.023 145.281 138.874 144.364 145.66C144.354 145.732 144.318 145.797 144.263 145.844C144.209 145.891 144.139 145.917 144.067 145.917L81.2186 146.233L81.2105 146.241Z" fill="#1D1D1B"/>
<path d="M143.793 113.543C152.308 114.181 170.939 121.675 181.699 96.7948C188.956 80.0123 186.527 63.6146 186.527 63.6146L169.319 60.3755C169.319 60.3755 157.78 80.0123 155.254 89.9624C155.254 89.9624 142.692 80.2654 120.875 79.1641" fill="#07ACEE"/>
<path d="M157.354 115.399C153.975 115.399 150.783 114.881 147.983 114.426C146.373 114.163 144.981 113.936 143.772 113.845C143.732 113.842 143.693 113.831 143.658 113.813C143.622 113.795 143.59 113.77 143.564 113.739C143.538 113.709 143.518 113.674 143.506 113.636C143.493 113.598 143.489 113.558 143.492 113.518C143.495 113.478 143.506 113.439 143.524 113.403C143.542 113.368 143.567 113.336 143.597 113.31C143.627 113.284 143.663 113.264 143.701 113.251C143.739 113.239 143.779 113.234 143.819 113.237C145.053 113.33 146.45 113.559 148.082 113.822C157.724 115.393 172.3 117.764 181.42 96.6715C188.115 81.1908 186.501 65.8477 186.254 63.8759L169.474 60.7178C168.3 62.7422 157.906 80.7596 155.548 90.0415C155.534 90.0894 155.508 90.1329 155.472 90.1683C155.437 90.2036 155.393 90.2296 155.346 90.244C155.298 90.2602 155.247 90.2644 155.197 90.2563C155.147 90.2482 155.1 90.228 155.06 90.1974C154.937 90.1002 142.306 80.545 120.847 79.468C120.808 79.466 120.768 79.4561 120.732 79.439C120.696 79.4219 120.664 79.398 120.637 79.3683C120.61 79.3387 120.59 79.3041 120.576 79.2665C120.563 79.2289 120.557 79.189 120.559 79.1491C120.561 79.1092 120.571 79.0701 120.588 79.034C120.605 78.998 120.629 78.9656 120.659 78.9389C120.688 78.9121 120.723 78.8914 120.76 78.878C120.798 78.8645 120.838 78.8587 120.878 78.8607C132.192 79.4315 140.978 82.3507 146.353 84.6991C151.068 86.7559 154.064 88.7479 155.058 89.4564C157.781 79.4497 168.927 60.4162 169.043 60.2219C169.074 60.1677 169.122 60.1247 169.179 60.0989C169.236 60.0731 169.299 60.0658 169.361 60.078L186.568 63.3171C186.63 63.3284 186.687 63.359 186.731 63.4044C186.774 63.4498 186.802 63.5078 186.811 63.5702C186.835 63.7341 189.17 80.2474 181.963 96.9145C177.863 106.393 172.324 112.085 165.03 114.324C162.539 115.063 159.952 115.425 157.354 115.399Z" fill="#1D1D1B"/>
<path d="M142.434 106.528C142.434 106.528 144.468 114.642 145.039 127.568L142.434 106.528Z" fill="#07ACEE"/>
<path d="M145.039 127.872C144.961 127.871 144.886 127.841 144.829 127.787C144.773 127.732 144.739 127.659 144.735 127.58C144.173 114.826 142.158 106.684 142.138 106.603C142.118 106.525 142.131 106.442 142.172 106.373C142.213 106.304 142.281 106.254 142.359 106.235C142.437 106.215 142.52 106.227 142.589 106.269C142.658 106.31 142.708 106.377 142.727 106.455C142.747 106.536 144.778 114.745 145.343 127.554C145.346 127.634 145.317 127.712 145.263 127.772C145.209 127.831 145.133 127.866 145.053 127.87L145.039 127.872Z" fill="#1D1D1B"/>
<path d="M186.532 63.6151C186.532 63.6151 187.006 60.3417 187.949 59.3639C188.893 58.3861 191.866 55.6612 194.087 52.7542C196.245 49.92 194.381 47.7538 189.144 50.2499C189.144 50.2499 192.425 45.8691 188.941 44.784C188.941 44.784 189.751 42.1765 188.828 38.5427C188.03 35.423 184.664 36.6175 184.716 39.482C184.759 41.881 184.775 42.8426 184.504 43.7111C184.504 43.7111 181.125 42.8122 182.046 45.9642C182.046 45.9642 181.609 48.3733 179.87 47.8287C178.131 47.2842 182.285 43.1726 181.959 41.1643C181.633 39.1561 178.633 38.8382 175.187 42.9721C169.549 49.7337 169.316 60.3821 169.316 60.3821L186.532 63.6151Z" fill="#FFCDB2"/>
<path d="M186.531 63.9188C186.512 63.9207 186.493 63.9207 186.474 63.9188L169.267 60.6797C169.196 60.6667 169.132 60.629 169.087 60.5733C169.042 60.5177 169.018 60.4477 169.02 60.376C169.02 60.2687 169.319 49.5433 174.961 42.7777C177.036 40.2897 179.239 39.067 180.856 39.5104C181.226 39.6059 181.558 39.8097 181.811 40.0958C182.063 40.382 182.225 40.7372 182.273 41.1157C182.439 42.1481 181.63 43.5349 180.856 44.877C180.281 45.8609 179.63 46.9784 179.79 47.3914C179.808 47.4379 179.846 47.4966 179.982 47.5391C180.127 47.5946 180.282 47.617 180.437 47.6048C180.592 47.5925 180.742 47.5459 180.877 47.4684C181.456 47.1202 181.697 46.2253 181.753 45.9743C181.486 45.0025 181.579 44.2738 182.033 43.8102C182.66 43.1684 183.774 43.2636 184.306 43.3568C184.488 42.5794 184.47 41.5833 184.434 39.486C184.401 37.6924 185.571 36.5627 186.691 36.4129C187.592 36.2894 188.715 36.7672 189.144 38.4677C189.92 41.5043 189.513 43.8101 189.327 44.5916C190.061 44.8851 190.541 45.3588 190.744 46.0087C191.124 47.1889 190.476 48.6607 189.952 49.5757C192.315 48.6303 194.137 48.6222 194.918 49.5879C195.56 50.3774 195.341 51.6346 194.337 52.9484C192.57 55.2603 190.341 57.4487 189.011 58.7565C188.654 59.1047 188.373 59.382 188.177 59.5844C187.458 60.3294 186.962 62.785 186.841 63.6677C186.835 63.708 186.821 63.7468 186.8 63.7816C186.778 63.8165 186.75 63.8466 186.717 63.8701C186.662 63.9061 186.597 63.9232 186.531 63.9188ZM169.637 60.127L186.28 63.2588C186.428 62.3964 186.899 60.0197 187.729 59.1533C187.932 58.9508 188.215 58.6653 188.576 58.3111C189.895 57.0154 192.104 54.8473 193.839 52.5698C194.649 51.509 194.878 50.509 194.432 49.9603C193.922 49.3287 192.262 49.098 189.268 50.5232C189.207 50.5516 189.138 50.5589 189.072 50.5438C189.006 50.5288 188.947 50.4923 188.905 50.44C188.862 50.3878 188.838 50.3229 188.836 50.2555C188.835 50.1881 188.855 50.122 188.895 50.0677C188.912 50.0454 190.642 47.7052 190.15 46.1828C189.98 45.6524 189.555 45.288 188.853 45.0673C188.815 45.056 188.779 45.0372 188.748 45.012C188.717 44.9867 188.691 44.9556 188.673 44.9203C188.654 44.8851 188.642 44.8465 188.638 44.8068C188.634 44.767 188.639 44.7269 188.65 44.6887C188.65 44.6624 189.428 42.1096 188.533 38.6155C188.248 37.5 187.582 36.9008 186.75 37.0122C185.917 37.1235 184.992 38.0244 185.019 39.4739C185.061 41.885 185.079 42.883 184.792 43.8001C184.768 43.8748 184.717 43.9376 184.648 43.9753C184.58 44.0131 184.499 44.0228 184.423 44.0025C184.035 43.8993 182.923 43.7414 182.446 44.2313C182.144 44.541 182.107 45.0936 182.336 45.8771C182.346 45.9231 182.346 45.9708 182.336 46.0168C182.324 46.0735 182.069 47.4339 181.162 47.9845C180.954 48.1082 180.721 48.1842 180.48 48.207C180.24 48.2297 179.997 48.1987 179.769 48.1161C179.64 48.0821 179.521 48.0185 179.421 47.9303C179.321 47.8421 179.242 47.7318 179.192 47.608C178.927 46.9218 179.563 45.8306 180.302 44.5714C180.996 43.381 181.784 42.0327 181.65 41.2128C181.62 40.9506 181.512 40.7036 181.338 40.5045C181.165 40.3053 180.936 40.1633 180.68 40.0974C179.613 39.8059 177.67 40.4598 175.417 43.1684C170.402 49.187 169.72 58.469 169.637 60.127Z" fill="#1D1D1B"/>
<path d="M182.152 46.1479C182.152 46.1479 182.857 47.9598 187.096 48.6542L182.152 46.1479Z" fill="#FFCDB2"/>
<path d="M187.096 48.958H187.048C182.687 48.2454 181.902 46.3425 181.869 46.2635C181.839 46.1886 181.841 46.1049 181.872 46.0309C181.904 45.9569 181.964 45.8985 182.039 45.8687C182.114 45.8389 182.198 45.8401 182.272 45.872C182.346 45.9039 182.404 45.9639 182.434 46.0388C182.448 46.0712 183.193 47.713 187.145 48.3567C187.221 48.3692 187.289 48.4096 187.336 48.47C187.383 48.5304 187.406 48.6063 187.4 48.6827C187.394 48.7592 187.359 48.8306 187.303 48.8827C187.247 48.9348 187.173 48.9638 187.096 48.964V48.958Z" fill="#1D1D1B"/>
<path d="M184.508 43.7051C186.008 43.969 187.49 44.3274 188.945 44.7781L184.508 43.7051Z" fill="#FFCDB2"/>
<path d="M188.945 45.0916C188.915 45.0919 188.884 45.0871 188.854 45.0775C187.412 44.6326 185.944 44.2776 184.457 44.0147C184.377 44.0015 184.305 43.9569 184.257 43.8906C184.209 43.8244 184.19 43.7419 184.203 43.6614C184.216 43.5808 184.261 43.5089 184.327 43.4612C184.394 43.4136 184.476 43.3942 184.557 43.4073C186.071 43.6754 187.567 44.0371 189.037 44.4903C189.106 44.5122 189.165 44.5581 189.203 44.6196C189.241 44.6812 189.256 44.7543 189.245 44.8259C189.234 44.8975 189.198 44.9628 189.143 45.0101C189.088 45.0573 189.018 45.0834 188.945 45.0835V45.0916Z" fill="#1D1D1B"/>
<path d="M189.14 50.2495C188.379 50.6544 188.087 50.5572 186.004 52.1302L189.14 50.2495Z" fill="#FFCDB2"/>
<path d="M186.004 52.4339C185.957 52.4345 185.91 52.4239 185.868 52.4032C185.826 52.3824 185.789 52.3521 185.761 52.3145C185.712 52.2503 185.691 52.1694 185.702 52.0897C185.713 52.01 185.755 51.938 185.819 51.8894C187.429 50.6747 188.006 50.4257 188.516 50.205C188.674 50.1362 188.824 50.0714 188.998 49.9803C189.033 49.9618 189.072 49.9505 189.112 49.947C189.151 49.9435 189.191 49.9478 189.229 49.9597C189.267 49.9717 189.303 49.991 189.333 50.0166C189.364 50.0422 189.389 50.0736 189.408 50.1089C189.426 50.1443 189.437 50.1828 189.441 50.2226C189.445 50.2623 189.44 50.3024 189.428 50.3405C189.416 50.3786 189.397 50.4139 189.371 50.4445C189.346 50.4751 189.315 50.5004 189.279 50.5188C189.077 50.6201 188.917 50.6929 188.755 50.7617C188.255 50.9783 187.743 51.203 186.186 52.3812C186.132 52.4175 186.068 52.436 186.004 52.4339Z" fill="#1D1D1B"/>
<path d="M179.488 47.5415C179.488 47.5415 181.369 50.6773 180.154 52.5236L179.488 47.5415Z" fill="#FFCDB2"/>
<path d="M180.154 52.827C180.094 52.8269 180.036 52.8101 179.986 52.7785C179.919 52.7339 179.872 52.6647 179.856 52.5858C179.839 52.507 179.855 52.4249 179.899 52.3574C180.996 50.6933 179.245 47.7275 179.227 47.7012C179.185 47.632 179.173 47.5491 179.193 47.4709C179.213 47.3927 179.263 47.3255 179.332 47.2842C179.401 47.2428 179.484 47.2307 179.562 47.2505C179.64 47.2702 179.708 47.3202 179.749 47.3894C179.828 47.5231 181.713 50.7115 180.407 52.6954C180.379 52.7366 180.341 52.7701 180.297 52.793C180.253 52.816 180.204 52.8277 180.154 52.827Z" fill="#1D1D1B"/>
<path d="M185.47 48.2715C184.883 48.6037 184.365 49.0457 183.945 49.5732L185.47 48.2715Z" fill="#FFCDB2"/>
<path d="M183.944 49.877C183.888 49.8773 183.833 49.8621 183.785 49.8331C183.738 49.804 183.699 49.7623 183.674 49.7126C183.648 49.6628 183.637 49.607 183.642 49.5513C183.646 49.4957 183.666 49.4423 183.699 49.3972C184.142 48.8314 184.693 48.3582 185.318 48.0045C185.353 47.9845 185.391 47.9715 185.431 47.9664C185.471 47.9613 185.511 47.964 185.55 47.9744C185.588 47.9848 185.625 48.0029 185.656 48.0273C185.688 48.0517 185.714 48.0821 185.734 48.1167C185.754 48.1514 185.767 48.1898 185.772 48.2294C185.778 48.2691 185.775 48.3094 185.764 48.3481C185.754 48.3867 185.736 48.4229 185.712 48.4546C185.687 48.4863 185.657 48.5129 185.622 48.5328C185.078 48.8453 184.597 49.2573 184.205 49.7475C184.176 49.7895 184.137 49.8234 184.091 49.8461C184.045 49.8688 183.995 49.8795 183.944 49.877Z" fill="#1D1D1B"/>
<path d="M173.186 49.4925C173.097 49.4929 173.01 49.4699 172.933 49.4259C172.857 49.3819 172.793 49.3184 172.748 49.2419C172.704 49.1653 172.68 49.0784 172.68 48.9898C172.679 48.9012 172.703 48.8141 172.747 48.7373C177.403 40.4858 179.405 40.2571 180.045 40.5405C180.162 40.5911 180.256 40.6843 180.308 40.8015C180.359 40.9186 180.365 41.051 180.323 41.1719C180.281 41.2927 180.194 41.3932 180.081 41.453C179.968 41.5128 179.836 41.5274 179.713 41.494C179.559 41.5061 177.814 41.8301 173.627 49.2354C173.583 49.3137 173.519 49.3787 173.442 49.4239C173.364 49.4691 173.276 49.4929 173.186 49.4925Z" fill="white"/>
<path d="M188.964 46.4514C188.919 46.4512 188.875 46.445 188.832 46.4331L183.89 45.1031C183.761 45.0682 183.65 44.9832 183.583 44.8669C183.516 44.7505 183.498 44.6123 183.533 44.4827C183.568 44.353 183.653 44.2424 183.769 44.1754C183.886 44.1084 184.024 44.0904 184.154 44.1253L189.095 45.4574C189.213 45.4899 189.315 45.5639 189.383 45.6658C189.45 45.7677 189.478 45.8906 189.462 46.0117C189.446 46.1329 189.387 46.2441 189.295 46.3249C189.204 46.4057 189.086 46.4507 188.964 46.4514Z" fill="white"/>
<path d="M106.324 72.4211C103.522 72.1114 99.1637 71.7996 96.6736 65.8842C94.1836 59.9689 100.257 56.495 99.4754 51.2518C98.3862 43.9355 100.852 37.1517 107.725 37.3967C116.442 37.7084 115.495 29.5156 123.293 29.9245C129.208 30.2362 136.249 41.569 122.981 54.5212C109.713 67.4734 106.324 72.4211 106.324 72.4211Z" fill="#382256"/>
<path d="M106.468 72.7411L106.045 72.6946C103.191 72.3828 98.8789 71.911 96.3909 65.9997C94.9454 62.5683 96.2714 59.9266 97.5529 57.3879C98.555 55.3959 99.5024 53.5152 99.1724 51.2944C98.4355 46.3569 99.3101 42.0772 101.569 39.5528C103.108 37.832 105.181 37.004 107.734 37.0951C112.06 37.251 113.941 35.2306 115.761 33.2771C117.53 31.3802 119.36 29.4165 123.306 29.6331C126.097 29.7789 128.82 32.1272 130.081 35.4736C131.122 38.2329 132.531 45.6362 123.198 54.7481C110.11 67.5141 106.614 72.5629 106.58 72.6034L106.468 72.7411ZM107.359 37.6924C105.159 37.6924 103.363 38.4515 102.023 39.9536C99.883 42.3465 99.0631 46.448 99.7716 51.2054C100.132 53.6164 99.0955 55.6712 98.0954 57.6612C96.818 60.1957 95.6135 62.5906 96.9496 65.7588C99.3 71.3402 103.399 71.7876 106.11 72.0852H106.177C106.851 71.16 110.857 65.9026 122.765 54.2865C131.851 45.4256 130.51 38.3097 129.512 35.6618C128.336 32.5361 125.828 30.3477 123.273 30.2121C119.609 30.0198 117.955 31.7952 116.204 33.6739C114.291 35.7266 112.313 37.8503 107.701 37.6842C107.593 37.6896 107.481 37.6924 107.363 37.6924H107.359Z" fill="#1D1E1B"/>
<path d="M118.354 76.2938L120.565 79.201C120.577 79.1726 120.579 79.2293 120.565 79.201C120.363 79.7759 118.933 82.2275 113.639 82.5372C110.572 82.7194 106.542 81.5493 106.779 79.5006C107.032 77.3223 107.113 73.9799 106.349 69.5242C106.349 69.5242 102.645 70.3076 101.817 67.0483C100.989 63.789 103.183 62.1897 104.981 62.3516C104.981 62.3516 110.526 62.6087 110.216 54.2033C110.216 54.2033 122.122 46.4134 125.158 55.1366C127.426 61.6472 129.847 68.1233 126.051 72.3058C122.255 76.4882 118.354 76.2938 118.354 76.2938Z" fill="#FFCDB2"/>
<path d="M113.024 82.8591C110.864 82.8591 108.216 82.2518 107.052 81.027C106.844 80.8284 106.684 80.585 106.584 80.3152C106.484 80.0454 106.448 79.7563 106.477 79.4702C106.705 77.5005 106.821 74.2513 106.098 69.8704C105.141 69.9797 102.264 70.0466 101.523 67.1274C101.118 65.5686 101.365 64.1777 102.191 63.2121C102.536 62.8103 102.971 62.496 103.461 62.2948C103.951 62.0935 104.481 62.0111 105.009 62.0542H105.033C106.175 62.0154 107.26 61.5452 108.07 60.7383C109.408 59.4042 110.03 57.2118 109.92 54.2176V54.0476L110.062 53.9524C110.345 53.7682 117.028 49.4502 121.747 51.0576C123.498 51.6548 124.747 52.9949 125.46 55.0415L125.662 55.6286C127.84 61.8699 130.091 68.3238 126.288 72.5143C123.283 75.8243 120.235 76.4599 118.961 76.5753L120.737 78.9094L120.874 78.9297L120.903 79.4318L120.795 79.4642C120.467 80.1525 118.959 82.5292 113.669 82.841C113.453 82.8531 113.24 82.8591 113.024 82.8591ZM106.594 69.1659L106.649 69.4777C107.436 74.0752 107.319 77.4883 107.08 79.5411C107.063 79.7382 107.09 79.9368 107.16 80.1219C107.23 80.307 107.341 80.4739 107.485 80.61C108.481 81.6648 111.173 82.3794 113.613 82.2296C118.496 81.9421 119.907 79.8225 120.206 79.2354L117.708 75.9518L118.36 75.9842C118.398 75.9842 122.174 76.1138 125.818 72.0994C129.379 68.1781 127.286 62.1797 125.069 55.821L124.866 55.2339C124.219 53.3735 123.095 52.1587 121.53 51.6263C117.451 50.2376 111.511 53.748 110.517 54.3654C110.604 57.4527 109.91 59.7423 108.475 61.1735C107.544 62.1102 106.281 62.6419 104.96 62.6534C104.527 62.6172 104.092 62.6841 103.689 62.8488C103.287 63.0135 102.93 63.2713 102.646 63.6009C102.154 64.1738 101.663 65.2204 102.106 66.9715C102.851 69.9049 106.141 69.253 106.28 69.2246L106.594 69.1659Z" fill="#1D1E1B"/>
<path d="M117.71 59.8412C114.437 61.8474 109.115 61.977 108.742 63.5317C108.37 65.0865 109.593 66.5683 111.657 66.3072C113.722 66.046 115.607 65.3193 119.395 63.637C123.182 61.9547 126.768 60.0214 125.587 58.0922C124.407 56.1629 122.525 56.8916 117.71 59.8412Z" fill="#FFB49F"/>
<path d="M121.711 64.6169C121.664 64.6171 121.619 64.6066 121.577 64.5862C121.536 64.5658 121.5 64.5362 121.472 64.4995L117.686 59.6834C117.658 59.6526 117.636 59.6163 117.622 59.5767C117.608 59.5372 117.603 59.4951 117.606 59.4534C117.61 59.4116 117.622 59.3711 117.641 59.3342C117.661 59.2972 117.688 59.2648 117.721 59.2389C117.754 59.213 117.792 59.1942 117.833 59.1836C117.873 59.1731 117.915 59.171 117.957 59.1776C117.998 59.1842 118.038 59.1992 118.073 59.2218C118.108 59.2444 118.138 59.274 118.162 59.3089L121.949 64.125C121.984 64.17 122.005 64.2238 122.011 64.2803C122.017 64.3367 122.007 64.3937 121.982 64.4447C121.957 64.4958 121.919 64.539 121.871 64.5694C121.823 64.5998 121.767 64.6163 121.711 64.6169Z" fill="#1D1D1B"/>
<path d="M118.918 76.2671C118.918 76.2671 115.768 76.3846 113.812 75.6416L118.918 76.2671Z" fill="#4BD657"/>
<path d="M118.412 76.5808C117.42 76.5808 115.234 76.508 113.703 75.927C113.664 75.9139 113.629 75.8933 113.598 75.8661C113.567 75.8389 113.543 75.8057 113.525 75.7687C113.508 75.7317 113.498 75.6916 113.496 75.6507C113.495 75.6098 113.501 75.569 113.516 75.5308C113.531 75.4925 113.553 75.4576 113.581 75.4282C113.61 75.3987 113.644 75.3754 113.682 75.3595C113.719 75.3435 113.76 75.3353 113.801 75.3355C113.842 75.3356 113.882 75.344 113.92 75.3602C115.794 76.0707 118.877 75.9675 118.908 75.9675C118.988 75.9645 119.067 75.9937 119.126 76.0485C119.185 76.1034 119.22 76.1794 119.223 76.26C119.226 76.3405 119.196 76.419 119.142 76.478C119.087 76.5371 119.011 76.5719 118.93 76.5748C118.902 76.5728 118.711 76.5808 118.412 76.5808Z" fill="black"/>
<path d="M105.086 67.9937C105.02 67.9945 104.956 67.9731 104.904 67.933C104.223 67.4188 103.875 66.8277 103.871 66.1779C103.871 65.0057 104.991 64.1129 105.039 64.0765C105.103 64.0271 105.183 64.005 105.263 64.0151C105.343 64.0251 105.416 64.0665 105.465 64.1301C105.515 64.1938 105.537 64.2744 105.527 64.3543C105.517 64.4342 105.475 64.5069 105.412 64.5563C105.4 64.5664 104.47 65.3053 104.478 66.1758C104.478 66.6293 104.748 67.0565 105.27 67.4513C105.334 67.4999 105.376 67.5719 105.387 67.6516C105.398 67.7313 105.377 67.8121 105.329 67.8763C105.3 67.9135 105.263 67.9436 105.221 67.964C105.179 67.9844 105.133 67.9945 105.086 67.9937Z" fill="#1D1D1B"/>
<path d="M124.225 62.9165C123.423 62.9165 122.64 62.6788 121.974 62.2334C121.308 61.7881 120.789 61.1551 120.483 60.4147C120.177 59.6743 120.097 58.8598 120.254 58.0741C120.411 57.2884 120.798 56.567 121.365 56.0011C121.933 55.4353 122.655 55.0505 123.441 54.8954C124.227 54.7403 125.041 54.822 125.781 55.13C126.521 55.438 127.152 55.9585 127.596 56.6257C128.04 57.2928 128.275 58.0766 128.273 58.8778C128.271 59.9499 127.843 60.9771 127.084 61.7343C126.325 62.4914 125.297 62.9165 124.225 62.9165ZM124.225 55.4444C123.544 55.4444 122.879 55.6462 122.313 56.0244C121.747 56.4025 121.306 56.94 121.045 57.5689C120.785 58.1977 120.716 58.8897 120.849 59.5573C120.982 60.2249 121.31 60.8381 121.791 61.3194C122.272 61.8007 122.886 62.1285 123.553 62.2613C124.221 62.3941 124.913 62.326 125.542 62.0655C126.17 61.805 126.708 61.3638 127.086 60.7979C127.464 60.2319 127.666 59.5666 127.666 58.8859C127.666 57.9732 127.304 57.0978 126.658 56.4524C126.013 55.807 125.137 55.4444 124.225 55.4444Z" fill="#1D1D1B"/>
<path d="M114.575 67.2749C113.773 67.2769 112.989 67.041 112.321 66.5968C111.654 66.1527 111.133 65.5204 110.826 64.7802C110.518 64.04 110.437 63.225 110.593 62.4387C110.749 61.6523 111.135 60.93 111.702 60.3632C112.268 59.7963 112.991 59.4105 113.777 59.2546C114.563 59.0987 115.378 59.1797 116.119 59.4874C116.859 59.7951 117.491 60.3157 117.935 60.983C118.379 61.6504 118.615 62.4345 118.613 63.2362C118.611 64.3065 118.184 65.3322 117.427 66.0891C116.671 66.8459 115.645 67.2723 114.575 67.2749ZM114.575 59.8028C113.894 59.8008 113.227 60.0009 112.66 60.3779C112.093 60.7548 111.65 61.2916 111.388 61.9203C111.126 62.549 111.056 63.2412 111.188 63.9094C111.319 64.5777 111.646 65.1919 112.127 65.6742C112.608 66.1565 113.221 66.4853 113.889 66.6189C114.557 66.7525 115.25 66.685 115.879 66.4248C116.509 66.1647 117.047 65.7235 117.425 65.1573C117.804 64.5911 118.006 63.9254 118.006 63.2443C118.006 62.3333 117.645 61.4595 117.002 60.8144C116.358 60.1693 115.486 59.8055 114.575 59.8028Z" fill="#1D1D1B"/>
<path d="M117.496 61.2099C117.427 61.2087 117.361 61.1844 117.307 61.1408C117.254 61.0972 117.217 61.037 117.202 60.9698C117.188 60.9026 117.196 60.8324 117.226 60.7705C117.256 60.7086 117.306 60.6587 117.368 60.6289L120.405 59.2118C120.477 59.1816 120.559 59.1807 120.632 59.2092C120.705 59.2377 120.764 59.2933 120.797 59.3645C120.83 59.4357 120.834 59.5169 120.809 59.591C120.783 59.6652 120.73 59.7267 120.66 59.7624L117.613 61.1795C117.576 61.197 117.536 61.2072 117.496 61.2099Z" fill="#1D1D1B"/>
<path d="M111.15 58.8693C111.082 58.8692 111.016 58.846 110.963 58.8035C110.909 58.7611 110.871 58.7018 110.856 58.6354C110.84 58.5689 110.847 58.4992 110.876 58.4373C110.905 58.3754 110.954 58.3251 111.015 58.2944L114.128 56.7376C114.2 56.7062 114.28 56.7035 114.354 56.73C114.427 56.7564 114.487 56.8101 114.522 56.8798C114.557 56.9495 114.564 57.03 114.541 57.1045C114.518 57.179 114.468 57.2419 114.4 57.2802L111.286 58.8369C111.244 58.8585 111.198 58.8697 111.15 58.8693Z" fill="black"/>
<path d="M119.555 55.1323C119.483 55.1317 119.414 55.1057 119.36 55.059C119.305 55.0122 119.269 54.9477 119.258 54.8769C119.246 54.8061 119.26 54.7335 119.297 54.6721C119.334 54.6106 119.392 54.5643 119.46 54.5412L122.262 53.6079C122.3 53.5924 122.341 53.585 122.383 53.586C122.424 53.5871 122.465 53.5966 122.502 53.614C122.54 53.6314 122.573 53.6562 122.601 53.6871C122.629 53.7179 122.65 53.7541 122.663 53.7933C122.676 53.8326 122.681 53.8741 122.677 53.9154C122.674 53.9566 122.662 53.9967 122.642 54.0332C122.623 54.0697 122.596 54.1018 122.564 54.1275C122.531 54.1533 122.494 54.1721 122.454 54.1829L119.652 55.1181C119.621 55.1278 119.588 55.1326 119.555 55.1323Z" fill="black"/>
<path d="M110.53 63.5399C110.509 63.5419 110.488 63.5419 110.467 63.5399L106.106 62.6492C106.027 62.6331 105.958 62.5863 105.914 62.5191C105.869 62.4519 105.853 62.3698 105.869 62.2908C105.886 62.2119 105.932 62.1426 106 62.0982C106.067 62.0538 106.149 62.0379 106.228 62.054L110.588 62.9447C110.628 62.9486 110.667 62.9603 110.702 62.9791C110.738 62.9979 110.769 63.0235 110.794 63.0544C110.82 63.0854 110.839 63.121 110.851 63.1593C110.862 63.1976 110.867 63.2379 110.863 63.2777C110.859 63.3176 110.847 63.3563 110.828 63.3917C110.809 63.4271 110.784 63.4584 110.753 63.4838C110.722 63.5093 110.686 63.5285 110.648 63.5402C110.61 63.5519 110.57 63.5559 110.53 63.552V63.5399Z" fill="black"/>
<path d="M116.179 70.906C117.085 69.6103 118.676 69.6283 118.696 69.6276C118.777 69.6293 118.853 69.6631 118.909 69.7214C118.965 69.7796 118.995 69.8577 118.994 69.9384C118.992 70.0191 118.958 70.0958 118.9 70.1516C118.842 70.2075 118.764 70.2378 118.683 70.2361C118.601 70.2332 116.684 70.2264 116.258 72.2657C116.25 72.3048 116.234 72.3418 116.212 72.3748C116.189 72.4077 116.161 72.436 116.127 72.4578C116.094 72.4796 116.056 72.4947 116.017 72.5021C115.978 72.5095 115.938 72.509 115.899 72.5009C115.86 72.4927 115.823 72.477 115.79 72.4545C115.757 72.432 115.728 72.4032 115.707 72.3698C115.685 72.3364 115.67 72.299 115.662 72.2598C115.655 72.2206 115.655 72.1803 115.663 72.1412C115.749 71.6985 115.924 71.2781 116.179 70.906Z" fill="black"/>
<path d="M106.898 77.6514L115.303 82.1922L118.931 76.2485L120.797 79.3296C120.797 79.3296 121.168 83.3907 115.882 84.5122C110.76 85.6013 107.1 82.9716 106.477 80.1394L106.898 77.6514Z" fill="white"/>
<path d="M113.599 85.0631C109.621 85.0631 106.748 82.7876 106.181 80.2045C106.174 80.1663 106.174 80.1272 106.181 80.089L106.602 77.601C106.61 77.5535 106.63 77.5086 106.659 77.4699C106.687 77.4313 106.725 77.3999 106.768 77.3784C106.811 77.3564 106.859 77.3448 106.907 77.3448C106.955 77.3448 107.003 77.3564 107.045 77.3784L115.198 81.7835L118.676 76.0848C118.703 76.04 118.741 76.003 118.786 75.9774C118.831 75.9519 118.883 75.9386 118.935 75.939C118.987 75.9388 119.038 75.9522 119.084 75.9777C119.129 76.0033 119.167 76.0402 119.194 76.0848L121.063 79.1659C121.086 79.2055 121.101 79.2497 121.105 79.2955C121.105 79.34 121.435 83.6399 115.949 84.8039C115.177 84.9727 114.389 85.0596 113.599 85.0631ZM106.786 80.1296C107.434 82.8909 111.052 85.2291 115.819 84.2169C120.425 83.2391 120.514 79.9251 120.5 79.421L118.929 76.8318L115.562 82.3503C115.522 82.4175 115.457 82.4665 115.382 82.4869C115.306 82.5073 115.226 82.4975 115.157 82.4596L107.124 78.1214L106.786 80.1296Z" fill="black"/>
<path d="M187.509 144.12C187.486 144.123 187.463 144.123 187.44 144.12C187.362 144.101 187.294 144.053 187.252 143.985C187.209 143.916 187.195 143.834 187.213 143.755C187.236 143.658 189.461 134.022 189.238 121.715C189.023 110.379 186.622 94.4 176.389 82.6239C176.335 82.563 176.308 82.4833 176.313 82.4022C176.318 82.3212 176.355 82.2455 176.416 82.1918C176.477 82.1381 176.557 82.1107 176.638 82.1158C176.719 82.121 176.795 82.1581 176.848 82.219C181.424 87.4825 184.847 94.0073 187.021 101.605C188.76 107.678 189.71 114.44 189.855 121.714C190.086 134.091 187.845 143.792 187.831 143.887C187.815 143.958 187.773 144.021 187.714 144.064C187.655 144.107 187.582 144.127 187.509 144.12Z" fill="#1D1D1B"/>
<path d="M197.013 114.005H196.999C196.919 114 196.843 113.965 196.789 113.905C196.735 113.846 196.706 113.767 196.71 113.687C196.71 113.535 197.317 98.3962 187.908 85.6809C187.86 85.6162 187.839 85.535 187.851 85.4553C187.863 85.3756 187.906 85.3038 187.97 85.2557C188.035 85.2076 188.116 85.1873 188.196 85.1991C188.276 85.2108 188.347 85.2538 188.395 85.3185C197.947 98.214 197.323 113.561 197.317 113.715C197.313 113.793 197.28 113.867 197.223 113.921C197.167 113.975 197.092 114.005 197.013 114.005Z" fill="#1D1D1B"/>
<path d="M137.842 84.0775C137.79 84.0774 137.738 84.0692 137.689 84.0532C134.067 82.8833 130.337 82.079 126.554 81.6523C126.488 81.6465 126.423 81.6278 126.364 81.5971C126.305 81.5664 126.252 81.5243 126.209 81.4732C126.166 81.4222 126.134 81.3632 126.114 81.2996C126.093 81.236 126.086 81.169 126.092 81.1026C126.097 81.0361 126.116 80.9715 126.147 80.9123C126.178 80.8531 126.22 80.8004 126.271 80.7575C126.322 80.7145 126.381 80.6821 126.444 80.6619C126.508 80.6417 126.575 80.6343 126.641 80.6401C130.497 81.0741 134.3 81.8934 137.992 83.0856C138.107 83.1225 138.205 83.1993 138.268 83.3021C138.332 83.405 138.356 83.527 138.337 83.6462C138.318 83.7655 138.258 83.874 138.166 83.9524C138.074 84.0307 137.957 84.0737 137.836 84.0735L137.842 84.0775Z" fill="white"/>
<path d="M144.458 86.2822C144.396 86.2816 144.333 86.2698 144.274 86.2477L140.308 84.7052C140.183 84.6563 140.082 84.5595 140.027 84.4361C139.973 84.3127 139.97 84.1729 140.019 84.0472C140.068 83.9216 140.165 83.8205 140.288 83.7662C140.411 83.7119 140.551 83.7088 140.677 83.7577L144.645 85.3003C144.755 85.3431 144.846 85.423 144.904 85.5263C144.961 85.6296 144.981 85.7497 144.959 85.8657C144.937 85.9818 144.875 86.0865 144.784 86.1618C144.693 86.2371 144.579 86.2783 144.46 86.2781L144.458 86.2822Z" fill="white"/>
<path d="M169.324 60.3755L166.555 65.2625C166.555 65.2625 175.142 69.534 186.91 69.206L186.532 63.6146L169.324 60.3755Z" fill="white"/>
<path d="M185.637 69.528C174.579 69.528 166.502 65.5764 166.419 65.5359C166.382 65.5174 166.349 65.4915 166.322 65.4599C166.296 65.4283 166.276 65.3916 166.263 65.352C166.251 65.3125 166.247 65.2709 166.252 65.2298C166.256 65.1886 166.269 65.1488 166.289 65.1127L169.061 60.2258C169.092 60.1705 169.139 60.1265 169.197 60.0999C169.254 60.0734 169.318 60.0657 169.381 60.078L186.588 63.3171C186.654 63.3294 186.714 63.3634 186.759 63.4136C186.804 63.4638 186.83 63.5274 186.835 63.5944L187.214 69.1859C187.218 69.2682 187.189 69.3488 187.135 69.4106C187.107 69.441 187.074 69.4655 187.037 69.4825C186.999 69.4996 186.959 69.5089 186.918 69.5098C186.487 69.522 186.058 69.528 185.637 69.528ZM166.98 65.133C168.559 65.8476 176.383 69.1312 186.586 68.9166L186.244 63.8758L169.482 60.7198L166.98 65.133Z" fill="black"/>
<path d="M184.105 67.2584C184.776 67.2584 185.32 66.7146 185.32 66.0438C185.32 65.3729 184.776 64.8291 184.105 64.8291C183.434 64.8291 182.891 65.3729 182.891 66.0438C182.891 66.7146 183.434 67.2584 184.105 67.2584Z" fill="white"/>
<path d="M184.104 67.562C183.804 67.562 183.51 67.473 183.261 67.3061C183.011 67.1393 182.816 66.9022 182.702 66.6248C182.587 66.3473 182.557 66.042 182.615 65.7475C182.674 65.4529 182.818 65.1825 183.031 64.9701C183.243 64.7578 183.514 64.6132 183.808 64.5546C184.103 64.496 184.408 64.526 184.685 64.641C184.963 64.7559 185.2 64.9505 185.367 65.2001C185.534 65.4498 185.623 65.7434 185.623 66.0437C185.623 66.4464 185.463 66.8326 185.178 67.1173C184.893 67.4021 184.507 67.562 184.104 67.562ZM184.104 65.1327C183.924 65.1327 183.748 65.1861 183.598 65.2862C183.448 65.3863 183.332 65.5286 183.263 65.6951C183.194 65.8615 183.176 66.0447 183.211 66.2215C183.246 66.3982 183.333 66.5605 183.46 66.6879C183.588 66.8153 183.75 66.9021 183.927 66.9372C184.103 66.9724 184.286 66.9543 184.453 66.8853C184.619 66.8164 184.762 66.6996 184.862 66.5498C184.962 66.4 185.015 66.2239 185.015 66.0437C185.015 65.8023 184.919 65.5708 184.748 65.4001C184.577 65.2294 184.346 65.1333 184.104 65.1327Z" fill="black"/>
<path d="M96.1384 89.021L104.641 93.6772L102.819 96.1065L94.3164 91.4503L96.1384 89.021Z" fill="#51CEF4"/>
<path d="M128.785 101.22L133.314 92.6489L135.769 94.4345L131.241 103.006L128.785 101.22Z" fill="#51CEF4"/>
<path d="M153.387 103.905L161.976 99.4146L162.987 102.277L154.397 106.767L153.387 103.905Z" fill="#51CEF4"/>
<path d="M167.356 77.8301L173.15 85.6018L170.481 87.0532L164.688 79.2816L167.356 77.8301Z" fill="#51CEF4"/>
<path d="M108.539 116.606L113.068 108.034L115.523 109.82L110.995 118.391L108.539 116.606Z" fill="#51CEF4"/>
<path d="M129.082 132.929L138.647 131.354L138.71 134.39L129.145 135.965L129.082 132.929Z" fill="#51CEF4"/>
<path d="M95.783 133.584L103.66 139.237L101.557 141.427L93.6797 135.775L95.783 133.584Z" fill="#51CEF4"/>
<path d="M126.606 47.5206C126.518 47.5205 126.432 47.4975 126.356 47.454C126.28 47.4104 126.216 47.3479 126.171 47.2723C126.127 47.1967 126.102 47.1108 126.101 47.023C126.099 46.9352 126.121 46.8486 126.163 46.7715C128.137 43.1519 128.673 39.9392 127.752 37.2244C126.578 33.7566 123.396 32.307 123.363 32.2929C123.253 32.2319 123.169 32.1317 123.128 32.0121C123.088 31.8926 123.093 31.7621 123.144 31.6465C123.195 31.5309 123.287 31.4384 123.402 31.3872C123.518 31.336 123.648 31.3298 123.768 31.3698C123.914 31.4346 127.388 33.0156 128.704 36.9005C129.716 39.8926 129.159 43.3787 127.041 47.2575C126.999 47.336 126.936 47.4017 126.86 47.448C126.783 47.4942 126.696 47.5193 126.606 47.5206Z" fill="white"/>
<path d="M115.575 62.9062C116.023 62.9062 116.385 62.5436 116.385 62.0964C116.385 61.6492 116.023 61.2866 115.575 61.2866C115.128 61.2866 114.766 61.6492 114.766 62.0964C114.766 62.5436 115.128 62.9062 115.575 62.9062Z" fill="black"/>
<path d="M123.47 59.0595C123.917 59.0595 124.28 58.6969 124.28 58.2497C124.28 57.8025 123.917 57.4399 123.47 57.4399C123.023 57.4399 122.66 57.8025 122.66 58.2497C122.66 58.6969 123.023 59.0595 123.47 59.0595Z" fill="black"/>
<path d="M113.154 87.1647C111.86 87.1748 110.576 86.9399 109.37 86.4724C105.453 84.9298 104.014 81.387 103.955 81.2372C103.925 81.1625 103.927 81.0793 103.958 81.0057C103.99 80.932 104.05 80.874 104.125 80.8444C104.199 80.8149 104.283 80.8163 104.356 80.8482C104.43 80.8801 104.488 80.9399 104.518 81.0146C104.532 81.049 105.935 84.4682 109.601 85.9095C112.565 87.0716 116.164 86.6646 120.302 84.6949C120.338 84.6779 120.377 84.6681 120.416 84.6661C120.456 84.6641 120.496 84.67 120.533 84.6833C120.571 84.6967 120.605 84.7173 120.635 84.7439C120.664 84.7706 120.688 84.8027 120.705 84.8386C120.722 84.8745 120.732 84.9134 120.734 84.9531C120.736 84.9928 120.73 85.0324 120.716 85.0698C120.703 85.1072 120.683 85.1417 120.656 85.1711C120.629 85.2006 120.597 85.2245 120.561 85.2415C117.875 86.523 115.397 87.1647 113.154 87.1647Z" fill="#1D1D1B"/>
<path d="M32.6953 130.617C32.6953 131.329 32.8356 132.035 33.1083 132.693C33.381 133.351 33.7806 133.949 34.2844 134.453C34.7882 134.957 35.3863 135.356 36.0445 135.629C36.7027 135.902 37.4082 136.042 38.1207 136.042H95.1325C95.8451 136.042 96.5508 135.902 97.2093 135.63C97.8678 135.357 98.4661 134.957 98.9702 134.454C99.4742 133.95 99.874 133.352 100.147 132.693C100.42 132.035 100.56 131.329 100.56 130.617V94.0029H32.6953V130.617Z" fill="white"/>
<path d="M95.1314 136.346H38.1197C36.6007 136.344 35.1445 135.74 34.0704 134.666C32.9963 133.592 32.3922 132.136 32.3906 130.617V94.0029C32.3906 93.9223 32.4226 93.8451 32.4795 93.7882C32.5365 93.7312 32.6138 93.6992 32.6943 93.6992H100.567C100.648 93.6992 100.725 93.7312 100.782 93.7882C100.839 93.8451 100.871 93.9223 100.871 94.0029V130.617C100.869 132.137 100.263 133.595 99.1867 134.669C98.1106 135.743 96.652 136.346 95.1314 136.346ZM32.9817 94.3065V130.617C32.9833 131.975 33.5235 133.276 34.4836 134.236C35.4438 135.197 36.7456 135.737 38.1035 135.738H95.1314C96.4897 135.737 97.792 135.197 98.7526 134.237C99.7132 133.277 100.254 131.975 100.255 130.617V94.3065H32.9817Z" fill="black"/>
<path d="M95.1325 88.2983H38.1207C37.4082 88.2983 36.7027 88.4387 36.0445 88.7113C35.3863 88.984 34.7882 89.3835 34.2844 89.8873C33.7806 90.3911 33.381 90.9893 33.1083 91.6475C32.8356 92.3058 32.6953 93.0113 32.6953 93.7238V94.0031H100.568V93.7238C100.568 93.0104 100.427 92.3041 100.154 91.6452C99.8808 90.9863 99.4803 90.3877 98.9754 89.8838C98.4705 89.3799 97.8712 88.9804 97.2118 88.7084C96.5524 88.4363 95.8458 88.297 95.1325 88.2983Z" fill="#382256"/>
<path d="M100.567 94.3067H32.6943C32.6138 94.3067 32.5365 94.2748 32.4795 94.2178C32.4226 94.1609 32.3906 94.0836 32.3906 94.003V93.7237C32.3922 92.2047 32.9963 90.7484 34.0704 89.6744C35.1445 88.6003 36.6007 87.9962 38.1197 87.9946H95.1314C96.6507 87.9957 98.1076 88.5995 99.1821 89.6737C100.257 90.7478 100.861 92.2044 100.863 93.7237V94.003C100.862 94.082 100.831 94.1578 100.776 94.2144C100.721 94.271 100.646 94.3041 100.567 94.3067ZM32.998 93.6994H100.263C100.255 92.3455 99.7114 91.0499 98.7516 90.0951C97.7918 89.1402 96.4934 88.6035 95.1395 88.602H38.1197C36.766 88.6035 35.4679 89.1403 34.5084 90.0953C33.5489 91.0502 33.006 92.3457 32.998 93.6994Z" fill="#1D1E1B"/>
<path d="M39.7873 92.6361C40.4335 92.6361 40.9574 92.1123 40.9574 91.4661C40.9574 90.8198 40.4335 90.2959 39.7873 90.2959C39.141 90.2959 38.6172 90.8198 38.6172 91.4661C38.6172 92.1123 39.141 92.6361 39.7873 92.6361Z" fill="white"/>
<path d="M43.885 92.6361C44.5312 92.6361 45.055 92.1123 45.055 91.4661C45.055 90.8198 44.5312 90.2959 43.885 90.2959C43.2387 90.2959 42.7148 90.8198 42.7148 91.4661C42.7148 92.1123 43.2387 92.6361 43.885 92.6361Z" fill="white"/>
<path d="M48.3693 92.6361C49.0156 92.6361 49.5395 92.1123 49.5395 91.4661C49.5395 90.8198 49.0156 90.2959 48.3693 90.2959C47.7231 90.2959 47.1992 90.8198 47.1992 91.4661C47.1992 92.1123 47.7231 92.6361 48.3693 92.6361Z" fill="white"/>
<path d="M60.4699 118.956H36.4582C35.888 118.956 35.4258 119.418 35.4258 119.987C35.4258 120.557 35.888 121.019 36.4582 121.019H60.4699C61.0401 121.019 61.5023 120.557 61.5023 119.987C61.5023 119.418 61.0401 118.956 60.4699 118.956Z" fill="#EBEBEB"/>
<path d="M60.4699 123.458H36.4582C35.888 123.458 35.4258 123.92 35.4258 124.489C35.4258 125.059 35.888 125.521 36.4582 125.521H60.4699C61.0401 125.521 61.5023 125.059 61.5023 124.489C61.5023 123.92 61.0401 123.458 60.4699 123.458Z" fill="#EBEBEB"/>
<path d="M60.4699 127.96H36.4582C35.888 127.96 35.4258 128.422 35.4258 128.992C35.4258 129.561 35.888 130.023 36.4582 130.023H60.4699C61.0401 130.023 61.5023 129.561 61.5023 128.992C61.5023 128.422 61.0401 127.96 60.4699 127.96Z" fill="#EBEBEB"/>
<path d="M91.4967 130.473H69.5864C68.466 130.471 67.3918 130.026 66.5993 129.234C65.8069 128.442 65.361 127.368 65.3594 126.248V101.882C65.361 100.761 65.8069 99.6873 66.5993 98.8952C67.3918 98.1032 68.466 97.6578 69.5864 97.6567H91.4967C92.6169 97.6578 93.6909 98.1032 94.483 98.8953C95.2751 99.6874 95.7206 100.761 95.7216 101.882V126.248C95.7206 127.368 95.2751 128.442 94.483 129.234C93.6909 130.026 92.6169 130.471 91.4967 130.473ZM69.5864 98.2641C68.6271 98.2651 67.7073 98.6466 67.0288 99.3247C66.3503 100.003 65.9683 100.922 65.9667 101.882V126.248C65.9683 127.207 66.3503 128.126 67.0288 128.805C67.7073 129.483 68.6271 129.864 69.5864 129.865H91.4967C92.4558 129.864 93.3753 129.483 94.0536 128.804C94.7318 128.126 95.1132 127.207 95.1143 126.248V101.882C95.1132 100.922 94.7318 100.003 94.0536 99.3248C93.3753 98.6466 92.4558 98.2651 91.4967 98.2641H69.5864Z" fill="black"/>
<path d="M81.0068 113.12H80.2841C79.137 113.12 78.207 114.05 78.207 115.197V120.976C78.207 122.124 79.137 123.053 80.2841 123.053H81.0068C82.1539 123.053 83.0839 122.124 83.0839 120.976V115.197C83.0839 114.05 82.1539 113.12 81.0068 113.12Z" fill="white"/>
<path d="M81.0107 113.111C81.2834 113.111 81.5534 113.165 81.8052 113.27C82.0571 113.374 82.286 113.527 82.4787 113.72C82.6714 113.913 82.8242 114.142 82.9284 114.394C83.0325 114.646 83.086 114.916 83.0857 115.188V120.97C83.0857 121.521 82.8672 122.049 82.4781 122.438C82.089 122.828 81.5612 123.047 81.0107 123.047H80.2859C79.7352 123.047 79.2073 122.828 78.8178 122.438C78.4284 122.049 78.2094 121.521 78.2089 120.97V115.197C78.2089 114.646 78.4277 114.117 78.8173 113.728C79.2068 113.338 79.7351 113.12 80.2859 113.12H81.0107V113.111ZM81.0107 112.512H80.2859C79.5743 112.513 78.8922 112.796 78.389 113.3C77.8858 113.803 77.6026 114.485 77.6016 115.197V120.978C77.6026 121.69 77.8858 122.372 78.389 122.875C78.8922 123.378 79.5743 123.662 80.2859 123.663H81.0107C81.7221 123.662 82.4041 123.378 82.907 122.875C83.4098 122.372 83.6925 121.69 83.6931 120.978V115.197C83.6925 114.485 83.4098 113.803 82.907 113.3C82.4041 112.796 81.7221 112.513 81.0107 112.512Z" fill="black"/>
<path d="M83.1283 117.273H78.1786C77.0013 117.273 76.0469 118.228 76.0469 119.405V123.27C76.0469 124.447 77.0013 125.401 78.1786 125.401H83.1283C84.3056 125.401 85.26 124.447 85.26 123.27V119.405C85.26 118.228 84.3056 117.273 83.1283 117.273Z" fill="#4BD657"/>
<path d="M83.127 125.707H78.1793C77.535 125.707 76.9171 125.451 76.4615 124.996C76.0059 124.54 75.75 123.922 75.75 123.278V119.407C75.75 118.763 76.0059 118.145 76.4615 117.69C76.9171 117.234 77.535 116.978 78.1793 116.978H83.127C83.7704 116.981 84.3868 117.237 84.8418 117.693C85.2968 118.148 85.5536 118.764 85.5563 119.407V123.27C85.5557 123.915 85.2999 124.533 84.8447 124.99C84.3894 125.447 83.7718 125.705 83.127 125.707ZM78.1793 117.577C77.6961 117.577 77.2326 117.769 76.891 118.111C76.5493 118.453 76.3573 118.916 76.3573 119.399V123.262C76.3573 123.745 76.5493 124.208 76.891 124.55C77.2326 124.892 77.6961 125.084 78.1793 125.084H83.127C83.6102 125.084 84.0736 124.892 84.4153 124.55C84.757 124.208 84.949 123.745 84.949 123.262V119.407C84.949 118.924 84.757 118.461 84.4153 118.119C84.0736 117.777 83.6102 117.585 83.127 117.585L78.1793 117.577Z" fill="black"/>
<path d="M81.0122 120.824V119.899C81.0122 119.778 80.964 119.661 80.8782 119.575C80.7924 119.49 80.676 119.441 80.5547 119.441H80.2065C80.0851 119.441 79.9687 119.49 79.8829 119.575C79.7971 119.661 79.7489 119.778 79.7489 119.899V120.804C79.7482 120.881 79.7307 120.958 79.6974 121.028C79.6642 121.097 79.6162 121.159 79.5566 121.209C79.3589 121.378 79.2181 121.603 79.1532 121.855C79.0884 122.107 79.1027 122.373 79.1943 122.616C79.2859 122.86 79.4501 123.069 79.6649 123.215C79.8796 123.362 80.1344 123.439 80.3944 123.436C80.6544 123.433 80.9071 123.349 81.1181 123.197C81.3291 123.045 81.4881 122.832 81.5735 122.586C81.659 122.341 81.6667 122.075 81.5956 121.825C81.5245 121.575 81.378 121.352 81.1762 121.188C81.1228 121.144 81.0803 121.089 81.0519 121.025C81.0234 120.962 81.0099 120.893 81.0122 120.824Z" fill="white"/>
<path d="M80.3797 123.719C80.2681 123.719 80.1569 123.707 80.0477 123.685C79.7626 123.623 79.5005 123.483 79.2907 123.28C79.0809 123.077 78.9319 122.82 78.8603 122.537C78.7888 122.255 78.7976 121.958 78.8858 121.679C78.974 121.401 79.138 121.154 79.3594 120.964C79.3847 120.944 79.4055 120.919 79.4205 120.89C79.4355 120.861 79.4443 120.83 79.4464 120.798V119.899C79.4464 119.697 79.5266 119.503 79.6694 119.361C79.8121 119.218 80.0057 119.138 80.2076 119.138H80.5558C80.7577 119.138 80.9513 119.218 81.094 119.361C81.2368 119.503 81.317 119.697 81.317 119.899V120.824C81.3178 120.846 81.3235 120.868 81.3336 120.888C81.3437 120.908 81.3581 120.926 81.3757 120.939C81.6261 121.144 81.8069 121.422 81.8933 121.733C81.9798 122.045 81.9676 122.376 81.8584 122.681C81.7493 122.985 81.5485 123.249 81.2838 123.434C81.019 123.62 80.7032 123.72 80.3797 123.719ZM80.2076 119.745C80.1668 119.745 80.1277 119.761 80.0988 119.79C80.07 119.819 80.0537 119.858 80.0537 119.899V120.804C80.052 120.924 80.0243 121.041 79.9726 121.149C79.9209 121.257 79.8463 121.353 79.7541 121.429C79.6241 121.542 79.5265 121.687 79.4714 121.85C79.4162 122.013 79.4055 122.188 79.4403 122.357C79.472 122.507 79.5392 122.648 79.6364 122.767C79.7336 122.886 79.8579 122.98 79.9989 123.041C80.14 123.102 80.2936 123.129 80.447 123.118C80.6003 123.108 80.749 123.061 80.8804 122.981C81.0118 122.901 81.1222 122.791 81.2023 122.66C81.2823 122.528 81.3298 122.38 81.3406 122.227C81.3514 122.073 81.3254 121.92 81.2645 121.778C81.2037 121.637 81.1099 121.513 80.991 121.415C80.9036 121.345 80.833 121.256 80.7843 121.154C80.7356 121.053 80.7101 120.942 80.7097 120.83V119.905C80.7097 119.864 80.6934 119.825 80.6646 119.796C80.6357 119.767 80.5966 119.751 80.5558 119.751L80.2076 119.745Z" fill="#1D1E1B"/>
<path d="M90.2484 102.828H70.8544C70.7739 102.828 70.6966 102.796 70.6397 102.739C70.5827 102.682 70.5508 102.604 70.5508 102.524C70.5508 102.443 70.5827 102.366 70.6397 102.309C70.6966 102.252 70.7739 102.22 70.8544 102.22H90.2484C90.3289 102.22 90.4062 102.252 90.4631 102.309C90.52 102.366 90.552 102.443 90.552 102.524C90.552 102.604 90.52 102.682 90.4631 102.739C90.4062 102.796 90.3289 102.828 90.2484 102.828Z" fill="black"/>
<path d="M90.2484 107.241H70.8544C70.7739 107.241 70.6966 107.209 70.6397 107.152C70.5827 107.095 70.5508 107.018 70.5508 106.937C70.5508 106.856 70.5827 106.779 70.6397 106.722C70.6966 106.665 70.7739 106.633 70.8544 106.633H90.2484C90.3289 106.633 90.4062 106.665 90.4631 106.722C90.52 106.779 90.552 106.856 90.552 106.937C90.552 107.018 90.52 107.095 90.4631 107.152C90.4062 107.209 90.3289 107.241 90.2484 107.241Z" fill="black"/>
<path d="M33.1065 125.17C33.1065 125.17 27.1183 125.829 25.2538 119.739C23.3893 113.65 23.5614 107.427 27.0879 103.983C30.6144 100.539 34.4649 100.62 36.878 102.003C39.2911 103.386 39.5199 106.165 37.1857 108.829C37.1857 108.829 40.8601 112.012 36.4833 116.457C36.4833 116.457 40.0968 123.302 33.1834 122.68L33.1065 125.17Z" fill="#FFCDB2"/>
<path d="M24.1892 110.48C24.4888 107.894 25.4038 105.621 27.0861 103.987C30.6127 100.546 34.4631 100.625 36.8763 102.007C38.2934 102.817 38.9614 104.121 38.7893 105.597C38.6699 106.625 38.1435 107.738 37.184 108.836C37.184 108.836 38.8683 110.295 38.6011 112.615C38.4715 113.723 37.8966 115.026 36.4835 116.462C36.4835 116.462 37.6091 118.593 37.4026 120.371C37.2386 121.776 36.2386 122.96 33.1837 122.685L33.1068 125.175C33.1068 125.175 27.1186 125.833 25.2541 119.743C24.2783 116.551 23.8593 113.324 24.1913 110.48H24.1892ZM23.7013 110.423C23.3734 113.233 23.7479 116.506 24.7824 119.887C25.8067 123.231 28.0315 124.626 29.7179 125.207C30.8223 125.591 31.9931 125.746 33.1594 125.665C33.2706 125.653 33.3743 125.603 33.4538 125.524C33.5332 125.446 33.5836 125.343 33.5967 125.231C33.5967 125.219 33.5967 125.205 33.5967 125.191L33.6595 123.209C36.856 123.339 37.7306 121.792 37.8905 120.428C38.0646 118.927 37.3925 117.247 37.0807 116.555C38.265 115.279 38.9432 113.974 39.095 112.67C39.1676 111.976 39.0948 111.274 38.8811 110.609C38.6674 109.944 38.3177 109.331 37.8541 108.809C38.6638 107.779 39.1638 106.694 39.2853 105.653C39.4877 103.963 38.6962 102.479 37.1273 101.58C35.6711 100.768 33.9875 100.458 32.3375 100.7C30.3657 100.975 28.4324 101.989 26.7481 103.635C25.0638 105.281 24.0374 107.566 23.7114 110.423H23.7013Z" fill="black"/>
<path d="M28.0424 110.214C27.9808 110.215 27.9206 110.196 27.8699 110.161C27.8191 110.126 27.7802 110.077 27.7582 110.019C27.7363 109.962 27.7323 109.899 27.7469 109.839C27.7615 109.779 27.794 109.725 27.84 109.684C27.8825 109.646 32.156 105.979 37.8851 108.729C37.9538 108.766 38.0055 108.828 38.0296 108.902C38.0536 108.976 38.0481 109.057 38.0142 109.127C37.9804 109.198 37.9208 109.252 37.8477 109.28C37.7747 109.307 37.6938 109.306 37.622 109.275C32.2633 106.704 28.4028 109.998 28.2408 110.14C28.1857 110.187 28.1154 110.214 28.0424 110.214Z" fill="#1D1D1B"/>
<path d="M36.9333 116.668C36.8831 116.668 36.8337 116.656 36.7896 116.632C33.9007 115.069 28.9631 116.136 28.9125 116.148C28.8339 116.165 28.7515 116.151 28.6835 116.108C28.6156 116.064 28.5676 115.996 28.5502 115.917C28.5327 115.838 28.5472 115.756 28.5905 115.688C28.6338 115.62 28.7023 115.572 28.7809 115.555C28.9834 115.508 33.9898 114.425 37.0811 116.097C37.1407 116.129 37.1878 116.181 37.215 116.243C37.2421 116.305 37.2478 116.374 37.2311 116.44C37.2143 116.505 37.1761 116.563 37.1225 116.605C37.0689 116.646 37.003 116.668 36.9353 116.668H36.9333Z" fill="#1D1D1B"/>
<path d="M31.9794 123.385C30.9672 123.385 29.7525 123.219 28.8435 122.551C28.8078 122.529 28.7771 122.5 28.7532 122.465C28.7293 122.431 28.7128 122.392 28.7048 122.351C28.6968 122.309 28.6974 122.267 28.7066 122.226C28.7158 122.185 28.7333 122.147 28.7581 122.113C28.783 122.079 28.8145 122.051 28.8509 122.03C28.8872 122.009 28.9274 121.995 28.9691 121.991C29.0108 121.986 29.053 121.99 29.0931 122.003C29.1331 122.015 29.1702 122.036 29.2019 122.063C30.7667 123.213 33.6313 122.626 33.6556 122.62C33.7345 122.603 33.8168 122.618 33.8844 122.663C33.952 122.707 33.9993 122.776 34.0159 122.855C34.0326 122.934 34.0172 123.016 33.9731 123.083C33.9291 123.151 33.86 123.198 33.7811 123.215C33.1871 123.328 32.5839 123.385 31.9794 123.385Z" fill="#1D1D1B"/>
<path d="M26.3657 107.603C26.2783 107.602 26.192 107.583 26.1127 107.546C26.0397 107.513 25.9741 107.465 25.9196 107.406C25.8651 107.348 25.8228 107.278 25.7951 107.203C25.7674 107.128 25.7549 107.048 25.7584 106.968C25.7618 106.888 25.7811 106.809 25.8151 106.736C25.8758 106.603 27.3455 103.473 30.5806 102.282C32.605 101.538 34.8561 101.73 37.2611 102.851C37.3334 102.885 37.3984 102.933 37.4523 102.992C37.5062 103.051 37.548 103.119 37.5752 103.194C37.6025 103.269 37.6147 103.349 37.6112 103.429C37.6076 103.509 37.5885 103.587 37.5547 103.659C37.521 103.731 37.4733 103.796 37.4144 103.85C37.3555 103.904 37.2866 103.946 37.2116 103.973C37.1366 104 37.057 104.013 36.9772 104.009C36.8975 104.006 36.8193 103.986 36.747 103.953C34.6537 102.975 32.7244 102.795 31.0138 103.418C28.2545 104.43 26.9346 107.212 26.9225 107.24C26.8749 107.348 26.7969 107.44 26.698 107.504C26.5992 107.569 26.4837 107.603 26.3657 107.603Z" fill="white"/>
<path d="M28.0477 111.492C27.9433 111.491 27.8415 111.459 27.7563 111.399C27.6711 111.338 27.6067 111.253 27.5719 111.154C27.5371 111.056 27.5336 110.949 27.5619 110.849C27.5902 110.748 27.6488 110.659 27.7299 110.593C27.8675 110.48 31.1936 107.862 36.8215 109.271C36.9517 109.304 37.0636 109.387 37.1325 109.502C37.2014 109.617 37.2217 109.755 37.1889 109.885C37.1562 110.016 37.0731 110.127 36.9578 110.196C36.8426 110.265 36.7048 110.286 36.5746 110.253C31.4325 108.965 28.3959 111.356 28.3655 111.38C28.2752 111.452 28.1631 111.492 28.0477 111.492Z" fill="white"/>
<path d="M186.537 19.3415L193.889 37.8612L192.775 38.3082C192.757 38.3153 192.739 38.3225 192.721 38.3299C188.93 39.8346 184.991 40.349 181.628 39.7788C178.054 39.1729 175.522 37.4181 174.498 34.8388C173.474 32.2594 174.113 29.2465 176.299 26.3534C178.355 23.6321 181.575 21.3051 185.365 19.8004C185.384 19.793 185.402 19.7859 185.42 19.7787L185.446 19.7683L186.537 19.3415ZM190.827 36.5236L185.226 22.415C182.273 23.7517 179.795 25.6293 178.178 27.7714C176.507 29.9829 175.978 32.1843 176.687 33.9706C177.396 35.7568 179.291 36.9957 182.024 37.4593C184.67 37.909 187.761 37.5761 190.827 36.5236Z" fill="#382256"/>
<path d="M186.585 19.2275L194.001 37.91L192.806 38.3899C192.788 38.3971 192.77 38.4044 192.752 38.4116C188.946 39.9222 184.991 40.4383 181.612 39.8654C178.006 39.2537 175.45 37.4799 174.415 34.871C173.379 32.2622 174.023 29.2183 176.227 26.3001C178.293 23.5661 181.526 21.2287 185.331 19.7181C185.35 19.7108 185.369 19.7034 185.386 19.6965L185.412 19.686L186.585 19.2275ZM193.772 37.8117L186.486 19.456L185.45 19.8619C185.432 19.8691 185.414 19.8763 185.396 19.8836C181.62 21.3823 178.414 23.6998 176.368 26.4082C174.202 29.2751 173.565 32.2586 174.577 34.8079C175.589 37.3572 178.097 39.0923 181.641 39.6926C184.988 40.262 188.911 39.7477 192.686 38.2491C192.704 38.242 192.722 38.2348 192.741 38.2274L193.772 37.8117ZM185.272 22.2965L190.941 36.5768L190.854 36.607C187.785 37.6606 184.644 37.9964 182.005 37.5467C179.241 37.0781 177.322 35.8197 176.601 34.0039C175.88 32.1881 176.414 29.956 178.104 27.719C179.717 25.5843 182.232 23.6723 185.188 22.3344L185.272 22.2965ZM190.709 36.4702L185.176 22.5322C182.285 23.8558 179.824 25.7324 178.244 27.8242C176.593 30.0101 176.067 32.1815 176.764 33.9377C177.461 35.6939 179.333 36.9136 182.034 37.3721C184.618 37.811 187.695 37.4906 190.709 36.4702Z" fill="#1D1E1B"/>
<path d="M189.071 34.6441L185.26 25.0427C184.353 22.757 184.39 20.2045 185.365 17.9467C186.34 15.689 188.171 13.9108 190.457 13.0035L200.087 9.18092C200.77 8.9096 201.534 8.9209 202.209 9.21236C202.884 9.50382 203.416 10.0516 203.687 10.7351L212.294 32.4184C212.566 33.1019 212.554 33.8652 212.263 34.5404C211.971 35.2155 211.424 35.7473 210.74 36.0186L201.11 39.8412C198.825 40.7485 196.272 40.7107 194.014 39.736C191.757 38.7614 189.978 36.9298 189.071 34.6441Z" fill="#4BD657"/>
<path d="M203.768 10.7028L212.375 32.3861C212.654 33.0914 212.642 33.8786 212.341 34.5751C212.041 35.2715 211.476 35.8202 210.771 36.1008L201.142 39.9234C196.344 41.8278 190.892 39.4743 188.988 34.6769L185.177 25.0754C183.272 20.278 185.626 14.8261 190.423 12.9218L200.053 9.09914C200.758 8.82 201.546 8.83206 202.242 9.1327C202.938 9.43334 203.487 9.99802 203.768 10.7028ZM189.152 34.6118C191.02 39.3185 196.37 41.6278 201.076 39.7594L210.706 35.9368C211.368 35.6735 211.897 35.1586 212.179 34.5051C212.462 33.8517 212.473 33.113 212.211 32.4511L203.604 10.7679C203.34 10.1066 202.825 9.57677 202.172 9.29467C201.519 9.01258 200.78 9.00124 200.118 9.26312L190.488 13.0857C185.781 14.9541 183.472 20.3036 185.341 25.0103L189.152 34.6118Z" fill="#1D1E1B"/>
<path d="M195.933 25.1079L193.509 26.0699L194.397 28.3066L196.87 27.325C197.334 27.7266 197.921 27.9593 198.534 27.9852C199.148 28.0111 199.752 27.8288 200.248 27.4678C200.745 27.1068 201.105 26.5884 201.27 25.997C201.434 25.4055 201.394 24.7758 201.155 24.2101C200.916 23.6445 200.493 23.1763 199.955 22.8816C199.416 22.587 198.794 22.4832 198.189 22.5872C197.584 22.6912 197.031 22.9968 196.622 23.4544C196.213 23.9119 195.97 24.4946 195.934 25.1074L195.933 25.1079Z" fill="#382256"/>
<path d="M201.258 24.2321C201.488 24.8122 201.519 25.4524 201.345 26.0518C201.171 26.6511 200.802 27.1754 200.296 27.5417C199.791 27.9081 199.178 28.0957 198.555 28.0749C197.931 28.0541 197.332 27.8261 196.852 27.4269L194.346 28.4215L193.393 26.0208L195.849 25.0462C195.899 24.414 196.161 23.8174 196.594 23.3535C197.026 22.8896 197.603 22.5857 198.23 22.4913C198.857 22.397 199.498 22.5176 200.048 22.8337C200.597 23.1498 201.024 23.6427 201.258 24.2321ZM194.445 28.1924L196.886 27.2236L196.926 27.2582C197.375 27.6469 197.943 27.8722 198.536 27.8974C199.13 27.9225 199.715 27.7462 200.195 27.3969C200.676 27.0477 201.024 26.5461 201.183 25.9738C201.343 25.4015 201.304 24.7921 201.073 24.2448C200.842 23.6975 200.432 23.2444 199.911 22.9593C199.39 22.6742 198.788 22.5738 198.202 22.6744C197.617 22.7751 197.082 23.0709 196.686 23.5137C196.29 23.9565 196.056 24.5202 196.021 25.1133L196.018 25.169L193.622 26.1197L194.445 28.1924Z" fill="#1D1E1B"/>
<path d="M197.339 11.5676L197.345 11.5818C197.375 11.6701 197.37 11.767 197.329 11.8512C197.288 11.9353 197.216 11.9999 197.127 12.0306C187.453 15.3927 187.845 18.4106 187.85 18.4409L187.847 18.4327L187.159 18.5857C187.136 18.4845 186.973 17.5585 188.154 16.2051C189.652 14.4879 192.594 12.8609 196.895 11.3649C196.981 11.3349 197.075 11.3392 197.158 11.377C197.24 11.4148 197.305 11.4831 197.339 11.5676Z" fill="white"/>
<path d="M202.47 38.6038L202.481 38.6306C202.508 38.7201 202.499 38.8168 202.455 38.8994C202.411 38.9821 202.337 39.044 202.247 39.0714C198.828 40.1239 195.899 40.0234 193.544 38.7729C190.461 37.136 189.518 34.1407 189.479 34.0138C189.465 33.9693 189.461 33.9226 189.465 33.8763C189.47 33.83 189.483 33.7851 189.505 33.7441C189.527 33.7031 189.557 33.6668 189.593 33.6373C189.629 33.6078 189.67 33.5857 189.715 33.5721C189.759 33.5586 189.806 33.554 189.852 33.5586C189.899 33.5631 189.944 33.5767 189.985 33.5986C190.026 33.6206 190.062 33.6503 190.091 33.6863C190.121 33.7222 190.143 33.7636 190.156 33.8081C190.168 33.8382 190.767 35.726 192.516 37.2216C194.86 39.2255 198.065 39.621 202.043 38.3971C202.127 38.3721 202.217 38.3795 202.297 38.4178C202.376 38.456 202.438 38.5223 202.47 38.6038Z" fill="white"/>
<path d="M201.587 18.8407L205.184 27.9043C205.369 28.3695 205.361 28.8888 205.162 29.3482C204.964 29.8076 204.592 30.1695 204.127 30.3545L195.992 33.5835C195.527 33.7677 195.008 33.7598 194.548 33.5614C194.089 33.3631 193.727 32.9907 193.542 32.5258L189.944 23.4622C189.76 22.9969 189.768 22.4777 189.966 22.0183C190.165 21.5589 190.537 21.197 191.002 21.0119L199.136 17.7829C199.602 17.5987 200.121 17.6067 200.58 17.805C201.04 18.0033 201.402 18.3758 201.587 18.8407ZM193.761 32.439C193.923 32.8459 194.24 33.1719 194.642 33.3455C195.044 33.519 195.498 33.526 195.905 33.3649L204.04 30.1359C204.447 29.9739 204.773 29.6571 204.946 29.2549C205.12 28.8528 205.127 28.3983 204.966 27.9911L201.368 18.9275C201.206 18.5206 200.889 18.1946 200.487 18.021C200.085 17.8474 199.63 17.8404 199.223 18.0016L191.089 21.2305C190.682 21.3926 190.356 21.7094 190.182 22.1115C190.009 22.5136 190.002 22.9681 190.163 23.3754L193.761 32.439Z" fill="#1D1D1B"/>
<path d="M179.998 21.5198C180.009 21.5457 180.01 21.5746 180.001 21.6012C179.993 21.6278 179.975 21.6505 179.951 21.6651C175.535 24.3594 173.892 27.1761 173.292 29.0647C172.644 31.0985 173.035 32.508 173.039 32.5221C173.048 32.5522 173.044 32.5846 173.029 32.612C173.014 32.6394 172.988 32.6596 172.958 32.6682C172.928 32.6768 172.896 32.6731 172.868 32.6578C172.841 32.6426 172.821 32.6171 172.812 32.587C172.796 32.5302 172.399 31.0946 173.067 28.9938C173.457 27.7635 174.134 26.5639 175.078 25.4229C176.255 24.0016 177.852 22.6696 179.827 21.4649C179.854 21.4487 179.886 21.4436 179.916 21.451C179.946 21.4583 179.972 21.4773 179.989 21.5039L179.998 21.5198Z" fill="#1D1D1B"/>
<path d="M187.57 35.9767L187.572 35.9817C187.577 35.9963 187.579 36.0117 187.578 36.0272C187.578 36.0426 187.574 36.0577 187.567 36.0716C187.56 36.0855 187.551 36.098 187.539 36.1082C187.527 36.1185 187.514 36.1264 187.499 36.1314C184.998 36.9922 183.121 36.8019 181.988 36.4906C180.751 36.1515 180.117 35.6104 180.091 35.5873C180.078 35.5776 180.067 35.5654 180.059 35.5514C180.051 35.5374 180.046 35.5218 180.044 35.5058C180.042 35.4897 180.044 35.4734 180.049 35.458C180.054 35.4426 180.061 35.4283 180.072 35.4161C180.083 35.4039 180.096 35.394 180.11 35.387C180.125 35.38 180.141 35.3761 180.157 35.3756C180.173 35.375 180.189 35.3777 180.204 35.3836C180.219 35.3896 180.233 35.3985 180.244 35.4099C180.252 35.4164 180.876 35.9439 182.065 36.2691C183.164 36.5685 184.987 36.7492 187.423 35.9105C187.451 35.9007 187.482 35.9021 187.51 35.9144C187.537 35.9267 187.559 35.949 187.57 35.9767Z" fill="#1D1D1B"/>
<defs>
<filter id="filter0_d_8286_54645" x="-2.14696" y="57.4859" width="20.6338" height="20.6313" filterUnits="userSpaceOnUse" color-interpolation-filters="sRGB">
<feFlood flood-opacity="0" result="BackgroundImageFix"/>
<feColorMatrix in="SourceAlpha" type="matrix" values="0 0 0 0 0 0 0 0 0 0 0 0 0 0 0 0 0 0 127 0" result="hardAlpha"/>
<feOffset dy="1.08642"/>
<feGaussianBlur stdDeviation="2.71606"/>
<feComposite in2="hardAlpha" operator="out"/>
<feColorMatrix type="matrix" values="0 0 0 0 0 0 0 0 0 0 0 0 0 0 0 0 0 0 0.05 0"/>
<feBlend mode="normal" in2="BackgroundImageFix" result="effect1_dropShadow_8286_54645"/>
<feBlend mode="normal" in="SourceGraphic" in2="effect1_dropShadow_8286_54645" result="shape"/>
</filter>
<filter id="filter1_d_8286_54645" x="197.677" y="88.1148" width="20.6338" height="20.6338" filterUnits="userSpaceOnUse" color-interpolation-filters="sRGB">
<feFlood flood-opacity="0" result="BackgroundImageFix"/>
<feColorMatrix in="SourceAlpha" type="matrix" values="0 0 0 0 0 0 0 0 0 0 0 0 0 0 0 0 0 0 127 0" result="hardAlpha"/>
<feOffset dy="1.08642"/>
<feGaussianBlur stdDeviation="2.71606"/>
<feComposite in2="hardAlpha" operator="out"/>
<feColorMatrix type="matrix" values="0 0 0 0 0 0 0 0 0 0 0 0 0 0 0 0 0 0 0.05 0"/>
<feBlend mode="normal" in2="BackgroundImageFix" result="effect1_dropShadow_8286_54645"/>
<feBlend mode="normal" in="SourceGraphic" in2="effect1_dropShadow_8286_54645" result="shape"/>
</filter>
<linearGradient id="paint0_linear_8286_54645" x1="10.9068" y1="59.7534" x2="209.092" y2="106.958" gradientUnits="userSpaceOnUse">
<stop stop-color="#CDD5E2"/>
<stop offset="1" stop-color="#CDD5E2" stop-opacity="0"/>
</linearGradient>
<linearGradient id="paint1_linear_8286_54645" x1="208.75" y1="104.233" x2="188.718" y2="156.823" gradientUnits="userSpaceOnUse">
<stop stop-color="#CDD5E2"/>
<stop offset="1" stop-color="#CDD5E2" stop-opacity="0"/>
</linearGradient>
<linearGradient id="paint2_linear_8286_54645" x1="104.804" y1="12.4053" x2="104.804" y2="194.669" gradientUnits="userSpaceOnUse">
<stop stop-color="#CDD5E2"/>
<stop offset="1" stop-color="#CDD5E2" stop-opacity="0"/>
</linearGradient>
<linearGradient id="paint3_linear_8286_54645" x1="104.804" y1="30.6313" x2="104.804" y2="176.443" gradientUnits="userSpaceOnUse">
<stop stop-color="#CDD5E2"/>
<stop offset="1" stop-color="#CDD5E2" stop-opacity="0"/>
</linearGradient>
</defs>
</svg>
