<svg width="285" height="212" viewBox="0 0 285 212" fill="none" xmlns="http://www.w3.org/2000/svg">
<mask id="mask0_10197_35015" style="mask-type:alpha" maskUnits="userSpaceOnUse" x="0" y="0" width="285" height="212">
<rect width="285" height="212" fill="#D9D9D9"/>
</mask>
<g mask="url(#mask0_10197_35015)">
<g opacity="0.5">
<mask id="path-2-inside-1_10197_35015" fill="white">
<path d="M273.871 142.256C275.287 109.771 265.017 77.8543 244.923 52.2905C224.829 26.7266 196.242 9.20795 164.342 2.91007C132.441 -3.3878 99.3407 1.95193 71.0393 17.9614C42.7378 33.9708 21.1088 59.5903 10.0729 90.1759L10.6626 90.3887C21.6477 59.944 43.1769 34.4426 71.3479 18.507C99.5189 2.57137 132.467 -2.74374 164.22 3.5251C195.973 9.79394 224.429 27.2318 244.43 52.6779C264.432 78.1239 274.654 109.894 273.245 142.229L273.871 142.256Z"/>
</mask>
<path d="M273.871 142.256C275.287 109.771 265.017 77.8543 244.923 52.2905C224.829 26.7266 196.242 9.20795 164.342 2.91007C132.441 -3.3878 99.3407 1.95193 71.0393 17.9614C42.7378 33.9708 21.1088 59.5903 10.0729 90.1759L10.6626 90.3887C21.6477 59.944 43.1769 34.4426 71.3479 18.507C99.5189 2.57137 132.467 -2.74374 164.22 3.5251C195.973 9.79394 224.429 27.2318 244.43 52.6779C264.432 78.1239 274.654 109.894 273.245 142.229L273.871 142.256Z" stroke="url(#paint0_linear_10197_35015)" stroke-width="2" stroke-dasharray="3 3" mask="url(#path-2-inside-1_10197_35015)"/>
</g>
<g opacity="0.5">
<mask id="path-3-inside-2_10197_35015" fill="white">
<path d="M10.256 182.994C21.4116 213.536 43.1407 239.07 71.5046 254.969C99.8685 270.867 132.99 276.078 164.865 269.655C196.74 263.232 225.259 245.602 245.253 219.96C265.247 194.317 275.391 162.36 273.848 129.881L273.222 129.911C274.758 162.24 264.66 194.05 244.759 219.574C224.857 245.098 196.469 262.647 164.741 269.04C133.013 275.433 100.044 270.247 71.8111 254.422C43.578 238.597 21.949 213.18 10.8449 182.778L10.256 182.994Z"/>
</mask>
<path d="M10.256 182.994C21.4116 213.536 43.1407 239.07 71.5046 254.969C99.8685 270.867 132.99 276.078 164.865 269.655C196.74 263.232 225.259 245.602 245.253 219.96C265.247 194.317 275.391 162.36 273.848 129.881L273.222 129.911C274.758 162.24 264.66 194.05 244.759 219.574C224.857 245.098 196.469 262.647 164.741 269.04C133.013 275.433 100.044 270.247 71.8111 254.422C43.578 238.597 21.949 213.18 10.8449 182.778L10.256 182.994Z" stroke="url(#paint1_linear_10197_35015)" stroke-width="2" stroke-dasharray="3 3" mask="url(#path-3-inside-2_10197_35015)"/>
</g>
<circle opacity="0.08" cx="138" cy="136.335" r="120" fill="url(#paint2_linear_10197_35015)"/>
<circle opacity="0.1" cx="138" cy="136.335" r="96" fill="url(#paint3_linear_10197_35015)"/>
<circle cx="138" cy="136.335" r="64" fill="white"/>
<g filter="url(#filter0_d_10197_35015)">
<circle cx="10.7606" cy="87.8481" r="5" transform="rotate(-2.50406 10.7606 87.8481)" fill="#0170FF"/>
<circle cx="10.7606" cy="87.8481" r="5.71528" transform="rotate(-2.50406 10.7606 87.8481)" stroke="white" stroke-width="1.43057"/>
</g>
<g filter="url(#filter1_d_10197_35015)">
<circle cx="273.881" cy="128.181" r="5" transform="rotate(-15.7345 273.881 128.181)" fill="#0170FF"/>
<circle cx="273.881" cy="128.181" r="5.71528" transform="rotate(-15.7345 273.881 128.181)" stroke="white" stroke-width="1.43057"/>
</g>
</g>
<path d="M55.5039 129.046C55.5039 132.868 57.022 136.533 59.7243 139.236C62.4266 141.939 66.0919 143.458 69.9138 143.458H221.355C223.248 143.458 225.122 143.085 226.87 142.361C228.619 141.637 230.207 140.575 231.545 139.237C232.883 137.898 233.945 136.309 234.669 134.561C235.393 132.812 235.765 130.938 235.765 129.046V31.8037H55.5039V129.046Z" fill="white"/>
<path d="M221.356 143.832H69.9145C65.9946 143.827 62.2366 142.268 59.4651 139.496C56.6936 136.724 55.1348 132.966 55.1309 129.046V31.8039C55.1309 31.7048 55.1702 31.6096 55.2403 31.5395C55.3104 31.4695 55.4054 31.4302 55.5046 31.4302H235.766C235.865 31.4302 235.96 31.4695 236.03 31.5395C236.1 31.6096 236.139 31.7048 236.139 31.8039V129.046C236.135 132.966 234.577 136.724 231.805 139.496C229.034 142.268 225.276 143.827 221.356 143.832ZM55.8783 32.18V129.048C55.8822 132.77 57.3622 136.338 59.9936 138.97C62.625 141.602 66.1928 143.083 69.9145 143.087H221.356C225.077 143.083 228.645 141.602 231.277 138.97C233.908 136.338 235.388 132.77 235.392 129.048V32.18H55.8783Z" fill="black"/>
<path d="M221.355 16.6514H69.9138C66.0919 16.652 62.4266 18.1707 59.7243 20.8735C57.022 23.5763 55.5039 27.2418 55.5039 31.0638V31.8112H235.765V31.0638C235.765 29.1713 235.393 27.2971 234.669 25.5486C233.945 23.8 232.883 22.2111 231.545 20.8728C230.207 19.5344 228.619 18.4728 226.87 17.7485C225.122 17.0242 223.248 16.6514 221.355 16.6514Z" fill="#4BD657"/>
<path d="M236.139 32.18H55.1309V31.0663C55.1355 27.1466 56.6944 23.3889 59.4658 20.617C62.2372 17.8451 65.9948 16.2855 69.9145 16.2803H221.356C225.275 16.2855 229.033 17.8451 231.804 20.617C234.576 23.3889 236.135 27.1466 236.139 31.0663V32.18ZM55.8783 31.4326H235.392V31.0663C235.388 27.3446 233.908 23.7766 231.277 21.1447C228.645 18.5129 225.077 17.0323 221.356 17.0277H69.9145C66.1928 17.0323 62.625 18.5129 59.9936 21.1447C57.3622 23.7766 55.8822 27.3446 55.8783 31.0663V31.4326Z" fill="black"/>
<path d="M74.3508 28.1768C76.0666 28.1768 77.4576 26.7858 77.4576 25.07C77.4576 23.3542 76.0666 21.9634 74.3508 21.9634C72.6351 21.9634 71.2441 23.3542 71.2441 25.07C71.2441 26.7858 72.6351 28.1768 74.3508 28.1768Z" fill="white"/>
<path d="M74.3507 21.9657C74.9658 21.9652 75.5672 22.1472 76.0788 22.4885C76.5904 22.8298 76.9893 23.3152 77.225 23.8833C77.4607 24.4514 77.5227 25.0766 77.403 25.6799C77.2833 26.2832 76.9874 26.8375 76.5526 27.2725C76.1179 27.7076 75.5639 28.0039 74.9607 28.1241C74.3575 28.2442 73.7322 28.1828 73.164 27.9476C72.5957 27.7123 72.11 27.3139 71.7682 26.8025C71.4264 26.2911 71.244 25.6899 71.244 25.0749C71.244 24.2507 71.5713 23.4602 72.1538 22.8772C72.7364 22.2942 73.5266 21.9663 74.3507 21.9657ZM74.3507 21.2183C73.588 21.2183 72.8423 21.4445 72.2081 21.8682C71.5739 22.292 71.0796 22.8943 70.7877 23.599C70.4958 24.3037 70.4194 25.0791 70.5682 25.8272C70.7171 26.5754 71.0844 27.2625 71.6237 27.8018C72.1631 28.3412 72.8503 28.7086 73.5984 28.8574C74.3465 29.0062 75.1219 28.9298 75.8266 28.6379C76.5313 28.346 77.1336 27.8517 77.5574 27.2174C77.9812 26.5832 78.2073 25.8376 78.2073 25.0749C78.206 24.0524 77.7993 23.0723 77.0763 22.3493C76.3533 21.6264 75.3732 21.2196 74.3507 21.2183Z" fill="#1D1E1B"/>
<path d="M85.2278 28.1768C86.9436 28.1768 88.3345 26.7858 88.3345 25.07C88.3345 23.3542 86.9436 21.9634 85.2278 21.9634C83.512 21.9634 82.1211 23.3542 82.1211 25.07C82.1211 26.7858 83.512 28.1768 85.2278 28.1768Z" fill="white"/>
<path d="M85.2277 21.9657C85.8427 21.9652 86.4441 22.1472 86.9558 22.4885C87.4674 22.8298 87.8663 23.3152 88.102 23.8833C88.3377 24.4514 88.3996 25.0766 88.2799 25.6799C88.1603 26.2832 87.8643 26.8375 87.4296 27.2725C86.9949 27.7076 86.4409 28.0039 85.8377 28.1241C85.2345 28.2442 84.6092 28.1828 84.0409 27.9476C83.4726 27.7123 82.9869 27.3139 82.6452 26.8025C82.3034 26.2911 82.121 25.6899 82.121 25.0749C82.121 24.2507 82.4482 23.4602 83.0308 22.8772C83.6133 22.2942 84.4035 21.9663 85.2277 21.9657ZM85.2277 21.2183C84.4649 21.2183 83.7193 21.4445 83.0851 21.8682C82.4509 22.292 81.9566 22.8943 81.6647 23.599C81.3728 24.3037 81.2964 25.0791 81.4452 25.8272C81.594 26.5754 81.9613 27.2625 82.5007 27.8018C83.04 28.3412 83.7272 28.7086 84.4753 28.8574C85.2234 29.0062 85.9989 28.9298 86.7036 28.6379C87.4083 28.346 88.0106 27.8517 88.4343 27.2174C88.8581 26.5832 89.0843 25.8376 89.0843 25.0749C89.083 24.0524 88.6762 23.0723 87.9533 22.3493C87.2303 21.6264 86.2501 21.2196 85.2277 21.2183Z" fill="#1D1E1B"/>
<path d="M97.1419 28.1768C98.8576 28.1768 100.249 26.7858 100.249 25.07C100.249 23.3542 98.8576 21.9634 97.1419 21.9634C95.4261 21.9634 94.0352 23.3542 94.0352 25.07C94.0352 26.7858 95.4261 28.1768 97.1419 28.1768Z" fill="white"/>
<path d="M97.1416 21.9657C97.7567 21.9657 98.358 22.1481 98.8694 22.49C99.3809 22.8318 99.7794 23.3178 100.015 23.8862C100.25 24.4547 100.311 25.08 100.191 25.6832C100.07 26.2865 99.7736 26.8405 99.3383 27.2751C98.903 27.7097 98.3485 28.0055 97.7451 28.1249C97.1416 28.2443 96.5163 28.1821 95.9483 27.946C95.3802 27.7099 94.895 27.3106 94.5539 26.7986C94.2129 26.2866 94.0314 25.685 94.0324 25.0699C94.0337 24.2461 94.3618 23.4566 94.9448 22.8746C95.5277 22.2926 96.3178 21.9657 97.1416 21.9657ZM97.1416 21.2183C96.379 21.2202 95.6342 21.4483 95.0012 21.8735C94.3681 22.2986 93.8754 22.9019 93.5852 23.6071C93.2949 24.3122 93.2203 25.0876 93.3706 25.8352C93.521 26.5827 93.8895 27.269 94.4298 27.8072C94.97 28.3453 95.6577 28.7113 96.4059 28.8587C97.154 29.0061 97.9291 28.9284 98.6331 28.6355C99.3372 28.3425 99.9385 27.8475 100.361 27.2128C100.784 26.5782 101.009 25.8324 101.008 25.0699C101.005 24.0466 100.597 23.0662 99.8718 22.344C99.1468 21.6218 98.1648 21.2169 97.1416 21.2183Z" fill="#1D1E1B"/>
<path d="M120.911 59.7715C120.451 59.7718 119.993 59.8051 119.538 59.8711C119.107 55.9811 117.33 52.3639 114.515 49.6449C111.7 46.9259 108.023 45.2761 104.121 44.9806C100.218 44.685 96.335 45.7624 93.1425 48.0265C89.9501 50.2906 87.649 53.599 86.6373 57.3797C85.1332 56.5569 83.4609 56.0888 81.7483 56.0111C80.0356 55.9334 78.3278 56.2483 76.7554 56.9316C75.183 57.6149 73.7877 58.6486 72.6759 59.9537C71.5641 61.2588 70.7654 62.8008 70.3408 64.4618C69.9161 66.1228 69.8767 67.8589 70.2257 69.5374C70.5747 71.216 71.3027 72.7925 72.3542 74.1467C73.4056 75.5008 74.7527 76.5968 76.2925 77.3506C77.8323 78.1045 79.5241 78.4964 81.2385 78.4964H91.0021V71.7399H88.3738C88.1464 71.7403 87.9241 71.6737 87.7344 71.5484C87.5447 71.4231 87.3962 71.2448 87.3074 71.0355C87.2186 70.8263 87.1935 70.5955 87.2351 70.3721C87.2768 70.1486 87.3834 69.9423 87.5416 69.7792L94.0515 63.0351C94.1593 62.9233 94.2886 62.8343 94.4316 62.7736C94.5745 62.7128 94.7283 62.6815 94.8836 62.6815C95.039 62.6815 95.1927 62.7128 95.3357 62.7736C95.4787 62.8343 95.6079 62.9233 95.7157 63.0351L102.226 69.7792C102.383 69.9428 102.488 70.1489 102.529 70.3719C102.57 70.595 102.545 70.8252 102.456 71.034C102.368 71.2427 102.22 71.421 102.031 71.5465C101.842 71.6719 101.62 71.7392 101.394 71.7399H98.7651V78.4964H104.383V85.664H102.021C101.795 85.6647 101.573 85.732 101.384 85.8574C101.195 85.9829 101.047 86.1611 100.959 86.3698C100.87 86.5786 100.845 86.8088 100.886 87.0318C100.927 87.2549 101.032 87.461 101.189 87.6246L107.699 94.3688C107.807 94.4806 107.936 94.5694 108.079 94.6302C108.222 94.6909 108.376 94.7223 108.531 94.7223C108.687 94.7223 108.84 94.6909 108.983 94.6302C109.126 94.5694 109.255 94.4806 109.363 94.3688L115.873 87.6246C116.031 87.4614 116.138 87.2553 116.18 87.0318C116.221 86.8084 116.196 86.5776 116.107 86.3684C116.019 86.1591 115.87 85.9807 115.68 85.8554C115.491 85.7301 115.268 85.6636 115.041 85.664H112.146V78.4964H120.911C123.392 78.4964 125.773 77.5105 127.527 75.7556C129.282 74.0007 130.268 71.6207 130.268 69.1389C130.268 66.6572 129.282 64.277 127.527 62.5221C125.773 60.7673 123.392 59.7814 120.911 59.7814V59.7715Z" fill="#07ACEE"/>
<path d="M108.53 95.0864C108.325 95.0869 108.121 95.0456 107.932 94.9651C107.743 94.8846 107.572 94.7666 107.429 94.6181L100.919 87.8739C100.712 87.6575 100.572 87.3849 100.518 87.0898C100.463 86.7947 100.497 86.49 100.614 86.2138C100.731 85.9376 100.927 85.7019 101.177 85.536C101.427 85.37 101.721 85.2813 102.021 85.2805H104.014V78.8603H98.3882V71.3564H101.393C101.546 71.3564 101.696 71.3112 101.824 71.2264C101.952 71.1417 102.053 71.0213 102.113 70.88C102.173 70.7387 102.19 70.5828 102.162 70.4318C102.134 70.2809 102.062 70.1415 101.956 70.031L95.4459 63.2844C95.2962 63.1359 95.0938 63.0526 94.8829 63.0526C94.672 63.0526 94.4696 63.1359 94.3199 63.2844L87.8025 70.031C87.6959 70.1415 87.6242 70.2809 87.5963 70.4318C87.5684 70.5828 87.5855 70.7387 87.6455 70.88C87.7055 71.0213 87.8058 71.1417 87.9339 71.2264C88.0619 71.3112 88.212 71.3564 88.3655 71.3564H91.3552V78.8603H81.041C79.299 78.8295 77.5861 78.4073 76.0293 77.625C74.4725 76.8427 73.1116 75.7203 72.0472 74.3409C70.9828 72.9615 70.2423 71.3604 69.8804 69.6561C69.5185 67.9518 69.5445 66.1878 69.9565 64.4949C70.3684 62.802 71.1558 61.2234 72.2604 59.876C73.365 58.5286 74.7584 57.4468 76.3376 56.7107C77.9168 55.9746 79.6413 55.6031 81.3835 55.6237C83.1257 55.6442 84.841 56.0562 86.4024 56.8293C87.5187 53.0609 89.895 49.79 93.1338 47.5635C96.3726 45.3371 100.278 44.29 104.196 44.5975C108.114 44.905 111.808 46.5484 114.66 49.2529C117.512 51.9573 119.349 55.5588 119.864 59.4552C121.162 59.3191 122.474 59.4457 123.723 59.8273C124.971 60.2089 126.13 60.8378 127.13 61.6765C128.13 62.5152 128.952 63.5465 129.545 64.7092C130.139 65.8718 130.492 67.142 130.585 68.4441C130.677 69.7462 130.507 71.0537 130.083 72.2885C129.66 73.5234 128.993 74.6604 128.121 75.632C127.249 76.6037 126.191 77.39 125.009 77.9442C123.827 78.4984 122.546 78.809 121.241 78.8578H112.522V85.278H115.043C115.343 85.2776 115.637 85.3657 115.888 85.5315C116.139 85.6972 116.335 85.9331 116.453 86.2098C116.57 86.4865 116.604 86.7917 116.549 87.0872C116.494 87.3827 116.353 87.6555 116.144 87.8715L109.634 94.6155C109.492 94.7649 109.321 94.8838 109.131 94.9648C108.941 95.0457 108.737 95.0871 108.53 95.0864ZM102.021 86.0279C101.867 86.0279 101.717 86.073 101.589 86.1577C101.461 86.2424 101.361 86.363 101.301 86.5043C101.241 86.6456 101.223 86.8015 101.251 86.9524C101.279 87.1034 101.351 87.2428 101.458 87.3533L107.967 94.0998C108.117 94.2483 108.32 94.3316 108.53 94.3316C108.741 94.3316 108.944 94.2483 109.094 94.0998L115.603 87.3533C115.71 87.2428 115.782 87.1034 115.81 86.9524C115.838 86.8015 115.82 86.6456 115.76 86.5043C115.7 86.363 115.6 86.2424 115.472 86.1577C115.344 86.073 115.194 86.0279 115.04 86.0279H111.772V78.1129H120.898C123.28 78.1129 125.565 77.1663 127.25 75.4816C128.935 73.7968 129.881 71.5118 129.881 69.1291C129.881 66.7465 128.935 64.4613 127.25 62.7766C125.565 61.0918 123.28 60.1453 120.898 60.1453C120.457 60.1458 120.016 60.1774 119.58 60.24L119.193 60.2973L119.154 59.9111C118.734 56.1073 116.998 52.5698 114.246 49.9104C111.494 47.2509 107.899 45.6367 104.083 45.3468C100.267 45.0568 96.4699 46.1094 93.3478 48.3226C90.2258 50.5358 87.9752 53.7704 86.9853 57.4671L86.8633 57.928L86.4447 57.6989C84.9911 56.9032 83.3748 56.4503 81.7194 56.3747C80.064 56.2992 78.4133 56.603 76.8932 57.2629C75.3731 57.9228 74.024 58.9212 72.9488 60.1822C71.8736 61.4431 71.1007 62.9331 70.6893 64.5384C70.2779 66.1436 70.2388 67.8216 70.575 69.4443C70.9112 71.067 71.6138 72.5913 72.6291 73.901C73.6444 75.2106 74.9456 76.271 76.4333 77.0009C77.9209 77.7309 79.5558 78.1113 81.2129 78.1129H81.7635H90.6028V72.1038H88.3606C88.0605 72.103 87.7673 72.0141 87.5172 71.8482C87.2672 71.6823 87.0714 71.4466 86.9541 71.1704C86.8369 70.8942 86.8033 70.5896 86.8575 70.2945C86.9118 69.9994 87.0515 69.7267 87.2594 69.5102L93.7817 62.7662C93.9244 62.6182 94.0955 62.5005 94.2847 62.4201C94.4739 62.3397 94.6773 62.2982 94.8829 62.2982C95.0885 62.2982 95.2919 62.3397 95.4811 62.4201C95.6703 62.5005 95.8414 62.6182 95.9841 62.7662L102.501 69.5102C102.709 69.7267 102.849 69.9994 102.903 70.2945C102.958 70.5896 102.924 70.8942 102.807 71.1704C102.689 71.4466 102.494 71.6823 102.244 71.8482C101.994 72.0141 101.7 72.103 101.4 72.1038H99.1431V78.1129H104.764V86.0279H102.021Z" fill="#1D1E1B"/>
<path d="M169.73 53.2917C169.515 53.2915 169.301 53.3064 169.089 53.3365C168.89 51.5255 168.065 49.8411 166.755 48.5746C165.445 47.3082 163.734 46.5394 161.918 46.4014C160.101 46.2633 158.293 46.7647 156.807 47.8187C155.321 48.8727 154.25 50.413 153.78 52.1731C153.08 51.7919 152.303 51.5755 151.507 51.5404C150.711 51.5053 149.918 51.6525 149.187 51.9706C148.457 52.2888 147.809 52.7695 147.292 53.3763C146.776 53.983 146.405 54.6998 146.208 55.4717C146.011 56.2436 145.992 57.0503 146.154 57.8304C146.316 58.6105 146.654 59.3432 147.142 59.9729C147.63 60.6025 148.256 61.1123 148.971 61.4634C149.686 61.8145 150.472 61.9977 151.269 61.9989H155.816V58.8548H154.592C154.487 58.8551 154.383 58.8243 154.295 58.7661C154.206 58.7079 154.137 58.625 154.096 58.5277C154.054 58.4304 154.042 58.3231 154.062 58.2191C154.081 58.1151 154.13 58.0191 154.204 57.9431L157.233 54.8039C157.283 54.7519 157.343 54.7105 157.41 54.6822C157.477 54.6539 157.548 54.6393 157.62 54.6393C157.693 54.6393 157.764 54.6539 157.831 54.6822C157.898 54.7105 157.958 54.7519 158.008 54.8039L161.037 57.9431C161.111 58.0191 161.16 58.1151 161.179 58.2191C161.199 58.3231 161.187 58.4304 161.145 58.5277C161.104 58.625 161.035 58.7079 160.946 58.7661C160.858 58.8243 160.754 58.8551 160.649 58.8548H159.425V61.9989H162.044V65.3348H160.945C160.84 65.3351 160.737 65.3663 160.649 65.4246C160.561 65.483 160.492 65.5659 160.451 65.6631C160.41 65.7602 160.398 65.8674 160.417 65.9712C160.436 66.0749 160.486 66.1708 160.559 66.2467L163.586 69.3857C163.636 69.4378 163.696 69.4792 163.763 69.5075C163.83 69.5358 163.901 69.5504 163.973 69.5504C164.046 69.5504 164.117 69.5358 164.184 69.5075C164.25 69.4792 164.311 69.4378 164.361 69.3857L167.39 66.2467C167.464 66.1708 167.513 66.0749 167.532 65.9712C167.551 65.8674 167.54 65.7602 167.499 65.6631C167.457 65.5659 167.389 65.483 167.301 65.4246C167.213 65.3663 167.11 65.3351 167.004 65.3348H165.656V61.9989H169.735C170.315 62.0128 170.893 61.9105 171.433 61.698C171.973 61.4854 172.466 61.1669 172.881 60.7613C173.297 60.3556 173.627 59.871 173.852 59.3359C174.078 58.8008 174.194 58.2259 174.194 57.6453C174.194 57.0646 174.078 56.4898 173.852 55.9547C173.627 55.4196 173.297 54.935 172.881 54.5294C172.466 54.1237 171.973 53.8052 171.433 53.5927C170.893 53.3801 170.315 53.2778 169.735 53.2917H169.73Z" fill="#4BD657"/>
<path d="M163.97 69.9236C163.848 69.924 163.726 69.8995 163.614 69.8515C163.501 69.8035 163.399 69.7331 163.315 69.6446L160.285 66.5055C160.161 66.3767 160.078 66.2144 160.045 66.0386C160.013 65.8628 160.033 65.6812 160.102 65.5166C160.172 65.352 160.289 65.2115 160.438 65.1127C160.587 65.0139 160.762 64.9612 160.941 64.9609H161.666V62.3724H159.055V58.4809H160.652C160.684 58.4812 160.716 58.4719 160.743 58.4542C160.77 58.4365 160.792 58.4111 160.804 58.3812C160.817 58.3514 160.821 58.3185 160.815 58.2866C160.809 58.2547 160.794 58.2252 160.771 58.2019L157.742 55.0652C157.727 55.0465 157.708 55.0314 157.686 55.0211C157.665 55.0107 157.641 55.0054 157.617 55.0054C157.593 55.0054 157.57 55.0107 157.548 55.0211C157.526 55.0314 157.508 55.0465 157.493 55.0652L154.463 58.2019C154.44 58.2251 154.425 58.2546 154.419 58.2866C154.414 58.3186 154.418 58.3515 154.431 58.3812C154.443 58.4115 154.464 58.4375 154.491 58.4553C154.518 58.4732 154.55 58.4821 154.583 58.4809H156.18V62.3724H150.97C150.146 62.3337 149.34 62.1134 148.61 61.7273C147.88 61.3411 147.245 60.7986 146.749 60.1384C146.253 59.4783 145.909 58.7168 145.742 57.9084C145.574 57.1 145.587 56.2646 145.78 55.4618C145.973 54.659 146.34 53.9086 146.856 53.2642C147.372 52.6199 148.024 52.0975 148.766 51.7343C149.507 51.3711 150.32 51.1761 151.145 51.1631C151.971 51.1502 152.789 51.3198 153.541 51.6596C154.113 49.9121 155.257 48.408 156.788 47.3899C158.319 46.3717 160.148 45.8988 161.981 46.0473C163.813 46.1958 165.543 46.9571 166.89 48.2084C168.237 49.4598 169.123 51.1284 169.406 52.9452C169.511 52.9452 169.618 52.9452 169.723 52.9452C170.364 52.9122 171.005 53.01 171.607 53.2327C172.209 53.4554 172.76 53.7984 173.226 54.2406C173.691 54.6828 174.062 55.2151 174.315 55.8051C174.568 56.3951 174.699 57.0304 174.699 57.6725C174.699 58.3146 174.568 58.9498 174.315 59.5398C174.062 60.1298 173.691 60.6621 173.226 61.1043C172.76 61.5465 172.209 61.8895 171.607 62.1122C171.005 62.3349 170.364 62.4327 169.723 62.3997H166.03V64.9883H167.005C167.183 64.9885 167.358 65.0414 167.507 65.1402C167.656 65.239 167.773 65.3795 167.843 65.5441C167.913 65.7087 167.932 65.8901 167.9 66.066C167.867 66.2418 167.784 66.4042 167.66 66.533L164.63 69.6721C164.543 69.7563 164.439 69.8219 164.326 69.8651C164.212 69.9084 164.091 69.9283 163.97 69.9236ZM160.941 65.7083C160.908 65.7085 160.877 65.7181 160.85 65.736C160.823 65.754 160.802 65.7793 160.79 65.809C160.777 65.8388 160.774 65.8716 160.78 65.9033C160.786 65.935 160.801 65.9642 160.824 65.9874L163.851 69.1264C163.866 69.1443 163.885 69.1587 163.907 69.1686C163.928 69.1784 163.951 69.1835 163.975 69.1835C163.999 69.1835 164.022 69.1784 164.044 69.1686C164.065 69.1587 164.084 69.1443 164.1 69.1264L167.129 65.9874C167.152 65.9642 167.167 65.935 167.173 65.9033C167.179 65.8716 167.175 65.8388 167.163 65.809C167.15 65.7793 167.129 65.754 167.103 65.736C167.076 65.7181 167.044 65.7085 167.012 65.7083H165.283V61.625H169.715C170.256 61.6566 170.798 61.5774 171.308 61.3924C171.818 61.2073 172.284 60.9203 172.679 60.5487C173.074 60.1772 173.389 59.7289 173.605 59.2314C173.82 58.734 173.932 58.1978 173.934 57.6556C173.935 57.1134 173.826 56.5766 173.613 56.0781C173.399 55.5795 173.087 55.1298 172.694 54.7562C172.301 54.3827 171.836 54.0933 171.327 53.9057C170.818 53.7181 170.276 53.6363 169.735 53.6652C169.539 53.6644 169.343 53.6786 169.15 53.7075L168.766 53.7623L168.724 53.3786C168.534 51.6542 167.748 50.0503 166.501 48.8443C165.254 47.6383 163.625 46.9061 161.895 46.7746C160.166 46.643 158.444 47.1204 157.029 48.1239C155.614 49.1274 154.595 50.5941 154.147 52.27L154.025 52.7309L153.606 52.5016C152.956 52.1455 152.233 51.9428 151.493 51.9088C150.753 51.8749 150.014 52.0107 149.335 52.3059C148.655 52.6011 148.051 53.0479 147.571 53.612C147.09 54.1762 146.745 54.8427 146.561 55.5607C146.378 56.2787 146.361 57.0293 146.512 57.7549C146.663 58.4804 146.978 59.1618 147.433 59.747C147.887 60.3321 148.47 60.8056 149.136 61.1311C149.802 61.4566 150.533 61.6255 151.274 61.625H151.718H155.455V59.2283H154.605C154.426 59.2285 154.251 59.176 154.102 59.0774C153.952 58.9788 153.835 58.8384 153.765 58.6737C153.695 58.509 153.675 58.3272 153.707 58.1512C153.74 57.9751 153.823 57.8126 153.947 57.6837L156.977 54.5446C157.152 54.3719 157.388 54.275 157.633 54.275C157.879 54.275 158.115 54.3719 158.29 54.5446L161.319 57.6837C161.444 57.8126 161.527 57.9751 161.56 58.1512C161.592 58.3272 161.572 58.509 161.502 58.6737C161.432 58.8384 161.315 58.9788 161.165 59.0774C161.016 59.176 160.841 59.2285 160.662 59.2283H159.802V61.625H162.418V65.7083H160.941Z" fill="black"/>
<path d="M129.284 98.0757H65.5061C63.9926 98.0757 62.7656 99.3026 62.7656 100.816C62.7656 102.33 63.9926 103.557 65.5061 103.557H129.284C130.798 103.557 132.025 102.33 132.025 100.816C132.025 99.3026 130.798 98.0757 129.284 98.0757Z" fill="#EBEBEB"/>
<path d="M129.284 110.034H65.5061C63.9926 110.034 62.7656 111.261 62.7656 112.775C62.7656 114.288 63.9926 115.515 65.5061 115.515H129.284C130.798 115.515 132.025 114.288 132.025 112.775C132.025 111.261 130.798 110.034 129.284 110.034Z" fill="#EBEBEB"/>
<path d="M129.284 121.993H65.5061C63.9926 121.993 62.7656 123.22 62.7656 124.733C62.7656 126.247 63.9926 127.474 65.5061 127.474H129.284C130.798 127.474 132.025 126.247 132.025 124.733C132.025 123.22 130.798 121.993 129.284 121.993Z" fill="#EBEBEB"/>
<path d="M220.288 115.889H148.149C145.625 115.886 143.204 114.881 141.419 113.096C139.635 111.311 138.63 108.891 138.627 106.367V49.4248C138.63 46.9004 139.635 44.4804 141.419 42.6954C143.204 40.9104 145.625 39.9061 148.149 39.9028H220.288C222.813 39.9061 225.233 40.9104 227.018 42.6954C228.803 44.4804 229.807 46.9004 229.81 49.4248V106.367C229.807 108.891 228.803 111.311 227.018 113.096C225.233 114.881 222.813 115.886 220.288 115.889ZM148.149 40.6502C145.823 40.6529 143.592 41.5781 141.947 43.2231C140.302 44.8681 139.377 47.0985 139.374 49.4248V106.367C139.377 108.693 140.302 110.924 141.947 112.569C143.592 114.214 145.823 115.139 148.149 115.141H220.288C222.615 115.139 224.845 114.214 226.49 112.569C228.135 110.924 229.06 108.693 229.063 106.367V49.4248C229.06 47.0985 228.135 44.8681 226.49 43.2231C224.845 41.5781 222.615 40.6529 220.288 40.6502H148.149Z" fill="black"/>
<path d="M219.052 46.5049H183.266C181.522 46.5049 180.107 47.9193 180.107 49.6639V50.0724C180.107 51.8171 181.522 53.2315 183.266 53.2315H219.052C220.797 53.2315 222.211 51.8171 222.211 50.0724V49.6639C222.211 47.9193 220.797 46.5049 219.052 46.5049Z" fill="#EBEBEB"/>
<path d="M219.177 58.5879H183.391C181.647 58.5879 180.232 60.0023 180.232 61.747V62.1555C180.232 63.9001 181.647 65.3145 183.391 65.3145H219.177C220.922 65.3145 222.336 63.9001 222.336 62.1555V61.747C222.336 60.0023 220.922 58.5879 219.177 58.5879Z" fill="#EBEBEB"/>
<path d="M169.885 106.422H150.717C149.559 106.421 148.448 105.961 147.629 105.142C146.811 104.323 146.35 103.213 146.35 102.055V81.6407C146.35 80.4826 146.811 79.3722 147.629 78.5533C148.448 77.7344 149.559 77.2741 150.717 77.2734H169.885C171.043 77.2741 172.154 77.7344 172.973 78.5533C173.792 79.3722 174.252 80.4826 174.253 81.6407V102.055C174.252 103.213 173.792 104.323 172.973 105.142C172.154 105.961 171.043 106.421 169.885 106.422ZM150.717 78.0208C149.757 78.0222 148.837 78.404 148.159 79.0826C147.48 79.7612 147.098 80.6811 147.097 81.6407V102.055C147.098 103.015 147.48 103.934 148.159 104.613C148.837 105.292 149.757 105.673 150.717 105.675H169.885C170.845 105.673 171.765 105.292 172.444 104.613C173.122 103.934 173.504 103.015 173.505 102.055V81.6407C173.504 80.6811 173.122 79.7612 172.444 79.0826C171.765 78.404 170.845 78.0222 169.885 78.0208H150.717Z" fill="black"/>
<path d="M167.899 86.242H152.702C152.603 86.242 152.508 86.2026 152.438 86.1325C152.367 86.0625 152.328 85.9674 152.328 85.8683C152.328 85.7692 152.367 85.6742 152.438 85.6041C152.508 85.534 152.603 85.4946 152.702 85.4946H167.899C167.998 85.4946 168.093 85.534 168.163 85.6041C168.233 85.6742 168.273 85.7692 168.273 85.8683C168.273 85.9674 168.233 86.0625 168.163 86.1325C168.093 86.2026 167.998 86.242 167.899 86.242Z" fill="black"/>
<path d="M168.149 91.2249H152.952C152.853 91.2249 152.758 91.1855 152.688 91.1155C152.617 91.0454 152.578 90.9504 152.578 90.8512C152.578 90.7521 152.617 90.6571 152.688 90.587C152.758 90.5169 152.853 90.4775 152.952 90.4775H168.149C168.248 90.4775 168.343 90.5169 168.413 90.587C168.483 90.6571 168.523 90.7521 168.523 90.8512C168.523 90.9504 168.483 91.0454 168.413 91.1155C168.343 91.1855 168.248 91.2249 168.149 91.2249Z" fill="black"/>
<path d="M168.149 95.9583H152.952C152.853 95.9583 152.758 95.9189 152.688 95.8489C152.617 95.7788 152.578 95.6838 152.578 95.5846C152.578 95.4855 152.617 95.3905 152.688 95.3204C152.758 95.2503 152.853 95.2109 152.952 95.2109H168.149C168.248 95.2109 168.343 95.2503 168.413 95.3204C168.483 95.3905 168.523 95.4855 168.523 95.5846C168.523 95.6838 168.483 95.7788 168.413 95.8489C168.343 95.9189 168.248 95.9583 168.149 95.9583Z" fill="black"/>
<path d="M117.45 60.3322C117.278 60.3321 117.11 60.2723 116.977 60.1629C116.843 60.0534 116.752 59.901 116.718 59.7318C114.618 49.2332 105.332 48.4012 104.939 48.3713C104.841 48.3641 104.745 48.3376 104.657 48.2934C104.569 48.2491 104.491 48.188 104.426 48.1136C104.362 48.0391 104.313 47.9526 104.282 47.8592C104.251 47.7658 104.239 47.6672 104.246 47.5691C104.253 47.4709 104.28 47.3751 104.324 47.2872C104.368 47.1993 104.429 47.1209 104.504 47.0566C104.578 46.9922 104.665 46.9433 104.758 46.9124C104.852 46.8815 104.95 46.8693 105.048 46.8765C107.054 47.1092 108.992 47.7448 110.746 48.745C113.469 50.2697 116.974 53.364 118.183 59.4329C118.222 59.6271 118.182 59.8289 118.072 59.9938C117.962 60.1587 117.791 60.2732 117.597 60.3123C117.549 60.3238 117.5 60.3305 117.45 60.3322Z" fill="white"/>
<path d="M203.153 20.7199H165.285C165.086 20.7199 164.896 20.6411 164.756 20.5009C164.616 20.3608 164.537 20.1707 164.537 19.9725C164.537 19.7743 164.616 19.5842 164.756 19.4441C164.896 19.3039 165.086 19.2251 165.285 19.2251H203.153C203.351 19.2251 203.541 19.3039 203.681 19.4441C203.822 19.5842 203.9 19.7743 203.9 19.9725C203.9 20.1707 203.822 20.3608 203.681 20.5009C203.541 20.6411 203.351 20.7199 203.153 20.7199Z" fill="white"/>
<path d="M220.591 20.7199H209.38C209.182 20.7199 208.992 20.6411 208.852 20.5009C208.712 20.3608 208.633 20.1707 208.633 19.9725C208.633 19.7743 208.712 19.5842 208.852 19.4441C208.992 19.3039 209.182 19.2251 209.38 19.2251H220.591C220.789 19.2251 220.98 19.3039 221.12 19.4441C221.26 19.5842 221.339 19.7743 221.339 19.9725C221.339 20.1707 221.26 20.3608 221.12 20.5009C220.98 20.6411 220.789 20.7199 220.591 20.7199Z" fill="white"/>
<path d="M51.5537 32.1799C51.4638 32.1801 51.3768 32.1476 51.309 32.0885C51.2411 32.0294 51.1971 31.9476 51.185 31.8585C51.1327 31.5047 50.0016 23.1163 54.9843 17.2965C57.9266 13.856 62.3886 12.0648 68.2408 12C68.3395 12 68.4343 12.0385 68.5051 12.1074C68.5758 12.1763 68.6168 12.27 68.6194 12.3687C68.6201 12.4178 68.6111 12.4665 68.5929 12.5121C68.5747 12.5577 68.5478 12.5992 68.5135 12.6344C68.4793 12.6696 68.4384 12.6977 68.3934 12.7171C68.3483 12.7365 68.2998 12.7468 68.2507 12.7474C62.6253 12.8197 58.3526 14.5113 55.5449 17.7774C50.7814 23.3356 51.9025 31.6692 51.9125 31.7539C51.9195 31.8023 51.9169 31.8517 51.9048 31.8991C51.8927 31.9465 51.8713 31.9911 51.8419 32.0303C51.8125 32.0694 51.7756 32.1023 51.7334 32.1271C51.6913 32.1519 51.6446 32.1682 51.5961 32.1749C51.5822 32.1782 51.568 32.1798 51.5537 32.1799Z" fill="#1D1D1B"/>
<path d="M120.563 12.7474H85.1862C85.0871 12.7474 84.992 12.708 84.922 12.6379C84.8519 12.5678 84.8125 12.4728 84.8125 12.3737C84.8125 12.2746 84.8519 12.1796 84.922 12.1095C84.992 12.0394 85.0871 12 85.1862 12H120.563C120.662 12 120.757 12.0394 120.828 12.1095C120.898 12.1796 120.937 12.2746 120.937 12.3737C120.937 12.4728 120.898 12.5678 120.828 12.6379C120.757 12.708 120.662 12.7474 120.563 12.7474Z" fill="#1D1D1B"/>
<path d="M248.369 211.556H46.446C46.3469 211.556 46.2518 211.517 46.1817 211.447C46.1116 211.377 46.0723 211.282 46.0723 211.183C46.0723 211.084 46.1116 210.989 46.1817 210.919C46.2518 210.848 46.3469 210.809 46.446 210.809H248.369C248.468 210.809 248.564 210.848 248.634 210.919C248.704 210.989 248.743 211.084 248.743 211.183C248.743 211.282 248.704 211.377 248.634 211.447C248.564 211.517 248.468 211.556 248.369 211.556Z" fill="#1D1D1B"/>
<path d="M170.986 140.586C170.986 140.586 127.228 144.751 127.358 177.136C127.415 188.885 138.128 209.92 154.82 210.809C173.505 211.806 217.602 210.809 217.602 210.809C267.428 191.128 243.464 153.13 236.496 144.766C229.528 136.403 238.529 117.882 219.346 100.941C208.588 91.4414 175.167 98.7709 170.986 140.586Z" fill="#4BD657"/>
<path d="M207.864 97.2489C212.565 97.2489 216.663 98.5717 219.346 100.941C238.53 117.882 229.528 136.405 236.497 144.766C243.465 153.127 267.429 191.128 217.602 210.809C217.602 210.809 198.005 211.253 179.403 211.253C170.102 211.253 161.049 211.141 154.82 210.809C138.128 209.92 127.416 188.885 127.358 177.136C127.229 144.749 170.987 140.586 170.987 140.586C174.123 109.195 193.728 97.2489 207.859 97.2489H207.864ZM207.859 96.5015C199.754 96.5015 191.339 100.186 184.774 106.614C176.802 114.417 171.819 125.919 170.299 139.913C167.828 140.22 158.251 141.637 148.804 146.039C142.359 149.029 137.224 152.826 133.539 157.288C128.908 162.893 126.564 169.573 126.606 177.139C126.631 183.502 129.623 191.875 134.227 198.472C139.833 206.502 147.13 211.148 154.776 211.557C160.299 211.851 168.583 212 179.398 212C197.796 212 217.418 211.562 217.615 211.557H217.747L217.871 211.507C234.887 204.78 245.074 195.266 248.151 183.21C250.015 175.913 249.242 167.891 245.854 159.368C243.32 152.985 239.653 147.395 237.065 144.29C234.621 141.356 234.247 136.896 233.826 131.731C233.061 122.588 232.107 111.21 219.85 100.383C217.014 97.8915 212.762 96.5039 207.871 96.5039L207.859 96.5015Z" fill="black"/>
<path d="M181.228 211.706C188.131 205.57 206.062 187.154 218.83 181.534C233.349 175.146 241.872 150.773 217.285 146.406C200.16 143.366 181.587 138.219 171.885 135.374C171.528 137.48 171.231 139.715 170.993 142.078C170.993 142.078 150.465 144.034 137.572 155.671C137.293 158.521 138.008 161.899 139.849 166.135C147.4 183.557 190.085 187.042 190.085 187.042C190.085 187.042 180.568 205.341 178.679 211.577C179.516 211.637 180.363 211.676 181.228 211.706Z" fill="#25BF2C"/>
<path d="M181.289 180.104L185.911 182.159L190.918 169.505L187.228 167.923L181.289 180.104Z" fill="white"/>
<path d="M185.911 182.533C185.859 182.532 185.807 182.521 185.759 182.5L181.14 180.445C181.05 180.403 180.98 180.327 180.945 180.234C180.911 180.14 180.915 180.037 180.956 179.947L186.893 167.769C186.935 167.683 187.009 167.616 187.099 167.582C187.189 167.549 187.288 167.552 187.376 167.589L191.066 169.169C191.156 169.207 191.227 169.279 191.265 169.368C191.302 169.458 191.303 169.559 191.268 169.65L186.26 182.303C186.222 182.398 186.147 182.473 186.053 182.513C186.008 182.528 185.959 182.535 185.911 182.533ZM181.796 179.917L185.707 181.661L190.441 169.702L187.411 168.404L181.796 179.917Z" fill="#1D1D1B"/>
<path d="M164.48 145.217C174.331 142.429 208.699 131.764 213.734 148.005C221.291 172.387 188.848 167.915 180.639 165.128C172.43 162.34 164.48 145.217 164.48 145.217Z" fill="#050505"/>
<path d="M196.405 139.195C204.643 139.195 211.664 141.325 213.734 148.005C218.553 163.553 207.102 167.37 196.046 167.37C189.763 167.37 183.612 166.139 180.637 165.128C172.428 162.34 164.478 145.217 164.478 145.217C170.28 143.575 184.591 139.195 196.402 139.195H196.405ZM196.402 138.448C185.37 138.448 172.094 142.257 165.714 144.086L164.274 144.497L163.432 144.746L163.8 145.541C164.129 146.253 171.982 162.98 180.395 165.845C183.634 166.944 189.907 168.127 196.046 168.127C201.888 168.127 209.641 167.056 213.401 161.954C215.939 158.511 216.29 153.747 214.447 147.793C212.526 141.599 206.455 138.458 196.402 138.458V138.448Z" fill="#1D1E1B"/>
<path d="M186.044 182.027C186.044 182.027 184.671 189.974 191.295 193.22L199.223 171.483L191.051 169.901L186.044 182.027Z" fill="#382256"/>
<path d="M191.052 169.901L199.223 171.483L191.296 193.22C184.671 189.981 186.044 182.027 186.044 182.027L191.052 169.901ZM190.593 169.052L190.362 169.615L185.354 181.74L185.322 181.817L185.307 181.9C185.092 183.448 185.142 185.022 185.454 186.553C186.134 189.922 188.042 192.458 190.967 193.893L191.714 194.257L192.001 193.477L199.928 171.74L200.227 170.915L199.368 170.748L191.196 169.166L190.596 169.052H190.593Z" fill="#1D1E1B"/>
<path d="M156.644 144.101C148.086 140.693 131.731 149.363 143.076 161.994C154.676 174.909 181.291 180.103 181.291 180.103L187.228 167.923C187.228 167.923 177.674 152.474 156.644 144.101Z" fill="#382256"/>
<path d="M181.5 180.524L181.219 180.47C180.95 180.417 154.347 175.103 142.8 162.243C137.002 155.788 138.814 150.972 140.425 148.675C143.692 143.991 151.49 141.647 156.781 143.755C177.684 152.076 187.45 167.572 187.547 167.729L187.654 167.903L181.5 180.524ZM152.384 143.712C148.061 143.712 143.35 145.788 141.038 149.103C138.492 152.756 139.314 157.245 143.355 161.745C154.1 173.703 178.204 179.074 181.082 179.682L186.812 167.956C185.686 166.244 175.997 152.208 156.52 144.452C155.2 143.947 153.797 143.696 152.384 143.712Z" fill="#1D1E1B"/>
<path d="M190.802 192.341C190.618 192.339 190.44 192.269 190.304 192.144C186.699 188.841 186.37 182.767 186.36 182.51C186.356 182.412 186.37 182.314 186.404 182.222C186.437 182.129 186.488 182.044 186.554 181.971C186.621 181.899 186.7 181.84 186.789 181.798C186.878 181.756 186.975 181.732 187.073 181.728C187.171 181.723 187.269 181.738 187.361 181.771C187.454 181.805 187.539 181.856 187.611 181.922C187.684 181.988 187.743 182.068 187.785 182.157C187.827 182.246 187.85 182.342 187.855 182.44C187.855 182.495 188.171 188.158 191.318 191.043C191.428 191.144 191.506 191.277 191.54 191.423C191.574 191.569 191.564 191.721 191.51 191.861C191.457 192.001 191.362 192.122 191.239 192.208C191.116 192.293 190.97 192.34 190.82 192.341H190.802Z" fill="white"/>
<path d="M202.652 100.527C202.566 100.527 202.482 100.497 202.415 100.442C202.348 100.386 202.303 100.31 202.286 100.225C202.27 100.14 202.283 100.052 202.325 99.9754C202.366 99.8993 202.433 99.8398 202.513 99.8073C204.382 98.9951 206.094 97.8608 207.57 96.4564C210.585 93.5166 211.432 90.086 210.089 86.2618C208.746 82.4376 206.103 79.9338 202.234 78.8874C200.448 78.4126 198.59 78.2699 196.753 78.4664C196.704 78.4736 196.654 78.471 196.606 78.4589C196.558 78.4467 196.512 78.4253 196.473 78.3957C196.433 78.3661 196.399 78.329 196.374 78.2864C196.348 78.2438 196.332 78.1965 196.324 78.1474C196.317 78.0984 196.32 78.0485 196.332 78.0004C196.344 77.9523 196.365 77.907 196.395 77.8672C196.425 77.8274 196.462 77.7938 196.504 77.7684C196.547 77.743 196.594 77.7262 196.643 77.719C196.75 77.7016 207.356 76.2241 210.797 86.0052C214.247 95.826 202.916 100.435 202.802 100.48C202.756 100.507 202.705 100.523 202.652 100.527Z" fill="black"/>
<path d="M197.735 97.301C202.749 97.301 206.813 93.2365 206.813 88.2226C206.813 83.2087 202.749 79.144 197.735 79.144C192.721 79.144 188.656 83.2087 188.656 88.2226C188.656 93.2365 192.721 97.301 197.735 97.301Z" fill="#382256"/>
<path d="M197.734 97.6748C195.864 97.6753 194.036 97.1211 192.481 96.0822C190.926 95.0433 189.714 93.5665 188.998 91.8386C188.283 90.1108 188.096 88.2096 188.462 86.3756C188.827 84.5415 189.728 82.8571 191.051 81.5354C192.374 80.2138 194.06 79.3143 195.894 78.9508C197.729 78.5873 199.63 78.7761 201.357 79.4933C203.084 80.2106 204.559 81.424 205.597 82.9801C206.634 84.5362 207.186 86.365 207.184 88.2351C207.176 90.7381 206.178 93.1365 204.407 94.9055C202.636 96.6745 200.237 97.6702 197.734 97.6748ZM197.734 79.5204C196.013 79.5199 194.33 80.0297 192.898 80.9855C191.467 81.9412 190.35 83.2999 189.691 84.8899C189.031 86.4798 188.858 88.2297 189.193 89.9182C189.528 91.6066 190.356 93.1578 191.572 94.3758C192.788 95.5939 194.338 96.424 196.026 96.7612C197.714 97.0984 199.464 96.9276 201.055 96.2704C202.646 95.6131 204.006 94.499 204.964 93.0687C205.922 91.6385 206.434 89.9564 206.436 88.2351C206.436 85.9255 205.52 83.7102 203.888 82.0754C202.257 80.4407 200.044 79.52 197.734 79.5154V79.5204Z" fill="#1D1E1B"/>
<path d="M191.368 94.5477C191.368 94.5477 210.975 88.992 222.742 115.766C234.626 142.81 221.578 145.384 210.836 148.286C195.751 152.364 160.012 147.125 160.012 147.125L141.195 135.363L146.295 124.79C146.295 124.79 150.635 124.808 154.957 129.025C154.957 129.025 158.483 99.5479 181.901 95.4496L191.368 94.5477Z" fill="#07ACEE"/>
<path d="M195.734 94.0695C202.194 94.0695 214.419 96.8423 222.742 115.767C234.626 142.81 221.579 145.384 210.836 148.286C206.601 149.43 200.764 149.841 194.538 149.841C178.536 149.841 160.023 147.125 160.023 147.125L141.206 135.363L146.305 124.79C146.305 124.79 150.645 124.808 154.968 129.026C154.968 129.026 158.493 99.548 181.912 95.4497L191.379 94.5578C192.808 94.2163 194.274 94.0556 195.744 94.0795L195.734 94.0695ZM195.744 93.332C194.231 93.3131 192.721 93.4762 191.247 93.8179L181.852 94.7073H181.822H181.792C176.375 95.6334 171.347 98.1221 167.325 101.867C164.051 104.887 161.248 108.781 158.994 113.442C156.857 117.916 155.329 122.656 154.45 127.536C150.334 124.105 146.492 124.048 146.318 124.048H145.849L145.645 124.474L140.545 135.045L140.254 135.648L140.822 136.004L159.639 147.768L159.771 147.85L159.926 147.873C160.112 147.9 178.678 150.596 194.555 150.596C201.623 150.596 207.171 150.065 211.048 149.016L212.002 148.767C217.707 147.24 224.172 145.511 226.898 139.835C229.444 134.531 228.313 126.564 223.442 115.48C214.972 96.2145 202.46 93.337 195.751 93.337L195.744 93.332Z" fill="black"/>
<path d="M224.682 130.605C224.682 130.605 214.345 120.999 195.119 123.251C175.894 125.503 174.058 119.287 166.569 132.14C159.08 144.993 180.672 132.195 180.672 132.195L224.682 130.605Z" fill="#0598C6"/>
<path d="M223.456 128.458C223.456 128.458 208.633 120.904 193.598 127.122L189.507 127.581L189.385 141.435L192.601 142.033C192.601 142.033 194.594 145.466 202.566 146.4C211.595 147.457 222.706 145.8 226.157 143.575C234.456 138.219 228.701 120.266 217.666 106.038" fill="#07ACEE"/>
<path d="M208.492 147.1C206.494 147.106 204.497 146.996 202.512 146.771C195.287 145.927 192.868 143.072 192.373 142.372L189.316 141.799C189.229 141.783 189.151 141.737 189.096 141.669C189.04 141.601 189.01 141.515 189.012 141.427L189.134 127.576C189.135 127.484 189.169 127.397 189.23 127.329C189.291 127.261 189.375 127.218 189.465 127.207L193.506 126.756C208.507 120.577 223.477 128.046 223.629 128.121C223.718 128.166 223.784 128.245 223.815 128.34C223.846 128.434 223.837 128.537 223.792 128.626C223.747 128.714 223.668 128.781 223.574 128.812C223.479 128.842 223.376 128.834 223.288 128.789C223.141 128.714 208.437 121.387 193.743 127.466C193.71 127.479 193.676 127.488 193.641 127.491L189.879 127.914L189.762 141.119L192.672 141.662C192.723 141.672 192.773 141.693 192.816 141.724C192.859 141.755 192.894 141.795 192.921 141.841C192.941 141.873 194.949 145.127 202.6 146.024C211.68 147.088 222.605 145.409 225.943 143.256C227.849 142.023 229.048 140.045 229.504 137.376C230.797 129.8 225.916 117.296 217.358 106.262C217.328 106.223 217.306 106.179 217.293 106.131C217.28 106.084 217.277 106.034 217.283 105.985C217.289 105.937 217.305 105.889 217.33 105.847C217.354 105.804 217.387 105.767 217.426 105.736C217.464 105.706 217.509 105.684 217.556 105.671C217.604 105.658 217.653 105.655 217.702 105.661C217.751 105.668 217.798 105.683 217.841 105.708C217.884 105.732 217.921 105.765 217.951 105.804C226.629 116.995 231.566 129.721 230.241 137.501C229.743 140.386 228.437 142.534 226.347 143.884C223.631 145.643 216.09 147.1 208.492 147.1Z" fill="black"/>
<path d="M189.292 127.875C189.292 127.875 179.576 128.102 173.524 130.14C163.352 133.568 163.061 144.368 163.061 144.368L175.418 146.837C175.418 146.837 179.299 147.313 180.194 142.046L189.486 141.463L189.292 127.875Z" fill="#FFCDB2"/>
<path d="M175.633 147.218C175.479 147.218 175.384 147.218 175.384 147.218H175.357L162.693 144.686V144.373C162.693 144.263 163.102 133.271 173.406 129.801C179.44 127.768 189.189 127.519 189.286 127.516H189.662L189.876 141.839L180.519 142.424C179.63 146.879 176.543 147.218 175.633 147.218ZM175.484 146.47C175.733 146.498 179.029 146.719 179.834 141.986L179.884 141.694L189.102 141.119L188.912 128.266C187.069 128.333 178.887 128.727 173.63 130.508C164.791 133.498 163.603 142.305 163.453 144.081L175.484 146.47Z" fill="#1D1D1B"/>
<path d="M193.451 127.675C193.451 127.675 197.024 135.516 192.834 141.609L189.929 141.029L189.861 128.074L193.451 127.675Z" fill="#0598C6"/>
<path d="M198.496 93.5541C198.496 93.5541 197.624 102.555 188.912 97.6175C188.912 97.6175 182.524 102.555 181.363 94.7149C181.363 94.7125 188.048 91.5685 198.496 93.5541Z" fill="white"/>
<path d="M184.964 99.5257C184.512 99.5279 184.065 99.4433 183.646 99.2765C182.241 98.711 181.344 97.1913 180.985 94.7648C180.972 94.6853 180.986 94.604 181.024 94.533C181.062 94.462 181.121 94.4052 181.194 94.3711C181.473 94.2416 188.11 91.1972 198.556 93.1803C198.648 93.1984 198.729 93.2497 198.785 93.3242C198.84 93.3987 198.866 93.4913 198.858 93.5839C198.843 93.7434 198.447 97.5326 195.716 98.9502C193.957 99.8645 191.675 99.5631 188.93 98.0558C188.367 98.4619 186.685 99.5257 184.964 99.5257ZM181.77 94.9442C182.109 96.9223 182.834 98.148 183.927 98.589C185.948 99.4037 188.661 97.3433 188.676 97.3234C188.734 97.2783 188.804 97.2514 188.877 97.2461C188.95 97.2408 189.023 97.2573 189.087 97.2934C191.693 98.7683 193.805 99.1047 195.37 98.29C197.301 97.2934 197.906 94.7672 198.063 93.8529C189.199 92.2534 183.075 94.421 181.78 94.9442H181.77Z" fill="black"/>
<path d="M205.075 103.877C205.078 103.18 204.516 102.612 203.82 102.609C203.123 102.606 202.557 103.17 202.554 103.867C202.551 104.565 203.113 105.133 203.809 105.135C204.506 105.138 205.072 104.575 205.075 103.877Z" fill="#51CEF4"/>
<path d="M192.774 117.645C192.777 116.947 192.215 116.38 191.519 116.377C190.823 116.374 190.256 116.937 190.253 117.635C190.25 118.332 190.812 118.9 191.509 118.903C192.205 118.906 192.772 118.343 192.774 117.645Z" fill="#51CEF4"/>
<path d="M177.31 109.357C177.312 108.66 176.75 108.092 176.054 108.089C175.358 108.086 174.791 108.65 174.788 109.347C174.785 110.045 175.348 110.613 176.044 110.615C176.74 110.618 177.307 110.055 177.31 109.357Z" fill="#51CEF4"/>
<path d="M217.712 121.78C217.715 121.082 217.153 120.514 216.456 120.512C215.76 120.509 215.193 121.072 215.191 121.77C215.188 122.467 215.75 123.035 216.446 123.038C217.142 123.041 217.709 122.477 217.712 121.78Z" fill="#51CEF4"/>
<path d="M213.159 132.788C213.162 132.09 212.6 131.523 211.904 131.52C211.207 131.517 210.641 132.08 210.638 132.778C210.635 133.476 211.197 134.043 211.893 134.046C212.59 134.049 213.156 133.486 213.159 132.788Z" fill="#51CEF4"/>
<path d="M205.882 137.954C205.885 137.256 205.322 136.688 204.626 136.685C203.93 136.683 203.363 137.246 203.361 137.943C203.358 138.641 203.92 139.209 204.616 139.212C205.312 139.214 205.879 138.651 205.882 137.954Z" fill="#51CEF4"/>
<path d="M221.358 139.49C221.361 138.792 220.799 138.224 220.103 138.222C219.407 138.219 218.84 138.782 218.837 139.48C218.834 140.177 219.396 140.745 220.093 140.748C220.789 140.751 221.356 140.187 221.358 139.49Z" fill="#51CEF4"/>
<path d="M184.653 67.8312C187.39 66.0718 188.181 62.424 186.419 59.6836C184.658 56.9433 181.011 56.1481 178.274 57.9075C175.537 59.667 174.746 63.3148 176.508 66.0551C178.27 68.7955 181.917 69.5907 184.653 67.8312Z" fill="#382256"/>
<path d="M186.707 66.7868C186.434 66.7867 186.161 66.7692 185.89 66.7345C184.865 66.6051 183.888 66.2244 183.045 65.6266C182.202 65.0288 181.52 64.2323 181.058 63.3076C180.597 62.3828 180.371 61.3585 180.401 60.3256C180.431 59.2927 180.715 58.283 181.228 57.3862C181.742 56.4895 182.469 55.7332 183.344 55.1848C184.22 54.6363 185.218 54.3125 186.249 54.2421C187.28 54.1717 188.312 54.3569 189.254 54.7812C190.197 55.2055 191.02 55.8557 191.65 56.6744C192.667 57.9916 193.12 59.6588 192.909 61.3096C192.698 62.9604 191.84 64.4599 190.524 65.4788C189.433 66.3274 188.09 66.7877 186.707 66.7868ZM186.668 54.9753C185.45 54.9747 184.266 55.3797 183.304 56.1263C182.436 56.7948 181.786 57.7057 181.437 58.7438C181.087 59.7819 181.053 60.9005 181.339 61.9579C181.625 63.0153 182.219 63.9639 183.044 64.6839C183.87 65.4038 184.891 65.8627 185.977 66.0023C187.064 66.1419 188.167 65.9561 189.148 65.4683C190.129 64.9804 190.943 64.2125 191.487 63.2618C192.031 62.3111 192.281 61.2202 192.205 60.1274C192.129 59.0346 191.73 57.9891 191.06 57.1229C190.617 56.5463 190.065 56.0631 189.434 55.7009C188.804 55.3388 188.109 55.1048 187.388 55.0126C187.148 54.9853 186.906 54.9728 186.665 54.9753H186.668Z" fill="#1D1E1B"/>
<path d="M174.001 81.6448C174.001 81.6448 169.295 78.9193 170.312 74.9681C171.328 71.0168 172.33 71.1488 172.728 69.0312C173.127 66.9135 176.271 64.2603 179.674 64.5717C179.674 64.5717 183.087 60.8048 186.882 61.0415C190.676 61.2781 192.273 62.7605 193.857 65.3864C195.442 68.0122 196.703 69.0711 197.873 70.8823C199.044 72.6935 201.294 77.9751 194.406 83.5159C187.517 89.0566 174.001 81.6448 174.001 81.6448Z" fill="#382256"/>
<path d="M187.666 85.9625C181.189 85.9625 174.213 82.1931 173.809 81.9763C173.608 81.8592 168.872 79.0615 169.945 74.8835C170.521 72.6413 171.099 71.6747 171.562 70.8974C171.955 70.315 172.225 69.6589 172.357 68.969C172.803 66.5923 176.074 63.9864 179.52 64.1931C180.192 63.4981 183.344 60.4561 186.901 60.6753C190.853 60.9245 192.557 62.5214 194.166 65.2021C194.887 66.3927 195.7 67.5248 196.598 68.5879C197.162 69.2575 197.688 69.9578 198.175 70.6856C199.199 72.2726 201.977 77.9104 194.627 83.8149C192.654 85.3894 190.195 85.9625 187.666 85.9625ZM174.173 81.3187C174.47 81.4806 187.579 88.5136 194.151 83.227C201.012 77.7062 198.479 72.5367 197.539 71.0842C197.068 70.3788 196.557 69.7001 196.01 69.0513C195.091 67.9592 194.259 66.7982 193.518 65.5783C192.004 63.0521 190.491 61.642 186.849 61.4153C183.281 61.1936 179.973 64.7885 179.941 64.8234L179.816 64.9629L179.629 64.9455C176.343 64.6416 173.441 67.2177 173.084 69.1011C172.939 69.8776 172.639 70.6166 172.2 71.2735C171.759 72.0085 171.203 72.9228 170.663 75.0628C169.739 78.6529 174.029 81.234 174.173 81.3187Z" fill="#1D1E1B"/>
<path d="M186.457 88.6308L184.853 93.2623C184.853 93.2623 189.125 97.2833 196.592 92.9658C196.592 92.9658 194.285 85.8555 191.651 79.5126C191.651 79.5126 194.462 78.4736 193.645 75.9449C192.827 73.4162 190.67 73.2618 189.539 74.1363C189.539 74.1363 185.199 78.1672 178.873 68.8022C178.873 68.8022 174.05 71.6224 173.736 77.066C173.422 82.5096 175.336 88.4988 179.646 89.6946C183.956 90.8905 186.457 88.6308 186.457 88.6308Z" fill="#FFCDB2"/>
<path d="M190.008 95.3229C186.553 95.3229 184.622 93.5614 184.592 93.534L184.415 93.3696L185.738 89.5529C184.592 90.1633 182.464 90.8733 179.537 90.0511C174.848 88.7532 173.047 82.3977 173.353 77.0439C173.675 71.4632 178.471 68.5957 178.675 68.4761L178.984 68.3042L179.178 68.5957C182.295 73.2071 184.858 74.4054 186.46 74.5973C188.224 74.809 189.241 73.9022 189.283 73.8648L189.308 73.845C189.659 73.581 190.068 73.4037 190.501 73.3275C190.934 73.2513 191.379 73.2783 191.799 73.4065C192.796 73.7154 193.581 74.5774 193.989 75.8305C194.654 77.8685 193.222 79.1764 192.133 79.7121C194.684 85.9055 196.922 92.7792 196.944 92.8489L197.036 93.138L196.775 93.2873C194.124 94.822 191.849 95.3229 190.008 95.3229ZM185.275 93.1429C186.132 93.8131 189.918 96.2545 196.127 92.7941C195.666 91.3964 193.591 85.1955 191.294 79.6622L191.144 79.3035L191.508 79.1689C191.608 79.1315 193.969 78.2172 193.269 76.0647C192.846 74.7617 192.111 74.2909 191.568 74.1239C191.263 74.0293 190.941 74.0077 190.627 74.0609C190.312 74.1142 190.015 74.2408 189.759 74.4304C189.287 74.8033 188.745 75.0766 188.165 75.2337C187.585 75.3909 186.978 75.4286 186.383 75.3447C183.892 75.0582 181.321 73.0328 178.752 69.3207C177.728 70.0257 174.345 72.6839 174.091 77.0936C173.789 82.3254 175.628 88.2026 179.726 89.3387C183.77 90.4622 186.097 88.4418 186.204 88.3421L187.275 87.3854L185.275 93.1429Z" fill="black"/>
<path d="M180.187 77.024C183.227 76.9841 186.844 74.8241 187.751 75.706C188.658 76.588 188.466 78.0952 186.974 78.7953C185.481 79.4954 183.912 79.7918 180.663 80.2751C177.414 80.7584 174.201 80.9677 174.186 79.179C174.171 77.3902 175.715 77.0887 180.187 77.024Z" fill="#FFB49F"/>
<path d="M193.363 80.0542C193.811 79.7635 193.939 79.1649 193.648 78.7171C193.357 78.2693 192.759 78.142 192.311 78.4327C191.863 78.7233 191.736 79.322 192.026 79.7697C192.317 80.2175 192.916 80.3449 193.363 80.0542Z" fill="#07ACEE"/>
<path d="M192.819 78.2894C193.021 78.289 193.218 78.3518 193.382 78.469C193.546 78.5862 193.67 78.7519 193.735 78.9429C193.801 79.1339 193.805 79.3404 193.747 79.5337C193.689 79.7271 193.572 79.8974 193.412 80.0208C193.243 80.151 193.035 80.2219 192.821 80.2226C192.565 80.2226 192.319 80.1208 192.138 79.9396C191.957 79.7583 191.855 79.5124 191.855 79.256C191.855 78.9997 191.957 78.7538 192.138 78.5725C192.319 78.3912 192.565 78.2894 192.821 78.2894H192.819ZM192.821 77.542C192.443 77.5402 192.074 77.6656 191.775 77.8982C191.507 78.1051 191.305 78.3871 191.197 78.7084C191.089 79.0296 191.078 79.3757 191.167 79.703C191.255 80.0302 191.439 80.324 191.694 80.547C191.949 80.7699 192.265 80.9121 192.601 80.9557C192.937 80.9992 193.279 80.9421 193.583 80.7916C193.886 80.641 194.139 80.4038 194.308 80.1099C194.477 79.8159 194.554 79.4784 194.532 79.1402C194.509 78.802 194.386 78.4781 194.179 78.2096C194.02 78.001 193.814 77.8322 193.579 77.7163C193.343 77.6005 193.084 77.5408 192.821 77.542Z" fill="black"/>
<path d="M179.16 82.8883H179.123C179.074 82.8833 179.027 82.8687 178.983 82.8453C178.94 82.822 178.902 82.7902 178.871 82.752C178.84 82.7138 178.817 82.6699 178.803 82.6227C178.789 82.5756 178.784 82.5262 178.789 82.4772L179.287 77.6565C179.298 77.5574 179.347 77.4664 179.424 77.4036C179.502 77.3407 179.601 77.3111 179.7 77.3213C179.799 77.3316 179.89 77.3809 179.953 77.4582C180.016 77.5355 180.045 77.6346 180.035 77.7337L179.537 82.5545C179.527 82.647 179.483 82.7324 179.413 82.7941C179.343 82.8559 179.253 82.8894 179.16 82.8883Z" fill="#1D1D1B"/>
<path d="M174.75 76.3112C174.682 76.3111 174.615 76.2921 174.558 76.2563C174.516 76.231 174.479 76.1977 174.45 76.1581C174.421 76.1186 174.4 76.0737 174.388 76.026C174.376 75.9784 174.374 75.9289 174.381 75.8803C174.389 75.8318 174.405 75.7851 174.431 75.7431C174.498 75.6335 176.085 73.0475 177.949 74.0764C177.995 74.0983 178.036 74.1295 178.069 74.1679C178.103 74.2063 178.128 74.2511 178.144 74.2996C178.159 74.3482 178.165 74.3995 178.16 74.4502C178.155 74.501 178.139 74.5501 178.115 74.5947C178.09 74.6393 178.056 74.6784 178.016 74.7096C177.976 74.7407 177.929 74.7633 177.88 74.7759C177.831 74.7885 177.779 74.7908 177.729 74.7828C177.678 74.7748 177.63 74.7565 177.587 74.7292C176.342 74.049 175.096 76.1094 175.071 76.1293C175.038 76.1849 174.991 76.2308 174.934 76.2626C174.878 76.2945 174.814 76.3113 174.75 76.3112Z" fill="black"/>
<path d="M183.639 75.1403C183.559 75.1408 183.481 75.1155 183.417 75.068C181.696 73.8049 180.871 74.7964 180.784 74.9135C180.724 74.9921 180.636 75.0442 180.538 75.0587C180.44 75.0731 180.341 75.0487 180.261 74.9908C180.181 74.9326 180.129 74.8454 180.114 74.7482C180.099 74.6511 180.123 74.5519 180.181 74.4726C180.51 74.0681 180.978 73.8014 181.494 73.7252C182.229 73.6106 183.024 73.8622 183.858 74.4726C183.922 74.5191 183.969 74.5844 183.993 74.6593C184.017 74.7341 184.017 74.8146 183.993 74.8895C183.968 74.9643 183.921 75.0296 183.858 75.0759C183.794 75.1223 183.718 75.1475 183.639 75.1478V75.1403Z" fill="black"/>
<path d="M185.734 64.2779C185.767 64.2779 185.799 64.2648 185.822 64.2414C185.845 64.2181 185.859 64.1864 185.859 64.1534C185.859 64.1203 185.845 64.0887 185.822 64.0653C185.799 64.0419 185.767 64.0288 185.734 64.0288C185.701 64.0288 185.669 64.0419 185.646 64.0653C185.622 64.0887 185.609 64.1203 185.609 64.1534C185.609 64.1864 185.622 64.2181 185.646 64.2414C185.669 64.2648 185.701 64.2779 185.734 64.2779Z" fill="black"/>
<path d="M188.492 63.1671C188.525 63.1671 188.556 63.154 188.58 63.1306C188.603 63.1072 188.616 63.0756 188.616 63.0425C188.616 63.0095 188.603 62.9778 188.58 62.9545C188.556 62.9311 188.525 62.918 188.492 62.918C188.459 62.918 188.427 62.9311 188.404 62.9545C188.38 62.9778 188.367 63.0095 188.367 63.0425C188.367 63.0756 188.38 63.1072 188.404 63.1306C188.427 63.154 188.459 63.1671 188.492 63.1671Z" fill="black"/>
<path d="M176.67 80.392C177.086 80.392 177.423 80.0551 177.423 79.6396C177.423 79.2241 177.086 78.8872 176.67 78.8872C176.255 78.8872 175.918 79.2241 175.918 79.6396C175.918 80.0551 176.255 80.392 176.67 80.392Z" fill="black"/>
<path d="M182.188 80.1029C182.603 80.1029 182.94 79.7661 182.94 79.3505C182.94 78.935 182.603 78.5981 182.188 78.5981C181.772 78.5981 181.436 78.935 181.436 79.3505C181.436 79.7661 181.772 80.1029 182.188 80.1029Z" fill="black"/>
<path d="M181.76 86.4035C181.593 86.4054 181.427 86.393 181.262 86.3662C181.166 86.3462 181.083 86.2896 181.028 86.2088C180.974 86.1279 180.953 86.029 180.971 85.9331C180.989 85.8372 181.043 85.752 181.122 85.6956C181.202 85.6392 181.3 85.6161 181.396 85.6312C181.461 85.6436 182.891 85.8804 183.664 84.7144C183.72 84.6359 183.805 84.5825 183.901 84.5654C183.996 84.5483 184.094 84.569 184.175 84.623C184.255 84.6769 184.311 84.7599 184.332 84.8546C184.352 84.9492 184.335 85.0482 184.284 85.1305C184.003 85.537 183.625 85.8665 183.184 86.0889C182.743 86.3114 182.254 86.4195 181.76 86.4035Z" fill="black"/>
<path d="M184.965 89.8715C184.88 89.8713 184.798 89.8426 184.732 89.7898C184.666 89.737 184.62 89.6633 184.601 89.5809C184.582 89.4985 184.592 89.4122 184.629 89.336C184.665 89.2599 184.727 89.1984 184.803 89.1616C184.845 89.1417 188.883 87.1684 189.424 84.1937C189.433 84.1447 189.451 84.0979 189.478 84.0559C189.505 84.014 189.54 83.9777 189.581 83.9492C189.622 83.9208 189.668 83.9007 189.717 83.8901C189.766 83.8795 189.816 83.8785 189.865 83.8873C189.914 83.8961 189.961 83.9146 190.003 83.9416C190.045 83.9685 190.081 84.0034 190.11 84.0444C190.138 84.0853 190.158 84.1315 190.169 84.1802C190.179 84.229 190.18 84.2792 190.171 84.3283C189.564 87.6692 185.321 89.7495 185.139 89.8367C185.084 89.8623 185.025 89.8742 184.965 89.8715Z" fill="black"/>
<path d="M191.527 77.9557C191.487 77.9558 191.448 77.9499 191.41 77.9382C191.362 77.9237 191.318 77.8999 191.279 77.8682C191.241 77.8365 191.209 77.7975 191.186 77.7535C191.163 77.7095 191.149 77.6613 191.144 77.6118C191.14 77.5622 191.145 77.5123 191.16 77.4648C191.225 77.3189 191.255 77.1602 191.248 77.0009C191.242 76.8416 191.199 76.6858 191.123 76.5456C190.817 76.0473 190.019 75.9202 190.009 75.9202C189.91 75.906 189.821 75.853 189.761 75.7728C189.701 75.6927 189.675 75.592 189.689 75.4929C189.704 75.3938 189.757 75.3044 189.837 75.2444C189.917 75.1844 190.018 75.1586 190.117 75.1728C190.164 75.1728 191.265 75.3448 191.761 76.1445C191.895 76.3776 191.975 76.6382 191.994 76.9066C192.013 77.1751 191.971 77.4443 191.871 77.694C191.847 77.7679 191.802 77.8327 191.74 77.8795C191.679 77.9264 191.604 77.9531 191.527 77.9557Z" fill="black"/>
<path d="M223.331 130.742C223.223 130.742 223.116 130.718 223.019 130.672C209.541 124.496 198.138 128.338 198.023 128.378C197.836 128.444 197.63 128.433 197.451 128.347C197.272 128.262 197.134 128.108 197.068 127.921C197.002 127.733 197.013 127.528 197.099 127.348C197.184 127.169 197.338 127.031 197.525 126.965C198.023 126.796 209.586 122.875 223.637 129.315C223.792 129.386 223.919 129.507 223.995 129.66C224.072 129.813 224.094 129.987 224.057 130.154C224.021 130.321 223.928 130.47 223.795 130.577C223.662 130.684 223.496 130.743 223.326 130.742H223.331Z" fill="white"/>
<path d="M213.742 105.48C213.629 105.48 213.518 105.455 213.416 105.406C213.314 105.356 213.225 105.285 213.154 105.196C208.991 99.9218 202.526 97.6198 202.462 97.5973C202.369 97.5646 202.284 97.514 202.211 97.4483C202.138 97.3827 202.078 97.3032 202.036 97.2146C201.994 97.126 201.969 97.03 201.964 96.9319C201.959 96.8339 201.973 96.7357 202.006 96.6431C202.038 96.5505 202.089 96.4653 202.155 96.3923C202.22 96.3193 202.3 96.2599 202.388 96.2176C202.477 96.1753 202.573 96.1508 202.671 96.1456C202.769 96.1404 202.867 96.1545 202.96 96.1872C203.241 96.2844 209.896 98.6461 214.335 104.269C214.458 104.425 214.513 104.623 214.49 104.819C214.467 105.016 214.366 105.195 214.211 105.318C214.078 105.425 213.913 105.482 213.742 105.48Z" fill="white"/>
<path d="M185.858 148.441L142.01 148.265C141.342 148.262 140.703 147.994 140.232 147.52C139.762 147.046 139.499 146.404 139.502 145.736C139.502 145.707 139.514 145.679 139.534 145.659C139.555 145.638 139.583 145.627 139.612 145.627L188.389 145.823L188.389 145.932C188.388 146.263 188.321 146.591 188.193 146.896C188.065 147.201 187.878 147.478 187.643 147.711C187.408 147.944 187.129 148.129 186.823 148.254C186.517 148.379 186.189 148.443 185.858 148.441Z" fill="#4BD657"/>
<path d="M185.823 148.819H185.81L141.963 148.645C141.583 148.644 141.206 148.567 140.856 148.421C140.505 148.274 140.187 148.06 139.919 147.79C139.652 147.52 139.44 147.2 139.296 146.848C139.152 146.497 139.078 146.12 139.08 145.74C139.08 145.676 139.093 145.613 139.118 145.555C139.143 145.496 139.179 145.443 139.225 145.399C139.268 145.352 139.321 145.316 139.38 145.292C139.439 145.268 139.502 145.257 139.566 145.259L188.725 145.453V145.937C188.722 146.702 188.417 147.435 187.874 147.976C187.332 148.516 186.598 148.819 185.833 148.819H185.823ZM139.835 146.007C139.898 146.526 140.148 147.005 140.539 147.353C140.93 147.702 141.434 147.895 141.958 147.897L185.805 148.072C186.375 148.071 186.921 147.848 187.327 147.449C187.667 147.115 187.884 146.676 187.943 146.203L139.835 146.007Z" fill="black"/>
<path d="M141.35 146.048L181.503 146.209C183.139 146.215 184.47 144.894 184.477 143.258L184.574 119.003C184.581 117.367 183.26 116.035 181.624 116.029L141.471 115.868C139.835 115.861 138.504 117.182 138.497 118.818L138.4 143.074C138.393 144.709 139.714 146.041 141.35 146.048Z" fill="#4BD657"/>
<path d="M181.475 146.59H181.46L141.31 146.428C140.425 146.423 139.579 146.068 138.956 145.441C138.333 144.813 137.984 143.964 137.986 143.08L138.084 118.826C138.085 118.388 138.173 117.954 138.342 117.55C138.511 117.145 138.758 116.778 139.07 116.47C139.381 116.161 139.75 115.917 140.156 115.751C140.561 115.585 140.996 115.501 141.434 115.503L181.585 115.662C182.469 115.666 183.316 116.021 183.939 116.649C184.562 117.277 184.911 118.126 184.908 119.011L184.811 143.266C184.807 144.149 184.453 144.993 183.828 145.616C183.203 146.238 182.357 146.589 181.475 146.59ZM141.315 145.681L181.465 145.843C182.15 145.841 182.807 145.569 183.292 145.085C183.776 144.602 184.05 143.946 184.054 143.262L184.151 119.008C184.153 118.322 183.883 117.663 183.399 117.176C182.916 116.689 182.259 116.413 181.572 116.41L141.422 116.25C140.737 116.251 140.081 116.523 139.596 117.006C139.111 117.489 138.837 118.144 138.833 118.829L138.736 143.082C138.735 143.769 139.006 144.428 139.49 144.915C139.973 145.402 140.631 145.677 141.317 145.681H141.315Z" fill="black"/>
<path d="M140.501 142.322C140.303 142.322 140.113 142.243 139.973 142.103C139.833 141.963 139.754 141.773 139.754 141.575L139.831 121.816C139.831 121.618 139.91 121.427 140.05 121.287C140.19 121.147 140.38 121.068 140.579 121.068C140.777 121.068 140.967 121.147 141.107 121.287C141.247 121.427 141.326 121.618 141.326 121.816L141.249 141.572C141.249 141.67 141.23 141.768 141.193 141.859C141.155 141.95 141.1 142.033 141.031 142.102C140.961 142.172 140.879 142.227 140.788 142.265C140.697 142.303 140.6 142.322 140.501 142.322Z" fill="white"/>
<path d="M160.928 133.406C161.748 133.406 162.413 132.741 162.413 131.921C162.413 131.101 161.748 130.436 160.928 130.436C160.108 130.436 159.443 131.101 159.443 131.921C159.443 132.741 160.108 133.406 160.928 133.406Z" fill="#4BD657"/>
<path d="M160.928 133.779C160.561 133.779 160.201 133.669 159.896 133.463C159.591 133.258 159.354 132.967 159.215 132.626C159.075 132.286 159.04 131.912 159.114 131.552C159.187 131.192 159.366 130.861 159.628 130.603C159.799 130.429 160.004 130.292 160.23 130.199C160.457 130.107 160.699 130.061 160.943 130.065C161.424 130.082 161.879 130.286 162.213 130.632C162.547 130.978 162.734 131.441 162.734 131.922C162.734 132.403 162.547 132.866 162.213 133.212C161.879 133.558 161.424 133.762 160.943 133.779H160.928ZM160.928 130.812C160.783 130.811 160.639 130.839 160.505 130.895C160.371 130.95 160.249 131.031 160.146 131.133C159.989 131.288 159.882 131.486 159.838 131.701C159.794 131.917 159.815 132.141 159.899 132.344C159.982 132.548 160.125 132.722 160.308 132.845C160.49 132.967 160.706 133.032 160.926 133.032C161.22 133.033 161.503 132.916 161.711 132.709C161.92 132.502 162.038 132.22 162.039 131.926C162.04 131.78 162.013 131.635 161.957 131.5C161.902 131.365 161.821 131.242 161.718 131.139C161.615 131.035 161.493 130.953 161.358 130.897C161.224 130.841 161.079 130.812 160.933 130.812H160.928Z" fill="black"/>
<path d="M228.097 150.825C235.245 158.797 225.736 169.989 212.606 180.447C199.477 190.906 191.402 196.529 191.402 196.529L179.93 184.356C179.93 184.356 210.322 130.997 228.097 150.825Z" fill="#382256"/>
<path d="M191.35 197.02L179.469 184.401L179.603 184.152C183.344 177.788 187.501 171.676 192.045 165.858C201.761 153.514 210.366 146.864 217.596 146.089C221.7 145.651 225.319 147.153 228.374 150.556C230.265 152.664 231.114 155.103 230.883 157.804C230.367 163.962 224.465 171.459 212.84 180.724C199.853 191.071 191.696 196.763 191.614 196.821L191.35 197.02ZM180.388 184.314L191.442 196.036C192.937 194.982 200.697 189.449 212.369 180.154C223.665 171.155 229.642 163.621 230.133 157.761C230.342 155.27 229.562 153.028 227.813 151.075C224.933 147.863 221.52 146.443 217.671 146.854C201.609 148.571 182.224 181.163 180.393 184.304L180.388 184.314Z" fill="#1D1E1B"/>
<path d="M179.971 184.304L174.9 189.084L186.374 201.255L191.445 196.476L179.971 184.304Z" fill="white"/>
<path d="M186.33 201.681C186.279 201.681 186.228 201.671 186.182 201.651C186.135 201.631 186.093 201.601 186.058 201.564L174.598 189.394C174.53 189.322 174.493 189.226 174.496 189.127C174.499 189.028 174.541 188.934 174.613 188.865L179.685 184.085C179.758 184.018 179.853 183.982 179.952 183.982C180.047 183.988 180.136 184.03 180.201 184.1L191.661 196.272C191.729 196.344 191.766 196.44 191.763 196.539C191.762 196.588 191.751 196.636 191.731 196.681C191.711 196.726 191.682 196.767 191.646 196.8L186.586 201.591C186.515 201.652 186.424 201.684 186.33 201.681ZM175.385 189.152L186.347 200.779L190.877 196.511L179.915 184.884L175.385 189.152Z" fill="#1D1D1B"/>
<path d="M174.857 189.134C174.857 189.134 166.047 190.861 164.861 195.011L179.732 210.657C179.732 210.657 183.379 210.054 186.329 201.307L174.857 189.134Z" fill="#382256"/>
<path d="M174.857 189.134L186.33 201.305C183.38 210.062 179.733 210.657 179.733 210.657L164.862 195.014C166.048 190.863 174.857 189.137 174.857 189.137V189.134ZM175.119 188.325L174.713 188.404C174.337 188.477 165.44 190.27 164.144 194.807L164.027 195.218L164.321 195.53L179.192 211.173L179.464 211.459L179.855 211.395C179.972 211.375 181.038 211.165 182.446 209.798C184.232 208.054 185.777 205.288 187.037 201.546L187.182 201.123L186.873 200.796L175.413 188.624L175.131 188.325H175.119Z" fill="#1D1E1B"/>
<path d="M179.983 208.697C179.824 208.697 179.67 208.648 179.542 208.555C179.414 208.462 179.318 208.331 179.269 208.181C179.22 208.03 179.22 207.868 179.269 207.718C179.318 207.568 179.413 207.437 179.542 207.344C183.231 204.668 183.426 201.218 183.431 201.073C183.439 200.875 183.526 200.689 183.671 200.555C183.817 200.421 184.01 200.35 184.208 200.358C184.405 200.366 184.591 200.451 184.725 200.595C184.859 200.74 184.931 200.931 184.925 201.128C184.925 201.302 184.724 205.433 180.421 208.555C180.293 208.647 180.14 208.697 179.983 208.697Z" fill="white"/>
<path d="M243.235 178.651C243.192 178.655 243.15 178.655 243.107 178.651C243.011 178.635 242.918 178.599 242.835 178.547C242.752 178.494 242.68 178.426 242.623 178.346C242.566 178.265 242.526 178.175 242.504 178.079C242.483 177.983 242.48 177.884 242.497 177.787C244.739 164.854 236.854 150.546 236.767 150.404C236.719 150.319 236.688 150.224 236.677 150.127C236.666 150.029 236.673 149.93 236.7 149.836C236.727 149.741 236.772 149.653 236.833 149.576C236.894 149.499 236.969 149.435 237.055 149.387C237.14 149.339 237.235 149.308 237.332 149.297C237.43 149.285 237.529 149.293 237.623 149.32C237.718 149.346 237.806 149.391 237.883 149.452C237.96 149.513 238.025 149.589 238.072 149.674C238.409 150.277 246.294 164.58 243.964 178.043C243.932 178.214 243.842 178.367 243.708 178.478C243.575 178.589 243.408 178.65 243.235 178.651Z" fill="white"/>
<path d="M240.647 201.591C240.566 201.591 240.488 201.564 240.423 201.515C240.359 201.466 240.312 201.398 240.29 201.32C240.268 201.242 240.271 201.159 240.3 201.084C240.329 201.008 240.382 200.944 240.45 200.901C247.79 196.345 250.47 189.862 251.412 185.226C252.042 182.232 252.149 179.152 251.726 176.122C251.717 176.073 251.718 176.023 251.729 175.974C251.739 175.925 251.759 175.879 251.788 175.838C251.816 175.797 251.853 175.762 251.895 175.735C251.937 175.709 251.983 175.69 252.032 175.681C252.082 175.672 252.132 175.673 252.181 175.684C252.229 175.695 252.275 175.715 252.316 175.743C252.357 175.772 252.392 175.808 252.419 175.85C252.446 175.892 252.465 175.939 252.473 175.988C252.503 176.155 253.221 180.166 252.16 185.348C251.178 190.136 248.423 196.833 240.841 201.541C240.783 201.576 240.715 201.593 240.647 201.591Z" fill="#1D1D1B"/>
<path d="M244.526 77.5994L245.296 73.5909C245.465 72.7039 246.365 72.096 247.344 72.2007L250.729 72.5744C251.726 72.684 252.451 73.5061 252.344 74.4229L250.271 92.1115C250.202 92.5395 249.981 92.9282 249.648 93.206C249.315 93.4839 248.893 93.6322 248.46 93.6237L242.481 93.7183C241.267 93.7382 240.366 92.7019 240.659 91.6256L244.506 77.7214C244.515 77.6812 244.522 77.6405 244.526 77.5994Z" fill="#07ACEE"/>
<path d="M247.12 72.1881C247.195 72.1881 247.27 72.1882 247.344 72.2006L250.73 72.5743C251.727 72.6839 252.452 73.5061 252.344 74.4229L250.272 92.1114C250.203 92.5394 249.981 92.9281 249.649 93.206C249.316 93.4839 248.894 93.6321 248.461 93.6236L242.481 93.7183H242.449C241.251 93.7183 240.369 92.6919 240.66 91.6256L244.507 77.7214C244.519 77.6813 244.528 77.6406 244.534 77.5993L245.304 73.5908C245.399 73.1822 245.632 72.819 245.965 72.5633C246.297 72.3075 246.708 72.1749 247.128 72.1881H247.12ZM247.128 71.4407C246.534 71.4263 245.955 71.6189 245.488 71.9853C245.021 72.3517 244.696 72.869 244.569 73.4487L243.802 77.4598L243.787 77.5221L239.958 91.4337C239.863 91.7787 239.849 92.1411 239.919 92.4922C239.988 92.8432 240.138 93.1734 240.356 93.4567C240.607 93.7762 240.927 94.034 241.293 94.2102C241.659 94.3864 242.06 94.4764 242.466 94.4732H242.511L248.49 94.3786C249.105 94.383 249.7 94.1656 250.166 93.7666C250.633 93.3675 250.94 92.8134 251.032 92.2061L253.104 74.5175C253.139 74.2123 253.113 73.9032 253.027 73.6082C252.942 73.3132 252.799 73.038 252.606 72.7985C252.165 72.257 251.527 71.9121 250.832 71.8393L247.447 71.4682C247.345 71.4562 247.242 71.4503 247.14 71.4507L247.128 71.4407Z" fill="black"/>
<path d="M225.324 79.9586L227.377 65.3793C227.487 64.5964 227.756 63.8444 228.168 63.1695C228.58 62.4947 229.126 61.9112 229.772 61.4554C230.994 60.59 232.504 60.2327 233.984 60.4589L249.929 62.8979C250.046 62.9161 250.159 62.9574 250.26 63.0193C250.361 63.0813 250.449 63.1627 250.519 63.2588C250.588 63.355 250.638 63.464 250.665 63.5795C250.692 63.695 250.696 63.8149 250.676 63.9319L246.638 88.4567L225.686 80.8082C225.555 80.7121 225.452 80.5825 225.389 80.433C225.325 80.2836 225.303 80.1196 225.324 79.9586Z" fill="white"/>
<path d="M233.118 60.3968C233.411 60.3969 233.703 60.4194 233.992 60.4641L249.937 62.9031C250.054 62.9213 250.167 62.9626 250.268 63.0245C250.369 63.0865 250.457 63.1679 250.527 63.2641C250.596 63.3602 250.646 63.4692 250.673 63.5847C250.7 63.7002 250.704 63.8201 250.684 63.9371L246.646 88.4619L225.694 80.8134C225.562 80.7172 225.458 80.5869 225.394 80.4364C225.33 80.286 225.308 80.1209 225.33 79.9589L227.383 65.3795C227.577 63.9977 228.264 62.7326 229.317 61.8171C230.369 60.9015 231.718 60.3971 233.113 60.3968H233.118ZM233.113 59.6494C231.536 59.6479 230.012 60.2166 228.822 61.2504C227.631 62.2843 226.855 63.7135 226.636 65.2749L224.583 79.8568C224.541 80.1531 224.58 80.4552 224.698 80.7305C224.815 81.0058 225.005 81.2438 225.248 81.4189C225.303 81.4609 225.364 81.4936 225.43 81.5159L246.382 89.1644C246.462 89.1934 246.546 89.2086 246.631 89.2093C246.763 89.2102 246.894 89.1749 247.007 89.1071C247.102 89.0518 247.184 88.9763 247.246 88.8858C247.309 88.7954 247.35 88.6923 247.368 88.5839L251.407 64.0591C251.443 63.8442 251.435 63.6242 251.386 63.4121C251.336 63.2 251.244 62.9999 251.116 62.8234C250.988 62.647 250.826 62.4979 250.64 62.3845C250.454 62.2712 250.247 62.196 250.032 62.1633L234.087 59.7242C233.757 59.6741 233.424 59.6491 233.091 59.6494H233.113Z" fill="black"/>
<path d="M242.267 75.2924C242.267 75.2924 246.352 76.9242 246.557 76.7199C246.709 76.5679 246.631 67.1059 246.584 62.3873L241.15 61.5576L242.267 75.2924Z" fill="#EBEBEB"/>
<path d="M241.76 49.8687H222.746C221.399 49.8687 220.307 50.9607 220.307 52.3077V75.4049C220.307 76.752 221.399 77.844 222.746 77.844H241.76C243.107 77.844 244.199 76.752 244.199 75.4049V52.3077C244.199 50.9607 243.107 49.8687 241.76 49.8687Z" fill="white"/>
<path d="M241.769 49.8685C242.089 49.8685 242.406 49.9316 242.702 50.0543C242.998 50.1769 243.266 50.3565 243.493 50.5831C243.719 50.8096 243.898 51.0785 244.021 51.3744C244.143 51.6703 244.206 51.9874 244.205 52.3075V75.4072C244.205 76.0534 243.949 76.6732 243.492 77.1301C243.035 77.587 242.415 77.8438 241.769 77.8438H222.745C222.425 77.8441 222.108 77.7813 221.812 77.659C221.516 77.5367 221.247 77.3574 221.021 77.1311C220.794 76.9048 220.614 76.636 220.492 76.3402C220.369 76.0445 220.306 75.7274 220.306 75.4072V52.3075C220.306 51.6607 220.563 51.0402 221.02 50.5828C221.478 50.1254 222.098 49.8685 222.745 49.8685H241.769ZM241.769 49.1211H222.745C221.9 49.1224 221.091 49.4585 220.493 50.0558C219.896 50.6531 219.56 51.4628 219.559 52.3075V75.4072C219.56 76.2517 219.896 77.0612 220.493 77.658C221.091 78.2549 221.901 78.5905 222.745 78.5912H241.769C242.613 78.5905 243.423 78.2549 244.02 77.6579C244.617 77.061 244.952 76.2514 244.953 75.4072V52.3075C244.952 51.4631 244.617 50.6533 244.02 50.056C243.423 49.4586 242.613 49.1224 241.769 49.1211Z" fill="black"/>
<path d="M215.623 73.8946L218.266 92.7392C218.313 93.0811 218.483 93.3943 218.743 93.621C219.003 93.8477 219.336 93.9725 219.681 93.9723L248.03 94.0272C248.408 94.0272 248.771 93.878 249.04 93.6121C249.309 93.3462 249.462 92.9851 249.465 92.6071L249.637 75.7781C249.639 75.587 249.603 75.3974 249.531 75.2206C249.458 75.0437 249.351 74.8832 249.216 74.7484C249.081 74.6135 248.92 74.507 248.743 74.4352C248.566 74.3635 248.376 74.328 248.185 74.3306L235.84 74.5125C235.472 74.5196 235.115 74.385 234.844 74.1364L232.851 72.3102C232.579 72.0609 232.222 71.926 231.854 71.9339L217.001 72.2629C216.799 72.269 216.602 72.3174 216.42 72.4051C216.239 72.4927 216.078 72.6175 215.948 72.7715C215.818 72.9254 215.722 73.1049 215.666 73.2984C215.61 73.492 215.595 73.6951 215.623 73.8946Z" fill="#07ACEE"/>
<path d="M231.897 71.9316C232.256 71.9314 232.602 72.0666 232.866 72.3103L234.859 74.1365C235.124 74.3784 235.47 74.5125 235.828 74.5126H235.848L248.193 74.3307H248.213C248.402 74.3307 248.59 74.3683 248.765 74.4412C248.939 74.5141 249.098 74.621 249.231 74.7556C249.364 74.8902 249.47 75.0499 249.541 75.2254C249.612 75.401 249.647 75.5888 249.645 75.7782L249.474 92.6072C249.47 92.9849 249.318 93.3462 249.05 93.6121C248.781 93.8781 248.419 94.0273 248.041 94.0273L219.682 93.965C219.337 93.9652 219.004 93.8404 218.743 93.6137C218.483 93.387 218.314 93.0736 218.267 92.7318L215.624 73.8873C215.596 73.687 215.611 73.483 215.667 73.2888C215.724 73.0946 215.821 72.9146 215.952 72.7605C216.083 72.6064 216.245 72.4817 216.428 72.3947C216.61 72.3077 216.809 72.2602 217.011 72.2554L231.865 71.9266H231.897V71.9316ZM231.897 71.1792H231.85L216.994 71.508C216.685 71.5147 216.382 71.5869 216.103 71.7197C215.825 71.8525 215.577 72.043 215.378 72.2785C215.178 72.514 215.031 72.7892 214.946 73.0859C214.861 73.3826 214.84 73.6939 214.884 73.9994L217.527 92.8463C217.601 93.3652 217.859 93.8402 218.254 94.1846C218.65 94.529 219.155 94.7199 219.68 94.7224L248.029 94.7771C248.603 94.7765 249.154 94.55 249.563 94.1463C249.972 93.7426 250.206 93.1942 250.214 92.6197L250.385 75.7882C250.389 75.4999 250.335 75.2139 250.227 74.9466C250.119 74.6794 249.958 74.4363 249.756 74.2315C249.553 74.0266 249.311 73.8641 249.045 73.7533C248.779 73.6424 248.494 73.5855 248.205 73.5859H248.173L235.831 73.7677C235.656 73.7703 235.487 73.7061 235.358 73.5883L233.365 71.7621C232.962 71.3915 232.434 71.186 231.887 71.1866L231.897 71.1792Z" fill="black"/>
<path d="M233.071 54.9731H232.251C230.955 54.9731 229.904 56.0238 229.904 57.32V63.8572C229.904 65.1533 230.955 66.204 232.251 66.204H233.071C234.367 66.204 235.418 65.1533 235.418 63.8572V57.32C235.418 56.0238 234.367 54.9731 233.071 54.9731Z" fill="white"/>
<path d="M233.068 54.973C233.691 54.973 234.288 55.2204 234.729 55.661C235.169 56.1016 235.417 56.6992 235.417 57.3222V63.857C235.416 64.4797 235.169 65.0766 234.728 65.5167C234.288 65.9567 233.69 66.2039 233.068 66.2039H232.25C231.628 66.2039 231.031 65.9567 230.591 65.5166C230.151 65.0764 229.904 64.4795 229.904 63.857V57.3222C229.904 56.6996 230.151 56.1024 230.591 55.6619C231.031 55.2214 231.628 54.9736 232.25 54.973H233.068ZM233.068 54.2256H232.25C231.43 54.2262 230.643 54.5528 230.062 55.1334C229.482 55.7141 229.156 56.5014 229.156 57.3222V63.857C229.157 64.6775 229.483 65.4641 230.063 66.0443C230.643 66.6244 231.43 66.9506 232.25 66.9513H233.068C233.888 66.9506 234.675 66.6246 235.256 66.0445C235.836 65.4644 236.163 64.6777 236.164 63.857V57.3222C236.164 56.5011 235.837 55.7139 235.257 55.1333C234.676 54.5527 233.889 54.2262 233.068 54.2256Z" fill="black"/>
<path d="M235.453 59.6694H229.863C228.531 59.6694 227.451 60.7492 227.451 62.0811V66.4459C227.451 67.7778 228.531 68.8576 229.863 68.8576H235.453C236.785 68.8576 237.865 67.7778 237.865 66.4459V62.0811C237.865 60.7492 236.785 59.6694 235.453 59.6694Z" fill="#4BD657"/>
<path d="M235.457 69.2335H229.864C229.497 69.2345 229.134 69.1632 228.795 69.0237C228.456 68.8842 228.148 68.6793 227.888 68.4206C227.629 68.1618 227.423 67.8544 227.282 67.516C227.141 67.1775 227.069 66.8147 227.068 66.4482V62.0759C227.069 61.3374 227.363 60.6294 227.885 60.1072C228.407 59.5849 229.115 59.2912 229.854 59.2905H235.447C235.813 59.2899 236.176 59.3615 236.515 59.5011C236.853 59.6408 237.161 59.8458 237.42 60.1045C237.68 60.3631 237.886 60.6704 238.026 61.0087C238.167 61.347 238.239 61.7096 238.24 62.0759V66.4432C238.24 67.1821 237.947 67.8911 237.426 68.4143C236.904 68.9376 236.196 69.2322 235.457 69.2335ZM229.864 60.0429C229.596 60.0419 229.33 60.0938 229.082 60.1955C228.834 60.2971 228.609 60.4466 228.419 60.6353C228.228 60.8241 228.077 61.0485 227.974 61.2956C227.87 61.5428 227.817 61.8079 227.816 62.0759V66.4432C227.816 66.9835 228.031 67.5014 228.413 67.8835C228.795 68.2655 229.313 68.4805 229.854 68.4811H235.447C235.987 68.4798 236.504 68.2646 236.885 67.8826C237.267 67.5007 237.482 66.983 237.482 66.4432V62.0759C237.482 61.536 237.267 61.0184 236.885 60.6364C236.504 60.2545 235.987 60.0393 235.447 60.0379L229.864 60.0429Z" fill="black"/>
<path d="M233.067 63.9471V62.1211H231.637V63.9471C231.364 64.1045 231.151 64.3475 231.031 64.6383C230.91 64.9292 230.889 65.2517 230.971 65.5558C231.052 65.8599 231.232 66.1285 231.481 66.3201C231.731 66.5118 232.037 66.6157 232.352 66.6157C232.667 66.6157 232.973 66.5118 233.222 66.3201C233.472 66.1285 233.652 65.8599 233.733 65.5558C233.815 65.2517 233.794 64.9292 233.673 64.6383C233.553 64.3475 233.34 64.1045 233.067 63.9471Z" fill="white"/>
<path d="M232.351 66.9867C231.974 66.9874 231.605 66.8693 231.298 66.649C230.991 66.4288 230.761 66.1175 230.641 65.7594C230.52 65.4013 230.516 65.0144 230.627 64.6534C230.739 64.2924 230.961 63.9756 231.263 63.748V61.7549H233.44V63.748C233.742 63.9756 233.964 64.2924 234.076 64.6534C234.187 65.0144 234.183 65.4013 234.062 65.7594C233.942 66.1175 233.712 66.4288 233.405 66.649C233.098 66.8693 232.729 66.9874 232.351 66.9867ZM232.01 62.5023V64.169L231.823 64.2786C231.622 64.3949 231.465 64.5743 231.376 64.7891C231.287 65.004 231.271 65.2422 231.331 65.4668C231.391 65.6914 231.524 65.89 231.708 66.0315C231.893 66.1731 232.119 66.2498 232.351 66.2498C232.584 66.2498 232.81 66.1731 232.995 66.0315C233.179 65.89 233.312 65.6914 233.372 65.4668C233.432 65.2422 233.416 65.004 233.327 64.7891C233.238 64.5743 233.081 64.3949 232.88 64.2786L232.693 64.169V62.5023H232.01Z" fill="#1D1E1B"/>
<path d="M229.739 87.0295C229.618 87.0292 229.5 86.9974 229.395 86.9373L225 84.3687C224.905 84.3133 224.825 84.2356 224.766 84.1423C224.708 84.049 224.673 83.9429 224.664 83.833C224.656 83.7226 224.674 83.6117 224.717 83.5098C224.761 83.4079 224.828 83.318 224.913 83.2476L228.875 80.0088C229.015 79.8969 229.194 79.8447 229.373 79.8637C229.552 79.8827 229.716 79.9713 229.83 80.1103C229.945 80.2493 229.999 80.4275 229.983 80.6066C229.967 80.7857 229.881 80.9513 229.744 81.0676L226.543 83.691L230.088 85.7613C230.217 85.8375 230.318 85.9541 230.375 86.0933C230.431 86.2324 230.441 86.3863 230.401 86.5313C230.362 86.6763 230.276 86.8043 230.157 86.8956C230.038 86.987 229.892 87.0366 229.742 87.0369L229.739 87.0295Z" fill="#51CEF4"/>
<path d="M236.609 87.0567C236.454 87.0562 236.304 87.0034 236.183 86.9069C236.062 86.8104 235.978 86.6759 235.943 86.5251C235.909 86.3744 235.926 86.2163 235.992 86.0767C236.059 85.9372 236.171 85.8242 236.31 85.7562L240.216 83.8653L237.06 80.8358C236.927 80.7099 236.851 80.5368 236.846 80.3543C236.842 80.1719 236.91 79.9951 237.036 79.863C237.162 79.7308 237.335 79.6541 237.517 79.6496C237.7 79.6452 237.877 79.7134 238.009 79.8393L241.875 83.5489C241.955 83.6255 242.015 83.7203 242.05 83.8251C242.085 83.9298 242.095 84.0415 242.077 84.1507C242.06 84.2599 242.016 84.3632 241.95 84.4519C241.885 84.5406 241.798 84.612 241.698 84.66L236.905 86.9895C236.812 87.0335 236.711 87.0565 236.609 87.0567Z" fill="#51CEF4"/>
<path d="M231.815 88.9503C231.751 88.9498 231.687 88.9405 231.626 88.9228C231.451 88.8724 231.304 88.7551 231.216 88.5965C231.127 88.4378 231.105 88.2506 231.155 88.0758L233.895 78.4891C233.953 78.3236 234.071 78.1864 234.227 78.1056C234.382 78.0248 234.562 78.0065 234.731 78.0547C234.899 78.1029 235.043 78.2138 235.132 78.3646C235.221 78.5153 235.249 78.6946 235.211 78.8654L232.47 88.4521C232.429 88.5947 232.343 88.7203 232.225 88.8101C232.107 88.8999 231.963 88.9491 231.815 88.9503Z" fill="#51CEF4"/>
<path d="M247.792 91.5213C247.594 91.5213 247.404 91.4426 247.264 91.3025C247.124 91.1623 247.045 90.9721 247.045 90.7739V77.5374C247.045 77.3392 247.124 77.149 247.264 77.0089C247.404 76.8687 247.594 76.79 247.792 76.79C247.991 76.79 248.181 76.8687 248.321 77.0089C248.461 77.149 248.54 77.3392 248.54 77.5374V90.7739C248.54 90.9721 248.461 91.1623 248.321 91.3025C248.181 91.4426 247.991 91.5213 247.792 91.5213Z" fill="white"/>
<path d="M248.12 122.117H248.087C248.039 122.113 247.991 122.099 247.948 122.077C247.904 122.054 247.865 122.023 247.834 121.986C247.802 121.948 247.779 121.905 247.764 121.858C247.749 121.812 247.744 121.762 247.749 121.714C249.702 98.5116 238.032 88.7481 237.918 88.6509C237.844 88.5871 237.799 88.4973 237.79 88.4004C237.782 88.3035 237.812 88.2073 237.874 88.1321C237.935 88.0569 238.024 88.0086 238.12 87.9975C238.217 87.9865 238.314 88.0136 238.391 88.073C238.516 88.1726 241.473 90.6141 244.218 96.0079C246.74 100.968 249.53 109.461 248.491 121.778C248.483 121.871 248.44 121.957 248.371 122.02C248.303 122.083 248.213 122.117 248.12 122.117Z" fill="black"/>
<path d="M251.857 109.162C251.765 109.162 251.677 109.128 251.608 109.067C251.54 109.006 251.496 108.922 251.486 108.831C250.512 100.308 247.091 94.8418 247.056 94.787C247.03 94.7455 247.012 94.6992 247.004 94.6508C246.995 94.6023 246.996 94.5525 247.007 94.5045C247.018 94.4565 247.038 94.4112 247.066 94.371C247.095 94.3307 247.131 94.2965 247.172 94.2701C247.214 94.2438 247.26 94.2259 247.308 94.2175C247.357 94.209 247.407 94.2102 247.455 94.221C247.503 94.2317 247.548 94.2518 247.588 94.2801C247.628 94.3084 247.663 94.3444 247.689 94.3859C247.724 94.4432 251.234 100.041 252.228 108.746C252.239 108.845 252.211 108.943 252.149 109.021C252.088 109.098 251.998 109.148 251.899 109.16L251.857 109.162Z" fill="black"/>
<path d="M100.632 172.94L102.356 163.742C102.737 161.709 104.8 160.301 107.042 160.541L114.808 161.365C117.105 161.614 118.757 163.49 118.52 165.601L113.921 206.18C113.699 208.125 111.928 209.62 109.78 209.667L96.1003 209.934C93.315 209.989 91.2397 207.622 91.9099 205.153L100.567 173.232C100.592 173.117 100.615 173.025 100.632 172.94Z" fill="#07ACEE"/>
<path d="M106.547 160.503C106.713 160.504 106.88 160.513 107.045 160.531L114.811 161.355C117.108 161.604 118.76 163.48 118.523 165.591L113.924 206.17C113.702 208.115 111.931 209.61 109.783 209.657L96.1033 209.924H96.0087C93.2682 209.924 91.2502 207.582 91.9129 205.141L100.57 173.219C100.595 173.129 100.618 173.037 100.635 172.942L102.359 163.744C102.713 161.863 104.507 160.506 106.55 160.506L106.547 160.503ZM106.55 159.758C104.113 159.758 102.043 161.373 101.627 163.597L99.9001 172.796C99.8852 172.868 99.8702 172.942 99.8503 173.015L91.1904 204.936C91.0159 205.583 90.994 206.261 91.1262 206.917C91.2585 207.573 91.5415 208.19 91.9528 208.718C92.4358 209.33 93.0524 209.823 93.7554 210.16C94.4584 210.497 95.2292 210.668 96.0087 210.662H96.1183L109.796 210.392C112.312 210.345 114.405 208.561 114.666 206.249L119.265 165.668C119.328 165.094 119.276 164.514 119.113 163.96C118.95 163.407 118.678 162.892 118.314 162.444C117.459 161.407 116.228 160.75 114.891 160.618L107.125 159.791C106.934 159.771 106.742 159.761 106.55 159.761V159.758Z" fill="black"/>
<path d="M52.482 177.674L55.1129 144.041C55.2532 142.234 55.7624 140.475 56.6091 138.873C57.4559 137.271 58.6221 135.859 60.0358 134.725C62.7124 132.577 66.1171 131.55 69.5353 131.858L106.35 135.184C106.621 135.208 106.885 135.286 107.127 135.413C107.368 135.54 107.582 135.714 107.755 135.924C107.929 136.134 108.06 136.377 108.139 136.637C108.218 136.898 108.245 137.172 108.218 137.444L101.335 206.454C101.3 206.804 101.176 207.14 100.975 207.429C100.773 207.718 100.501 207.951 100.185 208.105C99.8679 208.259 99.517 208.329 99.1654 208.309C98.8137 208.289 98.473 208.18 98.1757 207.991L53.4337 179.59C53.1149 179.388 52.8576 179.103 52.6897 178.765C52.5219 178.427 52.4501 178.05 52.482 177.674Z" fill="white"/>
<path d="M68.3395 131.791C68.7381 131.791 69.1367 131.811 69.5354 131.846L106.35 135.172C106.622 135.196 106.886 135.274 107.127 135.401C107.368 135.528 107.582 135.702 107.756 135.912C107.929 136.122 108.06 136.364 108.139 136.625C108.219 136.886 108.246 137.16 108.218 137.431L101.335 206.441C101.284 206.952 101.045 207.425 100.665 207.769C100.285 208.113 99.7899 208.303 99.277 208.302C98.8866 208.302 98.5045 208.189 98.1758 207.979L53.4338 179.577C53.117 179.377 52.8609 179.093 52.6932 178.758C52.5255 178.423 52.4525 178.048 52.4821 177.674L55.113 144.041C55.3732 140.711 56.8794 137.602 59.331 135.333C61.7827 133.065 64.9995 131.804 68.3395 131.803V131.791ZM68.3395 131.056C64.8114 131.057 61.4133 132.388 58.8232 134.784C56.2331 137.18 54.6414 140.464 54.3656 143.981L51.7372 177.629C51.6971 178.138 51.7965 178.649 52.0247 179.106C52.253 179.563 52.6015 179.949 53.0327 180.223L97.7673 208.616C98.172 208.875 98.6363 209.025 99.1157 209.053C99.5951 209.081 100.074 208.985 100.505 208.775C100.937 208.565 101.308 208.248 101.582 207.854C101.857 207.459 102.025 207.002 102.072 206.524L108.956 137.513C108.993 137.144 108.956 136.77 108.848 136.415C108.74 136.059 108.562 135.729 108.325 135.442C108.089 135.156 107.797 134.919 107.469 134.746C107.14 134.573 106.78 134.467 106.41 134.434L69.6151 131.101C69.1965 131.063 68.773 131.043 68.352 131.043L68.3395 131.056Z" fill="black"/>
<path d="M101.547 134.736L92.6381 133.934L91.5469 172.522L102.399 174.333L101.547 134.736Z" fill="#EBEBEB"/>
<path d="M46.393 176.946L45.3541 143.211C45.2976 141.4 45.6129 139.597 46.2805 137.912C46.9481 136.228 47.9538 134.698 49.2356 133.418C51.6637 130.992 54.9371 129.6 58.3689 129.536L95.328 128.844C95.6006 128.839 95.8716 128.888 96.1252 128.988C96.3788 129.088 96.61 129.238 96.8055 129.428C97.001 129.618 97.1569 129.845 97.2642 130.096C97.3715 130.347 97.4281 130.616 97.4307 130.889L98.0809 200.246C98.0844 200.598 97.9976 200.945 97.8288 201.255C97.66 201.564 97.4147 201.825 97.1165 202.012C96.8182 202.2 96.4768 202.308 96.1249 202.326C95.773 202.345 95.4223 202.272 95.1062 202.116L47.544 178.735C47.2079 178.569 46.9233 178.316 46.7205 178C46.5177 177.685 46.4045 177.321 46.393 176.946Z" fill="white"/>
<path d="M95.3677 128.844C95.9118 128.844 96.4338 129.059 96.8202 129.442C97.2065 129.825 97.4259 130.345 97.4305 130.889L98.0807 200.246C98.085 200.598 97.9986 200.946 97.83 201.256C97.6613 201.565 97.416 201.827 97.1175 202.014C96.819 202.202 96.4773 202.31 96.1251 202.328C95.773 202.346 95.4221 202.273 95.1061 202.116L47.5438 178.735C47.2078 178.569 46.9231 178.316 46.7203 178C46.5176 177.685 46.4044 177.321 46.3928 176.946L45.3539 143.211C45.2996 141.456 45.5942 139.707 46.2208 138.067C46.8474 136.426 47.7935 134.926 49.0041 133.654C50.2148 132.382 51.666 131.363 53.2735 130.656C54.881 129.949 56.6129 129.569 58.3687 129.536L95.3278 128.844H95.3677ZM95.3677 128.096H95.3129L58.3538 128.789C56.4986 128.823 54.6687 129.225 52.9703 129.972C51.2718 130.719 49.7386 131.796 48.4597 133.14C47.1808 134.484 46.1816 136.069 45.5202 137.803C44.8587 139.536 44.5482 141.384 44.6065 143.239L45.6454 176.974C45.6607 177.484 45.815 177.981 46.0915 178.41C46.3681 178.84 46.7565 179.185 47.215 179.41L94.7772 202.787C95.1641 202.979 95.5906 203.079 96.0229 203.078C96.772 203.072 97.4883 202.77 98.016 202.239C98.2764 201.977 98.4822 201.666 98.6212 201.323C98.7602 200.981 98.8297 200.615 98.8257 200.246L98.1754 130.889C98.1682 130.148 97.8696 129.439 97.3442 128.917C96.8188 128.394 96.1087 128.099 95.3677 128.096Z" fill="black"/>
<path d="M48.4118 132.944C47.1298 134.225 46.1238 135.755 45.4558 137.44C44.7878 139.125 44.472 140.929 44.5278 142.74L44.6723 147.382C46.6977 143.951 53.093 144.938 53.093 144.938C49.7123 135.789 54.1444 130.827 56.1125 129.17C53.1989 129.542 50.4907 130.869 48.4118 132.944Z" fill="#4BD657"/>
<path d="M53.8454 130.451C51.8697 132.969 49.9041 137.401 52.0093 144.086C51.7302 144.068 51.4088 144.058 51.0625 144.058C49.2389 144.058 46.9792 144.35 45.3624 145.538L45.2752 142.715C45.1907 140.02 45.9794 137.37 47.5238 135.16C49.0683 132.95 51.2856 131.298 53.8454 130.451ZM56.1125 129.17C52.8403 129.586 49.8407 131.207 47.6988 133.716C45.5569 136.224 44.4264 139.441 44.5278 142.738L44.6723 147.382C45.9578 145.204 49.0072 144.806 51.0625 144.806C51.7416 144.803 52.42 144.847 53.093 144.938C49.7122 135.789 54.1443 130.827 56.1125 129.17Z" fill="black"/>
<path d="M88.366 148.7L55.4082 148.821C54.13 148.826 53.0975 149.866 53.1022 151.144L53.1022 151.147C53.1069 152.425 54.1469 153.457 55.4252 153.452L88.3829 153.332C89.6612 153.327 90.6936 152.287 90.6889 151.009L90.6889 151.006C90.6842 149.728 89.6442 148.696 88.366 148.7Z" fill="#EBEBEB"/>
<path d="M88.3952 156.869L55.4375 156.99C54.1593 156.995 53.1268 158.035 53.1315 159.313L53.1315 159.315C53.1362 160.594 54.1762 161.626 55.4545 161.621L88.4122 161.501C89.6905 161.496 90.7229 160.456 90.7182 159.178L90.7182 159.175C90.7135 157.897 89.6735 156.865 88.3952 156.869Z" fill="#EBEBEB"/>
<path d="M85.0502 136.101L60.5355 136.191C59.0316 136.197 57.817 137.42 57.8225 138.924L57.8225 138.927C57.828 140.431 59.0516 141.645 60.5555 141.64L85.0701 141.55C86.574 141.544 87.7887 140.321 87.7832 138.817L87.7832 138.814C87.7777 137.311 86.5541 136.096 85.0502 136.101Z" fill="#4BD657"/>
<path d="M60.5596 142.01C59.7383 142.01 58.9507 141.684 58.3699 141.103C57.7892 140.523 57.4629 139.735 57.4629 138.913C57.4629 138.092 57.7892 137.305 58.3699 136.724C58.9507 136.143 59.7383 135.817 60.5596 135.817L85.072 135.725C85.8786 135.744 86.6459 136.077 87.2108 136.654C87.7756 137.23 88.0934 138.004 88.0966 138.81C88.0999 139.617 87.7883 140.394 87.2281 140.974C86.668 141.555 85.9034 141.895 85.0969 141.921L60.582 142.01H60.5596ZM85.0744 136.472L60.5596 136.564C59.9365 136.567 59.3399 136.816 58.901 137.258C58.462 137.701 58.2167 138.299 58.219 138.922C58.2213 139.545 58.4711 140.142 58.9133 140.581C59.3555 141.02 59.954 141.265 60.5771 141.263L85.0894 141.173C85.6996 141.153 86.2781 140.897 86.7027 140.458C87.1273 140.02 87.3647 139.433 87.3647 138.823C87.3647 138.212 87.1273 137.625 86.7027 137.187C86.2781 136.748 85.6996 136.492 85.0894 136.472H85.0744Z" fill="black"/>
<path d="M34.6449 164.946L40.8733 208.121C40.9856 208.903 41.3769 209.619 41.9752 210.137C42.5735 210.654 43.3385 210.938 44.1294 210.936L109.109 210.819C109.97 210.814 110.796 210.471 111.407 209.863C112.018 209.255 112.366 208.432 112.375 207.57L112.624 168.989C112.627 168.551 112.542 168.117 112.374 167.712C112.207 167.308 111.96 166.941 111.648 166.633C111.337 166.325 110.967 166.083 110.56 165.92C110.154 165.757 109.718 165.677 109.281 165.685L80.9914 166.209C80.1511 166.224 79.3369 165.916 78.7168 165.349L74.1526 161.186C73.5266 160.614 72.7035 160.306 71.8556 160.327L37.8089 161.209C37.3469 161.221 36.8927 161.331 36.476 161.531C36.0593 161.731 35.6895 162.016 35.3909 162.369C35.0922 162.722 34.8714 163.134 34.7428 163.578C34.6143 164.022 34.5809 164.488 34.6449 164.946Z" fill="#07ACEE"/>
<path d="M71.9422 160.314C72.7617 160.315 73.5514 160.622 74.157 161.174L78.7187 165.337C79.323 165.889 80.1121 166.196 80.931 166.196H80.9933L109.282 165.673H109.345C109.778 165.673 110.206 165.759 110.606 165.925C111.005 166.091 111.368 166.335 111.673 166.642C111.978 166.949 112.219 167.314 112.383 167.714C112.546 168.115 112.629 168.544 112.626 168.977L112.377 207.558C112.368 208.423 112.019 209.249 111.404 209.858C110.79 210.466 109.96 210.808 109.096 210.809L44.1164 210.926C43.3285 210.924 42.5677 210.638 41.973 210.121C41.3783 209.604 40.9895 208.891 40.8777 208.111L34.6493 164.936C34.5834 164.477 34.6153 164.01 34.743 163.564C34.8707 163.119 35.0912 162.705 35.39 162.351C35.6889 161.997 36.0593 161.71 36.477 161.509C36.8947 161.309 37.3501 161.198 37.8133 161.186L71.8575 160.314H71.9422ZM71.9422 159.567H71.8376L37.7909 160.449C37.2219 160.463 36.6625 160.598 36.1494 160.845C35.6363 161.091 35.1812 161.443 34.814 161.878C34.4469 162.313 34.176 162.821 34.0192 163.368C33.8624 163.915 33.8233 164.489 33.9044 165.053L40.1328 208.228C40.275 209.185 40.7551 210.06 41.4863 210.693C42.2174 211.327 43.1513 211.678 44.1189 211.683L109.108 211.566C110.167 211.558 111.18 211.135 111.931 210.388C112.681 209.641 113.109 208.629 113.122 207.57L113.371 168.989C113.374 168.458 113.272 167.931 113.071 167.44C112.87 166.948 112.574 166.501 112.2 166.124C111.825 165.747 111.38 165.447 110.89 165.243C110.399 165.039 109.874 164.934 109.342 164.933H109.265L80.9758 165.456H80.9285C80.2962 165.456 79.6867 165.22 79.2194 164.794L74.6578 160.628C73.9156 159.949 72.9457 159.573 71.9397 159.574L71.9422 159.567Z" fill="black"/>
<path d="M109.603 191.984C109.405 191.984 109.215 191.905 109.075 191.765C108.935 191.625 108.856 191.435 108.856 191.237L108.781 171.134C108.781 170.936 108.86 170.746 109 170.606C109.14 170.466 109.33 170.387 109.529 170.387C109.727 170.387 109.917 170.466 110.057 170.606C110.197 170.746 110.276 170.936 110.276 171.134L110.351 191.239C110.351 191.438 110.272 191.628 110.132 191.768C109.992 191.908 109.802 191.987 109.603 191.987V191.984Z" fill="white"/>
<path d="M109.503 200.594C109.305 200.594 109.115 200.516 108.975 200.375C108.834 200.235 108.756 200.045 108.756 199.847L108.738 195.612C108.738 195.413 108.817 195.223 108.957 195.083C109.097 194.943 109.287 194.864 109.486 194.864C109.684 194.864 109.874 194.943 110.014 195.083C110.154 195.223 110.233 195.413 110.233 195.612L110.251 199.847C110.251 200.045 110.172 200.235 110.032 200.375C109.891 200.516 109.701 200.594 109.503 200.594Z" fill="white"/>
<path d="M54.6672 136.993C54.6163 136.993 54.5661 136.983 54.5194 136.962C54.4727 136.942 54.4306 136.913 54.3956 136.876C47.0461 129.111 44.941 118.271 44.4701 110.548C44.1607 105.524 44.4114 100.483 45.2175 95.5149C45.2236 95.464 45.2401 95.4148 45.2659 95.3706C45.2918 95.3264 45.3265 95.288 45.3679 95.2577C45.4092 95.2275 45.4564 95.206 45.5064 95.1947C45.5563 95.1834 45.6081 95.1826 45.6585 95.1921C45.7088 95.2017 45.7566 95.2216 45.799 95.2504C45.8413 95.2793 45.8773 95.3166 45.9046 95.3599C45.932 95.4032 45.9501 95.4518 45.9579 95.5025C45.9657 95.5531 45.963 95.6047 45.9499 95.6543C45.1582 100.567 44.9151 105.553 45.225 110.52C45.6933 118.114 47.7587 128.764 54.9412 136.363C54.9913 136.416 55.0248 136.483 55.0375 136.554C55.0502 136.626 55.0416 136.7 55.0127 136.767C54.9839 136.834 54.936 136.891 54.875 136.932C54.814 136.972 54.7426 136.993 54.6696 136.993H54.6672Z" fill="#1D1D1B"/>
<path d="M46.8098 135.247C46.7538 135.247 46.6986 135.235 46.6482 135.21C46.5977 135.186 46.5533 135.151 46.5183 135.107C39.682 126.652 39.6621 116.238 39.6621 116.133C39.6653 116.035 39.7061 115.942 39.7761 115.873C39.8461 115.804 39.94 115.764 40.0383 115.762C40.0874 115.763 40.1359 115.772 40.1811 115.792C40.2263 115.811 40.2673 115.838 40.3018 115.873C40.3363 115.908 40.3635 115.95 40.382 115.995C40.4005 116.041 40.4098 116.089 40.4095 116.138C40.4095 116.24 40.4344 126.395 47.0988 134.639C47.1439 134.693 47.1724 134.76 47.1812 134.83C47.1899 134.9 47.1784 134.971 47.1481 135.035C47.1177 135.099 47.0697 135.153 47.0098 135.19C46.9499 135.228 46.8805 135.248 46.8098 135.247Z" fill="#1D1D1B"/>
<path d="M45.4505 163.473C45.2523 163.473 45.0622 163.395 44.922 163.255C44.7819 163.114 44.7031 162.924 44.7031 162.726C44.7031 162.528 44.7819 162.338 44.922 162.198C45.0622 162.057 45.2523 161.979 45.4505 161.979L71.1114 161.73C71.3096 161.728 71.5005 161.804 71.642 161.943C71.7836 162.082 71.8643 162.271 71.8662 162.47C71.8682 162.668 71.7914 162.859 71.6526 163C71.5139 163.142 71.3245 163.222 71.1263 163.224L45.4655 163.473H45.4505Z" fill="white"/>
<path d="M36.107 204.083C36.0182 204.083 35.9321 204.052 35.8644 203.994C35.7968 203.936 35.752 203.857 35.7383 203.769L31.0048 174.371C30.9969 174.322 30.9988 174.272 31.0103 174.223C31.0218 174.175 31.0428 174.129 31.0719 174.089C31.1011 174.049 31.1379 174.015 31.1802 173.989C31.2225 173.963 31.2696 173.945 31.3187 173.937C31.3677 173.93 31.4179 173.931 31.4662 173.943C31.5146 173.954 31.5602 173.975 31.6004 174.005C31.6407 174.034 31.6748 174.07 31.7008 174.113C31.7269 174.155 31.7443 174.202 31.7522 174.251L36.4857 203.649C36.5015 203.747 36.4779 203.847 36.4199 203.927C36.362 204.008 36.2745 204.062 36.1768 204.078L36.107 204.083Z" fill="#1D1D1B"/>
<defs>
<filter id="filter0_d_10197_35015" x="-2.82277" y="75.6952" width="27.167" height="27.167" filterUnits="userSpaceOnUse" color-interpolation-filters="sRGB">
<feFlood flood-opacity="0" result="BackgroundImageFix"/>
<feColorMatrix in="SourceAlpha" type="matrix" values="0 0 0 0 0 0 0 0 0 0 0 0 0 0 0 0 0 0 127 0" result="hardAlpha"/>
<feOffset dy="1.43057"/>
<feGaussianBlur stdDeviation="3.57642"/>
<feComposite in2="hardAlpha" operator="out"/>
<feColorMatrix type="matrix" values="0 0 0 0 0 0 0 0 0 0 0 0 0 0 0 0 0 0 0.05 0"/>
<feBlend mode="normal" in2="BackgroundImageFix" result="effect1_dropShadow_10197_35015"/>
<feBlend mode="normal" in="SourceGraphic" in2="effect1_dropShadow_10197_35015" result="shape"/>
</filter>
<filter id="filter1_d_10197_35015" x="260.296" y="116.027" width="27.1709" height="27.1704" filterUnits="userSpaceOnUse" color-interpolation-filters="sRGB">
<feFlood flood-opacity="0" result="BackgroundImageFix"/>
<feColorMatrix in="SourceAlpha" type="matrix" values="0 0 0 0 0 0 0 0 0 0 0 0 0 0 0 0 0 0 127 0" result="hardAlpha"/>
<feOffset dy="1.43057"/>
<feGaussianBlur stdDeviation="3.57642"/>
<feComposite in2="hardAlpha" operator="out"/>
<feColorMatrix type="matrix" values="0 0 0 0 0 0 0 0 0 0 0 0 0 0 0 0 0 0 0.05 0"/>
<feBlend mode="normal" in2="BackgroundImageFix" result="effect1_dropShadow_10197_35015"/>
<feBlend mode="normal" in="SourceGraphic" in2="effect1_dropShadow_10197_35015" result="shape"/>
</filter>
<linearGradient id="paint0_linear_10197_35015" x1="14.3628" y1="78.6815" x2="275.328" y2="140.839" gradientUnits="userSpaceOnUse">
<stop stop-color="#CDD5E2"/>
<stop offset="1" stop-color="#CDD5E2" stop-opacity="0"/>
</linearGradient>
<linearGradient id="paint1_linear_10197_35015" x1="274.879" y1="137.251" x2="248.501" y2="206.5" gradientUnits="userSpaceOnUse">
<stop stop-color="#CDD5E2"/>
<stop offset="1" stop-color="#CDD5E2" stop-opacity="0"/>
</linearGradient>
<linearGradient id="paint2_linear_10197_35015" x1="138" y1="16.335" x2="138" y2="256.335" gradientUnits="userSpaceOnUse">
<stop stop-color="#CDD5E2"/>
<stop offset="1" stop-color="#CDD5E2" stop-opacity="0"/>
</linearGradient>
<linearGradient id="paint3_linear_10197_35015" x1="138" y1="40.335" x2="138" y2="232.335" gradientUnits="userSpaceOnUse">
<stop stop-color="#CDD5E2"/>
<stop offset="1" stop-color="#CDD5E2" stop-opacity="0"/>
</linearGradient>
</defs>
</svg>
