<svg width="217" height="161" viewBox="0 0 217 161" fill="none" xmlns="http://www.w3.org/2000/svg">
<mask id="mask0_2985_45315" style="mask-type:alpha" maskUnits="userSpaceOnUse" x="0" y="0" width="217" height="161">
<rect width="216.439" height="161" fill="#D9D9D9"/>
</mask>
<g mask="url(#mask0_2985_45315)">
<g opacity="0.5">
<mask id="path-2-inside-1_2985_45315" fill="white">
<path d="M207.986 108.034C209.061 83.3642 201.262 59.1252 186.002 39.7111C170.742 20.2971 149.032 6.9928 124.806 2.20999C100.58 -2.57283 75.442 1.48234 53.9489 13.6404C32.4558 25.7985 16.03 45.2549 7.64895 68.4826L8.09678 68.6442C16.4392 45.5235 32.7893 26.1569 54.1833 14.0548C75.5773 1.95276 100.599 -2.08372 124.714 2.67705C148.828 7.43782 170.438 20.6807 185.628 40.0053C200.818 59.3299 208.581 83.4571 207.511 108.014L207.986 108.034Z"/>
</mask>
<path d="M207.986 108.034C209.061 83.3642 201.262 59.1252 186.002 39.7111C170.742 20.2971 149.032 6.9928 124.806 2.20999C100.58 -2.57283 75.442 1.48234 53.9489 13.6404C32.4558 25.7985 16.03 45.2549 7.64895 68.4826L8.09678 68.6442C16.4392 45.5235 32.7893 26.1569 54.1833 14.0548C75.5773 1.95276 100.599 -2.08372 124.714 2.67705C148.828 7.43782 170.438 20.6807 185.628 40.0053C200.818 59.3299 208.581 83.4571 207.511 108.014L207.986 108.034Z" stroke="url(#paint0_linear_2985_45315)" stroke-width="1.51887" stroke-dasharray="2.28 2.28" mask="url(#path-2-inside-1_2985_45315)"/>
</g>
<g opacity="0.5">
<mask id="path-3-inside-2_2985_45315" fill="white">
<path d="M7.78687 138.971C16.2588 162.166 32.7606 181.558 54.3011 193.632C75.8416 205.706 100.995 209.663 125.202 204.785C149.409 199.907 171.068 186.518 186.251 167.045C201.435 147.571 209.14 123.302 207.968 98.6359L207.492 98.6585C208.659 123.211 200.99 147.368 185.876 166.752C170.762 186.136 149.204 199.463 125.108 204.318C101.013 209.173 75.9751 205.235 54.5339 193.217C33.0927 181.198 16.6669 161.896 8.23405 138.808L7.78687 138.971Z"/>
</mask>
<path d="M7.78687 138.971C16.2588 162.166 32.7606 181.558 54.3011 193.632C75.8416 205.706 100.995 209.663 125.202 204.785C149.409 199.907 171.068 186.518 186.251 167.045C201.435 147.571 209.14 123.302 207.968 98.6359L207.492 98.6585C208.659 123.211 200.99 147.368 185.876 166.752C170.762 186.136 149.204 199.463 125.108 204.318C101.013 209.173 75.9751 205.235 54.5339 193.217C33.0927 181.198 16.6669 161.896 8.23405 138.808L7.78687 138.971Z" stroke="url(#paint1_linear_2985_45315)" stroke-width="1.51887" stroke-dasharray="2.28 2.28" mask="url(#path-3-inside-2_2985_45315)"/>
</g>
<circle opacity="0.08" cx="104.804" cy="103.537" r="91.1321" fill="url(#paint2_linear_2985_45315)"/>
<circle opacity="0.1" cx="104.804" cy="103.537" r="72.9057" fill="url(#paint3_linear_2985_45315)"/>
<circle cx="104.803" cy="103.537" r="48.6038" fill="white"/>
<g filter="url(#filter0_d_2985_45315)">
<circle cx="8.17038" cy="66.715" r="3.79717" transform="rotate(-2.50406 8.17038 66.715)" fill="#0170FF"/>
<circle cx="8.17038" cy="66.715" r="4.34038" transform="rotate(-2.50406 8.17038 66.715)" stroke="white" stroke-width="1.08642"/>
</g>
<g filter="url(#filter1_d_2985_45315)">
<circle cx="207.993" cy="97.3454" r="3.79717" transform="rotate(-15.7345 207.993 97.3454)" fill="#0170FF"/>
<circle cx="207.993" cy="97.3454" r="4.34038" transform="rotate(-15.7345 207.993 97.3454)" stroke="white" stroke-width="1.08642"/>
</g>
</g>
<path d="M102.676 62.4829C102.676 62.4829 95.3839 65.8967 94.0685 60.1271C92.7531 54.3576 90.1311 45.4598 81.1563 46.7139C72.1814 47.968 66.291 49.6004 63.3064 43.9693C60.3218 38.3381 39.6608 40.9181 43.395 58.3914C49.5096 87.0272 103.436 79.5849 103.436 79.5849L106.764 73.5859L102.676 62.4829Z" fill="#382256"/>
<path d="M56.8363 41.2985C59.8419 41.2985 62.3974 42.2531 63.317 43.9696C64.9354 47.0243 67.4085 47.9403 70.7644 47.9403C73.5966 47.9403 77.0578 47.287 81.1669 46.7143C81.7158 46.6363 82.2694 46.5965 82.8238 46.5952C90.4745 46.5952 92.8495 54.7293 94.0791 60.1275C94.6816 62.7706 96.5314 63.4852 98.374 63.4852C100.544 63.4852 102.686 62.4833 102.686 62.4833L106.767 73.5933L103.439 79.5923C103.439 79.5923 97.1337 80.4681 88.6003 80.4681C72.1604 80.4681 47.4236 77.2452 43.3986 58.3988C40.8046 46.2554 49.9913 41.3055 56.838 41.3055L56.8363 41.2985ZM56.838 40.7801C53.2666 40.7801 48.3379 42.155 45.2167 46.0137C42.6279 49.212 41.8221 53.533 42.8853 58.5073C44.7086 67.0478 50.8583 73.2675 61.1643 76.9948C68.5015 79.6483 77.732 80.9935 88.6003 80.9935C93.5838 81.0062 98.5635 80.7137 103.511 80.1178L103.772 80.081L103.898 79.8515L107.226 73.8525L107.344 73.6423L107.261 73.4164L103.178 62.3082L102.982 61.7705L102.457 62.0139C102.437 62.0139 100.392 62.965 98.3687 62.965C96.2773 62.965 95.0408 61.9999 94.5871 60.0154C93.9286 57.1254 93.0212 53.801 91.2994 51.0616C89.2168 47.7529 86.3636 46.075 82.8185 46.075C82.2395 46.0758 81.6612 46.1173 81.088 46.1993C80.0984 46.3359 79.1508 46.4796 78.2348 46.6162C75.357 47.0471 72.8716 47.4201 70.7593 47.4201C67.1897 47.4201 65.1666 46.3517 63.7759 43.7297C62.7968 41.8818 60.2044 40.7783 56.8397 40.7783L56.838 40.7801Z" fill="#1D1E1B"/>
<path d="M69.4635 119.406C68.3057 140.084 71.8385 151.518 71.8385 151.518L137.696 152.326C140.134 139.657 137.15 124.357 137.15 124.357C137.15 124.357 143.084 116.593 147.72 116.595C154.912 116.595 161.107 118.125 166.082 107.331C171.056 96.536 156.203 94.5848 142.937 87.111C129.671 79.6372 111.584 80.4552 111.584 80.4552C111.584 80.4552 93.5435 75.3757 75.4274 88.9676" fill="#07ACEE"/>
<path d="M137.902 152.592L71.6414 151.779L71.5837 151.595C71.5487 151.481 68.0526 139.879 69.1998 119.391L69.7253 119.421C68.6621 138.42 71.5993 149.71 72.0354 151.259L137.469 152.061C139.795 139.625 136.912 124.562 136.883 124.408L136.86 124.29L136.932 124.197C137.177 123.875 142.999 116.331 147.709 116.331C148.518 116.331 149.318 116.351 150.094 116.37C156.205 116.519 161.479 116.648 165.832 107.22C166.872 104.96 167.058 103.03 166.417 101.321C164.988 97.5479 159.509 95.1325 153.166 92.3371C149.937 90.9131 146.276 89.2999 142.796 87.34C129.75 79.9835 111.766 80.7086 111.585 80.7174H111.543L111.501 80.7051C111.457 80.6929 106.947 79.451 100.291 79.8767C94.1503 80.2672 84.8777 82.1992 75.5823 89.1756L75.2671 88.7552C84.678 81.6948 94.0628 79.7435 100.281 79.3494C106.679 78.9448 111.14 80.0641 111.611 80.1884C112.592 80.1534 130.19 79.628 143.064 86.8793C146.519 88.827 150.01 90.3666 153.387 91.8536C159.838 94.6981 165.41 97.1538 166.918 101.137C167.618 102.985 167.42 105.048 166.317 107.442C161.828 117.184 156.389 117.051 150.091 116.901C149.318 116.881 148.514 116.862 147.716 116.862C143.53 116.862 138.11 123.563 137.427 124.43C137.697 125.888 140.258 140.392 137.953 152.381L137.902 152.592Z" fill="#1D1D1B"/>
<path d="M113.149 102.335C114.019 102.335 114.723 101.629 114.723 100.757C114.723 99.8858 114.019 99.1792 113.149 99.1792C112.279 99.1792 111.574 99.8858 111.574 100.757C111.574 101.629 112.279 102.335 113.149 102.335Z" fill="#51CEF4"/>
<path d="M111.668 44.9267C111.776 40.9311 108.629 37.6045 104.639 37.4965C100.649 37.3886 97.3273 40.5402 97.2192 44.5358C97.1111 48.5314 100.258 51.858 104.248 51.966C108.237 52.0739 111.559 48.9223 111.668 44.9267Z" fill="#382256"/>
<path d="M104.454 52.2377C103.215 52.2352 101.996 51.9262 100.906 51.3382C99.8161 50.7502 98.8884 49.9014 98.206 48.8677C97.5237 47.834 97.1079 46.6475 96.9957 45.414C96.8835 44.1805 97.0783 42.9384 97.5629 41.7986L97.8048 41.9019L97.5629 41.7986C98.0959 40.5571 98.9549 39.4829 100.049 38.6901C101.143 37.8972 102.431 37.4153 103.777 37.2952C105.123 37.1752 106.476 37.4216 107.693 38.0083C108.91 38.595 109.945 39.5001 110.69 40.6277C111.434 41.7553 111.859 43.0633 111.92 44.413C111.981 45.7627 111.676 47.1038 111.037 48.294C110.398 49.4843 109.448 50.4793 108.289 51.1736C107.13 51.8679 105.805 52.2356 104.454 52.2377ZM104.454 37.7543C102.724 37.7506 101.054 38.3895 99.7691 39.5469C98.4838 40.7044 97.6742 42.298 97.4972 44.0186C97.3203 45.7392 97.7887 47.4642 98.8116 48.859C99.8344 50.2538 101.339 51.219 103.033 51.5674C104.727 51.9159 106.49 51.6226 107.981 50.7447C109.471 49.8667 110.582 48.4665 111.099 46.8158C111.615 45.165 111.5 43.3812 110.776 41.8105C110.051 40.2398 108.77 38.994 107.179 38.3148C106.318 37.9459 105.392 37.7552 104.455 37.7543H104.454Z" fill="#1D1E1B"/>
<path d="M126.424 66.0203C126.424 66.0203 131.153 61.3368 128.731 56.9667C126.308 52.5966 125.154 53.059 124.026 50.6717C122.898 48.2843 118.349 46.1177 114.415 47.5312C114.415 47.5312 109.201 44.1192 104.782 45.5712C100.363 47.0232 98.9249 49.2739 97.8722 52.8768C96.8195 56.4797 95.6426 58.1314 94.8159 60.6309C93.9892 63.1303 92.9592 70.0997 102.84 74.5416C112.72 78.9834 126.424 66.0203 126.424 66.0203Z" fill="#382256"/>
<path d="M107.341 75.721C105.754 75.74 104.182 75.4205 102.728 74.7839C92.336 70.1126 93.8493 62.7089 94.5621 60.551C94.9098 59.5438 95.3133 58.5567 95.7708 57.5944C96.5091 56.0486 97.1256 54.4475 97.615 52.8057C98.6659 49.1923 100.169 46.8102 104.695 45.3249C108.883 43.95 113.643 46.7437 114.447 47.2516C116.278 46.6246 118.374 46.6894 120.364 47.4373C122.205 48.1274 123.662 49.2992 124.263 50.569C124.745 51.5902 125.228 52.0648 125.839 52.6709C126.62 53.4398 127.591 54.3961 128.959 56.8535C131.453 61.3462 126.657 66.1752 126.608 66.2225C124.109 68.4841 121.382 70.4799 118.471 72.1777C114.379 74.53 110.61 75.721 107.341 75.721ZM107.133 45.4791C106.36 45.4734 105.591 45.5917 104.856 45.8294C100.53 47.2499 99.1494 49.4305 98.1177 52.9581C97.6196 54.6238 96.9942 56.2487 96.2471 57.8186C95.7981 58.7634 95.4016 59.7323 95.0595 60.7209C94.3817 62.7737 92.9577 69.8184 102.941 74.3093C112.505 78.6093 125.988 66.0771 126.237 65.8406C126.351 65.725 130.779 61.2131 128.495 57.1005C127.167 54.7096 126.218 53.7831 125.468 53.0387C124.844 52.4256 124.307 51.8967 123.785 50.7932C122.751 48.6038 118.397 46.3776 114.502 47.7858L114.377 47.8314L114.269 47.7596C114.228 47.7263 110.739 45.4791 107.133 45.4791Z" fill="#1D1E1B"/>
<path d="M113.937 80.4556C113.937 80.4556 116.675 80.9058 117.09 83.4805C117.57 86.4424 114.618 90.1784 108.945 86.3163C108.945 86.3163 106.409 90.3991 101.028 86.4441C96.4743 83.097 97.2327 80.1386 101.591 79.4065C105.369 78.7637 113.937 80.4556 113.937 80.4556Z" fill="white"/>
<path d="M105.388 88.4251C103.987 88.4251 102.477 87.8313 100.869 86.649C98.5083 84.9133 97.3978 83.146 97.7464 81.6782C98.0477 80.4066 99.3963 79.5063 101.544 79.1402C105.322 78.4974 113.608 80.1176 113.98 80.1911C114.137 80.2192 116.912 80.7656 117.343 83.4315C117.611 85.0814 116.891 86.7594 115.554 87.6141C114.577 88.2359 112.44 88.9225 109.003 86.6683C108.323 87.5332 107.356 88.1264 106.276 88.341C105.984 88.3971 105.686 88.4253 105.388 88.4251ZM103.7 79.5168C103.007 79.5076 102.316 79.5551 101.631 79.6587C99.7046 79.9862 98.5066 80.7464 98.2578 81.7991C97.9618 83.0497 98.9986 84.6225 101.181 86.2252C103.015 87.5738 104.696 88.1116 106.18 87.8261C107.207 87.6195 108.115 87.0271 108.718 86.1709L108.863 85.9379L109.089 86.0921C111.541 87.763 113.741 88.1466 115.276 87.171C116.439 86.4318 117.062 84.9623 116.827 83.5138C116.447 81.1632 113.994 80.7254 113.89 80.7113C113.81 80.6973 107.805 79.5221 103.7 79.5221V79.5168Z" fill="#1D1E1B"/>
<path d="M113.569 78.5871L113.408 80.6767C113.408 80.6767 111.611 88.9211 102.741 83.2514C102.116 82.8505 101.656 82.239 101.444 81.5279C101.231 80.8168 101.281 80.0531 101.583 79.3753C102.501 77.319 103.774 73.7704 104.464 68.8083C104.464 68.8083 100.811 68.444 101.003 65.1879C101.196 61.9318 103.695 61.0928 105.307 61.7794C105.307 61.7794 111.7 65.2159 116.294 52.1582C116.294 52.1582 122.884 54.0113 124.942 60.3711C127 66.731 126.59 74.4184 121.852 77.1683C117.114 79.9182 113.569 78.5871 113.569 78.5871Z" fill="#FFCDB2"/>
<path d="M108.248 85.5048C106.608 85.5048 104.716 84.8252 102.599 83.4713C101.924 83.0342 101.427 82.3711 101.197 81.6007C100.967 80.8304 101.019 80.0032 101.343 79.2676C102.256 77.2201 103.48 73.7923 104.167 69.0247C103.291 68.8495 100.569 68.0946 100.742 65.1713C100.833 63.623 101.455 62.4179 102.494 61.7733C102.926 61.5064 103.416 61.3456 103.922 61.3042C104.429 61.2628 104.938 61.3419 105.408 61.5351H105.429C105.445 61.5351 107.043 62.3689 109.151 61.5456C111.849 60.4947 114.231 57.2123 116.044 52.0593L116.126 51.8281L116.362 51.8947C116.431 51.914 123.111 53.8599 125.19 60.2775C126.274 63.6282 126.633 67.1348 126.204 70.1492C125.716 73.5629 124.257 76.0641 121.983 77.3847C117.965 79.716 114.802 79.1871 113.804 78.9226L113.662 80.7214C113.634 80.8545 112.921 83.995 110.229 85.1125C109.601 85.3733 108.927 85.5067 108.248 85.5048ZM104.2 61.8189C103.696 61.8186 103.202 61.9581 102.772 62.2217C102.142 62.6123 101.371 63.4478 101.266 65.1993C101.091 68.1769 104.35 68.5272 104.489 68.5413L104.762 68.5693L104.723 68.839C104.035 73.7993 102.765 77.362 101.823 79.4778C101.549 80.0976 101.504 80.7947 101.696 81.4445C101.889 82.0943 102.306 82.6544 102.874 83.0247C105.752 84.8655 108.157 85.4068 110.017 84.6361C112.362 83.664 113.08 80.8703 113.138 80.6321L113.325 78.215L113.653 78.3376C113.707 78.3568 117.156 79.5759 121.71 76.9364C126.302 74.2723 126.681 66.6233 124.687 60.4474C122.915 54.9721 117.629 52.8843 116.455 52.4815C114.572 57.7361 112.176 60.9449 109.328 62.0483C107.065 62.9241 105.366 62.1009 105.195 62.0115C104.879 61.8821 104.541 61.8166 104.2 61.8189Z" fill="#1D1E1B"/>
<path d="M104.303 67.3071C104.257 67.3144 104.21 67.3093 104.167 67.2923C104.124 67.2754 104.086 67.2472 104.057 67.2107C103.213 66.1125 102.933 65.1562 103.225 64.368C103.646 63.233 105.086 62.9229 105.152 62.9107C105.219 62.8968 105.289 62.91 105.346 62.9474C105.403 62.9849 105.443 63.0435 105.457 63.1104C105.471 63.1773 105.458 63.2469 105.42 63.3041C105.383 63.3613 105.324 63.4012 105.257 63.4151C105.24 63.4151 104.031 63.6831 103.711 64.5484C103.487 65.1597 103.741 65.9496 104.469 66.8954C104.49 66.9221 104.505 66.9527 104.514 66.9854C104.523 67.0181 104.525 67.0521 104.521 67.0857C104.516 67.1193 104.505 67.1517 104.488 67.1809C104.471 67.2102 104.449 67.2358 104.422 67.2562C104.388 67.2839 104.346 67.3014 104.303 67.3071Z" fill="black"/>
<path d="M117.414 62.4385C113.798 63.3301 108.843 61.8868 108.041 63.2127C107.239 64.5386 107.934 66.2656 109.921 66.6352C111.907 67.0048 113.86 66.8839 117.855 66.4408C121.85 65.9976 125.737 65.2673 125.212 63.1374C124.686 61.0075 122.728 61.1284 117.414 62.4385Z" fill="#FFB49F"/>
<path d="M122.828 65.4449C122.839 65.0745 122.547 64.7662 122.178 64.7562C121.808 64.7462 121.501 65.0383 121.491 65.4087C121.481 65.779 121.772 66.0872 122.141 66.0972C122.511 66.1072 122.818 65.8152 122.828 65.4449Z" fill="black"/>
<path d="M116.036 66.3016C116.046 65.9313 115.754 65.6229 115.385 65.6129C115.015 65.6029 114.708 65.8951 114.698 66.2654C114.688 66.6358 114.979 66.9441 115.349 66.9541C115.718 66.9641 116.025 66.672 116.036 66.3016Z" fill="black"/>
<path d="M120.188 68.7653C120.134 68.7652 120.081 68.7483 120.037 68.7169C119.993 68.6856 119.959 68.6413 119.941 68.5902L117.859 63.0273C117.844 62.9643 117.852 62.898 117.883 62.841C117.914 62.7841 117.965 62.7405 118.026 62.7188C118.087 62.6971 118.154 62.6987 118.214 62.7233C118.274 62.7479 118.323 62.7938 118.351 62.8522L120.434 68.415C120.458 68.4803 120.455 68.5526 120.427 68.616C120.398 68.6794 120.345 68.7287 120.279 68.7531C120.25 68.763 120.219 68.7672 120.188 68.7653Z" fill="#1D1D1B"/>
<path d="M119.715 61.1982C119.669 61.1978 119.624 61.1857 119.584 61.1631C119.524 61.1277 119.48 61.07 119.462 61.0025C119.444 60.935 119.453 60.8631 119.488 60.8023C120.703 58.7005 123.842 60.3417 123.975 60.4117C124.034 60.4459 124.076 60.5014 124.095 60.5665C124.114 60.6316 124.106 60.7013 124.075 60.7611C124.043 60.821 123.99 60.8663 123.925 60.8877C123.861 60.909 123.791 60.9048 123.73 60.8759C123.702 60.8619 120.906 59.4081 119.943 61.0668C119.92 61.1068 119.887 61.1399 119.847 61.163C119.807 61.1861 119.762 61.1982 119.715 61.1982Z" fill="black"/>
<path d="M112.142 63.1615C112.092 63.1615 112.043 63.1474 112.001 63.1208C111.959 63.0941 111.926 63.0562 111.904 63.0112C111.883 62.9663 111.875 62.9162 111.881 62.8669C111.887 62.8175 111.907 62.7709 111.938 62.7324C112.702 61.7901 113.515 61.2699 114.375 61.184C114.961 61.122 115.55 61.2813 116.025 61.6307C116.076 61.6755 116.108 61.7387 116.114 61.8068C116.12 61.8749 116.099 61.9426 116.056 61.9955C116.012 62.0484 115.95 62.0823 115.882 62.0901C115.814 62.0978 115.746 62.0788 115.692 62.037C115.627 61.9845 114.151 60.8425 112.345 63.0652C112.32 63.0955 112.289 63.1199 112.254 63.1365C112.219 63.1532 112.18 63.1618 112.142 63.1615Z" fill="black"/>
<path d="M114.099 78.7326C114.099 78.7326 111.151 77.9146 109.562 76.6553L114.099 78.7326Z" fill="#4BD657"/>
<path d="M114.099 78.9958C114.075 78.9964 114.051 78.9934 114.028 78.987C113.906 78.9538 111.011 78.1393 109.399 76.8607C109.348 76.8164 109.316 76.754 109.31 76.6867C109.303 76.6193 109.323 76.5521 109.365 76.4991C109.407 76.446 109.468 76.4112 109.535 76.4019C109.602 76.3926 109.67 76.4095 109.725 76.4491C111.254 77.6611 114.139 78.4721 114.169 78.4808C114.229 78.4984 114.281 78.5372 114.315 78.59C114.35 78.6428 114.364 78.7061 114.355 78.7685C114.347 78.8309 114.316 78.8881 114.269 78.9299C114.222 78.9716 114.162 78.995 114.099 78.9958Z" fill="black"/>
<path d="M99.2727 44.8655H99.2081C99.1168 44.8485 99.036 44.7959 98.9835 44.7194C98.9309 44.6429 98.9108 44.5487 98.9277 44.4574C99.3043 42.4116 100.192 40.9543 101.567 40.1451C103.806 38.8174 106.493 39.6792 106.605 39.716C106.693 39.745 106.766 39.8079 106.808 39.8909C106.85 39.9738 106.857 40.07 106.828 40.1583C106.799 40.2465 106.736 40.3196 106.653 40.3615C106.57 40.4034 106.474 40.4106 106.386 40.3816C106.347 40.3693 103.876 39.5881 101.919 40.7494C100.73 41.45 99.9542 42.7479 99.6162 44.5852C99.6 44.6644 99.557 44.7355 99.4944 44.7866C99.4318 44.8376 99.3535 44.8655 99.2727 44.8655Z" fill="white"/>
<path d="M116.891 75.5032C116.539 75.5055 116.191 75.4321 115.87 75.2878C114.16 74.5154 113.792 71.9599 113.768 71.8548C113.761 71.8009 113.77 71.7462 113.796 71.698C113.821 71.6498 113.86 71.6104 113.908 71.5851C113.956 71.56 114.011 71.5505 114.065 71.5581C114.119 71.5656 114.169 71.5897 114.209 71.6271C117.654 74.8692 120.844 71.6271 120.979 71.4817C121.002 71.4539 121.03 71.431 121.063 71.4147C121.095 71.3983 121.13 71.3888 121.166 71.3867C121.202 71.3846 121.238 71.3899 121.272 71.4024C121.306 71.4149 121.337 71.4343 121.363 71.4593C121.389 71.4843 121.41 71.5144 121.424 71.5477C121.438 71.5811 121.445 71.617 121.444 71.6531C121.444 71.6892 121.436 71.7249 121.421 71.7578C121.406 71.7907 121.384 71.8201 121.357 71.8443C121.324 71.8793 118.057 75.2248 114.46 72.5256C114.68 73.2806 115.16 74.3928 116.078 74.8026C116.88 75.1635 117.901 74.9393 119.112 74.1336C119.14 74.1145 119.173 74.1012 119.206 74.0946C119.24 74.0879 119.275 74.0881 119.309 74.0949C119.343 74.1017 119.375 74.1151 119.404 74.1344C119.432 74.1537 119.457 74.1784 119.476 74.2071C119.495 74.2359 119.508 74.2681 119.515 74.302C119.522 74.3358 119.522 74.3707 119.515 74.4045C119.508 74.4384 119.494 74.4705 119.475 74.4991C119.456 74.5278 119.431 74.5524 119.402 74.5714C118.492 75.1932 117.642 75.5032 116.891 75.5032Z" fill="#1D1D1B"/>
<path d="M111.017 61.3603H110.959C109.808 61.3528 108.708 60.8886 107.9 60.0697C107.091 59.2508 106.641 58.1444 106.649 56.9937C106.656 55.8431 107.12 54.7425 107.939 53.9341C108.758 53.1257 109.865 52.6758 111.015 52.6832H111.073C112.223 52.6998 113.32 53.172 114.122 53.9962C114.925 54.8204 115.368 55.9293 115.354 57.0795C115.338 58.2196 114.874 59.3075 114.062 60.1084C113.251 60.9094 112.157 61.359 111.017 61.3603ZM111.017 53.2087C110.014 53.2154 109.055 53.6192 108.35 54.3317C107.645 55.0442 107.25 56.0072 107.254 57.0098C107.257 58.0124 107.658 58.9728 108.368 59.6805C109.078 60.3883 110.04 60.7857 111.042 60.7857C112.045 60.7857 113.007 60.3883 113.717 59.6805C114.427 58.9728 114.827 58.0124 114.831 57.0098C114.834 56.0072 114.44 55.0442 113.735 54.3317C113.029 53.6192 112.07 53.2154 111.068 53.2087H111.017Z" fill="#1D1D1B"/>
<path d="M121.773 59.6261H121.711C120.499 59.6182 119.339 59.1288 118.487 58.2656C117.634 57.4023 117.16 56.236 117.168 55.0231C117.176 53.8102 117.665 52.6501 118.529 51.798C119.392 50.9459 120.558 50.4717 121.771 50.4796H121.831C123.043 50.4967 124.199 50.994 125.046 51.8626C125.892 52.7311 126.359 53.8999 126.344 55.1124C126.327 56.3142 125.838 57.4611 124.983 58.3056C124.128 59.1501 122.975 59.6244 121.773 59.6261ZM121.773 51.005C120.707 51.0122 119.687 51.4417 118.937 52.1993C118.187 52.957 117.768 53.981 117.772 55.0471C117.775 56.1131 118.201 57.1343 118.956 57.8869C119.711 58.6394 120.734 59.062 121.8 59.062C122.866 59.062 123.889 58.6394 124.644 57.8869C125.399 57.1343 125.825 56.1131 125.828 55.0471C125.832 53.981 125.413 52.957 124.663 52.1993C123.913 51.4417 122.893 51.0122 121.827 51.005H121.773Z" fill="#1D1D1B"/>
<path d="M116.887 55.5867C116.823 55.5871 116.76 55.5641 116.712 55.5219C115.719 54.6461 114.983 55.3853 114.902 55.4728C114.854 55.5175 114.791 55.5425 114.726 55.543C114.66 55.5435 114.597 55.5194 114.548 55.4755C114.499 55.4315 114.469 55.371 114.462 55.3057C114.456 55.2403 114.474 55.175 114.514 55.1225C114.904 54.6934 115.936 54.1417 117.059 55.1313C117.098 55.1667 117.126 55.2134 117.139 55.2652C117.152 55.317 117.148 55.3714 117.129 55.4211C117.11 55.4709 117.077 55.5138 117.033 55.5439C116.989 55.5741 116.937 55.5903 116.884 55.5902L116.887 55.5867Z" fill="black"/>
<path d="M113.286 59.5256C113.224 59.5255 113.164 59.5091 113.111 59.4783C113.071 59.4551 113.036 59.4243 113.008 59.3876C112.98 59.3509 112.96 59.3091 112.948 59.2645C112.936 59.2199 112.934 59.1734 112.94 59.1278C112.946 59.0821 112.961 59.0381 112.985 58.9983C113.564 58.0105 113.724 57.1014 113.459 56.2957C113.021 54.9576 111.545 54.306 111.533 54.299C111.49 54.2808 111.452 54.2545 111.42 54.2215C111.388 54.1885 111.362 54.1495 111.345 54.1068C111.328 54.064 111.32 54.0183 111.32 53.9722C111.321 53.9262 111.331 53.8807 111.349 53.8383C111.367 53.796 111.393 53.7577 111.426 53.7255C111.459 53.6934 111.498 53.6681 111.541 53.651C111.584 53.6339 111.63 53.6254 111.676 53.626C111.722 53.6266 111.767 53.6362 111.809 53.6544C111.881 53.6859 113.585 54.4304 114.125 56.0715C114.458 57.0769 114.277 58.1734 113.599 59.3522C113.568 59.4066 113.522 59.4514 113.466 59.482C113.411 59.5125 113.349 59.5276 113.286 59.5256Z" fill="white"/>
<path d="M124.556 57.4321C124.495 57.4317 124.435 57.4153 124.382 57.3844C124.329 57.3535 124.285 57.3092 124.254 57.256C124.224 57.2028 124.208 57.1426 124.208 57.0812C124.208 57.0199 124.224 56.9597 124.255 56.9066C124.833 55.917 124.992 55.008 124.728 54.2022C124.29 52.8641 122.813 52.2125 122.801 52.2055C122.757 52.1888 122.716 52.1633 122.682 52.1305C122.648 52.0977 122.621 52.0584 122.602 52.0148C122.584 51.9712 122.574 51.9242 122.574 51.8769C122.574 51.8295 122.584 51.7826 122.603 51.7391C122.622 51.6956 122.649 51.6564 122.683 51.6237C122.718 51.5911 122.758 51.5657 122.803 51.5492C122.847 51.5328 122.894 51.5255 122.942 51.5278C122.989 51.5301 123.035 51.542 123.078 51.5627C123.15 51.5925 124.854 52.3386 125.393 53.978C125.726 54.9834 125.546 56.0799 124.868 57.2604C124.836 57.3143 124.79 57.3586 124.735 57.3888C124.681 57.419 124.619 57.4339 124.556 57.4321Z" fill="white"/>
<path d="M75.8659 99.8652C65.2674 98.527 74.575 86.9214 82.2818 84.0909C84.6656 84.7915 93.1712 79.4984 96.0121 80.7822C93.3656 96.4987 85.0965 101.039 75.8659 99.8652Z" fill="#0598C6"/>
<path d="M83.9297 67.0542C83.9297 67.0542 86.494 66.1242 86.8916 64.8193C87.2892 63.5144 87.5204 57.5609 88.9934 54.1927C90.4174 50.9191 93.2356 51.4919 93.6052 57.3069C93.6052 57.3069 95.8454 52.287 98.5095 54.8058C98.5095 54.8058 100.399 52.8143 104.041 51.8562C107.169 51.033 107.765 54.5693 105.227 55.9232C103.098 57.0582 102.249 57.5119 101.618 58.1757C101.618 58.1757 104.058 60.7014 100.841 61.4318C100.841 61.4318 98.9404 62.9924 100.268 64.2518C101.596 65.5111 103.172 59.8607 105.095 59.1723C107.018 58.484 108.812 61.0167 106.349 65.8282C103.887 70.6396 103.086 73.034 99.6829 74.8485C97.1449 76.2025 93.3284 79.3307 93.3284 79.3307L83.9297 67.0542Z" fill="#FFCDB2"/>
<path d="M93.3136 79.5849H93.2838C93.2145 79.5751 93.1517 79.5386 93.1087 79.4833L83.7258 67.2226C83.7008 67.1898 83.6838 67.1516 83.6762 67.1111C83.6687 67.0706 83.671 67.0288 83.6826 66.9893C83.6942 66.9497 83.7149 66.9134 83.7431 66.8834C83.7713 66.8533 83.8061 66.8303 83.8449 66.8162C84.5245 66.5693 86.3513 65.7163 86.6473 64.7512C86.7682 64.3536 86.8767 63.4603 87.0151 62.3323C87.3059 59.9765 87.742 56.4157 88.7509 54.1001C89.406 52.5956 90.3834 51.8004 91.3695 51.9738C92.5955 52.1892 93.48 53.8251 93.7865 56.4104C94.312 55.5083 95.3087 54.1334 96.5662 53.8882C97.2301 53.7568 97.8781 53.9495 98.4929 54.4592C99.0534 53.9337 100.889 52.4239 103.965 51.6147C105.643 51.1733 106.592 51.9055 106.916 52.7392C107.322 53.7761 106.916 55.3314 105.34 56.1687C103.446 57.1776 102.563 57.6487 101.968 58.2022C102.295 58.6015 102.954 59.5439 102.697 60.4091C102.521 61.0222 101.928 61.4601 100.945 61.686C100.77 61.8506 100.069 62.518 100.041 63.2221C100.039 63.3839 100.073 63.5443 100.14 63.6915C100.207 63.8387 100.306 63.9692 100.43 64.0733C100.461 64.1116 100.501 64.1416 100.546 64.1606C100.591 64.1796 100.641 64.1869 100.689 64.1819C101.15 64.1171 101.817 62.9909 102.406 61.9978C103.196 60.6631 104.014 59.2829 104.988 58.9291C105.348 58.7856 105.744 58.7579 106.121 58.8498C106.497 58.9418 106.836 59.1489 107.089 59.4423C107.948 60.4161 108.259 62.6353 106.564 65.951C106.228 66.606 105.923 67.2156 105.639 67.7848C103.809 71.4631 102.8 73.4756 99.7874 75.0817C97.3003 76.4076 93.5134 79.5043 93.4819 79.5359C93.4332 79.5711 93.3736 79.5884 93.3136 79.5849ZM84.351 67.1718L93.3593 78.9474C94.2 78.2678 97.3247 75.7946 99.5439 74.6088C102.411 73.0797 103.397 71.1057 105.175 67.5396C105.459 66.9686 105.765 66.3573 106.102 65.7005C107.678 62.6213 107.445 60.6211 106.701 59.7803C106.517 59.5655 106.27 59.4142 105.996 59.3481C105.721 59.282 105.433 59.3046 105.172 59.4125C104.375 59.7015 103.571 61.059 102.861 62.2552C102.119 63.5093 101.478 64.5918 100.759 64.6916C100.633 64.7074 100.504 64.6933 100.384 64.6504C100.264 64.6075 100.156 64.537 100.068 64.4447C99.8887 64.2894 99.7463 64.0964 99.6509 63.8795C99.5555 63.6627 99.5094 63.4274 99.5158 63.1906C99.5526 62.1396 100.609 61.2639 100.654 61.2306C100.686 61.2052 100.723 61.1873 100.763 61.1781C101.577 60.9924 102.056 60.6806 102.183 60.2498C102.387 59.5719 101.693 58.6559 101.409 58.3598C101.362 58.3112 101.336 58.2462 101.336 58.1786C101.336 58.1109 101.362 58.0459 101.409 57.9973C102.068 57.2967 102.951 56.8325 105.088 55.6958C106.391 54.9952 106.748 53.7463 106.424 52.9196C106.1 52.0929 105.236 51.8126 104.094 52.1121C100.565 53.0404 98.7049 54.9689 98.6874 54.9881C98.6637 55.0134 98.6353 55.0336 98.6038 55.0478C98.5722 55.0619 98.5381 55.0696 98.5035 55.0705C98.4341 55.0721 98.3667 55.0463 98.3161 54.9987C97.7678 54.4732 97.2284 54.2823 96.6644 54.3944C95.0653 54.7114 93.862 57.3895 93.8409 57.4175C93.8163 57.4708 93.7749 57.5144 93.7229 57.5416C93.671 57.5689 93.6114 57.5782 93.5536 57.5681C93.4957 57.558 93.443 57.5286 93.4039 57.4847C93.3648 57.4409 93.3417 57.3851 93.3382 57.3264C93.1263 53.9828 92.1331 52.6306 91.2749 52.48C90.555 52.3538 89.7721 53.051 89.2291 54.2998C88.2518 56.5488 87.819 60.0623 87.5335 62.3884C87.3917 63.5426 87.2796 64.4552 87.1448 64.8966C86.7997 66.0263 85.0832 66.86 84.351 67.1718Z" fill="#1D1D1B"/>
<path d="M100.612 61.4446C100.612 61.4446 98.6851 61.7108 96 58.3286L100.612 61.4446Z" fill="#FFCDB2"/>
<path d="M100.507 61.7046C99.9956 61.7046 98.1582 61.4734 95.7919 58.4853C95.7523 58.4304 95.7354 58.3624 95.7447 58.2954C95.754 58.2284 95.789 58.1676 95.842 58.1256C95.8951 58.0836 95.9621 58.0637 96.0295 58.07C96.0968 58.0763 96.1591 58.1084 96.2034 58.1595C98.7309 61.3508 100.558 61.1791 100.582 61.1774C100.617 61.1728 100.652 61.175 100.686 61.184C100.719 61.1929 100.751 61.2084 100.778 61.2296C100.806 61.2507 100.829 61.2771 100.847 61.3072C100.864 61.3373 100.875 61.3706 100.88 61.4051C100.885 61.4396 100.883 61.4747 100.874 61.5083C100.865 61.5419 100.849 61.5735 100.828 61.6011C100.807 61.6288 100.78 61.652 100.75 61.6694C100.72 61.6869 100.687 61.6982 100.652 61.7028C100.604 61.7066 100.555 61.7072 100.507 61.7046Z" fill="#1D1D1B"/>
<path d="M101.605 58.1781C100.641 56.9904 99.6024 55.8648 98.4961 54.8081L101.605 58.1781Z" fill="#FFCDB2"/>
<path d="M101.606 58.4392C101.566 58.4393 101.527 58.4304 101.491 58.4131C101.456 58.3958 101.424 58.3706 101.4 58.3394C100.442 57.1626 99.4128 56.0465 98.3169 54.9975C98.291 54.974 98.2699 54.9456 98.2551 54.9139C98.2403 54.8822 98.232 54.8479 98.2307 54.813C98.2293 54.778 98.235 54.7432 98.2473 54.7104C98.2595 54.6777 98.2781 54.6477 98.3022 54.6223C98.3262 54.5969 98.3552 54.5765 98.3872 54.5624C98.4192 54.5483 98.4536 54.5407 98.4886 54.5401C98.5236 54.5395 98.5583 54.5458 98.5907 54.5588C98.6232 54.5718 98.6527 54.5911 98.6776 54.6157C99.7925 55.6818 100.84 56.8167 101.813 58.0136C101.856 58.0686 101.875 58.1382 101.867 58.2074C101.859 58.2766 101.824 58.3398 101.769 58.3832C101.723 58.4199 101.665 58.4397 101.606 58.4392Z" fill="#1D1D1B"/>
<path d="M93.6036 57.3115C93.6264 58.175 93.8469 58.3852 93.4844 60.9897L93.6036 57.3115Z" fill="#FFCDB2"/>
<path d="M93.4819 61.2467H93.4451C93.3762 61.2363 93.3141 61.1992 93.2722 61.1436C93.2302 61.0879 93.212 61.018 93.221 60.9489C93.4925 59.0222 93.4346 58.446 93.3803 57.8977C93.3627 57.7226 93.3436 57.5474 93.3383 57.3215C93.3369 57.2519 93.3628 57.1846 93.4107 57.1341C93.4586 57.0836 93.5245 57.054 93.5941 57.0518C93.6628 57.0517 93.7288 57.0787 93.7779 57.1268C93.8271 57.175 93.8554 57.2405 93.8568 57.3092C93.8568 57.5072 93.8778 57.6718 93.8953 57.8452C93.9513 58.3969 94.0144 59.024 93.7342 61.0225C93.7255 61.0837 93.6953 61.1398 93.6491 61.1808C93.603 61.2219 93.5436 61.2452 93.4819 61.2467Z" fill="#1D1D1B"/>
<path d="M100.694 64.4565C100.694 64.4565 97.0242 64.3374 95.9961 66.3061L100.694 64.4565Z" fill="#FFCDB2"/>
<path d="M95.9946 66.5711C95.9526 66.5706 95.9113 66.5604 95.8739 66.5413C95.8134 66.5089 95.7679 66.4542 95.7469 66.3888C95.726 66.3235 95.7314 66.2525 95.7618 66.191C96.853 64.0997 100.545 64.196 100.701 64.2013C100.771 64.2036 100.837 64.2335 100.884 64.2844C100.932 64.3353 100.957 64.4031 100.955 64.4727C100.953 64.5424 100.923 64.6083 100.872 64.656C100.821 64.7036 100.753 64.729 100.684 64.7267C100.649 64.7267 97.1664 64.6356 96.2276 66.4345C96.2048 66.4762 96.1711 66.5109 96.1301 66.535C96.0891 66.559 96.0422 66.5715 95.9946 66.5711Z" fill="#1D1D1B"/>
<path d="M97.1297 59.5718C97.1241 60.2487 96.9887 60.9182 96.7305 61.544L97.1297 59.5718Z" fill="#FFCDB2"/>
<path d="M96.7298 61.8001C96.6918 61.7995 96.6542 61.7912 96.6195 61.7756C96.5565 61.7456 96.508 61.692 96.4844 61.6264C96.4608 61.5608 96.464 61.4885 96.4934 61.4253C96.7343 60.835 96.8614 60.2045 96.8682 59.5669C96.8682 59.4972 96.8959 59.4304 96.9452 59.3811C96.9944 59.3319 97.0612 59.3042 97.1309 59.3042C97.2006 59.3042 97.2676 59.3319 97.3169 59.3811C97.3661 59.4304 97.3937 59.4972 97.3937 59.5669C97.3886 60.2828 97.2441 60.9908 96.9681 61.6513C96.9467 61.6962 96.913 61.7341 96.8708 61.7605C96.8286 61.7868 96.7796 61.8006 96.7298 61.8001Z" fill="#1D1D1B"/>
<path d="M74.5827 100.011C96.3262 94.9118 90.2169 82.4952 90.2169 82.4952L93.529 79.1025L84.3668 67.0467L80.4066 68.0415C80.4066 68.0415 72.7541 60.2332 54.2369 77.978C35.7197 95.7228 67.6747 113.196 70.5157 121.458" fill="#07ACEE"/>
<path d="M70.2651 121.546C69.4874 119.288 66.4117 116.246 62.8281 112.725C56.2983 106.289 48.1695 98.277 48.2308 89.5877C48.2606 85.433 50.2187 81.4641 54.0528 77.7911C61.7788 70.3874 68.5731 66.4534 74.2481 66.0961C78.0244 65.8579 80 67.3362 80.4782 67.7548L84.4699 66.7529L93.874 79.1275L90.5284 82.5535C91.055 83.848 91.3074 85.2377 91.2698 86.6348C91.2321 88.0318 90.9051 89.4059 90.3095 90.6701C88.2217 95.0892 82.9531 98.3173 74.6403 100.265L74.5195 99.7536C82.6607 97.8444 87.8119 94.7161 89.8314 90.4547C91.7704 86.3631 89.9978 82.6499 89.9785 82.6131L89.8979 82.4379L93.1804 79.075L84.2616 67.3397L80.3223 68.3276L80.2173 68.2207C80.1998 68.2015 78.3028 66.3413 74.2217 66.6163C70.4139 66.8738 63.8876 69.086 54.4171 78.1624C50.6898 81.7356 48.7843 85.5767 48.7563 89.5842C48.6967 98.0511 56.7379 105.977 63.1975 112.344C66.8179 115.911 69.9445 118.999 70.7607 121.367L70.2651 121.546Z" fill="#1D1D1B"/>
<path d="M80.5249 68.4033L84.3292 67.4487L93.1272 79.0264L89.9464 82.2842L89.9691 82.3332C86.8899 80.7148 81.1431 76.611 80.418 68.307C80.4828 68.3665 80.5249 68.4033 80.5249 68.4033Z" fill="#0598C6"/>
<path d="M151.187 98.0664C132.99 64.1532 149.847 59.2034 149.847 59.2034L149.78 53.6966L164.709 50.8608L166.896 54.8666C166.896 54.8666 175.98 54.5355 179.029 84.1715C182.452 117.421 164.752 120.398 136.961 124.203" fill="#07ACEE"/>
<path d="M136.957 124.466C136.887 124.471 136.818 124.448 136.766 124.402C136.713 124.356 136.681 124.291 136.676 124.221C136.672 124.151 136.695 124.083 136.741 124.03C136.787 123.978 136.852 123.945 136.922 123.941C149.76 122.189 161.888 120.522 169.544 115.008C177.524 109.265 180.368 99.7608 178.766 84.181C177.207 69.0284 174.037 61.9242 171.667 58.6314C169.117 55.0985 166.924 55.1108 166.901 55.1125C166.853 55.1132 166.805 55.1008 166.763 55.0768C166.721 55.0528 166.686 55.0179 166.663 54.9759L164.561 51.1383L150.035 53.8952L150.1 59.1848C150.101 59.2418 150.083 59.2975 150.049 59.3434C150.015 59.3892 149.967 59.4227 149.913 59.4388C149.876 59.4511 146.154 60.6018 144.198 65.2994C142.143 70.2247 141.728 79.8844 151.409 97.9252C151.427 97.9557 151.438 97.9895 151.443 98.0246C151.447 98.0596 151.445 98.0953 151.435 98.1293C151.426 98.1634 151.41 98.1952 151.388 98.2228C151.365 98.2505 151.338 98.2733 151.307 98.2901C151.276 98.3068 151.241 98.3171 151.206 98.3203C151.171 98.3236 151.135 98.3196 151.102 98.3088C151.068 98.2979 151.037 98.2804 151.01 98.2572C150.983 98.2341 150.962 98.2057 150.946 98.1739C146.611 90.0941 143.907 82.9741 142.907 77.0084C142.115 72.2793 142.381 68.2613 143.719 65.0787C145.544 60.7174 148.752 59.2987 149.573 58.9992L149.508 53.6815C149.508 53.6199 149.529 53.5599 149.568 53.5122C149.607 53.4645 149.661 53.4321 149.722 53.4205L164.65 50.5866C164.705 50.5757 164.761 50.5826 164.812 50.6062C164.862 50.6299 164.904 50.669 164.93 50.7179L167.046 54.5941C167.642 54.6449 169.698 55.06 172.021 58.2338C175.569 63.0785 178.011 71.7906 179.281 84.1266C180.121 92.294 179.719 98.7887 178.055 103.982C176.496 108.832 173.811 112.575 169.849 115.425C162.088 121.01 149.897 122.68 136.992 124.447L136.957 124.466Z" fill="#1D1D1B"/>
<path d="M166.557 55.0785L164.455 51.2251L150.117 53.9487L150.182 59.2384L150.131 59.2611C153.477 60.3593 160.465 61.4961 166.701 55.0767C166.608 55.0767 166.557 55.0785 166.557 55.0785Z" fill="#0598C6"/>
<path d="M93.5942 109.703C94.4638 109.703 95.1689 108.997 95.1689 108.125C95.1689 107.253 94.4638 106.547 93.5942 106.547C92.7246 106.547 92.0195 107.253 92.0195 108.125C92.0195 108.997 92.7246 109.703 93.5942 109.703Z" fill="#51CEF4"/>
<path d="M126.496 93.6148C127.366 93.6148 128.071 92.9082 128.071 92.0366C128.071 91.1651 127.366 90.4585 126.496 90.4585C125.627 90.4585 124.922 91.1651 124.922 92.0366C124.922 92.9082 125.627 93.6148 126.496 93.6148Z" fill="#51CEF4"/>
<path d="M137.81 114.099C137.866 114.429 137.816 114.769 137.667 115.068C137.518 115.368 137.277 115.612 136.98 115.766C136.683 115.919 136.344 115.975 136.014 115.923C135.683 115.872 135.377 115.716 135.141 115.479C134.904 115.243 134.749 114.937 134.698 114.606C134.647 114.275 134.703 113.937 134.857 113.64C135.011 113.343 135.256 113.102 135.555 112.953C135.855 112.805 136.194 112.755 136.524 112.812C136.845 112.867 137.141 113.021 137.372 113.252C137.602 113.482 137.755 113.778 137.81 114.099Z" fill="#51CEF4"/>
<path d="M106.216 124.523C106.273 124.853 106.223 125.192 106.073 125.492C105.924 125.792 105.684 126.036 105.386 126.19C105.089 126.343 104.75 126.398 104.42 126.347C104.089 126.295 103.783 126.14 103.547 125.903C103.31 125.666 103.155 125.36 103.104 125.03C103.053 124.699 103.109 124.361 103.263 124.063C103.417 123.766 103.662 123.526 103.962 123.377C104.261 123.228 104.601 123.179 104.93 123.236C105.252 123.291 105.547 123.445 105.778 123.675C106.008 123.906 106.161 124.202 106.216 124.523Z" fill="#51CEF4"/>
<path d="M132.021 137.756C132.077 138.086 132.027 138.425 131.878 138.724C131.729 139.024 131.488 139.268 131.191 139.422C130.894 139.576 130.555 139.631 130.224 139.579C129.894 139.528 129.588 139.372 129.352 139.136C129.115 138.899 128.96 138.593 128.909 138.262C128.858 137.931 128.914 137.593 129.068 137.296C129.222 136.999 129.466 136.758 129.766 136.61C130.066 136.461 130.405 136.411 130.735 136.468C131.056 136.524 131.352 136.677 131.582 136.908C131.813 137.138 131.966 137.435 132.021 137.756Z" fill="#51CEF4"/>
<path d="M63.9687 98.1327C65.5784 97.7736 66.307 99.7423 64.8445 100.515C63.2418 100.872 62.5132 98.9051 63.9687 98.1327Z" fill="#51CEF4"/>
<path d="M58.9706 80.1572C60.5802 79.8069 61.3089 81.7669 59.8463 82.5393C58.2367 82.8984 57.515 80.9297 58.9706 80.1572Z" fill="#51CEF4"/>
<path d="M81.8828 85.9727C83.4924 85.6224 84.2211 87.5823 82.7585 88.3547C81.1559 88.7068 80.4272 86.7398 81.8828 85.9727Z" fill="#51CEF4"/>
<path d="M68.2968 71.3628C69.9065 71.0125 70.6351 72.9742 69.1726 73.7466C67.5699 74.1039 66.8413 72.1387 68.2968 71.3628Z" fill="#51CEF4"/>
<path d="M158.106 93.3718C157.187 91.7831 155.304 92.8586 155.829 94.6732C156.749 96.2618 158.63 95.1864 158.106 93.3718Z" fill="#51CEF4"/>
<path d="M174.091 82.2189C173.171 80.6302 171.288 81.7057 171.814 83.522C172.735 85.1107 174.616 84.0335 174.091 82.2189Z" fill="#51CEF4"/>
<path d="M153.489 68.7955C152.568 67.2069 150.687 68.2823 151.212 70.0987C152.132 71.6873 154.013 70.6119 153.489 68.7955Z" fill="#51CEF4"/>
<path d="M173.38 67.3484C172.458 65.7597 170.577 66.8369 171.103 68.6515C172.022 70.2401 173.903 69.1594 173.38 67.3484Z" fill="#51CEF4"/>
<path d="M165.371 55.7974C160.309 56.3789 155.522 56.1266 151.073 54.8585C147.646 53.8712 144.673 51.7168 142.667 48.7683C140.661 45.8198 139.749 42.2628 140.089 38.7129C140.814 31.113 143.823 24.0386 148.798 17.4248C155.781 22.4832 160.426 25.953 169.949 25.3067C163.078 35.7353 156.287 48.0346 165.371 55.7974Z" fill="white"/>
<path d="M160.393 56.3546C157.221 56.3778 154.06 55.9592 151.003 55.111C147.515 54.1104 144.488 51.9199 142.447 48.92C140.406 45.9201 139.48 42.3001 139.83 38.6886C140.531 31.2604 143.486 24.0528 148.588 17.2674C148.608 17.2399 148.633 17.2166 148.662 17.1989C148.692 17.1812 148.724 17.1694 148.758 17.1642C148.791 17.159 148.826 17.1605 148.859 17.1685C148.892 17.1766 148.923 17.1912 148.95 17.2113L149.233 17.4162C156.097 22.3906 160.633 25.6747 169.93 25.0407C169.979 25.0372 170.028 25.0474 170.071 25.0703C170.115 25.0931 170.151 25.1276 170.176 25.1699C170.2 25.2121 170.213 25.2605 170.212 25.3095C170.21 25.3584 170.195 25.4061 170.168 25.447C166.9 30.4074 163.367 36.2067 161.936 41.6189C160.349 47.5916 161.53 52.1649 165.548 55.5979C165.587 55.6314 165.615 55.6753 165.629 55.7244C165.643 55.7735 165.643 55.8256 165.628 55.8746C165.612 55.9221 165.583 55.9639 165.543 55.995C165.504 56.0261 165.456 56.0451 165.406 56.0498C163.742 56.2474 162.069 56.3492 160.393 56.3546ZM148.856 17.7893C143.904 24.4451 141.044 31.4828 140.354 38.7377C140.015 42.227 140.909 45.7248 142.881 48.6237C144.853 51.5225 147.777 53.6393 151.147 54.6065C155.237 55.7713 159.812 56.1058 164.756 55.6014C160.931 52.0721 159.842 47.4463 161.428 41.484C162.844 36.1594 166.24 30.4932 169.447 25.5959C168.844 25.6298 168.261 25.6461 167.695 25.645C159.7 25.645 155.308 22.4624 148.931 17.8419L148.856 17.7893Z" fill="#1D1D1B"/>
<path d="M140.141 42.0454C140.141 42.0454 143.293 47.4191 147.959 46.8656C147.959 46.8656 145.752 52.996 150.082 54.5374C150.082 54.5374 141.353 51.9678 140.141 42.0454Z" fill="#4BD657"/>
<path d="M150.008 54.7856C149.917 54.7593 147.748 54.1077 145.401 52.2143C143.235 50.4628 140.518 47.289 139.881 42.0747L139.727 40.8188L140.368 41.9101C140.399 41.9626 143.494 47.1279 147.929 46.6024L148.351 46.5534L148.207 46.9527C148.197 46.986 147.053 50.2281 148.111 52.47C148.313 52.8969 148.6 53.278 148.954 53.5903C149.308 53.9026 149.722 54.1394 150.171 54.2864L150.008 54.7856ZM140.581 43.1519C141.695 48.932 145.529 51.9411 147.996 53.3108C147.858 53.1155 147.738 52.9086 147.637 52.6925C146.698 50.7063 147.305 48.1263 147.591 47.1594C144.219 47.3346 141.716 44.6565 140.581 43.1519Z" fill="black"/>
<path d="M142.428 35.507C142.371 35.507 142.314 35.4957 142.261 35.4736C142.208 35.4516 142.16 35.4193 142.119 35.3786C142.079 35.338 142.047 35.2897 142.025 35.2365C142.003 35.1834 141.992 35.1265 141.992 35.0691C141.992 30.4626 147.718 21.3931 147.963 21.0096C148.026 20.914 148.125 20.847 148.237 20.8231C148.349 20.7992 148.466 20.8202 148.563 20.8817C148.66 20.9432 148.729 21.0402 148.755 21.1519C148.781 21.2636 148.762 21.381 148.702 21.479C148.643 21.5701 142.87 30.7166 142.868 35.0691C142.867 35.1854 142.821 35.2968 142.739 35.3789C142.656 35.4609 142.545 35.507 142.428 35.507Z" fill="white"/>
<path d="M184.7 79.484C184.672 79.4841 184.644 79.48 184.618 79.4718C178.44 77.4453 173.115 74.7024 168.791 71.3167C165.324 68.6053 162.485 65.477 160.364 62.0195C156.738 56.1239 156.441 51.386 156.43 51.1863C156.428 51.1518 156.433 51.1173 156.445 51.0847C156.456 51.0521 156.474 51.0221 156.497 50.9964C156.52 50.9707 156.548 50.9498 156.579 50.9349C156.611 50.92 156.644 50.9114 156.679 50.9096C156.713 50.9077 156.748 50.9127 156.781 50.9242C156.813 50.9357 156.843 50.9535 156.869 50.9766C156.894 50.9997 156.915 51.0276 156.93 51.0588C156.945 51.09 156.954 51.1238 156.956 51.1583C156.956 51.2055 157.264 55.9855 160.83 61.7725C164.123 67.1165 170.952 74.4379 184.784 78.9726C184.843 78.9926 184.892 79.0327 184.924 79.0859C184.956 79.139 184.969 79.2018 184.959 79.2631C184.949 79.3243 184.918 79.3801 184.871 79.4206C184.824 79.461 184.764 79.4835 184.702 79.484H184.7Z" fill="#1D1E1B"/>
<path d="M167.581 79.6444C167.537 79.645 167.494 79.6342 167.455 79.6129C158.872 74.9083 155.152 67.7865 153.537 62.6405C151.786 57.0672 152.071 52.5359 152.073 52.4816C152.078 52.412 152.11 52.347 152.162 52.301C152.215 52.255 152.284 52.2318 152.353 52.2364C152.423 52.2411 152.488 52.2732 152.534 52.3258C152.58 52.3783 152.603 52.447 152.598 52.5167C152.598 52.5622 152.32 57.0111 154.045 62.5004C155.632 67.5483 159.3 74.5352 167.707 79.1505C167.759 79.1777 167.801 79.2218 167.825 79.2755C167.849 79.3293 167.854 79.3895 167.839 79.4465C167.824 79.5035 167.791 79.5539 167.744 79.5895C167.697 79.6251 167.64 79.6438 167.581 79.6426V79.6444Z" fill="#1D1E1B"/>
<path d="M163.313 53.043C163.313 53.043 168.899 54.2848 171.354 48.2228C173.81 42.1607 174.19 35.7869 170.892 31.9335C167.594 28.0801 163.647 27.8314 161.055 29.0277C158.463 30.224 157.98 33.0562 160.127 35.9848C160.127 35.9848 156.083 38.9081 160.162 43.8492C158.463 44.4447 156.994 49.5855 161.999 50.3824C162.182 51.374 162.637 52.2953 163.313 53.043Z" fill="#FFCDB2"/>
<path d="M164.475 53.4045C164.064 53.4094 163.653 53.3748 163.249 53.3012L163.165 53.2819L163.109 53.2171C162.446 52.4811 161.986 51.5863 161.771 50.6196C159.725 50.2395 158.467 49.0327 158.312 47.2917C158.184 45.873 158.837 44.3421 159.746 43.7711C158.466 42.1299 157.914 40.5308 158.108 39.0104C158.277 37.8246 158.864 36.7382 159.764 35.947C158.679 34.3811 158.278 32.7767 158.632 31.4105C158.928 30.2633 159.727 29.3612 160.939 28.8008C163.447 27.643 167.61 27.7253 171.085 31.7784C174.152 35.3497 174.341 41.5379 171.592 48.3303C169.798 52.767 166.319 53.4045 164.475 53.4045ZM163.452 52.8055C164.163 52.9351 168.901 53.5779 171.11 48.1272C173.784 41.5187 173.629 35.5337 170.693 32.1147C167.411 28.2928 163.619 28.1422 161.165 29.2754C160.1 29.7676 159.401 30.5505 159.145 31.5402C158.816 32.81 159.24 34.3426 160.338 35.8384L160.494 36.0521L160.28 36.2062C159.39 36.9255 158.803 37.9524 158.634 39.084C158.459 40.5308 159.033 42.0809 160.364 43.6923L160.604 43.983L160.254 44.1074C159.496 44.3719 158.716 45.8011 158.853 47.2444C158.933 48.1447 159.457 49.7193 162.053 50.1327L162.237 50.1625L162.27 50.3376C162.435 51.2514 162.844 52.1038 163.452 52.8055Z" fill="black"/>
<path d="M169.386 38.1855C169.351 38.1853 169.315 38.1781 169.283 38.1643C169.25 38.1505 169.22 38.1303 169.195 38.1049C169.158 38.0646 165.368 34.2043 159.623 36.3657C159.59 36.3817 159.554 36.3905 159.517 36.3916C159.48 36.3928 159.443 36.3861 159.409 36.3721C159.375 36.3581 159.344 36.337 159.319 36.3103C159.293 36.2836 159.274 36.2519 159.261 36.2171C159.249 36.1824 159.244 36.1454 159.247 36.1086C159.25 36.0719 159.26 36.0361 159.278 36.0037C159.296 35.9713 159.32 35.9429 159.349 35.9205C159.378 35.8981 159.412 35.882 159.448 35.8735C165.524 33.586 169.544 37.7003 169.584 37.7406C169.633 37.7899 169.661 37.8567 169.661 37.9263C169.661 37.9959 169.633 38.0627 169.584 38.1119C169.558 38.1374 169.527 38.1571 169.493 38.1698C169.459 38.1825 169.422 38.1878 169.386 38.1855Z" fill="#1D1D1B"/>
<path d="M168.027 44.1895C168.001 44.1897 167.975 44.1856 167.95 44.1773C167.904 44.1633 163.324 42.7918 160.212 44.1388C160.148 44.1666 160.075 44.168 160.011 44.1425C159.946 44.1171 159.894 44.0669 159.866 44.003C159.838 43.9391 159.836 43.8668 159.862 43.8019C159.887 43.7371 159.938 43.685 160.001 43.6571C163.294 42.2313 167.908 43.615 168.104 43.6746C168.165 43.6924 168.218 43.7317 168.252 43.7852C168.286 43.8387 168.3 43.9029 168.29 43.9657C168.281 44.0286 168.249 44.0859 168.201 44.1271C168.152 44.1682 168.091 44.1904 168.027 44.1895Z" fill="#1D1D1B"/>
<path d="M164.286 50.9803C163.419 50.9723 162.558 50.848 161.725 50.6107C161.658 50.5902 161.602 50.5442 161.57 50.4826C161.537 50.421 161.53 50.3489 161.551 50.2823C161.571 50.2156 161.617 50.1598 161.679 50.1271C161.74 50.0944 161.812 50.0876 161.879 50.108C161.909 50.108 164.808 50.9838 166.528 49.9328C166.557 49.9133 166.59 49.9 166.625 49.8935C166.66 49.8871 166.695 49.8878 166.73 49.8954C166.764 49.9031 166.797 49.9177 166.826 49.9383C166.854 49.9588 166.879 49.985 166.897 50.0152C166.915 50.0453 166.928 50.0789 166.933 50.1139C166.938 50.1488 166.936 50.1845 166.927 50.2187C166.918 50.2528 166.902 50.2848 166.88 50.3128C166.859 50.3407 166.832 50.364 166.801 50.3812C166.051 50.8384 165.133 50.9803 164.286 50.9803Z" fill="#1D1D1B"/>
<path d="M171.361 35.5272C171.27 35.5271 171.182 35.4991 171.108 35.4471C171.034 35.3951 170.978 35.3215 170.947 35.2364C170.937 35.2066 169.816 32.1695 167.013 30.8576C165.262 30.0414 163.234 30.0484 160.955 30.8803C160.846 30.9201 160.725 30.9148 160.62 30.8657C160.515 30.8166 160.433 30.7277 160.394 30.6185C160.354 30.5093 160.359 30.3889 160.408 30.2836C160.457 30.1783 160.546 30.0969 160.655 30.0571C163.164 29.1428 165.43 29.1463 167.394 30.0676C170.527 31.5389 171.723 34.7968 171.772 34.9422C171.795 35.0082 171.803 35.0788 171.793 35.148C171.783 35.2173 171.757 35.2833 171.717 35.3405C171.677 35.3977 171.623 35.4445 171.561 35.477C171.499 35.5094 171.431 35.5266 171.361 35.5272Z" fill="white"/>
<path d="M169.335 40.7951C169.267 40.7953 169.2 40.7795 169.139 40.7491C169.078 40.7187 169.025 40.6745 168.985 40.62C168.862 40.4448 165.944 36.602 160.977 38.3202C160.921 38.3424 160.862 38.3532 160.803 38.3519C160.744 38.3506 160.685 38.3372 160.631 38.3126C160.577 38.288 160.529 38.2526 160.489 38.2087C160.449 38.1648 160.418 38.1132 160.399 38.057C160.38 38.0009 160.372 37.9414 160.376 37.8822C160.38 37.823 160.397 37.7653 160.424 37.7126C160.451 37.6598 160.489 37.6132 160.535 37.5756C160.581 37.5379 160.634 37.51 160.691 37.4935C166.28 35.5668 169.657 40.056 169.69 40.1015C169.739 40.1666 169.769 40.2439 169.776 40.3249C169.784 40.4059 169.768 40.4873 169.732 40.5601C169.695 40.6328 169.64 40.694 169.57 40.7367C169.501 40.7795 169.421 40.8021 169.34 40.8021L169.335 40.7951Z" fill="white"/>
<path d="M150.195 29.751C150.195 29.751 152.616 33.6639 159.014 33.8583L150.195 29.751Z" fill="white"/>
<path d="M159.01 34.1172C152.543 33.921 150.077 30.0501 149.975 29.8855C149.94 29.8262 149.929 29.7553 149.945 29.6881C149.961 29.6208 150.003 29.5626 150.062 29.5262C150.121 29.4898 150.191 29.478 150.259 29.4935C150.326 29.5089 150.385 29.5503 150.422 29.6087C150.445 29.6472 152.855 33.4043 159.026 33.5917C159.095 33.5917 159.162 33.6194 159.211 33.6686C159.261 33.7179 159.288 33.7847 159.288 33.8544C159.288 33.9241 159.261 33.9909 159.211 34.0402C159.162 34.0895 159.095 34.1172 159.026 34.1172H159.01Z" fill="#1D1D1B"/>
<path d="M149.031 37.5234C149.031 37.5234 151.678 40.9985 158.13 39.839L149.031 37.5234Z" fill="white"/>
<path d="M155.567 40.3396C150.908 40.3396 148.911 37.8069 148.82 37.6808C148.797 37.6536 148.78 37.622 148.769 37.588C148.759 37.5539 148.756 37.5181 148.759 37.4827C148.763 37.4473 148.774 37.413 148.792 37.3819C148.809 37.3509 148.833 37.3237 148.861 37.3021C148.889 37.2804 148.922 37.2648 148.956 37.2561C148.991 37.2473 149.027 37.2457 149.062 37.2513C149.097 37.2569 149.131 37.2696 149.161 37.2886C149.191 37.3077 149.217 37.3326 149.237 37.362C149.263 37.3953 151.88 40.6899 158.081 39.5794C158.15 39.5671 158.222 39.583 158.28 39.6236C158.338 39.6641 158.377 39.7261 158.39 39.7957C158.402 39.8654 158.386 39.9371 158.346 39.9951C158.305 40.0531 158.243 40.0926 158.173 40.1049C157.313 40.26 156.441 40.3386 155.567 40.3396Z" fill="#1D1D1B"/>
<path d="M37.9605 6.32958C37.5547 10.1053 37.5712 13.9145 38.0096 17.6865C38.4428 21.4328 39.2646 25.1239 40.4617 28.7001C41.6645 32.294 43.2291 35.7564 45.1313 39.0342C47.0256 42.302 49.2564 45.3628 51.7872 48.1667C54.3059 50.9687 57.1253 53.485 60.1945 55.6702C60.5799 55.9452 60.9721 56.2132 61.3662 56.4759C61.4434 56.5366 61.5409 56.5653 61.6387 56.5561C61.7364 56.547 61.827 56.5008 61.8917 56.4269C61.9546 56.3508 61.985 56.2528 61.9762 56.1544C61.9673 56.056 61.92 55.9651 61.8444 55.9014C58.7369 53.8251 55.8686 51.4114 53.2917 48.7044C50.7225 46.0009 48.4436 43.0357 46.4922 39.8574C44.5334 36.677 42.9048 33.3047 41.6317 29.7931C40.3534 26.2854 39.4435 22.6542 38.9168 18.9581C38.3932 15.2753 38.2757 11.5461 38.5665 7.83765C38.6051 7.37699 38.6471 6.91809 38.6979 6.45744C38.7487 5.99679 38.013 5.85665 37.9622 6.33657L37.9605 6.32958Z" fill="black"/>
<path d="M30.2397 40.2878C31.4101 42.0275 32.6829 43.6961 34.0511 45.2849C35.4366 46.8878 36.9144 48.4084 38.4772 49.8389C41.5906 52.6886 45.0265 55.1646 48.7149 57.2164C50.5471 58.2359 52.4386 59.1448 54.3793 59.9383L55.1063 60.229C55.1969 60.267 55.2986 60.2688 55.3906 60.2339C55.4825 60.199 55.5575 60.1302 55.6001 60.0416C55.64 59.9514 55.643 59.8491 55.6083 59.7567C55.5736 59.6643 55.504 59.5893 55.4145 59.5477C51.5365 58.0316 47.8534 56.0583 44.443 53.6695C42.7346 52.4716 41.0971 51.1756 39.5387 49.7881C36.434 47.0333 33.6703 43.9168 31.3065 40.505C31.157 40.2913 31.0098 40.0759 30.865 39.8587C30.597 39.4594 29.9892 39.8885 30.252 40.2861L30.2397 40.2878Z" fill="black"/>
<path d="M140.098 71.1999C140.038 71.2 139.98 71.1795 139.933 71.1419C139.887 71.1043 139.855 71.0518 139.842 70.9932C138.833 66.4532 143.345 60.9114 143.534 60.6784C143.579 60.6245 143.643 60.5905 143.712 60.5837C143.782 60.577 143.851 60.5982 143.905 60.6425C143.959 60.6869 143.993 60.7508 144 60.8203C144.006 60.8898 143.985 60.9591 143.941 61.013C143.895 61.0673 139.401 66.5898 140.354 70.8793C140.369 70.9472 140.357 71.0182 140.319 71.077C140.282 71.1358 140.223 71.1774 140.156 71.1929C140.137 71.1969 140.117 71.1993 140.098 71.1999Z" fill="#1D1E1B"/>
<path d="M178.48 109.911C178.436 109.91 178.392 109.9 178.353 109.879C178.294 109.846 178.249 109.791 178.23 109.725C178.21 109.66 178.217 109.589 178.248 109.529C183.105 100.626 181.051 90.6121 181.035 90.5193C181.025 90.453 181.041 90.3854 181.079 90.3304C181.117 90.2753 181.175 90.2369 181.24 90.223C181.306 90.2091 181.374 90.2208 181.431 90.2557C181.489 90.2906 181.53 90.3461 181.548 90.4107C181.569 90.5123 183.662 100.701 178.709 109.781C178.686 109.821 178.652 109.854 178.612 109.877C178.572 109.9 178.526 109.911 178.48 109.911Z" fill="#1D1E1B"/>
<path d="M49.1118 100.313C49.0704 100.314 49.0295 100.304 48.9926 100.285C48.9557 100.266 48.924 100.238 48.8999 100.205C45.2602 95.1796 44.9535 90.5591 45.3371 87.5692C45.7522 84.3236 47.0169 82.2954 47.0712 82.2095C47.1105 82.1556 47.1687 82.1187 47.2342 82.1062C47.2997 82.0937 47.3675 82.1066 47.4239 82.1422C47.4803 82.1779 47.521 82.2336 47.5378 82.2982C47.5546 82.3627 47.5462 82.4312 47.5144 82.4898C47.5021 82.5108 46.2515 84.5233 45.8539 87.6603C45.4895 90.5521 45.7944 95.0167 49.3254 99.8965C49.3661 99.9533 49.3826 100.024 49.3715 100.093C49.3603 100.162 49.3224 100.223 49.2659 100.264C49.221 100.297 49.1671 100.314 49.1118 100.313Z" fill="#1D1E1B"/>
<path d="M118.114 41.0095C118.092 41.0119 118.07 41.0119 118.047 41.0095C117.98 40.9918 117.923 40.9481 117.887 40.888C117.852 40.8279 117.843 40.7563 117.86 40.6889L119.451 34.6812C119.468 34.6138 119.512 34.5563 119.572 34.5213C119.633 34.4864 119.705 34.4768 119.772 34.4946C119.839 34.5125 119.897 34.5565 119.932 34.6167C119.967 34.677 119.976 34.7487 119.958 34.8161L118.368 40.8221C118.352 40.8769 118.319 40.925 118.273 40.9589C118.227 40.9928 118.171 41.0105 118.114 41.0095Z" fill="#1D1E1B"/>
<path d="M121.121 42.2429C121.085 42.2431 121.049 42.2356 121.016 42.2208C120.983 42.206 120.953 42.1843 120.929 42.1571C120.905 42.1317 120.887 42.1019 120.875 42.0695C120.863 42.0371 120.858 42.0027 120.86 41.9682C120.861 41.9337 120.869 41.8998 120.884 41.8685C120.898 41.8373 120.919 41.8091 120.944 41.7858L125.008 38.0761C125.06 38.0385 125.125 38.0215 125.189 38.0283C125.253 38.0352 125.312 38.0655 125.356 38.1133C125.399 38.1611 125.423 38.2232 125.424 38.2877C125.424 38.3523 125.401 38.4147 125.358 38.4631L121.296 42.1834C121.247 42.224 121.185 42.2451 121.121 42.2429Z" fill="#1D1E1B"/>
<path d="M63.1627 151.654L63.1602 152.179L158.297 152.644L158.3 152.119L63.1627 151.654Z" fill="#1D1E1B"/>
<path d="M74.1709 156.455H50.1836V156.98H74.1709V156.455Z" fill="#1D1E1B"/>
<path d="M54.9092 79.6695C54.8402 79.6696 54.7727 79.6493 54.7152 79.6111C54.6577 79.5729 54.6126 79.5187 54.5859 79.455C54.5591 79.3914 54.5519 79.3213 54.5648 79.2535C54.5778 79.1858 54.6104 79.1233 54.6587 79.074C57.1585 76.608 59.882 74.3798 62.7945 72.4182C69.0755 68.2303 74.4142 66.787 78.6599 68.1269C78.7038 68.1407 78.7446 68.1631 78.7799 68.1926C78.8153 68.2222 78.8443 68.2584 78.8656 68.2992C78.8869 68.3401 78.9001 68.3847 78.9041 68.4305C78.9082 68.4764 78.9032 68.5226 78.8894 68.5666C78.8756 68.6105 78.8533 68.6513 78.8237 68.6866C78.7942 68.7219 78.758 68.751 78.7172 68.7723C78.6763 68.7936 78.6317 68.8067 78.5858 68.8108C78.5399 68.8148 78.4938 68.8098 78.4498 68.796C68.7866 65.7449 55.2946 79.4278 55.1544 79.5662C55.0895 79.6316 55.0013 79.6687 54.9092 79.6695Z" fill="white"/>
<path d="M138.985 87.0235C138.935 87.0236 138.885 87.0128 138.84 86.992C129.031 82.5203 118.937 82.2962 118.837 82.2944C118.744 82.293 118.656 82.2548 118.591 82.1881C118.526 82.1214 118.491 82.0317 118.492 81.9388C118.494 81.8459 118.532 81.7574 118.599 81.6927C118.665 81.628 118.755 81.5924 118.848 81.5938C118.951 81.5938 129.196 81.8232 139.131 86.3545C139.203 86.3876 139.263 86.4447 139.299 86.5163C139.334 86.5878 139.345 86.6694 139.328 86.7476C139.311 86.8258 139.267 86.8958 139.205 86.946C139.143 86.9962 139.065 87.0236 138.985 87.0235Z" fill="white"/>
<path d="M101.648 138.445C101.14 138.347 100.69 138.056 100.393 137.633C100.096 137.209 99.975 136.687 100.056 136.177L104.345 108.958C104.495 107.974 104.844 107.031 105.373 106.188C105.901 105.344 106.597 104.618 107.417 104.054C108.969 102.985 110.875 102.559 112.735 102.865L132.77 106.168C132.918 106.193 133.059 106.246 133.186 106.325C133.313 106.405 133.423 106.509 133.51 106.631C133.596 106.753 133.658 106.891 133.691 107.037C133.724 107.183 133.728 107.335 133.702 107.482L127.829 141.429C127.783 141.69 127.686 141.939 127.544 142.163C127.401 142.386 127.215 142.579 126.997 142.729C126.779 142.88 126.533 142.986 126.273 143.04C126.014 143.095 125.746 143.097 125.486 143.047L101.648 138.445Z" fill="white"/>
<path d="M125.869 143.359C125.723 143.359 125.577 143.345 125.433 143.317L101.596 138.72C101.017 138.61 100.503 138.279 100.165 137.796C99.826 137.314 99.689 136.718 99.7827 136.136L104.072 108.918C104.223 107.928 104.569 106.978 105.089 106.123C105.61 105.268 106.295 104.525 107.106 103.936C107.916 103.348 108.835 102.927 109.809 102.696C110.783 102.466 111.794 102.431 112.782 102.594L132.816 105.897C133 105.928 133.176 105.994 133.334 106.093C133.492 106.192 133.629 106.321 133.737 106.473C133.845 106.625 133.922 106.797 133.963 106.979C134.004 107.16 134.009 107.349 133.976 107.532L128.102 141.476C128.011 142.003 127.737 142.481 127.329 142.825C126.92 143.17 126.403 143.36 125.869 143.361V143.359ZM101.701 138.173L125.539 142.77C125.763 142.813 125.993 142.811 126.216 142.764C126.44 142.718 126.652 142.627 126.839 142.497C127.027 142.367 127.187 142.202 127.31 142.009C127.433 141.817 127.517 141.602 127.556 141.377L133.43 107.432C133.449 107.321 133.447 107.207 133.422 107.096C133.397 106.986 133.35 106.882 133.285 106.789C133.22 106.697 133.136 106.619 133.04 106.559C132.944 106.499 132.838 106.458 132.726 106.44L112.691 103.137C111.776 102.986 110.839 103.018 109.936 103.232C109.034 103.445 108.182 103.836 107.431 104.381C106.68 104.926 106.045 105.615 105.563 106.408C105.08 107.2 104.76 108.08 104.62 108.998L100.33 136.22C100.259 136.66 100.362 137.11 100.618 137.475C100.874 137.84 101.262 138.09 101.7 138.173H101.701Z" fill="black"/>
<path d="M107.895 113.252L115.027 140.822L100.453 137.12L104.072 111.876L105.366 111.638C105.913 111.538 106.479 111.648 106.948 111.948C107.417 112.247 107.756 112.713 107.895 113.252Z" fill="#EBEBEB"/>
<path d="M107.078 103.966C106.271 104.549 105.592 105.29 105.083 106.145C104.574 107 104.245 107.95 104.117 108.937L103.789 111.469C105.187 109.785 108.569 110.878 108.569 110.878C107.538 105.622 110.372 103.318 111.58 102.592C109.969 102.539 108.385 103.022 107.078 103.966Z" fill="#4BD657"/>
<path d="M110.395 103.018C109.077 104.181 107.517 106.437 108.116 110.381C107.235 110.18 105.515 109.927 104.269 110.618L104.48 108.987C104.675 107.482 105.359 106.082 106.428 105.004C107.497 103.925 108.891 103.229 110.395 103.021V103.018ZM111.583 102.595C109.773 102.535 108.005 103.151 106.624 104.325C105.243 105.498 104.35 107.144 104.117 108.94L103.789 111.472C105.187 109.788 108.569 110.881 108.569 110.881C107.538 105.625 110.372 103.321 111.58 102.595H111.583Z" fill="black"/>
<path d="M89.9948 155.304C89.4926 155.427 88.9623 155.349 88.5158 155.088C88.0694 154.828 87.7418 154.403 87.6022 153.906L80.1526 127.378C79.8786 126.421 79.8036 125.418 79.9321 124.431C80.0606 123.444 80.39 122.494 80.8999 121.639C81.8652 120.02 83.4205 118.838 85.2389 118.342L104.826 112.991C104.97 112.951 105.121 112.941 105.27 112.96C105.418 112.979 105.561 113.028 105.691 113.103C105.821 113.177 105.934 113.277 106.025 113.396C106.116 113.515 106.183 113.651 106.221 113.796L115.034 147.099C115.102 147.355 115.118 147.622 115.081 147.885C115.045 148.147 114.956 148.4 114.821 148.628C114.685 148.856 114.506 149.054 114.292 149.212C114.079 149.37 113.837 149.483 113.579 149.546L89.9948 155.304Z" fill="white"/>
<path d="M89.5137 155.639C89.0191 155.639 88.5382 155.477 88.1447 155.177C87.7512 154.878 87.4668 154.457 87.3351 153.981L79.8854 127.452C79.6101 126.49 79.5286 125.482 79.6456 124.488C79.7625 123.493 80.0756 122.532 80.5668 121.66C81.058 120.788 81.7174 120.021 82.5069 119.406C83.2964 118.79 84.2002 118.337 85.166 118.074L104.753 112.723C104.933 112.674 105.12 112.661 105.305 112.685C105.49 112.709 105.669 112.769 105.83 112.862C105.991 112.955 106.133 113.079 106.246 113.228C106.359 113.376 106.442 113.545 106.489 113.725L115.302 147.027C115.379 147.319 115.398 147.624 115.356 147.923C115.314 148.222 115.213 148.51 115.059 148.769C114.905 149.029 114.7 149.255 114.457 149.435C114.215 149.614 113.938 149.744 113.645 149.815L90.0613 155.573C89.8821 155.617 89.6982 155.639 89.5137 155.639ZM105.126 113.227C105.049 113.227 104.973 113.238 104.899 113.258L85.3118 118.608C84.4167 118.853 83.579 119.273 82.8474 119.843C82.1157 120.414 81.5046 121.124 81.0495 121.933C80.5943 122.742 80.3042 123.632 80.196 124.554C80.0877 125.476 80.1634 126.41 80.4188 127.302L87.8684 153.831C87.9875 154.26 88.2694 154.627 88.6543 154.851C89.0391 155.076 89.4965 155.141 89.929 155.034L113.513 149.276C113.734 149.222 113.943 149.124 114.126 148.988C114.31 148.853 114.464 148.682 114.581 148.485C114.697 148.289 114.774 148.072 114.806 147.846C114.837 147.62 114.824 147.39 114.766 147.169L105.952 113.867C105.904 113.684 105.797 113.522 105.648 113.406C105.498 113.291 105.314 113.228 105.125 113.227H105.126Z" fill="black"/>
<path d="M80.5519 121.577C80.0422 122.432 79.713 123.382 79.5845 124.369C79.456 125.356 79.5308 126.359 79.8045 127.316L80.5067 129.773C81.1225 127.672 84.6603 127.335 84.6603 127.335C81.6281 122.92 83.3185 119.68 84.1435 118.533C82.6426 119.123 81.3795 120.193 80.5519 121.577Z" fill="#4BD657"/>
<path d="M83.2185 119.396C82.4696 120.986 81.9323 123.676 84.0467 127.059C83.1575 127.224 81.4782 127.673 80.6072 128.803L80.1547 127.218C79.7363 125.758 79.8096 124.202 80.3633 122.788C80.917 121.375 81.9203 120.183 83.2185 119.396V119.396ZM84.1442 118.532C82.4578 119.194 81.0788 120.461 80.2765 122.086C79.4742 123.711 79.3061 125.576 79.8052 127.318L80.5074 129.774C81.1231 127.674 84.6609 127.337 84.6609 127.337C81.6287 122.922 83.3192 119.682 84.1442 118.535V118.532Z" fill="black"/>
<path d="M93.4084 143.766L90.5879 144.45C89.8835 144.62 89.451 145.33 89.6218 146.034L90.3057 148.855C90.4765 149.559 91.1859 149.992 91.8903 149.821L94.7108 149.137C95.4152 148.966 95.8478 148.257 95.677 147.552L94.9931 144.732C94.8223 144.027 94.1128 143.595 93.4084 143.766Z" fill="#4BD657"/>
<path d="M90.842 149.92C90.8103 149.904 90.7786 149.885 90.7469 149.866C90.5791 149.765 90.4331 149.631 90.3175 149.472C90.2018 149.314 90.1188 149.134 90.0733 148.943L89.3894 146.123C89.2965 145.738 89.3601 145.331 89.5663 144.993C89.7726 144.655 90.1045 144.412 90.4894 144.319L93.3099 143.635C93.5006 143.589 93.6985 143.58 93.8923 143.611C94.0861 143.641 94.2721 143.709 94.4396 143.811C94.6071 143.913 94.7529 144.048 94.8685 144.206C94.9842 144.364 95.0675 144.544 95.1137 144.735L95.7976 147.555C95.8907 147.94 95.8272 148.347 95.6209 148.685C95.4147 149.023 95.0826 149.266 94.6976 149.359L91.877 150.043C91.5285 150.128 91.1609 150.085 90.842 149.92ZM94.1785 144.081C93.9374 143.956 93.6591 143.923 93.3955 143.988L90.575 144.671C90.2838 144.743 90.0326 144.926 89.8765 145.182C89.7204 145.438 89.672 145.745 89.742 146.037L90.426 148.858C90.4967 149.149 90.6803 149.4 90.9364 149.557C91.1924 149.713 91.5 149.761 91.7915 149.69L94.612 149.006C94.7564 148.972 94.8924 148.908 95.0124 148.821C95.1323 148.733 95.2338 148.623 95.3111 148.496C95.3884 148.369 95.4399 148.229 95.4627 148.082C95.4856 147.935 95.4793 147.785 95.4442 147.641L94.761 144.82C94.7263 144.676 94.6633 144.54 94.5757 144.42C94.4881 144.3 94.3776 144.199 94.2506 144.121C94.2292 144.107 94.2031 144.094 94.1785 144.081Z" fill="black"/>
<path d="M97.9888 145.839C97.956 145.822 97.9291 145.796 97.9118 145.763C97.8944 145.73 97.8875 145.693 97.8919 145.657C97.8963 145.62 97.9118 145.585 97.9364 145.558C97.9609 145.53 97.9933 145.51 98.0293 145.502L110.134 142.569C110.157 142.563 110.182 142.562 110.206 142.565C110.23 142.569 110.253 142.577 110.273 142.589C110.294 142.601 110.312 142.618 110.326 142.637C110.341 142.657 110.351 142.679 110.357 142.702C110.362 142.726 110.363 142.75 110.359 142.774C110.356 142.798 110.347 142.82 110.334 142.841C110.322 142.861 110.305 142.879 110.285 142.893C110.266 142.907 110.243 142.917 110.22 142.922L98.1148 145.854C98.0724 145.864 98.0278 145.859 97.9888 145.839Z" fill="black"/>
<path d="M92.5828 147.952L92.5701 147.945L90.863 146.873C90.8421 146.861 90.8238 146.845 90.8093 146.825C90.7948 146.806 90.7844 146.784 90.7786 146.76C90.7729 146.736 90.7719 146.712 90.7757 146.688C90.7796 146.664 90.7882 146.641 90.8011 146.621C90.814 146.6 90.8309 146.582 90.8507 146.568C90.8706 146.554 90.8931 146.545 90.9168 146.539C90.9405 146.534 90.965 146.534 90.9889 146.539C91.0127 146.543 91.0354 146.552 91.0556 146.566L92.5796 147.522L93.5306 145.191C93.5488 145.146 93.584 145.111 93.6284 145.092C93.6728 145.073 93.7229 145.073 93.7676 145.091C93.8123 145.109 93.8479 145.144 93.8666 145.189C93.8853 145.233 93.8856 145.283 93.8674 145.328L92.8372 147.859C92.8271 147.884 92.8118 147.906 92.7924 147.924C92.7729 147.942 92.7498 147.956 92.7246 147.964C92.7014 147.972 92.6769 147.974 92.6525 147.972C92.6281 147.97 92.6044 147.963 92.5828 147.952Z" fill="black"/>
<path d="M91.1818 135.399L88.3614 136.083C87.657 136.254 87.2244 136.963 87.3952 137.667L88.0791 140.488C88.2499 141.192 88.9594 141.625 89.6638 141.454L92.4842 140.77C93.1886 140.599 93.6212 139.89 93.4504 139.186L92.7665 136.365C92.5957 135.661 91.8862 135.228 91.1818 135.399Z" fill="#4BD657"/>
<path d="M88.6155 141.553C88.583 141.536 88.5513 141.518 88.5204 141.5C88.3526 141.398 88.2066 141.264 88.0909 141.105C87.9751 140.947 87.8919 140.767 87.846 140.576L87.1628 137.755C87.0699 137.37 87.1335 136.964 87.3398 136.626C87.546 136.288 87.878 136.045 88.2628 135.951L91.0826 135.267C91.4677 135.174 91.8741 135.238 92.2125 135.444C92.5508 135.65 92.7935 135.982 92.8871 136.367L93.5711 139.188C93.6642 139.573 93.6007 139.98 93.3944 140.318C93.1882 140.656 92.8561 140.899 92.4711 140.993L89.6505 141.676C89.302 141.762 88.9342 141.718 88.6155 141.553ZM91.952 135.714C91.7105 135.589 91.4321 135.556 91.1682 135.621L88.3484 136.304C88.0572 136.375 87.806 136.559 87.6499 136.815C87.4938 137.071 87.4455 137.378 87.5155 137.67L88.1994 140.49C88.2702 140.782 88.4538 141.033 88.7098 141.189C88.9658 141.345 89.2734 141.394 89.5649 141.323L92.3855 140.639C92.5298 140.604 92.6658 140.541 92.7858 140.454C92.9057 140.366 93.0073 140.256 93.0846 140.129C93.1619 140.002 93.2134 139.861 93.2362 139.715C93.259 139.568 93.2527 139.418 93.2176 139.274L92.5337 136.453C92.4992 136.309 92.4363 136.173 92.3489 136.053C92.2614 135.933 92.151 135.831 92.0241 135.754C92.0003 135.74 91.9765 135.726 91.952 135.714Z" fill="black"/>
<path d="M89.2248 127.306L86.4043 127.99C85.6999 128.161 85.2674 128.87 85.4382 129.575L86.1221 132.395C86.2929 133.1 87.0024 133.532 87.7068 133.361L90.5272 132.678C91.2316 132.507 91.6642 131.797 91.4934 131.093L90.8095 128.272C90.6387 127.568 89.9292 127.135 89.2248 127.306Z" fill="#4BD657"/>
<path d="M86.6584 133.46C86.6259 133.444 86.5943 133.425 86.5633 133.407C86.3956 133.305 86.2496 133.171 86.1339 133.012C86.0181 132.854 85.9348 132.674 85.8889 132.483L85.2058 129.662C85.1129 129.277 85.1765 128.871 85.3827 128.533C85.589 128.195 85.9209 127.952 86.3058 127.859L89.1256 127.175C89.5107 127.082 89.917 127.145 90.2554 127.351C90.5937 127.558 90.8364 127.89 90.9301 128.275L91.614 131.095C91.7072 131.48 91.6436 131.887 91.4374 132.225C91.2311 132.564 90.8991 132.806 90.514 132.9L87.6935 133.583C87.345 133.669 86.9772 133.625 86.6584 133.46ZM89.9949 127.621C89.7535 127.496 89.475 127.463 89.2112 127.528L86.3914 128.211C86.1002 128.282 85.849 128.466 85.6929 128.722C85.5368 128.978 85.4884 129.285 85.5584 129.577L86.2424 132.397C86.3131 132.689 86.4967 132.94 86.7528 133.096C87.0088 133.253 87.3164 133.301 87.6079 133.23L90.4284 132.546C90.5728 132.511 90.7088 132.448 90.8288 132.361C90.9487 132.273 91.0502 132.163 91.1275 132.036C91.2048 131.909 91.2563 131.768 91.2792 131.622C91.302 131.475 91.2957 131.325 91.2606 131.181L90.5767 128.36C90.5421 128.216 90.4793 128.08 90.3918 127.96C90.3044 127.84 90.194 127.738 90.067 127.661C90.0433 127.647 90.0195 127.634 89.9949 127.621Z" fill="black"/>
<path d="M102.395 117.671L87.5499 121.27C86.8536 121.439 86.4259 122.141 86.5948 122.837C86.7636 123.533 87.465 123.961 88.1613 123.792L103.006 120.193C103.702 120.024 104.13 119.322 103.961 118.626C103.792 117.93 103.091 117.502 102.395 117.671Z" fill="#4BD657"/>
<path d="M87.1272 123.891C86.8588 123.753 86.6391 123.536 86.4974 123.27C86.3557 123.004 86.2989 122.7 86.3346 122.401C86.3703 122.101 86.4968 121.82 86.6972 121.594C86.8975 121.369 87.162 121.21 87.4553 121.139L102.301 117.54C102.49 117.494 102.686 117.486 102.878 117.515C103.07 117.545 103.254 117.612 103.421 117.714C103.587 117.815 103.731 117.947 103.846 118.104C103.961 118.261 104.043 118.44 104.089 118.629C104.135 118.818 104.143 119.014 104.113 119.206C104.083 119.398 104.015 119.582 103.914 119.748C103.812 119.914 103.679 120.058 103.522 120.173C103.365 120.287 103.186 120.369 102.997 120.415L88.1527 124.014C87.8072 124.098 87.4429 124.054 87.1272 123.891ZM103.16 117.987C102.922 117.863 102.647 117.83 102.386 117.894L87.5409 121.493C87.2585 121.567 87.0167 121.75 86.8673 122C86.7179 122.251 86.6727 122.551 86.7416 122.835C86.8105 123.118 86.9879 123.364 87.2357 123.518C87.4835 123.673 87.782 123.724 88.0671 123.661L102.912 120.062C103.133 120.009 103.332 119.889 103.483 119.719C103.635 119.549 103.73 119.336 103.757 119.111C103.784 118.885 103.741 118.656 103.635 118.455C103.528 118.254 103.362 118.091 103.16 117.987Z" fill="black"/>
<path d="M93.7516 129.159C93.7185 129.142 93.6913 129.115 93.6737 129.082C93.6562 129.05 93.6492 129.012 93.6536 128.975C93.658 128.938 93.6737 128.904 93.6984 128.876C93.7232 128.848 93.7558 128.829 93.792 128.82L105.897 125.888C105.944 125.877 105.993 125.884 106.034 125.909C106.076 125.935 106.105 125.975 106.116 126.022C106.128 126.069 106.12 126.118 106.095 126.159C106.07 126.201 106.029 126.23 105.982 126.241L93.8776 129.174C93.8351 129.184 93.7905 129.178 93.7516 129.159Z" fill="black"/>
<path d="M95.7623 137.472C95.7294 137.455 95.7025 137.428 95.6852 137.395C95.6679 137.363 95.661 137.326 95.6653 137.289C95.6697 137.252 95.6853 137.218 95.7098 137.19C95.7344 137.162 95.7668 137.143 95.8027 137.134L107.908 134.202C107.931 134.196 107.955 134.194 107.979 134.198C108.003 134.201 108.026 134.209 108.047 134.221C108.067 134.234 108.085 134.25 108.1 134.27C108.114 134.289 108.124 134.311 108.13 134.334C108.136 134.358 108.137 134.382 108.133 134.406C108.129 134.43 108.121 134.453 108.108 134.473C108.095 134.494 108.078 134.511 108.059 134.525C108.039 134.539 108.017 134.549 107.993 134.554L95.8883 137.487C95.8459 137.497 95.8011 137.492 95.7623 137.472Z" fill="black"/>
<path d="M129.215 110.658L114.093 108.366C113.384 108.259 112.721 108.747 112.614 109.456C112.507 110.166 112.994 110.828 113.704 110.935L128.826 113.226C129.535 113.334 130.197 112.846 130.305 112.137C130.412 111.427 129.924 110.765 129.215 110.658Z" fill="#4BD657"/>
<path d="M112.431 109.544C112.123 109.382 111.881 109.116 111.75 108.792C111.618 108.469 111.605 108.11 111.713 107.778C111.821 107.446 112.043 107.163 112.339 106.979C112.635 106.794 112.987 106.721 113.332 106.771L128.435 109.063C128.627 109.092 128.811 109.158 128.977 109.259C129.144 109.359 129.288 109.491 129.404 109.648C129.519 109.804 129.602 109.982 129.648 110.17C129.695 110.359 129.704 110.555 129.675 110.747C129.646 110.939 129.579 111.123 129.479 111.289C129.378 111.456 129.246 111.601 129.09 111.716C128.933 111.831 128.756 111.914 128.567 111.961C128.379 112.007 128.183 112.016 127.991 111.987L112.889 109.695C112.729 109.67 112.575 109.619 112.431 109.544ZM128.725 109.53C128.617 109.474 128.5 109.437 128.38 109.418L113.278 107.127C112.987 107.086 112.692 107.162 112.456 107.337C112.221 107.513 112.064 107.774 112.02 108.064C111.976 108.355 112.049 108.651 112.221 108.888C112.394 109.126 112.654 109.285 112.943 109.333L128.045 111.625C128.307 111.663 128.573 111.608 128.797 111.469C129.022 111.33 129.189 111.116 129.271 110.865C129.352 110.614 129.342 110.342 129.243 110.098C129.143 109.853 128.959 109.652 128.725 109.53Z" fill="black"/>
<path d="M110.363 115.735C110.325 115.715 110.295 115.683 110.279 115.643C110.263 115.603 110.261 115.559 110.275 115.518C110.288 115.477 110.315 115.442 110.351 115.42C110.388 115.397 110.431 115.388 110.474 115.394L128.601 118.145C128.624 118.148 128.647 118.157 128.667 118.169C128.688 118.181 128.706 118.197 128.72 118.217C128.734 118.236 128.744 118.258 128.75 118.281C128.755 118.304 128.757 118.328 128.753 118.352C128.749 118.375 128.741 118.398 128.729 118.418C128.716 118.439 128.7 118.456 128.681 118.47C128.662 118.485 128.64 118.495 128.617 118.501C128.594 118.506 128.57 118.507 128.546 118.504L110.419 115.754C110.399 115.751 110.38 115.744 110.363 115.735Z" fill="black"/>
<path d="M110.015 118.763C109.976 118.744 109.945 118.711 109.928 118.671C109.911 118.631 109.909 118.586 109.923 118.545C109.936 118.503 109.964 118.468 110.001 118.446C110.038 118.423 110.082 118.414 110.125 118.421L128.09 121.148C128.113 121.151 128.136 121.159 128.156 121.172C128.177 121.184 128.194 121.2 128.208 121.219C128.223 121.239 128.233 121.26 128.238 121.284C128.244 121.307 128.245 121.331 128.242 121.354C128.238 121.378 128.23 121.401 128.218 121.421C128.205 121.441 128.189 121.459 128.17 121.473C128.151 121.487 128.129 121.498 128.106 121.503C128.082 121.509 128.058 121.51 128.035 121.507L110.07 118.78C110.051 118.778 110.032 118.772 110.015 118.763Z" fill="black"/>
<path d="M118.919 124.039C118.88 124.019 118.85 123.986 118.834 123.946C118.818 123.907 118.816 123.862 118.829 123.821C118.842 123.781 118.87 123.746 118.906 123.723C118.943 123.7 118.986 123.691 119.029 123.698L128.289 125.103C128.312 125.107 128.335 125.115 128.355 125.127C128.376 125.139 128.393 125.156 128.407 125.175C128.422 125.194 128.432 125.216 128.437 125.239C128.443 125.262 128.444 125.286 128.441 125.31C128.437 125.333 128.429 125.356 128.417 125.376C128.404 125.397 128.388 125.415 128.369 125.429C128.35 125.443 128.328 125.453 128.305 125.459C128.281 125.464 128.257 125.466 128.234 125.462L118.974 124.057C118.955 124.054 118.936 124.048 118.919 124.039Z" fill="black"/>
<path d="M86.832 130.018L88.3988 131.592L89.4116 128.731" fill="#4BD657"/>
<path d="M88.3135 131.754C88.2968 131.745 88.2816 131.734 88.2683 131.72L86.7015 130.147C86.6674 130.112 86.6484 130.066 86.6484 130.018C86.6485 129.97 86.6677 129.923 86.7019 129.889C86.736 129.855 86.7823 129.836 86.8305 129.836C86.8788 129.836 86.925 129.856 86.9591 129.89L88.3222 131.26L89.2359 128.669C89.2439 128.647 89.2562 128.626 89.2722 128.608C89.2881 128.591 89.3075 128.576 89.329 128.566C89.3505 128.556 89.3738 128.55 89.3976 128.549C89.4214 128.547 89.4453 128.551 89.4677 128.559C89.4902 128.567 89.5109 128.579 89.5287 128.595C89.5464 128.611 89.5608 128.63 89.5711 128.652C89.5813 128.673 89.5872 128.697 89.5885 128.72C89.5897 128.744 89.5863 128.768 89.5783 128.791L88.5647 131.652C88.556 131.676 88.5423 131.698 88.5243 131.717C88.5063 131.736 88.4845 131.75 88.4604 131.76C88.4363 131.769 88.4104 131.773 88.3845 131.772C88.3586 131.771 88.3333 131.764 88.3103 131.752L88.3135 131.754Z" fill="black"/>
<path d="M90.3602 139.586L90.3467 139.578L88.6396 138.506C88.5989 138.481 88.5699 138.44 88.5592 138.393C88.5485 138.346 88.5569 138.297 88.5826 138.256C88.6082 138.215 88.649 138.186 88.696 138.175C88.7429 138.165 88.7922 138.173 88.833 138.199L90.357 139.155L91.308 136.824C91.317 136.802 91.3302 136.782 91.3469 136.765C91.3637 136.748 91.3836 136.735 91.4055 136.725C91.4275 136.716 91.4511 136.711 91.475 136.711C91.4988 136.711 91.5225 136.715 91.5446 136.724C91.5667 136.733 91.5869 136.746 91.6039 136.763C91.6209 136.78 91.6344 136.8 91.6437 136.822C91.653 136.844 91.6579 136.867 91.6581 136.891C91.6583 136.915 91.6538 136.939 91.6448 136.961L90.6146 139.492C90.6047 139.517 90.5895 139.539 90.57 139.557C90.5506 139.575 90.5274 139.589 90.502 139.597C90.4789 139.604 90.4544 139.607 90.43 139.605C90.4056 139.604 90.3819 139.597 90.3602 139.586Z" fill="black"/>
<path d="M78.6663 128.15C78.6255 128.129 78.5943 128.094 78.5791 128.05C77.1732 124.132 78.591 121.261 80.0279 119.542C80.9963 118.392 82.1762 117.439 83.5038 116.735C83.547 116.714 83.5966 116.712 83.6417 116.728C83.6869 116.743 83.7239 116.776 83.7447 116.82C83.7656 116.863 83.7687 116.912 83.7533 116.957C83.7378 117.003 83.7051 117.04 83.6623 117.061C82.3803 117.75 81.2391 118.673 80.2981 119.784C78.3026 122.176 77.8413 124.916 78.9199 127.927C78.9323 127.962 78.9341 127.999 78.925 128.034C78.9158 128.07 78.8963 128.102 78.8688 128.126C78.8413 128.15 78.8072 128.165 78.771 128.169C78.7347 128.174 78.6979 128.167 78.6655 128.15H78.6663Z" fill="black"/>
<path d="M122.244 102.343C122.205 102.324 122.175 102.291 122.158 102.251C122.142 102.211 122.14 102.166 122.154 102.125C122.167 102.084 122.195 102.049 122.232 102.026C122.269 102.004 122.313 101.995 122.355 102.002L131.493 103.466C131.517 103.469 131.54 103.477 131.561 103.49C131.582 103.502 131.6 103.518 131.614 103.538C131.629 103.557 131.639 103.58 131.645 103.603C131.651 103.627 131.652 103.651 131.648 103.675C131.644 103.699 131.635 103.722 131.622 103.742C131.61 103.763 131.593 103.781 131.573 103.795C131.553 103.808 131.531 103.818 131.507 103.823C131.483 103.829 131.459 103.829 131.435 103.824L122.298 102.357C122.279 102.355 122.261 102.351 122.244 102.343Z" fill="black"/>
<defs>
<filter id="filter0_d_2985_45315" x="-2.14696" y="57.4859" width="20.6338" height="20.6313" filterUnits="userSpaceOnUse" color-interpolation-filters="sRGB">
<feFlood flood-opacity="0" result="BackgroundImageFix"/>
<feColorMatrix in="SourceAlpha" type="matrix" values="0 0 0 0 0 0 0 0 0 0 0 0 0 0 0 0 0 0 127 0" result="hardAlpha"/>
<feOffset dy="1.08642"/>
<feGaussianBlur stdDeviation="2.71606"/>
<feComposite in2="hardAlpha" operator="out"/>
<feColorMatrix type="matrix" values="0 0 0 0 0 0 0 0 0 0 0 0 0 0 0 0 0 0 0.05 0"/>
<feBlend mode="normal" in2="BackgroundImageFix" result="effect1_dropShadow_2985_45315"/>
<feBlend mode="normal" in="SourceGraphic" in2="effect1_dropShadow_2985_45315" result="shape"/>
</filter>
<filter id="filter1_d_2985_45315" x="197.677" y="88.1148" width="20.6338" height="20.6338" filterUnits="userSpaceOnUse" color-interpolation-filters="sRGB">
<feFlood flood-opacity="0" result="BackgroundImageFix"/>
<feColorMatrix in="SourceAlpha" type="matrix" values="0 0 0 0 0 0 0 0 0 0 0 0 0 0 0 0 0 0 127 0" result="hardAlpha"/>
<feOffset dy="1.08642"/>
<feGaussianBlur stdDeviation="2.71606"/>
<feComposite in2="hardAlpha" operator="out"/>
<feColorMatrix type="matrix" values="0 0 0 0 0 0 0 0 0 0 0 0 0 0 0 0 0 0 0.05 0"/>
<feBlend mode="normal" in2="BackgroundImageFix" result="effect1_dropShadow_2985_45315"/>
<feBlend mode="normal" in="SourceGraphic" in2="effect1_dropShadow_2985_45315" result="shape"/>
</filter>
<linearGradient id="paint0_linear_2985_45315" x1="10.9068" y1="59.7534" x2="209.092" y2="106.958" gradientUnits="userSpaceOnUse">
<stop stop-color="#CDD5E2"/>
<stop offset="1" stop-color="#CDD5E2" stop-opacity="0"/>
</linearGradient>
<linearGradient id="paint1_linear_2985_45315" x1="208.75" y1="104.233" x2="188.718" y2="156.823" gradientUnits="userSpaceOnUse">
<stop stop-color="#CDD5E2"/>
<stop offset="1" stop-color="#CDD5E2" stop-opacity="0"/>
</linearGradient>
<linearGradient id="paint2_linear_2985_45315" x1="104.804" y1="12.4053" x2="104.804" y2="194.669" gradientUnits="userSpaceOnUse">
<stop stop-color="#CDD5E2"/>
<stop offset="1" stop-color="#CDD5E2" stop-opacity="0"/>
</linearGradient>
<linearGradient id="paint3_linear_2985_45315" x1="104.804" y1="30.6313" x2="104.804" y2="176.443" gradientUnits="userSpaceOnUse">
<stop stop-color="#CDD5E2"/>
<stop offset="1" stop-color="#CDD5E2" stop-opacity="0"/>
</linearGradient>
</defs>
</svg>
