<svg width="136" height="136" viewBox="0 0 136 136" fill="none" xmlns="http://www.w3.org/2000/svg">
<g filter="url(#filter0_b_10095_59209)">
<circle cx="68" cy="68" r="56" fill="white" fill-opacity="0.3"/>
<circle cx="68" cy="68" r="62" stroke="url(#paint0_linear_10095_59209)" stroke-width="12"/>
</g>
<path d="M78.98 63.1998L55.2 77.5398C53.8 78.3798 52 77.3798 52 75.7398V59.7398C52 52.7598 59.54 48.3998 65.6 51.8798L74.78 57.1598L78.96 59.5598C80.34 60.3798 80.36 62.3798 78.98 63.1998Z" fill="white"/>
<path d="M80.1796 74.9198L72.0796 79.5998L63.9996 84.2598C61.0996 85.9198 57.8196 85.5798 55.4396 83.8998C54.2796 83.0998 54.4196 81.3198 55.6396 80.5998L81.0596 65.3598C82.2596 64.6398 83.8396 65.3198 84.0596 66.6998C84.5596 69.7998 83.2796 73.1398 80.1796 74.9198Z" fill="white"/>
<defs>
<filter id="filter0_b_10095_59209" x="-8" y="-8" width="152" height="152" filterUnits="userSpaceOnUse" color-interpolation-filters="sRGB">
<feFlood flood-opacity="0" result="BackgroundImageFix"/>
<feGaussianBlur in="BackgroundImageFix" stdDeviation="4"/>
<feComposite in2="SourceAlpha" operator="in" result="effect1_backgroundBlur_10095_59209"/>
<feBlend mode="normal" in="SourceGraphic" in2="effect1_backgroundBlur_10095_59209" result="shape"/>
</filter>
<linearGradient id="paint0_linear_10095_59209" x1="31.5" y1="12" x2="117" y2="118" gradientUnits="userSpaceOnUse">
<stop stop-color="white"/>
<stop offset="1" stop-color="white" stop-opacity="0"/>
</linearGradient>
</defs>
</svg>
