<svg width="285" height="212" viewBox="0 0 285 212" fill="none" xmlns="http://www.w3.org/2000/svg">
<mask id="mask0_10107_64847" style="mask-type:alpha" maskUnits="userSpaceOnUse" x="0" y="0" width="285" height="212">
<rect width="285" height="212" fill="#D9D9D9"/>
</mask>
<g mask="url(#mask0_10107_64847)">
<g opacity="0.5">
<mask id="path-2-inside-1_10107_64847" fill="white">
<path d="M273.871 142.256C275.287 109.771 265.017 77.8543 244.923 52.2905C224.829 26.7266 196.242 9.20795 164.342 2.91007C132.441 -3.3878 99.3407 1.95193 71.0393 17.9614C42.7378 33.9708 21.1088 59.5903 10.0729 90.1759L10.6626 90.3887C21.6477 59.944 43.1769 34.4426 71.3479 18.507C99.5189 2.57137 132.467 -2.74374 164.22 3.5251C195.973 9.79394 224.429 27.2318 244.43 52.6779C264.432 78.1239 274.654 109.894 273.245 142.229L273.871 142.256Z"/>
</mask>
<path d="M273.871 142.256C275.287 109.771 265.017 77.8543 244.923 52.2905C224.829 26.7266 196.242 9.20795 164.342 2.91007C132.441 -3.3878 99.3407 1.95193 71.0393 17.9614C42.7378 33.9708 21.1088 59.5903 10.0729 90.1759L10.6626 90.3887C21.6477 59.944 43.1769 34.4426 71.3479 18.507C99.5189 2.57137 132.467 -2.74374 164.22 3.5251C195.973 9.79394 224.429 27.2318 244.43 52.6779C264.432 78.1239 274.654 109.894 273.245 142.229L273.871 142.256Z" stroke="url(#paint0_linear_10107_64847)" stroke-width="2" stroke-dasharray="3 3" mask="url(#path-2-inside-1_10107_64847)"/>
</g>
<g opacity="0.5">
<mask id="path-3-inside-2_10107_64847" fill="white">
<path d="M10.256 182.994C21.4116 213.536 43.1407 239.07 71.5046 254.969C99.8685 270.867 132.99 276.078 164.865 269.655C196.74 263.232 225.259 245.602 245.253 219.96C265.247 194.317 275.391 162.36 273.848 129.881L273.222 129.911C274.758 162.24 264.66 194.05 244.759 219.574C224.857 245.098 196.469 262.647 164.741 269.04C133.013 275.433 100.044 270.247 71.8111 254.422C43.578 238.597 21.949 213.18 10.8449 182.778L10.256 182.994Z"/>
</mask>
<path d="M10.256 182.994C21.4116 213.536 43.1407 239.07 71.5046 254.969C99.8685 270.867 132.99 276.078 164.865 269.655C196.74 263.232 225.259 245.602 245.253 219.96C265.247 194.317 275.391 162.36 273.848 129.881L273.222 129.911C274.758 162.24 264.66 194.05 244.759 219.574C224.857 245.098 196.469 262.647 164.741 269.04C133.013 275.433 100.044 270.247 71.8111 254.422C43.578 238.597 21.949 213.18 10.8449 182.778L10.256 182.994Z" stroke="url(#paint1_linear_10107_64847)" stroke-width="2" stroke-dasharray="3 3" mask="url(#path-3-inside-2_10107_64847)"/>
</g>
<circle opacity="0.08" cx="138" cy="136.335" r="120" fill="url(#paint2_linear_10107_64847)"/>
<circle opacity="0.1" cx="138" cy="136.335" r="96" fill="url(#paint3_linear_10107_64847)"/>
<circle cx="138" cy="136.335" r="64" fill="white"/>
<g filter="url(#filter0_d_10107_64847)">
<circle cx="10.7606" cy="87.8481" r="5" transform="rotate(-2.50406 10.7606 87.8481)" fill="#0170FF"/>
<circle cx="10.7606" cy="87.8481" r="5.71528" transform="rotate(-2.50406 10.7606 87.8481)" stroke="white" stroke-width="1.43057"/>
</g>
<g filter="url(#filter1_d_10107_64847)">
<circle cx="273.881" cy="128.181" r="5" transform="rotate(-15.7345 273.881 128.181)" fill="#0170FF"/>
<circle cx="273.881" cy="128.181" r="5.71528" transform="rotate(-15.7345 273.881 128.181)" stroke="white" stroke-width="1.43057"/>
</g>
</g>
<path d="M222.081 17.7485H102.302C101.054 17.7484 99.8185 17.9965 98.6672 18.478C97.516 18.9596 96.472 19.6651 95.5958 20.5538C94.7197 21.4424 94.0289 22.4963 93.5636 23.6542C93.0984 24.8122 92.868 26.0511 92.8857 27.2989L94.635 151.06" fill="white"/>
<path d="M94.2492 151.068L92.5127 27.3038C92.4943 26.0058 92.7337 24.7171 93.2173 23.5124C93.7008 22.3076 94.4188 21.2108 95.3295 20.2857C96.2402 19.3606 97.3255 18.6257 98.5225 18.1233C99.7195 17.621 101.004 17.3613 102.303 17.3594H222.081V18.1323H102.303C101.106 18.1321 99.9209 18.3698 98.8169 18.8317C97.7129 19.2935 96.7117 19.9702 95.8715 20.8224C95.0313 21.6746 94.3689 22.6853 93.9227 23.7958C93.4766 24.9062 93.2557 26.0942 93.2728 27.2909L95.0221 151.052L94.2492 151.068Z" fill="#1D1E1B"/>
<path d="M130.336 73.446L93.4414 74.2124L93.4575 74.9851L130.352 74.2187L130.336 73.446Z" fill="#1D1E1B"/>
<path d="M178.026 17.748C178.026 17.748 170.297 58.1955 207.396 103.023C202.81 116.375 202.441 127.636 206.88 136.514C206.88 136.514 226.46 155.836 233.673 148.88C235.557 147.064 233.743 125.547 233.931 113.07C234.23 93.2096 238.146 77.7107 240.629 55.3616C242.69 36.8124 242.466 21.87 240.887 19.0361C235.992 10.2768 177.768 10.5344 178.026 17.748Z" fill="white"/>
<path d="M229.624 150.779C220.903 150.779 207.29 137.462 206.61 136.79L206.564 136.746L206.535 136.687C202.186 127.992 202.331 116.692 206.96 103.102C198.539 92.9004 191.76 82.0801 186.804 70.9455C182.89 62.2245 180.073 53.0516 178.418 43.637C175.821 28.5426 177.508 18.4488 177.645 17.7145C177.627 16.3027 179.247 15.1614 182.597 14.2263C189.38 12.3301 202.606 11.5418 215.508 12.2657C222.351 12.6496 238.556 14.0691 241.23 18.8429C242.809 21.6768 243.162 36.104 241.019 55.4003C240.109 63.5903 239.017 70.7935 237.961 77.7598C236.188 89.4586 234.511 100.508 234.323 113.073C234.256 117.537 234.447 123.182 234.63 128.641C235.034 140.564 235.214 147.932 233.947 149.153C232.762 150.295 231.28 150.779 229.624 150.779ZM207.197 136.285C208.246 137.315 226.708 155.063 233.406 148.602C234.49 147.556 234.15 137.524 233.852 128.675C233.669 123.205 233.478 117.55 233.545 113.065C233.736 100.441 235.413 89.3633 237.19 77.649C238.247 70.693 239.336 63.4949 240.246 55.3204C242.343 36.4415 242.049 21.8856 240.55 19.2243C238.824 16.1328 229.446 13.827 215.459 13.0413C202.836 12.3328 189.403 13.1263 182.8 14.9735C179.935 15.7747 178.377 16.7537 178.42 17.7327V17.7764V17.8176C178.402 17.9206 176.532 28.0712 179.193 43.5468C181.659 57.8297 188.604 79.6996 207.7 102.775L207.839 102.94L207.769 103.146C203.142 116.595 202.954 127.742 207.197 136.285Z" fill="black"/>
<path d="M148.398 60.7718L147.367 22.3853V17.748" fill="white"/>
<path d="M148.011 60.7821L146.98 22.3957V17.748H147.753V22.3853L148.784 60.7616L148.011 60.7821Z" fill="#1D1E1B"/>
<path d="M208.65 86.7898C197.673 74.2047 193.818 58.9661 192.52 48.3905C191.113 36.9415 192.317 28.3419 192.327 28.2568L193.1 28.3677C193.1 28.4527 191.899 36.9672 193.298 48.3183C194.586 58.7754 198.397 73.8517 209.24 86.2822L208.65 86.7898Z" fill="#1D1E1B"/>
<path d="M230.957 59.5737L230.205 59.3934C233.5 45.7083 231.751 28.5245 231.751 28.3519L232.524 28.272C232.529 28.4369 234.283 45.7571 230.957 59.5737Z" fill="#1D1E1B"/>
<path d="M246.038 34.4937C246.038 34.4937 247.584 53.8157 242.174 76.7445L246.038 34.4937Z" fill="white"/>
<path d="M242.551 76.8348L241.799 76.657C247.132 54.0554 245.663 34.7179 245.663 34.5247L246.436 34.4629C246.439 34.6587 247.912 54.1095 242.551 76.8348Z" fill="#1D1E1B"/>
<path d="M233.03 79.7047C232.976 79.7047 232.921 79.6995 232.868 79.6892C232.769 79.6678 232.675 79.627 232.591 79.5692C232.507 79.5114 232.436 79.4376 232.381 79.3522C232.326 79.2668 232.288 79.1714 232.27 79.0714C232.252 78.9714 232.254 78.8688 232.275 78.7695C238.358 50.3764 235.637 22.8644 235.609 22.5913C235.588 22.3863 235.65 22.1814 235.78 22.0217C235.91 21.8621 236.098 21.7607 236.303 21.7398C236.508 21.719 236.713 21.7804 236.873 21.9107C237.033 22.0409 237.134 22.2292 237.155 22.4342C237.183 22.7099 239.932 50.4511 233.793 79.0941C233.756 79.2681 233.659 79.4239 233.52 79.5351C233.381 79.6464 233.208 79.7063 233.03 79.7047Z" fill="white"/>
<path d="M194.901 73.264C194.752 73.2639 194.607 73.2211 194.482 73.1407C194.357 73.0603 194.259 72.9457 194.197 72.8106C185.18 52.9965 188.689 28.3131 188.725 28.0684C188.755 27.8655 188.864 27.6827 189.029 27.5602C189.193 27.4377 189.4 27.3857 189.603 27.4154C189.805 27.4451 189.988 27.5542 190.111 27.7187C190.233 27.8832 190.285 28.0896 190.255 28.2926C190.219 28.5347 186.788 52.7671 195.604 72.1716C195.647 72.2644 195.671 72.3649 195.675 72.4671C195.679 72.5693 195.663 72.6712 195.627 72.7671C195.591 72.8629 195.537 72.9508 195.467 73.0255C195.397 73.1002 195.313 73.1601 195.22 73.2021C195.119 73.2463 195.01 73.2674 194.901 73.264Z" fill="white"/>
<path d="M172.435 111.957C164.024 111.957 157.184 105.65 157.184 97.8958C157.184 90.1412 164.024 83.8345 172.435 83.8345C180.847 83.8345 187.687 90.1412 187.687 97.8958C187.687 105.65 180.844 111.957 172.435 111.957ZM172.435 84.6074C164.449 84.6074 157.956 90.5689 157.956 97.8958C157.956 105.223 164.451 111.184 172.435 111.184C180.419 111.184 186.914 105.223 186.914 97.8958C186.914 90.5689 180.419 84.5997 172.435 84.5997V84.6074Z" fill="#1D1E1B"/>
<path d="M169.7 111.096C176.925 111.096 182.782 105.239 182.782 98.0139C182.782 90.7887 176.925 84.9316 169.7 84.9316C162.474 84.9316 156.617 90.7887 156.617 98.0139C156.617 105.239 162.474 111.096 169.7 111.096Z" fill="#382256"/>
<path d="M169.699 111.483C167.035 111.483 164.431 110.693 162.216 109.213C160.001 107.733 158.275 105.63 157.256 103.168C156.236 100.707 155.97 97.9992 156.489 95.3865C157.009 92.7739 158.292 90.374 160.175 88.4904C162.059 86.6067 164.459 85.3239 167.072 84.8042C169.684 84.2845 172.392 84.5513 174.854 85.5707C177.315 86.5901 179.418 88.3165 180.898 90.5314C182.378 92.7463 183.168 95.3503 183.168 98.0141C183.164 101.585 181.743 105.009 179.218 107.534C176.693 110.059 173.27 111.479 169.699 111.483ZM169.699 85.3208C167.188 85.3208 164.733 86.0656 162.646 87.4607C160.558 88.8559 158.93 90.8388 157.969 93.1589C157.009 95.4789 156.757 98.0317 157.247 100.495C157.738 102.957 158.947 105.22 160.723 106.995C162.499 108.77 164.761 109.979 167.224 110.469C169.687 110.959 172.24 110.707 174.559 109.745C176.879 108.784 178.862 107.156 180.257 105.068C181.651 102.98 182.396 100.525 182.395 98.0141C182.391 94.6485 181.052 91.4219 178.672 89.0422C176.292 86.6626 173.065 85.3243 169.699 85.3208Z" fill="#1D1E1B"/>
<path d="M147.25 101.786C104.2 110.105 118.792 174.293 118.792 174.293L193.2 174.058C193.2 174.058 203.608 107.019 154.942 99.5293" fill="#07ACEE"/>
<path d="M118.792 174.679C118.704 174.678 118.619 174.648 118.551 174.594C118.482 174.539 118.434 174.463 118.413 174.377C117.016 167.517 116.227 160.547 116.056 153.548C115.783 142.798 116.997 127.626 124.318 116.404C129.558 108.371 137.246 103.327 147.167 101.407C147.268 101.388 147.372 101.409 147.457 101.467C147.542 101.524 147.601 101.613 147.621 101.714C147.64 101.815 147.619 101.919 147.561 102.004C147.504 102.089 147.415 102.148 147.314 102.167C137.607 104.043 130.089 108.976 124.968 116.824C117.754 127.876 116.561 142.875 116.826 153.512C117 160.362 117.762 167.184 119.104 173.903L192.865 173.672C193.714 166.897 193.954 160.06 193.584 153.242C193.012 142.537 190.58 127.389 182.248 116.015C175.736 107.121 166.533 101.703 154.883 99.9129C154.832 99.9053 154.784 99.8878 154.74 99.8614C154.696 99.8349 154.657 99.8001 154.627 99.7588C154.596 99.7176 154.574 99.6706 154.562 99.6208C154.55 99.571 154.547 99.5192 154.555 99.4685C154.562 99.4177 154.58 99.3691 154.606 99.3251C154.633 99.2811 154.668 99.2428 154.709 99.2123C154.75 99.1817 154.797 99.1597 154.847 99.1473C154.897 99.135 154.948 99.1324 154.999 99.14C166.85 100.964 176.235 106.488 182.872 115.551C191.317 127.085 193.777 142.398 194.354 153.211C194.741 160.186 194.482 167.182 193.581 174.11C193.567 174.201 193.521 174.284 193.451 174.344C193.381 174.404 193.292 174.437 193.2 174.437L118.792 174.671V174.679Z" fill="#1D1D1B"/>
<path d="M194.441 175.14C212.593 183.173 220.235 174.195 224.996 169.341C231.709 162.491 244.833 143.212 242.968 136.339C241.102 129.465 236.012 129.519 236.012 129.519L235.659 124.13L217.079 121.324L216.517 124.931C216.517 124.931 210.718 122.729 207.863 132.243C205.967 138.562 203.821 147.226 204.058 151.031C204.058 151.031 202.847 111.063 163.016 101.528" fill="#07ACEE"/>
<path d="M207.647 178.726C203.937 178.726 199.542 177.82 194.287 175.493C194.237 175.475 194.193 175.446 194.155 175.41C194.117 175.373 194.087 175.33 194.066 175.281C194.046 175.233 194.036 175.18 194.036 175.128C194.037 175.075 194.048 175.023 194.069 174.975C194.09 174.927 194.121 174.884 194.16 174.848C194.198 174.812 194.244 174.785 194.293 174.767C194.343 174.75 194.395 174.742 194.448 174.746C194.5 174.749 194.552 174.763 194.598 174.787C211.78 182.39 219.215 174.736 224.135 169.668L224.72 169.07C231.885 161.759 244.362 142.955 242.597 136.442C240.832 129.929 236.218 129.901 236.022 129.906C235.924 129.906 235.83 129.869 235.758 129.802C235.686 129.735 235.642 129.643 235.636 129.545L235.303 124.465L217.411 121.765L216.909 124.985C216.9 125.042 216.878 125.095 216.846 125.143C216.814 125.19 216.772 125.229 216.723 125.258C216.673 125.287 216.618 125.305 216.562 125.31C216.505 125.316 216.447 125.309 216.394 125.289C215.202 124.94 213.923 125.061 212.818 125.627C210.826 126.619 209.291 128.878 208.25 132.348C206.308 138.82 204.316 146.979 204.447 150.766C204.447 150.921 204.46 151.006 204.46 151.024C204.465 151.126 204.429 151.226 204.36 151.302C204.291 151.378 204.194 151.423 204.092 151.428C203.989 151.433 203.889 151.397 203.813 151.328C203.738 151.259 203.692 151.162 203.687 151.06C203.687 150.98 203.687 150.898 203.675 150.802C203.587 149.228 202.879 140.036 198.128 129.989C193.344 119.871 183.356 106.784 162.944 101.907C162.851 101.877 162.773 101.814 162.726 101.729C162.678 101.644 162.664 101.545 162.686 101.45C162.709 101.356 162.766 101.273 162.847 101.219C162.927 101.164 163.025 101.142 163.121 101.157C172.27 103.347 180.138 107.34 186.506 113.008C191.6 117.545 195.75 123.161 198.839 129.702C201.361 135.112 203.096 140.854 203.991 146.755C204.628 142.527 206.076 136.88 207.495 132.145C208.603 128.45 210.28 126.029 212.48 124.944C213.631 124.366 214.943 124.195 216.203 124.457L216.7 121.283C216.716 121.183 216.771 121.092 216.853 121.032C216.935 120.972 217.038 120.946 217.138 120.961L235.718 123.764C235.805 123.778 235.886 123.82 235.945 123.885C236.005 123.951 236.04 124.034 236.045 124.122L236.378 129.18C237.625 129.326 241.711 130.264 243.334 136.256C245.31 143.537 231.753 163.008 225.264 169.63L224.682 170.225C221.345 173.651 216.414 178.726 207.647 178.726Z" fill="#1D1D1B"/>
<path d="M216.979 125.269C216.979 125.269 220.645 133.791 235.904 129.85L235.427 124.542L217.651 121.812L216.979 125.269Z" fill="#0598C6"/>
<path d="M176.117 154.707C176.205 153.805 175.545 153.003 174.644 152.916C173.744 152.829 172.943 153.489 172.855 154.391C172.768 155.294 173.427 156.096 174.328 156.183C175.229 156.27 176.03 155.609 176.117 154.707Z" fill="#51CEF4"/>
<path d="M153.103 138.381C153.305 137.497 152.753 136.617 151.871 136.416C150.989 136.214 150.11 136.768 149.908 137.651C149.706 138.535 150.258 139.414 151.14 139.616C152.023 139.817 152.901 139.264 153.103 138.381Z" fill="#51CEF4"/>
<path d="M217.543 136.797C217.63 135.894 216.971 135.093 216.07 135.005C215.169 134.918 214.369 135.579 214.281 136.481C214.194 137.383 214.853 138.185 215.754 138.272C216.655 138.359 217.456 137.699 217.543 136.797Z" fill="#51CEF4"/>
<path d="M237.615 140.332C237.703 139.43 237.043 138.628 236.142 138.541C235.242 138.454 234.441 139.114 234.353 140.017C234.266 140.919 234.925 141.721 235.826 141.808C236.727 141.895 237.528 141.234 237.615 140.332Z" fill="#51CEF4"/>
<path d="M229.465 165.501C229.555 164.594 228.895 163.786 227.99 163.696C227.085 163.605 226.278 164.267 226.188 165.173C226.097 166.079 226.757 166.887 227.662 166.978C228.567 167.068 229.374 166.407 229.465 165.501Z" fill="#51CEF4"/>
<path d="M196.508 146.459C196.595 145.557 195.936 144.755 195.035 144.667C194.134 144.58 193.333 145.241 193.246 146.143C193.159 147.045 193.818 147.847 194.719 147.934C195.619 148.021 196.421 147.361 196.508 146.459Z" fill="#51CEF4"/>
<path d="M223.824 151.885C223.911 150.983 223.252 150.181 222.351 150.094C221.451 150.006 220.65 150.667 220.562 151.569C220.475 152.471 221.134 153.273 222.035 153.361C222.936 153.448 223.737 152.787 223.824 151.885Z" fill="#51CEF4"/>
<path d="M145.347 102.262C144.627 102.742 144.022 103.377 143.577 104.119C143.131 104.861 142.856 105.693 142.771 106.554C142.354 110.048 149.578 113.008 156.039 108.208C156.039 108.208 159.934 111.604 163.412 110.349C168.202 108.618 166.174 102.252 161.094 101.211C154.622 99.8844 145.347 102.262 145.347 102.262Z" fill="white"/>
<path d="M148.916 111.112C147.398 111.137 145.9 110.766 144.57 110.035C143.052 109.154 142.251 107.838 142.401 106.508C142.782 103.316 145.059 101.982 145.155 101.927L145.201 101.902L145.25 101.889C145.634 101.791 154.687 99.5032 161.187 100.833C164.466 101.505 166.339 104.151 166.514 106.415C166.656 108.386 165.551 109.991 163.554 110.713C160.37 111.862 156.962 109.425 156.034 108.698C153.62 110.416 151.116 111.112 148.916 111.112ZM145.497 102.633C144.842 103.086 144.294 103.677 143.891 104.364C143.489 105.051 143.241 105.818 143.166 106.611C143.045 107.642 143.696 108.647 144.969 109.378C147.373 110.772 151.796 110.906 155.828 107.91L156.086 107.724L156.32 107.928C156.359 107.959 160.092 111.158 163.309 109.989C164.984 109.383 165.886 108.103 165.762 106.475C165.62 104.548 163.923 102.183 161.05 101.593C154.962 100.348 146.268 102.433 145.497 102.633Z" fill="#1D1E1B"/>
<path d="M172.078 165.866C172.983 165.866 173.716 165.131 173.716 164.224C173.716 163.318 172.983 162.583 172.078 162.583C171.173 162.583 170.439 163.318 170.439 164.224C170.439 165.131 171.173 165.866 172.078 165.866Z" fill="#51CEF4"/>
<path d="M124.06 140.621C124.965 140.621 125.699 139.886 125.699 138.979C125.699 138.073 124.965 137.338 124.06 137.338C123.156 137.338 122.422 138.073 122.422 138.979C122.422 139.886 123.156 140.621 124.06 140.621Z" fill="#51CEF4"/>
<path d="M149.602 152.889C149.799 152.704 149.948 152.474 150.035 152.219C150.122 151.963 150.145 151.69 150.102 151.424C150.059 151.157 149.951 150.905 149.787 150.691C149.624 150.476 149.41 150.304 149.165 150.192C148.869 150.055 148.539 150.009 148.218 150.062C147.896 150.114 147.598 150.262 147.361 150.485C147.197 150.63 147.064 150.807 146.97 151.004C146.875 151.201 146.821 151.416 146.811 151.634C146.8 151.853 146.833 152.071 146.908 152.276C146.983 152.482 147.098 152.67 147.247 152.831C147.396 152.991 147.576 153.12 147.775 153.21C147.975 153.299 148.19 153.349 148.409 153.354C148.627 153.359 148.845 153.321 149.049 153.241C149.252 153.161 149.438 153.042 149.595 152.889H149.602Z" fill="#51CEF4"/>
<path d="M125.104 170.013C125.302 169.829 125.451 169.599 125.539 169.343C125.626 169.087 125.649 168.814 125.606 168.547C125.563 168.281 125.454 168.029 125.291 167.814C125.127 167.599 124.912 167.428 124.666 167.316C124.371 167.179 124.041 167.133 123.72 167.186C123.398 167.238 123.1 167.386 122.863 167.609C122.699 167.755 122.566 167.931 122.472 168.128C122.377 168.325 122.323 168.54 122.312 168.758C122.302 168.977 122.335 169.195 122.41 169.4C122.485 169.606 122.601 169.794 122.749 169.955C122.898 170.115 123.078 170.244 123.277 170.334C123.477 170.424 123.692 170.473 123.911 170.478C124.13 170.484 124.347 170.445 124.551 170.365C124.754 170.285 124.94 170.166 125.097 170.013H125.104Z" fill="#51CEF4"/>
<path d="M179.625 119.809C180.53 119.809 181.263 119.075 181.263 118.168C181.263 117.262 180.53 116.527 179.625 116.527C178.72 116.527 177.986 117.262 177.986 118.168C177.986 119.075 178.72 119.809 179.625 119.809Z" fill="#51CEF4"/>
<path d="M189.703 137.344C189.703 137.344 195.412 148.046 196.481 161.96L192.913 160.77C192.913 160.77 192.558 149.007 189.703 137.344Z" fill="#0598C6"/>
<path d="M189.416 135.636C189.416 135.636 191.964 145.786 192.678 161.96L189.416 135.636Z" fill="#07ACEE"/>
<path d="M192.678 162.347C192.579 162.347 192.483 162.308 192.411 162.24C192.339 162.171 192.296 162.078 192.292 161.978C191.588 146.036 189.069 135.832 189.043 135.729C189.018 135.629 189.033 135.524 189.086 135.436C189.139 135.348 189.224 135.285 189.324 135.26C189.423 135.235 189.528 135.25 189.616 135.303C189.704 135.356 189.768 135.441 189.792 135.54C189.818 135.643 192.356 145.918 193.064 161.942C193.069 162.044 193.032 162.144 192.963 162.22C192.894 162.296 192.798 162.341 192.696 162.347H192.678Z" fill="#1D1D1B"/>
<path d="M238.791 147.628C238.707 147.628 238.625 147.611 238.548 147.579C238.47 147.547 238.399 147.5 238.339 147.44C238.279 147.381 238.231 147.31 238.198 147.232C238.165 147.154 238.148 147.07 238.148 146.986C238.147 146.901 238.164 146.817 238.196 146.739C241.042 139.783 240.403 136.349 239.365 134.685C239.016 134.123 238.544 133.648 237.985 133.294C237.426 132.94 236.794 132.717 236.137 132.642C235.966 132.632 235.806 132.554 235.693 132.427C235.579 132.299 235.52 132.131 235.53 131.96C235.54 131.79 235.618 131.63 235.745 131.516C235.873 131.402 236.041 131.344 236.212 131.354C237.069 131.442 237.895 131.723 238.628 132.177C239.361 132.631 239.981 133.245 240.442 133.974C242.202 136.764 241.849 141.221 239.388 147.223C239.34 147.343 239.258 147.445 239.151 147.517C239.045 147.589 238.919 147.628 238.791 147.628Z" fill="white"/>
<path d="M159.741 66.9031C164.421 66.9031 168.214 63.1037 168.214 58.4169C168.214 53.7301 164.421 49.9307 159.741 49.9307C155.061 49.9307 151.268 53.7301 151.268 58.4169C151.268 63.1037 155.061 66.9031 159.741 66.9031Z" fill="#382256"/>
<path d="M159.741 67.292C158.127 67.2946 156.542 66.8569 155.158 66.0258C153.774 65.1947 152.643 64.0017 151.886 62.5755C151.13 61.1492 150.777 59.5437 150.865 57.9316C150.953 56.3196 151.479 54.7621 152.387 53.4269C153.295 52.0918 154.549 51.0296 156.016 50.3545C157.483 49.6795 159.106 49.4173 160.71 49.5961C162.315 49.775 163.84 50.3881 165.122 51.3695C166.404 52.3508 167.394 53.6633 167.985 55.1656C168.514 56.5102 168.707 57.9637 168.547 59.3999C168.387 60.8361 167.879 62.2115 167.067 63.4066C166.254 64.6017 165.162 65.5804 163.885 66.2575C162.609 66.9346 161.186 67.2897 159.741 67.292ZM159.741 50.3119C158.008 50.3078 156.318 50.8595 154.922 51.8861C153.525 52.9127 152.494 54.36 151.981 56.0157C151.467 57.6713 151.498 59.448 152.069 61.0848C152.639 62.7217 153.72 64.1324 155.151 65.11C156.583 66.0875 158.29 66.5804 160.022 66.5161C161.754 66.4519 163.42 65.834 164.776 64.7531C166.131 63.6722 167.104 62.1853 167.551 60.5107C167.999 58.8361 167.899 57.062 167.264 55.449C166.669 53.9373 165.634 52.6391 164.293 51.7231C162.951 50.807 161.365 50.3154 159.741 50.3119Z" fill="#1D1E1B"/>
<path d="M133.766 82.51C133.766 82.51 128.369 76.868 131.352 71.8236C134.335 66.7793 135.667 67.359 137.064 64.5946C138.46 61.8303 143.862 59.4266 148.43 61.2197C148.43 61.2197 154.647 57.3862 159.786 59.2282C164.926 61.0703 166.534 63.7522 167.654 68.0082C168.775 72.2642 170.099 74.2298 170.988 77.1951C171.877 80.1604 172.866 88.3503 161.144 93.2427C149.422 98.135 133.766 82.51 133.766 82.51Z" fill="#382256"/>
<path d="M156.246 94.5643C152.294 94.5643 147.757 93.0417 142.849 90.0404C139.485 87.9515 136.347 85.5194 133.485 82.783C133.255 82.546 127.92 76.8704 131.017 71.6328C132.699 68.7861 133.874 67.6937 134.819 66.8126C135.607 66.1561 136.253 65.3451 136.715 64.4296C138.261 61.3664 143.779 59.1045 148.388 60.7997C149.442 60.1865 155.071 57.1336 159.915 58.87C165.204 60.7687 166.894 63.6232 168.025 67.9179C168.544 69.8564 169.215 71.7514 170.029 73.5857C170.537 74.7302 170.98 75.9025 171.356 77.0971C172.129 79.6734 173.675 88.4328 161.29 93.6137C159.689 94.2622 157.974 94.5854 156.246 94.5643ZM134.044 82.2393C134.35 82.5433 149.705 97.5991 160.994 92.8871C172.786 87.9638 171.34 79.7172 170.619 77.3058C170.253 76.1384 169.823 74.9919 169.331 73.8716C168.503 72.0055 167.82 70.0778 167.291 68.1059C166.198 63.9659 164.66 61.3819 159.667 59.6042C154.772 57.8446 148.703 61.5236 148.641 61.5622L148.479 61.6627L148.298 61.5932C143.813 59.8336 138.686 62.2759 137.419 64.7826C136.914 65.7799 136.213 66.6649 135.358 67.3846C134.451 68.2297 133.32 69.2808 131.694 72.0219C128.914 76.7056 133.897 82.0848 134.044 82.2393Z" fill="#1D1E1B"/>
<path d="M155.332 78.9496H155.358C159.117 79.3412 163.107 76.0359 163.275 75.8968C163.336 75.8452 163.374 75.7717 163.381 75.6921C163.389 75.6126 163.364 75.5333 163.314 75.4716C163.288 75.4408 163.257 75.4154 163.222 75.3968C163.187 75.3781 163.149 75.3666 163.109 75.363C163.07 75.3595 163.03 75.3637 162.992 75.3758C162.954 75.3878 162.919 75.4072 162.888 75.433C162.85 75.4665 158.924 78.7152 155.417 78.3494C155.341 78.3433 155.265 78.3663 155.205 78.4139C155.146 78.4616 155.106 78.5302 155.095 78.6059C155.084 78.6816 155.102 78.7587 155.145 78.8215C155.189 78.8844 155.255 78.9283 155.33 78.9444L155.332 78.9496Z" fill="black"/>
<path d="M147.988 97.8056L147.305 102.026C147.305 102.026 153.012 111.777 163.003 102.263C163.003 102.263 160.061 96.4274 158.971 86.6324C158.971 86.6324 163.263 86.3207 163.139 82.5104C163.015 78.7001 160.115 77.6154 158.203 78.3883C158.203 78.3883 150.603 82.2141 145.633 66.7642C145.633 66.7642 137.85 68.7272 135.235 76.116C132.621 83.5047 132.86 92.5295 138.327 95.9018C143.794 99.2742 147.988 97.8056 147.988 97.8056Z" fill="#FFCDB2"/>
<path d="M154.604 106.817C154.235 106.818 153.867 106.792 153.502 106.74C149.305 106.148 147.061 102.381 146.96 102.221L146.891 102.1L147.501 98.3259C146.123 98.6068 142.527 98.934 138.111 96.2083C132.239 92.5861 132.312 83.1749 134.862 75.964C137.516 68.4696 145.448 66.388 145.528 66.37L145.878 66.2798L145.992 66.625C148.465 74.3151 151.569 77.0125 153.741 77.9193C156.16 78.9344 158.002 78.0328 158.02 78.0225L158.051 78.007C158.621 77.7916 159.233 77.7139 159.838 77.7802C160.444 77.8464 161.025 78.0548 161.534 78.3883C162.753 79.1895 163.456 80.6451 163.515 82.4897C163.626 85.9032 160.511 86.7637 159.393 86.962C160.496 96.3422 163.315 102.031 163.345 102.09L163.474 102.348L163.266 102.546C160.285 105.382 157.379 106.817 154.604 106.817ZM147.7 101.943C148.102 102.559 150.181 105.496 153.625 105.975C156.408 106.367 159.404 105.086 162.529 102.175C161.954 100.923 159.543 95.2783 158.584 86.6761L158.538 86.2767L158.94 86.2459C159.1 86.2459 162.861 85.9109 162.75 82.5128C162.686 80.4827 161.825 79.5012 161.117 79.0348C160.714 78.7698 160.254 78.6032 159.775 78.5487C159.295 78.4941 158.81 78.553 158.358 78.7206C158.128 78.8314 156.091 79.7382 153.45 78.6329C150.139 77.2469 147.424 73.4083 145.378 67.2201C143.866 67.707 137.802 69.9999 135.589 76.2242C133.059 83.3708 133.252 92.3027 138.515 95.5463C143.74 98.7718 147.808 97.45 147.849 97.4346L148.457 97.2285L147.7 101.943Z" fill="#1D1E1B"/>
<path d="M159.21 84.8775C159.263 84.8873 159.319 84.8827 159.37 84.8641C159.421 84.8456 159.466 84.8137 159.501 84.7718C160.531 83.5094 160.884 82.399 160.565 81.4664C160.109 80.1216 158.429 79.7147 158.36 79.6966C158.282 79.6782 158.2 79.6913 158.132 79.7334C158.064 79.7754 158.015 79.8428 157.996 79.9207C157.978 79.9986 157.991 80.0806 158.033 80.1487C158.075 80.2169 158.143 80.2655 158.221 80.284C158.239 80.284 159.65 80.6369 159.996 81.6623C160.24 82.3862 159.916 83.3033 159.032 84.3905C158.982 84.4525 158.959 84.5316 158.967 84.6108C158.975 84.6899 159.014 84.7627 159.076 84.8131C159.115 84.8451 159.161 84.8672 159.21 84.8775Z" fill="black"/>
<path d="M143.993 78.7539C148.203 79.9132 154.056 78.3778 154.953 79.9596C155.849 81.5415 154.981 83.5405 152.634 83.9089C150.287 84.2774 148.01 84.0764 143.341 83.4298C138.673 82.7832 134.149 81.8041 134.84 79.3257C135.53 76.8474 137.805 77.0484 143.993 78.7539Z" fill="#FFB49F"/>
<path d="M160.691 88.1263C161.456 88.1263 162.077 87.5045 162.077 86.7376C162.077 85.9707 161.456 85.3491 160.691 85.3491C159.925 85.3491 159.305 85.9707 159.305 86.7376C159.305 87.5045 159.925 88.1263 160.691 88.1263Z" fill="#07ACEE"/>
<path d="M160.692 85.3491C161.016 85.3468 161.331 85.4581 161.582 85.6639C161.833 85.8697 162.004 86.1569 162.065 86.4756C162.127 86.7942 162.074 87.1243 161.918 87.4085C161.761 87.6926 161.509 87.9128 161.207 88.0309C161.043 88.0947 160.868 88.127 160.692 88.1262C160.324 88.1262 159.971 87.98 159.71 87.7195C159.45 87.4591 159.303 87.1059 159.303 86.7376C159.303 86.3693 159.45 86.0162 159.71 85.7558C159.971 85.4954 160.324 85.3491 160.692 85.3491ZM160.692 84.5762C160.421 84.5752 160.153 84.6259 159.901 84.7256C159.432 84.9096 159.042 85.2515 158.799 85.6924C158.555 86.1332 158.473 86.6453 158.567 87.1401C158.661 87.635 158.925 88.0815 159.313 88.4026C159.701 88.7238 160.188 88.8994 160.692 88.8991C160.963 88.8999 161.231 88.8492 161.483 88.7497C162.015 88.5384 162.442 88.1249 162.671 87.5997C162.899 87.0744 162.91 86.4801 162.702 85.9467C162.545 85.5416 162.269 85.1936 161.91 84.9488C161.551 84.704 161.126 84.5741 160.692 84.5762Z" fill="#1D1D1B"/>
<path d="M145.759 93.0679C144.659 93.0679 143.651 92.5321 142.768 91.4732C142.73 91.4349 142.701 91.3892 142.682 91.339C142.663 91.2888 142.654 91.235 142.657 91.1814C142.659 91.1277 142.673 91.0753 142.697 91.0272C142.721 90.9791 142.755 90.9364 142.796 90.902C142.837 90.8675 142.885 90.8419 142.936 90.8269C142.988 90.8119 143.042 90.8077 143.096 90.8147C143.149 90.8216 143.2 90.8396 143.246 90.8674C143.292 90.8951 143.332 90.9321 143.363 90.976C144.092 91.8519 144.909 92.295 145.759 92.295H145.779C147.529 92.2822 148.992 90.4916 149.007 90.4735C149.072 90.3936 149.166 90.3426 149.268 90.3318C149.37 90.3209 149.472 90.3511 149.552 90.4157C149.632 90.4802 149.683 90.5739 149.694 90.6761C149.705 90.7782 149.675 90.8805 149.61 90.9605C149.541 91.0455 147.897 93.0525 145.785 93.0679H145.759Z" fill="#1D1D1B"/>
<path d="M140.548 86.1608C140.499 86.1617 140.449 86.1521 140.404 86.1325C140.309 86.0942 140.233 86.0197 140.193 85.9255C140.153 85.8313 140.152 85.7251 140.19 85.6301L142.807 79.174C142.827 79.1259 142.856 79.0822 142.892 79.0454C142.929 79.0086 142.973 78.9794 143.021 78.9597C143.069 78.9401 143.12 78.9302 143.172 78.9307C143.224 78.9312 143.275 78.9421 143.323 78.9628C143.37 78.9814 143.413 79.0093 143.449 79.0448C143.486 79.0803 143.514 79.1226 143.534 79.1694C143.554 79.2162 143.564 79.2665 143.564 79.3172C143.564 79.368 143.554 79.4183 143.534 79.4651L140.917 85.9212C140.887 85.9938 140.836 86.0557 140.77 86.0985C140.704 86.1413 140.627 86.1631 140.548 86.1608Z" fill="#1D1D1B"/>
<path d="M136.983 74.9C136.906 74.899 136.83 74.8749 136.767 74.8307C136.704 74.7866 136.655 74.7244 136.627 74.6523C136.6 74.5802 136.594 74.5014 136.612 74.4262C136.629 74.3509 136.669 74.2827 136.725 74.2302C136.857 74.1065 139.979 71.2675 142.038 73.3285C142.106 73.4017 142.143 73.4986 142.141 73.5987C142.139 73.6988 142.099 73.7943 142.028 73.8651C141.957 73.9359 141.862 73.9766 141.762 73.9783C141.661 73.9801 141.565 73.9429 141.491 73.8747C139.946 72.3289 137.277 74.7712 137.251 74.797C137.178 74.8645 137.082 74.9014 136.983 74.9Z" fill="black"/>
<path d="M152.801 77.064C152.742 77.0643 152.683 77.0507 152.63 77.0243C152.577 76.9979 152.53 76.9595 152.495 76.912C151.742 75.9356 150.949 75.3894 150.148 75.2864C149.646 75.2192 149.137 75.3363 148.715 75.6161C148.634 75.6789 148.532 75.7071 148.43 75.6943C148.328 75.6815 148.236 75.6289 148.173 75.5479C148.11 75.4669 148.082 75.3643 148.095 75.2626C148.108 75.1609 148.16 75.0683 148.241 75.0055C148.825 74.5992 149.54 74.4257 150.246 74.5186C151.263 74.65 152.227 75.2915 153.105 76.4405C153.15 76.4976 153.177 76.5658 153.184 76.6376C153.192 76.7095 153.179 76.7819 153.147 76.8468C153.116 76.9117 153.067 76.9666 153.005 77.005C152.944 77.0433 152.874 77.0637 152.801 77.064Z" fill="black"/>
<path d="M147.363 97.9574C147.363 97.9574 150.844 97.0918 152.745 95.6646L147.363 97.9574Z" fill="#4BD657"/>
<path d="M147.363 98.3438C147.261 98.3561 147.158 98.3272 147.077 98.2634C146.995 98.1997 146.943 98.1062 146.931 98.0037C146.918 97.9012 146.947 97.798 147.011 97.7169C147.075 97.6357 147.168 97.5832 147.271 97.5709C147.304 97.5709 150.697 96.7053 152.513 95.3425C152.554 95.312 152.6 95.2898 152.649 95.2772C152.698 95.2646 152.75 95.2619 152.8 95.269C152.85 95.2762 152.898 95.2932 152.942 95.3191C152.986 95.345 153.024 95.3791 153.054 95.4197C153.085 95.4603 153.107 95.5066 153.119 95.5557C153.132 95.6049 153.135 95.6561 153.128 95.7063C153.121 95.7565 153.104 95.8048 153.078 95.8484C153.052 95.8921 153.018 95.9303 152.977 95.9608C151.035 97.4189 147.6 98.2793 147.456 98.3206C147.426 98.3322 147.395 98.34 147.363 98.3438Z" fill="black"/>
<path d="M157.502 76.3324H157.476C150.662 76.0747 148.183 67.4314 148.08 67.0578C148.034 66.8931 148.056 66.717 148.14 66.5682C148.224 66.4194 148.364 66.3101 148.528 66.2643C148.693 66.2185 148.869 66.24 149.018 66.324C149.167 66.4081 149.276 66.5478 149.322 66.7125C149.343 66.7924 151.653 74.8226 157.525 75.0416C157.696 75.0447 157.858 75.1155 157.977 75.2385C158.095 75.3614 158.16 75.5264 158.157 75.6972C158.154 75.8681 158.083 76.0307 157.96 76.1493C157.837 76.268 157.672 76.3328 157.502 76.3297V76.3324Z" fill="white"/>
<path d="M136.333 85.3491C135.269 85.3476 134.23 85.0307 133.346 84.4386C132.462 83.8466 131.773 83.0059 131.367 82.0226C130.961 81.0394 130.855 79.9578 131.063 78.9145C131.271 77.8712 131.784 76.9129 132.536 76.1609C133.289 75.4088 134.247 74.8965 135.291 74.6889C136.334 74.4813 137.415 74.5876 138.399 74.9944C139.382 75.4011 140.222 76.0902 140.814 76.9744C141.405 77.8586 141.722 78.8982 141.723 79.9621C141.723 80.6698 141.583 81.3705 141.312 82.0243C141.041 82.678 140.644 83.2719 140.144 83.7722C139.643 84.2724 139.049 84.6692 138.395 84.9398C137.742 85.2104 137.041 85.3495 136.333 85.3491ZM136.333 75.3609C135.422 75.3625 134.531 75.6343 133.774 76.142C133.017 76.6497 132.427 77.3704 132.08 78.2132C131.732 79.056 131.643 79.9829 131.822 80.8766C132.001 81.7704 132.442 82.5908 133.087 83.2343C133.733 83.8778 134.555 84.3154 135.449 84.4917C136.344 84.6681 137.27 84.5753 138.112 84.225C138.953 83.8748 139.672 83.2828 140.177 82.524C140.682 81.7653 140.951 80.8737 140.95 79.9621C140.946 78.7402 140.458 77.5694 139.593 76.7068C138.727 75.8442 137.555 75.3602 136.333 75.3609Z" fill="#1D1E1B"/>
<path d="M148.462 87.2529C147.398 87.2529 146.357 86.9372 145.472 86.3459C144.587 85.7545 143.897 84.914 143.49 83.9306C143.082 82.9472 142.976 81.8651 143.183 80.8211C143.391 79.7771 143.904 78.8182 144.656 78.0656C145.409 77.3129 146.368 76.8003 147.412 76.5927C148.456 76.385 149.538 76.4916 150.521 76.899C151.505 77.3063 152.345 77.9961 152.937 78.8811C153.528 79.7661 153.844 80.8067 153.844 81.8711C153.842 83.2981 153.275 84.6662 152.266 85.6751C151.257 86.6841 149.889 87.2515 148.462 87.2529ZM148.462 77.2621C147.55 77.2621 146.659 77.5325 145.901 78.0389C145.143 78.5454 144.553 79.2652 144.204 80.1074C143.855 80.9495 143.764 81.8763 143.942 82.7703C144.119 83.6643 144.558 84.4855 145.203 85.1301C145.847 85.7747 146.669 86.2136 147.563 86.3914C148.457 86.5693 149.384 86.478 150.226 86.1291C151.068 85.7803 151.788 85.1896 152.294 84.4317C152.801 83.6737 153.071 82.7827 153.071 81.8711C153.069 80.6492 152.583 79.4776 151.719 78.6135C150.855 77.7495 149.684 77.2635 148.462 77.2621Z" fill="#1D1E1B"/>
<path d="M153.457 82.2577C153.398 82.2573 153.341 82.2439 153.288 82.2185C153.236 82.1931 153.189 82.1563 153.153 82.1108C153.09 82.03 153.061 81.9275 153.073 81.8258C153.085 81.724 153.137 81.6311 153.217 81.5672L157.736 77.9991C157.776 77.9676 157.821 77.9443 157.87 77.9305C157.919 77.9167 157.97 77.9127 158.021 77.9187C158.071 77.9247 158.12 77.9405 158.165 77.9654C158.209 77.9902 158.248 78.0236 158.279 78.0635C158.311 78.1034 158.334 78.1492 158.348 78.1981C158.362 78.247 158.366 78.2982 158.36 78.3487C158.354 78.3991 158.338 78.448 158.313 78.4923C158.288 78.5367 158.255 78.5757 158.215 78.6072L153.696 82.1752C153.628 82.2285 153.543 82.2576 153.457 82.2577Z" fill="#1D1E1B"/>
<path d="M143.48 81.9097C143.405 81.9091 143.332 81.8869 143.269 81.8458C143.206 81.8046 143.157 81.7464 143.127 81.6778C142.797 80.9204 141.346 81.1626 141.323 81.1626C141.224 81.1782 141.122 81.1542 141.04 81.0959C140.958 81.0376 140.901 80.9495 140.883 80.8504C140.865 80.7512 140.886 80.649 140.943 80.5653C140.999 80.4817 141.086 80.4232 141.184 80.4025C141.269 80.3871 143.245 80.0419 143.827 81.3713C143.849 81.4182 143.86 81.4688 143.862 81.5203C143.863 81.5719 143.854 81.6232 143.835 81.6712C143.817 81.7192 143.789 81.763 143.753 81.8C143.717 81.837 143.674 81.8664 143.626 81.8865C143.58 81.9043 143.53 81.9122 143.48 81.9097Z" fill="#1D1E1B"/>
<path d="M166.332 60.0966H166.314C166.229 60.0943 166.146 60.0753 166.068 60.0408C165.991 60.0062 165.921 59.9567 165.863 59.8952C165.805 59.8337 165.76 59.7614 165.729 59.6824C165.699 59.6033 165.685 59.519 165.687 59.4344C165.757 56.9947 165.146 55.1115 163.884 53.8362C162.003 51.9555 159.247 52.0071 159.224 52.0097C159.053 52.0151 158.887 51.9525 158.762 51.8356C158.637 51.7187 158.564 51.5571 158.559 51.3862C158.553 51.2154 158.616 51.0493 158.733 50.9247C158.85 50.8 159.012 50.727 159.182 50.7215C159.316 50.7215 162.501 50.6417 164.783 52.9165C166.329 54.4494 167.063 56.6547 166.983 59.4705C166.978 59.6393 166.907 59.7994 166.785 59.9164C166.663 60.0333 166.5 60.0981 166.332 60.0966Z" fill="white"/>
<path d="M170.374 61.2661C170.327 61.2651 170.281 61.2563 170.237 61.2404C170.142 61.2034 170.064 61.1302 170.023 61.0366C169.981 60.943 169.977 60.8366 170.013 60.7406C172.255 54.9182 168.179 51.8061 168.004 51.6747C167.921 51.6135 167.867 51.5222 167.852 51.4207C167.837 51.3193 167.863 51.216 167.924 51.1336C167.985 51.0513 168.077 50.9967 168.178 50.9817C168.279 50.9667 168.383 50.9926 168.465 51.0538C168.511 51.0898 173.192 54.6322 170.735 61.0162C170.707 61.0897 170.658 61.153 170.594 61.1977C170.529 61.2424 170.452 61.2663 170.374 61.2661Z" fill="#1D1D1B"/>
<path d="M139.693 81.0056C139.619 81.0053 139.546 80.9839 139.484 80.9437C139.422 80.9036 139.373 80.8463 139.342 80.779C139.232 80.5074 139.068 80.2611 138.86 80.0548C138.652 79.8484 138.404 79.6863 138.131 79.5784C136.982 79.1481 135.589 79.7742 135.573 79.7819C135.527 79.8031 135.477 79.8149 135.426 79.8168C135.376 79.8186 135.325 79.8106 135.277 79.7928C135.23 79.7751 135.186 79.7482 135.149 79.7136C135.112 79.679 135.082 79.6375 135.06 79.5913C135.039 79.5451 135.028 79.4953 135.026 79.4445C135.024 79.3938 135.032 79.3431 135.05 79.2955C135.067 79.2479 135.094 79.2042 135.129 79.167C135.163 79.1298 135.205 79.0997 135.251 79.0786C135.318 79.0477 136.941 78.3057 138.397 78.8519C138.767 78.9934 139.104 79.209 139.387 79.4854C139.671 79.7619 139.895 80.0934 140.046 80.4596C140.072 80.5185 140.084 80.5832 140.079 80.6477C140.074 80.7123 140.053 80.7746 140.018 80.829C139.983 80.8834 139.935 80.9281 139.878 80.959C139.821 80.9898 139.757 81.0058 139.693 81.0056Z" fill="#1D1D1B"/>
<path d="M150.635 82.1959C150.547 82.1956 150.461 82.1656 150.392 82.1109C148.264 80.4079 146.121 81.8714 146.1 81.8868C146.016 81.9456 145.912 81.9685 145.811 81.9506C145.71 81.9327 145.621 81.8755 145.562 81.7915C145.503 81.7074 145.48 81.6035 145.498 81.5025C145.516 81.4015 145.573 81.3117 145.657 81.2529C145.683 81.2349 148.3 79.4495 150.877 81.5106C150.939 81.5611 150.984 81.6296 151.005 81.7065C151.027 81.7835 151.024 81.8653 150.998 81.9408C150.972 82.0162 150.922 82.0818 150.857 82.1283C150.792 82.1749 150.715 82.2003 150.635 82.201V82.1959Z" fill="#1D1D1B"/>
<path d="M143.84 102.693C143.84 102.693 112.953 101.755 101.723 149.723C86.7475 152.531 76.3908 153.564 71.5371 171.016L88.3937 179.664C88.3937 179.664 101.731 184.817 118.812 174.282" fill="#07ACEE"/>
<path d="M97.0028 181.318C91.6338 181.318 88.3826 180.087 88.2435 180.03L88.2048 180.012L71.3586 171.356C71.2792 171.315 71.2164 171.248 71.1807 171.166C71.145 171.085 71.1387 170.993 71.1628 170.907C75.8362 154.1 85.7291 152.276 99.4219 149.751L101.401 149.385C103.977 138.506 107.779 129.264 112.718 121.917C116.706 115.992 121.439 111.261 126.782 107.889C135.904 102.129 143.528 102.293 143.847 102.301C143.898 102.302 143.948 102.314 143.994 102.334C144.041 102.355 144.083 102.385 144.117 102.422C144.152 102.458 144.18 102.502 144.198 102.549C144.216 102.597 144.225 102.647 144.223 102.698C144.219 102.8 144.174 102.897 144.1 102.967C144.025 103.037 143.926 103.075 143.824 103.074C143.749 103.074 136.077 102.917 127.15 108.569C118.906 113.794 107.859 125.186 102.096 149.808C102.078 149.88 102.04 149.947 101.986 149.998C101.931 150.05 101.863 150.085 101.79 150.099L99.5611 150.511C85.7316 153.061 76.5653 154.752 71.995 170.812L88.5397 179.314C89.0962 179.517 102.173 184.085 118.6 173.958C118.687 173.904 118.792 173.887 118.892 173.911C118.992 173.935 119.078 173.998 119.132 174.085C119.185 174.173 119.202 174.278 119.178 174.378C119.154 174.477 119.092 174.564 119.004 174.617C110.106 180.102 102.23 181.287 97.1908 181.315L97.0028 181.318Z" fill="#1D1D1B"/>
<path d="M120.671 137.323C120.671 137.323 115.057 150.892 118.801 174.292L120.671 137.323Z" fill="#07ACEE"/>
<path d="M118.791 174.679C118.699 174.679 118.61 174.647 118.54 174.587C118.471 174.528 118.424 174.445 118.41 174.354C114.69 151.116 120.249 137.31 120.306 137.174C120.325 137.126 120.353 137.082 120.389 137.045C120.424 137.008 120.467 136.978 120.515 136.958C120.562 136.938 120.613 136.927 120.664 136.927C120.716 136.927 120.767 136.937 120.814 136.957C120.862 136.977 120.905 137.006 120.941 137.042C120.978 137.079 121.006 137.122 121.025 137.17C121.044 137.218 121.054 137.269 121.053 137.32C121.052 137.372 121.041 137.423 121.02 137.47C120.963 137.604 115.491 151.227 119.173 174.231C119.181 174.281 119.179 174.332 119.167 174.382C119.155 174.431 119.134 174.478 119.104 174.519C119.074 174.56 119.036 174.595 118.993 174.622C118.949 174.648 118.901 174.666 118.851 174.674L118.791 174.679Z" fill="#1D1D1B"/>
<path d="M113.023 141.027C113.225 140.143 112.673 139.264 111.791 139.062C110.909 138.861 110.03 139.414 109.828 140.298C109.626 141.181 110.178 142.061 111.06 142.262C111.942 142.464 112.821 141.91 113.023 141.027Z" fill="#51CEF4"/>
<path d="M208.818 99.2173L213.597 125.82C213.597 125.82 221.54 129.942 228.282 125.168L230.665 98.8154L208.818 99.2173Z" fill="#4BD657"/>
<path d="M220.839 127.845C218.27 127.821 215.737 127.25 213.406 126.17L213.239 126.083L208.359 98.841L231.085 98.4263L228.648 125.387L228.501 125.49C226.257 127.059 223.576 127.882 220.839 127.845ZM213.929 125.565C215.089 126.101 221.998 129.007 227.911 124.959L230.229 99.2146L209.271 99.5959L213.929 125.565Z" fill="#1D1E1B"/>
<path d="M109.113 134.837C108.984 134.837 108.857 134.805 108.744 134.743C108.631 134.682 108.535 134.593 108.464 134.485C108.394 134.377 108.352 134.253 108.342 134.125C108.332 133.996 108.354 133.867 108.407 133.75C117.194 114.108 126.956 110.063 127.378 109.901C127.569 109.826 127.782 109.829 127.97 109.91C128.158 109.992 128.306 110.145 128.382 110.335C128.457 110.526 128.454 110.739 128.372 110.927C128.291 111.115 128.138 111.263 127.948 111.339C127.845 111.38 118.31 115.399 109.818 134.381C109.757 134.517 109.658 134.632 109.533 134.713C109.408 134.794 109.262 134.837 109.113 134.837Z" fill="white"/>
<path d="M210.066 106.176L212.591 120.276C217.566 120.498 224.022 119.828 228.822 119.179L230.027 105.844C222.858 106.805 215.278 106.565 210.066 106.176Z" fill="white"/>
<path d="M214.645 120.706C213.934 120.706 213.241 120.691 212.584 120.662L212.274 120.647L209.605 105.754L210.103 105.79C215.214 106.171 222.811 106.423 229.984 105.46L230.466 105.396L229.177 119.521L228.871 119.562C224.844 120.106 219.341 120.706 214.645 120.706ZM212.919 119.902C217.77 120.08 223.971 119.436 228.466 118.836L229.6 106.289C222.734 107.158 215.554 106.952 210.535 106.599L212.919 119.902Z" fill="#1D1E1B"/>
<path d="M210.506 94.9693L212.281 92.8387C212.543 92.5222 212.908 92.3078 213.311 92.2333C215.231 91.8829 221.179 90.9993 227.053 92.1715C227.317 92.2247 227.566 92.3372 227.78 92.5006C227.994 92.6639 228.169 92.8737 228.29 93.1143L229.217 94.9693H210.506Z" fill="white"/>
<path d="M229.862 95.3556H209.688L212.006 92.5913C212.329 92.2042 212.778 91.9426 213.274 91.8519C215.015 91.535 221.162 90.5947 227.162 91.7926C227.484 91.8582 227.786 91.9956 228.046 92.1945C228.307 92.3935 228.519 92.649 228.667 92.9416L229.862 95.3556ZM211.339 94.5828H228.6L227.951 93.2946C227.856 93.107 227.72 92.9433 227.553 92.8157C227.387 92.6881 227.193 92.5999 226.987 92.5578C221.121 91.3882 215.095 92.3001 213.39 92.6196C213.072 92.6785 212.785 92.8462 212.578 93.0937L211.339 94.5828Z" fill="#1D1E1B"/>
<path d="M208.876 95.1623L207.145 98.3775C207.045 98.5628 206.996 98.771 207.003 98.9813C207.009 99.1916 207.071 99.3964 207.181 99.5753C207.292 99.7542 207.448 99.9009 207.633 100C207.819 100.1 208.027 100.149 208.237 100.142L231.439 99.4055C231.652 99.3988 231.86 99.3351 232.04 99.2211C232.221 99.1071 232.367 98.9469 232.465 98.757C232.562 98.5672 232.607 98.3547 232.595 98.1416C232.583 97.9286 232.514 97.7227 232.395 97.5454L230.47 94.6599C230.359 94.4901 230.205 94.352 230.025 94.2586C229.844 94.1652 229.643 94.1197 229.44 94.1267L209.896 94.5337C209.686 94.5397 209.481 94.601 209.302 94.7114C209.123 94.8217 208.976 94.9772 208.876 95.1623Z" fill="white"/>
<path d="M208.189 100.516C207.916 100.515 207.647 100.443 207.409 100.308C207.171 100.172 206.973 99.9778 206.833 99.7428C206.693 99.5078 206.616 99.2404 206.61 98.9669C206.604 98.6934 206.668 98.423 206.798 98.1819L208.529 94.9668C208.662 94.7202 208.858 94.5131 209.097 94.367C209.336 94.2208 209.609 94.1406 209.889 94.1345L229.436 93.7276C229.702 93.7208 229.965 93.7818 230.201 93.9048C230.438 94.0278 230.639 94.2089 230.786 94.4309L232.71 97.3189C232.866 97.5539 232.957 97.8263 232.972 98.108C232.988 98.3897 232.928 98.6704 232.799 98.9212C232.67 99.172 232.476 99.3838 232.237 99.5346C231.999 99.6854 231.724 99.7699 231.442 99.7791L208.243 100.516H208.189ZM229.469 94.5004H229.451L209.915 94.9049C209.772 94.9081 209.632 94.9491 209.509 95.0237C209.387 95.0984 209.286 95.204 209.217 95.3299L207.486 98.5451C207.418 98.6706 207.385 98.8117 207.389 98.9541C207.394 99.0964 207.436 99.2351 207.51 99.3562C207.585 99.4774 207.691 99.5767 207.816 99.6442C207.942 99.7116 208.083 99.7448 208.225 99.7405L231.427 99.0038C231.572 98.999 231.712 98.9557 231.834 98.8785C231.956 98.8012 232.055 98.6928 232.122 98.5644C232.188 98.4359 232.218 98.2922 232.21 98.148C232.203 98.0037 232.156 97.8643 232.076 97.7439L230.152 94.8584C230.077 94.7479 229.977 94.6575 229.859 94.595C229.741 94.5326 229.61 94.5001 229.477 94.5004H229.469Z" fill="#1D1E1B"/>
<path d="M229.165 123.653C229.165 123.653 235.701 125.106 238.571 118.014C241.441 110.921 241.892 103.455 238.032 98.9622C234.173 94.4692 229.556 94.1626 226.522 95.5641C223.487 96.9656 222.915 100.266 225.437 103.703C225.437 103.703 220.704 107.124 225.478 112.905C223.489 113.601 221.768 119.616 227.627 120.549C227.843 121.706 228.375 122.78 229.165 123.653Z" fill="#FFCDB2"/>
<path d="M230.522 124.15C230.038 124.156 229.555 124.116 229.079 124.029L228.956 124.001L228.873 123.906C228.102 123.047 227.56 122.008 227.299 120.884C224.901 120.42 223.435 118.99 223.239 116.926C223.092 115.278 223.829 113.5 224.883 112.781C223.406 110.867 222.775 108.999 223.002 107.219C223.199 105.837 223.876 104.567 224.914 103.633C223.662 101.799 223.2 99.9231 223.625 98.318C223.978 96.9526 224.914 95.8783 226.369 95.211C229.327 93.8456 234.237 93.941 238.333 98.7096C241.94 102.912 242.167 110.182 238.936 118.158C236.808 123.398 232.704 124.15 230.522 124.15ZM229.371 123.298C230.277 123.457 235.682 124.122 238.212 117.867C241.332 110.164 241.154 103.182 237.738 99.2146C233.928 94.7757 229.53 94.6005 226.684 95.9144C225.46 96.4786 224.659 97.3777 224.365 98.5113C223.986 99.9746 224.478 101.737 225.748 103.473L225.978 103.787L225.663 104.014C224.639 104.843 223.964 106.027 223.77 107.33C223.558 108.999 224.233 110.792 225.774 112.66L226.127 113.088L225.612 113.271C224.772 113.564 223.873 115.231 224.017 116.857C224.11 117.887 224.713 119.691 227.696 120.167L227.966 120.209L228.015 120.479C228.208 121.523 228.675 122.496 229.371 123.298Z" fill="black"/>
<path d="M236.271 106.343C236.219 106.344 236.167 106.333 236.118 106.313C236.07 106.293 236.026 106.262 235.99 106.225C235.807 106.034 231.541 101.701 224.876 104.207C224.828 104.229 224.776 104.241 224.723 104.242C224.67 104.243 224.618 104.233 224.569 104.213C224.52 104.193 224.476 104.163 224.439 104.125C224.402 104.087 224.374 104.042 224.355 103.992C224.336 103.943 224.328 103.89 224.33 103.838C224.333 103.785 224.346 103.733 224.369 103.686C224.393 103.638 224.425 103.596 224.466 103.562C224.506 103.527 224.552 103.502 224.603 103.486C231.762 100.791 236.503 105.64 236.549 105.691C236.602 105.746 236.638 105.814 236.652 105.889C236.665 105.963 236.657 106.04 236.627 106.11C236.598 106.18 236.548 106.239 236.484 106.281C236.421 106.322 236.347 106.344 236.271 106.343Z" fill="#1D1D1B"/>
<path d="M234.678 113.369C234.639 113.369 234.601 113.363 234.564 113.351C234.513 113.335 229.18 111.738 225.565 113.302C225.473 113.337 225.37 113.334 225.278 113.296C225.187 113.257 225.114 113.184 225.075 113.093C225.035 113.002 225.033 112.9 225.067 112.806C225.101 112.713 225.17 112.637 225.259 112.593C229.136 110.916 234.562 112.542 234.791 112.611C234.881 112.637 234.958 112.695 235.008 112.774C235.059 112.853 235.079 112.947 235.065 113.039C235.051 113.132 235.004 113.216 234.933 113.277C234.862 113.337 234.771 113.37 234.678 113.369Z" fill="#1D1D1B"/>
<path d="M230.297 121.313C229.277 121.305 228.262 121.159 227.28 120.881C227.185 120.849 227.105 120.781 227.059 120.692C227.013 120.602 227.003 120.498 227.032 120.402C227.061 120.305 227.127 120.224 227.215 120.176C227.304 120.127 227.407 120.115 227.504 120.141C227.538 120.141 230.897 121.151 232.881 119.943C232.969 119.89 233.074 119.873 233.174 119.898C233.274 119.922 233.36 119.985 233.413 120.073C233.466 120.161 233.483 120.266 233.458 120.366C233.434 120.466 233.371 120.552 233.283 120.605C232.405 121.146 231.302 121.313 230.297 121.313Z" fill="#1D1D1B"/>
<path d="M238.589 103.288C238.456 103.288 238.326 103.246 238.218 103.17C238.109 103.093 238.026 102.985 237.981 102.86C237.981 102.821 236.67 99.3176 233.444 97.8105C231.44 96.8727 229.09 96.883 226.46 97.8414C226.381 97.8705 226.296 97.8837 226.211 97.8801C226.127 97.8766 226.044 97.8564 225.967 97.8208C225.89 97.7851 225.821 97.7347 225.764 97.6723C225.707 97.61 225.662 97.5371 225.633 97.4576C225.604 97.3781 225.591 97.2936 225.594 97.209C225.598 97.1244 225.618 97.0414 225.654 96.9646C225.689 96.8878 225.74 96.8188 225.802 96.7615C225.864 96.7041 225.937 96.6597 226.017 96.6306C228.987 95.5486 231.685 95.5537 234.003 96.6486C237.718 98.3928 239.135 102.262 239.195 102.427C239.229 102.524 239.239 102.628 239.225 102.73C239.211 102.832 239.172 102.929 239.113 103.013C239.054 103.097 238.976 103.166 238.884 103.214C238.793 103.262 238.692 103.287 238.589 103.288Z" fill="white"/>
<path d="M236.207 109.45C236.107 109.45 236.009 109.426 235.92 109.382C235.83 109.337 235.752 109.272 235.692 109.193C235.545 108.994 232.183 104.573 226.472 106.549C226.31 106.605 226.133 106.594 225.979 106.519C225.826 106.444 225.708 106.312 225.652 106.15C225.597 105.988 225.607 105.811 225.682 105.658C225.757 105.504 225.89 105.386 226.052 105.331C232.68 103.038 236.692 108.376 236.73 108.422C236.78 108.49 236.817 108.568 236.837 108.65C236.857 108.732 236.861 108.817 236.848 108.901C236.835 108.984 236.805 109.064 236.761 109.137C236.717 109.209 236.66 109.272 236.591 109.321C236.481 109.405 236.346 109.451 236.207 109.45Z" fill="white"/>
<path d="M97.7901 83.1879C112.652 83.1879 124.699 71.1402 124.699 56.2787C124.699 41.4172 112.652 29.3696 97.7901 29.3696C82.9285 29.3696 70.8809 41.4172 70.8809 56.2787C70.8809 71.1402 82.9285 83.1879 97.7901 83.1879Z" fill="white"/>
<path d="M97.7567 83.569C90.5822 83.5568 83.7014 80.7187 78.6044 75.6694C73.5075 70.6201 70.6048 63.7661 70.5251 56.592C70.4454 49.4179 73.195 42.5012 78.1785 37.3399C83.162 32.1786 89.9781 29.1883 97.1505 29.0166C104.323 28.8449 111.274 31.5056 116.499 36.4225C121.724 41.3394 124.802 48.1166 125.065 55.2863C125.329 62.456 122.758 69.4409 117.908 74.7283C113.059 80.0157 106.321 83.18 99.1557 83.5356C98.6946 83.5691 98.2205 83.569 97.7567 83.569ZM97.8057 29.7507C97.36 29.7507 96.9118 29.7636 96.4609 29.7842C91.2222 30.0481 86.1793 31.8594 81.9699 34.9891C77.7605 38.1188 74.5738 42.4265 72.8124 47.3673C71.0511 52.3081 70.7943 57.6603 72.0745 62.747C73.3548 67.8338 76.1147 72.4266 80.0051 75.9449C83.8956 79.4632 88.7419 81.749 93.9313 82.5131C99.1207 83.2773 104.42 82.4856 109.16 80.238C113.899 77.9905 117.866 74.388 120.558 69.8862C123.25 65.3845 124.547 60.1854 124.285 54.9466C123.934 48.1564 120.993 41.759 116.067 37.0725C111.141 32.386 104.605 29.7673 97.8057 29.7559V29.7507Z" fill="#1D1E1B"/>
<path d="M118.995 94.686C121.192 94.686 122.973 92.9051 122.973 90.7082C122.973 88.5114 121.192 86.7305 118.995 86.7305C116.798 86.7305 115.018 88.5114 115.018 90.7082C115.018 92.9051 116.798 94.686 118.995 94.686Z" fill="white"/>
<path d="M118.995 95.0726C118.132 95.0726 117.288 94.8166 116.57 94.3371C115.853 93.8575 115.293 93.176 114.963 92.3786C114.633 91.5811 114.546 90.7036 114.715 89.857C114.883 89.0104 115.299 88.2327 115.909 87.6224C116.519 87.0121 117.297 86.5965 118.144 86.4281C118.99 86.2597 119.868 86.3461 120.665 86.6764C121.463 87.0067 122.144 87.5661 122.624 88.2838C123.103 89.0015 123.359 89.8452 123.359 90.7084C123.355 91.8646 122.894 92.9723 122.076 93.7899C121.259 94.6074 120.151 95.0685 118.995 95.0726ZM118.995 87.1171C118.285 87.1171 117.59 87.3277 117 87.7223C116.409 88.1169 115.949 88.6779 115.677 89.3341C115.405 89.9903 115.334 90.7124 115.473 91.4091C115.611 92.1057 115.953 92.7455 116.456 93.2478C116.958 93.7501 117.598 94.0922 118.294 94.2308C118.991 94.3693 119.713 94.2982 120.369 94.0263C121.026 93.7545 121.587 93.2942 121.981 92.7036C122.376 92.113 122.586 91.4187 122.586 90.7084C122.582 89.7572 122.203 88.8461 121.53 88.1735C120.857 87.5009 119.946 87.1211 118.995 87.1171Z" fill="#1D1E1B"/>
<path d="M85.2461 63.5232L89.6748 71.3165C89.8797 71.6765 90.1814 71.9719 90.5457 72.1691C90.91 72.3663 91.3224 72.4573 91.7358 72.432C95.4714 72.1744 105.699 70.608 111.022 60.8078C111.198 60.4788 111.287 60.1105 111.282 59.7373C111.276 59.3642 111.176 58.9986 110.991 58.6748L105.405 48.8179" fill="#382256"/>
<path d="M91.6039 72.8238C91.1441 72.8223 90.6927 72.6999 90.2952 72.4688C89.8977 72.2377 89.5681 71.9062 89.3393 71.5073L84.9082 63.7141L85.5806 63.3328L90.0117 71.126C90.1792 71.4262 90.429 71.6722 90.7316 71.8351C91.0342 71.9981 91.3771 72.0711 91.7199 72.0457C95.7002 71.7881 105.516 70.1496 110.691 60.6251C110.836 60.3534 110.909 60.0496 110.905 59.742C110.9 59.4344 110.818 59.1329 110.666 58.8655L105.08 49.0087L105.753 48.6274L111.338 58.4842C111.554 58.8661 111.67 59.2961 111.676 59.7346C111.681 60.1731 111.577 60.606 111.372 60.9935C106.013 70.8581 95.8779 72.5481 91.7713 72.8186L91.6039 72.8238Z" fill="#1D1E1B"/>
<path d="M86.3668 65.4946C86.3668 65.4946 104.96 62.6195 106.926 51.4823L105.416 48.8184L85.2461 63.5237L86.3668 65.4946Z" fill="#050505"/>
<path d="M77.5804 64.3969L87.3702 47.1178C87.5004 46.8851 87.7057 46.7034 87.9525 46.6026L107.877 38.3997C108.098 38.3093 108.34 38.287 108.573 38.3358C108.806 38.3847 109.019 38.5025 109.184 38.6738C109.349 38.8452 109.459 39.0622 109.499 39.2968C109.54 39.5313 109.509 39.7726 109.41 39.9893L102.168 55.9262C102.045 56.1962 101.826 56.4102 101.553 56.5264L79.0696 66.0715C78.8419 66.1648 78.591 66.185 78.3514 66.1295C78.1118 66.074 77.8953 65.9455 77.7319 65.7617C77.5684 65.5779 77.466 65.3479 77.4389 65.1034C77.4118 64.8589 77.4612 64.6121 77.5804 64.3969Z" fill="#382256"/>
<path d="M78.5985 66.5663C78.324 66.5644 78.0548 66.4907 77.8175 66.3527C77.5802 66.2146 77.3831 66.0169 77.2459 65.7792C77.1086 65.5414 77.0361 65.2719 77.0352 64.9974C77.0343 64.7228 77.1051 64.4528 77.2408 64.2142L87.0307 46.935C87.2048 46.6281 87.477 46.3887 87.8036 46.255L107.728 38.052C108.02 37.9325 108.341 37.9034 108.65 37.9684C108.958 38.0334 109.24 38.1895 109.459 38.4166C109.678 38.6437 109.823 38.9312 109.877 39.2419C109.93 39.5527 109.889 39.8724 109.759 40.1595L102.519 56.0963C102.355 56.4543 102.063 56.7382 101.7 56.8924L79.2195 66.4375C79.0232 66.5216 78.812 66.5654 78.5985 66.5663ZM77.9132 64.5954C77.83 64.7407 77.7947 64.9085 77.8121 65.075C77.8294 65.2415 77.8986 65.3983 78.0099 65.5233C78.1213 65.6483 78.2691 65.7352 78.4325 65.7716C78.5959 65.8081 78.7667 65.7923 78.9206 65.7265L101.404 56.1813C101.588 56.1042 101.737 55.9596 101.818 55.7769L109.06 39.84C109.127 39.6941 109.149 39.5316 109.122 39.3734C109.095 39.2152 109.022 39.0685 108.91 38.9529C108.799 38.8372 108.656 38.7577 108.499 38.7248C108.342 38.6919 108.178 38.7071 108.03 38.7683L88.105 46.9711C87.9394 47.0391 87.8015 47.1606 87.7134 47.3163L77.9132 64.5954Z" fill="#1D1E1B"/>
<path d="M100.036 55.4883C99.9075 55.4883 99.7808 55.4561 99.6676 55.3946C99.5544 55.3331 99.4585 55.2444 99.3883 55.1363C99.3182 55.0283 99.2762 54.9045 99.2661 54.7761C99.256 54.6477 99.2781 54.5187 99.3305 54.4011L105.338 40.9582C105.38 40.8655 105.439 40.7818 105.513 40.712C105.587 40.6422 105.673 40.5877 105.768 40.5515C105.863 40.5152 105.964 40.498 106.066 40.5008C106.167 40.5036 106.267 40.5264 106.36 40.5678C106.452 40.6093 106.536 40.6685 106.606 40.7423C106.676 40.8161 106.73 40.9029 106.766 40.9978C106.803 41.0927 106.82 41.1937 106.817 41.2952C106.814 41.3967 106.792 41.4966 106.75 41.5893L100.755 55.04C100.692 55.1766 100.59 55.2918 100.463 55.3715C100.335 55.4511 100.187 55.4917 100.036 55.4883Z" fill="white"/>
<path d="M115.751 59.5921C115.736 59.6043 115.719 59.6132 115.7 59.6185C115.681 59.6238 115.662 59.6253 115.643 59.6229C115.623 59.6205 115.605 59.6143 115.588 59.6046C115.571 59.5948 115.557 59.5818 115.545 59.5663C115.03 58.8785 112.616 55.3566 114.716 52.7855C116.856 50.1654 120.126 55.1403 120.641 55.9956C120.661 56.0278 120.668 56.0667 120.66 56.1038C120.652 56.141 120.629 56.1734 120.597 56.194L117.812 57.9741C117.781 57.9939 117.743 58.0007 117.706 57.993C117.67 57.9853 117.637 57.9639 117.616 57.933L116.377 56.096C116.358 56.067 116.329 56.046 116.295 56.0368C116.262 56.0275 116.226 56.0308 116.195 56.0458C116.163 56.0609 116.138 56.0868 116.125 56.1188C116.111 56.1508 116.109 56.1865 116.12 56.2197L116.874 58.5564C116.884 58.5842 116.884 58.6142 116.876 58.6422C116.868 58.6703 116.851 58.6952 116.828 58.7136L115.751 59.5921Z" fill="white"/>
<path d="M115.659 60.0093H115.595C115.524 60 115.455 59.9765 115.394 59.9402C115.332 59.9039 115.279 59.8556 115.236 59.7981C114.698 59.0767 112.145 55.3385 114.417 52.5433C114.628 52.2509 114.909 52.0162 115.234 51.8605C115.558 51.7047 115.917 51.633 116.277 51.6519C118.323 51.7833 120.399 54.8542 120.971 55.7946C121.045 55.9129 121.07 56.0557 121.039 56.1918C121.008 56.328 120.924 56.4463 120.806 56.521L118.024 58.3013C117.907 58.3768 117.766 58.4036 117.63 58.3756C117.494 58.3476 117.375 58.2672 117.297 58.1518L117.017 57.7346L117.246 58.4404C117.279 58.5425 117.28 58.6521 117.25 58.755C117.219 58.8579 117.159 58.9494 117.076 59.0175L115.996 59.8934C115.9 59.9693 115.781 60.0101 115.659 60.0093ZM116.141 52.4171C115.918 52.4248 115.701 52.4843 115.505 52.5907C115.31 52.6971 115.142 52.8476 115.015 53.0302C113.253 55.1891 115.038 58.1647 115.708 59.1282L116.46 58.5176L115.754 56.3408C115.714 56.2188 115.719 56.0862 115.769 55.9678C115.819 55.8493 115.91 55.753 116.025 55.6967C116.141 55.6404 116.273 55.6278 116.397 55.6615C116.521 55.6951 116.629 55.7726 116.7 55.8796L117.808 57.5207L120.188 55.9981C119.129 54.3544 117.509 52.5021 116.228 52.4196L116.141 52.4171Z" fill="black"/>
<path d="M109.982 39.8448L109.264 40.1294L114.36 52.994L115.078 52.7093L109.982 39.8448Z" fill="#1D1E1B"/>
<path d="M80.641 26.5073C80.641 26.5073 67.2444 31.9175 64.9258 49.9514L80.641 26.5073Z" fill="white"/>
<path d="M65.31 50.0006L64.5371 49.9026C65.7505 40.4786 70.0117 34.5275 73.3763 31.1938C77.0269 27.5741 80.3529 26.2061 80.492 26.1494L80.7806 26.8656C80.7471 26.881 77.4314 28.2464 73.8942 31.7605C70.6326 35.0143 66.4899 40.8033 65.31 50.0006Z" fill="#1D1E1B"/>
<path d="M170.386 196.585L169.654 194.756C169.521 194.421 169.457 194.063 169.466 193.702C169.475 193.342 169.556 192.987 169.706 192.659L183.427 162.947C183.617 162.506 183.941 162.137 184.353 161.89C184.765 161.644 185.244 161.535 185.723 161.576C191.803 162.226 213.474 164.987 218.475 171.83C222.97 177.985 221.363 173.687 220.389 171.395C220.224 171.007 220.154 170.587 220.184 170.167C220.214 169.747 220.344 169.341 220.562 168.981C222.365 166.044 227.811 158.704 238.119 156.524C238.625 156.428 239.149 156.507 239.605 156.749C240.06 156.99 240.419 157.38 240.623 157.854L241.411 159.539C241.622 159.992 241.7 160.495 241.637 160.991C241.573 161.487 241.37 161.954 241.051 162.339L223.148 183.436C222.854 183.784 222.464 184.038 222.027 184.165L173.096 198.01C172.548 198.153 171.967 198.086 171.465 197.823C170.964 197.559 170.579 197.118 170.386 196.585Z" fill="white"/>
<path d="M172.52 198.471C171.978 198.462 171.451 198.29 171.007 197.979C170.563 197.668 170.222 197.231 170.029 196.724L169.294 194.895C169.142 194.511 169.069 194.101 169.079 193.688C169.09 193.275 169.184 192.869 169.356 192.494L183.078 162.779C183.303 162.266 183.683 161.837 184.165 161.551C184.647 161.265 185.207 161.138 185.765 161.187C192.231 161.877 213.725 164.668 218.787 171.598C220.044 173.319 220.712 174.058 221.054 174.377C220.793 173.405 220.448 172.457 220.024 171.544C219.835 171.1 219.754 170.617 219.788 170.136C219.823 169.655 219.972 169.189 220.222 168.777C222.108 165.714 227.621 158.345 238.029 156.153C238.621 156.04 239.234 156.131 239.767 156.412C240.301 156.692 240.723 157.146 240.964 157.699L241.752 159.386C241.996 159.906 242.087 160.484 242.013 161.053C241.94 161.622 241.705 162.158 241.337 162.599L223.432 183.696C223.09 184.102 222.634 184.398 222.124 184.546L173.192 198.391C172.973 198.448 172.747 198.475 172.52 198.471ZM170.745 196.436C170.901 196.88 171.219 197.25 171.635 197.472C172.051 197.693 172.535 197.75 172.991 197.631L221.923 183.786C222.286 183.682 222.611 183.471 222.853 183.181L240.758 162.083C241.028 161.755 241.199 161.356 241.253 160.934C241.307 160.512 241.24 160.084 241.062 159.698L240.273 158.01C240.105 157.617 239.808 157.293 239.431 157.091C239.055 156.888 238.62 156.82 238.199 156.897C228.085 159.036 222.726 166.198 220.889 169.176C220.706 169.484 220.597 169.831 220.572 170.189C220.547 170.547 220.607 170.906 220.745 171.237C222.188 174.633 221.979 175.101 221.588 175.315C221.196 175.529 220.655 175.462 218.164 172.054C213.287 165.379 192.071 162.637 185.682 161.955C185.284 161.92 184.885 162.012 184.543 162.219C184.201 162.425 183.933 162.735 183.778 163.104L170.057 192.821C169.927 193.103 169.856 193.408 169.849 193.718C169.841 194.028 169.897 194.337 170.013 194.624L170.745 196.436Z" fill="black"/>
<path d="M184.786 167.298L170.617 194.815C170.47 195.1 170.397 195.416 170.405 195.735C170.412 196.055 170.5 196.368 170.659 196.645C170.818 196.922 171.045 197.154 171.317 197.321C171.59 197.488 171.9 197.584 172.219 197.6L209.544 199.45L231.185 187.465L244.257 162.772C244.397 162.509 244.451 162.21 244.413 161.915C244.375 161.62 244.246 161.344 244.044 161.126C243.842 160.908 243.577 160.757 243.286 160.696C242.995 160.635 242.692 160.667 242.42 160.786L223.871 168.818C223.871 168.818 220.334 170.73 218.273 169.274L189.369 164.956C188.456 164.818 187.523 164.969 186.7 165.389C185.878 165.809 185.208 166.477 184.786 167.298Z" fill="#382256"/>
<path d="M209.631 199.847H209.52L172.195 197.997C171.811 197.978 171.438 197.863 171.11 197.663C170.781 197.462 170.509 197.183 170.317 196.849C170.125 196.516 170.019 196.14 170.01 195.755C170.001 195.371 170.089 194.99 170.266 194.648L184.435 167.131C184.894 166.241 185.62 165.516 186.511 165.06C187.402 164.603 188.414 164.437 189.405 164.586L218.398 168.916L218.475 168.97C220.315 170.259 223.628 168.507 223.664 168.489L223.695 168.473L242.257 160.44C242.603 160.291 242.987 160.253 243.355 160.332C243.724 160.41 244.059 160.6 244.315 160.877C244.57 161.154 244.734 161.503 244.783 161.876C244.832 162.25 244.764 162.629 244.589 162.963L231.463 187.757L231.362 187.813L209.631 199.847ZM188.704 165.299C187.965 165.3 187.241 165.504 186.61 165.889C185.979 166.274 185.467 166.825 185.128 167.481L170.959 194.999C170.842 195.226 170.784 195.479 170.791 195.734C170.797 195.99 170.868 196.24 170.996 196.461C171.124 196.682 171.306 196.867 171.525 197C171.743 197.132 171.992 197.208 172.247 197.219L209.461 199.064L230.906 187.187L243.926 162.597C244.028 162.405 244.067 162.186 244.039 161.971C244.011 161.756 243.917 161.554 243.77 161.395C243.623 161.236 243.429 161.126 243.217 161.081C243.005 161.036 242.784 161.058 242.584 161.144L224.035 169.171C223.739 169.329 220.31 171.093 218.125 169.648L189.31 165.346C189.109 165.314 188.907 165.299 188.704 165.299Z" fill="#1D1E1B"/>
<path d="M208.733 188.761C208.671 188.761 208.61 188.746 208.556 188.717C208.466 188.67 208.399 188.59 208.368 188.493C208.337 188.397 208.345 188.292 208.391 188.202L217.382 170.889C217.404 170.842 217.435 170.799 217.474 170.764C217.513 170.729 217.558 170.702 217.608 170.685C217.657 170.669 217.71 170.662 217.762 170.666C217.814 170.669 217.865 170.684 217.911 170.708C217.957 170.732 217.998 170.765 218.032 170.806C218.065 170.846 218.089 170.893 218.104 170.943C218.119 170.993 218.123 171.046 218.117 171.098C218.11 171.15 218.093 171.2 218.067 171.245L209.079 188.557C209.045 188.62 208.995 188.672 208.935 188.707C208.874 188.743 208.804 188.762 208.733 188.761Z" fill="black"/>
<path d="M213.534 188.854C213.476 188.855 213.419 188.842 213.367 188.815C213.275 188.771 213.204 188.692 213.17 188.595C213.136 188.498 213.142 188.392 213.186 188.3L221.675 170.673C221.72 170.581 221.799 170.51 221.896 170.476C221.993 170.441 222.099 170.447 222.192 170.492C222.284 170.536 222.356 170.616 222.39 170.712C222.424 170.809 222.418 170.916 222.373 171.008L213.872 188.635C213.841 188.699 213.794 188.754 213.734 188.793C213.675 188.831 213.605 188.853 213.534 188.854Z" fill="black"/>
<path d="M178.574 195.794L207.542 201.12L245.833 195.794C245.833 195.794 244.166 199.123 246.165 201.787L206.874 210.443L177.247 203.119C177.247 203.119 175.245 198.471 178.574 195.794Z" fill="white"/>
<path d="M206.875 210.837C206.844 210.841 206.813 210.841 206.782 210.837L177.155 203.51C177.098 203.495 177.045 203.468 177 203.429C176.956 203.391 176.92 203.343 176.897 203.289C176.877 203.24 174.823 198.324 178.343 195.508C178.386 195.474 178.436 195.449 178.49 195.436C178.544 195.422 178.6 195.421 178.654 195.431L207.56 200.748L245.789 195.428C245.859 195.419 245.93 195.429 245.994 195.457C246.059 195.485 246.114 195.53 246.155 195.587C246.196 195.644 246.221 195.711 246.227 195.781C246.233 195.851 246.219 195.922 246.189 195.985C246.173 196.016 244.658 199.138 246.485 201.573C246.523 201.625 246.548 201.685 246.557 201.749C246.566 201.813 246.559 201.878 246.536 201.939C246.515 201.999 246.478 202.053 246.429 202.096C246.38 202.138 246.321 202.167 246.258 202.181L206.97 210.84C206.938 210.842 206.906 210.841 206.875 210.837ZM177.528 202.791L206.88 210.046L245.524 201.532C244.339 199.525 244.844 197.332 245.217 196.268L207.591 201.503C207.55 201.51 207.508 201.51 207.467 201.503L178.677 196.209C176.109 198.412 177.217 201.954 177.528 202.791Z" fill="black"/>
<path d="M206.874 211.61C206.779 211.611 206.685 211.6 206.593 211.577L176.966 204.253C176.664 204.177 176.405 203.986 176.244 203.719C175.101 201.813 174.755 199.997 175.214 198.322C175.866 195.944 177.934 194.808 178.022 194.762C178.254 194.636 178.522 194.593 178.782 194.64L209.12 197.217L246.971 193.301C247.272 193.259 247.579 193.336 247.824 193.516C248.07 193.695 248.236 193.964 248.287 194.265C248.337 194.565 248.269 194.873 248.096 195.124C247.923 195.374 247.659 195.548 247.36 195.607L208.234 202.197C208.101 202.22 207.965 202.22 207.832 202.197L178.831 197.021C178.176 197.501 177.696 198.181 177.463 198.958C177.205 199.881 177.404 200.934 178.014 202.096L206.897 209.243L247.254 200.643C247.405 200.609 247.562 200.604 247.715 200.631C247.868 200.657 248.014 200.714 248.145 200.797C248.275 200.881 248.388 200.989 248.477 201.117C248.565 201.244 248.627 201.388 248.659 201.54C248.692 201.692 248.694 201.848 248.665 202.001C248.636 202.153 248.577 202.298 248.492 202.428C248.406 202.557 248.296 202.668 248.167 202.755C248.038 202.841 247.893 202.901 247.741 202.931L207.121 211.587C207.04 211.604 206.957 211.612 206.874 211.61Z" fill="#07ACEE"/>
<path d="M206.874 211.999C206.748 211.999 206.623 211.984 206.5 211.956L176.873 204.629C176.674 204.58 176.487 204.492 176.322 204.37C176.157 204.249 176.018 204.096 175.912 203.92C174.712 201.921 174.354 200.004 174.843 198.221C175.539 195.689 177.746 194.473 177.839 194.424C178.143 194.261 178.493 194.203 178.834 194.259L209.118 196.835L246.935 192.925C247.333 192.857 247.741 192.95 248.071 193.182C248.327 193.358 248.524 193.606 248.636 193.895C248.749 194.184 248.772 194.501 248.703 194.803C248.633 195.105 248.474 195.38 248.247 195.591C248.019 195.802 247.734 195.939 247.427 195.985L208.293 202.593C208.118 202.626 207.938 202.626 207.763 202.593L178.932 197.441C178.409 197.859 178.026 198.427 177.834 199.069C177.625 199.842 177.772 200.762 178.275 201.774L206.897 208.846L247.172 200.275C247.372 200.232 247.578 200.229 247.779 200.266C247.98 200.304 248.172 200.38 248.343 200.491C248.515 200.602 248.663 200.746 248.779 200.915C248.895 201.083 248.976 201.273 249.019 201.473C249.062 201.673 249.064 201.879 249.027 202.08C248.99 202.281 248.914 202.473 248.803 202.645C248.691 202.816 248.547 202.964 248.379 203.08C248.211 203.196 248.021 203.277 247.821 203.32L207.198 211.976C207.091 211.996 206.983 212.003 206.874 211.999ZM178.573 195.011C178.444 195.011 178.316 195.043 178.202 195.104C176.942 195.841 176.006 197.027 175.582 198.425C175.152 199.997 175.482 201.71 176.569 203.521C176.677 203.699 176.851 203.828 177.053 203.879L206.681 211.203C206.797 211.229 206.917 211.229 207.033 211.203L247.654 202.545C247.755 202.524 247.851 202.484 247.936 202.426C248.021 202.368 248.094 202.294 248.15 202.208C248.207 202.121 248.245 202.025 248.263 201.923C248.281 201.822 248.279 201.718 248.256 201.617C248.236 201.516 248.196 201.419 248.138 201.334C248.08 201.248 248.006 201.175 247.919 201.119C247.832 201.063 247.735 201.025 247.633 201.007C247.531 200.989 247.427 200.991 247.326 201.014L206.969 209.614C206.912 209.627 206.853 209.627 206.796 209.614L177.914 202.475C177.86 202.462 177.809 202.438 177.764 202.404C177.72 202.371 177.683 202.328 177.656 202.279C176.999 201.03 176.804 199.881 177.074 198.863C177.33 198.001 177.86 197.247 178.584 196.714C178.626 196.682 178.675 196.659 178.727 196.647C178.779 196.635 178.833 196.633 178.885 196.642L207.899 201.821C207.985 201.834 208.071 201.834 208.157 201.821L247.283 195.23C247.487 195.195 247.67 195.08 247.79 194.911C247.91 194.741 247.958 194.531 247.924 194.326C247.908 194.224 247.872 194.127 247.818 194.039C247.764 193.951 247.692 193.875 247.608 193.815C247.524 193.756 247.429 193.713 247.329 193.691C247.228 193.668 247.124 193.666 247.022 193.685L209.151 197.603C209.127 197.606 209.103 197.606 209.079 197.603L178.741 195.027H178.707C178.663 195.018 178.618 195.013 178.573 195.011Z" fill="#1D1D1B"/>
<path d="M177.453 189.514L222.022 185.649L246.481 186.613C246.787 186.624 247.085 186.71 247.35 186.862C247.615 187.015 247.839 187.23 248.001 187.489C248.663 188.553 249.315 190.542 247.326 192.974L209.713 199.301L177.981 195.215C177.872 195.203 177.769 195.158 177.685 195.086C177.602 195.014 177.543 194.919 177.515 194.813C177.487 194.706 177.492 194.594 177.529 194.491C177.566 194.387 177.634 194.298 177.723 194.234C178.666 193.556 179.269 192.368 177.141 190.477C177.056 190.408 176.994 190.315 176.964 190.21C176.933 190.105 176.934 189.993 176.968 189.889C177.001 189.785 177.066 189.693 177.152 189.627C177.239 189.56 177.344 189.52 177.453 189.514Z" fill="#4BD657"/>
<path d="M209.713 199.68L177.924 195.588C177.738 195.565 177.564 195.486 177.424 195.362C177.285 195.238 177.185 195.074 177.14 194.893C177.094 194.711 177.104 194.52 177.169 194.345C177.233 194.169 177.349 194.017 177.501 193.909C177.947 193.587 178.184 193.231 178.205 192.845C178.233 192.265 177.777 191.544 176.886 190.758C176.749 190.636 176.652 190.477 176.606 190.3C176.56 190.123 176.568 189.936 176.628 189.764C176.683 189.59 176.788 189.437 176.931 189.324C177.074 189.211 177.248 189.143 177.429 189.13L222.025 185.252H222.05L246.507 186.219C246.876 186.23 247.236 186.333 247.556 186.516C247.876 186.7 248.145 186.96 248.341 187.272C249.014 188.349 249.812 190.552 247.638 193.198L247.548 193.311L209.713 199.68ZM222.032 186.025L177.486 189.89C177.455 189.891 177.426 189.902 177.401 189.921C177.377 189.94 177.359 189.966 177.349 189.995C177.34 190.026 177.34 190.058 177.348 190.089C177.357 190.119 177.374 190.147 177.398 190.168C178.488 191.129 179.019 192.038 178.975 192.873C178.944 193.507 178.599 194.061 177.945 194.527C177.918 194.545 177.897 194.57 177.886 194.6C177.874 194.63 177.872 194.663 177.88 194.694C177.887 194.726 177.904 194.754 177.928 194.774C177.952 194.795 177.982 194.808 178.014 194.81L209.689 198.889L247.112 192.597C248.782 190.477 248.341 188.754 247.669 187.672C247.539 187.466 247.361 187.296 247.151 187.175C246.94 187.054 246.703 186.987 246.461 186.979L222.032 186.025Z" fill="black"/>
<path d="M176.078 189.635L209.827 193.713C209.827 193.713 213.805 196.756 209.361 199.329L176.086 194.95C176.086 194.95 178.407 193.296 176.078 189.635Z" fill="white"/>
<path d="M209.354 199.716H209.302L176.027 195.336C175.95 195.326 175.878 195.293 175.819 195.242C175.761 195.19 175.72 195.122 175.701 195.047C175.682 194.971 175.686 194.892 175.713 194.819C175.74 194.746 175.789 194.683 175.852 194.638C175.934 194.581 177.843 193.12 175.751 189.833C175.712 189.771 175.692 189.7 175.692 189.626C175.692 189.553 175.712 189.482 175.752 189.42C175.791 189.358 175.847 189.309 175.913 189.277C175.979 189.246 176.052 189.234 176.125 189.243L209.874 193.321C209.942 193.331 210.007 193.357 210.062 193.399C210.142 193.458 211.963 194.875 211.847 196.704C211.775 197.825 211.002 198.816 209.555 199.656C209.494 199.694 209.425 199.714 209.354 199.716ZM176.859 194.674L209.271 198.93C210.41 198.244 211.015 197.482 211.075 196.663C211.154 195.426 209.987 194.344 209.67 194.086L176.808 190.114C177.99 192.394 177.403 193.906 176.859 194.674Z" fill="black"/>
<path d="M212.159 193.633C212.071 193.63 211.987 193.597 211.921 193.54C211.854 193.483 211.809 193.405 211.793 193.319C211.784 193.269 211.785 193.217 211.797 193.168C211.808 193.118 211.829 193.072 211.858 193.03C211.888 192.989 211.925 192.954 211.968 192.928C212.012 192.901 212.06 192.883 212.11 192.875L244.87 187.494C244.972 187.477 245.077 187.502 245.161 187.563C245.245 187.624 245.302 187.716 245.318 187.818C245.334 187.921 245.309 188.026 245.248 188.11C245.188 188.194 245.096 188.25 244.993 188.267L212.236 193.648L212.159 193.633Z" fill="#1D1E1B"/>
<path d="M217.776 203.928C217.673 203.937 217.571 203.906 217.492 203.84C217.413 203.774 217.363 203.68 217.353 203.577C217.344 203.475 217.375 203.373 217.441 203.294C217.507 203.214 217.601 203.165 217.704 203.155L244.847 198.002C244.948 197.983 245.052 198.005 245.137 198.063C245.222 198.12 245.28 198.209 245.299 198.31C245.319 198.411 245.297 198.515 245.239 198.6C245.181 198.685 245.092 198.743 244.991 198.762L217.848 203.915C217.824 203.922 217.8 203.926 217.776 203.928Z" fill="#1D1E1B"/>
<path d="M207.414 209.521C207.33 209.52 207.249 209.493 207.182 209.443C207.116 209.393 207.067 209.323 207.043 209.242C205.768 204.878 207.558 202.258 207.635 202.147C207.695 202.063 207.785 202.006 207.886 201.989C207.987 201.971 208.091 201.994 208.175 202.053C208.259 202.112 208.316 202.203 208.334 202.304C208.352 202.405 208.328 202.509 208.269 202.593C208.251 202.616 206.62 205.041 207.785 209.034C207.802 209.092 207.806 209.153 207.795 209.212C207.785 209.271 207.76 209.327 207.724 209.376C207.688 209.424 207.642 209.463 207.588 209.49C207.534 209.517 207.474 209.531 207.414 209.531V209.521Z" fill="#1D1E1B"/>
<path d="M213.191 195.637C212.986 195.653 212.783 195.587 212.627 195.454C212.471 195.32 212.374 195.13 212.358 194.925C212.342 194.72 212.408 194.517 212.541 194.361C212.675 194.204 212.865 194.107 213.07 194.091L235.999 190.485C236.202 190.453 236.409 190.502 236.575 190.623C236.741 190.743 236.852 190.925 236.884 191.127C236.916 191.33 236.866 191.537 236.746 191.703C236.625 191.869 236.444 191.98 236.241 192.012L213.312 195.619L213.191 195.637Z" fill="white"/>
<path d="M177.639 186.362C177.505 186.363 177.372 186.328 177.255 186.261C177.139 186.194 177.041 186.098 176.973 185.983C176.904 185.867 176.867 185.735 176.865 185.601C176.863 185.466 176.896 185.334 176.961 185.216L186.236 168.47C186.335 168.291 186.502 168.158 186.699 168.102C186.896 168.045 187.108 168.069 187.287 168.169C187.467 168.268 187.599 168.435 187.656 168.632C187.712 168.829 187.688 169.04 187.589 169.22L178.314 185.966C178.247 186.086 178.149 186.186 178.03 186.256C177.912 186.326 177.777 186.362 177.639 186.362Z" fill="white"/>
<path d="M105.077 197.557L154.918 190.67C155.072 190.65 155.214 190.575 155.316 190.459C155.419 190.342 155.476 190.192 155.476 190.036C155.476 189.881 155.419 189.731 155.316 189.614C155.214 189.497 155.072 189.422 154.918 189.403L104.964 182.831C104.92 182.825 104.876 182.825 104.832 182.831L79.3274 184.794C79.1854 184.804 79.0511 184.862 78.9457 184.958C78.8403 185.053 78.77 185.182 78.7457 185.322C78.7214 185.462 78.7446 185.606 78.8117 185.732C78.8789 185.858 78.986 185.957 79.1162 186.015L104.737 197.513C104.844 197.559 104.962 197.574 105.077 197.557Z" fill="#4BD657"/>
<path d="M104.99 197.956C104.845 197.955 104.702 197.925 104.57 197.866L78.9491 186.362C78.7436 186.267 78.5753 186.106 78.4704 185.905C78.3656 185.704 78.3299 185.474 78.3689 185.251C78.4079 185.028 78.5195 184.823 78.6863 184.67C78.8531 184.516 79.066 184.422 79.2917 184.402L104.797 182.441C104.868 182.434 104.939 182.434 105.011 182.441L154.962 189.013C155.204 189.052 155.424 189.176 155.583 189.362C155.743 189.549 155.83 189.786 155.83 190.031C155.83 190.276 155.743 190.513 155.583 190.7C155.424 190.886 155.204 191.01 154.962 191.049L105.137 197.94C105.088 197.948 105.039 197.953 104.99 197.956ZM104.879 183.217H104.859L79.3535 185.18C79.2963 185.181 79.2416 185.203 79.199 185.241C79.1565 185.28 79.129 185.332 79.1217 185.389C79.1126 185.444 79.1221 185.501 79.1486 185.551C79.1751 185.601 79.2172 185.641 79.2685 185.664L104.89 197.16C104.933 197.179 104.981 197.186 105.029 197.18L154.859 190.289C154.916 190.276 154.967 190.244 155.003 190.198C155.039 190.153 155.059 190.096 155.059 190.038C155.059 189.979 155.039 189.923 155.003 189.877C154.967 189.831 154.916 189.799 154.859 189.786L104.908 183.212L104.879 183.217Z" fill="black"/>
<path d="M89.7852 182.717L90.3545 182.825L125.662 189.55C125.792 189.573 125.909 189.643 125.992 189.745C126.075 189.848 126.118 189.977 126.114 190.109C126.11 190.241 126.059 190.367 125.97 190.464C125.881 190.561 125.76 190.624 125.629 190.639L95.6333 194.416" fill="#382256"/>
<path d="M95.6833 194.8L95.5855 194.027L125.581 190.25C125.619 190.243 125.654 190.223 125.678 190.193C125.703 190.164 125.717 190.126 125.717 190.088C125.717 190.049 125.703 190.012 125.678 189.982C125.654 189.952 125.619 189.932 125.581 189.925L89.7012 183.09L89.8481 182.331L125.746 189.171C125.966 189.212 126.164 189.331 126.304 189.505C126.444 189.68 126.517 189.899 126.51 190.122C126.502 190.346 126.416 190.559 126.265 190.725C126.114 190.89 125.909 190.996 125.687 191.023L95.6833 194.8Z" fill="#1D1E1B"/>
<path d="M39.2117 139.57L83.2917 144.161C83.9158 144.225 84.5106 144.459 85.0125 144.835C85.5143 145.212 85.9045 145.718 86.1411 146.299L105.265 193.187C105.501 193.765 105.576 194.396 105.483 195.013C105.39 195.631 105.132 196.211 104.736 196.694C104.34 197.177 103.821 197.543 103.234 197.756C102.647 197.968 102.013 198.017 101.4 197.899L55.1742 189.021C54.6008 188.914 54.064 188.663 53.6135 188.292C53.1631 187.922 52.8136 187.443 52.598 186.901L35.6204 144.305C35.3975 143.749 35.3223 143.146 35.402 142.553C35.4817 141.96 35.7137 141.397 36.0754 140.921C36.437 140.444 36.9159 140.069 37.4655 139.832C38.0152 139.595 38.6168 139.505 39.2117 139.57Z" fill="#4BD657"/>
<path d="M102.08 198.347C101.828 198.347 101.576 198.323 101.328 198.275L55.1042 189.397C54.4686 189.277 53.8739 188.997 53.3753 188.585C52.8767 188.173 52.4904 187.642 52.2523 187.04L35.2747 144.441C35.0287 143.826 34.9459 143.157 35.0344 142.5C35.123 141.843 35.3799 141.219 35.78 140.691C36.1802 140.162 36.7101 139.746 37.3185 139.482C37.9269 139.218 38.5931 139.116 39.2525 139.186L83.3299 143.777C84.0237 143.848 84.685 144.107 85.2432 144.526C85.8013 144.944 86.2354 145.506 86.4987 146.152L105.622 193.04C105.858 193.623 105.947 194.255 105.883 194.881C105.818 195.507 105.602 196.107 105.253 196.63C104.904 197.154 104.433 197.584 103.88 197.883C103.327 198.183 102.709 198.343 102.08 198.35V198.347ZM38.8454 139.935C38.3442 139.94 37.8516 140.066 37.4099 140.303C36.9683 140.54 36.5909 140.881 36.3103 141.296C36.0296 141.711 35.8541 142.188 35.7989 142.686C35.7437 143.185 35.8105 143.689 35.9935 144.155L52.9711 186.754C53.1605 187.235 53.4687 187.66 53.867 187.989C54.2653 188.319 54.7406 188.542 55.2485 188.637L101.475 197.515C102.019 197.62 102.582 197.575 103.103 197.387C103.624 197.198 104.085 196.872 104.437 196.444C104.788 196.015 105.017 195.499 105.1 194.951C105.183 194.402 105.116 193.842 104.906 193.329L85.7825 146.441C85.5724 145.924 85.2259 145.474 84.7798 145.139C84.3337 144.804 83.8048 144.597 83.25 144.539L39.1829 139.953C39.0618 139.943 38.9536 139.935 38.8454 139.935Z" fill="black"/>
<path d="M109.238 150.473C109.238 150.473 106.512 148.564 97.9668 150.377L109.238 150.473Z" fill="#07ACEE"/>
<path d="M109.236 150.859C109.158 150.859 109.081 150.836 109.017 150.792C108.975 150.764 106.232 149.02 98.0471 150.756C97.9466 150.777 97.8418 150.758 97.7558 150.701C97.6698 150.645 97.6096 150.558 97.5884 150.457C97.5672 150.357 97.5868 150.252 97.6429 150.166C97.6989 150.08 97.7869 150.02 97.8873 149.999C106.497 148.172 109.341 150.076 109.46 150.156C109.544 150.215 109.6 150.305 109.618 150.406C109.635 150.507 109.612 150.61 109.553 150.694C109.517 150.745 109.47 150.787 109.415 150.816C109.359 150.845 109.298 150.859 109.236 150.859Z" fill="#1D1D1B"/>
<path d="M62.0864 150.637C56.4444 142.043 53.1957 132.603 52.4254 122.556C51.8123 114.533 52.7733 106.119 55.2826 97.5506C59.5515 82.9715 66.9376 72.8441 67.0123 72.7437L67.6332 73.2022C67.5611 73.3026 60.2444 83.3373 56.0167 97.7902C52.1214 111.104 50.1274 131.004 62.7331 150.212L62.0864 150.637Z" fill="#1D1E1B"/>
<path d="M49.9308 149.72C43.3459 140.817 41.5784 130.656 41.2564 123.682C40.906 116.141 42.1299 110.618 42.1427 110.563L42.895 110.734C42.895 110.788 41.6815 116.226 42.0293 123.669C42.3487 130.519 44.0903 140.52 50.5516 149.259L49.9308 149.72Z" fill="#1D1E1B"/>
<path d="M65.6739 172.608C65.2189 172.583 64.7893 172.39 64.4681 172.067C63.9592 171.56 63.5694 170.946 63.327 170.269C63.0846 169.593 62.9957 168.871 63.0666 168.156C63.1723 167.44 63.5072 166.948 64.0096 166.767C64.9731 166.422 66.1814 167.419 66.7636 169.037C67.3433 170.655 67.0445 172.193 66.0809 172.538C65.9502 172.584 65.8125 172.608 65.6739 172.608ZM64.414 167.471C64.365 167.47 64.3162 167.478 64.2697 167.494C64.0533 167.574 63.891 167.855 63.8292 168.267C63.7786 168.856 63.8557 169.449 64.0554 170.005C64.255 170.561 64.5725 171.068 64.986 171.49C65.2977 171.771 65.6017 171.886 65.8207 171.809C66.287 171.642 66.4776 170.521 66.0345 169.295C65.6326 168.179 64.8958 167.471 64.414 167.471Z" fill="#1D1E1B"/>
<path d="M94.1692 173.997C94.0171 173.997 93.8681 173.952 93.7412 173.869C93.6142 173.785 93.5149 173.665 93.4556 173.525L83.1505 149.051C83.0709 148.862 83.0696 148.649 83.1469 148.459C83.2242 148.269 83.3737 148.118 83.5626 148.038C83.7515 147.959 83.9644 147.957 84.1542 148.035C84.3441 148.112 84.4955 148.261 84.5751 148.45L94.8802 172.925C94.9197 173.018 94.9402 173.119 94.9409 173.22C94.9415 173.322 94.9222 173.422 94.8839 173.517C94.8456 173.611 94.7892 173.696 94.7178 173.768C94.6465 173.841 94.5616 173.898 94.468 173.937C94.3733 173.977 94.2718 173.997 94.1692 173.997Z" fill="white"/>
<path d="M97.0029 183.528C96.836 183.529 96.6734 183.475 96.5397 183.375C96.4059 183.275 96.3081 183.135 96.2608 182.975L94.9727 178.595C94.9441 178.498 94.935 178.395 94.9459 178.294C94.9567 178.193 94.9874 178.096 95.0361 178.006C95.0847 177.917 95.1506 177.839 95.2297 177.775C95.3087 177.711 95.3995 177.664 95.497 177.635C95.5944 177.607 95.6965 177.598 95.7975 177.608C95.8984 177.619 95.9963 177.65 96.0854 177.699C96.1745 177.747 96.2532 177.813 96.3169 177.892C96.3806 177.971 96.4281 178.062 96.4567 178.16L97.7448 182.539C97.8026 182.735 97.7809 182.945 97.6844 183.124C97.5879 183.304 97.4244 183.438 97.2295 183.498C97.1558 183.518 97.0795 183.529 97.0029 183.528Z" fill="white"/>
<defs>
<filter id="filter0_d_10107_64847" x="-2.82277" y="75.6952" width="27.167" height="27.167" filterUnits="userSpaceOnUse" color-interpolation-filters="sRGB">
<feFlood flood-opacity="0" result="BackgroundImageFix"/>
<feColorMatrix in="SourceAlpha" type="matrix" values="0 0 0 0 0 0 0 0 0 0 0 0 0 0 0 0 0 0 127 0" result="hardAlpha"/>
<feOffset dy="1.43057"/>
<feGaussianBlur stdDeviation="3.57642"/>
<feComposite in2="hardAlpha" operator="out"/>
<feColorMatrix type="matrix" values="0 0 0 0 0 0 0 0 0 0 0 0 0 0 0 0 0 0 0.05 0"/>
<feBlend mode="normal" in2="BackgroundImageFix" result="effect1_dropShadow_10107_64847"/>
<feBlend mode="normal" in="SourceGraphic" in2="effect1_dropShadow_10107_64847" result="shape"/>
</filter>
<filter id="filter1_d_10107_64847" x="260.296" y="116.027" width="27.1709" height="27.1704" filterUnits="userSpaceOnUse" color-interpolation-filters="sRGB">
<feFlood flood-opacity="0" result="BackgroundImageFix"/>
<feColorMatrix in="SourceAlpha" type="matrix" values="0 0 0 0 0 0 0 0 0 0 0 0 0 0 0 0 0 0 127 0" result="hardAlpha"/>
<feOffset dy="1.43057"/>
<feGaussianBlur stdDeviation="3.57642"/>
<feComposite in2="hardAlpha" operator="out"/>
<feColorMatrix type="matrix" values="0 0 0 0 0 0 0 0 0 0 0 0 0 0 0 0 0 0 0.05 0"/>
<feBlend mode="normal" in2="BackgroundImageFix" result="effect1_dropShadow_10107_64847"/>
<feBlend mode="normal" in="SourceGraphic" in2="effect1_dropShadow_10107_64847" result="shape"/>
</filter>
<linearGradient id="paint0_linear_10107_64847" x1="14.3628" y1="78.6815" x2="275.328" y2="140.839" gradientUnits="userSpaceOnUse">
<stop stop-color="#CDD5E2"/>
<stop offset="1" stop-color="#CDD5E2" stop-opacity="0"/>
</linearGradient>
<linearGradient id="paint1_linear_10107_64847" x1="274.879" y1="137.251" x2="248.501" y2="206.5" gradientUnits="userSpaceOnUse">
<stop stop-color="#CDD5E2"/>
<stop offset="1" stop-color="#CDD5E2" stop-opacity="0"/>
</linearGradient>
<linearGradient id="paint2_linear_10107_64847" x1="138" y1="16.335" x2="138" y2="256.335" gradientUnits="userSpaceOnUse">
<stop stop-color="#CDD5E2"/>
<stop offset="1" stop-color="#CDD5E2" stop-opacity="0"/>
</linearGradient>
<linearGradient id="paint3_linear_10107_64847" x1="138" y1="40.335" x2="138" y2="232.335" gradientUnits="userSpaceOnUse">
<stop stop-color="#CDD5E2"/>
<stop offset="1" stop-color="#CDD5E2" stop-opacity="0"/>
</linearGradient>
</defs>
</svg>
