<svg width="285" height="212" viewBox="0 0 285 212" fill="none" xmlns="http://www.w3.org/2000/svg">
<mask id="mask0_10099_58996" style="mask-type:alpha" maskUnits="userSpaceOnUse" x="0" y="0" width="285" height="212">
<rect width="285" height="212" fill="#D9D9D9"/>
</mask>
<g mask="url(#mask0_10099_58996)">
<g opacity="0.5">
<mask id="path-2-inside-1_10099_58996" fill="white">
<path d="M273.871 142.256C275.287 109.771 265.017 77.8543 244.923 52.2905C224.829 26.7266 196.242 9.20795 164.342 2.91007C132.441 -3.3878 99.3407 1.95193 71.0393 17.9614C42.7378 33.9708 21.1088 59.5903 10.0729 90.1759L10.6626 90.3887C21.6477 59.944 43.1769 34.4426 71.3479 18.507C99.5189 2.57137 132.467 -2.74374 164.22 3.5251C195.973 9.79394 224.429 27.2318 244.43 52.6779C264.432 78.1239 274.654 109.894 273.245 142.229L273.871 142.256Z"/>
</mask>
<path d="M273.871 142.256C275.287 109.771 265.017 77.8543 244.923 52.2905C224.829 26.7266 196.242 9.20795 164.342 2.91007C132.441 -3.3878 99.3407 1.95193 71.0393 17.9614C42.7378 33.9708 21.1088 59.5903 10.0729 90.1759L10.6626 90.3887C21.6477 59.944 43.1769 34.4426 71.3479 18.507C99.5189 2.57137 132.467 -2.74374 164.22 3.5251C195.973 9.79394 224.429 27.2318 244.43 52.6779C264.432 78.1239 274.654 109.894 273.245 142.229L273.871 142.256Z" stroke="url(#paint0_linear_10099_58996)" stroke-width="2" stroke-dasharray="3 3" mask="url(#path-2-inside-1_10099_58996)"/>
</g>
<g opacity="0.5">
<mask id="path-3-inside-2_10099_58996" fill="white">
<path d="M10.256 182.994C21.4116 213.536 43.1407 239.07 71.5046 254.969C99.8685 270.867 132.99 276.078 164.865 269.655C196.74 263.232 225.259 245.602 245.253 219.96C265.247 194.317 275.391 162.36 273.848 129.881L273.222 129.911C274.758 162.24 264.66 194.05 244.759 219.574C224.857 245.098 196.469 262.647 164.741 269.04C133.013 275.433 100.044 270.247 71.8111 254.422C43.578 238.597 21.949 213.18 10.8449 182.778L10.256 182.994Z"/>
</mask>
<path d="M10.256 182.994C21.4116 213.536 43.1407 239.07 71.5046 254.969C99.8685 270.867 132.99 276.078 164.865 269.655C196.74 263.232 225.259 245.602 245.253 219.96C265.247 194.317 275.391 162.36 273.848 129.881L273.222 129.911C274.758 162.24 264.66 194.05 244.759 219.574C224.857 245.098 196.469 262.647 164.741 269.04C133.013 275.433 100.044 270.247 71.8111 254.422C43.578 238.597 21.949 213.18 10.8449 182.778L10.256 182.994Z" stroke="url(#paint1_linear_10099_58996)" stroke-width="2" stroke-dasharray="3 3" mask="url(#path-3-inside-2_10099_58996)"/>
</g>
<circle opacity="0.08" cx="138" cy="136.335" r="120" fill="url(#paint2_linear_10099_58996)"/>
<circle opacity="0.1" cx="138" cy="136.335" r="96" fill="url(#paint3_linear_10099_58996)"/>
<circle cx="138" cy="136.335" r="64" fill="white"/>
<g filter="url(#filter0_d_10099_58996)">
<circle cx="10.7606" cy="87.8481" r="5" transform="rotate(-2.50406 10.7606 87.8481)" fill="#0170FF"/>
<circle cx="10.7606" cy="87.8481" r="5.71528" transform="rotate(-2.50406 10.7606 87.8481)" stroke="white" stroke-width="1.43057"/>
</g>
<g filter="url(#filter1_d_10099_58996)">
<circle cx="273.881" cy="128.181" r="5" transform="rotate(-15.7345 273.881 128.181)" fill="#0170FF"/>
<circle cx="273.881" cy="128.181" r="5.71528" transform="rotate(-15.7345 273.881 128.181)" stroke="white" stroke-width="1.43057"/>
</g>
</g>
<path d="M239.228 204.427H33.6274C33.4786 204.427 33.336 204.368 33.2308 204.262C33.1256 204.157 33.0664 204.014 33.0664 203.866C33.0664 203.717 33.1256 203.574 33.2308 203.469C33.336 203.364 33.4786 203.305 33.6274 203.305H239.228C239.377 203.305 239.52 203.364 239.625 203.469C239.73 203.574 239.789 203.717 239.789 203.866C239.789 204.014 239.73 204.157 239.625 204.262C239.52 204.368 239.377 204.427 239.228 204.427Z" fill="#1D1D1B"/>
<path d="M259.985 212H228.29C228.141 212 227.998 211.941 227.893 211.836C227.788 211.73 227.729 211.588 227.729 211.439C227.729 211.29 227.788 211.147 227.893 211.042C227.998 210.937 228.141 210.878 228.29 210.878H259.985C260.134 210.878 260.277 210.937 260.382 211.042C260.487 211.147 260.546 211.29 260.546 211.439C260.546 211.588 260.487 211.73 260.382 211.836C260.277 211.941 260.134 212 259.985 212Z" fill="#1D1D1B"/>
<path d="M54.6637 212H18.1997C18.0509 212 17.9082 211.941 17.803 211.836C17.6978 211.73 17.6387 211.588 17.6387 211.439C17.6387 211.29 17.6978 211.147 17.803 211.042C17.9082 210.937 18.0509 210.878 18.1997 210.878H54.6637C54.8125 210.878 54.9551 210.937 55.0603 211.042C55.1655 211.147 55.2247 211.29 55.2247 211.439C55.2247 211.588 55.1655 211.73 55.0603 211.836C54.9551 211.941 54.8125 212 54.6637 212Z" fill="#1D1D1B"/>
<path d="M145.113 55.3442H55.6588C45.8932 55.3442 37.9766 63.2609 37.9766 73.0265V134.993C37.9766 144.759 45.8932 152.675 55.6588 152.675H145.113C154.879 152.675 162.796 144.759 162.796 134.993V73.0265C162.796 63.2609 154.879 55.3442 145.113 55.3442Z" fill="#4BD657"/>
<path d="M145.114 55.3444C149.8 55.3444 154.295 57.2062 157.609 60.5202C160.923 63.8341 162.785 68.3288 162.785 73.0154V134.982C162.785 139.668 160.923 144.163 157.609 147.477C154.295 150.791 149.8 152.653 145.114 152.653H55.659C50.9723 152.653 46.4776 150.791 43.1637 147.477C39.8497 144.163 37.988 139.668 37.988 134.982V73.0267C37.988 68.34 39.8497 63.8453 43.1637 60.5313C46.4776 57.2174 50.9723 55.3556 55.659 55.3556H145.114V55.3444ZM145.114 54.5142H55.659C50.7519 54.5231 46.0484 56.4763 42.5786 59.9462C39.1087 63.416 37.1554 68.1196 37.1465 73.0267V134.993C37.1554 139.9 39.1087 144.604 42.5786 148.074C46.0484 151.543 50.7519 153.497 55.659 153.506H145.114C150.021 153.497 154.724 151.543 158.194 148.074C161.664 144.604 163.617 139.9 163.626 134.993V73.0267C163.617 68.1196 161.664 63.416 158.194 59.9462C154.724 56.4763 150.021 54.5231 145.114 54.5142Z" fill="#1D1E1B"/>
<path d="M37.9766 134.993V122.522L68.5502 98.5488L89.8677 111.732L115.953 79.1948L162.796 116.565V135.002C162.796 139.688 160.934 144.183 157.62 147.497C154.306 150.811 149.811 152.673 145.125 152.673H55.6701C53.3469 152.676 51.0459 152.22 48.8988 151.333C46.7517 150.446 44.8006 149.144 43.1572 147.502C41.5138 145.86 40.2105 143.91 39.3215 141.763C38.4325 139.617 37.9755 137.316 37.9766 134.993Z" fill="white"/>
<path d="M145.114 153.096H55.6596C50.86 153.091 46.2585 151.182 42.8646 147.788C39.4708 144.395 37.5618 139.793 37.5566 134.993V122.312L37.7166 122.183L68.5231 98.0273L89.7732 111.171L115.89 78.5947L116.218 78.8584L163.217 116.352V134.991C163.213 139.791 161.304 144.393 157.91 147.787C154.516 151.182 149.914 153.091 145.114 153.096ZM38.3981 122.719V134.993C38.4033 139.57 40.2235 143.957 43.4596 147.193C46.6956 150.429 51.0832 152.25 55.6596 152.255H145.114C149.691 152.25 154.078 150.429 157.314 147.193C160.55 143.957 162.371 139.57 162.376 134.993V116.761L116.019 79.7785L89.9638 112.276L68.579 99.0539L38.3981 122.719Z" fill="#1D1F1C"/>
<path d="M171.07 76.9453C170.958 63.9277 166.394 54.2983 157.887 49.098C153.939 46.7125 149.462 45.3413 144.855 45.1066V44.2651C145.136 44.2651 151.641 44.3128 158.291 48.3575C164.431 52.0937 171.777 60.0821 171.923 76.9397L171.07 76.9453Z" fill="#1D1F1C"/>
<path d="M41.3384 77.6436C41.1176 77.6436 40.9055 77.5569 40.7481 77.4021C40.5907 77.2473 40.5006 77.0369 40.4969 76.8162C40.3931 70.7912 42.0114 66.0228 45.3044 62.6513C50.1457 57.6922 56.8046 57.6024 57.0851 57.5884C57.3083 57.5884 57.5222 57.677 57.6801 57.8348C57.8379 57.9926 57.9266 58.2067 57.9266 58.4299C57.9266 58.653 57.8379 58.8671 57.6801 59.0249C57.5222 59.1827 57.3083 59.2713 57.0851 59.2713C56.9813 59.2713 50.8104 59.3976 46.488 63.8406C43.5288 66.8783 42.076 71.2371 42.1713 76.7881C42.1751 77.0108 42.0904 77.2259 41.9358 77.3862C41.7812 77.5466 41.5693 77.6392 41.3466 77.6436H41.3384Z" fill="white"/>
<path d="M79.7674 83.6745C83.7951 83.6745 87.0602 80.4094 87.0602 76.3817C87.0602 72.354 83.7951 69.0889 79.7674 69.0889C75.7397 69.0889 72.4746 72.354 72.4746 76.3817C72.4746 80.4094 75.7397 83.6745 79.7674 83.6745Z" fill="white"/>
<path d="M79.7682 84.0951C78.2426 84.0951 76.7513 83.6427 75.4828 82.7951C74.2143 81.9476 73.2258 80.7428 72.642 79.3334C72.0581 77.9239 71.9052 76.373 72.2029 74.8767C72.5005 73.3804 73.2352 72.006 74.314 70.9272C75.3927 69.8484 76.767 69.1138 78.2633 68.8162C79.7596 68.5186 81.3105 68.6713 82.72 69.2551C84.1294 69.839 85.3342 70.8277 86.1817 72.0962C87.0293 73.3646 87.4818 74.8559 87.4818 76.3815C87.4788 78.4264 86.6651 80.3867 85.2192 81.8326C83.7733 83.2785 81.8131 84.0921 79.7682 84.0951ZM79.7682 69.5095C78.4091 69.5095 77.0805 69.9125 75.9503 70.6676C74.8202 71.4227 73.9395 72.496 73.4193 73.7517C72.8992 75.0074 72.763 76.3892 73.0282 77.7222C73.2933 79.0553 73.9478 80.2798 74.9089 81.2409C75.87 82.2019 77.0946 82.8564 78.4277 83.1216C79.7607 83.3867 81.1424 83.2506 82.3981 82.7305C83.6538 82.2104 84.727 81.3296 85.4822 80.1995C86.2373 79.0694 86.6403 77.7407 86.6403 76.3815C86.6381 74.5596 85.9133 72.813 84.6251 71.5247C83.3368 70.2364 81.5901 69.5117 79.7682 69.5095Z" fill="#1D1F1C"/>
<path d="M180.884 117.947C166.335 113.401 129.857 120.419 119.594 133.321C113.751 140.665 107.813 154.358 101.923 171.468C99.4318 178.702 94.944 185.47 86.4955 184.651C81.0287 184.121 75.3235 187.953 76.1173 191.664C77.6768 198.957 90.7029 203.725 90.7029 203.725L193.84 203.299C193.84 203.299 205.778 179.58 194.437 155.747C194.437 155.747 216.849 165.177 226.029 161.076C235.21 156.975 247.243 131.905 238.062 129.347L239.869 123.123L225.6 115.011L222.593 118.82C222.593 118.82 217.959 113.305 214.711 117.316C211.463 121.327 206.322 129.498 206.322 129.498C206.322 129.498 202.776 124.789 180.884 117.947Z" fill="#07ACEE"/>
<path d="M90.706 204.146C90.6563 204.146 90.6071 204.137 90.5603 204.12C90.0217 203.921 77.2985 199.189 75.7082 191.751C75.4277 190.404 75.896 188.946 77.046 187.664C79.1497 185.305 83.0541 183.894 86.5378 184.234C93.3117 184.893 98.3551 180.551 101.527 171.331C108.052 152.384 113.852 139.865 119.269 133.061C124.012 127.094 134.696 121.841 148.541 118.68C161.197 115.782 173.942 115.336 181.013 117.558C199.313 123.277 204.855 127.512 206.258 128.836C207.38 127.055 211.587 120.511 214.392 117.07C215.253 116.007 216.288 115.462 217.477 115.451H217.514C219.727 115.451 221.792 117.353 222.591 118.186L225.292 114.767C225.353 114.687 225.441 114.633 225.54 114.613C225.638 114.593 225.741 114.61 225.828 114.66L240.096 122.775C240.179 122.821 240.243 122.894 240.279 122.982C240.315 123.069 240.319 123.167 240.293 123.257L238.61 129.089C240.486 129.782 241.574 131.487 241.765 134.048C242.385 142.393 233.384 158.285 226.229 161.477C217.991 165.152 199.798 158.344 195.296 156.549C200.726 168.633 200.236 180.57 198.833 188.545C197.274 197.411 194.275 203.439 194.244 203.501C194.209 203.57 194.156 203.628 194.09 203.668C194.024 203.709 193.948 203.731 193.871 203.731L90.734 204.157L90.706 204.146ZM85.4805 185.025C82.5185 185.025 79.419 186.27 77.6743 188.225C76.9899 188.991 76.2353 190.188 76.5327 191.591C77.9688 198.309 89.7634 202.931 90.7816 203.318L193.579 202.895C195.652 198.259 197.132 193.38 197.983 188.374C199.4 180.312 199.865 168.142 194.056 155.94C194.021 155.864 194.009 155.778 194.023 155.695C194.037 155.612 194.076 155.535 194.135 155.474C194.193 155.414 194.269 155.372 194.352 155.355C194.434 155.338 194.52 155.347 194.598 155.379C194.822 155.472 216.947 164.692 225.856 160.709C232.784 157.623 241.496 142.196 240.896 134.11C240.716 131.723 239.726 130.261 237.948 129.768C237.84 129.738 237.748 129.666 237.693 129.568C237.639 129.47 237.626 129.354 237.656 129.246L239.37 123.355L225.704 115.586L222.922 119.112C222.883 119.16 222.834 119.2 222.778 119.227C222.723 119.255 222.661 119.27 222.599 119.271C222.538 119.271 222.478 119.258 222.422 119.232C222.367 119.205 222.318 119.167 222.279 119.12C222.254 119.092 219.878 116.315 217.511 116.315H217.48C216.552 116.315 215.761 116.753 215.054 117.622C211.859 121.569 206.748 129.683 206.695 129.762C206.659 129.82 206.61 129.868 206.551 129.902C206.493 129.936 206.427 129.956 206.359 129.958C206.291 129.962 206.223 129.949 206.161 129.92C206.099 129.891 206.046 129.848 206.005 129.793C205.969 129.748 202.146 125.061 180.761 118.382C173.824 116.214 161.25 116.666 148.729 119.535C135.052 122.668 124.553 127.801 119.925 133.616C114.573 140.348 108.815 152.785 102.324 171.639C99.2386 180.629 94.3748 185.173 87.8814 185.173C87.4157 185.173 86.9419 185.151 86.4595 185.103C86.1369 185.039 85.7974 185.025 85.4805 185.025Z" fill="#1D1D1B"/>
<path d="M76.9659 122C72.2611 121.995 67.5676 121.539 62.9498 120.638C55.4095 119.174 48.1489 116.522 41.4385 112.782C33.0819 108.121 25.5713 101.739 19.1138 93.8254C19.0291 93.7215 18.9891 93.5881 19.0026 93.4547C19.0161 93.3213 19.082 93.1987 19.1858 93.1139C19.2896 93.0291 19.4229 92.9891 19.5562 93.0026C19.6896 93.0161 19.8121 93.082 19.8968 93.1859C34.322 110.879 51.3531 117.344 63.0988 119.647C75.842 122.144 85.2973 120.428 85.3907 120.405C85.4565 120.391 85.5244 120.391 85.5905 120.403C85.6565 120.416 85.7193 120.442 85.7752 120.479C85.8311 120.517 85.8792 120.565 85.9163 120.621C85.9534 120.677 85.9788 120.74 85.9912 120.806C86.0037 120.872 86.0029 120.94 85.9888 121.006C85.9746 121.072 85.9474 121.134 85.9089 121.189C85.8703 121.245 85.8212 121.291 85.7643 121.327C85.7075 121.363 85.644 121.387 85.5776 121.398C85.5221 121.404 82.244 122 76.9659 122Z" fill="#1D1D1B"/>
<path d="M118.171 103.586C118.171 103.586 115.144 111.819 109.689 108.355C104.233 104.891 92.6346 97.3792 86.6405 105.236C80.6464 113.092 81.0671 115.129 74.4278 113.056C67.7886 110.983 50.3056 128.483 66.6387 139.17C93.3836 156.661 131.906 116.251 131.906 116.251L127.926 110.116L118.171 103.586Z" fill="#382256"/>
<path d="M81.7688 143.98C76.0917 143.98 70.9447 142.491 66.4091 139.523C59.8035 135.203 57.7813 128.982 60.8639 122.449C63.7278 116.377 70.6362 111.437 74.5519 112.657C79.6597 114.251 80.2487 113.42 83.5277 108.801C84.3074 107.701 85.1881 106.456 86.3129 104.983C92.4669 96.919 104.116 104.316 109.714 107.872L109.922 108.004C111.136 108.775 112.315 108.977 113.423 108.602C116.197 107.665 117.767 103.483 117.781 103.44L117.967 102.938L128.238 109.819L132.445 116.304L132.216 116.542C132.12 116.646 122.398 126.777 109.526 134.631C101.953 139.254 94.7725 142.204 88.2089 143.385C86.0841 143.774 83.9289 143.973 81.7688 143.98ZM73.27 113.317C69.8592 113.317 64.2354 117.277 61.624 122.808C59.9411 126.399 58.3589 133.254 66.869 138.819C80.4954 147.73 97.339 141.063 109.069 133.922C120.799 126.78 129.826 117.771 131.371 116.2L127.621 110.422L118.365 104.22C117.832 105.438 116.258 108.529 113.689 109.398C112.329 109.858 110.906 109.628 109.465 108.714L109.257 108.582C103.869 105.16 92.6604 98.0438 86.9777 105.496C85.8557 106.958 84.9833 108.198 84.2092 109.289C80.8853 113.979 80.0017 115.241 74.3021 113.465C73.9675 113.364 73.6196 113.314 73.27 113.317Z" fill="black"/>
<path d="M84.8965 143.411C101.664 120.338 126.62 114.579 126.62 114.579C127.972 115.545 129.084 116.81 129.868 118.276C123.627 124.267 104.046 141.621 84.8965 143.411Z" fill="#050505"/>
<path d="M119.806 93.3239C124.337 93.3239 128.01 89.6506 128.01 85.1194C128.01 80.5883 124.337 76.915 119.806 76.915C115.275 76.915 111.602 80.5883 111.602 85.1194C111.602 89.6506 115.275 93.3239 119.806 93.3239Z" fill="#382256"/>
<path d="M115.006 78.4631C116.483 77.3975 118.273 76.8538 120.094 76.9177C121.914 76.9816 123.661 77.6494 125.06 78.816C126.459 79.9825 127.43 81.5815 127.82 83.3607C128.21 85.14 127.997 86.9984 127.214 88.6431C126.431 90.2878 125.123 91.6252 123.496 92.4446C121.869 93.2639 120.016 93.5185 118.229 93.1684C116.441 92.8183 114.821 91.8833 113.624 90.5107C112.426 89.1381 111.719 87.4061 111.615 85.5876C111.531 84.2102 111.798 82.8339 112.391 81.5879C112.984 80.3418 113.884 79.2666 115.006 78.4631ZM114.641 77.9583C112.916 79.2014 111.698 81.0252 111.209 83.0947C110.72 85.1642 110.995 87.3406 111.982 89.224C112.969 91.1075 114.602 92.5717 116.582 93.3477C118.562 94.1238 120.755 94.1595 122.759 93.4485C124.763 92.7374 126.443 91.3272 127.491 89.4769C128.539 87.6266 128.884 85.4604 128.463 83.3761C128.042 81.2917 126.884 79.4292 125.2 78.1304C123.516 76.8317 121.42 76.1839 119.298 76.3061C117.62 76.4005 116.004 76.9739 114.641 77.9583Z" fill="black"/>
<path d="M152.407 95.7214C152.407 95.7214 154.864 88.5801 150.2 85.3628C145.535 82.1456 144.59 83.1946 142.248 81.3377C139.906 79.4809 134.178 79.5594 130.888 82.9871C130.888 82.9871 123.876 82.1456 120.098 85.8481C116.319 89.5506 116 92.5575 116.732 96.748C117.464 100.939 117.102 103.199 117.522 106.164C117.943 109.129 120.392 116.719 132.669 116.262C144.946 115.805 152.407 95.7214 152.407 95.7214Z" fill="#382256"/>
<path d="M131.624 116.697C119.562 116.697 117.47 108.728 117.114 106.223C116.961 105.021 116.876 103.811 116.859 102.599C116.83 100.662 116.652 98.7304 116.326 96.821C115.577 92.5771 115.908 89.3738 119.804 85.5479C123.349 82.0642 129.5 82.4345 130.743 82.5467C134.126 79.1807 139.907 78.9395 142.524 81.0068C143.299 81.6181 144.19 82.0656 145.143 82.3223C146.333 82.7121 147.814 83.1946 150.453 85.015C155.325 88.3809 152.924 95.5531 152.817 95.8588C151.41 99.4274 149.636 102.84 147.522 106.041C143.006 112.798 137.887 116.472 132.723 116.666C132.336 116.688 131.974 116.697 131.624 116.697ZM129.178 83.318C126.934 83.318 122.881 83.6939 120.393 86.137C116.746 89.7217 116.438 92.5883 117.156 96.6639C117.489 98.6103 117.67 100.58 117.697 102.554C117.715 103.736 117.798 104.916 117.947 106.088C118.286 108.489 120.359 116.282 132.673 115.819C144.476 115.373 151.855 95.9738 152.01 95.5643C152.08 95.3595 154.254 88.6558 149.959 85.691C147.435 83.9407 146.004 83.4779 144.868 83.1048C143.819 82.8203 142.839 82.325 141.988 81.6491C139.87 79.9661 134.414 79.9156 131.192 83.2591L131.049 83.4106L130.838 83.3881C130.286 83.3394 129.732 83.3197 129.178 83.3292V83.318Z" fill="black"/>
<path d="M132.126 101.062L132.104 101.079C128.951 102.95 124.095 101.668 123.891 101.612C123.815 101.587 123.751 101.534 123.713 101.464C123.675 101.393 123.666 101.311 123.687 101.234C123.707 101.157 123.757 101.091 123.825 101.05C123.894 101.008 123.975 100.994 124.053 101.011C124.101 101.025 128.861 102.279 131.787 100.543C131.855 100.507 131.935 100.497 132.01 100.517C132.085 100.536 132.15 100.583 132.193 100.648C132.235 100.713 132.252 100.791 132.24 100.868C132.227 100.944 132.187 101.014 132.126 101.062Z" fill="black"/>
<path d="M149.866 117.025C149.866 117.025 155.523 117.867 152.92 123.053C150.317 128.239 145.285 126.683 145.285 126.683C145.285 126.683 135.305 137.529 132.242 123.968L149.866 117.025Z" fill="white"/>
<path d="M137.889 131.218C137.473 131.22 137.058 131.167 136.655 131.061C134.366 130.449 132.742 128.096 131.833 124.068L131.752 123.718L149.816 116.602H149.928C150.037 116.618 152.637 117.022 153.644 118.949C154.253 120.119 154.135 121.561 153.296 123.235C150.912 128.004 146.531 127.387 145.423 127.145C144.618 127.973 141.244 131.218 137.889 131.218ZM132.736 124.234C133.578 127.718 134.98 129.74 136.871 130.248C140.495 131.215 144.932 126.455 144.977 126.408L145.157 126.211L145.412 126.29C145.603 126.349 150.138 127.678 152.545 122.873C153.254 121.454 153.386 120.268 152.898 119.353C152.189 117.993 150.374 117.558 149.911 117.468L132.736 124.234Z" fill="#1D1D1B"/>
<path d="M130.678 99.1967C130.002 99.6793 129.265 100.069 128.485 100.355C128.408 100.38 128.326 100.374 128.253 100.339C128.181 100.304 128.125 100.242 128.098 100.167C128.07 100.092 128.072 100.008 128.104 99.9348C128.136 99.8612 128.195 99.8027 128.269 99.7716C135.001 97.2472 133.273 89.9544 133.197 89.6318C133.178 89.5515 133.191 89.4666 133.233 89.3959C133.276 89.3251 133.345 89.2743 133.426 89.2546C133.506 89.2349 133.591 89.2479 133.662 89.2908C133.733 89.3336 133.783 89.4028 133.803 89.4832C133.828 89.5561 135.315 95.8532 130.678 99.1967Z" fill="white"/>
<path d="M128.386 100.515C128.294 100.515 128.204 100.487 128.128 100.434C128.052 100.382 127.995 100.307 127.963 100.221C127.94 100.166 127.928 100.107 127.928 100.048C127.928 99.9889 127.94 99.9302 127.963 99.8756C128.012 99.7667 128.103 99.682 128.215 99.64C134.818 97.166 133.132 89.9714 133.059 89.6657C133.044 89.6087 133.041 89.5491 133.049 89.4908C133.058 89.4325 133.079 89.3765 133.109 89.3263C133.172 89.2241 133.272 89.1507 133.388 89.1218C133.504 89.093 133.626 89.111 133.729 89.172C133.781 89.2023 133.826 89.2428 133.861 89.2911C133.896 89.3393 133.921 89.3943 133.934 89.4525C133.951 89.517 135.477 95.9038 130.759 99.3118C130.073 99.802 129.324 100.197 128.532 100.487C128.485 100.504 128.436 100.514 128.386 100.515ZM133.508 89.388H133.466C133.422 89.3995 133.385 89.4277 133.362 89.4665C133.35 89.4849 133.342 89.5057 133.338 89.5275C133.335 89.5493 133.336 89.5716 133.342 89.5928C133.418 89.9097 135.16 97.3372 128.324 99.8981C128.282 99.9135 128.248 99.9447 128.229 99.985C128.212 100.027 128.212 100.075 128.229 100.117C128.245 100.159 128.278 100.194 128.319 100.213C128.361 100.231 128.408 100.233 128.45 100.218C129.218 99.9346 129.944 99.5507 130.61 99.0762C135.171 95.7832 133.696 89.5731 133.679 89.5114C133.674 89.4897 133.664 89.4692 133.65 89.4513C133.637 89.4334 133.62 89.4186 133.6 89.4076C133.572 89.3917 133.54 89.3849 133.508 89.388Z" fill="white"/>
<path d="M114.073 86.4572C114.031 86.4872 113.982 86.5065 113.93 86.5133C113.849 86.5237 113.767 86.5015 113.702 86.4516C113.636 86.4017 113.594 86.3281 113.582 86.2468C113.302 84.1403 113.706 82.4405 114.778 81.1979C116.511 79.1812 119.349 79.1027 119.47 79.1027C119.511 79.1015 119.551 79.1085 119.589 79.1232C119.628 79.1379 119.662 79.1599 119.692 79.188C119.721 79.2162 119.745 79.2499 119.761 79.2873C119.778 79.3246 119.786 79.3648 119.787 79.4056C119.788 79.4465 119.781 79.4871 119.766 79.5252C119.751 79.5632 119.728 79.598 119.7 79.6274C119.671 79.6568 119.638 79.6804 119.6 79.6967C119.563 79.713 119.522 79.7218 119.481 79.7225C119.456 79.7225 116.794 79.8011 115.246 81.6074C114.298 82.7126 113.944 84.2469 114.2 86.1682C114.206 86.2233 114.198 86.279 114.175 86.3297C114.153 86.3805 114.118 86.4244 114.073 86.4572Z" fill="white"/>
<path d="M113.89 86.6562C113.788 86.6588 113.689 86.6261 113.609 86.5637C113.514 86.4905 113.451 86.3826 113.435 86.2635C113.155 84.1177 113.564 82.3815 114.664 81.1025C116.434 79.0437 119.337 78.9595 119.46 78.9595C119.578 78.9606 119.692 79.0044 119.78 79.0829C119.844 79.1447 119.889 79.2243 119.908 79.3114C119.927 79.3985 119.92 79.4893 119.888 79.5724C119.855 79.6555 119.799 79.7272 119.726 79.7784C119.653 79.8295 119.566 79.8578 119.477 79.8598C119.452 79.8598 116.849 79.944 115.345 81.6971C114.422 82.7714 114.083 84.2664 114.33 86.1457C114.341 86.2266 114.33 86.309 114.298 86.3841C114.266 86.4592 114.214 86.5241 114.148 86.5721C114.086 86.6141 114.016 86.6419 113.943 86.6534L113.89 86.6562ZM119.477 79.24C119.359 79.24 116.579 79.3213 114.888 81.2876C113.845 82.5021 113.452 84.1627 113.724 86.2271C113.727 86.2494 113.734 86.2709 113.746 86.2902C113.757 86.3095 113.773 86.3262 113.791 86.3392C113.809 86.3535 113.829 86.3641 113.851 86.3703C113.872 86.3766 113.895 86.3784 113.917 86.3757C113.945 86.3703 113.971 86.3589 113.993 86.3421C114.019 86.3246 114.039 86.3004 114.051 86.2721C114.064 86.2439 114.068 86.2127 114.063 86.1822C113.805 84.2187 114.167 82.6508 115.143 81.512C116.736 79.6579 119.454 79.5822 119.482 79.5794C119.514 79.5774 119.545 79.5667 119.57 79.5483C119.596 79.5298 119.616 79.5046 119.628 79.4753C119.64 79.446 119.643 79.4139 119.638 79.3827C119.633 79.3515 119.619 79.3224 119.597 79.2989C119.583 79.2812 119.564 79.2668 119.544 79.2567C119.523 79.2465 119.5 79.2408 119.477 79.24Z" fill="white"/>
<path d="M145.681 114.388L149.431 117.115C149.431 117.115 147.417 129.88 133.575 123.03C133.575 123.03 134.927 118.604 131.917 109.567C131.917 109.567 128.016 111.036 126.588 107.634C125.16 104.232 127.267 102.117 129.253 102.002C129.253 102.002 137.485 102.282 135.592 86.6981C135.592 86.6981 143.23 85.262 148.522 90.6839C153.815 96.1058 157.263 104.128 153.827 109.306C150.391 114.484 145.681 114.388 145.681 114.388Z" fill="#FFCDB2"/>
<path d="M137.912 86.527C140.588 86.527 145.051 87.1413 148.512 90.6868C153.802 96.1115 157.252 104.131 153.816 109.309C150.492 114.31 145.996 114.394 145.682 114.394L149.432 117.12C149.432 117.12 148.181 125.056 140.866 125.056C138.902 125.056 136.504 124.495 133.573 123.036C133.573 123.036 134.925 118.61 131.915 109.572C131.31 109.779 130.675 109.886 130.036 109.889C128.83 109.889 127.346 109.466 126.575 107.645C125.133 104.243 127.253 102.128 129.239 102.013H129.265C129.783 102.013 137.399 101.761 135.579 86.7094C136.349 86.5856 137.129 86.5274 137.909 86.5354L137.912 86.527ZM137.909 85.694C137.077 85.6851 136.246 85.748 135.424 85.8819L134.65 86.0277L134.743 86.8103C135.654 94.2967 134.134 97.8 132.698 99.4184C131.189 101.124 129.458 101.172 129.265 101.172H129.189C128.527 101.217 127.884 101.419 127.315 101.76C126.746 102.101 126.265 102.572 125.913 103.135C125.071 104.465 125.043 106.181 125.801 107.965C126.558 109.749 128.058 110.728 130.036 110.728C130.481 110.725 130.924 110.679 131.36 110.59C133.912 118.694 132.779 122.755 132.762 122.795L132.563 123.473L133.194 123.79C136.022 125.193 138.599 125.897 140.857 125.897C144.153 125.897 146.832 124.388 148.599 121.533C149.404 120.217 149.966 118.767 150.257 117.252L150.335 116.742L149.92 116.439L147.802 114.902C149.637 114.386 152.313 113.078 154.506 109.771C156.254 107.143 156.5 103.704 155.227 99.828C154.125 96.4621 151.951 93.0148 149.104 90.1005C145.357 86.2606 140.479 85.6855 137.904 85.6855L137.909 85.694Z" fill="#1D1D1B"/>
<path d="M146.142 114.848C146.114 114.867 146.084 114.882 146.052 114.893C142.714 115.939 138.717 114.517 138.549 114.456C138.471 114.427 138.408 114.369 138.373 114.294C138.338 114.219 138.334 114.134 138.363 114.056C138.391 113.978 138.449 113.915 138.524 113.88C138.599 113.845 138.684 113.841 138.762 113.869C138.801 113.886 142.731 115.272 145.867 114.299C145.941 114.261 146.028 114.255 146.107 114.282C146.185 114.308 146.251 114.364 146.288 114.439C146.325 114.513 146.331 114.599 146.305 114.678C146.279 114.757 146.222 114.822 146.148 114.86L146.142 114.848Z" fill="black"/>
<path d="M131.007 108.142C130.962 108.175 130.908 108.195 130.851 108.2C130.795 108.205 130.738 108.195 130.688 108.17C129.271 107.477 128.502 106.641 128.401 105.685C128.258 104.31 129.577 103.264 129.633 103.222C129.665 103.196 129.702 103.177 129.741 103.165C129.781 103.154 129.822 103.151 129.863 103.156C129.904 103.161 129.943 103.174 129.979 103.194C130.015 103.215 130.046 103.242 130.07 103.275C130.096 103.307 130.114 103.344 130.125 103.384C130.135 103.423 130.138 103.464 130.133 103.504C130.128 103.545 130.115 103.584 130.094 103.619C130.074 103.654 130.047 103.685 130.014 103.71C129.997 103.727 128.912 104.596 129.021 105.623C129.097 106.35 129.751 107.026 130.962 107.612C131.036 107.648 131.093 107.712 131.12 107.79C131.146 107.868 131.141 107.953 131.106 108.027C131.083 108.073 131.049 108.112 131.007 108.142Z" fill="black"/>
<path d="M141.813 95.8531C138.582 98.5795 132.815 99.6089 132.666 101.359C132.517 103.109 134.094 104.515 136.312 103.884C138.531 103.253 140.447 102.153 144.29 99.6763C148.132 97.1995 151.711 94.518 150.107 92.619C148.502 90.7201 146.562 91.8449 141.813 95.8531Z" fill="#FFB49F"/>
<path d="M144.772 91.2306C144.735 91.2566 144.694 91.2746 144.65 91.2833C144.606 91.292 144.56 91.2913 144.517 91.2812C144.497 91.2812 142.705 90.8548 141.544 91.8422C141.48 91.8954 141.399 91.9212 141.316 91.9141C141.234 91.907 141.158 91.8675 141.104 91.8043C141.051 91.7411 141.025 91.6593 141.032 91.5769C141.04 91.4946 141.079 91.4185 141.142 91.3653C142.545 90.1844 144.576 90.6613 144.663 90.6809C144.721 90.695 144.774 90.7256 144.816 90.7691C144.858 90.8126 144.886 90.8671 144.897 90.9263C144.909 90.9854 144.903 91.0466 144.881 91.1025C144.859 91.1585 144.821 91.2068 144.772 91.2419V91.2306Z" fill="black"/>
<path d="M146.597 101.738C146.539 101.779 146.468 101.8 146.397 101.796C146.326 101.792 146.258 101.763 146.205 101.715L141.156 97.104C141.125 97.0766 141.101 97.0435 141.083 97.0065C141.065 96.9695 141.055 96.9294 141.053 96.8885C141.051 96.8476 141.057 96.8067 141.071 96.7682C141.085 96.7296 141.106 96.6941 141.133 96.6637C141.19 96.6039 141.267 96.5684 141.35 96.5648C141.432 96.5611 141.512 96.5896 141.574 96.6441L146.622 101.255C146.683 101.311 146.719 101.389 146.723 101.472C146.726 101.554 146.697 101.634 146.642 101.696L146.597 101.738Z" fill="black"/>
<path d="M130.447 111.704C131.189 111.704 131.791 111.102 131.791 110.36C131.791 109.618 131.189 109.017 130.447 109.017C129.705 109.017 129.104 109.618 129.104 110.36C129.104 111.102 129.705 111.704 130.447 111.704Z" fill="#07ACEE"/>
<path d="M129.662 109.272C129.905 109.099 130.199 109.011 130.497 109.023C130.794 109.035 131.08 109.146 131.308 109.337C131.536 109.529 131.694 109.792 131.757 110.083C131.819 110.375 131.783 110.679 131.654 110.948C131.525 111.216 131.31 111.434 131.043 111.568C130.776 111.701 130.473 111.741 130.18 111.683C129.888 111.625 129.623 111.471 129.428 111.246C129.233 111.02 129.118 110.736 129.101 110.439C129.089 110.213 129.134 109.987 129.232 109.783C129.33 109.58 129.478 109.404 129.662 109.272ZM129.298 108.767C128.914 109.043 128.644 109.449 128.535 109.909C128.426 110.368 128.487 110.852 128.706 111.271C128.926 111.689 129.288 112.015 129.728 112.188C130.168 112.36 130.656 112.369 131.101 112.211C131.547 112.053 131.92 111.74 132.153 111.329C132.387 110.918 132.464 110.437 132.371 109.973C132.278 109.51 132.021 109.096 131.647 108.807C131.273 108.518 130.808 108.373 130.336 108.4C129.962 108.421 129.602 108.548 129.298 108.767Z" fill="black"/>
<path d="M137.319 94.3414C137.285 94.3661 137.247 94.3835 137.206 94.3926C137.165 94.4018 137.122 94.4025 137.081 94.3947C136.801 94.3414 135.914 94.2769 135.645 94.6752C135.595 94.7361 135.525 94.7762 135.447 94.7873C135.369 94.7984 135.29 94.7797 135.226 94.735C135.161 94.6904 135.116 94.623 135.099 94.5464C135.082 94.4697 135.095 94.3895 135.134 94.3218C135.695 93.5364 137.042 93.7608 137.193 93.7945C137.274 93.8095 137.346 93.8559 137.393 93.9238C137.44 93.9916 137.458 94.0752 137.443 94.1563C137.425 94.2307 137.381 94.2963 137.319 94.3414Z" fill="black"/>
<path d="M57.6615 135.24C44.5593 135.237 31.7483 131.372 20.8299 124.13C20.7057 124.047 20.6191 123.919 20.5894 123.773C20.5597 123.627 20.5894 123.476 20.6716 123.351C20.7538 123.227 20.882 123.141 21.0279 123.111C21.1739 123.081 21.3255 123.111 21.4498 123.193C32.1822 130.318 44.7762 134.123 57.6585 134.132H57.7174C67.4701 134.132 74.0674 131.941 74.1347 131.919C74.2045 131.895 74.2784 131.886 74.3519 131.891C74.4254 131.896 74.4971 131.915 74.5631 131.948C74.6291 131.98 74.688 132.026 74.7365 132.081C74.785 132.137 74.8222 132.201 74.8458 132.271C74.8694 132.341 74.8789 132.415 74.874 132.488C74.8691 132.562 74.8497 132.633 74.817 132.699C74.7843 132.765 74.7391 132.824 74.6836 132.873C74.6282 132.921 74.5636 132.958 74.4938 132.982C74.2133 133.075 67.6889 135.226 57.7623 135.254L57.6615 135.24Z" fill="#1D1D1B"/>
<path d="M137.077 163.937C137.96 163.937 138.676 163.222 138.676 162.339C138.676 161.456 137.96 160.74 137.077 160.74C136.194 160.74 135.479 161.456 135.479 162.339C135.479 163.222 136.194 163.937 137.077 163.937Z" fill="#51CEF4"/>
<path d="M176.984 131.664C177.867 131.664 178.582 130.948 178.582 130.065C178.582 129.182 177.867 128.466 176.984 128.466C176.101 128.466 175.385 129.182 175.385 130.065C175.385 130.948 176.101 131.664 176.984 131.664Z" fill="#51CEF4"/>
<path d="M178.054 165.92C178.937 165.92 179.653 165.204 179.653 164.321C179.653 163.438 178.937 162.723 178.054 162.723C177.171 162.723 176.455 163.438 176.455 164.321C176.455 165.204 177.171 165.92 178.054 165.92Z" fill="#51CEF4"/>
<path d="M161.003 159.94C161.886 159.94 162.602 159.224 162.602 158.341C162.602 157.458 161.886 156.743 161.003 156.743C160.12 156.743 159.404 157.458 159.404 158.341C159.404 159.224 160.12 159.94 161.003 159.94Z" fill="#51CEF4"/>
<path d="M125.064 140.146C125.947 140.146 126.663 139.43 126.663 138.547C126.663 137.664 125.947 136.948 125.064 136.948C124.181 136.948 123.465 137.664 123.465 138.547C123.465 139.43 124.181 140.146 125.064 140.146Z" fill="#51CEF4"/>
<path d="M142.7 146.418C143.583 146.418 144.299 145.702 144.299 144.819C144.299 143.936 143.583 143.22 142.7 143.22C141.817 143.22 141.102 143.936 141.102 144.819C141.102 145.702 141.817 146.418 142.7 146.418Z" fill="#51CEF4"/>
<path d="M158.398 134.373C159.281 134.373 159.997 133.658 159.997 132.775C159.997 131.892 159.281 131.176 158.398 131.176C157.515 131.176 156.799 131.892 156.799 132.775C156.799 133.658 157.515 134.373 158.398 134.373Z" fill="#51CEF4"/>
<path d="M201.591 143.767C202.474 143.767 203.19 143.051 203.19 142.168C203.19 141.285 202.474 140.569 201.591 140.569C200.708 140.569 199.992 141.285 199.992 142.168C199.992 143.051 200.708 143.767 201.591 143.767Z" fill="#51CEF4"/>
<path d="M218.275 131.552C219.158 131.552 219.874 130.836 219.874 129.953C219.874 129.07 219.158 128.354 218.275 128.354C217.392 128.354 216.676 129.07 216.676 129.953C216.676 130.836 217.392 131.552 218.275 131.552Z" fill="#51CEF4"/>
<path d="M224.282 151.999C225.165 151.999 225.881 151.284 225.881 150.401C225.881 149.518 225.165 148.802 224.282 148.802C223.399 148.802 222.684 149.518 222.684 150.401C222.684 151.284 223.399 151.999 224.282 151.999Z" fill="#51CEF4"/>
<path d="M122.489 140.816C123.372 140.816 124.088 140.1 124.088 139.217C124.088 138.334 123.372 137.619 122.489 137.619C121.606 137.619 120.891 138.334 120.891 139.217C120.891 140.1 121.606 140.816 122.489 140.816Z" fill="#51CEF4"/>
<path d="M239.197 123.412L225.655 115.541L222.611 119.252C222.611 119.252 226.423 128.371 237.637 129.35L239.197 123.412Z" fill="#0598C6"/>
<path d="M225.888 114.773C225.888 114.773 214.48 91.8398 229.377 93.9855L235.966 83.0463C235.966 83.0463 243.228 82.303 240.962 92.4428C240.962 92.4428 245.217 94.5774 246.011 98.8942C246.011 98.8942 251.214 100.016 249.441 107.351C247.523 115.286 239.271 122.82 239.271 122.82L225.888 114.773Z" fill="#FFCDB2"/>
<path d="M239.334 123.342L225.564 115.07L225.511 114.958C225.231 114.397 218.628 100.97 222.515 95.6039C223.792 93.8396 226.027 93.1468 229.157 93.5423L235.713 82.6508L235.92 82.6283C236.03 82.6283 238.635 82.3759 240.369 84.3281C241.83 85.9746 242.192 88.6309 241.437 92.2268C242.422 92.7878 245.569 94.869 246.383 98.5659C247.585 98.9724 248.611 99.7819 249.286 100.858C250.326 102.518 250.52 104.737 249.863 107.455C247.936 115.424 239.906 122.826 239.567 123.137L239.334 123.342ZM226.212 114.475L239.227 122.293C240.56 121.017 247.361 114.234 249.044 107.25C249.645 104.768 249.49 102.762 248.582 101.309C247.976 100.337 247.032 99.6223 245.931 99.3036L245.651 99.2419L245.597 98.9614C244.837 94.8915 240.801 92.8242 240.761 92.7906L240.467 92.6447L240.537 92.3222C241.314 88.8525 241.042 86.3448 239.732 84.861C238.546 83.5175 236.781 83.4137 236.198 83.4278L229.581 94.4202L229.301 94.3809C226.356 93.9574 224.297 94.5212 223.18 96.0639C219.778 100.813 225.587 113.18 226.212 114.475Z" fill="#1D1D1B"/>
<path d="M249.236 108.868C247.862 112.285 242.718 114.279 241.498 110.896C240.485 108.091 241.461 106.498 241.461 106.498C241.461 106.498 236.721 110.481 234.662 105.281C232.603 100.08 240.572 92.6138 240.572 92.6138" fill="#FFCDB2"/>
<path d="M244.011 113.065H243.938C243.31 113.079 242.694 112.889 242.182 112.524C241.671 112.159 241.292 111.638 241.102 111.039C240.664 109.924 240.522 108.714 240.692 107.528C239.781 108.049 238.392 108.613 237.046 108.274C235.834 107.968 234.903 107.012 234.28 105.435C232.14 100.033 239.96 92.6194 240.294 92.3081C240.334 92.27 240.381 92.2402 240.433 92.2206C240.485 92.2009 240.54 92.1918 240.596 92.1936C240.651 92.1954 240.705 92.2082 240.756 92.2313C240.806 92.2543 240.851 92.2871 240.889 92.3277C240.964 92.4095 241.005 92.5178 241.001 92.629C240.997 92.7403 240.95 92.8457 240.869 92.9223C240.791 92.9925 233.13 100.254 235.063 105.127C235.579 106.436 236.317 107.219 237.248 107.457C239.085 107.926 241.175 106.195 241.197 106.176C241.274 106.113 241.371 106.08 241.47 106.082C241.569 106.084 241.665 106.12 241.74 106.185C241.815 106.249 241.865 106.338 241.881 106.436C241.897 106.534 241.879 106.634 241.828 106.72C241.795 106.776 240.987 108.195 241.901 110.753C242.037 111.19 242.312 111.57 242.685 111.835C243.057 112.101 243.506 112.237 243.963 112.223H244.016C245.68 112.223 248.002 110.821 248.852 108.711C248.894 108.608 248.975 108.524 249.078 108.481C249.18 108.437 249.296 108.435 249.4 108.477C249.504 108.519 249.587 108.6 249.631 108.703C249.675 108.806 249.676 108.922 249.634 109.025C248.726 111.269 246.218 113.065 244.011 113.065Z" fill="#1D1D1B"/>
<path d="M240.968 107.281C240.886 107.281 240.805 107.257 240.737 107.211C240.644 107.15 240.579 107.055 240.556 106.946C240.533 106.837 240.554 106.724 240.614 106.63L245.733 98.723C245.763 98.6766 245.802 98.6366 245.847 98.6052C245.893 98.5738 245.944 98.5517 245.998 98.5401C246.052 98.5285 246.108 98.5277 246.162 98.5377C246.217 98.5476 246.269 98.5682 246.315 98.5983C246.362 98.6283 246.402 98.6671 246.433 98.7126C246.464 98.7581 246.487 98.8094 246.498 98.8634C246.51 98.9175 246.51 98.9733 246.5 99.0276C246.49 99.082 246.47 99.1339 246.44 99.1803L241.321 107.087C241.282 107.146 241.23 107.195 241.169 107.228C241.107 107.262 241.038 107.28 240.968 107.281Z" fill="#1D1D1B"/>
<path d="M229.39 93.983C229.39 93.983 237.33 93.7979 237.989 98.2493C238.649 102.701 226.273 103.091 226.273 103.091" fill="#FFCDB2"/>
<path d="M226.274 103.511C226.163 103.511 226.056 103.467 225.977 103.388C225.898 103.309 225.854 103.202 225.854 103.09C225.854 102.979 225.898 102.872 225.977 102.793C226.056 102.714 226.163 102.67 226.274 102.67C226.361 102.67 234.97 102.364 237.155 99.7552C237.33 99.562 237.46 99.332 237.535 99.0821C237.61 98.8322 237.629 98.5686 237.589 98.3107C236.992 94.28 229.491 94.3838 229.416 94.4034C229.304 94.4042 229.197 94.3616 229.116 94.2847C229.036 94.2077 228.988 94.1025 228.984 93.9911C228.982 93.8797 229.025 93.7722 229.102 93.6919C229.179 93.6116 229.285 93.5649 229.396 93.5619C229.733 93.5619 237.715 93.4245 238.422 98.1873C238.479 98.563 238.453 98.9467 238.346 99.3111C238.238 99.6756 238.052 100.012 237.8 100.297C235.382 103.191 226.67 103.5 226.299 103.511H226.274Z" fill="#1D1D1B"/>
<path d="M195.942 159.66C195.851 159.66 195.762 159.63 195.689 159.575C195.616 159.52 195.563 159.442 195.539 159.354C193.511 152.249 184.319 138.502 184.224 138.365C184.166 138.272 184.147 138.161 184.17 138.054C184.193 137.948 184.256 137.854 184.347 137.794C184.437 137.733 184.548 137.71 184.655 137.729C184.762 137.748 184.858 137.808 184.922 137.897C185.303 138.458 194.282 151.89 196.346 159.124C196.378 159.231 196.366 159.345 196.313 159.443C196.261 159.54 196.172 159.614 196.066 159.646C196.025 159.655 195.984 159.66 195.942 159.66Z" fill="#1D1E1B"/>
<path d="M109.722 146.292C109.722 146.292 109.397 160.557 111.007 170.046L109.722 146.292Z" fill="#07ACEE"/>
<path d="M111.006 170.467C110.907 170.467 110.811 170.431 110.735 170.367C110.659 170.303 110.608 170.214 110.591 170.116C108.992 160.698 109.298 146.423 109.301 146.275C109.303 146.164 109.348 146.06 109.427 145.983C109.506 145.905 109.611 145.862 109.721 145.862C109.777 145.863 109.831 145.875 109.882 145.898C109.932 145.92 109.978 145.952 110.016 145.991C110.055 146.031 110.085 146.078 110.105 146.13C110.125 146.181 110.135 146.236 110.134 146.291C110.134 146.435 109.828 160.63 111.413 169.968C111.422 170.022 111.42 170.078 111.408 170.132C111.396 170.186 111.373 170.237 111.341 170.282C111.309 170.327 111.268 170.365 111.221 170.395C111.174 170.424 111.122 170.444 111.068 170.453L111.006 170.467Z" fill="#1D1D1B"/>
<path d="M199.678 131.047C199.498 131.047 199.323 130.99 199.179 130.884C188.921 123.311 179.309 121.373 173.051 121.067C166.266 120.741 161.831 122.231 161.798 122.245C161.693 122.282 161.582 122.298 161.472 122.292C161.361 122.286 161.253 122.258 161.153 122.21C160.951 122.114 160.796 121.941 160.722 121.73C160.647 121.519 160.66 121.287 160.756 121.086C160.853 120.884 161.026 120.729 161.237 120.655C161.427 120.587 165.943 119.059 173.034 119.381C179.541 119.678 189.535 121.678 200.166 129.521C200.308 129.626 200.413 129.774 200.467 129.942C200.52 130.111 200.519 130.292 200.464 130.46C200.409 130.628 200.302 130.774 200.159 130.878C200.016 130.982 199.844 131.038 199.667 131.038L199.678 131.047Z" fill="white"/>
<path d="M143.748 109.286C142.679 109.262 141.632 108.973 140.702 108.444C140.605 108.388 140.535 108.296 140.506 108.188C140.478 108.08 140.493 107.965 140.549 107.868C140.605 107.771 140.698 107.701 140.806 107.672C140.914 107.644 141.029 107.659 141.126 107.715C141.156 107.735 144.211 109.474 145.928 107.522C145.964 107.48 146.009 107.446 146.059 107.422C146.109 107.397 146.163 107.383 146.219 107.38C146.274 107.376 146.33 107.384 146.382 107.402C146.435 107.42 146.483 107.448 146.525 107.485C146.567 107.522 146.601 107.567 146.625 107.617C146.649 107.667 146.664 107.721 146.667 107.776C146.67 107.832 146.663 107.887 146.645 107.94C146.627 107.993 146.598 108.041 146.562 108.083C146.21 108.478 145.776 108.791 145.289 108.999C144.803 109.207 144.277 109.305 143.748 109.286Z" fill="black"/>
<path d="M138.391 100.924C138.778 100.924 139.092 100.61 139.092 100.223C139.092 99.8359 138.778 99.522 138.391 99.522C138.003 99.522 137.689 99.8359 137.689 100.223C137.689 100.61 138.003 100.924 138.391 100.924Z" fill="black"/>
<path d="M147.928 95.0343C148.315 95.0343 148.629 94.7203 148.629 94.3331C148.629 93.9458 148.315 93.6318 147.928 93.6318C147.541 93.6318 147.227 93.9458 147.227 94.3331C147.227 94.7203 147.541 95.0343 147.928 95.0343Z" fill="black"/>
<path d="M109.64 77.784C109.568 77.7842 109.498 77.7659 109.435 77.7308C109.372 77.6957 109.319 77.645 109.281 77.5836C109.243 77.5222 109.222 77.4523 109.219 77.3803C109.216 77.3083 109.232 77.2368 109.265 77.1726C109.346 77.0127 111.306 73.2316 115.219 72.0115C117.567 71.2794 120.097 71.6356 122.742 73.0661C122.836 73.1214 122.904 73.2107 122.934 73.3154C122.963 73.4201 122.95 73.5321 122.899 73.6279C122.847 73.7236 122.761 73.7957 122.658 73.829C122.554 73.8623 122.442 73.8544 122.344 73.8067C119.904 72.4884 117.576 72.1518 115.469 72.8165C111.893 73.9385 110.033 77.5176 110.016 77.554C109.981 77.6231 109.927 77.6812 109.861 77.7218C109.794 77.7624 109.718 77.7839 109.64 77.784Z" fill="#1D1F1C"/>
<path d="M89.3039 200.87C89.3039 200.87 88.2323 194.8 74.6649 191.942C61.0975 189.084 51.1035 203.722 51.1035 203.722H89.3066L89.3039 200.87Z" fill="#382256"/>
<path d="M89.7251 204.146H50.3047L50.7534 203.487C52.6769 200.833 54.9596 198.459 57.5359 196.433C63.1261 192.032 69.0809 190.338 74.7525 191.532C88.4405 194.413 89.672 200.536 89.7196 200.789V200.862L89.7251 204.146ZM51.9342 203.305H88.8836V200.915C88.7714 200.46 87.153 195.002 74.5785 192.354C63.0783 189.936 54.08 200.514 51.9342 203.305Z" fill="#1D1E1B"/>
<path d="M68.951 186.231C66.0956 184.803 59.3133 186.231 57.8828 189.086C56.4523 191.942 58.9541 194.085 61.4533 194.8C63.9525 195.515 67.425 191.976 67.425 191.976L68.951 186.231Z" fill="#FFCDB2"/>
<path d="M62.1551 195.313C61.8793 195.315 61.6045 195.278 61.3388 195.204C59.8775 194.786 58.06 193.762 57.3476 192.144C57.1275 191.626 57.0276 191.065 57.0553 190.503C57.083 189.941 57.2374 189.392 57.5073 188.898C58.2169 187.496 60.1889 186.265 62.7862 185.642C65.2574 185.05 67.6949 185.131 69.1422 185.855L69.4479 186.007L67.8041 192.191L67.7258 192.27C67.5912 192.407 64.7076 195.313 62.1551 195.313ZM65.9809 186.091C64.9705 186.098 63.9644 186.222 62.9826 186.461C60.6601 187.022 58.8509 188.096 58.2619 189.266C58.047 189.648 57.9224 190.074 57.8976 190.512C57.8728 190.949 57.9486 191.386 58.1189 191.79C58.7136 193.142 60.2926 194.015 61.5717 194.382C63.3752 194.898 66.0596 192.722 67.0498 191.745L68.4522 186.455C67.6562 186.19 66.8196 186.067 65.9809 186.091Z" fill="#1D1D1B"/>
<path d="M78.5907 191.586C78.5907 191.586 77.1632 185.516 72.1649 184.803C67.1665 184.091 62.8833 186.587 63.2395 191.586C63.5957 196.584 69.6656 197.299 72.8801 196.228C76.0945 195.156 78.5907 191.586 78.5907 191.586Z" fill="#FFCDB2"/>
<path d="M70.0161 197.075C68.3471 197.075 66.5715 196.693 65.2055 195.782C64.5069 195.325 63.9262 194.71 63.5113 193.986C63.0964 193.262 62.8591 192.45 62.8186 191.616C62.6643 189.445 63.3347 187.594 64.7596 186.267C66.5042 184.643 69.2251 183.959 72.2236 184.385C77.4463 185.131 78.9411 191.229 79 191.49L79.045 191.672L78.9357 191.827C78.8319 191.978 76.3186 195.524 73.0116 196.626C72.0428 196.932 71.032 197.083 70.0161 197.075ZM70.4984 185.1C68.4088 185.1 66.5716 185.723 65.3318 186.884C64.092 188.046 63.5226 189.647 63.6488 191.557C63.6786 192.263 63.8772 192.951 64.2282 193.564C64.5791 194.177 65.0722 194.697 65.6657 195.08C67.6993 196.441 70.765 196.483 72.7369 195.829C75.4044 194.94 77.6062 192.183 78.1251 191.501C77.8446 190.508 76.2738 185.816 72.0973 185.218C71.5678 185.141 71.0335 185.102 70.4984 185.1Z" fill="#1D1D1B"/>
<path d="M89.6609 196.227C92.6902 197.742 93.2318 200.869 92.8756 203.725C92.5194 206.58 88.9485 209.079 85.734 207.652C82.5196 206.224 83.9501 202.653 85.734 200.869C87.5179 199.085 84.3063 196.227 82.5196 198.726C80.7328 201.226 75.7375 200.869 72.882 198.726C70.0266 196.583 72.1668 191.229 76.0937 189.801C80.0206 188.373 84.3065 187.658 86.0904 191.585C87.8743 195.512 88.2332 195.512 89.6609 196.227Z" fill="#FFCDB2"/>
<path d="M87.6812 208.485C86.9516 208.485 86.2302 208.332 85.5635 208.036C84.3911 207.514 83.6645 206.664 83.4626 205.57C83.1344 203.809 84.2171 201.789 85.426 200.572C85.6008 200.417 85.7261 200.213 85.7859 199.987C85.8458 199.761 85.8377 199.523 85.7627 199.301C85.6599 199.013 85.4818 198.756 85.2471 198.559C85.0125 198.362 84.7297 198.231 84.4276 198.179C84.0097 198.118 83.4009 198.202 82.8539 198.968C82.1611 199.935 81.0168 200.566 79.5414 200.794C77.0979 201.108 74.6255 200.489 72.6187 199.06C71.4574 198.188 70.9527 196.799 71.1968 195.133C71.4253 193.848 71.9821 192.644 72.8132 191.637C73.6442 190.631 74.7211 189.856 75.9397 189.389C79.4795 188.101 84.4247 186.906 86.4639 191.394C88.0879 194.971 88.4273 195.144 89.6109 195.722L89.8383 195.835C92.531 197.178 93.765 199.994 93.2825 203.761C93.0862 205.324 91.9979 206.847 90.4439 207.719C89.6046 208.209 88.6528 208.472 87.6812 208.485ZM84.2227 197.324C84.3373 197.324 84.4517 197.333 84.5648 197.352C85.0201 197.426 85.4472 197.621 85.8007 197.917C86.1542 198.213 86.421 198.6 86.5732 199.035C86.6956 199.404 86.7097 199.801 86.6137 200.179C86.5178 200.556 86.3159 200.898 86.0319 201.164C85.0025 202.193 84.018 203.969 84.2901 205.416C84.4415 206.232 84.9856 206.855 85.9056 207.265C86.5667 207.55 87.2861 207.675 88.0047 207.629C88.7233 207.583 89.4207 207.368 90.0402 207.001C91.3697 206.252 92.2841 204.976 92.4581 203.669C92.7582 201.276 92.4831 198.104 89.4734 196.6L89.2518 196.491C87.8494 195.804 87.3838 195.442 85.7092 191.756C84.3769 188.825 81.3673 188.329 76.2399 190.194C74.1278 190.96 72.3635 193.097 72.0325 195.274C71.8334 196.603 72.2233 197.711 73.1265 198.387C74.9491 199.686 77.1952 200.249 79.4152 199.963C80.2847 199.829 81.4682 199.461 82.1694 198.48C82.3919 198.134 82.6953 197.849 83.0531 197.648C83.4108 197.446 83.8123 197.335 84.2227 197.324Z" fill="#1D1D1B"/>
<path d="M168.837 185.673C169.72 185.673 170.436 184.957 170.436 184.074C170.436 183.191 169.72 182.475 168.837 182.475C167.954 182.475 167.238 183.191 167.238 184.074C167.238 184.957 167.954 185.673 168.837 185.673Z" fill="#51CEF4"/>
<path d="M127.806 184.102C128.689 184.102 129.405 183.386 129.405 182.503C129.405 181.62 128.689 180.904 127.806 180.904C126.923 180.904 126.207 181.62 126.207 182.503C126.207 183.386 126.923 184.102 127.806 184.102Z" fill="#51CEF4"/>
<path d="M149.554 182.113C150.437 182.113 151.153 181.397 151.153 180.514C151.153 179.631 150.437 178.916 149.554 178.916C148.671 178.916 147.955 179.631 147.955 180.514C147.955 181.397 148.671 182.113 149.554 182.113Z" fill="#51CEF4"/>
<path d="M114.25 202.76H199.895C203.382 202.76 206.209 199.933 206.209 196.446V144.808C206.209 141.321 203.382 138.494 199.895 138.494H114.25C110.763 138.494 107.936 141.321 107.936 144.808V196.446C107.936 199.933 110.763 202.76 114.25 202.76Z" fill="white"/>
<path d="M199.895 203.184H114.249C112.464 203.184 110.752 202.474 109.489 201.212C108.227 199.95 107.518 198.237 107.518 196.452V144.81C107.518 143.025 108.227 141.313 109.489 140.05C110.752 138.788 112.464 138.079 114.249 138.079H199.895C201.68 138.079 203.393 138.788 204.655 140.05C205.918 141.313 206.627 143.025 206.627 144.81V196.446C206.627 197.331 206.454 198.207 206.116 199.024C205.778 199.842 205.282 200.584 204.657 201.21C204.032 201.836 203.29 202.332 202.473 202.671C201.655 203.009 200.779 203.184 199.895 203.184ZM114.249 138.917C112.687 138.917 111.189 139.538 110.084 140.643C108.98 141.747 108.359 143.245 108.359 144.808V196.444C108.359 198.006 108.98 199.504 110.084 200.609C111.189 201.713 112.687 202.334 114.249 202.334H199.895C201.457 202.334 202.955 201.713 204.06 200.609C205.165 199.504 205.785 198.006 205.785 196.444V144.81C205.785 143.248 205.165 141.75 204.06 140.645C202.955 139.541 201.457 138.92 199.895 138.92L114.249 138.917Z" fill="#1D1E1B"/>
<path d="M209.811 202.881H107.613C106.125 202.881 104.699 202.29 103.647 201.238C102.594 200.186 102.003 198.759 102.003 197.271H215.412C215.412 198.759 214.821 200.186 213.769 201.238C212.717 202.29 211.29 202.881 209.802 202.881H209.811Z" fill="white"/>
<path d="M209.81 203.304H107.612C106.015 203.303 104.485 202.668 103.356 201.539C102.226 200.41 101.591 198.879 101.59 197.282V196.853H215.829V197.274C215.83 198.871 215.196 200.404 214.067 201.535C212.939 202.666 211.407 203.302 209.81 203.304ZM102.448 197.695C102.554 198.992 103.143 200.203 104.1 201.086C105.056 201.969 106.31 202.461 107.612 202.463H209.81C211.111 202.461 212.365 201.969 213.321 201.086C214.277 200.203 214.866 198.992 214.97 197.695H102.448Z" fill="#1D1D1B"/>
<path d="M111.465 191.664C111.241 191.664 111.027 191.575 110.87 191.418C110.712 191.26 110.623 191.046 110.623 190.823V148.749C110.623 148.526 110.712 148.311 110.87 148.154C111.027 147.996 111.241 147.907 111.465 147.907C111.688 147.907 111.902 147.996 112.059 148.154C112.217 148.311 112.306 148.526 112.306 148.749V190.823C112.306 191.046 112.217 191.26 112.059 191.418C111.902 191.575 111.688 191.664 111.465 191.664Z" fill="white"/>
<path d="M160.236 168.762H157.218C156.363 168.762 155.67 169.455 155.67 170.31V173.328C155.67 174.183 156.363 174.876 157.218 174.876H160.236C161.092 174.876 161.785 174.183 161.785 173.328V170.31C161.785 169.455 161.092 168.762 160.236 168.762Z" fill="#07ACEE"/>
<path d="M160.236 175.115H157.218C156.745 175.114 156.291 174.926 155.956 174.591C155.621 174.256 155.432 173.802 155.432 173.328V170.31C155.432 169.837 155.621 169.382 155.956 169.048C156.291 168.713 156.745 168.524 157.218 168.523H160.236C160.71 168.524 161.164 168.713 161.499 169.048C161.834 169.382 162.022 169.837 162.023 170.31V173.328C162.022 173.802 161.834 174.256 161.499 174.591C161.164 174.926 160.71 175.114 160.236 175.115ZM157.218 169C156.871 169.001 156.538 169.139 156.293 169.385C156.047 169.63 155.909 169.963 155.909 170.31V173.328C155.909 173.675 156.047 174.008 156.293 174.254C156.538 174.499 156.871 174.637 157.218 174.638H160.236C160.584 174.637 160.917 174.499 161.162 174.254C161.408 174.008 161.546 173.675 161.546 173.328V170.31C161.546 169.963 161.408 169.63 161.162 169.385C160.917 169.139 160.584 169.001 160.236 169H157.218Z" fill="#1D1D1B"/>
<path d="M258.992 50.7168H219.179C214.118 50.7168 210.016 54.8195 210.016 59.8805V79.8404C210.016 84.9013 214.118 89.004 219.179 89.004H258.992C264.053 89.004 268.156 84.9013 268.156 79.8404V59.8805C268.156 54.8195 264.053 50.7168 258.992 50.7168Z" fill="white"/>
<path d="M258.993 89.4246H219.18C216.639 89.4216 214.203 88.4109 212.406 86.6141C210.609 84.8173 209.599 82.3812 209.596 79.8402V59.8803C209.599 57.3393 210.609 54.9032 212.406 53.1064C214.203 51.3096 216.639 50.2989 219.18 50.2959H258.993C261.534 50.2989 263.97 51.3096 265.767 53.1064C267.564 54.9032 268.575 57.3393 268.577 59.8803V79.8402C268.575 82.3812 267.564 84.8173 265.767 86.6141C263.97 88.4109 261.534 89.4216 258.993 89.4246ZM219.18 51.1374C216.862 51.1396 214.639 52.0614 213 53.7006C211.361 55.3397 210.439 57.5622 210.437 59.8803V79.8402C210.439 82.1583 211.361 84.3808 213 86.0199C214.639 87.6591 216.862 88.5809 219.18 88.5831H258.993C261.311 88.5809 263.534 87.6591 265.173 86.0199C266.812 84.3808 267.734 82.1583 267.736 79.8402V59.8803C267.734 57.5622 266.812 55.3397 265.173 53.7006C263.534 52.0614 261.311 51.1396 258.993 51.1374H219.18Z" fill="#1D1D1B"/>
<path d="M215.526 94.4397H215.495C212.599 94.2102 209.896 92.9003 207.921 90.7698C205.947 88.6394 204.845 85.8443 204.836 82.9395V57.0614C204.836 56.9498 204.88 56.8427 204.959 56.7638C205.038 56.6849 205.145 56.6406 205.257 56.6406C205.368 56.6406 205.475 56.6849 205.554 56.7638C205.633 56.8427 205.677 56.9498 205.677 57.0614V82.9395C205.687 85.6329 206.709 88.2244 208.541 90.199C210.372 92.1736 212.88 93.387 215.565 93.5983C215.676 93.6023 215.782 93.6506 215.858 93.7324C215.934 93.8142 215.974 93.9229 215.97 94.0345C215.966 94.1461 215.918 94.2514 215.836 94.3274C215.754 94.4034 215.646 94.4438 215.534 94.4397H215.526Z" fill="#1D1D1B"/>
<path d="M262.194 94.4738H261.527C261.415 94.4738 261.308 94.4294 261.229 94.3505C261.15 94.2716 261.106 94.1646 261.106 94.053C261.106 93.9415 261.15 93.8345 261.229 93.7556C261.308 93.6767 261.415 93.6323 261.527 93.6323H262.194C265.029 93.6293 267.747 92.5019 269.752 90.4973C271.756 88.4927 272.884 85.7748 272.887 82.9399V57.0617C272.884 54.2268 271.756 51.5089 269.752 49.5043C267.747 47.4997 265.029 46.3723 262.194 46.3693H222.679C222.567 46.3693 222.46 46.325 222.381 46.246C222.302 46.1671 222.258 46.0602 222.258 45.9486C222.258 45.837 222.302 45.73 222.381 45.6511C222.46 45.5722 222.567 45.5278 222.679 45.5278H262.194C265.252 45.5315 268.184 46.7479 270.346 48.9101C272.508 51.0723 273.724 54.0039 273.728 57.0617V82.9399C273.724 85.9977 272.508 88.9293 270.346 91.0915C268.184 93.2537 265.252 94.4701 262.194 94.4738Z" fill="#1D1D1B"/>
<path d="M242.726 59.3813L227.282 69.5857C227.066 69.729 226.89 69.9244 226.77 70.1538C226.649 70.3833 226.589 70.6393 226.594 70.8982C226.599 71.1571 226.669 71.4106 226.798 71.6352C226.927 71.8598 227.111 72.0482 227.332 72.183L242.776 81.5599C243.009 81.7018 243.276 81.7791 243.548 81.7839C243.821 81.7886 244.09 81.7208 244.328 81.5871C244.566 81.4535 244.764 81.2589 244.902 81.0234C245.04 80.7879 245.113 80.52 245.113 80.2472V60.666C245.112 60.3881 245.037 60.1155 244.894 59.877C244.752 59.6385 244.547 59.443 244.302 59.3113C244.058 59.1796 243.782 59.1166 243.504 59.129C243.227 59.1413 242.958 59.2284 242.726 59.3813Z" fill="#4BD657"/>
<path d="M243.573 82.2079C243.215 82.2099 242.864 82.1128 242.558 81.9274L227.114 72.5505C226.833 72.3782 226.6 72.1379 226.437 71.8518C226.273 71.5658 226.184 71.2433 226.178 70.9139C226.172 70.5845 226.249 70.2589 226.402 69.9669C226.554 69.675 226.778 69.4263 227.052 69.2435L242.496 59.0392C242.792 58.8459 243.134 58.736 243.487 58.721C243.84 58.706 244.19 58.7864 244.501 58.9538C244.812 59.1212 245.072 59.3694 245.254 59.6722C245.436 59.975 245.533 60.3213 245.534 60.6745V80.2557C245.534 80.7764 245.327 81.2758 244.959 81.644C244.591 82.0122 244.091 82.2191 243.571 82.2191L243.573 82.2079ZM242.959 59.7348L227.515 69.9391C227.36 70.0439 227.233 70.1859 227.146 70.3523C227.06 70.5187 227.016 70.704 227.02 70.8915C227.023 71.079 227.074 71.2626 227.167 71.4255C227.26 71.5884 227.392 71.7254 227.552 71.824L242.996 81.2009C243.165 81.2986 243.356 81.3505 243.552 81.3513C243.747 81.3521 243.94 81.3018 244.11 81.2055C244.28 81.1091 244.422 80.97 244.521 80.8019C244.621 80.6339 244.675 80.4427 244.679 80.2472V60.666C244.68 60.4637 244.625 60.265 244.522 60.0914C244.418 59.9178 244.268 59.776 244.089 59.6815C243.912 59.5837 243.712 59.537 243.51 59.5464C243.308 59.5558 243.112 59.621 242.945 59.7348H242.959Z" fill="#1D1E1B"/>
<path d="M224.221 57.7291C224.142 57.729 224.065 57.7068 223.998 57.6652C223.931 57.6235 223.877 57.5641 223.842 57.4935C215.924 41.2249 200.488 29.9491 188.932 23.3576C176.389 16.2022 165.584 12.8643 165.474 12.8307C165.418 12.8177 165.365 12.7932 165.319 12.7588C165.272 12.7244 165.233 12.6808 165.205 12.6308C165.176 12.5807 165.158 12.5252 165.151 12.4678C165.145 12.4104 165.15 12.3522 165.167 12.297C165.184 12.2418 165.212 12.1906 165.25 12.1468C165.287 12.1029 165.334 12.0672 165.386 12.042C165.438 12.0169 165.494 12.0027 165.552 12.0003C165.61 11.998 165.668 12.0076 165.721 12.0285C165.828 12.0593 176.711 15.4196 189.333 22.6171C200.996 29.2704 216.583 40.6556 224.599 57.1177C224.647 57.2179 224.654 57.3328 224.617 57.4377C224.581 57.5426 224.505 57.6291 224.406 57.6786C224.349 57.7091 224.285 57.7263 224.221 57.7291Z" fill="#1D1E1B"/>
<path d="M216.086 59.4121C216.009 59.4123 215.934 59.3914 215.868 59.3519C215.802 59.3123 215.749 59.2555 215.713 59.1877C210.243 48.8095 190.34 41.5166 190.138 41.4353C190.082 41.42 190.03 41.3933 189.985 41.357C189.94 41.3207 189.903 41.2755 189.876 41.2242C189.849 41.173 189.833 41.1168 189.829 41.0591C189.825 41.0014 189.833 40.9435 189.852 40.889C189.872 40.8345 189.902 40.7845 189.941 40.7423C189.981 40.7 190.029 40.6664 190.082 40.6435C190.135 40.6205 190.192 40.6087 190.25 40.6089C190.308 40.609 190.365 40.6211 190.418 40.6444C191.26 40.9445 210.832 48.1139 216.453 58.795C216.502 58.8932 216.511 59.0066 216.478 59.1112C216.445 59.2158 216.373 59.3036 216.277 59.356C216.218 59.389 216.153 59.4082 216.086 59.4121Z" fill="#1D1E1B"/>
<defs>
<filter id="filter0_d_10099_58996" x="-2.82277" y="75.6952" width="27.167" height="27.167" filterUnits="userSpaceOnUse" color-interpolation-filters="sRGB">
<feFlood flood-opacity="0" result="BackgroundImageFix"/>
<feColorMatrix in="SourceAlpha" type="matrix" values="0 0 0 0 0 0 0 0 0 0 0 0 0 0 0 0 0 0 127 0" result="hardAlpha"/>
<feOffset dy="1.43057"/>
<feGaussianBlur stdDeviation="3.57642"/>
<feComposite in2="hardAlpha" operator="out"/>
<feColorMatrix type="matrix" values="0 0 0 0 0 0 0 0 0 0 0 0 0 0 0 0 0 0 0.05 0"/>
<feBlend mode="normal" in2="BackgroundImageFix" result="effect1_dropShadow_10099_58996"/>
<feBlend mode="normal" in="SourceGraphic" in2="effect1_dropShadow_10099_58996" result="shape"/>
</filter>
<filter id="filter1_d_10099_58996" x="260.296" y="116.027" width="27.1709" height="27.1704" filterUnits="userSpaceOnUse" color-interpolation-filters="sRGB">
<feFlood flood-opacity="0" result="BackgroundImageFix"/>
<feColorMatrix in="SourceAlpha" type="matrix" values="0 0 0 0 0 0 0 0 0 0 0 0 0 0 0 0 0 0 127 0" result="hardAlpha"/>
<feOffset dy="1.43057"/>
<feGaussianBlur stdDeviation="3.57642"/>
<feComposite in2="hardAlpha" operator="out"/>
<feColorMatrix type="matrix" values="0 0 0 0 0 0 0 0 0 0 0 0 0 0 0 0 0 0 0.05 0"/>
<feBlend mode="normal" in2="BackgroundImageFix" result="effect1_dropShadow_10099_58996"/>
<feBlend mode="normal" in="SourceGraphic" in2="effect1_dropShadow_10099_58996" result="shape"/>
</filter>
<linearGradient id="paint0_linear_10099_58996" x1="14.3628" y1="78.6815" x2="275.328" y2="140.839" gradientUnits="userSpaceOnUse">
<stop stop-color="#CDD5E2"/>
<stop offset="1" stop-color="#CDD5E2" stop-opacity="0"/>
</linearGradient>
<linearGradient id="paint1_linear_10099_58996" x1="274.879" y1="137.251" x2="248.501" y2="206.5" gradientUnits="userSpaceOnUse">
<stop stop-color="#CDD5E2"/>
<stop offset="1" stop-color="#CDD5E2" stop-opacity="0"/>
</linearGradient>
<linearGradient id="paint2_linear_10099_58996" x1="138" y1="16.335" x2="138" y2="256.335" gradientUnits="userSpaceOnUse">
<stop stop-color="#CDD5E2"/>
<stop offset="1" stop-color="#CDD5E2" stop-opacity="0"/>
</linearGradient>
<linearGradient id="paint3_linear_10099_58996" x1="138" y1="40.335" x2="138" y2="232.335" gradientUnits="userSpaceOnUse">
<stop stop-color="#CDD5E2"/>
<stop offset="1" stop-color="#CDD5E2" stop-opacity="0"/>
</linearGradient>
</defs>
</svg>
