<svg width="88" height="96" viewBox="0 0 88 96" fill="none" xmlns="http://www.w3.org/2000/svg">
<g filter="url(#filter0_d_2037_33648)">
<circle cx="44" cy="40" r="24" fill="white"/>
</g>
<g filter="url(#filter1_d_2037_33648)">
<path d="M45.6588 70.5373C44.8661 71.7142 43.1339 71.7142 42.3412 70.5373L33.9754 58.1173C33.0806 56.7889 34.0325 55 35.6342 55H52.3658C53.9675 55 54.9194 56.7889 54.0246 58.1173L45.6588 70.5373Z" fill="white"/>
</g>
<g filter="url(#filter2_d_2037_33648)">
<circle cx="44" cy="40" r="20" fill="#277DFF"/>
</g>
<path d="M52.6201 36.45C51.5701 31.83 47.5401 29.75 44.0001 29.75C44.0001 29.75 44.0001 29.75 43.9901 29.75C40.4601 29.75 36.4201 31.82 35.3701 36.44C34.2001 41.6 37.3601 45.97 40.2201 48.72C41.2801 49.74 42.6401 50.25 44.0001 50.25C45.3601 50.25 46.7201 49.74 47.7701 48.72C50.6301 45.97 53.7901 41.61 52.6201 36.45ZM44.0001 41.46C42.2601 41.46 40.8501 40.05 40.8501 38.31C40.8501 36.57 42.2601 35.16 44.0001 35.16C45.7401 35.16 47.1501 36.57 47.1501 38.31C47.1501 40.05 45.7401 41.46 44.0001 41.46Z" fill="white"/>
<defs>
<filter id="filter0_d_2037_33648" x="0" y="0" width="88" height="88" filterUnits="userSpaceOnUse" color-interpolation-filters="sRGB">
<feFlood flood-opacity="0" result="BackgroundImageFix"/>
<feColorMatrix in="SourceAlpha" type="matrix" values="0 0 0 0 0 0 0 0 0 0 0 0 0 0 0 0 0 0 127 0" result="hardAlpha"/>
<feOffset dy="4"/>
<feGaussianBlur stdDeviation="10"/>
<feComposite in2="hardAlpha" operator="out"/>
<feColorMatrix type="matrix" values="0 0 0 0 0 0 0 0 0 0 0 0 0 0 0 0 0 0 0.05 0"/>
<feBlend mode="normal" in2="BackgroundImageFix" result="effect1_dropShadow_2037_33648"/>
<feBlend mode="normal" in="SourceGraphic" in2="effect1_dropShadow_2037_33648" result="shape"/>
</filter>
<filter id="filter1_d_2037_33648" x="13.6309" y="39" width="60.7383" height="56.4199" filterUnits="userSpaceOnUse" color-interpolation-filters="sRGB">
<feFlood flood-opacity="0" result="BackgroundImageFix"/>
<feColorMatrix in="SourceAlpha" type="matrix" values="0 0 0 0 0 0 0 0 0 0 0 0 0 0 0 0 0 0 127 0" result="hardAlpha"/>
<feOffset dy="4"/>
<feGaussianBlur stdDeviation="10"/>
<feComposite in2="hardAlpha" operator="out"/>
<feColorMatrix type="matrix" values="0 0 0 0 0 0 0 0 0 0 0 0 0 0 0 0 0 0 0.05 0"/>
<feBlend mode="normal" in2="BackgroundImageFix" result="effect1_dropShadow_2037_33648"/>
<feBlend mode="normal" in="SourceGraphic" in2="effect1_dropShadow_2037_33648" result="shape"/>
</filter>
<filter id="filter2_d_2037_33648" x="4" y="4" width="80" height="80" filterUnits="userSpaceOnUse" color-interpolation-filters="sRGB">
<feFlood flood-opacity="0" result="BackgroundImageFix"/>
<feColorMatrix in="SourceAlpha" type="matrix" values="0 0 0 0 0 0 0 0 0 0 0 0 0 0 0 0 0 0 127 0" result="hardAlpha"/>
<feOffset dy="4"/>
<feGaussianBlur stdDeviation="10"/>
<feComposite in2="hardAlpha" operator="out"/>
<feColorMatrix type="matrix" values="0 0 0 0 0 0 0 0 0 0 0 0 0 0 0 0 0 0 0.02 0"/>
<feBlend mode="normal" in2="BackgroundImageFix" result="effect1_dropShadow_2037_33648"/>
<feBlend mode="normal" in="SourceGraphic" in2="effect1_dropShadow_2037_33648" result="shape"/>
</filter>
</defs>
</svg>
