<svg width="406" height="302" viewBox="0 0 406 302" fill="none" xmlns="http://www.w3.org/2000/svg">
<mask id="mask0_2658_38157" style="mask-type:alpha" maskUnits="userSpaceOnUse" x="0" y="0" width="406" height="302">
<rect width="405.823" height="301.875" fill="#D9D9D9"/>
</mask>
<g mask="url(#mask0_2658_38157)">
<g opacity="0.5">
<mask id="path-2-inside-1_2658_38157" fill="white">
<path d="M389.979 202.563C391.995 156.306 377.371 110.858 348.759 74.4568C320.146 38.0554 279.439 13.11 234.015 4.1422C188.592 -4.82558 141.458 2.77787 101.159 25.5743C60.859 48.3707 30.0607 84.8513 14.3462 128.403L15.1858 128.706C30.8279 85.3551 61.4843 49.0426 101.598 26.3513C141.712 3.65991 188.628 -3.9085 233.842 5.01795C279.057 13.9444 319.576 38.7749 348.057 75.0085C376.537 111.242 391.094 156.481 389.087 202.524L389.979 202.563Z"/>
</mask>
<path d="M389.979 202.563C391.995 156.306 377.371 110.858 348.759 74.4568C320.146 38.0554 279.439 13.11 234.015 4.1422C188.592 -4.82558 141.458 2.77787 101.159 25.5743C60.859 48.3707 30.0607 84.8513 14.3462 128.403L15.1858 128.706C30.8279 85.3551 61.4843 49.0426 101.598 26.3513C141.712 3.65991 188.628 -3.9085 233.842 5.01795C279.057 13.9444 319.576 38.7749 348.057 75.0085C376.537 111.242 391.094 156.481 389.087 202.524L389.979 202.563Z" stroke="url(#paint0_linear_2658_38157)" stroke-width="2.84788" stroke-dasharray="4.27 4.27" mask="url(#path-2-inside-1_2658_38157)"/>
</g>
<g opacity="0.5">
<mask id="path-3-inside-2_2658_38157" fill="white">
<path d="M14.6043 260.571C30.4892 304.062 61.4301 340.421 101.819 363.06C142.207 385.698 189.37 393.117 234.758 383.972C280.146 374.826 320.756 349.722 349.225 313.209C377.695 276.696 392.141 231.191 389.944 184.942L389.052 184.985C391.239 231.02 376.86 276.315 348.521 312.66C320.183 349.005 279.761 373.993 234.582 383.097C189.403 392.2 142.457 384.815 102.255 362.281C62.0527 339.747 31.2544 303.555 15.4428 260.265L14.6043 260.571Z"/>
</mask>
<path d="M14.6043 260.571C30.4892 304.062 61.4301 340.421 101.819 363.06C142.207 385.698 189.37 393.117 234.758 383.972C280.146 374.826 320.756 349.722 349.225 313.209C377.695 276.696 392.141 231.191 389.944 184.942L389.052 184.985C391.239 231.02 376.86 276.315 348.521 312.66C320.183 349.005 279.761 373.993 234.582 383.097C189.403 392.2 142.457 384.815 102.255 362.281C62.0527 339.747 31.2544 303.555 15.4428 260.265L14.6043 260.571Z" stroke="url(#paint1_linear_2658_38157)" stroke-width="2.84788" stroke-dasharray="4.27 4.27" mask="url(#path-3-inside-2_2658_38157)"/>
</g>
<circle opacity="0.08" cx="196.502" cy="194.134" r="170.873" fill="url(#paint2_linear_2658_38157)"/>
<circle opacity="0.1" cx="196.505" cy="194.132" r="136.698" fill="url(#paint3_linear_2658_38157)"/>
<circle cx="196.505" cy="194.132" r="91.1321" fill="white"/>
<g filter="url(#filter0_d_2658_38157)">
<circle cx="15.3224" cy="125.091" r="7.11969" transform="rotate(-2.50406 15.3224 125.091)" fill="#0170FF"/>
<circle cx="15.3224" cy="125.091" r="8.13822" transform="rotate(-2.50406 15.3224 125.091)" stroke="white" stroke-width="2.03704"/>
</g>
<g filter="url(#filter1_d_2658_38157)">
<circle cx="389.993" cy="182.52" r="7.11969" transform="rotate(-15.7345 389.993 182.52)" fill="#0170FF"/>
<circle cx="389.993" cy="182.52" r="8.13822" transform="rotate(-15.7345 389.993 182.52)" stroke="white" stroke-width="2.03704"/>
</g>
</g>
<path d="M323.015 280.385H95.8407C95.6695 280.385 95.5054 280.316 95.3844 280.195C95.2634 280.074 95.1953 279.91 95.1953 279.739C95.1953 279.568 95.2634 279.404 95.3844 279.283C95.5054 279.162 95.6695 279.094 95.8407 279.094H323.015C323.186 279.094 323.35 279.162 323.471 279.283C323.592 279.404 323.661 279.568 323.661 279.739C323.661 279.91 323.592 280.074 323.471 280.195C323.35 280.316 323.186 280.385 323.015 280.385Z" fill="#1D1D1B"/>
<path d="M123.592 288.451H79.3837C79.2125 288.451 79.0484 288.383 78.9274 288.262C78.8063 288.141 78.7383 287.977 78.7383 287.806C78.7383 287.634 78.8063 287.47 78.9274 287.349C79.0484 287.228 79.2125 287.16 79.3837 287.16H123.592C123.763 287.16 123.928 287.228 124.049 287.349C124.17 287.47 124.238 287.634 124.238 287.806C124.238 287.977 124.17 288.141 124.049 288.262C123.928 288.383 123.763 288.451 123.592 288.451Z" fill="#1D1D1B"/>
<path d="M340.441 292.002H305.591C305.42 292.002 305.255 291.934 305.134 291.813C305.013 291.692 304.945 291.527 304.945 291.356C304.945 291.185 305.013 291.021 305.134 290.9C305.255 290.779 305.42 290.711 305.591 290.711H340.441C340.612 290.711 340.777 290.779 340.898 290.9C341.019 291.021 341.087 291.185 341.087 291.356C341.087 291.527 341.019 291.692 340.898 291.813C340.777 291.934 340.612 292.002 340.441 292.002Z" fill="#1D1D1B"/>
<path d="M340.601 197.129C340.473 197.129 340.35 197.078 340.259 196.987C340.168 196.896 340.117 196.773 340.117 196.645V9.48404C340.117 9.35566 340.168 9.23258 340.259 9.14181C340.35 9.05103 340.473 9 340.601 9C340.73 9 340.853 9.05103 340.943 9.14181C341.034 9.23258 341.085 9.35566 341.085 9.48404V196.645C341.085 196.773 341.034 196.896 340.943 196.987C340.853 197.078 340.73 197.129 340.601 197.129Z" fill="#1D1E1B"/>
<path d="M328.017 218.751C327.889 218.751 327.766 218.7 327.675 218.609C327.584 218.518 327.533 218.395 327.533 218.267V181.48C327.533 181.352 327.584 181.229 327.675 181.138C327.766 181.047 327.889 180.996 328.017 180.996C328.146 180.996 328.269 181.047 328.359 181.138C328.45 181.229 328.501 181.352 328.501 181.48V218.267C328.501 218.395 328.45 218.518 328.359 218.609C328.269 218.7 328.146 218.751 328.017 218.751Z" fill="#1D1E1B"/>
<path d="M259.577 174.86H150.243L150.217 168.277C150.217 168.17 150.217 168.064 150.217 167.954C150.217 145.575 155.567 124.446 165.283 108.45C175.609 91.4473 189.685 82.0859 204.913 82.0859C220.141 82.0859 234.213 91.444 244.543 108.45C254.259 124.446 259.609 145.575 259.609 167.954C259.609 168.064 259.609 168.17 259.609 168.277V168.432L259.577 174.86ZM163.263 161.952H246.556C245.717 144.185 241.158 127.747 233.507 115.162C225.61 102.164 215.455 95.0065 204.91 95.0065C194.364 95.0065 184.209 102.164 176.313 115.162C168.662 127.747 164.102 144.185 163.263 161.952Z" fill="#382256"/>
<path d="M260.057 175.344H149.762L149.732 168.28C149.732 168.174 149.732 168.064 149.732 167.958C149.732 145.492 155.109 124.272 164.87 108.202C175.29 91.0508 189.511 81.6055 204.913 81.6055C220.315 81.6055 234.536 91.0508 244.955 108.202C254.717 124.272 260.093 145.492 260.093 167.958C260.093 168.067 260.093 168.177 260.093 168.28V168.435L260.057 175.344ZM150.726 174.376H259.093L259.118 168.274C259.118 168.167 259.118 168.061 259.118 167.951C259.118 145.663 253.791 124.617 244.12 108.699C233.884 91.8478 219.957 82.5608 204.906 82.5608C189.856 82.5608 175.929 91.8414 165.693 108.699C156.012 124.617 150.694 145.663 150.694 167.951C150.694 168.058 150.694 168.164 150.694 168.274L150.726 174.376ZM247.063 162.436H162.756L162.779 161.93C163.618 144.146 168.265 127.447 175.9 114.901C183.886 101.751 194.19 94.51 204.909 94.51C215.629 94.51 225.933 101.751 233.919 114.901C241.541 127.447 246.201 144.146 247.04 161.93L247.063 162.436ZM163.769 161.468H246.056C245.159 144.043 240.57 127.692 233.1 115.401C225.294 102.555 215.284 95.478 204.916 95.478C194.548 95.478 184.538 102.555 176.732 115.401C169.262 127.692 164.667 144.033 163.769 161.468Z" fill="#1D1E1B"/>
<path d="M176.408 156.789H233.092C246.586 156.789 259.527 162.15 269.068 171.691C278.61 181.233 283.971 194.174 283.971 207.668V264.519C283.971 268.555 282.368 272.425 279.514 275.278C276.661 278.131 272.791 279.734 268.756 279.734H140.744C136.709 279.734 132.839 278.131 129.986 275.278C127.132 272.425 125.529 268.555 125.529 264.519V207.668C125.529 194.174 130.89 181.233 140.431 171.691C149.973 162.15 162.914 156.789 176.408 156.789Z" fill="#4BD657"/>
<path d="M268.755 280.218H140.744C136.582 280.214 132.591 278.558 129.648 275.615C126.704 272.672 125.049 268.681 125.045 264.519V207.667C125.045 179.345 148.085 156.305 176.408 156.305H233.092C261.414 156.305 284.454 179.345 284.454 207.667V264.519C284.45 268.681 282.795 272.672 279.852 275.615C276.908 278.558 272.918 280.214 268.755 280.218ZM176.408 157.273C148.621 157.273 126.013 179.88 126.013 207.667V264.519C126.017 268.425 127.571 272.169 130.332 274.931C133.094 277.692 136.838 279.246 140.744 279.25H268.755C272.661 279.246 276.405 277.692 279.167 274.931C281.929 272.169 283.482 268.425 283.486 264.519V207.667C283.486 179.88 260.878 157.273 233.092 157.273H176.408Z" fill="#1D1E1B"/>
<path d="M211.145 211.113V196.805H197.941V211.403C194.952 212.959 192.578 215.479 191.204 218.555C189.83 221.631 189.537 225.081 190.373 228.344C191.208 231.608 193.124 234.493 195.807 236.529C198.49 238.566 201.784 239.636 205.152 239.563C208.52 239.491 211.764 238.281 214.357 236.131C216.95 233.98 218.74 231.016 219.434 227.719C220.129 224.423 219.688 220.989 218.183 217.975C216.678 214.961 214.198 212.545 211.145 211.119V211.113Z" fill="#382256"/>
<path d="M204.83 240.044C201.405 240.044 198.078 238.903 195.374 236.802C192.67 234.701 190.743 231.758 189.897 228.439C189.051 225.121 189.336 221.615 190.704 218.476C192.073 215.337 194.449 212.743 197.456 211.105V196.312H211.629V210.808C214.752 212.343 217.263 214.891 218.753 218.035C220.244 221.18 220.626 224.736 219.838 228.125C219.049 231.515 217.137 234.538 214.412 236.702C211.687 238.866 208.31 240.044 204.83 240.044ZM198.424 197.281V211.689L198.166 211.824C195.274 213.329 192.977 215.767 191.647 218.743C190.317 221.719 190.033 225.058 190.841 228.216C191.649 231.374 193.502 234.165 196.098 236.136C198.695 238.107 201.881 239.142 205.14 239.072C208.399 239.002 211.539 237.832 214.048 235.751C216.557 233.67 218.289 230.802 218.961 227.612C219.633 224.422 219.206 221.099 217.749 218.183C216.293 215.266 213.892 212.929 210.938 211.55L210.661 211.421V197.281H198.424Z" fill="#1D1E1B"/>
<path d="M277.356 245.692H277.272C276.759 245.669 276.277 245.444 275.93 245.066C275.583 244.688 275.401 244.187 275.423 243.675C277.862 187.527 261.676 183.419 261.512 183.383H261.56L262.173 179.562C262.735 179.653 267.788 180.695 272.299 189.46C278.024 200.576 280.367 218.873 279.289 243.836C279.268 244.335 279.055 244.807 278.695 245.152C278.335 245.498 277.855 245.691 277.356 245.692Z" fill="white"/>
<path d="M129.078 217.135H128.92C128.408 217.094 127.934 216.851 127.601 216.46C127.268 216.069 127.104 215.562 127.145 215.05C128.7 195.479 135.141 180.748 146.287 171.267C160.876 158.86 178.062 160.112 178.788 160.17C179.043 160.191 179.29 160.262 179.517 160.379C179.744 160.496 179.945 160.657 180.11 160.851C180.275 161.046 180.4 161.271 180.478 161.514C180.555 161.757 180.584 162.013 180.563 162.268C180.542 162.522 180.471 162.769 180.354 162.996C180.237 163.223 180.077 163.425 179.882 163.589C179.687 163.754 179.462 163.879 179.219 163.957C178.976 164.035 178.72 164.064 178.466 164.042C178.288 164.042 167.449 163.271 156.281 169.163C141.314 177.063 132.808 192.61 130.998 215.373C130.955 215.853 130.734 216.299 130.379 216.625C130.024 216.951 129.56 217.133 129.078 217.135Z" fill="white"/>
<path d="M231.665 252.628H178.156C175.41 252.625 172.778 251.533 170.837 249.592C168.895 247.651 167.803 245.018 167.801 242.273V194.25C167.803 191.504 168.895 188.872 170.837 186.93C172.778 184.989 175.41 183.897 178.156 183.895H231.665C234.41 183.897 237.042 184.989 238.984 186.93C240.925 188.872 242.017 191.504 242.02 194.25V242.273C242.017 245.018 240.925 247.651 238.984 249.592C237.042 251.533 234.41 252.625 231.665 252.628ZM178.156 185.185C175.753 185.188 173.449 186.144 171.749 187.843C170.05 189.542 169.094 191.846 169.092 194.25V242.273C169.094 244.676 170.05 246.98 171.749 248.679C173.449 250.379 175.753 251.334 178.156 251.337H231.665C234.068 251.334 236.372 250.379 238.071 248.679C239.771 246.98 240.726 244.676 240.729 242.273V194.25C240.726 191.846 239.771 189.542 238.071 187.843C236.372 186.144 234.068 185.188 231.665 185.185H178.156Z" fill="#1D1D1B"/>
<path d="M261.704 137.106C261.55 137.108 261.401 137.055 261.282 136.957C261.164 136.859 261.085 136.722 261.059 136.57C256.257 108.596 245.218 94.5137 236.802 87.6275C227.741 80.2056 219.76 79.3473 219.68 79.3409C219.509 79.3237 219.351 79.2392 219.242 79.1061C219.133 78.973 219.082 78.802 219.099 78.6309C219.116 78.4597 219.201 78.3024 219.334 78.1935C219.467 78.0846 219.638 78.033 219.809 78.0501C220.132 78.0824 228.257 78.9633 237.618 86.6239C243.104 91.1029 247.851 96.9855 251.758 104.111C256.625 112.991 260.184 123.833 262.33 136.344C262.359 136.513 262.32 136.686 262.221 136.826C262.123 136.965 261.972 137.06 261.804 137.09L261.704 137.106Z" fill="#1D1D1B"/>
<path d="M172.642 146.465H172.613C172.528 146.461 172.445 146.441 172.368 146.405C172.291 146.369 172.222 146.318 172.165 146.256C172.108 146.193 172.063 146.12 172.035 146.04C172.006 145.96 171.993 145.876 171.997 145.791C172.671 131.289 177.441 122.105 181.323 116.955C185.556 111.334 189.6 109.194 189.771 109.107C189.846 109.061 189.93 109.031 190.018 109.018C190.106 109.006 190.195 109.011 190.281 109.035C190.366 109.059 190.446 109.1 190.515 109.155C190.584 109.211 190.64 109.281 190.681 109.359C190.722 109.438 190.746 109.524 190.753 109.613C190.759 109.701 190.746 109.79 190.717 109.874C190.687 109.957 190.64 110.033 190.58 110.098C190.519 110.163 190.446 110.214 190.364 110.25C190.316 110.275 186.363 112.389 182.297 117.794C178.544 122.796 173.933 131.725 173.278 145.849C173.271 146.013 173.201 146.169 173.082 146.283C172.964 146.398 172.807 146.463 172.642 146.465Z" fill="#1D1D1B"/>
<path d="M145.913 248.757C130.075 245.276 115.356 237.9 103.089 227.295C93.1433 218.747 84.4307 207.975 77.1895 195.281C64.866 173.68 61.0355 153.702 61 153.505L61.9489 153.324C61.9876 153.524 65.7953 173.363 78.0446 194.829C89.3388 214.607 110.314 239.854 146.132 247.815L145.913 248.757Z" fill="#1D1E1B"/>
<path d="M130.85 260.206C123.887 260.213 116.969 259.089 110.365 256.879C102.456 254.24 94.8473 250.032 87.7545 244.375C75.6859 234.752 69.1902 224.103 69.1289 223.997L69.9549 223.5C70.0194 223.603 76.4411 234.123 88.3839 243.639C99.3812 252.4 117.455 262.081 141.105 258.444L141.253 259.412C137.811 259.942 134.333 260.208 130.85 260.206Z" fill="#1D1E1B"/>
<path d="M340.441 31.2695C291.714 32.883 246.886 81.2576 265.673 104.695L258.896 111.342L281.582 141.03L287.164 136.083C287.164 136.083 294.506 145.599 309.701 141.136C333.322 134.202 339.111 122.097 340.457 119.025L340.441 31.2695Z" fill="#07ACEE"/>
<path d="M340.441 31.2689V119.041C339.095 122.123 333.306 134.207 309.685 141.152C307.153 141.92 304.523 142.321 301.876 142.342C291.969 142.342 287.148 136.098 287.148 136.098L281.566 141.045L258.881 111.358L265.657 104.71C246.886 81.2569 291.714 32.8823 340.441 31.2689ZM340.441 30.3008H340.409C331.913 30.6261 323.513 32.2172 315.487 35.0217C307.631 37.7337 300.142 41.4103 293.192 45.9674C279.714 54.7736 268.991 66.3228 263.782 77.6557C261.398 82.8446 260.233 87.8011 260.333 92.3865C260.365 96.7822 261.782 101.056 264.382 104.6L258.203 110.651C258.031 110.817 257.926 111.04 257.909 111.278C257.892 111.517 257.963 111.753 258.11 111.942L280.795 141.645C280.876 141.751 280.978 141.839 281.094 141.903C281.211 141.968 281.34 142.007 281.472 142.02H281.566C281.804 142.02 282.033 141.933 282.211 141.774L287.074 137.47C288.775 139.222 293.634 143.317 301.879 143.317C304.613 143.293 307.33 142.879 309.946 142.087C331.386 135.795 338.805 125.195 341.318 119.435C341.371 119.312 341.398 119.18 341.399 119.047V31.2689C341.399 31.0121 341.297 30.7659 341.116 30.5844C340.934 30.4028 340.688 30.3008 340.431 30.3008H340.441Z" fill="#1D1E1B"/>
<path d="M259.674 110.651L281.565 141.058L286.957 135.895C286.844 126.053 276.751 110.464 265.828 104.801L259.674 110.651Z" fill="#0598C6"/>
<path d="M302.228 65.3153C304.069 65.3153 305.561 63.8228 305.561 61.9819C305.561 60.1409 304.069 58.6484 302.228 58.6484C300.387 58.6484 298.895 60.1409 298.895 61.9819C298.895 63.8228 300.387 65.3153 302.228 65.3153Z" fill="#51CEF4"/>
<path d="M302.708 130.577C304.549 130.577 306.042 129.085 306.042 127.244C306.042 125.403 304.549 123.91 302.708 123.91C300.867 123.91 299.375 125.403 299.375 127.244C299.375 129.085 300.867 130.577 302.708 130.577Z" fill="#51CEF4"/>
<path d="M321.833 100.468C323.674 100.468 325.167 98.9752 325.167 97.1342C325.167 95.2932 323.674 93.8008 321.833 93.8008C319.992 93.8008 318.5 95.2932 318.5 97.1342C318.5 98.9752 319.992 100.468 321.833 100.468Z" fill="#51CEF4"/>
<path d="M276.224 90.8817C278.065 90.8817 279.557 89.3893 279.557 87.5483C279.557 85.7073 278.065 84.2148 276.224 84.2148C274.383 84.2148 272.891 85.7073 272.891 87.5483C272.891 89.3893 274.383 90.8817 276.224 90.8817Z" fill="#51CEF4"/>
<path d="M281.712 140.52C281.712 140.52 284.203 192.393 256.838 175.749L234.802 191.673C234.802 191.673 219.958 187.062 232.866 169.108C232.866 169.108 226.322 161.379 228.348 152.247C228.348 152.247 220.649 148.226 228.69 132.831C236.732 117.435 258.92 111.652 258.92 111.652L281.712 140.52Z" fill="#FFCDB2"/>
<path d="M234.92 192.388L234.598 192.291C234.378 192.223 229.196 190.561 227.473 185.415C226.001 181.013 227.54 175.537 232.048 169.132C230.758 167.437 226.047 160.629 227.615 152.552C226.001 151.403 220.88 146.372 228.108 132.545C236.176 117.056 257.828 111.283 258.764 111.044L259.171 110.938L282.35 140.302V140.509C282.411 141.764 283.689 171.281 271.956 178.264C267.915 180.664 262.84 180.09 256.863 176.553L234.92 192.388ZM258.687 112.393C255.66 113.267 236.492 119.298 229.267 133.129C221.661 147.695 228.367 151.522 228.657 151.677L229.086 151.909L228.983 152.387C227.047 161.1 233.3 168.619 233.365 168.693L233.688 169.077L233.394 169.487C228.925 175.702 227.35 180.916 228.705 184.992C229.996 188.864 233.639 190.536 234.701 190.952L256.805 174.975L257.173 175.198C262.869 178.661 267.622 179.309 271.304 177.134C281.885 170.848 281.172 143.423 281.075 140.77L258.687 112.393Z" fill="#1D1E1B"/>
<path d="M263.397 169.207C263.533 169.155 263.682 169.15 263.821 169.193C263.959 169.236 264.079 169.325 264.162 169.445C264.244 169.564 264.283 169.708 264.273 169.853C264.263 169.998 264.205 170.135 264.107 170.243L257.231 176.222C257.17 176.293 257.095 176.351 257.01 176.39C256.926 176.429 256.834 176.45 256.74 176.45C256.647 176.45 256.555 176.43 256.47 176.391C256.385 176.352 256.31 176.295 256.249 176.224C256.188 176.153 256.144 176.07 256.118 175.98C256.093 175.891 256.087 175.796 256.102 175.704C256.116 175.612 256.15 175.524 256.202 175.446C256.254 175.369 256.322 175.303 256.402 175.254L263.278 169.278C263.315 169.249 263.355 169.226 263.397 169.207Z" fill="black"/>
<path d="M247.916 153.448C248.76 152.99 249.632 152.583 250.526 152.232C250.608 152.181 250.699 152.148 250.794 152.137C250.889 152.126 250.986 152.136 251.077 152.167C251.167 152.198 251.25 152.248 251.319 152.315C251.388 152.382 251.441 152.463 251.474 152.552C251.508 152.642 251.521 152.738 251.512 152.834C251.504 152.929 251.475 153.022 251.426 153.104C251.378 153.187 251.312 153.258 251.233 153.312C251.153 153.366 251.063 153.401 250.968 153.416C250.859 153.458 239.839 157.688 233.662 169.428C233.635 169.519 233.588 169.604 233.524 169.675C233.461 169.746 233.382 169.802 233.294 169.839C233.206 169.876 233.111 169.893 233.016 169.889C232.92 169.885 232.827 169.859 232.743 169.815C232.658 169.77 232.585 169.708 232.528 169.631C232.47 169.555 232.431 169.467 232.412 169.373C232.392 169.28 232.394 169.183 232.417 169.091C232.44 168.998 232.482 168.911 232.543 168.837C236.026 162.295 241.377 156.938 247.916 153.448Z" fill="black"/>
<path d="M241.925 138.156C243.129 137.511 243.936 137.172 244.058 137.121C244.137 137.067 244.227 137.031 244.322 137.016C244.416 137.001 244.513 137.007 244.604 137.034C244.696 137.061 244.781 137.108 244.852 137.171C244.923 137.235 244.98 137.313 245.017 137.401C245.054 137.489 245.072 137.585 245.068 137.68C245.064 137.776 245.039 137.869 244.994 137.954C244.95 138.038 244.887 138.112 244.81 138.169C244.734 138.227 244.646 138.266 244.552 138.285C244.433 138.337 232.409 143.533 228.84 153.045C228.761 153.171 228.641 153.266 228.501 153.313C228.36 153.361 228.207 153.359 228.068 153.307C227.929 153.255 227.812 153.156 227.737 153.028C227.662 152.9 227.633 152.75 227.656 152.603C230.505 145.004 238.147 140.154 241.925 138.156Z" fill="black"/>
<path d="M242.935 121.713C247.714 119.177 251.47 119.073 251.648 119.07C251.741 119.049 251.838 119.05 251.931 119.071C252.024 119.092 252.112 119.133 252.187 119.192C252.262 119.251 252.323 119.326 252.366 119.412C252.408 119.497 252.432 119.591 252.434 119.687C252.435 119.782 252.416 119.877 252.377 119.964C252.338 120.052 252.28 120.129 252.207 120.191C252.134 120.253 252.049 120.298 251.956 120.323C251.864 120.348 251.768 120.352 251.673 120.335C251.506 120.335 236.368 120.929 228.807 141.178C228.729 141.306 228.609 141.402 228.468 141.451C228.326 141.5 228.172 141.499 228.032 141.446C227.891 141.394 227.773 141.295 227.698 141.165C227.623 141.035 227.595 140.884 227.62 140.736C231.728 129.735 238.014 124.433 242.564 121.923L242.935 121.713Z" fill="white"/>
<path d="M244.081 140.799C244.597 140.525 244.933 140.36 245.017 140.318C245.168 140.247 245.342 140.238 245.5 140.293C245.659 140.348 245.79 140.462 245.865 140.612C245.903 140.686 245.925 140.768 245.931 140.851C245.936 140.934 245.925 141.018 245.898 141.097C245.87 141.176 245.827 141.248 245.771 141.31C245.715 141.372 245.647 141.422 245.571 141.457C245.417 141.535 230.179 149.06 230.612 156.788C230.635 156.881 230.638 156.977 230.62 157.071C230.601 157.164 230.563 157.252 230.506 157.329C230.45 157.406 230.377 157.469 230.294 157.515C230.21 157.56 230.117 157.586 230.022 157.591C229.927 157.597 229.832 157.581 229.744 157.545C229.656 157.51 229.576 157.455 229.512 157.385C229.447 157.315 229.399 157.231 229.37 157.141C229.342 157.05 229.334 156.954 229.347 156.859C228.931 149.405 240.608 142.642 244.081 140.799Z" fill="white"/>
<path d="M249.506 157.097C249.644 157.053 249.794 157.057 249.93 157.108C250.066 157.16 250.18 157.255 250.255 157.38C250.329 157.505 250.36 157.651 250.341 157.796C250.322 157.94 250.255 158.073 250.151 158.174C249.977 158.297 232.616 170.64 231.984 181.586C231.947 181.731 231.86 181.859 231.739 181.947C231.618 182.035 231.47 182.079 231.32 182.07C231.171 182.061 231.029 182.001 230.919 181.899C230.809 181.797 230.739 181.66 230.719 181.512C231.387 169.956 248.686 157.658 249.435 157.139L249.506 157.097Z" fill="white"/>
<path d="M260.251 58.372C260.203 58.3722 260.155 58.3646 260.109 58.3495C259.986 58.3122 259.883 58.2277 259.823 58.1146C259.762 58.0014 259.749 57.8688 259.786 57.746C259.815 57.6557 262.691 48.4881 271.933 39.3914C277.536 33.9405 284.138 29.6224 291.378 26.6741C300.7 22.8018 311.508 20.7656 323.492 20.6172C323.621 20.6172 323.744 20.6682 323.835 20.759C323.925 20.8498 323.976 20.9728 323.976 21.1012C323.976 21.2296 323.925 21.3527 323.835 21.4435C323.744 21.5342 323.621 21.5853 323.492 21.5853C296.68 21.908 281.036 31.8049 272.636 40.0432C263.533 48.9689 260.729 57.9396 260.696 58.03C260.666 58.1257 260.607 58.2099 260.528 58.271C260.448 58.3322 260.351 58.3675 260.251 58.372Z" fill="#1D1E1B"/>
<defs>
<filter id="filter0_d_2658_38157" x="-4.0192" y="107.785" width="38.6829" height="38.6829" filterUnits="userSpaceOnUse" color-interpolation-filters="sRGB">
<feFlood flood-opacity="0" result="BackgroundImageFix"/>
<feColorMatrix in="SourceAlpha" type="matrix" values="0 0 0 0 0 0 0 0 0 0 0 0 0 0 0 0 0 0 127 0" result="hardAlpha"/>
<feOffset dy="2.03704"/>
<feGaussianBlur stdDeviation="5.09261"/>
<feComposite in2="hardAlpha" operator="out"/>
<feColorMatrix type="matrix" values="0 0 0 0 0 0 0 0 0 0 0 0 0 0 0 0 0 0 0.05 0"/>
<feBlend mode="normal" in2="BackgroundImageFix" result="effect1_dropShadow_2658_38157"/>
<feBlend mode="normal" in="SourceGraphic" in2="effect1_dropShadow_2658_38157" result="shape"/>
</filter>
<filter id="filter1_d_2658_38157" x="370.649" y="165.211" width="38.6888" height="38.6907" filterUnits="userSpaceOnUse" color-interpolation-filters="sRGB">
<feFlood flood-opacity="0" result="BackgroundImageFix"/>
<feColorMatrix in="SourceAlpha" type="matrix" values="0 0 0 0 0 0 0 0 0 0 0 0 0 0 0 0 0 0 127 0" result="hardAlpha"/>
<feOffset dy="2.03704"/>
<feGaussianBlur stdDeviation="5.09261"/>
<feComposite in2="hardAlpha" operator="out"/>
<feColorMatrix type="matrix" values="0 0 0 0 0 0 0 0 0 0 0 0 0 0 0 0 0 0 0.05 0"/>
<feBlend mode="normal" in2="BackgroundImageFix" result="effect1_dropShadow_2658_38157"/>
<feBlend mode="normal" in="SourceGraphic" in2="effect1_dropShadow_2658_38157" result="shape"/>
</filter>
<linearGradient id="paint0_linear_2658_38157" x1="20.4547" y1="112.036" x2="392.053" y2="200.545" gradientUnits="userSpaceOnUse">
<stop stop-color="#CDD5E2"/>
<stop offset="1" stop-color="#CDD5E2" stop-opacity="0"/>
</linearGradient>
<linearGradient id="paint1_linear_2658_38157" x1="391.411" y1="195.436" x2="353.85" y2="294.043" gradientUnits="userSpaceOnUse">
<stop stop-color="#CDD5E2"/>
<stop offset="1" stop-color="#CDD5E2" stop-opacity="0"/>
</linearGradient>
<linearGradient id="paint2_linear_2658_38157" x1="196.502" y1="23.2617" x2="196.502" y2="365.007" gradientUnits="userSpaceOnUse">
<stop stop-color="#CDD5E2"/>
<stop offset="1" stop-color="#CDD5E2" stop-opacity="0"/>
</linearGradient>
<linearGradient id="paint3_linear_2658_38157" x1="196.505" y1="57.4336" x2="196.505" y2="330.83" gradientUnits="userSpaceOnUse">
<stop stop-color="#CDD5E2"/>
<stop offset="1" stop-color="#CDD5E2" stop-opacity="0"/>
</linearGradient>
</defs>
</svg>
