<svg width="406" height="302" viewBox="0 0 406 302" fill="none" xmlns="http://www.w3.org/2000/svg">
<mask id="mask0_2659_38918" style="mask-type:alpha" maskUnits="userSpaceOnUse" x="0" y="0" width="406" height="302">
<rect width="405.823" height="301.875" fill="#D9D9D9"/>
</mask>
<g mask="url(#mask0_2659_38918)">
<g opacity="0.5">
<mask id="path-2-inside-1_2659_38918" fill="white">
<path d="M389.979 202.563C391.995 156.306 377.371 110.858 348.759 74.4568C320.146 38.0554 279.439 13.11 234.015 4.1422C188.592 -4.82558 141.458 2.77787 101.159 25.5743C60.859 48.3707 30.0607 84.8513 14.3462 128.403L15.1858 128.706C30.8279 85.3551 61.4843 49.0426 101.598 26.3513C141.712 3.65991 188.628 -3.9085 233.842 5.01795C279.057 13.9444 319.576 38.7749 348.057 75.0085C376.537 111.242 391.094 156.481 389.087 202.524L389.979 202.563Z"/>
</mask>
<path d="M389.979 202.563C391.995 156.306 377.371 110.858 348.759 74.4568C320.146 38.0554 279.439 13.11 234.015 4.1422C188.592 -4.82558 141.458 2.77787 101.159 25.5743C60.859 48.3707 30.0607 84.8513 14.3462 128.403L15.1858 128.706C30.8279 85.3551 61.4843 49.0426 101.598 26.3513C141.712 3.65991 188.628 -3.9085 233.842 5.01795C279.057 13.9444 319.576 38.7749 348.057 75.0085C376.537 111.242 391.094 156.481 389.087 202.524L389.979 202.563Z" stroke="url(#paint0_linear_2659_38918)" stroke-width="2.84788" stroke-dasharray="4.27 4.27" mask="url(#path-2-inside-1_2659_38918)"/>
</g>
<g opacity="0.5">
<mask id="path-3-inside-2_2659_38918" fill="white">
<path d="M14.6043 260.571C30.4892 304.062 61.4301 340.421 101.819 363.06C142.207 385.698 189.37 393.117 234.758 383.972C280.146 374.826 320.756 349.722 349.225 313.209C377.695 276.696 392.141 231.191 389.944 184.942L389.052 184.985C391.239 231.02 376.86 276.315 348.521 312.66C320.183 349.005 279.761 373.993 234.582 383.097C189.403 392.2 142.457 384.815 102.255 362.281C62.0527 339.747 31.2544 303.555 15.4428 260.265L14.6043 260.571Z"/>
</mask>
<path d="M14.6043 260.571C30.4892 304.062 61.4301 340.421 101.819 363.06C142.207 385.698 189.37 393.117 234.758 383.972C280.146 374.826 320.756 349.722 349.225 313.209C377.695 276.696 392.141 231.191 389.944 184.942L389.052 184.985C391.239 231.02 376.86 276.315 348.521 312.66C320.183 349.005 279.761 373.993 234.582 383.097C189.403 392.2 142.457 384.815 102.255 362.281C62.0527 339.747 31.2544 303.555 15.4428 260.265L14.6043 260.571Z" stroke="url(#paint1_linear_2659_38918)" stroke-width="2.84788" stroke-dasharray="4.27 4.27" mask="url(#path-3-inside-2_2659_38918)"/>
</g>
<circle opacity="0.08" cx="196.502" cy="194.134" r="170.873" fill="url(#paint2_linear_2659_38918)"/>
<circle opacity="0.1" cx="196.505" cy="194.132" r="136.698" fill="url(#paint3_linear_2659_38918)"/>
<circle cx="196.505" cy="194.132" r="91.1321" fill="white"/>
<g filter="url(#filter0_d_2659_38918)">
<circle cx="15.3224" cy="125.091" r="7.11969" transform="rotate(-2.50406 15.3224 125.091)" fill="#0170FF"/>
<circle cx="15.3224" cy="125.091" r="8.13822" transform="rotate(-2.50406 15.3224 125.091)" stroke="white" stroke-width="2.03704"/>
</g>
<g filter="url(#filter1_d_2659_38918)">
<circle cx="389.993" cy="182.52" r="7.11969" transform="rotate(-15.7345 389.993 182.52)" fill="#0170FF"/>
<circle cx="389.993" cy="182.52" r="8.13822" transform="rotate(-15.7345 389.993 182.52)" stroke="white" stroke-width="2.03704"/>
</g>
</g>
<path d="M253.699 64.8047H80.8726C71.3351 64.8047 63.6035 72.5364 63.6035 82.0739V189.687C63.6035 199.225 71.3351 206.957 80.8726 206.957H253.699C263.236 206.957 270.968 199.225 270.968 189.687V82.0739C270.968 72.5364 263.236 64.8047 253.699 64.8047Z" fill="white"/>
<path d="M253.701 207.459H80.8755C76.1632 207.454 71.6453 205.58 68.3132 202.248C64.9811 198.916 63.1069 194.398 63.1016 189.685V82.0754C63.1078 77.3636 64.9823 72.8467 68.3143 69.5153C71.6464 66.1839 76.1638 64.31 80.8755 64.3047H253.701C258.413 64.31 262.93 66.184 266.261 69.5155C269.593 72.847 271.467 77.3639 271.472 82.0754V189.685C271.467 194.397 269.593 198.914 266.261 202.247C262.93 205.579 258.413 207.453 253.701 207.459ZM80.8755 65.3075C76.4295 65.312 72.1667 67.0799 69.0226 70.2234C65.8784 73.3669 64.1097 77.6293 64.1044 82.0754V189.685C64.1097 194.132 65.8784 198.395 69.0224 201.539C72.1665 204.683 76.4292 206.451 80.8755 206.457H253.701C258.148 206.451 262.41 204.683 265.553 201.538C268.697 198.394 270.465 194.131 270.469 189.685V82.0754C270.465 77.6296 268.697 73.3672 265.553 70.2236C262.41 67.08 258.147 65.312 253.701 65.3075H80.8755Z" fill="black"/>
<path d="M257.605 69.9141H84.7789C75.2413 69.9141 67.5098 77.6458 67.5098 87.1833V194.797C67.5098 204.334 75.2413 212.066 84.7789 212.066H257.605C267.142 212.066 274.874 204.334 274.874 194.797V87.1833C274.874 77.6458 267.142 69.9141 257.605 69.9141Z" fill="white"/>
<path d="M257.604 212.569H84.7784C80.0669 212.563 75.55 210.69 72.2185 207.358C68.887 204.027 67.0131 199.51 67.0078 194.798V87.1881C67.0131 82.4763 68.8869 77.959 72.2183 74.627C75.5497 71.295 80.0666 69.4203 84.7784 69.4141H257.604C262.317 69.4194 266.834 71.2937 270.166 74.6258C273.499 77.9579 275.373 82.4757 275.378 87.1881V194.798C275.372 199.51 273.498 204.027 270.166 207.358C266.833 210.69 262.316 212.563 257.604 212.569ZM84.7784 70.4169C80.3323 70.4222 76.0701 72.191 72.9265 75.3352C69.783 78.4793 68.0151 82.742 68.0107 87.1881V194.798C68.0151 199.244 69.7831 203.506 72.9267 206.65C76.0703 209.794 80.3326 211.562 84.7784 211.566H257.604C262.05 211.562 266.313 209.794 269.457 206.65C272.602 203.507 274.37 199.244 274.375 194.798V87.1881C274.37 82.7417 272.601 78.479 269.457 75.335C266.313 72.1909 262.051 70.4222 257.604 70.4169H84.7784Z" fill="black"/>
<path d="M94.7413 99.9727H86.5613C82.5125 99.9727 79.2305 103.255 79.2305 107.304V115.484C79.2305 119.532 82.5125 122.814 86.5613 122.814H94.7413C98.7901 122.814 102.072 119.532 102.072 115.484V107.304C102.072 103.255 98.7901 99.9727 94.7413 99.9727Z" fill="#ACF9B0"/>
<path d="M134.712 99.9727H126.532C122.483 99.9727 119.201 103.255 119.201 107.304V115.484C119.201 119.532 122.483 122.814 126.532 122.814H134.712C138.761 122.814 142.043 119.532 142.043 115.484V107.304C142.043 103.255 138.761 99.9727 134.712 99.9727Z" fill="#ACF9B0"/>
<path d="M175.284 99.9727H167.104C163.055 99.9727 159.773 103.255 159.773 107.304V115.484C159.773 119.532 163.055 122.814 167.104 122.814H175.284C179.333 122.814 182.615 119.532 182.615 115.484V107.304C182.615 103.255 179.333 99.9727 175.284 99.9727Z" fill="#ACF9B0"/>
<path d="M213.454 99.9727H205.274C201.226 99.9727 197.943 103.255 197.943 107.304V115.484C197.943 119.532 201.226 122.814 205.274 122.814H213.454C217.503 122.814 220.785 119.532 220.785 115.484V107.304C220.785 103.255 217.503 99.9727 213.454 99.9727Z" fill="#ACF9B0"/>
<path d="M251.318 99.9727H243.137C239.089 99.9727 235.807 103.255 235.807 107.304V115.484C235.807 119.532 239.089 122.814 243.137 122.814H251.318C255.366 122.814 258.648 119.532 258.648 115.484V107.304C258.648 103.255 255.366 99.9727 251.318 99.9727Z" fill="#ACF9B0"/>
<path d="M95.0421 136.035H86.862C82.8133 136.035 79.5312 139.317 79.5312 143.366V151.546C79.5312 155.595 82.8133 158.877 86.862 158.877H95.0421C99.0908 158.877 102.373 155.595 102.373 151.546V143.366C102.373 139.317 99.0908 136.035 95.0421 136.035Z" fill="#ACF9B0"/>
<path d="M135.013 136.035H126.833C122.784 136.035 119.502 139.317 119.502 143.366V151.546C119.502 155.595 122.784 158.877 126.833 158.877H135.013C139.062 158.877 142.344 155.595 142.344 151.546V143.366C142.344 139.317 139.062 136.035 135.013 136.035Z" fill="#ACF9B0"/>
<path d="M175.585 136.035H167.405C163.356 136.035 160.074 139.317 160.074 143.366V151.546C160.074 155.595 163.356 158.877 167.405 158.877H175.585C179.634 158.877 182.916 155.595 182.916 151.546V143.366C182.916 139.317 179.634 136.035 175.585 136.035Z" fill="#ACF9B0"/>
<path d="M213.755 136.035H205.575C201.526 136.035 198.244 139.317 198.244 143.366V151.546C198.244 155.595 201.526 158.877 205.575 158.877H213.755C217.804 158.877 221.086 155.595 221.086 151.546V143.366C221.086 139.317 217.804 136.035 213.755 136.035Z" fill="#ACF9B0"/>
<path d="M251.62 136.035H243.44C239.391 136.035 236.109 139.317 236.109 143.366V151.546C236.109 155.595 239.391 158.877 243.44 158.877H251.62C255.669 158.877 258.951 155.595 258.951 151.546V143.366C258.951 139.317 255.669 136.035 251.62 136.035Z" fill="#ACF9B0"/>
<path d="M95.0421 169.996H86.862C82.8133 169.996 79.5312 173.278 79.5312 177.327V185.507C79.5312 189.556 82.8133 192.838 86.862 192.838H95.0421C99.0908 192.838 102.373 189.556 102.373 185.507V177.327C102.373 173.278 99.0908 169.996 95.0421 169.996Z" fill="#ACF9B0"/>
<path d="M135.013 169.996H126.833C122.784 169.996 119.502 173.278 119.502 177.327V185.507C119.502 189.556 122.784 192.838 126.833 192.838H135.013C139.062 192.838 142.344 189.556 142.344 185.507V177.327C142.344 173.278 139.062 169.996 135.013 169.996Z" fill="#ACF9B0"/>
<path d="M175.585 169.996H167.405C163.356 169.996 160.074 173.278 160.074 177.327V185.507C160.074 189.556 163.356 192.838 167.405 192.838H175.585C179.634 192.838 182.916 189.556 182.916 185.507V177.327C182.916 173.278 179.634 169.996 175.585 169.996Z" fill="#ACF9B0"/>
<path d="M213.755 169.996H205.575C201.526 169.996 198.244 173.278 198.244 177.327V185.507C198.244 189.556 201.526 192.838 205.575 192.838H213.755C217.804 192.838 221.086 189.556 221.086 185.507V177.327C221.086 173.278 217.804 169.996 213.755 169.996Z" fill="#ACF9B0"/>
<path d="M251.62 169.996H243.44C239.391 169.996 236.109 173.278 236.109 177.327V185.507C236.109 189.556 239.391 192.838 243.44 192.838H251.62C255.669 192.838 258.951 189.556 258.951 185.507V177.327C258.951 173.278 255.669 169.996 251.62 169.996Z" fill="#ACF9B0"/>
<path d="M92.8805 59.6992H92.797C91.6135 59.6992 90.6543 60.6586 90.6543 61.842V78.5931C90.6543 79.7765 91.6135 80.7359 92.797 80.7359H92.8805C94.064 80.7359 95.0234 79.7765 95.0234 78.5931V61.842C95.0234 60.6586 94.064 59.6992 92.8805 59.6992Z" fill="#382256"/>
<path d="M92.88 81.2387H92.7964C92.0948 81.2378 91.4223 80.9585 90.9265 80.4621C90.4307 79.9657 90.1523 79.2928 90.1523 78.5912V61.8434C90.1532 61.1424 90.432 60.4704 90.9277 59.9747C91.4234 59.479 92.0954 59.2001 92.7964 59.1992H92.88C93.581 59.2001 94.2531 59.479 94.7488 59.9747C95.2445 60.4704 95.5234 61.1424 95.5243 61.8434V78.5912C95.5243 79.2928 95.2459 79.9657 94.7501 80.4621C94.2543 80.9585 93.5816 81.2378 92.88 81.2387ZM92.7964 60.2021C92.3611 60.2021 91.9437 60.375 91.6359 60.6828C91.3281 60.9906 91.1552 61.4081 91.1552 61.8434V78.5912C91.1552 79.0268 91.328 79.4446 91.6357 79.753C91.9435 80.0613 92.3608 80.235 92.7964 80.2359H92.88C93.3156 80.235 93.7332 80.0613 94.0409 79.753C94.3486 79.4446 94.5214 79.0268 94.5214 78.5912V61.8434C94.5214 61.4081 94.3485 60.9906 94.0407 60.6828C93.7329 60.375 93.3153 60.2021 92.88 60.2021H92.7964Z" fill="#1D1E1B"/>
<path d="M114.73 59.3984H114.647C113.463 59.3984 112.504 60.3578 112.504 61.5412V78.2923C112.504 79.4757 113.463 80.435 114.647 80.435H114.73C115.914 80.435 116.873 79.4757 116.873 78.2923V61.5412C116.873 60.3578 115.914 59.3984 114.73 59.3984Z" fill="#382256"/>
<path d="M114.73 80.9379H114.649C113.948 80.9379 113.275 80.6594 112.779 80.1636C112.282 79.6679 112.003 78.9953 112.002 78.2937V61.5426C112.003 60.841 112.282 60.1685 112.779 59.6727C113.275 59.1769 113.948 58.8984 114.649 58.8984H114.73C115.431 58.8984 116.104 59.1769 116.601 59.6727C117.097 60.1685 117.376 60.841 117.377 61.5426V78.2937C117.376 78.9953 117.097 79.6679 116.601 80.1636C116.104 80.6594 115.431 80.9379 114.73 80.9379ZM114.649 59.9013C114.214 59.9013 113.796 60.0741 113.488 60.3818C113.179 60.6895 113.006 61.107 113.005 61.5426V78.2937C113.006 78.7293 113.179 79.1468 113.488 79.4545C113.796 79.7622 114.214 79.935 114.649 79.935H114.73C115.165 79.935 115.583 79.7622 115.891 79.4545C116.2 79.1468 116.374 78.7293 116.374 78.2937V61.5426C116.374 61.107 116.2 60.6895 115.891 60.3818C115.583 60.0741 115.165 59.9013 114.73 59.9013H114.649Z" fill="#1D1E1B"/>
<path d="M136.582 59.0977H136.498C135.315 59.0977 134.355 60.057 134.355 61.2404V77.9915C134.355 79.1749 135.315 80.1343 136.498 80.1343H136.582C137.765 80.1343 138.725 79.1749 138.725 77.9915V61.2404C138.725 60.057 137.765 59.0977 136.582 59.0977Z" fill="#382256"/>
<path d="M136.581 80.6371H136.498C135.797 80.6362 135.125 80.3574 134.629 79.8617C134.133 79.366 133.854 78.694 133.854 77.9929V61.2419C133.854 60.5409 134.133 59.8688 134.629 59.3731C135.125 58.8774 135.797 58.5985 136.498 58.5977H136.581C137.282 58.5985 137.954 58.8774 138.45 59.3731C138.946 59.8688 139.225 60.5409 139.225 61.2419V77.9929C139.225 78.694 138.946 79.366 138.45 79.8617C137.954 80.3574 137.282 80.6362 136.581 80.6371ZM136.498 59.6005C136.062 59.6005 135.645 59.7734 135.337 60.0813C135.029 60.3891 134.856 60.8066 134.856 61.2419V77.9929C134.856 78.4283 135.029 78.8457 135.337 79.1535C135.645 79.4613 136.062 79.6343 136.498 79.6343H136.581C137.016 79.6343 137.434 79.4613 137.742 79.1535C138.05 78.8457 138.223 78.4283 138.223 77.9929V61.2419C138.223 60.8066 138.05 60.3891 137.742 60.0813C137.434 59.7734 137.016 59.6005 136.581 59.6005H136.498Z" fill="#1D1E1B"/>
<path d="M158.433 58.7969H158.35C157.166 58.7969 156.207 59.7562 156.207 60.9397V77.6907C156.207 78.8742 157.166 79.8335 158.35 79.8335H158.433C159.617 79.8335 160.576 78.8742 160.576 77.6907V60.9397C160.576 59.7562 159.617 58.7969 158.433 58.7969Z" fill="#382256"/>
<path d="M158.431 80.3364H158.351C157.649 80.3364 156.976 80.0579 156.48 79.5621C155.983 79.0663 155.704 78.3938 155.703 77.6922V60.9411C155.704 60.2395 155.983 59.5669 156.48 59.0711C156.976 58.5753 157.649 58.2969 158.351 58.2969H158.431C159.133 58.2969 159.805 58.5753 160.302 59.0711C160.798 59.5669 161.078 60.2395 161.078 60.9411V77.6922C161.078 78.3938 160.798 79.0663 160.302 79.5621C159.805 80.0579 159.133 80.3364 158.431 80.3364ZM158.351 59.2997C157.915 59.2997 157.497 59.4726 157.189 59.7803C156.88 60.088 156.707 60.5055 156.706 60.9411V77.6922C156.707 78.1278 156.88 78.5453 157.189 78.853C157.497 79.1607 157.915 79.3335 158.351 79.3335H158.431C158.867 79.3335 159.284 79.1607 159.593 78.853C159.901 78.5453 160.075 78.1278 160.076 77.6922V60.9411C160.075 60.5055 159.901 60.088 159.593 59.7803C159.284 59.4726 158.867 59.2997 158.431 59.2997H158.351Z" fill="#1D1E1B"/>
<path d="M180.283 59.0977H180.199C179.016 59.0977 178.057 60.057 178.057 61.2404V77.9915C178.057 79.1749 179.016 80.1343 180.199 80.1343H180.283C181.466 80.1343 182.426 79.1749 182.426 77.9915V61.2404C182.426 60.057 181.466 59.0977 180.283 59.0977Z" fill="#382256"/>
<path d="M180.282 80.6371H180.202C179.501 80.6371 178.828 80.3587 178.331 79.8629C177.835 79.3671 177.556 78.6945 177.555 77.9929V61.2419C177.556 60.5403 177.835 59.8677 178.331 59.3719C178.828 58.8761 179.501 58.5977 180.202 58.5977H180.282C180.983 58.5985 181.655 58.8774 182.151 59.3731C182.647 59.8688 182.926 60.5409 182.927 61.2419V77.9929C182.926 78.694 182.647 79.366 182.151 79.8617C181.655 80.3574 180.983 80.6362 180.282 80.6371ZM180.202 59.6005C179.767 59.6005 179.349 59.7733 179.04 60.0811C178.732 60.3888 178.558 60.8063 178.558 61.2419V77.9929C178.558 78.4286 178.732 78.846 179.04 79.1537C179.349 79.4614 179.767 79.6343 180.202 79.6343H180.282C180.718 79.6343 181.135 79.4613 181.443 79.1535C181.751 78.8457 181.924 78.4283 181.924 77.9929V61.2419C181.924 60.8066 181.751 60.3891 181.443 60.0813C181.135 59.7734 180.718 59.6005 180.282 59.6005H180.202Z" fill="#1D1E1B"/>
<path d="M202.136 59.0977H202.053C200.869 59.0977 199.91 60.057 199.91 61.2404V77.9915C199.91 79.1749 200.869 80.1343 202.053 80.1343H202.136C203.32 80.1343 204.279 79.1749 204.279 77.9915V61.2404C204.279 60.057 203.32 59.0977 202.136 59.0977Z" fill="#382256"/>
<path d="M202.136 80.6371H202.052C201.351 80.6362 200.679 80.3574 200.184 79.8617C199.688 79.366 199.409 78.694 199.408 77.9929V61.2419C199.409 60.5409 199.688 59.8688 200.184 59.3731C200.679 58.8774 201.351 58.5985 202.052 58.5977H202.136C202.837 58.5985 203.509 58.8774 204.005 59.3731C204.5 59.8688 204.779 60.5409 204.78 61.2419V77.9929C204.779 78.694 204.5 79.366 204.005 79.8617C203.509 80.3574 202.837 80.6362 202.136 80.6371ZM202.052 59.6005C201.617 59.6005 201.2 59.7734 200.892 60.0813C200.584 60.3891 200.411 60.8066 200.411 61.2419V77.9929C200.411 78.4283 200.584 78.8457 200.892 79.1535C201.2 79.4613 201.617 79.6343 202.052 79.6343H202.136C202.571 79.6343 202.989 79.4613 203.297 79.1535C203.604 78.8457 203.777 78.4283 203.777 77.9929V61.2419C203.777 60.8066 203.604 60.3891 203.297 60.0813C202.989 59.7734 202.571 59.6005 202.136 59.6005H202.052Z" fill="#1D1E1B"/>
<path d="M223.984 58.7969H223.901C222.717 58.7969 221.758 59.7562 221.758 60.9397V77.6907C221.758 78.8742 222.717 79.8335 223.901 79.8335H223.984C225.168 79.8335 226.127 78.8742 226.127 77.6907V60.9397C226.127 59.7562 225.168 58.7969 223.984 58.7969Z" fill="#382256"/>
<path d="M223.984 80.3364H223.903C223.202 80.3364 222.529 80.0579 222.032 79.5621C221.536 79.0663 221.257 78.3938 221.256 77.6922V60.9411C221.257 60.2395 221.536 59.5669 222.032 59.0711C222.529 58.5753 223.202 58.2969 223.903 58.2969H223.984C224.685 58.2969 225.358 58.5753 225.855 59.0711C226.351 59.5669 226.63 60.2395 226.631 60.9411V77.6922C226.63 78.3938 226.351 79.0663 225.855 79.5621C225.358 80.0579 224.685 80.3364 223.984 80.3364ZM223.903 59.2997C223.468 59.2997 223.05 59.4726 222.742 59.7803C222.434 60.088 222.26 60.5055 222.259 60.9411V77.6922C222.26 78.1278 222.434 78.5453 222.742 78.853C223.05 79.1607 223.468 79.3335 223.903 79.3335H223.984C224.419 79.3335 224.837 79.1607 225.146 78.853C225.454 78.5453 225.627 78.1278 225.628 77.6922V60.9411C225.627 60.5055 225.454 60.088 225.146 59.7803C224.837 59.4726 224.419 59.2997 223.984 59.2997H223.903Z" fill="#1D1E1B"/>
<path d="M245.836 59.0977H245.752C244.569 59.0977 243.609 60.057 243.609 61.2404V77.9915C243.609 79.1749 244.569 80.1343 245.752 80.1343H245.836C247.019 80.1343 247.979 79.1749 247.979 77.9915V61.2404C247.979 60.057 247.019 59.0977 245.836 59.0977Z" fill="#382256"/>
<path d="M245.835 80.6371H245.752C245.051 80.6362 244.379 80.3574 243.883 79.8617C243.387 79.366 243.108 78.694 243.107 77.9929V61.2419C243.108 60.5409 243.387 59.8688 243.883 59.3731C244.379 58.8774 245.051 58.5985 245.752 58.5977H245.835C246.536 58.5985 247.208 58.8774 247.704 59.3731C248.2 59.8688 248.479 60.5409 248.48 61.2419V77.9929C248.479 78.694 248.2 79.366 247.704 79.8617C247.208 80.3574 246.536 80.6362 245.835 80.6371ZM245.752 59.6005C245.316 59.6005 244.899 59.7734 244.591 60.0813C244.283 60.3891 244.11 60.8066 244.11 61.2419V77.9929C244.11 78.4283 244.283 78.8457 244.591 79.1535C244.899 79.4613 245.316 79.6343 245.752 79.6343H245.835C246.271 79.6343 246.688 79.4613 246.996 79.1535C247.304 78.8457 247.477 78.4283 247.477 77.9929V61.2419C247.477 60.8066 247.304 60.3891 246.996 60.0813C246.688 59.7734 246.271 59.6005 245.835 59.6005H245.752Z" fill="#1D1E1B"/>
<path d="M56.0029 88.3789H55V158.579H56.0029V88.3789Z" fill="#1D1D1B"/>
<path d="M249.217 30.4077C247.429 26.062 245.089 22.2779 242.074 19.2359C239.744 16.8988 236.67 15.45 233.384 15.1405C230.098 14.831 226.808 15.6801 224.082 17.541C218.246 21.519 213.853 27.115 210.711 34.1016C217.928 37.5046 222.816 39.7209 226.536 47.7304C231.932 37.5046 238.854 26.5099 249.217 30.4077Z" fill="white"/>
<path d="M226.54 48.2334C226.446 48.2315 226.355 48.2032 226.276 48.1517C226.198 48.1003 226.135 48.0279 226.096 47.9426C222.502 40.2072 217.849 38.0143 210.802 34.6948L210.511 34.5578C210.39 34.5012 210.297 34.3991 210.251 34.2738C210.206 34.1485 210.211 34.0103 210.267 33.8892C213.51 26.6786 218.066 21.0359 223.812 17.1214C226.634 15.191 230.042 14.3099 233.445 14.6311C236.849 14.9524 240.032 16.4556 242.442 18.8797C245.391 21.8549 247.828 25.6658 249.693 30.2121C249.733 30.3029 249.745 30.4036 249.727 30.5013C249.71 30.599 249.664 30.6894 249.596 30.7609C249.527 30.8325 249.438 30.8821 249.342 30.9034C249.245 30.9247 249.143 30.9168 249.051 30.8806C239.48 27.277 232.795 36.9646 226.988 47.9693C226.944 48.0499 226.88 48.117 226.801 48.1635C226.722 48.21 226.632 48.2342 226.54 48.2334ZM211.377 33.8591C218.013 36.988 222.89 39.3314 226.564 46.6255C232.247 35.9818 238.869 26.8424 248.322 29.5769C246.751 25.8709 244.513 22.4843 241.72 19.5851C239.475 17.3275 236.509 15.9278 233.339 15.6292C230.169 15.3306 226.995 16.1519 224.367 17.9504C218.895 21.6877 214.526 27.0363 211.377 33.8591Z" fill="#1D1D1B"/>
<path d="M226.82 16.0933C226.82 16.0933 232.583 16.2504 234.218 20.2786C234.218 20.2786 238.199 15.7557 241.382 18.577C241.368 18.577 235.391 12.6635 226.82 16.0933Z" fill="#4BD657"/>
<path d="M234.044 21.2165L233.74 20.4677C232.249 16.7905 226.846 16.5933 226.793 16.5933L224.383 16.5231L226.619 15.6272C235.411 12.0972 241.662 18.1578 241.722 18.218L241.054 18.9501C240.761 18.6733 240.414 18.4599 240.035 18.3236C239.656 18.1873 239.253 18.1308 238.851 18.1578C236.668 18.2915 234.619 20.5881 234.595 20.6115L234.044 21.2165ZM229.03 15.9013C230.785 16.3092 233.141 17.2385 234.378 19.418C235.17 18.6726 236.782 17.3756 238.587 17.175C235.678 15.5373 232.252 15.0812 229.016 15.9013H229.03Z" fill="black"/>
<path d="M226.123 20.9688C226.123 20.9688 232.441 22.4029 234.146 28.1426L226.123 20.9688Z" fill="white"/>
<path d="M234.175 28.6474C234.067 28.6476 233.962 28.613 233.875 28.5485C233.788 28.4841 233.724 28.3933 233.693 28.2898C232.079 22.9044 226.085 21.4703 226.025 21.457C225.961 21.4423 225.9 21.415 225.846 21.3768C225.792 21.3386 225.747 21.2902 225.712 21.2343C225.677 21.1785 225.653 21.1162 225.642 21.0512C225.631 20.9861 225.633 20.9196 225.647 20.8552C225.662 20.7909 225.689 20.7301 225.727 20.6763C225.766 20.6226 225.814 20.5768 225.87 20.5418C225.926 20.5067 225.988 20.4829 226.053 20.4719C226.118 20.4609 226.185 20.4628 226.249 20.4775C226.516 20.541 232.868 22.0486 234.653 27.9989C234.691 28.1262 234.678 28.2635 234.615 28.3807C234.553 28.4979 234.446 28.5854 234.319 28.624C234.272 28.6381 234.224 28.6459 234.175 28.6474Z" fill="#1D1D1B"/>
<path d="M221.244 26.4219C221.244 26.4219 227.846 26.9968 228.705 33.024L221.244 26.4219Z" fill="white"/>
<path d="M228.705 33.525C228.585 33.5246 228.469 33.4808 228.378 33.4016C228.287 33.3224 228.228 33.2131 228.211 33.0938C227.415 27.5413 221.452 26.9429 221.191 26.9229C221.125 26.9169 221.061 26.8981 221.002 26.8674C220.944 26.8367 220.892 26.7948 220.849 26.7441C220.807 26.6933 220.775 26.6347 220.755 26.5716C220.736 26.5085 220.729 26.4421 220.734 26.3763C220.74 26.3104 220.759 26.2464 220.79 26.1878C220.821 26.1293 220.863 26.0773 220.913 26.0349C220.964 25.9926 221.023 25.9606 221.086 25.9409C221.149 25.9212 221.215 25.9141 221.281 25.92C221.351 25.92 228.301 26.5886 229.197 32.94C229.215 33.072 229.18 33.2059 229.1 33.3123C229.02 33.4188 228.901 33.4892 228.769 33.5083L228.705 33.525Z" fill="#1D1D1B"/>
<path d="M211.486 23.7692C211.416 23.7697 211.348 23.7548 211.285 23.7258C211.224 23.6993 211.168 23.6609 211.122 23.6128C211.076 23.5647 211.04 23.5079 211.016 23.4456C210.992 23.3833 210.981 23.3169 210.983 23.2502C210.985 23.1835 211 23.1179 211.028 23.0572C211.081 22.9369 216.443 11.0229 228.628 8.98711C228.761 8.96539 228.897 8.9974 229.006 9.07607C229.116 9.15475 229.189 9.27366 229.211 9.40665C229.233 9.53963 229.201 9.67581 229.122 9.78521C229.044 9.8946 228.925 9.96825 228.792 9.98997C217.152 11.9288 211.997 23.3614 211.944 23.4751C211.904 23.5632 211.84 23.638 211.758 23.6902C211.677 23.7425 211.582 23.7699 211.486 23.7692Z" fill="#1D1D1B"/>
<path d="M291.674 113.485C294.532 119.836 298.176 125.302 302.779 129.651C306.337 132.992 310.95 134.984 315.822 135.282C320.693 135.581 325.516 134.167 329.455 131.285C337.889 125.118 344.11 116.63 348.412 106.15C337.575 101.47 330.247 98.435 324.344 86.7617C316.893 102.156 307.171 118.746 291.674 113.485Z" fill="white"/>
<path d="M317.08 135.831C311.633 135.839 306.39 133.757 302.432 130.015C297.949 125.783 294.178 120.29 291.213 113.692C291.174 113.602 291.161 113.503 291.176 113.406C291.192 113.31 291.235 113.22 291.3 113.147C291.366 113.075 291.451 113.023 291.545 112.999C291.64 112.975 291.739 112.978 291.831 113.01C306.333 117.934 315.813 103.205 323.9 86.5543C323.941 86.4704 324.004 86.3996 324.084 86.35C324.163 86.3004 324.254 86.2739 324.348 86.2734C324.44 86.274 324.531 86.2998 324.61 86.3482C324.689 86.3965 324.753 86.4654 324.796 86.5476C330.525 97.8866 337.542 100.922 348.166 105.502L348.603 105.692C348.724 105.744 348.819 105.841 348.869 105.962C348.919 106.083 348.92 106.219 348.871 106.341C344.445 117.118 338.01 125.646 329.743 131.69C326.069 134.381 321.634 135.832 317.08 135.831ZM292.61 114.287C295.445 120.304 298.979 125.351 303.134 129.276C306.603 132.541 311.107 134.489 315.863 134.78C320.618 135.071 325.326 133.688 329.168 130.871C337.167 125.021 343.425 116.794 347.771 106.408C337.612 102.022 330.201 98.8192 324.371 87.878C316.381 104.171 306.965 118.335 292.61 114.287Z" fill="#1D1D1B"/>
<path d="M325.51 133.557C325.51 133.557 316.982 133.607 314.368 127.73C314.368 127.73 308.705 134.61 303.861 130.595C303.861 130.595 312.987 139.069 325.51 133.557Z" fill="#4BD657"/>
<path d="M317.043 135.908C312.102 135.86 307.328 134.114 303.521 130.964L304.19 130.212C304.662 130.625 305.214 130.938 305.811 131.13C306.408 131.323 307.038 131.391 307.663 131.331C310.979 131.017 313.961 127.447 313.991 127.41L314.506 126.785L314.84 127.527C317.294 133.043 325.447 133.06 325.521 133.056H327.941L325.725 134.032C322.994 135.259 320.036 135.898 317.043 135.908ZM307.329 132.354C309.734 133.707 312.395 134.542 315.142 134.805C317.888 135.068 320.66 134.754 323.278 133.882C320.623 133.501 316.308 132.311 314.252 128.614C313.202 129.713 310.658 132.053 307.753 132.328C307.61 132.338 307.469 132.338 307.329 132.354Z" fill="black"/>
<path d="M326.281 126.317C326.281 126.317 316.877 124.502 314.053 116.102L326.281 126.317Z" fill="white"/>
<path d="M326.282 126.816C326.251 126.82 326.219 126.82 326.188 126.816C325.79 126.743 316.463 124.851 313.575 116.27C313.531 116.143 313.539 116.004 313.597 115.884C313.655 115.763 313.758 115.67 313.885 115.626C314.011 115.582 314.15 115.589 314.27 115.647C314.391 115.705 314.484 115.809 314.528 115.935C317.229 123.958 326.285 125.803 326.379 125.82C326.512 125.833 326.634 125.898 326.719 126.001C326.804 126.104 326.844 126.237 326.831 126.37C326.819 126.503 326.753 126.626 326.65 126.71C326.547 126.795 326.415 126.836 326.282 126.823V126.816Z" fill="#1D1D1B"/>
<path d="M333.231 118.018C333.231 118.018 323.443 117.493 321.865 108.621L333.231 118.018Z" fill="white"/>
<path d="M333.231 118.519H333.205C333.101 118.519 322.999 117.85 321.381 108.711C321.357 108.578 321.388 108.441 321.465 108.331C321.542 108.22 321.661 108.145 321.794 108.121C321.927 108.098 322.063 108.128 322.174 108.205C322.285 108.283 322.36 108.401 322.384 108.534C323.861 116.891 332.887 117.496 333.271 117.516C333.404 117.52 333.531 117.576 333.622 117.672C333.714 117.769 333.763 117.898 333.76 118.031C333.756 118.164 333.7 118.29 333.603 118.382C333.507 118.473 333.378 118.523 333.245 118.519H333.231Z" fill="#1D1D1B"/>
<path d="M305.069 105.449C304.958 105.449 304.851 105.413 304.763 105.346C304.675 105.279 304.612 105.184 304.583 105.077C304.555 104.971 304.562 104.858 304.605 104.756C304.647 104.653 304.722 104.568 304.818 104.513C314.96 98.6832 317.424 86.796 317.447 86.689C317.474 86.5585 317.551 86.4438 317.662 86.3699C317.773 86.296 317.908 86.269 318.039 86.2946C318.164 86.3234 318.274 86.3998 318.344 86.5076C318.414 86.6155 318.441 86.7464 318.417 86.8729C318.393 86.9966 315.849 99.3083 305.306 105.372C305.234 105.416 305.153 105.443 305.069 105.449Z" fill="#1D1D1B"/>
<path d="M107.144 216.259C108.397 216.039 109.234 214.844 109.014 213.589C108.794 212.334 107.6 211.496 106.347 211.715C105.094 211.935 104.257 213.13 104.477 214.385C104.697 215.64 105.891 216.479 107.144 216.259Z" fill="#51CEF4"/>
<path d="M242.395 141.762C242.395 141.762 246.971 154.211 255.205 148.982C263.438 143.754 276.823 136.38 285.879 148.257C294.935 160.134 299.919 168.876 309.947 165.747C319.976 162.618 341.166 189.595 316.533 205.721C276.161 232.156 221.652 160.906 221.652 160.906L227.669 151.637L242.395 141.762Z" fill="#382256"/>
<path d="M242.394 141.761C242.394 141.761 245.52 150.266 251.253 150.266C252.666 150.226 254.038 149.781 255.204 148.982C260.178 145.82 267.044 141.875 273.693 141.875C278.039 141.875 282.298 143.547 285.878 148.257C293.673 158.482 298.464 166.385 306.045 166.385C307.374 166.372 308.693 166.157 309.957 165.747C310.511 165.576 311.088 165.491 311.668 165.496C322.134 165.496 339.848 190.464 316.542 205.72C310.697 209.596 303.832 211.644 296.819 211.604C260.449 211.604 221.665 160.906 221.665 160.906L227.682 151.636L242.391 141.761H242.394ZM242.889 140.22L241.832 140.929L227.124 150.804L226.953 150.918L226.843 151.091L220.826 160.361L220.441 160.956L220.873 161.518C228.164 170.675 236.215 179.201 244.941 187.004C253.268 194.415 261.452 200.322 269.261 204.564C279.085 209.912 288.358 212.607 296.826 212.607C304.027 212.636 311.076 210.529 317.08 206.553C322.472 203.026 326.089 198.757 327.834 193.87C329.322 189.711 329.392 185.115 328.041 180.585C326.736 176.276 324.363 172.366 321.142 169.22C318.036 166.211 314.58 164.48 311.658 164.48C310.979 164.477 310.303 164.576 309.652 164.774C308.487 165.156 307.269 165.356 306.042 165.369C299.931 165.369 295.569 159.525 289.528 151.436C288.616 150.209 287.67 148.945 286.67 147.635C283.244 143.139 278.875 140.859 273.69 140.859C267.004 140.859 260.318 144.536 254.662 148.123C253.655 148.815 252.471 149.206 251.249 149.249C246.288 149.249 243.36 141.481 243.33 141.4L242.889 140.207V140.22Z" fill="#1D1E1B"/>
<path d="M227.668 151.633L242.377 141.758C242.377 141.758 244.633 147.895 248.825 149.741C247.311 155.046 243.443 158.432 237.837 160.418C237.837 160.418 257.41 169.266 265.81 178.419C271.46 184.573 294.315 212.85 283.069 209.401C273.077 206.342 263.296 200.408 254.578 193.713C243.313 178.7 230.319 161.37 225.525 154.915L227.668 151.633Z" fill="#050505"/>
<path d="M223.314 170.948C223.314 170.948 211.46 212.817 172.195 239.159C142.631 258.999 143.637 255.736 129.871 248.83C117.837 242.783 97.211 214.629 99.0797 204.798C100.948 194.966 108.079 194.485 108.079 194.485L107.992 186.893L133.732 180.953L134.912 185.937C134.912 185.937 145.121 187.365 146.164 196.581C147.207 205.797 150.764 218.012 148.781 222.99C148.781 222.99 157.175 181.595 211.962 163.918" fill="#07ACEE"/>
<path d="M143.222 254.685C139.9 254.685 137.189 253.241 133.251 251.151C132.181 250.583 130.971 249.938 129.647 249.276C123.964 246.421 115.794 238.275 108.848 228.524C101.54 218.258 97.7027 209.352 98.5885 204.702C100.223 196.091 105.893 194.376 107.574 194.055L107.484 186.49L134.093 180.346L135.31 185.498C137.138 185.862 145.673 188.008 146.649 196.529C146.983 199.444 147.568 202.713 148.143 205.889C148.925 210.211 149.681 214.387 149.835 217.79C152.205 211.396 155.424 205.351 159.405 199.815C164.776 192.334 171.271 185.727 178.66 180.229C188.097 173.156 199.242 167.526 211.791 163.465L212.099 164.421C183.955 173.5 168.371 188.974 160.251 200.353C153.528 209.777 150.674 218.027 149.691 221.443C149.605 222.044 149.451 222.633 149.233 223.198L148.277 222.914C148.277 222.891 148.407 222.296 148.708 221.243C149.25 217.633 148.19 211.766 147.157 206.066C146.579 202.891 145.984 199.605 145.653 196.653C144.667 187.938 135.23 186.507 134.828 186.45L134.494 186.404L133.354 181.566L108.487 187.289L108.577 194.951L108.102 194.985C107.828 195.005 101.33 195.58 99.5612 204.89C98.7422 209.212 102.61 218.044 109.657 227.955C116.513 237.583 124.532 245.606 130.085 248.394C131.422 249.062 132.636 249.707 133.709 250.279C143.881 255.681 145.442 256.51 171.904 238.756C192.098 225.208 204.861 207.464 212.018 194.965C219.774 181.409 222.793 170.926 222.823 170.822L223.785 171.097C223.755 171.2 220.717 181.794 212.904 195.436C205.694 208.035 192.827 225.926 172.456 239.589C155.731 250.811 148.661 254.685 143.222 254.685Z" fill="#1D1D1B"/>
<path d="M142.584 253.684H146.706C149.637 252.908 153.264 251.153 158.389 248.071L170.46 209.691C151.202 222.528 142.584 253.684 142.584 253.684Z" fill="#0598C6"/>
<path d="M134.303 186.466C134.303 186.466 130.088 198.807 108.275 194.936L108.369 187.448L132.979 181.695L134.303 186.466Z" fill="#0598C6"/>
<path d="M172.445 207.097C147.905 237.724 150.486 283.508 150.486 283.508L274.713 284.845C274.713 284.845 273.58 163.219 223.414 165.348" fill="#07ACEE"/>
<path d="M274.713 285.348L150.486 284.011C150.358 284.01 150.236 283.961 150.143 283.874C150.051 283.786 149.995 283.667 149.987 283.54C149.987 283.426 149.369 271.863 151.773 256.71C153.992 242.713 159.314 222.693 172.057 206.784C172.14 206.68 172.261 206.614 172.394 206.6C172.526 206.585 172.659 206.624 172.762 206.707C172.866 206.79 172.932 206.912 172.947 207.044C172.961 207.176 172.922 207.309 172.839 207.413C160.237 223.141 154.968 242.974 152.765 256.843C151.367 265.494 150.766 274.254 150.97 283.015L274.208 284.352C273.82 269.404 272.49 254.495 270.227 239.715C266.77 217.612 259.53 188.315 244.754 174.268C238.523 168.355 231.356 165.526 223.437 165.861C223.304 165.865 223.175 165.817 223.077 165.727C222.979 165.637 222.921 165.512 222.915 165.379C222.912 165.314 222.921 165.248 222.944 165.186C222.966 165.124 223 165.067 223.045 165.018C223.089 164.969 223.143 164.93 223.203 164.903C223.263 164.875 223.328 164.86 223.393 164.858C231.587 164.524 239.011 167.432 245.456 173.549C252.092 179.851 257.785 189.635 262.378 202.632C266.055 212.995 269.017 225.427 271.23 239.578C273.54 254.568 274.88 269.693 275.241 284.857C275.242 284.923 275.23 284.989 275.205 285.05C275.18 285.111 275.143 285.167 275.096 285.214C275.05 285.261 274.994 285.299 274.933 285.324C274.872 285.349 274.806 285.362 274.74 285.361L274.713 285.348Z" fill="#1D1D1B"/>
<path d="M235.012 166.27C235.012 166.27 284.389 187.918 294.481 234.113C302.08 268.895 299.308 269.323 287.829 279.593C277.8 288.582 244.134 294.856 235.68 289.507C227.226 284.159 229.396 277.35 229.396 277.35L222.299 274.645L226.22 248.531L231.291 249.266C231.291 249.266 236.366 240.29 245.331 242.707C254.297 245.124 266.953 246.294 270.864 249.968" fill="#07ACEE"/>
<path d="M246.188 291.979C241.682 291.979 237.74 291.404 235.407 289.93C227.999 285.25 228.484 279.343 228.802 277.662L221.738 274.968L225.793 247.961L231.031 248.719C232.034 247.152 237.176 239.988 245.446 242.221C248.281 242.983 251.54 243.635 254.689 244.26C261.752 245.667 268.421 246.998 271.193 249.609L270.504 250.337C267.943 247.93 261.107 246.57 254.495 245.253C251.326 244.621 248.05 243.969 245.185 243.194C236.701 240.907 231.77 249.431 231.72 249.515L231.553 249.816L226.636 249.104L222.851 274.326L230.012 277.057L229.865 277.508C229.784 277.772 227.933 284.027 235.942 289.088C239.71 291.471 249.571 291.608 261.064 289.439C272.8 287.222 282.929 283.308 287.496 279.223L289.043 277.846C299.072 268.954 301.171 267.102 293.991 234.225C288.813 210.514 273.011 193.442 260.666 183.28C247.268 172.248 234.926 166.789 234.812 166.732L235.213 165.816C235.337 165.87 247.779 171.382 261.288 182.487C269.22 189.009 275.969 196.16 281.345 203.738C288.071 213.225 292.657 223.407 294.974 234.011C298.801 251.524 299.841 259.714 298.958 265.307C298.019 271.24 294.89 273.998 289.712 278.598L288.168 279.972C282.555 284.986 270.584 288.663 261.254 290.425C256.434 291.324 250.988 291.976 246.188 291.979Z" fill="#1D1D1B"/>
<path d="M231.556 250.006C231.556 250.006 241.485 258.457 229.885 277.324L222.955 274.489L226.632 249.484L231.556 250.006Z" fill="#0598C6"/>
<path d="M214.586 161.664C212.235 162.721 210.347 164.594 209.27 166.936C207.221 171.439 209.939 178.636 220.636 174.959C220.636 174.959 224.404 183.256 234.676 179.304C243.368 175.961 242.699 170.656 236.09 167.584C230.364 164.923 214.586 161.664 214.586 161.664Z" fill="white"/>
<path d="M229.476 180.871C223.904 180.871 221.146 176.859 220.397 175.569C214.045 177.635 211.013 175.686 209.77 174.315C208.015 172.383 207.63 169.335 208.814 166.73C209.94 164.265 211.929 162.297 214.406 161.198L214.547 161.145L214.69 161.175C215.336 161.308 230.589 164.477 236.305 167.132C239.765 168.743 241.704 170.999 241.624 173.326C241.54 175.84 239.137 178.13 234.858 179.774C233.147 180.468 231.322 180.839 229.476 180.871ZM220.905 174.339L221.095 174.753C221.239 175.088 224.806 182.566 234.497 178.838C238.375 177.347 240.551 175.378 240.621 173.292C240.688 171.387 238.949 169.472 235.881 168.044C230.569 165.574 216.285 162.532 214.64 162.188C212.477 163.219 210.741 164.972 209.73 167.145C208.707 169.391 209.021 172.002 210.512 173.643C212.417 175.739 215.954 176.04 220.474 174.486L220.905 174.339Z" fill="#1D1E1B"/>
<path d="M128.015 202.622C129.268 202.403 130.105 201.207 129.885 199.952C129.665 198.698 128.471 197.859 127.218 198.079C125.965 198.298 125.128 199.494 125.348 200.748C125.568 202.003 126.762 202.842 128.015 202.622Z" fill="#51CEF4"/>
<path d="M136.722 242.552C137.975 242.332 138.812 241.137 138.592 239.882C138.372 238.627 137.178 237.788 135.925 238.008C134.672 238.228 133.835 239.423 134.055 240.678C134.275 241.933 135.469 242.772 136.722 242.552Z" fill="#51CEF4"/>
<path d="M128.04 222.251C129.293 222.032 130.13 220.836 129.91 219.581C129.69 218.327 128.496 217.488 127.243 217.708C125.99 217.927 125.153 219.123 125.373 220.377C125.593 221.632 126.787 222.471 128.04 222.251Z" fill="#51CEF4"/>
<path d="M290.189 254.026C290.444 252.78 289.64 251.562 288.392 251.306C287.144 251.05 285.925 251.853 285.67 253.099C285.414 254.345 286.219 255.563 287.467 255.819C288.714 256.075 289.933 255.272 290.189 254.026Z" fill="#51CEF4"/>
<path d="M251.289 200.687C251.384 199.418 250.43 198.313 249.16 198.218C247.89 198.124 246.783 199.075 246.689 200.344C246.594 201.612 247.547 202.717 248.818 202.812C250.088 202.907 251.195 201.955 251.289 200.687Z" fill="#51CEF4"/>
<path d="M249.396 286.261C249.651 285.014 248.847 283.797 247.599 283.541C246.351 283.285 245.132 284.088 244.877 285.334C244.621 286.58 245.426 287.797 246.674 288.053C247.921 288.309 249.14 287.507 249.396 286.261Z" fill="#51CEF4"/>
<path d="M270.38 268.698C270.636 267.452 269.831 266.234 268.584 265.978C267.336 265.722 266.117 266.525 265.861 267.771C265.606 269.017 266.41 270.235 267.658 270.491C268.906 270.747 270.125 269.944 270.38 268.698Z" fill="#51CEF4"/>
<path d="M275.891 220.812C277.163 220.812 278.194 219.78 278.194 218.506C278.194 217.232 277.163 216.199 275.891 216.199C274.619 216.199 273.588 217.232 273.588 218.506C273.588 219.78 274.619 220.812 275.891 220.812Z" fill="#51CEF4"/>
<path d="M163.577 268.277C164.849 268.277 165.88 267.244 165.88 265.971C165.88 264.697 164.849 263.664 163.577 263.664C162.305 263.664 161.273 264.697 161.273 265.971C161.273 267.244 162.305 268.277 163.577 268.277Z" fill="#51CEF4"/>
<path d="M226.59 220.953C226.951 220.616 227.195 220.171 227.284 219.684C227.374 219.197 227.304 218.694 227.085 218.25C226.867 217.806 226.512 217.444 226.072 217.217C225.632 216.99 225.131 216.911 224.642 216.991C224.154 217.071 223.704 217.307 223.36 217.662C223.015 218.017 222.794 218.474 222.729 218.965C222.664 219.455 222.758 219.954 222.999 220.387C223.239 220.819 223.612 221.163 224.063 221.368C224.478 221.555 224.939 221.616 225.389 221.542C225.838 221.469 226.256 221.264 226.59 220.953Z" fill="#51CEF4"/>
<path d="M198.252 190.512C199.524 190.512 200.556 189.479 200.556 188.205C200.556 186.931 199.524 185.898 198.252 185.898C196.98 185.898 195.949 186.931 195.949 188.205C195.949 189.479 196.98 190.512 198.252 190.512Z" fill="#51CEF4"/>
<path d="M244.374 261.842C244.63 260.596 243.826 259.379 242.578 259.123C241.33 258.867 240.111 259.669 239.855 260.915C239.6 262.162 240.404 263.379 241.652 263.635C242.9 263.891 244.119 263.088 244.374 261.842Z" fill="#51CEF4"/>
<path d="M100.525 191.406C109.273 191.927 117.47 191.042 124.991 188.448C130.781 186.429 135.683 182.452 138.85 177.202C142.018 171.953 143.251 165.761 142.337 159.699C140.379 146.715 134.545 134.845 125.376 123.957C113.86 133.3 106.208 139.699 89.791 139.478C102.574 156.737 115.397 177.216 100.525 191.406Z" fill="white"/>
<path d="M105.181 192.049C103.643 192.049 102.083 192.002 100.501 191.909C100.403 191.901 100.309 191.866 100.231 191.807C100.153 191.747 100.093 191.667 100.06 191.575C100.026 191.483 100.02 191.384 100.042 191.289C100.064 191.194 100.113 191.107 100.183 191.04C114.176 177.688 103.269 158.5 89.3958 139.757C89.34 139.682 89.3062 139.592 89.2986 139.499C89.2909 139.406 89.3095 139.312 89.3523 139.229C89.3934 139.145 89.458 139.075 89.538 139.027C89.6181 138.979 89.7103 138.955 89.8036 138.958C105.809 139.172 113.287 133.108 124.6 123.915L125.068 123.537C125.17 123.455 125.3 123.416 125.431 123.428C125.561 123.441 125.682 123.504 125.766 123.604C135.18 134.786 140.923 146.894 142.838 159.597C143.783 165.778 142.532 172.095 139.303 177.45C136.073 182.805 131.069 186.859 125.161 188.907C119.131 191 112.428 192.049 105.181 192.049ZM101.677 190.966C110.168 191.354 117.95 190.348 124.827 187.958C130.514 185.986 135.331 182.084 138.44 176.93C141.549 171.775 142.752 165.694 141.842 159.744C139.973 147.375 134.414 135.555 125.308 124.624L125.228 124.691C113.983 133.817 106.475 139.911 90.7965 139.951C104.379 158.46 114.808 177.327 101.677 190.966Z" fill="#1D1D1B"/>
<path d="M142.584 165.43C142.584 165.43 137.677 174.954 129.607 174.455C129.607 174.455 133.976 184.768 126.686 187.827C126.672 187.8 141.421 182.569 142.584 165.43Z" fill="#4BD657"/>
<path d="M126.84 188.274L126.479 187.338C127.23 187.047 127.914 186.605 128.489 186.04C129.064 185.475 129.517 184.799 129.821 184.052C131.423 180.121 129.153 174.692 129.136 174.622L128.822 173.877L129.631 173.927C137.263 174.408 142.083 165.275 142.13 165.182L143.236 163.039L143.076 165.446C141.916 182.732 126.99 188.221 126.84 188.274ZM130.329 174.95C130.921 176.621 132.158 180.967 130.747 184.427C130.62 184.744 130.469 185.051 130.296 185.346C134.364 182.742 140.438 177.323 141.842 167.562C139.98 170.276 135.986 174.896 130.329 174.95Z" fill="black"/>
<path d="M137.987 154.481C137.774 154.48 137.569 154.398 137.414 154.252C137.259 154.105 137.166 153.905 137.154 153.692C136.743 146.241 125.979 131.094 125.869 130.944C125.805 130.854 125.759 130.753 125.735 130.646C125.71 130.539 125.706 130.429 125.724 130.32C125.742 130.212 125.781 130.108 125.839 130.015C125.898 129.922 125.973 129.841 126.063 129.777C126.152 129.713 126.253 129.668 126.36 129.643C126.467 129.618 126.578 129.614 126.686 129.632C126.795 129.65 126.898 129.69 126.992 129.748C127.085 129.806 127.165 129.882 127.229 129.971C127.684 130.606 138.385 145.666 138.822 153.598C138.829 153.708 138.813 153.818 138.777 153.922C138.741 154.026 138.685 154.121 138.611 154.203C138.538 154.285 138.449 154.352 138.35 154.4C138.251 154.447 138.143 154.475 138.034 154.481H137.987Z" fill="white"/>
<path d="M69.541 233.959C69.4238 233.959 69.3104 233.918 69.2202 233.843C69.1301 233.768 69.069 233.664 69.0475 233.549C69.0261 233.434 69.0457 233.315 69.1029 233.213C69.16 233.111 69.2511 233.032 69.3604 232.989C92.7036 223.894 103.735 210.666 108.88 201.169C114.439 190.91 114.502 182.726 114.502 182.646C114.502 182.513 114.555 182.385 114.649 182.291C114.743 182.197 114.871 182.145 115.004 182.145C115.137 182.145 115.264 182.197 115.358 182.291C115.452 182.385 115.505 182.513 115.505 182.646C115.505 182.98 115.438 191.167 109.762 201.647C104.537 211.291 93.3488 224.713 69.7215 233.925C69.664 233.948 69.6027 233.959 69.541 233.959Z" fill="#1D1E1B"/>
<path d="M98.9577 232.624C98.8492 232.623 98.7439 232.587 98.6574 232.522C98.5709 232.456 98.508 232.364 98.4782 232.26C98.4484 232.156 98.4534 232.044 98.4922 231.943C98.5311 231.842 98.6017 231.756 98.6936 231.698C112.697 222.986 118.32 210.658 120.569 201.849C123.013 192.279 122.124 184.667 122.114 184.594C122.106 184.528 122.111 184.462 122.129 184.398C122.146 184.335 122.176 184.276 122.217 184.224C122.258 184.172 122.308 184.129 122.366 184.096C122.423 184.064 122.486 184.043 122.552 184.035C122.617 184.027 122.683 184.032 122.747 184.049C122.81 184.066 122.869 184.096 122.921 184.136C122.973 184.177 123.017 184.227 123.049 184.284C123.081 184.341 123.102 184.405 123.11 184.47C123.11 184.547 124.033 192.312 121.549 202.057C119.259 211.059 113.526 223.655 99.2218 232.547C99.1433 232.598 99.0514 232.625 98.9577 232.624Z" fill="#1D1E1B"/>
<path d="M103.804 186.495C103.804 186.495 94.3271 189.169 89.5402 178.974C84.7532 168.778 83.4963 157.873 88.8014 150.967C94.1065 144.061 100.856 143.238 105.422 145.05C109.988 146.862 111.081 151.666 107.672 156.911C107.672 156.911 114.892 161.551 108.34 170.423C111.315 171.285 114.324 179.976 105.8 181.815C105.581 183.53 104.89 185.15 103.804 186.495Z" fill="#FFCDB2"/>
<path d="M101.08 187.291C97.7668 187.291 92.3414 186.115 89.0855 179.188C83.7168 167.762 83.4594 157.099 88.4169 150.66C94.0229 143.363 101.187 142.825 105.619 144.586C107.769 145.439 109.236 146.926 109.858 148.882C110.597 151.199 110.062 153.99 108.357 156.785C109.967 158.065 111.071 159.875 111.473 161.892C111.951 164.483 111.162 167.281 109.133 170.213C110.747 171.142 111.991 173.703 111.904 176.146C111.8 179.155 109.751 181.368 106.271 182.227C105.989 183.904 105.28 185.48 104.212 186.803L104.112 186.934L103.954 186.977C103.013 187.198 102.047 187.304 101.08 187.291ZM100.953 144.713C97.222 144.713 92.9096 146.442 89.1991 151.272C84.489 157.406 84.7864 167.682 89.9946 178.76C94.2635 187.84 102.253 186.352 103.513 186.051C104.484 184.805 105.105 183.322 105.312 181.756L105.355 181.401L105.689 181.324C110.079 180.378 110.821 177.647 110.878 176.11C110.961 173.643 109.507 171.286 108.203 170.905L107.511 170.704L107.939 170.126C110.062 167.244 110.911 164.54 110.466 162.103C110.071 160.19 108.974 158.494 107.391 157.349L106.97 157.075L107.24 156.654C108.979 153.98 109.56 151.339 108.879 149.203C108.35 147.531 107.087 146.271 105.228 145.526C103.867 144.987 102.416 144.711 100.953 144.71V144.713Z" fill="black"/>
<path d="M91.9536 161.594C91.8312 161.596 91.7123 161.554 91.6193 161.474C91.5183 161.387 91.4556 161.264 91.445 161.131C91.4343 160.999 91.4766 160.867 91.5625 160.765C91.6294 160.692 98.1681 153.224 108.852 156.59C108.974 156.633 109.075 156.722 109.134 156.839C109.192 156.955 109.202 157.089 109.163 157.213C109.124 157.338 109.039 157.442 108.924 157.504C108.81 157.566 108.676 157.581 108.551 157.546C98.5224 154.384 92.5721 161.13 92.3248 161.417C92.2794 161.472 92.2227 161.516 92.1586 161.546C92.0945 161.577 92.0246 161.593 91.9536 161.594Z" fill="#1D1D1B"/>
<path d="M94.852 171.786C94.7338 171.787 94.6191 171.746 94.5283 171.67C94.4375 171.594 94.3763 171.489 94.3555 171.373C94.3347 171.256 94.3557 171.137 94.4147 171.034C94.4737 170.932 94.5671 170.854 94.6782 170.813C95.0125 170.693 102.818 167.878 108.624 170.021C108.693 170.037 108.757 170.068 108.813 170.111C108.869 170.154 108.915 170.208 108.949 170.269C108.982 170.331 109.003 170.4 109.008 170.47C109.014 170.54 109.004 170.611 108.98 170.677C108.957 170.743 108.92 170.804 108.871 170.855C108.823 170.906 108.764 170.946 108.699 170.973C108.633 170.999 108.563 171.012 108.493 171.01C108.423 171.008 108.354 170.991 108.29 170.96C102.835 168.955 95.1127 171.726 95.0358 171.756C94.9769 171.777 94.9146 171.787 94.852 171.786Z" fill="#1D1D1B"/>
<path d="M101.267 183.107C99.978 183.143 98.6994 182.863 97.5432 182.292C97.4826 182.262 97.4285 182.221 97.3843 182.17C97.34 182.119 97.3065 182.059 97.2858 181.995C97.2651 181.931 97.2577 181.863 97.2638 181.796C97.2699 181.728 97.2896 181.663 97.3216 181.604C97.3536 181.544 97.3972 181.492 97.4499 181.45C97.5026 181.407 97.5633 181.376 97.6283 181.358C97.6933 181.34 97.7615 181.335 97.8284 181.344C97.8953 181.353 97.9597 181.375 98.0179 181.409C101.053 183.037 105.93 181.286 105.977 181.269C106.04 181.241 106.108 181.227 106.177 181.227C106.246 181.226 106.315 181.24 106.378 181.268C106.441 181.295 106.498 181.335 106.545 181.386C106.592 181.436 106.628 181.495 106.651 181.56C106.674 181.625 106.684 181.694 106.679 181.763C106.674 181.832 106.655 181.899 106.623 181.96C106.591 182.021 106.547 182.075 106.494 182.118C106.44 182.162 106.378 182.193 106.312 182.212C104.687 182.773 102.985 183.075 101.267 183.107Z" fill="#1D1D1B"/>
<path d="M88.2939 157.248C88.2136 157.249 88.1336 157.237 88.0565 157.215C87.9511 157.184 87.8528 157.132 87.7673 157.063C87.6818 156.994 87.6109 156.909 87.5584 156.812C87.5059 156.715 87.4731 156.609 87.4616 156.5C87.4501 156.391 87.4603 156.28 87.4916 156.175C87.5652 155.931 89.3202 150.181 94.5952 147.343C97.898 145.565 101.812 145.337 106.228 146.675C106.338 146.703 106.44 146.752 106.53 146.821C106.619 146.89 106.694 146.976 106.749 147.074C106.805 147.172 106.84 147.281 106.852 147.393C106.864 147.505 106.854 147.619 106.821 147.727C106.788 147.835 106.734 147.935 106.662 148.022C106.589 148.108 106.5 148.179 106.399 148.23C106.298 148.281 106.188 148.311 106.076 148.318C105.963 148.326 105.85 148.31 105.744 148.272C101.769 147.066 98.2823 147.243 95.3806 148.804C90.7006 151.318 89.1029 156.586 89.0862 156.64C89.0377 156.813 88.9342 156.966 88.7914 157.076C88.6485 157.186 88.474 157.246 88.2939 157.248Z" fill="white"/>
<path d="M92.2708 166.103C92.108 166.103 91.9485 166.056 91.8128 165.966C91.6276 165.844 91.4982 165.654 91.4531 165.437C91.4079 165.22 91.4508 164.994 91.5722 164.809C91.6257 164.729 97.0377 156.639 106.876 159.46C106.986 159.486 107.089 159.535 107.18 159.602C107.271 159.669 107.347 159.754 107.404 159.852C107.462 159.949 107.498 160.058 107.512 160.17C107.526 160.282 107.517 160.396 107.486 160.504C107.455 160.613 107.402 160.714 107.331 160.802C107.259 160.889 107.171 160.962 107.07 161.014C106.97 161.066 106.86 161.098 106.748 161.107C106.635 161.115 106.522 161.101 106.414 161.065C97.7832 158.598 93.1633 165.441 92.9694 165.745C92.8912 165.857 92.7865 165.948 92.6647 166.011C92.5429 166.073 92.4077 166.105 92.2708 166.103Z" fill="white"/>
<path d="M177.762 282.282C186.26 280.129 193.808 276.799 200.183 272.049C205.092 268.371 208.56 263.091 209.987 257.125C211.415 251.159 210.711 244.882 207.999 239.379C202.195 227.599 193.039 218.059 181.005 210.457C172.858 222.852 167.506 231.266 151.795 236.03C169.208 248.616 187.634 264.254 177.762 282.282Z" fill="white"/>
<path d="M176.769 283.053L177.324 282.05C186.613 265.085 170.401 250.106 151.5 236.447L150.678 235.855L151.647 235.561C166.974 230.914 172.256 222.858 180.255 210.69L180.854 209.777L181.272 210.041C193.64 217.844 202.773 227.645 208.446 239.168C211.221 244.772 211.943 251.172 210.489 257.254C209.034 263.337 205.494 268.717 200.483 272.459C194.285 277.076 186.68 280.546 177.885 282.775L176.769 283.053ZM152.897 236.213C171.45 249.718 187.108 264.54 178.728 281.515C186.934 279.309 194.048 275.993 199.885 271.647C204.706 268.045 208.113 262.867 209.513 257.013C210.913 251.159 210.217 245 207.547 239.606C202.017 228.38 193.139 218.806 181.138 211.148L181.081 211.235C173.142 223.339 167.837 231.422 152.897 236.213Z" fill="black"/>
<path d="M209.956 244.773C209.956 244.773 208.165 255.34 200.322 257.299C200.322 257.299 207.61 265.803 201.589 270.928C201.589 270.928 214.058 261.474 209.956 244.773Z" fill="#4BD657"/>
<path d="M201.889 271.328L201.261 270.546C201.889 270.04 202.407 269.411 202.783 268.698C203.159 267.984 203.385 267.201 203.447 266.397C203.781 262.162 199.977 257.669 199.94 257.622L199.412 257.007L200.198 256.81C207.629 254.955 209.441 244.792 209.461 244.689L209.865 242.309L210.44 244.649C214.575 261.477 202.016 271.231 201.889 271.328ZM201.177 257.572C202.253 259.003 204.741 262.744 204.446 266.478C204.42 266.815 204.37 267.15 204.296 267.48C207.385 263.766 211.527 256.746 209.912 247.032C208.959 250.194 206.552 255.807 201.177 257.572Z" fill="black"/>
<path d="M173.838 278.752C173.764 278.753 173.69 278.735 173.624 278.702C173.564 278.674 173.51 278.635 173.466 278.586C173.422 278.537 173.387 278.48 173.365 278.418C173.343 278.355 173.334 278.289 173.337 278.224C173.341 278.158 173.358 278.093 173.386 278.034C175.94 272.652 175.853 267.36 173.122 262.306C171.87 259.994 170.194 257.939 168.182 256.248C168.076 256.167 168.007 256.047 167.99 255.914C167.973 255.782 168.01 255.648 168.091 255.543C168.173 255.437 168.293 255.369 168.425 255.352C168.558 255.335 168.691 255.371 168.797 255.453C168.917 255.546 180.741 264.883 174.289 278.462C174.25 278.548 174.186 278.621 174.106 278.673C174.026 278.725 173.933 278.752 173.838 278.752Z" fill="#1D1E1B"/>
<path d="M230.785 285.349L96.9467 283.436C96.8138 283.436 96.6863 283.384 96.5922 283.29C96.4982 283.196 96.4453 283.068 96.4453 282.935C96.4453 282.802 96.4982 282.675 96.5922 282.58C96.6863 282.486 96.8138 282.434 96.9467 282.434L230.782 284.349C230.915 284.349 231.042 284.402 231.136 284.496C231.23 284.59 231.283 284.717 231.283 284.85C231.283 284.983 231.23 285.111 231.136 285.205C231.042 285.299 230.915 285.352 230.782 285.352L230.785 285.349Z" fill="#1D1D1B"/>
<path d="M111.661 290.456H79.5698C79.4368 290.456 79.3093 290.403 79.2153 290.309C79.1212 290.215 79.0684 290.088 79.0684 289.955C79.0684 289.822 79.1212 289.694 79.2153 289.6C79.3093 289.506 79.4368 289.453 79.5698 289.453H111.661C111.794 289.453 111.922 289.506 112.016 289.6C112.11 289.694 112.163 289.822 112.163 289.955C112.163 290.088 112.11 290.215 112.016 290.309C111.922 290.403 111.794 290.456 111.661 290.456Z" fill="#1D1D1B"/>
<path d="M327.609 166.767C327.517 166.767 327.427 166.741 327.348 166.693C327.27 166.644 327.206 166.575 327.165 166.493C324.49 161.274 320.305 158.71 314.753 158.868C312.11 158.979 309.514 159.6 307.108 160.696C306.99 160.748 306.856 160.752 306.735 160.709C306.614 160.665 306.515 160.576 306.457 160.461C306.4 160.346 306.389 160.213 306.426 160.09C306.464 159.967 306.548 159.863 306.66 159.8C306.803 159.727 321.221 152.713 328.054 166.038C328.114 166.155 328.124 166.292 328.083 166.417C328.043 166.542 327.954 166.646 327.837 166.707C327.767 166.746 327.689 166.767 327.609 166.767Z" fill="#1D1D1B"/>
<path d="M298.861 281.43C298.791 281.429 298.722 281.414 298.658 281.386C298.594 281.358 298.537 281.317 298.49 281.266C298.445 281.217 298.411 281.16 298.389 281.098C298.367 281.036 298.357 280.97 298.36 280.904C298.363 280.839 298.379 280.774 298.407 280.714C298.435 280.655 298.475 280.601 298.523 280.557C304.494 275.132 307.138 268.142 306.389 259.781C306.036 255.956 305.035 252.219 303.427 248.73C303.367 248.611 303.356 248.473 303.398 248.346C303.439 248.22 303.529 248.115 303.648 248.054C303.767 247.994 303.905 247.983 304.031 248.025C304.158 248.066 304.263 248.156 304.323 248.275C305.993 251.858 307.028 255.704 307.382 259.641C307.927 265.628 306.947 274.239 299.199 281.286C299.108 281.374 298.988 281.426 298.861 281.43Z" fill="#1D1D1B"/>
<path d="M245.71 103.254C245.582 103.254 245.459 103.205 245.365 103.118C245.272 103.03 245.216 102.91 245.208 102.782C245.034 99.7972 243.975 97.4605 242.066 95.8359C238.312 92.6501 232.449 93.2151 232.392 93.2218C232.326 93.2288 232.259 93.2228 232.196 93.204C232.132 93.1853 232.073 93.1543 232.022 93.1127C231.97 93.0711 231.927 93.0198 231.896 92.9616C231.864 92.9035 231.844 92.8397 231.837 92.7738C231.83 92.708 231.836 92.6414 231.854 92.5779C231.873 92.5143 231.904 92.4551 231.946 92.4036C231.987 92.3521 232.039 92.3092 232.097 92.2775C232.155 92.2458 232.219 92.2259 232.285 92.2189C232.542 92.1922 238.636 91.5971 242.708 95.0637C244.84 96.8688 246.017 99.4462 246.211 102.715C246.215 102.781 246.206 102.847 246.185 102.91C246.163 102.972 246.13 103.03 246.086 103.079C246.042 103.128 245.989 103.169 245.929 103.198C245.87 103.226 245.806 103.243 245.74 103.247L245.71 103.254Z" fill="#1D1E1B"/>
<path d="M232.48 119.827C239.056 119.827 244.387 114.487 244.387 107.9C244.387 101.313 239.056 95.9727 232.48 95.9727C225.903 95.9727 220.572 101.313 220.572 107.9C220.572 114.487 225.903 119.827 232.48 119.827Z" fill="#382256"/>
<path d="M232.476 120.335C229.378 120.341 226.389 119.192 224.094 117.112C221.799 115.031 220.363 112.169 220.067 109.086C219.77 106.002 220.635 102.919 222.492 100.44C224.349 97.9605 227.064 96.2631 230.106 95.6797C233.148 95.0963 236.298 95.6689 238.941 97.2856C241.583 98.9023 243.527 101.447 244.392 104.421C245.257 107.395 244.982 110.585 243.619 113.367C242.257 116.149 239.905 118.322 237.025 119.462C235.577 120.038 234.034 120.334 232.476 120.335ZM232.476 96.4666C229.644 96.4591 226.911 97.5021 224.805 99.3937C222.698 101.285 221.368 103.891 221.072 106.707C220.776 109.522 221.535 112.348 223.202 114.636C224.869 116.924 227.326 118.513 230.096 119.095C232.867 119.676 235.755 119.209 238.202 117.784C240.648 116.359 242.479 114.077 243.34 111.38C244.2 108.683 244.031 105.762 242.862 103.183C241.694 100.604 239.611 98.5506 237.015 97.4193C235.586 96.7939 234.042 96.4696 232.482 96.4666H232.476Z" fill="#1D1E1B"/>
<path d="M195.967 141.76C195.967 141.76 188.382 133.834 192.574 126.741C196.766 119.647 198.638 120.466 200.597 116.585C202.555 112.704 210.151 109.321 216.569 111.838C216.569 111.838 225.31 106.45 232.531 109.04C239.752 111.631 242.015 115.392 243.589 121.382C245.164 127.373 247.026 130.124 248.269 134.292C249.513 138.461 250.907 149.97 234.433 156.85C217.959 163.73 195.967 141.76 195.967 141.76Z" fill="#382256"/>
<path d="M227.563 158.666C222.018 158.666 215.65 156.527 208.767 152.315C204.041 149.382 199.633 145.966 195.612 142.123C195.532 142.042 187.813 133.836 192.149 126.501C194.512 122.49 196.161 120.969 197.498 119.736C198.527 118.776 199.34 118.021 200.172 116.373C201.225 114.29 203.692 112.415 206.771 111.358C209.926 110.216 213.378 110.198 216.545 111.305C217.976 110.469 225.905 106.143 232.725 108.587C240.143 111.261 242.513 115.253 244.091 121.273C244.822 123.997 245.765 126.659 246.912 129.236C247.625 130.844 248.246 132.492 248.774 134.17C249.854 137.77 252.03 150.079 234.65 157.333C232.4 158.244 229.991 158.697 227.563 158.666ZM196.328 141.414C196.749 141.832 218.357 163.022 234.253 156.387C250.857 149.457 248.824 137.834 247.804 134.437C247.285 132.795 246.674 131.182 245.976 129.607C244.814 126.986 243.857 124.279 243.111 121.511C241.574 115.674 239.407 112.034 232.37 109.513C225.464 107.036 216.923 112.214 216.839 112.268L216.626 112.398L216.392 112.308C210.07 109.827 202.84 113.277 201.051 116.811C200.135 118.619 199.219 119.485 198.163 120.458C196.886 121.648 195.295 123.132 193.005 127C189.09 133.618 196.13 141.203 196.328 141.414Z" fill="#1D1E1B"/>
<path d="M226.28 136.76H226.317C231.599 137.308 237.208 132.665 237.446 132.468C237.534 132.396 237.591 132.292 237.603 132.178C237.615 132.065 237.581 131.951 237.509 131.863C237.437 131.774 237.333 131.717 237.22 131.705C237.106 131.694 236.993 131.727 236.904 131.799C236.847 131.846 231.328 136.412 226.407 135.901C226.302 135.895 226.198 135.928 226.116 135.995C226.034 136.062 225.98 136.156 225.964 136.261C225.948 136.365 225.972 136.472 226.03 136.56C226.089 136.648 226.178 136.711 226.28 136.736V136.76Z" fill="black"/>
<path d="M215.959 163.262L215.29 166.963C215.29 166.963 223.982 180.645 237.353 168.611C237.353 168.611 232.927 161.323 231.396 147.551C231.396 147.551 237.413 147.113 237.256 141.744C237.099 136.375 233.004 134.875 230.32 135.934C230.32 135.934 219.623 141.313 212.65 119.598C212.65 119.598 201.712 122.355 198.038 132.738C194.364 143.121 194.695 155.804 202.384 160.548C210.072 165.291 215.959 163.262 215.959 163.262Z" fill="#FFCDB2"/>
<path d="M226.528 174.066C225.996 174.066 225.465 174.029 224.937 173.956C218.656 173.096 215.012 167.47 214.858 167.233L214.755 167.066L215.323 163.944C213.424 164.338 208.357 164.833 202.112 160.982C193.879 155.901 193.982 142.696 197.563 132.568C201.287 122.054 212.415 119.136 212.525 119.106L212.983 118.992L213.127 119.44C215.875 127.985 219.642 133.48 224.014 135.329C227.424 136.77 230.069 135.496 230.095 135.483L230.135 135.462C230.929 135.162 231.782 135.053 232.626 135.146C233.47 135.238 234.279 135.529 234.989 135.994C236.691 137.114 237.663 139.146 237.757 141.724C237.911 146.531 233.485 147.711 231.947 147.975C233.498 161.142 237.737 168.269 237.781 168.34L237.998 168.694L237.687 168.971C233.936 172.361 230.189 174.066 226.528 174.066ZM215.815 166.852C216.443 167.755 219.826 172.251 225.081 172.963C228.838 173.474 232.753 171.96 236.714 168.507C235.805 166.859 232.251 159.788 230.894 147.614L230.837 147.096L231.359 147.056C231.583 147.056 236.908 146.584 236.754 141.764C236.664 138.896 235.444 137.502 234.438 136.843C233.866 136.465 233.213 136.228 232.532 136.151C231.851 136.074 231.161 136.158 230.52 136.398C230.212 136.549 227.358 137.826 223.657 136.275C219.007 134.329 215.196 128.921 212.325 120.229C210.255 120.898 201.627 124.1 198.508 132.932C194.948 142.994 195.226 155.57 202.64 160.146C210.055 164.723 215.738 162.82 215.794 162.82L216.607 162.543L215.815 166.852Z" fill="#1D1E1B"/>
<path d="M231.729 145.089C231.804 145.103 231.882 145.097 231.955 145.07C232.027 145.044 232.091 144.998 232.14 144.938C233.577 143.167 234.082 141.595 233.637 140.295C232.996 138.406 230.629 137.831 230.535 137.808C230.428 137.788 230.317 137.81 230.226 137.87C230.134 137.929 230.069 138.022 230.044 138.128C230.019 138.235 230.036 138.346 230.092 138.44C230.147 138.535 230.237 138.604 230.342 138.634C230.368 138.634 232.347 139.132 232.839 140.572C233.173 141.575 232.725 142.876 231.481 144.403C231.436 144.461 231.406 144.528 231.394 144.6C231.382 144.672 231.389 144.746 231.414 144.815C231.438 144.884 231.481 144.945 231.536 144.993C231.591 145.041 231.657 145.074 231.729 145.089Z" fill="black"/>
<path d="M210.345 136.483C216.259 138.115 224.486 135.959 225.746 138.178C227.006 140.398 225.786 143.213 222.5 143.731C219.214 144.249 215.998 143.965 209.436 143.062C202.874 142.16 196.516 140.776 197.475 137.292C198.435 133.809 201.644 134.09 210.345 136.483Z" fill="#FFB49F"/>
<path d="M233.812 149.658C234.889 149.658 235.761 148.784 235.761 147.706C235.761 146.628 234.889 145.754 233.812 145.754C232.736 145.754 231.863 146.628 231.863 147.706C231.863 148.784 232.736 149.658 233.812 149.658Z" fill="#07ACEE"/>
<path d="M233.813 145.753C234.268 145.752 234.71 145.91 235.061 146.2C235.412 146.49 235.651 146.894 235.736 147.341C235.821 147.789 235.746 148.252 235.526 148.65C235.305 149.049 234.952 149.358 234.528 149.524C234.301 149.612 234.059 149.657 233.816 149.657C233.362 149.657 232.922 149.498 232.573 149.208C232.223 148.918 231.986 148.515 231.901 148.069C231.816 147.623 231.89 147.162 232.109 146.764C232.328 146.366 232.678 146.057 233.101 145.89C233.327 145.799 233.569 145.753 233.813 145.753ZM233.813 144.75C233.443 144.75 233.076 144.821 232.733 144.957C232.051 145.227 231.495 145.742 231.173 146.401C230.85 147.06 230.786 147.815 230.991 148.519C231.196 149.223 231.656 149.825 232.282 150.208C232.907 150.59 233.653 150.726 234.373 150.587C235.093 150.449 235.736 150.047 236.175 149.46C236.615 148.873 236.82 148.143 236.75 147.413C236.679 146.684 236.34 146.006 235.796 145.513C235.253 145.021 234.546 144.749 233.813 144.75Z" fill="#1D1D1B"/>
<path d="M200.73 138.893C201.339 138.893 201.833 138.397 201.833 137.786C201.833 137.175 201.339 136.68 200.73 136.68C200.121 136.68 199.627 137.175 199.627 137.786C199.627 138.397 200.121 138.893 200.73 138.893Z" fill="black"/>
<path d="M214.738 141.479C215.347 141.479 215.841 140.983 215.841 140.372C215.841 139.761 215.347 139.266 214.738 139.266C214.129 139.266 213.635 139.761 213.635 140.372C213.635 140.983 214.129 141.479 214.738 141.479Z" fill="black"/>
<path d="M213.766 152.735C215.287 152.537 216.773 153.102 218.187 154.408C218.239 154.452 218.282 154.505 218.313 154.566C218.344 154.627 218.362 154.693 218.367 154.761C218.371 154.828 218.361 154.897 218.339 154.961C218.316 155.025 218.281 155.084 218.234 155.134C218.188 155.183 218.132 155.224 218.07 155.251C218.008 155.279 217.941 155.294 217.873 155.295C217.805 155.296 217.738 155.283 217.675 155.257C217.612 155.231 217.555 155.192 217.507 155.144C216.312 154.038 215.088 153.567 213.865 153.733C211.411 154.072 209.683 156.849 209.666 156.878C209.596 156.991 209.484 157.072 209.355 157.103C209.226 157.134 209.089 157.112 208.976 157.042C208.863 156.972 208.782 156.86 208.751 156.731C208.721 156.601 208.743 156.465 208.812 156.352C208.89 156.224 210.809 153.146 213.736 152.738L213.766 152.735Z" fill="#1D1D1B"/>
<path d="M205.501 146.852C205.437 146.853 205.373 146.841 205.314 146.816C205.251 146.791 205.193 146.754 205.145 146.707C205.097 146.659 205.058 146.603 205.032 146.54C205.006 146.478 204.994 146.411 204.994 146.343C204.995 146.276 205.009 146.209 205.036 146.147L208.713 137.074C208.738 137.013 208.775 136.958 208.821 136.911C208.867 136.864 208.922 136.827 208.983 136.801C209.044 136.776 209.109 136.762 209.175 136.762C209.241 136.761 209.306 136.774 209.367 136.799C209.428 136.823 209.483 136.86 209.53 136.906C209.577 136.953 209.615 137.008 209.64 137.068C209.666 137.129 209.679 137.194 209.68 137.26C209.68 137.326 209.667 137.391 209.643 137.452L205.966 146.525C205.931 146.62 205.868 146.703 205.785 146.761C205.701 146.82 205.603 146.852 205.501 146.852Z" fill="#1D1D1B"/>
<path d="M200.489 131.022C200.42 131.023 200.352 131.009 200.288 130.981C200.225 130.954 200.168 130.913 200.122 130.862C200.076 130.814 200.041 130.757 200.018 130.695C199.995 130.634 199.984 130.568 199.987 130.502C199.989 130.436 200.005 130.371 200.033 130.311C200.06 130.251 200.1 130.198 200.148 130.153C200.332 129.983 204.691 126.018 207.556 128.886C207.645 128.981 207.693 129.107 207.691 129.237C207.688 129.367 207.636 129.491 207.544 129.583C207.452 129.674 207.328 129.727 207.198 129.729C207.068 129.732 206.942 129.683 206.847 129.595C204.661 127.409 200.867 130.855 200.83 130.889C200.738 130.974 200.616 131.022 200.489 131.022Z" fill="black"/>
<path d="M222.707 134.065C222.63 134.065 222.554 134.048 222.485 134.014C222.416 133.981 222.356 133.932 222.309 133.871C219.474 130.194 217.041 131.962 216.937 132.039C216.886 132.084 216.826 132.118 216.76 132.139C216.695 132.16 216.627 132.168 216.558 132.161C216.49 132.154 216.424 132.134 216.364 132.101C216.304 132.068 216.252 132.023 216.21 131.968C216.168 131.914 216.138 131.852 216.121 131.786C216.104 131.719 216.101 131.65 216.112 131.583C216.123 131.515 216.147 131.45 216.184 131.393C216.221 131.335 216.269 131.285 216.325 131.247C217.139 130.685 218.133 130.447 219.114 130.578C220.531 130.759 221.875 131.665 223.105 133.253C223.185 133.358 223.221 133.491 223.203 133.623C223.185 133.755 223.116 133.874 223.011 133.955C222.925 134.025 222.818 134.064 222.707 134.065Z" fill="black"/>
<path d="M215.078 163.476C215.078 163.476 219.969 162.26 222.643 160.254L215.078 163.476Z" fill="#4BD657"/>
<path d="M215.079 163.977C214.946 163.993 214.812 163.955 214.707 163.873C214.601 163.79 214.533 163.669 214.517 163.536C214.501 163.403 214.539 163.269 214.622 163.164C214.704 163.058 214.825 162.99 214.958 162.974C215.005 162.974 219.782 161.757 222.343 159.839C222.395 159.799 222.456 159.77 222.519 159.754C222.583 159.738 222.649 159.734 222.715 159.743C222.78 159.753 222.843 159.775 222.899 159.808C222.956 159.842 223.005 159.886 223.045 159.939C223.085 159.992 223.113 160.051 223.13 160.115C223.146 160.179 223.15 160.245 223.14 160.311C223.131 160.376 223.109 160.439 223.075 160.495C223.042 160.552 222.997 160.601 222.945 160.641C220.22 162.683 215.403 163.897 215.199 163.947C215.161 163.962 215.12 163.972 215.079 163.977Z" fill="black"/>
<path d="M199.578 145.711C198.091 145.711 196.636 145.27 195.399 144.443C194.162 143.617 193.199 142.442 192.629 141.068C192.06 139.693 191.911 138.181 192.201 136.722C192.491 135.263 193.208 133.923 194.26 132.871C195.312 131.819 196.652 131.103 198.111 130.812C199.57 130.522 201.082 130.671 202.456 131.241C203.831 131.81 205.005 132.774 205.832 134.011C206.658 135.248 207.1 136.702 207.1 138.189C207.098 140.184 206.305 142.096 204.895 143.506C203.485 144.916 201.572 145.709 199.578 145.711ZM199.578 131.671C198.289 131.671 197.029 132.053 195.957 132.769C194.885 133.486 194.049 134.504 193.556 135.695C193.062 136.886 192.933 138.197 193.185 139.461C193.436 140.726 194.057 141.887 194.969 142.799C195.88 143.71 197.042 144.331 198.306 144.583C199.571 144.834 200.882 144.705 202.073 144.212C203.264 143.718 204.282 142.883 204.998 141.811C205.714 140.739 206.097 139.479 206.097 138.189C206.094 136.461 205.406 134.805 204.185 133.583C202.963 132.361 201.306 131.673 199.578 131.671Z" fill="#1D1E1B"/>
<path d="M216.625 148.387C215.137 148.387 213.683 147.945 212.446 147.119C211.209 146.293 210.245 145.118 209.676 143.743C209.107 142.369 208.958 140.857 209.248 139.398C209.538 137.939 210.255 136.599 211.307 135.547C212.359 134.495 213.699 133.778 215.158 133.488C216.617 133.198 218.129 133.347 219.503 133.916C220.878 134.486 222.052 135.45 222.879 136.686C223.705 137.923 224.146 139.378 224.146 140.865C224.145 142.859 223.352 144.772 221.942 146.182C220.531 147.592 218.619 148.385 216.625 148.387ZM216.625 134.347C215.336 134.347 214.075 134.729 213.004 135.445C211.932 136.161 211.096 137.18 210.603 138.371C210.109 139.562 209.98 140.872 210.232 142.137C210.483 143.401 211.104 144.563 212.016 145.475C212.927 146.386 214.089 147.007 215.353 147.259C216.618 147.51 217.928 147.381 219.119 146.888C220.311 146.394 221.329 145.559 222.045 144.487C222.761 143.415 223.144 142.154 223.144 140.865C223.141 139.137 222.453 137.481 221.232 136.259C220.01 135.037 218.353 134.349 216.625 134.347Z" fill="#1D1E1B"/>
<path d="M223.646 141.366C223.57 141.365 223.495 141.348 223.427 141.315C223.359 141.282 223.299 141.234 223.252 141.175C223.17 141.07 223.132 140.937 223.148 140.805C223.164 140.673 223.231 140.553 223.335 140.47L229.687 135.455C229.791 135.373 229.924 135.335 230.056 135.351C230.189 135.367 230.309 135.434 230.392 135.539C230.474 135.644 230.512 135.777 230.496 135.909C230.48 136.041 230.413 136.162 230.308 136.244L223.957 141.259C223.867 141.327 223.758 141.365 223.646 141.366Z" fill="#1D1E1B"/>
<path d="M209.622 140.874C209.525 140.875 209.429 140.847 209.348 140.793C209.266 140.74 209.202 140.663 209.165 140.573C208.687 139.483 206.614 139.821 206.594 139.824C206.461 139.848 206.324 139.818 206.213 139.741C206.102 139.664 206.026 139.546 206.002 139.413C205.978 139.28 206.008 139.143 206.085 139.032C206.162 138.921 206.28 138.845 206.413 138.821C206.53 138.801 209.282 138.32 210.091 140.158C210.118 140.219 210.132 140.285 210.134 140.352C210.136 140.419 210.124 140.485 210.1 140.547C210.075 140.609 210.039 140.666 209.993 140.714C209.946 140.762 209.891 140.801 209.83 140.827C209.765 140.857 209.694 140.873 209.622 140.874Z" fill="#1D1E1B"/>
<path d="M212.417 230.192C209.76 227.788 204.776 225.759 202.288 225.475C201.191 225.359 200.081 225.512 199.056 225.92C199.056 225.92 207.229 236.764 207.129 237.035L182.392 231.222C182.392 231.222 174.463 238.282 187.55 245.823C187.55 245.823 185.658 252.489 189.492 257.603C189.492 257.603 185.835 262.283 195.175 269.604C204.515 276.925 222.142 274.415 222.142 274.415L225.996 249.845C225.996 249.845 218.588 234.828 212.417 230.192Z" fill="#FFCDB2"/>
<path d="M215.066 275.512C209.022 275.512 200.477 274.596 194.774 270.127C186.534 263.669 187.958 259.042 188.7 257.631C185.605 253.155 186.431 247.807 186.792 246.149C182.209 243.414 179.718 240.409 179.391 237.21C178.999 233.402 181.834 230.828 181.958 230.721L182.215 230.487L205.676 236.003C204.124 233.807 200.778 229.317 198.525 226.309L197.997 225.61L198.813 225.276C199.94 224.827 201.159 224.66 202.366 224.788C205.114 225.105 210.168 227.248 212.846 229.655C219.067 234.335 226.291 248.91 226.598 249.528L226.692 249.719L222.727 274.984L222.236 275.054C219.858 275.362 217.463 275.515 215.066 275.512ZM182.613 231.958C182.008 232.627 180.454 234.556 180.721 237.09C181.022 239.931 183.435 242.675 187.895 245.246L188.346 245.507L188.202 246.008C188.186 246.072 186.454 252.423 190.038 257.203L190.345 257.615L190.028 258.016C189.904 258.183 186.969 262.315 195.6 269.077C203.753 275.469 218.666 274.142 221.561 273.814L225.305 249.956C224.426 248.215 217.616 234.937 212.017 230.728L211.97 230.691C209.316 228.291 204.419 226.392 202.216 226.142C201.528 226.067 200.833 226.111 200.16 226.272C200.909 227.275 202.299 229.127 203.67 230.979C207.942 236.755 207.919 236.825 207.758 237.263L207.558 237.822L182.613 231.958Z" fill="#1D1E1B"/>
<path d="M199.705 248.889C192.785 248.889 185.11 244.791 184.745 244.593C184.638 244.525 184.56 244.419 184.528 244.296C184.496 244.173 184.512 244.042 184.573 243.93C184.633 243.818 184.734 243.733 184.855 243.693C184.976 243.653 185.108 243.661 185.223 243.714C185.32 243.764 195.068 248.966 202.162 247.675C202.228 247.664 202.295 247.665 202.36 247.679C202.426 247.693 202.488 247.72 202.543 247.758C202.598 247.797 202.645 247.845 202.681 247.902C202.717 247.958 202.742 248.021 202.753 248.087C202.765 248.153 202.764 248.22 202.75 248.285C202.736 248.351 202.708 248.413 202.67 248.468C202.632 248.523 202.583 248.569 202.527 248.606C202.471 248.642 202.408 248.667 202.342 248.678C201.471 248.826 200.588 248.897 199.705 248.889Z" fill="#1D1E1B"/>
<path d="M202.106 261.057C195.611 261.057 188.935 257.456 188.641 257.299C188.524 257.236 188.437 257.128 188.399 257C188.362 256.872 188.376 256.734 188.44 256.617C188.504 256.5 188.612 256.414 188.74 256.376C188.868 256.338 189.005 256.353 189.122 256.417C189.192 256.457 196.436 260.358 202.895 260.034C203.028 260.027 203.158 260.073 203.257 260.162C203.356 260.251 203.416 260.375 203.423 260.508C203.43 260.641 203.384 260.772 203.295 260.871C203.206 260.97 203.081 261.03 202.948 261.037C202.667 261.05 202.387 261.057 202.106 261.057Z" fill="#1D1E1B"/>
<path d="M201.249 246.662H201.196C185.106 245.635 182.188 237.419 182.071 237.068C182.004 236.858 182.022 236.631 182.121 236.435C182.22 236.239 182.393 236.09 182.601 236.02C182.81 235.95 183.037 235.965 183.234 236.062C183.432 236.158 183.583 236.329 183.656 236.536C183.689 236.633 186.46 244.048 201.303 244.997C201.413 245 201.521 245.026 201.621 245.071C201.721 245.116 201.811 245.181 201.886 245.261C201.961 245.341 202.02 245.435 202.058 245.538C202.097 245.64 202.115 245.75 202.112 245.859C202.108 245.969 202.083 246.077 202.038 246.177C201.993 246.277 201.928 246.367 201.848 246.442C201.768 246.518 201.674 246.576 201.571 246.615C201.468 246.654 201.359 246.672 201.249 246.668V246.662Z" fill="white"/>
<path d="M203.588 259.701C193.643 259.701 189.442 255.275 189.268 255.088C189.193 255.007 189.135 254.913 189.097 254.81C189.059 254.707 189.041 254.598 189.046 254.488C189.05 254.378 189.075 254.27 189.121 254.171C189.167 254.071 189.232 253.981 189.313 253.906C189.393 253.832 189.488 253.774 189.591 253.736C189.694 253.697 189.803 253.68 189.913 253.684C190.023 253.688 190.13 253.714 190.23 253.76C190.33 253.806 190.42 253.871 190.494 253.951C190.548 254.008 194.452 258.03 203.588 258.03C203.81 258.03 204.023 258.118 204.179 258.275C204.336 258.431 204.424 258.644 204.424 258.865C204.424 259.087 204.336 259.3 204.179 259.456C204.023 259.613 203.81 259.701 203.588 259.701Z" fill="white"/>
<path d="M315.91 203.544C315.739 203.544 315.572 203.492 315.431 203.394C315.291 203.297 315.184 203.159 315.124 202.998C315.065 202.838 315.056 202.663 315.099 202.498C315.142 202.332 315.235 202.184 315.365 202.073C320.887 197.343 323.722 192.228 323.755 186.87C323.829 178.345 316.765 171.974 316.692 171.91C316.526 171.763 316.426 171.556 316.412 171.335C316.399 171.113 316.475 170.896 316.622 170.73C316.769 170.564 316.976 170.464 317.197 170.451C317.419 170.438 317.636 170.513 317.802 170.66C318.116 170.937 325.49 177.576 325.427 186.87C325.38 192.736 322.361 198.279 316.455 203.343C316.303 203.473 316.109 203.544 315.91 203.544Z" fill="white"/>
<path d="M285.825 221.592C285.632 221.593 285.445 221.526 285.296 221.404C285.147 221.282 285.044 221.113 285.006 220.924C281.76 204.701 258.126 185.49 257.888 185.309C257.715 185.17 257.605 184.968 257.581 184.747C257.557 184.526 257.622 184.305 257.761 184.132C257.9 183.959 258.103 183.849 258.323 183.825C258.544 183.801 258.765 183.866 258.938 184.005C259.941 184.804 283.281 203.778 286.644 220.596C286.665 220.705 286.665 220.816 286.642 220.925C286.62 221.033 286.577 221.136 286.514 221.227C286.452 221.319 286.373 221.397 286.28 221.457C286.187 221.518 286.084 221.559 285.975 221.579C285.925 221.588 285.875 221.592 285.825 221.592Z" fill="white"/>
<path d="M229.33 133.009H229.3C219.773 132.655 216.299 120.544 216.156 120.029C216.126 119.923 216.118 119.813 216.131 119.704C216.144 119.595 216.179 119.489 216.233 119.394C216.287 119.298 216.36 119.214 216.446 119.146C216.533 119.079 216.632 119.029 216.737 118.999C216.843 118.97 216.954 118.962 217.063 118.975C217.172 118.988 217.277 119.023 217.373 119.077C217.468 119.131 217.552 119.203 217.62 119.29C217.687 119.376 217.738 119.475 217.767 119.581C217.797 119.695 221.06 131.03 229.36 131.338C229.582 131.342 229.793 131.434 229.947 131.593C230.1 131.753 230.185 131.967 230.181 132.189C230.177 132.41 230.085 132.621 229.925 132.775C229.766 132.929 229.552 133.013 229.33 133.009Z" fill="white"/>
<path d="M241.03 108.605C240.831 108.605 240.639 108.534 240.488 108.404C240.336 108.275 240.236 108.096 240.205 107.899C239.744 104.934 238.563 102.838 236.701 101.658C233.626 99.7125 229.608 100.869 229.568 100.883C229.357 100.941 229.132 100.914 228.941 100.808C228.749 100.702 228.607 100.525 228.545 100.316C228.482 100.107 228.504 99.8809 228.606 99.6875C228.708 99.494 228.882 99.3482 229.09 99.2813C229.284 99.2211 233.857 97.8907 237.584 100.237C239.877 101.685 241.315 104.175 241.856 107.638C241.873 107.747 241.869 107.858 241.843 107.964C241.818 108.071 241.771 108.172 241.707 108.261C241.642 108.349 241.561 108.425 241.467 108.482C241.373 108.539 241.269 108.577 241.161 108.595L241.03 108.605Z" fill="white"/>
<defs>
<filter id="filter0_d_2659_38918" x="-4.0192" y="107.785" width="38.6829" height="38.6829" filterUnits="userSpaceOnUse" color-interpolation-filters="sRGB">
<feFlood flood-opacity="0" result="BackgroundImageFix"/>
<feColorMatrix in="SourceAlpha" type="matrix" values="0 0 0 0 0 0 0 0 0 0 0 0 0 0 0 0 0 0 127 0" result="hardAlpha"/>
<feOffset dy="2.03704"/>
<feGaussianBlur stdDeviation="5.09261"/>
<feComposite in2="hardAlpha" operator="out"/>
<feColorMatrix type="matrix" values="0 0 0 0 0 0 0 0 0 0 0 0 0 0 0 0 0 0 0.05 0"/>
<feBlend mode="normal" in2="BackgroundImageFix" result="effect1_dropShadow_2659_38918"/>
<feBlend mode="normal" in="SourceGraphic" in2="effect1_dropShadow_2659_38918" result="shape"/>
</filter>
<filter id="filter1_d_2659_38918" x="370.649" y="165.211" width="38.6888" height="38.6907" filterUnits="userSpaceOnUse" color-interpolation-filters="sRGB">
<feFlood flood-opacity="0" result="BackgroundImageFix"/>
<feColorMatrix in="SourceAlpha" type="matrix" values="0 0 0 0 0 0 0 0 0 0 0 0 0 0 0 0 0 0 127 0" result="hardAlpha"/>
<feOffset dy="2.03704"/>
<feGaussianBlur stdDeviation="5.09261"/>
<feComposite in2="hardAlpha" operator="out"/>
<feColorMatrix type="matrix" values="0 0 0 0 0 0 0 0 0 0 0 0 0 0 0 0 0 0 0.05 0"/>
<feBlend mode="normal" in2="BackgroundImageFix" result="effect1_dropShadow_2659_38918"/>
<feBlend mode="normal" in="SourceGraphic" in2="effect1_dropShadow_2659_38918" result="shape"/>
</filter>
<linearGradient id="paint0_linear_2659_38918" x1="20.4547" y1="112.036" x2="392.053" y2="200.545" gradientUnits="userSpaceOnUse">
<stop stop-color="#CDD5E2"/>
<stop offset="1" stop-color="#CDD5E2" stop-opacity="0"/>
</linearGradient>
<linearGradient id="paint1_linear_2659_38918" x1="391.411" y1="195.436" x2="353.85" y2="294.043" gradientUnits="userSpaceOnUse">
<stop stop-color="#CDD5E2"/>
<stop offset="1" stop-color="#CDD5E2" stop-opacity="0"/>
</linearGradient>
<linearGradient id="paint2_linear_2659_38918" x1="196.502" y1="23.2617" x2="196.502" y2="365.007" gradientUnits="userSpaceOnUse">
<stop stop-color="#CDD5E2"/>
<stop offset="1" stop-color="#CDD5E2" stop-opacity="0"/>
</linearGradient>
<linearGradient id="paint3_linear_2659_38918" x1="196.505" y1="57.4336" x2="196.505" y2="330.83" gradientUnits="userSpaceOnUse">
<stop stop-color="#CDD5E2"/>
<stop offset="1" stop-color="#CDD5E2" stop-opacity="0"/>
</linearGradient>
</defs>
</svg>
