<svg width="406" height="302" viewBox="0 0 406 302" fill="none" xmlns="http://www.w3.org/2000/svg">
<mask id="mask0_2659_39312" style="mask-type:alpha" maskUnits="userSpaceOnUse" x="0" y="0" width="406" height="302">
<rect width="405.823" height="301.875" fill="#D9D9D9"/>
</mask>
<g mask="url(#mask0_2659_39312)">
<g opacity="0.5">
<mask id="path-2-inside-1_2659_39312" fill="white">
<path d="M389.979 202.563C391.995 156.306 377.371 110.858 348.759 74.4568C320.146 38.0554 279.439 13.11 234.015 4.1422C188.592 -4.82558 141.458 2.77787 101.159 25.5743C60.859 48.3707 30.0607 84.8513 14.3462 128.403L15.1858 128.706C30.8279 85.3551 61.4843 49.0426 101.598 26.3513C141.712 3.65991 188.628 -3.9085 233.842 5.01795C279.057 13.9444 319.576 38.7749 348.057 75.0085C376.537 111.242 391.094 156.481 389.087 202.524L389.979 202.563Z"/>
</mask>
<path d="M389.979 202.563C391.995 156.306 377.371 110.858 348.759 74.4568C320.146 38.0554 279.439 13.11 234.015 4.1422C188.592 -4.82558 141.458 2.77787 101.159 25.5743C60.859 48.3707 30.0607 84.8513 14.3462 128.403L15.1858 128.706C30.8279 85.3551 61.4843 49.0426 101.598 26.3513C141.712 3.65991 188.628 -3.9085 233.842 5.01795C279.057 13.9444 319.576 38.7749 348.057 75.0085C376.537 111.242 391.094 156.481 389.087 202.524L389.979 202.563Z" stroke="url(#paint0_linear_2659_39312)" stroke-width="2.84788" stroke-dasharray="4.27 4.27" mask="url(#path-2-inside-1_2659_39312)"/>
</g>
<g opacity="0.5">
<mask id="path-3-inside-2_2659_39312" fill="white">
<path d="M14.6043 260.571C30.4892 304.062 61.4301 340.421 101.819 363.06C142.207 385.698 189.37 393.117 234.758 383.972C280.146 374.826 320.756 349.722 349.225 313.209C377.695 276.696 392.141 231.191 389.944 184.942L389.052 184.985C391.239 231.02 376.86 276.315 348.521 312.66C320.183 349.005 279.761 373.993 234.582 383.097C189.403 392.2 142.457 384.815 102.255 362.281C62.0527 339.747 31.2544 303.555 15.4428 260.265L14.6043 260.571Z"/>
</mask>
<path d="M14.6043 260.571C30.4892 304.062 61.4301 340.421 101.819 363.06C142.207 385.698 189.37 393.117 234.758 383.972C280.146 374.826 320.756 349.722 349.225 313.209C377.695 276.696 392.141 231.191 389.944 184.942L389.052 184.985C391.239 231.02 376.86 276.315 348.521 312.66C320.183 349.005 279.761 373.993 234.582 383.097C189.403 392.2 142.457 384.815 102.255 362.281C62.0527 339.747 31.2544 303.555 15.4428 260.265L14.6043 260.571Z" stroke="url(#paint1_linear_2659_39312)" stroke-width="2.84788" stroke-dasharray="4.27 4.27" mask="url(#path-3-inside-2_2659_39312)"/>
</g>
<circle opacity="0.08" cx="196.502" cy="194.134" r="170.873" fill="url(#paint2_linear_2659_39312)"/>
<circle opacity="0.1" cx="196.505" cy="194.132" r="136.698" fill="url(#paint3_linear_2659_39312)"/>
<circle cx="196.505" cy="194.132" r="91.1321" fill="white"/>
<g filter="url(#filter0_d_2659_39312)">
<circle cx="15.3224" cy="125.091" r="7.11969" transform="rotate(-2.50406 15.3224 125.091)" fill="#0170FF"/>
<circle cx="15.3224" cy="125.091" r="8.13822" transform="rotate(-2.50406 15.3224 125.091)" stroke="white" stroke-width="2.03704"/>
</g>
<g filter="url(#filter1_d_2659_39312)">
<circle cx="389.993" cy="182.52" r="7.11969" transform="rotate(-15.7345 389.993 182.52)" fill="#0170FF"/>
<circle cx="389.993" cy="182.52" r="8.13822" transform="rotate(-15.7345 389.993 182.52)" stroke="white" stroke-width="2.03704"/>
</g>
</g>
<path d="M314.719 25.1328H145.232C143.466 25.1326 141.717 25.4836 140.088 26.165C138.459 26.8465 136.982 27.8448 135.742 29.1022C134.503 30.3596 133.525 31.8509 132.867 33.4894C132.208 35.1279 131.882 36.8809 131.908 38.6465L134.383 213.769" fill="white"/>
<path d="M133.837 213.78L131.38 38.6534C131.354 36.8167 131.693 34.9932 132.377 33.2885C133.061 31.5838 134.077 30.0318 135.366 28.7228C136.655 27.4138 138.19 26.3739 139.884 25.663C141.578 24.9522 143.396 24.5847 145.233 24.582H314.72V25.6757H145.233C143.54 25.6755 141.863 26.0119 140.301 26.6653C138.739 27.3188 137.322 28.2763 136.133 29.4822C134.944 30.688 134.007 32.1183 133.376 33.6896C132.744 35.2609 132.432 36.9419 132.456 38.6351L134.931 213.758L133.837 213.78Z" fill="#1D1E1B"/>
<path d="M184.901 103.951L132.695 105.035L132.718 106.129L184.924 105.044L184.901 103.951Z" fill="#1D1E1B"/>
<path d="M252.382 25.1317C252.382 25.1317 241.445 82.365 293.94 145.795C287.451 164.69 286.929 180.624 293.21 193.186C293.21 193.186 320.916 220.527 331.123 210.684C333.788 208.114 331.221 177.667 331.487 160.013C331.91 131.91 337.451 109.979 340.966 78.355C343.882 52.1079 343.565 30.9644 341.33 26.9544C334.404 14.5599 252.017 14.9245 252.382 25.1317Z" fill="white"/>
<path d="M325.393 213.373C313.053 213.373 293.791 194.529 292.828 193.578L292.763 193.516L292.722 193.432C286.569 181.129 286.773 165.14 293.324 145.91C281.407 131.474 271.816 116.164 264.802 100.408C259.264 88.0679 255.278 75.0882 252.936 61.7665C249.262 40.4079 251.649 26.125 251.843 25.0861C251.817 23.0884 254.11 21.4735 258.849 20.1502C268.448 17.4671 287.163 16.3517 305.419 17.376C315.102 17.9192 338.031 19.9278 341.815 26.6827C344.05 30.6927 344.55 51.1073 341.517 78.4116C340.23 90.0004 338.684 100.193 337.189 110.05C334.681 126.604 332.308 142.239 332.042 160.018C331.947 166.336 332.217 174.323 332.476 182.048C333.048 198.919 333.303 209.344 331.51 211.072C329.833 212.687 327.737 213.373 325.393 213.373ZM293.659 192.863C295.143 194.322 321.266 219.435 330.744 210.292C332.279 208.812 331.798 194.617 331.375 182.095C331.116 174.356 330.846 166.354 330.941 160.007C331.211 142.145 333.584 126.469 336.099 109.893C337.594 100.051 339.136 89.8655 340.423 78.2985C343.39 51.5848 342.975 30.9882 340.853 27.2224C338.411 22.8479 325.141 19.5853 305.35 18.4734C287.488 17.4709 268.48 18.5937 259.137 21.2075C255.083 22.3412 252.878 23.7265 252.94 25.1117V25.1737V25.2319C252.914 25.3777 250.268 39.7407 254.033 61.6388C257.522 81.8491 267.35 112.795 294.37 145.447L294.567 145.681L294.469 145.972C287.921 165.002 287.655 180.775 293.659 192.863Z" fill="black"/>
<path d="M210.46 86.0154L209.002 31.6985V25.1367" fill="white"/>
<path d="M209.913 86.03L208.455 31.7131V25.1367H209.549V31.6985L211.007 86.001L209.913 86.03Z" fill="#1D1E1B"/>
<path d="M295.715 122.828C280.182 105.02 274.728 83.4576 272.891 68.4931C270.901 52.2928 272.603 40.1242 272.618 40.0039L273.711 40.1607C273.711 40.281 272.013 52.3292 273.992 68.3909C275.815 83.1877 281.206 104.521 296.55 122.11L295.715 122.828Z" fill="#1D1E1B"/>
<path d="M327.281 84.3154L326.217 84.0604C330.879 64.6958 328.404 40.3807 328.404 40.1365L329.498 40.0234C329.505 40.2567 331.987 64.765 327.281 84.3154Z" fill="#1D1E1B"/>
<path d="M348.62 48.8281C348.62 48.8281 350.808 76.1689 343.152 108.613L348.62 48.8281Z" fill="white"/>
<path d="M343.686 108.741L342.621 108.49C350.167 76.5086 348.089 49.146 348.089 48.8726L349.183 48.7852C349.187 49.0622 351.272 76.5851 343.686 108.741Z" fill="#1D1E1B"/>
<path d="M330.212 112.803C330.135 112.803 330.058 112.796 329.982 112.782C329.842 112.751 329.709 112.694 329.591 112.612C329.472 112.53 329.371 112.426 329.293 112.305C329.216 112.184 329.162 112.049 329.137 111.907C329.111 111.766 329.114 111.621 329.144 111.48C337.751 71.3039 333.901 32.3743 333.861 31.9879C333.832 31.6978 333.919 31.4078 334.103 31.1819C334.287 30.9559 334.554 30.8125 334.844 30.783C335.134 30.7535 335.424 30.8405 335.65 31.0247C335.876 31.209 336.019 31.4755 336.049 31.7655C336.089 32.1556 339.978 71.4095 331.291 111.939C331.238 112.186 331.102 112.406 330.906 112.563C330.709 112.721 330.464 112.806 330.212 112.803Z" fill="white"/>
<path d="M276.26 103.688C276.051 103.688 275.845 103.628 275.668 103.514C275.492 103.4 275.352 103.238 275.265 103.047C262.506 75.0097 267.471 40.0827 267.522 39.7363C267.564 39.4492 267.719 39.1905 267.952 39.0172C268.184 38.8439 268.477 38.7703 268.764 38.8123C269.051 38.8544 269.309 39.0087 269.483 39.2415C269.656 39.4743 269.73 39.7664 269.688 40.0535C269.637 40.3962 264.781 74.6851 277.256 102.142C277.317 102.274 277.351 102.416 277.357 102.561C277.362 102.705 277.339 102.849 277.289 102.985C277.238 103.121 277.161 103.245 277.062 103.351C276.963 103.456 276.844 103.541 276.712 103.601C276.57 103.663 276.416 103.693 276.26 103.688Z" fill="white"/>
<path d="M244.466 158.442C232.563 158.442 222.885 149.518 222.885 138.545C222.885 127.572 232.563 118.648 244.466 118.648C256.368 118.648 266.047 127.572 266.047 138.545C266.047 149.518 256.364 158.442 244.466 158.442ZM244.466 119.742C233.165 119.742 223.978 128.178 223.978 138.545C223.978 148.913 233.169 157.348 244.466 157.348C255.763 157.348 264.953 148.913 264.953 138.545C264.953 128.178 255.763 119.731 244.466 119.731V119.742Z" fill="#1D1E1B"/>
<path d="M240.594 157.226C250.817 157.226 259.105 148.938 259.105 138.715C259.105 128.491 250.817 120.203 240.594 120.203C230.37 120.203 222.082 128.491 222.082 138.715C222.082 148.938 230.37 157.226 240.594 157.226Z" fill="#382256"/>
<path d="M240.593 157.773C236.824 157.773 233.139 156.655 230.005 154.561C226.871 152.467 224.428 149.49 222.986 146.008C221.543 142.525 221.166 138.693 221.901 134.996C222.637 131.3 224.452 127.904 227.117 125.238C229.782 122.573 233.178 120.758 236.875 120.022C240.572 119.287 244.404 119.665 247.887 121.107C251.369 122.549 254.346 124.992 256.44 128.126C258.534 131.261 259.652 134.945 259.652 138.715C259.646 143.767 257.636 148.612 254.063 152.184C250.49 155.757 245.646 157.767 240.593 157.773ZM240.593 120.753C237.04 120.753 233.567 121.807 230.612 123.781C227.658 125.756 225.355 128.561 223.996 131.844C222.636 135.127 222.281 138.739 222.974 142.224C223.668 145.709 225.379 148.91 227.892 151.422C230.405 153.935 233.606 155.646 237.091 156.338C240.576 157.031 244.188 156.675 247.471 155.314C250.753 153.954 253.559 151.651 255.532 148.696C257.506 145.741 258.559 142.268 258.558 138.715C258.552 133.952 256.658 129.386 253.29 126.019C249.922 122.652 245.356 120.758 240.593 120.753Z" fill="#1D1E1B"/>
<path d="M208.827 144.053C147.912 155.824 168.56 246.65 168.56 246.65L273.847 246.318C273.847 246.318 288.575 151.457 219.713 140.859" fill="#07ACEE"/>
<path d="M168.561 247.195C168.437 247.194 168.317 247.151 168.219 247.074C168.122 246.997 168.054 246.889 168.025 246.768C166.047 237.061 164.931 227.198 164.69 217.295C164.303 202.082 166.02 180.614 176.381 164.735C183.795 153.369 194.673 146.231 208.712 143.515C208.855 143.487 209.002 143.518 209.123 143.599C209.243 143.68 209.326 143.806 209.353 143.949C209.381 144.091 209.351 144.239 209.269 144.359C209.188 144.48 209.062 144.563 208.92 144.59C195.184 147.244 184.546 154.225 177.299 165.329C167.092 180.968 165.404 202.192 165.78 217.244C166.025 226.936 167.103 236.59 169.002 246.097L273.375 245.769C274.575 236.183 274.916 226.508 274.392 216.861C273.582 201.714 270.141 180.279 258.352 164.184C249.136 151.6 236.115 143.934 219.63 141.4C219.558 141.39 219.489 141.365 219.427 141.328C219.365 141.29 219.311 141.241 219.267 141.182C219.224 141.124 219.193 141.058 219.175 140.987C219.158 140.917 219.154 140.843 219.165 140.772C219.176 140.7 219.201 140.631 219.238 140.569C219.276 140.506 219.325 140.452 219.383 140.409C219.442 140.366 219.508 140.335 219.578 140.317C219.649 140.3 219.722 140.296 219.794 140.307C236.563 142.888 249.843 150.704 259.234 163.528C271.184 179.849 274.665 201.517 275.482 216.817C276.029 226.687 275.662 236.586 274.388 246.389C274.368 246.518 274.303 246.635 274.204 246.72C274.105 246.805 273.979 246.852 273.848 246.852L168.561 247.184V247.195Z" fill="#1D1D1B"/>
<path d="M275.604 247.844C301.289 259.211 312.102 246.507 318.839 239.639C328.339 229.946 346.908 202.667 344.269 192.941C341.63 183.215 334.426 183.291 334.426 183.291L333.927 175.665L307.636 171.695L306.841 176.799C306.841 176.799 298.636 173.682 294.596 187.145C291.913 196.087 288.877 208.346 289.212 213.731C289.212 213.731 287.499 157.175 231.137 143.684" fill="#07ACEE"/>
<path d="M294.291 252.919C289.041 252.919 282.822 251.636 275.386 248.344C275.316 248.318 275.253 248.278 275.199 248.226C275.145 248.174 275.103 248.113 275.074 248.044C275.045 247.975 275.031 247.902 275.032 247.827C275.032 247.753 275.048 247.68 275.078 247.611C275.108 247.543 275.152 247.482 275.206 247.432C275.261 247.381 275.325 247.342 275.395 247.317C275.465 247.292 275.54 247.282 275.614 247.287C275.688 247.291 275.761 247.311 275.827 247.345C300.138 258.103 310.659 247.272 317.622 240.102L318.449 239.256C328.587 228.91 346.242 202.302 343.745 193.087C341.248 183.871 334.719 183.831 334.442 183.838C334.303 183.838 334.169 183.786 334.067 183.691C333.966 183.596 333.904 183.466 333.895 183.328L333.425 176.139L308.107 172.319L307.396 176.875C307.383 176.955 307.353 177.031 307.307 177.098C307.262 177.165 307.202 177.22 307.133 177.261C307.063 177.302 306.985 177.328 306.905 177.335C306.824 177.343 306.743 177.333 306.667 177.306C304.982 176.811 303.171 176.982 301.607 177.783C298.789 179.187 296.617 182.384 295.144 187.294C292.395 196.451 289.577 207.996 289.763 213.355C289.763 213.574 289.781 213.694 289.781 213.72C289.788 213.865 289.737 214.007 289.639 214.114C289.542 214.221 289.405 214.285 289.26 214.292C289.115 214.299 288.974 214.248 288.866 214.15C288.759 214.052 288.695 213.916 288.688 213.771C288.688 213.658 288.688 213.541 288.67 213.406C288.546 211.179 287.543 198.172 280.821 183.955C274.052 169.639 259.918 151.121 231.035 144.22C230.904 144.178 230.794 144.088 230.727 143.968C230.659 143.848 230.639 143.707 230.671 143.573C230.703 143.439 230.784 143.322 230.898 143.245C231.012 143.169 231.151 143.138 231.287 143.159C244.232 146.257 255.365 151.908 264.376 159.928C271.583 166.347 277.456 174.294 281.827 183.55C285.396 191.204 287.852 199.329 289.118 207.679C290.018 201.697 292.067 193.706 294.076 187.006C295.643 181.778 298.017 178.352 301.13 176.817C302.758 176 304.614 175.757 306.397 176.128L307.101 171.637C307.123 171.495 307.201 171.367 307.317 171.282C307.433 171.196 307.578 171.16 307.721 171.181L334.011 175.147C334.135 175.166 334.248 175.227 334.332 175.319C334.417 175.411 334.467 175.53 334.474 175.654L334.945 182.81C336.709 183.018 342.491 184.345 344.787 192.824C347.583 203.126 328.401 230.678 319.218 240.047L318.395 240.889C313.674 245.738 306.696 252.919 294.291 252.919Z" fill="#1D1D1B"/>
<path d="M307.494 177.275C307.494 177.275 312.682 189.334 334.273 183.757L333.599 176.247L308.446 172.383L307.494 177.275Z" fill="#0598C6"/>
<path d="M249.675 218.932C249.799 217.656 248.866 216.521 247.591 216.398C246.317 216.274 245.183 217.209 245.06 218.486C244.936 219.762 245.869 220.897 247.144 221.02C248.418 221.144 249.552 220.209 249.675 218.932Z" fill="#51CEF4"/>
<path d="M217.11 195.831C217.395 194.58 216.615 193.336 215.366 193.051C214.118 192.766 212.875 193.548 212.589 194.799C212.304 196.049 213.084 197.294 214.333 197.579C215.581 197.864 216.824 197.081 217.11 195.831Z" fill="#51CEF4"/>
<path d="M308.292 193.589C308.416 192.312 307.483 191.177 306.208 191.054C304.934 190.931 303.8 191.865 303.677 193.142C303.553 194.418 304.486 195.553 305.761 195.677C307.035 195.8 308.169 194.865 308.292 193.589Z" fill="#51CEF4"/>
<path d="M336.695 198.593C336.818 197.316 335.885 196.181 334.611 196.058C333.336 195.934 332.203 196.869 332.079 198.146C331.956 199.422 332.889 200.557 334.163 200.68C335.438 200.804 336.571 199.869 336.695 198.593Z" fill="#51CEF4"/>
<path d="M325.16 234.204C325.289 232.922 324.355 231.778 323.074 231.65C321.794 231.522 320.651 232.458 320.523 233.74C320.395 235.023 321.329 236.166 322.61 236.294C323.89 236.422 325.032 235.487 325.16 234.204Z" fill="#51CEF4"/>
<path d="M278.527 207.26C278.65 205.984 277.717 204.849 276.443 204.726C275.168 204.602 274.035 205.537 273.911 206.814C273.788 208.09 274.721 209.225 275.995 209.348C277.27 209.472 278.403 208.537 278.527 207.26Z" fill="#51CEF4"/>
<path d="M317.179 214.94C317.303 213.664 316.37 212.529 315.095 212.405C313.821 212.282 312.687 213.217 312.564 214.493C312.44 215.77 313.373 216.905 314.647 217.028C315.922 217.152 317.055 216.217 317.179 214.94Z" fill="#51CEF4"/>
<path d="M206.137 144.721C205.117 145.4 204.262 146.298 203.631 147.348C203.001 148.398 202.611 149.575 202.491 150.794C201.901 155.738 212.122 159.926 221.265 153.135C221.265 153.135 226.777 157.939 231.698 156.164C238.475 153.714 235.606 144.706 228.418 143.234C219.26 141.356 206.137 144.721 206.137 144.721Z" fill="white"/>
<path d="M211.186 157.245C209.038 157.281 206.918 156.755 205.036 155.721C202.889 154.474 201.755 152.611 201.966 150.73C202.506 146.214 205.729 144.325 205.863 144.249L205.929 144.212L205.998 144.194C206.542 144.055 219.352 140.818 228.549 142.699C233.19 143.651 235.84 147.395 236.088 150.599C236.288 153.388 234.724 155.659 231.899 156.68C227.393 158.305 222.57 154.857 221.258 153.829C217.842 156.26 214.299 157.245 211.186 157.245ZM206.348 145.248C205.421 145.889 204.646 146.725 204.076 147.697C203.506 148.669 203.156 149.754 203.049 150.876C202.878 152.334 203.8 153.756 205.601 154.791C209.002 156.763 215.261 156.953 220.966 152.713L221.331 152.451L221.663 152.739C221.717 152.783 227 157.31 231.553 155.655C233.922 154.798 235.198 152.987 235.023 150.683C234.823 147.956 232.42 144.61 228.356 143.775C219.741 142.014 207.438 144.963 206.348 145.248Z" fill="#1D1E1B"/>
<path d="M243.959 234.722C245.24 234.722 246.278 233.683 246.278 232.4C246.278 231.118 245.24 230.078 243.959 230.078C242.679 230.078 241.641 231.118 241.641 232.4C241.641 233.683 242.679 234.722 243.959 234.722Z" fill="#51CEF4"/>
<path d="M176.016 199C177.296 199 178.334 197.96 178.334 196.678C178.334 195.395 177.296 194.355 176.016 194.355C174.735 194.355 173.697 195.395 173.697 196.678C173.697 197.96 174.735 199 176.016 199Z" fill="#51CEF4"/>
<path d="M212.156 216.359C212.435 216.097 212.646 215.772 212.769 215.41C212.892 215.049 212.925 214.662 212.863 214.285C212.802 213.908 212.649 213.552 212.418 213.248C212.186 212.944 211.884 212.701 211.537 212.542C211.119 212.348 210.652 212.284 210.197 212.358C209.742 212.432 209.32 212.641 208.985 212.958C208.753 213.163 208.565 213.412 208.431 213.691C208.297 213.971 208.221 214.274 208.206 214.583C208.191 214.892 208.238 215.201 208.344 215.492C208.45 215.783 208.613 216.049 208.824 216.276C209.035 216.503 209.289 216.685 209.571 216.812C209.853 216.94 210.158 217.009 210.467 217.017C210.777 217.024 211.085 216.97 211.373 216.857C211.661 216.744 211.924 216.575 212.146 216.359H212.156Z" fill="#51CEF4"/>
<path d="M177.492 240.589C177.772 240.329 177.983 240.003 178.107 239.641C178.231 239.279 178.263 238.893 178.202 238.515C178.141 238.138 177.988 237.781 177.756 237.477C177.524 237.173 177.22 236.931 176.873 236.772C176.455 236.579 175.988 236.514 175.533 236.589C175.078 236.663 174.656 236.871 174.321 237.188C174.089 237.393 173.901 237.643 173.767 237.922C173.634 238.201 173.557 238.504 173.542 238.814C173.527 239.123 173.574 239.432 173.68 239.722C173.786 240.013 173.949 240.28 174.16 240.507C174.371 240.733 174.625 240.916 174.907 241.043C175.189 241.17 175.494 241.24 175.803 241.247C176.113 241.255 176.421 241.201 176.709 241.088C176.997 240.975 177.26 240.805 177.482 240.589H177.492Z" fill="#51CEF4"/>
<path d="M254.639 169.554C255.919 169.554 256.957 168.515 256.957 167.232C256.957 165.95 255.919 164.91 254.639 164.91C253.358 164.91 252.32 165.95 252.32 167.232C252.32 168.515 253.358 169.554 254.639 169.554Z" fill="#51CEF4"/>
<path d="M268.9 194.363C268.9 194.363 276.979 209.506 278.492 229.195L273.443 227.511C273.443 227.511 272.94 210.866 268.9 194.363Z" fill="#0598C6"/>
<path d="M268.492 191.941C268.492 191.941 272.098 206.304 273.107 229.19L268.492 191.941Z" fill="#07ACEE"/>
<path d="M273.107 229.739C272.967 229.739 272.831 229.685 272.729 229.588C272.628 229.491 272.567 229.358 272.561 229.218C271.565 206.66 268 192.22 267.964 192.074C267.928 191.934 267.95 191.785 268.025 191.66C268.099 191.536 268.22 191.446 268.361 191.411C268.502 191.376 268.651 191.398 268.775 191.472C268.899 191.547 268.989 191.668 269.024 191.808C269.061 191.954 272.652 206.492 273.654 229.167C273.66 229.311 273.609 229.453 273.511 229.56C273.413 229.667 273.278 229.731 273.133 229.739H273.107Z" fill="#1D1D1B"/>
<path d="M338.357 208.916C338.239 208.916 338.123 208.893 338.014 208.847C337.903 208.802 337.803 208.735 337.718 208.651C337.632 208.567 337.565 208.467 337.518 208.356C337.472 208.246 337.448 208.128 337.447 208.008C337.447 207.888 337.47 207.77 337.515 207.659C341.543 197.816 340.639 192.957 339.17 190.602C338.675 189.807 338.008 189.134 337.217 188.634C336.426 188.133 335.532 187.818 334.602 187.711C334.361 187.697 334.134 187.587 333.973 187.407C333.812 187.226 333.73 186.988 333.744 186.747C333.758 186.505 333.867 186.279 334.048 186.118C334.229 185.957 334.466 185.874 334.708 185.888C335.921 186.013 337.09 186.412 338.127 187.054C339.164 187.696 340.041 188.565 340.694 189.596C343.184 193.544 342.684 199.85 339.203 208.344C339.135 208.513 339.018 208.657 338.867 208.759C338.716 208.861 338.539 208.916 338.357 208.916Z" fill="white"/>
<path d="M226.502 94.6918C233.123 94.6918 238.491 89.3157 238.491 82.6838C238.491 76.0519 233.123 70.6758 226.502 70.6758C219.88 70.6758 214.512 76.0519 214.512 82.6838C214.512 89.3157 219.88 94.6918 226.502 94.6918Z" fill="#382256"/>
<path d="M226.502 95.242C224.218 95.2457 221.976 94.6263 220.017 93.4503C218.059 92.2743 216.458 90.5863 215.388 88.5681C214.317 86.55 213.818 84.2781 213.943 81.9971C214.068 79.716 214.812 77.5121 216.097 75.6229C217.381 73.7337 219.156 72.2306 221.232 71.2755C223.307 70.3203 225.603 69.9492 227.874 70.2023C230.144 70.4554 232.302 71.3229 234.116 72.7116C235.93 74.1002 237.331 75.9574 238.168 78.083C238.917 79.9857 239.19 82.0425 238.963 84.0747C238.737 86.1069 238.018 88.0531 236.868 89.7442C235.718 91.4352 234.173 92.82 232.367 93.7782C230.56 94.7363 228.547 95.2387 226.502 95.242ZM226.502 71.2151C224.05 71.2093 221.66 71.9899 219.683 73.4426C217.707 74.8952 216.248 76.9432 215.521 79.286C214.795 81.6287 214.838 84.1427 215.646 86.4588C216.453 88.7749 217.982 90.7712 220.008 92.1544C222.033 93.5377 224.449 94.235 226.9 94.1441C229.351 94.0532 231.709 93.1789 233.626 91.6495C235.544 90.12 236.921 88.016 237.554 85.6464C238.188 83.2769 238.045 80.7666 237.147 78.4841C236.306 76.345 234.841 74.5081 232.943 73.2119C231.045 71.9157 228.801 71.2201 226.502 71.2151Z" fill="#1D1E1B"/>
<path d="M189.744 116.777C189.744 116.777 182.107 108.794 186.329 101.656C190.55 94.5183 192.435 95.3385 194.411 91.4269C196.387 87.5154 204.031 84.1142 210.494 86.6514C210.494 86.6514 219.291 81.227 226.563 83.8335C233.836 86.4399 236.111 90.2349 237.696 96.2571C239.282 102.279 241.156 105.061 242.414 109.257C243.671 113.453 245.071 125.041 228.484 131.964C211.898 138.887 189.744 116.777 189.744 116.777Z" fill="#382256"/>
<path d="M221.556 133.832C215.964 133.832 209.544 131.678 202.6 127.431C197.839 124.475 193.399 121.034 189.348 117.162C189.024 116.826 181.474 108.795 185.856 101.384C188.237 97.3561 189.899 95.8104 191.237 94.5637C192.352 93.6347 193.265 92.4871 193.92 91.1917C196.107 86.8573 203.916 83.6566 210.437 86.0553C211.928 85.1877 219.893 80.8678 226.747 83.3248C234.231 86.0115 236.622 90.0507 238.223 96.1276C238.958 98.8707 239.906 101.552 241.059 104.148C241.778 105.767 242.405 107.426 242.936 109.116C244.03 112.762 246.217 125.156 228.694 132.487C226.427 133.405 224.001 133.862 221.556 133.832ZM190.139 116.393C190.573 116.823 212.3 138.127 228.274 131.459C244.959 124.493 242.914 112.824 241.894 109.412C241.375 107.76 240.767 106.137 240.071 104.552C238.899 101.912 237.933 99.1839 237.184 96.3937C235.638 90.5355 233.462 86.8791 226.397 84.3638C219.471 81.874 210.882 87.0797 210.794 87.1344L210.565 87.2766L210.31 87.1781C203.963 84.6883 196.709 88.1441 194.915 91.6911C194.201 93.1023 193.209 94.3547 191.999 95.3731C190.715 96.5688 189.115 98.0561 186.815 101.935C182.881 108.562 189.932 116.174 190.139 116.393Z" fill="#1D1E1B"/>
<path d="M220.264 111.737H220.301C225.619 112.291 231.266 107.614 231.503 107.417C231.589 107.344 231.643 107.24 231.654 107.128C231.664 107.015 231.629 106.903 231.558 106.816C231.522 106.772 231.478 106.736 231.428 106.71C231.379 106.683 231.324 106.667 231.268 106.662C231.212 106.657 231.156 106.663 231.102 106.68C231.049 106.697 230.999 106.724 230.956 106.761C230.901 106.808 225.346 111.405 220.384 110.888C220.277 110.879 220.169 110.912 220.085 110.979C220 111.046 219.944 111.143 219.928 111.251C219.913 111.358 219.938 111.467 220 111.556C220.061 111.645 220.155 111.707 220.26 111.73L220.264 111.737Z" fill="black"/>
<path d="M209.873 138.416L208.907 144.387C208.907 144.387 216.982 158.185 231.119 144.723C231.119 144.723 226.956 136.466 225.414 122.606C225.414 122.606 231.487 122.165 231.312 116.773C231.137 111.382 227.032 109.847 224.327 110.94C224.327 110.94 213.573 116.354 206.541 94.4922C206.541 94.4922 195.528 97.2699 191.828 107.725C188.128 118.18 188.467 130.95 196.203 135.722C203.938 140.494 209.873 138.416 209.873 138.416Z" fill="#FFCDB2"/>
<path d="M219.233 151.169C218.711 151.17 218.19 151.133 217.673 151.06C211.735 150.222 208.56 144.892 208.417 144.666L208.319 144.495L209.183 139.154C207.233 139.551 202.144 140.014 195.895 136.158C187.587 131.032 187.69 117.715 191.299 107.512C195.053 96.9072 206.278 93.9617 206.391 93.9362L206.886 93.8086L207.047 94.297C210.546 105.179 214.939 108.995 218.012 110.279C221.435 111.715 224.042 110.439 224.067 110.424L224.111 110.403C224.917 110.098 225.784 109.988 226.64 110.082C227.497 110.175 228.319 110.47 229.04 110.942C230.764 112.076 231.759 114.135 231.843 116.746C232 121.576 227.592 122.793 226.01 123.074C227.571 136.347 231.559 144.396 231.602 144.48L231.785 144.845L231.489 145.125C227.272 149.139 223.16 151.169 219.233 151.169ZM209.464 144.272C210.032 145.143 212.974 149.299 217.848 149.977C221.785 150.532 226.025 148.72 230.447 144.6C229.634 142.829 226.222 134.842 224.866 122.669L224.8 122.104L225.369 122.061C225.595 122.061 230.917 121.587 230.76 116.778C230.669 113.906 229.452 112.517 228.449 111.857C227.879 111.482 227.228 111.246 226.55 111.169C225.872 111.092 225.185 111.175 224.545 111.412C224.22 111.569 221.337 112.852 217.6 111.288C212.916 109.327 209.074 103.895 206.179 95.1391C204.039 95.8281 195.458 99.0726 192.327 107.88C188.747 117.992 189.02 130.631 196.468 135.221C203.861 139.785 209.617 137.915 209.675 137.893L210.536 137.601L209.464 144.272Z" fill="#1D1E1B"/>
<path d="M225.75 120.124C225.826 120.138 225.904 120.131 225.976 120.105C226.049 120.079 226.113 120.033 226.162 119.974C227.62 118.188 228.12 116.617 227.668 115.297C227.022 113.394 224.645 112.818 224.547 112.793C224.437 112.767 224.321 112.785 224.224 112.845C224.128 112.904 224.059 113 224.033 113.11C224.007 113.22 224.026 113.336 224.085 113.433C224.145 113.529 224.24 113.598 224.35 113.624C224.376 113.624 226.373 114.123 226.862 115.574C227.208 116.599 226.749 117.896 225.498 119.435C225.428 119.522 225.395 119.634 225.406 119.746C225.418 119.858 225.473 119.961 225.56 120.033C225.615 120.078 225.68 120.109 225.75 120.124Z" fill="black"/>
<path d="M204.218 111.46C210.174 113.101 218.457 110.928 219.725 113.167C220.994 115.405 219.765 118.234 216.444 118.755C213.123 119.276 209.901 118.992 203.295 118.077C196.69 117.162 190.288 115.777 191.265 112.27C192.242 108.763 195.461 109.047 204.218 111.46Z" fill="#FFB49F"/>
<path d="M227.846 124.723C228.929 124.723 229.807 123.843 229.807 122.758C229.807 121.673 228.929 120.793 227.846 120.793C226.763 120.793 225.885 121.673 225.885 122.758C225.885 123.843 226.763 124.723 227.846 124.723Z" fill="#07ACEE"/>
<path d="M227.847 120.793C228.306 120.79 228.752 120.947 229.107 121.238C229.462 121.53 229.704 121.936 229.791 122.387C229.877 122.838 229.803 123.305 229.582 123.707C229.36 124.109 229.004 124.42 228.576 124.588C228.344 124.678 228.097 124.724 227.847 124.723C227.326 124.723 226.827 124.516 226.458 124.147C226.09 123.779 225.883 123.279 225.883 122.758C225.883 122.237 226.09 121.737 226.458 121.368C226.827 121 227.326 120.793 227.847 120.793ZM227.847 119.699C227.464 119.698 227.084 119.77 226.728 119.911C226.065 120.171 225.513 120.655 225.169 121.279C224.824 121.902 224.708 122.627 224.841 123.327C224.973 124.027 225.346 124.659 225.895 125.114C226.444 125.568 227.135 125.817 227.847 125.816C228.23 125.817 228.61 125.746 228.967 125.605C229.72 125.306 230.324 124.721 230.647 123.977C230.97 123.234 230.986 122.393 230.691 121.639C230.469 121.065 230.079 120.573 229.571 120.226C229.063 119.88 228.462 119.696 227.847 119.699Z" fill="#1D1D1B"/>
<path d="M206.718 131.715C205.162 131.715 203.736 130.956 202.486 129.458C202.433 129.404 202.391 129.339 202.364 129.268C202.337 129.197 202.325 129.121 202.329 129.045C202.333 128.969 202.352 128.895 202.386 128.827C202.42 128.759 202.467 128.699 202.526 128.65C202.584 128.601 202.652 128.565 202.725 128.544C202.798 128.522 202.874 128.516 202.95 128.526C203.025 128.536 203.098 128.562 203.163 128.601C203.228 128.64 203.284 128.692 203.328 128.754C204.36 129.994 205.515 130.621 206.718 130.621H206.747C209.223 130.603 211.293 128.069 211.315 128.044C211.406 127.93 211.539 127.858 211.684 127.843C211.828 127.828 211.973 127.87 212.086 127.962C212.199 128.053 212.271 128.186 212.287 128.33C212.302 128.475 212.26 128.619 212.168 128.733C212.07 128.853 209.744 131.693 206.755 131.715H206.718Z" fill="#1D1D1B"/>
<path d="M199.343 121.938C199.273 121.939 199.203 121.925 199.139 121.898C199.005 121.843 198.897 121.738 198.841 121.605C198.784 121.471 198.782 121.321 198.836 121.187L202.54 112.051C202.568 111.983 202.608 111.921 202.66 111.869C202.712 111.817 202.774 111.776 202.842 111.748C202.91 111.72 202.983 111.706 203.056 111.707C203.129 111.708 203.202 111.723 203.269 111.752C203.336 111.779 203.397 111.818 203.448 111.869C203.5 111.919 203.54 111.979 203.568 112.045C203.596 112.111 203.61 112.182 203.61 112.254C203.61 112.326 203.596 112.397 203.568 112.463L199.864 121.599C199.822 121.701 199.75 121.789 199.657 121.849C199.564 121.91 199.454 121.941 199.343 121.938Z" fill="#1D1D1B"/>
<path d="M194.299 106.005C194.19 106.003 194.084 105.969 193.994 105.907C193.904 105.844 193.835 105.756 193.796 105.654C193.757 105.552 193.749 105.441 193.774 105.334C193.799 105.228 193.855 105.131 193.935 105.057C194.121 104.882 198.539 100.865 201.452 103.781C201.548 103.885 201.601 104.022 201.598 104.163C201.596 104.305 201.538 104.44 201.438 104.54C201.338 104.64 201.203 104.698 201.061 104.7C200.92 104.703 200.783 104.65 200.679 104.554C198.492 102.367 194.715 105.822 194.679 105.859C194.576 105.954 194.44 106.007 194.299 106.005Z" fill="black"/>
<path d="M216.682 109.07C216.597 109.07 216.514 109.051 216.439 109.014C216.364 108.976 216.298 108.922 216.248 108.855C215.183 107.473 214.061 106.7 212.927 106.555C212.217 106.459 211.497 106.625 210.9 107.021C210.785 107.11 210.64 107.15 210.496 107.132C210.352 107.114 210.222 107.039 210.133 106.925C210.044 106.81 210.004 106.665 210.022 106.521C210.04 106.377 210.114 106.246 210.229 106.157C211.056 105.582 212.067 105.337 213.065 105.468C214.505 105.654 215.869 106.562 217.112 108.188C217.174 108.268 217.213 108.365 217.224 108.467C217.234 108.568 217.216 108.671 217.171 108.763C217.127 108.855 217.057 108.932 216.97 108.986C216.884 109.041 216.784 109.07 216.682 109.07Z" fill="black"/>
<path d="M208.986 138.635C208.986 138.635 213.911 137.41 216.602 135.391L208.986 138.635Z" fill="#4BD657"/>
<path d="M208.986 139.181C208.841 139.198 208.695 139.157 208.58 139.067C208.465 138.977 208.39 138.844 208.373 138.699C208.356 138.554 208.397 138.408 208.487 138.293C208.577 138.179 208.709 138.104 208.854 138.087C208.902 138.087 213.703 136.862 216.273 134.934C216.33 134.891 216.396 134.859 216.465 134.841C216.535 134.823 216.607 134.82 216.678 134.83C216.749 134.84 216.818 134.864 216.879 134.901C216.941 134.937 216.995 134.986 217.038 135.043C217.081 135.1 217.113 135.166 217.13 135.235C217.148 135.305 217.152 135.377 217.142 135.448C217.132 135.52 217.108 135.588 217.071 135.65C217.035 135.711 216.986 135.765 216.929 135.809C214.18 137.872 209.321 139.089 209.117 139.148C209.075 139.164 209.031 139.175 208.986 139.181Z" fill="black"/>
<path d="M223.333 108.034H223.297C213.655 107.669 210.148 95.4387 210.002 94.9101C209.937 94.6771 209.968 94.4279 210.087 94.2173C210.206 94.0067 210.403 93.852 210.636 93.7872C210.869 93.7225 211.119 93.7528 211.329 93.8718C211.54 93.9908 211.694 94.1885 211.759 94.4215C211.788 94.5345 215.058 105.897 223.366 106.207C223.608 106.212 223.838 106.312 224.006 106.486C224.174 106.66 224.265 106.893 224.261 107.135C224.257 107.377 224.157 107.607 223.983 107.775C223.809 107.942 223.575 108.034 223.333 108.03V108.034Z" fill="white"/>
<path d="M193.38 120.793C191.874 120.791 190.403 120.343 189.153 119.505C187.902 118.667 186.928 117.477 186.353 116.086C185.778 114.695 185.628 113.164 185.922 111.688C186.217 110.212 186.942 108.856 188.007 107.792C189.072 106.727 190.428 106.003 191.905 105.709C193.381 105.415 194.911 105.566 196.302 106.141C197.693 106.717 198.883 107.692 199.72 108.943C200.557 110.194 201.005 111.665 201.006 113.17C201.006 114.172 200.809 115.163 200.425 116.088C200.042 117.013 199.48 117.854 198.772 118.562C198.064 119.27 197.223 119.831 196.298 120.214C195.373 120.597 194.381 120.794 193.38 120.793ZM193.38 106.66C192.09 106.662 190.83 107.047 189.758 107.765C188.687 108.483 187.853 109.503 187.361 110.696C186.87 111.888 186.743 113.2 186.997 114.465C187.25 115.729 187.873 116.89 188.787 117.801C189.7 118.711 190.864 119.33 192.129 119.58C193.395 119.829 194.706 119.698 195.897 119.203C197.087 118.707 198.104 117.869 198.819 116.796C199.534 115.722 199.915 114.46 199.912 113.17C199.908 111.441 199.217 109.785 197.992 108.564C196.768 107.344 195.109 106.659 193.38 106.66Z" fill="#1D1E1B"/>
<path d="M210.541 123.484C209.035 123.484 207.563 123.038 206.31 122.201C205.058 121.364 204.082 120.175 203.506 118.783C202.929 117.392 202.778 115.861 203.072 114.383C203.366 112.906 204.091 111.549 205.156 110.484C206.221 109.419 207.578 108.694 209.055 108.4C210.533 108.106 212.064 108.257 213.455 108.834C214.847 109.41 216.036 110.386 216.873 111.638C217.71 112.891 218.156 114.363 218.156 115.869C218.154 117.888 217.352 119.824 215.924 121.252C214.496 122.68 212.56 123.483 210.541 123.484ZM210.541 109.348C209.251 109.348 207.99 109.73 206.918 110.447C205.845 111.163 205.009 112.182 204.516 113.374C204.022 114.565 203.893 115.877 204.145 117.142C204.396 118.407 205.017 119.569 205.93 120.481C206.842 121.393 208.004 122.014 209.269 122.265C210.534 122.517 211.845 122.388 213.037 121.894C214.229 121.401 215.247 120.565 215.964 119.492C216.68 118.42 217.063 117.159 217.063 115.869C217.061 114.14 216.373 112.482 215.15 111.26C213.928 110.037 212.27 109.349 210.541 109.348Z" fill="#1D1E1B"/>
<path d="M217.611 116.417C217.528 116.416 217.447 116.397 217.373 116.361C217.298 116.326 217.233 116.273 217.181 116.209C217.092 116.095 217.051 115.95 217.068 115.806C217.085 115.662 217.159 115.53 217.272 115.44L223.666 110.391C223.723 110.346 223.787 110.313 223.856 110.294C223.926 110.274 223.998 110.269 224.07 110.277C224.141 110.286 224.21 110.308 224.273 110.343C224.336 110.378 224.391 110.426 224.435 110.482C224.48 110.539 224.513 110.603 224.532 110.673C224.552 110.742 224.558 110.814 224.549 110.886C224.541 110.957 224.518 111.026 224.483 111.089C224.448 111.152 224.401 111.207 224.344 111.251L217.95 116.3C217.853 116.376 217.734 116.417 217.611 116.417Z" fill="#1D1E1B"/>
<path d="M203.491 115.924C203.385 115.923 203.282 115.892 203.193 115.834C203.105 115.776 203.035 115.693 202.992 115.596C202.525 114.524 200.473 114.867 200.44 114.867C200.299 114.889 200.155 114.855 200.039 114.773C199.923 114.69 199.843 114.566 199.818 114.425C199.792 114.285 199.822 114.14 199.902 114.022C199.981 113.904 200.104 113.821 200.243 113.792C200.364 113.77 203.16 113.281 203.983 115.162C204.014 115.229 204.03 115.3 204.032 115.373C204.034 115.446 204.021 115.519 203.995 115.587C203.968 115.655 203.928 115.717 203.878 115.769C203.827 115.821 203.766 115.863 203.699 115.891C203.633 115.917 203.562 115.928 203.491 115.924Z" fill="#1D1E1B"/>
<path d="M235.827 85.0592H235.801C235.682 85.0559 235.564 85.0291 235.454 84.9802C235.345 84.9313 235.247 84.8613 235.164 84.7743C235.082 84.6872 235.018 84.585 234.975 84.4731C234.932 84.3612 234.912 84.2419 234.915 84.1222C235.014 80.67 234.15 78.0052 232.364 76.2007C229.703 73.5396 225.802 73.6125 225.769 73.6162C225.527 73.6239 225.292 73.5353 225.116 73.3698C224.94 73.2044 224.836 72.9757 224.829 72.734C224.821 72.4923 224.909 72.2573 225.075 72.0809C225.24 71.9045 225.469 71.8012 225.711 71.7935C225.9 71.7935 230.406 71.6805 233.636 74.8994C235.823 77.0684 236.862 80.1889 236.749 84.1733C236.741 84.4122 236.641 84.6386 236.468 84.8042C236.296 84.9697 236.066 85.0613 235.827 85.0592Z" fill="white"/>
<path d="M241.547 86.7147C241.481 86.7131 241.416 86.7008 241.354 86.6782C241.219 86.6259 241.109 86.5223 241.05 86.3898C240.991 86.2574 240.986 86.1069 241.037 85.971C244.209 77.7323 238.441 73.3286 238.194 73.1427C238.077 73.0562 238 72.9269 237.979 72.7833C237.957 72.6398 237.994 72.4936 238.081 72.3771C238.167 72.2606 238.296 72.1833 238.44 72.1621C238.584 72.1409 238.73 72.1776 238.846 72.2641C238.912 72.3152 245.535 77.3276 242.058 86.361C242.019 86.465 241.949 86.5546 241.858 86.6178C241.767 86.681 241.658 86.7149 241.547 86.7147Z" fill="#1D1D1B"/>
<path d="M198.133 114.643C198.029 114.643 197.926 114.612 197.839 114.556C197.751 114.499 197.681 114.418 197.638 114.322C197.482 113.938 197.249 113.59 196.955 113.298C196.66 113.006 196.31 112.776 195.924 112.624C194.298 112.015 192.326 112.901 192.304 112.912C192.239 112.941 192.168 112.958 192.097 112.961C192.025 112.963 191.953 112.952 191.886 112.927C191.818 112.902 191.757 112.864 191.704 112.815C191.651 112.766 191.609 112.707 191.579 112.642C191.549 112.577 191.532 112.506 191.53 112.434C191.527 112.362 191.538 112.291 191.563 112.223C191.589 112.156 191.627 112.094 191.676 112.041C191.725 111.989 191.783 111.946 191.849 111.916C191.943 111.873 194.24 110.823 196.3 111.596C196.823 111.796 197.3 112.101 197.701 112.492C198.102 112.883 198.42 113.352 198.633 113.87C198.671 113.954 198.687 114.045 198.68 114.137C198.674 114.228 198.644 114.316 198.594 114.393C198.544 114.47 198.476 114.533 198.396 114.577C198.315 114.621 198.225 114.643 198.133 114.643Z" fill="#1D1D1B"/>
<path d="M213.614 116.331C213.49 116.331 213.369 116.288 213.272 116.211C210.261 113.801 207.228 115.872 207.199 115.894C207.08 115.977 206.932 116.009 206.79 115.984C206.647 115.959 206.52 115.878 206.437 115.759C206.353 115.64 206.321 115.493 206.346 115.35C206.372 115.207 206.453 115.08 206.571 114.997C206.608 114.971 210.312 112.445 213.957 115.361C214.045 115.433 214.108 115.53 214.139 115.639C214.17 115.748 214.166 115.863 214.129 115.97C214.091 116.077 214.022 116.17 213.93 116.236C213.838 116.301 213.728 116.337 213.614 116.338V116.331Z" fill="#1D1D1B"/>
<path d="M204.001 145.33C204.001 145.33 160.296 144.003 144.405 211.877C123.214 215.851 108.559 217.313 101.691 242.007L125.544 254.245C125.544 254.245 144.416 261.535 168.585 246.629" fill="#07ACEE"/>
<path d="M137.727 256.585C130.129 256.585 125.529 254.843 125.332 254.762L125.277 254.737L101.44 242.488C101.328 242.431 101.239 242.336 101.188 242.22C101.138 242.105 101.129 241.975 101.163 241.854C107.776 218.071 121.774 215.49 141.15 211.918L143.949 211.4C147.595 196.005 152.975 182.929 159.964 172.532C165.607 164.148 172.303 157.455 179.864 152.683C192.772 144.532 203.559 144.765 204.011 144.776C204.083 144.778 204.154 144.794 204.22 144.823C204.285 144.852 204.345 144.894 204.394 144.946C204.443 144.999 204.482 145.06 204.508 145.127C204.533 145.194 204.546 145.266 204.544 145.337C204.537 145.482 204.474 145.619 204.369 145.718C204.263 145.817 204.124 145.872 203.979 145.87C203.873 145.87 193.017 145.647 180.385 153.645C168.72 161.038 153.088 177.158 144.934 211.998C144.908 212.101 144.854 212.194 144.777 212.267C144.7 212.34 144.604 212.39 144.5 212.41L141.347 212.993C121.778 216.602 108.807 218.993 102.34 241.719L125.751 253.749C126.539 254.037 145.043 260.5 168.286 246.17C168.41 246.094 168.559 246.071 168.7 246.104C168.841 246.138 168.963 246.227 169.039 246.351C169.115 246.474 169.139 246.623 169.105 246.764C169.071 246.905 168.982 247.027 168.858 247.103C156.267 254.865 145.123 256.541 137.993 256.582L137.727 256.585Z" fill="#1D1D1B"/>
<path d="M171.22 194.332C171.22 194.332 163.276 213.533 168.573 246.644L171.22 194.332Z" fill="#07ACEE"/>
<path d="M168.559 247.192C168.429 247.193 168.303 247.147 168.204 247.063C168.105 246.978 168.04 246.861 168.02 246.733C162.756 213.851 170.623 194.315 170.703 194.122C170.729 194.054 170.769 193.992 170.82 193.94C170.87 193.888 170.931 193.846 170.998 193.817C171.065 193.789 171.137 193.774 171.21 193.773C171.283 193.773 171.355 193.787 171.422 193.815C171.489 193.843 171.551 193.884 171.602 193.936C171.653 193.988 171.693 194.05 171.72 194.117C171.747 194.185 171.761 194.257 171.759 194.33C171.758 194.403 171.742 194.475 171.713 194.541C171.632 194.731 163.89 214.008 169.099 246.558C169.11 246.629 169.108 246.702 169.091 246.772C169.074 246.842 169.044 246.908 169.001 246.966C168.959 247.024 168.906 247.074 168.844 247.111C168.783 247.149 168.714 247.174 168.643 247.185L168.559 247.192Z" fill="#1D1D1B"/>
<path d="M160.399 199.573C160.684 198.323 159.904 197.078 158.655 196.793C157.407 196.508 156.164 197.29 155.878 198.541C155.593 199.791 156.373 201.036 157.622 201.321C158.87 201.606 160.113 200.823 160.399 199.573Z" fill="#51CEF4"/>
<path d="M295.951 140.416L302.713 178.059C302.713 178.059 313.952 183.892 323.492 177.137L326.864 139.848L295.951 140.416Z" fill="#4BD657"/>
<path d="M312.961 180.924C309.327 180.891 305.741 180.083 302.444 178.555L302.207 178.431L295.303 139.884L327.459 139.297L324.011 177.446L323.803 177.592C320.627 179.812 316.835 180.977 312.961 180.924ZM303.184 177.698C304.825 178.456 314.602 182.568 322.968 176.841L326.249 140.412L296.593 140.952L303.184 177.698Z" fill="#1D1E1B"/>
<path d="M154.865 190.814C154.683 190.814 154.503 190.769 154.343 190.682C154.183 190.595 154.047 190.469 153.948 190.316C153.849 190.163 153.789 189.988 153.775 189.806C153.761 189.625 153.792 189.442 153.866 189.276C166.301 161.483 180.113 155.76 180.711 155.53C180.981 155.423 181.282 155.428 181.548 155.543C181.814 155.658 182.024 155.875 182.131 156.144C182.238 156.414 182.233 156.715 182.118 156.981C182.003 157.248 181.786 157.457 181.517 157.564C181.371 157.623 167.879 163.309 155.864 190.169C155.777 190.361 155.637 190.525 155.46 190.639C155.282 190.754 155.076 190.814 154.865 190.814Z" fill="white"/>
<path d="M297.715 150.255L301.287 170.207C308.327 170.52 317.462 169.573 324.254 168.654L325.96 149.785C315.814 151.145 305.09 150.806 297.715 150.255Z" fill="white"/>
<path d="M304.193 170.817C303.187 170.817 302.206 170.795 301.277 170.755L300.839 170.733L297.062 149.659L297.766 149.71C304.999 150.25 315.749 150.607 325.898 149.243L326.58 149.152L324.757 169.14L324.323 169.198C318.625 169.968 310.839 170.817 304.193 170.817ZM301.75 169.68C308.615 169.931 317.389 169.02 323.751 168.171L325.355 150.417C315.64 151.646 305.48 151.354 298.378 150.855L301.75 169.68Z" fill="#1D1E1B"/>
<path d="M298.336 134.404L300.848 131.389C301.218 130.941 301.734 130.638 302.306 130.533C305.022 130.037 313.439 128.787 321.751 130.445C322.124 130.521 322.476 130.68 322.779 130.911C323.082 131.142 323.329 131.439 323.5 131.779L324.813 134.404H298.336Z" fill="white"/>
<path d="M325.725 134.949H297.178L300.459 131.037C300.916 130.49 301.551 130.119 302.252 129.991C304.717 129.543 313.415 128.212 321.905 129.907C322.359 130 322.787 130.194 323.156 130.476C323.524 130.758 323.825 131.119 324.034 131.533L325.725 134.949ZM299.515 133.855H323.939L323.02 132.033C322.886 131.767 322.694 131.535 322.458 131.355C322.222 131.174 321.948 131.05 321.657 130.99C313.356 129.335 304.83 130.625 302.416 131.077C301.967 131.161 301.561 131.398 301.268 131.748L299.515 133.855Z" fill="#1D1E1B"/>
<path d="M296.029 134.677L293.579 139.227C293.438 139.489 293.369 139.784 293.378 140.081C293.387 140.379 293.474 140.669 293.631 140.922C293.788 141.175 294.008 141.382 294.27 141.523C294.532 141.664 294.827 141.733 295.125 141.724L327.956 140.681C328.257 140.672 328.551 140.582 328.806 140.421C329.062 140.259 329.269 140.032 329.407 139.764C329.545 139.495 329.609 139.195 329.591 138.893C329.574 138.592 329.476 138.3 329.308 138.049L326.585 133.966C326.427 133.726 326.21 133.531 325.955 133.399C325.699 133.266 325.414 133.202 325.127 133.212L297.472 133.788C297.175 133.796 296.885 133.883 296.631 134.039C296.378 134.195 296.17 134.415 296.029 134.677Z" fill="white"/>
<path d="M295.056 142.251C294.669 142.25 294.288 142.148 293.952 141.957C293.616 141.765 293.335 141.489 293.136 141.157C292.938 140.824 292.83 140.446 292.821 140.059C292.812 139.672 292.904 139.289 293.087 138.948L295.537 134.399C295.725 134.05 296.002 133.757 296.34 133.55C296.678 133.343 297.065 133.23 297.462 133.221L325.12 132.645C325.496 132.636 325.869 132.722 326.203 132.896C326.537 133.07 326.822 133.326 327.03 133.64L329.753 137.727C329.974 138.059 330.102 138.445 330.124 138.844C330.146 139.242 330.061 139.639 329.878 139.994C329.696 140.349 329.421 140.649 329.084 140.862C328.747 141.076 328.358 141.195 327.959 141.208L295.132 142.251H295.056ZM325.167 133.739H325.141L297.498 134.311C297.295 134.316 297.097 134.374 296.923 134.479C296.75 134.585 296.608 134.734 296.51 134.913L294.06 139.462C293.965 139.64 293.918 139.839 293.924 140.041C293.93 140.242 293.989 140.438 294.095 140.61C294.201 140.781 294.351 140.922 294.528 141.017C294.706 141.113 294.905 141.16 295.107 141.154L327.938 140.111C328.142 140.104 328.34 140.043 328.513 139.934C328.686 139.825 328.826 139.671 328.92 139.489C329.014 139.308 329.057 139.104 329.046 138.9C329.035 138.696 328.969 138.499 328.856 138.328L326.133 134.245C326.028 134.089 325.885 133.961 325.719 133.873C325.552 133.784 325.366 133.738 325.178 133.739H325.167Z" fill="#1D1E1B"/>
<path d="M324.738 174.993C324.738 174.993 333.986 177.049 338.047 167.013C342.108 156.977 342.746 146.413 337.285 140.055C331.825 133.698 325.292 133.264 320.998 135.247C316.703 137.23 315.894 141.9 319.463 146.763C319.463 146.763 312.766 151.604 319.521 159.784C316.707 160.769 314.272 169.281 322.562 170.6C322.868 172.237 323.621 173.758 324.738 174.993Z" fill="#FFCDB2"/>
<path d="M326.66 175.696C325.975 175.705 325.292 175.647 324.618 175.525L324.443 175.485L324.327 175.35C323.235 174.136 322.468 172.664 322.099 171.074C318.705 170.418 316.631 168.394 316.354 165.474C316.146 163.141 317.189 160.626 318.68 159.609C316.591 156.9 315.698 154.257 316.019 151.738C316.298 149.782 317.255 147.986 318.724 146.664C316.952 144.068 316.299 141.415 316.901 139.144C317.4 137.211 318.724 135.691 320.783 134.747C324.968 132.815 331.916 132.95 337.713 139.698C342.816 145.643 343.137 155.931 338.566 167.217C335.555 174.632 329.747 175.696 326.66 175.696ZM325.03 174.49C326.313 174.716 333.962 175.656 337.541 166.805C341.956 155.905 341.704 146.026 336.871 140.412C331.479 134.131 325.256 133.883 321.228 135.742C319.496 136.541 318.363 137.813 317.947 139.417C317.411 141.488 318.108 143.981 319.905 146.438L320.229 146.883L319.784 147.204C318.336 148.377 317.379 150.051 317.105 151.895C316.806 154.257 317.761 156.795 319.941 159.438L320.441 160.043L319.711 160.302C318.523 160.717 317.251 163.076 317.455 165.376C317.586 166.834 318.439 169.386 322.661 170.06L323.043 170.119L323.113 170.502C323.385 171.978 324.047 173.355 325.03 174.49Z" fill="black"/>
<path d="M334.793 150.496C334.719 150.497 334.645 150.482 334.577 150.454C334.509 150.425 334.447 150.382 334.396 150.329C334.137 150.059 328.1 143.927 318.669 147.474C318.601 147.505 318.527 147.522 318.453 147.523C318.378 147.524 318.304 147.51 318.235 147.482C318.165 147.453 318.103 147.411 318.051 147.357C317.999 147.304 317.958 147.24 317.932 147.17C317.906 147.1 317.894 147.026 317.897 146.951C317.901 146.876 317.919 146.803 317.952 146.736C317.985 146.669 318.031 146.609 318.088 146.56C318.145 146.512 318.211 146.476 318.283 146.454C328.413 142.641 335.121 149.501 335.187 149.574C335.261 149.651 335.312 149.748 335.331 149.854C335.351 149.959 335.339 150.068 335.297 150.167C335.255 150.265 335.185 150.349 335.095 150.408C335.005 150.466 334.9 150.497 334.793 150.496Z" fill="#1D1D1B"/>
<path d="M332.539 160.437C332.485 160.437 332.431 160.429 332.379 160.411C332.306 160.39 324.76 158.129 319.646 160.342C319.514 160.392 319.369 160.389 319.239 160.334C319.11 160.279 319.007 160.176 318.951 160.047C318.895 159.919 318.891 159.773 318.94 159.641C318.988 159.51 319.086 159.402 319.212 159.34C324.698 156.967 332.375 159.267 332.7 159.365C332.827 159.402 332.936 159.484 333.007 159.595C333.079 159.707 333.107 159.84 333.088 159.971C333.068 160.102 333.002 160.221 332.901 160.307C332.8 160.393 332.672 160.439 332.539 160.437Z" fill="#1D1D1B"/>
<path d="M326.342 171.679C324.899 171.667 323.463 171.461 322.074 171.067C321.938 171.022 321.826 170.926 321.761 170.799C321.695 170.673 321.681 170.525 321.723 170.389C321.764 170.253 321.857 170.138 321.982 170.069C322.107 170 322.253 169.983 322.391 170.02C322.438 170.02 327.192 171.449 329.999 169.74C330.123 169.664 330.272 169.641 330.414 169.676C330.555 169.71 330.676 169.8 330.752 169.924C330.827 170.048 330.85 170.197 330.816 170.338C330.781 170.48 330.692 170.601 330.568 170.677C329.325 171.442 327.764 171.679 326.342 171.679Z" fill="#1D1D1B"/>
<path d="M338.074 146.175C337.886 146.175 337.702 146.117 337.548 146.009C337.394 145.901 337.278 145.747 337.214 145.57C337.214 145.516 335.358 140.558 330.794 138.425C327.958 137.098 324.633 137.113 320.911 138.469C320.799 138.51 320.679 138.529 320.56 138.524C320.44 138.519 320.322 138.49 320.214 138.44C320.105 138.389 320.007 138.318 319.926 138.23C319.845 138.142 319.782 138.038 319.741 137.926C319.7 137.813 319.681 137.694 319.686 137.574C319.691 137.454 319.72 137.337 319.77 137.228C319.821 137.12 319.892 137.022 319.98 136.941C320.069 136.86 320.172 136.797 320.284 136.756C324.488 135.225 328.304 135.232 331.585 136.781C336.842 139.249 338.847 144.725 338.931 144.958C338.979 145.095 338.994 145.242 338.973 145.386C338.953 145.531 338.899 145.668 338.816 145.787C338.732 145.906 338.621 146.003 338.492 146.071C338.363 146.139 338.22 146.174 338.074 146.175Z" fill="white"/>
<path d="M334.706 154.892C334.564 154.892 334.425 154.858 334.299 154.795C334.172 154.732 334.062 154.64 333.977 154.528C333.769 154.247 329.012 147.991 320.93 150.788C320.701 150.866 320.451 150.851 320.233 150.745C320.016 150.639 319.849 150.451 319.77 150.222C319.692 149.994 319.707 149.743 319.813 149.526C319.919 149.308 320.107 149.142 320.335 149.063C329.715 145.819 335.391 153.372 335.446 153.438C335.517 153.534 335.568 153.643 335.596 153.76C335.625 153.876 335.63 153.996 335.612 154.115C335.594 154.233 335.552 154.346 335.49 154.449C335.428 154.551 335.346 154.64 335.249 154.71C335.093 154.829 334.902 154.893 334.706 154.892Z" fill="white"/>
<path d="M138.848 117.731C159.877 117.731 176.924 100.684 176.924 79.6545C176.924 58.6255 159.877 41.5781 138.848 41.5781C117.819 41.5781 100.771 58.6255 100.771 79.6545C100.771 100.684 117.819 117.731 138.848 117.731Z" fill="white"/>
<path d="M138.801 118.269C128.649 118.252 118.912 114.236 111.7 107.091C104.488 99.9466 100.381 90.2481 100.268 80.0968C100.155 69.9454 104.046 60.1582 111.098 52.855C118.149 45.5518 127.794 41.3205 137.943 41.0775C148.092 40.8345 157.928 44.5994 165.322 51.5568C172.715 58.5143 177.069 68.104 177.442 78.2491C177.816 88.3943 174.177 98.278 167.315 105.76C160.453 113.241 150.92 117.719 140.78 118.222C140.128 118.269 139.457 118.269 138.801 118.269ZM138.87 42.1163C138.239 42.1163 137.605 42.1345 136.967 42.1636C129.554 42.537 122.419 45.1 116.462 49.5285C110.506 53.9571 105.997 60.0524 103.505 67.0437C101.012 74.035 100.649 81.6084 102.46 88.8061C104.272 96.0038 108.177 102.503 113.682 107.481C119.187 112.46 126.045 115.694 133.388 116.775C140.731 117.856 148.23 116.736 154.936 113.556C161.642 110.376 167.255 105.278 171.064 98.9081C174.874 92.5381 176.709 85.1815 176.338 77.7685C175.842 68.1603 171.681 59.108 164.71 52.4766C157.74 45.8451 148.491 42.1397 138.87 42.1236V42.1163Z" fill="#1D1E1B"/>
<path d="M168.855 134.003C171.964 134.003 174.484 131.483 174.484 128.375C174.484 125.266 171.964 122.746 168.855 122.746C165.747 122.746 163.227 125.266 163.227 128.375C163.227 131.483 165.747 134.003 168.855 134.003Z" fill="white"/>
<path d="M168.855 134.55C167.634 134.55 166.44 134.188 165.424 133.509C164.409 132.831 163.617 131.866 163.15 130.738C162.682 129.609 162.56 128.368 162.798 127.17C163.037 125.972 163.625 124.871 164.488 124.008C165.352 123.144 166.452 122.556 167.65 122.318C168.848 122.08 170.09 122.202 171.218 122.669C172.347 123.137 173.311 123.928 173.99 124.944C174.668 125.959 175.03 127.153 175.03 128.375C175.025 130.011 174.372 131.578 173.215 132.735C172.058 133.892 170.491 134.544 168.855 134.55ZM168.855 123.293C167.85 123.293 166.867 123.591 166.032 124.149C165.196 124.708 164.545 125.501 164.16 126.43C163.775 127.358 163.675 128.38 163.871 129.366C164.067 130.352 164.551 131.257 165.262 131.968C165.972 132.678 166.878 133.163 167.864 133.359C168.849 133.555 169.871 133.454 170.8 133.069C171.728 132.685 172.522 132.033 173.08 131.198C173.639 130.362 173.937 129.38 173.937 128.375C173.931 127.029 173.394 125.739 172.442 124.788C171.49 123.836 170.201 123.299 168.855 123.293Z" fill="#1D1E1B"/>
<path d="M121.1 89.9058L127.366 100.933C127.656 101.443 128.083 101.861 128.599 102.14C129.114 102.419 129.698 102.548 130.283 102.512C135.568 102.147 150.041 99.9307 157.572 86.0635C157.821 85.5979 157.948 85.0767 157.94 84.5487C157.933 84.0208 157.791 83.5034 157.528 83.0452L149.625 69.0977" fill="#382256"/>
<path d="M130.095 103.066C129.445 103.064 128.806 102.891 128.244 102.564C127.681 102.237 127.215 101.768 126.891 101.203L120.621 90.1758L121.573 89.6363L127.843 100.664C128.08 101.088 128.433 101.437 128.861 101.667C129.289 101.898 129.775 102.001 130.26 101.965C135.892 101.601 149.781 99.282 157.104 85.8048C157.309 85.4203 157.412 84.9905 157.406 84.5553C157.4 84.12 157.283 83.6933 157.068 83.315L149.165 69.3676L150.116 68.8281L158.02 82.7755C158.325 83.3158 158.489 83.9243 158.497 84.5448C158.505 85.1652 158.357 85.7779 158.067 86.3262C150.484 100.285 136.143 102.676 130.332 103.059L130.095 103.066Z" fill="#1D1E1B"/>
<path d="M122.685 92.6945C122.685 92.6945 148.995 88.6264 151.776 72.8672L149.64 69.0977L121.1 89.9058L122.685 92.6945Z" fill="#050505"/>
<path d="M110.253 91.1428L124.106 66.6928C124.29 66.3635 124.581 66.1064 124.93 65.9637L153.124 54.3567C153.435 54.2286 153.778 54.1971 154.108 54.2663C154.437 54.3354 154.739 54.5021 154.972 54.7445C155.206 54.987 155.362 55.2941 155.419 55.626C155.476 55.9579 155.432 56.2992 155.293 56.6059L145.046 79.1567C144.871 79.5387 144.561 79.8415 144.174 80.0059L112.361 93.5123C112.039 93.6442 111.683 93.6729 111.344 93.5944C111.005 93.5158 110.699 93.334 110.468 93.0739C110.237 92.8138 110.092 92.4883 110.053 92.1424C110.015 91.7965 110.085 91.4472 110.253 91.1428Z" fill="#382256"/>
<path d="M111.693 94.2131C111.304 94.2105 110.923 94.1063 110.587 93.9109C110.252 93.7155 109.973 93.4358 109.779 93.0994C109.584 92.763 109.482 92.3816 109.48 91.9931C109.479 91.6047 109.579 91.2226 109.772 90.8849L123.624 66.4349C123.871 66.0006 124.256 65.6618 124.718 65.4726L152.911 53.8654C153.324 53.6963 153.779 53.6551 154.215 53.7471C154.652 53.839 155.051 54.06 155.36 54.3813C155.67 54.7026 155.876 55.1094 155.951 55.5491C156.027 55.9889 155.969 56.4412 155.784 56.8475L145.541 79.3981C145.308 79.9046 144.894 80.3063 144.381 80.5246L112.571 94.0309C112.294 94.1499 111.995 94.2119 111.693 94.2131ZM110.723 91.4244C110.605 91.63 110.555 91.8673 110.58 92.103C110.604 92.3386 110.702 92.5605 110.86 92.7373C111.017 92.9142 111.226 93.0372 111.458 93.0887C111.689 93.1403 111.931 93.118 112.148 93.0248L143.962 79.5184C144.223 79.4093 144.433 79.2047 144.549 78.9461L154.796 56.3954C154.891 56.189 154.922 55.9591 154.884 55.7352C154.846 55.5112 154.741 55.3038 154.584 55.1401C154.427 54.9764 154.224 54.864 154.001 54.8174C153.779 54.7708 153.548 54.7923 153.338 54.879L125.144 66.486C124.91 66.5821 124.715 66.7541 124.59 66.9744L110.723 91.4244Z" fill="#1D1E1B"/>
<path d="M142.027 78.5359C141.845 78.5359 141.665 78.4903 141.505 78.4033C141.345 78.3164 141.209 78.1908 141.11 78.0379C141.011 77.8851 140.951 77.7098 140.937 77.5281C140.923 77.3464 140.954 77.164 141.028 76.9975L149.529 57.9758C149.588 57.8446 149.672 57.7261 149.776 57.6274C149.88 57.5287 150.003 57.4516 150.137 57.4003C150.272 57.349 150.415 57.3246 150.558 57.3285C150.702 57.3325 150.843 57.3648 150.975 57.4234C151.106 57.4821 151.224 57.5659 151.323 57.6703C151.422 57.7747 151.499 57.8976 151.55 58.0318C151.601 58.166 151.626 58.309 151.622 58.4526C151.618 58.5962 151.586 58.7376 151.527 58.8688L143.044 77.9016C142.955 78.0948 142.811 78.2579 142.63 78.3706C142.449 78.4833 142.24 78.5407 142.027 78.5359Z" fill="white"/>
<path d="M164.264 84.3439C164.242 84.3611 164.218 84.3737 164.192 84.3812C164.165 84.3887 164.137 84.3909 164.11 84.3875C164.083 84.3841 164.057 84.3753 164.033 84.3615C164.009 84.3477 163.989 84.3293 163.972 84.3074C163.243 83.334 159.827 78.3506 162.798 74.7125C165.828 71.0051 170.454 78.0446 171.183 79.2548C171.212 79.3004 171.221 79.3554 171.21 79.4079C171.198 79.4605 171.166 79.5064 171.121 79.5356L167.18 82.0544C167.135 82.0824 167.082 82.092 167.03 82.0811C166.978 82.0702 166.933 82.0399 166.903 81.9962L165.15 79.3969C165.122 79.3559 165.081 79.3261 165.034 79.3131C164.986 79.3 164.936 79.3046 164.891 79.3259C164.847 79.3472 164.812 79.3839 164.792 79.4291C164.773 79.4743 164.77 79.5249 164.785 79.5719L165.853 82.8784C165.866 82.9177 165.867 82.9601 165.855 82.9998C165.843 83.0395 165.82 83.0747 165.788 83.1007L164.264 84.3439Z" fill="white"/>
<path d="M164.133 84.9354H164.042C163.942 84.9223 163.845 84.8891 163.758 84.8377C163.671 84.7863 163.595 84.7179 163.535 84.6366C162.773 83.6158 159.161 78.3263 162.376 74.371C162.674 73.9573 163.071 73.6251 163.531 73.4048C163.991 73.1844 164.499 73.0829 165.008 73.1097C167.903 73.2956 170.841 77.641 171.65 78.9715C171.755 79.1389 171.789 79.341 171.746 79.5337C171.702 79.7263 171.584 79.8938 171.417 79.9995L167.48 82.5185C167.315 82.6255 167.115 82.6633 166.922 82.6237C166.73 82.5842 166.561 82.4703 166.452 82.3071L166.054 81.7167L166.379 82.7154C166.425 82.86 166.427 83.015 166.384 83.1606C166.341 83.3062 166.255 83.4357 166.138 83.5321L164.611 84.7715C164.475 84.8789 164.306 84.9366 164.133 84.9354ZM164.815 74.1924C164.5 74.2034 164.192 74.2875 163.916 74.4381C163.639 74.5887 163.402 74.8016 163.222 75.06C160.728 78.1149 163.255 82.3253 164.202 83.6887L165.267 82.8247L164.268 79.7444C164.211 79.5718 164.218 79.3842 164.289 79.2166C164.359 79.0491 164.488 78.9128 164.652 78.8331C164.815 78.7533 165.002 78.7356 165.177 78.7832C165.353 78.8308 165.505 78.9405 165.606 79.0919L167.173 81.4141L170.542 79.2595C169.044 76.9338 166.751 74.3126 164.939 74.196L164.815 74.1924Z" fill="black"/>
<path d="M156.101 56.4019L155.084 56.8047L162.295 75.0081L163.312 74.6053L156.101 56.4019Z" fill="#1D1E1B"/>
<path d="M114.585 37.5312C114.585 37.5312 95.6285 45.1867 92.3477 70.7047L114.585 37.5312Z" fill="white"/>
<path d="M92.8905 70.7729L91.7969 70.6342C93.5139 57.2992 99.5434 48.8784 104.304 44.1612C109.47 39.0394 114.176 37.1036 114.373 37.0234L114.781 38.0368C114.734 38.0587 110.042 39.9907 105.037 44.9631C100.422 49.5673 94.5601 57.7587 92.8905 70.7729Z" fill="#1D1E1B"/>
<path d="M241.575 278.185L240.54 275.596C240.351 275.122 240.26 274.615 240.273 274.105C240.285 273.595 240.401 273.093 240.613 272.629L260.028 230.586C260.297 229.962 260.755 229.439 261.339 229.091C261.922 228.743 262.6 228.587 263.276 228.647C271.879 229.565 302.545 233.473 309.621 243.155C315.982 251.864 313.707 245.784 312.329 242.539C312.096 241.991 311.997 241.396 312.04 240.802C312.082 240.208 312.265 239.633 312.573 239.124C315.125 234.968 322.832 224.582 337.417 221.498C338.133 221.362 338.875 221.473 339.519 221.815C340.164 222.157 340.672 222.709 340.96 223.379L342.076 225.763C342.375 226.404 342.485 227.117 342.395 227.819C342.304 228.52 342.017 229.181 341.565 229.726L316.233 259.578C315.818 260.07 315.266 260.429 314.648 260.61L245.41 280.2C244.634 280.403 243.811 280.308 243.102 279.935C242.393 279.562 241.848 278.938 241.575 278.185Z" fill="white"/>
<path d="M244.593 280.853C243.826 280.84 243.08 280.598 242.452 280.158C241.823 279.717 241.341 279.099 241.068 278.382L240.029 275.793C239.813 275.251 239.709 274.67 239.724 274.086C239.739 273.502 239.872 272.927 240.116 272.396L259.532 230.349C259.851 229.624 260.389 229.016 261.071 228.612C261.753 228.208 262.544 228.027 263.334 228.097C272.484 229.074 302.898 233.022 310.061 242.828C311.84 245.263 312.784 246.309 313.269 246.761C312.899 245.385 312.411 244.044 311.811 242.751C311.543 242.123 311.429 241.441 311.478 240.76C311.527 240.079 311.737 239.419 312.092 238.836C314.76 234.502 322.561 224.076 337.289 220.974C338.126 220.813 338.994 220.942 339.748 221.339C340.503 221.737 341.1 222.379 341.441 223.161L342.557 225.548C342.902 226.283 343.03 227.102 342.926 227.907C342.822 228.712 342.49 229.471 341.97 230.094L316.634 259.947C316.149 260.522 315.505 260.941 314.782 261.15L245.544 280.74C245.234 280.821 244.914 280.859 244.593 280.853ZM242.081 277.973C242.302 278.603 242.752 279.126 243.341 279.44C243.929 279.753 244.615 279.833 245.26 279.665L314.498 260.074C315.012 259.928 315.471 259.629 315.814 259.218L341.149 229.365C341.531 228.9 341.774 228.336 341.85 227.739C341.926 227.142 341.833 226.536 341.58 225.99L340.464 223.602C340.226 223.046 339.806 222.586 339.273 222.3C338.739 222.014 338.125 221.918 337.53 222.027C323.218 225.053 315.635 235.187 313.036 239.401C312.776 239.837 312.623 240.329 312.587 240.835C312.552 241.342 312.635 241.849 312.832 242.317C314.873 247.122 314.578 247.786 314.024 248.088C313.47 248.391 312.704 248.296 309.179 243.473C302.278 234.028 272.258 230.149 263.217 229.183C262.654 229.133 262.089 229.264 261.605 229.556C261.121 229.849 260.742 230.287 260.523 230.809L241.108 272.859C240.924 273.257 240.824 273.689 240.813 274.128C240.802 274.567 240.882 275.003 241.046 275.411L242.081 277.973Z" fill="black"/>
<path d="M261.948 236.748L241.898 275.685C241.691 276.087 241.588 276.534 241.598 276.987C241.609 277.439 241.732 277.881 241.958 278.273C242.184 278.665 242.504 278.994 242.889 279.231C243.275 279.467 243.714 279.603 244.166 279.626L296.981 282.243L327.602 265.284L346.099 230.343C346.297 229.972 346.374 229.548 346.32 229.13C346.266 228.713 346.084 228.323 345.798 228.014C345.513 227.705 345.138 227.493 344.726 227.406C344.314 227.32 343.886 227.364 343.5 227.532L317.253 238.899C317.253 238.899 312.248 241.604 309.331 239.544L268.433 233.434C267.141 233.238 265.82 233.452 264.657 234.046C263.493 234.641 262.546 235.586 261.948 236.748Z" fill="#382256"/>
<path d="M297.105 282.802H296.949L244.134 280.185C243.59 280.159 243.062 279.996 242.597 279.712C242.133 279.428 241.747 279.032 241.475 278.561C241.204 278.089 241.054 277.557 241.042 277.013C241.029 276.468 241.154 275.93 241.403 275.446L261.453 236.509C262.102 235.249 263.129 234.224 264.39 233.578C265.652 232.932 267.084 232.698 268.485 232.908L309.511 239.035L309.62 239.112C312.223 240.935 316.911 238.456 316.962 238.43L317.006 238.408L343.271 227.042C343.761 226.831 344.304 226.778 344.825 226.888C345.347 226.999 345.821 227.268 346.183 227.66C346.545 228.051 346.776 228.545 346.846 229.074C346.915 229.602 346.819 230.139 346.57 230.611L327.997 265.695L327.855 265.775L297.105 282.802ZM267.494 233.917C266.448 233.918 265.423 234.207 264.531 234.751C263.638 235.296 262.913 236.076 262.434 237.005L242.384 275.942C242.219 276.264 242.137 276.622 242.146 276.983C242.155 277.345 242.255 277.698 242.437 278.011C242.618 278.324 242.875 278.586 243.184 278.774C243.494 278.961 243.845 279.068 244.207 279.084L296.865 281.694L327.209 264.889L345.633 230.093C345.777 229.822 345.833 229.512 345.793 229.208C345.753 228.903 345.62 228.618 345.412 228.393C345.203 228.167 344.93 228.012 344.629 227.948C344.329 227.884 344.016 227.915 343.734 228.037L317.487 239.396C317.068 239.619 312.216 242.116 309.124 240.071L268.35 233.983C268.067 233.939 267.78 233.917 267.494 233.917Z" fill="#1D1E1B"/>
<path d="M295.836 267.114C295.748 267.115 295.662 267.093 295.585 267.052C295.458 266.986 295.363 266.872 295.319 266.735C295.275 266.599 295.287 266.451 295.351 266.323L308.074 241.826C308.105 241.759 308.149 241.699 308.204 241.649C308.259 241.599 308.323 241.561 308.393 241.537C308.463 241.513 308.537 241.504 308.611 241.509C308.685 241.515 308.757 241.535 308.822 241.569C308.888 241.603 308.946 241.65 308.993 241.708C309.04 241.765 309.075 241.831 309.096 241.902C309.116 241.973 309.122 242.047 309.113 242.121C309.104 242.194 309.081 242.265 309.043 242.329L296.325 266.826C296.277 266.914 296.207 266.988 296.121 267.039C296.035 267.089 295.936 267.116 295.836 267.114Z" fill="black"/>
<path d="M302.628 267.248C302.546 267.249 302.464 267.23 302.391 267.193C302.261 267.13 302.161 267.018 302.113 266.881C302.065 266.744 302.073 266.594 302.136 266.464L314.147 241.522C314.21 241.391 314.323 241.29 314.46 241.242C314.597 241.194 314.748 241.202 314.879 241.265C315.01 241.328 315.11 241.44 315.158 241.577C315.207 241.714 315.198 241.865 315.135 241.996L303.105 266.938C303.063 267.029 302.995 267.106 302.911 267.161C302.827 267.216 302.728 267.246 302.628 267.248Z" fill="black"/>
<path d="M253.159 277.066L294.149 284.601L348.331 277.066C348.331 277.066 345.972 281.776 348.801 285.546L293.204 297.794L251.282 287.43C251.282 287.43 248.449 280.854 253.159 277.066Z" fill="white"/>
<path d="M293.205 298.352C293.162 298.357 293.117 298.357 293.074 298.352L251.151 287.984C251.071 287.963 250.996 287.924 250.933 287.87C250.87 287.815 250.82 287.748 250.787 287.671C250.758 287.602 247.852 280.646 252.832 276.662C252.893 276.613 252.964 276.578 253.041 276.559C253.117 276.54 253.196 276.538 253.273 276.552L294.175 284.076L348.269 276.549C348.368 276.536 348.468 276.55 348.559 276.59C348.65 276.629 348.729 276.693 348.787 276.774C348.845 276.854 348.88 276.949 348.888 277.048C348.897 277.147 348.878 277.247 348.834 277.336C348.812 277.38 346.669 281.798 349.254 285.243C349.308 285.316 349.343 285.402 349.356 285.493C349.369 285.583 349.358 285.675 349.326 285.761C349.295 285.847 349.243 285.923 349.174 285.983C349.105 286.043 349.022 286.084 348.933 286.103L293.34 298.356C293.295 298.359 293.25 298.358 293.205 298.352ZM251.68 286.967L293.212 297.233L347.894 285.185C346.217 282.345 346.932 279.243 347.46 277.737L294.218 285.145C294.161 285.154 294.101 285.154 294.044 285.145L253.306 277.653C249.671 280.77 251.239 285.783 251.68 286.967Z" fill="black"/>
<path d="M293.204 299.448C293.07 299.448 292.936 299.432 292.806 299.4L250.884 289.036C250.457 288.93 250.09 288.658 249.863 288.282C248.244 285.584 247.756 283.014 248.405 280.644C249.327 277.28 252.254 275.672 252.378 275.606C252.707 275.429 253.086 275.368 253.454 275.435L296.382 279.08L349.941 273.539C350.368 273.48 350.801 273.589 351.149 273.843C351.496 274.098 351.731 274.478 351.803 274.903C351.874 275.328 351.778 275.764 351.533 276.119C351.288 276.474 350.914 276.719 350.491 276.802L295.128 286.127C294.94 286.16 294.748 286.16 294.56 286.127L253.523 278.803C252.596 279.482 251.917 280.445 251.587 281.545C251.223 282.85 251.503 284.341 252.367 285.985L293.236 296.097L350.342 283.929C350.556 283.88 350.777 283.874 350.994 283.911C351.21 283.949 351.417 284.029 351.602 284.147C351.787 284.265 351.947 284.419 352.072 284.599C352.197 284.78 352.285 284.983 352.33 285.198C352.376 285.412 352.379 285.634 352.338 285.85C352.297 286.065 352.214 286.271 352.093 286.454C351.972 286.637 351.816 286.794 351.633 286.917C351.451 287.039 351.246 287.124 351.031 287.166L293.553 299.415C293.438 299.439 293.321 299.45 293.204 299.448Z" fill="#07ACEE"/>
<path d="M293.204 299.997C293.026 299.997 292.849 299.976 292.675 299.936L250.753 289.568C250.471 289.498 250.206 289.374 249.973 289.202C249.74 289.03 249.543 288.814 249.393 288.565C247.694 285.737 247.188 283.024 247.88 280.502C248.865 276.918 251.989 275.198 252.12 275.128C252.55 274.898 253.045 274.816 253.527 274.895L296.379 278.541L349.89 273.007C350.453 272.912 351.031 273.043 351.498 273.371C351.86 273.62 352.139 273.971 352.298 274.38C352.458 274.789 352.49 275.237 352.392 275.665C352.294 276.092 352.069 276.481 351.747 276.779C351.425 277.078 351.021 277.272 350.587 277.338L295.212 286.688C294.964 286.734 294.71 286.734 294.462 286.688L253.666 279.397C252.925 279.989 252.384 280.793 252.113 281.701C251.817 282.795 252.025 284.096 252.736 285.529L293.237 295.536L350.226 283.407C350.509 283.347 350.801 283.343 351.085 283.395C351.37 283.448 351.641 283.556 351.884 283.713C352.126 283.871 352.336 284.075 352.5 284.313C352.664 284.551 352.779 284.819 352.839 285.102C352.9 285.385 352.904 285.677 352.851 285.962C352.799 286.246 352.691 286.518 352.533 286.76C352.376 287.003 352.172 287.212 351.934 287.376C351.696 287.54 351.427 287.656 351.144 287.716L293.663 299.965C293.512 299.992 293.358 300.003 293.204 299.997ZM253.159 275.96C252.976 275.959 252.795 276.004 252.634 276.091C250.85 277.134 249.526 278.812 248.927 280.79C248.318 283.013 248.784 285.438 250.323 288C250.475 288.253 250.722 288.435 251.008 288.507L292.931 298.871C293.095 298.908 293.265 298.908 293.43 298.871L350.907 286.619C351.051 286.59 351.186 286.533 351.307 286.452C351.428 286.37 351.531 286.265 351.61 286.142C351.69 286.02 351.744 285.883 351.77 285.74C351.796 285.596 351.792 285.449 351.76 285.306C351.732 285.163 351.675 285.027 351.593 284.906C351.511 284.785 351.405 284.681 351.283 284.602C351.16 284.522 351.023 284.468 350.879 284.443C350.735 284.417 350.587 284.421 350.445 284.453L293.339 296.622C293.258 296.64 293.175 296.64 293.094 296.622L252.226 286.52C252.149 286.502 252.077 286.468 252.014 286.421C251.951 286.373 251.899 286.312 251.861 286.243C250.931 284.475 250.654 282.849 251.037 281.41C251.399 280.19 252.149 279.123 253.173 278.369C253.234 278.324 253.303 278.291 253.376 278.274C253.449 278.256 253.526 278.254 253.6 278.267L294.655 285.594C294.776 285.613 294.899 285.613 295.019 285.594L350.382 276.269C350.672 276.219 350.93 276.057 351.1 275.817C351.271 275.577 351.339 275.28 351.29 274.99C351.268 274.846 351.217 274.708 351.14 274.583C351.063 274.459 350.962 274.352 350.844 274.267C350.725 274.183 350.59 274.123 350.448 274.091C350.305 274.059 350.158 274.056 350.014 274.082L296.426 279.627C296.393 279.631 296.358 279.631 296.324 279.627L253.396 275.981H253.348C253.286 275.969 253.223 275.962 253.159 275.96Z" fill="#1D1D1B"/>
<path d="M251.573 268.179L314.639 262.711L349.249 264.074C349.681 264.09 350.103 264.211 350.478 264.427C350.853 264.643 351.169 264.948 351.4 265.314C352.336 266.819 353.259 269.634 350.445 273.075L297.221 282.028L252.32 276.246C252.166 276.229 252.02 276.166 251.902 276.064C251.785 275.962 251.701 275.828 251.661 275.677C251.622 275.527 251.629 275.368 251.681 275.222C251.734 275.075 251.83 274.948 251.956 274.857C253.29 273.899 254.143 272.218 251.132 269.543C251.012 269.445 250.925 269.313 250.881 269.164C250.837 269.016 250.839 268.858 250.887 268.71C250.935 268.563 251.026 268.433 251.148 268.339C251.271 268.244 251.419 268.188 251.573 268.179Z" fill="#4BD657"/>
<path d="M297.222 282.563L252.241 276.774C251.979 276.74 251.732 276.629 251.534 276.453C251.336 276.277 251.196 276.046 251.131 275.789C251.067 275.533 251.081 275.263 251.172 275.014C251.264 274.766 251.428 274.551 251.643 274.397C252.274 273.941 252.609 273.438 252.638 272.892C252.679 272.071 252.033 271.051 250.772 269.939C250.579 269.767 250.441 269.541 250.376 269.291C250.311 269.04 250.322 268.776 250.407 268.532C250.485 268.286 250.634 268.069 250.837 267.909C251.039 267.749 251.284 267.654 251.541 267.635L314.644 262.148H314.68L349.286 263.515C349.808 263.532 350.318 263.677 350.77 263.937C351.223 264.197 351.605 264.564 351.882 265.006C352.833 266.53 353.963 269.647 350.887 273.391L350.759 273.551L297.222 282.563ZM314.655 263.242L251.621 268.71C251.578 268.713 251.536 268.728 251.502 268.755C251.467 268.782 251.441 268.818 251.428 268.86C251.415 268.903 251.414 268.949 251.427 268.992C251.439 269.035 251.464 269.074 251.497 269.104C253.039 270.464 253.79 271.751 253.729 272.932C253.685 273.828 253.196 274.612 252.27 275.272C252.232 275.297 252.203 275.333 252.187 275.376C252.171 275.418 252.168 275.465 252.179 275.509C252.189 275.553 252.213 275.593 252.247 275.622C252.281 275.652 252.324 275.669 252.369 275.673L297.189 281.444L350.143 272.542C352.505 269.541 351.882 267.103 350.93 265.572C350.747 265.281 350.495 265.04 350.197 264.869C349.899 264.698 349.564 264.603 349.22 264.591L314.655 263.242Z" fill="black"/>
<path d="M249.627 268.352L297.382 274.122C297.382 274.122 303.011 278.427 296.722 282.069L249.638 275.872C249.638 275.872 252.922 273.532 249.627 268.352Z" fill="white"/>
<path d="M296.711 282.616H296.638L249.554 276.418C249.445 276.404 249.342 276.358 249.26 276.285C249.178 276.212 249.119 276.116 249.093 276.009C249.066 275.902 249.072 275.79 249.11 275.687C249.148 275.584 249.216 275.494 249.306 275.431C249.423 275.35 252.124 273.283 249.164 268.632C249.109 268.544 249.079 268.443 249.079 268.339C249.079 268.236 249.109 268.135 249.164 268.047C249.219 267.96 249.298 267.89 249.392 267.846C249.485 267.801 249.59 267.784 249.692 267.797L297.447 273.568C297.544 273.581 297.635 273.619 297.714 273.677C297.827 273.761 300.404 275.766 300.24 278.354C300.138 279.94 299.044 281.343 296.995 282.532C296.91 282.585 296.812 282.614 296.711 282.616ZM250.731 275.481L296.594 281.504C298.206 280.534 299.062 279.455 299.146 278.296C299.259 276.546 297.608 275.015 297.159 274.65L250.658 269.029C252.332 272.255 251.5 274.395 250.731 275.481Z" fill="black"/>
<path d="M300.68 274.01C300.556 274.006 300.437 273.96 300.343 273.879C300.249 273.798 300.186 273.687 300.163 273.566C300.15 273.495 300.152 273.422 300.168 273.352C300.184 273.282 300.213 273.216 300.255 273.158C300.297 273.099 300.35 273.05 300.411 273.012C300.472 272.975 300.54 272.95 300.611 272.939L346.966 265.323C347.111 265.3 347.26 265.335 347.378 265.422C347.497 265.508 347.577 265.638 347.6 265.783C347.624 265.928 347.588 266.076 347.502 266.195C347.416 266.314 347.286 266.394 347.141 266.417L300.79 274.032L300.68 274.01Z" fill="#1D1E1B"/>
<path d="M308.628 288.574C308.483 288.587 308.338 288.543 308.226 288.45C308.114 288.357 308.043 288.223 308.03 288.078C308.016 287.933 308.061 287.788 308.154 287.676C308.247 287.564 308.38 287.494 308.525 287.48L346.934 280.189C347.076 280.162 347.224 280.193 347.344 280.275C347.464 280.356 347.547 280.482 347.574 280.625C347.601 280.767 347.57 280.915 347.488 281.035C347.406 281.155 347.28 281.238 347.138 281.265L308.73 288.555C308.696 288.565 308.662 288.571 308.628 288.574Z" fill="#1D1E1B"/>
<path d="M293.966 296.49C293.848 296.49 293.733 296.451 293.639 296.38C293.544 296.309 293.475 296.21 293.442 296.097C291.637 289.921 294.171 286.214 294.28 286.057C294.364 285.938 294.491 285.857 294.634 285.832C294.778 285.807 294.925 285.84 295.044 285.924C295.163 286.007 295.243 286.135 295.268 286.278C295.293 286.421 295.26 286.569 295.177 286.688C295.151 286.72 292.844 290.151 294.491 295.801C294.516 295.883 294.521 295.969 294.506 296.053C294.491 296.137 294.457 296.217 294.406 296.285C294.355 296.353 294.289 296.409 294.212 296.447C294.136 296.485 294.052 296.505 293.966 296.505V296.49Z" fill="#1D1E1B"/>
<path d="M302.142 276.843C301.852 276.866 301.564 276.773 301.343 276.584C301.122 276.395 300.985 276.125 300.962 275.835C300.94 275.545 301.033 275.258 301.222 275.037C301.411 274.816 301.68 274.679 301.97 274.656L334.415 269.553C334.701 269.507 334.994 269.577 335.229 269.748C335.464 269.919 335.621 270.175 335.667 270.462C335.712 270.749 335.642 271.042 335.471 271.276C335.301 271.511 335.044 271.669 334.757 271.714L302.313 276.818L302.142 276.843Z" fill="white"/>
<path d="M251.835 263.721C251.645 263.721 251.458 263.672 251.292 263.578C251.127 263.483 250.989 263.348 250.892 263.184C250.796 263.02 250.743 262.834 250.74 262.643C250.738 262.453 250.784 262.265 250.876 262.099L264 238.403C264.141 238.15 264.376 237.962 264.655 237.882C264.934 237.802 265.233 237.836 265.487 237.977C265.741 238.118 265.929 238.353 266.009 238.632C266.089 238.911 266.054 239.211 265.914 239.464L252.79 263.16C252.695 263.33 252.557 263.472 252.389 263.57C252.221 263.669 252.03 263.721 251.835 263.721Z" fill="white"/>
<path d="M149.159 279.558L219.684 269.813C219.902 269.786 220.102 269.679 220.248 269.514C220.393 269.349 220.473 269.136 220.473 268.916C220.473 268.697 220.393 268.484 220.248 268.319C220.102 268.154 219.902 268.048 219.684 268.02L148.999 258.72C148.937 258.713 148.875 258.713 148.813 258.72L112.723 261.498C112.522 261.513 112.332 261.595 112.183 261.73C112.034 261.866 111.934 262.047 111.9 262.246C111.866 262.444 111.898 262.648 111.993 262.826C112.088 263.003 112.24 263.144 112.424 263.226L148.678 279.496C148.829 279.561 148.996 279.583 149.159 279.558Z" fill="#4BD657"/>
<path d="M149.035 280.125C148.83 280.125 148.627 280.081 148.44 279.998L112.186 263.721C111.896 263.585 111.658 263.358 111.509 263.074C111.361 262.789 111.31 262.464 111.366 262.148C111.421 261.832 111.579 261.543 111.815 261.326C112.051 261.109 112.352 260.975 112.671 260.947L148.761 258.172C148.862 258.161 148.963 258.161 149.064 258.172L219.745 267.472C220.087 267.527 220.399 267.702 220.624 267.965C220.849 268.229 220.973 268.565 220.973 268.912C220.973 269.259 220.849 269.594 220.624 269.858C220.399 270.122 220.087 270.297 219.745 270.352L149.242 280.103C149.173 280.114 149.104 280.122 149.035 280.125ZM148.878 259.27H148.848L112.759 262.048C112.678 262.049 112.6 262.08 112.54 262.134C112.48 262.189 112.441 262.263 112.431 262.343C112.418 262.422 112.431 262.502 112.469 262.573C112.506 262.643 112.566 262.7 112.638 262.733L148.892 278.999C148.954 279.027 149.022 279.037 149.089 279.028L219.599 269.276C219.68 269.258 219.752 269.213 219.803 269.148C219.855 269.084 219.883 269.004 219.883 268.921C219.883 268.838 219.855 268.758 219.803 268.694C219.752 268.629 219.68 268.584 219.599 268.566L148.918 259.262L148.878 259.27Z" fill="black"/>
<path d="M127.523 258.566L128.329 258.719L178.29 268.234C178.473 268.268 178.639 268.366 178.756 268.511C178.874 268.656 178.935 268.839 178.929 269.025C178.924 269.212 178.851 269.39 178.725 269.528C178.599 269.666 178.428 269.754 178.242 269.776L135.799 275.12" fill="#382256"/>
<path d="M135.867 275.663L135.729 274.57L178.172 269.225C178.226 269.216 178.275 269.188 178.31 269.146C178.345 269.104 178.365 269.051 178.365 268.996C178.365 268.941 178.345 268.888 178.31 268.846C178.275 268.804 178.226 268.776 178.172 268.766L127.402 259.095L127.61 258.02L178.406 267.698C178.717 267.757 178.997 267.925 179.195 268.172C179.393 268.418 179.496 268.728 179.486 269.045C179.476 269.361 179.353 269.663 179.14 269.897C178.926 270.131 178.636 270.281 178.322 270.319L135.867 275.663Z" fill="#1D1E1B"/>
<path d="M55.9598 197.509L118.333 204.005C119.216 204.097 120.058 204.427 120.768 204.96C121.478 205.493 122.03 206.209 122.365 207.031L149.425 273.378C149.759 274.196 149.866 275.089 149.734 275.962C149.602 276.836 149.237 277.657 148.677 278.34C148.117 279.023 147.382 279.542 146.552 279.843C145.721 280.143 144.824 280.213 143.957 280.045L78.5469 267.483C77.7355 267.331 76.9759 266.977 76.3385 266.452C75.7011 265.928 75.2066 265.25 74.9015 264.483L50.8781 204.21C50.5627 203.424 50.4563 202.57 50.5691 201.73C50.6819 200.891 51.0102 200.095 51.5219 199.421C52.0336 198.746 52.7113 198.215 53.489 197.88C54.2667 197.545 55.118 197.418 55.9598 197.509Z" fill="#4BD657"/>
<path d="M144.918 280.681C144.561 280.681 144.205 280.647 143.854 280.579L78.4475 268.017C77.5482 267.846 76.7066 267.451 76.0011 266.868C75.2955 266.285 74.7489 265.533 74.4121 264.681L50.3887 204.404C50.0407 203.533 49.9235 202.587 50.0487 201.657C50.174 200.727 50.5375 199.845 51.1037 199.097C51.67 198.349 52.4198 197.76 53.2807 197.387C54.1415 197.014 55.0842 196.869 56.0172 196.967L118.387 203.464C119.369 203.565 120.304 203.931 121.094 204.523C121.884 205.115 122.498 205.911 122.871 206.825L149.931 273.172C150.264 273.997 150.39 274.891 150.299 275.776C150.208 276.662 149.902 277.511 149.408 278.252C148.915 278.992 148.247 279.601 147.465 280.025C146.682 280.449 145.808 280.675 144.918 280.685V280.681ZM55.4412 198.028C54.7321 198.034 54.035 198.213 53.4101 198.548C52.7852 198.883 52.2511 199.366 51.854 199.953C51.4569 200.541 51.2085 201.216 51.1304 201.921C51.0524 202.626 51.1469 203.339 51.4058 204L75.4292 264.277C75.6971 264.957 76.1333 265.559 76.6969 266.025C77.2605 266.491 77.933 266.806 78.6517 266.942L144.062 279.504C144.832 279.652 145.628 279.589 146.366 279.322C147.104 279.055 147.756 278.594 148.253 277.987C148.75 277.381 149.075 276.651 149.192 275.875C149.309 275.099 149.214 274.306 148.917 273.58L121.857 207.233C121.56 206.502 121.07 205.865 120.438 205.391C119.807 204.917 119.059 204.624 118.274 204.543L55.9188 198.054C55.7475 198.039 55.5943 198.028 55.4412 198.028Z" fill="black"/>
<path d="M155.048 212.937C155.048 212.937 151.192 210.236 139.1 212.802L155.048 212.937Z" fill="#07ACEE"/>
<path d="M155.045 213.483C154.935 213.484 154.827 213.451 154.736 213.388C154.677 213.348 150.795 210.88 139.214 213.337C139.071 213.367 138.923 213.34 138.801 213.26C138.68 213.181 138.594 213.057 138.565 212.914C138.535 212.772 138.562 212.624 138.642 212.503C138.721 212.381 138.845 212.296 138.987 212.266C151.17 209.681 155.195 212.375 155.363 212.488C155.481 212.572 155.561 212.699 155.586 212.842C155.611 212.985 155.577 213.131 155.494 213.25C155.444 213.322 155.377 213.382 155.299 213.422C155.221 213.463 155.134 213.484 155.045 213.483Z" fill="#1D1D1B"/>
<path d="M88.3264 213.173C80.3429 201.012 75.7461 187.655 74.6561 173.438C73.7885 162.086 75.1483 150.18 78.699 138.055C84.7395 117.426 95.1908 103.095 95.2965 102.953L96.1751 103.602C96.0731 103.744 85.7199 117.943 79.7378 138.394C74.2259 157.234 71.4044 185.391 89.2415 212.571L88.3264 213.173Z" fill="#1D1E1B"/>
<path d="M71.1272 211.876C61.8095 199.277 59.3086 184.9 58.8529 175.031C58.3571 164.361 60.0888 156.545 60.1071 156.469L61.1715 156.709C61.1715 156.786 59.4544 164.481 59.9465 175.013C60.3985 184.706 62.8629 198.858 72.0056 211.223L71.1272 211.876Z" fill="#1D1E1B"/>
<path d="M93.4044 244.259C92.7606 244.224 92.1527 243.951 91.6982 243.494C90.9781 242.776 90.4266 241.907 90.0836 240.95C89.7406 239.993 89.6148 238.972 89.7151 237.96C89.8646 236.946 90.3386 236.25 91.0494 235.995C92.4128 235.506 94.1225 236.917 94.9464 239.207C95.7666 241.496 95.3438 243.672 93.9804 244.161C93.7954 244.226 93.6005 244.259 93.4044 244.259ZM91.6217 236.99C91.5523 236.99 91.4833 237.001 91.4175 237.023C91.1113 237.136 90.8817 237.533 90.7942 238.117C90.7226 238.95 90.8317 239.789 91.1142 240.576C91.3967 241.363 91.846 242.08 92.4311 242.677C92.8722 243.074 93.3022 243.238 93.6121 243.129C94.2719 242.892 94.5417 241.306 93.9147 239.571C93.346 237.993 92.3034 236.99 91.6217 236.99Z" fill="#1D1E1B"/>
<path d="M133.724 246.227C133.509 246.228 133.298 246.165 133.119 246.046C132.939 245.927 132.798 245.758 132.714 245.56L118.133 210.929C118.02 210.661 118.018 210.36 118.128 210.091C118.237 209.823 118.449 209.609 118.716 209.496C118.983 209.383 119.284 209.381 119.553 209.491C119.822 209.6 120.036 209.812 120.149 210.079L134.73 244.711C134.786 244.843 134.815 244.985 134.816 245.129C134.817 245.273 134.79 245.415 134.735 245.548C134.681 245.681 134.601 245.802 134.501 245.904C134.4 246.006 134.279 246.088 134.147 246.143C134.013 246.199 133.869 246.228 133.724 246.227Z" fill="white"/>
<path d="M137.733 259.715C137.497 259.715 137.267 259.639 137.078 259.498C136.889 259.357 136.75 259.158 136.683 258.931L134.861 252.734C134.82 252.596 134.807 252.452 134.823 252.309C134.838 252.166 134.881 252.028 134.95 251.902C135.019 251.775 135.112 251.664 135.224 251.574C135.336 251.484 135.465 251.417 135.603 251.376C135.74 251.336 135.885 251.323 136.028 251.338C136.171 251.354 136.309 251.397 136.435 251.466C136.561 251.535 136.673 251.628 136.763 251.74C136.853 251.852 136.92 251.98 136.96 252.118L138.783 258.315C138.865 258.592 138.834 258.889 138.698 259.143C138.561 259.397 138.33 259.587 138.054 259.671C137.95 259.701 137.842 259.716 137.733 259.715Z" fill="white"/>
<defs>
<filter id="filter0_d_2659_39312" x="-4.0192" y="107.785" width="38.6829" height="38.6829" filterUnits="userSpaceOnUse" color-interpolation-filters="sRGB">
<feFlood flood-opacity="0" result="BackgroundImageFix"/>
<feColorMatrix in="SourceAlpha" type="matrix" values="0 0 0 0 0 0 0 0 0 0 0 0 0 0 0 0 0 0 127 0" result="hardAlpha"/>
<feOffset dy="2.03704"/>
<feGaussianBlur stdDeviation="5.09261"/>
<feComposite in2="hardAlpha" operator="out"/>
<feColorMatrix type="matrix" values="0 0 0 0 0 0 0 0 0 0 0 0 0 0 0 0 0 0 0.05 0"/>
<feBlend mode="normal" in2="BackgroundImageFix" result="effect1_dropShadow_2659_39312"/>
<feBlend mode="normal" in="SourceGraphic" in2="effect1_dropShadow_2659_39312" result="shape"/>
</filter>
<filter id="filter1_d_2659_39312" x="370.649" y="165.211" width="38.6888" height="38.6907" filterUnits="userSpaceOnUse" color-interpolation-filters="sRGB">
<feFlood flood-opacity="0" result="BackgroundImageFix"/>
<feColorMatrix in="SourceAlpha" type="matrix" values="0 0 0 0 0 0 0 0 0 0 0 0 0 0 0 0 0 0 127 0" result="hardAlpha"/>
<feOffset dy="2.03704"/>
<feGaussianBlur stdDeviation="5.09261"/>
<feComposite in2="hardAlpha" operator="out"/>
<feColorMatrix type="matrix" values="0 0 0 0 0 0 0 0 0 0 0 0 0 0 0 0 0 0 0.05 0"/>
<feBlend mode="normal" in2="BackgroundImageFix" result="effect1_dropShadow_2659_39312"/>
<feBlend mode="normal" in="SourceGraphic" in2="effect1_dropShadow_2659_39312" result="shape"/>
</filter>
<linearGradient id="paint0_linear_2659_39312" x1="20.4547" y1="112.036" x2="392.053" y2="200.545" gradientUnits="userSpaceOnUse">
<stop stop-color="#CDD5E2"/>
<stop offset="1" stop-color="#CDD5E2" stop-opacity="0"/>
</linearGradient>
<linearGradient id="paint1_linear_2659_39312" x1="391.411" y1="195.436" x2="353.85" y2="294.043" gradientUnits="userSpaceOnUse">
<stop stop-color="#CDD5E2"/>
<stop offset="1" stop-color="#CDD5E2" stop-opacity="0"/>
</linearGradient>
<linearGradient id="paint2_linear_2659_39312" x1="196.502" y1="23.2617" x2="196.502" y2="365.007" gradientUnits="userSpaceOnUse">
<stop stop-color="#CDD5E2"/>
<stop offset="1" stop-color="#CDD5E2" stop-opacity="0"/>
</linearGradient>
<linearGradient id="paint3_linear_2659_39312" x1="196.505" y1="57.4336" x2="196.505" y2="330.83" gradientUnits="userSpaceOnUse">
<stop stop-color="#CDD5E2"/>
<stop offset="1" stop-color="#CDD5E2" stop-opacity="0"/>
</linearGradient>
</defs>
</svg>
